<?xml version="1.0" encoding="UTF-8" standalone="no"?>
<!-- Created with Inkscape (http://www.inkscape.org/) -->

<svg
   width="16"
   height="16"
   viewBox="0 0 16 16"
   version="1.1"
   id="svg5"
   inkscape:version="1.2 (dc2aedaf03, 2022-05-15)"
   sodipodi:docname="go-top.svg"
   xmlns:inkscape="http://www.inkscape.org/namespaces/inkscape"
   xmlns:sodipodi="http://sodipodi.sourceforge.net/DTD/sodipodi-0.dtd"
   xmlns="http://www.w3.org/2000/svg"
   xmlns:svg="http://www.w3.org/2000/svg">
  <sodipodi:namedview
     id="namedview7"
     pagecolor="#ffffff"
     bordercolor="#666666"
     borderopacity="1.0"
     inkscape:showpageshadow="2"
     inkscape:pageopacity="0.0"
     inkscape:pagecheckerboard="0"
     inkscape:deskcolor="#d1d1d1"
     inkscape:document-units="px"
     showgrid="false"
     inkscape:zoom="33.916667"
     inkscape:cx="11.985258"
     inkscape:cy="12"
     inkscape:window-width="1920"
     inkscape:window-height="1007"
     inkscape:window-x="0"
     inkscape:window-y="0"
     inkscape:window-maximized="1"
     inkscape:current-layer="svg5" />
  <defs
     id="defs2" />
  <path
     d="M 4.051,9.65625 C 4.050999,9.52844 4.09955,9.400665 4.197484,9.302734 L 8.500219,4.9999999 12.804907,9.302734 c 0.195867,0.195868 0.195867,0.511162 0,0.707031 -0.195869,0.195868 -0.511166,0.195871 -0.707032,0 L 9.000219,6.914063 v 7.585938 c 0,0.277 -0.223001,0.500001 -0.5,0.500001 -0.277,0 -0.5,-0.223001 -0.5,-0.500001 V 6.914063 l -3.095703,3.095702 c -0.195877,0.19586 -0.511163,0.195869 -0.707032,0 C 4.099554,9.911831 4.051001,9.78406 4.051,9.65625 Z"
     style="stroke-width:2;stroke-linecap:round;stroke-linejoin:round"
     id="path510"
     sodipodi:nodetypes="scccsccssscccs" />
  <circle
     style="stroke-width:1.99999;stroke-linecap:round;stroke-linejoin:round"
     id="path679"
     cx="8.5"
     cy="-2.5"
     r="1.5"
     transform="scale(1,-1)" />
</svg>
