<?xml version="1.0" encoding="UTF-8" standalone="no"?>
<!-- Created with Inkscape (http://www.inkscape.org/) -->

<svg
   width="22"
   height="22"
   viewBox="0 0 22 22"
   version="1.1"
   id="svg5"
   inkscape:version="1.2 (dc2aedaf03, 2022-05-15)"
   sodipodi:docname="go-bottom.svg"
   xmlns:inkscape="http://www.inkscape.org/namespaces/inkscape"
   xmlns:sodipodi="http://sodipodi.sourceforge.net/DTD/sodipodi-0.dtd"
   xmlns="http://www.w3.org/2000/svg"
   xmlns:svg="http://www.w3.org/2000/svg">
  <sodipodi:namedview
     id="namedview7"
     pagecolor="#ffffff"
     bordercolor="#666666"
     borderopacity="1.0"
     inkscape:showpageshadow="2"
     inkscape:pageopacity="0.0"
     inkscape:pagecheckerboard="0"
     inkscape:deskcolor="#d1d1d1"
     inkscape:document-units="px"
     showgrid="false"
     inkscape:zoom="18.5"
     inkscape:cx="10.081081"
     inkscape:cy="13.351351"
     inkscape:window-width="1920"
     inkscape:window-height="1007"
     inkscape:window-x="0"
     inkscape:window-y="0"
     inkscape:window-maximized="1"
     inkscape:current-layer="svg5" />
  <defs
     id="defs2" />
  <path
     d="m 6.051242,9.344 c -1e-6,0.12781 0.04855,0.255585 0.146484,0.353516 L 11.500219,15 16.804516,9.697515 c 0.195867,-0.195868 0.195867,-0.511162 0,-0.707031 -0.195869,-0.195868 -0.511166,-0.195871 -0.707032,0 l -4.097265,4.095453 V 3.500001 c 0,-0.277 -0.223001,-0.500001 -0.5,-0.500001 -0.277,0 -0.5,0.223001 -0.5,0.500001 v 9.585936 L 6.904758,8.990484 c -0.195877,-0.19586 -0.511163,-0.195869 -0.707032,0 C 6.099796,9.088419 6.051243,9.216189 6.051242,9.344 Z"
     style="stroke-width:2;stroke-linecap:round;stroke-linejoin:round"
     id="path510"
     sodipodi:nodetypes="scccsccssscccs" />
  <circle
     style="stroke-width:1.99999;stroke-linecap:round;stroke-linejoin:round"
     id="path679"
     cx="11.5"
     cy="17.5"
     r="1.5" />
</svg>
