<?xml version="1.0" encoding="UTF-8" standalone="no"?>
<!-- Created with Inkscape (http://www.inkscape.org/) -->

<svg
   width="32"
   height="32"
   viewBox="0 0 32 32"
   version="1.1"
   id="svg5"
   inkscape:version="1.2.1 (9c6d41e410, 2022-07-14)"
   sodipodi:docname="application-x-plasma.svg"
   xmlns:inkscape="http://www.inkscape.org/namespaces/inkscape"
   xmlns:sodipodi="http://sodipodi.sourceforge.net/DTD/sodipodi-0.dtd"
   xmlns="http://www.w3.org/2000/svg"
   xmlns:svg="http://www.w3.org/2000/svg">
  <sodipodi:namedview
     id="namedview7"
     pagecolor="#ffffff"
     bordercolor="#000000"
     borderopacity="0.25"
     inkscape:showpageshadow="2"
     inkscape:pageopacity="0.0"
     inkscape:pagecheckerboard="0"
     inkscape:deskcolor="#d1d1d1"
     inkscape:document-units="px"
     showgrid="false"
     inkscape:zoom="16.458333"
     inkscape:cx="21.782279"
     inkscape:cy="23.210127"
     inkscape:window-width="1920"
     inkscape:window-height="1002"
     inkscape:window-x="0"
     inkscape:window-y="0"
     inkscape:window-maximized="1"
     inkscape:current-layer="svg5" />
  <defs
     id="defs2" />
  <rect
     style="opacity:0.3;fill:#000000;fill-opacity:1;stroke-width:2;stroke-linejoin:round"
     id="rect234"
     width="24"
     height="30"
     x="4"
     y="1"
     ry="1" />
  <rect
     style="fill:#fafafa;fill-opacity:1;stroke-width:1.51945;stroke-linejoin:round"
     id="rect2307"
     width="22"
     height="28"
     x="5"
     y="2" />
  <path
     d="m 12,9 c -0.554,0 -1,0.446 -1,1 0,0.554 0.446,1 1,1 0.554,0 1,-0.446 1,-1 0,-0.554 -0.446,-1 -1,-1 z m 6,0 -2,2 3,3 -3,3 2,2 3,-3 2,-2 -2,-2 z m -7.5,5 C 9.669006,14 9,14.668994 9,15.5 9,16.330994 9.669006,17 10.5,17 11.331006,17 12,16.330994 12,15.5 12,14.668994 11.331006,14 10.5,14 Z m 3.5,5 c -1.108,0 -2,0.892 -2,2 0,1.108 0.892,2 2,2 1.108,0 2,-0.892 2,-2 0,-1.108 -0.892,-2 -2,-2 z"
     style="fill:#3daee9;fill-opacity:1"
     id="path360"
     sodipodi:nodetypes="ssssscccccccccssssssssss" />
</svg>
