<?xml version="1.0" encoding="UTF-8" standalone="no"?>
<!-- Created with Inkscape (http://www.inkscape.org/) -->

<svg
   width="32"
   height="32"
   viewBox="0 0 32 32"
   version="1.1"
   id="svg5"
   inkscape:version="1.2.1 (9c6d41e410, 2022-07-14)"
   sodipodi:docname="application-x-java.svg"
   xmlns:inkscape="http://www.inkscape.org/namespaces/inkscape"
   xmlns:sodipodi="http://sodipodi.sourceforge.net/DTD/sodipodi-0.dtd"
   xmlns="http://www.w3.org/2000/svg"
   xmlns:svg="http://www.w3.org/2000/svg">
  <sodipodi:namedview
     id="namedview7"
     pagecolor="#ffffff"
     bordercolor="#000000"
     borderopacity="0.25"
     inkscape:showpageshadow="2"
     inkscape:pageopacity="0.0"
     inkscape:pagecheckerboard="0"
     inkscape:deskcolor="#d1d1d1"
     inkscape:document-units="px"
     showgrid="false"
     inkscape:zoom="24.84375"
     inkscape:cx="16"
     inkscape:cy="16"
     inkscape:window-width="1920"
     inkscape:window-height="1007"
     inkscape:window-x="0"
     inkscape:window-y="0"
     inkscape:window-maximized="1"
     inkscape:current-layer="svg5" />
  <defs
     id="defs2" />
  <rect
     style="opacity:0.3;fill:#000000;fill-opacity:1;stroke-width:2;stroke-linejoin:round"
     id="rect234"
     width="24"
     height="30"
     x="4"
     y="1"
     ry="1" />
  <rect
     style="fill:#fafafa;fill-opacity:1;stroke-width:1.51945;stroke-linejoin:round"
     id="rect2307"
     width="22"
     height="28"
     x="5"
     y="2" />
  <path
     d="m 17.377988,5.1858386 c 0.838061,3.3016372 -2.956464,4.2974905 -4.325834,6.3536704 -0.932512,1.400957 0.457916,2.908815 2.353332,4.618781 -0.73913,-1.67086 -3.246826,-3.13494 0,-5.699426 4.048743,-3.1956849 1.972502,-5.2730254 1.972502,-5.2730254 z m 2.503058,4.0849672 c 4.5e-5,0 -6.843502,1.7104382 -3.573938,5.4780892 0.965203,1.111059 -0.253887,2.109209 -0.253887,2.109209 0,0 2.449409,-1.2642 1.324767,-2.848084 -1.050763,-1.476385 -1.858233,-2.209943 2.503058,-4.7392142 z"
     style="clip-rule:evenodd;fill:#df9043;fill-opacity:1;fill-rule:evenodd;stroke-width:0.342452"
     id="path5259" />
  <path
     d="m 20.990602,16.002762 c -0.209678,0.01067 -0.429642,0.05453 -0.654245,0.133457 -0.210097,0.07436 -0.318985,0.247375 -0.318985,0.247375 0,0 0.130256,-0.05538 0.426399,-0.117174 1.210994,-0.252339 2.948279,1.621387 -0.803973,3.570685 -0.01738,0.04647 -0.07491,0.100908 -0.07486,0.100908 4.540681,-1.193645 3.45257,-4.039211 1.42567,-3.935238 z m -8.121109,0.188787 c -0.478389,0.0125 -1.595391,0.115741 -2.8969089,0.745384 -2.0529063,0.992634 5.0773759,1.446135 8.7688459,0.475224 0.38377,-0.261894 0.911387,-0.488243 0.911387,-0.488243 0,0 -1.509699,0.267591 -3.014088,0.393849 -1.841311,0.154487 -3.816085,0.188007 -4.807567,0.05532 -2.3474481,-0.313831 1.288962,-1.178293 1.288962,-1.178293 0,0 -0.09118,-0.0075 -0.250631,-0.0032 z m -0.595656,2.271958 c -3.3864437,1.123933 1.884379,2.399957 6.617321,1.015545 -0.502866,-0.177264 -0.823504,-0.501262 -0.823504,-0.501262 -2.314093,0.44535 -3.651568,0.428673 -5.344634,0.253885 -1.308941,-0.13529 -0.449183,-0.768168 -0.449183,-0.768168 z m 0.478477,2.187329 c -3.0749119,0.859163 1.868867,2.634364 5.784053,0.956957 -0.641241,-0.249198 -1.100174,-0.537069 -1.100174,-0.537069 -1.745932,0.330031 -2.555487,0.356706 -4.140301,0.175769 -1.307968,-0.150022 -0.543578,-0.595657 -0.543578,-0.595657 z m -2.138505,1.45171 c -1.3808439,0.0426 -4.0808401,1.285291 -1.6112015,1.686065 7.9819795,1.293812 14.5496525,-0.582705 12.4794925,-1.516808 0,0 0.566473,0.466298 -0.621695,0.826758 -2.259326,0.68433 -9.404263,0.889408 -11.3890841,0.02605 -0.7129982,-0.310556 0.6239511,-0.739102 1.0448401,-0.830013 0.43885,-0.09494 0.69005,-0.07811 0.69005,-0.07811 -0.123987,-0.08731 -0.336689,-0.121807 -0.592402,-0.113924 z m 12.137722,1.188057 c 0,0 -0.253698,0.646213 -2.97828,1.158765 -3.073765,0.578688 -6.865695,0.511171 -9.113872,0.139956 0,0 0.461951,0.381498 2.828554,0.533813 3.600914,0.230217 9.132696,-0.128507 9.263598,-1.832541 z"
     style="clip-rule:evenodd;fill:#65768d;fill-opacity:1;fill-rule:evenodd;stroke-width:0.342452"
     id="path6867" />
</svg>
