<?xml version="1.0" encoding="UTF-8" standalone="no"?>
<!-- Created with Inkscape (http://www.inkscape.org/) -->

<svg
   width="32"
   height="32"
   viewBox="0 0 32 32"
   version="1.1"
   id="svg4041"
   sodipodi:docname="application-x-java-archive.svg"
   inkscape:version="1.2.1 (9c6d41e410, 2022-07-14)"
   xmlns:inkscape="http://www.inkscape.org/namespaces/inkscape"
   xmlns:sodipodi="http://sodipodi.sourceforge.net/DTD/sodipodi-0.dtd"
   xmlns="http://www.w3.org/2000/svg"
   xmlns:svg="http://www.w3.org/2000/svg">
  <sodipodi:namedview
     id="namedview4043"
     pagecolor="#ffffff"
     bordercolor="#000000"
     borderopacity="0.25"
     inkscape:showpageshadow="2"
     inkscape:pageopacity="0.0"
     inkscape:pagecheckerboard="0"
     inkscape:deskcolor="#d1d1d1"
     inkscape:document-units="px"
     showgrid="false"
     showguides="false"
     inkscape:zoom="24.84375"
     inkscape:cx="16"
     inkscape:cy="16"
     inkscape:window-width="1920"
     inkscape:window-height="1007"
     inkscape:window-x="0"
     inkscape:window-y="0"
     inkscape:window-maximized="1"
     inkscape:current-layer="svg4041" />
  <defs
     id="defs4038" />
  <rect
     style="opacity:0.6;fill:#808080;fill-opacity:1;stroke-width:3;stroke-linecap:round;stroke-linejoin:round"
     id="rect4577"
     width="28"
     height="24"
     x="2"
     y="4"
     ry="1" />
  <rect
     style="opacity:1;fill:#e6e6e6;fill-opacity:1;stroke-width:4.22788;stroke-linecap:round;stroke-linejoin:round"
     id="rect4891"
     width="26"
     height="22"
     x="3"
     y="5" />
  <path
     d="m 17.44019,7 c 0.754255,2.9714729 -2.660818,3.867742 -3.89325,5.718303 -0.839261,1.260862 0.412124,2.617933 2.117998,4.156903 -0.665216,-1.503773 -2.922143,-2.821446 0,-5.129482 C 19.308806,8.869607 17.44019,7 17.44019,7 Z m 2.252752,3.676471 c 3.9e-5,0 -6.159152,1.539394 -3.216544,4.93028 0.868683,0.999952 -0.228498,1.898289 -0.228498,1.898289 0,0 2.204467,-1.137781 1.19229,-2.563277 -0.945687,-1.328747 -1.67241,-1.988948 2.252752,-4.265292 z"
     style="clip-rule:evenodd;fill:#df9043;fill-opacity:1;fill-rule:evenodd;stroke-width:0.308206"
     id="path5259" />
  <path
     d="m 20.691543,16.735231 c -0.188712,0.0097 -0.38668,0.04908 -0.588822,0.120111 -0.189086,0.06693 -0.287087,0.222638 -0.287087,0.222638 0,0 0.117231,-0.04984 0.38376,-0.105457 1.089896,-0.227105 2.653452,1.459248 -0.723576,3.213616 -0.01564,0.04182 -0.06742,0.09082 -0.06737,0.09082 4.086614,-1.074281 3.107313,-3.63529 1.283103,-3.541714 z m -7.308999,0.169908 c -0.430549,0.01125 -1.43585,0.104167 -2.607219,0.670845 -1.847615,0.893371 4.56964,1.301522 7.891961,0.427703 0.345395,-0.235706 0.820249,-0.43942 0.820249,-0.43942 0,0 -1.358729,0.240832 -2.712678,0.354465 -1.65718,0.139039 -3.434477,0.169206 -4.326809,0.0498 -2.112706,-0.282448 1.160064,-1.060464 1.160064,-1.060464 0,0 -0.08206,-0.0067 -0.225568,-0.003 z m -0.53609,2.044762 c -3.0478,1.011541 1.695941,2.159962 5.955588,0.913991 -0.452578,-0.159538 -0.741154,-0.451136 -0.741154,-0.451136 -2.082682,0.400815 -3.28641,0.385806 -4.810169,0.228497 -1.178047,-0.121761 -0.404265,-0.691352 -0.404265,-0.691352 z m 0.43063,1.968596 c -2.767422,0.773247 1.68198,2.370928 5.205646,0.861262 -0.577117,-0.224278 -0.990157,-0.483362 -0.990157,-0.483362 -1.571337,0.297028 -2.299938,0.321035 -3.726269,0.158192 -1.177172,-0.13502 -0.48922,-0.536092 -0.48922,-0.536092 z m -1.924655,1.306539 c -1.24276,0.03834 -3.672757,1.156762 -1.4500823,1.517459 7.1837823,1.164431 13.0946873,-0.524434 11.2315433,-1.365128 0,0 0.509825,0.419669 -0.559525,0.744083 -2.033393,0.615897 -8.463836,0.800467 -10.250176,0.02344 -0.6416985,-0.2795 0.561557,-0.665192 0.940356,-0.747012 0.394965,-0.08545 0.621046,-0.0703 0.621046,-0.0703 C 11.774,22.248998 11.58257,22.217951 11.352429,22.225046 Z m 10.92395,1.069252 c 0,0 -0.228328,0.581591 -2.680454,1.042888 -2.766387,0.520819 -6.179124,0.460054 -8.202483,0.12596 0,0 0.415756,0.343349 2.545699,0.480432 3.240821,0.207195 8.219426,-0.115656 8.337238,-1.649286 z"
     style="clip-rule:evenodd;fill:#65768d;fill-opacity:1;fill-rule:evenodd;stroke-width:0.308206"
     id="path6867" />
</svg>
