<?xml version="1.0" encoding="UTF-8" standalone="no"?>
<!-- Created with Inkscape (http://www.inkscape.org/) -->

<svg
   width="32"
   height="32"
   viewBox="0 0 32 32"
   version="1.1"
   id="svg5"
   inkscape:version="1.2.1 (9c6d41e410, 2022-07-14)"
   sodipodi:docname="application-x-javascript.svg"
   xmlns:inkscape="http://www.inkscape.org/namespaces/inkscape"
   xmlns:sodipodi="http://sodipodi.sourceforge.net/DTD/sodipodi-0.dtd"
   xmlns="http://www.w3.org/2000/svg"
   xmlns:svg="http://www.w3.org/2000/svg">
  <sodipodi:namedview
     id="namedview7"
     pagecolor="#ffffff"
     bordercolor="#000000"
     borderopacity="0.25"
     inkscape:showpageshadow="2"
     inkscape:pageopacity="0.0"
     inkscape:pagecheckerboard="0"
     inkscape:deskcolor="#d1d1d1"
     inkscape:document-units="px"
     showgrid="false"
     inkscape:zoom="16.458333"
     inkscape:cx="21.812659"
     inkscape:cy="23.240507"
     inkscape:window-width="1920"
     inkscape:window-height="1007"
     inkscape:window-x="0"
     inkscape:window-y="0"
     inkscape:window-maximized="1"
     inkscape:current-layer="svg5" />
  <defs
     id="defs2" />
  <rect
     style="opacity:0.3;fill:#000000;fill-opacity:1;stroke-width:2;stroke-linejoin:round"
     id="rect234"
     width="24"
     height="30"
     x="4"
     y="1"
     ry="1" />
  <rect
     style="fill:#fafafa;fill-opacity:1;stroke-width:1.51945;stroke-linejoin:round"
     id="rect2307"
     width="22"
     height="28"
     x="5"
     y="2" />
  <path
     d="m 12.99981,11 v 6.618011 c 0,1.015625 -0.513775,1.276725 -1.188405,1.276725 -0.705769,0 -1.195645,-0.435854 -1.519472,-1.001232 L 8.623,18.894736 C 9.1066548,19.908306 10.291933,21 11.935956,21 13.754345,21 14.99981,20.041941 14.99981,17.938734 V 11 Z m 6.492001,0 c -1.810086,0 -2.970447,1.147205 -2.970447,2.654196 0,1.634456 0.973539,2.407482 2.436967,3.024258 l 0.506496,0.215873 c 0.923722,0.400903 1.380394,0.645559 1.380394,1.334292 0,0.573602 -0.440063,0.988897 -1.280758,0.988897 -1.000526,0 -1.47381,-0.672285 -1.907648,-1.37541 l -1.594203,1.05263 C 16.658362,20.060444 17.727396,21 19.610134,21 c 1.926329,0 3.360692,-0.990953 3.360692,-2.798109 0,-1.677631 -0.971465,-2.423929 -2.69644,-3.155839 L 19.76789,14.832236 c -0.869753,-0.374176 -1.247548,-0.616773 -1.247548,-1.219161 0,-0.487253 0.377795,-0.861427 0.971469,-0.861432 0.583299,0 0.95693,0.244658 1.303592,0.861432 l 1.579675,-1.003291 C 21.708755,11.444079 20.780871,11 19.491811,11 Z"
     style="fill:#eaaf2f;fill-opacity:1;stroke-width:1"
     id="path377" />
</svg>
