<?xml version="1.0" encoding="UTF-8" standalone="no"?>
<!-- Created with Inkscape (http://www.inkscape.org/) -->

<svg
   width="32"
   height="32"
   viewBox="0 0 32 32"
   version="1.1"
   id="svg5"
   inkscape:version="1.2.1 (9c6d41e410, 2022-07-14)"
   sodipodi:docname="application-x-desktop.svg"
   xmlns:inkscape="http://www.inkscape.org/namespaces/inkscape"
   xmlns:sodipodi="http://sodipodi.sourceforge.net/DTD/sodipodi-0.dtd"
   xmlns="http://www.w3.org/2000/svg"
   xmlns:svg="http://www.w3.org/2000/svg">
  <sodipodi:namedview
     id="namedview7"
     pagecolor="#ffffff"
     bordercolor="#000000"
     borderopacity="0.25"
     inkscape:showpageshadow="2"
     inkscape:pageopacity="0.0"
     inkscape:pagecheckerboard="0"
     inkscape:deskcolor="#d1d1d1"
     inkscape:document-units="px"
     showgrid="false"
     inkscape:zoom="16.458333"
     inkscape:cx="21.843038"
     inkscape:cy="23.210127"
     inkscape:window-width="1920"
     inkscape:window-height="1012"
     inkscape:window-x="0"
     inkscape:window-y="0"
     inkscape:window-maximized="1"
     inkscape:current-layer="svg5" />
  <defs
     id="defs2" />
  <rect
     style="opacity:0.3;fill:#000000;fill-opacity:1;stroke-width:2;stroke-linejoin:round"
     id="rect234"
     width="24"
     height="30"
     x="4"
     y="1"
     ry="1" />
  <rect
     style="fill:#fafafa;fill-opacity:1;stroke-width:1.51945;stroke-linejoin:round"
     id="rect2307"
     width="22"
     height="28"
     x="5"
     y="2" />
  <path
     d="m 14.857143,8 c -0.205675,0 -0.377071,0.7943909 -0.477679,1.929687 -0.532142,0.145227 -1.042853,0.359869 -1.518973,0.638394 C 11.983035,9.832683 11.297615,9.388769 11.151786,9.534598 l -1.617188,1.617188 c -0.145829,0.145829 0.298085,0.831249 1.033483,1.708705 -0.276587,0.476407 -0.489348,0.987107 -0.632813,1.518973 C 8.796791,14.479975 8,14.651123 8,14.857143 v 2.285714 c 0,0.205675 0.794391,0.377071 1.929687,0.477679 0.144246,0.533187 0.358142,1.045036 0.636161,1.522321 -0.733726,0.875884 -1.176903,1.559704 -1.03125,1.705357 l 1.617188,1.617188 c 0.145516,0.145516 0.828475,-0.296603 1.703125,-1.029018 0.478387,0.275487 0.990981,0.486754 1.524553,0.628348 C 14.479975,23.203209 14.651123,24 14.857143,24 h 2.285714 c 0.205675,0 0.377071,-0.794391 0.477679,-1.929687 0.532142,-0.145227 1.042853,-0.359869 1.518973,-0.638394 0.877456,0.735398 1.562876,1.179312 1.708705,1.033483 l 1.617188,-1.617188 c 0.145829,-0.145829 -0.298085,-0.831249 -1.033483,-1.708705 0.276587,-0.476407 0.489348,-0.987107 0.632813,-1.518973 C 23.203209,17.520025 24,17.348877 24,17.142857 v -2.285714 c 0,-0.205675 -0.794391,-0.377071 -1.929687,-0.477679 -0.144246,-0.533187 -0.358142,-1.045036 -0.636161,-1.522321 0.733726,-0.875884 1.176903,-1.559704 1.03125,-1.705357 L 20.848214,9.534598 C 20.702698,9.389082 20.019739,9.831201 19.145089,10.563616 18.666702,10.288129 18.154108,10.076862 17.620536,9.935268 17.520025,8.7967909 17.348877,8 17.142857,8 Z M 16,13.142857 c 1.577957,0 2.857143,1.279186 2.857143,2.857143 0,1.577957 -1.279186,2.857143 -2.857143,2.857143 -1.577957,0 -2.857143,-1.279186 -2.857143,-2.857143 0,-1.577957 1.279186,-2.857143 2.857143,-2.857143 z"
     style="color:#000000;clip-rule:nonzero;display:inline;overflow:visible;visibility:visible;isolation:auto;mix-blend-mode:normal;color-interpolation:sRGB;color-interpolation-filters:linearRGB;solid-color:#000000;solid-opacity:1;fill:#5e6c83;fill-opacity:1;fill-rule:nonzero;stroke:none;stroke-width:1;stroke-linecap:butt;stroke-linejoin:miter;stroke-miterlimit:4;stroke-dasharray:none;stroke-dashoffset:0;stroke-opacity:1;marker:none;color-rendering:auto;image-rendering:auto;shape-rendering:auto;text-rendering:auto;enable-background:accumulate"
     id="path379" />
</svg>
