<?xml version="1.0" encoding="UTF-8" standalone="no"?>
<!-- Created with Inkscape (http://www.inkscape.org/) -->

<svg
   width="32"
   height="32"
   viewBox="0 0 32 32"
   version="1.1"
   id="svg5"
   inkscape:version="1.2.1 (9c6d41e410, 2022-07-14)"
   sodipodi:docname="playlist.svg"
   xmlns:inkscape="http://www.inkscape.org/namespaces/inkscape"
   xmlns:sodipodi="http://sodipodi.sourceforge.net/DTD/sodipodi-0.dtd"
   xmlns="http://www.w3.org/2000/svg"
   xmlns:svg="http://www.w3.org/2000/svg">
  <sodipodi:namedview
     id="namedview7"
     pagecolor="#ffffff"
     bordercolor="#000000"
     borderopacity="0.25"
     inkscape:showpageshadow="2"
     inkscape:pageopacity="0.0"
     inkscape:pagecheckerboard="0"
     inkscape:deskcolor="#d1d1d1"
     inkscape:document-units="px"
     showgrid="false"
     inkscape:zoom="25.65625"
     inkscape:cx="16"
     inkscape:cy="16"
     inkscape:window-width="1920"
     inkscape:window-height="1007"
     inkscape:window-x="0"
     inkscape:window-y="0"
     inkscape:window-maximized="1"
     inkscape:current-layer="svg5" />
  <defs
     id="defs2" />
  <rect
     style="opacity:0.3;fill:#000000;fill-opacity:1;stroke-width:2;stroke-linejoin:round"
     id="rect234"
     width="24"
     height="30"
     x="4"
     y="1"
     ry="1" />
  <rect
     style="fill:#fafafa;fill-opacity:1;stroke-width:1.51945;stroke-linejoin:round"
     id="rect2307"
     width="22"
     height="28"
     x="5"
     y="2" />
  <path
     d="m 20.492366,10 c -0.276816,0 -0.499668,0.222852 -0.499668,0.499668 v 9.526875 c -0.612346,-0.256968 -1.378023,-0.167321 -2.033805,0.238123 -1.068351,0.660894 -1.530781,1.947655 -1.032517,2.873091 0.497498,0.925415 1.766516,1.139541 2.834054,0.478198 0.772374,-0.478648 1.255935,-1.30991 1.229653,-2.113829 6.9e-5,-0.0034 0.002,-0.0063 0.002,-0.0098 v -8.119567 c 0.120295,-0.06642 0.307186,0.07687 0.40598,0.144435 1.122688,0.679226 2.102853,1.806395 2.172385,3.195144 0.06015,0.803342 -0.108107,1.602348 -0.339618,2.365615 C 24.262902,17.379926 24.2074,15.017529 22.9322,13.466447 22.10959,12.608151 21.333911,11.607628 20.992033,10.445016 20.967103,10.334585 20.816294,10 20.492366,10 Z M 9.499668,10.999336 C 9.222852,10.999336 9,11.222188 9,11.499004 c 0,0.276816 0.222852,0.499668 0.499668,0.499668 h 6.995354 c 0.276816,0 0.499668,-0.222852 0.499668,-0.499668 0,-0.276816 -0.222852,-0.499668 -0.499668,-0.499668 z m 0,2.998009 C 9.222852,13.997345 9,14.220197 9,14.497013 c 0,0.276816 0.222852,0.499668 0.499668,0.499668 h 6.995354 c 0.276816,0 0.499668,-0.222852 0.499668,-0.499668 0,-0.276816 -0.222852,-0.499668 -0.499668,-0.499668 z m 0,2.998008 C 9.222852,16.995353 9,17.218205 9,17.495021 9,17.771838 9.222852,17.99469 9.499668,17.99469 h 6.995354 c 0.276816,0 0.499668,-0.222852 0.499668,-0.499669 0,-0.276816 -0.222852,-0.499668 -0.499668,-0.499668 z m 0,2.998009 C 9.222852,19.993362 9,20.216214 9,20.49303 c 0,0.276816 0.222852,0.499668 0.499668,0.499668 h 3.997345 c 0.276816,0 0.499668,-0.222852 0.499668,-0.499668 0,-0.276816 -0.222852,-0.499668 -0.499668,-0.499668 z"
     style="color:#000000;clip-rule:nonzero;display:inline;overflow:visible;visibility:visible;isolation:auto;mix-blend-mode:normal;color-interpolation:sRGB;color-interpolation-filters:linearRGB;solid-color:#000000;solid-opacity:1;fill:#ff7f2a;fill-opacity:1;fill-rule:nonzero;stroke:none;stroke-width:0.5;stroke-linecap:butt;stroke-linejoin:round;stroke-miterlimit:4;stroke-dasharray:none;stroke-dashoffset:0;stroke-opacity:1;marker:none;color-rendering:auto;image-rendering:auto;shape-rendering:auto;text-rendering:auto;enable-background:accumulate"
     id="path329" />
</svg>
