<?xml version="1.0" encoding="UTF-8" standalone="no"?>
<!-- Created with Inkscape (http://www.inkscape.org/) -->

<svg
   width="32"
   height="32"
   viewBox="0 0 32 32"
   version="1.1"
   id="svg5"
   inkscape:version="1.2.1 (9c6d41e410, 2022-07-14)"
   sodipodi:docname="text-x-generic.svg"
   xmlns:inkscape="http://www.inkscape.org/namespaces/inkscape"
   xmlns:sodipodi="http://sodipodi.sourceforge.net/DTD/sodipodi-0.dtd"
   xmlns="http://www.w3.org/2000/svg"
   xmlns:svg="http://www.w3.org/2000/svg">
  <sodipodi:namedview
     id="namedview7"
     pagecolor="#ffffff"
     bordercolor="#000000"
     borderopacity="0.25"
     inkscape:showpageshadow="2"
     inkscape:pageopacity="0.0"
     inkscape:pagecheckerboard="0"
     inkscape:deskcolor="#d1d1d1"
     inkscape:document-units="px"
     showgrid="false"
     inkscape:zoom="25"
     inkscape:cx="16"
     inkscape:cy="16"
     inkscape:window-width="1920"
     inkscape:window-height="1012"
     inkscape:window-x="0"
     inkscape:window-y="0"
     inkscape:window-maximized="1"
     inkscape:current-layer="svg5" />
  <defs
     id="defs2" />
  <rect
     style="opacity:0.3;fill:#000000;fill-opacity:1;stroke-width:2;stroke-linejoin:round"
     id="rect234"
     width="24"
     height="30"
     x="4"
     y="1"
     ry="1" />
  <rect
     style="fill:#fafafa;fill-opacity:1;stroke-width:1.51945;stroke-linejoin:round"
     id="rect2307"
     width="22"
     height="28"
     x="5"
     y="2" />
  <path
     id="rect3634"
     style="opacity:0.2;fill:#000000;stroke-width:1;stroke-linejoin:round"
     d="M 8 6 L 8 7 L 16 7 L 16 6 L 8 6 z M 8 8 L 8 9 L 19 9 L 19 8 L 8 8 z M 8 10 L 8 11 L 17 11 L 17 10 L 8 10 z M 8 13 L 8 14 L 18 14 L 18 13 L 8 13 z M 8 15 L 8 16 L 17 16 L 17 15 L 8 15 z M 8 18 L 8 19 L 13 19 L 13 18 L 8 18 z M 14 18 L 14 19 L 23 19 L 23 18 L 14 18 z M 8 20 L 8 21 L 13 21 L 13 20 L 8 20 z M 15 20 L 15 21 L 17 21 L 17 20 L 15 20 z M 8 22 L 8 23 L 13 23 L 13 22 L 8 22 z M 8 24 L 8 25 L 19 25 L 19 24 L 8 24 z M 8 26 L 8 27 L 12 27 L 12 26 L 8 26 z M 14 26 L 14 27 L 19 27 L 19 26 L 14 26 z " />
</svg>
