<?xml version="1.0" encoding="UTF-8" standalone="no"?>
<!-- Created with Inkscape (http://www.inkscape.org/) -->

<svg
   width="32"
   height="32"
   viewBox="0 0 32 32"
   version="1.1"
   id="svg5"
   inkscape:version="1.2.1 (9c6d41e410, 2022-07-14)"
   sodipodi:docname="text-x-vala.svg"
   xmlns:inkscape="http://www.inkscape.org/namespaces/inkscape"
   xmlns:sodipodi="http://sodipodi.sourceforge.net/DTD/sodipodi-0.dtd"
   xmlns="http://www.w3.org/2000/svg"
   xmlns:svg="http://www.w3.org/2000/svg">
  <sodipodi:namedview
     id="namedview7"
     pagecolor="#ffffff"
     bordercolor="#000000"
     borderopacity="0.25"
     inkscape:showpageshadow="2"
     inkscape:pageopacity="0.0"
     inkscape:pagecheckerboard="0"
     inkscape:deskcolor="#d1d1d1"
     inkscape:document-units="px"
     showgrid="false"
     inkscape:zoom="16.458333"
     inkscape:cx="21.812659"
     inkscape:cy="23.240507"
     inkscape:window-width="1920"
     inkscape:window-height="1007"
     inkscape:window-x="0"
     inkscape:window-y="0"
     inkscape:window-maximized="1"
     inkscape:current-layer="svg5" />
  <defs
     id="defs2" />
  <rect
     style="opacity:0.3;fill:#000000;fill-opacity:1;stroke-width:2;stroke-linejoin:round"
     id="rect234"
     width="24"
     height="30"
     x="4"
     y="1"
     ry="1" />
  <rect
     style="fill:#fafafa;fill-opacity:1;stroke-width:1.51945;stroke-linejoin:round"
     id="rect2307"
     width="22"
     height="28"
     x="5"
     y="2" />
  <path
     d="M 13.973649,22.999978 13.672869,10.24868 c -0.875,0.328125 -1.558593,0.841579 -2.050781,1.540363 -0.48611,0.698785 -0.729166,1.567709 -0.729166,2.60677 0,0.236979 0.01219,0.431424 0.03645,0.583333 0.03037,0.145837 0.06077,0.264322 0.09114,0.35547 0.03037,0.08507 0.05773,0.151912 0.08203,0.20052 0.03037,0.04862 0.04556,0.09114 0.04556,0.127612 -0.322048,0 -0.607639,-0.03037 -0.85677,-0.09114 C 10.042199,15.504768 9.832565,15.40147 9.662426,15.261713 9.498363,15.121951 9.370758,14.936626 9.279612,14.705723 9.194542,14.474821 9.152,14.18923 9.152,13.848952 c 0,-0.413194 0.08811,-0.820311 0.264324,-1.221353 0.182288,-0.401038 0.428383,-0.780812 0.73828,-1.139319 0.315973,-0.358507 0.683593,-0.68967 1.102865,-0.993489 0.425345,-0.303819 0.878036,-0.565104 1.358072,-0.783854 0.48611,-0.224826 0.990451,-0.398003 1.513021,-0.519531 C 14.657207,9.063801 15.182814,9 15.705382,9 c 0.139763,0 0.267362,0.003 0.382813,0.0091 0.121519,0.0061 0.243057,0.01519 0.364585,0.02735 l 0.164069,11.484376 3.928383,-11.429684 h 1.303386 l -5.186197,13.90885 z"
     style="color:#000000;clip-rule:nonzero;display:inline;overflow:visible;visibility:visible;isolation:auto;mix-blend-mode:normal;color-interpolation:sRGB;color-interpolation-filters:linearRGB;solid-color:#000000;solid-opacity:1;fill:#8d5fd3;fill-opacity:1;fill-rule:nonzero;stroke-width:0.999999;stroke-linecap:butt;stroke-linejoin:miter;stroke-miterlimit:4;stroke-dasharray:none;stroke-dashoffset:0;stroke-opacity:1;color-rendering:auto;image-rendering:auto;shape-rendering:auto;text-rendering:auto;enable-background:accumulate"
     id="path328" />
</svg>
