<?xml version="1.0" encoding="UTF-8" standalone="no"?>
<!-- Created with Inkscape (http://www.inkscape.org/) -->

<svg
   width="32"
   height="32"
   viewBox="0 0 32 32"
   version="1.1"
   id="svg5"
   inkscape:version="1.2.1 (9c6d41e410, 2022-07-14)"
   sodipodi:docname="x-office-spreadsheet-template.svg"
   xmlns:inkscape="http://www.inkscape.org/namespaces/inkscape"
   xmlns:sodipodi="http://sodipodi.sourceforge.net/DTD/sodipodi-0.dtd"
   xmlns="http://www.w3.org/2000/svg"
   xmlns:svg="http://www.w3.org/2000/svg">
  <sodipodi:namedview
     id="namedview7"
     pagecolor="#ffffff"
     bordercolor="#000000"
     borderopacity="0.25"
     inkscape:showpageshadow="2"
     inkscape:pageopacity="0.0"
     inkscape:pagecheckerboard="0"
     inkscape:deskcolor="#d1d1d1"
     inkscape:document-units="px"
     showgrid="false"
     inkscape:zoom="24.84375"
     inkscape:cx="16.040252"
     inkscape:cy="16"
     inkscape:window-width="1920"
     inkscape:window-height="1007"
     inkscape:window-x="0"
     inkscape:window-y="0"
     inkscape:window-maximized="1"
     inkscape:current-layer="svg5" />
  <defs
     id="defs2" />
  <rect
     style="opacity:0.6;fill:#225500;fill-opacity:1;stroke-width:2;stroke-linejoin:round"
     id="rect234"
     width="24"
     height="30"
     x="4"
     y="1"
     ry="1" />
  <rect
     style="fill:#77c143;fill-opacity:1;stroke-width:1.51945;stroke-linejoin:round"
     id="rect2307"
     width="22"
     height="28"
     x="5"
     y="2" />
  <path
     id="rect287"
     style="fill:#ffffff;stroke-width:3;stroke-linecap:round;stroke-linejoin:round"
     d="M 8 10 L 8 23 L 24 23 L 24 10 L 8 10 z M 9 11 L 23 11 L 23 13 L 9 13 L 9 11 z M 9 14 L 13 14 L 13 16 L 9 16 L 9 14 z M 14 14 L 18 14 L 18 16 L 14 16 L 14 14 z M 19 14 L 23 14 L 23 16 L 19 16 L 19 14 z M 9 17 L 13 17 L 13 19 L 9 19 L 9 17 z M 14 17 L 18 17 L 18 19 L 14 19 L 14 17 z M 19 17 L 23 17 L 23 19 L 19 19 L 19 17 z M 9 20 L 13 20 L 13 22 L 9 22 L 9 20 z M 14 20 L 18 20 L 18 22 L 14 22 L 14 20 z M 19 20 L 23 20 L 23 22 L 19 22 L 19 20 z " />
  <path
     id="path2423"
     style="color:#000000;opacity:0.8;fill:#e9e9e9;fill-rule:evenodd;-inkscape-stroke:none"
     d="M 27,16.707031 13.707031,30 H 27 Z m -2,4.585938 V 28 h -5.5 -1.207031 z" />
  <path
     d="M 28,14.292969 11.292969,31 H 28 Z m -1,2.414062 V 30 H 13.707031 Z M 25,21.292969 18.292969,28 H 19.5 25 Z m -1,2.414062 V 27 h -3.292969 z"
     style="color:#000000;opacity:0.8;fill:#83899a;fill-rule:evenodd;-inkscape-stroke:none"
     id="path2390" />
</svg>
