<?xml version="1.0" encoding="UTF-8" standalone="no"?>
<!-- Created with Inkscape (http://www.inkscape.org/) -->

<svg
   width="32"
   height="32"
   viewBox="0 0 32 32.000001"
   version="1.1"
   id="svg5"
   sodipodi:docname="x-office-calendar.svg"
   inkscape:version="1.2.1 (9c6d41e410, 2022-07-14)"
   xmlns:inkscape="http://www.inkscape.org/namespaces/inkscape"
   xmlns:sodipodi="http://sodipodi.sourceforge.net/DTD/sodipodi-0.dtd"
   xmlns:xlink="http://www.w3.org/1999/xlink"
   xmlns="http://www.w3.org/2000/svg"
   xmlns:svg="http://www.w3.org/2000/svg">
  <sodipodi:namedview
     id="namedview7"
     pagecolor="#ffffff"
     bordercolor="#666666"
     borderopacity="1.0"
     inkscape:showpageshadow="2"
     inkscape:pageopacity="0.0"
     inkscape:pagecheckerboard="0"
     inkscape:deskcolor="#d1d1d1"
     inkscape:document-units="px"
     showgrid="false"
     inkscape:zoom="24.6875"
     inkscape:cx="16.020253"
     inkscape:cy="16"
     inkscape:window-width="1920"
     inkscape:window-height="1002"
     inkscape:window-x="0"
     inkscape:window-y="0"
     inkscape:window-maximized="1"
     inkscape:current-layer="svg5" />
  <defs
     id="defs2">
    <linearGradient
       inkscape:collect="always"
       xlink:href="#linearGradient22024"
       id="linearGradient8655"
       x1="16"
       y1="30"
       x2="16"
       y2="9"
       gradientUnits="userSpaceOnUse" />
    <linearGradient
       inkscape:collect="always"
       id="linearGradient22024">
      <stop
         style="stop-color:#dedede;stop-opacity:1;"
         offset="0"
         id="stop22020" />
      <stop
         style="stop-color:#f2f2f2;stop-opacity:1;"
         offset="1"
         id="stop22022" />
    </linearGradient>
  </defs>
  <rect
     style="fill:url(#linearGradient8655);fill-opacity:1.0;stroke:none"
     id="rect184"
     width="27"
     height="27"
     x="2.5"
     y="2.5"
     ry="4.5" />
  <path
     id="rect348"
     style="fill:#97c04d;fill-opacity:1;stroke-width:0.5;stroke-linejoin:round"
     d="M 7,2.5 C 4.5070025,2.5 2.5,4.5070025 2.5,7 v 3 h 27 V 7 C 29.5,4.5070025 27.492998,2.5 25,2.5 Z"
     sodipodi:nodetypes="ssccsss" />
  <rect
     style="opacity:0.2;fill:#000000;stroke-width:0.64952;stroke-linejoin:round"
     id="rect581"
     width="27"
     height="1"
     x="2.5"
     y="9" />
  <path
     d="m 7,6 c -0.552283,4e-6 -0.999996,0.447717 -1,1 4e-6,0.552283 0.447717,0.999996 1.000001,1 C 7.552284,7.999996 7.999996,7.552283 8,7 7.999996,6.447717 7.552284,6.000004 7,6 Z m 18,0 c -0.552283,4e-6 -0.999996,0.447717 -0.999999,1 3e-6,0.552283 0.447716,0.999996 0.999999,1 0.552283,-3e-6 0.999996,-0.447716 1.000002,-1 C 25.999996,6.447716 25.552283,6.000003 25,6 Z"
     id="path1474"
     style="opacity:0.2;fill:#000000;stroke-width:1.8898"
     sodipodi:nodetypes="cccccccccc" />
  <path
     d="m 7.000001,5 c -0.552283,4e-6 -0.999996,0.447717 -1,1 4e-6,0.552283 0.447717,0.999996 1,1 0.552283,-4e-6 0.999996,-0.447717 1,-1 -4e-6,-0.552283 -0.447716,-0.999996 -1,-1 z m 18,0 c -0.552283,4e-6 -0.999996,0.447717 -1,1 3e-6,0.552283 0.447716,0.999996 1,1 0.552283,-3e-6 0.999997,-0.447716 1.000001,-1 -4e-6,-0.552284 -0.447718,-0.999997 -1.000001,-1 z"
     id="path1545"
     style="fill:#ffffff;stroke-width:1.8898"
     sodipodi:nodetypes="cccccccccc" />
  <path
     id="rect2630"
     style="opacity:0.3;fill:#ffffff;fill-opacity:1"
     d="M 7,3 C 4.7840022,3 3,4.7840022 3,6.9999998 v 1 C 3,5.7840022 4.7840022,4 7,4 h 18 c 2.215998,0 4,1.7840022 4,3.9999998 v -1 C 29,4.7840022 27.215998,3 25,3 Z" />
  <path
     id="rect398"
     style="opacity:0.3;fill:#ffffff"
     d="m 3.0000002,24 v 1 c 0,2.215998 1.7840022,4 4,4 H 25 c 2.215998,0 4,-1.784002 4,-4 v -1 c 0,2.215998 -1.784002,4 -4,4 H 7.0000002 c -2.2159978,0 -4,-1.784002 -4,-4 z" />
  <path
     id="rect899"
     style="fill:#000000;stroke:none;opacity:0.5"
     d="M 7 2 C 4.2300028 2 2 4.2300028 2 7 L 2 25 C 2 27.769997 4.2300028 30 7 30 L 25 30 C 27.769997 30 30 27.769997 30 25 L 30 7 C 30 4.2300028 27.769997 2 25 2 L 7 2 z M 7 3 L 25 3 C 27.215998 3 29 4.7840022 29 7 L 29 25 C 29 27.215998 27.215998 29 25 29 L 7 29 C 4.7840022 29 3 27.215998 3 25 L 3 7 C 3 4.7840022 4.7840022 3 7 3 z " />
</svg>
