<?xml version="1.0" encoding="UTF-8" standalone="no"?>
<!-- Created with Inkscape (http://www.inkscape.org/) -->

<svg
   width="22"
   height="22"
   viewBox="0 0 22 22"
   version="1.1"
   id="svg5"
   inkscape:version="1.2.1 (9c6d41e410, 2022-07-14)"
   sodipodi:docname="dialog-warning.svg"
   xmlns:inkscape="http://www.inkscape.org/namespaces/inkscape"
   xmlns:sodipodi="http://sodipodi.sourceforge.net/DTD/sodipodi-0.dtd"
   xmlns:xlink="http://www.w3.org/1999/xlink"
   xmlns="http://www.w3.org/2000/svg"
   xmlns:svg="http://www.w3.org/2000/svg">
  <sodipodi:namedview
     id="namedview7"
     pagecolor="#ffffff"
     bordercolor="#000000"
     borderopacity="0.25"
     inkscape:showpageshadow="2"
     inkscape:pageopacity="0.0"
     inkscape:pagecheckerboard="0"
     inkscape:deskcolor="#d1d1d1"
     inkscape:document-units="px"
     showgrid="false"
     inkscape:zoom="18.068182"
     inkscape:cx="-6.6415094"
     inkscape:cy="9.381132"
     inkscape:window-width="1920"
     inkscape:window-height="1007"
     inkscape:window-x="0"
     inkscape:window-y="0"
     inkscape:window-maximized="1"
     inkscape:current-layer="svg5" />
  <defs
     id="defs2">
    <linearGradient
       inkscape:collect="always"
       xlink:href="#linearGradient986"
       id="linearGradient2881"
       x1="29"
       y1="29"
       x2="3"
       y2="3"
       gradientUnits="userSpaceOnUse"
       gradientTransform="matrix(0.84615382,0,0,0.84615382,-2.5384612,-2.5384607)" />
    <linearGradient
       inkscape:collect="always"
       id="linearGradient986">
      <stop
         style="stop-color:#ffa12a;stop-opacity:1;"
         offset="0"
         id="stop982" />
      <stop
         style="stop-color:#ffdc75;stop-opacity:1;"
         offset="1"
         id="stop984" />
    </linearGradient>
  </defs>
  <circle
     style="fill:url(#linearGradient2881);fill-opacity:1;stroke:none;stroke-width:1.69231;stroke-linecap:round;stroke-linejoin:round;stroke-dasharray:none;stroke-opacity:1"
     id="path2873"
     cx="11"
     cy="11"
     r="11" />
  <path
     id="path599"
     style="opacity:0.2;fill:#000000;fill-opacity:1;stroke-width:7.5;stroke-linecap:round;stroke-linejoin:round"
     d="m 10,19 v -2 h 2 v 2 z m 0,-4 V 5 h 2 v 10 z"
     sodipodi:nodetypes="cccccccccc" />
  <path
     id="path1151"
     style="fill:#4d4d4d;fill-opacity:1;stroke-width:6;stroke-linecap:round;stroke-linejoin:round"
     d="m 10,18 v -2 h 2 v 2 z m 0,-4 V 4 h 2 v 10 z"
     sodipodi:nodetypes="cccccccccc" />
  <path
     id="path654"
     style="opacity:0.2;fill:#ffffff;stroke-width:3;stroke-linecap:round;stroke-linejoin:round"
     d="M 11,0 A 11,11 0 0 0 0,11 11,11 0 0 0 0.0351562,11.5 11,11 0 0 1 11,1 11,11 0 0 1 21.976562,11.328125 11,11 0 0 0 22,11 11,11 0 0 0 11,0 Z" />
</svg>
