<?xml version="1.0" encoding="UTF-8" standalone="no"?>
<!-- Created with Inkscape (http://www.inkscape.org/) -->

<svg
   width="22"
   height="22"
   viewBox="0 0 22 22.000001"
   version="1.1"
   id="svg5"
   sodipodi:docname="system-suspend.svg"
   inkscape:version="1.2.1 (9c6d41e410, 2022-07-14)"
   xmlns:inkscape="http://www.inkscape.org/namespaces/inkscape"
   xmlns:sodipodi="http://sodipodi.sourceforge.net/DTD/sodipodi-0.dtd"
   xmlns:xlink="http://www.w3.org/1999/xlink"
   xmlns="http://www.w3.org/2000/svg"
   xmlns:svg="http://www.w3.org/2000/svg">
  <sodipodi:namedview
     id="namedview7"
     pagecolor="#ffffff"
     bordercolor="#666666"
     borderopacity="1.0"
     inkscape:showpageshadow="2"
     inkscape:pageopacity="0.0"
     inkscape:pagecheckerboard="0"
     inkscape:deskcolor="#d1d1d1"
     inkscape:document-units="px"
     showgrid="false"
     inkscape:zoom="26.38794"
     inkscape:cx="11.766739"
     inkscape:cy="11.690947"
     inkscape:window-width="1920"
     inkscape:window-height="1007"
     inkscape:window-x="0"
     inkscape:window-y="0"
     inkscape:window-maximized="1"
     inkscape:current-layer="svg5"
     showguides="true" />
  <defs
     id="defs2">
    <linearGradient
       inkscape:collect="always"
       xlink:href="#linearGradient1391"
       id="linearGradient10386"
       x1="19"
       y1="23"
       x2="5"
       y2="1"
       gradientUnits="userSpaceOnUse"
       gradientTransform="translate(-1,-1)" />
    <linearGradient
       inkscape:collect="always"
       id="linearGradient1391">
      <stop
         style="stop-color:#1664b7;stop-opacity:1;"
         offset="0"
         id="stop1387" />
      <stop
         style="stop-color:#6fa7cf;stop-opacity:1;"
         offset="1"
         id="stop1389" />
    </linearGradient>
  </defs>
  <rect
     style="fill:url(#linearGradient10386);fill-opacity:1;stroke:none"
     id="rect184"
     width="21"
     height="21"
     x="0.5"
     y="0.5"
     ry="3.5" />
  <path
     d="M 8.6379209,5.429 C 5.8623523,6.4239324 4.0078029,9.0514209 4,11.999914 c 0,3.865994 3.1340067,7.000001 7,7.000001 2.55912,-0.0074 4.910197,-1.410848 6.13131,-3.659855 -0.756775,0.277985 -1.555884,0.423149 -2.36208,0.429086 -3.865992,0 -6.9999995,-3.134007 -6.9999995,-7.0000018 C 7.7754405,7.6007111 8.0741242,6.4524303 8.6379209,5.429 Z"
     style="color:#000000;fill:#000000;stroke:none;stroke-width:0.538463;stroke-linecap:round;stroke-linejoin:round;-inkscape-stroke:none;opacity:0.2"
     id="path608" />
  <path
     style="color:#000000;fill:#ffffff;stroke:none;stroke-width:0.538463;stroke-linecap:round;stroke-linejoin:round;-inkscape-stroke:none"
     d="M 8.6379209,4.429 C 5.8623523,5.4239324 4.0078029,8.0514207 4,10.999914 c 0,3.865993 3.1340067,7 7,7 2.55912,-0.0074 4.910197,-1.410848 6.13131,-3.659855 -0.756775,0.277985 -1.555884,0.423149 -2.36208,0.429086 -3.865992,0 -6.9999995,-3.134007 -6.9999995,-7.000001 C 7.7754405,6.600711 8.0741242,5.4524303 8.6379209,4.429 Z"
     id="path2650"
     sodipodi:nodetypes="ccccccc" />
  <path
     id="rect2630"
     style="opacity:0.3;fill:#ffffff;fill-opacity:1"
     d="m 3.9999999,1 c -1.6619983,0 -3,1.3380017 -3,2.9999997 v 1 c 0,-1.661998 1.3380017,-3 3,-3 H 18 c 1.661998,0 3,1.338002 3,3 v -1 C 21,2.3380017 19.661998,1 18,1 Z" />
  <path
     id="rect398"
     style="opacity:0.3;fill:#ffffff"
     d="m 1,17 v 1 c 0,1.661998 1.3380017,3 3,3 h 14 c 1.661998,0 3,-1.338002 3,-3 v -1 c 0,1.661998 -1.338002,3 -3,3 H 4 C 2.3380017,20 1,18.661998 1,17 Z" />
  <path
     id="rect899"
     style="opacity:0.5;fill:#000000;stroke:none"
     d="M 4,0 C 1.7840022,0 0,1.7840022 0,4 v 14 c 0,2.215998 1.7840022,4 4,4 h 14 c 2.215998,0 4,-1.784002 4,-4 V 4 C 22,1.7840022 20.215998,0 18,0 Z m 0,1 h 14 c 1.661998,0 3,1.3380017 3,3 v 14 c 0,1.661998 -1.338002,3 -3,3 H 4 C 2.3380017,21 1,19.661998 1,18 V 4 C 1,2.3380017 2.3380017,1 4,1 Z" />
</svg>
