<?xml version="1.0" encoding="UTF-8" standalone="no"?>
<!-- Created with Inkscape (http://www.inkscape.org/) -->

<svg
   width="22"
   height="22"
   viewBox="0 0 22 22.000001"
   version="1.1"
   id="svg5"
   sodipodi:docname="system-log-out.svg"
   inkscape:version="1.2.1 (9c6d41e410, 2022-07-14)"
   xmlns:inkscape="http://www.inkscape.org/namespaces/inkscape"
   xmlns:sodipodi="http://sodipodi.sourceforge.net/DTD/sodipodi-0.dtd"
   xmlns:xlink="http://www.w3.org/1999/xlink"
   xmlns="http://www.w3.org/2000/svg"
   xmlns:svg="http://www.w3.org/2000/svg">
  <sodipodi:namedview
     id="namedview7"
     pagecolor="#ffffff"
     bordercolor="#666666"
     borderopacity="1.0"
     inkscape:showpageshadow="2"
     inkscape:pageopacity="0.0"
     inkscape:pagecheckerboard="0"
     inkscape:deskcolor="#d1d1d1"
     inkscape:document-units="px"
     showgrid="false"
     inkscape:zoom="37.318182"
     inkscape:cx="11"
     inkscape:cy="11"
     inkscape:window-width="1920"
     inkscape:window-height="1007"
     inkscape:window-x="0"
     inkscape:window-y="0"
     inkscape:window-maximized="1"
     inkscape:current-layer="svg5"
     showguides="true" />
  <defs
     id="defs2">
    <linearGradient
       inkscape:collect="always"
       id="linearGradient4380">
      <stop
         style="stop-color:#e58800;stop-opacity:1;"
         offset="0"
         id="stop4376" />
      <stop
         style="stop-color:#f3dc1d;stop-opacity:1;"
         offset="1"
         id="stop4378" />
    </linearGradient>
    <linearGradient
       inkscape:collect="always"
       xlink:href="#linearGradient4380"
       id="linearGradient10386"
       x1="19"
       y1="23"
       x2="5"
       y2="1"
       gradientUnits="userSpaceOnUse"
       gradientTransform="translate(-1,-1)" />
  </defs>
  <rect
     style="fill:url(#linearGradient10386);fill-opacity:1.0;stroke:none"
     id="rect184"
     width="21"
     height="21"
     x="0.5"
     y="0.5"
     ry="3.5" />
  <path
     d="m 18.999808,12.000259 c 0,-0.554002 -0.446,-1.000002 -1,-1.000002 h -5 c -0.554,0 -1,0.446 -1,1.000002 0,0.554 0.446,1 1,1 h 5 c 0.554,0 1,-0.446 1,-1 z m -1.78125,-3.0625016 c -0.0169,-0.15536 -0.0709,-0.3065601 -0.15625,-0.4375001 -0.61135,-1.05993 -1.50441,-1.94797 -2.5625,-2.5625001 -2.21314,-1.28538 -4.8486795,-1.20735 -6.9374995,-0.0312 -0.0209,0.0109 -0.0424,0.0186 -0.0625,0.0312 -0.0413,0.024 -0.0844,0.0378 -0.125,0.0625 -0.0643,0.0388 -0.12439,0.0841 -0.1875,0.125 -0.11995,0.0784 -0.23006,0.16544 -0.34375,0.25 -0.0931,0.0687 -0.19127,0.1451701 -0.28125,0.2187501 -0.071,0.0584 -0.15048,0.12668 -0.21875,0.1875 -0.032,0.0284 -0.0622,0.0647 -0.0937,0.0937 -0.13596,0.12607 -0.25064,0.23983 -0.375,0.375 -0.0935,0.10085 -0.19313,0.20538 -0.28125,0.3125 -0.0736,0.09 -0.15001,0.18811 -0.21875,0.28125 -0.0846,0.11369 -0.17162,0.2238 -0.25,0.34375 -0.0409,0.0631 -0.0862,0.12324 -0.125,0.1875 -0.0247,0.0406 -0.0385,0.0838 -0.0625,0.125 -0.0821,0.14255 -0.14696,0.2900201 -0.21875,0.4375001 -0.0312,0.0639 -0.0647,0.123 -0.0937,0.1875 -0.0642,0.1423 -0.13292,0.29151 -0.1875,0.4375 -0.0746,0.20063 -0.13253,0.42094 -0.1875,0.6249996 -0.0504,0.18718 -0.0908,0.37345 -0.125,0.5625 -0.0464,0.25277 -0.0752,0.52436 -0.0937,0.781251 -0.0101,0.15684 -0.0317,0.31215 -0.0312,0.468751 -4.8e-4,0.1566 0.0211,0.31191 0.0312,0.46875 0.01,0.1323 0.0143,0.27488 0.0312,0.40625 0.0159,0.12921 0.0392,0.24628 0.0625,0.375 0.0342,0.18905 0.0746,0.37532 0.125,0.5625 0.055,0.20406 0.11293,0.42437 0.1875,0.625 0.15226,0.40725 0.33639,0.8127 0.5625,1.1875 0.04,0.0657 0.0832,0.12352 0.125,0.1875 0.0773,0.11936 0.1652,0.22883 0.25,0.34375 0.0684,0.0919 0.14653,0.19346 0.21875,0.28125 0.0858,0.10486 0.18901,0.21224 0.28125,0.3125 0.15551,0.1677 0.29955,0.31874 0.46875,0.46875 0.13654,0.12164 0.29002,0.26315 0.4375,0.375 0.0419,0.0316 0.0824,0.0632 0.125,0.0937 0.14156,0.10264 0.2865,0.18815 0.4375,0.28125 0.0523,0.032 0.10322,0.0632 0.15625,0.0937 0.0201,0.0127 0.0416,0.0204 0.0625,0.0312 2.08882,1.1761 4.7243595,1.25413 6.9374995,-0.0312 1.05809,-0.61453 1.95115,-1.50257 2.5625,-2.5625 0.0854,-0.13094 0.13935,-0.28214 0.15625,-0.4375 0.0384,-0.45307 -0.28323,-0.90059 -0.71875,-1.03125 -0.43551,-0.13065 -0.93893,0.0693 -1.15625,0.46875 -0.43673,0.75717 -1.05665,1.37351 -1.8125,1.8125 -1.63153,0.94758 -3.5538195,0.88793 -5.0624995,0 -0.0197,-0.0116 -0.043,-0.0194 -0.0625,-0.0312 -0.22314,-0.13367 -0.43113,-0.2767 -0.625,-0.4375 -0.11089,-0.0933 -0.20919,-0.20862 -0.3125,-0.3125 -0.10388,-0.10331 -0.21925,-0.20161 -0.3125,-0.3125 -0.1608,-0.19387 -0.30383,-0.40186 -0.4375,-0.625 -0.0238,-0.0391 -0.0399,-0.0853 -0.0625,-0.125 -0.1585,-0.2813 -0.27466,-0.58005 -0.375,-0.875 -0.0822,-0.24169 -0.14327,-0.4724 -0.1875,-0.71875 -0.023,-0.13196 -0.0501,-0.27253 -0.0625,-0.40625 -0.0148,-0.15641 -0.0311,-0.31271 -0.0312,-0.468751 1.3e-4,-0.15604 0.0164,-0.31234 0.0312,-0.46875 0.0124,-0.133721 0.0395,-0.274291 0.0625,-0.406251 0.0442,-0.246349 0.10528,-0.47706 0.1875,-0.71875 0.0636,-0.1868 0.10075,-0.38063 0.1875,-0.5624996 0.0513,-0.1074 0.12837,-0.20875 0.1875,-0.3125 0.0112,-0.0198 0.0198,-0.0428 0.0312,-0.0625 0.0116,-0.02 0.0194,-0.0427 0.0312,-0.0625 0.0767,-0.12625 0.16162,-0.25537 0.25,-0.375 0.005,-0.007 -0.005,-0.0245 0,-0.0312 0.0561,-0.0751 0.12678,-0.14655 0.1875,-0.21875 0.0954,-0.1150701 0.20858,-0.2080001 0.3125,-0.3125001 0.1045,-0.10392 0.19743,-0.21706 0.3125,-0.3125 0.079,-0.0665 0.16745,-0.12651 0.25,-0.1875 0.13708,-0.0994 0.28762,-0.1942 0.4375,-0.28125 1.50868,-0.88793 3.4309695,-0.94758 5.0624995,0 0.75585,0.43899 1.37577,1.0553301 1.8125,1.8125001 0.21732,0.3994 0.72074,0.5993996 1.15625,0.46875 0.43552,-0.13066 0.75717,-0.57818 0.71875,-1.03125 z"
     style="color:#000000;font-style:normal;font-variant:normal;font-weight:normal;font-stretch:normal;font-size:medium;line-height:normal;font-family:Sans;-inkscape-font-specification:Sans;text-indent:0;text-align:start;text-decoration:none;text-decoration-line:none;letter-spacing:normal;word-spacing:normal;text-transform:none;writing-mode:lr-tb;direction:ltr;baseline-shift:baseline;text-anchor:start;display:inline;overflow:visible;visibility:visible;fill:#000000;fill-opacity:1;stroke:none;stroke-width:2.33333;marker:none;enable-background:new;opacity:0.2"
     id="path2062" />
  <path
     d="m 18.999808,11.000094 c 0,-0.554001 -0.446,-1.000001 -1,-1.000001 h -5 c -0.554,0 -1,0.446 -1,1.000001 0,0.554 0.446,1 1,1 h 5 c 0.554,0 1,-0.446 1,-1 z m -1.78125,-3.0625008 c -0.0169,-0.15536 -0.0709,-0.30656 -0.15625,-0.4375 -0.61135,-1.05993 -1.50441,-1.94797 -2.5625,-2.5625 -2.21314,-1.28538 -4.8486795,-1.20735 -6.9374995,-0.0312 -0.0209,0.0109 -0.0424,0.0186 -0.0625,0.0312 -0.0413,0.024 -0.0844,0.0378 -0.125,0.0625 -0.0643,0.0388 -0.12439,0.0841 -0.1875,0.125 -0.11995,0.0784 -0.23006,0.16544 -0.34375,0.25 -0.0931,0.0687 -0.19127,0.14517 -0.28125,0.21875 -0.071,0.0584 -0.15048,0.12668 -0.21875,0.1875 -0.032,0.0284 -0.0622,0.0647 -0.0937,0.0937 -0.13596,0.12607 -0.25064,0.23983 -0.375,0.375 -0.0935,0.10085 -0.19313,0.20538 -0.28125,0.3125 -0.0736,0.09 -0.15001,0.18811 -0.21875,0.28125 -0.0846,0.11369 -0.17162,0.2238 -0.25,0.34375 -0.0409,0.0631 -0.0862,0.12324 -0.125,0.1875 -0.0247,0.0406 -0.0385,0.0838 -0.0625,0.125 -0.0821,0.14255 -0.14696,0.29002 -0.21875,0.4375 -0.0312,0.0639 -0.0647,0.123 -0.0937,0.1875 -0.0642,0.1423 -0.13292,0.29151 -0.1875,0.4375 -0.0746,0.20063 -0.13253,0.42094 -0.1875,0.625 -0.0504,0.18718 -0.0908,0.37345 -0.125,0.5625 -0.0464,0.2527698 -0.0752,0.5243598 -0.0937,0.7812508 -0.0101,0.15684 -0.0317,0.31215 -0.0312,0.46875 -4.8e-4,0.1566 0.0211,0.31191 0.0312,0.46875 0.01,0.1323 0.0143,0.27488 0.0312,0.40625 0.0159,0.12921 0.0392,0.24628 0.0625,0.375 0.0342,0.18905 0.0746,0.37532 0.125,0.5625 0.055,0.20406 0.11293,0.42437 0.1875,0.625 0.15226,0.40725 0.33639,0.8127 0.5625,1.1875 0.04,0.0657 0.0832,0.12352 0.125,0.1875 0.0773,0.11936 0.1652,0.22883 0.25,0.34375 0.0684,0.0919 0.14653,0.19346 0.21875,0.28125 0.0858,0.10486 0.18901,0.21224 0.28125,0.3125 0.15551,0.1677 0.29955,0.31874 0.46875,0.46875 0.13654,0.12164 0.29002,0.26315 0.4375,0.375 0.0419,0.0316 0.0824,0.0632 0.125,0.0937 0.14156,0.10264 0.2865,0.18815 0.4375,0.28125 0.0523,0.032 0.10322,0.0632 0.15625,0.0937 0.0201,0.0127 0.0416,0.0204 0.0625,0.0312 2.08882,1.1761 4.7243595,1.25413 6.9374995,-0.0312 1.05809,-0.61453 1.95115,-1.50257 2.5625,-2.5625 0.0854,-0.13094 0.13935,-0.28214 0.15625,-0.4375 0.0384,-0.45307 -0.28323,-0.90059 -0.71875,-1.03125 -0.43551,-0.13065 -0.93893,0.0693 -1.15625,0.46875 -0.43673,0.75717 -1.05665,1.37351 -1.8125,1.8125 -1.63153,0.94758 -3.5538195,0.88793 -5.0624995,0 -0.0197,-0.0116 -0.043,-0.0194 -0.0625,-0.0312 -0.22314,-0.13367 -0.43113,-0.2767 -0.625,-0.4375 -0.11089,-0.0933 -0.20919,-0.20862 -0.3125,-0.3125 -0.10388,-0.10331 -0.21925,-0.20161 -0.3125,-0.3125 -0.1608,-0.19387 -0.30383,-0.40186 -0.4375,-0.625 -0.0238,-0.0391 -0.0399,-0.0853 -0.0625,-0.125 -0.1585,-0.2813 -0.27466,-0.58005 -0.375,-0.875 -0.0822,-0.24169 -0.14327,-0.4724 -0.1875,-0.71875 -0.023,-0.13196 -0.0501,-0.27253 -0.0625,-0.40625 -0.0148,-0.15641 -0.0311,-0.31271 -0.0312,-0.46875 1.3e-4,-0.15604 0.0164,-0.31234 0.0312,-0.46875 0.0124,-0.133721 0.0395,-0.274291 0.0625,-0.406251 0.0442,-0.2463497 0.10528,-0.4770598 0.1875,-0.7187498 0.0636,-0.1868 0.10075,-0.38063 0.1875,-0.5625 0.0513,-0.1074 0.12837,-0.20875 0.1875,-0.3125 0.0112,-0.0198 0.0198,-0.0428 0.0312,-0.0625 0.0116,-0.02 0.0194,-0.0427 0.0312,-0.0625 0.0767,-0.12625 0.16162,-0.25537 0.25,-0.375 0.005,-0.007 -0.005,-0.0245 0,-0.0312 0.0561,-0.0751 0.12678,-0.14655 0.1875,-0.21875 0.0954,-0.11507 0.20858,-0.208 0.3125,-0.3125 0.1045,-0.10392 0.19743,-0.21706 0.3125,-0.3125 0.079,-0.0665 0.16745,-0.12651 0.25,-0.1875 0.13708,-0.0994 0.28762,-0.1942 0.4375,-0.28125 1.50868,-0.88793 3.4309695,-0.94758 5.0624995,0 0.75585,0.43899 1.37577,1.05533 1.8125,1.8125 0.21732,0.3994 0.72074,0.5994 1.15625,0.46875 0.43552,-0.13066 0.75717,-0.57818 0.71875,-1.03125 z"
     style="color:#000000;font-style:normal;font-variant:normal;font-weight:normal;font-stretch:normal;font-size:medium;line-height:normal;font-family:Sans;-inkscape-font-specification:Sans;text-indent:0;text-align:start;text-decoration:none;text-decoration-line:none;letter-spacing:normal;word-spacing:normal;text-transform:none;writing-mode:lr-tb;direction:ltr;baseline-shift:baseline;text-anchor:start;display:inline;overflow:visible;visibility:visible;fill:#ffffff;fill-opacity:1;stroke:none;stroke-width:2.33333;marker:none;enable-background:new"
     id="path1876"
     sodipodi:nodetypes="ssssssscccccccccccccccccccccccccccccccccccccccccccccscccccccccccccccccccccccccscccc" />
  <path
     id="rect2630"
     style="opacity:0.3;fill:#ffffff;fill-opacity:1"
     d="m 3.9999999,1 c -1.6619983,0 -3,1.3380017 -3,2.9999997 v 1 c 0,-1.661998 1.3380017,-3 3,-3 H 18 c 1.661998,0 3,1.338002 3,3 v -1 C 21,2.3380017 19.661998,1 18,1 Z" />
  <path
     id="rect398"
     style="opacity:0.3;fill:#ffffff"
     d="m 1,17 v 1 c 0,1.661998 1.3380017,3 3,3 h 14 c 1.661998,0 3,-1.338002 3,-3 v -1 c 0,1.661998 -1.338002,3 -3,3 H 4 C 2.3380017,20 1,18.661998 1,17 Z" />
  <path
     id="rect899"
     style="opacity:0.5;fill:#000000;stroke:none"
     d="M 4,0 C 1.7840022,0 0,1.7840022 0,4 v 14 c 0,2.215998 1.7840022,4 4,4 h 14 c 2.215998,0 4,-1.784002 4,-4 V 4 C 22,1.7840022 20.215998,0 18,0 Z m 0,1 h 14 c 1.661998,0 3,1.3380017 3,3 v 14 c 0,1.661998 -1.338002,3 -3,3 H 4 C 2.3380017,21 1,19.661998 1,18 V 4 C 1,2.3380017 2.3380017,1 4,1 Z" />
</svg>
