<?xml version="1.0" encoding="UTF-8" standalone="no"?>
<!-- Created with Inkscape (http://www.inkscape.org/) -->

<svg
   width="128"
   height="128"
   viewBox="0 0 128 128.00001"
   version="1.1"
   id="svg5"
   sodipodi:docname="128px-icon-template.svg"
   inkscape:version="1.2 (1:1.2+202206011326+fc4e4096c5)"
   xmlns:inkscape="http://www.inkscape.org/namespaces/inkscape"
   xmlns:sodipodi="http://sodipodi.sourceforge.net/DTD/sodipodi-0.dtd"
   xmlns="http://www.w3.org/2000/svg"
   xmlns:svg="http://www.w3.org/2000/svg">
  <sodipodi:namedview
     id="namedview7"
     pagecolor="#ffffff"
     bordercolor="#666666"
     borderopacity="1.0"
     inkscape:showpageshadow="2"
     inkscape:pageopacity="0.0"
     inkscape:pagecheckerboard="0"
     inkscape:deskcolor="#d1d1d1"
     inkscape:document-units="px"
     showgrid="false"
     inkscape:zoom="6.5"
     inkscape:cx="19.846154"
     inkscape:cy="65.230769"
     inkscape:window-width="1846"
     inkscape:window-height="1053"
     inkscape:window-x="0"
     inkscape:window-y="0"
     inkscape:window-maximized="1"
     inkscape:current-layer="svg5" />
  <defs
     id="defs2" />
  <rect
     style="fill:#e6e6e6;fill-opacity:1;stroke:none;stroke-width:2"
     id="rect184"
     width="111"
     height="111"
     x="8.5"
     y="8.5"
     ry="19.5" />
  <path
     id="rect441"
     style="opacity:0.3;fill:#ffffff"
     d="M 28,9 C 17.474011,9 9,17.474011 9,28 v 1 C 9,18.474011 17.474011,10 28,10 h 72 c 10.52599,0 19,8.474011 19,19 V 28 C 119,17.474011 110.52599,9 100,9 Z" />
  <path
     id="rect443"
     style="opacity:0.3;fill:#ffffff"
     d="m 9,99 v 1 c 0,10.52599 8.474011,19 19,19 h 72 c 10.52599,0 19,-8.47401 19,-19 v -1 c 0,10.52599 -8.47401,19 -19,19 H 28 C 17.474011,118 9,109.52599 9,99 Z" />
  <path
     id="rect899"
     style="fill:#000000;stroke:none;stroke-width:2;opacity:0.5"
     d="M 28,8 C 16.920022,8 8,16.920022 8,28 v 72 c 0,11.07998 8.920022,20 20,20 h 72 c 11.07998,0 20,-8.92002 20,-20 V 28 C 120,16.920022 111.07998,8 100,8 Z m 0,1 h 72 c 10.52599,0 19,8.474011 19,19 v 72 c 0,10.52599 -8.47401,19 -19,19 H 28 C 17.474011,119 9,110.52599 9,100 V 28 C 9,17.474011 17.474011,9 28,9 Z" />
</svg>
