<?xml version="1.0" encoding="UTF-8" standalone="no"?>
<!-- Created with Inkscape (http://www.inkscape.org/) -->

<svg
   width="256"
   height="256"
   viewBox="0 0 256 256"
   version="1.1"
   id="svg5"
   inkscape:version="1.2.1 (9c6d41e410, 2022-07-14)"
   sodipodi:docname="folder-black-pictures-open.svg"
   xmlns:inkscape="http://www.inkscape.org/namespaces/inkscape"
   xmlns:sodipodi="http://sodipodi.sourceforge.net/DTD/sodipodi-0.dtd"
   xmlns:xlink="http://www.w3.org/1999/xlink"
   xmlns="http://www.w3.org/2000/svg"
   xmlns:svg="http://www.w3.org/2000/svg">
  <sodipodi:namedview
     id="namedview7"
     pagecolor="#ffffff"
     bordercolor="#000000"
     borderopacity="0.25"
     inkscape:showpageshadow="2"
     inkscape:pageopacity="0.0"
     inkscape:pagecheckerboard="0"
     inkscape:deskcolor="#d1d1d1"
     inkscape:document-units="px"
     showgrid="false"
     inkscape:zoom="2.0670103"
     inkscape:cx="11.852868"
     inkscape:cy="152.15212"
     inkscape:window-width="1920"
     inkscape:window-height="1007"
     inkscape:window-x="0"
     inkscape:window-y="0"
     inkscape:window-maximized="1"
     inkscape:current-layer="svg5" />
  <defs
     id="defs2">
    <linearGradient
       inkscape:collect="always"
       id="linearGradient3155">
      <stop
         style="stop-color:#424242;stop-opacity:1;"
         offset="0"
         id="stop3151" />
      <stop
         style="stop-color:#2f2f2f;stop-opacity:1;"
         offset="1"
         id="stop3153" />
    </linearGradient>
    <linearGradient
       inkscape:collect="always"
       xlink:href="#linearGradient3155"
       id="linearGradient3157"
       x1="16"
       y1="7"
       x2="16"
       y2="30.5"
       gradientUnits="userSpaceOnUse"
       gradientTransform="matrix(4,0,0,4,0,4)" />
    <linearGradient
       inkscape:collect="always"
       xlink:href="#linearGradient3147"
       id="linearGradient3149"
       x1="56"
       y1="55"
       x2="32"
       y2="19"
       gradientUnits="userSpaceOnUse"
       gradientTransform="matrix(3.9999992,0,0,3.9999992,5.53e-5,4.000012)" />
    <linearGradient
       inkscape:collect="always"
       id="linearGradient3147">
      <stop
         style="stop-color:#414141;stop-opacity:1;"
         offset="0"
         id="stop3143" />
      <stop
         style="stop-color:#6a6a6a;stop-opacity:1;"
         offset="1"
         id="stop3145" />
    </linearGradient>
  </defs>
  <path
     d="m 32,33 c -8.863992,0 -16,7.136008 -16,16 v 160 c 0,8.864 7.136008,16 16,16 h 192 c 8.864,0 16,-7.136 16,-16 V 73 c 0,-8.863992 -7.136,-16 -16,-16 H 128 L 112,41 c -5.4342,-5.280768 -7.13601,-8 -16,-8 z"
     style="opacity:0.3;fill:#000000;stroke-width:8"
     id="path1016"
     sodipodi:nodetypes="ssssssssccss" />
  <path
     id="rect184"
     style="fill:url(#linearGradient3157);fill-opacity:1;stroke-width:8"
     d="m 32,32 c -8.863992,0 -16,7.136006 -16,16 v 160 c 0,8.864 7.136008,16 16,16 h 192 c 8.864,0 16,-7.136 16,-16 V 72 c 0,-8.863992 -7.136,-16 -16,-16 H 128 L 112,40 c -5.50953,-5.034684 -7.13601,-8 -16,-8 z"
     sodipodi:nodetypes="sccsssssccss" />
  <path
     id="rect1043"
     style="fill:url(#linearGradient3149);fill-opacity:1;stroke-width:8"
     d="m 128.00003,79.999996 -16,15.999998 c -5.33444,4.911806 -7.13599,7.999996 -15.999985,7.999996 H 32.000059 c -8.836544,0 -16,7.16345 -16,15.99999 V 208 c 0,8.86392 7.136024,16 16,16 H 224 c 8.86398,0 16,-7.13608 16,-16 V 95.999994 c 0,-8.863976 -7.13602,-15.999998 -16,-15.999998 z"
     sodipodi:nodetypes="ccsssssssssc" />
  <path
     id="path3081"
     style="opacity:0.2;fill:#ffffff;stroke-width:8"
     d="m 128.00003,79.999672 -16,16 c -5.33443,4.911798 -7.13604,7.999998 -16,7.999998 h -64 c -8.836521,0 -16,7.16348 -16,16 v 1 c 0,-8.83651 7.163479,-16 16,-16 h 64 c 8.86396,0 10.66557,-3.0882 16,-7.999998 l 16,-16 h 96 c 8.86395,0 16,7.136049 16,16 v -1 c 0,-8.863951 -7.13605,-16 -16,-16 z" />
  <path
     id="path297"
     style="color:#363636;opacity:0.6;fill:#ffffff;stroke-width:4"
     d="m 92,128 c -4.431988,0 -8,3.568 -8,8 v 52 c 0,4.43198 3.568012,8 8,8 h 72 c 4.432,0 8,-3.56802 8,-8 v -52 c 0,-4.432 -3.568,-8 -8,-8 z m 0,2 h 72 c 3.324,0 6,2.676 6,6 v 42 l -26,-26 -28,24 -12,-12 -18,18 v -46 c 0,-3.324 2.676006,-6 6,-6 z m 12,10 c -4.41828,0 -8,3.5817 -8,8 0,4.41828 3.58172,8 8,8 4.41829,0 8,-3.58172 8,-8 0,-4.4183 -3.58171,-8 -8,-8 z" />
</svg>
