<?xml version="1.0" encoding="UTF-8" standalone="no"?>
<!-- Created with Inkscape (http://www.inkscape.org/) -->

<svg
   width="48"
   height="48"
   viewBox="0 0 48 48.000002"
   version="1.1"
   id="svg5"
   sodipodi:docname="bluetooth.svg"
   inkscape:version="1.2.1 (9c6d41e410, 2022-07-14)"
   xmlns:inkscape="http://www.inkscape.org/namespaces/inkscape"
   xmlns:sodipodi="http://sodipodi.sourceforge.net/DTD/sodipodi-0.dtd"
   xmlns:xlink="http://www.w3.org/1999/xlink"
   xmlns="http://www.w3.org/2000/svg"
   xmlns:svg="http://www.w3.org/2000/svg">
  <sodipodi:namedview
     id="namedview7"
     pagecolor="#ffffff"
     bordercolor="#666666"
     borderopacity="1.0"
     inkscape:showpageshadow="2"
     inkscape:pageopacity="0.0"
     inkscape:pagecheckerboard="0"
     inkscape:deskcolor="#d1d1d1"
     inkscape:document-units="px"
     showgrid="false"
     inkscape:zoom="17.333333"
     inkscape:cx="24.144231"
     inkscape:cy="24.028847"
     inkscape:window-width="1920"
     inkscape:window-height="1007"
     inkscape:window-x="0"
     inkscape:window-y="0"
     inkscape:window-maximized="1"
     inkscape:current-layer="svg5" />
  <defs
     id="defs2">
    <linearGradient
       inkscape:collect="always"
       id="linearGradient2466">
      <stop
         style="stop-color:#366ecb;stop-opacity:1;"
         offset="0"
         id="stop2462" />
      <stop
         style="stop-color:#3694cb;stop-opacity:1;"
         offset="1"
         id="stop2464" />
    </linearGradient>
    <linearGradient
       inkscape:collect="always"
       xlink:href="#linearGradient2466"
       id="linearGradient6478"
       x1="37.5"
       y1="44.5"
       x2="9.5"
       y2="2.5"
       gradientUnits="userSpaceOnUse"
       gradientTransform="translate(0.5,0.5)" />
  </defs>
  <rect
     style="fill:url(#linearGradient6478);fill-opacity:1.0;stroke:none"
     id="rect184"
     width="41"
     height="41"
     x="3.5"
     y="3.5"
     ry="6.5" />
  <path
     d="m 23.6445,11.061938 c -0.388086,0.14754 -0.644628,0.51954 -0.644628,0.93472 v 10.656406 l -6.381984,-5.443085 c -0.434286,-0.3412 -1.062934,-0.26578 -1.404156,0.1685 -0.341226,0.43428 -0.265784,1.06292 0.1685,1.40414 L 22.744828,24.996104 15.382232,31.21 c -0.434284,0.3412 -0.509726,0.9698 -0.1685,1.404 0.341222,0.4344 0.96987,0.5098 1.404156,0.1686 l 6.381984,-5.443296 v 10.656677 c 0,0.4152 0.256542,0.7872 0.644628,0.9348 0.388085,0.1476 0.826971,0.04 1.102813,-0.2704 l 8.000094,-6.999877 c 0.18318,-0.206 0.273164,-0.4786 0.248622,-0.7534 -0.02454,-0.2746 -0.1614,-0.527 -0.378224,-0.6972 l -6.635678,-5.2138 6.635678,-5.213601 c 0.216824,-0.17036 0.353684,-0.4227 0.378224,-0.69734 0.02454,-0.27466 -0.06544,-0.54724 -0.248622,-0.75334 l -8.000094,-6.999605 c -0.312476,-0.273398 -0.714728,-0.4179 -1.102813,-0.27036 z m 1.355397,15.706006 5.14628,4.358 -5.14628,4.239876 z m 0,-3.5436 v -8.597605 l 5.14628,4.239604 z"
     style="stroke-width:2.00002;fill:#000000;opacity:0.2"
     id="path528" />
  <path
     d="m 23.6445,10.062372 c -0.388086,0.14754 -0.644628,0.51954 -0.644628,0.93472 v 10.656405 l -6.381984,-5.443085 c -0.434286,-0.3412 -1.062934,-0.26578 -1.404156,0.1685 -0.341226,0.43428 -0.265784,1.06292 0.1685,1.40414 l 7.362596,6.213485 -7.362596,6.213896 c -0.434284,0.3412 -0.509726,0.9698 -0.1685,1.404 0.341222,0.4344 0.96987,0.5098 1.404156,0.1686 l 6.381984,-5.443296 v 10.656676 c 0,0.4152 0.256542,0.7872 0.644628,0.9348 0.388085,0.1476 0.826971,0.04 1.102813,-0.2704 l 8.000094,-6.999876 c 0.18318,-0.206 0.273164,-0.4786 0.248622,-0.7534 -0.02454,-0.2746 -0.1614,-0.527 -0.378224,-0.6972 l -6.635678,-5.2138 6.635678,-5.213601 c 0.216824,-0.17036 0.353684,-0.4227 0.378224,-0.69734 0.02454,-0.27466 -0.06544,-0.54724 -0.248622,-0.75334 L 24.747313,10.332652 C 24.434837,10.059254 24.032585,9.9147521 23.6445,10.062292 Z m 1.355397,15.706005 5.14628,4.358 -5.14628,4.239876 z m 0,-3.5436 v -8.597605 l 5.14628,4.239604 z"
     id="path346"
     sodipodi:nodetypes="csccsccccccssccccccscscccccccccc"
     style="stroke-width:2.00002;fill:#ffffff" />
  <path
     id="rect2630"
     style="fill:#ffffff;fill-opacity:1;opacity:0.3"
     d="M 10,4 C 6.6760035,4 4.0000002,6.6760033 4.0000002,10 v 1 C 4.0000002,7.6760032 6.6760035,5 10,5 h 28 c 3.323997,0 6,2.6760032 6,6 V 10 C 44,6.6760033 41.323997,4 38,4 Z" />
  <path
     id="rect398"
     style="opacity:0.3;fill:#ffffff"
     d="m 4.0000001,37 v 1 c 0,3.323996 2.6760033,6 5.9999999,6 h 28 c 3.323997,0 6,-2.676004 6,-6 v -1 c 0,3.323996 -2.676003,6 -6,6 H 10 C 6.6760034,43 4.0000001,40.323996 4.0000001,37 Z" />
  <path
     id="rect899"
     style="opacity:0.5;fill:#000000;stroke:none"
     d="M 10,3 C 6.1220039,3 3,6.1220039 3,10 v 28 c 0,3.877996 3.1220039,7 7,7 h 28 c 3.877996,0 7,-3.122004 7,-7 V 10 C 45,6.1220039 41.877996,3 38,3 Z m 0,1 h 28 c 3.323997,0 6,2.6760033 6,6 v 28 c 0,3.323997 -2.676003,6 -6,6 H 10 C 6.6760033,44 4,41.323997 4,38 V 10 C 4,6.6760033 6.6760033,4 10,4 Z" />
</svg>
