<?xml version="1.0" encoding="UTF-8" standalone="no"?>
<!-- Created with Inkscape (http://www.inkscape.org/) -->

<svg
   width="48"
   height="48"
   viewBox="0 0 48 48.000002"
   version="1.1"
   id="svg2612"
   inkscape:version="1.2.1 (9c6d41e410, 2022-07-14)"
   sodipodi:docname="drive-removable-media.svg"
   xmlns:inkscape="http://www.inkscape.org/namespaces/inkscape"
   xmlns:sodipodi="http://sodipodi.sourceforge.net/DTD/sodipodi-0.dtd"
   xmlns:xlink="http://www.w3.org/1999/xlink"
   xmlns="http://www.w3.org/2000/svg"
   xmlns:svg="http://www.w3.org/2000/svg">
  <sodipodi:namedview
     id="namedview2614"
     pagecolor="#ffffff"
     bordercolor="#000000"
     borderopacity="0.25"
     inkscape:showpageshadow="2"
     inkscape:pageopacity="0.0"
     inkscape:pagecheckerboard="0"
     inkscape:deskcolor="#d1d1d1"
     inkscape:document-units="px"
     showgrid="false"
     showguides="false"
     inkscape:zoom="12.695781"
     inkscape:cx="20.04603"
     inkscape:cy="17.328591"
     inkscape:window-width="1920"
     inkscape:window-height="1002"
     inkscape:window-x="0"
     inkscape:window-y="0"
     inkscape:window-maximized="1"
     inkscape:current-layer="svg2612" />
  <defs
     id="defs2609">
    <linearGradient
       inkscape:collect="always"
       id="linearGradient1082">
      <stop
         style="stop-color:#aaaaaa;stop-opacity:1;"
         offset="0"
         id="stop1078" />
      <stop
         style="stop-color:#c9c9c9;stop-opacity:1;"
         offset="1"
         id="stop1080" />
    </linearGradient>
    <linearGradient
       inkscape:collect="always"
       xlink:href="#linearGradient1082"
       id="linearGradient4030"
       x1="17.828571"
       y1="22.628572"
       x2="6.1714287"
       y2="1.2571429"
       gradientUnits="userSpaceOnUse"
       gradientTransform="matrix(2.0588235,0,0,2.0588235,0.2941176,-0.5882353)" />
  </defs>
  <rect
     style="fill:url(#linearGradient4030);fill-opacity:1;stroke-width:2.05882;stroke-linejoin:round"
     id="rect2787"
     width="33"
     height="43"
     x="7.5"
     y="2.5"
     ry="4.5" />
  <path
     d="M 24,11 14,23 H 34 Z M 14,27 v 4 h 20 v -4 z"
     style="opacity:0.2;fill:#000000;fill-opacity:1;stroke-width:2;stroke-linejoin:round"
     id="path2598"
     sodipodi:nodetypes="ccccccccc" />
  <path
     id="rect2584"
     style="fill:#707070;fill-opacity:1;stroke-width:2;stroke-linejoin:round"
     d="M 24,10 14,22 H 34 Z M 14,26 v 4 h 20 v -4 z"
     sodipodi:nodetypes="ccccccccc" />
  <path
     id="rect804"
     style="opacity:0.2;fill:#ffffff;stroke-linejoin:round"
     d="m 8,40 v 1 c 0,2.215998 1.7840022,4 4,4 h 24 c 2.215998,0 4,-1.784002 4,-4 v -1 c 0,2.215998 -1.784002,4 -4,4 H 12 C 9.7840022,44 8,42.215998 8,40 Z" />
  <path
     id="rect806"
     style="opacity:0.2;fill:#ffffff;stroke-linejoin:round"
     d="M 12,3 C 9.7840022,3 8,4.7840022 8,7 V 8 C 8,5.7840022 9.7840022,4 12,4 h 24 c 2.215998,0 4,1.7840022 4,4 V 7 C 40,4.7840022 38.215998,3 36,3 Z" />
  <path
     id="rect717"
     style="opacity:0.5;fill:#000000;stroke-linejoin:round"
     d="M 12,2 C 9.2300028,2 7,4.2300028 7,7 v 34 c 0,2.769997 2.2300028,5 5,5 h 24 c 2.769997,0 5,-2.230003 5,-5 V 7 C 41,4.2300028 38.769997,2 36,2 Z m 0,1 h 24 c 2.215998,0 4,1.7840022 4,4 v 34 c 0,2.215998 -1.784002,4 -4,4 H 12 C 9.7840022,45 8,43.215998 8,41 V 7 C 8,4.7840022 9.7840022,3 12,3 Z" />
</svg>
