<?xml version="1.0" encoding="UTF-8" standalone="no"?>
<!-- Created with Inkscape (http://www.inkscape.org/) -->

<svg
   width="16"
   height="16"
   viewBox="0 0 16 16"
   version="1.1"
   id="svg5"
   inkscape:version="1.2.1 (9c6d41e410, 2022-07-14)"
   sodipodi:docname="application-x-java.svg"
   xmlns:inkscape="http://www.inkscape.org/namespaces/inkscape"
   xmlns:sodipodi="http://sodipodi.sourceforge.net/DTD/sodipodi-0.dtd"
   xmlns="http://www.w3.org/2000/svg"
   xmlns:svg="http://www.w3.org/2000/svg">
  <sodipodi:namedview
     id="namedview7"
     pagecolor="#ffffff"
     bordercolor="#000000"
     borderopacity="0.25"
     inkscape:showpageshadow="2"
     inkscape:pageopacity="0.0"
     inkscape:pagecheckerboard="0"
     inkscape:deskcolor="#d1d1d1"
     inkscape:document-units="px"
     showgrid="false"
     inkscape:zoom="50"
     inkscape:cx="8"
     inkscape:cy="8"
     inkscape:window-width="1920"
     inkscape:window-height="1012"
     inkscape:window-x="0"
     inkscape:window-y="0"
     inkscape:window-maximized="1"
     inkscape:current-layer="svg5"
     showguides="false" />
  <defs
     id="defs2" />
  <rect
     style="opacity:0.3;fill:#000000;fill-opacity:1;stroke-width:2;stroke-linejoin:round"
     id="rect234"
     width="12"
     height="16"
     x="2"
     y="0"
     ry="1" />
  <rect
     style="fill:#fafafa;fill-opacity:1;stroke-width:2.88668;stroke-linejoin:round"
     id="rect2307"
     width="10"
     height="14"
     x="3"
     y="1" />
  <path
     d="M 9.2012323,2 C 9.7041086,3.981137 7.4272158,4.5786958 6.6055292,5.8125 6.0459785,6.65314 6.8803005,7.5579246 8.0176385,8.5839844 7.5741262,7.5813908 6.0693912,6.7028733 8.0176385,5.1640625 10.447074,3.2465016 9.2012323,2 9.2012323,2 Z m 1.5019527,2.4511719 c 2.6e-5,0 -4.1064226,1.0263429 -2.1445308,3.2871093 0.5791676,0.6666879 -0.1523438,1.265625 -0.1523438,1.265625 0,0 1.4697597,-0.7585791 0.7949219,-1.7089843 C 8.5707258,6.409022 8.0862056,5.9688527 10.703185,4.4511719 Z"
     style="clip-rule:evenodd;fill:#df9043;fill-opacity:1;fill-rule:evenodd;stroke-width:0.205487"
     id="path5259" />
  <path
     d="m 11.368971,8.4906605 c -0.125818,0.00645 -0.257807,0.032719 -0.392579,0.080078 -0.126067,0.044623 -0.191406,0.1484375 -0.191406,0.1484375 0,0 0.07816,-0.033228 0.25586,-0.070312 0.726654,-0.1514152 1.769106,0.972908 -0.482422,2.142578 -0.01043,0.02788 -0.04495,0.06055 -0.04492,0.06055 2.724622,-0.716243 2.071704,-2.4237162 0.855469,-2.3613271 z M 6.495924,8.6039417 c -0.2870551,0.00751 -0.9573087,0.069451 -1.7382813,0.4472653 -1.2318399,0.595627 3.0466634,0.867749 5.2617183,0.285157 0.230281,-0.157149 0.546875,-0.292969 0.546875,-0.292969 0,0 -0.90589,0.160567 -1.8085933,0.236328 -1.1048729,0.0927 -2.2898299,0.112813 -2.8847656,0.0332 C 4.4642978,9.12461 6.6463146,8.6058919 6.6463146,8.6058919 c 0,0 -0.054706,-0.00446 -0.1503906,-0.00195 z M 6.1385021,9.967223 C 4.1064775,10.641636 7.2692182,11.40731 10.109205,10.576598 9.807463,10.470231 9.615064,10.275817 9.615064,10.275817 8.2265008,10.543048 7.4239528,10.533041 6.4080333,10.42816 5.6226079,10.346984 6.1385021,9.967223 6.1385021,9.967223 Z m 0.2871093,1.3125 C 4.5805197,11.795261 7.5470192,12.860465 9.896314,11.853942 9.511539,11.704412 9.236158,11.531676 9.236158,11.531676 8.1885173,11.72971 7.702746,11.745716 6.7517833,11.637145 5.9669416,11.547125 6.4256114,11.279723 6.4256114,11.279723 Z m -1.2832031,0.871094 c -0.8285715,0.02556 -2.4486958,0.771235 -0.9667969,1.011718 4.7895618,0.776348 8.7304736,-0.34965 7.4882806,-0.910156 0,0 0.33991,0.279801 -0.373046,0.496094 -1.355701,0.41063 -5.6429982,0.533686 -6.8339846,0.01563 -0.4278323,-0.186348 0.3744002,-0.443496 0.6269532,-0.498047 0.2633304,-0.05697 0.4140625,-0.04687 0.4140625,-0.04687 -0.074398,-0.05239 -0.2020296,-0.07309 -0.3554688,-0.06836 z m 7.2832027,0.71289 c 0,0 -0.152231,0.387758 -1.787109,0.695313 -1.8444022,0.34724 -4.1197387,0.306727 -5.4687499,0.08398 0,0 0.2771922,0.228917 1.6972656,0.320313 2.1607163,0.138141 5.4800453,-0.07711 5.5585933,-1.09961 z"
     style="clip-rule:evenodd;fill:#65768d;fill-opacity:1;fill-rule:evenodd;stroke-width:0.205487"
     id="path6867" />
</svg>
