<?xml version="1.0" encoding="UTF-8" standalone="no"?>
<!-- Created with Inkscape (http://www.inkscape.org/) -->

<svg
   width="16"
   height="16"
   viewBox="0 0 16 16"
   version="1.1"
   id="svg5"
   inkscape:version="1.2.1 (9c6d41e410, 2022-07-14)"
   sodipodi:docname="application-x-theme.svg"
   xmlns:inkscape="http://www.inkscape.org/namespaces/inkscape"
   xmlns:sodipodi="http://sodipodi.sourceforge.net/DTD/sodipodi-0.dtd"
   xmlns="http://www.w3.org/2000/svg"
   xmlns:svg="http://www.w3.org/2000/svg">
  <sodipodi:namedview
     id="namedview7"
     pagecolor="#ffffff"
     bordercolor="#000000"
     borderopacity="0.25"
     inkscape:showpageshadow="2"
     inkscape:pageopacity="0.0"
     inkscape:pagecheckerboard="0"
     inkscape:deskcolor="#d1d1d1"
     inkscape:document-units="px"
     showgrid="false"
     inkscape:zoom="49.375"
     inkscape:cx="8.0101266"
     inkscape:cy="8.0101266"
     inkscape:window-width="1920"
     inkscape:window-height="1007"
     inkscape:window-x="0"
     inkscape:window-y="0"
     inkscape:window-maximized="1"
     inkscape:current-layer="svg5" />
  <defs
     id="defs2" />
  <rect
     style="opacity:0.3;fill:#000000;fill-opacity:1;stroke-width:2;stroke-linejoin:round"
     id="rect234"
     width="12"
     height="16"
     x="2"
     y="0"
     ry="1" />
  <rect
     style="fill:#fafafa;fill-opacity:1;stroke-width:2.88668;stroke-linejoin:round"
     id="rect2307"
     width="10"
     height="14"
     x="3"
     y="1" />
  <path
     d="M 11.756578,4.0037747 C 11.154259,3.9278499 9.5830445,5.0048398 8.034536,6.5539589 7.3439925,7.2449197 6.7446887,7.927738 6.2856792,8.5717844 6.8236463,8.743182 7.2572117,9.1764621 7.4285189,9.7146241 8.07232,9.2554831 8.756688,8.6587884 9.4474605,7.9679996 11.204305,6.2104267 12.312023,4.4692868 11.921754,4.07855 11.881644,4.03815 11.826914,4.012797 11.756578,4.0037747 Z M 5.9999696,9.3318181 v 0.0011 C 4.000108,9.8690671 5.4998936,11.135466 4,12.00031 c 1.9998616,0 2.9999541,-1.001027 2.9999541,-1.668502 0,-0.3327259 0.033912,-0.9446129 -0.9999845,-0.9999849 z"
     style="color:#444444;fill:#a47fdc;fill-opacity:1;stroke-width:0.571417"
     id="path347"
     sodipodi:nodetypes="ccccccccccscc" />
</svg>
