<?xml version="1.0" encoding="UTF-8" standalone="no"?>
<!-- Created with Inkscape (http://www.inkscape.org/) -->

<svg
   width="16"
   height="16"
   viewBox="0 0 16 16"
   version="1.1"
   id="svg5"
   inkscape:version="1.2.1 (9c6d41e410, 2022-07-14)"
   sodipodi:docname="application-x-desktop.svg"
   xmlns:inkscape="http://www.inkscape.org/namespaces/inkscape"
   xmlns:sodipodi="http://sodipodi.sourceforge.net/DTD/sodipodi-0.dtd"
   xmlns="http://www.w3.org/2000/svg"
   xmlns:svg="http://www.w3.org/2000/svg">
  <sodipodi:namedview
     id="namedview7"
     pagecolor="#ffffff"
     bordercolor="#000000"
     borderopacity="0.25"
     inkscape:showpageshadow="2"
     inkscape:pageopacity="0.0"
     inkscape:pagecheckerboard="0"
     inkscape:deskcolor="#d1d1d1"
     inkscape:document-units="px"
     showgrid="false"
     inkscape:zoom="49.375"
     inkscape:cx="8"
     inkscape:cy="8"
     inkscape:window-width="1920"
     inkscape:window-height="1012"
     inkscape:window-x="0"
     inkscape:window-y="0"
     inkscape:window-maximized="1"
     inkscape:current-layer="svg5" />
  <defs
     id="defs2" />
  <rect
     style="opacity:0.3;fill:#000000;fill-opacity:1;stroke-width:2;stroke-linejoin:round"
     id="rect234"
     width="12"
     height="16"
     x="2"
     y="0"
     ry="1" />
  <rect
     style="fill:#fafafa;fill-opacity:1;stroke-width:2.88668;stroke-linejoin:round"
     id="rect2307"
     width="10"
     height="14"
     x="3"
     y="1" />
  <path
     d="m 7.2499997,3.9999994 c -0.1385,0 -0.25,0.1115 -0.25,0.25 v 0.9375 c -0.09609,0.034489 -0.189979,0.081264 -0.28125,0.125 l -0.65625,-0.65625 c -0.04897,-0.048967 -0.123595,-0.09375 -0.1875,-0.09375 -0.06391,0 -0.138533,0.044783 -0.1875,0.09375 l -1.03125,1.03125 c -0.09793,0.097934 -0.09793,0.2770659 0,0.375 l 0.65625,0.65625 c -0.04374,0.09127 -0.09051,0.1851638 -0.125,0.28125 h -0.9375 c -0.1385,0 -0.25,0.1115 -0.25,0.25 v 1.5 c 0,0.1385 0.1115,0.25 0.25,0.25 h 0.9375 c 0.03449,0.096086 0.08126,0.1899795 0.125,0.28125 l -0.65625,0.6562502 c -0.09793,0.09794 -0.09793,0.2770664 0,0.3750014 l 1.03125,1.03125 c 0.09793,0.09793 0.277066,0.09793 0.375,0 l 0.65625,-0.65625 c 0.09127,0.04374 0.185164,0.09051 0.28125,0.125 v 0.9375 c 0,0.1385 0.1115,0.25 0.25,0.25 h 1.5000001 c 0.1385,0 0.25,-0.1115 0.25,-0.25 v -0.9375 c 0.096086,-0.03449 0.1899795,-0.08126 0.28125,-0.125 l 0.65625,0.65625 c 0.097934,0.09793 0.2770652,0.09793 0.3750002,0 l 1.03125,-1.03125 c 0.09793,-0.09793 0.09793,-0.277066 0,-0.3750014 L 10.6875,9.2812494 c 0.04374,-0.091271 0.09051,-0.1851638 0.125,-0.28125 H 11.75 c 0.1385,0 0.25,-0.1115 0.25,-0.25 v -1.5 c 0,-0.1385 -0.1115,-0.25 -0.25,-0.25 h -0.9375 c -0.03449,-0.096086 -0.08126,-0.1899795 -0.125,-0.28125 l 0.65625,-0.65625 c 0.09793,-0.097934 0.09793,-0.2770656 0,-0.375 l -1.03125,-1.03125 c -0.09793,-0.097934 -0.277066,-0.097935 -0.3750002,0 l -0.65625,0.65625 c -0.091271,-0.043736 -0.1851639,-0.090511 -0.28125,-0.125 v -0.9375 c 0,-0.1385 -0.1115,-0.25 -0.25,-0.25 z m 0.75,3 c 0.5520001,0 1.0000001,0.448 1.0000001,1 0,0.552 -0.448,1 -1.0000001,1 -0.552,0 -1,-0.448 -1,-1 0,-0.552 0.448,-1 1,-1 z"
     style="display:inline;overflow:visible;visibility:visible;vector-effect:none;fill:#5e6c83;fill-opacity:1;fill-rule:nonzero;stroke:none;stroke-width:1;stroke-linecap:butt;stroke-linejoin:miter;stroke-miterlimit:4;stroke-dasharray:none;stroke-dashoffset:0;stroke-opacity:1;marker:none;enable-background:accumulate"
     id="path329" />
</svg>
