<?xml version="1.0" encoding="UTF-8" standalone="no"?>
<!-- Created with Inkscape (http://www.inkscape.org/) -->

<svg
   width="16"
   height="16"
   viewBox="0 0 16 16"
   version="1.1"
   id="svg5"
   inkscape:version="1.2.1 (9c6d41e410, 2022-07-14)"
   sodipodi:docname="application-x-cd-image.svg"
   xmlns:inkscape="http://www.inkscape.org/namespaces/inkscape"
   xmlns:sodipodi="http://sodipodi.sourceforge.net/DTD/sodipodi-0.dtd"
   xmlns="http://www.w3.org/2000/svg"
   xmlns:svg="http://www.w3.org/2000/svg">
  <sodipodi:namedview
     id="namedview7"
     pagecolor="#ffffff"
     bordercolor="#000000"
     borderopacity="0.25"
     inkscape:showpageshadow="2"
     inkscape:pageopacity="0.0"
     inkscape:pagecheckerboard="0"
     inkscape:deskcolor="#d1d1d1"
     inkscape:document-units="px"
     showgrid="false"
     inkscape:zoom="50"
     inkscape:cx="8"
     inkscape:cy="8"
     inkscape:window-width="1920"
     inkscape:window-height="1012"
     inkscape:window-x="0"
     inkscape:window-y="0"
     inkscape:window-maximized="1"
     inkscape:current-layer="svg5" />
  <defs
     id="defs2" />
  <rect
     style="opacity:0.3;fill:#000000;fill-opacity:1;stroke-width:2;stroke-linejoin:round"
     id="rect234"
     width="12"
     height="16"
     x="2"
     y="0"
     ry="1" />
  <rect
     style="fill:#fafafa;fill-opacity:1;stroke-width:2.88668;stroke-linejoin:round"
     id="rect2307"
     width="10"
     height="14"
     x="3"
     y="1" />
  <path
     id="path4048"
     style="fill:#b3b3b3;fill-opacity:1;stroke-width:0.266665;stroke-linejoin:round"
     d="M 8 4 C 5.7908793 4 4 5.7908793 4 8 C 4 10.209121 5.7908793 12 8 12 C 10.20912 12 12 10.209121 12 8 C 12 5.7908793 10.20912 3.9999999 8 4 z M 8 6 C 9.1045598 5.9999999 10 6.8954396 10 8 C 10 9.1045604 9.1045598 10 8 10 C 6.8954396 10 6 9.1045604 6 8 C 6 6.8954396 6.8954396 6 8 6 z " />
</svg>
