<?xml version="1.0" encoding="UTF-8" standalone="no"?>
<!-- Created with Inkscape (http://www.inkscape.org/) -->

<svg
   width="16"
   height="16"
   viewBox="0 0 16 16"
   version="1.1"
   id="svg4041"
   sodipodi:docname="application-x-java-archive.svg"
   inkscape:version="1.2.1 (9c6d41e410, 2022-07-14)"
   xmlns:inkscape="http://www.inkscape.org/namespaces/inkscape"
   xmlns:sodipodi="http://sodipodi.sourceforge.net/DTD/sodipodi-0.dtd"
   xmlns="http://www.w3.org/2000/svg"
   xmlns:svg="http://www.w3.org/2000/svg">
  <sodipodi:namedview
     id="namedview4043"
     pagecolor="#ffffff"
     bordercolor="#000000"
     borderopacity="0.25"
     inkscape:showpageshadow="2"
     inkscape:pageopacity="0.0"
     inkscape:pagecheckerboard="0"
     inkscape:deskcolor="#d1d1d1"
     inkscape:document-units="px"
     showgrid="false"
     showguides="false"
     inkscape:zoom="49.6875"
     inkscape:cx="8"
     inkscape:cy="8"
     inkscape:window-width="1920"
     inkscape:window-height="1007"
     inkscape:window-x="0"
     inkscape:window-y="0"
     inkscape:window-maximized="1"
     inkscape:current-layer="svg4041" />
  <defs
     id="defs4038" />
  <rect
     style="opacity:0.6;fill:#808080;fill-opacity:1;stroke-width:3;stroke-linecap:round;stroke-linejoin:round"
     id="rect4577"
     width="16"
     height="14"
     x="0"
     y="1"
     ry="1" />
  <rect
     style="opacity:1;fill:#e6e6e6;fill-opacity:1;stroke-width:3;stroke-linecap:round;stroke-linejoin:round"
     id="rect4891"
     width="14"
     height="12"
     x="1"
     y="2" />
  <path
     d="m 8.626794,2 c 0.502837,1.9809823 -1.7738786,2.5784945 -2.5955007,3.8122026 -0.5595075,0.840575 0.2747498,1.7452888 1.4119989,2.771269 -0.443478,-1.0025157 -1.9480959,-1.8809645 0,-3.419656 C 9.872538,3.2464043 8.626794,2 8.626794,2 Z m 1.501834,2.4509806 c 2.7e-5,0 -4.1061007,1.0262628 -2.1443624,3.2868535 C 8.563388,8.4044702 7.831934,9.0033606 7.831934,9.0033606 c 0,0 1.469644,-0.7585204 0.79486,-1.7088515 C 7.9963361,6.4086775 7.5118542,5.9685431 10.128628,4.4509806 Z"
     style="clip-rule:evenodd;fill:#df9043;fill-opacity:1;fill-rule:evenodd;stroke-width:0.20547"
     id="path5259" />
  <path
     d="m 10.794363,8.4901536 c -0.125809,0.0065 -0.257787,0.03272 -0.392549,0.08008 -0.126057,0.04462 -0.191391,0.148426 -0.191391,0.148426 0,0 0.07815,-0.03323 0.255841,-0.07031 0.726596,-0.151403 1.768967,0.972832 -0.482385,2.1424104 -0.01042,0.02788 -0.04495,0.06055 -0.04492,0.06055 2.72441,-0.716188 2.071542,-2.4235268 0.855402,-2.3611424 z m -4.8726671,0.113273 c -0.2870325,0.0075 -0.9572337,0.06944 -1.7381457,0.447231 -1.2317436,0.59558 3.0464255,0.867681 5.2613078,0.285135 0.230264,-0.157137 0.5468329,-0.292946 0.5468329,-0.292946 0,0 -0.9058199,0.160554 -1.8084525,0.236309 -1.1047867,0.09269 -2.289651,0.112805 -2.8845406,0.0332 -1.4084694,-0.188298 0.7733775,-0.706976 0.7733775,-0.706976 0,0 -0.054705,-0.0045 -0.1503794,-0.002 z M 5.5643021,9.9666011 C 3.532436,10.640962 6.6949309,11.406576 9.534695,10.575929 9.232977,10.46957 9.040593,10.275171 9.040593,10.275171 7.652138,10.542382 6.8496529,10.532375 5.8338131,10.427503 5.0484483,10.346333 5.5643021,9.9666011 5.5643021,9.9666011 Z M 5.8513894,11.278999 C 4.0064415,11.794498 6.9727099,12.859618 9.32182,11.853173 8.937076,11.703655 8.661716,11.530933 8.661716,11.530933 7.614158,11.728951 7.1284234,11.744956 6.1775358,11.636393 5.3927553,11.546383 5.8513894,11.278999 5.8513894,11.278999 Z m -1.2831026,0.871026 c -0.8285077,0.02556 -2.4485056,0.771175 -0.9667222,1.011639 4.7891884,0.776288 8.7297924,-0.349622 7.4876964,-0.910085 0,0 0.339884,0.27978 -0.373017,0.496056 -1.355595,0.410598 -5.6425575,0.533645 -6.8334514,0.01563 -0.4277989,-0.186333 0.3743709,-0.443461 0.6269042,-0.498009 0.26331,-0.05696 0.4140299,-0.04687 0.4140299,-0.04687 -0.074393,-0.05238 -0.2020131,-0.07308 -0.3554399,-0.06836 z m 7.2826342,0.712834 c 0,0 -0.15222,0.387728 -1.78697,0.695259 -1.8442588,0.347213 -4.1194168,0.306703 -5.4683237,0.08397 0,0 0.2771714,0.228899 1.697134,0.320288 2.1605467,0.138135 5.4796167,-0.0771 5.5581597,-1.099523 z"
     style="clip-rule:evenodd;fill:#65768d;fill-opacity:1;fill-rule:evenodd;stroke-width:0.20547"
     id="path6867" />
</svg>
