<?xml version="1.0" encoding="UTF-8" standalone="no"?>
<!-- Created with Inkscape (http://www.inkscape.org/) -->

<svg
   width="16"
   height="16"
   viewBox="0 0 16 16"
   version="1.1"
   id="svg5"
   inkscape:version="1.2.1 (9c6d41e410, 2022-07-14)"
   sodipodi:docname="audio-x-generic.svg"
   xmlns:inkscape="http://www.inkscape.org/namespaces/inkscape"
   xmlns:sodipodi="http://sodipodi.sourceforge.net/DTD/sodipodi-0.dtd"
   xmlns="http://www.w3.org/2000/svg"
   xmlns:svg="http://www.w3.org/2000/svg">
  <sodipodi:namedview
     id="namedview7"
     pagecolor="#ffffff"
     bordercolor="#000000"
     borderopacity="0.25"
     inkscape:showpageshadow="2"
     inkscape:pageopacity="0.0"
     inkscape:pagecheckerboard="0"
     inkscape:deskcolor="#d1d1d1"
     inkscape:document-units="px"
     showgrid="false"
     inkscape:zoom="49.375"
     inkscape:cx="7.8582278"
     inkscape:cy="8"
     inkscape:window-width="1920"
     inkscape:window-height="1012"
     inkscape:window-x="0"
     inkscape:window-y="0"
     inkscape:window-maximized="1"
     inkscape:current-layer="svg5" />
  <defs
     id="defs2" />
  <rect
     style="opacity:0.3;fill:#000000;fill-opacity:1;stroke-width:2;stroke-linejoin:round"
     id="rect234"
     width="12"
     height="16"
     x="2"
     y="0"
     ry="1" />
  <rect
     style="fill:#fafafa;fill-opacity:1;stroke-width:2.88668;stroke-linejoin:round"
     id="rect2307"
     width="10"
     height="14"
     x="3"
     y="1" />
  <path
     d="m 10.722468,4.0059903 c -0.05452,-0.010256 -0.114656,-0.00756 -0.177734,0.00977 L 6.4548901,5.1388028 c -0.2523118,0.069311 -0.4550781,0.348 -0.4550781,0.625 v 0.5625 0.2832031 4.4160161 c -0.2792037,-0.04445 -0.5816452,-0.03086 -0.8691406,0.03906 -0.8029606,0.196979 -1.2883041,0.775019 -1.0839844,1.291016 0.2025851,0.516675 1.0186739,0.776459 1.8222656,0.580078 0.6846496,-0.168086 1.1548631,-0.620402 1.1289063,-1.085938 h 0.00195 V 6.8341153 L 9.9998122,6.0118497 v 4.0136723 c -0.279204,-0.04445 -0.581645,-0.03086 -0.869141,0.03906 -0.8029604,0.196979 -1.2883039,0.775019 -1.0839842,1.291016 0.2025851,0.516675 1.0186742,0.776459 1.8222652,0.580078 0.6660828,-0.163852 1.1313028,-0.597682 1.1289068,-1.052735 h 0.002 V 5.236459 4.3907559 c 0,-0.20775 -0.113771,-0.3539965 -0.277344,-0.3847656 z"
     style="color:#000000;clip-rule:nonzero;display:inline;overflow:visible;visibility:visible;isolation:auto;mix-blend-mode:normal;color-interpolation:sRGB;color-interpolation-filters:linearRGB;solid-color:#000000;solid-opacity:1;fill:#ff7f2a;fill-opacity:1;fill-rule:nonzero;stroke:none;stroke-width:1.00225;stroke-linecap:butt;stroke-linejoin:miter;stroke-miterlimit:4;stroke-dasharray:none;stroke-dashoffset:0;stroke-opacity:1;marker:none;color-rendering:auto;image-rendering:auto;shape-rendering:auto;text-rendering:auto;enable-background:accumulate"
     id="path327" />
</svg>
