<?xml version="1.0" encoding="UTF-8" standalone="no"?>
<!-- Created with Inkscape (http://www.inkscape.org/) -->

<svg
   width="16"
   height="16"
   viewBox="0 0 16 16"
   version="1.1"
   id="svg5"
   inkscape:version="1.2.1 (9c6d41e410, 2022-07-14)"
   sodipodi:docname="playlist.svg"
   xmlns:inkscape="http://www.inkscape.org/namespaces/inkscape"
   xmlns:sodipodi="http://sodipodi.sourceforge.net/DTD/sodipodi-0.dtd"
   xmlns="http://www.w3.org/2000/svg"
   xmlns:svg="http://www.w3.org/2000/svg">
  <sodipodi:namedview
     id="namedview7"
     pagecolor="#ffffff"
     bordercolor="#000000"
     borderopacity="0.25"
     inkscape:showpageshadow="2"
     inkscape:pageopacity="0.0"
     inkscape:pagecheckerboard="0"
     inkscape:deskcolor="#d1d1d1"
     inkscape:document-units="px"
     showgrid="false"
     inkscape:zoom="51.3125"
     inkscape:cx="8"
     inkscape:cy="8"
     inkscape:window-width="1920"
     inkscape:window-height="1007"
     inkscape:window-x="0"
     inkscape:window-y="0"
     inkscape:window-maximized="1"
     inkscape:current-layer="svg5" />
  <defs
     id="defs2" />
  <rect
     style="opacity:0.3;fill:#000000;fill-opacity:1;stroke-width:2;stroke-linejoin:round"
     id="rect234"
     width="12"
     height="16"
     x="2"
     y="0"
     ry="1" />
  <rect
     style="fill:#fafafa;fill-opacity:1;stroke-width:2.88668;stroke-linejoin:round"
     id="rect2307"
     width="10"
     height="14"
     x="3"
     y="1" />
  <path
     d="m 9.5001175,1 c -0.277,0 -0.5,0.223 -0.5,0.5 v 9.533203 C 8.387364,10.776064 7.621178,10.865771 6.964961,11.271484 c -1.069061,0.661333 -1.531798,1.948949 -1.033203,2.875 0.497828,0.92603 1.767689,1.140298 2.835937,0.478516 0.7728875,-0.478966 1.25677,-1.310781 1.2304695,-2.115234 6.9e-5,-0.0034 0.002,-0.0063 0.002,-0.0098 V 4.375 c 0.120375,-0.06646 0.30739,0.07692 0.40625,0.144531 1.123433,0.679677 2.104249,1.807595 2.173827,3.197266 0.06019,0.803876 -0.108179,1.603413 -0.339844,2.367187 C 13.273156,8.384829 13.217617,6.020862 11.94157,4.46875 11.118464,3.609884 10.342269,2.608696 10.000165,1.4453125 9.9752145,1.3348068 9.8243075,1 9.5001645,1 Z M 4.5,2 C 4.223,2 4,2.223 4,2.5 4,2.777 4.223,3 4.5,3 H 7 C 7.277,3 7.5,2.777 7.5,2.5 7.5,2.223 7.277,2 7,2 Z m 0,3 C 4.223,5 4,5.223 4,5.5 4,5.777 4.223,6 4.5,6 H 7 C 7.277,6 7.5,5.777 7.5,5.5 7.5,5.223 7.277,5 7,5 Z m 0,3 C 4.223,8 4,8.223 4,8.5 4,8.777 4.223,9 4.5,9 H 7 C 7.277,9 7.5,8.777 7.5,8.5 7.5,8.223 7.277,8 7,8 Z"
     style="color:#000000;clip-rule:nonzero;display:inline;overflow:visible;visibility:visible;isolation:auto;mix-blend-mode:normal;color-interpolation:sRGB;color-interpolation-filters:linearRGB;solid-color:#000000;solid-opacity:1;fill:#ff7f2a;fill-opacity:1;fill-rule:nonzero;stroke:none;stroke-width:1;stroke-linecap:butt;stroke-linejoin:round;stroke-miterlimit:4;stroke-dasharray:none;stroke-dashoffset:0;stroke-opacity:1;marker:none;color-rendering:auto;image-rendering:auto;shape-rendering:auto;text-rendering:auto;enable-background:accumulate"
     id="path1198"
     sodipodi:nodetypes="sscccccsccccccsssssssssssssssssssssss" />
</svg>
