<?xml version="1.0" encoding="UTF-8" standalone="no"?>
<!-- Created with Inkscape (http://www.inkscape.org/) -->

<svg
   width="16"
   height="16"
   viewBox="0 0 16 16"
   version="1.1"
   id="svg5"
   inkscape:version="1.2.1 (9c6d41e410, 2022-07-14)"
   sodipodi:docname="video-x-generic.svg"
   xmlns:inkscape="http://www.inkscape.org/namespaces/inkscape"
   xmlns:sodipodi="http://sodipodi.sourceforge.net/DTD/sodipodi-0.dtd"
   xmlns="http://www.w3.org/2000/svg"
   xmlns:svg="http://www.w3.org/2000/svg">
  <sodipodi:namedview
     id="namedview7"
     pagecolor="#ffffff"
     bordercolor="#000000"
     borderopacity="0.25"
     inkscape:showpageshadow="2"
     inkscape:pageopacity="0.0"
     inkscape:pagecheckerboard="0"
     inkscape:deskcolor="#d1d1d1"
     inkscape:document-units="px"
     showgrid="false"
     inkscape:zoom="34.208333"
     inkscape:cx="12.029233"
     inkscape:cy="12"
     inkscape:window-width="1920"
     inkscape:window-height="1007"
     inkscape:window-x="0"
     inkscape:window-y="0"
     inkscape:window-maximized="1"
     inkscape:current-layer="svg5" />
  <defs
     id="defs2" />
  <rect
     style="opacity:0.3;fill:#000000;fill-opacity:1;stroke-width:1.83333;stroke-linejoin:round"
     id="rect234"
     width="16"
     height="12"
     x="0"
     y="2"
     ry="1" />
  <rect
     style="fill:#787f8a;fill-opacity:1;stroke-width:2.31345;stroke-linejoin:round"
     id="rect2307"
     width="14"
     height="10"
     x="1"
     y="3" />
  <path
     id="path4800"
     style="opacity:0.6;fill:#ffffff;stroke-width:0.999999;stroke-linecap:round;stroke-linejoin:round"
     d="M 4,4 C 3.4460026,4 3,4.446003 3,5 v 5 c 0,0.553997 0.4460026,1 1,1 h 8 c 0.553997,0 1,-0.446003 1,-1 V 5 C 13,4.446003 12.553997,4 12,4 Z M 4,5 H 5 V 6 H 4 Z m 7,0 h 1 V 6 H 11 Z M 6,5 h 4 V 7 H 6 Z M 4,7 H 5 V 8 H 4 Z m 7,0 h 1 V 8 H 11 Z M 4,9 h 1 v 1 H 4 Z m 7,0 h 1 v 1 H 11 Z M 6,8 h 4 v 2 H 6 Z"
     sodipodi:nodetypes="ssssssssscccccccccccccccccccccccccccccccccccccccc" />
</svg>
