<?xml version="1.0" encoding="UTF-8" standalone="no"?>
<!-- Created with Inkscape (http://www.inkscape.org/) -->

<svg
   width="16"
   height="16"
   viewBox="0 0 16 16"
   version="1.1"
   id="svg5"
   inkscape:version="1.2.1 (9c6d41e410, 2022-07-14)"
   sodipodi:docname="x-office-presentation-template.svg"
   xmlns:inkscape="http://www.inkscape.org/namespaces/inkscape"
   xmlns:sodipodi="http://sodipodi.sourceforge.net/DTD/sodipodi-0.dtd"
   xmlns="http://www.w3.org/2000/svg"
   xmlns:svg="http://www.w3.org/2000/svg">
  <sodipodi:namedview
     id="namedview7"
     pagecolor="#ffffff"
     bordercolor="#000000"
     borderopacity="0.25"
     inkscape:showpageshadow="2"
     inkscape:pageopacity="0.0"
     inkscape:pagecheckerboard="0"
     inkscape:deskcolor="#d1d1d1"
     inkscape:document-units="px"
     showgrid="false"
     inkscape:zoom="49.6875"
     inkscape:cx="8.1207547"
     inkscape:cy="8"
     inkscape:window-width="1920"
     inkscape:window-height="1007"
     inkscape:window-x="0"
     inkscape:window-y="0"
     inkscape:window-maximized="1"
     inkscape:current-layer="svg5"
     showguides="false" />
  <defs
     id="defs2" />
  <rect
     style="opacity:0.6;fill:#6c2d00;fill-opacity:1;stroke-width:2;stroke-linejoin:round"
     id="rect234"
     width="12"
     height="16"
     x="2"
     y="0"
     ry="1" />
  <rect
     style="fill:#ff7e28;fill-opacity:1;stroke-width:2.88668;stroke-linejoin:round"
     id="rect2307"
     width="10"
     height="14"
     x="3"
     y="1" />
  <path
     id="path27792"
     style="color:#000000;display:inline;overflow:visible;visibility:visible;fill:#ffffff;fill-opacity:1;fill-rule:nonzero;stroke:none;stroke-width:20;marker:none;enable-background:new"
     d="m 6.0253906,3 c -1.1045693,2e-7 -1.9999996,0.8954307 -1.9999996,2 0,1.1045693 0.8954303,1.9999998 1.9999996,2 1.1045695,0 2,-0.8954305 2,-2 h -2 z M 10,5 v 1 h 2 V 5 Z M 4,8 v 1 h 8 V 8 Z m 0,3.000001 v 1 h 4 v -1 z"
     sodipodi:nodetypes="csscccccccccccccccccc" />
  <path
     id="path297"
     style="color:#000000;opacity:0.8;fill:#e9e9e9;fill-rule:evenodd;stroke-width:1px;-inkscape-stroke:none"
     d="M 13,7.7070314 5.707031,15 H 13 Z M 12,10.292969 V 14 H 8.2929686 Z" />
  <path
     d="M 14,5.2929693 3.2929687,16 H 14 Z M 13,7.7070318 V 15 H 5.7070311 Z M 12,10.292969 8.2929687,14 H 12 Z"
     style="color:#000000;opacity:0.8;fill:#83899a;fill-rule:evenodd;-inkscape-stroke:none"
     id="path358" />
</svg>
