<?xml version="1.0" encoding="UTF-8" standalone="no"?>
<!-- Created with Inkscape (http://www.inkscape.org/) -->

<svg
   width="64"
   height="64"
   viewBox="0 0 64 64.000003"
   version="1.1"
   id="svg5"
   sodipodi:docname="0ad.svg"
   inkscape:version="1.2.1 (9c6d41e410, 2022-07-14)"
   xmlns:inkscape="http://www.inkscape.org/namespaces/inkscape"
   xmlns:sodipodi="http://sodipodi.sourceforge.net/DTD/sodipodi-0.dtd"
   xmlns:xlink="http://www.w3.org/1999/xlink"
   xmlns="http://www.w3.org/2000/svg"
   xmlns:svg="http://www.w3.org/2000/svg">
  <sodipodi:namedview
     id="namedview7"
     pagecolor="#ffffff"
     bordercolor="#666666"
     borderopacity="1.0"
     inkscape:showpageshadow="2"
     inkscape:pageopacity="0.0"
     inkscape:pagecheckerboard="0"
     inkscape:deskcolor="#d1d1d1"
     inkscape:document-units="px"
     showgrid="false"
     inkscape:zoom="12.34375"
     inkscape:cx="31.959494"
     inkscape:cy="32"
     inkscape:window-width="1920"
     inkscape:window-height="1002"
     inkscape:window-x="0"
     inkscape:window-y="0"
     inkscape:window-maximized="1"
     inkscape:current-layer="svg5" />
  <defs
     id="defs2">
    <linearGradient
       inkscape:collect="always"
       xlink:href="#linearGradient985"
       id="linearGradient3525"
       x1="50"
       y1="60"
       x2="14"
       y2="4"
       gradientUnits="userSpaceOnUse" />
    <linearGradient
       inkscape:collect="always"
       id="linearGradient985">
      <stop
         style="stop-color:#a0894c;stop-opacity:1;"
         offset="0"
         id="stop981" />
      <stop
         style="stop-color:#bab495;stop-opacity:1;"
         offset="1"
         id="stop983" />
    </linearGradient>
  </defs>
  <rect
     style="fill:url(#linearGradient3525);fill-opacity:1.0;stroke:none"
     id="rect184"
     width="55"
     height="55"
     x="4.5"
     y="4.5"
     ry="9.5" />
  <path
     id="path1493"
     style="opacity:0.2;fill:#000000;stroke-width:3.63637;stroke-linejoin:round"
     d="M 32 13 C 20.954329 13 12 21.954326 12 33 C 12 44.045671 20.954329 53 32 53 C 43.045671 53 52 44.045671 52 33 C 52 21.954326 43.045671 13 32 13 z M 30 17.128906 L 30 31 L 16.128906 31 C 17.031688 23.763215 22.763215 18.031688 30 17.128906 z M 34 17.128906 C 41.236783 18.031688 46.968311 23.763215 47.871094 31 L 34 31 L 34 17.128906 z M 16.128906 35 L 30 35 L 30 48.871094 C 22.763215 47.968311 17.031688 42.236783 16.128906 35 z M 34 35 L 47.871094 35 C 46.968311 42.236783 41.236783 47.968311 34 48.871094 L 34 35 z " />
  <path
     id="path1039"
     style="fill:#ffffff;stroke-width:3.63637;stroke-linejoin:round"
     d="M 32 12 C 20.954326 12 12 20.954326 12 32 C 12 43.045671 20.954326 52 32 52 C 43.045671 52 52 43.045671 52 32 C 52 20.954326 43.045671 12 32 12 z M 30 16.128906 L 30 30 L 16.128906 30 C 17.031688 22.763215 22.763215 17.031688 30 16.128906 z M 34 16.128906 C 41.236783 17.031688 46.968311 22.763215 47.871094 30 L 34 30 L 34 16.128906 z M 16.128906 34 L 30 34 L 30 47.871094 C 22.763215 46.968311 17.031688 41.236783 16.128906 34 z M 34 34 L 47.871094 34 C 46.968311 41.236783 41.236783 46.968311 34 47.871094 L 34 34 z " />
  <path
     id="rect2630"
     style="opacity:0.3;fill:#ffffff;fill-opacity:1"
     d="M 14,5 C 9.014005,5 5,9.014005 5,14 v 1 C 5,10.014005 9.014005,6 14,6 h 36 c 4.985995,0 9,4.014005 9,9 V 14 C 59,9.014005 54.985995,5 50,5 Z" />
  <path
     id="rect899"
     style="fill:#000000;stroke:none;opacity:0.6"
     d="M 14,4 C 8.4600055,4 4,8.4600055 4,14 v 36 c 0,5.539994 4.4600055,10 10,10 h 36 c 5.539994,0 10,-4.460006 10,-10 V 14 C 60,8.4600055 55.539994,4 50,4 Z m 0,1 h 36 c 4.985995,0 9,4.014005 9,9 v 36 c 0,4.985995 -4.014005,9 -9,9 H 14 C 9.014005,59 5,54.985995 5,50 V 14 C 5,9.014005 9.014005,5 14,5 Z" />
  <path
     id="rect398"
     style="opacity:0.3;fill:#ffffff"
     d="M 5 49 L 5 50 C 5 54.985995 9.014005 59 14 59 L 50 59 C 54.985995 59 59 54.985995 59 50 L 59 49 C 59 53.985995 54.985995 58 50 58 L 14 58 C 9.014005 58 5 53.985995 5 49 z " />
</svg>
