<?xml version="1.0" encoding="UTF-8" standalone="no"?>
<!-- Created with Inkscape (http://www.inkscape.org/) -->

<svg
   width="64"
   height="64"
   viewBox="0 0 64 64.000003"
   version="1.1"
   id="svg5"
   sodipodi:docname="accessories-dictionary.svg"
   inkscape:version="1.2.1 (9c6d41e410, 2022-07-14)"
   xmlns:inkscape="http://www.inkscape.org/namespaces/inkscape"
   xmlns:sodipodi="http://sodipodi.sourceforge.net/DTD/sodipodi-0.dtd"
   xmlns:xlink="http://www.w3.org/1999/xlink"
   xmlns="http://www.w3.org/2000/svg"
   xmlns:svg="http://www.w3.org/2000/svg">
  <sodipodi:namedview
     id="namedview7"
     pagecolor="#ffffff"
     bordercolor="#666666"
     borderopacity="1.0"
     inkscape:showpageshadow="2"
     inkscape:pageopacity="0.0"
     inkscape:pagecheckerboard="0"
     inkscape:deskcolor="#d1d1d1"
     inkscape:document-units="px"
     showgrid="false"
     inkscape:zoom="12.828125"
     inkscape:cx="31.961023"
     inkscape:cy="32"
     inkscape:window-width="1920"
     inkscape:window-height="1007"
     inkscape:window-x="0"
     inkscape:window-y="0"
     inkscape:window-maximized="1"
     inkscape:current-layer="svg5" />
  <defs
     id="defs2">
    <linearGradient
       inkscape:collect="always"
       xlink:href="#linearGradient1093"
       id="linearGradient3525"
       x1="50"
       y1="60"
       x2="14"
       y2="4"
       gradientUnits="userSpaceOnUse" />
    <linearGradient
       inkscape:collect="always"
       id="linearGradient1093">
      <stop
         style="stop-color:#981b1b;stop-opacity:1;"
         offset="0"
         id="stop1089" />
      <stop
         style="stop-color:#c75349;stop-opacity:1;"
         offset="1"
         id="stop1091" />
    </linearGradient>
  </defs>
  <rect
     style="fill:url(#linearGradient3525);fill-opacity:1.0;stroke:none"
     id="rect184"
     width="55"
     height="55"
     x="4.5"
     y="4.5"
     ry="9.5" />
  <path
     d="M 22.40179,21 14.59821,42.732141 12,43.19643 v 0.910711 h 7.53571 V 43.19643 L 16.45536,42.732141 18.76786,36.125 h 9.01785 l 2.27679,6.607141 -3.08036,0.464289 v 0.910711 h 9.6875 V 43.19643 L 33.76786,42.732141 25.65179,21 Z m 0.80357,2.46429 4.05357,11.125 h -7.98214 z m 21.6875,4.21428 c -0.92269,2e-5 -1.78299,0.0711 -2.58036,0.19643 -0.78599,0.113929 -1.55422,0.242329 -2.29464,0.40179 v 3.508929 h 0.96428 l 0.58036,-2 c 0.42147,-0.2392 0.90611,-0.432259 1.46429,-0.580359 0.55815,-0.148071 1.11393,-0.2232 1.66071,-0.223221 0.47842,2e-5 0.87747,0.0816 1.19643,0.24108 0.31894,0.15949 0.56773,0.37595 0.75,0.660711 0.19364,0.28479 0.33096,0.62811 0.41071,1.026789 0.0797,0.38731 0.11607,0.825151 0.11607,1.303571 v 2.50893 l -2.40178,0.0714 c -0.54678,0.0114 -1.09609,0.0348 -1.64286,0.0804 -0.53539,0.0456 -1.0459,0.13363 -1.53571,0.25893 -0.47843,0.12531 -0.93568,0.29897 -1.35715,0.52678 -0.41008,0.21644 -0.76386,0.50403 -1.07142,0.85714 -0.30757,0.35314 -0.54342,0.78852 -0.71429,1.3125 -0.17087,0.51261 -0.25893,1.12412 -0.25893,1.83036 0,0.68348 0.0687,1.31838 0.20536,1.91072 0.13669,0.58095 0.35962,1.09392 0.67857,1.52678 0.31895,0.42148 0.74386,0.75186 1.26786,0.99108 0.53538,0.23921 1.18968,0.35714 1.96428,0.35714 0.66068,0 1.25926,-0.0687 1.79465,-0.20536 0.54676,-0.1367 1.02741,-0.30635 1.4375,-0.5 0.41007,-0.20504 0.75092,-0.41504 1.03571,-0.64286 0.29616,-0.22782 0.53448,-0.42734 0.70536,-0.59821 l 0.32143,1.60714 H 52 V 43.33037 L 50,42.91073 V 32.05359 c -1e-5,-0.854321 -0.13087,-1.557891 -0.39286,-2.116071 -0.25061,-0.56955 -0.60686,-1.01785 -1.0625,-1.34821 -0.45565,-0.33033 -0.98957,-0.56866 -1.61607,-0.70536 -0.62652,-0.13668 -1.30669,-0.20534 -2.03571,-0.20536 z m 2.26785,8.241071 V 41.625 c -0.56956,0.27339 -1.1358,0.50525 -1.70535,0.6875 -0.55818,0.170871 -1.22541,0.25 -2,0.25 -1.62894,0 -2.44643,-1.00408 -2.44643,-3.00893 0,-0.70624 0.0816,-1.28542 0.24107,-1.74107 0.15947,-0.45564 0.40426,-0.80942 0.72321,-1.07143 0.31895,-0.261989 0.72446,-0.451039 1.21429,-0.55357 0.48981,-0.1139 1.06899,-0.17363 1.74107,-0.19643 l 2.23214,-0.0714 z"
     style="font-style:normal;font-variant:normal;font-weight:normal;font-stretch:normal;font-size:122.478px;line-height:125%;font-family:'Liberation Serif';-inkscape-font-specification:'Liberation Serif';letter-spacing:0px;word-spacing:0px;display:inline;fill:#000000;fill-opacity:1;stroke:none;enable-background:new;opacity:0.2"
     id="path8966" />
  <path
     d="M 22.40179,20 14.59821,41.73214 12,42.19643 v 0.91071 h 7.53571 v -0.91071 l -3.08035,-0.46429 2.3125,-6.60714 h 9.01785 l 2.27679,6.60714 -3.08036,0.46429 v 0.91071 h 9.6875 V 42.19643 L 33.76786,41.73214 25.65179,20 Z m 0.80357,2.46429 4.05357,11.125 h -7.98214 z m 21.6875,4.21428 c -0.92269,2e-5 -1.78299,0.0711 -2.58036,0.19643 -0.78599,0.11393 -1.55422,0.24233 -2.29464,0.40179 v 3.50893 h 0.96428 l 0.58036,-2 c 0.42147,-0.2392 0.90611,-0.43226 1.46429,-0.58036 0.55815,-0.14807 1.11393,-0.2232 1.66071,-0.22322 0.47842,2e-5 0.87747,0.0816 1.19643,0.24108 0.31894,0.15949 0.56773,0.37595 0.75,0.66071 0.19364,0.28479 0.33096,0.62811 0.41071,1.02679 0.0797,0.38731 0.11607,0.82515 0.11607,1.30357 v 2.50893 l -2.40178,0.0714 c -0.54678,0.0114 -1.09609,0.0348 -1.64286,0.0804 -0.53539,0.0456 -1.0459,0.13363 -1.53571,0.25893 -0.47843,0.12531 -0.93568,0.29897 -1.35715,0.52678 -0.41008,0.21644 -0.76386,0.50403 -1.07142,0.85714 -0.30757,0.35314 -0.54342,0.78852 -0.71429,1.3125 -0.17087,0.51261 -0.25893,1.12412 -0.25893,1.83036 0,0.68348 0.0687,1.31838 0.20536,1.91072 0.13669,0.58095 0.35962,1.09392 0.67857,1.52678 0.31895,0.42148 0.74386,0.75186 1.26786,0.99108 0.53538,0.23921 1.18968,0.35714 1.96428,0.35714 0.66068,0 1.25926,-0.0687 1.79465,-0.20536 0.54676,-0.1367 1.02741,-0.30635 1.4375,-0.5 0.41007,-0.20504 0.75092,-0.41504 1.03571,-0.64286 0.29616,-0.22782 0.53448,-0.42734 0.70536,-0.59821 l 0.32143,1.60714 H 52 V 42.33037 L 50,41.91073 V 31.05359 c -1e-5,-0.85432 -0.13087,-1.55789 -0.39286,-2.11607 -0.25061,-0.56955 -0.60686,-1.01785 -1.0625,-1.34821 -0.45565,-0.33033 -0.98957,-0.56866 -1.61607,-0.70536 -0.62652,-0.13668 -1.30669,-0.20534 -2.03571,-0.20536 z m 2.26785,8.24107 V 40.625 c -0.56956,0.27339 -1.1358,0.50525 -1.70535,0.6875 -0.55818,0.17087 -1.22541,0.25 -2,0.25 -1.62894,0 -2.44643,-1.00408 -2.44643,-3.00893 0,-0.70624 0.0816,-1.28542 0.24107,-1.74107 0.15947,-0.45564 0.40426,-0.80942 0.72321,-1.07143 0.31895,-0.26199 0.72446,-0.45104 1.21429,-0.55357 0.48981,-0.1139 1.06899,-0.17363 1.74107,-0.19643 l 2.23214,-0.0714 z"
     style="font-style:normal;font-variant:normal;font-weight:normal;font-stretch:normal;font-size:122.478px;line-height:125%;font-family:'Liberation Serif';-inkscape-font-specification:'Liberation Serif';letter-spacing:0px;word-spacing:0px;display:inline;fill:#ffffff;fill-opacity:1;stroke:none;enable-background:new"
     id="path8614"
     sodipodi:nodetypes="ccccccccccccccccccccccccccccccccscccccccscccscccccccccccccccccsssccccc" />
  <path
     id="rect2630"
     style="opacity:0.3;fill:#ffffff;fill-opacity:1"
     d="M 14,5 C 9.014005,5 5,9.014005 5,14 v 1 C 5,10.014005 9.014005,6 14,6 h 36 c 4.985995,0 9,4.014005 9,9 V 14 C 59,9.014005 54.985995,5 50,5 Z" />
  <path
     id="rect899"
     style="fill:#000000;stroke:none;opacity:0.6"
     d="M 14,4 C 8.4600055,4 4,8.4600055 4,14 v 36 c 0,5.539994 4.4600055,10 10,10 h 36 c 5.539994,0 10,-4.460006 10,-10 V 14 C 60,8.4600055 55.539994,4 50,4 Z m 0,1 h 36 c 4.985995,0 9,4.014005 9,9 v 36 c 0,4.985995 -4.014005,9 -9,9 H 14 C 9.014005,59 5,54.985995 5,50 V 14 C 5,9.014005 9.014005,5 14,5 Z" />
  <path
     id="rect398"
     style="opacity:0.3;fill:#ffffff"
     d="M 5 49 L 5 50 C 5 54.985995 9.014005 59 14 59 L 50 59 C 54.985995 59 59 54.985995 59 50 L 59 49 C 59 53.985995 54.985995 58 50 58 L 14 58 C 9.014005 58 5 53.985995 5 49 z " />
</svg>
