<?xml version="1.0" encoding="UTF-8" standalone="no"?>
<!-- Created with Inkscape (http://www.inkscape.org/) -->

<svg
   width="64"
   height="64"
   viewBox="0 0 64 64.000003"
   version="1.1"
   id="svg5"
   sodipodi:docname="accessories-calculator.svg"
   inkscape:version="1.2 (dc2aedaf03, 2022-05-15)"
   xmlns:inkscape="http://www.inkscape.org/namespaces/inkscape"
   xmlns:sodipodi="http://sodipodi.sourceforge.net/DTD/sodipodi-0.dtd"
   xmlns:xlink="http://www.w3.org/1999/xlink"
   xmlns="http://www.w3.org/2000/svg"
   xmlns:svg="http://www.w3.org/2000/svg">
  <sodipodi:namedview
     id="namedview7"
     pagecolor="#ffffff"
     bordercolor="#666666"
     borderopacity="1.0"
     inkscape:showpageshadow="2"
     inkscape:pageopacity="0.0"
     inkscape:pagecheckerboard="0"
     inkscape:deskcolor="#d1d1d1"
     inkscape:document-units="px"
     showgrid="false"
     inkscape:zoom="12.125"
     inkscape:cx="31.958763"
     inkscape:cy="32"
     inkscape:window-width="1920"
     inkscape:window-height="991"
     inkscape:window-x="0"
     inkscape:window-y="0"
     inkscape:window-maximized="1"
     inkscape:current-layer="svg5" />
  <defs
     id="defs2">
    <linearGradient
       inkscape:collect="always"
       id="linearGradient11839">
      <stop
         style="stop-color:#ee800d;stop-opacity:1;"
         offset="0"
         id="stop11835" />
      <stop
         style="stop-color:#eea40d;stop-opacity:1;"
         offset="1"
         id="stop11837" />
    </linearGradient>
    <linearGradient
       inkscape:collect="always"
       xlink:href="#4852"
       id="linearGradient3525"
       x1="50"
       y1="60"
       x2="14"
       y2="4"
       gradientUnits="userSpaceOnUse" />
    <linearGradient
       inkscape:collect="always"
       id="4852">
      <stop
         style="stop-color:#333333;stop-opacity:1"
         offset="0"
         id="stop14555" />
      <stop
         style="stop-color:#666666;stop-opacity:1"
         offset="1"
         id="stop14557" />
    </linearGradient>
    <linearGradient
       inkscape:collect="always"
       xlink:href="#linearGradient11839"
       id="linearGradient11841"
       x1="50"
       y1="60"
       x2="32"
       y2="32"
       gradientUnits="userSpaceOnUse" />
  </defs>
  <rect
     style="fill:url(#linearGradient3525);fill-opacity:1.0;stroke:none"
     id="rect184"
     width="55"
     height="55"
     x="4.5"
     y="4.5"
     ry="9.5" />
  <path
     id="rect11383"
     style="fill:url(#linearGradient11841);stroke-width:2;fill-opacity:1"
     d="m 32,32 v 27.5 h 18 c 5.262995,0 9.5,-4.237005 9.5,-9.5 V 32 Z" />
  <path
     id="path10562"
     style="opacity:0.2;fill:#ffffff;fill-opacity:1;stroke:none"
     d="M 32 4.5 L 32 31 L 33 31 L 33 4.5 L 32 4.5 z M 4.5 32 L 4.5 33 L 31 33 L 31 32 L 4.5 32 z M 32 32 L 32 59.5 L 33 59.5 L 33 33 L 59.5 33 L 59.5 32 L 32 32 z " />
  <path
     d="M 31,5 V 31 H 5 v 1 h 26 v 27 h 1 V 32 H 59 V 31 H 32 V 5 Z"
     style="opacity:0.2;fill:#000000;fill-opacity:1;stroke:none"
     id="path9077"
     sodipodi:nodetypes="ccccccccccccc" />
  <path
     id="rect2630"
     style="opacity:0.3;fill:#ffffff;fill-opacity:1"
     d="M 14,5 C 9.014005,5 5,9.014005 5,14 v 1 C 5,10.014005 9.014005,6 14,6 h 36 c 4.985995,0 9,4.014005 9,9 V 14 C 59,9.014005 54.985995,5 50,5 Z" />
  <path
     d="m 13.000025,40 v 1.375 c 0,0.37969 0.15742,0.71992 0.40625,0.96875 0.0311,0.0311 0.0598,0.0657 0.0937,0.0937 l 3.0625,3.0625 -3.0625,3.0625 c -0.30559,0.25219 -0.5,0.63534 -0.5,1.0625 v 1.375 h 1.375 c 0.42716,0 0.8103,-0.19441 1.0625,-0.5 l 3.0625,-3.0625 3.0625,3.0625 0.0937,0.0937 C 21.905095,50.84257 22.245325,51 22.625025,51 h 1.375 v -1.375 c 0,-0.3797 -0.15743,-0.71993 -0.40625,-0.96875 -0.0311,-0.0311 -0.0598,-0.0657 -0.0937,-0.0937 l -3.0625,-3.0625 3.15625,-3.15625 c 0.24877,-0.24888 0.4062,-0.58911 0.4062,-0.9688 V 40 h -1.375 c -0.42716,0 -0.8103,0.19441 -1.0625,0.5 l -3.0625,3.0625 -3.0625,-3.0625 c -0.028,-0.034 -0.0627,-0.0626 -0.0937,-0.0937 C 15.094945,40.15742 14.754725,40 14.375025,40 Z M 51,17 v 3 H 40 V 17 Z M 40,41 v 3 h 11 v -3 z m 0,6 v 3 H 51 V 47 Z M 17.000025,13 v 4 h -4 v 3 h 4 v 4 h 3 v -4 h 4 v -3 h -4 v -4 z"
     style="color:#000000;font-style:normal;font-variant:normal;font-weight:normal;font-stretch:normal;font-size:medium;line-height:normal;font-family:Sans;-inkscape-font-specification:Sans;text-indent:0;text-align:start;text-decoration:none;text-decoration-line:none;letter-spacing:normal;word-spacing:normal;text-transform:none;writing-mode:lr-tb;direction:ltr;baseline-shift:baseline;text-anchor:start;display:inline;overflow:visible;visibility:visible;fill:#ffffff;fill-opacity:1;stroke:none;stroke-width:11;marker:none;enable-background:new"
     id="path8294"
     sodipodi:nodetypes="csscccscscccsscsscccscsccccsccccccccccccccccccccccccccccc" />
  <path
     id="rect899"
     style="fill:#000000;stroke:none;opacity:0.6"
     d="M 14,4 C 8.4600055,4 4,8.4600055 4,14 v 36 c 0,5.539994 4.4600055,10 10,10 h 36 c 5.539994,0 10,-4.460006 10,-10 V 14 C 60,8.4600055 55.539994,4 50,4 Z m 0,1 h 36 c 4.985995,0 9,4.014005 9,9 v 36 c 0,4.985995 -4.014005,9 -9,9 H 14 C 9.014005,59 5,54.985995 5,50 V 14 C 5,9.014005 9.014005,5 14,5 Z" />
  <path
     id="rect398"
     style="opacity:0.3;fill:#ffffff"
     d="M 5 49 L 5 50 C 5 54.985995 9.014005 59 14 59 L 50 59 C 54.985995 59 59 54.985995 59 50 L 59 49 C 59 53.985995 54.985995 58 50 58 L 14 58 C 9.014005 58 5 53.985995 5 49 z " />
</svg>
