<?xml version="1.0" encoding="UTF-8" standalone="no"?>
<!-- Created with Inkscape (http://www.inkscape.org/) -->

<svg
   width="64"
   height="64"
   viewBox="0 0 64 64.000003"
   version="1.1"
   id="svg5"
   sodipodi:docname="accessories-document-viewer.svg"
   inkscape:version="1.2.1 (9c6d41e410, 2022-07-14)"
   xmlns:inkscape="http://www.inkscape.org/namespaces/inkscape"
   xmlns:sodipodi="http://sodipodi.sourceforge.net/DTD/sodipodi-0.dtd"
   xmlns:xlink="http://www.w3.org/1999/xlink"
   xmlns="http://www.w3.org/2000/svg"
   xmlns:svg="http://www.w3.org/2000/svg">
  <sodipodi:namedview
     id="namedview7"
     pagecolor="#ffffff"
     bordercolor="#666666"
     borderopacity="1.0"
     inkscape:showpageshadow="2"
     inkscape:pageopacity="0.0"
     inkscape:pagecheckerboard="0"
     inkscape:deskcolor="#d1d1d1"
     inkscape:document-units="px"
     showgrid="false"
     inkscape:zoom="9.1923882"
     inkscape:cx="21.267596"
     inkscape:cy="32.091769"
     inkscape:window-width="1920"
     inkscape:window-height="1002"
     inkscape:window-x="0"
     inkscape:window-y="0"
     inkscape:window-maximized="1"
     inkscape:current-layer="svg5" />
  <defs
     id="defs2">
    <linearGradient
       inkscape:collect="always"
       id="linearGradient1216">
      <stop
         style="stop-color:#dc1111;stop-opacity:1;"
         offset="0"
         id="stop1212" />
      <stop
         style="stop-color:#dc5d4f;stop-opacity:1;"
         offset="1"
         id="stop1214" />
    </linearGradient>
    <linearGradient
       inkscape:collect="always"
       xlink:href="#linearGradient1216"
       id="linearGradient3525"
       x1="50"
       y1="60"
       x2="14"
       y2="4"
       gradientUnits="userSpaceOnUse" />
  </defs>
  <rect
     style="fill:url(#linearGradient3525);fill-opacity:1.0;stroke:none"
     id="rect184"
     width="55"
     height="55"
     x="4.5"
     y="4.5"
     ry="9.5" />
  <path
     d="m 29.694551,13 c -0.68966,0 -0.82569,0.0323 -1.10311,0.26478 -0.55232,0.46296 -0.86707,1.88745 -0.86389,3.95853 0.003,2.1414 0.2965,4.17945 0.97021,6.83144 l 0.42529,1.6549 -0.39871,1.24449 c -1.26639,4.04683 -3.10242,8.258411 -5.80795,13.305411 -4.10033,7.64896 -7.26914,11.66446 -9.47612,12.02122 -0.3551,0.0574 -0.37213,0.0426 -0.37213,-0.21182 0,-1.29094 2.44778,-4.5189 5.17,-6.81821 1.39056,-1.17452 -0.22766,-0.38956 -2.0999,1.01942 -1.88674,1.41989 -3.44962,3.26096 -3.93399,4.63373 -0.34441,0.97616 -0.27156,1.32131 0.35884,1.64167 1.12638,0.57241 1.69957,0.59493 2.6581,0.11915 1.86326,-0.92485 4.32737,-3.85179 7.07055,-8.39366 0.88947,-1.47271 1.16859,-1.84026 1.3955,-1.84026 0.08,0 0.92056,-0.23302 1.86067,-0.51633 3.75742,-1.13234 8.26919,-2.04631 12.69243,-2.58165 l 1.47524,-0.18535 0.74427,0.3707 c 1.93828,0.97234 4.63904,1.9158 6.61866,2.30362 1.3389,0.2623 3.08239,0.31064 3.66818,0.10592 0.3691,-0.12899 1.13803,-0.58479 1.13804,-0.73458 -1.50247,0.70465 -3.76712,-0.16606 -5.47074,-0.66877 -1.12325,-0.35389 -3.5952,-1.32034 -3.73463,-1.45632 2.99295,-0.5793 8.60704,-0.70778 9.21031,1.36363 0.17675,0 0.13133,-0.83152 -0.0665,-1.16504 -0.37043,-0.62467 -1.44383,-1.12896 -2.99036,-1.4166 -1.25211,-0.23288 -4.21906,-0.29808 -6.53892,-0.14563 l -2.06003,0.13239 -0.74426,-0.45013 c -4.2677,-2.5852 -6.52795,-5.501641 -8.57238,-11.041511 -0.3068,-0.83135 -0.32743,-0.94541 -0.22594,-1.46956 0.35737,-1.84543 0.68902,-8.08062 0.4386,-8.2348 -0.45611,2.04316 -0.82498,4.08674 -1.28919,5.93117 -0.0959,0 -0.37685,-1.43767 -0.59808,-3.11121 -0.24068,-1.82081 -0.15327,-4.28405 0.17279,-5.12358 0.13065,-0.33642 0.30107,-0.64296 0.38542,-0.6752 0.83578,0.23971 1.30094,0.90165 1.42208,1.91968 0.11859,0 0.14904,-0.19454 0.17278,-0.82082 C 31.448001,13.38339 31.078801,13 29.694551,13 Z m 0.33225,15.19863 c 0.0474,-0.0151 0.0743,0.0872 0.13292,0.25154 0.0722,0.20236 0.47592,1.03085 0.89045,1.84026 1.78365,3.482631 3.75882,5.766711 6.60538,7.639021 0.14421,0.0949 0.23332,0.20298 0.19936,0.23831 -0.0339,0.0354 -0.61338,0.16006 -1.27589,0.27802 -4.51777,0.80446 -10.14227,2.4968 -12.87848,3.86586 -0.0435,0.0218 -0.0797,-0.021 -0.0797,-0.0927 0,-0.0717 0.26896,-0.63203 0.61136,-1.24449 2.57901,-4.61304 4.31199,-8.341481 5.28962,-11.412211 0.31013,-0.97412 0.42609,-1.33851 0.50503,-1.36363 z"
     style="display:inline;fill:#000000;fill-opacity:1;fill-rule:nonzero;stroke:none;enable-background:new;opacity:0.2"
     id="path1239" />
  <path
     d="m 29.694554,11.999998 c -0.68966,0 -0.82569,0.0323 -1.10311,0.26478 -0.55232,0.46296 -0.86707,1.88745 -0.86389,3.95853 0.003,2.1414 0.2965,4.17945 0.97021,6.83144 l 0.42529,1.6549 -0.39871,1.24449 c -1.26639,4.04683 -3.10242,8.25841 -5.80795,13.30541 -4.10033,7.64896 -7.26914,11.66446 -9.47612,12.02122 -0.3551,0.0574 -0.37213,0.0426 -0.37213,-0.21182 0,-1.29094 2.44778,-4.5189 5.17,-6.81821 1.39056,-1.17452 -0.22766,-0.38956 -2.0999,1.01942 -1.88674,1.41989 -3.44962,3.26096 -3.93399,4.63373 -0.34441,0.97616 -0.27156,1.32131 0.35884,1.64167 1.12638,0.57241 1.69957,0.59493 2.6581,0.11915 1.86326,-0.92485 4.32737,-3.85179 7.07055,-8.39366 0.88947,-1.47271 1.16859,-1.84026 1.3955,-1.84026 0.08,0 0.92056,-0.23302 1.86067,-0.51633 3.75742,-1.13234 8.26919,-2.04631 12.69243,-2.58165 l 1.47524,-0.18535 0.74427,0.3707 c 1.93828,0.97234 4.63904,1.9158 6.61866,2.30362 1.3389,0.2623 3.08239,0.31064 3.66818,0.10592 0.3691,-0.12899 1.13803,-0.58479 1.13804,-0.73458 -1.50247,0.70465 -3.76712,-0.16606 -5.47074,-0.66877 -1.12325,-0.35389 -3.5952,-1.32034 -3.73463,-1.45632 2.99295,-0.5793 8.60704,-0.70778 9.21031,1.36363 0.17675,0 0.13133,-0.83152 -0.0665,-1.16504 -0.37043,-0.62467 -1.44383,-1.12896 -2.99036,-1.4166 -1.25211,-0.23288 -4.21906,-0.29808 -6.53892,-0.14563 l -2.06003,0.13239 -0.74426,-0.45013 c -4.2677,-2.5852 -6.52795,-5.50164 -8.57238,-11.04151 -0.3068,-0.83135 -0.32743,-0.94541 -0.22594,-1.46956 0.35737,-1.84543 0.68902,-8.08062 0.4386,-8.2348 -0.45611,2.04316 -0.82498,4.08674 -1.28919,5.93117 -0.0959,0 -0.37685,-1.43767 -0.59808,-3.11121 -0.24068,-1.82081 -0.15327,-4.28405 0.17279,-5.12358 0.13065,-0.33642 0.30107,-0.64296 0.38542,-0.6752 0.83578,0.23971 1.30094,0.90165 1.42208,1.91968 0.11859,0 0.14904,-0.19454 0.17278,-0.82082 0.05232,-1.37743 -0.31688,-1.76082 -1.70113,-1.76082 z m 0.33225,15.19863 c 0.0474,-0.0151 0.0743,0.0872 0.13292,0.25154 0.0722,0.20236 0.47592,1.03085 0.89045,1.84026 1.78365,3.48263 3.75882,5.76671 6.60538,7.63902 0.14421,0.0949 0.23332,0.20298 0.19936,0.23831 -0.0339,0.0354 -0.61338,0.16006 -1.27589,0.27802 -4.51777,0.80446 -10.14227,2.4968 -12.87848,3.86586 -0.0435,0.0218 -0.0797,-0.021 -0.0797,-0.0927 0,-0.0717 0.26896,-0.63203 0.61136,-1.24449 2.57901,-4.61304 4.31199,-8.34148 5.28962,-11.41221 0.31013,-0.97412 0.42609,-1.33851 0.50503,-1.36363 z"
     style="display:inline;fill:#ffffff;fill-opacity:1;fill-rule:nonzero;stroke:none;enable-background:new"
     id="path429"
     sodipodi:nodetypes="sccccccsssscssssscccsscccccscccsccccccccscccccccscscc" />
  <path
     id="rect2630"
     style="opacity:0.3;fill:#ffffff;fill-opacity:1"
     d="M 14,5 C 9.014005,5 5,9.014005 5,14 v 1 C 5,10.014005 9.014005,6 14,6 h 36 c 4.985995,0 9,4.014005 9,9 V 14 C 59,9.014005 54.985995,5 50,5 Z" />
  <path
     id="rect899"
     style="fill:#000000;stroke:none;opacity:0.6"
     d="M 14,4 C 8.4600055,4 4,8.4600055 4,14 v 36 c 0,5.539994 4.4600055,10 10,10 h 36 c 5.539994,0 10,-4.460006 10,-10 V 14 C 60,8.4600055 55.539994,4 50,4 Z m 0,1 h 36 c 4.985995,0 9,4.014005 9,9 v 36 c 0,4.985995 -4.014005,9 -9,9 H 14 C 9.014005,59 5,54.985995 5,50 V 14 C 5,9.014005 9.014005,5 14,5 Z" />
  <path
     id="rect398"
     style="opacity:0.3;fill:#ffffff"
     d="M 5 49 L 5 50 C 5 54.985995 9.014005 59 14 59 L 50 59 C 54.985995 59 59 54.985995 59 50 L 59 49 C 59 53.985995 54.985995 58 50 58 L 14 58 C 9.014005 58 5 53.985995 5 49 z " />
</svg>
