<?xml version="1.0" encoding="UTF-8" standalone="no"?>
<!-- Created with Inkscape (http://www.inkscape.org/) -->

<svg
   width="64"
   height="64"
   viewBox="0 0 64 64.000003"
   version="1.1"
   id="svg5"
   sodipodi:docname="applications-accessories.svg"
   inkscape:version="1.3.2 (091e20ef0f, 2023-11-25, custom)"
   xmlns:inkscape="http://www.inkscape.org/namespaces/inkscape"
   xmlns:sodipodi="http://sodipodi.sourceforge.net/DTD/sodipodi-0.dtd"
   xmlns:xlink="http://www.w3.org/1999/xlink"
   xmlns="http://www.w3.org/2000/svg"
   xmlns:svg="http://www.w3.org/2000/svg">
  <sodipodi:namedview
     id="namedview7"
     pagecolor="#ffffff"
     bordercolor="#666666"
     borderopacity="1.0"
     inkscape:showpageshadow="2"
     inkscape:pageopacity="0.0"
     inkscape:pagecheckerboard="0"
     inkscape:deskcolor="#d1d1d1"
     inkscape:document-units="px"
     showgrid="false"
     inkscape:zoom="6.6015625"
     inkscape:cx="39.308876"
     inkscape:cy="46.276923"
     inkscape:window-width="1920"
     inkscape:window-height="1019"
     inkscape:window-x="0"
     inkscape:window-y="0"
     inkscape:window-maximized="1"
     inkscape:current-layer="svg5" />
  <defs
     id="defs2">
    <linearGradient
       inkscape:collect="always"
       xlink:href="#linearGradient2"
       id="linearGradient6610"
       x1="32"
       y1="60"
       x2="32"
       y2="4"
       gradientUnits="userSpaceOnUse" />
    <linearGradient
       inkscape:collect="always"
       id="linearGradient2">
      <stop
         style="stop-color:#2588d5;stop-opacity:1;"
         offset="0"
         id="stop1" />
      <stop
         style="stop-color:#95cbf5;stop-opacity:1;"
         offset="1"
         id="stop2" />
    </linearGradient>
  </defs>
  <rect
     style="fill:url(#linearGradient6610);fill-opacity:1;stroke:none"
     id="rect184"
     width="55"
     height="55"
     x="4.5"
     y="4.5"
     ry="9.5" />
  <path
     d="m 29.952768,13 c -0.1508,0.0172 -0.32426,0.05984 -0.47266,0.08204 -0.88378,1.631718 -3.25996,2.879948 -2.98436,4.816406 0.99768,5.147594 1.93936,10.344186 2.91014,15.527344 -1.11186,0.939984 -2.26476,2.298566 -3.37108,3.628906 -0.0932,-0.16088 -0.1718,-0.330856 -0.28906,-0.472656 -1.66094,-1.994842 -5.14388,-1.232674 -7.75392,1.714844 -2.61094,2.947316 -3.38508,6.983142 -1.72656,8.98828 1.65998,1.998918 5.1386,1.234454 7.75,-1.714844 1.38346,-1.561618 2.21396,-3.441292 2.47656,-5.14453 l 2.70704,-2.046876 1.96484,-2.300782 0.41016,1.91797 1.04296,2.359374 c -1.3073,1.6159 -1.8198,4.325036 -1.125,7.070314 0.9639,3.813176 3.8585,6.23662 6.46486,5.414062 2.60818,-0.82848 3.94498,-4.594934 2.98046,-8.40625 -0.89484,-3.539476 -3.44716,-5.891082 -5.89454,-5.550782 l -0.91796,-4.40625 c 3.33072,-3.95517 6.67606,-7.932846 10.01172,-11.84375 1.18812,-1.541898 -0.24872,-3.793004 -0.1954,-5.648436 -0.1152,-0.09304 -0.24388,-0.19456 -0.36328,-0.285158 -3.53508,4.110696 -7.0279,8.269446 -10.53516,12.425782 C 32.030248,23.749838 31.012048,18.349468 29.952768,13 Z m -6.78516,25.046876 c 0.38096,0.03556 0.68346,0.18782 0.89064,0.4375 0.73664,0.887738 0.25332,3.337954 -1.50392,5.320312 -1.75394,1.983318 -3.90174,2.477136 -4.63672,1.585936 -0.73626,-0.885598 -0.22126,-3.345586 1.53516,-5.328124 1.0962,-1.239558 2.34938,-1.911718 3.3086,-2.011718 0.1438,-0.015 0.27926,-0.0158 0.40624,-0.004 z m 12.3672,3.359374 c 1.12408,0.07628 2.55574,1.499424 3.12108,3.742188 0.64888,2.563796 -0.1492,4.889906 -1.30468,5.253906 -1.15714,0.36938 -2.9358,-1.132196 -3.58202,-3.695312 -0.6498,-2.563958 0.1516,-4.884422 1.30858,-5.25 0.1446,-0.0457 0.29646,-0.06168 0.45704,-0.05078 z"
     style="display:inline;opacity:0.2;fill:#000000;fill-opacity:1;stroke:none;stroke-width:2;enable-background:new"
     id="path1" />
  <path
     d="m 29.952768,12 c -0.1508,0.0172 -0.32426,0.05984 -0.47266,0.08204 -0.88378,1.631718 -3.25996,2.879948 -2.98436,4.816406 0.99768,5.147594 1.93936,10.344186 2.91014,15.527344 -1.11186,0.939984 -2.26476,2.298566 -3.37108,3.628906 -0.0932,-0.16088 -0.1718,-0.330856 -0.28906,-0.472656 -1.66094,-1.994842 -5.14388,-1.232674 -7.75392,1.714844 -2.61094,2.947316 -3.38508,6.983142 -1.72656,8.98828 1.65998,1.998918 5.1386,1.234454 7.75,-1.714844 1.38346,-1.561618 2.21396,-3.441292 2.47656,-5.14453 l 2.70704,-2.046876 1.96484,-2.300782 0.41016,1.91797 1.04296,2.359374 c -1.3073,1.6159 -1.8198,4.325036 -1.125,7.070314 0.9639,3.813176 3.8585,6.23662 6.46486,5.414062 2.60818,-0.82848 3.94498,-4.594934 2.98046,-8.40625 -0.89484,-3.539476 -3.44716,-5.891082 -5.89454,-5.550782 l -0.91796,-4.40625 c 3.33072,-3.95517 6.67606,-7.932846 10.01172,-11.84375 1.18812,-1.541898 -0.24872,-3.793004 -0.1954,-5.648436 -0.1152,-0.09304 -0.24388,-0.19456 -0.36328,-0.285158 -3.53508,4.110696 -7.0279,8.269446 -10.53516,12.425782 C 32.030248,22.749838 31.012048,17.349468 29.952768,12 Z m -6.78516,25.046876 c 0.38096,0.03556 0.68346,0.18782 0.89064,0.4375 0.73664,0.887738 0.25332,3.337954 -1.50392,5.320312 -1.75394,1.983318 -3.90174,2.477136 -4.63672,1.585936 -0.73626,-0.885598 -0.22126,-3.345586 1.53516,-5.328124 1.0962,-1.239558 2.34938,-1.911718 3.3086,-2.011718 0.1438,-0.015 0.27926,-0.0158 0.40624,-0.004 z m 12.3672,3.359374 c 1.12408,0.07628 2.55574,1.499424 3.12108,3.742188 0.64888,2.563796 -0.1492,4.889906 -1.30468,5.253906 -1.15714,0.36938 -2.9358,-1.132196 -3.58202,-3.695312 -0.6498,-2.563958 0.1516,-4.884422 1.30858,-5.25 0.1446,-0.0457 0.29646,-0.06168 0.45704,-0.05078 z"
     style="display:inline;fill:#ffffff;fill-opacity:1;stroke:none;stroke-width:2;enable-background:new"
     id="path1-6" />
  <path
     id="rect2630"
     style="opacity:0.2;fill:#ffffff;fill-opacity:1"
     d="M 14,5 C 9.014005,5 5,9.014005 5,14 v 1 C 5,10.014005 9.014005,6 14,6 h 36 c 4.985995,0 9,4.014005 9,9 V 14 C 59,9.014005 54.985995,5 50,5 Z" />
  <path
     id="rect899"
     style="fill:#000000;stroke:none;opacity:0.5"
     d="M 14,4 C 8.4600055,4 4,8.4600055 4,14 v 36 c 0,5.539994 4.4600055,10 10,10 h 36 c 5.539994,0 10,-4.460006 10,-10 V 14 C 60,8.4600055 55.539994,4 50,4 Z m 0,1 h 36 c 4.985995,0 9,4.014005 9,9 v 36 c 0,4.985995 -4.014005,9 -9,9 H 14 C 9.014005,59 5,54.985995 5,50 V 14 C 5,9.014005 9.014005,5 14,5 Z" />
  <path
     id="rect398"
     style="opacity:0.2;fill:#ffffff"
     d="M 5 49 L 5 50 C 5 54.985995 9.014005 59 14 59 L 50 59 C 54.985995 59 59 54.985995 59 50 L 59 49 C 59 53.985995 54.985995 58 50 58 L 14 58 C 9.014005 58 5 53.985995 5 49 z " />
</svg>
