<?xml version="1.0" encoding="UTF-8" standalone="no"?>
<!-- Created with Inkscape (http://www.inkscape.org/) -->

<svg
   width="64"
   height="64"
   viewBox="0 0 64 64.000003"
   version="1.1"
   id="svg5"
   sodipodi:docname="applets-screenshooter.svg"
   inkscape:version="1.2.1 (9c6d41e410, 2022-07-14)"
   xmlns:inkscape="http://www.inkscape.org/namespaces/inkscape"
   xmlns:sodipodi="http://sodipodi.sourceforge.net/DTD/sodipodi-0.dtd"
   xmlns:xlink="http://www.w3.org/1999/xlink"
   xmlns="http://www.w3.org/2000/svg"
   xmlns:svg="http://www.w3.org/2000/svg">
  <sodipodi:namedview
     id="namedview7"
     pagecolor="#ffffff"
     bordercolor="#666666"
     borderopacity="1.0"
     inkscape:showpageshadow="2"
     inkscape:pageopacity="0.0"
     inkscape:pagecheckerboard="0"
     inkscape:deskcolor="#d1d1d1"
     inkscape:document-units="px"
     showgrid="false"
     inkscape:zoom="12.828125"
     inkscape:cx="30.947625"
     inkscape:cy="32"
     inkscape:window-width="1920"
     inkscape:window-height="1007"
     inkscape:window-x="0"
     inkscape:window-y="0"
     inkscape:window-maximized="1"
     inkscape:current-layer="svg5" />
  <defs
     id="defs2">
    <linearGradient
       inkscape:collect="always"
       id="linearGradient1391">
      <stop
         style="stop-color:#1664b7;stop-opacity:1;"
         offset="0"
         id="stop1387" />
      <stop
         style="stop-color:#6fa7cf;stop-opacity:1;"
         offset="1"
         id="stop1389" />
    </linearGradient>
    <linearGradient
       inkscape:collect="always"
       xlink:href="#linearGradient1391"
       id="linearGradient6610"
       x1="50"
       y1="60"
       x2="14"
       y2="4"
       gradientUnits="userSpaceOnUse" />
  </defs>
  <rect
     style="fill:url(#linearGradient6610);fill-opacity:1;stroke:none"
     id="rect184"
     width="55"
     height="55"
     x="4.5"
     y="4.5"
     ry="9.5" />
  <path
     d="m 30,17 v 3 h 16 v -3 z m -15,6 c -1.65604,0 -3,1.35012 -3,3 v 20.000001 c 0,1.64988 1.34396,3 3,3 h 34 c 1.65604,0 3,-1.35012 3,-3 V 26 c 0,-1.64988 -1.34396,-3 -3,-3 m -32,4 h 6 v 3 h -6 z m 21,0 c 4.97056,0 9,4.02945 9,9.000001 0,4.97055 -4.02944,9 -9,9 -4.97056,0 -9,-4.02945 -9,-9 C 29,31.02945 33.02944,27 38,27 Z m 0,3 c -3.31371,0 -6,2.68629 -6,6.000001 0,3.31371 2.68629,6 6,6 3.31371,0 6,-2.68629 6,-6 C 44,32.68629 41.31371,30 38,30 Z"
     style="color:#bebebe;display:inline;overflow:visible;visibility:visible;fill:#000000;fill-opacity:1;fill-rule:nonzero;stroke:none;stroke-width:3;marker:none;enable-background:accumulate;opacity:0.2"
     id="path2405" />
  <path
     d="m 30,16 v 3 h 16 v -3 z m -15,6 c -1.65604,0 -3,1.35012 -3,3 v 20 c 0,1.64988 1.34396,3 3,3 h 34 c 1.65604,0 3,-1.35012 3,-3 V 25 c 0,-1.64988 -1.34396,-3 -3,-3 m -32,4 h 6 v 3 h -6 z m 21,0 c 4.97056,0 9,4.02945 9,9 0,4.97055 -4.02944,9 -9,9 -4.97056,0 -9,-4.02945 -9,-9 0,-4.97055 4.02944,-9 9,-9 z m 0,3 c -3.31371,0 -6,2.68629 -6,6 0,3.31371 2.68629,6 6,6 3.31371,0 6,-2.68629 6,-6 0,-3.31371 -2.68629,-6 -6,-6 z"
     style="color:#bebebe;display:inline;overflow:visible;visibility:visible;fill:#ffffff;fill-opacity:1;fill-rule:nonzero;stroke:none;stroke-width:3;marker:none;enable-background:accumulate"
     id="path2219"
     sodipodi:nodetypes="ccccccssssssccccccssssssssss" />
  <path
     id="rect2630"
     style="opacity:0.3;fill:#ffffff;fill-opacity:1"
     d="M 14,5 C 9.014005,5 5,9.014005 5,14 v 1 C 5,10.014005 9.014005,6 14,6 h 36 c 4.985995,0 9,4.014005 9,9 V 14 C 59,9.014005 54.985995,5 50,5 Z" />
  <path
     id="rect899"
     style="fill:#000000;stroke:none;opacity:0.5"
     d="M 14,4 C 8.4600055,4 4,8.4600055 4,14 v 36 c 0,5.539994 4.4600055,10 10,10 h 36 c 5.539994,0 10,-4.460006 10,-10 V 14 C 60,8.4600055 55.539994,4 50,4 Z m 0,1 h 36 c 4.985995,0 9,4.014005 9,9 v 36 c 0,4.985995 -4.014005,9 -9,9 H 14 C 9.014005,59 5,54.985995 5,50 V 14 C 5,9.014005 9.014005,5 14,5 Z" />
  <path
     id="rect398"
     style="opacity:0.3;fill:#ffffff"
     d="M 5 49 L 5 50 C 5 54.985995 9.014005 59 14 59 L 50 59 C 54.985995 59 59 54.985995 59 50 L 59 49 C 59 53.985995 54.985995 58 50 58 L 14 58 C 9.014005 58 5 53.985995 5 49 z " />
</svg>
