<?xml version="1.0" encoding="UTF-8" standalone="no"?>
<!-- Created with Inkscape (http://www.inkscape.org/) -->

<svg
   width="64"
   height="64"
   viewBox="0 0 64 64.000003"
   version="1.1"
   id="svg5"
   sodipodi:docname="applications-science.svg"
   inkscape:version="1.2.1 (9c6d41e410, 2022-07-14)"
   xmlns:inkscape="http://www.inkscape.org/namespaces/inkscape"
   xmlns:sodipodi="http://sodipodi.sourceforge.net/DTD/sodipodi-0.dtd"
   xmlns:xlink="http://www.w3.org/1999/xlink"
   xmlns="http://www.w3.org/2000/svg"
   xmlns:svg="http://www.w3.org/2000/svg">
  <sodipodi:namedview
     id="namedview7"
     pagecolor="#ffffff"
     bordercolor="#666666"
     borderopacity="1.0"
     inkscape:showpageshadow="2"
     inkscape:pageopacity="0.0"
     inkscape:pagecheckerboard="0"
     inkscape:deskcolor="#d1d1d1"
     inkscape:document-units="px"
     showgrid="false"
     inkscape:zoom="8.8388348"
     inkscape:cx="39.484843"
     inkscape:cy="42.482975"
     inkscape:window-width="1920"
     inkscape:window-height="1009"
     inkscape:window-x="0"
     inkscape:window-y="0"
     inkscape:window-maximized="1"
     inkscape:current-layer="svg5" />
  <defs
     id="defs2">
    <linearGradient
       inkscape:collect="always"
       xlink:href="#linearGradient1918"
       id="linearGradient6610"
       x1="32"
       y1="60"
       x2="32"
       y2="4"
       gradientUnits="userSpaceOnUse" />
    <linearGradient
       inkscape:collect="always"
       id="linearGradient1918">
      <stop
         style="stop-color:#ff8d18;stop-opacity:1;"
         offset="0"
         id="stop1914" />
      <stop
         style="stop-color:#c94c41;stop-opacity:1;"
         offset="1"
         id="stop1916" />
    </linearGradient>
  </defs>
  <rect
     style="fill:url(#linearGradient6610);fill-opacity:1.0;stroke:none"
     id="rect184"
     width="55"
     height="55"
     x="4.5"
     y="4.5"
     ry="9.5" />
  <path
     d="m 29.8149,8.25 c -1.24264,0 -2.25,1.0073601 -2.25,2.25 10e-4,0.29653 0.0609,0.58991 0.17578,0.86328 -1.84627,1.427311 -3.46993,3.739691 -4.74414,6.679691 -1.09704,-0.12662 -2.15562,-0.18902 -3.15234,-0.16797 -4.0022,0.0845 -7.11276,1.363959 -8.5625,3.875 -1.69659,2.938569 -0.76758,7.001979 2.0625,11.156249 0.29272,-0.386299 0.61537,-0.772169 0.9375,-1.15625 -2.32999,-3.51369 -3.07649,-6.84421 -1.6875,-9.249999 1.49502,-2.58946 5.16392,-3.56937 9.83984,-3.07031 -1.48863,3.99759 -2.36914,8.9527 -2.36914,14.320311 0,1.54936 0.0766,3.061669 0.2168,4.529299 -1.44159,-1.21289 -2.73687,-2.46157 -3.84375,-3.716799 -0.31485,0.391779 -0.63139,0.76921 -0.90625,1.15625 1.41607,1.601149 3.10072,3.184959 5.00391,4.68945 1.44353,10.014299 6.05748,17.341801 11.52929,17.341801 3.62294,0 6.86809,-3.21624 9.06836,-8.292971 5.49373,0.62948 9.901,-0.57213 11.71094,-3.70703 0.0219,-0.038 0.0375,-0.0788 0.0586,-0.117191 0.94007,0.180411 1.89136,-0.2537 2.3711,-1.08203 0.62033,-1.07604 0.2514,-2.4512 -0.82422,-3.07226 -0.26092,-0.14945 -0.54915,-0.24508 -0.84766,-0.28125 -0.285,-2.05912 -1.26258,-4.31693 -2.82031,-6.60352 -0.29272,0.3863 -0.61537,0.77217 -0.9375,1.15625 1.33805,2.01782 2.16153,3.97391 2.35937,5.73047 -0.34331,0.19595 -0.62893,0.47888 -0.82812,0.82031 -0.47554,0.82714 -0.3777,1.86427 0.24414,2.58789 -0.02,0.0367 -0.0357,0.075 -0.0566,0.11133 -1.49616,2.59143 -5.18156,3.57312 -9.86914,3.07227 1.48902,-3.9979 2.37109,-8.95388 2.37109,-14.32227 0,-1.548681 -0.0767,-3.060321 -0.21679,-4.527341 1.45373,1.22251 2.75827,2.48034 3.87109,3.74609 0.31664,-0.3914 0.62971,-0.76946 0.90625,-1.15625 -1.42108,-1.61118 -3.11614,-3.20341 -5.03125,-4.7168 -1.4429,-10.016309 -6.05677,-17.3456999 -11.5293,-17.3456999 -0.0426,0 -0.0845,0.005 -0.12695,0.006 C 31.62193,8.8541101 30.77062,8.25028 29.81495,8.25014 Z m 2.25,3 c 4.49245,0 8.3151,6.056841 9.81446,14.55859 -1.20265,-0.85972 -2.47152,-1.688369 -3.81641,-2.464839 -0.93561,-0.54018 -1.87505,-1.00736 -2.8125,-1.46875 -0.63431,0.21562 -1.2584,0.46075 -1.90625,0.71875 1.31784,0.60423 2.64457,1.297989 3.96875,2.0625 1.75553,1.01356 3.38355,2.105799 4.88086,3.24219 0.23463,1.868639 0.37109,3.82413 0.37109,5.851561 0,5.349859 -0.87296,10.261479 -2.32812,14.123049 -1.53595,-0.252409 -3.15483,-0.644039 -4.83008,-1.185549 -0.66427,0.31893 -1.30732,0.62677 -1.96875,0.90625 2.15258,0.77505 4.24956,1.32629 6.23242,1.6582 -1.91279,4.30836 -4.61129,6.998051 -7.60547,6.998051 -4.49209,0 -8.31484,-6.055981 -9.81445,-14.556641 1.20132,0.85904 2.46888,1.68715 3.8125,2.46289 0.93562,0.54018 1.87505,1.00736 2.8125,1.46875 0.63431,-0.21562 1.2584,-0.46075 1.90625,-0.71875 -1.31784,-0.60423 -2.64457,-1.29799 -3.96875,-2.0625 -1.75468,-1.01307 -3.38057,-2.10591 -4.87695,-3.24219 -0.23463,-1.86864 -0.3711,-3.82413 -0.3711,-5.85156 0,-5.349011 0.87143,-10.259811 2.32617,-14.121091 1.53451,0.25208 3.15234,0.64235 4.82813,1.18359 0.66427,-0.31893 1.30732,-0.62677 1.96875,-0.90625 -2.15045,-0.77428 -4.2471,-1.32278 -6.23047,-1.65625 1.15865,-2.61025 2.60512,-4.62368 4.23242,-5.80664 0.34154,0.1993 0.72957,0.30506 1.125,0.30664 0.94997,-5.7e-4 1.79723,-0.59772 2.11719,-1.492191 0.0444,-10e-4 0.0883,-0.008 0.13281,-0.008 z m 12.2168,6.625001 c -0.6859,-0.0145 -1.39061,0.007 -2.125,0.0625 0.19221,0.45522 0.38731,0.925799 0.5625,1.40625 4.18411,-0.24989 7.4602,0.75987 8.84375,3.15625 2.12483,3.680289 -0.74374,9.553419 -6.65625,14.875001 -0.0525,0.707189 -0.10527,1.40717 -0.1875,2.09375 7.19149,-6.07201 10.72715,-13.211701 8.125,-17.718751 -1.44975,-2.511041 -4.5603,-3.79047 -8.5625,-3.875 z m -5.59375,0.5625 c -3.95654,0.79691 -8.33084,2.42701 -12.625,4.90625 -0.91937,0.5308 -1.80184,1.085809 -2.65625,1.656249 -0.13575,0.67482 -0.23913,1.353001 -0.34375,2.0625 1.18228,-0.83924 2.42572,-1.64167 3.75,-2.406249 4.27916,-2.47057 8.59303,-4.11037 12.4375,-4.875 -0.17963,-0.46827 -0.36613,-0.91248 -0.5625,-1.34375 z M 19.4067,28.03125 c -7.19149,6.072011 -10.72715,13.211702 -8.125,17.718752 0.0215,0.0372 0.0481,0.0707 0.0703,0.107419 -0.62428,0.72394 -0.72296,1.76331 -0.24609,2.5918 0.62178,1.07609 1.99825,1.44425 3.07422,0.82226 0.25692,-0.148449 0.48194,-0.34626 0.66211,-0.58203 1.92551,0.78879 4.36953,1.0775 7.12695,0.87305 -0.19221,-0.45522 -0.38731,-0.9258 -0.5625,-1.40625 -2.40224,0.14347 -4.49304,-0.1308 -6.10156,-0.8418 -0.002,-0.39176 -0.10646,-0.77618 -0.30274,-1.11523 -0.47304,-0.81826 -1.40704,-1.25366 -2.33789,-1.08984 -0.0227,-0.037 -0.0486,-0.0717 -0.0703,-0.10938 -2.12146,-3.67445 0.73156,-9.52887 6.625,-14.843751 0.0528,-0.71782 0.10407,-1.42837 0.1875,-2.125 z m 13.58789,0.398441 c -0.43031,-0.0202 -0.85738,0.0835 -1.23047,0.298829 -0.34118,0.19865 -0.62409,0.48358 -0.82031,0.826171 C 30.60093,29.35541 30.21148,29.2503 29.8149,29.25 c -1.24264,0 -2.25,1.00736 -2.25,2.25 0.002,0.396271 0.10829,0.78503 0.3086,1.126951 -0.34427,0.19621 -0.63062,0.47987 -0.83008,0.82227 -0.62066,1.07553 -0.25265,2.45053 0.82226,3.07226 0.34421,0.19688 0.73433,0.2993 1.13086,0.29688 -0.002,0.39653 0.1,0.786651 0.29688,1.13086 0.62173,1.07491 1.99673,1.44292 3.07226,0.82226 0.34359,-0.198369 0.62861,-0.48407 0.82618,-0.82812 0.34096,0.19896 0.72827,0.304721 1.12304,0.306641 1.24264,0 2.25,-1.00736 2.25,-2.25 -3e-4,-0.39658 -0.10541,-0.78603 -0.30468,-1.12891 0.34259,-0.19622 0.62752,-0.47913 0.82617,-0.82031 0.62065,-1.075531 0.25264,-2.450531 -0.82227,-3.072261 -0.34306,-0.19622 -0.73175,-0.29861 -1.12695,-0.29688 0.001,-0.39688 -0.10254,-0.787031 -0.30078,-1.13086 -0.38324,-0.66268 -1.07713,-1.08505 -1.8418,-1.12109 z m -1.23242,4.1875 c 0.34345,0.199609 0.73362,0.304729 1.13086,0.30469 -4e-5,0.39724 0.10508,0.787411 0.30469,1.130851 -0.34527,0.19837 -0.63171,0.48481 -0.83008,0.83008 -0.3423,-0.19895 -0.73104,-0.30405 -1.12696,-0.30469 3.9e-4,-0.3979 -0.10474,-0.78879 -0.30468,-1.13281 0.34358,-0.19837 0.62861,-0.484071 0.82617,-0.828121 z m 9.30078,7.820311 c -1.18228,0.839239 -2.42572,1.641669 -3.75,2.40625 -4.27916,2.47057 -8.59303,4.110369 -12.4375,4.875 0.17963,0.468269 0.36613,0.91248 0.5625,1.34375 3.95654,-0.79691 8.33084,-2.427011 12.625,-4.90625 0.91937,-0.5308 1.80184,-1.085811 2.65625,-1.65625 0.13575,-0.67482 0.23913,-1.353001 0.34375,-2.0625 z"
     style="color:#000000;display:inline;overflow:visible;visibility:visible;fill:#000000;fill-opacity:1;fill-rule:evenodd;stroke:none;stroke-width:3;marker:none;enable-background:new;opacity:0.2"
     id="path13528" />
  <path
     d="m 29.8149,7.25 c -1.24264,0 -2.25,1.00736 -2.25,2.25 10e-4,0.29653 0.0609,0.58991 0.17578,0.86328 -1.84627,1.42731 -3.46993,3.73969 -4.74414,6.67969 -1.09704,-0.12662 -2.15562,-0.18902 -3.15234,-0.16797 -4.0022,0.0845 -7.11276,1.36396 -8.5625,3.875 -1.6965903,2.93857 -0.76758,7.00198 2.0625,11.15625 0.29272,-0.3863 0.61537,-0.77217 0.9375,-1.15625 -2.32999,-3.51369 -3.07649,-6.84421 -1.6875,-9.25 1.49502,-2.58946 5.16392,-3.56937 9.83984,-3.07031 -1.48863,3.99759 -2.36914,8.9527 -2.36914,14.32031 0,1.54936 0.0766,3.06167 0.2168,4.5293 -1.44159,-1.21289 -2.73687,-2.46157 -3.84375,-3.7168 -0.31485,0.39178 -0.63139,0.76921 -0.90625,1.15625 1.41607,1.60115 3.10072,3.18496 5.00391,4.68945 1.44353,10.0143 6.05748,17.3418 11.52929,17.3418 3.62294,0 6.86809,-3.21624 9.06836,-8.29297 5.49373,0.62948 9.901,-0.57213 11.71094,-3.70703 0.0219,-0.038 0.0375,-0.0788 0.0586,-0.11719 0.94007,0.18041 1.89136,-0.2537 2.3711,-1.08203 0.62033,-1.07604 0.2514,-2.4512 -0.82422,-3.07226 -0.26092,-0.14945 -0.54915,-0.24508 -0.84766,-0.28125 -0.285,-2.05912 -1.26258,-4.31693 -2.82031,-6.60352 -0.29272,0.3863 -0.61537,0.77217 -0.9375,1.15625 1.33805,2.01782 2.16153,3.97391 2.35937,5.73047 -0.34331,0.19595 -0.62893,0.47888 -0.82812,0.82031 -0.47554,0.82714 -0.3777,1.86427 0.24414,2.58789 -0.02,0.0367 -0.0357,0.075 -0.0566,0.11133 -1.49616,2.59143 -5.18156,3.57312 -9.86914,3.07227 1.48902,-3.9979 2.37109,-8.95388 2.37109,-14.32227 0,-1.54868 -0.0767,-3.06032 -0.21679,-4.52734 1.45373,1.22251 2.75827,2.48034 3.87109,3.74609 0.31664,-0.3914 0.62971,-0.76946 0.90625,-1.15625 C 47.20442,29.20132 45.50936,27.60909 43.59425,26.0957 42.15135,16.07939 37.53748,8.75 32.06495,8.75 32.02235,8.75 31.98045,8.755 31.938,8.756 31.62193,7.85411 30.77062,7.25028 29.81495,7.25014 Z m 2.25,3 c 4.49245,0 8.3151,6.05684 9.81446,14.55859 -1.20265,-0.85972 -2.47152,-1.68837 -3.81641,-2.46484 -0.93561,-0.54018 -1.87505,-1.00736 -2.8125,-1.46875 -0.63431,0.21562 -1.2584,0.46075 -1.90625,0.71875 1.31784,0.60423 2.64457,1.29799 3.96875,2.0625 1.75553,1.01356 3.38355,2.1058 4.88086,3.24219 0.23463,1.86864 0.37109,3.82413 0.37109,5.85156 0,5.34986 -0.87296,10.26148 -2.32812,14.12305 -1.53595,-0.25241 -3.15483,-0.64404 -4.83008,-1.18555 -0.66427,0.31893 -1.30732,0.62677 -1.96875,0.90625 2.15258,0.77505 4.24956,1.32629 6.23242,1.6582 -1.91279,4.30836 -4.61129,6.99805 -7.60547,6.99805 -4.49209,0 -8.31484,-6.05598 -9.81445,-14.55664 1.20132,0.85904 2.46888,1.68715 3.8125,2.46289 0.93562,0.54018 1.87505,1.00736 2.8125,1.46875 0.63431,-0.21562 1.2584,-0.46075 1.90625,-0.71875 -1.31784,-0.60423 -2.64457,-1.29799 -3.96875,-2.0625 C 25.05827,40.83068 23.43238,39.73784 21.936,38.60156 21.70137,36.73292 21.5649,34.77743 21.5649,32.75 c 0,-5.34901 0.87143,-10.25981 2.32617,-14.12109 1.53451,0.25208 3.15234,0.64235 4.82813,1.18359 0.66427,-0.31893 1.30732,-0.62677 1.96875,-0.90625 -2.15045,-0.77428 -4.2471,-1.32278 -6.23047,-1.65625 1.15865,-2.61025 2.60512,-4.62368 4.23242,-5.80664 0.34154,0.1993 0.72957,0.30506 1.125,0.30664 0.94997,-5.7e-4 1.79723,-0.59772 2.11719,-1.49219 0.0444,-10e-4 0.0883,-0.008 0.13281,-0.008 z m 12.2168,6.625 c -0.6859,-0.0145 -1.39061,0.007 -2.125,0.0625 0.19221,0.45522 0.38731,0.9258 0.5625,1.40625 4.18411,-0.24989 7.4602,0.75987 8.84375,3.15625 2.12483,3.68029 -0.74374,9.55342 -6.65625,14.875 -0.0525,0.70719 -0.10527,1.40717 -0.1875,2.09375 7.19149,-6.07201 10.72715,-13.2117 8.125,-17.71875 -1.44975,-2.51104 -4.5603,-3.79047 -8.5625,-3.875 z m -5.59375,0.5625 c -3.95654,0.79691 -8.33084,2.42701 -12.625,4.90625 -0.91937,0.5308 -1.80184,1.08581 -2.65625,1.65625 -0.13575,0.67482 -0.23913,1.353 -0.34375,2.0625 1.18228,-0.83924 2.42572,-1.64167 3.75,-2.40625 4.27916,-2.47057 8.59303,-4.11037 12.4375,-4.875 -0.17963,-0.46827 -0.36613,-0.91248 -0.5625,-1.34375 z M 19.4067,27.03125 c -7.19149,6.07201 -10.7271503,13.2117 -8.125,17.71875 0.0215,0.0372 0.0481,0.0707 0.0703,0.10742 -0.62428,0.72394 -0.72296,1.76331 -0.24609,2.5918 0.62178,1.07609 1.99825,1.44425 3.07422,0.82226 0.25692,-0.14845 0.48194,-0.34626 0.66211,-0.58203 1.92551,0.78879 4.36953,1.0775 7.12695,0.87305 -0.19221,-0.45522 -0.38731,-0.9258 -0.5625,-1.40625 -2.40224,0.14347 -4.49304,-0.1308 -6.10156,-0.8418 -0.002,-0.39176 -0.10646,-0.77618 -0.30274,-1.11523 -0.47304,-0.81826 -1.40704,-1.25366 -2.33789,-1.08984 -0.0227,-0.037 -0.0486,-0.0717 -0.0703,-0.10938 -2.12146,-3.67445 0.73156,-9.52887 6.625,-14.84375 0.0528,-0.71782 0.10407,-1.42837 0.1875,-2.125 z m 13.58789,0.39844 c -0.43031,-0.0202 -0.85738,0.0835 -1.23047,0.29883 -0.34118,0.19865 -0.62409,0.48358 -0.82031,0.82617 C 30.60093,28.35541 30.21148,28.2503 29.8149,28.25 c -1.24264,0 -2.25,1.00736 -2.25,2.25 0.002,0.39627 0.10829,0.78503 0.3086,1.12695 -0.34427,0.19621 -0.63062,0.47987 -0.83008,0.82227 -0.62066,1.07553 -0.25265,2.45053 0.82226,3.07226 0.34421,0.19688 0.73433,0.2993 1.13086,0.29688 -0.002,0.39653 0.1,0.78665 0.29688,1.13086 0.62173,1.07491 1.99673,1.44292 3.07226,0.82226 0.34359,-0.19837 0.62861,-0.48407 0.82618,-0.82812 0.34096,0.19896 0.72827,0.30472 1.12304,0.30664 1.24264,0 2.25,-1.00736 2.25,-2.25 -3e-4,-0.39658 -0.10541,-0.78603 -0.30468,-1.12891 0.34259,-0.19622 0.62752,-0.47913 0.82617,-0.82031 0.62065,-1.07553 0.25264,-2.45053 -0.82227,-3.07226 -0.34306,-0.19622 -0.73175,-0.29861 -1.12695,-0.29688 0.001,-0.39688 -0.10254,-0.78703 -0.30078,-1.13086 -0.38324,-0.66268 -1.07713,-1.08505 -1.8418,-1.12109 z m -1.23242,4.1875 c 0.34345,0.19961 0.73362,0.30473 1.13086,0.30469 -4e-5,0.39724 0.10508,0.78741 0.30469,1.13085 -0.34527,0.19837 -0.63171,0.48481 -0.83008,0.83008 -0.3423,-0.19895 -0.73104,-0.30405 -1.12696,-0.30469 3.9e-4,-0.3979 -0.10474,-0.78879 -0.30468,-1.13281 0.34358,-0.19837 0.62861,-0.48407 0.82617,-0.82812 z m 9.30078,7.82031 c -1.18228,0.83924 -2.42572,1.64167 -3.75,2.40625 -4.27916,2.47057 -8.59303,4.11037 -12.4375,4.875 0.17963,0.46827 0.36613,0.91248 0.5625,1.34375 3.95654,-0.79691 8.33084,-2.42701 12.625,-4.90625 0.91937,-0.5308 1.80184,-1.08581 2.65625,-1.65625 0.13575,-0.67482 0.23913,-1.353 0.34375,-2.0625 z"
     style="color:#000000;display:inline;overflow:visible;visibility:visible;fill:#ffffff;fill-opacity:1;fill-rule:evenodd;stroke:none;stroke-width:3;marker:none;enable-background:new"
     id="path12916"
     sodipodi:nodetypes="ccccccccccsccccscccccccccccccsccccscccccsccccsccccscsccccscccccccccccccccsccsccccccccccccccccccccccccccccccccccccccccccccccccccscc" />
  <path
     id="rect2630"
     style="opacity:0.3;fill:#ffffff;fill-opacity:1"
     d="M 14,5 C 9.014005,5 5,9.014005 5,14 v 1 C 5,10.014005 9.014005,6 14,6 h 36 c 4.985995,0 9,4.014005 9,9 V 14 C 59,9.014005 54.985995,5 50,5 Z" />
  <path
     id="rect899"
     style="fill:#000000;stroke:none;opacity:0.5"
     d="M 14,4 C 8.4600055,4 4,8.4600055 4,14 v 36 c 0,5.539994 4.4600055,10 10,10 h 36 c 5.539994,0 10,-4.460006 10,-10 V 14 C 60,8.4600055 55.539994,4 50,4 Z m 0,1 h 36 c 4.985995,0 9,4.014005 9,9 v 36 c 0,4.985995 -4.014005,9 -9,9 H 14 C 9.014005,59 5,54.985995 5,50 V 14 C 5,9.014005 9.014005,5 14,5 Z" />
  <path
     id="rect398"
     style="opacity:0.3;fill:#ffffff"
     d="M 5 49 L 5 50 C 5 54.985995 9.014005 59 14 59 L 50 59 C 54.985995 59 59 54.985995 59 50 L 59 49 C 59 53.985995 54.985995 58 50 58 L 14 58 C 9.014005 58 5 53.985995 5 49 z " />
</svg>
