<?xml version="1.0" encoding="UTF-8" standalone="no"?>
<!-- Created with Inkscape (http://www.inkscape.org/) -->

<svg
   width="64"
   height="64"
   viewBox="0 0 64 64.000003"
   version="1.1"
   id="svg5"
   sodipodi:docname="applications-utilities.svg"
   inkscape:version="1.2.1 (9c6d41e410, 2022-07-14)"
   xmlns:inkscape="http://www.inkscape.org/namespaces/inkscape"
   xmlns:sodipodi="http://sodipodi.sourceforge.net/DTD/sodipodi-0.dtd"
   xmlns:xlink="http://www.w3.org/1999/xlink"
   xmlns="http://www.w3.org/2000/svg"
   xmlns:svg="http://www.w3.org/2000/svg">
  <sodipodi:namedview
     id="namedview7"
     pagecolor="#ffffff"
     bordercolor="#666666"
     borderopacity="1.0"
     inkscape:showpageshadow="2"
     inkscape:pageopacity="0.0"
     inkscape:pagecheckerboard="0"
     inkscape:deskcolor="#d1d1d1"
     inkscape:document-units="px"
     showgrid="false"
     inkscape:zoom="12.421875"
     inkscape:cx="32"
     inkscape:cy="32"
     inkscape:window-width="1920"
     inkscape:window-height="1007"
     inkscape:window-x="0"
     inkscape:window-y="0"
     inkscape:window-maximized="1"
     inkscape:current-layer="svg5" />
  <defs
     id="defs2">
    <linearGradient
       inkscape:collect="always"
       xlink:href="#linearGradient22024"
       id="linearGradient6610"
       x1="32"
       y1="60"
       x2="32"
       y2="4"
       gradientUnits="userSpaceOnUse" />
    <linearGradient
       inkscape:collect="always"
       id="linearGradient22024">
      <stop
         style="stop-color:#cdcdcd;stop-opacity:1;"
         offset="0"
         id="stop22020" />
      <stop
         style="stop-color:#eff0f1;stop-opacity:1;"
         offset="1"
         id="stop22022" />
    </linearGradient>
  </defs>
  <rect
     style="fill:url(#linearGradient6610);fill-opacity:1.0;stroke:none"
     id="rect184"
     width="55"
     height="55"
     x="4.5"
     y="4.5"
     ry="9.5" />
  <path
     d="m 43.892349,28.796015 c 0,0 -0.4352,0.30919 -1.354218,1.433164 -1.12394,1.374182 -1.97148,1.44574 -2.98408,1.47197 l -0.006,0.0082 c -0.202842,-0.049 -0.40772,-0.0922 -0.613282,-0.1266 l -0.0015,-0.0082 c -0.9219,-0.419336 -1.67398,-0.817094 -2.17168,-2.521246 -0.40706,-1.392952 -0.68666,-1.84848 -0.68666,-1.84848 -0.57952,-0.12826 -1.30576,0.0138 -1.30576,0.0138 0,0 -0.72644,0.1412 -1.21524,0.477382 0,0 -0.0892,0.526756 0.0566,1.970956 0.177,1.76638 -0.37182,2.416824 -1.06914,3.151186 l 6e-4,0.011 c -0.1772,0.10872 -0.350298,0.225414 -0.52122,0.34712 l -0.006,-0.0056 c -0.94854,0.355182 -1.76162,0.605858 -3.318518,-0.247156 -1.2726,-0.697398 -1.79242,-0.821498 -1.79242,-0.821498 -0.4996,0.31753 -0.9132,0.930766 -0.9132,0.930766 0,0 -0.4138,0.613508 -0.52172,1.196962 0,0 0.30954,0.435686 1.43302,1.354312 1.37412,1.123916 1.44604,1.972056 1.47226,2.98426 l 0.01,0.0056 c -0.0486,0.203394 -0.092,0.407804 -0.1266,0.613096 l -0.006,10e-4 c -0.41914,0.922012 -0.817,1.67407 -2.52098,2.171956 -1.39294,0.40673 -1.84866,0.687104 -1.84866,0.687104 -0.1282,0.579656 0.012,1.304906 0.012,1.304906 0,0 0.1414,0.726738 0.47742,1.215514 0,0 0.526698,0.08944 1.97078,-0.05588 1.76632,-0.1767 2.41622,0.372548 3.150978,1.069424 l 0.01,-0.0016 c 0.109,0.17752 0.2257,0.350558 0.34696,0.521308 l -0.006,0.0082 c 0.35592,0.948378 0.605878,1.761398 -0.24688,3.318138 -0.69732,1.272844 -0.82132,1.793408 -0.82132,1.793408 0.31932,0.50039 0.931978,0.913562 0.931978,0.913562 0,0 0.61376,0.413968 1.196962,0.521748 0,0 0.43564,-0.308998 1.354118,-1.432916 1.12408,-1.374016 1.972142,-1.445246 2.98426,-1.472134 l 0.006,-0.0082 c 0.20422,0.04872 0.407942,0.0922 0.61336,0.1266 l 5.8e-4,0.011 c 0.92212,0.419226 1.67408,0.816956 2.17192,2.52086 0.40678,1.393062 0.68712,1.848922 0.68712,1.848922 0.57962,0.1277 1.30508,-0.0138 1.30508,-0.0138 0,0 0.72676,-0.14146 1.21522,-0.477822 0,0 0.0892,-0.526152 -0.0536,-1.970654 -0.1766,-1.766352 0.37272,-2.416466 1.06922,-3.15102 l -0.0018,-0.0082 c 0.1774,-0.10872 0.35034,-0.22596 0.52122,-0.34717 l 0.01,0.0056 c 0.94836,-0.355594 1.76128,-0.606022 3.31824,0.246878 1.27264,0.697344 1.79308,0.821526 1.79308,0.821526 0.50044,-0.319648 0.9137,-0.932304 0.9137,-0.932304 0,0 0.41396,-0.613702 0.5218,-1.197046 0,0 -0.30898,-0.43563 -1.43316,-1.354172 -1.37416,-1.123842 -1.44534,-1.97201 -1.47198,-2.984048 l -0.006,-0.0056 c 0.0486,-0.204218 0.0924,-0.407914 0.1262,-0.613234 l 0.01,-0.0016 c 0.41928,-0.921902 0.81704,-1.673932 2.52102,-2.171818 1.39318,-0.406786 1.84908,-0.687132 1.84908,-0.687132 0.1278,-0.579628 -0.014,-1.305128 -0.014,-1.305128 0,0 -0.1412,-0.726462 -0.47736,-1.215484 0,0 -0.52684,-0.08918 -1.97106,0.05586 -1.76642,0.17698 -2.41656,-0.37186 -3.15118,-1.069064 l -0.01,0.0016 c -0.109,-0.17752 -0.22512,-0.35064 -0.3475,-0.521142 l 0.006,-0.0082 c -0.35504,-0.948156 -0.60616,-1.761232 0.24688,-3.318222 0.69738,-1.272596 0.82178,-1.792996 0.82178,-1.792996 -0.31928,-0.500252 -0.93244,-0.913918 -0.93244,-0.913918 0,0 -0.61372,-0.413914 -1.19706,-0.521748 z m -1.162578,15.529668 c -1.987722,2.946912 -5.98788,3.724512 -8.93478,1.736792 -2.94688,-1.987744 -3.72444,-5.987868 -1.73674,-8.934808 1.98768,-2.946858 5.98784,-3.724456 8.93478,-1.736712 2.94692,1.987718 3.72446,5.98787 1.73674,8.934728 z M 31.718729,15.050073 c 0,0 -0.405258,0.13486 -1.37126,0.779688 -1.181318,0.788416 -1.846418,0.644968 -2.62726,0.428172 l -0.006,0.0056 c -0.144,-0.08504 -0.2904,-0.16596 -0.439578,-0.240274 l 6.6e-4,-0.0056 c -0.6072,-0.536446 -1.08956,-1.01669 -1.07174,-2.43686 0.012,-1.160882 -0.0926,-1.574796 -0.0926,-1.574796 -0.413342,-0.233668 -1.00198,-0.29565 -1.00198,-0.29565 0,0 -0.58882,-0.06192 -1.0414,0.08092 0,0 -0.1912,0.382152 -0.41834,1.52093 -0.27782,1.39279 -0.84974,1.762032 -1.55494,2.160784 l -0.0018,0.0082 c -0.1612,0.04184 -0.3207,0.09054 -0.47994,0.14366 l -0.006,-0.0056 c -0.8088,0.04982 -1.48944,0.05146 -2.481082,-0.96525 -0.81048,-0.831214 -1.17916,-1.047764 -1.17916,-1.047764 -0.45646,0.12606 -0.91634,0.498492 -0.91634,0.498492 0,0 -0.46008,0.372602 -0.67912,0.793728 0,0 0.1348,0.40574 0.7796,1.37132 0.78836,1.181274 0.64502,1.846966 0.42832,2.627482 l 0.006,0.0056 c -0.0848,0.14422 -0.1656,0.290474 -0.24056,0.4394 l -0.006,-5.78e-4 c -0.53634,0.607344 -1.01658,1.089652 -2.43668,1.07201 -1.1608,-0.0138 -1.57506,0.0933 -1.57506,0.0933 -0.23368,0.4135 -0.2955,1.001304 -0.2955,1.001304 0,0 -0.0634,0.588986 0.081,1.041596 0,0 0.38202,0.19156 1.5208,0.418236 1.3927,0.277952 1.76144,0.850176 2.16052,1.555198 l 0.006,5.78e-4 c 0.0422,0.16156 0.0908,0.320998 0.1436,0.479996 l -0.006,0.0056 c 0.0502,0.808784 0.0518,1.489282 -0.965,2.480816 -0.83118,0.810682 -1.04782,1.179954 -1.04782,1.179954 0.1274,0.45751 0.49932,0.91692 0.49932,0.91692 0,0 0.37274,0.460262 0.79376,0.67915 0,0 0.4055,-0.13458 1.37112,-0.779554 1.18136,-0.78825 1.84682,-0.644416 2.62746,-0.428226 l 0.006,-0.0056 c 0.145,0.08504 0.29044,0.16596 0.43966,0.240274 l -0.0018,0.0082 c 0.6074,0.536418 1.08964,1.016578 1.07202,2.436614 -0.012,1.160908 0.093,1.575236 0.093,1.575236 0.41356,0.233394 1.00146,0.295402 1.00146,0.295402 0,0 0.5891,0.06192 1.04146,-0.0812 0,0 0.1912,-0.381686 0.41832,-1.52066 0.27838,-1.39265 0.8504,-1.761564 1.55504,-2.160616 l -2.8e-4,-0.0082 c 0.1612,-0.04184 0.32088,-0.09082 0.48,-0.14366 l 0.006,0.0056 c 0.80876,-0.0501 1.48928,-0.05174 2.4809,0.965084 0.8105,0.831186 1.1797,1.047954 1.1797,1.047954 0.45762,-0.12744 0.91706,-0.499564 0.91706,-0.499564 0,0 0.46028,-0.372686 0.6792,-0.793756 0,0 -0.1346,-0.405574 -0.77972,-1.371236 -0.78838,-1.181276 -0.64444,-1.84683 -0.42814,-2.627318 l -0.006,-0.0056 c 0.0848,-0.14476 0.1656,-0.290528 0.24026,-0.439592 l 0.01,8.8e-4 c 0.53646,-0.607232 1.01668,-1.08954 2.43676,-1.071898 1.16102,0.0138 1.57538,-0.0933 1.57538,-0.0933 0.23338,-0.413558 0.29522,-1.001636 0.29522,-1.001636 0,0 0.063,-0.58871 -0.081,-1.041568 0,0 -0.382218,-0.19156 -1.521,-0.418346 -1.39288,-0.277842 -1.76186,-0.849736 -2.16082,-1.55495 l -0.006,-5.78e-4 c -0.0418,-0.16128 -0.0902,-0.320944 -0.1438,-0.47997 l 0.006,-0.0056 c -0.05,-0.80848 -0.052,-1.489254 0.96502,-2.48087 0.83124,-0.810516 1.0481,-1.179542 1.0481,-1.179542 -0.1272,-0.4574 -0.49964,-0.917304 -0.49964,-0.917304 0,0 -0.37268,-0.460234 -0.79376,-0.67915 z m -4.52184,11.609134 c -2.21,1.789638 -5.45218,1.448906 -7.24184,-0.761086 -1.78964,-2.210018 -1.44884,-5.452222 0.76106,-7.241886 2.20996,-1.789582 5.452202,-1.448852 7.24184,0.761168 1.78964,2.210018 1.4488,5.452222 -0.7611,7.241832 z"
     style="display:inline;opacity:0.5;fill:#ffffff;fill-opacity:1;stroke:none;stroke-width:2;enable-background:new"
     id="path7698" />
  <path
     d="m 43.902349,27.795858 c 0,0 -0.4352,0.30919 -1.354218,1.433164 -1.12394,1.374182 -1.97148,1.44574 -2.98408,1.47197 l -0.006,0.0082 c -0.202842,-0.049 -0.40772,-0.0922 -0.613282,-0.1266 l -0.0015,-0.0082 c -0.9219,-0.419336 -1.67398,-0.817094 -2.17168,-2.521246 -0.40706,-1.392952 -0.68666,-1.84848 -0.68666,-1.84848 -0.57952,-0.12826 -1.30576,0.0138 -1.30576,0.0138 0,0 -0.72644,0.1412 -1.21524,0.477382 0,0 -0.0892,0.526756 0.0566,1.970956 0.177,1.76638 -0.37182,2.416824 -1.06914,3.151186 l 6e-4,0.011 c -0.1772,0.10872 -0.350298,0.225412 -0.52122,0.347118 l -0.006,-0.0056 c -0.94854,0.355182 -1.76162,0.605858 -3.318518,-0.247154 -1.2726,-0.697398 -1.79242,-0.821498 -1.79242,-0.821498 -0.4996,0.31753 -0.9132,0.930764 -0.9132,0.930764 0,0 -0.4138,0.613508 -0.52172,1.196962 0,0 0.30954,0.435686 1.43302,1.354312 1.37412,1.123916 1.44604,1.972056 1.47226,2.98426 l 0.01,0.0056 c -0.0486,0.203394 -0.092,0.407804 -0.1266,0.613096 l -0.006,10e-4 c -0.41914,0.922012 -0.817,1.67407 -2.52098,2.171956 -1.39294,0.40673 -1.84866,0.687104 -1.84866,0.687104 -0.1282,0.579656 0.012,1.304906 0.012,1.304906 0,0 0.1414,0.726738 0.47742,1.215514 0,0 0.526698,0.08944 1.97078,-0.05588 1.76632,-0.1767 2.41622,0.372548 3.150978,1.069424 l 0.01,-0.0016 c 0.109,0.17752 0.2257,0.350558 0.34696,0.521308 l -0.006,0.0082 c 0.35592,0.948378 0.605878,1.761398 -0.24688,3.318138 -0.69732,1.272844 -0.82132,1.793408 -0.82132,1.793408 0.31932,0.50039 0.931978,0.913562 0.931978,0.913562 0,0 0.61376,0.413968 1.196962,0.521748 0,0 0.43564,-0.308998 1.354118,-1.432916 1.12408,-1.374016 1.972142,-1.445246 2.98426,-1.472134 l 0.006,-0.0082 c 0.20422,0.04872 0.407942,0.0922 0.61336,0.1266 l 5.8e-4,0.011 c 0.92212,0.419226 1.67408,0.816956 2.17192,2.52086 0.40678,1.393062 0.68712,1.848922 0.68712,1.848922 0.57962,0.1277 1.30508,-0.0138 1.30508,-0.0138 0,0 0.72676,-0.14146 1.21522,-0.477822 0,0 0.0892,-0.526152 -0.0536,-1.970654 -0.1766,-1.766352 0.37272,-2.416466 1.06922,-3.15102 l -0.0018,-0.0082 c 0.1774,-0.10872 0.35034,-0.22596 0.52122,-0.34717 l 0.01,0.0056 c 0.94836,-0.355594 1.76128,-0.606022 3.31824,0.246878 1.27264,0.697344 1.79308,0.821526 1.79308,0.821526 0.50044,-0.319648 0.9137,-0.932304 0.9137,-0.932304 0,0 0.41396,-0.613702 0.5218,-1.197046 0,0 -0.30898,-0.43563 -1.43316,-1.354172 -1.37416,-1.123842 -1.44534,-1.97201 -1.47198,-2.984048 l -0.006,-0.0056 c 0.0486,-0.204218 0.0924,-0.407914 0.1262,-0.613234 l 0.01,-0.0016 c 0.41928,-0.921902 0.81704,-1.673932 2.52102,-2.171818 1.39318,-0.406786 1.84908,-0.687132 1.84908,-0.687132 0.1278,-0.579628 -0.014,-1.305128 -0.014,-1.305128 0,0 -0.1412,-0.726462 -0.47736,-1.215484 0,0 -0.52684,-0.08918 -1.97106,0.05586 -1.76642,0.17698 -2.41656,-0.37186 -3.15118,-1.069064 l -0.01,0.0016 c -0.109,-0.17752 -0.22512,-0.35064 -0.3475,-0.521142 l 0.006,-0.0082 c -0.35504,-0.948156 -0.60616,-1.761232 0.24688,-3.31822 0.69738,-1.272596 0.82178,-1.792996 0.82178,-1.792996 -0.31928,-0.500252 -0.93244,-0.913918 -0.93244,-0.913918 0,0 -0.61372,-0.413914 -1.19706,-0.521748 z m -1.162578,15.529666 c -1.987722,2.946912 -5.98788,3.724512 -8.93478,1.736792 -2.94688,-1.987744 -3.72444,-5.987868 -1.73674,-8.934808 1.98768,-2.946858 5.98784,-3.724456 8.93478,-1.736712 2.94692,1.987718 3.72446,5.98787 1.73674,8.934728 z M 31.728729,14.049916 c 0,0 -0.405258,0.13486 -1.37126,0.779688 -1.181318,0.788418 -1.846418,0.644968 -2.62726,0.428172 l -0.006,0.0056 c -0.144,-0.08504 -0.2904,-0.16596 -0.439578,-0.240274 l 6.6e-4,-0.0056 c -0.6072,-0.536446 -1.08956,-1.016692 -1.07174,-2.436862 0.012,-1.16088 -0.0926,-1.574794 -0.0926,-1.574794 -0.413342,-0.233668 -1.00198,-0.29565 -1.00198,-0.29565 0,0 -0.58882,-0.06192 -1.0414,0.08092 0,0 -0.1912,0.382152 -0.41834,1.520932 -0.27782,1.392788 -0.84974,1.762032 -1.55494,2.160782 l -0.0018,0.0082 c -0.1612,0.04184 -0.3207,0.09054 -0.47994,0.14366 l -0.006,-0.0056 c -0.8088,0.04982 -1.48944,0.05146 -2.481082,-0.965248 -0.81048,-0.831214 -1.17916,-1.047764 -1.17916,-1.047764 -0.45646,0.12606 -0.91634,0.498492 -0.91634,0.498492 0,0 -0.46008,0.372602 -0.67912,0.793728 0,0 0.1348,0.40574 0.7796,1.37132 0.78836,1.181274 0.64502,1.846966 0.42832,2.627482 l 0.006,0.0056 c -0.0848,0.14422 -0.1656,0.290474 -0.24056,0.4394 l -0.006,-5.78e-4 c -0.53634,0.607342 -1.01658,1.08965 -2.43668,1.072008 -1.1608,-0.0138 -1.57506,0.0933 -1.57506,0.0933 -0.23368,0.4135 -0.2955,1.001304 -0.2955,1.001304 0,0 -0.0634,0.588986 0.081,1.041596 0,0 0.38202,0.19156 1.5208,0.418236 1.3927,0.277952 1.76144,0.850176 2.16052,1.555198 l 0.006,5.78e-4 c 0.0422,0.16156 0.0908,0.320998 0.1436,0.479996 l -0.006,0.0056 c 0.0502,0.808784 0.0518,1.489282 -0.965,2.480816 -0.83118,0.810682 -1.04782,1.179954 -1.04782,1.179954 0.1274,0.45751 0.49932,0.91692 0.49932,0.91692 0,0 0.37274,0.460262 0.79376,0.67915 0,0 0.4055,-0.13458 1.37112,-0.779554 1.18136,-0.78825 1.84682,-0.644416 2.62746,-0.428226 l 0.006,-0.0056 c 0.145,0.08504 0.29044,0.16596 0.43966,0.240274 l -0.0018,0.0082 c 0.6074,0.536418 1.08964,1.016578 1.07202,2.436614 -0.012,1.160908 0.093,1.575234 0.093,1.575234 0.41356,0.233394 1.00146,0.295402 1.00146,0.295402 0,0 0.5891,0.06192 1.04146,-0.0812 0,0 0.1912,-0.381686 0.41832,-1.520658 0.27838,-1.39265 0.8504,-1.761564 1.55504,-2.160616 l -2.8e-4,-0.0082 c 0.1612,-0.04184 0.32088,-0.09082 0.48,-0.14366 l 0.006,0.0056 c 0.80876,-0.0501 1.48928,-0.05174 2.4809,0.965084 0.8105,0.831186 1.1797,1.047954 1.1797,1.047954 0.45762,-0.12744 0.91706,-0.499564 0.91706,-0.499564 0,0 0.46028,-0.372686 0.6792,-0.793756 0,0 -0.1346,-0.405574 -0.77972,-1.371236 -0.78838,-1.181276 -0.64444,-1.84683 -0.42814,-2.627318 l -0.006,-0.0056 c 0.0848,-0.14476 0.1656,-0.290528 0.24026,-0.439592 l 0.01,8.8e-4 c 0.53646,-0.607232 1.01668,-1.08954 2.43676,-1.071898 1.16102,0.0138 1.57538,-0.0933 1.57538,-0.0933 0.23338,-0.413558 0.29522,-1.001636 0.29522,-1.001636 0,0 0.063,-0.58871 -0.081,-1.041568 0,0 -0.382218,-0.19156 -1.521,-0.418346 -1.39288,-0.277842 -1.76186,-0.849736 -2.16082,-1.55495 l -0.006,-5.78e-4 c -0.0418,-0.16128 -0.0902,-0.320944 -0.1438,-0.47997 l 0.006,-0.0056 c -0.05,-0.80848 -0.052,-1.489254 0.96502,-2.48087 0.83124,-0.810516 1.0481,-1.179542 1.0481,-1.179542 -0.1272,-0.4574 -0.49964,-0.917304 -0.49964,-0.917304 0,0 -0.37268,-0.460234 -0.79376,-0.67915 z m -4.52184,11.609134 c -2.21,1.789638 -5.45218,1.448906 -7.24184,-0.761086 -1.78964,-2.210018 -1.44884,-5.452222 0.76106,-7.241884 2.20996,-1.789584 5.452202,-1.448852 7.24184,0.761168 1.78964,2.210016 1.4488,5.45222 -0.7611,7.24183 z"
     style="display:inline;fill:#929292;fill-opacity:1;stroke:none;stroke-width:2;enable-background:new"
     id="path5900"
     sodipodi:nodetypes="cccccccccccccccccccccccccccccccccccccccccccccccccccccccccccccccccccccccccccccsccccccccccccccccccccccccccccccccccccccccccccccccccccccccccccccccccccccccccccccscc" />
  <path
     id="rect2630"
     style="opacity:0.3;fill:#ffffff;fill-opacity:1"
     d="M 14,5 C 9.014005,5 5,9.014005 5,14 v 1 C 5,10.014005 9.014005,6 14,6 h 36 c 4.985995,0 9,4.014005 9,9 V 14 C 59,9.014005 54.985995,5 50,5 Z" />
  <path
     id="rect899"
     style="fill:#000000;stroke:none;opacity:0.5"
     d="M 14,4 C 8.4600055,4 4,8.4600055 4,14 v 36 c 0,5.539994 4.4600055,10 10,10 h 36 c 5.539994,0 10,-4.460006 10,-10 V 14 C 60,8.4600055 55.539994,4 50,4 Z m 0,1 h 36 c 4.985995,0 9,4.014005 9,9 v 36 c 0,4.985995 -4.014005,9 -9,9 H 14 C 9.014005,59 5,54.985995 5,50 V 14 C 5,9.014005 9.014005,5 14,5 Z" />
  <path
     id="rect398"
     style="opacity:0.3;fill:#ffffff"
     d="M 5 49 L 5 50 C 5 54.985995 9.014005 59 14 59 L 50 59 C 54.985995 59 59 54.985995 59 50 L 59 49 C 59 53.985995 54.985995 58 50 58 L 14 58 C 9.014005 58 5 53.985995 5 49 z " />
</svg>
