<?xml version="1.0" encoding="UTF-8" standalone="no"?>
<!-- Created with Inkscape (http://www.inkscape.org/) -->

<svg
   width="64"
   height="64"
   viewBox="0 0 64 64.000003"
   version="1.1"
   id="svg5"
   sodipodi:docname="baloo.svg"
   inkscape:version="1.2.1 (9c6d41e410, 2022-07-14)"
   xmlns:inkscape="http://www.inkscape.org/namespaces/inkscape"
   xmlns:sodipodi="http://sodipodi.sourceforge.net/DTD/sodipodi-0.dtd"
   xmlns:xlink="http://www.w3.org/1999/xlink"
   xmlns="http://www.w3.org/2000/svg"
   xmlns:svg="http://www.w3.org/2000/svg">
  <sodipodi:namedview
     id="namedview7"
     pagecolor="#ffffff"
     bordercolor="#666666"
     borderopacity="1.0"
     inkscape:showpageshadow="2"
     inkscape:pageopacity="0.0"
     inkscape:pagecheckerboard="0"
     inkscape:deskcolor="#d1d1d1"
     inkscape:document-units="px"
     showgrid="false"
     inkscape:zoom="14.660714"
     inkscape:cx="31.990256"
     inkscape:cy="32.024361"
     inkscape:window-width="1920"
     inkscape:window-height="1007"
     inkscape:window-x="0"
     inkscape:window-y="0"
     inkscape:window-maximized="1"
     inkscape:current-layer="svg5" />
  <defs
     id="defs2">
    <linearGradient
       inkscape:collect="always"
       xlink:href="#linearGradient1265"
       id="linearGradient3525"
       x1="50"
       y1="60"
       x2="14"
       y2="4"
       gradientUnits="userSpaceOnUse" />
    <linearGradient
       inkscape:collect="always"
       id="linearGradient1265">
      <stop
         style="stop-color:#2d7ff3;stop-opacity:1;"
         offset="0"
         id="stop1261" />
      <stop
         style="stop-color:#2cdbfa;stop-opacity:1;"
         offset="1"
         id="stop1263" />
    </linearGradient>
  </defs>
  <rect
     style="fill:url(#linearGradient3525);fill-opacity:1;stroke:none;stroke-width:1"
     id="rect184"
     width="55"
     height="55"
     x="4.5"
     y="4.5"
     ry="9.5" />
  <path
     id="path16580"
     style="opacity:0.2;fill:#000000;stroke-width:1.875;stroke-linecap:round;stroke-linejoin:round"
     d="M 26.740234 13.001953 C 26.469912 13.006553 26.198942 13.017749 25.927734 13.037109 C 22.32898 13.294927 18.943702 14.841252 16.392578 17.392578 C 10.536242 23.250164 10.536242 32.745926 16.392578 38.603516 C 21.979494 44.160752 30.914031 44.44742 36.845703 39.259766 L 48.626953 51.041016 A 1 1 0 0 0 50.041016 51.041016 A 1 1 0 0 0 50.041016 49.626953 L 38.283203 37.869141 C 43.479229 31.927853 43.182094 22.976218 37.603516 17.392578 C 34.719618 14.508564 30.795072 12.932355 26.740234 13.001953 z M 26.998047 14.998047 C 30.445649 14.998567 33.751889 16.368555 36.189453 18.806641 C 41.264943 23.883217 41.264943 32.112877 36.189453 37.189453 C 31.112877 42.264945 22.883215 42.264945 17.806641 37.189453 C 12.731149 32.112877 12.731149 23.883217 17.806641 18.806641 C 20.244205 16.368555 23.550441 14.998567 26.998047 14.998047 z M 27.140625 18 C 26.670447 19.508915 26.582464 19.435992 26.4375 21.048828 C 25.688651 21.718785 25.588298 22.481754 25.621094 23.222656 C 25.656604 24.027159 26.21277 24.55293 26.863281 24.589844 C 27.670316 24.587244 28.140376 23.792496 28.214844 23.021484 C 28.302084 22.117535 28.145672 21.529695 27.498047 21.064453 C 27.481157 19.841322 27.429499 19.549685 27.140625 18 z M 23.408203 19.521484 C 22.938026 21.0304 22.85004 20.959442 22.705078 22.572266 C 21.956227 23.242224 21.855873 24.003237 21.888672 24.744141 C 21.924182 25.54864 22.476429 26.074414 23.126953 26.111328 C 23.933988 26.108728 24.404047 25.313979 24.478516 24.542969 C 24.565746 23.639024 24.413251 23.049225 23.765625 22.583984 C 23.748735 21.360852 23.697078 21.071172 23.408203 19.521484 z M 30.667969 19.521484 C 30.379098 21.071171 30.329515 21.360851 30.3125 22.583984 C 29.66487 23.049224 29.510416 23.639025 29.597656 24.542969 C 29.672126 25.31398 30.142184 26.108756 30.949219 26.111328 C 31.599743 26.074418 32.151989 25.548641 32.1875 24.744141 C 32.22029 24.003237 32.119945 23.242224 31.371094 22.572266 C 31.226129 20.959442 31.138152 21.0304 30.667969 19.521484 z M 34.527344 22.09375 C 34.238474 23.643435 34.18694 23.933118 34.169922 25.15625 C 33.522293 25.621491 33.369792 26.211287 33.457031 27.115234 C 33.531501 27.886244 34.001555 28.681023 34.808594 28.683594 C 35.459115 28.646674 36.011364 28.120906 36.046875 27.316406 C 36.079665 26.575504 35.97933 25.81449 35.230469 25.144531 C 35.085505 23.531708 34.997527 23.602665 34.527344 22.09375 z M 19.525391 22.541016 C 19.055212 24.049932 18.967226 23.97896 18.822266 25.591797 C 18.073415 26.261754 17.973062 27.020815 18.005859 27.761719 C 18.041369 28.566219 18.595572 29.093945 19.246094 29.130859 C 20.053132 29.128259 20.523187 28.331558 20.597656 27.560547 C 20.684896 26.656599 20.528485 26.068754 19.880859 25.603516 C 19.863969 24.380384 19.814264 24.090705 19.525391 22.541016 z M 26.724609 26.53125 C 25.529013 26.55198 24.758132 27.198052 22.810547 28.773438 C 20.121302 30.418862 19.315797 31.328388 19.277344 33.740234 C 19.234784 36.406664 22.68368 37.265947 25.460938 36.083984 C 26.307534 35.723709 28.134086 35.692722 29.109375 36.121094 C 31.13593 36.776967 34.72792 36.3536 34.785156 33.433594 C 34.900323 30.986734 33.341749 30.294378 30.974609 28.773438 C 29.559236 27.397112 28.854367 26.625035 26.96875 26.533203 C 26.88478 26.529103 26.804323 26.52985 26.724609 26.53125 z " />
  <path
     d="m 27.141549,17 c -0.470178,1.508917 -0.558396,1.436752 -0.70336,3.04959 -0.74885,0.669958 -0.849209,1.431991 -0.816413,2.172894 0.03551,0.804504 0.590423,1.329627 1.240935,1.366541 0.807036,-0.0026 1.27701,-0.79649 1.351478,-1.567501 0.08724,-0.90395 -0.0683,-1.49162 -0.715926,-1.956862 C 27.481371,18.84153 27.430427,18.549688 27.141549,17 Z m -3.732861,1.522281 c -0.470178,1.508917 -0.558409,1.436762 -0.703371,3.049588 -0.748852,0.669959 -0.849198,1.432006 -0.816399,2.17291 0.03551,0.804501 0.587901,1.329627 1.238426,1.36654 0.807036,-0.0026 1.276997,-0.796493 1.351466,-1.567504 0.08723,-0.903946 -0.06579,-1.494138 -0.713417,-1.959379 -0.01689,-1.223134 -0.06783,-1.512467 -0.356705,-3.062155 z m 7.259742,0 c -0.288871,1.549688 -0.339686,1.839021 -0.356701,3.062155 -0.647631,0.465241 -0.800658,1.055433 -0.713418,1.959379 0.07447,0.771011 0.54443,1.564931 1.351466,1.567504 0.650525,-0.03691 1.202915,-0.562039 1.238426,-1.36654 0.03279,-0.740904 -0.06756,-1.502951 -0.816412,-2.17291 -0.144965,-1.612826 -0.233177,-1.540671 -0.703361,-3.049588 z m 3.858467,2.572311 c -0.28887,1.549687 -0.339686,1.83902 -0.356704,3.062154 -0.64763,0.465241 -0.800657,1.055433 -0.713418,1.959381 0.07447,0.77101 0.54443,1.56493 1.35147,1.5675 0.650522,-0.03692 1.202913,-0.562037 1.238424,-1.366538 0.03279,-0.740903 -0.06755,-1.50295 -0.816412,-2.172909 -0.144964,-1.612825 -0.233176,-1.540672 -0.70336,-3.049588 z m -15.001793,0.447142 c -0.470179,1.508918 -0.558409,1.436754 -0.70337,3.049592 -0.748851,0.669958 -0.849197,1.429484 -0.8164,2.170387 0.03551,0.804501 0.590409,1.332134 1.240931,1.369047 0.807039,-0.0026 1.277,-0.798999 1.351469,-1.570011 0.08724,-0.903949 -0.0683,-1.491617 -0.715926,-1.956857 -0.01689,-1.223133 -0.06783,-1.512468 -0.356704,-3.062158 z m 7.199448,3.98909 c -1.195598,0.02073 -1.966145,0.667849 -3.913732,2.243235 -2.689248,1.645427 -3.495951,2.554419 -3.534404,4.966268 -0.04256,2.666431 3.407333,3.525673 6.184593,2.343709 0.846597,-0.360276 2.672167,-0.390682 3.647457,0.03769 2.026557,0.655874 5.619931,0.232152 5.677167,-2.687857 0.115167,-2.446861 -1.443594,-3.138862 -3.810736,-4.659804 -1.415375,-1.376327 -2.121051,-2.148895 -4.00667,-2.240727 -0.08397,-0.0041 -0.163957,-0.0039 -0.243671,-0.0025 z"
     id="path3291"
     sodipodi:nodetypes="ccccccccccccccccccccccccccccccccccccccccccccc"
     style="fill:#ffffff;stroke-width:1.28616" />
  <path
     id="path16476"
     style="fill:#d7f2fd;stroke-width:1.875;stroke-linecap:round;stroke-linejoin:round"
     d="M 26.744141 12.001953 C 26.473818 12.006593 26.202852 12.019686 25.931641 12.039062 C 22.33288 12.29688 18.947614 13.8432 16.396484 16.394531 C 10.540136 22.252129 10.540136 31.747869 16.396484 37.605469 C 21.983411 43.162715 30.917925 43.449384 36.849609 38.261719 L 48.630859 50.042969 A 1 1 0 0 0 50.044922 50.042969 A 1 1 0 0 0 50.044922 48.628906 L 38.287109 36.871094 C 43.483146 30.929796 43.186012 21.978182 37.607422 16.394531 C 34.723517 13.510512 30.798987 11.932356 26.744141 12.001953 z M 27.001953 14 C 30.449564 14.00052 33.75579 15.370504 36.193359 17.808594 C 41.26886 22.885179 41.26886 31.114819 36.193359 36.191406 C 31.116772 41.266907 22.887132 41.266907 17.810547 36.191406 C 12.735046 31.114819 12.735046 22.885179 17.810547 17.808594 C 20.248116 15.370504 23.554341 14.00052 27.001953 14 z " />
  <path
     id="rect2630"
     style="opacity:0.3;fill:#ffffff;fill-opacity:1"
     d="M 14,5 C 9.014005,5 5,9.014005 5,14 v 1 C 5,10.014005 9.014005,6 14,6 h 36 c 4.985995,0 9,4.014005 9,9 V 14 C 59,9.014005 54.985995,5 50,5 Z" />
  <path
     id="rect899"
     style="fill:#000000;stroke:none;opacity:0.6"
     d="M 14,4 C 8.4600055,4 4,8.4600055 4,14 v 36 c 0,5.539994 4.4600055,10 10,10 h 36 c 5.539994,0 10,-4.460006 10,-10 V 14 C 60,8.4600055 55.539994,4 50,4 Z m 0,1 h 36 c 4.985995,0 9,4.014005 9,9 v 36 c 0,4.985995 -4.014005,9 -9,9 H 14 C 9.014005,59 5,54.985995 5,50 V 14 C 5,9.014005 9.014005,5 14,5 Z" />
  <path
     id="rect398"
     style="opacity:0.3;fill:#ffffff"
     d="M 5 49 L 5 50 C 5 54.985995 9.014005 59 14 59 L 50 59 C 54.985995 59 59 54.985995 59 50 L 59 49 C 59 53.985995 54.985995 58 50 58 L 14 58 C 9.014005 58 5 53.985995 5 49 z " />
</svg>
