<?xml version="1.0" encoding="UTF-8" standalone="no"?>
<!-- Created with Inkscape (http://www.inkscape.org/) -->

<svg
   width="64"
   height="64"
   viewBox="0 0 64 64.000003"
   version="1.1"
   id="svg5"
   sodipodi:docname="brave.svg"
   inkscape:version="1.2.1 (9c6d41e410, 2022-07-14)"
   xmlns:inkscape="http://www.inkscape.org/namespaces/inkscape"
   xmlns:sodipodi="http://sodipodi.sourceforge.net/DTD/sodipodi-0.dtd"
   xmlns:xlink="http://www.w3.org/1999/xlink"
   xmlns="http://www.w3.org/2000/svg"
   xmlns:svg="http://www.w3.org/2000/svg">
  <sodipodi:namedview
     id="namedview7"
     pagecolor="#ffffff"
     bordercolor="#666666"
     borderopacity="1.0"
     inkscape:showpageshadow="2"
     inkscape:pageopacity="0.0"
     inkscape:pagecheckerboard="0"
     inkscape:deskcolor="#d1d1d1"
     inkscape:document-units="px"
     showgrid="false"
     inkscape:zoom="12.375"
     inkscape:cx="32.080808"
     inkscape:cy="32"
     inkscape:window-width="1920"
     inkscape:window-height="1012"
     inkscape:window-x="0"
     inkscape:window-y="0"
     inkscape:window-maximized="1"
     inkscape:current-layer="svg5" />
  <defs
     id="defs2">
    <linearGradient
       inkscape:collect="always"
       id="linearGradient3475">
      <stop
         style="stop-color:#f16649;stop-opacity:1;"
         offset="0"
         id="stop3471" />
      <stop
         style="stop-color:#fd8862;stop-opacity:1;"
         offset="1"
         id="stop3473" />
    </linearGradient>
    <linearGradient
       inkscape:collect="always"
       xlink:href="#linearGradient3475"
       id="linearGradient3525"
       x1="50"
       y1="60"
       x2="14"
       y2="4"
       gradientUnits="userSpaceOnUse" />
  </defs>
  <rect
     style="fill:url(#linearGradient3525);fill-opacity:1.0;stroke:none"
     id="rect184"
     width="55"
     height="55"
     x="4.5"
     y="4.5"
     ry="9.5" />
  <path
     d="m 31.999072,14.31508 c -0.633642,0 -1.695804,0.276802 -4.968256,1.293084 -0.766402,0.238002 -1.541604,0.431282 -1.724124,0.431002 -0.1824,-2e-4 -1.626806,-0.2484 -3.207252,-0.552962 -1.580324,-0.3048 -2.969968,-0.555762 -3.09093,-0.555762 -0.42808,0 -5.254416,6.3791 -6.4683,8.549746 -0.507442,0.907364 -0.665602,1.810486 -0.439562,2.49541 0.203602,0.616882 0.798324,1.234604 4.511696,4.687494 1.704684,1.585126 3.13253,2.96793 3.17317,3.07393 0.1772,0.461362 0.036,1.137204 -0.490562,2.367848 -0.691642,1.612766 -0.780682,2.285568 -0.431082,3.28097 0.372802,1.061244 0.923084,1.842406 1.843286,2.62301 0.938484,0.796202 1.510806,1.071122 2.047406,0.984002 0.640682,-0.104 4.639816,-2.121486 5.299978,-2.674088 1.572286,-1.316084 3.11661,-2.84609 3.17321,-3.14201 0.032,-0.1728 -0.028,-0.475282 -0.1392,-0.674882 -0.1096,-0.1996 -1.252004,-1.272284 -2.540808,-2.382008 -2.243208,-1.931486 -2.64857,-2.379248 -2.64857,-2.93505 0,-0.1372 0.398402,-1.229564 0.887564,-2.427328 0.701442,-1.718206 0.890482,-2.309326 0.887562,-2.796048 -0.004,-0.769844 -0.2916,-1.329006 -0.884722,-1.721286 -0.2524,-0.1672 -2.066726,-0.921084 -4.032452,-1.675966 -1.965648,-0.754842 -3.710014,-1.425444 -3.873574,-1.488724 -0.1764,-0.0676 -0.2504,-0.1572 -0.1844,-0.2212 0.0616,-0.0592 1.144804,-0.202802 2.407528,-0.317602 2.70797,-0.2464 2.648848,-0.2564 5.628938,0.811002 1.848566,0.662082 2.155286,0.810202 2.311128,1.111604 0.0988,0.1912 0.1772,0.448 0.1756,0.569962 -0.0014,0.122 -0.387202,1.885566 -0.856402,3.918972 -0.803764,3.482532 -0.841084,3.707532 -0.643724,3.907694 0.244002,0.2476 2.66201,0.823562 3.845254,0.915922 1.035882,0.0808 4.354654,-0.556522 4.693134,-0.901762 0.213202,-0.217602 0.1884,-0.360002 -0.632362,-3.921854 -0.468522,-2.033406 -0.852082,-3.797012 -0.853562,-3.918972 -0.0013,-0.122 0.0776,-0.377202 0.1756,-0.567122 0.1556,-0.301202 0.482122,-0.454642 2.557808,-1.196684 l 2.376328,-0.850722 1.295964,0.032 c 1.710726,0.0432 4.066372,0.3056 4.100452,0.456562 0.016,0.0664 -1.719724,0.78844 -3.856572,1.605004 -2.136846,0.816562 -4.065212,1.613164 -4.284812,1.769526 -0.541522,0.3856 -0.812324,0.943802 -0.816684,1.687246 -0.002,0.492042 0.1864,1.086322 0.907444,2.861288 1.214124,2.98885 1.347524,2.60033 -1.843246,5.353898 -1.350004,1.164964 -2.514248,2.263888 -2.589008,2.444368 -0.220802,0.532842 0.0652,0.952682 1.616324,2.359288 1.845366,1.673244 2.205488,1.912246 4.619416,3.07401 1.107802,0.53312 2.168086,0.965602 2.356526,0.961282 0.526642,-0.012 0.874124,-0.1892 1.766686,-0.910282 0.959804,-0.775524 1.593126,-1.673766 1.967966,-2.78469 0.344802,-1.021562 0.283202,-1.489644 -0.43104,-3.18169 -0.520042,-1.231964 -0.663804,-1.935686 -0.484882,-2.401888 0.04,-0.1044 1.385124,-1.407004 2.98885,-2.895288 4.767654,-4.424696 4.939976,-4.638136 4.758374,-5.8983 -0.1296,-0.900564 -0.29,-1.204924 -1.885766,-3.570172 -1.357124,-2.011446 -4.491014,-6.118218 -4.860456,-6.3691 -0.0928,-0.0632 -1.360004,0.1228 -3.15333,0.462202 -1.648404,0.312402 -3.15333,0.570002 -3.34617,0.570002 -0.1928,0 -0.977522,-0.1956 -1.743966,-0.433882 C 33.694038,14.589722 32.631874,14.313 31.998232,14.313 Z m -0.008,26.514126 c -0.551202,0.0026 -1.109882,0.2104 -2.121166,0.626722 -1.922846,0.791842 -5.94506,2.818208 -6.10818,3.07673 -0.2036,0.3232 -0.008,0.55556 1.239244,1.468924 2.216008,1.623566 2.91981,2.184366 4.704496,3.740332 2.380526,2.075526 2.201806,2.073246 4.522974,0.0484 1.608846,-1.403604 3.41161,-2.80749 5.192256,-4.040932 0.864362,-0.598722 1.037724,-0.909084 0.694722,-1.247724 -0.332,-0.328002 -4.289334,-2.331688 -6.048578,-3.06261 -0.980964,-0.407562 -1.524606,-0.612122 -2.075768,-0.609682 z"
     style="display:inline;opacity:0.2;fill:#000000;fill-opacity:1;fill-rule:evenodd;stroke:none;stroke-width:4.00002px;stroke-linecap:butt;stroke-linejoin:miter;stroke-opacity:1;enable-background:new"
     id="path1314" />
  <path
     d="m 31.999072,13.31508 c -0.633642,0 -1.695804,0.276802 -4.968256,1.293084 -0.766402,0.238002 -1.541604,0.431282 -1.724124,0.431002 -0.1824,-2e-4 -1.626806,-0.2484 -3.207252,-0.552962 -1.580324,-0.3048 -2.969968,-0.555762 -3.09093,-0.555762 -0.42808,0 -5.254416,6.3791 -6.4683,8.549746 -0.507442,0.907364 -0.665602,1.810486 -0.439562,2.495408 0.203602,0.616882 0.798324,1.234604 4.511696,4.687496 1.704684,1.585126 3.13253,2.96793 3.17317,3.07393 0.1772,0.461362 0.036,1.137204 -0.490562,2.367848 -0.691642,1.612766 -0.780682,2.285568 -0.431082,3.28097 0.372802,1.061244 0.923084,1.842406 1.843286,2.62301 0.938484,0.796202 1.510806,1.071122 2.047408,0.984002 0.640682,-0.104 4.639814,-2.121486 5.299976,-2.674088 1.572286,-1.316084 3.11661,-2.84609 3.17321,-3.14201 0.032,-0.1728 -0.028,-0.475282 -0.1392,-0.674882 -0.1096,-0.1996 -1.252004,-1.272284 -2.540808,-2.382008 -2.243208,-1.931486 -2.648568,-2.379248 -2.648568,-2.93505 0,-0.1372 0.3984,-1.229564 0.887562,-2.427328 0.701442,-1.718206 0.890482,-2.309328 0.887562,-2.79605 -0.004,-0.769842 -0.2916,-1.329004 -0.884722,-1.721284 -0.2524,-0.1672 -2.066726,-0.921082 -4.032452,-1.675966 -1.965648,-0.754842 -3.710012,-1.425444 -3.873574,-1.488724 -0.1764,-0.0676 -0.2504,-0.1572 -0.1844,-0.2212 0.0616,-0.0592 1.144804,-0.2028 2.407528,-0.317602 2.70797,-0.2464 2.648848,-0.2564 5.628938,0.811002 1.848566,0.662082 2.155286,0.810204 2.311128,1.111604 0.0988,0.1912 0.1772,0.448002 0.1756,0.569962 -0.0014,0.122 -0.387202,1.885566 -0.856402,3.918972 -0.803764,3.482532 -0.841084,3.707532 -0.643724,3.907694 0.244002,0.2476 2.66201,0.823562 3.845254,0.915922 1.035882,0.0808 4.354654,-0.556522 4.693134,-0.901762 0.213202,-0.217602 0.1884,-0.360002 -0.632362,-3.921854 -0.468522,-2.033406 -0.852082,-3.797012 -0.853562,-3.918972 -0.0013,-0.122 0.0776,-0.377202 0.1756,-0.567122 0.1556,-0.3012 0.482122,-0.454642 2.557808,-1.196684 l 2.376328,-0.850722 1.295964,0.032 c 1.710726,0.0432 4.066372,0.305602 4.100452,0.45656 0.016,0.0664 -1.719724,0.788444 -3.856572,1.605006 -2.136846,0.816562 -4.065212,1.613164 -4.284812,1.769526 -0.541522,0.3856 -0.812324,0.943802 -0.816684,1.687244 -0.002,0.492042 0.1864,1.086324 0.907444,2.86129 1.214124,2.98885 1.347524,2.60033 -1.843246,5.353898 -1.350004,1.164964 -2.514248,2.263888 -2.589008,2.444368 -0.220802,0.532842 0.0652,0.952682 1.616324,2.359288 1.845366,1.673244 2.205488,1.912246 4.619416,3.07401 1.107802,0.53312 2.168086,0.965602 2.356526,0.961282 0.526642,-0.012 0.874124,-0.1892 1.766686,-0.910282 0.959804,-0.775524 1.593126,-1.673766 1.967966,-2.78469 0.344802,-1.021562 0.283202,-1.489644 -0.43104,-3.18169 -0.520042,-1.231964 -0.663804,-1.935686 -0.484882,-2.401888 0.04,-0.1044 1.385124,-1.407004 2.98885,-2.895288 4.767654,-4.424696 4.939976,-4.638136 4.758374,-5.8983 -0.1296,-0.900564 -0.29,-1.204924 -1.885766,-3.570172 -1.357124,-2.011446 -4.491014,-6.118218 -4.860456,-6.3691 -0.0928,-0.0632 -1.360004,0.1228 -3.15333,0.462202 -1.648404,0.312402 -3.15333,0.570002 -3.34617,0.570002 -0.1928,0 -0.977522,-0.1956 -1.743966,-0.433882 C 33.694038,13.589722 32.631874,13.313 31.998232,13.313 Z m -0.008,26.514126 c -0.551202,0.0026 -1.109882,0.2104 -2.121166,0.626722 -1.922846,0.791842 -5.94506,2.818208 -6.10818,3.07673 -0.2036,0.3232 -0.008,0.55556 1.239244,1.468924 2.216008,1.623566 2.91981,2.184366 4.704496,3.740332 2.380526,2.075526 2.201806,2.073246 4.522974,0.0484 1.608846,-1.403604 3.41161,-2.80749 5.192256,-4.040932 0.864362,-0.598722 1.037724,-0.909084 0.694722,-1.247724 -0.332,-0.328002 -4.289334,-2.331688 -6.048578,-3.06261 -0.980964,-0.407562 -1.524606,-0.612122 -2.075768,-0.609682 z"
     style="display:inline;fill:#ffffff;fill-opacity:1;fill-rule:evenodd;stroke:none;stroke-width:4.00002px;stroke-linecap:butt;stroke-linejoin:miter;stroke-opacity:1;enable-background:new"
     id="path1128"
     sodipodi:nodetypes="ccccsccccccccccccscccccccccccccccccccccsccccccccccsccccccscccccccccccscc" />
  <path
     id="rect2630"
     style="opacity:0.3;fill:#ffffff;fill-opacity:1"
     d="M 14,5 C 9.014005,5 5,9.014005 5,14 v 1 C 5,10.014005 9.014005,6 14,6 h 36 c 4.985995,0 9,4.014005 9,9 V 14 C 59,9.014005 54.985995,5 50,5 Z" />
  <path
     id="rect899"
     style="fill:#000000;stroke:none;opacity:0.6"
     d="M 14,4 C 8.4600055,4 4,8.4600055 4,14 v 36 c 0,5.539994 4.4600055,10 10,10 h 36 c 5.539994,0 10,-4.460006 10,-10 V 14 C 60,8.4600055 55.539994,4 50,4 Z m 0,1 h 36 c 4.985995,0 9,4.014005 9,9 v 36 c 0,4.985995 -4.014005,9 -9,9 H 14 C 9.014005,59 5,54.985995 5,50 V 14 C 5,9.014005 9.014005,5 14,5 Z" />
  <path
     id="rect398"
     style="opacity:0.3;fill:#ffffff"
     d="M 5 49 L 5 50 C 5 54.985995 9.014005 59 14 59 L 50 59 C 54.985995 59 59 54.985995 59 50 L 59 49 C 59 53.985995 54.985995 58 50 58 L 14 58 C 9.014005 58 5 53.985995 5 49 z " />
</svg>
