<?xml version="1.0" encoding="UTF-8" standalone="no"?>
<!-- Created with Inkscape (http://www.inkscape.org/) -->

<svg
   width="64"
   height="64"
   viewBox="0 0 64 64.000003"
   version="1.1"
   id="svg5"
   sodipodi:docname="com.system76.Popsicle.svg"
   inkscape:version="1.2.1 (9c6d41e410, 2022-07-14)"
   xmlns:inkscape="http://www.inkscape.org/namespaces/inkscape"
   xmlns:sodipodi="http://sodipodi.sourceforge.net/DTD/sodipodi-0.dtd"
   xmlns:xlink="http://www.w3.org/1999/xlink"
   xmlns="http://www.w3.org/2000/svg"
   xmlns:svg="http://www.w3.org/2000/svg">
  <sodipodi:namedview
     id="namedview7"
     pagecolor="#ffffff"
     bordercolor="#666666"
     borderopacity="1.0"
     inkscape:showpageshadow="2"
     inkscape:pageopacity="0.0"
     inkscape:pagecheckerboard="0"
     inkscape:deskcolor="#d1d1d1"
     inkscape:document-units="px"
     showgrid="false"
     inkscape:zoom="12.90625"
     inkscape:cx="32"
     inkscape:cy="32"
     inkscape:window-width="1920"
     inkscape:window-height="1012"
     inkscape:window-x="0"
     inkscape:window-y="0"
     inkscape:window-maximized="1"
     inkscape:current-layer="svg5"
     showguides="false" />
  <defs
     id="defs2">
    <linearGradient
       inkscape:collect="always"
       xlink:href="#linearGradient823"
       id="linearGradient3525"
       x1="50"
       y1="60"
       x2="14"
       y2="4"
       gradientUnits="userSpaceOnUse" />
    <linearGradient
       inkscape:collect="always"
       id="linearGradient823">
      <stop
         style="stop-color:#48b9c7;stop-opacity:1;"
         offset="0"
         id="stop819" />
      <stop
         style="stop-color:#1de9b6;stop-opacity:1;"
         offset="1"
         id="stop821" />
    </linearGradient>
  </defs>
  <rect
     style="fill:url(#linearGradient3525);fill-opacity:1;stroke:none"
     id="rect184"
     width="55"
     height="55"
     x="4.5"
     y="4.5"
     ry="9.5" />
  <path
     d="M 27.000004,13 C 24.784,13 23,14.784 23,17 v 22 c 0,2.215996 1.784,4 4.000004,4 H 37 c 2.216,0 4,-1.784004 4,-4 V 17 c 0,-2.216 -1.784,-4 -4,-4 z m -1,34 v 5.999996 H 38 V 47 Z"
     style="opacity:0.2;fill:#000000;stroke-width:4;stroke-linecap:round;stroke-linejoin:round"
     id="path1079"
     sodipodi:nodetypes="sssssssssccccc" />
  <path
     id="rect987"
     style="fill:#ffffff;stroke-width:4;stroke-linecap:round;stroke-linejoin:round"
     d="m 27.000002,12 c -2.215996,0 -4,1.784 -4,4 v 22 c 0,2.215996 1.784004,4 4,4 h 10 c 2.215996,0 4,-1.784004 4,-4 V 16 c 0,-2.216 -1.784004,-4 -4,-4 z m -1,34 v 6 h 12 v -6 z"
     sodipodi:nodetypes="sssssssssccccc" />
  <path
     id="rect2630"
     style="opacity:0.3;fill:#ffffff;fill-opacity:1"
     d="M 14,5 C 9.014005,5 5,9.014005 5,14 v 1 C 5,10.014005 9.014005,6 14,6 h 36 c 4.985995,0 9,4.014005 9,9 V 14 C 59,9.014005 54.985995,5 50,5 Z" />
  <path
     id="rect899"
     style="fill:#000000;stroke:none;opacity:0.6"
     d="M 14,4 C 8.4600055,4 4,8.4600055 4,14 v 36 c 0,5.539994 4.4600055,10 10,10 h 36 c 5.539994,0 10,-4.460006 10,-10 V 14 C 60,8.4600055 55.539994,4 50,4 Z m 0,1 h 36 c 4.985995,0 9,4.014005 9,9 v 36 c 0,4.985995 -4.014005,9 -9,9 H 14 C 9.014005,59 5,54.985995 5,50 V 14 C 5,9.014005 9.014005,5 14,5 Z" />
  <path
     id="rect398"
     style="opacity:0.3;fill:#ffffff"
     d="M 5 49 L 5 50 C 5 54.985995 9.014005 59 14 59 L 50 59 C 54.985995 59 59 54.985995 59 50 L 59 49 C 59 53.985995 54.985995 58 50 58 L 14 58 C 9.014005 58 5 53.985995 5 49 z " />
</svg>
