<?xml version="1.0" encoding="UTF-8" standalone="no"?>
<!-- Created with Inkscape (http://www.inkscape.org/) -->

<svg
   width="64"
   height="64"
   viewBox="0 0 64 64.000003"
   version="1.1"
   id="svg5"
   sodipodi:docname="cs-actions.svg"
   inkscape:version="1.3.2 (091e20ef0f, 2023-11-25, custom)"
   xmlns:inkscape="http://www.inkscape.org/namespaces/inkscape"
   xmlns:sodipodi="http://sodipodi.sourceforge.net/DTD/sodipodi-0.dtd"
   xmlns:xlink="http://www.w3.org/1999/xlink"
   xmlns="http://www.w3.org/2000/svg"
   xmlns:svg="http://www.w3.org/2000/svg">
  <sodipodi:namedview
     id="namedview7"
     pagecolor="#ffffff"
     bordercolor="#666666"
     borderopacity="1.0"
     inkscape:showpageshadow="2"
     inkscape:pageopacity="0.0"
     inkscape:pagecheckerboard="0"
     inkscape:deskcolor="#d1d1d1"
     inkscape:document-units="px"
     showgrid="false"
     inkscape:zoom="12.421875"
     inkscape:cx="31.959748"
     inkscape:cy="31.959748"
     inkscape:window-width="1920"
     inkscape:window-height="1011"
     inkscape:window-x="0"
     inkscape:window-y="0"
     inkscape:window-maximized="1"
     inkscape:current-layer="svg5" />
  <defs
     id="defs2">
    <linearGradient
       inkscape:collect="always"
       id="linearGradient22024">
      <stop
         style="stop-color:#dedede;stop-opacity:1;"
         offset="0"
         id="stop22020" />
      <stop
         style="stop-color:#f5f5f5;stop-opacity:1;"
         offset="1"
         id="stop22022" />
    </linearGradient>
    <linearGradient
       inkscape:collect="always"
       xlink:href="#linearGradient22024"
       id="linearGradient11295"
       x1="32"
       y1="60"
       x2="32"
       y2="4"
       gradientUnits="userSpaceOnUse" />
  </defs>
  <rect
     style="fill:url(#linearGradient11295);fill-opacity:1;stroke:none"
     id="rect184"
     width="55"
     height="55"
     x="4.5"
     y="4.5"
     ry="9.5" />
  <path
     id="path734"
     style="color:#000000;display:inline;overflow:visible;visibility:visible;opacity:0.5;fill:#ffffff;fill-opacity:1;fill-rule:nonzero;stroke:none;stroke-width:4;marker:none;enable-background:accumulate"
     d="M 16 15 C 13.790862 15 12 16.790862 12 19 C 12 21.209138 13.790862 23 16 23 C 18.209138 23 20 21.209138 20 19 C 20 16.790862 18.209138 15 16 15 z M 16 17 C 17.104559 17 18 17.895431 18 19 C 18 20.104569 17.104559 21 16 21 C 14.895441 21 14 20.104569 14 19 C 14 17.895431 14.895441 17 16 17 z M 26 18 L 26 20 L 52 20 L 52 18 L 26 18 z M 16 29 C 13.790862 29 12 30.79086 12 33 C 12 35.209138 13.790862 37 16 37 C 18.209139 37 20 35.209138 20 33 C 20 30.79086 18.209139 29 16 29 z M 16 31 C 17.10456 31 18 31.895429 18 33 C 18 34.104569 17.10456 35 16 35 C 14.895441 35 14 34.104569 14 33 C 14 31.895429 14.895441 31 16 31 z M 26 32 L 26 34 L 52 34 L 52 32 L 26 32 z M 16 43 C 13.790862 43 12 44.790862 12 47 C 12 49.209138 13.790862 51 16 51 C 18.209138 51 20 49.209138 20 47 C 20 44.790862 18.209138 43 16 43 z M 16 45 C 17.104559 45 18 45.895431 18 47 C 18 48.104569 17.104559 49 16 49 C 14.895441 49 14 48.104569 14 47 C 14 45.895431 14.895441 45 16 45 z M 26 46 L 26 48 L 52 48 L 52 46 L 26 46 z " />
  <path
     id="rect4137"
     style="color:#000000;display:inline;overflow:visible;visibility:visible;fill:#ababab;fill-opacity:1;fill-rule:nonzero;stroke:none;stroke-width:4;marker:none;enable-background:accumulate"
     d="M 16 14 C 13.790862 14 12 15.790862 12 18 C 12 20.209138 13.790862 22 16 22 C 18.209138 22 20 20.209138 20 18 C 20 15.790862 18.209138 14 16 14 z M 16 16 C 17.104559 16 18 16.895431 18 18 C 18 19.104569 17.104559 20 16 20 C 14.895441 20 14 19.104569 14 18 C 14 16.895431 14.895441 16 16 16 z M 26 17 L 26 19 L 52 19 L 52 17 L 26 17 z M 16 28 C 13.790862 28 12 29.790861 12 32 C 12 34.209138 13.790862 36 16 36 C 18.209138 36 20 34.209138 20 32 C 20 29.790861 18.209138 28 16 28 z M 16 30 C 17.104559 30 18 30.89543 18 32 C 18 33.104569 17.104559 34 16 34 C 14.895441 34 14 33.104569 14 32 C 14 30.89543 14.895441 30 16 30 z M 26 31 L 26 33 L 52 33 L 52 31 L 26 31 z M 16 42 C 13.790862 42 12 43.790862 12 46 C 12 48.209138 13.790862 50 16 50 C 18.209138 50 20 48.209138 20 46 C 20 43.790862 18.209138 42 16 42 z M 16 44 C 17.104559 44 18 44.895431 18 46 C 18 47.104569 17.104559 48 16 48 C 14.895441 48 14 47.104569 14 46 C 14 44.895431 14.895441 44 16 44 z M 26 45 L 26 47 L 52 47 L 52 45 L 26 45 z " />
  <path
     id="rect2630"
     style="opacity:0.3;fill:#ffffff;fill-opacity:1"
     d="M 14,5 C 9.014005,5 5,9.014005 5,14 v 1 C 5,10.014005 9.014005,6 14,6 h 36 c 4.985995,0 9,4.014005 9,9 V 14 C 59,9.014005 54.985995,5 50,5 Z" />
  <path
     id="rect899"
     style="fill:#000000;stroke:none;opacity:0.5"
     d="M 14,4 C 8.4600055,4 4,8.4600055 4,14 v 36 c 0,5.539994 4.4600055,10 10,10 h 36 c 5.539994,0 10,-4.460006 10,-10 V 14 C 60,8.4600055 55.539994,4 50,4 Z m 0,1 h 36 c 4.985995,0 9,4.014005 9,9 v 36 c 0,4.985995 -4.014005,9 -9,9 H 14 C 9.014005,59 5,54.985995 5,50 V 14 C 5,9.014005 9.014005,5 14,5 Z" />
  <path
     id="rect398"
     style="opacity:0.3;fill:#ffffff"
     d="M 5 49 L 5 50 C 5 54.985995 9.014005 59 14 59 L 50 59 C 54.985995 59 59 54.985995 59 50 L 59 49 C 59 53.985995 54.985995 58 50 58 L 14 58 C 9.014005 58 5 53.985995 5 49 z " />
</svg>
