<?xml version="1.0" encoding="UTF-8" standalone="no"?>
<!-- Created with Inkscape (http://www.inkscape.org/) -->

<svg
   width="64"
   height="64"
   viewBox="0 0 64 64.000003"
   version="1.1"
   id="svg5"
   sodipodi:docname="preferences-devices-printer.svg"
   inkscape:version="1.2.1 (9c6d41e410, 2022-07-14)"
   xmlns:inkscape="http://www.inkscape.org/namespaces/inkscape"
   xmlns:sodipodi="http://sodipodi.sourceforge.net/DTD/sodipodi-0.dtd"
   xmlns:xlink="http://www.w3.org/1999/xlink"
   xmlns="http://www.w3.org/2000/svg"
   xmlns:svg="http://www.w3.org/2000/svg">
  <sodipodi:namedview
     id="namedview7"
     pagecolor="#ffffff"
     bordercolor="#666666"
     borderopacity="1.0"
     inkscape:showpageshadow="2"
     inkscape:pageopacity="0.0"
     inkscape:pagecheckerboard="0"
     inkscape:deskcolor="#d1d1d1"
     inkscape:document-units="px"
     showgrid="false"
     inkscape:zoom="14.660714"
     inkscape:cx="31.205847"
     inkscape:cy="32.024361"
     inkscape:window-width="1920"
     inkscape:window-height="1007"
     inkscape:window-x="0"
     inkscape:window-y="0"
     inkscape:window-maximized="1"
     inkscape:current-layer="svg5"
     showguides="false" />
  <defs
     id="defs2">
    <linearGradient
       inkscape:collect="always"
       xlink:href="#linearGradient6078"
       id="linearGradient6610"
       x1="32"
       y1="60"
       x2="32"
       y2="4"
       gradientUnits="userSpaceOnUse" />
    <linearGradient
       inkscape:collect="always"
       id="linearGradient6078">
      <stop
         style="stop-color:#999999;stop-opacity:1"
         offset="0"
         id="stop6074" />
      <stop
         style="stop-color:#d2d2d2;stop-opacity:1;"
         offset="1"
         id="stop6076" />
    </linearGradient>
  </defs>
  <rect
     style="fill:url(#linearGradient6610);fill-opacity:1.0;stroke:none"
     id="rect184"
     width="55"
     height="55"
     x="4.5"
     y="4.5"
     ry="9.5" />
  <path
     d="m 15,24 c -1.108,0 -2,0.892002 -2,2 v 10.000001 c 0,1.107998 0.892,2 2,2 h 2 v -2 h 30 v 2 h 2 c 1.107998,0 2,-0.892002 2,-2 V 26 c 0,-1.107998 -0.892002,-2 -2,-2 z m 2,5 h 2 v 2 h -2 z m 2,-15 v 8 h 26 v -8 z m 0,24.000001 v 14 h 26 v -14 z"
     style="fill:#ffffff;fill-opacity:1;stroke-linecap:round;stroke-linejoin:round;opacity:0.2"
     id="path26946" />
  <path
     id="rect5611"
     style="fill:#ffffff;stroke-width:2;stroke-linecap:round;stroke-linejoin:round"
     d="m 19,13 v 8 h 26 v -8 z m 0,24 V 51 H 45 V 37 Z"
     sodipodi:nodetypes="cccccccccc" />
  <rect
     style="fill:#f9f9f9;fill-opacity:1;stroke-linecap:round;stroke-linejoin:round"
     id="rect16571"
     width="2"
     height="2"
     x="17"
     y="28" />
  <path
     id="rect16511"
     style="fill:#4d4d4d;fill-opacity:1;stroke-linecap:round;stroke-linejoin:round"
     d="m 15,23 c -1.108,0 -2,0.892002 -2,2 v 10 c 0,1.107998 0.892,2 2,2 h 2 v -2 h 30 v 2 h 2 c 1.107998,0 2,-0.892002 2,-2 V 25 c 0,-1.107998 -0.892002,-2 -2,-2 z m 2,5 h 2 v 2 h -2 z"
     sodipodi:nodetypes="sssccccccssssccccc" />
  <path
     id="rect2630"
     style="opacity:0.3;fill:#ffffff;fill-opacity:1"
     d="M 14,5 C 9.014005,5 5,9.014005 5,14 v 1 C 5,10.014005 9.014005,6 14,6 h 36 c 4.985995,0 9,4.014005 9,9 V 14 C 59,9.014005 54.985995,5 50,5 Z" />
  <path
     id="rect899"
     style="fill:#000000;stroke:none;opacity:0.5"
     d="M 14,4 C 8.4600055,4 4,8.4600055 4,14 v 36 c 0,5.539994 4.4600055,10 10,10 h 36 c 5.539994,0 10,-4.460006 10,-10 V 14 C 60,8.4600055 55.539994,4 50,4 Z m 0,1 h 36 c 4.985995,0 9,4.014005 9,9 v 36 c 0,4.985995 -4.014005,9 -9,9 H 14 C 9.014005,59 5,54.985995 5,50 V 14 C 5,9.014005 9.014005,5 14,5 Z" />
  <path
     id="rect398"
     style="opacity:0.3;fill:#ffffff"
     d="M 5 49 L 5 50 C 5 54.985995 9.014005 59 14 59 L 50 59 C 54.985995 59 59 54.985995 59 50 L 59 49 C 59 53.985995 54.985995 58 50 58 L 14 58 C 9.014005 58 5 53.985995 5 49 z " />
</svg>
