<?xml version="1.0" encoding="UTF-8" standalone="no"?>
<!-- Created with Inkscape (http://www.inkscape.org/) -->

<svg
   width="64"
   height="64"
   viewBox="0 0 64 64.000003"
   version="1.1"
   id="svg5"
   sodipodi:docname="desktop-environment-xfce.svg"
   inkscape:version="1.3.2 (091e20ef0f, 2023-11-25, custom)"
   xmlns:inkscape="http://www.inkscape.org/namespaces/inkscape"
   xmlns:sodipodi="http://sodipodi.sourceforge.net/DTD/sodipodi-0.dtd"
   xmlns:xlink="http://www.w3.org/1999/xlink"
   xmlns="http://www.w3.org/2000/svg"
   xmlns:svg="http://www.w3.org/2000/svg">
  <sodipodi:namedview
     id="namedview7"
     pagecolor="#ffffff"
     bordercolor="#666666"
     borderopacity="1.0"
     inkscape:showpageshadow="2"
     inkscape:pageopacity="0.0"
     inkscape:pagecheckerboard="0"
     inkscape:deskcolor="#d1d1d1"
     inkscape:document-units="px"
     showgrid="false"
     inkscape:zoom="12.625"
     inkscape:cx="32"
     inkscape:cy="32"
     inkscape:window-width="1920"
     inkscape:window-height="1011"
     inkscape:window-x="0"
     inkscape:window-y="0"
     inkscape:window-maximized="1"
     inkscape:current-layer="svg5" />
  <defs
     id="defs2">
    <linearGradient
       inkscape:collect="always"
       xlink:href="#linearGradient3"
       id="linearGradient3525"
       x1="50"
       y1="60"
       x2="14"
       y2="4"
       gradientUnits="userSpaceOnUse" />
    <linearGradient
       inkscape:collect="always"
       id="linearGradient3">
      <stop
         style="stop-color:#3c7cbd;stop-opacity:1;"
         offset="0"
         id="stop2" />
      <stop
         style="stop-color:#79a8d7;stop-opacity:1;"
         offset="1"
         id="stop3" />
    </linearGradient>
  </defs>
  <rect
     style="fill:url(#linearGradient3525);fill-opacity:1.0;stroke:none"
     id="rect184"
     width="55"
     height="55"
     x="4.5"
     y="4.5"
     ry="9.5" />
  <path
     id="path2"
     style="opacity:0.2;fill:#000000;stroke-width:4"
     d="M 32,13 A 20,20 0 0 0 12,33 20,20 0 0 0 32,53 20,20 0 0 0 52,33 20,20 0 0 0 32,13 Z m -3.375,7.125 c 0.1564,-0.008 0.32,-0.0044 0.5,0.0236 0.3004,0.168 1.778344,-0.0376 2.164064,4.140624 0.1024,0.70324 0.24788,2.31136 0.28908,3.02344 0.0804,0.616036 6.7751,0.36528 12.710936,4.25 0.692276,0.41656 3.513432,3.15264 0.648436,5.523436 -1.17564,1.18404 -10.69228,6.108 -11.25,6.5 C 33.5307,48.072612 38.808672,48.96776 32,49 23.162768,49 16,41.837272 16,33 c 0.57108,-0.42224 2.3462,-0.06456 3.25,-0.22656 1.298838,-0.3056 1.817902,-2.541596 1.914062,-4.273436 -0.0028,-0.77132 -0.55582,-3.16014 -0.5625,-3.6875 -0.04,-1.83564 1.716058,-2.641104 2.210938,-2.539064 0.5166,0.132 1.584384,0.3528 3.4375,4.890628 0.3108,0.57768 0.28052,0.33716 1.164064,0.421872 -0.92124,-3.046556 -1.13646,-7.325296 1.210936,-7.460936 z m 14.164064,4.078124 c 0.0056,-0.004 0.0148,-1.88e-4 0.0236,0.0076 0.232,0.2244 0.04312,4.460908 -0.710936,5.265624 -0.0428,0.0456 -0.26364,-4.14348 0.671872,-5.25 0.01,-0.012 0.01,-0.0196 0.0156,-0.0236 z m 3.0625,0.820312 c 0.0692,0.1196 0.14492,0.22996 0.21092,0.35156 -0.45224,1.45296 -2.478716,4.806064 -2.523436,4.539064 -0.1324,-1.21396 1.60718,-4.061104 2.3125,-4.890624 z M 33,30.414064 c -0.6376,0 -1.171876,0.543416 -1.171876,1.210936 0,0.6674 0.54974,1.25 1.1875,1.25 0.63776,0 1.125,-0.5826 1.125,-1.25 0,-0.66752 -0.502824,-1.210936 -1.140624,-1.210936 z M 30.414064,31.5625 c -0.2832,-0.016 -0.27564,2.19928 0.75,2.773436 1.060236,0.4992 2.6148,-0.33016 2.35156,-0.35936 -2.288836,-0.254 -2.689304,-1.32496 -3.03906,-2.375 -0.02,-0.024 -0.04372,-0.038 -0.06252,-0.0392 z m 6.359372,5.242188 c -0.04216,0.0017 -0.088,0.0068 -0.1328,0.008 -1.347596,0.0456 -4.443204,1.945316 -4.203124,2.148436 0.362,0.3064 5.007244,-2.027076 4.453124,-2.148436 -0.0364,-0.008 -0.07504,-0.0096 -0.1172,-0.008 z m 0.6875,1.523436 c -0.0356,-0.0016 -0.07376,-1.88e-4 -0.10936,0.0076 -1.069156,0.2412 -3.138556,2.67184 -2.898436,2.875 0.362,0.3064 3.597096,-2.83752 3.109376,-2.875 -0.0308,-0.0014 -0.06608,-0.006 -0.10156,-0.0076 z" />
  <path
     id="path2-6"
     style="fill:#ffffff;stroke-width:4"
     d="M 32,12 A 20,20 0 0 0 12,32 20,20 0 0 0 32,52 20,20 0 0 0 52,32 20,20 0 0 0 32,12 Z m -3.375,7.125 c 0.1564,-0.008 0.32,-0.0046 0.5,0.02344 0.3004,0.168 1.778344,-0.03752 2.164064,4.140624 0.1024,0.70324 0.24788,2.31136 0.28908,3.02344 0.0804,0.616036 6.7751,0.36528 12.710936,4.25 0.692276,0.41656 3.513432,3.15264 0.648436,5.523436 -1.17564,1.18404 -10.69228,6.108 -11.25,6.5 C 33.5307,47.072612 38.808672,47.96776 32,48 23.162768,48 16,40.837272 16,32 16.57108,31.57776 18.3462,31.93544 19.25,31.773436 20.548838,31.46784 21.067902,29.23184 21.164062,27.5 c -0.0028,-0.77132 -0.55582,-3.16014 -0.5625,-3.6875 -0.04,-1.83564 1.716058,-2.641104 2.210938,-2.539064 0.5166,0.132 1.584384,0.3528 3.4375,4.890628 0.3108,0.57768 0.28052,0.33716 1.164064,0.421872 C 26.492824,23.53938 26.277604,19.26064 28.625,19.125 Z m 14.164064,4.078124 c 0.0056,-0.004 0.0148,-1.88e-4 0.0236,0.0076 0.232,0.2244 0.04312,4.460908 -0.710936,5.265624 -0.0428,0.0456 -0.26364,-4.14348 0.671872,-5.25 0.01,-0.012 0.01,-0.0196 0.0156,-0.0236 z m 3.0625,0.820312 c 0.0692,0.1196 0.14492,0.22996 0.21092,0.35156 -0.45224,1.45296 -2.478716,4.806064 -2.523436,4.539064 -0.1324,-1.21396 1.60718,-4.061104 2.3125,-4.890624 z M 33,29.414064 c -0.6376,0 -1.171876,0.543416 -1.171876,1.210936 0,0.6674 0.54974,1.25 1.1875,1.25 0.63776,0 1.125,-0.5826 1.125,-1.25 0,-0.66752 -0.502824,-1.210936 -1.140624,-1.210936 z M 30.414064,30.5625 c -0.2832,-0.016 -0.27564,2.19928 0.75,2.773436 1.060236,0.4992 2.6148,-0.33016 2.35156,-0.35936 -2.288836,-0.254 -2.689304,-1.32496 -3.03906,-2.375 -0.02,-0.024 -0.04372,-0.038 -0.06252,-0.0392 z m 6.359372,5.242188 c -0.04216,0.0017 -0.088,0.0068 -0.1328,0.008 -1.347596,0.0456 -4.443204,1.945316 -4.203124,2.148436 0.362,0.3064 5.007244,-2.027076 4.453124,-2.148436 -0.0364,-0.008 -0.07504,-0.0096 -0.1172,-0.008 z m 0.6875,1.523436 c -0.0356,-0.0016 -0.07376,-1.88e-4 -0.10936,0.0076 -1.069156,0.2412 -3.138556,2.67184 -2.898436,2.875 0.362,0.3064 3.597096,-2.83752 3.109376,-2.875 -0.0308,-0.0014 -0.06608,-0.006 -0.10156,-0.0076 z" />
  <path
     id="rect2630"
     style="opacity:0.2;fill:#ffffff;fill-opacity:1"
     d="M 14,5 C 9.014005,5 5,9.014005 5,14 v 1 C 5,10.014005 9.014005,6 14,6 h 36 c 4.985995,0 9,4.014005 9,9 V 14 C 59,9.014005 54.985995,5 50,5 Z" />
  <path
     id="rect899"
     style="fill:#000000;stroke:none;opacity:0.6"
     d="M 14,4 C 8.4600055,4 4,8.4600055 4,14 v 36 c 0,5.539994 4.4600055,10 10,10 h 36 c 5.539994,0 10,-4.460006 10,-10 V 14 C 60,8.4600055 55.539994,4 50,4 Z m 0,1 h 36 c 4.985995,0 9,4.014005 9,9 v 36 c 0,4.985995 -4.014005,9 -9,9 H 14 C 9.014005,59 5,54.985995 5,50 V 14 C 5,9.014005 9.014005,5 14,5 Z" />
  <path
     id="rect398"
     style="opacity:0.2;fill:#ffffff"
     d="M 5 49 L 5 50 C 5 54.985995 9.014005 59 14 59 L 50 59 C 54.985995 59 59 54.985995 59 50 L 59 49 C 59 53.985995 54.985995 58 50 58 L 14 58 C 9.014005 58 5 53.985995 5 49 z " />
</svg>
