<?xml version="1.0" encoding="UTF-8" standalone="no"?>
<!-- Created with Inkscape (http://www.inkscape.org/) -->

<svg
   width="64"
   height="64"
   viewBox="0 0 64 64.000003"
   version="1.1"
   id="svg5"
   sodipodi:docname="desktop-environment-gnome.svg"
   inkscape:version="1.2 (dc2aedaf03, 2022-05-15)"
   xmlns:inkscape="http://www.inkscape.org/namespaces/inkscape"
   xmlns:sodipodi="http://sodipodi.sourceforge.net/DTD/sodipodi-0.dtd"
   xmlns:xlink="http://www.w3.org/1999/xlink"
   xmlns="http://www.w3.org/2000/svg"
   xmlns:svg="http://www.w3.org/2000/svg">
  <sodipodi:namedview
     id="namedview7"
     pagecolor="#ffffff"
     bordercolor="#666666"
     borderopacity="1.0"
     inkscape:showpageshadow="2"
     inkscape:pageopacity="0.0"
     inkscape:pagecheckerboard="0"
     inkscape:deskcolor="#d1d1d1"
     inkscape:document-units="px"
     showgrid="false"
     inkscape:zoom="8.9935144"
     inkscape:cx="20.292401"
     inkscape:cy="21.126335"
     inkscape:window-width="1920"
     inkscape:window-height="1007"
     inkscape:window-x="0"
     inkscape:window-y="0"
     inkscape:window-maximized="1"
     inkscape:current-layer="svg5"
     showguides="false" />
  <defs
     id="defs2">
    <linearGradient
       inkscape:collect="always"
       xlink:href="#linearGradient3030"
       id="linearGradient3525"
       x1="50"
       y1="60"
       x2="14"
       y2="4"
       gradientUnits="userSpaceOnUse" />
    <linearGradient
       inkscape:collect="always"
       id="linearGradient3030">
      <stop
         style="stop-color:#4a86cf;stop-opacity:1;"
         offset="0"
         id="stop3026" />
      <stop
         style="stop-color:#70b7df;stop-opacity:1;"
         offset="1"
         id="stop3028" />
    </linearGradient>
  </defs>
  <rect
     style="fill:url(#linearGradient3525);fill-opacity:1.0;stroke:none"
     id="rect184"
     width="55"
     height="55"
     x="4.5"
     y="4.5"
     ry="9.5" />
  <path
     id="rect2630"
     style="opacity:0.3;fill:#ffffff;fill-opacity:1"
     d="M 14,5 C 9.014005,5 5,9.014005 5,14 v 1 C 5,10.014005 9.014005,6 14,6 h 36 c 4.985995,0 9,4.014005 9,9 V 14 C 59,9.014005 54.985995,5 50,5 Z" />
  <path
     id="rect899"
     style="fill:#000000;stroke:none;opacity:0.6"
     d="M 14,4 C 8.4600055,4 4,8.4600055 4,14 v 36 c 0,5.539994 4.4600055,10 10,10 h 36 c 5.539994,0 10,-4.460006 10,-10 V 14 C 60,8.4600055 55.539994,4 50,4 Z m 0,1 h 36 c 4.985995,0 9,4.014005 9,9 v 36 c 0,4.985995 -4.014005,9 -9,9 H 14 C 9.014005,59 5,54.985995 5,50 V 14 C 5,9.014005 9.014005,5 14,5 Z" />
  <path
     id="rect398"
     style="opacity:0.3;fill:#ffffff"
     d="M 5 49 L 5 50 C 5 54.985995 9.014005 59 14 59 L 50 59 C 54.985995 59 59 54.985995 59 50 L 59 49 C 59 53.985995 54.985995 58 50 58 L 14 58 C 9.014005 58 5 53.985995 5 49 z " />
  <path
     id="path7698"
     style="opacity:0.2;fill:#000000;stroke-width:3.5"
     d="m 46.336448,11 c -8.885679,0 -10.551425,13 -5.552735,13 4.997969,0 14.438776,-13 5.552735,-13 z m -13.650391,2 c -0.143399,-5.08e-4 -0.294254,0.01 -0.453125,0.03125 -5.082035,0.680428 -3.295856,9.796407 -0.589844,9.966797 2.620384,0.165068 5.488329,-9.98229 1.042969,-9.998047 z m -9.294922,2.001953 c -0.113577,-0.0057 -0.229883,-0.0021 -0.351563,0.0098 -0.259581,0.02533 -0.53863,0.09225 -0.835937,0.205078 -4.757774,1.805742 -0.721982,9.26075 1.943359,8.759765 2.422621,-0.454279 2.765028,-8.799158 -0.755859,-8.974609 z M 16.783713,22 c -0.424689,-0.01134 -0.886012,0.100148 -1.375,0.369141 -3.910129,2.152237 1.318627,7.353223 3.619141,6.546875 C 21.040808,28.210157 19.756544,22.079701 16.783713,22 Z m 18.578125,4 C 28.619202,25.880207 19.724388,29.434524 18.207541,36.568359 16.564741,44.288402 24.970668,55 33.740744,55 38.055171,55 43.032373,50.608564 43.963401,45.425781 44.303331,43.536424 42.195407,42.851239 39.93801,43 37.473381,43.162417 34.830235,44.306931 35.00051,45.671875 35.266898,47.808331 34.496097,48.96522 32.959494,49 30.861574,48.744789 29.276512,47.782198 29.00051,45.945312 28.624798,41.121825 44.115115,37.684336 42.916526,30.205078 42.478142,27.469546 39.40742,26.071878 35.361838,26 Z" />
  <path
     id="path7665"
     style="fill:#ffffff;stroke-width:3.5"
     d="m 46.336448,10 c -8.885679,0 -10.551425,13 -5.552735,13 4.997969,0 14.438776,-13 5.552735,-13 z m -13.650391,2 c -0.143399,-5.08e-4 -0.294254,0.01 -0.453125,0.03125 -5.082035,0.680428 -3.295856,9.796407 -0.589844,9.966797 2.620384,0.165068 5.488329,-9.98229 1.042969,-9.998047 z m -9.294922,2.001953 c -0.113577,-0.0057 -0.229883,-0.0021 -0.351563,0.0098 -0.259581,0.02533 -0.53863,0.09225 -0.835937,0.205078 -4.757774,1.805742 -0.721982,9.26075 1.943359,8.759765 2.422621,-0.454279 2.765028,-8.799158 -0.755859,-8.974609 z M 16.783713,21 c -0.424689,-0.01134 -0.886012,0.100148 -1.375,0.369141 -3.910129,2.152237 1.318627,7.353223 3.619141,6.546875 C 21.040808,27.210157 19.756544,21.079701 16.783713,21 Z m 18.578125,4 C 28.619202,24.880207 19.724388,28.434524 18.207541,35.568359 16.564741,43.288402 24.970668,54 33.740744,54 38.055171,54 43.032373,49.608564 43.963401,44.425781 44.303331,42.536424 42.195407,41.851239 39.93801,42 37.473381,42.162417 34.830235,43.306931 35.00051,44.671875 35.266898,46.808331 34.496097,47.96522 32.959494,48 30.861574,47.744789 29.276512,46.782198 29.00051,44.945312 28.624798,40.121825 44.115115,36.684336 42.916526,29.205078 42.478142,26.469546 39.40742,25.071878 35.361838,25 Z" />
</svg>
