<?xml version="1.0" encoding="UTF-8" standalone="no"?>
<!-- Created with Inkscape (http://www.inkscape.org/) -->

<svg
   width="64"
   height="64"
   viewBox="0 0 64 64.000003"
   version="1.1"
   id="svg5"
   sodipodi:docname="desktop-environment-kde.svg"
   inkscape:version="1.2 (dc2aedaf03, 2022-05-15)"
   xmlns:inkscape="http://www.inkscape.org/namespaces/inkscape"
   xmlns:sodipodi="http://sodipodi.sourceforge.net/DTD/sodipodi-0.dtd"
   xmlns:xlink="http://www.w3.org/1999/xlink"
   xmlns="http://www.w3.org/2000/svg"
   xmlns:svg="http://www.w3.org/2000/svg">
  <sodipodi:namedview
     id="namedview7"
     pagecolor="#ffffff"
     bordercolor="#666666"
     borderopacity="1.0"
     inkscape:showpageshadow="2"
     inkscape:pageopacity="0.0"
     inkscape:pagecheckerboard="0"
     inkscape:deskcolor="#d1d1d1"
     inkscape:document-units="px"
     showgrid="false"
     inkscape:zoom="12.71875"
     inkscape:cx="31.960688"
     inkscape:cy="32"
     inkscape:window-width="1920"
     inkscape:window-height="1007"
     inkscape:window-x="0"
     inkscape:window-y="0"
     inkscape:window-maximized="1"
     inkscape:current-layer="svg5" />
  <defs
     id="defs2">
    <linearGradient
       inkscape:collect="always"
       id="linearGradient1090">
      <stop
         style="stop-color:#3daee9;stop-opacity:1;"
         offset="0"
         id="stop1086" />
      <stop
         style="stop-color:#53c5f2;stop-opacity:1;"
         offset="1"
         id="stop1088" />
    </linearGradient>
    <linearGradient
       inkscape:collect="always"
       xlink:href="#linearGradient1090"
       id="linearGradient3525"
       x1="50"
       y1="60"
       x2="14"
       y2="4"
       gradientUnits="userSpaceOnUse" />
  </defs>
  <rect
     style="fill:url(#linearGradient3525);fill-opacity:1.0;stroke:none"
     id="rect184"
     width="55"
     height="55"
     x="4.5"
     y="4.5"
     ry="9.5" />
  <path
     d="m 36,12 -8,1.210938 v 28.937501 l 8,-2.148438 V 28.820312 l 8,13.179689 8,-3 L 42,27 52.003906,14.003906 44.242188,12 36,25.117188 Z m -16.289062,7.847656 c -0.189184,0 -0.378371,0.07368 -0.523438,0.21875 l -3.144531,3.144532 c -0.290135,0.290134 -0.220288,0.704614 0,1.05078 l 3.253906,5.109376 c -0.241085,0.500442 -0.449846,1.01582 -0.625,1.542968 -0.0077,0.02268 -0.01978,0.04368 -0.02734,0.0664 l -5.902344,1.3125 C 12.341647,32.381992 12,32.624846 12,33.035157 v 1.964844 1.964844 c 0,0.41031 0.341647,0.65318 0.742188,0.742188 l 5.902343,1.3125 c 0.01292,0.0388 0.03357,0.07462 0.04687,0.11328 0.17049,0.512084 0.372704,1.013054 0.605469,1.5 l -3.253906,5.10547 c -0.220288,0.346166 -0.290135,0.760646 0,1.05078 l 3.144532,3.144532 c 0.290135,0.290134 0.756735,0.290134 1.046876,0 l 5.101562,-3.25 c 0.501518,0.243898 1.01821,0.455272 1.546874,0.632812 0.0347,0.0122 0.06678,0.03108 0.10156,0.04296 l 1.308592,5.898436 c 0,0.410312 0.33188,0.742188 0.742188,0.742188 h 4.441406 c 0.41031,0 0.65318,-0.341648 0.742188,-0.742188 l 1.308594,-6.078124 c 0.601208,-0.226026 1.184836,-0.496298 1.746094,-0.808594 l 4.980468,3.5625 c 0.290136,0.290134 0.756742,0.290134 1.046876,0 l 3.14453,-3.144532 c 0.290136,-0.290134 0.220288,-0.704614 0,-1.05078 l -1.89453,-2.875 -0.19922,0.07422 c -0.450502,0.16922 -0.95765,-0.0064 -1.20703,-0.417968 l -1.99218,-3.281242 C 39.492472,43.208673 35.572478,46.000001 31,46.000001 c -6.075132,0 -11,-4.924868 -11,-11 0,-4.661841 2.905598,-8.636701 7,-10.238283 v -2.191406 l -0.0156,0.07032 c -0.04416,0.015 -0.0849,0.03914 -0.1289,0.05468 -0.52165,0.17324 -1.03179,0.379376 -1.527344,0.617188 l -5.09378,-3.246094 c -0.145072,-0.145067 -0.334254,-0.21875 -0.523438,-0.21875 z"
     style="fill:#000000;opacity:0.2"
     id="path277" />
  <path
     d="m 36,11 -8,1.210938 v 28.9375 L 36,39 V 27.820312 L 44,41 52,38 42,26 52.003906,13.003906 44.242188,11 36,24.117188 Z m -16.289062,7.847656 c -0.189184,0 -0.378371,0.07368 -0.523438,0.21875 l -3.144531,3.144532 c -0.290135,0.290134 -0.220288,0.704614 0,1.05078 l 3.253906,5.109376 c -0.241085,0.500442 -0.449846,1.01582 -0.625,1.542968 -0.0077,0.02268 -0.01978,0.04368 -0.02734,0.0664 l -5.902344,1.3125 C 12.341647,31.381992 12,31.624846 12,32.035156 V 34 35.964844 c 0,0.41031 0.341647,0.65318 0.742188,0.742188 l 5.902343,1.3125 c 0.01292,0.0388 0.03357,0.07462 0.04687,0.11328 0.17049,0.512084 0.372704,1.013054 0.605469,1.5 l -3.253906,5.10547 c -0.220288,0.346166 -0.290135,0.760646 0,1.05078 l 3.144532,3.144532 c 0.290135,0.290134 0.756735,0.290134 1.046876,0 l 5.101562,-3.25 c 0.501518,0.243898 1.01821,0.455272 1.546874,0.632812 0.0347,0.0122 0.06678,0.03108 0.10156,0.04296 l 1.308592,5.898436 c 0,0.410312 0.33188,0.742188 0.742188,0.742188 h 4.441406 c 0.41031,0 0.65318,-0.341648 0.742188,-0.742188 l 1.308594,-6.078124 c 0.601208,-0.226026 1.184836,-0.496298 1.746094,-0.808594 l 4.980468,3.5625 c 0.290136,0.290134 0.756742,0.290134 1.046876,0 l 3.14453,-3.144532 c 0.290136,-0.290134 0.220288,-0.704614 0,-1.05078 l -1.89453,-2.875 -0.19922,0.07422 c -0.450502,0.16922 -0.95765,-0.0064 -1.20703,-0.417968 l -1.99218,-3.281242 C 39.492472,42.208672 35.572478,45 31,45 24.924868,45 20,40.075132 20,34 c 0,-4.66184 2.905598,-8.6367 7,-10.238282 v -2.191406 l -0.0156,0.07032 c -0.04416,0.015 -0.0849,0.03914 -0.1289,0.05468 -0.52165,0.17324 -1.03179,0.379376 -1.527344,0.617188 l -5.09378,-3.246094 c -0.145072,-0.145067 -0.334254,-0.21875 -0.523438,-0.21875 z"
     style="fill:#ffffff"
     id="path244"
     sodipodi:nodetypes="ccccccccccccscccccccscscccccsscccccssccccsccccccssccccccs" />
  <path
     id="rect2630"
     style="opacity:0.3;fill:#ffffff;fill-opacity:1"
     d="M 14,5 C 9.014005,5 5,9.014005 5,14 v 1 C 5,10.014005 9.014005,6 14,6 h 36 c 4.985995,0 9,4.014005 9,9 V 14 C 59,9.014005 54.985995,5 50,5 Z" />
  <path
     id="rect899"
     style="fill:#000000;stroke:none;opacity:0.6"
     d="M 14,4 C 8.4600055,4 4,8.4600055 4,14 v 36 c 0,5.539994 4.4600055,10 10,10 h 36 c 5.539994,0 10,-4.460006 10,-10 V 14 C 60,8.4600055 55.539994,4 50,4 Z m 0,1 h 36 c 4.985995,0 9,4.014005 9,9 v 36 c 0,4.985995 -4.014005,9 -9,9 H 14 C 9.014005,59 5,54.985995 5,50 V 14 C 5,9.014005 9.014005,5 14,5 Z" />
  <path
     id="rect398"
     style="opacity:0.3;fill:#ffffff"
     d="M 5 49 L 5 50 C 5 54.985995 9.014005 59 14 59 L 50 59 C 54.985995 59 59 54.985995 59 50 L 59 49 C 59 53.985995 54.985995 58 50 58 L 14 58 C 9.014005 58 5 53.985995 5 49 z " />
</svg>
