<?xml version="1.0" encoding="UTF-8" standalone="no"?>
<!-- Created with Inkscape (http://www.inkscape.org/) -->

<svg
   width="64"
   height="64"
   viewBox="0 0 64 64.000003"
   version="1.1"
   id="svg5"
   sodipodi:docname="discord.svg"
   inkscape:version="1.2 (dc2aedaf03, 2022-05-15)"
   xmlns:inkscape="http://www.inkscape.org/namespaces/inkscape"
   xmlns:sodipodi="http://sodipodi.sourceforge.net/DTD/sodipodi-0.dtd"
   xmlns:xlink="http://www.w3.org/1999/xlink"
   xmlns="http://www.w3.org/2000/svg"
   xmlns:svg="http://www.w3.org/2000/svg">
  <sodipodi:namedview
     id="namedview7"
     pagecolor="#ffffff"
     bordercolor="#666666"
     borderopacity="1.0"
     inkscape:showpageshadow="2"
     inkscape:pageopacity="0.0"
     inkscape:pagecheckerboard="0"
     inkscape:deskcolor="#d1d1d1"
     inkscape:document-units="px"
     showgrid="false"
     inkscape:zoom="12.125"
     inkscape:cx="32.041237"
     inkscape:cy="32"
     inkscape:window-width="1920"
     inkscape:window-height="991"
     inkscape:window-x="0"
     inkscape:window-y="0"
     inkscape:window-maximized="1"
     inkscape:current-layer="svg5" />
  <defs
     id="defs2">
    <linearGradient
       inkscape:collect="always"
       id="linearGradient1316">
      <stop
         style="stop-color:#5865f2;stop-opacity:1;"
         offset="0"
         id="stop1312" />
      <stop
         style="stop-color:#558af5;stop-opacity:1;"
         offset="1"
         id="stop1314" />
    </linearGradient>
    <linearGradient
       inkscape:collect="always"
       xlink:href="#linearGradient1316"
       id="linearGradient3525"
       x1="50"
       y1="60"
       x2="14"
       y2="4"
       gradientUnits="userSpaceOnUse" />
  </defs>
  <rect
     style="fill:url(#linearGradient3525);fill-opacity:1.0;stroke:none"
     id="rect184"
     width="55"
     height="55"
     x="4.5"
     y="4.5"
     ry="9.5" />
  <path
     d="m 25.98625,17.000388 0.37704,0.45289 c -6.78658,1.92284 -9.87795,4.9014 -9.87795,4.9014 0,0 0.82888,-0.45272 2.22392,-1.05598 4.03422,-1.77207 7.23943,-2.22406 8.55904,-2.37486 0.22622,-0.0378 0.41444,-0.0759 0.64066,-0.0759 2.29989,-0.30163 4.90185,-0.37674 7.61648,-0.075 3.58181,0.41474 7.42739,1.47043 11.34852,3.5818 0,0 -2.97871,-2.8276 -9.38824,-4.75045 l 0.52798,-0.60384 c 0,0 5.16535,-0.11297 10.55688,3.92127 0,0 5.42942,9.76542 5.42942,21.792721 0,-0.0376 -3.16707,5.39155 -11.49945,5.65548 0,0 -1.35793,-1.62124 -2.48901,-3.01624 4.9391,-1.39502 6.82485,-4.44929 6.82485,-4.44929 -1.54583,1.018 -3.01625,1.7345 -4.33584,2.22467 -1.88517,0.79174 -3.69493,1.28218 -5.46697,1.62151 -3.6195,0.67866 -6.93752,0.48956 -9.76528,-0.0383 -2.14907,-0.41473 -3.99697,-0.97984 -5.5428,-1.6208 -0.86719,-0.33933 -1.8093,-0.75421 -2.7519,-1.28205 -0.11296,-0.0754 -0.22637,-0.11297 -0.33946,-0.18852 -0.0753,-0.0376 -0.11315,-0.0752 -0.15092,-0.0752 -0.67865,-0.37702 -1.05525,-0.64141 -1.05525,-0.64141 0,0 1.80975,2.97902 6.59805,4.41172 -1.13111,1.43272 -2.52657,3.09137 -2.52657,3.09137 C 13.16707,48.143439 10,42.714309 10,42.714309 c 0,-12.027301 5.4294,-21.792721 5.4294,-21.792721 5.42926,-4.03424 10.55688,-3.92127 10.55688,-3.92127 z m -1.01769,13.91262 c -2.14908,0 -3.84618,1.847441 -3.84618,4.147351 0,2.29988 1.73479,4.14735 3.84618,4.14735 2.14909,0 3.84542,-1.84747 3.84542,-4.14735 0.0376,-2.29991 -1.69633,-4.147351 -3.84542,-4.147351 z m 13.76166,0 c -2.14908,0 -3.84619,1.847441 -3.84619,4.147351 0,2.29988 1.7348,4.14735 3.84619,4.14735 2.14906,0 3.84542,-1.84747 3.84542,-4.14735 0,-2.29991 -1.73406,-4.147351 -3.84542,-4.147351 z"
     style="display:inline;opacity:0.2;fill:#000000;enable-background:new"
     id="path678" />
  <path
     d="m 25.98625,16.000388 0.37704,0.45289 c -6.78658,1.92284 -9.87795,4.9014 -9.87795,4.9014 0,0 0.82888,-0.45272 2.22392,-1.05598 4.03422,-1.77207 7.23943,-2.22406 8.55904,-2.37486 0.22622,-0.0378 0.41444,-0.0759 0.64066,-0.0759 2.29989,-0.30163 4.90185,-0.37674 7.61648,-0.075 3.58181,0.41474 7.42739,1.47043 11.34852,3.5818 0,0 -2.97871,-2.8276 -9.38824,-4.75045 l 0.52798,-0.60384 c 0,0 5.16535,-0.11297 10.55688,3.92127 0,0 5.42942,9.76542 5.42942,21.79272 0,-0.0376 -3.16707,5.39155 -11.49945,5.65548 0,0 -1.35793,-1.62124 -2.48901,-3.01624 4.9391,-1.39502 6.82485,-4.44929 6.82485,-4.44929 -1.54583,1.018 -3.01625,1.7345 -4.33584,2.22467 -1.88517,0.79174 -3.69493,1.28218 -5.46697,1.62151 -3.6195,0.67866 -6.93752,0.48956 -9.76528,-0.0383 -2.14907,-0.41473 -3.99697,-0.97984 -5.5428,-1.6208 -0.86719,-0.33933 -1.8093,-0.75421 -2.7519,-1.28205 -0.11296,-0.0754 -0.22637,-0.11297 -0.33946,-0.18852 -0.0753,-0.0376 -0.11315,-0.0752 -0.15092,-0.0752 -0.67865,-0.37702 -1.05525,-0.64141 -1.05525,-0.64141 0,0 1.80975,2.97902 6.59805,4.41172 -1.13111,1.43272 -2.52657,3.09137 -2.52657,3.09137 C 13.16707,47.143438 10,41.714308 10,41.714308 c 0,-12.0273 5.4294,-21.79272 5.4294,-21.79272 5.42926,-4.03424 10.55688,-3.92127 10.55688,-3.92127 z m -1.01769,13.91262 c -2.14908,0 -3.84618,1.84744 -3.84618,4.14735 0,2.29988 1.73479,4.14735 3.84618,4.14735 2.14909,0 3.84542,-1.84747 3.84542,-4.14735 0.0376,-2.29991 -1.69633,-4.14735 -3.84542,-4.14735 z m 13.76166,0 c -2.14908,0 -3.84619,1.84744 -3.84619,4.14735 0,2.29988 1.7348,4.14735 3.84619,4.14735 2.14906,0 3.84542,-1.84747 3.84542,-4.14735 0,-2.29991 -1.73406,-4.14735 -3.84542,-4.14735 z"
     style="display:inline;fill:#ffffff;enable-background:new"
     id="path492"
     sodipodi:nodetypes="cccccccccccccccccccccccccccccssscssssss" />
  <path
     id="rect2630"
     style="opacity:0.3;fill:#ffffff;fill-opacity:1"
     d="M 14,5 C 9.014005,5 5,9.014005 5,14 v 1 C 5,10.014005 9.014005,6 14,6 h 36 c 4.985995,0 9,4.014005 9,9 V 14 C 59,9.014005 54.985995,5 50,5 Z" />
  <path
     id="rect899"
     style="fill:#000000;stroke:none;opacity:0.6"
     d="M 14,4 C 8.4600055,4 4,8.4600055 4,14 v 36 c 0,5.539994 4.4600055,10 10,10 h 36 c 5.539994,0 10,-4.460006 10,-10 V 14 C 60,8.4600055 55.539994,4 50,4 Z m 0,1 h 36 c 4.985995,0 9,4.014005 9,9 v 36 c 0,4.985995 -4.014005,9 -9,9 H 14 C 9.014005,59 5,54.985995 5,50 V 14 C 5,9.014005 9.014005,5 14,5 Z" />
  <path
     id="rect398"
     style="opacity:0.3;fill:#ffffff"
     d="M 5 49 L 5 50 C 5 54.985995 9.014005 59 14 59 L 50 59 C 54.985995 59 59 54.985995 59 50 L 59 49 C 59 53.985995 54.985995 58 50 58 L 14 58 C 9.014005 58 5 53.985995 5 49 z " />
</svg>
