<?xml version="1.0" encoding="UTF-8" standalone="no"?>
<!-- Created with Inkscape (http://www.inkscape.org/) -->

<svg
   width="64"
   height="64"
   viewBox="0 0 64 64.000003"
   version="1.1"
   id="svg5"
   sodipodi:docname="disk-burner.svg"
   inkscape:version="1.2.1 (9c6d41e410, 2022-07-14)"
   xmlns:inkscape="http://www.inkscape.org/namespaces/inkscape"
   xmlns:sodipodi="http://sodipodi.sourceforge.net/DTD/sodipodi-0.dtd"
   xmlns:xlink="http://www.w3.org/1999/xlink"
   xmlns="http://www.w3.org/2000/svg"
   xmlns:svg="http://www.w3.org/2000/svg">
  <sodipodi:namedview
     id="namedview7"
     pagecolor="#ffffff"
     bordercolor="#666666"
     borderopacity="1.0"
     inkscape:showpageshadow="2"
     inkscape:pageopacity="0.0"
     inkscape:pagecheckerboard="0"
     inkscape:deskcolor="#d1d1d1"
     inkscape:document-units="px"
     showgrid="false"
     inkscape:zoom="12.375"
     inkscape:cx="31.959596"
     inkscape:cy="32"
     inkscape:window-width="1920"
     inkscape:window-height="1007"
     inkscape:window-x="0"
     inkscape:window-y="0"
     inkscape:window-maximized="1"
     inkscape:current-layer="svg5" />
  <defs
     id="defs2">
    <linearGradient
       inkscape:collect="always"
       id="linearGradient4853">
      <stop
         style="stop-color:#ff5840;stop-opacity:1;"
         offset="0"
         id="stop4849" />
      <stop
         style="stop-color:#fda36d;stop-opacity:1;"
         offset="1"
         id="stop4851" />
    </linearGradient>
    <linearGradient
       inkscape:collect="always"
       xlink:href="#linearGradient4853"
       id="linearGradient3525"
       x1="50"
       y1="60"
       x2="14"
       y2="4"
       gradientUnits="userSpaceOnUse" />
  </defs>
  <rect
     style="fill:url(#linearGradient3525);fill-opacity:1.0;stroke:none"
     id="rect184"
     width="55"
     height="55"
     x="4.5"
     y="4.5"
     ry="9.5" />
  <path
     d="m 32,15 c -9.941104,0 -18,8.058896 -18,18.000001 0,9.941104 8.058896,18 18,18 9.941104,0 18,-8.058896 18,-18 C 50,23.058896 41.941104,15 32,15 Z m 0,11 c 3.865985,0 7,3.134015 7,7.000001 0,3.865985 -3.134015,7 -7,7 -3.865985,0 -7,-3.134015 -7,-7 C 25,29.134015 28.134015,26 32,26 Z m 0,2 c -2.761417,0 -5,2.238583 -5,5.000001 0,2.761417 2.238583,5 5,5 2.761417,0 5,-2.238583 5,-5 C 37,30.238583 34.761417,28 32,28 Z m 0,1 c 2.209134,0 4,1.790866 4,4.000001 0,2.209134 -1.790866,4 -4,4 -2.209134,0 -4,-1.790866 -4,-4 C 28,30.790866 29.790866,29 32,29 Z"
     style="fill:#000000;fill-opacity:1;stroke-width:1.19999;stroke-linejoin:round;opacity:0.2"
     id="path8495" />
  <path
     id="path4048"
     style="fill:#ffffff;fill-opacity:1;stroke-width:1.19999;stroke-linejoin:round"
     d="m 32,14 c -9.941104,0 -18,8.058896 -18,18 0,9.941104 8.058896,18 18,18 9.941104,0 18,-8.058896 18,-18 0,-9.941104 -8.058896,-18 -18,-18 z m 0,11 c 3.865985,0 7,3.134015 7,7 0,3.865985 -3.134015,7 -7,7 -3.865985,0 -7,-3.134015 -7,-7 0,-3.865985 3.134015,-7 7,-7 z m 0,2 c -2.761417,0 -5,2.238583 -5,5 0,2.761417 2.238583,5 5,5 2.761417,0 5,-2.238583 5,-5 0,-2.761417 -2.238583,-5 -5,-5 z m 0,1 c 2.209134,0 4,1.790866 4,4 0,2.209134 -1.790866,4 -4,4 -2.209134,0 -4,-1.790866 -4,-4 0,-2.209134 1.790866,-4 4,-4 z"
     sodipodi:nodetypes="ssssssssssssssssssss" />
  <path
     id="rect2630"
     style="opacity:0.3;fill:#ffffff;fill-opacity:1"
     d="M 14,5 C 9.014005,5 5,9.014005 5,14 v 1 C 5,10.014005 9.014005,6 14,6 h 36 c 4.985995,0 9,4.014005 9,9 V 14 C 59,9.014005 54.985995,5 50,5 Z" />
  <path
     id="rect899"
     style="fill:#000000;stroke:none;opacity:0.6"
     d="M 14,4 C 8.4600055,4 4,8.4600055 4,14 v 36 c 0,5.539994 4.4600055,10 10,10 h 36 c 5.539994,0 10,-4.460006 10,-10 V 14 C 60,8.4600055 55.539994,4 50,4 Z m 0,1 h 36 c 4.985995,0 9,4.014005 9,9 v 36 c 0,4.985995 -4.014005,9 -9,9 H 14 C 9.014005,59 5,54.985995 5,50 V 14 C 5,9.014005 9.014005,5 14,5 Z" />
  <path
     id="rect398"
     style="opacity:0.3;fill:#ffffff"
     d="M 5 49 L 5 50 C 5 54.985995 9.014005 59 14 59 L 50 59 C 54.985995 59 59 54.985995 59 50 L 59 49 C 59 53.985995 54.985995 58 50 58 L 14 58 C 9.014005 58 5 53.985995 5 49 z " />
</svg>
