<?xml version="1.0" encoding="UTF-8" standalone="no"?>
<!-- Created with Inkscape (http://www.inkscape.org/) -->

<svg
   width="64"
   height="64"
   viewBox="0 0 64 64.000003"
   version="1.1"
   id="svg5"
   sodipodi:docname="display.im6.svg"
   inkscape:version="1.2.1 (9c6d41e410, 2022-07-14)"
   xmlns:inkscape="http://www.inkscape.org/namespaces/inkscape"
   xmlns:sodipodi="http://sodipodi.sourceforge.net/DTD/sodipodi-0.dtd"
   xmlns:xlink="http://www.w3.org/1999/xlink"
   xmlns="http://www.w3.org/2000/svg"
   xmlns:svg="http://www.w3.org/2000/svg">
  <sodipodi:namedview
     id="namedview7"
     pagecolor="#ffffff"
     bordercolor="#666666"
     borderopacity="1.0"
     inkscape:showpageshadow="2"
     inkscape:pageopacity="0.0"
     inkscape:pagecheckerboard="0"
     inkscape:deskcolor="#d1d1d1"
     inkscape:document-units="px"
     showgrid="false"
     inkscape:zoom="14.107143"
     inkscape:cx="32.005063"
     inkscape:cy="31.96962"
     inkscape:window-width="1920"
     inkscape:window-height="1002"
     inkscape:window-x="0"
     inkscape:window-y="0"
     inkscape:window-maximized="1"
     inkscape:current-layer="svg5" />
  <defs
     id="defs2">
    <linearGradient
       inkscape:collect="always"
       id="linearGradient1440">
      <stop
         style="stop-color:#273894;stop-opacity:1;"
         offset="0"
         id="stop1436" />
      <stop
         style="stop-color:#5068c3;stop-opacity:1;"
         offset="1"
         id="stop1438" />
    </linearGradient>
    <linearGradient
       inkscape:collect="always"
       xlink:href="#linearGradient1440"
       id="linearGradient3525"
       x1="50"
       y1="60"
       x2="14"
       y2="4"
       gradientUnits="userSpaceOnUse" />
  </defs>
  <rect
     style="fill:url(#linearGradient3525);fill-opacity:1.0;stroke:none"
     id="rect184"
     width="55"
     height="55"
     x="4.5"
     y="4.5"
     ry="9.5" />
  <path
     id="path5452"
     style="fill:#000000;opacity:0.2"
     d="M 40.074219 14 C 38.728275 13.991473 37.212764 14.105888 35.447266 14.25 L 35.449219 14.242188 C 31.824222 14.747387 27.928762 16.653021 24.759766 22.291016 C 17.515073 35.174004 18.029899 39.658423 16.875 41.107422 C 15.716002 42.55042 12.593322 43.333611 13.044922 44.974609 C 13.812731 46.513508 14.078125 46.683594 14.078125 46.683594 C 14.078125 46.683594 18.513301 53.533892 31.742188 51.683594 C 44.969174 49.833196 46.803593 46.817012 46.683594 45.320312 C 46.563744 43.822014 43.773437 42.730469 43.773438 42.730469 C 43.773438 42.730469 41.705729 34.861057 42.236328 31.630859 C 42.766878 28.399063 44.783293 23.68938 46.775391 22.675781 C 48.761689 21.652682 49.755804 26.099252 50.783203 25.001953 C 51.805201 23.903954 49.079951 17.430951 45.751953 15.501953 C 44.088205 14.371204 42.317459 14.014212 40.074219 14 z M 34.324219 25 L 35.589844 28.623047 L 38.947266 29.996094 L 36.359375 32.361328 L 36.302734 36.201172 L 33.554688 34.1875 L 29.880859 35.542969 L 30.912109 31.820312 L 28.996094 28.386719 L 32.480469 28.175781 L 34.324219 25 z M 25.65625 32.490234 L 26.511719 36.265625 L 29.6875 38.119141 L 26.859375 40.087891 L 26.378906 43.884766 L 23.882812 41.496094 L 20.085938 42.306641 L 21.515625 38.765625 L 20 35.080078 L 23.478516 35.378906 L 25.65625 32.490234 z M 32.685547 34.890625 L 34.828125 37.912109 L 38.388672 38.087891 L 36.533203 41.222656 L 37.472656 44.908203 L 34.330078 43.923828 L 31.173828 46.464844 L 31.195312 42.560547 L 28.474609 39.933594 L 31.748047 38.554688 L 32.685547 34.890625 z " />
  <path
     id="path316"
     style="fill:#ffffff"
     d="M 40.074219 13 C 38.728275 12.991473 37.212764 13.105888 35.447266 13.25 L 35.449219 13.242188 C 31.824222 13.747387 27.928762 15.653021 24.759766 21.291016 C 17.515073 34.174003 18.029899 38.65647 16.875 40.105469 C 15.716002 41.548467 12.593322 42.331658 13.044922 43.972656 C 13.812731 45.511555 14.078125 45.683594 14.078125 45.683594 C 14.078125 45.683594 18.513301 52.533892 31.742188 50.683594 C 44.969174 48.833196 46.803593 45.817011 46.683594 44.320312 C 46.563744 42.822014 43.773437 41.730469 43.773438 41.730469 C 43.773438 41.730469 41.705729 33.861056 42.236328 30.630859 C 42.766878 27.399063 44.783293 22.68938 46.775391 21.675781 C 48.761689 20.652682 49.755804 25.099252 50.783203 24.001953 C 51.805201 22.903954 49.079951 16.428998 45.751953 14.5 C 44.088205 13.369251 42.317459 13.014212 40.074219 13 z M 34.324219 24 L 35.589844 27.623047 L 38.947266 28.996094 L 36.359375 31.361328 L 36.302734 35.201172 L 33.554688 33.1875 L 29.880859 34.542969 L 30.912109 30.820312 L 28.996094 27.386719 L 32.480469 27.175781 L 34.324219 24 z M 25.65625 31.490234 L 26.511719 35.265625 L 29.6875 37.119141 L 26.859375 39.087891 L 26.378906 42.884766 L 23.882812 40.496094 L 20.085938 41.306641 L 21.515625 37.765625 L 20 34.080078 L 23.478516 34.378906 L 25.65625 31.490234 z M 32.685547 33.890625 L 34.828125 36.912109 L 38.388672 37.087891 L 36.533203 40.222656 L 37.472656 43.908203 L 34.330078 42.923828 L 31.173828 45.464844 L 31.195312 41.560547 L 28.474609 38.933594 L 31.748047 37.554688 L 32.685547 33.890625 z " />
  <path
     id="rect2630"
     style="opacity:0.3;fill:#ffffff;fill-opacity:1"
     d="M 14,5 C 9.014005,5 5,9.014005 5,14 v 1 C 5,10.014005 9.014005,6 14,6 h 36 c 4.985995,0 9,4.014005 9,9 V 14 C 59,9.014005 54.985995,5 50,5 Z" />
  <path
     id="rect899"
     style="fill:#000000;stroke:none;opacity:0.6"
     d="M 14,4 C 8.4600055,4 4,8.4600055 4,14 v 36 c 0,5.539994 4.4600055,10 10,10 h 36 c 5.539994,0 10,-4.460006 10,-10 V 14 C 60,8.4600055 55.539994,4 50,4 Z m 0,1 h 36 c 4.985995,0 9,4.014005 9,9 v 36 c 0,4.985995 -4.014005,9 -9,9 H 14 C 9.014005,59 5,54.985995 5,50 V 14 C 5,9.014005 9.014005,5 14,5 Z" />
  <path
     id="rect398"
     style="opacity:0.3;fill:#ffffff"
     d="M 5 49 L 5 50 C 5 54.985995 9.014005 59 14 59 L 50 59 C 54.985995 59 59 54.985995 59 50 L 59 49 C 59 53.985995 54.985995 58 50 58 L 14 58 C 9.014005 58 5 53.985995 5 49 z " />
</svg>
