<?xml version="1.0" encoding="UTF-8" standalone="no"?>
<!-- Created with Inkscape (http://www.inkscape.org/) -->

<svg
   width="64"
   height="64"
   viewBox="0 0 64 64.000003"
   version="1.1"
   id="svg5"
   sodipodi:docname="dolphin-emu.svg"
   inkscape:version="1.2 (1:1.2+202206011326+fc4e4096c5)"
   xmlns:inkscape="http://www.inkscape.org/namespaces/inkscape"
   xmlns:sodipodi="http://sodipodi.sourceforge.net/DTD/sodipodi-0.dtd"
   xmlns:xlink="http://www.w3.org/1999/xlink"
   xmlns="http://www.w3.org/2000/svg"
   xmlns:svg="http://www.w3.org/2000/svg">
  <sodipodi:namedview
     id="namedview7"
     pagecolor="#ffffff"
     bordercolor="#666666"
     borderopacity="1.0"
     inkscape:showpageshadow="2"
     inkscape:pageopacity="0.0"
     inkscape:pagecheckerboard="0"
     inkscape:deskcolor="#d1d1d1"
     inkscape:document-units="px"
     showgrid="false"
     inkscape:zoom="13"
     inkscape:cx="29.269231"
     inkscape:cy="32"
     inkscape:window-width="1846"
     inkscape:window-height="1053"
     inkscape:window-x="0"
     inkscape:window-y="0"
     inkscape:window-maximized="1"
     inkscape:current-layer="svg5" />
  <defs
     id="defs2">
    <linearGradient
       inkscape:collect="always"
       id="linearGradient1744">
      <stop
         style="stop-color:#0096f4;stop-opacity:1;"
         offset="0"
         id="stop1740" />
      <stop
         style="stop-color:#3cbff1;stop-opacity:1;"
         offset="1"
         id="stop1742" />
    </linearGradient>
    <linearGradient
       inkscape:collect="always"
       xlink:href="#linearGradient1744"
       id="linearGradient3525"
       x1="50"
       y1="60"
       x2="14"
       y2="4"
       gradientUnits="userSpaceOnUse" />
  </defs>
  <rect
     style="fill:url(#linearGradient3525);fill-opacity:1.0;stroke:none"
     id="rect184"
     width="55"
     height="55"
     x="4.5"
     y="4.5"
     ry="9.5" />
  <path
     d="m 39.345751,21.987666 c -2.330592,0.148466 -4.424132,1.512939 -4.815807,1.704935 -1.254894,-0.358395 -2.685914,-1.106928 -4.360643,-1.391083 -5.792843,-0.983026 -10.695073,0.58572 -13.155202,2.293216 -3.22453,2.237923 -3.135444,4.750784 -3.401166,5.793816 -0.163833,0.646134 -1.630186,1.840101 -1.612779,2.678235 0.02867,1.094132 0.712693,1.44638 0.712693,1.44638 0.615417,-0.04853 1.532908,-0.486391 2.317281,-0.809973 1.164272,-0.481271 1.254381,-0.738804 4.43642,-1.213422 1.463786,-0.220166 3.004376,-0.281599 4.15175,-0.291832 0.445435,0.94258 1.55646,2.882011 3.479504,3.81128 1.141235,0.525304 2.859483,0.759796 3.618766,0.909809 l 2.221027,0.327665 v -0.898546 h -0.0029 c 0,0 -1.863655,-0.773109 -3.010519,-1.919461 -0.486395,-0.486394 -0.486395,-1.062898 -0.622074,-1.640426 1.766888,0.332799 3.341268,0.584695 7.067297,2.011621 3.431891,1.314284 5.775536,3.222995 5.77825,3.225555 l 0.0029,0.0029 0.0057,0.0057 v -0.89855 l -0.0083,-0.0057 c -0.03133,-0.0387 -2.435039,-3.019733 -6.478553,-5.013948 -3.341781,-1.648105 -6.086625,-2.463198 -9.888071,-2.647514 -3.947978,-0.189433 -6.572505,0.266232 -6.857994,0.317432 0.337915,-0.67276 1.024498,-1.838568 2.865626,-2.702301 2.727898,-1.279471 7.016558,-1.493483 11.941521,-0.235532 6.957881,1.775078 9.330817,5.097403 12.323773,8.220919 3.183571,3.322321 5.934102,8.905042 5.937275,8.911545 l 0.0029,0.0057 0.0057,0.014 v -0.904183 l -0.025,-0.07167 c -0.133133,-0.445435 -0.960499,-3.135445 -2.357729,-5.7141 -1.841128,-3.397074 -3.424721,-5.825764 -6.062815,-8.292086 -1.840618,-1.372653 -3.712976,-3.241941 -3.392981,-4.048327 0.828406,-1.089522 3.075033,-1.756139 3.083222,-1.757672 h 0.0057 v -0.0029 -0.895476 c 0,0 -1.42027,-0.481274 -3.903435,-0.322565 z m 2.787291,16.026203 c 0,0 0.02233,0.01967 0,0 z"
     style="fill:#000000;stroke-width:0.999969;opacity:0.2"
     id="path1104" />
  <path
     d="m 39.345752,20.987666 c -2.330592,0.148466 -4.424132,1.512939 -4.815807,1.704935 -1.254894,-0.358395 -2.685914,-1.106928 -4.360643,-1.391083 -5.792843,-0.983026 -10.695073,0.58572 -13.155202,2.293216 -3.224531,2.237923 -3.135445,4.750784 -3.401167,5.793816 -0.163833,0.646134 -1.630186,1.840101 -1.612779,2.678234 0.02867,1.094132 0.712693,1.44638 0.712693,1.44638 0.615417,-0.04853 1.532909,-0.486391 2.317282,-0.809973 1.164272,-0.481271 1.254381,-0.738803 4.43642,-1.213421 1.463786,-0.220166 3.004376,-0.281599 4.15175,-0.291832 0.445435,0.942579 1.55646,2.88201 3.479504,3.811279 1.141235,0.525304 2.859483,0.759796 3.618766,0.909809 l 2.221027,0.327665 v -0.898546 h -0.0029 c 0,0 -1.863655,-0.773109 -3.010519,-1.919461 -0.486395,-0.486394 -0.486395,-1.062898 -0.622074,-1.640425 1.766888,0.332798 3.341268,0.584694 7.067297,2.01162 3.431891,1.314284 5.775536,3.222995 5.77825,3.225555 l 0.0029,0.0029 0.0057,0.0057 v -0.89855 l -0.0083,-0.0057 c -0.03133,-0.0387 -2.435039,-3.019733 -6.478553,-5.013947 -3.341781,-1.648105 -6.086625,-2.463198 -9.888071,-2.647514 -3.947978,-0.189433 -6.572505,0.266232 -6.857994,0.317432 0.337915,-0.67276 1.024498,-1.838568 2.865626,-2.702301 2.727898,-1.279471 7.016558,-1.493483 11.941521,-0.235532 6.957881,1.775078 9.330817,5.097403 12.323773,8.220918 3.183571,3.322321 5.934102,8.905042 5.937275,8.911545 l 0.0029,0.0057 0.0057,0.014 v -0.904183 l -0.025,-0.07167 c -0.133133,-0.445435 -0.960499,-3.135445 -2.357729,-5.7141 -1.841128,-3.397074 -3.424721,-5.825763 -6.062815,-8.292085 -1.840618,-1.372653 -3.712976,-3.241941 -3.392981,-4.048327 0.828406,-1.089522 3.075033,-1.756139 3.083222,-1.757672 h 0.0057 v -0.0029 -0.895476 c 0,0 -1.42027,-0.481274 -3.903435,-0.322565 z m 2.787291,16.026202 c 0,0 0.02233,0.01967 0,0 z"
     style="fill:#ffffff;stroke-width:0.999969"
     id="path358"
     sodipodi:nodetypes="cccccccccccccccccsccccccccccccccccccccccccccc" />
  <path
     id="rect2630"
     style="opacity:0.3;fill:#ffffff;fill-opacity:1"
     d="M 14,5 C 9.014005,5 5,9.014005 5,14 v 1 C 5,10.014005 9.014005,6 14,6 h 36 c 4.985995,0 9,4.014005 9,9 V 14 C 59,9.014005 54.985995,5 50,5 Z" />
  <path
     id="rect899"
     style="fill:#000000;stroke:none;opacity:0.6"
     d="M 14,4 C 8.4600055,4 4,8.4600055 4,14 v 36 c 0,5.539994 4.4600055,10 10,10 h 36 c 5.539994,0 10,-4.460006 10,-10 V 14 C 60,8.4600055 55.539994,4 50,4 Z m 0,1 h 36 c 4.985995,0 9,4.014005 9,9 v 36 c 0,4.985995 -4.014005,9 -9,9 H 14 C 9.014005,59 5,54.985995 5,50 V 14 C 5,9.014005 9.014005,5 14,5 Z" />
  <path
     id="rect398"
     style="opacity:0.3;fill:#ffffff"
     d="M 5 49 L 5 50 C 5 54.985995 9.014005 59 14 59 L 50 59 C 54.985995 59 59 54.985995 59 50 L 59 49 C 59 53.985995 54.985995 58 50 58 L 14 58 C 9.014005 58 5 53.985995 5 49 z " />
</svg>
