<?xml version="1.0" encoding="UTF-8" standalone="no"?>
<!-- Created with Inkscape (http://www.inkscape.org/) -->

<svg
   width="64"
   height="64"
   viewBox="0 0 64 64.000003"
   version="1.1"
   id="svg5"
   sodipodi:docname="emacs.svg"
   inkscape:version="1.2.1 (9c6d41e410, 2022-07-14)"
   xmlns:inkscape="http://www.inkscape.org/namespaces/inkscape"
   xmlns:sodipodi="http://sodipodi.sourceforge.net/DTD/sodipodi-0.dtd"
   xmlns:xlink="http://www.w3.org/1999/xlink"
   xmlns="http://www.w3.org/2000/svg"
   xmlns:svg="http://www.w3.org/2000/svg">
  <sodipodi:namedview
     id="namedview7"
     pagecolor="#ffffff"
     bordercolor="#666666"
     borderopacity="1.0"
     inkscape:showpageshadow="2"
     inkscape:pageopacity="0.0"
     inkscape:pagecheckerboard="0"
     inkscape:deskcolor="#d1d1d1"
     inkscape:document-units="px"
     showgrid="false"
     inkscape:zoom="12.859375"
     inkscape:cx="31.961118"
     inkscape:cy="32"
     inkscape:window-width="1920"
     inkscape:window-height="1009"
     inkscape:window-x="0"
     inkscape:window-y="0"
     inkscape:window-maximized="1"
     inkscape:current-layer="svg5" />
  <defs
     id="defs2">
    <linearGradient
       inkscape:collect="always"
       xlink:href="#linearGradient1312"
       id="linearGradient6610"
       x1="32"
       y1="60"
       x2="32"
       y2="4"
       gradientUnits="userSpaceOnUse" />
    <linearGradient
       inkscape:collect="always"
       id="linearGradient1312">
      <stop
         style="stop-color:#9d4dcd;stop-opacity:1;"
         offset="0"
         id="stop1308" />
      <stop
         style="stop-color:#b589df;stop-opacity:1;"
         offset="1"
         id="stop1310" />
    </linearGradient>
  </defs>
  <rect
     style="fill:url(#linearGradient6610);fill-opacity:1.0;stroke:none"
     id="rect184"
     width="55"
     height="55"
     x="4.5"
     y="4.5"
     ry="9.5" />
  <path
     d="m 18.923571,50.295415 c 0,0 2.265188,0.657727 5.280233,1.033754 1.221092,0.152296 5.867113,0.684496 9.429349,0.670563 0,0 4.338268,0.004 6.733079,-0.335283 2.505851,-0.355969 3.925341,-0.810231 4.715306,-1.716814 0.02069,-0.216132 0.381347,-0.920768 -0.592705,-1.600199 -2.491075,-1.739528 -5.70836,-2.212411 -11.963067,-3.69861 -6.914632,-1.73953 -8.980956,-3.403062 -10.013275,-4.606377 -0.979118,-1.208383 0.183667,-3.715923 5.755227,-4.946259 2.820825,-0.686525 13.328935,-0.812767 13.328935,-0.812767 -3.014622,-2.39312 -8.674849,-6.677768 -9.831299,-7.588909 -1.014501,-0.799171 -2.649404,-2.025539 -2.825046,-3.121442 -0.237074,-1.066814 1.442163,-1.580481 2.331266,-1.639719 2.864522,-0.197558 6.776143,0.138278 10.25309,0.829738 1.747764,0.347569 2.054588,0.296354 2.054588,0.296354 2.489176,0.11856 4.425246,-1.185328 4.326448,-3.931463 -0.01984,-2.785571 -2.804782,-5.019304 -5.886958,-5.116835 -2.902735,-0.09192 -10.055494,0.414869 -10.055494,0.414869 8.337075,1.718757 9.699989,2.157313 10.13487,3.16092 0.257553,0.593001 -0.428549,1.182203 -2.725402,1.06715 -2.501631,-0.1254 -7.627333,-0.731067 -7.627333,-0.731067 -4.878704,-0.750701 -8.277544,-1.461924 -9.759521,0.474149 -0.968016,1.264874 0.13832,2.805413 0.572905,3.714023 1.93607,3.37836 5.284033,5.696115 7.408201,7.329246 0.799339,0.614578 3.239874,1.975592 3.239874,1.975592 -7.585955,-2.074348 -13.631244,-0.908778 -17.46412,1.106332 -4.405401,2.607816 -3.651956,7.008361 3.338673,11.122435 4.129061,2.430062 6.184621,3.597279 12.945142,4.427355 3.951518,0.630074 4.540088,0.887879 4.510112,1.216785 -0.04239,0.463087 -4.676888,0.638559 -5.950713,0.726423 -3.24093,0.22352 -11.622761,0.27938 -11.664561,0.27938 z"
     style="opacity:0.2;fill:#000000;stroke-width:4.22216"
     id="path667" />
  <path
     d="m 18.923571,49.295415 c 0,0 2.265188,0.657727 5.280233,1.033754 1.221092,0.152296 5.867113,0.684496 9.429349,0.670563 0,0 4.338268,0.004 6.733079,-0.335283 2.505851,-0.355969 3.925341,-0.810231 4.715306,-1.716814 0.02069,-0.216132 0.381347,-0.920768 -0.592705,-1.600199 -2.491075,-1.739528 -5.70836,-2.212411 -11.963067,-3.69861 -6.914632,-1.73953 -8.980956,-3.403062 -10.013275,-4.606377 -0.979118,-1.208383 0.183667,-3.715923 5.755227,-4.946259 2.820825,-0.686525 13.328935,-0.812767 13.328935,-0.812767 -3.014622,-2.39312 -8.674849,-6.677768 -9.831299,-7.588909 -1.014501,-0.799171 -2.649404,-2.025539 -2.825046,-3.121442 -0.237074,-1.066814 1.442163,-1.580481 2.331266,-1.639719 2.864522,-0.197558 6.776143,0.138278 10.25309,0.829738 1.747764,0.347569 2.054588,0.296354 2.054588,0.296354 2.489176,0.11856 4.425246,-1.18533 4.326448,-3.931463 -0.01984,-2.785571 -2.804782,-5.019304 -5.886958,-5.116835 -2.902735,-0.09192 -10.055494,0.414869 -10.055494,0.414869 8.337075,1.718757 9.699989,2.157311 10.13487,3.160918 0.257553,0.593003 -0.428549,1.182205 -2.725402,1.067152 -2.501631,-0.1254 -7.627333,-0.731067 -7.627333,-0.731067 -4.878704,-0.750701 -8.277544,-1.461924 -9.759521,0.474149 -0.968016,1.264874 0.13832,2.805413 0.572905,3.714023 1.93607,3.37836 5.284033,5.696115 7.408201,7.329246 0.799339,0.614578 3.239874,1.975592 3.239874,1.975592 -7.585955,-2.074348 -13.631244,-0.908778 -17.46412,1.106332 -4.405401,2.607816 -3.651956,7.008361 3.338673,11.122435 4.129061,2.430062 6.184621,3.597279 12.945142,4.427355 3.951518,0.630074 4.540088,0.887879 4.510112,1.216785 -0.04239,0.463087 -4.676888,0.638559 -5.950713,0.726423 -3.24093,0.22352 -11.622761,0.27938 -11.664561,0.27938 z"
     style="fill:#ffffff;stroke-width:4.22216"
     id="path397"
     sodipodi:nodetypes="cscccccccccccccccccccccccccccccc" />
  <path
     id="rect2630"
     style="opacity:0.3;fill:#ffffff;fill-opacity:1"
     d="M 14,5 C 9.014005,5 5,9.014005 5,14 v 1 C 5,10.014005 9.014005,6 14,6 h 36 c 4.985995,0 9,4.014005 9,9 V 14 C 59,9.014005 54.985995,5 50,5 Z" />
  <path
     id="rect899"
     style="fill:#000000;stroke:none;opacity:0.5"
     d="M 14,4 C 8.4600055,4 4,8.4600055 4,14 v 36 c 0,5.539994 4.4600055,10 10,10 h 36 c 5.539994,0 10,-4.460006 10,-10 V 14 C 60,8.4600055 55.539994,4 50,4 Z m 0,1 h 36 c 4.985995,0 9,4.014005 9,9 v 36 c 0,4.985995 -4.014005,9 -9,9 H 14 C 9.014005,59 5,54.985995 5,50 V 14 C 5,9.014005 9.014005,5 14,5 Z" />
  <path
     id="rect398"
     style="opacity:0.3;fill:#ffffff"
     d="M 5 49 L 5 50 C 5 54.985995 9.014005 59 14 59 L 50 59 C 54.985995 59 59 54.985995 59 50 L 59 49 C 59 53.985995 54.985995 58 50 58 L 14 58 C 9.014005 58 5 53.985995 5 49 z " />
</svg>
