<?xml version="1.0" encoding="UTF-8" standalone="no"?>
<!-- Created with Inkscape (http://www.inkscape.org/) -->

<svg
   width="64"
   height="64"
   viewBox="0 0 64 64.000003"
   version="1.1"
   id="svg5"
   sodipodi:docname="github.svg"
   inkscape:version="1.2 (dc2aedaf03, 2022-05-15)"
   xmlns:inkscape="http://www.inkscape.org/namespaces/inkscape"
   xmlns:sodipodi="http://sodipodi.sourceforge.net/DTD/sodipodi-0.dtd"
   xmlns:xlink="http://www.w3.org/1999/xlink"
   xmlns="http://www.w3.org/2000/svg"
   xmlns:svg="http://www.w3.org/2000/svg">
  <sodipodi:namedview
     id="namedview7"
     pagecolor="#ffffff"
     bordercolor="#666666"
     borderopacity="1.0"
     inkscape:showpageshadow="2"
     inkscape:pageopacity="0.0"
     inkscape:pagecheckerboard="0"
     inkscape:deskcolor="#d1d1d1"
     inkscape:document-units="px"
     showgrid="false"
     inkscape:zoom="13"
     inkscape:cx="32.038462"
     inkscape:cy="32.076923"
     inkscape:window-width="1920"
     inkscape:window-height="991"
     inkscape:window-x="0"
     inkscape:window-y="0"
     inkscape:window-maximized="1"
     inkscape:current-layer="svg5" />
  <defs
     id="defs2">
    <linearGradient
       inkscape:collect="always"
       xlink:href="#4852"
       id="linearGradient3525"
       x1="50"
       y1="60"
       x2="14"
       y2="4"
       gradientUnits="userSpaceOnUse" />
    <linearGradient
       inkscape:collect="always"
       id="4852">
      <stop
         style="stop-color:#333333;stop-opacity:1"
         offset="0"
         id="stop14555" />
      <stop
         style="stop-color:#666666;stop-opacity:1"
         offset="1"
         id="stop14557" />
    </linearGradient>
  </defs>
  <rect
     style="fill:url(#linearGradient3525);fill-opacity:1.0;stroke:none"
     id="rect184"
     width="55"
     height="55"
     x="4.5"
     y="4.5"
     ry="9.5" />
  <path
     d="m 32.000013,13.000003 c -11.079977,0 -20.000001,8.920023 -20.000001,20.000001 0,9.860411 7.06688,18.00366 16.431362,19.677734 -0.0044,-1.625752 -0.0087,-3.306125 -0.01395,-4.207589 -5.207112,1.160679 -6.471819,-2.218192 -6.471819,-2.218192 -0.851617,-2.219848 -2.078683,-2.811104 -2.078683,-2.811104 -1.699741,-1.191282 0.126953,-1.16769 0.126953,-1.16769 1.879015,0.135567 2.866909,1.981026 2.866909,1.981026 1.669807,2.935811 4.53063,1.732076 5.597098,1.240235 0.17008,-1.240821 0.506353,-2.233391 1.040737,-2.713449 -4.156731,-0.484842 -8.927177,-2.134027 -8.927177,-9.496372 0,-2.097081 0.702634,-3.811202 1.900111,-5.153461 -0.193065,-0.485843 -0.837991,-2.442148 0.181361,-5.086496 1e-6,0 0.0982,-0.03089 0.30134,-0.04046 0.609267,-0.02871 1.979647,0.173569 4.660993,2.038225 1.645402,-0.477539 3.338245,-0.611305 4.970703,-0.615234 1.784493,-0.0043 3.496267,0.163065 4.995815,0.615234 2.680489,-1.864756 4.395518,-2.068049 5.004185,-2.03962 h 0.0014 c 0.202892,0.0095 0.301339,0.04185 0.301339,0.04185 1.02164,2.644348 0.377469,4.599143 0.185546,5.0851 1.199689,1.342247 1.782892,3.057778 1.782892,5.154859 0,7.381202 -4.377019,9.007093 -8.546317,9.482421 0.671136,0.593267 1.41183,1.765817 1.41183,3.557478 0,1.52415 -0.0058,3.862785 -0.01116,5.844029 C 45.989699,49.721383 51.999988,42.092431 51.999988,33.000001 51.999988,21.920023 43.079965,13 31.999988,13 Z m 5.711496,39.168528 c -0.0014,3.81e-4 0,0.0028 0,0.0042 3e-6,-0.0014 -5e-6,-0.0028 0,-0.0042 z"
     style="opacity:0.2;fill:#000000;stroke-width:0.714307"
     id="path676" />
  <path
     d="m 32.000013,12.000003 c -11.079977,0 -20.000001,8.920023 -20.000001,20 0,9.860411 7.06688,18.00366 16.431362,19.677734 -0.0044,-1.625752 -0.0087,-3.306125 -0.01395,-4.207589 -5.207112,1.160679 -6.471819,-2.218192 -6.471819,-2.218192 -0.851617,-2.219848 -2.078683,-2.811104 -2.078683,-2.811104 -1.699741,-1.191282 0.126953,-1.16769 0.126953,-1.16769 1.879015,0.135567 2.866909,1.981026 2.866909,1.981026 1.669807,2.935811 4.53063,1.732076 5.597098,1.240235 0.17008,-1.240821 0.506353,-2.233391 1.040737,-2.713449 -4.156731,-0.484842 -8.927177,-2.134027 -8.927177,-9.496372 0,-2.09708 0.702634,-3.811201 1.900111,-5.15346 -0.193065,-0.485843 -0.837991,-2.442148 0.181361,-5.086496 1e-6,0 0.0982,-0.03089 0.30134,-0.04046 0.609267,-0.02871 1.979647,0.173569 4.660993,2.038225 1.645402,-0.477539 3.338245,-0.611305 4.970703,-0.615234 1.784493,-0.0043 3.496267,0.163065 4.995815,0.615234 2.680489,-1.864756 4.395518,-2.068049 5.004185,-2.03962 h 0.0014 c 0.202892,0.0095 0.301339,0.04185 0.301339,0.04185 1.02164,2.644348 0.377469,4.599143 0.185546,5.0851 1.199689,1.342247 1.782892,3.057778 1.782892,5.154858 0,7.381202 -4.377019,9.007093 -8.546317,9.482421 0.671136,0.593267 1.41183,1.765817 1.41183,3.557478 0,1.52415 -0.0058,3.862785 -0.01116,5.844029 C 45.989699,48.721382 51.999988,41.09243 51.999988,32 c 0,-11.079977 -8.920023,-20 -20,-20 z m 5.711496,39.168527 c -0.0014,3.81e-4 0,0.0028 0,0.0042 3e-6,-0.0014 -5e-6,-0.0028 0,-0.0042 z"
     style="fill:#ffffff;stroke-width:0.714307"
     id="path638"
     sodipodi:nodetypes="csccccccccscsccscccccscscsccccc" />
  <path
     id="rect2630"
     style="opacity:0.3;fill:#ffffff;fill-opacity:1"
     d="M 14,5 C 9.014005,5 5,9.014005 5,14 v 1 C 5,10.014005 9.014005,6 14,6 h 36 c 4.985995,0 9,4.014005 9,9 V 14 C 59,9.014005 54.985995,5 50,5 Z" />
  <path
     id="rect899"
     style="fill:#000000;stroke:none;opacity:0.6"
     d="M 14,4 C 8.4600055,4 4,8.4600055 4,14 v 36 c 0,5.539994 4.4600055,10 10,10 h 36 c 5.539994,0 10,-4.460006 10,-10 V 14 C 60,8.4600055 55.539994,4 50,4 Z m 0,1 h 36 c 4.985995,0 9,4.014005 9,9 v 36 c 0,4.985995 -4.014005,9 -9,9 H 14 C 9.014005,59 5,54.985995 5,50 V 14 C 5,9.014005 9.014005,5 14,5 Z" />
  <path
     id="rect398"
     style="opacity:0.3;fill:#ffffff"
     d="M 5 49 L 5 50 C 5 54.985995 9.014005 59 14 59 L 50 59 C 54.985995 59 59 54.985995 59 50 L 59 49 C 59 53.985995 54.985995 58 50 58 L 14 58 C 9.014005 58 5 53.985995 5 49 z " />
</svg>
