<?xml version="1.0" encoding="UTF-8" standalone="no"?>
<!-- Created with Inkscape (http://www.inkscape.org/) -->

<svg
   width="64"
   height="64"
   viewBox="0 0 64 64.000003"
   version="1.1"
   id="svg5"
   sodipodi:docname="gmail.svg"
   inkscape:version="1.2.1 (9c6d41e410, 2022-07-14)"
   xmlns:inkscape="http://www.inkscape.org/namespaces/inkscape"
   xmlns:sodipodi="http://sodipodi.sourceforge.net/DTD/sodipodi-0.dtd"
   xmlns="http://www.w3.org/2000/svg"
   xmlns:svg="http://www.w3.org/2000/svg">
  <sodipodi:namedview
     id="namedview7"
     pagecolor="#ffffff"
     bordercolor="#666666"
     borderopacity="1.0"
     inkscape:showpageshadow="2"
     inkscape:pageopacity="0.0"
     inkscape:pagecheckerboard="0"
     inkscape:deskcolor="#d1d1d1"
     inkscape:document-units="px"
     showgrid="false"
     inkscape:zoom="12.34375"
     inkscape:cx="31.959494"
     inkscape:cy="32"
     inkscape:window-width="1920"
     inkscape:window-height="1002"
     inkscape:window-x="0"
     inkscape:window-y="0"
     inkscape:window-maximized="1"
     inkscape:current-layer="svg5"
     showguides="false" />
  <defs
     id="defs2" />
  <rect
     style="fill:#f5f5f5;fill-opacity:1;stroke:none"
     id="rect184"
     width="55"
     height="55"
     x="4.5"
     y="4.5"
     ry="9.5" />
  <path
     d="M 14.700001,47.000001 H 21 v -17.45076 l -8.999999,-6.816512 v 21.540667 c 0,1.506449 1.20825,2.726604 2.7,2.726605 z"
     style="fill:#4285f4"
     id="path523"
     sodipodi:nodetypes="scccss" />
  <path
     d="m 43,47.000001 h 6.3 c 1.491751,0 2.7,-1.220156 2.7,-2.726605 V 22.732729 l -9,6.816512 z"
     style="fill:#34a853"
     id="path391"
     sodipodi:nodetypes="cssccc" />
  <path
     d="M 18.480001,29.640618 V 17.82533 L 32,27.909092 45.52,17.825329 V 29.640617 L 32,39.727274 Z"
     style="fill:#ea4335"
     id="path457"
     sodipodi:nodetypes="ccccccc" />
  <path
     d="m 43,19.733953 v 11.815288 l 9,-6.816512 v -3.635474 c 0,-3.369629 -3.80925,-5.294158 -6.48,-3.271926 z"
     style="fill:#fbbc04"
     id="path424" />
  <path
     d="m 12.000001,21.097255 v 3.635474 L 21,31.549241 V 19.733953 L 18.480001,17.82533 c -2.67075,-2.022232 -6.48,-0.0977 -6.48,3.271925 z"
     style="fill:#c5221f"
     id="path490" />
  <path
     id="rect2630"
     style="opacity:0.3;fill:#ffffff;fill-opacity:1"
     d="M 14,5 C 9.014005,5 5,9.014005 5,14 v 1 C 5,10.014005 9.014005,6 14,6 h 36 c 4.985995,0 9,4.014005 9,9 V 14 C 59,9.014005 54.985995,5 50,5 Z" />
  <path
     id="rect899"
     style="fill:#000000;stroke:none;opacity:0.6"
     d="M 14,4 C 8.4600055,4 4,8.4600055 4,14 v 36 c 0,5.539994 4.4600055,10 10,10 h 36 c 5.539994,0 10,-4.460006 10,-10 V 14 C 60,8.4600055 55.539994,4 50,4 Z m 0,1 h 36 c 4.985995,0 9,4.014005 9,9 v 36 c 0,4.985995 -4.014005,9 -9,9 H 14 C 9.014005,59 5,54.985995 5,50 V 14 C 5,9.014005 9.014005,5 14,5 Z" />
  <path
     id="rect398"
     style="opacity:0.3;fill:#ffffff"
     d="M 5 49 L 5 50 C 5 54.985995 9.014005 59 14 59 L 50 59 C 54.985995 59 59 54.985995 59 50 L 59 49 C 59 53.985995 54.985995 58 50 58 L 14 58 C 9.014005 58 5 53.985995 5 49 z " />
</svg>
