<?xml version="1.0" encoding="UTF-8" standalone="no"?>
<!-- Created with Inkscape (http://www.inkscape.org/) -->

<svg
   width="64"
   height="64"
   viewBox="0 0 64 64.000003"
   version="1.1"
   id="svg5"
   sodipodi:docname="gnome-boxes.svg"
   inkscape:version="1.2.1 (9c6d41e410, 2022-07-14)"
   xmlns:inkscape="http://www.inkscape.org/namespaces/inkscape"
   xmlns:sodipodi="http://sodipodi.sourceforge.net/DTD/sodipodi-0.dtd"
   xmlns:xlink="http://www.w3.org/1999/xlink"
   xmlns="http://www.w3.org/2000/svg"
   xmlns:svg="http://www.w3.org/2000/svg">
  <sodipodi:namedview
     id="namedview7"
     pagecolor="#ffffff"
     bordercolor="#666666"
     borderopacity="1.0"
     inkscape:showpageshadow="2"
     inkscape:pageopacity="0.0"
     inkscape:pagecheckerboard="0"
     inkscape:deskcolor="#d1d1d1"
     inkscape:document-units="px"
     showgrid="false"
     inkscape:zoom="9.9752564"
     inkscape:cx="21.402959"
     inkscape:cy="28.069454"
     inkscape:window-width="1920"
     inkscape:window-height="1002"
     inkscape:window-x="0"
     inkscape:window-y="0"
     inkscape:window-maximized="1"
     inkscape:current-layer="svg5" />
  <defs
     id="defs2">
    <linearGradient
       inkscape:collect="always"
       xlink:href="#4852"
       id="linearGradient3525"
       x1="50"
       y1="60"
       x2="14"
       y2="4"
       gradientUnits="userSpaceOnUse" />
    <linearGradient
       inkscape:collect="always"
       id="4852">
      <stop
         style="stop-color:#333333;stop-opacity:1"
         offset="0"
         id="stop14555" />
      <stop
         style="stop-color:#666666;stop-opacity:1"
         offset="1"
         id="stop14557" />
    </linearGradient>
  </defs>
  <rect
     style="fill:url(#linearGradient3525);fill-opacity:1.0;stroke:none"
     id="rect184"
     width="55"
     height="55"
     x="4.5"
     y="4.5"
     ry="9.5" />
  <path
     d="m 17.00001,13 c -2.76143,0 -5,2.23858 -5,5 9.8e-4,1.98721 1.17869,3.78522 3,4.5801 v 20.839831 c -1.82131,0.79488 -2.99902,2.59288 -3,4.5801 0,2.76142 2.23857,4.99999 5,4.99999 1.98721,-9.8e-4 3.78521,-1.17868 4.58009,-2.99999 h 20.83983 c 0.79488,1.82129 2.59287,2.999 4.58007,2.99999 2.76142,0 4.99999,-2.23857 4.99999,-4.99999 -2.1e-4,-1.98792 -1.17804,-3.78687 -3,-4.58204 V 22.5801 c 1.82131,-0.79488 2.99902,-2.59289 3,-4.5801 0,-2.76142 -2.23857,-5 -4.99999,-5 -1.9872,10e-4 -3.78519,1.1787 -4.58007,3 H 21.58204 c -0.79517,-1.82195 -2.59412,-2.99978 -4.58203,-3 z m 4.58009,7 h 20.83983 c 0.11305,0.25763 0.24764,0.50525 0.40233,0.74024 L 39.2793,24.2832 C 38.89166,24.10113 38.45813,24 38,24 c -1.31093,0 -2.4199,0.83273 -2.83007,2 H 28.8301 C 28.4199,24.83273 27.31094,24 26,24 c -0.4581,0 -0.89163,0.10113 -1.2793,0.2832 L 21.17774,20.74024 C 21.33245,20.50525 21.46705,20.25763 21.5801,20 Z m -1.83986,2.17773 3.54296,3.54297 C 23.10114,26.10837 23,26.5419 23,27 c 0,1.31093 0.83274,2.41993 2,2.8301 v 6.339831 c -1.16726,0.41017 -2,1.51917 -2,2.83007 0,0.45813 0.10114,0.89166 0.2832,1.2793 l -3.541,3.54103 c -0.23561,-0.1548 -0.4839,-0.28939 -0.74219,-0.40234 V 22.5801 c 0.25762,-0.11306 0.50524,-0.24766 0.74023,-0.40237 z m 24.51952,0 C 44.49475,22.33244 44.74237,22.46704 45,22.5801 v 20.839831 c -0.25763,0.11304 -0.50525,0.24763 -0.74024,0.40233 L 40.7168,40.279301 C 40.8989,39.891661 41,39.458131 41,39.000001 c 0,-1.3109 -0.8327,-2.4199 -2,-2.83007 V 29.8301 C 40.1673,29.41993 41,28.31093 41,27 41,26.5419 40.8989,26.10837 40.7168,25.7207 Z M 28.8301,28 h 6.33983 c 0.30034,0.8547 0.9754,1.52977 1.83007,1.8301 v 6.339831 c -0.85467,0.30033 -1.52973,0.9754 -1.83007,1.83007 H 28.8301 C 28.52977,37.145331 27.8547,36.470261 27,36.169931 V 29.8301 C 27.8547,29.52977 28.52977,28.8547 28.8301,28 Z m 0,12.000001 h 6.33983 c 0.41017,1.1673 1.51914,1.99999 2.83007,1.99999 0.45813,0 0.89166,-0.1011 1.2793,-0.2832 l 3.54296,3.54297 c -0.15469,0.23499 -0.28928,0.48261 -0.40233,0.74023 H 21.58204 c -0.11295,-0.25829 -0.24754,-0.50656 -0.40234,-0.74216 l 3.541,-3.54104 c 0.38767,0.1821 0.8212,0.2832 1.2793,0.2832 1.31094,0 2.4199,-0.83269 2.8301,-1.99999 z"
     style="color:#000000;display:inline;overflow:visible;visibility:visible;fill:#000000;fill-opacity:1;fill-rule:nonzero;stroke:none;stroke-width:2;marker:none;enable-background:new;opacity:0.2"
     id="path2247" />
  <path
     d="m 17.00001,11.99999 c -2.76143,0 -5,2.23858 -5,5 9.8e-4,1.98721 1.17869,3.78522 3,4.5801 v 20.83983 c -1.82131,0.79488 -2.99902,2.59288 -3,4.5801 0,2.76142 2.23857,4.99999 5,4.99999 1.98721,-9.8e-4 3.78521,-1.17868 4.58009,-2.99999 h 20.83983 c 0.79488,1.82129 2.59287,2.999 4.58007,2.99999 2.76142,0 4.99999,-2.23857 4.99999,-4.99999 -2.1e-4,-1.98792 -1.17804,-3.78687 -3,-4.58204 V 21.58009 c 1.82131,-0.79488 2.99902,-2.59289 3,-4.5801 0,-2.76142 -2.23857,-5 -4.99999,-5 -1.9872,10e-4 -3.78519,1.1787 -4.58007,3 H 21.58204 c -0.79517,-1.82195 -2.59412,-2.99978 -4.58203,-3 z m 4.58009,7 h 20.83983 c 0.11305,0.25763 0.24764,0.50525 0.40233,0.74024 L 39.2793,23.28319 C 38.89166,23.10112 38.45813,22.99999 38,22.99999 c -1.31093,0 -2.4199,0.83273 -2.83007,2 H 28.8301 c -0.4102,-1.16727 -1.51916,-2 -2.8301,-2 -0.4581,0 -0.89163,0.10113 -1.2793,0.2832 l -3.54296,-3.54296 c 0.15471,-0.23499 0.28931,-0.48261 0.40236,-0.74024 z m -1.83986,2.17773 3.54296,3.54297 C 23.10114,25.10836 23,25.54189 23,25.99999 c 0,1.31093 0.83274,2.41993 2,2.8301 v 6.33983 c -1.16726,0.41017 -2,1.51917 -2,2.83007 0,0.45813 0.10114,0.89166 0.2832,1.2793 l -3.541,3.54103 c -0.23561,-0.1548 -0.4839,-0.28939 -0.74219,-0.40234 V 21.58009 c 0.25762,-0.11306 0.50524,-0.24766 0.74023,-0.40237 z m 24.51952,0 c 0.23499,0.15471 0.48261,0.28931 0.74024,0.40237 v 20.83983 c -0.25763,0.11304 -0.50525,0.24763 -0.74024,0.40233 L 40.7168,39.27929 C 40.8989,38.89165 41,38.45812 41,37.99999 c 0,-1.3109 -0.8327,-2.4199 -2,-2.83007 v -6.33983 c 1.1673,-0.41017 2,-1.51917 2,-2.8301 0,-0.4581 -0.1011,-0.89163 -0.2832,-1.2793 z M 28.8301,26.99999 h 6.33983 c 0.30034,0.8547 0.9754,1.52977 1.83007,1.8301 v 6.33983 c -0.85467,0.30033 -1.52973,0.9754 -1.83007,1.83007 H 28.8301 C 28.52977,36.14532 27.8547,35.47025 27,35.16992 v -6.33983 c 0.8547,-0.30033 1.52977,-0.9754 1.8301,-1.8301 z m 0,12 h 6.33983 c 0.41017,1.1673 1.51914,1.99999 2.83007,1.99999 0.45813,0 0.89166,-0.1011 1.2793,-0.2832 l 3.54296,3.54297 c -0.15469,0.23499 -0.28928,0.48261 -0.40233,0.74023 H 21.58204 C 21.46909,44.74169 21.3345,44.49342 21.1797,44.25782 l 3.541,-3.54104 c 0.38767,0.1821 0.8212,0.2832 1.2793,0.2832 1.31094,0 2.4199,-0.83269 2.8301,-1.99999 z"
     style="color:#000000;display:inline;overflow:visible;visibility:visible;fill:#ffffff;fill-opacity:1;fill-rule:nonzero;stroke:none;stroke-width:2;marker:none;enable-background:new"
     id="path2182"
     sodipodi:nodetypes="cccccccccccccccccccccsccscccccsccsccccccccccsccscccccccccccccsccccccsc" />
  <path
     id="rect2630"
     style="opacity:0.3;fill:#ffffff;fill-opacity:1"
     d="M 14,5 C 9.014005,5 5,9.014005 5,14 v 1 C 5,10.014005 9.014005,6 14,6 h 36 c 4.985995,0 9,4.014005 9,9 V 14 C 59,9.014005 54.985995,5 50,5 Z" />
  <path
     id="rect899"
     style="fill:#000000;stroke:none;opacity:0.6"
     d="M 14,4 C 8.4600055,4 4,8.4600055 4,14 v 36 c 0,5.539994 4.4600055,10 10,10 h 36 c 5.539994,0 10,-4.460006 10,-10 V 14 C 60,8.4600055 55.539994,4 50,4 Z m 0,1 h 36 c 4.985995,0 9,4.014005 9,9 v 36 c 0,4.985995 -4.014005,9 -9,9 H 14 C 9.014005,59 5,54.985995 5,50 V 14 C 5,9.014005 9.014005,5 14,5 Z" />
  <path
     id="rect398"
     style="opacity:0.3;fill:#ffffff"
     d="M 5 49 L 5 50 C 5 54.985995 9.014005 59 14 59 L 50 59 C 54.985995 59 59 54.985995 59 50 L 59 49 C 59 53.985995 54.985995 58 50 58 L 14 58 C 9.014005 58 5 53.985995 5 49 z " />
</svg>
