<?xml version="1.0" encoding="UTF-8" standalone="no"?>
<!-- Created with Inkscape (http://www.inkscape.org/) -->

<svg
   width="64"
   height="64"
   viewBox="0 0 64 64.000003"
   version="1.1"
   id="svg5"
   sodipodi:docname="gnome-mines.svg"
   inkscape:version="1.2.1 (9c6d41e410, 2022-07-14)"
   xmlns:inkscape="http://www.inkscape.org/namespaces/inkscape"
   xmlns:sodipodi="http://sodipodi.sourceforge.net/DTD/sodipodi-0.dtd"
   xmlns:xlink="http://www.w3.org/1999/xlink"
   xmlns="http://www.w3.org/2000/svg"
   xmlns:svg="http://www.w3.org/2000/svg">
  <sodipodi:namedview
     id="namedview7"
     pagecolor="#ffffff"
     bordercolor="#666666"
     borderopacity="1.0"
     inkscape:showpageshadow="2"
     inkscape:pageopacity="0.0"
     inkscape:pagecheckerboard="0"
     inkscape:deskcolor="#d1d1d1"
     inkscape:document-units="px"
     showgrid="false"
     inkscape:zoom="14.107143"
     inkscape:cx="32.005063"
     inkscape:cy="31.96962"
     inkscape:window-width="1920"
     inkscape:window-height="1002"
     inkscape:window-x="0"
     inkscape:window-y="0"
     inkscape:window-maximized="1"
     inkscape:current-layer="svg5" />
  <defs
     id="defs2">
    <linearGradient
       inkscape:collect="always"
       id="linearGradient3585">
      <stop
         style="stop-color:#adb2b9;stop-opacity:1;"
         offset="0"
         id="stop3581" />
      <stop
         style="stop-color:#e6e6e6;stop-opacity:1"
         offset="1"
         id="stop3583" />
    </linearGradient>
    <linearGradient
       inkscape:collect="always"
       xlink:href="#linearGradient3585"
       id="linearGradient3525"
       x1="50"
       y1="60"
       x2="14"
       y2="4"
       gradientUnits="userSpaceOnUse" />
  </defs>
  <rect
     style="fill:url(#linearGradient3525);fill-opacity:1;stroke:none"
     id="rect184"
     width="55"
     height="55"
     x="4.5"
     y="4.5"
     ry="9.5" />
  <path
     d="m 31.914065,11 c -1.56508,0 -2.56275,1.149801 -2.66406,2.664061 v 2.75 0.34375 c 0.14327,1.38576 1.32797,2.49219 2.75,2.49219 0.35552,0 0.7189,-0.0465 1.03125,-0.17188 0.93981,-0.37614 1.61125,-1.28097 1.71875,-2.32031 v -0.34375 -2.66406 C 34.750005,12.232361 33.479145,11 31.914065,11 Z m -5.32813,6.445311 c -1.81109,0.64114 -3.51549,1.65061 -4.98437,2.83594 0.63558,0.45942 1.16867,1.01574 1.54687,1.71875 0.011,0.0192 -0.011,0.0657 0,0.0858 0.17133,0.33102 0.33443,0.66275 0.42969,1.03125 0.008,0.0275 -0.006,0.0594 0,0.0858 0.0896,0.37136 0.17188,0.80432 0.17188,1.20312 0,0.35002 -0.0192,0.7012 -0.0858,1.03125 -0.0663,0.33006 -0.21753,0.64202 -0.34375,0.94532 -0.75667,1.81981 -2.49007,3.09375 -4.55469,3.09375 -0.98684,0 -1.80403,-0.27005 -2.57813,-0.77344 -0.11082,0.31372 -0.275,0.6091 -0.34375,0.94531 -0.006,0.0248 0.005,0.0602 0,0.0858 -0.10175,0.5104 -0.20432,1.02066 -0.25767,1.54688 -0.003,0.0297 0.003,0.0561 0,0.0858 -0.0512,0.52778 -0.0861,1.09166 -0.0861,1.63281 0,0.0283 -1.3e-4,0.0575 0,0.0858 -1.3e-4,0.0283 0,0.0575 0,0.0858 0.005,0.5115 0.0352,1.04753 0.0858,1.54687 0.006,0.0572 -0.005,0.11468 0,0.17188 0.0556,0.49621 0.15923,0.97903 0.25768,1.46094 0.0916,0.47542 0.20927,0.91795 0.34375,1.375 1.02019,-0.59156 2.18397,-0.8214 2.92187,-0.85938 0.99625,-0.0511 1.92616,0.2398 2.66407,0.77344 0.7379,0.53377 1.29156,1.23846 1.63281,2.14844 0.11385,0.30024 0.19827,0.61745 0.25767,0.94531 0.0688,0.35359 0.0858,0.65568 0.0858,1.03125 0,1.39301 -1.14089,3.22715 -1.97656,4.125 0.33858,0.26455 0.66861,0.53097 1.03125,0.77344 0.43329,0.28968 0.82794,0.61061 1.28906,0.85937 0.65461,0.3556 1.35817,0.67953 2.0625,0.94531 0.13448,0.0503 0.2838,0.0622 0.42969,0.0858 -0.0388,-0.1892 -0.0858,-0.40427 -0.0858,-0.60156 0,-2.18545 2.46243,-3.95312 5.5,-3.95312 3.03757,0 5.5,1.76767 5.5,3.95312 0,0.19718 -0.0473,0.41239 -0.0858,0.60156 0.82682,-0.2844 1.64692,-0.62334 2.40625,-1.03125 0.58619,-0.30951 1.09164,-0.65609 1.63281,-1.03125 0.16775,-0.11797 0.35258,-0.21972 0.51563,-0.34375 0.1287,-0.0968 0.2189,-0.24062 0.34375,-0.34375 -0.39155,-0.30503 -0.68841,-0.61608 -0.94531,-0.94531 -0.52146,-0.65202 -0.82613,-1.36185 -0.94532,-2.0625 -0.061,-0.35084 -0.0858,-0.68299 -0.0858,-1.03125 0,-0.66704 0.15208,-1.32366 0.34375,-1.89062 0.008,-0.0248 -0.008,-0.061 0,-0.0858 0.10423,-0.29332 0.19333,-0.5145 0.34375,-0.77344 0.1529,-0.25658 0.32002,-0.47022 0.51563,-0.6875 0.20432,-0.24035 0.43821,-0.41162 0.6875,-0.60156 0.46299,-0.35275 0.95282,-0.62266 1.54687,-0.77344 0.29703,-0.0754 0.62134,-0.154 0.94532,-0.17188 0.77343,-0.0429 2.07355,0.26785 3.09375,0.85938 0.1243,-0.43131 0.25767,-0.84142 0.34375,-1.28906 0.0987,-0.48191 0.20212,-0.96473 0.25767,-1.46094 0.006,-0.0572 -0.005,-0.11468 0,-0.17188 0.0506,-0.49934 0.0808,-1.03537 0.0858,-1.54687 0,-0.629421 -0.0137,-1.281751 -0.0858,-1.890631 -0.0533,-0.52621 -0.1562,-1.03647 -0.25767,-1.54687 -0.006,-0.0248 0.005,-0.0602 0,-0.0858 -0.0745,-0.36363 -0.2233,-0.69196 -0.34375,-1.03125 -0.7741,0.50363 -1.59129,0.77344 -2.57813,0.77344 -1.3764,0 -2.62144,-0.5434 -3.52344,-1.46094 -0.2255,-0.22935 -0.42242,-0.50369 -0.60156,-0.77344 -0.53729,-0.80921 -0.85924,-1.78585 -0.85924,-2.83594 0,-0.85354 0.23843,-1.6401 0.60157,-2.32031 0.18177,-0.34323 0.35114,-0.65321 0.60156,-0.94531 0.2552,-0.28787 0.54158,-0.54373 0.85937,-0.77344 -1.46921,-1.1894 -3.08511,-2.20451 -4.89843,-2.83594 0.0385,0.1892 0.0858,0.40439 0.0858,0.60157 0,2.18545 -2.46244,3.95312 -5.5,3.95312 -1.89849,0 -3.56631,-0.66731 -4.55469,-1.71875 -0.19773,-0.21037 -0.37648,-0.45097 -0.51563,-0.6875 -0.27819,-0.47305 -0.42955,-1.0005 -0.42955,-1.54687 0,-0.19718 0.047,-0.41237 0.0858,-0.60157 z m -11.94531,1.89063 c -0.68098,0.17022 -1.30622,0.62408 -1.71875,1.28906 -0.82511,1.32995 -0.43024,3.06713 0.85938,3.86719 l 2.23437,1.375 0.85938,0.51562 c 0.34817,0.12705 0.72473,0.25768 1.11718,0.25768 0.42122,0 0.84216,-0.11248 1.20313,-0.25768 0.36096,-0.14547 0.67463,-0.34347 0.94531,-0.60156 0.54134,-0.51618 0.85938,-1.20533 0.85938,-1.97656 0,-0.8121 -0.3522,-1.6494 -0.94532,-2.14844 l -1.03125,-0.60156 -2.32031,-1.375 c -0.64482,-0.40007 -1.38152,-0.51387 -2.0625,-0.34375 z m 33.6875,0 c -0.35049,0.0528 -0.70884,0.14382 -1.03125,0.34375 l -2.32031,1.375 -1.03125,0.60156 c -0.0305,0.0248 -0.0567,0.0591 -0.0858,0.0858 -0.59326,0.49904 -0.85951,1.16446 -0.85951,1.97656 0,0.77124 0.31803,1.46039 0.85937,1.97656 0.2706,0.25823 0.58435,0.4562 0.94531,0.60157 0.36097,0.14547 0.78191,0.25767 1.20313,0.25767 0.39245,0 0.76901,-0.0448 1.11719,-0.17187 l 0.85937,-0.51563 2.23438,-1.375 c 1.28961,-0.80006 1.68448,-2.53723 0.85937,-3.86719 -0.61878,-0.99745 -1.69854,-1.4474 -2.75,-1.28906 z m -16.32812,8.16406 c 3.03756,0 5.5,2.46243 5.5,5.500001 0,3.03757 -2.46244,5.5 -5.5,5.5 -1.51877,0 -2.87188,-0.6375 -3.86719,-1.63281 -0.24888,-0.24888 -0.48983,-0.48084 -0.6875,-0.77344 -0.59304,-0.8778 -0.94531,-1.95467 -0.94531,-3.09375 0,-0.379691 0.0137,-0.759141 0.0858,-1.117191 0.51298,-2.50627 2.75632,-4.38281 5.4142,-4.38281 z m 0,2.75 c -1.14156,0 -2.07548,0.73172 -2.49219,1.71875 -0.13915,0.32901 -0.25768,0.65156 -0.25768,1.031251 0,1.51885 1.22791,2.75 2.75,2.75 1.5221,0 2.75,-1.23115 2.75,-2.75 0,-1.518851 -1.2279,-2.750001 -2.75,-2.750001 z m -14.00782,9.195311 c -0.64185,0.0699 -0.81028,0.23238 -1.11718,0.34375 l -0.60157,0.34375 -2.23437,1.375 c -1.28961,0.80006 -1.68449,2.53724 -0.85938,3.86719 0.82506,1.32993 2.57758,1.74545 3.86719,0.94531 l 2.23438,-1.375 0.77343,-0.51562 c 0.37406,-0.39345 0.7221,-0.83331 0.85938,-1.375 0.0514,-0.17353 0.0858,-0.32712 0.0858,-0.51563 0,-0.42474 -0.0905,-0.80267 -0.25768,-1.20312 -0.1419,-0.35566 -0.35326,-0.65934 -0.60156,-0.94532 -0.26867,-0.29947 -0.58688,-0.61589 -0.94531,-0.77343 -0.35844,-0.15758 -0.78458,-0.21753 -1.20313,-0.17188 z m 28.10157,0.17188 c -1.6137,0 -2.92188,1.32239 -2.92188,2.92187 0,0.75411 0.21093,1.3035 0.6875,1.80469 l 0.85938,0.60156 2.23437,1.375 c 1.28961,0.80014 3.04213,0.38462 3.86719,-0.94531 0.82511,-1.32995 0.43024,-3.06713 -0.85938,-3.86719 l -2.23437,-1.375 c -0.19663,-0.11577 -0.38236,-0.2431 -0.60156,-0.34375 -0.3069,-0.11027 -0.68676,-0.17187 -1.03125,-0.17187 z m -14.09375,7.13281 c -0.35552,0 -0.70054,0.0445 -1.03125,0.17187 -0.33072,0.12733 -0.67615,0.37398 -0.94532,0.60157 -0.53831,0.45521 -0.87364,1.02586 -0.94531,1.71875 v 0.34375 2.66406 c 0,1.51764 1.27086,2.750001 2.83594,2.750001 1.56508,0 2.83594,-1.232361 2.83594,-2.750001 v -2.66406 -0.34375 c -0.14355,-1.38576 -1.32798,-2.49219 -2.75,-2.49219 z"
     style="display:inline;fill:#000000;fill-opacity:1;stroke:none;enable-background:new;opacity:0.2"
     id="path4945" />
  <path
     d="m 31.914065,10 c -1.56508,0 -2.56275,1.1498 -2.66406,2.66406 v 2.75 0.34375 c 0.14327,1.38576 1.32797,2.49219 2.75,2.49219 0.35552,0 0.7189,-0.0465 1.03125,-0.17188 0.93981,-0.37614 1.61125,-1.28097 1.71875,-2.32031 V 15.41406 12.75 c 0,-1.51764 -1.27086,-2.75 -2.83594,-2.75 z m -5.32813,6.44531 c -1.81109,0.64114 -3.51549,1.65061 -4.98437,2.83594 0.63558,0.45942 1.16867,1.01574 1.54687,1.71875 0.011,0.0192 -0.011,0.0657 0,0.0858 0.17133,0.33102 0.33443,0.66275 0.42969,1.03125 0.008,0.0275 -0.006,0.0594 0,0.0858 0.0896,0.37136 0.17188,0.80432 0.17188,1.20312 0,0.35002 -0.0192,0.7012 -0.0858,1.03125 -0.0663,0.33006 -0.21753,0.64202 -0.34375,0.94532 -0.75667,1.81981 -2.49007,3.09375 -4.55469,3.09375 -0.98684,0 -1.80403,-0.27005 -2.57813,-0.77344 -0.11082,0.31372 -0.275,0.6091 -0.34375,0.94531 -0.006,0.0248 0.005,0.0602 0,0.0858 -0.10175,0.5104 -0.20432,1.02066 -0.25767,1.54688 -0.003,0.0297 0.003,0.0561 0,0.0858 -0.0512,0.52778 -0.0861,1.09166 -0.0861,1.63281 0,0.0283 -1.3e-4,0.0575 0,0.0858 -1.3e-4,0.0283 0,0.0575 0,0.0858 0.005,0.5115 0.0352,1.04753 0.0858,1.54687 0.006,0.0572 -0.005,0.11468 0,0.17188 0.0556,0.49621 0.15923,0.97903 0.25768,1.46094 0.0916,0.47542 0.20927,0.91795 0.34375,1.375 1.02019,-0.59156 2.18397,-0.8214 2.92187,-0.85938 0.99625,-0.0511 1.92616,0.2398 2.66407,0.77344 0.7379,0.53377 1.29156,1.23846 1.63281,2.14844 0.11385,0.30024 0.19827,0.61745 0.25767,0.94531 0.0688,0.35359 0.0858,0.65568 0.0858,1.03125 0,1.39301 -1.14089,3.22715 -1.97656,4.125 0.33858,0.26455 0.66861,0.53097 1.03125,0.77344 0.43329,0.28968 0.82794,0.61061 1.28906,0.85937 0.65461,0.3556 1.35817,0.67953 2.0625,0.94531 0.13448,0.0503 0.2838,0.0622 0.42969,0.0858 -0.0388,-0.1892 -0.0858,-0.40427 -0.0858,-0.60156 0,-2.18545 2.46243,-3.95312 5.5,-3.95312 3.03757,0 5.5,1.76767 5.5,3.95312 0,0.19718 -0.0473,0.41239 -0.0858,0.60156 0.82682,-0.2844 1.64692,-0.62334 2.40625,-1.03125 0.58619,-0.30951 1.09164,-0.65609 1.63281,-1.03125 0.16775,-0.11797 0.35258,-0.21972 0.51563,-0.34375 0.1287,-0.0968 0.2189,-0.24062 0.34375,-0.34375 -0.39155,-0.30503 -0.68841,-0.61608 -0.94531,-0.94531 -0.52146,-0.65202 -0.82613,-1.36185 -0.94532,-2.0625 -0.061,-0.35084 -0.0858,-0.68299 -0.0858,-1.03125 0,-0.66704 0.15208,-1.32366 0.34375,-1.89062 0.008,-0.0248 -0.008,-0.061 0,-0.0858 0.10423,-0.29332 0.19333,-0.5145 0.34375,-0.77344 0.1529,-0.25658 0.32002,-0.47022 0.51563,-0.6875 0.20432,-0.24035 0.43821,-0.41162 0.6875,-0.60156 0.46299,-0.35275 0.95282,-0.62266 1.54687,-0.77344 0.29703,-0.0754 0.62134,-0.154 0.94532,-0.17188 0.77343,-0.0429 2.07355,0.26785 3.09375,0.85938 0.1243,-0.43131 0.25767,-0.84142 0.34375,-1.28906 0.0987,-0.48191 0.20212,-0.96473 0.25767,-1.46094 0.006,-0.0572 -0.005,-0.11468 0,-0.17188 0.0506,-0.49934 0.0808,-1.03537 0.0858,-1.54687 0,-0.62942 -0.0137,-1.28175 -0.0858,-1.89063 -0.0533,-0.52621 -0.1562,-1.03647 -0.25767,-1.54687 -0.006,-0.0248 0.005,-0.0602 0,-0.0858 -0.0745,-0.36363 -0.2233,-0.69196 -0.34375,-1.03125 -0.7741,0.50363 -1.59129,0.77344 -2.57813,0.77344 -1.3764,0 -2.62144,-0.5434 -3.52344,-1.46094 -0.2255,-0.22935 -0.42242,-0.50369 -0.60156,-0.77344 -0.53729,-0.80921 -0.85924,-1.78585 -0.85924,-2.83594 0,-0.85354 0.23843,-1.6401 0.60157,-2.32031 0.18177,-0.34323 0.35114,-0.65321 0.60156,-0.94531 0.2552,-0.28787 0.54158,-0.54373 0.85937,-0.77344 -1.46921,-1.1894 -3.08511,-2.20451 -4.89843,-2.83594 0.0385,0.1892 0.0858,0.40439 0.0858,0.60157 0,2.18545 -2.46244,3.95312 -5.5,3.95312 -1.89849,0 -3.56631,-0.66731 -4.55469,-1.71875 -0.19773,-0.21037 -0.37648,-0.45097 -0.51563,-0.6875 -0.27819,-0.47305 -0.42955,-1.0005 -0.42955,-1.54687 0,-0.19718 0.047,-0.41237 0.0858,-0.60157 z m -11.94531,1.89063 c -0.68098,0.17022 -1.30622,0.62408 -1.71875,1.28906 -0.82511,1.32995 -0.43024,3.06713 0.85938,3.86719 l 2.23437,1.375 0.85938,0.51562 c 0.34817,0.12705 0.72473,0.25768 1.11718,0.25768 0.42122,0 0.84216,-0.11248 1.20313,-0.25768 0.36096,-0.14547 0.67463,-0.34347 0.94531,-0.60156 0.54134,-0.51618 0.85938,-1.20533 0.85938,-1.97656 0,-0.8121 -0.3522,-1.6494 -0.94532,-2.14844 l -1.03125,-0.60156 -2.32031,-1.375 c -0.64482,-0.40007 -1.38152,-0.51387 -2.0625,-0.34375 z m 33.6875,0 c -0.35049,0.0528 -0.70884,0.14382 -1.03125,0.34375 l -2.32031,1.375 -1.03125,0.60156 c -0.0305,0.0248 -0.0567,0.0591 -0.0858,0.0858 -0.59326,0.49904 -0.85951,1.16446 -0.85951,1.97656 0,0.77124 0.31803,1.46039 0.85937,1.97656 0.2706,0.25823 0.58435,0.4562 0.94531,0.60157 0.36097,0.14547 0.78191,0.25767 1.20313,0.25767 0.39245,0 0.76901,-0.0448 1.11719,-0.17187 l 0.85937,-0.51563 2.23438,-1.375 c 1.28961,-0.80006 1.68448,-2.53723 0.85937,-3.86719 -0.61878,-0.99745 -1.69854,-1.4474 -2.75,-1.28906 z M 32.000005,26.5 c 3.03756,0 5.5,2.46243 5.5,5.5 0,3.03757 -2.46244,5.5 -5.5,5.5 -1.51877,0 -2.87188,-0.6375 -3.86719,-1.63281 -0.24888,-0.24888 -0.48983,-0.48084 -0.6875,-0.77344 -0.59304,-0.8778 -0.94531,-1.95467 -0.94531,-3.09375 0,-0.37969 0.0137,-0.75914 0.0858,-1.11719 0.51298,-2.50627 2.75632,-4.38281 5.4142,-4.38281 z m 0,2.75 c -1.14156,0 -2.07548,0.73172 -2.49219,1.71875 -0.13915,0.32901 -0.25768,0.65156 -0.25768,1.03125 0,1.51885 1.22791,2.75 2.75,2.75 1.5221,0 2.75,-1.23115 2.75,-2.75 0,-1.51885 -1.2279,-2.75 -2.75,-2.75 z m -14.00782,9.19531 c -0.64185,0.0699 -0.81028,0.23238 -1.11718,0.34375 l -0.60157,0.34375 -2.23437,1.375 c -1.28961,0.80006 -1.68449,2.53724 -0.85938,3.86719 0.82506,1.32993 2.57758,1.74545 3.86719,0.94531 l 2.23438,-1.375 0.77343,-0.51562 c 0.37406,-0.39345 0.7221,-0.83331 0.85938,-1.375 0.0514,-0.17353 0.0858,-0.32712 0.0858,-0.51563 0,-0.42474 -0.0905,-0.80267 -0.25768,-1.20312 -0.1419,-0.35566 -0.35326,-0.65934 -0.60156,-0.94532 -0.26867,-0.29947 -0.58688,-0.61589 -0.94531,-0.77343 -0.35844,-0.15758 -0.78458,-0.21753 -1.20313,-0.17188 z m 28.10157,0.17188 c -1.6137,0 -2.92188,1.32239 -2.92188,2.92187 0,0.75411 0.21093,1.3035 0.6875,1.80469 l 0.85938,0.60156 2.23437,1.375 c 1.28961,0.80014 3.04213,0.38462 3.86719,-0.94531 0.82511,-1.32995 0.43024,-3.06713 -0.85938,-3.86719 l -2.23437,-1.375 c -0.19663,-0.11577 -0.38236,-0.2431 -0.60156,-0.34375 -0.3069,-0.11027 -0.68676,-0.17187 -1.03125,-0.17187 z M 32.000005,45.75 c -0.35552,0 -0.70054,0.0445 -1.03125,0.17187 -0.33072,0.12733 -0.67615,0.37398 -0.94532,0.60157 -0.53831,0.45521 -0.87364,1.02586 -0.94531,1.71875 V 48.58594 51.25 c 0,1.51764 1.27086,2.75 2.83594,2.75 1.56508,0 2.83594,-1.23236 2.83594,-2.75 v -2.66406 -0.34375 c -0.14355,-1.38576 -1.32798,-2.49219 -2.75,-2.49219 z"
     style="display:inline;fill:#3d3d3d;fill-opacity:1;stroke:none;enable-background:new"
     id="path462"
     sodipodi:nodetypes="scccscccssccccccsccscccccsccccccccccscccccssscccccccsccccssccccccccccsccsccccssccscccccccsccscccccccccsccsccccccsssscscsscssssscccccccccsccccsscccccccssccccsssccs" />
  <path
     id="rect2630"
     style="opacity:0.3;fill:#ffffff;fill-opacity:1"
     d="M 14,5 C 9.014005,5 5,9.014005 5,14 v 1 C 5,10.014005 9.014005,6 14,6 h 36 c 4.985995,0 9,4.014005 9,9 V 14 C 59,9.014005 54.985995,5 50,5 Z" />
  <path
     id="rect899"
     style="fill:#000000;stroke:none;opacity:0.6"
     d="M 14,4 C 8.4600055,4 4,8.4600055 4,14 v 36 c 0,5.539994 4.4600055,10 10,10 h 36 c 5.539994,0 10,-4.460006 10,-10 V 14 C 60,8.4600055 55.539994,4 50,4 Z m 0,1 h 36 c 4.985995,0 9,4.014005 9,9 v 36 c 0,4.985995 -4.014005,9 -9,9 H 14 C 9.014005,59 5,54.985995 5,50 V 14 C 5,9.014005 9.014005,5 14,5 Z" />
  <path
     id="rect398"
     style="opacity:0.3;fill:#ffffff"
     d="M 5 49 L 5 50 C 5 54.985995 9.014005 59 14 59 L 50 59 C 54.985995 59 59 54.985995 59 50 L 59 49 C 59 53.985995 54.985995 58 50 58 L 14 58 C 9.014005 58 5 53.985995 5 49 z " />
</svg>
