<?xml version="1.0" encoding="UTF-8" standalone="no"?>
<!-- Created with Inkscape (http://www.inkscape.org/) -->

<svg
   width="64"
   height="64"
   viewBox="0 0 64 64.000003"
   version="1.1"
   id="svg5"
   sodipodi:docname="google-chrome.svg"
   inkscape:version="1.2.1 (9c6d41e410, 2022-07-14)"
   xmlns:inkscape="http://www.inkscape.org/namespaces/inkscape"
   xmlns:sodipodi="http://sodipodi.sourceforge.net/DTD/sodipodi-0.dtd"
   xmlns:xlink="http://www.w3.org/1999/xlink"
   xmlns="http://www.w3.org/2000/svg"
   xmlns:svg="http://www.w3.org/2000/svg">
  <sodipodi:namedview
     id="namedview7"
     pagecolor="#ffffff"
     bordercolor="#666666"
     borderopacity="1.0"
     inkscape:showpageshadow="2"
     inkscape:pageopacity="0.0"
     inkscape:pagecheckerboard="0"
     inkscape:deskcolor="#d1d1d1"
     inkscape:document-units="px"
     showgrid="false"
     inkscape:zoom="12.375"
     inkscape:cx="32.040404"
     inkscape:cy="19.070707"
     inkscape:window-width="1920"
     inkscape:window-height="1007"
     inkscape:window-x="0"
     inkscape:window-y="0"
     inkscape:window-maximized="1"
     inkscape:current-layer="svg5" />
  <defs
     id="defs2">
    <linearGradient
       inkscape:collect="always"
       xlink:href="#linearGradient12495"
       id="linearGradient12497"
       x1="3.7041574"
       y1="5.15939"
       x2="8.9958239"
       y2="5.15939"
       gradientUnits="userSpaceOnUse" />
    <linearGradient
       inkscape:collect="always"
       id="linearGradient12495">
      <stop
         style="stop-color:#db3328;stop-opacity:1;"
         offset="0"
         id="stop12491" />
      <stop
         style="stop-color:#e53d30;stop-opacity:1"
         offset="1"
         id="stop12493" />
    </linearGradient>
    <linearGradient
       inkscape:collect="always"
       xlink:href="#linearGradient13171"
       id="linearGradient13173"
       x1="4.4023013"
       y1="4.2994838"
       x2="5.9898009"
       y2="7.474484"
       gradientUnits="userSpaceOnUse" />
    <linearGradient
       inkscape:collect="always"
       id="linearGradient13171">
      <stop
         style="stop-color:#32a651;stop-opacity:1;"
         offset="0"
         id="stop13167" />
      <stop
         style="stop-color:#279847;stop-opacity:1"
         offset="1"
         id="stop13169" />
    </linearGradient>
  </defs>
  <rect
     style="fill:#f5f5f5;fill-opacity:1;stroke:none"
     id="rect184"
     width="55"
     height="55"
     x="4.5"
     y="4.5"
     ry="9.5" />
  <ellipse
     style="opacity:0.2;fill:#000000;stroke-width:2.5;stroke-linejoin:round"
     id="path6138"
     cx="32"
     cy="32.999989"
     rx="20"
     ry="19.999985" />
  <g
     id="g13900"
     transform="matrix(4.4465028,0,0,4.4465028,3.7646226,3.7647064)">
    <path
       d="m 6.3499908,1.8520833 c -1.6648002,0 -3.1172325,0.9051142 -3.8949803,2.2495046 L 2.6017322,6.7248018 4.4023011,7.4744838 6.3499908,6.3500302 V 4.1010567 H 10.244704 C 9.4668234,2.7569983 8.014591,1.8520833 6.3499908,1.8520833 Z"
       style="fill:url(#linearGradient12497);fill-opacity:1;stroke-width:0.0175699"
       id="path1309" />
    <path
       d="m 1.8521097,6.3500302 c 0,2.4841174 2.013697,4.4978798 4.4978805,4.4978798 L 8.322717,9.7933342 8.2976798,7.4744838 6.3499902,6.3500302 4.4023011,7.4744838 2.4550101,4.1015879 C 2.0722656,4.7632044 1.8520833,5.5305796 1.8520833,6.3499639"
       style="fill:url(#linearGradient13173);fill-opacity:1;stroke-width:0.0175699"
       id="path1449"
       sodipodi:nodetypes="cccccccc" />
    <path
       d="m 6.3500375,6.3500302 1.947689,1.1244536 -1.947689,3.3734262 c 2.4841163,0 4.4978795,-2.0137624 4.4978795,-4.4978798 0,-0.819517 -0.220254,-1.5871712 -0.603213,-2.2489735 H 6.3499908 Z"
       style="fill:#fbbf12;stroke-width:0.0175699"
       id="path1829" />
    <path
       d="m 8.5990112,6.3500302 c 0,1.2420585 -1.0069151,2.2489734 -2.2489737,2.2489734 -1.242059,0 -2.2489739,-1.0069149 -2.2489739,-2.2489734 0,-1.2420588 1.0069149,-2.2489735 2.2489739,-2.2489735 1.2420586,0 2.2489737,1.0069147 2.2489737,2.2489735"
       style="fill:#ffffff;stroke-width:0.0175699"
       id="path2229" />
    <path
       d="m 8.1492041,6.3500006 c 0,0.9936381 -0.8055294,1.7991654 -1.7991667,1.7991654 -0.9936381,0 -1.7991668,-0.8055273 -1.7991668,-1.7991654 0,-0.9936377 0.8055287,-1.7991663 1.7991668,-1.7991663 0.9936373,0 1.7991667,0.8055286 1.7991667,1.7991663"
       style="fill:#4688f4;fill-opacity:1;stroke-width:0.0172995"
       id="path2029" />
  </g>
  <path
     id="rect2630"
     style="opacity:0.3;fill:#ffffff;fill-opacity:1"
     d="M 14,5 C 9.014005,5 5,9.014005 5,14 v 1 C 5,10.014005 9.014005,6 14,6 h 36 c 4.985995,0 9,4.014005 9,9 V 14 C 59,9.014005 54.985995,5 50,5 Z" />
  <path
     id="rect899"
     style="fill:#000000;stroke:none;opacity:0.6"
     d="M 14,4 C 8.4600055,4 4,8.4600055 4,14 v 36 c 0,5.539994 4.4600055,10 10,10 h 36 c 5.539994,0 10,-4.460006 10,-10 V 14 C 60,8.4600055 55.539994,4 50,4 Z m 0,1 h 36 c 4.985995,0 9,4.014005 9,9 v 36 c 0,4.985995 -4.014005,9 -9,9 H 14 C 9.014005,59 5,54.985995 5,50 V 14 C 5,9.014005 9.014005,5 14,5 Z" />
  <path
     id="rect398"
     style="opacity:0.3;fill:#ffffff"
     d="M 5 49 L 5 50 C 5 54.985995 9.014005 59 14 59 L 50 59 C 54.985995 59 59 54.985995 59 50 L 59 49 C 59 53.985995 54.985995 58 50 58 L 14 58 C 9.014005 58 5 53.985995 5 49 z " />
</svg>
