<?xml version="1.0" encoding="UTF-8" standalone="no"?>
<!-- Created with Inkscape (http://www.inkscape.org/) -->

<svg
   width="64"
   height="64"
   viewBox="0 0 64 64.000003"
   version="1.1"
   id="svg5"
   sodipodi:docname="htop.svg"
   inkscape:version="1.3.2 (091e20ef0f, 2023-11-25, custom)"
   xmlns:inkscape="http://www.inkscape.org/namespaces/inkscape"
   xmlns:sodipodi="http://sodipodi.sourceforge.net/DTD/sodipodi-0.dtd"
   xmlns:xlink="http://www.w3.org/1999/xlink"
   xmlns="http://www.w3.org/2000/svg"
   xmlns:svg="http://www.w3.org/2000/svg">
  <sodipodi:namedview
     id="namedview7"
     pagecolor="#ffffff"
     bordercolor="#666666"
     borderopacity="1.0"
     inkscape:showpageshadow="2"
     inkscape:pageopacity="0.0"
     inkscape:pagecheckerboard="0"
     inkscape:deskcolor="#d1d1d1"
     inkscape:document-units="px"
     showgrid="false"
     inkscape:zoom="13.203125"
     inkscape:cx="31.96213"
     inkscape:cy="32"
     inkscape:window-width="1920"
     inkscape:window-height="1019"
     inkscape:window-x="0"
     inkscape:window-y="0"
     inkscape:window-maximized="1"
     inkscape:current-layer="svg5" />
  <defs
     id="defs2">
    <linearGradient
       inkscape:collect="always"
       xlink:href="#4852"
       id="linearGradient3525"
       x1="50"
       y1="60"
       x2="14"
       y2="4"
       gradientUnits="userSpaceOnUse" />
    <linearGradient
       inkscape:collect="always"
       id="4852">
      <stop
         style="stop-color:#333333;stop-opacity:1"
         offset="0"
         id="stop14555" />
      <stop
         style="stop-color:#666666;stop-opacity:1"
         offset="1"
         id="stop14557" />
    </linearGradient>
  </defs>
  <rect
     style="fill:url(#linearGradient3525);fill-opacity:1.0;stroke:none"
     id="rect184"
     width="55"
     height="55"
     x="4.5"
     y="4.5"
     ry="9.5" />
  <path
     d="m 12,13 v 12 h 4 v -2 h -2 v -8 h 2 v -2 z m 6,0 v 12 h 2 V 13 Z m 4,0 v 12 h 2 V 13 Z m 18,0 v 12 h 2 V 13 Z m 4,0 v 12 h 2 V 13 Z m 4,0 v 2 h 2 v 8 h -2 v 2 h 4 V 13 Z M 12,27 v 12 h 4 v -2 h -2 v -8 h 2 v -2 z m 6,0 v 12 h 2 V 27 Z m 4,0 v 12 h 2 V 27 Z m 4,0 v 12 h 2 V 27 Z m 10,0 v 12 h 2 V 27 Z m 4,0 v 12 h 2 V 27 Z m 4,0 v 12 h 2 V 27 Z m 4,0 v 2 h 2 v 8 h -2 v 2 h 4 V 27 Z M 12,41 v 12 h 4 v -2 h -2 v -8 h 2 v -2 z m 6,0 v 12 h 2 V 41 Z m 4,0 v 12 h 2 V 41 Z m 18,0 v 12 h 2 V 41 Z m 4,0 v 12 h 2 V 41 Z m 4,0 v 2 h 2 v 8 h -2 v 2 h 4 V 41 Z"
     style="opacity:0.2;fill:#000000;stroke-width:4"
     id="path1" />
  <path
     id="path1240"
     style="fill:#8bc34a;stroke-width:4"
     d="m 18,12 v 12 h 2.000002 V 12 Z m 4,0 v 12 h 2 V 12 Z m -4,14 v 12 h 2.000002 V 26 Z m 4,0 v 12 h 2 V 26 Z m -4,14 v 12 h 2.000002 V 40 Z m 4,0 v 12 h 2 V 40 Z"
     sodipodi:nodetypes="cccccccccccccccccccccccccccccc" />
  <path
     d="M 26.000002,26 V 38 H 28 V 26 Z M 36,26 v 12 h 2 V 26 Z"
     style="fill:#ff9800;stroke-width:2"
     id="path1212"
     sodipodi:nodetypes="cccccccccc" />
  <path
     id="path1128"
     style="fill:#ff5722;stroke-width:2"
     d="m 40.000002,12 v 12 h 2 V 12 Z m 4,0 v 12 h 2 V 12 Z m -4,14 v 12 h 2 V 26 Z m 4,0 v 12 h 2 V 26 Z m -4,14 v 12 h 2 V 40 Z m 4,0 v 12 h 2 V 40 Z"
     sodipodi:nodetypes="cccccccccccccccccccccccccccccc" />
  <path
     id="path1156"
     style="fill:#f9f9f9;stroke-width:2"
     d="m 12,12 v 12 h 4 v -2 h -2 v -8 h 2 v -2 z m 36,0 v 2 h 2 v 8 h -2 v 2 h 4 V 12 Z M 12,26 v 12 h 4 v -2 h -2 v -8 h 2 v -2 z m 36,0 v 2 h 2 v 8 h -2 v 2 h 4 V 26 Z M 12,40 v 12 h 4 v -2 h -2 v -8 h 2 v -2 z m 36,0 v 2 h 2 v 8 h -2 v 2 h 4 V 40 Z"
     sodipodi:nodetypes="cccccccccccccccccccccccccccccccccccccccccccccccccccccc" />
  <path
     id="rect2630"
     style="opacity:0.3;fill:#ffffff;fill-opacity:1"
     d="M 14,5 C 9.014005,5 5,9.014005 5,14 v 1 C 5,10.014005 9.014005,6 14,6 h 36 c 4.985995,0 9,4.014005 9,9 V 14 C 59,9.014005 54.985995,5 50,5 Z" />
  <path
     id="rect899"
     style="fill:#000000;stroke:none;opacity:0.6"
     d="M 14,4 C 8.4600055,4 4,8.4600055 4,14 v 36 c 0,5.539994 4.4600055,10 10,10 h 36 c 5.539994,0 10,-4.460006 10,-10 V 14 C 60,8.4600055 55.539994,4 50,4 Z m 0,1 h 36 c 4.985995,0 9,4.014005 9,9 v 36 c 0,4.985995 -4.014005,9 -9,9 H 14 C 9.014005,59 5,54.985995 5,50 V 14 C 5,9.014005 9.014005,5 14,5 Z" />
  <path
     id="rect398"
     style="opacity:0.3;fill:#ffffff"
     d="M 5 49 L 5 50 C 5 54.985995 9.014005 59 14 59 L 50 59 C 54.985995 59 59 54.985995 59 50 L 59 49 C 59 53.985995 54.985995 58 50 58 L 14 58 C 9.014005 58 5 53.985995 5 49 z " />
</svg>
