<?xml version="1.0" encoding="UTF-8" standalone="no"?>
<!-- Created with Inkscape (http://www.inkscape.org/) -->

<svg
   width="64"
   height="64"
   viewBox="0 0 64 64.000003"
   version="1.1"
   id="svg5"
   sodipodi:docname="hwinfo.svg"
   inkscape:version="1.2.1 (9c6d41e410, 2022-07-14)"
   xmlns:inkscape="http://www.inkscape.org/namespaces/inkscape"
   xmlns:sodipodi="http://sodipodi.sourceforge.net/DTD/sodipodi-0.dtd"
   xmlns:xlink="http://www.w3.org/1999/xlink"
   xmlns="http://www.w3.org/2000/svg"
   xmlns:svg="http://www.w3.org/2000/svg">
  <sodipodi:namedview
     id="namedview7"
     pagecolor="#ffffff"
     bordercolor="#666666"
     borderopacity="1.0"
     inkscape:showpageshadow="2"
     inkscape:pageopacity="0.0"
     inkscape:pagecheckerboard="0"
     inkscape:deskcolor="#d1d1d1"
     inkscape:document-units="px"
     showgrid="false"
     inkscape:zoom="6.25"
     inkscape:cx="41.12"
     inkscape:cy="40.64"
     inkscape:window-width="1920"
     inkscape:window-height="1012"
     inkscape:window-x="0"
     inkscape:window-y="0"
     inkscape:window-maximized="1"
     inkscape:current-layer="svg5" />
  <defs
     id="defs2">
    <linearGradient
       inkscape:collect="always"
       id="linearGradient14653">
      <stop
         style="stop-color:#4c972d;stop-opacity:1;"
         offset="0"
         id="stop14649" />
      <stop
         style="stop-color:#86d075;stop-opacity:1;"
         offset="1"
         id="stop14651" />
    </linearGradient>
    <linearGradient
       inkscape:collect="always"
       xlink:href="#linearGradient21236"
       id="linearGradient3871"
       x1="30"
       y1="59"
       x2="30"
       y2="3"
       gradientUnits="userSpaceOnUse"
       gradientTransform="translate(2,1)" />
    <linearGradient
       inkscape:collect="always"
       xlink:href="#linearGradient14653"
       id="linearGradient4605"
       x1="50"
       y1="60"
       x2="14"
       y2="4"
       gradientUnits="userSpaceOnUse" />
    <linearGradient
       inkscape:collect="always"
       id="linearGradient21236">
      <stop
         style="stop-color:#3689e6;stop-opacity:1;"
         offset="0"
         id="stop21232" />
      <stop
         style="stop-color:#5dcffc;stop-opacity:1;"
         offset="1"
         id="stop21234" />
    </linearGradient>
  </defs>
  <rect
     style="fill:url(#linearGradient4605);fill-opacity:1;stroke:none"
     id="rect184"
     width="55"
     height="55"
     x="4.5"
     y="4.5"
     ry="9.5" />
  <path
     d="m 10,17 v 3 h 44 v -3 z m 0,6 v 3.000001 H 54 V 23 Z m 0,6 v 3 h 44 v -3 z m 0,6.000001 v 3 h 44 v -3 z M 10,41 v 3.000001 H 54 V 41 Z m 0,6.000001 v 3 h 44 v -3 z"
     style="color:#000000;display:inline;overflow:visible;visibility:visible;opacity:0.2;fill:#000000;fill-opacity:1;fill-rule:nonzero;stroke:none;stroke-width:6.3;marker:none;enable-background:new"
     id="path798"
     sodipodi:nodetypes="cccccccccccccccccccccccccccccc" />
  <path
     d="m 10,16 v 3 h 44 v -3 z m 0,6 v 3.000001 H 54 V 22 Z m 0,6 v 3 h 44 v -3 z m 0,6 v 3 h 44 v -3 z m 0,5.999999 V 43 H 54 V 39.999999 Z M 10,46 v 3 h 44 v -3 z"
     style="color:#000000;display:inline;overflow:visible;visibility:visible;fill:#d6d6d6;fill-opacity:1;fill-rule:nonzero;stroke:none;stroke-width:6.3;marker:none;enable-background:new"
     id="path592"
     sodipodi:nodetypes="cccccccccccccccccccccccccccccc" />
  <path
     id="rect2630"
     style="opacity:0.3;fill:#ffffff;fill-opacity:1"
     d="M 14,5 C 9.014005,5 5,9.014005 5,14 v 1 C 5,10.014005 9.014005,6 14,6 h 36 c 4.985995,0 9,4.014005 9,9 V 14 C 59,9.014005 54.985995,5 50,5 Z" />
  <path
     id="rect899"
     style="fill:#000000;stroke:none;opacity:0.5"
     d="M 14,4 C 8.4600055,4 4,8.4600055 4,14 v 36 c 0,5.539994 4.4600055,10 10,10 h 36 c 5.539994,0 10,-4.460006 10,-10 V 14 C 60,8.4600055 55.539994,4 50,4 Z m 0,1 h 36 c 4.985995,0 9,4.014005 9,9 v 36 c 0,4.985995 -4.014005,9 -9,9 H 14 C 9.014005,59 5,54.985995 5,50 V 14 C 5,9.014005 9.014005,5 14,5 Z" />
  <path
     id="rect398"
     style="opacity:0.3;fill:#ffffff"
     d="M 5 49 L 5 50 C 5 54.985995 9.014005 59 14 59 L 50 59 C 54.985995 59 59 54.985995 59 50 L 59 49 C 59 53.985995 54.985995 58 50 58 L 14 58 C 9.014005 58 5 53.985995 5 49 z " />
  <rect
     style="opacity:0.2;fill:#000000;stroke-width:3;stroke-linecap:round;stroke-linejoin:round"
     id="rect823"
     width="38"
     height="39"
     x="13"
     y="14"
     ry="2" />
  <rect
     style="opacity:1;fill:url(#linearGradient3871);fill-opacity:1.0;stroke-width:3;stroke-linecap:round;stroke-linejoin:round"
     id="rect848"
     width="38"
     height="39"
     x="13"
     y="13"
     ry="2" />
  <path
     id="path599"
     style="opacity:0.2;fill:#000000;fill-opacity:1;stroke-width:15;stroke-linecap:round;stroke-linejoin:round"
     d="m 30,20 v 3.999875 h 4 v -3.999874 z m 0,7.999875 v 18 h 4 v -18 z"
     sodipodi:nodetypes="cccccccccc" />
  <path
     id="path1151"
     style="fill:#ffffff;fill-opacity:1;stroke-width:15;stroke-linecap:round;stroke-linejoin:round"
     d="m 30,19 v 4.00025 h 4 V 19 Z m 0,8.00075 v 17.999251 h 4 V 27.00075 Z"
     sodipodi:nodetypes="cccccccccc" />
</svg>
