<?xml version="1.0" encoding="UTF-8" standalone="no"?>
<!-- Created with Inkscape (http://www.inkscape.org/) -->

<svg
   width="64"
   height="64"
   viewBox="0 0 64 64.000003"
   version="1.1"
   id="svg5"
   sodipodi:docname="java.svg"
   inkscape:version="1.2.1 (9c6d41e410, 2022-07-14)"
   xmlns:inkscape="http://www.inkscape.org/namespaces/inkscape"
   xmlns:sodipodi="http://sodipodi.sourceforge.net/DTD/sodipodi-0.dtd"
   xmlns:xlink="http://www.w3.org/1999/xlink"
   xmlns="http://www.w3.org/2000/svg"
   xmlns:svg="http://www.w3.org/2000/svg">
  <sodipodi:namedview
     id="namedview7"
     pagecolor="#ffffff"
     bordercolor="#666666"
     borderopacity="1.0"
     inkscape:showpageshadow="2"
     inkscape:pageopacity="0.0"
     inkscape:pagecheckerboard="0"
     inkscape:deskcolor="#d1d1d1"
     inkscape:document-units="px"
     showgrid="false"
     inkscape:zoom="12.421875"
     inkscape:cx="31.959748"
     inkscape:cy="32"
     inkscape:window-width="1920"
     inkscape:window-height="1007"
     inkscape:window-x="0"
     inkscape:window-y="0"
     inkscape:window-maximized="1"
     inkscape:current-layer="svg5"
     showguides="true" />
  <defs
     id="defs2">
    <linearGradient
       inkscape:collect="always"
       xlink:href="#linearGradient22024"
       id="linearGradient3525"
       x1="50"
       y1="60"
       x2="14"
       y2="4"
       gradientUnits="userSpaceOnUse" />
    <linearGradient
       inkscape:collect="always"
       id="linearGradient22024">
      <stop
         style="stop-color:#dedede;stop-opacity:1;"
         offset="0"
         id="stop22020" />
      <stop
         style="stop-color:#f5f5f5;stop-opacity:1;"
         offset="1"
         id="stop22022" />
    </linearGradient>
  </defs>
  <rect
     style="fill:url(#linearGradient3525);fill-opacity:1;stroke:none"
     id="rect184"
     width="55"
     height="55"
     x="4.5"
     y="4.5"
     ry="9.5" />
  <path
     id="path3787"
     style="fill:#000000;stroke-width:0.667293;opacity:0.2"
     d="m 35.800775,13 c 1.590771,6.604085 -5.611311,8.598123 -8.21083,12.710771 -1.770197,2.801789 0.866664,5.81409 4.464785,9.234253 -1.403102,-3.341872 -6.159669,-6.265062 0.004,-11.39438 C 39.744531,17.158893 35.800775,13 35.800775,13 Z m 4.753843,8.167861 c 8.4e-5,0 -12.996041,3.420929 -6.788975,10.956888 1.832282,2.222253 -0.480461,4.222601 -0.480461,4.222601 0,0 4.650555,-2.531181 2.515593,-5.699144 -1.99474,-2.952959 -3.525388,-4.421164 4.753843,-9.480345 z m 2.30075,13.464667 c -0.45664,8.98e-4 -0.940046,0.08536 -1.437481,0.269528 -0.398823,0.148739 -0.609366,0.492182 -0.609366,0.492182 0,0 0.254229,-0.106859 0.816395,-0.230467 2.298916,-0.504807 5.591813,3.241658 -1.53123,7.140532 -0.033,0.0929 -0.144618,0.199218 -0.144538,0.199218 8.471163,-2.346129 6.624577,-7.878305 2.906212,-7.870991 z m -15.609169,0.378901 c -0.908136,0.02504 -3.033084,0.232803 -5.503834,1.492168 -3.897297,1.985398 9.636334,2.891181 16.644312,0.949206 0.728492,-0.523847 1.734353,-0.976549 1.734353,-0.976549 0,0 -2.866734,0.536519 -5.722581,0.789051 -3.49528,0.308986 -7.242739,0.370834 -9.12488,0.105459 -4.456244,-0.627688 2.441374,-2.355439 2.441374,-2.355439 0,0 -0.166038,-0.0122 -0.468744,-0.004 z m -1.136703,4.54291 c -6.428098,2.248043 3.577429,4.800203 12.562335,2.031224 -0.954633,-0.354552 -1.558573,-1.003893 -1.558573,-1.003893 -4.392795,0.89077 -6.930352,0.861311 -10.144399,0.511711 -2.484844,-0.270556 -0.859363,-1.539042 -0.859363,-1.539042 z m 0.910144,4.378849 c -5.837165,1.718463 3.547837,5.269061 10.980324,1.914037 -1.217294,-0.498432 -2.089817,-1.074204 -2.089817,-1.074204 -3.314356,0.660091 -4.850782,0.713459 -7.859271,0.351557 -2.482957,-0.300008 -1.031236,-1.19139 -1.031236,-1.19139 z m -4.054635,2.902306 c -2.621353,0.0852 -7.750774,2.569406 -3.06246,3.37105 15.152318,2.58781 27.621544,-1.166777 23.691095,-3.035117 0,0 1.075884,0.93525 -1.179672,1.656227 -4.288974,1.368738 -17.85679,1.781552 -21.624716,0.05468 -1.353488,-0.621154 1.185388,-1.482187 1.98435,-1.66404 0.833091,-0.189898 1.308577,-0.156258 1.308577,-0.156258 -0.235375,-0.174638 -0.631738,-0.242339 -1.117174,-0.226559 z m 23.034854,2.374969 c 0,0 -0.47617,1.291209 -5.648364,2.316375 -5.835085,1.157429 -13.036615,1.023719 -17.304459,0.281247 0,0 0.874469,0.761794 5.367116,1.066392 6.835706,0.460472 17.337372,-0.255709 17.585707,-3.664014 z"
     sodipodi:nodetypes="ccccccccccccccccccccccccccccccccccccccccccccccccccc" />
  <path
     d="m 42.855368,33.632528 c -0.45664,8.98e-4 -0.940046,0.08536 -1.437481,0.269528 -0.398823,0.148739 -0.609366,0.492182 -0.609366,0.492182 0,0 0.254229,-0.106859 0.816395,-0.230467 2.298916,-0.504807 5.591813,3.241658 -1.53123,7.140532 -0.033,0.0929 -0.144618,0.199218 -0.144538,0.199218 8.471163,-2.346129 6.624577,-7.878305 2.906212,-7.870991 z m -15.609169,0.378901 c -0.908136,0.02504 -3.033084,0.232803 -5.503834,1.492168 -3.897297,1.985398 9.636334,2.891181 16.644312,0.949206 0.728492,-0.523847 1.734353,-0.976549 1.734353,-0.976549 0,0 -2.866734,0.536519 -5.722581,0.789051 -3.49528,0.308986 -7.242739,0.370834 -9.12488,0.105459 -4.456244,-0.627688 2.441374,-2.355439 2.441374,-2.355439 0,0 -0.166038,-0.0122 -0.468744,-0.004 z m -1.136703,4.54291 c -6.428098,2.248043 3.577429,4.800203 12.562335,2.031224 -0.954633,-0.354552 -1.558573,-1.003893 -1.558573,-1.003893 -4.392795,0.89077 -6.930352,0.861311 -10.144399,0.511711 -2.484844,-0.270556 -0.859363,-1.539042 -0.859363,-1.539042 z m 0.910144,4.378849 c -5.837165,1.718463 3.547837,5.269061 10.980324,1.914037 -1.217294,-0.498432 -2.089817,-1.074204 -2.089817,-1.074204 -3.314356,0.660091 -4.850782,0.713459 -7.859271,0.351557 -2.482957,-0.300008 -1.031236,-1.19139 -1.031236,-1.19139 z m -4.054635,2.902306 c -2.621353,0.0852 -7.750774,2.569406 -3.06246,3.37105 15.152318,2.58781 27.621544,-1.166777 23.691095,-3.035117 0,0 1.075884,0.93525 -1.179672,1.656227 -4.288974,1.368738 -17.85679,1.781552 -21.624716,0.05468 -1.353488,-0.621154 1.185388,-1.482187 1.98435,-1.66404 0.833091,-0.189898 1.308577,-0.156258 1.308577,-0.156258 -0.235375,-0.174638 -0.631738,-0.242339 -1.117174,-0.226559 z m 23.034854,2.374969 c 0,0 -0.47617,1.291209 -5.648364,2.316375 -5.835085,1.157429 -13.036615,1.023719 -17.304459,0.281247 0,0 0.874469,0.761794 5.367116,1.066392 6.835706,0.460472 17.337372,-0.255709 17.585707,-3.664014 z"
     style="fill:#5a87b6;stroke-width:0.667293;fill-opacity:1"
     id="path4299" />
  <path
     d="m 35.800775,12 c 1.590771,6.604085 -5.611311,8.598123 -8.21083,12.710771 -1.770197,2.801789 0.866664,5.81409 4.464785,9.234254 -1.403102,-3.341873 -6.159669,-6.265062 0.004,-11.394381 C 39.744531,16.158893 35.800775,12 35.800775,12 Z m 4.753843,8.167861 c 8.4e-5,0 -12.996041,3.42093 -6.788975,10.956888 1.832282,2.222254 -0.480461,4.222603 -0.480461,4.222603 0,0 4.650555,-2.531182 2.515593,-5.699146 -1.99474,-2.952959 -3.525388,-4.421164 4.753843,-9.480345 z"
     style="fill:#ff9955;stroke-width:0.667293"
     id="path4332" />
  <path
     id="rect2630"
     style="opacity:0.3;fill:#ffffff;fill-opacity:1"
     d="M 14,5 C 9.014005,5 5,9.014005 5,14 v 1 C 5,10.014005 9.014005,6 14,6 h 36 c 4.985995,0 9,4.014005 9,9 V 14 C 59,9.014005 54.985995,5 50,5 Z" />
  <path
     id="rect899"
     style="fill:#000000;stroke:none;opacity:0.6"
     d="M 14,4 C 8.4600055,4 4,8.4600055 4,14 v 36 c 0,5.539994 4.4600055,10 10,10 h 36 c 5.539994,0 10,-4.460006 10,-10 V 14 C 60,8.4600055 55.539994,4 50,4 Z m 0,1 h 36 c 4.985995,0 9,4.014005 9,9 v 36 c 0,4.985995 -4.014005,9 -9,9 H 14 C 9.014005,59 5,54.985995 5,50 V 14 C 5,9.014005 9.014005,5 14,5 Z" />
  <path
     id="rect398"
     style="opacity:0.3;fill:#ffffff"
     d="M 5 49 L 5 50 C 5 54.985995 9.014005 59 14 59 L 50 59 C 54.985995 59 59 54.985995 59 50 L 59 49 C 59 53.985995 54.985995 58 50 58 L 14 58 C 9.014005 58 5 53.985995 5 49 z " />
</svg>
