<?xml version="1.0" encoding="UTF-8" standalone="no"?>
<!-- Created with Inkscape (http://www.inkscape.org/) -->

<svg
   width="64"
   height="64"
   viewBox="0 0 64 64.000003"
   version="1.1"
   id="svg5"
   sodipodi:docname="kate.svg"
   inkscape:version="1.2.1 (9c6d41e410, 2022-07-14)"
   xmlns:inkscape="http://www.inkscape.org/namespaces/inkscape"
   xmlns:sodipodi="http://sodipodi.sourceforge.net/DTD/sodipodi-0.dtd"
   xmlns:xlink="http://www.w3.org/1999/xlink"
   xmlns="http://www.w3.org/2000/svg"
   xmlns:svg="http://www.w3.org/2000/svg">
  <sodipodi:namedview
     id="namedview7"
     pagecolor="#ffffff"
     bordercolor="#666666"
     borderopacity="1.0"
     inkscape:showpageshadow="2"
     inkscape:pageopacity="0.0"
     inkscape:pagecheckerboard="0"
     inkscape:deskcolor="#d1d1d1"
     inkscape:document-units="px"
     showgrid="false"
     inkscape:zoom="6.5"
     inkscape:cx="-21.076923"
     inkscape:cy="18.923077"
     inkscape:window-width="1920"
     inkscape:window-height="1012"
     inkscape:window-x="0"
     inkscape:window-y="0"
     inkscape:window-maximized="1"
     inkscape:current-layer="svg5" />
  <defs
     id="defs2">
    <linearGradient
       inkscape:collect="always"
       xlink:href="#linearGradient1493"
       id="linearGradient3525"
       x1="50"
       y1="60"
       x2="14"
       y2="4"
       gradientUnits="userSpaceOnUse" />
    <linearGradient
       inkscape:collect="always"
       id="linearGradient1493">
      <stop
         style="stop-color:#197cf1;stop-opacity:1;"
         offset="0"
         id="stop1489" />
      <stop
         style="stop-color:#20bcfa;stop-opacity:1;"
         offset="1"
         id="stop1491" />
    </linearGradient>
  </defs>
  <rect
     style="fill:url(#linearGradient3525);fill-opacity:1;stroke:none"
     id="rect184"
     width="55"
     height="55"
     x="4.5"
     y="4.5"
     ry="9.5" />
  <path
     d="m 30.351564,13.000004 c -3.049142,-0.0024 -6.56038,0.872552 -9.960938,3.335938 -3.32275,2.407032 -4.778856,3.059296 -6.390626,3.859376 1.412908,0.1078 9.760472,-1.073666 11.476562,3.695312 -6.155874,2.03105 -8.552468,5.346304 -7.734374,9.195312 0.1248,0.664548 0.345688,1.35949 0.6875,2.078126 0.361888,0.760838 0.77544,1.412866 1.226562,1.992188 0.013,0.0184 0.02588,0.0364 0.03908,0.05468 2.81979,3.5706 7.256402,4.126316 12.054688,7.33594 C 36.117146,47.468084 37.564902,48.950808 40.38283,53 39.796822,47.405292 36.710996,40.200428 35.445312,37.023444 l -0.0078,-0.0236 C 39.397354,39.908708 44.093,41.17458 49.625,41.57032 40.785342,35.277872 39.106606,33.78943 34.046876,29.476568 c -3.394532,0.17104 -3.021692,0.14306 -5.023438,0.257812 0.236946,0.394984 0.481776,0.769802 0.726562,1.140624 2.055528,3.607726 2.476556,8.135396 -1.867188,9.039064 -4.509966,0.93824 -9.431654,-2.955446 -8.195312,-7.125 1.342526,-4.527624 7.70966,-3.659912 13.789064,-4.445314 6.079394,-0.785396 11.635536,-6.743174 14.97656,-11.15625 -4.8102,1.641226 -10.94615,3.150814 -17.781248,5.132814 -1.331528,-2.723992 -2.65128,-7.433278 6.296876,-7.773438 -1.59082,-0.863182 -3.926772,-1.544768 -6.617188,-1.546876 z"
     style="opacity:0.2;fill:#000000;fill-opacity:1;stroke-width:1.42857"
     id="path8081" />
  <path
     style="fill:#cccccc;fill-opacity:1;stroke-width:1.42857"
     d="M 25.5473,23.128752 C 24.027072,18.081828 15.436024,19.306494 14,19.196926 c 1.611772,-0.800082 3.059192,-0.504178 6.381944,-2.91121 6.401056,-4.636968 10.891968,-4.6986 14.285716,-2.857144 -9.27802,0.352696 -5.215212,5.524854 -3.848644,8.188192 -1.737872,0.504798 -4.481232,1.266824 -5.271716,1.511988 z"
     id="path10" />
  <path
     style="fill:#f2f2f2;stroke-width:1.42857"
     d="m 48.449292,16.183958 c -3.341028,4.413082 -8.895824,10.375456 -14.975228,11.160854 -6.079408,0.785404 -12.446472,-0.08464 -13.789,4.44298 -1.236344,4.16956 3.683344,8.062468 8.193316,7.124228 4.81806,-1.002344 3.777528,-6.463264 1.142232,-10.182016 2.001752,-0.11474 0.823936,0.583968 4.218472,0.412846 l 2.204872,6.874974 C 36.70964,39.194812 39.795956,46.40528 40.381944,52 37.564012,47.950804 36.11464,46.462732 31.747508,43.54152 26.153496,39.799632 21.051648,39.672952 18.429464,34.160012 15.81294,28.65898 19.847596,24.696372 26.044956,22.980288 34.901432,20.527872 42.532464,18.20276 48.449292,16.183958 Z"
     id="path12" />
  <path
     style="fill:#cccccc;fill-opacity:1;stroke-width:1.42857"
     d="m 29.02062,28.730004 c 2.001748,-0.11474 1.629384,-0.08512 5.02392,-0.25616 5.059736,4.312868 6.736832,5.805136 15.576496,12.097588 C 40.735988,39.935828 34.01332,37.052752 29.02062,28.730004 Z"
     id="path14" />
  <path
     style="fill:#e6e6e6;fill-opacity:1;stroke-width:1.42857"
     d="m 14,19.196926 c 1.611772,-0.800082 3.068352,-1.459578 6.391104,-3.866614 6.40106,-4.636964 13.17808,-3.625706 16.571828,-1.784252 -9.27802,0.3527 -8.082572,2.20133 -8.116808,3.650544 C 22.681784,15.897242 20.881924,17.665146 14,19.196926 Z"
     id="path16" />
  <path
     style="fill:#f2f2f2;stroke-width:1.42857"
     d="m 36.962932,13.54606 c -9.27802,0.3527 -7.510484,5.407366 -6.143916,8.070704 -1.082692,0.314488 -1.542592,0.672756 -2.989928,1.055804 -5.839856,-10.405632 4.367488,-11.759342 9.133844,-9.126508 z"
     id="path18" />
  <path
     style="fill:#e6e6e6;fill-opacity:1;stroke-width:1.42857"
     d="M 20.10014,36.752288 C 15.559988,30.90628 16.969612,25.547904 25.859892,22.76387 34.633128,20.016486 42.532464,18.20276 48.449292,16.183958 32.481968,22.267854 11.91642,26.333088 20.10014,36.752288 Z"
     id="path20" />
  <path
     id="rect2630"
     style="opacity:0.3;fill:#ffffff;fill-opacity:1"
     d="M 14,5 C 9.014005,5 5,9.014005 5,14 v 1 C 5,10.014005 9.014005,6 14,6 h 36 c 4.985995,0 9,4.014005 9,9 V 14 C 59,9.014005 54.985995,5 50,5 Z" />
  <path
     id="rect899"
     style="fill:#000000;stroke:none;opacity:0.6"
     d="M 14,4 C 8.4600055,4 4,8.4600055 4,14 v 36 c 0,5.539994 4.4600055,10 10,10 h 36 c 5.539994,0 10,-4.460006 10,-10 V 14 C 60,8.4600055 55.539994,4 50,4 Z m 0,1 h 36 c 4.985995,0 9,4.014005 9,9 v 36 c 0,4.985995 -4.014005,9 -9,9 H 14 C 9.014005,59 5,54.985995 5,50 V 14 C 5,9.014005 9.014005,5 14,5 Z" />
  <path
     id="rect398"
     style="opacity:0.3;fill:#ffffff"
     d="M 5 49 L 5 50 C 5 54.985995 9.014005 59 14 59 L 50 59 C 54.985995 59 59 54.985995 59 50 L 59 49 C 59 53.985995 54.985995 58 50 58 L 14 58 C 9.014005 58 5 53.985995 5 49 z " />
</svg>
