<?xml version="1.0" encoding="UTF-8" standalone="no"?>
<!-- Created with Inkscape (http://www.inkscape.org/) -->

<svg
   width="64"
   height="64"
   viewBox="0 0 64 64.000003"
   version="1.1"
   id="svg5"
   sodipodi:docname="kleopatra.svg"
   inkscape:version="1.2.1 (9c6d41e410, 2022-07-14)"
   xmlns:inkscape="http://www.inkscape.org/namespaces/inkscape"
   xmlns:sodipodi="http://sodipodi.sourceforge.net/DTD/sodipodi-0.dtd"
   xmlns:xlink="http://www.w3.org/1999/xlink"
   xmlns="http://www.w3.org/2000/svg"
   xmlns:svg="http://www.w3.org/2000/svg">
  <sodipodi:namedview
     id="namedview7"
     pagecolor="#ffffff"
     bordercolor="#666666"
     borderopacity="1.0"
     inkscape:showpageshadow="2"
     inkscape:pageopacity="0.0"
     inkscape:pagecheckerboard="0"
     inkscape:deskcolor="#d1d1d1"
     inkscape:document-units="px"
     showgrid="false"
     inkscape:zoom="12.34375"
     inkscape:cx="32.121519"
     inkscape:cy="32.040506"
     inkscape:window-width="1920"
     inkscape:window-height="1007"
     inkscape:window-x="0"
     inkscape:window-y="0"
     inkscape:window-maximized="1"
     inkscape:current-layer="svg5" />
  <defs
     id="defs2">
    <linearGradient
       inkscape:collect="always"
       xlink:href="#linearGradient1617"
       id="linearGradient3525"
       x1="50"
       y1="60"
       x2="14"
       y2="4"
       gradientUnits="userSpaceOnUse" />
    <linearGradient
       inkscape:collect="always"
       id="linearGradient1617">
      <stop
         style="stop-color:#d5a43a;stop-opacity:1;"
         offset="0"
         id="stop1613" />
      <stop
         style="stop-color:#e0bc6f;stop-opacity:1;"
         offset="1"
         id="stop1615" />
    </linearGradient>
  </defs>
  <rect
     style="fill:url(#linearGradient3525);fill-opacity:1.0;stroke:none"
     id="rect184"
     width="55"
     height="55"
     x="4.5"
     y="4.5"
     ry="9.5" />
  <path
     d="m 28.620704,17 c -3.683012,0 -7.562124,0.957749 -11.548828,2.849609 -3.245068,1.539921 -4.632558,2.810432 -3.865235,3.541016 0.270677,0.257721 0.08352,0.311379 4.628907,-1.375 3.106346,-1.152476 6.92688,-2.124792 8.992187,-2.291016 3.18901,-0.256663 6.987145,0.541445 13.710938,2.878907 2.414532,0.839388 5.191246,1.721068 6.169922,1.958984 2.093088,0.508826 2.313516,0.429904 4.058594,0.435547 l 1.232421,0.002 V 24.002 c 0,-1.138409 -0.142178,-1.046875 -1.65039,-1.046875 -3.362373,0 -4.2011,-0.515986 -9.261719,-2.65039 C 35.667129,18.018518 32.38343,17 28.620704,17 Z m -2.261719,8.011719 c -0.571666,0.02098 -1.081828,0.07367 -1.492187,0.158203 -1.892646,0.389848 -4.427731,1.806524 -5.982422,3.24414 -2.409835,2.228368 -5.133909,6.394831 -4.867188,7.445314 0.12011,0.473044 0.247701,0.505053 2.371094,0.59375 1.232654,0.0515 3.646738,0.330808 5.539063,0.619141 l 3.482422,0.521484 v 1.466797 c -0.593536,2.6883 -0.170065,4.140076 -0.06445,5.119141 0.395545,3.543447 0.400684,3.929102 1.316407,3.800781 1.414595,-2.299571 1.376469,-6.710333 1.386718,-9.251953 l 1.44336,1.398437 c 3.954509,3.487941 5.419033,3.738352 8.810547,5.369141 2.805146,1.143344 5.210164,1.649941 7.919922,1.453125 1.665739,0 3.768853,-1.846194 3.767578,-3.980469 -6.85e-4,-1.645709 -0.464653,-3.035737 -1.591797,-3.564453 -2.072128,-0.971978 -4.369141,0.180717 -4.369141,2.337891 0,2.117206 2.040543,3.293499 3.394531,1.955078 0.564805,-0.558314 0.70382,-1.500127 0.302735,-2.066407 -0.178008,-0.251331 -0.197086,-0.209397 -0.08594,0.179688 0.383609,1.342724 -0.662368,2.273078 -1.865234,1.658203 -1.257098,-0.642595 -1.019041,-2.706831 0.351563,-3.046875 0.677014,-0.167971 1.862744,0.9168 2.30664,1.8125 0.239213,0.482668 0.248037,0.776676 0.04297,1.453125 -0.672609,2.219156 -3.695056,2.230468 -8.24414,0.03711 -1.102673,-0.531661 -2.581303,-1.333509 -3.285156,-1.783203 -1.213115,-0.77506 -2.792849,-1.725366 -4.910157,-3.564453 -1.121639,-0.97426 -1.185105,-0.840767 1.740235,-1.3125 0.841034,-0.135611 3.300241,-0.841818 5.46289,-1.568359 3.842052,-1.290728 3.988017,-1.594631 6.335938,-1.611328 1.321626,-0.0095 -0.874339,-0.09233 1.318359,0.002 l 4.105467,0.169874 V 32.115234 29.978516 L 46.239845,29.861328 C 39.602898,29.68902 42.838376,29.535956 35.987892,26.919922 34.679794,26.420393 33.285346,25.81652 32.370704,25.580078 30.748696,25.160772 28.073977,24.948794 26.358985,25.011719 Z m 7.771485,3.404297 c 0.07953,0 1.211619,0.635337 3.037109,1.408203 1.825491,0.772864 3.556062,1.461826 3.84375,1.533203 0.2877,0.07139 0.521485,0.20731 0.521485,0.298828 0,0.09152 -1.105368,0.709607 -2.457032,1.373048 -2.756489,1.352968 -4.391243,1.920066 -7.054687,2.050781 l -0.65625,0.02734 0.708984,-0.552734 c 0.390553,-0.304261 0.980213,-1.007021 1.310547,-1.562501 0.524088,-0.881275 0.601563,-1.236508 0.601563,-2.791016 0,-0.979821 0.065,-1.785159 0.144531,-1.785156 z m -11.494141,0.470703 c 0.327391,-0.06133 0.325055,0.440716 0.328125,1.443359 0.0062,1.973126 0.485397,3.048305 1.863281,4.179689 l 0.900391,0.738281 -4.632812,-0.388672 c -2.250172,-0.212178 -3.997578,-0.43187 -4.058595,-0.492187 -0.2187,-0.216178 1.389313,-1.868196 3.158204,-3.546877 1.31707,-1.249898 2.114014,-1.872274 2.441406,-1.933593 z"
     style="fill:#000000;opacity:0.2"
     id="path822" />
  <path
     d="m 28.620704,16 c -3.683012,0 -7.562124,0.957749 -11.548828,2.849609 -3.245068,1.539921 -4.632558,2.810432 -3.865235,3.541016 0.270677,0.257721 0.08352,0.311379 4.628907,-1.375 3.106346,-1.152476 6.92688,-2.124792 8.992187,-2.291016 3.18901,-0.256663 6.987145,0.541445 13.710938,2.878907 2.414532,0.839388 5.191246,1.721068 6.169922,1.958984 2.093088,0.508826 2.313516,0.429904 4.058594,0.435547 l 1.232421,0.002 V 23.002 c 0,-1.138409 -0.142178,-1.046875 -1.65039,-1.046875 -3.362373,0 -4.2011,-0.515986 -9.261719,-2.65039 C 35.667129,17.018518 32.38343,16 28.620704,16 Z m -2.261719,8.011719 c -0.571666,0.02098 -1.081828,0.07367 -1.492187,0.158203 -1.892646,0.389848 -4.427731,1.806524 -5.982422,3.24414 -2.409835,2.228368 -5.133909,6.39483 -4.867188,7.445313 0.12011,0.473044 0.247701,0.505053 2.371094,0.59375 1.232654,0.0515 3.646738,0.330808 5.539063,0.619141 l 3.482422,0.521484 v 1.466797 c -0.593536,2.6883 -0.170065,4.140076 -0.06445,5.119141 0.395545,3.543447 0.400684,3.929102 1.316407,3.800781 1.414595,-2.299571 1.376469,-6.710333 1.386718,-9.251953 l 1.44336,1.398437 c 3.954509,3.487941 5.419033,3.738352 8.810547,5.369141 2.805146,1.143344 5.210164,1.649941 7.919922,1.453125 1.665739,0 3.768853,-1.846194 3.767578,-3.980469 -6.85e-4,-1.645709 -0.464653,-3.035737 -1.591797,-3.564453 -2.072128,-0.971978 -4.369141,0.180717 -4.369141,2.337891 0,2.117206 2.040543,3.293499 3.394531,1.955078 0.564805,-0.558314 0.70382,-1.500127 0.302735,-2.066407 -0.178008,-0.251331 -0.197086,-0.209397 -0.08594,0.179688 0.383609,1.342724 -0.662368,2.273078 -1.865234,1.658203 -1.257098,-0.642595 -1.019041,-2.706831 0.351563,-3.046875 0.677014,-0.167971 1.862744,0.9168 2.30664,1.8125 0.239213,0.482668 0.248037,0.776676 0.04297,1.453125 -0.672609,2.219156 -3.695056,2.230468 -8.24414,0.03711 -1.102673,-0.531661 -2.581303,-1.333509 -3.285156,-1.783203 -1.213115,-0.77506 -2.792849,-1.725366 -4.910157,-3.564453 -1.121639,-0.97426 -1.185105,-0.840767 1.740235,-1.3125 0.841034,-0.135611 3.300241,-0.841818 5.46289,-1.568359 3.842052,-1.290728 3.988017,-1.594631 6.335938,-1.611328 1.321626,-0.0095 -0.874339,-0.09233 1.318359,0.002 l 4.105467,0.169874 V 31.115234 28.978516 L 46.239845,28.861328 C 39.602898,28.68902 42.838376,28.535956 35.987892,25.919922 34.679794,25.420393 33.285346,24.81652 32.370704,24.580078 30.748696,24.160772 28.073977,23.948794 26.358985,24.011719 Z m 7.771485,3.404297 c 0.07953,0 1.211619,0.635337 3.037109,1.408203 1.825491,0.772864 3.556062,1.461826 3.84375,1.533203 0.2877,0.07139 0.521485,0.20731 0.521485,0.298828 0,0.09152 -1.105368,0.709607 -2.457032,1.373047 -2.756489,1.352968 -4.391243,1.920066 -7.054687,2.050781 l -0.65625,0.02734 0.708984,-0.552734 c 0.390553,-0.304261 0.980213,-1.007021 1.310547,-1.5625 0.524088,-0.881275 0.601563,-1.236508 0.601563,-2.791016 0,-0.979821 0.065,-1.785159 0.144531,-1.785156 z m -11.494141,0.470703 c 0.327391,-0.06133 0.325055,0.440716 0.328125,1.443359 0.0062,1.973126 0.485397,3.048304 1.863281,4.179688 l 0.900391,0.738281 -4.632812,-0.388672 c -2.250172,-0.212178 -3.997578,-0.43187 -4.058595,-0.492187 -0.2187,-0.216178 1.389313,-1.868195 3.158204,-3.546876 1.31707,-1.249898 2.114014,-1.872274 2.441406,-1.933593 z"
     style="fill:#482f00"
     id="path304"
     sodipodi:nodetypes="ssscsssccsscsscsscccccccccccsssscssscssscsccccccsssssssscccssssccccccsc" />
  <path
     id="rect2630"
     style="opacity:0.3;fill:#ffffff;fill-opacity:1"
     d="M 14,5 C 9.014005,5 5,9.014005 5,14 v 1 C 5,10.014005 9.014005,6 14,6 h 36 c 4.985995,0 9,4.014005 9,9 V 14 C 59,9.014005 54.985995,5 50,5 Z" />
  <path
     id="rect899"
     style="fill:#000000;stroke:none;opacity:0.6"
     d="M 14,4 C 8.4600055,4 4,8.4600055 4,14 v 36 c 0,5.539994 4.4600055,10 10,10 h 36 c 5.539994,0 10,-4.460006 10,-10 V 14 C 60,8.4600055 55.539994,4 50,4 Z m 0,1 h 36 c 4.985995,0 9,4.014005 9,9 v 36 c 0,4.985995 -4.014005,9 -9,9 H 14 C 9.014005,59 5,54.985995 5,50 V 14 C 5,9.014005 9.014005,5 14,5 Z" />
  <path
     id="rect398"
     style="opacity:0.3;fill:#ffffff"
     d="M 5 49 L 5 50 C 5 54.985995 9.014005 59 14 59 L 50 59 C 54.985995 59 59 54.985995 59 50 L 59 49 C 59 53.985995 54.985995 58 50 58 L 14 58 C 9.014005 58 5 53.985995 5 49 z " />
</svg>
