<?xml version="1.0" encoding="UTF-8" standalone="no"?>
<!-- Created with Inkscape (http://www.inkscape.org/) -->

<svg
   width="64"
   height="64"
   viewBox="0 0 64 64.000003"
   version="1.1"
   id="svg5"
   sodipodi:docname="kmenuedit.svg"
   inkscape:version="1.2.1 (9c6d41e410, 2022-07-14)"
   xmlns:inkscape="http://www.inkscape.org/namespaces/inkscape"
   xmlns:sodipodi="http://sodipodi.sourceforge.net/DTD/sodipodi-0.dtd"
   xmlns:xlink="http://www.w3.org/1999/xlink"
   xmlns="http://www.w3.org/2000/svg"
   xmlns:svg="http://www.w3.org/2000/svg">
  <sodipodi:namedview
     id="namedview7"
     pagecolor="#ffffff"
     bordercolor="#666666"
     borderopacity="1.0"
     inkscape:showpageshadow="2"
     inkscape:pageopacity="0.0"
     inkscape:pagecheckerboard="0"
     inkscape:deskcolor="#d1d1d1"
     inkscape:document-units="px"
     showgrid="false"
     inkscape:zoom="12.421875"
     inkscape:cx="32"
     inkscape:cy="32"
     inkscape:window-width="1920"
     inkscape:window-height="1007"
     inkscape:window-x="0"
     inkscape:window-y="0"
     inkscape:window-maximized="1"
     inkscape:current-layer="svg5" />
  <defs
     id="defs2">
    <linearGradient
       inkscape:collect="always"
       id="linearGradient22024">
      <stop
         style="stop-color:#dedede;stop-opacity:1;"
         offset="0"
         id="stop22020" />
      <stop
         style="stop-color:#f5f5f5;stop-opacity:1;"
         offset="1"
         id="stop22022" />
    </linearGradient>
    <linearGradient
       inkscape:collect="always"
       xlink:href="#linearGradient22024"
       id="linearGradient11295"
       x1="32"
       y1="60"
       x2="32"
       y2="4"
       gradientUnits="userSpaceOnUse" />
  </defs>
  <rect
     style="fill:url(#linearGradient11295);fill-opacity:1;stroke:none"
     id="rect184"
     width="55"
     height="55"
     x="4.5"
     y="4.5"
     ry="9.5" />
  <rect
     style="opacity:0.5;fill:#57dade;fill-opacity:1;stroke-width:2.16025;stroke-linecap:round;stroke-linejoin:round"
     id="rect811"
     width="55"
     height="14"
     x="4.5"
     y="25" />
  <path
     d="m 16,15 c -2.20914,0 -4,1.79086 -4,4 0,2.20914 1.79086,4 4,4 2.20914,0 4,-1.79086 4,-4 0,-2.20914 -1.79086,-4 -4,-4 z m 0,2 c 1.10456,0 2,0.89543 2,2 0,1.10457 -0.89544,2 -2,2 -1.10456,0 -2,-0.89543 -2,-2 0,-1.10457 0.89544,-2 2,-2 z m 10,1 v 2 H 52 V 18 Z M 16,43.000001 c -2.20914,0 -4,1.79086 -4,4 0,2.20914 1.79086,4 4,4 2.20914,0 4,-1.79086 4,-4 0,-2.20914 -1.79086,-4 -4,-4 z m 0,2 c 1.10456,0 2,0.89543 2,2 0,1.10457 -0.89544,2 -2,2 -1.10456,0 -2,-0.89543 -2,-2 0,-1.10457 0.89544,-2 2,-2 z m 10,1 v 2 h 26 v -2 z"
     style="color:#000000;display:inline;overflow:visible;visibility:visible;opacity:0.5;fill:#ffffff;fill-opacity:1;fill-rule:nonzero;stroke:none;stroke-width:4;marker:none;enable-background:accumulate"
     id="path734"
     sodipodi:nodetypes="sssssssssscccccssssssssssccccc" />
  <path
     d="m 16,29 c -2.20914,0 -4,1.79086 -4,4.000002 0,2.20914 1.79086,4 4,4 2.209141,0 4.000001,-1.79086 4.000001,-4 C 20.000001,30.79086 18.209141,29 16,29 Z m 0,2 c 1.104561,0 2.000001,0.89543 2.000001,2.000002 0,1.10457 -0.89544,2 -2.000001,2 -1.10456,0 -2,-0.89543 -2,-2 C 14,31.89543 14.89544,31 16,31 Z m 10,1.000001 v 2.000001 h 26 v -2.000001 z"
     style="color:#000000;display:inline;overflow:visible;visibility:visible;opacity:0.2;fill:#000000;fill-opacity:1;fill-rule:nonzero;stroke:none;stroke-width:4;marker:none;enable-background:accumulate"
     id="path1408"
     sodipodi:nodetypes="ssssssssssccccc" />
  <path
     id="rect4137"
     style="color:#000000;display:inline;overflow:visible;visibility:visible;fill:#ababab;fill-opacity:1;fill-rule:nonzero;stroke:none;stroke-width:4;marker:none;enable-background:accumulate"
     d="m 16,14 c -2.20914,0 -4,1.79086 -4,4 0,2.20914 1.79086,4 4,4 2.20914,0 4,-1.79086 4,-4 0,-2.20914 -1.79086,-4 -4,-4 z m 0,2 c 1.10456,0 2,0.89543 2,2 0,1.10457 -0.89544,2 -2,2 -1.10456,0 -2,-0.89543 -2,-2 0,-1.10457 0.89544,-2 2,-2 z m 10,1 v 2 H 52 V 17 Z M 16,42 c -2.20914,0 -4,1.79086 -4,4 0,2.20914 1.79086,4 4,4 2.20914,0 4,-1.79086 4,-4 0,-2.20914 -1.79086,-4 -4,-4 z m 0,2 c 1.10456,0 2,0.89543 2,2 0,1.10457 -0.89544,2 -2,2 -1.10456,0 -2,-0.89543 -2,-2 0,-1.10457 0.89544,-2 2,-2 z m 10,1 v 2 h 26 v -2 z"
     sodipodi:nodetypes="sssssssssscccccssssssssssccccc" />
  <path
     d="m 16,28 c -2.20914,0 -4,1.79086 -4,4.000001 0,2.20914 1.79086,4 4,4 2.20914,0 4,-1.79086 4,-4 C 20,29.79086 18.20914,28 16,28 Z m 0,2 c 1.10456,0 2,0.89543 2,2.000001 0,1.10457 -0.89544,2 -2,2 -1.10456,0 -2,-0.89543 -2,-2 C 14,30.89543 14.89544,30 16,30 Z m 10,1 v 2.000001 H 52 V 31 Z"
     style="color:#000000;display:inline;overflow:visible;visibility:visible;fill:#ffffff;fill-opacity:1;fill-rule:nonzero;stroke:none;stroke-width:4;marker:none;enable-background:accumulate"
     id="path1375"
     sodipodi:nodetypes="ssssssssssccccc" />
  <path
     id="rect2630"
     style="opacity:0.3;fill:#ffffff;fill-opacity:1"
     d="M 14,5 C 9.014005,5 5,9.014005 5,14 v 1 C 5,10.014005 9.014005,6 14,6 h 36 c 4.985995,0 9,4.014005 9,9 V 14 C 59,9.014005 54.985995,5 50,5 Z" />
  <path
     id="rect899"
     style="fill:#000000;stroke:none;opacity:0.5"
     d="M 14,4 C 8.4600055,4 4,8.4600055 4,14 v 36 c 0,5.539994 4.4600055,10 10,10 h 36 c 5.539994,0 10,-4.460006 10,-10 V 14 C 60,8.4600055 55.539994,4 50,4 Z m 0,1 h 36 c 4.985995,0 9,4.014005 9,9 v 36 c 0,4.985995 -4.014005,9 -9,9 H 14 C 9.014005,59 5,54.985995 5,50 V 14 C 5,9.014005 9.014005,5 14,5 Z" />
  <path
     id="rect398"
     style="opacity:0.3;fill:#ffffff"
     d="M 5 49 L 5 50 C 5 54.985995 9.014005 59 14 59 L 50 59 C 54.985995 59 59 54.985995 59 50 L 59 49 C 59 53.985995 54.985995 58 50 58 L 14 58 C 9.014005 58 5 53.985995 5 49 z " />
</svg>
