<?xml version="1.0" encoding="UTF-8" standalone="no"?>
<!-- Created with Inkscape (http://www.inkscape.org/) -->

<svg
   width="64"
   height="64"
   viewBox="0 0 64 64.000003"
   version="1.1"
   id="svg5"
   sodipodi:docname="knights.svg"
   inkscape:version="1.2.1 (9c6d41e410, 2022-07-14)"
   xmlns:inkscape="http://www.inkscape.org/namespaces/inkscape"
   xmlns:sodipodi="http://sodipodi.sourceforge.net/DTD/sodipodi-0.dtd"
   xmlns:xlink="http://www.w3.org/1999/xlink"
   xmlns="http://www.w3.org/2000/svg"
   xmlns:svg="http://www.w3.org/2000/svg">
  <sodipodi:namedview
     id="namedview7"
     pagecolor="#ffffff"
     bordercolor="#666666"
     borderopacity="1.0"
     inkscape:showpageshadow="2"
     inkscape:pageopacity="0.0"
     inkscape:pagecheckerboard="0"
     inkscape:deskcolor="#d1d1d1"
     inkscape:document-units="px"
     showgrid="false"
     inkscape:zoom="12.421875"
     inkscape:cx="32.080503"
     inkscape:cy="32"
     inkscape:window-width="1920"
     inkscape:window-height="1007"
     inkscape:window-x="0"
     inkscape:window-y="0"
     inkscape:window-maximized="1"
     inkscape:current-layer="svg5"
     showguides="true" />
  <defs
     id="defs2">
    <linearGradient
       inkscape:collect="always"
       xlink:href="#linearGradient22024"
       id="linearGradient3525"
       x1="32"
       y1="60"
       x2="32"
       y2="4"
       gradientUnits="userSpaceOnUse" />
    <linearGradient
       inkscape:collect="always"
       id="linearGradient22024">
      <stop
         style="stop-color:#dedede;stop-opacity:1;"
         offset="0"
         id="stop22020" />
      <stop
         style="stop-color:#f5f5f5;stop-opacity:1;"
         offset="1"
         id="stop22022" />
    </linearGradient>
    <linearGradient
       inkscape:collect="always"
       xlink:href="#4852"
       id="linearGradient11841"
       x1="50"
       y1="60"
       x2="50"
       y2="4"
       gradientUnits="userSpaceOnUse"
       gradientTransform="matrix(-1,0,0,1,64,-2e-7)" />
    <linearGradient
       inkscape:collect="always"
       id="4852">
      <stop
         style="stop-color:#333333;stop-opacity:1"
         offset="0"
         id="stop14555" />
      <stop
         style="stop-color:#666666;stop-opacity:1"
         offset="1"
         id="stop14557" />
    </linearGradient>
  </defs>
  <rect
     style="fill:url(#linearGradient3525);fill-opacity:1;stroke:none"
     id="rect184"
     width="55"
     height="55"
     x="4.5"
     y="4.5"
     ry="9.5" />
  <path
     id="rect11383"
     style="fill:url(#linearGradient11841);fill-opacity:1;stroke-width:2"
     d="m 50,4.4999998 c 5.26299,0 9.5,4.2370093 9.5,9.5000002 V 32 H 32 V 4.4999998 Z M 32,32 V 59.5 H 14 C 8.73701,59.5 4.5,55.26299 4.5,50 V 32 Z" />
  <path
     d="M 33,4.4999998 V 31.000001 h 26.5 v 1 H 32 V 4.4999998 Z M 32,32.000001 V 59.500003 H 31 V 33.000001 H 4.5000002 v -1 z"
     style="opacity:0.2;fill:#000000;fill-opacity:1;stroke:none"
     id="path32702" />
  <path
     id="path10562"
     style="opacity:0.2;fill:#ffffff;fill-opacity:1;stroke:none"
     d="M 31,4.4999998 V 31 H 4.5 v 1 H 32 V 4.4999998 Z M 32,32 v 27.5 h 1 V 33 h 26.5 v -1 z"
     sodipodi:nodetypes="cccccccccccccc" />
  <path
     d="m 17.001335,38 -0.0031,1.722172 L 12,43.259607 l 0.874001,1.768718 2.136795,-0.683329 c 0.34027,0.433957 0.857746,0.686951 1.40521,0.687008 0.940793,-0.0011 1.539702,-0.7875 1.606494,-1.736835 v -7.51e-4 1.733902 c -0.0013,0.862763 -0.09685,1.679192 -0.926685,1.876916 -0.740417,0.1765 -0.975753,-0.05343 -1.865395,0.313528 -1.352033,0.557798 -2.23505,1.576925 -2.235234,3.05427 L 14.5,54 h 7.500006 l 1.999987,-3.6888 v -5.579668 c 0,-2.956366 -2.368672,-5.213064 -5.290228,-5.213064 -0.03128,0.0013 -0.06256,0.0028 -0.09384,0.0047 0.0046,-0.146532 -0.0092,-0.04281 -0.04122,-0.18579 -0.17701,-0.781402 -0.781071,-1.335849 -1.573376,-1.337338 z"
     style="opacity:0.2;fill:#000000"
     id="path1805"
     sodipodi:nodetypes="cccccccccccccccsccccc" />
  <path
     d="m 17.001335,37 -0.0031,1.722172 L 12,42.259607 l 0.874001,1.768718 2.136795,-0.683329 c 0.34027,0.433957 0.857746,0.686951 1.40521,0.687008 0.940793,-0.0011 1.539702,-0.7875 1.606494,-1.736835 v -7.51e-4 1.733902 c -0.0013,0.862763 -0.09685,1.679192 -0.926685,1.876916 -0.740417,0.1765 -0.975753,-0.05343 -1.865395,0.313528 -1.352033,0.557798 -2.23505,1.576925 -2.235234,3.05427 L 14.5,53 h 7.500006 l 1.999987,-3.6888 v -5.579668 c 0,-2.956366 -2.368672,-5.213064 -5.290228,-5.213064 -0.03128,0.0013 -0.06256,0.0028 -0.09384,0.0047 0.0046,-0.146532 -0.0092,-0.04281 -0.04122,-0.18579 -0.17701,-0.781402 -0.781071,-1.335849 -1.573376,-1.337338 z"
     style="fill:#ffffff"
     id="path1614"
     sodipodi:nodetypes="cccccccccccccccsccccc" />
  <path
     id="rect2630"
     style="opacity:0.3;fill:#ffffff;fill-opacity:1"
     d="M 14,5 C 9.014005,5 5,9.014005 5,14 v 1 C 5,10.014005 9.014005,6 14,6 h 36 c 4.985995,0 9,4.014005 9,9 V 14 C 59,9.014005 54.985995,5 50,5 Z" />
  <path
     id="rect899"
     style="fill:#000000;stroke:none;opacity:0.6"
     d="M 14,4 C 8.4600055,4 4,8.4600055 4,14 v 36 c 0,5.539994 4.4600055,10 10,10 h 36 c 5.539994,0 10,-4.460006 10,-10 V 14 C 60,8.4600055 55.539994,4 50,4 Z m 0,1 h 36 c 4.985995,0 9,4.014005 9,9 v 36 c 0,4.985995 -4.014005,9 -9,9 H 14 C 9.014005,59 5,54.985995 5,50 V 14 C 5,9.014005 9.014005,5 14,5 Z" />
  <path
     id="rect398"
     style="opacity:0.3;fill:#ffffff"
     d="M 5 49 L 5 50 C 5 54.985995 9.014005 59 14 59 L 50 59 C 54.985995 59 59 54.985995 59 50 L 59 49 C 59 53.985995 54.985995 58 50 58 L 14 58 C 9.014005 58 5 53.985995 5 49 z " />
</svg>
