<?xml version="1.0" encoding="UTF-8" standalone="no"?>
<!-- Created with Inkscape (http://www.inkscape.org/) -->

<svg
   width="64"
   height="64"
   viewBox="0 0 64 64.000003"
   version="1.1"
   id="svg5"
   sodipodi:docname="kodi.svg"
   inkscape:version="1.2 (dc2aedaf03, 2022-05-15)"
   xmlns:inkscape="http://www.inkscape.org/namespaces/inkscape"
   xmlns:sodipodi="http://sodipodi.sourceforge.net/DTD/sodipodi-0.dtd"
   xmlns:xlink="http://www.w3.org/1999/xlink"
   xmlns="http://www.w3.org/2000/svg"
   xmlns:svg="http://www.w3.org/2000/svg">
  <sodipodi:namedview
     id="namedview7"
     pagecolor="#ffffff"
     bordercolor="#666666"
     borderopacity="1.0"
     inkscape:showpageshadow="2"
     inkscape:pageopacity="0.0"
     inkscape:pagecheckerboard="0"
     inkscape:deskcolor="#d1d1d1"
     inkscape:document-units="px"
     showgrid="false"
     inkscape:zoom="12.125"
     inkscape:cx="31.958763"
     inkscape:cy="32"
     inkscape:window-width="1920"
     inkscape:window-height="991"
     inkscape:window-x="0"
     inkscape:window-y="0"
     inkscape:window-maximized="1"
     inkscape:current-layer="svg5" />
  <defs
     id="defs2">
    <linearGradient
       inkscape:collect="always"
       id="linearGradient14432">
      <stop
         style="stop-color:#2d8cc7;stop-opacity:1;"
         offset="0"
         id="stop14428" />
      <stop
         style="stop-color:#3cbff1;stop-opacity:1;"
         offset="1"
         id="stop14430" />
    </linearGradient>
    <linearGradient
       inkscape:collect="always"
       xlink:href="#linearGradient14432"
       id="linearGradient3525"
       x1="50"
       y1="60"
       x2="14"
       y2="4"
       gradientUnits="userSpaceOnUse" />
  </defs>
  <rect
     style="fill:url(#linearGradient3525);fill-opacity:1.0;stroke:none"
     id="rect184"
     width="55"
     height="55"
     x="4.5"
     y="4.5"
     ry="9.5" />
  <path
     d="m 31.960779,13.000287 c -0.69358,0.0102 -1.35587,0.2903 -1.84638,0.78077 l -5.4478,5.44781 v 17.33349 l 16.00015,-16.00015 -6.78115,-6.78115 c -0.50973,-0.50969 -1.20406,-0.79134 -1.92482,-0.78077 z m 12.47717,11.33311 -8.66676,8.666751 8.66676,8.666749 6.78115,-6.78115 c 1.0412,-1.04146 1.0412,-2.729731 0,-3.771191 z m -25.10473,0.22885 -6.55231,6.552309 c -1.04121,1.04146 -1.04121,2.729732 0,3.771192 l 6.55231,6.552309 z m 12.66678,12.209101 -8.66675,8.666741 6.78115,6.78116 c 1.04147,1.04122 2.72974,1.04122 3.7712,0 l 6.78115,-6.78116 z"
     style="color:#000000;font-style:normal;font-variant:normal;font-weight:normal;font-stretch:normal;font-size:medium;line-height:normal;font-family:sans-serif;text-indent:0;text-align:start;text-decoration:none;text-decoration-line:none;text-decoration-style:solid;text-decoration-color:#000000;letter-spacing:normal;word-spacing:normal;text-transform:none;writing-mode:lr-tb;direction:ltr;baseline-shift:baseline;text-anchor:start;white-space:normal;clip-rule:nonzero;display:inline;overflow:visible;visibility:visible;opacity:0.2;isolation:auto;mix-blend-mode:normal;color-interpolation:sRGB;color-interpolation-filters:linearRGB;solid-color:#000000;solid-opacity:1;fill:#000000;fill-opacity:1;fill-rule:evenodd;stroke:none;stroke-width:64;stroke-linecap:butt;stroke-linejoin:round;stroke-miterlimit:4;stroke-dasharray:none;stroke-dashoffset:0;stroke-opacity:1;color-rendering:auto;image-rendering:auto;shape-rendering:auto;text-rendering:auto;enable-background:accumulate"
     id="path14442" />
  <path
     d="m 31.960779,12.000206 c -0.69358,0.0102 -1.35587,0.2903 -1.84638,0.78077 l -5.4478,5.44781 v 17.33349 l 16.00015,-16.00015 -6.78115,-6.78115 c -0.50973,-0.50969 -1.20406,-0.79134 -1.92482,-0.78077 z m 12.47717,11.33311 -8.66676,8.66675 8.66676,8.66675 6.78115,-6.78115 c 1.0412,-1.04146 1.0412,-2.72973 0,-3.77119 z m -25.10473,0.22885 -6.55231,6.55231 c -1.04121,1.04146 -1.04121,2.72973 0,3.77119 l 6.55231,6.55231 z m 12.66678,12.2091 -8.66675,8.66674 6.78115,6.78116 c 1.04147,1.04122 2.72974,1.04122 3.7712,0 l 6.78115,-6.78116 z"
     style="color:#000000;font-style:normal;font-variant:normal;font-weight:normal;font-stretch:normal;font-size:medium;line-height:normal;font-family:sans-serif;text-indent:0;text-align:start;text-decoration:none;text-decoration-line:none;text-decoration-style:solid;text-decoration-color:#000000;letter-spacing:normal;word-spacing:normal;text-transform:none;writing-mode:lr-tb;direction:ltr;baseline-shift:baseline;text-anchor:start;white-space:normal;clip-rule:nonzero;display:inline;overflow:visible;visibility:visible;isolation:auto;mix-blend-mode:normal;color-interpolation:sRGB;color-interpolation-filters:linearRGB;solid-color:#000000;solid-opacity:1;fill:#ffffff;fill-opacity:1;fill-rule:evenodd;stroke:none;stroke-width:64;stroke-linecap:butt;stroke-linejoin:round;stroke-miterlimit:4;stroke-dasharray:none;stroke-dashoffset:0;stroke-opacity:1;color-rendering:auto;image-rendering:auto;shape-rendering:auto;text-rendering:auto;enable-background:accumulate"
     id="path13877"
     sodipodi:nodetypes="cccccccccccccccccccccccc" />
  <path
     id="rect2630"
     style="opacity:0.3;fill:#ffffff;fill-opacity:1"
     d="M 14,5 C 9.014005,5 5,9.014005 5,14 v 1 C 5,10.014005 9.014005,6 14,6 h 36 c 4.985995,0 9,4.014005 9,9 V 14 C 59,9.014005 54.985995,5 50,5 Z" />
  <path
     id="rect899"
     style="fill:#000000;stroke:none;opacity:0.6"
     d="M 14,4 C 8.4600055,4 4,8.4600055 4,14 v 36 c 0,5.539994 4.4600055,10 10,10 h 36 c 5.539994,0 10,-4.460006 10,-10 V 14 C 60,8.4600055 55.539994,4 50,4 Z m 0,1 h 36 c 4.985995,0 9,4.014005 9,9 v 36 c 0,4.985995 -4.014005,9 -9,9 H 14 C 9.014005,59 5,54.985995 5,50 V 14 C 5,9.014005 9.014005,5 14,5 Z" />
  <path
     id="rect398"
     style="opacity:0.3;fill:#ffffff"
     d="M 5 49 L 5 50 C 5 54.985995 9.014005 59 14 59 L 50 59 C 54.985995 59 59 54.985995 59 50 L 59 49 C 59 53.985995 54.985995 58 50 58 L 14 58 C 9.014005 58 5 53.985995 5 49 z " />
</svg>
