<?xml version="1.0" encoding="UTF-8" standalone="no"?>
<!-- Created with Inkscape (http://www.inkscape.org/) -->

<svg
   width="64"
   height="64"
   viewBox="0 0 64 64.000003"
   version="1.1"
   id="svg5"
   sodipodi:docname="kontact.svg"
   inkscape:version="1.2.1 (9c6d41e410, 2022-07-14)"
   xmlns:inkscape="http://www.inkscape.org/namespaces/inkscape"
   xmlns:sodipodi="http://sodipodi.sourceforge.net/DTD/sodipodi-0.dtd"
   xmlns:xlink="http://www.w3.org/1999/xlink"
   xmlns="http://www.w3.org/2000/svg"
   xmlns:svg="http://www.w3.org/2000/svg">
  <sodipodi:namedview
     id="namedview7"
     pagecolor="#ffffff"
     bordercolor="#666666"
     borderopacity="1.0"
     inkscape:showpageshadow="2"
     inkscape:pageopacity="0.0"
     inkscape:pagecheckerboard="0"
     inkscape:deskcolor="#d1d1d1"
     inkscape:document-units="px"
     showgrid="false"
     inkscape:zoom="4.8613591"
     inkscape:cx="25.50727"
     inkscape:cy="43.609204"
     inkscape:window-width="1920"
     inkscape:window-height="1012"
     inkscape:window-x="0"
     inkscape:window-y="0"
     inkscape:window-maximized="1"
     inkscape:current-layer="svg5"
     showguides="false" />
  <defs
     id="defs2">
    <linearGradient
       inkscape:collect="always"
       xlink:href="#linearGradient986"
       id="linearGradient3525"
       x1="32"
       y1="60"
       x2="32"
       y2="4"
       gradientUnits="userSpaceOnUse" />
    <linearGradient
       inkscape:collect="always"
       id="linearGradient986">
      <stop
         style="stop-color:#ffa12a;stop-opacity:1;"
         offset="0"
         id="stop982" />
      <stop
         style="stop-color:#ffdc75;stop-opacity:1;"
         offset="1"
         id="stop984" />
    </linearGradient>
  </defs>
  <rect
     style="fill:url(#linearGradient3525);fill-opacity:1;stroke:none"
     id="rect184"
     width="55"
     height="55"
     x="4.5"
     y="4.5"
     ry="9.5" />
  <path
     d="m 41.37066,41.119419 c -0.95558,0 -1.875326,-0.238895 -2.759238,-0.716682 -0.883912,-0.501682 -1.50504,-1.290039 -1.863382,-2.365066 h -0.03576 c -0.215042,0.573348 -0.537566,1.051138 -0.967572,1.43337 -0.43001,0.382233 -0.9078,0.692796 -1.43337,0.931691 -0.501678,0.2389 -1.015302,0.406126 -1.540872,0.501678 -0.52557,0.09554 -1.00336,0.14332 -1.433372,0.14332 -2.293392,0 -4.037326,-0.645018 -5.231802,-1.935051 -1.194498,-1.290025 -1.791746,-3.022013 -1.791746,-5.195957 v -2.795074 c 0,-2.197835 0.573348,-3.929825 1.720042,-5.195969 1.170586,-1.290034 2.75924,-1.93505 4.765958,-1.93505 1.337814,0 2.400896,0.203062 3.18925,0.609182 0.788354,0.406124 1.349756,0.89586 1.68421,1.469206 v -1.863384 h 3.368422 v 11.287795 c 0,1.003358 0.203062,1.743936 0.609184,2.221724 0.406122,0.4539 0.991416,0.68085 1.75588,0.68085 0.597238,0 1.122806,-0.1075 1.576708,-0.322504 0.4539,-0.238904 0.836132,-0.60919 1.146694,-1.110862 0.310562,-0.52557 0.549456,-1.194476 0.716682,-2.006718 0.16722,-0.836134 0.25084,-1.851438 0.25084,-3.045913 v -0.394158 c 0,-2.006718 -0.29862,-3.798432 -0.895858,-5.37514 -0.573342,-1.576718 -1.43336,-2.914534 -2.580056,-4.013452 -1.146698,-1.122806 -2.55618,-1.970884 -4.228446,-2.544232 -1.672266,-0.597238 -3.59537,-0.895856 -5.769316,-0.895856 -1.863382,0 -3.571482,0.298618 -5.1243,0.895856 -1.552818,0.597238 -2.89063,1.469206 -4.013438,2.615902 -1.098918,1.122806 -1.95894,2.508398 -2.580068,4.156774 -0.621126,1.648376 -0.93169,3.511758 -0.93169,5.590146 v 0.609185 c 0,2.221726 0.29862,4.192608 0.895858,5.912656 0.621126,1.696154 1.505038,3.117578 2.651736,4.264276 1.146694,1.170586 2.54423,2.054498 4.192608,2.651736 1.672266,0.621128 3.547592,0.931692 5.625978,0.931692 1.791714,0 3.571482,-0.203064 5.339308,-0.609184 1.767822,-0.382232 3.392308,-0.95558 4.873458,-1.720048 l 1.00336,2.508398 c -1.505038,0.812244 -3.201194,1.433372 -5.088466,1.863384 -1.863382,0.4539 -3.8701,0.680852 -6.020156,0.680852 -2.580066,0 -4.885404,-0.382232 -6.916014,-1.146695 C 23.501306,47.127628 21.781262,46.02871 20.37178,44.59534 18.962298,43.16197 17.875326,41.429983 17.110862,39.399372 16.370288,37.368764 16,35.09926 16,32.590862 V 31.91001 c 0,-2.293393 0.358344,-4.407614 1.075028,-6.342663 0.740576,-1.958939 1.77977,-3.643149 3.117582,-5.052631 1.361702,-1.409483 2.998132,-2.508401 4.909294,-3.296754 1.93505,-0.812243 4.108996,-1.218364 6.521836,-1.218364 2.651736,0 4.992908,0.382232 7.023516,1.146698 2.030608,0.740573 3.738708,1.791712 5.1243,3.153414 1.385592,1.361702 2.43673,2.98619 3.153416,4.873459 C 47.641658,27.060439 48,29.138827 48,31.40833 v 0.465841 c 0,1.051139 -0.1075,2.126167 -0.322506,3.225085 -0.19112,1.07503 -0.537518,2.066446 -1.039196,2.974248 -0.50168,0.883913 -1.182532,1.612542 -2.042554,2.18589 -0.836132,0.57335 -1.91116,0.860025 -3.225084,0.860025 z M 27.861142,33.343382 c 0,1.361702 0.298618,2.448674 0.895856,3.260916 0.597238,0.788354 1.540874,1.182533 2.830908,1.182533 0.501678,0 0.979468,-0.05972 1.43337,-0.179181 0.477788,-0.119459 0.895854,-0.322514 1.2542,-0.609184 0.38223,-0.286673 0.68085,-0.668908 0.895856,-1.146698 0.215006,-0.477786 0.322508,-1.075024 0.322508,-1.791711 v -3.153413 c 0,-0.477786 -0.07166,-0.931689 -0.21501,-1.361703 -0.11946,-0.453901 -0.334458,-0.848078 -0.645014,-1.18253 -0.310566,-0.358343 -0.716688,-0.633074 -1.218366,-0.824187 -0.501678,-0.215005 -1.11086,-0.322507 -1.827546,-0.322507 -1.170586,0 -2.090334,0.322507 -2.75924,0.967525 -0.645014,0.645015 -0.967522,1.815601 -0.967522,3.511755 z"
     style="font-weight:bold;font-size:4.74057px;line-height:1.25;font-family:'나눔스퀘어';-inkscape-font-specification:'나눔스퀘어 Bold';opacity:0.2;fill:#000000;stroke-width:0.895862"
     id="path1620" />
  <path
     d="m 41.37066,40.11982 c -0.95558,0 -1.875326,-0.238894 -2.759238,-0.716682 -0.883912,-0.501681 -1.50504,-1.290037 -1.863382,-2.365066 h -0.03576 c -0.215042,0.573349 -0.537566,1.051138 -0.967572,1.43337 -0.43001,0.382234 -0.9078,0.692796 -1.43337,0.931692 -0.501678,0.2389 -1.015302,0.406126 -1.540872,0.501678 -0.52557,0.09554 -1.00336,0.14332 -1.433372,0.14332 -2.293392,0 -4.037326,-0.645018 -5.231802,-1.935052 -1.194498,-1.290024 -1.791746,-3.022012 -1.791746,-5.195956 V 30.12205 c 0,-2.197834 0.573348,-3.929824 1.720042,-5.195968 1.170586,-1.290033 2.75924,-1.93505 4.765958,-1.93505 1.337814,0 2.400896,0.203062 3.18925,0.609182 0.788354,0.406124 1.349756,0.89586 1.68421,1.469206 v -1.863384 h 3.368422 v 11.287795 c 0,1.003357 0.203062,1.743935 0.609184,2.221724 0.406122,0.453899 0.991416,0.68085 1.75588,0.68085 0.597238,0 1.122806,-0.1075 1.576708,-0.322505 0.4539,-0.238903 0.836132,-0.609189 1.146694,-1.110861 0.310562,-0.52557 0.549456,-1.194476 0.716682,-2.006718 0.16722,-0.836134 0.25084,-1.851438 0.25084,-3.045912 V 30.51625 c 0,-2.006718 -0.29862,-3.798432 -0.895858,-5.37514 -0.573342,-1.576718 -1.43336,-2.914534 -2.580056,-4.013452 -1.146698,-1.122806 -2.55618,-1.970884 -4.228446,-2.544232 -1.672266,-0.597238 -3.59537,-0.895856 -5.769316,-0.895856 -1.863382,0 -3.571482,0.298618 -5.1243,0.895856 -1.552818,0.597238 -2.89063,1.469206 -4.013438,2.615902 -1.098918,1.122806 -1.95894,2.508398 -2.580068,4.156774 -0.621126,1.648376 -0.93169,3.511758 -0.93169,5.590146 v 0.609184 c 0,2.221726 0.29862,4.192608 0.895858,5.912656 0.621126,1.696154 1.505038,3.117578 2.651736,4.264276 1.146694,1.170586 2.54423,2.054498 4.192608,2.651736 1.672266,0.621128 3.547592,0.931692 5.625978,0.931692 1.791714,0 3.571482,-0.203064 5.339308,-0.609184 1.767822,-0.382232 3.392308,-0.95558 4.873458,-1.720048 l 1.00336,2.508398 c -1.505038,0.812244 -3.201194,1.433372 -5.088466,1.863384 -1.863382,0.4539 -3.8701,0.680852 -6.020156,0.680852 -2.580066,0 -4.885404,-0.382232 -6.916014,-1.146696 C 23.501306,46.128031 21.781262,45.029112 20.37178,43.595742 18.962298,42.162372 17.875326,40.430384 17.110862,38.399774 16.370288,36.369166 16,34.099663 16,31.591265 v -0.680853 c 0,-2.293392 0.358344,-4.407614 1.075028,-6.342662 0.740576,-1.95894 1.77977,-3.64315 3.117582,-5.052632 1.361702,-1.409482 2.998132,-2.5084 4.909294,-3.296754 C 27.036954,15.406122 29.2109,15 31.62374,15 c 2.651736,0 4.992908,0.382232 7.023516,1.146698 2.030608,0.740574 3.738708,1.791712 5.1243,3.153415 1.385592,1.361702 2.43673,2.98619 3.153416,4.873459 C 47.641658,26.060842 48,28.13923 48,30.408732 v 0.465842 c 0,1.051138 -0.1075,2.126166 -0.322506,3.225084 -0.19112,1.07503 -0.537518,2.066446 -1.039196,2.974248 -0.50168,0.883913 -1.182532,1.612542 -2.042554,2.18589 -0.836132,0.57335 -1.91116,0.860025 -3.225084,0.860024 z M 27.861142,32.343784 c 0,1.361702 0.298618,2.448674 0.895856,3.260916 0.597238,0.788354 1.540874,1.182533 2.830908,1.182533 0.501678,0 0.979468,-0.05972 1.43337,-0.179181 0.477788,-0.119459 0.895854,-0.322513 1.2542,-0.609184 0.38223,-0.286673 0.68085,-0.668908 0.895856,-1.146698 0.215006,-0.477786 0.322508,-1.075024 0.322508,-1.791711 v -3.153412 c 0,-0.477786 -0.07166,-0.931688 -0.21501,-1.361702 -0.11946,-0.453902 -0.334458,-0.848078 -0.645014,-1.18253 C 34.32325,27.00447 33.917128,26.72974 33.41545,26.538626 32.913772,26.323622 32.30459,26.21612 31.587904,26.21612 c -1.170586,0 -2.090334,0.322506 -2.75924,0.967524 -0.645014,0.645016 -0.967522,1.815602 -0.967522,3.511756 z"
     style="font-weight:bold;font-size:4.74057px;line-height:1.25;font-family:'나눔스퀘어';-inkscape-font-specification:'나눔스퀘어 Bold';fill:#4d4d4d;stroke-width:0.895862"
     id="path6805"
     sodipodi:nodetypes="scccscsscsscsscccscscccsscccsscssscccsccccssscsscccscsssscccsscsccssscccscss" />
  <path
     id="rect2630"
     style="opacity:0.3;fill:#ffffff;fill-opacity:1"
     d="M 14,5 C 9.014005,5 5,9.014005 5,14 v 1 C 5,10.014005 9.014005,6 14,6 h 36 c 4.985995,0 9,4.014005 9,9 V 14 C 59,9.014005 54.985995,5 50,5 Z" />
  <path
     id="rect899"
     style="fill:#000000;stroke:none;opacity:0.6"
     d="M 14,4 C 8.4600055,4 4,8.4600055 4,14 v 36 c 0,5.539994 4.4600055,10 10,10 h 36 c 5.539994,0 10,-4.460006 10,-10 V 14 C 60,8.4600055 55.539994,4 50,4 Z m 0,1 h 36 c 4.985995,0 9,4.014005 9,9 v 36 c 0,4.985995 -4.014005,9 -9,9 H 14 C 9.014005,59 5,54.985995 5,50 V 14 C 5,9.014005 9.014005,5 14,5 Z" />
  <path
     id="rect398"
     style="opacity:0.3;fill:#ffffff"
     d="M 5 49 L 5 50 C 5 54.985995 9.014005 59 14 59 L 50 59 C 54.985995 59 59 54.985995 59 50 L 59 49 C 59 53.985995 54.985995 58 50 58 L 14 58 C 9.014005 58 5 53.985995 5 49 z " />
</svg>
