<?xml version="1.0" encoding="UTF-8" standalone="no"?>
<!-- Created with Inkscape (http://www.inkscape.org/) -->

<svg
   width="64"
   height="64"
   viewBox="0 0 64 64.000003"
   version="1.1"
   id="svg5"
   sodipodi:docname="kopete.svg"
   inkscape:version="1.2.1 (9c6d41e410, 2022-07-14)"
   xmlns:inkscape="http://www.inkscape.org/namespaces/inkscape"
   xmlns:sodipodi="http://sodipodi.sourceforge.net/DTD/sodipodi-0.dtd"
   xmlns:xlink="http://www.w3.org/1999/xlink"
   xmlns="http://www.w3.org/2000/svg"
   xmlns:svg="http://www.w3.org/2000/svg">
  <sodipodi:namedview
     id="namedview7"
     pagecolor="#ffffff"
     bordercolor="#666666"
     borderopacity="1.0"
     inkscape:showpageshadow="2"
     inkscape:pageopacity="0.0"
     inkscape:pagecheckerboard="0"
     inkscape:deskcolor="#d1d1d1"
     inkscape:document-units="px"
     showgrid="false"
     inkscape:zoom="6.2109375"
     inkscape:cx="13.927044"
     inkscape:cy="26.485535"
     inkscape:window-width="1920"
     inkscape:window-height="1007"
     inkscape:window-x="0"
     inkscape:window-y="0"
     inkscape:window-maximized="1"
     inkscape:current-layer="svg5" />
  <defs
     id="defs2">
    <linearGradient
       inkscape:collect="always"
       xlink:href="#linearGradient1677"
       id="linearGradient6610"
       x1="32"
       y1="60"
       x2="32"
       y2="4"
       gradientUnits="userSpaceOnUse" />
    <linearGradient
       inkscape:collect="always"
       id="linearGradient1677">
      <stop
         style="stop-color:#5792d8;stop-opacity:1;"
         offset="0"
         id="stop1673" />
      <stop
         style="stop-color:#a2d2f9;stop-opacity:1;"
         offset="1"
         id="stop1675" />
    </linearGradient>
  </defs>
  <rect
     style="fill:url(#linearGradient6610);fill-opacity:1.0;stroke:none"
     id="rect184"
     width="55"
     height="55"
     x="4.5"
     y="4.5"
     ry="9.5" />
  <path
     d="m 39,15 c 1.975016,1.074192 8,8.02802 8,17.999998 0,9.97198 -5.856124,16.308748 -8,18 h 4 c 2.233604,-1.6437 8,-8.02802 8,-18 C 51,23.02802 44.654736,16.1088 43,15 Z m -24,4 v 4 h 4 v -4 z m 8,11.999998 v 4 h 12 v -4 z m -8,8 v 4 h 2 c 0,1.104568 -0.895432,2 -2,2 v 2 c 2.20914,0 4,-1.79086 4,-4 v -4 z"
     style="opacity:0.5;fill:#ffffff;fill-opacity:1;stroke-width:8;stroke-linecap:round;stroke-linejoin:round"
     id="path1687" />
  <path
     id="rect560"
     style="fill:#3b689b;fill-opacity:1;stroke-width:8;stroke-linecap:round;stroke-linejoin:round"
     d="m 39,14 c 1.975016,1.074192 8,8.02802 8,17.999998 0,9.97198 -5.856124,16.308748 -8,18 h 4 c 2.233604,-1.6437 8,-8.02802 8,-18 C 51,22.02802 44.654736,15.1088 43,14 Z m -24,4 v 4 h 4 v -4 z m 8,11.999998 v 4 h 12 v -4 z m -8,8 v 4 h 2 c 0,1.104568 -0.895432,2 -2,2 v 2 c 2.20914,0 4,-1.79086 4,-4 v -4 z"
     sodipodi:nodetypes="csccscccccccccccccccccscc" />
  <path
     id="rect2630"
     style="opacity:0.3;fill:#ffffff;fill-opacity:1"
     d="M 14,5 C 9.014005,5 5,9.014005 5,14 v 1 C 5,10.014005 9.014005,6 14,6 h 36 c 4.985995,0 9,4.014005 9,9 V 14 C 59,9.014005 54.985995,5 50,5 Z" />
  <path
     id="rect899"
     style="fill:#000000;stroke:none;opacity:0.5"
     d="M 14,4 C 8.4600055,4 4,8.4600055 4,14 v 36 c 0,5.539994 4.4600055,10 10,10 h 36 c 5.539994,0 10,-4.460006 10,-10 V 14 C 60,8.4600055 55.539994,4 50,4 Z m 0,1 h 36 c 4.985995,0 9,4.014005 9,9 v 36 c 0,4.985995 -4.014005,9 -9,9 H 14 C 9.014005,59 5,54.985995 5,50 V 14 C 5,9.014005 9.014005,5 14,5 Z" />
  <path
     id="rect398"
     style="opacity:0.3;fill:#ffffff"
     d="M 5 49 L 5 50 C 5 54.985995 9.014005 59 14 59 L 50 59 C 54.985995 59 59 54.985995 59 50 L 59 49 C 59 53.985995 54.985995 58 50 58 L 14 58 C 9.014005 58 5 53.985995 5 49 z " />
</svg>
