<?xml version="1.0" encoding="UTF-8" standalone="no"?>
<!-- Created with Inkscape (http://www.inkscape.org/) -->

<svg
   width="64"
   height="64"
   viewBox="0 0 64 64.000003"
   version="1.1"
   id="svg5"
   sodipodi:docname="krename.svg"
   inkscape:version="1.2.1 (9c6d41e410, 2022-07-14)"
   xmlns:inkscape="http://www.inkscape.org/namespaces/inkscape"
   xmlns:sodipodi="http://sodipodi.sourceforge.net/DTD/sodipodi-0.dtd"
   xmlns:xlink="http://www.w3.org/1999/xlink"
   xmlns="http://www.w3.org/2000/svg"
   xmlns:svg="http://www.w3.org/2000/svg">
  <sodipodi:namedview
     id="namedview7"
     pagecolor="#ffffff"
     bordercolor="#666666"
     borderopacity="1.0"
     inkscape:showpageshadow="2"
     inkscape:pageopacity="0.0"
     inkscape:pagecheckerboard="0"
     inkscape:deskcolor="#d1d1d1"
     inkscape:document-units="px"
     showgrid="false"
     inkscape:zoom="12.125"
     inkscape:cx="32.082474"
     inkscape:cy="32"
     inkscape:window-width="1920"
     inkscape:window-height="1012"
     inkscape:window-x="0"
     inkscape:window-y="0"
     inkscape:window-maximized="1"
     inkscape:current-layer="svg5" />
  <defs
     id="defs2">
    <linearGradient
       inkscape:collect="always"
       id="linearGradient2739">
      <stop
         style="stop-color:#8a8a8a;stop-opacity:1;"
         offset="0"
         id="stop2735" />
      <stop
         style="stop-color:#c0c0c0;stop-opacity:1;"
         offset="1"
         id="stop2737" />
    </linearGradient>
    <linearGradient
       inkscape:collect="always"
       xlink:href="#linearGradient2739"
       id="linearGradient3525"
       x1="50"
       y1="60"
       x2="14"
       y2="4"
       gradientUnits="userSpaceOnUse" />
  </defs>
  <rect
     style="fill:url(#linearGradient3525);fill-opacity:1.0;stroke:none"
     id="rect184"
     width="55"
     height="55"
     x="4.5"
     y="4.5"
     ry="9.5" />
  <path
     d="m 32.000001,17 v 2 h 6 v 27.999991 h -6 v 2 h 14 v -2 h -6 V 19 h 6 v -2 m -32.68749,8 c -0.6991,0.003 -1.31556,0.65419 -1.3125,1.3125 v 13.374991 c 6e-5,0.69807 0.68952,1.31242 1.4375,1.3125 h 22.56249 v -2 H 14.000021 V 27 h 21.99999 v -2 m 6,0 v 2 h 7.99999 v 11.999991 h -8 v 2 h 8.5625 c 0.74799,-8e-5 1.43743,-0.61443 1.4375,-1.3125 V 26.3125 c -7e-5,-0.69806 -0.68951,-1.31245 -1.4375,-1.3125 z m -24,6 v 3.999991 h 14 V 31 Z"
     style="display:inline;fill:#1a1a1a;fill-opacity:1;stroke:none;enable-background:new;opacity:0.2"
     id="path1365" />
  <path
     d="m 32.000001,16.000005 v 2 h 6 v 27.99999 h -6 v 2 h 14 v -2 h -6 v -27.99999 h 6 v -2 m -32.68749,8 c -0.6991,0.003 -1.31556,0.65419 -1.3125,1.3125 v 13.37499 c 6e-5,0.69807 0.68952,1.31242 1.4375,1.3125 h 22.56249 v -2 h -21.99998 v -11.99999 h 21.99999 v -2 m 6,0 v 2 h 7.99999 v 11.99999 h -8 v 2 h 8.5625 c 0.74799,-8e-5 1.43743,-0.61443 1.4375,-1.3125 v -13.37499 c -7e-5,-0.69806 -0.68951,-1.31245 -1.4375,-1.3125 z m -24,6 v 3.99999 h 14 v -3.99999 z"
     style="display:inline;fill:#ffffff;fill-opacity:1;stroke:none;enable-background:new"
     id="path1017"
     sodipodi:nodetypes="cccccccccccccccccccccccccccccccccccccc" />
  <path
     id="rect2630"
     style="opacity:0.3;fill:#ffffff;fill-opacity:1"
     d="M 14,5 C 9.014005,5 5,9.014005 5,14 v 1 C 5,10.014005 9.014005,6 14,6 h 36 c 4.985995,0 9,4.014005 9,9 V 14 C 59,9.014005 54.985995,5 50,5 Z" />
  <path
     id="rect899"
     style="fill:#000000;stroke:none;opacity:0.6"
     d="M 14,4 C 8.4600055,4 4,8.4600055 4,14 v 36 c 0,5.539994 4.4600055,10 10,10 h 36 c 5.539994,0 10,-4.460006 10,-10 V 14 C 60,8.4600055 55.539994,4 50,4 Z m 0,1 h 36 c 4.985995,0 9,4.014005 9,9 v 36 c 0,4.985995 -4.014005,9 -9,9 H 14 C 9.014005,59 5,54.985995 5,50 V 14 C 5,9.014005 9.014005,5 14,5 Z" />
  <path
     id="rect398"
     style="opacity:0.3;fill:#ffffff"
     d="M 5 49 L 5 50 C 5 54.985995 9.014005 59 14 59 L 50 59 C 54.985995 59 59 54.985995 59 50 L 59 49 C 59 53.985995 54.985995 58 50 58 L 14 58 C 9.014005 58 5 53.985995 5 49 z " />
</svg>
