<?xml version="1.0" encoding="UTF-8" standalone="no"?>
<!-- Created with Inkscape (http://www.inkscape.org/) -->

<svg
   width="64"
   height="64"
   viewBox="0 0 64 64.000003"
   version="1.1"
   id="svg5"
   sodipodi:docname="krita.svg"
   inkscape:version="1.2.1 (9c6d41e410, 2022-07-14)"
   xmlns:inkscape="http://www.inkscape.org/namespaces/inkscape"
   xmlns:sodipodi="http://sodipodi.sourceforge.net/DTD/sodipodi-0.dtd"
   xmlns:xlink="http://www.w3.org/1999/xlink"
   xmlns="http://www.w3.org/2000/svg"
   xmlns:svg="http://www.w3.org/2000/svg">
  <sodipodi:namedview
     id="namedview7"
     pagecolor="#ffffff"
     bordercolor="#666666"
     borderopacity="1.0"
     inkscape:showpageshadow="2"
     inkscape:pageopacity="0.0"
     inkscape:pagecheckerboard="0"
     inkscape:deskcolor="#d1d1d1"
     inkscape:document-units="px"
     showgrid="false"
     inkscape:zoom="14.142857"
     inkscape:cx="31.994949"
     inkscape:cy="32.030303"
     inkscape:window-width="1920"
     inkscape:window-height="1007"
     inkscape:window-x="0"
     inkscape:window-y="0"
     inkscape:window-maximized="1"
     inkscape:current-layer="svg5"
     showguides="false" />
  <defs
     id="defs2">
    <radialGradient
       inkscape:collect="always"
       xlink:href="#linearGradient2379"
       id="radialGradient2381"
       cx="2.1663227e-14"
       cy="250"
       fx="2.1663227e-14"
       fy="250"
       r="125"
       gradientUnits="userSpaceOnUse"
       gradientTransform="matrix(0.44,0,0,0.44,4.4999995,-50.500004)" />
    <linearGradient
       inkscape:collect="always"
       id="linearGradient2379">
      <stop
         style="stop-color:#65dafa;stop-opacity:1;"
         offset="0"
         id="stop2375" />
      <stop
         style="stop-color:#65dafa;stop-opacity:0.69999999;"
         offset="0.60000002"
         id="stop5823" />
      <stop
         style="stop-color:#65dafa;stop-opacity:0;"
         offset="1"
         id="stop2377" />
    </linearGradient>
    <radialGradient
       inkscape:collect="always"
       xlink:href="#linearGradient5039"
       id="radialGradient5041"
       cx="-51.776695"
       cy="125"
       fx="-51.776695"
       fy="125"
       r="125"
       gradientUnits="userSpaceOnUse"
       gradientTransform="matrix(0,-0.44,0.44,0,4.5000015,36.718255)" />
    <linearGradient
       inkscape:collect="always"
       id="linearGradient5039">
      <stop
         style="stop-color:#f1ea8e;stop-opacity:1;"
         offset="0"
         id="stop5035" />
      <stop
         style="stop-color:#f1ea8e;stop-opacity:0.53583348;"
         offset="0.5"
         id="stop5825" />
      <stop
         style="stop-color:#f1ea8e;stop-opacity:0;"
         offset="1"
         id="stop5037" />
    </linearGradient>
  </defs>
  <rect
     style="fill:#ed87dc;fill-opacity:1;stroke:none"
     id="rect184"
     width="55"
     height="55"
     x="4.5"
     y="4.5"
     ry="9.5" />
  <rect
     style="fill:url(#radialGradient2381);fill-opacity:1;stroke-width:0.22;stroke-linejoin:round"
     id="rect236"
     width="55"
     height="55"
     x="4.5"
     y="4.5"
     ry="9.5" />
  <rect
     style="fill:url(#radialGradient5041);fill-opacity:1;stroke-width:0.22;stroke-linejoin:round"
     id="rect2435"
     width="55"
     height="55"
     x="4.5"
     y="4.5"
     ry="9.5" />
  <path
     d="m 47.026311,17.015099 c -2.409271,-0.3037 -8.69413,4.004261 -14.888164,10.200737 -2.762173,2.763843 -5.15939,5.495116 -6.995429,8.071307 2.151866,0.685588 3.886129,2.418706 4.571359,4.57136 2.575209,-1.83657 5.312681,-4.223347 8.075769,-6.986504 7.027372,-7.03029 11.458245,-13.994851 9.897171,-15.557798 -0.160462,-0.1616 -0.379365,-0.263015 -0.660706,-0.299102 z M 23.999879,38.327275 v 0.0046 C 16.000432,40.476304 21.999575,45.541895 16,49.001269 c 7.999447,0 11.999818,-4.004104 11.999818,-6.674003 0,-1.330905 0.135662,-3.778455 -3.999939,-3.999938 z"
     style="color:#444444;opacity:0.5;fill:#ffffff;stroke-width:2.28567"
     id="path11335" />
  <path
     d="m 47.026311,16.015099 c -2.409271,-0.3037 -8.69413,4.004261 -14.888164,10.200737 -2.762173,2.763843 -5.15939,5.495116 -6.995429,8.071306 2.151866,0.685588 3.886129,2.418706 4.571359,4.57136 2.575209,-1.83657 5.312681,-4.223347 8.075769,-6.986503 7.027372,-7.03029 11.458245,-13.994851 9.897171,-15.557798 -0.160462,-0.1616 -0.379365,-0.263015 -0.660706,-0.299102 z M 23.999879,37.327274 v 0.0046 C 16.000432,39.476303 21.999575,44.541894 16,48.001268 c 7.999447,0 11.999818,-4.004104 11.999818,-6.674003 0,-1.330905 0.135662,-3.778455 -3.999939,-3.999938 z"
     style="color:#444444;fill:#333333;stroke-width:2.28567"
     id="path347"
     sodipodi:nodetypes="ccccccccccscc" />
  <path
     id="rect2630"
     style="opacity:0.3;fill:#ffffff;fill-opacity:1"
     d="M 14,5 C 9.014005,5 5,9.014005 5,14 v 1 C 5,10.014005 9.014005,6 14,6 h 36 c 4.985995,0 9,4.014005 9,9 V 14 C 59,9.014005 54.985995,5 50,5 Z" />
  <path
     id="rect899"
     style="fill:#000000;stroke:none;opacity:0.6"
     d="M 14,4 C 8.4600055,4 4,8.4600055 4,14 v 36 c 0,5.539994 4.4600055,10 10,10 h 36 c 5.539994,0 10,-4.460006 10,-10 V 14 C 60,8.4600055 55.539994,4 50,4 Z m 0,1 h 36 c 4.985995,0 9,4.014005 9,9 v 36 c 0,4.985995 -4.014005,9 -9,9 H 14 C 9.014005,59 5,54.985995 5,50 V 14 C 5,9.014005 9.014005,5 14,5 Z" />
  <path
     id="rect398"
     style="opacity:0.3;fill:#ffffff"
     d="M 5 49 L 5 50 C 5 54.985995 9.014005 59 14 59 L 50 59 C 54.985995 59 59 54.985995 59 50 L 59 49 C 59 53.985995 54.985995 58 50 58 L 14 58 C 9.014005 58 5 53.985995 5 49 z " />
</svg>
