<?xml version="1.0" encoding="UTF-8" standalone="no"?>
<!-- Created with Inkscape (http://www.inkscape.org/) -->

<svg
   width="64"
   height="64"
   viewBox="0 0 64 64.000003"
   version="1.1"
   id="svg5"
   sodipodi:docname="ksudoku.svg"
   inkscape:version="1.2.1 (9c6d41e410, 2022-07-14)"
   xmlns:inkscape="http://www.inkscape.org/namespaces/inkscape"
   xmlns:sodipodi="http://sodipodi.sourceforge.net/DTD/sodipodi-0.dtd"
   xmlns:xlink="http://www.w3.org/1999/xlink"
   xmlns="http://www.w3.org/2000/svg"
   xmlns:svg="http://www.w3.org/2000/svg">
  <sodipodi:namedview
     id="namedview7"
     pagecolor="#ffffff"
     bordercolor="#666666"
     borderopacity="1.0"
     inkscape:showpageshadow="2"
     inkscape:pageopacity="0.0"
     inkscape:pagecheckerboard="0"
     inkscape:deskcolor="#d1d1d1"
     inkscape:document-units="px"
     showgrid="false"
     inkscape:zoom="12.828125"
     inkscape:cx="31.961023"
     inkscape:cy="32"
     inkscape:window-width="1920"
     inkscape:window-height="1007"
     inkscape:window-x="0"
     inkscape:window-y="0"
     inkscape:window-maximized="1"
     inkscape:current-layer="svg5"
     showguides="true" />
  <defs
     id="defs2">
    <linearGradient
       inkscape:collect="always"
       xlink:href="#linearGradient22024"
       id="linearGradient3525"
       x1="32"
       y1="60"
       x2="32"
       y2="4"
       gradientUnits="userSpaceOnUse" />
    <linearGradient
       inkscape:collect="always"
       id="linearGradient22024">
      <stop
         style="stop-color:#dedede;stop-opacity:1;"
         offset="0"
         id="stop22020" />
      <stop
         style="stop-color:#f5f5f5;stop-opacity:1;"
         offset="1"
         id="stop22022" />
    </linearGradient>
  </defs>
  <rect
     style="fill:url(#linearGradient3525);fill-opacity:1;stroke:none"
     id="rect184"
     width="55"
     height="55"
     x="4.5"
     y="4.5"
     ry="9.5" />
  <path
     d="M 20.57143,3.9999998 V 20.571715 H 4 v 1.428571 H 20.57143 V 42.000287 H 4 v 1.42857 H 20.57143 V 60 H 22 V 43.428857 H 42 V 60 h 1.42857 V 43.428857 H 60 v -1.42857 H 43.42857 V 22.000285 H 60 v -1.42857 H 43.42857 V 3.9999998 H 42 V 20.571715 H 22 V 3.9999998 Z M 22,22.000285 H 42 V 42.000287 H 22 Z"
     style="color:#000000;font-style:normal;font-variant:normal;font-weight:normal;font-stretch:normal;font-size:medium;line-height:normal;font-family:Sans;-inkscape-font-specification:Sans;text-indent:0;text-align:start;text-decoration:none;text-decoration-line:none;letter-spacing:normal;word-spacing:normal;text-transform:none;writing-mode:lr-tb;direction:ltr;baseline-shift:baseline;text-anchor:start;display:inline;overflow:visible;visibility:visible;opacity:0.2;fill:#000000;fill-opacity:1;stroke:none;stroke-width:0.999999px;marker:none;enable-background:accumulate"
     id="path633"
     sodipodi:nodetypes="cccccccccccccccccccccccccccccccccc" />
  <path
     d="m 4,22.000286 v 1.42857 h 56 v -1.42857 z m 0,21.428857 v 1.42857 h 56 v -1.42857 z"
     style="color:#000000;font-style:normal;font-variant:normal;font-weight:normal;font-stretch:normal;font-size:medium;line-height:normal;font-family:Sans;-inkscape-font-specification:Sans;text-indent:0;text-align:start;text-decoration:none;text-decoration-line:none;letter-spacing:normal;word-spacing:normal;text-transform:none;writing-mode:lr-tb;direction:ltr;baseline-shift:baseline;text-anchor:start;display:inline;overflow:visible;visibility:visible;opacity:0.2;fill:#ffffff;fill-opacity:1;stroke:none;stroke-width:0.999999px;marker:none;enable-background:accumulate"
     id="path868"
     sodipodi:nodetypes="cccccccccc" />
  <rect
     style="opacity:1;fill:#a348b1;stroke-linecap:round;stroke-linejoin:round;fill-opacity:1"
     id="rect945"
     width="22"
     height="22"
     x="21"
     y="21" />
  <path
     d="m 31.16143,37.73456 c 1.01714,0 1.74286,-0.2 2.17714,-0.6 0.44572,-0.4 0.66857,-0.93714 0.66857,-1.61143 0,-0.43428 -0.0914,-0.8 -0.27428,-1.09714 -0.18286,-0.29714 -0.42286,-0.53143 -0.72,-0.70286 -0.29715,-0.18285 -0.64572,-0.30857 -1.04572,-0.37714 -0.38857,-0.08 -0.78857,-0.12 -1.2,-0.12 h -0.41143 v -1.30286 h 0.56572 c 0.28571,0 0.57714,-0.0286 0.87428,-0.0857 0.30858,-0.0571 0.58858,-0.16 0.84,-0.30857 0.25143,-0.14857 0.45715,-0.34857 0.61715,-0.6 0.16,-0.26286 0.24,-0.58857 0.24,-0.97715 0,-0.32 -0.0572,-0.59428 -0.17143,-0.82285 -0.11429,-0.22857 -0.26857,-0.41715 -0.46286,-0.56572 -0.18286,-0.14857 -0.4,-0.25143 -0.65143,-0.30857 -0.24,-0.0686 -0.49714,-0.10286 -0.77143,-0.10286 -0.54857,0 -1.01714,0.08 -1.40571,0.24 -0.37714,0.16 -0.69714,0.32572 -0.96,0.49715 l -0.61714,-1.21715 c 0.13714,-0.0914 0.30857,-0.18857 0.51428,-0.29142 0.21715,-0.11429 0.45715,-0.21715 0.72,-0.30858 0.262859,-0.0914 0.542859,-0.16571 0.84,-0.22285 0.30857,-0.0686 0.62857,-0.10286 0.96,-0.10286 0.62857,0 1.17143,0.08 1.62857,0.24 0.45715,0.14857 0.83429,0.36571 1.13143,0.65143 0.29715,0.27428 0.52,0.60571 0.66857,0.99428 0.14858,0.37715 0.22286,0.78858 0.22286,1.23429 0,0.61714 -0.17714,1.14857 -0.53143,1.59429 -0.35428,0.43428 -0.78285,0.76571 -1.28571,0.99428 0.30857,0.0914 0.60571,0.22286 0.89143,0.39429 0.28571,0.17143 0.53143,0.38857 0.73714,0.65143 0.21714,0.26285 0.38857,0.56571 0.51429,0.90857 0.13714,0.34285 0.20571,0.72571 0.20571,1.14857 0,0.51428 -0.0914,0.99428 -0.27429,1.44 -0.17142,0.43428 -0.44571,0.81143 -0.82285,1.13143 -0.36572,0.32 -0.82857,0.57143 -1.38857,0.75428 -0.56,0.18286 -1.22286,0.27429 -1.98858,0.27429 -0.29714,0 -0.60571,-0.0229 -0.92571,-0.0686 -0.30857,-0.0457 -0.600001,-0.10286 -0.87429,-0.17143 -0.27428,-0.0686 -0.51428,-0.13714 -0.72,-0.20572 C 28.47,38.64308 28.32143,38.58597 28.23,38.54026 l 0.30857,-1.38858 c 0.19429,0.0914 0.51429,0.21143 0.96,0.36 0.45714,0.14858 1.011429,0.22286 1.66286,0.22286 z"
     style="font-size:12px;line-height:1.25;opacity:0.2;fill:#000000;stroke-width:0.999999"
     id="path8490"
     sodipodi:nodetypes="ccscccsccscscscccsccccccscccsccsccsccsscccccccc" />
  <path
     d="m 31.16143,36.734561 c 1.01714,0 1.74286,-0.2 2.17714,-0.6 0.44572,-0.4 0.66857,-0.93714 0.66857,-1.61143 0,-0.43428 -0.0914,-0.8 -0.27428,-1.09714 -0.18286,-0.29714 -0.42286,-0.53143 -0.72,-0.70286 -0.29715,-0.18285 -0.64572,-0.30857 -1.04572,-0.37714 -0.38857,-0.08 -0.78857,-0.12 -1.2,-0.12 H 30.35571 V 30.92313 h 0.56572 c 0.28571,0 0.57714,-0.0286 0.87428,-0.0857 0.30858,-0.0571 0.58858,-0.16 0.84,-0.30857 0.25143,-0.14857 0.45715,-0.34857 0.61715,-0.6 0.16,-0.26286 0.24,-0.58857 0.24,-0.97715 0,-0.32 -0.0572,-0.59428 -0.17143,-0.82285 -0.11429,-0.22857 -0.26857,-0.41715 -0.46286,-0.56572 -0.18286,-0.14857 -0.4,-0.25143 -0.65143,-0.30857 -0.24,-0.0686 -0.49714,-0.10286 -0.77143,-0.10286 -0.54857,0 -1.01714,0.08 -1.40571,0.24 -0.37714,0.16 -0.69714,0.32572 -0.96,0.49715 l -0.61714,-1.21715 c 0.13714,-0.0914 0.30857,-0.18857 0.51428,-0.29142 0.21715,-0.11429 0.45715,-0.21715 0.72,-0.30858 0.262859,-0.0914 0.542859,-0.16571 0.84,-0.22285 0.30857,-0.0686 0.62857,-0.10286 0.96,-0.10286 0.62857,0 1.17143,0.08 1.62857,0.24 0.45715,0.14857 0.83429,0.36571 1.13143,0.65143 0.29715,0.27428 0.52,0.60571 0.66857,0.99428 0.14858,0.37715 0.22286,0.78858 0.22286,1.23429 0,0.61714 -0.17714,1.14857 -0.53143,1.59429 -0.35428,0.43428 -0.78285,0.765711 -1.28571,0.994281 0.30857,0.0914 0.60571,0.22286 0.89143,0.39429 0.28571,0.17143 0.53143,0.38857 0.73714,0.65143 0.21714,0.26285 0.38857,0.56571 0.51429,0.90857 0.13714,0.34285 0.20571,0.72571 0.20571,1.14857 0,0.51428 -0.0914,0.99428 -0.27429,1.44 -0.17142,0.43428 -0.44571,0.81143 -0.82285,1.13143 -0.36572,0.32 -0.82857,0.57143 -1.38857,0.75428 -0.56,0.18286 -1.22286,0.27429 -1.98858,0.27429 -0.29714,0 -0.60571,-0.0229 -0.92571,-0.0686 -0.30857,-0.0457 -0.600001,-0.10286 -0.87429,-0.17143 -0.27428,-0.0686 -0.51428,-0.13714 -0.72,-0.20572 -0.20571,-0.0686 -0.35428,-0.12571 -0.44571,-0.17142 l 0.30857,-1.38858 c 0.19429,0.0914 0.51429,0.21143 0.96,0.36 0.45714,0.14858 1.011429,0.22286 1.66286,0.22286 z"
     style="font-size:12px;line-height:1.25;opacity:1;fill:#ffffff;stroke-width:0.999999"
     id="path10343" />
  <path
     d="m 16.714206,31.659802 c 0,2.354268 -0.588564,4.137111 -1.765693,5.34853 -1.165709,1.199988 -2.902832,1.805692 -5.21138,1.817122 l -0.0514,-1.337127 c 0.719993,0 1.365707,-0.0686 1.937121,-0.205718 0.582855,-0.137139 1.09142,-0.354277 1.525706,-0.651424 0.434275,-0.308567 0.794272,-0.702843 1.079989,-1.182839 0.297137,-0.479995 0.514275,-1.06857 0.651424,-1.765703 -0.297147,0.137139 -0.634284,0.251428 -1.01142,0.342857 -0.377137,0.08 -0.765713,0.119999 -1.165709,0.119999 -0.674274,0 -1.245698,-0.0971 -1.714264,-0.291427 C 10.520016,33.648364 10.137159,33.379786 9.840022,33.04837 9.542875,32.705512 9.325737,32.316946 9.188599,31.88266 9.062849,31.436954 9,30.974098 9,30.494103 9,30.071247 9.0743,29.631251 9.222848,29.174116 9.371426,28.71698 9.594274,28.299834 9.891421,27.922698 10.199989,27.545561 10.588555,27.236994 11.05712,26.996997 11.525686,26.756999 12.07997,26.637 12.719964,26.637 c 0.651424,0 1.222838,0.114279 1.714264,0.342847 0.502855,0.228578 0.919991,0.559995 1.251418,0.99428 0.342856,0.434286 0.599994,0.965701 0.771422,1.594275 0.171429,0.617134 0.257138,1.314267 0.257138,2.0914 z m -3.839963,1.182848 c 0.399996,0 0.777142,-0.0343 1.131419,-0.102859 0.354286,-0.08 0.697133,-0.194278 1.02856,-0.342846 0.0114,-0.125719 0.0171,-0.245718 0.0171,-0.359997 v -0.377146 c 0,-0.491415 -0.0343,-0.959991 -0.102859,-1.405697 -0.0686,-0.457135 -0.194288,-0.851422 -0.377136,-1.182848 -0.171429,-0.342847 -0.405716,-0.611424 -0.702854,-0.805702 -0.297137,-0.205719 -0.674283,-0.308568 -1.131419,-0.308568 -0.377136,0 -0.697133,0.08 -0.959991,0.239998 -0.262857,0.159999 -0.479995,0.365706 -0.651423,0.617134 -0.171429,0.239998 -0.297138,0.508566 -0.377137,0.805702 -0.0686,0.285718 -0.102859,0.565715 -0.102859,0.839992 0,0.777143 0.182858,1.371417 0.548565,1.782843 0.377146,0.399997 0.937141,0.599994 1.679984,0.599994 z m 35.125373,16.026618 c 0.651423,-0.251427 1.285708,-0.571424 1.902841,-0.959991 0.617135,-0.399996 1.182839,-0.897141 1.697124,-1.491415 H 52.731 v 11.879886 h -1.594275 v -9.668477 c -0.137138,0.125708 -0.308566,0.257137 -0.514275,0.394276 -0.194288,0.137148 -0.411426,0.268567 -0.651423,0.394286 -0.228568,0.125709 -0.474286,0.245707 -0.737133,0.359997 -0.251428,0.114278 -0.497145,0.211428 -0.737143,0.291426 z"
     style="font-size:12px;line-height:1.25;stroke-width:0.999989;fill:#000000;opacity:0.2"
     id="path8090" />
  <path
     d="m 16.714206,30.659802 c 0,2.354267 -0.588564,4.13711 -1.765693,5.348529 -1.165709,1.199988 -2.902832,1.805692 -5.21138,1.817122 l -0.0514,-1.337127 c 0.719993,0 1.365707,-0.0686 1.937121,-0.205718 0.582855,-0.137139 1.09142,-0.354277 1.525706,-0.651424 0.434275,-0.308567 0.794272,-0.702843 1.079989,-1.182839 0.297137,-0.479995 0.514275,-1.06857 0.651424,-1.765703 -0.297147,0.137139 -0.634284,0.251428 -1.01142,0.342857 -0.377137,0.08 -0.765713,0.119999 -1.165709,0.119999 -0.674274,0 -1.245698,-0.0971 -1.714264,-0.291427 C 10.520016,32.648363 10.137159,32.379785 9.840022,32.048369 9.542875,31.705512 9.325737,31.316946 9.188599,30.88266 9.062849,30.436954 9,29.974098 9,29.494103 9,29.071247 9.0743,28.631251 9.222848,28.174116 9.371426,27.71698 9.594274,27.299834 9.891421,26.922698 10.199989,26.545561 10.588555,26.236994 11.05712,25.996997 11.525686,25.756999 12.07997,25.637 12.719964,25.637 c 0.651424,0 1.222838,0.114279 1.714264,0.342847 0.502855,0.228578 0.919991,0.559995 1.251418,0.99428 0.342856,0.434286 0.599994,0.965701 0.771422,1.594275 0.171429,0.617134 0.257138,1.314267 0.257138,2.0914 z m -3.839963,1.182848 c 0.399996,0 0.777142,-0.0343 1.131419,-0.102859 0.354286,-0.08 0.697133,-0.194278 1.02856,-0.342846 0.0114,-0.125719 0.0171,-0.245718 0.0171,-0.359997 v -0.377146 c 0,-0.491415 -0.0343,-0.959991 -0.102859,-1.405697 -0.0686,-0.457135 -0.194288,-0.851422 -0.377136,-1.182848 -0.171429,-0.342847 -0.405716,-0.611424 -0.702854,-0.805702 -0.297137,-0.205719 -0.674283,-0.308568 -1.131419,-0.308568 -0.377136,0 -0.697133,0.08 -0.959991,0.239998 -0.262857,0.159999 -0.479995,0.365706 -0.651423,0.617134 -0.171429,0.239998 -0.297138,0.508566 -0.377137,0.805702 -0.0686,0.285718 -0.102859,0.565715 -0.102859,0.839992 0,0.777143 0.182858,1.371417 0.548565,1.782843 0.377146,0.399997 0.937141,0.599994 1.679984,0.599994 z m 35.125373,16.026617 c 0.651423,-0.251427 1.285708,-0.571424 1.902841,-0.959991 0.617135,-0.399996 1.182839,-0.897141 1.697124,-1.491415 H 52.731 V 57.297746 H 51.136725 V 47.62927 c -0.137138,0.125708 -0.308566,0.257137 -0.514275,0.394276 -0.194288,0.137148 -0.411426,0.268567 -0.651423,0.394286 -0.228568,0.125709 -0.474286,0.245707 -0.737133,0.359997 -0.251428,0.114278 -0.497145,0.211428 -0.737143,0.291426 z"
     style="font-size:12px;line-height:1.25;stroke-width:0.999989;fill:#4d4d4d"
     id="path4422"
     sodipodi:nodetypes="sccccccccscccsccsscccssccsscccssccscsscccccccccccc" />
  <path
     id="rect2630"
     style="opacity:0.3;fill:#ffffff;fill-opacity:1"
     d="M 14,5 C 9.014005,5 5,9.014005 5,14 v 1 C 5,10.014005 9.014005,6 14,6 h 36 c 4.985995,0 9,4.014005 9,9 V 14 C 59,9.014005 54.985995,5 50,5 Z" />
  <path
     id="rect899"
     style="fill:#000000;stroke:none;opacity:0.6"
     d="M 14,4 C 8.4600055,4 4,8.4600055 4,14 v 36 c 0,5.539994 4.4600055,10 10,10 h 36 c 5.539994,0 10,-4.460006 10,-10 V 14 C 60,8.4600055 55.539994,4 50,4 Z m 0,1 h 36 c 4.985995,0 9,4.014005 9,9 v 36 c 0,4.985995 -4.014005,9 -9,9 H 14 C 9.014005,59 5,54.985995 5,50 V 14 C 5,9.014005 9.014005,5 14,5 Z" />
  <path
     id="rect398"
     style="opacity:0.3;fill:#ffffff"
     d="M 5 49 L 5 50 C 5 54.985995 9.014005 59 14 59 L 50 59 C 54.985995 59 59 54.985995 59 50 L 59 49 C 59 53.985995 54.985995 58 50 58 L 14 58 C 9.014005 58 5 53.985995 5 49 z " />
</svg>
