<?xml version="1.0" encoding="UTF-8" standalone="no"?>
<!-- Created with Inkscape (http://www.inkscape.org/) -->

<svg
   width="64"
   height="64"
   viewBox="0 0 64 64.000003"
   version="1.1"
   id="svg5"
   sodipodi:docname="ktorrent.svg"
   inkscape:version="1.2.1 (9c6d41e410, 2022-07-14)"
   xmlns:inkscape="http://www.inkscape.org/namespaces/inkscape"
   xmlns:sodipodi="http://sodipodi.sourceforge.net/DTD/sodipodi-0.dtd"
   xmlns:xlink="http://www.w3.org/1999/xlink"
   xmlns="http://www.w3.org/2000/svg"
   xmlns:svg="http://www.w3.org/2000/svg">
  <sodipodi:namedview
     id="namedview7"
     pagecolor="#ffffff"
     bordercolor="#666666"
     borderopacity="1.0"
     inkscape:showpageshadow="2"
     inkscape:pageopacity="0.0"
     inkscape:pagecheckerboard="0"
     inkscape:deskcolor="#d1d1d1"
     inkscape:document-units="px"
     showgrid="false"
     inkscape:zoom="12.421875"
     inkscape:cx="32"
     inkscape:cy="32"
     inkscape:window-width="1920"
     inkscape:window-height="1007"
     inkscape:window-x="0"
     inkscape:window-y="0"
     inkscape:window-maximized="1"
     inkscape:current-layer="svg5" />
  <defs
     id="defs2">
    <linearGradient
       inkscape:collect="always"
       xlink:href="#linearGradient1265"
       id="linearGradient3525"
       x1="50"
       y1="60"
       x2="14"
       y2="4"
       gradientUnits="userSpaceOnUse" />
    <linearGradient
       inkscape:collect="always"
       id="linearGradient1265">
      <stop
         style="stop-color:#2d7ff3;stop-opacity:1;"
         offset="0"
         id="stop1261" />
      <stop
         style="stop-color:#2cdbfa;stop-opacity:1;"
         offset="1"
         id="stop1263" />
    </linearGradient>
  </defs>
  <rect
     style="fill:url(#linearGradient3525);fill-opacity:1;stroke:none;stroke-width:1"
     id="rect184"
     width="55"
     height="55"
     x="4.5"
     y="4.5"
     ry="9.5" />
  <path
     d="m 24.5,13 v 16.523439 5.458983 c -0.649744,0.310423 -1.297451,1.037747 -1.850586,1.601563 -0.910219,0.925826 -1.720375,0.989677 -2.368164,0.434571 -0.646812,-0.554131 -0.08276,-2.063041 -0.830077,-3.579105 -0.746323,-1.516055 -2.227752,-0.760691 -2.436525,0.263674 -0.208775,1.024361 1.873618,1.716392 1.469727,2.285154 -0.403893,0.568767 -2.01903,0.437406 -2.495117,-0.634764 -0.47511,-1.072164 -1.512716,-0.7208 -1.533203,0.156251 -0.0205,0.878028 0.803378,0.261384 1.445313,0.903318 L 32.488281,53.000005 49.070312,36.413084 c 1.951169,-1.951166 -0.281711,-1.112838 -0.742186,-0.673827 -0.459505,0.439014 -1.882981,0.793466 -2.05078,0.312502 -0.166817,-0.480964 1.59327,-1.28765 2.094724,-1.831056 0.50145,-0.543399 0.991374,-2.085531 0.18068,-2.651364 -0.81072,-0.565843 -1.95753,0.453878 -2.456056,1.206052 -0.501447,0.752177 -0.06808,2.671486 -0.737303,3.256833 -0.66925,0.585354 -1.037232,0.228 -1.162109,-0.273436 -0.125861,-0.501447 1.444653,-1.208277 0.786132,-2.45605 -0.659494,-1.247774 -1.87752,-0.682042 -2.441406,-0.09766 -0.563887,0.585354 0.337122,1.487251 0.546875,2.407229 0.20878,0.919974 -1.927596,0.89615 -2.763673,0.561521 -0.365285,-0.146187 -0.620939,-0.629813 -0.825205,-1.137694 V 13 Z M 15.686523,28 C 15.026367,28.0335 14.5,28.581562 14.5,29.25 c 0,0.689997 0.56,1.25 1.25,1.25 C 16.44,30.5 17,29.939997 17,29.25 17,28.56 16.44,28 15.75,28 c -0.02151,0 -0.04218,-0.0011 -0.06348,0 z m 6.811524,0 c -0.373856,0.01635 -0.811317,0.374206 -0.361327,0.86914 0.639009,0.704538 0.979896,1.960701 0.410155,2.211916 -0.572669,0.25122 -0.535205,-0.936512 -0.585936,-1.567384 -0.04976,-0.630867 -1.631448,-1.011461 -2.216798,-0.229508 -0.585351,0.781977 0.0015,1.62688 0.581054,1.796875 0.579496,0.170919 0.671245,0.811788 1.015625,1.47949 0.345359,0.6677 2.021895,0.500537 2.431642,0 0.409744,-0.500541 0.666189,-1.431563 -0.131823,-2.290036 -0.79803,-0.858475 -0.555879,-1.656523 -0.771484,-2.094729 -0.05366,-0.109563 -0.169083,-0.164453 -0.297851,-0.175774 -0.0239,-0.002 -0.04833,-0.0011 -0.07326,0 z m 23.188479,0 C 45.026367,28.03351 44.5,28.581562 44.5,29.25 c 0,0.689997 0.56,1.25 1.25,1.25 C 46.44,30.5 47,29.939997 47,29.25 47,28.56 46.44,28 45.75,28 c -0.02139,0 -0.04216,-0.0011 -0.06347,0 z m -4.47266,0.415036 c -0.450767,0.01012 -0.647386,0.919441 -0.761715,1.777346 -0.121962,0.915099 -0.58164,1.862485 -0.18556,2.045897 0.549253,0.2439 0.829724,-1.260327 1.450196,-1.821285 0.62047,-0.56194 0.1079,-1.870242 -0.410158,-1.992189 -0.03238,-0.0075 -0.06271,-0.01062 -0.09278,-0.0098 z M 12.976562,31.046877 C 12.43804,31.046877 12,31.484916 12,32.023436 12,32.561962 12.43804,33 12.976562,33 c 0.538523,0 0.976563,-0.438038 0.976563,-0.976564 0,-0.53852 -0.43804,-0.976559 -0.976563,-0.976559 z m 37.998047,1.962889 c -0.515233,0.02614 -0.927734,0.454865 -0.927734,0.976561 0,0.538525 0.438039,0.97168 0.976561,0.97168 0.538524,0 0.976564,-0.433155 0.976564,-0.97168 0,-0.538523 -0.43804,-0.976561 -0.976564,-0.976561 -0.01685,0 -0.0322,-8.4e-4 -0.04882,0 z"
     style="opacity:0.2;fill:#000000;fill-opacity:1;stroke-width:5;stroke-linecap:round;stroke-linejoin:round"
     id="path3386" />
  <rect
     style="fill:#ffffff;fill-opacity:1;stroke-width:4.99994;stroke-linecap:round;stroke-linejoin:round"
     id="rect919"
     width="14.999824"
     height="24.999706"
     x="24.499851"
     y="12" />
  <path
     d="m 33.25,23.00048 c -0.660161,0.03351 -1.186524,0.581562 -1.186524,1.25 0,0.689997 0.56,1.25 1.25,1.25 0.69,0 1.25,-0.560003 1.25,-1.25 0,-0.69 -0.56,-1.25 -1.25,-1.25 -0.02139,0 -0.04216,-0.0011 -0.06348,0 z m -5.561523,4.975587 c -0.06539,0.0077 -0.128981,0.02639 -0.190415,0.05371 -0.493647,0.216579 -0.65853,0.92238 -0.0098,2.402342 0.649742,1.479964 1.576668,2.506617 2.070313,2.290041 0.493657,-0.216579 0.365572,-1.591317 -0.283193,-3.071282 -0.567882,-1.295577 -1.126526,-1.726506 -1.587005,-1.66992 z m -2.148437,0.571367 c -0.538525,-3e-6 -0.976564,0.438037 -0.976564,0.976561 0,0.538524 0.438039,0.976564 0.976564,0.976564 0.538524,0 0.976561,-0.43804 0.976561,-0.976564 0,-0.538524 -0.438037,-0.976564 -0.976561,-0.976561 z m 11.05957,0.292971 c -0.634141,0.04681 -1.26203,1.129657 -1.572264,1.879881 -0.355115,0.856566 0.07434,2.527968 -0.761721,3.154295 -0.836075,0.627298 -1.447683,0.641349 -1.865233,0.390624 -0.417552,-0.250717 0.354025,-0.21678 -0.1123,-1.171874 -0.467307,-0.9551 -1.582323,-0.656481 -1.875001,0.0879 -0.292676,0.74437 0.312293,0.708445 0.102538,1.147459 -0.20878,0.439015 -1.985752,0.91665 -2.382813,-0.40039 -0.397079,-1.317041 -2.194179,-0.732351 -1.044939,0.312501 1.149242,1.044853 -0.294945,1.606634 -1.293946,0.820313 -0.998999,-0.787302 13.485001,-1.319458 13.129884,-1.445306 -0.355111,-0.125862 -1.261894,0.696908 -2.412108,0.341798 -1.149241,-0.355115 -0.193962,-1.068224 0.161132,-1.904296 0.355112,-0.836079 0.918226,-2.847973 0.200201,-3.164064 -0.08976,-0.04 -0.183673,-0.05565 -0.273436,-0.04883 z"
     style="opacity:0.2;fill:#000000;fill-opacity:1;stroke-width:2.5"
     id="path3439" />
  <path
     d="m 33.186275,22.000362 c -0.660154,0.0335 -1.18651,0.581556 -1.18651,1.249986 0,0.689992 0.559993,1.249985 1.249985,1.249985 0.689992,0 1.249986,-0.559993 1.249986,-1.249985 0,-0.689992 -0.559994,-1.249986 -1.249986,-1.249986 -0.02139,0 -0.04216,-0.0011 -0.06347,0 z m -5.561457,4.975532 c -0.06539,0.0078 -0.12898,0.02639 -0.190413,0.05371 -0.493639,0.216576 -0.658524,0.922369 -0.0098,2.402314 0.649734,1.479947 1.576645,2.506589 2.070287,2.290013 0.493653,-0.216576 0.365566,-1.591297 -0.283189,-3.071245 -0.567815,-1.295563 -1.126455,-1.726485 -1.586924,-1.669899 z m -11.938339,0.0244 c -0.660152,0.03351 -1.186508,0.581555 -1.186508,1.249985 0,0.689992 0.559993,1.249985 1.249985,1.249985 0.689992,0 1.249985,-0.559993 1.249985,-1.249985 0,-0.689992 -0.559993,-1.249985 -1.249985,-1.249985 -0.02151,0 -0.04217,-0.0011 -0.06347,2e-6 z m 6.811445,0 c -0.373854,0.01635 -0.811308,0.374202 -0.361323,0.86913 0.639001,0.704525 0.979885,1.960676 0.41015,2.211889 -0.572664,0.251217 -0.535201,-0.936503 -0.585929,-1.567366 -0.04976,-0.630861 -1.631429,-1.011458 -2.216772,-0.229507 -0.585347,0.781968 0.0015,1.626862 0.581047,1.796855 0.57949,0.170916 0.671235,0.811778 1.015613,1.479474 0.345355,0.667696 2.021871,0.500535 2.431612,0 0.409741,-0.500535 0.666186,-1.431548 -0.131823,-2.290013 -0.798018,-0.858464 -0.555872,-1.656497 -0.771472,-2.094701 -0.05366,-0.109561 -0.16908,-0.16445 -0.297847,-0.175771 -0.0239,-0.002 -0.04832,-0.0011 -0.07326,0 z m 23.188204,0 c -0.660151,0.03351 -1.18651,0.581555 -1.18651,1.249985 0,0.689992 0.559994,1.249985 1.249985,1.249985 0.689992,0 1.249986,-0.559993 1.249986,-1.249985 0,-0.689992 -0.559994,-1.249985 -1.249986,-1.249985 -0.02139,0 -0.04216,-0.0011 -0.06348,0 z m -4.472605,0.415035 c -0.450762,0.01012 -0.647381,0.919425 -0.761709,1.777321 -0.121936,0.91509 -0.581635,1.862465 -0.185557,2.045876 0.549246,0.243896 0.829711,-1.260312 1.450176,-1.821269 0.620466,-0.56193 0.107899,-1.870217 -0.410154,-1.992163 -0.03237,-0.0075 -0.06271,-0.01063 -0.09277,-0.0098 z m -15.737118,0.131825 c -0.538517,-3e-6 -0.976552,0.438032 -0.976552,0.976548 0,0.538518 0.438035,0.976552 0.976552,0.976552 0.538514,0 0.97655,-0.438034 0.97655,-0.976552 0,-0.538516 -0.438036,-0.976551 -0.97655,-0.976548 z m 11.05944,0.292967 c -0.634133,0.04681 -1.262015,1.129645 -1.572249,1.87986 -0.355107,0.856556 0.07434,2.52794 -0.761708,3.154261 -0.836067,0.627292 -1.447667,0.641341 -1.865211,0.390621 -0.417547,-0.250715 0.354021,-0.216778 -0.112298,-1.171862 -0.4673,-0.95509 -1.582307,-0.656474 -1.874977,0.0879 -0.292673,0.744364 0.312286,0.70844 0.102536,1.147446 -0.208777,0.439011 -1.985728,0.91664 -2.382784,-0.400386 -0.397078,-1.317025 -1.807077,-2.752541 -2.246085,-2.39743 -0.439009,0.355107 0.05192,1.665086 1.201158,2.709928 1.149227,1.04484 -0.294943,1.606615 -1.29393,0.820302 -0.998989,-0.787289 -2.171785,0.596624 -3.08102,1.52342 -0.91021,0.925818 -1.720354,0.989665 -2.368136,0.434564 -0.646804,-0.554127 -0.08276,-2.063017 -0.830067,-3.579062 -0.746314,-1.516043 -2.227723,-0.760683 -2.436494,0.26367 -0.208773,1.024353 1.873594,1.71637 1.469708,2.28513 -0.403888,0.568759 -2.019007,0.437396 -2.495089,-0.63476 -0.475104,-1.072156 -1.512697,-0.720791 -1.533184,0.15625 -0.0205,0.878017 0.803368,0.261383 1.445295,0.90331 L 32.488029,52 49.069866,35.413282 c 1.951148,-1.951147 -0.281708,-1.112827 -0.742178,-0.67382 -0.459499,0.439011 -1.882959,0.793456 -2.050756,0.312496 -0.166815,-0.480956 1.593252,-1.287637 2.094699,-1.831032 0.501444,-0.543395 0.991372,-2.085503 0.180678,-2.651335 -0.810713,-0.565833 -1.957517,0.453873 -2.456037,1.206038 -0.501443,0.75217 -0.06807,2.671453 -0.737294,3.256799 -0.669245,0.585344 -1.037223,0.227997 -1.162098,-0.273433 -0.125859,-0.501448 1.444636,-1.208267 0.786125,-2.456026 -0.65949,-1.247762 -1.877498,-0.682025 -2.441378,-0.09766 -0.563883,0.585343 0.337119,1.487232 0.546869,2.407199 0.208778,0.919966 -1.927572,0.896138 -2.76364,0.561514 -0.83606,-0.334619 -1.109716,-2.432712 -1.464825,-2.558562 -0.355109,-0.125836 -1.261881,0.696902 -2.412083,0.341795 -1.149227,-0.355111 -0.19396,-1.068208 0.16113,-1.904275 0.355107,-0.836068 0.918216,-2.847939 0.200199,-3.164026 -0.08976,-0.04 -0.183671,-0.05565 -0.273433,-0.04882 z M 12.976551,30.047219 C 12.438035,30.047219 12,30.485254 12,31.023771 c 0,0.53852 0.438035,0.976553 0.976551,0.976553 0.538516,0 0.976551,-0.438033 0.976551,-0.976553 0,-0.538517 -0.438035,-0.976552 -0.976551,-0.976552 z m 37.9976,1.962868 c -0.515227,0.02616 -0.927723,0.454863 -0.927723,0.976551 0,0.538518 0.438034,0.97167 0.97655,0.97167 0.538517,0 0.976552,-0.433152 0.976552,-0.97167 0,-0.538516 -0.438035,-0.976551 -0.976552,-0.976551 -0.01685,0 -0.0322,-8.43e-4 -0.04883,0 z"
     style="fill:#a6d7ff;fill-opacity:1;stroke-width:2.49997"
     id="path449"
     sodipodi:nodetypes="sssssssccccccccsssscccccsccsscccssssssscscccccssssscccscsccssccccssccsccccssccccccsscccccssssssssssss" />
  <path
     id="rect2630"
     style="opacity:0.3;fill:#ffffff;fill-opacity:1"
     d="M 14,5 C 9.014005,5 5,9.014005 5,14 v 1 C 5,10.014005 9.014005,6 14,6 h 36 c 4.985995,0 9,4.014005 9,9 V 14 C 59,9.014005 54.985995,5 50,5 Z" />
  <path
     id="rect899"
     style="fill:#000000;stroke:none;opacity:0.6"
     d="M 14,4 C 8.4600055,4 4,8.4600055 4,14 v 36 c 0,5.539994 4.4600055,10 10,10 h 36 c 5.539994,0 10,-4.460006 10,-10 V 14 C 60,8.4600055 55.539994,4 50,4 Z m 0,1 h 36 c 4.985995,0 9,4.014005 9,9 v 36 c 0,4.985995 -4.014005,9 -9,9 H 14 C 9.014005,59 5,54.985995 5,50 V 14 C 5,9.014005 9.014005,5 14,5 Z" />
  <path
     id="rect398"
     style="opacity:0.3;fill:#ffffff"
     d="M 5 49 L 5 50 C 5 54.985995 9.014005 59 14 59 L 50 59 C 54.985995 59 59 54.985995 59 50 L 59 49 C 59 53.985995 54.985995 58 50 58 L 14 58 C 9.014005 58 5 53.985995 5 49 z " />
</svg>
