<?xml version="1.0" encoding="UTF-8" standalone="no"?>
<!-- Created with Inkscape (http://www.inkscape.org/) -->

<svg
   width="64"
   height="64"
   viewBox="0 0 64 64.000003"
   version="1.1"
   id="svg5"
   sodipodi:docname="kvantum.svg"
   inkscape:version="1.2.1 (9c6d41e410, 2022-07-14)"
   xmlns:inkscape="http://www.inkscape.org/namespaces/inkscape"
   xmlns:sodipodi="http://sodipodi.sourceforge.net/DTD/sodipodi-0.dtd"
   xmlns:xlink="http://www.w3.org/1999/xlink"
   xmlns="http://www.w3.org/2000/svg"
   xmlns:svg="http://www.w3.org/2000/svg">
  <sodipodi:namedview
     id="namedview7"
     pagecolor="#ffffff"
     bordercolor="#666666"
     borderopacity="1.0"
     inkscape:showpageshadow="2"
     inkscape:pageopacity="0.0"
     inkscape:pagecheckerboard="0"
     inkscape:deskcolor="#d1d1d1"
     inkscape:document-units="px"
     showgrid="false"
     inkscape:zoom="12.375"
     inkscape:cx="31.959596"
     inkscape:cy="32"
     inkscape:window-width="1920"
     inkscape:window-height="1007"
     inkscape:window-x="0"
     inkscape:window-y="0"
     inkscape:window-maximized="1"
     inkscape:current-layer="svg5"
     showguides="true" />
  <defs
     id="defs2">
    <linearGradient
       inkscape:collect="always"
       id="linearGradient1603">
      <stop
         style="stop-color:#ff910c;stop-opacity:1;"
         offset="0"
         id="stop1599" />
      <stop
         style="stop-color:#ff910c;stop-opacity:0;"
         offset="1"
         id="stop1601" />
    </linearGradient>
    <linearGradient
       inkscape:collect="always"
       id="linearGradient3954">
      <stop
         style="stop-color:#24c2f5;stop-opacity:1;"
         offset="0"
         id="stop3950" />
      <stop
         style="stop-color:#24c2f5;stop-opacity:0;"
         offset="1"
         id="stop3952" />
    </linearGradient>
    <linearGradient
       inkscape:collect="always"
       id="linearGradient5569">
      <stop
         style="stop-color:#f5cc24;stop-opacity:1;"
         offset="0"
         id="stop5565" />
      <stop
         style="stop-color:#f5cc24;stop-opacity:0.00045133"
         offset="1"
         id="stop5567" />
    </linearGradient>
    <linearGradient
       inkscape:collect="always"
       id="linearGradient7221">
      <stop
         style="stop-color:#ff2a2a;stop-opacity:1"
         offset="0"
         id="stop7217" />
      <stop
         style="stop-color:#ff2929;stop-opacity:0.00392157"
         offset="1"
         id="stop7219" />
    </linearGradient>
    <linearGradient
       inkscape:collect="always"
       id="linearGradient10051">
      <stop
         style="stop-color:#aa3ad4;stop-opacity:1"
         offset="0"
         id="stop10047" />
      <stop
         style="stop-color:#aa3ad4;stop-opacity:0"
         offset="1"
         id="stop10049" />
    </linearGradient>
    <linearGradient
       inkscape:collect="always"
       id="linearGradient15132">
      <stop
         style="stop-color:#f5e224;stop-opacity:1;"
         offset="0"
         id="stop15128" />
      <stop
         style="stop-color:#f5e224;stop-opacity:0;"
         offset="1"
         id="stop15130" />
    </linearGradient>
    <linearGradient
       inkscape:collect="always"
       id="linearGradient12059">
      <stop
         style="stop-color:#47c12a;stop-opacity:1;"
         offset="0"
         id="stop12055" />
      <stop
         style="stop-color:#47c12a;stop-opacity:0;"
         offset="1"
         id="stop12057" />
    </linearGradient>
    <radialGradient
       inkscape:collect="always"
       xlink:href="#linearGradient12059"
       id="radialGradient11234"
       cx="32"
       cy="60"
       fx="32"
       fy="60"
       r="27.5"
       gradientUnits="userSpaceOnUse"
       gradientTransform="matrix(1.0181818,0,0,1,-0.58181909,5.8636475e-7)" />
    <radialGradient
       inkscape:collect="always"
       xlink:href="#linearGradient15132"
       id="radialGradient11244"
       cx="45.75"
       cy="51.798988"
       fx="45.75"
       fy="51.798988"
       r="27.5"
       gradientUnits="userSpaceOnUse"
       gradientTransform="matrix(-6.1823087e-8,1.0181818,-1.0181817,-1.7788152e-7,56.740781,-14.581808)" />
    <radialGradient
       inkscape:collect="always"
       xlink:href="#linearGradient10051"
       id="radialGradient11378"
       cx="6.5505433"
       cy="56.244072"
       fx="6.5505433"
       fy="56.244072"
       r="27.5"
       gradientUnits="userSpaceOnUse"
       gradientTransform="matrix(-0.71937005,-0.69371394,0.90528046,-0.93876128,11.245067,64.659071)" />
    <radialGradient
       inkscape:collect="always"
       xlink:href="#linearGradient7221"
       id="radialGradient11388"
       cx="32"
       cy="60"
       fx="32"
       fy="60"
       r="27.5"
       gradientUnits="userSpaceOnUse"
       gradientTransform="matrix(-1.0181818,0,0,-1,64.581811,63.999999)" />
    <radialGradient
       inkscape:collect="always"
       xlink:href="#linearGradient5569"
       id="radialGradient11396"
       cx="8.0326223"
       cy="59.247375"
       fx="8.0326223"
       fy="59.247375"
       r="27.5"
       gradientUnits="userSpaceOnUse"
       gradientTransform="matrix(0.91932105,-0.93120457,1.0887824,1.0748879,-64.735503,1.0997696)" />
    <radialGradient
       inkscape:collect="always"
       xlink:href="#linearGradient3954"
       id="radialGradient11404"
       cx="57.208611"
       cy="56.943909"
       fx="57.208611"
       fy="56.943909"
       r="27.5"
       gradientUnits="userSpaceOnUse"
       gradientTransform="matrix(0.97162687,-1.0195375,0.92478702,0.88132891,-51.037793,65.083916)" />
    <radialGradient
       inkscape:collect="always"
       xlink:href="#linearGradient1603"
       id="radialGradient11414"
       cx="-1.675118"
       cy="11.872787"
       fx="-1.675118"
       fy="11.872787"
       r="27.5"
       gradientUnits="userSpaceOnUse"
       gradientTransform="matrix(-0.82383245,0.83346436,-1.0037872,-0.99218742,17.138152,20.436147)" />
  </defs>
  <rect
     style="fill:#ffffff;fill-opacity:1;stroke:none"
     id="rect184"
     width="55"
     height="55"
     x="4.5"
     y="4.5"
     ry="9.5" />
  <rect
     style="opacity:1;fill:url(#radialGradient11414);fill-opacity:1;stroke-linejoin:round"
     id="rect10562"
     width="55"
     height="55"
     x="4.5"
     y="4.499999"
     ry="9.5" />
  <rect
     style="opacity:1;fill:url(#radialGradient11404);fill-opacity:1;stroke-linejoin:round"
     id="rect10564"
     width="55"
     height="55"
     x="4.5"
     y="4.499999"
     ry="9.5" />
  <rect
     style="opacity:1;fill:url(#radialGradient11396);fill-opacity:1;stroke-linejoin:round"
     id="rect10566"
     width="55"
     height="55"
     x="4.5"
     y="4.499999"
     ry="9.5" />
  <rect
     style="opacity:1;fill:url(#radialGradient11388);fill-opacity:1;stroke-linejoin:round"
     id="rect10568"
     width="55"
     height="55"
     x="4.5"
     y="4.499999"
     ry="9.5" />
  <rect
     style="opacity:1;fill:url(#radialGradient11378);fill-opacity:1;stroke-linejoin:round"
     id="rect10570"
     width="55"
     height="55"
     x="4.5"
     y="4.5"
     ry="9.5" />
  <rect
     style="opacity:1;fill:url(#radialGradient11244);fill-opacity:1;stroke-linejoin:round"
     id="rect10572"
     width="55"
     height="55"
     x="4.5"
     y="4.5"
     ry="9.5"
     inkscape:label="rect10572" />
  <rect
     style="opacity:1;fill:url(#radialGradient11234);fill-opacity:1;stroke-linejoin:round"
     id="rect10574"
     width="55"
     height="55"
     x="4.5"
     y="4.499999"
     ry="9.5" />
  <path
     d="m 17.379306,20.005524 v 2.921374 h 2.9269 l -4.384828,20.45517 H 13 v 2.9269 h 10.233108 v -2.9269 h -2.485104 l 1.607032,-8.764132 h 2.341522 l 4.384828,8.764132 c 0.74001,1.48554 2.043308,2.9269 4.379308,2.9269 h 4.384822 L 48.073104,36.075862 51,31.691032 v -1.457928 l -1.463448,-1.46345 h -1.463448 l -1.457934,1.46345 v 4.384832 l -6.588284,7.300684 2.192418,-11.685516 -1.463452,-1.46345 -5.842754,1.46345 v 1.457928 h 2.921374 L 36.376546,43.382068 H 34.91862 l -5.842756,-11.691036 8.76413,-8.764134 h 2.926902 V 20 H 30.52827 v 2.926898 h 3.363174 l -9.785788,10.227584 h -1.463452 l 2.043308,-10.227584 h 2.926902 V 20 Z"
     style="opacity:0.2;fill:#000000;stroke-width:5.52246"
     id="path13420" />
  <path
     d="M 17.379306,19.005524 V 21.9269 h 2.9269 L 15.921378,42.382068 H 13 v 2.9269 h 10.233108 v -2.9269 h -2.485104 l 1.607032,-8.764132 h 2.341522 l 4.384828,8.764132 c 0.74001,1.48554 2.043308,2.9269 4.379308,2.9269 h 4.384822 L 48.073104,35.075862 51,30.691034 v -1.457928 l -1.463448,-1.46345 h -1.463448 l -1.457934,1.46345 v 4.38483 l -6.588284,7.300684 2.192418,-11.685514 -1.463452,-1.46345 -5.842754,1.46345 v 1.457928 h 2.921374 L 36.376546,42.382068 H 34.91862 L 29.075864,30.691034 37.839994,21.9269 h 2.926902 V 19 H 30.52827 v 2.9269 h 3.363174 L 24.105656,32.154484 H 22.642204 L 24.685512,21.9269 h 2.926902 V 19 Z"
     style="fill:#ffffff;stroke-width:5.52246"
     id="path13203"
     sodipodi:nodetypes="ccccccccccccsccccccccccccccccccccccccccccc" />
  <path
     id="rect2630"
     style="opacity:0.3;fill:#ffffff;fill-opacity:1"
     d="M 14,5 C 9.014005,5 5,9.014005 5,14 v 1 C 5,10.014005 9.014005,6 14,6 h 36 c 4.985995,0 9,4.014005 9,9 V 14 C 59,9.014005 54.985995,5 50,5 Z" />
  <path
     id="rect899"
     style="fill:#000000;stroke:none;opacity:0.6"
     d="M 14,4 C 8.4600055,4 4,8.4600055 4,14 v 36 c 0,5.539994 4.4600055,10 10,10 h 36 c 5.539994,0 10,-4.460006 10,-10 V 14 C 60,8.4600055 55.539994,4 50,4 Z m 0,1 h 36 c 4.985995,0 9,4.014005 9,9 v 36 c 0,4.985995 -4.014005,9 -9,9 H 14 C 9.014005,59 5,54.985995 5,50 V 14 C 5,9.014005 9.014005,5 14,5 Z" />
  <path
     id="rect398"
     style="opacity:0.3;fill:#ffffff"
     d="M 5 49 L 5 50 C 5 54.985995 9.014005 59 14 59 L 50 59 C 54.985995 59 59 54.985995 59 50 L 59 49 C 59 53.985995 54.985995 58 50 58 L 14 58 C 9.014005 58 5 53.985995 5 49 z " />
</svg>
