<?xml version="1.0" encoding="UTF-8" standalone="no"?>
<!-- Created with Inkscape (http://www.inkscape.org/) -->

<svg
   width="64"
   height="64"
   viewBox="0 0 64 64.000003"
   version="1.1"
   id="svg5"
   sodipodi:docname="libreoffice-impress.svg"
   inkscape:version="1.2.1 (9c6d41e410, 2022-07-14)"
   xmlns:inkscape="http://www.inkscape.org/namespaces/inkscape"
   xmlns:sodipodi="http://sodipodi.sourceforge.net/DTD/sodipodi-0.dtd"
   xmlns:xlink="http://www.w3.org/1999/xlink"
   xmlns="http://www.w3.org/2000/svg"
   xmlns:svg="http://www.w3.org/2000/svg">
  <sodipodi:namedview
     id="namedview7"
     pagecolor="#ffffff"
     bordercolor="#666666"
     borderopacity="1.0"
     inkscape:showpageshadow="2"
     inkscape:pageopacity="0.0"
     inkscape:pagecheckerboard="0"
     inkscape:deskcolor="#d1d1d1"
     inkscape:document-units="px"
     showgrid="false"
     inkscape:zoom="12.859375"
     inkscape:cx="31.961118"
     inkscape:cy="32"
     inkscape:window-width="1920"
     inkscape:window-height="1009"
     inkscape:window-x="0"
     inkscape:window-y="0"
     inkscape:window-maximized="1"
     inkscape:current-layer="svg5" />
  <defs
     id="defs2">
    <linearGradient
       inkscape:collect="always"
       id="linearGradient27027">
      <stop
         style="stop-color:#c95810;stop-opacity:1;"
         offset="0"
         id="stop27023" />
      <stop
         style="stop-color:#f0822d;stop-opacity:1;"
         offset="1"
         id="stop27025" />
    </linearGradient>
    <linearGradient
       inkscape:collect="always"
       xlink:href="#linearGradient27027"
       id="linearGradient6610"
       x1="50"
       y1="60"
       x2="14"
       y2="4"
       gradientUnits="userSpaceOnUse" />
  </defs>
  <rect
     style="fill:url(#linearGradient6610);fill-opacity:1.0;stroke:none"
     id="rect184"
     width="55"
     height="55"
     x="4.5"
     y="4.5"
     ry="9.5" />
  <path
     id="path746"
     style="color:#000000;display:inline;overflow:visible;visibility:visible;opacity:0.2;fill:#000000;fill-opacity:1;fill-rule:nonzero;stroke:none;stroke-width:20;marker:none;enable-background:new"
     d="M 18 13 C 16.892002 13 16 13.892002 16 15 L 16 51 C 16 52.107998 16.892002 53 18 53 L 46 53 C 47.107998 53 48 52.107998 48 51 L 48 22.6875 L 38.3125 13 L 18 13 z M 39.6875 13 L 48 21.3125 L 48 15 C 48 13.892002 47.107998 13 46 13 L 39.6875 13 z M 26 31 L 26 35 L 30 35 C 30 37.209137 28.209137 39 26 39 C 23.790863 39 22 37.209137 22 35 C 22 32.790862 23.790863 31 26 31 z M 32 32 L 42 32 L 42 33 L 32 33 L 32 32 z M 32 35 L 42 35 L 42 36 L 32 36 L 32 35 z M 32 38 L 42 38 L 42 39 L 32 39 L 32 38 z M 22 41 L 42 41 L 42 42 L 22 42 L 22 41 z M 22 44 L 32 44 L 32 45 L 22 45 L 22 44 z " />
  <path
     id="path528"
     style="color:#000000;display:inline;overflow:visible;visibility:visible;fill:#ffffff;fill-opacity:1;fill-rule:nonzero;stroke:none;stroke-width:20;marker:none;enable-background:new"
     d="m 18,12 c -1.107998,0 -2,0.892002 -2,2 v 36 c 0,1.107998 0.892002,2 2,2 h 28 c 1.107998,0 2,-0.892002 2,-2 V 21.6875 L 38.3125,12 Z M 39.6875,12 48,20.3125 V 14 c 0,-1.107998 -0.892002,-2 -2,-2 z M 26,30 v 4 h 4 c 0,2.209139 -1.790861,4 -4,4 -2.209139,0 -4,-1.790861 -4,-4 0,-2.209139 1.790861,-4 4,-4 z m 6,1 h 10 v 1 H 32 Z m 0,3 h 10 v 1 H 32 Z m 0,3 h 10 v 1 H 32 Z m -10,3 h 20 v 1 H 22 Z m 0,3 h 10 v 1 H 22 Z"
     sodipodi:nodetypes="ssssssccsccssccccsscccccccccccccccccccccccccc" />
  <path
     id="rect2630"
     style="opacity:0.3;fill:#ffffff;fill-opacity:1"
     d="M 14,5 C 9.014005,5 5,9.014005 5,14 v 1 C 5,10.014005 9.014005,6 14,6 h 36 c 4.985995,0 9,4.014005 9,9 V 14 C 59,9.014005 54.985995,5 50,5 Z" />
  <path
     id="rect899"
     style="fill:#000000;stroke:none;opacity:0.5"
     d="M 14,4 C 8.4600055,4 4,8.4600055 4,14 v 36 c 0,5.539994 4.4600055,10 10,10 h 36 c 5.539994,0 10,-4.460006 10,-10 V 14 C 60,8.4600055 55.539994,4 50,4 Z m 0,1 h 36 c 4.985995,0 9,4.014005 9,9 v 36 c 0,4.985995 -4.014005,9 -9,9 H 14 C 9.014005,59 5,54.985995 5,50 V 14 C 5,9.014005 9.014005,5 14,5 Z" />
  <path
     id="rect398"
     style="opacity:0.3;fill:#ffffff"
     d="M 5 49 L 5 50 C 5 54.985995 9.014005 59 14 59 L 50 59 C 54.985995 59 59 54.985995 59 50 L 59 49 C 59 53.985995 54.985995 58 50 58 L 14 58 C 9.014005 58 5 53.985995 5 49 z " />
</svg>
