<?xml version="1.0" encoding="UTF-8" standalone="no"?>
<!-- Created with Inkscape (http://www.inkscape.org/) -->

<svg
   width="64"
   height="64"
   viewBox="0 0 64 64.000003"
   version="1.1"
   id="svg5"
   sodipodi:docname="libreoffice-draw.svg"
   inkscape:version="1.2.1 (9c6d41e410, 2022-07-14)"
   xmlns:inkscape="http://www.inkscape.org/namespaces/inkscape"
   xmlns:sodipodi="http://sodipodi.sourceforge.net/DTD/sodipodi-0.dtd"
   xmlns:xlink="http://www.w3.org/1999/xlink"
   xmlns="http://www.w3.org/2000/svg"
   xmlns:svg="http://www.w3.org/2000/svg">
  <sodipodi:namedview
     id="namedview7"
     pagecolor="#ffffff"
     bordercolor="#666666"
     borderopacity="1.0"
     inkscape:showpageshadow="2"
     inkscape:pageopacity="0.0"
     inkscape:pagecheckerboard="0"
     inkscape:deskcolor="#d1d1d1"
     inkscape:document-units="px"
     showgrid="false"
     inkscape:zoom="14.660714"
     inkscape:cx="32.024361"
     inkscape:cy="32.024361"
     inkscape:window-width="1920"
     inkscape:window-height="1007"
     inkscape:window-x="0"
     inkscape:window-y="0"
     inkscape:window-maximized="1"
     inkscape:current-layer="svg5" />
  <defs
     id="defs2">
    <linearGradient
       inkscape:collect="always"
       xlink:href="#linearGradient986"
       id="linearGradient6610"
       x1="50"
       y1="60"
       x2="14"
       y2="4"
       gradientUnits="userSpaceOnUse" />
    <linearGradient
       inkscape:collect="always"
       id="linearGradient986">
      <stop
         style="stop-color:#ffa12a;stop-opacity:1;"
         offset="0"
         id="stop982" />
      <stop
         style="stop-color:#ffdc75;stop-opacity:1;"
         offset="1"
         id="stop984" />
    </linearGradient>
  </defs>
  <rect
     style="fill:url(#linearGradient6610);fill-opacity:1.0;stroke:none"
     id="rect184"
     width="55"
     height="55"
     x="4.5"
     y="4.5"
     ry="9.5" />
  <path
     id="path746"
     style="color:#000000;display:inline;overflow:visible;visibility:visible;opacity:0.2;fill:#000000;fill-opacity:1;fill-rule:nonzero;stroke:none;stroke-width:20;marker:none;enable-background:new"
     d="M 18 13 C 16.892003 13 16 13.892003 16 15 L 16 51 C 16 52.107997 16.892003 53 18 53 L 46 53 C 47.107997 53 48 52.107997 48 51 L 48 22.6875 L 38.3125 13 L 18 13 z M 39.6875 13 L 48 21.3125 L 48 15 C 48 13.892003 47.107997 13 46 13 L 39.6875 13 z M 38.404297 30.320312 C 38.691417 30.323691 38.961794 30.387849 39.195312 30.466797 C 39.662352 30.624691 40.065388 30.86451 40.423828 31.109375 C 41.140707 31.599104 41.691406 32.144531 41.691406 32.144531 L 42.40625 32.84375 L 41.007812 34.273438 L 40.292969 33.574219 C 40.292969 33.574219 39.832321 33.128838 39.294922 32.761719 C 39.026221 32.578159 38.73948 32.423798 38.554688 32.361328 C 38.473334 32.333826 38.441193 32.332375 38.425781 32.330078 C 38.28261 32.426504 38.246357 32.538246 38.246094 32.984375 C 38.245793 33.492913 38.40804 34.264314 38.59375 35.076172 C 38.77946 35.88803 38.990922 36.740685 38.982422 37.607422 C 38.9739 38.47416 38.596777 39.529531 37.650391 40.005859 C 37.115681 40.274989 36.511775 40.371756 35.970703 40.261719 C 35.429633 40.151681 34.987752 39.87106 34.619141 39.552734 C 33.881917 38.916084 33.348342 38.087191 32.773438 37.308594 C 32.198534 36.529998 31.602744 35.812718 30.974609 35.388672 C 30.354008 34.969707 29.749211 34.785129 28.806641 34.992188 C 28.478437 35.084568 28.128043 35.370073 27.806641 35.949219 C 27.482344 36.533576 27.228544 37.369827 27.109375 38.289062 C 27.099785 38.36298 27.121081 38.442688 27.113281 38.517578 C 27.773761 38.62794 28.497588 38.625536 29.095703 38.822266 C 30.457505 39.270183 31.6593 39.957222 32.378906 41.074219 C 33.099557 42.192795 33.377779 43.276946 33.154297 44.242188 C 32.930814 45.20743 32.191534 45.911938 31.363281 46.234375 C 29.706776 46.879247 27.5519 46.355833 26.28125 44.605469 L 26.259766 44.574219 L 26.240234 44.542969 C 25.479077 43.311437 25.215701 41.77598 25.144531 40.220703 C 24.926152 40.207903 24.760529 40.133706 24.539062 40.128906 L 23 40.095703 L 22 40.072266 L 22.044922 38.072266 L 23.044922 38.095703 L 24.582031 38.128906 C 24.7747 38.133096 24.937408 38.203391 25.128906 38.212891 C 25.135706 38.153893 25.119353 38.091873 25.126953 38.033203 C 25.271222 36.920353 25.565956 35.866214 26.058594 34.978516 C 26.551232 34.090817 27.28241 33.32848 28.292969 33.054688 L 28.3125 33.048828 L 28.332031 33.044922 C 29.796571 32.711138 31.110601 33.068073 32.091797 33.730469 C 33.072993 34.392864 33.776431 35.299868 34.382812 36.121094 C 34.989194 36.942319 35.520098 37.688721 35.925781 38.039062 C 36.128622 38.214231 36.275291 38.281691 36.369141 38.300781 C 36.462993 38.319861 36.539563 38.327601 36.751953 38.220703 C 36.959712 38.116133 36.977622 38.077254 36.982422 37.587891 C 36.987234 37.098527 36.829932 36.331987 36.644531 35.521484 C 36.459132 34.710983 36.245579 33.855511 36.246094 32.984375 C 36.246607 32.113239 36.585782 31.05714 37.513672 30.541016 C 37.81331 30.374334 38.117176 30.316934 38.404297 30.320312 z M 27.148438 40.523438 C 27.258007 41.655431 27.487872 42.72015 27.925781 43.447266 C 28.651724 44.418123 29.947973 44.639219 30.636719 44.371094 C 30.984301 44.235781 31.140648 44.069284 31.205078 43.791016 C 31.269506 43.512747 31.228465 42.980769 30.697266 42.15625 C 30.343774 41.60755 29.572372 41.085013 28.470703 40.722656 C 28.100215 40.600797 27.575249 40.608297 27.148438 40.523438 z " />
  <path
     id="path528"
     style="color:#000000;display:inline;overflow:visible;visibility:visible;fill:#ffffff;fill-opacity:1;fill-rule:nonzero;stroke:none;stroke-width:20;marker:none;enable-background:new"
     d="M 18 12 C 16.892003 12 16 12.892003 16 14 L 16 50 C 16 51.107997 16.892003 52 18 52 L 46 52 C 47.107997 52 48 51.107997 48 50 L 48 21.6875 L 38.3125 12 L 18 12 z M 39.6875 12 L 48 20.3125 L 48 14 C 48 12.892003 47.107997 12 46 12 L 39.6875 12 z M 38.404297 29.320312 C 38.691417 29.323691 38.961794 29.387849 39.195312 29.466797 C 39.662352 29.624691 40.065388 29.86451 40.423828 30.109375 C 41.140707 30.599104 41.691406 31.144531 41.691406 31.144531 L 42.40625 31.84375 L 41.007812 33.273438 L 40.292969 32.574219 C 40.292969 32.574219 39.832321 32.128838 39.294922 31.761719 C 39.026221 31.578159 38.73948 31.423798 38.554688 31.361328 C 38.473334 31.333826 38.441193 31.332375 38.425781 31.330078 C 38.28261 31.426504 38.246357 31.538246 38.246094 31.984375 C 38.245793 32.492913 38.40804 33.264314 38.59375 34.076172 C 38.77946 34.88803 38.990922 35.740685 38.982422 36.607422 C 38.9739 37.474159 38.596777 38.529531 37.650391 39.005859 C 37.115681 39.274989 36.511775 39.371756 35.970703 39.261719 C 35.429633 39.151681 34.987752 38.87106 34.619141 38.552734 C 33.881917 37.916084 33.348342 37.08719 32.773438 36.308594 C 32.198534 35.529998 31.602744 34.812718 30.974609 34.388672 C 30.354008 33.969707 29.749211 33.785129 28.806641 33.992188 C 28.478437 34.084568 28.128043 34.370073 27.806641 34.949219 C 27.482344 35.533576 27.228544 36.369828 27.109375 37.289062 C 27.099785 37.36298 27.121081 37.442688 27.113281 37.517578 C 27.773761 37.62794 28.497588 37.625536 29.095703 37.822266 C 30.457505 38.270183 31.6593 38.957222 32.378906 40.074219 C 33.099557 41.192795 33.377779 42.276946 33.154297 43.242188 C 32.930814 44.20743 32.191534 44.911938 31.363281 45.234375 C 29.706776 45.879247 27.5519 45.355833 26.28125 43.605469 L 26.259766 43.574219 L 26.240234 43.542969 C 25.479077 42.311437 25.215701 40.77598 25.144531 39.220703 C 24.926152 39.207903 24.760529 39.133706 24.539062 39.128906 L 23 39.095703 L 22 39.072266 L 22.044922 37.072266 L 23.044922 37.095703 L 24.582031 37.128906 C 24.7747 37.133096 24.937408 37.203391 25.128906 37.212891 C 25.135706 37.153893 25.119353 37.091873 25.126953 37.033203 C 25.271222 35.920354 25.565956 34.866214 26.058594 33.978516 C 26.551232 33.090817 27.28241 32.32848 28.292969 32.054688 L 28.3125 32.048828 L 28.332031 32.044922 C 29.796571 31.711138 31.110601 32.068073 32.091797 32.730469 C 33.072993 33.392864 33.776431 34.299868 34.382812 35.121094 C 34.989194 35.942319 35.520098 36.688722 35.925781 37.039062 C 36.128622 37.214231 36.275291 37.281691 36.369141 37.300781 C 36.462993 37.319861 36.539563 37.327601 36.751953 37.220703 C 36.959712 37.116133 36.977622 37.077253 36.982422 36.587891 C 36.987234 36.098527 36.829932 35.331987 36.644531 34.521484 C 36.459132 33.710983 36.245579 32.855511 36.246094 31.984375 C 36.246607 31.113239 36.585782 30.05714 37.513672 29.541016 C 37.81331 29.374334 38.117176 29.316934 38.404297 29.320312 z M 27.148438 39.523438 C 27.258007 40.655431 27.487872 41.72015 27.925781 42.447266 C 28.651724 43.418123 29.947973 43.639219 30.636719 43.371094 C 30.984301 43.235781 31.140648 43.069284 31.205078 42.791016 C 31.269506 42.512747 31.228465 41.980769 30.697266 41.15625 C 30.343774 40.60755 29.572372 40.085013 28.470703 39.722656 C 28.100215 39.600797 27.575249 39.608297 27.148438 39.523438 z " />
  <path
     id="rect2630"
     style="opacity:0.3;fill:#ffffff;fill-opacity:1"
     d="M 14,5 C 9.014005,5 5,9.014005 5,14 v 1 C 5,10.014005 9.014005,6 14,6 h 36 c 4.985995,0 9,4.014005 9,9 V 14 C 59,9.014005 54.985995,5 50,5 Z" />
  <path
     id="rect899"
     style="fill:#000000;stroke:none;opacity:0.5"
     d="M 14,4 C 8.4600055,4 4,8.4600055 4,14 v 36 c 0,5.539994 4.4600055,10 10,10 h 36 c 5.539994,0 10,-4.460006 10,-10 V 14 C 60,8.4600055 55.539994,4 50,4 Z m 0,1 h 36 c 4.985995,0 9,4.014005 9,9 v 36 c 0,4.985995 -4.014005,9 -9,9 H 14 C 9.014005,59 5,54.985995 5,50 V 14 C 5,9.014005 9.014005,5 14,5 Z" />
  <path
     id="rect398"
     style="opacity:0.3;fill:#ffffff"
     d="M 5 49 L 5 50 C 5 54.985995 9.014005 59 14 59 L 50 59 C 54.985995 59 59 54.985995 59 50 L 59 49 C 59 53.985995 54.985995 58 50 58 L 14 58 C 9.014005 58 5 53.985995 5 49 z " />
</svg>
