<?xml version="1.0" encoding="UTF-8" standalone="no"?>
<!-- Created with Inkscape (http://www.inkscape.org/) -->

<svg
   width="64"
   height="64"
   viewBox="0 0 64 64.000003"
   version="1.1"
   id="svg5"
   sodipodi:docname="libreoffice-base.svg"
   inkscape:version="1.2.1 (9c6d41e410, 2022-07-14)"
   xmlns:inkscape="http://www.inkscape.org/namespaces/inkscape"
   xmlns:sodipodi="http://sodipodi.sourceforge.net/DTD/sodipodi-0.dtd"
   xmlns:xlink="http://www.w3.org/1999/xlink"
   xmlns="http://www.w3.org/2000/svg"
   xmlns:svg="http://www.w3.org/2000/svg">
  <sodipodi:namedview
     id="namedview7"
     pagecolor="#ffffff"
     bordercolor="#666666"
     borderopacity="1.0"
     inkscape:showpageshadow="2"
     inkscape:pageopacity="0.0"
     inkscape:pagecheckerboard="0"
     inkscape:deskcolor="#d1d1d1"
     inkscape:document-units="px"
     showgrid="false"
     inkscape:zoom="9.0929512"
     inkscape:cx="60.5414"
     inkscape:cy="47.45434"
     inkscape:window-width="1920"
     inkscape:window-height="1007"
     inkscape:window-x="0"
     inkscape:window-y="0"
     inkscape:window-maximized="1"
     inkscape:current-layer="svg5" />
  <defs
     id="defs2">
    <linearGradient
       inkscape:collect="always"
       xlink:href="#linearGradient4546"
       id="linearGradient6610"
       x1="50"
       y1="60"
       x2="14"
       y2="4"
       gradientUnits="userSpaceOnUse" />
    <linearGradient
       inkscape:collect="always"
       id="linearGradient4546">
      <stop
         style="stop-color:#d55584;stop-opacity:1;"
         offset="0"
         id="stop4542" />
      <stop
         style="stop-color:#e58fc9;stop-opacity:1;"
         offset="1"
         id="stop4544" />
    </linearGradient>
  </defs>
  <rect
     style="fill:url(#linearGradient6610);fill-opacity:1.0;stroke:none"
     id="rect184"
     width="55"
     height="55"
     x="4.5"
     y="4.5"
     ry="9.5" />
  <path
     id="path746"
     style="color:#000000;display:inline;overflow:visible;visibility:visible;opacity:0.2;fill:#000000;fill-opacity:1;fill-rule:nonzero;stroke:none;stroke-width:20;marker:none;enable-background:new"
     d="M 18 13 C 16.892002 13 16 13.892002 16 15 L 16 51 C 16 52.107998 16.892002 53 18 53 L 46 53 C 47.107998 53 48 52.107998 48 51 L 48 22.6875 L 38.3125 13 L 18 13 z M 39.6875 13 L 48 21.3125 L 48 15 C 48 13.892002 47.107998 13 46 13 L 39.6875 13 z M 32 28 C 36.418276 28 40 29.790863 40 32 C 40 34.209137 36.418276 36 32 36 C 27.581727 36 24 34.209137 24 32 C 24 29.790863 27.581727 28 32 28 z M 39.140625 36.195312 C 39.705964 36.75489 40.00035 37.373079 40 38 C 40 40.209138 36.418276 42 32 42 C 27.581727 42 24 40.209138 24 38 C 24.005726 37.375249 24.30406 36.759848 24.871094 36.203125 C 26.749703 37.351388 29.31827 37.9988 32 38 C 34.687697 37.998636 37.261337 37.348187 39.140625 36.195312 z M 39.140625 42.195312 C 39.705964 42.75489 40.00035 43.373077 40 44 C 40 46.209136 36.418276 48 32 48 C 27.581727 48 24 46.209136 24 44 C 24.005726 43.375247 24.30406 42.75985 24.871094 42.203125 C 26.749702 43.351388 29.31827 43.9988 32 44 C 34.687697 43.998636 37.261337 43.348185 39.140625 42.195312 z " />
  <path
     id="path528"
     style="color:#000000;display:inline;overflow:visible;visibility:visible;fill:#ffffff;fill-opacity:1;fill-rule:nonzero;stroke:none;stroke-width:20;marker:none;enable-background:new"
     d="M 18 12 C 16.892002 12 16 12.892002 16 14 L 16 50 C 16 51.107998 16.892002 52 18 52 L 46 52 C 47.107998 52 48 51.107998 48 50 L 48 21.6875 L 38.3125 12 L 18 12 z M 39.6875 12 L 48 20.3125 L 48 14 C 48 12.892002 47.107998 12 46 12 L 39.6875 12 z M 32 27 C 36.418276 27 40 28.790863 40 31 C 40 33.209137 36.418276 35 32 35 C 27.581727 35 24 33.209137 24 31 C 24 28.790863 27.581727 27 32 27 z M 39.140625 35.195312 C 39.705964 35.75489 40.00035 36.373079 40 37 C 40 39.209138 36.418276 41 32 41 C 27.581727 41 24 39.209138 24 37 C 24.005726 36.375249 24.30406 35.759848 24.871094 35.203125 C 26.749703 36.351388 29.31827 36.9988 32 37 C 34.687697 36.998636 37.261337 36.348187 39.140625 35.195312 z M 39.140625 41.195312 C 39.705964 41.75489 40.00035 42.373077 40 43 C 40 45.209136 36.418276 47 32 47 C 27.581727 47 24 45.209136 24 43 C 24.005726 42.375247 24.30406 41.75985 24.871094 41.203125 C 26.749702 42.351388 29.31827 42.9988 32 43 C 34.687697 42.998636 37.261337 42.348185 39.140625 41.195312 z " />
  <path
     id="rect2630"
     style="opacity:0.3;fill:#ffffff;fill-opacity:1"
     d="M 14,5 C 9.014005,5 5,9.014005 5,14 v 1 C 5,10.014005 9.014005,6 14,6 h 36 c 4.985995,0 9,4.014005 9,9 V 14 C 59,9.014005 54.985995,5 50,5 Z" />
  <path
     id="rect899"
     style="fill:#000000;stroke:none;opacity:0.5"
     d="M 14,4 C 8.4600055,4 4,8.4600055 4,14 v 36 c 0,5.539994 4.4600055,10 10,10 h 36 c 5.539994,0 10,-4.460006 10,-10 V 14 C 60,8.4600055 55.539994,4 50,4 Z m 0,1 h 36 c 4.985995,0 9,4.014005 9,9 v 36 c 0,4.985995 -4.014005,9 -9,9 H 14 C 9.014005,59 5,54.985995 5,50 V 14 C 5,9.014005 9.014005,5 14,5 Z" />
  <path
     id="rect398"
     style="opacity:0.3;fill:#ffffff"
     d="M 5 49 L 5 50 C 5 54.985995 9.014005 59 14 59 L 50 59 C 54.985995 59 59 54.985995 59 50 L 59 49 C 59 53.985995 54.985995 58 50 58 L 14 58 C 9.014005 58 5 53.985995 5 49 z " />
</svg>
