<?xml version="1.0" encoding="UTF-8" standalone="no"?>
<!-- Created with Inkscape (http://www.inkscape.org/) -->

<svg
   width="64"
   height="64"
   viewBox="0 0 64 64.000003"
   version="1.1"
   id="svg5"
   sodipodi:docname="libreoffice-math.svg"
   inkscape:version="1.2.1 (9c6d41e410, 2022-07-14)"
   xmlns:inkscape="http://www.inkscape.org/namespaces/inkscape"
   xmlns:sodipodi="http://sodipodi.sourceforge.net/DTD/sodipodi-0.dtd"
   xmlns:xlink="http://www.w3.org/1999/xlink"
   xmlns="http://www.w3.org/2000/svg"
   xmlns:svg="http://www.w3.org/2000/svg">
  <sodipodi:namedview
     id="namedview7"
     pagecolor="#ffffff"
     bordercolor="#666666"
     borderopacity="1.0"
     inkscape:showpageshadow="2"
     inkscape:pageopacity="0.0"
     inkscape:pagecheckerboard="0"
     inkscape:deskcolor="#d1d1d1"
     inkscape:document-units="px"
     showgrid="false"
     inkscape:zoom="14.696429"
     inkscape:cx="31.980559"
     inkscape:cy="32.014581"
     inkscape:window-width="1920"
     inkscape:window-height="1009"
     inkscape:window-x="0"
     inkscape:window-y="0"
     inkscape:window-maximized="1"
     inkscape:current-layer="svg5"
     showguides="false" />
  <defs
     id="defs2">
    <linearGradient
       inkscape:collect="always"
       xlink:href="#linearGradient4806"
       id="linearGradient6610"
       x1="50"
       y1="60"
       x2="14"
       y2="4"
       gradientUnits="userSpaceOnUse" />
    <linearGradient
       inkscape:collect="always"
       id="linearGradient4806">
      <stop
         style="stop-color:#4d4d4d;stop-opacity:1;"
         offset="0"
         id="stop4802" />
      <stop
         style="stop-color:#929292;stop-opacity:1;"
         offset="1"
         id="stop4804" />
    </linearGradient>
  </defs>
  <rect
     style="fill:url(#linearGradient6610);fill-opacity:1.0;stroke:none"
     id="rect184"
     width="55"
     height="55"
     x="4.5"
     y="4.5"
     ry="9.5" />
  <path
     id="path746"
     style="color:#000000;display:inline;overflow:visible;visibility:visible;opacity:0.2;fill:#000000;fill-opacity:1;fill-rule:nonzero;stroke:none;stroke-width:20;marker:none;enable-background:new"
     d="M 18 13 C 16.892003 13 16 13.892003 16 15 L 16 51 C 16 52.107997 16.892003 53 18 53 L 46 53 C 47.107997 53 48 52.107997 48 51 L 48 22.6875 L 38.3125 13 L 18 13 z M 39.6875 13 L 48 21.3125 L 48 15 C 48 13.892003 47.107997 13 46 13 L 39.6875 13 z M 27.8125 32 L 28.21875 32 L 41 32 L 41 33 L 28.625 33 L 25.71875 45.09375 L 25.40625 46.5 L 24.78125 45.21875 L 22.78125 41.21875 L 23.65625 40.78125 L 25 43.5 L 27.71875 32.40625 L 27.8125 32 z M 30 35 L 31 35 L 34 39.285156 L 37 35 L 38 35 L 34.5 40 L 38 45 L 37 45 L 34 40.714844 L 31 45 L 30 45 L 33.5 40 L 30 35 z " />
  <path
     id="path528"
     style="color:#000000;display:inline;overflow:visible;visibility:visible;fill:#ffffff;fill-opacity:1;fill-rule:nonzero;stroke:none;stroke-width:20;marker:none;enable-background:new"
     d="M 18 12 C 16.892003 12 16 12.892003 16 14 L 16 50 C 16 51.107997 16.892003 52 18 52 L 46 52 C 47.107997 52 48 51.107997 48 50 L 48 21.6875 L 38.3125 12 L 18 12 z M 39.6875 12 L 48 20.3125 L 48 14 C 48 12.892003 47.107997 12 46 12 L 39.6875 12 z M 27.8125 31 L 28.21875 31 L 41 31 L 41 32 L 28.625 32 L 25.71875 44.09375 L 25.40625 45.5 L 24.78125 44.21875 L 22.78125 40.21875 L 23.65625 39.78125 L 25 42.5 L 27.71875 31.40625 L 27.8125 31 z M 30 34 L 31 34 L 34 38.285156 L 37 34 L 38 34 L 34.5 39 L 38 44 L 37 44 L 34 39.714844 L 31 44 L 30 44 L 33.5 39 L 30 34 z " />
  <path
     id="rect2630"
     style="opacity:0.3;fill:#ffffff;fill-opacity:1"
     d="M 14,5 C 9.014005,5 5,9.014005 5,14 v 1 C 5,10.014005 9.014005,6 14,6 h 36 c 4.985995,0 9,4.014005 9,9 V 14 C 59,9.014005 54.985995,5 50,5 Z" />
  <path
     id="rect899"
     style="fill:#000000;stroke:none;opacity:0.5"
     d="M 14,4 C 8.4600055,4 4,8.4600055 4,14 v 36 c 0,5.539994 4.4600055,10 10,10 h 36 c 5.539994,0 10,-4.460006 10,-10 V 14 C 60,8.4600055 55.539994,4 50,4 Z m 0,1 h 36 c 4.985995,0 9,4.014005 9,9 v 36 c 0,4.985995 -4.014005,9 -9,9 H 14 C 9.014005,59 5,54.985995 5,50 V 14 C 5,9.014005 9.014005,5 14,5 Z" />
  <path
     id="rect398"
     style="opacity:0.3;fill:#ffffff"
     d="M 5 49 L 5 50 C 5 54.985995 9.014005 59 14 59 L 50 59 C 54.985995 59 59 54.985995 59 50 L 59 49 C 59 53.985995 54.985995 58 50 58 L 14 58 C 9.014005 58 5 53.985995 5 49 z " />
</svg>
