<?xml version="1.0" encoding="UTF-8" standalone="no"?>
<!-- Created with Inkscape (http://www.inkscape.org/) -->

<svg
   width="64"
   height="64"
   viewBox="0 0 64 64.000003"
   version="1.1"
   id="svg5"
   sodipodi:docname="lutris.svg"
   inkscape:version="1.2.1 (9c6d41e410, 2022-07-14)"
   xmlns:inkscape="http://www.inkscape.org/namespaces/inkscape"
   xmlns:sodipodi="http://sodipodi.sourceforge.net/DTD/sodipodi-0.dtd"
   xmlns:xlink="http://www.w3.org/1999/xlink"
   xmlns="http://www.w3.org/2000/svg"
   xmlns:svg="http://www.w3.org/2000/svg">
  <sodipodi:namedview
     id="namedview7"
     pagecolor="#ffffff"
     bordercolor="#666666"
     borderopacity="1.0"
     inkscape:showpageshadow="2"
     inkscape:pageopacity="0.0"
     inkscape:pagecheckerboard="0"
     inkscape:deskcolor="#d1d1d1"
     inkscape:document-units="px"
     showgrid="false"
     inkscape:zoom="12.40625"
     inkscape:cx="32"
     inkscape:cy="32"
     inkscape:window-width="1920"
     inkscape:window-height="1006"
     inkscape:window-x="0"
     inkscape:window-y="0"
     inkscape:window-maximized="1"
     inkscape:current-layer="svg5" />
  <defs
     id="defs2">
    <linearGradient
       inkscape:collect="always"
       xlink:href="#linearGradient3298"
       id="linearGradient3525"
       x1="50"
       y1="60"
       x2="14"
       y2="4"
       gradientUnits="userSpaceOnUse" />
    <linearGradient
       inkscape:collect="always"
       id="linearGradient3298">
      <stop
         style="stop-color:#ff9708;stop-opacity:1;"
         offset="0"
         id="stop3294" />
      <stop
         style="stop-color:#ffc608;stop-opacity:1;"
         offset="1"
         id="stop3296" />
    </linearGradient>
  </defs>
  <rect
     style="fill:url(#linearGradient3525);fill-opacity:1;stroke:none"
     id="rect184"
     width="55"
     height="55"
     x="4.5"
     y="4.5"
     ry="9.5" />
  <path
     d="m 36.632812,26.066406 c -2.053263,-0.0042 -4.213269,0.420009 -6.199218,1.078125 0.364349,0.145527 0.738198,0.236032 1.074218,0.501953 l 0.002,0.002 c 0.687033,0.54584 1.114353,1.296294 1.498046,2.054687 0.383696,0.758393 0.689511,1.534091 0.910157,2.076172 l 0.0039,0.0059 0.002,0.0078 c 0.296693,0.755875 0.514616,1.495369 0.283203,2.298829 -0.231027,0.802123 -0.956163,1.371864 -1.808593,1.671875 -1.302439,0.463047 -2.551478,0.154364 -3.5,-0.365234 -0.948523,-0.519599 -1.713404,-1.207181 -2.427735,-1.689454 l -0.0059,-0.0059 -0.0078,-0.0039 c -0.664824,-0.466317 -1.49186,-0.736735 -2.308593,-1.000001 -0.784451,1.446616 -1.239787,2.824684 -1.279297,3.408204 -0.05358,0.7935 -0.07767,1.312582 0.08984,1.857422 0.167075,0.543393 0.55267,1.205516 1.50586,2.179687 0.352303,0.346715 0.737829,0.671735 1.179687,0.966797 0.19686,0.131438 0.40333,0.258492 0.617188,0.376953 l 0.0039,0.002 c 0.277301,0.152112 0.571878,0.298789 0.878906,0.44336 0.121387,0.05716 0.266018,0.11727 0.425781,0.1875 0.182576,0.08007 0.349804,0.15573 0.50586,0.21875 h 0.002 c 0.134049,0.05401 0.284527,0.110165 0.449219,0.171875 v -0.002 c 0.196367,0.0735 0.382293,0.144218 0.560547,0.205078 0.127244,0.04342 0.260771,0.08626 0.40039,0.130859 0.165353,0.05282 0.346667,0.105951 0.539063,0.162109 l -0.002,-0.002 c 0.561947,0.163933 1.137267,0.308663 1.716797,0.431641 h 0.002 c 0.103635,0.02217 0.19666,0.04391 0.28125,0.06055 h 0.002 0.002 c 0.594976,0.118927 1.19019,0.217359 1.785156,0.292969 0.07282,0.0093 0.159687,0.01785 0.259766,0.0293 h 0.002 0.002 c 0.616872,0.07199 1.227252,0.125974 1.826172,0.152344 h 0.002 0.0039 c 0.01364,7e-4 0.05103,0.0015 0.111328,0.0039 0.590347,0.02351 1.17176,0.02155 1.742188,0.002 0.09335,-0.0034 0.156437,-9.78e-4 0.179687,-0.002 0.572353,-0.02423 1.128042,-0.0743 1.666016,-0.142578 0.09248,-0.01168 0.1559,-0.01708 0.1875,-0.02148 h 0.002 c 0.50974,-0.07024 0.996244,-0.164523 1.460938,-0.275391 0.04436,-0.01062 0.09271,-0.02296 0.140625,-0.03516 0.984131,-0.333114 1.977216,-0.756924 3.080078,-1.267578 2.125493,-1.050036 2.985179,-2.426309 3.925781,-3.980469 0.388206,-1.384839 0.587922,-2.815697 0.59375,-4.253906 -0.0016,-1.654816 -0.259851,-3.299371 -0.765625,-4.875001 -0.181047,-0.01732 -0.356666,-0.02815 -0.548828,-0.05859 l -0.04297,-0.0059 -0.04102,-0.01172 c -0.353232,-0.08754 -0.537452,-0.141721 -0.701171,-0.207031 -0.01953,-0.0078 -0.05263,-0.03116 -0.07227,-0.03906 -2.424013,-0.857854 -4.181542,-1.657765 -6.589844,-2.201172 l -0.04492,-0.0098 -0.04102,-0.01367 C 39.058837,26.226054 37.864771,26.068904 36.632812,26.066406 Z M 31.457311,13.000008 c -10.513616,-0.0094 -19.174146,8.649426 -19.450519,19.571619 -0.281059,11.095564 8.195953,20.32456 18.934858,20.614659 5.231819,0.14125 10.035202,-1.864086 13.618097,-5.242538 0.382546,-0.319221 0.589884,-0.519566 0.589884,-0.519564 0,0 4.030041,-5.489859 4.238562,-8.856061 -0.99139,1.637919 -2.009052,3.356064 -4.47686,4.570617 -1.131768,0.524275 -2.169575,0.96794 -3.215059,1.320402 -0.06696,0.0172 -0.135129,0.0345 -0.203138,0.05078 -0.495197,0.118208 -1.014659,0.218025 -1.558698,0.29299 -0.06596,0.0092 -0.132628,0.015 -0.199233,0.02344 -0.564244,0.07161 -1.148345,0.122969 -1.750117,0.14845 -0.06194,0.0026 -0.125248,0.0017 -0.187512,0.004 -0.593674,0.0204 -1.200072,0.0205 -1.816529,-0.004 -0.04024,-0.0016 -0.08083,-0.002 -0.121109,-0.004 -0.626895,-0.0276 -1.261456,-0.08192 -1.898564,-0.15627 -0.09093,-0.0104 -0.182493,-0.0196 -0.273457,-0.03126 -0.620183,-0.07881 -1.239156,-0.181493 -1.855591,-0.304709 -0.09961,-0.0196 -0.197614,-0.04126 -0.296896,-0.0625 -0.603237,-0.128009 -1.202379,-0.278065 -1.789182,-0.449248 -0.188132,-0.05492 -0.376837,-0.108647 -0.562537,-0.167971 -0.14037,-0.04484 -0.279197,-0.08937 -0.417998,-0.136729 -0.198333,-0.06772 -0.395149,-0.14197 -0.589882,-0.214859 -0.15885,-0.05952 -0.316535,-0.116727 -0.472689,-0.179692 -0.180932,-0.07301 -0.358126,-0.15283 -0.535192,-0.230483 -0.15005,-0.06596 -0.302282,-0.130029 -0.449248,-0.199233 -0.319941,-0.15065 -0.633946,-0.305989 -0.937562,-0.472688 -0.241657,-0.133689 -0.47224,-0.275542 -0.691453,-0.421904 -0.503433,-0.336179 -0.942352,-0.705363 -1.336027,-1.093823 -2.049541,-2.091574 -1.990561,-3.214903 -1.882937,-4.808915 0.0662,-0.977633 0.617289,-2.772695 1.800902,-4.621404 1.193859,0.28812 2.362916,0.761951 3.359598,1.461036 1.580748,1.067222 3.004841,2.662093 5.031586,1.941537 1.385628,-0.485963 1.460887,-1.3111 0.92975,-2.664241 -0.448528,-1.100212 -1.188783,-2.998403 -2.105611,-3.726812 -0.723438,-0.572518 -2.07329,-0.724384 -3.175992,-1.101637 0.600831,-0.386978 1.25558,-0.736423 1.964976,-1.035225 3.412881,-1.205097 7.426499,-1.748359 10.781969,-0.668013 2.524063,0.569526 4.338454,1.39868 6.73873,2.246244 0,0 -0.0184,0.04274 0.644575,0.207044 4.668044,0.739483 4.140901,-3.105675 4.140901,-3.105675 l -0.363305,-0.902405 0.273455,-0.847712 c 0,0 -0.286819,-1.060983 -0.238296,-1.761836 0.04908,-0.700438 -0.456509,-0.875622 -0.609407,-2.1563 -0.15273,-1.280769 -0.993186,-1.789335 -1.265708,-1.988414 -0.273155,-0.198722 -1.54645,-1.158236 -2.765811,-1.636828 -1.22011,-0.478599 -2.454008,-0.831297 -3.972921,-0.617229 -0.168652,0.02384 -0.325926,0.04928 -0.492219,0.07422 -0.0292,-0.0093 -0.0541,-0.02181 -0.08595,-0.03125 -0.579199,-0.172015 -0.987858,-1.109066 -1.461033,-1.097729 -0.036,8.68e-4 -0.07235,0.0039 -0.109388,0.0078 -0.0364,0.0038 -0.07576,0.0086 -0.113287,0.01562 -0.038,0.0072 -0.07762,0.01662 -0.117188,0.02735 -0.04316,0.01168 -0.08605,0.02878 -0.125008,0.04688 -0.276895,0.128715 -0.445932,0.611949 -0.550817,0.92975 -2.429582,-1.228121 -5.147122,-1.949848 -8.027884,-2.027481 -0.167811,-0.0045 -0.333166,-0.0077 -0.500033,-0.0078 z"
     style="fill:#000000;fill-opacity:1;stroke:none;stroke-width:2;stroke-linecap:round;stroke-linejoin:round;opacity:0.2"
     id="path14284" />
  <path
     id="path12403"
     style="opacity:1;fill:#ffdfa0;fill-opacity:1;stroke:none;stroke-width:2;stroke-linecap:round;stroke-linejoin:round"
     d="m 36.632812,25.066406 c -2.053263,-0.0042 -4.213269,0.420009 -6.199218,1.078125 0.364349,0.145527 0.738198,0.236032 1.074218,0.501953 l 0.002,0.002 c 0.687033,0.54584 1.114353,1.296294 1.498046,2.054687 0.383696,0.758393 0.689511,1.534091 0.910157,2.076172 l 0.0039,0.0059 0.002,0.0078 c 0.296693,0.755875 0.514616,1.495368 0.283203,2.298828 -0.231027,0.802123 -0.956163,1.371864 -1.808593,1.671875 -1.302439,0.463047 -2.551478,0.154364 -3.5,-0.365234 -0.948523,-0.519599 -1.713404,-1.207181 -2.427735,-1.689454 l -0.0059,-0.0059 -0.0078,-0.0039 c -0.664824,-0.466317 -1.49186,-0.736734 -2.308593,-1 -0.784451,1.446615 -1.239787,2.824683 -1.279297,3.408203 -0.05358,0.7935 -0.07767,1.312582 0.08984,1.857422 0.167075,0.543393 0.55267,1.205516 1.50586,2.179687 0.352303,0.346715 0.737829,0.671735 1.179687,0.966797 0.19686,0.131438 0.40333,0.258492 0.617188,0.376953 l 0.0039,0.002 c 0.277301,0.152112 0.571878,0.298789 0.878906,0.44336 0.121387,0.05716 0.266018,0.11727 0.425781,0.1875 0.182576,0.08007 0.349804,0.15573 0.50586,0.21875 h 0.002 c 0.134049,0.05401 0.284527,0.110165 0.449219,0.171875 v -0.002 c 0.196367,0.0735 0.382293,0.144218 0.560547,0.205078 0.127244,0.04342 0.260771,0.08626 0.40039,0.130859 0.165353,0.05282 0.346667,0.105951 0.539063,0.162109 l -0.002,-0.002 c 0.561947,0.163933 1.137267,0.308663 1.716797,0.431641 h 0.002 c 0.103635,0.02217 0.19666,0.04391 0.28125,0.06055 h 0.002 0.002 c 0.594976,0.118927 1.19019,0.217359 1.785156,0.292969 0.07282,0.0093 0.159687,0.01785 0.259766,0.0293 h 0.002 0.002 c 0.616872,0.07199 1.227252,0.125974 1.826172,0.152344 h 0.002 0.0039 c 0.01364,7e-4 0.05103,0.0015 0.111328,0.0039 0.590347,0.02351 1.17176,0.02155 1.742188,0.002 0.09335,-0.0034 0.156437,-9.78e-4 0.179687,-0.002 0.572353,-0.02423 1.128042,-0.0743 1.666016,-0.142578 0.09248,-0.01168 0.1559,-0.01708 0.1875,-0.02148 h 0.002 c 0.50974,-0.07024 0.996244,-0.164523 1.460938,-0.275391 0.04436,-0.01062 0.09271,-0.02296 0.140625,-0.03516 0.984131,-0.333114 1.977216,-0.756924 3.080078,-1.267578 2.125493,-1.050036 2.985179,-2.426309 3.925781,-3.980469 C 48.794456,35.869068 48.994172,34.43821 49,33 c -0.0016,-1.654815 -0.259851,-3.29937 -0.765625,-4.875 -0.181047,-0.01732 -0.356666,-0.02815 -0.548828,-0.05859 l -0.04297,-0.0059 -0.04102,-0.01172 c -0.353232,-0.08754 -0.537452,-0.141721 -0.701171,-0.207031 -0.01953,-0.0078 -0.05263,-0.03116 -0.07227,-0.03906 -2.424013,-0.857854 -4.181542,-1.657765 -6.589844,-2.201172 l -0.04492,-0.0098 -0.04102,-0.01367 c -1.093507,-0.352071 -2.287573,-0.509221 -3.519532,-0.511719 z"
     sodipodi:nodetypes="scccscccscscccccsccccsccccccscccccccccccccccccccccccccccccsccccs" />
  <path
     id="path990"
     style="fill:#ffffff;stroke-width:2.51211"
     d="m 31.457311,12.000008 c -10.513616,-0.0094 -19.174146,8.649426 -19.450519,19.571619 -0.281059,11.095563 8.195953,20.324559 18.934858,20.614658 5.231819,0.14125 10.035202,-1.864086 13.618097,-5.242538 0.382546,-0.319221 0.589884,-0.519566 0.589884,-0.519564 0,0 4.030041,-5.489859 4.238562,-8.856061 -0.99139,1.637919 -2.009052,3.356064 -4.47686,4.570617 -1.131768,0.524275 -2.169575,0.96794 -3.215059,1.320402 -0.06696,0.0172 -0.135129,0.0345 -0.203138,0.05078 -0.495197,0.118208 -1.014659,0.218025 -1.558698,0.29299 -0.06596,0.0092 -0.132628,0.015 -0.199233,0.02344 -0.564244,0.07161 -1.148345,0.122969 -1.750117,0.14845 -0.06194,0.0026 -0.125248,0.0017 -0.187512,0.004 -0.593674,0.0204 -1.200072,0.0205 -1.816529,-0.004 -0.04024,-0.0016 -0.08083,-0.002 -0.121109,-0.004 -0.626895,-0.0276 -1.261456,-0.08192 -1.898564,-0.15627 -0.09093,-0.0104 -0.182493,-0.0196 -0.273457,-0.03126 -0.620183,-0.07881 -1.239156,-0.181493 -1.855591,-0.304709 -0.09961,-0.0196 -0.197614,-0.04126 -0.296896,-0.0625 -0.603237,-0.128009 -1.202379,-0.278065 -1.789182,-0.449248 -0.188132,-0.05492 -0.376837,-0.108647 -0.562537,-0.167971 -0.14037,-0.04484 -0.279197,-0.08937 -0.417998,-0.136729 -0.198333,-0.06772 -0.395149,-0.14197 -0.589882,-0.214859 -0.15885,-0.05952 -0.316535,-0.116727 -0.472689,-0.179692 C 27.52221,42.194553 27.345016,42.114733 27.16795,42.03708 27.0179,41.97112 26.865668,41.907051 26.718702,41.837847 26.398761,41.687197 26.084756,41.531858 25.78114,41.365159 25.539483,41.23147 25.3089,41.089617 25.089687,40.943255 24.586254,40.607076 24.147335,40.237892 23.75366,39.849432 c -2.049541,-2.091574 -1.990561,-3.214903 -1.882937,-4.808915 0.0662,-0.977633 0.617289,-2.772695 1.800902,-4.621403 1.193859,0.28812 2.362916,0.761951 3.359598,1.461036 1.580748,1.067221 3.004841,2.662092 5.031586,1.941536 1.385628,-0.485963 1.460887,-1.3111 0.92975,-2.66424 -0.448528,-1.100212 -1.188783,-2.998403 -2.105611,-3.726812 -0.723438,-0.572518 -2.07329,-0.724384 -3.175992,-1.101637 0.600831,-0.386978 1.25558,-0.736423 1.964976,-1.035225 3.412881,-1.205097 7.426499,-1.748359 10.781969,-0.668013 2.524063,0.569526 4.338454,1.39868 6.73873,2.246244 0,0 -0.0184,0.04274 0.644575,0.207044 4.668044,0.739483 4.140901,-3.105675 4.140901,-3.105675 l -0.363305,-0.902405 0.273455,-0.847712 c 0,0 -0.286819,-1.060983 -0.238296,-1.761836 0.04908,-0.700438 -0.456509,-0.875622 -0.609407,-2.1563 -0.15273,-1.280769 -0.993186,-1.789335 -1.265708,-1.988414 -0.273155,-0.198722 -1.54645,-1.158236 -2.765811,-1.636828 -1.22011,-0.478599 -2.454008,-0.831297 -3.972921,-0.617229 -0.168652,0.02384 -0.325926,0.04928 -0.492219,0.07422 -0.0292,-0.0093 -0.0541,-0.02181 -0.08595,-0.03125 -0.579199,-0.172015 -0.987858,-1.109066 -1.461033,-1.097729 -0.036,8.68e-4 -0.07235,0.0039 -0.109388,0.0078 -0.0364,0.0038 -0.07576,0.0086 -0.113287,0.01562 -0.038,0.0072 -0.07762,0.01662 -0.117188,0.02735 -0.04316,0.01168 -0.08605,0.02878 -0.125008,0.04688 -0.276895,0.128715 -0.445932,0.611949 -0.550817,0.92975 -2.429582,-1.228121 -5.147122,-1.949848 -8.027884,-2.027481 -0.167811,-0.0045 -0.333166,-0.0077 -0.500033,-0.0078 z"
     sodipodi:nodetypes="ccccccccccccccccccccsccccsccccccccccccccccccccccccssccccccc" />
  <path
     id="rect2630"
     style="opacity:0.3;fill:#ffffff;fill-opacity:1"
     d="M 14,5 C 9.014005,5 5,9.014005 5,14 v 1 C 5,10.014005 9.014005,6 14,6 h 36 c 4.985995,0 9,4.014005 9,9 V 14 C 59,9.014005 54.985995,5 50,5 Z" />
  <path
     id="rect899"
     style="fill:#000000;stroke:none;opacity:0.6"
     d="M 14,4 C 8.4600055,4 4,8.4600055 4,14 v 36 c 0,5.539994 4.4600055,10 10,10 h 36 c 5.539994,0 10,-4.460006 10,-10 V 14 C 60,8.4600055 55.539994,4 50,4 Z m 0,1 h 36 c 4.985995,0 9,4.014005 9,9 v 36 c 0,4.985995 -4.014005,9 -9,9 H 14 C 9.014005,59 5,54.985995 5,50 V 14 C 5,9.014005 9.014005,5 14,5 Z" />
  <path
     id="rect398"
     style="opacity:0.3;fill:#ffffff"
     d="M 5 49 L 5 50 C 5 54.985995 9.014005 59 14 59 L 50 59 C 54.985995 59 59 54.985995 59 50 L 59 49 C 59 53.985995 54.985995 58 50 58 L 14 58 C 9.014005 58 5 53.985995 5 49 z " />
</svg>
