<?xml version="1.0" encoding="UTF-8" standalone="no"?>
<!-- Created with Inkscape (http://www.inkscape.org/) -->

<svg
   width="64"
   height="64"
   viewBox="0 0 64 64.000003"
   version="1.1"
   id="svg5"
   sodipodi:docname="multimedia-photo-viewer.svg"
   inkscape:version="1.2.1 (9c6d41e410, 2022-07-14)"
   xmlns:inkscape="http://www.inkscape.org/namespaces/inkscape"
   xmlns:sodipodi="http://sodipodi.sourceforge.net/DTD/sodipodi-0.dtd"
   xmlns:xlink="http://www.w3.org/1999/xlink"
   xmlns="http://www.w3.org/2000/svg"
   xmlns:svg="http://www.w3.org/2000/svg">
  <sodipodi:namedview
     id="namedview7"
     pagecolor="#ffffff"
     bordercolor="#666666"
     borderopacity="1.0"
     inkscape:showpageshadow="2"
     inkscape:pageopacity="0.0"
     inkscape:pagecheckerboard="0"
     inkscape:deskcolor="#d1d1d1"
     inkscape:document-units="px"
     showgrid="false"
     inkscape:zoom="9.2155718"
     inkscape:cx="44.435658"
     inkscape:cy="45.846314"
     inkscape:window-width="1920"
     inkscape:window-height="1007"
     inkscape:window-x="0"
     inkscape:window-y="0"
     inkscape:window-maximized="1"
     inkscape:current-layer="svg5"
     showguides="false" />
  <defs
     id="defs2">
    <linearGradient
       inkscape:collect="always"
       id="linearGradient21236">
      <stop
         style="stop-color:#3689e6;stop-opacity:1;"
         offset="0"
         id="stop21232" />
      <stop
         style="stop-color:#5dcffc;stop-opacity:1;"
         offset="1"
         id="stop21234" />
    </linearGradient>
    <linearGradient
       inkscape:collect="always"
       xlink:href="#linearGradient21236"
       id="linearGradient3525"
       x1="50"
       y1="60"
       x2="14"
       y2="4"
       gradientUnits="userSpaceOnUse" />
    <linearGradient
       inkscape:collect="always"
       xlink:href="#linearGradient2509"
       id="linearGradient1777"
       x1="22.333334"
       y1="23"
       x2="13.942867"
       y2="14.50999"
       gradientUnits="userSpaceOnUse"
       gradientTransform="matrix(3,0,0,3,-3.000001,-5.0000009)" />
    <linearGradient
       inkscape:collect="always"
       id="linearGradient2509">
      <stop
         style="stop-color:#077e29;stop-opacity:1;"
         offset="0"
         id="stop2505" />
      <stop
         style="stop-color:#77b408;stop-opacity:1;"
         offset="1"
         id="stop2507" />
    </linearGradient>
    <linearGradient
       inkscape:collect="always"
       xlink:href="#linearGradient1767"
       id="linearGradient1769"
       x1="21"
       y1="23"
       x2="8"
       y2="9"
       gradientUnits="userSpaceOnUse"
       gradientTransform="matrix(3,0,0,3,-3.000001,-5.0000009)" />
    <linearGradient
       inkscape:collect="always"
       id="linearGradient1767">
      <stop
         style="stop-color:#09ae39;stop-opacity:1;"
         offset="0"
         id="stop1763" />
      <stop
         style="stop-color:#8ed90b;stop-opacity:1;"
         offset="1"
         id="stop1765" />
    </linearGradient>
    <linearGradient
       inkscape:collect="always"
       xlink:href="#linearGradient2879"
       id="linearGradient2881"
       x1="29"
       y1="29"
       x2="16"
       y2="3"
       gradientUnits="userSpaceOnUse"
       gradientTransform="matrix(0.46153845,0,0,0.46153845,38.615384,12.615382)" />
    <linearGradient
       inkscape:collect="always"
       id="linearGradient2879">
      <stop
         style="stop-color:#ff8e42;stop-opacity:1;"
         offset="0"
         id="stop2875" />
      <stop
         style="stop-color:#ffdc42;stop-opacity:1;"
         offset="1"
         id="stop2877" />
    </linearGradient>
  </defs>
  <rect
     style="fill:url(#linearGradient3525);fill-opacity:1;stroke:none"
     id="rect184"
     width="55"
     height="55"
     x="4.5"
     y="4.5"
     ry="9.5" />
  <path
     id="path9116"
     style="opacity:0.2;fill:#000000;fill-opacity:1;stroke-width:6;stroke-linecap:round;stroke-linejoin:round"
     d="M 22 23 L 4.5 40.5 L 4.5 50 C 4.5 55.262995 8.7370053 59.5 14 59.5 L 50 59.5 C 55.262995 59.5 59.5 55.262995 59.5 50 L 59.5 44.5 L 48 33 L 39.5625 41.4375 L 22 23 z " />
  <circle
     style="opacity:0.2;fill:#000000;fill-opacity:1;stroke:none;stroke-width:0.92308;stroke-linecap:round;stroke-linejoin:round;stroke-dasharray:none;stroke-opacity:1"
     id="path2871"
     cx="46"
     cy="21"
     r="6" />
  <circle
     style="fill:url(#linearGradient2881);fill-opacity:1;stroke:none;stroke-width:0.923075;stroke-linecap:round;stroke-linejoin:round;stroke-dasharray:none;stroke-opacity:1"
     id="path2873"
     cx="46"
     cy="20"
     r="6" />
  <path
     id="rect1034"
     style="fill:url(#linearGradient1777);fill-opacity:1;stroke-width:6;stroke-linecap:round;stroke-linejoin:round"
     d="M 46 32 L 26 52 L 26 59.5 L 50 59.5 C 55.262995 59.5 59.5 55.262995 59.5 50 L 59.5 45.5 L 46 32 z " />
  <path
     id="rect304"
     style="fill:url(#linearGradient1769);fill-opacity:1;stroke-width:6;stroke-linecap:round;stroke-linejoin:round"
     d="M 20 22 L 4.5 37.5 L 4.5 50 C 4.5 55.262995 8.7370053 59.5 14 59.5 L 50 59.5 C 51.669229 59.5 53.233381 59.072242 54.59375 58.322266 L 20 22 z " />
  <path
     id="rect2630"
     style="opacity:0.3;fill:#ffffff;fill-opacity:1"
     d="M 14,5 C 9.014005,5 5,9.014005 5,14 v 1 C 5,10.014005 9.014005,6 14,6 h 36 c 4.985995,0 9,4.014005 9,9 V 14 C 59,9.014005 54.985995,5 50,5 Z" />
  <path
     id="rect899"
     style="fill:#000000;stroke:none;opacity:0.6"
     d="M 14,4 C 8.4600055,4 4,8.4600055 4,14 v 36 c 0,5.539994 4.4600055,10 10,10 h 36 c 5.539994,0 10,-4.460006 10,-10 V 14 C 60,8.4600055 55.539994,4 50,4 Z m 0,1 h 36 c 4.985995,0 9,4.014005 9,9 v 36 c 0,4.985995 -4.014005,9 -9,9 H 14 C 9.014005,59 5,54.985995 5,50 V 14 C 5,9.014005 9.014005,5 14,5 Z" />
  <path
     id="rect398"
     style="opacity:0.3;fill:#ffffff"
     d="M 5 49 L 5 50 C 5 54.985995 9.014005 59 14 59 L 50 59 C 54.985995 59 59 54.985995 59 50 L 59 49 C 59 53.985995 54.985995 58 50 58 L 14 58 C 9.014005 58 5 53.985995 5 49 z " />
</svg>
