<?xml version="1.0" encoding="UTF-8" standalone="no"?>
<!-- Created with Inkscape (http://www.inkscape.org/) -->

<svg
   width="64"
   height="64"
   viewBox="0 0 64 64.000003"
   version="1.1"
   id="svg5"
   sodipodi:docname="office-address-book.svg"
   inkscape:version="1.2.1 (9c6d41e410, 2022-07-14)"
   xmlns:inkscape="http://www.inkscape.org/namespaces/inkscape"
   xmlns:sodipodi="http://sodipodi.sourceforge.net/DTD/sodipodi-0.dtd"
   xmlns:xlink="http://www.w3.org/1999/xlink"
   xmlns="http://www.w3.org/2000/svg"
   xmlns:svg="http://www.w3.org/2000/svg">
  <sodipodi:namedview
     id="namedview7"
     pagecolor="#ffffff"
     bordercolor="#666666"
     borderopacity="1.0"
     inkscape:showpageshadow="2"
     inkscape:pageopacity="0.0"
     inkscape:pagecheckerboard="0"
     inkscape:deskcolor="#d1d1d1"
     inkscape:document-units="px"
     showgrid="false"
     inkscape:zoom="12.828125"
     inkscape:cx="32"
     inkscape:cy="32"
     inkscape:window-width="1920"
     inkscape:window-height="1007"
     inkscape:window-x="0"
     inkscape:window-y="0"
     inkscape:window-maximized="1"
     inkscape:current-layer="svg5"
     showguides="true" />
  <defs
     id="defs2">
    <linearGradient
       inkscape:collect="always"
       xlink:href="#linearGradient8443"
       id="linearGradient3525"
       x1="50"
       y1="60"
       x2="14"
       y2="4"
       gradientUnits="userSpaceOnUse" />
    <linearGradient
       inkscape:collect="always"
       id="linearGradient8443">
      <stop
         style="stop-color:#3465c4;stop-opacity:1;"
         offset="0"
         id="stop8439" />
      <stop
         style="stop-color:#68b4f7;stop-opacity:1;"
         offset="1"
         id="stop8441" />
    </linearGradient>
  </defs>
  <rect
     style="fill:url(#linearGradient3525);fill-opacity:1;stroke:none"
     id="rect184"
     width="55"
     height="55"
     x="4.5"
     y="4.5"
     ry="9.5" />
  <path
     id="rect294"
     style="fill:#8ace64;fill-opacity:1;stroke-width:3.4641;stroke-linecap:round;stroke-linejoin:round"
     d="M 52 4.7128906 L 52 27 L 59.5 27 L 59.5 14 C 59.5 9.4238373 56.29577 5.6268965 52 4.7128906 z " />
  <rect
     style="fill:#e65b5b;fill-opacity:1;stroke-width:1.65831;stroke-linecap:round;stroke-linejoin:round"
     id="rect956"
     width="7.5"
     height="22"
     x="52"
     y="22.999998" />
  <path
     id="rect1736"
     style="fill:#e6b45b;fill-opacity:1;stroke-width:3;stroke-linecap:round;stroke-linejoin:round"
     inkscape:label="rect1736"
     d="M 52 41 L 52 59.287109 C 56.29577 58.373104 59.5 54.576163 59.5 50 L 59.5 41 L 52 41 z " />
  <path
     id="rect4024"
     style="opacity:0.2;fill:#000000;fill-opacity:1;stroke-width:2;stroke-linecap:round;stroke-linejoin:round"
     d="M 52,22.999999 V 24 h 7.5 v -1.000001 z m 0,18 V 42 h 7.5 v -1.000001 z"
     sodipodi:nodetypes="cccccccccc" />
  <path
     d="m 37.784994,40.549429 c -0.895856,0 -1.758118,-0.223963 -2.586786,-0.671889 -0.828667,-0.470327 -1.410975,-1.209411 -1.74692,-2.21725 h -0.03352 c -0.201602,0.537514 -0.503969,0.985442 -0.907099,1.343785 -0.403135,0.358344 -0.851063,0.649496 -1.343785,0.873461 -0.470323,0.223969 -0.951845,0.380743 -1.444567,0.470323 -0.492722,0.08957 -0.94065,0.134363 -1.343786,0.134363 -2.150055,0 -3.784993,-0.604705 -4.904815,-1.814112 -1.119842,-1.209397 -1.679762,-2.833136 -1.679762,-4.871208 v -2.620383 c 0,-2.060469 0.537514,-3.68421 1.61254,-4.87122 1.097424,-1.209407 2.586787,-1.81411 4.468085,-1.81411 1.254201,0 2.25084,0.190371 2.989922,0.571109 0.739082,0.380741 1.265397,0.839868 1.578947,1.37738 v -1.746922 h 3.157896 v 10.582308 c 0,0.940648 0.19037,1.63494 0.57111,2.082866 0.380739,0.425531 0.929452,0.638297 1.646137,0.638297 0.559911,0 1.052631,-0.100782 1.478164,-0.302348 0.425531,-0.223972 0.783874,-0.571115 1.075026,-1.041433 0.291152,-0.492722 0.515115,-1.119821 0.671889,-1.881298 0.156769,-0.783876 0.235163,-1.735723 0.235163,-2.855544 v -0.369523 c 0,-1.881298 -0.279957,-3.56103 -0.839867,-5.039193 -0.537508,-1.478174 -1.343775,-2.732376 -2.418803,-3.762612 -1.075029,-1.05263 -2.396419,-1.847703 -3.964168,-2.385217 -1.567749,-0.559911 -3.370659,-0.839865 -5.408734,-0.839865 -1.74692,0 -3.348264,0.279954 -4.804031,0.839865 -1.455767,0.55991 -2.709966,1.37738 -3.762598,2.452408 -1.030236,1.052631 -1.836506,2.351623 -2.418814,3.896976 -0.582305,1.545352 -0.873459,3.292273 -0.873459,5.240761 v 0.571111 c 0,2.082869 0.279956,3.93057 0.839867,5.543115 0.582305,1.590145 1.410973,2.92273 2.486002,3.997759 1.075026,1.097425 2.385216,1.926092 3.93057,2.486003 1.56775,0.582307 3.325868,0.873461 5.274355,0.873461 1.679731,0 3.348264,-0.190373 5.005601,-0.57111 1.657333,-0.358343 3.180289,-0.895856 4.568867,-1.612545 l 0.94065,2.351623 c -1.410973,0.761479 -3.00112,1.343786 -4.770437,1.746923 -1.746921,0.425531 -3.628219,0.638298 -5.643896,0.638298 -2.418812,0 -4.580067,-0.358342 -6.483764,-1.075027 -1.903695,-0.716689 -3.516236,-1.746925 -4.837625,-3.090709 -1.32139,-1.343784 -2.340426,-2.967523 -3.057111,-4.87122 C 14.347145,37.033191 14,34.905531 14,32.553908 v -0.6383 c 0,-2.150055 0.335947,-4.132138 1.007839,-5.946245 0.69429,-1.836507 1.668534,-3.415453 2.922733,-4.736843 1.276595,-1.321389 2.810749,-2.351625 4.602463,-3.090707 1.814109,-0.761477 3.852184,-1.142216 6.114221,-1.142216 2.486003,0 4.680852,0.358342 6.584546,1.075029 1.903695,0.694288 3.505039,1.67973 4.804032,2.956326 1.298992,1.276596 2.284434,2.799553 2.956327,4.568869 C 43.664054,27.369136 44,29.317625 44,31.445283 v 0.436727 c 0,0.985443 -0.100781,1.993282 -0.302349,3.023517 -0.179175,1.007841 -0.503923,1.937293 -0.974247,2.788358 -0.470325,0.828667 -1.108623,1.511758 -1.914894,2.049272 -0.783874,0.537515 -1.791712,0.806272 -3.023516,0.806272 z M 25.119821,33.259395 c 0,1.276596 0.279954,2.295632 0.839865,3.057109 0.55991,0.739082 1.444569,1.108624 2.653976,1.108624 0.470323,0 0.918251,-0.05599 1.343784,-0.167981 0.447926,-0.111994 0.839863,-0.302357 1.175813,-0.57111 0.35834,-0.268757 0.638297,-0.627102 0.839865,-1.07503 0.201568,-0.447924 0.302351,-1.007835 0.302351,-1.67973 v -2.956324 c 0,-0.447925 -0.06718,-0.873458 -0.201572,-1.276596 -0.111994,-0.425533 -0.313554,-0.795073 -0.604701,-1.108622 -0.291155,-0.335947 -0.671894,-0.593507 -1.142218,-0.772676 -0.470323,-0.201566 -1.041431,-0.302349 -1.713324,-0.302349 -1.097424,0 -1.959688,0.302349 -2.586788,0.907053 -0.6047,0.604703 -0.907051,1.702127 -0.907051,3.292272 z"
     style="font-weight:bold;font-size:4.74057px;line-height:1.25;font-family:'나눔스퀘어';-inkscape-font-specification:'나눔스퀘어 Bold';opacity:0.2;fill:#000000;stroke-width:0.839871"
     id="path1620" />
  <path
     d="m 37.784994,39.549831 c -0.895856,0 -1.758118,-0.223963 -2.586786,-0.671889 -0.828667,-0.470327 -1.410975,-1.209411 -1.74692,-2.217249 h -0.03352 c -0.201602,0.537513 -0.503969,0.985441 -0.907099,1.343784 -0.403135,0.358344 -0.851063,0.649496 -1.343785,0.873461 -0.470323,0.223969 -0.951845,0.380743 -1.444567,0.470323 -0.492722,0.08957 -0.94065,0.134363 -1.343786,0.134363 -2.150055,0 -3.784993,-0.604705 -4.904815,-1.814112 -1.119842,-1.209397 -1.679762,-2.833136 -1.679762,-4.871208 v -2.620382 c 0,-2.06047 0.537514,-3.68421 1.61254,-4.87122 1.097424,-1.209407 2.586787,-1.814109 4.468085,-1.814109 1.254201,0 2.25084,0.19037 2.989922,0.571108 0.739082,0.380741 1.265397,0.839868 1.578947,1.37738 v -1.746922 h 3.157896 v 10.582307 c 0,0.940648 0.19037,1.63494 0.57111,2.082866 0.380739,0.425531 0.929452,0.638297 1.646137,0.638297 0.559911,0 1.052631,-0.100781 1.478164,-0.302348 0.425531,-0.223972 0.783874,-0.571115 1.075026,-1.041433 0.291152,-0.492722 0.515115,-1.119821 0.671889,-1.881298 0.156769,-0.783876 0.235163,-1.735723 0.235163,-2.855542 v -0.369524 c 0,-1.881298 -0.279957,-3.56103 -0.839867,-5.039193 -0.537508,-1.478174 -1.343775,-2.732376 -2.418803,-3.762612 -1.075029,-1.05263 -2.396419,-1.847703 -3.964168,-2.385217 -1.567749,-0.559911 -3.370659,-0.839865 -5.408734,-0.839865 -1.74692,0 -3.348264,0.279954 -4.804031,0.839865 -1.455767,0.55991 -2.709966,1.37738 -3.762598,2.452408 -1.030236,1.052631 -1.836506,2.351623 -2.418814,3.896976 -0.582305,1.545352 -0.873459,3.292273 -0.873459,5.240761 v 0.57111 c 0,2.082869 0.279956,3.93057 0.839867,5.543115 0.582305,1.590145 1.410973,2.92273 2.486002,3.997759 1.075026,1.097425 2.385216,1.926092 3.93057,2.486003 1.56775,0.582307 3.325868,0.873461 5.274355,0.873461 1.679731,0 3.348264,-0.190373 5.005601,-0.57111 1.657333,-0.358343 3.180289,-0.895856 4.568867,-1.612545 l 0.94065,2.351623 c -1.410973,0.761479 -3.00112,1.343786 -4.770437,1.746923 -1.746921,0.425531 -3.628219,0.638298 -5.643896,0.638298 -2.418812,0 -4.580067,-0.358342 -6.483764,-1.075027 -1.903695,-0.716689 -3.516236,-1.746924 -4.837625,-3.090709 -1.32139,-1.343784 -2.340426,-2.967523 -3.057111,-4.87122 C 14.347145,36.033593 14,33.905933 14,31.55431 v -0.638299 c 0,-2.150055 0.335947,-4.132138 1.007839,-5.946245 0.69429,-1.836507 1.668534,-3.415453 2.922733,-4.736843 1.276595,-1.321389 2.810749,-2.351625 4.602463,-3.090707 C 24.347144,16.380739 26.385219,16 28.647256,16 c 2.486003,0 4.680852,0.358343 6.584546,1.075029 1.903695,0.694288 3.505039,1.67973 4.804032,2.956326 1.298992,1.276596 2.284434,2.799553 2.956327,4.568869 C 43.664054,26.369539 44,28.318028 44,30.445686 v 0.436727 c 0,0.985442 -0.100781,1.993281 -0.302349,3.023516 -0.179175,1.007841 -0.503923,1.937294 -0.974247,2.788358 -0.470325,0.828667 -1.108623,1.511758 -1.914894,2.049272 -0.783874,0.537515 -1.791712,0.806272 -3.023516,0.806272 z M 25.119821,32.259798 c 0,1.276595 0.279954,2.295631 0.839865,3.057108 0.55991,0.739082 1.444569,1.108624 2.653976,1.108624 0.470323,0 0.918251,-0.05599 1.343784,-0.167981 0.447926,-0.111994 0.839863,-0.302357 1.175813,-0.57111 0.35834,-0.268757 0.638297,-0.627101 0.839865,-1.07503 0.201568,-0.447924 0.302351,-1.007835 0.302351,-1.67973 v -2.956323 c 0,-0.447925 -0.06718,-0.873458 -0.201572,-1.276596 -0.111994,-0.425533 -0.313554,-0.795073 -0.604701,-1.108622 -0.291155,-0.335947 -0.671894,-0.593507 -1.142218,-0.772676 -0.470323,-0.201566 -1.041431,-0.30235 -1.713324,-0.30235 -1.097424,0 -1.959688,0.30235 -2.586787,0.907054 -0.604701,0.604703 -0.907052,1.702127 -0.907052,3.292272 z"
     style="font-weight:bold;font-size:4.74057px;line-height:1.25;font-family:'나눔스퀘어';-inkscape-font-specification:'나눔스퀘어 Bold';fill:#ffffff;stroke-width:0.839871"
     id="path6805"
     sodipodi:nodetypes="scccscsscsscsscccscscccsscccsscssscccsccccssscsscccscsssscccsscsccssscccscss" />
  <path
     id="rect2630"
     style="opacity:0.3;fill:#ffffff;fill-opacity:1"
     d="M 14,5 C 9.014005,5 5,9.014005 5,14 v 1 C 5,10.014005 9.014005,6 14,6 h 36 c 4.985995,0 9,4.014005 9,9 V 14 C 59,9.014005 54.985995,5 50,5 Z" />
  <path
     id="rect899"
     style="fill:#000000;stroke:none;opacity:0.6"
     d="M 14,4 C 8.4600055,4 4,8.4600055 4,14 v 36 c 0,5.539994 4.4600055,10 10,10 h 36 c 5.539994,0 10,-4.460006 10,-10 V 14 C 60,8.4600055 55.539994,4 50,4 Z m 0,1 h 36 c 4.985995,0 9,4.014005 9,9 v 36 c 0,4.985995 -4.014005,9 -9,9 H 14 C 9.014005,59 5,54.985995 5,50 V 14 C 5,9.014005 9.014005,5 14,5 Z" />
  <path
     id="rect398"
     style="opacity:0.3;fill:#ffffff"
     d="M 5 49 L 5 50 C 5 54.985995 9.014005 59 14 59 L 50 59 C 54.985995 59 59 54.985995 59 50 L 59 49 C 59 53.985995 54.985995 58 50 58 L 14 58 C 9.014005 58 5 53.985995 5 49 z " />
</svg>
