<?xml version="1.0" encoding="UTF-8" standalone="no"?>
<!-- Created with Inkscape (http://www.inkscape.org/) -->

<svg
   width="64"
   height="64"
   viewBox="0 0 64 64.000003"
   version="1.1"
   id="svg5"
   sodipodi:docname="org.gnome.Software.svg"
   inkscape:version="1.2.1 (9c6d41e410, 2022-07-14)"
   xmlns:inkscape="http://www.inkscape.org/namespaces/inkscape"
   xmlns:sodipodi="http://sodipodi.sourceforge.net/DTD/sodipodi-0.dtd"
   xmlns:xlink="http://www.w3.org/1999/xlink"
   xmlns="http://www.w3.org/2000/svg"
   xmlns:svg="http://www.w3.org/2000/svg">
  <sodipodi:namedview
     id="namedview7"
     pagecolor="#ffffff"
     bordercolor="#666666"
     borderopacity="1.0"
     inkscape:showpageshadow="2"
     inkscape:pageopacity="0.0"
     inkscape:pagecheckerboard="0"
     inkscape:deskcolor="#d1d1d1"
     inkscape:document-units="px"
     showgrid="false"
     inkscape:zoom="12.375"
     inkscape:cx="31.959596"
     inkscape:cy="32"
     inkscape:window-width="1920"
     inkscape:window-height="1007"
     inkscape:window-x="0"
     inkscape:window-y="0"
     inkscape:window-maximized="1"
     inkscape:current-layer="svg5" />
  <defs
     id="defs2">
    <linearGradient
       inkscape:collect="always"
       id="linearGradient1912">
      <stop
         style="stop-color:#dfdfdf;stop-opacity:1;"
         offset="0"
         id="stop1908" />
      <stop
         style="stop-color:#f2f2f2;stop-opacity:1;"
         offset="1"
         id="stop1910" />
    </linearGradient>
    <linearGradient
       inkscape:collect="always"
       xlink:href="#linearGradient1912"
       id="linearGradient3525"
       x1="50"
       y1="60"
       x2="14"
       y2="4"
       gradientUnits="userSpaceOnUse" />
    <linearGradient
       inkscape:collect="always"
       xlink:href="#linearGradient23632"
       id="linearGradient993"
       x1="4.2333331"
       y1="8.4666662"
       x2="8.4666662"
       y2="8.4666672"
       gradientUnits="userSpaceOnUse"
       gradientTransform="matrix(3.7795276,0,0,3.7795276,1.3741455e-6,6.2597656e-8)" />
    <linearGradient
       inkscape:collect="always"
       id="linearGradient23632">
      <stop
         style="stop-color:#ed336c;stop-opacity:1;"
         offset="0"
         id="stop23628" />
      <stop
         style="stop-color:#ffa348;stop-opacity:1"
         offset="1"
         id="stop23630" />
    </linearGradient>
    <linearGradient
       inkscape:collect="always"
       xlink:href="#linearGradient27108"
       id="linearGradient27110"
       x1="9.7895832"
       y1="11.292581"
       x2="13.493803"
       y2="11.292581"
       gradientUnits="userSpaceOnUse"
       gradientTransform="matrix(3.7795276,0,0,3.7795276,1.3741455e-6,6.2597656e-8)" />
    <linearGradient
       inkscape:collect="always"
       id="linearGradient27108">
      <stop
         style="stop-color:#33d1c6;stop-opacity:1;"
         offset="0"
         id="stop27104" />
      <stop
         style="stop-color:#1c25d8;stop-opacity:1"
         offset="1"
         id="stop27106" />
    </linearGradient>
    <linearGradient
       inkscape:collect="always"
       xlink:href="#linearGradient24599"
       id="linearGradient24601"
       x1="10.627575"
       y1="4.2302613"
       x2="10.627575"
       y2="7.9344277"
       gradientUnits="userSpaceOnUse"
       gradientTransform="matrix(3.7795276,0,0,3.7795276,1.3741455e-6,6.2597656e-8)" />
    <linearGradient
       inkscape:collect="always"
       id="linearGradient24599">
      <stop
         style="stop-color:#404ce6;stop-opacity:1;"
         offset="0"
         id="stop24595" />
      <stop
         style="stop-color:#c061cb;stop-opacity:1"
         offset="1"
         id="stop24597" />
    </linearGradient>
  </defs>
  <rect
     style="fill:url(#linearGradient3525);fill-opacity:1.0;stroke:none"
     id="rect184"
     width="55"
     height="55"
     x="4.5"
     y="4.5"
     ry="9.5" />
  <path
     d="m 40,17 c -3.865993,0 -7,3.134007 -7,7 0,3.865993 3.134007,7 7,7 3.865993,0 7,-3.134007 7,-7 0,-3.865993 -3.134007,-7 -7,-7 z m -20,9 c -2.215998,0 -4,1.784003 -4,4 v 6.000001 c 0,2.215998 1.784002,4 4,4 h 6 c 2.215998,0 4,-1.784002 4,-4 V 30 c 0,-2.215997 -1.784002,-4 -4,-4 z m 24.416016,10.000001 c -0.451133,-0.0079 -0.916041,0.103002 -1.353516,0.355469 l -8.75,5.050781 c -1.750156,1.010603 -1.750159,3.536276 0,4.546875 l 8.75,5.052735 C 44.812725,52.015909 46.999736,50.753191 47,48.732423 V 38.626954 c -6.55e-4,-1.515299 -1.230586,-2.603253 -2.583984,-2.626953 z"
     style="opacity:0.2;fill:#000000;fill-opacity:1;stroke-width:1.1403"
     id="path3607" />
  <circle
     style="fill:url(#linearGradient24601);fill-opacity:1;stroke-width:1.1403"
     id="path23832"
     cx="40"
     cy="23"
     r="7" />
  <path
     style="color:#000000;fill:url(#linearGradient27110);fill-opacity:1;stroke-width:0.416655;stroke-linecap:round;stroke-linejoin:round"
     d="m 43.06234,50.005822 c 1.750227,1.010049 3.937595,-0.252926 3.937859,-2.273696 l 4e-6,-10.103841 C 46.99933,35.607884 44.812242,34.345546 43.06234,35.355417 l -8.749719,5.051097 c -1.750158,1.010604 -1.750162,3.536776 -10e-7,4.547376 z"
     id="path26141"
     sodipodi:nodetypes="ccccccc" />
  <rect
     style="fill:url(#linearGradient993);fill-opacity:1;stroke-width:0.999999;stroke-linejoin:round"
     id="rect985"
     width="14"
     height="14"
     x="16"
     y="25"
     ry="3.9999998" />
  <path
     id="rect2630"
     style="opacity:0.3;fill:#ffffff;fill-opacity:1"
     d="M 14,5 C 9.014005,5 5,9.014005 5,14 v 1 C 5,10.014005 9.014005,6 14,6 h 36 c 4.985995,0 9,4.014005 9,9 V 14 C 59,9.014005 54.985995,5 50,5 Z" />
  <path
     id="rect899"
     style="fill:#000000;stroke:none;opacity:0.6"
     d="M 14,4 C 8.4600055,4 4,8.4600055 4,14 v 36 c 0,5.539994 4.4600055,10 10,10 h 36 c 5.539994,0 10,-4.460006 10,-10 V 14 C 60,8.4600055 55.539994,4 50,4 Z m 0,1 h 36 c 4.985995,0 9,4.014005 9,9 v 36 c 0,4.985995 -4.014005,9 -9,9 H 14 C 9.014005,59 5,54.985995 5,50 V 14 C 5,9.014005 9.014005,5 14,5 Z" />
  <path
     id="rect398"
     style="opacity:0.3;fill:#ffffff"
     d="M 5 49 L 5 50 C 5 54.985995 9.014005 59 14 59 L 50 59 C 54.985995 59 59 54.985995 59 50 L 59 49 C 59 53.985995 54.985995 58 50 58 L 14 58 C 9.014005 58 5 53.985995 5 49 z " />
</svg>
