<?xml version="1.0" encoding="UTF-8" standalone="no"?>
<!-- Created with Inkscape (http://www.inkscape.org/) -->

<svg
   width="64"
   height="64"
   viewBox="0 0 64 64.000003"
   version="1.1"
   id="svg5"
   sodipodi:docname="preferences-desktop-font.svg"
   inkscape:version="1.2.1 (9c6d41e410, 2022-07-14)"
   xmlns:inkscape="http://www.inkscape.org/namespaces/inkscape"
   xmlns:sodipodi="http://sodipodi.sourceforge.net/DTD/sodipodi-0.dtd"
   xmlns:xlink="http://www.w3.org/1999/xlink"
   xmlns="http://www.w3.org/2000/svg"
   xmlns:svg="http://www.w3.org/2000/svg">
  <sodipodi:namedview
     id="namedview7"
     pagecolor="#ffffff"
     bordercolor="#666666"
     borderopacity="1.0"
     inkscape:showpageshadow="2"
     inkscape:pageopacity="0.0"
     inkscape:pagecheckerboard="0"
     inkscape:deskcolor="#d1d1d1"
     inkscape:document-units="px"
     showgrid="false"
     inkscape:zoom="12.453125"
     inkscape:cx="31.959849"
     inkscape:cy="32"
     inkscape:window-width="1920"
     inkscape:window-height="1009"
     inkscape:window-x="0"
     inkscape:window-y="0"
     inkscape:window-maximized="1"
     inkscape:current-layer="svg5"
     showguides="true" />
  <defs
     id="defs2">
    <linearGradient
       inkscape:collect="always"
       xlink:href="#linearGradient22024"
       id="linearGradient3525"
       x1="50"
       y1="60"
       x2="14"
       y2="4"
       gradientUnits="userSpaceOnUse" />
    <linearGradient
       inkscape:collect="always"
       id="linearGradient22024">
      <stop
         style="stop-color:#dedede;stop-opacity:1;"
         offset="0"
         id="stop22020" />
      <stop
         style="stop-color:#f5f5f5;stop-opacity:1;"
         offset="1"
         id="stop22022" />
    </linearGradient>
  </defs>
  <rect
     style="fill:url(#linearGradient3525);fill-opacity:1;stroke:none"
     id="rect184"
     width="55"
     height="55"
     x="4.5"
     y="4.5"
     ry="9.5" />
  <path
     d="M 21.4462,19 12,44.811032 h 3.350172 l 2.58501,-7.272491 h 10.374505 l 2.58501,7.272491 h 3.386937 L 24.833136,19 Z m 1.569387,4.170482 h 0.213695 l 4.09925,11.550973 h -8.412196 z m 21.711783,2.033542 c -1.402246,0 -2.66931,0.223979 -3.79824,0.675548 -1.117047,0.439688 -2.013353,1.058122 -2.69071,1.854314 -0.677353,0.796191 -1.080214,1.711994 -1.210929,2.745854 h 3.20771 c 0.225827,-0.772424 0.712732,-1.397358 1.461392,-1.872695 0.748657,-0.487222 1.711854,-0.730696 2.888315,-0.730696 1.437899,0 2.523784,0.338264 3.260561,1.015621 0.748653,0.665475 1.123616,1.622172 1.123616,2.869935 v 1.56939 c -0.415922,0.01191 -1.187241,0.04858 -2.31617,0.108 -1.128926,0.05942 -2.105122,0.117513 -2.925083,0.176931 -2.103371,0.154485 -3.844388,0.647932 -5.222866,1.479775 -1.3666,0.819957 -2.049626,2.229207 -2.049626,4.225627 0,1.223999 0.290868,2.286186 0.873159,3.189327 0.582291,0.891258 1.373102,1.57429 2.371313,2.049626 0.998211,0.463453 2.116592,0.702732 3.352471,0.714614 1.521083,-0.01209 2.762151,-0.328743 3.724714,-0.946692 0.974445,-0.629824 1.657474,-1.347247 2.049626,-2.155325 h 0.14245 v 2.637861 h 3.030781 v -12.76191 c 0.0119,-2.673778 -0.731528,-4.481685 -2.22884,-5.420478 -1.497317,-0.950677 -3.177941,-1.424627 -5.043644,-1.424627 z m 4.241715,10.641048 v 1.94163 c 0,0.831842 -0.213317,1.611953 -0.641084,2.336846 -0.415918,0.724895 -1.027854,1.306632 -1.835932,1.746316 -0.808074,0.439691 -1.764771,0.659467 -2.869935,0.659467 -1.235879,0 -2.229271,-0.260636 -2.977931,-0.783549 -0.73677,-0.522868 -1.109432,-1.28349 -1.121317,-2.2817 0.01203,-1.021973 0.408241,-1.802089 1.19255,-2.336844 0.796191,-0.534756 1.921069,-0.849323 3.370854,-0.94439 l 2.529861,-0.176931 c 1.295305,-0.09507 2.079625,-0.148959 2.352934,-0.160845 z"
     style="font-size:8.21007px;line-height:1.25;font-family:Pretendard;-inkscape-font-specification:Pretendard;fill:#ffffff;stroke-width:0.912654;opacity:0.5"
     id="path1907"
     sodipodi:nodetypes="ccccccccccccccscscccscscsccsccccccccccscscsscccccc" />
  <path
     d="M 21.4462,17.999999 12,43.811032 h 3.350172 l 2.58501,-7.272491 h 10.374505 l 2.58501,7.272491 h 3.386937 L 24.833136,17.999999 Z m 1.569387,4.170482 h 0.213695 l 4.09925,11.550974 h -8.412196 z m 21.711783,2.033542 c -1.402246,0 -2.66931,0.223979 -3.79824,0.675548 -1.117047,0.439688 -2.013353,1.058122 -2.69071,1.854314 -0.677353,0.796191 -1.080214,1.711994 -1.210929,2.745854 h 3.20771 c 0.225827,-0.772424 0.712732,-1.397358 1.461392,-1.872695 0.748657,-0.487222 1.711854,-0.730696 2.888315,-0.730696 1.437899,0 2.523784,0.338264 3.260561,1.015621 0.748653,0.665475 1.123616,1.622172 1.123616,2.869935 v 1.569391 c -0.415922,0.01191 -1.187241,0.04858 -2.31617,0.108 -1.128926,0.05942 -2.105122,0.117513 -2.925083,0.176931 -2.103371,0.154485 -3.844388,0.647932 -5.222866,1.479775 -1.3666,0.819957 -2.049626,2.229207 -2.049626,4.225627 0,1.223999 0.290868,2.286186 0.873159,3.189327 0.582291,0.891258 1.373102,1.57429 2.371313,2.049626 0.998211,0.463453 2.116592,0.702732 3.352471,0.714614 1.521083,-0.01209 2.762151,-0.328743 3.724714,-0.946692 0.974445,-0.629824 1.657474,-1.347247 2.049626,-2.155325 h 0.14245 v 2.637861 h 3.030781 V 31.049128 c 0.0119,-2.673778 -0.731528,-4.481685 -2.22884,-5.420478 -1.497317,-0.950677 -3.177941,-1.424627 -5.043644,-1.424627 z m 4.241715,10.641049 v 1.94163 c 0,0.831842 -0.213317,1.611953 -0.641084,2.336846 -0.415918,0.724895 -1.027854,1.306632 -1.835932,1.746316 -0.808074,0.439691 -1.764771,0.659467 -2.869935,0.659467 -1.235879,0 -2.229271,-0.260636 -2.977931,-0.783549 -0.73677,-0.522868 -1.109432,-1.28349 -1.121317,-2.2817 0.01203,-1.021973 0.408241,-1.802089 1.19255,-2.336844 0.796191,-0.534756 1.921069,-0.849323 3.370854,-0.94439 l 2.529861,-0.176931 c 1.295305,-0.09507 2.079625,-0.148959 2.352934,-0.160845 z"
     style="font-size:8.21007px;line-height:1.25;font-family:Pretendard;-inkscape-font-specification:Pretendard;fill:#4d4d4d;stroke-width:0.912654"
     id="path1940" />
  <path
     id="rect2630"
     style="opacity:0.3;fill:#ffffff;fill-opacity:1"
     d="M 14,5 C 9.014005,5 5,9.014005 5,14 v 1 C 5,10.014005 9.014005,6 14,6 h 36 c 4.985995,0 9,4.014005 9,9 V 14 C 59,9.014005 54.985995,5 50,5 Z" />
  <path
     id="rect899"
     style="fill:#000000;stroke:none;opacity:0.6"
     d="M 14,4 C 8.4600055,4 4,8.4600055 4,14 v 36 c 0,5.539994 4.4600055,10 10,10 h 36 c 5.539994,0 10,-4.460006 10,-10 V 14 C 60,8.4600055 55.539994,4 50,4 Z m 0,1 h 36 c 4.985995,0 9,4.014005 9,9 v 36 c 0,4.985995 -4.014005,9 -9,9 H 14 C 9.014005,59 5,54.985995 5,50 V 14 C 5,9.014005 9.014005,5 14,5 Z" />
  <path
     id="rect398"
     style="opacity:0.3;fill:#ffffff"
     d="M 5 49 L 5 50 C 5 54.985995 9.014005 59 14 59 L 50 59 C 54.985995 59 59 54.985995 59 50 L 59 49 C 59 53.985995 54.985995 58 50 58 L 14 58 C 9.014005 58 5 53.985995 5 49 z " />
</svg>
