<?xml version="1.0" encoding="UTF-8" standalone="no"?>
<!-- Created with Inkscape (http://www.inkscape.org/) -->

<svg
   width="64"
   height="64"
   viewBox="0 0 64 64.000003"
   version="1.1"
   id="svg5"
   sodipodi:docname="preferences-desktop-keyboard.svg"
   inkscape:version="1.2.1 (9c6d41e410, 2022-07-14)"
   xmlns:inkscape="http://www.inkscape.org/namespaces/inkscape"
   xmlns:sodipodi="http://sodipodi.sourceforge.net/DTD/sodipodi-0.dtd"
   xmlns:xlink="http://www.w3.org/1999/xlink"
   xmlns="http://www.w3.org/2000/svg"
   xmlns:svg="http://www.w3.org/2000/svg">
  <sodipodi:namedview
     id="namedview7"
     pagecolor="#ffffff"
     bordercolor="#666666"
     borderopacity="1.0"
     inkscape:showpageshadow="2"
     inkscape:pageopacity="0.0"
     inkscape:pagecheckerboard="0"
     inkscape:deskcolor="#d1d1d1"
     inkscape:document-units="px"
     showgrid="false"
     inkscape:zoom="12.125"
     inkscape:cx="32.041237"
     inkscape:cy="32"
     inkscape:window-width="1920"
     inkscape:window-height="1007"
     inkscape:window-x="0"
     inkscape:window-y="0"
     inkscape:window-maximized="1"
     inkscape:current-layer="svg5" />
  <defs
     id="defs2">
    <linearGradient
       inkscape:collect="always"
       id="linearGradient22024">
      <stop
         style="stop-color:#cdcdcd;stop-opacity:1;"
         offset="0"
         id="stop22020" />
      <stop
         style="stop-color:#eff0f1;stop-opacity:1;"
         offset="1"
         id="stop22022" />
    </linearGradient>
    <linearGradient
       inkscape:collect="always"
       xlink:href="#linearGradient22024"
       id="linearGradient3525"
       x1="50"
       y1="60"
       x2="14"
       y2="4"
       gradientUnits="userSpaceOnUse" />
  </defs>
  <rect
     style="fill:url(#linearGradient3525);fill-opacity:1.0;stroke:none"
     id="rect184"
     width="55"
     height="55"
     x="4.5"
     y="4.5"
     ry="9.5" />
  <path
     d="m 12,16 c -1.108,0 -2,0.892 -2,2 v 4 c 0,1.107998 0.892,2 2,2 h 4 c 1.107998,0 2,-0.892002 2,-2 v -4 c 0,-1.108 -0.892002,-2 -2,-2 z m 12,0 c -1.107998,0 -2,0.892 -2,2 v 4 c 0,1.107998 0.892002,2 2,2 h 4 c 1.108,0 2,-0.892002 2,-2 v -4 c 0,-1.108 -0.892,-2 -2,-2 z m 12,0 c -1.108,0 -2,0.892 -2,2 v 4 c 0,1.107998 0.892,2 2,2 h 4 c 1.107998,0 2,-0.892002 2,-2 v -4 c 0,-1.108 -0.892002,-2 -2,-2 z m 12,0 c -1.108,0 -2,0.892 -2,2 v 4 c 0,1.107998 0.892,2 2,2 h 4 c 1.107998,0 2,-0.892002 2,-2 v -4 c 0,-1.108 -0.892002,-2 -2,-2 z M 12,28 c -1.108,0 -2,0.892 -2,2 v 4 c 0,1.107998 0.892,2 2,2 h 4 c 1.107998,0 2,-0.892002 2,-2 v -4 c 0,-1.108 -0.892002,-2 -2,-2 z m 12,0 c -1.107998,0 -2,0.892 -2,2 v 4 c 0,1.107998 0.892002,2 2,2 h 4 c 1.108,0 2,-0.892002 2,-2 v -4 c 0,-1.108 -0.892,-2 -2,-2 z m 12,0 c -1.108,0 -2,0.892 -2,2 v 4 c 0,1.107998 0.892,2 2,2 h 4 c 1.107998,0 2,-0.892002 2,-2 v -4 c 0,-1.108 -0.892002,-2 -2,-2 z m 12,0 c -1.108,0 -2,0.892 -2,2 v 4 c 0,1.107998 0.892,2 2,2 h 4 c 1.107998,0 2,-0.892002 2,-2 v -4 c 0,-1.108 -0.892002,-2 -2,-2 z M 20,40 c -1.108,0 -2,0.892 -2,2 v 4 c 0,1.107998 0.892,2 2,2 h 24 c 1.107998,0 2,-0.892002 2,-2 v -4 c 0,-1.108 -0.892002,-2 -2,-2 z"
     style="fill:#afafaf;fill-opacity:1;stroke-width:2;stroke-linecap:round;stroke-linejoin:round"
     id="path1728" />
  <path
     id="path1695"
     style="opacity:0.2;fill:#000000;fill-opacity:0.961371;stroke-width:2;stroke-linecap:round;stroke-linejoin:round"
     d="M 12 16 C 10.892003 16 10 16.892003 10 18 L 10 19 C 10 17.892003 10.892003 17 12 17 L 16 17 C 17.107997 17 18 17.892003 18 19 L 18 18 C 18 16.892003 17.107997 16 16 16 L 12 16 z M 24 16 C 22.892005 16 22 16.892003 22 18 L 22 19 C 22 17.892003 22.892005 17 24 17 L 28 17 C 29.107997 17 30 17.892003 30 19 L 30 18 C 30 16.892003 29.107997 16 28 16 L 24 16 z M 36 16 C 34.892003 16 34 16.892003 34 18 L 34 19 C 34 17.892003 34.892003 17 36 17 L 40 17 C 41.107995 17 42 17.892003 42 19 L 42 18 C 42 16.892003 41.107995 16 40 16 L 36 16 z M 48 16 C 46.892003 16 46 16.892003 46 18 L 46 19 C 46 17.892003 46.892003 17 48 17 L 52 17 C 53.107995 17 54 17.892003 54 19 L 54 18 C 54 16.892003 53.107995 16 52 16 L 48 16 z M 12 28 C 10.892003 28 10 28.892003 10 30 L 10 31 C 10 29.892003 10.892003 29 12 29 L 16 29 C 17.107997 29 18 29.892003 18 31 L 18 30 C 18 28.892003 17.107997 28 16 28 L 12 28 z M 24 28 C 22.892005 28 22 28.892003 22 30 L 22 31 C 22 29.892003 22.892005 29 24 29 L 28 29 C 29.107997 29 30 29.892003 30 31 L 30 30 C 30 28.892003 29.107997 28 28 28 L 24 28 z M 36 28 C 34.892003 28 34 28.892003 34 30 L 34 31 C 34 29.892003 34.892003 29 36 29 L 40 29 C 41.107995 29 42 29.892003 42 31 L 42 30 C 42 28.892003 41.107995 28 40 28 L 36 28 z M 48 28 C 46.892003 28 46 28.892003 46 30 L 46 31 C 46 29.892003 46.892003 29 48 29 L 52 29 C 53.107995 29 54 29.892003 54 31 L 54 30 C 54 28.892003 53.107995 28 52 28 L 48 28 z M 20 40 C 18.892003 40 18 40.892005 18 42 L 18 43 C 18 41.892005 18.892003 41 20 41 L 44 41 C 45.107995 41 46 41.892005 46 43 L 46 42 C 46 40.892005 45.107995 40 44 40 L 20 40 z " />
  <path
     id="rect2630"
     style="opacity:0.3;fill:#ffffff;fill-opacity:1"
     d="M 14,5 C 9.014005,5 5,9.014005 5,14 v 1 C 5,10.014005 9.014005,6 14,6 h 36 c 4.985995,0 9,4.014005 9,9 V 14 C 59,9.014005 54.985995,5 50,5 Z" />
  <path
     id="rect899"
     style="fill:#000000;stroke:none;opacity:0.6"
     d="M 14,4 C 8.4600055,4 4,8.4600055 4,14 v 36 c 0,5.539994 4.4600055,10 10,10 h 36 c 5.539994,0 10,-4.460006 10,-10 V 14 C 60,8.4600055 55.539994,4 50,4 Z m 0,1 h 36 c 4.985995,0 9,4.014005 9,9 v 36 c 0,4.985995 -4.014005,9 -9,9 H 14 C 9.014005,59 5,54.985995 5,50 V 14 C 5,9.014005 9.014005,5 14,5 Z" />
  <path
     id="rect398"
     style="opacity:0.3;fill:#ffffff"
     d="M 5 49 L 5 50 C 5 54.985995 9.014005 59 14 59 L 50 59 C 54.985995 59 59 54.985995 59 50 L 59 49 C 59 53.985995 54.985995 58 50 58 L 14 58 C 9.014005 58 5 53.985995 5 49 z " />
</svg>
