<?xml version="1.0" encoding="UTF-8" standalone="no"?>
<!-- Created with Inkscape (http://www.inkscape.org/) -->

<svg
   width="64"
   height="64"
   viewBox="0 0 64 64.000003"
   version="1.1"
   id="svg5"
   sodipodi:docname="preferences-system.svg"
   inkscape:version="1.2.1 (9c6d41e410, 2022-07-14)"
   xmlns:inkscape="http://www.inkscape.org/namespaces/inkscape"
   xmlns:sodipodi="http://sodipodi.sourceforge.net/DTD/sodipodi-0.dtd"
   xmlns:xlink="http://www.w3.org/1999/xlink"
   xmlns="http://www.w3.org/2000/svg"
   xmlns:svg="http://www.w3.org/2000/svg">
  <sodipodi:namedview
     id="namedview7"
     pagecolor="#ffffff"
     bordercolor="#666666"
     borderopacity="1.0"
     inkscape:showpageshadow="2"
     inkscape:pageopacity="0.0"
     inkscape:pagecheckerboard="0"
     inkscape:deskcolor="#d1d1d1"
     inkscape:document-units="px"
     showgrid="false"
     inkscape:zoom="12.125"
     inkscape:cx="32.041237"
     inkscape:cy="32"
     inkscape:window-width="1920"
     inkscape:window-height="1002"
     inkscape:window-x="0"
     inkscape:window-y="0"
     inkscape:window-maximized="1"
     inkscape:current-layer="svg5" />
  <defs
     id="defs2">
    <linearGradient
       inkscape:collect="always"
       id="linearGradient2739">
      <stop
         style="stop-color:#8a8a8a;stop-opacity:1;"
         offset="0"
         id="stop2735" />
      <stop
         style="stop-color:#c0c0c0;stop-opacity:1;"
         offset="1"
         id="stop2737" />
    </linearGradient>
    <linearGradient
       inkscape:collect="always"
       xlink:href="#linearGradient2739"
       id="linearGradient3525"
       x1="50"
       y1="60"
       x2="14"
       y2="4"
       gradientUnits="userSpaceOnUse" />
  </defs>
  <rect
     style="fill:url(#linearGradient3525);fill-opacity:1.0;stroke:none"
     id="rect184"
     width="55"
     height="55"
     x="4.5"
     y="4.5"
     ry="9.5" />
  <path
     d="m 44.57778,17.77974 c 0,0 -0.70671,0.32041 -2.3295,1.66908 -1.98458,1.6488 -3.21357,1.51588 -4.66547,1.27247 l -0.0114,0.0114 C 37.29483,20.6064 37.01522,20.48811 36.73152,20.38197 v -0.0114 C 35.53257,19.51668 34.56994,18.74063 34.33245,16.17137 34.13816,14.07119 33.86546,13.34379 33.86546,13.34379 33.07429,12.9999 31.999,13.00001 31.999,13.00001 c 0,0 -1.07558,1.1e-4 -1.86615,0.34407 0,0 -0.27344,0.72679 -0.46721,2.82735 -0.23744,2.56914 -1.20062,3.34488 -2.39908,4.19919 l -0.002,0.0143 c -0.28344,0.106 -0.56225,0.22458 -0.83983,0.3507 l -0.0114,-0.0114 c -1.45179,0.24372 -2.68123,0.37587 -4.6659,-1.27279 -1.62219,-1.34784 -2.32939,-1.66908 -2.32939,-1.66908 -0.80077,0.3145 -1.56093,1.07466 -1.56093,1.07466 0,0 -0.76051,0.76051 -1.07627,1.563 0,0 0.32113,0.70739 1.66891,2.32953 1.64877,1.98455 1.51608,3.21451 1.27285,4.66584 l 0.0114,0.0114 c -0.12572,0.27687 -0.24458,0.55627 -0.35107,0.83954 h -0.0114 c -0.85366,1.19915 -1.62977,2.16179 -4.19883,2.39954 -2.10012,0.194 -2.828,0.46761 -2.828,0.46761 -0.34364,0.79146 -0.3437,1.86521 -0.3437,1.86521 0,0 5.7e-4,1.076061 0.34427,1.866511 0,0 0.72662,0.27373 2.82715,0.46688 2.569,0.23772 3.34385,1.20155 4.19876,2.39953 h 0.0114 c 0.10629,0.28373 0.22487,0.56274 0.35062,0.83997 l -0.0114,0.0114 c 0.24429,1.45171 0.37621,2.68095 -1.27239,4.66541 -1.34778,1.62254 -1.66911,2.33082 -1.66911,2.33082 0.31693,0.80243 1.07632,1.56182 1.07632,1.56182 0,0 0.76077,0.7608 1.56299,1.0763 0,0 0.70714,-0.32007 2.32925,-1.66877 1.98473,-1.64854 3.21434,-1.51499 4.66581,-1.27267 l 0.0114,-0.0114 c 0.27773,0.12601 0.55636,0.24487 0.83997,0.35064 l -0.002,0.0143 c 1.1993,0.85382 2.16176,1.62976 2.39954,4.19874 0.194,2.10024 0.46741,2.82834 0.46741,2.82834 0.79152,0.34302 1.86552,0.34353 1.86552,0.34353 0,0 1.07607,-2.9e-4 1.86621,-0.3447 0,0 0.27372,-0.72593 0.46716,-2.82683 0.23772,-2.56897 1.20189,-3.34417 2.39924,-4.19894 l -0.002,-0.0143 c 0.28344,-0.106 0.56251,-0.22515 0.83989,-0.35075 l 0.0114,0.0114 c 1.45165,-0.2443 2.68083,-0.37613 4.6655,1.27255 1.62219,1.34782 2.33039,1.66932 2.33039,1.66932 0.80257,-0.31724 1.56205,-1.0767 1.56205,-1.0767 0,0 0.76076,-0.76076 1.07635,-1.56308 0,0 -0.3201,-0.70719 -1.66909,-2.32939 -1.64876,-1.98455 -1.51513,-3.21433 -1.27247,-4.66555 l -0.0114,-0.0114 c 0.12601,-0.27772 0.24487,-0.55636 0.3507,-0.83983 h 0.0171 c 0.85383,-1.19895 1.62986,-2.16155 4.19894,-2.39933 2.10041,-0.19401 2.82857,-0.46753 2.82857,-0.46753 0.3429,-0.79152 0.34299,-1.865721 0.34299,-1.865721 0,0 -1.8e-4,-1.07558 -0.34382,-1.86646 0,0 -0.7269,-0.27344 -2.82754,-0.46699 -2.56922,-0.23744 -3.34451,-1.20067 -4.19923,-2.39908 h -0.0114 c -0.106,-0.28344 -0.22402,-0.5627 -0.35073,-0.83985 l 0.0114,-0.0114 c -0.24372,-1.45119 -0.37628,-2.68083 1.27239,-4.66553 1.34784,-1.62219 1.66965,-2.33013 1.66965,-2.33013 -0.31667,-0.80226 -1.07683,-1.56243 -1.07683,-1.56243 0,0 -0.7608,-0.76073 -1.56311,-1.07632 z m -5.96525,21.833261 c -3.65306,3.65303 -9.57554,3.65309 -13.22861,6e-5 -3.65306,-3.65307 -3.653,-9.575551 6e-5,-13.228611 3.65298,-3.65298 9.57546,-3.65303 13.22852,3e-5 3.65306,3.65303 3.65301,9.575541 3e-5,13.228521 z"
     style="display:inline;opacity:0.2;fill:#000000;fill-opacity:1;stroke:none;enable-background:new"
     id="path1237" />
  <path
     d="m 44.57826,16.77973 c 0,0 -0.70671,0.32041 -2.3295,1.66908 -1.98458,1.6488 -3.21357,1.51588 -4.66547,1.27247 l -0.0114,0.0114 C 37.29531,19.60639 37.0157,19.4881 36.732,19.38196 v -0.0114 C 35.53305,18.51667 34.57042,17.74062 34.33293,15.17136 34.13864,13.07118 33.86594,12.34378 33.86594,12.34378 33.07477,11.99989 31.99948,12 31.99948,12 c 0,0 -1.07558,1.1e-4 -1.86615,0.34407 0,0 -0.27344,0.72679 -0.46721,2.82735 -0.23744,2.56914 -1.20062,3.34488 -2.39908,4.19919 l -0.002,0.0143 c -0.28344,0.106 -0.56225,0.22458 -0.83983,0.3507 l -0.0114,-0.0114 c -1.45179,0.24372 -2.68123,0.37587 -4.6659,-1.27279 -1.62219,-1.34784 -2.32939,-1.66908 -2.32939,-1.66908 -0.80077,0.3145 -1.56093,1.07466 -1.56093,1.07466 0,0 -0.76051,0.76051 -1.07627,1.563 0,0 0.32113,0.70739 1.66891,2.32953 1.64877,1.98455 1.51608,3.21451 1.27285,4.66584 l 0.0114,0.0114 c -0.12572,0.27687 -0.24458,0.55627 -0.35107,0.83954 h -0.0114 c -0.85366,1.19915 -1.62977,2.16179 -4.19883,2.39954 -2.10012,0.194 -2.828,0.46761 -2.828,0.46761 -0.34364,0.79146 -0.3437,1.86521 -0.3437,1.86521 0,0 5.7e-4,1.07606 0.34427,1.86651 0,0 0.72662,0.27373 2.82715,0.46688 2.569,0.23772 3.34385,1.20155 4.19876,2.39953 h 0.0114 c 0.10629,0.28373 0.22487,0.56274 0.35062,0.83997 l -0.0114,0.0114 c 0.24429,1.45171 0.37621,2.68095 -1.27239,4.66541 -1.34778,1.62254 -1.66911,2.33082 -1.66911,2.33082 0.31693,0.80243 1.07632,1.56182 1.07632,1.56182 0,0 0.76077,0.7608 1.56299,1.0763 0,0 0.70714,-0.32007 2.32925,-1.66877 1.98473,-1.64854 3.21434,-1.51499 4.66581,-1.27267 l 0.0114,-0.0114 c 0.27773,0.12601 0.55636,0.24487 0.83997,0.35064 l -0.002,0.0143 c 1.1993,0.85382 2.16176,1.62976 2.39954,4.19874 0.194,2.10024 0.46741,2.82834 0.46741,2.82834 0.79152,0.34302 1.86552,0.34353 1.86552,0.34353 0,0 1.07607,-2.9e-4 1.86621,-0.3447 0,0 0.27372,-0.72593 0.46716,-2.82683 0.23772,-2.56897 1.20189,-3.34417 2.39924,-4.19894 l -0.002,-0.0143 c 0.28344,-0.106 0.56251,-0.22515 0.83989,-0.35075 l 0.0114,0.0114 c 1.45165,-0.2443 2.68083,-0.37613 4.6655,1.27255 1.62219,1.34782 2.33039,1.66932 2.33039,1.66932 0.80257,-0.31724 1.56205,-1.0767 1.56205,-1.0767 0,0 0.76076,-0.76076 1.07635,-1.56308 0,0 -0.3201,-0.70719 -1.66909,-2.32939 -1.64876,-1.98455 -1.51513,-3.21433 -1.27247,-4.66555 l -0.0114,-0.0114 c 0.12601,-0.27772 0.24487,-0.55636 0.3507,-0.83983 h 0.0171 c 0.85383,-1.19895 1.62986,-2.16155 4.19894,-2.39933 2.10041,-0.19401 2.82857,-0.46753 2.82857,-0.46753 0.3429,-0.79152 0.34299,-1.86572 0.34299,-1.86572 0,0 -1.8e-4,-1.07558 -0.34382,-1.86646 0,0 -0.7269,-0.27344 -2.82754,-0.46699 -2.56922,-0.23744 -3.34451,-1.20067 -4.19923,-2.39908 h -0.0114 c -0.106,-0.28344 -0.22402,-0.5627 -0.35073,-0.83985 l 0.0114,-0.0114 c -0.24372,-1.45119 -0.37628,-2.68083 1.27239,-4.66553 1.34784,-1.62219 1.66965,-2.33013 1.66965,-2.33013 -0.31667,-0.80226 -1.07683,-1.56243 -1.07683,-1.56243 0,0 -0.7608,-0.76073 -1.56311,-1.07632 z m -5.96525,21.83326 c -3.65306,3.65303 -9.57554,3.65309 -13.22861,6e-5 -3.65306,-3.65307 -3.653,-9.57555 6e-5,-13.22861 3.65298,-3.65298 9.57546,-3.65303 13.22852,3e-5 3.65306,3.65303 3.65301,9.57554 3e-5,13.22852 z"
     style="display:inline;fill:#ffffff;fill-opacity:1;stroke:none;enable-background:new"
     id="path429"
     sodipodi:nodetypes="ccccccccccccccccccccccccccccccccccccccccccccccccccccccccccccccccccccccccccccscc" />
  <path
     id="rect2630"
     style="opacity:0.3;fill:#ffffff;fill-opacity:1"
     d="M 14,5 C 9.014005,5 5,9.014005 5,14 v 1 C 5,10.014005 9.014005,6 14,6 h 36 c 4.985995,0 9,4.014005 9,9 V 14 C 59,9.014005 54.985995,5 50,5 Z" />
  <path
     id="rect899"
     style="fill:#000000;stroke:none;opacity:0.6"
     d="M 14,4 C 8.4600055,4 4,8.4600055 4,14 v 36 c 0,5.539994 4.4600055,10 10,10 h 36 c 5.539994,0 10,-4.460006 10,-10 V 14 C 60,8.4600055 55.539994,4 50,4 Z m 0,1 h 36 c 4.985995,0 9,4.014005 9,9 v 36 c 0,4.985995 -4.014005,9 -9,9 H 14 C 9.014005,59 5,54.985995 5,50 V 14 C 5,9.014005 9.014005,5 14,5 Z" />
  <path
     id="rect398"
     style="opacity:0.3;fill:#ffffff"
     d="M 5 49 L 5 50 C 5 54.985995 9.014005 59 14 59 L 50 59 C 54.985995 59 59 54.985995 59 50 L 59 49 C 59 53.985995 54.985995 58 50 58 L 14 58 C 9.014005 58 5 53.985995 5 49 z " />
</svg>
