<?xml version="1.0" encoding="UTF-8" standalone="no"?>
<!-- Created with Inkscape (http://www.inkscape.org/) -->

<svg
   width="64"
   height="64"
   viewBox="0 0 64 64.000003"
   version="1.1"
   id="svg5"
   sodipodi:docname="preferences-desktop-screensaver.svg"
   inkscape:version="1.3.2 (091e20ef0f, 2023-11-25, custom)"
   xmlns:inkscape="http://www.inkscape.org/namespaces/inkscape"
   xmlns:sodipodi="http://sodipodi.sourceforge.net/DTD/sodipodi-0.dtd"
   xmlns:xlink="http://www.w3.org/1999/xlink"
   xmlns="http://www.w3.org/2000/svg"
   xmlns:svg="http://www.w3.org/2000/svg">
  <sodipodi:namedview
     id="namedview7"
     pagecolor="#ffffff"
     bordercolor="#666666"
     borderopacity="1.0"
     inkscape:showpageshadow="2"
     inkscape:pageopacity="0.0"
     inkscape:pagecheckerboard="0"
     inkscape:deskcolor="#d1d1d1"
     inkscape:document-units="px"
     showgrid="false"
     inkscape:zoom="12.90625"
     inkscape:cx="32"
     inkscape:cy="32"
     inkscape:window-width="1920"
     inkscape:window-height="1011"
     inkscape:window-x="0"
     inkscape:window-y="0"
     inkscape:window-maximized="1"
     inkscape:current-layer="svg5" />
  <defs
     id="defs2">
    <linearGradient
       inkscape:collect="always"
       xlink:href="#linearGradient2"
       id="linearGradient6610"
       x1="32"
       y1="60"
       x2="32"
       y2="4"
       gradientUnits="userSpaceOnUse" />
    <linearGradient
       inkscape:collect="always"
       id="linearGradient2">
      <stop
         style="stop-color:#4b315a;stop-opacity:1;"
         offset="0"
         id="stop1" />
      <stop
         style="stop-color:#68487d;stop-opacity:1;"
         offset="1"
         id="stop2" />
    </linearGradient>
  </defs>
  <rect
     style="fill:url(#linearGradient6610);fill-opacity:1;stroke:none"
     id="rect184"
     width="55"
     height="55"
     x="4.5"
     y="4.5"
     ry="9.5" />
  <path
     d="m 31.28114,13 c -7.9036,0.290194 -15.18682,5.16244 -18.05844,13.052134 -3.7826,10.39262 1.49732,21.964064 11.88996,25.746684 7.88968,2.87158 16.42112,0.41468 21.72376,-5.4533 -3.79844,1.22612 -8.02754,1.29206 -12.06876,-0.1788 C 25.11734,42.654306 20.16986,31.947694 23.68228,22.297414 25.15316,18.256188 27.90028,15.12164 31.28114,13 Z m 12.15816,0.864188 -0.80832,3.006006 -3.00602,0.808314 3.00602,0.808312 0.80832,3.006006 0.8083,-3.006006 3.006,-0.808312 -3.006,-0.808314 z m -9.53582,5.661878 -0.60716,2.25358 -2.25358,0.607168 2.25358,0.60716 0.60716,2.25358 0.60716,-2.25358 2.25358,-0.60716 -2.25358,-0.607168 z m 11.44296,5.781088 -0.40416,1.503 -1.503,0.40416 1.503,0.404152 0.40416,1.503008 0.40418,-1.503008 1.50298,-0.404152 -1.50298,-0.40416 z m -2.86074,9.535806 -0.60716,2.253572 -2.25358,0.607168 2.25358,0.60716 0.60716,2.25358 0.60716,-2.25358 2.25358,-0.60716 -2.25358,-0.607168 z"
     style="color:#bebebe;display:inline;overflow:visible;visibility:visible;opacity:0.2;fill:#000000;fill-opacity:1;fill-rule:nonzero;stroke:none;stroke-width:2;marker:none;enable-background:accumulate"
     id="path1" />
  <path
     d="m 31.281152,12 c -7.9036,0.290194 -15.18682,5.16244 -18.05844,13.052134 -3.7826,10.39262 1.49732,21.964064 11.88996,25.746684 7.88968,2.87158 16.42112,0.41468 21.72376,-5.4533 -3.79844,1.22612 -8.02754,1.29206 -12.06876,-0.1788 -9.65032,-3.512412 -14.5978,-14.219024 -11.08538,-23.869304 1.47088,-4.041226 4.218,-7.175774 7.59886,-9.297414 z m 12.15816,0.864188 -0.80832,3.006006 -3.00602,0.808314 3.00602,0.808312 0.80832,3.006006 0.8083,-3.006006 3.006,-0.808312 -3.006,-0.808314 z m -9.53582,5.661878 -0.60716,2.25358 -2.25358,0.607168 2.25358,0.60716 0.60716,2.25358 0.60716,-2.25358 2.25358,-0.60716 -2.25358,-0.607168 z m 11.44296,5.781088 -0.40416,1.503 -1.503,0.40416 1.503,0.404152 0.40416,1.503008 0.40418,-1.503008 1.50298,-0.404152 -1.50298,-0.40416 z m -2.86074,9.535806 -0.60716,2.253572 -2.25358,0.607168 2.25358,0.60716 0.60716,2.25358 0.60716,-2.25358 2.25358,-0.60716 -2.25358,-0.607168 z"
     style="color:#bebebe;display:inline;overflow:visible;visibility:visible;fill:#ffffff;fill-opacity:1;fill-rule:nonzero;stroke:none;stroke-width:2;marker:none;enable-background:accumulate"
     id="path1-6" />
  <path
     id="rect2630"
     style="opacity:0.1;fill:#ffffff;fill-opacity:1"
     d="M 14,5 C 9.014005,5 5,9.014005 5,14 v 1 C 5,10.014005 9.014005,6 14,6 h 36 c 4.985995,0 9,4.014005 9,9 V 14 C 59,9.014005 54.985995,5 50,5 Z" />
  <path
     id="rect899"
     style="fill:#000000;stroke:none;opacity:0.5"
     d="M 14,4 C 8.4600055,4 4,8.4600055 4,14 v 36 c 0,5.539994 4.4600055,10 10,10 h 36 c 5.539994,0 10,-4.460006 10,-10 V 14 C 60,8.4600055 55.539994,4 50,4 Z m 0,1 h 36 c 4.985995,0 9,4.014005 9,9 v 36 c 0,4.985995 -4.014005,9 -9,9 H 14 C 9.014005,59 5,54.985995 5,50 V 14 C 5,9.014005 9.014005,5 14,5 Z" />
  <path
     id="rect398"
     style="opacity:0.1;fill:#ffffff"
     d="M 5 49 L 5 50 C 5 54.985995 9.014005 59 14 59 L 50 59 C 54.985995 59 59 54.985995 59 50 L 59 49 C 59 53.985995 54.985995 58 50 58 L 14 58 C 9.014005 58 5 53.985995 5 49 z " />
</svg>
