<?xml version="1.0" encoding="UTF-8" standalone="no"?>
<!-- Created with Inkscape (http://www.inkscape.org/) -->

<svg
   width="64"
   height="64"
   viewBox="0 0 64 64.000003"
   version="1.1"
   id="svg5"
   sodipodi:docname="preferences-desktop-theme-global.svg"
   inkscape:version="1.2.1 (9c6d41e410, 2022-07-14)"
   xmlns:inkscape="http://www.inkscape.org/namespaces/inkscape"
   xmlns:sodipodi="http://sodipodi.sourceforge.net/DTD/sodipodi-0.dtd"
   xmlns:xlink="http://www.w3.org/1999/xlink"
   xmlns="http://www.w3.org/2000/svg"
   xmlns:svg="http://www.w3.org/2000/svg">
  <sodipodi:namedview
     id="namedview7"
     pagecolor="#ffffff"
     bordercolor="#666666"
     borderopacity="1.0"
     inkscape:showpageshadow="2"
     inkscape:pageopacity="0.0"
     inkscape:pagecheckerboard="0"
     inkscape:deskcolor="#d1d1d1"
     inkscape:document-units="px"
     showgrid="false"
     inkscape:zoom="14.107143"
     inkscape:cx="32.005063"
     inkscape:cy="31.96962"
     inkscape:window-width="1920"
     inkscape:window-height="1002"
     inkscape:window-x="0"
     inkscape:window-y="0"
     inkscape:window-maximized="1"
     inkscape:current-layer="svg5"
     showguides="false" />
  <defs
     id="defs2">
    <linearGradient
       inkscape:collect="always"
       id="linearGradient1603">
      <stop
         style="stop-color:#ff910c;stop-opacity:1;"
         offset="0"
         id="stop1599" />
      <stop
         style="stop-color:#ff910c;stop-opacity:0;"
         offset="1"
         id="stop1601" />
    </linearGradient>
    <linearGradient
       inkscape:collect="always"
       id="linearGradient3954">
      <stop
         style="stop-color:#24c2f5;stop-opacity:1;"
         offset="0"
         id="stop3950" />
      <stop
         style="stop-color:#24c2f5;stop-opacity:0;"
         offset="1"
         id="stop3952" />
    </linearGradient>
    <linearGradient
       inkscape:collect="always"
       id="linearGradient5569">
      <stop
         style="stop-color:#f5cc24;stop-opacity:1;"
         offset="0"
         id="stop5565" />
      <stop
         style="stop-color:#f5cc24;stop-opacity:0.00045133"
         offset="1"
         id="stop5567" />
    </linearGradient>
    <linearGradient
       inkscape:collect="always"
       id="linearGradient7221">
      <stop
         style="stop-color:#ff2a2a;stop-opacity:1"
         offset="0"
         id="stop7217" />
      <stop
         style="stop-color:#ff2929;stop-opacity:0.00392157"
         offset="1"
         id="stop7219" />
    </linearGradient>
    <linearGradient
       inkscape:collect="always"
       id="linearGradient10051">
      <stop
         style="stop-color:#aa3ad4;stop-opacity:1"
         offset="0"
         id="stop10047" />
      <stop
         style="stop-color:#aa3ad4;stop-opacity:0"
         offset="1"
         id="stop10049" />
    </linearGradient>
    <linearGradient
       inkscape:collect="always"
       id="linearGradient15132">
      <stop
         style="stop-color:#f5e224;stop-opacity:1;"
         offset="0"
         id="stop15128" />
      <stop
         style="stop-color:#f5e224;stop-opacity:0;"
         offset="1"
         id="stop15130" />
    </linearGradient>
    <linearGradient
       inkscape:collect="always"
       id="linearGradient12059">
      <stop
         style="stop-color:#47c12a;stop-opacity:1;"
         offset="0"
         id="stop12055" />
      <stop
         style="stop-color:#47c12a;stop-opacity:0;"
         offset="1"
         id="stop12057" />
    </linearGradient>
    <radialGradient
       inkscape:collect="always"
       xlink:href="#linearGradient12059"
       id="radialGradient11234"
       cx="32"
       cy="60"
       fx="32"
       fy="60"
       r="27.5"
       gradientUnits="userSpaceOnUse"
       gradientTransform="matrix(1.0181818,0,0,1,-0.58181909,5.8636475e-7)" />
    <radialGradient
       inkscape:collect="always"
       xlink:href="#linearGradient15132"
       id="radialGradient11244"
       cx="45.75"
       cy="51.798988"
       fx="45.75"
       fy="51.798988"
       r="27.5"
       gradientUnits="userSpaceOnUse"
       gradientTransform="matrix(-6.1823087e-8,1.0181818,-1.0181817,-1.7788152e-7,56.740781,-14.581808)" />
    <radialGradient
       inkscape:collect="always"
       xlink:href="#linearGradient10051"
       id="radialGradient11378"
       cx="6.5505433"
       cy="56.244072"
       fx="6.5505433"
       fy="56.244072"
       r="27.5"
       gradientUnits="userSpaceOnUse"
       gradientTransform="matrix(-0.71937005,-0.69371394,0.90528046,-0.93876128,11.245067,64.659071)" />
    <radialGradient
       inkscape:collect="always"
       xlink:href="#linearGradient7221"
       id="radialGradient11388"
       cx="32"
       cy="60"
       fx="32"
       fy="60"
       r="27.5"
       gradientUnits="userSpaceOnUse"
       gradientTransform="matrix(-1.0181818,0,0,-1,64.581811,63.999999)" />
    <radialGradient
       inkscape:collect="always"
       xlink:href="#linearGradient5569"
       id="radialGradient11396"
       cx="8.0326223"
       cy="59.247375"
       fx="8.0326223"
       fy="59.247375"
       r="27.5"
       gradientUnits="userSpaceOnUse"
       gradientTransform="matrix(0.91932105,-0.93120457,1.0887824,1.0748879,-64.735503,1.0997696)" />
    <radialGradient
       inkscape:collect="always"
       xlink:href="#linearGradient3954"
       id="radialGradient11404"
       cx="57.208611"
       cy="56.943909"
       fx="57.208611"
       fy="56.943909"
       r="27.5"
       gradientUnits="userSpaceOnUse"
       gradientTransform="matrix(0.97162687,-1.0195375,0.92478702,0.88132891,-51.037793,65.083916)" />
    <radialGradient
       inkscape:collect="always"
       xlink:href="#linearGradient1603"
       id="radialGradient11414"
       cx="-1.675118"
       cy="11.872787"
       fx="-1.675118"
       fy="11.872787"
       r="27.5"
       gradientUnits="userSpaceOnUse"
       gradientTransform="matrix(-0.82383245,0.83346436,-1.0037872,-0.99218742,17.138152,20.436147)" />
  </defs>
  <rect
     style="fill:#ffffff;fill-opacity:1;stroke:none"
     id="rect184"
     width="55"
     height="55"
     x="4.5"
     y="4.5"
     ry="9.5" />
  <rect
     style="opacity:1;fill:url(#radialGradient11414);fill-opacity:1;stroke-linejoin:round"
     id="rect10562"
     width="55"
     height="55"
     x="4.5"
     y="4.499999"
     ry="9.5" />
  <rect
     style="opacity:1;fill:url(#radialGradient11404);fill-opacity:1;stroke-linejoin:round"
     id="rect10564"
     width="55"
     height="55"
     x="4.5"
     y="4.499999"
     ry="9.5" />
  <rect
     style="opacity:1;fill:url(#radialGradient11396);fill-opacity:1;stroke-linejoin:round"
     id="rect10566"
     width="55"
     height="55"
     x="4.5"
     y="4.499999"
     ry="9.5" />
  <rect
     style="opacity:1;fill:url(#radialGradient11388);fill-opacity:1;stroke-linejoin:round"
     id="rect10568"
     width="55"
     height="55"
     x="4.5"
     y="4.499999"
     ry="9.5" />
  <rect
     style="opacity:1;fill:url(#radialGradient11378);fill-opacity:1;stroke-linejoin:round"
     id="rect10570"
     width="55"
     height="55"
     x="4.5"
     y="4.5"
     ry="9.5" />
  <rect
     style="opacity:1;fill:url(#radialGradient11244);fill-opacity:1;stroke-linejoin:round"
     id="rect10572"
     width="55"
     height="55"
     x="4.5"
     y="4.5"
     ry="9.5"
     inkscape:label="rect10572" />
  <rect
     style="opacity:1;fill:url(#radialGradient11234);fill-opacity:1;stroke-linejoin:round"
     id="rect10574"
     width="55"
     height="55"
     x="4.5"
     y="4.499999"
     ry="9.5" />
  <rect
     style="opacity:0.2;fill:#ffffff;stroke-width:0.927025;stroke-linejoin:round"
     id="rect581"
     width="55"
     height="1"
     x="4.4999995"
     y="45" />
  <path
     id="rect348"
     style="fill:#3b3b3b;fill-opacity:1;stroke-linejoin:round"
     d="M 14,59.5 C 8.737005,59.5 4.5,55.262995 4.5,50 v -4 h 55 v 4 c 0,5.262995 -4.237005,9.5 -9.5,9.5 z"
     sodipodi:nodetypes="ssccsss" />
  <path
     d="m 45.148022,13.013212 c -2.108112,-0.265738 -7.607364,3.503728 -13.027143,8.925645 -2.416902,2.418362 -4.514467,4.808226 -6.121001,7.062393 1.882883,0.59989 3.400363,2.116368 3.999939,3.99994 2.253308,-1.606999 4.648596,-3.695428 7.066298,-6.113191 6.148951,-6.151504 10.025965,-12.245494 8.660025,-13.613073 -0.140404,-0.1414 -0.331944,-0.230138 -0.578118,-0.261714 z M 24.999894,31.661366 v 0.004 C 18.000378,33.541766 23.249628,37.974158 18,41.00111 c 6.999516,0 10.499841,-3.503591 10.499841,-5.839752 0,-1.164542 0.118704,-3.306148 -3.499947,-3.499946 z"
     style="color:#444444;opacity:0.2;fill:#000000;stroke-width:1.99996"
     id="path11335" />
  <path
     d="m 45.148022,12.013212 c -2.108112,-0.265738 -7.607364,3.503728 -13.027143,8.925645 -2.416902,2.418362 -4.514467,4.808226 -6.121001,7.062392 1.882883,0.59989 3.400363,2.116368 3.999939,3.99994 2.253308,-1.606998 4.648596,-3.695428 7.066298,-6.11319 6.148951,-6.151504 10.025965,-12.245494 8.660025,-13.613073 -0.140404,-0.1414 -0.331944,-0.230138 -0.578118,-0.261714 z M 24.999894,30.661365 v 0.004 C 18.000378,32.541765 23.249628,36.974157 18,40.00111 c 6.999516,0 10.499841,-3.503591 10.499841,-5.839753 0,-1.164542 0.118704,-3.306148 -3.499947,-3.499946 z"
     style="color:#444444;fill:#ffffff;stroke-width:1.99996"
     id="path347"
     sodipodi:nodetypes="ccccccccccscc" />
  <path
     id="rect2630"
     style="opacity:0.3;fill:#ffffff;fill-opacity:1"
     d="M 14,5 C 9.014005,5 5,9.014005 5,14 v 1 C 5,10.014005 9.014005,6 14,6 h 36 c 4.985995,0 9,4.014005 9,9 V 14 C 59,9.014005 54.985995,5 50,5 Z" />
  <path
     id="rect899"
     style="fill:#000000;stroke:none;opacity:0.6"
     d="M 14,4 C 8.4600055,4 4,8.4600055 4,14 v 36 c 0,5.539994 4.4600055,10 10,10 h 36 c 5.539994,0 10,-4.460006 10,-10 V 14 C 60,8.4600055 55.539994,4 50,4 Z m 0,1 h 36 c 4.985995,0 9,4.014005 9,9 v 36 c 0,4.985995 -4.014005,9 -9,9 H 14 C 9.014005,59 5,54.985995 5,50 V 14 C 5,9.014005 9.014005,5 14,5 Z" />
  <path
     id="rect398"
     style="opacity:0.3;fill:#ffffff"
     d="M 5 49 L 5 50 C 5 54.985995 9.014005 59 14 59 L 50 59 C 54.985995 59 59 54.985995 59 50 L 59 49 C 59 53.985995 54.985995 58 50 58 L 14 58 C 9.014005 58 5 53.985995 5 49 z " />
</svg>
