<?xml version="1.0" encoding="UTF-8" standalone="no"?>
<!-- Created with Inkscape (http://www.inkscape.org/) -->

<svg
   width="64"
   height="64"
   viewBox="0 0 64 64.000003"
   version="1.1"
   id="svg5"
   sodipodi:docname="preferences-desktop-theme-windowdecorations.svg"
   inkscape:version="1.2.1 (9c6d41e410, 2022-07-14)"
   xmlns:inkscape="http://www.inkscape.org/namespaces/inkscape"
   xmlns:sodipodi="http://sodipodi.sourceforge.net/DTD/sodipodi-0.dtd"
   xmlns:xlink="http://www.w3.org/1999/xlink"
   xmlns="http://www.w3.org/2000/svg"
   xmlns:svg="http://www.w3.org/2000/svg">
  <sodipodi:namedview
     id="namedview7"
     pagecolor="#ffffff"
     bordercolor="#666666"
     borderopacity="1.0"
     inkscape:showpageshadow="2"
     inkscape:pageopacity="0.0"
     inkscape:pagecheckerboard="0"
     inkscape:deskcolor="#d1d1d1"
     inkscape:document-units="px"
     showgrid="false"
     inkscape:zoom="12.421875"
     inkscape:cx="32.080503"
     inkscape:cy="32"
     inkscape:window-width="1920"
     inkscape:window-height="1007"
     inkscape:window-x="0"
     inkscape:window-y="0"
     inkscape:window-maximized="1"
     inkscape:current-layer="svg5"
     showguides="true" />
  <defs
     id="defs2">
    <linearGradient
       inkscape:collect="always"
       xlink:href="#linearGradient22024"
       id="linearGradient3525"
       x1="32"
       y1="60"
       x2="32"
       y2="18"
       gradientUnits="userSpaceOnUse" />
    <linearGradient
       inkscape:collect="always"
       id="linearGradient22024">
      <stop
         style="stop-color:#dedede;stop-opacity:1;"
         offset="0"
         id="stop22020" />
      <stop
         style="stop-color:#f2f2f2;stop-opacity:1;"
         offset="1"
         id="stop22022" />
    </linearGradient>
  </defs>
  <rect
     style="fill:url(#linearGradient3525);fill-opacity:1;stroke:none"
     id="rect184"
     width="55"
     height="55"
     x="4.5"
     y="4.5"
     ry="9.5" />
  <path
     d="m 45.148023,25.01321 c -2.108112,-0.265736 -7.607365,3.503729 -13.027145,8.925646 -2.4169,2.418362 -4.514465,4.808226 -6.121,7.062394 1.882883,0.599889 3.400363,2.116367 3.99994,3.99994 2.253308,-1.607 4.648596,-3.695429 7.066297,-6.113192 6.148951,-6.151504 10.025965,-12.245494 8.660025,-13.613073 -0.140404,-0.1414 -0.331945,-0.230138 -0.578117,-0.261715 z M 24.999894,43.661365 v 0.004 C 18.000379,45.541741 23.249628,49.974134 18,53.001086 c 6.999516,0 10.499841,-3.503592 10.499841,-5.839753 0,-1.164542 0.118704,-3.306148 -3.499947,-3.499946 z"
     style="color:#444444;opacity:0.5;fill:#ffffff;stroke-width:1.99996"
     id="path11335" />
  <path
     d="m 45.148022,24.013211 c -2.108112,-0.265738 -7.607364,3.503728 -13.027143,8.925645 -2.416902,2.418362 -4.514467,4.808226 -6.121001,7.062392 1.882883,0.59989 3.400363,2.116368 3.999939,3.99994 2.253308,-1.606998 4.648596,-3.695428 7.066298,-6.11319 6.148951,-6.151504 10.025965,-12.245494 8.660025,-13.613073 -0.140404,-0.1414 -0.331944,-0.230138 -0.578118,-0.261714 z M 24.999894,42.661364 v 0.004 C 18.000378,44.541739 23.249628,48.974131 18,52.001084 c 6.999516,0 10.499841,-3.503591 10.499841,-5.839753 0,-1.164542 0.118704,-3.306148 -3.499947,-3.499946 z"
     style="color:#444444;fill:#4d4d4d;stroke-width:1.99996;fill-opacity:1"
     id="path347"
     sodipodi:nodetypes="ccccccccccscc" />
  <path
     id="rect348"
     style="opacity:1;fill:#6a747d;fill-opacity:1;stroke-linejoin:round"
     d="M 14,4.5 C 8.7370053,4.5 4.5,8.7370053 4.5,14 v 5 h 55 V 14 C 59.5,8.7370053 55.262995,4.5 50,4.5 Z"
     sodipodi:nodetypes="ssccsss" />
  <path
     id="path294"
     style="opacity:0.2;fill:#000000;stroke-width:2.25;stroke-linecap:round;stroke-linejoin:round"
     d="m 35,10 a 3,3 0 0 0 -3,3 3,3 0 0 0 3,3 3,3 0 0 0 3,-3 3,3 0 0 0 -3,-3 z m 9,0 a 3,3 0 0 0 -3,3 3,3 0 0 0 3,3 3,3 0 0 0 3,-3 3,3 0 0 0 -3,-3 z m 9,0 a 3,3 0 0 0 -3,3 3,3 0 0 0 3,3 3,3 0 0 0 3,-3 3,3 0 0 0 -3,-3 z" />
  <path
     id="path354"
     style="fill:#ffffff;stroke-width:3;stroke-linecap:round;stroke-linejoin:round"
     d="m 35,9 a 3,3 0 0 0 -3,3 3,3 0 0 0 3,3 3,3 0 0 0 3,-3 3,3 0 0 0 -3,-3 z m 9,0 a 3,3 0 0 0 -3,3 3,3 0 0 0 3,3 3,3 0 0 0 3,-3 3,3 0 0 0 -3,-3 z m 9,0 a 3,3 0 0 0 -3,3 3,3 0 0 0 3,3 3,3 0 0 0 3,-3 3,3 0 0 0 -3,-3 z" />
  <rect
     style="opacity:0.2;fill:#000000;stroke-width:0.927025;stroke-linejoin:round"
     id="rect581"
     width="55"
     height="1"
     x="4.5"
     y="18" />
  <path
     id="rect2630"
     style="opacity:0.3;fill:#ffffff;fill-opacity:1"
     d="M 14,5 C 9.014005,5 5,9.014005 5,14 v 1 C 5,10.014005 9.014005,6 14,6 h 36 c 4.985995,0 9,4.014005 9,9 V 14 C 59,9.014005 54.985995,5 50,5 Z" />
  <path
     id="rect899"
     style="fill:#000000;stroke:none;opacity:0.6"
     d="M 14,4 C 8.4600055,4 4,8.4600055 4,14 v 36 c 0,5.539994 4.4600055,10 10,10 h 36 c 5.539994,0 10,-4.460006 10,-10 V 14 C 60,8.4600055 55.539994,4 50,4 Z m 0,1 h 36 c 4.985995,0 9,4.014005 9,9 v 36 c 0,4.985995 -4.014005,9 -9,9 H 14 C 9.014005,59 5,54.985995 5,50 V 14 C 5,9.014005 9.014005,5 14,5 Z" />
  <path
     id="rect398"
     style="opacity:0.3;fill:#ffffff"
     d="M 5 49 L 5 50 C 5 54.985995 9.014005 59 14 59 L 50 59 C 54.985995 59 59 54.985995 59 50 L 59 49 C 59 53.985995 54.985995 58 50 58 L 14 58 C 9.014005 58 5 53.985995 5 49 z " />
</svg>
