<?xml version="1.0" encoding="UTF-8" standalone="no"?>
<!-- Created with Inkscape (http://www.inkscape.org/) -->

<svg
   width="64"
   height="64"
   viewBox="0 0 64 64.000003"
   version="1.1"
   id="svg5"
   sodipodi:docname="shotwell.svg"
   inkscape:version="1.2.1 (9c6d41e410, 2022-07-14)"
   xmlns:inkscape="http://www.inkscape.org/namespaces/inkscape"
   xmlns:sodipodi="http://sodipodi.sourceforge.net/DTD/sodipodi-0.dtd"
   xmlns:xlink="http://www.w3.org/1999/xlink"
   xmlns="http://www.w3.org/2000/svg"
   xmlns:svg="http://www.w3.org/2000/svg">
  <sodipodi:namedview
     id="namedview7"
     pagecolor="#ffffff"
     bordercolor="#666666"
     borderopacity="1.0"
     inkscape:showpageshadow="2"
     inkscape:pageopacity="0.0"
     inkscape:pagecheckerboard="0"
     inkscape:deskcolor="#d1d1d1"
     inkscape:document-units="px"
     showgrid="false"
     inkscape:zoom="12.375"
     inkscape:cx="32"
     inkscape:cy="32"
     inkscape:window-width="1920"
     inkscape:window-height="1007"
     inkscape:window-x="0"
     inkscape:window-y="0"
     inkscape:window-maximized="1"
     inkscape:current-layer="svg5"
     showguides="true" />
  <defs
     id="defs2">
    <linearGradient
       inkscape:collect="always"
       xlink:href="#linearGradient4014"
       id="linearGradient3525"
       x1="32"
       y1="48"
       x2="32"
       y2="4"
       gradientUnits="userSpaceOnUse" />
    <linearGradient
       inkscape:collect="always"
       id="linearGradient4014">
      <stop
         style="stop-color:#2869b4;stop-opacity:1;"
         offset="0"
         id="stop4010" />
      <stop
         style="stop-color:#95caff;stop-opacity:1;"
         offset="1"
         id="stop4012" />
    </linearGradient>
  </defs>
  <rect
     style="fill:url(#linearGradient3525);fill-opacity:1.0;stroke:none"
     id="rect184"
     width="55"
     height="55"
     x="4.5"
     y="4.5"
     ry="9.5" />
  <path
     id="path2539"
     style="opacity:0.5;fill:#ffffff;stroke-width:6.66668;stroke-linecap:round;stroke-linejoin:round"
     d="M 26,36 A 10,10 0 0 0 16,46 H 36 A 10,10 0 0 0 26,36 Z" />
  <rect
     style="opacity:0.2;fill:#ffffff;stroke-width:0.927025;stroke-linejoin:round"
     id="rect581"
     width="55"
     height="1"
     x="4.5"
     y="45" />
  <path
     id="rect348"
     style="opacity:1;fill:#3b3b3b;fill-opacity:1;stroke-linejoin:round"
     d="M 20 15 L 28 22.84375 L 30 30.84375 L 18 25 L 12 29 L 14 29 L 18 27 L 30 36.84375 L 30 46 L 4.5 46 L 4.5 50 C 4.5 55.26299 8.7370106 59.5 14 59.5 L 50 59.5 C 55.26299 59.5 59.5 55.26299 59.5 50 L 59.5 46 L 36 46 L 36 36.84375 L 46 29 L 48 29 L 50 27 L 46 27 L 36 30.84375 L 30 20.84375 L 20 15 z " />
  <path
     id="path7424"
     style="opacity:0.2;fill:#ffffff;fill-opacity:1;stroke-width:2"
     d="m 20,15 2.40625,2.40625 7.59375,4.4375 6,10 L 46,28 h 3 l 1,-1 h -4 l -10,3.84375 -6,-10 z m -2,10 -6,4 h 1.5 L 18,26 30.285156,31.986328 30,30.84375 Z"
     sodipodi:nodetypes="cccccccccccccccccc" />
  <path
     id="rect2630"
     style="opacity:0.3;fill:#ffffff;fill-opacity:1"
     d="M 14,5 C 9.014005,5 5,9.014005 5,14 v 1 C 5,10.014005 9.014005,6 14,6 h 36 c 4.985995,0 9,4.014005 9,9 V 14 C 59,9.014005 54.985995,5 50,5 Z" />
  <path
     id="rect899"
     style="fill:#000000;stroke:none;opacity:0.6"
     d="M 14,4 C 8.4600055,4 4,8.4600055 4,14 v 36 c 0,5.539994 4.4600055,10 10,10 h 36 c 5.539994,0 10,-4.460006 10,-10 V 14 C 60,8.4600055 55.539994,4 50,4 Z m 0,1 h 36 c 4.985995,0 9,4.014005 9,9 v 36 c 0,4.985995 -4.014005,9 -9,9 H 14 C 9.014005,59 5,54.985995 5,50 V 14 C 5,9.014005 9.014005,5 14,5 Z" />
  <path
     id="rect398"
     style="opacity:0.3;fill:#ffffff"
     d="M 5 49 L 5 50 C 5 54.985995 9.014005 59 14 59 L 50 59 C 54.985995 59 59 54.985995 59 50 L 59 49 C 59 53.985995 54.985995 58 50 58 L 14 58 C 9.014005 58 5 53.985995 5 49 z " />
</svg>
