<?xml version="1.0" encoding="UTF-8" standalone="no"?>
<!-- Created with Inkscape (http://www.inkscape.org/) -->

<svg
   width="64"
   height="64"
   viewBox="0 0 64 64.000003"
   version="1.1"
   id="svg5"
   sodipodi:docname="skype.svg"
   inkscape:version="1.2.1 (9c6d41e410, 2022-07-14)"
   xmlns:inkscape="http://www.inkscape.org/namespaces/inkscape"
   xmlns:sodipodi="http://sodipodi.sourceforge.net/DTD/sodipodi-0.dtd"
   xmlns:xlink="http://www.w3.org/1999/xlink"
   xmlns="http://www.w3.org/2000/svg"
   xmlns:svg="http://www.w3.org/2000/svg">
  <sodipodi:namedview
     id="namedview7"
     pagecolor="#ffffff"
     bordercolor="#666666"
     borderopacity="1.0"
     inkscape:showpageshadow="2"
     inkscape:pageopacity="0.0"
     inkscape:pagecheckerboard="0"
     inkscape:deskcolor="#d1d1d1"
     inkscape:document-units="px"
     showgrid="false"
     inkscape:zoom="12.828125"
     inkscape:cx="32"
     inkscape:cy="32"
     inkscape:window-width="1920"
     inkscape:window-height="1007"
     inkscape:window-x="0"
     inkscape:window-y="0"
     inkscape:window-maximized="1"
     inkscape:current-layer="svg5"
     showguides="false" />
  <defs
     id="defs2">
    <linearGradient
       inkscape:collect="always"
       xlink:href="#linearGradient3632"
       id="linearGradient3525"
       x1="50"
       y1="60"
       x2="14"
       y2="4"
       gradientUnits="userSpaceOnUse" />
    <linearGradient
       inkscape:collect="always"
       id="linearGradient3632">
      <stop
         style="stop-color:#37a3ff;stop-opacity:1;"
         offset="0"
         id="stop3628" />
      <stop
         style="stop-color:#8adeff;stop-opacity:1;"
         offset="1"
         id="stop3630" />
    </linearGradient>
  </defs>
  <rect
     style="fill:url(#linearGradient3525);fill-opacity:1.0;stroke:none"
     id="rect184"
     width="55"
     height="55"
     x="4.5"
     y="4.5"
     ry="9.5" />
  <path
     d="M 23.999999,13 C 17.372584,13 12,18.372582 12,24.999999 c 0.0012,2.388686 0.715272,4.722664 2.050782,6.703126 -0.03252,0.431542 -0.04946,0.864114 -0.05078,1.296874 C 14,42.941126 22.058875,51 32.000001,51 32.432763,50.9987 32.865335,50.9818 33.296875,50.94922 35.277339,52.28473 37.611315,52.998796 40.000001,53 46.627416,53 52,47.627416 52,41.000001 c -4.3e-4,-2.390018 -0.71453,-4.725466 -2.050784,-6.707032 0.03242,-0.430242 0.04936,-0.86151 0.05078,-1.29297 C 49.999996,23.058875 41.941123,15 31.999997,15 31.568539,15.0014 31.137271,15.0184 30.707029,15.05078 28.725461,13.714528 26.390015,13.000428 23.999997,13 Z m 8.53125,8 c 0.924304,-0.009 1.849564,0.06432 2.761718,0.218752 0.652484,0.10404 1.294322,0.27688 1.914064,0.511718 0.569318,0.1989 1.081766,0.535157 1.496092,0.984373 0.305386,0.369488 0.468216,0.842634 0.460936,1.328126 0.02222,0.509306 -0.1509,1.006528 -0.484376,1.382812 -0.316282,0.347284 -0.7609,0.536258 -1.222652,0.523438 -0.314224,-0.0024 -0.62505,-0.07072 -0.910158,-0.207032 -0.701968,-0.324096 -1.425096,-0.60051 -2.164062,-0.820314 -0.680414,-0.18492 -1.38235,-0.273414 -2.085938,-0.265624 -0.91632,-0.03508 -1.821434,0.203702 -2.609374,0.687496 -0.677874,0.42469 -1.077808,1.198276 -1.042968,2.015626 -0.005,0.526412 0.18726,1.032722 0.539066,1.414062 0.418356,0.447466 0.91519,0.81053 1.460936,1.074218 0.611588,0.31293 1.521836,0.728596 2.734376,1.246094 0.13442,0.04384 0.264,0.10016 0.390622,0.16406 1.183244,0.482722 2.321342,1.0815 3.390624,1.792972 0.844696,0.568168 1.553412,1.325082 2.082032,2.210936 0.520244,0.930622 0.781978,1.992518 0.75391,3.066406 0.0437,1.315392 -0.321842,2.609548 -1.042968,3.695313 -0.734256,1.02786 -1.747642,1.803418 -2.914068,2.230472 -1.40551,0.51777 -2.890674,0.769404 -4.382812,0.738282 -2.050546,0.07442 -4.093786,-0.322774 -5.976562,-1.164064 -0.481808,-0.221078 -0.903798,-0.561258 -1.23047,-0.98828 -0.270776,-0.391084 -0.409654,-0.863293 -0.398436,-1.343749 -0.02736,-0.512994 0.16284,-1.012802 0.523436,-1.367188 0.374008,-0.337904 0.85873,-0.513358 1.35547,-0.492184 0.552862,0.008 1.098114,0.1534 1.585936,0.421878 0.606138,0.312944 1.083158,0.54686 1.433594,0.703128 0.400306,0.17298 0.814388,0.306278 1.238282,0.402346 0.522542,0.11842 1.058778,0.17748 1.59375,0.17188 0.94587,0.06946 1.885262,-0.192 2.671874,-0.738294 0.597528,-0.482308 0.93394,-1.229744 0.902344,-2.01172 0.0012,-0.547106 -0.202802,-1.074378 -0.566406,-1.472656 -0.480496,-0.510646 -1.04085,-0.93256 -1.660156,-1.246094 -0.731894,-0.398976 -1.762254,-0.885372 -3.089844,-1.457032 -1.187706,-0.48815 -2.324682,-1.098212 -3.39453,-1.820314 -0.80724,-0.548582 -1.48158,-1.279336 -1.96875,-2.140624 -0.47068,-0.909444 -0.70082,-1.93043 -0.671876,-2.960938 -0.03584,-1.307874 0.39651,-2.582396 1.214844,-3.582032 0.850254,-1.003848 1.943666,-1.760944 3.167968,-2.187499 C 29.718571,21.233596 31.118823,20.991164 32.531249,21 Z"
     style="opacity:0.2;fill:#000000;fill-opacity:1;stroke-width:4;stroke-linejoin:round"
     id="path691" />
  <path
     id="path14352"
     style="fill:#ffffff;fill-opacity:1;stroke-width:4;stroke-linejoin:round"
     d="M 23.999999,12 C 17.372584,12 12,17.372582 12,23.999999 c 0.0012,2.388686 0.71527,4.722662 2.050782,6.703126 -0.03252,0.43154 -0.04946,0.864112 -0.05078,1.296874 -2e-6,9.941126 8.058873,17.999999 17.999999,17.999999 0.432762,-0.0013 0.865334,-0.0182 1.296874,-0.05078 1.980464,1.33551 4.31444,2.049576 6.703126,2.05078 C 46.627416,51.999998 52,46.627414 52,39.999999 c -4.28e-4,-2.390018 -0.714528,-4.725466 -2.050782,-6.707032 0.03242,-0.430242 0.04936,-0.86151 0.05078,-1.292968 C 49.999998,22.058873 41.941125,14 31.999999,14 31.568541,14.0014 31.137273,14.0184 30.707031,14.05078 28.725463,12.714528 26.390017,12.000428 23.999999,12 Z m 8.53125,8 c 0.924304,-0.009 1.849564,0.06432 2.761718,0.218752 0.652484,0.10404 1.294322,0.27688 1.914064,0.511718 0.569318,0.1989 1.081766,0.535158 1.496092,0.984374 0.305386,0.369487 0.468216,0.842633 0.460936,1.328125 0.02222,0.509306 -0.1509,1.006528 -0.484376,1.382812 -0.316282,0.347284 -0.7609,0.536258 -1.222652,0.523438 -0.314224,-0.0024 -0.62505,-0.07072 -0.910158,-0.207032 -0.701968,-0.324096 -1.425096,-0.60051 -2.164062,-0.820314 -0.680414,-0.18492 -1.38235,-0.273414 -2.085938,-0.265624 -0.91632,-0.03508 -1.821434,0.203702 -2.609374,0.687496 -0.677874,0.42469 -1.077808,1.198276 -1.042968,2.015626 -0.005,0.526412 0.18726,1.032722 0.539066,1.414062 0.418356,0.447466 0.91519,0.81053 1.460936,1.074218 0.611588,0.31293 1.521836,0.728596 2.734376,1.246094 0.13442,0.04384 0.264,0.10016 0.390622,0.16406 1.183244,0.482722 2.321342,1.0815 3.390624,1.79297 0.844696,0.568168 1.553412,1.325082 2.082032,2.210936 0.520244,0.930622 0.781978,1.992518 0.75391,3.066406 0.0437,1.315392 -0.321842,2.609548 -1.042968,3.695314 -0.734256,1.027859 -1.747642,1.803417 -2.914068,2.230471 -1.40551,0.51777 -2.890674,0.769404 -4.382812,0.738282 -2.050546,0.07442 -4.093786,-0.322774 -5.976562,-1.164064 -0.481808,-0.221078 -0.903798,-0.561258 -1.23047,-0.988279 -0.270776,-0.391084 -0.409654,-0.863294 -0.398436,-1.34375 -0.02736,-0.512994 0.16284,-1.012802 0.523436,-1.367188 0.374008,-0.337904 0.85873,-0.513358 1.35547,-0.492184 0.552862,0.008 1.098114,0.1534 1.585936,0.421878 0.606138,0.312944 1.083158,0.54686 1.433594,0.703128 0.400306,0.17298 0.814388,0.306278 1.238282,0.402346 0.522542,0.11842 1.058778,0.17748 1.59375,0.17188 0.94587,0.06946 1.885262,-0.192 2.671874,-0.738294 0.597528,-0.482308 0.93394,-1.229744 0.902344,-2.01172 0.0012,-0.547106 -0.202802,-1.074378 -0.566406,-1.472656 -0.480496,-0.510646 -1.04085,-0.93256 -1.660156,-1.246094 -0.731894,-0.398976 -1.762254,-0.885372 -3.089844,-1.457032 -1.187706,-0.48815 -2.324682,-1.098212 -3.39453,-1.820312 -0.80724,-0.548582 -1.48158,-1.279336 -1.96875,-2.140624 -0.47068,-0.909444 -0.70082,-1.93043 -0.671876,-2.960938 -0.03584,-1.307874 0.39651,-2.582396 1.214844,-3.582032 0.850254,-1.003847 1.943666,-1.760943 3.167968,-2.187499 C 29.718571,20.233596 31.118823,19.991164 32.531249,20 Z"
     sodipodi:nodetypes="scccccccccccsscccccccccccccccccccccccccccccscccccccccccc" />
  <path
     id="rect2630"
     style="opacity:0.3;fill:#ffffff;fill-opacity:1"
     d="M 14,5 C 9.014005,5 5,9.014005 5,14 v 1 C 5,10.014005 9.014005,6 14,6 h 36 c 4.985995,0 9,4.014005 9,9 V 14 C 59,9.014005 54.985995,5 50,5 Z" />
  <path
     id="rect899"
     style="fill:#000000;stroke:none;opacity:0.6"
     d="M 14,4 C 8.4600055,4 4,8.4600055 4,14 v 36 c 0,5.539994 4.4600055,10 10,10 h 36 c 5.539994,0 10,-4.460006 10,-10 V 14 C 60,8.4600055 55.539994,4 50,4 Z m 0,1 h 36 c 4.985995,0 9,4.014005 9,9 v 36 c 0,4.985995 -4.014005,9 -9,9 H 14 C 9.014005,59 5,54.985995 5,50 V 14 C 5,9.014005 9.014005,5 14,5 Z" />
  <path
     id="rect398"
     style="opacity:0.3;fill:#ffffff"
     d="M 5 49 L 5 50 C 5 54.985995 9.014005 59 14 59 L 50 59 C 54.985995 59 59 54.985995 59 50 L 59 49 C 59 53.985995 54.985995 58 50 58 L 14 58 C 9.014005 58 5 53.985995 5 49 z " />
</svg>
