<?xml version="1.0" encoding="UTF-8" standalone="no"?>
<!-- Created with Inkscape (http://www.inkscape.org/) -->

<svg
   width="64"
   height="64"
   viewBox="0 0 64 64.000003"
   version="1.1"
   id="svg5"
   sodipodi:docname="spotify.svg"
   inkscape:version="1.2.1 (9c6d41e410, 2022-07-14)"
   xmlns:inkscape="http://www.inkscape.org/namespaces/inkscape"
   xmlns:sodipodi="http://sodipodi.sourceforge.net/DTD/sodipodi-0.dtd"
   xmlns:xlink="http://www.w3.org/1999/xlink"
   xmlns="http://www.w3.org/2000/svg"
   xmlns:svg="http://www.w3.org/2000/svg">
  <sodipodi:namedview
     id="namedview7"
     pagecolor="#ffffff"
     bordercolor="#666666"
     borderopacity="1.0"
     inkscape:showpageshadow="2"
     inkscape:pageopacity="0.0"
     inkscape:pagecheckerboard="0"
     inkscape:deskcolor="#d1d1d1"
     inkscape:document-units="px"
     showgrid="false"
     inkscape:zoom="12.453125"
     inkscape:cx="31.959849"
     inkscape:cy="32"
     inkscape:window-width="1920"
     inkscape:window-height="1009"
     inkscape:window-x="0"
     inkscape:window-y="0"
     inkscape:window-maximized="1"
     inkscape:current-layer="svg5" />
  <defs
     id="defs2">
    <linearGradient
       inkscape:collect="always"
       id="linearGradient1891">
      <stop
         style="stop-color:#1abc54;stop-opacity:1;"
         offset="0"
         id="stop1887" />
      <stop
         style="stop-color:#67d770;stop-opacity:1;"
         offset="1"
         id="stop1889" />
    </linearGradient>
    <linearGradient
       inkscape:collect="always"
       xlink:href="#linearGradient1891"
       id="linearGradient1893"
       x1="50"
       y1="60"
       x2="14"
       y2="4"
       gradientUnits="userSpaceOnUse" />
  </defs>
  <rect
     style="fill:url(#linearGradient1893);fill-opacity:1;stroke:none"
     id="rect184"
     width="55"
     height="55"
     x="4.5"
     y="4.5"
     ry="9.5" />
  <path
     d="m 26.084861,20.970353 c -3.79756,0.0633 -7.81227,0.51314 -11.88517,1.54774 -1.44184,0.25851 -2.48589,1.89392 -2.12942,3.33553 0.35648,1.44161 2.03759,2.38258 3.42876,1.91917 16.52089,-4.19664 32.80844,2.6178 32.80844,2.6178 1.29601,0.54844 2.96677,-0.14959 3.50703,-1.46524 0.54026,-1.31564 -0.14736,-3.01172 -1.44336,-3.56017 0,0 -9.86933,-4.25537 -22.66209,-4.39483 -0.53304,-0.005 -1.08168,-0.009 -1.62419,0 z m 0.55414,9.7833 c -3.35632,0.02 -6.97925,0.38983 -10.79603,1.31844 -1.15174,0.20004 -1.99438,1.495941 -1.72291,2.649671 0.27147,1.15374 1.60005,1.92315 2.71653,1.5732 15.88473,-3.864731 28.20341,2.67512 28.20341,2.67512 0.99542,0.52307 2.36992,0.0795 2.88517,-0.93093 0.51525,-1.0105 0.0784,-2.40582 -0.91704,-2.92889 0,0 -7.71342,-4.097231 -18.93603,-4.356611 -0.46762,-0.0109 -0.95363,-0.003 -1.4331,0 z m -0.24841,9.171831 c -2.94576,-0.0137 -6.19066,0.29325 -9.64954,1.07005 -0.87579,0.12692 -1.53552,1.09908 -1.34028,1.97502 0.19524,0.87592 1.20298,1.46508 2.04728,1.1969 14.70986,-3.30354 24.63021,2.59868 24.63021,2.59868 0.72585,0.5151 1.86368,0.2598 2.30807,-0.51786 0.44438,-0.77766 0.0978,-1.90709 -0.70299,-2.29101 0,0 -6.2484,-3.66027 -16.05073,-3.99356 -0.40842,-0.0139 -0.82119,-0.0363 -1.24202,-0.0382 z"
     style="color:#000000;font-style:normal;font-variant:normal;font-weight:normal;font-stretch:normal;font-size:medium;line-height:normal;font-family:Sans;-inkscape-font-specification:Sans;text-indent:0;text-align:start;text-decoration:none;text-decoration-line:none;letter-spacing:normal;word-spacing:normal;text-transform:none;writing-mode:lr-tb;direction:ltr;baseline-shift:baseline;text-anchor:start;display:inline;overflow:visible;visibility:visible;fill:#ffffff;fill-opacity:1;stroke:none;stroke-width:5.53481;marker:none;enable-background:accumulate;opacity:0.4"
     id="path1903" />
  <path
     d="m 26.084861,19.970353 c -3.79756,0.0633 -7.81227,0.51314 -11.88517,1.54774 -1.44184,0.25851 -2.48589,1.89392 -2.12942,3.33553 0.35648,1.44161 2.03759,2.38258 3.42876,1.91917 16.52089,-4.19664 32.80844,2.6178 32.80844,2.6178 1.29601,0.54844 2.96677,-0.14959 3.50703,-1.46524 0.54026,-1.31564 -0.14736,-3.01172 -1.44336,-3.56017 0,0 -9.86933,-4.25537 -22.66209,-4.39483 -0.53304,-0.005 -1.08168,-0.009 -1.62419,0 z m 0.55414,9.7833 c -3.35632,0.02 -6.97925,0.38983 -10.79603,1.31844 -1.15174,0.20004 -1.99438,1.49594 -1.72291,2.64967 0.27147,1.15374 1.60005,1.92315 2.71653,1.5732 15.88473,-3.86473 28.20341,2.67512 28.20341,2.67512 0.99542,0.52307 2.36992,0.0795 2.88517,-0.93093 0.51525,-1.0105 0.0784,-2.40582 -0.91704,-2.92889 0,0 -7.71342,-4.09723 -18.93603,-4.35661 -0.46762,-0.0109 -0.95363,-0.003 -1.4331,0 z m -0.24841,9.17183 c -2.94576,-0.0137 -6.19066,0.29325 -9.64954,1.07005 -0.87579,0.12692 -1.53552,1.09908 -1.34028,1.97502 0.19524,0.87592 1.20298,1.46508 2.04728,1.1969 14.70986,-3.30354 24.63021,2.59868 24.63021,2.59868 0.72585,0.5151 1.86368,0.2598 2.30807,-0.51786 0.44438,-0.77766 0.0978,-1.90709 -0.70299,-2.29101 0,0 -6.2484,-3.66027 -16.05073,-3.99356 -0.40842,-0.0139 -0.82119,-0.0363 -1.24202,-0.0382 z"
     style="color:#000000;font-style:normal;font-variant:normal;font-weight:normal;font-stretch:normal;font-size:medium;line-height:normal;font-family:Sans;-inkscape-font-specification:Sans;text-indent:0;text-align:start;text-decoration:none;text-decoration-line:none;letter-spacing:normal;word-spacing:normal;text-transform:none;writing-mode:lr-tb;direction:ltr;baseline-shift:baseline;text-anchor:start;display:inline;overflow:visible;visibility:visible;fill:#191515;fill-opacity:1;stroke:none;stroke-width:5.53481;marker:none;enable-background:accumulate"
     id="path429"
     sodipodi:nodetypes="cccccscccccsccccccccsccscccc" />
  <path
     id="rect2630"
     style="opacity:0.3;fill:#ffffff;fill-opacity:1"
     d="M 14,5 C 9.014005,5 5,9.014005 5,14 v 1 C 5,10.014005 9.014005,6 14,6 h 36 c 4.985995,0 9,4.014005 9,9 V 14 C 59,9.014005 54.985995,5 50,5 Z" />
  <path
     id="rect899"
     style="fill:#000000;stroke:none;opacity:0.6"
     d="M 14,4 C 8.4600055,4 4,8.4600055 4,14 v 36 c 0,5.539994 4.4600055,10 10,10 h 36 c 5.539994,0 10,-4.460006 10,-10 V 14 C 60,8.4600055 55.539994,4 50,4 Z m 0,1 h 36 c 4.985995,0 9,4.014005 9,9 v 36 c 0,4.985995 -4.014005,9 -9,9 H 14 C 9.014005,59 5,54.985995 5,50 V 14 C 5,9.014005 9.014005,5 14,5 Z" />
  <path
     id="rect398"
     style="opacity:0.3;fill:#ffffff"
     d="M 5 49 L 5 50 C 5 54.985995 9.014005 59 14 59 L 50 59 C 54.985995 59 59 54.985995 59 50 L 59 49 C 59 53.985995 54.985995 58 50 58 L 14 58 C 9.014005 58 5 53.985995 5 49 z " />
</svg>
