<?xml version="1.0" encoding="UTF-8" standalone="no"?>
<!-- Created with Inkscape (http://www.inkscape.org/) -->

<svg
   width="64"
   height="64"
   viewBox="0 0 64 64.000003"
   version="1.1"
   id="svg5"
   sodipodi:docname="steam.svg"
   inkscape:version="1.2.1 (9c6d41e410, 2022-07-14)"
   xmlns:inkscape="http://www.inkscape.org/namespaces/inkscape"
   xmlns:sodipodi="http://sodipodi.sourceforge.net/DTD/sodipodi-0.dtd"
   xmlns:xlink="http://www.w3.org/1999/xlink"
   xmlns="http://www.w3.org/2000/svg"
   xmlns:svg="http://www.w3.org/2000/svg">
  <sodipodi:namedview
     id="namedview7"
     pagecolor="#ffffff"
     bordercolor="#666666"
     borderopacity="1.0"
     inkscape:showpageshadow="2"
     inkscape:pageopacity="0.0"
     inkscape:pagecheckerboard="0"
     inkscape:deskcolor="#d1d1d1"
     inkscape:document-units="px"
     showgrid="false"
     inkscape:zoom="12.5"
     inkscape:cx="32"
     inkscape:cy="32"
     inkscape:window-width="1920"
     inkscape:window-height="1012"
     inkscape:window-x="0"
     inkscape:window-y="0"
     inkscape:window-maximized="1"
     inkscape:current-layer="svg5"
     showguides="false" />
  <defs
     id="defs2">
    <linearGradient
       inkscape:collect="always"
       xlink:href="#linearGradient2277"
       id="linearGradient3525"
       x1="32"
       y1="4"
       x2="32"
       y2="60"
       gradientUnits="userSpaceOnUse" />
    <linearGradient
       inkscape:collect="always"
       id="linearGradient2277">
      <stop
         style="stop-color:#111d2e;stop-opacity:1;"
         offset="0"
         id="stop2273" />
      <stop
         style="stop-color:#051839;stop-opacity:1"
         offset="0.2"
         id="stop2921" />
      <stop
         style="stop-color:#0a1b48;stop-opacity:1"
         offset="0.40000001"
         id="stop3435" />
      <stop
         style="stop-color:#132e62;stop-opacity:1"
         offset="0.60000002"
         id="stop3693" />
      <stop
         style="stop-color:#144b7e;stop-opacity:1"
         offset="0.69999999"
         id="stop3951" />
      <stop
         style="stop-color:#136497;stop-opacity:1"
         offset="0.87"
         id="stop4145" />
      <stop
         style="stop-color:#1387b8;stop-opacity:1"
         offset="1"
         id="stop2275" />
    </linearGradient>
  </defs>
  <rect
     style="fill:url(#linearGradient3525);fill-opacity:1;stroke:none"
     id="rect184"
     width="55"
     height="55"
     x="4.5"
     y="4.5"
     ry="9.5" />
  <path
     d="m 43.318359,15 c -5.889856,0 -10.68164,4.799706 -10.68164,10.699219 0,0.04734 -4.47e-4,0.09426 0.002,0.138672 l -6.88086,9.996094 c -1.114727,-0.05069 -2.232311,0.14512 -3.292968,0.582032 -0.467568,0.190696 -0.907276,0.424958 -1.31836,0.695312 L 4.5,29.130859 v 9.656251 l 13.326172,6.550782 c 0.536362,2.396981 2.181477,4.498349 4.607422,5.509765 3.969137,1.658331 8.546174,-0.230332 10.197265,-4.201172 0.429671,-1.037967 0.628577,-2.126647 0.59961,-3.21289 l 9.847656,-7.03711 c 0.07963,0.0024 0.160562,0.0059 0.240234,0.0059 C 49.210633,36.402345 54,31.59825 54,25.699219 54,19.799706 49.210633,15 43.318359,15 Z m 0,3.570312 c 3.924959,0 7.119141,3.200323 7.119141,7.128907 0,3.93172 -3.194182,7.128906 -7.119141,7.128906 -3.922553,0 -7.115234,-3.197186 -7.115234,-7.128906 0,-3.928584 3.192681,-7.128907 7.115234,-7.128907 z m 0.01172,1.761719 c -2.949756,0 -5.34375,2.397747 -5.34375,5.355469 0,2.957963 2.393994,5.355469 5.34375,5.355469 2.952171,0 5.347656,-2.397506 5.347656,-5.355469 0,-2.957722 -2.395485,-5.355469 -5.347656,-5.355469 z M 25.496094,37.615235 c 0.751711,0.006 1.515359,0.15438 2.251953,0.460938 1.485257,0.617952 2.637336,1.782584 3.248047,3.269531 0.610711,1.486948 0.608132,3.127255 -0.0098,4.609375 -1.277908,3.06804 -4.804484,4.52499 -7.86914,3.248047 C 21.703347,48.61414 20.63723,47.534647 20.02145,46.248048 l 3.476563,1.441406 c 2.260113,0.941412 4.853489,-0.13124 5.792969,-2.390625 0.942378,-2.261803 -0.127812,-4.85937 -2.386719,-5.800781 l -3.59375,-1.488281 c 0.693507,-0.263112 1.433836,-0.400565 2.185547,-0.394532 z"
     style="opacity:0.2;fill:#000000;stroke-width:0.241388"
     id="path3816" />
  <path
     id="path2595"
     style="fill:#ffffff;stroke-width:0.241388"
     d="m 43.318359,14 c -5.889856,0 -10.68164,4.799706 -10.68164,10.699219 0,0.04734 -4.47e-4,0.09426 0.002,0.138672 l -6.88086,9.996093 c -1.114727,-0.05069 -2.232311,0.14512 -3.292968,0.582032 -0.467568,0.190696 -0.907276,0.424958 -1.31836,0.695312 L 4.5,28.130859 v 9.65625 l 13.326172,6.550782 c 0.536362,2.396981 2.181477,4.498349 4.607422,5.509765 3.969137,1.658331 8.546174,-0.230332 10.197265,-4.201172 0.429671,-1.037967 0.628577,-2.126647 0.59961,-3.21289 l 9.847656,-7.03711 c 0.07963,0.0024 0.160562,0.0059 0.240234,0.0059 C 49.210633,35.402344 54,30.59825 54,24.699219 54,18.799706 49.210633,14 43.318359,14 Z m 0,3.570312 c 3.924959,0 7.119141,3.200323 7.119141,7.128907 0,3.93172 -3.194182,7.128906 -7.119141,7.128906 -3.922553,0 -7.115234,-3.197186 -7.115234,-7.128906 0,-3.928584 3.192681,-7.128907 7.115234,-7.128907 z m 0.01172,1.761719 c -2.949756,0 -5.34375,2.397747 -5.34375,5.355469 0,2.957963 2.393994,5.355469 5.34375,5.355469 2.952171,0 5.347656,-2.397506 5.347656,-5.355469 0,-2.957722 -2.395485,-5.355469 -5.347656,-5.355469 z M 25.496094,36.615234 c 0.751711,0.006 1.515359,0.15438 2.251953,0.460938 1.485257,0.617952 2.637336,1.782584 3.248047,3.269531 0.610711,1.486948 0.608132,3.127255 -0.0098,4.609375 -1.277908,3.06804 -4.804484,4.52499 -7.86914,3.248047 -1.413807,-0.588986 -2.479924,-1.668479 -3.095704,-2.955078 l 3.476563,1.441406 c 2.260113,0.941412 4.853489,-0.13124 5.792969,-2.390625 0.942378,-2.261803 -0.127812,-4.85937 -2.386719,-5.800781 l -3.59375,-1.488281 c 0.693507,-0.263112 1.433836,-0.400565 2.185547,-0.394532 z"
     sodipodi:nodetypes="sscccccccccccsssssssssssssscscccccccs" />
  <path
     id="rect2630"
     style="opacity:0.3;fill:#ffffff;fill-opacity:1"
     d="M 14,5 C 9.014005,5 5,9.014005 5,14 v 1 C 5,10.014005 9.014005,6 14,6 h 36 c 4.985995,0 9,4.014005 9,9 V 14 C 59,9.014005 54.985995,5 50,5 Z" />
  <path
     id="rect899"
     style="fill:#000000;stroke:none;opacity:0.6"
     d="M 14,4 C 8.4600055,4 4,8.4600055 4,14 v 36 c 0,5.539994 4.4600055,10 10,10 h 36 c 5.539994,0 10,-4.460006 10,-10 V 14 C 60,8.4600055 55.539994,4 50,4 Z m 0,1 h 36 c 4.985995,0 9,4.014005 9,9 v 36 c 0,4.985995 -4.014005,9 -9,9 H 14 C 9.014005,59 5,54.985995 5,50 V 14 C 5,9.014005 9.014005,5 14,5 Z" />
  <path
     id="rect398"
     style="opacity:0.3;fill:#ffffff"
     d="M 5 49 L 5 50 C 5 54.985995 9.014005 59 14 59 L 50 59 C 54.985995 59 59 54.985995 59 50 L 59 49 C 59 53.985995 54.985995 58 50 58 L 14 58 C 9.014005 58 5 53.985995 5 49 z " />
</svg>
