<?xml version="1.0" encoding="UTF-8" standalone="no"?>
<!-- Created with Inkscape (http://www.inkscape.org/) -->

<svg
   width="64"
   height="64"
   viewBox="0 0 64 64.000003"
   version="1.1"
   id="svg5"
   sodipodi:docname="usb-creator.svg"
   inkscape:version="1.2 (dc2aedaf03, 2022-05-15)"
   xmlns:inkscape="http://www.inkscape.org/namespaces/inkscape"
   xmlns:sodipodi="http://sodipodi.sourceforge.net/DTD/sodipodi-0.dtd"
   xmlns:xlink="http://www.w3.org/1999/xlink"
   xmlns="http://www.w3.org/2000/svg"
   xmlns:svg="http://www.w3.org/2000/svg">
  <sodipodi:namedview
     id="namedview7"
     pagecolor="#ffffff"
     bordercolor="#666666"
     borderopacity="1.0"
     inkscape:showpageshadow="2"
     inkscape:pageopacity="0.0"
     inkscape:pagecheckerboard="0"
     inkscape:deskcolor="#d1d1d1"
     inkscape:document-units="px"
     showgrid="false"
     inkscape:zoom="12.125"
     inkscape:cx="31.958763"
     inkscape:cy="32"
     inkscape:window-width="1920"
     inkscape:window-height="991"
     inkscape:window-x="0"
     inkscape:window-y="0"
     inkscape:window-maximized="1"
     inkscape:current-layer="svg5" />
  <defs
     id="defs2">
    <linearGradient
       inkscape:collect="always"
       id="linearGradient2739">
      <stop
         style="stop-color:#8a8a8a;stop-opacity:1;"
         offset="0"
         id="stop2735" />
      <stop
         style="stop-color:#c0c0c0;stop-opacity:1;"
         offset="1"
         id="stop2737" />
    </linearGradient>
    <linearGradient
       inkscape:collect="always"
       xlink:href="#linearGradient2739"
       id="linearGradient3525"
       x1="50"
       y1="60"
       x2="14"
       y2="4"
       gradientUnits="userSpaceOnUse" />
  </defs>
  <rect
     style="fill:url(#linearGradient3525);fill-opacity:1.0;stroke:none"
     id="rect184"
     width="55"
     height="55"
     x="4.5"
     y="4.5"
     ry="9.5" />
  <path
     d="m 32,13 c -2.20914,0 -4,1.79086 -4,4 0,1.86319 1.27569,3.39908 3,3.84375 V 22 25.00005 l -6.62505,6.5313 -0.0312,0.0312 v 0.0312 C 24.15124,31.73581 23.99837,32.01076 24,32.25 v 2.750001 1 H 23.625 22 v 6 h 6 v -6 H 26.8125 26 v -0.8125 l 0.0937,-1.90625 V 32.90625 l 0.28125,-0.25 3.0938,-3.3438 L 31,27.93745 v 1.75 14.499951 0.8125 h -3 l 4,8 4,-8 H 33.8125 33 v -0.8125 -11.187501 -5.78125 -0.5 l 5,2.875 v 3.40612 l -0.34375,0.156251 c -1.15262,0.50726 -1.96875,1.62879 -1.96875,2.96875 0,1.81304 1.4682,3.28125 3.28125,3.28125 1.81304,0 3.25,-1.46821 3.25,-3.28125 0,-1.33996 -0.81622,-2.46158 -1.96875,-2.96875 L 40,33.031121 V 29 c 0.003,-0.35205 -0.19511,-0.69897 -0.5,-0.875 L 33,24.40625 V 24.0625 22 20.84375 C 34.72431,20.39908 36,18.86319 36,17 36,14.79086 34.20914,13 32,13 Z"
     style="color:#bebebe;display:inline;overflow:visible;visibility:visible;fill:#000000;fill-opacity:1;fill-rule:nonzero;stroke:none;stroke-width:1;marker:none;enable-background:accumulate;opacity:0.2"
     id="path2575" />
  <path
     d="m 32,12.00005 c -2.20914,0 -4,1.79086 -4,4 0,1.86319 1.27569,3.39908 3,3.84375 v 1.15625 3.00005 l -6.62505,6.5313 -0.0312,0.0312 v 0.0312 C 24.15124,30.73586 23.99837,31.01081 24,31.25005 v 2.75 1 H 23.625 22 v 6 h 6 v -6 H 26.8125 26 v -0.8125 l 0.0937,-1.90625 v -0.375 l 0.28125,-0.25 3.0938,-3.3438 L 31,26.9375 v 1.75 14.49995 0.8125 h -3 l 4,8 4,-8 H 33.8125 33 v -0.8125 -11.1875 -5.78125 -0.5 l 5,2.875 v 3.40612 l -0.34375,0.15625 c -1.15262,0.50726 -1.96875,1.62879 -1.96875,2.96875 0,1.81304 1.4682,3.28125 3.28125,3.28125 1.81304,0 3.25,-1.46821 3.25,-3.28125 0,-1.33996 -0.81622,-2.46158 -1.96875,-2.96875 L 40,32.03117 v -4.03112 c 0.003,-0.35205 -0.19511,-0.69897 -0.5,-0.875 L 33,23.4063 v -0.34375 -2.0625 -1.15625 c 1.72431,-0.44467 3,-1.98056 3,-3.84375 0,-2.20914 -1.79086,-4 -4,-4 z"
     style="color:#bebebe;display:inline;overflow:visible;visibility:visible;fill:#ffffff;fill-opacity:1;fill-rule:nonzero;stroke:none;stroke-width:1;marker:none;enable-background:accumulate"
     id="path1056"
     sodipodi:nodetypes="sscccccccccccccccccccccccccccccccccccccsssccccccccss" />
  <path
     id="rect2630"
     style="opacity:0.3;fill:#ffffff;fill-opacity:1"
     d="M 14,5 C 9.014005,5 5,9.014005 5,14 v 1 C 5,10.014005 9.014005,6 14,6 h 36 c 4.985995,0 9,4.014005 9,9 V 14 C 59,9.014005 54.985995,5 50,5 Z" />
  <path
     id="rect899"
     style="fill:#000000;stroke:none;opacity:0.6"
     d="M 14,4 C 8.4600055,4 4,8.4600055 4,14 v 36 c 0,5.539994 4.4600055,10 10,10 h 36 c 5.539994,0 10,-4.460006 10,-10 V 14 C 60,8.4600055 55.539994,4 50,4 Z m 0,1 h 36 c 4.985995,0 9,4.014005 9,9 v 36 c 0,4.985995 -4.014005,9 -9,9 H 14 C 9.014005,59 5,54.985995 5,50 V 14 C 5,9.014005 9.014005,5 14,5 Z" />
  <path
     id="rect398"
     style="opacity:0.3;fill:#ffffff"
     d="M 5 49 L 5 50 C 5 54.985995 9.014005 59 14 59 L 50 59 C 54.985995 59 59 54.985995 59 50 L 59 49 C 59 53.985995 54.985995 58 50 58 L 14 58 C 9.014005 58 5 53.985995 5 49 z " />
</svg>
