<?xml version="1.0" encoding="UTF-8" standalone="no"?>
<!-- Created with Inkscape (http://www.inkscape.org/) -->

<svg
   width="64"
   height="64"
   viewBox="0 0 64 64.000003"
   version="1.1"
   id="svg5"
   sodipodi:docname="utilities-system-monitor.svg"
   inkscape:version="1.2.1 (9c6d41e410, 2022-07-14)"
   xmlns:inkscape="http://www.inkscape.org/namespaces/inkscape"
   xmlns:sodipodi="http://sodipodi.sourceforge.net/DTD/sodipodi-0.dtd"
   xmlns:xlink="http://www.w3.org/1999/xlink"
   xmlns="http://www.w3.org/2000/svg"
   xmlns:svg="http://www.w3.org/2000/svg">
  <sodipodi:namedview
     id="namedview7"
     pagecolor="#ffffff"
     bordercolor="#666666"
     borderopacity="1.0"
     inkscape:showpageshadow="2"
     inkscape:pageopacity="0.0"
     inkscape:pagecheckerboard="0"
     inkscape:deskcolor="#d1d1d1"
     inkscape:document-units="px"
     showgrid="false"
     inkscape:zoom="12.859375"
     inkscape:cx="31.961118"
     inkscape:cy="32"
     inkscape:window-width="1920"
     inkscape:window-height="1009"
     inkscape:window-x="0"
     inkscape:window-y="0"
     inkscape:window-maximized="1"
     inkscape:current-layer="svg5" />
  <defs
     id="defs2">
    <linearGradient
       inkscape:collect="always"
       xlink:href="#linearGradient7403"
       id="linearGradient6610"
       x1="32"
       y1="60"
       x2="32"
       y2="4"
       gradientUnits="userSpaceOnUse" />
    <linearGradient
       inkscape:collect="always"
       xlink:href="#linearGradient1610"
       id="linearGradient28349"
       x1="-60.827999"
       y1="17.980965"
       x2="-4.8280001"
       y2="17.980965"
       gradientUnits="userSpaceOnUse"
       gradientTransform="translate(64.828,14.019035)" />
    <linearGradient
       inkscape:collect="always"
       id="linearGradient1610">
      <stop
         style="stop-color:#78e021;stop-opacity:0;"
         offset="0"
         id="stop1606" />
      <stop
         style="stop-color:#78e021;stop-opacity:0.5;"
         offset="0.2175552"
         id="stop1663" />
      <stop
         style="stop-color:#78e021;stop-opacity:1;"
         offset="0.5"
         id="stop1665" />
      <stop
         style="stop-color:#78e021;stop-opacity:0.5;"
         offset="0.77579284"
         id="stop1667" />
      <stop
         style="stop-color:#78e021;stop-opacity:0;"
         offset="1"
         id="stop1608" />
    </linearGradient>
    <linearGradient
       inkscape:collect="always"
       id="linearGradient7403">
      <stop
         style="stop-color:#4d4d4d;stop-opacity:1;"
         offset="0"
         id="stop7399" />
      <stop
         style="stop-color:#26381b;stop-opacity:1;"
         offset="1"
         id="stop7401" />
    </linearGradient>
  </defs>
  <rect
     style="fill:url(#linearGradient6610);fill-opacity:1.0;stroke:none"
     id="rect184"
     width="55"
     height="55"
     x="4.5"
     y="4.5"
     ry="9.5" />
  <path
     d="m 17.05608,16.833715 -3.44201,19.61205 H 4 v 1.58481 h 10.95126 l 2.84771,-16.31861 4.08584,25.15889 0.78003,4.3158 0.78002,-4.31579 1.75815,-11.96038 h 6.0421 l 0.89146,-2.77342 2.82294,10.20225 2.08007,-4.38301 H 60 v -1.58484 H 36.04907 l -0.69336,1.43626 -3.1201,-11.24225 -2.15435,6.76021 h -6.24019 l -1.21337,8.19645 -4.01156,-24.66365 -0.76764,-4.04514 -0.79242,4.02039 z"
     style="display:inline;fill:url(#linearGradient28349);fill-opacity:1;fill-rule:evenodd;stroke:none;enable-background:new"
     id="path27592"
     sodipodi:nodetypes="cccccccccccccccccccccccccc" />
  <path
     id="rect2630"
     style="opacity:0.3;fill:#ffffff;fill-opacity:1"
     d="M 14,5 C 9.014005,5 5,9.014005 5,14 v 1 C 5,10.014005 9.014005,6 14,6 h 36 c 4.985995,0 9,4.014005 9,9 V 14 C 59,9.014005 54.985995,5 50,5 Z" />
  <path
     id="rect899"
     style="fill:#000000;stroke:none;opacity:0.5"
     d="M 14,4 C 8.4600055,4 4,8.4600055 4,14 v 36 c 0,5.539994 4.4600055,10 10,10 h 36 c 5.539994,0 10,-4.460006 10,-10 V 14 C 60,8.4600055 55.539994,4 50,4 Z m 0,1 h 36 c 4.985995,0 9,4.014005 9,9 v 36 c 0,4.985995 -4.014005,9 -9,9 H 14 C 9.014005,59 5,54.985995 5,50 V 14 C 5,9.014005 9.014005,5 14,5 Z" />
  <path
     id="rect398"
     style="opacity:0.3;fill:#ffffff"
     d="M 5 49 L 5 50 C 5 54.985995 9.014005 59 14 59 L 50 59 C 54.985995 59 59 54.985995 59 50 L 59 49 C 59 53.985995 54.985995 58 50 58 L 14 58 C 9.014005 58 5 53.985995 5 49 z " />
</svg>
