<?xml version="1.0" encoding="UTF-8" standalone="no"?>
<!-- Created with Inkscape (http://www.inkscape.org/) -->

<svg
   width="64"
   height="64"
   viewBox="0 0 64 64.000003"
   version="1.1"
   id="svg5"
   sodipodi:docname="web-google.svg"
   inkscape:version="1.2.1 (9c6d41e410, 2022-07-14)"
   xmlns:inkscape="http://www.inkscape.org/namespaces/inkscape"
   xmlns:sodipodi="http://sodipodi.sourceforge.net/DTD/sodipodi-0.dtd"
   xmlns="http://www.w3.org/2000/svg"
   xmlns:svg="http://www.w3.org/2000/svg">
  <sodipodi:namedview
     id="namedview7"
     pagecolor="#ffffff"
     bordercolor="#666666"
     borderopacity="1.0"
     inkscape:showpageshadow="2"
     inkscape:pageopacity="0.0"
     inkscape:pagecheckerboard="0"
     inkscape:deskcolor="#d1d1d1"
     inkscape:document-units="px"
     showgrid="false"
     inkscape:zoom="12.375"
     inkscape:cx="31.959596"
     inkscape:cy="32"
     inkscape:window-width="1920"
     inkscape:window-height="1007"
     inkscape:window-x="0"
     inkscape:window-y="0"
     inkscape:window-maximized="1"
     inkscape:current-layer="svg5"
     showguides="true" />
  <defs
     id="defs2" />
  <rect
     style="fill:#f5f5f5;fill-opacity:1;stroke:none"
     id="rect184"
     width="55"
     height="55"
     x="4.5"
     y="4.5"
     ry="9.5" />
  <path
     d="m 31.999976,13.000377 c -7.214441,0.02114 -13.859393,3.926894 -17.38769,10.219724 l -0.0097,-0.0051 c -1.693499,2.984209 -2.587815,6.353938 -2.602544,9.785153 0.0043,3.435749 0.889574,6.812495 2.578124,9.804685 v 0.0051 c 3.541541,6.293227 10.200564,10.18763 17.421871,10.190428 4.537702,-0.0024 8.937176,-1.550225 12.480465,-4.384766 h 0.0097 c 4.744922,-3.795203 7.50932,-9.539482 7.509797,-15.615372 -7.17e-4,-1.343593 -0.140714,-2.682721 -0.410157,-3.999023 H 49.675781 43.279297 32.000005 v 7.998046 h 11.308589 c -0.914034,2.580573 -2.698364,4.813085 -5.112302,6.26953 -1.870276,1.130556 -4.01086,1.726953 -6.196287,1.728516 -4.733691,-0.0023 -9.007657,-2.78173 -10.937498,-7.070312 -0.154372,-0.606174 -1.058685,-3.635815 -1.064454,-4.926757 0.01343,-1.523836 0.316083,-3.03312 0.893554,-4.443357 l -0.0097,-0.0051 c 5.57e-4,-0.0014 -5.58e-4,-0.0034 0,-0.0049 1.817684,-4.548176 6.219921,-7.537591 11.11816,-7.548829 2.455473,0.016 4.845937,0.784063 6.850584,2.20215 l 6.230461,-5.273436 C 41.455426,14.76335 36.811764,13.016045 32.000062,13 Z"
     style="opacity:0.2;fill:#000000;fill-opacity:1;stroke-width:2;stroke-linejoin:round"
     id="path12181" />
  <g
     id="g12145"
     transform="matrix(2.4999981,0,0,2.4999981,2.0000069,0.92688592)">
    <path
       id="path24487"
       style="fill:#ea4335;fill-opacity:1;stroke-width:0.799998;stroke-linejoin:round"
       d="M 12,4.429249 C 9.1142207,4.437659 6.456633,5.9996136 5.0453123,8.5167488 L 5.7869073,10.502823 7.553125,10.64956 C 8.2797898,8.8293456 10.0401,7.6337449 12,7.6292488 c 0.982189,0.00643 1.938764,0.3140145 2.740625,0.8812494 l 2.492187,-2.109374 C 15.782536,5.1357599 13.924683,4.435667 12,4.429249 Z"
       sodipodi:nodetypes="cccccccc" />
    <path
       id="rect25425"
       style="fill:#fbbc05;fill-opacity:1;stroke-width:0.799998;stroke-linejoin:round"
       d="m 5.0421883,8.5151863 c -0.677398,1.1936863 -1.036297,2.5415757 -1.042188,3.9140617 0.0017,1.374303 0.357392,2.724996 1.032812,3.921873 l 1.8053799,-0.2579 0.7086829,-1.878037 c 0.3315704,0.936148 -0.3437367,-1.08352 -0.3468737,-1.785936 0.00537,-0.609535 0.1268221,-1.212466 0.3578117,-1.776562 z"
       sodipodi:nodetypes="cccccccc" />
    <path
       id="rect35766"
       style="fill:#4285f4;fill-opacity:1;stroke-width:0.799998;stroke-linejoin:round"
       d="m 12,10.829248 v 3.199999 h 4.523437 c -0.365615,1.03223 -1.078173,1.925233 -2.04375,2.507811 l 0.316082,1.988125 2.201105,0.150935 c 1.897958,-1.518025 3.002936,-3.816515 3.003127,-6.246874 -2.88e-4,-0.537437 -0.05473,-1.073479 -0.162501,-1.6 H 19.071876 16.5125 Z"
       sodipodi:nodetypes="ccccccccccc" />
    <path
       id="rect24779-7"
       style="fill:#34a853;fill-opacity:1;stroke-width:0.799998;stroke-linejoin:round"
       d="M 7.5468751,14.215184 5.0312503,16.352683 C 6.4478686,18.869978 9.1114745,20.428124 12,20.429243 c 1.815998,-9.58e-4 3.577629,-0.619776 4.995312,-1.754686 L 14.479687,16.537058 C 13.731576,16.989283 12.874172,17.22862 12,17.229246 10.039363,17.228286 8.2763708,16.035056 7.5468751,14.215184 Z"
       sodipodi:nodetypes="ccccccc" />
  </g>
  <path
     id="rect2630"
     style="opacity:0.3;fill:#ffffff;fill-opacity:1"
     d="M 14,5 C 9.014005,5 5,9.014005 5,14 v 1 C 5,10.014005 9.014005,6 14,6 h 36 c 4.985995,0 9,4.014005 9,9 V 14 C 59,9.014005 54.985995,5 50,5 Z" />
  <path
     id="rect899"
     style="fill:#000000;stroke:none;opacity:0.6"
     d="M 14,4 C 8.4600055,4 4,8.4600055 4,14 v 36 c 0,5.539994 4.4600055,10 10,10 h 36 c 5.539994,0 10,-4.460006 10,-10 V 14 C 60,8.4600055 55.539994,4 50,4 Z m 0,1 h 36 c 4.985995,0 9,4.014005 9,9 v 36 c 0,4.985995 -4.014005,9 -9,9 H 14 C 9.014005,59 5,54.985995 5,50 V 14 C 5,9.014005 9.014005,5 14,5 Z" />
  <path
     id="rect398"
     style="opacity:0.3;fill:#ffffff"
     d="M 5 49 L 5 50 C 5 54.985995 9.014005 59 14 59 L 50 59 C 54.985995 59 59 54.985995 59 50 L 59 49 C 59 53.985995 54.985995 58 50 58 L 14 58 C 9.014005 58 5 53.985995 5 49 z " />
</svg>
