<?xml version="1.0" encoding="UTF-8" standalone="no"?>
<!-- Created with Inkscape (http://www.inkscape.org/) -->

<svg
   width="64"
   height="64"
   viewBox="0 0 64 64.000003"
   version="1.1"
   id="svg5"
   sodipodi:docname="winecfg.svg"
   inkscape:version="1.2.1 (9c6d41e410, 2022-07-14)"
   xmlns:inkscape="http://www.inkscape.org/namespaces/inkscape"
   xmlns:sodipodi="http://sodipodi.sourceforge.net/DTD/sodipodi-0.dtd"
   xmlns:xlink="http://www.w3.org/1999/xlink"
   xmlns="http://www.w3.org/2000/svg"
   xmlns:svg="http://www.w3.org/2000/svg">
  <sodipodi:namedview
     id="namedview7"
     pagecolor="#ffffff"
     bordercolor="#666666"
     borderopacity="1.0"
     inkscape:showpageshadow="2"
     inkscape:pageopacity="0.0"
     inkscape:pagecheckerboard="0"
     inkscape:deskcolor="#d1d1d1"
     inkscape:document-units="px"
     showgrid="false"
     inkscape:zoom="3.09375"
     inkscape:cx="-79.030303"
     inkscape:cy="55.919192"
     inkscape:window-width="1920"
     inkscape:window-height="1002"
     inkscape:window-x="0"
     inkscape:window-y="0"
     inkscape:window-maximized="1"
     inkscape:current-layer="svg5" />
  <defs
     id="defs2">
    <linearGradient
       inkscape:collect="always"
       xlink:href="#linearGradient1093"
       id="linearGradient3525"
       x1="50"
       y1="60"
       x2="14"
       y2="4"
       gradientUnits="userSpaceOnUse" />
    <linearGradient
       inkscape:collect="always"
       id="linearGradient1093">
      <stop
         style="stop-color:#981b1b;stop-opacity:1;"
         offset="0"
         id="stop1089" />
      <stop
         style="stop-color:#c75349;stop-opacity:1;"
         offset="1"
         id="stop1091" />
    </linearGradient>
  </defs>
  <rect
     style="fill:url(#linearGradient3525);fill-opacity:1.0;stroke:none"
     id="rect184"
     width="55"
     height="55"
     x="4.5"
     y="4.5"
     ry="9.5" />
  <path
     id="path529"
     style="opacity:0.2;fill:#000000;stroke-width:5"
     d="m 26.999999,13 -0.4375,5.273438 c -1.670753,0.61659 -3.223312,1.511138 -4.59375,2.648436 l -4.789062,-2.25 -4.999999,8.65625 4.351562,3.023438 c -0.156479,0.874794 -0.2434,1.759794 -0.25,2.648438 0.0011,0.891604 0.08238,1.777694 0.234375,2.65625 l -4.335937,3.015626 4.999999,8.656248 4.773438,-2.25 c 1.372689,1.134248 2.929738,2.027574 4.601562,2.640626 L 26.999999,53 H 37 l 0.4375,-5.273438 c 1.670752,-0.616598 3.223311,-1.511138 4.59375,-2.648438 l 4.789062,2.25 5,-8.656248 -4.351562,-3.023438 c 0.15648,-0.87481 0.2434,-1.759794 0.25,-2.648438 -0.0011,-0.891604 -0.08238,-1.777694 -0.234375,-2.65625 l 4.335937,-3.015626 -5,-8.65625 -4.773437,2.25 C 40.674187,19.787622 39.117137,18.8943 37.445311,18.28125 L 36.999999,13 Z M 32,25 a 8,8 0 0 1 8,8 8,8 0 0 1 -8,8 8,8 0 0 1 -8,-8 8,8 0 0 1 8,-8 z m 0,2 c -3.313705,0 -6,2.686296 -6,6 0,3.313704 2.686295,6 6,6 3.313704,0 6,-2.686296 6,-6 0,-3.313704 -2.686296,-6 -6,-6 z" />
  <path
     id="path892"
     style="fill:#ffffff;stroke-width:5"
     d="m 26.999999,12 -0.4375,5.273438 c -1.670754,0.61659 -3.223307,1.511138 -4.59375,2.648436 l -4.789062,-2.249999 -4.999999,8.656249 4.351562,3.023438 c -0.156472,0.874794 -0.243392,1.759794 -0.25,2.648438 0.0011,0.891604 0.08238,1.777694 0.234375,2.65625 l -4.335937,3.015626 4.999999,8.656248 4.773438,-2.25 c 1.372692,1.134248 2.929736,2.027574 4.601562,2.640626 L 26.999999,52 H 37 l 0.4375,-5.273438 c 1.670752,-0.616598 3.223311,-1.511138 4.59375,-2.648438 l 4.789062,2.25 5,-8.656248 -4.351562,-3.023438 c 0.15648,-0.87481 0.2434,-1.759794 0.25,-2.648438 -0.0011,-0.891604 -0.08238,-1.777694 -0.234375,-2.65625 l 4.335937,-3.015626 -5,-8.656249 -4.773437,2.249999 C 40.674183,18.787623 39.117139,17.8943 37.445312,17.28125 L 37,12 Z M 32,24 c 4.418275,0 8,3.581726 8,8 0,4.418274 -3.581725,8 -8,8 -4.418276,0 -8,-3.581726 -8,-8 0,-4.418274 3.581724,-8 8,-8 z m 0,2 c -3.313705,0 -6,2.686296 -6,6 0,3.313704 2.686295,6 6,6 3.313704,0 6,-2.686296 6,-6 0,-3.313704 -2.686296,-6 -6,-6 z"
     sodipodi:nodetypes="cccccccccccccccccccccccccccssssssssss" />
  <path
     id="rect2630"
     style="opacity:0.3;fill:#ffffff;fill-opacity:1"
     d="M 14,5 C 9.014005,5 5,9.014005 5,14 v 1 C 5,10.014005 9.014005,6 14,6 h 36 c 4.985995,0 9,4.014005 9,9 V 14 C 59,9.014005 54.985995,5 50,5 Z" />
  <path
     id="rect899"
     style="fill:#000000;stroke:none;opacity:0.6"
     d="M 14,4 C 8.4600055,4 4,8.4600055 4,14 v 36 c 0,5.539994 4.4600055,10 10,10 h 36 c 5.539994,0 10,-4.460006 10,-10 V 14 C 60,8.4600055 55.539994,4 50,4 Z m 0,1 h 36 c 4.985995,0 9,4.014005 9,9 v 36 c 0,4.985995 -4.014005,9 -9,9 H 14 C 9.014005,59 5,54.985995 5,50 V 14 C 5,9.014005 9.014005,5 14,5 Z" />
  <path
     id="rect398"
     style="opacity:0.3;fill:#ffffff"
     d="M 5 49 L 5 50 C 5 54.985995 9.014005 59 14 59 L 50 59 C 54.985995 59 59 54.985995 59 50 L 59 49 C 59 53.985995 54.985995 58 50 58 L 14 58 C 9.014005 58 5 53.985995 5 49 z " />
</svg>
