<?xml version="1.0" encoding="UTF-8" standalone="no"?>
<!-- Created with Inkscape (http://www.inkscape.org/) -->

<svg
   width="64"
   height="64"
   viewBox="0 0 64 64.000003"
   version="1.1"
   id="svg5"
   sodipodi:docname="winefile.svg"
   inkscape:version="1.2.1 (9c6d41e410, 2022-07-14)"
   xmlns:inkscape="http://www.inkscape.org/namespaces/inkscape"
   xmlns:sodipodi="http://sodipodi.sourceforge.net/DTD/sodipodi-0.dtd"
   xmlns:xlink="http://www.w3.org/1999/xlink"
   xmlns="http://www.w3.org/2000/svg"
   xmlns:svg="http://www.w3.org/2000/svg">
  <sodipodi:namedview
     id="namedview7"
     pagecolor="#ffffff"
     bordercolor="#666666"
     borderopacity="1.0"
     inkscape:showpageshadow="2"
     inkscape:pageopacity="0.0"
     inkscape:pagecheckerboard="0"
     inkscape:deskcolor="#d1d1d1"
     inkscape:document-units="px"
     showgrid="false"
     inkscape:zoom="3.09375"
     inkscape:cx="-79.030303"
     inkscape:cy="55.919192"
     inkscape:window-width="1920"
     inkscape:window-height="1002"
     inkscape:window-x="0"
     inkscape:window-y="0"
     inkscape:window-maximized="1"
     inkscape:current-layer="svg5" />
  <defs
     id="defs2">
    <linearGradient
       inkscape:collect="always"
       xlink:href="#linearGradient1093"
       id="linearGradient3525"
       x1="50"
       y1="60"
       x2="14"
       y2="4"
       gradientUnits="userSpaceOnUse" />
    <linearGradient
       inkscape:collect="always"
       id="linearGradient1093">
      <stop
         style="stop-color:#981b1b;stop-opacity:1;"
         offset="0"
         id="stop1089" />
      <stop
         style="stop-color:#c75349;stop-opacity:1;"
         offset="1"
         id="stop1091" />
    </linearGradient>
  </defs>
  <rect
     style="fill:url(#linearGradient3525);fill-opacity:1.0;stroke:none"
     id="rect184"
     width="55"
     height="55"
     x="4.5"
     y="4.5"
     ry="9.5" />
  <path
     d="m 15,16 c -1.661999,0 -3,1.338001 -3,3 v 28.000001 c 0,1.661998 1.338001,3 3,3 h 34 c 1.661998,0 3,-1.338002 3,-3 V 23.999999 c 0,-1.661998 -1.338002,-3 -3,-3 H 32 L 29,17.5 C 28.163517,16.423606 27.661998,16 26,16 Z"
     style="opacity:0.2;fill:#000000;fill-opacity:1;stroke-width:1.5"
     id="path3778" />
  <path
     d="m 15,15 c -1.661999,0 -3,1.338001 -3,3 v 28 c 0,1.661998 1.338001,3 3,3 h 34 c 1.661998,0 3,-1.338002 3,-3 V 22.999999 c 0,-1.661998 -1.338002,-3 -3,-3 H 32 L 29,16.5 C 28.163517,15.423606 27.661998,15 26,15 Z"
     style="fill:#f5d1d1;fill-opacity:1;stroke-width:1.5"
     id="path3743"
     sodipodi:nodetypes="ssssssssccss" />
  <path
     id="path8818"
     style="opacity:0.1;fill:#000000;fill-opacity:1;stroke-width:1.5"
     d="M 31.539062,19.460938 27,24 H 15 c -1.656851,0 -3,1.343149 -3,3 v 12 c 0,1.661994 1.338007,3 3,3 h 34 c 1.661994,0 3,-1.338006 3,-3 V 23 c 0,-1.661996 -1.338004,-3 -3,-3 H 32 Z"
     sodipodi:nodetypes="ccsssssssscc" />
  <path
     d="m 32,19.999999 -5,5 H 15 c -1.656853,0 -3,1.343147 -3,3 v 18 c 0,1.661996 1.338005,3 3,3 h 34 c 1.661996,0 3,-1.338004 3,-3 v -23 c 0,-1.661995 -1.338004,-3 -3,-3 z"
     style="fill:#ffffff;fill-opacity:1;stroke-width:1.5"
     id="path8353"
     sodipodi:nodetypes="ccssssssssc" />
  <path
     id="rect2630"
     style="opacity:0.3;fill:#ffffff;fill-opacity:1"
     d="M 14,5 C 9.014005,5 5,9.014005 5,14 v 1 C 5,10.014005 9.014005,6 14,6 h 36 c 4.985995,0 9,4.014005 9,9 V 14 C 59,9.014005 54.985995,5 50,5 Z" />
  <path
     id="rect899"
     style="fill:#000000;stroke:none;opacity:0.6"
     d="M 14,4 C 8.4600055,4 4,8.4600055 4,14 v 36 c 0,5.539994 4.4600055,10 10,10 h 36 c 5.539994,0 10,-4.460006 10,-10 V 14 C 60,8.4600055 55.539994,4 50,4 Z m 0,1 h 36 c 4.985995,0 9,4.014005 9,9 v 36 c 0,4.985995 -4.014005,9 -9,9 H 14 C 9.014005,59 5,54.985995 5,50 V 14 C 5,9.014005 9.014005,5 14,5 Z" />
  <path
     id="rect398"
     style="opacity:0.3;fill:#ffffff"
     d="M 5 49 L 5 50 C 5 54.985995 9.014005 59 14 59 L 50 59 C 54.985995 59 59 54.985995 59 50 L 59 49 C 59 53.985995 54.985995 58 50 58 L 14 58 C 9.014005 58 5 53.985995 5 49 z " />
</svg>
