<?xml version="1.0" encoding="UTF-8" standalone="no"?>
<!-- Created with Inkscape (http://www.inkscape.org/) -->

<svg
   width="64"
   height="64"
   viewBox="0 0 64 64.000003"
   version="1.1"
   id="svg5"
   sodipodi:docname="yast-sound.svg"
   inkscape:version="1.2.1 (9c6d41e410, 2022-07-14)"
   xmlns:inkscape="http://www.inkscape.org/namespaces/inkscape"
   xmlns:sodipodi="http://sodipodi.sourceforge.net/DTD/sodipodi-0.dtd"
   xmlns:xlink="http://www.w3.org/1999/xlink"
   xmlns="http://www.w3.org/2000/svg"
   xmlns:svg="http://www.w3.org/2000/svg">
  <sodipodi:namedview
     id="namedview7"
     pagecolor="#ffffff"
     bordercolor="#666666"
     borderopacity="1.0"
     inkscape:showpageshadow="2"
     inkscape:pageopacity="0.0"
     inkscape:pagecheckerboard="0"
     inkscape:deskcolor="#d1d1d1"
     inkscape:document-units="px"
     showgrid="false"
     inkscape:zoom="12.421875"
     inkscape:cx="32"
     inkscape:cy="32"
     inkscape:window-width="1920"
     inkscape:window-height="1007"
     inkscape:window-x="0"
     inkscape:window-y="0"
     inkscape:window-maximized="1"
     inkscape:current-layer="svg5"
     showguides="true" />
  <defs
     id="defs2">
    <linearGradient
       inkscape:collect="always"
       xlink:href="#linearGradient1227"
       id="linearGradient3525"
       x1="50"
       y1="60"
       x2="14"
       y2="4"
       gradientUnits="userSpaceOnUse" />
    <linearGradient
       inkscape:collect="always"
       id="linearGradient1227">
      <stop
         style="stop-color:#565f76;stop-opacity:1;"
         offset="0"
         id="stop1223" />
      <stop
         style="stop-color:#a3a5b6;stop-opacity:1;"
         offset="1"
         id="stop1225" />
    </linearGradient>
  </defs>
  <rect
     style="fill:url(#linearGradient3525);fill-opacity:1.0;stroke:none"
     id="rect184"
     width="55"
     height="55"
     x="4.5"
     y="4.5"
     ry="9.5" />
  <path
     id="path1112"
     style="opacity:0.2;fill:#000000;stroke-width:4;stroke-linecap:round;-inkscape-stroke:none"
     d="m 42.433594,17.281383 c -0.06476,0.0046 -0.128462,0.01412 -0.191406,0.03125 -0.2568,0.06787 -0.476046,0.235115 -0.609376,0.464844 -0.27674,0.478854 -0.11222,1.091412 0.367188,1.367187 4.951792,2.858916 8,8.137634 8,13.855468 0,5.717838 -3.048206,10.996554 -8,13.855468 -0.479412,0.275774 -0.643928,0.888332 -0.367188,1.367188 0.275774,0.479412 0.888332,0.643928 1.367188,0.367188 5.567814,-3.214582 9,-9.160682 9,-15.589844 0,-6.429158 -3.432186,-12.375264 -9,-15.589843 -0.11426,-0.06572 -0.240368,-0.108196 -0.371094,-0.125 -0.06473,-0.0081 -0.130552,-0.0085 -0.195312,-0.0039 z M 30,18.000133 22,25.000132 h -6 c -2.215994,0 -4,1.784006 -4,4 v 8 c 0,2.21599 1.784006,4 4,4 h 6 l 8,7 z m 6.71875,5.089843 c -0.345638,0.02488 -0.659744,0.22784 -0.820312,0.542968 -0.249818,0.491914 -0.05404,1.093212 0.4375,1.34375 3.017286,1.537384 4.914062,4.633152 4.914062,8.019532 0,3.386382 -1.896776,6.482146 -4.914062,8.01953 -0.491548,0.250538 -0.68732,0.851838 -0.4375,1.343752 0.250538,0.491544 0.851838,0.687316 1.34375,0.4375 C 40.92594,40.920038 43.25,37.130602 43.25,32.996226 c 0,-4.134374 -2.32406,-7.923816 -6.007812,-9.800782 -0.11688,-0.0594 -0.244296,-0.09523 -0.375,-0.105468 -0.05037,-0.0039 -0.09906,-0.0036 -0.148438,0 z" />
  <path
     id="path1855"
     style="fill:#ffffff;stroke-width:4;stroke-linecap:round"
     d="m 42.628906,16.285737 c -0.12946,-0.0162 -0.26083,-0.0069 -0.386718,0.02734 -0.2568,0.06787 -0.476046,0.235115 -0.609376,0.464844 -0.27674,0.478855 -0.112224,1.091412 0.367188,1.367187 4.951796,2.85892 8,8.137628 8,13.855468 0,5.717842 -3.048202,10.99655 -8,13.855468 -0.479412,0.275774 -0.643928,0.888332 -0.367188,1.367188 0.275774,0.479412 0.888332,0.643928 1.367188,0.367188 5.56782,-3.214584 9,-9.160678 9,-15.589844 0,-6.429164 -3.43218,-12.375261 -9,-15.589843 -0.11426,-0.06572 -0.240368,-0.108196 -0.371094,-0.125 z M 30,17.000581 22,24.00058 h -6 c -2.215991,0 -4,1.784008 -4,4 v 8 c 0,2.215988 1.784009,4 4,4 h 6 l 8,7 z m 6.867188,5.089843 c -0.402974,-0.03142 -0.785242,0.18282 -0.96875,0.542968 -0.249818,0.491912 -0.05404,1.093212 0.4375,1.34375 3.01729,1.537386 4.914062,4.633148 4.914062,8.019532 0,3.386384 -1.896772,6.482144 -4.914062,8.01953 -0.491548,0.250538 -0.68732,0.851838 -0.4375,1.343752 0.250538,0.491546 0.851838,0.687318 1.34375,0.4375 3.683756,-1.87697 6.007812,-5.666404 6.007812,-9.800782 0,-4.134378 -2.324056,-7.923814 -6.007812,-9.800782 -0.11688,-0.0594 -0.244296,-0.09522 -0.375,-0.10546 z"
     sodipodi:nodetypes="ccccscccsccccsssscccsccscccscss" />
  <path
     id="rect2630"
     style="opacity:0.3;fill:#ffffff;fill-opacity:1"
     d="M 14,5 C 9.014005,5 5,9.014005 5,14 v 1 C 5,10.014005 9.014005,6 14,6 h 36 c 4.985995,0 9,4.014005 9,9 V 14 C 59,9.014005 54.985995,5 50,5 Z" />
  <path
     id="rect899"
     style="fill:#000000;stroke:none;opacity:0.6"
     d="M 14,4 C 8.4600055,4 4,8.4600055 4,14 v 36 c 0,5.539994 4.4600055,10 10,10 h 36 c 5.539994,0 10,-4.460006 10,-10 V 14 C 60,8.4600055 55.539994,4 50,4 Z m 0,1 h 36 c 4.985995,0 9,4.014005 9,9 v 36 c 0,4.985995 -4.014005,9 -9,9 H 14 C 9.014005,59 5,54.985995 5,50 V 14 C 5,9.014005 9.014005,5 14,5 Z" />
  <path
     id="rect398"
     style="opacity:0.3;fill:#ffffff"
     d="M 5 49 L 5 50 C 5 54.985995 9.014005 59 14 59 L 50 59 C 54.985995 59 59 54.985995 59 50 L 59 49 C 59 53.985995 54.985995 58 50 58 L 14 58 C 9.014005 58 5 53.985995 5 49 z " />
</svg>
