<?xml version="1.0" encoding="UTF-8" standalone="no"?>
<!-- Created with Inkscape (http://www.inkscape.org/) -->

<svg
   width="16"
   height="16"
   viewBox="0 0 16 16"
   version="1.1"
   id="svg5"
   inkscape:version="1.2.1 (9c6d41e410, 2022-07-14)"
   sodipodi:docname="nm-signal-75.svg"
   xmlns:inkscape="http://www.inkscape.org/namespaces/inkscape"
   xmlns:sodipodi="http://sodipodi.sourceforge.net/DTD/sodipodi-0.dtd"
   xmlns="http://www.w3.org/2000/svg"
   xmlns:svg="http://www.w3.org/2000/svg">
  <sodipodi:namedview
     id="namedview7"
     pagecolor="#ffffff"
     bordercolor="#666666"
     borderopacity="1.0"
     inkscape:showpageshadow="2"
     inkscape:pageopacity="0.0"
     inkscape:pagecheckerboard="0"
     inkscape:deskcolor="#d1d1d1"
     inkscape:document-units="px"
     showgrid="false"
     showguides="false"
     inkscape:zoom="25.65625"
     inkscape:cx="6.8404385"
     inkscape:cy="8.3995128"
     inkscape:window-width="1920"
     inkscape:window-height="1007"
     inkscape:window-x="0"
     inkscape:window-y="0"
     inkscape:window-maximized="1"
     inkscape:current-layer="svg5" />
  <defs
     id="defs2">
    <inkscape:path-effect
       effect="bspline"
       id="path-effect1577"
       is_visible="true"
       lpeversion="1"
       weight="33.333333"
       steps="2"
       helper_size="0"
       apply_no_weight="true"
       apply_with_weight="true"
       only_selected="false" />
  </defs>
  <path
     d="m 8.000303,3 c -2.8405,-3e-7 -5.4324,1.0071 -7.4863,2.6582 C 0.479318,5.678362 0.447186,5.702625 0.4183,5.730466 0.320205,5.82434 0.2645049,5.9540714 0.264,6.089846 c 0,0.2761424 0.2238576,0.5 0.5,0.5 0.11605054,3.302e-4 0.22860197,-0.039718 0.31836,-0.11328 1.891,-1.5388 4.2898,-2.4766 6.918,-2.4766 2.6282,-3e-7 5.0269,0.93776 6.918,2.4766 0.08976,0.073562 0.202309,0.1136102 0.31836,0.11328 0.276142,0 0.5,-0.2238576 0.5,-0.5 C 15.736215,5.9540714 15.68051,5.8243403 15.58242,5.730466 15.55353,5.702625 15.5214,5.678362 15.48672,5.6582 13.43282,4.0071 10.84082,3 8.00042,3 Z"
     style="fill-rule:evenodd;paint-order:stroke fill markers;fill:#363636;fill-opacity:1;opacity:0.2"
     id="path356" />
  <path
     id="path422"
     style="fill:#363636;fill-opacity:1"
     d="M 8 6 C 5.9269021 6 4.0319172 6.7172456 2.5117188 7.8964844 C 2.4748758 7.9168504 2.4407502 7.9417872 2.4101562 7.9707031 C 2.3108553 8.064713 2.2543889 8.1952893 2.2539062 8.3320312 C 2.2539062 8.6081734 2.4777641 8.8320312 2.7539062 8.8320312 C 2.8708672 8.8322673 2.9842126 8.7914888 3.0742188 8.7167969 C 4.4330174 7.6479979 6.1369019 7 8 7 C 9.863098 6.9999998 11.566983 7.6479579 12.925781 8.7167969 C 13.015791 8.7914888 13.129133 8.8322673 13.246094 8.8320312 C 13.522235 8.8320312 13.746094 8.6081734 13.746094 8.3320312 C 13.745611 8.1952893 13.689144 8.064713 13.589844 7.9707031 C 13.559254 7.9417872 13.525121 7.9168504 13.488281 7.8964844 C 11.968083 6.7172856 10.073098 6 8 6 z M 8 9 C 6.6475014 8.9999998 5.4167616 9.4689201 4.4140625 10.224609 C 4.3037226 10.319579 4.2461137 10.463785 4.2460938 10.609375 C 4.2460938 10.885515 4.469954 11.109375 4.7460938 11.109375 C 4.8704536 11.109049 4.9902213 11.062396 5.0820312 10.978516 C 5.9041804 10.375456 6.9019011 10 8 10 C 9.0980989 9.9999998 10.09577 10.375456 10.917969 10.978516 C 11.009779 11.062396 11.129546 11.109045 11.253906 11.109375 C 11.530046 11.109375 11.753906 10.885515 11.753906 10.609375 C 11.75389 10.463785 11.696287 10.319579 11.585938 10.224609 C 10.583239 9.4689101 9.3524985 9 8 9 z M 8 12 A 1 1 0 0 0 7 13 A 1 1 0 0 0 8 14 A 1 1 0 0 0 9 13 A 1 1 0 0 0 8 12 z " />
</svg>
