<?xml version="1.0" encoding="UTF-8" standalone="no"?>
<!-- Created with Inkscape (http://www.inkscape.org/) -->

<svg
   width="128"
   height="128"
   viewBox="0 0 128 128"
   version="1.1"
   id="svg5"
   inkscape:version="1.2.1 (9c6d41e410, 2022-07-14)"
   sodipodi:docname="application-x-plasma.svg"
   xmlns:inkscape="http://www.inkscape.org/namespaces/inkscape"
   xmlns:sodipodi="http://sodipodi.sourceforge.net/DTD/sodipodi-0.dtd"
   xmlns="http://www.w3.org/2000/svg"
   xmlns:svg="http://www.w3.org/2000/svg">
  <sodipodi:namedview
     id="namedview7"
     pagecolor="#ffffff"
     bordercolor="#000000"
     borderopacity="0.25"
     inkscape:showpageshadow="2"
     inkscape:pageopacity="0.0"
     inkscape:pagecheckerboard="0"
     inkscape:deskcolor="#d1d1d1"
     inkscape:document-units="px"
     showgrid="false"
     inkscape:zoom="6.6949153"
     inkscape:cx="64.003797"
     inkscape:cy="63.929113"
     inkscape:window-width="1920"
     inkscape:window-height="1012"
     inkscape:window-x="0"
     inkscape:window-y="0"
     inkscape:window-maximized="1"
     inkscape:current-layer="svg5" />
  <defs
     id="defs2" />
  <rect
     style="opacity:0.3;fill:#000000;fill-opacity:1;stroke-width:4;stroke-linejoin:round"
     id="rect234"
     width="92"
     height="118"
     x="18"
     y="5"
     ry="1" />
  <rect
     style="fill:#fafafa;fill-opacity:1;stroke-width:6.2691;stroke-linejoin:round"
     id="rect2307"
     width="90"
     height="116"
     x="19"
     y="6" />
  <path
     d="m 48,36 c -2.216,0 -4,1.784 -4,4 0,2.216 1.784,4 4,4 2.216,0 4,-1.784 4,-4 0,-2.216 -1.784,-4 -4,-4 z m 24,0 -8,8 12,11.999996 -12,12 8,8 12,-12 8,-8 L 84,48 Z M 42,55.999996 c -3.323976,0 -6,2.67598 -6,6 0,3.323976 2.676024,6 6,6 3.324024,0 6,-2.676024 6,-6 0,-3.32402 -2.675976,-6 -6,-6 z m 14,20 c -4.432,0 -8,3.568 -8,8 0,4.432 3.568,8 8,8 4.432,0 8,-3.568 8,-8 0,-4.432 -3.568,-8 -8,-8 z"
     style="fill:#3daee9;fill-opacity:1;stroke-width:4"
     id="path360"
     sodipodi:nodetypes="ssssscccccccccssssssssss" />
</svg>
