<?xml version="1.0" encoding="UTF-8" standalone="no"?>
<!-- Created with Inkscape (http://www.inkscape.org/) -->

<svg
   width="128"
   height="128"
   viewBox="0 0 128 128"
   version="1.1"
   id="svg5"
   inkscape:version="1.2.1 (9c6d41e410, 2022-07-14)"
   sodipodi:docname="application-octet-stream.svg"
   xmlns:inkscape="http://www.inkscape.org/namespaces/inkscape"
   xmlns:sodipodi="http://sodipodi.sourceforge.net/DTD/sodipodi-0.dtd"
   xmlns="http://www.w3.org/2000/svg"
   xmlns:svg="http://www.w3.org/2000/svg">
  <sodipodi:namedview
     id="namedview7"
     pagecolor="#ffffff"
     bordercolor="#000000"
     borderopacity="0.25"
     inkscape:showpageshadow="2"
     inkscape:pageopacity="0.0"
     inkscape:pagecheckerboard="0"
     inkscape:deskcolor="#d1d1d1"
     inkscape:document-units="px"
     showgrid="false"
     inkscape:zoom="6.6949153"
     inkscape:cx="64.153164"
     inkscape:cy="64.003797"
     inkscape:window-width="1920"
     inkscape:window-height="1007"
     inkscape:window-x="0"
     inkscape:window-y="0"
     inkscape:window-maximized="1"
     inkscape:current-layer="svg5" />
  <defs
     id="defs2" />
  <rect
     style="opacity:0.3;fill:#000000;fill-opacity:1;stroke-width:4;stroke-linejoin:round"
     id="rect234"
     width="92"
     height="118"
     x="18"
     y="5"
     ry="1" />
  <rect
     style="fill:#fafafa;fill-opacity:1;stroke-width:6.2691;stroke-linejoin:round"
     id="rect2307"
     width="90"
     height="116"
     x="19"
     y="6" />
  <path
     d="m 40,20 v 7.999998 h 8 V 20 Z m 8,7.999998 v 8 h 8 v -8 z m 8,0 h 8 V 20 h -8 z m 8,0 v 8 h 8 v -8 z m 8,0 h 8 V 20 h -8 z m 8,0 v 8 h 8 v -8 z m 8,0 h 8 V 20 h -8 z m 0,8 v 8 h 8 v -8 z m 0,8 h -8 v 8 h 8 z m 0,8 v 8 h 8 v -8 z m 0,8 h -8 v 8 h 8 z m 0,8 v 8 h 8 v -8 z m 0,8 h -8 v 8 h 8 z m 0,8 v 8 h 8 v -8 z m 0,8 h -8 v 8 h 8 z m 0,8 V 108 h 8 v -8.000002 z m -8,0 H 72 V 108 h 8 z m -8,0 v -8 h -8 v 8 z m -8,0 H 56 V 108 h 8 z m -8,0 v -8 h -8 v 8 z m -8,0 H 40 V 108 h 8 z m -8,0 v -8 h -8 v 8 z m 0,-8 h 8 v -8 h -8 z m 0,-8 v -8 h -8 v 8 z m 0,-8 h 8 v -8 h -8 z m 0,-8 v -8 h -8 v 8 z m 0,-8 h 8 v -8 h -8 z m 0,-8 v -8 h -8 v 8 z m 0,-8 h 8 v -8 h -8 z m 0,-8 v -8 h -8 v 8 z m 8,8 v 8 h 8 v -8 z m 8,0 h 8 v -8 h -8 z m 8,0 v 8 h 8 v -8 z m 8,0 h 8 v -8 h -8 z m 0,8 v 8 h 8 v -8 z m 0,8 h -8 v 8 h 8 z m 0,8 v 8 h 8 v -8 z m 0,8 h -8 v 8 h 8 z m 0,8 v 8 h 8 v -8 z m -8,0 h -8 v 8 h 8 z m -8,0 v -8 h -8 v 8 z m 0,-8 h 8 v -8 h -8 z m 0,-8 v -8 h -8 v 8 z m 0,-8 h 8 v -8 h -8 z"
     style="color:#000000;display:inline;overflow:visible;visibility:visible;opacity:0.2;fill:#000000;fill-opacity:1;fill-rule:nonzero;stroke:none;stroke-width:1.97085;marker:none;enable-background:accumulate"
     id="path5692" />
</svg>
