<?xml version="1.0" encoding="UTF-8" standalone="no"?>
<!-- Created with Inkscape (http://www.inkscape.org/) -->

<svg
   width="128"
   height="128"
   viewBox="0 0 128 128"
   version="1.1"
   id="svg5"
   inkscape:version="1.2.1 (9c6d41e410, 2022-07-14)"
   sodipodi:docname="application-x-theme.svg"
   xmlns:inkscape="http://www.inkscape.org/namespaces/inkscape"
   xmlns:sodipodi="http://sodipodi.sourceforge.net/DTD/sodipodi-0.dtd"
   xmlns="http://www.w3.org/2000/svg"
   xmlns:svg="http://www.w3.org/2000/svg">
  <sodipodi:namedview
     id="namedview7"
     pagecolor="#ffffff"
     bordercolor="#000000"
     borderopacity="0.25"
     inkscape:showpageshadow="2"
     inkscape:pageopacity="0.0"
     inkscape:pagecheckerboard="0"
     inkscape:deskcolor="#d1d1d1"
     inkscape:document-units="px"
     showgrid="false"
     inkscape:zoom="6.6949153"
     inkscape:cx="64.153164"
     inkscape:cy="64.003797"
     inkscape:window-width="1920"
     inkscape:window-height="1007"
     inkscape:window-x="0"
     inkscape:window-y="0"
     inkscape:window-maximized="1"
     inkscape:current-layer="svg5" />
  <defs
     id="defs2" />
  <rect
     style="opacity:0.3;fill:#000000;fill-opacity:1;stroke-width:4;stroke-linejoin:round"
     id="rect234"
     width="92"
     height="118"
     x="18"
     y="5"
     ry="1" />
  <rect
     style="fill:#fafafa;fill-opacity:1;stroke-width:6.2691;stroke-linejoin:round"
     id="rect2307"
     width="90"
     height="116"
     x="19"
     y="6" />
  <path
     d="m 90.296046,36.026423 c -4.216226,-0.531476 -15.21473,7.007456 -26.054288,17.85129 -4.833804,4.836724 -9.028934,9.616452 -12.242002,14.124784 3.765766,1.19978 6.800726,4.232736 7.999878,7.99988 4.506616,-3.213996 9.297192,-7.390856 14.132596,-12.22638 12.297902,-12.303008 20.051926,-24.490988 17.320046,-27.226146 -0.2808,-0.2828 -0.66388,-0.460276 -1.15623,-0.523428 z M 49.999788,73.322729 v 0.008 C 36.000756,77.083479 46.499256,85.948263 36,92.002169 c 13.999032,0 20.999682,-7.007182 20.999682,-11.679506 0,-2.329084 0.237408,-6.612296 -6.999894,-6.999892 z"
     style="color:#444444;fill:#a47fdc;fill-opacity:1;stroke-width:3.99992"
     id="path347"
     sodipodi:nodetypes="ccccccccccscc" />
</svg>
