<?xml version="1.0" encoding="UTF-8" standalone="no"?>
<!-- Created with Inkscape (http://www.inkscape.org/) -->

<svg
   width="128"
   height="128"
   viewBox="0 0 128 128"
   version="1.1"
   id="svg5"
   inkscape:version="1.2.1 (9c6d41e410, 2022-07-14)"
   sodipodi:docname="application-x-java.svg"
   xmlns:inkscape="http://www.inkscape.org/namespaces/inkscape"
   xmlns:sodipodi="http://sodipodi.sourceforge.net/DTD/sodipodi-0.dtd"
   xmlns="http://www.w3.org/2000/svg"
   xmlns:svg="http://www.w3.org/2000/svg">
  <sodipodi:namedview
     id="namedview7"
     pagecolor="#ffffff"
     bordercolor="#000000"
     borderopacity="0.25"
     inkscape:showpageshadow="2"
     inkscape:pageopacity="0.0"
     inkscape:pagecheckerboard="0"
     inkscape:deskcolor="#d1d1d1"
     inkscape:document-units="px"
     showgrid="false"
     inkscape:zoom="1"
     inkscape:cx="67"
     inkscape:cy="85"
     inkscape:window-width="1920"
     inkscape:window-height="1012"
     inkscape:window-x="0"
     inkscape:window-y="0"
     inkscape:window-maximized="1"
     inkscape:current-layer="svg5" />
  <defs
     id="defs2" />
  <rect
     style="opacity:0.3;fill:#000000;fill-opacity:1;stroke-width:4;stroke-linejoin:round"
     id="rect234"
     width="92"
     height="118"
     x="18.000374"
     y="5"
     ry="1" />
  <rect
     style="fill:#fafafa;fill-opacity:1;stroke-width:6.26909;stroke-linejoin:round"
     id="rect2307"
     width="90"
     height="116"
     x="19.000374"
     y="6" />
  <path
     d="m 70.004343,34 c 2.514404,9.905524 -8.869163,12.897441 -12.977568,19.066471 -2.797722,4.203196 1.373348,8.719493 7.060031,13.849896 -2.217555,-5.012934 -9.737713,-9.398306 0.003,-17.092019 C 76.23662,40.236308 70.004093,34 70.004093,34 Z m 7.515165,12.255668 c 1.36e-4,0 -20.53975,5.128587 -10.730227,16.432102 2.895838,3.333439 -0.75962,6.330722 -0.75962,6.330722 0,0 7.348561,-3.792656 3.974456,-8.544875 -3.152549,-4.429517 -5.569214,-6.629988 7.515696,-14.218025 z"
     style="clip-rule:evenodd;fill:#df9043;fill-opacity:1;stroke-width:1.91783;enable-background:new"
     id="path6360"
     sodipodi:nodetypes="cccccccccccc" />
  <path
     d="m 81.156975,66.446944 c -0.72167,0.0024 -1.48802,0.127605 -2.27417,0.403884 -0.63028,0.223148 -0.96107,0.741857 -0.96107,0.741857 0,0 0.39852,-0.160394 1.28694,-0.345833 3.63324,-0.757049 8.83893,4.863791 -2.41855,10.712087 -0.0521,0.139404 -0.22511,0.295564 -0.22496,0.295564 13.38803,-3.519469 10.46868,-11.818748 4.59174,-11.807411 z m -24.12128,0.570791 c -0.881852,-0.02043 -4.69424,0.03628 -9.250144,2.240156 -6.159207,2.97816 15.232465,4.334875 26.307391,1.421954 1.151413,-0.785773 2.741863,-1.46799 2.741863,-1.46799 0,0 -4.529757,0.809812 -9.043029,1.188603 -5.524386,0.463453 -11.450616,0.554996 -14.425145,0.156943 -7.042873,-0.94157 3.860915,-3.531792 3.860915,-3.531792 0,0 -0.06576,-0.0052 -0.192,-0.0076 z m -2.346891,6.814131 c -10.16027,3.372065 5.655989,7.198891 19.855645,3.045281 -1.508731,-0.531786 -2.466702,-1.505101 -2.466702,-1.505101 -6.942789,1.336154 -10.953227,1.293446 -16.032981,0.769066 -3.927137,-0.405925 -1.356568,-2.309246 -1.356568,-2.309246 z m 1.436089,6.56823 c -9.225201,2.577673 5.612901,7.902348 17.359613,2.869532 -1.923883,-0.7476 -3.30373,-1.610782 -3.30373,-1.610782 -5.238197,0.990099 -7.668016,1.068111 -12.422727,0.525287 -3.924187,-0.450072 -1.632779,-1.783964 -1.632779,-1.783964 z m -6.407599,4.354755 c -4.142875,0.127826 -12.245085,3.852829 -4.83552,5.055263 23.947422,3.881708 43.653401,-1.748431 37.442041,-4.550916 0,0 1.69657,1.398823 -1.86818,2.480312 -6.778447,2.053144 -28.218345,2.672391 -34.173451,0.08209 -2.139167,-0.931742 1.874069,-2.223225 3.136826,-2.49596 1.316653,-0.284828 2.068563,-0.23282 2.068563,-0.23282 -0.371986,-0.261927 -1.003704,-0.361632 -1.770883,-0.337971 z m 36.408701,3.560063 c 0,0 -0.75486,1.938092 -8.92888,3.475854 -9.22218,1.736184 -20.598718,1.533754 -27.343757,0.420134 0,0 1.381589,1.14386 8.482133,1.60088 10.803556,0.69068 27.398184,-0.38431 27.791254,-5.496792 z"
     style="clip-rule:evenodd;fill:#65768d;fill-opacity:1;stroke-width:1.91783;enable-background:new"
     id="path1280" />
</svg>
