<?xml version="1.0" encoding="UTF-8" standalone="no"?>
<!-- Created with Inkscape (http://www.inkscape.org/) -->

<svg
   width="128"
   height="128"
   viewBox="0 0 128 128"
   version="1.1"
   id="svg5"
   inkscape:version="1.2.1 (9c6d41e410, 2022-07-14)"
   sodipodi:docname="application-x-sqlite2.svg"
   xmlns:inkscape="http://www.inkscape.org/namespaces/inkscape"
   xmlns:sodipodi="http://sodipodi.sourceforge.net/DTD/sodipodi-0.dtd"
   xmlns="http://www.w3.org/2000/svg"
   xmlns:svg="http://www.w3.org/2000/svg">
  <sodipodi:namedview
     id="namedview7"
     pagecolor="#ffffff"
     bordercolor="#000000"
     borderopacity="0.25"
     inkscape:showpageshadow="2"
     inkscape:pageopacity="0.0"
     inkscape:pagecheckerboard="0"
     inkscape:deskcolor="#d1d1d1"
     inkscape:document-units="px"
     showgrid="false"
     inkscape:zoom="6.6949153"
     inkscape:cx="63.929113"
     inkscape:cy="64.003797"
     inkscape:window-width="1920"
     inkscape:window-height="1007"
     inkscape:window-x="0"
     inkscape:window-y="0"
     inkscape:window-maximized="1"
     inkscape:current-layer="svg5" />
  <defs
     id="defs2" />
  <rect
     style="opacity:0.3;fill:#000000;fill-opacity:1;stroke-width:4;stroke-linejoin:round"
     id="rect234"
     width="92"
     height="118"
     x="18"
     y="5"
     ry="1" />
  <rect
     style="fill:#fafafa;fill-opacity:1;stroke-width:6.2691;stroke-linejoin:round"
     id="rect2307"
     width="90"
     height="116"
     x="19"
     y="6" />
  <path
     d="m 64.000002,30.222221 c -15.136,0 -32,5.111116 -32,12.444448 0,7.333336 16.864,12.444444 32,12.444444 15.136,0 31.999995,-5.111108 31.999995,-12.444444 0,-7.333332 -16.863995,-12.444448 -31.999995,-12.444448 z m -32,19.444448 v 7.222224 c 0,7.333332 16.864,12.444444 32,12.444444 15.136,0 31.999995,-5.111112 31.999995,-12.444444 v -7.222224 c -5.69023,5.350864 -17.706595,9 -31.999995,9 -14.2934,0 -26.30976,-3.649136 -32,-9 z m 0,14.222224 v 7.22222 c 0,7.333336 16.864,12.444444 32,12.444444 15.136,0 31.999995,-5.111108 31.999995,-12.444444 v -7.22222 c -5.69023,5.35086 -17.706595,9 -31.999995,9 -14.2934,0 -26.30976,-3.64914 -32,-9 z m 0,14.22222 v 7.222224 c 0,7.333332 16.864,12.444442 32,12.444442 15.136,0 31.999995,-5.11111 31.999995,-12.444442 v -7.222224 c -5.69023,5.350864 -17.706595,9 -31.999995,9 -14.2934,0 -26.30976,-3.649136 -32,-9 z"
     style="color:#000000;display:inline;overflow:visible;visibility:visible;fill:#25b99e;fill-opacity:1;fill-rule:nonzero;stroke:none;stroke-width:80;marker:none;enable-background:new"
     id="path8027" />
</svg>
