<?xml version="1.0" encoding="UTF-8" standalone="no"?>
<!-- Created with Inkscape (http://www.inkscape.org/) -->

<svg
   width="128"
   height="128"
   viewBox="0 0 128 128"
   version="1.1"
   id="svg5"
   inkscape:version="1.2.1 (9c6d41e410, 2022-07-14)"
   sodipodi:docname="application-pdf.svg"
   xmlns:inkscape="http://www.inkscape.org/namespaces/inkscape"
   xmlns:sodipodi="http://sodipodi.sourceforge.net/DTD/sodipodi-0.dtd"
   xmlns="http://www.w3.org/2000/svg"
   xmlns:svg="http://www.w3.org/2000/svg">
  <sodipodi:namedview
     id="namedview7"
     pagecolor="#ffffff"
     bordercolor="#000000"
     borderopacity="0.25"
     inkscape:showpageshadow="2"
     inkscape:pageopacity="0.0"
     inkscape:pagecheckerboard="0"
     inkscape:deskcolor="#d1d1d1"
     inkscape:document-units="px"
     showgrid="false"
     inkscape:zoom="6.25"
     inkscape:cx="63.92"
     inkscape:cy="64"
     inkscape:window-width="1920"
     inkscape:window-height="1012"
     inkscape:window-x="0"
     inkscape:window-y="0"
     inkscape:window-maximized="1"
     inkscape:current-layer="svg5" />
  <defs
     id="defs2" />
  <rect
     style="opacity:0.3;fill:#000000;fill-opacity:1;stroke-width:4;stroke-linejoin:round"
     id="rect234"
     width="92"
     height="118"
     x="18"
     y="5"
     ry="1" />
  <rect
     style="fill:#fafafa;fill-opacity:1;stroke-width:6.2691;stroke-linejoin:round"
     id="rect2307"
     width="90"
     height="116"
     x="19"
     y="6" />
  <path
     d="m 76.330078,5.00005 c -0.276142,0 -0.5,0.223857 -0.5,0.5 0,0.276142 0.223858,0.5 0.5,0.5 l 32.003902,0.0019 c 0.27615,0 0.5,-0.223858 0.5,-0.5 0,-0.276142 -0.22385,-0.5 -0.5,-0.5 z M 18.5,41.940992 c -0.276142,0 -0.5,0.223858 -0.5,0.5 v 11.916016 c 0,0.276142 0.223858,0.5 0.5,0.5 0.276142,0 0.5,-0.223858 0.5,-0.5 V 42.440992 c 0,-0.276142 -0.223858,-0.5 -0.5,-0.5 z m 0,27.506719 c -0.276142,0 -0.5,0.223858 -0.5,0.5 v 11.642578 c 0,0.276142 0.223858,0.5 0.5,0.5 0.276142,0 0.5,-0.223858 0.5,-0.5 V 69.947711 c 0,-0.276142 -0.223858,-0.5 -0.5,-0.5 z m 91,8.335867 c -0.27614,0 -0.5,0.223858 -0.5,0.5 V 121.99842 H 74.99 c -0.276142,0 -0.5,0.22386 -0.5,0.5 0,0.27614 0.223858,0.5 0.5,0.5 h 34.51 c 0.27613,-3e-5 0.49997,-0.22387 0.5,-0.5 V 78.283578 c 0,-0.276142 -0.22386,-0.5 -0.5,-0.5 z M 60.107422,121.95936 c -0.276146,-0.002 -0.501757,0.21995 -0.503906,0.49609 -0.0022,0.27615 0.219947,0.50176 0.496093,0.50391 l 9.912438,0.0391 c 0.276146,0.002 0.501757,-0.21995 0.503906,-0.49609 0.0022,-0.27615 -0.219948,-0.50176 -0.496094,-0.50391 z"
     style="color:#000000;opacity:0.2;fill:#410000;stroke-linecap:round;stroke-linejoin:round;-inkscape-stroke:none"
     id="path3374"
     sodipodi:nodetypes="csccsccsssssssssssssssscsssccssccccccc" />
  <path
     d="M 75.749999,6.0000012 C 48.852922,29.079159 30.820617,38.66526 19,42.625 v 12.25 C 25.569502,52.940525 32.713951,49.744788 41.1875,44.4375 60.682666,32.226977 83.9375,9.0625012 83.9375,9.0625012 77.54548,21.600835 74.686012,64.826775 74.5625,122 H 109 V 77.9375 c -1.5105,-6.723755 -2.85837,-13.526746 -4.0625,-20.0625 -3.17194,-24.070127 2.51349,-45.094689 4.25,-51.8749988 -0.45185,-5.07e-5 -20.32882,0.00136 -33.437501,0 z M 19,69.687499 V 81.500001 C 34.009293,87.695299 50.419174,103.66756 59.9375,122 H 70.187499 C 65.676633,105.19076 37.442629,79.83642 19,69.687499 Z"
     style="color:#000000;clip-rule:nonzero;display:inline;overflow:visible;visibility:visible;isolation:auto;mix-blend-mode:normal;color-interpolation:sRGB;color-interpolation-filters:linearRGB;solid-color:#000000;solid-opacity:1;fill:#df554a;fill-opacity:1;fill-rule:nonzero;stroke:none;stroke-width:2;stroke-linecap:butt;stroke-linejoin:miter;stroke-miterlimit:4;stroke-dasharray:none;stroke-dashoffset:0;stroke-opacity:1;marker:none;color-rendering:auto;image-rendering:auto;shape-rendering:auto;text-rendering:auto;enable-background:accumulate"
     id="path433"
     sodipodi:nodetypes="cccscccccccccccc" />
</svg>
