<?xml version="1.0" encoding="UTF-8" standalone="no"?>
<!-- Created with Inkscape (http://www.inkscape.org/) -->

<svg
   width="128"
   height="128"
   viewBox="0 0 128 128"
   version="1.1"
   id="svg5"
   inkscape:version="1.2.1 (9c6d41e410, 2022-07-14)"
   sodipodi:docname="application-x-sharedlib.svg"
   xmlns:inkscape="http://www.inkscape.org/namespaces/inkscape"
   xmlns:sodipodi="http://sodipodi.sourceforge.net/DTD/sodipodi-0.dtd"
   xmlns="http://www.w3.org/2000/svg"
   xmlns:svg="http://www.w3.org/2000/svg">
  <sodipodi:namedview
     id="namedview7"
     pagecolor="#ffffff"
     bordercolor="#000000"
     borderopacity="0.25"
     inkscape:showpageshadow="2"
     inkscape:pageopacity="0.0"
     inkscape:pagecheckerboard="0"
     inkscape:deskcolor="#d1d1d1"
     inkscape:document-units="px"
     showgrid="false"
     inkscape:zoom="6.25"
     inkscape:cx="63.92"
     inkscape:cy="64"
     inkscape:window-width="1920"
     inkscape:window-height="1012"
     inkscape:window-x="0"
     inkscape:window-y="0"
     inkscape:window-maximized="1"
     inkscape:current-layer="svg5" />
  <defs
     id="defs2" />
  <rect
     style="opacity:0.3;fill:#000000;fill-opacity:1;stroke-width:4;stroke-linejoin:round"
     id="rect234"
     width="92"
     height="118"
     x="18"
     y="5"
     ry="1" />
  <rect
     style="fill:#fafafa;fill-opacity:1;stroke-width:6.2691;stroke-linejoin:round"
     id="rect2307"
     width="90"
     height="116"
     x="19"
     y="6" />
  <path
     d="m 63.60983,37.912153 c 0,0 -0.589,0.196 -1.99292,1.13316 -1.71684,1.14584 -2.68348,0.93736 -3.81832,0.62228 l -0.008,0.008 c -0.2092,-0.1236 -0.42204,-0.2412 -0.63888,-0.3492 l 9.6e-4,-0.008 c -0.88248,-0.77964 -1.58348,-1.4776 -1.5576,-3.5416 0.02,-1.68716 -0.1348,-2.28872 -0.1348,-2.28872 -0.60072,-0.3396 -1.4562,-0.42968 -1.4562,-0.42968 0,0 -0.85576,-0.09 -1.51352,0.1176 0,0 -0.278,0.5554 -0.608,2.21044 -0.40376,2.0242 -1.23496,2.56084 -2.25988,3.14036 l -0.002,0.012 c -0.2344,0.0608 -0.46608,0.1316 -0.69752,0.2088 l -0.008,-0.008 c -1.17548,0.0724 -2.16468,0.0748 -3.60588,-1.40284 -1.17788,-1.20804 -1.71372,-1.52276 -1.71372,-1.52276 -0.6634,0.1832 -1.33176,0.72448 -1.33176,0.72448 0,0 -0.66864,0.54152 -0.987,1.15356 0,0 0.196,0.58968 1.13304,1.993 1.14576,1.7168 0.93744,2.68428 0.62248,3.81864 l 0.008,0.008 c -0.1232,0.2096 -0.2408,0.42216 -0.3496,0.6386 l -0.008,-8.4e-4 c -0.77948,0.88268 -1.47744,1.58364 -3.54132,1.558 -1.68708,-0.02 -2.28912,0.1356 -2.28912,0.1356 -0.3396,0.60096 -0.42948,1.45524 -0.42948,1.45524 0,0 -0.092,0.856 0.1176,1.5138 0,0 0.55524,0.2784 2.21028,0.60784 2.02404,0.40396 2.55996,1.2356 3.13996,2.26024 l 0.008,8.4e-4 c 0.0612,0.2348 0.132,0.46652 0.2088,0.6976 l -0.008,0.008 c 0.0732,1.17544 0.0752,2.16444 -1.40248,3.60548 -1.208,1.1782 -1.52284,1.71488 -1.52284,1.71488 0.1852,0.66492 0.72568,1.3326 0.72568,1.3326 0,0 0.54172,0.66892 1.1536,0.98704 0,0 0.58932,-0.1956 1.99272,-1.13296 1.71692,-1.1456 2.68404,-0.93656 3.8186,-0.62236 l 0.008,-0.008 c 0.2108,0.1236 0.42212,0.2412 0.63896,0.3492 l -0.002,0.012 c 0.88276,0.7796 1.58364,1.47744 1.558,3.54124 -0.02,1.6872 0.1352,2.28936 0.1352,2.28936 0.60104,0.3392 1.45548,0.42932 1.45548,0.42932 0,0 0.85616,0.09 1.5136,-0.118 0,0 0.278,-0.55472 0.60796,-2.21004 0.40456,-2.024 1.23592,-2.56016 2.26,-3.14012 l -4e-4,-0.012 c 0.2344,-0.0608 0.46636,-0.132 0.6976,-0.2088 l 0.008,0.008 c 1.1754,-0.0728 2.16444,-0.0752 3.6056,1.4026 1.17792,1.208 1.71452,1.52304 1.71452,1.52304 0.66508,-0.1852 1.3328,-0.72604 1.3328,-0.72604 0,0 0.66896,-0.54164 0.98712,-1.1536 0,0 -0.1956,-0.58944 -1.1332,-1.99288 -1.1458,-1.7168 -0.9366,-2.68408 -0.62224,-3.8184 l -0.008,-0.008 c 0.1232,-0.2104 0.2408,-0.42224 0.3492,-0.63888 l 0.012,0.0013 c 0.77964,-0.88252 1.47756,-1.58348 3.54144,-1.55784 1.68736,0.02 2.28956,-0.1356 2.28956,-0.1356 0.3392,-0.60104 0.42908,-1.45572 0.42908,-1.45572 0,0 0.0916,-0.8556 -0.1176,-1.51376 0,0 -0.55552,-0.2784 -2.21056,-0.608 -2.02432,-0.4038 -2.5606,-1.23496 -3.1404,-2.25988 l -0.008,-8.4e-4 c -0.0608,-0.2344 -0.1312,-0.46644 -0.2092,-0.69756 l 0.008,-0.008 c -0.0728,-1.175 -0.0756,-2.1644 1.40248,-3.60556 1.20808,-1.17796 1.52324,-1.71428 1.52324,-1.71428 -0.1848,-0.66476 -0.72612,-1.33316 -0.72612,-1.33316 0,0 -0.54164,-0.66888 -1.1536,-0.98704 z m -6.5718,16.87208 c -3.21188,2.60096 -7.92388,2.10576 -10.52488,-1.10612 -2.60096,-3.21192 -2.10568,-7.92396 1.10608,-10.52496 3.21184,-2.60088 7.92392,-2.10568 10.52488,1.10624 2.60096,3.21192 2.10564,7.92396 -1.10612,10.52488 z m 24.26428,3.10552 c 0,0 -0.63252,0.44936 -1.96816,2.08288 -1.63348,1.99716 -2.86524,2.10116 -4.33688,2.13928 l -0.008,0.012 c -0.2948,-0.0712 -0.59256,-0.134 -0.89132,-0.184 l -0.002,-0.012 c -1.33984,-0.60944 -2.43288,-1.18752 -3.1562,-3.66424 -0.5916,-2.02444 -0.99796,-2.68648 -0.99796,-2.68648 -0.84224,-0.1864 -1.89772,0.02 -1.89772,0.02 0,0 -1.05576,0.2052 -1.76616,0.6938 0,0 -0.1296,0.76556 0.082,2.86448 0.2572,2.56716 -0.54036,3.51248 -1.5538,4.57976 l 8.4e-4,0.016 c -0.2576,0.158 -0.50908,0.3276 -0.75752,0.50448 l -0.008,-0.008 c -1.37856,0.5162 -2.56024,0.88052 -4.82296,-0.3592 -1.84952,-1.01356 -2.605,-1.19392 -2.605,-1.19392 -0.72608,0.46148 -1.3272,1.35272 -1.3272,1.35272 0,0 -0.6014,0.89164 -0.75824,1.7396 0,0 0.44988,0.6332 2.08268,1.96828 1.99708,1.63344 2.1016,2.86608 2.13972,4.33716 l 0.012,0.008 c -0.0708,0.2956 -0.1336,0.59268 -0.184,0.89104 l -0.008,0.0015 c -0.60916,1.34 -1.1874,2.433 -3.66384,3.1566 -2.02444,0.59112 -2.68676,0.9986 -2.68676,0.9986 -0.1864,0.84244 0.016,1.89648 0.016,1.89648 0,0 0.2056,1.0562 0.69384,1.76656 0,0 0.76548,0.13 2.86424,-0.0812 2.56708,-0.2568 3.5116,0.54144 4.57944,1.55424 l 0.012,-0.002 c 0.1584,0.258 0.328,0.50948 0.50424,0.75764 l -0.008,0.012 c 0.51728,1.37832 0.88056,2.55992 -0.3588,4.8224 -1.01344,1.84988 -1.19364,2.60644 -1.19364,2.60644 0.46408,0.72724 1.35448,1.32772 1.35448,1.32772 0,0 0.892,0.60164 1.7396,0.75828 0,0 0.63312,-0.44908 1.968,-2.08252 1.63368,-1.99692 2.8662,-2.10044 4.33716,-2.13952 l 0.008,-0.012 c 0.2968,0.0708 0.59288,0.134 0.89144,0.184 l 8.4e-4,0.016 c 1.34016,0.60928 2.43304,1.18732 3.15656,3.66368 0.5912,2.024598 0.9986,2.687118 0.9986,2.687118 0.8424,0.1856 1.89676,-0.02 1.89676,-0.02 0,0 1.0562,-0.2056 1.76612,-0.69444 0,0 0.1296,-0.76468 -0.078,-2.864038 -0.2564,-2.56712 0.54168,-3.51196 1.55396,-4.57952 l -0.004,-0.012 c 0.258,-0.158 0.50916,-0.3284 0.75752,-0.50456 l 0.012,0.008 c 1.37828,-0.5168 2.55976,-0.88076 4.82256,0.3588 1.84956,1.01348 2.60596,1.19396 2.60596,1.19396 0.72732,-0.46456 1.32792,-1.35496 1.32792,-1.35496 0,0 0.60164,-0.89192 0.75836,-1.73972 0,0 -0.44908,-0.63312 -2.08288,-1.96808 -1.99712,-1.63344 -2.1006,-2.86612 -2.13928,-4.33696 l -0.008,-0.008 c 0.0708,-0.2968 0.134,-0.59284 0.1836,-0.89124 l 0.012,-0.002 c 0.60936,-1.33984 1.18744,-2.4328 3.66392,-3.1564 2.02476,-0.5912 2.68736,-0.99864 2.68736,-0.99864 0.1856,-0.8424 -0.02,-1.8968 -0.02,-1.8968 0,0 -0.2052,-1.0558 -0.6938,-1.76652 0,0 -0.76568,-0.1296 -2.8646,0.0812 -2.56724,0.2572 -3.51212,-0.54044 -4.57976,-1.55372 l -0.012,0.002 c -0.1584,-0.258 -0.3272,-0.5096 -0.50504,-0.7574 l 0.008,-0.012 c -0.516,-1.378 -0.881,-2.55968 0.3588,-4.82252 1.01352,-1.84952 1.19432,-2.60584 1.19432,-2.60584 -0.46404,-0.72704 -1.35516,-1.32824 -1.35516,-1.32824 0,0 -0.89196,-0.60156 -1.73976,-0.75828 z m -1.68964,22.56996 c -2.88884,4.28288 -8.70244,5.413 -12.98532,2.52416 -4.28284,-2.88888 -5.41288,-8.70244 -2.52408,-12.98536 2.8888,-4.2828 8.7024,-5.41292 12.98532,-2.52404 4.28288,2.88884 5.41292,8.70244 2.52408,12.98524 z"
     style="display:inline;fill:#929292;fill-opacity:1;stroke:none;stroke-width:2;enable-background:new"
     id="path1900" />
</svg>
