<?xml version="1.0" encoding="UTF-8" standalone="no"?>
<!-- Created with Inkscape (http://www.inkscape.org/) -->

<svg
   width="128"
   height="128"
   viewBox="0 0 128 128"
   version="1.1"
   id="svg4041"
   sodipodi:docname="application-x-deb.svg"
   inkscape:version="1.2.1 (9c6d41e410, 2022-07-14)"
   xmlns:inkscape="http://www.inkscape.org/namespaces/inkscape"
   xmlns:sodipodi="http://sodipodi.sourceforge.net/DTD/sodipodi-0.dtd"
   xmlns="http://www.w3.org/2000/svg"
   xmlns:svg="http://www.w3.org/2000/svg">
  <sodipodi:namedview
     id="namedview4043"
     pagecolor="#ffffff"
     bordercolor="#000000"
     borderopacity="0.25"
     inkscape:showpageshadow="2"
     inkscape:pageopacity="0.0"
     inkscape:pagecheckerboard="0"
     inkscape:deskcolor="#d1d1d1"
     inkscape:document-units="px"
     showgrid="false"
     showguides="false"
     inkscape:zoom="6.2109375"
     inkscape:cx="64"
     inkscape:cy="64"
     inkscape:window-width="1920"
     inkscape:window-height="1007"
     inkscape:window-x="0"
     inkscape:window-y="0"
     inkscape:window-maximized="1"
     inkscape:current-layer="svg4041" />
  <defs
     id="defs4038" />
  <rect
     style="opacity:0.6;fill:#7d0a34;fill-opacity:1;stroke-width:12;stroke-linecap:round;stroke-linejoin:round"
     id="rect4577"
     width="112"
     height="96"
     x="8"
     y="16"
     ry="1" />
  <rect
     style="opacity:1;fill:#e68cac;fill-opacity:1;stroke-width:8.1088;stroke-linecap:round;stroke-linejoin:round"
     id="rect4891"
     width="110"
     height="94"
     x="9"
     y="17" />
  <path
     style="fill:#ffffff;stroke-width:6.0033"
     d="m 34.24174,52.244904 c 0.397438,-1.188058 0.468258,-1.901252 0.620142,-2.592838 -1.095006,1.368756 -0.504878,1.66052 -0.620142,2.592838 m 2.023714,-8.258778 c 0.19752,1.78299 -1.372352,2.478176 0.347,1.30032 0.923308,-2.031526 -0.359,-0.56191 -0.347,-1.30032 M 66.31451,28.372072 c 0.856074,-0.30556 2.101762,-0.16808 3.013668,-0.3692 -1.185656,0.09664 -2.36411,0.15488 -3.527554,0.29956 l 0.514126,0.06952 m 27.499438,33.306458 -0.18548,0.457034 c -0.3422,2.36651 -1.080602,4.70781 -2.209226,6.879814 1.248692,-2.290874 2.053138,-4.797262 2.395324,-7.336668 M 59.0111,69.07349 c -0.442448,-0.476666 -0.699386,-1.04938 -0.992946,-1.6215 0.27976,1.002558 0.851866,1.864636 1.383164,2.742322 L 59.01112,69.07409 m -1.966088,0.07504 -0.17888,0.866876 c 0.832662,1.105222 1.493628,2.302278 2.555016,3.163154 -0.764226,-1.456406 -1.33094,-2.057938 -2.376118,-4.030034 m 10.364742,-39.817064 -0.476604,0.09692 0.442808,-0.0396 0.0336,-0.05728 M 66.06245,28.965904 c 0.675974,0.11756 1.460428,0.208678 1.347686,0.366758 0.743034,-0.15956 0.908124,-0.303638 -1.347206,-0.366678 m 14.098216,30.450678 c 0.15416,-2.228074 -0.448152,-1.522684 -0.650584,-0.673994 0.23552,0.12084 0.422696,1.571492 0.650584,0.673994 m -2.50675,6.379136 c 0.756418,-1.017566 1.308724,-2.13058 1.500832,-3.28142 -0.17408,0.819454 -0.624346,1.527846 -1.056586,2.275866 -2.364108,1.456404 -0.222118,-0.864482 0,-1.747572 -2.543008,3.131936 -0.348198,1.877844 -0.444246,2.753126 m -6.791566,1.65331 c -1.26556,0.016 0.23804,0.635872 1.89075,0.885128 0.458292,-0.349396 0.869938,-0.700468 1.239326,-1.043254 -1.02753,0.245958 -2.07451,0.251716 -3.130016,0.15812 M 34.24518,52.245712 c 0.397438,-1.189862 0.468258,-1.90366 0.620142,-2.593442 -1.095606,1.36936 -0.504874,1.661724 -0.620142,2.593442 m 2.022518,-8.258778 c 0.19752,1.783586 -1.371756,2.476972 0.3476,1.29912 0.923312,-2.031526 -0.359,-0.56011 -0.3476,-1.29912 M 66.31435,28.36928 C 67.16904,28.06376 68.416772,28.2012 69.326578,28 c -1.184216,0.09688 -2.36249,0.15484 -3.525514,0.29972 l 0.513346,0.06956 m 27.500642,33.309458 -0.18548,0.45703 c -0.3422,2.367114 -1.080598,4.708412 -2.209222,6.880414 1.248692,-2.290866 2.053138,-4.797252 2.395328,-7.336664 M 59.013776,69.07321 c -0.440648,-0.476666 -0.69939,-1.049976 -0.992946,-1.6197 0.27976,1.00316 0.852466,1.86464 1.383764,2.742322 L 59.013796,69.07321 m -1.966088,0.07444 -0.17888,0.866882 c 0.832662,1.105812 1.493624,2.30288 2.555012,3.163754 -0.764222,-1.456408 -1.330932,-2.057942 -2.376114,-4.030634 m 10.363542,-39.817662 -0.475224,0.09688 0.443044,-0.0396 0.0324,-0.05716 m 18.87446,31.012594 c 0.0698,1.870754 -0.546782,2.77984 -1.104492,4.387468 l -1.002854,0.497918 c -0.819814,1.59046 0.0814,1.009756 -0.505722,2.274234 -1.281288,1.135948 -3.88283,3.553432 -4.715552,3.774772 -0.608858,-0.014 0.411828,-0.717038 0.545278,-0.99193 -1.716946,1.174254 -1.37476,1.762576 -3.996408,2.47757 l -0.07624,-0.17108 c -6.46083,3.03531 -15.436404,-2.978824 -15.31874,-11.183568 -0.06844,0.520492 -0.19632,0.3902 -0.339198,0.599136 -0.3332,-4.220942 1.953478,-8.46049 5.80942,-10.193654 3.77189,-1.86343 8.193942,-1.099808 10.89544,1.416188 -1.48523,-1.940878 -4.439466,-3.998216 -7.938204,-3.80791 -3.429098,0.05584 -6.637878,2.230834 -7.707672,4.593144 -1.755974,1.103414 -1.960686,4.256362 -2.725508,4.83328 -1.03083,7.557588 1.93667,10.820994 6.957258,14.66312 0.787994,0.531176 0.221838,0.61252 0.327318,1.016728 -1.667722,-0.779236 -3.19377,-1.956488 -4.450268,-3.39729 0.66697,0.973152 1.386168,1.919268 2.316082,2.663084 -1.573472,-0.5307 -3.674634,-3.804306 -4.286372,-3.937588 2.7105,4.84529 10.996294,8.49591 15.337298,6.682906 -2.008714,0.07808 -4.559524,0.04204 -6.814978,-0.788838 -0.950324,-0.48747 -2.236838,-1.494832 -2.00631,-1.682734 5.922764,2.207606 12.039072,1.671026 17.162314,-2.429062 1.304582,-1.014386 2.72863,-2.738782 3.14046,-2.762074 -0.619722,0.930696 0.10624,0.447548 -0.369998,1.26917 1.29684,-2.091446 -0.565456,-0.851762 1.341804,-3.611602 l 0.70425,0.967916 c -0.26368,-1.7376 2.160058,-3.845014 1.913442,-6.591054 0.556088,-0.839326 0.619722,0.904464 0.03,2.835612 0.81825,-2.14259 0.2164,-2.48718 0.425816,-4.256 0.225718,0.59469 0.52583,1.22576 0.678678,1.853768 -0.533634,-2.071328 0.545282,-3.486852 0.81363,-4.691054 -0.26524,-0.11616 -0.822938,0.915266 -0.95165,-1.530068 0.02,-1.06241 0.29708,-0.556746 0.403306,-0.818436 -0.207878,-0.12 -0.756242,-0.9346 -1.089004,-2.496426 0.23964,-0.367836 0.645294,0.951646 0.974162,1.005078 -0.21176,-1.241306 -0.57548,-2.188274 -0.591032,-3.141424 -0.961732,-2.00553 -0.340518,0.26796 -1.1192,-0.861058 -1.023806,-3.185604 0.848574,-0.739486 0.975722,-2.185926 1.5497,2.241702 2.433088,5.71871 2.840292,7.157766 -0.31024,-1.755376 -0.810506,-3.456596 -1.422488,-5.102052 0.472342,0.19904 -0.759298,-3.610878 0.613482,-1.08792 -1.471056,-5.377242 -6.270476,-10.401964 -10.687724,-12.759472 0.540358,0.493456 1.22336,1.1126 0.979442,1.210212 -2.197226,-1.305122 -1.813016,-1.408382 -2.13119,-1.959488 -1.788992,-0.727002 -1.903056,0.05944 -3.091716,0.0018 -3.370868,-1.787792 -4.02043,-1.597488 -7.12355,-2.715904 l 0.1412,0.659762 c -2.234438,-0.74381 -2.603644,0.280358 -5.018782,0.0012 -0.14648,-0.11344 0.77443,-0.414832 1.532648,-0.524092 -2.160594,0.28516 -2.05974,-0.425634 -4.17411,0.07804 0.520488,-0.364398 1.072794,-0.606936 1.6281,-0.916708 -1.761376,0.10688 -4.207132,1.02357 -3.452514,0.18908 -2.873788,1.280506 -7.977816,3.077904 -10.842004,5.759592 l -0.09004,-0.600932 c -1.312328,1.572272 -5.723572,4.697002 -6.074768,6.736332 l -0.351798,0.08108 c -0.681378,1.154442 -1.124422,2.462566 -1.66592,3.649422 -0.892698,1.520044 -1.309328,0.585326 -1.182056,0.823658 -1.756576,3.555772 -2.630662,6.543632 -3.38408,8.994782 0.536698,0.801446 0.0136,4.826076 0.21612,8.04626 -0.881286,15.907612 11.182402,31.354174 24.369306,34.914148 1.932472,0.696386 4.806264,0.672374 7.251422,0.73841 -2.884,-0.822458 -3.256208,-0.438244 -6.066964,-1.416786 -2.026726,-0.95453 -2.47037,-2.041134 -3.906366,-3.283818 l 0.568514,1.002734 c -2.815552,-0.996524 -1.6377,-1.230656 -3.929168,-1.957052 l 0.607534,-0.78644 c -0.908302,-0.07204 -2.412738,-1.536852 -2.825766,-2.353306 l -0.999012,0.0396 C 51.057414,89.76791 50.41746,88.705322 50.464884,87.87686 l -0.322958,0.57632 c -0.365,-0.630352 -4.413648,-5.547074 -2.313686,-4.40044 -0.3902,-0.354198 -0.908902,-0.576314 -1.471412,-1.596886 l 0.427386,-0.487046 c -1.009158,-1.302724 -1.85983,-2.965648 -1.794396,-3.51795 0.5391,0.726402 0.91251,0.858474 1.283514,0.984544 -2.552614,-6.321506 -2.696098,-0.348198 -4.627964,-6.434366 l 0.407942,-0.0324 C 41.740552,72.49559 41.548432,71.985308 41.297492,71.48283 l 0.17828,-1.769786 c -1.836418,-2.120972 -0.512682,-9.01879 -0.246758,-12.800884 0.18188,-1.538056 1.533246,-3.176964 2.557416,-5.745186 l -0.624946,-0.10624 c 1.19586,-2.081954 6.826982,-8.362634 9.43603,-8.040252 1.263102,-1.58428 -0.251558,-0.006 -0.498874,-0.404028 2.775936,-2.86719 3.648818,-2.025522 5.521858,-2.541808 2.018914,-1.196462 -1.73376,0.46766 -0.77683,-0.456254 3.49273,-0.889692 2.474564,-2.024322 7.029892,-2.47577 0.480868,0.272556 -1.114816,0.421434 -1.51524,0.77503 2.908612,-1.421588 9.206104,-1.096812 13.298574,0.788238 4.745026,2.215826 10.075984,8.761256 10.292104,14.919468 l 0.23964,0.06424 c -0.12096,2.448456 0.375398,5.279986 -0.486272,7.879966 L 86.284868,60.33762 M 66.060294,28.96003 c 0.675976,0.11756 1.460368,0.208638 1.347686,0.366798 0.742014,-0.1598 0.9089,-0.303878 -1.347686,-0.366798 M 80.16271,59.413108 c 0.15416,-2.228138 -0.448088,-1.522688 -0.650584,-0.673994 0.23552,0.12092 0.4227,1.571548 0.650584,0.673994 m -2.50939,6.379136 c 0.756418,-1.017566 1.308724,-2.130584 1.500832,-3.28142 -0.17408,0.819454 -0.624346,1.527248 -1.056586,2.275862 -2.364108,1.456404 -0.222118,-0.864478 0,-1.747568 -2.543008,3.131936 -0.348198,1.87784 -0.444246,2.753126 m -6.790366,1.65511 c -1.2655,0.0164 0.23772,0.635752 1.89045,0.88489 0.458052,-0.349398 0.869878,-0.70059 1.239086,-1.04338 -1.02717,0.246158 -2.07415,0.252158 -3.129536,0.15848"
     id="path9184" />
</svg>
