<?xml version="1.0" encoding="UTF-8" standalone="no"?>
<!-- Created with Inkscape (http://www.inkscape.org/) -->

<svg
   width="128"
   height="128"
   viewBox="0 0 128 128"
   version="1.1"
   id="svg5"
   inkscape:version="1.2.1 (9c6d41e410, 2022-07-14)"
   sodipodi:docname="application-vnd.oasis.opendocument.formula.svg"
   xmlns:inkscape="http://www.inkscape.org/namespaces/inkscape"
   xmlns:sodipodi="http://sodipodi.sourceforge.net/DTD/sodipodi-0.dtd"
   xmlns="http://www.w3.org/2000/svg"
   xmlns:svg="http://www.w3.org/2000/svg">
  <sodipodi:namedview
     id="namedview7"
     pagecolor="#ffffff"
     bordercolor="#000000"
     borderopacity="0.25"
     inkscape:showpageshadow="2"
     inkscape:pageopacity="0.0"
     inkscape:pagecheckerboard="0"
     inkscape:deskcolor="#d1d1d1"
     inkscape:document-units="px"
     showgrid="false"
     inkscape:zoom="6.6949153"
     inkscape:cx="64.153164"
     inkscape:cy="64.003797"
     inkscape:window-width="1920"
     inkscape:window-height="1007"
     inkscape:window-x="0"
     inkscape:window-y="0"
     inkscape:window-maximized="1"
     inkscape:current-layer="svg5" />
  <defs
     id="defs2" />
  <rect
     style="opacity:0.6;fill:#000000;fill-opacity:1;stroke-width:4;stroke-linejoin:round"
     id="rect234"
     width="92"
     height="118"
     x="18"
     y="5"
     ry="1" />
  <rect
     style="fill:#9f9f9f;fill-opacity:1;stroke-width:6.2691;stroke-linejoin:round"
     id="rect2307"
     width="90"
     height="116"
     x="19"
     y="6" />
  <path
     id="path3917"
     style="color:#000000;display:inline;overflow:visible;visibility:visible;fill:#ffffff;fill-opacity:1;fill-rule:nonzero;stroke:none;stroke-width:80;marker:none;enable-background:new"
     d="M 47.249,36 46.8742,37.625 35.999,82 30.624,71.125 l -3.5,1.75 8,16 2.5,5.125 1.25,-5.625 L 50.499,40 h 49.5 V 36 H 48.874 Z m 8.75,12 14,20 -14,20 h 4 l 12,-17.140624 L 83.999,88 h 4 l -14,-20 14,-20 h -4 l -12,17.140624 L 59.999,48 Z"
     sodipodi:nodetypes="cccccccccccccccccccccccccc" />
  <path
     id="path295"
     style="color:#000000;opacity:0.8;fill:#e9e9e9;fill-rule:evenodd;stroke-width:1px;-inkscape-stroke:none"
     d="M 109,43.416069 30.419917,122.002 109,122 Z M 94,78.003959 V 107.002 H 64.998042 Z" />
  <path
     d="M 110,41.002003 28.005855,123.002 110,123 Z m -1,2.414062 v 78.583985 l -78.580082,0.002 z M 94,78.003956 64.998043,107.002 H 94 Z m -1,2.414063 V 106.002 H 67.412105 Z"
     style="color:#000000;opacity:0.8;fill:#83899a;fill-rule:evenodd;-inkscape-stroke:none"
     id="path356" />
</svg>
