<?xml version="1.0" encoding="UTF-8" standalone="no"?>
<!-- Created with Inkscape (http://www.inkscape.org/) -->

<svg
   width="128"
   height="128"
   viewBox="0 0 128 128"
   version="1.1"
   id="svg5"
   inkscape:version="1.2.1 (9c6d41e410, 2022-07-14)"
   sodipodi:docname="audio-x-generic.svg"
   xmlns:inkscape="http://www.inkscape.org/namespaces/inkscape"
   xmlns:sodipodi="http://sodipodi.sourceforge.net/DTD/sodipodi-0.dtd"
   xmlns="http://www.w3.org/2000/svg"
   xmlns:svg="http://www.w3.org/2000/svg">
  <sodipodi:namedview
     id="namedview7"
     pagecolor="#ffffff"
     bordercolor="#000000"
     borderopacity="0.25"
     inkscape:showpageshadow="2"
     inkscape:pageopacity="0.0"
     inkscape:pagecheckerboard="0"
     inkscape:deskcolor="#d1d1d1"
     inkscape:document-units="px"
     showgrid="false"
     inkscape:zoom="6.6949153"
     inkscape:cx="64.078481"
     inkscape:cy="64.003797"
     inkscape:window-width="1920"
     inkscape:window-height="1009"
     inkscape:window-x="0"
     inkscape:window-y="0"
     inkscape:window-maximized="1"
     inkscape:current-layer="svg5"
     showguides="false" />
  <defs
     id="defs2" />
  <rect
     style="opacity:0.3;fill:#000000;fill-opacity:1;stroke-width:4;stroke-linejoin:round"
     id="rect234"
     width="92"
     height="118"
     x="18"
     y="5"
     ry="1" />
  <rect
     style="fill:#fafafa;fill-opacity:1;stroke-width:6.2691;stroke-linejoin:round"
     id="rect2307"
     width="90"
     height="116"
     x="19"
     y="6" />
  <path
     d="m 85.477384,32 -29.48486,7.621088 c -2.21488,0.593454 -3.99796,2.954324 -3.99796,5.247306 v 36.356338 c -2.24592,-1.176036 -5.1304,-1.651552 -8.12082,-0.874552 -5.39628,1.402122 -8.777823,5.933556 -7.6211,10.119806 1.15672,4.186253 6.47264,6.524493 11.86892,5.122371 4.3051,-1.118586 7.27274,-4.283601 7.74602,-7.621089 l 0.1248,-34.357364 27.98562,-7.496152 v 27.111084 c -2.24592,-1.176036 -5.1304,-1.651552 -8.12082,-0.87455 -5.39628,1.40212 -8.77782,5.933554 -7.6211,10.119804 1.15674,4.186252 6.47264,6.524492 11.86892,5.122372 4.3051,-1.118586 7.27274,-4.283602 7.74602,-7.621088 l 0.1248,-44.727042 c 0,-1.719758 -1.06282,-3.006416 -2.49872,-3.248332 z"
     style="color:#000000;clip-rule:nonzero;display:inline;overflow:visible;visibility:visible;isolation:auto;mix-blend-mode:normal;color-interpolation:sRGB;color-interpolation-filters:linearRGB;solid-color:#000000;solid-opacity:1;fill:#ff7f2a;fill-opacity:1;fill-rule:nonzero;stroke:none;stroke-width:2;stroke-linecap:butt;stroke-linejoin:miter;stroke-miterlimit:4;stroke-dasharray:none;stroke-dashoffset:0;stroke-opacity:1;marker:none;color-rendering:auto;image-rendering:auto;shape-rendering:auto;text-rendering:auto;enable-background:accumulate"
     id="path5386" />
</svg>
