<?xml version="1.0" encoding="UTF-8" standalone="no"?>
<!-- Created with Inkscape (http://www.inkscape.org/) -->

<svg
   width="128"
   height="128"
   viewBox="0 0 128 128"
   version="1.1"
   id="svg5"
   inkscape:version="1.2.1 (9c6d41e410, 2022-07-14)"
   sodipodi:docname="text-x-vala.svg"
   xmlns:inkscape="http://www.inkscape.org/namespaces/inkscape"
   xmlns:sodipodi="http://sodipodi.sourceforge.net/DTD/sodipodi-0.dtd"
   xmlns="http://www.w3.org/2000/svg"
   xmlns:svg="http://www.w3.org/2000/svg">
  <sodipodi:namedview
     id="namedview7"
     pagecolor="#ffffff"
     bordercolor="#000000"
     borderopacity="0.25"
     inkscape:showpageshadow="2"
     inkscape:pageopacity="0.0"
     inkscape:pagecheckerboard="0"
     inkscape:deskcolor="#d1d1d1"
     inkscape:document-units="px"
     showgrid="false"
     inkscape:zoom="6.6949153"
     inkscape:cx="63.929113"
     inkscape:cy="64.003797"
     inkscape:window-width="1920"
     inkscape:window-height="1007"
     inkscape:window-x="0"
     inkscape:window-y="0"
     inkscape:window-maximized="1"
     inkscape:current-layer="svg5" />
  <defs
     id="defs2" />
  <rect
     style="opacity:0.3;fill:#000000;fill-opacity:1;stroke-width:4;stroke-linejoin:round"
     id="rect234"
     width="92"
     height="118"
     x="18"
     y="5"
     ry="1" />
  <rect
     style="fill:#fafafa;fill-opacity:1;stroke-width:6.2691;stroke-linejoin:round"
     id="rect2307"
     width="90"
     height="116"
     x="19"
     y="6" />
  <path
     d="M 55.894607,91.999944 54.691486,40.994723 c -3.500002,1.312501 -6.234375,3.366318 -8.203128,6.161455 -1.944441,2.795142 -2.916666,6.27084 -2.916666,10.427086 0,0.947917 0.04876,1.725697 0.1458,2.333334 0.12148,0.583348 0.24308,1.057288 0.36456,1.42188 0.12148,0.340281 0.23092,0.607649 0.32812,0.802081 0.121481,0.19448 0.182241,0.36456 0.182241,0.510448 -1.288193,0 -2.430558,-0.12148 -3.427082,-0.36456 -0.996533,-0.26736 -1.835069,-0.680552 -2.515626,-1.239581 C 37.993453,60.487818 37.483033,59.746518 37.118448,58.822905 36.778168,57.899297 36.608,56.756932 36.608,55.395819 c 0,-1.652777 0.35244,-3.281246 1.057297,-4.885415 0.729152,-1.604153 1.713533,-3.123249 2.953121,-4.557278 1.263893,-1.434029 2.734374,-2.758682 4.411463,-3.973959 1.701381,-1.215276 3.512146,-2.260417 5.432291,-3.135417 1.944441,-0.899305 3.961806,-1.592013 6.052087,-2.078126 C 58.628841,36.255204 60.73127,36 62.821543,36 c 0.559052,0 1.069449,0.012 1.531253,0.0364 0.486076,0.0244 0.972228,0.06076 1.458341,0.1094 l 0.656276,45.93753 15.713541,-45.718762 h 5.213547 L 66.649701,92 Z"
     style="color:#000000;clip-rule:nonzero;display:inline;overflow:visible;visibility:visible;isolation:auto;mix-blend-mode:normal;color-interpolation:sRGB;color-interpolation-filters:linearRGB;solid-color:#000000;solid-opacity:1;fill:#8d5fd3;fill-opacity:1;fill-rule:nonzero;stroke-width:4;stroke-linecap:butt;stroke-linejoin:miter;stroke-miterlimit:4;stroke-dasharray:none;stroke-dashoffset:0;stroke-opacity:1;color-rendering:auto;image-rendering:auto;shape-rendering:auto;text-rendering:auto;enable-background:accumulate"
     id="path328" />
</svg>
