<?xml version="1.0" encoding="UTF-8" standalone="no"?>
<!-- Created with Inkscape (http://www.inkscape.org/) -->

<svg
   width="128"
   height="128"
   viewBox="0 0 128 128.00001"
   version="1.1"
   id="svg5"
   sodipodi:docname="x-office-calendar.svg"
   inkscape:version="1.2.1 (9c6d41e410, 2022-07-14)"
   xmlns:inkscape="http://www.inkscape.org/namespaces/inkscape"
   xmlns:sodipodi="http://sodipodi.sourceforge.net/DTD/sodipodi-0.dtd"
   xmlns:xlink="http://www.w3.org/1999/xlink"
   xmlns="http://www.w3.org/2000/svg"
   xmlns:svg="http://www.w3.org/2000/svg">
  <sodipodi:namedview
     id="namedview7"
     pagecolor="#ffffff"
     bordercolor="#666666"
     borderopacity="1.0"
     inkscape:showpageshadow="2"
     inkscape:pageopacity="0.0"
     inkscape:pagecheckerboard="0"
     inkscape:deskcolor="#d1d1d1"
     inkscape:document-units="px"
     showgrid="false"
     inkscape:zoom="6.171875"
     inkscape:cx="63.918987"
     inkscape:cy="64"
     inkscape:window-width="1920"
     inkscape:window-height="1002"
     inkscape:window-x="0"
     inkscape:window-y="0"
     inkscape:window-maximized="1"
     inkscape:current-layer="svg5" />
  <defs
     id="defs2">
    <linearGradient
       inkscape:collect="always"
       xlink:href="#linearGradient22024"
       id="linearGradient3525"
       x1="32"
       y1="59.747749"
       x2="32"
       y2="17.135136"
       gradientUnits="userSpaceOnUse"
       gradientTransform="matrix(2.0181818,0,0,2.0181818,-0.58181789,-0.58181778)" />
    <linearGradient
       inkscape:collect="always"
       id="linearGradient22024">
      <stop
         style="stop-color:#dedede;stop-opacity:1;"
         offset="0"
         id="stop22020" />
      <stop
         style="stop-color:#f2f2f2;stop-opacity:1;"
         offset="1"
         id="stop22022" />
    </linearGradient>
  </defs>
  <rect
     style="fill:url(#linearGradient3525);fill-opacity:1.0;stroke:none;stroke-width:2.01818"
     id="rect184"
     width="111"
     height="111"
     x="8.5"
     y="8.5"
     ry="19.5" />
  <path
     id="rect348"
     style="fill:#97c04d;fill-opacity:1;stroke-width:2;stroke-linejoin:round"
     d="M 28,8.5 C 17.197011,8.5 8.5,17.197011 8.5,28 v 9 h 111 V 28 C 119.5,17.197011 110.80299,8.5 100,8.5 Z"
     sodipodi:nodetypes="ssccsss" />
  <rect
     style="opacity:0.2;fill:#000000;stroke-width:1.31101;stroke-linejoin:round"
     id="rect581"
     width="110"
     height="1"
     x="9"
     y="36" />
  <path
     d="m 28.000002,21 c -2.209134,1.6e-5 -3.999986,1.790866 -4.000002,4 1.6e-5,2.209131 1.790868,3.999983 4.000002,3.999999 2.209131,-1.6e-5 3.999981,-1.790868 3.999997,-3.999999 -1.6e-5,-2.209132 -1.790866,-3.999984 -3.999997,-4 z m 71.999992,0 c -2.209131,1.6e-5 -3.999983,1.790868 -3.999997,4 1.4e-5,2.209131 1.790866,3.999983 3.999997,3.999999 C 102.20913,28.999985 103.99998,27.209133 104,25 c -2e-5,-2.209136 -1.79087,-3.999988 -4.000006,-4 z"
     id="path1474"
     style="opacity:0.2;fill:#000000;stroke-width:7.5592"
     sodipodi:nodetypes="cccccccccc" />
  <path
     d="m 28.000004,20 c -2.209132,1.6e-5 -3.999984,1.790868 -4,4 1.6e-5,2.209131 1.790868,3.999983 4,3.999999 2.209131,-1.6e-5 3.999983,-1.790868 3.999999,-3.999999 -1.6e-5,-2.209132 -1.790866,-3.999984 -3.999999,-4 z m 71.99999,0 c -2.209131,1.6e-5 -3.999983,1.790868 -3.999997,4 1.4e-5,2.209131 1.790866,3.999981 3.999997,3.999999 C 102.20913,27.999985 103.99998,26.209133 104,24 c -2e-5,-2.209136 -1.79087,-3.999988 -4.000006,-4 z"
     id="path1545"
     style="fill:#ffffff;stroke-width:7.5592"
     sodipodi:nodetypes="cccccccccc" />
  <path
     id="rect441"
     style="opacity:0.3;fill:#ffffff"
     d="M 28,9 C 17.474011,9 9,17.474011 9,28 v 1 C 9,18.474011 17.474011,10 28,10 h 72 c 10.52599,0 19,8.474011 19,19 V 28 C 119,17.474011 110.52599,9 100,9 Z" />
  <path
     id="rect443"
     style="opacity:0.3;fill:#ffffff"
     d="m 9,99 v 1 c 0,10.52599 8.474011,19 19,19 h 72 c 10.52599,0 19,-8.47401 19,-19 v -1 c 0,10.52599 -8.47401,19 -19,19 H 28 C 17.474011,118 9,109.52599 9,99 Z" />
  <path
     id="rect899"
     style="fill:#000000;stroke:none;stroke-width:2;opacity:0.5"
     d="M 28,8 C 16.920022,8 8,16.920022 8,28 v 72 c 0,11.07998 8.920022,20 20,20 h 72 c 11.07998,0 20,-8.92002 20,-20 V 28 C 120,16.920022 111.07998,8 100,8 Z m 0,1 h 72 c 10.52599,0 19,8.474011 19,19 v 72 c 0,10.52599 -8.47401,19 -19,19 H 28 C 17.474011,119 9,110.52599 9,100 V 28 C 9,17.474011 17.474011,9 28,9 Z" />
</svg>
