<?xml version="1.0" encoding="UTF-8" standalone="no"?>
<!-- Created with Inkscape (http://www.inkscape.org/) -->

<svg
   width="16"
   height="16"
   viewBox="0 0 16 16"
   version="1.1"
   id="svg5"
   inkscape:version="1.2 (dc2aedaf03, 2022-05-15)"
   sodipodi:docname="application-menu.svg"
   xmlns:inkscape="http://www.inkscape.org/namespaces/inkscape"
   xmlns:sodipodi="http://sodipodi.sourceforge.net/DTD/sodipodi-0.dtd"
   xmlns="http://www.w3.org/2000/svg"
   xmlns:svg="http://www.w3.org/2000/svg">
  <sodipodi:namedview
     id="namedview7"
     pagecolor="#ffffff"
     bordercolor="#666666"
     borderopacity="1.0"
     inkscape:showpageshadow="2"
     inkscape:pageopacity="0.0"
     inkscape:pagecheckerboard="0"
     inkscape:deskcolor="#d1d1d1"
     inkscape:document-units="px"
     showgrid="false"
     inkscape:zoom="48.5"
     inkscape:cx="7.9896907"
     inkscape:cy="8"
     inkscape:window-width="1920"
     inkscape:window-height="991"
     inkscape:window-x="0"
     inkscape:window-y="0"
     inkscape:window-maximized="1"
     inkscape:current-layer="svg5" />
  <defs
     id="defs2" />
  <path
     id="rect181"
     style="fill:#363636;stroke-width:2;stroke-linecap:round;stroke-linejoin:round"
     d="M 4.5 5 C 4.2230003 5 4 5.2230003 4 5.5 C 4 5.7769997 4.2230003 6 4.5 6 L 11.5 6 C 11.777 6 12 5.7769997 12 5.5 C 12 5.2230003 11.777 5 11.5 5 L 4.5 5 z M 4.5 8 C 4.2230003 8 4 8.2230003 4 8.5 C 4 8.7769997 4.2230003 9 4.5 9 L 11.5 9 C 11.777 9 12 8.7769997 12 8.5 C 12 8.2230003 11.777 8 11.5 8 L 4.5 8 z M 4.5 11 C 4.2230003 11 4 11.223 4 11.5 C 4 11.777 4.2230003 12 4.5 12 L 11.5 12 C 11.777 12 12 11.777 12 11.5 C 12 11.223 11.777 11 11.5 11 L 4.5 11 z " />
</svg>
