<?xml version="1.0" encoding="UTF-8" standalone="no"?>
<!-- Created with Inkscape (http://www.inkscape.org/) -->

<svg
   width="32"
   height="32"
   viewBox="0 0 32 32.000001"
   version="1.1"
   id="svg5"
   sodipodi:docname="abiword.svg"
   inkscape:version="1.2.1 (9c6d41e410, 2022-07-14)"
   xmlns:inkscape="http://www.inkscape.org/namespaces/inkscape"
   xmlns:sodipodi="http://sodipodi.sourceforge.net/DTD/sodipodi-0.dtd"
   xmlns:xlink="http://www.w3.org/1999/xlink"
   xmlns="http://www.w3.org/2000/svg"
   xmlns:svg="http://www.w3.org/2000/svg">
  <sodipodi:namedview
     id="namedview7"
     pagecolor="#ffffff"
     bordercolor="#666666"
     borderopacity="1.0"
     inkscape:showpageshadow="2"
     inkscape:pageopacity="0.0"
     inkscape:pagecheckerboard="0"
     inkscape:deskcolor="#d1d1d1"
     inkscape:document-units="px"
     showgrid="false"
     inkscape:zoom="18.141708"
     inkscape:cx="-0.35829041"
     inkscape:cy="19.209878"
     inkscape:window-width="1920"
     inkscape:window-height="1007"
     inkscape:window-x="0"
     inkscape:window-y="0"
     inkscape:window-maximized="1"
     inkscape:current-layer="svg5"
     showguides="false" />
  <defs
     id="defs2">
    <linearGradient
       inkscape:collect="always"
       xlink:href="#linearGradient1677"
       id="linearGradient4612"
       x1="25"
       y1="30"
       x2="7"
       y2="2"
       gradientUnits="userSpaceOnUse" />
    <linearGradient
       inkscape:collect="always"
       id="linearGradient1677">
      <stop
         style="stop-color:#5792d8;stop-opacity:1;"
         offset="0"
         id="stop1673" />
      <stop
         style="stop-color:#a2d2f9;stop-opacity:1;"
         offset="1"
         id="stop1675" />
    </linearGradient>
  </defs>
  <rect
     style="fill:url(#linearGradient4612);fill-opacity:1.0;stroke:none"
     id="rect184"
     width="27"
     height="27"
     x="2.5"
     y="2.5"
     ry="4.5" />
  <path
     d="m 20.424489,19.92614 c -3.3305,1.6538 -6.7584,3.2059 -10.397,4.0328 -1.173,-0.0057 -0.59425,-1.5397 -0.40479,-2.2348 0.90991,-2.9527 2.3208,-5.7171 3.6625,-8.489101 0.53124,-0.87581 0.90805,-2.0828 1.9792,-2.4198 1.0404,-0.11612 1.724,0.89452 2.2629,1.6318 2.2036,3.3899 4.2846,6.868501 6.1097,10.478001 0.462,0.941 0.915,1.886 1.363,2.834 -1.332,-5.462 -3.126,-10.881001 -6.017,-15.73 -0.648,-0.957 -1.238,-1.9960002 -2.112,-2.7664003 -0.852,-0.6573002 -1.9,0.0504 -2.53,0.6867 -1.9788,1.9933003 -3.1841,4.5942993 -4.3651,7.1056993 -1.3774,2.972301 -2.2811,6.140601 -2.9445,9.341001 -0.23258,1.0778 0.87114,1.8602 1.852,1.5257 2.7168,-0.56757 5.2699,-1.7581 7.6728,-3.1243 1.3848,-0.81676 2.7165,-1.7442 3.8686,-2.8719 z"
     style="opacity:0.2;fill:#000000"
     id="path9859" />
  <path
     d="m 20.424489,18.926139 c -3.3305,1.6538 -6.7584,3.2059 -10.397,4.0328 -1.1730002,-0.0057 -0.5942502,-1.5397 -0.4047902,-2.2348 0.9099102,-2.9527 2.3208002,-5.7171 3.6625002,-8.4891 0.53124,-0.87581 0.90805,-2.0828 1.9792,-2.4198 1.0404,-0.11612 1.724,0.89452 2.2629,1.6318 2.2036,3.3899 4.2846,6.8685 6.1097,10.478 0.462,0.941 0.915,1.886 1.363,2.834 -1.332,-5.462 -3.126,-10.881 -6.017,-15.729999 -0.648,-0.9570003 -1.238,-1.9960003 -2.112,-2.7664003 -0.852,-0.6573002 -1.9,0.0504 -2.53,0.6867 -1.9788,1.9933 -3.1841,4.5942993 -4.3651002,7.1056993 -1.3774,2.9723 -2.2811,6.1406 -2.9445,9.341 -0.23258,1.0778 0.87114,1.8602 1.852,1.5257 2.7168002,-0.56757 5.2699002,-1.7581 7.6728002,-3.1243 1.3848,-0.81676 2.7165,-1.7442 3.8686,-2.8719 z"
     style="fill:#ffffff"
     id="path8520"
     sodipodi:nodetypes="ccccccccccccccccc" />
  <path
     id="rect2630"
     style="opacity:0.3;fill:#ffffff;fill-opacity:1"
     d="M 7,3 C 4.7840022,3 3,4.7840022 3,6.9999998 v 1 C 3,5.7840022 4.7840022,4 7,4 h 18 c 2.215998,0 4,1.7840022 4,3.9999998 v -1 C 29,4.7840022 27.215998,3 25,3 Z" />
  <path
     id="rect398"
     style="opacity:0.3;fill:#ffffff"
     d="m 3.0000002,24 v 1 c 0,2.215998 1.7840022,4 4,4 H 25 c 2.215998,0 4,-1.784002 4,-4 v -1 c 0,2.215998 -1.784002,4 -4,4 H 7.0000002 c -2.2159978,0 -4,-1.784002 -4,-4 z" />
  <path
     id="rect899"
     style="fill:#000000;stroke:none;opacity:0.5"
     d="M 7 2 C 4.2300028 2 2 4.2300028 2 7 L 2 25 C 2 27.769997 4.2300028 30 7 30 L 25 30 C 27.769997 30 30 27.769997 30 25 L 30 7 C 30 4.2300028 27.769997 2 25 2 L 7 2 z M 7 3 L 25 3 C 27.215998 3 29 4.7840022 29 7 L 29 25 C 29 27.215998 27.215998 29 25 29 L 7 29 C 4.7840022 29 3 27.215998 3 25 L 3 7 C 3 4.7840022 4.7840022 3 7 3 z " />
</svg>
