<?xml version="1.0" encoding="UTF-8" standalone="no"?>
<!-- Created with Inkscape (http://www.inkscape.org/) -->

<svg
   width="32"
   height="32"
   viewBox="0 0 32 32.000001"
   version="1.1"
   id="svg5"
   sodipodi:docname="accessories-clock.svg"
   inkscape:version="1.2.1 (9c6d41e410, 2022-07-14)"
   xmlns:inkscape="http://www.inkscape.org/namespaces/inkscape"
   xmlns:sodipodi="http://sodipodi.sourceforge.net/DTD/sodipodi-0.dtd"
   xmlns:xlink="http://www.w3.org/1999/xlink"
   xmlns="http://www.w3.org/2000/svg"
   xmlns:svg="http://www.w3.org/2000/svg">
  <sodipodi:namedview
     id="namedview7"
     pagecolor="#ffffff"
     bordercolor="#666666"
     borderopacity="1.0"
     inkscape:showpageshadow="2"
     inkscape:pageopacity="0.0"
     inkscape:pagecheckerboard="0"
     inkscape:deskcolor="#d1d1d1"
     inkscape:document-units="px"
     showgrid="false"
     inkscape:zoom="25.65625"
     inkscape:cx="16"
     inkscape:cy="16"
     inkscape:window-width="1920"
     inkscape:window-height="1007"
     inkscape:window-x="0"
     inkscape:window-y="0"
     inkscape:window-maximized="1"
     inkscape:current-layer="svg5" />
  <defs
     id="defs2">
    <linearGradient
       inkscape:collect="always"
       xlink:href="#4852"
       id="linearGradient8655"
       x1="16"
       y1="2"
       x2="16"
       y2="30"
       gradientUnits="userSpaceOnUse" />
    <linearGradient
       inkscape:collect="always"
       id="4852">
      <stop
         style="stop-color:#333333;stop-opacity:1"
         offset="0"
         id="stop14555" />
      <stop
         style="stop-color:#666666;stop-opacity:1"
         offset="1"
         id="stop14557" />
    </linearGradient>
  </defs>
  <rect
     style="fill:url(#linearGradient8655);fill-opacity:1;stroke:none"
     id="rect184"
     width="27"
     height="27"
     x="2.5"
     y="2.5"
     ry="4.5" />
  <path
     d="m 22.354907,5.493 -6.023438,10.421876 -0.08203,0.04297 c -0.07,-0.0156 -0.134764,-0.04668 -0.208984,-0.04883 L 6.573658,7.024249 5.964283,7.631671 l 8.808594,9.365236 -1.855469,1.589843 0.214844,0.373047 2.425781,-0.851562 c 0.138048,0.05894 0.289591,0.09375 0.449219,0.09375 0.0544,0 0.105804,-0.0064 0.158203,-0.01367 l 2.121093,1.451172 0.304688,-0.304688 L 17.206469,17.311362 25.1635,12.268393 24.73186,11.522299 17.280688,15.418784 22.851,5.780111 Z"
     style="display:inline;fill:#000000;fill-opacity:1;stroke:none;stroke-width:0.99999;enable-background:new;opacity:0.2"
     id="path1509" />
  <path
     d="M 6.5723744,6.024 5.963,6.6314156 l 8.808512,9.3651524 -1.855443,1.58983 0.214838,0.373042 2.425759,-0.851554 c 0.138048,0.05894 0.289587,0.09375 0.449215,0.09375 0.0544,0 0.1058,-0.0064 0.158199,-0.01367 l 2.123031,1.45116 0.304688,-0.304686 -1.384758,-2.023419 7.95696,-5.042924 -0.431637,-0.746087 -8.484294,4.435507 c -0.07,-0.0156 -0.134769,-0.04668 -0.208989,-0.04883 z"
     style="display:inline;fill:#ffffff;fill-opacity:1;stroke:none;stroke-width:0.99999;enable-background:new"
     id="path1339" />
  <path
     d="M 22.354137,4.493 22.851,4.7798655 16.594327,15.603883 c 0.0696,0.110815 0.110626,0.241962 0.110626,0.382488 0,0.397633 -0.322339,0.719976 -0.719977,0.719976 -0.397636,0 -0.719976,-0.322343 -0.719976,-0.719976 0,-0.397632 0.32234,-0.719976 0.719976,-0.719976 0.0464,0 0.091,0.0047 0.134996,0.01313 z"
     style="color:#000000;display:inline;overflow:visible;visibility:visible;fill:#eb3030;fill-opacity:1;fill-rule:nonzero;stroke:none;stroke-width:0.999966;marker:none;enable-background:accumulate"
     id="path1404" />
  <path
     id="rect2630"
     style="opacity:0.3;fill:#ffffff;fill-opacity:1"
     d="M 7,3 C 4.7840022,3 3,4.7840022 3,6.9999998 v 1 C 3,5.7840022 4.7840022,4 7,4 h 18 c 2.215998,0 4,1.7840022 4,3.9999998 v -1 C 29,4.7840022 27.215998,3 25,3 Z" />
  <path
     id="rect398"
     style="opacity:0.3;fill:#ffffff"
     d="m 3.0000002,24 v 1 c 0,2.215998 1.7840022,4 4,4 H 25 c 2.215998,0 4,-1.784002 4,-4 v -1 c 0,2.215998 -1.784002,4 -4,4 H 7.0000002 c -2.2159978,0 -4,-1.784002 -4,-4 z" />
  <path
     id="rect899"
     style="fill:#000000;stroke:none;opacity:0.5"
     d="M 7 2 C 4.2300028 2 2 4.2300028 2 7 L 2 25 C 2 27.769997 4.2300028 30 7 30 L 25 30 C 27.769997 30 30 27.769997 30 25 L 30 7 C 30 4.2300028 27.769997 2 25 2 L 7 2 z M 7 3 L 25 3 C 27.215998 3 29 4.7840022 29 7 L 29 25 C 29 27.215998 27.215998 29 25 29 L 7 29 C 4.7840022 29 3 27.215998 3 25 L 3 7 C 3 4.7840022 4.7840022 3 7 3 z " />
</svg>
