<?xml version="1.0" encoding="UTF-8" standalone="no"?>
<!-- Created with Inkscape (http://www.inkscape.org/) -->

<svg
   width="32"
   height="32"
   viewBox="0 0 32 32.000001"
   version="1.1"
   id="svg5"
   sodipodi:docname="accessories-dictionary.svg"
   inkscape:version="1.2.1 (9c6d41e410, 2022-07-14)"
   xmlns:inkscape="http://www.inkscape.org/namespaces/inkscape"
   xmlns:sodipodi="http://sodipodi.sourceforge.net/DTD/sodipodi-0.dtd"
   xmlns:xlink="http://www.w3.org/1999/xlink"
   xmlns="http://www.w3.org/2000/svg"
   xmlns:svg="http://www.w3.org/2000/svg">
  <sodipodi:namedview
     id="namedview7"
     pagecolor="#ffffff"
     bordercolor="#666666"
     borderopacity="1.0"
     inkscape:showpageshadow="2"
     inkscape:pageopacity="0.0"
     inkscape:pagecheckerboard="0"
     inkscape:deskcolor="#d1d1d1"
     inkscape:document-units="px"
     showgrid="false"
     inkscape:zoom="14.142857"
     inkscape:cx="28.353536"
     inkscape:cy="19.621212"
     inkscape:window-width="1920"
     inkscape:window-height="1007"
     inkscape:window-x="0"
     inkscape:window-y="0"
     inkscape:window-maximized="1"
     inkscape:current-layer="svg5" />
  <defs
     id="defs2">
    <linearGradient
       inkscape:collect="always"
       xlink:href="#linearGradient1093"
       id="linearGradient8655"
       x1="25"
       y1="30"
       x2="7"
       y2="2"
       gradientUnits="userSpaceOnUse" />
    <linearGradient
       inkscape:collect="always"
       id="linearGradient1093">
      <stop
         style="stop-color:#981b1b;stop-opacity:1;"
         offset="0"
         id="stop1089" />
      <stop
         style="stop-color:#c75349;stop-opacity:1;"
         offset="1"
         id="stop1091" />
    </linearGradient>
  </defs>
  <rect
     style="fill:url(#linearGradient8655);fill-opacity:1.0;stroke:none"
     id="rect184"
     width="27"
     height="27"
     x="2.5"
     y="2.5"
     ry="4.5" />
  <path
     d="m 11.200893,11 -3.9017905,10.86607 -1.299105,0.232145 v 0.455355 h 3.767855 v -0.455355 l -1.540175,-0.232145 1.15625,-3.30357 h 4.5089255 l 1.138395,3.30357 -1.54018,0.232145 v 0.455355 h 4.843749 V 22.098215 L 16.883927,21.86607 12.825893,11 Z m 0.401785,1.232145 2.026785,5.5625 H 9.6383925 Z m 10.843749,2.10714 c -0.461345,10e-6 -0.891495,0.03555 -1.29018,0.09821 -0.392995,0.05696 -0.77711,0.121165 -1.14732,0.200895 v 1.754465 h 0.48214 l 0.29018,-1 c 0.210735,-0.1196 0.453055,-0.21613 0.732146,-0.29018 0.279074,-0.07404 0.556964,-0.1116 0.830354,-0.11161 0.23921,10e-6 0.438735,0.0408 0.598216,0.12054 0.15947,0.07974 0.283864,0.187975 0.375,0.330355 0.09682,0.142395 0.165479,0.314055 0.205354,0.513395 0.03985,0.193654 0.05804,0.412575 0.05804,0.651785 v 1.254465 l -1.20089,0.0357 c -0.27339,0.0057 -0.548044,0.0174 -0.82143,0.0402 -0.267694,0.0228 -0.52295,0.06682 -0.767855,0.129465 -0.239215,0.06265 -0.46784,0.149485 -0.678575,0.26339 -0.20504,0.10822 -0.38193,0.252015 -0.53571,0.42857 -0.153785,0.17657 -0.27171,0.39426 -0.357145,0.65625 -0.08544,0.256305 -0.129465,0.56206 -0.129465,0.91518 0,0.34174 0.03435,0.65919 0.10268,0.95536 0.06834,0.290475 0.17981,0.54696 0.339285,0.76339 0.159476,0.21074 0.37193,0.37593 0.63393,0.49554 0.26769,0.119605 0.59484,0.17857 0.98214,0.17857 0.33034,0 0.62963,-0.03435 0.897325,-0.10268 0.27338,-0.06835 0.513705,-0.153175 0.71875,-0.25 0.205035,-0.10252 0.37546,-0.20752 0.517855,-0.32143 0.14808,-0.11391 0.267241,-0.21367 0.35268,-0.299105 l 0.160715,0.80357 h 2.205355 V 22.16518 l -1,-0.20982 v -5.42857 c -5e-6,-0.42716 -0.06544,-0.778945 -0.196429,-1.058035 -0.125306,-0.284775 -0.30343,-0.508925 -0.53125,-0.674105 -0.227826,-0.165165 -0.494786,-0.28433 -0.808036,-0.35268 -0.31326,-0.06834 -0.653345,-0.10267 -1.017855,-0.10268 z m 1.133926,4.120536 V 21.3125 c -0.284781,0.136695 -0.5679,0.252625 -0.852676,0.34375 -0.279089,0.08544 -0.612705,0.125 -1,0.125 -0.81447,0 -1.223214,-0.50204 -1.223214,-1.504465 0,-0.35312 0.0408,-0.64271 0.120534,-0.870535 0.07973,-0.22782 0.202131,-0.40471 0.361606,-0.535715 0.159475,-0.130994 0.362229,-0.22552 0.607144,-0.276785 0.244906,-0.05695 0.534495,-0.08681 0.870536,-0.09821 l 1.11607,-0.0357 z"
     style="font-style:normal;font-variant:normal;font-weight:normal;font-stretch:normal;font-size:122.478px;line-height:125%;font-family:'Liberation Serif';-inkscape-font-specification:'Liberation Serif';letter-spacing:0px;word-spacing:0px;display:inline;opacity:0.2;fill:#000000;fill-opacity:1;stroke:none;stroke-width:0.5;enable-background:new"
     id="path8966" />
  <path
     d="m 11.200893,10 -3.9017905,10.86607 -1.299105,0.232145 v 0.455355 h 3.767855 v -0.455355 l -1.540175,-0.232145 1.15625,-3.30357 h 4.5089255 l 1.138395,3.30357 -1.54018,0.232145 v 0.455355 h 4.843749 V 21.098215 L 16.883927,20.86607 12.825893,10 Z m 0.401785,1.232145 2.026785,5.5625 H 9.6383925 Z m 10.843749,2.10714 c -0.461345,10e-6 -0.891495,0.03555 -1.29018,0.09821 -0.392995,0.05696 -0.77711,0.121165 -1.14732,0.200895 v 1.754465 h 0.48214 l 0.29018,-1 c 0.210735,-0.1196 0.453055,-0.21613 0.732146,-0.29018 0.279074,-0.07403 0.556964,-0.1116 0.830354,-0.11161 0.23921,10e-6 0.438735,0.0408 0.598216,0.12054 0.15947,0.07974 0.283864,0.187975 0.375,0.330355 0.09682,0.142395 0.165479,0.314055 0.205354,0.513395 0.03985,0.193655 0.05804,0.412575 0.05804,0.651785 v 1.254465 l -1.20089,0.0357 c -0.27339,0.0057 -0.548044,0.0174 -0.82143,0.0402 -0.267694,0.0228 -0.52295,0.06682 -0.767855,0.129465 -0.239215,0.06265 -0.46784,0.149485 -0.678575,0.26339 -0.20504,0.10822 -0.38193,0.252015 -0.53571,0.42857 -0.153785,0.17657 -0.27171,0.39426 -0.357145,0.65625 -0.08544,0.256305 -0.129465,0.56206 -0.129465,0.91518 0,0.34174 0.03435,0.65919 0.10268,0.95536 0.06834,0.290475 0.17981,0.54696 0.339285,0.76339 0.159476,0.21074 0.37193,0.37593 0.63393,0.49554 0.26769,0.119605 0.59484,0.17857 0.98214,0.17857 0.33034,0 0.62963,-0.03435 0.897325,-0.10268 0.27338,-0.06835 0.513705,-0.153175 0.71875,-0.25 0.205035,-0.10252 0.37546,-0.20752 0.517855,-0.32143 0.14808,-0.11391 0.267241,-0.21367 0.35268,-0.299105 l 0.160715,0.80357 h 2.205355 V 21.16518 l -1,-0.20982 v -5.42857 c -5e-6,-0.42716 -0.06544,-0.778945 -0.196429,-1.058035 -0.125306,-0.284775 -0.30343,-0.508925 -0.53125,-0.674105 -0.227826,-0.165165 -0.494786,-0.28433 -0.808036,-0.35268 -0.31326,-0.06834 -0.653345,-0.10267 -1.017855,-0.10268 z m 1.133926,4.120535 v 2.85268 c -0.284781,0.136695 -0.5679,0.252625 -0.852676,0.34375 -0.279089,0.08544 -0.612705,0.125 -1,0.125 -0.81447,0 -1.223214,-0.50204 -1.223214,-1.504465 0,-0.35312 0.0408,-0.64271 0.120534,-0.870535 0.07973,-0.22782 0.202131,-0.40471 0.361606,-0.535715 0.159475,-0.130995 0.362229,-0.22552 0.607144,-0.276785 0.244906,-0.05695 0.534495,-0.08681 0.870536,-0.09821 l 1.11607,-0.0357 z"
     style="font-style:normal;font-variant:normal;font-weight:normal;font-stretch:normal;font-size:122.478px;line-height:125%;font-family:'Liberation Serif';-inkscape-font-specification:'Liberation Serif';letter-spacing:0px;word-spacing:0px;display:inline;fill:#ffffff;fill-opacity:1;stroke:none;stroke-width:0.5;enable-background:new"
     id="path8614"
     sodipodi:nodetypes="ccccccccccccccccccccccccccccccccscccccccscccscccccccccccccccccsssccccc" />
  <path
     id="rect2630"
     style="opacity:0.3;fill:#ffffff;fill-opacity:1"
     d="M 7,3 C 4.7840022,3 3,4.7840022 3,6.9999998 v 1 C 3,5.7840022 4.7840022,4 7,4 h 18 c 2.215998,0 4,1.7840022 4,3.9999998 v -1 C 29,4.7840022 27.215998,3 25,3 Z" />
  <path
     id="rect398"
     style="opacity:0.3;fill:#ffffff"
     d="m 3.0000002,24 v 1 c 0,2.215998 1.7840022,4 4,4 H 25 c 2.215998,0 4,-1.784002 4,-4 v -1 c 0,2.215998 -1.784002,4 -4,4 H 7.0000002 c -2.2159978,0 -4,-1.784002 -4,-4 z" />
  <path
     id="rect899"
     style="fill:#000000;stroke:none;opacity:0.5"
     d="M 7 2 C 4.2300028 2 2 4.2300028 2 7 L 2 25 C 2 27.769997 4.2300028 30 7 30 L 25 30 C 27.769997 30 30 27.769997 30 25 L 30 7 C 30 4.2300028 27.769997 2 25 2 L 7 2 z M 7 3 L 25 3 C 27.215998 3 29 4.7840022 29 7 L 29 25 C 29 27.215998 27.215998 29 25 29 L 7 29 C 4.7840022 29 3 27.215998 3 25 L 3 7 C 3 4.7840022 4.7840022 3 7 3 z " />
</svg>
