<?xml version="1.0" encoding="UTF-8" standalone="no"?>
<!-- Created with Inkscape (http://www.inkscape.org/) -->

<svg
   width="32"
   height="32"
   viewBox="0 0 32 32.000001"
   version="1.1"
   id="svg5"
   sodipodi:docname="accessories-document-viewer.svg"
   inkscape:version="1.2.1 (9c6d41e410, 2022-07-14)"
   xmlns:inkscape="http://www.inkscape.org/namespaces/inkscape"
   xmlns:sodipodi="http://sodipodi.sourceforge.net/DTD/sodipodi-0.dtd"
   xmlns:xlink="http://www.w3.org/1999/xlink"
   xmlns="http://www.w3.org/2000/svg"
   xmlns:svg="http://www.w3.org/2000/svg">
  <sodipodi:namedview
     id="namedview7"
     pagecolor="#ffffff"
     bordercolor="#666666"
     borderopacity="1.0"
     inkscape:showpageshadow="2"
     inkscape:pageopacity="0.0"
     inkscape:pagecheckerboard="0"
     inkscape:deskcolor="#d1d1d1"
     inkscape:document-units="px"
     showgrid="false"
     inkscape:zoom="28.214286"
     inkscape:cx="15.75443"
     inkscape:cy="15.98481"
     inkscape:window-width="1920"
     inkscape:window-height="1002"
     inkscape:window-x="0"
     inkscape:window-y="0"
     inkscape:window-maximized="1"
     inkscape:current-layer="svg5" />
  <defs
     id="defs2">
    <linearGradient
       inkscape:collect="always"
       xlink:href="#linearGradient1216"
       id="linearGradient8655"
       x1="25"
       y1="30"
       x2="7"
       y2="2"
       gradientUnits="userSpaceOnUse" />
    <linearGradient
       inkscape:collect="always"
       id="linearGradient1216">
      <stop
         style="stop-color:#dc1111;stop-opacity:1;"
         offset="0"
         id="stop1212" />
      <stop
         style="stop-color:#dc5d4f;stop-opacity:1;"
         offset="1"
         id="stop1214" />
    </linearGradient>
  </defs>
  <rect
     style="fill:url(#linearGradient8655);fill-opacity:1.0;stroke:none"
     id="rect184"
     width="27"
     height="27"
     x="2.5"
     y="2.5"
     ry="4.5" />
  <path
     d="m 15.09837,7 c -0.176317,0 -0.293684,9.047e-4 -0.412109,0.029297 -0.118425,0.028392 -0.220377,0.09473 -0.300781,0.1621093 -0.216906,0.1818121 -0.324897,0.4635392 -0.404297,0.8261719 -0.0794,0.3626329 -0.118002,0.8132287 -0.117188,1.3437502 0.0015,1.0933186 0.154027,2.1396906 0.494141,3.4785146 l 0.193359,0.757812 -0.177734,0.554688 c -0.62739,2.004864 -1.537113,4.095412 -2.884766,6.609376 -1.021017,1.904656 -1.9261677,3.353051 -2.7011718,4.335937 -0.6847233,0.868389 -1.218897,1.218148 -1.640625,1.367188 0.029075,-0.07799 0.022537,-0.11195 0.072266,-0.207032 0.1267791,-0.242398 0.3150492,-0.532163 0.546875,-0.83789 0.4636515,-0.611454 1.1009103,-1.292067 1.765625,-1.853516 0.090797,-0.07669 0.1584457,-0.13901 0.2109375,-0.193359 0.026246,-0.02717 0.04896,-0.05114 0.070312,-0.08008 0.021352,-0.02894 0.046111,-0.05465 0.0625,-0.132813 0.00819,-0.03908 0.012239,-0.102597 -0.019531,-0.169922 -0.03177,-0.06732 -0.099521,-0.11504 -0.1484376,-0.132812 -0.097834,-0.03554 -0.136378,-0.01578 -0.171875,-0.0078 -0.070994,0.01591 -0.1212437,0.04011 -0.1875,0.07227 -0.2650252,0.128615 -0.7018003,0.404031 -1.1796874,0.763672 -0.9733295,0.732491 -1.7757877,1.654224 -2.0507813,2.433594 -0.091019,0.257972 -0.1475461,0.458286 -0.1015625,0.669921 0.045984,0.211637 0.215885,0.362276 0.4023438,0.457032 0.2956832,0.150262 0.5433417,0.240752 0.7988281,0.251953 0.2554863,0.0112 0.4970441,-0.06294 0.7558593,-0.191406 1.0411583,-0.516791 2.2554519,-2.00406 3.6367189,-4.291016 0.221143,-0.36615 0.367482,-0.594208 0.458984,-0.714844 0.04236,-0.05585 0.06897,-0.08203 0.08008,-0.0918 0.0055,-0.0017 0.0219,-0.0023 0.0293,-0.0039 0.02116,-0.0045 0.04436,-0.01058 0.07227,-0.01758 0.05582,-0.014 0.129196,-0.03288 0.214844,-0.05664 0.171295,-0.04752 0.394253,-0.11229 0.630859,-0.183593 1.861353,-0.56094 4.106636,-1.017175 6.304688,-1.283204 l 0.664062,-0.08203 0.302735,0.150391 c 0.994399,0.498841 2.350269,0.973459 3.373046,1.173828 0.351973,0.06895 0.747675,0.109109 1.09961,0.119141 0.351933,0.01003 0.640082,0.0025 0.865234,-0.07617 0.127802,-0.04467 0.271711,-0.120362 0.404297,-0.203125 0.06629,-0.04138 0.127505,-0.08315 0.181641,-0.128906 0.02707,-0.02288 0.05307,-0.04648 0.08008,-0.08008 0.02701,-0.0336 0.0703,-0.0751 0.07031,-0.191406 l 0.002,-0.289062 c 0.0206,-0.03928 0.03644,-0.07642 0.04297,-0.107422 0.01641,-0.07794 0.01605,-0.149386 0.01172,-0.226563 -0.0087,-0.154353 -0.02942,-0.312235 -0.121094,-0.466797 -0.263237,-0.443826 -0.8596,-0.676549 -1.664062,-0.826171 -0.687607,-0.127888 -2.153532,-0.153624 -3.332032,-0.07617 l -0.951229,0.06053 -0.304688,-0.185546 v 0.002 c -2.096037,-1.269695 -3.170282,-2.654014 -4.181641,-5.394532 -0.07604,-0.206061 -0.111381,-0.314575 -0.121093,-0.376954 -0.0097,-0.06238 -0.0046,-0.1 0.01953,-0.224609 0.09659,-0.498781 0.178106,-1.497892 0.226562,-2.408202 0.02423,-0.455156 0.04027,-0.8843166 0.04102,-1.2089846 3.73e-4,-0.162333 -0.0037,-0.297956 -0.01172,-0.404297 -0.004,-0.05317 -0.0081,-0.09858 -0.01758,-0.144531 -0.0047,-0.02297 -0.01066,-0.04498 -0.02344,-0.07617 -0.01278,-0.0312 -0.02472,-0.081441 -0.111329,-0.1347656 l -0.107421,-0.066406 h 0.02344 c 0.08317,0 0.194791,-0.061015 0.240234,-0.125 0.04544,-0.063985 0.05664,-0.1152935 0.06641,-0.1640625 0.01952,-0.097538 0.02325,-0.2016959 0.0293,-0.3613281 0.01396,-0.3675239 -0.01791,-0.66874 -0.22461,-0.8828125 -0.206704,-0.2141197 -0.505857,-0.2578125 -0.875,-0.2578125 z m 0.103516,0.9902344 c 0.194992,0.1172794 0.37085,0.2333481 0.412109,0.5800781 l 0.01953,0.1660156 -0.0625,0.2792973 c -0.140147,0.627797 -0.26563,1.2079026 -0.392578,1.8066396 -0.02018,-0.133728 -0.03956,-0.231039 -0.05859,-0.375 -0.05774,-0.436783 -0.07636,-0.9628176 -0.06055,-1.4238276 0.01581,-0.4610094 0.07844,-0.8736757 0.132812,-1.0136718 0.0029,-0.00756 0.0067,-0.012036 0.0098,-0.019531 z m 0.08984,7.4921866 c 0.07777,0.159348 0.166888,0.342178 0.261718,0.527344 0.842533,1.645069 1.820502,2.760824 3.121094,3.683594 -0.062,0.01189 -0.110046,0.02115 -0.177734,0.0332 -2.105688,0.374952 -4.506463,1.13324 -6.001953,1.802735 0.03125,-0.05898 0.05444,-0.106593 0.08984,-0.169922 1.294231,-2.314958 2.169046,-4.190953 2.666023,-5.751951 0.01903,-0.05976 0.02479,-0.07429 0.04102,-0.125 z m 8.623046,4.882813 c 0.134899,-0.0026 0.270469,4.07e-4 0.40625,0.01172 0.447408,0.03728 0.851677,0.116861 1.142579,0.236328 0.2909,0.119468 0.44608,0.263562 0.492187,0.421875 l 0.02539,0.08984 c -0.288994,0.102964 -0.649938,0.118426 -1.06836,0.03516 -0.458362,-0.09122 -0.94719,-0.258608 -1.380859,-0.386718 l -0.0039,-0.002 c -0.204974,-0.06471 -0.531343,-0.187636 -0.835938,-0.302734 0.415399,-0.03712 0.817962,-0.09566 1.222656,-0.103516 z"
     style="color:#000000;fill:#000000;stroke:none;stroke-width:0.5;opacity:0.2"
     id="path24628" />
  <path
     id="path24613"
     style="color:#000000;fill:#ffffff;stroke:none;stroke-width:0.5"
     d="m 15.09837,6 c -0.176317,0 -0.293684,9.047e-4 -0.412109,0.029297 -0.118425,0.028392 -0.220377,0.09473 -0.300781,0.1621093 -0.216906,0.1818121 -0.324897,0.4635392 -0.404297,0.8261719 -0.0794,0.3626329 -0.118002,0.8132287 -0.117188,1.34375 0.0015,1.0933189 0.154027,2.1396918 0.494141,3.4785158 l 0.193359,0.757812 -0.177734,0.554688 c -0.62739,2.004864 -1.537113,4.095411 -2.884766,6.609375 -1.021017,1.904656 -1.9261677,3.353051 -2.7011718,4.335937 -0.6847233,0.868389 -1.218897,1.218148 -1.640625,1.367188 0.029075,-0.07799 0.022537,-0.11195 0.072266,-0.207032 0.1267791,-0.242398 0.3150492,-0.532163 0.546875,-0.83789 0.4636515,-0.611454 1.1009103,-1.292067 1.765625,-1.853516 0.090797,-0.07669 0.1584457,-0.13901 0.2109375,-0.193359 0.026246,-0.02717 0.04896,-0.05114 0.070312,-0.08008 0.021352,-0.02894 0.046111,-0.05465 0.0625,-0.132813 0.00819,-0.03908 0.012239,-0.102597 -0.019531,-0.169922 -0.03177,-0.06732 -0.099521,-0.11504 -0.1484376,-0.132812 -0.097834,-0.03554 -0.136378,-0.01578 -0.171875,-0.0078 -0.070994,0.01591 -0.1212437,0.04011 -0.1875,0.07227 -0.2650252,0.128615 -0.7018003,0.404031 -1.1796874,0.763672 -0.9733295,0.732491 -1.7757877,1.654224 -2.0507813,2.433594 -0.091019,0.257972 -0.1475461,0.458286 -0.1015625,0.669921 0.045984,0.211637 0.215885,0.362276 0.4023438,0.457032 0.2956832,0.150262 0.5433417,0.240752 0.7988281,0.251953 0.2554863,0.0112 0.4970441,-0.06294 0.7558593,-0.191406 1.0411583,-0.516791 2.2554519,-2.00406 3.6367189,-4.291016 0.221143,-0.36615 0.367482,-0.594208 0.458984,-0.714844 0.04236,-0.05585 0.06897,-0.08203 0.08008,-0.0918 0.0055,-0.0017 0.0219,-0.0023 0.0293,-0.0039 0.02116,-0.0045 0.04436,-0.01058 0.07227,-0.01758 0.05582,-0.014 0.129196,-0.03288 0.214844,-0.05664 0.171295,-0.04752 0.394253,-0.11229 0.630859,-0.183593 1.861353,-0.56094 4.106636,-1.017175 6.304688,-1.283204 l 0.664062,-0.08203 0.302735,0.150391 c 0.994399,0.498841 2.350269,0.973459 3.373046,1.173828 0.351973,0.06895 0.747675,0.109109 1.09961,0.119141 0.351933,0.01003 0.640082,0.0025 0.865234,-0.07617 0.127802,-0.04467 0.271711,-0.120362 0.404297,-0.203125 0.06629,-0.04138 0.127505,-0.08315 0.181641,-0.128906 0.02707,-0.02288 0.05307,-0.04648 0.08008,-0.08008 0.02701,-0.0336 0.0703,-0.0751 0.07031,-0.191406 l 0.002,-0.289062 c 0.0206,-0.03928 0.03644,-0.07642 0.04297,-0.107422 0.01641,-0.07794 0.01605,-0.149386 0.01172,-0.226563 -0.0087,-0.154353 -0.02942,-0.312235 -0.121094,-0.466797 -0.263237,-0.443826 -0.8596,-0.676549 -1.664062,-0.826171 -0.687607,-0.127888 -2.153532,-0.153624 -3.332032,-0.07617 l -0.951229,0.06053 -0.304688,-0.185546 v 0.002 c -2.096037,-1.269695 -3.170282,-2.654013 -4.181641,-5.394531 -0.07604,-0.206061 -0.111381,-0.314575 -0.121093,-0.376954 -0.0097,-0.06238 -0.0046,-0.1 0.01953,-0.224609 0.09659,-0.498781 0.178106,-1.497892 0.226562,-2.4082031 0.02423,-0.4551557 0.04027,-0.8843169 0.04102,-1.2089844 3.73e-4,-0.1623337 -0.0037,-0.2979564 -0.01172,-0.4042969 -0.004,-0.05317 -0.0081,-0.098583 -0.01758,-0.1445312 -0.0047,-0.022974 -0.01066,-0.044977 -0.02344,-0.076172 -0.01278,-0.031195 -0.02472,-0.081441 -0.111329,-0.1347656 l -0.107421,-0.066406 h 0.02344 c 0.08317,0 0.194791,-0.061015 0.240234,-0.125 0.04544,-0.063985 0.05664,-0.1152935 0.06641,-0.1640625 0.01952,-0.097538 0.02325,-0.2016959 0.0293,-0.3613281 0.01396,-0.3675239 -0.01791,-0.66874 -0.22461,-0.8828125 C 15.766666,6.0436928 15.467513,6 15.09837,6 Z m 0.103516,0.9902344 c 0.194992,0.1172794 0.37085,0.2333481 0.412109,0.5800781 l 0.01953,0.1660156 -0.0625,0.2792969 c -0.140147,0.627797 -0.26563,1.2079036 -0.392578,1.8066406 -0.02018,-0.1337284 -0.03956,-0.2310391 -0.05859,-0.375 -0.05774,-0.4367837 -0.07636,-0.9628186 -0.06055,-1.4238281 0.01581,-0.4610095 0.07844,-0.8736758 0.132812,-1.0136719 0.0029,-0.00756 0.0067,-0.012036 0.0098,-0.019531 z m 0.08984,7.4921876 c 0.07777,0.159348 0.166888,0.342178 0.261718,0.527344 0.842533,1.645068 1.820502,2.760823 3.121094,3.683593 -0.062,0.01189 -0.110046,0.02115 -0.177734,0.0332 -2.105688,0.374952 -4.506463,1.13324 -6.001953,1.802735 0.03125,-0.05898 0.05444,-0.106593 0.08984,-0.169922 1.294231,-2.314958 2.169046,-4.190952 2.666023,-5.75195 0.01903,-0.05976 0.02479,-0.07429 0.04102,-0.125 z m 8.623046,4.882812 c 0.134899,-0.0026 0.270469,4.07e-4 0.40625,0.01172 0.447408,0.03728 0.851677,0.116861 1.142579,0.236328 0.2909,0.119468 0.44608,0.263562 0.492187,0.421875 l 0.02539,0.08984 c -0.288994,0.102964 -0.649938,0.118426 -1.06836,0.03516 -0.458362,-0.09122 -0.94719,-0.258608 -1.380859,-0.386718 l -0.0039,-0.002 c -0.204974,-0.06471 -0.531343,-0.187636 -0.835938,-0.302734 0.415399,-0.03712 0.817962,-0.09566 1.222656,-0.103516 z"
     sodipodi:nodetypes="sscscccccscssssssssccssssssssccssccccsscsssccscssccccccsssccsccsscccscccccssccccccccscsssccscccs" />
  <path
     id="rect2630"
     style="opacity:0.3;fill:#ffffff;fill-opacity:1"
     d="M 7,3 C 4.7840022,3 3,4.7840022 3,6.9999998 v 1 C 3,5.7840022 4.7840022,4 7,4 h 18 c 2.215998,0 4,1.7840022 4,3.9999998 v -1 C 29,4.7840022 27.215998,3 25,3 Z" />
  <path
     id="rect398"
     style="opacity:0.3;fill:#ffffff"
     d="m 3.0000002,24 v 1 c 0,2.215998 1.7840022,4 4,4 H 25 c 2.215998,0 4,-1.784002 4,-4 v -1 c 0,2.215998 -1.784002,4 -4,4 H 7.0000002 c -2.2159978,0 -4,-1.784002 -4,-4 z" />
  <path
     id="rect899"
     style="fill:#000000;stroke:none;opacity:0.5"
     d="M 7 2 C 4.2300028 2 2 4.2300028 2 7 L 2 25 C 2 27.769997 4.2300028 30 7 30 L 25 30 C 27.769997 30 30 27.769997 30 25 L 30 7 C 30 4.2300028 27.769997 2 25 2 L 7 2 z M 7 3 L 25 3 C 27.215998 3 29 4.7840022 29 7 L 29 25 C 29 27.215998 27.215998 29 25 29 L 7 29 C 4.7840022 29 3 27.215998 3 25 L 3 7 C 3 4.7840022 4.7840022 3 7 3 z " />
</svg>
