<?xml version="1.0" encoding="UTF-8" standalone="no"?>
<!-- Created with Inkscape (http://www.inkscape.org/) -->

<svg
   width="32"
   height="32"
   viewBox="0 0 32 32.000001"
   version="1.1"
   id="svg5"
   sodipodi:docname="applications-utilities.svg"
   inkscape:version="1.2.1 (9c6d41e410, 2022-07-14)"
   xmlns:inkscape="http://www.inkscape.org/namespaces/inkscape"
   xmlns:sodipodi="http://sodipodi.sourceforge.net/DTD/sodipodi-0.dtd"
   xmlns:xlink="http://www.w3.org/1999/xlink"
   xmlns="http://www.w3.org/2000/svg"
   xmlns:svg="http://www.w3.org/2000/svg">
  <sodipodi:namedview
     id="namedview7"
     pagecolor="#ffffff"
     bordercolor="#666666"
     borderopacity="1.0"
     inkscape:showpageshadow="2"
     inkscape:pageopacity="0.0"
     inkscape:pagecheckerboard="0"
     inkscape:deskcolor="#d1d1d1"
     inkscape:document-units="px"
     showgrid="false"
     inkscape:zoom="24.84375"
     inkscape:cx="16.120755"
     inkscape:cy="16"
     inkscape:window-width="1920"
     inkscape:window-height="1007"
     inkscape:window-x="0"
     inkscape:window-y="0"
     inkscape:window-maximized="1"
     inkscape:current-layer="svg5" />
  <defs
     id="defs2">
    <linearGradient
       inkscape:collect="always"
       id="linearGradient22024">
      <stop
         style="stop-color:#cdcdcd;stop-opacity:1;"
         offset="0"
         id="stop22020" />
      <stop
         style="stop-color:#eff0f1;stop-opacity:1;"
         offset="1"
         id="stop22022" />
    </linearGradient>
    <linearGradient
       inkscape:collect="always"
       xlink:href="#linearGradient22024"
       id="linearGradient4979"
       x1="25"
       y1="30"
       x2="7"
       y2="2"
       gradientUnits="userSpaceOnUse" />
  </defs>
  <rect
     style="fill:url(#linearGradient4979);fill-opacity:1;stroke:none"
     id="rect184"
     width="27"
     height="27"
     x="2.5"
     y="2.5"
     ry="4.5" />
  <path
     d="m 21.95164,15.438507 c 0,0 -0.2176,0.154595 -0.677109,0.716582 -0.56197,0.687091 -0.98574,0.72287 -1.49204,0.735985 l -0.003,0.0041 c -0.101421,-0.0245 -0.20386,-0.0461 -0.306641,-0.0633 l -7.6e-4,-0.0041 c -0.46095,-0.209668 -0.83699,-0.408547 -1.08584,-1.260623 -0.20353,-0.696476 -0.34333,-0.92424 -0.34333,-0.92424 -0.28976,-0.06413 -0.65288,0.0069 -0.65288,0.0069 0,0 -0.36322,0.0706 -0.60762,0.238691 0,0 -0.0446,0.263378 0.0283,0.985478 0.0885,0.88319 -0.18591,1.208412 -0.53457,1.575593 l 3e-4,0.0055 c -0.0886,0.05436 -0.175149,0.112707 -0.26061,0.17356 l -0.003,-0.0028 c -0.47427,0.177591 -0.88081,0.302929 -1.659259,-0.123578 -0.6363,-0.348699 -0.89621,-0.410749 -0.89621,-0.410749 -0.2498,0.158765 -0.4566,0.465383 -0.4566,0.465383 0,0 -0.2069,0.306754 -0.26086,0.598481 0,0 0.15477,0.217843 0.71651,0.677156 0.68706,0.561958 0.72302,0.986028 0.73613,1.49213 l 0.005,0.0028 c -0.0243,0.101697 -0.046,0.203902 -0.0633,0.306548 l -0.003,5.23e-4 c -0.20957,0.461006 -0.4085,0.837035 -1.26049,1.085978 -0.69647,0.203365 -0.92433,0.343552 -0.92433,0.343552 -0.0641,0.289828 0.006,0.652453 0.006,0.652453 0,0 0.0707,0.363369 0.23871,0.607757 0,0 0.263349,0.04472 0.98539,-0.02794 0.88316,-0.08835 1.20811,0.186274 1.575489,0.534712 l 0.005,-7.85e-4 c 0.0545,0.08876 0.11285,0.175279 0.17348,0.260654 l -0.003,0.0041 c 0.17796,0.474189 0.302939,0.880699 -0.12344,1.659069 -0.34866,0.636422 -0.41066,0.896704 -0.41066,0.896704 0.15966,0.250195 0.465989,0.456781 0.465989,0.456781 0,0 0.30688,0.206984 0.598481,0.260874 0,0 0.21782,-0.154499 0.677059,-0.716458 0.56204,-0.687008 0.986071,-0.722623 1.49213,-0.736067 l 0.003,-0.0041 c 0.10211,0.02436 0.203971,0.0461 0.30668,0.0633 l 2.9e-4,0.0055 c 0.46106,0.209613 0.83704,0.408478 1.08596,1.26043 0.20339,0.696531 0.34356,0.924461 0.34356,0.924461 0.28981,0.06385 0.65254,-0.0069 0.65254,-0.0069 0,0 0.36338,-0.07073 0.60761,-0.238911 0,0 0.0446,-0.263076 -0.0268,-0.985327 -0.0883,-0.883176 0.18636,-1.208233 0.53461,-1.57551 l -9.1e-4,-0.0041 c 0.0887,-0.05436 0.17517,-0.11298 0.26061,-0.173585 l 0.005,0.0028 c 0.47418,-0.177797 0.88064,-0.303011 1.65912,0.123439 0.63632,0.348672 0.89654,0.410763 0.89654,0.410763 0.25022,-0.159824 0.45685,-0.466152 0.45685,-0.466152 0,0 0.20698,-0.306851 0.2609,-0.598523 0,0 -0.15449,-0.217815 -0.71658,-0.677086 -0.68708,-0.561959 -0.72267,-0.986043 -0.73599,-1.492062 l -0.003,-0.0028 c 0.0243,-0.102109 0.0462,-0.203957 0.0631,-0.306617 l 0.005,-7.84e-4 c 0.20964,-0.460951 0.40852,-0.836966 1.26051,-1.085909 0.69659,-0.203393 0.92454,-0.343566 0.92454,-0.343566 0.0639,-0.289814 -0.007,-0.652564 -0.007,-0.652564 0,0 -0.0706,-0.363231 -0.23868,-0.607742 0,0 -0.26342,-0.04459 -0.98553,0.02793 -0.88321,0.08849 -1.20828,-0.18593 -1.57559,-0.534532 l -0.005,7.84e-4 c -0.0545,-0.08876 -0.11256,-0.17532 -0.17375,-0.260571 l 0.003,-0.0041 c -0.17752,-0.474078 -0.30308,-0.880616 0.12344,-1.659111 0.34869,-0.636298 0.41089,-0.896498 0.41089,-0.896498 -0.15964,-0.250126 -0.46622,-0.456959 -0.46622,-0.456959 0,0 -0.30686,-0.206957 -0.59853,-0.260874 z m -0.581289,7.764834 c -0.993861,1.473456 -2.99394,1.862256 -4.46739,0.868396 -1.47344,-0.993872 -1.86222,-2.993934 -0.86837,-4.467404 0.99384,-1.473429 2.99392,-1.862228 4.46739,-0.868356 1.47346,0.993859 1.86223,2.993935 0.86837,4.467364 z M 15.86483,8.5655354 c 0,0 -0.202629,0.06743 -0.68563,0.389845 C 14.588541,9.349588 14.255991,9.277864 13.86557,9.169466 l -0.003,0.0028 c -0.072,-0.04252 -0.1452,-0.08298 -0.219789,-0.120137 l 3.3e-4,-0.0028 c -0.3036,-0.2682226 -0.54478,-0.5083446 -0.53587,-1.2184306 0.006,-0.58044 -0.0463,-0.787397 -0.0463,-0.787397 -0.206671,-0.116834 -0.50099,-0.147825 -0.50099,-0.147825 0,0 -0.29441,-0.03096 -0.5207,0.04046 0,0 -0.0956,0.191076 -0.20917,0.760466 -0.13891,0.696394 -0.42487,0.881016 -0.77747,1.080391 l -9.2e-4,0.0041 c -0.0806,0.02092 -0.16035,0.04527 -0.23997,0.07183 l -0.003,-0.0028 c -0.4044,0.02491 -0.74472,0.02573 -1.2405412,-0.482624 -0.40524,-0.415607 -0.58958,-0.523882 -0.58958,-0.523882 -0.22823,0.06303 -0.45817,0.249246 -0.45817,0.249246 0,0 -0.23004,0.186301 -0.33956,0.396864 0,0 0.0674,0.20287 0.3898,0.6856596 0.39418,0.590637 0.32251,0.923483 0.21416,1.313741 l 0.003,0.0028 c -0.0424,0.07211 -0.0828,0.145237 -0.12028,0.2197 l -0.003,-2.89e-4 c -0.26817,0.303672 -0.50829,0.544826 -1.21834,0.536005 -0.5804,-0.0069 -0.78753,0.04665 -0.78753,0.04665 -0.11684,0.20675 -0.14775,0.500652 -0.14775,0.500652 0,0 -0.0317,0.294493 0.0405,0.520798 0,0 0.19101,0.09578 0.7604,0.209118 0.69635,0.138976 0.88072,0.425088 1.08026,0.777599 l 0.003,2.89e-4 c 0.0211,0.08078 0.0454,0.160499 0.0718,0.239998 l -0.003,0.0028 c 0.0251,0.404392 0.0259,0.744641 -0.4825,1.240408 -0.41559,0.405341 -0.52391,0.589977 -0.52391,0.589977 0.0637,0.228755 0.24966,0.45846 0.24966,0.45846 0,0 0.18637,0.230131 0.39688,0.339575 0,0 0.20275,-0.06729 0.68556,-0.389777 0.59068,-0.394125 0.92341,-0.322208 1.3137302,-0.214113 l 0.003,-0.0028 c 0.0725,0.04252 0.14522,0.08298 0.21983,0.120137 l -9.2e-4,0.0041 c 0.3037,0.268209 0.54482,0.508289 0.53601,1.218307 -0.006,0.580454 0.0465,0.787618 0.0465,0.787618 0.20678,0.116697 0.50073,0.147701 0.50073,0.147701 0,0 0.29455,0.03096 0.52073,-0.0406 0,0 0.0956,-0.190843 0.20916,-0.76033 0.13919,-0.696325 0.4252,-0.880782 0.77752,-1.080308 l -1.4e-4,-0.0041 c 0.0806,-0.02092 0.16044,-0.04541 0.24,-0.07183 l 0.003,0.0028 c 0.40438,-0.02505 0.74464,-0.02587 1.24045,0.482542 0.40525,0.415593 0.58985,0.523977 0.58985,0.523977 0.22881,-0.06372 0.45853,-0.249782 0.45853,-0.249782 0,0 0.23014,-0.186343 0.3396,-0.396878 0,0 -0.0673,-0.202787 -0.38986,-0.685618 -0.39419,-0.590638 -0.32222,-0.923415 -0.21407,-1.313659 l -0.003,-0.0028 c 0.0424,-0.07238 0.0828,-0.145264 0.12013,-0.219796 l 0.005,4.4e-4 c 0.26823,-0.303616 0.50834,-0.54477 1.21838,-0.535949 0.58051,0.0069 0.78769,-0.04665 0.78769,-0.04665 0.11669,-0.206779 0.14761,-0.500818 0.14761,-0.500818 0,0 0.0315,-0.294355 -0.0405,-0.520784 0,0 -0.191109,-0.09578 -0.7605,-0.209173 -0.69644,-0.138921 -0.88093,-0.424868 -1.08041,-0.777475 l -0.003,-2.89e-4 c -0.0209,-0.08064 -0.0451,-0.160472 -0.0719,-0.239985 l 0.003,-0.0028 c -0.025,-0.40424 -0.026,-0.744627 0.48251,-1.240435 0.41562,-0.405258 0.52405,-0.589771 0.52405,-0.589771 -0.0636,-0.2287 -0.24982,-0.4586516 -0.24982,-0.4586516 0,0 -0.18634,-0.230117 -0.39688,-0.339575 z m -2.26092,5.8045676 c -1.105,0.894819 -2.72609,0.724453 -3.6209202,-0.380543 -0.89482,-1.105009 -0.72442,-2.726111 0.3805302,-3.620943 1.10498,-0.894791 2.726101,-0.724426 3.62092,0.380584 0.89482,1.105009 0.7244,2.726111 -0.38055,3.620916 z"
     style="display:inline;opacity:0.5;fill:#ffffff;fill-opacity:1;stroke:none;enable-background:new"
     id="path7698" />
  <path
     d="m 21.951194,14.438507 c 0,0 -0.2176,0.154595 -0.677109,0.716582 -0.56197,0.687091 -0.98574,0.72287 -1.49204,0.735985 l -0.003,0.0041 c -0.101421,-0.0245 -0.20386,-0.0461 -0.306641,-0.0633 l -7.6e-4,-0.0041 c -0.46095,-0.209668 -0.83699,-0.408547 -1.08584,-1.260623 -0.20353,-0.696476 -0.34333,-0.92424 -0.34333,-0.92424 -0.28976,-0.06413 -0.65288,0.0069 -0.65288,0.0069 0,0 -0.36322,0.0706 -0.60762,0.238691 0,0 -0.0446,0.263378 0.0283,0.985478 0.0885,0.88319 -0.18591,1.208412 -0.53457,1.575593 l 3e-4,0.0055 c -0.0886,0.05436 -0.175149,0.112706 -0.26061,0.173559 l -0.003,-0.0028 c -0.47427,0.177591 -0.88081,0.302929 -1.659259,-0.123577 -0.6363,-0.348699 -0.89621,-0.410749 -0.89621,-0.410749 -0.2498,0.158765 -0.4566,0.465382 -0.4566,0.465382 0,0 -0.2069,0.306754 -0.26086,0.598481 0,0 0.15477,0.217843 0.71651,0.677156 0.68706,0.561958 0.72302,0.986028 0.73613,1.49213 l 0.005,0.0028 c -0.0243,0.101697 -0.046,0.203902 -0.0633,0.306548 l -0.003,5.23e-4 c -0.20957,0.461006 -0.4085,0.837035 -1.26049,1.085978 -0.69647,0.203365 -0.92433,0.343552 -0.92433,0.343552 -0.0641,0.289828 0.006,0.652453 0.006,0.652453 0,0 0.0707,0.363369 0.23871,0.607757 0,0 0.263349,0.04472 0.98539,-0.02794 0.88316,-0.08835 1.20811,0.186274 1.575489,0.534712 l 0.005,-7.85e-4 c 0.0545,0.08876 0.11285,0.175279 0.17348,0.260654 l -0.003,0.0041 c 0.17796,0.474189 0.302939,0.880699 -0.12344,1.659069 -0.34866,0.636422 -0.41066,0.896704 -0.41066,0.896704 0.15966,0.250195 0.465989,0.456781 0.465989,0.456781 0,0 0.30688,0.206984 0.598481,0.260874 0,0 0.21782,-0.154499 0.677059,-0.716458 0.56204,-0.687008 0.986071,-0.722623 1.49213,-0.736067 l 0.003,-0.0041 c 0.10211,0.02436 0.203971,0.0461 0.30668,0.0633 l 2.9e-4,0.0055 c 0.46106,0.209613 0.83704,0.408478 1.08596,1.26043 0.20339,0.696531 0.34356,0.924461 0.34356,0.924461 0.28981,0.06385 0.65254,-0.0069 0.65254,-0.0069 0,0 0.36338,-0.07073 0.60761,-0.238911 0,0 0.0446,-0.263076 -0.0268,-0.985327 -0.0883,-0.883176 0.18636,-1.208233 0.53461,-1.57551 l -9.1e-4,-0.0041 c 0.0887,-0.05436 0.17517,-0.11298 0.26061,-0.173585 l 0.005,0.0028 c 0.47418,-0.177797 0.88064,-0.303011 1.65912,0.123439 0.63632,0.348672 0.89654,0.410763 0.89654,0.410763 0.25022,-0.159824 0.45685,-0.466152 0.45685,-0.466152 0,0 0.20698,-0.306851 0.2609,-0.598523 0,0 -0.15449,-0.217815 -0.71658,-0.677086 -0.68708,-0.561959 -0.72267,-0.986043 -0.73599,-1.492062 l -0.003,-0.0028 c 0.0243,-0.102109 0.0462,-0.203957 0.0631,-0.306617 l 0.005,-7.84e-4 c 0.20964,-0.460951 0.40852,-0.836966 1.26051,-1.085909 0.69659,-0.203393 0.92454,-0.343566 0.92454,-0.343566 0.0639,-0.289814 -0.007,-0.652564 -0.007,-0.652564 0,0 -0.0706,-0.363231 -0.23868,-0.607742 0,0 -0.26342,-0.04459 -0.98553,0.02793 -0.88321,0.08849 -1.20828,-0.18593 -1.57559,-0.534532 l -0.005,7.84e-4 c -0.0545,-0.08876 -0.11256,-0.17532 -0.17375,-0.260571 l 0.003,-0.0041 c -0.17752,-0.474078 -0.30308,-0.880616 0.12344,-1.65911 0.34869,-0.636298 0.41089,-0.896498 0.41089,-0.896498 -0.15964,-0.250126 -0.46622,-0.456959 -0.46622,-0.456959 0,0 -0.30686,-0.206957 -0.59853,-0.260874 z m -0.581289,7.764833 c -0.993861,1.473456 -2.99394,1.862256 -4.46739,0.868396 -1.47344,-0.993872 -1.86222,-2.993934 -0.86837,-4.467404 0.99384,-1.473429 2.99392,-1.862228 4.46739,-0.868356 1.47346,0.993859 1.86223,2.993935 0.86837,4.467364 z M 15.864384,7.5655354 c 0,0 -0.202629,0.06743 -0.68563,0.389845 -0.590659,0.394208 -0.923209,0.322484 -1.31363,0.214086 l -0.003,0.0028 c -0.072,-0.04252 -0.1452,-0.08298 -0.219789,-0.120137 l 3.3e-4,-0.0028 c -0.3036,-0.268223 -0.54478,-0.508345 -0.53587,-1.218431 0.006,-0.58044 -0.0463,-0.787397 -0.0463,-0.787397 -0.206671,-0.116834 -0.50099,-0.147825 -0.50099,-0.147825 0,0 -0.29441,-0.03096 -0.5207,0.04046 0,0 -0.0956,0.191076 -0.20917,0.760466 -0.13891,0.696394 -0.42487,0.881016 -0.77747,1.080391 l -9.2e-4,0.0041 c -0.0806,0.02092 -0.16035,0.04527 -0.23997,0.07183 l -0.003,-0.0028 c -0.4044,0.02491 -0.74472,0.02573 -1.2405409,-0.482624 -0.40524,-0.415607 -0.58958,-0.523882 -0.58958,-0.523882 -0.22823,0.06303 -0.4581697,0.249246 -0.4581697,0.249246 0,0 -0.23004,0.186301 -0.33956,0.396864 0,0 0.0674,0.20287 0.3898,0.68566 0.3941797,0.590637 0.3225097,0.923483 0.2141597,1.313741 l 0.003,0.0028 c -0.0424,0.07211 -0.0828,0.145237 -0.12028,0.2197 l -0.003,-2.89e-4 C 8.3959344,10.015011 8.1558144,10.256165 7.4457644,10.247344 c -0.5804,-0.0069 -0.78753,0.04665 -0.78753,0.04665 -0.11684,0.20675 -0.14775,0.500652 -0.14775,0.500652 0,0 -0.0317,0.294493 0.0405,0.520798 0,0 0.19101,0.09578 0.7604,0.209118 0.69635,0.138976 0.88072,0.425088 1.08026,0.777599 l 0.003,2.89e-4 c 0.0211,0.08078 0.0454,0.160499 0.0718,0.239998 l -0.003,0.0028 c 0.0251,0.404392 0.0259,0.744641 -0.4825,1.240408 -0.41559,0.405341 -0.52391,0.589977 -0.52391,0.589977 0.0637,0.228755 0.24966,0.45846 0.24966,0.45846 0,0 0.18637,0.230131 0.39688,0.339575 0,0 0.20275,-0.06729 0.6855597,-0.389777 0.59068,-0.394125 0.92341,-0.322208 1.3137299,-0.214113 l 0.003,-0.0028 c 0.0725,0.04252 0.14522,0.08298 0.21983,0.120137 l -9.2e-4,0.0041 c 0.3037,0.268209 0.54482,0.508289 0.53601,1.218307 -0.006,0.580454 0.0465,0.787617 0.0465,0.787617 0.20678,0.116697 0.50073,0.147701 0.50073,0.147701 0,0 0.29455,0.03096 0.52073,-0.0406 0,0 0.0956,-0.190843 0.20916,-0.760329 0.13919,-0.696325 0.4252,-0.880782 0.77752,-1.080308 l -1.4e-4,-0.0041 c 0.0806,-0.02092 0.16044,-0.04541 0.24,-0.07183 l 0.003,0.0028 c 0.40438,-0.02505 0.74464,-0.02587 1.24045,0.482542 0.40525,0.415593 0.58985,0.523977 0.58985,0.523977 0.22881,-0.06372 0.45853,-0.249782 0.45853,-0.249782 0,0 0.23014,-0.186343 0.3396,-0.396878 0,0 -0.0673,-0.202787 -0.38986,-0.685618 -0.39419,-0.590638 -0.32222,-0.923415 -0.21407,-1.313659 l -0.003,-0.0028 c 0.0424,-0.07238 0.0828,-0.145264 0.12013,-0.219796 l 0.005,4.4e-4 c 0.26823,-0.303616 0.50834,-0.54477 1.21838,-0.535949 0.58051,0.0069 0.78769,-0.04665 0.78769,-0.04665 0.11669,-0.206779 0.14761,-0.500818 0.14761,-0.500818 0,0 0.0315,-0.294355 -0.0405,-0.520784 0,0 -0.191109,-0.09578 -0.7605,-0.209173 -0.69644,-0.138921 -0.88093,-0.424868 -1.08041,-0.777475 l -0.003,-2.89e-4 c -0.0209,-0.08064 -0.0451,-0.160472 -0.0719,-0.239985 l 0.003,-0.0028 c -0.025,-0.4042396 -0.026,-0.7446266 0.48251,-1.2404346 0.41562,-0.405258 0.52405,-0.589771 0.52405,-0.589771 -0.0636,-0.2287 -0.24982,-0.458652 -0.24982,-0.458652 0,0 -0.18634,-0.230117 -0.39688,-0.339575 z m -2.26092,5.8045676 c -1.105,0.894819 -2.72609,0.724453 -3.6209199,-0.380543 -0.89482,-1.105009 -0.72442,-2.726111 0.3805299,-3.6209426 1.10498,-0.894791 2.726101,-0.724426 3.62092,0.380584 0.89482,1.1050086 0.7244,2.7261106 -0.38055,3.6209156 z"
     style="display:inline;fill:#929292;fill-opacity:1;stroke:none;enable-background:new"
     id="path5900"
     sodipodi:nodetypes="cccccccccccccccccccccccccccccccccccccccccccccccccccccccccccccccccccccccccccccsccccccccccccccccccccccccccccccccccccccccccccccccccccccccccccccccccccccccccccccscc" />
  <path
     id="rect2630"
     style="opacity:0.3;fill:#ffffff;fill-opacity:1"
     d="M 7,3 C 4.7840022,3 3,4.7840022 3,6.9999998 v 1 C 3,5.7840022 4.7840022,4 7,4 h 18 c 2.215998,0 4,1.7840022 4,3.9999998 v -1 C 29,4.7840022 27.215998,3 25,3 Z" />
  <path
     id="rect398"
     style="opacity:0.3;fill:#ffffff"
     d="m 3.0000002,24 v 1 c 0,2.215998 1.7840022,4 4,4 H 25 c 2.215998,0 4,-1.784002 4,-4 v -1 c 0,2.215998 -1.784002,4 -4,4 H 7.0000002 c -2.2159978,0 -4,-1.784002 -4,-4 z" />
  <path
     id="rect899"
     style="fill:#000000;stroke:none;opacity:0.5"
     d="M 7 2 C 4.2300028 2 2 4.2300028 2 7 L 2 25 C 2 27.769997 4.2300028 30 7 30 L 25 30 C 27.769997 30 30 27.769997 30 25 L 30 7 C 30 4.2300028 27.769997 2 25 2 L 7 2 z M 7 3 L 25 3 C 27.215998 3 29 4.7840022 29 7 L 29 25 C 29 27.215998 27.215998 29 25 29 L 7 29 C 4.7840022 29 3 27.215998 3 25 L 3 7 C 3 4.7840022 4.7840022 3 7 3 z " />
</svg>
