<?xml version="1.0" encoding="UTF-8" standalone="no"?>
<!-- Created with Inkscape (http://www.inkscape.org/) -->

<svg
   width="32"
   height="32"
   viewBox="0 0 32 32.000001"
   version="1.1"
   id="svg5"
   sodipodi:docname="applications-other.svg"
   inkscape:version="1.2.1 (9c6d41e410, 2022-07-14)"
   xmlns:inkscape="http://www.inkscape.org/namespaces/inkscape"
   xmlns:sodipodi="http://sodipodi.sourceforge.net/DTD/sodipodi-0.dtd"
   xmlns:xlink="http://www.w3.org/1999/xlink"
   xmlns="http://www.w3.org/2000/svg"
   xmlns:svg="http://www.w3.org/2000/svg">
  <sodipodi:namedview
     id="namedview7"
     pagecolor="#ffffff"
     bordercolor="#666666"
     borderopacity="1.0"
     inkscape:showpageshadow="2"
     inkscape:pageopacity="0.0"
     inkscape:pagecheckerboard="0"
     inkscape:deskcolor="#d1d1d1"
     inkscape:document-units="px"
     showgrid="false"
     inkscape:zoom="28.285714"
     inkscape:cx="16.032828"
     inkscape:cy="16.050505"
     inkscape:window-width="1920"
     inkscape:window-height="1007"
     inkscape:window-x="0"
     inkscape:window-y="0"
     inkscape:window-maximized="1"
     inkscape:current-layer="svg5" />
  <defs
     id="defs2">
    <linearGradient
       inkscape:collect="always"
       xlink:href="#linearGradient3585"
       id="linearGradient8655"
       x1="25"
       y1="30"
       x2="7"
       y2="2"
       gradientUnits="userSpaceOnUse" />
    <linearGradient
       inkscape:collect="always"
       id="linearGradient3585">
      <stop
         style="stop-color:#adb2b9;stop-opacity:1;"
         offset="0"
         id="stop3581" />
      <stop
         style="stop-color:#e6e6e6;stop-opacity:1"
         offset="1"
         id="stop3583" />
    </linearGradient>
  </defs>
  <rect
     style="fill:url(#linearGradient8655);fill-opacity:1;stroke:none"
     id="rect184"
     width="27"
     height="27"
     x="2.5"
     y="2.5"
     ry="4.5" />
  <path
     d="M 7.9999995,15 C 6.8954298,15 6,15.89543 6,17 c 0,1.10457 0.8954298,2 1.9999995,2 1.1045687,0 1.9999995,-0.89543 1.9999995,-2 0,-1.10457 -0.8954308,-2 -1.9999995,-2 z m 7.9999985,0 c -1.10457,0 -1.999999,0.89543 -1.999999,2 0,1.10457 0.895429,2 1.999999,2 1.10457,0 1.999999,-0.89543 1.999999,-2 0,-1.10457 -0.895429,-2 -1.999999,-2 z m 7.999998,0 c -1.10457,0 -1.999999,0.89543 -1.999999,2 0,1.10457 0.895429,2 1.999999,2 1.104569,0 1.999999,-0.89543 1.999999,-2 0,-1.10457 -0.89543,-2 -1.999999,-2 z"
     style="opacity:0.2;fill:#000000;fill-opacity:1;stroke-width:18;stroke-linecap:round;stroke-linejoin:round"
     id="path1082" />
  <path
     id="path1026"
     style="fill:#666666;fill-opacity:1;stroke-width:18;stroke-linecap:round;stroke-linejoin:round"
     d="m 8,14 c -1.10457,0 -2,0.89543 -2,2 0,1.10457 0.89543,2 2,2 1.104569,0 2,-0.89543 2,-2 0,-1.10457 -0.895431,-2 -2,-2 z m 8,0 c -1.104569,0 -1.999999,0.89543 -1.999999,2 0,1.10457 0.89543,2 1.999999,2 1.10457,0 2,-0.89543 2,-2 0,-1.10457 -0.89543,-2 -2,-2 z m 8,0 c -1.10457,0 -1.999999,0.89543 -1.999999,2 0,1.10457 0.895429,2 1.999999,2 1.10457,0 2,-0.89543 2,-2 0,-1.10457 -0.89543,-2 -2,-2 z"
     sodipodi:nodetypes="sssssssssssssss" />
  <path
     id="rect2630"
     style="opacity:0.3;fill:#ffffff;fill-opacity:1"
     d="M 7,3 C 4.7840022,3 3,4.7840022 3,6.9999998 v 1 C 3,5.7840022 4.7840022,4 7,4 h 18 c 2.215998,0 4,1.7840022 4,3.9999998 v -1 C 29,4.7840022 27.215998,3 25,3 Z" />
  <path
     id="rect398"
     style="opacity:0.3;fill:#ffffff"
     d="m 3.0000002,24 v 1 c 0,2.215998 1.7840022,4 4,4 H 25 c 2.215998,0 4,-1.784002 4,-4 v -1 c 0,2.215998 -1.784002,4 -4,4 H 7.0000002 c -2.2159978,0 -4,-1.784002 -4,-4 z" />
  <path
     id="rect899"
     style="fill:#000000;stroke:none;opacity:0.5"
     d="M 7 2 C 4.2300028 2 2 4.2300028 2 7 L 2 25 C 2 27.769997 4.2300028 30 7 30 L 25 30 C 27.769997 30 30 27.769997 30 25 L 30 7 C 30 4.2300028 27.769997 2 25 2 L 7 2 z M 7 3 L 25 3 C 27.215998 3 29 4.7840022 29 7 L 29 25 C 29 27.215998 27.215998 29 25 29 L 7 29 C 4.7840022 29 3 27.215998 3 25 L 3 7 C 3 4.7840022 4.7840022 3 7 3 z " />
</svg>
