<?xml version="1.0" encoding="UTF-8" standalone="no"?>
<!-- Created with Inkscape (http://www.inkscape.org/) -->

<svg
   width="32"
   height="32"
   viewBox="0 0 32 32.000001"
   version="1.1"
   id="svg5"
   sodipodi:docname="applications-science.svg"
   inkscape:version="1.2.1 (9c6d41e410, 2022-07-14)"
   xmlns:inkscape="http://www.inkscape.org/namespaces/inkscape"
   xmlns:sodipodi="http://sodipodi.sourceforge.net/DTD/sodipodi-0.dtd"
   xmlns:xlink="http://www.w3.org/1999/xlink"
   xmlns="http://www.w3.org/2000/svg"
   xmlns:svg="http://www.w3.org/2000/svg">
  <sodipodi:namedview
     id="namedview7"
     pagecolor="#ffffff"
     bordercolor="#666666"
     borderopacity="1.0"
     inkscape:showpageshadow="2"
     inkscape:pageopacity="0.0"
     inkscape:pagecheckerboard="0"
     inkscape:deskcolor="#d1d1d1"
     inkscape:document-units="px"
     showgrid="false"
     inkscape:zoom="13"
     inkscape:cx="-7.8461538"
     inkscape:cy="20.884615"
     inkscape:window-width="1920"
     inkscape:window-height="1009"
     inkscape:window-x="0"
     inkscape:window-y="0"
     inkscape:window-maximized="1"
     inkscape:current-layer="svg5" />
  <defs
     id="defs2">
    <linearGradient
       inkscape:collect="always"
       xlink:href="#linearGradient1918"
       id="linearGradient16885"
       x1="16"
       y1="30"
       x2="16"
       y2="2"
       gradientUnits="userSpaceOnUse" />
    <linearGradient
       inkscape:collect="always"
       id="linearGradient1918">
      <stop
         style="stop-color:#ff8d18;stop-opacity:1;"
         offset="0"
         id="stop1914" />
      <stop
         style="stop-color:#c94c41;stop-opacity:1;"
         offset="1"
         id="stop1916" />
    </linearGradient>
  </defs>
  <rect
     style="fill:url(#linearGradient16885);fill-opacity:1.0;stroke:none"
     id="rect184"
     width="27"
     height="27"
     x="2.5"
     y="2.5"
     ry="4.5" />
  <path
     d="m 15.999975,5 c -1.81056,0 -3.43309,1.6064211 -4.5332,4.1425782 -0.55551,-0.0626 -1.08935,-0.09069 -1.5918,-0.08008 -2.0011,0.04227 -3.55638,0.681986 -4.28125,1.9374998 -0.78576,1.36098 -0.42773,3.209866 0.75,5.124999 0.20059,-0.257331 0.43182,-0.496102 0.65625,-0.75 -0.86607,-1.485602 -1.11881,-2.857311 -0.53125,-3.874999 0.69775,-1.208534 2.42311,-1.6610928 4.63477,-1.427734 -0.69356,1.957434 -1.10352,4.346072 -1.10352,6.927735 0,0.657683 0.0272,1.302698 0.0781,1.931642 -0.44319,-0.379585 -0.85841,-0.764122 -1.23437,-1.150391 -0.22139,0.265504 -0.41373,0.524428 -0.59375,0.78125 0.58902,0.608105 1.25618,1.200402 1.98633,1.769531 0.72233,5.005436 3.0284,8.667969 5.76369,8.667969 1.80961,0 3.43117,-1.604825 4.53125,-4.138672 2.75406,0.313502 4.96914,-0.292328 5.875,-1.861328 0.78576,-1.36098 0.42773,-3.209866 -0.75,-5.125 -0.20059,0.257331 -0.43182,0.496102 -0.65625,0.75 0.86607,1.485603 1.11881,2.857312 0.53125,3.875 -0.69775,1.208534 -2.42311,1.661093 -4.63477,1.427734 0.69356,-1.957432 1.10352,-4.346071 1.10352,-6.927735 0,-0.657682 -0.0272,-1.302697 -0.0781,-1.931641 0.44319,0.379585 0.85841,0.764122 1.23437,1.150391 0.22139,-0.265504 0.41373,-0.524428 0.59375,-0.78125 -0.58902,-0.608105 -1.25618,-1.200401 -1.98633,-1.76953 C 21.041335,8.6625331 18.735265,5 15.999975,5 Z m 0,1.0000001 c 2.09174,0 3.88094,2.828763 4.62695,6.8398439 -0.51815,-0.354662 -1.05898,-0.699424 -1.62695,-1.027344 -0.1485,-0.08574 -0.28874,-0.168223 -0.4375,-0.25 -0.42804,0.125045 -0.86625,0.269876 -1.3125,0.4375 0.41373,0.207791 0.83578,0.417099 1.25,0.65625 0.83224,0.480491 1.61103,0.998673 2.33008,1.537109 0.10752,0.897416 0.16992,1.83492 0.16992,2.80664 0,2.562151 -0.40072,4.917302 -1.06836,6.78711 -0.41365,-0.07541 -0.83893,-0.169638 -1.27539,-0.287109 -0.43984,0.232947 -0.87371,0.456148 -1.3125,0.65625 0.75968,0.244727 1.50162,0.431454 2.2168,0.5625 C 18.653725,26.743165 17.393945,28 15.999975,28 c -2.09174,0 -3.88094,-2.828763 -4.62695,-6.839844 0.51815,0.354662 1.05898,0.699424 1.62695,1.027344 0.1485,0.08574 0.28874,0.168223 0.4375,0.25 0.42804,-0.125045 0.86625,-0.269876 1.3125,-0.4375 -0.41373,-0.207791 -0.83578,-0.417099 -1.25,-0.65625 -0.83224,-0.480491 -1.61103,-0.998673 -2.33008,-1.537109 -0.10752,-0.897417 -0.16992,-1.834921 -0.16992,-2.806642 0,-2.56215 0.40072,-4.917301 1.06836,-6.787108 0.41365,0.07541 0.83893,0.169638 1.27539,0.287109 0.43984,-0.232947 0.87371,-0.456148 1.3125,-0.6562498 -0.75841,-0.244319 -1.50172,-0.42695 -2.21875,-0.556641 0.90698,-2.0276821 2.16725,-3.2871091 3.5625,-3.2871091 z m 6.125,3.0625001 c -0.17757,-0.0038 -0.37818,0.02565 -0.5625,0.03125 0.11779,0.290734 0.23938,0.597773 0.34375,0.9062498 1.71336,-0.0048 3.03889,0.484822 3.625,1.5 0.91911,1.591934 -0.18122,4.059532 -2.5625,6.4375 -0.018,0.484343 -0.0487,0.9691 -0.0937,1.4375 3.22805,-2.927552 4.76527,-6.237612 3.53125,-8.375 -0.72487,-1.2555138 -2.28015,-1.8952328 -4.28125,-1.9374998 z m -3.5625,0.4375 c -1.77661,0.441447 -3.67864,1.2248528 -5.5625,2.3124998 -0.13878,0.08013 -0.27034,0.167939 -0.40625,0.25 -0.10478,0.43099 -0.20335,0.875294 -0.28125,1.34375 0.3824,-0.251104 0.77839,-0.513799 1.1875,-0.75 1.86064,-1.07424 3.72859,-1.822314 5.4375,-2.25 -0.10101,-0.274986 -0.20069,-0.5352568 -0.3125,-0.7812498 -0.0206,-0.0454 -0.0414,-0.08069 -0.0625,-0.125 z M 15.999975,14 c -0.523319,0.0011 -1.025371,0.207226 -1.39844,0.574218 -0.866015,0.239554 -1.465967,1.027245 -1.46679,1.925781 9.44e-4,0.168801 0.02325,0.336804 0.0664,0.5 -0.225317,0.869352 0.156475,1.782293 0.9336,2.232423 0.146797,0.08393 0.303645,0.148898 0.46679,0.193359 0.373069,0.366993 0.875121,0.573142 1.39844,0.574219 0.523319,-0.0011 1.025371,-0.207226 1.39844,-0.574219 0.866015,-0.239554 1.465967,-1.027245 1.46679,-1.925781 3.29e-4,-0.168636 -0.02067,-0.336635 -0.0625,-0.500001 0.224612,-0.870259 -0.158886,-1.783464 -0.9375,-2.232422 -0.145049,-0.0828 -0.299897,-0.1471 -0.46093,-0.191406 C 17.030074,14.207043 16.525601,14.000061 15.999975,14 Z m -6.875,0.624999 C 5.896925,17.552551 4.359705,20.862612 5.593725,23 c 0.78919,1.366921 2.58227,1.975012 4.84375,1.90625 -0.11779,-0.290734 -0.23938,-0.597773 -0.34375,-0.90625 -1.71336,0.0048 -3.03889,-0.484822 -3.625,-1.5 -0.91911,-1.591934 0.18122,-4.059533 2.5625,-6.437501 0.018,-0.484343 0.0487,-0.9691 0.0937,-1.4375 z m 10.5625,5.968751 c -0.3824,0.251104 -0.77839,0.513799 -1.1875,0.75 -1.86064,1.07424 -3.72859,1.822314 -5.4375,2.25 0.10101,0.274986 0.20069,0.535257 0.3125,0.78125 0.0206,0.0454 0.0414,0.08069 0.0625,0.125 1.77661,-0.441447 3.67864,-1.224853 5.5625,-2.3125 0.13878,-0.08013 0.27034,-0.16794 0.40625,-0.25 0.10478,-0.43099 0.20335,-0.875294 0.28125,-1.34375 z"
     style="color:#000000;display:inline;overflow:visible;visibility:visible;fill:#000000;fill-opacity:1;fill-rule:evenodd;stroke:none;stroke-width:3;marker:none;enable-background:new;opacity:0.2"
     id="path10206" />
  <path
     id="path4181"
     style="color:#000000;display:inline;overflow:visible;visibility:visible;fill:#ffffff;fill-opacity:1;fill-rule:evenodd;stroke:none;stroke-width:3;marker:none;enable-background:new"
     d="m 15.999975,4 c -1.81056,0 -3.43309,1.606421 -4.5332,4.142578 -0.55551,-0.0626 -1.08935,-0.09069 -1.5918,-0.08008 -2.0011,0.04227 -3.55638,0.681986 -4.28125,1.9375 -0.78576,1.36098 -0.42773,3.209866 0.75,5.125 0.20059,-0.257331 0.43182,-0.496102 0.65625,-0.75 -0.86607,-1.485603 -1.11881,-2.857312 -0.53125,-3.875 0.69775,-1.208534 2.42311,-1.661093 4.63477,-1.427734 -0.69356,1.957434 -1.10352,4.346073 -1.10352,6.927736 0,0.657682 0.0272,1.302697 0.0781,1.931641 -0.44319,-0.379585 -0.85841,-0.764122 -1.23437,-1.150391 -0.22139,0.265504 -0.41373,0.524428 -0.59375,0.78125 0.58902,0.608105 1.25618,1.200402 1.98633,1.769531 0.72233,5.005436 3.0284,8.667969 5.76369,8.667969 1.80961,0 3.43117,-1.604825 4.53125,-4.138672 2.75406,0.313502 4.96914,-0.292328 5.875,-1.861328 0.78576,-1.36098 0.42773,-3.209866 -0.75,-5.125 -0.20059,0.257331 -0.43182,0.496102 -0.65625,0.75 0.86607,1.485603 1.11881,2.857312 0.53125,3.875 -0.69775,1.208534 -2.42311,1.661093 -4.63477,1.427734 0.69356,-1.957432 1.10352,-4.346071 1.10352,-6.927734 0,-0.657682 -0.0272,-1.302697 -0.0781,-1.931641 0.44319,0.379585 0.85841,0.764122 1.23437,1.150391 0.22139,-0.265504 0.41373,-0.524428 0.59375,-0.78125 -0.58902,-0.608105 -1.25618,-1.200402 -1.98633,-1.769531 C 21.041335,7.662533 18.735265,4 15.999975,4 Z m 0,1 c 2.09174,0 3.88094,2.828763 4.62695,6.839844 -0.51815,-0.354662 -1.05898,-0.699424 -1.62695,-1.027344 -0.1485,-0.08574 -0.28874,-0.168223 -0.4375,-0.25 -0.42804,0.125045 -0.86625,0.269876 -1.3125,0.4375 0.41373,0.207791 0.83578,0.417099 1.25,0.65625 0.83224,0.480491 1.61103,0.998673 2.33008,1.537109 0.10752,0.897417 0.16992,1.834921 0.16992,2.806641 0,2.56215 -0.40072,4.917301 -1.06836,6.787109 -0.41365,-0.07541 -0.83893,-0.169638 -1.27539,-0.287109 -0.43984,0.232947 -0.87371,0.456148 -1.3125,0.65625 0.75968,0.244727 1.50162,0.431454 2.2168,0.5625 C 18.653725,25.743165 17.393945,27 15.999975,27 c -2.09174,0 -3.88094,-2.828763 -4.62695,-6.839844 0.51815,0.354662 1.05898,0.699424 1.62695,1.027344 0.1485,0.08574 0.28874,0.168223 0.4375,0.25 0.42804,-0.125045 0.86625,-0.269876 1.3125,-0.4375 -0.41373,-0.207791 -0.83578,-0.417099 -1.25,-0.65625 -0.83224,-0.480491 -1.61103,-0.998673 -2.33008,-1.537109 C 11.062375,17.909224 10.999975,16.97172 10.999975,16 c 0,-2.56215 0.40072,-4.917301 1.06836,-6.787109 0.41365,0.07541 0.83893,0.169638 1.27539,0.287109 0.43984,-0.232947 0.87371,-0.456148 1.3125,-0.65625 C 13.897815,8.599431 13.154505,8.4168 12.437475,8.287109 13.344455,6.259427 14.604725,5 15.999975,5 Z m 6.125,3.0625 c -0.17757,-0.0038 -0.37818,0.02565 -0.5625,0.03125 0.11779,0.290734 0.23938,0.597773 0.34375,0.90625 1.71336,-0.0048 3.03889,0.484822 3.625,1.5 0.91911,1.591934 -0.18122,4.059533 -2.5625,6.4375 -0.018,0.484343 -0.0487,0.9691 -0.0937,1.4375 3.22805,-2.927551 4.76527,-6.237612 3.53125,-8.375 -0.72487,-1.255514 -2.28015,-1.895233 -4.28125,-1.9375 z M 18.562475,8.5 c -1.77661,0.441447 -3.67864,1.224853 -5.5625,2.3125 -0.13878,0.08013 -0.27034,0.16794 -0.40625,0.25 -0.10478,0.43099 -0.20335,0.875294 -0.28125,1.34375 0.3824,-0.251104 0.77839,-0.513799 1.1875,-0.75 1.86064,-1.07424 3.72859,-1.822314 5.4375,-2.25 -0.10101,-0.274986 -0.20069,-0.535257 -0.3125,-0.78125 -0.0206,-0.0454 -0.0414,-0.08069 -0.0625,-0.125 z m -2.5625,4.5 c -0.523319,0.0011 -1.025371,0.207226 -1.39844,0.574219 -0.866015,0.239554 -1.465967,1.027245 -1.46679,1.925781 9.44e-4,0.168801 0.02325,0.336803 0.0664,0.5 -0.225317,0.869351 0.156475,1.782292 0.9336,2.232422 0.146797,0.08393 0.303645,0.148898 0.46679,0.193359 0.373069,0.366993 0.875121,0.573142 1.39844,0.574219 0.523319,-0.0011 1.025371,-0.207226 1.39844,-0.574219 0.866015,-0.239554 1.465967,-1.027245 1.46679,-1.925781 3.29e-4,-0.168635 -0.02067,-0.336635 -0.0625,-0.5 0.224612,-0.87026 -0.158886,-1.783465 -0.9375,-2.232422 -0.145049,-0.0828 -0.299897,-0.1471 -0.46093,-0.191406 C 17.030074,13.207042 16.525601,13.000061 15.999975,13 Z m -6.875,0.625 c -3.22805,2.927551 -4.76527,6.237612 -3.53125,8.375 0.78919,1.366921 2.58227,1.975012 4.84375,1.90625 -0.11779,-0.290734 -0.23938,-0.597773 -0.34375,-0.90625 -1.71336,0.0048 -3.03889,-0.484822 -3.625,-1.5 -0.91911,-1.591934 0.18122,-4.059533 2.5625,-6.4375 0.018,-0.484343 0.0487,-0.9691 0.0937,-1.4375 z m 10.5625,5.96875 c -0.3824,0.251104 -0.77839,0.513799 -1.1875,0.75 -1.86064,1.07424 -3.72859,1.822314 -5.4375,2.25 0.10101,0.274986 0.20069,0.535257 0.3125,0.78125 0.0206,0.0454 0.0414,0.08069 0.0625,0.125 1.77661,-0.441447 3.67864,-1.224853 5.5625,-2.3125 0.13878,-0.08013 0.27034,-0.16794 0.40625,-0.25 0.10478,-0.43099 0.20335,-0.875294 0.28125,-1.34375 z"
     sodipodi:nodetypes="sccsccccsccccscsccscsccccsscsccscsccccscsccscsccccsscccccsssccccccccccccccccccccccscccccccccccscc" />
  <path
     id="rect2630"
     style="opacity:0.3;fill:#ffffff;fill-opacity:1"
     d="M 7,3 C 4.7840022,3 3,4.7840022 3,6.9999998 v 1 C 3,5.7840022 4.7840022,4 7,4 h 18 c 2.215998,0 4,1.7840022 4,3.9999998 v -1 C 29,4.7840022 27.215998,3 25,3 Z" />
  <path
     id="rect398"
     style="opacity:0.3;fill:#ffffff"
     d="m 3.0000002,24 v 1 c 0,2.215998 1.7840022,4 4,4 H 25 c 2.215998,0 4,-1.784002 4,-4 v -1 c 0,2.215998 -1.784002,4 -4,4 H 7.0000002 c -2.2159978,0 -4,-1.784002 -4,-4 z" />
  <path
     id="rect899"
     style="fill:#000000;stroke:none;opacity:0.5"
     d="M 7 2 C 4.2300028 2 2 4.2300028 2 7 L 2 25 C 2 27.769997 4.2300028 30 7 30 L 25 30 C 27.769997 30 30 27.769997 30 25 L 30 7 C 30 4.2300028 27.769997 2 25 2 L 7 2 z M 7 3 L 25 3 C 27.215998 3 29 4.7840022 29 7 L 29 25 C 29 27.215998 27.215998 29 25 29 L 7 29 C 4.7840022 29 3 27.215998 3 25 L 3 7 C 3 4.7840022 4.7840022 3 7 3 z " />
</svg>
