<?xml version="1.0" encoding="UTF-8" standalone="no"?>
<!-- Created with Inkscape (http://www.inkscape.org/) -->

<svg
   width="32"
   height="32"
   viewBox="0 0 32 32.000001"
   version="1.1"
   id="svg5"
   sodipodi:docname="baloo.svg"
   inkscape:version="1.2.1 (9c6d41e410, 2022-07-14)"
   xmlns:inkscape="http://www.inkscape.org/namespaces/inkscape"
   xmlns:sodipodi="http://sodipodi.sourceforge.net/DTD/sodipodi-0.dtd"
   xmlns:xlink="http://www.w3.org/1999/xlink"
   xmlns="http://www.w3.org/2000/svg"
   xmlns:svg="http://www.w3.org/2000/svg">
  <sodipodi:namedview
     id="namedview7"
     pagecolor="#ffffff"
     bordercolor="#666666"
     borderopacity="1.0"
     inkscape:showpageshadow="2"
     inkscape:pageopacity="0.0"
     inkscape:pagecheckerboard="0"
     inkscape:deskcolor="#d1d1d1"
     inkscape:document-units="px"
     showgrid="false"
     inkscape:zoom="18.141708"
     inkscape:cx="14.579663"
     inkscape:cy="14.193812"
     inkscape:window-width="1920"
     inkscape:window-height="1007"
     inkscape:window-x="0"
     inkscape:window-y="0"
     inkscape:window-maximized="1"
     inkscape:current-layer="svg5"
     showguides="false" />
  <defs
     id="defs2">
    <linearGradient
       inkscape:collect="always"
       xlink:href="#linearGradient1265"
       id="linearGradient4612"
       x1="25"
       y1="30"
       x2="7"
       y2="2"
       gradientUnits="userSpaceOnUse" />
    <linearGradient
       inkscape:collect="always"
       id="linearGradient1265">
      <stop
         style="stop-color:#2d7ff3;stop-opacity:1;"
         offset="0"
         id="stop1261" />
      <stop
         style="stop-color:#2cdbfa;stop-opacity:1;"
         offset="1"
         id="stop1263" />
    </linearGradient>
  </defs>
  <rect
     style="fill:url(#linearGradient4612);fill-opacity:1.0;stroke:none"
     id="rect184"
     width="27"
     height="27"
     x="2.5"
     y="2.5"
     ry="4.5" />
  <path
     id="path16580"
     style="opacity:0.2;fill:#000000;stroke-width:0.9375;stroke-linecap:round;stroke-linejoin:round"
     d="m 13.369959,7.0019531 c -0.135162,0.00232 -0.270645,0.00789 -0.40625,0.017578 -1.799381,0.1289086 -3.4920137,0.9020694 -4.7675784,2.1777344 -2.9281741,2.9287994 -2.9281741,7.6766684 0,10.6054684 2.7934634,2.778624 7.2607204,2.921958 10.2265624,0.328125 l 6.390625,6.390625 0.707031,-0.707031 -6.378906,-6.378906 C 21.739461,16.464897 21.590894,11.989091 18.801599,9.1972656 17.359647,7.755256 15.397382,6.9671544 13.369959,7.0019531 Z M 13.498865,8 c 1.723805,2.605e-4 3.376918,0.6852519 4.595703,1.9042969 2.53775,2.5382931 2.53775,6.6531131 0,9.1914061 -2.538293,2.537751 -6.653114,2.537751 -9.1914061,0 -2.5377505,-2.538293 -2.5377505,-6.653113 0,-9.1914061 C 10.121947,8.6852518 11.775059,8.0002604 13.498865,8 Z m 0.002,1 -0.5,0.5 v 1 c 0,0.277 0.223,0.5 0.5,0.5 0.277,0 0.5,-0.223 0.5,-0.5 v -1 z m -2,1 -0.5,0.5 v 1 c 0,0.277 0.223,0.5 0.5,0.5 0.277,0 0.5,-0.223 0.5,-0.5 v -1 z m 4,0 -0.5,0.5 v 1 c 0,0.277 0.223,0.5 0.5,0.5 0.277,0 0.5,-0.223 0.5,-0.5 v -1 z m -5.9999999,2 -0.5,0.5 v 1 c 0,0.277 0.2230003,0.5 0.5,0.5 0.2769997,0 0.4999999,-0.223 0.4999999,-0.5 v -1 z m 7.9999999,0 -0.5,0.5 v 1 c 0,0.277 0.223,0.5 0.5,0.5 0.277,0 0.5,-0.223 0.5,-0.5 v -1 z m -4,1 c -1.104569,0 -2,0.895432 -2,2 -1.104569,0 -1.9999999,0.895432 -1.9999999,2 0,1.104568 0.8954309,2 1.9999999,2 1.104568,0 2,-0.895432 2,-2 0,1.104568 0.895432,2 2,2 1.104568,0 2,-0.895432 2,-2 0,-1.104568 -0.895432,-2 -2,-2 0,-1.104568 -0.895432,-2 -2,-2 z" />
  <path
     d="M 13.5,8 13,8.5 v 1 C 13,9.777 13.223,10 13.5,10 13.777,10 14,9.777 14,9.5 v -1 z m -2,1 -0.5,0.5 v 1 c 0,0.277 0.223,0.5 0.5,0.5 0.277,0 0.5,-0.223 0.5,-0.5 v -1 z m 4,0 -0.5,0.5 v 1 c 0,0.277 0.223,0.5 0.5,0.5 0.277,0 0.5,-0.223 0.5,-0.5 v -1 z m -6,2 -0.5,0.5 v 1 C 9,12.777 9.2229999,13 9.5,13 9.777,13 10,12.777 10,12.5 v -1 z m 8,0 -0.5,0.5 v 1 c 0,0.277 0.223,0.5 0.5,0.5 0.277,0 0.5,-0.223 0.5,-0.5 v -1 z m -4,1 c -1.10457,0 -2,0.895431 -2,2 -1.10457,0 -2.0000001,0.895431 -2.0000001,2 0,1.104569 0.8954301,2 2.0000001,2 1.104569,0 2,-0.895431 2,-2 0,1.104569 0.895431,2 2,2 1.104569,0 2,-0.895431 2,-2 0,-1.104569 -0.895431,-2 -2,-2 0,-1.104569 -0.895431,-2 -2,-2 z"
     style="fill:#ffffff"
     id="path394"
     sodipodi:nodetypes="ccsssccccsssccccsssccccsssccccsssccscsscsscs" />
  <path
     id="path16476"
     style="fill:#d7f2fd;stroke-width:0.9375;stroke-linecap:round;stroke-linejoin:round"
     d="M 12.965662,6.0195312 C 11.16628,6.1484399 9.47365,6.9215994 8.1980837,8.1972656 c -2.9281767,2.9288024 -2.9281767,7.6766654 0,10.6054684 2.7934663,2.778626 7.2607173,2.92196 10.2265623,0.328125 l 6.390625,6.390625 0.707031,-0.707031 -6.378906,-6.378906 C 21.741417,15.464895 21.59285,10.989094 18.803552,8.1972656 17.265468,6.6591206 15.135354,5.8645148 12.965662,6.0195312 Z M 13.500818,7 c 1.723807,2.604e-4 3.376917,0.6852507 4.595703,1.9042969 2.537753,2.5382951 2.537753,6.6531101 0,9.1914061 -2.538296,2.537753 -6.653111,2.537753 -9.191406,0 -2.5377533,-2.538296 -2.5377533,-6.653111 0,-9.1914061 C 10.123901,7.6852507 11.77701,7.0002604 13.500818,7 Z"
     sodipodi:nodetypes="ccccccccccsccsc" />
  <path
     id="rect2630"
     style="opacity:0.3;fill:#ffffff;fill-opacity:1"
     d="M 7,3 C 4.7840022,3 3,4.7840022 3,6.9999998 v 1 C 3,5.7840022 4.7840022,4 7,4 h 18 c 2.215998,0 4,1.7840022 4,3.9999998 v -1 C 29,4.7840022 27.215998,3 25,3 Z" />
  <path
     id="rect398"
     style="opacity:0.3;fill:#ffffff"
     d="m 3.0000002,24 v 1 c 0,2.215998 1.7840022,4 4,4 H 25 c 2.215998,0 4,-1.784002 4,-4 v -1 c 0,2.215998 -1.784002,4 -4,4 H 7.0000002 c -2.2159978,0 -4,-1.784002 -4,-4 z" />
  <path
     id="rect899"
     style="fill:#000000;stroke:none;opacity:0.5"
     d="M 7 2 C 4.2300028 2 2 4.2300028 2 7 L 2 25 C 2 27.769997 4.2300028 30 7 30 L 25 30 C 27.769997 30 30 27.769997 30 25 L 30 7 C 30 4.2300028 27.769997 2 25 2 L 7 2 z M 7 3 L 25 3 C 27.215998 3 29 4.7840022 29 7 L 29 25 C 29 27.215998 27.215998 29 25 29 L 7 29 C 4.7840022 29 3 27.215998 3 25 L 3 7 C 3 4.7840022 4.7840022 3 7 3 z " />
</svg>
