<?xml version="1.0" encoding="UTF-8" standalone="no"?>
<!-- Created with Inkscape (http://www.inkscape.org/) -->

<svg
   width="32"
   height="32"
   viewBox="0 0 32 32.000001"
   version="1.1"
   id="svg5"
   sodipodi:docname="brave.svg"
   inkscape:version="1.2.1 (9c6d41e410, 2022-07-14)"
   xmlns:inkscape="http://www.inkscape.org/namespaces/inkscape"
   xmlns:sodipodi="http://sodipodi.sourceforge.net/DTD/sodipodi-0.dtd"
   xmlns:xlink="http://www.w3.org/1999/xlink"
   xmlns="http://www.w3.org/2000/svg"
   xmlns:svg="http://www.w3.org/2000/svg">
  <sodipodi:namedview
     id="namedview7"
     pagecolor="#ffffff"
     bordercolor="#666666"
     borderopacity="1.0"
     inkscape:showpageshadow="2"
     inkscape:pageopacity="0.0"
     inkscape:pagecheckerboard="0"
     inkscape:deskcolor="#d1d1d1"
     inkscape:document-units="px"
     showgrid="false"
     inkscape:zoom="28.571429"
     inkscape:cx="15.995"
     inkscape:cy="15.995"
     inkscape:window-width="1920"
     inkscape:window-height="1012"
     inkscape:window-x="0"
     inkscape:window-y="0"
     inkscape:window-maximized="1"
     inkscape:current-layer="svg5" />
  <defs
     id="defs2">
    <linearGradient
       inkscape:collect="always"
       xlink:href="#linearGradient3475"
       id="linearGradient8655"
       x1="25"
       y1="30"
       x2="7"
       y2="2"
       gradientUnits="userSpaceOnUse" />
    <linearGradient
       inkscape:collect="always"
       id="linearGradient3475">
      <stop
         style="stop-color:#f16649;stop-opacity:1;"
         offset="0"
         id="stop3471" />
      <stop
         style="stop-color:#fd8862;stop-opacity:1;"
         offset="1"
         id="stop3473" />
    </linearGradient>
  </defs>
  <rect
     style="fill:url(#linearGradient8655);fill-opacity:1.0;stroke:none"
     id="rect184"
     width="27"
     height="27"
     x="2.5"
     y="2.5"
     ry="4.5" />
  <path
     d="m 15.999536,7.75404 c -0.316821,0 -0.847902,0.1384004 -2.484128,0.6465421 -0.383201,0.1190004 -0.770802,0.2156407 -0.862062,0.2155007 -0.0912,-10e-5 -0.813403,-0.1242004 -1.603626,-0.2764809 C 10.259558,8.1872014 9.5647357,8.061721 9.5042555,8.061721 c -0.2140407,0 -2.6272085,3.18955 -3.2341504,4.274873 -0.2537208,0.453682 -0.3328011,0.905243 -0.2197807,1.247705 0.1018003,0.308441 0.3991613,0.617302 2.2558472,2.343747 0.8523428,0.792563 1.5662651,1.483965 1.5865851,1.536965 0.0886,0.230681 0.018,0.568602 -0.2452808,1.183924 -0.3458211,0.806383 -0.3903412,1.142784 -0.2155407,1.640485 0.1864006,0.530622 0.4615415,0.921203 0.9216428,1.311505 0.469242,0.398101 0.755403,0.535561 1.023703,0.492001 0.320341,-0.052 2.319908,-1.060743 2.649989,-1.337044 0.786143,-0.658042 1.558305,-1.423045 1.586605,-1.571005 0.016,-0.0864 -0.014,-0.237641 -0.0696,-0.337441 -0.0548,-0.0998 -0.626002,-0.636142 -1.270404,-1.191004 -1.121604,-0.965743 -1.324285,-1.189624 -1.324285,-1.467525 0,-0.0686 0.199201,-0.614782 0.443782,-1.213664 0.350721,-0.859103 0.445241,-1.154663 0.443781,-1.398024 -0.002,-0.384922 -0.1458,-0.664503 -0.442361,-0.860643 -0.1262,-0.0836 -1.033363,-0.460542 -2.016226,-0.837983 -0.982824,-0.377421 -1.8550065,-0.712722 -1.9367867,-0.744362 -0.0882,-0.0338 -0.1252004,-0.0786 -0.0922,-0.1106 0.0308,-0.0296 0.5724018,-0.101401 1.2037637,-0.158801 1.353985,-0.1232 1.324424,-0.1282 2.814469,0.405501 0.924283,0.331041 1.077643,0.405101 1.155564,0.555802 0.0494,0.0956 0.0886,0.224 0.0878,0.284981 -6.8e-4,0.061 -0.193601,0.942783 -0.428201,1.959486 -0.401882,1.741266 -0.420542,1.853766 -0.321862,1.953847 0.122001,0.1238 1.331005,0.411781 1.922627,0.457961 0.517941,0.0404 2.177327,-0.278261 2.346567,-0.450881 0.106601,-0.108801 0.0942,-0.180001 -0.316181,-1.960927 -0.234261,-1.016703 -0.426041,-1.898506 -0.426781,-1.959486 -6.6e-4,-0.061 0.0388,-0.188601 0.0878,-0.283561 0.0778,-0.150601 0.241061,-0.227321 1.278904,-0.598342 l 1.188164,-0.425361 0.647982,0.016 c 0.855363,0.0216 2.033186,0.1528 2.050226,0.228281 0.008,0.0332 -0.859862,0.39422 -1.928286,0.802502 -1.068423,0.408281 -2.032606,0.806582 -2.142406,0.884763 -0.270761,0.1928 -0.406162,0.471901 -0.408342,0.843623 -0.001,0.246021 0.0932,0.543161 0.453722,1.430644 0.607062,1.494425 0.673762,1.300165 -0.921623,2.676949 -0.675002,0.582482 -1.257124,1.131944 -1.294504,1.222184 -0.110401,0.266421 0.0326,0.476341 0.808162,1.179644 0.922683,0.836622 1.102744,0.956123 2.309708,1.537005 0.553901,0.26656 1.084043,0.482801 1.178263,0.480641 0.263321,-0.006 0.437062,-0.0946 0.883343,-0.455141 0.479902,-0.387762 0.796563,-0.836883 0.983983,-1.392345 0.172401,-0.510781 0.141601,-0.744822 -0.21552,-1.590845 -0.260021,-0.615982 -0.331902,-0.967843 -0.242441,-1.200944 0.02,-0.0522 0.692562,-0.703502 1.494425,-1.447644 2.383827,-2.212348 2.469988,-2.319068 2.379187,-2.94915 -0.0648,-0.450282 -0.145,-0.602462 -0.942883,-1.785086 -0.678562,-1.005723 -2.245507,-3.0591096 -2.430228,-3.18455 -0.0464,-0.0316 -0.680002,0.0614 -1.576665,0.2311008 -0.824202,0.1562005 -1.576665,0.2850009 -1.673085,0.2850009 -0.0964,0 -0.488761,-0.0978 -0.871983,-0.2169407 C 16.847019,7.8913604 16.315937,7.753 15.999116,7.753 Z m -0.004,13.257063 c -0.275601,0.0013 -0.554941,0.1052 -1.060583,0.313361 -0.961423,0.395921 -2.97253,1.409104 -3.05409,1.538365 -0.1018,0.1616 -0.004,0.27778 0.619622,0.734462 1.108004,0.811783 1.459905,1.092183 2.352248,1.870166 1.190263,1.037763 1.100903,1.036623 2.261487,0.0242 0.804423,-0.701802 1.705805,-1.403745 2.596128,-2.020466 0.432181,-0.299361 0.518862,-0.454542 0.347361,-0.623862 -0.166,-0.164001 -2.144667,-1.165844 -3.024289,-1.531305 -0.490482,-0.203781 -0.762303,-0.306061 -1.037884,-0.304841 z"
     style="display:inline;opacity:0.2;fill:#000000;fill-opacity:1;fill-rule:evenodd;stroke:none;stroke-width:2.00001px;stroke-linecap:butt;stroke-linejoin:miter;stroke-opacity:1;enable-background:new"
     id="path1314" />
  <path
     d="m 15.999536,6.75404 c -0.316821,0 -0.847902,0.1384004 -2.484128,0.6465421 -0.383201,0.1190004 -0.770802,0.2156407 -0.862062,0.2155007 -0.0912,-10e-5 -0.813403,-0.1242004 -1.603626,-0.2764809 C 10.259558,7.1872014 9.5647357,7.061721 9.5042555,7.061721 c -0.2140407,0 -2.6272085,3.18955 -3.2341504,4.274873 -0.2537208,0.453682 -0.3328011,0.905243 -0.2197807,1.247704 0.1018003,0.308441 0.3991613,0.617302 2.2558472,2.343748 0.8523428,0.792563 1.5662651,1.483965 1.5865851,1.536965 0.0886,0.230681 0.018,0.568602 -0.2452808,1.183924 -0.3458211,0.806383 -0.3903412,1.142784 -0.2155407,1.640485 0.1864006,0.530622 0.4615415,0.921203 0.9216428,1.311505 0.469242,0.398101 0.755403,0.535561 1.023704,0.492001 0.320341,-0.052 2.319907,-1.060743 2.649988,-1.337044 0.786143,-0.658042 1.558305,-1.423045 1.586605,-1.571005 0.016,-0.0864 -0.014,-0.237641 -0.0696,-0.337441 -0.0548,-0.0998 -0.626002,-0.636142 -1.270404,-1.191004 -1.121604,-0.965743 -1.324284,-1.189624 -1.324284,-1.467525 0,-0.0686 0.1992,-0.614782 0.443781,-1.213664 0.350721,-0.859103 0.445241,-1.154664 0.443781,-1.398025 -0.002,-0.384921 -0.1458,-0.664502 -0.442361,-0.860642 -0.1262,-0.0836 -1.033363,-0.460541 -2.016226,-0.837983 -0.982824,-0.377421 -1.8550065,-0.712722 -1.9367867,-0.744362 -0.0882,-0.0338 -0.1252004,-0.0786 -0.0922,-0.1106 0.0308,-0.029601 0.5724018,-0.1014008 1.2037637,-0.158801 1.353985,-0.1232004 1.324424,-0.1282004 2.814469,0.405501 0.924283,0.331041 1.077643,0.405102 1.155564,0.555802 0.0494,0.0956 0.0886,0.224001 0.0878,0.284981 -6.8e-4,0.061 -0.193601,0.942783 -0.428201,1.959486 -0.401882,1.741266 -0.420542,1.853766 -0.321862,1.953847 0.122001,0.1238 1.331005,0.411781 1.922627,0.457961 0.517941,0.0404 2.177327,-0.278261 2.346567,-0.450881 0.106601,-0.108801 0.0942,-0.180001 -0.316181,-1.960927 -0.234261,-1.016703 -0.426041,-1.898506 -0.426781,-1.959486 -6.6e-4,-0.061 0.0388,-0.188601 0.0878,-0.283561 0.0778,-0.1506 0.241061,-0.227321 1.278904,-0.598342 l 1.188164,-0.4253612 0.647982,0.016 c 0.855363,0.0216 2.033186,0.1528004 2.050226,0.2282802 0.008,0.0332 -0.859862,0.394222 -1.928286,0.802503 -1.068423,0.408281 -2.032606,0.806582 -2.142406,0.884763 -0.270761,0.1928 -0.406162,0.471901 -0.408342,0.843622 -0.001,0.246021 0.0932,0.543162 0.453722,1.430645 0.607062,1.494425 0.673762,1.300165 -0.921623,2.676949 -0.675002,0.582482 -1.257124,1.131944 -1.294504,1.222184 -0.110401,0.266421 0.0326,0.476341 0.808162,1.179644 0.922683,0.836622 1.102744,0.956123 2.309708,1.537005 0.553901,0.26656 1.084043,0.482801 1.178263,0.480641 0.263321,-0.006 0.437062,-0.0946 0.883343,-0.455141 0.479902,-0.387762 0.796563,-0.836883 0.983983,-1.392345 0.172401,-0.510781 0.141601,-0.744822 -0.21552,-1.590845 -0.260021,-0.615982 -0.331902,-0.967843 -0.242441,-1.200944 0.02,-0.0522 0.692562,-0.703502 1.494425,-1.447644 2.383827,-2.212348 2.469988,-2.319068 2.379187,-2.94915 -0.0648,-0.450282 -0.145,-0.602462 -0.942883,-1.785086 -0.678562,-1.005723 -2.245507,-3.0591096 -2.430228,-3.18455 -0.0464,-0.0316 -0.680002,0.0614 -1.576665,0.2311008 -0.824202,0.1562005 -1.576665,0.2850009 -1.673085,0.2850009 -0.0964,0 -0.488761,-0.0978 -0.871983,-0.2169407 C 16.847019,6.8913604 16.315937,6.753 15.999116,6.753 Z m -0.004,13.257063 c -0.275601,0.0013 -0.554941,0.1052 -1.060583,0.313361 -0.961423,0.395921 -2.97253,1.409104 -3.05409,1.538365 -0.1018,0.1616 -0.004,0.27778 0.619622,0.734462 1.108004,0.811783 1.459905,1.092183 2.352248,1.870166 1.190263,1.037763 1.100903,1.036623 2.261487,0.0242 0.804423,-0.701802 1.705805,-1.403745 2.596128,-2.020466 0.432181,-0.299361 0.518862,-0.454542 0.347361,-0.623862 -0.166,-0.164001 -2.144667,-1.165844 -3.024289,-1.531305 -0.490482,-0.203781 -0.762303,-0.306061 -1.037884,-0.304841 z"
     style="display:inline;fill:#ffffff;fill-opacity:1;fill-rule:evenodd;stroke:none;stroke-width:2.00001px;stroke-linecap:butt;stroke-linejoin:miter;stroke-opacity:1;enable-background:new"
     id="path1128"
     sodipodi:nodetypes="ccccsccccccccccccscccccccccccccccccccccsccccccccccsccccccscccccccccccscc" />
  <path
     id="rect2630"
     style="opacity:0.3;fill:#ffffff;fill-opacity:1"
     d="M 7,3 C 4.7840022,3 3,4.7840022 3,6.9999998 v 1 C 3,5.7840022 4.7840022,4 7,4 h 18 c 2.215998,0 4,1.7840022 4,3.9999998 v -1 C 29,4.7840022 27.215998,3 25,3 Z" />
  <path
     id="rect398"
     style="opacity:0.3;fill:#ffffff"
     d="m 3.0000002,24 v 1 c 0,2.215998 1.7840022,4 4,4 H 25 c 2.215998,0 4,-1.784002 4,-4 v -1 c 0,2.215998 -1.784002,4 -4,4 H 7.0000002 c -2.2159978,0 -4,-1.784002 -4,-4 z" />
  <path
     id="rect899"
     style="fill:#000000;stroke:none;opacity:0.5"
     d="M 7 2 C 4.2300028 2 2 4.2300028 2 7 L 2 25 C 2 27.769997 4.2300028 30 7 30 L 25 30 C 27.769997 30 30 27.769997 30 25 L 30 7 C 30 4.2300028 27.769997 2 25 2 L 7 2 z M 7 3 L 25 3 C 27.215998 3 29 4.7840022 29 7 L 29 25 C 29 27.215998 27.215998 29 25 29 L 7 29 C 4.7840022 29 3 27.215998 3 25 L 3 7 C 3 4.7840022 4.7840022 3 7 3 z " />
</svg>
