<?xml version="1.0" encoding="UTF-8" standalone="no"?>
<!-- Created with Inkscape (http://www.inkscape.org/) -->

<svg
   width="32"
   height="32"
   viewBox="0 0 32 32.000001"
   version="1.1"
   id="svg5"
   sodipodi:docname="cs-actions.svg"
   inkscape:version="1.3.2 (091e20ef0f, 2023-11-25, custom)"
   xmlns:inkscape="http://www.inkscape.org/namespaces/inkscape"
   xmlns:sodipodi="http://sodipodi.sourceforge.net/DTD/sodipodi-0.dtd"
   xmlns:xlink="http://www.w3.org/1999/xlink"
   xmlns="http://www.w3.org/2000/svg"
   xmlns:svg="http://www.w3.org/2000/svg">
  <sodipodi:namedview
     id="namedview7"
     pagecolor="#ffffff"
     bordercolor="#666666"
     borderopacity="1.0"
     inkscape:showpageshadow="2"
     inkscape:pageopacity="0.0"
     inkscape:pagecheckerboard="0"
     inkscape:deskcolor="#d1d1d1"
     inkscape:document-units="px"
     showgrid="false"
     inkscape:zoom="25.8125"
     inkscape:cx="16"
     inkscape:cy="16"
     inkscape:window-width="1920"
     inkscape:window-height="1011"
     inkscape:window-x="0"
     inkscape:window-y="0"
     inkscape:window-maximized="1"
     inkscape:current-layer="svg5" />
  <defs
     id="defs2">
    <linearGradient
       inkscape:collect="always"
       xlink:href="#linearGradient22024"
       id="linearGradient8655"
       x1="16"
       y1="30"
       x2="16"
       y2="2"
       gradientUnits="userSpaceOnUse" />
    <linearGradient
       inkscape:collect="always"
       id="linearGradient22024">
      <stop
         style="stop-color:#dedede;stop-opacity:1;"
         offset="0"
         id="stop22020" />
      <stop
         style="stop-color:#f5f5f5;stop-opacity:1;"
         offset="1"
         id="stop22022" />
    </linearGradient>
  </defs>
  <rect
     style="fill:url(#linearGradient8655);fill-opacity:1;stroke:none"
     id="rect184"
     width="27"
     height="27"
     x="2.5"
     y="2.5"
     ry="4.5" />
  <path
     id="path734"
     style="color:#000000;display:inline;overflow:visible;visibility:visible;opacity:0.5;fill:#ffffff;fill-opacity:1;fill-rule:nonzero;stroke:none;stroke-width:2;marker:none;enable-background:accumulate"
     d="M 8 8 C 6.8954311 8 6 8.8954311 6 10 C 6 11.104569 6.8954311 12 8 12 C 9.1045689 12 10 11.104569 10 10 C 10 8.8954311 9.1045689 8 8 8 z M 8 9 C 8.5522794 9 9 9.4477158 9 10 C 9 10.552284 8.5522794 11 8 11 C 7.4477206 11 7 10.552284 7 10 C 7 9.4477158 7.4477206 9 8 9 z M 13 9 L 13 10 L 26 10 L 26 9 L 13 9 z M 8 15 C 6.8954311 15 6 15.895431 6 17 C 6 18.104569 6.8954311 19 8 19 C 9.1045699 19 10 18.104569 10 17 C 10 15.895431 9.1045699 15 8 15 z M 8 16 C 8.5522804 16 9 16.447716 9 17 C 9 17.552284 8.5522804 18 8 18 C 7.4477206 18 7 17.552284 7 17 C 7 16.447716 7.4477206 16 8 16 z M 13 16 L 13 17 L 26 17 L 26 16 L 13 16 z M 8 22 C 6.8954311 22 6 22.895431 6 24 C 6 25.104569 6.8954311 26 8 26 C 9.1045689 26 10 25.104569 10 24 C 10 22.895431 9.1045689 22 8 22 z M 8 23 C 8.5522794 23 9 23.447716 9 24 C 9 24.552284 8.5522794 25 8 25 C 7.4477206 25 7 24.552284 7 24 C 7 23.447716 7.4477206 23 8 23 z M 13 23 L 13 24 L 26 24 L 26 23 L 13 23 z " />
  <path
     id="rect4137"
     style="color:#000000;display:inline;overflow:visible;visibility:visible;fill:#ababab;fill-opacity:1;fill-rule:nonzero;stroke:none;stroke-width:2;marker:none;enable-background:accumulate"
     d="M 8 7 C 6.8954311 7 6 7.8954312 6 9 C 6 10.104569 6.8954311 11 8 11 C 9.1045689 11 10 10.104569 10 9 C 10 7.8954312 9.1045689 7 8 7 z M 8 8 C 8.5522794 8 9 8.4477157 9 9 C 9 9.5522847 8.5522794 10 8 10 C 7.4477206 10 7 9.5522847 7 9 C 7 8.4477157 7.4477206 8 8 8 z M 13 8 L 13 9 L 26 9 L 26 8 L 13 8 z M 8 14 C 6.8954311 14 6 14.895431 6 16 C 6 17.104569 6.8954311 18 8 18 C 9.1045689 18 10 17.104569 10 16 C 10 14.895431 9.1045689 14 8 14 z M 8 15 C 8.5522794 15 9 15.447716 9 16 C 9 16.552284 8.5522794 17 8 17 C 7.4477206 17 7 16.552284 7 16 C 7 15.447716 7.4477206 15 8 15 z M 13 15 L 13 16 L 26 16 L 26 15 L 13 15 z M 8 21 C 6.8954311 21 6 21.895431 6 23 C 6 24.104569 6.8954311 25 8 25 C 9.1045689 25 10 24.104569 10 23 C 10 21.895431 9.1045689 21 8 21 z M 8 22 C 8.5522794 22 9 22.447716 9 23 C 9 23.552284 8.5522794 24 8 24 C 7.4477206 24 7 23.552284 7 23 C 7 22.447716 7.4477206 22 8 22 z M 13 22 L 13 23 L 26 23 L 26 22 L 13 22 z " />
  <path
     id="rect2630"
     style="opacity:0.3;fill:#ffffff;fill-opacity:1"
     d="M 7,3 C 4.7840022,3 3,4.7840022 3,6.9999998 v 1 C 3,5.7840022 4.7840022,4 7,4 h 18 c 2.215998,0 4,1.7840022 4,3.9999998 v -1 C 29,4.7840022 27.215998,3 25,3 Z" />
  <path
     id="rect398"
     style="opacity:0.3;fill:#ffffff"
     d="m 3.0000002,24 v 1 c 0,2.215998 1.7840022,4 4,4 H 25 c 2.215998,0 4,-1.784002 4,-4 v -1 c 0,2.215998 -1.784002,4 -4,4 H 7.0000002 c -2.2159978,0 -4,-1.784002 -4,-4 z" />
  <path
     id="rect899"
     style="fill:#000000;stroke:none;opacity:0.5"
     d="M 7 2 C 4.2300028 2 2 4.2300028 2 7 L 2 25 C 2 27.769997 4.2300028 30 7 30 L 25 30 C 27.769997 30 30 27.769997 30 25 L 30 7 C 30 4.2300028 27.769997 2 25 2 L 7 2 z M 7 3 L 25 3 C 27.215998 3 29 4.7840022 29 7 L 29 25 C 29 27.215998 27.215998 29 25 29 L 7 29 C 4.7840022 29 3 27.215998 3 25 L 3 7 C 3 4.7840022 4.7840022 3 7 3 z " />
</svg>
