<?xml version="1.0" encoding="UTF-8" standalone="no"?>
<!-- Created with Inkscape (http://www.inkscape.org/) -->

<svg
   width="32"
   height="32"
   viewBox="0 0 32 32.000001"
   version="1.1"
   id="svg5"
   sodipodi:docname="deja-dup.svg"
   inkscape:version="1.2.1 (9c6d41e410, 2022-07-14)"
   xmlns:inkscape="http://www.inkscape.org/namespaces/inkscape"
   xmlns:sodipodi="http://sodipodi.sourceforge.net/DTD/sodipodi-0.dtd"
   xmlns:xlink="http://www.w3.org/1999/xlink"
   xmlns="http://www.w3.org/2000/svg"
   xmlns:svg="http://www.w3.org/2000/svg">
  <sodipodi:namedview
     id="namedview7"
     pagecolor="#ffffff"
     bordercolor="#666666"
     borderopacity="1.0"
     inkscape:showpageshadow="2"
     inkscape:pageopacity="0.0"
     inkscape:pagecheckerboard="0"
     inkscape:deskcolor="#d1d1d1"
     inkscape:document-units="px"
     showgrid="false"
     inkscape:zoom="18.384776"
     inkscape:cx="19.200669"
     inkscape:cy="19.11908"
     inkscape:window-width="1920"
     inkscape:window-height="1007"
     inkscape:window-x="0"
     inkscape:window-y="0"
     inkscape:window-maximized="1"
     inkscape:current-layer="svg5" />
  <defs
     id="defs2">
    <linearGradient
       inkscape:collect="always"
       xlink:href="#4852"
       id="linearGradient8655"
       x1="16"
       y1="30"
       x2="16"
       y2="2"
       gradientUnits="userSpaceOnUse" />
    <linearGradient
       inkscape:collect="always"
       id="4852">
      <stop
         style="stop-color:#333333;stop-opacity:1"
         offset="0"
         id="stop14555" />
      <stop
         style="stop-color:#666666;stop-opacity:1"
         offset="1"
         id="stop14557" />
    </linearGradient>
  </defs>
  <rect
     style="fill:url(#linearGradient8655);fill-opacity:1;stroke:none"
     id="rect184"
     width="27"
     height="27"
     x="2.5"
     y="2.5"
     ry="4.5" />
  <path
     d="m 16,8 c -4.970563,0 -9,4.029438 -9,8.999999 0.0055,1.631535 0.454496,3.230874 1.298828,4.626954 L 12,16.999999 H 9 C 9,13.134007 12.134007,10 16,10 c 3.865993,0 7,3.134007 7,6.999999 C 23,20.865993 19.865993,24 16,24 c -0.552285,0 -1,0.447715 -1,1 0,0.552285 0.447715,1 1,1 0.04835,2.43e-4 0.09665,-0.003 0.144531,-0.0098 C 21.054761,25.91137 24.995304,21.910861 25,16.999999 25,12.029438 20.970563,8 16,8 Z"
     style="fill:#000000;stroke-linecap:round;stroke-linejoin:round;opacity:0.2"
     id="path18315" />
  <path
     id="path18282"
     style="opacity:0.5;fill:#ffffff;stroke-width:1.125;stroke-linecap:round;stroke-linejoin:round"
     d="M 16 7 A 9 9 0 0 0 7 16 A 9 9 0 0 0 16 25 A 9 9 0 0 0 25 16 A 9 9 0 0 0 16 7 z M 16 9 A 7 7 0 0 1 23 16 A 7 7 0 0 1 16 23 A 7 7 0 0 1 9 16 A 7 7 0 0 1 16 9 z " />
  <path
     id="path18286"
     style="opacity:1;fill:#ffffff;stroke-linecap:round;stroke-linejoin:round"
     d="m 16,7 c -4.970563,0 -9,4.029437 -9,9 0.00555,1.631534 0.4544955,3.230874 1.2988281,4.626953 L 12,16 H 9 c 0,-3.865993 3.134007,-7 7,-7 3.865993,0 7,3.134007 7,7 0,3.865993 -3.134007,7 -7,7 -0.552285,0 -1,0.447715 -1,1 0,0.552285 0.447715,1 1,1 0.04835,2.43e-4 0.09665,-0.003 0.144531,-0.0098 C 21.054761,24.911373 24.995304,20.910861 25,16 25,11.029437 20.970563,7 16,7 Z"
     sodipodi:nodetypes="sccccsssscccs" />
  <path
     id="rect2630"
     style="opacity:0.3;fill:#ffffff;fill-opacity:1"
     d="M 7,3 C 4.7840022,3 3,4.7840022 3,6.9999998 v 1 C 3,5.7840022 4.7840022,4 7,4 h 18 c 2.215998,0 4,1.7840022 4,3.9999998 v -1 C 29,4.7840022 27.215998,3 25,3 Z" />
  <path
     id="rect398"
     style="opacity:0.3;fill:#ffffff"
     d="m 3.0000002,24 v 1 c 0,2.215998 1.7840022,4 4,4 H 25 c 2.215998,0 4,-1.784002 4,-4 v -1 c 0,2.215998 -1.784002,4 -4,4 H 7.0000002 c -2.2159978,0 -4,-1.784002 -4,-4 z" />
  <path
     id="rect899"
     style="fill:#000000;stroke:none;opacity:0.5"
     d="M 7 2 C 4.2300028 2 2 4.2300028 2 7 L 2 25 C 2 27.769997 4.2300028 30 7 30 L 25 30 C 27.769997 30 30 27.769997 30 25 L 30 7 C 30 4.2300028 27.769997 2 25 2 L 7 2 z M 7 3 L 25 3 C 27.215998 3 29 4.7840022 29 7 L 29 25 C 29 27.215998 27.215998 29 25 29 L 7 29 C 4.7840022 29 3 27.215998 3 25 L 3 7 C 3 4.7840022 4.7840022 3 7 3 z " />
</svg>
