<?xml version="1.0" encoding="UTF-8" standalone="no"?>
<!-- Created with Inkscape (http://www.inkscape.org/) -->

<svg
   width="32"
   height="32"
   viewBox="0 0 32 32.000001"
   version="1.1"
   id="svg5"
   sodipodi:docname="desktop-environment-xfce.svg"
   inkscape:version="1.3.2 (091e20ef0f, 2023-11-25, custom)"
   xmlns:inkscape="http://www.inkscape.org/namespaces/inkscape"
   xmlns:sodipodi="http://sodipodi.sourceforge.net/DTD/sodipodi-0.dtd"
   xmlns:xlink="http://www.w3.org/1999/xlink"
   xmlns="http://www.w3.org/2000/svg"
   xmlns:svg="http://www.w3.org/2000/svg">
  <sodipodi:namedview
     id="namedview7"
     pagecolor="#ffffff"
     bordercolor="#666666"
     borderopacity="1.0"
     inkscape:showpageshadow="2"
     inkscape:pageopacity="0.0"
     inkscape:pagecheckerboard="0"
     inkscape:deskcolor="#d1d1d1"
     inkscape:document-units="px"
     showgrid="false"
     inkscape:zoom="25.25"
     inkscape:cx="16"
     inkscape:cy="16"
     inkscape:window-width="1920"
     inkscape:window-height="1011"
     inkscape:window-x="0"
     inkscape:window-y="0"
     inkscape:window-maximized="1"
     inkscape:current-layer="svg5" />
  <defs
     id="defs2">
    <linearGradient
       inkscape:collect="always"
       xlink:href="#linearGradient3"
       id="linearGradient8655"
       x1="25"
       y1="30"
       x2="7"
       y2="2"
       gradientUnits="userSpaceOnUse" />
    <linearGradient
       inkscape:collect="always"
       id="linearGradient3">
      <stop
         style="stop-color:#3c7cbd;stop-opacity:1;"
         offset="0"
         id="stop2" />
      <stop
         style="stop-color:#79a8d7;stop-opacity:1;"
         offset="1"
         id="stop3" />
    </linearGradient>
  </defs>
  <rect
     style="fill:url(#linearGradient8655);fill-opacity:1.0;stroke:none"
     id="rect184"
     width="27"
     height="27"
     x="2.5"
     y="2.5"
     ry="4.5" />
  <path
     id="path2"
     style="opacity:0.2;fill:#000000;stroke-width:2"
     d="M 16,7 A 10,10 0 0 0 6,17 10,10 0 0 0 16,27 10,10 0 0 0 26,17 10,10 0 0 0 16,7 Z m -1.6875,3.5625 c 0.0782,-0.004 0.16,-0.0022 0.25,0.0118 0.1502,0.084 0.889172,-0.0188 1.082032,2.070312 0.0512,0.35162 0.12394,1.15568 0.14454,1.51172 0.0402,0.308018 3.38755,0.18264 6.355468,2.125 0.346138,0.20828 1.756716,1.57632 0.324218,2.761718 -0.58782,0.59202 -5.34614,3.054 -5.625,3.25 C 16.76535,24.536306 19.404336,24.98388 16,25 11.581384,25 8,21.418636 8,17 c 0.2855398,-0.21112 1.1731,-0.03228 1.625,-0.11328 0.649419,-0.1528 0.908951,-1.270798 0.957031,-2.136718 -0.0014,-0.38566 -0.27791,-1.58007 -0.28125,-1.84375 -0.02,-0.91782 0.858029,-1.320552 1.105469,-1.269532 0.2583,0.066 0.792192,0.1764 1.71875,2.445314 0.1554,0.28884 0.14026,0.16858 0.582032,0.210936 -0.46062,-1.523278 -0.56823,-3.662648 0.605468,-3.730468 z m 7.082032,2.039062 c 0.0028,-0.002 0.0074,-9.4e-5 0.0118,0.0038 0.116,0.1122 0.02156,2.230454 -0.355468,2.632812 -0.0214,0.0228 -0.13182,-2.07174 0.335936,-2.625 0.005,-0.006 0.005,-0.0098 0.0078,-0.0118 z m 1.53125,0.410156 c 0.0346,0.0598 0.07246,0.11498 0.10546,0.17578 -0.22612,0.72648 -1.239358,2.403032 -1.261718,2.269532 -0.0662,-0.60698 0.80359,-2.030552 1.15625,-2.445312 z M 16.5,15.707032 c -0.3188,0 -0.585938,0.271708 -0.585938,0.605468 0,0.3337 0.27487,0.625 0.59375,0.625 0.31888,0 0.5625,-0.2913 0.5625,-0.625 0,-0.33376 -0.251412,-0.605468 -0.570312,-0.605468 z m -1.292968,0.574218 c -0.1416,-0.008 -0.13782,1.09964 0.375,1.386718 0.530118,0.2496 1.3074,-0.16508 1.17578,-0.17968 -1.144418,-0.127 -1.344652,-0.66248 -1.51953,-1.1875 -0.01,-0.012 -0.02186,-0.019 -0.03126,-0.0196 z m 3.179686,2.621094 c -0.02108,8.62e-4 -0.044,0.0034 -0.0664,0.004 -0.673798,0.0228 -2.221602,0.972658 -2.101562,1.074218 0.181,0.1532 2.503622,-1.013538 2.226562,-1.074218 -0.0182,-0.004 -0.03752,-0.0048 -0.0586,-0.004 z m 0.34375,0.761718 c -0.0178,-8.2e-4 -0.03688,-9.4e-5 -0.05468,0.0038 -0.534578,0.1206 -1.569278,1.33592 -1.449218,1.4375 0.181,0.1532 1.798548,-1.41876 1.554688,-1.4375 -0.0154,-7.2e-4 -0.03304,-0.003 -0.05078,-0.0038 z" />
  <path
     id="path2-6"
     style="fill:#ffffff;stroke-width:2"
     d="M 16,6 A 10,10 0 0 0 6,16 10,10 0 0 0 16,26 10,10 0 0 0 26,16 10,10 0 0 0 16,6 Z m -1.6875,3.5625 c 0.0782,-0.004 0.16,-0.0023 0.25,0.01172 0.1502,0.084 0.889172,-0.01876 1.082032,2.070312 0.0512,0.35162 0.12394,1.15568 0.14454,1.51172 0.0402,0.308018 3.38755,0.18264 6.355468,2.125 0.346138,0.20828 1.756716,1.57632 0.324218,2.761718 -0.58782,0.59202 -5.34614,3.054 -5.625,3.25 C 16.76535,23.536306 19.404336,23.98388 16,24 11.581384,24 8,20.418636 8,16 8.2855398,15.78888 9.1731,15.96772 9.625,15.886718 10.274419,15.73392 10.533951,14.61592 10.582031,13.75 c -0.0014,-0.38566 -0.27791,-1.58007 -0.28125,-1.84375 -0.02,-0.91782 0.858029,-1.320552 1.105469,-1.269532 0.2583,0.066 0.792192,0.1764 1.71875,2.445314 0.1554,0.28884 0.14026,0.16858 0.582032,0.210936 C 13.246412,11.76969 13.138802,9.63032 14.3125,9.5625 Z m 7.082032,2.039062 c 0.0028,-0.002 0.0074,-9.4e-5 0.0118,0.0038 0.116,0.1122 0.02156,2.230454 -0.355468,2.632812 -0.0214,0.0228 -0.13182,-2.07174 0.335936,-2.625 0.005,-0.006 0.005,-0.0098 0.0078,-0.0118 z m 1.53125,0.410156 c 0.0346,0.0598 0.07246,0.11498 0.10546,0.17578 -0.22612,0.72648 -1.239358,2.403032 -1.261718,2.269532 -0.0662,-0.60698 0.80359,-2.030552 1.15625,-2.445312 z M 16.5,14.707032 c -0.3188,0 -0.585938,0.271708 -0.585938,0.605468 0,0.3337 0.27487,0.625 0.59375,0.625 0.31888,0 0.5625,-0.2913 0.5625,-0.625 0,-0.33376 -0.251412,-0.605468 -0.570312,-0.605468 z m -1.292968,0.574218 c -0.1416,-0.008 -0.13782,1.09964 0.375,1.386718 0.530118,0.2496 1.3074,-0.16508 1.17578,-0.17968 -1.144418,-0.127 -1.344652,-0.66248 -1.51953,-1.1875 -0.01,-0.012 -0.02186,-0.019 -0.03126,-0.0196 z m 3.179686,2.621094 c -0.02108,8.62e-4 -0.044,0.0034 -0.0664,0.004 -0.673798,0.0228 -2.221602,0.972658 -2.101562,1.074218 0.181,0.1532 2.503622,-1.013538 2.226562,-1.074218 -0.0182,-0.004 -0.03752,-0.0048 -0.0586,-0.004 z m 0.34375,0.761718 c -0.0178,-8.2e-4 -0.03688,-9.4e-5 -0.05468,0.0038 -0.534578,0.1206 -1.569278,1.33592 -1.449218,1.4375 0.181,0.1532 1.798548,-1.41876 1.554688,-1.4375 -0.0154,-7.2e-4 -0.03304,-0.003 -0.05078,-0.0038 z" />
  <path
     id="rect2630"
     style="opacity:0.2;fill:#ffffff;fill-opacity:1"
     d="M 7,3 C 4.7840022,3 3,4.7840022 3,6.9999998 v 1 C 3,5.7840022 4.7840022,4 7,4 h 18 c 2.215998,0 4,1.7840022 4,3.9999998 v -1 C 29,4.7840022 27.215998,3 25,3 Z" />
  <path
     id="rect398"
     style="opacity:0.2;fill:#ffffff"
     d="m 3.0000002,24 v 1 c 0,2.215998 1.7840022,4 4,4 H 25 c 2.215998,0 4,-1.784002 4,-4 v -1 c 0,2.215998 -1.784002,4 -4,4 H 7.0000002 c -2.2159978,0 -4,-1.784002 -4,-4 z" />
  <path
     id="rect899"
     style="fill:#000000;stroke:none;opacity:0.5"
     d="M 7 2 C 4.2300028 2 2 4.2300028 2 7 L 2 25 C 2 27.769997 4.2300028 30 7 30 L 25 30 C 27.769997 30 30 27.769997 30 25 L 30 7 C 30 4.2300028 27.769997 2 25 2 L 7 2 z M 7 3 L 25 3 C 27.215998 3 29 4.7840022 29 7 L 29 25 C 29 27.215998 27.215998 29 25 29 L 7 29 C 4.7840022 29 3 27.215998 3 25 L 3 7 C 3 4.7840022 4.7840022 3 7 3 z " />
</svg>
