<?xml version="1.0" encoding="UTF-8" standalone="no"?>
<!-- Created with Inkscape (http://www.inkscape.org/) -->

<svg
   width="32"
   height="32"
   viewBox="0 0 32 32.000001"
   version="1.1"
   id="svg5"
   sodipodi:docname="desktop-environment-kde.svg"
   inkscape:version="1.2 (dc2aedaf03, 2022-05-15)"
   xmlns:inkscape="http://www.inkscape.org/namespaces/inkscape"
   xmlns:sodipodi="http://sodipodi.sourceforge.net/DTD/sodipodi-0.dtd"
   xmlns:xlink="http://www.w3.org/1999/xlink"
   xmlns="http://www.w3.org/2000/svg"
   xmlns:svg="http://www.w3.org/2000/svg">
  <sodipodi:namedview
     id="namedview7"
     pagecolor="#ffffff"
     bordercolor="#666666"
     borderopacity="1.0"
     inkscape:showpageshadow="2"
     inkscape:pageopacity="0.0"
     inkscape:pagecheckerboard="0"
     inkscape:deskcolor="#d1d1d1"
     inkscape:document-units="px"
     showgrid="false"
     inkscape:zoom="25.4375"
     inkscape:cx="15.980344"
     inkscape:cy="16"
     inkscape:window-width="1920"
     inkscape:window-height="1007"
     inkscape:window-x="0"
     inkscape:window-y="0"
     inkscape:window-maximized="1"
     inkscape:current-layer="svg5" />
  <defs
     id="defs2">
    <linearGradient
       inkscape:collect="always"
       xlink:href="#linearGradient1090"
       id="linearGradient8655"
       x1="25"
       y1="30"
       x2="7"
       y2="2"
       gradientUnits="userSpaceOnUse" />
    <linearGradient
       inkscape:collect="always"
       id="linearGradient1090">
      <stop
         style="stop-color:#3daee9;stop-opacity:1;"
         offset="0"
         id="stop1086" />
      <stop
         style="stop-color:#53c5f2;stop-opacity:1;"
         offset="1"
         id="stop1088" />
    </linearGradient>
  </defs>
  <rect
     style="fill:url(#linearGradient8655);fill-opacity:1.0;stroke:none"
     id="rect184"
     width="27"
     height="27"
     x="2.5"
     y="2.5"
     ry="4.5" />
  <path
     id="rect2630"
     style="opacity:0.3;fill:#ffffff;fill-opacity:1"
     d="M 7,3 C 4.7840022,3 3,4.7840022 3,6.9999998 v 1 C 3,5.7840022 4.7840022,4 7,4 h 18 c 2.215998,0 4,1.7840022 4,3.9999998 v -1 C 29,4.7840022 27.215998,3 25,3 Z" />
  <path
     id="rect398"
     style="opacity:0.3;fill:#ffffff"
     d="m 3.0000002,24 v 1 c 0,2.215998 1.7840022,4 4,4 H 25 c 2.215998,0 4,-1.784002 4,-4 v -1 c 0,2.215998 -1.784002,4 -4,4 H 7.0000002 c -2.2159978,0 -4,-1.784002 -4,-4 z" />
  <path
     id="rect899"
     style="fill:#000000;stroke:none;opacity:0.5"
     d="M 7 2 C 4.2300028 2 2 4.2300028 2 7 L 2 25 C 2 27.769997 4.2300028 30 7 30 L 25 30 C 27.769997 30 30 27.769997 30 25 L 30 7 C 30 4.2300028 27.769997 2 25 2 L 7 2 z M 7 3 L 25 3 C 27.215998 3 29 4.7840022 29 7 L 29 25 C 29 27.215998 27.215998 29 25 29 L 7 29 C 4.7840022 29 3 27.215998 3 25 L 3 7 C 3 4.7840022 4.7840022 3 7 3 z " />
  <path
     d="M 18.000003,6 14.000002,6.6054691 V 21.074223 l 4.000001,-1.074219 v -5.589846 l 4,6.589846 4.000001,-1.500001 L 21.000003,13.500002 26.001957,7.0019532 22.121097,6 18.000003,12.558595 Z M 9.8554698,9.9238288 c -0.094592,0 -0.1891855,0.03684 -0.261719,0.1093752 L 8.0214849,11.60547 c -0.1450675,0.145067 -0.110144,0.352307 0,0.52539 l 1.6269534,2.554689 c -0.1205425,0.250221 -0.2249231,0.50791 -0.3125001,0.771484 -0.00385,0.01134 -0.00989,0.02184 -0.01367,0.0332 l -2.9511726,0.65625 C 6.1708235,16.190998 6,16.312425 6,16.517581 v 0.982422 0.982422 c 0,0.205155 0.1708235,0.32659 0.3710941,0.371094 l 2.9511721,0.65625 c 0.00646,0.0194 0.016785,0.03731 0.023435,0.05664 0.085245,0.256042 0.1863521,0.506528 0.3027346,0.750001 l -1.6269534,2.552735 c -0.110144,0.173083 -0.1450675,0.380323 0,0.52539 l 1.5722664,1.572267 c 0.1450675,0.145067 0.3783676,0.145067 0.5234382,0 l 2.550781,-1.625001 c 0.250759,0.121949 0.509106,0.227636 0.773438,0.316406 0.01735,0.0061 0.03339,0.01554 0.05078,0.02148 l 0.654296,2.949219 c 0,0.205156 0.16594,0.371094 0.371094,0.371094 h 2.220703 c 0.205155,0 0.32659,-0.170824 0.371094,-0.371094 l 0.654298,-3.039063 c 0.300604,-0.113013 0.592418,-0.248149 0.873047,-0.404297 l 2.490234,1.781251 c 0.145068,0.145067 0.378371,0.145067 0.523438,0 l 1.572266,-1.572267 c 0.145068,-0.145067 0.110144,-0.352307 0,-0.52539 l -0.947266,-1.4375 -0.09961,0.03711 c -0.225251,0.08461 -0.478825,-0.0032 -0.603515,-0.208984 l -0.99609,-1.640622 c -0.829936,1.985196 -2.789933,3.38086 -5.076173,3.38086 -3.037567,0 -5.500001,-2.462434 -5.500001,-5.500001 0,-2.330921 1.452799,-4.318351 3.500001,-5.119143 v -1.095703 l -0.0078,0.03516 c -0.02208,0.0075 -0.04245,0.01957 -0.06445,0.02734 -0.260825,0.08662 -0.515896,0.189688 -0.763673,0.308594 l -2.54689,-1.623047 C 10.044653,9.9606703 9.9500618,9.9238288 9.8554698,9.9238288 Z"
     style="opacity:0.2;fill:#000000;stroke-width:0.5"
     id="path277" />
  <path
     d="M 18.000003,5 14.000002,5.6054691 V 20.074223 l 4.000001,-1.07422 v -5.589845 l 4.000001,6.589846 4.000001,-1.500001 L 21.000004,12.500002 26.001958,6.0019532 22.121098,5 18.000003,11.558596 Z M 9.8554699,8.9238289 c -0.094592,0 -0.1891855,0.03684 -0.261719,0.1093751 L 8.021485,10.60547 c -0.1450676,0.145067 -0.110144,0.352307 0,0.52539 l 1.6269534,2.554689 c -0.1205426,0.250221 -0.2249231,0.50791 -0.3125001,0.771484 -0.00385,0.01134 -0.00989,0.02184 -0.01367,0.0332 l -2.9511727,0.65625 C 6.1708235,15.190998 6,15.312425 6,15.517581 v 0.982422 0.982422 c 0,0.205155 0.1708235,0.32659 0.3710941,0.371094 l 2.9511722,0.65625 c 0.00646,0.0194 0.016785,0.03731 0.023435,0.05664 0.085245,0.256042 0.186352,0.506527 0.3027346,0.75 l -1.6269534,2.552736 c -0.110144,0.173083 -0.1450676,0.380323 0,0.52539 l 1.5722664,1.572267 c 0.1450675,0.145067 0.3783675,0.145067 0.5234381,0 l 2.550782,-1.625001 c 0.250759,0.121949 0.509105,0.227636 0.773437,0.316406 0.01735,0.0061 0.03339,0.01554 0.05078,0.02148 l 0.654296,2.949219 c 0,0.205156 0.16594,0.371094 0.371094,0.371094 h 2.220704 c 0.205155,0 0.32659,-0.170824 0.371094,-0.371094 l 0.654297,-3.039063 c 0.300604,-0.113013 0.592418,-0.248149 0.873047,-0.404297 l 2.490235,1.781251 c 0.145068,0.145067 0.378371,0.145067 0.523438,0 l 1.572265,-1.572267 c 0.145068,-0.145067 0.110144,-0.352307 0,-0.52539 l -0.947265,-1.4375 -0.09961,0.03711 c -0.225251,0.08461 -0.478825,-0.0032 -0.603515,-0.208984 l -0.996091,-1.640622 c -0.829936,1.985196 -2.789933,3.38086 -5.076173,3.38086 -3.037566,0 -5.500001,-2.462435 -5.500001,-5.500001 0,-2.330921 1.452799,-4.318351 3.500001,-5.119142 v -1.095704 l -0.0078,0.03516 c -0.02208,0.0075 -0.04245,0.01957 -0.06445,0.02734 -0.260825,0.08662 -0.515895,0.189688 -0.763672,0.308594 L 10.117189,9.033204 C 10.044653,8.9606704 9.9500619,8.9238289 9.8554699,8.9238289 Z"
     style="fill:#ffffff;stroke-width:0.5"
     id="path244"
     sodipodi:nodetypes="ccccccccccccscccccccscscccccsscccccssccccsccccccssccccccs" />
</svg>
