<?xml version="1.0" encoding="UTF-8" standalone="no"?>
<!-- Created with Inkscape (http://www.inkscape.org/) -->

<svg
   width="32"
   height="32"
   viewBox="0 0 32 32.000001"
   version="1.1"
   id="svg5"
   sodipodi:docname="disk-burner.svg"
   inkscape:version="1.2.1 (9c6d41e410, 2022-07-14)"
   xmlns:inkscape="http://www.inkscape.org/namespaces/inkscape"
   xmlns:sodipodi="http://sodipodi.sourceforge.net/DTD/sodipodi-0.dtd"
   xmlns:xlink="http://www.w3.org/1999/xlink"
   xmlns="http://www.w3.org/2000/svg"
   xmlns:svg="http://www.w3.org/2000/svg">
  <sodipodi:namedview
     id="namedview7"
     pagecolor="#ffffff"
     bordercolor="#666666"
     borderopacity="1.0"
     inkscape:showpageshadow="2"
     inkscape:pageopacity="0.0"
     inkscape:pagecheckerboard="0"
     inkscape:deskcolor="#d1d1d1"
     inkscape:document-units="px"
     showgrid="false"
     inkscape:zoom="7.0714286"
     inkscape:cx="-7.7070707"
     inkscape:cy="-1.1313131"
     inkscape:window-width="1920"
     inkscape:window-height="1007"
     inkscape:window-x="0"
     inkscape:window-y="0"
     inkscape:window-maximized="1"
     inkscape:current-layer="svg5" />
  <defs
     id="defs2">
    <linearGradient
       inkscape:collect="always"
       xlink:href="#linearGradient4853"
       id="linearGradient8655"
       x1="25"
       y1="30"
       x2="7"
       y2="2"
       gradientUnits="userSpaceOnUse" />
    <linearGradient
       inkscape:collect="always"
       id="linearGradient4853">
      <stop
         style="stop-color:#ff5840;stop-opacity:1;"
         offset="0"
         id="stop4849" />
      <stop
         style="stop-color:#fda36d;stop-opacity:1;"
         offset="1"
         id="stop4851" />
    </linearGradient>
  </defs>
  <rect
     style="fill:url(#linearGradient8655);fill-opacity:1.0;stroke:none"
     id="rect184"
     width="27"
     height="27"
     x="2.5"
     y="2.5"
     ry="4.5" />
  <path
     id="path8495"
     style="opacity:0.2;fill:#000000;fill-opacity:1;stroke-width:0.666661;stroke-linejoin:round"
     d="M 16 7 C 10.477176 7 6 11.477176 6 17 C 6 22.522824 10.477176 27 16 27 C 21.522824 27 26 22.522824 26 17 C 26 11.477176 21.522824 7 16 7 z M 16 13 C 18.20913 13 20 14.790869 20 17 C 20 19.20913 18.20913 21 16 21 C 13.79087 21 12 19.20913 12 17 C 12 14.790869 13.79087 13 16 13 z M 16 14 C 14.343153 14 13 15.343153 13 17 C 13 18.656846 14.343153 20 16 20 C 17.656846 20 19 18.656846 19 17 C 19 15.343153 17.656846 14 16 14 z M 16 15 C 17.104565 15 18 15.895435 18 17 C 18 18.104565 17.104565 19 16 19 C 14.895435 19 14 18.104565 14 17 C 14 15.895435 14.895435 15 16 15 z " />
  <path
     id="path4048"
     style="fill:#ffffff;fill-opacity:1;stroke-width:0.666661;stroke-linejoin:round"
     d="M 16 6 C 10.477176 6 6 10.477176 6 16 C 6 21.522824 10.477176 26 16 26 C 21.522824 26 26 21.522824 26 16 C 26 10.477176 21.522824 6 16 6 z M 16 12 C 18.20913 12 20 13.790869 20 16 C 20 18.20913 18.20913 20 16 20 C 13.79087 20 12 18.20913 12 16 C 12 13.790869 13.79087 12 16 12 z M 16 13 C 14.343153 13 13 14.343153 13 16 C 13 17.656846 14.343153 19 16 19 C 17.656846 19 19 17.656846 19 16 C 19 14.343153 17.656846 13 16 13 z M 16 14 C 17.104565 14 18 14.895435 18 16 C 18 17.104565 17.104565 18 16 18 C 14.895435 18 14 17.104565 14 16 C 14 14.895435 14.895435 14 16 14 z " />
  <path
     id="rect2630"
     style="opacity:0.3;fill:#ffffff;fill-opacity:1"
     d="M 7,3 C 4.7840022,3 3,4.7840022 3,6.9999998 v 1 C 3,5.7840022 4.7840022,4 7,4 h 18 c 2.215998,0 4,1.7840022 4,3.9999998 v -1 C 29,4.7840022 27.215998,3 25,3 Z" />
  <path
     id="rect398"
     style="opacity:0.3;fill:#ffffff"
     d="m 3.0000002,24 v 1 c 0,2.215998 1.7840022,4 4,4 H 25 c 2.215998,0 4,-1.784002 4,-4 v -1 c 0,2.215998 -1.784002,4 -4,4 H 7.0000002 c -2.2159978,0 -4,-1.784002 -4,-4 z" />
  <path
     id="rect899"
     style="fill:#000000;stroke:none;opacity:0.5"
     d="M 7 2 C 4.2300028 2 2 4.2300028 2 7 L 2 25 C 2 27.769997 4.2300028 30 7 30 L 25 30 C 27.769997 30 30 27.769997 30 25 L 30 7 C 30 4.2300028 27.769997 2 25 2 L 7 2 z M 7 3 L 25 3 C 27.215998 3 29 4.7840022 29 7 L 29 25 C 29 27.215998 27.215998 29 25 29 L 7 29 C 4.7840022 29 3 27.215998 3 25 L 3 7 C 3 4.7840022 4.7840022 3 7 3 z " />
</svg>
