<?xml version="1.0" encoding="UTF-8" standalone="no"?>
<!-- Created with Inkscape (http://www.inkscape.org/) -->

<svg
   width="32"
   height="32"
   viewBox="0 0 32 32.000001"
   version="1.1"
   id="svg5"
   sodipodi:docname="dolphin-emu.svg"
   inkscape:version="1.2 (1:1.2+202206011326+fc4e4096c5)"
   xmlns:inkscape="http://www.inkscape.org/namespaces/inkscape"
   xmlns:sodipodi="http://sodipodi.sourceforge.net/DTD/sodipodi-0.dtd"
   xmlns:xlink="http://www.w3.org/1999/xlink"
   xmlns="http://www.w3.org/2000/svg"
   xmlns:svg="http://www.w3.org/2000/svg">
  <sodipodi:namedview
     id="namedview7"
     pagecolor="#ffffff"
     bordercolor="#666666"
     borderopacity="1.0"
     inkscape:showpageshadow="2"
     inkscape:pageopacity="0.0"
     inkscape:pagecheckerboard="0"
     inkscape:deskcolor="#d1d1d1"
     inkscape:document-units="px"
     showgrid="false"
     inkscape:zoom="9.1923882"
     inkscape:cx="14.468493"
     inkscape:cy="21.53956"
     inkscape:window-width="1846"
     inkscape:window-height="1053"
     inkscape:window-x="0"
     inkscape:window-y="0"
     inkscape:window-maximized="1"
     inkscape:current-layer="svg5" />
  <defs
     id="defs2">
    <linearGradient
       inkscape:collect="always"
       xlink:href="#linearGradient1744"
       id="linearGradient8655"
       x1="25"
       y1="30"
       x2="7"
       y2="2"
       gradientUnits="userSpaceOnUse" />
    <linearGradient
       inkscape:collect="always"
       id="linearGradient1744">
      <stop
         style="stop-color:#0096f4;stop-opacity:1;"
         offset="0"
         id="stop1740" />
      <stop
         style="stop-color:#3cbff1;stop-opacity:1;"
         offset="1"
         id="stop1742" />
    </linearGradient>
  </defs>
  <rect
     style="fill:url(#linearGradient8655);fill-opacity:1.0;stroke:none"
     id="rect184"
     width="27"
     height="27"
     x="2.5"
     y="2.5"
     ry="4.5" />
  <path
     id="rect2630"
     style="opacity:0.3;fill:#ffffff;fill-opacity:1"
     d="M 7,3 C 4.7840022,3 3,4.7840022 3,6.9999998 v 1 C 3,5.7840022 4.7840022,4 7,4 h 18 c 2.215998,0 4,1.7840022 4,3.9999998 v -1 C 29,4.7840022 27.215998,3 25,3 Z" />
  <path
     id="rect398"
     style="opacity:0.3;fill:#ffffff"
     d="m 3.0000002,24 v 1 c 0,2.215998 1.7840022,4 4,4 H 25 c 2.215998,0 4,-1.784002 4,-4 v -1 c 0,2.215998 -1.784002,4 -4,4 H 7.0000002 c -2.2159978,0 -4,-1.784002 -4,-4 z" />
  <path
     id="rect899"
     style="fill:#000000;stroke:none;opacity:0.5"
     d="M 7 2 C 4.2300028 2 2 4.2300028 2 7 L 2 25 C 2 27.769997 4.2300028 30 7 30 L 25 30 C 27.769997 30 30 27.769997 30 25 L 30 7 C 30 4.2300028 27.769997 2 25 2 L 7 2 z M 7 3 L 25 3 C 27.215998 3 29 4.7840022 29 7 L 29 25 C 29 27.215998 27.215998 29 25 29 L 7 29 C 4.7840022 29 3 27.215998 3 25 L 3 7 C 3 4.7840022 4.7840022 3 7 3 z " />
  <path
     d="m 19.672721,11.50402 c -1.165289,0.07423 -2.212052,0.756464 -2.407888,0.852462 -0.627444,-0.179197 -1.342949,-0.553461 -2.180308,-0.695537 -2.896403,-0.49151 -5.3475021,0.292858 -6.5775591,1.1466 -1.612254,1.118955 -1.567711,2.375377 -1.700571,2.89689 -0.08192,0.323065 -0.815088,0.920044 -0.806384,1.339109 0.01433,0.547062 0.356344,0.723185 0.356344,0.723185 0.307706,-0.02427 0.766449,-0.243194 1.158633,-0.404984 0.582132,-0.240634 0.627186,-0.3694 2.218195,-0.606707 0.7318891,-0.110082 1.5021781,-0.140799 2.0758621,-0.145915 0.222716,0.471287 0.778225,1.440996 1.739741,1.905627 0.570614,0.262651 1.429732,0.379896 1.809371,0.454902 l 1.110506,0.163832 v -0.44927 h -0.0015 c 0,0 -0.931822,-0.386552 -1.50525,-0.959725 -0.243196,-0.243195 -0.243196,-0.531446 -0.311035,-0.820207 0.883438,0.166398 1.670623,0.292345 3.533626,1.005804 1.715934,0.657138 2.887749,1.611486 2.889106,1.612766 l 0.0015,0.0015 0.0029,0.0029 V 19.07798 l -0.0041,-0.0029 c -0.01567,-0.01935 -1.217512,-1.509857 -3.239256,-2.506957 -1.67088,-0.824048 -3.043293,-1.231592 -4.944004,-1.323749 -1.973976,-0.09472 -3.2862311,0.133115 -3.4289741,0.158715 0.168956,-0.336378 0.512245,-0.919278 1.4328041,-1.351142 1.36394,-0.639731 3.508256,-0.746736 5.970721,-0.117765 3.478919,0.887533 4.665379,2.548685 6.161847,4.110433 1.591776,1.66115 2.967032,4.452492 2.968618,4.455744 l 0.0015,0.0029 0.0029,0.007 v -0.45209 l -0.0125,-0.03583 c -0.06657,-0.222716 -0.480247,-1.567712 -1.178857,-2.857031 -0.920558,-1.698526 -1.71235,-2.912864 -3.031388,-4.146016 -0.920303,-0.686323 -1.856476,-1.62096 -1.69648,-2.024151 0.414201,-0.544758 1.537507,-0.878064 1.541602,-0.87883 h 0.0029 v -0.0015 -0.447735 c 0,0 -0.710131,-0.240635 -1.951705,-0.161282 z m 1.393636,8.01305 c 0,0 0.01117,0.0098 0,0 z"
     style="opacity:0.2;fill:#000000;stroke-width:0.499981"
     id="path1104" />
  <path
     d="m 19.672721,10.50402 c -1.165289,0.07423 -2.212052,0.756464 -2.407888,0.852462 -0.627443,-0.179197 -1.342949,-0.553461 -2.180308,-0.695537 -2.896402,-0.49151 -5.3475011,0.292858 -6.5775581,1.1466 -1.612255,1.118955 -1.567712,2.375377 -1.700572,2.896889 -0.08192,0.323065 -0.815088,0.920045 -0.806384,1.339109 0.01433,0.547062 0.356344,0.723185 0.356344,0.723185 0.307706,-0.02427 0.766449,-0.243194 1.158633,-0.404984 0.582132,-0.240634 0.627186,-0.369399 2.218196,-0.606706 0.7318881,-0.110082 1.5021781,-0.140799 2.0758611,-0.145915 0.222716,0.471286 0.778225,1.440996 1.739741,1.905627 0.570614,0.26265 1.429732,0.379896 1.809371,0.454902 l 1.110506,0.163831 v -0.44927 h -0.0015 c 0,0 -0.931821,-0.386552 -1.50525,-0.959725 -0.243196,-0.243195 -0.243196,-0.531445 -0.311035,-0.820206 0.883438,0.166397 1.670623,0.292345 3.533626,1.005803 1.715934,0.657138 2.887749,1.611487 2.889106,1.612767 l 0.0015,0.0015 0.0029,0.0029 V 18.07798 l -0.0041,-0.0029 c -0.01567,-0.01935 -1.217512,-1.509857 -3.239255,-2.506957 -1.67088,-0.824048 -3.043294,-1.231592 -4.944004,-1.323749 -1.973976,-0.09472 -3.2862311,0.133115 -3.4289751,0.158715 0.168957,-0.336378 0.512246,-0.919278 1.4328041,-1.351142 1.36394,-0.639731 3.508256,-0.746736 5.970722,-0.117765 3.478918,0.887533 4.665378,2.548685 6.161846,4.110432 1.591776,1.66115 2.967032,4.452492 2.968618,4.455744 l 0.0015,0.0029 0.0029,0.007 V 21.05817 l -0.0125,-0.03583 c -0.06657,-0.222715 -0.480247,-1.567712 -1.178857,-2.857031 -0.920558,-1.698526 -1.712349,-2.912863 -3.031388,-4.146016 -0.920303,-0.686322 -1.856476,-1.62096 -1.696479,-2.02415 0.4142,-0.544758 1.537506,-0.878064 1.541601,-0.87883 h 0.0029 v -0.0015 -0.447735 c 0,0 -0.710131,-0.240635 -1.951705,-0.161282 z m 1.393636,8.013049 c 0,0 0.01117,0.0098 0,0 z"
     style="fill:#ffffff;stroke-width:0.499981"
     id="path358"
     sodipodi:nodetypes="cccccccccccccccccsccccccccccccccccccccccccccc" />
</svg>
