<?xml version="1.0" encoding="UTF-8" standalone="no"?>
<!-- Created with Inkscape (http://www.inkscape.org/) -->

<svg
   width="32"
   height="32"
   viewBox="0 0 32 32.000001"
   version="1.1"
   id="svg5"
   sodipodi:docname="emacs.svg"
   inkscape:version="1.2.1 (9c6d41e410, 2022-07-14)"
   xmlns:inkscape="http://www.inkscape.org/namespaces/inkscape"
   xmlns:sodipodi="http://sodipodi.sourceforge.net/DTD/sodipodi-0.dtd"
   xmlns:xlink="http://www.w3.org/1999/xlink"
   xmlns="http://www.w3.org/2000/svg"
   xmlns:svg="http://www.w3.org/2000/svg">
  <sodipodi:namedview
     id="namedview7"
     pagecolor="#ffffff"
     bordercolor="#666666"
     borderopacity="1.0"
     inkscape:showpageshadow="2"
     inkscape:pageopacity="0.0"
     inkscape:pagecheckerboard="0"
     inkscape:deskcolor="#d1d1d1"
     inkscape:document-units="px"
     showgrid="false"
     inkscape:zoom="25.71875"
     inkscape:cx="15.980559"
     inkscape:cy="16"
     inkscape:window-width="1920"
     inkscape:window-height="1009"
     inkscape:window-x="0"
     inkscape:window-y="0"
     inkscape:window-maximized="1"
     inkscape:current-layer="svg5" />
  <defs
     id="defs2">
    <linearGradient
       inkscape:collect="always"
       xlink:href="#linearGradient1312"
       id="linearGradient16885"
       x1="16"
       y1="30"
       x2="16"
       y2="2"
       gradientUnits="userSpaceOnUse" />
    <linearGradient
       inkscape:collect="always"
       id="linearGradient1312">
      <stop
         style="stop-color:#9d4dcd;stop-opacity:1;"
         offset="0"
         id="stop1308" />
      <stop
         style="stop-color:#b589df;stop-opacity:1;"
         offset="1"
         id="stop1310" />
    </linearGradient>
  </defs>
  <rect
     style="fill:url(#linearGradient16885);fill-opacity:1.0;stroke:none"
     id="rect184"
     width="27"
     height="27"
     x="2.5"
     y="2.5"
     ry="4.5" />
  <path
     d="m 9.805902,25.192565 c 0,0 1.072984,0.311555 2.501163,0.489673 0.578412,0.07214 2.779159,0.324235 4.466534,0.317635 0,0 2.054969,0.0019 3.189353,-0.158818 1.186982,-0.168617 1.859372,-0.383794 2.233566,-0.813228 0.0098,-0.102378 0.180638,-0.436153 -0.280755,-0.757989 -1.179983,-0.823987 -2.70396,-1.047984 -5.666716,-1.751973 -3.275352,-0.823988 -4.254137,-1.611977 -4.74313,-2.181968 -0.463793,-0.572392 0.087,-1.760174 2.72616,-2.342965 1.33618,-0.325196 6.313706,-0.384995 6.313706,-0.384995 -1.427979,-1.133583 -4.109139,-3.163153 -4.656931,-3.594746 -0.480553,-0.378555 -1.254981,-0.959466 -1.33818,-1.478578 -0.112298,-0.505333 0.68313,-0.748649 1.104284,-0.776709 1.356879,-0.09358 3.209752,0.0655 4.856727,0.393034 0.827888,0.164638 0.973226,0.140378 0.973226,0.140378 1.179083,0.05616 2.096169,-0.561471 2.04937,-1.862272 -0.0094,-1.3194811 -1.328581,-2.3775651 -2.788559,-2.4237644 -1.37498,-0.043539 -4.763129,0.1965171 -4.763129,0.1965171 3.949141,0.8141482 4.594732,1.0218852 4.800728,1.4972782 0.121999,0.280895 -0.202997,0.5599911 -1.29098,0.5054921 -1.184983,-0.0594 -3.612947,-0.3462951 -3.612947,-0.3462951 -2.310965,-0.355595 -3.920942,-0.69249 -4.622931,0.2245971 -0.458534,0.599151 0.06552,1.32888 0.271376,1.759274 0.917086,1.600276 2.502963,2.69816 3.509148,3.471748 0.378634,0.291116 1.534677,0.935807 1.534677,0.935807 -3.593347,-0.982586 -6.456905,-0.430474 -8.2724777,0.524052 -2.086769,1.235281 -1.7298743,3.31975 1.5814767,5.268522 1.955871,1.151082 2.929557,1.703974 6.131909,2.097168 1.871772,0.298456 2.150568,0.420574 2.136369,0.576372 -0.02008,0.219357 -2.215368,0.302475 -2.818759,0.344095 -1.535177,0.105878 -5.505518,0.132338 -5.525318,0.132338 z"
     style="opacity:0.2;fill:#000000;stroke-width:1.99997"
     id="path667" />
  <path
     d="m 9.805902,24.192565 c 0,0 1.072984,0.311555 2.501163,0.489673 0.578412,0.07214 2.779159,0.324235 4.466534,0.317635 0,0 2.054969,0.0019 3.189353,-0.158818 1.186982,-0.168617 1.859372,-0.383794 2.233566,-0.813228 0.0098,-0.102378 0.180638,-0.436153 -0.280755,-0.757989 -1.179983,-0.823987 -2.70396,-1.047984 -5.666716,-1.751973 -3.275352,-0.823988 -4.254137,-1.611977 -4.74313,-2.181968 -0.463793,-0.572392 0.087,-1.760174 2.72616,-2.342965 1.33618,-0.325196 6.313706,-0.384995 6.313706,-0.384995 -1.427979,-1.133583 -4.109139,-3.163153 -4.656931,-3.594746 -0.480553,-0.378555 -1.254981,-0.959466 -1.33818,-1.478578 -0.112298,-0.505333 0.68313,-0.748649 1.104284,-0.776709 1.356879,-0.09358 3.209752,0.0655 4.856727,0.393034 0.827888,0.164638 0.973226,0.140378 0.973226,0.140378 1.179083,0.05616 2.096169,-0.561472 2.04937,-1.8622721 -0.0094,-1.3194807 -1.328581,-2.377565 -2.788559,-2.4237643 -1.37498,-0.043539 -4.763129,0.1965171 -4.763129,0.1965171 3.949141,0.8141479 4.594732,1.0218848 4.800728,1.4972778 0.121999,0.2808958 -0.202997,0.5599914 -1.29098,0.5054924 -1.184983,-0.0594 -3.612947,-0.3462948 -3.612947,-0.3462948 -2.310965,-0.3555947 -3.920942,-0.6924897 -4.622931,0.2245968 -0.458534,0.599151 0.06552,1.3288801 0.271376,1.7592741 0.917086,1.600276 2.502963,2.69816 3.509148,3.471748 0.378634,0.291116 1.534677,0.935807 1.534677,0.935807 -3.593347,-0.982586 -6.456905,-0.430474 -8.2724777,0.524052 -2.086769,1.235281 -1.7298743,3.31975 1.5814767,5.268522 1.955871,1.151082 2.929557,1.703974 6.131909,2.097168 1.871772,0.298456 2.150568,0.420574 2.136369,0.576372 -0.02008,0.219357 -2.215368,0.302475 -2.818759,0.344095 -1.535177,0.105878 -5.505518,0.132338 -5.525318,0.132338 z"
     style="fill:#ffffff;stroke-width:1.99997"
     id="path397"
     sodipodi:nodetypes="cscccccccccccccccccccccccccccccc" />
  <path
     id="rect2630"
     style="opacity:0.3;fill:#ffffff;fill-opacity:1"
     d="M 7,3 C 4.7840022,3 3,4.7840022 3,6.9999998 v 1 C 3,5.7840022 4.7840022,4 7,4 h 18 c 2.215998,0 4,1.7840022 4,3.9999998 v -1 C 29,4.7840022 27.215998,3 25,3 Z" />
  <path
     id="rect398"
     style="opacity:0.3;fill:#ffffff"
     d="m 3.0000002,24 v 1 c 0,2.215998 1.7840022,4 4,4 H 25 c 2.215998,0 4,-1.784002 4,-4 v -1 c 0,2.215998 -1.784002,4 -4,4 H 7.0000002 c -2.2159978,0 -4,-1.784002 -4,-4 z" />
  <path
     id="rect899"
     style="fill:#000000;stroke:none;opacity:0.5"
     d="M 7 2 C 4.2300028 2 2 4.2300028 2 7 L 2 25 C 2 27.769997 4.2300028 30 7 30 L 25 30 C 27.769997 30 30 27.769997 30 25 L 30 7 C 30 4.2300028 27.769997 2 25 2 L 7 2 z M 7 3 L 25 3 C 27.215998 3 29 4.7840022 29 7 L 29 25 C 29 27.215998 27.215998 29 25 29 L 7 29 C 4.7840022 29 3 27.215998 3 25 L 3 7 C 3 4.7840022 4.7840022 3 7 3 z " />
</svg>
