<?xml version="1.0" encoding="UTF-8" standalone="no"?>
<!-- Created with Inkscape (http://www.inkscape.org/) -->

<svg
   width="32"
   height="32"
   viewBox="0 0 32 32.000001"
   version="1.1"
   id="svg5"
   sodipodi:docname="extensions.svg"
   inkscape:version="1.2.1 (9c6d41e410, 2022-07-14)"
   xmlns:inkscape="http://www.inkscape.org/namespaces/inkscape"
   xmlns:sodipodi="http://sodipodi.sourceforge.net/DTD/sodipodi-0.dtd"
   xmlns:xlink="http://www.w3.org/1999/xlink"
   xmlns="http://www.w3.org/2000/svg"
   xmlns:svg="http://www.w3.org/2000/svg">
  <sodipodi:namedview
     id="namedview7"
     pagecolor="#ffffff"
     bordercolor="#666666"
     borderopacity="1.0"
     inkscape:showpageshadow="2"
     inkscape:pageopacity="0.0"
     inkscape:pagecheckerboard="0"
     inkscape:deskcolor="#d1d1d1"
     inkscape:document-units="px"
     showgrid="false"
     inkscape:zoom="13"
     inkscape:cx="-2.0769231"
     inkscape:cy="12.730769"
     inkscape:window-width="1920"
     inkscape:window-height="1009"
     inkscape:window-x="0"
     inkscape:window-y="0"
     inkscape:window-maximized="1"
     inkscape:current-layer="svg5" />
  <defs
     id="defs2">
    <linearGradient
       inkscape:collect="always"
       xlink:href="#linearGradient1270"
       id="linearGradient8655"
       x1="25"
       y1="30"
       x2="7"
       y2="2"
       gradientUnits="userSpaceOnUse" />
    <linearGradient
       inkscape:collect="always"
       id="linearGradient1270">
      <stop
         style="stop-color:#80d935;stop-opacity:1;"
         offset="0"
         id="stop1266" />
      <stop
         style="stop-color:#afd65f;stop-opacity:1;"
         offset="1"
         id="stop1268" />
    </linearGradient>
  </defs>
  <rect
     style="fill:url(#linearGradient8655);fill-opacity:1.0;stroke:none"
     id="rect184"
     width="27"
     height="27"
     x="2.5"
     y="2.5"
     ry="4.5" />
  <path
     d="m 15,7 c -1.661998,0 -3,1.338002 -3,3 v 1 h -2 c -1.661994,0 -3,1.338006 -3,3 v 2 h 1 c 1.661994,0 3,1.338007 3,3.000001 0,1.661994 -1.338006,3 -3,3 H 7 v 2 c 0,1.661994 1.338006,3 3,3 h 2 v -1 c 0,-1.661996 1.338004,-3 3,-3 1.661996,0 3,1.338004 3,3 v 1 h 2 c 1.661994,0 3,-1.338006 3,-3 v -2 h 1 c 1.661998,0 3,-1.338002 3,-3 C 27,17.338003 25.661998,16 24,16 h -1 v -2 c 0,-1.661994 -1.338006,-3 -3,-3 H 18 V 10 C 18,8.338002 16.661998,7 15,7 Z"
     style="fill:#000000;stroke-width:3;stroke-linecap:round;stroke-linejoin:round;opacity:0.2"
     id="path1763" />
  <path
     id="rect1415"
     style="fill:#ffffff;stroke-width:3;stroke-linecap:round;stroke-linejoin:round"
     d="m 15,6 c -1.661998,0 -3,1.338002 -3,3 v 1 h -2 c -1.661994,0 -3,1.338006 -3,3 v 2 h 1 c 1.661994,0 3,1.338006 3,3 0,1.661994 -1.338006,3 -3,3 H 7 v 2 c 0,1.661994 1.338006,3 3,3 h 2 v -1 c 0,-1.661996 1.338004,-3 3,-3 1.661996,0 3,1.338004 3,3 v 1 h 2 c 1.661994,0 3,-1.338006 3,-3 v -2 h 1 c 1.661998,0 3,-1.338002 3,-3 0,-1.661998 -1.338002,-3 -3,-3 h -1 v -2 c 0,-1.661994 -1.338006,-3 -3,-3 H 18 V 9 C 18,7.338002 16.661998,6 15,6 Z"
     sodipodi:nodetypes="sscsscssscsscssscsscssscsscss" />
  <path
     id="rect2630"
     style="opacity:0.3;fill:#ffffff;fill-opacity:1"
     d="M 7,3 C 4.7840022,3 3,4.7840022 3,6.9999998 v 1 C 3,5.7840022 4.7840022,4 7,4 h 18 c 2.215998,0 4,1.7840022 4,3.9999998 v -1 C 29,4.7840022 27.215998,3 25,3 Z" />
  <path
     id="rect398"
     style="opacity:0.3;fill:#ffffff"
     d="m 3.0000002,24 v 1 c 0,2.215998 1.7840022,4 4,4 H 25 c 2.215998,0 4,-1.784002 4,-4 v -1 c 0,2.215998 -1.784002,4 -4,4 H 7.0000002 c -2.2159978,0 -4,-1.784002 -4,-4 z" />
  <path
     id="rect899"
     style="fill:#000000;stroke:none;opacity:0.5"
     d="M 7 2 C 4.2300028 2 2 4.2300028 2 7 L 2 25 C 2 27.769997 4.2300028 30 7 30 L 25 30 C 27.769997 30 30 27.769997 30 25 L 30 7 C 30 4.2300028 27.769997 2 25 2 L 7 2 z M 7 3 L 25 3 C 27.215998 3 29 4.7840022 29 7 L 29 25 C 29 27.215998 27.215998 29 25 29 L 7 29 C 4.7840022 29 3 27.215998 3 25 L 3 7 C 3 4.7840022 4.7840022 3 7 3 z " />
</svg>
