<?xml version="1.0" encoding="UTF-8" standalone="no"?>
<!-- Created with Inkscape (http://www.inkscape.org/) -->

<svg
   width="32"
   height="32"
   viewBox="0 0 32 32.000001"
   version="1.1"
   id="svg5"
   sodipodi:docname="fbmessenger.svg"
   inkscape:version="1.2.1 (9c6d41e410, 2022-07-14)"
   xmlns:inkscape="http://www.inkscape.org/namespaces/inkscape"
   xmlns:sodipodi="http://sodipodi.sourceforge.net/DTD/sodipodi-0.dtd"
   xmlns:xlink="http://www.w3.org/1999/xlink"
   xmlns="http://www.w3.org/2000/svg"
   xmlns:svg="http://www.w3.org/2000/svg">
  <sodipodi:namedview
     id="namedview7"
     pagecolor="#ffffff"
     bordercolor="#666666"
     borderopacity="1.0"
     inkscape:showpageshadow="2"
     inkscape:pageopacity="0.0"
     inkscape:pagecheckerboard="0"
     inkscape:deskcolor="#d1d1d1"
     inkscape:document-units="px"
     showgrid="false"
     inkscape:zoom="24.84375"
     inkscape:cx="16"
     inkscape:cy="16"
     inkscape:window-width="1920"
     inkscape:window-height="1007"
     inkscape:window-x="0"
     inkscape:window-y="0"
     inkscape:window-maximized="1"
     inkscape:current-layer="svg5" />
  <defs
     id="defs2">
    <radialGradient
       inkscape:collect="always"
       xlink:href="#linearGradient982"
       id="radialGradient1977"
       cx="29.445274"
       cy="36.813942"
       fx="29.445274"
       fy="36.813942"
       r="20"
       gradientTransform="matrix(7.6667825e-8,1.0749046,-1.0500443,1.2493799e-7,48.838085,-5.636604)"
       gradientUnits="userSpaceOnUse" />
    <linearGradient
       inkscape:collect="always"
       id="linearGradient982">
      <stop
         style="stop-color:#0099ff;stop-opacity:1;"
         offset="0"
         id="stop978" />
      <stop
         style="stop-color:#a033ff;stop-opacity:1;"
         offset="0.60000002"
         id="stop986" />
      <stop
         style="stop-color:#ff5280;stop-opacity:1;"
         offset="0.93000001"
         id="stop988" />
      <stop
         style="stop-color:#ff7061;stop-opacity:1;"
         offset="1"
         id="stop980" />
    </linearGradient>
  </defs>
  <rect
     style="fill:#fafafa;fill-opacity:1;stroke:none"
     id="rect184"
     width="27"
     height="27"
     x="2.5"
     y="2.5"
     ry="4.5" />
  <path
     d="m 16,6 c -5.6325,0 -10,4.127134 -10,9.69914 0,2.914741 1.195,5.434518 3.14,7.174363 0.1625,0.144988 0.2625,0.349969 0.2675,0.569949 l 0.055,1.779843 c 0.0175,0.56745 0.6025,0.937417 1.1225,0.707437 L 12.57,25.05581 c 0.1675,-0.07499 0.3575,-0.08749 0.535,-0.04 0.9125,0.249978 1.8825,0.384966 2.895,0.384966 5.6325,0 10,-4.127135 10,-9.69914 C 26,10.129634 21.6325,6 16,6 Z"
     style="fill:url(#radialGradient1977);fill-opacity:1;stroke-width:0.0249989"
     id="path1218" />
  <path
     d="m 10.07641,18.328811 2.897356,-4.277218 c 0.461111,-0.681509 1.447445,-0.849018 2.140344,-0.367143 l 2.305556,1.608547 c 0.212062,0.146856 0.50303,0.146856 0.712626,-0.0022 l 3.111884,-2.19827 c 0.41426,-0.293715 0.956744,0.169804 0.68057,0.580545 l -2.899821,4.274923 c -0.461111,0.681511 -1.447445,0.849019 -2.140345,0.367144 l -2.305556,-1.608546 c -0.212062,-0.146857 -0.50303,-0.146857 -0.712626,0.0023 l -3.111884,2.198263 C 10.340254,19.20087 9.79777,18.739646 10.07641,18.328904 Z"
     style="fill:#ffffff;stroke-width:0.0237871"
     id="path11549" />
  <path
     id="rect2630"
     style="opacity:0.3;fill:#ffffff;fill-opacity:1"
     d="M 7,3 C 4.7840022,3 3,4.7840022 3,6.9999998 v 1 C 3,5.7840022 4.7840022,4 7,4 h 18 c 2.215998,0 4,1.7840022 4,3.9999998 v -1 C 29,4.7840022 27.215998,3 25,3 Z" />
  <path
     id="rect398"
     style="opacity:0.3;fill:#ffffff"
     d="m 3.0000002,24 v 1 c 0,2.215998 1.7840022,4 4,4 H 25 c 2.215998,0 4,-1.784002 4,-4 v -1 c 0,2.215998 -1.784002,4 -4,4 H 7.0000002 c -2.2159978,0 -4,-1.784002 -4,-4 z" />
  <path
     id="rect899"
     style="fill:#000000;stroke:none;opacity:0.5"
     d="M 7 2 C 4.2300028 2 2 4.2300028 2 7 L 2 25 C 2 27.769997 4.2300028 30 7 30 L 25 30 C 27.769997 30 30 27.769997 30 25 L 30 7 C 30 4.2300028 27.769997 2 25 2 L 7 2 z M 7 3 L 25 3 C 27.215998 3 29 4.7840022 29 7 L 29 25 C 29 27.215998 27.215998 29 25 29 L 7 29 C 4.7840022 29 3 27.215998 3 25 L 3 7 C 3 4.7840022 4.7840022 3 7 3 z " />
</svg>
