<?xml version="1.0" encoding="UTF-8" standalone="no"?>
<!-- Created with Inkscape (http://www.inkscape.org/) -->

<svg
   width="32"
   height="32"
   viewBox="0 0 32 32.000001"
   version="1.1"
   id="svg5"
   sodipodi:docname="firefox.svg"
   inkscape:version="1.2 (1:1.2+202206011326+fc4e4096c5)"
   xmlns:inkscape="http://www.inkscape.org/namespaces/inkscape"
   xmlns:sodipodi="http://sodipodi.sourceforge.net/DTD/sodipodi-0.dtd"
   xmlns:xlink="http://www.w3.org/1999/xlink"
   xmlns="http://www.w3.org/2000/svg"
   xmlns:svg="http://www.w3.org/2000/svg">
  <sodipodi:namedview
     id="namedview7"
     pagecolor="#ffffff"
     bordercolor="#666666"
     borderopacity="1.0"
     inkscape:showpageshadow="2"
     inkscape:pageopacity="0.0"
     inkscape:pagecheckerboard="0"
     inkscape:deskcolor="#d1d1d1"
     inkscape:document-units="px"
     showgrid="false"
     inkscape:zoom="9.1923882"
     inkscape:cx="15.77392"
     inkscape:cy="21.53956"
     inkscape:window-width="1846"
     inkscape:window-height="1053"
     inkscape:window-x="0"
     inkscape:window-y="0"
     inkscape:window-maximized="1"
     inkscape:current-layer="svg5" />
  <defs
     id="defs2">
    <linearGradient
       inkscape:collect="always"
       id="linearGradient3523">
      <stop
         style="stop-color:#ff7139;stop-opacity:1;"
         offset="0"
         id="stop3519" />
      <stop
         style="stop-color:#ffb439;stop-opacity:1;"
         offset="1"
         id="stop3521" />
    </linearGradient>
    <linearGradient
       inkscape:collect="always"
       xlink:href="#linearGradient3523"
       id="linearGradient8655"
       x1="25"
       y1="30"
       x2="7"
       y2="2"
       gradientUnits="userSpaceOnUse" />
  </defs>
  <rect
     style="fill:url(#linearGradient8655);fill-opacity:1;stroke:none"
     id="rect184"
     width="27"
     height="27"
     x="2.5"
     y="2.5"
     ry="4.5" />
  <path
     d="m 13.264811,12.94187 c 0.0066,4e-4 0.0035,1.25e-4 0,0 z m -2.41142,-1.205545 c 0.0066,2.75e-4 0.0035,1.3e-4 0,0 z m 14.426177,1.86142 c -0.435206,-1.04679 -1.316666,-2.177 -2.008791,-2.53417 0.563335,1.10417 0.889375,2.21221 1.01396,3.03896 0,0.0015 5e-4,0.0056 0.002,0.01665 -1.132295,-2.82217 -3.052255,-3.960295 -4.620255,-6.438005 -0.07917,-0.125335 -0.15854,-0.25092 -0.235875,-0.383335 -0.0394,-0.06761 -0.07617,-0.13672 -0.11025,-0.207165 -0.06499,-0.1257 -0.115115,-0.25854 -0.149375,-0.395835 5e-4,-0.0135 -0.0093,-0.02515 -0.02275,-0.02685 -0.0061,-0.002 -0.01265,-0.002 -0.0188,0 -0.0015,4e-4 -0.0035,0.002 -0.005,0.0025 -0.002,0.001 -0.005,0.003 -0.0073,0.004 10e-4,-0.0015 0.0035,-0.005 0.004,-0.0056 -2.226545,1.30417 -3.149461,3.587211 -3.386751,5.04042 -0.687935,0.0391 -1.36179,0.21104 -1.984335,0.506375 -0.117275,0.05802 -0.171925,0.195135 -0.12671,0.31792 0.04835,0.13989 0.206505,0.207935 0.341335,0.146875 0.543155,-0.25628 1.129255,-0.409245 1.728375,-0.451085 0.0195,-0.0015 0.03905,-0.0025 0.05854,-0.004 0.0823,-0.005 0.16472,-0.0079 0.24717,-0.0088 0.486141,-0.0035 0.970206,0.06366 1.437126,0.19904 0.02725,0.008 0.05396,0.01725 0.08108,0.02565 0.07754,0.0237 0.154495,0.0493 0.230795,0.07675 0.05582,0.02075 0.111275,0.04245 0.16633,0.06517 0.04475,0.0181 0.0895,0.03615 0.133585,0.05546 0.06878,0.0305 0.136855,0.06253 0.20417,0.09612 0.03095,0.01535 0.06188,0.03065 0.09237,0.04655 0.06572,0.0345 0.130665,0.07043 0.19479,0.10779 0.0414,0.024 0.08239,0.0487 0.123,0.074 0.725355,0.448745 1.32726,1.0714 1.75117,1.811545 -0.53471,-0.375625 -1.492085,-0.746585 -2.41446,-0.58617 3.60171,1.800585 2.63475,8.001132 -2.356046,7.767006 -0.444445,-0.0181 -0.883655,-0.102815 -1.30296,-0.25129 -0.09917,-0.03725 -0.19726,-0.07735 -0.294125,-0.12025 -0.0565,-0.02575 -0.11296,-0.05179 -0.16879,-0.08062 -1.222875,-0.632 -2.23263,-1.826374 -2.358795,-3.276796 0,0 0.46221,-1.72229 3.30971,-1.72229 0.307835,0 1.187835,-0.85892 1.20417,-1.108045 -0.0035,-0.08137 -1.746545,-0.774585 -2.42596,-1.444 -0.363085,-0.35771 -0.53546,-0.530125 -0.688085,-0.65954 -0.08284,-0.06994 -0.169425,-0.13531 -0.259375,-0.195835 -0.228255,-0.798515 -0.23796,-1.643665 -0.0281,-2.44721 -1.028625,0.468415 -1.82875,1.20879 -2.410375,1.8625 h -0.0045 C 9.8184808,12.009346 9.8465258,10.35076 9.8691508,10.004465 c -0.005,-0.0215 -0.296125,0.15125 -0.334335,0.17725 -0.35027,0.250055 -0.67774,0.53059 -0.978586,0.838335 -0.342335,0.34715 -0.655125,0.72224 -0.935125,1.121376 0,5e-4 -2.75e-4,9.99e-4 -4e-4,0.0015 0,-5.01e-4 2.75e-4,-10e-4 4e-4,-0.0015 -0.643885,0.912549 -1.100515,1.943664 -1.3435,3.033754 -0.0025,0.01105 -0.09542,0.418915 -0.163335,0.92279 -0.0115,0.07837 -0.0222,0.156861 -0.03205,0.23546 -0.02325,0.1515 -0.04135,0.316665 -0.05917,0.573625 -0.001,0.01 -0.0015,0.01975 -0.002,0.02965 -0.0074,0.110995 -0.0141,0.22204 -0.02005,0.333125 0,0.0171 -10e-4,0.034 -10e-4,0.05112 0,5.529546 4.4833362,10.012093 10.0135062,10.012093 4.952716,0 9.064967,-3.595337 9.870092,-8.317922 0.01695,-0.128125 0.0305,-0.257 0.0455,-0.38625 0.199045,-1.717085 -0.0221,-3.521881 -0.6495,-5.031131 z"
     style="display:inline;opacity:0.2;fill:#000000;stroke-width:0.0416667;enable-background:new"
     id="path4039" />
  <path
     d="m 13.264811,11.941375 c 0.0066,4.01e-4 0.0035,1.26e-4 0,0 z m -2.41142,-1.205544 c 0.0066,2.75e-4 0.0035,1.3e-4 0,0 z m 14.426177,1.861419 c -0.435206,-1.04679 -1.316666,-2.176999 -2.008791,-2.534169 0.563335,1.104169 0.889375,2.21221 1.01396,3.038959 0,0.0015 5e-4,0.0057 0.002,0.01665 C 23.154442,10.29652 21.234482,9.158396 19.666482,6.680685 19.587312,6.55535 19.507942,6.429765 19.430607,6.29735 c -0.0394,-0.06761 -0.07617,-0.13672 -0.11025,-0.207165 -0.06499,-0.1257 -0.115115,-0.25854 -0.149375,-0.395835 5e-4,-0.0135 -0.0093,-0.02515 -0.02275,-0.02685 -0.0061,-0.002 -0.01265,-0.002 -0.0188,0 -0.0015,4e-4 -0.0035,0.002 -0.005,0.0025 -0.002,0.001 -0.005,0.003 -0.0073,0.004 10e-4,-0.0015 0.0035,-0.005 0.004,-0.0057 -2.226545,1.30417 -3.149461,3.58721 -3.386751,5.040421 -0.687935,0.0391 -1.36179,0.21104 -1.984335,0.506376 -0.117275,0.05802 -0.171925,0.195135 -0.12671,0.31792 0.04835,0.13989 0.206505,0.207935 0.341335,0.146875 0.543155,-0.25628 1.129255,-0.409245 1.728375,-0.451086 0.0195,-0.0015 0.03905,-0.0025 0.05854,-0.004 0.0823,-0.005 0.16472,-0.008 0.24717,-0.0088 0.486141,-0.0035 0.970206,0.06366 1.437126,0.19904 0.02725,0.008 0.05396,0.01725 0.08108,0.02565 0.07754,0.0237 0.154495,0.0493 0.230795,0.07675 0.05582,0.02075 0.111275,0.04245 0.16633,0.06517 0.04475,0.0181 0.0895,0.03615 0.133585,0.05546 0.06878,0.0305 0.136855,0.06253 0.20417,0.09612 0.03095,0.01535 0.06188,0.03065 0.09237,0.04655 0.06572,0.0345 0.130665,0.07043 0.19479,0.10779 0.0414,0.024 0.08239,0.0487 0.123,0.074 0.725355,0.448745 1.32726,1.0714 1.75117,1.811545 -0.53471,-0.375625 -1.492085,-0.746585 -2.41446,-0.58617 3.60171,1.800585 2.63475,8.001131 -2.356046,7.767006 -0.444445,-0.0181 -0.883655,-0.102815 -1.30296,-0.251291 -0.09917,-0.03725 -0.19726,-0.07735 -0.294125,-0.12025 -0.0565,-0.02575 -0.11296,-0.05179 -0.16879,-0.08062 -1.222875,-0.632001 -2.23263,-1.826375 -2.358795,-3.276797 0,0 0.46221,-1.722289 3.30971,-1.722289 0.307835,0 1.187835,-0.85892 1.20417,-1.108045 -0.0035,-0.08137 -1.746545,-0.774586 -2.42596,-1.444 -0.363085,-0.35771 -0.53546,-0.530125 -0.688085,-0.65954 -0.08284,-0.06994 -0.169425,-0.13531 -0.259375,-0.195835 -0.228255,-0.798515 -0.23796,-1.643666 -0.0281,-2.447212 -1.028625,0.468415 -1.82875,1.208791 -2.410375,1.862502 h -0.0045 C 9.8184808,11.008751 9.8465258,9.350165 9.8691508,9.00387 c -0.005,-0.0215 -0.296125,0.15125 -0.334335,0.17725 -0.35027,0.250055 -0.67774,0.53059 -0.978586,0.838335 -0.342335,0.347151 -0.655125,0.722241 -0.935125,1.121376 0,5.01e-4 -2.75e-4,10e-4 -4e-4,0.0015 0,-5e-4 2.75e-4,-9.99e-4 4e-4,-0.0015 -0.643885,0.91255 -1.100515,1.943665 -1.3435,3.033755 -0.0025,0.01105 -0.09542,0.418915 -0.163335,0.92279 -0.0115,0.07837 -0.0222,0.15686 -0.03205,0.23546 -0.02325,0.1515 -0.04135,0.316665 -0.05917,0.573625 -0.001,0.0099 -0.0015,0.01975 -0.002,0.02965 -0.0074,0.110995 -0.0141,0.22204 -0.02005,0.333125 0,0.0171 -10e-4,0.034 -10e-4,0.05112 0,5.529545 4.4833362,10.012092 10.0135062,10.012092 4.952716,0 9.064967,-3.595336 9.870092,-8.317921 0.01695,-0.128125 0.0305,-0.257001 0.0455,-0.38625 0.199045,-1.717086 -0.0221,-3.521881 -0.6495,-5.031131 z"
     style="display:inline;fill:#ffffff;stroke-width:0.0416667;enable-background:new"
     id="path606"
     sodipodi:nodetypes="ccccccccccccccccccccccccccccccccccccccccscccccccccccccccccccsscccc" />
  <path
     id="rect2630"
     style="opacity:0.3;fill:#ffffff;fill-opacity:1"
     d="M 7,3 C 4.7840022,3 3,4.7840022 3,6.9999998 v 1 C 3,5.7840022 4.7840022,4 7,4 h 18 c 2.215998,0 4,1.7840022 4,3.9999998 v -1 C 29,4.7840022 27.215998,3 25,3 Z" />
  <path
     id="rect398"
     style="opacity:0.3;fill:#ffffff"
     d="m 3.0000002,24 v 1 c 0,2.215998 1.7840022,4 4,4 H 25 c 2.215998,0 4,-1.784002 4,-4 v -1 c 0,2.215998 -1.784002,4 -4,4 H 7.0000002 c -2.2159978,0 -4,-1.784002 -4,-4 z" />
  <path
     id="rect899"
     style="fill:#000000;stroke:none;opacity:0.5"
     d="M 7 2 C 4.2300028 2 2 4.2300028 2 7 L 2 25 C 2 27.769997 4.2300028 30 7 30 L 25 30 C 27.769997 30 30 27.769997 30 25 L 30 7 C 30 4.2300028 27.769997 2 25 2 L 7 2 z M 7 3 L 25 3 C 27.215998 3 29 4.7840022 29 7 L 29 25 C 29 27.215998 27.215998 29 25 29 L 7 29 C 4.7840022 29 3 27.215998 3 25 L 3 7 C 3 4.7840022 4.7840022 3 7 3 z " />
</svg>
