<?xml version="1.0" encoding="UTF-8" standalone="no"?>
<!-- Created with Inkscape (http://www.inkscape.org/) -->

<svg
   width="32"
   height="32"
   viewBox="0 0 32 32.000001"
   version="1.1"
   id="svg5"
   sodipodi:docname="geforcenow.svg"
   inkscape:version="1.2 (dc2aedaf03, 2022-05-15)"
   xmlns:inkscape="http://www.inkscape.org/namespaces/inkscape"
   xmlns:sodipodi="http://sodipodi.sourceforge.net/DTD/sodipodi-0.dtd"
   xmlns:xlink="http://www.w3.org/1999/xlink"
   xmlns="http://www.w3.org/2000/svg"
   xmlns:svg="http://www.w3.org/2000/svg">
  <sodipodi:namedview
     id="namedview7"
     pagecolor="#ffffff"
     bordercolor="#666666"
     borderopacity="1.0"
     inkscape:showpageshadow="2"
     inkscape:pageopacity="0.0"
     inkscape:pagecheckerboard="0"
     inkscape:deskcolor="#d1d1d1"
     inkscape:document-units="px"
     showgrid="false"
     inkscape:zoom="13"
     inkscape:cx="-1.5769231"
     inkscape:cy="12.692308"
     inkscape:window-width="1920"
     inkscape:window-height="991"
     inkscape:window-x="0"
     inkscape:window-y="0"
     inkscape:window-maximized="1"
     inkscape:current-layer="svg5" />
  <defs
     id="defs2">
    <linearGradient
       inkscape:collect="always"
       xlink:href="#linearGradient1270"
       id="linearGradient8655"
       x1="25"
       y1="30"
       x2="7"
       y2="2"
       gradientUnits="userSpaceOnUse" />
    <linearGradient
       inkscape:collect="always"
       id="linearGradient1270">
      <stop
         style="stop-color:#80d935;stop-opacity:1;"
         offset="0"
         id="stop1266" />
      <stop
         style="stop-color:#afd65f;stop-opacity:1;"
         offset="1"
         id="stop1268" />
    </linearGradient>
  </defs>
  <rect
     style="fill:url(#linearGradient8655);fill-opacity:1.0;stroke:none"
     id="rect184"
     width="27"
     height="27"
     x="2.5"
     y="2.5"
     ry="4.5" />
  <path
     id="path1282"
     style="opacity:0.2;fill:#000000;fill-opacity:1"
     d="m 14.001953,10 v 1.865234 c 4.440215,-0.04517 7.322266,3.945313 7.322266,3.945313 0,0 -3.402669,4.376953 -6.947266,4.376953 -0.32486,0 -0.08934,-0.03046 -0.375,-0.08398 v 1.167968 c 0.24427,0.03276 -0.04162,0.05078 0.222656,0.05078 3.298497,0 5.684343,-1.781527 7.994141,-3.890625 0.38296,0.324459 1.951138,1.113484 2.273438,1.458984 -2.196098,1.945098 -7.3152,3.513672 -10.216797,3.513672 -0.2797,0 -0.0094,-0.01798 -0.273438,-0.04492 V 24 H 26 V 10 Z m 0,12.359375 v -1.087891 c -4.036596,-0.537999 -5.958984,-5.24414 -5.958984,-5.24414 0,0 2.348588,-2.823235 5.958984,-3.115235 v -0.0039 c -0.06724,-0.0054 -0.274025,-0.01263 -0.185547,-0.01563 0.06262,-0.0021 0.123762,-2.15e-4 0.185547,0 V 11.888672 C 10.002957,12.228432 6,15.8125 6,15.8125 c 0,0 2.501459,5.997676 8.001953,6.546875 z m 0,-10.470703 c 0.03052,-0.0025 0.02344,-0.0056 0,-0.0078 z m 0,-0.0078 v -0.01563 c -0.06217,6.33e-4 -0.122769,-2.85e-4 -0.185547,0.002 -0.08735,0.0032 0.118815,0.0073 0.185547,0.01367 z m 0,1.011719 v 0.01563 c 0.02362,0.0019 0.0302,0.002 0,0.0039 v 1.265625 c 0.2139,-0.02409 -0.106546,-0.0411 0.121094,-0.04102 2.094198,0 3.335937,1.722656 3.335937,1.722656 L 16,17.378906 c -0.765199,-1.349438 -0.725248,-1.944722 -1.998047,-2.107422 v 3.833985 c 0.28846,0.10262 0.07025,0.164062 0.427735,0.164062 2.483897,0 4.800781,-3.404297 4.800781,-3.404297 0,0 -2.064451,-2.961637 -5.228516,-2.972656 z m 0,6.212891 c -1.719918,-0.6113 -2.818359,-2.734375 -2.818359,-2.734375 0,0 1.537654,-1.263663 2.814453,-1.101563 0.0014,0 0.0024,0.002 0.0039,0.002 v -1.09375 c -2.432797,0.2784 -4.4375,1.994141 -4.4375,1.994141 0,0 1.386703,3.356261 4.4375,3.931641 z" />
  <path
     id="path353"
     style="fill:#ffffff;fill-opacity:1"
     d="m 14.001953,9 v 1.865234 c 4.440215,-0.04517 7.322266,3.945313 7.322266,3.945313 0,0 -3.402669,4.376953 -6.947266,4.376953 -0.32486,0 -0.08934,-0.03046 -0.375,-0.08398 v 1.166015 c 0.24427,0.03276 -0.04162,0.05273 0.222656,0.05273 3.298497,0 5.684343,-1.781527 7.994141,-3.890625 0.38296,0.324459 1.951138,1.113484 2.273438,1.458984 -2.196098,1.945098 -7.3152,3.513672 -10.216797,3.513672 -0.2797,0 -0.0094,-0.01798 -0.273438,-0.04492 V 23 H 26 V 9 Z m 0,12.359375 V 20.269531 C 9.965357,19.731532 8.042969,15.027344 8.042969,15.027344 c 0,0 2.348588,-2.823235 5.958984,-3.115235 v -0.0059 c -0.06724,-0.0054 -0.274023,-0.01068 -0.185547,-0.01367 0.06262,-0.0021 0.123762,-2.15e-4 0.185547,0 V 10.888672 C 10.002957,11.228432 6,14.810547 6,14.810547 c 0,0 2.501459,5.999629 8.001953,6.548828 z m 0,-10.470703 c 0.03052,-0.0025 0.02344,-0.0056 0,-0.0078 z m 0,-0.0078 v -0.01563 c -0.06217,6.33e-4 -0.122769,-2.85e-4 -0.185547,0.002 -0.08735,0.0032 0.118815,0.0073 0.185547,0.01367 z m 0,1.011719 v 0.01367 c 0.02362,0.0019 0.03021,0.004 0,0.0059 v 1.265625 c 0.2139,-0.02409 -0.106546,-0.0411 0.121094,-0.04102 2.094198,0 3.335937,1.722656 3.335937,1.722656 L 16,16.378906 c -0.765199,-1.349438 -0.725248,-1.944722 -1.998047,-2.107422 v 3.833985 c 0.28846,0.10262 0.07025,0.164062 0.427735,0.164062 2.483897,0 4.800781,-3.404297 4.800781,-3.404297 0,0 -2.064451,-2.961637 -5.228516,-2.972656 z m 0,6.212891 c -1.719918,-0.6113 -2.818359,-2.734375 -2.818359,-2.734375 0,0 1.537654,-1.263663 2.814453,-1.101563 0.0014,0 0.0024,0.002 0.0039,0.002 v -1.09375 c -2.432797,0.2784 -4.4375,1.994141 -4.4375,1.994141 0,0 1.386703,3.356261 4.4375,3.931641 z" />
  <path
     id="rect2630"
     style="opacity:0.3;fill:#ffffff;fill-opacity:1"
     d="M 7,3 C 4.7840022,3 3,4.7840022 3,6.9999998 v 1 C 3,5.7840022 4.7840022,4 7,4 h 18 c 2.215998,0 4,1.7840022 4,3.9999998 v -1 C 29,4.7840022 27.215998,3 25,3 Z" />
  <path
     id="rect398"
     style="opacity:0.3;fill:#ffffff"
     d="m 3.0000002,24 v 1 c 0,2.215998 1.7840022,4 4,4 H 25 c 2.215998,0 4,-1.784002 4,-4 v -1 c 0,2.215998 -1.784002,4 -4,4 H 7.0000002 c -2.2159978,0 -4,-1.784002 -4,-4 z" />
  <path
     id="rect899"
     style="fill:#000000;stroke:none;opacity:0.5"
     d="M 7 2 C 4.2300028 2 2 4.2300028 2 7 L 2 25 C 2 27.769997 4.2300028 30 7 30 L 25 30 C 27.769997 30 30 27.769997 30 25 L 30 7 C 30 4.2300028 27.769997 2 25 2 L 7 2 z M 7 3 L 25 3 C 27.215998 3 29 4.7840022 29 7 L 29 25 C 29 27.215998 27.215998 29 25 29 L 7 29 C 4.7840022 29 3 27.215998 3 25 L 3 7 C 3 4.7840022 4.7840022 3 7 3 z " />
</svg>
