<?xml version="1.0" encoding="UTF-8" standalone="no"?>
<!-- Created with Inkscape (http://www.inkscape.org/) -->

<svg
   width="32"
   height="32"
   viewBox="0 0 32 32.000001"
   version="1.1"
   id="svg5"
   sodipodi:docname="gthumb.svg"
   inkscape:version="1.2.1 (9c6d41e410, 2022-07-14)"
   xmlns:inkscape="http://www.inkscape.org/namespaces/inkscape"
   xmlns:sodipodi="http://sodipodi.sourceforge.net/DTD/sodipodi-0.dtd"
   xmlns:xlink="http://www.w3.org/1999/xlink"
   xmlns="http://www.w3.org/2000/svg"
   xmlns:svg="http://www.w3.org/2000/svg">
  <sodipodi:namedview
     id="namedview7"
     pagecolor="#ffffff"
     bordercolor="#666666"
     borderopacity="1.0"
     inkscape:showpageshadow="2"
     inkscape:pageopacity="0.0"
     inkscape:pagecheckerboard="0"
     inkscape:deskcolor="#d1d1d1"
     inkscape:document-units="px"
     showgrid="false"
     inkscape:zoom="24.75"
     inkscape:cx="16"
     inkscape:cy="16"
     inkscape:window-width="1920"
     inkscape:window-height="1007"
     inkscape:window-x="0"
     inkscape:window-y="0"
     inkscape:window-maximized="1"
     inkscape:current-layer="svg5" />
  <defs
     id="defs2">
    <linearGradient
       inkscape:collect="always"
       xlink:href="#linearGradient1555"
       id="linearGradient16885"
       x1="16"
       y1="30"
       x2="16"
       y2="2"
       gradientUnits="userSpaceOnUse" />
    <linearGradient
       inkscape:collect="always"
       xlink:href="#linearGradient2287"
       id="linearGradient2289"
       x1="20"
       y1="18"
       x2="20"
       y2="5"
       gradientUnits="userSpaceOnUse"
       gradientTransform="matrix(1.3750001,0,0,1.2307693,-0.50000226,1.846154)" />
    <linearGradient
       inkscape:collect="always"
       id="linearGradient2287">
      <stop
         style="stop-color:#8e9529;stop-opacity:1;"
         offset="0"
         id="stop2283" />
      <stop
         style="stop-color:#bbc236;stop-opacity:1;"
         offset="1"
         id="stop2285" />
    </linearGradient>
    <linearGradient
       inkscape:collect="always"
       xlink:href="#linearGradient3796"
       id="linearGradient3798"
       x1="19"
       y1="18"
       x2="19"
       y2="5"
       gradientUnits="userSpaceOnUse"
       gradientTransform="matrix(1.2857143,0,0,1.2307694,0.5714269,1.8461533)" />
    <linearGradient
       inkscape:collect="always"
       id="linearGradient3796">
      <stop
         style="stop-color:#ff7010;stop-opacity:1;"
         offset="0"
         id="stop3792" />
      <stop
         style="stop-color:#ff9a10;stop-opacity:1;"
         offset="1"
         id="stop3794" />
    </linearGradient>
    <linearGradient
       inkscape:collect="always"
       id="linearGradient1555">
      <stop
         style="stop-color:#eac045;stop-opacity:1;"
         offset="0"
         id="stop1551" />
      <stop
         style="stop-color:#a2d2f9;stop-opacity:1;"
         offset="1"
         id="stop1553" />
    </linearGradient>
  </defs>
  <rect
     style="fill:url(#linearGradient16885);fill-opacity:1.0;stroke:none"
     id="rect184"
     width="27"
     height="27"
     x="2.5"
     y="2.5"
     ry="4.5" />
  <path
     d="M 11.824409,9.0007552 C 9.166343,9.0466302 6.8655722,11.181237 8.1913747,15.807771 5.8686348,16.211424 4.1031898,18.550043 5.4895968,23.207954 8.5793832,20.381715 9.273063,22.231262 11.725711,21.792754 12.339142,22.90967 13.681895,24.061022 16.012707,25 c 0.337685,-0.839305 1.762295,-2.101221 2.704466,-3.360242 2.690094,1.096885 3.985988,-0.652172 6.642318,2.812847 2.740458,-3.966719 1.692033,-6.550472 -0.546531,-7.561958 2.062328,-5.298486 -3.950023,-7.4251931 -8.308777,-5.503424 -1.122689,-1.5810577 -2.97109,-2.4159601 -4.679774,-2.3864678 z m -0.169198,5.5749058 c 0.690179,0.02027 1.323645,0.221217 2.139133,0.232627 3.015067,2.245907 4.622238,1.595863 6.352271,1.978272 -0.808582,0.269166 -1.587591,0.68181 -2.271401,1.249667 -0.628009,-0.217115 -1.455808,-0.391941 -2.527214,-0.512908 -0.841046,-0.09496 -1.605189,0.02456 -2.238501,0.296583 -1.144667,-1.413141 -2.82308,-2.136907 -4.3601787,-2.072955 1.2770267,-0.979619 2.1307867,-1.194037 2.9058907,-1.171286 z"
     style="opacity:0.2;fill:#000000;fill-rule:evenodd;stroke-width:1.30089"
     id="path833" />
  <path
     d="m 11.824409,8.0007552 c -2.658066,0.045875 -4.9588368,2.1804818 -3.6330343,6.8070158 -2.3227399,0.403653 -4.0881849,2.74227 -2.7017779,7.400183 3.0897864,-2.82624 3.7834662,-0.976692 6.2361142,-1.415202 0.613431,1.116917 1.956184,2.26827 4.286996,3.207248 0.337685,-0.839305 1.762295,-2.101224 2.704466,-3.360243 2.690094,1.096886 3.985988,-0.652173 6.642318,2.812846 2.740458,-3.966718 1.692033,-6.55047 -0.546531,-7.561954 2.062328,-5.298488 -3.950023,-7.4251951 -8.308777,-5.503426 -1.122689,-1.5810577 -2.97109,-2.4159595 -4.679774,-2.3864678 z m -0.169198,5.5749058 c 0.690179,0.02026 1.323645,0.221219 2.139133,0.232627 3.015067,2.245907 4.622238,1.595863 6.352271,1.978272 -0.808582,0.269168 -1.587591,0.68181 -2.271401,1.249667 -0.628009,-0.217118 -1.455808,-0.391941 -2.527214,-0.512908 -0.841046,-0.09497 -1.605189,0.02457 -2.238501,0.296583 -1.144667,-1.413141 -2.82308,-2.136907 -4.3601787,-2.072955 1.2770267,-0.979619 2.1307867,-1.194036 2.9058907,-1.171286 z"
     style="fill:url(#linearGradient2289);fill-opacity:1;fill-rule:evenodd;stroke-width:1.30089"
     id="path467"
     sodipodi:nodetypes="sccccccccssccccccs" />
  <path
     d="m 20.366986,24.942115 c -0.940563,0.617638 -3.35968,-3.891399 -5.05365,-4.775331 -1.847021,0.433497 -4.119404,4.091855 -5.048932,3.422725 -1.063038,-0.765241 0.242309,-5.483826 0.854434,-6.515592 0.788927,-1.329776 -4.5414802,-1.434969 -4.0918618,-2.560128 0.4435668,-1.110039 4.8192338,-2.135178 6.1970408,-2.32654 0.49967,-1.318885 1.793942,-3.3955599 3.564436,-3.170346 1.770499,0.225215 2.757757,2.772484 3.1255,4.078912 1.839867,0.311288 4.854389,1.546341 5.080275,2.740837 0.222849,1.178433 -6.087333,0.974197 -5.283336,2.341078 0.586956,0.997897 1.360458,6.106654 0.656094,6.764385 z"
     style="opacity:0.2;fill:#000000;fill-opacity:1;stroke-width:1.25795"
     id="path3808" />
  <path
     d="m 20.366986,23.942114 c -0.940563,0.61764 -3.35968,-3.891399 -5.05365,-4.77533 -1.847021,0.433496 -4.119403,4.091855 -5.048932,3.422724 -1.063039,-0.765241 0.242309,-5.483824 0.854433,-6.515589 0.788928,-1.329777 -4.5414793,-1.434972 -4.0918609,-2.560129 0.4435669,-1.11004 4.8192339,-2.135179 6.1970409,-2.326541 0.49967,-1.318885 1.793942,-3.3955599 3.564436,-3.1703462 1.770499,0.2252149 2.757757,2.7724832 3.1255,4.0789122 1.839867,0.311287 4.854389,1.546341 5.080275,2.740837 0.222849,1.178435 -6.087333,0.974197 -5.283336,2.341078 0.586956,0.997896 1.360458,6.106653 0.656094,6.764384 z"
     style="fill:url(#linearGradient3798);fill-opacity:1;stroke-width:1.25795"
     id="path866"
     sodipodi:nodetypes="scssccscssss" />
  <ellipse
     style="opacity:0.2;fill:#000000;fill-opacity:1;stroke-width:2.44948;stroke-linecap:round;stroke-linejoin:round"
     id="path3887"
     cx="16"
     cy="14.5"
     rx="3"
     ry="2.5" />
  <path
     id="path5727"
     style="color:#000000;fill:#ffffe0;stroke-width:1.51914;stroke-linecap:round"
     d="M 16.5 9 A 0.5 0.5 0 0 0 16 9.5 A 0.5 0.5 0 0 0 16.3125 9.9628906 L 16.162109 13.365234 C 16.158709 13.470129 16.242748 13.557322 16.347656 13.560547 C 16.452551 13.563947 16.539742 13.48185 16.542969 13.376953 L 16.691406 9.9609375 A 0.5 0.5 0 0 0 17 9.5 A 0.5 0.5 0 0 0 16.5 9 z M 13.5 11 A 0.5 0.5 0 0 0 13 11.5 A 0.5 0.5 0 0 0 13.449219 11.996094 L 15.113281 14.986328 C 15.165181 15.078798 15.281398 15.10998 15.373047 15.056641 C 15.465517 15.004751 15.49865 14.886572 15.445312 14.794922 L 13.818359 11.882812 A 0.5 0.5 0 0 0 14 11.5 A 0.5 0.5 0 0 0 13.5 11 z M 18.5 11 A 0.5 0.5 0 0 0 18 11.5 A 0.5 0.5 0 0 0 18.279297 11.947266 L 17.384766 14.810547 C 17.340556 14.905577 17.381483 15.018229 17.476562 15.0625 C 17.571592 15.10671 17.686197 15.065783 17.730469 14.970703 L 18.667969 11.970703 A 0.5 0.5 0 0 0 19 11.5 A 0.5 0.5 0 0 0 18.5 11 z " />
  <path
     id="rect2630"
     style="opacity:0.3;fill:#ffffff;fill-opacity:1"
     d="M 7,3 C 4.7840022,3 3,4.7840022 3,6.9999998 v 1 C 3,5.7840022 4.7840022,4 7,4 h 18 c 2.215998,0 4,1.7840022 4,3.9999998 v -1 C 29,4.7840022 27.215998,3 25,3 Z" />
  <path
     id="rect398"
     style="opacity:0.3;fill:#ffffff"
     d="m 3.0000002,24 v 1 c 0,2.215998 1.7840022,4 4,4 H 25 c 2.215998,0 4,-1.784002 4,-4 v -1 c 0,2.215998 -1.784002,4 -4,4 H 7.0000002 c -2.2159978,0 -4,-1.784002 -4,-4 z" />
  <path
     id="rect899"
     style="fill:#000000;stroke:none;opacity:0.5"
     d="M 7 2 C 4.2300028 2 2 4.2300028 2 7 L 2 25 C 2 27.769997 4.2300028 30 7 30 L 25 30 C 27.769997 30 30 27.769997 30 25 L 30 7 C 30 4.2300028 27.769997 2 25 2 L 7 2 z M 7 3 L 25 3 C 27.215998 3 29 4.7840022 29 7 L 29 25 C 29 27.215998 27.215998 29 25 29 L 7 29 C 4.7840022 29 3 27.215998 3 25 L 3 7 C 3 4.7840022 4.7840022 3 7 3 z " />
</svg>
