<?xml version="1.0" encoding="UTF-8" standalone="no"?>
<!-- Created with Inkscape (http://www.inkscape.org/) -->

<svg
   width="32"
   height="32"
   viewBox="0 0 32 32.000001"
   version="1.1"
   id="svg5"
   sodipodi:docname="indicator-weather.svg"
   inkscape:version="1.2.1 (9c6d41e410, 2022-07-14)"
   xmlns:inkscape="http://www.inkscape.org/namespaces/inkscape"
   xmlns:sodipodi="http://sodipodi.sourceforge.net/DTD/sodipodi-0.dtd"
   xmlns:xlink="http://www.w3.org/1999/xlink"
   xmlns="http://www.w3.org/2000/svg"
   xmlns:svg="http://www.w3.org/2000/svg">
  <sodipodi:namedview
     id="namedview7"
     pagecolor="#ffffff"
     bordercolor="#666666"
     borderopacity="1.0"
     inkscape:showpageshadow="2"
     inkscape:pageopacity="0.0"
     inkscape:pagecheckerboard="0"
     inkscape:deskcolor="#d1d1d1"
     inkscape:document-units="px"
     showgrid="false"
     inkscape:zoom="25.71875"
     inkscape:cx="15.980559"
     inkscape:cy="16"
     inkscape:window-width="1920"
     inkscape:window-height="1009"
     inkscape:window-x="0"
     inkscape:window-y="0"
     inkscape:window-maximized="1"
     inkscape:current-layer="svg5"
     showguides="true" />
  <defs
     id="defs2">
    <linearGradient
       inkscape:collect="always"
       xlink:href="#linearGradient21236"
       id="linearGradient8655"
       x1="25"
       y1="30"
       x2="7"
       y2="2"
       gradientUnits="userSpaceOnUse" />
    <linearGradient
       inkscape:collect="always"
       id="linearGradient21236">
      <stop
         style="stop-color:#3689e6;stop-opacity:1;"
         offset="0"
         id="stop21232" />
      <stop
         style="stop-color:#5dcffc;stop-opacity:1;"
         offset="1"
         id="stop21234" />
    </linearGradient>
    <linearGradient
       inkscape:collect="always"
       xlink:href="#linearGradient2879"
       id="linearGradient2881"
       x1="29"
       y1="29"
       x2="16"
       y2="3"
       gradientUnits="userSpaceOnUse"
       gradientTransform="matrix(0.53846153,0,0,0.53846153,4.3846131,6.3846155)" />
    <linearGradient
       inkscape:collect="always"
       id="linearGradient2879">
      <stop
         style="stop-color:#ff8e42;stop-opacity:1;"
         offset="0"
         id="stop2875" />
      <stop
         style="stop-color:#ffdc42;stop-opacity:1;"
         offset="1"
         id="stop2877" />
    </linearGradient>
    <linearGradient
       inkscape:collect="always"
       xlink:href="#linearGradient4367"
       id="linearGradient7467"
       x1="23"
       y1="23"
       x2="15"
       y2="12"
       gradientUnits="userSpaceOnUse"
       gradientTransform="translate(3.0000001,0.99999928)" />
    <linearGradient
       inkscape:collect="always"
       id="linearGradient4367">
      <stop
         style="stop-color:#d3d3d3;stop-opacity:1;"
         offset="0"
         id="stop4363" />
      <stop
         style="stop-color:#ebf3fb;stop-opacity:1;"
         offset="1"
         id="stop4365" />
    </linearGradient>
  </defs>
  <rect
     style="fill:url(#linearGradient8655);fill-opacity:1;stroke:none"
     id="rect184"
     width="27"
     height="27"
     x="2.5"
     y="2.5"
     ry="4.5" />
  <path
     d="m 13.000001,8.9999995 c -3.8659939,0 -7.0000009,3.1340065 -7.0000009,6.9999995 0.0022,2.709533 1.567874,5.174458 4.0195309,6.328126 C 10.182595,23.83398 11.449381,25 13.000001,25 h 10 c 1.661996,0 3,-1.338004 3,-3 0,-1.661998 -1.338004,-3.000001 -3,-3.000001 -0.0034,-2.063553 -1.274143,-3.91305 -3.199219,-4.65625 C 19.03705,11.207555 16.227848,9.0002105 13.000001,8.9999995 Z"
     style="opacity:0.2;fill:#000000;fill-opacity:1;stroke:none;stroke-width:1.07692;stroke-linecap:round;stroke-linejoin:round;stroke-dasharray:none;stroke-opacity:1"
     id="path5225" />
  <circle
     style="fill:url(#linearGradient2881);fill-opacity:1;stroke:none;stroke-width:1.07692;stroke-linecap:round;stroke-linejoin:round;stroke-dasharray:none;stroke-opacity:1"
     id="path2873"
     cx="13"
     cy="15"
     r="7" />
  <path
     id="path3280"
     style="fill:url(#linearGradient7467);fill-opacity:1;stroke-width:5;stroke-linecap:round;stroke-linejoin:round"
     d="m 18.000001,12.999999 a 5.0000001,5.0000001 0 0 0 -5,5 c -1.661999,0 -3.000001,1.338002 -3.000001,3 0,1.661998 1.338002,3 3.000001,3 h 10 c 1.661998,0 3,-1.338002 3,-3 0,-1.661998 -1.338002,-3 -3,-3 a 5.0000001,5.0000001 0 0 0 -5,-5 z" />
  <path
     id="rect2630"
     style="opacity:0.3;fill:#ffffff;fill-opacity:1"
     d="M 7,3 C 4.7840022,3 3,4.7840022 3,6.9999998 v 1 C 3,5.7840022 4.7840022,4 7,4 h 18 c 2.215998,0 4,1.7840022 4,3.9999998 v -1 C 29,4.7840022 27.215998,3 25,3 Z" />
  <path
     id="rect398"
     style="opacity:0.3;fill:#ffffff"
     d="m 3.0000002,24 v 1 c 0,2.215998 1.7840022,4 4,4 H 25 c 2.215998,0 4,-1.784002 4,-4 v -1 c 0,2.215998 -1.784002,4 -4,4 H 7.0000002 c -2.2159978,0 -4,-1.784002 -4,-4 z" />
  <path
     id="rect899"
     style="fill:#000000;stroke:none;opacity:0.5"
     d="M 7 2 C 4.2300028 2 2 4.2300028 2 7 L 2 25 C 2 27.769997 4.2300028 30 7 30 L 25 30 C 27.769997 30 30 27.769997 30 25 L 30 7 C 30 4.2300028 27.769997 2 25 2 L 7 2 z M 7 3 L 25 3 C 27.215998 3 29 4.7840022 29 7 L 29 25 C 29 27.215998 27.215998 29 25 29 L 7 29 C 4.7840022 29 3 27.215998 3 25 L 3 7 C 3 4.7840022 4.7840022 3 7 3 z " />
</svg>
