<?xml version="1.0" encoding="UTF-8" standalone="no"?>
<!-- Created with Inkscape (http://www.inkscape.org/) -->

<svg
   width="32"
   height="32"
   viewBox="0 0 32 32.000001"
   version="1.1"
   id="svg5"
   sodipodi:docname="java.svg"
   inkscape:version="1.2.1 (9c6d41e410, 2022-07-14)"
   xmlns:inkscape="http://www.inkscape.org/namespaces/inkscape"
   xmlns:sodipodi="http://sodipodi.sourceforge.net/DTD/sodipodi-0.dtd"
   xmlns:xlink="http://www.w3.org/1999/xlink"
   xmlns="http://www.w3.org/2000/svg"
   xmlns:svg="http://www.w3.org/2000/svg">
  <sodipodi:namedview
     id="namedview7"
     pagecolor="#ffffff"
     bordercolor="#666666"
     borderopacity="1.0"
     inkscape:showpageshadow="2"
     inkscape:pageopacity="0.0"
     inkscape:pagecheckerboard="0"
     inkscape:deskcolor="#d1d1d1"
     inkscape:document-units="px"
     showgrid="false"
     inkscape:zoom="24.6875"
     inkscape:cx="16.141772"
     inkscape:cy="16.020253"
     inkscape:window-width="1920"
     inkscape:window-height="1007"
     inkscape:window-x="0"
     inkscape:window-y="0"
     inkscape:window-maximized="1"
     inkscape:current-layer="svg5" />
  <defs
     id="defs2">
    <linearGradient
       inkscape:collect="always"
       xlink:href="#linearGradient22024"
       id="linearGradient8655"
       x1="25"
       y1="30"
       x2="7"
       y2="2"
       gradientUnits="userSpaceOnUse" />
    <linearGradient
       inkscape:collect="always"
       id="linearGradient22024">
      <stop
         style="stop-color:#dedede;stop-opacity:1;"
         offset="0"
         id="stop22020" />
      <stop
         style="stop-color:#f5f5f5;stop-opacity:1;"
         offset="1"
         id="stop22022" />
    </linearGradient>
  </defs>
  <rect
     style="fill:url(#linearGradient8655);fill-opacity:1;stroke:none"
     id="rect184"
     width="27"
     height="27"
     x="2.5"
     y="2.5"
     ry="4.5" />
  <path
     id="path3787"
     style="opacity:0.2;fill:#000000;stroke-width:0.333648"
     d="m 17.900433,7 c 0.795389,3.302059 -2.80567,4.299083 -4.105436,6.355417 -0.885103,1.400902 0.433334,2.90706 2.232404,4.61715 -0.701555,-1.670944 -3.07985,-3.132547 0.002,-5.697219 C 19.872321,9.079457 17.900433,7 17.900433,7 Z m 2.376933,4.083951 c 4.2e-5,0 -6.498053,1.710473 -3.394504,5.478471 0.916145,1.111133 -0.240232,2.111312 -0.240232,2.111312 0,0 2.325289,-1.265597 1.257803,-2.849587 -0.997375,-1.476487 -1.762703,-2.210593 2.376933,-4.740196 z m 1.150381,6.732367 c -0.228321,4.49e-4 -0.470025,0.04268 -0.718744,0.134765 -0.199413,0.07437 -0.304685,0.246092 -0.304685,0.246092 0,0 0.127116,-0.05343 0.4082,-0.115234 1.149464,-0.252405 2.795921,1.620837 -0.765619,3.570284 -0.0165,0.04645 -0.07231,0.09961 -0.07227,0.09961 4.235603,-1.173071 3.312305,-3.939173 1.453113,-3.935516 z m -7.804624,0.189452 c -0.45407,0.01252 -1.516549,0.116402 -2.75193,0.746087 -1.9486592,0.992704 4.818191,1.445598 8.322197,0.474606 0.364248,-0.261925 0.867181,-0.488277 0.867181,-0.488277 0,0 -1.433374,0.268261 -2.861305,0.394527 -1.747648,0.154494 -3.621387,0.185418 -4.562463,0.05273 -2.228133,-0.313845 1.220694,-1.177725 1.220694,-1.177725 0,0 -0.08302,-0.0061 -0.234374,-0.002 z m -0.568354,2.271466 c -3.2140652,1.124027 1.788724,2.400114 6.281199,1.015617 -0.477319,-0.177277 -0.77929,-0.501949 -0.77929,-0.501949 -2.196409,0.445387 -3.465194,0.430658 -5.072225,0.255857 -1.242428,-0.135279 -0.429684,-0.769525 -0.429684,-0.769525 z m 0.455074,2.189436 c -2.918597,0.859235 1.773928,2.634543 5.49019,0.957023 -0.60865,-0.249217 -1.044914,-0.537105 -1.044914,-0.537105 -1.657186,0.330047 -2.425403,0.356731 -3.929655,0.17578 -1.241485,-0.150005 -0.515621,-0.595698 -0.515621,-0.595698 z m -2.027327,1.45116 c -1.310683,0.0426 -3.8754072,1.284709 -1.5312382,1.685533 7.5761972,1.293912 13.8108412,-0.583391 11.8456072,-1.517566 0,0 0.537945,0.467628 -0.589839,0.828118 -2.144498,0.684372 -8.92844,0.89078 -10.812412,0.02734 -0.6767482,-0.310579 0.592697,-0.741097 0.99218,-0.832024 0.416547,-0.09495 0.654291,-0.07813 0.654291,-0.07813 -0.117688,-0.08732 -0.31587,-0.12117 -0.558589,-0.11328 z M 23,25.105322 c 0,0 -0.238086,0.645608 -2.824196,1.158194 -2.917557,0.578717 -6.51834,0.511862 -8.652273,0.140624 0,0 0.437237,0.380899 2.683572,0.533199 3.41787,0.230237 8.668729,-0.127856 8.792897,-1.832017 z"
     sodipodi:nodetypes="ccccccccccccccccccccccccccccccccccccccccccccccccccc" />
  <path
     d="m 21.427747,16.816318 c -0.228321,4.49e-4 -0.470025,0.04268 -0.718744,0.134765 -0.199413,0.07437 -0.304685,0.246092 -0.304685,0.246092 0,0 0.127116,-0.05343 0.4082,-0.115234 1.149464,-0.252405 2.795921,1.620837 -0.765619,3.570284 -0.0165,0.04645 -0.07231,0.09961 -0.07227,0.09961 4.235603,-1.173071 3.312305,-3.939173 1.453113,-3.935516 z m -7.804624,0.189452 c -0.45407,0.01252 -1.516549,0.116402 -2.75193,0.746087 -1.9486592,0.992704 4.818191,1.445598 8.322197,0.474606 0.364248,-0.261925 0.867181,-0.488277 0.867181,-0.488277 0,0 -1.433374,0.268261 -2.861305,0.394527 -1.747648,0.154494 -3.621387,0.185418 -4.562463,0.05273 -2.228133,-0.313845 1.220694,-1.177725 1.220694,-1.177725 0,0 -0.08302,-0.0061 -0.234374,-0.002 z m -0.568354,2.271466 c -3.2140652,1.124027 1.788724,2.400114 6.281199,1.015617 -0.477319,-0.177277 -0.77929,-0.501949 -0.77929,-0.501949 -2.196409,0.445387 -3.465194,0.430658 -5.072225,0.255857 -1.242428,-0.135279 -0.429684,-0.769525 -0.429684,-0.769525 z m 0.455074,2.189436 c -2.918597,0.859235 1.773928,2.634543 5.49019,0.957023 -0.60865,-0.249217 -1.044914,-0.537105 -1.044914,-0.537105 -1.657186,0.330047 -2.425403,0.356731 -3.929655,0.17578 -1.241485,-0.150005 -0.515621,-0.595698 -0.515621,-0.595698 z m -2.027327,1.45116 c -1.310683,0.0426 -3.8754072,1.284709 -1.5312382,1.685533 7.5761972,1.293912 13.8108412,-0.583391 11.8456072,-1.517566 0,0 0.537945,0.467628 -0.589839,0.828118 -2.144498,0.684372 -8.92844,0.89078 -10.812412,0.02734 -0.6767482,-0.310579 0.592697,-0.741097 0.99218,-0.832024 0.416547,-0.09495 0.654291,-0.07813 0.654291,-0.07813 -0.117688,-0.08732 -0.31587,-0.12117 -0.558589,-0.11328 z M 23,24.105322 c 0,0 -0.238086,0.645608 -2.824196,1.158194 -2.917557,0.578717 -6.51834,0.511862 -8.652273,0.140624 0,0 0.437237,0.380899 2.683572,0.533199 3.41787,0.230237 8.668729,-0.127856 8.792897,-1.832017 z"
     style="fill:#5a87b6;fill-opacity:1;stroke-width:0.333648"
     id="path4299" />
  <path
     d="m 17.900433,6 c 0.795389,3.302059 -2.80567,4.299083 -4.105436,6.355417 -0.885103,1.400902 0.433334,2.90706 2.232404,4.617151 -0.701555,-1.670945 -3.07985,-3.132547 0.002,-5.69722 C 19.872321,8.079457 17.900433,6 17.900433,6 Z m 2.376933,4.083951 c 4.2e-5,0 -6.498053,1.710474 -3.394504,5.478471 0.916145,1.111133 -0.240232,2.111313 -0.240232,2.111313 0,0 2.325289,-1.265598 1.257803,-2.849588 -0.997375,-1.476487 -1.762703,-2.210593 2.376933,-4.740196 z"
     style="fill:#ff9955;stroke-width:0.333648"
     id="path4332" />
  <path
     id="rect2630"
     style="opacity:0.3;fill:#ffffff;fill-opacity:1"
     d="M 7,3 C 4.7840022,3 3,4.7840022 3,6.9999998 v 1 C 3,5.7840022 4.7840022,4 7,4 h 18 c 2.215998,0 4,1.7840022 4,3.9999998 v -1 C 29,4.7840022 27.215998,3 25,3 Z" />
  <path
     id="rect398"
     style="opacity:0.3;fill:#ffffff"
     d="m 3.0000002,24 v 1 c 0,2.215998 1.7840022,4 4,4 H 25 c 2.215998,0 4,-1.784002 4,-4 v -1 c 0,2.215998 -1.784002,4 -4,4 H 7.0000002 c -2.2159978,0 -4,-1.784002 -4,-4 z" />
  <path
     id="rect899"
     style="fill:#000000;stroke:none;opacity:0.5"
     d="M 7 2 C 4.2300028 2 2 4.2300028 2 7 L 2 25 C 2 27.769997 4.2300028 30 7 30 L 25 30 C 27.769997 30 30 27.769997 30 25 L 30 7 C 30 4.2300028 27.769997 2 25 2 L 7 2 z M 7 3 L 25 3 C 27.215998 3 29 4.7840022 29 7 L 29 25 C 29 27.215998 27.215998 29 25 29 L 7 29 C 4.7840022 29 3 27.215998 3 25 L 3 7 C 3 4.7840022 4.7840022 3 7 3 z " />
</svg>
