<?xml version="1.0" encoding="UTF-8" standalone="no"?>
<!-- Created with Inkscape (http://www.inkscape.org/) -->

<svg
   width="32"
   height="32"
   viewBox="0 0 32 32.000001"
   version="1.1"
   id="svg5"
   sodipodi:docname="kate.svg"
   inkscape:version="1.2.1 (9c6d41e410, 2022-07-14)"
   xmlns:inkscape="http://www.inkscape.org/namespaces/inkscape"
   xmlns:sodipodi="http://sodipodi.sourceforge.net/DTD/sodipodi-0.dtd"
   xmlns:xlink="http://www.w3.org/1999/xlink"
   xmlns="http://www.w3.org/2000/svg"
   xmlns:svg="http://www.w3.org/2000/svg">
  <sodipodi:namedview
     id="namedview7"
     pagecolor="#ffffff"
     bordercolor="#666666"
     borderopacity="1.0"
     inkscape:showpageshadow="2"
     inkscape:pageopacity="0.0"
     inkscape:pagecheckerboard="0"
     inkscape:deskcolor="#d1d1d1"
     inkscape:document-units="px"
     showgrid="false"
     inkscape:zoom="24.6875"
     inkscape:cx="15.979747"
     inkscape:cy="16"
     inkscape:window-width="1920"
     inkscape:window-height="1002"
     inkscape:window-x="0"
     inkscape:window-y="0"
     inkscape:window-maximized="1"
     inkscape:current-layer="svg5" />
  <defs
     id="defs2">
    <linearGradient
       inkscape:collect="always"
       xlink:href="#linearGradient1493"
       id="linearGradient8655"
       x1="25"
       y1="30"
       x2="7"
       y2="2"
       gradientUnits="userSpaceOnUse" />
    <linearGradient
       inkscape:collect="always"
       id="linearGradient1493">
      <stop
         style="stop-color:#197cf1;stop-opacity:1;"
         offset="0"
         id="stop1489" />
      <stop
         style="stop-color:#20bcfa;stop-opacity:1;"
         offset="1"
         id="stop1491" />
    </linearGradient>
  </defs>
  <rect
     style="fill:url(#linearGradient8655);fill-opacity:1;stroke:none"
     id="rect184"
     width="27"
     height="27"
     x="2.5"
     y="2.5"
     ry="4.5" />
  <path
     d="m 15.175782,7.0000024 c -1.524571,-0.00119 -3.28019,0.436276 -4.980469,1.6679689 C 8.533938,9.871487 7.8058852,10.197618 7,10.597658 c 0.7064542,0.0539 4.880236,-0.536832 5.738281,1.847657 -3.077937,1.015525 -4.2762336,2.673152 -3.867187,4.597656 0.0624,0.332274 0.172844,0.679745 0.34375,1.039063 0.180944,0.380419 0.38772,0.706433 0.613281,0.996094 0.0065,0.0092 0.01294,0.0182 0.01954,0.02734 1.409895,1.7853 3.628201,2.063158 6.027344,3.66797 2.183564,1.460604 2.907442,2.201966 4.316406,4.226562 -0.293004,-2.797354 -1.835917,-6.399786 -2.468759,-7.988278 l -0.0039,-0.0118 c 1.979921,1.454432 4.327744,2.087368 7.093744,2.285238 -4.419829,-3.146224 -5.259197,-3.890445 -7.789062,-6.046876 -1.697266,0.08552 -1.510846,0.07153 -2.511719,0.128906 0.118473,0.197492 0.240888,0.384901 0.363281,0.570312 1.027764,1.803863 1.238278,4.067698 -0.933594,4.519532 -2.254983,0.46912 -4.715827,-1.477723 -4.097656,-3.5625 0.671263,-2.263812 3.85483,-1.829956 6.894532,-2.222657 3.039697,-0.392698 5.817768,-3.371587 7.48828,-5.578125 -2.4051,0.820612 -5.473075,1.575407 -8.890624,2.566406 C 14.670174,10.298163 14.010298,7.94352 18.484376,7.7734398 17.688966,7.3418494 16.52099,7.0010562 15.175782,7.0000024 Z"
     style="opacity:0.2;fill:#000000;fill-opacity:1;stroke-width:0.714286"
     id="path8081" />
  <path
     style="fill:#cccccc;fill-opacity:1;stroke-width:0.714286"
     d="M 12.77365,11.564376 C 12.013536,9.040914 7.718012,9.653247 7,9.598462 7.805886,9.198422 8.529596,9.346374 10.190972,8.1428576 13.3915,5.8243742 15.636956,5.7935582 17.33383,6.7142858 c -4.63901,0.176348 -2.607606,2.7624262 -1.924322,4.0940952 -0.868936,0.2524 -2.240616,0.633413 -2.635858,0.755995 z"
     id="path10" />
  <path
     style="fill:#f2f2f2;stroke-width:0.714286"
     d="m 24.224646,8.0919792 c -1.670514,2.2065398 -4.447912,5.1877278 -7.487614,5.5804268 -3.039704,0.392702 -6.223236,-0.04232 -6.8945,2.22149 -0.618172,2.08478 1.841672,4.031234 4.096658,3.562114 2.40903,-0.501172 1.888764,-3.231632 0.571116,-5.091008 1.000876,-0.05737 0.411968,0.291984 2.109236,0.206423 l 1.102436,3.437487 C 18.35482,19.597406 19.897978,23.20264 20.190972,26 18.782006,23.975402 18.05732,23.231366 15.873754,21.77076 13.076748,19.899816 10.525824,19.836476 9.214732,17.080006 7.90647,14.32949 9.923798,12.348186 13.022478,11.490144 17.450716,10.263936 21.266232,9.10138 24.224646,8.0919792 Z"
     id="path12" />
  <path
     style="fill:#cccccc;fill-opacity:1;stroke-width:0.714286"
     d="m 14.51031,14.365002 c 1.000874,-0.05737 0.814692,-0.04256 2.51196,-0.12808 2.529868,2.156434 3.368416,2.902568 7.788248,6.048794 -4.442524,-0.317802 -7.803858,-1.75934 -10.300208,-5.920714 z"
     id="path14" />
  <path
     style="fill:#e6e6e6;fill-opacity:1;stroke-width:0.714286"
     d="M 7,9.598462 C 7.805886,9.198422 8.534176,8.8686733 10.195552,7.6651564 13.396082,5.3466738 16.784592,5.8523028 18.481466,6.77303 13.842456,6.94938 14.44018,7.8736948 14.423062,8.5983023 11.340892,7.948621 10.440962,8.8325733 7,9.598462 Z"
     id="path16" />
  <path
     style="fill:#f2f2f2;stroke-width:0.714286"
     d="m 18.481466,6.77303 c -4.63901,0.17635 -3.755242,2.703682 -3.071958,4.035351 -0.541346,0.157244 -0.771296,0.336378 -1.494964,0.527903 -2.919928,-5.2028164 2.183744,-5.8796708 4.566922,-4.563254 z"
     id="path18" />
  <path
     style="fill:#e6e6e6;fill-opacity:1;stroke-width:0.714286"
     d="M 10.05007,18.376144 C 7.779994,15.45314 8.484806,12.773952 12.929946,11.381935 17.316564,10.008243 21.266232,9.10138 24.224646,8.0919792 16.240984,11.133926 5.95821,13.166544 10.05007,18.376144 Z"
     id="path20" />
  <path
     id="rect2630"
     style="opacity:0.3;fill:#ffffff;fill-opacity:1"
     d="M 7,3 C 4.7840022,3 3,4.7840022 3,6.9999998 v 1 C 3,5.7840022 4.7840022,4 7,4 h 18 c 2.215998,0 4,1.7840022 4,3.9999998 v -1 C 29,4.7840022 27.215998,3 25,3 Z" />
  <path
     id="rect398"
     style="opacity:0.3;fill:#ffffff"
     d="m 3.0000002,24 v 1 c 0,2.215998 1.7840022,4 4,4 H 25 c 2.215998,0 4,-1.784002 4,-4 v -1 c 0,2.215998 -1.784002,4 -4,4 H 7.0000002 c -2.2159978,0 -4,-1.784002 -4,-4 z" />
  <path
     id="rect899"
     style="fill:#000000;stroke:none;opacity:0.5"
     d="M 7 2 C 4.2300028 2 2 4.2300028 2 7 L 2 25 C 2 27.769997 4.2300028 30 7 30 L 25 30 C 27.769997 30 30 27.769997 30 25 L 30 7 C 30 4.2300028 27.769997 2 25 2 L 7 2 z M 7 3 L 25 3 C 27.215998 3 29 4.7840022 29 7 L 29 25 C 29 27.215998 27.215998 29 25 29 L 7 29 C 4.7840022 29 3 27.215998 3 25 L 3 7 C 3 4.7840022 4.7840022 3 7 3 z " />
</svg>
