<?xml version="1.0" encoding="UTF-8" standalone="no"?>
<!-- Created with Inkscape (http://www.inkscape.org/) -->

<svg
   width="32"
   height="32"
   viewBox="0 0 32 32.000001"
   version="1.1"
   id="svg5"
   sodipodi:docname="kdeconnect.svg"
   inkscape:version="1.2.1 (9c6d41e410, 2022-07-14)"
   xmlns:inkscape="http://www.inkscape.org/namespaces/inkscape"
   xmlns:sodipodi="http://sodipodi.sourceforge.net/DTD/sodipodi-0.dtd"
   xmlns:xlink="http://www.w3.org/1999/xlink"
   xmlns="http://www.w3.org/2000/svg"
   xmlns:svg="http://www.w3.org/2000/svg">
  <sodipodi:namedview
     id="namedview7"
     pagecolor="#ffffff"
     bordercolor="#666666"
     borderopacity="1.0"
     inkscape:showpageshadow="2"
     inkscape:pageopacity="0.0"
     inkscape:pagecheckerboard="0"
     inkscape:deskcolor="#d1d1d1"
     inkscape:document-units="px"
     showgrid="false"
     inkscape:zoom="1"
     inkscape:cx="16.5"
     inkscape:cy="16"
     inkscape:window-width="1920"
     inkscape:window-height="1002"
     inkscape:window-x="0"
     inkscape:window-y="0"
     inkscape:window-maximized="1"
     inkscape:current-layer="svg5"
     showguides="false" />
  <defs
     id="defs2">
    <linearGradient
       inkscape:collect="always"
       xlink:href="#linearGradient1348"
       id="linearGradient8655"
       x1="25"
       y1="30"
       x2="7"
       y2="2"
       gradientUnits="userSpaceOnUse" />
    <linearGradient
       inkscape:collect="always"
       id="linearGradient1348">
      <stop
         style="stop-color:#2da4e8;stop-opacity:1;"
         offset="0"
         id="stop1344" />
      <stop
         style="stop-color:#67c0f0;stop-opacity:1;"
         offset="1"
         id="stop1346" />
    </linearGradient>
  </defs>
  <rect
     style="fill:url(#linearGradient8655);fill-opacity:1.0;stroke:none"
     id="rect184"
     width="27"
     height="27"
     x="2.5"
     y="2.5"
     ry="4.5" />
  <rect
     style="opacity:0.2;fill:#000000;stroke-linejoin:round"
     id="rect649"
     width="14"
     height="22"
     x="9"
     y="6"
     ry="1" />
  <rect
     style="fill:#ffffff;stroke-linejoin:round"
     id="rect634"
     width="14"
     height="22"
     x="9"
     y="5"
     ry="1" />
  <path
     d="m 13.241212,10 c -0.415501,0 -0.75,0.3345 -0.75,0.75 0,0.415501 0.334499,0.75 0.75,0.75 0.415499,0 0.75,-0.334499 0.75,-0.75 0,-0.415498 -0.3345,-0.75 -0.75,-0.75 z M 17.85254,10.500001 16.190431,12.099609 18.68457,14.5 16.19043,16.900391 17.852539,18.5 20.34668,16.099609 22.008789,14.5 20.34668,12.900391 Z M 10.991212,14.5 c -0.553996,0 -1.0000015,0.445996 -1.0000015,1 0,0.553996 0.4460055,1 1.0000015,1 0.554004,0 1,-0.446004 1,-1 0,-0.554004 -0.445996,-1 -1,-1 z m 3.5,4 c -0.830999,0 -1.500001,0.668999 -1.500001,1.5 0,0.830999 0.669002,1.5 1.500001,1.5 0.831,0 1.5,-0.669001 1.5,-1.5 0,-0.831001 -0.669,-1.5 -1.5,-1.5 z"
     style="opacity:0.8;fill:#4ab2ec;fill-opacity:1;stroke-width:0.999999"
     id="path488" />
  <path
     id="rect2630"
     style="opacity:0.3;fill:#ffffff;fill-opacity:1"
     d="M 7,3 C 4.7840022,3 3,4.7840022 3,6.9999998 v 1 C 3,5.7840022 4.7840022,4 7,4 h 18 c 2.215998,0 4,1.7840022 4,3.9999998 v -1 C 29,4.7840022 27.215998,3 25,3 Z" />
  <path
     id="rect398"
     style="opacity:0.3;fill:#ffffff"
     d="m 3.0000002,24 v 1 c 0,2.215998 1.7840022,4 4,4 H 25 c 2.215998,0 4,-1.784002 4,-4 v -1 c 0,2.215998 -1.784002,4 -4,4 H 7.0000002 c -2.2159978,0 -4,-1.784002 -4,-4 z" />
  <path
     id="rect899"
     style="fill:#000000;stroke:none;opacity:0.5"
     d="M 7 2 C 4.2300028 2 2 4.2300028 2 7 L 2 25 C 2 27.769997 4.2300028 30 7 30 L 25 30 C 27.769997 30 30 27.769997 30 25 L 30 7 C 30 4.2300028 27.769997 2 25 2 L 7 2 z M 7 3 L 25 3 C 27.215998 3 29 4.7840022 29 7 L 29 25 C 29 27.215998 27.215998 29 25 29 L 7 29 C 4.7840022 29 3 27.215998 3 25 L 3 7 C 3 4.7840022 4.7840022 3 7 3 z " />
</svg>
