<?xml version="1.0" encoding="UTF-8" standalone="no"?>
<!-- Created with Inkscape (http://www.inkscape.org/) -->

<svg
   width="32"
   height="32"
   viewBox="0 0 32 32.000001"
   version="1.1"
   id="svg5"
   sodipodi:docname="ksudoku.svg"
   inkscape:version="1.2.1 (9c6d41e410, 2022-07-14)"
   xmlns:inkscape="http://www.inkscape.org/namespaces/inkscape"
   xmlns:sodipodi="http://sodipodi.sourceforge.net/DTD/sodipodi-0.dtd"
   xmlns:xlink="http://www.w3.org/1999/xlink"
   xmlns="http://www.w3.org/2000/svg"
   xmlns:svg="http://www.w3.org/2000/svg">
  <sodipodi:namedview
     id="namedview7"
     pagecolor="#ffffff"
     bordercolor="#666666"
     borderopacity="1.0"
     inkscape:showpageshadow="2"
     inkscape:pageopacity="0.0"
     inkscape:pagecheckerboard="0"
     inkscape:deskcolor="#d1d1d1"
     inkscape:document-units="px"
     showgrid="false"
     inkscape:zoom="29.321426"
     inkscape:cx="16.012181"
     inkscape:cy="16.012181"
     inkscape:window-width="1920"
     inkscape:window-height="1007"
     inkscape:window-x="0"
     inkscape:window-y="0"
     inkscape:window-maximized="1"
     inkscape:current-layer="svg5" />
  <defs
     id="defs2">
    <linearGradient
       inkscape:collect="always"
       xlink:href="#linearGradient22024"
       id="linearGradient8655"
       x1="16"
       y1="30"
       x2="16"
       y2="2"
       gradientUnits="userSpaceOnUse" />
    <linearGradient
       inkscape:collect="always"
       id="linearGradient22024">
      <stop
         style="stop-color:#dedede;stop-opacity:1;"
         offset="0"
         id="stop22020" />
      <stop
         style="stop-color:#f5f5f5;stop-opacity:1;"
         offset="1"
         id="stop22022" />
    </linearGradient>
  </defs>
  <rect
     style="fill:url(#linearGradient8655);fill-opacity:1;stroke:none"
     id="rect184"
     width="27"
     height="27"
     x="2.5"
     y="2.5"
     ry="4.5" />
  <path
     id="rect12263"
     style="fill:#ffffff;stroke-linecap:round;stroke-linejoin:round;opacity:0.25"
     d="M 2 12 L 2 13 L 30 13 L 30 12 L 2 12 z M 2 21 L 2 22 L 30 22 L 30 21 L 2 21 z " />
  <path
     d="m 11,1.999998 v 9.000004 H 2 v 1 h 9 V 20 H 2 v 1 h 9 v 9 h 1 v -9 h 8 v 9 h 1 v -9 h 9 v -1 h -9 v -7.999998 h 9 v -1 H 21 V 1.999998 h -1 v 9.000004 H 12 V 1.999998 Z m 1,10.000004 h 8 V 20 h -8 z"
     style="color:#000000;display:inline;overflow:visible;visibility:visible;opacity:0.2;fill:#000000;fill-opacity:1;fill-rule:nonzero;stroke:none;stroke-width:4.024;marker:none;enable-background:new"
     id="path10775"
     sodipodi:nodetypes="cccccccccccccccccccccccccccccccccc" />
  <rect
     style="fill:#a348b1;fill-opacity:1;stroke-width:0.454546;stroke-linecap:round;stroke-linejoin:round"
     id="rect945"
     width="10"
     height="10"
     x="11"
     y="11.000002" />
  <path
     id="path8490"
     style="font-size:12px;line-height:1.25;opacity:0.2;fill:#000000;stroke-width:0.499523"
     d="m 6.858903,14 c -0.319692,0 -0.59718,0.05963 -0.831239,0.179516 -0.2340593,0.119885 -0.4283156,0.274061 -0.5824527,0.46245 -0.1484318,0.188388 -0.259448,0.39703 -0.3336662,0.62538 -0.074203,0.22835 -0.1112221,0.448301 -0.1112221,0.659528 0,0.239768 0.031821,0.471034 0.094636,0.693674 0.068504,0.216936 0.1764537,0.411187 0.3248856,0.582453 0.1484266,0.16555 0.3396133,0.299205 0.5736717,0.401961 0.2340597,0.09707 0.5197907,0.145368 0.8566057,0.145368 0.199807,0 0.394064,-0.01955 0.582453,-0.05951 0.188387,-0.04567 0.356945,-0.102231 0.505377,-0.170736 -0.06851,0.348234 -0.177435,0.642203 -0.325861,0.881972 -0.142722,0.239769 -0.322594,0.436121 -0.539525,0.590257 -0.216936,0.148432 -0.470819,0.257357 -0.761969,0.325862 -0.285435,0.06849 -0.6081742,0.102441 -0.9678273,0.102441 l 0.025366,0.668308 C 6.521309,20.083224 7.389799,19.780032 7.972098,19.18061 8.560102,18.575479 8.85407,17.685341 8.85407,16.509329 8.85407,16.121133 8.81092,15.7727 8.725286,15.464427 8.639656,15.15044 8.511176,14.885247 8.339912,14.668311 8.174357,14.451373 7.96572,14.285891 7.714532,14.171711 7.469053,14.057536 7.184304,14 6.858903,14 Z m 8.873707,0.05464 c -0.165557,0 -0.324898,0.01744 -0.479035,0.05171 -0.148429,0.02854 -0.288218,0.06557 -0.419522,0.111222 -0.1313,0.04567 -0.251537,0.09706 -0.360009,0.15415 -0.102757,0.05138 -0.188086,0.09971 -0.256591,0.145369 l 0.3083,0.607819 c 0.131304,-0.08563 0.290645,-0.167887 0.479035,-0.247811 0.1941,-0.07992 0.428432,-0.120002 0.702456,-0.120002 0.137014,0 0.265489,0.01647 0.385374,0.05073 0.125596,0.02854 0.234519,0.07994 0.325862,0.15415 0.09705,0.07421 0.174134,0.168757 0.231225,0.282934 0.05706,0.114176 0.08488,0.250893 0.08488,0.410741 0,0.194104 -0.04008,0.357487 -0.120003,0.488792 -0.07992,0.125595 -0.182705,0.225305 -0.3083,0.299519 -0.12559,0.07421 -0.265379,0.125627 -0.419522,0.15415 -0.148428,0.02852 -0.293389,0.04293 -0.436108,0.04293 h -0.282933 v 0.650746 h 0.205858 c 0.205519,0 0.404939,0.01955 0.599039,0.05951 0.199809,0.03425 0.374505,0.09696 0.522939,0.188297 0.148428,0.08563 0.267689,0.2028 0.359032,0.351227 0.09135,0.148429 0.137564,0.331373 0.137564,0.548306 0,0.336824 -0.111994,0.605087 -0.334641,0.804897 -0.216933,0.199809 -0.57877,0.299519 -1.086855,0.299519 -0.325405,0 -0.602887,-0.037 -0.831239,-0.111222 -0.222642,-0.07421 -0.381983,-0.13386 -0.479035,-0.179517 l -0.15415,0.693675 c 0.04567,0.02283 0.119687,0.05061 0.222444,0.08488 0.102762,0.03426 0.222999,0.06915 0.360008,0.103417 0.137014,0.03425 0.28197,0.06205 0.436108,0.08488 0.159848,0.02283 0.314022,0.03512 0.46245,0.03512 0.382495,0 0.71346,-0.04622 0.993194,-0.137565 0.279732,-0.09134 0.510989,-0.216746 0.693674,-0.376594 0.18839,-0.159847 0.326089,-0.347958 0.411717,-0.564891 0.09136,-0.222647 0.136589,-0.463121 0.136589,-0.720016 0,-0.211229 -0.03394,-0.40241 -0.102442,-0.573672 -0.0628,-0.171267 -0.1491,-0.322369 -0.257567,-0.453669 -0.102757,-0.131305 -0.225095,-0.239253 -0.367813,-0.324886 -0.142724,-0.08563 -0.290751,-0.151421 -0.444888,-0.197077 0.25119,-0.114177 0.464994,-0.279664 0.641966,-0.496597 0.176976,-0.222648 0.265372,-0.488816 0.265372,-0.797092 0,-0.222642 -0.037,-0.428204 -0.111222,-0.6166 -0.07421,-0.194099 -0.185233,-0.359587 -0.333667,-0.496596 -0.148428,-0.142724 -0.337509,-0.250672 -0.565867,-0.324886 -0.228352,-0.07992 -0.499692,-0.120003 -0.813677,-0.120003 z m -8.865902,0.604892 c 0.22835,0 0.41744,0.05139 0.565867,0.15415 0.148427,0.09705 0.265594,0.230701 0.351227,0.401961 0.09134,0.165555 0.15403,0.362884 0.188297,0.591233 0.03425,0.222641 0.05073,0.456982 0.05073,0.702455 v 0.188297 c 0,0.05709 -0.0021,0.116717 -0.0078,0.179516 -0.165555,0.07421 -0.337184,0.13175 -0.514159,0.171712 -0.176969,0.03425 -0.365083,0.05073 -0.56489,0.05073 -0.371068,0 -0.651627,-0.09971 -0.84002,-0.299519 -0.1826789,-0.205517 -0.2731771,-0.502551 -0.2731771,-0.890753 0,-0.137007 0.016466,-0.276799 0.050733,-0.419521 0.039961,-0.148427 0.1026641,-0.282076 0.1882971,-0.401961 0.08563,-0.125594 0.194558,-0.228377 0.325861,-0.3083 0.131304,-0.07992 0.290648,-0.120003 0.479036,-0.120003 z m 18.41289,9.221677 c -0.256897,0.296854 -0.539551,0.545576 -0.847825,0.745383 -0.308272,0.194099 -0.624865,0.353442 -0.950266,0.479036 l 0.247811,0.599038 c 0.119885,-0.03996 0.243195,-0.08828 0.368789,-0.145369 0.131298,-0.05709 0.253638,-0.116722 0.367813,-0.179516 0.119885,-0.0628 0.22881,-0.12857 0.325862,-0.197078 0.102756,-0.0685 0.188087,-0.134284 0.256591,-0.197078 v 4.82938 h 0.796116 v -5.933796 z"
     sodipodi:nodetypes="ssccscccsccccccccscccscccccccscccscscsccscccscsccccccssccscccccscccccccccssccscsccscccccccccccccc" />
  <path
     d="m 15.570409,18.542779 c 0.508077,0 0.870584,-0.0999 1.087513,-0.299709 0.222644,-0.199806 0.333961,-0.468115 0.333961,-0.804932 0,-0.216929 -0.04566,-0.399612 -0.137007,-0.548037 -0.09134,-0.148427 -0.211224,-0.265458 -0.359651,-0.351089 -0.14843,-0.09133 -0.322545,-0.154136 -0.522351,-0.188387 -0.194096,-0.03996 -0.393903,-0.05994 -0.599417,-0.05994 h -0.205516 v -0.650797 h 0.282586 c 0.142716,0 0.288289,-0.01429 0.436714,-0.04281 0.154141,-0.02853 0.294005,-0.07992 0.419593,-0.154136 0.125593,-0.07421 0.228353,-0.174115 0.308275,-0.299708 0.07992,-0.131302 0.119884,-0.293999 0.119884,-0.4881 0,-0.159846 -0.02857,-0.296852 -0.08563,-0.411026 -0.05709,-0.114174 -0.134155,-0.208373 -0.231206,-0.282585 -0.09134,-0.07422 -0.199805,-0.125593 -0.325398,-0.154135 -0.119883,-0.03427 -0.248328,-0.05138 -0.38534,-0.05138 -0.274018,0 -0.508076,0.03996 -0.702173,0.119884 -0.188386,0.07992 -0.348231,0.162702 -0.479533,0.248333 l -0.308271,-0.607983 c 0.06851,-0.04566 0.154135,-0.09419 0.25689,-0.145569 0.10847,-0.05709 0.228354,-0.10847 0.359651,-0.15414 0.131301,-0.04566 0.271166,-0.08277 0.419592,-0.111317 0.154135,-0.03427 0.31398,-0.05138 0.479533,-0.05138 0.313981,0 0.585147,0.03996 0.813495,0.119883 0.228353,0.07421 0.41674,0.182677 0.565165,0.325399 0.148431,0.137006 0.259748,0.302561 0.333961,0.496657 0.07422,0.188392 0.111322,0.393907 0.111322,0.616546 0,0.30827 -0.08848,0.573728 -0.265457,0.796371 -0.176968,0.216929 -0.391046,0.382484 -0.642231,0.496658 0.154135,0.04566 0.302561,0.111321 0.445282,0.196953 0.142716,0.08563 0.265457,0.194096 0.368212,0.325399 0.108465,0.131297 0.194097,0.28258 0.256895,0.453844 0.06851,0.171258 0.102756,0.362502 0.102756,0.573727 0,0.25689 -0.04565,0.496657 -0.137012,0.7193 -0.08563,0.21693 -0.222639,0.405321 -0.411025,0.565166 -0.182683,0.159845 -0.413883,0.285438 -0.693611,0.376774 -0.279728,0.09134 -0.610837,0.137011 -0.993324,0.137011 -0.148426,0 -0.302562,-0.01144 -0.462406,-0.03427 -0.154135,-0.02283 -0.299709,-0.05138 -0.436721,-0.08563 -0.137007,-0.03427 -0.25689,-0.06851 -0.35965,-0.102755 -0.102755,-0.03427 -0.176968,-0.0628 -0.222639,-0.08562 l 0.154135,-0.693616 c 0.09706,0.04565 0.256896,0.105612 0.479535,0.179825 0.228348,0.07422 0.505223,0.111322 0.830621,0.111322 z"
     style="font-size:12px;line-height:1.25;fill:#ffffff;stroke-width:0.499514"
     id="path10343" />
  <path
     d="m 8.8530917,15.508962 c 0,1.175991 -0.2939963,2.066546 -0.8819894,2.671668 -0.5822884,0.59941 -1.4500069,0.901969 -2.6031596,0.907678 l -0.025675,-0.667914 c 0.3596468,0 0.6821903,-0.03427 0.967619,-0.102755 0.2911447,-0.06851 0.5451802,-0.176967 0.7621127,-0.325395 0.2169263,-0.154134 0.3967505,-0.351081 0.5394698,-0.590846 0.1484244,-0.239765 0.2568881,-0.533766 0.3253961,-0.881994 -0.1484297,0.06851 -0.3168341,0.125592 -0.5052194,0.171262 -0.1883853,0.03996 -0.3824842,0.05994 -0.5822884,0.05994 -0.3368098,0 -0.622244,-0.0485 -0.856299,-0.145571 C 5.7590041,16.502277 5.5677614,16.368119 5.4193373,16.202571 5.270908,16.031309 5.1624444,15.837215 5.0939421,15.620283 c -0.062814,-0.222637 -0.094208,-0.45384 -0.094208,-0.693604 0,-0.211223 0.037113,-0.431007 0.1113158,-0.659353 C 5.1852659,14.03898 5.2965825,13.830609 5.4450118,13.642225 5.5991459,13.45384 5.7932403,13.299706 6.0272952,13.179823 6.2613505,13.059941 6.5382237,13 6.8579094,13 c 0.3253961,0 0.6108251,0.05708 0.8562996,0.171257 0.2511839,0.114178 0.4595495,0.279726 0.6251023,0.496657 0.1712612,0.216933 0.2997058,0.482382 0.3853358,0.796363 0.085631,0.308268 0.1284446,0.656496 0.1284446,1.044685 z m -1.9181175,0.59085 c 0.1998042,0 0.3881937,-0.01713 0.5651601,-0.05138 0.1769707,-0.03996 0.3482287,-0.09704 0.5137804,-0.171256 0.00566,-0.0628 0.00859,-0.12274 0.00859,-0.179824 v -0.18839 c 0,-0.245469 -0.017135,-0.47953 -0.051383,-0.702166 -0.034266,-0.228349 -0.09705,-0.4253 -0.1883816,-0.590853 -0.085631,-0.171257 -0.202661,-0.305415 -0.3510855,-0.402459 -0.1484245,-0.102755 -0.336814,-0.154135 -0.5651601,-0.154135 -0.1883843,0 -0.3482276,0.03996 -0.479529,0.119883 -0.1313014,0.07992 -0.239765,0.182675 -0.3253951,0.308267 -0.085631,0.119883 -0.148425,0.254036 -0.1883856,0.40246 -0.034267,0.142721 -0.05138,0.282583 -0.05138,0.419588 0,0.388194 0.091341,0.685042 0.2740167,0.890556 0.1883895,0.199804 0.4681154,0.299706 0.8391755,0.299706 z m 16.5457968,8.005455 c 0.325395,-0.125591 0.64223,-0.285434 0.950497,-0.479529 0.308268,-0.199804 0.590845,-0.448134 0.847738,-0.744983 h 0.56516 v 5.934174 h -0.796363 v -4.829544 c -0.06851,0.0628 -0.154134,0.128444 -0.256888,0.196947 -0.09706,0.06851 -0.205514,0.134153 -0.325396,0.196951 -0.114173,0.0628 -0.236912,0.122734 -0.368208,0.179824 -0.125592,0.05708 -0.248331,0.105612 -0.368214,0.145571 z"
     style="font-size:12px;line-height:1.25;fill:#4d4d4d;stroke-width:0.499509"
     id="path4422"
     sodipodi:nodetypes="sccccccccscccsccsscccssccsscccssccscsscccccccccccc" />
  <path
     id="rect2630"
     style="opacity:0.3;fill:#ffffff;fill-opacity:1"
     d="M 7,3 C 4.7840022,3 3,4.7840022 3,6.9999998 v 1 C 3,5.7840022 4.7840022,4 7,4 h 18 c 2.215998,0 4,1.7840022 4,3.9999998 v -1 C 29,4.7840022 27.215998,3 25,3 Z" />
  <path
     id="rect398"
     style="opacity:0.3;fill:#ffffff"
     d="m 3.0000002,24 v 1 c 0,2.215998 1.7840022,4 4,4 H 25 c 2.215998,0 4,-1.784002 4,-4 v -1 c 0,2.215998 -1.784002,4 -4,4 H 7.0000002 c -2.2159978,0 -4,-1.784002 -4,-4 z" />
  <path
     id="rect899"
     style="fill:#000000;stroke:none;opacity:0.5"
     d="M 7 2 C 4.2300028 2 2 4.2300028 2 7 L 2 25 C 2 27.769997 4.2300028 30 7 30 L 25 30 C 27.769997 30 30 27.769997 30 25 L 30 7 C 30 4.2300028 27.769997 2 25 2 L 7 2 z M 7 3 L 25 3 C 27.215998 3 29 4.7840022 29 7 L 29 25 C 29 27.215998 27.215998 29 25 29 L 7 29 C 4.7840022 29 3 27.215998 3 25 L 3 7 C 3 4.7840022 4.7840022 3 7 3 z " />
</svg>
