<?xml version="1.0" encoding="UTF-8" standalone="no"?>
<!-- Created with Inkscape (http://www.inkscape.org/) -->

<svg
   width="32"
   height="32"
   viewBox="0 0 32 32.000001"
   version="1.1"
   id="svg5"
   sodipodi:docname="kwalletmanager.svg"
   inkscape:version="1.2.1 (9c6d41e410, 2022-07-14)"
   xmlns:inkscape="http://www.inkscape.org/namespaces/inkscape"
   xmlns:sodipodi="http://sodipodi.sourceforge.net/DTD/sodipodi-0.dtd"
   xmlns:xlink="http://www.w3.org/1999/xlink"
   xmlns="http://www.w3.org/2000/svg"
   xmlns:svg="http://www.w3.org/2000/svg">
  <sodipodi:namedview
     id="namedview7"
     pagecolor="#ffffff"
     bordercolor="#666666"
     borderopacity="1.0"
     inkscape:showpageshadow="2"
     inkscape:pageopacity="0.0"
     inkscape:pagecheckerboard="0"
     inkscape:deskcolor="#d1d1d1"
     inkscape:document-units="px"
     showgrid="false"
     inkscape:zoom="24.84375"
     inkscape:cx="16"
     inkscape:cy="16"
     inkscape:window-width="1920"
     inkscape:window-height="1007"
     inkscape:window-x="0"
     inkscape:window-y="0"
     inkscape:window-maximized="1"
     inkscape:current-layer="svg5" />
  <defs
     id="defs2">
    <linearGradient
       inkscape:collect="always"
       xlink:href="#4852"
       id="linearGradient8655"
       x1="25"
       y1="30"
       x2="7"
       y2="2"
       gradientUnits="userSpaceOnUse" />
    <linearGradient
       inkscape:collect="always"
       id="4852">
      <stop
         style="stop-color:#333333;stop-opacity:1"
         offset="0"
         id="stop14555" />
      <stop
         style="stop-color:#666666;stop-opacity:1"
         offset="1"
         id="stop14557" />
    </linearGradient>
    <linearGradient
       inkscape:collect="always"
       xlink:href="#linearGradient5606"
       id="linearGradient5608"
       x1="7.9375"
       y1="4.2333341"
       x2="7.9375"
       y2="12.700001"
       gradientUnits="userSpaceOnUse"
       gradientTransform="matrix(1.8897638,0,0,1.8897638,5.238855e-7,-0.49999984)" />
    <linearGradient
       inkscape:collect="always"
       id="linearGradient5606">
      <stop
         style="stop-color:#f4e9d3;stop-opacity:1"
         offset="0"
         id="stop5602" />
      <stop
         style="stop-color:#e3ca8e;stop-opacity:1"
         offset="1"
         id="stop5604" />
    </linearGradient>
    <linearGradient
       inkscape:collect="always"
       xlink:href="#linearGradient6552"
       id="linearGradient6554"
       x1="26"
       y1="17.580078"
       x2="26"
       y2="51.580078"
       gradientUnits="userSpaceOnUse"
       gradientTransform="matrix(0.49999998,0,0,0.49999998,5.238855e-7,-0.54003894)" />
    <linearGradient
       inkscape:collect="always"
       id="linearGradient6552">
      <stop
         style="stop-color:#e4d09b;stop-opacity:1;"
         offset="0"
         id="stop6548" />
      <stop
         style="stop-color:#f1d793;stop-opacity:0.99607843"
         offset="1"
         id="stop6550" />
    </linearGradient>
  </defs>
  <rect
     style="fill:url(#linearGradient8655);fill-opacity:1.0;stroke:none"
     id="rect184"
     width="27"
     height="27"
     x="2.5"
     y="2.5"
     ry="4.5" />
  <rect
     style="opacity:0.2;fill:#000000;fill-opacity:1;stroke-width:2;stroke-linecap:round;stroke-linejoin:round"
     id="rect3396"
     width="20"
     height="15.000001"
     x="6"
     y="9"
     ry="1.5" />
  <rect
     style="fill:url(#linearGradient5608);fill-opacity:1;stroke-width:4.49998;stroke-linecap:round;stroke-linejoin:round"
     id="rect849"
     width="20"
     height="15"
     x="6"
     y="8"
     ry="1.5" />
  <path
     id="rect5268"
     style="fill:#25b1ef;stroke-width:4.49998;stroke-linecap:round;stroke-linejoin:round"
     d="M 8.0000004,9.0000011 H 24.000001 c 0.553999,0 0.999998,0.445999 0.999998,0.9999999 v 5.999997 c 0,0.554 -0.445999,1.000001 -0.999998,1.000001 H 8.0000004 c -0.5539998,0 -0.9999999,-0.446001 -0.9999999,-1.000001 v -5.999997 c 0,-0.5540009 0.4460001,-0.9999999 0.9999999,-0.9999999 z" />
  <path
     id="rect4606"
     style="fill:#efc225;stroke-width:4.49998;stroke-linecap:round;stroke-linejoin:round"
     d="M 8.0000004,10.5 H 24.000001 c 0.553999,0 0.999998,0.446 0.999998,1 v 5.999999 c 0,0.554 -0.445999,1 -0.999998,1 H 8.0000004 c -0.5539998,0 -0.9999999,-0.446 -0.9999999,-1 V 11.5 c 0,-0.554 0.4460001,-1 0.9999999,-1 z" />
  <path
     id="rect3107"
     style="fill:#55bf5d;stroke-width:4.49998;stroke-linecap:round;stroke-linejoin:round"
     d="M 8.0000004,12 H 24.000001 c 0.553999,0 0.999998,0.446 0.999998,1 v 5.999999 c 0,0.554001 -0.445999,1 -0.999998,1 H 8.0000004 c -0.5539998,0 -0.9999999,-0.445999 -0.9999999,-1 V 13 c 0,-0.554 0.4460001,-1 0.9999999,-1 z" />
  <path
     id="rect2181"
     style="fill:#f06767;stroke-width:4.63045;stroke-linecap:round;stroke-linejoin:round"
     d="M 8.0000004,13.5 H 24.000001 c 0.553999,0 0.999998,0.446 0.999998,1 v 6.000001 c 0,0.553999 -0.445999,0.999998 -0.999998,0.999998 H 8.0000004 c -0.5539998,0 -0.9999999,-0.445999 -0.9999999,-0.999998 V 14.5 c 0,-0.554 0.4460001,-1 0.9999999,-1 z" />
  <path
     d="m 6.0000005,15 v 5.49998 c 0,0.831001 0.6689998,1.5 1.4999997,1.5 H 24.5 c 0.830999,0 1.5,-0.668999 1.5,-1.5 V 15 h -8 c -0.02179,1.088143 -0.911639,1.999137 -2,1.999981 C 14.911639,16.999131 14.021788,16.088143 14,15 Z"
     style="opacity:0.2;fill:#000000;fill-opacity:1;stroke-width:4.49998;stroke-linecap:round;stroke-linejoin:round"
     id="path3791" />
  <path
     id="rect1745"
     style="fill:url(#linearGradient6554);fill-opacity:1;stroke-width:4.49998;stroke-linecap:round;stroke-linejoin:round"
     d="m 6.0000006,16.000019 v 5.49998 c 0,0.831001 0.6689998,1.5 1.4999997,1.5 H 24.5 c 0.830999,0 1.5,-0.668999 1.5,-1.5 v -5.49998 H 18 C 17.97821,17.088162 17.088361,17.999156 16,18 14.911639,17.99915 14.021788,17.088162 14,16.000019 Z"
     sodipodi:nodetypes="cssssccccc" />
  <path
     id="rect2630"
     style="opacity:0.3;fill:#ffffff;fill-opacity:1"
     d="M 7,3 C 4.7840022,3 3,4.7840022 3,6.9999998 v 1 C 3,5.7840022 4.7840022,4 7,4 h 18 c 2.215998,0 4,1.7840022 4,3.9999998 v -1 C 29,4.7840022 27.215998,3 25,3 Z" />
  <path
     id="rect398"
     style="opacity:0.3;fill:#ffffff"
     d="m 3.0000002,24 v 1 c 0,2.215998 1.7840022,4 4,4 H 25 c 2.215998,0 4,-1.784002 4,-4 v -1 c 0,2.215998 -1.784002,4 -4,4 H 7.0000002 c -2.2159978,0 -4,-1.784002 -4,-4 z" />
  <path
     id="rect899"
     style="fill:#000000;stroke:none;opacity:0.5"
     d="M 7 2 C 4.2300028 2 2 4.2300028 2 7 L 2 25 C 2 27.769997 4.2300028 30 7 30 L 25 30 C 27.769997 30 30 27.769997 30 25 L 30 7 C 30 4.2300028 27.769997 2 25 2 L 7 2 z M 7 3 L 25 3 C 27.215998 3 29 4.7840022 29 7 L 29 25 C 29 27.215998 27.215998 29 25 29 L 7 29 C 4.7840022 29 3 27.215998 3 25 L 3 7 C 3 4.7840022 4.7840022 3 7 3 z " />
</svg>
