<?xml version="1.0" encoding="UTF-8" standalone="no"?>
<!-- Created with Inkscape (http://www.inkscape.org/) -->

<svg
   width="32"
   height="32"
   viewBox="0 0 32 32.000001"
   version="1.1"
   id="svg5"
   sodipodi:docname="lollypop.svg"
   inkscape:version="1.2.1 (9c6d41e410, 2022-07-14)"
   xmlns:inkscape="http://www.inkscape.org/namespaces/inkscape"
   xmlns:sodipodi="http://sodipodi.sourceforge.net/DTD/sodipodi-0.dtd"
   xmlns:xlink="http://www.w3.org/1999/xlink"
   xmlns="http://www.w3.org/2000/svg"
   xmlns:svg="http://www.w3.org/2000/svg">
  <sodipodi:namedview
     id="namedview7"
     pagecolor="#ffffff"
     bordercolor="#666666"
     borderopacity="1.0"
     inkscape:showpageshadow="2"
     inkscape:pageopacity="0.0"
     inkscape:pagecheckerboard="0"
     inkscape:deskcolor="#d1d1d1"
     inkscape:document-units="px"
     showgrid="false"
     inkscape:zoom="20.00102"
     inkscape:cx="12.724351"
     inkscape:cy="16.449161"
     inkscape:window-width="1920"
     inkscape:window-height="1007"
     inkscape:window-x="0"
     inkscape:window-y="0"
     inkscape:window-maximized="1"
     inkscape:current-layer="svg5" />
  <defs
     id="defs2">
    <linearGradient
       inkscape:collect="always"
       xlink:href="#linearGradient11655"
       id="linearGradient8655"
       x1="16"
       y1="30"
       x2="16"
       y2="2"
       gradientUnits="userSpaceOnUse" />
    <linearGradient
       inkscape:collect="always"
       id="linearGradient11655">
      <stop
         style="stop-color:#e24d88;stop-opacity:1;"
         offset="0"
         id="stop11651" />
      <stop
         style="stop-color:#f66aa8;stop-opacity:1;"
         offset="1"
         id="stop11653" />
    </linearGradient>
  </defs>
  <rect
     style="fill:url(#linearGradient8655);fill-opacity:1.0;stroke:none"
     id="rect184"
     width="27"
     height="27"
     x="2.5"
     y="2.5"
     ry="4.5" />
  <path
     id="path7056"
     style="display:inline;fill:#ffffff;fill-opacity:1;stroke:none;stroke-width:0.4625;stroke-opacity:1;enable-background:new"
     d="M 7 2.5 C 5.4694643 2.5 4.1247146 3.2589475 3.3125 4.4199219 C 4.0603936 6.6675328 5.6686329 9.129941 7.3242188 11.074219 A 10 10 0 0 0 6 16 A 10 10 0 0 0 6.0722656 17.015625 C 4.869229 16.415701 3.6387814 15.636605 2.5 14.730469 L 2.5 21.484375 C 4.1295013 21.507284 5.8429013 21.336003 7.3945312 21.050781 A 10 10 0 0 0 11.900391 25.115234 C 9.6010411 26.63332 6.6093023 27.908704 3.765625 28.130859 C 4.5826686 28.974941 5.7270259 29.5 7 29.5 L 14.523438 29.5 C 15.129121 28.361028 15.653302 27.154791 16.066406 25.996094 A 10 10 0 0 0 21.84375 24.083984 C 21.948208 25.793225 21.836013 27.689705 21.443359 29.5 L 25 29.5 C 26.530536 29.5 27.875285 28.741053 28.6875 27.580078 C 27.939606 25.332467 26.331368 22.870059 24.675781 20.925781 A 10 10 0 0 0 26 16 A 10 10 0 0 0 25.949219 14.996094 C 27.145027 15.59425 28.368403 16.367536 29.5 17.267578 L 29.5 10.515625 C 27.779302 10.481791 26.07758 10.674099 24.625 10.941406 A 10 10 0 0 0 20.099609 6.8828125 C 22.3989 5.3646699 25.390664 4.0908282 28.234375 3.8691406 C 27.417331 3.0250593 26.272974 2.5 25 2.5 L 17.482422 2.5 C 16.875665 3.639327 16.34941 4.8445048 15.935547 6.0039062 A 10 10 0 0 0 10.15625 7.9160156 C 10.05179 6.2067769 10.163987 4.310296 10.556641 2.5 L 7 2.5 z " />
  <path
     d="m 12.855578,11.000894 c -0.466353,-0.02179 -0.856019,0.357649 -0.855577,0.833078 v 8.330784 c -8.44e-4,0.635888 0.670221,1.038103 1.215861,0.728943 l 7.362224,-4.165389 c 0.562552,-0.317116 0.562552,-1.140775 0,-1.457886 l -7.362224,-4.165395 c -0.110576,-0.06261 -0.233899,-0.09827 -0.360284,-0.104135 z"
     style="color:#000000;display:inline;fill:#ed5d99;fill-opacity:1;fill-rule:evenodd;stroke:none;stroke-width:0.825522;stroke-linecap:round;stroke-linejoin:round;enable-background:new"
     id="path14268" />
  <path
     id="path16059"
     style="opacity:0.2;fill:#000000;stroke-linejoin:round"
     d="M 25.976562 16.341797 A 10 10 0 0 1 16 26 A 10 10 0 0 1 6.0351562 16.5 A 10 10 0 0 0 6 17 A 10 10 0 0 0 16 27 A 10 10 0 0 0 26 17 A 10 10 0 0 0 25.976562 16.341797 z " />
  <path
     id="rect2630"
     style="opacity:0.3;fill:#ffffff;fill-opacity:1"
     d="M 7,3 C 4.7840022,3 3,4.7840022 3,6.9999998 v 1 C 3,5.7840022 4.7840022,4 7,4 h 18 c 2.215998,0 4,1.7840022 4,3.9999998 v -1 C 29,4.7840022 27.215998,3 25,3 Z" />
  <path
     id="rect398"
     style="opacity:0.3;fill:#ffffff"
     d="m 3.0000002,24 v 1 c 0,2.215998 1.7840022,4 4,4 H 25 c 2.215998,0 4,-1.784002 4,-4 v -1 c 0,2.215998 -1.784002,4 -4,4 H 7.0000002 c -2.2159978,0 -4,-1.784002 -4,-4 z" />
  <path
     id="rect899"
     style="fill:#000000;stroke:none;opacity:0.5"
     d="M 7 2 C 4.2300028 2 2 4.2300028 2 7 L 2 25 C 2 27.769997 4.2300028 30 7 30 L 25 30 C 27.769997 30 30 27.769997 30 25 L 30 7 C 30 4.2300028 27.769997 2 25 2 L 7 2 z M 7 3 L 25 3 C 27.215998 3 29 4.7840022 29 7 L 29 25 C 29 27.215998 27.215998 29 25 29 L 7 29 C 4.7840022 29 3 27.215998 3 25 L 3 7 C 3 4.7840022 4.7840022 3 7 3 z " />
</svg>
