<?xml version="1.0" encoding="UTF-8" standalone="no"?>
<!-- Created with Inkscape (http://www.inkscape.org/) -->

<svg
   width="32"
   height="32"
   viewBox="0 0 32 32.000001"
   version="1.1"
   id="svg5"
   sodipodi:docname="mate.svg"
   inkscape:version="1.2.1 (9c6d41e410, 2022-07-14)"
   xmlns:inkscape="http://www.inkscape.org/namespaces/inkscape"
   xmlns:sodipodi="http://sodipodi.sourceforge.net/DTD/sodipodi-0.dtd"
   xmlns:xlink="http://www.w3.org/1999/xlink"
   xmlns="http://www.w3.org/2000/svg"
   xmlns:svg="http://www.w3.org/2000/svg">
  <sodipodi:namedview
     id="namedview7"
     pagecolor="#ffffff"
     bordercolor="#666666"
     borderopacity="1.0"
     inkscape:showpageshadow="2"
     inkscape:pageopacity="0.0"
     inkscape:pagecheckerboard="0"
     inkscape:deskcolor="#d1d1d1"
     inkscape:document-units="px"
     showgrid="false"
     inkscape:zoom="25.65625"
     inkscape:cx="16"
     inkscape:cy="16"
     inkscape:window-width="1920"
     inkscape:window-height="1007"
     inkscape:window-x="0"
     inkscape:window-y="0"
     inkscape:window-maximized="1"
     inkscape:current-layer="svg5" />
  <defs
     id="defs2">
    <linearGradient
       inkscape:collect="always"
       xlink:href="#linearGradient5536"
       id="linearGradient8655"
       x1="25"
       y1="30"
       x2="7"
       y2="2"
       gradientUnits="userSpaceOnUse" />
    <linearGradient
       inkscape:collect="always"
       id="linearGradient5536">
      <stop
         style="stop-color:#87a556;stop-opacity:1;"
         offset="0"
         id="stop5532" />
      <stop
         style="stop-color:#b2c592;stop-opacity:1;"
         offset="1"
         id="stop5534" />
    </linearGradient>
  </defs>
  <rect
     style="fill:url(#linearGradient8655);fill-opacity:1.0;stroke:none"
     id="rect184"
     width="27"
     height="27"
     x="2.5"
     y="2.5"
     ry="4.5" />
  <path
     d="m 16.01019,6 c -3.34167,0 -6.3069,1.576096 -8.22713,4.01753 l 1.3125,0.832317 c 1.63825,-2.00512 4.14135,-3.281249 6.93064,-3.281249 4.93013,0 8.9314,4.001268 8.9314,8.931402 0,4.930134 -4.00127,8.931402 -8.9314,8.931402 -2.78125,0 -5.2762,-1.270074 -6.91464,-3.265243 l -1.3125,0.832317 C 9.71976,25.429799 12.6766,27 16.01019,27 c 5.78717,0 10.484,-4.704 10.484,-10.5 0,-5.796 -4.69683,-10.5 -10.484,-10.5 z M 5,10 v 13 l 11,-6.5 z m 11.01019,0.09756 c -1.88628,0 -3.57914,0.815901 -4.75381,2.112805 l 1.36052,0.848323 c 0.87508,-0.864273 2.07142,-1.392531 3.39329,-1.392531 2.67712,0 4.84985,2.187074 4.84985,4.881861 0,2.694786 -2.17273,4.881859 -4.84985,4.881859 -1.3465,0 -2.56228,-0.547664 -3.44131,-1.440549 l -1.3125,0.832317 c 1.17467,1.296904 2.86753,2.112805 4.75381,2.112805 3.54298,0 6.41845,-2.875463 6.41845,-6.418445 0,-3.542982 -2.87547,-6.418445 -6.41845,-6.418445 z"
     style="display:inline;opacity:0.2;fill:#000000;fill-opacity:1;fill-rule:evenodd;stroke:none;stroke-width:0.512195;enable-background:new"
     id="path13776"
     sodipodi:nodetypes="sccsssccsssccccsccsssccsss" />
  <path
     inkscape:connector-curvature="0"
     style="display:inline;fill:#ffffff;fill-opacity:1;fill-rule:evenodd;stroke:none;stroke-width:0.512195;enable-background:new"
     d="M 16.01019,5 C 12.66852,5 9.70329,6.576096 7.78306,9.01753 l 1.3125,0.832318 c 1.63825,-2.005121 4.14135,-3.28125 6.93064,-3.28125 4.93013,0 8.9314,4.001268 8.9314,8.931402 0,4.930134 -4.00127,8.931402 -8.9314,8.931402 -2.78125,0 -5.27619,-1.270074 -6.91464,-3.265243 l -1.3125,0.832317 C 9.71976,24.429799 12.6766,26 16.01019,26 c 5.78717,0 10.484,-4.704 10.484,-10.5 0,-5.796 -4.69683,-10.5 -10.484,-10.5 z M 5,9 v 13 l 11,-6.5 z m 11.01019,0.097561 c -1.88628,0 -3.57914,0.815901 -4.75381,2.112805 l 1.36052,0.848323 c 0.87508,-0.864273 2.07142,-1.39253 3.39329,-1.39253 2.67712,0 4.84985,2.187073 4.84985,4.881859 0,2.694787 -2.17273,4.88186 -4.84985,4.88186 -1.3465,0 -2.56228,-0.547665 -3.44131,-1.440549 l -1.3125,0.832317 c 1.17467,1.296904 2.86753,2.112805 4.75381,2.112805 3.54298,0 6.41845,-2.875463 6.41845,-6.418445 0,-3.542982 -2.87547,-6.418445 -6.41845,-6.418445 z"
     id="path5070"
     sodipodi:nodetypes="sccsssccsssccccssccsssccss" />
  <path
     id="rect2630"
     style="opacity:0.3;fill:#ffffff;fill-opacity:1"
     d="M 7,3 C 4.7840022,3 3,4.7840022 3,6.9999998 v 1 C 3,5.7840022 4.7840022,4 7,4 h 18 c 2.215998,0 4,1.7840022 4,3.9999998 v -1 C 29,4.7840022 27.215998,3 25,3 Z" />
  <path
     id="rect398"
     style="opacity:0.3;fill:#ffffff"
     d="m 3.0000002,24 v 1 c 0,2.215998 1.7840022,4 4,4 H 25 c 2.215998,0 4,-1.784002 4,-4 v -1 c 0,2.215998 -1.784002,4 -4,4 H 7.0000002 c -2.2159978,0 -4,-1.784002 -4,-4 z" />
  <path
     id="rect899"
     style="fill:#000000;stroke:none;opacity:0.5"
     d="M 7 2 C 4.2300028 2 2 4.2300028 2 7 L 2 25 C 2 27.769997 4.2300028 30 7 30 L 25 30 C 27.769997 30 30 27.769997 30 25 L 30 7 C 30 4.2300028 27.769997 2 25 2 L 7 2 z M 7 3 L 25 3 C 27.215998 3 29 4.7840022 29 7 L 29 25 C 29 27.215998 27.215998 29 25 29 L 7 29 C 4.7840022 29 3 27.215998 3 25 L 3 7 C 3 4.7840022 4.7840022 3 7 3 z " />
</svg>
