<?xml version="1.0" encoding="UTF-8" standalone="no"?>
<!-- Created with Inkscape (http://www.inkscape.org/) -->

<svg
   width="32"
   height="32"
   viewBox="0 0 32 32.000001"
   version="1.1"
   id="svg5"
   sodipodi:docname="obsstudio.svg"
   inkscape:version="1.2.1 (9c6d41e410, 2022-07-14)"
   xmlns:inkscape="http://www.inkscape.org/namespaces/inkscape"
   xmlns:sodipodi="http://sodipodi.sourceforge.net/DTD/sodipodi-0.dtd"
   xmlns:xlink="http://www.w3.org/1999/xlink"
   xmlns="http://www.w3.org/2000/svg"
   xmlns:svg="http://www.w3.org/2000/svg">
  <sodipodi:namedview
     id="namedview7"
     pagecolor="#ffffff"
     bordercolor="#666666"
     borderopacity="1.0"
     inkscape:showpageshadow="2"
     inkscape:pageopacity="0.0"
     inkscape:pagecheckerboard="0"
     inkscape:deskcolor="#d1d1d1"
     inkscape:document-units="px"
     showgrid="false"
     inkscape:zoom="24.6875"
     inkscape:cx="15.979747"
     inkscape:cy="16"
     inkscape:window-width="1920"
     inkscape:window-height="1002"
     inkscape:window-x="0"
     inkscape:window-y="0"
     inkscape:window-maximized="1"
     inkscape:current-layer="svg5" />
  <defs
     id="defs2">
    <linearGradient
       inkscape:collect="always"
       xlink:href="#4852"
       id="linearGradient8655"
       x1="25"
       y1="30"
       x2="7"
       y2="2"
       gradientUnits="userSpaceOnUse" />
    <linearGradient
       inkscape:collect="always"
       id="4852">
      <stop
         style="stop-color:#333333;stop-opacity:1"
         offset="0"
         id="stop14555" />
      <stop
         style="stop-color:#666666;stop-opacity:1"
         offset="1"
         id="stop14557" />
    </linearGradient>
  </defs>
  <rect
     style="fill:url(#linearGradient8655);fill-opacity:1.0;stroke:none"
     id="rect184"
     width="27"
     height="27"
     x="2.5"
     y="2.5"
     ry="4.5" />
  <path
     d="m 11.604504,6.388 c -2.0709712,1.092854 -3.8040776,3.135919 -3.8538676,5.568525 -0.0397,1.262488 0.223695,2.594342 0.840881,3.682197 2.1654986,0.03682 4.3959036,1.272604 5.1552806,3.378944 1.112381,2.784137 -0.19796,6.480451 -3.125035,7.506252 -1.5014382,0.540638 -3.1708526,0.299831 -4.6217636,-0.282692 1.983601,1.248804 4.6253106,1.725975 6.7568616,0.54791 1.11596,-0.591164 2.098135,-1.485615 2.767301,-2.54526 -1.05317,-1.898442 -1.094455,-4.445168 0.348482,-6.159608 1.849337,-2.357554 5.701979,-3.083368 8.056218,-1.062923 1.21917,1.028643 1.844299,2.594787 2.065195,4.1417 0.08879,-2.340185 -0.81443,-4.863193 -2.894769,-6.121575 -1.06975,-0.682166 -2.332739,-1.056473 -3.586596,-1.143105 -1.118117,1.861652 -3.302297,3.172223 -5.508901,2.781692 C 11.039178,16.261389 8.4804384,13.293197 9.0530768,10.244951 9.3330208,8.674996 10.377404,7.350843 11.604504,6.388 Z"
     style="opacity:0.2;fill:#000000;stroke-width:0.526321"
     id="path561" />
  <path
     id="path28"
     d="m 11.604503,5.3880004 c -2.0709697,1.092854 -3.8040771,3.135918 -3.8538671,5.5685246 -0.0397,1.262488 0.223695,2.594342 0.840881,3.682196 2.1654991,0.03682 4.3959041,1.272605 5.1552801,3.378944 1.112382,2.784136 -0.197958,6.480451 -3.125035,7.506253 -1.5014367,0.540637 -3.1708511,0.299831 -4.6217621,-0.282693 1.983601,1.248805 4.6253091,1.725975 6.7568611,0.54791 1.11596,-0.591164 2.098135,-1.485615 2.7673,-2.54526 -1.05317,-1.898441 -1.094454,-4.445168 0.348483,-6.159609 1.849337,-2.357553 5.701979,-3.083367 8.056218,-1.062922 1.21917,1.028643 1.844299,2.594787 2.065194,4.1417 0.08879,-2.340186 -0.81443,-4.863192 -2.894768,-6.121574 -1.06975,-0.682166 -2.332739,-1.056473 -3.586596,-1.143106 -1.118117,1.861653 -3.302298,3.172223 -5.508901,2.781692 -2.964613,-0.418667 -5.5233521,-3.38686 -4.9507147,-6.4351046 0.279945,-1.569955 1.3243277,-2.894108 2.5514267,-3.856951 z"
     style="fill:#ffffff;stroke-width:0.526321"
     sodipodi:nodetypes="cccccccccccccccc" />
  <path
     id="rect2630"
     style="opacity:0.3;fill:#ffffff;fill-opacity:1"
     d="M 7,3 C 4.7840022,3 3,4.7840022 3,6.9999998 v 1 C 3,5.7840022 4.7840022,4 7,4 h 18 c 2.215998,0 4,1.7840022 4,3.9999998 v -1 C 29,4.7840022 27.215998,3 25,3 Z" />
  <path
     id="rect398"
     style="opacity:0.3;fill:#ffffff"
     d="m 3.0000002,24 v 1 c 0,2.215998 1.7840022,4 4,4 H 25 c 2.215998,0 4,-1.784002 4,-4 v -1 c 0,2.215998 -1.784002,4 -4,4 H 7.0000002 c -2.2159978,0 -4,-1.784002 -4,-4 z" />
  <path
     id="rect899"
     style="fill:#000000;stroke:none;opacity:0.5"
     d="M 7 2 C 4.2300028 2 2 4.2300028 2 7 L 2 25 C 2 27.769997 4.2300028 30 7 30 L 25 30 C 27.769997 30 30 27.769997 30 25 L 30 7 C 30 4.2300028 27.769997 2 25 2 L 7 2 z M 7 3 L 25 3 C 27.215998 3 29 4.7840022 29 7 L 29 25 C 29 27.215998 27.215998 29 25 29 L 7 29 C 4.7840022 29 3 27.215998 3 25 L 3 7 C 3 4.7840022 4.7840022 3 7 3 z " />
</svg>
