<?xml version="1.0" encoding="UTF-8" standalone="no"?>
<!-- Created with Inkscape (http://www.inkscape.org/) -->

<svg
   width="32"
   height="32"
   viewBox="0 0 32 32.000001"
   version="1.1"
   id="svg5"
   sodipodi:docname="office-address-book.svg"
   inkscape:version="1.2.1 (9c6d41e410, 2022-07-14)"
   xmlns:inkscape="http://www.inkscape.org/namespaces/inkscape"
   xmlns:sodipodi="http://sodipodi.sourceforge.net/DTD/sodipodi-0.dtd"
   xmlns:xlink="http://www.w3.org/1999/xlink"
   xmlns="http://www.w3.org/2000/svg"
   xmlns:svg="http://www.w3.org/2000/svg">
  <sodipodi:namedview
     id="namedview7"
     pagecolor="#ffffff"
     bordercolor="#666666"
     borderopacity="1.0"
     inkscape:showpageshadow="2"
     inkscape:pageopacity="0.0"
     inkscape:pagecheckerboard="0"
     inkscape:deskcolor="#d1d1d1"
     inkscape:document-units="px"
     showgrid="false"
     inkscape:zoom="25.65625"
     inkscape:cx="15.980512"
     inkscape:cy="16"
     inkscape:window-width="1920"
     inkscape:window-height="1007"
     inkscape:window-x="0"
     inkscape:window-y="0"
     inkscape:window-maximized="1"
     inkscape:current-layer="svg5" />
  <defs
     id="defs2">
    <linearGradient
       inkscape:collect="always"
       xlink:href="#linearGradient8443"
       id="linearGradient8655"
       x1="25"
       y1="30"
       x2="7"
       y2="2"
       gradientUnits="userSpaceOnUse" />
    <linearGradient
       inkscape:collect="always"
       id="linearGradient8443">
      <stop
         style="stop-color:#3465c4;stop-opacity:1;"
         offset="0"
         id="stop8439" />
      <stop
         style="stop-color:#68b4f7;stop-opacity:1;"
         offset="1"
         id="stop8441" />
    </linearGradient>
  </defs>
  <rect
     style="fill:url(#linearGradient8655);fill-opacity:1.0;stroke:none"
     id="rect184"
     width="27"
     height="27"
     x="2.5"
     y="2.5"
     ry="4.5" />
  <path
     d="m 18.099664,20.989922 c -0.418067,0 -0.820455,-0.104516 -1.207167,-0.313548 -0.386711,-0.219487 -0.658455,-0.564392 -0.815229,-1.034717 h -0.01565 c -0.09408,0.25084 -0.235185,0.459873 -0.423312,0.6271 -0.18813,0.167226 -0.397163,0.303098 -0.6271,0.407615 -0.219484,0.104519 -0.444194,0.17768 -0.674131,0.219484 -0.229937,0.0418 -0.43897,0.0627 -0.6271,0.0627 -1.003359,0 -1.76633,-0.282196 -2.288914,-0.846586 -0.522593,-0.564387 -0.783889,-1.322131 -0.783889,-2.273231 v -1.222846 c 0,-0.961552 0.25084,-1.719298 0.752519,-2.273236 0.512131,-0.564389 1.207167,-0.846584 2.085106,-0.846584 0.585294,0 1.050392,0.08884 1.395297,0.266518 0.344905,0.177679 0.590519,0.391938 0.736842,0.642777 v -0.81523 h 1.473685 v 4.938411 c 0,0.438969 0.08884,0.76297 0.266518,0.972004 0.177678,0.198581 0.433744,0.297872 0.768197,0.297872 0.261292,0 0.491228,-0.04703 0.68981,-0.141097 0.198581,-0.104519 0.365808,-0.26652 0.501679,-0.486002 0.13587,-0.229937 0.240387,-0.522583 0.313548,-0.877939 0.07316,-0.365809 0.109742,-0.810004 0.109742,-1.332587 v -0.172444 c 0,-0.87794 -0.130646,-1.661814 -0.391937,-2.351624 -0.250838,-0.689813 -0.627095,-1.275108 -1.128775,-1.755885 -0.50168,-0.491227 -1.118329,-0.86226 -1.849945,-1.1131 -0.731616,-0.261292 -1.572974,-0.391938 -2.524076,-0.391938 -0.815229,0 -1.562523,0.130646 -2.241881,0.391938 -0.679358,0.261291 -1.264651,0.642777 -1.755879,1.144456 -0.480777,0.491229 -0.8570365,1.097424 -1.12878,1.818589 -0.2717429,0.721164 -0.4076143,1.536394 -0.4076143,2.445689 v 0.266518 c 0,0.972005 0.1306459,1.834266 0.3919378,2.586787 0.2717427,0.742067 0.6584545,1.363941 1.1601345,1.86562 0.501679,0.512132 1.113101,0.898843 1.834266,1.160135 0.731617,0.271743 1.552072,0.407615 2.461365,0.407615 0.783875,0 1.562524,-0.08884 2.335948,-0.266518 0.773422,-0.167226 1.484135,-0.418067 2.132138,-0.75252 l 0.43897,1.097424 c -0.658455,0.355357 -1.400523,0.627099 -2.226204,0.81523 -0.81523,0.198581 -1.693169,0.297872 -2.633818,0.297872 -1.128779,0 -2.137365,-0.167226 -3.025757,-0.501679 C 10.281821,23.618514 9.529302,23.137737 8.9126537,22.510638 8.2960055,21.883539 7.820455,21.125793 7.4860021,20.237402 7.1620007,19.349011 7,18.356103 7,17.258679 V 16.960805 C 7,15.957446 7.156775,15.032475 7.4703248,14.18589 7.7943263,13.328854 8.2489736,12.592012 8.8342668,11.975364 9.430011,11.358716 10.14595,10.877939 10.982083,10.533034 11.828667,10.177678 12.779769,10 13.835386,10 c 1.160135,0 2.184398,0.167227 3.072788,0.50168 0.888391,0.324002 1.635685,0.783874 2.241882,1.379619 0.606196,0.595745 1.066069,1.306457 1.379619,2.132138 C 20.843225,14.839118 21,15.748413 21,16.74132 v 0.203806 c 0,0.459874 -0.04703,0.930199 -0.141096,1.410975 -0.08362,0.470326 -0.235165,0.90407 -0.454649,1.301234 -0.219485,0.386711 -0.517357,0.705487 -0.893617,0.956327 -0.365808,0.250839 -0.836133,0.37626 -1.410974,0.37626 z M 12.18925,17.587906 c 0,0.595744 0.130645,1.071294 0.391937,1.426651 0.261291,0.344905 0.674132,0.517358 1.238522,0.517358 0.219484,0 0.428517,-0.02613 0.627099,-0.07839 0.209032,-0.05226 0.391936,-0.141101 0.548713,-0.266518 0.167225,-0.125421 0.297872,-0.292648 0.391937,-0.501681 0.09406,-0.209032 0.141097,-0.470323 0.141097,-0.783874 v -1.379619 c 0,-0.209033 -0.03135,-0.407614 -0.09407,-0.595746 -0.05226,-0.198581 -0.146325,-0.371034 -0.282193,-0.517357 -0.135873,-0.156775 -0.313551,-0.276969 -0.533036,-0.360582 -0.219484,-0.09406 -0.486001,-0.141096 -0.799551,-0.141096 -0.512131,0 -0.914521,0.141097 -1.207167,0.423291 -0.282194,0.282195 -0.423291,0.794326 -0.423291,1.536394 z"
     style="font-weight:bold;font-size:4.74057px;line-height:1.25;font-family:'나눔스퀘어';-inkscape-font-specification:'나눔스퀘어 Bold';opacity:0.2;fill:#000000;stroke-width:0.39194"
     id="path4137" />
  <path
     d="m 18.099664,19.989921 c -0.418067,0 -0.820455,-0.104516 -1.207167,-0.313548 -0.386711,-0.219486 -0.658455,-0.564392 -0.815229,-1.034716 h -0.01565 c -0.09408,0.250839 -0.235185,0.459872 -0.423312,0.627099 -0.18813,0.167227 -0.397163,0.303098 -0.6271,0.407615 -0.219484,0.104519 -0.444194,0.17768 -0.674131,0.219484 -0.229937,0.0418 -0.43897,0.0627 -0.6271,0.0627 -1.003359,0 -1.76633,-0.282196 -2.288914,-0.846585 -0.522593,-0.564386 -0.783889,-1.322131 -0.783889,-2.273231 v -1.222845 c 0,-0.961552 0.25084,-1.719298 0.752519,-2.273236 0.512131,-0.56439 1.207167,-0.846584 2.085106,-0.846584 0.585294,0 1.050392,0.08884 1.395297,0.266517 0.344905,0.177679 0.590519,0.391938 0.736842,0.642777 v -0.81523 h 1.473685 v 4.93841 c 0,0.438969 0.08884,0.762972 0.266518,0.972004 0.177678,0.198581 0.433744,0.297872 0.768197,0.297872 0.261292,0 0.491228,-0.04703 0.68981,-0.141096 0.198581,-0.10452 0.365808,-0.26652 0.501679,-0.486002 0.13587,-0.229937 0.240387,-0.522583 0.313548,-0.877939 0.07316,-0.365809 0.109742,-0.810004 0.109742,-1.332586 v -0.172445 c 0,-0.877939 -0.130646,-1.661814 -0.391937,-2.351623 -0.250834,-0.689811 -0.627091,-1.275106 -1.128771,-1.755883 -0.50168,-0.491227 -1.118329,-0.862261 -1.849945,-1.1131 -0.731616,-0.261292 -1.572974,-0.391938 -2.524076,-0.391938 -0.815229,0 -1.562523,0.130646 -2.241881,0.391938 -0.679358,0.261291 -1.264651,0.642777 -1.755879,1.144456 -0.480777,0.491228 -0.8570365,1.097424 -1.12878,1.818589 -0.2717429,0.721164 -0.4076143,1.536394 -0.4076143,2.445689 v 0.266518 c 0,0.972005 0.1306459,1.834266 0.3919378,2.586787 0.2717427,0.742067 0.6584545,1.36394 1.1601345,1.86562 0.501679,0.512132 1.113101,0.898843 1.834266,1.160135 0.731617,0.271743 1.552072,0.407615 2.461365,0.407615 0.783875,0 1.562524,-0.08884 2.335948,-0.266518 0.773422,-0.167226 1.484135,-0.418066 2.132138,-0.752521 l 0.43897,1.097424 c -0.658455,0.355357 -1.400523,0.6271 -2.226204,0.815231 -0.81523,0.198581 -1.693169,0.297872 -2.633818,0.297872 -1.128779,0 -2.137365,-0.167226 -3.025757,-0.501679 C 10.281821,22.618513 9.529302,22.137737 8.9126537,21.510637 8.2960055,20.883538 7.820455,20.125793 7.4860021,19.237401 7.1620007,18.34901 7,17.356102 7,16.258678 V 15.960805 C 7,14.957446 7.156775,14.032474 7.4703248,13.185891 7.7943263,12.328854 8.2489736,11.592013 8.8342668,10.975364 9.430011,10.358716 10.14595,9.8779391 10.982083,9.5330343 11.828667,9.1776781 12.779769,9 13.835386,9 c 1.160135,0 2.184398,0.1672267 3.072788,0.5016801 0.888391,0.3240014 1.635685,0.7838749 2.241882,1.3796189 0.606196,0.595745 1.066069,1.306458 1.379619,2.132139 C 20.843225,13.839118 21,14.748413 21,15.74132 v 0.203806 c 0,0.459873 -0.04703,0.930198 -0.141096,1.410974 -0.08362,0.470326 -0.235165,0.904071 -0.454649,1.301234 -0.219485,0.386711 -0.517357,0.705487 -0.893617,0.956327 -0.365808,0.25084 -0.836133,0.37626 -1.410974,0.37626 z M 12.18925,16.587906 c 0,0.595744 0.130645,1.071294 0.391937,1.42665 0.261291,0.344905 0.674132,0.517358 1.238522,0.517358 0.219484,0 0.428517,-0.02613 0.627099,-0.07839 0.209032,-0.05226 0.391936,-0.1411 0.548713,-0.266518 0.167225,-0.12542 0.297872,-0.292647 0.391937,-0.501681 0.09406,-0.209031 0.141097,-0.470323 0.141097,-0.783874 v -1.379618 c 0,-0.209032 -0.03135,-0.407614 -0.09407,-0.595745 -0.05226,-0.198582 -0.146325,-0.371034 -0.282194,-0.517357 -0.135872,-0.156775 -0.313551,-0.27697 -0.533035,-0.360582 -0.219484,-0.09406 -0.486001,-0.141096 -0.799551,-0.141096 -0.512131,0 -0.914521,0.141096 -1.207167,0.423291 -0.282194,0.282195 -0.423291,0.794326 -0.423291,1.536394 z"
     style="font-weight:bold;font-size:4.74057px;line-height:1.25;font-family:'나눔스퀘어';-inkscape-font-specification:'나눔스퀘어 Bold';fill:#ffffff;stroke-width:0.39194"
     id="path6805"
     sodipodi:nodetypes="scccscsscsscsscccscscccsscccsscssscccsccccssscsscccscsssscccsscsccssscccscss" />
  <path
     id="rect294"
     style="fill:#8ace64;fill-opacity:1;stroke-width:1.73205;stroke-linecap:round;stroke-linejoin:round"
     d="M 25 2.5 L 25 13 L 29.5 13 L 29.5 7 C 29.5 4.5070025 27.492998 2.5 25 2.5 z " />
  <rect
     style="fill:#e65b5b;fill-opacity:1;stroke-width:0.829156;stroke-linecap:round;stroke-linejoin:round"
     id="rect956"
     width="4.5"
     height="11"
     x="25"
     y="11" />
  <path
     id="rect1736"
     style="fill:#e6b45b;fill-opacity:1;stroke-width:1.5;stroke-linecap:round;stroke-linejoin:round"
     inkscape:label="rect1736"
     d="M 25 20 L 25 29.5 C 27.492998 29.5 29.5 27.492998 29.5 25 L 29.5 20 L 25 20 z " />
  <path
     id="rect4024"
     style="opacity:0.2;fill:#000000;fill-opacity:1;stroke-linecap:round;stroke-linejoin:round"
     d="m 25,11 v 1 h 4.5 v -1 z m 0,9 v 1 h 4.5 v -1 z"
     sodipodi:nodetypes="cccccccccc" />
  <path
     id="rect2630"
     style="opacity:0.3;fill:#ffffff;fill-opacity:1"
     d="M 7,3 C 4.7840022,3 3,4.7840022 3,6.9999998 v 1 C 3,5.7840022 4.7840022,4 7,4 h 18 c 2.215998,0 4,1.7840022 4,3.9999998 v -1 C 29,4.7840022 27.215998,3 25,3 Z" />
  <path
     id="rect398"
     style="opacity:0.3;fill:#ffffff"
     d="m 3.0000002,24 v 1 c 0,2.215998 1.7840022,4 4,4 H 25 c 2.215998,0 4,-1.784002 4,-4 v -1 c 0,2.215998 -1.784002,4 -4,4 H 7.0000002 c -2.2159978,0 -4,-1.784002 -4,-4 z" />
  <path
     id="rect899"
     style="fill:#000000;stroke:none;opacity:0.5"
     d="M 7 2 C 4.2300028 2 2 4.2300028 2 7 L 2 25 C 2 27.769997 4.2300028 30 7 30 L 25 30 C 27.769997 30 30 27.769997 30 25 L 30 7 C 30 4.2300028 27.769997 2 25 2 L 7 2 z M 7 3 L 25 3 C 27.215998 3 29 4.7840022 29 7 L 29 25 C 29 27.215998 27.215998 29 25 29 L 7 29 C 4.7840022 29 3 27.215998 3 25 L 3 7 C 3 4.7840022 4.7840022 3 7 3 z " />
</svg>
