<?xml version="1.0" encoding="UTF-8" standalone="no"?>
<!-- Created with Inkscape (http://www.inkscape.org/) -->

<svg
   width="32"
   height="32"
   viewBox="0 0 32 32.000001"
   version="1.1"
   id="svg5"
   sodipodi:docname="org.kde.kalendar.svg"
   inkscape:version="1.2.1 (9c6d41e410, 2022-07-14)"
   xmlns:inkscape="http://www.inkscape.org/namespaces/inkscape"
   xmlns:sodipodi="http://sodipodi.sourceforge.net/DTD/sodipodi-0.dtd"
   xmlns:xlink="http://www.w3.org/1999/xlink"
   xmlns="http://www.w3.org/2000/svg"
   xmlns:svg="http://www.w3.org/2000/svg">
  <sodipodi:namedview
     id="namedview7"
     pagecolor="#ffffff"
     bordercolor="#666666"
     borderopacity="1.0"
     inkscape:showpageshadow="2"
     inkscape:pageopacity="0.0"
     inkscape:pagecheckerboard="0"
     inkscape:deskcolor="#d1d1d1"
     inkscape:document-units="px"
     showgrid="false"
     inkscape:zoom="25.65625"
     inkscape:cx="15.980512"
     inkscape:cy="16"
     inkscape:window-width="1920"
     inkscape:window-height="1007"
     inkscape:window-x="0"
     inkscape:window-y="0"
     inkscape:window-maximized="1"
     inkscape:current-layer="svg5"
     showguides="false" />
  <defs
     id="defs2">
    <linearGradient
       inkscape:collect="always"
       xlink:href="#linearGradient7002"
       id="linearGradient8655"
       x1="25"
       y1="30"
       x2="7"
       y2="2"
       gradientUnits="userSpaceOnUse" />
    <linearGradient
       inkscape:collect="always"
       id="linearGradient7002">
      <stop
         style="stop-color:#0290e9;stop-opacity:1;"
         offset="0"
         id="stop6998" />
      <stop
         style="stop-color:#44d9ff;stop-opacity:1;"
         offset="1"
         id="stop7000" />
    </linearGradient>
  </defs>
  <rect
     style="fill:url(#linearGradient8655);fill-opacity:1.0;stroke:none"
     id="rect184"
     width="27"
     height="27"
     x="2.5"
     y="2.5"
     ry="4.5" />
  <path
     d="m 16,13 c -0.553999,0 -1,0.446001 -1,1 v 3 c 0,0.554 0.446001,1 1,1 h 3 c 0.553999,0 1,-0.446 1,-1 v -3 c 0,-0.553999 -0.446001,-1 -1,-1 z m 6,0 c -0.554,0 -1,0.446001 -1,1 v 3 c 0,0.554 0.446,1 1,1 h 3 c 0.553999,0 1,-0.446 1,-1 v -3 c 0,-0.553999 -0.446001,-1 -1,-1 z m -6,6 c -0.553999,0 -1,0.446 -1,1 v 3 c 0,0.554 0.446001,1 1,1 h 3 c 0.553999,0 1,-0.446 1,-1 v -3 c 0,-0.553999 -0.446001,-1 -1,-1 z m 6,0 c -0.554,0 -1,0.446 -1,1 v 3 c 0,0.554 0.446,1 1,1 h 3 c 0.553999,0 1,-0.446 1,-1 v -3 c 0,-0.553999 -0.446001,-1 -1,-1 z"
     style="opacity:0.2;fill:#000000;fill-opacity:1;stroke-width:0.5;stroke-linecap:round;stroke-linejoin:round"
     id="path28288"
     sodipodi:nodetypes="ssssssssssssssssssssssssssssssssssss" />
  <rect
     style="fill:#ffffff;fill-opacity:1;stroke-linecap:round;stroke-linejoin:round"
     id="rect8457"
     width="5"
     height="5"
     x="15"
     y="12.000013"
     ry="1" />
  <rect
     style="fill:#ffffff;fill-opacity:1;stroke-linecap:round;stroke-linejoin:round"
     id="rect10689"
     width="5"
     height="5"
     x="21"
     y="12.000013"
     ry="1" />
  <rect
     style="fill:#ffffff;fill-opacity:1;stroke-linecap:round;stroke-linejoin:round"
     id="rect12143"
     width="5"
     height="5"
     x="15"
     y="18"
     ry="1" />
  <rect
     style="fill:#ffffff;fill-opacity:1;stroke-linecap:round;stroke-linejoin:round"
     id="rect12145"
     width="5"
     height="5"
     x="21"
     y="18"
     ry="1" />
  <rect
     style="opacity:0.4;fill:#3daee9;fill-opacity:1;stroke-width:0.6;stroke-linecap:round;stroke-linejoin:round"
     id="rect23005"
     width="3"
     height="3"
     x="16"
     y="19" />
  <path
     id="rect23785"
     style="fill:#3daee9;fill-opacity:1;stroke-linecap:round;stroke-linejoin:round"
     d="m 19.330487,18.758285 -1.832434,1.831553 -0.771537,-0.771549 -0.707032,0.707031 0.914116,0.914127 0.0039,-0.0039 L 17.5,22 20.037513,19.465324 Z"
     sodipodi:nodetypes="ccccccccc" />
  <rect
     style="fill:#00789d;fill-opacity:1;stroke-width:0.500003;stroke-linecap:round;stroke-linejoin:round"
     id="rect17141"
     width="5.0000343"
     height="2.0000136"
     x="15"
     y="9"
     ry="0.5000034" />
  <rect
     style="fill:#00789d;fill-opacity:1;stroke-width:0.500003;stroke-linecap:round;stroke-linejoin:round"
     id="rect18595"
     width="5.0000343"
     height="2.0000136"
     x="21"
     y="9"
     ry="0.5000034" />
  <path
     id="rect294"
     style="opacity:0.8;fill:#115267;fill-opacity:1;stroke-width:0.5;stroke-linecap:round;stroke-linejoin:round"
     d="M 7 2.5 C 4.5070025 2.5 2.5 4.5070025 2.5 7 L 2.5 20.320312 L 5.0429688 16.869141 L 12.697266 29.5 L 16.697266 29.5 L 7.2382812 13.890625 L 15.630859 2.5 L 7 2.5 z " />
  <path
     id="rect2630"
     style="opacity:0.3;fill:#ffffff;fill-opacity:1"
     d="M 7,3 C 4.7840022,3 3,4.7840022 3,6.9999998 v 1 C 3,5.7840022 4.7840022,4 7,4 h 18 c 2.215998,0 4,1.7840022 4,3.9999998 v -1 C 29,4.7840022 27.215998,3 25,3 Z" />
  <path
     id="rect398"
     style="opacity:0.3;fill:#ffffff"
     d="m 3.0000002,24 v 1 c 0,2.215998 1.7840022,4 4,4 H 25 c 2.215998,0 4,-1.784002 4,-4 v -1 c 0,2.215998 -1.784002,4 -4,4 H 7.0000002 c -2.2159978,0 -4,-1.784002 -4,-4 z" />
  <path
     id="rect899"
     style="fill:#000000;stroke:none;opacity:0.5"
     d="M 7 2 C 4.2300028 2 2 4.2300028 2 7 L 2 25 C 2 27.769997 4.2300028 30 7 30 L 25 30 C 27.769997 30 30 27.769997 30 25 L 30 7 C 30 4.2300028 27.769997 2 25 2 L 7 2 z M 7 3 L 25 3 C 27.215998 3 29 4.7840022 29 7 L 29 25 C 29 27.215998 27.215998 29 25 29 L 7 29 C 4.7840022 29 3 27.215998 3 25 L 3 7 C 3 4.7840022 4.7840022 3 7 3 z " />
</svg>
