<?xml version="1.0" encoding="UTF-8" standalone="no"?>
<!-- Created with Inkscape (http://www.inkscape.org/) -->

<svg
   width="32"
   height="32"
   viewBox="0 0 32 32.000001"
   version="1.1"
   id="svg5"
   sodipodi:docname="org.gnome.Software.svg"
   inkscape:version="1.2.1 (9c6d41e410, 2022-07-14)"
   xmlns:inkscape="http://www.inkscape.org/namespaces/inkscape"
   xmlns:sodipodi="http://sodipodi.sourceforge.net/DTD/sodipodi-0.dtd"
   xmlns:xlink="http://www.w3.org/1999/xlink"
   xmlns="http://www.w3.org/2000/svg"
   xmlns:svg="http://www.w3.org/2000/svg">
  <sodipodi:namedview
     id="namedview7"
     pagecolor="#ffffff"
     bordercolor="#666666"
     borderopacity="1.0"
     inkscape:showpageshadow="2"
     inkscape:pageopacity="0.0"
     inkscape:pagecheckerboard="0"
     inkscape:deskcolor="#d1d1d1"
     inkscape:document-units="px"
     showgrid="false"
     inkscape:zoom="13"
     inkscape:cx="35.423078"
     inkscape:cy="25.769231"
     inkscape:window-width="1920"
     inkscape:window-height="1007"
     inkscape:window-x="0"
     inkscape:window-y="0"
     inkscape:window-maximized="1"
     inkscape:current-layer="svg5" />
  <defs
     id="defs2">
    <linearGradient
       inkscape:collect="always"
       xlink:href="#linearGradient1912"
       id="linearGradient8655"
       x1="25"
       y1="30"
       x2="7"
       y2="2"
       gradientUnits="userSpaceOnUse" />
    <linearGradient
       inkscape:collect="always"
       xlink:href="#linearGradient24599"
       id="linearGradient24601"
       x1="10.627575"
       y1="4.2302613"
       x2="10.627575"
       y2="7.9344277"
       gradientUnits="userSpaceOnUse"
       gradientTransform="matrix(2.1597301,0,0,2.1597301,-1.8571408,-3.142857)" />
    <linearGradient
       inkscape:collect="always"
       id="linearGradient24599">
      <stop
         style="stop-color:#404ce6;stop-opacity:1;"
         offset="0"
         id="stop24595" />
      <stop
         style="stop-color:#c061cb;stop-opacity:1"
         offset="1"
         id="stop24597" />
    </linearGradient>
    <linearGradient
       inkscape:collect="always"
       xlink:href="#linearGradient27108"
       id="linearGradient27110"
       x1="9.7895832"
       y1="11.292581"
       x2="13.493803"
       y2="11.292581"
       gradientUnits="userSpaceOnUse"
       gradientTransform="matrix(2.159699,0,0,2.159699,-1.8568718,-2.999712)" />
    <linearGradient
       inkscape:collect="always"
       id="linearGradient27108">
      <stop
         style="stop-color:#33d1c6;stop-opacity:1;"
         offset="0"
         id="stop27104" />
      <stop
         style="stop-color:#1c25d8;stop-opacity:1"
         offset="1"
         id="stop27106" />
    </linearGradient>
    <linearGradient
       inkscape:collect="always"
       xlink:href="#linearGradient23632"
       id="linearGradient993"
       x1="4.2333331"
       y1="8.4666662"
       x2="8.4666662"
       y2="8.4666672"
       gradientUnits="userSpaceOnUse"
       gradientTransform="matrix(1.8897638,0,0,1.8897638,-0.999999,-0.4999999)" />
    <linearGradient
       inkscape:collect="always"
       id="linearGradient23632">
      <stop
         style="stop-color:#ed336c;stop-opacity:1;"
         offset="0"
         id="stop23628" />
      <stop
         style="stop-color:#ffa348;stop-opacity:1"
         offset="1"
         id="stop23630" />
    </linearGradient>
    <linearGradient
       inkscape:collect="always"
       id="linearGradient1912">
      <stop
         style="stop-color:#dfdfdf;stop-opacity:1;"
         offset="0"
         id="stop1908" />
      <stop
         style="stop-color:#f2f2f2;stop-opacity:1;"
         offset="1"
         id="stop1910" />
    </linearGradient>
  </defs>
  <rect
     style="fill:url(#linearGradient8655);fill-opacity:1.0;stroke:none"
     id="rect184"
     width="27"
     height="27"
     x="2.5"
     y="2.5"
     ry="4.5" />
  <path
     d="m 21.000004,7 c -2.209139,0 -4,1.7908614 -4,3.999999 0,2.209139 1.790861,4.000001 4,4.000001 2.209139,0 4,-1.790862 4,-4.000001 C 25.000004,8.7908614 23.209143,7 21.000004,7 Z M 9.0000038,12.999999 c -1.107999,0 -2,0.892001 -2,2.000001 v 4 c 0,1.107999 0.892001,2 2,2 h 4.0000002 c 1.107999,0 2,-0.892001 2,-2 v -4 c 0,-1.108 -0.892001,-2.000001 -2,-2.000001 z M 23.523442,18 c -0.257786,-0.0045 -0.523458,0.05886 -0.773438,0.203125 l -5,2.886719 c -1.000079,0.577479 -1.000081,2.02018 0,2.597656 l 5,2.886719 c 1.000109,0.577161 2.24984,-0.144121 2.25,-1.298828 V 19.501953 C 24.999629,18.63608 24.296798,18.013543 23.523442,18 Z"
     style="fill:#000000;fill-opacity:1;stroke-width:0.6516;opacity:0.2"
     id="path7537" />
  <circle
     style="fill:url(#linearGradient24601);fill-opacity:1;stroke-width:0.6516"
     id="path23832"
     cx="21.000004"
     cy="10"
     r="4" />
  <path
     style="color:#000000;fill:url(#linearGradient27110);fill-opacity:1;stroke-width:0.238085;stroke-linecap:round;stroke-linejoin:round"
     d="m 22.749831,25.574632 c 1.00011,0.577162 2.25001,-0.144527 2.25017,-1.299236 v -5.773541 c -5e-4,-1.154498 -1.25025,-1.875823 -2.25017,-1.298763 l -4.99977,2.8863 c -1.00008,0.57748 -1.000082,2.020986 0,2.598463 z"
     id="path26141"
     sodipodi:nodetypes="ccccccc" />
  <rect
     style="fill:url(#linearGradient993);fill-opacity:1;stroke-width:0.499999;stroke-linejoin:round"
     id="rect985"
     width="8"
     height="8"
     x="7"
     y="12"
     ry="2" />
  <path
     id="rect2630"
     style="opacity:0.3;fill:#ffffff;fill-opacity:1"
     d="M 7,3 C 4.7840022,3 3,4.7840022 3,6.9999998 v 1 C 3,5.7840022 4.7840022,4 7,4 h 18 c 2.215998,0 4,1.7840022 4,3.9999998 v -1 C 29,4.7840022 27.215998,3 25,3 Z" />
  <path
     id="rect398"
     style="opacity:0.3;fill:#ffffff"
     d="m 3.0000002,24 v 1 c 0,2.215998 1.7840022,4 4,4 H 25 c 2.215998,0 4,-1.784002 4,-4 v -1 c 0,2.215998 -1.784002,4 -4,4 H 7.0000002 c -2.2159978,0 -4,-1.784002 -4,-4 z" />
  <path
     id="rect899"
     style="fill:#000000;stroke:none;opacity:0.5"
     d="M 7 2 C 4.2300028 2 2 4.2300028 2 7 L 2 25 C 2 27.769997 4.2300028 30 7 30 L 25 30 C 27.769997 30 30 27.769997 30 25 L 30 7 C 30 4.2300028 27.769997 2 25 2 L 7 2 z M 7 3 L 25 3 C 27.215998 3 29 4.7840022 29 7 L 29 25 C 29 27.215998 27.215998 29 25 29 L 7 29 C 4.7840022 29 3 27.215998 3 25 L 3 7 C 3 4.7840022 4.7840022 3 7 3 z " />
</svg>
