<?xml version="1.0" encoding="UTF-8" standalone="no"?>
<!-- Created with Inkscape (http://www.inkscape.org/) -->

<svg
   width="32"
   height="32"
   viewBox="0 0 32 32.000001"
   version="1.1"
   id="svg5"
   sodipodi:docname="preferences-security.svg"
   inkscape:version="1.2.1 (9c6d41e410, 2022-07-14)"
   xmlns:inkscape="http://www.inkscape.org/namespaces/inkscape"
   xmlns:sodipodi="http://sodipodi.sourceforge.net/DTD/sodipodi-0.dtd"
   xmlns:xlink="http://www.w3.org/1999/xlink"
   xmlns="http://www.w3.org/2000/svg"
   xmlns:svg="http://www.w3.org/2000/svg">
  <sodipodi:namedview
     id="namedview7"
     pagecolor="#ffffff"
     bordercolor="#666666"
     borderopacity="1.0"
     inkscape:showpageshadow="2"
     inkscape:pageopacity="0.0"
     inkscape:pagecheckerboard="0"
     inkscape:deskcolor="#d1d1d1"
     inkscape:document-units="px"
     showgrid="false"
     inkscape:zoom="29.321429"
     inkscape:cx="15.995128"
     inkscape:cy="16.01218"
     inkscape:window-width="1920"
     inkscape:window-height="1007"
     inkscape:window-x="0"
     inkscape:window-y="0"
     inkscape:window-maximized="1"
     inkscape:current-layer="svg5" />
  <defs
     id="defs2">
    <linearGradient
       inkscape:collect="always"
       xlink:href="#linearGradient2543"
       id="linearGradient16885"
       x1="25"
       y1="30"
       x2="7"
       y2="2"
       gradientUnits="userSpaceOnUse" />
    <linearGradient
       inkscape:collect="always"
       id="linearGradient2543">
      <stop
         style="stop-color:#5984da;stop-opacity:1;"
         offset="0"
         id="stop2539" />
      <stop
         style="stop-color:#c989ed;stop-opacity:1;"
         offset="1"
         id="stop2541" />
    </linearGradient>
  </defs>
  <rect
     style="fill:url(#linearGradient16885);fill-opacity:1.0;stroke:none"
     id="rect184"
     width="27"
     height="27"
     x="2.5"
     y="2.5"
     ry="4.5" />
  <path
     id="path4328"
     style="opacity:0.2;fill:#000000;stroke-width:1.66667;stroke-linecap:round;stroke-linejoin:round"
     d="M 16 7 C 16 7 11.333393 9 8 9 L 8 17 C 8 21.99999 13.176186 26.166669 16 27 C 19.005749 26.166669 24 21.99999 24 17 L 24 9 C 20.666608 9 16 7 16 7 z M 16 12 C 17.661998 12 19 13.338002 19 15 L 19 16 C 19.553999 16 20 16.446001 20 17 L 20 20 C 20 20.553999 19.553999 21 19 21 L 13 21 C 12.446001 21 12 20.553999 12 20 L 12 17 C 12 16.446001 12.446001 16 13 16 L 13 15 C 13 13.338002 14.338002 12 16 12 z M 16 13 C 14.892001 13 14 13.892001 14 15 L 14 16 L 18 16 L 18 15 C 18 13.892001 17.107999 13 16 13 z " />
  <path
     id="rect3473"
     style="fill:#ffffff;stroke-width:1.66667;stroke-linecap:round;stroke-linejoin:round"
     d="M 16 6 C 16 6 11.333392 8 8 8 L 8 16 C 8 20.99999 13.176187 25.166669 16 26 C 19.005749 25.166669 24 20.99999 24 16 L 24 8 C 20.666608 8 16 6 16 6 z M 16 11 C 17.661998 11 19 12.338002 19 14 L 19 15 C 19.553999 15 20 15.446001 20 16 L 20 19 C 20 19.553999 19.553999 20 19 20 L 13 20 C 12.446001 20 12 19.553999 12 19 L 12 16 C 12 15.446001 12.446001 15 13 15 L 13 14 C 13 12.338002 14.338002 11 16 11 z M 16 12 C 14.892001 12 14 12.892001 14 14 L 14 15 L 18 15 L 18 14 C 18 12.892001 17.107999 12 16 12 z " />
  <path
     id="rect2630"
     style="opacity:0.3;fill:#ffffff;fill-opacity:1"
     d="M 7,3 C 4.7840022,3 3,4.7840022 3,6.9999998 v 1 C 3,5.7840022 4.7840022,4 7,4 h 18 c 2.215998,0 4,1.7840022 4,3.9999998 v -1 C 29,4.7840022 27.215998,3 25,3 Z" />
  <path
     id="rect398"
     style="opacity:0.3;fill:#ffffff"
     d="m 3.0000002,24 v 1 c 0,2.215998 1.7840022,4 4,4 H 25 c 2.215998,0 4,-1.784002 4,-4 v -1 c 0,2.215998 -1.784002,4 -4,4 H 7.0000002 c -2.2159978,0 -4,-1.784002 -4,-4 z" />
  <path
     id="rect899"
     style="fill:#000000;stroke:none;opacity:0.5"
     d="M 7 2 C 4.2300028 2 2 4.2300028 2 7 L 2 25 C 2 27.769997 4.2300028 30 7 30 L 25 30 C 27.769997 30 30 27.769997 30 25 L 30 7 C 30 4.2300028 27.769997 2 25 2 L 7 2 z M 7 3 L 25 3 C 27.215998 3 29 4.7840022 29 7 L 29 25 C 29 27.215998 27.215998 29 25 29 L 7 29 C 4.7840022 29 3 27.215998 3 25 L 3 7 C 3 4.7840022 4.7840022 3 7 3 z " />
</svg>
