<?xml version="1.0" encoding="UTF-8" standalone="no"?>
<!-- Created with Inkscape (http://www.inkscape.org/) -->

<svg
   width="32"
   height="32"
   viewBox="0 0 32 32.000001"
   version="1.1"
   id="svg5"
   sodipodi:docname="preferences-desktop-gestures-touch.svg"
   inkscape:version="1.2.1 (9c6d41e410, 2022-07-14)"
   xmlns:inkscape="http://www.inkscape.org/namespaces/inkscape"
   xmlns:sodipodi="http://sodipodi.sourceforge.net/DTD/sodipodi-0.dtd"
   xmlns:xlink="http://www.w3.org/1999/xlink"
   xmlns="http://www.w3.org/2000/svg"
   xmlns:svg="http://www.w3.org/2000/svg">
  <sodipodi:namedview
     id="namedview7"
     pagecolor="#ffffff"
     bordercolor="#666666"
     borderopacity="1.0"
     inkscape:showpageshadow="2"
     inkscape:pageopacity="0.0"
     inkscape:pagecheckerboard="0"
     inkscape:deskcolor="#d1d1d1"
     inkscape:document-units="px"
     showgrid="false"
     inkscape:zoom="25.65625"
     inkscape:cx="15.980512"
     inkscape:cy="16"
     inkscape:window-width="1920"
     inkscape:window-height="1007"
     inkscape:window-x="0"
     inkscape:window-y="0"
     inkscape:window-maximized="1"
     inkscape:current-layer="svg5"
     showguides="false" />
  <defs
     id="defs2">
    <linearGradient
       inkscape:collect="always"
       id="linearGradient2190">
      <stop
         style="stop-color:#ffffff;stop-opacity:1;"
         offset="0"
         id="stop2186" />
      <stop
         style="stop-color:#ffffff;stop-opacity:0;"
         offset="1"
         id="stop2188" />
    </linearGradient>
    <linearGradient
       inkscape:collect="always"
       xlink:href="#linearGradient21236"
       id="linearGradient8655"
       x1="25"
       y1="30"
       x2="25"
       y2="2"
       gradientUnits="userSpaceOnUse" />
    <linearGradient
       inkscape:collect="always"
       id="linearGradient21236">
      <stop
         style="stop-color:#3689e6;stop-opacity:1;"
         offset="0"
         id="stop21232" />
      <stop
         style="stop-color:#5dcffc;stop-opacity:1;"
         offset="1"
         id="stop21234" />
    </linearGradient>
    <linearGradient
       inkscape:collect="always"
       xlink:href="#linearGradient2190"
       id="linearGradient2192"
       x1="15"
       y1="11"
       x2="7"
       y2="11"
       gradientUnits="userSpaceOnUse" />
  </defs>
  <rect
     style="fill:url(#linearGradient8655);fill-opacity:1.0;stroke:none"
     id="rect184"
     width="27"
     height="27"
     x="2.5"
     y="2.5"
     ry="4.5" />
  <rect
     style="opacity:0.6;fill:url(#linearGradient2192);stroke-linecap:round;stroke-linejoin:round;fill-opacity:1"
     id="rect2184"
     width="8"
     height="4"
     x="7"
     y="9" />
  <path
     d="m 15,10 c -0.553998,0 -1,0.446001 -1,1 v 7.759767 l -2.171875,-2.171876 c -0.783473,-0.783474 -2.044652,-0.783474 -2.8281252,0 2.5353822,2.805325 4.6214832,7.41211 6.0000002,7.41211 h 6 L 22,17 c 0,-0.553998 -0.446002,-1 -1,-1 -0.553998,0 -1,0.446002 -1,1 v -1 c 0,-0.553998 -0.446002,-1 -1,-1 -0.553998,0 -1,0.446002 -1,1 v -1 c 0,-0.553998 -0.446002,-1 -1,-1 -0.553998,0 -1,0.446002 -1,1 v -4 c 0,-0.553999 -0.446002,-1 -1,-1 z"
     style="fill:#000000;stroke-linecap:round;stroke-linejoin:round;opacity:0.2"
     id="path1379" />
  <path
     id="rect701"
     style="opacity:1;fill:#ffffff;stroke-linecap:round;stroke-linejoin:round"
     d="m 15,9 c -0.553998,0 -1,0.4460012 -1,1 v 7.759766 L 11.828125,15.587891 C 11.044652,14.804417 9.7834732,14.804417 9,15.587891 11.535382,18.393215 13.621483,23 15,23 h 6 l 1,-7 c 0,-0.553998 -0.446002,-1 -1,-1 -0.553998,0 -1,0.446002 -1,1 v -1 c 0,-0.553998 -0.446002,-1 -1,-1 -0.553998,0 -1,0.446002 -1,1 v -1 c 0,-0.553998 -0.446002,-1 -1,-1 -0.553998,0 -1,0.446002 -1,1 V 10 C 16,9.4460012 15.553998,9 15,9 Z"
     sodipodi:nodetypes="sscsccccscsscsscss" />
  <path
     id="rect2630"
     style="opacity:0.3;fill:#ffffff;fill-opacity:1"
     d="M 7,3 C 4.7840022,3 3,4.7840022 3,6.9999998 v 1 C 3,5.7840022 4.7840022,4 7,4 h 18 c 2.215998,0 4,1.7840022 4,3.9999998 v -1 C 29,4.7840022 27.215998,3 25,3 Z" />
  <path
     id="rect398"
     style="opacity:0.3;fill:#ffffff"
     d="m 3.0000002,24 v 1 c 0,2.215998 1.7840022,4 4,4 H 25 c 2.215998,0 4,-1.784002 4,-4 v -1 c 0,2.215998 -1.784002,4 -4,4 H 7.0000002 c -2.2159978,0 -4,-1.784002 -4,-4 z" />
  <path
     id="rect899"
     style="fill:#000000;stroke:none;opacity:0.5"
     d="M 7 2 C 4.2300028 2 2 4.2300028 2 7 L 2 25 C 2 27.769997 4.2300028 30 7 30 L 25 30 C 27.769997 30 30 27.769997 30 25 L 30 7 C 30 4.2300028 27.769997 2 25 2 L 7 2 z M 7 3 L 25 3 C 27.215998 3 29 4.7840022 29 7 L 29 25 C 29 27.215998 27.215998 29 25 29 L 7 29 C 4.7840022 29 3 27.215998 3 25 L 3 7 C 3 4.7840022 4.7840022 3 7 3 z " />
</svg>
