<?xml version="1.0" encoding="UTF-8" standalone="no"?>
<!-- Created with Inkscape (http://www.inkscape.org/) -->

<svg
   width="32"
   height="32"
   viewBox="0 0 32 32.000001"
   version="1.1"
   id="svg5"
   sodipodi:docname="preferences-desktop-keyboard.svg"
   inkscape:version="1.2.1 (9c6d41e410, 2022-07-14)"
   xmlns:inkscape="http://www.inkscape.org/namespaces/inkscape"
   xmlns:sodipodi="http://sodipodi.sourceforge.net/DTD/sodipodi-0.dtd"
   xmlns:xlink="http://www.w3.org/1999/xlink"
   xmlns="http://www.w3.org/2000/svg"
   xmlns:svg="http://www.w3.org/2000/svg">
  <sodipodi:namedview
     id="namedview7"
     pagecolor="#ffffff"
     bordercolor="#666666"
     borderopacity="1.0"
     inkscape:showpageshadow="2"
     inkscape:pageopacity="0.0"
     inkscape:pagecheckerboard="0"
     inkscape:deskcolor="#d1d1d1"
     inkscape:document-units="px"
     showgrid="false"
     inkscape:zoom="24.75"
     inkscape:cx="15.979798"
     inkscape:cy="16"
     inkscape:window-width="1920"
     inkscape:window-height="1007"
     inkscape:window-x="0"
     inkscape:window-y="0"
     inkscape:window-maximized="1"
     inkscape:current-layer="svg5" />
  <defs
     id="defs2">
    <linearGradient
       inkscape:collect="always"
       xlink:href="#linearGradient22024"
       id="linearGradient8655"
       x1="25"
       y1="30"
       x2="7"
       y2="2"
       gradientUnits="userSpaceOnUse" />
    <linearGradient
       inkscape:collect="always"
       id="linearGradient22024">
      <stop
         style="stop-color:#cdcdcd;stop-opacity:1;"
         offset="0"
         id="stop22020" />
      <stop
         style="stop-color:#eff0f1;stop-opacity:1;"
         offset="1"
         id="stop22022" />
    </linearGradient>
  </defs>
  <rect
     style="fill:url(#linearGradient8655);fill-opacity:1;stroke:none"
     id="rect184"
     width="27"
     height="27"
     x="2.5"
     y="2.5"
     ry="4.5" />
  <path
     d="M 5.9999999,8 C 5.4460005,8 5,8.4460005 5,8.9999999 V 11 c 0,0.553999 0.4460005,1 0.9999999,1 H 8 c 0.5539993,0 0.9999998,-0.446001 0.9999998,-1 V 8.9999999 C 8.9999998,8.4460005 8.5539993,8 8,8 Z M 12,8 C 11.446001,8 11,8.4460005 11,8.9999999 V 11 c 0,0.553999 0.446001,1 1,1 h 2 c 0.554,0 1,-0.446001 1,-1 V 8.9999999 C 15,8.4460005 14.554,8 14,8 Z m 6,0 C 17.446,8 17,8.4460005 17,8.9999999 V 11 c 0,0.553999 0.446,1 1,1 h 2 c 0.553999,0 1,-0.446001 1,-1 V 8.9999999 C 21,8.4460005 20.553999,8 20,8 Z m 6,0 C 23.446,8 23,8.4460005 23,8.9999999 V 11 c 0,0.553999 0.446,1 1,1 h 2 c 0.553999,0 1,-0.446001 1,-1 V 8.9999999 C 27,8.4460005 26.553999,8 26,8 Z M 5.9999999,14 C 5.4460005,14 5,14.446 5,15 v 2 c 0,0.553999 0.4460005,1 0.9999999,1 H 8 c 0.5539993,0 0.9999998,-0.446001 0.9999998,-1 V 15 C 8.9999998,14.446 8.5539993,14 8,14 Z M 12,14 c -0.553999,0 -1,0.446 -1,1 v 2 c 0,0.553999 0.446001,1 1,1 h 2 c 0.554,0 1,-0.446001 1,-1 v -2 c 0,-0.554 -0.446,-1 -1,-1 z m 6,0 c -0.554,0 -1,0.446 -1,1 v 2 c 0,0.553999 0.446,1 1,1 h 2 c 0.553999,0 1,-0.446001 1,-1 v -2 c 0,-0.554 -0.446001,-1 -1,-1 z m 6,0 c -0.554,0 -1,0.446 -1,1 v 2 c 0,0.553999 0.446,1 1,1 h 2 c 0.553999,0 1,-0.446001 1,-1 v -2 c 0,-0.554 -0.446001,-1 -1,-1 z M 9.9999997,20 c -0.5539994,0 -0.9999999,0.446 -0.9999999,1 v 2 c 0,0.553999 0.4460005,1 0.9999999,1 H 22 c 0.553999,0 1,-0.446001 1,-1 v -2 c 0,-0.554 -0.446001,-1 -1,-1 z"
     style="fill:#afafaf;fill-opacity:1;stroke-width:0.999999;stroke-linecap:round;stroke-linejoin:round"
     id="path1728" />
  <path
     id="path1695"
     style="opacity:0.2;fill:#000000;fill-opacity:0.961371;stroke-width:0.999999;stroke-linecap:round;stroke-linejoin:round"
     d="M 6,8 C 5.4460012,8 5,8.4460013 5,9 v 1 C 5,9.446001 5.4460012,9 6,9 h 2 c 0.5539987,0 1,0.446001 1,1 V 9 C 9,8.4460013 8.5539987,8 8,8 Z m 6,0 c -0.553998,0 -1,0.4460013 -1,1 v 1 c 0,-0.553999 0.446002,-1 1,-1 h 2 c 0.553999,0 1,0.446001 1,1 V 9 C 15,8.4460013 14.553999,8 14,8 Z m 6,0 c -0.553999,0 -1,0.4460013 -1,1 v 1 c 0,-0.553999 0.446001,-1 1,-1 h 2 c 0.553998,0 1,0.446001 1,1 V 9 C 21,8.4460013 20.553998,8 20,8 Z m 6,0 c -0.553999,0 -1,0.4460013 -1,1 v 1 c 0,-0.553999 0.446001,-1 1,-1 h 2 c 0.553998,0 1,0.446001 1,1 V 9 C 27,8.4460013 26.553998,8 26,8 Z M 6,14 c -0.5539988,0 -1,0.446001 -1,1 v 1 c 0,-0.553999 0.4460012,-1 1,-1 h 2 c 0.5539987,0 1,0.446001 1,1 V 15 C 9,14.446001 8.5539987,14 8,14 Z m 6,0 c -0.553998,0 -1,0.446001 -1,1 v 1 c 0,-0.553999 0.446002,-1 1,-1 h 2 c 0.553999,0 1,0.446001 1,1 v -1 c 0,-0.553999 -0.446001,-1 -1,-1 z m 6,0 c -0.553999,0 -1,0.446001 -1,1 v 1 c 0,-0.553999 0.446001,-1 1,-1 h 2 c 0.553998,0 1,0.446001 1,1 v -1 c 0,-0.553999 -0.446002,-1 -1,-1 z m 6,0 c -0.553999,0 -1,0.446001 -1,1 v 1 c 0,-0.553999 0.446001,-1 1,-1 h 2 c 0.553998,0 1,0.446001 1,1 v -1 c 0,-0.553999 -0.446002,-1 -1,-1 z m -14,6 c -0.5539988,0 -1,0.446002 -1,1 v 1 c 0,-0.553998 0.4460012,-1 1,-1 h 12 c 0.553998,0 1,0.446002 1,1 v -1 c 0,-0.553998 -0.446002,-1 -1,-1 z" />
  <path
     id="rect2630"
     style="opacity:0.3;fill:#ffffff;fill-opacity:1"
     d="M 7,3 C 4.7840022,3 3,4.7840022 3,6.9999998 v 1 C 3,5.7840022 4.7840022,4 7,4 h 18 c 2.215998,0 4,1.7840022 4,3.9999998 v -1 C 29,4.7840022 27.215998,3 25,3 Z" />
  <path
     id="rect398"
     style="opacity:0.3;fill:#ffffff"
     d="m 3.0000002,24 v 1 c 0,2.215998 1.7840022,4 4,4 H 25 c 2.215998,0 4,-1.784002 4,-4 v -1 c 0,2.215998 -1.784002,4 -4,4 H 7.0000002 c -2.2159978,0 -4,-1.784002 -4,-4 z" />
  <path
     id="rect899"
     style="fill:#000000;stroke:none;opacity:0.5"
     d="M 7 2 C 4.2300028 2 2 4.2300028 2 7 L 2 25 C 2 27.769997 4.2300028 30 7 30 L 25 30 C 27.769997 30 30 27.769997 30 25 L 30 7 C 30 4.2300028 27.769997 2 25 2 L 7 2 z M 7 3 L 25 3 C 27.215998 3 29 4.7840022 29 7 L 29 25 C 29 27.215998 27.215998 29 25 29 L 7 29 C 4.7840022 29 3 27.215998 3 25 L 3 7 C 3 4.7840022 4.7840022 3 7 3 z " />
</svg>
