<?xml version="1.0" encoding="UTF-8" standalone="no"?>
<!-- Created with Inkscape (http://www.inkscape.org/) -->

<svg
   width="32"
   height="32"
   viewBox="0 0 32 32.000001"
   version="1.1"
   id="svg5"
   sodipodi:docname="preferences-desktop-theme-windowdecorations.svg"
   inkscape:version="1.2.1 (9c6d41e410, 2022-07-14)"
   xmlns:inkscape="http://www.inkscape.org/namespaces/inkscape"
   xmlns:sodipodi="http://sodipodi.sourceforge.net/DTD/sodipodi-0.dtd"
   xmlns:xlink="http://www.w3.org/1999/xlink"
   xmlns="http://www.w3.org/2000/svg"
   xmlns:svg="http://www.w3.org/2000/svg">
  <sodipodi:namedview
     id="namedview7"
     pagecolor="#ffffff"
     bordercolor="#666666"
     borderopacity="1.0"
     inkscape:showpageshadow="2"
     inkscape:pageopacity="0.0"
     inkscape:pagecheckerboard="0"
     inkscape:deskcolor="#d1d1d1"
     inkscape:document-units="px"
     showgrid="false"
     inkscape:zoom="24.84375"
     inkscape:cx="15.979874"
     inkscape:cy="16"
     inkscape:window-width="1920"
     inkscape:window-height="1007"
     inkscape:window-x="0"
     inkscape:window-y="0"
     inkscape:window-maximized="1"
     inkscape:current-layer="svg5" />
  <defs
     id="defs2">
    <linearGradient
       inkscape:collect="always"
       xlink:href="#linearGradient22024"
       id="linearGradient8655"
       x1="16"
       y1="30"
       x2="16"
       y2="9"
       gradientUnits="userSpaceOnUse" />
    <linearGradient
       inkscape:collect="always"
       id="linearGradient22024">
      <stop
         style="stop-color:#dedede;stop-opacity:1;"
         offset="0"
         id="stop22020" />
      <stop
         style="stop-color:#f2f2f2;stop-opacity:1;"
         offset="1"
         id="stop22022" />
    </linearGradient>
  </defs>
  <rect
     style="fill:url(#linearGradient8655);fill-opacity:1.0;stroke:none"
     id="rect184"
     width="27"
     height="27"
     x="2.5"
     y="2.5"
     ry="4.5" />
  <path
     d="m 21.634866,14.005979 c -0.903476,-0.113887 -3.260298,1.501598 -5.583061,3.825276 -1.035815,1.036441 -1.934772,2.060669 -2.623286,3.026741 0.80695,0.257095 1.457298,0.907014 1.71426,1.71426 0.965703,-0.688714 1.992255,-1.583756 3.028413,-2.619939 2.635264,-2.63636 4.296842,-5.24807 3.711439,-5.834175 -0.06017,-0.0606 -0.142262,-0.09863 -0.247765,-0.112163 z m -8.634912,7.992066 v 0.0017 C 10.000162,22.803906 12.24984,24.703503 10,26.000768 c 2.999792,0 4.499932,-1.501539 4.499932,-2.502752 0,-0.499089 0.05087,-1.41692 -1.499978,-1.499976 z"
     style="color:#444444;opacity:0.2;fill:#000000;stroke-width:0.85713"
     id="path11335" />
  <path
     d="m 21.634866,13.005662 c -0.903477,-0.113887 -3.260299,1.501598 -5.583061,3.825277 -1.035816,1.03644 -1.934772,2.060667 -2.623286,3.026738 0.806949,0.257096 1.457298,0.907015 1.71426,1.71426 0.965702,-0.688712 1.992254,-1.583754 3.028412,-2.619937 2.635265,-2.636359 4.296842,-5.248069 3.71144,-5.834175 -0.06017,-0.0606 -0.142262,-0.09863 -0.247765,-0.112163 z m -8.634913,7.992065 v 0.0017 C 10.000162,21.803589 12.24984,23.703185 10,25.000449 c 2.999791,0 4.499932,-1.501538 4.499932,-2.50275 0,-0.499089 0.05087,-1.41692 -1.499979,-1.499976 z"
     style="color:#444444;fill:#4d4d4d;stroke-width:0.85713;fill-opacity:1"
     id="path347"
     sodipodi:nodetypes="ccccccccccscc" />
  <path
     id="rect348"
     style="fill:#6a747d;fill-opacity:1;stroke-width:0.5;stroke-linejoin:round"
     d="M 7,2.5 C 4.5070025,2.5 2.5,4.5070025 2.5,7 v 3 h 27 V 7 C 29.5,4.5070025 27.492998,2.5 25,2.5 Z"
     sodipodi:nodetypes="ssccsss" />
  <path
     id="path294"
     style="opacity:0.2;fill:#000000;stroke-width:1.125;stroke-linecap:round;stroke-linejoin:round"
     d="M 16.5,6 A 1.5,1.5 0 0 0 15,7.5 1.5,1.5 0 0 0 16.5,9 1.5,1.5 0 0 0 18,7.5 1.5,1.5 0 0 0 16.5,6 Z M 21,6 A 1.5,1.5 0 0 0 19.5,7.5 1.5,1.5 0 0 0 21,9 1.5,1.5 0 0 0 22.5,7.5 1.5,1.5 0 0 0 21,6 Z m 4.5,0 A 1.5,1.5 0 0 0 24,7.5 1.5,1.5 0 0 0 25.5,9 1.5,1.5 0 0 0 27,7.5 1.5,1.5 0 0 0 25.5,6 Z" />
  <path
     id="path354"
     style="fill:#ffffff;stroke-width:1.5;stroke-linecap:round;stroke-linejoin:round"
     d="M 16.5,5 A 1.5,1.5 0 0 0 15,6.5 1.5,1.5 0 0 0 16.5,8 1.5,1.5 0 0 0 18,6.5 1.5,1.5 0 0 0 16.5,5 Z M 21,5 A 1.5,1.5 0 0 0 19.5,6.5 1.5,1.5 0 0 0 21,8 1.5,1.5 0 0 0 22.5,6.5 1.5,1.5 0 0 0 21,5 Z m 4.5,0 A 1.5,1.5 0 0 0 24,6.5 1.5,1.5 0 0 0 25.5,8 1.5,1.5 0 0 0 27,6.5 1.5,1.5 0 0 0 25.5,5 Z" />
  <rect
     style="opacity:0.2;fill:#000000;stroke-width:0.64952;stroke-linejoin:round"
     id="rect581"
     width="27"
     height="1"
     x="2.5"
     y="9" />
  <path
     id="rect2630"
     style="opacity:0.3;fill:#ffffff;fill-opacity:1"
     d="M 7,3 C 4.7840022,3 3,4.7840022 3,6.9999998 v 1 C 3,5.7840022 4.7840022,4 7,4 h 18 c 2.215998,0 4,1.7840022 4,3.9999998 v -1 C 29,4.7840022 27.215998,3 25,3 Z" />
  <path
     id="rect398"
     style="opacity:0.3;fill:#ffffff"
     d="m 3.0000002,24 v 1 c 0,2.215998 1.7840022,4 4,4 H 25 c 2.215998,0 4,-1.784002 4,-4 v -1 c 0,2.215998 -1.784002,4 -4,4 H 7.0000002 c -2.2159978,0 -4,-1.784002 -4,-4 z" />
  <path
     id="rect899"
     style="fill:#000000;stroke:none;opacity:0.5"
     d="M 7 2 C 4.2300028 2 2 4.2300028 2 7 L 2 25 C 2 27.769997 4.2300028 30 7 30 L 25 30 C 27.769997 30 30 27.769997 30 25 L 30 7 C 30 4.2300028 27.769997 2 25 2 L 7 2 z M 7 3 L 25 3 C 27.215998 3 29 4.7840022 29 7 L 29 25 C 29 27.215998 27.215998 29 25 29 L 7 29 C 4.7840022 29 3 27.215998 3 25 L 3 7 C 3 4.7840022 4.7840022 3 7 3 z " />
</svg>
