<?xml version="1.0" encoding="UTF-8" standalone="no"?>
<!-- Created with Inkscape (http://www.inkscape.org/) -->

<svg
   width="32"
   height="32"
   viewBox="0 0 32 32.000001"
   version="1.1"
   id="svg5"
   sodipodi:docname="preferences-activities.svg"
   inkscape:version="1.2.1 (9c6d41e410, 2022-07-14)"
   xmlns:inkscape="http://www.inkscape.org/namespaces/inkscape"
   xmlns:sodipodi="http://sodipodi.sourceforge.net/DTD/sodipodi-0.dtd"
   xmlns:xlink="http://www.w3.org/1999/xlink"
   xmlns="http://www.w3.org/2000/svg"
   xmlns:svg="http://www.w3.org/2000/svg">
  <sodipodi:namedview
     id="namedview7"
     pagecolor="#ffffff"
     bordercolor="#666666"
     borderopacity="1.0"
     inkscape:showpageshadow="2"
     inkscape:pageopacity="0.0"
     inkscape:pagecheckerboard="0"
     inkscape:deskcolor="#d1d1d1"
     inkscape:document-units="px"
     showgrid="false"
     inkscape:zoom="17.456699"
     inkscape:cx="14.292508"
     inkscape:cy="18.961203"
     inkscape:window-width="1920"
     inkscape:window-height="1002"
     inkscape:window-x="0"
     inkscape:window-y="0"
     inkscape:window-maximized="1"
     inkscape:current-layer="svg5" />
  <defs
     id="defs2">
    <linearGradient
       inkscape:collect="always"
       xlink:href="#linearGradient1227"
       id="linearGradient8655"
       x1="16"
       y1="30"
       x2="16"
       y2="2"
       gradientUnits="userSpaceOnUse" />
    <linearGradient
       inkscape:collect="always"
       id="linearGradient1227">
      <stop
         style="stop-color:#565f76;stop-opacity:1;"
         offset="0"
         id="stop1223" />
      <stop
         style="stop-color:#a3a5b6;stop-opacity:1;"
         offset="1"
         id="stop1225" />
    </linearGradient>
  </defs>
  <rect
     style="fill:url(#linearGradient8655);fill-opacity:1.0;stroke:none"
     id="rect184"
     width="27"
     height="27"
     x="2.5"
     y="2.5"
     ry="4.5" />
  <path
     d="m 22.288671,9.389874 c 0,0 -0.353354,0.160205 -1.164749,0.834539 -0.992289,0.8244 -1.606784,0.75794 -2.332734,0.636235 l -0.0057,0.0057 c -0.13829,-0.06314 -0.278095,-0.12229 -0.419944,-0.17536 v -0.0057 C 17.766069,10.258343 17.284754,9.870318 17.166009,8.585689 17.068869,7.5356 16.932514,7.1719 16.932514,7.1719 16.536929,6.999955 15.999285,7.00001 15.999285,7.00001 c 0,0 -0.53779,5.5e-5 -0.933075,0.172035 0,0 -0.13672,0.363395 -0.233605,1.413674 -0.11872,1.284569 -0.600309,1.672439 -1.199539,2.099594 l -10e-4,0.0071 c -0.14172,0.053 -0.281125,0.11229 -0.419915,0.17535 l -0.0057,-0.0057 c -0.725894,0.12186 -1.340614,0.187935 -2.332949,-0.636395 C 10.062408,9.551749 9.708808,9.391129 9.708808,9.391129 9.308423,9.548379 8.928343,9.928458 8.928343,9.928458 c 0,0 -0.380254,0.380255 -0.538134,0.7815 0,0 0.160565,0.353695 0.834454,1.164764 0.824385,0.992275 0.75804,1.607255 0.636425,2.332919 l 0.0057,0.0057 c -0.06286,0.138435 -0.12229,0.278135 -0.175535,0.41977 h -0.0057 c -0.42683,0.599575 -0.814885,1.080894 -2.099414,1.199769 -1.050059,0.097 -1.413999,0.233805 -1.413999,0.233805 -0.17182,0.39573 -0.17185,0.932605 -0.17185,0.932605 0,0 2.85e-4,0.53803 0.172135,0.933255 0,0 0.36331,0.136865 1.413574,0.23344 1.284499,0.11886 1.671924,0.600774 2.099379,1.199764 h 0.0057 c 0.05314,0.141865 0.112435,0.28137 0.17531,0.419985 l -0.0057,0.0057 c 0.122145,0.725854 0.188105,1.340474 -0.636195,2.332704 -0.673889,0.811269 -0.834554,1.165409 -0.834554,1.165409 0.158465,0.401215 0.538159,0.78091 0.538159,0.78091 0,0 0.380385,0.380399 0.781495,0.538149 0,0 0.35357,-0.160035 1.164624,-0.834384 0.992365,-0.82427 1.60717,-0.757495 2.332904,-0.636335 l 0.0057,-0.0057 c 0.138865,0.06301 0.27818,0.122435 0.419985,0.17532 l -0.001,0.0071 c 0.59965,0.42691 1.080879,0.81488 1.199769,2.099369 0.097,1.050119 0.233705,1.414169 0.233705,1.414169 0.39576,0.17161 0.93276,0.171865 0.93276,0.171865 0,0 0.538034,-1.45e-4 0.933104,-0.17235 0,0 0.13686,-0.362965 0.23358,-1.413414 0.11886,-1.284484 0.600945,-1.672084 1.19962,-2.099469 l -10e-4,-0.0071 c 0.141719,-0.053 0.281254,-0.112575 0.419944,-0.175375 l 0.0057,0.0057 c 0.725825,-0.12215 1.340415,-0.188065 2.332749,0.636275 0.811095,0.673909 1.165194,0.834659 1.165194,0.834659 0.401285,-0.15862 0.781025,-0.538349 0.781025,-0.538349 0,0 0.38038,-0.38038 0.538175,-0.78154 0,0 -0.16005,-0.353595 -0.834545,-1.164694 -0.824379,-0.992275 -0.757564,-1.607165 -0.636234,-2.332774 l -0.0057,-0.0057 c 0.063,-0.13886 0.122434,-0.27818 0.175349,-0.419915 h 0.0085 c 0.426915,-0.599475 0.81493,-1.080774 2.099469,-1.199664 1.050205,-0.097 1.414285,-0.233765 1.414285,-0.233765 0.17145,-0.39576 0.171495,-0.93286 0.171495,-0.93286 0,0 -9e-5,-0.53779 -0.17191,-0.93323 0,0 -0.36345,-0.13672 -1.41377,-0.233495 -1.284609,-0.11872 -1.672254,-0.600334 -2.099614,-1.199539 h -0.0057 c -0.053,-0.14172 -0.11201,-0.28135 -0.175364,-0.419925 l 0.0057,-0.0057 c -0.12186,-0.725594 -0.18814,-1.340414 0.636194,-2.332764 0.67392,-0.811094 0.834825,-1.165064 0.834825,-1.165064 -0.158335,-0.40113 -0.538415,-0.781215 -0.538415,-0.781215 0,0 -0.3804,-0.380364 -0.781555,-0.538159 z m -2.982623,10.916625 c -1.826529,1.826514 -4.787767,1.826544 -6.614302,3e-5 -1.826529,-1.826535 -1.826499,-4.787773 3e-5,-6.614303 1.82649,-1.826489 4.787728,-1.826514 6.614257,1.5e-5 1.826529,1.826515 1.826504,4.787768 1.5e-5,6.614258 z"
     style="display:inline;opacity:0.2;fill:#000000;fill-opacity:1;stroke:none;stroke-width:0.5;enable-background:new"
     id="path1237" />
  <path
     d="m 22.289152,8.389864 c 0,0 -0.353355,0.160205 -1.16475,0.834539 -0.992289,0.8244 -1.606784,0.75794 -2.332733,0.636235 l -0.0057,0.0057 c -0.13829,-0.06314 -0.278095,-0.12229 -0.419945,-0.17536 v -0.0057 C 17.766549,9.258333 17.285234,8.870309 17.166489,7.585679 17.069339,6.53559 16.932995,6.17189 16.932995,6.17189 16.53741,5.999945 15.999765,6 15.999765,6 c 0,0 -0.53779,5.5e-5 -0.933075,0.172035 0,0 -0.136719,0.363395 -0.233604,1.413674 -0.11872,1.28457 -0.60031,1.672439 -1.19954,2.099594 l -0.001,0.0072 c -0.14172,0.053 -0.281125,0.11229 -0.419915,0.17535 l -0.0057,-0.0057 C 12.481037,9.984013 11.866317,10.050088 10.873983,9.225758 10.062888,8.551839 9.709288,8.391219 9.709288,8.391219 c -0.400385,0.15725 -0.780464,0.53733 -0.780464,0.53733 0,0 -0.380255,0.380254 -0.538135,0.781499 0,0 0.160565,0.353695 0.834454,1.164765 0.824385,0.992274 0.75804,1.607254 0.636425,2.332918 l 0.0057,0.0057 c -0.06286,0.138435 -0.12229,0.278135 -0.175535,0.41977 h -0.0057 c -0.42683,0.599575 -0.814884,1.080895 -2.099414,1.19977 -1.050059,0.097 -1.413999,0.233804 -1.413999,0.233804 -0.17182,0.39573 -0.17185,0.932605 -0.17185,0.932605 0,0 2.85e-4,0.53803 0.172135,0.933255 0,0 0.36331,0.136864 1.413574,0.233439 1.2845,0.11886 1.671924,0.600775 2.099379,1.199765 h 0.0057 c 0.05314,0.141865 0.112435,0.28137 0.17531,0.419985 l -0.0057,0.0057 c 0.122145,0.725854 0.188105,1.340474 -0.636195,2.332703 -0.673889,0.81127 -0.834554,1.16541 -0.834554,1.16541 0.158465,0.401215 0.53816,0.780909 0.53816,0.780909 0,0 0.380384,0.3804 0.781494,0.53815 0,0 0.35357,-0.160035 1.164625,-0.834384 0.992364,-0.82427 1.607169,-0.757495 2.332903,-0.636335 l 0.0057,-0.0057 c 0.138865,0.06301 0.27818,0.122435 0.419985,0.17532 l -10e-4,0.0071 c 0.59965,0.42691 1.08088,0.814879 1.19977,2.099369 0.097,1.050119 0.233704,1.414169 0.233704,1.414169 C 15.46152,25.999745 15.99852,26 15.99852,26 c 0,0 0.538035,-1.45e-4 0.933105,-0.17235 0,0 0.136859,-0.362965 0.233579,-1.413414 0.11886,-1.284485 0.600945,-1.672084 1.19962,-2.099469 l -10e-4,-0.0071 c 0.14172,-0.053 0.281255,-0.112575 0.419945,-0.175375 l 0.0057,0.0057 c 0.725824,-0.12215 1.340414,-0.188065 2.332748,0.636275 0.811095,0.673909 1.165195,0.834659 1.165195,0.834659 0.401285,-0.15862 0.781024,-0.53835 0.781024,-0.53835 0,0 0.38038,-0.380379 0.538175,-0.781539 0,0 -0.16005,-0.353595 -0.834544,-1.164695 -0.82438,-0.992274 -0.757565,-1.607164 -0.636235,-2.332773 l -0.0057,-0.0057 c 0.06301,-0.13886 0.122435,-0.27818 0.17535,-0.419915 h 0.0085 c 0.426915,-0.599475 0.814929,-1.080775 2.099469,-1.199665 1.050204,-0.09701 1.414284,-0.233764 1.414284,-0.233764 0.17145,-0.39576 0.171495,-0.93286 0.171495,-0.93286 0,0 -9e-5,-0.53779 -0.17191,-0.93323 0,0 -0.36345,-0.136719 -1.413769,-0.233494 -1.28461,-0.11872 -1.672254,-0.600335 -2.099614,-1.19954 h -0.0057 c -0.053,-0.14172 -0.11201,-0.28135 -0.175365,-0.419925 l 0.0057,-0.0057 c -0.12186,-0.725594 -0.18814,-1.340414 0.636195,-2.332763 0.673919,-0.811095 0.834824,-1.165065 0.834824,-1.165065 -0.158335,-0.40113 -0.538415,-0.781214 -0.538415,-0.781214 0,0 -0.380399,-0.380365 -0.781554,-0.53816 z m -2.982624,10.916624 c -1.826529,1.826514 -4.787767,1.826544 -6.614301,3e-5 -1.826529,-1.826534 -1.826499,-4.787772 3e-5,-6.614301 1.826489,-1.826489 4.787727,-1.826514 6.614256,1.5e-5 1.826529,1.826514 1.826504,4.787767 1.5e-5,6.614256 z"
     style="display:inline;fill:#ffffff;fill-opacity:1;stroke:none;stroke-width:0.5;enable-background:new"
     id="path429"
     sodipodi:nodetypes="ccccccccccccccccccccccccccccccccccccccccccccccccccccccccccccccccccccccccccccscc" />
  <path
     id="rect2630"
     style="opacity:0.3;fill:#ffffff;fill-opacity:1"
     d="M 7,3 C 4.7840022,3 3,4.7840022 3,6.9999998 v 1 C 3,5.7840022 4.7840022,4 7,4 h 18 c 2.215998,0 4,1.7840022 4,3.9999998 v -1 C 29,4.7840022 27.215998,3 25,3 Z" />
  <path
     id="rect398"
     style="opacity:0.3;fill:#ffffff"
     d="m 3.0000002,24 v 1 c 0,2.215998 1.7840022,4 4,4 H 25 c 2.215998,0 4,-1.784002 4,-4 v -1 c 0,2.215998 -1.784002,4 -4,4 H 7.0000002 c -2.2159978,0 -4,-1.784002 -4,-4 z" />
  <path
     id="rect899"
     style="fill:#000000;stroke:none;opacity:0.5"
     d="M 7 2 C 4.2300028 2 2 4.2300028 2 7 L 2 25 C 2 27.769997 4.2300028 30 7 30 L 25 30 C 27.769997 30 30 27.769997 30 25 L 30 7 C 30 4.2300028 27.769997 2 25 2 L 7 2 z M 7 3 L 25 3 C 27.215998 3 29 4.7840022 29 7 L 29 25 C 29 27.215998 27.215998 29 25 29 L 7 29 C 4.7840022 29 3 27.215998 3 25 L 3 7 C 3 4.7840022 4.7840022 3 7 3 z " />
</svg>
