<?xml version="1.0" encoding="UTF-8" standalone="no"?>
<!-- Created with Inkscape (http://www.inkscape.org/) -->

<svg
   width="32"
   height="32"
   viewBox="0 0 32 32.000001"
   version="1.1"
   id="svg5"
   sodipodi:docname="preferences-desktop-effects.svg"
   inkscape:version="1.2.1 (9c6d41e410, 2022-07-14)"
   xmlns:inkscape="http://www.inkscape.org/namespaces/inkscape"
   xmlns:sodipodi="http://sodipodi.sourceforge.net/DTD/sodipodi-0.dtd"
   xmlns:xlink="http://www.w3.org/1999/xlink"
   xmlns="http://www.w3.org/2000/svg"
   xmlns:svg="http://www.w3.org/2000/svg">
  <sodipodi:namedview
     id="namedview7"
     pagecolor="#ffffff"
     bordercolor="#666666"
     borderopacity="1.0"
     inkscape:showpageshadow="2"
     inkscape:pageopacity="0.0"
     inkscape:pagecheckerboard="0"
     inkscape:deskcolor="#d1d1d1"
     inkscape:document-units="px"
     showgrid="false"
     inkscape:zoom="24.90625"
     inkscape:cx="15.979925"
     inkscape:cy="16"
     inkscape:window-width="1920"
     inkscape:window-height="1009"
     inkscape:window-x="0"
     inkscape:window-y="0"
     inkscape:window-maximized="1"
     inkscape:current-layer="svg5"
     showguides="true" />
  <defs
     id="defs2">
    <linearGradient
       inkscape:collect="always"
       xlink:href="#linearGradient21236"
       id="linearGradient8655"
       x1="25"
       y1="30"
       x2="7"
       y2="2"
       gradientUnits="userSpaceOnUse" />
    <linearGradient
       inkscape:collect="always"
       id="linearGradient21236">
      <stop
         style="stop-color:#3689e6;stop-opacity:1;"
         offset="0"
         id="stop21232" />
      <stop
         style="stop-color:#5dcffc;stop-opacity:1;"
         offset="1"
         id="stop21234" />
    </linearGradient>
    <linearGradient
       inkscape:collect="always"
       id="linearGradient950">
      <stop
         style="stop-color:#ffffff;stop-opacity:1"
         offset="0"
         id="stop946" />
      <stop
         style="stop-color:#dddddd;stop-opacity:1"
         offset="1"
         id="stop948" />
    </linearGradient>
    <linearGradient
       inkscape:collect="always"
       id="linearGradient2205">
      <stop
         style="stop-color:#818181;stop-opacity:1"
         offset="0"
         id="stop2201" />
      <stop
         style="stop-color:#404040;stop-opacity:1"
         offset="1"
         id="stop2203" />
    </linearGradient>
    <linearGradient
       inkscape:collect="always"
       xlink:href="#linearGradient950"
       id="linearGradient5187"
       x1="-12.832299"
       y1="-13.981112"
       x2="-14.419785"
       y2="-14.014091"
       gradientUnits="userSpaceOnUse" />
    <linearGradient
       inkscape:collect="always"
       xlink:href="#linearGradient2205"
       id="linearGradient5250"
       x1="12.472872"
       y1="6.6415358"
       x2="14.060357"
       y2="6.6415358"
       gradientUnits="userSpaceOnUse"
       gradientTransform="translate(0.35942789,-1.0853405)" />
  </defs>
  <rect
     style="fill:url(#linearGradient8655);fill-opacity:1;stroke:none"
     id="rect184"
     width="27"
     height="27"
     x="2.5"
     y="2.5"
     ry="4.5" />
  <rect
     style="opacity:0.2;fill:#000000;stroke-width:3.00001;stroke-linecap:round;stroke-linejoin:round"
     id="rect4816"
     width="3"
     height="22"
     x="-25.436316"
     y="-11.707107"
     transform="rotate(-135)"
     ry="1" />
  <path
     id="rect1693"
     style="opacity:0.7;fill:#ffffff;fill-opacity:1;stroke-width:1"
     d="m 10.000019,8 c 0,1.104581 -0.8954386,2.00002 -2.0000186,2.000019 1.10458,0 2.0000186,0.895439 2.0000186,2.000019 0,-1.10458 0.895438,-2.000019 2.000018,-2.000019 -1.10458,0 -2.000018,-0.895439 -2.000018,-2.000019 z"
     sodipodi:nodetypes="ccccc" />
  <path
     d="m 14,11 c 0,1.10457 -0.89543,2.000001 -2,2 1.10457,0 2,0.89543 2,1.999999 C 14,13.89543 14.895432,13 16,13 14.895432,13 14,12.10457 14,11 Z"
     style="opacity:0.7;fill:#ffffff;fill-opacity:1;stroke-width:0.264582"
     id="path4839" />
  <g
     id="g2705"
     transform="matrix(1.3362772,1.3362772,-1.3362772,1.3362772,11.298958,-14.864234)">
    <rect
       style="opacity:1;fill:url(#linearGradient5187);fill-opacity:1;stroke-width:1.58749;stroke-linecap:round;stroke-linejoin:round"
       id="rect4814"
       width="1.5874852"
       height="11.641559"
       x="-14.419785"
       y="-15.610362"
       transform="scale(-1)"
       ry="0.52916175" />
    <path
       id="rect5241"
       style="opacity:1;fill:url(#linearGradient5250);fill-opacity:1;stroke-width:1.58749;stroke-linecap:round;stroke-linejoin:round"
       d="m 13.361461,3.9688034 0.529162,10e-8 c 0.293156,5e-7 0.529162,0.2360065 0.529162,0.5291621 v 2.6456213 l -1.587485,-3e-7 V 4.4979659 c 0,-0.2931562 0.236006,-0.5291623 0.529161,-0.5291625 z"
       sodipodi:nodetypes="sssccss" />
  </g>
  <path
     d="m 15,5 c 0,1.1045696 -0.89543,2.0000004 -2,1.9999996 1.10457,0 2,0.8954308 2,2.0000004 0,-1.1045696 0.89543,-2.0000004 2,-2.0000004 -1.10457,0 -2,-0.89543 -2,-1.9999996 z"
     style="opacity:0.7;fill:#ffffff;fill-opacity:1;stroke-width:0.264582"
     id="path5282" />
  <path
     id="rect2630"
     style="opacity:0.3;fill:#ffffff;fill-opacity:1"
     d="M 7,3 C 4.7840022,3 3,4.7840022 3,6.9999998 v 1 C 3,5.7840022 4.7840022,4 7,4 h 18 c 2.215998,0 4,1.7840022 4,3.9999998 v -1 C 29,4.7840022 27.215998,3 25,3 Z" />
  <path
     id="rect398"
     style="opacity:0.3;fill:#ffffff"
     d="m 3.0000002,24 v 1 c 0,2.215998 1.7840022,4 4,4 H 25 c 2.215998,0 4,-1.784002 4,-4 v -1 c 0,2.215998 -1.784002,4 -4,4 H 7.0000002 c -2.2159978,0 -4,-1.784002 -4,-4 z" />
  <path
     id="rect899"
     style="fill:#000000;stroke:none;opacity:0.5"
     d="M 7 2 C 4.2300028 2 2 4.2300028 2 7 L 2 25 C 2 27.769997 4.2300028 30 7 30 L 25 30 C 27.769997 30 30 27.769997 30 25 L 30 7 C 30 4.2300028 27.769997 2 25 2 L 7 2 z M 7 3 L 25 3 C 27.215998 3 29 4.7840022 29 7 L 29 25 C 29 27.215998 27.215998 29 25 29 L 7 29 C 4.7840022 29 3 27.215998 3 25 L 3 7 C 3 4.7840022 4.7840022 3 7 3 z " />
</svg>
