<?xml version="1.0" encoding="UTF-8" standalone="no"?>
<!-- Created with Inkscape (http://www.inkscape.org/) -->

<svg
   width="32"
   height="32"
   viewBox="0 0 32 32.000001"
   version="1.1"
   id="svg5"
   sodipodi:docname="preferences-desktop-screensaver.svg"
   inkscape:version="1.3.2 (091e20ef0f, 2023-11-25, custom)"
   xmlns:inkscape="http://www.inkscape.org/namespaces/inkscape"
   xmlns:sodipodi="http://sodipodi.sourceforge.net/DTD/sodipodi-0.dtd"
   xmlns:xlink="http://www.w3.org/1999/xlink"
   xmlns="http://www.w3.org/2000/svg"
   xmlns:svg="http://www.w3.org/2000/svg">
  <sodipodi:namedview
     id="namedview7"
     pagecolor="#ffffff"
     bordercolor="#666666"
     borderopacity="1.0"
     inkscape:showpageshadow="2"
     inkscape:pageopacity="0.0"
     inkscape:pagecheckerboard="0"
     inkscape:deskcolor="#d1d1d1"
     inkscape:document-units="px"
     showgrid="false"
     inkscape:zoom="25.8125"
     inkscape:cx="16"
     inkscape:cy="16"
     inkscape:window-width="1920"
     inkscape:window-height="1011"
     inkscape:window-x="0"
     inkscape:window-y="0"
     inkscape:window-maximized="1"
     inkscape:current-layer="svg5" />
  <defs
     id="defs2">
    <linearGradient
       inkscape:collect="always"
       xlink:href="#linearGradient2"
       id="linearGradient16885"
       x1="16"
       y1="30"
       x2="16"
       y2="2"
       gradientUnits="userSpaceOnUse" />
    <linearGradient
       inkscape:collect="always"
       id="linearGradient2">
      <stop
         style="stop-color:#4b315a;stop-opacity:1;"
         offset="0"
         id="stop1" />
      <stop
         style="stop-color:#68487d;stop-opacity:1;"
         offset="1"
         id="stop2" />
    </linearGradient>
  </defs>
  <rect
     style="fill:url(#linearGradient16885);fill-opacity:1;stroke:none"
     id="rect184"
     width="27"
     height="27"
     x="2.5"
     y="2.5"
     ry="4.5" />
  <path
     d="m 15.64057,7 c -3.9518,0.145097 -7.59341,2.58122 -9.02922,6.526067 -1.8913,5.19631 0.74866,10.982032 5.94498,12.873342 3.94484,1.43579 8.21056,0.20734 10.86188,-2.72665 -1.89922,0.61306 -4.01377,0.64603 -6.03438,-0.0894 C 12.55867,21.827153 10.08493,16.473847 11.84114,11.648707 12.57658,9.628094 13.95014,8.06082 15.64057,7 Z m 6.07908,0.432094 -0.40416,1.503003 -1.50301,0.404157 1.50301,0.404156 0.40416,1.503003 0.40415,-1.503003 1.503,-0.404156 -1.503,-0.404157 z m -4.76791,2.830939 -0.30358,1.12679 -1.12679,0.303584 1.12679,0.30358 0.30358,1.12679 0.30358,-1.12679 1.12679,-0.30358 -1.12679,-0.303584 z m 5.72148,2.890544 -0.20208,0.7515 -0.7515,0.20208 0.7515,0.202076 0.20208,0.751504 0.20209,-0.751504 0.75149,-0.202076 -0.75149,-0.20208 z m -1.43037,4.767903 -0.30358,1.126786 -1.12679,0.303584 1.12679,0.30358 0.30358,1.12679 0.30358,-1.12679 1.12679,-0.30358 -1.12679,-0.303584 z"
     style="color:#bebebe;display:inline;overflow:visible;visibility:visible;fill:#000000;fill-opacity:1;fill-rule:nonzero;stroke:none;stroke-width:1;marker:none;enable-background:accumulate;opacity:0.2"
     id="path1" />
  <path
     d="m 15.640576,6 c -3.9518,0.145097 -7.5934096,2.58122 -9.0292196,6.526067 -1.8913,5.19631 0.74866,10.982032 5.9449796,12.873342 3.94484,1.43579 8.21056,0.20734 10.86188,-2.72665 -1.89922,0.61306 -4.01377,0.64603 -6.03438,-0.0894 -4.82516,-1.756206 -7.2989,-7.109512 -5.54269,-11.934652 C 12.576586,8.628094 13.950146,7.06082 15.640576,6 Z m 6.07908,0.432094 -0.40416,1.503003 -1.50301,0.404157 1.50301,0.404156 0.40416,1.503003 0.40415,-1.503003 1.503,-0.404156 -1.503,-0.404157 z m -4.76791,2.830939 -0.30358,1.12679 -1.12679,0.303584 1.12679,0.30358 0.30358,1.12679 0.30358,-1.12679 1.12679,-0.30358 -1.12679,-0.303584 z m 5.72148,2.890544 -0.20208,0.7515 -0.7515,0.20208 0.7515,0.202076 0.20208,0.751504 0.20209,-0.751504 0.75149,-0.202076 -0.75149,-0.20208 z m -1.43037,4.767903 -0.30358,1.126786 -1.12679,0.303584 1.12679,0.30358 0.30358,1.12679 0.30358,-1.12679 1.12679,-0.30358 -1.12679,-0.303584 z"
     style="color:#bebebe;display:inline;overflow:visible;visibility:visible;fill:#ffffff;fill-opacity:1;fill-rule:nonzero;stroke:none;stroke-width:1;marker:none;enable-background:accumulate"
     id="path1-6" />
  <path
     id="rect2630"
     style="opacity:0.1;fill:#ffffff;fill-opacity:1"
     d="M 7,3 C 4.7840022,3 3,4.7840022 3,6.9999998 v 1 C 3,5.7840022 4.7840022,4 7,4 h 18 c 2.215998,0 4,1.7840022 4,3.9999998 v -1 C 29,4.7840022 27.215998,3 25,3 Z" />
  <path
     id="rect398"
     style="opacity:0.1;fill:#ffffff"
     d="m 3.0000002,24 v 1 c 0,2.215998 1.7840022,4 4,4 H 25 c 2.215998,0 4,-1.784002 4,-4 v -1 c 0,2.215998 -1.784002,4 -4,4 H 7.0000002 c -2.2159978,0 -4,-1.784002 -4,-4 z" />
  <path
     id="rect899"
     style="fill:#000000;stroke:none;opacity:0.5"
     d="M 7 2 C 4.2300028 2 2 4.2300028 2 7 L 2 25 C 2 27.769997 4.2300028 30 7 30 L 25 30 C 27.769997 30 30 27.769997 30 25 L 30 7 C 30 4.2300028 27.769997 2 25 2 L 7 2 z M 7 3 L 25 3 C 27.215998 3 29 4.7840022 29 7 L 29 25 C 29 27.215998 27.215998 29 25 29 L 7 29 C 4.7840022 29 3 27.215998 3 25 L 3 7 C 3 4.7840022 4.7840022 3 7 3 z " />
</svg>
