<?xml version="1.0" encoding="UTF-8" standalone="no"?>
<!-- Created with Inkscape (http://www.inkscape.org/) -->

<svg
   width="32"
   height="32"
   viewBox="0 0 32 32.000001"
   version="1.1"
   id="svg5"
   sodipodi:docname="preferences-desktop-theme-applications.svg"
   inkscape:version="1.2.1 (9c6d41e410, 2022-07-14)"
   xmlns:inkscape="http://www.inkscape.org/namespaces/inkscape"
   xmlns:sodipodi="http://sodipodi.sourceforge.net/DTD/sodipodi-0.dtd"
   xmlns:xlink="http://www.w3.org/1999/xlink"
   xmlns="http://www.w3.org/2000/svg"
   xmlns:svg="http://www.w3.org/2000/svg">
  <sodipodi:namedview
     id="namedview7"
     pagecolor="#ffffff"
     bordercolor="#666666"
     borderopacity="1.0"
     inkscape:showpageshadow="2"
     inkscape:pageopacity="0.0"
     inkscape:pagecheckerboard="0"
     inkscape:deskcolor="#d1d1d1"
     inkscape:document-units="px"
     showgrid="false"
     inkscape:zoom="24.84375"
     inkscape:cx="16.040252"
     inkscape:cy="16"
     inkscape:window-width="1920"
     inkscape:window-height="1007"
     inkscape:window-x="0"
     inkscape:window-y="0"
     inkscape:window-maximized="1"
     inkscape:current-layer="svg5" />
  <defs
     id="defs2">
    <linearGradient
       inkscape:collect="always"
       xlink:href="#linearGradient22024"
       id="linearGradient8655"
       x1="16"
       y1="30"
       x2="16"
       y2="9"
       gradientUnits="userSpaceOnUse" />
    <linearGradient
       inkscape:collect="always"
       id="linearGradient22024">
      <stop
         style="stop-color:#dedede;stop-opacity:1;"
         offset="0"
         id="stop22020" />
      <stop
         style="stop-color:#f2f2f2;stop-opacity:1;"
         offset="1"
         id="stop22022" />
    </linearGradient>
  </defs>
  <rect
     style="fill:url(#linearGradient8655);fill-opacity:1.0;stroke:none"
     id="rect184"
     width="27"
     height="27"
     x="2.5"
     y="2.5"
     ry="4.5" />
  <path
     d="m 20.401905,14.672914 c 0,0 -0.247349,0.112143 -0.815325,0.584177 -0.694602,0.57708 -1.124748,0.530558 -1.632913,0.445365 l -0.004,0.004 c -0.0968,-0.04418 -0.194666,-0.08558 -0.293961,-0.122732 v -0.004 c -0.419655,-0.298862 -0.756575,-0.570479 -0.839697,-1.469719 -0.068,-0.735062 -0.163446,-0.989652 -0.163446,-0.989652 -0.276909,-0.120361 -0.653261,-0.120323 -0.653261,-0.120323 0,0 -0.376452,3.9e-5 -0.653152,0.120425 0,0 -0.0957,0.254376 -0.163523,0.989571 -0.0831,0.899198 -0.420216,1.170707 -0.839677,1.469715 l -7e-4,0.005 c -0.0992,0.0371 -0.196787,0.0786 -0.29394,0.122745 l -0.004,-0.004 c -0.508126,0.0853 -0.93843,0.131554 -1.633063,-0.445476 -0.567766,-0.471743 -0.815286,-0.584177 -0.815286,-0.584177 -0.280269,0.110075 -0.546325,0.37613 -0.546325,0.37613 0,0 -0.266179,0.266178 -0.376695,0.54705 0,0 0.112396,0.247586 0.584119,0.815335 0.577069,0.694592 0.530627,1.125077 0.445497,1.633043 l 0.004,0.004 c -0.044,0.0969 -0.0856,0.194694 -0.122874,0.293838 h -0.004 c -0.29878,0.419703 -0.570419,0.756626 -1.469589,0.839839 -0.735041,0.0679 -0.989799,0.163663 -0.989799,0.163663 C 9.000021,19.623742 9,19.999554 9,19.999554 c 0,0 1.99e-4,0.376621 0.120494,0.653278 0,0 0.254317,0.09581 0.989502,0.163408 0.899149,0.0832 1.170347,0.420542 1.469565,0.839835 h 0.004 c 0.0372,0.09931 0.0787,0.196958 0.122717,0.293989 l -0.004,0.004 c 0.0855,0.508098 0.131673,0.938332 -0.445336,1.632892 -0.471723,0.567889 -0.584189,0.815786 -0.584189,0.815786 0.110926,0.280851 0.376712,0.546637 0.376712,0.546637 0,0 0.26627,0.26628 0.547046,0.376704 0,0 0.247499,-0.112024 0.815237,-0.584068 0.694655,-0.576989 1.125018,-0.530246 1.633032,-0.445434 l 0.004,-0.004 c 0.09721,0.04411 0.194726,0.0857 0.293989,0.122723 l -7e-4,0.005 c 0.419755,0.298837 0.756615,0.570416 0.839838,1.469558 0.0679,0.735083 0.163593,0.989918 0.163593,0.989918 0.277032,0.120057 0.652932,0.120235 0.652932,0.120235 0,0 0.376624,-1.01e-4 0.653173,-0.120644 0,0 0.0958,-0.254076 0.163506,-0.98939 0.0832,-0.899139 0.420661,-1.170458 0.839733,-1.469628 l -7e-4,-0.005 c 0.0992,-0.0371 0.196879,-0.0788 0.293961,-0.122762 l 0.004,0.004 c 0.508077,-0.0855 0.93829,-0.131645 1.632924,0.445392 0.567765,0.471737 0.815635,0.584261 0.815635,0.584261 0.280899,-0.111033 0.546717,-0.376844 0.546717,-0.376844 0,0 0.266266,-0.266266 0.376722,-0.547078 0,0 -0.112034,-0.247516 -0.584181,-0.815285 -0.577065,-0.694592 -0.530295,-1.125015 -0.445364,-1.632942 l -0.004,-0.004 c 0.0441,-0.0972 0.0857,-0.194726 0.122745,-0.29394 h 0.006 c 0.29884,-0.419632 0.570451,-0.756542 1.469628,-0.839765 0.735143,-0.0679 0.989999,-0.163635 0.989999,-0.163635 0.120015,-0.277032 0.120046,-0.653002 0.120046,-0.653002 0,0 -6.3e-5,-0.376452 -0.120337,-0.65326 0,0 -0.254414,-0.0957 -0.989638,-0.163446 -0.899226,-0.0831 -1.170578,-0.420234 -1.469729,-0.839678 h -0.004 c -0.0371,-0.0992 -0.07841,-0.196944 -0.122755,-0.293947 l 0.004,-0.004 c -0.0853,-0.507916 -0.131698,-0.93829 0.445336,-1.632934 0.471744,-0.567767 0.584377,-0.815545 0.584377,-0.815545 -0.110834,-0.280791 -0.37689,-0.54685 -0.37689,-0.54685 0,0 -0.26628,-0.266255 -0.547088,-0.376712 z m -2.087836,7.641635 c -1.27857,1.278559 -3.351436,1.27858 -4.630009,2.1e-5 -1.27857,-1.278574 -1.278549,-3.35144 2.1e-5,-4.63001 1.278541,-1.278542 3.351408,-1.278559 4.629978,10e-6 1.278569,1.27856 1.278552,3.351437 10e-6,4.629979 z"
     style="display:inline;opacity:0.2;fill:#000000;fill-opacity:1;stroke:none;stroke-width:0.35;enable-background:new"
     id="path1237" />
  <path
     d="m 20.402347,13.672898 c 0,0 -0.247347,0.112143 -0.815321,0.584176 -0.694601,0.577077 -1.124746,0.530556 -1.632908,0.445363 l -0.004,0.004 c -0.0968,-0.0442 -0.194665,-0.0856 -0.29396,-0.122752 v -0.004 c -0.419654,-0.29886 -0.756573,-0.570477 -0.839695,-1.469714 -0.068,-0.73506 -0.163445,-0.989649 -0.163445,-0.989649 C 16.376109,11.999961 15.99976,12 15.99976,12 c 0,0 -0.376452,3.8e-5 -0.65315,0.120424 0,0 -0.0957,0.254375 -0.163523,0.989568 -0.0831,0.899195 -0.420215,1.170703 -0.839675,1.46971 l -7e-4,0.005 c -0.0992,0.0371 -0.196786,0.0786 -0.293939,0.122745 l -0.004,-0.004 c -0.508124,0.0853 -0.938426,0.131554 -1.633058,-0.445475 -0.567764,-0.471742 -0.815283,-0.584175 -0.815283,-0.584175 -0.280268,0.110074 -0.546323,0.376129 -0.546323,0.376129 0,0 -0.266178,0.266178 -0.376693,0.547048 0,0 0.112395,0.247585 0.584116,0.815332 0.577067,0.69459 0.530626,1.125074 0.445496,1.633037 l 0.004,0.004 c -0.044,0.0969 -0.0856,0.194694 -0.122874,0.293838 h -0.004 c -0.29878,0.419701 -0.570417,0.756623 -1.469585,0.839836 -0.735038,0.0679 -0.989795,0.163662 -0.989795,0.163662 C 9.0005,18.623689 9.000479,18.9995 9.000479,18.9995 c 0,0 1.99e-4,0.37662 0.120494,0.653276 0,0 0.254316,0.09581 0.989498,0.163407 0.899147,0.0832 1.170343,0.420541 1.46956,0.839832 h 0.004 c 0.0372,0.09931 0.0787,0.196958 0.122716,0.293988 l -0.004,0.004 c 0.0855,0.508097 0.131672,0.938329 -0.445335,1.632887 -0.471721,0.567887 -0.584186,0.815784 -0.584186,0.815784 0.110925,0.280849 0.376711,0.546635 0.376711,0.546635 0,0 0.266268,0.266278 0.547044,0.376703 0,0 0.247497,-0.112024 0.815234,-0.584067 0.694652,-0.576987 1.125014,-0.530245 1.633026,-0.445433 l 0.004,-0.004 c 0.0972,0.0441 0.194725,0.0857 0.293988,0.122724 l -7e-4,0.005 c 0.419754,0.298835 0.756613,0.570413 0.839836,1.469553 0.0679,0.735081 0.163593,0.989915 0.163593,0.989915 0.27703,0.120056 0.652929,0.120234 0.652929,0.120234 0,0 0.376623,-1.01e-4 0.653171,-0.120644 0,0 0.0958,-0.254074 0.163505,-0.989386 0.0832,-0.899136 0.42066,-1.170455 0.839731,-1.469623 l -7e-4,-0.005 c 0.0992,-0.0371 0.196877,-0.0788 0.29396,-0.122762 l 0.004,0.004 c 0.508076,-0.08551 0.938287,-0.131645 1.632918,0.44539 0.567765,0.471735 0.815634,0.58426 0.815634,0.58426 0.280898,-0.111034 0.546715,-0.376843 0.546715,-0.376843 0,0 0.266265,-0.266265 0.376721,-0.547076 0,0 -0.112035,-0.247516 -0.584179,-0.815283 C 20.163299,21.892381 20.210069,21.46196 20.295,20.954035 l -0.004,-0.004 c 0.04411,-0.0972 0.0857,-0.194725 0.122745,-0.293939 h 0.006 c 0.298839,-0.419631 0.570448,-0.75654 1.469622,-0.839762 0.735141,-0.0679 0.989996,-0.163635 0.989996,-0.163635 0.120015,-0.277031 0.120046,-0.652999 0.120046,-0.652999 0,0 -6.3e-5,-0.376452 -0.120337,-0.653259 0,0 -0.254414,-0.0957 -0.989635,-0.163445 -0.899223,-0.0831 -1.170573,-0.420233 -1.469724,-0.839675 h -0.004 c -0.0371,-0.0992 -0.07841,-0.196944 -0.122755,-0.293946 l 0.004,-0.004 c -0.0853,-0.507914 -0.131697,-0.938287 0.445335,-1.632929 0.471742,-0.567764 0.584375,-0.815542 0.584375,-0.815542 -0.110834,-0.28079 -0.376889,-0.546848 -0.376889,-0.546848 0,0 -0.266279,-0.266255 -0.547086,-0.376711 z m -2.087829,7.64161 c -1.278565,1.278555 -3.351425,1.278576 -4.629994,2.1e-5 -1.278566,-1.27857 -1.278545,-3.351429 2.1e-5,-4.629995 1.278538,-1.278537 3.351397,-1.278555 4.629963,1.1e-5 1.278566,1.278555 1.278548,3.351425 10e-6,4.629963 z"
     style="display:inline;fill:#4d4d4d;fill-opacity:1;stroke:none;stroke-width:0.349999;enable-background:new"
     id="path429"
     sodipodi:nodetypes="ccccccccccccccccccccccccccccccccccccccccccccccccccccccccccccccccccccccccccccscc" />
  <path
     id="rect348"
     style="fill:#6a747d;fill-opacity:1;stroke-width:0.5;stroke-linejoin:round"
     d="M 7,2.5 C 4.5070025,2.5 2.5,4.5070025 2.5,7 v 3 h 27 V 7 C 29.5,4.5070025 27.492998,2.5 25,2.5 Z"
     sodipodi:nodetypes="ssccsss" />
  <path
     id="path294"
     style="opacity:0.2;fill:#000000;stroke-width:1.125;stroke-linecap:round;stroke-linejoin:round"
     d="M 16.5,6 A 1.5,1.5 0 0 0 15,7.5 1.5,1.5 0 0 0 16.5,9 1.5,1.5 0 0 0 18,7.5 1.5,1.5 0 0 0 16.5,6 Z M 21,6 A 1.5,1.5 0 0 0 19.5,7.5 1.5,1.5 0 0 0 21,9 1.5,1.5 0 0 0 22.5,7.5 1.5,1.5 0 0 0 21,6 Z m 4.5,0 A 1.5,1.5 0 0 0 24,7.5 1.5,1.5 0 0 0 25.5,9 1.5,1.5 0 0 0 27,7.5 1.5,1.5 0 0 0 25.5,6 Z" />
  <path
     id="path354"
     style="fill:#ffffff;stroke-width:1.5;stroke-linecap:round;stroke-linejoin:round"
     d="M 16.5,5 A 1.5,1.5 0 0 0 15,6.5 1.5,1.5 0 0 0 16.5,8 1.5,1.5 0 0 0 18,6.5 1.5,1.5 0 0 0 16.5,5 Z M 21,5 A 1.5,1.5 0 0 0 19.5,6.5 1.5,1.5 0 0 0 21,8 1.5,1.5 0 0 0 22.5,6.5 1.5,1.5 0 0 0 21,5 Z m 4.5,0 A 1.5,1.5 0 0 0 24,6.5 1.5,1.5 0 0 0 25.5,8 1.5,1.5 0 0 0 27,6.5 1.5,1.5 0 0 0 25.5,5 Z" />
  <rect
     style="opacity:0.2;fill:#000000;stroke-width:0.64952;stroke-linejoin:round"
     id="rect581"
     width="27"
     height="1"
     x="2.5"
     y="9" />
  <path
     id="rect2630"
     style="opacity:0.3;fill:#ffffff;fill-opacity:1"
     d="M 7,3 C 4.7840022,3 3,4.7840022 3,6.9999998 v 1 C 3,5.7840022 4.7840022,4 7,4 h 18 c 2.215998,0 4,1.7840022 4,3.9999998 v -1 C 29,4.7840022 27.215998,3 25,3 Z" />
  <path
     id="rect398"
     style="opacity:0.3;fill:#ffffff"
     d="m 3.0000002,24 v 1 c 0,2.215998 1.7840022,4 4,4 H 25 c 2.215998,0 4,-1.784002 4,-4 v -1 c 0,2.215998 -1.784002,4 -4,4 H 7.0000002 c -2.2159978,0 -4,-1.784002 -4,-4 z" />
  <path
     id="rect899"
     style="fill:#000000;stroke:none;opacity:0.5"
     d="M 7 2 C 4.2300028 2 2 4.2300028 2 7 L 2 25 C 2 27.769997 4.2300028 30 7 30 L 25 30 C 27.769997 30 30 27.769997 30 25 L 30 7 C 30 4.2300028 27.769997 2 25 2 L 7 2 z M 7 3 L 25 3 C 27.215998 3 29 4.7840022 29 7 L 29 25 C 29 27.215998 27.215998 29 25 29 L 7 29 C 4.7840022 29 3 27.215998 3 25 L 3 7 C 3 4.7840022 4.7840022 3 7 3 z " />
</svg>
