<?xml version="1.0" encoding="UTF-8" standalone="no"?>
<!-- Created with Inkscape (http://www.inkscape.org/) -->

<svg
   width="32"
   height="32"
   viewBox="0 0 32 32.000001"
   version="1.1"
   id="svg5"
   sodipodi:docname="preferences-desktop-icons.svg"
   inkscape:version="1.2.1 (9c6d41e410, 2022-07-14)"
   xmlns:inkscape="http://www.inkscape.org/namespaces/inkscape"
   xmlns:sodipodi="http://sodipodi.sourceforge.net/DTD/sodipodi-0.dtd"
   xmlns:xlink="http://www.w3.org/1999/xlink"
   xmlns="http://www.w3.org/2000/svg"
   xmlns:svg="http://www.w3.org/2000/svg">
  <sodipodi:namedview
     id="namedview7"
     pagecolor="#ffffff"
     bordercolor="#666666"
     borderopacity="1.0"
     inkscape:showpageshadow="2"
     inkscape:pageopacity="0.0"
     inkscape:pagecheckerboard="0"
     inkscape:deskcolor="#d1d1d1"
     inkscape:document-units="px"
     showgrid="false"
     inkscape:zoom="18.384776"
     inkscape:cx="21.593954"
     inkscape:cy="13.35344"
     inkscape:window-width="1920"
     inkscape:window-height="1007"
     inkscape:window-x="0"
     inkscape:window-y="0"
     inkscape:window-maximized="1"
     inkscape:current-layer="svg5" />
  <defs
     id="defs2">
    <linearGradient
       inkscape:collect="always"
       xlink:href="#linearGradient21236"
       id="linearGradient8655"
       x1="16"
       y1="30"
       x2="16"
       y2="9"
       gradientUnits="userSpaceOnUse" />
    <linearGradient
       inkscape:collect="always"
       id="linearGradient21236">
      <stop
         style="stop-color:#3689e6;stop-opacity:1;"
         offset="0"
         id="stop21232" />
      <stop
         style="stop-color:#5dcffc;stop-opacity:1;"
         offset="1"
         id="stop21234" />
    </linearGradient>
  </defs>
  <rect
     style="fill:url(#linearGradient8655);fill-opacity:1;stroke:none"
     id="rect184"
     width="27"
     height="27"
     x="2.5"
     y="2.5"
     ry="4.5" />
  <path
     d="M 9,13 C 9,12.446 8.554,12 8,12 H 6.0000002 C 5.4460002,12 5,12.446 5,13 v 2 c 0,0.554 0.4460002,1 1.0000002,1 H 8 c 0.554,0 1,-0.446 1,-1 z m 0,6 C 9,18.446 8.554,18 8,18 H 6.0000002 C 5.4460002,18 5,18.446 5,19 v 2 c 0,0.554 0.4460002,1 1.0000002,1 H 8 c 0.554,0 1,-0.446 1,-1 z m 0,6 C 9,24.446 8.554,24 8,24 H 6.0000002 C 5.4460002,24 5,24.446 5,25 v 2 c 0,0.554 0.4460002,1 1.0000002,1 H 8 c 0.554,0 1,-0.446 1,-1 z"
     style="color:#000000;display:inline;overflow:visible;visibility:visible;opacity:0.2;fill:#000000;fill-opacity:1;fill-rule:evenodd;stroke:none;stroke-width:2;marker:none;enable-background:new"
     id="path1111"
     sodipodi:nodetypes="sssssssssssssssssssssssssss" />
  <path
     id="rect4478"
     style="color:#000000;display:inline;overflow:visible;visibility:visible;fill:#ffffff;fill-opacity:1;fill-rule:evenodd;stroke:none;stroke-width:2;marker:none;enable-background:new"
     d="M 9,12 C 9,11.446 8.554,11 8,11 H 6.0000002 C 5.4460002,11 5,11.446 5,12 v 2 c 0,0.554 0.4460002,1 1.0000002,1 H 8 c 0.554,0 1,-0.446 1,-1 z m 0,6 C 9,17.446 8.554,17 8,17 H 6.0000002 C 5.4460002,17 5,17.446 5,18 v 2 c 0,0.554 0.4460002,1 1.0000002,1 H 8 c 0.554,0 1,-0.446 1,-1 z m 0,6 C 9,23.446 8.554,23 8,23 H 6.0000002 C 5.4460002,23 5,23.446 5,24 v 2 c 0,0.554 0.4460002,1 1.0000002,1 H 8 c 0.554,0 1,-0.446 1,-1 z"
     sodipodi:nodetypes="sssssssssssssssssssssssssss" />
  <rect
     style="opacity:0.2;fill:#ffffff;stroke-width:0.64952;stroke-linejoin:round"
     id="rect581"
     width="27"
     height="1"
     x="2.5"
     y="9" />
  <path
     id="rect348"
     style="fill:#3b3b3b;stroke-width:0.5;stroke-linejoin:round;fill-opacity:1"
     d="M 7 2.5 C 4.5070025 2.5 2.5 4.5070025 2.5 7 L 2.5 9 L 29.5 9 L 29.5 7 C 29.5 4.5070025 27.492998 2.5 25 2.5 L 7 2.5 z " />
  <path
     id="rect2630"
     style="opacity:0.3;fill:#ffffff;fill-opacity:1"
     d="M 7,3 C 4.7840022,3 3,4.7840022 3,6.9999998 v 1 C 3,5.7840022 4.7840022,4 7,4 h 18 c 2.215998,0 4,1.7840022 4,3.9999998 v -1 C 29,4.7840022 27.215998,3 25,3 Z" />
  <path
     id="rect398"
     style="opacity:0.3;fill:#ffffff"
     d="m 3.0000002,24 v 1 c 0,2.215998 1.7840022,4 4,4 H 25 c 2.215998,0 4,-1.784002 4,-4 v -1 c 0,2.215998 -1.784002,4 -4,4 H 7.0000002 c -2.2159978,0 -4,-1.784002 -4,-4 z" />
  <path
     id="rect899"
     style="fill:#000000;stroke:none;opacity:0.5"
     d="M 7 2 C 4.2300028 2 2 4.2300028 2 7 L 2 25 C 2 27.769997 4.2300028 30 7 30 L 25 30 C 27.769997 30 30 27.769997 30 25 L 30 7 C 30 4.2300028 27.769997 2 25 2 L 7 2 z M 7 3 L 25 3 C 27.215998 3 29 4.7840022 29 7 L 29 25 C 29 27.215998 27.215998 29 25 29 L 7 29 C 4.7840022 29 3 27.215998 3 25 L 3 7 C 3 4.7840022 4.7840022 3 7 3 z " />
</svg>
