<?xml version="1.0" encoding="UTF-8" standalone="no"?>
<!-- Created with Inkscape (http://www.inkscape.org/) -->

<svg
   width="32"
   height="32"
   viewBox="0 0 32 32.000001"
   version="1.1"
   id="svg5"
   sodipodi:docname="preferences-desktop-font.svg"
   inkscape:version="1.2.1 (9c6d41e410, 2022-07-14)"
   xmlns:inkscape="http://www.inkscape.org/namespaces/inkscape"
   xmlns:sodipodi="http://sodipodi.sourceforge.net/DTD/sodipodi-0.dtd"
   xmlns:xlink="http://www.w3.org/1999/xlink"
   xmlns="http://www.w3.org/2000/svg"
   xmlns:svg="http://www.w3.org/2000/svg">
  <sodipodi:namedview
     id="namedview7"
     pagecolor="#ffffff"
     bordercolor="#666666"
     borderopacity="1.0"
     inkscape:showpageshadow="2"
     inkscape:pageopacity="0.0"
     inkscape:pagecheckerboard="0"
     inkscape:deskcolor="#d1d1d1"
     inkscape:document-units="px"
     showgrid="false"
     inkscape:zoom="24.6875"
     inkscape:cx="16.040506"
     inkscape:cy="16.020253"
     inkscape:window-width="1920"
     inkscape:window-height="1009"
     inkscape:window-x="0"
     inkscape:window-y="0"
     inkscape:window-maximized="1"
     inkscape:current-layer="svg5" />
  <defs
     id="defs2">
    <linearGradient
       inkscape:collect="always"
       xlink:href="#linearGradient22024"
       id="linearGradient8655"
       x1="25"
       y1="30"
       x2="7"
       y2="2"
       gradientUnits="userSpaceOnUse" />
    <linearGradient
       inkscape:collect="always"
       id="linearGradient22024">
      <stop
         style="stop-color:#dedede;stop-opacity:1;"
         offset="0"
         id="stop22020" />
      <stop
         style="stop-color:#f5f5f5;stop-opacity:1;"
         offset="1"
         id="stop22022" />
    </linearGradient>
  </defs>
  <rect
     style="fill:url(#linearGradient8655);fill-opacity:1;stroke:none"
     id="rect184"
     width="27"
     height="27"
     x="2.5"
     y="2.5"
     ry="4.5" />
  <path
     d="M 10.723099,10.000001 5.999998,22.90552 h 1.675086 l 1.2925049,-3.636246 h 5.1872541 l 1.292505,3.636246 h 1.693469 l -4.72425,-12.905519 z m 0.784693,2.085242 h 0.106848 l 2.049625,5.775488 H 9.4581659 Z m 10.855893,1.016771 c -0.701123,0 -1.334655,0.11199 -1.89912,0.337774 -0.558524,0.219844 -1.006677,0.529062 -1.345355,0.927158 -0.338677,0.398095 -0.540107,0.855997 -0.605465,1.372927 H 20.1176 c 0.112914,-0.386212 0.356366,-0.698679 0.730697,-0.936348 0.374328,-0.243611 0.855927,-0.365348 1.444157,-0.365348 0.71895,0 1.261892,0.169132 1.630281,0.507811 0.374326,0.332737 0.561808,0.811086 0.561808,1.434967 v 0.784695 c -0.207961,0.006 -0.593621,0.02429 -1.158085,0.054 -0.564463,0.02971 -1.052561,0.05876 -1.462542,0.08847 -1.051686,0.07724 -1.922194,0.323966 -2.611433,0.739888 -0.6833,0.409978 -1.024813,1.114603 -1.024813,2.112813 0,0.612 0.145434,1.143094 0.436579,1.594664 0.291146,0.445629 0.686551,0.787145 1.185657,1.024813 0.499105,0.231727 1.058296,0.351366 1.676236,0.357307 0.760541,-0.006 1.381075,-0.164371 1.862357,-0.473346 0.487222,-0.314912 0.828737,-0.673623 1.024813,-1.077662 h 0.07123 v 1.31893 h 1.515391 v -6.380956 c 0.0059,-1.336889 -0.365764,-2.240842 -1.11442,-2.710239 -0.748659,-0.475339 -1.588971,-0.712314 -2.521823,-0.712314 z m 2.120858,5.320525 v 0.970815 c 0,0.415921 -0.106659,0.805977 -0.320542,1.168423 -0.207959,0.362448 -0.513927,0.653317 -0.917966,0.873159 -0.404037,0.219845 -0.882386,0.329733 -1.434968,0.329733 -0.617939,0 -1.114636,-0.130318 -1.488966,-0.391774 -0.368385,-0.261435 -0.554716,-0.641746 -0.560658,-1.140851 0.006,-0.510986 0.20412,-0.901044 0.596275,-1.168422 0.398095,-0.267378 0.960535,-0.424661 1.685427,-0.472195 l 1.264931,-0.08846 c 0.647652,-0.04753 1.039812,-0.07448 1.176467,-0.08042 z"
     style="font-size:8.21007px;line-height:1.25;font-family:Pretendard;-inkscape-font-specification:Pretendard;opacity:0.5;fill:#ffffff;stroke-width:0.456327"
     id="path1907"
     sodipodi:nodetypes="ccccccccccccccscscccscscsccsccccccccccscscsscccccc" />
  <path
     d="M 10.723099,9 5.999998,21.905519 h 1.675086 l 1.2925049,-3.636246 h 5.1872541 l 1.292505,3.636246 h 1.693469 L 12.416567,9 Z m 0.784693,2.085242 h 0.106848 l 2.049625,5.775488 H 9.4581659 Z m 10.855893,1.016771 c -0.701123,0 -1.334655,0.11199 -1.89912,0.337774 -0.558524,0.219844 -1.006677,0.529062 -1.345355,0.927158 -0.338677,0.398095 -0.540107,0.855997 -0.605465,1.372927 H 20.1176 c 0.112914,-0.386212 0.356366,-0.698679 0.730697,-0.936348 0.374328,-0.243611 0.855927,-0.365348 1.444157,-0.365348 0.71895,0 1.261892,0.169132 1.630281,0.507811 0.374326,0.332737 0.561808,0.811086 0.561808,1.434967 v 0.784696 c -0.207961,0.006 -0.593621,0.02429 -1.158085,0.054 -0.564463,0.02971 -1.052561,0.05876 -1.462542,0.08846 -1.051686,0.07724 -1.922194,0.323967 -2.611433,0.739888 -0.6833,0.409979 -1.024813,1.114604 -1.024813,2.112814 0,0.611999 0.145434,1.143093 0.436579,1.594664 0.291146,0.445629 0.686551,0.787145 1.185657,1.024813 0.499105,0.231726 1.058296,0.351366 1.676236,0.357307 0.760541,-0.006 1.381075,-0.164372 1.862357,-0.473346 0.487222,-0.314912 0.828737,-0.673624 1.024813,-1.077663 h 0.07123 v 1.318931 h 1.515391 v -6.380957 c 0.0059,-1.336889 -0.365764,-2.240842 -1.11442,-2.710239 -0.748659,-0.475339 -1.588971,-0.712314 -2.521823,-0.712314 z m 2.120858,5.320526 v 0.970815 c 0,0.415921 -0.106659,0.805976 -0.320542,1.168423 -0.207959,0.362447 -0.513927,0.653316 -0.917966,0.873158 -0.404037,0.219846 -0.882386,0.329734 -1.434968,0.329734 -0.617939,0 -1.114636,-0.130318 -1.488966,-0.391775 -0.368385,-0.261434 -0.554716,-0.641745 -0.560658,-1.14085 0.006,-0.510987 0.20412,-0.901045 0.596275,-1.168422 0.398095,-0.267378 0.960535,-0.424662 1.685427,-0.472195 l 1.264931,-0.08847 c 0.647652,-0.04753 1.039812,-0.07448 1.176467,-0.08042 z"
     style="font-size:8.21007px;line-height:1.25;font-family:Pretendard;-inkscape-font-specification:Pretendard;fill:#4d4d4d;stroke-width:0.456327"
     id="path1940" />
  <path
     id="rect2630"
     style="opacity:0.3;fill:#ffffff;fill-opacity:1"
     d="M 7,3 C 4.7840022,3 3,4.7840022 3,6.9999998 v 1 C 3,5.7840022 4.7840022,4 7,4 h 18 c 2.215998,0 4,1.7840022 4,3.9999998 v -1 C 29,4.7840022 27.215998,3 25,3 Z" />
  <path
     id="rect398"
     style="opacity:0.3;fill:#ffffff"
     d="m 3.0000002,24 v 1 c 0,2.215998 1.7840022,4 4,4 H 25 c 2.215998,0 4,-1.784002 4,-4 v -1 c 0,2.215998 -1.784002,4 -4,4 H 7.0000002 c -2.2159978,0 -4,-1.784002 -4,-4 z" />
  <path
     id="rect899"
     style="fill:#000000;stroke:none;opacity:0.5"
     d="M 7 2 C 4.2300028 2 2 4.2300028 2 7 L 2 25 C 2 27.769997 4.2300028 30 7 30 L 25 30 C 27.769997 30 30 27.769997 30 25 L 30 7 C 30 4.2300028 27.769997 2 25 2 L 7 2 z M 7 3 L 25 3 C 27.215998 3 29 4.7840022 29 7 L 29 25 C 29 27.215998 27.215998 29 25 29 L 7 29 C 4.7840022 29 3 27.215998 3 25 L 3 7 C 3 4.7840022 4.7840022 3 7 3 z " />
</svg>
