<?xml version="1.0" encoding="UTF-8" standalone="no"?>
<!-- Created with Inkscape (http://www.inkscape.org/) -->

<svg
   width="32"
   height="32"
   viewBox="0 0 32 32.000001"
   version="1.1"
   id="svg5"
   sodipodi:docname="preferences-system-bluetooth.svg"
   inkscape:version="1.2 (dc2aedaf03, 2022-05-15)"
   xmlns:inkscape="http://www.inkscape.org/namespaces/inkscape"
   xmlns:sodipodi="http://sodipodi.sourceforge.net/DTD/sodipodi-0.dtd"
   xmlns:xlink="http://www.w3.org/1999/xlink"
   xmlns="http://www.w3.org/2000/svg"
   xmlns:svg="http://www.w3.org/2000/svg">
  <sodipodi:namedview
     id="namedview7"
     pagecolor="#ffffff"
     bordercolor="#666666"
     borderopacity="1.0"
     inkscape:showpageshadow="2"
     inkscape:pageopacity="0.0"
     inkscape:pagecheckerboard="0"
     inkscape:deskcolor="#d1d1d1"
     inkscape:document-units="px"
     showgrid="false"
     inkscape:zoom="13"
     inkscape:cx="7.6538461"
     inkscape:cy="22.153846"
     inkscape:window-width="1920"
     inkscape:window-height="991"
     inkscape:window-x="0"
     inkscape:window-y="0"
     inkscape:window-maximized="1"
     inkscape:current-layer="svg5" />
  <defs
     id="defs2">
    <linearGradient
       inkscape:collect="always"
       xlink:href="#linearGradient2466"
       id="linearGradient8655"
       x1="25"
       y1="30"
       x2="7"
       y2="2"
       gradientUnits="userSpaceOnUse" />
    <linearGradient
       inkscape:collect="always"
       id="linearGradient2466">
      <stop
         style="stop-color:#366ecb;stop-opacity:1;"
         offset="0"
         id="stop2462" />
      <stop
         style="stop-color:#3694cb;stop-opacity:1;"
         offset="1"
         id="stop2464" />
    </linearGradient>
  </defs>
  <rect
     style="fill:url(#linearGradient8655);fill-opacity:1.0;stroke:none"
     id="rect184"
     width="27"
     height="27"
     x="2.5"
     y="2.5"
     ry="4.5" />
  <path
     d="m 15.322327,8.0318298 c -0.19404,0.07377 -0.32231,0.25977 -0.32231,0.46736 v 7.3282022 l -4.191083,-3.721469 c -0.21714,-0.1706 -0.53146,-0.13289 -0.70207,0.08425 -0.17061,0.21714 -0.13289,0.53146 0.08425,0.70207 l 4.681383,4.106669 -4.681383,4.107022 c -0.21714,0.1706 -0.25486,0.4849 -0.08425,0.702 0.17061,0.2172 0.48493,0.2549 0.70207,0.0843 l 4.191083,-3.721721 v 7.328338 c 0,0.2076 0.12827,0.3936 0.32231,0.4674 0.19404,0.0738 0.41348,0.02 0.5514,-0.1352 l 4.999317,-4.499317 c 0.09159,-0.103 0.13658,-0.2393 0.12431,-0.3767 -0.01227,-0.1373 -0.0807,-0.2635 -0.18911,-0.3486 l -4.317117,-3.607522 4.317117,-3.606159 c 0.10841,-0.08518 0.17684,-0.21135 0.18911,-0.34867 0.01227,-0.13733 -0.03272,-0.27362 -0.12431,-0.37667 L 15.873727,8.1669698 c -0.154289,-0.138893 -0.35736,-0.20895 -0.5514,-0.13518 z m 0.67769,9.8530032 3.572427,3.179621 -3.572427,3.119317 z m 0,-1.771801 V 9.8142299 l 3.572427,3.1204431 z"
     id="path9739"
     style="fill:#000000;opacity:0.2" />
  <path
     d="m 15.322327,7.0313667 c -0.19404,0.07377 -0.32231,0.25977 -0.32231,0.46736 V 14.826929 L 10.808934,11.10546 c -0.21714,-0.1706 -0.53146,-0.13289 -0.70207,0.08425 -0.1706098,0.21714 -0.1328898,0.53146 0.08425,0.70207 l 4.681383,4.106669 -4.681383,4.107021 c -0.2171398,0.1706 -0.2548598,0.4849 -0.08425,0.702 0.17061,0.2172 0.48493,0.2549 0.70207,0.0843 l 4.191083,-3.721721 v 7.328338 c 0,0.2076 0.12827,0.3936 0.32231,0.4674 0.19404,0.0738 0.41348,0.02 0.5514,-0.1352 l 4.999317,-4.499317 c 0.09159,-0.103 0.13658,-0.2393 0.12431,-0.3767 -0.01227,-0.1373 -0.0807,-0.2635 -0.18911,-0.3486 l -4.317117,-3.607521 4.317117,-3.606159 c 0.10841,-0.08518 0.17684,-0.21135 0.18911,-0.34867 0.01227,-0.13733 -0.03272,-0.27362 -0.12431,-0.37667 L 15.873727,7.1665067 c -0.154289,-0.138893 -0.35736,-0.20895 -0.5514,-0.13518 z m 0.67769,9.8530023 3.572427,3.179621 -3.572427,3.119317 z m 0,-1.7718 V 8.8137667 l 3.572427,3.1204433 z"
     id="path346"
     sodipodi:nodetypes="csccsccccccssccccccscscccccccccc"
     style="fill:#ffffff" />
  <path
     id="rect2630"
     style="opacity:0.3;fill:#ffffff;fill-opacity:1"
     d="M 7,3 C 4.7840022,3 3,4.7840022 3,6.9999998 v 1 C 3,5.7840022 4.7840022,4 7,4 h 18 c 2.215998,0 4,1.7840022 4,3.9999998 v -1 C 29,4.7840022 27.215998,3 25,3 Z" />
  <path
     id="rect398"
     style="opacity:0.3;fill:#ffffff"
     d="m 3.0000002,24 v 1 c 0,2.215998 1.7840022,4 4,4 H 25 c 2.215998,0 4,-1.784002 4,-4 v -1 c 0,2.215998 -1.784002,4 -4,4 H 7.0000002 c -2.2159978,0 -4,-1.784002 -4,-4 z" />
  <path
     id="rect899"
     style="fill:#000000;stroke:none;opacity:0.5"
     d="M 7 2 C 4.2300028 2 2 4.2300028 2 7 L 2 25 C 2 27.769997 4.2300028 30 7 30 L 25 30 C 27.769997 30 30 27.769997 30 25 L 30 7 C 30 4.2300028 27.769997 2 25 2 L 7 2 z M 7 3 L 25 3 C 27.215998 3 29 4.7840022 29 7 L 29 25 C 29 27.215998 27.215998 29 25 29 L 7 29 C 4.7840022 29 3 27.215998 3 25 L 3 7 C 3 4.7840022 4.7840022 3 7 3 z " />
</svg>
