<?xml version="1.0" encoding="UTF-8" standalone="no"?>
<!-- Created with Inkscape (http://www.inkscape.org/) -->

<svg
   width="32"
   height="32"
   viewBox="0 0 32 32.000001"
   version="1.1"
   id="svg5"
   sodipodi:docname="shotwell.svg"
   inkscape:version="1.2.1 (9c6d41e410, 2022-07-14)"
   xmlns:inkscape="http://www.inkscape.org/namespaces/inkscape"
   xmlns:sodipodi="http://sodipodi.sourceforge.net/DTD/sodipodi-0.dtd"
   xmlns:xlink="http://www.w3.org/1999/xlink"
   xmlns="http://www.w3.org/2000/svg"
   xmlns:svg="http://www.w3.org/2000/svg">
  <sodipodi:namedview
     id="namedview7"
     pagecolor="#ffffff"
     bordercolor="#666666"
     borderopacity="1.0"
     inkscape:showpageshadow="2"
     inkscape:pageopacity="0.0"
     inkscape:pagecheckerboard="0"
     inkscape:deskcolor="#d1d1d1"
     inkscape:document-units="px"
     showgrid="false"
     inkscape:zoom="15.048116"
     inkscape:cx="2.4587795"
     inkscape:cy="19.205062"
     inkscape:window-width="1920"
     inkscape:window-height="1007"
     inkscape:window-x="0"
     inkscape:window-y="0"
     inkscape:window-maximized="1"
     inkscape:current-layer="svg5" />
  <defs
     id="defs2">
    <linearGradient
       inkscape:collect="always"
       xlink:href="#linearGradient4014"
       id="linearGradient8655"
       x1="16"
       y1="23"
       x2="16"
       y2="2"
       gradientUnits="userSpaceOnUse" />
    <linearGradient
       inkscape:collect="always"
       id="linearGradient4014">
      <stop
         style="stop-color:#2869b4;stop-opacity:1;"
         offset="0"
         id="stop4010" />
      <stop
         style="stop-color:#95caff;stop-opacity:1;"
         offset="1"
         id="stop4012" />
    </linearGradient>
  </defs>
  <rect
     style="fill:url(#linearGradient8655);fill-opacity:1;stroke:none"
     id="rect184"
     width="27"
     height="27"
     x="2.5"
     y="2.5"
     ry="4.5" />
  <rect
     style="opacity:0.2;fill:#ffffff;stroke-width:0.64952;stroke-linejoin:round"
     id="rect581"
     width="27"
     height="1"
     x="2.5"
     y="22" />
  <path
     id="path2539"
     style="opacity:0.5;fill:#ffffff;stroke-width:4.00001;stroke-linecap:round;stroke-linejoin:round"
     d="M 14,17 A 6,6 0 0 0 8,23 H 20 A 6,6 0 0 0 14,17 Z" />
  <path
     id="rect348"
     style="fill:#3b3b3b;fill-opacity:1;stroke-width:0.5;stroke-linejoin:round"
     d="m 10,7 4,3.921875 1,4 L 9,12 6,14 h 1 l 2,-1 6,4.921875 V 23 H 2.5 v 2 c 0,2.492996 2.007005,4.5 4.5,4.5 h 18 c 2.492996,0 4.5,-2.007004 4.5,-4.5 V 23 H 18 V 17.921875 L 23,14 h 1 l 1,-1 h -2 l -5,1.921875 -3,-5 z"
     sodipodi:nodetypes="ccccccccccsssscccccccccc" />
  <path
     id="path7424"
     style="opacity:0.2;fill:#ffffff;fill-opacity:1;stroke-width:0.999999"
     d="m 10,7 2.5,2.5 2.5,1.421875 3,5 L 23,14 h 1 l 1,-1 h -2 l -5,1.921875 -3,-5 z m -1,5 -3,2 h 1 l 2,-1 6,2.921875 -0.285156,-1.142578 z"
     sodipodi:nodetypes="cccccccccccccccccc" />
  <path
     id="rect2630"
     style="opacity:0.3;fill:#ffffff;fill-opacity:1"
     d="M 7,3 C 4.7840022,3 3,4.7840022 3,6.9999998 v 1 C 3,5.7840022 4.7840022,4 7,4 h 18 c 2.215998,0 4,1.7840022 4,3.9999998 v -1 C 29,4.7840022 27.215998,3 25,3 Z" />
  <path
     id="rect398"
     style="opacity:0.3;fill:#ffffff"
     d="m 3.0000002,24 v 1 c 0,2.215998 1.7840022,4 4,4 H 25 c 2.215998,0 4,-1.784002 4,-4 v -1 c 0,2.215998 -1.784002,4 -4,4 H 7.0000002 c -2.2159978,0 -4,-1.784002 -4,-4 z" />
  <path
     id="rect899"
     style="fill:#000000;stroke:none;opacity:0.5"
     d="M 7 2 C 4.2300028 2 2 4.2300028 2 7 L 2 25 C 2 27.769997 4.2300028 30 7 30 L 25 30 C 27.769997 30 30 27.769997 30 25 L 30 7 C 30 4.2300028 27.769997 2 25 2 L 7 2 z M 7 3 L 25 3 C 27.215998 3 29 4.7840022 29 7 L 29 25 C 29 27.215998 27.215998 29 25 29 L 7 29 C 4.7840022 29 3 27.215998 3 25 L 3 7 C 3 4.7840022 4.7840022 3 7 3 z " />
</svg>
