<?xml version="1.0" encoding="UTF-8" standalone="no"?>
<!-- Created with Inkscape (http://www.inkscape.org/) -->

<svg
   width="32"
   height="32"
   viewBox="0 0 32 32.000001"
   version="1.1"
   id="svg5"
   sodipodi:docname="usb-creator.svg"
   inkscape:version="1.2.1 (9c6d41e410, 2022-07-14)"
   xmlns:inkscape="http://www.inkscape.org/namespaces/inkscape"
   xmlns:sodipodi="http://sodipodi.sourceforge.net/DTD/sodipodi-0.dtd"
   xmlns:xlink="http://www.w3.org/1999/xlink"
   xmlns="http://www.w3.org/2000/svg"
   xmlns:svg="http://www.w3.org/2000/svg">
  <sodipodi:namedview
     id="namedview7"
     pagecolor="#ffffff"
     bordercolor="#666666"
     borderopacity="1.0"
     inkscape:showpageshadow="2"
     inkscape:pageopacity="0.0"
     inkscape:pagecheckerboard="0"
     inkscape:deskcolor="#d1d1d1"
     inkscape:document-units="px"
     showgrid="false"
     inkscape:zoom="28.285714"
     inkscape:cx="15.997475"
     inkscape:cy="16.015152"
     inkscape:window-width="1920"
     inkscape:window-height="1007"
     inkscape:window-x="0"
     inkscape:window-y="0"
     inkscape:window-maximized="1"
     inkscape:current-layer="svg5" />
  <defs
     id="defs2">
    <linearGradient
       inkscape:collect="always"
       xlink:href="#linearGradient2739"
       id="linearGradient8655"
       x1="25"
       y1="30"
       x2="7"
       y2="2"
       gradientUnits="userSpaceOnUse" />
    <linearGradient
       inkscape:collect="always"
       id="linearGradient2739">
      <stop
         style="stop-color:#8a8a8a;stop-opacity:1;"
         offset="0"
         id="stop2735" />
      <stop
         style="stop-color:#c0c0c0;stop-opacity:1;"
         offset="1"
         id="stop2737" />
    </linearGradient>
  </defs>
  <rect
     style="fill:url(#linearGradient8655);fill-opacity:1.0;stroke:none"
     id="rect184"
     width="27"
     height="27"
     x="2.5"
     y="2.5"
     ry="4.5" />
  <path
     d="m 15.5,6 c -1.09865,0 -2,0.9013526 -2,1.9999996 0,0.926983 0.63954,1.714343 1.5,1.9375 V 12.3125 L 12.15625,15.15625 11,16.28125 V 16.5 19.000001 h -1 v 3 h 3 v -3 H 12 V 16.6875 l 3,-3 v 9.312501 h -1.5 l 2,4 2,-4 H 16 V 12.4375 l 3,2.21875 V 17 c -0.58641,0.203841 -1,0.750411 -1,1.406251 0,0.82843 0.67157,1.5 1.5,1.5 0.82843,0 1.5,-0.67157 1.5,-1.5 C 21,17.750411 20.58641,17.203841 20,17 V 14.40625 14.125 L 19.78125,14 16,11.25 V 9.9374996 c 0.86046,-0.223157 1.5,-1.010517 1.5,-1.9375 C 17.5,6.9013526 16.59865,6 15.5,6 Z"
     style="color:#bebebe;display:inline;overflow:visible;visibility:visible;opacity:0.2;fill:#000000;fill-opacity:1;fill-rule:nonzero;stroke:none;stroke-width:4;marker:none;enable-background:accumulate"
     id="path8163" />
  <path
     d="m 15.5,5 c -1.09865,0 -2,0.901353 -2,2 0,0.926983 0.63954,1.714342 1.5,1.9375 v 2.375 L 12.15625,14.15625 11,15.28125 V 15.5 18 h -1 v 3 h 3 v -3 h -1 v -2.3125 l 3,-3 V 22 h -1.5 l 2,4 2,-4 H 16 V 11.4375 l 3,2.21875 V 16 c -0.58641,0.20384 -1,0.75041 -1,1.40625 0,0.82843 0.67157,1.5 1.5,1.5 0.82843,0 1.5,-0.67157 1.5,-1.5 C 21,16.75041 20.58641,16.20384 20,16 V 13.40625 13.125 L 19.78125,13 16,10.25 V 8.9375 C 16.86046,8.714342 17.5,7.926983 17.5,7 c 0,-1.098647 -0.90135,-2 -2,-2 z"
     style="color:#bebebe;display:inline;overflow:visible;visibility:visible;fill:#ffffff;fill-opacity:1;fill-rule:nonzero;stroke:none;stroke-width:4;marker:none;enable-background:accumulate"
     id="path7245"
     sodipodi:nodetypes="sscccccccccccccccccccccsssccccccss" />
  <path
     id="rect2630"
     style="opacity:0.3;fill:#ffffff;fill-opacity:1"
     d="M 7,3 C 4.7840022,3 3,4.7840022 3,6.9999998 v 1 C 3,5.7840022 4.7840022,4 7,4 h 18 c 2.215998,0 4,1.7840022 4,3.9999998 v -1 C 29,4.7840022 27.215998,3 25,3 Z" />
  <path
     id="rect398"
     style="opacity:0.3;fill:#ffffff"
     d="m 3.0000002,24 v 1 c 0,2.215998 1.7840022,4 4,4 H 25 c 2.215998,0 4,-1.784002 4,-4 v -1 c 0,2.215998 -1.784002,4 -4,4 H 7.0000002 c -2.2159978,0 -4,-1.784002 -4,-4 z" />
  <path
     id="rect899"
     style="fill:#000000;stroke:none;opacity:0.5"
     d="M 7 2 C 4.2300028 2 2 4.2300028 2 7 L 2 25 C 2 27.769997 4.2300028 30 7 30 L 25 30 C 27.769997 30 30 27.769997 30 25 L 30 7 C 30 4.2300028 27.769997 2 25 2 L 7 2 z M 7 3 L 25 3 C 27.215998 3 29 4.7840022 29 7 L 29 25 C 29 27.215998 27.215998 29 25 29 L 7 29 C 4.7840022 29 3 27.215998 3 25 L 3 7 C 3 4.7840022 4.7840022 3 7 3 z " />
</svg>
