<?xml version="1.0" encoding="UTF-8" standalone="no"?>
<!-- Created with Inkscape (http://www.inkscape.org/) -->

<svg
   width="32"
   height="32"
   viewBox="0 0 32 32.000001"
   version="1.1"
   id="svg5"
   sodipodi:docname="utilities-tweak-tool.svg"
   inkscape:version="1.2.1 (9c6d41e410, 2022-07-14)"
   xmlns:inkscape="http://www.inkscape.org/namespaces/inkscape"
   xmlns:sodipodi="http://sodipodi.sourceforge.net/DTD/sodipodi-0.dtd"
   xmlns:xlink="http://www.w3.org/1999/xlink"
   xmlns="http://www.w3.org/2000/svg"
   xmlns:svg="http://www.w3.org/2000/svg">
  <sodipodi:namedview
     id="namedview7"
     pagecolor="#ffffff"
     bordercolor="#666666"
     borderopacity="1.0"
     inkscape:showpageshadow="2"
     inkscape:pageopacity="0.0"
     inkscape:pagecheckerboard="0"
     inkscape:deskcolor="#d1d1d1"
     inkscape:document-units="px"
     showgrid="false"
     inkscape:zoom="24.84375"
     inkscape:cx="16"
     inkscape:cy="16"
     inkscape:window-width="1920"
     inkscape:window-height="1007"
     inkscape:window-x="0"
     inkscape:window-y="0"
     inkscape:window-maximized="1"
     inkscape:current-layer="svg5" />
  <defs
     id="defs2">
    <linearGradient
       inkscape:collect="always"
       xlink:href="#linearGradient22024"
       id="linearGradient8655"
       x1="16"
       y1="30"
       x2="16"
       y2="2"
       gradientUnits="userSpaceOnUse" />
    <linearGradient
       inkscape:collect="always"
       id="linearGradient22024">
      <stop
         style="stop-color:#dedede;stop-opacity:1;"
         offset="0"
         id="stop22020" />
      <stop
         style="stop-color:#f5f5f5;stop-opacity:1;"
         offset="1"
         id="stop22022" />
    </linearGradient>
    <linearGradient
       inkscape:collect="always"
       xlink:href="#linearGradient2971"
       id="linearGradient2973"
       x1="53"
       y1="30"
       x2="53"
       y2="14"
       gradientUnits="userSpaceOnUse"
       gradientTransform="matrix(0.5,0,0,0.5,-0.49999995,-1.0000001)" />
    <linearGradient
       inkscape:collect="always"
       id="linearGradient2971">
      <stop
         style="stop-color:#51aadf;stop-opacity:1;"
         offset="0"
         id="stop2967" />
      <stop
         style="stop-color:#57bcfa;stop-opacity:1;"
         offset="1"
         id="stop2969" />
    </linearGradient>
    <linearGradient
       inkscape:collect="always"
       xlink:href="#linearGradient2059"
       id="linearGradient2063"
       x1="53"
       y1="52"
       x2="53"
       y2="36"
       gradientUnits="userSpaceOnUse"
       gradientTransform="matrix(0.5,0,0,0.5,-0.49999995,-9.2619629e-8)" />
    <linearGradient
       inkscape:collect="always"
       id="linearGradient2059">
      <stop
         style="stop-color:#999999;stop-opacity:1"
         offset="0"
         id="stop2055" />
      <stop
         style="stop-color:#b3b3b3;stop-opacity:1"
         offset="1"
         id="stop2057" />
    </linearGradient>
    <linearGradient
       inkscape:collect="always"
       xlink:href="#linearGradient22024-6"
       id="linearGradient3761"
       x1="50"
       y1="27"
       x2="50"
       y2="15"
       gradientUnits="userSpaceOnUse"
       gradientTransform="matrix(0.5,0,0,0.5,5.0000001e-8,-0.50000009)" />
    <linearGradient
       inkscape:collect="always"
       id="linearGradient22024-6">
      <stop
         style="stop-color:#dedede;stop-opacity:1;"
         offset="0"
         id="stop22020-7" />
      <stop
         style="stop-color:#f2f2f2;stop-opacity:1;"
         offset="1"
         id="stop22022-5" />
    </linearGradient>
    <linearGradient
       inkscape:collect="always"
       xlink:href="#linearGradient22024-6"
       id="linearGradient3771"
       x1="50"
       y1="27"
       x2="50"
       y2="15"
       gradientUnits="userSpaceOnUse"
       gradientTransform="matrix(0.5,0,0,0.5,-7.9999999,11.5)" />
  </defs>
  <rect
     style="fill:url(#linearGradient8655);fill-opacity:1;stroke:none"
     id="rect184"
     width="27"
     height="27"
     x="2.5"
     y="2.5"
     ry="4.5" />
  <path
     id="rect1301"
     style="opacity:0.2;fill:#ffffff;stroke-width:1.71429;stroke-linecap:round;stroke-linejoin:round"
     d="m 10.000001,6.9999999 c -2.215999,0 -4.0000009,1.784002 -4.0000009,4.0000011 C 6.0000001,13.215998 7.7840021,15 10.000001,15 H 21.999999 C 24.215998,15 26,13.215998 26,11.000001 26,8.7840019 24.215998,6.9999999 21.999999,6.9999999 Z"
     sodipodi:nodetypes="sssssss" />
  <path
     d="M 9.999999,19 C 7.784002,19 6.0000001,20.784002 6.0000001,22.999999 6.0000001,25.215997 7.7840021,27 9.999999,27 H 22 c 2.215998,0 4,-1.784003 4,-4.000001 C 26,20.784002 24.215998,19 22,19 Z"
     style="opacity:0.2;fill:#ffffff;stroke-width:1.71429;stroke-linecap:round;stroke-linejoin:round"
     id="path3948"
     sodipodi:nodetypes="sssssss" />
  <rect
     style="fill:url(#linearGradient2973);fill-opacity:1;stroke-width:1.5;stroke-linecap:round;stroke-linejoin:round"
     id="rect743"
     width="20"
     height="8"
     x="6"
     y="6"
     ry="4" />
  <rect
     style="fill:url(#linearGradient2063);fill-opacity:1;stroke-width:1.5;stroke-linecap:round;stroke-linejoin:round"
     id="rect745"
     width="20"
     height="8"
     x="6"
     y="18"
     ry="4" />
  <path
     id="rect3773"
     style="opacity:0.2;fill:#000000;fill-opacity:1;stroke-width:1.5;stroke-linecap:round;stroke-linejoin:round"
     d="m 18,7.9999999 c -1.661997,0 -3,1.338003 -3,3.0000001 0,1.661996 1.338003,3 3,3 h 4 c 1.661996,0 3,-1.338004 3,-3 C 25,9.3380029 23.661996,7.9999999 22,7.9999999 Z M 10,20 c -1.661996,0 -3,1.338004 -3,3 0,1.661996 1.338004,3 3,3 h 4 c 1.661996,0 3,-1.338004 3,-3 0,-1.661996 -1.338004,-3 -3,-3 z"
     sodipodi:nodetypes="ssssssssssssss" />
  <rect
     style="fill:url(#linearGradient3761);fill-opacity:1;stroke-width:1.5;stroke-linecap:round;stroke-linejoin:round"
     id="rect3027"
     width="10"
     height="6"
     x="15"
     y="7"
     ry="3" />
  <rect
     style="fill:url(#linearGradient3771);fill-opacity:1;stroke-width:1.5;stroke-linecap:round;stroke-linejoin:round"
     id="rect3763"
     width="10"
     height="6"
     x="7"
     y="19"
     ry="3" />
  <path
     id="rect2630"
     style="opacity:0.3;fill:#ffffff;fill-opacity:1"
     d="M 7,3 C 4.7840022,3 3,4.7840022 3,6.9999998 v 1 C 3,5.7840022 4.7840022,4 7,4 h 18 c 2.215998,0 4,1.7840022 4,3.9999998 v -1 C 29,4.7840022 27.215998,3 25,3 Z" />
  <path
     id="rect398"
     style="opacity:0.3;fill:#ffffff"
     d="m 3.0000002,24 v 1 c 0,2.215998 1.7840022,4 4,4 H 25 c 2.215998,0 4,-1.784002 4,-4 v -1 c 0,2.215998 -1.784002,4 -4,4 H 7.0000002 c -2.2159978,0 -4,-1.784002 -4,-4 z" />
  <path
     id="rect899"
     style="fill:#000000;stroke:none;opacity:0.5"
     d="M 7 2 C 4.2300028 2 2 4.2300028 2 7 L 2 25 C 2 27.769997 4.2300028 30 7 30 L 25 30 C 27.769997 30 30 27.769997 30 25 L 30 7 C 30 4.2300028 27.769997 2 25 2 L 7 2 z M 7 3 L 25 3 C 27.215998 3 29 4.7840022 29 7 L 29 25 C 29 27.215998 27.215998 29 25 29 L 7 29 C 4.7840022 29 3 27.215998 3 25 L 3 7 C 3 4.7840022 4.7840022 3 7 3 z " />
</svg>
