<?xml version="1.0" encoding="UTF-8" standalone="no"?>
<!-- Created with Inkscape (http://www.inkscape.org/) -->

<svg
   width="32"
   height="32"
   viewBox="0 0 32 32.000001"
   version="1.1"
   id="svg5"
   sodipodi:docname="virtualbox.svg"
   inkscape:version="1.2.1 (9c6d41e410, 2022-07-14)"
   xmlns:inkscape="http://www.inkscape.org/namespaces/inkscape"
   xmlns:sodipodi="http://sodipodi.sourceforge.net/DTD/sodipodi-0.dtd"
   xmlns:xlink="http://www.w3.org/1999/xlink"
   xmlns="http://www.w3.org/2000/svg"
   xmlns:svg="http://www.w3.org/2000/svg">
  <sodipodi:namedview
     id="namedview7"
     pagecolor="#ffffff"
     bordercolor="#666666"
     borderopacity="1.0"
     inkscape:showpageshadow="2"
     inkscape:pageopacity="0.0"
     inkscape:pagecheckerboard="0"
     inkscape:deskcolor="#d1d1d1"
     inkscape:document-units="px"
     showgrid="false"
     inkscape:zoom="24.84375"
     inkscape:cx="15.979874"
     inkscape:cy="16"
     inkscape:window-width="1920"
     inkscape:window-height="1007"
     inkscape:window-x="0"
     inkscape:window-y="0"
     inkscape:window-maximized="1"
     inkscape:current-layer="svg5" />
  <defs
     id="defs2">
    <linearGradient
       inkscape:collect="always"
       xlink:href="#linearGradient3319"
       id="linearGradient16885"
       x1="16"
       y1="30"
       x2="16"
       y2="2"
       gradientUnits="userSpaceOnUse" />
    <linearGradient
       inkscape:collect="always"
       id="linearGradient3319">
      <stop
         style="stop-color:#0073de;stop-opacity:1;"
         offset="0"
         id="stop3315" />
      <stop
         style="stop-color:#63beff;stop-opacity:1;"
         offset="1"
         id="stop3317" />
    </linearGradient>
  </defs>
  <rect
     style="fill:url(#linearGradient16885);fill-opacity:1.0;stroke:none"
     id="rect184"
     width="27"
     height="27"
     x="2.5"
     y="2.5"
     ry="4.5" />
  <path
     id="path4119"
     style="display:inline;opacity:0.2;fill:#000000;fill-opacity:1;fill-rule:nonzero;stroke:none;stroke-width:2;enable-background:new"
     d="m 8,5.5 c -1.6619963,0 -3,1.3380034 -3,3 v 16 c 0,1.661996 1.3380037,3 3,3 h 16 c 1.661996,0 3,-1.338004 3,-3 v -16 c 0,-1.6619966 -1.338004,-3 -3,-3 z m 0,2 h 16 c 0.553998,0 1,0.4460012 1,1 v 10 h -2 l -4,-10 -2,6 -2,-6 -1.993732,6.645774 L 12,18.5 10,12.5 H 7 v -4 c 0,-0.5539988 0.4460016,-1 1,-1 z m 7,6 2,6.398438 2,-6.398438 3,7 h 3 v 4 c 0,0.553998 -0.446002,1 -1,1 H 8 c -0.5539984,0 -1,-0.446002 -1,-1 v -10 H 8.6015625 L 12,24.5 Z"
     sodipodi:nodetypes="sssssssssssscccccccccsscccccsccscccc" />
  <path
     id="path590"
     style="display:inline;fill:#ffffff;fill-opacity:1;fill-rule:nonzero;stroke:none;stroke-width:2;enable-background:new"
     d="M 8,5 C 6.338004,5 5,6.338003 5,8 v 16 c 0,1.661996 1.338004,3 3,3 h 16 c 1.661996,0 3,-1.338004 3,-3 V 8 C 27,6.338003 25.661996,5 24,5 Z m 0,2 h 16 c 0.553998,0 1,0.446001 1,1 V 18 H 23 L 19,8 17,14 15,8 12,18 10,12 H 7 V 8 C 7,7.446001 7.446001,7 8,7 Z m 7,6 2,6.398438 L 19,13 l 3,7 h 3 v 4 c 0,0.553998 -0.446002,1 -1,1 H 8 C 7.446001,25 7,24.553998 7,24 V 14 H 8.601563 L 12,24 Z"
     sodipodi:nodetypes="ssssssssssssccccccccsscccccsssscccc" />
  <path
     id="rect2630"
     style="opacity:0.3;fill:#ffffff;fill-opacity:1"
     d="M 7,3 C 4.7840022,3 3,4.7840022 3,6.9999998 v 1 C 3,5.7840022 4.7840022,4 7,4 h 18 c 2.215998,0 4,1.7840022 4,3.9999998 v -1 C 29,4.7840022 27.215998,3 25,3 Z" />
  <path
     id="rect398"
     style="opacity:0.3;fill:#ffffff"
     d="m 3.0000002,24 v 1 c 0,2.215998 1.7840022,4 4,4 H 25 c 2.215998,0 4,-1.784002 4,-4 v -1 c 0,2.215998 -1.784002,4 -4,4 H 7.0000002 c -2.2159978,0 -4,-1.784002 -4,-4 z" />
  <path
     id="rect899"
     style="fill:#000000;stroke:none;opacity:0.5"
     d="M 7 2 C 4.2300028 2 2 4.2300028 2 7 L 2 25 C 2 27.769997 4.2300028 30 7 30 L 25 30 C 27.769997 30 30 27.769997 30 25 L 30 7 C 30 4.2300028 27.769997 2 25 2 L 7 2 z M 7 3 L 25 3 C 27.215998 3 29 4.7840022 29 7 L 29 25 C 29 27.215998 27.215998 29 25 29 L 7 29 C 4.7840022 29 3 27.215998 3 25 L 3 7 C 3 4.7840022 4.7840022 3 7 3 z " />
</svg>
