<?xml version="1.0" encoding="UTF-8" standalone="no"?>
<!-- Created with Inkscape (http://www.inkscape.org/) -->

<svg
   width="32"
   height="32"
   viewBox="0 0 32 32.000001"
   version="1.1"
   id="svg5"
   sodipodi:docname="wayland.svg"
   inkscape:version="1.2.1 (9c6d41e410, 2022-07-14)"
   xmlns:inkscape="http://www.inkscape.org/namespaces/inkscape"
   xmlns:sodipodi="http://sodipodi.sourceforge.net/DTD/sodipodi-0.dtd"
   xmlns:xlink="http://www.w3.org/1999/xlink"
   xmlns="http://www.w3.org/2000/svg"
   xmlns:svg="http://www.w3.org/2000/svg">
  <sodipodi:namedview
     id="namedview7"
     pagecolor="#ffffff"
     bordercolor="#666666"
     borderopacity="1.0"
     inkscape:showpageshadow="2"
     inkscape:pageopacity="0.0"
     inkscape:pagecheckerboard="0"
     inkscape:deskcolor="#d1d1d1"
     inkscape:document-units="px"
     showgrid="false"
     inkscape:zoom="24.90625"
     inkscape:cx="15.979925"
     inkscape:cy="16"
     inkscape:window-width="1920"
     inkscape:window-height="1009"
     inkscape:window-x="0"
     inkscape:window-y="0"
     inkscape:window-maximized="1"
     inkscape:current-layer="svg5" />
  <defs
     id="defs2">
    <linearGradient
       inkscape:collect="always"
       xlink:href="#linearGradient6547"
       id="linearGradient8655"
       x1="25"
       y1="30"
       x2="7"
       y2="2"
       gradientUnits="userSpaceOnUse" />
    <linearGradient
       inkscape:collect="always"
       id="linearGradient6547">
      <stop
         style="stop-color:#ffbc00;stop-opacity:1;"
         offset="0"
         id="stop6543" />
      <stop
         style="stop-color:#ffdf83;stop-opacity:1;"
         offset="1"
         id="stop6545" />
    </linearGradient>
  </defs>
  <rect
     style="fill:url(#linearGradient8655);fill-opacity:1.0;stroke:none"
     id="rect184"
     width="27"
     height="27"
     x="2.5"
     y="2.5"
     ry="4.5" />
  <path
     d="m 15.99873,7.000005 c -1.706595,0 -3.312655,0.42899 -4.718305,1.182755 h 1.98652 v 0.13481 c -0.26532,0.01265 -0.44372,0.08199 -0.53923,0.20857 C 12.52607,8.3869 12.32863,8.317585 12.137605,8.31757 h -0.65115 l -0.36627,0.05595 -0.06359,-0.05595 h -0.02035 c -0.260155,0.14907 -0.513185,0.30962 -0.75798,0.48073 0.560835,0.803775 0.899485,1.49828 1.01488,2.08063 h 0.541775 v 0.13481 h -0.4146 v 0.15007 c 0.15919,0.58236 0.27672,0.874995 0.35101,0.874985 h 0.12718 l 0.28742,-0.0763 0.06359,0.0763 0.06359,-0.0763 0.06359,0.0763 v 0.05595 c -0.212255,0.15193 -0.355575,0.36242 -0.42986,0.62826 h -0.04835 v 0.132265 h 0.11192 c 0.14857,2.114175 0.425915,3.71606 0.8292,4.804786 l 0.23655,0.188219 h 0.127175 c 0.159185,1.1e-5 0.495295,-0.73934 1.004705,-2.220525 0.32899,-0.67095 0.56616,-1.258835 0.71474,-1.76523 l -0.06359,-0.211115 c 0.32899,-0.493715 0.669745,-0.74016 1.01997,-0.740175 h 0.111915 c 0.22286,1.5e-5 0.380125,0.138645 0.475645,0.417145 0.29715,0.41778 0.53686,1.046705 0.717285,1.88223 l 0.89279,1.9738 c 0.11673,0.139265 0.172955,0.29842 0.17296,0.47565 0.328985,0.746925 0.627465,1.23982 0.89279,1.48035 h 0.190765 c 0.22286,6e-6 0.518795,-0.92416 0.89025,-2.77248 0.06366,10e-6 0.23996,-0.49289 0.526515,-1.48035 v -0.07631 l -1.002165,-0.13226 -0.23909,0.07376 h -0.302685 v -0.15007 l 0.605365,-0.0585 h 1.17767 c 0.45633,-1.633085 0.87445,-2.898685 1.256515,-3.797535 0.0396,-0.57455 0.08599,-1.04879 0.13481,-1.44474 -0.692905,-0.574975 -1.46481,-1.059195 -2.296835,-1.432025 -0.06811,0.15727 -0.19942,0.23657 -0.39934,0.23655 v -0.13226 l 0.36882,-0.11955 C 18.814165,7.304565 17.441725,7 15.998745,7 Z M 14.096145,8.18276 h 1.60753 V 8.31757 L 15.337405,8.37352 14.986395,8.31757 14.68371,8.449835 14.574335,8.31757 h -0.47819 z m 3.326975,1.083555 h 0.175505 v 0.05596 c -5e-6,0.08864 -0.05877,0.13228 -0.175505,0.132265 l -0.06359,0.07631 v 0.0763 L 17.18402,9.53085 V 9.398585 Z M 8.87422,9.98614 C 7.096995,11.7912 6,14.26802 6,17.00128 c 0,5.522745 4.475985,9.998725 9.99873,9.998725 5.522745,0 10.00127,-4.47598 10.00127,-9.998725 0,-2.23129 -0.730875,-4.293395 -1.96617,-5.95702 -0.268705,0.318775 -0.52921,0.922185 -0.783415,1.811015 -0.116755,0.924165 -0.31419,1.77902 -0.59011,2.56391 -0.2441,0.810225 -0.36628,1.55726 -0.36627,2.240875 l -0.460385,1.348085 c -10e-6,0.11394 0.173745,0.226905 0.523975,0.340835 -0.06369,0.26586 -0.160085,0.399345 -0.28742,0.39934 v 0.07631 h 0.111915 v 0.05596 c -1.5e-5,0.13926 -0.18096,0.208575 -0.54178,0.20857 l 0.06614,0.07631 v 0.267075 h -0.11192 c 0.07428,0.265855 0.231545,0.396795 0.47565,0.39679 v 0.13481 h -0.47565 v 0.07631 c 0.15918,0 0.239085,0.112965 0.239095,0.340835 l -0.668955,0.26453 0.06359,0.07631 v 0.0585 c -10e-6,0.08863 -0.07992,0.13227 -0.239095,0.13227 v 0.0763 c 0.201625,5e-6 0.302675,0.04365 0.302685,0.132265 -0.286555,0.11394 -0.66494,0.678695 -1.131885,1.691465 -0.47758,0.898835 -0.891045,1.348085 -1.241255,1.348085 h -0.12718 c -0.265325,-0.20255 -0.48136,-0.87513 -0.65115,-2.014495 -0.67922,-1.73437 -1.019975,-2.75352 -1.01997,-3.05736 -5e-6,-0.78489 -0.21858,-1.61922 -0.65369,-2.505405 C 16.35,17.19131 16.27264,16.69587 16.2302,16.10086 l -0.287425,-0.07377 c -0.721665,1.30395 -1.097505,2.323105 -1.12934,3.057355 -0.201645,0.430435 -0.361455,0.949 -0.47819,1.55666 0.435115,0.13926 0.651145,0.272745 0.651155,0.39934 v 0.07376 c -0.33961,-0.05063 -0.576785,-0.14562 -0.71474,-0.28488 -0.148585,0.341815 -0.34602,1.29165 -0.59011,2.84879 -0.19103,0.7216 -0.4282,1.083555 -0.71474,1.083555 -0.80656,-0.316495 -1.480885,-0.83506 -2.02213,-1.55666 -0.0849,5e-6 -0.22357,-0.361955 -0.4146,-1.083555 -0.11674,0 -0.19664,-0.35941 -0.23909,-1.08101 -0.40328,-1.02543 -0.67808,-2.19859 -0.82666,-3.5152 V 15.55145 H 9.40074 l -0.28742,0.07631 v -0.07631 c 0,-0.08861 0.09639,-0.132255 0.28742,-0.132265 L 9.33715,14.27967 V 13.38688 L 8.87422,10.538095 Z m 7.656115,0.02035 v 0.07631 c -10e-6,0.10129 -0.25367,0.20911 -0.76307,0.32303 v -0.13481 l 0.35101,-0.18822 0.06359,0.05596 h 0.04835 l 0.30014,-0.132265 z m -1.716905,0.68422 v 0.05595 c -0.22287,0.20257 -0.584765,0.387395 -1.083555,0.551955 v -0.13481 c 0.0849,10e-6 0.12717,-0.0693 0.12718,-0.20857 z m 9.004195,0.0763 -0.02795,0.246725 h 0.111915 l 0.06868,-0.05342 c -0.0496,-0.06538 -0.101435,-0.129195 -0.152615,-0.19331 z m -5.979905,0.587565 0.06359,0.0763 v 0.05596 l -0.111915,0.152615 h -0.06359 l -0.12718,-0.152615 v -0.05596 z m 2.195095,0.0763 h 0.06358 v 0.05596 L 19.98702,11.63945 h -0.06358 v -0.0763 z m -1.002165,0.948745 0.239095,0.19077 c -0.04245,0.139265 -0.15999,0.20858 -0.35101,0.20857 l -0.12718,-0.20857 c -10e-6,-0.06329 0.0799,-0.12746 0.239095,-0.19077 z m 1.432025,0.874985 0.04835,0.07376 v 0.0585 l -0.04835,0.07631 h -0.12718 v -0.07631 z m -2.25868,0.681675 v 0.0585 l -0.302685,0.28488 h -0.175505 v -0.07631 c -10e-6,-0.113925 0.1598,-0.20376 0.47819,-0.26707 z m -9.87155,2.64021 h 0.06359 V 16.635 c -0.15919,0.417775 -0.29532,0.66937 -0.41206,0.75798 H 7.856795 V 17.1081 Z m 7.78583,3.17182 h 0.06359 v 0.132265 l -0.47819,0.28488 -0.06359,-0.07631 V 19.95688 Z m -6.54203,0.89279 h 0.10937 l 0.19077,0.740175 H 9.749205 L 9.576245,20.69706 Z m 6.366525,0.87244 h 0.04835 l 0.19077,0.20857 -0.06359,0.0585 h -0.06359 l -0.111915,-0.190766 v -0.0763 z"
     style="display:inline;opacity:0.2;fill:#000000;fill-opacity:1;stroke:none;stroke-width:0.5;enable-background:new"
     id="path6093" />
  <path
     d="m 15.99873,6.000005 c -1.706595,0 -3.312655,0.42899 -4.718305,1.182755 h 1.98652 v 0.13481 c -0.26532,0.01265 -0.44372,0.08199 -0.53923,0.20857 C 12.52607,7.3869 12.32863,7.317585 12.137605,7.31757 h -0.65115 l -0.36627,0.05595 -0.06359,-0.05595 h -0.02035 C 10.77609,7.46664 10.52306,7.62719 10.278265,7.7983 10.8391,8.602075 11.17775,9.29658 11.293145,9.87893 h 0.541775 v 0.13481 h -0.4146 v 0.15007 c 0.15919,0.58236 0.27672,0.874995 0.35101,0.874985 h 0.12718 l 0.28742,-0.0763 0.06359,0.0763 0.06359,-0.0763 0.06359,0.0763 v 0.05595 c -0.212255,0.15193 -0.355575,0.36242 -0.42986,0.62826 h -0.04835 v 0.132265 h 0.11192 c 0.14857,2.114175 0.425915,3.71606 0.8292,4.804785 l 0.23655,0.18822 h 0.127175 c 0.159185,10e-6 0.495295,-0.73934 1.004705,-2.220525 0.32899,-0.67095 0.56616,-1.258835 0.71474,-1.76523 l -0.06359,-0.211115 c 0.32899,-0.493715 0.669745,-0.74016 1.01997,-0.740175 h 0.111915 c 0.22286,1.5e-5 0.380125,0.138645 0.475645,0.417145 0.29715,0.41778 0.53686,1.046705 0.717285,1.88223 l 0.89279,1.9738 c 0.11673,0.139265 0.172955,0.29842 0.17296,0.47565 0.328985,0.746925 0.627465,1.23982 0.89279,1.48035 h 0.190765 c 0.22286,5e-6 0.518795,-0.92416 0.89025,-2.77248 0.06366,10e-6 0.23996,-0.49289 0.526515,-1.48035 v -0.07631 l -1.002165,-0.13226 -0.23909,0.07376 h -0.302685 v -0.15007 l 0.605365,-0.0585 h 1.17767 c 0.45633,-1.633085 0.87445,-2.898685 1.256515,-3.797535 0.0396,-0.57455 0.08599,-1.04879 0.13481,-1.44474 -0.692905,-0.574975 -1.46481,-1.059195 -2.296835,-1.432025 -0.06811,0.15727 -0.19942,0.23657 -0.39934,0.23655 v -0.13226 l 0.36882,-0.11955 C 18.814165,6.304565 17.441725,6 15.998745,6 Z M 14.096145,7.18276 h 1.60753 V 7.31757 L 15.337405,7.37352 14.986395,7.31757 14.68371,7.449835 14.574335,7.31757 h -0.47819 z m 3.326975,1.083555 h 0.175505 v 0.05596 c -5e-6,0.08864 -0.05877,0.13228 -0.175505,0.132265 l -0.06359,0.07631 v 0.0763 L 17.18402,8.53085 V 8.398585 Z M 8.87422,8.98614 C 7.096995,10.7912 6,13.26802 6,16.00128 c 0,5.522745 4.475985,9.998725 9.99873,9.998725 5.522745,0 10.00127,-4.47598 10.00127,-9.998725 0,-2.23129 -0.730875,-4.293395 -1.96617,-5.95702 -0.268705,0.318775 -0.52921,0.922185 -0.783415,1.811015 -0.116755,0.924165 -0.31419,1.77902 -0.59011,2.56391 -0.2441,0.810225 -0.36628,1.55726 -0.36627,2.240875 l -0.460385,1.348085 c -10e-6,0.11394 0.173745,0.226905 0.523975,0.340835 -0.06369,0.26586 -0.160085,0.399345 -0.28742,0.39934 v 0.07631 h 0.111915 v 0.05596 c -1.5e-5,0.13926 -0.18096,0.208575 -0.54178,0.20857 l 0.06614,0.07631 v 0.267075 h -0.11192 c 0.07428,0.265855 0.231545,0.396795 0.47565,0.39679 v 0.13481 h -0.47565 v 0.07631 c 0.15918,0 0.239085,0.112965 0.239095,0.340835 l -0.668955,0.26453 0.06359,0.07631 v 0.0585 c -10e-6,0.08863 -0.07992,0.13227 -0.239095,0.13227 v 0.0763 c 0.201625,5e-6 0.302675,0.04365 0.302685,0.132265 -0.286555,0.11394 -0.66494,0.678695 -1.131885,1.691465 -0.47758,0.898835 -0.891045,1.348085 -1.241255,1.348085 h -0.12718 c -0.265325,-0.20255 -0.48136,-0.87513 -0.65115,-2.014495 -0.67922,-1.73437 -1.019975,-2.75352 -1.01997,-3.05736 -5e-6,-0.78489 -0.21858,-1.61922 -0.65369,-2.505405 C 16.35,16.19131 16.27264,15.69587 16.2302,15.10086 l -0.287425,-0.07377 c -0.721665,1.30395 -1.097505,2.323105 -1.12934,3.057355 -0.201645,0.430435 -0.361455,0.949 -0.47819,1.55666 0.435115,0.13926 0.651145,0.272745 0.651155,0.39934 v 0.07376 c -0.33961,-0.05063 -0.576785,-0.14562 -0.71474,-0.28488 -0.148585,0.341815 -0.34602,1.29165 -0.59011,2.84879 -0.19103,0.7216 -0.4282,1.083555 -0.71474,1.083555 -0.80656,-0.316495 -1.480885,-0.83506 -2.02213,-1.55666 -0.0849,5e-6 -0.22357,-0.361955 -0.4146,-1.083555 -0.11674,0 -0.19664,-0.35941 -0.23909,-1.08101 -0.40328,-1.02543 -0.67808,-2.19859 -0.82666,-3.5152 v -1.9738 H 9.40074 l -0.28742,0.07631 v -0.07631 c 0,-0.08861 0.09639,-0.132255 0.28742,-0.132265 L 9.33715,13.279665 v -0.89279 L 8.87422,9.53809 Z m 7.656115,0.02035 V 9.0828 c -10e-6,0.101291 -0.25367,0.20911 -0.76307,0.323031 v -0.13481 l 0.35101,-0.188221 0.06359,0.05596 h 0.04835 l 0.30014,-0.132264 z M 14.81343,9.690709 v 0.05596 c -0.22287,0.20257 -0.584765,0.387395 -1.083555,0.551955 v -0.13481 c 0.0849,10e-6 0.12717,-0.0693 0.12718,-0.20857 z m 9.004195,0.07631 -0.02795,0.246724 h 0.111915 l 0.06868,-0.05342 C 23.92067,9.894943 23.868835,9.831128 23.817655,9.767014 Z m -5.979905,0.587564 0.06359,0.07631 v 0.05596 l -0.111915,0.152615 h -0.06359 l -0.12718,-0.152615 v -0.05596 z m 2.195095,0.07631 h 0.06358 v 0.05596 l -0.109375,0.152615 h -0.06358 v -0.07631 z m -1.002165,0.948745 0.239095,0.190769 c -0.04245,0.139266 -0.15999,0.20858 -0.35101,0.208571 l -0.12718,-0.208571 c -10e-6,-0.06329 0.0799,-0.12746 0.239095,-0.190769 z m 1.432025,0.874984 0.04835,0.07376 v 0.0585 l -0.04835,0.07631 h -0.12718 v -0.07631 z m -2.25868,0.681676 v 0.0585 l -0.302685,0.28488 h -0.175505 v -0.07631 c -10e-6,-0.113925 0.1598,-0.20376 0.47819,-0.267069 z m -9.87155,2.640209 h 0.06359 v 0.05851 c -0.15919,0.417775 -0.29532,0.66937 -0.41206,0.75798 h -0.12718 v -0.28488 z m 7.78583,3.17182 h 0.06359 v 0.132265 l -0.47819,0.28488 -0.06359,-0.07631 V 18.95689 Z m -6.54203,0.89279 h 0.10937 l 0.19077,0.740175 h -0.12718 l -0.17296,-0.684215 z m 6.366525,0.87244 h 0.04835 l 0.19077,0.20857 -0.06359,0.0585 h -0.06359 l -0.111915,-0.190765 v -0.07631 z"
     style="display:inline;fill:#ffffff;fill-opacity:1;stroke:none;stroke-width:0.5;enable-background:new"
     id="path3360"
     sodipodi:nodetypes="scccccccccccccccccccccccccccccccccccccccscccccccccccccccsscccccccccccscccccccsssccccccccccccccccccccccccccsccccccccccccccccccccsccccccccccccccccccccccccccccccccccccccccccccccccccccccccccccccccccccccccccccccccccccccc" />
  <path
     id="rect2630"
     style="opacity:0.3;fill:#ffffff;fill-opacity:1"
     d="M 7,3 C 4.7840022,3 3,4.7840022 3,6.9999998 v 1 C 3,5.7840022 4.7840022,4 7,4 h 18 c 2.215998,0 4,1.7840022 4,3.9999998 v -1 C 29,4.7840022 27.215998,3 25,3 Z" />
  <path
     id="rect398"
     style="opacity:0.3;fill:#ffffff"
     d="m 3.0000002,24 v 1 c 0,2.215998 1.7840022,4 4,4 H 25 c 2.215998,0 4,-1.784002 4,-4 v -1 c 0,2.215998 -1.784002,4 -4,4 H 7.0000002 c -2.2159978,0 -4,-1.784002 -4,-4 z" />
  <path
     id="rect899"
     style="fill:#000000;stroke:none;opacity:0.5"
     d="M 7 2 C 4.2300028 2 2 4.2300028 2 7 L 2 25 C 2 27.769997 4.2300028 30 7 30 L 25 30 C 27.769997 30 30 27.769997 30 25 L 30 7 C 30 4.2300028 27.769997 2 25 2 L 7 2 z M 7 3 L 25 3 C 27.215998 3 29 4.7840022 29 7 L 29 25 C 29 27.215998 27.215998 29 25 29 L 7 29 C 4.7840022 29 3 27.215998 3 25 L 3 7 C 3 4.7840022 4.7840022 3 7 3 z " />
</svg>
