<?xml version="1.0" encoding="UTF-8" standalone="no"?>
<!-- Created with Inkscape (http://www.inkscape.org/) -->

<svg
   width="128"
   height="128"
   viewBox="0 0 128 128"
   version="1.1"
   id="svg5"
   inkscape:version="1.2.1 (9c6d41e410, 2022-07-14)"
   sodipodi:docname="dialog-error.svg"
   xmlns:inkscape="http://www.inkscape.org/namespaces/inkscape"
   xmlns:sodipodi="http://sodipodi.sourceforge.net/DTD/sodipodi-0.dtd"
   xmlns:xlink="http://www.w3.org/1999/xlink"
   xmlns="http://www.w3.org/2000/svg"
   xmlns:svg="http://www.w3.org/2000/svg">
  <sodipodi:namedview
     id="namedview7"
     pagecolor="#ffffff"
     bordercolor="#666666"
     borderopacity="1.0"
     inkscape:showpageshadow="2"
     inkscape:pageopacity="0.0"
     inkscape:pagecheckerboard="0"
     inkscape:deskcolor="#d1d1d1"
     inkscape:document-units="px"
     showgrid="false"
     inkscape:zoom="6.4140625"
     inkscape:cx="63.922046"
     inkscape:cy="64"
     inkscape:window-width="1920"
     inkscape:window-height="1007"
     inkscape:window-x="0"
     inkscape:window-y="0"
     inkscape:window-maximized="1"
     inkscape:current-layer="svg5" />
  <defs
     id="defs2">
    <linearGradient
       inkscape:collect="always"
       xlink:href="#linearGradient5312"
       id="linearGradient2881"
       x1="29"
       y1="29"
       x2="3"
       y2="3"
       gradientUnits="userSpaceOnUse"
       gradientTransform="matrix(4.3076922,0,0,4.3076922,-4.923077,-4.923077)" />
    <linearGradient
       inkscape:collect="always"
       id="linearGradient5312">
      <stop
         style="stop-color:#c72222;stop-opacity:1;"
         offset="0"
         id="stop5308" />
      <stop
         style="stop-color:#cf5b5b;stop-opacity:1;"
         offset="1"
         id="stop5310" />
    </linearGradient>
  </defs>
  <circle
     style="opacity:0.2;fill:#000000;fill-opacity:1;stroke:none;stroke-width:8.61538;stroke-linecap:round;stroke-linejoin:round;stroke-dasharray:none;stroke-opacity:1"
     id="path2871"
     cx="64"
     cy="65.000122"
     r="56" />
  <circle
     style="opacity:1;fill:url(#linearGradient2881);fill-opacity:1.0;stroke:none;stroke-width:8.61538;stroke-linecap:round;stroke-linejoin:round;stroke-dasharray:none;stroke-opacity:1"
     id="path2873"
     cx="64"
     cy="64"
     r="56" />
  <path
     d="M 41.61526,36.955854 35.95901,42.612104 58.346018,64.99911 35.95901,87.386115 41.61526,93.042365 64.002268,70.65536 86.38474,93.042365 92.04099,87.386115 69.653982,64.999108 92.04099,42.612102 86.38474,36.955852 64.002268,59.342858 Z"
     style="opacity:0.2;fill:#000000;fill-rule:evenodd;stroke-width:7.5592;paint-order:fill markers stroke"
     id="path629" />
  <path
     d="m 41.61526,35.956747 -5.65625,5.65625 22.387008,22.387006 -22.387008,22.387002 5.65625,5.65625 L 64.002268,69.656253 86.38474,92.043255 92.04099,86.387005 69.653982,64.000001 92.04099,41.612995 86.38474,35.956745 64.002268,58.343751 Z"
     style="fill:#ffffff;fill-rule:evenodd;stroke-width:7.5592;paint-order:fill markers stroke"
     id="path5343"
     sodipodi:nodetypes="ccccccccccccc" />
  <path
     id="path1350"
     style="opacity:0.2;fill:#ffffff;stroke-width:6;stroke-linecap:round;stroke-linejoin:round"
     d="M 64,8 A 56,56 0 0 0 8,64 56,56 0 0 0 8.0351562,64.503906 56,56 0 0 1 64,9 56,56 0 0 1 119.98242,64.263672 56,56 0 0 0 120,64 56,56 0 0 0 64,8 Z" />
</svg>
