<?xml version="1.0" encoding="UTF-8" standalone="no"?>
<!-- Created with Inkscape (http://www.inkscape.org/) -->

<svg
   width="128"
   height="128"
   viewBox="0 0 128 128"
   version="1.1"
   id="svg5"
   inkscape:version="1.2.1 (9c6d41e410, 2022-07-14)"
   sodipodi:docname="dialog-information.svg"
   xmlns:inkscape="http://www.inkscape.org/namespaces/inkscape"
   xmlns:sodipodi="http://sodipodi.sourceforge.net/DTD/sodipodi-0.dtd"
   xmlns:xlink="http://www.w3.org/1999/xlink"
   xmlns="http://www.w3.org/2000/svg"
   xmlns:svg="http://www.w3.org/2000/svg">
  <sodipodi:namedview
     id="namedview7"
     pagecolor="#ffffff"
     bordercolor="#666666"
     borderopacity="1.0"
     inkscape:showpageshadow="2"
     inkscape:pageopacity="0.0"
     inkscape:pagecheckerboard="0"
     inkscape:deskcolor="#d1d1d1"
     inkscape:document-units="px"
     showgrid="false"
     inkscape:zoom="6.2109375"
     inkscape:cx="63.919497"
     inkscape:cy="64"
     inkscape:window-width="1920"
     inkscape:window-height="1007"
     inkscape:window-x="0"
     inkscape:window-y="0"
     inkscape:window-maximized="1"
     inkscape:current-layer="svg5" />
  <defs
     id="defs2">
    <linearGradient
       inkscape:collect="always"
       xlink:href="#linearGradient21236"
       id="linearGradient2881"
       x1="29"
       y1="29"
       x2="3"
       y2="3"
       gradientUnits="userSpaceOnUse"
       gradientTransform="matrix(4.3076922,0,0,4.3076922,-4.923077,-4.923077)" />
    <linearGradient
       inkscape:collect="always"
       id="linearGradient21236">
      <stop
         style="stop-color:#3689e6;stop-opacity:1;"
         offset="0"
         id="stop21232" />
      <stop
         style="stop-color:#5dcffc;stop-opacity:1;"
         offset="1"
         id="stop21234" />
    </linearGradient>
  </defs>
  <circle
     style="opacity:0.2;fill:#000000;fill-opacity:1;stroke:none;stroke-width:8.61538;stroke-linecap:round;stroke-linejoin:round;stroke-dasharray:none;stroke-opacity:1"
     id="path2871"
     cx="64"
     cy="65.000122"
     r="56" />
  <circle
     style="opacity:1;fill:url(#linearGradient2881);fill-opacity:1;stroke:none;stroke-width:8.61538;stroke-linecap:round;stroke-linejoin:round;stroke-dasharray:none;stroke-opacity:1"
     id="path2873"
     cx="64"
     cy="64"
     r="56" />
  <path
     id="path599"
     style="opacity:0.2;fill:#000000;fill-opacity:1;stroke-width:18;stroke-linecap:round;stroke-linejoin:round"
     d="m 64,26 c -4.418274,0 -8,3.581726 -8,8 0,4.418274 3.581726,8 8,8 4.418274,0 8,-3.581726 8,-8 0,-4.418274 -3.581726,-8 -8,-8 z m -6,28 v 48 H 70 V 54 Z"
     sodipodi:nodetypes="sssssccccc" />
  <path
     id="path1122"
     style="fill:#ffffff;fill-opacity:1;stroke-width:18;stroke-linecap:round;stroke-linejoin:round"
     d="m 64,25 c -4.418274,0 -8,3.581726 -8,8 0,4.418274 3.581726,8 8,8 4.418274,0 8,-3.581726 8,-8 0,-4.418274 -3.581726,-8 -8,-8 z m -6,28 v 48 H 70 V 53 Z"
     sodipodi:nodetypes="sssssccccc" />
  <path
     id="path1350"
     style="opacity:0.2;fill:#ffffff;stroke-width:6;stroke-linecap:round;stroke-linejoin:round"
     d="M 64,8 A 56,56 0 0 0 8,64 56,56 0 0 0 8.0351562,64.503906 56,56 0 0 1 64,9 56,56 0 0 1 119.98242,64.263672 56,56 0 0 0 120,64 56,56 0 0 0 64,8 Z" />
</svg>
