<?xml version="1.0" encoding="UTF-8" standalone="no"?>
<!-- Created with Inkscape (http://www.inkscape.org/) -->

<svg
   width="128"
   height="128"
   viewBox="0 0 128 128.00001"
   version="1.1"
   id="svg5"
   sodipodi:docname="system-shutdown.svg"
   inkscape:version="1.2.1 (9c6d41e410, 2022-07-14)"
   xmlns:inkscape="http://www.inkscape.org/namespaces/inkscape"
   xmlns:sodipodi="http://sodipodi.sourceforge.net/DTD/sodipodi-0.dtd"
   xmlns:xlink="http://www.w3.org/1999/xlink"
   xmlns="http://www.w3.org/2000/svg"
   xmlns:svg="http://www.w3.org/2000/svg">
  <sodipodi:namedview
     id="namedview7"
     pagecolor="#ffffff"
     bordercolor="#666666"
     borderopacity="1.0"
     inkscape:showpageshadow="2"
     inkscape:pageopacity="0.0"
     inkscape:pagecheckerboard="0"
     inkscape:deskcolor="#d1d1d1"
     inkscape:document-units="px"
     showgrid="false"
     inkscape:zoom="6.4140625"
     inkscape:cx="64"
     inkscape:cy="64"
     inkscape:window-width="1920"
     inkscape:window-height="1007"
     inkscape:window-x="0"
     inkscape:window-y="0"
     inkscape:window-maximized="1"
     inkscape:current-layer="svg5" />
  <defs
     id="defs2">
    <linearGradient
       inkscape:collect="always"
       xlink:href="#linearGradient5312"
       id="linearGradient3525"
       x1="96"
       y1="116"
       x2="24.000002"
       y2="3.9999969"
       gradientUnits="userSpaceOnUse"
       gradientTransform="translate(3.9999978,4.0000032)" />
    <linearGradient
       inkscape:collect="always"
       id="linearGradient5312">
      <stop
         style="stop-color:#c72222;stop-opacity:1;"
         offset="0"
         id="stop5308" />
      <stop
         style="stop-color:#cf5b5b;stop-opacity:1;"
         offset="1"
         id="stop5310" />
    </linearGradient>
  </defs>
  <rect
     style="fill:url(#linearGradient3525);fill-opacity:1;stroke:none;stroke-width:1"
     id="rect184"
     width="111"
     height="111"
     x="8.5"
     y="8.5"
     ry="19.5" />
  <path
     d="m 63.968558,22.999 c -3.30108,0 -5.9375,2.49216 -5.9375,5.625 v 28.3125 c 0,3.13288 2.63642,5.625 5.9375,5.625 3.30106,0 6,-2.49212 6,-5.625 V 28.624 c 0,-3.1329 -2.69894,-5.625 -6,-5.625 z m -16.125,11.0625 c -0.82862,0.0902 -1.67662,0.35728 -2.375,0.8125 -5.65322,3.26068 -10.34734,8.04408 -13.625,13.6875 -6.50256,11.19596 -6.43842,24.410302 -1.0625,35.250002 0.002,0.021 -0.002,0.0416 0,0.0624 0.089,0.71026 0.3018,1.38696 0.6875,1.999998 4.77556,8.22246 12.28158,13.96736 20.6875,16.75 0.26924,0.0914 0.5421,0.165 0.8125,0.25 0.66084,0.20244 1.32924,0.39666 2,0.5625 0.55716,0.141 1.12718,0.26088 1.6875,0.375 0.66588,0.1326 1.32746,0.2785 2,0.375 0.85714,0.126 1.70308,0.1846 2.5625,0.25 0.0208,0.002 0.0418,-0.001 0.0624,0 0.021,0.002 0.0414,-0.002 0.0624,0 0.88154,0.064 1.74458,0.124 2.625,0.125 0.87534,-6.8e-4 1.74852,-0.0622 2.625,-0.125 0.0414,-0.002 0.0838,0.004 0.125,0 0.0416,-0.004 0.0836,0.004 0.125,0 0.82894,-0.065 1.67322,-0.1284 2.5,-0.25 0.67254,-0.0966 1.33412,-0.24234 2,-0.375 0.54574,-0.1112 1.08224,-0.2384 1.625,-0.375 0.88204,-0.21656 1.7605,-0.47032 2.625,-0.75 8.505302,-2.7516 16.053282,-8.51058 20.875002,-16.8125 0.3857,-0.613038 0.66102,-1.289738 0.75,-1.999998 0.002,-0.021 -0.002,-0.0416 0,-0.0624 C 102.59322,72.972202 102.658,59.75672 96.15586,48.5615 92.8782,42.91808 88.12158,38.13468 82.46836,34.874 c -0.69838,-0.45522 -1.483882,-0.7223 -2.312502,-0.8125 -2.4165,-0.20492 -4.86562,1.48962 -5.5625,3.8125 -0.69684,2.32282 0.43226,5.0284 2.5625,6.1875 4.03842,2.32934 7.346102,5.65612 9.687502,9.6875 7.42872,12.790702 3.2907,29.071282 -9.500002,36.5 -3.19768,1.8572 -6.62126,2.98068 -10.0625,3.4375 -0.8603,0.1142 -1.76454,0.1572 -2.625,0.1874 -0.46172,0.016 -0.91458,0.008 -1.375,0 -0.86046,-0.0302 -1.7022,-0.0734 -2.5625,-0.1874 -3.44124,-0.45682 -6.86482,-1.5803 -10.0625,-3.4375 -12.7907,-7.428718 -16.92872,-23.709298 -9.5,-36.5 2.3414,-4.03138 5.64908,-7.35816 9.6875,-9.6875 2.13024,-1.1591 3.25934,-3.86468 2.5625,-6.1875 -0.69688,-2.32288 -3.146,-4.01742 -5.5625,-3.8125 z"
     style="color:#000000;font-style:normal;font-variant:normal;font-weight:normal;font-stretch:normal;font-size:medium;line-height:normal;font-family:Sans;-inkscape-font-specification:Sans;text-indent:0;text-align:start;text-decoration:none;text-decoration-line:none;letter-spacing:normal;word-spacing:normal;text-transform:none;writing-mode:lr-tb;direction:ltr;baseline-shift:baseline;text-anchor:start;display:inline;overflow:visible;visibility:visible;opacity:0.2;fill:#000000;fill-opacity:1;stroke:none;stroke-width:4.66666;marker:none;enable-background:new"
     id="path4897" />
  <path
     d="m 63.968558,22 c -3.30108,0 -5.9375,2.49216 -5.9375,5.625 v 28.3125 c 0,3.13288 2.63642,5.625 5.9375,5.625 3.30106,0 6,-2.49212 6,-5.625 V 27.625 c 0,-3.1329 -2.69894,-5.625 -6,-5.625 z m -16.125,11.0625 c -0.82862,0.0902 -1.67662,0.35728 -2.375,0.8125 -5.65322,3.26068 -10.34734,8.04408 -13.625,13.6875 -6.50256,11.19596 -6.43842,24.4103 -1.0625,35.25 0.002,0.021 -0.002,0.0416 0,0.0624 0.089,0.71026 0.3018,1.38696 0.6875,2 4.77556,8.22246 12.28158,13.96736 20.6875,16.75 0.26924,0.0914 0.5421,0.165 0.8125,0.25 0.66084,0.20244 1.32924,0.39666 2,0.5625 0.55716,0.141 1.12718,0.26088 1.6875,0.375 0.66588,0.1326 1.32746,0.2785 2,0.375 0.85714,0.126 1.70308,0.1846 2.5625,0.25 0.0208,0.002 0.0418,-10e-4 0.0624,0 0.021,0.002 0.0414,-0.002 0.0624,0 0.88154,0.064 1.74458,0.124 2.625,0.125 0.87534,-6.8e-4 1.74852,-0.0622 2.625,-0.125 0.0414,-0.002 0.0838,0.004 0.125,0 0.0416,-0.004 0.0836,0.004 0.125,0 0.82894,-0.065 1.67322,-0.1284 2.5,-0.25 0.67254,-0.0966 1.33412,-0.24234 2,-0.375 0.54574,-0.1112 1.08224,-0.2384 1.625,-0.375 0.88204,-0.21656 1.7605,-0.47032 2.625,-0.75 8.505302,-2.7516 16.053282,-8.51058 20.875002,-16.8125 0.3857,-0.61304 0.66102,-1.28974 0.75,-2 0.002,-0.021 -0.002,-0.0416 0,-0.0624 5.37486,-10.8393 5.43964,-24.05478 -1.0625,-35.25 -3.27766,-5.64342 -8.03428,-10.42682 -13.6875,-13.6875 -0.69838,-0.45522 -1.483882,-0.7223 -2.312502,-0.8125 -2.4165,-0.20492 -4.86562,1.48962 -5.5625,3.8125 -0.69684,2.32282 0.43226,5.0284 2.5625,6.1875 4.03842,2.32934 7.346102,5.65612 9.687502,9.6875 7.42872,12.7907 3.2907,29.07128 -9.500002,36.5 -3.19768,1.8572 -6.62126,2.98068 -10.0625,3.4375 -0.8603,0.1142 -1.76454,0.1572 -2.625,0.1874 -0.46172,0.016 -0.91458,0.008 -1.375,0 -0.86046,-0.0302 -1.7022,-0.0734 -2.5625,-0.1874 -3.44124,-0.45682 -6.86482,-1.5803 -10.0625,-3.4375 -12.7907,-7.42872 -16.92872,-23.7093 -9.5,-36.5 2.3414,-4.03138 5.64908,-7.35816 9.6875,-9.6875 2.13024,-1.1591 3.25934,-3.86468 2.5625,-6.1875 -0.69688,-2.32288 -3.146,-4.01742 -5.5625,-3.8125 z"
     style="color:#000000;font-style:normal;font-variant:normal;font-weight:normal;font-stretch:normal;font-size:medium;line-height:normal;font-family:Sans;-inkscape-font-specification:Sans;text-indent:0;text-align:start;text-decoration:none;text-decoration-line:none;letter-spacing:normal;word-spacing:normal;text-transform:none;writing-mode:lr-tb;direction:ltr;baseline-shift:baseline;text-anchor:start;display:inline;overflow:visible;visibility:visible;fill:#ffffff;fill-opacity:1;stroke:none;stroke-width:4.66666;marker:none;enable-background:new"
     id="path4738"
     sodipodi:nodetypes="ssssssscccccccccccccccccccccscccscccccssccccscccc" />
  <path
     id="rect441"
     style="opacity:0.3;fill:#ffffff"
     d="M 28,9 C 17.474011,9 9,17.474011 9,28 v 1 C 9,18.474011 17.474011,10 28,10 h 72 c 10.52599,0 19,8.474011 19,19 V 28 C 119,17.474011 110.52599,9 100,9 Z" />
  <path
     id="rect443"
     style="opacity:0.3;fill:#ffffff"
     d="m 9,99 v 1 c 0,10.52599 8.474011,19 19,19 h 72 c 10.52599,0 19,-8.47401 19,-19 v -1 c 0,10.52599 -8.47401,19 -19,19 H 28 C 17.474011,118 9,109.52599 9,99 Z" />
  <path
     id="rect899"
     style="fill:#000000;stroke:none;stroke-width:2;opacity:0.5"
     d="M 28,8 C 16.920022,8 8,16.920022 8,28 v 72 c 0,11.07998 8.920022,20 20,20 h 72 c 11.07998,0 20,-8.92002 20,-20 V 28 C 120,16.920022 111.07998,8 100,8 Z m 0,1 h 72 c 10.52599,0 19,8.474011 19,19 v 72 c 0,10.52599 -8.47401,19 -19,19 H 28 C 17.474011,119 9,110.52599 9,100 V 28 C 9,17.474011 17.474011,9 28,9 Z" />
</svg>
