<?xml version="1.0" encoding="UTF-8" standalone="no"?>
<!-- Created with Inkscape (http://www.inkscape.org/) -->

<svg
   width="128"
   height="128"
   viewBox="0 0 128 128.00001"
   version="1.1"
   id="svg5"
   sodipodi:docname="system-suspend-hibernate.svg"
   inkscape:version="1.2.1 (9c6d41e410, 2022-07-14)"
   xmlns:inkscape="http://www.inkscape.org/namespaces/inkscape"
   xmlns:sodipodi="http://sodipodi.sourceforge.net/DTD/sodipodi-0.dtd"
   xmlns:xlink="http://www.w3.org/1999/xlink"
   xmlns="http://www.w3.org/2000/svg"
   xmlns:svg="http://www.w3.org/2000/svg">
  <sodipodi:namedview
     id="namedview7"
     pagecolor="#ffffff"
     bordercolor="#666666"
     borderopacity="1.0"
     inkscape:showpageshadow="2"
     inkscape:pageopacity="0.0"
     inkscape:pagecheckerboard="0"
     inkscape:deskcolor="#d1d1d1"
     inkscape:document-units="px"
     showgrid="false"
     inkscape:zoom="6.4140625"
     inkscape:cx="41.861145"
     inkscape:cy="75.53715"
     inkscape:window-width="1920"
     inkscape:window-height="1007"
     inkscape:window-x="0"
     inkscape:window-y="0"
     inkscape:window-maximized="1"
     inkscape:current-layer="svg5" />
  <defs
     id="defs2">
    <linearGradient
       inkscape:collect="always"
       xlink:href="#linearGradient1624"
       id="linearGradient3525"
       x1="96"
       y1="116"
       x2="24.000002"
       y2="3.9999969"
       gradientUnits="userSpaceOnUse"
       gradientTransform="translate(3.9999978,4.0000032)" />
    <linearGradient
       inkscape:collect="always"
       id="linearGradient1624">
      <stop
         style="stop-color:#6a366e;stop-opacity:1;"
         offset="0"
         id="stop1620" />
      <stop
         style="stop-color:#923a98;stop-opacity:1;"
         offset="1"
         id="stop1622" />
    </linearGradient>
  </defs>
  <rect
     style="fill:url(#linearGradient3525);fill-opacity:1.0;stroke:none;stroke-width:1"
     id="rect184"
     width="111"
     height="111"
     x="8.5"
     y="8.5"
     ry="19.5" />
  <path
     d="m 60.9879,31 v 28.421901 l -23.28102,-14.210962 -3.0121,5.578161 23.2183,14.210924 -23.2183,14.2109 3.0121,5.578161 23.28102,-14.210942 v 28.421863 h 6.02418 V 70.578143 l 23.28104,14.210942 3.0121,-5.578161 -23.2183,-14.210901 23.2183,-14.210921 -3.0121,-5.578161 -23.28104,14.210962 V 31 Z"
     style="display:inline;fill:#000000;fill-opacity:1;stroke:none;stroke-width:2;enable-background:new;opacity:0.2"
     id="path1121" />
  <path
     d="m 60.9879,30 v 28.421898 l -23.28102,-14.21096 -3.0121,5.57816 23.2183,14.210922 -23.2183,14.2109 3.0121,5.57816 L 60.9879,69.57814 V 98 h 6.02418 V 69.57814 L 90.29312,83.78908 93.30522,78.21092 70.08692,64.00002 93.30522,49.7891 90.29312,44.21094 67.01208,58.4219 V 30 Z"
     style="display:inline;fill:#ffffff;fill-opacity:1;stroke:none;stroke-width:2;enable-background:new"
     id="path3107"
     sodipodi:nodetypes="ccccccccccccccccccc" />
  <path
     id="rect441"
     style="opacity:0.3;fill:#ffffff"
     d="M 28,9 C 17.474011,9 9,17.474011 9,28 v 1 C 9,18.474011 17.474011,10 28,10 h 72 c 10.52599,0 19,8.474011 19,19 V 28 C 119,17.474011 110.52599,9 100,9 Z" />
  <path
     id="rect443"
     style="opacity:0.3;fill:#ffffff"
     d="m 9,99 v 1 c 0,10.52599 8.474011,19 19,19 h 72 c 10.52599,0 19,-8.47401 19,-19 v -1 c 0,10.52599 -8.47401,19 -19,19 H 28 C 17.474011,118 9,109.52599 9,99 Z" />
  <path
     id="rect899"
     style="fill:#000000;stroke:none;stroke-width:2;opacity:0.5"
     d="M 28,8 C 16.920022,8 8,16.920022 8,28 v 72 c 0,11.07998 8.920022,20 20,20 h 72 c 11.07998,0 20,-8.92002 20,-20 V 28 C 120,16.920022 111.07998,8 100,8 Z m 0,1 h 72 c 10.52599,0 19,8.474011 19,19 v 72 c 0,10.52599 -8.47401,19 -19,19 H 28 C 17.474011,119 9,110.52599 9,100 V 28 C 9,17.474011 17.474011,9 28,9 Z" />
</svg>
