<?xml version="1.0" encoding="UTF-8" standalone="no"?>
<!-- Created with Inkscape (http://www.inkscape.org/) -->

<svg
   width="24"
   height="24"
   viewBox="0 0 24 24.000001"
   version="1.1"
   id="svg5"
   sodipodi:docname="0ad.svg"
   inkscape:version="1.2.1 (9c6d41e410, 2022-07-14)"
   xmlns:inkscape="http://www.inkscape.org/namespaces/inkscape"
   xmlns:sodipodi="http://sodipodi.sourceforge.net/DTD/sodipodi-0.dtd"
   xmlns:xlink="http://www.w3.org/1999/xlink"
   xmlns="http://www.w3.org/2000/svg"
   xmlns:svg="http://www.w3.org/2000/svg">
  <sodipodi:namedview
     id="namedview7"
     pagecolor="#ffffff"
     bordercolor="#666666"
     borderopacity="1.0"
     inkscape:showpageshadow="2"
     inkscape:pageopacity="0.0"
     inkscape:pagecheckerboard="0"
     inkscape:deskcolor="#d1d1d1"
     inkscape:document-units="px"
     showgrid="false"
     inkscape:zoom="32.916667"
     inkscape:cx="12"
     inkscape:cy="12"
     inkscape:window-width="1920"
     inkscape:window-height="1002"
     inkscape:window-x="0"
     inkscape:window-y="0"
     inkscape:window-maximized="1"
     inkscape:current-layer="svg5" />
  <defs
     id="defs2">
    <linearGradient
       inkscape:collect="always"
       xlink:href="#linearGradient985"
       id="linearGradient10386"
       x1="19"
       y1="23"
       x2="5"
       y2="1"
       gradientUnits="userSpaceOnUse" />
    <linearGradient
       inkscape:collect="always"
       id="linearGradient985">
      <stop
         style="stop-color:#a0894c;stop-opacity:1;"
         offset="0"
         id="stop981" />
      <stop
         style="stop-color:#bab495;stop-opacity:1;"
         offset="1"
         id="stop983" />
    </linearGradient>
  </defs>
  <rect
     style="fill:url(#linearGradient10386);fill-opacity:1.0;stroke:none"
     id="rect184"
     width="21"
     height="21"
     x="1.5"
     y="1.5"
     ry="3.5" />
  <path
     id="path1493"
     style="opacity:0.2;fill:#000000;stroke-width:1.36364;stroke-linejoin:round"
     d="M 11.5 5 C 7.3578727 5 4 8.3578726 4 12.5 C 4 16.642127 7.3578727 20 11.5 20 C 15.642127 20 19 16.642127 19 12.5 C 19 8.3578726 15.642127 5 11.5 5 z M 11 6.0214844 L 11 12 L 5.0214844 12 C 5.2647421 8.8097309 7.8097306 6.2647422 11 6.0214844 z M 12 6.0214844 C 15.190269 6.2647422 17.735258 8.8097309 17.978516 12 L 12 12 L 12 6.0214844 z M 5.0214844 13 L 11 13 L 11 18.978516 C 7.8097306 18.735258 5.2647421 16.190269 5.0214844 13 z M 12 13 L 17.978516 13 C 17.735258 16.190269 15.190269 18.735258 12 18.978516 L 12 13 z " />
  <path
     id="path1039"
     style="fill:#ffffff;stroke-width:1.36364;stroke-linejoin:round"
     d="M 11.5 4 C 7.3578726 4 4 7.3578726 4 11.5 C 4 15.642127 7.3578726 19 11.5 19 C 15.642127 19 19 15.642127 19 11.5 C 19 7.3578726 15.642127 4 11.5 4 z M 11 5.0214844 L 11 11 L 5.0214844 11 C 5.2647422 7.8097307 7.809731 5.2647421 11 5.0214844 z M 12 5.0214844 C 15.190269 5.2647421 17.735258 7.8097307 17.978516 11 L 12 11 L 12 5.0214844 z M 5.0214844 12 L 11 12 L 11 17.978516 C 7.809731 17.735258 5.2647422 15.190269 5.0214844 12 z M 12 12 L 17.978516 12 C 17.735258 15.190269 15.190269 17.735258 12 17.978516 L 12 12 z " />
  <path
     id="rect2630"
     style="fill:#ffffff;fill-opacity:1;opacity:0.3"
     d="m 4.9999999,2 c -1.6619983,0 -3,1.3380017 -3,2.9999997 v 1 c 0,-1.661998 1.3380017,-3 3,-3 H 19 c 1.661998,0 3,1.338002 3,3 v -1 C 22,3.3380017 20.661998,2 19,2 Z" />
  <path
     id="rect398"
     style="opacity:0.3;fill:#ffffff"
     d="m 2,18 v 1 c 0,1.661998 1.3380017,3 3,3 h 14 c 1.661998,0 3,-1.338002 3,-3 v -1 c 0,1.661998 -1.338002,3 -3,3 H 5 C 3.3380017,21 2,19.661998 2,18 Z" />
  <path
     id="rect899"
     style="opacity:0.5;fill:#000000;stroke:none"
     d="M 5,1 C 2.7840022,1 1,2.7840022 1,5 v 14 c 0,2.215998 1.7840022,4 4,4 h 14 c 2.215998,0 4,-1.784002 4,-4 V 5 C 23,2.7840022 21.215998,1 19,1 Z m 0,1 h 14 c 1.661998,0 3,1.3380017 3,3 v 14 c 0,1.661998 -1.338002,3 -3,3 H 5 C 3.3380017,22 2,20.661998 2,19 V 5 C 2,3.3380017 3.3380017,2 5,2 Z" />
</svg>
