<?xml version="1.0" encoding="UTF-8" standalone="no"?>
<!-- Created with Inkscape (http://www.inkscape.org/) -->

<svg
   width="24"
   height="24"
   viewBox="0 0 24 24.000001"
   version="1.1"
   id="svg5"
   sodipodi:docname="accessories-camera.svg"
   inkscape:version="1.2.1 (9c6d41e410, 2022-07-14)"
   xmlns:inkscape="http://www.inkscape.org/namespaces/inkscape"
   xmlns:sodipodi="http://sodipodi.sourceforge.net/DTD/sodipodi-0.dtd"
   xmlns:xlink="http://www.w3.org/1999/xlink"
   xmlns="http://www.w3.org/2000/svg"
   xmlns:svg="http://www.w3.org/2000/svg">
  <sodipodi:namedview
     id="namedview7"
     pagecolor="#ffffff"
     bordercolor="#666666"
     borderopacity="1.0"
     inkscape:showpageshadow="2"
     inkscape:pageopacity="0.0"
     inkscape:pagecheckerboard="0"
     inkscape:deskcolor="#d1d1d1"
     inkscape:document-units="px"
     showgrid="false"
     inkscape:zoom="36"
     inkscape:cx="11.986111"
     inkscape:cy="12"
     inkscape:window-width="1920"
     inkscape:window-height="1007"
     inkscape:window-x="0"
     inkscape:window-y="0"
     inkscape:window-maximized="1"
     inkscape:current-layer="svg5" />
  <defs
     id="defs2">
    <linearGradient
       inkscape:collect="always"
       xlink:href="#linearGradient3585"
       id="linearGradient10386"
       x1="19"
       y1="23"
       x2="5"
       y2="1"
       gradientUnits="userSpaceOnUse" />
    <linearGradient
       inkscape:collect="always"
       id="linearGradient3585">
      <stop
         style="stop-color:#adb2b9;stop-opacity:1;"
         offset="0"
         id="stop3581" />
      <stop
         style="stop-color:#e6e6e6;stop-opacity:1"
         offset="1"
         id="stop3583" />
    </linearGradient>
  </defs>
  <rect
     style="fill:url(#linearGradient10386);fill-opacity:1;stroke:none"
     id="rect184"
     width="21"
     height="21"
     x="1.5"
     y="1.5"
     ry="3.5" />
  <path
     id="path10249"
     style="opacity:0.2;fill:#000000;fill-opacity:1;stroke-width:3.48939;stroke-linejoin:round"
     d="M 10.25 7 C 9.9866189 7.0006 9.7424933 7.139126 9.6074219 7.3652344 L 8.5 9 L 6 9 C 5.4477169 9 5 9.4477171 5 10 L 5 18 C 5 18.552282 5.4477171 19 6 19 L 18 19 C 18.552282 19 19 18.552282 19 18 L 19 10 C 19 9.4477171 18.552282 9 18 9 L 15.5 9 L 14.394531 7.3652344 C 14.258786 7.137995 14.014696 6.999299 13.75 7 L 10.25 7 z M 12 11 C 13.656849 11 15 12.34315 15 14 C 15 15.656849 13.656849 17 12 17 C 10.343152 17 9 15.656849 9 14 C 8.9999998 12.34315 10.343152 10.999999 12 11 z M 12 12 C 10.895433 12 9.9999999 12.895431 10 14 C 10 15.104567 10.895433 16 12 16 C 13.104568 16 14 15.104567 14 14 C 14 12.895431 13.104568 12 12 12 z " />
  <path
     id="rect849"
     style="fill:#666666;fill-opacity:1;stroke-width:0.923235;stroke-linejoin:round"
     d="M 10.25 6 C 9.9866189 6.0006 9.7424933 6.139126 9.6074219 6.3652344 L 8.5 8 L 6 8 C 5.447717 8 5 8.447717 5 9 L 5 17 C 5 17.552282 5.4477171 18 6 18 L 18 18 C 18.552282 18 19 17.552282 19 17 L 19 9 C 19 8.447717 18.552282 8 18 8 L 15.5 8 L 14.394531 6.3652344 C 14.258784 6.137995 14.014696 5.999299 13.75 6 L 10.25 6 z M 12 10 C 13.656849 10 15 11.34315 15 13 C 15 14.656849 13.656849 16 12 16 C 10.343152 16 9 14.656849 9 13 C 8.9999998 11.34315 10.343152 9.999999 12 10 z M 12 11 C 10.895433 11 9.9999999 11.895431 10 13 C 10 14.104567 10.895433 15 12 15 C 13.104568 15 14 14.104567 14 13 C 14 11.895431 13.104568 11 12 11 z " />
  <path
     id="rect2630"
     style="fill:#ffffff;fill-opacity:1;opacity:0.3"
     d="m 4.9999999,2 c -1.6619983,0 -3,1.3380017 -3,2.9999997 v 1 c 0,-1.661998 1.3380017,-3 3,-3 H 19 c 1.661998,0 3,1.338002 3,3 v -1 C 22,3.3380017 20.661998,2 19,2 Z" />
  <path
     id="rect398"
     style="opacity:0.3;fill:#ffffff"
     d="m 2,18 v 1 c 0,1.661998 1.3380017,3 3,3 h 14 c 1.661998,0 3,-1.338002 3,-3 v -1 c 0,1.661998 -1.338002,3 -3,3 H 5 C 3.3380017,21 2,19.661998 2,18 Z" />
  <path
     id="rect899"
     style="opacity:0.5;fill:#000000;stroke:none"
     d="M 5,1 C 2.7840022,1 1,2.7840022 1,5 v 14 c 0,2.215998 1.7840022,4 4,4 h 14 c 2.215998,0 4,-1.784002 4,-4 V 5 C 23,2.7840022 21.215998,1 19,1 Z m 0,1 h 14 c 1.661998,0 3,1.3380017 3,3 v 14 c 0,1.661998 -1.338002,3 -3,3 H 5 C 3.3380017,22 2,20.661998 2,19 V 5 C 2,3.3380017 3.3380017,2 5,2 Z" />
</svg>
