<?xml version="1.0" encoding="UTF-8" standalone="no"?>
<!-- Created with Inkscape (http://www.inkscape.org/) -->

<svg
   width="24"
   height="24"
   viewBox="0 0 24 24.000001"
   version="1.1"
   id="svg5"
   sodipodi:docname="accessories-clock.svg"
   inkscape:version="1.2.1 (9c6d41e410, 2022-07-14)"
   xmlns:inkscape="http://www.inkscape.org/namespaces/inkscape"
   xmlns:sodipodi="http://sodipodi.sourceforge.net/DTD/sodipodi-0.dtd"
   xmlns:xlink="http://www.w3.org/1999/xlink"
   xmlns="http://www.w3.org/2000/svg"
   xmlns:svg="http://www.w3.org/2000/svg">
  <sodipodi:namedview
     id="namedview7"
     pagecolor="#ffffff"
     bordercolor="#666666"
     borderopacity="1.0"
     inkscape:showpageshadow="2"
     inkscape:pageopacity="0.0"
     inkscape:pagecheckerboard="0"
     inkscape:deskcolor="#d1d1d1"
     inkscape:document-units="px"
     showgrid="false"
     inkscape:zoom="18.659091"
     inkscape:cx="4.0194884"
     inkscape:cy="11.602923"
     inkscape:window-width="1920"
     inkscape:window-height="1007"
     inkscape:window-x="0"
     inkscape:window-y="0"
     inkscape:window-maximized="1"
     inkscape:current-layer="svg5"
     showguides="false" />
  <defs
     id="defs2">
    <linearGradient
       inkscape:collect="always"
       xlink:href="#4852"
       id="linearGradient10386"
       x1="12"
       y1="1"
       x2="12"
       y2="23"
       gradientUnits="userSpaceOnUse" />
    <linearGradient
       inkscape:collect="always"
       id="4852">
      <stop
         style="stop-color:#333333;stop-opacity:1"
         offset="0"
         id="stop14555" />
      <stop
         style="stop-color:#666666;stop-opacity:1"
         offset="1"
         id="stop14557" />
    </linearGradient>
  </defs>
  <rect
     style="fill:url(#linearGradient10386);fill-opacity:1;stroke:none"
     id="rect184"
     width="21"
     height="21"
     x="1.5"
     y="1.5"
     ry="3.5" />
  <path
     d="m 16.766767,4.369 -4.521485,7.822267 -0.0918,0.04883 c -0.04449,-0.0089 -0.06607,-0.04492 -0.132812,-0.04492 l -7.0820287,-6.6914071 -0.457031,0.4570312 6.6132817,7.0312509 -1.3945317,1.193359 0.15625,0.279297 1.9082037,-0.669922 c 0.08898,0.02224 0.15657,0.111329 0.25,0.111329 0.04449,0 0.08713,-0.0038 0.109375,-0.0098 l 1.59375,1.08789 0.228515,-0.228515 -1.041015,-1.521455 5.974609,-3.7851567 -0.324219,-0.5566406 -5.599609,2.9277353 4.183594,-7.2363292 z"
     style="display:inline;opacity:0.2;fill:#000000;fill-opacity:1;stroke:none;stroke-width:1.00103;enable-background:new"
     id="path2128" />
  <path
     d="M 4.9392516,4.504 4.481,4.9600269 l 6.614172,7.0326051 -1.3947755,1.192344 0.1557167,0.28029 1.9086398,-0.669581 c 0.08898,0.02224 0.155717,0.111226 0.249147,0.111226 0.04449,0 0.08898,-0.004 0.111226,-0.01001 L 13.717884,13.984692 13.94701,13.755566 12.905934,12.233993 18.881,8.4487454 18.55622,7.8926148 12.153155,11.239631 c -0.04449,-0.0089 -0.06673,-0.04449 -0.133471,-0.04449 z"
     style="display:inline;fill:#ffffff;fill-opacity:1;stroke:none;stroke-width:1.00103;enable-background:new"
     id="path1802" />
  <path
     d="m 16.766312,3.369 0.372683,0.2151729 -4.692941,8.1187651 c 0.0522,0.0831 0.08301,0.181491 0.08301,0.286897 0,0.298248 -0.241784,0.540033 -0.540032,0.540033 -0.298248,0 -0.540032,-0.241785 -0.540032,-0.540033 0,-0.298257 0.241784,-0.540032 0.540032,-0.540032 0.0348,0 0.0683,0.004 0.101256,0.01 z"
     style="color:#000000;display:inline;overflow:visible;visibility:visible;fill:#eb3030;fill-opacity:1;fill-rule:nonzero;stroke:none;stroke-width:1.00006;marker:none;enable-background:accumulate"
     id="path2023" />
  <path
     id="rect2630"
     style="opacity:0.3;fill:#ffffff;fill-opacity:1"
     d="m 4.9999999,2 c -1.6619983,0 -3,1.3380017 -3,2.9999997 v 1 c 0,-1.661998 1.3380017,-3 3,-3 H 19 c 1.661998,0 3,1.338002 3,3 v -1 C 22,3.3380017 20.661998,2 19,2 Z" />
  <path
     id="rect398"
     style="opacity:0.3;fill:#ffffff"
     d="m 2,18 v 1 c 0,1.661998 1.3380017,3 3,3 h 14 c 1.661998,0 3,-1.338002 3,-3 v -1 c 0,1.661998 -1.338002,3 -3,3 H 5 C 3.3380017,21 2,19.661998 2,18 Z" />
  <path
     id="rect899"
     style="opacity:0.5;fill:#000000;stroke:none"
     d="M 5,1 C 2.7840022,1 1,2.7840022 1,5 v 14 c 0,2.215998 1.7840022,4 4,4 h 14 c 2.215998,0 4,-1.784002 4,-4 V 5 C 23,2.7840022 21.215998,1 19,1 Z m 0,1 h 14 c 1.661998,0 3,1.3380017 3,3 v 14 c 0,1.661998 -1.338002,3 -3,3 H 5 C 3.3380017,22 2,20.661998 2,19 V 5 C 2,3.3380017 3.3380017,2 5,2 Z" />
</svg>
