<?xml version="1.0" encoding="UTF-8" standalone="no"?>
<!-- Created with Inkscape (http://www.inkscape.org/) -->

<svg
   width="24"
   height="24"
   viewBox="0 0 24 24.000001"
   version="1.1"
   id="svg5"
   sodipodi:docname="applications-development.svg"
   inkscape:version="1.2.1 (9c6d41e410, 2022-07-14)"
   xmlns:inkscape="http://www.inkscape.org/namespaces/inkscape"
   xmlns:sodipodi="http://sodipodi.sourceforge.net/DTD/sodipodi-0.dtd"
   xmlns:xlink="http://www.w3.org/1999/xlink"
   xmlns="http://www.w3.org/2000/svg"
   xmlns:svg="http://www.w3.org/2000/svg">
  <sodipodi:namedview
     id="namedview7"
     pagecolor="#ffffff"
     bordercolor="#666666"
     borderopacity="1.0"
     inkscape:showpageshadow="2"
     inkscape:pageopacity="0.0"
     inkscape:pagecheckerboard="0"
     inkscape:deskcolor="#d1d1d1"
     inkscape:document-units="px"
     showgrid="false"
     inkscape:zoom="33"
     inkscape:cx="11.69697"
     inkscape:cy="12.015152"
     inkscape:window-width="1920"
     inkscape:window-height="1007"
     inkscape:window-x="0"
     inkscape:window-y="0"
     inkscape:window-maximized="1"
     inkscape:current-layer="svg5" />
  <defs
     id="defs2">
    <linearGradient
       inkscape:collect="always"
       xlink:href="#linearGradient4648"
       id="linearGradient10386"
       x1="19"
       y1="23"
       x2="5"
       y2="1"
       gradientUnits="userSpaceOnUse" />
    <linearGradient
       inkscape:collect="always"
       id="linearGradient4648">
      <stop
         style="stop-color:#f97a00;stop-opacity:1;"
         offset="0"
         id="stop4644" />
      <stop
         style="stop-color:#ffb439;stop-opacity:1;"
         offset="1"
         id="stop4646" />
    </linearGradient>
  </defs>
  <rect
     style="fill:url(#linearGradient10386);fill-opacity:1.0;stroke:none"
     id="rect184"
     width="21"
     height="21"
     x="1.5"
     y="1.5"
     ry="3.5" />
  <path
     d="M 12.183546,7.0230552 C 10.541292,7.0288752 9.7055663,7.4988136 9.3729986,7.8277428 8.9473086,8.2487719 8.5036707,8.6885206 8.3925299,8.7984459 8.1519234,9.0364188 8.3926227,9.7128565 8.0409674,10.097274 7.921738,10.215199 7.774024,10.285173 7.638624,10.316024 L 7.505811,10.183212 c -0.243268,-0.2432692 -0.635638,-0.2432692 -0.878906,0 l -0.439453,0.439453 c -0.243269,0.243267 -0.243269,0.635638 0,0.878906 l 1.318359,1.316406 c 0.243268,0.24327 0.633685,0.24327 0.8769533,0 l 0.4394531,-0.439453 c 0.2432684,-0.243268 0.2432684,-0.633684 0,-0.876953 L 8.6718267,11.35118 c 0.00622,-0.148171 0.1015444,-0.341473 0.2949219,-0.521484 0.444197,-0.45764 0.9166657,-0.476254 1.1386724,-0.238281 0.03545,0.02805 0.10085,0.09966 0.167968,0.173828 l 5.970703,6.888673 c 0.361435,0.417295 0.992655,0.462758 1.410157,0.101562 0.417296,-0.361435 0.462758,-0.992654 0.101562,-1.410156 L 11.869093,9.5543053 11.576124,9.1871178 c -0.425688,-0.42103 0.01758,-0.8476563 0.01758,-0.8476563 1.203032,-1.1715597 2.888672,-0.8398438 2.888672,-0.8398437 l 0.01758,-0.234375 C 13.592004,7.0889033 12.826166,7.0207762 12.183546,7.0230552 Z"
     style="color:#000000;opacity:0.2;fill:#000000;fill-opacity:1;stroke-linecap:round;stroke-linejoin:round;-inkscape-stroke:none"
     id="path2904" />
  <path
     d="M 10.570265,7.5015707 C 10.306194,7.4832127 10.045617,7.5703057 9.8456546,7.7437582 9.4283576,8.105193 9.3828956,8.736411 9.7440916,9.153915 l 6.5000014,7.5 c 0.361435,0.417296 0.992653,0.462758 1.410156,0.101562 0.417296,-0.361435 0.462758,-0.992653 0.101562,-1.410156 l -6.5,-7.5000003 C 11.082059,7.6441843 10.835383,7.5204944 10.570265,7.5015707 Z"
     style="color:#000000;opacity:1;fill:#fdd9ab;stroke-linecap:round;stroke-linejoin:round;-inkscape-stroke:none;fill-opacity:1"
     id="path381" />
  <path
     d="M 12.183546,6.0230552 C 10.541291,6.0288752 9.7055666,6.4988132 9.3729986,6.8277427 8.9473081,7.2487723 8.5036703,7.6885204 8.3925294,7.7984458 8.1519227,8.036419 8.3926226,8.712856 8.0409669,9.097274 7.921737,9.215199 7.7740233,9.285173 7.6386232,9.316024 L 7.5058107,9.183212 c -0.2432686,-0.243269 -0.6356376,-0.243269 -0.8789062,0 L 6.1874514,9.622665 c -0.2432685,0.243268 -0.2432685,0.635638 0,0.878906 l 1.3183593,1.316406 c 0.2432685,0.243269 0.6336846,0.243269 0.8769531,0 l 0.4394531,-0.439453 c 0.2432687,-0.243268 0.2432687,-0.633684 0,-0.876953 L 8.6718263,10.35118 c 0.00622,-0.148172 0.1015442,-0.341473 0.2949219,-0.521484 0.4441974,-0.45764 0.9166664,-0.476254 1.1386728,-0.238281 0.09254,0.07322 0.388672,0.423828 0.388672,0.423828 l 1.419921,-1.40625 -0.33789,-0.421875 c -0.425688,-0.4210304 0.01758,-0.8476565 0.01758,-0.8476565 1.203033,-1.1715609 2.888672,-0.8398438 2.888672,-0.8398438 l 0.01758,-0.234375 C 13.592007,6.0889031 12.826167,6.0207761 12.183546,6.0230552 Z"
     style="fill:#ffffff"
     id="path465" />
  <path
     id="rect2630"
     style="fill:#ffffff;fill-opacity:1;opacity:0.3"
     d="m 4.9999999,2 c -1.6619983,0 -3,1.3380017 -3,2.9999997 v 1 c 0,-1.661998 1.3380017,-3 3,-3 H 19 c 1.661998,0 3,1.338002 3,3 v -1 C 22,3.3380017 20.661998,2 19,2 Z" />
  <path
     id="rect398"
     style="opacity:0.3;fill:#ffffff"
     d="m 2,18 v 1 c 0,1.661998 1.3380017,3 3,3 h 14 c 1.661998,0 3,-1.338002 3,-3 v -1 c 0,1.661998 -1.338002,3 -3,3 H 5 C 3.3380017,21 2,19.661998 2,18 Z" />
  <path
     id="rect899"
     style="opacity:0.5;fill:#000000;stroke:none"
     d="M 5,1 C 2.7840022,1 1,2.7840022 1,5 v 14 c 0,2.215998 1.7840022,4 4,4 h 14 c 2.215998,0 4,-1.784002 4,-4 V 5 C 23,2.7840022 21.215998,1 19,1 Z m 0,1 h 14 c 1.661998,0 3,1.3380017 3,3 v 14 c 0,1.661998 -1.338002,3 -3,3 H 5 C 3.3380017,22 2,20.661998 2,19 V 5 C 2,3.3380017 3.3380017,2 5,2 Z" />
</svg>
