<?xml version="1.0" encoding="UTF-8" standalone="no"?>
<!-- Created with Inkscape (http://www.inkscape.org/) -->

<svg
   width="24"
   height="24"
   viewBox="0 0 24 24.000001"
   version="1.1"
   id="svg5"
   sodipodi:docname="applications-utilities.svg"
   inkscape:version="1.2.1 (9c6d41e410, 2022-07-14)"
   xmlns:inkscape="http://www.inkscape.org/namespaces/inkscape"
   xmlns:sodipodi="http://sodipodi.sourceforge.net/DTD/sodipodi-0.dtd"
   xmlns:xlink="http://www.w3.org/1999/xlink"
   xmlns="http://www.w3.org/2000/svg"
   xmlns:svg="http://www.w3.org/2000/svg">
  <sodipodi:namedview
     id="namedview7"
     pagecolor="#ffffff"
     bordercolor="#666666"
     borderopacity="1.0"
     inkscape:showpageshadow="2"
     inkscape:pageopacity="0.0"
     inkscape:pagecheckerboard="0"
     inkscape:deskcolor="#d1d1d1"
     inkscape:document-units="px"
     showgrid="false"
     inkscape:zoom="18.068182"
     inkscape:cx="14.915723"
     inkscape:cy="15.579874"
     inkscape:window-width="1920"
     inkscape:window-height="1007"
     inkscape:window-x="0"
     inkscape:window-y="0"
     inkscape:window-maximized="1"
     inkscape:current-layer="svg5"
     showguides="true" />
  <defs
     id="defs2">
    <linearGradient
       inkscape:collect="always"
       xlink:href="#linearGradient22024"
       id="linearGradient10386"
       x1="12"
       y1="23"
       x2="12"
       y2="1"
       gradientUnits="userSpaceOnUse" />
    <linearGradient
       inkscape:collect="always"
       id="linearGradient22024">
      <stop
         style="stop-color:#cdcdcd;stop-opacity:1;"
         offset="0"
         id="stop22020" />
      <stop
         style="stop-color:#eff0f1;stop-opacity:1;"
         offset="1"
         id="stop22022" />
    </linearGradient>
  </defs>
  <rect
     style="fill:url(#linearGradient10386);fill-opacity:1;stroke:none"
     id="rect184"
     width="21"
     height="21"
     x="1.5"
     y="1.5"
     ry="3.5" />
  <path
     d="m 11.902588,6.4782924 c 0,0 -0.14725,0.049 -0.49823,0.28329 -0.42921,0.2864601 -0.67087,0.23434 -0.95458,0.15557 l -0.002,0.002 c -0.0523,-0.0309 -0.10551,-0.0603 -0.15972,-0.0873 l 2.4e-4,-0.002 c -0.22062,-0.19491 -0.395871,-0.3694 -0.389401,-0.8854 0.005,-0.42179 -0.0337,-0.57218 -0.0337,-0.57218 -0.15018,-0.0849 -0.36405,-0.10742 -0.36405,-0.10742 0,0 -0.21394,-0.0225 -0.37838,0.0294 0,0 -0.0695,0.13885 -0.152,0.55261 -0.10094,0.50605 -0.30874,0.64021 -0.56497,0.78509 l -7.1e-4,0.003 c -0.0586,0.0152 -0.11652,0.0329 -0.17438,0.0522 l -0.002,-0.002 c -0.29387,0.0181 -0.54117,0.0187 -0.90147,-0.35071 -0.29447,-0.30201 -0.42843,-0.38069 -0.42843,-0.38069 -0.16585,0.0458 -0.33294,0.18112 -0.33294,0.18112 0,0 -0.16716,0.13538 -0.24675,0.28839 0,0 0.049,0.14742 0.28326,0.49825 0.28644,0.4292001 0.23436,0.6710701 0.15562,0.9546601 l 0.002,0.002 c -0.0308,0.0524 -0.0602,0.10554 -0.0874,0.15965 l -0.002,-2.1e-4 c -0.19487,0.22067 -0.36936,0.39591 -0.88533,0.3895 -0.42177,-0.005 -0.57228,0.0339 -0.57228,0.0339 -0.0849,0.15024 -0.10737,0.36381 -0.10737,0.36381 0,0 -0.023,0.214 0.0294,0.37845 0,0 0.13881,0.0696 0.55257,0.15196 0.50601,0.1009901 0.63999,0.3089001 0.78499,0.5650601 l 0.002,2.1e-4 c 0.0153,0.0587 0.033,0.1166304 0.0522,0.1744004 l -0.002,0.002 c 0.0183,0.29386 0.0188,0.54111 -0.35062,0.90137 -0.302,0.29455 -0.38071,0.42872 -0.38071,0.42872 0.0463,0.16623 0.18142,0.33315 0.18142,0.33315 0,0 0.13543,0.16723 0.2884,0.24676 0,0 0.14733,-0.0489 0.49818,-0.28324 0.42923,-0.2864 0.67101,-0.23414 0.95465,-0.15559 l 0.002,-0.002 c 0.0527,0.0309 0.10553,0.0603 0.15974,0.0873 l -7e-4,0.003 c 0.22069,0.1949 0.39591,0.36936 0.3895,0.88531 -0.005,0.4218 0.0338,0.572341 0.0338,0.572341 0.15026,0.0848 0.36387,0.10733 0.36387,0.10733 0,0 0.21404,0.0225 0.3784,-0.0295 0,0 0.0695,-0.13868 0.15199,-0.552511 0.10114,-0.506 0.30898,-0.64004 0.565,-0.78503 l -10e-5,-0.003 c 0.0586,-0.0152 0.11659,-0.033 0.1744,-0.0522 l 0.002,0.002 c 0.293851,-0.0182 0.541111,-0.0188 0.901401,0.35065 0.29448,0.302 0.42863,0.38076 0.42863,0.38076 0.16627,-0.0463 0.3332,-0.18151 0.3332,-0.18151 0,0 0.16724,-0.13541 0.24678,-0.2884 0,0 -0.0489,-0.14736 -0.2833,-0.49822 -0.28645,-0.4292 -0.23415,-0.67102 -0.15556,-0.9546 l -0.002,-0.002 c 0.0308,-0.0526 0.0602,-0.10556 0.0873,-0.15972 l 0.003,3.2e-4 c 0.19491,-0.22063 0.36939,-0.39587 0.88536,-0.38946 0.42184,0.005 0.57239,-0.0339 0.57239,-0.0339 0.0848,-0.1502603 0.10727,-0.3639303 0.10727,-0.3639303 0,0 0.0229,-0.2139 -0.0294,-0.3784401 0,0 -0.13888,-0.0696 -0.55264,-0.152 -0.50608,-0.10095 -0.64015,-0.30874 -0.7851,-0.56497 l -0.002,-2.1e-4 c -0.0152,-0.0586 -0.0328,-0.11661 -0.0523,-0.17439 l 0.002,-0.002 c -0.0182,-0.29375 -0.0189,-0.5411 0.35062,-0.90139 0.30202,-0.29449 0.38081,-0.42857 0.38081,-0.42857 -0.0462,-0.1661901 -0.18153,-0.3332901 -0.18153,-0.3332901 0,0 -0.13541,-0.16722 -0.2884,-0.24676 z m -1.64295,4.2180206 c -0.802971,0.65024 -1.980971,0.52644 -2.631221,-0.27653 -0.65024,-0.8029803 -0.52642,-1.9809904 0.27652,-2.6312405 0.80296,-0.65022 1.98098,-0.52642 2.631221,0.27656 0.65024,0.8029801 0.52641,1.9809905 -0.27653,2.6312205 z m 6.06607,0.77638 c 0,0 -0.15813,0.11234 -0.49204,0.52072 -0.40837,0.49929 -0.71631,0.52529 -1.08422,0.53482 l -0.002,0.003 c -0.0737,-0.0178 -0.14814,-0.0335 -0.22283,-0.046 l -5.5e-4,-0.003 c -0.33496,-0.15236 -0.60822,-0.29688 -0.78905,-0.91606 -0.1479,-0.50611 -0.24949,-0.67162 -0.24949,-0.67162 -0.21056,-0.0466 -0.47443,0.005 -0.47443,0.005 0,0 -0.26394,0.0513 -0.44154,0.17345 0,0 -0.0324,0.19139 0.0205,0.71612 0.0643,0.64179 -0.13509,0.87812 -0.38845,1.14494 l 2.1e-4,0.004 c -0.0644,0.0395 -0.12727,0.0819 -0.18938,0.126121 l -0.002,-0.002 c -0.34464,0.12905 -0.64006,0.22013 -1.20574,-0.0898 -0.46238,-0.25339 -0.65125,-0.29848 -0.65125,-0.29848 -0.181521,0.11537 -0.331801,0.338181 -0.331801,0.338181 0,0 -0.15035,0.22291 -0.18956,0.4349 0,0 0.11247,0.1583 0.520671,0.49207 0.49927,0.40836 0.5254,0.71652 0.53493,1.08429 l 0.003,0.002 c -0.0177,0.0739 -0.0334,0.14817 -0.046,0.22276 l -0.002,3.8e-4 c -0.15229,0.335 -0.29685,0.60825 -0.915961,0.78915 -0.50611,0.14778 -0.67169,0.24965 -0.67169,0.24965 -0.0466,0.21061 0.004,0.47412 0.004,0.47412 0,0 0.0514,0.26405 0.17346,0.44164 0,0 0.19137,0.0325 0.71606,-0.0203 0.641771,-0.0642 0.877901,0.13536 1.144861,0.38856 l 0.003,-5.7e-4 c 0.0396,0.0645 0.082,0.12737 0.12606,0.18941 l -0.002,0.003 c 0.12932,0.34458 0.22014,0.63998 -0.0897,1.2056 -0.25336,0.46247 -0.29841,0.65161 -0.29841,0.65161 0.11602,0.18181 0.33862,0.33193 0.33862,0.33193 0,0 0.223,0.15041 0.4349,0.18957 0,0 0.15828,-0.11227 0.492,-0.52063 0.40842,-0.49923 0.71655,-0.52511 1.08429,-0.53488 l 0.002,-0.003 c 0.0742,0.0177 0.14822,0.0335 0.22286,0.046 l 2.1e-4,0.004 c 0.33504,0.15232 0.60826,0.29683 0.78914,0.91592 0.1478,0.50615 0.24965,0.67178 0.24965,0.67178 0.2106,0.0464 0.47419,-0.005 0.47419,-0.005 0,0 0.26405,-0.0514 0.44153,-0.17361 0,0 0.0324,-0.19117 -0.0195,-0.71601 -0.0641,-0.64178 0.13542,-0.87799 0.38849,-1.14488 l -10e-4,-0.003 c 0.0645,-0.0395 0.12729,-0.0821 0.18938,-0.12614 l 0.003,0.002 c 0.34457,-0.1292 0.63994,-0.22019 1.20564,0.0897 0.46239,0.25337 0.65149,0.29849 0.65149,0.29849 0.18183,-0.11614 0.33198,-0.33874 0.33198,-0.33874 0,0 0.15041,-0.22298 0.18959,-0.43493 0,0 -0.11227,-0.15828 -0.52072,-0.49202 -0.49928,-0.40836 -0.52515,-0.71653 -0.53482,-1.08424 l -0.002,-0.002 c 0.0177,-0.0742 0.0335,-0.14821 0.0459,-0.22281 l 0.003,-5.7e-4 c 0.15234,-0.33496 0.29686,-0.6082 0.91598,-0.7891 0.50619,-0.1478 0.67184,-0.24966 0.67184,-0.24966 0.0464,-0.2106 -0.005,-0.4742 -0.005,-0.4742 0,0 -0.0513,-0.26395 -0.17345,-0.44163 0,0 -0.19142,-0.0324 -0.71615,0.0203 -0.64181,0.0643 -0.87803,-0.13511 -1.14494,-0.38843 l -0.003,5.7e-4 c -0.0396,-0.0645 -0.0818,-0.1274 -0.12626,-0.18935 l 0.002,-0.003 c -0.129,-0.3445 -0.22025,-0.63992 0.0897,-1.205631 0.25338,-0.46238 0.29858,-0.65146 0.29858,-0.65146 -0.11601,-0.18176 -0.33879,-0.33206 -0.33879,-0.33206 0,0 -0.22299,-0.15039 -0.43494,-0.18957 z m -0.42241,5.642491 c -0.72221,1.07072 -2.17561,1.35325 -3.24633,0.63104 -1.07071,-0.72222 -1.35322,-2.17561 -0.63102,-3.24634 0.7222,-1.0707 2.1756,-1.35323 3.24633,-0.63101 1.07072,0.72221 1.35323,2.17561 0.63102,3.24631 z"
     style="display:inline;fill:#ffffff;fill-opacity:1;stroke:none;enable-background:new;opacity:0.5"
     id="path1559" />
  <path
     d="m 11.902588,5.4780705 c 0,0 -0.14725,0.049 -0.49823,0.28329 -0.42921,0.28646 -0.67087,0.23434 -0.95458,0.15557 l -0.002,0.002 c -0.0523,-0.0309 -0.10551,-0.0603 -0.15972,-0.0873 l 2.4e-4,-0.002 c -0.22062,-0.19491 -0.3958707,-0.3694 -0.3894007,-0.8854 0.005,-0.42179 -0.0337,-0.57218 -0.0337,-0.57218 -0.15018,-0.0849 -0.36405,-0.10742 -0.36405,-0.10742 0,0 -0.21394,-0.0225 -0.37838,0.0294 0,0 -0.0695,0.13885 -0.152,0.55261 -0.10094,0.50605 -0.30874,0.64021 -0.56497,0.78509 l -7.1e-4,0.003 c -0.0586,0.0152 -0.11652,0.0329 -0.17438,0.0522 l -0.002,-0.002 c -0.29387,0.0181 -0.54117,0.0187 -0.90147,-0.35071 -0.29447,-0.30201 -0.42843,-0.38069 -0.42843,-0.38069 -0.16585,0.0458 -0.33294,0.18112 -0.33294,0.18112 0,0 -0.16716,0.13538 -0.24675,0.28839 0,0 0.049,0.14742 0.28326,0.49825 0.28644,0.4292 0.23436,0.67107 0.15562,0.95466 l 0.002,0.002 c -0.0308,0.0524 -0.0602,0.10554 -0.0874,0.15965 l -0.002,-2.1e-4 c -0.19487,0.22067 -0.36936,0.39591 -0.88533,0.3895 -0.42177,-0.005 -0.57228,0.0339 -0.57228,0.0339 -0.0849,0.15024 -0.10737,0.36381 -0.10737,0.36381 0,0 -0.023,0.214 0.0294,0.37845 0,0 0.13881,0.0696 0.55257,0.15196 0.50601,0.10099 0.63999,0.3089 0.78499,0.56506 l 0.002,2.1e-4 c 0.0153,0.0587 0.033,0.11663 0.0522,0.1744 l -0.002,0.002 c 0.0183,0.2938602 0.0188,0.5411102 -0.35062,0.9013702 -0.302,0.2945503 -0.38071,0.4287203 -0.38071,0.4287203 0.0463,0.16623 0.18142,0.33315 0.18142,0.33315 0,0 0.13543,0.16723 0.2884,0.24676 0,0 0.14733,-0.0489 0.49818,-0.28324 0.42923,-0.2864 0.67101,-0.23414 0.95465,-0.15559 l 0.002,-0.002 c 0.0527,0.0309 0.10553,0.0603 0.15974,0.0873 l -7e-4,0.003 c 0.22069,0.1949 0.39591,0.36936 0.3895,0.88531 -0.005,0.4218 0.0338,0.57234 0.0338,0.57234 0.15026,0.0848 0.36387,0.10733 0.36387,0.10733 0,0 0.21404,0.0225 0.3784,-0.0295 0,0 0.0695,-0.13868 0.15199,-0.55251 0.10114,-0.506 0.30898,-0.64004 0.565,-0.78503 l -10e-5,-0.003 c 0.0586,-0.0152 0.11659,-0.033 0.1744,-0.0522 l 0.002,0.002 c 0.2938507,-0.0182 0.5411107,-0.0188 0.9014007,0.35065 0.29448,0.302 0.42863,0.38076 0.42863,0.38076 0.16627,-0.0463 0.3332,-0.18151 0.3332,-0.18151 0,0 0.16724,-0.13541 0.24678,-0.2884 0,0 -0.0489,-0.14736 -0.2833,-0.49822 -0.28645,-0.4292 -0.23415,-0.6710203 -0.15556,-0.9546003 l -0.002,-0.002 c 0.0308,-0.0526 0.0602,-0.10556 0.0873,-0.15972 l 0.003,3.2e-4 c 0.19491,-0.22063 0.36939,-0.3958701 0.88536,-0.3894601 0.42184,0.005 0.57239,-0.0339 0.57239,-0.0339 0.0848,-0.15026 0.10727,-0.36393 0.10727,-0.36393 0,0 0.0229,-0.2139 -0.0294,-0.37844 0,0 -0.13888,-0.0696 -0.55264,-0.152 -0.50608,-0.10095 -0.64015,-0.30874 -0.7851,-0.56497 l -0.002,-2.1e-4 c -0.0152,-0.0586 -0.0328,-0.11661 -0.0523,-0.17439 l 0.002,-0.002 c -0.0182,-0.29375 -0.0189,-0.5411 0.35062,-0.90139 0.30202,-0.29449 0.38081,-0.42857 0.38081,-0.42857 -0.0462,-0.16619 -0.18153,-0.33329 -0.18153,-0.33329 0,0 -0.13541,-0.16722 -0.2884,-0.24676 z m -1.64295,4.2180202 c -0.8029707,0.6502403 -1.9809707,0.5264403 -2.6312207,-0.27653 -0.65024,-0.8029801 -0.52642,-1.9809901 0.27652,-2.6312402 0.80296,-0.65022 1.98098,-0.52642 2.6312207,0.27656 0.65024,0.8029801 0.52641,1.9809901 -0.27653,2.6312202 z m 6.06607,0.7763803 c 0,0 -0.15813,0.11234 -0.49204,0.52072 -0.40837,0.49929 -0.71631,0.52529 -1.08422,0.53482 l -0.002,0.003 c -0.0737,-0.0178 -0.14814,-0.0335 -0.22283,-0.046 l -5.5e-4,-0.003 c -0.33496,-0.15236 -0.60822,-0.29688 -0.78905,-0.91606 -0.1479,-0.50611 -0.24949,-0.6716203 -0.24949,-0.6716203 -0.21056,-0.0466 -0.47443,0.005 -0.47443,0.005 0,0 -0.26394,0.0513 -0.44154,0.1734503 0,0 -0.0324,0.19139 0.0205,0.71612 0.0643,0.64179 -0.13509,0.87812 -0.38845,1.14494 l 2.1e-4,0.004 c -0.0644,0.0395 -0.12727,0.0819 -0.18938,0.12612 l -0.002,-0.002 c -0.34464,0.12905 -0.64006,0.22013 -1.20574,-0.0898 -0.46238,-0.25339 -0.65125,-0.29848 -0.65125,-0.29848 -0.1815207,0.11537 -0.3318007,0.33818 -0.3318007,0.33818 0,0 -0.15035,0.22291 -0.18956,0.4349 0,0 0.11247,0.1583 0.5206707,0.49207 0.49927,0.40836 0.5254,0.71652 0.53493,1.08429 l 0.003,0.002 c -0.0177,0.0739 -0.0334,0.14817 -0.046,0.22276 l -0.002,3.8e-4 c -0.15229,0.335 -0.29685,0.60825 -0.9159607,0.78915 -0.50611,0.14778 -0.67169,0.24965 -0.67169,0.24965 -0.0466,0.21061 0.004,0.47412 0.004,0.47412 0,0 0.0514,0.26405 0.17346,0.44164 0,0 0.19137,0.0325 0.71606,-0.0203 0.6417707,-0.0642 0.8779007,0.13536 1.1448607,0.38856 l 0.003,-5.7e-4 c 0.0396,0.0645 0.082,0.12737 0.12606,0.18941 l -0.002,0.003 c 0.12932,0.34458 0.22014,0.63998 -0.0897,1.2056 -0.25336,0.46247 -0.29841,0.65161 -0.29841,0.65161 0.11602,0.18181 0.33862,0.33193 0.33862,0.33193 0,0 0.223,0.15041 0.4349,0.18957 0,0 0.15828,-0.11227 0.492,-0.52063 0.40842,-0.49923 0.71655,-0.52511 1.08429,-0.53488 l 0.002,-0.003 c 0.0742,0.0177 0.14822,0.0335 0.22286,0.046 l 2.1e-4,0.004 c 0.33504,0.15232 0.60826,0.29683 0.78914,0.91592 0.1478,0.50615 0.24965,0.67178 0.24965,0.67178 0.2106,0.0464 0.47419,-0.005 0.47419,-0.005 0,0 0.26405,-0.0514 0.44153,-0.17361 0,0 0.0324,-0.19117 -0.0195,-0.71601 -0.0641,-0.64178 0.13542,-0.87799 0.38849,-1.14488 l -10e-4,-0.003 c 0.0645,-0.0395 0.12729,-0.0821 0.18938,-0.12614 l 0.003,0.002 c 0.34457,-0.1292 0.63994,-0.22019 1.20564,0.0897 0.46239,0.25337 0.65149,0.29849 0.65149,0.29849 0.18183,-0.11614 0.33198,-0.33874 0.33198,-0.33874 0,0 0.15041,-0.22298 0.18959,-0.43493 0,0 -0.11227,-0.15828 -0.52072,-0.49202 -0.49928,-0.40836 -0.52515,-0.71653 -0.53482,-1.08424 l -0.002,-0.002 c 0.0177,-0.0742 0.0335,-0.14821 0.0459,-0.22281 l 0.003,-5.7e-4 c 0.15234,-0.33496 0.29686,-0.6082 0.91598,-0.7891 0.50619,-0.1478 0.67184,-0.24966 0.67184,-0.24966 0.0464,-0.2106 -0.005,-0.4742 -0.005,-0.4742 0,0 -0.0513,-0.26395 -0.17345,-0.44163 0,0 -0.19142,-0.0324 -0.71615,0.0203 -0.64181,0.0643 -0.87803,-0.13511 -1.14494,-0.38843 l -0.003,5.7e-4 c -0.0396,-0.0645 -0.0818,-0.1274 -0.12626,-0.18935 l 0.002,-0.003 c -0.129,-0.3445 -0.22025,-0.63992 0.0897,-1.20563 0.25338,-0.46238 0.29858,-0.65146 0.29858,-0.65146 -0.11601,-0.18176 -0.33879,-0.33206 -0.33879,-0.33206 0,0 -0.22299,-0.15039 -0.43494,-0.18957 z m -0.42241,5.64249 c -0.72221,1.07072 -2.17561,1.35325 -3.24633,0.63104 -1.07071,-0.72222 -1.35322,-2.17561 -0.63102,-3.24634 0.7222,-1.0707 2.1756,-1.35323 3.24633,-0.63101 1.07072,0.72221 1.35323,2.17561 0.63102,3.24631 z"
     style="display:inline;fill:#929292;fill-opacity:1;stroke:none;enable-background:new"
     id="path443"
     sodipodi:nodetypes="cccccccccccccccccccccccccccccccccccccccccccccccccccccccccccccccccccccccccccccscccccccccccccccccccccccccccccccccccccccccccccccccccccccccccccccccccccccccccccccsc" />
  <path
     id="rect2630"
     style="opacity:0.3;fill:#ffffff;fill-opacity:1"
     d="m 4.9999999,2 c -1.6619983,0 -3,1.3380017 -3,2.9999997 v 1 c 0,-1.661998 1.3380017,-3 3,-3 H 19 c 1.661998,0 3,1.338002 3,3 v -1 C 22,3.3380017 20.661998,2 19,2 Z" />
  <path
     id="rect398"
     style="opacity:0.3;fill:#ffffff"
     d="m 2,18 v 1 c 0,1.661998 1.3380017,3 3,3 h 14 c 1.661998,0 3,-1.338002 3,-3 v -1 c 0,1.661998 -1.338002,3 -3,3 H 5 C 3.3380017,21 2,19.661998 2,18 Z" />
  <path
     id="rect899"
     style="opacity:0.5;fill:#000000;stroke:none"
     d="M 5,1 C 2.7840022,1 1,2.7840022 1,5 v 14 c 0,2.215998 1.7840022,4 4,4 h 14 c 2.215998,0 4,-1.784002 4,-4 V 5 C 23,2.7840022 21.215998,1 19,1 Z m 0,1 h 14 c 1.661998,0 3,1.3380017 3,3 v 14 c 0,1.661998 -1.338002,3 -3,3 H 5 C 3.3380017,22 2,20.661998 2,19 V 5 C 2,3.3380017 3.3380017,2 5,2 Z" />
</svg>
