<?xml version="1.0" encoding="UTF-8" standalone="no"?>
<!-- Created with Inkscape (http://www.inkscape.org/) -->

<svg
   width="24"
   height="24"
   viewBox="0 0 24 24.000001"
   version="1.1"
   id="svg5"
   sodipodi:docname="brave.svg"
   inkscape:version="1.2.1 (9c6d41e410, 2022-07-14)"
   xmlns:inkscape="http://www.inkscape.org/namespaces/inkscape"
   xmlns:sodipodi="http://sodipodi.sourceforge.net/DTD/sodipodi-0.dtd"
   xmlns:xlink="http://www.w3.org/1999/xlink"
   xmlns="http://www.w3.org/2000/svg"
   xmlns:svg="http://www.w3.org/2000/svg">
  <sodipodi:namedview
     id="namedview7"
     pagecolor="#ffffff"
     bordercolor="#666666"
     borderopacity="1.0"
     inkscape:showpageshadow="2"
     inkscape:pageopacity="0.0"
     inkscape:pagecheckerboard="0"
     inkscape:deskcolor="#d1d1d1"
     inkscape:document-units="px"
     showgrid="false"
     inkscape:zoom="33"
     inkscape:cx="11.984848"
     inkscape:cy="12"
     inkscape:window-width="1920"
     inkscape:window-height="1007"
     inkscape:window-x="0"
     inkscape:window-y="0"
     inkscape:window-maximized="1"
     inkscape:current-layer="svg5" />
  <defs
     id="defs2">
    <linearGradient
       inkscape:collect="always"
       xlink:href="#linearGradient3475"
       id="linearGradient10386"
       x1="19"
       y1="23"
       x2="5"
       y2="1"
       gradientUnits="userSpaceOnUse" />
    <linearGradient
       inkscape:collect="always"
       id="linearGradient3475">
      <stop
         style="stop-color:#f16649;stop-opacity:1;"
         offset="0"
         id="stop3471" />
      <stop
         style="stop-color:#fd8862;stop-opacity:1;"
         offset="1"
         id="stop3473" />
    </linearGradient>
  </defs>
  <rect
     style="fill:url(#linearGradient10386);fill-opacity:1.0;stroke:none"
     id="rect184"
     width="21"
     height="21"
     x="1.5"
     y="1.5"
     ry="3.5" />
  <path
     d="M 9.417155,5 8.0431322,6.3694198 C 8.0248737,6.3753055 7.8899064,6.2653861 7.7434896,6.2232147 7.350907,6.1102427 6.8527851,6.1294484 6.5141601,6.2801347 6.292669,6.3787061 6.2069837,6.4482729 5.680176,6.955358 5.1123016,7.5018145 5.0000001,7.6327705 5.0000001,7.7488848 c 0,0.030114 0.205503,0.323857 0.3064781,0.5535713 L 5.489909,8.7198669 5.2540691,9.353795 c -0.1295,0.347885 -0.2415782,0.651224 -0.2495115,0.675224 -0.020125,0.06114 1.8179875,6.996436 1.9140625,7.219865 0.1744161,0.405713 0.4492869,0.769794 0.8043619,1.06808 0.3206577,0.268571 3.574485,2.44434 3.896484,2.60491 0.09567,0.048 0.249284,0.07527 0.380534,0.07813 0.13125,-0.0029 0.284867,-0.03013 0.380534,-0.07813 0.322,-0.16057 3.576235,-2.336339 3.896485,-2.60491 0.35525,-0.298286 0.629945,-0.662367 0.804362,-1.06808 0.09625,-0.223429 1.933895,-7.158722 1.914062,-7.219865 -0.0082,-0.024 -0.120011,-0.327339 -0.249511,-0.675224 L 18.510091,8.7198669 18.693523,8.3024561 C 18.794439,8.0727418 19,7.778999 19,7.7488848 19,7.6327705 18.887991,7.5018145 18.319824,6.955358 17.793075,6.4482729 17.707506,6.3787061 17.485841,6.2801347 17.147507,6.129449 16.649093,6.1102433 16.256511,6.2232147 16.110094,6.2653857 15.974952,6.3753061 15.956869,6.3694204 L 14.582845,5 Z M 8.2413745,7.2857145 c 0.6815072,0.076057 1.1688905,0.3263857 1.8274735,0.4196428 0.05542,0 0.280803,-0.052874 0.501302,-0.1183034 0.940916,-0.2796571 1.245572,-0.3013394 1.427572,-0.3013394 0.182583,0 0.487795,0.021794 1.42871,0.3013394 0.2205,0.0656 0.444246,0.1183606 0.496746,0.1183034 0.667915,-0.1009142 1.199087,-0.3203285 1.83317,-0.4196428 0.123084,0 1.572065,1.8694895 1.920898,2.4665175 0.145834,0.249715 0.192354,0.782982 0.127604,0.970982 -0.05892,0.169714 -0.314499,0.340465 -1.381998,1.290179 -0.490583,0.435999 -0.900931,0.816839 -0.912598,0.845982 -0.05075,0.126857 -0.01038,0.312384 0.141276,0.650669 0.198917,0.443428 0.224519,0.628072 0.124186,0.901786 -0.107333,0.291999 -0.264951,0.507241 -0.529784,0.722098 -0.2695,0.218857 -0.434447,0.444758 -0.589031,0.420758 -0.18375,-0.02857 -1.334831,-0.734159 -1.524414,-0.886159 -0.452666,-0.361715 -0.895125,-0.782697 -0.911458,-0.86384 -0.0099,-0.04743 0.0072,-0.131527 0.03873,-0.186384 0.0315,-0.05486 0.36103,-0.348876 0.731446,-0.654017 0.645166,-0.530857 0.762207,-0.654894 0.762207,-0.808036 0,-0.03771 -0.115185,-0.338268 -0.256348,-0.667411 -0.201249,-0.472571 -0.255235,-0.634688 -0.254069,-0.768974 0.0012,-0.211427 0.08373,-0.365213 0.254069,-0.473213 0.07233,-0.04571 0.594581,-0.25351 1.159831,-0.460938 0.56525,-0.208 1.066452,-0.39217 1.113119,-0.409599 0.05075,-0.01857 0.07222,-0.04384 0.05355,-0.06138 -0.01808,-0.01634 -0.330432,-0.05545 -0.693848,-0.08705 -0.778749,-0.06771 -0.760924,-0.07033 -1.617839,0.223214 -0.531416,0.181829 -0.619309,0.222946 -0.664225,0.305803 -0.02858,0.05257 -0.05185,0.123652 -0.05128,0.157366 5.83e-4,0.03314 0.111346,0.517582 0.246094,1.077009 0.231,0.957713 0.242877,1.020465 0.18571,1.075894 -0.07,0.068 -0.76506,0.271731 -1.105144,0.296874 -0.298083,0.02229 -1.252681,-0.19867 -1.350098,-0.293527 -0.06125,-0.06 -0.05509,-0.09982 0.181153,-1.079241 0.13475,-0.559427 0.24551,-1.043866 0.246093,-1.077009 C 11.200764,9.880358 11.17805,9.809817 11.15005,9.757819 11.10513,9.674959 11.010796,9.632464 10.414047,9.428578 L 9.730465,9.195319 9.357906,9.204219 c -0.4917489,0.01194 -1.1693991,0.0834 -1.1791991,0.125 -0.00432,0.01817 0.4954518,0.217564 1.1097011,0.441964 0.614832,0.224572 1.168608,0.443179 1.231608,0.486607 0.15575,0.105715 0.233534,0.259714 0.2347,0.464286 5.84e-4,0.135428 -0.05325,0.298831 -0.260905,0.786831 -0.348833,0.822284 -0.387797,0.714955 0.529786,1.472098 0.387915,0.32057 0.723534,0.623276 0.745117,0.67299 0.06358,0.146286 -0.0186,0.261581 -0.464844,0.648438 -0.530249,0.459999 -0.634284,0.526553 -1.328451,0.845982 C 9.656919,15.2947 9.351772,15.56362 9.297523,15.562477 9.145856,15.559077 9.04605,15.360119 8.7893847,15.161833 8.513475,14.948119 8.3309477,14.701922 8.2231477,14.396208 8.1240393,14.115636 8.1430817,13.985234 8.3484733,13.520091 8.4980399,13.181235 8.5380146,12.989065 8.4863313,12.860494 8.4748397,12.831922 8.0884653,12.473333 7.6272815,12.063618 6.2562165,10.846477 6.1235758,10.788253 6.1757842,10.441967 6.2131175,10.193967 6.3423643,9.824509 6.8012727,9.17411 7.1915192,8.6208532 8.1351495,7.3546317 8.2413745,7.2857174 Z M 12.00114,14.810267 c 0.158521,5.72e-4 0.319886,0.0573 0.610676,0.171876 0.553,0.217714 1.708447,0.774553 1.755697,0.845981 0.05833,0.08857 0.0016,0.15259 -0.356608,0.404018 -0.637582,0.446284 -1.352376,0.908483 -1.352376,0.908483 v 0.0011 c -0.684249,0.570856 -0.633191,0.569964 -1.301107,0.01339 0,0 -0.98093,-0.652759 -1.492513,-0.992188 -0.2485,-0.164571 -0.299688,-0.249491 -0.200521,-0.342634 0.09508,-0.08971 1.233996,-0.641491 1.739746,-0.842633 0.282042,-0.112286 0.438485,-0.167983 0.597006,-0.167411 z"
     style="opacity:0.2;fill:#000000;stroke-width:0.57735"
     id="path14225" />
  <path
     d="M 9.417155,4 8.0431322,5.3694197 C 8.0248737,5.3753054 7.8899064,5.265386 7.7434896,5.2232145 7.350907,5.1102431 6.8527851,5.1294488 6.5141601,5.2801345 6.292669,5.3787059 6.2069838,5.4482729 5.680176,5.9553581 5.1123016,6.5018148 5,6.6327709 5,6.7488851 5,6.7789995 5.2055031,7.0727424 5.3064781,7.3024567 L 5.489909,7.7198676 5.2540691,8.3537963 C 5.1245691,8.7016816 5.0124909,9.00502 5.0045576,9.02902 c -0.020125,0.06115 1.8179875,6.996438 1.9140625,7.219867 0.1744161,0.405714 0.4492869,0.769796 0.8043619,1.068082 0.3206577,0.268569 3.574485,2.44434 3.896484,2.604909 0.09567,0.048 0.249284,0.07527 0.380534,0.07812 0.13125,-0.0028 0.284867,-0.03012 0.380534,-0.07812 0.322,-0.160569 3.576235,-2.33634 3.896485,-2.604909 0.35525,-0.298286 0.629945,-0.662369 0.804362,-1.068082 0.09625,-0.223429 1.933895,-7.158725 1.914062,-7.219867 -0.0082,-0.024 -0.120012,-0.3273384 -0.249512,-0.6752237 L 18.510091,7.7198676 18.693522,7.3024567 C 18.794439,7.0727424 19,6.7789995 19,6.7488851 19,6.6327709 18.887988,6.5018148 18.319824,5.9553581 17.793075,5.4482729 17.707506,5.3787059 17.48584,5.2801345 17.147507,5.1294493 16.649093,5.1102437 16.256511,5.2232145 16.110094,5.265386 15.974952,5.375306 15.956869,5.3694203 L 14.582845,4 Z M 8.2413745,6.2857147 c 0.6815072,0.076058 1.1688905,0.3263858 1.8274735,0.4196429 0.05542,0 0.280803,-0.052874 0.501302,-0.1183033 0.940916,-0.2796573 1.245572,-0.3013396 1.427572,-0.3013396 0.182583,0 0.487795,0.021794 1.42871,0.3013396 0.2205,0.0656 0.444246,0.1183606 0.496746,0.1183033 0.667915,-0.1009142 1.199087,-0.3203285 1.83317,-0.4196429 0.123084,0 1.572065,1.8694902 1.920898,2.4665182 0.145834,0.2497151 0.192354,0.7829821 0.127604,0.9709841 -0.05892,0.169714 -0.314499,0.340465 -1.381998,1.290178 -0.490583,0.436 -0.900932,0.816839 -0.912598,0.845982 -0.05075,0.126857 -0.01038,0.312385 0.141276,0.650669 0.198917,0.443429 0.224519,0.628072 0.124186,0.901787 -0.107333,0.292 -0.264951,0.507241 -0.529785,0.722099 -0.269499,0.218856 -0.434446,0.444758 -0.58903,0.420758 -0.18375,-0.02858 -1.334831,-0.734161 -1.524414,-0.886161 -0.452666,-0.361713 -0.895125,-0.782697 -0.911458,-0.863839 -0.0099,-0.04743 0.0072,-0.131527 0.03873,-0.186384 0.0315,-0.05486 0.36103,-0.348876 0.731446,-0.654019 0.645166,-0.530856 0.762207,-0.654893 0.762207,-0.808035 0,-0.03771 -0.115185,-0.33827 -0.256348,-0.667411 -0.201249,-0.472572 -0.255235,-0.634687 -0.254069,-0.768974 0.0012,-0.211429 0.08373,-0.365214 0.254069,-0.473214 0.07233,-0.04572 0.594581,-0.2535088 1.159831,-0.4609377 0.56525,-0.2080001 1.066452,-0.3921698 1.113119,-0.4095984 0.05075,-0.018571 0.07222,-0.04384 0.05355,-0.061384 -0.01808,-0.016343 -0.330432,-0.055452 -0.693848,-0.087053 -0.778749,-0.067713 -0.760924,-0.070328 -1.617839,0.2232144 -0.531416,0.1818286 -0.619309,0.2229469 -0.664225,0.305804 -0.02858,0.052572 -0.05185,0.1236515 -0.05128,0.157366 5.83e-4,0.03314 0.111346,0.5175817 0.246094,1.0770097 0.231,0.957714 0.242877,1.020465 0.18571,1.075893 -0.07,0.068 -0.76506,0.271733 -1.105144,0.296875 -0.298083,0.02229 -1.252681,-0.198669 -1.350098,-0.293527 -0.06125,-0.06 -0.05509,-0.09982 0.181153,-1.079241 0.13475,-0.559428 0.24551,-1.0438672 0.246093,-1.0770097 C 11.200764,8.8803493 11.17805,8.8098138 11.15005,8.7578144 11.10513,8.6749574 11.010796,8.6324589 10.414047,8.4285731 L 9.730453,8.1953142 9.357894,8.2042342 c -0.4917485,0.011943 -1.1693987,0.0834 -1.1791987,0.125 -0.00432,0.018171 0.4954519,0.2175646 1.1097007,0.4419641 0.614832,0.2245716 1.168608,0.4431787 1.231608,0.4866077 0.15575,0.105715 0.233534,0.259715 0.234701,0.464287 5.83e-4,0.135428 -0.05325,0.298831 -0.260905,0.78683 -0.348834,0.822286 -0.387798,0.714957 0.529785,1.472098 0.387916,0.320572 0.723534,0.623277 0.745118,0.672992 0.06358,0.146285 -0.0186,0.261581 -0.464845,0.648438 -0.530249,0.46 -0.634284,0.526554 -1.328451,0.845982 C 9.656908,14.294718 9.35176,14.563638 9.297511,14.562495 9.145844,14.559095 9.046039,14.36011 8.789373,14.161825 8.5134633,13.948116 8.330936,13.701919 8.223136,13.396205 8.124039,13.11564 8.143082,12.985236 8.3484733,12.520095 8.4980399,12.181237 8.5380146,11.989067 8.4863313,11.860495 8.4748397,11.831924 8.0884653,11.473334 7.6272815,11.063621 6.2562165,9.846479 6.1235758,9.788254 6.1757842,9.441969 6.2131175,9.193968 6.3423643,8.8245102 6.8012727,8.1741105 7.1915192,7.6208539 8.1351494,6.3546319 8.2413745,6.2857177 Z M 12.00114,13.81027 c 0.158521,5.72e-4 0.319886,0.05731 0.610676,0.171875 0.553,0.217714 1.708447,0.774554 1.755697,0.845983 0.05833,0.08858 0.0016,0.152588 -0.356608,0.404017 -0.637582,0.446286 -1.352376,0.908483 -1.352376,0.908483 v 0.0012 c -0.684249,0.570856 -0.633191,0.569962 -1.301107,0.01339 0,0 -0.98093,-0.652759 -1.492513,-0.992187 -0.2485,-0.164571 -0.299688,-0.249491 -0.200521,-0.342633 0.09508,-0.08971 1.233996,-0.641492 1.739746,-0.842635 0.282042,-0.112286 0.438485,-0.167982 0.597006,-0.167411 z"
     style="fill:#ffffff;stroke-width:0.57735"
     id="path12129"
     sodipodi:nodetypes="cccccscccccccccccccccsccccccsccscccccccccccccscscccccccccccccccccccccccccccccccccccccsscccccccccccc" />
  <path
     id="rect2630"
     style="fill:#ffffff;fill-opacity:1;opacity:0.3"
     d="m 4.9999999,2 c -1.6619983,0 -3,1.3380017 -3,2.9999997 v 1 c 0,-1.661998 1.3380017,-3 3,-3 H 19 c 1.661998,0 3,1.338002 3,3 v -1 C 22,3.3380017 20.661998,2 19,2 Z" />
  <path
     id="rect398"
     style="opacity:0.3;fill:#ffffff"
     d="m 2,18 v 1 c 0,1.661998 1.3380017,3 3,3 h 14 c 1.661998,0 3,-1.338002 3,-3 v -1 c 0,1.661998 -1.338002,3 -3,3 H 5 C 3.3380017,21 2,19.661998 2,18 Z" />
  <path
     id="rect899"
     style="opacity:0.5;fill:#000000;stroke:none"
     d="M 5,1 C 2.7840022,1 1,2.7840022 1,5 v 14 c 0,2.215998 1.7840022,4 4,4 h 14 c 2.215998,0 4,-1.784002 4,-4 V 5 C 23,2.7840022 21.215998,1 19,1 Z m 0,1 h 14 c 1.661998,0 3,1.3380017 3,3 v 14 c 0,1.661998 -1.338002,3 -3,3 H 5 C 3.3380017,22 2,20.661998 2,19 V 5 C 2,3.3380017 3.3380017,2 5,2 Z" />
</svg>
