<?xml version="1.0" encoding="UTF-8" standalone="no"?>
<!-- Created with Inkscape (http://www.inkscape.org/) -->

<svg
   width="24"
   height="24"
   viewBox="0 0 24 24.000001"
   version="1.1"
   id="svg5"
   sodipodi:docname="chromium-browser.svg"
   inkscape:version="1.2.1 (9c6d41e410, 2022-07-14)"
   xmlns:inkscape="http://www.inkscape.org/namespaces/inkscape"
   xmlns:sodipodi="http://sodipodi.sourceforge.net/DTD/sodipodi-0.dtd"
   xmlns="http://www.w3.org/2000/svg"
   xmlns:svg="http://www.w3.org/2000/svg">
  <sodipodi:namedview
     id="namedview7"
     pagecolor="#ffffff"
     bordercolor="#666666"
     borderopacity="1.0"
     inkscape:showpageshadow="2"
     inkscape:pageopacity="0.0"
     inkscape:pagecheckerboard="0"
     inkscape:deskcolor="#d1d1d1"
     inkscape:document-units="px"
     showgrid="false"
     inkscape:zoom="33"
     inkscape:cx="12.015152"
     inkscape:cy="12"
     inkscape:window-width="1920"
     inkscape:window-height="1007"
     inkscape:window-x="0"
     inkscape:window-y="0"
     inkscape:window-maximized="1"
     inkscape:current-layer="svg5" />
  <defs
     id="defs2" />
  <rect
     style="fill:#f5f5f5;fill-opacity:1;stroke:none"
     id="rect184"
     width="21"
     height="21"
     x="1.5"
     y="1.5"
     ry="3.5" />
  <ellipse
     style="opacity:0.2;fill:#000000;stroke-linejoin:round"
     id="path6138"
     cx="12.000066"
     cy="12.999994"
     rx="8"
     ry="7.9999938" />
  <g
     id="g7384"
     transform="matrix(1.6000001,0,0,1.6000001,-1.4787226,-8.2181889)">
    <path
       d="m 8.4242321,7.6363676 c -1.8506347,0 -3.4651958,1.0061482 -4.3297602,2.5006074 l 0.1630996,2.916032 2.0015586,0.833365 2.165102,-1.249971 V 10.136384 H 12.753695 C 11.888983,8.6422944 10.274644,7.6363676 8.4242321,7.6363676 Z"
       style="fill:#396bd7;fill-opacity:1;stroke-width:0.0195312"
       id="path1309" />
    <path
       d="m 3.4242718,12.636401 c 0,2.761409 2.2384774,4.999959 4.9999596,4.999959 L 10.617165,16.464066 10.589333,13.886372 8.4242314,12.636401 6.2591301,13.886372 4.0944714,10.136975 c -0.4254686,0.73547 -0.6702289,1.588504 -0.6702289,2.499352"
       style="fill:#6199f6;fill-opacity:1;stroke-width:0.0195312"
       id="path1449"
       sodipodi:nodetypes="cccccccc" />
    <path
       d="m 8.424284,12.636401 2.165101,1.249971 -2.165101,3.749988 c 2.761408,0 4.999958,-2.23855 4.999958,-4.999959 0,-0.910996 -0.24484,-1.76434 -0.670547,-2.500017 H 8.4242321 Z"
       style="fill:#91b0e8;fill-opacity:1;stroke-width:0.0195312"
       id="path1829" />
    <path
       d="m 10.924301,12.636401 c 0,1.380704 -1.1193128,2.500017 -2.500017,2.500017 -1.3807047,0 -2.5000172,-1.119313 -2.5000172,-2.500017 0,-1.380705 1.1193125,-2.500017 2.5000172,-2.500017 1.3807042,0 2.500017,1.119312 2.500017,2.500017"
       style="fill:#ffffff;stroke-width:0.0195312"
       id="path2229" />
    <path
       d="m 10.299284,12.636401 c 0,1.03552 -0.8394815,1.874999 -1.8749998,1.874999 -1.035519,0 -1.8750001,-0.839479 -1.8750001,-1.874999 0,-1.035518 0.8394811,-1.874999 1.8750001,-1.874999 1.0355183,0 1.8749998,0.839481 1.8749998,1.874999"
       style="fill:#4688f4;fill-opacity:1;stroke-width:0.0180287"
       id="path2029" />
  </g>
  <path
     id="rect2630"
     style="fill:#ffffff;fill-opacity:1;opacity:0.3"
     d="m 4.9999999,2 c -1.6619983,0 -3,1.3380017 -3,2.9999997 v 1 c 0,-1.661998 1.3380017,-3 3,-3 H 19 c 1.661998,0 3,1.338002 3,3 v -1 C 22,3.3380017 20.661998,2 19,2 Z" />
  <path
     id="rect398"
     style="opacity:0.3;fill:#ffffff"
     d="m 2,18 v 1 c 0,1.661998 1.3380017,3 3,3 h 14 c 1.661998,0 3,-1.338002 3,-3 v -1 c 0,1.661998 -1.338002,3 -3,3 H 5 C 3.3380017,21 2,19.661998 2,18 Z" />
  <path
     id="rect899"
     style="opacity:0.5;fill:#000000;stroke:none"
     d="M 5,1 C 2.7840022,1 1,2.7840022 1,5 v 14 c 0,2.215998 1.7840022,4 4,4 h 14 c 2.215998,0 4,-1.784002 4,-4 V 5 C 23,2.7840022 21.215998,1 19,1 Z m 0,1 h 14 c 1.661998,0 3,1.3380017 3,3 v 14 c 0,1.661998 -1.338002,3 -3,3 H 5 C 3.3380017,22 2,20.661998 2,19 V 5 C 2,3.3380017 3.3380017,2 5,2 Z" />
</svg>
