<?xml version="1.0" encoding="UTF-8" standalone="no"?>
<!-- Created with Inkscape (http://www.inkscape.org/) -->

<svg
   width="24"
   height="24"
   viewBox="0 0 24 24.000001"
   version="1.1"
   id="svg5"
   sodipodi:docname="cs-actions.svg"
   inkscape:version="1.3.2 (091e20ef0f, 2023-11-25, custom)"
   xmlns:inkscape="http://www.inkscape.org/namespaces/inkscape"
   xmlns:sodipodi="http://sodipodi.sourceforge.net/DTD/sodipodi-0.dtd"
   xmlns:xlink="http://www.w3.org/1999/xlink"
   xmlns="http://www.w3.org/2000/svg"
   xmlns:svg="http://www.w3.org/2000/svg">
  <sodipodi:namedview
     id="namedview7"
     pagecolor="#ffffff"
     bordercolor="#666666"
     borderopacity="1.0"
     inkscape:showpageshadow="2"
     inkscape:pageopacity="0.0"
     inkscape:pagecheckerboard="0"
     inkscape:deskcolor="#d1d1d1"
     inkscape:document-units="px"
     showgrid="false"
     inkscape:zoom="34.416667"
     inkscape:cx="12"
     inkscape:cy="12"
     inkscape:window-width="1920"
     inkscape:window-height="1011"
     inkscape:window-x="0"
     inkscape:window-y="0"
     inkscape:window-maximized="1"
     inkscape:current-layer="svg5" />
  <defs
     id="defs2">
    <linearGradient
       inkscape:collect="always"
       xlink:href="#linearGradient22024"
       id="linearGradient10386"
       x1="12"
       y1="23"
       x2="12"
       y2="1"
       gradientUnits="userSpaceOnUse" />
    <linearGradient
       inkscape:collect="always"
       id="linearGradient22024">
      <stop
         style="stop-color:#dedede;stop-opacity:1;"
         offset="0"
         id="stop22020" />
      <stop
         style="stop-color:#f2f2f2;stop-opacity:1;"
         offset="1"
         id="stop22022" />
    </linearGradient>
  </defs>
  <rect
     style="fill:url(#linearGradient10386);fill-opacity:1;stroke:none"
     id="rect184"
     width="21"
     height="21"
     x="1.5"
     y="1.5"
     ry="3.5" />
  <path
     id="path14174"
     style="color:#000000;display:inline;overflow:visible;visibility:visible;opacity:0.5;fill:#ffffff;fill-opacity:1;stroke:none;stroke-width:1;marker:none;enable-background:accumulate"
     d="M 6.5,7 C 5.6690008,7 5,7.6690009 5,8.5 5,9.3309992 5.6690008,10 6.5,10 7.3309992,10 8,9.3309992 8,8.5 8,7.6690009 7.3309992,7 6.5,7 Z m 0,1 C 6.7761397,8 7,8.2238603 7,8.5 7,8.7761397 6.7761397,9 6.5,9 6.2238603,9 6,8.7761397 6,8.5 6,8.2238603 6.2238603,8 6.5,8 Z M 10,8 v 1 h 9 V 8 Z M 6.5,12 C 5.6690012,12 5,12.668999 5,13.5 5,14.330999 5.6690012,15 6.5,15 7.3309992,15 8,14.330999 8,13.5 8,12.668999 7.3309992,12 6.5,12 Z m 0,1 C 6.7761397,13 7,13.22386 7,13.5 7,13.77614 6.7761397,14 6.5,14 6.2238603,14 6,13.77614 6,13.5 6,13.22386 6.2238603,13 6.5,13 Z m 3.5,0 v 1 h 9 V 13 Z M 6.5,17 C 5.6690008,17 5,17.669001 5,18.5 5,19.330999 5.6690008,20 6.5,20 7.3309992,20 8,19.330999 8,18.5 8,17.669001 7.3309992,17 6.5,17 Z m 0,1 C 6.7761397,18 7,18.22386 7,18.5 7,18.77614 6.7761397,19 6.5,19 6.2238603,19 6,18.77614 6,18.5 6,18.22386 6.2238603,18 6.5,18 Z m 3.5,0 v 1 h 9 v -1 z" />
  <path
     id="rect4096"
     style="color:#000000;display:inline;overflow:visible;visibility:visible;fill:#ababab;fill-opacity:1;stroke:none;stroke-width:1;marker:none;enable-background:accumulate"
     d="M 6.5,6 C 5.6690008,6 5,6.6690009 5,7.5 5,8.3309992 5.6690008,9 6.5,9 7.3309992,9 8,8.3309992 8,7.5 8,6.6690009 7.3309992,6 6.5,6 Z m 0,1 C 6.7761397,7 7,7.2238603 7,7.5 7,7.7761397 6.7761397,8 6.5,8 6.2238603,8 6,7.7761397 6,7.5 6,7.2238603 6.2238603,7 6.5,7 Z M 10,7 v 1 h 9 V 7 Z M 6.5,11 C 5.6690009,11 5,11.669 5,12.5 5,13.330999 5.6690009,14 6.5,14 7.3309992,14 8,13.330999 8,12.5 8,11.669 7.3309992,11 6.5,11 Z m 0,1 C 6.7761397,12 7,12.22386 7,12.5 7,12.77614 6.7761397,13 6.5,13 6.2238603,13 6,12.77614 6,12.5 6,12.22386 6.2238603,12 6.5,12 Z m 3.5,0 v 1 h 9 V 12 Z M 6.5,16 C 5.6690008,16 5,16.669001 5,17.5 5,18.330999 5.6690008,19 6.5,19 7.3309992,19 8,18.330999 8,17.5 8,16.669001 7.3309992,16 6.5,16 Z m 0,1 C 6.7761397,17 7,17.22386 7,17.5 7,17.77614 6.7761397,18 6.5,18 6.2238603,18 6,17.77614 6,17.5 6,17.22386 6.2238603,17 6.5,17 Z m 3.5,0 v 1 h 9 v -1 z" />
  <path
     id="rect2630"
     style="opacity:0.3;fill:#ffffff;fill-opacity:1"
     d="m 4.9999999,2 c -1.6619983,0 -3,1.3380017 -3,2.9999997 v 1 c 0,-1.661998 1.3380017,-3 3,-3 H 19 c 1.661998,0 3,1.338002 3,3 v -1 C 22,3.3380017 20.661998,2 19,2 Z" />
  <path
     id="rect398"
     style="opacity:0.3;fill:#ffffff"
     d="m 2,18 v 1 c 0,1.661998 1.3380017,3 3,3 h 14 c 1.661998,0 3,-1.338002 3,-3 v -1 c 0,1.661998 -1.338002,3 -3,3 H 5 C 3.3380017,21 2,19.661998 2,18 Z" />
  <path
     id="rect899"
     style="opacity:0.5;fill:#000000;stroke:none"
     d="M 5,1 C 2.7840022,1 1,2.7840022 1,5 v 14 c 0,2.215998 1.7840022,4 4,4 h 14 c 2.215998,0 4,-1.784002 4,-4 V 5 C 23,2.7840022 21.215998,1 19,1 Z m 0,1 h 14 c 1.661998,0 3,1.3380017 3,3 v 14 c 0,1.661998 -1.338002,3 -3,3 H 5 C 3.3380017,22 2,20.661998 2,19 V 5 C 2,3.3380017 3.3380017,2 5,2 Z" />
</svg>
