<?xml version="1.0" encoding="UTF-8" standalone="no"?>
<!-- Created with Inkscape (http://www.inkscape.org/) -->

<svg
   width="24"
   height="24"
   viewBox="0 0 24 24.000001"
   version="1.1"
   id="svg5"
   sodipodi:docname="deja-dup.svg"
   inkscape:version="1.2.1 (9c6d41e410, 2022-07-14)"
   xmlns:inkscape="http://www.inkscape.org/namespaces/inkscape"
   xmlns:sodipodi="http://sodipodi.sourceforge.net/DTD/sodipodi-0.dtd"
   xmlns:xlink="http://www.w3.org/1999/xlink"
   xmlns="http://www.w3.org/2000/svg"
   xmlns:svg="http://www.w3.org/2000/svg">
  <sodipodi:namedview
     id="namedview7"
     pagecolor="#ffffff"
     bordercolor="#666666"
     borderopacity="1.0"
     inkscape:showpageshadow="2"
     inkscape:pageopacity="0.0"
     inkscape:pagecheckerboard="0"
     inkscape:deskcolor="#d1d1d1"
     inkscape:document-units="px"
     showgrid="false"
     inkscape:zoom="18.659091"
     inkscape:cx="4.501827"
     inkscape:cy="13.049939"
     inkscape:window-width="1920"
     inkscape:window-height="1007"
     inkscape:window-x="0"
     inkscape:window-y="0"
     inkscape:window-maximized="1"
     inkscape:current-layer="svg5"
     showguides="false" />
  <defs
     id="defs2">
    <linearGradient
       inkscape:collect="always"
       xlink:href="#4852"
       id="linearGradient10386"
       x1="12"
       y1="23"
       x2="12"
       y2="1"
       gradientUnits="userSpaceOnUse" />
    <linearGradient
       inkscape:collect="always"
       id="4852">
      <stop
         style="stop-color:#333333;stop-opacity:1"
         offset="0"
         id="stop14555" />
      <stop
         style="stop-color:#666666;stop-opacity:1"
         offset="1"
         id="stop14557" />
    </linearGradient>
  </defs>
  <rect
     style="fill:url(#linearGradient10386);fill-opacity:1;stroke:none"
     id="rect184"
     width="21"
     height="21"
     x="1.5"
     y="1.5"
     ry="3.5" />
  <path
     d="m 12,6 c -3.865978,0 -7,3.1340225 -7,7.000001 0.0011,1.35602 0.39597,2.68254 1.136719,3.818359 L 9,13.000001 H 7 c 0,-2.761414 2.238587,-5.0000009 5,-5.0000009 2.761411,0 5,2.2385869 5,5.0000009 0,2.761411 -2.238589,5 -5,5 -0.552285,0 -1,0.447715 -1,1 C 11,19.552285 11.447715,20 12,20 15.865977,20 19,16.865978 19,13.000001 19,9.1340225 15.865977,6 12,6 Z"
     style="opacity:0.2;fill:#000000;stroke-linecap:round;stroke-linejoin:round"
     id="path17940" />
  <path
     d="m 12,4.9999999 c -3.865989,0 -7,3.1340108 -7,7.0000011 0,3.865989 3.134011,7 7,7 3.865989,0 7,-3.134011 7,-7 C 19,8.1340107 15.865989,4.9999999 12,4.9999999 Z M 12,7 c 2.76142,0 5,2.2385781 5,5.000001 0,2.76142 -2.23858,5 -5,5 -2.7614212,0 -5,-2.23858 -5,-5 C 7,9.2385781 9.2385788,7 12,7 Z"
     style="opacity:0.5;fill:#ffffff;stroke-linecap:round;stroke-linejoin:round"
     id="path17897" />
  <path
     id="path17480"
     style="fill:#ffffff;stroke-linecap:round;stroke-linejoin:round"
     d="m 12,5 c -3.8659776,0 -7,3.1340224 -7,7 0.00107,1.356021 0.3959697,2.68254 1.1367188,3.818359 L 9,12 H 7 c 0,-2.7614136 2.2385872,-5 5,-5 2.761411,0 5,2.2385864 5,5 0,2.761411 -2.238589,5 -5,5 -0.552285,0 -1,0.447715 -1,1 0,0.552285 0.447715,1 1,1 3.865977,0 7,-3.134023 7,-7 0,-3.8659776 -3.134023,-7 -7,-7 z"
     sodipodi:nodetypes="sccccsssssss" />
  <path
     id="rect2630"
     style="opacity:0.3;fill:#ffffff;fill-opacity:1"
     d="m 4.9999999,2 c -1.6619983,0 -3,1.3380017 -3,2.9999997 v 1 c 0,-1.661998 1.3380017,-3 3,-3 H 19 c 1.661998,0 3,1.338002 3,3 v -1 C 22,3.3380017 20.661998,2 19,2 Z" />
  <path
     id="rect398"
     style="opacity:0.3;fill:#ffffff"
     d="m 2,18 v 1 c 0,1.661998 1.3380017,3 3,3 h 14 c 1.661998,0 3,-1.338002 3,-3 v -1 c 0,1.661998 -1.338002,3 -3,3 H 5 C 3.3380017,21 2,19.661998 2,18 Z" />
  <path
     id="rect899"
     style="opacity:0.5;fill:#000000;stroke:none"
     d="M 5,1 C 2.7840022,1 1,2.7840022 1,5 v 14 c 0,2.215998 1.7840022,4 4,4 h 14 c 2.215998,0 4,-1.784002 4,-4 V 5 C 23,2.7840022 21.215998,1 19,1 Z m 0,1 h 14 c 1.661998,0 3,1.3380017 3,3 v 14 c 0,1.661998 -1.338002,3 -3,3 H 5 C 3.3380017,22 2,20.661998 2,19 V 5 C 2,3.3380017 3.3380017,2 5,2 Z" />
</svg>
