<?xml version="1.0" encoding="UTF-8" standalone="no"?>
<!-- Created with Inkscape (http://www.inkscape.org/) -->

<svg
   width="24"
   height="24"
   viewBox="0 0 24 24.000001"
   version="1.1"
   id="svg5"
   sodipodi:docname="desktop-environment-xfce.svg"
   inkscape:version="1.3.2 (091e20ef0f, 2023-11-25, custom)"
   xmlns:inkscape="http://www.inkscape.org/namespaces/inkscape"
   xmlns:sodipodi="http://sodipodi.sourceforge.net/DTD/sodipodi-0.dtd"
   xmlns:xlink="http://www.w3.org/1999/xlink"
   xmlns="http://www.w3.org/2000/svg"
   xmlns:svg="http://www.w3.org/2000/svg">
  <sodipodi:namedview
     id="namedview7"
     pagecolor="#ffffff"
     bordercolor="#666666"
     borderopacity="1.0"
     inkscape:showpageshadow="2"
     inkscape:pageopacity="0.0"
     inkscape:pagecheckerboard="0"
     inkscape:deskcolor="#d1d1d1"
     inkscape:document-units="px"
     showgrid="false"
     inkscape:zoom="33.666667"
     inkscape:cx="12"
     inkscape:cy="12"
     inkscape:window-width="1920"
     inkscape:window-height="1011"
     inkscape:window-x="0"
     inkscape:window-y="0"
     inkscape:window-maximized="1"
     inkscape:current-layer="svg5" />
  <defs
     id="defs2">
    <linearGradient
       inkscape:collect="always"
       xlink:href="#linearGradient3"
       id="linearGradient10386"
       x1="19"
       y1="23"
       x2="5"
       y2="1"
       gradientUnits="userSpaceOnUse" />
    <linearGradient
       inkscape:collect="always"
       id="linearGradient3">
      <stop
         style="stop-color:#3c7cbd;stop-opacity:1;"
         offset="0"
         id="stop2" />
      <stop
         style="stop-color:#79a8d7;stop-opacity:1;"
         offset="1"
         id="stop3" />
    </linearGradient>
  </defs>
  <rect
     style="fill:url(#linearGradient10386);stroke:none"
     id="rect184"
     width="21"
     height="21"
     x="1.5"
     y="1.5"
     ry="3.5" />
  <path
     id="path1"
     style="opacity:0.2;fill:#000000"
     d="m 12,6 a 7,7 0 0 0 -7,7 7,7 0 0 0 7,7 7,7 0 0 0 7,-7 7,7 0 0 0 -7,-7 z m -1.097656,2.4921875 c 0.02904,8.75e-4 0.05837,0.00281 0.08984,0.00781 0.105129,0.0588 0.624775,-0.010997 0.759765,1.4511719 0.0358,0.2461196 0.08707,0.8093836 0.101563,1.0585946 0.0281,0.215598 2.369847,0.126809 4.447265,1.486328 0.24228,0.14578 1.229252,1.103864 0.226563,1.933594 -0.41144,0.414389 -3.74231,2.136246 -3.9375,2.273436 -0.0549,1.570238 1.793034,1.885194 -0.589844,1.896484 -3.0928466,0 -5.6015622,-2.506761 -5.6015622,-5.599609 0.1998698,-0.147769 0.8223622,-0.02338 1.1386719,-0.08008 0.4545695,-0.10693 0.6362719,-0.889994 0.6699218,-1.496094 -9.999e-4,-0.269949 -0.1949256,-1.104502 -0.1972656,-1.289062 -0.0134,-0.6424392 0.6002477,-0.9263448 0.7734375,-0.8906249 0.1808098,0.0462 0.5545857,0.1247922 1.203125,1.7128909 0.1087696,0.202169 0.098963,0.116834 0.4082036,0.146484 -0.3224,-1.066219 -0.3977015,-2.5618949 0.423828,-2.6093749 0.02735,-0.0015 0.05494,-0.00283 0.08398,-0.00195 z m 4.875,1.4296875 c 0.0021,-0.00144 0.0031,-7.969e-4 0.0059,0.00195 0.07998,0.087405 0.01502,1.563034 -0.248047,1.84375 -0.015,0.0159 -0.09306,-1.450631 0.234375,-1.8378906 0.0035,-0.004 0.0057,-0.00638 0.0078,-0.00781 z m 1.070312,0.285156 c 0.0242,0.0419 0.05112,0.08234 0.07422,0.125 -0.15828,0.50851 -0.867163,1.681341 -0.882813,1.587891 -0.0463,-0.42486 0.561744,-1.422581 0.808593,-1.712891 z m -4.498047,1.888672 c -0.223139,0 -0.408203,0.190218 -0.408203,0.423828 0,0.23358 0.190853,0.4375 0.414063,0.4375 0.2232,0 0.394531,-0.20392 0.394531,-0.4375 0,-0.23361 -0.177181,-0.423828 -0.400391,-0.423828 z m -0.904297,0.400391 c -0.0991,-0.005 -0.09718,0.769753 0.261719,0.970703 0.37106,0.17471 0.916339,-0.11469 0.824219,-0.125 -0.801049,-0.0889 -0.942043,-0.462589 -1.064453,-0.830078 -0.007,-0.008 -0.01488,-0.01512 -0.02149,-0.01563 z m 2.179688,1.83789 c -0.47163,0.016 -1.556666,0.680864 -1.472656,0.751954 0.12673,0.107209 1.754476,-0.709474 1.560547,-0.751954 -0.0256,-0.005 -0.05649,-7.7e-4 -0.08789,0 z m 0.285156,0.529297 c -0.01243,-6.25e-4 -0.02466,9.07e-4 -0.03711,0.0039 -0.37419,0.0844 -1.097702,0.934759 -1.013672,1.005859 0.12676,0.10721 1.256627,-0.99274 1.085937,-1.005859 -0.01075,-5e-4 -0.02273,-0.0033 -0.03516,-0.0039 z" />
  <path
     id="path2"
     style="opacity:1;fill:#ffffff"
     d="m 12,5 a 7,7 0 0 0 -7,7 7,7 0 0 0 7,7 7,7 0 0 0 7,-7 7,7 0 0 0 -7,-7 z m -1.097656,2.4921875 c 0.02904,8.75e-4 0.05837,0.00281 0.08984,0.00781 0.105129,0.0588 0.624775,-0.010997 0.759765,1.4511719 0.0358,0.2461197 0.08707,0.809384 0.101563,1.0585936 0.0281,0.2156 2.369847,0.12681 4.447265,1.486329 0.24228,0.14578 1.229252,1.103864 0.226563,1.933594 -0.41144,0.414389 -3.74231,2.136246 -3.9375,2.273436 C 12.53494,17.273363 14.382878,17.588319 12,17.599609 8.9071531,17.599609 6.3984375,15.092847 6.3984375,12 6.5983073,11.85223 7.2207997,11.97662 7.5371094,11.91992 7.9916789,11.81299 8.1733813,11.029926 8.2070312,10.423826 8.2060313,10.153876 8.0121056,9.3193234 8.0097656,9.1347636 c -0.0134,-0.6424393 0.6002477,-0.9263449 0.7734375,-0.890625 0.1808098,0.0462 0.5545857,0.1247918 1.203125,1.7128906 0.1087699,0.2021698 0.098964,0.1168348 0.4082029,0.1464848 -0.322399,-1.0662197 -0.3977008,-2.5618954 0.423828,-2.6093754 0.02735,-0.0015 0.05494,-0.00283 0.08399,-0.00195 z m 4.875,1.4296875 c 0.0021,-0.00144 0.0031,-7.969e-4 0.0059,0.00195 0.07998,0.087405 0.01502,1.563034 -0.248047,1.84375 -0.015,0.0159 -0.09306,-1.450631 0.234375,-1.8378906 0.0035,-0.004 0.0057,-0.00638 0.0078,-0.00781 z m 1.070312,0.2851562 c 0.0242,0.0419 0.05112,0.08234 0.07422,0.125 -0.15828,0.5085099 -0.867163,1.6813408 -0.882813,1.5878908 -0.0463,-0.42486 0.561744,-1.4225806 0.808594,-1.7128908 z m -4.498047,1.8886718 c -0.223139,0 -0.408203,0.190218 -0.408203,0.423828 0,0.23358 0.190853,0.4375 0.414063,0.4375 0.2232,0 0.394531,-0.20392 0.394531,-0.4375 0,-0.23361 -0.177181,-0.423828 -0.400391,-0.423828 z m -0.904297,0.400391 c -0.0991,-0.005 -0.09718,0.769753 0.261719,0.970703 0.37106,0.17471 0.916339,-0.11469 0.824219,-0.125 -0.801049,-0.0889 -0.942043,-0.462589 -1.064453,-0.830078 -0.007,-0.008 -0.01488,-0.01512 -0.02149,-0.01563 z m 2.179688,1.83789 c -0.47163,0.016 -1.556666,0.680864 -1.472656,0.751954 0.12673,0.107209 1.754476,-0.709474 1.560547,-0.751954 -0.0256,-0.005 -0.05649,-7.7e-4 -0.08789,0 z m 0.285156,0.529297 c -0.01243,-6.25e-4 -0.02466,9.07e-4 -0.03711,0.0039 -0.37419,0.0844 -1.097702,0.934759 -1.013672,1.005859 0.12676,0.10721 1.256627,-0.99274 1.085937,-1.005859 -0.01075,-5e-4 -0.02273,-0.0033 -0.03516,-0.0039 z" />
  <path
     id="rect2630"
     style="opacity:0.2;fill:#ffffff;fill-opacity:1"
     d="m 4.9999999,2 c -1.6619983,0 -3,1.3380017 -3,2.9999997 v 1 c 0,-1.661998 1.3380017,-3 3,-3 H 19 c 1.661998,0 3,1.338002 3,3 v -1 C 22,3.3380017 20.661998,2 19,2 Z" />
  <path
     id="rect398"
     style="opacity:0.2;fill:#ffffff"
     d="m 2,18 v 1 c 0,1.661998 1.3380017,3 3,3 h 14 c 1.661998,0 3,-1.338002 3,-3 v -1 c 0,1.661998 -1.338002,3 -3,3 H 5 C 3.3380017,21 2,19.661998 2,18 Z" />
  <path
     id="rect899"
     style="opacity:0.5;fill:#000000;stroke:none"
     d="M 5,1 C 2.7840022,1 1,2.7840022 1,5 v 14 c 0,2.215998 1.7840022,4 4,4 h 14 c 2.215998,0 4,-1.784002 4,-4 V 5 C 23,2.7840022 21.215998,1 19,1 Z m 0,1 h 14 c 1.661998,0 3,1.3380017 3,3 v 14 c 0,1.661998 -1.338002,3 -3,3 H 5 C 3.3380017,22 2,20.661998 2,19 V 5 C 2,3.3380017 3.3380017,2 5,2 Z" />
</svg>
