<?xml version="1.0" encoding="UTF-8" standalone="no"?>
<!-- Created with Inkscape (http://www.inkscape.org/) -->

<svg
   width="24"
   height="24"
   viewBox="0 0 24 24.000001"
   version="1.1"
   id="svg5"
   sodipodi:docname="desktop-environment-gnome.svg"
   inkscape:version="1.2 (dc2aedaf03, 2022-05-15)"
   xmlns:inkscape="http://www.inkscape.org/namespaces/inkscape"
   xmlns:sodipodi="http://sodipodi.sourceforge.net/DTD/sodipodi-0.dtd"
   xmlns:xlink="http://www.w3.org/1999/xlink"
   xmlns="http://www.w3.org/2000/svg"
   xmlns:svg="http://www.w3.org/2000/svg">
  <sodipodi:namedview
     id="namedview7"
     pagecolor="#ffffff"
     bordercolor="#666666"
     borderopacity="1.0"
     inkscape:showpageshadow="2"
     inkscape:pageopacity="0.0"
     inkscape:pagecheckerboard="0"
     inkscape:deskcolor="#d1d1d1"
     inkscape:document-units="px"
     showgrid="false"
     inkscape:zoom="17.333334"
     inkscape:cx="9.8942304"
     inkscape:cy="20.307692"
     inkscape:window-width="1920"
     inkscape:window-height="1007"
     inkscape:window-x="0"
     inkscape:window-y="0"
     inkscape:window-maximized="1"
     inkscape:current-layer="svg5" />
  <defs
     id="defs2">
    <linearGradient
       inkscape:collect="always"
       xlink:href="#linearGradient3030"
       id="linearGradient10386"
       x1="19"
       y1="23"
       x2="5"
       y2="1"
       gradientUnits="userSpaceOnUse" />
    <linearGradient
       inkscape:collect="always"
       id="linearGradient3030">
      <stop
         style="stop-color:#4a86cf;stop-opacity:1;"
         offset="0"
         id="stop3026" />
      <stop
         style="stop-color:#70b7df;stop-opacity:1;"
         offset="1"
         id="stop3028" />
    </linearGradient>
  </defs>
  <rect
     style="fill:url(#linearGradient10386);fill-opacity:1.0;stroke:none"
     id="rect184"
     width="21"
     height="21"
     x="1.5"
     y="1.5"
     ry="3.5" />
  <path
     id="path7698"
     style="opacity:0.2;fill:#000000;stroke-width:1.375"
     d="M 16.779297 5 C 13.81755 5 13.261587 9.5 14.927734 9.5 C 16.593642 9.5 19.741164 5 16.779297 5 z M 12.228516 5.5 C 12.180715 5.4998221 12.131083 5.502324 12.078125 5.5097656 C 10.384081 5.7478982 10.978837 8.9384149 11.880859 8.9980469 C 12.754337 9.0558134 13.710332 5.5055145 12.228516 5.5 z M 9.1308594 6.5 C 9.0930012 6.4981132 9.0542309 6.4999466 9.0136719 6.5039062 C 8.927142 6.5123062 8.8334749 6.5346457 8.734375 6.5722656 C 7.1484842 7.174231 8.4943844 9.6591963 9.3828125 9.4921875 C 10.190334 9.3407478 10.304462 6.5584895 9.1308594 6.5 z M 6.9277344 8.5 C 6.7861387 8.4959 6.6337362 8.5347835 6.4707031 8.6308594 C 5.167028 9.3995316 6.9087676 11.256737 7.6757812 10.96875 C 8.3469195 10.716652 7.9189043 8.528465 6.9277344 8.5 z M 13.009766 10 C 10.67582 9.95869 7.5973177 11.184591 7.0722656 13.644531 C 6.5036149 16.306612 9.4134822 20 12.449219 20 C 13.942645 20 15.664055 18.587945 15.986328 16.800781 C 16.232462 15.437969 12.890981 15.984955 13.003906 16.886719 C 13.096116 17.623427 12.709626 18.005585 12.177734 18.017578 C 11.451546 17.929578 11.095537 17.51036 11 16.876953 C 10.869948 15.213684 16.108248 14.02827 15.693359 11.449219 C 15.541614 10.505934 14.410132 10.024785 13.009766 10 z " />
  <path
     id="path7665"
     style="fill:#ffffff;stroke-width:1.375"
     d="M 16.779297 4 C 13.81755 4 13.261587 8.5 14.927734 8.5 C 16.593642 8.5 19.741164 4 16.779297 4 z M 12.228516 4.5 C 12.180715 4.4998221 12.131083 4.502324 12.078125 4.5097656 C 10.384081 4.7478983 10.978837 7.9384146 11.880859 7.9980469 C 12.754337 8.0558163 13.710332 4.5055147 12.228516 4.5 z M 9.1308594 5.5 C 9.0930012 5.4981133 9.0542309 5.4999466 9.0136719 5.5039062 C 8.9271464 5.5123511 8.8334749 5.5346513 8.734375 5.5722656 C 7.1484846 6.1742316 8.4943843 8.6591961 9.3828125 8.4921875 C 10.190335 8.3407476 10.304463 5.5584887 9.1308594 5.5 z M 6.9277344 7.5 C 6.7861387 7.49595 6.6337362 7.5347889 6.4707031 7.6308594 C 5.167028 8.399532 6.9087676 10.256736 7.6757812 9.96875 C 8.3469194 9.7166523 7.9189047 7.5284649 6.9277344 7.5 z M 13.009766 9 C 10.67582 8.958692 7.5973177 10.184591 7.0722656 12.644531 C 6.5036149 15.306611 9.4134815 19 12.449219 19 C 13.942645 19 15.664055 17.587944 15.986328 15.800781 C 16.232462 14.437969 12.890981 14.984955 13.003906 15.886719 C 13.096116 16.623426 12.709626 17.005585 12.177734 17.017578 C 11.451546 16.929578 11.095537 16.51036 11 15.876953 C 10.869948 14.213684 16.108248 13.028269 15.693359 10.449219 C 15.541614 9.5059332 14.410132 9.0247854 13.009766 9 z " />
  <path
     id="rect2630"
     style="fill:#ffffff;fill-opacity:1;opacity:0.3"
     d="m 4.9999999,2 c -1.6619983,0 -3,1.3380017 -3,2.9999997 v 1 c 0,-1.661998 1.3380017,-3 3,-3 H 19 c 1.661998,0 3,1.338002 3,3 v -1 C 22,3.3380017 20.661998,2 19,2 Z" />
  <path
     id="rect398"
     style="opacity:0.3;fill:#ffffff"
     d="m 2,18 v 1 c 0,1.661998 1.3380017,3 3,3 h 14 c 1.661998,0 3,-1.338002 3,-3 v -1 c 0,1.661998 -1.338002,3 -3,3 H 5 C 3.3380017,21 2,19.661998 2,18 Z" />
  <path
     id="rect899"
     style="opacity:0.5;fill:#000000;stroke:none"
     d="M 5,1 C 2.7840022,1 1,2.7840022 1,5 v 14 c 0,2.215998 1.7840022,4 4,4 h 14 c 2.215998,0 4,-1.784002 4,-4 V 5 C 23,2.7840022 21.215998,1 19,1 Z m 0,1 h 14 c 1.661998,0 3,1.3380017 3,3 v 14 c 0,1.661998 -1.338002,3 -3,3 H 5 C 3.3380017,22 2,20.661998 2,19 V 5 C 2,3.3380017 3.3380017,2 5,2 Z" />
</svg>
