<?xml version="1.0" encoding="UTF-8" standalone="no"?>
<!-- Created with Inkscape (http://www.inkscape.org/) -->

<svg
   width="24"
   height="24"
   viewBox="0 0 24 24.000001"
   version="1.1"
   id="svg5"
   sodipodi:docname="desktop-environment-kde.svg"
   inkscape:version="1.2 (dc2aedaf03, 2022-05-15)"
   xmlns:inkscape="http://www.inkscape.org/namespaces/inkscape"
   xmlns:sodipodi="http://sodipodi.sourceforge.net/DTD/sodipodi-0.dtd"
   xmlns:xlink="http://www.w3.org/1999/xlink"
   xmlns="http://www.w3.org/2000/svg"
   xmlns:svg="http://www.w3.org/2000/svg">
  <sodipodi:namedview
     id="namedview7"
     pagecolor="#ffffff"
     bordercolor="#666666"
     borderopacity="1.0"
     inkscape:showpageshadow="2"
     inkscape:pageopacity="0.0"
     inkscape:pagecheckerboard="0"
     inkscape:deskcolor="#d1d1d1"
     inkscape:document-units="px"
     showgrid="false"
     inkscape:zoom="12.256518"
     inkscape:cx="5.0177383"
     inkscape:cy="21.213203"
     inkscape:window-width="1920"
     inkscape:window-height="1007"
     inkscape:window-x="0"
     inkscape:window-y="0"
     inkscape:window-maximized="1"
     inkscape:current-layer="svg5" />
  <defs
     id="defs2">
    <linearGradient
       inkscape:collect="always"
       xlink:href="#linearGradient1090"
       id="linearGradient10386"
       x1="19"
       y1="23"
       x2="5"
       y2="1"
       gradientUnits="userSpaceOnUse" />
    <linearGradient
       inkscape:collect="always"
       id="linearGradient1090">
      <stop
         style="stop-color:#3daee9;stop-opacity:1;"
         offset="0"
         id="stop1086" />
      <stop
         style="stop-color:#53c5f2;stop-opacity:1;"
         offset="1"
         id="stop1088" />
    </linearGradient>
  </defs>
  <rect
     style="fill:url(#linearGradient10386);fill-opacity:1.0;stroke:none"
     id="rect184"
     width="21"
     height="21"
     x="1.5"
     y="1.5"
     ry="3.5" />
  <path
     id="path277"
     style="opacity:0.2;fill:#000000"
     d="M 13.015631,4.975 10.000007,5.500391 V 15.88711 l 3,-0.386719 -0.01563,-4.681641 3.539063,5.181641 3.476563,-0.5 -4,-5.363281 4.013671,-4.5 -3.519531,-0.648438 -3.509766,4.5 z M 6.673835,7.627344 c -0.02897,0.0024 -0.05629,0.01511 -0.07813,0.03711 L 5.560548,8.711329 c -0.04495,0.0453 -0.05245,0.115922 -0.01758,0.169921 l 1.25,1.919922 c -0.23581,0.418481 -0.413985,0.877323 -0.529297,1.357422 L 4.105468,12.687891 C 4.045558,12.702591 3.999999,12.756751 4,12.81875 v 0.681641 0.681641 c 0,0.062 0.04556,0.116159 0.105468,0.130859 l 2.158203,0.529297 c 0.115312,0.4801 0.293487,0.938942 0.529297,1.357422 l -1.25,1.919922 c -0.03487,0.054 -0.02737,0.124624 0.01758,0.169922 l 1.035157,1.046875 c 0.04364,0.044 0.111355,0.04763 0.164062,0.01563 l 1.958985,-1.201172 c 0.384327,0.2239 0.985509,0.404037 1.423828,0.523437 l 0.458984,2.216797 c 0.01275,0.064 0.06358,0.109375 0.126953,0.109375 h 0.771485 0.771484 c 0.06338,0 0.114201,-0.04537 0.126953,-0.109375 l 0.458984,-2.216797 c 0.438319,-0.1194 1.039503,-0.299537 1.423829,-0.523437 l 1.958984,1.201172 c 0.05271,0.032 0.120421,0.02838 0.164062,-0.01563 l 1.035157,-1.046875 c 0.04495,-0.0453 0.05245,-0.115922 0.01758,-0.169922 l -1.041016,-1.59961 -0.128906,0.01953 -0.730469,-1.070313 c -0.746064,1.563962 -2.323844,2.560614 -4.05664,2.5625 -2.485279,0 -4.5,-2.014721 -4.5,-4.5 0.0014,-1.708127 0.96985,-3.268177 2.5,-4.027344 V 8.521874 C 9.214766,8.616974 8.934492,8.724315 8.718754,8.849998 L 6.759769,7.648827 c -0.02635,-0.016 -0.05697,-0.02389 -0.08594,-0.02148 z" />
  <path
     id="path244"
     style="fill:#ffffff"
     d="M 13.015631,3.975 10.000007,4.500391 V 14.88711 l 3,-0.386719 -0.01563,-4.681641 3.539063,5.181641 3.476563,-0.5 -4,-5.363281 4.013671,-4.5 -3.519531,-0.648438 -3.509766,4.5 z M 6.673835,6.627344 c -0.02897,0.0024 -0.05629,0.01511 -0.07813,0.03711 L 5.560548,7.711329 c -0.04495,0.0453 -0.05245,0.115922 -0.01758,0.169921 l 1.25,1.919922 c -0.23581,0.418481 -0.413985,0.877323 -0.529297,1.357422 L 4.105468,11.687891 C 4.045558,11.702591 4,11.756751 4,11.81875 v 0.681641 0.681641 c 0,0.062 0.04556,0.116159 0.105468,0.130859 l 2.158203,0.529297 c 0.115312,0.4801 0.293487,0.938942 0.529297,1.357422 l -1.25,1.919922 c -0.03487,0.054 -0.02737,0.124624 0.01758,0.169922 l 1.035157,1.046875 c 0.04364,0.044 0.111356,0.04763 0.164062,0.01563 l 1.958985,-1.201172 c 0.384327,0.2239 0.985509,0.404037 1.423828,0.523437 l 0.458984,2.216797 c 0.01275,0.064 0.06358,0.109375 0.126953,0.109375 h 0.771485 0.771484 c 0.06338,0 0.114201,-0.04537 0.126953,-0.109375 l 0.458984,-2.216797 c 0.438319,-0.1194 1.039503,-0.299537 1.423829,-0.523437 l 1.958984,1.201172 c 0.05271,0.032 0.120421,0.02838 0.164062,-0.01563 l 1.035157,-1.046875 c 0.04495,-0.0453 0.05245,-0.115922 0.01758,-0.169922 l -1.041016,-1.59961 -0.128906,0.01953 -0.730469,-1.070313 c -0.746064,1.563962 -2.323844,2.560614 -4.05664,2.5625 -2.485279,0 -4.5,-2.014721 -4.5,-4.5 0.0014,-1.708127 0.96985,-3.268177 2.5,-4.027344 V 7.521874 C 9.214766,7.616974 8.934491,7.724315 8.718754,7.849998 L 6.759769,6.648827 c -0.02635,-0.016 -0.05696,-0.02389 -0.08594,-0.02148 z" />
  <path
     id="rect2630"
     style="fill:#ffffff;fill-opacity:1;opacity:0.3"
     d="m 4.9999999,2 c -1.6619983,0 -3,1.3380017 -3,2.9999997 v 1 c 0,-1.661998 1.3380017,-3 3,-3 H 19 c 1.661998,0 3,1.338002 3,3 v -1 C 22,3.3380017 20.661998,2 19,2 Z" />
  <path
     id="rect398"
     style="opacity:0.3;fill:#ffffff"
     d="m 2,18 v 1 c 0,1.661998 1.3380017,3 3,3 h 14 c 1.661998,0 3,-1.338002 3,-3 v -1 c 0,1.661998 -1.338002,3 -3,3 H 5 C 3.3380017,21 2,19.661998 2,18 Z" />
  <path
     id="rect899"
     style="opacity:0.5;fill:#000000;stroke:none"
     d="M 5,1 C 2.7840022,1 1,2.7840022 1,5 v 14 c 0,2.215998 1.7840022,4 4,4 h 14 c 2.215998,0 4,-1.784002 4,-4 V 5 C 23,2.7840022 21.215998,1 19,1 Z m 0,1 h 14 c 1.661998,0 3,1.3380017 3,3 v 14 c 0,1.661998 -1.338002,3 -3,3 H 5 C 3.3380017,22 2,20.661998 2,19 V 5 C 2,3.3380017 3.3380017,2 5,2 Z" />
</svg>
