<?xml version="1.0" encoding="UTF-8" standalone="no"?>
<!-- Created with Inkscape (http://www.inkscape.org/) -->

<svg
   width="24"
   height="24"
   viewBox="0 0 24 24.000001"
   version="1.1"
   id="svg5"
   sodipodi:docname="discord.svg"
   inkscape:version="1.2 (dc2aedaf03, 2022-05-15)"
   xmlns:inkscape="http://www.inkscape.org/namespaces/inkscape"
   xmlns:sodipodi="http://sodipodi.sourceforge.net/DTD/sodipodi-0.dtd"
   xmlns:xlink="http://www.w3.org/1999/xlink"
   xmlns="http://www.w3.org/2000/svg"
   xmlns:svg="http://www.w3.org/2000/svg">
  <sodipodi:namedview
     id="namedview7"
     pagecolor="#ffffff"
     bordercolor="#666666"
     borderopacity="1.0"
     inkscape:showpageshadow="2"
     inkscape:pageopacity="0.0"
     inkscape:pagecheckerboard="0"
     inkscape:deskcolor="#d1d1d1"
     inkscape:document-units="px"
     showgrid="false"
     inkscape:zoom="32.333333"
     inkscape:cx="11.984536"
     inkscape:cy="12"
     inkscape:window-width="1920"
     inkscape:window-height="991"
     inkscape:window-x="0"
     inkscape:window-y="0"
     inkscape:window-maximized="1"
     inkscape:current-layer="svg5" />
  <defs
     id="defs2">
    <linearGradient
       inkscape:collect="always"
       xlink:href="#linearGradient1316"
       id="linearGradient10386"
       x1="19"
       y1="23"
       x2="5"
       y2="1"
       gradientUnits="userSpaceOnUse" />
    <linearGradient
       inkscape:collect="always"
       id="linearGradient1316">
      <stop
         style="stop-color:#5865f2;stop-opacity:1;"
         offset="0"
         id="stop1312" />
      <stop
         style="stop-color:#558af5;stop-opacity:1;"
         offset="1"
         id="stop1314" />
    </linearGradient>
  </defs>
  <rect
     style="fill:url(#linearGradient10386);fill-opacity:1.0;stroke:none"
     id="rect184"
     width="21"
     height="21"
     x="1.5"
     y="1.5"
     ry="3.5" />
  <path
     d="m 10.086534,8.0000832 0.119967,0.1441015 C 8.0471348,8.7559971 7.0635172,9.7037203 7.0635172,9.7037203 c 0,0 0.2637348,-0.1440467 0.7076104,-0.3359932 1.2836158,-0.5638405 2.3034554,-0.7076555 2.7233314,-0.755637 0.07198,-0.012025 0.131867,-0.02415 0.203846,-0.02415 0.731784,-0.095973 1.55968,-0.119872 2.423426,-0.023865 1.139666,0.131963 2.36326,0.4678645 3.610892,1.1396642 0,0 -0.947771,-0.8996912 -2.987167,-1.5115073 L 13.91345,8.0001021 c 0,0 1.64352,-0.035945 3.359007,1.2476769 0,0 1.727543,3.107179 1.727543,6.934047 0,-0.01196 -1.007704,1.715494 -3.658916,1.799472 0,0 -0.432069,-0.515849 -0.791958,-0.959713 1.571532,-0.44387 2.171544,-1.415684 2.171544,-1.415684 -0.491855,0.32391 -0.959717,0.551887 -1.379586,0.70785 -0.599827,0.251918 -1.175659,0.407967 -1.739491,0.515935 -1.151658,0.215938 -2.207392,0.155769 -3.107134,-0.01219 -0.6837951,-0.13196 -1.2717631,-0.311767 -1.7636181,-0.515709 -0.275924,-0.107968 -0.5756863,-0.239976 -0.8756048,-0.407925 -0.035938,-0.02399 -0.072026,-0.03594 -0.10801,-0.05998 -0.023961,-0.01196 -0.036001,-0.02393 -0.04802,-0.02393 -0.2159339,-0.11996 -0.3357613,-0.204085 -0.3357613,-0.204085 0,0 0.5758298,0.94787 2.0993799,1.40373 -0.3598989,0.455865 -0.8039088,0.983618 -0.8039088,0.983618 -2.6512122,-0.08398 -3.6589161,-1.811436 -3.6589161,-1.811436 0,-3.826869 1.7275363,-6.9340476 1.7275363,-6.9340476 C 8.4550275,7.9641135 10.086544,8.0000585 10.086544,8.0000585 Z M 9.7627236,12.426825 c -0.6837987,0 -1.223785,0.587824 -1.223785,1.319613 0,0.73178 0.5519787,1.319612 1.223785,1.319612 0.6838014,0 1.2235424,-0.587832 1.2235424,-1.319612 0.01196,-0.731789 -0.539741,-1.319613 -1.2235424,-1.319613 z m 4.3787094,0 c -0.683798,0 -1.223787,0.587824 -1.223787,1.319613 0,0.73178 0.551981,1.319612 1.223787,1.319612 0.683792,0 1.223543,-0.587832 1.223543,-1.319612 0,-0.731789 -0.551746,-1.319613 -1.223543,-1.319613 z"
     style="display:inline;opacity:0.2;fill:#000000;stroke-width:0.318182;enable-background:new"
     id="path678" />
  <path
     d="m 10.086534,7.0001258 0.119967,0.1441015 C 8.0471348,7.7560397 7.0635172,8.7037632 7.0635172,8.7037632 c 0,0 0.2637348,-0.144047 0.7076104,-0.3359935 1.2836158,-0.5638404 2.3034554,-0.7076554 2.7233314,-0.7556369 0.07198,-0.012025 0.131867,-0.02415 0.203846,-0.02415 0.731784,-0.095974 1.55968,-0.119872 2.423426,-0.023865 1.139666,0.131963 2.36326,0.4678645 3.610892,1.139664 0,0 -0.947771,-0.899691 -2.987167,-1.511507 l 0.167994,-0.19213 c 0,0 1.64352,-0.035945 3.359007,1.247677 0,0 1.727543,3.1071782 1.727543,6.9340472 0,-0.01196 -1.007704,1.715494 -3.658916,1.799472 0,0 -0.432069,-0.51585 -0.791958,-0.959713 1.571532,-0.44387 2.171544,-1.415684 2.171544,-1.415684 -0.491855,0.32391 -0.959717,0.551887 -1.379586,0.70785 -0.599827,0.251917 -1.175659,0.407967 -1.739491,0.515935 -1.151658,0.215937 -2.207392,0.155769 -3.107134,-0.01219 C 9.8106639,15.685582 9.2226959,15.505774 8.7308409,15.301833 8.454917,15.193864 8.1551547,15.061857 7.8552362,14.893908 c -0.035938,-0.02399 -0.072026,-0.03595 -0.10801,-0.05998 -0.023961,-0.01196 -0.036001,-0.02393 -0.04802,-0.02393 -0.2159339,-0.119961 -0.3357613,-0.204085 -0.3357613,-0.204085 0,0 0.5758298,0.94787 2.0993799,1.403729 -0.359899,0.455866 -0.8039089,0.983618 -0.8039089,0.983618 -2.6512122,-0.08398 -3.6589161,-1.811434 -3.6589161,-1.811434 0,-3.826869 1.7275363,-6.934048 1.7275363,-6.934048 C 8.4550275,6.9641561 10.086544,7.0001011 10.086544,7.0001011 Z M 9.7627236,11.426868 c -0.6837987,0 -1.223785,0.587822 -1.223785,1.319613 0,0.73178 0.5519787,1.319611 1.223785,1.319611 0.6838014,0 1.2235424,-0.587831 1.2235424,-1.319611 0.01196,-0.731791 -0.539741,-1.319613 -1.2235424,-1.319613 z m 4.3787094,0 c -0.683798,0 -1.223787,0.587822 -1.223787,1.319613 0,0.73178 0.551981,1.319611 1.223787,1.319611 0.683792,0 1.223543,-0.587831 1.223543,-1.319611 0,-0.731791 -0.551746,-1.319613 -1.223543,-1.319613 z"
     style="display:inline;fill:#ffffff;stroke-width:0.318182;enable-background:new"
     id="path492"
     sodipodi:nodetypes="cccccccccccccccccccccccccccccssscssssss" />
  <path
     id="rect2630"
     style="fill:#ffffff;fill-opacity:1;opacity:0.3"
     d="m 4.9999999,2 c -1.6619983,0 -3,1.3380017 -3,2.9999997 v 1 c 0,-1.661998 1.3380017,-3 3,-3 H 19 c 1.661998,0 3,1.338002 3,3 v -1 C 22,3.3380017 20.661998,2 19,2 Z" />
  <path
     id="rect398"
     style="opacity:0.3;fill:#ffffff"
     d="m 2,18 v 1 c 0,1.661998 1.3380017,3 3,3 h 14 c 1.661998,0 3,-1.338002 3,-3 v -1 c 0,1.661998 -1.338002,3 -3,3 H 5 C 3.3380017,21 2,19.661998 2,18 Z" />
  <path
     id="rect899"
     style="opacity:0.5;fill:#000000;stroke:none"
     d="M 5,1 C 2.7840022,1 1,2.7840022 1,5 v 14 c 0,2.215998 1.7840022,4 4,4 h 14 c 2.215998,0 4,-1.784002 4,-4 V 5 C 23,2.7840022 21.215998,1 19,1 Z m 0,1 h 14 c 1.661998,0 3,1.3380017 3,3 v 14 c 0,1.661998 -1.338002,3 -3,3 H 5 C 3.3380017,22 2,20.661998 2,19 V 5 C 2,3.3380017 3.3380017,2 5,2 Z" />
</svg>
