<?xml version="1.0" encoding="UTF-8" standalone="no"?>
<!-- Created with Inkscape (http://www.inkscape.org/) -->

<svg
   width="24"
   height="24"
   viewBox="0 0 24 24.000001"
   version="1.1"
   id="svg5"
   sodipodi:docname="disk-burner.svg"
   inkscape:version="1.2.1 (9c6d41e410, 2022-07-14)"
   xmlns:inkscape="http://www.inkscape.org/namespaces/inkscape"
   xmlns:sodipodi="http://sodipodi.sourceforge.net/DTD/sodipodi-0.dtd"
   xmlns:xlink="http://www.w3.org/1999/xlink"
   xmlns="http://www.w3.org/2000/svg"
   xmlns:svg="http://www.w3.org/2000/svg">
  <sodipodi:namedview
     id="namedview7"
     pagecolor="#ffffff"
     bordercolor="#666666"
     borderopacity="1.0"
     inkscape:showpageshadow="2"
     inkscape:pageopacity="0.0"
     inkscape:pagecheckerboard="0"
     inkscape:deskcolor="#d1d1d1"
     inkscape:document-units="px"
     showgrid="false"
     inkscape:zoom="33"
     inkscape:cx="12"
     inkscape:cy="12"
     inkscape:window-width="1920"
     inkscape:window-height="1007"
     inkscape:window-x="0"
     inkscape:window-y="0"
     inkscape:window-maximized="1"
     inkscape:current-layer="svg5" />
  <defs
     id="defs2">
    <linearGradient
       inkscape:collect="always"
       xlink:href="#linearGradient4853"
       id="linearGradient10386"
       x1="19"
       y1="23"
       x2="5"
       y2="1"
       gradientUnits="userSpaceOnUse" />
    <linearGradient
       inkscape:collect="always"
       id="linearGradient4853">
      <stop
         style="stop-color:#ff5840;stop-opacity:1;"
         offset="0"
         id="stop4849" />
      <stop
         style="stop-color:#fda36d;stop-opacity:1;"
         offset="1"
         id="stop4851" />
    </linearGradient>
  </defs>
  <rect
     style="fill:url(#linearGradient10386);fill-opacity:1.0;stroke:none"
     id="rect184"
     width="21"
     height="21"
     x="1.5"
     y="1.5"
     ry="3.5" />
  <path
     id="path8495"
     style="opacity:0.2;fill:#000000;fill-opacity:1;stroke-width:0.466663;stroke-linejoin:round"
     d="M 12 6 C 8.1340308 6 5 9.1340307 5 13 C 5 16.865969 8.1340308 20 12 20 C 15.865969 20 19 16.865969 19 13 C 19 9.1340306 15.865969 6 12 6 z M 12 10 C 13.656843 10 15 11.343157 15 13 C 15 14.656843 13.656843 16 12 16 C 10.343157 16 9 14.656843 9 13 C 9 11.343157 10.343157 10 12 10 z M 12 11 C 10.895437 11 10 11.895437 10 13 C 10 14.104563 10.895437 15 12 15 C 13.104563 15 14 14.104563 14 13 C 14 11.895437 13.104563 11 12 11 z M 12 12 C 12.55228 12 13 12.44772 13 13 C 13 13.55228 12.55228 14 12 14 C 11.44772 14 11 13.55228 11 13 C 11 12.44772 11.44772 12 12 12 z " />
  <path
     id="path4048"
     style="fill:#ffffff;fill-opacity:1;stroke-width:0.466663;stroke-linejoin:round"
     d="M 12 5 C 8.1340312 5 5 8.1340312 5 12 C 5 15.865969 8.1340312 19 12 19 C 15.865969 19 19 15.865969 19 12 C 19 8.1340312 15.865969 4.9999999 12 5 z M 12 9 C 13.656843 9 15 10.343157 15 12 C 15 13.656843 13.656843 15 12 15 C 10.343157 15 9 13.656843 9 12 C 9 10.343157 10.343157 9 12 9 z M 12 10 C 10.895437 10 10 10.895437 10 12 C 10 13.104563 10.895437 14 12 14 C 13.104563 14 14 13.104563 14 12 C 14 10.895437 13.104563 10 12 10 z M 12 11 C 12.55228 11 13 11.44772 13 12 C 13 12.55228 12.55228 13 12 13 C 11.44772 13 11 12.55228 11 12 C 11 11.44772 11.44772 11 12 11 z " />
  <path
     id="rect2630"
     style="fill:#ffffff;fill-opacity:1;opacity:0.3"
     d="m 4.9999999,2 c -1.6619983,0 -3,1.3380017 -3,2.9999997 v 1 c 0,-1.661998 1.3380017,-3 3,-3 H 19 c 1.661998,0 3,1.338002 3,3 v -1 C 22,3.3380017 20.661998,2 19,2 Z" />
  <path
     id="rect398"
     style="opacity:0.3;fill:#ffffff"
     d="m 2,18 v 1 c 0,1.661998 1.3380017,3 3,3 h 14 c 1.661998,0 3,-1.338002 3,-3 v -1 c 0,1.661998 -1.338002,3 -3,3 H 5 C 3.3380017,21 2,19.661998 2,18 Z" />
  <path
     id="rect899"
     style="opacity:0.5;fill:#000000;stroke:none"
     d="M 5,1 C 2.7840022,1 1,2.7840022 1,5 v 14 c 0,2.215998 1.7840022,4 4,4 h 14 c 2.215998,0 4,-1.784002 4,-4 V 5 C 23,2.7840022 21.215998,1 19,1 Z m 0,1 h 14 c 1.661998,0 3,1.3380017 3,3 v 14 c 0,1.661998 -1.338002,3 -3,3 H 5 C 3.3380017,22 2,20.661998 2,19 V 5 C 2,3.3380017 3.3380017,2 5,2 Z" />
</svg>
