<?xml version="1.0" encoding="UTF-8" standalone="no"?>
<!-- Created with Inkscape (http://www.inkscape.org/) -->

<svg
   width="24"
   height="24"
   viewBox="0 0 24 24.000001"
   version="1.1"
   id="svg5"
   sodipodi:docname="display.im6.svg"
   inkscape:version="1.2.1 (9c6d41e410, 2022-07-14)"
   xmlns:inkscape="http://www.inkscape.org/namespaces/inkscape"
   xmlns:sodipodi="http://sodipodi.sourceforge.net/DTD/sodipodi-0.dtd"
   xmlns:xlink="http://www.w3.org/1999/xlink"
   xmlns="http://www.w3.org/2000/svg"
   xmlns:svg="http://www.w3.org/2000/svg">
  <sodipodi:namedview
     id="namedview7"
     pagecolor="#ffffff"
     bordercolor="#666666"
     borderopacity="1.0"
     inkscape:showpageshadow="2"
     inkscape:pageopacity="0.0"
     inkscape:pagecheckerboard="0"
     inkscape:deskcolor="#d1d1d1"
     inkscape:document-units="px"
     showgrid="false"
     inkscape:zoom="11.667262"
     inkscape:cx="10.070915"
     inkscape:cy="18.341921"
     inkscape:window-width="1920"
     inkscape:window-height="1002"
     inkscape:window-x="0"
     inkscape:window-y="0"
     inkscape:window-maximized="1"
     inkscape:current-layer="svg5" />
  <defs
     id="defs2">
    <linearGradient
       inkscape:collect="always"
       xlink:href="#linearGradient1440"
       id="linearGradient10386"
       x1="19"
       y1="23"
       x2="5"
       y2="1"
       gradientUnits="userSpaceOnUse" />
    <linearGradient
       inkscape:collect="always"
       id="linearGradient1440">
      <stop
         style="stop-color:#273894;stop-opacity:1;"
         offset="0"
         id="stop1436" />
      <stop
         style="stop-color:#5068c3;stop-opacity:1;"
         offset="1"
         id="stop1438" />
    </linearGradient>
  </defs>
  <rect
     style="fill:url(#linearGradient10386);fill-opacity:1.0;stroke:none"
     id="rect184"
     width="21"
     height="21"
     x="1.5"
     y="1.5"
     ry="3.5" />
  <path
     id="path5452"
     style="opacity:0.2;fill:#000000;stroke-width:0.368395"
     d="m 14.975291,6.0001599 c -0.495838,-0.00315 -1.056631,0.040659 -1.707031,0.09375 l 0.0039,-0.00391 c -1.335488,0.1861125 -2.773959,0.8878416 -3.9414001,2.9648474 -2.668905,4.7460187 -2.476886,6.3978387 -2.902343,6.9316397 -0.426968,0.531594 -1.578477,0.819294 -1.41211,1.423828 0.282857,0.566921 0.38086,0.630862 0.38086,0.63086 0,0 1.634364,2.521481 6.5078121,1.839843 4.872747,-0.681677 5.548114,-1.790422 5.503906,-2.341797 -0.04415,-0.551965 -1.072266,-0.955078 -1.072265,-0.955078 0,0 -0.761876,-2.897903 -0.566407,-4.087889 0.195452,-1.190577 0.93995,-2.9254237 1.673828,-3.2988287 0.731742,-0.3769031 1.098076,1.2597077 1.476563,0.8554687 0.376498,-0.4044957 -0.6275,-2.7893682 -1.853516,-3.4999997 -0.612915,-0.4165615 -1.2654,-0.5474988 -2.091797,-0.5527344 z m -1.833984,4.0000001 0.509766,1.455078 1.349609,0.552734 -1.039062,0.951171 -0.02344,1.542969 -1.103516,-0.808594 -1.476562,0.542969 0.414063,-1.49414 -0.771485,-1.380859 1.400391,-0.08594 z m -3,3.999999 0.509766,1.455078 1.349609,0.552734 -1.039062,0.951172 -0.02344,1.542969 -1.1035151,-0.808594 -1.476563,0.542969 0.414063,-1.49414 -0.771485,-1.38086 1.400391,-0.08594 z" />
  <path
     id="path316"
     style="fill:#ffffff;stroke-width:0.368395"
     d="m 14.975291,5.0001599 c -0.495838,-0.00315 -1.056631,0.040659 -1.707031,0.09375 l 0.0039,-0.00391 c -1.335488,0.1861118 -2.773959,0.8878415 -3.9414001,2.9648475 -2.668905,4.7460196 -2.476886,6.3978386 -2.902343,6.9316396 -0.426968,0.531594 -1.578477,0.819292 -1.41211,1.423828 0.282857,0.566921 0.38086,0.63086 0.38086,0.63086 0,0 1.634364,2.521483 6.5078121,1.839843 4.872747,-0.681675 5.548114,-1.790422 5.503906,-2.341797 -0.04414,-0.551965 -1.072266,-0.955078 -1.072265,-0.955078 0,0 -0.761876,-2.899856 -0.566407,-4.089843 0.195452,-1.190576 0.93995,-2.9234707 1.673828,-3.2968745 0.731741,-0.3769034 1.098076,1.2597078 1.476563,0.8554688 0.376498,-0.4044964 -0.627499,-2.7893685 -1.853516,-3.5 -0.612915,-0.4165622 -1.2654,-0.5474988 -2.091797,-0.5527344 z m -1.833984,4.0000004 0.509766,1.4550777 1.349609,0.552734 -1.039062,0.951172 -0.02344,1.542968 -1.103516,-0.808593 -1.476562,0.542968 0.414063,-1.49414 -0.771485,-1.380859 1.400391,-0.08594 z m -3,3.9999987 0.509766,1.455078 1.349609,0.552734 -1.039062,0.951172 -0.02344,1.542969 -1.1035151,-0.808594 -1.476563,0.542969 0.414063,-1.49414 -0.771485,-1.38086 1.400391,-0.08594 z" />
  <path
     id="rect2630"
     style="fill:#ffffff;fill-opacity:1;opacity:0.3"
     d="m 4.9999999,2 c -1.6619983,0 -3,1.3380017 -3,2.9999997 v 1 c 0,-1.661998 1.3380017,-3 3,-3 H 19 c 1.661998,0 3,1.338002 3,3 v -1 C 22,3.3380017 20.661998,2 19,2 Z" />
  <path
     id="rect398"
     style="opacity:0.3;fill:#ffffff"
     d="m 2,18 v 1 c 0,1.661998 1.3380017,3 3,3 h 14 c 1.661998,0 3,-1.338002 3,-3 v -1 c 0,1.661998 -1.338002,3 -3,3 H 5 C 3.3380017,21 2,19.661998 2,18 Z" />
  <path
     id="rect899"
     style="opacity:0.5;fill:#000000;stroke:none"
     d="M 5,1 C 2.7840022,1 1,2.7840022 1,5 v 14 c 0,2.215998 1.7840022,4 4,4 h 14 c 2.215998,0 4,-1.784002 4,-4 V 5 C 23,2.7840022 21.215998,1 19,1 Z m 0,1 h 14 c 1.661998,0 3,1.3380017 3,3 v 14 c 0,1.661998 -1.338002,3 -3,3 H 5 C 3.3380017,22 2,20.661998 2,19 V 5 C 2,3.3380017 3.3380017,2 5,2 Z" />
</svg>
