<?xml version="1.0" encoding="UTF-8" standalone="no"?>
<!-- Created with Inkscape (http://www.inkscape.org/) -->

<svg
   width="24"
   height="24"
   viewBox="0 0 24 24.000001"
   version="1.1"
   id="svg5"
   sodipodi:docname="dolphin-emu.svg"
   inkscape:version="1.2 (1:1.2+202206011326+fc4e4096c5)"
   xmlns:inkscape="http://www.inkscape.org/namespaces/inkscape"
   xmlns:sodipodi="http://sodipodi.sourceforge.net/DTD/sodipodi-0.dtd"
   xmlns:xlink="http://www.w3.org/1999/xlink"
   xmlns="http://www.w3.org/2000/svg"
   xmlns:svg="http://www.w3.org/2000/svg">
  <sodipodi:namedview
     id="namedview7"
     pagecolor="#ffffff"
     bordercolor="#666666"
     borderopacity="1.0"
     inkscape:showpageshadow="2"
     inkscape:pageopacity="0.0"
     inkscape:pagecheckerboard="0"
     inkscape:deskcolor="#d1d1d1"
     inkscape:document-units="px"
     showgrid="false"
     inkscape:zoom="12.256518"
     inkscape:cx="4.8953546"
     inkscape:cy="21.131614"
     inkscape:window-width="1846"
     inkscape:window-height="1053"
     inkscape:window-x="0"
     inkscape:window-y="0"
     inkscape:window-maximized="1"
     inkscape:current-layer="svg5" />
  <defs
     id="defs2">
    <linearGradient
       inkscape:collect="always"
       xlink:href="#linearGradient1744"
       id="linearGradient10386"
       x1="19"
       y1="23"
       x2="5"
       y2="1"
       gradientUnits="userSpaceOnUse" />
    <linearGradient
       inkscape:collect="always"
       id="linearGradient1744">
      <stop
         style="stop-color:#0096f4;stop-opacity:1;"
         offset="0"
         id="stop1740" />
      <stop
         style="stop-color:#3cbff1;stop-opacity:1;"
         offset="1"
         id="stop1742" />
    </linearGradient>
  </defs>
  <rect
     style="fill:url(#linearGradient10386);fill-opacity:1.0;stroke:none"
     id="rect184"
     width="21"
     height="21"
     x="1.5"
     y="1.5"
     ry="3.5" />
  <path
     id="rect2630"
     style="fill:#ffffff;fill-opacity:1;opacity:0.3"
     d="m 4.9999999,2 c -1.6619983,0 -3,1.3380017 -3,2.9999997 v 1 c 0,-1.661998 1.3380017,-3 3,-3 H 19 c 1.661998,0 3,1.338002 3,3 v -1 C 22,3.3380017 20.661998,2 19,2 Z" />
  <path
     id="rect398"
     style="opacity:0.3;fill:#ffffff"
     d="m 2,18 v 1 c 0,1.661998 1.3380017,3 3,3 h 14 c 1.661998,0 3,-1.338002 3,-3 v -1 c 0,1.661998 -1.338002,3 -3,3 H 5 C 3.3380017,21 2,19.661998 2,18 Z" />
  <path
     id="rect899"
     style="opacity:0.5;fill:#000000;stroke:none"
     d="M 5,1 C 2.7840022,1 1,2.7840022 1,5 v 14 c 0,2.215998 1.7840022,4 4,4 h 14 c 2.215998,0 4,-1.784002 4,-4 V 5 C 23,2.7840022 21.215998,1 19,1 Z m 0,1 h 14 c 1.661998,0 3,1.3380017 3,3 v 14 c 0,1.661998 -1.338002,3 -3,3 H 5 C 3.3380017,22 2,20.661998 2,19 V 5 C 2,3.3380017 3.3380017,2 5,2 Z" />
  <path
     d="m 14.254523,8.8779745 c -0.873961,0.05567 -1.659028,0.567344 -1.805904,0.639342 -0.47058,-0.134396 -1.007206,-0.415093 -1.635221,-0.521649 -2.1722883,-0.36863 -4.0106003,0.219642 -4.9331363,0.859944 -1.209183,0.8392105 -1.175776,1.7815205 -1.27542,2.1726535 -0.06144,0.242297 -0.611312,0.690028 -0.604784,1.004325 0.01075,0.410294 0.267256,0.542385 0.267256,0.542385 0.230778,-0.0182 0.574833,-0.182394 0.868969,-0.303736 0.436596,-0.180474 0.470386,-0.277048 1.663635,-0.455027 0.548913,-0.08256 1.126626,-0.105599 1.556887,-0.109436 0.167035,0.353463 0.583664,1.08074 1.3047972,1.429211 0.4279571,0.196987 1.0722921,0.28492 1.3570191,0.341174 l 0.832874,0.122873 v -0.33695 h -0.0011 c 0,0 -0.698862,-0.289912 -1.12893,-0.719789 -0.182396,-0.182395 -0.182396,-0.398582 -0.233275,-0.615151 0.662574,0.124798 1.252959,0.219257 2.650202,0.754348 1.286942,0.49285 2.165798,1.208606 2.166815,1.209566 l 0.0011,0.0011 0.0022,0.0022 v -0.336951 l -0.0031,-0.0022 c -0.01175,-0.01451 -0.913128,-1.132386 -2.429426,-1.880206 -1.253151,-0.618032 -2.282454,-0.923688 -3.7079783,-0.992805 -1.480472,-0.07104 -2.464657,0.09984 -2.571714,0.119036 0.126717,-0.252282 0.384182,-0.689454 1.074596,-1.01335 1.022949,-0.479795 2.6311753,-0.560048 4.4780113,-0.08832 2.609173,0.665645 3.499012,1.911501 4.621355,3.082804 1.193824,1.245854 2.22526,3.339347 2.226449,3.341786 l 0.0011,0.0022 0.0022,0.0053 v -0.339118 l -0.0094,-0.02687 c -0.04993,-0.167036 -0.360183,-1.175776 -0.884137,-2.142759 -0.690414,-1.273886 -1.284254,-2.184633 -2.273526,-3.109491 -0.690223,-0.514739 -1.392348,-1.215712 -1.272351,-1.5181025 0.310648,-0.408566 1.153122,-0.658544 1.156193,-0.659119 h 0.0022 v -0.0011 -0.335799 c 0,0 -0.532594,-0.180475 -1.463769,-0.12096 z m 1.04522,6.0097475 c 0,0 0.0084,0.0074 0,0 z"
     style="opacity:0.2;fill:#000000;stroke-width:0.374983"
     id="path1104" />
  <path
     d="m 14.254523,7.8779755 c -0.873961,0.05567 -1.659028,0.567344 -1.805904,0.639342 -0.47058,-0.134397 -1.007206,-0.415093 -1.635221,-0.521649 -2.1722873,-0.36863 -4.0105993,0.219642 -4.9331363,0.859944 -1.209183,0.839211 -1.175776,1.7815205 -1.27542,2.1726515 -0.06144,0.242298 -0.611312,0.69003 -0.604784,1.004326 0.01075,0.410293 0.267256,0.542385 0.267256,0.542385 0.230778,-0.0182 0.574833,-0.182395 0.868969,-0.303736 0.436596,-0.180475 0.470386,-0.277048 1.663636,-0.455027 0.548913,-0.08256 1.126626,-0.105598 1.556886,-0.109435 0.167035,0.353462 0.583664,1.08074 1.3047972,1.42921 0.4279571,0.196987 1.0722921,0.284921 1.3570191,0.341175 l 0.832874,0.122872 v -0.33695 h -0.0011 c 0,0 -0.698861,-0.289912 -1.12893,-0.719789 -0.182396,-0.182395 -0.182396,-0.398581 -0.233275,-0.615151 0.662574,0.124797 1.252959,0.219258 2.650202,0.754348 1.286942,0.49285 2.165798,1.208607 2.166815,1.209567 l 0.0011,0.0011 0.0022,0.0022 v -0.336952 l -0.0031,-0.0022 c -0.01175,-0.01451 -0.913128,-1.132385 -2.429425,-1.880205 -1.253152,-0.618032 -2.282455,-0.923688 -3.7079783,-0.992805 -1.480473,-0.07104 -2.464657,0.09984 -2.571715,0.119035 0.126717,-0.252282 0.384182,-0.689454 1.074596,-1.0133495 1.022949,-0.479795 2.6311753,-0.560048 4.4780123,-0.08832 2.609172,0.6656455 3.499011,1.9115005 4.621354,3.0828035 1.193824,1.245854 2.22526,3.339347 2.226449,3.341786 l 0.0011,0.0022 0.0022,0.0053 v -0.339064 l -0.0094,-0.02687 C 18.94067,15.599682 18.630417,14.590941 18.106463,13.623959 17.416049,12.350072 16.82221,11.439326 15.832937,10.514467 15.142714,9.9997295 14.440589,9.2987555 14.560586,8.9963655 c 0.310648,-0.408566 1.153122,-0.658544 1.156193,-0.659119 h 0.0022 v -0.0011 -0.335799 c 0,0 -0.532594,-0.180475 -1.463769,-0.12096 z m 1.04522,6.0097465 c 0,0 0.0084,0.0074 0,0 z"
     style="fill:#ffffff;stroke-width:0.374983"
     id="path358"
     sodipodi:nodetypes="cccccccccccccccccsccccccccccccccccccccccccccc" />
</svg>
