<?xml version="1.0" encoding="UTF-8" standalone="no"?>
<!-- Created with Inkscape (http://www.inkscape.org/) -->

<svg
   width="24"
   height="24"
   viewBox="0 0 24 24.000001"
   version="1.1"
   id="svg5"
   sodipodi:docname="emacs.svg"
   inkscape:version="1.2.1 (9c6d41e410, 2022-07-14)"
   xmlns:inkscape="http://www.inkscape.org/namespaces/inkscape"
   xmlns:sodipodi="http://sodipodi.sourceforge.net/DTD/sodipodi-0.dtd"
   xmlns:xlink="http://www.w3.org/1999/xlink"
   xmlns="http://www.w3.org/2000/svg"
   xmlns:svg="http://www.w3.org/2000/svg">
  <sodipodi:namedview
     id="namedview7"
     pagecolor="#ffffff"
     bordercolor="#666666"
     borderopacity="1.0"
     inkscape:showpageshadow="2"
     inkscape:pageopacity="0.0"
     inkscape:pagecheckerboard="0"
     inkscape:deskcolor="#d1d1d1"
     inkscape:document-units="px"
     showgrid="false"
     inkscape:zoom="34.291667"
     inkscape:cx="11.781288"
     inkscape:cy="12"
     inkscape:window-width="1920"
     inkscape:window-height="1009"
     inkscape:window-x="0"
     inkscape:window-y="0"
     inkscape:window-maximized="1"
     inkscape:current-layer="svg5" />
  <defs
     id="defs2">
    <linearGradient
       inkscape:collect="always"
       xlink:href="#linearGradient1312"
       id="linearGradient16885"
       x1="13"
       y1="24"
       x2="13"
       y2="2"
       gradientUnits="userSpaceOnUse"
       gradientTransform="translate(-0.9999999,-1.0000001)" />
    <linearGradient
       inkscape:collect="always"
       id="linearGradient1312">
      <stop
         style="stop-color:#9d4dcd;stop-opacity:1;"
         offset="0"
         id="stop1308" />
      <stop
         style="stop-color:#b589df;stop-opacity:1;"
         offset="1"
         id="stop1310" />
    </linearGradient>
  </defs>
  <rect
     style="fill:url(#linearGradient16885);fill-opacity:1.0;stroke:none"
     id="rect184"
     width="21"
     height="21"
     x="1.5"
     y="1.5"
     ry="3.5" />
  <path
     d="m 7.3382521,19.327137 c 0,0 0.894153,0.259629 2.084302,0.408061 0.4820097,0.06012 2.3159659,0.270195 3.7221119,0.264695 0,0 1.712474,0.0016 2.657794,-0.132348 0.989151,-0.140514 1.549476,-0.319828 1.861305,-0.67769 0.0082,-0.08532 0.150531,-0.363461 -0.233963,-0.631657 -0.983319,-0.686656 -2.2533,-0.87332 -4.722263,-1.459978 -2.7294602,-0.686657 -3.5451139,-1.343314 -3.9526079,-1.818307 -0.386494,-0.476993 0.0725,-1.466811 2.2717999,-1.95247 1.113483,-0.270997 5.261421,-0.32083 5.261421,-0.32083 -1.189982,-0.944652 -3.424282,-2.63596 -3.880775,-2.995621 -0.400461,-0.3154627 -1.045818,-0.7995547 -1.11515,-1.2321483 -0.09358,-0.4211105 0.569275,-0.623874 0.920237,-0.6472575 1.130732,-0.077983 2.674792,0.054584 4.047272,0.3275285 0.689906,0.1371985 0.811021,0.1169815 0.811021,0.1169815 0.982569,0.0468 1.746808,-0.4678925 1.707809,-1.551893 -0.0078,-1.0995675 -1.107151,-1.9813045 -2.3238,-2.0198035 -1.145816,-0.036285 -3.969273,0.163764 -3.969273,0.163764 3.29095,0.678457 3.828943,0.851571 4.000606,1.247732 0.101666,0.234079 -0.169164,0.466659 -1.075817,0.421243 -0.987485,-0.0495 -3.010788,-0.288579 -3.010788,-0.288579 -1.925805,-0.296329 -3.2674519,-0.577075 -3.8524429,0.187164 -0.382112,0.4992925 0.0546,1.1074 0.226147,1.466062 0.764238,1.3335626 2.0858019,2.2484663 2.9242899,2.8931223 0.315528,0.242597 1.278897,0.77984 1.278897,0.77984 -2.9944562,-0.818822 -5.3807539,-0.358729 -6.8937309,0.43671 -1.738974,1.0294 -1.441562,2.766458 1.317897,4.390435 1.629893,0.959235 2.441298,1.419978 5.1099239,1.74764 1.55981,0.248713 1.79214,0.350478 1.780308,0.48031 -0.01674,0.182797 -1.84614,0.252062 -2.348966,0.286745 -1.279314,0.08823 -4.5879319,0.110282 -4.6044319,0.110282 z"
     style="opacity:0.2;fill:#000000;stroke-width:1.66664"
     id="path667" />
  <path
     d="m 7.3382521,18.327137 c 0,0 0.894153,0.25963 2.084302,0.408061 0.4820097,0.06012 2.3159659,0.270196 3.7221119,0.264696 0,0 1.712474,0.0016 2.657794,-0.132348 0.989152,-0.140514 1.549477,-0.319829 1.861305,-0.67769 0.0082,-0.08532 0.150532,-0.363461 -0.233962,-0.631658 -0.98332,-0.686656 -2.2533,-0.87332 -4.722264,-1.459977 -2.7294602,-0.686657 -3.5451139,-1.343314 -3.9526079,-1.818307 -0.386494,-0.476994 0.0725,-1.466812 2.2717999,-1.952471 1.113484,-0.270996 5.261422,-0.320829 5.261422,-0.320829 C 15.09817,11.061962 12.86387,9.3706533 12.407377,9.0109923 12.006916,8.69553 11.361559,8.2114374 11.292227,7.778844 11.198647,7.3577334 11.861502,7.15497 12.212463,7.1315865 c 1.130734,-0.077983 2.674794,0.054583 4.047274,0.3275284 0.689906,0.1371986 0.811021,0.1169816 0.811021,0.1169816 0.982569,0.0468 1.746807,-0.4678931 1.707809,-1.5518931 -0.0079,-1.099568 -1.107152,-1.9813042 -2.3238,-2.0198032 -1.145817,-0.036285 -3.969274,0.163764 -3.969274,0.163764 3.29095,0.6784562 3.828943,0.8515708 4.000606,1.2477313 C 16.587765,5.649975 16.316935,5.8825549 15.410283,5.837139 14.422797,5.787639 12.399493,5.54856 12.399493,5.54856 10.473689,5.2522314 9.1320421,4.9714854 8.5470511,5.735724 c -0.382112,0.4992924 0.0546,1.1073999 0.226147,1.4660614 0.764238,1.3335635 2.0858019,2.2484669 2.9242899,2.8931236 0.315528,0.242596 1.278897,0.779839 1.278897,0.779839 -2.9944562,-0.818821 -5.3807539,-0.358728 -6.8937319,0.43671 -1.738973,1.029401 -1.441562,2.766459 1.317898,4.390435 1.629893,0.959235 2.441297,1.419979 5.1099239,1.74764 1.55981,0.248714 1.79214,0.350479 1.780308,0.48031 -0.01673,0.182798 -1.84614,0.252063 -2.348966,0.286746 -1.279314,0.08823 -4.5879319,0.110282 -4.6044319,0.110282 z"
     style="fill:#ffffff;stroke-width:1.66664"
     id="path397"
     sodipodi:nodetypes="cscccccccccccccccccccccccccccccc" />
  <path
     id="rect2630"
     style="fill:#ffffff;fill-opacity:1;opacity:0.3"
     d="m 4.9999999,2 c -1.6619983,0 -3,1.3380017 -3,2.9999997 v 1 c 0,-1.661998 1.3380017,-3 3,-3 H 19 c 1.661998,0 3,1.338002 3,3 v -1 C 22,3.3380017 20.661998,2 19,2 Z" />
  <path
     id="rect398"
     style="opacity:0.3;fill:#ffffff"
     d="m 2,18 v 1 c 0,1.661998 1.3380017,3 3,3 h 14 c 1.661998,0 3,-1.338002 3,-3 v -1 c 0,1.661998 -1.338002,3 -3,3 H 5 C 3.3380017,21 2,19.661998 2,18 Z" />
  <path
     id="rect899"
     style="opacity:0.5;fill:#000000;stroke:none"
     d="M 5,1 C 2.7840022,1 1,2.7840022 1,5 v 14 c 0,2.215998 1.7840022,4 4,4 h 14 c 2.215998,0 4,-1.784002 4,-4 V 5 C 23,2.7840022 21.215998,1 19,1 Z m 0,1 h 14 c 1.661998,0 3,1.3380017 3,3 v 14 c 0,1.661998 -1.338002,3 -3,3 H 5 C 3.3380017,22 2,20.661998 2,19 V 5 C 2,3.3380017 3.3380017,2 5,2 Z" />
</svg>
