<?xml version="1.0" encoding="UTF-8" standalone="no"?>
<!-- Created with Inkscape (http://www.inkscape.org/) -->

<svg
   width="24"
   height="24"
   viewBox="0 0 24 24.000001"
   version="1.1"
   id="svg5"
   sodipodi:docname="firefox.svg"
   inkscape:version="1.2 (1:1.2+202206011326+fc4e4096c5)"
   xmlns:inkscape="http://www.inkscape.org/namespaces/inkscape"
   xmlns:sodipodi="http://sodipodi.sourceforge.net/DTD/sodipodi-0.dtd"
   xmlns:xlink="http://www.w3.org/1999/xlink"
   xmlns="http://www.w3.org/2000/svg"
   xmlns:svg="http://www.w3.org/2000/svg">
  <sodipodi:namedview
     id="namedview7"
     pagecolor="#ffffff"
     bordercolor="#666666"
     borderopacity="1.0"
     inkscape:showpageshadow="2"
     inkscape:pageopacity="0.0"
     inkscape:pagecheckerboard="0"
     inkscape:deskcolor="#d1d1d1"
     inkscape:document-units="px"
     showgrid="false"
     inkscape:zoom="24.513035"
     inkscape:cx="23.21214"
     inkscape:cy="15.828313"
     inkscape:window-width="1846"
     inkscape:window-height="1053"
     inkscape:window-x="0"
     inkscape:window-y="0"
     inkscape:window-maximized="1"
     inkscape:current-layer="svg5" />
  <defs
     id="defs2">
    <linearGradient
       inkscape:collect="always"
       id="linearGradient3523">
      <stop
         style="stop-color:#ff7139;stop-opacity:1;"
         offset="0"
         id="stop3519" />
      <stop
         style="stop-color:#ffb439;stop-opacity:1;"
         offset="1"
         id="stop3521" />
    </linearGradient>
    <linearGradient
       inkscape:collect="always"
       xlink:href="#linearGradient3523"
       id="linearGradient10386"
       x1="19"
       y1="23"
       x2="5"
       y2="1"
       gradientUnits="userSpaceOnUse" />
  </defs>
  <rect
     style="fill:url(#linearGradient10386);fill-opacity:1;stroke:none"
     id="rect184"
     width="21"
     height="21"
     x="1.5"
     y="1.5"
     ry="3.5" />
  <path
     id="rect2630"
     style="fill:#ffffff;fill-opacity:1;opacity:0.3"
     d="m 4.9999999,2 c -1.6619983,0 -3,1.3380017 -3,2.9999997 v 1 c 0,-1.661998 1.3380017,-3 3,-3 H 19 c 1.661998,0 3,1.338002 3,3 v -1 C 22,3.3380017 20.661998,2 19,2 Z" />
  <path
     id="rect398"
     style="opacity:0.3;fill:#ffffff"
     d="m 2,18 v 1 c 0,1.661998 1.3380017,3 3,3 h 14 c 1.661998,0 3,-1.338002 3,-3 v -1 c 0,1.661998 -1.338002,3 -3,3 H 5 C 3.3380017,21 2,19.661998 2,18 Z" />
  <path
     id="rect899"
     style="opacity:0.5;fill:#000000;stroke:none"
     d="M 5,1 C 2.7840022,1 1,2.7840022 1,5 v 14 c 0,2.215998 1.7840022,4 4,4 h 14 c 2.215998,0 4,-1.784002 4,-4 V 5 C 23,2.7840022 21.215998,1 19,1 Z m 0,1 h 14 c 1.661998,0 3,1.3380017 3,3 v 14 c 0,1.661998 -1.338002,3 -3,3 H 5 C 3.3380017,22 2,20.661998 2,19 V 5 C 2,3.3380017 3.3380017,2 5,2 Z" />
  <path
     d="m 10.085304,10.159258 c 0.0046,2.8e-4 0.0024,8.8e-5 0,0 z M 8.3973098,9.315377 c 0.0046,1.92e-4 0.0025,9.1e-5 0,0 z m 10.0983232,1.302994 c -0.304644,-0.732753 -0.921666,-1.5239 -1.406153,-1.773919 0.394334,0.772919 0.622562,1.548547 0.709772,2.127272 0,10e-4 3.5e-4,0.0039 0.0014,0.01166 -0.792607,-1.975519 -2.136579,-2.772208 -3.234179,-4.506605 -0.05542,-0.08773 -0.110978,-0.175644 -0.165112,-0.268334 -0.02758,-0.04733 -0.05332,-0.0957 -0.07717,-0.145016 -0.04549,-0.08799 -0.08058,-0.180978 -0.104563,-0.277084 3.5e-4,-0.0095 -0.0065,-0.0176 -0.01593,-0.0188 -0.0043,-0.0014 -0.0089,-0.0014 -0.01316,0 -10e-4,2.8e-4 -0.0024,0.0014 -0.0035,0.0018 -0.0014,7e-4 -0.0035,0.0021 -0.0051,0.0028 7e-4,-0.0011 0.0024,-0.0035 0.0028,-0.0039 -1.558581,0.912919 -2.204622,2.511048 -2.370725,3.528295 -0.481555,0.02737 -0.953253,0.147728 -1.389035,0.354462 -0.08209,0.04061 -0.120347,0.136595 -0.0887,0.222544 0.03384,0.09792 0.144554,0.145555 0.238935,0.102813 0.380208,-0.179396 0.790478,-0.286472 1.209862,-0.31576 0.01365,-0.0011 0.02734,-0.0018 0.04098,-0.0028 0.05761,-0.0035 0.115304,-0.0055 0.173019,-0.0062 0.340299,-0.0024 0.679144,0.04456 1.005988,0.139328 0.01908,0.0056 0.03777,0.01208 0.05676,0.01796 0.05428,0.01659 0.108147,0.03451 0.161557,0.05373 0.03907,0.01453 0.07789,0.02971 0.116431,0.04562 0.03133,0.01267 0.06265,0.0253 0.09351,0.03882 0.04815,0.02135 0.0958,0.04377 0.142919,0.06728 0.02167,0.01075 0.04332,0.02145 0.06466,0.03258 0.046,0.02415 0.09147,0.0493 0.136353,0.07545 0.02898,0.0168 0.05767,0.03409 0.0861,0.0518 0.507749,0.314122 0.929082,0.74998 1.225819,1.268082 -0.374297,-0.262938 -1.044459,-0.52261 -1.690122,-0.410318 2.521197,1.260408 1.844325,5.600791 -1.649232,5.436904 -0.311111,-0.01267 -0.618558,-0.07197 -0.912072,-0.175903 -0.06942,-0.02608 -0.138082,-0.05415 -0.205887,-0.08418 -0.03955,-0.01802 -0.07907,-0.03625 -0.118153,-0.05643 -0.8560132,-0.4424 -1.5628412,-1.278464 -1.6511572,-2.293757 0,0 0.323547,-1.205603 2.3167972,-1.205603 0.215485,0 0.831485,-0.601244 0.842919,-0.775632 -0.0024,-0.05696 -1.222581,-0.542209 -1.698172,-1.010801 -0.254159,-0.250397 -0.3748217,-0.371087 -0.4816592,-0.461678 -0.05799,-0.04896 -0.118598,-0.09472 -0.181563,-0.137084 C 9.5010918,9.708806 9.4942978,9.117201 9.6411998,8.554719 8.9211628,8.88261 8.3610748,9.400873 7.9539378,9.85847 h -0.0031 c -0.2779,-0.351953 -0.258269,-1.512964 -0.242431,-1.75537 -0.0035,-0.01505 -0.207288,0.105875 -0.234035,0.124075 -0.245189,0.175038 -0.474418,0.371413 -0.68501,0.586835 -0.239635,0.243005 -0.458588,0.505568 -0.654588,0.784963 0,3.5e-4 -1.92e-4,7e-4 -2.8e-4,10e-4 0,-3.5e-4 1.93e-4,-7e-4 2.8e-4,-10e-4 -0.450719,0.638785 -0.77036,1.360565 -0.94045,2.123629 -0.0018,0.0077 -0.06679,0.293241 -0.114334,0.645953 -0.008,0.05486 -0.01554,0.109802 -0.02244,0.164822 -0.01628,0.106049 -0.02895,0.221666 -0.04142,0.401538 -7e-4,0.007 -10e-4,0.01383 -0.0014,0.02076 -0.0052,0.0777 -0.0099,0.155429 -0.01403,0.233187 0,0.01197 -7e-4,0.0238 -7e-4,0.03578 0,3.870682 3.138335,7.008465 7.0094542,7.008465 3.466901,0 6.345477,-2.516736 6.909064,-5.822544 0.01187,-0.08969 0.02135,-0.1799 0.03185,-0.270375 0.139332,-1.20196 -0.01547,-2.465317 -0.45465,-3.521793 z"
     style="display:inline;opacity:0.2;fill:#000000;stroke-width:0.0291667;enable-background:new"
     id="path4039" />
  <path
     d="m 10.085304,9.158763 c 0.0046,2.8e-4 0.0024,8.8e-5 0,0 z M 8.3973098,8.314882 c 0.0046,1.92e-4 0.0025,9.1e-5 0,0 z M 18.495633,9.617876 c -0.304644,-0.732753 -0.921666,-1.5239 -1.406153,-1.773919 0.394334,0.772919 0.622562,1.548547 0.709772,2.127272 0,0.0011 3.5e-4,0.004 0.0014,0.01166 C 17.008045,8.007369 15.664073,7.210682 14.566473,5.476284 14.511053,5.388554 14.455495,5.30064 14.401361,5.20795 c -0.02758,-0.04733 -0.05332,-0.0957 -0.07717,-0.145016 -0.04549,-0.08799 -0.08058,-0.180978 -0.104563,-0.277084 3.5e-4,-0.0095 -0.0065,-0.0176 -0.01593,-0.0188 -0.0043,-0.0014 -0.0089,-0.0014 -0.01316,0 -10e-4,2.8e-4 -0.0024,0.0014 -0.0035,0.0018 -0.0014,7e-4 -0.0035,0.0021 -0.0051,0.0028 7e-4,-0.001 0.0024,-0.0035 0.0028,-0.004 -1.558581,0.912919 -2.204622,2.511047 -2.370725,3.528295 -0.481555,0.02737 -0.953253,0.147728 -1.389035,0.354462 -0.08209,0.04061 -0.120347,0.136595 -0.0887,0.222544 0.03384,0.09792 0.144554,0.145555 0.238935,0.102813 0.380208,-0.179396 0.790478,-0.286472 1.209862,-0.31576 0.01365,-0.001 0.02734,-0.0018 0.04098,-0.0028 0.05761,-0.0035 0.115304,-0.0056 0.173019,-0.0062 0.340299,-0.0024 0.679144,0.04456 1.005988,0.139328 0.01908,0.0056 0.03777,0.01207 0.05676,0.01796 0.05428,0.01659 0.108147,0.03451 0.161557,0.05373 0.03907,0.01452 0.07789,0.02971 0.116431,0.04562 0.03133,0.01267 0.06265,0.0253 0.09351,0.03882 0.04815,0.02135 0.0958,0.04377 0.142919,0.06728 0.02167,0.01075 0.04332,0.02145 0.06466,0.03259 0.046,0.02415 0.09147,0.0493 0.136353,0.07545 0.02898,0.0168 0.05767,0.03409 0.0861,0.0518 0.507749,0.314122 0.929082,0.74998 1.225819,1.268082 -0.374297,-0.262938 -1.044459,-0.52261 -1.690122,-0.410319 2.521197,1.260409 1.844325,5.600792 -1.649232,5.436904 -0.311111,-0.01267 -0.618558,-0.07197 -0.912072,-0.175903 -0.06942,-0.02607 -0.138082,-0.05414 -0.205887,-0.08417 -0.03955,-0.01803 -0.07907,-0.03625 -0.118153,-0.05643 -0.8560132,-0.4424 -1.5628412,-1.278463 -1.6511572,-2.293757 0,0 0.323547,-1.205603 2.3167972,-1.205603 0.215485,0 0.831485,-0.601244 0.842919,-0.775632 -0.0024,-0.05696 -1.222581,-0.542209 -1.698172,-1.0108 C 10.069933,9.615557 9.9492703,9.494867 9.8424328,9.404276 9.7844428,9.355316 9.7238348,9.309556 9.6608698,9.267192 9.5010918,8.708231 9.4942978,8.116626 9.6411998,7.554144 8.9211628,7.882034 8.3610748,8.400298 7.9539378,8.857895 h -0.0031 c -0.2779,-0.351953 -0.258269,-1.512964 -0.242431,-1.75537 -0.0035,-0.01505 -0.207288,0.105875 -0.234035,0.124075 -0.245189,0.175038 -0.474418,0.371413 -0.68501,0.586834 -0.239635,0.243006 -0.458588,0.505569 -0.654588,0.784964 0,3.5e-4 -1.92e-4,7e-4 -2.8e-4,0.0011 0,-3.5e-4 1.93e-4,-7e-4 2.8e-4,-0.0011 -0.450719,0.638785 -0.77036,1.360565 -0.94045,2.123628 -0.0018,0.0077 -0.06679,0.293242 -0.114334,0.645954 -0.008,0.05486 -0.01554,0.109802 -0.02244,0.164822 -0.01628,0.10605 -0.02895,0.221666 -0.04142,0.401538 -7e-4,0.0069 -10e-4,0.01383 -0.0014,0.02076 -0.0052,0.0777 -0.0099,0.155428 -0.01403,0.233186 0,0.01197 -7e-4,0.0238 -7e-4,0.03578 0,3.870682 3.138335,7.008463 7.0094542,7.008463 3.466901,0 6.345477,-2.516735 6.909064,-5.822544 0.01187,-0.08969 0.02135,-0.179901 0.03185,-0.270375 0.139332,-1.20196 -0.01547,-2.465317 -0.45465,-3.521792 z"
     style="display:inline;fill:#ffffff;stroke-width:0.0291667;enable-background:new"
     id="path606"
     sodipodi:nodetypes="ccccccccccccccccccccccccccccccccccccccccscccccccccccccccccccsscccc" />
</svg>
