<?xml version="1.0" encoding="UTF-8" standalone="no"?>
<!-- Created with Inkscape (http://www.inkscape.org/) -->

<svg
   width="24"
   height="24"
   viewBox="0 0 24 24.000001"
   version="1.1"
   id="svg5"
   sodipodi:docname="gmail.svg"
   inkscape:version="1.2.1 (9c6d41e410, 2022-07-14)"
   xmlns:inkscape="http://www.inkscape.org/namespaces/inkscape"
   xmlns:sodipodi="http://sodipodi.sourceforge.net/DTD/sodipodi-0.dtd"
   xmlns="http://www.w3.org/2000/svg"
   xmlns:svg="http://www.w3.org/2000/svg">
  <sodipodi:namedview
     id="namedview7"
     pagecolor="#ffffff"
     bordercolor="#666666"
     borderopacity="1.0"
     inkscape:showpageshadow="2"
     inkscape:pageopacity="0.0"
     inkscape:pagecheckerboard="0"
     inkscape:deskcolor="#d1d1d1"
     inkscape:document-units="px"
     showgrid="false"
     inkscape:zoom="33.333333"
     inkscape:cx="12"
     inkscape:cy="12"
     inkscape:window-width="1920"
     inkscape:window-height="1012"
     inkscape:window-x="0"
     inkscape:window-y="0"
     inkscape:window-maximized="1"
     inkscape:current-layer="svg5" />
  <defs
     id="defs2" />
  <rect
     style="fill:#f5f5f5;fill-opacity:1;stroke:none"
     id="rect184"
     width="21"
     height="21"
     x="1.5"
     y="1.5"
     ry="3.5" />
  <path
     id="path523"
     style="fill:#4285f4;stroke-width:0.375"
     d="m 5,8.150391 v 7.827378 c 0,0.564918 0.4528012,1.022462 1.0122067,1.022462 H 8 v -6.577868 z"
     sodipodi:nodetypes="cssccc" />
  <path
     d="M 6.9299998,10.09676 7.7150878,6.5251462 12,9.7207455 16.284912,6.5251462 17.07,10.09676 12,13.879255 Z"
     style="fill:#ea4335;stroke-width:0.375"
     id="path1021"
     sodipodi:nodetypes="ccccccc" />
  <path
     id="path391"
     style="fill:#34a853;stroke-width:0.375"
     d="m 19,8.150391 -3,2.271972 v 6.577868 h 1.987793 C 18.547198,17.000231 19,16.542686 19,15.977769 Z"
     sodipodi:nodetypes="cccssc" />
  <path
     id="path424"
     style="fill:#fbbc04;stroke-width:0.375"
     d="m 17.475098,6 c -0.307946,6.7e-6 -0.623595,0.0958 -0.905274,0.3090817 L 16,6.7412107 V 10.898437 L 19,8.626465 V 7.536621 C 19,6.6284025 18.262068,5.9999827 17.475098,6 Z" />
  <path
     id="path490"
     style="fill:#c5221f;stroke-width:0.375"
     d="M 6.5249022,6 C 5.737931,5.9999827 5,6.6284025 5,7.536621 v 1.09046 l 3,2.271972 V 6.7412107 L 7.4301755,6.3090817 C 7.1484958,6.0957997 6.8328477,6.0000067 6.5249022,6 Z"
     sodipodi:nodetypes="ssccccs" />
  <path
     id="rect2630"
     style="fill:#ffffff;fill-opacity:1;opacity:0.3"
     d="m 4.9999999,2 c -1.6619983,0 -3,1.3380017 -3,2.9999997 v 1 c 0,-1.661998 1.3380017,-3 3,-3 H 19 c 1.661998,0 3,1.338002 3,3 v -1 C 22,3.3380017 20.661998,2 19,2 Z" />
  <path
     id="rect398"
     style="opacity:0.3;fill:#ffffff"
     d="m 2,18 v 1 c 0,1.661998 1.3380017,3 3,3 h 14 c 1.661998,0 3,-1.338002 3,-3 v -1 c 0,1.661998 -1.338002,3 -3,3 H 5 C 3.3380017,21 2,19.661998 2,18 Z" />
  <path
     id="rect899"
     style="opacity:0.5;fill:#000000;stroke:none"
     d="M 5,1 C 2.7840022,1 1,2.7840022 1,5 v 14 c 0,2.215998 1.7840022,4 4,4 h 14 c 2.215998,0 4,-1.784002 4,-4 V 5 C 23,2.7840022 21.215998,1 19,1 Z m 0,1 h 14 c 1.661998,0 3,1.3380017 3,3 v 14 c 0,1.661998 -1.338002,3 -3,3 H 5 C 3.3380017,22 2,20.661998 2,19 V 5 C 2,3.3380017 3.3380017,2 5,2 Z" />
</svg>
