<?xml version="1.0" encoding="UTF-8" standalone="no"?>
<!-- Created with Inkscape (http://www.inkscape.org/) -->

<svg
   width="24"
   height="24"
   viewBox="0 0 24 24.000001"
   version="1.1"
   id="svg5"
   sodipodi:docname="gnome-boxes.svg"
   inkscape:version="1.2.1 (9c6d41e410, 2022-07-14)"
   xmlns:inkscape="http://www.inkscape.org/namespaces/inkscape"
   xmlns:sodipodi="http://sodipodi.sourceforge.net/DTD/sodipodi-0.dtd"
   xmlns:xlink="http://www.w3.org/1999/xlink"
   xmlns="http://www.w3.org/2000/svg"
   xmlns:svg="http://www.w3.org/2000/svg">
  <sodipodi:namedview
     id="namedview7"
     pagecolor="#ffffff"
     bordercolor="#666666"
     borderopacity="1.0"
     inkscape:showpageshadow="2"
     inkscape:pageopacity="0.0"
     inkscape:pagecheckerboard="0"
     inkscape:deskcolor="#d1d1d1"
     inkscape:document-units="px"
     showgrid="false"
     inkscape:zoom="24.513036"
     inkscape:cx="5.2421087"
     inkscape:cy="14.196528"
     inkscape:window-width="1920"
     inkscape:window-height="1002"
     inkscape:window-x="0"
     inkscape:window-y="0"
     inkscape:window-maximized="1"
     inkscape:current-layer="svg5" />
  <defs
     id="defs2">
    <linearGradient
       inkscape:collect="always"
       xlink:href="#4852"
       id="linearGradient10386"
       x1="19"
       y1="23"
       x2="5"
       y2="1"
       gradientUnits="userSpaceOnUse" />
    <linearGradient
       inkscape:collect="always"
       id="4852">
      <stop
         style="stop-color:#333333;stop-opacity:1"
         offset="0"
         id="stop14555" />
      <stop
         style="stop-color:#666666;stop-opacity:1"
         offset="1"
         id="stop14557" />
    </linearGradient>
  </defs>
  <rect
     style="fill:url(#linearGradient10386);fill-opacity:1.0;stroke:none"
     id="rect184"
     width="21"
     height="21"
     x="1.5"
     y="1.5"
     ry="3.5" />
  <path
     d="M 6.5,6 C 5.67157,6 5,6.67157 5,7.5000001 c 0.002,0.63418 0.40208,1.19876 1,1.41016 v 8.1796809 c -0.59792,0.2114 -0.99829,0.77598 -1,1.41016 0,0.82843 0.67157,1.5 1.5,1.5 0.63419,-0.002 1.19876,-0.40208 1.41016,-1 h 8.17968 c 0.2114,0.59792 0.77597,0.99829 1.41016,1 0.82843,0 1.5,-0.67157 1.5,-1.5 -6e-5,-0.63562 -0.40073,-1.20219 -1,-1.41406 V 8.9101601 c 0.59792,-0.21139 0.99829,-0.77597 1,-1.41016 C 19,6.67157 18.32843,6 17.5,6 16.86582,6.002 16.30124,6.40208 16.08984,7.0000001 H 7.91406 C 7.70219,6.40073 7.13562,6.00006 6.5,6 Z m 1.41016,2.0000001 h 8.17968 c 0.0446,0.12538 0.10569,0.24426 0.18165,0.35352 L 14.53711,10.08789 C 14.37861,9.9930902 14.19509,9.9375002 14,9.9375002 c -0.49373,0 -0.91873,0.3501798 -1.0332,0.8124998 H 11.0332 C 10.91873,10.28768 10.49373,9.9375002 10,9.9375002 c -0.19509,0 -0.37861,0.0556 -0.53711,0.1503898 L 7.72851,8.3535201 c 0.076,-0.10926 0.13705,-0.22814 0.18165,-0.35352 z M 7.35351,8.7285201 9.08789,10.46289 C 8.99309,10.6214 8.9375,10.80491 8.9375,11 c 0,0.49373 0.35018,0.91873 0.8125,1.0332 v 1.933601 c -0.46232,0.11447 -0.8125,0.53948 -0.8125,1.0332 0,0.19509 0.0556,0.3786 0.15039,0.53711 l -1.73242,1.73242 C 7.24571,17.192731 7.12616,17.130991 7,17.085941 V 8.9101601 c 0.12537,-0.0446 0.24426,-0.10568 0.35351,-0.18164 z m 9.29298,0 c 0.10926,0.076 0.22814,0.13704 0.35351,0.18164 v 8.1796809 c -0.12537,0.0446 -0.24425,0.10569 -0.35351,0.18165 l -1.73438,-1.73438 c 0.0948,-0.15851 0.15039,-0.34202 0.15039,-0.53711 0,-0.49372 -0.35018,-0.91873 -0.8125,-1.0332 V 12.0332 c 0.46232,-0.11447 0.8125,-0.53947 0.8125,-1.0332 0,-0.19509 -0.0556,-0.3786 -0.15039,-0.53711 z M 11.0332,11.25 h 1.9336 c 0.0946,0.38218 0.40102,0.68857 0.7832,0.7832 v 1.933601 c -0.38218,0.0946 -0.68857,0.40102 -0.7832,0.7832 h -1.9336 c -0.0946,-0.38218 -0.40102,-0.68857 -0.7832,-0.7832 V 12.0332 c 0.38218,-0.0946 0.68857,-0.40102 0.7832,-0.7832 z m 0,4.000001 h 1.9336 c 0.11447,0.46232 0.53947,0.8125 1.0332,0.8125 0.19509,0 0.37861,-0.0556 0.53711,-0.15039 l 1.73438,1.73438 c -0.076,0.10926 -0.13705,0.22814 -0.18165,0.35351 H 7.91406 c -0.0451,-0.12616 -0.10679,-0.24571 -0.18359,-0.35547 l 1.73242,-1.73242 c 0.1585,0.0948 0.34202,0.15039 0.53711,0.15039 0.49373,0 0.91873,-0.35018 1.0332,-0.8125 z"
     style="color:#000000;display:inline;overflow:visible;visibility:visible;fill:#000000;fill-opacity:1;fill-rule:nonzero;stroke:none;stroke-width:0.5;marker:none;enable-background:new;opacity:0.2"
     id="path1124" />
  <path
     d="M 6.5,5 C 5.67157,5 5,5.67157 5,6.5 5.002,7.13418 5.40208,7.69876 6,7.91016 v 8.17968 C 5.40208,16.30124 5.00171,16.86582 5,17.5 5,18.32843 5.67157,19 6.5,19 7.13419,18.998 7.69876,18.59792 7.91016,18 h 8.17968 c 0.2114,0.59792 0.77597,0.99829 1.41016,1 0.82843,0 1.5,-0.67157 1.5,-1.5 -6e-5,-0.63562 -0.40073,-1.20219 -1,-1.41406 V 7.91016 C 18.59792,7.69877 18.99829,7.13419 19,6.5 19,5.67157 18.32843,5 17.5,5 16.86582,5.002 16.30124,5.40208 16.08984,6 H 7.91406 C 7.70219,5.40073 7.13562,5.00006 6.5,5 Z m 1.41016,2 h 8.17968 c 0.0446,0.12538 0.10569,0.24426 0.18165,0.35352 L 14.53711,9.08789 C 14.37861,8.99309 14.19509,8.9375 14,8.9375 c -0.49373,0 -0.91873,0.35018 -1.0332,0.8125 H 11.0332 C 10.91873,9.28768 10.49373,8.9375 10,8.9375 9.80491,8.9375 9.62139,8.9931 9.46289,9.08789 L 7.72851,7.35352 C 7.80451,7.24426 7.86556,7.12538 7.91016,7 Z M 7.35351,7.72852 9.08789,9.46289 C 8.99309,9.6214 8.9375,9.80491 8.9375,10 c 0,0.49373 0.35018,0.91873 0.8125,1.0332 v 1.9336 C 9.28768,13.08127 8.9375,13.50628 8.9375,14 c 0,0.19509 0.0556,0.3786 0.15039,0.53711 L 7.35547,16.26953 C 7.24571,16.19273 7.12616,16.13099 7,16.08594 V 7.91016 C 7.12537,7.86556 7.24426,7.80448 7.35351,7.72852 Z m 9.29298,0 C 16.75575,7.80452 16.87463,7.86556 17,7.91016 v 8.17968 c -0.12537,0.0446 -0.24425,0.10569 -0.35351,0.18165 L 14.91211,14.53711 C 15.00691,14.3786 15.0625,14.19509 15.0625,14 c 0,-0.49372 -0.35018,-0.91873 -0.8125,-1.0332 v -1.9336 c 0.46232,-0.11447 0.8125,-0.53947 0.8125,-1.0332 0,-0.19509 -0.0556,-0.3786 -0.15039,-0.53711 z M 11.0332,10.25 h 1.9336 c 0.0946,0.38218 0.40102,0.68857 0.7832,0.7832 v 1.9336 c -0.38218,0.0946 -0.68857,0.40102 -0.7832,0.7832 H 11.0332 C 10.9386,13.36782 10.63218,13.06143 10.25,12.9668 v -1.9336 c 0.38218,-0.0946 0.68857,-0.40102 0.7832,-0.7832 z m 0,4 h 1.9336 c 0.11447,0.46232 0.53947,0.8125 1.0332,0.8125 0.19509,0 0.37861,-0.0556 0.53711,-0.15039 l 1.73438,1.73438 C 16.19549,16.75575 16.13444,16.87463 16.08984,17 H 7.91406 C 7.86896,16.87384 7.80727,16.75429 7.73047,16.64453 l 1.73242,-1.73242 c 0.1585,0.0948 0.34202,0.15039 0.53711,0.15039 0.49373,0 0.91873,-0.35018 1.0332,-0.8125 z"
     style="color:#000000;display:inline;overflow:visible;visibility:visible;fill:#ffffff;fill-opacity:1;fill-rule:nonzero;stroke:none;stroke-width:0.5;marker:none;enable-background:new"
     id="path906"
     sodipodi:nodetypes="cccccccccccccccccccccsccscccccsccsccccccccccsccscccccccccccccsccccccsc" />
  <path
     id="rect2630"
     style="fill:#ffffff;fill-opacity:1;opacity:0.3"
     d="m 4.9999999,2 c -1.6619983,0 -3,1.3380017 -3,2.9999997 v 1 c 0,-1.661998 1.3380017,-3 3,-3 H 19 c 1.661998,0 3,1.338002 3,3 v -1 C 22,3.3380017 20.661998,2 19,2 Z" />
  <path
     id="rect398"
     style="opacity:0.3;fill:#ffffff"
     d="m 2,18 v 1 c 0,1.661998 1.3380017,3 3,3 h 14 c 1.661998,0 3,-1.338002 3,-3 v -1 c 0,1.661998 -1.338002,3 -3,3 H 5 C 3.3380017,21 2,19.661998 2,18 Z" />
  <path
     id="rect899"
     style="opacity:0.5;fill:#000000;stroke:none"
     d="M 5,1 C 2.7840022,1 1,2.7840022 1,5 v 14 c 0,2.215998 1.7840022,4 4,4 h 14 c 2.215998,0 4,-1.784002 4,-4 V 5 C 23,2.7840022 21.215998,1 19,1 Z m 0,1 h 14 c 1.661998,0 3,1.3380017 3,3 v 14 c 0,1.661998 -1.338002,3 -3,3 H 5 C 3.3380017,22 2,20.661998 2,19 V 5 C 2,3.3380017 3.3380017,2 5,2 Z" />
</svg>
