<?xml version="1.0" encoding="UTF-8" standalone="no"?>
<!-- Created with Inkscape (http://www.inkscape.org/) -->

<svg
   width="24"
   height="24"
   viewBox="0 0 24 24.000001"
   version="1.1"
   id="svg5"
   sodipodi:docname="google-drive.svg"
   inkscape:version="1.2.1 (9c6d41e410, 2022-07-14)"
   xmlns:inkscape="http://www.inkscape.org/namespaces/inkscape"
   xmlns:sodipodi="http://sodipodi.sourceforge.net/DTD/sodipodi-0.dtd"
   xmlns="http://www.w3.org/2000/svg"
   xmlns:svg="http://www.w3.org/2000/svg">
  <sodipodi:namedview
     id="namedview7"
     pagecolor="#ffffff"
     bordercolor="#666666"
     borderopacity="1.0"
     inkscape:showpageshadow="2"
     inkscape:pageopacity="0.0"
     inkscape:pagecheckerboard="0"
     inkscape:deskcolor="#d1d1d1"
     inkscape:document-units="px"
     showgrid="false"
     inkscape:zoom="33"
     inkscape:cx="11.984848"
     inkscape:cy="12"
     inkscape:window-width="1920"
     inkscape:window-height="1007"
     inkscape:window-x="0"
     inkscape:window-y="0"
     inkscape:window-maximized="1"
     inkscape:current-layer="svg5" />
  <defs
     id="defs2" />
  <rect
     style="fill:#f5f5f5;fill-opacity:1;stroke:none"
     id="rect184"
     width="21"
     height="21"
     x="1.5"
     y="1.5"
     ry="3.5" />
  <path
     inkscape:connector-curvature="0"
     d="m 5.2096223,17.251999 0.7056128,1.218786 c 0.1466212,0.256586 0.357387,0.45819 0.6048112,0.604812 L 9.0400927,14.713631 H 4 c 0,0.28408 0.073313,0.568153 0.2199331,0.82474 z"
     id="path2-0"
     style="fill:#0066da;stroke-width:0.183274" />
  <path
     inkscape:connector-curvature="0"
     d="M 12,9.581902 9.4799537,5.2199317 C 9.2325307,5.3665423 9.0217637,5.5681574 8.8751433,5.824742 l -4.655212,8.064145 a 1.6604811,1.6604811 0 0 0 -0.2199282,0.824744 h 5.0400926 z"
     id="path4-3"
     style="fill:#00ac47;stroke-width:0.183274" />
  <path
     inkscape:connector-curvature="0"
     d="m 17.479955,19.075597 c 0.247424,-0.146608 0.458191,-0.348224 0.604811,-0.604812 l 0.293241,-0.504009 1.402062,-2.428405 C 19.926695,15.281785 20,14.997708 20,14.713631 h -5.040457 l 1.072531,2.107673 z"
     id="path6-0"
     style="fill:#ea4335;stroke-width:0.183274" />
  <path
     inkscape:connector-curvature="0"
     d="M 12,9.581902 14.520045,5.2199317 C 14.272622,5.0733113 13.988545,5 13.695303,5 H 10.304696 C 10.011456,5 9.7273767,5.082479 9.4799537,5.2199333 Z"
     id="path8-4"
     style="fill:#00832d;stroke-width:0.183274" />
  <path
     inkscape:connector-curvature="0"
     d="M 14.959909,14.713631 H 9.0400927 l -2.5200464,4.361966 c 0.247423,0.146626 0.5315003,0.219934 0.8247418,0.219934 h 9.3104239 c 0.29324,0 0.577319,-0.08249 0.824743,-0.219934 z"
     id="path10-4"
     style="fill:#2684fc;stroke-width:0.183274" />
  <path
     inkscape:connector-curvature="0"
     d="M 17.452462,9.856816 15.124855,5.824742 C 14.978244,5.5681553 14.767469,5.3665517 14.520045,5.2199313 L 12,9.581902 l 2.959909,5.131729 h 5.030927 c 0,-0.284079 -0.0733,-0.568158 -0.219928,-0.824744 z"
     id="path12"
     style="fill:#ffba00;stroke-width:0.183274" />
  <path
     id="rect2630"
     style="fill:#ffffff;fill-opacity:1;opacity:0.3"
     d="m 4.9999999,2 c -1.6619983,0 -3,1.3380017 -3,2.9999997 v 1 c 0,-1.661998 1.3380017,-3 3,-3 H 19 c 1.661998,0 3,1.338002 3,3 v -1 C 22,3.3380017 20.661998,2 19,2 Z" />
  <path
     id="rect398"
     style="opacity:0.3;fill:#ffffff"
     d="m 2,18 v 1 c 0,1.661998 1.3380017,3 3,3 h 14 c 1.661998,0 3,-1.338002 3,-3 v -1 c 0,1.661998 -1.338002,3 -3,3 H 5 C 3.3380017,21 2,19.661998 2,18 Z" />
  <path
     id="rect899"
     style="opacity:0.5;fill:#000000;stroke:none"
     d="M 5,1 C 2.7840022,1 1,2.7840022 1,5 v 14 c 0,2.215998 1.7840022,4 4,4 h 14 c 2.215998,0 4,-1.784002 4,-4 V 5 C 23,2.7840022 21.215998,1 19,1 Z m 0,1 h 14 c 1.661998,0 3,1.3380017 3,3 v 14 c 0,1.661998 -1.338002,3 -3,3 H 5 C 3.3380017,22 2,20.661998 2,19 V 5 C 2,3.3380017 3.3380017,2 5,2 Z" />
</svg>
