<?xml version="1.0" encoding="UTF-8" standalone="no"?>
<!-- Created with Inkscape (http://www.inkscape.org/) -->

<svg
   width="24"
   height="24"
   viewBox="0 0 24 24.000001"
   version="1.1"
   id="svg5"
   sodipodi:docname="gthumb.svg"
   inkscape:version="1.2.1 (9c6d41e410, 2022-07-14)"
   xmlns:inkscape="http://www.inkscape.org/namespaces/inkscape"
   xmlns:sodipodi="http://sodipodi.sourceforge.net/DTD/sodipodi-0.dtd"
   xmlns:xlink="http://www.w3.org/1999/xlink"
   xmlns="http://www.w3.org/2000/svg"
   xmlns:svg="http://www.w3.org/2000/svg">
  <sodipodi:namedview
     id="namedview7"
     pagecolor="#ffffff"
     bordercolor="#666666"
     borderopacity="1.0"
     inkscape:showpageshadow="2"
     inkscape:pageopacity="0.0"
     inkscape:pagecheckerboard="0"
     inkscape:deskcolor="#d1d1d1"
     inkscape:document-units="px"
     showgrid="false"
     inkscape:zoom="33"
     inkscape:cx="12"
     inkscape:cy="12"
     inkscape:window-width="1920"
     inkscape:window-height="1007"
     inkscape:window-x="0"
     inkscape:window-y="0"
     inkscape:window-maximized="1"
     inkscape:current-layer="svg5" />
  <defs
     id="defs2">
    <linearGradient
       inkscape:collect="always"
       id="linearGradient3796">
      <stop
         style="stop-color:#ff7010;stop-opacity:1;"
         offset="0"
         id="stop3792" />
      <stop
         style="stop-color:#ff9a10;stop-opacity:1;"
         offset="1"
         id="stop3794" />
    </linearGradient>
    <linearGradient
       inkscape:collect="always"
       id="linearGradient2287">
      <stop
         style="stop-color:#8e9529;stop-opacity:1;"
         offset="0"
         id="stop2283" />
      <stop
         style="stop-color:#bbc236;stop-opacity:1;"
         offset="1"
         id="stop2285" />
    </linearGradient>
    <linearGradient
       inkscape:collect="always"
       id="linearGradient1555">
      <stop
         style="stop-color:#eac045;stop-opacity:1;"
         offset="0"
         id="stop1551" />
      <stop
         style="stop-color:#a2d2f9;stop-opacity:1;"
         offset="1"
         id="stop1553" />
    </linearGradient>
    <linearGradient
       inkscape:collect="always"
       xlink:href="#linearGradient1555"
       id="linearGradient10386"
       x1="12"
       y1="23"
       x2="12"
       y2="1"
       gradientUnits="userSpaceOnUse" />
    <linearGradient
       inkscape:collect="always"
       xlink:href="#linearGradient2287"
       id="linearGradient2289"
       x1="20"
       y1="18"
       x2="20"
       y2="5"
       gradientUnits="userSpaceOnUse" />
    <linearGradient
       inkscape:collect="always"
       xlink:href="#linearGradient3796"
       id="linearGradient3798"
       x1="19"
       y1="18"
       x2="19"
       y2="5"
       gradientUnits="userSpaceOnUse" />
  </defs>
  <rect
     style="fill:url(#linearGradient10386);fill-opacity:1;stroke:none"
     id="rect184"
     width="21"
     height="21"
     x="1.5"
     y="1.5"
     ry="3.5" />
  <path
     d="M 8.9632074,6.0006136 C 7.0300679,6.0378876 5.356781,7.7722553 6.3210014,11.531314 4.631735,11.859282 3.347775,13.75941 4.356071,17.543964 c 2.2471169,-2.29632 2.7516124,-0.793562 4.5353564,-1.149851 0.44613,0.907495 1.4226776,1.842968 3.1178136,2.605888 0.24559,-0.681935 1.28167,-1.707243 1.966884,-2.730197 1.956433,0.89122 2.898902,-0.52989 4.830778,2.285438 1.993059,-3.222959 1.230569,-5.322257 -0.397478,-6.14409 C 19.9093,8.1061307 15.536681,6.3781815 12.366679,7.9396194 11.550177,6.6550097 10.205885,5.9766515 8.9632074,6.0006136 Z m -0.123052,4.5296104 c 0.501948,0.01646 0.9626505,0.179741 1.5557326,0.189011 2.192776,1.8248 3.361628,1.296638 4.619833,1.607346 -0.58806,0.218698 -1.154612,0.55397 -1.651928,1.015355 -0.456733,-0.176408 -1.058769,-0.318452 -1.837973,-0.416739 -0.611671,-0.07716 -1.16741,0.01997 -1.6280011,0.240975 -0.832486,-1.148178 -2.053149,-1.736237 -3.1710385,-1.684276 0.928747,-0.795942 1.5496625,-0.970156 2.113375,-0.951672 z"
     style="fill:#000000;fill-rule:evenodd;opacity:0.2"
     id="path833" />
  <path
     d="m 8.9632074,5.0006136 c -1.9331395,0.037274 -3.606426,1.7716416 -2.642206,5.5307004 -1.6892665,0.327968 -2.9732266,2.228095 -1.9649306,6.012649 2.2471171,-2.29632 2.7516126,-0.793562 4.5353566,-1.149851 0.44613,0.907495 1.4226776,1.842968 3.1178136,2.605888 0.24559,-0.681935 1.28167,-1.707243 1.966884,-2.730197 1.956433,0.89122 2.898902,-0.52989 4.830778,2.285438 1.993059,-3.222959 1.230569,-5.322257 -0.397478,-6.144089 C 19.9093,7.1061306 15.536681,5.3781815 12.366679,6.9396193 11.550177,5.6550097 10.205885,4.9766515 8.9632074,5.0006136 Z M 8.8401554,9.530224 c 0.501948,0.01646 0.9626505,0.179741 1.5557326,0.189011 2.192776,1.8248 3.361628,1.296638 4.619833,1.607346 -0.58806,0.218698 -1.154612,0.55397 -1.651928,1.015354 -0.456733,-0.176408 -1.058769,-0.318452 -1.837973,-0.416738 -0.611671,-0.07716 -1.16741,0.01997 -1.6280011,0.240974 C 9.0653329,11.017994 7.8446699,10.429935 6.7267804,10.481896 7.6555274,9.685954 8.2764429,9.51174 8.8401554,9.530224 Z"
     style="fill:url(#linearGradient2289);fill-rule:evenodd;fill-opacity:1"
     id="path467"
     sodipodi:nodetypes="sccccccccssccccccs" />
  <path
     d="M 15.396545,18.952969 C 14.664997,19.4548 12.783461,15.791207 11.465929,15.073013 10.029356,15.425228 8.2619477,18.397644 7.538982,17.853975 6.7121742,17.232217 7.7274454,13.398369 8.2035413,12.560058 8.8171509,11.479615 4.6712801,11.394145 5.0209821,10.479954 5.3659791,9.5780467 8.7692751,8.7451205 9.840903,8.58964 10.229534,7.5180464 11.23619,5.8307472 12.613242,6.0137336 c 1.377055,0.182987 2.144922,2.2526432 2.430945,3.3141166 1.431007,0.2529203 3.775634,1.2564008 3.951325,2.2269288 0.173327,0.957478 -4.734593,0.791535 -4.109262,1.902128 0.456521,0.810791 1.058134,4.961654 0.510294,5.496062 z"
     style="fill:#000000;fill-opacity:1;opacity:0.2"
     id="path3808" />
  <path
     d="M 15.396545,17.952968 C 14.664997,18.454799 12.783461,14.791206 11.465929,14.073012 10.029356,14.425227 8.2619476,17.397643 7.5389819,16.853974 6.7121741,16.232216 7.7274453,12.398368 8.2035412,11.560058 8.8171508,10.479615 4.6712803,10.394145 5.0209816,9.4799538 5.3659789,8.5780465 8.769275,7.7451204 9.8409029,7.5896399 10.229534,6.5180463 11.23619,4.8307472 12.613242,5.0137336 c 1.377055,0.182987 2.144922,2.2526431 2.430945,3.3141165 1.431007,0.2529202 3.775634,1.2564009 3.951325,2.2269289 0.173327,0.957478 -4.734593,0.791535 -4.109262,1.902127 0.456521,0.810791 1.058134,4.961654 0.510294,5.496062 z"
     style="fill:url(#linearGradient3798);fill-opacity:1"
     id="path866"
     sodipodi:nodetypes="scssccscssss" />
  <path
     id="rect2630"
     style="fill:#ffffff;fill-opacity:1;opacity:0.3"
     d="m 4.9999999,2 c -1.6619983,0 -3,1.3380017 -3,2.9999997 v 1 c 0,-1.661998 1.3380017,-3 3,-3 H 19 c 1.661998,0 3,1.338002 3,3 v -1 C 22,3.3380017 20.661998,2 19,2 Z" />
  <path
     id="rect398"
     style="opacity:0.3;fill:#ffffff"
     d="m 2,18 v 1 c 0,1.661998 1.3380017,3 3,3 h 14 c 1.661998,0 3,-1.338002 3,-3 v -1 c 0,1.661998 -1.338002,3 -3,3 H 5 C 3.3380017,21 2,19.661998 2,18 Z" />
  <path
     id="rect899"
     style="opacity:0.5;fill:#000000;stroke:none"
     d="M 5,1 C 2.7840022,1 1,2.7840022 1,5 v 14 c 0,2.215998 1.7840022,4 4,4 h 14 c 2.215998,0 4,-1.784002 4,-4 V 5 C 23,2.7840022 21.215998,1 19,1 Z m 0,1 h 14 c 1.661998,0 3,1.3380017 3,3 v 14 c 0,1.661998 -1.338002,3 -3,3 H 5 C 3.3380017,22 2,20.661998 2,19 V 5 C 2,3.3380017 3.3380017,2 5,2 Z" />
  <ellipse
     style="opacity:0.2;fill:#000000;fill-opacity:1;stroke-width:2;stroke-linecap:round;stroke-linejoin:round"
     id="path3887"
     cx="11.5"
     cy="10"
     rx="2.5"
     ry="2" />
  <path
     d="m 11.316524,6.7810641 c -0.06905,-0.00219 -0.126782,0.052043 -0.128906,0.1210938 l -0.105469,3.09375 c -0.0022,0.069048 0.05204,0.1267821 0.121094,0.1289061 0.06905,0.0022 0.126782,-0.05204 0.128906,-0.121094 l 0.105469,-3.0937497 c 0.0022,-0.069049 -0.05204,-0.1267823 -0.121094,-0.1289062 z M 13.03918,8.622861 c -0.0507,-0.00233 -0.09778,0.026223 -0.11914,0.072266 l -1.033203,2.251953 c -0.0291,0.06256 -0.002,0.136872 0.06055,0.166015 0.06256,0.0291 0.136872,0.002 0.166015,-0.06055 l 1.033203,-2.2519523 c 0.0291,-0.062564 0.002,-0.1368724 -0.06055,-0.1660156 -0.01471,-0.00692 -0.03064,-0.010898 -0.04688,-0.011719 z M 9.5255092,9.1580172 c -0.022018,2.522e-4 -0.043578,0.00632 -0.0625,0.017578 -0.059698,0.03411 -0.080642,0.1100289 -0.046875,0.1699219 l 0.9746088,1.7167969 c 0.03416,0.06087 0.111545,0.08198 0.171875,0.04687 0.06087,-0.03416 0.08198,-0.111544 0.04687,-0.171875 L 9.6329311,9.2224703 c -0.016171,-0.029642 -0.043646,-0.051481 -0.076172,-0.060547 -0.01021,-0.00261 -0.02071,-0.00393 -0.03125,-0.00391 z"
     style="color:#000000;fill:#ffffe0;stroke-linecap:round;-inkscape-stroke:none"
     id="path5727" />
</svg>
