<?xml version="1.0" encoding="UTF-8" standalone="no"?>
<!-- Created with Inkscape (http://www.inkscape.org/) -->

<svg
   width="24"
   height="24"
   viewBox="0 0 24 24.000001"
   version="1.1"
   id="svg5"
   sodipodi:docname="help-browser.svg"
   inkscape:version="1.2.1 (9c6d41e410, 2022-07-14)"
   xmlns:inkscape="http://www.inkscape.org/namespaces/inkscape"
   xmlns:sodipodi="http://sodipodi.sourceforge.net/DTD/sodipodi-0.dtd"
   xmlns:xlink="http://www.w3.org/1999/xlink"
   xmlns="http://www.w3.org/2000/svg"
   xmlns:svg="http://www.w3.org/2000/svg">
  <sodipodi:namedview
     id="namedview7"
     pagecolor="#ffffff"
     bordercolor="#666666"
     borderopacity="1.0"
     inkscape:showpageshadow="2"
     inkscape:pageopacity="0.0"
     inkscape:pagecheckerboard="0"
     inkscape:deskcolor="#d1d1d1"
     inkscape:document-units="px"
     showgrid="false"
     inkscape:zoom="33.125"
     inkscape:cx="11.984906"
     inkscape:cy="12"
     inkscape:window-width="1920"
     inkscape:window-height="1007"
     inkscape:window-x="0"
     inkscape:window-y="0"
     inkscape:window-maximized="1"
     inkscape:current-layer="svg5" />
  <defs
     id="defs2">
    <linearGradient
       inkscape:collect="always"
       xlink:href="#linearGradient21236"
       id="linearGradient10386"
       x1="19"
       y1="23"
       x2="5"
       y2="1"
       gradientUnits="userSpaceOnUse" />
    <linearGradient
       inkscape:collect="always"
       id="linearGradient21236">
      <stop
         style="stop-color:#3689e6;stop-opacity:1;"
         offset="0"
         id="stop21232" />
      <stop
         style="stop-color:#5dcffc;stop-opacity:1;"
         offset="1"
         id="stop21234" />
    </linearGradient>
  </defs>
  <rect
     style="fill:url(#linearGradient10386);fill-opacity:1;stroke:none"
     id="rect184"
     width="21"
     height="21"
     x="1.5"
     y="1.5"
     ry="3.5" />
  <path
     id="path1273"
     style="font-size:7.8202px;line-height:1.25;font-family:'Google Sans';-inkscape-font-specification:'Google Sans';opacity:0.2;fill:#000000;fill-opacity:1;stroke-width:0.456964"
     d="M 11.941406 6 C 10.96655 6 10.17374 6.2739092 9.5644531 6.8222656 C 8.9551677 7.3584361 8.5180857 7.9807287 8.25 8.6875 L 9.6933594 9.2890625 C 9.8761452 8.777262 10.144661 8.3509653 10.498047 8.0097656 C 10.863618 7.656381 11.349699 7.4804687 11.958984 7.4804688 C 12.629199 7.4804688 13.153494 7.6637252 13.53125 8.0292969 C 13.909009 8.3826825 14.097656 8.8506325 14.097656 9.4355469 C 14.097656 9.8742322 13.988874 10.253484 13.769531 10.570312 C 13.562374 10.874955 13.213991 11.244908 12.726562 11.683594 C 12.129463 12.244137 11.715904 12.726779 11.484375 13.128906 C 11.252846 13.531035 11.136719 14.035246 11.136719 14.644531 L 11.136719 15.720703 L 12.726562 15.720703 L 12.726562 14.755859 C 12.726562 14.317175 12.819169 13.932529 13.001953 13.603516 C 13.184739 13.274501 13.476778 12.928072 13.878906 12.5625 C 14.402893 12.087257 14.829188 11.617354 15.158203 11.154297 C 15.499403 10.679054 15.669922 10.10576 15.669922 9.4355469 C 15.669922 8.7897045 15.512141 8.2056271 15.195312 7.6816406 C 14.89067 7.1576559 14.451636 6.749489 13.878906 6.4570312 C 13.318364 6.1523896 12.672549 6 11.941406 6 z M 12 18 C 11.447716 18 11 18.447716 11 19 C 11 19.552284 11.447716 20 12 20 C 12.552284 20 13 19.552284 13 19 C 13 18.447716 12.552284 18 12 18 z " />
  <path
     id="path14687"
     style="font-size:7.8202px;line-height:1.25;font-family:'Google Sans';-inkscape-font-specification:'Google Sans';fill:#ffffff;fill-opacity:1;stroke-width:0.45697"
     d="M 11.943359 5 C 10.968491 5 10.175701 5.2739012 9.5664062 5.8222656 C 8.9571129 6.3584431 8.5180897 6.9807185 8.25 7.6875 L 9.6933594 8.2910156 C 9.8761482 7.7792091 10.144657 7.3529224 10.498047 7.0117188 C 10.863622 6.6583291 11.351643 6.4804688 11.960938 6.4804688 C 12.631159 6.4804688 13.155442 6.6637202 13.533203 7.0292969 C 13.910966 7.3826865 14.099609 7.8525796 14.099609 8.4375 C 14.099609 8.8761916 13.988877 9.25348 13.769531 9.5703125 C 13.562371 9.8749592 13.215949 10.246855 12.728516 10.685547 C 12.131407 11.246097 11.71786 11.726773 11.486328 12.128906 C 11.254796 12.53104 11.138672 13.037191 11.138672 13.646484 L 11.138672 14.722656 L 12.728516 14.722656 L 12.728516 13.755859 C 12.728516 13.317168 12.819166 12.934486 13.001953 12.605469 C 13.184741 12.276451 13.478725 11.928077 13.880859 11.5625 C 14.404852 11.087251 14.831138 10.617359 15.160156 10.154297 C 15.501361 9.6790474 15.671875 9.1077223 15.671875 8.4375 C 15.671875 7.7916496 15.512145 7.2056331 15.195312 6.6816406 C 14.890666 6.1576491 14.453595 5.749493 13.880859 5.4570312 C 13.320309 5.1523856 12.674513 5 11.943359 5 z M 12 17 C 11.447716 17 11 17.447716 11 18 C 11 18.552284 11.447716 19 12 19 C 12.552284 19 13 18.552284 13 18 C 13 17.447716 12.552284 17 12 17 z " />
  <path
     id="rect2630"
     style="fill:#ffffff;fill-opacity:1;opacity:0.3"
     d="m 4.9999999,2 c -1.6619983,0 -3,1.3380017 -3,2.9999997 v 1 c 0,-1.661998 1.3380017,-3 3,-3 H 19 c 1.661998,0 3,1.338002 3,3 v -1 C 22,3.3380017 20.661998,2 19,2 Z" />
  <path
     id="rect398"
     style="opacity:0.3;fill:#ffffff"
     d="m 2,18 v 1 c 0,1.661998 1.3380017,3 3,3 h 14 c 1.661998,0 3,-1.338002 3,-3 v -1 c 0,1.661998 -1.338002,3 -3,3 H 5 C 3.3380017,21 2,19.661998 2,18 Z" />
  <path
     id="rect899"
     style="opacity:0.5;fill:#000000;stroke:none"
     d="M 5,1 C 2.7840022,1 1,2.7840022 1,5 v 14 c 0,2.215998 1.7840022,4 4,4 h 14 c 2.215998,0 4,-1.784002 4,-4 V 5 C 23,2.7840022 21.215998,1 19,1 Z m 0,1 h 14 c 1.661998,0 3,1.3380017 3,3 v 14 c 0,1.661998 -1.338002,3 -3,3 H 5 C 3.3380017,22 2,20.661998 2,19 V 5 C 2,3.3380017 3.3380017,2 5,2 Z" />
</svg>
