<?xml version="1.0" encoding="UTF-8" standalone="no"?>
<!-- Created with Inkscape (http://www.inkscape.org/) -->

<svg
   width="24"
   height="24"
   viewBox="0 0 24 24.000001"
   version="1.1"
   id="svg5"
   sodipodi:docname="hwinfo.svg"
   inkscape:version="1.2.1 (9c6d41e410, 2022-07-14)"
   xmlns:inkscape="http://www.inkscape.org/namespaces/inkscape"
   xmlns:sodipodi="http://sodipodi.sourceforge.net/DTD/sodipodi-0.dtd"
   xmlns:xlink="http://www.w3.org/1999/xlink"
   xmlns="http://www.w3.org/2000/svg"
   xmlns:svg="http://www.w3.org/2000/svg">
  <sodipodi:namedview
     id="namedview7"
     pagecolor="#ffffff"
     bordercolor="#666666"
     borderopacity="1.0"
     inkscape:showpageshadow="2"
     inkscape:pageopacity="0.0"
     inkscape:pagecheckerboard="0"
     inkscape:deskcolor="#d1d1d1"
     inkscape:document-units="px"
     showgrid="false"
     inkscape:zoom="36"
     inkscape:cx="7.8888889"
     inkscape:cy="14.305556"
     inkscape:window-width="1920"
     inkscape:window-height="1012"
     inkscape:window-x="0"
     inkscape:window-y="0"
     inkscape:window-maximized="1"
     inkscape:current-layer="svg5" />
  <defs
     id="defs2">
    <linearGradient
       inkscape:collect="always"
       xlink:href="#linearGradient14653"
       id="linearGradient10386"
       x1="19"
       y1="23"
       x2="5"
       y2="1"
       gradientUnits="userSpaceOnUse" />
    <linearGradient
       inkscape:collect="always"
       xlink:href="#linearGradient21236"
       id="linearGradient3871"
       x1="23.214283"
       y1="43.408161"
       x2="23.214283"
       y2="5.0204082"
       gradientUnits="userSpaceOnUse"
       gradientTransform="matrix(0.57309942,0,0,0.57309942,-1.3040916,-1.877193)" />
    <linearGradient
       inkscape:collect="always"
       id="linearGradient14653">
      <stop
         style="stop-color:#4c972d;stop-opacity:1;"
         offset="0"
         id="stop14649" />
      <stop
         style="stop-color:#86d075;stop-opacity:1;"
         offset="1"
         id="stop14651" />
    </linearGradient>
    <linearGradient
       inkscape:collect="always"
       id="linearGradient21236">
      <stop
         style="stop-color:#3689e6;stop-opacity:1;"
         offset="0"
         id="stop21232" />
      <stop
         style="stop-color:#5dcffc;stop-opacity:1;"
         offset="1"
         id="stop21234" />
    </linearGradient>
  </defs>
  <rect
     style="fill:url(#linearGradient10386);fill-opacity:1.0;stroke:none"
     id="rect184"
     width="21"
     height="21"
     x="1.5"
     y="1.5"
     ry="3.5" />
  <path
     id="path798"
     style="color:#000000;display:inline;overflow:visible;visibility:visible;opacity:0.2;fill:#000000;fill-opacity:1;fill-rule:nonzero;stroke:none;stroke-width:3.15;marker:none;enable-background:new"
     d="M 4.0000004,7 V 8 H 20 V 7 Z m 0,2 v 1 H 20 V 9 Z m 0,2 v 1 H 20 v -1 z m 0,2 v 1 H 20 v -1 z m 0,2 v 1 H 20 v -1 z m 0,2 v 1 H 20 v -1 z"
     sodipodi:nodetypes="cccccccccccccccccccccccccccccc" />
  <path
     id="path592"
     style="color:#000000;display:inline;overflow:visible;visibility:visible;fill:#d6d6d6;fill-opacity:1;fill-rule:nonzero;stroke:none;stroke-width:3.15;marker:none;enable-background:new"
     d="M 4.0000004,6 V 7 H 20 V 6 Z m 0,2 V 9 H 20 V 8 Z m 0,2 v 1 H 20 v -1 z m 0,2 v 1 H 20 v -1 z m 0,2 v 1 H 20 v -1 z m 0,2 v 1 H 20 v -1 z"
     sodipodi:nodetypes="cccccccccccccccccccccccccccccc" />
  <rect
     style="opacity:0.2;fill:#000000;stroke-width:2.21053;stroke-linecap:round;stroke-linejoin:round"
     id="rect823"
     width="14"
     height="13"
     x="5"
     y="6"
     ry="1" />
  <rect
     style="fill:url(#linearGradient3871);fill-opacity:1.0;stroke-width:1.7193;stroke-linecap:round;stroke-linejoin:round"
     id="rect848"
     width="14"
     height="13"
     x="5"
     y="5"
     ry="1" />
  <path
     id="rect2630"
     style="fill:#ffffff;fill-opacity:1;opacity:0.3"
     d="m 4.9999999,2 c -1.6619983,0 -3,1.3380017 -3,2.9999997 v 1 c 0,-1.661998 1.3380017,-3 3,-3 H 19 c 1.661998,0 3,1.338002 3,3 v -1 C 22,3.3380017 20.661998,2 19,2 Z" />
  <path
     id="rect398"
     style="opacity:0.3;fill:#ffffff"
     d="m 2,18 v 1 c 0,1.661998 1.3380017,3 3,3 h 14 c 1.661998,0 3,-1.338002 3,-3 v -1 c 0,1.661998 -1.338002,3 -3,3 H 5 C 3.3380017,21 2,19.661998 2,18 Z" />
  <path
     id="rect899"
     style="opacity:0.5;fill:#000000;stroke:none"
     d="M 5,1 C 2.7840022,1 1,2.7840022 1,5 v 14 c 0,2.215998 1.7840022,4 4,4 h 14 c 2.215998,0 4,-1.784002 4,-4 V 5 C 23,2.7840022 21.215998,1 19,1 Z m 0,1 h 14 c 1.661998,0 3,1.3380017 3,3 v 14 c 0,1.661998 -1.338002,3 -3,3 H 5 C 3.3380017,22 2,20.661998 2,19 V 5 C 2,3.3380017 3.3380017,2 5,2 Z" />
  <path
     id="path599"
     style="opacity:0.2;fill:#000000;fill-opacity:1;stroke-width:7.5;stroke-linecap:round;stroke-linejoin:round"
     d="m 10.999999,7 v 2 h 2.000002 V 7 Z m 0,4 v 7 h 2.000002 v -7 z"
     sodipodi:nodetypes="cccccccccc" />
  <path
     id="path1151"
     style="fill:#ffffff;fill-opacity:1;stroke-width:6;stroke-linecap:round;stroke-linejoin:round"
     d="m 10.999999,6 v 2.0000002 h 2.000002 V 6 Z m 0,4 v 7 h 2.000002 v -7 z"
     sodipodi:nodetypes="cccccccccc" />
</svg>
