<?xml version="1.0" encoding="UTF-8" standalone="no"?>
<!-- Created with Inkscape (http://www.inkscape.org/) -->

<svg
   width="24"
   height="24"
   viewBox="0 0 24 24.000001"
   version="1.1"
   id="svg5"
   sodipodi:docname="inkscape.svg"
   inkscape:version="1.2.1 (9c6d41e410, 2022-07-14)"
   xmlns:inkscape="http://www.inkscape.org/namespaces/inkscape"
   xmlns:sodipodi="http://sodipodi.sourceforge.net/DTD/sodipodi-0.dtd"
   xmlns:xlink="http://www.w3.org/1999/xlink"
   xmlns="http://www.w3.org/2000/svg"
   xmlns:svg="http://www.w3.org/2000/svg">
  <sodipodi:namedview
     id="namedview7"
     pagecolor="#ffffff"
     bordercolor="#666666"
     borderopacity="1.0"
     inkscape:showpageshadow="2"
     inkscape:pageopacity="0.0"
     inkscape:pagecheckerboard="0"
     inkscape:deskcolor="#d1d1d1"
     inkscape:document-units="px"
     showgrid="false"
     inkscape:zoom="24.513036"
     inkscape:cx="5.2829033"
     inkscape:cy="14.237323"
     inkscape:window-width="1920"
     inkscape:window-height="1007"
     inkscape:window-x="0"
     inkscape:window-y="0"
     inkscape:window-maximized="1"
     inkscape:current-layer="svg5" />
  <defs
     id="defs2">
    <linearGradient
       inkscape:collect="always"
       xlink:href="#4852"
       id="linearGradient10386"
       x1="19"
       y1="23"
       x2="5"
       y2="1"
       gradientUnits="userSpaceOnUse" />
    <linearGradient
       inkscape:collect="always"
       id="4852">
      <stop
         style="stop-color:#333333;stop-opacity:1"
         offset="0"
         id="stop14555" />
      <stop
         style="stop-color:#666666;stop-opacity:1"
         offset="1"
         id="stop14557" />
    </linearGradient>
  </defs>
  <rect
     style="fill:url(#linearGradient10386);fill-opacity:1.0;stroke:none"
     id="rect184"
     width="21"
     height="21"
     x="1.5"
     y="1.5"
     ry="3.5" />
  <path
     d="M 12,6 C 11.60427,6 11.208283,6.1497818 10.909288,6.4663627 L 5.4663627,12.076389 C 5.1673703,12.384175 5.0087941,12.789163 5,13.193684 v 0.02582 c 0,1.204775 3.2097991,0.03529 3.4999999,1.503908 0.15829,0.80025 -1.7499997,0.430975 -1.7499997,1.231228 0,0.940954 2.6995467,0.299061 3.4734148,1.064127 0.316581,0.773868 -1.0376801,0.650639 -0.7914491,1.371745 0.448494,0.466077 1.4684251,0.202257 1.6618921,0.95855 0.228644,0.861812 1.688435,0.712171 2.54145,0.079 0.457286,-0.466079 -0.694586,-0.676601 -0.246094,-1.151475 0.457287,-0.46608 2.690961,-0.369873 2.70855,-1.389974 C 15.886708,16.244645 15.042431,16.13898 15.033636,15.3827 14.989676,14.740741 15.719842,14.925913 18.041448,14.292748 18.964815,13.853051 19,13.624028 19,13.219505 v -0.02582 C 18.9912,12.789172 18.806806,12.384176 18.50781,12.076387 L 13.090712,6.4663627 C 12.782923,6.1497803 12.395728,6 12,6 Z m 0.105574,1.1780598 c 0.413316,0 1.538939,1.3901491 2.541451,2.4366322 0.290197,0.37814 -0.105574,0.764865 -0.105574,0.764865 L 12.439778,9.2273219 11.507813,10.485135 10.689779,9.2539069 10.197591,11.171006 8.7460939,10.300564 9.1334639,9.807617 11.402235,7.4773222 c 0.167084,-0.1758788 0.307612,-0.2992624 0.703343,-0.2992624 z"
     style="opacity:0.2;fill:#000000;fill-opacity:1;stroke-width:0.879395"
     id="path11845" />
  <path
     d="M 12,5 C 11.60427,5 11.208283,5.1497818 10.909288,5.4663627 L 5.4663627,11.076389 C 5.1673703,11.384175 5.0087941,11.789163 5,12.193684 v 0.02582 c 0,1.204775 3.2097991,0.03529 3.4999999,1.503908 0.15829,0.80025 -1.7499997,0.430975 -1.7499997,1.231228 0,0.940954 2.6995467,0.299061 3.4734148,1.064127 0.316581,0.773868 -1.0376801,0.650639 -0.7914491,1.371745 0.448494,0.466077 1.4684251,0.202257 1.6618921,0.958549 0.228644,0.861813 1.688435,0.712172 2.54145,0.079 0.457286,-0.466078 -0.694586,-0.6766 -0.246094,-1.151474 0.457287,-0.46608 2.690961,-0.369873 2.70855,-1.389974 C 15.886708,15.244645 15.042431,15.13898 15.033636,14.3827 14.989676,13.740741 15.719842,13.925913 18.041448,13.292748 18.964815,12.853051 19,12.624028 19,12.219505 v -0.02582 C 18.9912,11.789172 18.806806,11.384176 18.50781,11.076387 L 13.090712,5.4663627 C 12.782923,5.1497803 12.395728,5 12,5 Z m 0.105574,1.1780598 c 0.413316,0 1.538939,1.3901491 2.541451,2.4366319 0.290197,0.3781403 -0.105574,0.7648652 -0.105574,0.7648652 L 12.439778,8.2273218 11.507813,9.4851349 10.689779,8.2539065 10.197591,10.171007 8.7460939,9.3005639 9.1334639,8.8076171 11.402235,6.4773222 c 0.167084,-0.1758788 0.307612,-0.2992624 0.703343,-0.2992624 z"
     style="fill:#ffffff;fill-opacity:1;stroke-width:0.879395"
     id="path11658"
     sodipodi:nodetypes="scccscsccccccccscccsscccccccccs" />
  <path
     id="rect2630"
     style="fill:#ffffff;fill-opacity:1;opacity:0.3"
     d="m 4.9999999,2 c -1.6619983,0 -3,1.3380017 -3,2.9999997 v 1 c 0,-1.661998 1.3380017,-3 3,-3 H 19 c 1.661998,0 3,1.338002 3,3 v -1 C 22,3.3380017 20.661998,2 19,2 Z" />
  <path
     id="rect398"
     style="opacity:0.3;fill:#ffffff"
     d="m 2,18 v 1 c 0,1.661998 1.3380017,3 3,3 h 14 c 1.661998,0 3,-1.338002 3,-3 v -1 c 0,1.661998 -1.338002,3 -3,3 H 5 C 3.3380017,21 2,19.661998 2,18 Z" />
  <path
     id="rect899"
     style="opacity:0.5;fill:#000000;stroke:none"
     d="M 5,1 C 2.7840022,1 1,2.7840022 1,5 v 14 c 0,2.215998 1.7840022,4 4,4 h 14 c 2.215998,0 4,-1.784002 4,-4 V 5 C 23,2.7840022 21.215998,1 19,1 Z m 0,1 h 14 c 1.661998,0 3,1.3380017 3,3 v 14 c 0,1.661998 -1.338002,3 -3,3 H 5 C 3.3380017,22 2,20.661998 2,19 V 5 C 2,3.3380017 3.3380017,2 5,2 Z" />
</svg>
