<?xml version="1.0" encoding="UTF-8" standalone="no"?>
<!-- Created with Inkscape (http://www.inkscape.org/) -->

<svg
   width="24"
   height="24"
   viewBox="0 0 24 24.000001"
   version="1.1"
   id="svg5"
   sodipodi:docname="kate.svg"
   inkscape:version="1.2.1 (9c6d41e410, 2022-07-14)"
   xmlns:inkscape="http://www.inkscape.org/namespaces/inkscape"
   xmlns:sodipodi="http://sodipodi.sourceforge.net/DTD/sodipodi-0.dtd"
   xmlns:xlink="http://www.w3.org/1999/xlink"
   xmlns="http://www.w3.org/2000/svg"
   xmlns:svg="http://www.w3.org/2000/svg">
  <sodipodi:namedview
     id="namedview7"
     pagecolor="#ffffff"
     bordercolor="#666666"
     borderopacity="1.0"
     inkscape:showpageshadow="2"
     inkscape:pageopacity="0.0"
     inkscape:pagecheckerboard="0"
     inkscape:deskcolor="#d1d1d1"
     inkscape:document-units="px"
     showgrid="false"
     inkscape:zoom="16.708334"
     inkscape:cx="17.266832"
     inkscape:cy="7.7206979"
     inkscape:window-width="1920"
     inkscape:window-height="1002"
     inkscape:window-x="0"
     inkscape:window-y="0"
     inkscape:window-maximized="1"
     inkscape:current-layer="svg5" />
  <defs
     id="defs2">
    <linearGradient
       inkscape:collect="always"
       xlink:href="#linearGradient1493"
       id="linearGradient10386"
       x1="19"
       y1="23"
       x2="5"
       y2="1"
       gradientUnits="userSpaceOnUse" />
    <linearGradient
       inkscape:collect="always"
       id="linearGradient1493">
      <stop
         style="stop-color:#197cf1;stop-opacity:1;"
         offset="0"
         id="stop1489" />
      <stop
         style="stop-color:#20bcfa;stop-opacity:1;"
         offset="1"
         id="stop1491" />
    </linearGradient>
  </defs>
  <rect
     style="fill:url(#linearGradient10386);fill-opacity:1;stroke:none"
     id="rect184"
     width="21"
     height="21"
     x="1.5"
     y="1.5"
     ry="3.5" />
  <path
     id="path10-3"
     style="opacity:0.1;fill:#000000;stroke-width:0.561445"
     d="M 11.424845,5.0000017 C 10.226492,4.9990624 8.8487235,5.3411705 7.512258,6.3093146 6.2063723,7.2553096 5.6334473,7.5147273 5,7.8291703 5.5553283,7.8715403 8.8327815,7.4063376 9.506932,9.2810393 7.1033865,10.074177 6.159437,11.364388 6.462834,12.864652 c 0.047728,0.270134 0.1391471,0.552417 0.2785323,0.845461 0.1439509,0.302646 0.308126,0.562048 0.4879771,0.791729 0.00858,0.01206 0.017575,0.02411 0.026305,0.03617 -0.0045,-0.0063 -0.00873,-0.01236 -0.013153,-0.01867 1.1083952,1.399233 2.8490886,1.617401 4.7328316,2.877453 1.71634,1.14809 2.286421,1.732357 3.393905,3.323736 -0.230302,-2.198798 -1.443511,-5.0326 -1.940941,-6.281193 l -0.0011,-0.0055 c 1.555775,1.141909 3.399769,1.639643 5.572806,1.795094 -3.474103,-2.473016 -4.13365,-3.058644 -6.12219,-4.753662 -1.334096,0.06725 -1.187125,0.05467 -1.973838,0.09979 0.09858,0.164342 0.198421,0.323305 0.30046,0.477011 0.794555,1.413376 0.946258,3.172598 -0.750058,3.525497 C 8.681894,15.946309 6.7489231,14.415602 7.2348218,12.77691 7.7624532,10.997489 10.264819,11.339829 12.654105,11.031159 15.043392,10.722488 17.226368,8.3792493 18.539435,6.6448515 16.647731,7.2902928 14.240442,7.8828493 11.552045,8.6625533 11.029044,7.5917053 10.51011,5.7421953 14.024826,5.608586 13.961616,5.573663 13.8963,5.540071 13.828541,5.508799 13.820141,5.504829 13.811761,5.500669 13.803331,5.496742 13.788781,5.490162 13.774191,5.4834 13.759471,5.477013 13.152426,5.2025603 12.341231,5.0007033 11.424843,4.9999856 Z" />
  <path
     style="fill:#cccccc;fill-opacity:1;stroke-width:0.561468"
     d="M 9.5383909,8.3738913 C 8.9409013,6.3903175 5.5643946,6.8716433 5,6.8285798 5.6334685,6.5141272 6.2023426,6.6304244 7.5082714,5.6843981 10.024054,3.8619489 11.789099,3.8377259 13.122931,4.5614661 9.4764271,4.7000844 11.073217,6.732878 11.610313,7.7796403 10.927284,7.9780383 9.8490715,8.2775353 9.5383909,8.3738913 Z"
     id="path10" />
  <path
     style="fill:#f2f2f2;stroke-width:0.561468"
     d="m 18.539473,5.6444051 c -1.313111,1.7344561 -3.496291,4.0778272 -5.885656,4.3865079 -2.389366,0.308681 -4.8917885,-0.03328 -5.4194378,1.746207 -0.4859149,1.638746 1.4476505,3.168762 3.2201868,2.80001 1.893624,-0.393946 1.484668,-2.540233 0.448931,-4.0018 0.78674,-0.04511 0.323829,0.229512 1.657968,0.162259 l 0.866573,2.702049 c 0.497446,1.248635 1.710449,4.082539 1.940757,6.28141 -1.107522,-1.59144 -1.677162,-2.176291 -3.39356,-3.324405 C 9.7766417,14.925984 7.7714822,14.876197 6.7408946,12.709465 5.7125321,10.547415 7.2982589,8.9900073 9.733983,8.3155413 13.21481,7.351677 16.214006,6.4378462 18.539473,5.6444051 Z"
     id="path12" />
  <path
     style="fill:#cccccc;fill-opacity:1;stroke-width:0.561468"
     d="m 10.903497,10.57533 c 0.78674,-0.04511 0.640394,-0.03343 1.974533,-0.100683 1.988607,1.695074 2.647751,2.281574 6.12197,4.754673 -3.492057,-0.249808 -6.134241,-1.382932 -8.096503,-4.65399 z"
     id="path14" />
  <path
     style="fill:#e6e6e6;fill-opacity:1;stroke-width:0.561468"
     d="M 5,6.8285798 C 5.6334685,6.5141272 6.2059418,6.2549276 7.5118714,5.3089006 10.027654,3.4864513 12.691202,3.8839023 14.025035,4.6076421 10.37853,4.7462616 10.848372,5.4728221 10.834915,6.0424014 8.4121677,5.5317181 7.7047766,6.2265506 5,6.8285798 Z"
     id="path16" />
  <path
     style="fill:#f2f2f2;stroke-width:0.561468"
     d="M 14.025035,4.6076421 C 10.37853,4.7462616 11.073217,6.732878 11.610313,7.7796403 11.184787,7.9032413 11.004035,8.0440513 10.435194,8.1945983 8.1399778,4.1049124 12.151731,3.5728695 14.025035,4.6076421 Z"
     id="path18" />
  <path
     style="fill:#e6e6e6;fill-opacity:1;stroke-width:0.561468"
     d="M 7.397515,13.728298 C 5.6131154,11.430664 6.1671348,9.3246813 9.6612482,8.2304833 13.109359,7.1506881 16.214006,6.4378462 18.539473,5.6444051 12.263897,8.0355353 4.1810981,9.6332783 7.397515,13.728298 Z"
     id="path20" />
  <path
     id="rect2630"
     style="fill:#ffffff;fill-opacity:1;opacity:0.3"
     d="m 4.9999999,2 c -1.6619983,0 -3,1.3380017 -3,2.9999997 v 1 c 0,-1.661998 1.3380017,-3 3,-3 H 19 c 1.661998,0 3,1.338002 3,3 v -1 C 22,3.3380017 20.661998,2 19,2 Z" />
  <path
     id="rect398"
     style="opacity:0.3;fill:#ffffff"
     d="m 2,18 v 1 c 0,1.661998 1.3380017,3 3,3 h 14 c 1.661998,0 3,-1.338002 3,-3 v -1 c 0,1.661998 -1.338002,3 -3,3 H 5 C 3.3380017,21 2,19.661998 2,18 Z" />
  <path
     id="rect899"
     style="opacity:0.5;fill:#000000;stroke:none"
     d="M 5,1 C 2.7840022,1 1,2.7840022 1,5 v 14 c 0,2.215998 1.7840022,4 4,4 h 14 c 2.215998,0 4,-1.784002 4,-4 V 5 C 23,2.7840022 21.215998,1 19,1 Z m 0,1 h 14 c 1.661998,0 3,1.3380017 3,3 v 14 c 0,1.661998 -1.338002,3 -3,3 H 5 C 3.3380017,22 2,20.661998 2,19 V 5 C 2,3.3380017 3.3380017,2 5,2 Z" />
</svg>
