<?xml version="1.0" encoding="UTF-8" standalone="no"?>
<!-- Created with Inkscape (http://www.inkscape.org/) -->

<svg
   width="24"
   height="24"
   viewBox="0 0 24 24.000001"
   version="1.1"
   id="svg5"
   sodipodi:docname="kmenuedit.svg"
   inkscape:version="1.2.1 (9c6d41e410, 2022-07-14)"
   xmlns:inkscape="http://www.inkscape.org/namespaces/inkscape"
   xmlns:sodipodi="http://sodipodi.sourceforge.net/DTD/sodipodi-0.dtd"
   xmlns:xlink="http://www.w3.org/1999/xlink"
   xmlns="http://www.w3.org/2000/svg"
   xmlns:svg="http://www.w3.org/2000/svg">
  <sodipodi:namedview
     id="namedview7"
     pagecolor="#ffffff"
     bordercolor="#666666"
     borderopacity="1.0"
     inkscape:showpageshadow="2"
     inkscape:pageopacity="0.0"
     inkscape:pagecheckerboard="0"
     inkscape:deskcolor="#d1d1d1"
     inkscape:document-units="px"
     showgrid="false"
     inkscape:zoom="33.125"
     inkscape:cx="12"
     inkscape:cy="12"
     inkscape:window-width="1920"
     inkscape:window-height="1007"
     inkscape:window-x="0"
     inkscape:window-y="0"
     inkscape:window-maximized="1"
     inkscape:current-layer="svg5" />
  <defs
     id="defs2">
    <linearGradient
       inkscape:collect="always"
       xlink:href="#linearGradient22024"
       id="linearGradient10386"
       x1="12"
       y1="23"
       x2="12"
       y2="1"
       gradientUnits="userSpaceOnUse" />
    <linearGradient
       inkscape:collect="always"
       id="linearGradient22024">
      <stop
         style="stop-color:#dedede;stop-opacity:1;"
         offset="0"
         id="stop22020" />
      <stop
         style="stop-color:#f2f2f2;stop-opacity:1;"
         offset="1"
         id="stop22022" />
    </linearGradient>
  </defs>
  <rect
     style="fill:url(#linearGradient10386);fill-opacity:1;stroke:none"
     id="rect184"
     width="21"
     height="21"
     x="1.5"
     y="1.5"
     ry="3.5" />
  <rect
     style="opacity:0.5;fill:#57dade;fill-opacity:1;stroke-width:0.797721;stroke-linecap:round;stroke-linejoin:round"
     id="rect811"
     width="21"
     height="5"
     x="1.5"
     y="10" />
  <path
     d="m 6.4999994,11.999999 c -0.8309996,0 -1.4999997,0.669 -1.4999997,1.500002 0,0.831 0.6690001,1.5 1.4999997,1.5 0.831,0 1.5,-0.669 1.5,-1.5 0,-0.831002 -0.669,-1.500002 -1.5,-1.500002 z m 0,1.000002 c 0.27614,0 0.5,0.22386 0.5,0.5 0,0.27614 -0.22386,0.5 -0.5,0.5 -0.27614,0 -0.5,-0.22386 -0.5,-0.5 0,-0.27614 0.22386,-0.5 0.5,-0.5 z m 3.5,0 v 1 H 19 v -1 z"
     style="color:#000000;display:inline;overflow:visible;visibility:visible;fill:#000000;fill-opacity:1;stroke:none;stroke-width:1;marker:none;enable-background:accumulate;opacity:0.2"
     id="path14207" />
  <path
     d="M 6.5,7 C 5.669,7 5,7.6690001 5,8.5 5,9.331 5.669,10 6.5,10 7.331,10 8,9.331 8,8.5 8,7.6690001 7.331,7 6.5,7 Z m 0,1 C 6.77614,8 7,8.22386 7,8.5 7,8.77614 6.77614,9 6.5,9 6.22386,9 6,8.77614 6,8.5 6,8.22386 6.22386,8 6.5,8 Z M 10,8 v 1 h 9 V 8 Z m -3.5,9.000001 c -0.831,0 -1.5,0.669 -1.5,1.5 0,0.831 0.669,1.5 1.5,1.5 0.831,0 1.5,-0.669 1.5,-1.5 0,-0.831 -0.669,-1.5 -1.5,-1.5 z m 0,1 c 0.27614,0 0.5,0.22386 0.5,0.5 0,0.27614 -0.22386,0.5 -0.5,0.5 -0.27614,0 -0.5,-0.22386 -0.5,-0.5 0,-0.27614 0.22386,-0.5 0.5,-0.5 z m 3.5,0 v 1 h 9 v -1 z"
     style="color:#000000;display:inline;overflow:visible;visibility:visible;fill:#ffffff;fill-opacity:1;stroke:none;stroke-width:1;marker:none;enable-background:accumulate;opacity:0.5"
     id="path14174" />
  <path
     id="rect4096"
     style="color:#000000;display:inline;overflow:visible;visibility:visible;fill:#ababab;fill-opacity:1;stroke:none;stroke-width:1;marker:none;enable-background:accumulate"
     d="M 6.5,6 C 5.669,6 5,6.6690001 5,7.5 5,8.331 5.669,9.0000001 6.5,9.0000001 7.331,9.0000001 8,8.331 8,7.5 8,6.6690001 7.331,6 6.5,6 Z m 0,1 C 6.77614,7 7,7.22386 7,7.5 7,7.77614 6.77614,8 6.5,8 6.22386,8 6,7.77614 6,7.5 6,7.22386 6.22386,7 6.5,7 Z M 10,7 v 1 h 9 V 7 Z M 6.5,16 C 5.669,16 5,16.669 5,17.5 5,18.331 5.669,19 6.5,19 7.331,19 8,18.331 8,17.5 8,16.669 7.331,16 6.5,16 Z m 0,1 C 6.77614,17 7,17.22386 7,17.5 7,17.77614 6.77614,18 6.5,18 6.22386,18 6,17.77614 6,17.5 6,17.22386 6.22386,17 6.5,17 Z m 3.5,0 v 1 h 9 v -1 z"
     sodipodi:nodetypes="sssssssssscccccssssssssssccccc" />
  <path
     d="m 6.4999998,11 c -0.8309999,0 -1.5,0.669 -1.5,1.500001 0,0.831 0.6690001,1.5 1.5,1.5 0.831,0 1.5,-0.669 1.5,-1.5 0,-0.831001 -0.669,-1.500001 -1.5,-1.500001 z m 0,1.000001 c 0.27614,0 0.5,0.22386 0.5,0.5 0,0.27614 -0.22386,0.5 -0.5,0.5 -0.27614,0 -0.5,-0.22386 -0.5,-0.5 0,-0.27614 0.22386,-0.5 0.5,-0.5 z m 3.5000001,0 v 1 H 19 v -1 z"
     style="color:#000000;display:inline;overflow:visible;visibility:visible;fill:#ffffff;fill-opacity:1;stroke:none;stroke-width:1;marker:none;enable-background:accumulate"
     id="path12689"
     sodipodi:nodetypes="ssssssssssccccc" />
  <path
     id="rect2630"
     style="opacity:0.3;fill:#ffffff;fill-opacity:1"
     d="m 4.9999999,2 c -1.6619983,0 -3,1.3380017 -3,2.9999997 v 1 c 0,-1.661998 1.3380017,-3 3,-3 H 19 c 1.661998,0 3,1.338002 3,3 v -1 C 22,3.3380017 20.661998,2 19,2 Z" />
  <path
     id="rect398"
     style="opacity:0.3;fill:#ffffff"
     d="m 2,18 v 1 c 0,1.661998 1.3380017,3 3,3 h 14 c 1.661998,0 3,-1.338002 3,-3 v -1 c 0,1.661998 -1.338002,3 -3,3 H 5 C 3.3380017,21 2,19.661998 2,18 Z" />
  <path
     id="rect899"
     style="opacity:0.5;fill:#000000;stroke:none"
     d="M 5,1 C 2.7840022,1 1,2.7840022 1,5 v 14 c 0,2.215998 1.7840022,4 4,4 h 14 c 2.215998,0 4,-1.784002 4,-4 V 5 C 23,2.7840022 21.215998,1 19,1 Z m 0,1 h 14 c 1.661998,0 3,1.3380017 3,3 v 14 c 0,1.661998 -1.338002,3 -3,3 H 5 C 3.3380017,22 2,20.661998 2,19 V 5 C 2,3.3380017 3.3380017,2 5,2 Z" />
</svg>
