<?xml version="1.0" encoding="UTF-8" standalone="no"?>
<!-- Created with Inkscape (http://www.inkscape.org/) -->

<svg
   width="24"
   height="24"
   viewBox="0 0 24 24.000001"
   version="1.1"
   id="svg5"
   sodipodi:docname="kontact.svg"
   inkscape:version="1.2.1 (9c6d41e410, 2022-07-14)"
   xmlns:inkscape="http://www.inkscape.org/namespaces/inkscape"
   xmlns:sodipodi="http://sodipodi.sourceforge.net/DTD/sodipodi-0.dtd"
   xmlns:xlink="http://www.w3.org/1999/xlink"
   xmlns="http://www.w3.org/2000/svg"
   xmlns:svg="http://www.w3.org/2000/svg">
  <sodipodi:namedview
     id="namedview7"
     pagecolor="#ffffff"
     bordercolor="#666666"
     borderopacity="1.0"
     inkscape:showpageshadow="2"
     inkscape:pageopacity="0.0"
     inkscape:pagecheckerboard="0"
     inkscape:deskcolor="#d1d1d1"
     inkscape:document-units="px"
     showgrid="false"
     inkscape:zoom="16.166667"
     inkscape:cx="5.7525772"
     inkscape:cy="16.206185"
     inkscape:window-width="1920"
     inkscape:window-height="1012"
     inkscape:window-x="0"
     inkscape:window-y="0"
     inkscape:window-maximized="1"
     inkscape:current-layer="svg5" />
  <defs
     id="defs2">
    <linearGradient
       inkscape:collect="always"
       xlink:href="#linearGradient986"
       id="linearGradient10386"
       x1="12"
       y1="23"
       x2="12"
       y2="1"
       gradientUnits="userSpaceOnUse" />
    <linearGradient
       inkscape:collect="always"
       id="linearGradient986">
      <stop
         style="stop-color:#ffa12a;stop-opacity:1;"
         offset="0"
         id="stop982" />
      <stop
         style="stop-color:#ffdc75;stop-opacity:1;"
         offset="1"
         id="stop984" />
    </linearGradient>
  </defs>
  <rect
     style="fill:url(#linearGradient10386);fill-opacity:1;stroke:none"
     id="rect184"
     width="21"
     height="21"
     x="1.5"
     y="1.5"
     ry="3.5" />
  <path
     d="M 11.999956,6.0004809 C 8.1339679,6.0004809 5,9.1344489 5,13.000438 c 0,3.865989 3.1339679,6.999956 6.999956,6.999956 h 4.374973 c 0,0 0.820307,0 0.874994,-0.874994 0,-0.874995 -0.874994,-0.874995 -0.874994,-0.874995 h -4.374973 c -2.8994691,0 -5.2499669,-2.350497 -5.2499669,-5.249967 0,-2.89947 2.3504978,-5.2499679 5.2499669,-5.2499679 2.89947,0 5.249967,2.3504979 5.249967,5.2499679 v 0.874995 c 0,0.483242 -0.391752,0.874994 -0.874994,0.874994 -0.483242,0 -0.874995,-0.391752 -0.874995,-0.874994 v -0.874995 c 0,-1.932951 -1.567027,-3.4999791 -3.499978,-3.4999791 -1.93295,0 -3.4999779,1.5670281 -3.4999779,3.4999791 0,1.932951 1.5670279,3.499978 3.4999779,3.499978 0.91542,0 1.741502,-0.359535 2.365198,-0.934844 0.498747,0.592372 1.234617,0.934494 2.009862,0.934494 C 17.824707,16.500066 19,15.324774 19,13.875083 V 13.000087 C 19,9.1340989 15.866032,6.000131 12.000044,6.000131 Z m 0,5.2499671 c 0.966519,0 1.749989,0.783497 1.749989,1.74999 0,0.966493 -0.783496,1.749989 -1.749989,1.749989 -0.966492,0 -1.749989,-0.783496 -1.749989,-1.749989 0,-0.966493 0.783497,-1.74999 1.749989,-1.74999 z"
     style="opacity:0.2;fill:#000000;stroke-width:0.874995"
     id="path4907" />
  <path
     d="M 11.999956,5.0003499 C 8.1339679,5.0003499 5,8.1343178 5,12.000306 c 0,3.865989 3.1339679,6.999956 6.999956,6.999956 h 4.374973 c 0,0 0.820307,0 0.874994,-0.874994 0,-0.874995 -0.874994,-0.874995 -0.874994,-0.874995 h -4.374973 c -2.8994691,0 -5.2499669,-2.350497 -5.2499669,-5.249967 0,-2.8994691 2.3504978,-5.249967 5.2499669,-5.249967 2.89947,0 5.249967,2.3504979 5.249967,5.249967 v 0.874995 c 0,0.483242 -0.391752,0.874994 -0.874994,0.874994 -0.483242,0 -0.874995,-0.391752 -0.874995,-0.874994 v -0.874995 c 0,-1.93295 -1.567027,-3.499978 -3.499978,-3.499978 -1.93295,0 -3.4999779,1.567028 -3.4999779,3.499978 0,1.932951 1.5670279,3.499978 3.4999779,3.499978 0.91542,0 1.741502,-0.359535 2.365198,-0.934844 0.498747,0.592372 1.234617,0.934494 2.009862,0.934494 C 17.824707,15.499934 19,14.324642 19,12.874951 V 11.999956 C 19,8.1339678 15.866032,5 12.000044,5 Z m 0,5.2499671 c 0.966519,0 1.749989,0.783497 1.749989,1.749989 0,0.966493 -0.783496,1.749989 -1.749989,1.749989 -0.966492,0 -1.749989,-0.783496 -1.749989,-1.749989 0,-0.966492 0.783497,-1.749989 1.749989,-1.749989 z"
     style="fill:#4d4d4d;stroke-width:0.874995"
     id="path4721"
     sodipodi:nodetypes="csscccssssssssssscsssccsssss" />
  <path
     id="rect2630"
     style="fill:#ffffff;fill-opacity:1;opacity:0.3"
     d="m 4.9999999,2 c -1.6619983,0 -3,1.3380017 -3,2.9999997 v 1 c 0,-1.661998 1.3380017,-3 3,-3 H 19 c 1.661998,0 3,1.338002 3,3 v -1 C 22,3.3380017 20.661998,2 19,2 Z" />
  <path
     id="rect398"
     style="opacity:0.3;fill:#ffffff"
     d="m 2,18 v 1 c 0,1.661998 1.3380017,3 3,3 h 14 c 1.661998,0 3,-1.338002 3,-3 v -1 c 0,1.661998 -1.338002,3 -3,3 H 5 C 3.3380017,21 2,19.661998 2,18 Z" />
  <path
     id="rect899"
     style="opacity:0.5;fill:#000000;stroke:none"
     d="M 5,1 C 2.7840022,1 1,2.7840022 1,5 v 14 c 0,2.215998 1.7840022,4 4,4 h 14 c 2.215998,0 4,-1.784002 4,-4 V 5 C 23,2.7840022 21.215998,1 19,1 Z m 0,1 h 14 c 1.661998,0 3,1.3380017 3,3 v 14 c 0,1.661998 -1.338002,3 -3,3 H 5 C 3.3380017,22 2,20.661998 2,19 V 5 C 2,3.3380017 3.3380017,2 5,2 Z" />
</svg>
