<?xml version="1.0" encoding="UTF-8" standalone="no"?>
<!-- Created with Inkscape (http://www.inkscape.org/) -->

<svg
   width="24"
   height="24"
   viewBox="0 0 24 24.000001"
   version="1.1"
   id="svg5"
   sodipodi:docname="korganizer.svg"
   inkscape:version="1.2.1 (9c6d41e410, 2022-07-14)"
   xmlns:inkscape="http://www.inkscape.org/namespaces/inkscape"
   xmlns:sodipodi="http://sodipodi.sourceforge.net/DTD/sodipodi-0.dtd"
   xmlns:xlink="http://www.w3.org/1999/xlink"
   xmlns="http://www.w3.org/2000/svg"
   xmlns:svg="http://www.w3.org/2000/svg">
  <sodipodi:namedview
     id="namedview7"
     pagecolor="#ffffff"
     bordercolor="#666666"
     borderopacity="1.0"
     inkscape:showpageshadow="2"
     inkscape:pageopacity="0.0"
     inkscape:pagecheckerboard="0"
     inkscape:deskcolor="#d1d1d1"
     inkscape:document-units="px"
     showgrid="false"
     inkscape:zoom="13.19397"
     inkscape:cx="-8.3371421"
     inkscape:cy="9.7392978"
     inkscape:window-width="1920"
     inkscape:window-height="1007"
     inkscape:window-x="0"
     inkscape:window-y="0"
     inkscape:window-maximized="1"
     inkscape:current-layer="svg5" />
  <defs
     id="defs2">
    <linearGradient
       inkscape:collect="always"
       xlink:href="#linearGradient22024"
       id="linearGradient10386"
       x1="12"
       y1="23"
       x2="12"
       y2="7"
       gradientUnits="userSpaceOnUse" />
    <linearGradient
       inkscape:collect="always"
       id="linearGradient22024">
      <stop
         style="stop-color:#dedede;stop-opacity:1;"
         offset="0"
         id="stop22020" />
      <stop
         style="stop-color:#f2f2f2;stop-opacity:1;"
         offset="1"
         id="stop22022" />
    </linearGradient>
  </defs>
  <rect
     style="fill:url(#linearGradient10386);fill-opacity:1;stroke:none"
     id="rect184"
     width="21"
     height="21"
     x="1.5"
     y="1.5"
     ry="3.5" />
  <path
     id="path9489"
     style="opacity:0.5;fill:#ffffff;fill-opacity:1;stroke-width:2;stroke-linecap:round;stroke-linejoin:round"
     d="m 5,11 v 1 h 1 v -1 z m 3,0 v 1 H 19 V 11 Z M 5.5,13 C 4.6715744,13 4,13.671575 4,14.5 4,15.328425 4.6715744,16 5.5,16 6.3284256,16 7,15.328425 7,14.5 7,13.671575 6.3284256,13 5.5,13 Z M 9,14 v 1 h 10 v -1 z m -4,3 v 1 h 1 v -1 z m 3,0 v 1 h 11 v -1 z m -3,3 v 1 h 1 v -1 z m 3,0 v 1 h 11 v -1 z"
     sodipodi:nodetypes="ccccccccccsssssccccccccccccccccccccccccc" />
  <path
     id="rect349"
     style="fill:#e06262;fill-opacity:1;stroke-width:2;stroke-linecap:round;stroke-linejoin:round"
     d="M 5.5,12 C 4.6715737,12 4,12.671574 4,13.5 4,14.328426 4.6715737,15 5.5,15 6.3284263,15 7,14.328426 7,13.5 7,12.671574 6.3284263,12 5.5,12 Z M 9,13 v 1 h 10 v -1 z"
     sodipodi:nodetypes="sssssccccc" />
  <rect
     style="fill:#ffffff;fill-opacity:1;stroke-linecap:round;stroke-linejoin:round"
     id="rect2834"
     width="1"
     height="1"
     x="5"
     y="13" />
  <path
     id="rect376"
     style="fill:#929292;fill-opacity:1;stroke-width:2;stroke-linecap:round;stroke-linejoin:round"
     d="m 5,10 v 1 h 1 v -1 z m 3,0 v 1 h 11 v -1 z m -3,6 v 1 h 1 v -1 z m 3,0 v 1 h 11 v -1 z m -3,3 v 1 h 1 v -1 z m 3,0 v 1 h 11 v -1 z"
     sodipodi:nodetypes="cccccccccccccccccccccccccccccc" />
  <path
     id="rect348"
     style="fill:#abc837;fill-opacity:1;stroke-width:0.381881;stroke-linejoin:round"
     d="M 5,1.5 C 3.0610019,1.5 1.5,3.0610019 1.5,5 v 3 h 21 V 5 C 22.5,3.0610019 20.938998,1.5 19,1.5 Z"
     sodipodi:nodetypes="ssccsss" />
  <rect
     style="opacity:0.2;fill:#000000;stroke-width:0.572822;stroke-linejoin:round"
     id="rect581"
     width="21"
     height="1"
     x="1.5"
     y="7" />
  <path
     id="rect2630"
     style="opacity:0.3;fill:#ffffff;fill-opacity:1"
     d="m 4.9999999,2 c -1.6619983,0 -3,1.3380017 -3,2.9999997 v 1 c 0,-1.661998 1.3380017,-3 3,-3 H 19 c 1.661998,0 3,1.338002 3,3 v -1 C 22,3.3380017 20.661998,2 19,2 Z" />
  <path
     id="rect398"
     style="opacity:0.3;fill:#ffffff"
     d="m 2,18 v 1 c 0,1.661998 1.3380017,3 3,3 h 14 c 1.661998,0 3,-1.338002 3,-3 v -1 c 0,1.661998 -1.338002,3 -3,3 H 5 C 3.3380017,21 2,19.661998 2,18 Z" />
  <path
     id="rect899"
     style="opacity:0.5;fill:#000000;stroke:none"
     d="M 5,1 C 2.7840022,1 1,2.7840022 1,5 v 14 c 0,2.215998 1.7840022,4 4,4 h 14 c 2.215998,0 4,-1.784002 4,-4 V 5 C 23,2.7840022 21.215998,1 19,1 Z m 0,1 h 14 c 1.661998,0 3,1.3380017 3,3 v 14 c 0,1.661998 -1.338002,3 -3,3 H 5 C 3.3380017,22 2,20.661998 2,19 V 5 C 2,3.3380017 3.3380017,2 5,2 Z" />
</svg>
