<?xml version="1.0" encoding="UTF-8" standalone="no"?>
<!-- Created with Inkscape (http://www.inkscape.org/) -->

<svg
   width="24"
   height="24"
   viewBox="0 0 24 24.000001"
   version="1.1"
   id="svg5"
   sodipodi:docname="krita.svg"
   inkscape:version="1.2.1 (9c6d41e410, 2022-07-14)"
   xmlns:inkscape="http://www.inkscape.org/namespaces/inkscape"
   xmlns:sodipodi="http://sodipodi.sourceforge.net/DTD/sodipodi-0.dtd"
   xmlns:xlink="http://www.w3.org/1999/xlink"
   xmlns="http://www.w3.org/2000/svg"
   xmlns:svg="http://www.w3.org/2000/svg">
  <sodipodi:namedview
     id="namedview7"
     pagecolor="#ffffff"
     bordercolor="#666666"
     borderopacity="1.0"
     inkscape:showpageshadow="2"
     inkscape:pageopacity="0.0"
     inkscape:pagecheckerboard="0"
     inkscape:deskcolor="#d1d1d1"
     inkscape:document-units="px"
     showgrid="false"
     inkscape:zoom="33"
     inkscape:cx="11.984848"
     inkscape:cy="12"
     inkscape:window-width="1920"
     inkscape:window-height="1007"
     inkscape:window-x="0"
     inkscape:window-y="0"
     inkscape:window-maximized="1"
     inkscape:current-layer="svg5"
     showguides="false" />
  <defs
     id="defs2">
    <radialGradient
       inkscape:collect="always"
       xlink:href="#linearGradient5039"
       id="radialGradient5041"
       cx="-51.776695"
       cy="125"
       fx="-51.776695"
       fy="125"
       r="125"
       gradientUnits="userSpaceOnUse"
       gradientTransform="matrix(0,-0.168,0.168,0,1.5000007,13.801515)" />
    <linearGradient
       inkscape:collect="always"
       id="linearGradient5039">
      <stop
         style="stop-color:#f1ea8e;stop-opacity:1;"
         offset="0"
         id="stop5035" />
      <stop
         style="stop-color:#f1ea8e;stop-opacity:0.53583348;"
         offset="0.5"
         id="stop5825" />
      <stop
         style="stop-color:#f1ea8e;stop-opacity:0;"
         offset="1"
         id="stop5037" />
    </linearGradient>
    <radialGradient
       inkscape:collect="always"
       xlink:href="#linearGradient2379"
       id="radialGradient2381"
       cx="2.1663227e-14"
       cy="250"
       fx="2.1663227e-14"
       fy="250"
       r="125"
       gradientUnits="userSpaceOnUse"
       gradientTransform="matrix(0.168,0,0,0.168,1.4999997,-19.500001)" />
    <linearGradient
       inkscape:collect="always"
       id="linearGradient2379">
      <stop
         style="stop-color:#65dafa;stop-opacity:1;"
         offset="0"
         id="stop2375" />
      <stop
         style="stop-color:#65dafa;stop-opacity:0.69999999;"
         offset="0.60000002"
         id="stop5823" />
      <stop
         style="stop-color:#65dafa;stop-opacity:0;"
         offset="1"
         id="stop2377" />
    </linearGradient>
  </defs>
  <rect
     style="fill:#ed89dc;fill-opacity:1;stroke:none"
     id="rect184"
     width="21"
     height="21"
     x="1.5"
     y="1.5"
     ry="3.5" />
  <rect
     style="fill:url(#radialGradient2381);fill-opacity:1;stroke-width:0.084;stroke-linejoin:round"
     id="rect236"
     width="21"
     height="21"
     x="1.5"
     y="1.5"
     ry="3.5" />
  <rect
     style="fill:url(#radialGradient5041);fill-opacity:1;stroke-width:0.084;stroke-linejoin:round"
     id="rect2435"
     width="21"
     height="21"
     x="1.5"
     y="1.5"
     ry="3.5" />
  <path
     d="M 18.574011,6.0063348 C 17.519955,5.873466 14.770329,7.758199 12.060439,10.469157 c -1.20845,1.209182 -2.257233,2.404114 -3.0605,3.531197 0.941442,0.299945 1.700182,1.058184 1.99997,1.99997 1.126654,-0.803499 2.324298,-1.847714 3.533149,-3.056595 3.074475,-3.0757523 5.012982,-6.1227478 4.330012,-6.8065371 -0.0702,-0.0707 -0.165972,-0.1150691 -0.289059,-0.1308571 z M 8.499947,15.330412 v 0.002 C 5.000189,16.2706 7.624814,18.486796 5,20.000272 c 3.499758,0 5.24992,-1.751795 5.24992,-2.919876 0,-0.582271 0.05935,-1.653074 -1.749973,-1.749973 z"
     style="color:#444444;opacity:0.5;fill:#ffffff;stroke-width:0.999981"
     id="path11335" />
  <path
     d="M 18.574011,5.0063348 C 17.519955,4.873466 14.770329,6.758199 12.060439,9.4691573 c -1.20845,1.2091817 -2.257233,2.4041137 -3.0605,3.5311967 0.941442,0.299944 1.700182,1.058184 1.99997,1.99997 1.126654,-0.8035 2.324298,-1.847715 3.533149,-3.056595 3.074475,-3.0757523 5.012982,-6.1227478 4.330012,-6.8065371 -0.0702,-0.0707 -0.165972,-0.1150691 -0.289059,-0.1308571 z M 8.499947,14.330411 v 0.002 C 5.000189,15.270599 7.624814,17.486795 5,19.000271 c 3.499758,0 5.24992,-1.751796 5.24992,-2.919876 0,-0.582271 0.05935,-1.653075 -1.749973,-1.749973 z"
     style="color:#444444;fill:#333333;stroke-width:0.999981"
     id="path347"
     sodipodi:nodetypes="ccccccccccscc" />
  <path
     id="rect2630"
     style="fill:#ffffff;fill-opacity:1;opacity:0.3"
     d="m 4.9999999,2 c -1.6619983,0 -3,1.3380017 -3,2.9999997 v 1 c 0,-1.661998 1.3380017,-3 3,-3 H 19 c 1.661998,0 3,1.338002 3,3 v -1 C 22,3.3380017 20.661998,2 19,2 Z" />
  <path
     id="rect398"
     style="opacity:0.3;fill:#ffffff"
     d="m 2,18 v 1 c 0,1.661998 1.3380017,3 3,3 h 14 c 1.661998,0 3,-1.338002 3,-3 v -1 c 0,1.661998 -1.338002,3 -3,3 H 5 C 3.3380017,21 2,19.661998 2,18 Z" />
  <path
     id="rect899"
     style="opacity:0.5;fill:#000000;stroke:none"
     d="M 5,1 C 2.7840022,1 1,2.7840022 1,5 v 14 c 0,2.215998 1.7840022,4 4,4 h 14 c 2.215998,0 4,-1.784002 4,-4 V 5 C 23,2.7840022 21.215998,1 19,1 Z m 0,1 h 14 c 1.661998,0 3,1.3380017 3,3 v 14 c 0,1.661998 -1.338002,3 -3,3 H 5 C 3.3380017,22 2,20.661998 2,19 V 5 C 2,3.3380017 3.3380017,2 5,2 Z" />
</svg>
