<?xml version="1.0" encoding="UTF-8" standalone="no"?>
<!-- Created with Inkscape (http://www.inkscape.org/) -->

<svg
   width="24"
   height="24"
   viewBox="0 0 24 24.000001"
   version="1.1"
   id="svg5"
   sodipodi:docname="kwalletmanager.svg"
   inkscape:version="1.2.1 (9c6d41e410, 2022-07-14)"
   xmlns:inkscape="http://www.inkscape.org/namespaces/inkscape"
   xmlns:sodipodi="http://sodipodi.sourceforge.net/DTD/sodipodi-0.dtd"
   xmlns:xlink="http://www.w3.org/1999/xlink"
   xmlns="http://www.w3.org/2000/svg"
   xmlns:svg="http://www.w3.org/2000/svg">
  <sodipodi:namedview
     id="namedview7"
     pagecolor="#ffffff"
     bordercolor="#666666"
     borderopacity="1.0"
     inkscape:showpageshadow="2"
     inkscape:pageopacity="0.0"
     inkscape:pagecheckerboard="0"
     inkscape:deskcolor="#d1d1d1"
     inkscape:document-units="px"
     showgrid="false"
     inkscape:zoom="33.125"
     inkscape:cx="12.030189"
     inkscape:cy="12.030189"
     inkscape:window-width="1920"
     inkscape:window-height="1007"
     inkscape:window-x="0"
     inkscape:window-y="0"
     inkscape:window-maximized="1"
     inkscape:current-layer="svg5" />
  <defs
     id="defs2">
    <linearGradient
       inkscape:collect="always"
       xlink:href="#4852"
       id="linearGradient10386"
       x1="19"
       y1="23"
       x2="5"
       y2="1"
       gradientUnits="userSpaceOnUse" />
    <linearGradient
       inkscape:collect="always"
       id="4852">
      <stop
         style="stop-color:#333333;stop-opacity:1"
         offset="0"
         id="stop14555" />
      <stop
         style="stop-color:#666666;stop-opacity:1"
         offset="1"
         id="stop14557" />
    </linearGradient>
    <linearGradient
       inkscape:collect="always"
       xlink:href="#linearGradient5606"
       id="linearGradient5608"
       x1="10.583333"
       y1="4.4979162"
       x2="10.583333"
       y2="15.081249"
       gradientUnits="userSpaceOnUse"
       gradientTransform="matrix(0.9448819,0,0,0.9448819,2.0000004,2.75)" />
    <linearGradient
       inkscape:collect="always"
       id="linearGradient5606">
      <stop
         style="stop-color:#f4e9d3;stop-opacity:1"
         offset="0"
         id="stop5602" />
      <stop
         style="stop-color:#e3ca8e;stop-opacity:1"
         offset="1"
         id="stop5604" />
    </linearGradient>
    <linearGradient
       inkscape:collect="always"
       xlink:href="#linearGradient6552"
       id="linearGradient2807"
       x1="13"
       y1="8"
       x2="13"
       y2="18"
       gradientUnits="userSpaceOnUse"
       gradientTransform="translate(-0.99999995,-1.0000001)" />
    <linearGradient
       inkscape:collect="always"
       id="linearGradient6552">
      <stop
         style="stop-color:#e4d09b;stop-opacity:1;"
         offset="0"
         id="stop6548" />
      <stop
         style="stop-color:#f1d793;stop-opacity:0.99607843"
         offset="1"
         id="stop6550" />
    </linearGradient>
  </defs>
  <rect
     style="fill:url(#linearGradient10386);fill-opacity:1.0;stroke:none"
     id="rect184"
     width="21"
     height="21"
     x="1.5"
     y="1.5"
     ry="3.5" />
  <rect
     style="opacity:0.2;fill:#000000;fill-opacity:1;stroke-width:2;stroke-linecap:round;stroke-linejoin:round"
     id="rect3396"
     width="14"
     height="10"
     x="5"
     y="8"
     ry="1" />
  <rect
     style="fill:url(#linearGradient5608);fill-opacity:1;stroke-width:2.24999;stroke-linecap:round;stroke-linejoin:round"
     id="rect849"
     width="14"
     height="10"
     x="5"
     y="7"
     ry="1" />
  <rect
     style="fill:#25b1ef;fill-opacity:1;stroke-width:2;stroke-linecap:round;stroke-linejoin:round"
     id="rect432"
     width="12"
     height="3"
     x="6.0000005"
     y="8.000001" />
  <rect
     style="fill:#efc225;fill-opacity:1;stroke-width:2;stroke-linecap:round;stroke-linejoin:round"
     id="rect1803"
     width="12"
     height="3"
     x="6.0000005"
     y="9" />
  <rect
     style="fill:#55bf5d;fill-opacity:1;stroke-width:2;stroke-linecap:round;stroke-linejoin:round"
     id="rect2273"
     width="12"
     height="3"
     x="6.0000005"
     y="10" />
  <rect
     style="fill:#f06767;fill-opacity:1;stroke-width:2;stroke-linecap:round;stroke-linejoin:round"
     id="rect2399"
     width="12"
     height="4"
     x="6.0000005"
     y="11" />
  <path
     id="rect2858"
     style="opacity:0.2;fill:#000000;fill-opacity:1;stroke-width:2;stroke-linecap:round;stroke-linejoin:round"
     d="M 5 12 L 5 16 L 19 16 L 19 12 L 14 12 A 2 2 0 0 1 12 14 A 2 2 0 0 1 10 12 L 5 12 z " />
  <path
     id="rect2798"
     style="fill:url(#linearGradient2807);fill-opacity:1;stroke-width:2;stroke-linecap:round;stroke-linejoin:round"
     d="M 5 13 L 5 16 C 5 16.553999 5.4460006 17 6 17 L 18 17 C 18.553999 17 19 16.553999 19 16 L 19 13 L 14 13 A 2 2 0 0 1 12 15 A 2 2 0 0 1 10 13 L 5 13 z " />
  <path
     id="rect2630"
     style="fill:#ffffff;fill-opacity:1;opacity:0.3"
     d="m 4.9999999,2 c -1.6619983,0 -3,1.3380017 -3,2.9999997 v 1 c 0,-1.661998 1.3380017,-3 3,-3 H 19 c 1.661998,0 3,1.338002 3,3 v -1 C 22,3.3380017 20.661998,2 19,2 Z" />
  <path
     id="rect398"
     style="opacity:0.3;fill:#ffffff"
     d="m 2,18 v 1 c 0,1.661998 1.3380017,3 3,3 h 14 c 1.661998,0 3,-1.338002 3,-3 v -1 c 0,1.661998 -1.338002,3 -3,3 H 5 C 3.3380017,21 2,19.661998 2,18 Z" />
  <path
     id="rect899"
     style="opacity:0.5;fill:#000000;stroke:none"
     d="M 5,1 C 2.7840022,1 1,2.7840022 1,5 v 14 c 0,2.215998 1.7840022,4 4,4 h 14 c 2.215998,0 4,-1.784002 4,-4 V 5 C 23,2.7840022 21.215998,1 19,1 Z m 0,1 h 14 c 1.661998,0 3,1.3380017 3,3 v 14 c 0,1.661998 -1.338002,3 -3,3 H 5 C 3.3380017,22 2,20.661998 2,19 V 5 C 2,3.3380017 3.3380017,2 5,2 Z" />
</svg>
