<?xml version="1.0" encoding="UTF-8" standalone="no"?>
<!-- Created with Inkscape (http://www.inkscape.org/) -->

<svg
   width="24"
   height="24"
   viewBox="0 0 24 24.000001"
   version="1.1"
   id="svg5"
   sodipodi:docname="libreoffice-draw.svg"
   inkscape:version="1.2.1 (9c6d41e410, 2022-07-14)"
   xmlns:inkscape="http://www.inkscape.org/namespaces/inkscape"
   xmlns:sodipodi="http://sodipodi.sourceforge.net/DTD/sodipodi-0.dtd"
   xmlns:xlink="http://www.w3.org/1999/xlink"
   xmlns="http://www.w3.org/2000/svg"
   xmlns:svg="http://www.w3.org/2000/svg">
  <sodipodi:namedview
     id="namedview7"
     pagecolor="#ffffff"
     bordercolor="#666666"
     borderopacity="1.0"
     inkscape:showpageshadow="2"
     inkscape:pageopacity="0.0"
     inkscape:pagecheckerboard="0"
     inkscape:deskcolor="#d1d1d1"
     inkscape:document-units="px"
     showgrid="false"
     inkscape:zoom="34.208333"
     inkscape:cx="11.985384"
     inkscape:cy="12"
     inkscape:window-width="1920"
     inkscape:window-height="1007"
     inkscape:window-x="0"
     inkscape:window-y="0"
     inkscape:window-maximized="1"
     inkscape:current-layer="svg5" />
  <defs
     id="defs2">
    <linearGradient
       inkscape:collect="always"
       xlink:href="#linearGradient986"
       id="linearGradient10386"
       x1="19"
       y1="23"
       x2="5"
       y2="1"
       gradientUnits="userSpaceOnUse" />
    <linearGradient
       inkscape:collect="always"
       id="linearGradient986">
      <stop
         style="stop-color:#ffa12a;stop-opacity:1;"
         offset="0"
         id="stop982" />
      <stop
         style="stop-color:#ffdc75;stop-opacity:1;"
         offset="1"
         id="stop984" />
    </linearGradient>
  </defs>
  <rect
     style="fill:url(#linearGradient10386);fill-opacity:1;stroke:none"
     id="rect184"
     width="21"
     height="21"
     x="1.5"
     y="1.5"
     ry="3.5" />
  <path
     d="m 16.229488,8.0007078 c -0.189314,0.0059 -0.387925,0.04986 -0.583972,0.158917 -0.638456,0.355132 -0.865223,1.089073 -0.853939,1.6868171 0.01128,0.5977441 0.17071,1.1828151 0.310176,1.7365981 0.139465,0.553782 0.258049,1.077002 0.261351,1.40919 0.0017,0.166095 -0.02402,0.273848 -0.04691,0.323579 -0.02289,0.04973 -0.02521,0.05833 -0.09573,0.09382 -0.138917,0.06992 -0.179007,0.06332 -0.244119,0.04787 -0.06511,-0.01545 -0.176356,-0.07052 -0.323578,-0.204869 -0.294444,-0.268697 -0.673181,-0.820684 -1.10093,-1.42068 -0.42775,-0.599994 -0.917651,-1.256049 -1.596828,-1.740426 C 11.275833,9.6071459 10.360389,9.3326908 9.345326,9.5640339 l -0.0134,0.0029 -0.0134,0.0038 C 8.625071,9.7586129 8.122939,10.282707 7.784883,10.89185 c -0.338057,0.609144 -0.540498,1.330997 -0.639497,2.09464 -0.02247,0.173344 0.01692,0.354542 0.0048,0.531319 -0.136198,-0.0049 -0.238514,-0.04003 -0.378146,-0.04308 L 5.716083,13.451749 5.030635,13.436429 5,14.808284 l 0.686406,0.01532 1.055935,0.02297 c 0.167604,0.0037 0.258989,0.03915 0.418354,0.04595 0.0895,0.925864 0.292648,1.824047 0.748633,2.561817 l 0.0134,0.02202 0.01532,0.02011 c 0.849074,1.16963 2.210745,1.615976 3.296089,1.192835 0.542672,-0.211567 1.008432,-0.724448 1.106674,-1.368979 0.09824,-0.644532 -0.114519,-1.344003 -0.601203,-2.099426 -0.478048,-0.742042 -1.241788,-1.179378 -2.091768,-1.41685 -0.334714,-0.09351 -0.763485,-0.08052 -1.132522,-0.129239 0.0083,-0.171135 -0.03007,-0.345774 -0.0086,-0.511215 0.08178,-0.630781 0.255173,-1.205416 0.477708,-1.606402 0.220488,-0.397297 0.461238,-0.592318 0.686406,-0.655771 0.636934,-0.139599 1.049526,-0.0052 1.487692,0.307303 0.443535,0.316321 0.868771,0.848339 1.276122,1.419721 0.40735,0.571383 0.784196,1.174235 1.292396,1.637994 0.2541,0.23188 0.556503,0.437291 0.93244,0.526532 0.375937,0.08924 0.804721,0.03111 1.178474,-0.157003 0.325479,-0.163818 0.585096,-0.442429 0.724699,-0.74576 0.139603,-0.303331 0.176233,-0.614012 0.173277,-0.91138 -0.0059,-0.594735 -0.163794,-1.176221 -0.303474,-1.730854 -0.13968,-0.554632 -0.261533,-1.082023 -0.268052,-1.4273791 -0.0065,-0.345356 0.01203,-0.385588 0.148386,-0.4614341 -0.06001,0.03338 -0.03904,0.0018 0.08999,0.03638 0.129027,0.03462 0.32266,0.1225621 0.505471,0.2297591 0.365621,0.214397 0.676832,0.4796231 0.676832,0.4796231 L 18.105853,10.551994 19,9.5113749 18.480169,9.0643018 c 0,0 -0.382786,-0.332909 -0.877872,-0.623223 -0.24754,-0.145155 -0.526093,-0.286063 -0.844362,-0.371443 -0.159135,-0.04269 -0.339133,-0.07486 -0.528447,-0.06893 z M 8.538294,15.044748 c 0.225305,0.03622 0.550561,0.02844 0.740017,0.08137 0.649265,0.181396 1.049385,0.437637 1.307713,0.838622 0.372353,0.577959 0.425865,0.967624 0.39825,1.148797 -0.02762,0.181172 -0.08031,0.231044 -0.248906,0.296772 C 10.40174,17.54038 9.58683,17.398999 9.067698,16.704756 8.811433,16.280344 8.633526,15.691503 8.538294,15.044745 Z"
     style="color:#000000;fill:#000000;stroke-width:0.490153;stroke-linecap:square;-inkscape-stroke:none;opacity:0.2"
     id="path1098" />
  <path
     style="color:#000000;opacity:1;fill:#ffffff;stroke-width:0.490153;stroke-linecap:square;-inkscape-stroke:none"
     d="m 16.229488,7.0007078 c -0.189314,0.0059 -0.387925,0.04986 -0.583972,0.158917 -0.638456,0.355132 -0.865223,1.089073 -0.853939,1.686817 0.01128,0.597744 0.17071,1.1828152 0.310176,1.7365982 0.139465,0.553782 0.258049,1.077002 0.261351,1.40919 0.0017,0.166094 -0.02402,0.273847 -0.04691,0.323578 -0.02289,0.04973 -0.02521,0.05833 -0.09573,0.09382 -0.138917,0.06992 -0.179007,0.06332 -0.244119,0.04787 -0.06511,-0.01545 -0.176356,-0.07052 -0.323578,-0.204869 -0.294444,-0.268696 -0.673181,-0.820683 -1.10093,-1.420679 -0.42775,-0.599994 -0.917651,-1.2560492 -1.596828,-1.7404262 -0.679176,-0.484378 -1.59462,-0.758833 -2.609683,-0.52749 l -0.0134,0.0029 -0.0134,0.0038 C 8.625071,8.7586128 8.122939,9.2827068 7.784883,9.8918498 7.446826,10.500994 7.244385,11.222847 7.145386,11.98649 c -0.02247,0.173343 0.01692,0.354541 0.0048,0.531318 -0.136198,-0.0049 -0.238514,-0.04003 -0.378146,-0.04308 L 5.716083,12.451748 5.030635,12.436428 5,13.808283 l 0.686406,0.01532 1.055935,0.02297 c 0.167604,0.0037 0.258989,0.03915 0.418354,0.04595 0.0895,0.925864 0.292648,1.824047 0.748633,2.561817 l 0.0134,0.02202 0.01532,0.02011 c 0.849074,1.16963 2.210745,1.615976 3.296089,1.192835 0.542672,-0.211567 1.008432,-0.724448 1.106674,-1.368979 C 12.439051,15.675794 12.226292,14.976323 11.739608,14.2209 11.26156,13.478858 10.49782,13.041522 9.64784,12.80405 9.313126,12.71054 8.884355,12.72353 8.515318,12.674811 c 0.0083,-0.171135 -0.03007,-0.345774 -0.0086,-0.511215 0.08178,-0.63078 0.255173,-1.205415 0.477708,-1.606401 0.220488,-0.397297 0.461238,-0.5923182 0.686406,-0.6557712 0.636934,-0.139599 1.049526,-0.0052 1.487692,0.3073032 0.443535,0.316321 0.868771,0.848339 1.276122,1.419721 0.40735,0.571382 0.784196,1.174234 1.292396,1.637993 0.2541,0.23188 0.556503,0.437291 0.93244,0.526532 0.375937,0.08924 0.804721,0.03111 1.178474,-0.157003 0.325479,-0.163818 0.585096,-0.442429 0.724699,-0.74576 0.139603,-0.303331 0.176233,-0.614012 0.173277,-0.911379 -0.0059,-0.594735 -0.163794,-1.176221 -0.303474,-1.730854 -0.13968,-0.5546322 -0.261533,-1.0820232 -0.268052,-1.4273792 -0.0065,-0.345356 0.01203,-0.385588 0.148386,-0.461434 -0.06001,0.03338 -0.03904,0.0018 0.08999,0.03638 0.129027,0.03462 0.32266,0.122562 0.505471,0.229759 0.365621,0.214397 0.676832,0.479623 0.676832,0.479623 L 18.105853,9.5519938 19,8.5113748 18.480169,8.0643018 c 0,0 -0.382786,-0.332909 -0.877872,-0.623223 -0.24754,-0.145155 -0.526093,-0.286063 -0.844362,-0.371443 -0.159135,-0.04269 -0.339133,-0.07486 -0.528447,-0.06893 z M 8.538294,14.044747 c 0.225305,0.03622 0.550561,0.02844 0.740017,0.08137 0.649265,0.181396 1.049385,0.437637 1.307713,0.838622 0.372353,0.577959 0.425865,0.967624 0.39825,1.148797 -0.02762,0.181172 -0.08031,0.231044 -0.248906,0.296772 C 10.40174,16.540379 9.58683,16.398998 9.067698,15.704755 8.811433,15.280343 8.633526,14.691502 8.538294,14.044744 Z"
     id="path718"
     sodipodi:nodetypes="sccscscsssscccsscccccccccccssccccsccssssscscccsccccsssssccccccs" />
  <path
     id="rect2630"
     style="fill:#ffffff;fill-opacity:1;opacity:0.3"
     d="m 4.9999999,2 c -1.6619983,0 -3,1.3380017 -3,2.9999997 v 1 c 0,-1.661998 1.3380017,-3 3,-3 H 19 c 1.661998,0 3,1.338002 3,3 v -1 C 22,3.3380017 20.661998,2 19,2 Z" />
  <path
     id="rect398"
     style="opacity:0.3;fill:#ffffff"
     d="m 2,18 v 1 c 0,1.661998 1.3380017,3 3,3 h 14 c 1.661998,0 3,-1.338002 3,-3 v -1 c 0,1.661998 -1.338002,3 -3,3 H 5 C 3.3380017,21 2,19.661998 2,18 Z" />
  <path
     id="rect899"
     style="opacity:0.5;fill:#000000;stroke:none"
     d="M 5,1 C 2.7840022,1 1,2.7840022 1,5 v 14 c 0,2.215998 1.7840022,4 4,4 h 14 c 2.215998,0 4,-1.784002 4,-4 V 5 C 23,2.7840022 21.215998,1 19,1 Z m 0,1 h 14 c 1.661998,0 3,1.3380017 3,3 v 14 c 0,1.661998 -1.338002,3 -3,3 H 5 C 3.3380017,22 2,20.661998 2,19 V 5 C 2,3.3380017 3.3380017,2 5,2 Z" />
</svg>
