<?xml version="1.0" encoding="UTF-8" standalone="no"?>
<!-- Created with Inkscape (http://www.inkscape.org/) -->

<svg
   width="24"
   height="24"
   viewBox="0 0 24 24.000001"
   version="1.1"
   id="svg5"
   sodipodi:docname="libreoffice-base.svg"
   inkscape:version="1.2.1 (9c6d41e410, 2022-07-14)"
   xmlns:inkscape="http://www.inkscape.org/namespaces/inkscape"
   xmlns:sodipodi="http://sodipodi.sourceforge.net/DTD/sodipodi-0.dtd"
   xmlns:xlink="http://www.w3.org/1999/xlink"
   xmlns="http://www.w3.org/2000/svg"
   xmlns:svg="http://www.w3.org/2000/svg">
  <sodipodi:namedview
     id="namedview7"
     pagecolor="#ffffff"
     bordercolor="#666666"
     borderopacity="1.0"
     inkscape:showpageshadow="2"
     inkscape:pageopacity="0.0"
     inkscape:pagecheckerboard="0"
     inkscape:deskcolor="#d1d1d1"
     inkscape:document-units="px"
     showgrid="false"
     inkscape:zoom="17.145833"
     inkscape:cx="4.8116646"
     inkscape:cy="14.318348"
     inkscape:window-width="1920"
     inkscape:window-height="1007"
     inkscape:window-x="0"
     inkscape:window-y="0"
     inkscape:window-maximized="1"
     inkscape:current-layer="svg5"
     showguides="true" />
  <defs
     id="defs2">
    <linearGradient
       inkscape:collect="always"
       xlink:href="#linearGradient4546"
       id="linearGradient10386"
       x1="19"
       y1="23"
       x2="5"
       y2="1"
       gradientUnits="userSpaceOnUse" />
    <linearGradient
       inkscape:collect="always"
       id="linearGradient4546">
      <stop
         style="stop-color:#d55584;stop-opacity:1;"
         offset="0"
         id="stop4542" />
      <stop
         style="stop-color:#e58fc9;stop-opacity:1;"
         offset="1"
         id="stop4544" />
    </linearGradient>
  </defs>
  <rect
     style="fill:url(#linearGradient10386);fill-opacity:1.0;stroke:none"
     id="rect184"
     width="21"
     height="21"
     x="1.5"
     y="1.5"
     ry="3.5" />
  <path
     d="M 12,6 C 8.6862915,6 6,7.3431456 6,9 c 0,1.656854 2.6862915,2.999999 6,2.999999 3.313708,0 6,-1.343145 6,-2.999999 0,-1.6568544 -2.686292,-3 -6,-3 z m 5.302734,5.597655 C 15.977408,12.484465 14.040808,12.996613 12,13.000002 9.962338,12.996602 8.028398,12.486033 6.703125,11.601561 6.2448501,12.032194 6.003504,12.512206 6,13.000002 c 0,1.656853 2.6862915,2.999999 6,2.999999 3.313708,0 6,-1.343146 6,-2.999999 -4.28e-4,-0.488873 -0.239794,-0.970286 -0.697266,-1.402347 z m 0,4.000002 C 15.977408,16.484466 14.040808,16.996613 12,17.000001 9.962338,16.996601 8.028398,16.486032 6.703125,15.601563 6.2448501,16.032194 6.003504,16.512205 6,17.000001 c 0,1.656854 2.6862915,3 6,3 3.313708,0 6,-1.343146 6,-3 -4.28e-4,-0.488872 -0.239794,-0.970285 -0.697266,-1.402344 z"
     style="opacity:0.2;fill:#000000;stroke-linecap:round;stroke-linejoin:round"
     id="path7864" />
  <path
     id="path7122"
     style="fill:#ffffff;stroke-linecap:round;stroke-linejoin:round"
     d="M 12,5 C 8.6862915,5 6,6.3431458 6,8 c 0,1.6568542 2.6862915,3 6,3 3.313708,0 6,-1.3431458 6,-3 0,-1.6568542 -2.686292,-3 -6,-3 z m 5.302734,5.597656 C 15.977408,11.484465 14.040808,11.996612 12,12 9.962338,11.996615 8.028398,11.486032 6.703125,10.601562 6.2448501,11.032194 6.003504,11.512204 6,12 c 0,1.656854 2.6862915,3 6,3 3.313708,0 6,-1.343146 6,-3 -4.28e-4,-0.488872 -0.239794,-0.970285 -0.697266,-1.402344 z m 0,4 C 15.977408,15.484465 14.040808,15.996612 12,16 9.962338,15.996615 8.028398,15.486032 6.703125,14.601562 6.2448501,15.032194 6.003504,15.512204 6,16 c 0,1.656854 2.6862915,3 6,3 3.313708,0 6,-1.343146 6,-3 -4.28e-4,-0.488872 -0.239794,-0.970285 -0.697266,-1.402344 z"
     sodipodi:nodetypes="sssssccccsccccccscc" />
  <path
     id="rect2630"
     style="fill:#ffffff;fill-opacity:1;opacity:0.3"
     d="m 4.9999999,2 c -1.6619983,0 -3,1.3380017 -3,2.9999997 v 1 c 0,-1.661998 1.3380017,-3 3,-3 H 19 c 1.661998,0 3,1.338002 3,3 v -1 C 22,3.3380017 20.661998,2 19,2 Z" />
  <path
     id="rect398"
     style="opacity:0.3;fill:#ffffff"
     d="m 2,18 v 1 c 0,1.661998 1.3380017,3 3,3 h 14 c 1.661998,0 3,-1.338002 3,-3 v -1 c 0,1.661998 -1.338002,3 -3,3 H 5 C 3.3380017,21 2,19.661998 2,18 Z" />
  <path
     id="rect899"
     style="opacity:0.5;fill:#000000;stroke:none"
     d="M 5,1 C 2.7840022,1 1,2.7840022 1,5 v 14 c 0,2.215998 1.7840022,4 4,4 h 14 c 2.215998,0 4,-1.784002 4,-4 V 5 C 23,2.7840022 21.215998,1 19,1 Z m 0,1 h 14 c 1.661998,0 3,1.3380017 3,3 v 14 c 0,1.661998 -1.338002,3 -3,3 H 5 C 3.3380017,22 2,20.661998 2,19 V 5 C 2,3.3380017 3.3380017,2 5,2 Z" />
</svg>
