<?xml version="1.0" encoding="UTF-8" standalone="no"?>
<!-- Created with Inkscape (http://www.inkscape.org/) -->

<svg
   width="24"
   height="24"
   viewBox="0 0 24 24.000001"
   version="1.1"
   id="svg5"
   sodipodi:docname="lutris.svg"
   inkscape:version="1.3.2 (091e20ef0f, 2023-11-25, custom)"
   xmlns:inkscape="http://www.inkscape.org/namespaces/inkscape"
   xmlns:sodipodi="http://sodipodi.sourceforge.net/DTD/sodipodi-0.dtd"
   xmlns:xlink="http://www.w3.org/1999/xlink"
   xmlns="http://www.w3.org/2000/svg"
   xmlns:svg="http://www.w3.org/2000/svg">
  <sodipodi:namedview
     id="namedview7"
     pagecolor="#ffffff"
     bordercolor="#666666"
     borderopacity="1.0"
     inkscape:showpageshadow="2"
     inkscape:pageopacity="0.0"
     inkscape:pagecheckerboard="0"
     inkscape:deskcolor="#d1d1d1"
     inkscape:document-units="px"
     showgrid="false"
     inkscape:zoom="34.416667"
     inkscape:cx="12"
     inkscape:cy="12"
     inkscape:window-width="1920"
     inkscape:window-height="1011"
     inkscape:window-x="0"
     inkscape:window-y="0"
     inkscape:window-maximized="1"
     inkscape:current-layer="svg5" />
  <defs
     id="defs2">
    <linearGradient
       inkscape:collect="always"
       xlink:href="#linearGradient3298"
       id="linearGradient10386"
       x1="19"
       y1="23"
       x2="5"
       y2="1"
       gradientUnits="userSpaceOnUse" />
    <linearGradient
       inkscape:collect="always"
       id="linearGradient3298">
      <stop
         style="stop-color:#ff9708;stop-opacity:1;"
         offset="0"
         id="stop3294" />
      <stop
         style="stop-color:#ffc608;stop-opacity:1;"
         offset="1"
         id="stop3296" />
    </linearGradient>
  </defs>
  <rect
     style="fill:url(#linearGradient10386);stroke:none"
     id="rect184"
     width="21"
     height="21"
     x="1.5"
     y="1.5"
     ry="3.5" />
  <circle
     style="fill:#ffdfa0;fill-opacity:1;stroke-width:3.33334;stroke-linecap:round;stroke-linejoin:round"
     id="path1782"
     cx="12"
     cy="12"
     r="5" />
  <path
     d="m 11.810357,6.0000211 c -3.6795272,-0.00329 -6.7112554,3.0269683 -6.80798,6.8494889 -0.098364,3.883196 2.868967,7.11338 6.62734,7.214908 1.831018,0.04943 3.511378,-0.652942 4.76531,-1.835324 0.133882,-0.11172 0.206741,-0.181335 0.206741,-0.181335 0,0 1.411129,-1.921845 1.484107,-3.09994 -0.346965,0.573234 -0.703989,1.174695 -1.567666,1.599762 -0.396093,0.183484 -0.759151,0.339597 -1.125047,0.462951 -0.02344,0.006 -0.04694,0.01148 -0.07074,0.01718 -0.173307,0.04137 -0.354949,0.07612 -0.54535,0.102354 -0.02308,0.0032 -0.04676,0.0059 -0.07007,0.0088 -0.197472,0.02506 -0.40137,0.04329 -0.611977,0.05221 -0.02168,8.79e-4 -0.04414,6.32e-4 -0.06593,0.0014 -0.207772,0.0071 -0.420272,0.0064 -0.636016,-0.0021 -0.01408,-5.63e-4 -0.0278,-6.2e-5 -0.04189,-7.05e-4 -0.219401,-0.0097 -0.441889,-0.02962 -0.664864,-0.05564 -0.03182,-0.0036 -0.06362,-0.0062 -0.09547,-0.01022 -0.21705,-0.02758 -0.434014,-0.06402 -0.649751,-0.107142 -0.03486,-0.0069 -0.06964,-0.01386 -0.104404,-0.02129 -0.211119,-0.0448 -0.420346,-0.09738 -0.625713,-0.157294 -0.06585,-0.01922 -0.13144,-0.03899 -0.196438,-0.05975 -0.04912,-0.01569 -0.09841,-0.03081 -0.146983,-0.04739 -0.06941,-0.0237 -0.137214,-0.04935 -0.205366,-0.07486 -0.05559,-0.02083 -0.111566,-0.04116 -0.166216,-0.0632 -0.06332,-0.02555 -0.124852,-0.05319 -0.186822,-0.08036 -0.05251,-0.02309 -0.105854,-0.04521 -0.157288,-0.06943 -0.111976,-0.0527 -0.2220469,-0.107855 -0.3283055,-0.166196 -0.084574,-0.04679 -0.1650488,-0.09577 -0.2417689,-0.14699 -0.17619,-0.117654 -0.3299632,-0.247322 -0.46774,-0.383275 -0.7172928,-0.732004 -0.696591,-1.125593 -0.6589254,-1.683462 0.04746,-0.700746 0.7980364,-2.596753 2.7312138,-3.411016 1.194431,-0.421757 2.598924,-0.611179 3.773262,-0.233082 0.883365,0.199321 1.518575,0.489154 2.358617,0.785782 0,0 -0.0067,0.01462 0.225283,0.07212 1.63371,0.258802 1.450326,-1.087134 1.450326,-1.087134 l -0.128044,-0.31497 v 0 l 0.096,-0.2968799 c 0,0 -0.100702,-0.3711428 -0.08372,-0.6164256 C 18.895255,8.7163963 18.718566,8.6551431 18.665055,8.2069348 18.611601,7.7586947 18.317418,7.5801714 18.222042,7.5104983 18.126444,7.4409505 17.681031,7.1051434 17.254283,6.9376471 16.827272,6.7701484 16.395699,6.6463634 15.864114,6.7212824 c -0.05902,0.00834 -0.114884,0.017373 -0.173084,0.026102 -0.01022,-0.00326 -0.01838,-0.00699 -0.02953,-0.01029 -0.202707,-0.060201 -0.346096,-0.3882477 -0.511697,-0.3842798 -0.0126,3.038e-4 -0.02549,0.00139 -0.03846,0.00274 -0.01274,0.00134 -0.02601,0.00304 -0.03914,0.0055 H 15.0715 c -0.0133,0.00251 -0.02668,0.00587 -0.04053,0.00962 -0.01511,0.00409 -0.02964,0.00946 -0.04327,0.015799 C 14.89079,6.431525 14.831419,6.6010909 14.794711,6.712314 13.944413,6.2825003 12.993706,6.0299278 11.985504,6.002758 11.926776,6.001162 11.868764,6.000056 11.81036,6 Z m 4.010021,10.8813799 c -0.12481,0.04652 -0.260316,0.08589 -0.399742,0.122262 0.139342,-0.03634 0.275003,-0.07578 0.399742,-0.122262 z"
     style="opacity:0.2;fill:#000000;stroke-width:0.879178"
     id="path4345" />
  <path
     d="m 11.810357,5.0000203 c -3.6795268,-0.00329 -6.7112552,3.0269682 -6.8079802,6.8494887 -0.09837,3.883195 2.8689665,7.113378 6.6273402,7.214906 1.831018,0.04943 3.511378,-0.652941 4.76531,-1.835323 0.133882,-0.11172 0.206741,-0.181335 0.206741,-0.181335 0,0 1.411128,-1.921845 1.484106,-3.09994 -0.346965,0.573235 -0.703988,1.174695 -1.567665,1.599762 -0.396094,0.183484 -0.759152,0.339597 -1.125047,0.462951 -0.02344,0.006 -0.04694,0.01148 -0.07074,0.01718 -0.173308,0.04137 -0.354949,0.07612 -0.545351,0.102354 -0.02308,0.0032 -0.04676,0.0059 -0.07007,0.0088 -0.197472,0.02506 -0.401369,0.04329 -0.611976,0.05221 -0.02168,8.79e-4 -0.04414,6.32e-4 -0.06593,0.0014 -0.207772,0.0071 -0.420272,0.0064 -0.636017,-0.0021 -0.01408,-5.63e-4 -0.02779,-6.2e-5 -0.04189,-7.05e-4 -0.219401,-0.0097 -0.441889,-0.02962 -0.664864,-0.05564 -0.03182,-0.0036 -0.06363,-0.0062 -0.09547,-0.01022 -0.21705,-0.02758 -0.434014,-0.06402 -0.649752,-0.107142 -0.03486,-0.0069 -0.06964,-0.01386 -0.104403,-0.02129 -0.21112,-0.0448 -0.420346,-0.09738 -0.625713,-0.157294 -0.06585,-0.01922 -0.13144,-0.03899 -0.196438,-0.05975 -0.04912,-0.01569 -0.09841,-0.03081 -0.146983,-0.04739 -0.06941,-0.0237 -0.137208,-0.04935 -0.205366,-0.07486 -0.05559,-0.02083 -0.111565,-0.04116 -0.166217,-0.0632 -0.06333,-0.02555 -0.124857,-0.05319 -0.18682,-0.08036 -0.05251,-0.02309 -0.105854,-0.04521 -0.157289,-0.06943 -0.111975,-0.0527 -0.2220463,-0.107855 -0.3283044,-0.166196 -0.08457,-0.04679 -0.1650491,-0.09577 -0.2417697,-0.14699 -0.17619,-0.117654 -0.3299632,-0.247322 -0.4677394,-0.383274 -0.7172924,-0.732004 -0.6965906,-1.125594 -0.6589253,-1.683462 0.047462,-0.700746 0.798037,-2.596753 2.7312138,-3.4110162 1.194431,-0.4217567 2.598924,-0.6111785 3.773262,-0.2330819 0.883365,0.199321 1.518574,0.4891538 2.358616,0.7857821 0,0 -0.0067,0.01462 0.225284,0.07212 1.633709,0.258802 1.450326,-1.0871337 1.450326,-1.0871337 L 18.865792,8.874871 v 0 l 0.096,-0.2968799 c 0,0 -0.100702,-0.3711428 -0.08372,-0.6164256 0.01718,-0.2451701 -0.159505,-0.3064233 -0.213016,-0.7546317 -0.05345,-0.4482401 -0.347637,-0.6267633 -0.443013,-0.6964364 -0.0956,-0.069548 -0.54101,-0.4053549 -0.967758,-0.5728512 -0.427012,-0.1674986 -0.858584,-0.2912837 -1.39017,-0.2163647 -0.05902,0.00834 -0.114884,0.017373 -0.173083,0.026102 -0.01022,-0.00326 -0.01838,-0.00699 -0.02953,-0.01029 -0.202707,-0.060201 -0.346097,-0.3882477 -0.511697,-0.3842798 -0.0126,3.038e-4 -0.02549,0.00139 -0.03846,0.00274 -0.01274,0.00134 -0.02601,0.00304 -0.03914,0.0055 h -7.03e-4 c -0.0133,0.00251 -0.02668,0.00587 -0.04053,0.00962 -0.01511,0.00409 -0.02964,0.00946 -0.04327,0.015799 C 14.890791,5.4315238 14.831419,5.60109 14.79471,5.7123131 13.944413,5.2824994 12.993706,5.029927 11.985504,5.0027572 11.926775,5.0011676 11.868764,5.0000563 11.810359,5 Z m 4.01002,10.8813787 c -0.12481,0.04652 -0.260316,0.08589 -0.399742,0.122262 0.139342,-0.03634 0.275004,-0.07578 0.399742,-0.122262 z"
     style="fill:#ffffff;stroke-width:0.879178"
     id="path990"
     sodipodi:nodetypes="cccccccccccccscccccccscsccccccccccccsccccccccssccccccccccc" />
  <path
     id="rect2630"
     style="opacity:0.3;fill:#ffffff;fill-opacity:1"
     d="m 4.9999999,2 c -1.6619983,0 -3,1.3380017 -3,2.9999997 v 1 c 0,-1.661998 1.3380017,-3 3,-3 H 19 c 1.661998,0 3,1.338002 3,3 v -1 C 22,3.3380017 20.661998,2 19,2 Z" />
  <path
     id="rect398"
     style="opacity:0.3;fill:#ffffff"
     d="m 2,18 v 1 c 0,1.661998 1.3380017,3 3,3 h 14 c 1.661998,0 3,-1.338002 3,-3 v -1 c 0,1.661998 -1.338002,3 -3,3 H 5 C 3.3380017,21 2,19.661998 2,18 Z" />
  <path
     id="rect899"
     style="opacity:0.5;fill:#000000;stroke:none"
     d="M 5,1 C 2.7840022,1 1,2.7840022 1,5 v 14 c 0,2.215998 1.7840022,4 4,4 h 14 c 2.215998,0 4,-1.784002 4,-4 V 5 C 23,2.7840022 21.215998,1 19,1 Z m 0,1 h 14 c 1.661998,0 3,1.3380017 3,3 v 14 c 0,1.661998 -1.338002,3 -3,3 H 5 C 3.3380017,22 2,20.661998 2,19 V 5 C 2,3.3380017 3.3380017,2 5,2 Z" />
</svg>
