<?xml version="1.0" encoding="UTF-8" standalone="no"?>
<!-- Created with Inkscape (http://www.inkscape.org/) -->

<svg
   width="24"
   height="24"
   viewBox="0 0 24 24.000001"
   version="1.1"
   id="svg5"
   sodipodi:docname="mintupdate.svg"
   inkscape:version="1.2.1 (9c6d41e410, 2022-07-14)"
   xmlns:inkscape="http://www.inkscape.org/namespaces/inkscape"
   xmlns:sodipodi="http://sodipodi.sourceforge.net/DTD/sodipodi-0.dtd"
   xmlns:xlink="http://www.w3.org/1999/xlink"
   xmlns="http://www.w3.org/2000/svg"
   xmlns:svg="http://www.w3.org/2000/svg">
  <sodipodi:namedview
     id="namedview7"
     pagecolor="#ffffff"
     bordercolor="#666666"
     borderopacity="1.0"
     inkscape:showpageshadow="2"
     inkscape:pageopacity="0.0"
     inkscape:pagecheckerboard="0"
     inkscape:deskcolor="#d1d1d1"
     inkscape:document-units="px"
     showgrid="false"
     inkscape:zoom="13.19397"
     inkscape:cx="20.539686"
     inkscape:cy="18.834361"
     inkscape:window-width="1920"
     inkscape:window-height="1007"
     inkscape:window-x="0"
     inkscape:window-y="0"
     inkscape:window-maximized="1"
     inkscape:current-layer="svg5"
     showguides="false" />
  <defs
     id="defs2">
    <linearGradient
       inkscape:collect="always"
       xlink:href="#linearGradient4522"
       id="linearGradient10386"
       x1="19"
       y1="23"
       x2="5"
       y2="1"
       gradientUnits="userSpaceOnUse" />
    <linearGradient
       inkscape:collect="always"
       id="linearGradient4522">
      <stop
         style="stop-color:#579142;stop-opacity:1;"
         offset="0"
         id="stop4518" />
      <stop
         style="stop-color:#92cd50;stop-opacity:1;"
         offset="1"
         id="stop4520" />
    </linearGradient>
  </defs>
  <rect
     style="fill:url(#linearGradient10386);fill-opacity:1;stroke:none"
     id="rect184"
     width="21"
     height="21"
     x="1.5"
     y="1.5"
     ry="3.5" />
  <path
     d="m 12,5.999992 c 0,0 -1.70635,1.4168563 -6.9999387,1.9999868 C 4.9796513,13.834498 10.058247,19.299877 12,19.999872 13.826435,19.299877 19.02035,13.834498 18.999939,7.9999788 13.70635,7.4168483 12,5.999992 12,5.999992 Z"
     style="opacity:0.2;fill:#000000;stroke-width:1.39998;stroke-linecap:round;stroke-linejoin:round"
     id="path11269"
     sodipodi:nodetypes="ccccc" />
  <path
     id="rect11106"
     style="fill:#ffffff;stroke-width:1.39998;stroke-linecap:round;stroke-linejoin:round"
     d="m 12.000001,5 c 0,0 -1.70635,1.4168518 -6.9999397,1.9999828 C 4.9796513,12.834502 10.177631,18.363094 12.000001,18.999879 13.853106,18.35547 19.02035,12.834502 18.99994,6.9999828 13.70635,6.4168518 12.000001,5 12.000001,5 Z"
     sodipodi:nodetypes="ccccc" />
  <path
     d="M 12.000001,5 V 18.999879 C 13.915131,18.301146 19.020351,12.834502 18.99994,6.9999828 13.70635,6.4168518 12.000001,5 12.000001,5 Z"
     style="opacity:0.1;fill:#000000;stroke-width:1.39998;stroke-linecap:round;stroke-linejoin:round"
     id="path11356"
     sodipodi:nodetypes="cccc" />
  <path
     id="rect2630"
     style="opacity:0.3;fill:#ffffff;fill-opacity:1"
     d="m 4.9999999,2 c -1.6619983,0 -3,1.3380017 -3,2.9999997 v 1 c 0,-1.661998 1.3380017,-3 3,-3 H 19 c 1.661998,0 3,1.338002 3,3 v -1 C 22,3.3380017 20.661998,2 19,2 Z" />
  <path
     id="rect398"
     style="opacity:0.3;fill:#ffffff"
     d="m 2,18 v 1 c 0,1.661998 1.3380017,3 3,3 h 14 c 1.661998,0 3,-1.338002 3,-3 v -1 c 0,1.661998 -1.338002,3 -3,3 H 5 C 3.3380017,21 2,19.661998 2,18 Z" />
  <path
     id="rect899"
     style="opacity:0.5;fill:#000000;stroke:none"
     d="M 5,1 C 2.7840022,1 1,2.7840022 1,5 v 14 c 0,2.215998 1.7840022,4 4,4 h 14 c 2.215998,0 4,-1.784002 4,-4 V 5 C 23,2.7840022 21.215998,1 19,1 Z m 0,1 h 14 c 1.661998,0 3,1.3380017 3,3 v 14 c 0,1.661998 -1.338002,3 -3,3 H 5 C 3.3380017,22 2,20.661998 2,19 V 5 C 2,3.3380017 3.3380017,2 5,2 Z" />
</svg>
