<?xml version="1.0" encoding="UTF-8" standalone="no"?>
<!-- Created with Inkscape (http://www.inkscape.org/) -->

<svg
   width="24"
   height="24"
   viewBox="0 0 24 24.000001"
   version="1.1"
   id="svg5"
   sodipodi:docname="mintinstall.svg"
   inkscape:version="1.2.1 (9c6d41e410, 2022-07-14)"
   xmlns:inkscape="http://www.inkscape.org/namespaces/inkscape"
   xmlns:sodipodi="http://sodipodi.sourceforge.net/DTD/sodipodi-0.dtd"
   xmlns:xlink="http://www.w3.org/1999/xlink"
   xmlns="http://www.w3.org/2000/svg"
   xmlns:svg="http://www.w3.org/2000/svg">
  <sodipodi:namedview
     id="namedview7"
     pagecolor="#ffffff"
     bordercolor="#666666"
     borderopacity="1.0"
     inkscape:showpageshadow="2"
     inkscape:pageopacity="0.0"
     inkscape:pagecheckerboard="0"
     inkscape:deskcolor="#d1d1d1"
     inkscape:document-units="px"
     showgrid="false"
     inkscape:zoom="32.916667"
     inkscape:cx="11.98481"
     inkscape:cy="12"
     inkscape:window-width="1920"
     inkscape:window-height="1002"
     inkscape:window-x="0"
     inkscape:window-y="0"
     inkscape:window-maximized="1"
     inkscape:current-layer="svg5" />
  <defs
     id="defs2">
    <linearGradient
       inkscape:collect="always"
       xlink:href="#linearGradient7533"
       id="linearGradient7535"
       x1="0.71428663"
       y1="1.7142855"
       x2="0.71428663"
       y2="47.285717"
       gradientUnits="userSpaceOnUse"
       gradientTransform="matrix(0.4827586,0,0,0.4827586,0.65517199,0.17241396)" />
    <linearGradient
       inkscape:collect="always"
       id="linearGradient7533">
      <stop
         style="stop-color:#89c64b;stop-opacity:1;"
         offset="0"
         id="stop7529" />
      <stop
         style="stop-color:#6bae25;stop-opacity:1;"
         offset="1"
         id="stop7531" />
    </linearGradient>
    <linearGradient
       inkscape:collect="always"
       id="linearGradient22024">
      <stop
         style="stop-color:#dfdfdf;stop-opacity:1;"
         offset="0"
         id="stop22020" />
      <stop
         style="stop-color:#f2f2f2;stop-opacity:1;"
         offset="1"
         id="stop22022" />
    </linearGradient>
    <linearGradient
       inkscape:collect="always"
       xlink:href="#linearGradient22024"
       id="linearGradient20044"
       x1="12"
       y1="23"
       x2="12"
       y2="1"
       gradientUnits="userSpaceOnUse" />
  </defs>
  <rect
     style="fill:url(#linearGradient20044);fill-opacity:1;stroke:none"
     id="rect184"
     width="21"
     height="21"
     x="1.5"
     y="1.5"
     ry="3.5" />
  <circle
     style="fill:url(#linearGradient7535);fill-opacity:1;stroke-width:0.4375;stroke-linecap:round;stroke-linejoin:round"
     id="path943"
     cx="12"
     cy="12"
     r="7" />
  <path
     d="m 8.500212,9.0000909 c -0.276999,0 -0.5,0.223 -0.5,0.5 v 1.0000001 c 0,0.276999 0.223001,0.5 0.5,0.5 h 1 c 0.277,0 0.5,-0.223001 0.5,-0.5 V 9.5000909 c 0,-0.277 -0.223,-0.5 -0.5,-0.5 z m 2.999576,0 c -0.276999,0 -0.5,0.223 -0.5,0.5 v 1.0000001 c 0,0.276999 0.223001,0.5 0.5,0.5 h 1 c 0.277,0 0.5,-0.223001 0.5,-0.5 V 9.5000909 c 0,-0.277 -0.223,-0.5 -0.5,-0.5 z m 3,0 c -0.276999,0 -0.5,0.223 -0.5,0.5 v 1.0000001 c 0,0.276999 0.223001,0.5 0.5,0.5 h 1 c 0.277,0 0.5,-0.223001 0.5,-0.5 V 9.5000909 c 0,-0.277 -0.223,-0.5 -0.5,-0.5 z M 8.500212,11.999909 c -0.276999,0 -0.5,0.223 -0.5,0.5 v 1 c 0,0.276999 0.223001,0.5 0.5,0.5 h 1 c 0.277,0 0.5,-0.223001 0.5,-0.5 v -1 c 0,-0.277 -0.223,-0.5 -0.5,-0.5 z m 2.999576,0 c -0.276999,0 -0.5,0.223 -0.5,0.5 v 1 c 0,0.276999 0.223001,0.5 0.5,0.5 h 1 c 0.277,0 0.5,-0.223001 0.5,-0.5 v -1 c 0,-0.277 -0.223,-0.5 -0.5,-0.5 z m 3,0 c -0.276999,0 -0.5,0.223 -0.5,0.5 v 1 c 0,0.276999 0.223001,0.5 0.5,0.5 h 1 c 0.277,0 0.5,-0.223001 0.5,-0.5 v -1 c 0,-0.277 -0.223,-0.5 -0.5,-0.5 z m -5.999576,3 c -0.276999,0 -0.5,0.223 -0.5,0.5 v 1 c 0,0.276999 0.223001,0.5 0.5,0.5 h 1 c 0.277,0 0.5,-0.223001 0.5,-0.5 v -1 c 0,-0.277 -0.223,-0.5 -0.5,-0.5 z m 2.999576,0 c -0.276999,0 -0.5,0.223 -0.5,0.5 v 1 c 0,0.276999 0.223001,0.5 0.5,0.5 h 1 c 0.277,0 0.5,-0.223001 0.5,-0.5 v -1 c 0,-0.277 -0.223,-0.5 -0.5,-0.5 z m 3,0 c -0.276999,0 -0.5,0.223 -0.5,0.5 v 1 c 0,0.276999 0.223001,0.5 0.5,0.5 h 1 c 0.277,0 0.5,-0.223001 0.5,-0.5 v -1 c 0,-0.277 -0.223,-0.5 -0.5,-0.5 z"
     style="opacity:0.2;fill:#000000;stroke-width:0.5;stroke-linejoin:round"
     id="path6678"
     sodipodi:nodetypes="sssssssssssssssssssssssssssssssssssssssssssssssssssssssssssssssssssssssssssssssss" />
  <path
     id="rect3628"
     style="fill:#f2f2f2;stroke-width:0.5;stroke-linejoin:round"
     d="m 8.500212,8.0000909 c -0.276999,0 -0.5,0.223 -0.5,0.5 v 1 c 0,0.276999 0.223001,0.5000001 0.5,0.5000001 h 1 c 0.277,0 0.5,-0.2230011 0.5,-0.5000001 v -1 c 0,-0.277 -0.223,-0.5 -0.5,-0.5 z m 2.999576,0 c -0.276999,0 -0.5,0.223 -0.5,0.5 v 1 c 0,0.276999 0.223001,0.5000001 0.5,0.5000001 h 1 c 0.277,0 0.5,-0.2230011 0.5,-0.5000001 v -1 c 0,-0.277 -0.223,-0.5 -0.5,-0.5 z m 3,0 c -0.276999,0 -0.5,0.223 -0.5,0.5 v 1 c 0,0.276999 0.223001,0.5000001 0.5,0.5000001 h 1 c 0.277,0 0.5,-0.2230011 0.5,-0.5000001 v -1 c 0,-0.277 -0.223,-0.5 -0.5,-0.5 z M 8.500212,10.999909 c -0.276999,0 -0.5,0.223 -0.5,0.5 v 1 c 0,0.277 0.223001,0.5 0.5,0.5 h 1 c 0.277,0 0.5,-0.223 0.5,-0.5 v -1 c 0,-0.277 -0.223,-0.5 -0.5,-0.5 z m 2.999576,0 c -0.276999,0 -0.5,0.223 -0.5,0.5 v 1 c 0,0.277 0.223001,0.5 0.5,0.5 h 1 c 0.277,0 0.5,-0.223 0.5,-0.5 v -1 c 0,-0.277 -0.223,-0.5 -0.5,-0.5 z m 3,0 c -0.276999,0 -0.5,0.223 -0.5,0.5 v 1 c 0,0.277 0.223001,0.5 0.5,0.5 h 1 c 0.277,0 0.5,-0.223 0.5,-0.5 v -1 c 0,-0.277 -0.223,-0.5 -0.5,-0.5 z m -5.999576,3 c -0.276999,0 -0.5,0.223 -0.5,0.5 v 1 c 0,0.277 0.223001,0.5 0.5,0.5 h 1 c 0.277,0 0.5,-0.223 0.5,-0.5 v -1 c 0,-0.277 -0.223,-0.5 -0.5,-0.5 z m 2.999576,0 c -0.276999,0 -0.5,0.223 -0.5,0.5 v 1 c 0,0.277 0.223001,0.5 0.5,0.5 h 1 c 0.277,0 0.5,-0.223 0.5,-0.5 v -1 c 0,-0.277 -0.223,-0.5 -0.5,-0.5 z m 3,0 c -0.276999,0 -0.5,0.223 -0.5,0.5 v 1 c 0,0.277 0.223001,0.5 0.5,0.5 h 1 c 0.277,0 0.5,-0.223 0.5,-0.5 v -1 c 0,-0.277 -0.223,-0.5 -0.5,-0.5 z"
     sodipodi:nodetypes="sssssssssssssssssssssssssssssssssssssssssssssssssssssssssssssssssssssssssssssssss" />
  <path
     id="path27306"
     style="opacity:0.2;fill:#000000;stroke-linejoin:round"
     d="M 12 5 A 7 7 0 0 0 5 12 A 7 7 0 0 0 5.0351562 12.5 A 7 7 0 0 1 12 6 A 7 7 0 0 1 18.972656 12.390625 A 7 7 0 0 0 19 12 A 7 7 0 0 0 12 5 z " />
  <path
     id="rect2630"
     style="fill:#ffffff;fill-opacity:1;opacity:0.3"
     d="m 4.9999999,2 c -1.6619983,0 -3,1.3380017 -3,2.9999997 v 1 c 0,-1.661998 1.3380017,-3 3,-3 H 19 c 1.661998,0 3,1.338002 3,3 v -1 C 22,3.3380017 20.661998,2 19,2 Z" />
  <path
     id="rect398"
     style="opacity:0.3;fill:#ffffff"
     d="m 2,18 v 1 c 0,1.661998 1.3380017,3 3,3 h 14 c 1.661998,0 3,-1.338002 3,-3 v -1 c 0,1.661998 -1.338002,3 -3,3 H 5 C 3.3380017,21 2,19.661998 2,18 Z" />
  <path
     id="rect899"
     style="opacity:0.5;fill:#000000;stroke:none"
     d="M 5,1 C 2.7840022,1 1,2.7840022 1,5 v 14 c 0,2.215998 1.7840022,4 4,4 h 14 c 2.215998,0 4,-1.784002 4,-4 V 5 C 23,2.7840022 21.215998,1 19,1 Z m 0,1 h 14 c 1.661998,0 3,1.3380017 3,3 v 14 c 0,1.661998 -1.338002,3 -3,3 H 5 C 3.3380017,22 2,20.661998 2,19 V 5 C 2,3.3380017 3.3380017,2 5,2 Z" />
</svg>
