<?xml version="1.0" encoding="UTF-8" standalone="no"?>
<!-- Created with Inkscape (http://www.inkscape.org/) -->

<svg
   width="24"
   height="24"
   viewBox="0 0 24 24.000001"
   version="1.1"
   id="svg5"
   sodipodi:docname="mousepad.svg"
   inkscape:version="1.3.2 (091e20ef0f, 2023-11-25, custom)"
   xmlns:inkscape="http://www.inkscape.org/namespaces/inkscape"
   xmlns:sodipodi="http://sodipodi.sourceforge.net/DTD/sodipodi-0.dtd"
   xmlns:xlink="http://www.w3.org/1999/xlink"
   xmlns="http://www.w3.org/2000/svg"
   xmlns:svg="http://www.w3.org/2000/svg">
  <sodipodi:namedview
     id="namedview7"
     pagecolor="#ffffff"
     bordercolor="#666666"
     borderopacity="1.0"
     inkscape:showpageshadow="2"
     inkscape:pageopacity="0.0"
     inkscape:pagecheckerboard="0"
     inkscape:deskcolor="#d1d1d1"
     inkscape:document-units="px"
     showgrid="false"
     inkscape:zoom="35.208333"
     inkscape:cx="12"
     inkscape:cy="12"
     inkscape:window-width="1920"
     inkscape:window-height="1019"
     inkscape:window-x="0"
     inkscape:window-y="0"
     inkscape:window-maximized="1"
     inkscape:current-layer="svg5" />
  <defs
     id="defs2">
    <linearGradient
       inkscape:collect="always"
       xlink:href="#linearGradient3"
       id="linearGradient16885"
       x1="20"
       y1="24"
       x2="6"
       y2="2"
       gradientUnits="userSpaceOnUse"
       gradientTransform="translate(-0.9999999,-1.0000001)" />
    <linearGradient
       inkscape:collect="always"
       id="linearGradient3">
      <stop
         style="stop-color:#3c7cbd;stop-opacity:1;"
         offset="0"
         id="stop2" />
      <stop
         style="stop-color:#79a8d7;stop-opacity:1;"
         offset="1"
         id="stop3" />
    </linearGradient>
  </defs>
  <rect
     style="fill:url(#linearGradient16885);stroke:none"
     id="rect184"
     width="21"
     height="21"
     x="1.5"
     y="1.5"
     ry="3.5" />
  <path
     d="m 17.979623,6.3128026 c -0.391737,-0.3917368 -1.022477,-0.3917367 -1.414214,0 l -0.707106,0.7071068 2.12132,2.1213204 0.707107,-0.7071067 c 0.391737,-0.3917368 0.391736,-1.0224773 0,-1.4142137 z m -2.828427,1.4142136 -9.071068,9.0710688 -1.06066,3.18198 3.18198,-1.06066 9.071068,-9.0710684 z"
     style="opacity:0.2;fill:#000000;stroke-linecap:round;stroke-linejoin:round"
     id="path483" />
  <path
     id="rect371"
     style="fill:#ffffff;stroke-linecap:round;stroke-linejoin:round"
     d="m 17.979623,5.3132704 c -0.391737,-0.3917368 -1.022477,-0.3917367 -1.414214,0 l -0.707106,0.7071068 2.12132,2.1213203 0.707107,-0.7071067 c 0.391737,-0.3917368 0.391736,-1.0224772 0,-1.4142136 z m -2.828427,1.4142136 -9.0710682,9.071068 -1.0606602,3.18198 3.1819805,-1.06066 9.0710679,-9.0710677 z"
     sodipodi:nodetypes="ssccssscccccc" />
  <path
     id="rect2630"
     style="opacity:0.2;fill:#ffffff;fill-opacity:1"
     d="m 4.9999999,2 c -1.6619983,0 -3,1.3380017 -3,2.9999997 v 1 c 0,-1.661998 1.3380017,-3 3,-3 H 19 c 1.661998,0 3,1.338002 3,3 v -1 C 22,3.3380017 20.661998,2 19,2 Z" />
  <path
     id="rect398"
     style="opacity:0.2;fill:#ffffff"
     d="m 2,18 v 1 c 0,1.661998 1.3380017,3 3,3 h 14 c 1.661998,0 3,-1.338002 3,-3 v -1 c 0,1.661998 -1.338002,3 -3,3 H 5 C 3.3380017,21 2,19.661998 2,18 Z" />
  <path
     id="rect899"
     style="opacity:0.5;fill:#000000;stroke:none"
     d="M 5,1 C 2.7840022,1 1,2.7840022 1,5 v 14 c 0,2.215998 1.7840022,4 4,4 h 14 c 2.215998,0 4,-1.784002 4,-4 V 5 C 23,2.7840022 21.215998,1 19,1 Z m 0,1 h 14 c 1.661998,0 3,1.3380017 3,3 v 14 c 0,1.661998 -1.338002,3 -3,3 H 5 C 3.3380017,22 2,20.661998 2,19 V 5 C 2,3.3380017 3.3380017,2 5,2 Z" />
</svg>
