<?xml version="1.0" encoding="UTF-8" standalone="no"?>
<!-- Created with Inkscape (http://www.inkscape.org/) -->

<svg
   width="24"
   height="24"
   viewBox="0 0 24 24.000001"
   version="1.1"
   id="svg5"
   sodipodi:docname="mpv.svg"
   inkscape:version="1.2.1 (9c6d41e410, 2022-07-14)"
   xmlns:inkscape="http://www.inkscape.org/namespaces/inkscape"
   xmlns:sodipodi="http://sodipodi.sourceforge.net/DTD/sodipodi-0.dtd"
   xmlns:xlink="http://www.w3.org/1999/xlink"
   xmlns="http://www.w3.org/2000/svg"
   xmlns:svg="http://www.w3.org/2000/svg">
  <sodipodi:namedview
     id="namedview7"
     pagecolor="#ffffff"
     bordercolor="#666666"
     borderopacity="1.0"
     inkscape:showpageshadow="2"
     inkscape:pageopacity="0.0"
     inkscape:pagecheckerboard="0"
     inkscape:deskcolor="#d1d1d1"
     inkscape:document-units="px"
     showgrid="false"
     inkscape:zoom="33"
     inkscape:cx="11.984848"
     inkscape:cy="12"
     inkscape:window-width="1920"
     inkscape:window-height="1007"
     inkscape:window-x="0"
     inkscape:window-y="0"
     inkscape:window-maximized="1"
     inkscape:current-layer="svg5" />
  <defs
     id="defs2">
    <linearGradient
       inkscape:collect="always"
       xlink:href="#linearGradient6304"
       id="linearGradient10386"
       x1="19"
       y1="23"
       x2="5"
       y2="1"
       gradientUnits="userSpaceOnUse" />
    <linearGradient
       inkscape:collect="always"
       id="linearGradient6304">
      <stop
         style="stop-color:#8d348e;stop-opacity:1;"
         offset="0"
         id="stop6300" />
      <stop
         style="stop-color:#c275c3;stop-opacity:1;"
         offset="1"
         id="stop6302" />
    </linearGradient>
  </defs>
  <rect
     style="fill:url(#linearGradient10386);fill-opacity:1.0;stroke:none"
     id="rect184"
     width="21"
     height="21"
     x="1.5"
     y="1.5"
     ry="3.5" />
  <path
     id="path4659"
     style="opacity:0.2;fill:#000000;stroke-width:1.4;stroke-linejoin:round"
     d="m 12,5.9999997 c -3.865988,0 -7,3.1340107 -7,6.9999993 0,3.86599 3.134012,7 7,7 3.86599,0 7,-3.13401 7,-7 0,-3.8659886 -3.13401,-6.9999993 -7,-6.9999993 z m -2.275391,3 c 0.127253,-0.0048 0.259944,0.0252 0.384766,0.097656 l 5.5,3.1992193 c 0.521955,0.303008 0.521955,1.103241 0,1.40625 l -5.5,3.199219 C 9.610085,17.192169 9.000853,16.805544 9,16.199219 V 9.8007814 C 9.000675,9.3460334 9.342851,9.0144045 9.724609,8.9999997 Z" />
  <path
     id="path4648"
     style="fill:#ffffff;stroke-width:1.4;stroke-linejoin:round"
     d="m 12,4.9999997 c -3.86599,0 -7,3.1340107 -7,6.9999993 0,3.86599 3.13401,7 7,7 3.86599,0 7,-3.13401 7,-7 0,-3.8659886 -3.13401,-6.9999993 -7,-6.9999993 z m -2.275391,3 c 0.127253,-0.0048 0.259944,0.0252 0.384766,0.097656 l 5.5,3.1992183 c 0.521955,0.303008 0.521955,1.103241 0,1.40625 l -5.5,3.199219 C 9.610085,16.192168 9.000853,15.805543 9,15.199218 V 8.8007809 C 9.000675,8.3460338 9.342851,8.0144045 9.724609,7.9999997 Z" />
  <path
     id="rect2630"
     style="fill:#ffffff;fill-opacity:1;opacity:0.3"
     d="m 4.9999999,2 c -1.6619983,0 -3,1.3380017 -3,2.9999997 v 1 c 0,-1.661998 1.3380017,-3 3,-3 H 19 c 1.661998,0 3,1.338002 3,3 v -1 C 22,3.3380017 20.661998,2 19,2 Z" />
  <path
     id="rect398"
     style="opacity:0.3;fill:#ffffff"
     d="m 2,18 v 1 c 0,1.661998 1.3380017,3 3,3 h 14 c 1.661998,0 3,-1.338002 3,-3 v -1 c 0,1.661998 -1.338002,3 -3,3 H 5 C 3.3380017,21 2,19.661998 2,18 Z" />
  <path
     id="rect899"
     style="opacity:0.5;fill:#000000;stroke:none"
     d="M 5,1 C 2.7840022,1 1,2.7840022 1,5 v 14 c 0,2.215998 1.7840022,4 4,4 h 14 c 2.215998,0 4,-1.784002 4,-4 V 5 C 23,2.7840022 21.215998,1 19,1 Z m 0,1 h 14 c 1.661998,0 3,1.3380017 3,3 v 14 c 0,1.661998 -1.338002,3 -3,3 H 5 C 3.3380017,22 2,20.661998 2,19 V 5 C 2,3.3380017 3.3380017,2 5,2 Z" />
</svg>
