<?xml version="1.0" encoding="UTF-8" standalone="no"?>
<!-- Created with Inkscape (http://www.inkscape.org/) -->

<svg
   width="24"
   height="24"
   viewBox="0 0 24 24.000001"
   version="1.1"
   id="svg5"
   sodipodi:docname="multimedia-video-player.svg"
   inkscape:version="1.2.1 (9c6d41e410, 2022-07-14)"
   xmlns:inkscape="http://www.inkscape.org/namespaces/inkscape"
   xmlns:sodipodi="http://sodipodi.sourceforge.net/DTD/sodipodi-0.dtd"
   xmlns:xlink="http://www.w3.org/1999/xlink"
   xmlns="http://www.w3.org/2000/svg"
   xmlns:svg="http://www.w3.org/2000/svg">
  <sodipodi:namedview
     id="namedview7"
     pagecolor="#ffffff"
     bordercolor="#666666"
     borderopacity="1.0"
     inkscape:showpageshadow="2"
     inkscape:pageopacity="0.0"
     inkscape:pagecheckerboard="0"
     inkscape:deskcolor="#d1d1d1"
     inkscape:document-units="px"
     showgrid="false"
     inkscape:zoom="16.5"
     inkscape:cx="9.8484848"
     inkscape:cy="14.242424"
     inkscape:window-width="1920"
     inkscape:window-height="1007"
     inkscape:window-x="0"
     inkscape:window-y="0"
     inkscape:window-maximized="1"
     inkscape:current-layer="svg5" />
  <defs
     id="defs2">
    <linearGradient
       inkscape:collect="always"
       xlink:href="#linearGradient3229"
       id="linearGradient10386"
       x1="19"
       y1="23"
       x2="5"
       y2="1"
       gradientUnits="userSpaceOnUse" />
    <linearGradient
       inkscape:collect="always"
       id="linearGradient3229">
      <stop
         style="stop-color:#9244da;stop-opacity:1;"
         offset="0"
         id="stop3225" />
      <stop
         style="stop-color:#be7ce1;stop-opacity:1;"
         offset="1"
         id="stop3227" />
    </linearGradient>
  </defs>
  <rect
     style="fill:url(#linearGradient10386);fill-opacity:1.0;stroke:none"
     id="rect184"
     width="21"
     height="21"
     x="1.5"
     y="1.5"
     ry="3.5" />
  <path
     d="M 8.7418775,7.1483896 C 7.9572796,6.7114633 7.0014135,7.2917203 7,8.2057937 v 9.6488113 c 0.00134,0.914073 0.9572796,1.494333 1.7418775,1.057405 l 8.6429595,-4.822518 c 0.820217,-0.456799 0.820217,-1.661786 0,-2.118584 z"
     style="color:#000000;opacity:0.2;fill:#000000;fill-opacity:1;stroke-width:1.91139;stroke-linecap:round;stroke-linejoin:round;stroke-miterlimit:1"
     id="path11211" />
  <path
     d="M 8.7418775,6.1483904 C 7.9572796,5.7114634 7.0014135,6.2917205 7,7.2057938 v 9.6488112 c 0.00134,0.914072 0.9572796,1.494333 1.7418775,1.057405 l 8.6429595,-4.822517 c 0.820217,-0.456801 0.820217,-1.661786 0,-2.118586 z"
     style="color:#000000;fill:#ffffff;fill-opacity:1;stroke-width:1.91139;stroke-linecap:round;stroke-linejoin:round;stroke-miterlimit:1"
     id="path11025"
     sodipodi:nodetypes="ccccccc" />
  <path
     id="rect2630"
     style="fill:#ffffff;fill-opacity:1;opacity:0.3"
     d="m 4.9999999,2 c -1.6619983,0 -3,1.3380017 -3,2.9999997 v 1 c 0,-1.661998 1.3380017,-3 3,-3 H 19 c 1.661998,0 3,1.338002 3,3 v -1 C 22,3.3380017 20.661998,2 19,2 Z" />
  <path
     id="rect398"
     style="opacity:0.3;fill:#ffffff"
     d="m 2,18 v 1 c 0,1.661998 1.3380017,3 3,3 h 14 c 1.661998,0 3,-1.338002 3,-3 v -1 c 0,1.661998 -1.338002,3 -3,3 H 5 C 3.3380017,21 2,19.661998 2,18 Z" />
  <path
     id="rect899"
     style="opacity:0.5;fill:#000000;stroke:none"
     d="M 5,1 C 2.7840022,1 1,2.7840022 1,5 v 14 c 0,2.215998 1.7840022,4 4,4 h 14 c 2.215998,0 4,-1.784002 4,-4 V 5 C 23,2.7840022 21.215998,1 19,1 Z m 0,1 h 14 c 1.661998,0 3,1.3380017 3,3 v 14 c 0,1.661998 -1.338002,3 -3,3 H 5 C 3.3380017,22 2,20.661998 2,19 V 5 C 2,3.3380017 3.3380017,2 5,2 Z" />
</svg>
