<?xml version="1.0" encoding="UTF-8" standalone="no"?>
<!-- Created with Inkscape (http://www.inkscape.org/) -->

<svg
   width="24"
   height="24"
   viewBox="0 0 24 24.000001"
   version="1.1"
   id="svg5"
   sodipodi:docname="office-address-book.svg"
   inkscape:version="1.2.1 (9c6d41e410, 2022-07-14)"
   xmlns:inkscape="http://www.inkscape.org/namespaces/inkscape"
   xmlns:sodipodi="http://sodipodi.sourceforge.net/DTD/sodipodi-0.dtd"
   xmlns:xlink="http://www.w3.org/1999/xlink"
   xmlns="http://www.w3.org/2000/svg"
   xmlns:svg="http://www.w3.org/2000/svg">
  <sodipodi:namedview
     id="namedview7"
     pagecolor="#ffffff"
     bordercolor="#666666"
     borderopacity="1.0"
     inkscape:showpageshadow="2"
     inkscape:pageopacity="0.0"
     inkscape:pagecheckerboard="0"
     inkscape:deskcolor="#d1d1d1"
     inkscape:document-units="px"
     showgrid="false"
     inkscape:zoom="18.659091"
     inkscape:cx="2.3580999"
     inkscape:cy="13.049939"
     inkscape:window-width="1920"
     inkscape:window-height="1007"
     inkscape:window-x="0"
     inkscape:window-y="0"
     inkscape:window-maximized="1"
     inkscape:current-layer="svg5"
     showguides="false" />
  <defs
     id="defs2">
    <linearGradient
       inkscape:collect="always"
       xlink:href="#linearGradient8443"
       id="linearGradient10386"
       x1="19"
       y1="23"
       x2="5"
       y2="1"
       gradientUnits="userSpaceOnUse" />
    <linearGradient
       inkscape:collect="always"
       id="linearGradient8443">
      <stop
         style="stop-color:#3465c4;stop-opacity:1;"
         offset="0"
         id="stop8439" />
      <stop
         style="stop-color:#68b4f7;stop-opacity:1;"
         offset="1"
         id="stop8441" />
    </linearGradient>
  </defs>
  <rect
     style="fill:url(#linearGradient10386);fill-opacity:1;stroke:none"
     id="rect184"
     width="21"
     height="21"
     x="1.5"
     y="1.5"
     ry="3.5" />
  <path
     id="rect294"
     style="fill:#8ace64;fill-opacity:1;stroke-width:1.65803;stroke-linecap:round;stroke-linejoin:round"
     d="M 19,1.5 V 10 h 3.5 V 5 C 22.5,3.0610019 20.938998,1.5 19,1.5 Z"
     sodipodi:nodetypes="cccsc" />
  <rect
     style="fill:#e65b5b;fill-opacity:1;stroke-width:0.669244;stroke-linecap:round;stroke-linejoin:round"
     id="rect956"
     width="3.5"
     height="8"
     x="19"
     y="8" />
  <path
     id="rect1736"
     style="fill:#e6b45b;fill-opacity:1;stroke-width:1.4359;stroke-linecap:round;stroke-linejoin:round"
     inkscape:label="rect1736"
     d="m 19,15 v 7.5 c 1.938998,0 3.5,-1.561002 3.5,-3.5 v -4 z" />
  <path
     id="rect4024"
     style="opacity:0.2;fill:#000000;fill-opacity:1;stroke-width:1.55556;stroke-linecap:round;stroke-linejoin:round"
     d="m 19,8 v 1 h 3.5 V 8 Z m 0,7 v 1 h 3.5 v -1 z"
     sodipodi:nodetypes="cccccccccc" />
  <path
     d="m 11,7 c -3.313709,0 -6,2.6862917 -6,6.000001 0.003,3.28416 2.645752,5.955656 5.929687,5.994141 0.0231,0.0032 0.0463,0.0059 0.07031,0.0059 h 4.500001 c 0.276999,0 0.5,-0.223 0.5,-0.5 0,-0.277 -0.223001,-0.5 -0.5,-0.5 h -4.5 c -2.761424,0 -5,-2.238577 -5,-5 0,-2.761425 2.238576,-5.0000009 5,-5.0000009 2.761424,0 5,2.2385759 5,5.0000009 v 1 c 0,0.553998 -0.446002,1 -1,1 -0.553998,0 -1,-0.446002 -1,-1 v -1 c 0,-1.656855 -1.343146,-3.000001 -3,-3.000001 -1.656854,0 -3,1.343146 -3,3.000001 0,1.656854 1.343146,3 3,3 0.863279,-3.44e-4 1.684569,-0.372558 2.253906,-1.021484 0.341637,0.610537 0.994016,1.021484 1.746094,1.021484 1.107998,0 2,-0.892002 2,-2 v -1 C 16.999998,9.6862917 14.313706,7 10.999998,7 Z m 0,4 c 1.104569,0 2,0.895431 2,2.000001 0,1.104569 -0.895431,2 -2,2 -1.10457,0 -2,-0.895431 -2,-2 C 9,11.895431 9.89543,11 11,11 Z"
     style="opacity:0.2;fill:#000000;stroke-linecap:round;stroke-linejoin:round"
     id="path6746" />
  <path
     id="path6522"
     style="fill:#ffffff;stroke-linecap:round;stroke-linejoin:round"
     d="M 11,6 C 7.6862915,6 5,8.6862915 5,12 5.00298,15.28416 7.6457516,17.955656 10.929688,17.994141 10.952783,17.997383 10.975983,18 11,18 h 4.5 C 15.777,18 16,17.777 16,17.5 16,17.223 15.777,17 15.5,17 H 11 C 8.2385763,17 6,14.761424 6,12 6,9.2385763 8.2385763,7 11,7 c 2.761424,0 5,2.2385763 5,5 v 1 c 0,0.553998 -0.446002,1 -1,1 -0.553998,0 -1,-0.446002 -1,-1 v -1 c 0,-1.656854 -1.343146,-3 -3,-3 -1.6568542,0 -3,1.343146 -3,3 0,1.656854 1.3431458,3 3,3 0.863279,-3.44e-4 1.684569,-0.372557 2.253906,-1.021484 C 13.595543,14.589053 14.247922,15 15,15 c 1.107998,0 2,-0.892002 2,-2 V 12 C 17,8.6862915 14.313708,6 11,6 Z m 0,4 c 1.104569,0 2,0.895431 2,2 0,1.104569 -0.895431,2 -2,2 -1.1045695,0 -2,-0.895431 -2,-2 0,-1.104569 0.8954305,-2 2,-2 z"
     sodipodi:nodetypes="sccssssssssssssssccsssssssss" />
  <path
     id="rect2630"
     style="opacity:0.3;fill:#ffffff;fill-opacity:1"
     d="m 4.9999999,2 c -1.6619983,0 -3,1.3380017 -3,2.9999997 v 1 c 0,-1.661998 1.3380017,-3 3,-3 H 19 c 1.661998,0 3,1.338002 3,3 v -1 C 22,3.3380017 20.661998,2 19,2 Z" />
  <path
     id="rect398"
     style="opacity:0.3;fill:#ffffff"
     d="m 2,18 v 1 c 0,1.661998 1.3380017,3 3,3 h 14 c 1.661998,0 3,-1.338002 3,-3 v -1 c 0,1.661998 -1.338002,3 -3,3 H 5 C 3.3380017,21 2,19.661998 2,18 Z" />
  <path
     id="rect899"
     style="opacity:0.5;fill:#000000;stroke:none"
     d="M 5,1 C 2.7840022,1 1,2.7840022 1,5 v 14 c 0,2.215998 1.7840022,4 4,4 h 14 c 2.215998,0 4,-1.784002 4,-4 V 5 C 23,2.7840022 21.215998,1 19,1 Z m 0,1 h 14 c 1.661998,0 3,1.3380017 3,3 v 14 c 0,1.661998 -1.338002,3 -3,3 H 5 C 3.3380017,22 2,20.661998 2,19 V 5 C 2,3.3380017 3.3380017,2 5,2 Z" />
</svg>
