<?xml version="1.0" encoding="UTF-8" standalone="no"?>
<!-- Created with Inkscape (http://www.inkscape.org/) -->

<svg
   width="24"
   height="24"
   viewBox="0 0 24 24.000001"
   version="1.1"
   id="svg5"
   sodipodi:docname="plasma.svg"
   inkscape:version="1.2 (dc2aedaf03, 2022-05-15)"
   xmlns:inkscape="http://www.inkscape.org/namespaces/inkscape"
   xmlns:sodipodi="http://sodipodi.sourceforge.net/DTD/sodipodi-0.dtd"
   xmlns:xlink="http://www.w3.org/1999/xlink"
   xmlns="http://www.w3.org/2000/svg"
   xmlns:svg="http://www.w3.org/2000/svg">
  <sodipodi:namedview
     id="namedview7"
     pagecolor="#ffffff"
     bordercolor="#666666"
     borderopacity="1.0"
     inkscape:showpageshadow="2"
     inkscape:pageopacity="0.0"
     inkscape:pagecheckerboard="0"
     inkscape:deskcolor="#d1d1d1"
     inkscape:document-units="px"
     showgrid="false"
     inkscape:zoom="33.416667"
     inkscape:cx="11.985037"
     inkscape:cy="12"
     inkscape:window-width="1920"
     inkscape:window-height="991"
     inkscape:window-x="0"
     inkscape:window-y="0"
     inkscape:window-maximized="1"
     inkscape:current-layer="svg5" />
  <defs
     id="defs2">
    <linearGradient
       inkscape:collect="always"
       id="linearGradient1348">
      <stop
         style="stop-color:#2da4e8;stop-opacity:1;"
         offset="0"
         id="stop1344" />
      <stop
         style="stop-color:#67c0f0;stop-opacity:1;"
         offset="1"
         id="stop1346" />
    </linearGradient>
    <linearGradient
       inkscape:collect="always"
       xlink:href="#linearGradient1348"
       id="linearGradient10386"
       x1="19"
       y1="23"
       x2="5"
       y2="1"
       gradientUnits="userSpaceOnUse" />
  </defs>
  <rect
     style="fill:url(#linearGradient10386);fill-opacity:1.0;stroke:none"
     id="rect184"
     width="21"
     height="21"
     x="1.5"
     y="1.5"
     ry="3.5" />
  <path
     d="M 8,6 C 7.446,6 7,6.446 7,7.0000001 c 0,0.554 0.446,1 1,1 0.554,0 1,-0.446 1,-1 C 9,6.446 8.554,6 8,6 Z M 14,6 12,8.0000001 15,11 l -3,3.000001 2,2 3,-3 L 19,11 17,8.9999997 Z M 6.5,11 C 5.6690062,11 5.0000002,11.668993 5.0000002,12.5 5.0000002,13.330994 5.6690062,14 6.5,14 7.331006,14 8,13.330994 8,12.5 8,11.668993 7.331006,11 6.5,11 Z m 3.5,5.000001 c -1.108,0 -2,0.892 -2,1.999999 0,1.108001 0.892,2 2,2 1.108,0 2,-0.891999 2,-2 0,-1.107999 -0.892,-1.999999 -2,-1.999999 z"
     style="fill:#000000;opacity:0.2"
     id="path3331" />
  <path
     d="m 7.9999998,5.0000001 c -0.554,0 -1,0.446 -1,1 0,0.554 0.446,1 1,1 0.554,0 1,-0.446 1,-1 0,-0.554 -0.446,-1 -1,-1 z m 6.0000002,0 -2,2 L 15,10 l -3,3 2,2 3,-3 2,-2 -2,-1.9999999 z M 6.4999998,10 c -0.830994,0 -1.5,0.668994 -1.5,1.5 0,0.830994 0.669006,1.5 1.5,1.5 0.831006,0 1.5,-0.669006 1.5,-1.5 0,-0.831006 -0.668994,-1.5 -1.5,-1.5 z M 10,15 c -1.1080002,0 -2.0000002,0.892 -2.0000002,2 0,1.108 0.892,2 2.0000002,2 1.108,0 2,-0.892 2,-2 0,-1.108 -0.892,-2 -2,-2 z"
     style="fill:#ffffff"
     id="path360"
     sodipodi:nodetypes="ssssscccccccccssssssssss" />
  <path
     id="rect2630"
     style="fill:#ffffff;fill-opacity:1;opacity:0.3"
     d="m 4.9999999,2 c -1.6619983,0 -3,1.3380017 -3,2.9999997 v 1 c 0,-1.661998 1.3380017,-3 3,-3 H 19 c 1.661998,0 3,1.338002 3,3 v -1 C 22,3.3380017 20.661998,2 19,2 Z" />
  <path
     id="rect398"
     style="opacity:0.3;fill:#ffffff"
     d="m 2,18 v 1 c 0,1.661998 1.3380017,3 3,3 h 14 c 1.661998,0 3,-1.338002 3,-3 v -1 c 0,1.661998 -1.338002,3 -3,3 H 5 C 3.3380017,21 2,19.661998 2,18 Z" />
  <path
     id="rect899"
     style="opacity:0.5;fill:#000000;stroke:none"
     d="M 5,1 C 2.7840022,1 1,2.7840022 1,5 v 14 c 0,2.215998 1.7840022,4 4,4 h 14 c 2.215998,0 4,-1.784002 4,-4 V 5 C 23,2.7840022 21.215998,1 19,1 Z m 0,1 h 14 c 1.661998,0 3,1.3380017 3,3 v 14 c 0,1.661998 -1.338002,3 -3,3 H 5 C 3.3380017,22 2,20.661998 2,19 V 5 C 2,3.3380017 3.3380017,2 5,2 Z" />
</svg>
