<?xml version="1.0" encoding="UTF-8" standalone="no"?>
<!-- Created with Inkscape (http://www.inkscape.org/) -->

<svg
   width="24"
   height="24"
   viewBox="0 0 24 24.000001"
   version="1.1"
   id="svg5"
   sodipodi:docname="pop-cosmic-applications.svg"
   inkscape:version="1.2.1 (9c6d41e410, 2022-07-14)"
   xmlns:inkscape="http://www.inkscape.org/namespaces/inkscape"
   xmlns:sodipodi="http://sodipodi.sourceforge.net/DTD/sodipodi-0.dtd"
   xmlns:xlink="http://www.w3.org/1999/xlink"
   xmlns="http://www.w3.org/2000/svg"
   xmlns:svg="http://www.w3.org/2000/svg">
  <sodipodi:namedview
     id="namedview7"
     pagecolor="#ffffff"
     bordercolor="#666666"
     borderopacity="1.0"
     inkscape:showpageshadow="2"
     inkscape:pageopacity="0.0"
     inkscape:pagecheckerboard="0"
     inkscape:deskcolor="#d1d1d1"
     inkscape:document-units="px"
     showgrid="false"
     inkscape:zoom="32.916667"
     inkscape:cx="11.817721"
     inkscape:cy="13.002532"
     inkscape:window-width="1920"
     inkscape:window-height="1012"
     inkscape:window-x="0"
     inkscape:window-y="0"
     inkscape:window-maximized="1"
     inkscape:current-layer="svg5" />
  <defs
     id="defs2">
    <linearGradient
       inkscape:collect="always"
       xlink:href="#linearGradient47792"
       id="linearGradient10386"
       x1="19"
       y1="23"
       x2="5"
       y2="1"
       gradientUnits="userSpaceOnUse" />
    <linearGradient
       inkscape:collect="always"
       id="linearGradient47792">
      <stop
         style="stop-color:#48b9c7;stop-opacity:1;"
         offset="0"
         id="stop47788" />
      <stop
         style="stop-color:#46d6eb;stop-opacity:1;"
         offset="1"
         id="stop47790" />
    </linearGradient>
  </defs>
  <rect
     style="fill:url(#linearGradient10386);fill-opacity:1.0;stroke:none"
     id="rect184"
     width="21"
     height="21"
     x="1.5"
     y="1.5"
     ry="3.5" />
  <path
     id="path599"
     style="opacity:0.2;fill:#000000;fill-opacity:1;stroke-width:4.5;stroke-linecap:round;stroke-linejoin:round"
     d="M 6.5 6 A 1.5 1.5 0 0 0 5 7.5 A 1.5 1.5 0 0 0 6.5 9 A 1.5 1.5 0 0 0 8 7.5 A 1.5 1.5 0 0 0 6.5 6 z M 11.5 6 A 1.5 1.5 0 0 0 10 7.5 A 1.5 1.5 0 0 0 11.5 9 A 1.5 1.5 0 0 0 13 7.5 A 1.5 1.5 0 0 0 11.5 6 z M 16.5 6 A 1.5 1.5 0 0 0 15 7.5 A 1.5 1.5 0 0 0 16.5 9 A 1.5 1.5 0 0 0 18 7.5 A 1.5 1.5 0 0 0 16.5 6 z M 6.5 11 A 1.5 1.5 0 0 0 5 12.5 A 1.5 1.5 0 0 0 6.5 14 A 1.5 1.5 0 0 0 8 12.5 A 1.5 1.5 0 0 0 6.5 11 z M 11.5 11 A 1.5 1.5 0 0 0 10 12.5 A 1.5 1.5 0 0 0 11.5 14 A 1.5 1.5 0 0 0 13 12.5 A 1.5 1.5 0 0 0 11.5 11 z M 16.5 11 A 1.5 1.5 0 0 0 15 12.5 A 1.5 1.5 0 0 0 16.5 14 A 1.5 1.5 0 0 0 18 12.5 A 1.5 1.5 0 0 0 16.5 11 z M 6.5 16 A 1.5 1.5 0 0 0 5 17.5 A 1.5 1.5 0 0 0 6.5 19 A 1.5 1.5 0 0 0 8 17.5 A 1.5 1.5 0 0 0 6.5 16 z M 11.5 16 A 1.5 1.5 0 0 0 10 17.5 A 1.5 1.5 0 0 0 11.5 19 A 1.5 1.5 0 0 0 13 17.5 A 1.5 1.5 0 0 0 11.5 16 z M 16.5 16 A 1.5 1.5 0 0 0 15 17.5 A 1.5 1.5 0 0 0 16.5 19 A 1.5 1.5 0 0 0 18 17.5 A 1.5 1.5 0 0 0 16.5 16 z " />
  <path
     id="path1122"
     style="opacity:1;fill:#ffffff;fill-opacity:1;stroke-width:4.5;stroke-linecap:round;stroke-linejoin:round"
     d="M 6.5 5 A 1.5 1.5 0 0 0 5 6.5 A 1.5 1.5 0 0 0 6.5 8 A 1.5 1.5 0 0 0 8 6.5 A 1.5 1.5 0 0 0 6.5 5 z M 11.5 5 A 1.5 1.5 0 0 0 10 6.5 A 1.5 1.5 0 0 0 11.5 8 A 1.5 1.5 0 0 0 13 6.5 A 1.5 1.5 0 0 0 11.5 5 z M 16.5 5 A 1.5 1.5 0 0 0 15 6.5 A 1.5 1.5 0 0 0 16.5 8 A 1.5 1.5 0 0 0 18 6.5 A 1.5 1.5 0 0 0 16.5 5 z M 6.5 10 A 1.5 1.5 0 0 0 5 11.5 A 1.5 1.5 0 0 0 6.5 13 A 1.5 1.5 0 0 0 8 11.5 A 1.5 1.5 0 0 0 6.5 10 z M 11.5 10 A 1.5 1.5 0 0 0 10 11.5 A 1.5 1.5 0 0 0 11.5 13 A 1.5 1.5 0 0 0 13 11.5 A 1.5 1.5 0 0 0 11.5 10 z M 16.5 10 A 1.5 1.5 0 0 0 15 11.5 A 1.5 1.5 0 0 0 16.5 13 A 1.5 1.5 0 0 0 18 11.5 A 1.5 1.5 0 0 0 16.5 10 z M 6.5 15 A 1.5 1.5 0 0 0 5 16.5 A 1.5 1.5 0 0 0 6.5 18 A 1.5 1.5 0 0 0 8 16.5 A 1.5 1.5 0 0 0 6.5 15 z M 11.5 15 A 1.5 1.5 0 0 0 10 16.5 A 1.5 1.5 0 0 0 11.5 18 A 1.5 1.5 0 0 0 13 16.5 A 1.5 1.5 0 0 0 11.5 15 z M 16.5 15 A 1.5 1.5 0 0 0 15 16.5 A 1.5 1.5 0 0 0 16.5 18 A 1.5 1.5 0 0 0 18 16.5 A 1.5 1.5 0 0 0 16.5 15 z " />
  <path
     id="rect2630"
     style="fill:#ffffff;fill-opacity:1;opacity:0.3"
     d="m 4.9999999,2 c -1.6619983,0 -3,1.3380017 -3,2.9999997 v 1 c 0,-1.661998 1.3380017,-3 3,-3 H 19 c 1.661998,0 3,1.338002 3,3 v -1 C 22,3.3380017 20.661998,2 19,2 Z" />
  <path
     id="rect398"
     style="opacity:0.3;fill:#ffffff"
     d="m 2,18 v 1 c 0,1.661998 1.3380017,3 3,3 h 14 c 1.661998,0 3,-1.338002 3,-3 v -1 c 0,1.661998 -1.338002,3 -3,3 H 5 C 3.3380017,21 2,19.661998 2,18 Z" />
  <path
     id="rect899"
     style="opacity:0.5;fill:#000000;stroke:none"
     d="M 5,1 C 2.7840022,1 1,2.7840022 1,5 v 14 c 0,2.215998 1.7840022,4 4,4 h 14 c 2.215998,0 4,-1.784002 4,-4 V 5 C 23,2.7840022 21.215998,1 19,1 Z m 0,1 h 14 c 1.661998,0 3,1.3380017 3,3 v 14 c 0,1.661998 -1.338002,3 -3,3 H 5 C 3.3380017,22 2,20.661998 2,19 V 5 C 2,3.3380017 3.3380017,2 5,2 Z" />
</svg>
