<?xml version="1.0" encoding="UTF-8" standalone="no"?>
<!-- Created with Inkscape (http://www.inkscape.org/) -->

<svg
   width="24"
   height="24"
   viewBox="0 0 24 24.000001"
   version="1.1"
   id="svg5"
   sodipodi:docname="preferences-desktop-screensaver.svg"
   inkscape:version="1.3.2 (091e20ef0f, 2023-11-25, custom)"
   xmlns:inkscape="http://www.inkscape.org/namespaces/inkscape"
   xmlns:sodipodi="http://sodipodi.sourceforge.net/DTD/sodipodi-0.dtd"
   xmlns:xlink="http://www.w3.org/1999/xlink"
   xmlns="http://www.w3.org/2000/svg"
   xmlns:svg="http://www.w3.org/2000/svg">
  <sodipodi:namedview
     id="namedview7"
     pagecolor="#ffffff"
     bordercolor="#666666"
     borderopacity="1.0"
     inkscape:showpageshadow="2"
     inkscape:pageopacity="0.0"
     inkscape:pagecheckerboard="0"
     inkscape:deskcolor="#d1d1d1"
     inkscape:document-units="px"
     showgrid="false"
     inkscape:zoom="34.416667"
     inkscape:cx="12"
     inkscape:cy="12"
     inkscape:window-width="1920"
     inkscape:window-height="1011"
     inkscape:window-x="0"
     inkscape:window-y="0"
     inkscape:window-maximized="1"
     inkscape:current-layer="svg5" />
  <defs
     id="defs2">
    <linearGradient
       inkscape:collect="always"
       xlink:href="#linearGradient2"
       id="linearGradient16885"
       x1="13"
       y1="24"
       x2="13"
       y2="2"
       gradientUnits="userSpaceOnUse"
       gradientTransform="translate(-0.9999999,-1.0000001)" />
    <linearGradient
       inkscape:collect="always"
       id="linearGradient2">
      <stop
         style="stop-color:#4b315a;stop-opacity:1;"
         offset="0"
         id="stop1" />
      <stop
         style="stop-color:#68487d;stop-opacity:1;"
         offset="1"
         id="stop2" />
    </linearGradient>
  </defs>
  <rect
     style="fill:url(#linearGradient16885);stroke:none"
     id="rect184"
     width="21"
     height="21"
     x="1.5"
     y="1.5"
     ry="3.5" />
  <path
     d="m 11.748394,6.00002 c -2.7662602,0.10157 -5.3153802,1.80685 -6.3204402,4.56825 -1.32392,3.63741 0.52406,7.68742 4.16148,9.01134 2.7613802,1.00505 5.7473902,0.14513 7.6033202,-1.90866 -1.32946,0.42914 -2.80964,0.45222 -4.22406,-0.0626 C 9.5910738,16.37901 7.8594638,12.63169 9.0888038,9.25409 9.6036138,7.83967 10.565114,6.74257 11.748394,6 Z m 4.25536,0.30247 -0.28291,1.0521 -1.05211,0.28291 1.05211,0.28291 0.28291,1.0521 0.28291,-1.0521 1.0521,-0.28291 -1.0521,-0.28291 z m -3.33753,1.98165 -0.21251,0.78876 -0.78876,0.2125 0.78876,0.21251 0.21251,0.78875 0.2125,-0.78875 0.78876,-0.21251 -0.78876,-0.2125 z m 4.00503,2.02338 -0.14145,0.52605 -0.52605,0.14146 0.52605,0.14145 0.14145,0.52606 0.14146,-0.52606 0.52605,-0.14145 -0.52605,-0.14146 z m -1.00126,3.33754 -0.21251,0.78875 -0.78875,0.2125 0.78875,0.21251 0.21251,0.78875 0.21251,-0.78875 0.78875,-0.21251 -0.78875,-0.2125 z"
     style="color:#bebebe;display:inline;overflow:visible;visibility:visible;opacity:0.2;fill:#000000;fill-opacity:1;fill-rule:nonzero;stroke:none;stroke-width:1;marker:none;enable-background:accumulate"
     id="path1" />
  <path
     d="M 11.74839,5.00001 C 8.98213,5.10158 6.43301,6.80686 5.42795,9.56826 c -1.32392,3.63741 0.52406,7.68742 4.16148,9.01134 2.76138,1.00505 5.74739,0.14513 7.60332,-1.90866 -1.32946,0.42914 -2.80964,0.45222 -4.22406,-0.0626 C 9.59107,15.379 7.85946,11.63168 9.0888,8.25408 9.60361,6.83966 10.56511,5.74256 11.74839,4.99999 Z m 4.25536,0.30247 -0.28291,1.0521 -1.05211,0.28291 1.05211,0.28291 0.28291,1.0521 0.28291,-1.0521 1.0521,-0.28291 -1.0521,-0.28291 z m -3.33753,1.98165 -0.21251,0.78876 -0.78876,0.2125 0.78876,0.21251 0.21251,0.78875 0.2125,-0.78875 0.78876,-0.21251 -0.78876,-0.2125 z m 4.00503,2.02338 -0.14145,0.52605 -0.52605,0.14146 0.52605,0.14145 0.14145,0.52606 0.14146,-0.52606 0.52605,-0.14145 -0.52605,-0.14146 z m -1.00126,3.33754 -0.21251,0.78875 -0.78875,0.2125 0.78875,0.21251 0.21251,0.78875 0.21251,-0.78875 0.78875,-0.21251 -0.78875,-0.2125 z"
     style="color:#bebebe;display:inline;overflow:visible;visibility:visible;fill:#ffffff;fill-opacity:1;fill-rule:nonzero;stroke:none;stroke-width:1;marker:none;enable-background:accumulate"
     id="path1-5" />
  <path
     id="rect2630"
     style="opacity:0.1;fill:#ffffff;fill-opacity:1"
     d="m 4.9999999,2 c -1.6619983,0 -3,1.3380017 -3,2.9999997 v 1 c 0,-1.661998 1.3380017,-3 3,-3 H 19 c 1.661998,0 3,1.338002 3,3 v -1 C 22,3.3380017 20.661998,2 19,2 Z" />
  <path
     id="rect398"
     style="opacity:0.1;fill:#ffffff"
     d="m 2,18 v 1 c 0,1.661998 1.3380017,3 3,3 h 14 c 1.661998,0 3,-1.338002 3,-3 v -1 c 0,1.661998 -1.338002,3 -3,3 H 5 C 3.3380017,21 2,19.661998 2,18 Z" />
  <path
     id="rect899"
     style="opacity:0.5;fill:#000000;stroke:none"
     d="M 5,1 C 2.7840022,1 1,2.7840022 1,5 v 14 c 0,2.215998 1.7840022,4 4,4 h 14 c 2.215998,0 4,-1.784002 4,-4 V 5 C 23,2.7840022 21.215998,1 19,1 Z m 0,1 h 14 c 1.661998,0 3,1.3380017 3,3 v 14 c 0,1.661998 -1.338002,3 -3,3 H 5 C 3.3380017,22 2,20.661998 2,19 V 5 C 2,3.3380017 3.3380017,2 5,2 Z" />
</svg>
