<?xml version="1.0" encoding="UTF-8" standalone="no"?>
<!-- Created with Inkscape (http://www.inkscape.org/) -->

<svg
   width="24"
   height="24"
   viewBox="0 0 24 24.000001"
   version="1.1"
   id="svg5"
   sodipodi:docname="preferences-system-locale.svg"
   inkscape:version="1.2 (dc2aedaf03, 2022-05-15)"
   xmlns:inkscape="http://www.inkscape.org/namespaces/inkscape"
   xmlns:sodipodi="http://sodipodi.sourceforge.net/DTD/sodipodi-0.dtd"
   xmlns:xlink="http://www.w3.org/1999/xlink"
   xmlns="http://www.w3.org/2000/svg"
   xmlns:svg="http://www.w3.org/2000/svg">
  <sodipodi:namedview
     id="namedview7"
     pagecolor="#ffffff"
     bordercolor="#666666"
     borderopacity="1.0"
     inkscape:showpageshadow="2"
     inkscape:pageopacity="0.0"
     inkscape:pagecheckerboard="0"
     inkscape:deskcolor="#d1d1d1"
     inkscape:document-units="px"
     showgrid="false"
     inkscape:zoom="32.333333"
     inkscape:cx="12"
     inkscape:cy="12"
     inkscape:window-width="1920"
     inkscape:window-height="991"
     inkscape:window-x="0"
     inkscape:window-y="0"
     inkscape:window-maximized="1"
     inkscape:current-layer="svg5" />
  <defs
     id="defs2">
    <linearGradient
       inkscape:collect="always"
       xlink:href="#linearGradient22024"
       id="linearGradient10386"
       x1="19"
       y1="23"
       x2="5"
       y2="1"
       gradientUnits="userSpaceOnUse" />
    <linearGradient
       inkscape:collect="always"
       id="linearGradient22024">
      <stop
         style="stop-color:#cdcdcd;stop-opacity:1;"
         offset="0"
         id="stop22020" />
      <stop
         style="stop-color:#eff0f1;stop-opacity:1;"
         offset="1"
         id="stop22022" />
    </linearGradient>
    <linearGradient
       inkscape:collect="always"
       xlink:href="#linearGradient21236"
       id="linearGradient21238"
       x1="32"
       y1="60"
       x2="32"
       y2="4"
       gradientUnits="userSpaceOnUse"
       gradientTransform="matrix(0.39285714,0,0,0.39285714,-0.57142908,-0.57142913)" />
    <linearGradient
       inkscape:collect="always"
       id="linearGradient21236">
      <stop
         style="stop-color:#3689e6;stop-opacity:1;"
         offset="0"
         id="stop21232" />
      <stop
         style="stop-color:#6bc8ee;stop-opacity:1;"
         offset="1"
         id="stop21234" />
    </linearGradient>
  </defs>
  <rect
     style="fill:url(#linearGradient10386);fill-opacity:1.0;stroke:none"
     id="rect184"
     width="21"
     height="21"
     x="1.5"
     y="1.5"
     ry="3.5" />
  <path
     id="rect371"
     style="fill:url(#linearGradient21238);fill-opacity:1;stroke-width:2.88095"
     d="M 12 1.5 L 12 22.5 L 19 22.5 C 20.938998 22.5 22.5 20.938998 22.5 19 L 22.5 5 C 22.5 3.0610019 20.938998 1.5 19 1.5 L 12 1.5 z " />
  <path
     id="path22336"
     style="font-size:25.58px;font-family:Roboto;-inkscape-font-specification:Roboto;opacity:0.2;fill:#000000;stroke-width:1.87547"
     d="M 7.0546875 9 L 4 17 L 5.0878906 17 L 5.8398438 14.912109 L 9.1914062 14.912109 L 9.9550781 17 L 11.039062 17 L 7.9785156 9 L 7.0546875 9 z M 13.466797 9 L 13.466797 9.5175781 L 15.841797 9.5175781 L 15.841797 9 L 13.466797 9 z M 16.447266 9.0175781 L 16.447266 9.5878906 L 17.777344 9.5878906 L 17.638672 10.476562 L 16.576172 10.476562 L 16.576172 11.039062 L 17.552734 11.039062 C 17.474984 11.496945 17.3883 11.92929 17.310547 12.300781 L 16.179688 12.300781 L 16.179688 12.878906 L 21 12.878906 L 21 12.300781 L 20.230469 12.300781 L 20.230469 10.476562 L 18.269531 10.476562 L 18.416016 9.5878906 L 20.722656 9.5878906 L 20.722656 9.0175781 L 16.447266 9.0175781 z M 13 10.158203 L 13 10.693359 L 16.144531 10.693359 L 16.144531 10.158203 L 13 10.158203 z M 7.515625 10.302734 L 8.8789062 14.044922 L 6.1601562 14.044922 L 7.515625 10.302734 z M 18.175781 11.039062 L 19.609375 11.039062 L 19.609375 12.300781 L 17.941406 12.300781 C 18.019156 11.93793 18.098027 11.496945 18.175781 11.039062 z M 13.414062 11.359375 L 13.414062 11.876953 L 15.851562 11.876953 L 15.851562 11.359375 L 13.414062 11.359375 z M 13.414062 12.542969 L 13.414062 13.052734 L 15.851562 13.052734 L 15.851562 12.542969 L 13.414062 12.542969 z M 16.810547 13.535156 L 16.810547 16.646484 L 17.423828 16.646484 L 17.423828 16.248047 L 19.833984 16.248047 L 19.833984 16.611328 L 20.464844 16.611328 L 20.464844 13.535156 L 16.810547 13.535156 z M 13.396484 13.726562 L 13.396484 16.636719 L 13.966797 16.636719 L 13.966797 16.240234 L 15.884766 16.240234 L 15.884766 13.726562 L 13.396484 13.726562 z M 17.423828 14.123047 L 19.833984 14.123047 L 19.833984 15.660156 L 17.423828 15.660156 L 17.423828 14.123047 z M 13.966797 14.261719 L 15.306641 14.261719 L 15.306641 15.712891 L 13.966797 15.712891 L 13.966797 14.261719 z " />
  <path
     d="M 9.1923068,13.912088 H 5.840659 L 5.0879118,16 H 4 L 7.0549447,7.9999995 H 7.9780223 L 11.038462,16 H 9.956043 Z M 6.1593404,13.043956 H 8.87912 L 7.5164833,9.3021983 Z"
     style="font-size:25.58px;font-family:Roboto;-inkscape-font-specification:Roboto;fill:#3f3f3f;fill-opacity:1;stroke-width:1.87547"
     id="path18797"
     sodipodi:nodetypes="ccccccccccccc" />
  <path
     d="m 13.414687,10.35853 v 0.518359 h 2.436285 V 10.35853 Z m 0.05183,-2.3585305 v 0.5183582 h 2.37581 V 7.9999995 Z m -0.05183,3.5421165 v 0.509719 h 2.436285 V 11.542116 Z M 13,9.1576668 v 0.5356368 h 3.144708 V 9.1576668 Z m 3.809935,3.3779692 v 3.110152 h 0.613391 v -0.397409 h 2.410368 v 0.362852 h 0.630669 v -3.075595 z m 0.613391,2.12527 v -1.537797 h 2.410368 v 1.537797 z m -1.24406,-3.360691 v 0.578833 H 21 V 11.300215 H 20.231101 V 9.477321 h -1.961123 l 0.146869,-0.8898484 h 2.306695 V 8.0172785 h -4.276457 v 0.5701941 h 1.330453 L 17.639309,9.477321 h -1.062635 v 0.561555 h 0.976242 c -0.07775,0.457883 -0.164147,0.889849 -0.2419,1.261339 z m 1.99568,-1.261339 h 1.434125 v 1.261339 h -1.667386 c 0.07775,-0.362851 0.155507,-0.803456 0.233261,-1.261339 z m -4.777538,2.686825 v 2.911448 h 0.570195 V 15.23974 h 1.917927 v -2.514039 z m 0.570195,0.535637 h 1.339093 v 1.451404 h -1.339093 z"
     id="path22301"
     style="font-size:20.339px;font-family:Roboto;-inkscape-font-specification:Roboto;fill:#f9f9f9;stroke-width:1.43988"
     sodipodi:nodetypes="cccccccccccccccccccccccccccccccccccccccccccccccccccccccccccccccccccccc" />
  <path
     id="rect2630"
     style="fill:#ffffff;fill-opacity:1;opacity:0.3"
     d="m 4.9999999,2 c -1.6619983,0 -3,1.3380017 -3,2.9999997 v 1 c 0,-1.661998 1.3380017,-3 3,-3 H 19 c 1.661998,0 3,1.338002 3,3 v -1 C 22,3.3380017 20.661998,2 19,2 Z" />
  <path
     id="rect398"
     style="opacity:0.3;fill:#ffffff"
     d="m 2,18 v 1 c 0,1.661998 1.3380017,3 3,3 h 14 c 1.661998,0 3,-1.338002 3,-3 v -1 c 0,1.661998 -1.338002,3 -3,3 H 5 C 3.3380017,21 2,19.661998 2,18 Z" />
  <path
     id="rect899"
     style="opacity:0.5;fill:#000000;stroke:none"
     d="M 5,1 C 2.7840022,1 1,2.7840022 1,5 v 14 c 0,2.215998 1.7840022,4 4,4 h 14 c 2.215998,0 4,-1.784002 4,-4 V 5 C 23,2.7840022 21.215998,1 19,1 Z m 0,1 h 14 c 1.661998,0 3,1.3380017 3,3 v 14 c 0,1.661998 -1.338002,3 -3,3 H 5 C 3.3380017,22 2,20.661998 2,19 V 5 C 2,3.3380017 3.3380017,2 5,2 Z" />
</svg>
