<?xml version="1.0" encoding="UTF-8" standalone="no"?>
<!-- Created with Inkscape (http://www.inkscape.org/) -->

<svg
   width="24"
   height="24"
   viewBox="0 0 24 24.000001"
   version="1.1"
   id="svg5"
   sodipodi:docname="preferences-system-splash.svg"
   inkscape:version="1.2.1 (9c6d41e410, 2022-07-14)"
   xmlns:inkscape="http://www.inkscape.org/namespaces/inkscape"
   xmlns:sodipodi="http://sodipodi.sourceforge.net/DTD/sodipodi-0.dtd"
   xmlns:xlink="http://www.w3.org/1999/xlink"
   xmlns="http://www.w3.org/2000/svg"
   xmlns:svg="http://www.w3.org/2000/svg">
  <sodipodi:namedview
     id="namedview7"
     pagecolor="#ffffff"
     bordercolor="#666666"
     borderopacity="1.0"
     inkscape:showpageshadow="2"
     inkscape:pageopacity="0.0"
     inkscape:pagecheckerboard="0"
     inkscape:deskcolor="#d1d1d1"
     inkscape:document-units="px"
     showgrid="false"
     inkscape:zoom="33"
     inkscape:cx="11.984848"
     inkscape:cy="12"
     inkscape:window-width="1920"
     inkscape:window-height="1007"
     inkscape:window-x="0"
     inkscape:window-y="0"
     inkscape:window-maximized="1"
     inkscape:current-layer="svg5" />
  <defs
     id="defs2">
    <linearGradient
       inkscape:collect="always"
       xlink:href="#linearGradient21236"
       id="linearGradient10386"
       x1="12"
       y1="23"
       x2="12"
       y2="1"
       gradientUnits="userSpaceOnUse" />
    <linearGradient
       inkscape:collect="always"
       id="linearGradient21236">
      <stop
         style="stop-color:#3689e6;stop-opacity:1;"
         offset="0"
         id="stop21232" />
      <stop
         style="stop-color:#5dcffc;stop-opacity:1;"
         offset="1"
         id="stop21234" />
    </linearGradient>
  </defs>
  <rect
     style="fill:url(#linearGradient10386);fill-opacity:1.0;stroke:none"
     id="rect184"
     width="21"
     height="21"
     x="1.5"
     y="1.5"
     ry="3.5" />
  <circle
     cx="12"
     cy="5.9999995"
     r="0.99999988"
     opacity="0.6"
     style="fill:#ffffff;stroke-width:0.105263;paint-order:stroke fill markers"
     id="circle26" />
  <circle
     cx="12.000001"
     cy="18"
     r="0.99999988"
     style="fill:#ffffff;stroke-width:0.105263;paint-order:stroke fill markers"
     id="circle28" />
  <circle
     cx="18"
     cy="12"
     r="0.99999988"
     opacity="0.4"
     style="fill:#ffffff;stroke-width:0.105263;paint-order:stroke fill markers"
     id="circle30" />
  <circle
     cx="5.9999995"
     cy="12.000001"
     r="0.99999988"
     opacity="0.8"
     style="fill:#ffffff;stroke-width:0.105263;paint-order:stroke fill markers"
     id="circle32" />
  <circle
     cx="16"
     cy="8"
     r="0.99999988"
     opacity="0.5"
     style="fill:#ffffff;stroke-width:0.105263;paint-order:stroke fill markers"
     id="circle34" />
  <circle
     cx="8"
     cy="8"
     r="0.99999988"
     opacity="0.7"
     style="fill:#ffffff;stroke-width:0.105263;paint-order:stroke fill markers"
     id="circle36" />
  <circle
     transform="rotate(-90)"
     cx="-16"
     cy="8"
     r="0.99999988"
     opacity="0.9"
     style="fill:#ffffff;stroke-width:0.105263;paint-order:stroke fill markers"
     id="circle38" />
  <circle
     cx="16"
     cy="16"
     r="0.99999988"
     opacity="0.3"
     style="fill:#ffffff;stroke-width:0.105263;paint-order:stroke fill markers"
     id="circle40" />
  <path
     id="rect2630"
     style="fill:#ffffff;fill-opacity:1;opacity:0.3"
     d="m 4.9999999,2 c -1.6619983,0 -3,1.3380017 -3,2.9999997 v 1 c 0,-1.661998 1.3380017,-3 3,-3 H 19 c 1.661998,0 3,1.338002 3,3 v -1 C 22,3.3380017 20.661998,2 19,2 Z" />
  <path
     id="rect398"
     style="opacity:0.3;fill:#ffffff"
     d="m 2,18 v 1 c 0,1.661998 1.3380017,3 3,3 h 14 c 1.661998,0 3,-1.338002 3,-3 v -1 c 0,1.661998 -1.338002,3 -3,3 H 5 C 3.3380017,21 2,19.661998 2,18 Z" />
  <path
     id="rect899"
     style="opacity:0.5;fill:#000000;stroke:none"
     d="M 5,1 C 2.7840022,1 1,2.7840022 1,5 v 14 c 0,2.215998 1.7840022,4 4,4 h 14 c 2.215998,0 4,-1.784002 4,-4 V 5 C 23,2.7840022 21.215998,1 19,1 Z m 0,1 h 14 c 1.661998,0 3,1.3380017 3,3 v 14 c 0,1.661998 -1.338002,3 -3,3 H 5 C 3.3380017,22 2,20.661998 2,19 V 5 C 2,3.3380017 3.3380017,2 5,2 Z" />
</svg>
