<?xml version="1.0" encoding="UTF-8" standalone="no"?>
<!-- Created with Inkscape (http://www.inkscape.org/) -->

<svg
   width="24"
   height="24"
   viewBox="0 0 24 24.000001"
   version="1.1"
   id="svg5"
   sodipodi:docname="preferences-desktop-font.svg"
   inkscape:version="1.2.1 (9c6d41e410, 2022-07-14)"
   xmlns:inkscape="http://www.inkscape.org/namespaces/inkscape"
   xmlns:sodipodi="http://sodipodi.sourceforge.net/DTD/sodipodi-0.dtd"
   xmlns:xlink="http://www.w3.org/1999/xlink"
   xmlns="http://www.w3.org/2000/svg"
   xmlns:svg="http://www.w3.org/2000/svg">
  <sodipodi:namedview
     id="namedview7"
     pagecolor="#ffffff"
     bordercolor="#666666"
     borderopacity="1.0"
     inkscape:showpageshadow="2"
     inkscape:pageopacity="0.0"
     inkscape:pagecheckerboard="0"
     inkscape:deskcolor="#d1d1d1"
     inkscape:document-units="px"
     showgrid="false"
     inkscape:zoom="33.208333"
     inkscape:cx="11.984944"
     inkscape:cy="12"
     inkscape:window-width="1920"
     inkscape:window-height="1009"
     inkscape:window-x="0"
     inkscape:window-y="0"
     inkscape:window-maximized="1"
     inkscape:current-layer="svg5" />
  <defs
     id="defs2">
    <linearGradient
       inkscape:collect="always"
       xlink:href="#linearGradient22024"
       id="linearGradient10386"
       x1="19"
       y1="23"
       x2="5"
       y2="1"
       gradientUnits="userSpaceOnUse" />
    <linearGradient
       inkscape:collect="always"
       id="linearGradient22024">
      <stop
         style="stop-color:#dedede;stop-opacity:1;"
         offset="0"
         id="stop22020" />
      <stop
         style="stop-color:#f5f5f5;stop-opacity:1;"
         offset="1"
         id="stop22022" />
    </linearGradient>
  </defs>
  <rect
     style="fill:url(#linearGradient10386);fill-opacity:1;stroke:none"
     id="rect184"
     width="21"
     height="21"
     x="1.5"
     y="1.5"
     ry="3.5" />
  <path
     d="M 8.30617,7.9996505 5,17.033511 H 6.1725599 L 7.0773132,14.48814 H 10.70839 l 0.904753,2.545371 h 1.185428 L 9.4915973,7.9996505 Z m 0.5492849,1.4596691 h 0.074794 L 10.364986,13.502159 H 7.420717 Z m 7.5991231,0.7117394 c -0.490786,0 -0.934258,0.07839 -1.329383,0.236442 -0.390967,0.153891 -0.704674,0.370343 -0.941749,0.64901 -0.237074,0.278667 -0.378075,0.599198 -0.423825,0.961049 h 1.122698 c 0.07904,-0.270349 0.249456,-0.489076 0.511488,-0.655444 0.262029,-0.170527 0.599149,-0.255743 1.01091,-0.255743 0.503264,0 0.883324,0.118392 1.141196,0.355467 0.262028,0.232916 0.393266,0.56776 0.393266,1.004477 v 0.549287 c -0.145573,0.0042 -0.415535,0.017 -0.81066,0.0378 -0.395124,0.0208 -0.736792,0.04113 -1.023779,0.06193 -0.73618,0.05407 -1.345535,0.226775 -1.828003,0.517922 -0.47831,0.286984 -0.717369,0.78022 -0.717369,1.478968 0,0.428399 0.101804,0.800165 0.305606,1.116264 0.203802,0.311941 0.480585,0.551001 0.829959,0.717369 0.349374,0.162209 0.740807,0.245956 1.173365,0.250115 0.532379,-0.0042 0.966753,-0.11506 1.30365,-0.331342 0.341055,-0.220438 0.580116,-0.471536 0.717369,-0.754363 h 0.04986 v 0.92325 h 1.060773 v -4.466669 c 0.0041,-0.935822 -0.256033,-1.568589 -0.780093,-1.897166 -0.524061,-0.332738 -1.112279,-0.49862 -1.765275,-0.49862 z m 1.484601,3.724367 v 0.67957 c 0,0.291145 -0.07466,0.564184 -0.22438,0.817896 -0.145571,0.253713 -0.359749,0.457322 -0.642576,0.611211 -0.282826,0.153892 -0.61767,0.230813 -1.004477,0.230813 -0.432557,0 -0.780245,-0.09122 -1.042276,-0.274241 -0.25787,-0.183005 -0.388301,-0.449223 -0.392461,-0.798596 0.0042,-0.35769 0.142884,-0.630731 0.417393,-0.817895 0.278666,-0.187164 0.672374,-0.297262 1.179798,-0.330536 l 0.885452,-0.06192 c 0.453356,-0.03327 0.727868,-0.05214 0.823527,-0.05629 z"
     style="font-size:8.21007px;line-height:1.25;font-family:Pretendard;-inkscape-font-specification:Pretendard;opacity:0.5;fill:#ffffff;stroke-width:0.319429"
     id="path1907"
     sodipodi:nodetypes="ccccccccccccccscscccscscsccsccccccccccscscsscccccc" />
  <path
     d="M 8.30617,7 5,16.033861 H 6.1725599 L 7.0773132,13.48849 H 10.70839 l 0.904753,2.545371 h 1.185428 L 9.75,7 Z m 0.5492849,1.4596691 h 0.074794 L 10.364986,12.502511 H 7.420717 Z m 7.5991231,0.7117395 c -0.490786,0 -0.934258,0.078393 -1.329383,0.2364418 -0.390967,0.1538907 -0.704674,0.3703433 -0.941749,0.6490106 -0.237074,0.278666 -0.378075,0.599197 -0.423825,0.961048 h 1.122698 c 0.07904,-0.270348 0.249456,-0.489075 0.511488,-0.655443 0.262029,-0.170528 0.599149,-0.255743 1.01091,-0.255743 0.503264,0 0.883324,0.118392 1.141196,0.355467 0.262028,0.232916 0.393266,0.56776 0.393266,1.004476 v 0.549288 c -0.145573,0.0042 -0.415535,0.017 -0.81066,0.0378 -0.395124,0.0208 -0.736792,0.04113 -1.023779,0.06192 -0.73618,0.05407 -1.345535,0.226778 -1.828003,0.517922 -0.47831,0.286984 -0.717369,0.780223 -0.717369,1.47897 0,0.428399 0.101804,0.800164 0.305606,1.116263 0.203802,0.31194 0.480585,0.551002 0.829959,0.717369 0.349374,0.162208 0.740807,0.245956 1.173365,0.250115 0.532379,-0.0042 0.966753,-0.11506 1.30365,-0.331342 0.341055,-0.220438 0.580116,-0.471537 0.717369,-0.754364 h 0.04986 V 16.03386 H 18.99995 V 11.567191 C 19.004081,10.631369 18.743917,9.9986026 18.219857,9.6700248 17.695796,9.3372876 17.107578,9.1714051 16.454582,9.1714051 Z m 1.484601,3.7243684 v 0.679569 c 0,0.291145 -0.07466,0.564183 -0.22438,0.817896 -0.145571,0.253713 -0.359749,0.457321 -0.642576,0.611211 -0.282826,0.153892 -0.61767,0.230813 -1.004477,0.230813 -0.432557,0 -0.780245,-0.09122 -1.042276,-0.274242 -0.25787,-0.183004 -0.388301,-0.449222 -0.392461,-0.798595 0.0042,-0.357691 0.142884,-0.630731 0.417393,-0.817895 0.278666,-0.187165 0.672374,-0.297263 1.179798,-0.330537 l 0.885452,-0.06193 c 0.453356,-0.03327 0.727868,-0.05214 0.823527,-0.05629 z"
     style="font-size:8.21007px;line-height:1.25;font-family:Pretendard;-inkscape-font-specification:Pretendard;fill:#4d4d4d;stroke-width:0.319429"
     id="path1940"
     sodipodi:nodetypes="ccccccccccccccscscccscscsccsccccccccccsssscsscccccs" />
  <path
     id="rect2630"
     style="fill:#ffffff;fill-opacity:1;opacity:0.3"
     d="m 4.9999999,2 c -1.6619983,0 -3,1.3380017 -3,2.9999997 v 1 c 0,-1.661998 1.3380017,-3 3,-3 H 19 c 1.661998,0 3,1.338002 3,3 v -1 C 22,3.3380017 20.661998,2 19,2 Z" />
  <path
     id="rect398"
     style="opacity:0.3;fill:#ffffff"
     d="m 2,18 v 1 c 0,1.661998 1.3380017,3 3,3 h 14 c 1.661998,0 3,-1.338002 3,-3 v -1 c 0,1.661998 -1.338002,3 -3,3 H 5 C 3.3380017,21 2,19.661998 2,18 Z" />
  <path
     id="rect899"
     style="opacity:0.5;fill:#000000;stroke:none"
     d="M 5,1 C 2.7840022,1 1,2.7840022 1,5 v 14 c 0,2.215998 1.7840022,4 4,4 h 14 c 2.215998,0 4,-1.784002 4,-4 V 5 C 23,2.7840022 21.215998,1 19,1 Z m 0,1 h 14 c 1.661998,0 3,1.3380017 3,3 v 14 c 0,1.661998 -1.338002,3 -3,3 H 5 C 3.3380017,22 2,20.661998 2,19 V 5 C 2,3.3380017 3.3380017,2 5,2 Z" />
</svg>
