<?xml version="1.0" encoding="UTF-8" standalone="no"?>
<!-- Created with Inkscape (http://www.inkscape.org/) -->

<svg
   width="24"
   height="24"
   viewBox="0 0 24 24.000001"
   version="1.1"
   id="svg5"
   sodipodi:docname="preferences-desktop-accessibility.svg"
   inkscape:version="1.2.1 (9c6d41e410, 2022-07-14)"
   xmlns:inkscape="http://www.inkscape.org/namespaces/inkscape"
   xmlns:sodipodi="http://sodipodi.sourceforge.net/DTD/sodipodi-0.dtd"
   xmlns:xlink="http://www.w3.org/1999/xlink"
   xmlns="http://www.w3.org/2000/svg"
   xmlns:svg="http://www.w3.org/2000/svg">
  <sodipodi:namedview
     id="namedview7"
     pagecolor="#ffffff"
     bordercolor="#666666"
     borderopacity="1.0"
     inkscape:showpageshadow="2"
     inkscape:pageopacity="0.0"
     inkscape:pagecheckerboard="0"
     inkscape:deskcolor="#d1d1d1"
     inkscape:document-units="px"
     showgrid="false"
     inkscape:zoom="18.068182"
     inkscape:cx="6.3924528"
     inkscape:cy="12.646541"
     inkscape:window-width="1920"
     inkscape:window-height="1007"
     inkscape:window-x="0"
     inkscape:window-y="0"
     inkscape:window-maximized="1"
     inkscape:current-layer="svg5"
     showguides="true" />
  <defs
     id="defs2">
    <linearGradient
       inkscape:collect="always"
       xlink:href="#linearGradient3463"
       id="linearGradient10386"
       x1="19"
       y1="23"
       x2="5"
       y2="1"
       gradientUnits="userSpaceOnUse" />
    <linearGradient
       inkscape:collect="always"
       id="linearGradient3463">
      <stop
         style="stop-color:#0064cd;stop-opacity:1;"
         offset="0"
         id="stop3459" />
      <stop
         style="stop-color:#35a2f2;stop-opacity:1;"
         offset="1"
         id="stop3461" />
    </linearGradient>
  </defs>
  <rect
     style="fill:url(#linearGradient10386);fill-opacity:1;stroke:none"
     id="rect184"
     width="21"
     height="21"
     x="1.5"
     y="1.5"
     ry="3.5" />
  <path
     id="path3009"
     style="opacity:0.2;fill:#000000;stroke-width:2"
     d="M 11.5,6 C 10.671553,6 10,6.6715525 10,7.5 10,8.3284482 10.671553,9 11.5,9 12.328447,9 13,8.3284482 13,7.5 13,6.6715525 12.328447,6 11.5,6 Z m -5,4 A 0.5,0.5 0 0 0 6,10.5 0.5,0.5 0 0 0 6.5,11 H 10 v 8.5 A 0.5,0.5 0 0 0 10.5,20 0.5,0.5 0 0 0 11,19.5 0.5,0.5 0 0 0 11,19.47461 V 14 h 1 v 5.5 A 0.5,0.5 0 0 0 12.5,20 0.5,0.5 0 0 0 13,19.5 0.5,0.5 0 0 0 13,19.47461 V 11 h 3.5 A 0.5,0.5 0 0 0 17,10.5 0.5,0.5 0 0 0 16.5,10 Z" />
  <path
     id="path2789"
     style="fill:#ffffff;stroke-width:2"
     d="M 11.5,5 C 10.671554,5 10,5.6715529 10,6.5 10,7.3284474 10.671554,8 11.5,8 12.328446,8 13,7.3284474 13,6.5 13,5.6715529 12.328446,5 11.5,5 Z m -5,4 C 6.2238579,9 6,9.2238579 6,9.5 6,9.7761421 6.2238579,10 6.5,10 H 10 v 8.5 A 0.5,0.5 0 0 0 10.5,19 0.5,0.5 0 0 0 11,18.5 0.5,0.5 0 0 0 11,18.47461 V 13 h 1 v 5.5 A 0.5,0.5 0 0 0 12.5,19 0.5,0.5 0 0 0 13,18.5 0.5,0.5 0 0 0 13,18.47461 V 10 h 3.5 C 16.776142,10 17,9.7761421 17,9.5 17,9.2238579 16.776142,9 16.5,9 H 6.5253906 C 6.5169284,8.9997851 6.5084622,8.9997851 6.5,9 Z" />
  <path
     id="rect2630"
     style="opacity:0.3;fill:#ffffff;fill-opacity:1"
     d="m 4.9999999,2 c -1.6619983,0 -3,1.3380017 -3,2.9999997 v 1 c 0,-1.661998 1.3380017,-3 3,-3 H 19 c 1.661998,0 3,1.338002 3,3 v -1 C 22,3.3380017 20.661998,2 19,2 Z" />
  <path
     id="rect398"
     style="opacity:0.3;fill:#ffffff"
     d="m 2,18 v 1 c 0,1.661998 1.3380017,3 3,3 h 14 c 1.661998,0 3,-1.338002 3,-3 v -1 c 0,1.661998 -1.338002,3 -3,3 H 5 C 3.3380017,21 2,19.661998 2,18 Z" />
  <path
     id="rect899"
     style="opacity:0.5;fill:#000000;stroke:none"
     d="M 5,1 C 2.7840022,1 1,2.7840022 1,5 v 14 c 0,2.215998 1.7840022,4 4,4 h 14 c 2.215998,0 4,-1.784002 4,-4 V 5 C 23,2.7840022 21.215998,1 19,1 Z m 0,1 h 14 c 1.661998,0 3,1.3380017 3,3 v 14 c 0,1.661998 -1.338002,3 -3,3 H 5 C 3.3380017,22 2,20.661998 2,19 V 5 C 2,3.3380017 3.3380017,2 5,2 Z" />
</svg>
