<?xml version="1.0" encoding="UTF-8" standalone="no"?>
<!-- Created with Inkscape (http://www.inkscape.org/) -->

<svg
   width="24"
   height="24"
   viewBox="0 0 24 24.000001"
   version="1.1"
   id="svg5"
   sodipodi:docname="preferences-desktop-effects.svg"
   inkscape:version="1.2.1 (9c6d41e410, 2022-07-14)"
   xmlns:inkscape="http://www.inkscape.org/namespaces/inkscape"
   xmlns:sodipodi="http://sodipodi.sourceforge.net/DTD/sodipodi-0.dtd"
   xmlns:xlink="http://www.w3.org/1999/xlink"
   xmlns="http://www.w3.org/2000/svg"
   xmlns:svg="http://www.w3.org/2000/svg">
  <sodipodi:namedview
     id="namedview7"
     pagecolor="#ffffff"
     bordercolor="#666666"
     borderopacity="1.0"
     inkscape:showpageshadow="2"
     inkscape:pageopacity="0.0"
     inkscape:pagecheckerboard="0"
     inkscape:deskcolor="#d1d1d1"
     inkscape:document-units="px"
     showgrid="false"
     inkscape:zoom="18.068182"
     inkscape:cx="9.436478"
     inkscape:cy="10.76478"
     inkscape:window-width="1920"
     inkscape:window-height="1007"
     inkscape:window-x="0"
     inkscape:window-y="0"
     inkscape:window-maximized="1"
     inkscape:current-layer="svg5" />
  <defs
     id="defs2">
    <linearGradient
       inkscape:collect="always"
       xlink:href="#linearGradient21236"
       id="linearGradient10386"
       x1="19"
       y1="23"
       x2="5"
       y2="1"
       gradientUnits="userSpaceOnUse" />
    <linearGradient
       inkscape:collect="always"
       id="linearGradient21236">
      <stop
         style="stop-color:#3689e6;stop-opacity:1;"
         offset="0"
         id="stop21232" />
      <stop
         style="stop-color:#5dcffc;stop-opacity:1;"
         offset="1"
         id="stop21234" />
    </linearGradient>
    <linearGradient
       inkscape:collect="always"
       xlink:href="#linearGradient950"
       id="linearGradient5187"
       x1="-13.008687"
       y1="-14.01332"
       x2="-14.419785"
       y2="-14.014091"
       gradientUnits="userSpaceOnUse"
       gradientTransform="matrix(1.4173446,0,0,1.4173446,2.4672345,14.125213)" />
    <linearGradient
       inkscape:collect="always"
       id="linearGradient950">
      <stop
         style="stop-color:#ffffff;stop-opacity:1"
         offset="0"
         id="stop946" />
      <stop
         style="stop-color:#dddddd;stop-opacity:1"
         offset="1"
         id="stop948" />
    </linearGradient>
    <linearGradient
       inkscape:collect="always"
       xlink:href="#linearGradient2205"
       id="linearGradient5250"
       x1="12.472873"
       y1="7.6788507"
       x2="14.58952"
       y2="7.6786656"
       gradientUnits="userSpaceOnUse"
       gradientTransform="matrix(0.66814266,0.66814266,-0.66814266,0.66814266,11.992883,-6.07442)" />
    <linearGradient
       inkscape:collect="always"
       id="linearGradient2205">
      <stop
         style="stop-color:#818181;stop-opacity:1"
         offset="0"
         id="stop2201" />
      <stop
         style="stop-color:#404040;stop-opacity:1"
         offset="1"
         id="stop2203" />
    </linearGradient>
  </defs>
  <rect
     style="fill:url(#linearGradient10386);fill-opacity:1;stroke:none"
     id="rect184"
     width="21"
     height="21"
     x="1.5"
     y="1.5"
     ry="3.5" />
  <path
     id="rect994"
     style="opacity:0.6;fill:#ffffff;stroke-width:3;stroke-linecap:round;stroke-linejoin:round"
     d="M 10,4 9,5 10,6 11,5 Z M 7,6 6,7 7,8 8,7 Z m 3,2 -1,1 1,1 1,-1 z" />
  <rect
     style="opacity:0.2;fill:#000000;stroke-width:1.50001;stroke-linecap:round;stroke-linejoin:round"
     id="rect4816"
     width="2.0000122"
     height="16.000097"
     x="-18.677681"
     y="-8.707159"
     transform="rotate(-135)" />
  <rect
     style="fill:url(#linearGradient5187);fill-opacity:1;stroke-width:2.25001;stroke-linecap:round;stroke-linejoin:round"
     id="rect4814"
     width="2.0000122"
     height="16.000097"
     x="-17.97057"
     y="-8.0000486"
     transform="rotate(-135)" />
  <path
     id="rect5241"
     style="fill:url(#linearGradient5250);fill-opacity:1;stroke-width:1.50001;stroke-linecap:round;stroke-linejoin:round"
     d="m 18.363999,7.0502229 -2.62137,2.621371 -1.414221,-1.414222 2.621369,-2.621371 z"
     sodipodi:nodetypes="ccccc" />
  <path
     id="rect2630"
     style="opacity:0.3;fill:#ffffff;fill-opacity:1"
     d="m 4.9999999,2 c -1.6619983,0 -3,1.3380017 -3,2.9999997 v 1 c 0,-1.661998 1.3380017,-3 3,-3 H 19 c 1.661998,0 3,1.338002 3,3 v -1 C 22,3.3380017 20.661998,2 19,2 Z" />
  <path
     id="rect398"
     style="opacity:0.3;fill:#ffffff"
     d="m 2,18 v 1 c 0,1.661998 1.3380017,3 3,3 h 14 c 1.661998,0 3,-1.338002 3,-3 v -1 c 0,1.661998 -1.338002,3 -3,3 H 5 C 3.3380017,21 2,19.661998 2,18 Z" />
  <path
     id="rect899"
     style="opacity:0.5;fill:#000000;stroke:none"
     d="M 5,1 C 2.7840022,1 1,2.7840022 1,5 v 14 c 0,2.215998 1.7840022,4 4,4 h 14 c 2.215998,0 4,-1.784002 4,-4 V 5 C 23,2.7840022 21.215998,1 19,1 Z m 0,1 h 14 c 1.661998,0 3,1.3380017 3,3 v 14 c 0,1.661998 -1.338002,3 -3,3 H 5 C 3.3380017,22 2,20.661998 2,19 V 5 C 2,3.3380017 3.3380017,2 5,2 Z" />
</svg>
