<?xml version="1.0" encoding="UTF-8" standalone="no"?>
<!-- Created with Inkscape (http://www.inkscape.org/) -->

<svg
   width="24"
   height="24"
   viewBox="0 0 24 24.000001"
   version="1.1"
   id="svg5"
   sodipodi:docname="preferences-system-time.svg"
   inkscape:version="1.2.1 (9c6d41e410, 2022-07-14)"
   xmlns:inkscape="http://www.inkscape.org/namespaces/inkscape"
   xmlns:sodipodi="http://sodipodi.sourceforge.net/DTD/sodipodi-0.dtd"
   xmlns:xlink="http://www.w3.org/1999/xlink"
   xmlns="http://www.w3.org/2000/svg"
   xmlns:svg="http://www.w3.org/2000/svg">
  <sodipodi:namedview
     id="namedview7"
     pagecolor="#ffffff"
     bordercolor="#666666"
     borderopacity="1.0"
     inkscape:showpageshadow="2"
     inkscape:pageopacity="0.0"
     inkscape:pagecheckerboard="0"
     inkscape:deskcolor="#d1d1d1"
     inkscape:document-units="px"
     showgrid="false"
     inkscape:zoom="13.19397"
     inkscape:cx="13.907869"
     inkscape:cy="15.726882"
     inkscape:window-width="1920"
     inkscape:window-height="1007"
     inkscape:window-x="0"
     inkscape:window-y="0"
     inkscape:window-maximized="1"
     inkscape:current-layer="svg5"
     showguides="true" />
  <defs
     id="defs2">
    <linearGradient
       inkscape:collect="always"
       xlink:href="#linearGradient1391"
       id="linearGradient10386"
       x1="19"
       y1="23"
       x2="5"
       y2="1"
       gradientUnits="userSpaceOnUse" />
    <linearGradient
       inkscape:collect="always"
       id="linearGradient1391">
      <stop
         style="stop-color:#1664b7;stop-opacity:1;"
         offset="0"
         id="stop1387" />
      <stop
         style="stop-color:#6fa7cf;stop-opacity:1;"
         offset="1"
         id="stop1389" />
    </linearGradient>
  </defs>
  <rect
     style="fill:url(#linearGradient10386);fill-opacity:1;stroke:none"
     id="rect184"
     width="21"
     height="21"
     x="1.5"
     y="1.5"
     ry="3.5" />
  <path
     id="path1148"
     style="opacity:0.2;fill:#000000;stroke-width:3;stroke-linecap:round;stroke-linejoin:round"
     d="m 12,6 c -3.8659932,0 -7,3.1340068 -7,7 0,3.865993 3.1340068,7 7,7 3.865993,0 7,-3.134007 7,-7 0,-3.8659932 -3.134007,-7 -7,-7 z m 0,1 c 3.313708,0 6,2.6862915 6,6 0,3.313708 -2.686292,6 -6,6 C 8.6862915,19 6,16.313708 6,13 6,9.6862915 8.6862915,7 12,7 Z m -1,2 v 5 l 4.097656,2.5 0.5,-0.865234 L 12,13.423828 V 9 Z"
     sodipodi:nodetypes="ssssssssssccccccc" />
  <path
     d="m 12,4.9999994 c -3.8659931,0 -6.9999999,3.1340068 -6.9999999,7.0000006 0,3.865994 3.1340068,7.000001 6.9999999,7.000001 3.865993,0 7,-3.134007 7,-7.000001 0,-3.8659938 -3.134007,-7.0000007 -7,-7.0000006 z m 0,0.9999999 c 3.313708,0 6,2.6862918 6,6.0000007 0,3.313709 -2.686292,6.000001 -6,6.000001 C 8.6862916,18.000001 6.0000001,15.313709 6.0000001,12 6.0000001,8.686291 8.6862916,5.9999993 12,5.9999993 Z m -1,2.0000001 v 5.0000016 l 4.097656,2.5 0.5,-0.865234 L 12,12.423829 V 7.9999994 Z"
     style="opacity:1;fill:#ffffff;stroke-width:3;stroke-linecap:round;stroke-linejoin:round"
     id="path1205" />
  <path
     id="rect2630"
     style="opacity:0.3;fill:#ffffff;fill-opacity:1"
     d="m 4.9999999,2 c -1.6619983,0 -3,1.3380017 -3,2.9999997 v 1 c 0,-1.661998 1.3380017,-3 3,-3 H 19 c 1.661998,0 3,1.338002 3,3 v -1 C 22,3.3380017 20.661998,2 19,2 Z" />
  <path
     id="rect398"
     style="opacity:0.3;fill:#ffffff"
     d="m 2,18 v 1 c 0,1.661998 1.3380017,3 3,3 h 14 c 1.661998,0 3,-1.338002 3,-3 v -1 c 0,1.661998 -1.338002,3 -3,3 H 5 C 3.3380017,21 2,19.661998 2,18 Z" />
  <path
     id="rect899"
     style="opacity:0.5;fill:#000000;stroke:none"
     d="M 5,1 C 2.7840022,1 1,2.7840022 1,5 v 14 c 0,2.215998 1.7840022,4 4,4 h 14 c 2.215998,0 4,-1.784002 4,-4 V 5 C 23,2.7840022 21.215998,1 19,1 Z m 0,1 h 14 c 1.661998,0 3,1.3380017 3,3 v 14 c 0,1.661998 -1.338002,3 -3,3 H 5 C 3.3380017,22 2,20.661998 2,19 V 5 C 2,3.3380017 3.3380017,2 5,2 Z" />
</svg>
