<?xml version="1.0" encoding="UTF-8" standalone="no"?>
<!-- Created with Inkscape (http://www.inkscape.org/) -->

<svg
   width="24"
   height="24"
   viewBox="0 0 24 24.000001"
   version="1.1"
   id="svg5"
   sodipodi:docname="preferences-desktop-notification-bell.svg"
   inkscape:version="1.2.1 (9c6d41e410, 2022-07-14)"
   xmlns:inkscape="http://www.inkscape.org/namespaces/inkscape"
   xmlns:sodipodi="http://sodipodi.sourceforge.net/DTD/sodipodi-0.dtd"
   xmlns:xlink="http://www.w3.org/1999/xlink"
   xmlns="http://www.w3.org/2000/svg"
   xmlns:svg="http://www.w3.org/2000/svg">
  <sodipodi:namedview
     id="namedview7"
     pagecolor="#ffffff"
     bordercolor="#666666"
     borderopacity="1.0"
     inkscape:showpageshadow="2"
     inkscape:pageopacity="0.0"
     inkscape:pagecheckerboard="0"
     inkscape:deskcolor="#d1d1d1"
     inkscape:document-units="px"
     showgrid="false"
     inkscape:zoom="8.9772728"
     inkscape:cx="-11.13924"
     inkscape:cy="19.437975"
     inkscape:window-width="1920"
     inkscape:window-height="1009"
     inkscape:window-x="0"
     inkscape:window-y="0"
     inkscape:window-maximized="1"
     inkscape:current-layer="svg5"
     showguides="true" />
  <defs
     id="defs2">
    <linearGradient
       inkscape:collect="always"
       xlink:href="#linearGradient3551"
       id="linearGradient10386"
       x1="19"
       y1="23"
       x2="5"
       y2="1"
       gradientUnits="userSpaceOnUse" />
    <linearGradient
       inkscape:collect="always"
       id="linearGradient3551">
      <stop
         style="stop-color:#ffa028;stop-opacity:1;"
         offset="0"
         id="stop3547" />
      <stop
         style="stop-color:#ffe183;stop-opacity:1;"
         offset="1"
         id="stop3549" />
    </linearGradient>
  </defs>
  <rect
     style="fill:url(#linearGradient10386);fill-opacity:1.0;stroke:none"
     id="rect184"
     width="21"
     height="21"
     x="1.5"
     y="1.5"
     ry="3.5" />
  <path
     d="m 12.000035,6 c -0.554,0 -1,0.44602 -1,1 -2.3e-4,0.0111 -10e-6,0.0204 -3e-5,0.0312 -1.72799,0.44814 -3,1.96882 -3,3.968809 0,2.005241 6.9e-4,6.000011 -1.78125,6.000011 -0.11871,0 -0.21873,0.11154 -0.21875,0.24999 l -10e-6,0.75001 12.00001,-2e-5 v -0.75 c 3e-5,-0.1385 -0.10051,-0.24982 -0.21875,-0.25 -1.78891,10e-6 -1.78125,-3.99511 -1.78125,-5.999991 0,-1.999999 -1.27186,-3.520729 -3,-3.968759 3.4e-4,-0.0108 -2e-5,-0.0205 4e-5,-0.0312 0,-0.5540101 -0.44602,-0.9999901 -1.00001,-0.9999901 z m -1.71875,13.00001 c 0.34604,0.59689 0.97915,1 1.71875,1 0.7396,0 1.3727,-0.40311 1.71875,-1.00001 z"
     style="color:#000000;display:inline;overflow:visible;visibility:visible;fill:#000000;fill-opacity:1;fill-rule:nonzero;stroke:none;stroke-width:4;marker:none;enable-background:accumulate;opacity:0.2"
     id="path1434" />
  <path
     d="m 12.000035,4.999995 c -0.554,0 -1,0.44602 -1,1 -2.3e-4,0.0111 -10e-6,0.0204 -3e-5,0.0312 -1.72799,0.44814 -3,1.96882 -3,3.96881 0,2.00524 6.9e-4,6.00001 -1.78125,6.00001 -0.11871,0 -0.21873,0.11154 -0.21875,0.24999 l -10e-6,0.75001 12.00001,-2e-5 v -0.75 c 3e-5,-0.1385 -0.10051,-0.24982 -0.21875,-0.25 -1.78891,1e-5 -1.78125,-3.99511 -1.78125,-5.99999 0,-2 -1.27186,-3.52073 -3,-3.96876 3.4e-4,-0.0108 -2e-5,-0.0205 4e-5,-0.0312 0,-0.55401 -0.44602,-0.99999 -1.00001,-0.99999 z m -1.71875,13.00001 c 0.34604,0.59689 0.97915,1 1.71875,1 0.7396,0 1.3727,-0.40311 1.71875,-1.00001 z"
     style="color:#000000;display:inline;overflow:visible;visibility:visible;fill:#ffffff;fill-opacity:1;fill-rule:nonzero;stroke:none;stroke-width:4;marker:none;enable-background:accumulate"
     id="path478"
     sodipodi:nodetypes="cccsscccccscccccscc" />
  <path
     id="rect2630"
     style="fill:#ffffff;fill-opacity:1;opacity:0.3"
     d="m 4.9999999,2 c -1.6619983,0 -3,1.3380017 -3,2.9999997 v 1 c 0,-1.661998 1.3380017,-3 3,-3 H 19 c 1.661998,0 3,1.338002 3,3 v -1 C 22,3.3380017 20.661998,2 19,2 Z" />
  <path
     id="rect398"
     style="opacity:0.3;fill:#ffffff"
     d="m 2,18 v 1 c 0,1.661998 1.3380017,3 3,3 h 14 c 1.661998,0 3,-1.338002 3,-3 v -1 c 0,1.661998 -1.338002,3 -3,3 H 5 C 3.3380017,21 2,19.661998 2,18 Z" />
  <path
     id="rect899"
     style="opacity:0.5;fill:#000000;stroke:none"
     d="M 5,1 C 2.7840022,1 1,2.7840022 1,5 v 14 c 0,2.215998 1.7840022,4 4,4 h 14 c 2.215998,0 4,-1.784002 4,-4 V 5 C 23,2.7840022 21.215998,1 19,1 Z m 0,1 h 14 c 1.661998,0 3,1.3380017 3,3 v 14 c 0,1.661998 -1.338002,3 -3,3 H 5 C 3.3380017,22 2,20.661998 2,19 V 5 C 2,3.3380017 3.3380017,2 5,2 Z" />
</svg>
