<?xml version="1.0" encoding="UTF-8" standalone="no"?>
<!-- Created with Inkscape (http://www.inkscape.org/) -->

<svg
   width="24"
   height="24"
   viewBox="0 0 24 24.000001"
   version="1.1"
   id="svg5"
   sodipodi:docname="preferences-desktop-theme-applications.svg"
   inkscape:version="1.2.1 (9c6d41e410, 2022-07-14)"
   xmlns:inkscape="http://www.inkscape.org/namespaces/inkscape"
   xmlns:sodipodi="http://sodipodi.sourceforge.net/DTD/sodipodi-0.dtd"
   xmlns:xlink="http://www.w3.org/1999/xlink"
   xmlns="http://www.w3.org/2000/svg"
   xmlns:svg="http://www.w3.org/2000/svg">
  <sodipodi:namedview
     id="namedview7"
     pagecolor="#ffffff"
     bordercolor="#666666"
     borderopacity="1.0"
     inkscape:showpageshadow="2"
     inkscape:pageopacity="0.0"
     inkscape:pagecheckerboard="0"
     inkscape:deskcolor="#d1d1d1"
     inkscape:document-units="px"
     showgrid="false"
     inkscape:zoom="11.43156"
     inkscape:cx="-0.65607844"
     inkscape:cy="18.588889"
     inkscape:window-width="1920"
     inkscape:window-height="1007"
     inkscape:window-x="0"
     inkscape:window-y="0"
     inkscape:window-maximized="1"
     inkscape:current-layer="svg5" />
  <defs
     id="defs2">
    <linearGradient
       inkscape:collect="always"
       xlink:href="#linearGradient22024"
       id="linearGradient10386"
       x1="12"
       y1="23"
       x2="12"
       y2="7"
       gradientUnits="userSpaceOnUse" />
    <linearGradient
       inkscape:collect="always"
       id="linearGradient22024">
      <stop
         style="stop-color:#dedede;stop-opacity:1;"
         offset="0"
         id="stop22020" />
      <stop
         style="stop-color:#f2f2f2;stop-opacity:1;"
         offset="1"
         id="stop22022" />
    </linearGradient>
  </defs>
  <rect
     style="fill:url(#linearGradient10386);fill-opacity:1;stroke:none"
     id="rect184"
     width="21"
     height="21"
     x="1.5"
     y="1.5"
     ry="3.5" />
  <path
     id="path1237"
     style="display:inline;opacity:0.2;fill:#000000;fill-opacity:1;stroke:none;enable-background:new"
     d="M 11.5,11 C 11.223,11 11,11.223001 11,11.5 v 1.15625 c -0.2317,0.0685 -0.447301,0.16882 -0.65625,0.28125 L 9.53125,12.125 c -0.19587,-0.19587 -0.522881,-0.19587 -0.71875,0 L 8.125,12.8125 c -0.19587,0.19587 -0.19587,0.52288 0,0.71875 l 0.8125,0.8125 C 8.82507,14.5527 8.72473,14.7683 8.65625,15 H 7.5 C 7.223,15 7,15.223001 7,15.5 v 1 C 7,16.777 7.223,17 7.5,17 h 1.15625 c 0.0685,0.2317 0.16882,0.4473 0.28125,0.65625 l -0.8125,0.8125 c -0.19587,0.19587 -0.19587,0.52288 0,0.71875 l 0.6875,0.6875 c 0.195869,0.19587 0.52288,0.19587 0.71875,0 l 0.8125,-0.8125 C 10.552699,19.17493 10.7683,19.27527 11,19.34375 V 20.5 c 0,0.277 0.223,0.5 0.5,0.5 h 1 c 0.276999,0 0.5,-0.223 0.5,-0.5 v -1.15625 c 0.231699,-0.0685 0.4473,-0.16882 0.65625,-0.28125 l 0.8125,0.8125 c 0.195869,0.19587 0.52288,0.19587 0.71875,0 l 0.6875,-0.6875 c 0.195869,-0.19587 0.195869,-0.52288 0,-0.71875 l -0.8125,-0.8125 C 15.17493,17.4473 15.27527,17.2317 15.34375,17 H 16.5 c 0.276999,0 0.5,-0.223 0.5,-0.5 v -1 C 17,15.223001 16.776999,15 16.5,15 h -1.15625 c -0.0685,-0.2317 -0.16882,-0.4473 -0.28125,-0.65625 l 0.8125,-0.8125 c 0.195869,-0.19587 0.195869,-0.52288 0,-0.71875 L 15.1875,12.125 c -0.19587,-0.19587 -0.522881,-0.19587 -0.71875,0 l -0.8125,0.8125 C 13.4473,12.82507 13.231699,12.72473 13,12.65625 V 11.5 C 13,11.223001 12.776999,11 12.5,11 Z m 0.5,3 c 1.104569,0 2,0.895431 2,2 0,1.104569 -0.895431,2 -2,2 -1.104569,0 -2,-0.895431 -2,-2 0,-0.13807 0.0051,-0.27605 0.03125,-0.40625 C 10.217789,14.682381 11.033501,14 12,14 Z" />
  <path
     id="path429"
     style="display:inline;fill:#4d4d4d;fill-opacity:1;stroke:none;enable-background:new"
     d="M 11.5,10 C 11.223,10 11,10.223001 11,10.5 v 1.15625 c -0.2317,0.0685 -0.447301,0.16882 -0.65625,0.28125 L 9.53125,11.125 c -0.19587,-0.19587 -0.522881,-0.19587 -0.71875,0 L 8.125,11.8125 c -0.19587,0.19587 -0.19587,0.52288 0,0.71875 l 0.8125,0.8125 C 8.82507,13.5527 8.72473,13.7683 8.65625,14 H 7.5 C 7.223,14 7,14.223001 7,14.5 v 1 C 7,15.777 7.223,16 7.5,16 h 1.15625 c 0.0685,0.2317 0.16882,0.4473 0.28125,0.65625 l -0.8125,0.8125 c -0.19587,0.19587 -0.19587,0.52288 0,0.71875 l 0.6875,0.6875 c 0.195869,0.19587 0.52288,0.19587 0.71875,0 l 0.8125,-0.8125 C 10.552699,18.17493 10.7683,18.27527 11,18.34375 V 19.5 c 0,0.277 0.223,0.5 0.5,0.5 h 1 c 0.276999,0 0.5,-0.223 0.5,-0.5 v -1.15625 c 0.231699,-0.0685 0.4473,-0.16882 0.65625,-0.28125 l 0.8125,0.8125 c 0.195869,0.19587 0.52288,0.19587 0.71875,0 l 0.6875,-0.6875 c 0.195869,-0.19587 0.195869,-0.52288 0,-0.71875 l -0.8125,-0.8125 C 15.17493,16.4473 15.27527,16.2317 15.34375,16 H 16.5 c 0.276999,0 0.5,-0.223 0.5,-0.5 v -1 C 17,14.223001 16.776999,14 16.5,14 h -1.15625 c -0.0685,-0.2317 -0.16882,-0.4473 -0.28125,-0.65625 l 0.8125,-0.8125 c 0.195869,-0.19587 0.195869,-0.52288 0,-0.71875 L 15.1875,11.125 c -0.19587,-0.19587 -0.522881,-0.19587 -0.71875,0 l -0.8125,0.8125 C 13.4473,11.82507 13.231699,11.72473 13,11.65625 V 10.5 C 13,10.223001 12.776999,10 12.5,10 Z m 0.5,3 c 1.104569,0 2,0.895431 2,2 0,1.104569 -0.895431,2 -2,2 -1.104569,0 -2,-0.895431 -2,-2 0,-0.13807 0.0051,-0.27605 0.03125,-0.40625 C 10.217789,13.682381 11.033501,13 12,13 Z" />
  <path
     id="rect348"
     style="fill:#6a747d;fill-opacity:1;stroke-width:0.381881;stroke-linejoin:round"
     d="M 5,1.5 C 3.0610019,1.5 1.5,3.0610019 1.5,5 v 3 h 21 V 5 C 22.5,3.0610019 20.938998,1.5 19,1.5 Z"
     sodipodi:nodetypes="ssccsss" />
  <path
     id="path292"
     style="opacity:0.2;fill:#000000;stroke-width:3;stroke-linecap:round;stroke-linejoin:round"
     d="m 14,4.9999997 c -0.552285,0 -1,0.447715 -1,1 0,0.552285 0.447715,1 1,1 0.552285,0 1,-0.447715 1,-1 0,-0.552285 -0.447715,-1 -1,-1 z m 3,0 c -0.552285,0 -1,0.447715 -1,1 0,0.552285 0.447715,1 1,1 0.552285,0 1,-0.447715 1,-1 0,-0.552285 -0.447715,-1 -1,-1 z m 3,0 c -0.552285,0 -1,0.447715 -1,1 0,0.552285 0.447715,1 1,1 0.552285,0 1,-0.447715 1,-1 0,-0.552285 -0.447715,-1 -1,-1 z"
     sodipodi:nodetypes="sssssssssssssss" />
  <path
     d="m 14,3.9999997 c -0.552285,0 -1,0.447715 -1,1 0,0.552285 0.447715,1 1,1 0.552285,0 1,-0.447715 1,-1 0,-0.552285 -0.447715,-1 -1,-1 z m 3,0 c -0.552285,0 -1,0.447715 -1,1 0,0.552285 0.447715,1 1,1 0.552285,0 1,-0.447715 1,-1 0,-0.552285 -0.447715,-1 -1,-1 z m 3,0 c -0.552285,0 -1,0.447715 -1,1 0,0.552285 0.447715,1 1,1 0.552285,0 1,-0.447715 1,-1 0,-0.552285 -0.447715,-1 -1,-1 z"
     style="fill:#ffffff;stroke-width:3;stroke-linecap:round;stroke-linejoin:round"
     id="path522" />
  <rect
     style="opacity:0.2;fill:#000000;stroke-width:0.572822;stroke-linejoin:round"
     id="rect581"
     width="21"
     height="1"
     x="1.5"
     y="7" />
  <path
     id="rect2630"
     style="opacity:0.3;fill:#ffffff;fill-opacity:1"
     d="m 4.9999999,2 c -1.6619983,0 -3,1.3380017 -3,2.9999997 v 1 c 0,-1.661998 1.3380017,-3 3,-3 H 19 c 1.661998,0 3,1.338002 3,3 v -1 C 22,3.3380017 20.661998,2 19,2 Z" />
  <path
     id="rect398"
     style="opacity:0.3;fill:#ffffff"
     d="m 2,18 v 1 c 0,1.661998 1.3380017,3 3,3 h 14 c 1.661998,0 3,-1.338002 3,-3 v -1 c 0,1.661998 -1.338002,3 -3,3 H 5 C 3.3380017,21 2,19.661998 2,18 Z" />
  <path
     id="rect899"
     style="opacity:0.5;fill:#000000;stroke:none"
     d="M 5,1 C 2.7840022,1 1,2.7840022 1,5 v 14 c 0,2.215998 1.7840022,4 4,4 h 14 c 2.215998,0 4,-1.784002 4,-4 V 5 C 23,2.7840022 21.215998,1 19,1 Z m 0,1 h 14 c 1.661998,0 3,1.3380017 3,3 v 14 c 0,1.661998 -1.338002,3 -3,3 H 5 C 3.3380017,22 2,20.661998 2,19 V 5 C 2,3.3380017 3.3380017,2 5,2 Z" />
</svg>
