<?xml version="1.0" encoding="UTF-8" standalone="no"?>
<!-- Created with Inkscape (http://www.inkscape.org/) -->

<svg
   width="24"
   height="24"
   viewBox="0 0 24 24.000001"
   version="1.1"
   id="svg5"
   sodipodi:docname="preferences-desktop-emoticons.svg"
   inkscape:version="1.2.1 (9c6d41e410, 2022-07-14)"
   xmlns:inkscape="http://www.inkscape.org/namespaces/inkscape"
   xmlns:sodipodi="http://sodipodi.sourceforge.net/DTD/sodipodi-0.dtd"
   xmlns:xlink="http://www.w3.org/1999/xlink"
   xmlns="http://www.w3.org/2000/svg"
   xmlns:svg="http://www.w3.org/2000/svg">
  <sodipodi:namedview
     id="namedview7"
     pagecolor="#ffffff"
     bordercolor="#666666"
     borderopacity="1.0"
     inkscape:showpageshadow="2"
     inkscape:pageopacity="0.0"
     inkscape:pagecheckerboard="0"
     inkscape:deskcolor="#d1d1d1"
     inkscape:document-units="px"
     showgrid="false"
     inkscape:zoom="16.166667"
     inkscape:cx="0.64948452"
     inkscape:cy="15.618556"
     inkscape:window-width="1920"
     inkscape:window-height="1007"
     inkscape:window-x="0"
     inkscape:window-y="0"
     inkscape:window-maximized="1"
     inkscape:current-layer="svg5" />
  <defs
     id="defs2">
    <linearGradient
       inkscape:collect="always"
       xlink:href="#linearGradient986"
       id="linearGradient10386"
       x1="12"
       y1="23"
       x2="12"
       y2="1"
       gradientUnits="userSpaceOnUse" />
    <linearGradient
       inkscape:collect="always"
       id="linearGradient986">
      <stop
         style="stop-color:#ffa12a;stop-opacity:1;"
         offset="0"
         id="stop982" />
      <stop
         style="stop-color:#ffdc75;stop-opacity:1;"
         offset="1"
         id="stop984" />
    </linearGradient>
  </defs>
  <rect
     style="fill:url(#linearGradient10386);fill-opacity:1;stroke:none"
     id="rect184"
     width="21"
     height="21"
     x="1.5"
     y="1.5"
     ry="3.5" />
  <path
     d="m 12,6 c -3.865993,1e-7 -7,3.1340068 -7,7.000001 0,3.865993 3.134007,7 7,7 3.865993,0 7,-3.134007 7,-7 C 19,9.1340068 15.865993,6 12,6 Z M 9,9.0000001 c 0.552284,0 1,0.4477159 1,0.9999999 0,0.552284 -0.447716,1 -1,1 C 8.447716,11 8,10.552284 8,10 8,9.447716 8.447716,9.0000001 9,9.0000001 Z m 6,0 c 0.552284,0 1,0.4477159 1,0.9999999 0,0.552284 -0.447716,1 -1,1 -0.552284,0 -1,-0.447716 -1,-1 0,-0.552284 0.447716,-0.9999999 1,-0.9999999 z m 0.160156,6.5996099 c 0.105731,0.0014 0.208299,0.03626 0.292969,0.09961 0.221534,0.165879 0.26618,0.480159 0.09961,0.701172 0,0 -1.226613,1.599609 -3.548827,1.599609 -2.322217,0 -3.550783,-1.599609 -3.550783,-1.599609 -0.166571,-0.221013 -0.121923,-0.535294 0.09961,-0.701172 0.106367,-0.07923 0.239858,-0.11296 0.371094,-0.09375 0.131614,0.01864 0.250389,0.08892 0.330078,0.195312 0,0 0.872228,1.199219 2.75,1.199219 1.877772,0 2.749999,-1.199219 2.749999,-1.199219 0.09549,-0.128122 0.246467,-0.202872 0.40625,-0.201172 z"
     style="opacity:0.2;fill:#000000;stroke-linecap:round;stroke-linejoin:round"
     id="path1433" />
  <path
     id="path1231"
     style="fill:#ffffff;stroke-linecap:round;stroke-linejoin:round"
     d="M 12,5.0000002 C 8.1340069,5.0000003 5.0000003,8.1340069 5.0000002,12 c 0,3.865993 3.1340066,7 6.9999998,7 3.865993,0 7,-3.134007 7,-7 0,-3.8659932 -3.134007,-6.9999998 -7,-6.9999998 z m -2.9999998,3 C 9.5522843,8.0000002 10,8.4477161 10,9.0000002 10,9.5522843 9.5522843,10 9.0000002,10 c -0.5522841,0 -1,-0.4477157 -1,-0.9999998 0,-0.5522841 0.4477159,-1 1,-1 z m 5.9999998,0 c 0.552284,0 1,0.4477159 1,1 C 16,9.5522843 15.552284,10 15,10 14.447716,10 14,9.5522843 14,9.0000002 c 0,-0.5522841 0.447716,-1 1,-1 z m 0.160156,6.5996088 c 0.105731,0.0014 0.208299,0.03626 0.292969,0.09961 0.221534,0.165879 0.26618,0.480159 0.09961,0.701172 0,0 -1.226613,1.599609 -3.548827,1.599609 -2.3222168,0 -3.5507828,-1.599609 -3.5507828,-1.599609 -0.1665708,-0.221013 -0.1219233,-0.535294 0.099609,-0.701172 0.1063672,-0.07923 0.2398577,-0.11296 0.3710937,-0.09375 0.131614,0.01864 0.2503892,0.08892 0.3300781,0.195312 10e-8,0 0.872228,1.199219 2.75,1.199219 1.877772,0 2.749999,-1.199219 2.749999,-1.199219 0.09549,-0.128122 0.246467,-0.202872 0.406251,-0.201172 z"
     sodipodi:nodetypes="ssssssssssssssscccsccccscc" />
  <path
     id="rect2630"
     style="opacity:0.3;fill:#ffffff;fill-opacity:1"
     d="m 4.9999999,2 c -1.6619983,0 -3,1.3380017 -3,2.9999997 v 1 c 0,-1.661998 1.3380017,-3 3,-3 H 19 c 1.661998,0 3,1.338002 3,3 v -1 C 22,3.3380017 20.661998,2 19,2 Z" />
  <path
     id="rect398"
     style="opacity:0.3;fill:#ffffff"
     d="m 2,18 v 1 c 0,1.661998 1.3380017,3 3,3 h 14 c 1.661998,0 3,-1.338002 3,-3 v -1 c 0,1.661998 -1.338002,3 -3,3 H 5 C 3.3380017,21 2,19.661998 2,18 Z" />
  <path
     id="rect899"
     style="opacity:0.5;fill:#000000;stroke:none"
     d="M 5,1 C 2.7840022,1 1,2.7840022 1,5 v 14 c 0,2.215998 1.7840022,4 4,4 h 14 c 2.215998,0 4,-1.784002 4,-4 V 5 C 23,2.7840022 21.215998,1 19,1 Z m 0,1 h 14 c 1.661998,0 3,1.3380017 3,3 v 14 c 0,1.661998 -1.338002,3 -3,3 H 5 C 3.3380017,22 2,20.661998 2,19 V 5 C 2,3.3380017 3.3380017,2 5,2 Z" />
</svg>
