<?xml version="1.0" encoding="UTF-8" standalone="no"?>
<!-- Created with Inkscape (http://www.inkscape.org/) -->

<svg
   width="24"
   height="24"
   viewBox="0 0 24 24.000001"
   version="1.1"
   id="svg5"
   sodipodi:docname="preferences-desktop-keyboard.svg"
   inkscape:version="1.2.1 (9c6d41e410, 2022-07-14)"
   xmlns:inkscape="http://www.inkscape.org/namespaces/inkscape"
   xmlns:sodipodi="http://sodipodi.sourceforge.net/DTD/sodipodi-0.dtd"
   xmlns:xlink="http://www.w3.org/1999/xlink"
   xmlns="http://www.w3.org/2000/svg"
   xmlns:svg="http://www.w3.org/2000/svg">
  <sodipodi:namedview
     id="namedview7"
     pagecolor="#ffffff"
     bordercolor="#666666"
     borderopacity="1.0"
     inkscape:showpageshadow="2"
     inkscape:pageopacity="0.0"
     inkscape:pagecheckerboard="0"
     inkscape:deskcolor="#d1d1d1"
     inkscape:document-units="px"
     showgrid="false"
     inkscape:zoom="33"
     inkscape:cx="11.984848"
     inkscape:cy="12"
     inkscape:window-width="1920"
     inkscape:window-height="1007"
     inkscape:window-x="0"
     inkscape:window-y="0"
     inkscape:window-maximized="1"
     inkscape:current-layer="svg5" />
  <defs
     id="defs2">
    <linearGradient
       inkscape:collect="always"
       xlink:href="#linearGradient22024"
       id="linearGradient10386"
       x1="19"
       y1="23"
       x2="5"
       y2="1"
       gradientUnits="userSpaceOnUse" />
    <linearGradient
       inkscape:collect="always"
       id="linearGradient22024">
      <stop
         style="stop-color:#cdcdcd;stop-opacity:1;"
         offset="0"
         id="stop22020" />
      <stop
         style="stop-color:#eff0f1;stop-opacity:1;"
         offset="1"
         id="stop22022" />
    </linearGradient>
  </defs>
  <rect
     style="fill:url(#linearGradient10386);fill-opacity:1.0;stroke:none"
     id="rect184"
     width="21"
     height="21"
     x="1.5"
     y="1.5"
     ry="3.5" />
  <path
     d="M 4.9999999,7 C 4.4460005,7 4,7.446 4,8 v 2 c 0,0.553999 0.4460005,1 0.9999999,1 H 7 c 0.5539993,0 0.9999998,-0.446001 0.9999998,-1 V 8 C 7.9999998,7.446 7.5539993,7 7,7 Z M 11,7 c -0.553999,0 -1,0.446 -1,1 v 2 c 0,0.553999 0.446001,1 1,1 h 2 c 0.554,0 1,-0.446001 1,-1 V 8 C 14,7.446 13.554,7 13,7 Z m 6,0 c -0.554,0 -1,0.446 -1,1 v 2 c 0,0.553999 0.446,1 1,1 h 2 c 0.553999,0 1,-0.446001 1,-1 V 8 C 20,7.446 19.553999,7 19,7 Z M 5.9999998,13 c -0.5539994,0 -0.9999999,0.446 -0.9999999,1 v 2 c 0,0.553999 0.4460005,1 0.9999999,1 H 18 c 0.553999,0 1,-0.446001 1,-1 v -2 c 0,-0.554 -0.446001,-1 -1,-1 z"
     style="fill:#afafaf;fill-opacity:1;stroke-width:0.999999;stroke-linecap:round;stroke-linejoin:round"
     id="path1728"
     sodipodi:nodetypes="ssssssssssssssssssssssssssssssssssss" />
  <path
     id="path1695"
     style="opacity:0.2;fill:#000000;fill-opacity:0.961371;stroke-width:0.999999;stroke-linecap:round;stroke-linejoin:round"
     d="M 5,7 C 4.4460012,7 4,7.446001 4,8 V 9 C 4,8.446001 4.4460012,8 5,8 H 7 C 7.5539987,8 8,8.446001 8,9 V 8 C 8,7.446001 7.5539987,7 7,7 Z m 6,0 c -0.553998,0 -1,0.446001 -1,1 v 1 c 0,-0.553999 0.446002,-1 1,-1 h 2 c 0.553999,0 1,0.446001 1,1 V 8 C 14,7.446001 13.553999,7 13,7 Z m 6,0 c -0.553999,0 -1,0.446001 -1,1 v 1 c 0,-0.553999 0.446001,-1 1,-1 h 2 c 0.553998,0 1,0.446001 1,1 V 8 C 20,7.446001 19.553998,7 19,7 Z M 6,13 c -0.5539988,0 -1,0.446002 -1,1 v 1 c 0,-0.553998 0.4460012,-1 1,-1 h 12 c 0.553998,0 1,0.446002 1,1 v -1 c 0,-0.553998 -0.446002,-1 -1,-1 z"
     sodipodi:nodetypes="sscsscssssscsscssssscsscssssscsscsss" />
  <path
     id="rect2630"
     style="fill:#ffffff;fill-opacity:1;opacity:0.3"
     d="m 4.9999999,2 c -1.6619983,0 -3,1.3380017 -3,2.9999997 v 1 c 0,-1.661998 1.3380017,-3 3,-3 H 19 c 1.661998,0 3,1.338002 3,3 v -1 C 22,3.3380017 20.661998,2 19,2 Z" />
  <path
     id="rect398"
     style="opacity:0.3;fill:#ffffff"
     d="m 2,18 v 1 c 0,1.661998 1.3380017,3 3,3 h 14 c 1.661998,0 3,-1.338002 3,-3 v -1 c 0,1.661998 -1.338002,3 -3,3 H 5 C 3.3380017,21 2,19.661998 2,18 Z" />
  <path
     id="rect899"
     style="opacity:0.5;fill:#000000;stroke:none"
     d="M 5,1 C 2.7840022,1 1,2.7840022 1,5 v 14 c 0,2.215998 1.7840022,4 4,4 h 14 c 2.215998,0 4,-1.784002 4,-4 V 5 C 23,2.7840022 21.215998,1 19,1 Z m 0,1 h 14 c 1.661998,0 3,1.3380017 3,3 v 14 c 0,1.661998 -1.338002,3 -3,3 H 5 C 3.3380017,22 2,20.661998 2,19 V 5 C 2,3.3380017 3.3380017,2 5,2 Z" />
</svg>
