<?xml version="1.0" encoding="UTF-8" standalone="no"?>
<!-- Created with Inkscape (http://www.inkscape.org/) -->

<svg
   width="24"
   height="24"
   viewBox="0 0 24 24.000001"
   version="1.1"
   id="svg5"
   sodipodi:docname="preferences-system-login.svg"
   inkscape:version="1.2.1 (9c6d41e410, 2022-07-14)"
   xmlns:inkscape="http://www.inkscape.org/namespaces/inkscape"
   xmlns:sodipodi="http://sodipodi.sourceforge.net/DTD/sodipodi-0.dtd"
   xmlns:xlink="http://www.w3.org/1999/xlink"
   xmlns="http://www.w3.org/2000/svg"
   xmlns:svg="http://www.w3.org/2000/svg">
  <sodipodi:namedview
     id="namedview7"
     pagecolor="#ffffff"
     bordercolor="#666666"
     borderopacity="1.0"
     inkscape:showpageshadow="2"
     inkscape:pageopacity="0.0"
     inkscape:pagecheckerboard="0"
     inkscape:deskcolor="#d1d1d1"
     inkscape:document-units="px"
     showgrid="false"
     inkscape:zoom="33.125"
     inkscape:cx="11.984906"
     inkscape:cy="12"
     inkscape:window-width="1920"
     inkscape:window-height="1007"
     inkscape:window-x="0"
     inkscape:window-y="0"
     inkscape:window-maximized="1"
     inkscape:current-layer="svg5" />
  <defs
     id="defs2">
    <linearGradient
       inkscape:collect="always"
       xlink:href="#linearGradient21236"
       id="linearGradient10386"
       x1="12"
       y1="23"
       x2="12"
       y2="1"
       gradientUnits="userSpaceOnUse" />
    <linearGradient
       inkscape:collect="always"
       id="linearGradient21236">
      <stop
         style="stop-color:#3689e6;stop-opacity:1;"
         offset="0"
         id="stop21232" />
      <stop
         style="stop-color:#5dcffc;stop-opacity:1;"
         offset="1"
         id="stop21234" />
    </linearGradient>
    <linearGradient
       inkscape:collect="always"
       xlink:href="#linearGradient11754"
       id="linearGradient11756"
       x1="16.039745"
       y1="0"
       x2="15.884658"
       y2="32"
       gradientUnits="userSpaceOnUse"
       gradientTransform="matrix(0.75,0,0,0.75,0.50000006,0)" />
    <linearGradient
       inkscape:collect="always"
       id="linearGradient11754">
      <stop
         style="stop-color:#d9d9d9;stop-opacity:1;"
         offset="0"
         id="stop11750" />
      <stop
         style="stop-color:#f0f0f0;stop-opacity:1;"
         offset="1"
         id="stop11752" />
    </linearGradient>
  </defs>
  <rect
     style="fill:url(#linearGradient10386);fill-opacity:1;stroke:none"
     id="rect184"
     width="21"
     height="21"
     x="1.5"
     y="1.5"
     ry="3.5" />
  <rect
     style="opacity:0.2;fill:#000000;fill-opacity:1;stroke-width:6;stroke-linecap:round;stroke-linejoin:round"
     id="rect7702"
     width="14"
     height="12"
     x="5"
     y="7"
     ry="1" />
  <rect
     style="fill:url(#linearGradient11756);fill-opacity:1;stroke-width:3;stroke-linecap:round;stroke-linejoin:round"
     id="rect4572"
     width="14"
     height="12"
     x="5"
     y="6"
     ry="1" />
  <path
     id="path7590"
     style="fill:#4d4d4d;fill-opacity:1;stroke-width:2;stroke-linecap:round;stroke-linejoin:round"
     d="m 12,8 a 1,1 0 0 0 -1,1 1,1 0 0 0 1,1 1,1 0 0 0 1,-1 1,1 0 0 0 -1,-1 z m -1.322265,2.5 C 10.262151,10.866485 10,11.402345 10,12 h 4 c 0,-0.597655 -0.26215,-1.133515 -0.677734,-1.5 A 2,2 0 0 1 12,11 2,2 0 0 1 10.677735,10.5 Z" />
  <rect
     style="fill:#ffffff;fill-opacity:0.99935;stroke-width:3.4641;stroke-linecap:round;stroke-linejoin:round"
     id="rect7588"
     width="12"
     height="2"
     x="6"
     y="13.999999" />
  <path
     id="rect30906"
     style="fill:#ffffff;fill-opacity:0.99935;stroke-width:2;stroke-linecap:round;stroke-linejoin:round"
     d="m 6.0000001,6 c -0.5539994,0 -1,0.446001 -1,1 v 1 c 0,-0.553999 0.4460006,-1 1,-1 H 18 c 0.553999,0 1,0.446001 1,1 V 7 C 19,6.446001 18.553999,6 18,6 Z" />
  <path
     id="rect2630"
     style="opacity:0.3;fill:#ffffff;fill-opacity:1"
     d="m 4.9999999,2 c -1.6619983,0 -3,1.3380017 -3,2.9999997 v 1 c 0,-1.661998 1.3380017,-3 3,-3 H 19 c 1.661998,0 3,1.338002 3,3 v -1 C 22,3.3380017 20.661998,2 19,2 Z" />
  <path
     id="rect398"
     style="opacity:0.3;fill:#ffffff"
     d="m 2,18 v 1 c 0,1.661998 1.3380017,3 3,3 h 14 c 1.661998,0 3,-1.338002 3,-3 v -1 c 0,1.661998 -1.338002,3 -3,3 H 5 C 3.3380017,21 2,19.661998 2,18 Z" />
  <path
     id="rect899"
     style="opacity:0.5;fill:#000000;stroke:none"
     d="M 5,1 C 2.7840022,1 1,2.7840022 1,5 v 14 c 0,2.215998 1.7840022,4 4,4 h 14 c 2.215998,0 4,-1.784002 4,-4 V 5 C 23,2.7840022 21.215998,1 19,1 Z m 0,1 h 14 c 1.661998,0 3,1.3380017 3,3 v 14 c 0,1.661998 -1.338002,3 -3,3 H 5 C 3.3380017,22 2,20.661998 2,19 V 5 C 2,3.3380017 3.3380017,2 5,2 Z" />
</svg>
