<?xml version="1.0" encoding="UTF-8" standalone="no"?>
<!-- Created with Inkscape (http://www.inkscape.org/) -->

<svg
   width="24"
   height="24"
   viewBox="0 0 24 24.000001"
   version="1.1"
   id="svg5"
   sodipodi:docname="preferences-system.svg"
   inkscape:version="1.2.1 (9c6d41e410, 2022-07-14)"
   xmlns:inkscape="http://www.inkscape.org/namespaces/inkscape"
   xmlns:sodipodi="http://sodipodi.sourceforge.net/DTD/sodipodi-0.dtd"
   xmlns:xlink="http://www.w3.org/1999/xlink"
   xmlns="http://www.w3.org/2000/svg"
   xmlns:svg="http://www.w3.org/2000/svg">
  <sodipodi:namedview
     id="namedview7"
     pagecolor="#ffffff"
     bordercolor="#666666"
     borderopacity="1.0"
     inkscape:showpageshadow="2"
     inkscape:pageopacity="0.0"
     inkscape:pagecheckerboard="0"
     inkscape:deskcolor="#d1d1d1"
     inkscape:document-units="px"
     showgrid="false"
     inkscape:zoom="34.666668"
     inkscape:cx="10.225961"
     inkscape:cy="12.865384"
     inkscape:window-width="1920"
     inkscape:window-height="1002"
     inkscape:window-x="0"
     inkscape:window-y="0"
     inkscape:window-maximized="1"
     inkscape:current-layer="svg5"
     showguides="false" />
  <defs
     id="defs2">
    <linearGradient
       inkscape:collect="always"
       xlink:href="#linearGradient2739"
       id="linearGradient10386"
       x1="19"
       y1="23"
       x2="5"
       y2="1"
       gradientUnits="userSpaceOnUse" />
    <linearGradient
       inkscape:collect="always"
       id="linearGradient2739">
      <stop
         style="stop-color:#8a8a8a;stop-opacity:1;"
         offset="0"
         id="stop2735" />
      <stop
         style="stop-color:#c0c0c0;stop-opacity:1;"
         offset="1"
         id="stop2737" />
    </linearGradient>
  </defs>
  <rect
     style="fill:url(#linearGradient10386);fill-opacity:1.0;stroke:none"
     id="rect184"
     width="21"
     height="21"
     x="1.5"
     y="1.5"
     ry="3.5" />
  <path
     id="path7469"
     style="opacity:0.2;fill:#000000;stroke-width:0.999999"
     d="M 10.25 6 L 10.095703 7.84375 C 9.5108526 8.0603392 8.9676753 8.3745114 8.4882812 8.7734375 L 6.8125 7.984375 L 5.0625 11.015625 L 6.5839844 12.072266 C 6.5297854 12.378663 6.501701 12.688847 6.5 13 C 6.5001523 13.312374 6.5269873 13.62381 6.5800781 13.931641 L 5.0625 14.984375 L 6.8125 18.015625 L 8.484375 17.228516 C 8.9654168 17.625704 9.509857 17.937992 10.095703 18.152344 L 10.25 20 L 13.75 20 L 13.904297 18.15625 C 14.489147 17.93966 15.032324 17.625489 15.511719 17.226562 L 17.1875 18.015625 L 18.9375 14.984375 L 17.416016 13.927734 C 17.470216 13.621337 17.4983 13.311153 17.5 13 C 17.499848 12.687626 17.473012 12.37619 17.419922 12.068359 L 18.9375 11.015625 L 17.1875 7.984375 L 15.515625 8.7714844 C 15.034582 8.374295 14.490142 8.0620076 13.904297 7.8476562 L 13.75 6 L 10.25 6 z M 12 10 C 13.65685 10 15 11.34315 15 13 C 15 14.656848 13.65685 16 12 16 C 10.343151 16 9 14.65685 9 13 C 9 11.343149 10.343151 10 12 10 z M 12 11 C 10.895432 11 10 11.89543 10 13 C 10 14.104568 10.895432 15 12 15 C 13.104568 15 14 14.104567 14 13 C 14 11.89543 13.104568 11 12 11 z " />
  <path
     id="path8346"
     style="fill:#ffffff;stroke-width:0.999999"
     d="M 10.25 5 L 10.095703 6.84375 C 9.5108526 7.0603392 8.9676753 7.3745114 8.4882812 7.7734375 L 6.8125 6.984375 L 5.0625 10.015625 L 6.5839844 11.072266 C 6.5297854 11.378663 6.501701 11.688847 6.5 12 C 6.5001523 12.312374 6.5269873 12.62381 6.5800781 12.931641 L 5.0625 13.984375 L 6.8125 17.015625 L 8.484375 16.228516 C 8.9654168 16.625704 9.509857 16.937992 10.095703 17.152344 L 10.25 19 L 13.75 19 L 13.904297 17.15625 C 14.489147 16.939661 15.032324 16.625489 15.511719 16.226562 L 17.1875 17.015625 L 18.9375 13.984375 L 17.416016 12.927734 C 17.470216 12.621337 17.4983 12.311153 17.5 12 C 17.499848 11.687626 17.473012 11.37619 17.419922 11.068359 L 18.9375 10.015625 L 17.1875 6.984375 L 15.515625 7.7714844 C 15.034582 7.374295 14.490142 7.0620075 13.904297 6.8476562 L 13.75 5 L 10.25 5 z M 12 9 C 13.65685 9 15 10.343149 15 12 C 15 13.656848 13.65685 15 12 15 C 10.343151 15 9 13.656849 9 12 C 9 10.343149 10.343151 9 12 9 z M 12 10 C 10.895432 10 10 10.895431 10 12 C 10 13.104568 10.895432 14 12 14 C 13.104568 14 14 13.104567 14 12 C 14 10.895432 13.104568 10 12 10 z " />
  <path
     id="rect2630"
     style="fill:#ffffff;fill-opacity:1;opacity:0.3"
     d="m 4.9999999,2 c -1.6619983,0 -3,1.3380017 -3,2.9999997 v 1 c 0,-1.661998 1.3380017,-3 3,-3 H 19 c 1.661998,0 3,1.338002 3,3 v -1 C 22,3.3380017 20.661998,2 19,2 Z" />
  <path
     id="rect398"
     style="opacity:0.3;fill:#ffffff"
     d="m 2,18 v 1 c 0,1.661998 1.3380017,3 3,3 h 14 c 1.661998,0 3,-1.338002 3,-3 v -1 c 0,1.661998 -1.338002,3 -3,3 H 5 C 3.3380017,21 2,19.661998 2,18 Z" />
  <path
     id="rect899"
     style="opacity:0.5;fill:#000000;stroke:none"
     d="M 5,1 C 2.7840022,1 1,2.7840022 1,5 v 14 c 0,2.215998 1.7840022,4 4,4 h 14 c 2.215998,0 4,-1.784002 4,-4 V 5 C 23,2.7840022 21.215998,1 19,1 Z m 0,1 h 14 c 1.661998,0 3,1.3380017 3,3 v 14 c 0,1.661998 -1.338002,3 -3,3 H 5 C 3.3380017,22 2,20.661998 2,19 V 5 C 2,3.3380017 3.3380017,2 5,2 Z" />
</svg>
