<?xml version="1.0" encoding="UTF-8" standalone="no"?>
<!-- Created with Inkscape (http://www.inkscape.org/) -->

<svg
   width="24"
   height="24"
   viewBox="0 0 24 24.000001"
   version="1.1"
   id="svg5"
   sodipodi:docname="preferences-desktop.svg"
   inkscape:version="1.2.1 (9c6d41e410, 2022-07-14)"
   xmlns:inkscape="http://www.inkscape.org/namespaces/inkscape"
   xmlns:sodipodi="http://sodipodi.sourceforge.net/DTD/sodipodi-0.dtd"
   xmlns:xlink="http://www.w3.org/1999/xlink"
   xmlns="http://www.w3.org/2000/svg"
   xmlns:svg="http://www.w3.org/2000/svg">
  <sodipodi:namedview
     id="namedview7"
     pagecolor="#ffffff"
     bordercolor="#666666"
     borderopacity="1.0"
     inkscape:showpageshadow="2"
     inkscape:pageopacity="0.0"
     inkscape:pagecheckerboard="0"
     inkscape:deskcolor="#d1d1d1"
     inkscape:document-units="px"
     showgrid="false"
     inkscape:zoom="12.776134"
     inkscape:cx="18.041451"
     inkscape:cy="14.832343"
     inkscape:window-width="1920"
     inkscape:window-height="1007"
     inkscape:window-x="0"
     inkscape:window-y="0"
     inkscape:window-maximized="1"
     inkscape:current-layer="svg5" />
  <defs
     id="defs2">
    <linearGradient
       inkscape:collect="always"
       xlink:href="#linearGradient22024"
       id="linearGradient10386"
       x1="12"
       y1="23"
       x2="12"
       y2="1"
       gradientUnits="userSpaceOnUse" />
    <linearGradient
       inkscape:collect="always"
       id="linearGradient22024">
      <stop
         style="stop-color:#dedede;stop-opacity:1;"
         offset="0"
         id="stop22020" />
      <stop
         style="stop-color:#f2f2f2;stop-opacity:1;"
         offset="1"
         id="stop22022" />
    </linearGradient>
    <linearGradient
       inkscape:collect="always"
       xlink:href="#linearGradient21236"
       id="linearGradient2973"
       x1="31.666666"
       y1="30"
       x2="31.666666"
       y2="14"
       gradientUnits="userSpaceOnUse"
       gradientTransform="matrix(0.375,0,0,0.375,0.12500015,-0.2499998)" />
    <linearGradient
       inkscape:collect="always"
       xlink:href="#linearGradient2059"
       id="linearGradient2063"
       x1="31.666666"
       y1="52"
       x2="31.666666"
       y2="36"
       gradientUnits="userSpaceOnUse"
       gradientTransform="matrix(0.375,0,0,0.375,0.12500015,-0.4999999)" />
    <linearGradient
       inkscape:collect="always"
       id="linearGradient2059">
      <stop
         style="stop-color:#999999;stop-opacity:1"
         offset="0"
         id="stop2055" />
      <stop
         style="stop-color:#b3b3b3;stop-opacity:1"
         offset="1"
         id="stop2057" />
    </linearGradient>
    <linearGradient
       inkscape:collect="always"
       xlink:href="#linearGradient22024"
       id="linearGradient3761"
       x1="39"
       y1="27"
       x2="39"
       y2="15"
       gradientUnits="userSpaceOnUse"
       gradientTransform="matrix(0.33333333,0,0,0.33333333,1.9999999,1.0000001)" />
    <linearGradient
       inkscape:collect="always"
       xlink:href="#linearGradient22024"
       id="linearGradient3771"
       x1="38.999996"
       y1="27"
       x2="39"
       y2="15"
       gradientUnits="userSpaceOnUse"
       gradientTransform="matrix(0.33333334,0,0,0.33333334,-3.9999998,9.0000002)" />
    <linearGradient
       inkscape:collect="always"
       id="linearGradient21236">
      <stop
         style="stop-color:#3689e6;stop-opacity:1;"
         offset="0"
         id="stop21232" />
      <stop
         style="stop-color:#5dcffc;stop-opacity:1;"
         offset="1"
         id="stop21234" />
    </linearGradient>
  </defs>
  <rect
     style="fill:url(#linearGradient10386);fill-opacity:1;stroke:none"
     id="rect184"
     width="21"
     height="21"
     x="1.5"
     y="1.5"
     ry="3.5" />
  <path
     id="rect1301"
     style="opacity:0.2;fill:#ffffff;stroke-width:1.28572;stroke-linecap:round;stroke-linejoin:round"
     d="m 8.0000001,6.0000002 c -1.6619976,0 -3,1.3380021 -3,3 0,1.6619958 1.3380025,2.9999998 3,2.9999998 H 16 c 1.661998,0 3,-1.338005 3,-2.9999998 0,-1.6619979 -1.338002,-3 -3,-3 z m 0,7.9999998 c -1.661996,0 -3,1.338005 -3,3 0,1.661997 1.338004,3 3,3 H 16 c 1.661997,0 3,-1.338003 3,-3 0,-1.661995 -1.338003,-3 -3,-3 z" />
  <rect
     style="fill:url(#linearGradient2973);fill-opacity:1.0;stroke-width:1.125;stroke-linecap:round;stroke-linejoin:round"
     id="rect743"
     width="14"
     height="6"
     x="5"
     y="5"
     ry="3" />
  <rect
     style="fill:url(#linearGradient2063);fill-opacity:1;stroke-width:1.125;stroke-linecap:round;stroke-linejoin:round"
     id="rect745"
     width="14"
     height="6"
     x="5"
     y="13"
     ry="3" />
  <path
     id="rect3773"
     style="opacity:0.2;fill:#000000;fill-opacity:1;stroke-width:1;stroke-linecap:round;stroke-linejoin:round"
     d="m 14,7.0000002 c -1.107997,0 -2,0.8920031 -2,2 C 12,10.107997 12.892003,11 14,11 h 2 c 1.107996,0 2,-0.892003 2,-1.9999998 0,-1.1079969 -0.892004,-2 -2,-2 z M 8.0000001,15 c -1.1079959,0 -2,0.892004 -2,2 0,1.107996 0.8920041,2 2,2 H 10 c 1.107997,0 2,-0.892004 2,-2 0,-1.107996 -0.892003,-2 -2,-2 z" />
  <rect
     style="fill:url(#linearGradient3761);fill-opacity:1;stroke-width:1;stroke-linecap:round;stroke-linejoin:round"
     id="rect3027"
     width="6"
     height="4"
     x="12"
     y="6"
     ry="2" />
  <rect
     style="fill:url(#linearGradient3771);fill-opacity:1;stroke-width:1;stroke-linecap:round;stroke-linejoin:round"
     id="rect3763"
     width="6"
     height="4"
     x="6"
     y="14"
     ry="2" />
  <path
     id="rect2630"
     style="opacity:0.3;fill:#ffffff;fill-opacity:1"
     d="m 4.9999999,2 c -1.6619983,0 -3,1.3380017 -3,2.9999997 v 1 c 0,-1.661998 1.3380017,-3 3,-3 H 19 c 1.661998,0 3,1.338002 3,3 v -1 C 22,3.3380017 20.661998,2 19,2 Z" />
  <path
     id="rect398"
     style="opacity:0.3;fill:#ffffff"
     d="m 2,18 v 1 c 0,1.661998 1.3380017,3 3,3 h 14 c 1.661998,0 3,-1.338002 3,-3 v -1 c 0,1.661998 -1.338002,3 -3,3 H 5 C 3.3380017,21 2,19.661998 2,18 Z" />
  <path
     id="rect899"
     style="opacity:0.5;fill:#000000;stroke:none"
     d="M 5,1 C 2.7840022,1 1,2.7840022 1,5 v 14 c 0,2.215998 1.7840022,4 4,4 h 14 c 2.215998,0 4,-1.784002 4,-4 V 5 C 23,2.7840022 21.215998,1 19,1 Z m 0,1 h 14 c 1.661998,0 3,1.3380017 3,3 v 14 c 0,1.661998 -1.338002,3 -3,3 H 5 C 3.3380017,22 2,20.661998 2,19 V 5 C 2,3.3380017 3.3380017,2 5,2 Z" />
</svg>
