<?xml version="1.0" encoding="UTF-8" standalone="no"?>
<!-- Created with Inkscape (http://www.inkscape.org/) -->

<svg
   width="24"
   height="24"
   viewBox="0 0 24 24.000001"
   version="1.1"
   id="svg5"
   sodipodi:docname="qtcreator.svg"
   inkscape:version="1.2.1 (9c6d41e410, 2022-07-14)"
   xmlns:inkscape="http://www.inkscape.org/namespaces/inkscape"
   xmlns:sodipodi="http://sodipodi.sourceforge.net/DTD/sodipodi-0.dtd"
   xmlns:xlink="http://www.w3.org/1999/xlink"
   xmlns="http://www.w3.org/2000/svg"
   xmlns:svg="http://www.w3.org/2000/svg">
  <sodipodi:namedview
     id="namedview7"
     pagecolor="#ffffff"
     bordercolor="#666666"
     borderopacity="1.0"
     inkscape:showpageshadow="2"
     inkscape:pageopacity="0.0"
     inkscape:pagecheckerboard="0"
     inkscape:deskcolor="#d1d1d1"
     inkscape:document-units="px"
     showgrid="false"
     inkscape:zoom="34.208333"
     inkscape:cx="12"
     inkscape:cy="12"
     inkscape:window-width="1920"
     inkscape:window-height="1007"
     inkscape:window-x="0"
     inkscape:window-y="0"
     inkscape:window-maximized="1"
     inkscape:current-layer="svg5"
     showguides="false" />
  <defs
     id="defs2">
    <linearGradient
       inkscape:collect="always"
       xlink:href="#linearGradient2833"
       id="linearGradient10386"
       x1="19"
       y1="23"
       x2="5"
       y2="1"
       gradientUnits="userSpaceOnUse" />
    <linearGradient
       inkscape:collect="always"
       id="linearGradient2833">
      <stop
         style="stop-color:#00cc5c;stop-opacity:1;"
         offset="0"
         id="stop2829" />
      <stop
         style="stop-color:#65e35e;stop-opacity:1;"
         offset="1"
         id="stop2831" />
    </linearGradient>
  </defs>
  <rect
     style="fill:url(#linearGradient10386);fill-opacity:1.0;stroke:none"
     id="rect184"
     width="21"
     height="21"
     x="1.5"
     y="1.5"
     ry="3.5" />
  <path
     id="rect371"
     style="opacity:0.2;fill:#000000;stroke-width:3;stroke-linecap:round;stroke-linejoin:round"
     d="M 1.5 8.1816406 L 1.5 19 C 1.5 20.938998 3.0610019 22.5 5 22.5 L 19 22.5 C 20.938998 22.5 22.5 20.938998 22.5 19 L 22.5 15.818359 L 1.5 8.1816406 z " />
  <path
     d="M 8.25,8 C 6.4495,8 5,9.4495002 5,11.249999 v 2.500002 C 5,15.5505 6.4495,17 8.25,17 h 0.5 c 0.144479,0 0.284438,-0.0112 0.423829,-0.0293 l 1.037109,1.552735 0.820312,-0.408204 -0.896484,-1.304687 C 11.633816,15.997028 12,14.865237 12,13.75 V 11.249999 C 12,9.4495002 10.5505,8 8.75,8 Z M 8.1875,9.0332031 h 0.625 c 1.244307,0 2.1875,0.8816151 2.1875,2.0429679 v 2.916017 c 0,1.161353 -0.943193,2.041015 -2.1875,2.041015 H 8.1875 C 6.943193,16.033203 6,15.153541 6,13.992188 V 11.076171 C 6,9.9148182 6.943193,9.0332031 8.1875,9.0332031 Z M 17,8 c -1.8005,0 -3,1.1995002 -3,2.999999 v 3.000002 C 14,15.8005 15.1995,17 17,17 h 2 V 16 H 16.75 C 15.754554,16 15,15.245447 15,14.250001 V 10.75 C 15,9.7545542 15.754554,8.9998407 16.75,9 H 19 V 8"
     style="fill:#000000;opacity:0.2"
     id="path666" />
  <path
     id="path440"
     style="fill:#ffffff"
     d="M 8.25 7 C 6.4495022 7 5 8.4495018 5 10.25 L 5 12.75 C 5 14.550498 6.4495022 16 8.25 16 L 8.75 16 C 8.8944789 16 9.0344373 15.988803 9.1738281 15.970703 L 10.210938 17.523438 L 11.03125 17.115234 L 10.134766 15.810547 C 11.633814 14.997032 12 13.865235 12 12.75 L 12 10.25 C 12 8.4495018 10.550498 7 8.75 7 L 8.25 7 z M 17 7 C 15.199502 7 14 8.1995018 14 10 L 14 13 C 14 14.800498 15.199502 16 17 16 L 19 16 L 19 15 L 16.75 15 C 15.754555 15 15 14.245445 15 13.25 L 15 9.75 C 15 8.7545551 15.754555 7.9998407 16.75 8 L 19 8 L 19 7 L 17 7 z M 8.1875 8.0332031 L 8.8125 8.0332031 C 10.056806 8.0332031 11 8.9148187 11 10.076172 L 11 12.992188 C 11 14.153539 10.056806 15.033203 8.8125 15.033203 L 8.1875 15.033203 C 6.9431943 15.033203 6 14.153539 6 12.992188 L 6 10.076172 C 6 8.9148187 6.9431942 8.0332031 8.1875 8.0332031 z " />
  <path
     id="rect2630"
     style="fill:#ffffff;fill-opacity:1;opacity:0.3"
     d="m 4.9999999,2 c -1.6619983,0 -3,1.3380017 -3,2.9999997 v 1 c 0,-1.661998 1.3380017,-3 3,-3 H 19 c 1.661998,0 3,1.338002 3,3 v -1 C 22,3.3380017 20.661998,2 19,2 Z" />
  <path
     id="rect398"
     style="opacity:0.3;fill:#ffffff"
     d="m 2,18 v 1 c 0,1.661998 1.3380017,3 3,3 h 14 c 1.661998,0 3,-1.338002 3,-3 v -1 c 0,1.661998 -1.338002,3 -3,3 H 5 C 3.3380017,21 2,19.661998 2,18 Z" />
  <path
     id="rect899"
     style="opacity:0.5;fill:#000000;stroke:none"
     d="M 5,1 C 2.7840022,1 1,2.7840022 1,5 v 14 c 0,2.215998 1.7840022,4 4,4 h 14 c 2.215998,0 4,-1.784002 4,-4 V 5 C 23,2.7840022 21.215998,1 19,1 Z m 0,1 h 14 c 1.661998,0 3,1.3380017 3,3 v 14 c 0,1.661998 -1.338002,3 -3,3 H 5 C 3.3380017,22 2,20.661998 2,19 V 5 C 2,3.3380017 3.3380017,2 5,2 Z" />
</svg>
