<?xml version="1.0" encoding="UTF-8" standalone="no"?>
<!-- Created with Inkscape (http://www.inkscape.org/) -->

<svg
   width="24"
   height="24"
   viewBox="0 0 24 24.000001"
   version="1.1"
   id="svg5"
   sodipodi:docname="skype.svg"
   inkscape:version="1.2.1 (9c6d41e410, 2022-07-14)"
   xmlns:inkscape="http://www.inkscape.org/namespaces/inkscape"
   xmlns:sodipodi="http://sodipodi.sourceforge.net/DTD/sodipodi-0.dtd"
   xmlns:xlink="http://www.w3.org/1999/xlink"
   xmlns="http://www.w3.org/2000/svg"
   xmlns:svg="http://www.w3.org/2000/svg">
  <sodipodi:namedview
     id="namedview7"
     pagecolor="#ffffff"
     bordercolor="#666666"
     borderopacity="1.0"
     inkscape:showpageshadow="2"
     inkscape:pageopacity="0.0"
     inkscape:pagecheckerboard="0"
     inkscape:deskcolor="#d1d1d1"
     inkscape:document-units="px"
     showgrid="false"
     inkscape:zoom="18.068182"
     inkscape:cx="3.3484276"
     inkscape:cy="10.709434"
     inkscape:window-width="1920"
     inkscape:window-height="1007"
     inkscape:window-x="0"
     inkscape:window-y="0"
     inkscape:window-maximized="1"
     inkscape:current-layer="svg5"
     showguides="true" />
  <defs
     id="defs2">
    <linearGradient
       inkscape:collect="always"
       xlink:href="#linearGradient3632"
       id="linearGradient10386"
       x1="19"
       y1="23"
       x2="5"
       y2="1"
       gradientUnits="userSpaceOnUse" />
    <linearGradient
       inkscape:collect="always"
       id="linearGradient3632">
      <stop
         style="stop-color:#37a3ff;stop-opacity:1;"
         offset="0"
         id="stop3628" />
      <stop
         style="stop-color:#8adeff;stop-opacity:1;"
         offset="1"
         id="stop3630" />
    </linearGradient>
  </defs>
  <rect
     style="fill:url(#linearGradient10386);fill-opacity:1;stroke:none"
     id="rect184"
     width="21"
     height="21"
     x="1.5"
     y="1.5"
     ry="3.5" />
  <path
     d="M 9.5,6 C 7.014719,6 5,8.0147187 5,10.5 c 7.98e-4,1.035691 0.358824,2.039407 1.013672,2.841798 0.175452,3.041752 2.602779,5.469079 5.644531,5.644531 0.802391,0.654848 1.806106,1.012874 2.841797,1.013672 2.485281,0 4.5,-2.014719 4.5,-4.5 -1.44e-4,-1.034544 -0.356746,-2.037445 -1.009766,-2.839845 C 17.817356,9.6140121 15.385989,7.1826437 12.339844,7.009766 11.537444,6.356746 10.534544,6.0001438 9.5,6 Z m 2.583984,3.0000001 c 0.02755,-4.72e-4 0.05444,-1.84e-4 0.08203,0 0.288843,-0.003 0.578233,0.02083 0.863281,0.07226 0.203898,0.0347 0.403988,0.09165 0.597657,0.169924 0.17791,0.0663 0.337319,0.18034 0.466797,0.330078 0.09543,0.123159 0.146804,0.279575 0.144533,0.4414059 0.007,0.169772 -0.04618,0.335509 -0.150392,0.460937 -0.09884,0.11576 -0.238514,0.180057 -0.382812,0.175782 -0.09819,-7.95e-4 -0.196059,-0.02491 -0.285158,-0.07031 -0.219367,-0.10803 -0.444855,-0.198214 -0.675781,-0.271484 -0.212629,-0.06164 -0.430519,-0.09244 -0.650391,-0.08984 -0.286348,-0.01172 -0.570174,0.06725 -0.816406,0.228514 -0.211835,0.141563 -0.337062,0.399426 -0.326173,0.671875 -0.0015,0.175469 0.05999,0.34554 0.169924,0.472657 0.130737,0.149155 0.28453,0.269525 0.455078,0.357422 0.191123,0.104307 0.47655,0.243507 0.855469,0.416016 0.042,0.01459 0.08152,0.03337 0.121092,0.05469 0.369766,0.160909 0.724442,0.360499 1.058594,0.597657 0.263966,0.189392 0.487149,0.441044 0.652343,0.736328 0.162577,0.310209 0.243153,0.663522 0.234376,1.021484 0.01368,0.438464 -0.09886,0.8705 -0.324219,1.232422 -0.229451,0.342622 -0.5476,0.60179 -0.912109,0.744141 -0.439222,0.172592 -0.902847,0.254513 -1.369141,0.244139 -0.640796,0.02479 -1.278818,-0.106288 -1.867187,-0.386719 -0.150565,-0.07369 -0.282679,-0.187737 -0.384766,-0.330077 -0.08462,-0.130364 -0.128503,-0.287112 -0.125,-0.447266 -0.0085,-0.170993 0.05138,-0.336949 0.164062,-0.455078 0.116874,-0.112634 0.2686,-0.171118 0.423828,-0.164062 0.17277,0.0026 0.341696,0.04918 0.494141,0.138671 0.189415,0.104315 0.339704,0.184233 0.449219,0.236326 0.125094,0.05765 0.254252,0.102747 0.386718,0.134767 0.163295,0.03947 0.330868,0.0585 0.498047,0.05664 0.295587,0.02313 0.590123,-0.064 0.835939,-0.246093 0.186728,-0.160766 0.291122,-0.411216 0.28125,-0.671875 3.63e-4,-0.182366 -0.06411,-0.357473 -0.177734,-0.490234 C 12.720938,14.200879 12.547047,14.059594 12.353515,13.955082 12.124798,13.822092 11.80159,13.661261 11.386718,13.470707 11.01556,13.30799 10.660499,13.103985 10.326171,12.863284 10.073909,12.680423 9.863177,12.435537 9.710937,12.14844 9.563848,11.845293 9.490954,11.505615 9.499999,11.162112 c -0.0112,-0.435958 0.12513,-0.860147 0.38086,-1.1933589 0.265704,-0.334616 0.607639,-0.586331 0.990234,-0.728516 0.390191,-0.151612 0.799501,-0.233152 1.21289,-0.240234 z"
     style="opacity:0.2;fill:#000000;fill-opacity:1;stroke-width:1.5;stroke-linejoin:round"
     id="path10084" />
  <path
     id="path14352-5"
     style="fill:#ffffff;fill-opacity:1;stroke-width:1.5;stroke-linejoin:round"
     d="M 9.5,5 C 7.0147186,5 5,7.0147186 5,9.5 c 7.979e-4,1.035691 0.3588242,2.039406 1.013672,2.841797 0.1754518,3.041752 2.6027788,5.469079 5.644531,5.644531 C 12.460594,18.641176 13.464309,18.999202 14.5,19 16.985281,19 19,16.985281 19,14.5 18.999856,13.465456 18.643254,12.462556 17.990234,11.660156 17.817356,8.6140114 15.385989,6.1826437 12.339844,6.009766 11.537444,5.356746 10.534544,5.0001438 9.5,5 Z m 2.583984,3 c 0.02755,-4.72e-4 0.05444,-1.84e-4 0.08203,0 0.288843,-0.003 0.578233,0.02083 0.863281,0.07226 0.203898,0.0347 0.403988,0.09165 0.597657,0.169924 0.17791,0.0663 0.337319,0.18034 0.466797,0.330078 0.09543,0.123159 0.146804,0.279575 0.144533,0.441406 0.007,0.169772 -0.04618,0.335509 -0.150392,0.460937 -0.09884,0.11576 -0.238514,0.180057 -0.382812,0.175782 C 13.606888,9.649592 13.509019,9.625477 13.41992,9.580077 13.200553,9.472047 12.975065,9.381863 12.744139,9.308593 12.53151,9.246953 12.31362,9.216153 12.093748,9.218753 11.8074,9.207033 11.523574,9.286003 11.277342,9.447267 11.065507,9.58883 10.94028,9.846693 10.951169,10.119142 c -0.0015,0.175469 0.05999,0.34554 0.169924,0.472657 0.130737,0.149155 0.28453,0.269525 0.455078,0.357422 0.191123,0.104307 0.47655,0.243507 0.855469,0.416016 0.042,0.01459 0.08152,0.03337 0.121092,0.05469 0.369766,0.160909 0.724442,0.360499 1.058594,0.597656 0.263966,0.189392 0.487149,0.441044 0.652343,0.736328 0.162577,0.310209 0.243153,0.663522 0.234376,1.021484 0.01368,0.438464 -0.09886,0.8705 -0.324219,1.232422 -0.229451,0.342622 -0.5476,0.60179 -0.912109,0.744141 -0.439222,0.172592 -0.902847,0.254513 -1.369141,0.244139 -0.640796,0.02479 -1.278818,-0.106288 -1.867187,-0.386719 -0.150565,-0.07369 -0.282679,-0.187737 -0.384766,-0.330077 -0.08462,-0.130364 -0.128503,-0.287112 -0.125,-0.447266 -0.0085,-0.170993 0.05138,-0.336949 0.164062,-0.455078 0.116874,-0.112634 0.2686,-0.171118 0.423828,-0.164062 0.17277,0.0026 0.341696,0.04918 0.494141,0.138671 0.189415,0.104315 0.339704,0.184233 0.449219,0.236326 0.125094,0.05765 0.254252,0.102747 0.386718,0.134767 0.163295,0.03947 0.330868,0.0585 0.498047,0.05664 0.295587,0.02313 0.590123,-0.064 0.835939,-0.246093 0.186728,-0.160766 0.291122,-0.411216 0.28125,-0.671875 3.63e-4,-0.182366 -0.06411,-0.357473 -0.177734,-0.490234 C 12.720938,13.200878 12.547047,13.059593 12.353515,12.955081 12.124798,12.822091 11.80159,12.66126 11.386718,12.470706 11.01556,12.307989 10.660499,12.103984 10.326171,11.863284 10.073909,11.680423 9.863177,11.435537 9.710937,11.14844 9.563848,10.845293 9.490954,10.505615 9.499999,10.162112 9.488799,9.726154 9.625129,9.301965 9.880859,8.968753 10.146563,8.634137 10.488498,8.382422 10.871093,8.240237 11.261284,8.088625 11.670594,8.007085 12.083983,8.000003 Z"
     sodipodi:nodetypes="cccccccccccccccccccccccccccccccccccccccsccccccccccccc" />
  <path
     id="rect2630"
     style="opacity:0.3;fill:#ffffff;fill-opacity:1"
     d="m 4.9999999,2 c -1.6619983,0 -3,1.3380017 -3,2.9999997 v 1 c 0,-1.661998 1.3380017,-3 3,-3 H 19 c 1.661998,0 3,1.338002 3,3 v -1 C 22,3.3380017 20.661998,2 19,2 Z" />
  <path
     id="rect398"
     style="opacity:0.3;fill:#ffffff"
     d="m 2,18 v 1 c 0,1.661998 1.3380017,3 3,3 h 14 c 1.661998,0 3,-1.338002 3,-3 v -1 c 0,1.661998 -1.338002,3 -3,3 H 5 C 3.3380017,21 2,19.661998 2,18 Z" />
  <path
     id="rect899"
     style="opacity:0.5;fill:#000000;stroke:none"
     d="M 5,1 C 2.7840022,1 1,2.7840022 1,5 v 14 c 0,2.215998 1.7840022,4 4,4 h 14 c 2.215998,0 4,-1.784002 4,-4 V 5 C 23,2.7840022 21.215998,1 19,1 Z m 0,1 h 14 c 1.661998,0 3,1.3380017 3,3 v 14 c 0,1.661998 -1.338002,3 -3,3 H 5 C 3.3380017,22 2,20.661998 2,19 V 5 C 2,3.3380017 3.3380017,2 5,2 Z" />
</svg>
