<?xml version="1.0" encoding="UTF-8" standalone="no"?>
<!-- Created with Inkscape (http://www.inkscape.org/) -->

<svg
   width="24"
   height="24"
   viewBox="0 0 24 24.000001"
   version="1.1"
   id="svg5"
   sodipodi:docname="sound-recorder.svg"
   inkscape:version="1.2.1 (9c6d41e410, 2022-07-14)"
   xmlns:inkscape="http://www.inkscape.org/namespaces/inkscape"
   xmlns:sodipodi="http://sodipodi.sourceforge.net/DTD/sodipodi-0.dtd"
   xmlns:xlink="http://www.w3.org/1999/xlink"
   xmlns="http://www.w3.org/2000/svg"
   xmlns:svg="http://www.w3.org/2000/svg">
  <sodipodi:namedview
     id="namedview7"
     pagecolor="#ffffff"
     bordercolor="#666666"
     borderopacity="1.0"
     inkscape:showpageshadow="2"
     inkscape:pageopacity="0.0"
     inkscape:pagecheckerboard="0"
     inkscape:deskcolor="#d1d1d1"
     inkscape:document-units="px"
     showgrid="false"
     inkscape:zoom="24.513036"
     inkscape:cx="6.1395904"
     inkscape:cy="13.564211"
     inkscape:window-width="1920"
     inkscape:window-height="1007"
     inkscape:window-x="0"
     inkscape:window-y="0"
     inkscape:window-maximized="1"
     inkscape:current-layer="svg5"
     showguides="false" />
  <defs
     id="defs2">
    <linearGradient
       inkscape:collect="always"
       xlink:href="#linearGradient3670"
       id="linearGradient10386"
       x1="19"
       y1="23"
       x2="5"
       y2="1"
       gradientUnits="userSpaceOnUse" />
    <linearGradient
       inkscape:collect="always"
       id="linearGradient3670">
      <stop
         style="stop-color:#ca3d3d;stop-opacity:1;"
         offset="0"
         id="stop3666" />
      <stop
         style="stop-color:#ed796c;stop-opacity:1;"
         offset="1"
         id="stop3668" />
    </linearGradient>
  </defs>
  <rect
     style="fill:url(#linearGradient10386);fill-opacity:1.0;stroke:none"
     id="rect184"
     width="21"
     height="21"
     x="1.5"
     y="1.5"
     ry="3.5" />
  <path
     d="M 12,5 C 10.338002,5 9,6.3380017 9,8.0000001 V 12 c 0,1.661999 1.338002,3.000001 3,3.000001 1.661998,0 3,-1.338002 3,-3.000001 V 8.0000001 C 15,6.3380017 13.661998,5 12,5 Z M 6.5,11.5 C 6.223858,11.5 6,11.723858 6,12 c 2.95e-4,0.02355 0.0023,0.04704 0.0059,0.07031 0.03824,2.895614 2.139217,5.350721 4.99414,5.835941 v 2.09375 h -1.5 c -0.276999,0 -0.5,0.223 -0.5,0.5 0,0.277 0.223001,0.5 0.5,0.5 h 5 c 0.277,0 0.5,-0.223 0.5,-0.5 0,-0.277 -0.223,-0.5 -0.5,-0.5 h -1.5 v -2.09375 c 2.854924,-0.48522 4.955898,-2.940327 4.994141,-5.835939 0.0036,-0.02327 0.0056,-0.04676 0.0059,-0.07031 0,-0.276142 -0.223858,-0.5 -0.5,-0.5 -0.276142,0 -0.5,0.223858 -0.5,0.5 0,2.761424 -2.238576,5.000001 -5,5.000001 C 9.238616,17.000001 7.00004,14.761424 7.00004,12 c 0,-0.276142 -0.223858,-0.5 -0.5,-0.5 z"
     style="fill:#000000;stroke-width:2;stroke-linecap:round;stroke-linejoin:round;opacity:0.2"
     id="path1987" />
  <path
     id="path1873"
     style="fill:#ffffff;stroke-width:2;stroke-linecap:round;stroke-linejoin:round"
     d="M 12,4 C 10.338002,4 9,5.3380017 9,7 v 4 c 0,1.661998 1.338002,3 3,3 1.661998,0 3,-1.338002 3,-3 V 7 C 15,5.3380017 13.661998,4 12,4 Z M 6.5,10.5 C 6.2238576,10.5 6,10.723858 6,11 c 2.95e-4,0.02355 0.00225,0.04704 0.00586,0.07031 C 6.0441028,13.965923 8.1450766,16.421031 11,16.90625 V 19 H 9.5 C 9.2230006,19 9,19.223 9,19.5 9,19.777 9.2230006,20 9.5,20 h 5 C 14.777,20 15,19.777 15,19.5 15,19.223 14.777,19 14.5,19 H 13 v -2.09375 c 2.854924,-0.485219 4.955898,-2.940327 4.994141,-5.835938 0.0036,-0.02327 0.0056,-0.04677 0.0059,-0.07031 0,-0.276142 -0.223858,-0.5 -0.5,-0.5 -0.276142,0 -0.5,0.223858 -0.5,0.5 0,2.761424 -2.238576,5 -5,5 C 9.2385763,16 7,13.761424 7,11 7,10.723858 6.7761424,10.5 6.5,10.5 Z"
     sodipodi:nodetypes="ssssssssccccssssssccccsssss" />
  <path
     id="rect2630"
     style="fill:#ffffff;fill-opacity:1;opacity:0.3"
     d="m 4.9999999,2 c -1.6619983,0 -3,1.3380017 -3,2.9999997 v 1 c 0,-1.661998 1.3380017,-3 3,-3 H 19 c 1.661998,0 3,1.338002 3,3 v -1 C 22,3.3380017 20.661998,2 19,2 Z" />
  <path
     id="rect398"
     style="opacity:0.3;fill:#ffffff"
     d="m 2,18 v 1 c 0,1.661998 1.3380017,3 3,3 h 14 c 1.661998,0 3,-1.338002 3,-3 v -1 c 0,1.661998 -1.338002,3 -3,3 H 5 C 3.3380017,21 2,19.661998 2,18 Z" />
  <path
     id="rect899"
     style="opacity:0.5;fill:#000000;stroke:none"
     d="M 5,1 C 2.7840022,1 1,2.7840022 1,5 v 14 c 0,2.215998 1.7840022,4 4,4 h 14 c 2.215998,0 4,-1.784002 4,-4 V 5 C 23,2.7840022 21.215998,1 19,1 Z m 0,1 h 14 c 1.661998,0 3,1.3380017 3,3 v 14 c 0,1.661998 -1.338002,3 -3,3 H 5 C 3.3380017,22 2,20.661998 2,19 V 5 C 2,3.3380017 3.3380017,2 5,2 Z" />
</svg>
