<?xml version="1.0" encoding="UTF-8" standalone="no"?>
<!-- Created with Inkscape (http://www.inkscape.org/) -->

<svg
   width="24"
   height="24"
   viewBox="0 0 24 24.000001"
   version="1.1"
   id="svg5"
   sodipodi:docname="system-file-manager.svg"
   inkscape:version="1.2.1 (9c6d41e410, 2022-07-14)"
   xmlns:inkscape="http://www.inkscape.org/namespaces/inkscape"
   xmlns:sodipodi="http://sodipodi.sourceforge.net/DTD/sodipodi-0.dtd"
   xmlns:xlink="http://www.w3.org/1999/xlink"
   xmlns="http://www.w3.org/2000/svg"
   xmlns:svg="http://www.w3.org/2000/svg">
  <sodipodi:namedview
     id="namedview7"
     pagecolor="#ffffff"
     bordercolor="#666666"
     borderopacity="1.0"
     inkscape:showpageshadow="2"
     inkscape:pageopacity="0.0"
     inkscape:pagecheckerboard="0"
     inkscape:deskcolor="#d1d1d1"
     inkscape:document-units="px"
     showgrid="false"
     inkscape:zoom="33"
     inkscape:cx="11.984848"
     inkscape:cy="12"
     inkscape:window-width="1920"
     inkscape:window-height="1007"
     inkscape:window-x="0"
     inkscape:window-y="0"
     inkscape:window-maximized="1"
     inkscape:current-layer="svg5" />
  <defs
     id="defs2">
    <linearGradient
       inkscape:collect="always"
       xlink:href="#linearGradient1264"
       id="linearGradient10386"
       x1="19"
       y1="23"
       x2="5"
       y2="1"
       gradientUnits="userSpaceOnUse" />
    <linearGradient
       inkscape:collect="always"
       id="linearGradient1264">
      <stop
         style="stop-color:#97866b;stop-opacity:1;"
         offset="0"
         id="stop1260" />
      <stop
         style="stop-color:#d0c7ad;stop-opacity:1;"
         offset="1"
         id="stop1262" />
    </linearGradient>
  </defs>
  <rect
     style="fill:url(#linearGradient10386);fill-opacity:1.0;stroke:none"
     id="rect184"
     width="21"
     height="21"
     x="1.5"
     y="1.5"
     ry="3.5" />
  <path
     d="m 6.000227,6.9998868 c -0.554,0 -1,0.4460004 -1,1.0000001 V 17.999888 c 0,0.554 0.446,1 1,1 h 12 c 0.554,0 1,-0.446 1,-1 V 9.9997738 c 0,-0.5539991 -0.446,-1.0000002 -1,-1.0000002 l -6.000099,1.13e-4 -0.999901,-1.4999998 c -0.344345,-0.3146677 -0.446,-0.5 -1,-0.5 z"
     style="opacity:0.2;fill:#000000;fill-opacity:1;stroke-width:0.5"
     id="path14031"
     sodipodi:nodetypes="ssssssssccss" />
  <path
     d="m 6.000227,6 c -0.553999,0 -1,0.4460004 -1,0.9999999 V 17 c 0,0.554 0.446001,1 1,1 h 12 c 0.554,0 1,-0.446 1,-1 V 8.9999998 c 0,-0.5539989 -0.446,-1 -1,-1 H 12.000128 L 11.000227,6.5 c -0.344345,-0.3146678 -0.446,-0.5 -1,-0.5 z"
     style="fill:#ede9e1;fill-opacity:1;stroke-width:0.5"
     id="path10731"
     sodipodi:nodetypes="ssssssssccss" />
  <path
     id="path15912"
     style="opacity:0.1;fill:#000000;fill-opacity:1;stroke-width:0.5"
     d="m 11.599757,7.3993712 -1.599609,1.5996094 h -4 c -0.552283,0 -1,0.4477179 -1,1.0000002 v 6.0000002 c 0,0.553996 0.446003,1 1,1 h 13 V 9.0009337 c 0,-0.5539988 -0.446001,-1 -1,-1 h -6 z" />
  <path
     d="m 12.000128,7.9999998 -1.999901,2 h -4 c -0.552284,0 -1,0.4477162 -1,1.0000002 v 6 c 0,0.553998 0.446001,1 1,1 h 11.999546 c 0.553999,0 1,-0.446002 1,-1 V 8.9999999 c 0,-0.5539989 -0.446001,-1 -1,-1 z"
     style="fill:#ffffff;fill-opacity:1;stroke-width:0.5"
     id="path14427"
     sodipodi:nodetypes="ccssssssssc" />
  <path
     id="rect2630"
     style="fill:#ffffff;fill-opacity:1;opacity:0.3"
     d="m 4.9999999,2 c -1.6619983,0 -3,1.3380017 -3,2.9999997 v 1 c 0,-1.661998 1.3380017,-3 3,-3 H 19 c 1.661998,0 3,1.338002 3,3 v -1 C 22,3.3380017 20.661998,2 19,2 Z" />
  <path
     id="rect398"
     style="opacity:0.3;fill:#ffffff"
     d="m 2,18 v 1 c 0,1.661998 1.3380017,3 3,3 h 14 c 1.661998,0 3,-1.338002 3,-3 v -1 c 0,1.661998 -1.338002,3 -3,3 H 5 C 3.3380017,21 2,19.661998 2,18 Z" />
  <path
     id="rect899"
     style="opacity:0.5;fill:#000000;stroke:none"
     d="M 5,1 C 2.7840022,1 1,2.7840022 1,5 v 14 c 0,2.215998 1.7840022,4 4,4 h 14 c 2.215998,0 4,-1.784002 4,-4 V 5 C 23,2.7840022 21.215998,1 19,1 Z m 0,1 h 14 c 1.661998,0 3,1.3380017 3,3 v 14 c 0,1.661998 -1.338002,3 -3,3 H 5 C 3.3380017,22 2,20.661998 2,19 V 5 C 2,3.3380017 3.3380017,2 5,2 Z" />
</svg>
