<?xml version="1.0" encoding="UTF-8" standalone="no"?>
<!-- Created with Inkscape (http://www.inkscape.org/) -->

<svg
   width="24"
   height="24"
   viewBox="0 0 24 24.000001"
   version="1.1"
   id="svg5"
   sodipodi:docname="ubuntusoftware.svg"
   inkscape:version="1.2.1 (9c6d41e410, 2022-07-14)"
   xmlns:inkscape="http://www.inkscape.org/namespaces/inkscape"
   xmlns:sodipodi="http://sodipodi.sourceforge.net/DTD/sodipodi-0.dtd"
   xmlns:xlink="http://www.w3.org/1999/xlink"
   xmlns="http://www.w3.org/2000/svg"
   xmlns:svg="http://www.w3.org/2000/svg">
  <sodipodi:namedview
     id="namedview7"
     pagecolor="#ffffff"
     bordercolor="#666666"
     borderopacity="1.0"
     inkscape:showpageshadow="2"
     inkscape:pageopacity="0.0"
     inkscape:pagecheckerboard="0"
     inkscape:deskcolor="#d1d1d1"
     inkscape:document-units="px"
     showgrid="false"
     inkscape:zoom="36"
     inkscape:cx="11.986111"
     inkscape:cy="12"
     inkscape:window-width="1920"
     inkscape:window-height="1007"
     inkscape:window-x="0"
     inkscape:window-y="0"
     inkscape:window-maximized="1"
     inkscape:current-layer="svg5" />
  <defs
     id="defs2">
    <linearGradient
       inkscape:collect="always"
       xlink:href="#linearGradient877"
       id="linearGradient10386"
       x1="19"
       y1="23"
       x2="5"
       y2="1"
       gradientUnits="userSpaceOnUse" />
    <linearGradient
       inkscape:collect="always"
       id="linearGradient877">
      <stop
         style="stop-color:#e95420;stop-opacity:1;"
         offset="0"
         id="stop873" />
      <stop
         style="stop-color:#ff8e31;stop-opacity:1;"
         offset="1"
         id="stop875" />
    </linearGradient>
  </defs>
  <rect
     style="fill:url(#linearGradient10386);fill-opacity:1.0;stroke:none"
     id="rect184"
     width="21"
     height="21"
     x="1.5"
     y="1.5"
     ry="3.5" />
  <path
     id="path1237"
     style="opacity:0.2;fill:#000000;stroke-width:0.5;stroke-linejoin:round"
     d="M 10.5,6 7.357422,14 H 5.5 C 4.669001,14 4,14.669001 4,15.5 4,16.330999 4.669001,17 5.5,17 H 6.177734 L 5,20 h 3 l 1.177734,-3 h 5.644532 L 16,20 h 3 L 17.822266,17 H 18.5 C 19.330999,17 20,16.330999 20,15.5 20,14.669001 19.330999,14 18.5,14 H 16.642578 L 13.5,6 Z M 12,9.8183594 13.642578,14 h -3.285156 z" />
  <path
     id="rect2385"
     style="fill:#ffffff;stroke-width:0.5;stroke-linejoin:round"
     d="M 10.5,5 7.357422,13 H 5.5 C 4.669001,13 4,13.669001 4,14.5 4,15.330999 4.669001,16 5.5,16 H 6.177734 L 5,19 h 3 l 1.177734,-3 h 5.644532 L 16,19 h 3 L 17.822266,16 H 18.5 C 19.330999,16 20,15.330999 20,14.5 20,13.669001 19.330999,13 18.5,13 H 16.642578 L 13.5,5 Z M 12,8.8183594 13.642578,13 h -3.285156 z" />
  <rect
     style="opacity:0.3;fill:#fc872f;fill-opacity:1;stroke-width:0.5;stroke-linejoin:round"
     id="rect4873"
     width="16"
     height="3"
     x="4.0000014"
     y="13.000001"
     ry="1.5" />
  <path
     id="rect2630"
     style="fill:#ffffff;fill-opacity:1;opacity:0.3"
     d="m 4.9999999,2 c -1.6619983,0 -3,1.3380017 -3,2.9999997 v 1 c 0,-1.661998 1.3380017,-3 3,-3 H 19 c 1.661998,0 3,1.338002 3,3 v -1 C 22,3.3380017 20.661998,2 19,2 Z" />
  <path
     id="rect398"
     style="opacity:0.3;fill:#ffffff"
     d="m 2,18 v 1 c 0,1.661998 1.3380017,3 3,3 h 14 c 1.661998,0 3,-1.338002 3,-3 v -1 c 0,1.661998 -1.338002,3 -3,3 H 5 C 3.3380017,21 2,19.661998 2,18 Z" />
  <path
     id="rect899"
     style="opacity:0.5;fill:#000000;stroke:none"
     d="M 5,1 C 2.7840022,1 1,2.7840022 1,5 v 14 c 0,2.215998 1.7840022,4 4,4 h 14 c 2.215998,0 4,-1.784002 4,-4 V 5 C 23,2.7840022 21.215998,1 19,1 Z m 0,1 h 14 c 1.661998,0 3,1.3380017 3,3 v 14 c 0,1.661998 -1.338002,3 -3,3 H 5 C 3.3380017,22 2,20.661998 2,19 V 5 C 2,3.3380017 3.3380017,2 5,2 Z" />
</svg>
