<?xml version="1.0" encoding="UTF-8" standalone="no"?>
<!-- Created with Inkscape (http://www.inkscape.org/) -->

<svg
   width="24"
   height="24"
   viewBox="0 0 24 24.000001"
   version="1.1"
   id="svg5"
   sodipodi:docname="usb-creator.svg"
   inkscape:version="1.2.1 (9c6d41e410, 2022-07-14)"
   xmlns:inkscape="http://www.inkscape.org/namespaces/inkscape"
   xmlns:sodipodi="http://sodipodi.sourceforge.net/DTD/sodipodi-0.dtd"
   xmlns:xlink="http://www.w3.org/1999/xlink"
   xmlns="http://www.w3.org/2000/svg"
   xmlns:svg="http://www.w3.org/2000/svg">
  <sodipodi:namedview
     id="namedview7"
     pagecolor="#ffffff"
     bordercolor="#666666"
     borderopacity="1.0"
     inkscape:showpageshadow="2"
     inkscape:pageopacity="0.0"
     inkscape:pagecheckerboard="0"
     inkscape:deskcolor="#d1d1d1"
     inkscape:document-units="px"
     showgrid="false"
     inkscape:zoom="17.333334"
     inkscape:cx="5.278846"
     inkscape:cy="11.653846"
     inkscape:window-width="1920"
     inkscape:window-height="1007"
     inkscape:window-x="0"
     inkscape:window-y="0"
     inkscape:window-maximized="1"
     inkscape:current-layer="svg5"
     showguides="false" />
  <defs
     id="defs2">
    <linearGradient
       inkscape:collect="always"
       xlink:href="#linearGradient2739"
       id="linearGradient10386"
       x1="19"
       y1="23"
       x2="5"
       y2="1"
       gradientUnits="userSpaceOnUse" />
    <linearGradient
       inkscape:collect="always"
       id="linearGradient2739">
      <stop
         style="stop-color:#8a8a8a;stop-opacity:1;"
         offset="0"
         id="stop2735" />
      <stop
         style="stop-color:#c0c0c0;stop-opacity:1;"
         offset="1"
         id="stop2737" />
    </linearGradient>
  </defs>
  <rect
     style="fill:url(#linearGradient10386);fill-opacity:1.0;stroke:none"
     id="rect184"
     width="21"
     height="21"
     x="1.5"
     y="1.5"
     ry="3.5" />
  <path
     d="M 11.5,4 C 10.67157,4 10,4.6715701 10,5.5000001 c 0,0.65584 0.41359,1.20241 1,1.40625 V 9.3125002 L 8.15625,12.156251 8,12.281251 v 0.21875 1.500001 H 7 v 2.999999 h 3 v -3 H 9 v -1.3125 L 11,10.6875 v 7.312501 H 9.5 l 2,4 2,-4 H 12 V 9.4375004 L 14,10.75 v 1.343751 c -0.58641,0.20384 -1,0.75041 -1,1.406251 0,0.828429 0.67157,1.5 1.5,1.5 0.82843,0 1.5,-0.671571 1.5,-1.5 0,-0.655842 -0.41359,-1.202411 -1,-1.406251 V 10.5 10.21875 L 14.78125,10.09375 12,8.2500002 V 6.9062501 c 0.58641,-0.20384 1,-0.75041 1,-1.40625 C 13,4.6715701 12.32843,4 11.5,4 Z"
     style="color:#bebebe;display:inline;overflow:visible;visibility:visible;fill:#000000;fill-opacity:1;fill-rule:nonzero;stroke:none;stroke-width:4;marker:none;enable-background:accumulate;opacity:0.2"
     id="path9276" />
  <path
     d="m 11.5,2.9999997 c -0.82843,0 -1.5,0.67157 -1.5,1.5 0,0.65584 0.41359,1.20241 1,1.40625 v 2.40625 l -2.8437499,2.8437503 -0.15625,0.125 V 11.5 13 H 7 v 3 h 3 V 13 H 9.0000001 V 11.6875 L 11,9.6874997 V 17 H 9.5000001 L 11.5,21 l 2,-4 H 12 V 8.4374997 l 2,1.3125 V 11.09375 c -0.58641,0.20384 -1,0.75041 -1,1.40625 0,0.82843 0.67157,1.5 1.5,1.5 0.82843,0 1.5,-0.67157 1.5,-1.5 0,-0.65584 -0.41359,-1.20241 -1,-1.40625 v -1.5937503 -0.28125 l -0.21875,-0.125 L 12,7.2499997 v -1.34375 c 0.58641,-0.20384 1,-0.75041 1,-1.40625 0,-0.82843 -0.67157,-1.5 -1.5,-1.5 z"
     style="color:#bebebe;display:inline;overflow:visible;visibility:visible;fill:#ffffff;fill-opacity:1;fill-rule:nonzero;stroke:none;stroke-width:4;marker:none;enable-background:accumulate"
     id="path8511"
     sodipodi:nodetypes="sscccccccccccccccccccccsssccccccss" />
  <path
     id="rect2630"
     style="fill:#ffffff;fill-opacity:1;opacity:0.3"
     d="m 4.9999999,2 c -1.6619983,0 -3,1.3380017 -3,2.9999997 v 1 c 0,-1.661998 1.3380017,-3 3,-3 H 19 c 1.661998,0 3,1.338002 3,3 v -1 C 22,3.3380017 20.661998,2 19,2 Z" />
  <path
     id="rect398"
     style="opacity:0.3;fill:#ffffff"
     d="m 2,18 v 1 c 0,1.661998 1.3380017,3 3,3 h 14 c 1.661998,0 3,-1.338002 3,-3 v -1 c 0,1.661998 -1.338002,3 -3,3 H 5 C 3.3380017,21 2,19.661998 2,18 Z" />
  <path
     id="rect899"
     style="opacity:0.5;fill:#000000;stroke:none"
     d="M 5,1 C 2.7840022,1 1,2.7840022 1,5 v 14 c 0,2.215998 1.7840022,4 4,4 h 14 c 2.215998,0 4,-1.784002 4,-4 V 5 C 23,2.7840022 21.215998,1 19,1 Z m 0,1 h 14 c 1.661998,0 3,1.3380017 3,3 v 14 c 0,1.661998 -1.338002,3 -3,3 H 5 C 3.3380017,22 2,20.661998 2,19 V 5 C 2,3.3380017 3.3380017,2 5,2 Z" />
</svg>
