<?xml version="1.0" encoding="UTF-8" standalone="no"?>
<!-- Created with Inkscape (http://www.inkscape.org/) -->

<svg
   width="24"
   height="24"
   viewBox="0 0 24 24.000001"
   version="1.1"
   id="svg5"
   sodipodi:docname="web-google.svg"
   inkscape:version="1.2.1 (9c6d41e410, 2022-07-14)"
   xmlns:inkscape="http://www.inkscape.org/namespaces/inkscape"
   xmlns:sodipodi="http://sodipodi.sourceforge.net/DTD/sodipodi-0.dtd"
   xmlns="http://www.w3.org/2000/svg"
   xmlns:svg="http://www.w3.org/2000/svg">
  <sodipodi:namedview
     id="namedview7"
     pagecolor="#ffffff"
     bordercolor="#666666"
     borderopacity="1.0"
     inkscape:showpageshadow="2"
     inkscape:pageopacity="0.0"
     inkscape:pagecheckerboard="0"
     inkscape:deskcolor="#d1d1d1"
     inkscape:document-units="px"
     showgrid="false"
     inkscape:zoom="33"
     inkscape:cx="11.984848"
     inkscape:cy="12"
     inkscape:window-width="1920"
     inkscape:window-height="1007"
     inkscape:window-x="0"
     inkscape:window-y="0"
     inkscape:window-maximized="1"
     inkscape:current-layer="svg5" />
  <defs
     id="defs2" />
  <rect
     style="fill:#f5f5f5;fill-opacity:1;stroke:none"
     id="rect184"
     width="21"
     height="21"
     x="1.5"
     y="1.5"
     ry="3.5" />
  <path
     d="M 11.999997,6.0000823 C 9.474941,6.0074323 7.1492057,7.3744961 5.914301,9.5769876 l -0.00341,-0.00175 C 5.3181659,10.619712 5.0051546,11.799118 5,13.000044 c 0.00149,1.202513 0.3113514,2.384375 0.9023441,3.431642 v 0.0018 c 1.2395396,2.202631 3.5702002,3.565673 6.0976589,3.566652 1.588197,-8.39e-4 3.128014,-0.542579 4.368166,-1.534669 h 0.0034 C 18.032293,17.137147 18.999833,15.126648 19,13.000085 18.999749,12.529827 18.95075,12.061132 18.856445,11.600426 h -0.669922 -2.238771 -3.947755 v 2.799318 h 3.958009 c -0.319912,0.903201 -0.944428,1.684581 -1.789307,2.194337 -0.654597,0.395695 -1.403802,0.604434 -2.168702,0.604981 C 10.343204,17.198251 8.8473154,16.225456 8.1718703,14.724451 8.117839,14.51229 7.8013295,13.451915 7.7993108,13.000085 c 0.00473,-0.533343 0.110629,-1.061593 0.3127444,-1.555176 l -0.00341,-0.0018 c 1.952e-4,-4.89e-4 -1.951e-4,-0.0012 0,-0.0017 0.6361901,-1.5918632 2.1769738,-2.6381589 3.8913588,-2.642092 0.859416,0.0056 1.696079,0.274422 2.397706,0.7707528 L 16.578373,7.7243659 C 15.309382,6.6171728 13.684099,6.0056158 12.000002,6 Z"
     style="opacity:0.2;fill:#000000;fill-opacity:1;stroke-width:0.699999;stroke-linejoin:round"
     id="path12181" />
  <g
     id="g12145"
     transform="matrix(0.87499996,0,0,0.87499996,1.5000002,1.1244073)">
    <path
       id="path24487"
       style="fill:#ea4335;fill-opacity:1;stroke-width:0.799998;stroke-linejoin:round"
       d="M 12,4.429249 C 9.1142207,4.437659 6.456633,5.9996136 5.0453123,8.5167488 L 5.7869073,10.502823 7.553125,10.64956 C 8.2797898,8.8293456 10.0401,7.6337449 12,7.6292488 c 0.982189,0.00643 1.938764,0.3140145 2.740625,0.8812494 l 2.492187,-2.109374 C 15.782536,5.1357599 13.924683,4.435667 12,4.429249 Z"
       sodipodi:nodetypes="cccccccc" />
    <path
       id="rect25425"
       style="fill:#fbbc05;fill-opacity:1;stroke-width:0.799998;stroke-linejoin:round"
       d="m 5.0421883,8.5151863 c -0.677398,1.1936863 -1.036297,2.5415757 -1.042188,3.9140617 0.0017,1.374303 0.357392,2.724996 1.032812,3.921873 l 1.8053799,-0.2579 0.7086829,-1.878037 c 0.3315704,0.936148 -0.3437367,-1.08352 -0.3468737,-1.785936 0.00537,-0.609535 0.1268221,-1.212466 0.3578117,-1.776562 z"
       sodipodi:nodetypes="cccccccc" />
    <path
       id="rect35766"
       style="fill:#4285f4;fill-opacity:1;stroke-width:0.799998;stroke-linejoin:round"
       d="m 12,10.829248 v 3.199999 h 4.523437 c -0.365615,1.03223 -1.078173,1.925233 -2.04375,2.507811 l 0.316082,1.988125 2.201105,0.150935 c 1.897958,-1.518025 3.002936,-3.816515 3.003127,-6.246874 -2.88e-4,-0.537437 -0.05473,-1.073479 -0.162501,-1.6 H 19.071876 16.5125 Z"
       sodipodi:nodetypes="ccccccccccc" />
    <path
       id="rect24779-7"
       style="fill:#34a853;fill-opacity:1;stroke-width:0.799998;stroke-linejoin:round"
       d="M 7.5468751,14.215184 5.0312503,16.352683 C 6.4478686,18.869978 9.1114745,20.428124 12,20.429243 c 1.815998,-9.58e-4 3.577629,-0.619776 4.995312,-1.754686 L 14.479687,16.537058 C 13.731576,16.989283 12.874172,17.22862 12,17.229246 10.039363,17.228286 8.2763708,16.035056 7.5468751,14.215184 Z"
       sodipodi:nodetypes="ccccccc" />
  </g>
  <path
     id="rect2630"
     style="fill:#ffffff;fill-opacity:1;opacity:0.3"
     d="m 4.9999999,2 c -1.6619983,0 -3,1.3380017 -3,2.9999997 v 1 c 0,-1.661998 1.3380017,-3 3,-3 H 19 c 1.661998,0 3,1.338002 3,3 v -1 C 22,3.3380017 20.661998,2 19,2 Z" />
  <path
     id="rect398"
     style="opacity:0.3;fill:#ffffff"
     d="m 2,18 v 1 c 0,1.661998 1.3380017,3 3,3 h 14 c 1.661998,0 3,-1.338002 3,-3 v -1 c 0,1.661998 -1.338002,3 -3,3 H 5 C 3.3380017,21 2,19.661998 2,18 Z" />
  <path
     id="rect899"
     style="opacity:0.5;fill:#000000;stroke:none"
     d="M 5,1 C 2.7840022,1 1,2.7840022 1,5 v 14 c 0,2.215998 1.7840022,4 4,4 h 14 c 2.215998,0 4,-1.784002 4,-4 V 5 C 23,2.7840022 21.215998,1 19,1 Z m 0,1 h 14 c 1.661998,0 3,1.3380017 3,3 v 14 c 0,1.661998 -1.338002,3 -3,3 H 5 C 3.3380017,22 2,20.661998 2,19 V 5 C 2,3.3380017 3.3380017,2 5,2 Z" />
</svg>
