<?xml version="1.0" encoding="UTF-8" standalone="no"?>
<!-- Created with Inkscape (http://www.inkscape.org/) -->

<svg
   width="24"
   height="24"
   viewBox="0 0 24 24.000001"
   version="1.1"
   id="svg5"
   sodipodi:docname="winecfg.svg"
   inkscape:version="1.2.1 (9c6d41e410, 2022-07-14)"
   xmlns:inkscape="http://www.inkscape.org/namespaces/inkscape"
   xmlns:sodipodi="http://sodipodi.sourceforge.net/DTD/sodipodi-0.dtd"
   xmlns:xlink="http://www.w3.org/1999/xlink"
   xmlns="http://www.w3.org/2000/svg"
   xmlns:svg="http://www.w3.org/2000/svg">
  <sodipodi:namedview
     id="namedview7"
     pagecolor="#ffffff"
     bordercolor="#666666"
     borderopacity="1.0"
     inkscape:showpageshadow="2"
     inkscape:pageopacity="0.0"
     inkscape:pagecheckerboard="0"
     inkscape:deskcolor="#d1d1d1"
     inkscape:document-units="px"
     showgrid="false"
     inkscape:zoom="35.909091"
     inkscape:cx="12.044304"
     inkscape:cy="12.002532"
     inkscape:window-width="1920"
     inkscape:window-height="1002"
     inkscape:window-x="0"
     inkscape:window-y="0"
     inkscape:window-maximized="1"
     inkscape:current-layer="svg5"
     showguides="true" />
  <defs
     id="defs2">
    <linearGradient
       inkscape:collect="always"
       id="linearGradient1093">
      <stop
         style="stop-color:#981b1b;stop-opacity:1;"
         offset="0"
         id="stop1089" />
      <stop
         style="stop-color:#c75349;stop-opacity:1;"
         offset="1"
         id="stop1091" />
    </linearGradient>
    <linearGradient
       inkscape:collect="always"
       xlink:href="#linearGradient1093"
       id="linearGradient10386"
       x1="19"
       y1="23"
       x2="5"
       y2="1"
       gradientUnits="userSpaceOnUse" />
  </defs>
  <rect
     style="fill:url(#linearGradient10386);fill-opacity:1;stroke:none"
     id="rect184"
     width="21"
     height="21"
     x="1.5"
     y="1.5"
     ry="3.5" />
  <path
     d="m 16.401904,7.6729139 c 0,0 -0.247349,0.1121437 -0.815325,0.5841778 -0.694602,0.5770794 -1.124746,0.5305574 -1.632911,0.4453641 l -0.004,0.00397 c -0.0968,-0.044181 -0.194666,-0.085583 -0.293961,-0.1227316 v -0.00399 C 13.236052,8.2808426 12.899132,8.0092254 12.81601,7.1099852 12.74801,6.3749229 12.652564,6.120333 12.652564,6.120333 12.375655,5.9999718 11.999303,6.0000103 11.999303,6.0000103 c 0,0 -0.376452,3.85e-5 -0.653152,0.1204245 0,0 -0.0957,0.2543761 -0.163523,0.9895714 -0.0831,0.8991982 -0.420217,1.1707071 -0.839678,1.4697153 l -7e-4,0.00501 c -0.0992,0.0371 -0.196787,0.078603 -0.29394,0.122745 l -0.004,-0.00397 C 9.5361845,8.7888085 9.1058805,8.8350607 8.411247,8.2580303 7.843481,7.786287 7.595961,7.673853 7.595961,7.673853 7.315692,7.783928 7.049636,8.0499834 7.049636,8.0499834 c 0,0 -0.266179,0.2661782 -0.376695,0.5470498 0,0 0.112396,0.2475862 0.584119,0.815335 0.577069,0.6945918 0.530627,1.1250768 0.445497,1.6330428 l 0.004,0.004 c -0.044,0.0969 -0.0856,0.194694 -0.122874,0.293838 h -0.004 c -0.29878,0.419703 -0.570419,0.756626 -1.469589,0.839839 -0.735041,0.0679 -0.989799,0.163663 -0.989799,0.163663 C 5.000021,12.623762 5,12.999574 5,12.999574 c 0,0 1.99e-4,0.376621 0.120494,0.653278 0,0 0.254317,0.09581 0.989502,0.163408 0.899149,0.0832 1.170347,0.420542 1.469565,0.839835 h 0.004 c 0.0372,0.09931 0.0787,0.196958 0.122717,0.293989 l -0.004,0.004 c 0.0855,0.508098 0.131673,0.938332 -0.445336,1.632892 -0.471723,0.567889 -0.584189,0.815786 -0.584189,0.815786 0.110926,0.280851 0.376712,0.546637 0.376712,0.546637 0,0 0.26627,0.26628 0.547046,0.376704 0,0 0.247499,-0.112024 0.815237,-0.584068 0.6946555,-0.576989 1.1250185,-0.530246 1.633033,-0.445434 l 0.004,-0.004 c 0.09721,0.04411 0.194726,0.0857 0.293989,0.122723 l -7e-4,0.005 c 0.419755,0.298837 0.756616,0.570416 0.839839,1.469558 0.0679,0.735083 0.163593,0.989918 0.163593,0.989918 0.277032,0.120057 0.652932,0.120235 0.652932,0.120235 0,0 0.376624,-1.01e-4 0.653173,-0.120644 0,0 0.0958,-0.254076 0.163506,-0.98939 0.0832,-0.899139 0.420661,-1.170458 0.839733,-1.469628 l -7e-4,-0.005 c 0.0992,-0.0371 0.196879,-0.0788 0.293961,-0.122762 l 0.004,0.004 c 0.508077,-0.0855 0.938289,-0.131645 1.632923,0.445392 0.567765,0.471737 0.815635,0.584261 0.815635,0.584261 0.280899,-0.111033 0.546717,-0.376844 0.546717,-0.376844 0,0 0.266266,-0.266266 0.376722,-0.547078 0,0 -0.112034,-0.247516 -0.584181,-0.815285 -0.577065,-0.694592 -0.530295,-1.125015 -0.445364,-1.632942 l -0.004,-0.004 c 0.0441,-0.0972 0.0857,-0.194726 0.122744,-0.29394 h 0.006 c 0.29884,-0.419632 0.570451,-0.756542 1.469628,-0.839765 0.735144,-0.0679 0.99,-0.163635 0.99,-0.163635 0.120014,-0.277032 0.120045,-0.653002 0.120045,-0.653002 0,0 -6.3e-5,-0.376452 -0.120337,-0.65326 0,0 -0.254414,-0.0957 -0.989637,-0.163446 -0.899226,-0.0831 -1.170578,-0.420234 -1.46973,-0.839678 h -0.004 c -0.0371,-0.0992 -0.07841,-0.196944 -0.122755,-0.293947 l 0.004,-0.004 c -0.0853,-0.507916 -0.131698,-0.93829 0.445336,-1.6329338 0.471745,-0.5677665 0.584377,-0.8155449 0.584377,-0.8155449 -0.110834,-0.2807909 -0.37689,-0.5468501 -0.37689,-0.5468501 0,0 -0.266279,-0.2662552 -0.547087,-0.3767119 z M 14.31407,15.314549 c -1.27857,1.278559 -3.351436,1.27858 -4.6300095,2.1e-5 -1.2785705,-1.278574 -1.2785495,-3.35144 2.1e-5,-4.63001 1.2785415,-1.2785419 3.3514075,-1.2785591 4.6299785,1e-5 1.278568,1.27856 1.278551,3.351437 10e-6,4.629979 z"
     style="display:inline;opacity:0.2;fill:#000000;fill-opacity:1;stroke:none;stroke-width:0.35;enable-background:new"
     id="path1237" />
  <path
     d="m 16.402346,6.6728984 c 0,0 -0.247347,0.1121433 -0.815321,0.5841759 -0.6946,0.5770773 -1.124746,0.5305555 -1.632908,0.4453625 l -0.004,0.00401 c -0.0968,-0.044202 -0.194665,-0.085603 -0.29396,-0.1227515 v -0.00401 C 13.236505,7.2808252 12.899586,7.0092084 12.816464,6.1099712 12.748464,5.3749114 12.653019,5.1203225 12.653019,5.1203225 12.37611,4.9999615 11.999761,5 11.999761,5 c 0,0 -0.376453,3.85e-5 -0.653151,0.120424 0,0 -0.0957,0.2543754 -0.163522,0.9895682 -0.0831,0.8991952 -0.420217,1.1707032 -0.839676,1.4697104 l -7e-4,0.00501 c -0.0992,0.0371 -0.196785,0.078603 -0.293939,0.1227445 l -0.004,-0.00397 C 9.5366495,7.7887888 9.1063475,7.8350414 8.411715,7.2580125 7.843951,6.7862707 7.596432,6.6738371 7.596432,6.6738371 7.316164,6.7839117 7.050109,7.0499662 7.050109,7.0499662 c 0,0 -0.266178,0.2661778 -0.376693,0.547048 0,0 0.112395,0.2475854 0.584116,0.8153323 0.577067,0.6945897 0.530626,1.1250737 0.445496,1.6330365 l 0.004,0.004 c -0.044,0.0969 -0.0856,0.194694 -0.122874,0.293838 h -0.004 c -0.29878,0.419701 -0.570417,0.756623 -1.469585,0.839836 -0.735038,0.0679 -0.989795,0.163662 -0.989795,0.163662 -0.120274,0.27701 -0.120295,0.652821 -0.120295,0.652821 0,0 1.99e-4,0.37662 0.120494,0.653276 0,0 0.254316,0.09581 0.989498,0.163407 0.899147,0.0832 1.170343,0.420541 1.46956,0.839832 h 0.004 c 0.0372,0.09931 0.0787,0.196958 0.122716,0.293988 l -0.004,0.004 c 0.0855,0.508097 0.131672,0.938329 -0.445335,1.632887 -0.471721,0.567887 -0.584186,0.815784 -0.584186,0.815784 0.110925,0.280849 0.376711,0.546635 0.376711,0.546635 0,0 0.266268,0.266278 0.547044,0.376703 0,0 0.247497,-0.112024 0.815234,-0.584067 0.6946515,-0.576987 1.1250135,-0.530245 1.633026,-0.445433 l 0.004,-0.004 c 0.0972,0.0441 0.194725,0.0857 0.293988,0.122724 l -7e-4,0.005 c 0.419754,0.298835 0.756613,0.570413 0.839836,1.469553 0.0679,0.735081 0.163593,0.989915 0.163593,0.989915 0.27703,0.120056 0.652929,0.120234 0.652929,0.120234 0,0 0.376624,-1.01e-4 0.653172,-0.120644 0,0 0.0958,-0.254074 0.163505,-0.989386 0.0832,-0.899136 0.42066,-1.170455 0.839731,-1.469623 l -7e-4,-0.005 c 0.0992,-0.0371 0.196877,-0.0788 0.29396,-0.122762 l 0.004,0.004 c 0.508075,-0.08551 0.938286,-0.131645 1.632917,0.44539 0.567765,0.471735 0.815634,0.58426 0.815634,0.58426 0.280898,-0.111034 0.546715,-0.376843 0.546715,-0.376843 0,0 0.266265,-0.266265 0.376721,-0.547076 0,0 -0.112035,-0.247516 -0.584179,-0.815283 C 16.163299,14.892421 16.210069,14.462 16.295,13.954075 l -0.004,-0.004 c 0.04411,-0.0972 0.0857,-0.194725 0.122744,-0.293939 h 0.006 c 0.298839,-0.419631 0.570448,-0.75654 1.469623,-0.839762 0.73514,-0.0679 0.989996,-0.163635 0.989996,-0.163635 0.120015,-0.277031 0.120045,-0.652999 0.120045,-0.652999 0,0 -6.3e-5,-0.376452 -0.120336,-0.653259 0,0 -0.254414,-0.0957 -0.989635,-0.163445 -0.899223,-0.0831 -1.170574,-0.420233 -1.469724,-0.839675 h -0.004 c -0.0371,-0.0992 -0.07841,-0.196944 -0.122756,-0.293946 l 0.004,-0.004 C 16.211657,9.5375009 16.165261,9.1071285 16.742293,8.4124865 17.214034,7.8447224 17.326667,7.5969443 17.326667,7.5969443 17.215834,7.3161543 16.949778,7.050096 16.949778,7.050096 c 0,0 -0.266279,-0.2662543 -0.547086,-0.3767106 z m -2.087827,7.6416096 c -1.278565,1.278555 -3.351426,1.278576 -4.6299945,2.1e-5 -1.2785665,-1.27857 -1.2785455,-3.351429 2.1e-5,-4.6299944 1.2785385,-1.2785378 3.3513975,-1.2785551 4.6299635,1.03e-5 1.278564,1.2785551 1.278547,3.3514251 1e-5,4.6299631 z"
     style="display:inline;fill:#ffffff;fill-opacity:1;stroke:none;stroke-width:0.349999;enable-background:new"
     id="path429"
     sodipodi:nodetypes="ccccccccccccccccccccccccccccccccccccccccccccccccccccccccccccccccccccccccccccscc" />
  <path
     id="rect2630"
     style="fill:#ffffff;fill-opacity:1;opacity:0.3"
     d="m 4.9999999,2 c -1.6619983,0 -3,1.3380017 -3,2.9999997 v 1 c 0,-1.661998 1.3380017,-3 3,-3 H 19 c 1.661998,0 3,1.338002 3,3 v -1 C 22,3.3380017 20.661998,2 19,2 Z" />
  <path
     id="rect398"
     style="opacity:0.3;fill:#ffffff"
     d="m 2,18 v 1 c 0,1.661998 1.3380017,3 3,3 h 14 c 1.661998,0 3,-1.338002 3,-3 v -1 c 0,1.661998 -1.338002,3 -3,3 H 5 C 3.3380017,21 2,19.661998 2,18 Z" />
  <path
     id="rect899"
     style="opacity:0.5;fill:#000000;stroke:none"
     d="M 5,1 C 2.7840022,1 1,2.7840022 1,5 v 14 c 0,2.215998 1.7840022,4 4,4 h 14 c 2.215998,0 4,-1.784002 4,-4 V 5 C 23,2.7840022 21.215998,1 19,1 Z m 0,1 h 14 c 1.661998,0 3,1.3380017 3,3 v 14 c 0,1.661998 -1.338002,3 -3,3 H 5 C 3.3380017,22 2,20.661998 2,19 V 5 C 2,3.3380017 3.3380017,2 5,2 Z" />
</svg>
