<?xml version="1.0" encoding="UTF-8" standalone="no"?>
<!-- Created with Inkscape (http://www.inkscape.org/) -->

<svg
   width="24"
   height="24"
   viewBox="0 0 24 24.000001"
   version="1.1"
   id="svg5"
   sodipodi:docname="yast.svg"
   inkscape:version="1.2.1 (9c6d41e410, 2022-07-14)"
   xmlns:inkscape="http://www.inkscape.org/namespaces/inkscape"
   xmlns:sodipodi="http://sodipodi.sourceforge.net/DTD/sodipodi-0.dtd"
   xmlns:xlink="http://www.w3.org/1999/xlink"
   xmlns="http://www.w3.org/2000/svg"
   xmlns:svg="http://www.w3.org/2000/svg">
  <sodipodi:namedview
     id="namedview7"
     pagecolor="#ffffff"
     bordercolor="#666666"
     borderopacity="1.0"
     inkscape:showpageshadow="2"
     inkscape:pageopacity="0.0"
     inkscape:pagecheckerboard="0"
     inkscape:deskcolor="#d1d1d1"
     inkscape:document-units="px"
     showgrid="false"
     inkscape:zoom="32.916667"
     inkscape:cx="11.98481"
     inkscape:cy="12"
     inkscape:window-width="1920"
     inkscape:window-height="1002"
     inkscape:window-x="0"
     inkscape:window-y="0"
     inkscape:window-maximized="1"
     inkscape:current-layer="svg5" />
  <defs
     id="defs2">
    <linearGradient
       inkscape:collect="always"
       xlink:href="#linearGradient4246"
       id="linearGradient10386"
       x1="19"
       y1="23"
       x2="5"
       y2="1"
       gradientUnits="userSpaceOnUse" />
    <linearGradient
       inkscape:collect="always"
       id="linearGradient4246">
      <stop
         style="stop-color:#23aea1;stop-opacity:1;"
         offset="0"
         id="stop4242" />
      <stop
         style="stop-color:#49c77c;stop-opacity:1;"
         offset="1"
         id="stop4244" />
    </linearGradient>
  </defs>
  <rect
     style="fill:url(#linearGradient10386);fill-opacity:1.0;stroke:none"
     id="rect184"
     width="21"
     height="21"
     x="1.5"
     y="1.5"
     ry="3.5" />
  <path
     d="m 7.2823964,6 0.596625,1.4008287 1.4587872,1.6663894 c -0.472985,0.074688 -0.8936932,0.2016595 -1.2903372,0.353527 -0.224046,0.1078838 -0.438134,0.224066 -0.5576255,0.4605806 l -0.363452,0.6439833 c -0.117002,0.236515 -0.3651115,0.726153 -0.6082425,0.917855 l -0.9957585,0.777592 c 0.198321,0.09627 0.3758985,0.222406 0.539369,0.371785 -0.1759175,-0.0971 -0.346856,-0.199171 -0.551816,-0.253112 -0.142726,-0.0224 -0.2837919,-0.02074 -0.4140709,0.08299 -0.117001,0.0971 -0.103724,0.261411 -0.07966,0.414938 0.04481,0.237346 0.243132,0.448135 0.4688369,0.60747 0.2099395,0.09378 0.4032825,0.04563 0.5891575,-0.0639 0.160981,-0.149378 0.226535,-0.41162 0.20662,-0.770125 0.1161715,-0.02158 0.090447,0.66971 0.1111935,0.590872 0.010785,-0.04232 1.706896,-0.890457 2.1558177,-0.995851 0.458049,-0.117842 1.172506,-0.456444 1.6894724,-0.61744 0.321132,-0.102904 0.555965,-0.346888 0.755117,-0.653111 l -0.160152,0.340248 c -0.11974,0.19358 -0.307304,0.335598 -0.526092,0.39834 l -0.287941,3.063899 -0.0058,2.962653 -0.5011984,0.746888 0.341047,-0.01161 0.3634524,-0.480499 -0.2671954,0.575104 c 0,0 1.7483864,-0.117013 1.7483864,-0.104565 0,0.01245 -0.53937,-3.543566 -0.53937,-3.543566 0,0 0.584179,-0.653111 0.596626,-0.66224 0.01245,-0.01 2.136733,0.717012 2.136733,0.717012 l -0.326941,-0.385892 -0.268855,-0.148547 0.326111,0.107883 c 0,0 0.757607,0.917842 0.760926,0.931121 0.0033,0.01245 0.135257,-0.165146 0.135257,-0.165146 l -0.793288,3.219915 1.053845,0.359336 -0.03319,-0.492116 0.252259,0.610789 0.387516,0.02572 -0.262217,-0.636514 0.45639,0.554355 0.250599,-0.04979 -0.45141,-0.649792 0.526922,-3.136927 -0.607413,-0.479668 -0.470496,-0.630705 0.445602,0.453942 -0.482943,-0.687967 -0.03817,-0.908714 0.169279,0.782573 0.182556,-0.643155 -0.0946,0.751039 0.351005,0.770123 0.70201,0.522822 -0.01328,0.120331 0.552646,-0.202489 0.356814,-0.806638 0.03071,-0.499585 0.05145,0.506224 c 0,0 -0.307025,0.743568 -0.307025,0.769294 0,0.0249 0.400793,-0.379253 0.400793,-0.379253 l -0.439794,0.517843 0.70284,1.268049 0.238152,1.382571 0.175088,-0.125311 -0.03734,0.04979 -0.564263,0.736929 0.37009,-0.0805 0.143556,-0.227386 -0.06306,0.277179 0.131938,0.0066 -0.0307,0.302905 0.275493,-0.246473 0.205791,0.0639 0.06389,-0.367634 v 0.373444 l 0.193343,-0.03817 0.09377,0.315353 0.137747,-0.39751 0.269685,-0.01245 c -0.257231,-1.951865 -0.597449,-3.704207 -0.688726,-5.656075 -0.01,-0.371784 -0.321963,-1.029045 -0.658031,-1.45892 -0.392495,-0.452281 -1.194081,-1.419086 -2.331735,-1.6904548 -0.620691,-0.07386 -1.252997,0.026557 -1.94173,0.2514515 -0.609073,0.1784238 -1.238061,0.1963283 -1.921815,0.5241283 0.160981,0.263901 0.374239,0.522822 0.737691,0.829874 0.113683,0.111204 0.318643,0.141909 0.520284,0.126142 -0.139406,0.04979 -0.282961,0.09129 -0.433155,0.01245 -0.244791,-0.165978 -0.446432,-0.373447 -0.638945,-0.592534 -0.117139,-0.145349 -0.216077,-0.30447 -0.294614,-0.473825 C 11.233066,9.9269709 11.369988,9.5917012 11.594029,9.2315352 11.79733,8.9817428 12.021375,8.7377595 12.476935,8.562656 12.886856,8.3991705 13.298436,8.2356856 13.687612,8.0199178 14.127405,7.7344407 14.829416,6.8248974 15.202825,6.1892133 14.185491,6.5626575 13.168988,6.8614123 12.157462,7.4572624 11.779074,7.7170131 11.408154,8.1195025 11.029766,8.5361001 10.868784,8.7186733 10.694526,8.8896279 10.465502,9.0107895 10.151008,9.1792539 9.9344306,9.0190902 9.7892156,8.890458 9.5641686,8.6468475 9.3647966,8.3807133 9.1942536,8.0962643 8.9702076,7.7892107 8.7353746,7.4813266 8.3918379,7.1742735 7.9968534,6.8074684 7.6408699,6.3842316 7.2823964,6 Z m 6.4359226,1.0066382 -0.896184,1.087966 0.608244,-0.2107883 -1.223954,0.5999999 z M 9.4672576,9.2780064 c 0.07883,-0.0017 0.157661,0 0.234003,0.0083 -0.49539,0.038178 -0.721925,0.1236519 -1.151761,0.3443986 0.157662,-0.120332 0.24645,-0.2099582 0.530242,-0.3070542 0.124469,-0.027382 0.256408,-0.043154 0.387516,-0.045639 z m 0.137746,0.6838167 c 0.244791,0.0041 0.4107514,0.1120329 0.4107514,0.1120329 -0.5426894,-0.1460576 -0.8405874,-0.0249 -1.0729314,0.330291 -0.02738,-0.02241 0.154343,-0.33112 0.394985,-0.4041495 0.09626,-0.029043 0.185875,-0.039834 0.267195,-0.038178 z m -0.04149,0.1825729 c 0.05149,-0.0021 0.103043,0.002 0.153513,0.01245 0.101235,0.03568 0.147704,0.111203 0.197492,0.182572 -0.105385,-0.09295 -0.214088,-0.165974 -0.346026,-0.13195 0.149364,0.0166 0.20496,0.110374 0.226535,0.233195 0.01825,0.165146 -0.12364,0.262242 -0.218238,0.27635 -0.0946,0.01411 -0.215747,-0.01 -0.28545,-0.112034 -0.01992,-0.04149 -0.07302,-0.194191 0.01161,-0.302905 -0.09243,0.03761 -0.177326,0.09159 -0.2506,0.159336 0.06389,-0.09295 0.141896,-0.165975 0.259727,-0.243983 0.07668,-0.04442 0.162911,-0.06976 0.251429,-0.07386 z m -4.0046107,2.455615 c 0.1269595,0.150205 0.2505995,0.294604 0.311175,0.493776 0.0083,0.184231 -0.073022,0.180082 -0.152683,0.179253 -0.066384,-8.01e-4 -0.192514,-0.07635 -0.1518535,-0.137759 0.039249,-0.07975 0.055896,-0.168722 0.04813,-0.257263 z m -0.4646869,0.04563 c 0.09958,0.104563 0.1974919,0.174273 0.2157469,0.32033 0.00747,0.03485 0.01411,0.121163 -0.054768,0.107886 -0.200812,-0.190037 -0.07966,-0.169291 -0.160152,-0.428212 z"
     style="fill:#000000;stroke-width:1.00005;opacity:0.2"
     id="path35094" />
  <path
     d="M 7.2823974,5 7.8790224,6.4008286 9.3378096,8.067218 C 8.8648246,8.1419064 8.4441164,8.2688775 8.0474724,8.4207449 7.8234264,8.5286287 7.6093384,8.6448109 7.4898469,8.8813255 L 7.1263949,9.5253084 C 7.0093929,9.761824 6.7612834,10.251462 6.5181524,10.443164 l -0.9957585,0.777592 c 0.198321,0.09627 0.3758985,0.222406 0.539369,0.371785 -0.1759175,-0.0971 -0.346856,-0.199171 -0.551816,-0.253112 -0.142726,-0.0224 -0.2837915,-0.02074 -0.4140705,0.08299 -0.1170016,0.0971 -0.1037246,0.261411 -0.079661,0.414938 0.044805,0.237345 0.2431315,0.448134 0.4688365,0.607469 0.2099395,0.09378 0.4032825,0.04563 0.5891575,-0.0639 0.160981,-0.149378 0.226535,-0.411619 0.20662,-0.770124 0.1161715,-0.02158 0.090447,0.669709 0.1111935,0.590871 0.010785,-0.04232 1.706896,-0.890456 2.1558177,-0.99585 0.458049,-0.117842 1.172506,-0.456444 1.6894724,-0.61744 0.321132,-0.102904 0.555965,-0.346888 0.755117,-0.6531111 L 10.832278,10.27552 c -0.11974,0.19358 -0.307304,0.335598 -0.526092,0.39834 l -0.287941,3.063898 -0.0058,2.962653 -0.5011984,0.746888 0.341047,-0.01161 0.3634524,-0.480499 -0.2671954,0.575104 c 0,0 1.7483864,-0.117013 1.7483864,-0.104565 0,0.01245 -0.53937,-3.543566 -0.53937,-3.543566 0,0 0.584179,-0.653111 0.596626,-0.66224 0.01245,-0.01 2.136733,0.717012 2.136733,0.717012 l -0.326941,-0.385892 -0.268855,-0.148547 0.326111,0.107883 c 0,0 0.757607,0.917842 0.760926,0.931121 0.0033,0.01245 0.135257,-0.165146 0.135257,-0.165146 l -0.793288,3.219915 1.053845,0.359336 -0.03319,-0.492116 0.252259,0.610789 0.387516,0.02572 -0.262217,-0.636514 0.45639,0.554355 0.250599,-0.04979 -0.45141,-0.649792 0.526922,-3.136927 -0.607413,-0.479668 -0.470496,-0.630705 0.445602,0.453942 -0.482943,-0.687967 -0.03817,-0.908713 0.169279,0.782572 0.182556,-0.643154 -0.0946,0.751038 0.351005,0.770123 0.70201,0.522822 -0.01328,0.120331 0.552646,-0.202489 0.356814,-0.806638 0.03071,-0.499585 0.05145,0.506224 c 0,0 -0.307025,0.743568 -0.307025,0.769294 0,0.0249 0.400793,-0.379253 0.400793,-0.379253 l -0.439794,0.517843 0.70284,1.268049 0.238152,1.382571 0.175088,-0.125311 -0.03734,0.04979 -0.564263,0.736929 0.37009,-0.0805 0.143556,-0.227386 -0.06306,0.277179 0.131938,0.0066 -0.0307,0.302905 0.275493,-0.246473 0.205791,0.0639 0.06389,-0.367634 v 0.373444 l 0.193343,-0.03817 0.09377,0.315353 0.137747,-0.39751 0.269685,-0.01245 c -0.25723,-1.951865 -0.597448,-3.704207 -0.688725,-5.656074 -0.01,-0.371784 -0.321963,-1.029045 -0.658031,-1.45892 -0.392495,-0.4522809 -1.194081,-1.4190862 -2.331735,-1.690455 -0.620691,-0.07386 -1.252997,0.026557 -1.94173,0.2514515 -0.609073,0.1784238 -1.238061,0.1963283 -1.921815,0.5241283 0.160981,0.2639011 0.374239,0.5228218 0.737691,0.8298742 0.113683,0.111204 0.318643,0.141909 0.520284,0.126142 -0.139406,0.04979 -0.282961,0.09129 -0.433155,0.01245 C 12.038007,10.091252 11.836366,9.8837832 11.643853,9.6646961 11.526714,9.5193468 11.427776,9.3602258 11.349239,9.1908708 11.233067,8.9269707 11.369989,8.591701 11.59403,8.2315351 11.797331,7.9817427 12.021376,7.7377594 12.476936,7.5626559 12.886857,7.3991704 13.298437,7.2356855 13.687613,7.0199177 14.127406,6.7344406 14.829417,5.8248974 15.202826,5.1892133 14.185492,5.5626575 13.168989,5.8614123 12.157463,6.4572623 11.779075,6.717013 11.408155,7.1195024 11.029767,7.5361 10.868785,7.7186732 10.694527,7.8896278 10.465503,8.0107894 10.151009,8.1792538 9.9344316,8.0190901 9.7892166,7.8904579 9.5641696,7.6468474 9.3647976,7.3807132 9.1942546,7.0962642 8.9702086,6.7892106 8.7353756,6.4813265 8.3918389,6.1742734 7.9968544,5.8074684 7.6408709,5.3842316 7.2823974,5 Z M 13.71832,6.0066381 12.822136,7.0946041 13.43038,6.8838158 12.206426,7.4838157 Z M 9.4672586,8.2780063 c 0.07883,-0.0017 0.157661,0 0.234003,0.0083 -0.49539,0.038178 -0.721925,0.1236518 -1.151761,0.3443985 0.157662,-0.120332 0.24645,-0.2099582 0.530242,-0.3070541 0.124469,-0.027382 0.256408,-0.043154 0.387516,-0.045639 z m 0.137746,0.6838166 c 0.244791,0.0041 0.4107514,0.1120332 0.4107514,0.1120332 -0.5426894,-0.1460579 -0.8405874,-0.024897 -1.0729314,0.3302902 -0.02738,-0.022407 0.154343,-0.3311198 0.394985,-0.404149 0.09626,-0.029043 0.185875,-0.039834 0.267195,-0.038178 z m -0.04149,0.1825732 c 0.05149,-0.00214 0.103043,0.00204 0.153513,0.012451 0.101235,0.035683 0.147704,0.1112027 0.197492,0.1825722 -0.105385,-0.092946 -0.214088,-0.1659747 -0.346026,-0.1319506 0.149364,0.016597 0.20496,0.1103736 0.226535,0.2331953 0.01825,0.1651457 -0.12364,0.2622415 -0.218238,0.2763498 -0.0946,0.014111 -0.215747,-0.010001 -0.28545,-0.1120342 -0.01992,-0.041494 -0.07302,-0.1941908 0.01161,-0.3029047 -0.09243,0.03761 -0.177326,0.091586 -0.2506,0.159336 0.06389,-0.092946 0.141896,-0.1659751 0.259727,-0.2439828 0.07668,-0.044423 0.162911,-0.069755 0.251429,-0.07386 z M 5.5589039,11.600011 c 0.1269595,0.150205 0.2505995,0.294604 0.311175,0.493775 0.0083,0.184231 -0.073022,0.180082 -0.152683,0.179253 -0.066384,-8.01e-4 -0.192514,-0.07635 -0.1518535,-0.137759 0.039249,-0.07975 0.055896,-0.168721 0.04813,-0.257262 z m -0.464687,0.04563 c 0.099576,0.104563 0.197492,0.174273 0.215747,0.32033 0.00747,0.03485 0.01411,0.121162 -0.054768,0.107885 -0.2008115,-0.190036 -0.079661,-0.16929 -0.1601515,-0.428211 z"
     style="fill:#ffffff;stroke-width:1.00005"
     id="path31794"
     sodipodi:nodetypes="cccccccccccccccccccccccccccscccccccccccccccccccccccccccccccccscccccccccccccccccccccccccccccccccccccccccccccccccccccccccccccccsccccccccccccccccc" />
  <path
     id="rect2630"
     style="fill:#ffffff;fill-opacity:1;opacity:0.3"
     d="m 4.9999999,2 c -1.6619983,0 -3,1.3380017 -3,2.9999997 v 1 c 0,-1.661998 1.3380017,-3 3,-3 H 19 c 1.661998,0 3,1.338002 3,3 v -1 C 22,3.3380017 20.661998,2 19,2 Z" />
  <path
     id="rect398"
     style="opacity:0.3;fill:#ffffff"
     d="m 2,18 v 1 c 0,1.661998 1.3380017,3 3,3 h 14 c 1.661998,0 3,-1.338002 3,-3 v -1 c 0,1.661998 -1.338002,3 -3,3 H 5 C 3.3380017,21 2,19.661998 2,18 Z" />
  <path
     id="rect899"
     style="opacity:0.5;fill:#000000;stroke:none"
     d="M 5,1 C 2.7840022,1 1,2.7840022 1,5 v 14 c 0,2.215998 1.7840022,4 4,4 h 14 c 2.215998,0 4,-1.784002 4,-4 V 5 C 23,2.7840022 21.215998,1 19,1 Z m 0,1 h 14 c 1.661998,0 3,1.3380017 3,3 v 14 c 0,1.661998 -1.338002,3 -3,3 H 5 C 3.3380017,22 2,20.661998 2,19 V 5 C 2,3.3380017 3.3380017,2 5,2 Z" />
</svg>
