<?xml version="1.0" encoding="UTF-8" standalone="no"?>
<!-- Created with Inkscape (http://www.inkscape.org/) -->

<svg
   width="128"
   height="128"
   viewBox="0 0 128 128.00001"
   version="1.1"
   id="svg5"
   sodipodi:docname="cpu.svg"
   inkscape:version="1.2.1 (9c6d41e410, 2022-07-14)"
   xmlns:inkscape="http://www.inkscape.org/namespaces/inkscape"
   xmlns:sodipodi="http://sodipodi.sourceforge.net/DTD/sodipodi-0.dtd"
   xmlns:xlink="http://www.w3.org/1999/xlink"
   xmlns="http://www.w3.org/2000/svg"
   xmlns:svg="http://www.w3.org/2000/svg">
  <sodipodi:namedview
     id="namedview7"
     pagecolor="#ffffff"
     bordercolor="#666666"
     borderopacity="1.0"
     inkscape:showpageshadow="2"
     inkscape:pageopacity="0.0"
     inkscape:pagecheckerboard="0"
     inkscape:deskcolor="#d1d1d1"
     inkscape:document-units="px"
     showgrid="false"
     inkscape:zoom="3.1796875"
     inkscape:cx="12.265356"
     inkscape:cy="73.434889"
     inkscape:window-width="1920"
     inkscape:window-height="1007"
     inkscape:window-x="0"
     inkscape:window-y="0"
     inkscape:window-maximized="1"
     inkscape:current-layer="svg5" />
  <defs
     id="defs2">
    <linearGradient
       inkscape:collect="always"
       xlink:href="#linearGradient4603"
       id="linearGradient3525"
       x1="96"
       y1="116"
       x2="24.000002"
       y2="3.9999969"
       gradientUnits="userSpaceOnUse"
       gradientTransform="translate(3.9999978,4.0000032)" />
    <linearGradient
       inkscape:collect="always"
       id="linearGradient4603">
      <stop
         style="stop-color:#499126;stop-opacity:1;"
         offset="0"
         id="stop4599" />
      <stop
         style="stop-color:#7ccc6d;stop-opacity:1;"
         offset="1"
         id="stop4601" />
    </linearGradient>
    <linearGradient
       inkscape:collect="always"
       xlink:href="#linearGradient3904"
       id="linearGradient3871"
       x1="26.704081"
       y1="43.408165"
       x2="26.704081"
       y2="12"
       gradientUnits="userSpaceOnUse"
       gradientTransform="matrix(2.2923976,0,0,2.2923976,2.783623,0.491231)" />
    <linearGradient
       inkscape:collect="always"
       id="linearGradient3904">
      <stop
         style="stop-color:#a7a7a7;stop-opacity:1;"
         offset="0"
         id="stop3900" />
      <stop
         style="stop-color:#e0e0e0;stop-opacity:1;"
         offset="1"
         id="stop3902" />
    </linearGradient>
  </defs>
  <rect
     style="fill:url(#linearGradient3525);fill-opacity:1;stroke:none"
     id="rect184"
     width="111"
     height="111"
     x="8.5"
     y="8.5"
     ry="19.5" />
  <path
     id="rect6707"
     style="fill:#ffd42a;stroke-width:4;stroke-linecap:round;stroke-linejoin:round"
     d="m 110,98 v 12 H 98 Z"
     sodipodi:nodetypes="cccc" />
  <rect
     style="opacity:0.2;fill:#000000;stroke-width:8.84212;stroke-linecap:round;stroke-linejoin:round"
     id="rect823"
     width="72"
     height="72"
     x="28"
     y="29"
     ry="4" />
  <rect
     style="fill:url(#linearGradient3871);fill-opacity:1;stroke-width:6.8772;stroke-linecap:round;stroke-linejoin:round"
     id="rect848"
     width="72"
     height="72"
     x="28"
     y="28"
     ry="4" />
  <path
     id="rect3906"
     style="fill:#666666;stroke-width:2;stroke-linecap:round;stroke-linejoin:round"
     d="m 36.000002,86.000001 v 2 h 13.999997 v -2 z m 0,3.999999 v 2 h 27.999999 v -2 z"
     sodipodi:nodetypes="cccccccccc" />
  <path
     id="rect441"
     style="opacity:0.3;fill:#ffffff"
     d="M 28,9 C 17.474011,9 9,17.474011 9,28 v 1 C 9,18.474011 17.474011,10 28,10 h 72 c 10.52599,0 19,8.474011 19,19 V 28 C 119,17.474011 110.52599,9 100,9 Z" />
  <path
     id="rect443"
     style="opacity:0.3;fill:#ffffff"
     d="m 9,99 v 1 c 0,10.52599 8.474011,19 19,19 h 72 c 10.52599,0 19,-8.47401 19,-19 v -1 c 0,10.52599 -8.47401,19 -19,19 H 28 C 17.474011,118 9,109.52599 9,99 Z" />
  <path
     id="rect899"
     style="fill:#000000;stroke:none;stroke-width:2;opacity:0.5"
     d="M 28,8 C 16.920022,8 8,16.920022 8,28 v 72 c 0,11.07998 8.920022,20 20,20 h 72 c 11.07998,0 20,-8.92002 20,-20 V 28 C 120,16.920022 111.07998,8 100,8 Z m 0,1 h 72 c 10.52599,0 19,8.474011 19,19 v 72 c 0,10.52599 -8.47401,19 -19,19 H 28 C 17.474011,119 9,110.52599 9,100 V 28 C 9,17.474011 17.474011,9 28,9 Z" />
</svg>
