<?xml version="1.0" encoding="UTF-8" standalone="no"?>
<!-- Created with Inkscape (http://www.inkscape.org/) -->

<svg
   width="128"
   height="128"
   viewBox="0 0 128 128"
   version="1.1"
   id="svg5"
   inkscape:version="1.2.1 (9c6d41e410, 2022-07-14)"
   sodipodi:docname="drive-harddisk-usb.svg"
   xmlns:inkscape="http://www.inkscape.org/namespaces/inkscape"
   xmlns:sodipodi="http://sodipodi.sourceforge.net/DTD/sodipodi-0.dtd"
   xmlns:xlink="http://www.w3.org/1999/xlink"
   xmlns="http://www.w3.org/2000/svg"
   xmlns:svg="http://www.w3.org/2000/svg">
  <sodipodi:namedview
     id="namedview7"
     pagecolor="#ffffff"
     bordercolor="#000000"
     borderopacity="0.25"
     inkscape:showpageshadow="2"
     inkscape:pageopacity="0.0"
     inkscape:pagecheckerboard="0"
     inkscape:deskcolor="#d1d1d1"
     inkscape:document-units="px"
     showgrid="false"
     inkscape:zoom="6.1875"
     inkscape:cx="63.919192"
     inkscape:cy="64"
     inkscape:window-width="1920"
     inkscape:window-height="1007"
     inkscape:window-x="0"
     inkscape:window-y="0"
     inkscape:window-maximized="1"
     inkscape:current-layer="svg5" />
  <defs
     id="defs2">
    <linearGradient
       inkscape:collect="always"
       id="linearGradient1082">
      <stop
         style="stop-color:#aaaaaa;stop-opacity:1;"
         offset="0"
         id="stop1078" />
      <stop
         style="stop-color:#c9c9c9;stop-opacity:1;"
         offset="1"
         id="stop1080" />
    </linearGradient>
    <linearGradient
       inkscape:collect="always"
       xlink:href="#linearGradient1082"
       id="linearGradient1084"
       x1="48.307232"
       y1="59.078316"
       x2="16.5"
       y2="3.5"
       gradientUnits="userSpaceOnUse"
       gradientTransform="matrix(2.0243902,0,0,2.0243902,-1.792683,0.402439)" />
  </defs>
  <rect
     style="fill:url(#linearGradient1084);fill-opacity:1;stroke-width:2.02439;stroke-linejoin:round"
     id="rect499"
     width="83"
     height="111"
     x="22.5"
     y="8.5"
     ry="9.5" />
  <path
     d="m 63.999551,104.99995 c 4.418291,0 8.000019,-3.58173 8.000019,-8.00002 0,-3.726389 -2.551386,-6.798177 -6.000014,-7.687519 v -2.312506 -6.000114 l 13.250132,-13.062633 0.0624,-0.0624 v -0.0624 c 0.385021,-0.284121 0.690762,-0.834022 0.687502,-1.312503 V 60.999839 58.999834 H 80.749592 83.9996 V 46.999804 H 71.99957 v 12.00003 h 2.375006 1.625004 v 1.625004 l -0.1874,3.81251 v 0.750003 l -0.562502,0.500002 -6.187615,6.687616 -3.062507,2.750007 V 71.624967 42.624994 40.99999 h 6.000014 l -8.000019,-16.00004 -8.00002,16.00004 h 4.375011 1.625004 v 1.625004 22.375057 11.562529 1.000002 L 51.999521,71.812568 v -6.812257 l 0.687502,-0.312503 c 2.305245,-1.014522 3.937509,-3.257588 3.937509,-5.937514 0,-3.626089 -2.936407,-6.562517 -6.562516,-6.562517 -3.626089,0 -6.500016,2.936428 -6.500016,6.562517 0,2.679926 1.632444,4.923172 3.93751,5.937514 l 0.500001,0.249801 v 8.062262 c -0.006,0.704102 0.390221,1.397943 1.000002,1.750004 l 13.000033,7.437519 v 0.687501 4.12501 2.312506 c -3.448629,0.889342 -6.000015,3.96113 -6.000015,7.687519 0,4.41829 3.581729,8.00002 8.00002,8.00002 z"
     style="color:#bebebe;display:inline;overflow:visible;visibility:visible;opacity:0.1;fill:#000000;fill-opacity:1;fill-rule:nonzero;stroke:none;stroke-width:2.00001;marker:none;enable-background:accumulate"
     id="path2575" />
  <path
     d="m 63.999551,104 c 4.418291,0 8.00002,-3.58173 8.00002,-8.00002 0,-3.726389 -2.551386,-6.798177 -6.000015,-7.687519 V 85.999955 79.99984 l 13.250133,-13.062633 0.0624,-0.0624 v -0.0624 c 0.385021,-0.284121 0.690762,-0.834022 0.687502,-1.312503 V 59.99989 57.999885 h 0.750002 3.250008 v -12.00003 h -12.00003 v 12.00003 h 2.375006 1.625004 v 1.625004 l -0.1874,3.81251 V 64.1874 l -0.562502,0.500002 -6.187615,6.687616 -3.062508,2.750007 V 70.625017 41.625044 40.00004 h 6.000015 L 63.999551,24 55.999531,40.00004 h 4.375011 1.625004 V 41.625044 64.0001 75.562629 76.562631 L 51.999521,70.812617 V 64.00036 l 0.687502,-0.312501 c 2.305246,-1.014522 3.93751,-3.257588 3.93751,-5.937515 0,-3.626089 -2.936408,-6.562516 -6.562517,-6.562516 -3.626089,0 -6.500016,2.936427 -6.500016,6.562516 0,2.679927 1.632444,4.923173 3.93751,5.937515 l 0.500001,0.249801 v 8.06226 c -0.006,0.704102 0.390221,1.397943 1.000003,1.750004 l 13.000032,7.437519 v 0.687502 4.12501 2.312506 c -3.448629,0.889342 -6.000015,3.96113 -6.000015,7.687519 0,4.41829 3.581729,8.00002 8.00002,8.00002 z"
     style="color:#bebebe;display:inline;overflow:visible;visibility:visible;fill:#707070;fill-opacity:1;fill-rule:nonzero;stroke:none;stroke-width:2.00001;marker:none;enable-background:accumulate"
     id="path1056"
     sodipodi:nodetypes="sscccccccccccccccccccccccccccccccccccccsssccccccccss" />
  <path
     id="rect1864"
     style="opacity:0.5;fill:#000000;fill-opacity:1;stroke-width:2;stroke-linejoin:round"
     d="M 32,8 C 26.460012,8 22,12.460011 22,18 v 92 c 0,5.53998 4.460012,10 10,10 h 64 c 5.53999,0 10,-4.46002 10,-10 V 18 C 106,12.460011 101.53999,8 96,8 Z m 0,1 h 64 c 4.986,0 9,4.014005 9,9 v 92 c 0,4.986 -4.014,9 -9,9 H 32 c -4.985995,0 -9,-4.014 -9,-9 V 18 c 0,-4.985995 4.014005,-9 9,-9 z" />
  <path
     id="rect2772"
     style="opacity:0.3;fill:#ffffff;fill-opacity:1;stroke-width:2;stroke-linejoin:round"
     d="m 32,9 c -4.985985,0 -9,4.014015 -9,9 v 1 c 0,-0.277281 0.01671,-0.549567 0.04102,-0.820312 2.7e-4,-0.0027 0.0017,-0.0051 0.002,-0.0078 C 23.459358,13.577901 27.293963,10 32,10 h 64 c 4.70604,0 8.54064,3.577901 8.95703,8.171875 2.8e-4,0.0027 0.002,0.0051 0.002,0.0078 C 104.98329,18.450433 105,18.722719 105,19 v -1 c 0,-4.985985 -4.01401,-9 -9,-9 z" />
  <path
     id="path3694"
     style="opacity:0.3;fill:#ffffff;fill-opacity:1;stroke-width:2;stroke-linejoin:round"
     d="m 23,109 v 1 c 0,4.986 4.014015,9 9,9 h 64 c 4.98599,0 9,-4.014 9,-9 v -1 c 0,0.277 -0.0138,0.55072 -0.041,0.82031 -2.3e-4,0.003 -0.002,0.005 -0.002,0.008 C 104.54064,114.4221 100.70604,118 96,118 H 32 c -4.706037,0 -8.540642,-3.5779 -8.957031,-8.17188 C 23.015216,109.55594 23,109.27975 23,109 Z" />
</svg>
