<?xml version="1.0" encoding="UTF-8" standalone="no"?>
<!-- Created with Inkscape (http://www.inkscape.org/) -->

<svg
   width="128"
   height="128"
   viewBox="0 0 128 128"
   version="1.1"
   id="svg5"
   sodipodi:docname="input-keyboard.svg"
   inkscape:version="1.2.1 (9c6d41e410, 2022-07-14)"
   xmlns:inkscape="http://www.inkscape.org/namespaces/inkscape"
   xmlns:sodipodi="http://sodipodi.sourceforge.net/DTD/sodipodi-0.dtd"
   xmlns:xlink="http://www.w3.org/1999/xlink"
   xmlns="http://www.w3.org/2000/svg"
   xmlns:svg="http://www.w3.org/2000/svg">
  <sodipodi:namedview
     id="namedview7"
     pagecolor="#ffffff"
     bordercolor="#666666"
     borderopacity="1.0"
     inkscape:showpageshadow="2"
     inkscape:pageopacity="0.0"
     inkscape:pagecheckerboard="0"
     inkscape:deskcolor="#d1d1d1"
     inkscape:document-units="px"
     showgrid="false"
     inkscape:zoom="3.2070313"
     inkscape:cx="66.572473"
     inkscape:cy="85.904994"
     inkscape:window-width="1920"
     inkscape:window-height="1007"
     inkscape:window-x="0"
     inkscape:window-y="0"
     inkscape:window-maximized="1"
     inkscape:current-layer="svg5" />
  <defs
     id="defs2">
    <linearGradient
       inkscape:collect="always"
       xlink:href="#linearGradient22024"
       id="linearGradient932"
       x1="14"
       y1="11.521169"
       x2="1"
       y2="2.0211687"
       gradientUnits="userSpaceOnUse"
       gradientTransform="matrix(8,0,0,8,8,9.83065)" />
    <linearGradient
       inkscape:collect="always"
       id="linearGradient22024">
      <stop
         style="stop-color:#cdcdcd;stop-opacity:1;"
         offset="0"
         id="stop22020" />
      <stop
         style="stop-color:#eff0f1;stop-opacity:1;"
         offset="1"
         id="stop22022" />
    </linearGradient>
  </defs>
  <rect
     style="opacity:0.2;fill:#000000;stroke-width:8;stroke-linecap:round;stroke-linejoin:round"
     id="rect934"
     width="112"
     height="76"
     x="8"
     y="27"
     ry="8" />
  <rect
     style="fill:url(#linearGradient932);fill-opacity:1;stroke-width:8;stroke-linecap:round;stroke-linejoin:round"
     id="rect370"
     width="112"
     height="76"
     x="8"
     y="26"
     ry="8" />
  <path
     id="path1728"
     style="fill:#b3b3b3;fill-opacity:1;stroke-width:4;stroke-linecap:round;stroke-linejoin:round"
     d="m 24,38 a 6,6 0 0 0 -6,6 6,6 0 0 0 6,6 6,6 0 0 0 6,-6 6,6 0 0 0 -6,-6 z m 20,0 a 6,6 0 0 0 -6,6 6,6 0 0 0 6,6 6,6 0 0 0 6,-6 6,6 0 0 0 -6,-6 z m 20,0 a 6,6 0 0 0 -6,6 6,6 0 0 0 6,6 6,6 0 0 0 6,-6 6,6 0 0 0 -6,-6 z m 20,0 a 6,6 0 0 0 -6,6 6,6 0 0 0 6,6 6,6 0 0 0 6,-6 6,6 0 0 0 -6,-6 z m 20,0 a 6,6 0 0 0 -6,6 6,6 0 0 0 6,6 6,6 0 0 0 6,-6 6,6 0 0 0 -6,-6 z M 24,58 a 6,6 0 0 0 -6,6 6,6 0 0 0 6,6 6,6 0 0 0 6,-6 6,6 0 0 0 -6,-6 z m 20,0 a 6,6 0 0 0 -6,6 6,6 0 0 0 6,6 6,6 0 0 0 6,-6 6,6 0 0 0 -6,-6 z m 20,0 a 6,6 0 0 0 -6,6 6,6 0 0 0 6,6 6,6 0 0 0 6,-6 6,6 0 0 0 -6,-6 z m 20,0 a 6,6 0 0 0 -6,6 6,6 0 0 0 6,6 6,6 0 0 0 6,-6 6,6 0 0 0 -6,-6 z m 20,0 a 6,6 0 0 0 -6,6 6,6 0 0 0 6,6 6,6 0 0 0 6,-6 6,6 0 0 0 -6,-6 z M 40,80 c -2.215998,0 -4,1.784002 -4,4 v 6 c 0,2.215994 1.784002,4 4,4 h 48 c 2.215994,0 4,-1.784006 4,-4 v -6 c 0,-2.215998 -1.784006,-4 -4,-4 z" />
  <path
     id="path1695"
     style="opacity:0.2;fill:#000000;fill-opacity:0.961371;stroke-width:4;stroke-linecap:round;stroke-linejoin:round"
     d="m 24,38 a 6,6 0 0 0 -6,6 6,6 0 0 0 0.07813,0.501953 A 6,6 0 0 1 24,39 6,6 0 0 1 29.957031,44.273438 6,6 0 0 0 30,44 6,6 0 0 0 24,38 Z m 20,0 a 6,6 0 0 0 -6,6 6,6 0 0 0 0.07813,0.501953 A 6,6 0 0 1 44,39 6,6 0 0 1 49.957031,44.273438 6,6 0 0 0 50,44 6,6 0 0 0 44,38 Z m 20,0 a 6,6 0 0 0 -6,6 6,6 0 0 0 0.07813,0.501953 A 6,6 0 0 1 64,39 6,6 0 0 1 69.957031,44.273438 6,6 0 0 0 70,44 6,6 0 0 0 64,38 Z m 20,0 a 6,6 0 0 0 -6,6 6,6 0 0 0 0.07813,0.501953 A 6,6 0 0 1 84,39 6,6 0 0 1 89.957031,44.273438 6,6 0 0 0 90,44 6,6 0 0 0 84,38 Z m 20,0 a 6,6 0 0 0 -6,6 6,6 0 0 0 0.07813,0.501953 A 6,6 0 0 1 104,39 6,6 0 0 1 109.95703,44.273438 6,6 0 0 0 110,44 6,6 0 0 0 104,38 Z M 24,58 a 6,6 0 0 0 -6,6 6,6 0 0 0 0.07813,0.501953 A 6,6 0 0 1 24,59 6,6 0 0 1 29.957031,64.273438 6,6 0 0 0 30,64 6,6 0 0 0 24,58 Z m 20,0 a 6,6 0 0 0 -6,6 6,6 0 0 0 0.07813,0.501953 A 6,6 0 0 1 44,59 6,6 0 0 1 49.957031,64.273438 6,6 0 0 0 50,64 6,6 0 0 0 44,58 Z m 20,0 a 6,6 0 0 0 -6,6 6,6 0 0 0 0.07813,0.501953 A 6,6 0 0 1 64,59 6,6 0 0 1 69.957031,64.273438 6,6 0 0 0 70,64 6,6 0 0 0 64,58 Z m 20,0 a 6,6 0 0 0 -6,6 6,6 0 0 0 0.07813,0.501953 A 6,6 0 0 1 84,59 6,6 0 0 1 89.957031,64.273438 6,6 0 0 0 90,64 6,6 0 0 0 84,58 Z m 20,0 a 6,6 0 0 0 -6,6 6,6 0 0 0 0.07813,0.501953 A 6,6 0 0 1 104,59 6,6 0 0 1 109.95703,64.273438 6,6 0 0 0 110,64 6,6 0 0 0 104,58 Z M 40,80 c -2.21599,0 -4,1.784014 -4,4 v 1 c 0,-2.215986 1.78401,-4 4,-4 h 48 c 2.215986,0 4,1.784014 4,4 v -1 c 0,-2.215986 -1.784014,-4 -4,-4 z" />
  <path
     id="rect1035"
     style="opacity:0.2;fill:#ffffff;stroke-width:8;stroke-linecap:round;stroke-linejoin:round"
     d="m 16,26 c -4.431987,0 -8,3.568014 -8,8 v 1 c 0,-4.431996 3.568004,-8 8,-8 h 96 c 4.432,0 8,3.568004 8,8 v -1 c 0,-4.431986 -3.56802,-8 -8,-8 z"
     sodipodi:nodetypes="sscsscsss" />
</svg>
