<?xml version="1.0" encoding="UTF-8" standalone="no"?>
<!-- Created with Inkscape (http://www.inkscape.org/) -->

<svg
   width="16"
   height="16"
   viewBox="0 0 16 16"
   version="1.1"
   id="svg5"
   sodipodi:docname="system-reboot.svg"
   inkscape:version="1.2.1 (9c6d41e410, 2022-07-14)"
   xmlns:inkscape="http://www.inkscape.org/namespaces/inkscape"
   xmlns:sodipodi="http://sodipodi.sourceforge.net/DTD/sodipodi-0.dtd"
   xmlns:xlink="http://www.w3.org/1999/xlink"
   xmlns="http://www.w3.org/2000/svg"
   xmlns:svg="http://www.w3.org/2000/svg">
  <sodipodi:namedview
     id="namedview7"
     pagecolor="#ffffff"
     bordercolor="#666666"
     borderopacity="1.0"
     inkscape:showpageshadow="2"
     inkscape:pageopacity="0.0"
     inkscape:pagecheckerboard="0"
     inkscape:deskcolor="#d1d1d1"
     inkscape:document-units="px"
     showgrid="false"
     inkscape:zoom="12.34375"
     inkscape:cx="7.6556962"
     inkscape:cy="7.7367089"
     inkscape:window-width="1920"
     inkscape:window-height="1007"
     inkscape:window-x="0"
     inkscape:window-y="0"
     inkscape:window-maximized="1"
     inkscape:current-layer="svg5" />
  <defs
     id="defs2">
    <linearGradient
       inkscape:collect="always"
       xlink:href="#linearGradient1252"
       id="linearGradient19638"
       x1="13"
       y1="16"
       x2="3"
       y2="0"
       gradientUnits="userSpaceOnUse" />
    <linearGradient
       inkscape:collect="always"
       id="linearGradient1252">
      <stop
         style="stop-color:#6daa24;stop-opacity:1;"
         offset="0"
         id="stop1248" />
      <stop
         style="stop-color:#b8df8a;stop-opacity:1;"
         offset="1"
         id="stop1250" />
    </linearGradient>
  </defs>
  <rect
     style="fill:url(#linearGradient19638);fill-opacity:1.0;stroke:none"
     id="rect184"
     width="15"
     height="15"
     x="0.5"
     y="0.5"
     ry="2.5" />
  <path
     d="m 8.01,4 c 1.0152,0 2.0104,0.30481 2.86,0.9 0.2716,0.19 0.33,0.55842 0.14,0.83 C 10.8204,6.00162 10.4512,6.07039 10.18,5.88 9.5236,5.42038 8.7552,5.19281 7.97,5.2 7.8572,5.2 7.75,5.2 7.64,5.21 7.6064,5.213 7.5736,5.2258 7.54,5.23 7.4496,5.2411 7.358,5.2527 7.27,5.27 7.2308,5.278 7.188,5.2811 7.15,5.29 7.0632,5.3096 6.9744,5.3344 6.89,5.36 6.8632,5.369 6.8368,5.3812 6.81,5.39 6.7136,5.4215 6.62319,5.4512 6.52999,5.49 c -0.01,0.004 -0.0208,0.006 -0.03,0.01 -0.5592,0.24038 -1.0472,0.61681 -1.43001,1.08 -0.003,0.004 -0.008,0.007 -0.01,0.01 -0.53841,0.65558 -0.8596,1.48716 -0.85999,2.40001 h 0.99999 l -1.59999,2.4 -1.60001,-2.4 h 1 c 4e-4,-1.04881 0.3256,-2.01519 0.88,-2.82 0.008,-0.0138 0.0108,-0.0273 0.02,-0.04 0.0688,-0.0984 0.1452,-0.188 0.22,-0.28 0.009,-0.0111 0.0208,-0.0289 0.03,-0.04 0.5072,-0.61562 1.13799,-1.08923 1.86,-1.4 0.02,-0.009 0.04,-0.0215 0.06,-0.03 0.1152,-0.0476 0.2312,-0.0904 0.35,-0.13 0.0428,-0.0142 0.0864,-0.0269 0.13,-0.04 0.10359,-0.0315 0.21399,-0.0556 0.32,-0.08 0.0584,-0.0135 0.11079,-0.0285 0.16999,-0.04 0.0292,-0.005 0.0612,-0.015 0.09,-0.02 0.0792,-0.0139 0.1608,-0.0196 0.24,-0.03 0.0548,-0.007 0.1048,-0.0147 0.16,-0.02 0.13281,-0.0123 0.268,-0.0177 0.4,-0.02 h 0.07 0.01 z M 12.39999,6.6 14,9 h -1 c 0,1.052 -0.3328,2.02362 -0.89,2.83 -0.007,0.0111 -0.0123,0.0189 -0.02,0.03 -0.0576,0.0824 -0.11801,0.162 -0.18,0.24 -0.0232,0.0296 -0.046,0.0612 -0.07,0.09 -0.0912,0.11077 -0.1904,0.20838 -0.29,0.31 -0.01,0.01 -0.0108,0.0207 -0.02,0.03 -0.3344,0.33477 -0.7188,0.62438 -1.13,0.85 -0.0108,0.007 -0.0183,0.0138 -0.03,0.02 -0.1184,0.0636 -0.2364,0.11562 -0.36,0.17 -0.0309,0.0131 -0.0688,0.0265 -0.1,0.04 -0.1056,0.0436 -0.2108,0.0836 -0.32,0.12 -0.0516,0.0177 -0.0976,0.0339 -0.15,0.05 -0.0956,0.0285 -0.2016,0.0568 -0.3,0.08 -0.0652,0.015 -0.1236,0.0273 -0.19001,0.04 -0.0276,0.005 -0.0528,0.0153 -0.08,0.02 -0.0928,0.0161 -0.18721,0.0289 -0.28,0.04 -0.0336,0.003 -0.0664,0.007 -0.1,0.01 C 8.32318,13.9861 8.15599,14 7.98999,14 6.9736,14 5.9808,13.686 5.13,13.09 4.8588,12.89962 4.79,12.52157 4.98,12.24999 5.1704,11.978 5.54919,11.91962 5.82,12.11 c 0.66119,0.46319 1.42919,0.69077 2.21999,0.68 0.1044,0 0.2076,0 0.31,-0.01 0.042,-0.004 0.088,-0.015 0.13,-0.02 0.0808,-0.0108 0.16121,-0.0246 0.24,-0.04 0.0484,-0.009 0.0924,-0.0189 0.14,-0.03 0.0772,-0.0181 0.1548,-0.0377 0.23001,-0.06 0.0363,-0.0112 0.074,-0.0181 0.10998,-0.03 0.0868,-0.0292 0.176,-0.0648 0.26,-0.1 0.0192,-0.008 0.0412,-0.0116 0.06,-0.02 0.0984,-0.0432 0.186,-0.0892 0.28001,-0.14001 0.004,-0.004 0.0156,-0.008 0.02,-0.01 0.318,-0.17478 0.6048,-0.39523 0.86,-0.65 l 0.01,-0.01 c 0.0792,-0.0795 0.15802,-0.16319 0.23001,-0.25 0.0152,-0.0184 0.0348,-0.0412 0.05,-0.06 0.51961,-0.65 0.83,-1.46523 0.83,-2.36 h -0.99999 l 1.59999,-2.4 z"
     style="display:inline;fill:#000000;fill-opacity:1;fill-rule:nonzero;stroke:none;enable-background:new;opacity:0.2"
     id="path615" />
  <path
     d="m 8.01001,3 c 1.0152,0 2.0104,0.30481 2.86,0.9 0.2716,0.19 0.33,0.55842 0.14,0.83 -0.1896,0.27162 -0.5588,0.34039 -0.83,0.15 -0.6564,-0.45962 -1.4248,-0.68719 -2.21,-0.68 -0.1128,0 -0.22,0 -0.33,0.01 -0.0336,0.003 -0.0664,0.0158 -0.1,0.02 -0.0904,0.0111 -0.182,0.0227 -0.27,0.04 -0.0392,0.008 -0.082,0.0111 -0.12,0.02 -0.0868,0.0196 -0.1756,0.0444 -0.26,0.07 -0.0268,0.009 -0.0532,0.0212 -0.08,0.03 C 6.71361,4.4215 6.6232,4.4512 6.53,4.49 6.52,4.494 6.5092,4.496 6.5,4.5 5.9408,4.74038 5.4528,5.11681 5.06999,5.58 5.06699,5.584 5.06199,5.587 5.05999,5.59 4.52158,6.24558 4.20039,7.07716 4.2,7.99001 h 0.99999 l -1.59999,2.4 -1.60001,-2.4 h 1 c 4e-4,-1.04881 0.3256,-2.01519 0.88,-2.82 0.008,-0.0138 0.0108,-0.0273 0.02,-0.04 0.0688,-0.0984 0.1452,-0.188 0.22,-0.28 0.009,-0.0111 0.0208,-0.0289 0.03,-0.04 0.5072,-0.61562 1.13799,-1.08923 1.86,-1.4 0.02,-0.009 0.04,-0.0215 0.06,-0.03 0.1152,-0.0476 0.2312,-0.0904 0.35,-0.13 0.0428,-0.0142 0.0864,-0.0269 0.13,-0.04 0.10359,-0.0315 0.21399,-0.0556 0.32,-0.08 0.0584,-0.0135 0.11079,-0.0285 0.16999,-0.04 0.0292,-0.005 0.0612,-0.015 0.09,-0.02 0.0792,-0.0139 0.1608,-0.0196 0.24,-0.03 0.0548,-0.007 0.1048,-0.0147 0.16,-0.02 0.13281,-0.0123 0.268,-0.0177 0.4,-0.02 h 0.07 0.01 z M 12.4,5.6 14.00001,8 h -1 c 0,1.052 -0.3328,2.02362 -0.89,2.83 -0.007,0.0111 -0.0123,0.0189 -0.02,0.03 -0.0576,0.0824 -0.11801,0.162 -0.18,0.24 -0.0232,0.0296 -0.046,0.0612 -0.07,0.09 -0.0912,0.11077 -0.1904,0.20838 -0.29,0.31 -0.01,0.01 -0.0108,0.0207 -0.02,0.03 -0.3344,0.33477 -0.7188,0.62438 -1.13,0.85 -0.0108,0.007 -0.0183,0.0138 -0.03,0.02 -0.1184,0.0636 -0.2364,0.11562 -0.36,0.17 -0.0309,0.0131 -0.0688,0.0265 -0.1,0.04 -0.1056,0.0436 -0.2108,0.0836 -0.32,0.12 -0.0516,0.0177 -0.0976,0.0339 -0.15,0.05 -0.0956,0.0285 -0.2016,0.0568 -0.3,0.08 C 9.07481,12.875 9.01641,12.8873 8.95,12.9 8.9224,12.905 8.8972,12.9153 8.87,12.92 8.7772,12.9361 8.68279,12.9489 8.59,12.96 8.5564,12.963 8.5236,12.967 8.49,12.97 8.32319,12.9861 8.156,13 7.99,13 6.97361,13 5.98081,12.686 5.13001,12.09 c -0.2712,-0.19038 -0.34,-0.56843 -0.15,-0.84001 0.1904,-0.27199 0.56919,-0.33037 0.84,-0.13999 0.66119,0.46319 1.42919,0.69077 2.21999,0.68 0.1044,0 0.2076,0 0.31,-0.01 0.042,-0.004 0.088,-0.015 0.13,-0.02 0.0808,-0.0108 0.16121,-0.0246 0.24,-0.04 0.0484,-0.009 0.0924,-0.0189 0.14,-0.03 0.0772,-0.0181 0.1548,-0.0377 0.23001,-0.06 0.0363,-0.0112 0.074,-0.0181 0.10998,-0.03 0.0868,-0.0292 0.176,-0.0648 0.26,-0.1 0.0192,-0.008 0.0412,-0.0116 0.06,-0.02 0.0984,-0.0432 0.186,-0.0892 0.28001,-0.14001 0.004,-0.004 0.0156,-0.008 0.02,-0.01 0.318,-0.17478 0.6048,-0.39523 0.86,-0.65 l 0.01,-0.01 c 0.0792,-0.0795 0.15802,-0.16319 0.23001,-0.25 0.0152,-0.0184 0.0348,-0.0412 0.05,-0.06 0.51961,-0.65 0.83,-1.46523 0.83,-2.36 h -0.99999 l 1.59999,-2.4 z"
     style="display:inline;fill:#ffffff;fill-opacity:1;fill-rule:nonzero;stroke:none;enable-background:new"
     id="path429"
     sodipodi:nodetypes="cccccccccccccccccccccccccccccccccccccccccccccccccccccccccscccccccccccccccccccccc" />
  <path
     id="rect2630"
     style="opacity:0.3;fill:#ffffff;fill-opacity:1"
     d="M 3,1 C 1.8920011,1 1,1.8920011 1,3 V 4 C 1,2.8920011 1.8920011,2 3,2 h 10 c 1.107999,0 2,0.8920011 2,2 V 3 C 15,1.8920011 14.107999,1 13,1 Z"
     sodipodi:nodetypes="sscsscsss" />
  <path
     d="M 3,15 C 1.8920011,15 1,14.107999 1,13 v -1 c 0,1.107999 0.8920011,2 2,2 h 10 c 1.107999,0 2,-0.892001 2,-2 v 1 c 0,1.107999 -0.892001,2 -2,2 z"
     style="opacity:0.3;fill:#ffffff;fill-opacity:1"
     id="path19648" />
  <path
     id="rect899"
     style="opacity:0.5;fill:#000000;stroke:none"
     d="M 3,0 C 1.3380017,0 0,1.3380017 0,3 v 10 c 0,1.661998 1.3380017,3 3,3 h 10 c 1.661998,0 3,-1.338002 3,-3 V 3 C 16,1.3380017 14.661998,0 13,0 Z m 0,1 h 10 c 1.107999,0 2,0.8920011 2,2 v 10 c 0,1.107999 -0.892001,2 -2,2 H 3 C 1.8920011,15 1,14.107999 1,13 V 3 C 1,1.8920011 1.8920011,1 3,1 Z" />
</svg>
