<?xml version="1.0" encoding="UTF-8" standalone="no"?>
<!-- Created with Inkscape (http://www.inkscape.org/) -->

<svg
   width="16"
   height="16"
   viewBox="0 0 16 16"
   version="1.1"
   id="svg5"
   sodipodi:docname="system-shutdown.svg"
   inkscape:version="1.2.1 (9c6d41e410, 2022-07-14)"
   xmlns:inkscape="http://www.inkscape.org/namespaces/inkscape"
   xmlns:sodipodi="http://sodipodi.sourceforge.net/DTD/sodipodi-0.dtd"
   xmlns:xlink="http://www.w3.org/1999/xlink"
   xmlns="http://www.w3.org/2000/svg"
   xmlns:svg="http://www.w3.org/2000/svg">
  <sodipodi:namedview
     id="namedview7"
     pagecolor="#ffffff"
     bordercolor="#666666"
     borderopacity="1.0"
     inkscape:showpageshadow="2"
     inkscape:pageopacity="0.0"
     inkscape:pagecheckerboard="0"
     inkscape:deskcolor="#d1d1d1"
     inkscape:document-units="px"
     showgrid="false"
     inkscape:zoom="17.567184"
     inkscape:cx="1.9923512"
     inkscape:cy="6.8593805"
     inkscape:window-width="1920"
     inkscape:window-height="1007"
     inkscape:window-x="0"
     inkscape:window-y="0"
     inkscape:window-maximized="1"
     inkscape:current-layer="svg5" />
  <defs
     id="defs2">
    <linearGradient
       inkscape:collect="always"
       xlink:href="#linearGradient5312"
       id="linearGradient19638"
       x1="13"
       y1="16"
       x2="3"
       y2="0"
       gradientUnits="userSpaceOnUse" />
    <linearGradient
       inkscape:collect="always"
       id="linearGradient5312">
      <stop
         style="stop-color:#c72222;stop-opacity:1;"
         offset="0"
         id="stop5308" />
      <stop
         style="stop-color:#cf5b5b;stop-opacity:1;"
         offset="1"
         id="stop5310" />
    </linearGradient>
  </defs>
  <rect
     style="fill:url(#linearGradient19638);fill-opacity:1.0;stroke:none"
     id="rect184"
     width="15"
     height="15"
     x="0.5"
     y="0.5"
     ry="2.5" />
  <path
     d="m 8.0120096,3.978 c -0.40462,0 -0.75,0.3035 -0.75,0.6875 v 3.46875 c 0,0.38402 0.34538,0.6875 0.75,0.6875 0.40462,0 0.71875,-0.30348 0.71875,-0.6875 V 4.6655 c 0,-0.38401 -0.31413,-0.6875 -0.71875,-0.6875 z m -2,1.34375 c -0.10157,0.0111 -0.19565,0.0693 -0.28125,0.125 -0.69294,0.39967 -1.28574,0.96452 -1.6875,1.65625 -0.79091,1.36178 -0.76893,2.98961 -0.125,4.312501 8.2e-4,0.0108 -10e-4,0.0205 0,0.0312 0.0109,0.0871 0.0465,0.17486 0.0937,0.25 0.25852,0.44512 0.60004,0.80336 0.96875,1.125 0.2329,0.20317 0.48519,0.38074 0.75,0.53125 0.20517,0.11661 0.40563,0.22889 0.625,0.3125 0.11323,0.0444 0.22868,0.0903 0.34375,0.125 0.1735,0.0507 0.35296,0.0949 0.53125,0.125 0.0724,0.0125 0.14616,0.0223 0.21875,0.0312 0.0202,0.002 0.0423,-0.002 0.0625,0 0.16688,0.0178 0.33153,0.0319 0.5,0.0312 0.15792,-5.1e-4 0.3123,-0.0145 0.46875,-0.0312 0.021,-0.002 0.0415,0.003 0.0625,0 0.0724,-0.009 0.14691,-0.0191 0.21875,-0.0312 0.17912,-0.0309 0.35486,-0.0718 0.53125,-0.125 0.11822,-0.0345 0.22853,-0.0811 0.34375,-0.125 0.21668,-0.0826 0.4221494,-0.19771 0.6249994,-0.3125 0.26335,-0.14902 0.51804,-0.33023 0.75,-0.53125 0.23037,-0.19963 0.4346,-0.40786 0.625,-0.65625 0.11823,-0.15422 0.24372,-0.29652 0.34375,-0.46875 0.0473,-0.0751 0.0828,-0.16294 0.0937,-0.25 0.001,-0.0107 -8.1e-4,-0.0205 0,-0.0312 0.64394,-1.322891 0.66591,-2.950721 -0.125,-4.312501 -0.40176,-0.69173 -0.99455,-1.25658 -1.6875,-1.65625 -0.0856,-0.0557 -0.17968,-0.1139 -0.2812494,-0.125 -0.29619,-0.0251 -0.6021,0.18403 -0.6875,0.46875 -0.0854,0.28472 0.0514,0.63917 0.3125,0.78125 0.4950094,0.28551 0.9005094,0.69336 1.1874994,1.1875 0.68293,1.17585 0.57392,2.5748 -0.1875,3.593751 -0.2538,0.33965 -0.57679,0.64736 -0.9687494,0.875 -0.17513,0.10172 -0.34753,0.18317 -0.53125,0.25 -0.0308,0.0107 -0.0626,0.0215 -0.0937,0.0312 -0.19723,0.0651 -0.42379,0.0983 -0.625,0.125 -0.12675,0.0168 -0.24833,0.0293 -0.375,0.0312 -0.13711,-8.3e-4 -0.26898,-0.013 -0.40625,-0.0312 -0.21089,-0.028 -0.41861,-0.0548 -0.625,-0.125 -0.20639,-0.0702 -0.42903,-0.16743 -0.625,-0.28125 -0.39195,-0.22764 -0.71495,-0.53535 -0.96875,-0.875 -0.76141,-1.018951 -0.87043,-2.417901 -0.1875,-3.593751 0.28699,-0.49414 0.6925,-0.90199 1.1875,-1.1875 0.26112,-0.14208 0.39792,-0.49653 0.3125,-0.78125 -0.0854,-0.28472 -0.3913,-0.49387 -0.6875,-0.46875 z"
     style="color:#000000;font-style:normal;font-variant:normal;font-weight:normal;font-stretch:normal;font-size:medium;line-height:normal;font-family:Sans;-inkscape-font-specification:Sans;text-indent:0;text-align:start;text-decoration:none;text-decoration-line:none;letter-spacing:normal;word-spacing:normal;text-transform:none;writing-mode:lr-tb;direction:ltr;baseline-shift:baseline;text-anchor:start;display:inline;overflow:visible;visibility:visible;fill:#000000;fill-opacity:1;stroke:none;stroke-width:2.33333;marker:none;enable-background:new;opacity:0.2"
     id="path9908" />
  <path
     d="m 8.0120096,2.978 c -0.40462,0 -0.75,0.3035 -0.75,0.6875 v 3.46875 c 0,0.38402 0.34538,0.6875 0.75,0.6875 0.40462,0 0.71875,-0.30348 0.71875,-0.6875 V 3.6655 c 0,-0.38401 -0.31413,-0.6875 -0.71875,-0.6875 z m -2,1.34375 c -0.10157,0.0111 -0.19565,0.0693 -0.28125,0.125 -0.69294,0.39967 -1.28574,0.96452 -1.6875,1.65625 -0.79091,1.36178 -0.76893,2.98961 -0.125,4.312501 8.2e-4,0.0108 -10e-4,0.0205 0,0.0312 0.0109,0.0871 0.0465,0.17486 0.0937,0.25 0.25852,0.44512 0.60004,0.80336 0.96875,1.125 0.2329,0.20317 0.48519,0.38074 0.75,0.53125 0.20517,0.11661 0.40563,0.22889 0.625,0.3125 0.11323,0.0444 0.22868,0.0903 0.34375,0.125 0.1735,0.0507 0.35296,0.0949 0.53125,0.125 0.0724,0.0125 0.14616,0.0223 0.21875,0.0312 0.0202,0.002 0.0423,-0.002 0.0625,0 0.16688,0.0178 0.33153,0.0319 0.5,0.0312 0.15792,-5.1e-4 0.3123,-0.0145 0.46875,-0.0312 0.021,-0.002 0.0415,0.003 0.0625,0 0.0724,-0.009 0.14691,-0.0191 0.21875,-0.0312 0.17912,-0.0309 0.35486,-0.0718 0.53125,-0.125 0.11822,-0.0345 0.22853,-0.0811 0.34375,-0.125 0.21668,-0.0826 0.4221494,-0.19771 0.6249994,-0.3125 0.26335,-0.14902 0.51804,-0.33023 0.75,-0.53125 0.23037,-0.19963 0.4346,-0.40786 0.625,-0.65625 0.11823,-0.15422 0.24372,-0.29652 0.34375,-0.46875 0.0473,-0.0751 0.0828,-0.16294 0.0937,-0.25 0.001,-0.0107 -8.1e-4,-0.0205 0,-0.0312 0.64394,-1.322891 0.66591,-2.950721 -0.125,-4.312501 -0.40176,-0.69173 -0.99455,-1.25658 -1.6875,-1.65625 -0.0856,-0.0557 -0.17968,-0.1139 -0.2812494,-0.125 -0.29619,-0.0251 -0.6021,0.18403 -0.6875,0.46875 -0.0854,0.28472 0.0514,0.63917 0.3125,0.78125 0.4950094,0.28551 0.9005094,0.69336 1.1874994,1.1875 0.68293,1.17585 0.57392,2.5748 -0.1875,3.593751 -0.2538,0.33965 -0.57679,0.64736 -0.9687494,0.875 -0.17513,0.10172 -0.34753,0.18317 -0.53125,0.25 -0.0308,0.0107 -0.0626,0.0215 -0.0937,0.0312 -0.19723,0.0651 -0.42379,0.0983 -0.625,0.125 -0.12675,0.0168 -0.24833,0.0293 -0.375,0.0312 -0.13711,-8.3e-4 -0.26898,-0.013 -0.40625,-0.0312 -0.21089,-0.028 -0.41861,-0.0548 -0.625,-0.125 -0.20639,-0.0702 -0.42903,-0.16743 -0.625,-0.28125 -0.39195,-0.22764 -0.71495,-0.53535 -0.96875,-0.875 C 4.6255496,9.334 4.5165296,7.93505 5.1994596,6.7592 c 0.28699,-0.49414 0.6925,-0.90199 1.1875,-1.1875 0.26112,-0.14208 0.39792,-0.49653 0.3125,-0.78125 -0.0854,-0.28472 -0.3913,-0.49387 -0.6875,-0.46875 z"
     style="color:#000000;font-style:normal;font-variant:normal;font-weight:normal;font-stretch:normal;font-size:medium;line-height:normal;font-family:Sans;-inkscape-font-specification:Sans;text-indent:0;text-align:start;text-decoration:none;text-decoration-line:none;letter-spacing:normal;word-spacing:normal;text-transform:none;writing-mode:lr-tb;direction:ltr;baseline-shift:baseline;text-anchor:start;display:inline;overflow:visible;visibility:visible;fill:#ffffff;fill-opacity:1;stroke:none;stroke-width:2.33333;marker:none;enable-background:new"
     id="path6374"
     sodipodi:nodetypes="sssssssccccccssccccccccccccccccccccscccccccccsccccccc" />
  <path
     id="rect2630"
     style="opacity:0.3;fill:#ffffff;fill-opacity:1"
     d="M 3,1 C 1.8920011,1 1,1.8920011 1,3 V 4 C 1,2.8920011 1.8920011,2 3,2 h 10 c 1.107999,0 2,0.8920011 2,2 V 3 C 15,1.8920011 14.107999,1 13,1 Z"
     sodipodi:nodetypes="sscsscsss" />
  <path
     d="M 3,15 C 1.8920011,15 1,14.107999 1,13 v -1 c 0,1.107999 0.8920011,2 2,2 h 10 c 1.107999,0 2,-0.892001 2,-2 v 1 c 0,1.107999 -0.892001,2 -2,2 z"
     style="opacity:0.3;fill:#ffffff;fill-opacity:1"
     id="path19648" />
  <path
     id="rect899"
     style="opacity:0.5;fill:#000000;stroke:none"
     d="M 3,0 C 1.3380017,0 0,1.3380017 0,3 v 10 c 0,1.661998 1.3380017,3 3,3 h 10 c 1.661998,0 3,-1.338002 3,-3 V 3 C 16,1.3380017 14.661998,0 13,0 Z m 0,1 h 10 c 1.107999,0 2,0.8920011 2,2 v 10 c 0,1.107999 -0.892001,2 -2,2 H 3 C 1.8920011,15 1,14.107999 1,13 V 3 C 1,1.8920011 1.8920011,1 3,1 Z" />
</svg>
