<?xml version="1.0" encoding="UTF-8" standalone="no"?>
<!-- Created with Inkscape (http://www.inkscape.org/) -->

<svg
   width="48"
   height="48"
   viewBox="0 0 48 48"
   version="1.1"
   id="svg5"
   inkscape:version="1.2.1 (9c6d41e410, 2022-07-14)"
   sodipodi:docname="folder-blue-games.svg"
   xmlns:inkscape="http://www.inkscape.org/namespaces/inkscape"
   xmlns:sodipodi="http://sodipodi.sourceforge.net/DTD/sodipodi-0.dtd"
   xmlns:xlink="http://www.w3.org/1999/xlink"
   xmlns="http://www.w3.org/2000/svg"
   xmlns:svg="http://www.w3.org/2000/svg">
  <sodipodi:namedview
     id="namedview7"
     pagecolor="#ffffff"
     bordercolor="#000000"
     borderopacity="0.25"
     inkscape:showpageshadow="2"
     inkscape:pageopacity="0.0"
     inkscape:pagecheckerboard="0"
     inkscape:deskcolor="#d1d1d1"
     inkscape:document-units="px"
     showgrid="false"
     inkscape:zoom="16.5625"
     inkscape:cx="24"
     inkscape:cy="24"
     inkscape:window-width="1920"
     inkscape:window-height="1007"
     inkscape:window-x="0"
     inkscape:window-y="0"
     inkscape:window-maximized="1"
     inkscape:current-layer="svg5" />
  <defs
     id="defs2">
    <linearGradient
       inkscape:collect="always"
       id="linearGradient3155">
      <stop
         style="stop-color:#2c89b7;stop-opacity:1;"
         offset="0"
         id="stop3151" />
      <stop
         style="stop-color:#2077a5;stop-opacity:1;"
         offset="1"
         id="stop3153" />
    </linearGradient>
    <linearGradient
       inkscape:collect="always"
       id="linearGradient3147">
      <stop
         style="stop-color:#36aded;stop-opacity:1;"
         offset="0"
         id="stop3143" />
      <stop
         style="stop-color:#30c7f3;stop-opacity:1;"
         offset="1"
         id="stop3145" />
    </linearGradient>
    <linearGradient
       inkscape:collect="always"
       xlink:href="#linearGradient3147"
       id="linearGradient3149"
       x1="56"
       y1="56.333332"
       x2="32"
       y2="15"
       gradientUnits="userSpaceOnUse"
       gradientTransform="matrix(0.75,0,0,0.75,0,-0.25)" />
    <linearGradient
       inkscape:collect="always"
       xlink:href="#linearGradient3155"
       id="linearGradient3157"
       x1="16"
       y1="7"
       x2="16"
       y2="29.666666"
       gradientUnits="userSpaceOnUse"
       gradientTransform="matrix(0.75,0,0,0.75,0,0.75)" />
  </defs>
  <path
     d="M 6,7 C 4.3380015,7 3,8.3380015 3,10 v 30 c 0,1.661998 1.3380015,3 3,3 h 36 c 1.661998,0 3,-1.338002 3,-3 V 15 c 0,-1.661998 -1.338002,-3 -3,-3 H 24 L 21,8.5 C 20.18215,7.581613 19.661998,7 18,7 Z"
     style="opacity:0.3;fill:#000000;stroke-width:1.5"
     id="path1016"
     sodipodi:nodetypes="ssssssssccss" />
  <path
     id="rect184"
     style="fill:url(#linearGradient3157);fill-opacity:1;stroke-width:1.5"
     d="M 6,6 C 4.3380016,6 3,7.3380012 3,9 v 30 c 0,1.661998 1.3380016,3 3,3 h 36 c 1.661998,0 3,-1.338002 3,-3 V 14 c 0,-1.661998 -1.338002,-3 -3,-3 H 24 L 21,7.5 C 20.163517,6.4236064 19.661998,6 18,6 Z"
     sodipodi:nodetypes="sccsssssccss" />
  <path
     id="rect1043"
     style="fill:url(#linearGradient3149);fill-opacity:1;stroke-width:1.5"
     d="m 24,11 -3,3.5 C 19.999791,15.420964 19.661997,16 18,16 H 6 c -1.6568526,0 -3,1.343147 -3,3 v 20 c 0,1.661996 1.338005,3 3,3 h 36 c 1.661996,0 3,-1.338004 3,-3 V 14 c 0,-1.661995 -1.338004,-3 -3,-3 z"
     sodipodi:nodetypes="ccsssssssssc" />
  <path
     id="path3081"
     style="opacity:0.2;fill:#ffffff;stroke-width:1.5"
     d="m 24,11 -3,3.5 C 19.999793,15.420963 19.661995,16 18,16 H 6 c -1.6568493,0 -3,1.34315 -3,3 v 1 c 0,-1.65685 1.3431507,-3 3,-3 h 12 c 1.661995,0 1.999793,-0.579037 3,-1.5 L 24,12 h 18 c 1.661992,0 3,1.338008 3,3 v -1 c 0,-1.661992 -1.338008,-3 -3,-3 z" />
  <path
     id="path5744"
     style="color:#727272;opacity:0.6;fill:#ffffff;stroke:none"
     d="M 29.296875 21 C 28.995635 21.0012 28.717578 21.099745 28.455078 21.287109 C 27.7926 21.764294 26.420308 22.261719 24.007812 22.261719 C 21.582918 22.261719 20.20742 21.764284 19.544922 21.287109 C 19.282432 21.099731 19.032422 21.011719 18.732422 21.011719 C 18.432432 21.011719 18.08122 21.099737 17.71875 21.287109 C 16.431252 21.976648 15.232031 24.203085 14.582031 27.107422 C 14.032053 29.585732 13.83126 32.95131 14.15625 34.306641 C 14.44374 35.483385 14.944513 36 15.832031 36 C 17.132029 35.97502 18.768361 34.518873 19.818359 32.552734 C 20.568339 31.463433 22.318363 30.974224 24.005859 31.025391 C 25.680857 30.962931 27.431741 31.463423 28.181641 32.552734 C 29.231639 34.518873 30.869243 35.975016 32.181641 36 C 33.056619 36 33.55625 35.483345 33.84375 34.306641 C 34.16874 32.95131 33.967957 29.585732 33.417969 27.107422 C 32.767989 24.203085 31.568748 21.977322 30.28125 21.289062 C 29.92501 21.094189 29.599365 20.999455 29.296875 21.001953 L 29.296875 21 z M 29.294922 22.001953 L 29.304688 22.001953 C 29.392066 22.001232 29.549239 22.028413 29.800781 22.166016 L 29.804688 22.167969 L 29.810547 22.169922 C 30.535042 22.557215 31.824681 24.571019 32.441406 27.324219 C 32.701207 28.494906 32.885818 29.917407 32.960938 31.1875 C 33.036056 32.457593 32.978964 33.624349 32.871094 34.074219 C 32.751354 34.560736 32.599924 34.810433 32.517578 34.894531 C 32.437738 34.976071 32.410801 34.994677 32.193359 34.996094 C 31.897909 34.988594 31.331883 34.764941 30.740234 34.25 C 30.146053 33.732853 29.536114 32.965223 29.064453 32.082031 L 29.037109 32.03125 L 29.005859 31.984375 C 27.929874 30.421387 25.887767 29.96589 23.996094 30.03125 C 22.106602 29.98129 20.071058 30.423052 18.996094 31.984375 L 18.962891 32.03125 L 18.9375 32.082031 C 18.465913 32.965084 17.855235 33.732513 17.261719 34.25 C 16.671377 34.764718 16.106618 34.988291 15.820312 34.996094 C 15.593603 34.994594 15.562372 34.973764 15.482422 34.892578 C 15.400082 34.808968 15.248638 34.560736 15.128906 34.074219 C 15.021034 33.624352 14.963938 32.457594 15.039062 31.1875 C 15.114182 29.917406 15.298797 28.494909 15.558594 27.324219 C 16.174342 24.575462 17.461248 22.56705 18.1875 22.173828 C 18.423329 22.054217 18.628562 22.011719 18.732422 22.011719 C 18.838124 22.011719 18.826992 22.003124 18.964844 22.101562 C 19.89284 22.768654 21.448917 23.261719 24.007812 23.261719 C 26.557691 23.261719 28.112405 22.767083 29.039062 22.099609 C 29.157645 22.015789 29.214102 22.002783 29.294922 22.001953 z M 19 25 L 19 26 L 18 26 L 18 27 L 19 27 L 19 28 L 20 28 L 20 27 L 21 27 L 21 26 L 20 26 L 20 25 L 19 25 z M 28.5 25 C 28.223858 25 28 25.223858 28 25.5 C 28 25.776142 28.223858 26 28.5 26 C 28.776142 26 29 25.776142 29 25.5 C 29 25.223858 28.776142 25 28.5 25 z M 27.5 26 C 27.223858 26 27 26.223858 27 26.5 C 27 26.776142 27.223858 27 27.5 27 C 27.776142 27 28 26.776142 28 26.5 C 28 26.223858 27.776142 26 27.5 26 z M 29.5 26 C 29.223858 26 29 26.223858 29 26.5 C 29 26.776142 29.223858 27 29.5 27 C 29.776142 27 30 26.776142 30 26.5 C 30 26.223858 29.776142 26 29.5 26 z M 28.5 27 C 28.223858 27 28 27.223858 28 27.5 C 28 27.776142 28.223858 28 28.5 28 C 28.776142 28 29 27.776142 29 27.5 C 29 27.223858 28.776142 27 28.5 27 z " />
</svg>
