<?xml version="1.0" encoding="UTF-8" standalone="no"?>
<svg
   version="1.1"
   viewBox="0 0 48 48"
   id="svg69"
   sodipodi:docname="user-trash.svg"
   inkscape:version="1.2.1 (9c6d41e410, 2022-07-14)"
   width="48"
   height="48"
   xmlns:inkscape="http://www.inkscape.org/namespaces/inkscape"
   xmlns:sodipodi="http://sodipodi.sourceforge.net/DTD/sodipodi-0.dtd"
   xmlns:xlink="http://www.w3.org/1999/xlink"
   xmlns="http://www.w3.org/2000/svg"
   xmlns:svg="http://www.w3.org/2000/svg">
  <sodipodi:namedview
     id="namedview71"
     pagecolor="#ffffff"
     bordercolor="#666666"
     borderopacity="1.0"
     inkscape:pageshadow="2"
     inkscape:pageopacity="0.0"
     inkscape:pagecheckerboard="0"
     showgrid="false"
     inkscape:zoom="16.666667"
     inkscape:cx="24"
     inkscape:cy="24"
     inkscape:window-width="1920"
     inkscape:window-height="1012"
     inkscape:window-x="0"
     inkscape:window-y="0"
     inkscape:window-maximized="1"
     inkscape:current-layer="svg69"
     inkscape:showpageshadow="2"
     inkscape:deskcolor="#d1d1d1" />
  <defs
     id="defs12">
    <style
       type="text/css"
       id="current-color-scheme">
      .ColorScheme-Text {
        color:#31363b;
      }
      .ColorScheme-Highlight {
        color:#3daee9;
      }
    </style>
    <radialGradient
       id="d"
       cx="20.571428"
       cy="8.5"
       r="4"
       gradientTransform="matrix(5.3008534,-6.8149882e-8,3.8533595e-8,1.5,-85.008857,1.2500027)"
       gradientUnits="userSpaceOnUse">
      <stop
         stop-color="#4f575f"
         stop-opacity=".25098041"
         offset="0"
         id="stop2" />
      <stop
         stop-color="#8a939a"
         offset="1"
         id="stop4" />
    </radialGradient>
    <linearGradient
       id="l"
       x1="390.57101"
       x2="405.57101"
       y1="521.79797"
       y2="539.25256"
       gradientTransform="matrix(2,0,0,1.8333333,-770.142,-944.62968)"
       gradientUnits="userSpaceOnUse">
      <stop
         stop-color="#bdc3c7"
         offset="0"
         id="stop7" />
      <stop
         stop-color="#8a9696"
         offset="1"
         id="stop9" />
    </linearGradient>
  </defs>
  <linearGradient
     id="a">
    <stop
       stop-color="#4f575f"
       stop-opacity=".4"
       offset="0"
       id="stop14" />
    <stop
       stop-color="#4f575f"
       stop-opacity=".6"
       offset=".5"
       id="stop16" />
    <stop
       stop-color="#4f575f"
       stop-opacity=".4"
       offset="1"
       id="stop18" />
  </linearGradient>
  <radialGradient
     id="t"
     cx="16"
     cy="8.5"
     r="4"
     gradientTransform="matrix(2.25,0,0,2,-11,-7)"
     gradientUnits="userSpaceOnUse"
     fx="16"
     fy="8.5">
    <stop
       stop-color="#4f575f"
       stop-opacity=".25"
       offset="0"
       id="stop21" />
    <stop
       stop-color="#9da5ab"
       offset="1"
       id="stop23" />
  </radialGradient>
  <linearGradient
     id="s"
     x1="412.57101"
     x2="412.57101"
     y1="522.79797"
     y2="520.79797"
     gradientTransform="translate(-384.571,-514.798)"
     gradientUnits="userSpaceOnUse">
    <stop
       stop-color="#9da5ab"
       offset="0"
       id="stop26" />
    <stop
       stop-color="#bdc3c7"
       offset="1"
       id="stop28" />
  </linearGradient>
  <linearGradient
     id="r"
     x1="395.57101"
     x2="395.57101"
     y1="520.79797"
     y2="516.79797"
     gradientTransform="translate(-384.571,-514.798)"
     gradientUnits="userSpaceOnUse">
    <stop
       stop-color="#afb0b3"
       offset="0"
       id="stop31" />
    <stop
       stop-color="#bdc3c7"
       offset="1"
       id="stop33" />
  </linearGradient>
  <linearGradient
     id="q"
     x1="390.57101"
     x2="406.57101"
     y1="521.79797"
     y2="537.79797"
     gradientTransform="matrix(1,0,0,0.95454545,-384.571,-490.07991)"
     gradientUnits="userSpaceOnUse">
    <stop
       stop-color="#292c2f"
       offset="0"
       id="stop36" />
    <stop
       stop-opacity="0"
       offset="1"
       id="stop38" />
  </linearGradient>
  <linearGradient
     id="p"
     x1="391.57101"
     x2="394.57101"
     y1="534.79797"
     y2="534.79797"
     gradientTransform="matrix(0.66667,0,0,0.9,-249.047,-463.31817)"
     gradientUnits="userSpaceOnUse"
     xlink:href="#a" />
  <linearGradient
     id="o"
     x1="391.57101"
     x2="394.57101"
     y1="534.79797"
     y2="534.79797"
     gradientTransform="matrix(0.66667,0,0,0.89999994,-254.048,-463.31813)"
     gradientUnits="userSpaceOnUse"
     xlink:href="#a" />
  <linearGradient
     id="n"
     x1="391.57101"
     x2="394.57101"
     y1="534.79797"
     y2="534.79797"
     gradientTransform="matrix(0.66667,0,0,0.9,-243.048,-463.31817)"
     gradientUnits="userSpaceOnUse"
     xlink:href="#a" />
  <linearGradient
     id="m"
     x1="391.57101"
     x2="394.57101"
     y1="534.79797"
     y2="534.79797"
     gradientTransform="matrix(0.66667,0,0,0.9,-238.047,-463.31817)"
     gradientUnits="userSpaceOnUse"
     xlink:href="#a" />
  <path
     id="path45"
     style="fill:url(#l);stroke-width:2"
     d="m 17.999578,5 c -1.108,0 -2,0.892 -2,2 v 3 H 9 c -1.108,0 -2,0.892 -2,2 v 2 h 3 V 42.167968 C 10,43.183632 10.892,44 12,44 h 24 c 1.108,0 2,-0.816368 2,-1.832032 V 14 h 3 v -2 c 0,-1.108 -0.892,-2 -2,-2 H 32.000422 V 7 c 0,-1.108 -0.892,-2 -2,-2 z m 1.464844,3 h 9.071156 c 0.262326,0.01849 0.465495,0.2370239 0.464844,0.5 V 10 H 18.999578 V 8.5 C 18.998927,8.2370239 19.202096,8.0184896 19.464422,8 Z"
     sodipodi:nodetypes="sscssccssssccsscsssccccccc" />
  <path
     d="M 18.5,7 C 18.223,7 18,7.223 18,7.5 v 2.4999997 h 1 V 8.25 C 18.999695,8.1183042 19.101609,8.008955 19.233,8 h 9.535 C 28.898996,8.00946 29.000341,8.1186633 29,8.25 v 1.7499997 h 1 V 7.5 C 30,7.223 29.777,7 29.5,7 Z"
     fill="url(#t)"
     id="path49"
     style="fill:url(#t);stroke-width:1"
     sodipodi:nodetypes="ssccccccccsss" />
  <path
     d="M 7,14 H 41 V 13 H 7.0745422 Z"
     fill="url(#d)"
     stroke-width="1.18893"
     id="path65"
     style="fill:url(#d)" />
  <path
     id="path67"
     style="opacity:0.2;fill:#000000;stroke-width:2"
     d="m 10,41 v 1 c 0,1.107999 0.892001,2 2,2 h 24 c 1.107999,0 2,-0.892001 2,-2 v -1 c 0,1.107999 -0.892001,2 -2,2 H 12 c -1.107999,0 -2,-0.892001 -2,-2 z" />
  <path
     d="M 13.5,16 C 12.55668,16 12,16.761335 12,17.5 v 21 c 0,0.738665 0.538151,1.5 1.5,1.5 0.919785,0 1.5,-0.761335 1.5,-1.5 v -21 C 15,16.761335 14.44908,16 13.5,16 Z m 7,0 C 19.546086,16 19,16.761335 19,17.5 v 21 c 0,0.738665 0.574986,1.5 1.5,1.5 0.858906,0 1.5,-0.761335 1.5,-1.5 v -21 C 22,16.761335 21.452158,16 20.5,16 Z m 7,0 C 26.544775,16 26,16.761335 26,17.5 v 21 c 0,0.738665 0.546156,1.5 1.5,1.5 0.914472,0 1.5,-0.761335 1.5,-1.5 v -21 C 29,16.761335 28.426995,16 27.5,16 Z m 7,0 C 33.536676,16 33,16.761335 33,17.5 v 21 c 0,0.738665 0.478257,1.5 1.5,1.5 1.024723,0 1.5,-0.761335 1.5,-1.5 v -21 C 36,16.761335 35.432145,16 34.5,16 Z"
     style="color:#3daee9;opacity:0.2;fill:#000000;fill-opacity:1;stroke-width:0.707106"
     id="path10592" />
</svg>
