<?xml version="1.0" encoding="UTF-8" standalone="no"?>
<!-- Created with Inkscape (http://www.inkscape.org/) -->

<svg
   width="256"
   height="256"
   viewBox="0 0 256 256"
   version="1.1"
   id="svg5"
   inkscape:version="1.2.1 (9c6d41e410, 2022-07-14)"
   sodipodi:docname="dialog-error.svg"
   xmlns:inkscape="http://www.inkscape.org/namespaces/inkscape"
   xmlns:sodipodi="http://sodipodi.sourceforge.net/DTD/sodipodi-0.dtd"
   xmlns:xlink="http://www.w3.org/1999/xlink"
   xmlns="http://www.w3.org/2000/svg"
   xmlns:svg="http://www.w3.org/2000/svg">
  <sodipodi:namedview
     id="namedview7"
     pagecolor="#ffffff"
     bordercolor="#666666"
     borderopacity="1.0"
     inkscape:showpageshadow="2"
     inkscape:pageopacity="0.0"
     inkscape:pagecheckerboard="0"
     inkscape:deskcolor="#d1d1d1"
     inkscape:document-units="px"
     showgrid="false"
     inkscape:zoom="2.2677135"
     inkscape:cx="4.409728"
     inkscape:cy="86.651156"
     inkscape:window-width="1920"
     inkscape:window-height="1007"
     inkscape:window-x="0"
     inkscape:window-y="0"
     inkscape:window-maximized="1"
     inkscape:current-layer="svg5" />
  <defs
     id="defs2">
    <linearGradient
       inkscape:collect="always"
       xlink:href="#linearGradient5312"
       id="linearGradient2881"
       x1="29"
       y1="29"
       x2="3"
       y2="3"
       gradientUnits="userSpaceOnUse"
       gradientTransform="matrix(8.6153844,0,0,8.6153844,-9.846154,-9.846154)" />
    <linearGradient
       inkscape:collect="always"
       id="linearGradient5312">
      <stop
         style="stop-color:#c72222;stop-opacity:1;"
         offset="0"
         id="stop5308" />
      <stop
         style="stop-color:#cf5b5b;stop-opacity:1;"
         offset="1"
         id="stop5310" />
    </linearGradient>
  </defs>
  <circle
     style="opacity:0.2;fill:#000000;fill-opacity:1;stroke:none;stroke-width:17.2308;stroke-linecap:round;stroke-linejoin:round;stroke-dasharray:none;stroke-opacity:1"
     id="path2871"
     cx="128"
     cy="129"
     r="112" />
  <circle
     style="opacity:1;fill:url(#linearGradient2881);fill-opacity:1;stroke:none;stroke-width:17.2308;stroke-linecap:round;stroke-linejoin:round;stroke-dasharray:none;stroke-opacity:1"
     id="path2873"
     cx="128"
     cy="128"
     r="112" />
  <path
     d="m 83.23052,72.911464 -11.3125,11.3125 44.77402,44.774016 -44.77402,44.77401 11.3125,11.3125 44.77402,-44.77401 44.76494,44.77401 11.3125,-11.3125 -44.77402,-44.77402 44.77402,-44.77401 -11.3125,-11.3125 -44.76494,44.77401 z"
     style="opacity:0.2;fill:#000000;fill-rule:evenodd;stroke-width:15.1184;paint-order:fill markers stroke"
     id="path629" />
  <path
     d="m 83.23052,71.913494 -11.3125,11.3125 44.77402,44.774016 -44.77402,44.774 11.3125,11.3125 44.77402,-44.774 44.76494,44.774 11.3125,-11.3125 L 139.30796,128 184.08198,83.22599 172.76948,71.91349 128.00454,116.6875 Z"
     style="fill:#ffffff;fill-rule:evenodd;stroke-width:15.1184;paint-order:fill markers stroke"
     id="path5343"
     sodipodi:nodetypes="ccccccccccccc" />
  <path
     id="path1350"
     style="opacity:0.2;fill:#ffffff;stroke-width:12;stroke-linecap:round;stroke-linejoin:round"
     d="M 128,16 A 112,112 0 0 0 16,128 112,112 0 0 0 16.035156,128.50586 112,112 0 0 1 128,17 112,112 0 0 1 239.98242,128.26953 112,112 0 0 0 240,128 112,112 0 0 0 128,16 Z" />
</svg>
