<?xml version="1.0" encoding="UTF-8" standalone="no"?>
<!-- Created with Inkscape (http://www.inkscape.org/) -->

<svg
   width="256"
   height="256"
   viewBox="0 0 256 256.00001"
   version="1.1"
   id="svg5"
   sodipodi:docname="system-reboot.svg"
   inkscape:version="1.2.1 (9c6d41e410, 2022-07-14)"
   xmlns:inkscape="http://www.inkscape.org/namespaces/inkscape"
   xmlns:sodipodi="http://sodipodi.sourceforge.net/DTD/sodipodi-0.dtd"
   xmlns:xlink="http://www.w3.org/1999/xlink"
   xmlns="http://www.w3.org/2000/svg"
   xmlns:svg="http://www.w3.org/2000/svg">
  <sodipodi:namedview
     id="namedview7"
     pagecolor="#ffffff"
     bordercolor="#666666"
     borderopacity="1.0"
     inkscape:showpageshadow="2"
     inkscape:pageopacity="0.0"
     inkscape:pagecheckerboard="0"
     inkscape:deskcolor="#d1d1d1"
     inkscape:document-units="px"
     showgrid="false"
     inkscape:zoom="2"
     inkscape:cx="136.75"
     inkscape:cy="128.25"
     inkscape:window-width="1920"
     inkscape:window-height="1007"
     inkscape:window-x="0"
     inkscape:window-y="0"
     inkscape:window-maximized="1"
     inkscape:current-layer="svg5" />
  <defs
     id="defs2">
    <linearGradient
       inkscape:collect="always"
       xlink:href="#linearGradient1252"
       id="linearGradient3525"
       x1="49.757847"
       y1="59.623318"
       x2="14.242153"
       y2="4.3766818"
       gradientUnits="userSpaceOnUse"
       gradientTransform="matrix(4.0545454,0,0,4.0545454,-1.745455,-1.745455)" />
    <linearGradient
       inkscape:collect="always"
       id="linearGradient1252">
      <stop
         style="stop-color:#6daa24;stop-opacity:1;"
         offset="0"
         id="stop1248" />
      <stop
         style="stop-color:#b8df8a;stop-opacity:1;"
         offset="1"
         id="stop1250" />
    </linearGradient>
  </defs>
  <rect
     style="fill:url(#linearGradient3525);fill-opacity:1.0;stroke:none;stroke-width:4.05454"
     id="rect184"
     width="223"
     height="223"
     x="16.5"
     y="16.5"
     ry="39.5" />
  <path
     d="m 128.13328,62.333521 c 13.53601,0 26.80539,4.064125 38.1334,12.000012 3.62132,2.53332 4.4,7.44564 1.86664,11.06669 -2.52804,3.62152 -7.45069,4.53844 -11.06665,2 -8.75201,-6.12825 -18.99742,-9.16257 -29.46671,-9.06669 -1.504,0 -2.93336,0 -4.40004,0.1332 -0.44821,0.0512 -0.88533,0.21 -1.33333,0.2668 -1.20532,0.1488 -2.42668,0.3024 -3.59996,0.53332 -0.52268,0.1028 -1.0934,0.1488 -1.6,0.2668 -1.15736,0.2616 -2.34136,0.5918 -3.46668,0.93336 -0.35761,0.1128 -0.70933,0.282 -1.06669,0.4 -1.28532,0.42048 -2.49064,0.8164 -3.73332,1.33332 -0.1284,0.0564 -0.2776,0.082 -0.4,0.1332 -7.45601,3.20513 -13.96269,8.22409 -19.0667,14.400021 -0.032,0.0512 -0.1016,0.0972 -0.1332,0.1332 C 81.62135,105.60777 77.33871,116.6955 77.33335,128.86679 H 90.66672 L 69.33334,160.86684 48,128.86679 h 13.33333 c 0.004,-13.98413 4.34137,-26.86928 11.73338,-37.600046 0.1068,-0.1844 0.144,-0.364 0.2668,-0.53332 0.91736,-1.311801 1.936,-2.506681 2.93336,-3.733361 0.1172,-0.1488 0.2776,-0.3848 0.4,-0.53332 6.76265,-8.20821 15.17333,-14.523092 24.80002,-18.666696 0.2668,-0.118 0.53332,-0.2872 0.8,-0.4 1.53601,-0.634881 3.08265,-1.205121 4.66665,-1.733322 0.57068,-0.1896 1.152,-0.3588 1.73336,-0.533321 1.38104,-0.420521 2.85304,-0.741561 4.26636,-1.066682 0.77869,-0.1796 1.47737,-0.3796 2.26669,-0.53332 0.3892,-0.0716 0.816,-0.2 1.2,-0.2668 1.056,-0.184401 2.144,-0.261601 3.2,-0.400001 0.73068,-0.0872 1.39732,-0.1948 2.13332,-0.2668 1.77069,-0.164 3.57337,-0.236 5.33337,-0.266801 h 0.93332 0.1332 z M 186.66666,97.000234 208,129.00028 h -13.33333 c 0,14.02666 -4.43733,26.98155 -11.8667,37.73335 -0.0908,0.1488 -0.1652,0.2512 -0.2668,0.4 -0.768,1.09844 -1.57332,2.16 -2.4,3.2 -0.3092,0.39481 -0.61332,0.81589 -0.93332,1.20001 -1.216,1.47692 -2.53868,2.77844 -3.86668,4.13332 -0.1284,0.1332 -0.144,0.2768 -0.2668,0.4 -4.45869,4.4636 -9.58401,8.32513 -15.0667,11.33337 -0.144,0.0872 -0.2452,0.1844 -0.4,0.2668 -1.57868,0.8482 -3.152,1.54152 -4.8,2.26664 -0.41076,0.1744 -0.91732,0.354 -1.33332,0.53336 -1.40801,0.58153 -2.81069,1.11489 -4.26669,1.60005 -0.688,0.236 -1.30132,0.45128 -2,0.66668 -1.27468,0.3796 -2.688,0.75744 -4,1.06664 -0.86933,0.2 -1.64801,0.364 -2.53333,0.53336 -0.3684,0.0716 -0.704,0.2052 -1.06668,0.2668 -1.23732,0.2156 -2.496,0.3848 -3.73332,0.53336 -0.44824,0.0512 -0.88536,0.0872 -1.33336,0.1332 -2.22401,0.2156 -4.45333,0.4 -6.66665,0.4 -13.55201,0 -26.78939,-4.18668 -38.1334,-12.13337 -3.616,-2.53848 -4.53332,-7.57901 -2,-11.20005 2.53868,-3.62661 7.58937,-4.40513 11.20001,-1.86665 8.81601,6.17593 19.05602,9.21025 29.60003,9.06669 1.392,0 2.768,0 4.13336,-0.1332 0.56001,-0.0564 1.17333,-0.2 1.73333,-0.2668 1.07732,-0.1436 2.14932,-0.328 3.2,-0.53332 0.64532,-0.1228 1.232,-0.2512 1.86668,-0.4 1.02932,-0.2412 2.064,-0.50256 3.06664,-0.8 0.48513,-0.1488 0.98669,-0.2412 1.46669,-0.4 1.15732,-0.3896 2.34668,-0.86412 3.46668,-1.33332 0.256,-0.1028 0.54932,-0.154 0.8,-0.2668 1.312,-0.57592 2.48,-1.18976 3.73332,-1.86668 0.0584,-0.0512 0.2084,-0.1028 0.2668,-0.1332 4.24001,-2.33028 8.06401,-5.26973 11.46666,-8.66669 0.0532,-0.0564 0.0748,-0.0716 0.1332,-0.1332 1.056,-1.061 2.10664,-2.17587 3.06664,-3.33331 0.2028,-0.246 0.46412,-0.54972 0.66668,-0.80001 6.92805,-8.66668 11.06669,-19.53641 11.06669,-31.46671 h -13.33337 l 21.33338,-32.000046 z"
     style="display:inline;fill:#000000;fill-opacity:1;fill-rule:nonzero;stroke:none;enable-background:new;opacity:0.2"
     id="path11448" />
  <path
     d="m 128.13328,61.333413 c 13.53601,0 26.80539,4.064124 38.1334,12.000011 3.62132,2.53332 4.4,7.44564 1.86664,11.06669 -2.52804,3.62152 -7.45069,4.53844 -11.06665,2 -8.75201,-6.12825 -18.99742,-9.16257 -29.46671,-9.06669 -1.504,0 -2.93336,0 -4.40004,0.1332 -0.44821,0.0512 -0.88533,0.21 -1.33333,0.2668 -1.20532,0.1488 -2.42668,0.3024 -3.59996,0.53332 -0.52268,0.1028 -1.0934,0.1488 -1.6,0.2668 -1.15736,0.2616 -2.34136,0.5918 -3.46668,0.93336 -0.35761,0.1128 -0.70933,0.282 -1.06669,0.4 -1.28532,0.42048 -2.49064,0.8164 -3.73332,1.33332 -0.1284,0.0564 -0.2776,0.082 -0.4,0.1332 -7.45601,3.20513 -13.96269,8.22409 -19.0667,14.40002 -0.032,0.0512 -0.1016,0.0972 -0.1332,0.1332 -7.17869,8.741016 -11.46133,19.828746 -11.46669,32.000036 H 90.66672 L 69.33334,159.86672 48,127.86668 h 13.33333 c 0.004,-13.98413 4.34137,-26.86928 11.73338,-37.600046 0.1068,-0.1844 0.144,-0.364 0.2668,-0.53332 0.91736,-1.3118 1.936,-2.50668 2.93336,-3.73336 0.1172,-0.1488 0.2776,-0.3848 0.4,-0.53332 6.76265,-8.20821 15.17333,-14.523092 24.80002,-18.666696 0.2668,-0.118 0.53332,-0.2872 0.8,-0.4 1.53601,-0.634881 3.08265,-1.205121 4.66665,-1.733322 0.57068,-0.1896 1.152,-0.3588 1.73336,-0.533321 1.38104,-0.42052 2.85304,-0.74156 4.26636,-1.066681 0.77869,-0.1796 1.47737,-0.3796 2.26669,-0.53332 0.3892,-0.0716 0.816,-0.2 1.2,-0.2668 1.056,-0.184401 2.144,-0.261601 3.2,-0.400001 0.73068,-0.0872 1.39732,-0.1948 2.13332,-0.2668 1.77069,-0.164 3.57337,-0.236 5.33337,-0.266801 h 0.93332 0.1332 z M 186.66666,96.000124 208,128.00016 h -13.33333 c 0,14.02666 -4.43733,26.98155 -11.8667,37.73336 -0.0908,0.1488 -0.1652,0.2512 -0.2668,0.4 -0.768,1.09844 -1.57332,2.16 -2.4,3.2 -0.3092,0.39481 -0.61332,0.81589 -0.93332,1.20001 -1.216,1.47692 -2.53868,2.77844 -3.86668,4.13332 -0.1284,0.1332 -0.144,0.2768 -0.2668,0.4 -4.45869,4.4636 -9.58401,8.32513 -15.0667,11.33337 -0.144,0.0872 -0.2452,0.1844 -0.4,0.2668 -1.57868,0.8482 -3.152,1.54152 -4.8,2.26664 -0.41076,0.1744 -0.91732,0.354 -1.33332,0.53336 -1.40801,0.58153 -2.81069,1.11489 -4.26669,1.60005 -0.688,0.236 -1.30132,0.45128 -2,0.66668 -1.27468,0.3796 -2.688,0.75744 -4,1.06664 -0.86933,0.2 -1.64801,0.364 -2.53333,0.53336 -0.3684,0.0716 -0.704,0.2052 -1.06668,0.2668 -1.23732,0.2156 -2.496,0.3848 -3.73332,0.53336 -0.44824,0.0512 -0.88536,0.0872 -1.33336,0.1332 -2.22401,0.2156 -4.45333,0.4 -6.66665,0.4 -13.55201,0 -26.78939,-4.18668 -38.1334,-12.13337 -3.616,-2.53848 -4.53332,-7.57901 -2,-11.20005 2.53868,-3.62661 7.58937,-4.40513 11.20001,-1.86665 8.81601,6.17593 19.05602,9.21025 29.60003,9.06669 1.392,0 2.768,0 4.13336,-0.1332 0.56001,-0.0564 1.17333,-0.2 1.73333,-0.2668 1.07732,-0.1436 2.14932,-0.328 3.2,-0.53332 0.64532,-0.1228 1.232,-0.2512 1.86668,-0.4 1.02932,-0.2412 2.064,-0.50256 3.06664,-0.8 0.48513,-0.1488 0.98669,-0.2412 1.46669,-0.4 1.15732,-0.3896 2.34668,-0.86412 3.46668,-1.33332 0.256,-0.1028 0.54932,-0.154 0.8,-0.2668 1.312,-0.57592 2.48,-1.18976 3.73332,-1.86668 0.0584,-0.0512 0.2084,-0.1028 0.2668,-0.1332 4.24001,-2.33028 8.06401,-5.26973 11.46666,-8.66669 0.0532,-0.0564 0.0748,-0.0716 0.1332,-0.1332 1.056,-1.061 2.10664,-2.17588 3.06664,-3.33332 0.2028,-0.246 0.46412,-0.54972 0.66668,-0.80001 6.92805,-8.66668 11.06669,-19.53641 11.06669,-31.46671 h -13.33337 l 21.33338,-32.000036 z"
     style="display:inline;fill:#ffffff;fill-opacity:1;fill-rule:nonzero;stroke:none;enable-background:new"
     id="path11052"
     sodipodi:nodetypes="cccccccccccccccccccccccccccccccccccccccccccccccccccccccccscccccccccccccccccccccc" />
  <path
     id="rect899"
     style="fill:#000000;stroke:none;stroke-width:4;opacity:0.5"
     d="M 56,16 C 33.840066,16 16,33.840066 16,56 v 144 c 0,22.15994 17.840066,40 40,40 h 144 c 22.15994,0 40,-17.84006 40,-40 V 56 C 240,33.840066 222.15994,16 200,16 Z m 0,1 h 144 c 21.60598,0 39,17.394022 39,39 v 144 c 0,21.60598 -17.39402,39 -39,39 H 56 C 34.394022,239 17,221.60598 17,200 V 56 C 17,34.394022 34.394022,17 56,17 Z" />
  <path
     id="rect441"
     style="opacity:0.3;fill:#ffffff"
     d="m 17,199 v 1 c 0,21.60598 17.394022,39 39,39 h 144 c 21.60598,0 39,-17.39402 39,-39 v -1 c 0,21.60598 -17.39402,39 -39,39 H 56 C 34.394022,238 17,220.60598 17,199 Z" />
  <path
     id="rect443"
     style="opacity:0.3;fill:#ffffff"
     d="M 56,17 C 34.394022,17 17,34.394022 17,56 v 1 C 17,35.394022 34.394022,18 56,18 h 144 c 21.60598,0 39,17.394022 39,39 V 56 C 239,34.394022 221.60598,17 200,17 Z" />
</svg>
