<?xml version="1.0" encoding="UTF-8" standalone="no"?>
<!-- Created with Inkscape (http://www.inkscape.org/) -->

<svg
   width="256"
   height="256"
   viewBox="0 0 256 256.00001"
   version="1.1"
   id="svg5"
   sodipodi:docname="system-log-out.svg"
   inkscape:version="1.2.1 (9c6d41e410, 2022-07-14)"
   xmlns:inkscape="http://www.inkscape.org/namespaces/inkscape"
   xmlns:sodipodi="http://sodipodi.sourceforge.net/DTD/sodipodi-0.dtd"
   xmlns:xlink="http://www.w3.org/1999/xlink"
   xmlns="http://www.w3.org/2000/svg"
   xmlns:svg="http://www.w3.org/2000/svg">
  <sodipodi:namedview
     id="namedview7"
     pagecolor="#ffffff"
     bordercolor="#666666"
     borderopacity="1.0"
     inkscape:showpageshadow="2"
     inkscape:pageopacity="0.0"
     inkscape:pagecheckerboard="0"
     inkscape:deskcolor="#d1d1d1"
     inkscape:document-units="px"
     showgrid="false"
     inkscape:zoom="1"
     inkscape:cx="128"
     inkscape:cy="128.5"
     inkscape:window-width="1920"
     inkscape:window-height="1007"
     inkscape:window-x="0"
     inkscape:window-y="0"
     inkscape:window-maximized="1"
     inkscape:current-layer="svg5" />
  <defs
     id="defs2">
    <linearGradient
       inkscape:collect="always"
       xlink:href="#linearGradient4380"
       id="linearGradient3525"
       x1="49.757847"
       y1="59.623318"
       x2="14.242153"
       y2="4.3766818"
       gradientUnits="userSpaceOnUse"
       gradientTransform="matrix(4.0545454,0,0,4.0545454,-1.745455,-1.745455)" />
    <linearGradient
       inkscape:collect="always"
       id="linearGradient4380">
      <stop
         style="stop-color:#e58800;stop-opacity:1;"
         offset="0"
         id="stop4376" />
      <stop
         style="stop-color:#f3dc1d;stop-opacity:1;"
         offset="1"
         id="stop4378" />
    </linearGradient>
  </defs>
  <rect
     style="fill:url(#linearGradient3525);fill-opacity:1.0;stroke:none;stroke-width:4.05454"
     id="rect184"
     width="223"
     height="223"
     x="16.5"
     y="16.5"
     ry="39.5" />
  <path
     d="m 208.99165,129.00004 c 0,-5.54027 -4.45974,-10 -10,-10 h -50 c -5.54026,0 -10,4.45973 -10,10 0,5.54026 4.45974,10 10,10 h 50 c 5.54026,0 10,-4.45974 10,-10 z M 191.2104,99.2188 c 0.003,-0.28281 -0.007,-0.56057 -0.0312,-0.84375 -0.16901,-1.553679 -0.70896,-3.065539 -1.5625,-4.374999 -6.1138,-10.59981 -15.04361,-19.47941 -25.62501,-25.62501 -21.8726,-12.7035 -47.88637,-12.05676 -68.656251,-0.6875 -0.46562,0.19066 -0.9127,0.41631 -1.34375,0.6875 -0.5457,0.31695 -1.05971,0.67056 -1.59375,1 -0.96528,0.59547 -1.91694,1.20879 -2.84375,1.84375 -0.94465,0.64719 -1.87708,1.31359 -2.78125,2 -1.83479,1.39292 -3.5851,2.83191 -5.25,4.375 -0.0108,0.01 -0.0205,0.0214 -0.0312,0.0312 -0.67093,0.62264 -1.32594,1.26095 -1.96875,1.90625 -0.6453,0.64281 -1.28362,1.29783 -1.90625,1.96875 -0.01,0.0108 -0.0214,0.0205 -0.0312,0.0312 -1.54309,1.66491 -2.98208,3.41521 -4.375,5.25001 -0.68642,0.90417 -1.35281,1.8366 -2,2.78125 -0.63497,0.92681 -1.24828,1.87847 -1.84375,2.84375 -0.32944,0.53404 -0.68306,1.04805 -1,1.59375 -6.14363,10.577969 -9.14908,22.109299 -9.34375,33.562489 -0.0162,0.95185 -0.0227,1.92505 0,2.875 0.19886,11.44452 3.20484,22.99267 9.34375,33.5625 0.31694,0.5457 0.67056,1.05971 1,1.59375 0.59547,0.96528 1.20878,1.91694 1.84375,2.84375 1.30077,1.89863 2.66947,3.70344 4.125,5.4375 0.73821,0.87948 1.47485,1.75741 2.25,2.59375 0.01,0.0108 0.0212,0.0204 0.0312,0.0312 0.74309,0.80073 1.50601,1.58311 2.28125,2.34375 0.0996,0.0977 0.2124,0.1842 0.3125,0.28125 0.5806,0.56287 1.1525,1.14715 1.75,1.6875 0.69675,0.63437 1.43014,1.23467 2.15625,1.84375 0.86592,0.72637 1.74906,1.43629 2.65625,2.125 0.90417,0.68642 1.8366,1.35281 2.78125,2 0.92681,0.63497 1.87847,1.24828 2.84375,1.84375 0.53404,0.32944 1.04805,0.68306 1.59375,1 0.43105,0.27119 0.87813,0.49684 1.34375,0.6875 20.769881,11.36926 46.783651,12.01601 68.656251,-0.6875 10.5814,-6.14559 19.51121,-15.02519 25.62501,-25.625 0.85354,-1.30946 1.39349,-2.82132 1.5625,-4.375 0.38422,-4.53091 -2.73834,-9.13084 -7.09376,-10.4375 -4.3553,-1.30656 -9.48295,0.81831 -11.65625,4.8125 -4.36751,7.57206 -10.56614,13.73489 -18.12499,18.125 -15.72983,9.13575 -34.26233,8.91985 -49.09376,0.9375 -0.007,-0.005 -0.0243,0.005 -0.0312,0 -0.47179,-0.36067 -0.95813,-0.67605 -1.5,-0.9375 -3.693811,-2.14533 -7.002101,-4.68288 -9.906251,-7.53125 -0.0625,-0.0624 -0.12531,-0.12477 -0.1875,-0.1875 -0.10455,-0.10365 -0.20901,-0.20805 -0.3125,-0.3125 -0.49461,-0.50787 -0.99342,-1.03019 -1.46875,-1.5625 -2.21466,-2.48018 -4.19639,-5.22093 -5.9375,-8.21875 -4.34714,-7.48485 -6.5868,-15.59969 -6.875,-23.65625 -3.7e-4,-0.0104 3.7e-4,-0.0208 0,-0.0312 -6.1e-4,-0.0206 5.9e-4,-0.0419 0,-0.0625 -0.0175,-0.51713 -0.0297,-1.04612 -0.0312,-1.5625 0.001,-0.54399 0.0121,-1.08018 0.0312,-1.625 0.28353,-8.06682 2.52223,-16.19295 6.875,-23.68749 1.74111,-2.99782 3.72284,-5.738569 5.9375,-8.218749 0.0442,-0.0495 0.0806,-0.10697 0.125,-0.15625 0.4348,-0.47491 0.88823,-0.94646 1.34375,-1.40625 0.10209,-0.10482 0.20961,-0.20872 0.3125,-0.3125 0.10378,-0.10289 0.20768,-0.21041 0.3125,-0.3125 0.50779,-0.50308 1.0363,-0.99095 1.5625,-1.46875 2.48018,-2.21466 5.220931,-4.19639 8.218751,-5.9375 0.4957,-0.23917 0.93774,-0.55217 1.375,-0.875 0.0369,-0.0273 0.0885,-0.0347 0.125,-0.0625 14.83553,-7.99541 33.38647,-8.20332 49.12501,0.9375 7.55885,4.39011 13.75748,10.55294 18.12499,18.124999 2.1733,3.99419 7.30095,6.08781 11.65625,4.78125 4.08321,-1.22499 7.0828,-5.32039 7.12501,-9.5625 z"
     style="color:#000000;font-style:normal;font-variant:normal;font-weight:normal;font-stretch:normal;font-size:medium;line-height:normal;font-family:Sans;-inkscape-font-specification:Sans;text-indent:0;text-align:start;text-decoration:none;text-decoration-line:none;letter-spacing:normal;word-spacing:normal;text-transform:none;writing-mode:lr-tb;direction:ltr;baseline-shift:baseline;text-anchor:start;display:inline;overflow:visible;visibility:visible;opacity:0.2;fill:#000000;fill-opacity:1;stroke:none;stroke-width:2.33333;marker:none;enable-background:new"
     id="path1658" />
  <path
     d="m 208.99164,127.99997 c 0,-5.54027 -4.45974,-10 -10,-10 h -50 c -5.54026,0 -10,4.45973 -10,10 0,5.54026 4.45974,10 10,10 h 50 c 5.54026,0 10,-4.45974 10,-10 z M 191.21039,98.21873 c 0.003,-0.282807 -0.007,-0.560567 -0.0312,-0.843747 -0.16901,-1.55368 -0.70896,-3.06554 -1.5625,-4.375 -6.1138,-10.599813 -15.04361,-19.479411 -25.62501,-25.625005 -21.8726,-12.703506 -47.88636,-12.05676 -68.656241,-0.6875 -0.46562,0.190657 -0.9127,0.416306 -1.34375,0.6875 -0.5457,0.316942 -1.05971,0.67056 -1.59375,1.000001 -0.96528,0.595467 -1.91694,1.208785 -2.84375,1.84375 -0.94465,0.647187 -1.87708,1.313584 -2.78125,2 -1.83479,1.392919 -3.5851,2.831906 -5.25,4.375 -0.0108,0.0099 -0.0205,0.02134 -0.0312,0.03125 -0.67093,0.622634 -1.32594,1.260949 -1.96875,1.90625 -0.6453,0.642809 -1.28362,1.297821 -1.90625,1.96875 -0.01,0.01075 -0.0214,0.02049 -0.0312,0.03125 -1.54309,1.664901 -2.98208,3.41521 -4.375,5.250005 -0.68642,0.90417 -1.35281,1.8366 -2,2.78125 -0.63497,0.92681 -1.24828,1.87847 -1.84375,2.843749 -0.32944,0.53404 -0.68306,1.04805 -1,1.59375 -6.14363,10.577967 -9.14908,22.109297 -9.34375,33.562487 -0.0162,0.95185 -0.0227,1.92505 0,2.875 0.19886,11.44452 3.20484,22.99267 9.34375,33.5625 0.31694,0.5457 0.67056,1.05971 1,1.59375 0.59547,0.96528 1.20878,1.91694 1.84375,2.84375 1.30077,1.89863 2.66947,3.70344 4.125,5.4375 0.73821,0.87948 1.47485,1.75741 2.25,2.59375 0.01,0.0108 0.0212,0.0204 0.0312,0.0312 0.74309,0.80073 1.50601,1.58311 2.28125,2.34375 0.0996,0.0977 0.2124,0.1842 0.3125,0.28125 0.5806,0.56287 1.1525,1.14715 1.75,1.6875 0.69675,0.63437 1.43014,1.23467 2.15625,1.84375 0.86592,0.72637 1.74906,1.43629 2.65625,2.125 0.90417,0.68642 1.8366,1.35281 2.78125,2 0.92681,0.63497 1.87847,1.24828 2.84375,1.84375 0.53404,0.32944 1.04805,0.68306 1.59375,1 0.43105,0.27119 0.87813,0.49684 1.34375,0.6875 20.769881,11.36926 46.783641,12.01601 68.656241,-0.6875 10.5814,-6.14559 19.51121,-15.02519 25.62501,-25.625 0.85354,-1.30946 1.39349,-2.82132 1.5625,-4.375 0.38422,-4.53091 -2.73834,-9.13084 -7.09376,-10.4375 -4.3553,-1.30656 -9.48295,0.81831 -11.65625,4.8125 -4.36751,7.57206 -10.56614,13.73489 -18.12499,18.125 -15.72983,9.13575 -34.26232,8.91985 -49.09375,0.9375 -0.007,-0.005 -0.0243,0.005 -0.0312,0 -0.47179,-0.36067 -0.95813,-0.67605 -1.5,-0.9375 -3.693811,-2.14533 -7.002101,-4.68288 -9.906251,-7.53125 -0.0625,-0.0624 -0.12531,-0.12477 -0.1875,-0.1875 -0.10455,-0.10365 -0.20901,-0.20805 -0.3125,-0.3125 -0.49461,-0.50787 -0.99342,-1.03019 -1.46875,-1.5625 -2.21466,-2.48018 -4.19639,-5.22093 -5.9375,-8.21875 -4.34714,-7.48485 -6.5868,-15.59969 -6.875,-23.65625 -3.7e-4,-0.0104 3.7e-4,-0.0208 0,-0.0312 -6.1e-4,-0.0206 5.9e-4,-0.0419 0,-0.0625 -0.0175,-0.51713 -0.0297,-1.04612 -0.0312,-1.5625 0.001,-0.54399 0.0121,-1.08018 0.0312,-1.625 0.28353,-8.06682 2.52223,-16.19295 6.875,-23.68749 1.74111,-2.99782 3.72284,-5.738567 5.9375,-8.218747 0.0442,-0.0495 0.0806,-0.10697 0.125,-0.15625 0.4348,-0.47491 0.88823,-0.94646 1.34375,-1.40625 0.10209,-0.10482 0.20961,-0.20872 0.3125,-0.3125 0.10378,-0.10289 0.20768,-0.21041 0.3125,-0.3125 0.50779,-0.50308 1.0363,-0.99095 1.5625,-1.46875 2.48018,-2.214659 5.220931,-4.196389 8.218751,-5.937499 0.4957,-0.23917 0.93774,-0.55217 1.375,-0.875002 0.0369,-0.02727 0.0885,-0.03468 0.125,-0.0625 14.83553,-7.995405 33.38646,-8.203318 49.125,0.937502 7.55885,4.39011 13.75748,10.552939 18.12499,18.124996 2.1733,3.99419 7.30095,6.08781 11.65625,4.78125 4.08321,-1.22499 7.0828,-5.32039 7.12501,-9.5625 z"
     style="color:#000000;font-style:normal;font-variant:normal;font-weight:normal;font-stretch:normal;font-size:medium;line-height:normal;font-family:Sans;-inkscape-font-specification:Sans;text-indent:0;text-align:start;text-decoration:none;text-decoration-line:none;letter-spacing:normal;word-spacing:normal;text-transform:none;writing-mode:lr-tb;direction:ltr;baseline-shift:baseline;text-anchor:start;display:inline;overflow:visible;visibility:visible;fill:#ffffff;fill-opacity:1;stroke:none;stroke-width:2.33333;marker:none;enable-background:new"
     id="path1602"
     sodipodi:nodetypes="sssssssccccccssscccscssssscssssscsscssssccsccccsccccccsssccccssccccccscscccc" />
  <path
     id="rect899"
     style="fill:#000000;stroke:none;stroke-width:4;opacity:0.5"
     d="M 56,16 C 33.840066,16 16,33.840066 16,56 v 144 c 0,22.15994 17.840066,40 40,40 h 144 c 22.15994,0 40,-17.84006 40,-40 V 56 C 240,33.840066 222.15994,16 200,16 Z m 0,1 h 144 c 21.60598,0 39,17.394022 39,39 v 144 c 0,21.60598 -17.39402,39 -39,39 H 56 C 34.394022,239 17,221.60598 17,200 V 56 C 17,34.394022 34.394022,17 56,17 Z" />
  <path
     id="rect441"
     style="opacity:0.3;fill:#ffffff"
     d="m 17,199 v 1 c 0,21.60598 17.394022,39 39,39 h 144 c 21.60598,0 39,-17.39402 39,-39 v -1 c 0,21.60598 -17.39402,39 -39,39 H 56 C 34.394022,238 17,220.60598 17,199 Z" />
  <path
     id="rect443"
     style="opacity:0.3;fill:#ffffff"
     d="M 56,17 C 34.394022,17 17,34.394022 17,56 v 1 C 17,35.394022 34.394022,18 56,18 h 144 c 21.60598,0 39,17.394022 39,39 V 56 C 239,34.394022 221.60598,17 200,17 Z" />
</svg>
