<?xml version="1.0" encoding="UTF-8" standalone="no"?>
<!-- Created with Inkscape (http://www.inkscape.org/) -->

<svg
   width="256"
   height="256"
   viewBox="0 0 256 256.00001"
   version="1.1"
   id="svg5"
   sodipodi:docname="system-shutdown.svg"
   inkscape:version="1.2.1 (9c6d41e410, 2022-07-14)"
   xmlns:inkscape="http://www.inkscape.org/namespaces/inkscape"
   xmlns:sodipodi="http://sodipodi.sourceforge.net/DTD/sodipodi-0.dtd"
   xmlns:xlink="http://www.w3.org/1999/xlink"
   xmlns="http://www.w3.org/2000/svg"
   xmlns:svg="http://www.w3.org/2000/svg">
  <sodipodi:namedview
     id="namedview7"
     pagecolor="#ffffff"
     bordercolor="#666666"
     borderopacity="1.0"
     inkscape:showpageshadow="2"
     inkscape:pageopacity="0.0"
     inkscape:pagecheckerboard="0"
     inkscape:deskcolor="#d1d1d1"
     inkscape:document-units="px"
     showgrid="false"
     inkscape:zoom="1.625"
     inkscape:cx="-24.615385"
     inkscape:cy="49.538462"
     inkscape:window-width="1920"
     inkscape:window-height="1007"
     inkscape:window-x="0"
     inkscape:window-y="0"
     inkscape:window-maximized="1"
     inkscape:current-layer="svg5" />
  <defs
     id="defs2">
    <linearGradient
       inkscape:collect="always"
       xlink:href="#linearGradient5312"
       id="linearGradient3525"
       x1="49.757847"
       y1="59.623318"
       x2="14.242153"
       y2="4.3766818"
       gradientUnits="userSpaceOnUse"
       gradientTransform="matrix(4.0545454,0,0,4.0545454,-1.745455,-1.745455)" />
    <linearGradient
       inkscape:collect="always"
       id="linearGradient5312">
      <stop
         style="stop-color:#c72222;stop-opacity:1;"
         offset="0"
         id="stop5308" />
      <stop
         style="stop-color:#cf5b5b;stop-opacity:1;"
         offset="1"
         id="stop5310" />
    </linearGradient>
  </defs>
  <rect
     style="fill:url(#linearGradient3525);fill-opacity:1.0;stroke:none;stroke-width:4.05454"
     id="rect184"
     width="223"
     height="223"
     x="16.5"
     y="16.5"
     ry="39.5" />
  <path
     d="m 127.99604,53.987 c -5.54027,0 -10,4.459736 -10,10 v 50 c 0,5.54026 4.45973,10 10,10 5.54026,0 10,-4.45974 10,-10 v -50 c 0,-5.540264 -4.45974,-10 -10,-10 z M 98.2148,71.768251 c -0.28281,-0.0028 -0.56057,0.0072 -0.84375,0.03125 -1.55368,0.169008 -3.06554,0.70896 -4.375,1.562495 -10.59981,6.1138 -19.47941,15.04361 -25.62501,25.625011 -12.7035,21.872603 -12.05676,47.886373 -0.6875,68.656253 0.19066,0.46562 0.41631,0.9127 0.6875,1.34375 0.31695,0.5457 0.67056,1.05971 1,1.59375 0.59547,0.96528 1.20879,1.91694 1.84375,2.84375 0.64719,0.94465 1.31359,1.87708 2,2.78125 1.39292,1.83479 2.83191,3.5851 4.375,5.25 0.01,0.0108 0.0214,0.0205 0.0312,0.0312 0.62264,0.67093 1.26095,1.32594 1.90625,1.96875 0.64281,0.6453 1.29783,1.28362 1.96875,1.90625 0.0108,0.01 0.0205,0.0214 0.0312,0.0312 1.66491,1.54309 3.41521,2.98208 5.25001,4.375 0.90417,0.68642 1.8366,1.35281 2.78125,2 0.92681,0.63497 1.87847,1.24828 2.84375,1.84375 0.53404,0.32944 1.04805,0.68306 1.59375,1 10.57797,6.14363 22.1093,9.14908 33.56249,9.34375 0.95185,0.0162 1.92505,0.0227 2.875,0 11.44452,-0.19886 22.99267,-3.20484 33.5625,-9.34375 0.5457,-0.31694 1.05971,-0.67056 1.59375,-1 0.96528,-0.59547 1.91694,-1.20878 2.84375,-1.84375 1.89863,-1.30077 3.70344,-2.66947 5.4375,-4.125 0.87948,-0.73821 1.75741,-1.47485 2.59375,-2.25 0.0108,-0.01 0.0204,-0.0212 0.0312,-0.0312 0.80073,-0.74309 1.58311,-1.50601 2.34375,-2.28125 0.0977,-0.0996 0.1842,-0.2124 0.28125,-0.3125 0.56287,-0.5806 1.14715,-1.1525 1.6875,-1.75 0.63437,-0.69675 1.23467,-1.43014 1.84375,-2.15625 0.72637,-0.86592 1.43629,-1.74906 2.125,-2.65625 0.68642,-0.90417 1.35281,-1.8366 2,-2.78125 0.63497,-0.92681 1.24828,-1.87847 1.84375,-2.84375 0.32944,-0.53404 0.68306,-1.04805 1,-1.59375 0.27119,-0.43105 0.49684,-0.87813 0.6875,-1.34375 11.36926,-20.76988 12.01601,-46.78365 -0.6875,-68.656253 -6.14559,-10.581401 -15.02519,-19.511211 -25.625,-25.625011 -1.30946,-0.853535 -2.82132,-1.393487 -4.375,-1.562495 -4.53091,-0.384219 -9.13084,2.738335 -10.4375,7.093755 -1.30656,4.3553 0.81831,9.48295 4.8125,11.65625 7.57206,4.367511 13.73489,10.566144 18.125,18.124994 9.13575,15.72983 8.91985,34.26233 0.9375,49.09376 -0.005,0.007 0.005,0.0243 0,0.0312 -0.36067,0.47179 -0.67605,0.95813 -0.9375,1.5 -2.14533,3.69381 -4.68288,7.0021 -7.53125,9.90625 -0.0624,0.0625 -0.12477,0.12531 -0.1875,0.1875 -0.10365,0.10455 -0.20805,0.20901 -0.3125,0.3125 -0.50787,0.49461 -1.03019,0.99342 -1.5625,1.46875 -2.48018,2.21466 -5.22093,4.19639 -8.21875,5.9375 -7.48485,4.34714 -15.59969,6.5868 -23.65625,6.875 -0.0104,3.7e-4 -0.0208,-3.7e-4 -0.0312,0 -0.0206,6.1e-4 -0.0419,-5.9e-4 -0.0625,0 -0.51713,0.0175 -1.04612,0.0297 -1.5625,0.0312 -0.54399,-0.001 -1.08018,-0.0121 -1.625,-0.0312 -8.06682,-0.28353 -16.19295,-2.52223 -23.68749,-6.875 -2.99782,-1.74111 -5.73857,-3.72284 -8.21875,-5.9375 -0.0495,-0.0442 -0.10697,-0.0806 -0.15625,-0.125 -0.47491,-0.4348 -0.94646,-0.88823 -1.40625,-1.34375 -0.10482,-0.10209 -0.20872,-0.20961 -0.3125,-0.3125 -0.10289,-0.10378 -0.21041,-0.20768 -0.3125,-0.3125 -0.50308,-0.50779 -0.99095,-1.0363 -1.46875,-1.5625 -2.21466,-2.48018 -4.19639,-5.22093 -5.9375,-8.21875 -0.23917,-0.4957 -0.55217,-0.93774 -0.875,-1.375 -0.0273,-0.0369 -0.0347,-0.0885 -0.0625,-0.125 -7.99541,-14.83553 -8.20332,-33.38647 0.9375,-49.12501 4.39011,-7.55885 10.55294,-13.757483 18.125,-18.124994 3.99419,-2.1733 6.08781,-7.30095 4.78125,-11.65625 -1.22499,-4.08321 -5.32039,-7.082797 -9.5625,-7.125005 z"
     style="color:#000000;font-style:normal;font-variant:normal;font-weight:normal;font-stretch:normal;font-size:medium;line-height:normal;font-family:Sans;-inkscape-font-specification:Sans;text-indent:0;text-align:start;text-decoration:none;text-decoration-line:none;letter-spacing:normal;word-spacing:normal;text-transform:none;writing-mode:lr-tb;direction:ltr;baseline-shift:baseline;text-anchor:start;display:inline;overflow:visible;visibility:visible;fill:#000000;fill-opacity:1;stroke:none;stroke-width:2.33333;marker:none;enable-background:new;opacity:0.2"
     id="path1658" />
  <path
     d="m 127.99604,52.987 c -5.54027,0 -10,4.459736 -10,10 v 50 c 0,5.54026 4.45973,10 10,10 5.54026,0 10,-4.45974 10,-10 v -50 c 0,-5.540264 -4.45974,-10 -10,-10 z M 98.2148,70.76825 c -0.28281,-0.0028 -0.56057,0.0072 -0.84375,0.03125 -1.55368,0.169008 -3.06554,0.70896 -4.375,1.562495 -10.599814,6.1138 -19.479412,15.04361 -25.625006,25.62501 -12.703506,21.872605 -12.05676,47.886365 -0.6875,68.656245 0.190657,0.46562 0.416306,0.9127 0.6875,1.34375 0.316942,0.5457 0.67056,1.05971 1.000001,1.59375 0.595467,0.96528 1.208785,1.91694 1.84375,2.84375 0.647187,0.94465 1.313584,1.87708 2,2.78125 1.392919,1.83479 2.831906,3.5851 4.375,5.25 0.0099,0.0108 0.02134,0.0205 0.03125,0.0312 0.622634,0.67093 1.260949,1.32594 1.90625,1.96875 0.642809,0.6453 1.297821,1.28362 1.96875,1.90625 0.01075,0.01 0.02049,0.0214 0.03125,0.0312 1.664901,1.54309 3.41521,2.98208 5.250005,4.375 0.90417,0.68642 1.8366,1.35281 2.78125,2 0.92681,0.63497 1.87847,1.24828 2.84375,1.84375 0.53404,0.32944 1.04805,0.68306 1.59375,1 10.57797,6.14363 22.1093,9.14908 33.56249,9.34375 0.95185,0.0162 1.92505,0.0227 2.875,0 11.44452,-0.19886 22.99267,-3.20484 33.5625,-9.34375 0.5457,-0.31694 1.05971,-0.67056 1.59375,-1 0.96528,-0.59547 1.91694,-1.20878 2.84375,-1.84375 1.89863,-1.30077 3.70344,-2.66947 5.4375,-4.125 0.87948,-0.73821 1.75741,-1.47485 2.59375,-2.25 0.0108,-0.01 0.0204,-0.0212 0.0312,-0.0312 0.80073,-0.74309 1.58311,-1.50601 2.34375,-2.28125 0.0977,-0.0996 0.1842,-0.2124 0.28125,-0.3125 0.56287,-0.5806 1.14715,-1.1525 1.6875,-1.75 0.63437,-0.69675 1.23467,-1.43014 1.84375,-2.15625 0.72637,-0.86592 1.43629,-1.74906 2.125,-2.65625 0.68642,-0.90417 1.35281,-1.8366 2,-2.78125 0.63497,-0.92681 1.24828,-1.87847 1.84375,-2.84375 0.32944,-0.53404 0.68306,-1.04805 1,-1.59375 0.27119,-0.43105 0.49684,-0.87813 0.6875,-1.34375 11.36926,-20.76988 12.01601,-46.78364 -0.6875,-68.656245 -6.14559,-10.5814 -15.02519,-19.51121 -25.625,-25.62501 -1.30946,-0.853535 -2.82132,-1.393487 -4.375,-1.562495 -4.53091,-0.384219 -9.13084,2.738335 -10.4375,7.093755 -1.30656,4.3553 0.81831,9.48295 4.8125,11.65625 7.57206,4.36751 13.73489,10.566145 18.125,18.124995 9.13575,15.72983 8.91985,34.26232 0.9375,49.09375 -0.005,0.007 0.005,0.0243 0,0.0312 -0.36067,0.47179 -0.67605,0.95813 -0.9375,1.5 -2.14533,3.69381 -4.68288,7.0021 -7.53125,9.90625 -0.0624,0.0625 -0.12477,0.12531 -0.1875,0.1875 -0.10365,0.10455 -0.20805,0.20901 -0.3125,0.3125 -0.50787,0.49461 -1.03019,0.99342 -1.5625,1.46875 -2.48018,2.21466 -5.22093,4.19639 -8.21875,5.9375 -7.48485,4.34714 -15.59969,6.5868 -23.65625,6.875 -0.0104,3.7e-4 -0.0208,-3.7e-4 -0.0312,0 -0.0206,6.1e-4 -0.0419,-5.9e-4 -0.0625,0 -0.51713,0.0175 -1.04612,0.0297 -1.5625,0.0312 -0.54399,-0.001 -1.08018,-0.0121 -1.625,-0.0312 -8.06682,-0.28353 -16.19295,-2.52223 -23.68749,-6.875 -2.99782,-1.74111 -5.73857,-3.72284 -8.21875,-5.9375 -0.0495,-0.0442 -0.10697,-0.0806 -0.15625,-0.125 -0.47491,-0.4348 -0.94646,-0.88823 -1.40625,-1.34375 -0.10482,-0.10209 -0.20872,-0.20961 -0.3125,-0.3125 -0.10289,-0.10378 -0.21041,-0.20768 -0.3125,-0.3125 -0.50308,-0.50779 -0.99095,-1.0363 -1.46875,-1.5625 -2.21466,-2.48018 -4.19639,-5.22093 -5.9375,-8.21875 -0.23917,-0.4957 -0.55217,-0.93774 -0.875002,-1.375 -0.02727,-0.0369 -0.03468,-0.0885 -0.0625,-0.125 -7.995405,-14.83553 -8.203318,-33.38646 0.937502,-49.125 4.39011,-7.55885 10.55294,-13.757485 18.125,-18.124995 3.99419,-2.1733 6.08781,-7.30095 4.78125,-11.65625 -1.22499,-4.08321 -5.32039,-7.082797 -9.5625,-7.125005 z"
     style="color:#000000;font-style:normal;font-variant:normal;font-weight:normal;font-stretch:normal;font-size:medium;line-height:normal;font-family:Sans;-inkscape-font-specification:Sans;text-indent:0;text-align:start;text-decoration:none;text-decoration-line:none;letter-spacing:normal;word-spacing:normal;text-transform:none;writing-mode:lr-tb;direction:ltr;baseline-shift:baseline;text-anchor:start;display:inline;overflow:visible;visibility:visible;fill:#ffffff;fill-opacity:1;stroke:none;stroke-width:2.33333;marker:none;enable-background:new"
     id="path1602"
     sodipodi:nodetypes="sssssssccccccssscccscssssscssssscsscssssccsccccsccccccsssccccssccccccscscccc" />
  <path
     id="rect899"
     style="fill:#000000;stroke:none;stroke-width:4;opacity:0.5"
     d="M 56,16 C 33.840066,16 16,33.840066 16,56 v 144 c 0,22.15994 17.840066,40 40,40 h 144 c 22.15994,0 40,-17.84006 40,-40 V 56 C 240,33.840066 222.15994,16 200,16 Z m 0,1 h 144 c 21.60598,0 39,17.394022 39,39 v 144 c 0,21.60598 -17.39402,39 -39,39 H 56 C 34.394022,239 17,221.60598 17,200 V 56 C 17,34.394022 34.394022,17 56,17 Z" />
  <path
     id="rect441"
     style="opacity:0.3;fill:#ffffff"
     d="m 17,199 v 1 c 0,21.60598 17.394022,39 39,39 h 144 c 21.60598,0 39,-17.39402 39,-39 v -1 c 0,21.60598 -17.39402,39 -39,39 H 56 C 34.394022,238 17,220.60598 17,199 Z" />
  <path
     id="rect443"
     style="opacity:0.3;fill:#ffffff"
     d="M 56,17 C 34.394022,17 17,34.394022 17,56 v 1 C 17,35.394022 34.394022,18 56,18 h 144 c 21.60598,0 39,17.394022 39,39 V 56 C 239,34.394022 221.60598,17 200,17 Z" />
</svg>
