<?xml version="1.0" encoding="UTF-8" standalone="no"?>
<!-- Created with Inkscape (http://www.inkscape.org/) -->

<svg
   width="16"
   height="16"
   viewBox="0 0 16 16"
   version="1.1"
   id="svg5"
   inkscape:version="1.2 (1:1.2+202206011326+fc4e4096c5)"
   sodipodi:docname="go-top-symbolic.svg"
   xmlns:inkscape="http://www.inkscape.org/namespaces/inkscape"
   xmlns:sodipodi="http://sodipodi.sourceforge.net/DTD/sodipodi-0.dtd"
   xmlns="http://www.w3.org/2000/svg"
   xmlns:svg="http://www.w3.org/2000/svg">
  <sodipodi:namedview
     id="namedview7"
     pagecolor="#ffffff"
     bordercolor="#666666"
     borderopacity="1.0"
     inkscape:showpageshadow="2"
     inkscape:pageopacity="0.0"
     inkscape:pagecheckerboard="0"
     inkscape:deskcolor="#d1d1d1"
     inkscape:document-units="px"
     showgrid="false"
     inkscape:zoom="26"
     inkscape:cx="10.019231"
     inkscape:cy="12.346154"
     inkscape:window-width="1846"
     inkscape:window-height="1053"
     inkscape:window-x="0"
     inkscape:window-y="0"
     inkscape:window-maximized="1"
     inkscape:current-layer="svg5" />
  <defs
     id="defs2" />
  <path
     d="m 4.051,9.656249 c -1e-6,-0.12781 0.04855,-0.255585 0.146484,-0.353515 L 8.5002187,4.999999 12.804907,9.302734 c 0.195867,0.195867 0.195867,0.511162 0,0.707031 -0.195869,0.195868 -0.511166,0.195871 -0.707032,0 L 9.0002187,6.9140625 V 14.5 c 0,0.277 -0.2230003,0.5 -0.5,0.5 -0.2769997,0 -0.5,-0.223 -0.5,-0.5 V 6.9140625 L 4.904516,10.009765 c -0.195877,0.19586 -0.511163,0.195869 -0.707032,0 C 4.099554,9.911831 4.051001,9.784059 4.051,9.656249 Z"
     style="stroke-width:2;stroke-linecap:round;stroke-linejoin:round"
     id="path510"
     sodipodi:nodetypes="scccsccssscccs" />
  <circle
     style="stroke-width:1.99999;stroke-linecap:round;stroke-linejoin:round"
     id="path679"
     cx="8.5"
     cy="-2.5"
     r="1.5"
     transform="scale(1,-1)" />
</svg>
