<?xml version="1.0" encoding="UTF-8" standalone="no"?>
<svg
   version="1.1"
   viewBox="0 0 128 128"
   id="svg71"
   sodipodi:docname="user-trash.svg"
   inkscape:version="1.2.1 (9c6d41e410, 2022-07-14)"
   width="128"
   height="128"
   xmlns:inkscape="http://www.inkscape.org/namespaces/inkscape"
   xmlns:sodipodi="http://sodipodi.sourceforge.net/DTD/sodipodi-0.dtd"
   xmlns:xlink="http://www.w3.org/1999/xlink"
   xmlns="http://www.w3.org/2000/svg"
   xmlns:svg="http://www.w3.org/2000/svg"
   xmlns:rdf="http://www.w3.org/1999/02/22-rdf-syntax-ns#"
   xmlns:cc="http://creativecommons.org/ns#"
   xmlns:dc="http://purl.org/dc/elements/1.1/">
  <metadata
     id="metadata75">
    <rdf:RDF>
      <cc:Work
         rdf:about="">
        <dc:format>image/svg+xml</dc:format>
        <dc:type
           rdf:resource="http://purl.org/dc/dcmitype/StillImage" />
      </cc:Work>
    </rdf:RDF>
  </metadata>
  <sodipodi:namedview
     pagecolor="#ffffff"
     bordercolor="#666666"
     borderopacity="1"
     objecttolerance="10"
     gridtolerance="10"
     guidetolerance="10"
     inkscape:pageopacity="0"
     inkscape:pageshadow="2"
     inkscape:window-width="1920"
     inkscape:window-height="1012"
     id="namedview73"
     showgrid="true"
     inkscape:zoom="1"
     inkscape:cx="28"
     inkscape:cy="64"
     inkscape:window-x="0"
     inkscape:window-y="0"
     inkscape:window-maximized="1"
     inkscape:current-layer="svg71"
     inkscape:pagecheckerboard="0"
     inkscape:showpageshadow="2"
     inkscape:deskcolor="#d1d1d1"
     showguides="false" />
  <defs
     id="defs12">
    <linearGradient
       inkscape:collect="always"
       id="linearGradient2001">
      <stop
         style="stop-color:#a7afb4;stop-opacity:1;"
         offset="0"
         id="stop1997" />
      <stop
         style="stop-color:#c2ced4;stop-opacity:1"
         offset="1"
         id="stop1999" />
    </linearGradient>
    <linearGradient
       inkscape:collect="always"
       xlink:href="#linearGradient2001"
       id="linearGradient2003"
       x1="30"
       y1="65"
       x2="10"
       y2="0"
       gradientUnits="userSpaceOnUse"
       gradientTransform="scale(2)" />
  </defs>
  <path
     id="path45"
     style="fill:url(#linearGradient2003);fill-opacity:1;stroke-width:2"
     d="m 24,32 v 80.33203 C 24,114.36336 25.784,116 28,116 h 72 c 2.216,0 4,-1.63664 4,-3.66797 V 32 Z"
     sodipodi:nodetypes="csssscc" />
  <path
     d="m 24,111.33201 v 1.00002 C 24,114.36336 25.784,116 28,116 h 72 c 2.216,0 4,-1.63664 4,-3.66797 v -1.00002 c 0,2.03133 -1.784,3.66797 -4,3.66797 H 28 c -2.216,0 -4,-1.63664 -4,-3.66797 z"
     opacity="0.2"
     stroke-width="1.91485"
     id="path69"
     sodipodi:nodetypes="csssscssc" />
  <path
     id="rect965"
     style="opacity:0.2;fill:#000000;fill-opacity:1;stroke-width:2"
     d="m 37,38 c -1.661998,0 -3,1.338002 -3,3 v 66 c 0,1.662 1.338002,3 3,3 1.661998,0 3,-1.338 3,-3 V 41 c 0,-1.661998 -1.338002,-3 -3,-3 z m 18,0 c -1.661998,0 -3,1.338002 -3,3 v 66 c 0,1.662 1.338002,3 3,3 1.661998,0 3,-1.338 3,-3 V 41 c 0,-1.661998 -1.338002,-3 -3,-3 z m 18,0 c -1.661998,0 -3,1.338002 -3,3 v 66 c 0,1.662 1.338002,3 3,3 1.661998,0 3,-1.338 3,-3 V 41 c 0,-1.661998 -1.338002,-3 -3,-3 z m 18,0 c -1.661998,0 -3,1.338002 -3,3 v 66 c 0,1.662 1.338002,3 3,3 1.661998,0 3,-1.338 3,-3 V 41 c 0,-1.661998 -1.338002,-3 -3,-3 z" />
  <path
     d="m 24,32 v 0.5 l 80,1 V 32 Z"
     fill="url(#f)"
     opacity="0.2"
     stroke-width="3.90804"
     id="path65"
     style="fill:#ffffff;fill-opacity:1"
     sodipodi:nodetypes="ccccc" />
  <path
     d="m 49.002,12 c -2.216,0 -4,1.784 -4,4 v 8 H 20.001688 c -2.216,0 -4,3.784 -4,6 v 2 h 8 80.000002 8 v -2 c 0,-2.216 -1.784,-6 -4,-6 H 83.002 v -8 c 0,-2.216 -1.784,-4 -4,-4 z m 3.933282,8 H 75.072 c 0.523986,0.03782 0.931052,0.474654 0.929688,1 v 3 h -24 v -3 c -0.0012,-0.526784 0.408028,-0.96418 0.933594,-1 z"
     style="fill:#bdc8ce;fill-opacity:1;stroke-width:2"
     id="path873"
     sodipodi:nodetypes="sscssccccsscsssccccccc" />
  <path
     sodipodi:nodetypes="ssccccccccsss"
     style="opacity:0.33;fill:#000000;fill-opacity:1;stroke-width:4"
     inkscape:connector-curvature="0"
     id="path49"
     d="m 53,19 c -1.108,0 -2,0.892 -2,2 v 3 h 1 v -3 c -0.0012,-0.526784 0.406434,-0.96418 0.932,-1 h 22.14 c 0.523986,0.03782 0.929364,0.474654 0.928,1 v 3 h 1 v -3 c 0,-1.108 -0.892,-2 -2,-2 z" />
  <path
     id="path67"
     style="opacity:0.33;fill:#000000;fill-opacity:1;stroke-width:2.82532"
     d="M 16.105469,31 16,32 h 96 v -1 z" />
</svg>
