<?xml version="1.0" encoding="UTF-8" standalone="no"?>
<!-- Created with Inkscape (http://www.inkscape.org/) -->

<svg
   width="24"
   height="24"
   viewBox="0 0 24 24"
   version="1.1"
   id="svg5"
   inkscape:version="1.2.1 (9c6d41e410, 2022-07-14)"
   sodipodi:docname="dialog-error.svg"
   xmlns:inkscape="http://www.inkscape.org/namespaces/inkscape"
   xmlns:sodipodi="http://sodipodi.sourceforge.net/DTD/sodipodi-0.dtd"
   xmlns:xlink="http://www.w3.org/1999/xlink"
   xmlns="http://www.w3.org/2000/svg"
   xmlns:svg="http://www.w3.org/2000/svg">
  <sodipodi:namedview
     id="namedview7"
     pagecolor="#ffffff"
     bordercolor="#000000"
     borderopacity="0.25"
     inkscape:showpageshadow="2"
     inkscape:pageopacity="0.0"
     inkscape:pagecheckerboard="0"
     inkscape:deskcolor="#d1d1d1"
     inkscape:document-units="px"
     showgrid="false"
     inkscape:zoom="18.068182"
     inkscape:cx="-4.0125786"
     inkscape:cy="10.377358"
     inkscape:window-width="1920"
     inkscape:window-height="1007"
     inkscape:window-x="0"
     inkscape:window-y="0"
     inkscape:window-maximized="1"
     inkscape:current-layer="svg5" />
  <defs
     id="defs2">
    <linearGradient
       inkscape:collect="always"
       xlink:href="#linearGradient5312"
       id="linearGradient2881"
       x1="29"
       y1="29"
       x2="3"
       y2="3"
       gradientUnits="userSpaceOnUse"
       gradientTransform="matrix(0.84615382,0,0,0.84615382,-1.5384612,-1.5384607)" />
    <linearGradient
       inkscape:collect="always"
       id="linearGradient5312">
      <stop
         style="stop-color:#c72222;stop-opacity:1;"
         offset="0"
         id="stop5308" />
      <stop
         style="stop-color:#cf5b5b;stop-opacity:1;"
         offset="1"
         id="stop5310" />
    </linearGradient>
  </defs>
  <circle
     style="fill:url(#linearGradient2881);fill-opacity:1.0;stroke:none;stroke-width:1.69231;stroke-linecap:round;stroke-linejoin:round;stroke-dasharray:none;stroke-opacity:1"
     id="path2873"
     cx="12"
     cy="12"
     r="11" />
  <path
     d="M 7.7578123,7.344 6.3437503,8.7580625 10.585938,13.00025 6.3437503,17.242438 7.7578123,18.6565 12,14.414313 16.242187,18.6565 17.65625,17.242437 13.414063,13.00025 17.65625,8.7580625 16.242188,7.3440003 12,11.586188 Z"
     style="fill:#000000;stroke-linecap:round;stroke-linejoin:round;opacity:0.2"
     id="path1544" />
  <path
     id="rect848"
     style="opacity:1;fill:#ffffff;stroke-linecap:round;stroke-linejoin:round"
     d="m 0.99989318,9.9713105 h -1.99978636 l 0,5.9993595 H -6.9992523 l 0,1.999786 h 5.99935912 v 5.999359 h 1.99978636 l 0,-5.999359 H 6.9992523 l 0,-1.999786 -5.99935912,0 z"
     transform="rotate(-45)"
     sodipodi:nodetypes="ccccccccccccc" />
  <path
     id="path654"
     style="opacity:0.2;fill:#ffffff;stroke-width:3;stroke-linecap:round;stroke-linejoin:round"
     d="M 12,1 A 11,11 0 0 0 1,12 11,11 0 0 0 1.0351562,12.5 11,11 0 0 1 12,2 11,11 0 0 1 22.976562,12.328125 11,11 0 0 0 23,12 11,11 0 0 0 12,1 Z" />
</svg>
