<?xml version="1.0" encoding="UTF-8" standalone="no"?>
<!-- Created with Inkscape (http://www.inkscape.org/) -->

<svg
   width="256"
   height="256"
   viewBox="0 0 256 256.00001"
   version="1.1"
   id="svg5"
   sodipodi:docname="bluetooth.svg"
   inkscape:version="1.2.1 (9c6d41e410, 2022-07-14)"
   xmlns:inkscape="http://www.inkscape.org/namespaces/inkscape"
   xmlns:sodipodi="http://sodipodi.sourceforge.net/DTD/sodipodi-0.dtd"
   xmlns:xlink="http://www.w3.org/1999/xlink"
   xmlns="http://www.w3.org/2000/svg"
   xmlns:svg="http://www.w3.org/2000/svg">
  <sodipodi:namedview
     id="namedview7"
     pagecolor="#ffffff"
     bordercolor="#666666"
     borderopacity="1.0"
     inkscape:showpageshadow="2"
     inkscape:pageopacity="0.0"
     inkscape:pagecheckerboard="0"
     inkscape:deskcolor="#d1d1d1"
     inkscape:document-units="px"
     showgrid="false"
     inkscape:zoom="1"
     inkscape:cx="129.5"
     inkscape:cy="128.5"
     inkscape:window-width="1920"
     inkscape:window-height="1007"
     inkscape:window-x="0"
     inkscape:window-y="0"
     inkscape:window-maximized="1"
     inkscape:current-layer="svg5" />
  <defs
     id="defs2">
    <linearGradient
       inkscape:collect="always"
       xlink:href="#linearGradient2466"
       id="linearGradient3525"
       x1="49.757847"
       y1="59.623318"
       x2="14.242153"
       y2="4.3766818"
       gradientUnits="userSpaceOnUse"
       gradientTransform="matrix(4.0545454,0,0,4.0545454,-1.745455,-1.745455)" />
    <linearGradient
       inkscape:collect="always"
       id="linearGradient2466">
      <stop
         style="stop-color:#366ecb;stop-opacity:1;"
         offset="0"
         id="stop2462" />
      <stop
         style="stop-color:#3694cb;stop-opacity:1;"
         offset="1"
         id="stop2464" />
    </linearGradient>
  </defs>
  <rect
     style="fill:url(#linearGradient3525);fill-opacity:1.0;stroke:none;stroke-width:4.05454"
     id="rect184"
     width="223"
     height="223"
     x="16.5"
     y="16.5"
     ry="39.5" />
  <path
     d="m 125.867,44.351101 c -2.32852,0.88524 -3.86776,3.11724 -3.86776,5.60832 V 113.89786 L 83.707319,81.23934 c -2.6057,-2.0472 -6.3776,-1.59468 -8.42492,1.011 -2.04736,2.60568 -1.59472,6.37752 1.011,8.42484 l 44.175561,37.28092 -44.175561,37.28336 c -2.60572,2.0472 -3.05836,5.8188 -1.011,8.424 2.04732,2.6064 5.81922,3.0588 8.42492,1.0116 L 121.99924,142.0153 v 63.94008 c 0,2.4912 1.53924,4.7232 3.86776,5.6088 2.3285,0.8856 4.96182,0.24 6.61688,-1.6224 l 48.00056,-41.99928 c 1.09908,-1.236 1.63898,-2.8716 1.49174,-4.5204 -0.1472,-1.6476 -0.9684,-3.162 -2.26934,-4.1832 l -39.81408,-31.2828 39.81408,-31.28162 c 1.30094,-1.02216 2.1221,-2.5362 2.26934,-4.18404 0.1472,-1.64796 -0.39264,-3.28344 -1.49174,-4.52004 L 132.48388,45.972781 c -1.87486,-1.640388 -4.28838,-2.5074 -6.61688,-1.62216 z m 8.13238,94.236039 30.87768,26.148 -30.87768,25.43924 z m 0,-21.2616 V 65.7399 l 30.87768,25.43762 z"
     style="opacity:0.2;fill:#000000;stroke-width:12.0001"
     id="path528" />
  <path
     d="m 125.867,43.353627 c -2.32852,0.88524 -3.86776,3.11724 -3.86776,5.60832 V 112.90038 L 83.707319,80.24186 c -2.6057,-2.0472 -6.3776,-1.59468 -8.42492,1.011 -2.04736,2.60568 -1.59472,6.37752 1.011,8.42484 L 120.46896,126.95862 76.293399,164.242 c -2.60572,2.0472 -3.05836,5.8188 -1.011,8.424 2.04732,2.6064 5.81922,3.0588 8.42492,1.0116 l 38.291921,-32.65978 v 63.94006 c 0,2.4912 1.53924,4.7232 3.86776,5.6088 2.3285,0.8856 4.96182,0.24 6.61688,-1.6224 l 48.00056,-41.99926 c 1.09908,-1.236 1.63898,-2.8716 1.49174,-4.5204 -0.1472,-1.6476 -0.9684,-3.162 -2.26934,-4.1832 L 139.89276,126.95862 179.70684,95.677 c 1.30094,-1.02216 2.1221,-2.5362 2.26934,-4.18404 0.1472,-1.64796 -0.39264,-3.28344 -1.49174,-4.52004 L 132.48388,44.975307 c -1.87486,-1.640388 -4.28838,-2.507396 -6.61688,-1.62216 z m 8.13238,94.236033 30.87768,26.148 -30.87768,25.43926 z m 0,-21.2616 V 64.74242 l 30.87768,25.43762 z"
     id="path346"
     sodipodi:nodetypes="csccsccccccssccccccscscccccccccc"
     style="fill:#ffffff;stroke-width:12.0001" />
  <path
     id="rect899"
     style="fill:#000000;stroke:none;stroke-width:4;opacity:0.5"
     d="M 56,16 C 33.840066,16 16,33.840066 16,56 v 144 c 0,22.15994 17.840066,40 40,40 h 144 c 22.15994,0 40,-17.84006 40,-40 V 56 C 240,33.840066 222.15994,16 200,16 Z m 0,1 h 144 c 21.60598,0 39,17.394022 39,39 v 144 c 0,21.60598 -17.39402,39 -39,39 H 56 C 34.394022,239 17,221.60598 17,200 V 56 C 17,34.394022 34.394022,17 56,17 Z" />
  <path
     id="rect441"
     style="opacity:0.3;fill:#ffffff"
     d="m 17,199 v 1 c 0,21.60598 17.394022,39 39,39 h 144 c 21.60598,0 39,-17.39402 39,-39 v -1 c 0,21.60598 -17.39402,39 -39,39 H 56 C 34.394022,238 17,220.60598 17,199 Z" />
  <path
     id="rect443"
     style="opacity:0.3;fill:#ffffff"
     d="M 56,17 C 34.394022,17 17,34.394022 17,56 v 1 C 17,35.394022 34.394022,18 56,18 h 144 c 21.60598,0 39,17.394022 39,39 V 56 C 239,34.394022 221.60598,17 200,17 Z" />
</svg>
