<?xml version="1.0" encoding="UTF-8" standalone="no"?>
<!-- Created with Inkscape (http://www.inkscape.org/) -->

<svg
   width="256"
   height="256"
   viewBox="0 0 256 256"
   version="1.1"
   id="svg5"
   inkscape:version="1.2.1 (9c6d41e410, 2022-07-14)"
   sodipodi:docname="drive-removable-media.svg"
   xmlns:inkscape="http://www.inkscape.org/namespaces/inkscape"
   xmlns:sodipodi="http://sodipodi.sourceforge.net/DTD/sodipodi-0.dtd"
   xmlns:xlink="http://www.w3.org/1999/xlink"
   xmlns="http://www.w3.org/2000/svg"
   xmlns:svg="http://www.w3.org/2000/svg">
  <sodipodi:namedview
     id="namedview7"
     pagecolor="#ffffff"
     bordercolor="#000000"
     borderopacity="0.25"
     inkscape:showpageshadow="2"
     inkscape:pageopacity="0.0"
     inkscape:pagecheckerboard="0"
     inkscape:deskcolor="#d1d1d1"
     inkscape:document-units="px"
     showgrid="false"
     inkscape:zoom="3.09375"
     inkscape:cx="127.83838"
     inkscape:cy="128"
     inkscape:window-width="1920"
     inkscape:window-height="1007"
     inkscape:window-x="0"
     inkscape:window-y="0"
     inkscape:window-maximized="1"
     inkscape:current-layer="svg5" />
  <defs
     id="defs2">
    <linearGradient
       inkscape:collect="always"
       id="linearGradient1082">
      <stop
         style="stop-color:#aaaaaa;stop-opacity:1;"
         offset="0"
         id="stop1078" />
      <stop
         style="stop-color:#c9c9c9;stop-opacity:1;"
         offset="1"
         id="stop1080" />
    </linearGradient>
    <linearGradient
       inkscape:collect="always"
       xlink:href="#linearGradient1082"
       id="linearGradient1084"
       x1="48.267357"
       y1="58.954266"
       x2="16.794668"
       y2="3.8770599"
       gradientUnits="userSpaceOnUse"
       gradientTransform="matrix(4.0670181,0,0,4.0670181,-4.304219,0.231927)" />
  </defs>
  <rect
     style="fill:url(#linearGradient1084);fill-opacity:1;stroke-width:4.06702;stroke-linejoin:round"
     id="rect499"
     width="167"
     height="223"
     x="44.5"
     y="16.5"
     ry="19.5" />
  <path
     d="m 88,137 h 80 v 16 H 88 Z m 40,-64 40,48 H 88 Z"
     style="opacity:0.2;fill:#000000;fill-opacity:1;stroke-width:4"
     id="path1092" />
  <path
     d="m 88,136 h 80 v 16 H 88 Z m 40,-64 40,48 H 88 Z"
     style="fill:#707070;fill-opacity:1;stroke-width:4"
     id="path352"
     sodipodi:nodetypes="ccccccccc" />
  <path
     id="rect1864"
     style="opacity:0.5;fill:#000000;fill-opacity:1;stroke-width:4;stroke-linejoin:round"
     d="M 64,16 C 52.920035,16 44,24.920033 44,36 v 184 c 0,11.07995 8.920035,20 20,20 h 128 c 11.07997,0 20,-8.92005 20,-20 V 36 c 0,-11.079967 -8.92003,-20 -20,-20 z m 0,1 h 128 c 10.52599,0 19,8.474011 19,19 v 184 c 0,10.52599 -8.47401,19 -19,19 H 64 C 53.474011,239 45,230.52599 45,220 V 36 C 45,25.474011 53.474011,17 64,17 Z" />
  <path
     d="m 64,239 c -10.525989,0 -19,-8.47401 -19,-19 v -1 c 0,10.52599 8.474011,19 19,19 h 128 c 10.52599,0 19,-8.47401 19,-19 v 1 c 0,10.52599 -8.47401,19 -19,19 z"
     style="opacity:0.3;fill:#ffffff;stroke-linejoin:round"
     id="path19094" />
  <path
     id="rect19051"
     style="opacity:0.3;fill:#ffffff;stroke-linejoin:round"
     d="M 64,17 C 53.474011,17 45,25.474011 45,36 v 1 C 45,26.474011 53.474011,18 64,18 h 128 c 10.52599,0 19,8.474011 19,19 v -1 c 0,-10.525989 -8.47401,-19 -19,-19 z"
     sodipodi:nodetypes="sscsscsss" />
</svg>
