<?xml version="1.0" encoding="UTF-8" standalone="no"?>
<!-- Created with Inkscape (http://www.inkscape.org/) -->

<svg
   width="256"
   height="256"
   viewBox="0 0 256 256"
   version="1.1"
   id="svg5"
   inkscape:version="1.2.1 (9c6d41e410, 2022-07-14)"
   sodipodi:docname="drive-harddisk-ieee1394.svg"
   xmlns:inkscape="http://www.inkscape.org/namespaces/inkscape"
   xmlns:sodipodi="http://sodipodi.sourceforge.net/DTD/sodipodi-0.dtd"
   xmlns:xlink="http://www.w3.org/1999/xlink"
   xmlns="http://www.w3.org/2000/svg"
   xmlns:svg="http://www.w3.org/2000/svg">
  <sodipodi:namedview
     id="namedview7"
     pagecolor="#ffffff"
     bordercolor="#000000"
     borderopacity="0.25"
     inkscape:showpageshadow="2"
     inkscape:pageopacity="0.0"
     inkscape:pagecheckerboard="0"
     inkscape:deskcolor="#d1d1d1"
     inkscape:document-units="px"
     showgrid="false"
     inkscape:zoom="3.09375"
     inkscape:cx="127.83838"
     inkscape:cy="128"
     inkscape:window-width="1920"
     inkscape:window-height="1007"
     inkscape:window-x="0"
     inkscape:window-y="0"
     inkscape:window-maximized="1"
     inkscape:current-layer="svg5" />
  <defs
     id="defs2">
    <linearGradient
       inkscape:collect="always"
       id="linearGradient1082">
      <stop
         style="stop-color:#aaaaaa;stop-opacity:1;"
         offset="0"
         id="stop1078" />
      <stop
         style="stop-color:#c9c9c9;stop-opacity:1;"
         offset="1"
         id="stop1080" />
    </linearGradient>
    <linearGradient
       inkscape:collect="always"
       xlink:href="#linearGradient1082"
       id="linearGradient1084"
       x1="48.267357"
       y1="58.954266"
       x2="16.794668"
       y2="3.8770599"
       gradientUnits="userSpaceOnUse"
       gradientTransform="matrix(4.0670181,0,0,4.0670181,-4.304219,0.231927)" />
  </defs>
  <rect
     style="fill:url(#linearGradient1084);fill-opacity:1;stroke-width:4.06702;stroke-linejoin:round"
     id="rect499"
     width="167"
     height="223"
     x="44.5"
     y="16.5"
     ry="19.5" />
  <path
     d="M 91.21665,65.344 68.584,87.976644 77.076126,96.460954 99.70096,73.828308 Z m 73.53852,0 -22.63265,22.632644 22.63265,22.624826 L 187.38,87.976644 Z m -59.398,14.14833 -22.624834,22.62483 8.484314,8.48431 22.62483,-22.624826 z m 22.64046,21.50765 c -13.25472,0 -23.99983,10.74511 -23.99983,23.99982 0,13.25473 10.74511,23.99982 23.99983,23.99982 13.25471,0 23.99982,-10.74511 23.99982,-23.99982 0,-13.25471 -10.74511,-23.99982 -23.99982,-23.99982 z m 0,7.99994 c 8.83647,0 15.99988,7.16341 15.99988,15.99988 0,8.83648 -7.16341,15.99989 -15.99988,15.99989 -8.83648,0 -15.99989,-7.16341 -15.99989,-15.99989 0,-8.83647 7.16341,-15.99988 15.99989,-15.99988 z m -15.99989,51.99961 v 11.99991 h 31.99977 v -11.99991 z m 0,19.99985 v 11.99991 h 31.99977 v -11.99991 z"
     style="opacity:0.2;fill:#000000;fill-opacity:1;stroke-width:3.99996"
     id="path11710" />
  <path
     id="path11628"
     style="fill:#707070;fill-opacity:1;stroke-width:3.99996"
     d="M 91.21665,64.344 68.584,86.976646 77.076126,95.460956 99.70096,72.82831 Z m 73.53852,0 -22.63265,22.632646 22.63265,22.624834 L 187.38,86.976646 Z m -59.398,14.148332 -22.624834,22.624828 8.484314,8.48432 22.62483,-22.624834 z m 22.64046,21.507654 c -13.25472,0 -23.99983,10.745104 -23.99983,23.999824 0,13.25471 10.74511,23.99982 23.99983,23.99982 13.25471,0 23.99982,-10.74511 23.99982,-23.99982 0,-13.25472 -10.74511,-23.999824 -23.99982,-23.999824 z m 0,7.999944 c 8.83647,0 15.99988,7.1634 15.99988,15.99988 0,8.83647 -7.16341,15.99987 -15.99988,15.99987 -8.83648,0 -15.99989,-7.1634 -15.99989,-15.99987 0,-8.83648 7.16341,-15.99988 15.99989,-15.99988 z m -15.99989,51.9996 v 11.99991 h 31.99977 v -11.99991 z m 0,19.99986 v 11.99991 h 31.99977 v -11.99991 z"
     sodipodi:nodetypes="cccccccccccccccsssssssssscccccccccc" />
  <path
     id="rect1864"
     style="opacity:0.5;fill:#000000;fill-opacity:1;stroke-width:4;stroke-linejoin:round"
     d="M 64,16 C 52.920035,16 44,24.920033 44,36 v 184 c 0,11.07995 8.920035,20 20,20 h 128 c 11.07997,0 20,-8.92005 20,-20 V 36 c 0,-11.079967 -8.92003,-20 -20,-20 z m 0,1 h 128 c 10.52599,0 19,8.474011 19,19 v 184 c 0,10.52599 -8.47401,19 -19,19 H 64 C 53.474011,239 45,230.52599 45,220 V 36 C 45,25.474011 53.474011,17 64,17 Z" />
  <path
     d="m 64,239 c -10.525989,0 -19,-8.47401 -19,-19 v -1 c 0,10.52599 8.474011,19 19,19 h 128 c 10.52599,0 19,-8.47401 19,-19 v 1 c 0,10.52599 -8.47401,19 -19,19 z"
     style="opacity:0.3;fill:#ffffff;stroke-linejoin:round"
     id="path19094" />
  <path
     id="rect19051"
     style="opacity:0.3;fill:#ffffff;stroke-linejoin:round"
     d="M 64,17 C 53.474011,17 45,25.474011 45,36 v 1 C 45,26.474011 53.474011,18 64,18 h 128 c 10.52599,0 19,8.474011 19,19 v -1 c 0,-10.525989 -8.47401,-19 -19,-19 z"
     sodipodi:nodetypes="sscsscsss" />
</svg>
