<?xml version="1.0" encoding="UTF-8" standalone="no"?>
<!-- Created with Inkscape (http://www.inkscape.org/) -->

<svg
   width="64"
   height="64"
   viewBox="0 0 64 64"
   version="1.1"
   id="svg5"
   inkscape:version="1.2.1 (9c6d41e410, 2022-07-14)"
   sodipodi:docname="drive-removable-media.svg"
   xmlns:inkscape="http://www.inkscape.org/namespaces/inkscape"
   xmlns:sodipodi="http://sodipodi.sourceforge.net/DTD/sodipodi-0.dtd"
   xmlns:xlink="http://www.w3.org/1999/xlink"
   xmlns="http://www.w3.org/2000/svg"
   xmlns:svg="http://www.w3.org/2000/svg">
  <sodipodi:namedview
     id="namedview7"
     pagecolor="#ffffff"
     bordercolor="#000000"
     borderopacity="0.25"
     inkscape:showpageshadow="2"
     inkscape:pageopacity="0.0"
     inkscape:pagecheckerboard="0"
     inkscape:deskcolor="#d1d1d1"
     inkscape:document-units="px"
     showgrid="false"
     inkscape:zoom="14.142857"
     inkscape:cx="32.065657"
     inkscape:cy="32.030303"
     inkscape:window-width="1920"
     inkscape:window-height="1007"
     inkscape:window-x="0"
     inkscape:window-y="0"
     inkscape:window-maximized="1"
     inkscape:current-layer="svg5" />
  <defs
     id="defs2">
    <linearGradient
       inkscape:collect="always"
       id="linearGradient1082">
      <stop
         style="stop-color:#aaaaaa;stop-opacity:1;"
         offset="0"
         id="stop1078" />
      <stop
         style="stop-color:#c9c9c9;stop-opacity:1;"
         offset="1"
         id="stop1080" />
    </linearGradient>
    <linearGradient
       inkscape:collect="always"
       xlink:href="#linearGradient1082"
       id="linearGradient1084"
       x1="48.5"
       y1="59.5"
       x2="16.5"
       y2="3.5"
       gradientUnits="userSpaceOnUse"
       gradientTransform="translate(-0.5,0.5)" />
  </defs>
  <rect
     style="fill:url(#linearGradient1084);fill-opacity:1;stroke-linejoin:round"
     id="rect499"
     width="41"
     height="55"
     x="11.5"
     y="4.5"
     ry="4.5" />
  <path
     d="m 22,35 h 20 v 4 H 22 Z M 32,19 42,31 H 22 Z"
     style="fill:#000000;fill-opacity:1;opacity:0.2"
     id="path1092" />
  <path
     d="m 22,34 h 20 v 4 H 22 Z M 32,18 42,30 H 22 Z"
     style="opacity:1;fill:#707070;fill-opacity:1"
     id="path352"
     sodipodi:nodetypes="ccccccccc" />
  <path
     id="rect1864"
     style="opacity:0.5;fill:#000000;fill-opacity:1;stroke-linejoin:round"
     d="m 16,4 c -2.769997,0 -5,2.2300028 -5,5 v 46 c 0,2.769997 2.230003,5 5,5 h 32 c 2.769997,0 5,-2.230003 5,-5 V 9 C 53,6.2300028 50.769997,4 48,4 Z m 0,1 h 32 c 2.215998,0 4,1.7840022 4,4 v 46 c 0,2.215998 -1.784002,4 -4,4 H 16 c -2.215998,0 -4,-1.784002 -4,-4 V 9 c 0,-2.2159978 1.784002,-4 4,-4 z"
     sodipodi:nodetypes="ssssssssssssssssss" />
  <path
     id="rect2772"
     style="opacity:0.3;fill:#ffffff;fill-opacity:1;stroke-linejoin:round"
     d="m 16,5 c -2.215998,0 -4,1.7840022 -4,4 v 1 c 0,-2.2159978 1.784002,-4 4,-4 h 32 c 2.215998,0 4,1.7840022 4,4 V 9 C 52,6.7840022 50.215998,5 48,5 Z"
     sodipodi:nodetypes="sscsscsss" />
  <path
     d="m 16,59 c -2.215998,0 -4,-1.784002 -4,-4 v -1 c 0,2.215998 1.784002,4 4,4 h 32 c 2.215998,0 4,-1.784002 4,-4 v 1 c 0,2.215998 -1.784002,4 -4,4 z"
     style="opacity:0.3;fill:#ffffff;fill-opacity:1;stroke-linejoin:round"
     id="path3694" />
</svg>
