<?xml version="1.0" encoding="UTF-8" standalone="no"?>
<!-- Created with Inkscape (http://www.inkscape.org/) -->

<svg
   width="24"
   height="24"
   viewBox="0 0 24 24"
   version="1.1"
   id="svg5"
   inkscape:version="1.2.1 (9c6d41e410, 2022-07-14)"
   sodipodi:docname="application-x-plasma.svg"
   xmlns:inkscape="http://www.inkscape.org/namespaces/inkscape"
   xmlns:sodipodi="http://sodipodi.sourceforge.net/DTD/sodipodi-0.dtd"
   xmlns="http://www.w3.org/2000/svg"
   xmlns:svg="http://www.w3.org/2000/svg">
  <sodipodi:namedview
     id="namedview7"
     pagecolor="#ffffff"
     bordercolor="#000000"
     borderopacity="0.25"
     inkscape:showpageshadow="2"
     inkscape:pageopacity="0.0"
     inkscape:pagecheckerboard="0"
     inkscape:deskcolor="#d1d1d1"
     inkscape:document-units="px"
     showgrid="false"
     inkscape:zoom="32.916667"
     inkscape:cx="12"
     inkscape:cy="12"
     inkscape:window-width="1920"
     inkscape:window-height="1012"
     inkscape:window-x="0"
     inkscape:window-y="0"
     inkscape:window-maximized="1"
     inkscape:current-layer="svg5" />
  <defs
     id="defs2" />
  <rect
     style="opacity:0.3;fill:#000000;fill-opacity:1;stroke-linejoin:round"
     id="rect234"
     width="18"
     height="22"
     x="3"
     y="1"
     ry="0.5" />
  <rect
     style="fill:#fafafa;fill-opacity:1;stroke-width:2.31345;stroke-linejoin:round"
     id="rect2307"
     width="16"
     height="20"
     x="4"
     y="2" />
  <path
     id="path360"
     style="fill:#3daee9;fill-opacity:1"
     d="m 9.1992191,6.0000001 c -0.443199,0 -0.798828,0.3575822 -0.798828,0.8007812 0,0.4431992 0.355629,0.7988282 0.798828,0.7988282 C 9.6424181,7.5996095 10,7.2439805 10,6.8007813 10,6.3575823 9.6424181,6.0000001 9.1992191,6.0000001 Z m 4.5156249,0 L 12,7.5996095 14.572266,9.9999999 12,12.400391 13.714844,14 18,9.9999999 Z M 7.0000001,11 c -0.5539951,0 -1,0.445998 -1,1 0,0.553996 0.4460049,1 1,1 0.554003,0 1,-0.446004 1,-1 0,-0.554002 -0.445997,-1 -1,-1 z M 10.5,15 c -0.8309989,0 -1.4999999,0.669002 -1.4999999,1.5 0,0.830998 0.669001,1.5 1.4999999,1.5 C 11.330999,18 12,17.330998 12,16.5 12,15.669002 11.330999,15 10.5,15 Z" />
</svg>
