<?xml version="1.0" encoding="UTF-8" standalone="no"?>
<!-- Created with Inkscape (http://www.inkscape.org/) -->

<svg
   width="24"
   height="24"
   viewBox="0 0 24 24"
   version="1.1"
   id="svg4041"
   sodipodi:docname="application-x-java-archive.svg"
   inkscape:version="1.2.1 (9c6d41e410, 2022-07-14)"
   xmlns:inkscape="http://www.inkscape.org/namespaces/inkscape"
   xmlns:sodipodi="http://sodipodi.sourceforge.net/DTD/sodipodi-0.dtd"
   xmlns="http://www.w3.org/2000/svg"
   xmlns:svg="http://www.w3.org/2000/svg">
  <sodipodi:namedview
     id="namedview4043"
     pagecolor="#ffffff"
     bordercolor="#000000"
     borderopacity="0.25"
     inkscape:showpageshadow="2"
     inkscape:pageopacity="0.0"
     inkscape:pagecheckerboard="0"
     inkscape:deskcolor="#d1d1d1"
     inkscape:document-units="px"
     showgrid="false"
     showguides="false"
     inkscape:zoom="33.125"
     inkscape:cx="12"
     inkscape:cy="12"
     inkscape:window-width="1920"
     inkscape:window-height="1007"
     inkscape:window-x="0"
     inkscape:window-y="0"
     inkscape:window-maximized="1"
     inkscape:current-layer="svg4041" />
  <defs
     id="defs4038" />
  <rect
     style="opacity:0.6;fill:#808080;fill-opacity:1;stroke-width:3;stroke-linecap:round;stroke-linejoin:round"
     id="rect4577"
     width="20"
     height="18"
     x="2"
     y="3"
     ry="1" />
  <rect
     style="opacity:1;fill:#e6e6e6;fill-opacity:1;stroke-width:3;stroke-linecap:round;stroke-linejoin:round"
     id="rect4891"
     width="18"
     height="16"
     x="3"
     y="4" />
  <path
     d="m 13.502391,4 c 0.670449,2.6413096 -2.365171,3.4379925 -3.460667,5.0829363 -0.7460099,1.1207667 0.366333,2.3270517 1.882665,3.6950247 -0.591304,-1.336687 -2.5974609,-2.507952 0,-4.5595406 C 15.163383,5.6618723 13.502391,4 13.502391,4 Z m 2.002446,3.2679739 c 3.5e-5,0 -5.474801,1.3683503 -2.85915,4.3824711 0.772163,0.888848 -0.203109,1.687368 -0.203109,1.687368 0,0 1.959525,-1.01136 1.059813,-2.278468 -0.84061,-1.1811087 -1.486586,-1.7679547 2.002446,-3.7913711 z"
     style="clip-rule:evenodd;fill:#df9043;fill-opacity:1;fill-rule:evenodd;stroke-width:0.273961"
     id="path5259" />
  <path
     d="m 16.392483,12.653538 c -0.167745,0.0087 -0.343716,0.04362 -0.523398,0.106765 -0.168076,0.05949 -0.255188,0.197902 -0.255188,0.197902 0,0 0.104205,-0.0443 0.34112,-0.09374 0.968796,-0.201871 2.358623,1.297109 -0.643179,2.856547 -0.01391,0.03717 -0.05993,0.08073 -0.05989,0.08073 3.632546,-0.954916 2.762056,-3.231369 1.140536,-3.14819 z m -6.4968889,0.15103 c -0.38271,0.01 -1.2763114,0.09259 -2.3175274,0.596308 -1.6423246,0.794107 4.0619003,1.156908 7.0150763,0.38018 0.307018,-0.209516 0.72911,-0.390595 0.72911,-0.390595 0,0 -1.207759,0.214072 -2.411269,0.315079 C 11.437935,13.82913 9.8581161,13.855946 9.0649301,13.7498 7.186971,13.498736 10.0961,12.807166 10.0961,12.807166 c 0,0 -0.07294,-0.006 -0.2005059,-0.0027 z m -0.476525,1.817567 c -2.7091546,0.899147 1.5075049,1.919966 5.2938569,0.812437 -0.402291,-0.141812 -0.658803,-0.40101 -0.658803,-0.40101 -1.851273,0.35628 -2.921253,0.342938 -4.2757059,0.203108 -1.047153,-0.108232 -0.359348,-0.614535 -0.359348,-0.614535 z m 0.382783,1.749863 C 7.3419217,17.059329 11.296946,18.47949 14.429093,17.137564 13.9161,16.938206 13.548954,16.70791 13.548954,16.70791 12.15221,16.971934 11.504564,16.993274 10.236714,16.848524 9.1903401,16.728507 9.8018521,16.371998 9.8018521,16.371998 Z m -1.7108034,1.161368 c -1.1046767,0.03408 -3.2646737,1.028233 -1.2889628,1.348852 6.3855841,1.03505 11.6397221,-0.466163 9.9835941,-1.213446 0,0 0.453178,0.373039 -0.497356,0.661407 -1.80746,0.547464 -7.5234089,0.711526 -9.1112674,0.02084 -0.5703985,-0.248444 0.4991611,-0.591282 0.8358721,-0.664011 0.35108,-0.07595 0.55204,-0.06249 0.55204,-0.06249 -0.09919,-0.06985 -0.269351,-0.09745 -0.47392,-0.09114 z m 9.7101773,0.950446 c 0,0 -0.202959,0.51697 -2.382626,0.927012 -2.459011,0.46295 -5.4925549,0.408937 -7.2910973,0.111964 0,0 0.369562,0.305199 2.2628453,0.427051 2.880729,0.184174 7.306155,-0.102805 7.410878,-1.466032 z"
     style="clip-rule:evenodd;fill:#65768d;fill-opacity:1;fill-rule:evenodd;stroke-width:0.273961"
     id="path6867" />
</svg>
