<?xml version="1.0" encoding="UTF-8" standalone="no"?>
<!-- Created with Inkscape (http://www.inkscape.org/) -->

<svg
   width="24"
   height="24"
   viewBox="0 0 24 24"
   version="1.1"
   id="svg5"
   inkscape:version="1.2.1 (9c6d41e410, 2022-07-14)"
   sodipodi:docname="application-x-theme.svg"
   xmlns:inkscape="http://www.inkscape.org/namespaces/inkscape"
   xmlns:sodipodi="http://sodipodi.sourceforge.net/DTD/sodipodi-0.dtd"
   xmlns="http://www.w3.org/2000/svg"
   xmlns:svg="http://www.w3.org/2000/svg">
  <sodipodi:namedview
     id="namedview7"
     pagecolor="#ffffff"
     bordercolor="#000000"
     borderopacity="0.25"
     inkscape:showpageshadow="2"
     inkscape:pageopacity="0.0"
     inkscape:pagecheckerboard="0"
     inkscape:deskcolor="#d1d1d1"
     inkscape:document-units="px"
     showgrid="false"
     inkscape:zoom="11.637799"
     inkscape:cx="-16.283148"
     inkscape:cy="14.134975"
     inkscape:window-width="1920"
     inkscape:window-height="1007"
     inkscape:window-x="0"
     inkscape:window-y="0"
     inkscape:window-maximized="1"
     inkscape:current-layer="svg5" />
  <defs
     id="defs2" />
  <rect
     style="opacity:0.3;fill:#000000;fill-opacity:1;stroke-linejoin:round"
     id="rect234"
     width="18"
     height="22"
     x="3"
     y="1"
     ry="0.5" />
  <rect
     style="fill:#fafafa;fill-opacity:1;stroke-width:2.31345;stroke-linejoin:round"
     id="rect2307"
     width="16"
     height="20"
     x="4"
     y="2" />
  <path
     d="m 16.695723,7.0045244 c -0.752898,-0.094906 -2.716917,1.2513314 -4.652552,3.1877306 -0.86318,0.863701 -1.61231,1.717224 -2.1860718,2.522282 0.6724588,0.214247 1.2144158,0.755847 1.4285498,1.42855 0.804752,-0.573927 1.660212,-1.319795 2.523677,-2.183281 2.196055,-2.1969663 3.580703,-4.3733914 3.092867,-4.8618124 -0.05015,-0.0505 -0.11855,-0.082192 -0.20647,-0.093469 z M 9.4999621,13.664579 v 0.0014 c -2.4998272,0.670162 -0.6250951,2.25316 -2.4999622,3.334215 2.4998272,0 3.7499431,-1.251283 3.7499431,-2.085627 0,-0.415907 0.04239,-1.180767 -1.2499809,-1.249981 z"
     style="color:#444444;fill:#a47fdc;fill-opacity:1;stroke-width:0.714271"
     id="path347"
     sodipodi:nodetypes="ccccccccccscc" />
</svg>
