<?xml version="1.0" encoding="UTF-8" standalone="no"?>
<!-- Created with Inkscape (http://www.inkscape.org/) -->

<svg
   width="24"
   height="24"
   viewBox="0 0 24 24"
   version="1.1"
   id="svg5"
   inkscape:version="1.2.1 (9c6d41e410, 2022-07-14)"
   sodipodi:docname="application-x-sqlite2.svg"
   xmlns:inkscape="http://www.inkscape.org/namespaces/inkscape"
   xmlns:sodipodi="http://sodipodi.sourceforge.net/DTD/sodipodi-0.dtd"
   xmlns="http://www.w3.org/2000/svg"
   xmlns:svg="http://www.w3.org/2000/svg">
  <sodipodi:namedview
     id="namedview7"
     pagecolor="#ffffff"
     bordercolor="#000000"
     borderopacity="0.25"
     inkscape:showpageshadow="2"
     inkscape:pageopacity="0.0"
     inkscape:pagecheckerboard="0"
     inkscape:deskcolor="#d1d1d1"
     inkscape:document-units="px"
     showgrid="false"
     inkscape:zoom="13.19397"
     inkscape:cx="24.329296"
     inkscape:cy="9.057168"
     inkscape:window-width="1920"
     inkscape:window-height="1007"
     inkscape:window-x="0"
     inkscape:window-y="0"
     inkscape:window-maximized="1"
     inkscape:current-layer="svg5" />
  <defs
     id="defs2" />
  <rect
     style="opacity:0.3;fill:#000000;fill-opacity:1;stroke-linejoin:round"
     id="rect234"
     width="18"
     height="22"
     x="3"
     y="1"
     ry="0.5" />
  <rect
     style="fill:#fafafa;fill-opacity:1;stroke-width:2.31345;stroke-linejoin:round"
     id="rect2307"
     width="16"
     height="20"
     x="4"
     y="2" />
  <path
     d="m 12,5.666665 c -2.838,0 -6,0.958345 -6,2.33334 0,1.375 3.162,2.333335 6,2.333335 2.838,0 6,-0.958335 6,-2.333335 0,-1.374995 -3.162,-2.33334 -6,-2.33334 z m -6,3.64584 v 1.35417 c 0,1.37499 3.162,2.333335 6,2.333335 2.838,0 6,-0.958345 6,-2.333335 v -1.35417 c -1.06692,1.00329 -3.31999,1.6875 -6,1.6875 -2.68001,0 -4.93308,-0.68421 -6,-1.6875 z m 0,2.66667 v 1.35416 c 0,1.375 3.162,2.33334 6,2.33334 2.838,0 6,-0.95834 6,-2.33334 v -1.35416 c -1.06692,1.003285 -3.31999,1.6875 -6,1.6875 -2.68001,0 -4.93308,-0.684215 -6,-1.6875 z m 0,2.66666 v 1.35417 c 0,1.374995 3.162,2.33333 6,2.33333 2.838,0 6,-0.958335 6,-2.33333 v -1.35417 c -1.06692,1.003295 -3.31999,1.6875 -6,1.6875 -2.68001,0 -4.93308,-0.684205 -6,-1.6875 z"
     style="color:#000000;display:inline;overflow:visible;visibility:visible;fill:#25b99e;fill-opacity:1;fill-rule:nonzero;stroke:none;stroke-width:10;marker:none;enable-background:new"
     id="path2007" />
</svg>
