<?xml version="1.0" encoding="UTF-8" standalone="no"?>
<!-- Created with Inkscape (http://www.inkscape.org/) -->

<svg
   width="24"
   height="24"
   viewBox="0 0 24 24"
   version="1.1"
   id="svg5"
   inkscape:version="1.2.1 (9c6d41e410, 2022-07-14)"
   sodipodi:docname="application-vnd.ms-excel.template.macroenabled.12.svg"
   xmlns:inkscape="http://www.inkscape.org/namespaces/inkscape"
   xmlns:sodipodi="http://sodipodi.sourceforge.net/DTD/sodipodi-0.dtd"
   xmlns="http://www.w3.org/2000/svg"
   xmlns:svg="http://www.w3.org/2000/svg">
  <sodipodi:namedview
     id="namedview7"
     pagecolor="#ffffff"
     bordercolor="#000000"
     borderopacity="0.25"
     inkscape:showpageshadow="2"
     inkscape:pageopacity="0.0"
     inkscape:pagecheckerboard="0"
     inkscape:deskcolor="#d1d1d1"
     inkscape:document-units="px"
     showgrid="false"
     inkscape:zoom="11.637799"
     inkscape:cx="-3.3081857"
     inkscape:cy="-0.73037866"
     inkscape:window-width="1920"
     inkscape:window-height="1007"
     inkscape:window-x="0"
     inkscape:window-y="0"
     inkscape:window-maximized="1"
     inkscape:current-layer="svg5" />
  <defs
     id="defs2" />
  <rect
     style="opacity:0.3;fill:#000000;fill-opacity:1;stroke-linejoin:round"
     id="rect234"
     width="18"
     height="22"
     x="3"
     y="1"
     ry="0.5" />
  <rect
     style="fill:#fafafa;fill-opacity:1;stroke-width:2.31345;stroke-linejoin:round"
     id="rect2307"
     width="16"
     height="20"
     x="4"
     y="2" />
  <rect
     style="opacity:0.25;fill:#407855;fill-opacity:1;stroke-width:2;stroke-linejoin:bevel"
     id="rect25302"
     width="10"
     height="12"
     x="10"
     y="6.0000958"
     ry="0.99999994" />
  <path
     id="rect29937"
     style="opacity:0.5;fill:#407855;fill-opacity:1;stroke-width:2;stroke-linejoin:bevel"
     d="m 10.000001,9.0000001 v 3.0000959 h 5 V 9.0000001 Z m 5,3.0000959 V 15 h 5 v -2.999904 z"
     sodipodi:nodetypes="cccccccccc" />
  <path
     id="path29903"
     style="opacity:0.7;fill:#407855;fill-opacity:1;stroke-width:2;stroke-linejoin:bevel"
     d="M 10.000001,12.000096 V 17 c 0,0.553999 0.446001,1 1,1 h 8 c 0.554,0 1,-0.446001 1,-1 v -2 h -5 v -2.999904 z"
     sodipodi:nodetypes="csccscccc" />
  <path
     id="rect28337"
     style="opacity:0.3;fill:#407855;fill-opacity:1;stroke-width:2;stroke-linejoin:bevel"
     d="m 10.97461,6.0000963 c -0.54194,0.013639 -0.974609,0.4546571 -0.974609,1.0000002 v 1.9999036 h 5 V 6.0000963 h -4 c -0.0087,0 -0.01678,-2.166e-4 -0.0254,0 z m 4.025391,2.9999038 v 3.0000959 h 5 V 9.0000001 Z"
     sodipodi:nodetypes="cscccsccccccc" />
  <rect
     style="fill:#fafafa;fill-opacity:1;stroke-width:0.999999"
     id="rect3242"
     width="9"
     height="9"
     x="4"
     y="7.9999032"
     ry="1.9999999" />
  <rect
     style="fill:#407855;fill-opacity:1;stroke-width:0.499997"
     id="rect2687"
     width="7"
     height="7"
     x="5"
     y="8.9999046"
     ry="0.99999964" />
  <path
     id="rect4044"
     style="fill:#ffffff;fill-opacity:1;stroke-width:0.540061"
     d="m 6.5003272,9.9999043 1.4999997,2.4999977 -1.4999997,2.500002 h 0.9999999 l 0.9999994,-1.624999 1.000001,1.624999 H 10.500328 L 9.0003265,12.499902 10.500328,9.9999043 H 9.5003275 L 8.5003265,11.624903 7.5003271,9.9999043 Z"
     sodipodi:nodetypes="ccccccccccccc" />
  <path
     id="path1442"
     style="color:#000000;opacity:0.8;fill:#e9e9e9;fill-rule:evenodd;stroke-width:1px;-inkscape-stroke:none"
     d="M 20,13.16797 10.748047,22 H 20 Z m -1,2.46875 V 21 h -5.654297 z" />
  <path
     style="color:#000000;opacity:0.8;fill:#83899a;fill-rule:evenodd;-inkscape-stroke:none"
     d="M 21,10.830078 20.154297,11.638672 8.2519527,22.999999 H 21 Z m -1,2.337891 V 22 H 10.748047 Z M 19,15.636719 18.15625,16.4375 13.345703,21 H 19 Z m -1,2.326172 V 20 h -2.148437 z"
     id="path1444"
     sodipodi:nodetypes="cccccccccccccccccc" />
</svg>
