<?xml version="1.0" encoding="UTF-8" standalone="no"?>
<!-- Created with Inkscape (http://www.inkscape.org/) -->

<svg
   width="24"
   height="24"
   viewBox="0 0 24 24"
   version="1.1"
   id="svg5"
   inkscape:version="1.2.1 (9c6d41e410, 2022-07-14)"
   sodipodi:docname="application-vnd.ms-access.svg"
   xmlns:inkscape="http://www.inkscape.org/namespaces/inkscape"
   xmlns:sodipodi="http://sodipodi.sourceforge.net/DTD/sodipodi-0.dtd"
   xmlns="http://www.w3.org/2000/svg"
   xmlns:svg="http://www.w3.org/2000/svg">
  <sodipodi:namedview
     id="namedview7"
     pagecolor="#ffffff"
     bordercolor="#000000"
     borderopacity="0.25"
     inkscape:showpageshadow="2"
     inkscape:pageopacity="0.0"
     inkscape:pagecheckerboard="0"
     inkscape:deskcolor="#d1d1d1"
     inkscape:document-units="px"
     showgrid="false"
     inkscape:zoom="32.916667"
     inkscape:cx="12"
     inkscape:cy="12"
     inkscape:window-width="1920"
     inkscape:window-height="1012"
     inkscape:window-x="0"
     inkscape:window-y="0"
     inkscape:window-maximized="1"
     inkscape:current-layer="svg5" />
  <defs
     id="defs2" />
  <rect
     style="opacity:0.3;fill:#000000;fill-opacity:1;stroke-linejoin:round"
     id="rect234"
     width="18"
     height="22"
     x="3"
     y="1"
     ry="0.5" />
  <rect
     style="fill:#fafafa;fill-opacity:1;stroke-width:2.31345;stroke-linejoin:round"
     id="rect2307"
     width="16"
     height="20"
     x="4"
     y="2" />
  <ellipse
     style="opacity:0.25;fill:#a4262c;fill-opacity:1;stroke-width:2;stroke-linejoin:round"
     id="path2670"
     cx="14"
     cy="7.5"
     rx="5"
     ry="1.5" />
  <path
     id="rect3773"
     style="opacity:0.5;fill:#a4262c;fill-opacity:1;stroke-width:2;stroke-linejoin:round"
     d="m 9.0000002,7.4999989 v 3.0000001 c 0,0.828427 2.2385768,1.5 4.9999998,1.5 2.761424,0 5.000001,-0.671573 5.000001,-1.5 v -0.002 -0.002 -0.002 -0.002 -0.002 -0.002 -0.002 -0.002 -0.002 -0.002 -0.002 -0.002 -0.002 -0.002 -0.002 -0.002 -0.002 -2.9667971 c 0,0.8284271 -2.238577,1.5000001 -5.000001,1.5000001 -2.761423,0 -4.9999998,-0.671573 -4.9999998,-1.5000001 z"
     sodipodi:nodetypes="csssssssssssssssssssccsc" />
  <path
     d="M 8.9999991,10.499999 V 13.4996 c 0,0.828427 2.2385759,1.5 4.9999999,1.5 2.761424,0 5,-0.671573 5,-1.5 v -0.002 -0.002 -0.002 -0.002 -0.002 -0.002 -0.002 -0.002 -0.002 -0.002 -0.002 -0.002 -0.002 -0.002 -0.002 -0.002 -0.002 -2.966398 c 0,0.828427 -2.238576,1.5 -5,1.5 -2.761424,0 -4.9999999,-0.671573 -4.9999999,-1.5 z"
     style="opacity:0.7;fill:#a4262c;fill-opacity:1;stroke-width:2;stroke-linejoin:round"
     id="path5291"
     sodipodi:nodetypes="csssccccccccccccccccccsc" />
  <path
     d="M 8.9999991,13.499999 V 16.4996 c 0,0.828427 2.2385759,1.5 4.9999999,1.5 2.761424,0 5,-0.671573 5,-1.5 v -0.002 -0.002 -0.002 -0.002 -0.002 -0.002 -0.002 -0.002 -0.002 -0.002 -0.002 -0.002 -0.002 -0.002 -0.002 -0.002 -0.002 -2.966398 c 0,0.828427 -2.238576,1.5 -5,1.5 -2.761424,0 -4.9999999,-0.671573 -4.9999999,-1.5 z"
     style="opacity:0.9;fill:#a4262c;fill-opacity:1;stroke-width:2;stroke-linejoin:round"
     id="path5319" />
  <rect
     style="fill:#fafafa;fill-opacity:1;stroke-width:0.999999"
     id="rect3242"
     width="9"
     height="9"
     x="4.0000005"
     y="7.9999032"
     ry="1.9999999" />
  <rect
     style="fill:#a4262c;stroke-width:0.499997;fill-opacity:1"
     id="rect2687"
     width="7"
     height="7"
     x="5"
     y="8.9999065"
     ry="0.99999964" />
  <path
     id="path402"
     style="fill:#ffffff;fill-opacity:1;stroke-width:2;stroke-linejoin:round"
     d="m 8.5000005,9.9999993 a 1.5,1.5 0 0 0 -1.5,1.4999997 v 3.5 h 0.9999998 v -2 h 0.9999999 v 2 h 1.0000008 v -3.5 A 1.5,1.5 0 0 0 8.5000005,9.9999993 Z m 0,0.9999997 a 0.49999998,0.49999998 0 0 1 0.4999997,0.5 v 0.5 H 8.0000003 v -0.5 a 0.49999998,0.49999998 0 0 1 0.5000002,-0.5 z" />
</svg>
