<?xml version="1.0" encoding="UTF-8" standalone="no"?>
<!-- Created with Inkscape (http://www.inkscape.org/) -->

<svg
   width="24"
   height="24"
   viewBox="0 0 24 24"
   version="1.1"
   id="svg5"
   inkscape:version="1.2.1 (9c6d41e410, 2022-07-14)"
   sodipodi:docname="application-pdf.svg"
   xmlns:inkscape="http://www.inkscape.org/namespaces/inkscape"
   xmlns:sodipodi="http://sodipodi.sourceforge.net/DTD/sodipodi-0.dtd"
   xmlns="http://www.w3.org/2000/svg"
   xmlns:svg="http://www.w3.org/2000/svg">
  <sodipodi:namedview
     id="namedview7"
     pagecolor="#ffffff"
     bordercolor="#000000"
     borderopacity="0.25"
     inkscape:showpageshadow="2"
     inkscape:pageopacity="0.0"
     inkscape:pagecheckerboard="0"
     inkscape:deskcolor="#d1d1d1"
     inkscape:document-units="px"
     showgrid="false"
     inkscape:zoom="32.916667"
     inkscape:cx="12"
     inkscape:cy="12"
     inkscape:window-width="1920"
     inkscape:window-height="1012"
     inkscape:window-x="0"
     inkscape:window-y="0"
     inkscape:window-maximized="1"
     inkscape:current-layer="svg5" />
  <defs
     id="defs2" />
  <rect
     style="opacity:0.3;fill:#000000;fill-opacity:1;stroke-linejoin:round"
     id="rect234"
     width="18"
     height="22"
     x="3"
     y="1"
     ry="0.5" />
  <rect
     style="fill:#fafafa;fill-opacity:1;stroke-width:2.31345;stroke-linejoin:round"
     id="rect2307"
     width="16"
     height="20"
     x="4"
     y="2" />
  <path
     d="m 14,0.9999998 v 1 h 5.869141 v -1 z M 3.0000002,8.3144529 v 2.1054691 h 1 V 8.3144529 Z m 0,4.6855471 v 2 h 1 V 13 Z M 20,14.412109 V 22 h -6 v 1 h 6.5 c 0.276131,-2.8e-5 0.499972,-0.223869 0.5,-0.5 v -8.087891 z m -8.681641,7.574219 -0.0078,1 1.775391,0.01367 0.0078,-1 z"
     style="color:#000000;opacity:0.2;fill:#410000;stroke-linejoin:round;-inkscape-stroke:none"
     id="path11118" />
  <path
     d="M 14.043479,2.0000005 C 9.3657247,5.9791664 6.0557594,7.6319415 4.0000002,8.3146557 V 10.426725 C 5.1425212,10.093195 6.5589473,9.5422048 8.0326083,8.6271568 11.423072,6.5218925 15.467391,2.5280177 15.467391,2.5280177 14.355735,4.6897997 14.032349,12.142549 14.010871,22 H 20 v -7.596982 c -0.262696,-1.159267 -0.497108,-2.332198 -0.706521,-3.459051 -0.551643,-4.1500229 0.263214,-7.7749472 0.565217,-8.9439665 -0.07858,-8.3e-6 -3.535446,2.345e-4 -5.815217,0 z M 4.0000002,12.980605 v 2.036637 C 6.6103109,16.085397 9.6381167,18.839235 11.293479,22 h 1.78261 c -0.7845,-2.898145 -5.8686765,-7.269583 -9.0760888,-9.019395 z"
     style="color:#000000;clip-rule:nonzero;display:inline;overflow:visible;visibility:visible;isolation:auto;mix-blend-mode:normal;color-interpolation:sRGB;color-interpolation-filters:linearRGB;solid-color:#000000;solid-opacity:1;fill:#df554a;fill-opacity:1;fill-rule:nonzero;stroke:none;stroke-width:1;stroke-linecap:butt;stroke-linejoin:miter;stroke-miterlimit:4;stroke-dasharray:none;stroke-dashoffset:0;stroke-opacity:1;marker:none;color-rendering:auto;image-rendering:auto;shape-rendering:auto;text-rendering:auto;enable-background:accumulate"
     id="path9020" />
</svg>
