<?xml version="1.0" encoding="UTF-8" standalone="no"?>
<!-- Created with Inkscape (http://www.inkscape.org/) -->

<svg
   width="24"
   height="24"
   viewBox="0 0 24 24"
   version="1.1"
   id="svg5"
   inkscape:version="1.2.1 (9c6d41e410, 2022-07-14)"
   sodipodi:docname="playlist.svg"
   xmlns:inkscape="http://www.inkscape.org/namespaces/inkscape"
   xmlns:sodipodi="http://sodipodi.sourceforge.net/DTD/sodipodi-0.dtd"
   xmlns="http://www.w3.org/2000/svg"
   xmlns:svg="http://www.w3.org/2000/svg">
  <sodipodi:namedview
     id="namedview7"
     pagecolor="#ffffff"
     bordercolor="#000000"
     borderopacity="0.25"
     inkscape:showpageshadow="2"
     inkscape:pageopacity="0.0"
     inkscape:pagecheckerboard="0"
     inkscape:deskcolor="#d1d1d1"
     inkscape:document-units="px"
     showgrid="false"
     inkscape:zoom="26.387939"
     inkscape:cx="15.859518"
     inkscape:cy="14.267882"
     inkscape:window-width="1920"
     inkscape:window-height="1007"
     inkscape:window-x="0"
     inkscape:window-y="0"
     inkscape:window-maximized="1"
     inkscape:current-layer="svg5" />
  <defs
     id="defs2" />
  <rect
     style="opacity:0.3;fill:#000000;fill-opacity:1;stroke-linejoin:round"
     id="rect234"
     width="18"
     height="22"
     x="3"
     y="1"
     ry="0.5" />
  <rect
     style="fill:#fafafa;fill-opacity:1;stroke-width:2.31345;stroke-linejoin:round"
     id="rect2307"
     width="16"
     height="20"
     x="4"
     y="2" />
  <path
     d="M 15.5,5 C 15.223,5 15,5.223 15,5.5 v 9.533203 c -0.612753,-0.257139 -1.378939,-0.167432 -2.035156,0.238281 -1.069061,0.661333 -1.531798,1.948949 -1.033203,2.875 0.497828,0.92603 1.767689,1.140298 2.835937,0.478516 0.772887,-0.478966 1.256769,-1.310781 1.230469,-2.115234 6.9e-5,-0.0034 0.002,-0.0063 0.002,-0.0098 V 8.375 c 0.120375,-0.06646 0.30739,0.07692 0.40625,0.144531 1.123434,0.679677 2.10425,1.807595 2.173828,3.197266 0.06019,0.803876 -0.108179,1.603413 -0.339844,2.367187 C 19.273042,12.384829 19.217503,10.020862 17.941456,8.46875 17.11835,7.609884 16.342155,6.608696 16.00005,5.4453125 15.9751,5.3348068 15.824193,5 15.50005,5 Z M 5.5,6 C 5.223,6 5,6.223 5,6.5 5,6.777 5.223,7 5.5,7 h 6 C 11.777,7 12,6.777 12,6.5 12,6.223 11.777,6 11.5,6 Z m 0,3 C 5.223,9 5,9.223 5,9.5 5,9.777 5.223,10 5.5,10 h 6 C 11.777,10 12,9.777 12,9.5 12,9.223 11.777,9 11.5,9 Z m 0,3 C 5.223,12 5,12.223 5,12.5 5,12.777 5.223,13 5.5,13 h 6 C 11.777,13 12,12.777 12,12.5 12,12.223 11.777,12 11.5,12 Z m 0,3 C 5.223,15 5,15.223 5,15.5 5,15.777 5.223,16 5.5,16 h 3 C 8.777,16 9,15.777 9,15.5 9,15.223 8.777,15 8.5,15 Z"
     style="color:#000000;clip-rule:nonzero;display:inline;overflow:visible;visibility:visible;isolation:auto;mix-blend-mode:normal;color-interpolation:sRGB;color-interpolation-filters:linearRGB;solid-color:#000000;solid-opacity:1;fill:#ff7f2a;fill-opacity:1;fill-rule:nonzero;stroke:none;stroke-width:1;stroke-linecap:butt;stroke-linejoin:round;stroke-miterlimit:4;stroke-dasharray:none;stroke-dashoffset:0;stroke-opacity:1;marker:none;color-rendering:auto;image-rendering:auto;shape-rendering:auto;text-rendering:auto;enable-background:accumulate"
     id="path1198" />
</svg>
