<?xml version="1.0" encoding="UTF-8" standalone="no"?>
<!-- Created with Inkscape (http://www.inkscape.org/) -->

<svg
   width="24"
   height="24"
   viewBox="0 0 24 24"
   version="1.1"
   id="svg5"
   inkscape:version="1.2.1 (9c6d41e410, 2022-07-14)"
   sodipodi:docname="x-office-drawing.svg"
   xmlns:inkscape="http://www.inkscape.org/namespaces/inkscape"
   xmlns:sodipodi="http://sodipodi.sourceforge.net/DTD/sodipodi-0.dtd"
   xmlns="http://www.w3.org/2000/svg"
   xmlns:svg="http://www.w3.org/2000/svg">
  <sodipodi:namedview
     id="namedview7"
     pagecolor="#ffffff"
     bordercolor="#000000"
     borderopacity="0.25"
     inkscape:showpageshadow="2"
     inkscape:pageopacity="0.0"
     inkscape:pagecheckerboard="0"
     inkscape:deskcolor="#d1d1d1"
     inkscape:document-units="px"
     showgrid="false"
     inkscape:zoom="18.659091"
     inkscape:cx="0.45554202"
     inkscape:cy="9.9951279"
     inkscape:window-width="1920"
     inkscape:window-height="1007"
     inkscape:window-x="0"
     inkscape:window-y="0"
     inkscape:window-maximized="1"
     inkscape:current-layer="svg5" />
  <defs
     id="defs2" />
  <rect
     style="opacity:0.3;fill:#000000;fill-opacity:1;stroke-linejoin:round"
     id="rect234"
     width="18"
     height="22"
     x="3"
     y="1"
     ry="0.5" />
  <rect
     style="fill:#fafafa;fill-opacity:1;stroke-width:2.31345;stroke-linejoin:round"
     id="rect2307"
     width="16"
     height="20"
     x="4"
     y="2" />
  <path
     id="path2594"
     style="color:#000000;fill:#ff6200;fill-opacity:1;-inkscape-stroke:none"
     d="m 6.99999,8.7505548 c -0.68443,0 -1.25,0.56558 -1.25,1.2499992 0,0.68444 0.56557,1.25 1.25,1.25 0.33833,0 0.64676,-0.13889 0.87305,-0.36132 l 7.8789,3.15039 c 0.0209,0.66689 0.57659,1.21093 1.24805,1.21093 0.68443,0 1.25,-0.56556 1.25,-1.25 0,-0.68442 -0.56557,-1.25 -1.25,-1.25 -0.33833,0 -0.64676,0.13889 -0.87305,0.36133 L 8.24804,9.9614943 C 8.22714,9.2946148 7.67145,8.7505548 6.99999,8.7505548 Z"
     sodipodi:nodetypes="sssccsssccs" />
  <path
     d="m 8.99999,17.000324 c 5,3 8,-3 3,-5 -5,-2 -2.0000001,-7.9999992 3,-4.9999992"
     style="color:#000000;opacity:0.25;fill:#ff7f2a;fill-opacity:1;fill-rule:evenodd;-inkscape-stroke:none"
     id="path3159" />
  <path
     style="color:#000000;fill:#ff7f2a;fill-opacity:1;fill-rule:evenodd;-inkscape-stroke:none"
     d="m 11.61913,5.7661848 c -1.04201,0.19888 -1.86243,0.80117 -2.30859,1.61914 -0.44617,0.81797 -0.51661,1.83065 -0.11328,2.7656192 0.40332,0.93498 1.27114,1.77604 2.61718,2.31446 1.15395,0.46158 1.78614,1.12052 2.07032,1.77929 0.28417,0.65878 0.22961,1.3336 -0.0742,1.89063 -0.60767,1.11405 -2.21667,1.83719 -4.55274,0.43555 l -0.51562,0.85742 c 2.66393,1.59836 5.05493,0.82149 5.94726,-0.81445 0.44617,-0.81798 0.51661,-1.83065 0.11328,-2.76563 -0.40332,-0.93498 -1.27114,-1.77408 -2.61718,-2.3125 -1.15395,-0.46158 -1.78614,-1.12248 -2.07032,-1.7812492 -0.28417,-0.65877 -0.22961,-1.3336 0.0742,-1.89062 0.60767,-1.11406 2.21667,-1.83719 4.55274,-0.43555 l 0.51562,-0.85742 c -1.33196,-0.79918 -2.59665,-1.00357 -3.63867,-0.80469 z"
     id="path3133" />
  <path
     id="rect5233"
     style="fill:#ff944d;fill-opacity:1;stroke-linejoin:round"
     d="m 14,6 v 2 h 2 V 6 Z m -3,5 v 2 h 2 v -2 z m -3,5 v 2 h 2 v -2 z" />
</svg>
