<?xml version="1.0" encoding="UTF-8" standalone="no"?>
<!-- Created with Inkscape (http://www.inkscape.org/) -->

<svg
   width="24"
   height="24"
   viewBox="0 0 24 24"
   version="1.1"
   id="svg5"
   inkscape:version="1.2.1 (9c6d41e410, 2022-07-14)"
   sodipodi:docname="x-office-presentation-template.svg"
   xmlns:inkscape="http://www.inkscape.org/namespaces/inkscape"
   xmlns:sodipodi="http://sodipodi.sourceforge.net/DTD/sodipodi-0.dtd"
   xmlns="http://www.w3.org/2000/svg"
   xmlns:svg="http://www.w3.org/2000/svg">
  <sodipodi:namedview
     id="namedview7"
     pagecolor="#ffffff"
     bordercolor="#000000"
     borderopacity="0.25"
     inkscape:showpageshadow="2"
     inkscape:pageopacity="0.0"
     inkscape:pagecheckerboard="0"
     inkscape:deskcolor="#d1d1d1"
     inkscape:document-units="px"
     showgrid="false"
     inkscape:zoom="11.637799"
     inkscape:cx="-2.8785512"
     inkscape:cy="12.07273"
     inkscape:window-width="1920"
     inkscape:window-height="1007"
     inkscape:window-x="0"
     inkscape:window-y="0"
     inkscape:window-maximized="1"
     inkscape:current-layer="svg5" />
  <defs
     id="defs2" />
  <rect
     style="opacity:0.6;fill:#6c2d00;fill-opacity:1;stroke-linejoin:round"
     id="rect234"
     width="18"
     height="22"
     x="3"
     y="1"
     ry="0.5" />
  <rect
     style="fill:#ff7e28;fill-opacity:1;stroke-width:2.31345;stroke-linejoin:round"
     id="rect2307"
     width="16"
     height="20"
     x="4"
     y="2" />
  <path
     id="path27792"
     style="color:#000000;display:inline;overflow:visible;visibility:visible;fill:#ffffff;fill-opacity:1;fill-rule:nonzero;stroke:none;stroke-width:20;marker:none;enable-background:new"
     d="m 8,7 c -1.656852,0 -3,1.3431466 -3,3 0,1.656854 1.343148,3 3,3 1.656852,0 3,-1.343146 3,-3 H 8 Z m 5,1 v 1 h 6 V 8 Z m 0,3 v 1 h 6 v -1 z m -8,3 v 1 h 14 v -1 z m 0,3 v 1 h 6.998047 v -1 z"
     sodipodi:nodetypes="cssccccccccccccccccccccccc" />
  <path
     id="path1442"
     style="color:#000000;opacity:0.8;fill:#e9e9e9;fill-rule:evenodd;stroke-width:1px;-inkscape-stroke:none"
     d="M 20,13.167969 10.748047,22 H 20 Z m -1,2.46875 V 21 h -5.654297 z" />
  <path
     style="color:#000000;opacity:0.8;fill:#83899a;fill-rule:evenodd;-inkscape-stroke:none"
     d="M 21,10.830078 20.154297,11.638672 8.2519527,23 H 21 Z m -1,2.337891 V 22 H 10.748047 Z M 19,15.636719 18.15625,16.4375 13.345703,21 H 19 Z m -1,2.326172 V 20 h -2.148437 z"
     id="path1444"
     sodipodi:nodetypes="cccccccccccccccccc" />
</svg>
