<?xml version="1.0" encoding="UTF-8" standalone="no"?>
<!-- Created with Inkscape (http://www.inkscape.org/) -->

<svg
   width="16"
   height="16"
   viewBox="0 0 16 16"
   version="1.1"
   id="svg5"
   inkscape:version="1.2.1 (9c6d41e410, 2022-07-14)"
   sodipodi:docname="folder-blue-network.svg"
   xmlns:inkscape="http://www.inkscape.org/namespaces/inkscape"
   xmlns:sodipodi="http://sodipodi.sourceforge.net/DTD/sodipodi-0.dtd"
   xmlns:xlink="http://www.w3.org/1999/xlink"
   xmlns="http://www.w3.org/2000/svg"
   xmlns:svg="http://www.w3.org/2000/svg">
  <sodipodi:namedview
     id="namedview7"
     pagecolor="#ffffff"
     bordercolor="#000000"
     borderopacity="0.25"
     inkscape:showpageshadow="2"
     inkscape:pageopacity="0.0"
     inkscape:pagecheckerboard="0"
     inkscape:deskcolor="#d1d1d1"
     inkscape:document-units="px"
     showgrid="false"
     inkscape:zoom="51.3125"
     inkscape:cx="7.9902558"
     inkscape:cy="8"
     inkscape:window-width="1920"
     inkscape:window-height="1007"
     inkscape:window-x="0"
     inkscape:window-y="0"
     inkscape:window-maximized="1"
     inkscape:current-layer="svg5" />
  <defs
     id="defs2">
    <linearGradient
       inkscape:collect="always"
       id="linearGradient3155">
      <stop
         style="stop-color:#2c89b7;stop-opacity:1;"
         offset="0"
         id="stop3151" />
      <stop
         style="stop-color:#2077a5;stop-opacity:1;"
         offset="1"
         id="stop3153" />
    </linearGradient>
    <linearGradient
       inkscape:collect="always"
       id="linearGradient3147">
      <stop
         style="stop-color:#36aded;stop-opacity:1;"
         offset="0"
         id="stop3143" />
      <stop
         style="stop-color:#30c7f3;stop-opacity:1;"
         offset="1"
         id="stop3145" />
    </linearGradient>
    <linearGradient
       inkscape:collect="always"
       xlink:href="#linearGradient3147"
       id="linearGradient3149"
       x1="64"
       y1="61"
       x2="36"
       y2="13"
       gradientUnits="userSpaceOnUse"
       gradientTransform="matrix(0.25,0,0,0.25,-1,-0.25)" />
    <linearGradient
       inkscape:collect="always"
       xlink:href="#linearGradient3155"
       id="linearGradient3157"
       x1="8"
       y1="7"
       x2="8"
       y2="29"
       gradientUnits="userSpaceOnUse"
       gradientTransform="matrix(0.25,0,0,0.25,-1,-0.75)" />
  </defs>
  <path
     id="rect184"
     style="fill:url(#linearGradient3157);fill-opacity:1;stroke-width:0.5"
     d="M 1,1 C 0.4460006,1 0,1.4460004 0,2 v 12 c 0,0.554 0.4460006,1 1,1 h 14 c 0.554,0 1,-0.446 1,-1 V 4 C 16,3.4460005 15.554,3 15,3 H 8 L 7,1.5 C 6.6556545,1.1853323 6.5539995,1 6,1 Z"
     sodipodi:nodetypes="sccsssssccss" />
  <path
     id="rect1043"
     style="fill:url(#linearGradient3149);fill-opacity:1;stroke-width:0.5"
     d="M 8,3 7,4.5 C 6.666597,4.806988 6.553999,5 6,5 H 1 C 0.4477158,5 0,5.4477155 0,6 v 8 c 0,0.553998 0.4460017,1 1,1 h 14 c 0.553999,0 1,-0.446002 1,-1 V 4 C 16,3.4460015 15.553999,3 15,3 Z"
     sodipodi:nodetypes="ccsssssssssc" />
  <path
     id="path3081"
     style="opacity:0.2;fill:#ffffff;stroke-width:0.5"
     d="M 8,3 7,4.5 C 6.6665975,4.806988 6.553999,5 6,5 H 1 C 0.4477164,5 0,5.447716 0,6 V 7 C 0,6.447716 0.4477164,6 1,6 H 6 C 6.5539985,6 6.666597,5.8069875 7,5.5 L 8,4 h 7 c 0.553998,0 1,0.446002 1,1 V 4 C 16,3.446002 15.553998,3 15,3 Z"
     sodipodi:nodetypes="ccssscssccscssc" />
  <path
     id="path1719"
     style="opacity:0.6;fill:#ffffff;stroke-width:1"
     d="M 9.5 6 C 8.6716012 6 8 6.6716007 8 7.5 C 8 7.6156359 8.022125 7.7200051 8.046875 7.828125 L 6.4375 8.828125 C 6.1807953 8.6224902 5.8545496 8.5 5.5 8.5 C 4.6716008 8.5 4 9.1716012 4 10 C 4 10.828399 4.6716008 11.5 5.5 11.5 C 5.8545196 11.5 6.1807503 11.377521 6.4375 11.171875 L 8.046875 12.171875 C 8.022125 12.279995 8 12.384364 8 12.5 C 8 13.328399 8.6716012 14 9.5 14 C 10.328399 14 11 13.328399 11 12.5 C 11 11.671601 10.328399 11 9.5 11 C 9.1454804 11 8.8192492 11.122481 8.5625 11.328125 L 6.953125 10.328125 C 6.977875 10.220005 7 10.115634 7 10 C 7 9.8843601 6.977875 9.7799949 6.953125 9.671875 L 8.5625 8.671875 C 8.8192042 8.8775098 9.1454504 9 9.5 9 C 10.328399 9 11 8.3283992 11 7.5 C 11 6.6716007 10.328399 6 9.5 6 z M 9.5 7 A 0.5 0.5 0 0 1 10 7.5 A 0.5 0.5 0 0 1 9.5 8 A 0.5 0.5 0 0 1 9 7.5 A 0.5 0.5 0 0 1 9.5 7 z M 5.5 9.5 A 0.5 0.5 0 0 1 6 10 A 0.5 0.5 0 0 1 5.5 10.5 A 0.5 0.5 0 0 1 5 10 A 0.5 0.5 0 0 1 5.5 9.5 z M 9.5 12 A 0.5 0.5 0 0 1 10 12.5 A 0.5 0.5 0 0 1 9.5 13 A 0.5 0.5 0 0 1 9 12.5 A 0.5 0.5 0 0 1 9.5 12 z " />
</svg>
