<?xml version="1.0" encoding="UTF-8" standalone="no"?>
<!-- Created with Inkscape (http://www.inkscape.org/) -->

<svg
   width="256"
   height="256"
   viewBox="0 0 256 256"
   version="1.1"
   id="svg5"
   inkscape:version="1.2.1 (9c6d41e410, 2022-07-14)"
   sodipodi:docname="application-x-sharedlib.svg"
   xmlns:inkscape="http://www.inkscape.org/namespaces/inkscape"
   xmlns:sodipodi="http://sodipodi.sourceforge.net/DTD/sodipodi-0.dtd"
   xmlns="http://www.w3.org/2000/svg"
   xmlns:svg="http://www.w3.org/2000/svg">
  <sodipodi:namedview
     id="namedview7"
     pagecolor="#ffffff"
     bordercolor="#000000"
     borderopacity="0.25"
     inkscape:showpageshadow="2"
     inkscape:pageopacity="0.0"
     inkscape:pagecheckerboard="0"
     inkscape:deskcolor="#d1d1d1"
     inkscape:document-units="px"
     showgrid="false"
     inkscape:zoom="3.2070312"
     inkscape:cx="128"
     inkscape:cy="128"
     inkscape:window-width="1920"
     inkscape:window-height="1007"
     inkscape:window-x="0"
     inkscape:window-y="0"
     inkscape:window-maximized="1"
     inkscape:current-layer="svg5" />
  <defs
     id="defs2" />
  <rect
     style="opacity:0.3;fill:#000000;fill-opacity:1;stroke-width:4;stroke-linejoin:round"
     id="rect234"
     width="182"
     height="234"
     x="37"
     y="11"
     ry="1" />
  <rect
     style="fill:#fafafa;fill-opacity:1;stroke-width:12.9238;stroke-linejoin:round"
     id="rect2307"
     width="180"
     height="232"
     x="38"
     y="12" />
  <path
     d="m 127.21935,75.82431 c 0,0 -1.178,0.392 -3.98584,2.26632 -3.43368,2.29168 -5.36696,1.87472 -7.63664,1.24456 l -0.016,0.016 c -0.4184,-0.2472 -0.84408,-0.4824 -1.27776,-0.6984 l 0.002,-0.016 c -1.76496,-1.55928 -3.16696,-2.9552 -3.1152,-7.0832 0.04,-3.37432 -0.2696,-4.57744 -0.2696,-4.57744 -1.20144,-0.6792 -2.9124,-0.85936 -2.9124,-0.85936 0,0 -1.71152,-0.18 -3.02704,0.2352 0,0 -0.556,1.1108 -1.216,4.42088 -0.80752,4.0484 -2.46992,5.12168 -4.519761,6.28072 l -0.004,0.024 c -0.4688,0.1216 -0.93216,0.2632 -1.39504,0.4176 l -0.016,-0.016 c -2.35096,0.1448 -4.32936,0.1496 -7.21176,-2.80568 -2.35576,-2.41608 -3.42744,-3.04552 -3.42744,-3.04552 -1.3268,0.3664 -2.66352,1.44896 -2.66352,1.44896 0,0 -1.33728,1.08304 -1.974,2.30712 0,0 0.392,1.17936 2.26608,3.986 2.29152,3.4336 1.87488,5.36856 1.24496,7.63728 l 0.016,0.016 c -0.2464,0.4192 -0.4816,0.84432 -0.6992,1.2772 l -0.016,-0.0017 c -1.55896,1.76536 -2.95488,3.16728 -7.08264,3.116 -3.37416,-0.04 -4.57824,0.2712 -4.57824,0.2712 -0.6792,1.20192 -0.85896,2.91048 -0.85896,2.91048 0,0 -0.184,1.712 0.2352,3.0276 0,0 1.11048,0.556799 4.42056,1.215679 4.04808,0.80792 5.11992,2.471201 6.27992,4.520481 l 0.016,0.002 c 0.1224,0.4696 0.264,0.93304 0.4176,1.3952 l -0.016,0.016 c 0.1464,2.35089 0.1504,4.32889 -2.80496,7.21097 -2.416,2.3564 -3.04568,3.42976 -3.04568,3.42976 0.3704,1.32984 1.45136,2.6652 1.45136,2.6652 0,0 1.08344,1.33784 2.3072,1.97408 0,0 1.17864,-0.3912 3.98544,-2.26592 3.43384,-2.2912 5.36808,-1.87312 7.6372,-1.24472 l 0.016,-0.016 c 0.4216,0.2472 0.84424,0.4824 1.27792,0.6984 l -0.004,0.024 c 1.76552,1.5592 3.16728,2.95488 3.116,7.08248 -0.04,3.3744 0.2704,4.57872 0.2704,4.57872 1.20208,0.6784 2.910961,0.85864 2.910961,0.85864 0,0 1.71232,0.18 3.0272,-0.236 0,0 0.556,-1.10944 1.21592,-4.42008 0.80912,-4.048 2.47184,-5.12032 4.52,-6.28024 l -8e-4,-0.024 c 0.4688,-0.1216 0.93272,-0.264 1.3952,-0.4176 l 0.016,0.016 c 2.3508,-0.1456 4.32888,-0.1504 7.2112,2.8052 2.35584,2.416 3.42904,3.04608 3.42904,3.04608 1.33016,-0.3704 2.6656,-1.45208 2.6656,-1.45208 0,0 1.33792,-1.08328 1.97424,-2.3072 0,0 -0.3912,-1.17888 -2.2664,-3.98576 -2.2916,-3.4336 -1.8732,-5.36816 -1.24448,-7.6368 l -0.016,-0.016 c 0.2464,-0.4208 0.4816,-0.84448 0.6984,-1.27776 l 0.024,0.003 c 1.55928,-1.76505 2.95512,-3.16697 7.08288,-3.11569 3.37472,0.04 4.57912,-0.2712 4.57912,-0.2712 0.6784,-1.20208 0.85816,-2.91144 0.85816,-2.91144 0,0 0.1832,-1.711201 -0.2352,-3.027521 0,0 -1.11104,-0.556799 -4.42112,-1.215999 -4.04864,-0.8076 -5.1212,-2.46992 -6.2808,-4.51976 l -0.016,-0.0017 c -0.1216,-0.4688 -0.2624,-0.93288 -0.4184,-1.39512 l 0.016,-0.016 c -0.1456,-2.35 -0.1512,-4.3288 2.80496,-7.21112 2.41616,-2.35592 3.04648,-3.42856 3.04648,-3.42856 -0.3696,-1.32952 -1.45224,-2.66632 -1.45224,-2.66632 0,0 -1.08328,-1.33776 -2.3072,-1.97408 z m -13.1436,33.74417 c -6.42376,5.20192 -15.847761,4.21152 -21.049761,-2.21224 -5.20192,-6.42385 -4.21136,-15.84793 2.21216,-21.04993 6.423681,-5.20176 15.847841,-4.21136 21.049761,2.21248 5.20192,6.42384 4.21128,15.84792 -2.21224,21.04977 z m 48.52856,6.21104 c 0,0 -1.26504,0.89872 -3.93632,4.16576 -3.26696,3.99432 -5.73048,4.20232 -8.67376,4.27856 l -0.016,0.024 c -0.5896,-0.1424 -1.18512,-0.268 -1.78264,-0.368 l -0.004,-0.024 c -2.67968,-1.21888 -4.86576,-2.37504 -6.3124,-7.32848 -1.1832,-4.04888 -1.99592,-5.37296 -1.99592,-5.37296 -1.68448,-0.3728 -3.79544,0.04 -3.79544,0.04 0,0 -2.11152,0.4104 -3.53232,1.3876 0,0 -0.2592,1.53112 0.164,5.72896 0.5144,5.13432 -1.08072,7.02496 -3.1076,9.15952 l 0.002,0.032 c -0.5152,0.316 -1.01816,0.6552 -1.51504,1.00896 l -0.016,-0.016 c -2.75712,1.03239 -5.12048,1.76103 -9.64592,-0.71841 -3.69904,-2.02711 -5.21,-2.38783 -5.21,-2.38783 -1.45216,0.92296 -2.6544,2.70543 -2.6544,2.70543 0,0 -1.2028,1.78328 -1.51648,3.4792 0,0 0.89976,1.2664 4.16536,3.93657 3.99416,3.26687 4.2032,5.73215 4.27944,8.67431 l 0.024,0.016 c -0.1416,0.5912 -0.2672,1.18536 -0.368,1.78208 l -0.016,0.003 c -1.21832,2.68 -2.3748,4.866 -7.32768,6.3132 -4.04888,1.18224 -5.37352,1.9972 -5.37352,1.9972 -0.3728,1.68488 0.032,3.79296 0.032,3.79296 0,0 0.4112,2.1124 1.38768,3.53312 0,0 1.53096,0.26 5.72848,-0.1624 5.13416,-0.5136 7.0232,1.08288 9.15888,3.10848 l 0.024,-0.004 c 0.3168,0.516 0.656,1.01896 1.00848,1.51528 l -0.016,0.024 c 1.03456,2.75664 1.76112,5.11984 -0.7176,9.6448 -2.02688,3.69976 -2.38728,5.21289 -2.38728,5.21289 0.92816,1.45447 2.70896,2.65543 2.70896,2.65543 0,0 1.784,1.20329 3.4792,1.51656 0,0 1.26624,-0.89815 3.936,-4.16504 3.26736,-3.99384 5.7324,-4.20088 8.67432,-4.27904 l 0.016,-0.024 c 0.5936,0.1416 1.18576,0.268 1.78288,0.368 l 0.002,0.032 c 2.68032,1.21856 4.86608,2.37464 6.31312,7.32736 1.1824,4.04919 1.9972,5.37423 1.9972,5.37423 1.6848,0.3712 3.79352,-0.04 3.79352,-0.04 0,0 2.1124,-0.41121 3.53224,-1.38888 0,0 0.2592,-1.52936 -0.156,-5.72807 -0.5128,-5.13425 1.08336,-7.02392 3.10792,-9.15905 l -0.008,-0.024 c 0.516,-0.316 1.01832,-0.6568 1.51504,-1.00911 l 0.024,0.016 c 2.75656,-1.0336 5.11952,-1.76151 9.64512,0.7176 3.69912,2.02697 5.21192,2.38793 5.21192,2.38793 1.45464,-0.92913 2.65584,-2.70993 2.65584,-2.70993 0,0 1.20328,-1.78384 1.51672,-3.47944 0,0 -0.89816,-1.26624 -4.16576,-3.93616 -3.99424,-3.26688 -4.2012,-5.73224 -4.27856,-8.67392 l -0.016,-0.016 c 0.1416,-0.5936 0.268,-1.18568 0.3672,-1.78248 l 0.024,-0.004 c 1.21872,-2.67968 2.37488,-4.86561 7.32784,-6.31281 4.04952,-1.1824 5.37472,-1.99727 5.37472,-1.99727 0.3712,-1.6848 -0.04,-3.7936 -0.04,-3.7936 0,0 -0.4104,-2.11161 -1.3876,-3.53304 0,0 -1.53136,-0.2592 -5.7292,0.16239 -5.13448,0.5144 -7.02424,-1.08088 -9.15952,-3.10744 l -0.024,0.004 c -0.3168,-0.516 -0.6544,-1.0192 -1.01008,-1.5148 l 0.016,-0.024 c -1.032,-2.756 -1.762,-5.11936 0.7176,-9.64503 2.02704,-3.69904 2.38864,-5.21168 2.38864,-5.21168 -0.92808,-1.45408 -2.71032,-2.65648 -2.71032,-2.65648 0,0 -1.78392,-1.20312 -3.47952,-1.51656 z m -3.37928,45.13991 c -5.77768,8.56576 -17.40488,10.826 -25.97064,5.04832 -8.56568,-5.77776 -10.82576,-17.40488 -5.04816,-25.97072 5.7776,-8.5656 17.4048,-10.82584 25.97064,-5.04808 8.56576,5.77768 10.82584,17.40488 5.04816,25.97048 z"
     style="display:inline;fill:#929292;fill-opacity:1;stroke:none;stroke-width:4;enable-background:new"
     id="path1900" />
</svg>
