<?xml version="1.0" encoding="UTF-8" standalone="no"?>
<!-- Created with Inkscape (http://www.inkscape.org/) -->

<svg
   width="256"
   height="256"
   viewBox="0 0 256 256"
   version="1.1"
   id="svg5"
   inkscape:version="1.2.1 (9c6d41e410, 2022-07-14)"
   sodipodi:docname="application-x-java.svg"
   xmlns:inkscape="http://www.inkscape.org/namespaces/inkscape"
   xmlns:sodipodi="http://sodipodi.sourceforge.net/DTD/sodipodi-0.dtd"
   xmlns="http://www.w3.org/2000/svg"
   xmlns:svg="http://www.w3.org/2000/svg">
  <sodipodi:namedview
     id="namedview7"
     pagecolor="#ffffff"
     bordercolor="#000000"
     borderopacity="0.25"
     inkscape:showpageshadow="2"
     inkscape:pageopacity="0.0"
     inkscape:pagecheckerboard="0"
     inkscape:deskcolor="#d1d1d1"
     inkscape:document-units="px"
     showgrid="false"
     inkscape:zoom="2.1820873"
     inkscape:cx="24.517809"
     inkscape:cy="150.77307"
     inkscape:window-width="1920"
     inkscape:window-height="1002"
     inkscape:window-x="0"
     inkscape:window-y="0"
     inkscape:window-maximized="1"
     inkscape:current-layer="svg5" />
  <defs
     id="defs2" />
  <rect
     style="opacity:0.3;fill:#000000;fill-opacity:1;stroke-width:4;stroke-linejoin:round"
     id="rect234"
     width="182"
     height="234"
     x="37"
     y="11"
     ry="1" />
  <rect
     style="fill:#fafafa;fill-opacity:1;stroke-width:12.9238;stroke-linejoin:round"
     id="rect2307"
     width="180"
     height="232"
     x="38"
     y="12" />
  <path
     d="m 140.00794,68.000001 c 5.0288,19.811047 -17.73834,25.79488 -25.95513,38.132939 -5.59544,8.40639 2.74669,17.43898 14.12005,27.69979 -4.43512,-10.02587 -19.47541,-18.79661 0.006,-34.184035 24.29362,-19.176079 11.82858,-31.648694 11.82858,-31.648694 z m 15.03032,24.511334 c 2.8e-4,0 -41.07949,10.257175 -21.46046,32.864205 5.79168,6.66687 -1.51924,12.66144 -1.51924,12.66144 0,0 14.69712,-7.58531 7.94892,-17.08975 -6.3051,-8.85903 -11.13842,-13.25997 15.0314,-28.436047 z m 7.27494,40.382545 c -1.44334,0.005 -2.97604,0.25521 -4.54834,0.80777 -1.26058,0.4463 -1.92214,1.48372 -1.92214,1.48372 0,0 0.79704,-0.32079 2.57388,-0.69167 7.26648,-1.5141 17.67786,9.72758 -4.8371,21.42417 -0.1044,0.27881 -0.45022,0.59113 -0.44992,0.59113 26.77606,-7.03894 20.93736,-23.63749 9.18348,-23.61482 z m -48.24255,1.14159 c -1.7637,-0.0409 -9.38848,0.0726 -18.500298,4.48031 -12.3184,5.95632 30.464928,8.66975 52.614768,2.84391 2.30284,-1.57155 5.48372,-2.93598 5.48372,-2.93598 0,0 -9.0595,1.61962 -18.08604,2.3772 -11.04878,0.92691 -22.90123,1.10999 -28.85029,0.31389 -14.085738,-1.88314 7.72184,-7.06359 7.72184,-7.06359 0,0 -0.1316,-0.0104 -0.384,-0.0152 z m -4.69378,13.62826 c -20.320538,6.74413 11.31197,14.39778 39.71127,6.09056 -3.01746,-1.06357 -4.9334,-3.0102 -4.9334,-3.0102 -13.88558,2.6723 -21.90646,2.58689 -32.06595,1.53813 -7.85428,-0.81185 -2.71314,-4.61849 -2.71314,-4.61849 z m 2.87218,13.13646 c -18.450398,5.15534 11.22579,15.80468 34.71921,5.73906 -3.84776,-1.4952 -6.60746,-3.22156 -6.60746,-3.22156 -10.4764,1.98019 -15.33604,2.13622 -24.84545,1.05057 -7.84836,-0.90014 -3.26556,-3.56793 -3.26556,-3.56793 z m -12.815198,8.7095 c -8.28576,0.25566 -24.490182,7.70566 -9.67104,10.11054 47.894828,7.7634 87.306788,-3.49688 74.884048,-9.10184 0,0 3.39316,2.79764 -3.73634,4.96062 -13.5569,4.1063 -56.43669,5.34478 -68.346888,0.1642 -4.27834,-1.86348 3.74814,-4.44644 6.27364,-4.99192 2.633318,-0.56966 4.137138,-0.46564 4.137138,-0.46564 -0.74398,-0.52386 -2.00742,-0.72326 -3.541778,-0.67594 z m 72.817388,7.12014 c 0,0 -1.50972,3.87618 -17.85778,6.9517 -18.44434,3.47238 -41.19741,3.0675 -54.687488,0.84028 0,0 2.763178,2.2877 16.964248,3.20176 21.60712,1.38136 54.79638,-0.76862 55.58252,-10.9936 z"
     style="clip-rule:evenodd;fill:#df5943;fill-opacity:1;stroke-width:3.83566;enable-background:new"
     id="path6360" />
</svg>
