<?xml version="1.0" encoding="UTF-8" standalone="no"?>
<!-- Created with Inkscape (http://www.inkscape.org/) -->

<svg
   width="256"
   height="256"
   viewBox="0 0 256 256"
   version="1.1"
   id="svg5"
   inkscape:version="1.2.1 (9c6d41e410, 2022-07-14)"
   sodipodi:docname="application-vnd.ms-powerpoint.template.macroenabled.12.svg"
   xmlns:inkscape="http://www.inkscape.org/namespaces/inkscape"
   xmlns:sodipodi="http://sodipodi.sourceforge.net/DTD/sodipodi-0.dtd"
   xmlns="http://www.w3.org/2000/svg"
   xmlns:svg="http://www.w3.org/2000/svg">
  <sodipodi:namedview
     id="namedview7"
     pagecolor="#ffffff"
     bordercolor="#000000"
     borderopacity="0.25"
     inkscape:showpageshadow="2"
     inkscape:pageopacity="0.0"
     inkscape:pagecheckerboard="0"
     inkscape:deskcolor="#d1d1d1"
     inkscape:document-units="px"
     showgrid="false"
     inkscape:zoom="2"
     inkscape:cx="50.75"
     inkscape:cy="119.75"
     inkscape:window-width="1920"
     inkscape:window-height="1007"
     inkscape:window-x="0"
     inkscape:window-y="0"
     inkscape:window-maximized="1"
     inkscape:current-layer="svg5" />
  <defs
     id="defs2" />
  <rect
     style="opacity:0.3;fill:#000000;fill-opacity:1;stroke-width:4;stroke-linejoin:round"
     id="rect234"
     width="182"
     height="234"
     x="37"
     y="11"
     ry="1" />
  <rect
     style="fill:#fafafa;fill-opacity:1;stroke-width:12.9238;stroke-linejoin:round"
     id="rect2307"
     width="180"
     height="232"
     x="38"
     y="12" />
  <circle
     style="opacity:0.3;fill:#d04423;fill-opacity:1;stroke-width:42.6668;stroke-linejoin:bevel"
     id="path31463"
     cx="138.00002"
     cy="128"
     r="63.999992" />
  <path
     id="path31465"
     style="opacity:0.7;fill:#d04423;fill-opacity:1;stroke-width:32;stroke-linejoin:bevel"
     d="M 73.999996,128 A 64.000001,64.000001 0 0 0 137.99999,192.00001 64.000001,64.000001 0 0 0 202,128 h -64.00001 z" />
  <path
     id="path31759"
     style="opacity:0.5;fill:#d04423;fill-opacity:1;stroke-width:32;stroke-linejoin:bevel"
     d="M 137.99999,64 A 63.999993,64.000001 0 0 0 73.999996,128 H 137.99999 Z" />
  <rect
     style="fill:#fafafa;fill-opacity:1;stroke-width:4"
     id="rect3242"
     width="80.000008"
     height="80.000008"
     x="54"
     y="88"
     ry="12.000001" />
  <rect
     style="fill:#d04423;fill-opacity:1;stroke-width:4"
     id="rect2687"
     width="72.000008"
     height="72.000008"
     x="58"
     y="92.000015"
     ry="7.9999976" />
  <path
     id="rect4291"
     style="fill:#ffffff;fill-opacity:1;stroke-width:4"
     d="m 81.999997,104 v 48.00001 h 7.999999 V 136 h 8.000001 A 16.000001,16.000001 0 0 0 114,120 16.000001,16.000001 0 0 0 97.999997,104 h -8.000001 z m 7.999999,8 h 8.000001 A 8.0000002,8.0000002 0 0 1 106,120 a 8.0000002,8.0000002 0 0 1 -8.000003,8 h -8.000001 z" />
  <path
     style="color:#000000;opacity:0.8;fill:#e9e9e9;fill-opacity:1;fill-rule:evenodd;stroke:none;stroke-width:2px;-inkscape-stroke:none"
     d="M 218,88 61.354125,244 H 218 Z M 187.00679,157.99999 186.99979,213 h -55.99983 z"
     id="path3615"
     sodipodi:nodetypes="cccccccc" />
  <path
     style="color:#000000;opacity:0.8;fill:#83899a;fill-opacity:1;fill-rule:evenodd;stroke:none;stroke-width:2;-inkscape-stroke:none"
     d="M 218.999,84.99514 58.514515,244.99914 H 218.999 Z M 218,88 V 244 H 61.354125 Z M 187.00679,157.99999 130.99996,213 h 56.00003 z m -2,4.5 v 48.49913 h -49.55463 z"
     id="path3617"
     sodipodi:nodetypes="cccccccccccccccc" />
</svg>
