<?xml version="1.0" encoding="UTF-8" standalone="no"?>
<!-- Created with Inkscape (http://www.inkscape.org/) -->

<svg
   width="256"
   height="256"
   viewBox="0 0 256 256"
   version="1.1"
   id="svg5"
   inkscape:version="1.2.1 (9c6d41e410, 2022-07-14)"
   sodipodi:docname="application-octet-stream.svg"
   xmlns:inkscape="http://www.inkscape.org/namespaces/inkscape"
   xmlns:sodipodi="http://sodipodi.sourceforge.net/DTD/sodipodi-0.dtd"
   xmlns="http://www.w3.org/2000/svg"
   xmlns:svg="http://www.w3.org/2000/svg">
  <sodipodi:namedview
     id="namedview7"
     pagecolor="#ffffff"
     bordercolor="#000000"
     borderopacity="0.25"
     inkscape:showpageshadow="2"
     inkscape:pageopacity="0.0"
     inkscape:pagecheckerboard="0"
     inkscape:deskcolor="#d1d1d1"
     inkscape:document-units="px"
     showgrid="false"
     inkscape:zoom="2.1820873"
     inkscape:cx="24.976086"
     inkscape:cy="151.00221"
     inkscape:window-width="1920"
     inkscape:window-height="1007"
     inkscape:window-x="0"
     inkscape:window-y="0"
     inkscape:window-maximized="1"
     inkscape:current-layer="svg5" />
  <defs
     id="defs2" />
  <rect
     style="opacity:0.3;fill:#000000;fill-opacity:1;stroke-width:4;stroke-linejoin:round"
     id="rect234"
     width="182"
     height="234"
     x="37"
     y="11"
     ry="1" />
  <rect
     style="fill:#fafafa;fill-opacity:1;stroke-width:12.9238;stroke-linejoin:round"
     id="rect2307"
     width="180"
     height="232"
     x="38"
     y="12" />
  <path
     d="M 80,40 V 56 H 96 V 40 Z m 16,16 v 16 h 16 V 56 Z m 16,0 h 16 V 40 h -16 z m 16,0 v 16 h 16 V 56 Z m 16,0 h 16 V 40 h -16 z m 16,0 v 16 h 16 V 56 Z m 16,0 h 16 V 40 h -16 z m 0,16 v 16 h 16 V 72 Z m 0,16 h -16 v 16 h 16 z m 0,16 v 16 h 16 v -16 z m 0,16 h -16 v 16 h 16 z m 0,16 v 16 h 16 v -16 z m 0,16 h -16 v 16 h 16 z m 0,16 v 16 h 16 v -16 z m 0,16 h -16 v 16 h 16 z m 0,16 v 16 h 16 v -16 z m -16,0 h -16 v 16 h 16 z m -16,0 v -16 h -16 v 16 z m -16,0 h -16 v 16 h 16 z m -16,0 V 184 H 96 v 16 z m -16,0 H 80 v 16 h 16 z m -16,0 V 184 H 64 v 16 z m 0,-16 H 96 V 168 H 80 Z m 0,-16 V 152 H 64 v 16 z m 0,-16 H 96 V 136 H 80 Z m 0,-16 V 120 H 64 v 16 z m 0,-16 H 96 V 104 H 80 Z m 0,-16 V 88 H 64 v 16 z M 80,88 H 96 V 72 H 80 Z M 80,72 V 56 H 64 v 16 z m 16,16 v 16 h 16 V 88 Z m 16,0 h 16 V 72 h -16 z m 16,0 v 16 h 16 V 88 Z m 16,0 h 16 V 72 h -16 z m 0,16 v 16 h 16 v -16 z m 0,16 h -16 v 16 h 16 z m 0,16 v 16 h 16 v -16 z m 0,16 h -16 v 16 h 16 z m 0,16 v 16 h 16 v -16 z m -16,0 h -16 v 16 h 16 z m -16,0 V 152 H 96 v 16 z m 0,-16 h 16 v -16 h -16 z m 0,-16 V 120 H 96 v 16 z m 0,-16 h 16 v -16 h -16 z"
     style="color:#000000;display:inline;overflow:visible;visibility:visible;opacity:0.2;fill:#000000;fill-opacity:1;fill-rule:nonzero;stroke:none;stroke-width:3.94171;marker:none;enable-background:accumulate"
     id="path5692" />
</svg>
