<?xml version="1.0" encoding="UTF-8" standalone="no"?>
<!-- Created with Inkscape (http://www.inkscape.org/) -->

<svg
   width="256"
   height="256"
   viewBox="0 0 256 256"
   version="1.1"
   id="svg5"
   inkscape:version="1.2.1 (9c6d41e410, 2022-07-14)"
   sodipodi:docname="application-x-plasma.svg"
   xmlns:inkscape="http://www.inkscape.org/namespaces/inkscape"
   xmlns:sodipodi="http://sodipodi.sourceforge.net/DTD/sodipodi-0.dtd"
   xmlns="http://www.w3.org/2000/svg"
   xmlns:svg="http://www.w3.org/2000/svg">
  <sodipodi:namedview
     id="namedview7"
     pagecolor="#ffffff"
     bordercolor="#000000"
     borderopacity="0.25"
     inkscape:showpageshadow="2"
     inkscape:pageopacity="0.0"
     inkscape:pagecheckerboard="0"
     inkscape:deskcolor="#d1d1d1"
     inkscape:document-units="px"
     showgrid="false"
     inkscape:zoom="2.1820873"
     inkscape:cx="24.976086"
     inkscape:cy="151.00221"
     inkscape:window-width="1920"
     inkscape:window-height="1007"
     inkscape:window-x="0"
     inkscape:window-y="0"
     inkscape:window-maximized="1"
     inkscape:current-layer="svg5" />
  <defs
     id="defs2" />
  <rect
     style="opacity:0.3;fill:#000000;fill-opacity:1;stroke-width:4;stroke-linejoin:round"
     id="rect234"
     width="182"
     height="234"
     x="37"
     y="11"
     ry="1" />
  <rect
     style="fill:#fafafa;fill-opacity:1;stroke-width:12.9238;stroke-linejoin:round"
     id="rect2307"
     width="180"
     height="232"
     x="38"
     y="12" />
  <path
     d="m 96,72 c -4.432,0 -8,3.568 -8,8 0,4.432 3.568,8 8,8 4.432,0 8,-3.568 8,-8 0,-4.432 -3.568,-8 -8,-8 z m 48,0 -16,16 24,23.99999 L 128,136 l 16,16 24,-24.00001 16,-16 L 168,96 Z m -60,39.99999 c -6.647952,0 -12,5.35196 -12,12 C 72,130.64794 77.352048,136 84,136 c 6.648048,0 12,-5.35206 12,-12.00001 0,-6.64804 -5.351952,-12 -12,-12 z M 112,152 c -8.864,0 -16,7.136 -16,16 0,8.864 7.136,16 16,16 8.864,0 16,-7.136 16,-16 0,-8.864 -7.136,-16 -16,-16 z"
     style="fill:#3daee9;fill-opacity:1;stroke-width:8"
     id="path360"
     sodipodi:nodetypes="ssssscccccccccssssssssss" />
</svg>
