<?xml version="1.0" encoding="UTF-8" standalone="no"?>
<!-- Created with Inkscape (http://www.inkscape.org/) -->

<svg
   width="256"
   height="256"
   viewBox="0 0 256 256"
   version="1.1"
   id="svg5"
   inkscape:version="1.2.1 (9c6d41e410, 2022-07-14)"
   sodipodi:docname="playlist.svg"
   xmlns:inkscape="http://www.inkscape.org/namespaces/inkscape"
   xmlns:sodipodi="http://sodipodi.sourceforge.net/DTD/sodipodi-0.dtd"
   xmlns="http://www.w3.org/2000/svg"
   xmlns:svg="http://www.w3.org/2000/svg">
  <sodipodi:namedview
     id="namedview7"
     pagecolor="#ffffff"
     bordercolor="#000000"
     borderopacity="0.25"
     inkscape:showpageshadow="2"
     inkscape:pageopacity="0.0"
     inkscape:pagecheckerboard="0"
     inkscape:deskcolor="#d1d1d1"
     inkscape:document-units="px"
     showgrid="false"
     inkscape:zoom="2.1820873"
     inkscape:cx="24.976086"
     inkscape:cy="151.00221"
     inkscape:window-width="1920"
     inkscape:window-height="1007"
     inkscape:window-x="0"
     inkscape:window-y="0"
     inkscape:window-maximized="1"
     inkscape:current-layer="svg5" />
  <defs
     id="defs2" />
  <rect
     style="opacity:0.3;fill:#000000;fill-opacity:1;stroke-width:4;stroke-linejoin:round"
     id="rect234"
     width="182"
     height="234"
     x="37"
     y="11"
     ry="1" />
  <rect
     style="fill:#fafafa;fill-opacity:1;stroke-width:12.9238;stroke-linejoin:round"
     id="rect2307"
     width="180"
     height="232"
     x="38"
     y="12" />
  <path
     d="m 163.93896,72 c -2.21456,0 -3.99736,1.7828 -3.99736,3.99736 v 76.215 c -4.89876,-2.05576 -11.0242,-1.3386 -16.27044,1.90496 -8.5468,5.28716 -12.24624,15.58124 -8.26012,22.98472 3.97996,7.40332 14.13212,9.11636 22.6724,3.8256 6.179,-3.8292 10.04748,-10.47928 9.83724,-16.91064 5.6e-4,-0.028 0.016,-0.0504 0.016,-0.078 V 98.98216 c 0.96236,-0.53132 2.45748,0.61496 3.24784,1.15548 8.98152,5.4338 16.82284,14.45116 17.37908,25.56112 0.4812,6.42676 -0.86484,12.8188 -2.71696,18.92496 8.2566,-13.58424 7.81256,-32.4834 -2.38904,-44.89208 -6.58048,-6.86636 -12.78588,-14.87052 -15.52092,-24.17144 -0.1996,-0.88344 -1.40592,-3.56012 -3.99732,-3.56012 z m -87.9416,7.99468 C 73.78284,79.99468 72,81.77752 72,83.99204 c 0,2.21452 1.78284,3.99732 3.99736,3.99732 h 55.96284 c 2.21452,0 3.99732,-1.7828 3.99732,-3.99732 0,-2.21452 -1.7828,-3.99736 -3.99732,-3.99736 z m 0,23.98408 c -2.21452,0 -3.99736,1.7828 -3.99736,3.99732 0,2.21456 1.78284,3.99736 3.99736,3.99736 h 55.96284 c 2.21452,0 3.99732,-1.7828 3.99732,-3.99736 0,-2.21452 -1.7828,-3.99732 -3.99732,-3.99732 z m 0,23.98408 c -2.21452,0 -3.99736,1.7828 -3.99736,3.99732 0,2.21452 1.78284,3.99736 3.99736,3.99736 h 55.96284 c 2.21452,0 3.99732,-1.78284 3.99732,-3.99736 0,-2.21452 -1.7828,-3.99732 -3.99732,-3.99732 z m 0,23.98404 c -2.21452,0 -3.99736,1.78284 -3.99736,3.99736 0,2.21452 1.78284,3.99736 3.99736,3.99736 h 31.97876 c 2.21452,0 3.99736,-1.78284 3.99736,-3.99736 0,-2.21452 -1.78284,-3.99736 -3.99736,-3.99736 z"
     style="color:#000000;clip-rule:nonzero;display:inline;overflow:visible;visibility:visible;isolation:auto;mix-blend-mode:normal;color-interpolation:sRGB;color-interpolation-filters:linearRGB;solid-color:#000000;solid-opacity:1;fill:#ff7f2a;fill-opacity:1;fill-rule:nonzero;stroke:none;stroke-width:4;stroke-linecap:butt;stroke-linejoin:round;stroke-miterlimit:4;stroke-dasharray:none;stroke-dashoffset:0;stroke-opacity:1;marker:none;color-rendering:auto;image-rendering:auto;shape-rendering:auto;text-rendering:auto;enable-background:accumulate"
     id="path329" />
</svg>
