<?xml version="1.0" encoding="UTF-8" standalone="no"?>
<!-- Created with Inkscape (http://www.inkscape.org/) -->

<svg
   width="256"
   height="256"
   viewBox="0 0 256 256"
   version="1.1"
   id="svg5"
   inkscape:version="1.2.1 (9c6d41e410, 2022-07-14)"
   sodipodi:docname="text-x-vala.svg"
   xmlns:inkscape="http://www.inkscape.org/namespaces/inkscape"
   xmlns:sodipodi="http://sodipodi.sourceforge.net/DTD/sodipodi-0.dtd"
   xmlns="http://www.w3.org/2000/svg"
   xmlns:svg="http://www.w3.org/2000/svg">
  <sodipodi:namedview
     id="namedview7"
     pagecolor="#ffffff"
     bordercolor="#000000"
     borderopacity="0.25"
     inkscape:showpageshadow="2"
     inkscape:pageopacity="0.0"
     inkscape:pagecheckerboard="0"
     inkscape:deskcolor="#d1d1d1"
     inkscape:document-units="px"
     showgrid="false"
     inkscape:zoom="2.1820873"
     inkscape:cx="24.288671"
     inkscape:cy="151.00221"
     inkscape:window-width="1920"
     inkscape:window-height="1007"
     inkscape:window-x="0"
     inkscape:window-y="0"
     inkscape:window-maximized="1"
     inkscape:current-layer="svg5" />
  <defs
     id="defs2" />
  <rect
     style="opacity:0.3;fill:#000000;fill-opacity:1;stroke-width:4;stroke-linejoin:round"
     id="rect234"
     width="182"
     height="234"
     x="37"
     y="11"
     ry="1" />
  <rect
     style="fill:#fafafa;fill-opacity:1;stroke-width:12.9238;stroke-linejoin:round"
     id="rect2307"
     width="180"
     height="232"
     x="38"
     y="12" />
  <path
     d="M 111.78921,183.99989 109.38297,81.989446 c -7,2.625001 -12.468748,6.732636 -16.406255,12.322911 -3.888882,5.590283 -5.833331,12.541683 -5.833331,20.854173 0,1.89583 0.09752,3.45139 0.2916,4.66667 0.24296,1.16669 0.48616,2.11457 0.729121,2.84376 0.24296,0.68056 0.46184,1.21529 0.65624,1.60416 0.24296,0.38896 0.36448,0.72912 0.36448,1.02089 -2.576385,0 -4.861115,-0.24296 -6.854164,-0.72912 -1.993065,-0.53472 -3.670138,-1.3611 -5.031251,-2.47916 -1.312504,-1.11809 -2.333345,-2.60069 -3.062513,-4.44792 -0.680561,-1.84722 -1.020897,-4.13195 -1.020897,-6.85417 0,-3.30556 0.70488,-6.56249 2.114593,-9.77083 1.458305,-3.208307 3.427066,-6.246501 5.906244,-9.114559 2.527785,-2.868057 5.468747,-5.517363 8.822925,-7.947916 3.402762,-2.430554 7.024292,-4.520835 10.864578,-6.270836 3.88889,-1.798609 7.92362,-3.184026 12.10418,-4.15625 C 117.25768,72.510408 121.46254,72 125.64309,72 c 1.1181,0 2.13889,0.024 3.0625,0.0728 0.97215,0.0488 1.94446,0.12152 2.91668,0.2188 l 1.31256,91.87506 31.42708,-91.437524 H 174.789 L 133.2994,184 Z"
     style="color:#000000;clip-rule:nonzero;display:inline;overflow:visible;visibility:visible;isolation:auto;mix-blend-mode:normal;color-interpolation:sRGB;color-interpolation-filters:linearRGB;solid-color:#000000;solid-opacity:1;fill:#8d5fd3;fill-opacity:1;fill-rule:nonzero;stroke-width:8;stroke-linecap:butt;stroke-linejoin:miter;stroke-miterlimit:4;stroke-dasharray:none;stroke-dashoffset:0;stroke-opacity:1;color-rendering:auto;image-rendering:auto;shape-rendering:auto;text-rendering:auto;enable-background:accumulate"
     id="path328" />
</svg>
