<?xml version="1.0" encoding="UTF-8" standalone="no"?>
<!-- Created with Inkscape (http://www.inkscape.org/) -->

<svg
   width="256"
   height="256"
   viewBox="0 0 256 256"
   version="1.1"
   id="svg5"
   inkscape:version="1.2.1 (9c6d41e410, 2022-07-14)"
   sodipodi:docname="text-x-python.svg"
   xmlns:inkscape="http://www.inkscape.org/namespaces/inkscape"
   xmlns:sodipodi="http://sodipodi.sourceforge.net/DTD/sodipodi-0.dtd"
   xmlns="http://www.w3.org/2000/svg"
   xmlns:svg="http://www.w3.org/2000/svg">
  <sodipodi:namedview
     id="namedview7"
     pagecolor="#ffffff"
     bordercolor="#000000"
     borderopacity="0.25"
     inkscape:showpageshadow="2"
     inkscape:pageopacity="0.0"
     inkscape:pagecheckerboard="0"
     inkscape:deskcolor="#d1d1d1"
     inkscape:document-units="px"
     showgrid="false"
     inkscape:zoom="2.1820873"
     inkscape:cx="24.976086"
     inkscape:cy="151.00221"
     inkscape:window-width="1920"
     inkscape:window-height="1007"
     inkscape:window-x="0"
     inkscape:window-y="0"
     inkscape:window-maximized="1"
     inkscape:current-layer="svg5" />
  <defs
     id="defs2" />
  <rect
     style="opacity:0.3;fill:#000000;fill-opacity:1;stroke-width:4;stroke-linejoin:round"
     id="rect234"
     width="182"
     height="234"
     x="37"
     y="11"
     ry="1" />
  <rect
     style="fill:#fafafa;fill-opacity:1;stroke-width:12.9238;stroke-linejoin:round"
     id="rect2307"
     width="180"
     height="232"
     x="38"
     y="12" />
  <path
     d="m 127.22399,62.381081 c -5.38966,0.0252 -10.53667,0.484703 -15.06551,1.286081 -13.341397,2.356985 -15.763676,7.290361 -15.76368,16.388343 v 12.015668 h 31.52735 v 4.005222 H 96.3948 84.562858 c -9.162726,0 -17.185869,5.507325 -19.695408,15.984145 -2.89472,12.00887 -3.023117,19.5026 0,32.04178 2.241077,9.33371 7.593072,15.98416 16.755794,15.98416 h 10.839823 v -14.40411 c 0,-10.40612 9.003623,-19.58517 19.695413,-19.58517 h 31.49062 c 8.76585,0 15.76367,-7.21753 15.76367,-16.02089 V 80.055505 c 0,-8.544089 -7.20791,-14.962369 -15.76367,-16.388343 -5.41595,-0.90155 -11.03544,-1.311126 -16.42511,-1.286081 z m -17.04975,9.663978 c 3.25656,0 5.91597,2.702853 5.91597,6.026208 0,3.311573 -2.65941,5.98946 -5.91597,5.98946 -3.26823,0 -5.91597,-2.677887 -5.91597,-5.98946 0,-3.323355 2.64774,-6.026208 5.91597,-6.026208 z"
     style="color:#000000;clip-rule:nonzero;display:inline;overflow:visible;visibility:visible;isolation:auto;mix-blend-mode:normal;color-interpolation:sRGB;color-interpolation-filters:linearRGB;solid-color:#000000;solid-opacity:1;fill:#3b92e7;fill-opacity:1;fill-rule:nonzero;stroke:none;stroke-width:4.00003;stroke-linecap:butt;stroke-linejoin:miter;stroke-miterlimit:4;stroke-dasharray:none;stroke-dashoffset:0;stroke-opacity:1;marker:none;color-rendering:auto;image-rendering:auto;shape-rendering:auto;text-rendering:auto;enable-background:accumulate"
     id="path395" />
  <path
     d="m 163.34195,96.076248 v 13.999942 c 0,10.85392 -9.20208,19.98935 -19.69544,19.98935 h -31.49058 c -8.62582,0 -15.763682,7.38252 -15.763686,16.02086 v 30.02083 c 0,8.54411 7.429666,13.56962 15.763686,16.02088 9.97979,2.93445 19.54986,3.46479 31.49058,0 7.93715,-2.29806 15.76367,-6.92292 15.76367,-16.02088 V 164.09155 H 127.9196 v -4.00519 h 31.49058 15.76368 c 9.16275,0 12.57714,-6.39121 15.76367,-15.98416 3.2916,-9.87579 3.15156,-19.37298 0,-32.0418 -2.26441,-9.12154 -6.58929,-15.984152 -15.76367,-15.984152 z M 145.63077,172.102 c 3.26823,0 5.91597,2.6779 5.91597,5.98949 0,3.32335 -2.64774,6.02621 -5.91597,6.02621 -3.25659,0 -5.91596,-2.70286 -5.91596,-6.02621 0,-3.31159 2.65937,-5.98949 5.91596,-5.98949 z"
     style="color:#000000;clip-rule:nonzero;display:inline;overflow:visible;visibility:visible;isolation:auto;mix-blend-mode:normal;color-interpolation:sRGB;color-interpolation-filters:linearRGB;solid-color:#000000;solid-opacity:1;fill:#ffda2f;fill-opacity:1;fill-rule:nonzero;stroke:none;stroke-width:4.00003;stroke-linecap:butt;stroke-linejoin:miter;stroke-miterlimit:4;stroke-dasharray:none;stroke-dashoffset:0;stroke-opacity:1;marker:none;color-rendering:auto;image-rendering:auto;shape-rendering:auto;text-rendering:auto;enable-background:accumulate"
     id="path3769" />
</svg>
