<?xml version="1.0" encoding="UTF-8" standalone="no"?>
<!-- Created with Inkscape (http://www.inkscape.org/) -->

<svg
   width="256"
   height="256"
   viewBox="0 0 256 256"
   version="1.1"
   id="svg5"
   inkscape:version="1.2.1 (9c6d41e410, 2022-07-14)"
   sodipodi:docname="text-x-generic.svg"
   xmlns:inkscape="http://www.inkscape.org/namespaces/inkscape"
   xmlns:sodipodi="http://sodipodi.sourceforge.net/DTD/sodipodi-0.dtd"
   xmlns="http://www.w3.org/2000/svg"
   xmlns:svg="http://www.w3.org/2000/svg">
  <sodipodi:namedview
     id="namedview7"
     pagecolor="#ffffff"
     bordercolor="#000000"
     borderopacity="0.25"
     inkscape:showpageshadow="2"
     inkscape:pageopacity="0.0"
     inkscape:pagecheckerboard="0"
     inkscape:deskcolor="#d1d1d1"
     inkscape:document-units="px"
     showgrid="false"
     inkscape:zoom="3.125"
     inkscape:cx="128"
     inkscape:cy="128"
     inkscape:window-width="1920"
     inkscape:window-height="1012"
     inkscape:window-x="0"
     inkscape:window-y="0"
     inkscape:window-maximized="1"
     inkscape:current-layer="svg5" />
  <defs
     id="defs2" />
  <rect
     style="opacity:0.3;fill:#000000;fill-opacity:1;stroke-width:4;stroke-linejoin:round"
     id="rect234"
     width="182"
     height="234"
     x="37"
     y="11"
     ry="1" />
  <rect
     style="fill:#fafafa;fill-opacity:1;stroke-width:12.9238;stroke-linejoin:round"
     id="rect2307"
     width="180"
     height="232"
     x="38"
     y="12" />
  <path
     id="rect3634"
     style="opacity:0.2;fill:#000000;stroke-width:2;stroke-linejoin:round"
     d="m 60.000002,47 v 2 H 122 v -2 z m 0,8 v 2 h 8 v -2 z m 0,8 v 2 H 162 v -2 z m 0,8 v 2 H 148 v -2 z m 0,8 v 2 H 192 v -2 z m 0,8 v 2 H 176 v -2 z m 0,8 v 2 H 146 v -2 z m 0,8 v 2 H 160 v -2 z m 0,8 v 2 H 108 v -2 z m 0,8 v 2 h 37.999996 v -2 z m 0,8 v 2 H 108 v -2 z m 0,8 v 2 H 152 v -2 z m 0,8 v 2 h 27.999996 v -2 z m 0,8 v 2 h 6 v -2 z m 0,8 v 2 h 25.999996 v -2 z M 108,159 v 2 h 38 v -2 z m -47.999998,8 v 2 h 31.999996 v -2 z M 108,167 v 2 h 62 v -2 z m -47.999998,8 v 2 h 25.999996 v -2 z M 108,175 v 2 h 56 v -2 z m -47.999998,8 v 2 h 23.999996 v -2 z M 108,183 v 2 h 66 v -2 z m -47.999998,8 v 2 H 192 v -2 z m 0,8 v 2 H 176 v -2 z m 0,8 v 2 H 196 v -2 z" />
</svg>
