<?xml version="1.0" encoding="UTF-8" standalone="no"?>
<!-- Created with Inkscape (http://www.inkscape.org/) -->

<svg
   width="256"
   height="256"
   viewBox="0 0 256 256"
   version="1.1"
   id="svg5"
   inkscape:version="1.2.1 (9c6d41e410, 2022-07-14)"
   sodipodi:docname="x-office-presentation-template.svg"
   xmlns:inkscape="http://www.inkscape.org/namespaces/inkscape"
   xmlns:sodipodi="http://sodipodi.sourceforge.net/DTD/sodipodi-0.dtd"
   xmlns="http://www.w3.org/2000/svg"
   xmlns:svg="http://www.w3.org/2000/svg">
  <sodipodi:namedview
     id="namedview7"
     pagecolor="#ffffff"
     bordercolor="#000000"
     borderopacity="0.25"
     inkscape:showpageshadow="2"
     inkscape:pageopacity="0.0"
     inkscape:pagecheckerboard="0"
     inkscape:deskcolor="#d1d1d1"
     inkscape:document-units="px"
     showgrid="false"
     inkscape:zoom="2.2677135"
     inkscape:cx="146.62346"
     inkscape:cy="155.00194"
     inkscape:window-width="1920"
     inkscape:window-height="1007"
     inkscape:window-x="0"
     inkscape:window-y="0"
     inkscape:window-maximized="1"
     inkscape:current-layer="svg5" />
  <defs
     id="defs2" />
  <rect
     style="opacity:0.6;fill:#6c2d00;fill-opacity:1;stroke-width:2;stroke-linejoin:round"
     id="rect234"
     width="182"
     height="234"
     x="37"
     y="11"
     ry="1" />
  <rect
     style="fill:#ff7e28;fill-opacity:1;stroke-width:12.6488;stroke-linejoin:round"
     id="rect2307"
     width="180"
     height="232"
     x="38"
     y="12" />
  <path
     id="path10051"
     style="color:#000000;display:inline;overflow:visible;visibility:visible;fill:#ffffff;fill-opacity:1;fill-rule:nonzero;stroke:none;stroke-width:160;marker:none;enable-background:new"
     d="m 88,68 c -13.2548,0 -24,10.745192 -24,24 0,13.25482 10.7452,24 24,24 13.2548,0 24,-10.74518 24,-24 H 88 Z m 40,16 v 8 h 64 v -8 z m 0,24 v 8 h 64 v -8 z m -64,24 v 8 h 128 v -8 z m 0,24 v 8 h 128 v -8 z m 0,24 v 8 h 64 v -8 z"
     sodipodi:nodetypes="csscccccccccccccccccccccccccccc" />
  <path
     style="color:#000000;opacity:0.8;fill:#e9e9e9;fill-opacity:1;fill-rule:evenodd;stroke:none;stroke-width:2px;-inkscape-stroke:none"
     d="M 218,87.999997 61.354123,244 H 218 Z M 187.00679,157.99999 186.99979,213 h -56.00003 z"
     id="path3615"
     sodipodi:nodetypes="cccccccc" />
  <path
     style="color:#000000;opacity:0.8;fill:#83899a;fill-opacity:1;fill-rule:evenodd;stroke:none;stroke-width:2;-inkscape-stroke:none"
     d="M 218.999,84.995137 58.514513,244.99914 H 218.999 Z M 218,87.999997 V 244 H 61.354123 Z M 187.00679,157.99999 130.99996,213 h 56.00003 z m -2,4.5 v 48.49913 h -49.55463 z"
     id="path3617"
     sodipodi:nodetypes="cccccccccccccccc" />
</svg>
