<?xml version="1.0" encoding="UTF-8" standalone="no"?>
<!-- Created with Inkscape (http://www.inkscape.org/) -->

<svg
   width="16"
   height="16"
   viewBox="0 0 16 16"
   version="1.1"
   id="svg5"
   sodipodi:docname="abiword.svg"
   inkscape:version="1.2.1 (9c6d41e410, 2022-07-14)"
   xmlns:inkscape="http://www.inkscape.org/namespaces/inkscape"
   xmlns:sodipodi="http://sodipodi.sourceforge.net/DTD/sodipodi-0.dtd"
   xmlns:xlink="http://www.w3.org/1999/xlink"
   xmlns="http://www.w3.org/2000/svg"
   xmlns:svg="http://www.w3.org/2000/svg">
  <sodipodi:namedview
     id="namedview7"
     pagecolor="#ffffff"
     bordercolor="#666666"
     borderopacity="1.0"
     inkscape:showpageshadow="2"
     inkscape:pageopacity="0.0"
     inkscape:pagecheckerboard="0"
     inkscape:deskcolor="#d1d1d1"
     inkscape:document-units="px"
     showgrid="false"
     inkscape:zoom="8.7283493"
     inkscape:cx="-18.846634"
     inkscape:cy="13.69102"
     inkscape:window-width="1920"
     inkscape:window-height="1007"
     inkscape:window-x="0"
     inkscape:window-y="0"
     inkscape:window-maximized="1"
     inkscape:current-layer="svg5" />
  <defs
     id="defs2">
    <linearGradient
       inkscape:collect="always"
       xlink:href="#linearGradient1677"
       id="linearGradient19638"
       x1="13"
       y1="16"
       x2="3"
       y2="0"
       gradientUnits="userSpaceOnUse" />
    <linearGradient
       inkscape:collect="always"
       id="linearGradient1677">
      <stop
         style="stop-color:#5792d8;stop-opacity:1;"
         offset="0"
         id="stop1673" />
      <stop
         style="stop-color:#a2d2f9;stop-opacity:1;"
         offset="1"
         id="stop1675" />
    </linearGradient>
  </defs>
  <rect
     style="fill:url(#linearGradient19638);fill-opacity:1.0;stroke:none"
     id="rect184"
     width="15"
     height="15"
     x="0.5"
     y="0.5"
     ry="2.5" />
  <path
     d="M 10.458576,10.80286 C 8.6079358,11.673573 6.7035808,12.49 4.6818698,12.925714 4.0302278,12.922114 4.3517278,12.115 4.4570128,11.749287 c 0.5055,-1.554069 1.289284,-3.0089957 2.034711,-4.4679935 0.295143,-0.4609275 0.504429,-1.0962118 1.099499,-1.2735687 0.577999,-0.061071 0.957784,0.4708564 1.257212,0.8588551 1.2244272,1.7842115 2.3801402,3.6148521 3.3944242,5.5148491 0.256428,0.494999 0.50857,0.992855 0.757141,1.491426 -0.739998,-2.874996 -1.736425,-5.7264914 -3.3428522,-8.2785581 -0.359642,-0.503785 -0.68757,-1.0506413 -1.173355,-1.4560692 -0.473356,-0.3459281 -1.055641,0.0265 -1.405569,0.361428 -1.099213,1.0490698 -1.768855,2.418067 -2.424925,3.7399221 -0.765213,1.5644261 -1.267284,3.2318522 -1.635855,4.9161352 -0.129214,0.567271 0.483971,0.978999 1.028856,0.802999 1.509355,-0.298721 2.92771,-0.925284 4.262636,-1.644426 0.769285,-0.429871 1.509212,-0.917999 2.1492112,-1.511498 z"
     style="opacity:0.2;fill:#000000;stroke-width:0.714285"
     id="path10774"
     sodipodi:nodetypes="ccccccccccccccccc" />
  <path
     d="M 10.458576,9.8028599 C 8.6079358,10.673572 6.7035808,11.49 4.6818698,11.925714 4.0302278,11.922114 4.3517278,11.115 4.4570128,10.749287 c 0.5055,-1.5540691 1.289284,-3.0089958 2.034711,-4.4679929 0.295143,-0.4609278 0.504429,-1.0962126 1.099499,-1.2735694 0.577999,-0.061071 0.957784,0.4708564 1.257212,0.8588558 C 10.072862,7.6507913 11.228575,9.4814309 12.242859,11.381429 12.499287,11.876428 12.751429,12.374285 13,12.872855 12.260002,9.9978589 11.263575,7.1463635 9.6571478,4.5942967 9.2975058,4.0905118 8.9695778,3.5436555 8.4837928,3.1382276 c -0.473356,-0.3459288 -1.055641,0.0265 -1.405569,0.3614273 -1.099213,1.0490705 -1.768855,2.4180684 -2.424925,3.7399228 -0.765213,1.5644261 -1.267284,3.2318523 -1.635855,4.9161363 -0.129214,0.56727 0.483971,0.978998 1.028856,0.802999 1.509355,-0.298721 2.92771,-0.925285 4.262636,-1.644427 0.769285,-0.429871 1.509212,-0.917999 2.1492112,-1.5114981 z"
     style="fill:#ffffff;stroke-width:0.714285"
     id="path11170" />
  <path
     id="rect2630"
     style="opacity:0.3;fill:#ffffff;fill-opacity:1"
     d="M 3,1 C 1.8920011,1 1,1.8920011 1,3 V 4 C 1,2.8920011 1.8920011,2 3,2 h 10 c 1.107999,0 2,0.8920011 2,2 V 3 C 15,1.8920011 14.107999,1 13,1 Z"
     sodipodi:nodetypes="sscsscsss" />
  <path
     d="M 3,15 C 1.8920011,15 1,14.107999 1,13 v -1 c 0,1.107999 0.8920011,2 2,2 h 10 c 1.107999,0 2,-0.892001 2,-2 v 1 c 0,1.107999 -0.892001,2 -2,2 z"
     style="opacity:0.3;fill:#ffffff;fill-opacity:1"
     id="path19648" />
  <path
     id="rect899"
     style="opacity:0.5;fill:#000000;stroke:none"
     d="M 3,0 C 1.3380017,0 0,1.3380017 0,3 v 10 c 0,1.661998 1.3380017,3 3,3 h 10 c 1.661998,0 3,-1.338002 3,-3 V 3 C 16,1.3380017 14.661998,0 13,0 Z m 0,1 h 10 c 1.107999,0 2,0.8920011 2,2 v 10 c 0,1.107999 -0.892001,2 -2,2 H 3 C 1.8920011,15 1,14.107999 1,13 V 3 C 1,1.8920011 1.8920011,1 3,1 Z" />
</svg>
