<?xml version="1.0" encoding="UTF-8" standalone="no"?>
<!-- Created with Inkscape (http://www.inkscape.org/) -->

<svg
   width="16"
   height="16"
   viewBox="0 0 16 16"
   version="1.1"
   id="svg5"
   sodipodi:docname="accessories-clock.svg"
   inkscape:version="1.2.1 (9c6d41e410, 2022-07-14)"
   xmlns:inkscape="http://www.inkscape.org/namespaces/inkscape"
   xmlns:sodipodi="http://sodipodi.sourceforge.net/DTD/sodipodi-0.dtd"
   xmlns:xlink="http://www.w3.org/1999/xlink"
   xmlns="http://www.w3.org/2000/svg"
   xmlns:svg="http://www.w3.org/2000/svg">
  <sodipodi:namedview
     id="namedview7"
     pagecolor="#ffffff"
     bordercolor="#666666"
     borderopacity="1.0"
     inkscape:showpageshadow="2"
     inkscape:pageopacity="0.0"
     inkscape:pagecheckerboard="0"
     inkscape:deskcolor="#d1d1d1"
     inkscape:document-units="px"
     showgrid="false"
     inkscape:zoom="51.3125"
     inkscape:cx="8"
     inkscape:cy="8"
     inkscape:window-width="1920"
     inkscape:window-height="1007"
     inkscape:window-x="0"
     inkscape:window-y="0"
     inkscape:window-maximized="1"
     inkscape:current-layer="svg5"
     showguides="false" />
  <defs
     id="defs2">
    <linearGradient
       inkscape:collect="always"
       xlink:href="#4852"
       id="linearGradient19638"
       x1="8"
       y1="0"
       x2="8"
       y2="16"
       gradientUnits="userSpaceOnUse" />
    <linearGradient
       inkscape:collect="always"
       id="4852">
      <stop
         style="stop-color:#333333;stop-opacity:1"
         offset="0"
         id="stop14555" />
      <stop
         style="stop-color:#666666;stop-opacity:1"
         offset="1"
         id="stop14557" />
    </linearGradient>
  </defs>
  <rect
     style="fill:url(#linearGradient19638);fill-opacity:1;stroke:none"
     id="rect184"
     width="15"
     height="15"
     x="0.5"
     y="0.5"
     ry="2.5" />
  <path
     id="path988"
     style="display:inline;fill:#000000;fill-opacity:1;stroke:none;stroke-width:0.999982;enable-background:new;opacity:0.2"
     d="M 11.707031 2.2871094 L 8.1933594 8.3671875 L 8.1191406 8.40625 C 8.0832417 8.39925 8.0611375 8.3643812 8.0234375 8.3632812 L 2.5 3.1796875 L 2.1445312 3.5332031 L 7.2851562 8.9980469 L 6.2011719 9.9257812 L 6.3261719 10.142578 L 7.8085938 9.6210938 C 7.8766927 9.6444937 7.9278775 9.7011719 8.0039062 9.7011719 C 8.0356052 9.7011719 8.0651032 9.6964062 8.0957031 9.6914062 L 9.3339844 10.539062 L 9.5117188 10.361328 L 8.703125 9.1796875 L 13.345703 6.2382812 L 13.09375 5.8046875 L 8.7441406 8.078125 L 11.996094 2.4550781 L 11.707031 2.2871094 z " />
  <path
     d="M 2.5004642,2.18 2.145,2.5335045 l 5.1405469,5.4647619 -1.083972,0.927715 0.1249979,0.216797 1.4823963,-0.521482 c 0.068099,0.0234 0.1192877,0.0801 0.1953165,0.0801 0.031699,0 0.061199,-0.005 0.091799,-0.01 l 1.2382597,0.847636 0.177737,-0.177727 -0.808577,-1.181621 4.6424947,-2.9413625 -0.251945,-0.433583 -4.9745299,2.6015185 c -0.035899,-0.007 -0.057999,-0.0419 -0.095699,-0.043 z"
     style="display:inline;fill:#ffffff;fill-opacity:1;stroke:none;stroke-width:0.999982;enable-background:new"
     id="path923"
     sodipodi:nodetypes="ccccccsccccccccc" />
  <path
     d="M 11.706186,1.288 11.995997,1.4554184 8.346379,7.769255 c 0.04057,0.06457 0.06457,0.141134 0.06457,0.223129 0,0.231986 -0.187988,0.419975 -0.419974,0.419975 C 7.758989,8.412359 7.571,8.22437 7.571,7.992384 7.571,7.760398 7.758989,7.57241 7.990975,7.57241 c 0.0271,0 0.05314,0.003 0.07885,0.008 z"
     style="color:#000000;display:inline;overflow:visible;visibility:visible;fill:#eb3030;fill-opacity:1;fill-rule:nonzero;stroke:none;stroke-width:0.999939;marker:none;enable-background:accumulate"
     id="path501" />
  <path
     id="rect2630"
     style="opacity:0.3;fill:#ffffff;fill-opacity:1"
     d="M 3,1 C 1.8920011,1 1,1.8920011 1,3 V 4 C 1,2.8920011 1.8920011,2 3,2 h 10 c 1.107999,0 2,0.8920011 2,2 V 3 C 15,1.8920011 14.107999,1 13,1 Z"
     sodipodi:nodetypes="sscsscsss" />
  <path
     d="M 3,15 C 1.8920011,15 1,14.107999 1,13 v -1 c 0,1.107999 0.8920011,2 2,2 h 10 c 1.107999,0 2,-0.892001 2,-2 v 1 c 0,1.107999 -0.892001,2 -2,2 z"
     style="opacity:0.3;fill:#ffffff;fill-opacity:1"
     id="path19648" />
  <path
     id="rect899"
     style="opacity:0.5;fill:#000000;stroke:none"
     d="M 3,0 C 1.3380017,0 0,1.3380017 0,3 v 10 c 0,1.661998 1.3380017,3 3,3 h 10 c 1.661998,0 3,-1.338002 3,-3 V 3 C 16,1.3380017 14.661998,0 13,0 Z m 0,1 h 10 c 1.107999,0 2,0.8920011 2,2 v 10 c 0,1.107999 -0.892001,2 -2,2 H 3 C 1.8920011,15 1,14.107999 1,13 V 3 C 1,1.8920011 1.8920011,1 3,1 Z" />
</svg>
