<?xml version="1.0" encoding="UTF-8" standalone="no"?>
<!-- Created with Inkscape (http://www.inkscape.org/) -->

<svg
   width="16"
   height="16"
   viewBox="0 0 16 16"
   version="1.1"
   id="svg5"
   sodipodi:docname="accessories-calculator.svg"
   inkscape:version="1.2.1 (9c6d41e410, 2022-07-14)"
   xmlns:inkscape="http://www.inkscape.org/namespaces/inkscape"
   xmlns:sodipodi="http://sodipodi.sourceforge.net/DTD/sodipodi-0.dtd"
   xmlns:xlink="http://www.w3.org/1999/xlink"
   xmlns="http://www.w3.org/2000/svg"
   xmlns:svg="http://www.w3.org/2000/svg">
  <sodipodi:namedview
     id="namedview7"
     pagecolor="#ffffff"
     bordercolor="#666666"
     borderopacity="1.0"
     inkscape:showpageshadow="2"
     inkscape:pageopacity="0.0"
     inkscape:pagecheckerboard="0"
     inkscape:deskcolor="#d1d1d1"
     inkscape:document-units="px"
     showgrid="false"
     inkscape:zoom="49.5"
     inkscape:cx="7.989899"
     inkscape:cy="8"
     inkscape:window-width="1920"
     inkscape:window-height="1007"
     inkscape:window-x="0"
     inkscape:window-y="0"
     inkscape:window-maximized="1"
     inkscape:current-layer="svg5" />
  <defs
     id="defs2">
    <linearGradient
       inkscape:collect="always"
       xlink:href="#4852"
       id="linearGradient19638"
       x1="13"
       y1="16"
       x2="3"
       y2="0"
       gradientUnits="userSpaceOnUse" />
    <linearGradient
       inkscape:collect="always"
       id="4852">
      <stop
         style="stop-color:#333333;stop-opacity:1"
         offset="0"
         id="stop14555" />
      <stop
         style="stop-color:#666666;stop-opacity:1"
         offset="1"
         id="stop14557" />
    </linearGradient>
    <linearGradient
       inkscape:collect="always"
       xlink:href="#linearGradient11839"
       id="linearGradient11841"
       x1="50.333336"
       y1="61.333336"
       x2="32"
       y2="32"
       gradientUnits="userSpaceOnUse"
       gradientTransform="matrix(0.27272727,0,0,0.27272727,-0.727273,-0.7272729)" />
    <linearGradient
       inkscape:collect="always"
       id="linearGradient11839">
      <stop
         style="stop-color:#ee800d;stop-opacity:1;"
         offset="0"
         id="stop11835" />
      <stop
         style="stop-color:#eea40d;stop-opacity:1;"
         offset="1"
         id="stop11837" />
    </linearGradient>
  </defs>
  <rect
     style="fill:url(#linearGradient19638);fill-opacity:1.0;stroke:none"
     id="rect184"
     width="15"
     height="15"
     x="0.5"
     y="0.5"
     ry="2.5" />
  <path
     id="rect11383"
     style="fill:url(#linearGradient11841);fill-opacity:1;stroke-width:0.545455"
     d="M 8 8 L 8 15.5 L 13 15.5 C 14.384999 15.5 15.5 14.384999 15.5 13 L 15.5 8 L 8 8 z " />
  <path
     d="m 3.99975,4 v 1 h -1 v 1 h 1 v 1 h 1 V 6 h 1 V 5 h -1 V 4 Z m 6,1 v 1 h 3 V 5 Z M 3.3435,10.65625 2.656,11.34375 3.81225,12.5 2.656,13.65625 3.3435,14.34375 4.49975,13.1875 5.656,14.34375 6.3435,13.65625 5.18725,12.5 6.3435,11.34375 5.656,10.65625 4.49975,11.8125 Z M 9.99975,11 v 1 h 3 v -1 z m 0,2 v 1 h 3 v -1 z"
     style="color:#000000;display:inline;overflow:visible;visibility:visible;opacity:0.2;fill:#000000;fill-opacity:1;fill-rule:nonzero;stroke:none;stroke-width:2;marker:none;enable-background:new"
     id="path12065"
     sodipodi:nodetypes="ccccccccccccccccccccccccccccccccccccccccc" />
  <path
     d="m 3.99975,3 v 1 h -1 v 1 h 1 v 1 h 1 V 5 h 1 V 4 h -1 V 3 Z m 6,1 v 1 h 3 V 4 Z M 3.3435,9.65625 2.656,10.34375 3.81225,11.5 2.656,12.65625 3.3435,13.34375 4.49975,12.1875 5.656,13.34375 6.3435,12.65625 5.18725,11.5 6.3435,10.34375 5.656,9.65625 4.49975,10.8125 Z M 9.99975,10 v 1 h 3 v -1 z m 0,2 v 1 h 3 v -1 z"
     style="color:#000000;display:inline;overflow:visible;visibility:visible;fill:#ffffff;fill-opacity:1;fill-rule:nonzero;stroke:none;stroke-width:2;marker:none;enable-background:new"
     id="path12234" />
  <path
     id="path10562"
     style="opacity:0.2;fill:#ffffff;fill-opacity:1;stroke:none"
     d="M 8,1 V 7 H 9 V 1 Z M 1,8 V 9 H 7 V 8 Z m 7,0 v 7.5 H 9 V 9 h 6.5 V 8 Z"
     sodipodi:nodetypes="ccccccccccccccccc" />
  <path
     d="M 7,1 V 7 H 1 v 1 h 6 v 7 H 8 V 8 h 7 V 7 H 8 V 1 Z"
     style="opacity:0.2;fill:#000000;fill-opacity:1;stroke:none"
     id="path9077"
     sodipodi:nodetypes="ccccccccccccc" />
  <path
     id="rect2630"
     style="opacity:0.3;fill:#ffffff;fill-opacity:1"
     d="M 3,1 C 1.8920011,1 1,1.8920011 1,3 V 4 C 1,2.8920011 1.8920011,2 3,2 h 10 c 1.107999,0 2,0.8920011 2,2 V 3 C 15,1.8920011 14.107999,1 13,1 Z"
     sodipodi:nodetypes="sscsscsss" />
  <path
     d="M 3,15 C 1.8920011,15 1,14.107999 1,13 v -1 c 0,1.107999 0.8920011,2 2,2 h 10 c 1.107999,0 2,-0.892001 2,-2 v 1 c 0,1.107999 -0.892001,2 -2,2 z"
     style="opacity:0.3;fill:#ffffff;fill-opacity:1"
     id="path19648" />
  <path
     id="rect899"
     style="opacity:0.5;fill:#000000;stroke:none"
     d="M 3,0 C 1.3380017,0 0,1.3380017 0,3 v 10 c 0,1.661998 1.3380017,3 3,3 h 10 c 1.661998,0 3,-1.338002 3,-3 V 3 C 16,1.3380017 14.661998,0 13,0 Z m 0,1 h 10 c 1.107999,0 2,0.8920011 2,2 v 10 c 0,1.107999 -0.892001,2 -2,2 H 3 C 1.8920011,15 1,14.107999 1,13 V 3 C 1,1.8920011 1.8920011,1 3,1 Z" />
</svg>
