<?xml version="1.0" encoding="UTF-8" standalone="no"?>
<!-- Created with Inkscape (http://www.inkscape.org/) -->

<svg
   width="16"
   height="16"
   viewBox="0 0 16 16"
   version="1.1"
   id="svg5"
   sodipodi:docname="akonadi.svg"
   inkscape:version="1.2.1 (9c6d41e410, 2022-07-14)"
   xmlns:inkscape="http://www.inkscape.org/namespaces/inkscape"
   xmlns:sodipodi="http://sodipodi.sourceforge.net/DTD/sodipodi-0.dtd"
   xmlns:xlink="http://www.w3.org/1999/xlink"
   xmlns="http://www.w3.org/2000/svg"
   xmlns:svg="http://www.w3.org/2000/svg">
  <sodipodi:namedview
     id="namedview7"
     pagecolor="#ffffff"
     bordercolor="#666666"
     borderopacity="1.0"
     inkscape:showpageshadow="2"
     inkscape:pageopacity="0.0"
     inkscape:pagecheckerboard="0"
     inkscape:deskcolor="#d1d1d1"
     inkscape:document-units="px"
     showgrid="false"
     inkscape:zoom="25.8125"
     inkscape:cx="15.961259"
     inkscape:cy="9.220339"
     inkscape:window-width="1920"
     inkscape:window-height="1012"
     inkscape:window-x="0"
     inkscape:window-y="0"
     inkscape:window-maximized="1"
     inkscape:current-layer="svg5" />
  <defs
     id="defs2">
    <linearGradient
       inkscape:collect="always"
       xlink:href="#linearGradient2466"
       id="linearGradient19638"
       x1="13"
       y1="16"
       x2="3"
       y2="0"
       gradientUnits="userSpaceOnUse" />
    <linearGradient
       inkscape:collect="always"
       id="linearGradient2466">
      <stop
         style="stop-color:#366ecb;stop-opacity:1;"
         offset="0"
         id="stop2462" />
      <stop
         style="stop-color:#3694cb;stop-opacity:1;"
         offset="1"
         id="stop2464" />
    </linearGradient>
  </defs>
  <rect
     style="fill:url(#linearGradient19638);fill-opacity:1;stroke:none"
     id="rect184"
     width="15"
     height="15"
     x="0.5"
     y="0.5"
     ry="2.5" />
  <path
     d="m 13.000001,8.3750492 c 0,2.7612498 -2.23875,4.9999998 -5.000001,4.9999998 -2.7614375,0 -5,-2.23875 -5,-4.9999998 C 3.5576954,7.3987831 4.8747807,7.0061782 6.4111156,7.000064 8.7252914,6.990854 11.536929,7.8029301 13.000001,8.3750492 Z M 9.4199219,4.8613527 c 0.3790803,0.4771992 0.7072891,1.0086955 1.0000001,1.5644531 0.02049,0.038906 0.04042,0.078054 0.06055,0.1171876 0.48196,0.1175424 0.940509,0.2458206 1.367187,0.3769531 C 11.328643,5.9625495 10.464032,5.2195758 9.4199219,4.8613527 Z M 6.125,4.0000246 C 5.1488456,4.5634986 4.4349782,5.4038285 4.0253906,6.3633058 4.7570239,6.1002573 5.5845735,6.0032946 6.40625,6.0000246 7.3182798,5.9963946 8.265653,6.103134 9.1796875,6.2676027 8.3748265,4.9609793 7.3460902,3.9943832 6.125,4.0000246 Z"
     style="opacity:0.2;fill:#000000;stroke-width:0.625"
     id="path1722" />
  <path
     id="path1007"
     style="opacity:1;fill:#d0e6ff;stroke-width:0.625;fill-opacity:1"
     d="m 9.4199219,3.8613281 c 0.3790803,0.4771992 0.7072891,1.0086955 1.0000001,1.5644531 0.02049,0.038906 0.04042,0.078054 0.06055,0.1171876 0.48196,0.1175424 0.940509,0.2458206 1.367187,0.3769531 C 11.328643,4.9625249 10.464032,4.2195512 9.4199219,3.8613281 Z"
     sodipodi:nodetypes="csccc" />
  <path
     id="path1662"
     style="color:#000000;opacity:1;fill:#caedfc;stroke-width:2;fill-opacity:1"
     d="M 6.125,3 C 5.1488456,3.563474 4.4349782,4.4038039 4.0253906,5.3632812 4.7570239,5.1002327 5.5845735,5.00327 6.40625,5 7.3182798,4.9963703 8.265653,5.1031094 9.1796875,5.2675781 8.3748265,3.9609547 7.3460902,2.9943586 6.125,3 Z"
     sodipodi:nodetypes="ccscc" />
  <path
     style="color:#000000;fill:#ffffff;stroke-width:2;-inkscape-stroke:none"
     d="m 13.000001,7.3750246 c 0,2.7612494 -2.23875,4.9999994 -5.000001,4.9999994 -2.7614375,0 -5,-2.23875 -5,-4.9999994 0.5576954,-0.9762661 1.8747807,-1.368871 3.4111156,-1.3749852 2.3141758,-0.00921 5.1258134,0.8028661 6.5888854,1.3749852 z"
     id="path1671"
     sodipodi:nodetypes="cscsc" />
  <path
     id="rect2630"
     style="opacity:0.3;fill:#ffffff;fill-opacity:1"
     d="M 3,1 C 1.8920011,1 1,1.8920011 1,3 V 4 C 1,2.8920011 1.8920011,2 3,2 h 10 c 1.107999,0 2,0.8920011 2,2 V 3 C 15,1.8920011 14.107999,1 13,1 Z"
     sodipodi:nodetypes="sscsscsss" />
  <path
     d="M 3,15 C 1.8920011,15 1,14.107999 1,13 v -1 c 0,1.107999 0.8920011,2 2,2 h 10 c 1.107999,0 2,-0.892001 2,-2 v 1 c 0,1.107999 -0.892001,2 -2,2 z"
     style="opacity:0.3;fill:#ffffff;fill-opacity:1"
     id="path19648" />
  <path
     id="rect899"
     style="opacity:0.5;fill:#000000;stroke:none"
     d="M 3,0 C 1.3380017,0 0,1.3380017 0,3 v 10 c 0,1.661998 1.3380017,3 3,3 h 10 c 1.661998,0 3,-1.338002 3,-3 V 3 C 16,1.3380017 14.661998,0 13,0 Z m 0,1 h 10 c 1.107999,0 2,0.8920011 2,2 v 10 c 0,1.107999 -0.892001,2 -2,2 H 3 C 1.8920011,15 1,14.107999 1,13 V 3 C 1,1.8920011 1.8920011,1 3,1 Z" />
</svg>
