<?xml version="1.0" encoding="UTF-8" standalone="no"?>
<!-- Created with Inkscape (http://www.inkscape.org/) -->

<svg
   width="16"
   height="16"
   viewBox="0 0 16 16"
   version="1.1"
   id="svg5"
   sodipodi:docname="applications-utilities.svg"
   inkscape:version="1.2.1 (9c6d41e410, 2022-07-14)"
   xmlns:inkscape="http://www.inkscape.org/namespaces/inkscape"
   xmlns:sodipodi="http://sodipodi.sourceforge.net/DTD/sodipodi-0.dtd"
   xmlns:xlink="http://www.w3.org/1999/xlink"
   xmlns="http://www.w3.org/2000/svg"
   xmlns:svg="http://www.w3.org/2000/svg">
  <sodipodi:namedview
     id="namedview7"
     pagecolor="#ffffff"
     bordercolor="#666666"
     borderopacity="1.0"
     inkscape:showpageshadow="2"
     inkscape:pageopacity="0.0"
     inkscape:pagecheckerboard="0"
     inkscape:deskcolor="#d1d1d1"
     inkscape:document-units="px"
     showgrid="false"
     inkscape:zoom="35.134368"
     inkscape:cx="6.1620576"
     inkscape:cy="8.9228871"
     inkscape:window-width="1920"
     inkscape:window-height="1007"
     inkscape:window-x="0"
     inkscape:window-y="0"
     inkscape:window-maximized="1"
     inkscape:current-layer="svg5" />
  <defs
     id="defs2">
    <linearGradient
       inkscape:collect="always"
       xlink:href="#linearGradient22024"
       id="linearGradient19638"
       x1="8"
       y1="16"
       x2="8"
       y2="0"
       gradientUnits="userSpaceOnUse" />
    <linearGradient
       inkscape:collect="always"
       id="linearGradient22024">
      <stop
         style="stop-color:#cdcdcd;stop-opacity:1;"
         offset="0"
         id="stop22020" />
      <stop
         style="stop-color:#eff0f1;stop-opacity:1;"
         offset="1"
         id="stop22022" />
    </linearGradient>
  </defs>
  <rect
     style="fill:url(#linearGradient19638);fill-opacity:1;stroke:none"
     id="rect184"
     width="15"
     height="15"
     x="0.5"
     y="0.5"
     ry="2.5" />
  <path
     d="m 7.9274405,4.107793 c 0,0 -0.11044,0.0367 -0.37367,0.21246 -0.32191,0.21485 -0.50316,0.17576 -0.71594,0.11668 l -0.002,0.001 c -0.0392,-0.0232 -0.0791,-0.0452 -0.11979,-0.0655 l 1.8e-4,-0.001 c -0.16546,-0.14619 -0.2969,-0.27705 -0.29205,-0.66405 0.004,-0.31634 -0.0253,-0.42914 -0.0253,-0.42914 -0.11264,-0.0637 -0.27304,-0.0806 -0.27304,-0.0806 0,0 -0.16045,-0.0169 -0.28378,0.0221 0,0 -0.0521,0.10413 -0.11401,0.41445 -0.0757,0.37954 -0.23155,0.48016 -0.42372,0.58882 l -5.4e-4,0.002 c -0.0439,0.0114 -0.0874,0.0247 -0.13078,0.0392 l -10e-4,-10e-4 c -0.2204,0.0136 -0.40588,0.014 -0.6761,-0.26303 -0.22086,-0.22651 -0.32133,-0.28552 -0.32133,-0.28552 -0.12438,0.0344 -0.2497,0.13584 -0.2497,0.13584 0,0 -0.12537,0.10154 -0.18506,0.21629 0,0 0.0367,0.11057 0.21244,0.37369 0.21483,0.3219 0.17577,0.5033 0.11672,0.716 l 0.002,0.001 c -0.0231,0.0393 -0.0451,0.0791 -0.0655,0.11973 l -0.002,-1.5e-4 c -0.14616,0.1655 -0.27702,0.29693 -0.664,0.29212 -0.31633,-0.004 -0.429209,0.0254 -0.429209,0.0254 -0.0637,0.11268 -0.0805,0.27285 -0.0805,0.27285 0,0 -0.0172,0.1605 0.0221,0.28384 0,0 0.104109,0.0522 0.414429,0.11397 0.37951,0.0757 0.47999,0.23168 0.58874,0.4238 l 0.002,1.5e-4 c 0.0115,0.044 0.0247,0.0875 0.0392,0.1308 l -0.002,10e-4 c 0.0137,0.2204 0.0141,0.40584 -0.26296,0.67603 -0.2265,0.22091 -0.28554,0.32154 -0.28554,0.32154 0.0347,0.12467 0.13607,0.24987 0.13607,0.24987 0,0 0.10157,0.12542 0.2163,0.18507 0,0 0.1105,-0.0367 0.37363,-0.21244 0.32193,-0.2148 0.50326,-0.1756 0.71599,-0.11669 l 0.001,-0.002 c 0.0395,0.0232 0.0792,0.0452 0.11981,0.0655 l -5.3e-4,0.002 c 0.16552,0.14617 0.29694,0.27702 0.29213,0.66398 -0.004,0.31635 0.0254,0.42925 0.0254,0.42925 0.112689,0.0636 0.2729,0.0805 0.2729,0.0805 0,0 0.160529,0.0169 0.283799,-0.0221 0,0 0.0521,-0.10401 0.113991,-0.41439 0.0759,-0.37949 0.231739,-0.48003 0.423749,-0.58877 l -7e-5,-0.002 c 0.0439,-0.0114 0.0874,-0.0247 0.1308,-0.0392 l 0.002,0.002 c 0.22039,-0.0137 0.40583,-0.0141 0.67605,0.26299 0.22086,0.2265 0.32147,0.28557 0.32147,0.28557 0.1247,-0.0347 0.2499,-0.13613 0.2499,-0.13613 0,0 0.12543,-0.10156 0.18508,-0.2163 0,0 -0.0367,-0.11052 -0.21247,-0.37367 -0.214839,-0.3219 -0.17561,-0.50326 -0.11667,-0.71595 l -0.002,-10e-4 c 0.0231,-0.0394 0.0452,-0.0792 0.0655,-0.11979 l 0.002,2.4e-4 c 0.146181,-0.16547 0.27704,-0.2969 0.664021,-0.29209 0.31638,0.004 0.42929,-0.0254 0.42929,-0.0254 0.0636,-0.11269 0.0804,-0.27295 0.0804,-0.27295 0,0 0.0172,-0.16042 -0.022,-0.28383 0,0 -0.10416,-0.0522 -0.414479,-0.114 -0.37956,-0.0757 -0.48011,-0.23155 -0.58883,-0.42372 l -0.001,-1.6e-4 c -0.0114,-0.0439 -0.0246,-0.0875 -0.0392,-0.13079 l 0.002,-0.001 c -0.0136,-0.22032 -0.0142,-0.40583 0.26297,-0.67605 0.22651,-0.22086 0.285601,-0.32142 0.285601,-0.32142 -0.0346,-0.12465 -0.136151,-0.24997 -0.136151,-0.24997 0,0 -0.101549,-0.12542 -0.2163,-0.18507 z m -1.23221,3.16351 c -0.60223,0.48768 -1.48573,0.39483 -1.97342,-0.2074 -0.48768,-0.60223 -0.39481,-1.48574 0.20739,-1.97342 0.60222,-0.48767 1.48574,-0.39482 1.97342,0.20741 0.48768,0.60224 0.3948,1.48575 -0.2074,1.97342 z m 4.5495505,0.58229 c 0,0 -0.118599,0.0842 -0.369029,0.39054 -0.30628,0.37446 -0.53723,0.39396 -0.81316,0.40111 l -0.002,0.002 c -0.0553,-0.0134 -0.1110995,-0.0251 -0.1671195,-0.0345 l -4.11e-4,-0.002 c -0.25122,-0.11427 -0.45616,-0.22266 -0.59179,-0.68704 C 9.190352,7.544113 9.114162,7.419983 9.114162,7.419983 c -0.15792,-0.035 -0.3558305,0.004 -0.3558305,0.004 0,0 -0.19795,0.0385 -0.33115,0.13009 0,0 -0.0243,0.14354 0.0154,0.53709 0.0482,0.48134 -0.10131,0.65859 -0.29133,0.8587 l 1.5e-4,0.003 c -0.0483,0.0296 -0.0955,0.0614 -0.14203,0.0946 l -10e-4,-0.001 c -0.25848,0.0968 -0.48005,0.1651 -0.90431,-0.0674 -0.34678,-0.19004 -0.48843,-0.22386 -0.48843,-0.22386 -0.13614,0.0865 -0.24885,0.25364 -0.24885,0.25364 0,0 -0.11277,0.16718 -0.14217,0.32618 0,0 0.0844,0.11872 0.3905,0.36905 0.37445,0.30627 0.39405,0.53739 0.4012,0.81321 l 0.002,0.002 c -0.0133,0.0554 -0.025,0.11113 -0.0345,0.16707 l -0.002,2.9e-4 c -0.11422,0.25125 -0.22264,0.45619 -0.68697,0.59186 -0.37959,0.11084 -0.50377,0.18724 -0.50377,0.18724 -0.0349,0.15796 0.003,0.35559 0.003,0.35559 0,0 0.0385,0.19804 0.13009,0.33123 0,0 0.14353,0.0244 0.53705,-0.0152 0.48133,-0.0481 0.65842,0.10152 0.85864,0.29142 l 0.002,-4.2e-4 c 0.0297,0.0484 0.0615,0.0955 0.0945,0.14206 l -0.001,0.002 c 0.097,0.25844 0.1651,0.47999 -0.0673,0.9042 -0.19002,0.34686 -0.2238,0.48871 -0.2238,0.48871 0.087,0.13636 0.25396,0.24895 0.25396,0.24895 0,0 0.16725,0.11281 0.32618,0.14218 0,0 0.11871,-0.0842 0.369,-0.39048 0.30631,-0.37442 0.53741,-0.39383 0.81321,-0.40116 l 0.001,-0.002 c 0.055701,0.0133 0.1111705,0.0251 0.1671505,0.0345 l 1.6e-4,0.003 c 0.2512795,0.11424 0.4561905,0.22263 0.5918505,0.68694 0.11085,0.37962 0.18724,0.50384 0.18724,0.50384 0.15795,0.0348 0.3556395,-0.004 0.3556395,-0.004 0,0 0.19804,-0.0385 0.33115,-0.13021 0,0 0.0243,-0.14338 -0.0146,-0.53701 -0.0481,-0.48133 0.10157,-0.65849 0.29137,-0.85866 l -7.5e-4,-0.002 c 0.0484,-0.0296 0.0955,-0.0616 0.14204,-0.0946 l 0.002,10e-4 c 0.25842,-0.0969 0.47995,-0.16514 0.90423,0.0673 0.34679,0.19003 0.48861,0.22387 0.48861,0.22387 0.13638,-0.0871 0.24899,-0.25405 0.24899,-0.25405 0,0 0.11281,-0.16724 0.14219,-0.3262 0,0 -0.0842,-0.11871 -0.39054,-0.36902 -0.37446,-0.30627 -0.39386,-0.53739 -0.40111,-0.81318 l -0.001,-0.002 c 0.0133,-0.0556 0.0251,-0.11115 0.0344,-0.1671 l 0.002,-4.3e-4 c 0.11426,-0.25122 0.22265,-0.45615 0.68699,-0.59183 0.37964,-0.11084 0.50388,-0.18724 0.50388,-0.18724 0.0348,-0.15795 -0.004,-0.35565 -0.004,-0.35565 0,0 -0.0385,-0.19796 -0.13009,-0.33122 0,0 -0.14357,-0.0243 -0.53711,0.0152 -0.48136,0.0482 -0.65853,-0.10133 -0.85871,-0.29132 l -0.002,4.3e-4 c -0.0297,-0.0484 -0.0614,-0.0956 -0.0947,-0.14202 l 0.002,-0.002 c -0.0968,-0.25838 -0.16519,-0.47995 0.0673,-0.90423 0.19004,-0.34678 0.22394,-0.48859 0.22394,-0.48859 -0.087,-0.13632 -0.2541,-0.24905 -0.2541,-0.24905 0,0 -0.16724,-0.11279 -0.3262,-0.14218 z m -0.316809,4.23187 c -0.54166,0.80303 -1.6317105,1.01493 -2.4347515,0.47327 -0.80303,-0.54166 -1.01491,-1.6317 -0.47326,-2.43475 0.54165,-0.80303 1.631701,-1.01492 2.4347515,-0.47326 0.80304,0.54166 1.01492,1.63171 0.47326,2.43473 z"
     style="display:inline;fill:#ffffff;fill-opacity:1;stroke:none;enable-background:new;opacity:0.5"
     id="path1137" />
  <path
     d="m 7.9274415,3.1079945 c 0,0 -0.11044,0.0367 -0.37367,0.21246 -0.32191,0.21485 -0.50316,0.17576 -0.71594,0.11668 l -0.002,10e-4 c -0.0392,-0.0232 -0.0791,-0.0452 -0.11979,-0.0655 l 1.8e-4,-0.001 c -0.16546,-0.14619 -0.2969,-0.27705 -0.29205,-0.66405 0.004,-0.31634 -0.0253,-0.42914 -0.0253,-0.42914 -0.11264,-0.0637 -0.27304,-0.0806 -0.27304,-0.0806 0,0 -0.16045,-0.0169 -0.28378,0.0221 0,0 -0.0521,0.10413 -0.11401,0.41445 -0.0757,0.37954 -0.23155,0.48016 -0.42372,0.58882 l -5.4e-4,0.002 c -0.0439,0.0114 -0.0874,0.0247 -0.13078,0.0392 l -10e-4,-10e-4 c -0.2204,0.0136 -0.40588,0.014 -0.6761,-0.26303 -0.22086,-0.22651 -0.32133,-0.28552 -0.32133,-0.28552 -0.12438,0.0344 -0.2497,0.13584 -0.2497,0.13584 0,0 -0.12537,0.10154 -0.18506,0.21629 0,0 0.0367,0.11057 0.21244,0.37369 0.21483,0.3219 0.17577,0.5033 0.11672,0.716 l 0.002,0.001 c -0.0231,0.0393 -0.0451,0.0791 -0.0655,0.11973 l -0.002,-1.5e-4 c -0.14616,0.1655 -0.27702,0.29693 -0.664,0.29212 -0.31633,-0.004 -0.42921,0.0254 -0.42921,0.0254 -0.0637,0.11268 -0.0805,0.27285 -0.0805,0.27285 0,0 -0.0172,0.1605 0.0221,0.28384 0,0 0.10411,0.0522 0.41443,0.11397 0.37951,0.0757 0.47999,0.23168 0.58874,0.4238 l 0.002,1.5e-4 c 0.0115,0.044 0.0247,0.0875 0.0392,0.1308 l -0.002,10e-4 c 0.0137,0.2204 0.0141,0.40584 -0.26296,0.67603 -0.2265,0.22091 -0.28554,0.32154 -0.28554,0.32154 0.0347,0.12467 0.13607,0.24987 0.13607,0.24987 0,0 0.10157,0.12542 0.2163,0.18507 0,0 0.1105,-0.0367 0.37363,-0.21244 0.32193,-0.2148 0.50326,-0.1756 0.71599,-0.11669 l 0.001,-0.002 c 0.0395,0.0232 0.0792,0.0452 0.11981,0.0655 l -5.3e-4,0.002 c 0.16552,0.14617 0.29694,0.27702 0.29213,0.66398 -0.004,0.31635 0.0254,0.42925 0.0254,0.42925 0.11269,0.0636 0.2729,0.0805 0.2729,0.0805 0,0 0.16053,0.0169 0.2838,-0.0221 0,0 0.0521,-0.10401 0.11399,-0.41439 0.0759,-0.37949 0.23174,-0.48003 0.42375,-0.58877 l -7e-5,-0.002 c 0.0439,-0.0114 0.0874,-0.0247 0.1308,-0.0392 l 0.002,0.002 c 0.22039,-0.0137 0.40583,-0.0141 0.67605,0.26299 0.22086,0.2265 0.32147,0.28557 0.32147,0.28557 0.1247,-0.0347 0.2499,-0.13613 0.2499,-0.13613 0,0 0.12543,-0.10156 0.18508,-0.2163 0,0 -0.0367,-0.11052 -0.21247,-0.37367 -0.21484,-0.3219 -0.17561,-0.50326 -0.11667,-0.71595 l -0.002,-0.001 c 0.0231,-0.0394 0.0452,-0.0792 0.0655,-0.11979 l 0.002,2.4e-4 c 0.14618,-0.16547 0.27704,-0.2969 0.66402,-0.29209 0.31638,0.004 0.42929,-0.0254 0.42929,-0.0254 0.0636,-0.11269 0.0804,-0.27295 0.0804,-0.27295 0,0 0.0172,-0.16042 -0.022,-0.28383 0,0 -0.10416,-0.0522 -0.41448,-0.114 -0.37956,-0.0757 -0.48011,-0.23155 -0.58883,-0.42372 l -0.001,-1.6e-4 c -0.0114,-0.0439 -0.0246,-0.0875 -0.0392,-0.13079 l 0.002,-10e-4 c -0.0136,-0.22032 -0.0142,-0.40583 0.26297,-0.67605 0.22651,-0.22086 0.2856,-0.32142 0.2856,-0.32142 -0.0346,-0.12465 -0.13615,-0.24997 -0.13615,-0.24997 0,0 -0.10155,-0.12542 -0.2163,-0.18507 z m -1.23221,3.16351 c -0.60223,0.48768 -1.48573,0.39483 -1.97342,-0.2074 -0.48768,-0.60223 -0.39481,-1.48574 0.20739,-1.97342 0.60222,-0.48767 1.48574,-0.39482 1.97342,0.20741 0.48768,0.60224 0.3948,1.48575 -0.2074,1.97342 z m 4.5495505,0.58229 c 0,0 -0.1186,0.0842 -0.36903,0.39054 -0.30628,0.37446 -0.53723,0.39396 -0.81316,0.40111 l -0.002,0.002 c -0.0553,-0.0134 -0.1111,-0.0251 -0.16712,-0.0345 l -4.11e-4,-0.002 c -0.25122,-0.11427 -0.45616,-0.22266 -0.59179,-0.68704 -0.1109195,-0.37959 -0.1871095,-0.50372 -0.1871095,-0.50372 -0.15792,-0.035 -0.35583,0.004 -0.35583,0.004 0,0 -0.19795,0.0385 -0.33115,0.13009 0,0 -0.0243,0.14354 0.0154,0.53709 0.0482,0.48134 -0.10131,0.65859 -0.29133,0.8587 l 1.5e-4,0.003 c -0.0483,0.0296 -0.0955,0.0614 -0.14203,0.0946 l -10e-4,-10e-4 c -0.25848,0.0968 -0.48005,0.1651 -0.90431,-0.0674 -0.34678,-0.19004 -0.48843,-0.22386 -0.48843,-0.22386 -0.13614,0.0865 -0.24885,0.25364 -0.24885,0.25364 0,0 -0.11277,0.16718 -0.14217,0.32618 0,0 0.0844,0.11872 0.3905,0.36905 0.37445,0.30627 0.39405,0.53739 0.4012,0.81321 l 0.002,0.002 c -0.0133,0.0554 -0.025,0.11113 -0.0345,0.16707 l -0.002,2.9e-4 c -0.11422,0.25125 -0.22264,0.4561905 -0.68697,0.5918605 -0.37959,0.11084 -0.50377,0.18724 -0.50377,0.18724 -0.0349,0.15796 0.003,0.35559 0.003,0.35559 0,0 0.0385,0.19804 0.13009,0.33123 0,0 0.14353,0.0244 0.53705,-0.0152 0.48133,-0.0481 0.65842,0.10152 0.85864,0.29142 l 0.002,-4.2e-4 c 0.0297,0.0484 0.0615,0.0955 0.0945,0.14206 l -0.001,0.002 c 0.097,0.25844 0.1651,0.47999 -0.0673,0.9042 -0.19002,0.34686 -0.2238,0.48871 -0.2238,0.48871 0.087,0.13636 0.25396,0.24895 0.25396,0.24895 0,0 0.16725,0.11281 0.32618,0.14218 0,0 0.11871,-0.0842 0.369,-0.39048 0.30631,-0.37442 0.53741,-0.39383 0.81321,-0.40116 l 0.001,-0.002 c 0.0557,0.0133 0.11117,0.0251 0.16715,0.0345 l 1.6e-4,0.003 c 0.2512795,0.11424 0.4561905,0.22263 0.5918505,0.68694 0.11085,0.37962 0.18724,0.50384 0.18724,0.50384 0.15795,0.0348 0.35564,-0.004 0.35564,-0.004 0,0 0.19804,-0.0385 0.33115,-0.13021 0,0 0.0243,-0.14338 -0.0146,-0.53701 -0.0481,-0.48133 0.10157,-0.65849 0.29137,-0.85866 l -7.5e-4,-0.002 c 0.0484,-0.0296 0.0955,-0.0616 0.14204,-0.0946 l 0.002,10e-4 c 0.25842,-0.0969 0.47995,-0.16514 0.90423,0.0673 0.34679,0.19003 0.48861,0.22387 0.48861,0.22387 0.13638,-0.0871 0.24899,-0.25405 0.24899,-0.25405 0,0 0.11281,-0.16724 0.14219,-0.3262 0,0 -0.0842,-0.11871 -0.39054,-0.36902 -0.37446,-0.30627 -0.39386,-0.53739 -0.40111,-0.81318 l -0.001,-0.002 c 0.0133,-0.0556 0.0251,-0.11115 0.0344,-0.1671 l 0.002,-4.3e-4 c 0.11426,-0.25122 0.22265,-0.45615 0.68699,-0.5918305 0.37964,-0.11084 0.50388,-0.18724 0.50388,-0.18724 0.0348,-0.15795 -0.004,-0.35565 -0.004,-0.35565 0,0 -0.0385,-0.19796 -0.13009,-0.33122 0,0 -0.14357,-0.0243 -0.53711,0.0152 -0.48136,0.0482 -0.65853,-0.10133 -0.85871,-0.29132 l -0.002,4.3e-4 c -0.0297,-0.0484 -0.0614,-0.0956 -0.0947,-0.14202 l 0.002,-0.002 c -0.0968,-0.25838 -0.16519,-0.47995 0.0673,-0.90423 0.19004,-0.34678 0.22394,-0.48859 0.22394,-0.48859 -0.087,-0.13632 -0.2541,-0.24905 -0.2541,-0.24905 0,0 -0.16724,-0.11279 -0.3262,-0.14218 z m -0.31681,4.2318705 c -0.54166,0.80303 -1.63171,1.01493 -2.4347505,0.47327 -0.80303,-0.54166 -1.01491,-1.6317005 -0.47326,-2.4347505 0.54165,-0.80303 1.6317005,-1.01492 2.4347505,-0.47326 0.80304,0.54166 1.01492,1.6317105 0.47326,2.4347305 z"
     style="display:inline;fill:#7d7d7d;fill-opacity:1;stroke:none;enable-background:new"
     id="path443"
     sodipodi:nodetypes="cccccccccccccccccccccccccccccccccccccccccccccccccccccccccccccccccccccccccccccccccccccccccccccccscccccccccccccccccccccccccccccccccccccccccccccccccccccccccccccccc" />
  <path
     id="rect2630"
     style="opacity:0.3;fill:#ffffff;fill-opacity:1"
     d="M 3,1 C 1.8920011,1 1,1.8920011 1,3 V 4 C 1,2.8920011 1.8920011,2 3,2 h 10 c 1.107999,0 2,0.8920011 2,2 V 3 C 15,1.8920011 14.107999,1 13,1 Z"
     sodipodi:nodetypes="sscsscsss" />
  <path
     d="M 3,15 C 1.8920011,15 1,14.107999 1,13 v -1 c 0,1.107999 0.8920011,2 2,2 h 10 c 1.107999,0 2,-0.892001 2,-2 v 1 c 0,1.107999 -0.892001,2 -2,2 z"
     style="opacity:0.3;fill:#ffffff;fill-opacity:1"
     id="path19648" />
  <path
     id="rect899"
     style="opacity:0.5;fill:#000000;stroke:none"
     d="M 3,0 C 1.3380017,0 0,1.3380017 0,3 v 10 c 0,1.661998 1.3380017,3 3,3 h 10 c 1.661998,0 3,-1.338002 3,-3 V 3 C 16,1.3380017 14.661998,0 13,0 Z m 0,1 h 10 c 1.107999,0 2,0.8920011 2,2 v 10 c 0,1.107999 -0.892001,2 -2,2 H 3 C 1.8920011,15 1,14.107999 1,13 V 3 C 1,1.8920011 1.8920011,1 3,1 Z" />
</svg>
