<?xml version="1.0" encoding="UTF-8" standalone="no"?>
<!-- Created with Inkscape (http://www.inkscape.org/) -->

<svg
   width="16"
   height="16"
   viewBox="0 0 16 16"
   version="1.1"
   id="svg5"
   sodipodi:docname="applications-accessories.svg"
   inkscape:version="1.3.2 (091e20ef0f, 2023-11-25, custom)"
   xmlns:inkscape="http://www.inkscape.org/namespaces/inkscape"
   xmlns:sodipodi="http://sodipodi.sourceforge.net/DTD/sodipodi-0.dtd"
   xmlns:xlink="http://www.w3.org/1999/xlink"
   xmlns="http://www.w3.org/2000/svg"
   xmlns:svg="http://www.w3.org/2000/svg">
  <sodipodi:namedview
     id="namedview7"
     pagecolor="#ffffff"
     bordercolor="#666666"
     borderopacity="1.0"
     inkscape:showpageshadow="2"
     inkscape:pageopacity="0.0"
     inkscape:pagecheckerboard="0"
     inkscape:deskcolor="#d1d1d1"
     inkscape:document-units="px"
     showgrid="false"
     inkscape:zoom="52.8125"
     inkscape:cx="8"
     inkscape:cy="8"
     inkscape:window-width="1920"
     inkscape:window-height="1019"
     inkscape:window-x="0"
     inkscape:window-y="0"
     inkscape:window-maximized="1"
     inkscape:current-layer="svg5" />
  <defs
     id="defs2">
    <linearGradient
       inkscape:collect="always"
       id="linearGradient2">
      <stop
         style="stop-color:#2588d5;stop-opacity:1;"
         offset="0"
         id="stop1" />
      <stop
         style="stop-color:#95cbf5;stop-opacity:1;"
         offset="1"
         id="stop2" />
    </linearGradient>
    <linearGradient
       inkscape:collect="always"
       xlink:href="#linearGradient2"
       id="linearGradient30973"
       x1="8"
       y1="16"
       x2="8"
       y2="0"
       gradientUnits="userSpaceOnUse" />
  </defs>
  <rect
     style="fill:url(#linearGradient30973);fill-opacity:1;stroke:none"
     id="rect184"
     width="15"
     height="15"
     x="0.5"
     y="0.5"
     ry="2.5" />
  <path
     d="M 7.98633,3 C 7.94113,3.005 7.88833,3.0184 7.84375,3.0254 7.57862,3.51492 6.86652,3.88977 6.94922,4.47071 7.24852,6.01499 7.53103,7.57201 7.82227,9.12696 7.48871,9.40896 7.14245,9.8177 6.81055,10.21681 6.78265,10.16861 6.75785,10.11673 6.72265,10.07423 6.22436,9.47577 5.18144,9.7056 4.39843,10.58985 3.61514,11.47405 3.38134,12.68362 3.8789,13.28517 4.37689,13.88484 5.42165,13.65628 6.20507,12.77149 6.6201,12.303 6.86846,11.7395 6.94726,11.22853 l 0.8125,-0.61524 0.58984,-0.68945 0.12305,0.57422 0.3125,0.70898 c -0.39227,0.48477 -0.54633,1.29752 -0.33789,2.12109 0.28917,1.14395 1.15755,1.86981 1.93945,1.62305 0.78246,-0.24855 1.18389,-1.37808 0.89453,-2.52148 -0.26846,-1.06184 -1.03531,-1.76615 -1.76953,-1.66407 L 9.23827,9.44337 C 10.23748,8.25682 11.23954,7.06391 12.24022,5.89063 12.59661,5.42807 12.16762,4.75194 12.18362,4.19532 12.14902,4.16742 12.11012,4.13652 12.07425,4.10942 11.01373,5.34262 9.96432,6.59104 8.91214,7.83793 8.60843,6.22538 8.30415,4.60488 7.98636,3.00004 Z m -2.03711,7.51367 c 0.11428,0.0107 0.2054,0.0559 0.26758,0.13086 0.22099,0.26632 0.076,1.00294 -0.45118,1.59766 C 5.23945,12.83718 4.5955,12.98416 4.375,12.7168 4.15413,12.45112 4.309,11.71389 4.83594,11.11914 5.1648,10.74726 5.54037,10.54562 5.82812,10.51562 c 0.0432,-0.004 0.083,-0.006 0.1211,-0.002 z m 3.71094,1.00781 c 0.33722,0.0229 0.76789,0.45022 0.9375,1.12305 0.19466,0.76914 -0.0459,1.46697 -0.39258,1.57617 -0.34715,0.11082 -0.88035,-0.33848 -1.07422,-1.10742 -0.19494,-0.76919 0.0455,-1.46649 0.39258,-1.57617 0.0434,-0.0137 0.0885,-0.0189 0.13672,-0.0156 z"
     style="display:inline;fill:#000000;fill-opacity:1;stroke:none;enable-background:new;opacity:0.2"
     id="path1" />
  <path
     d="m 7.9859608,2 c -0.0452,0.005 -0.098,0.0184 -0.14258,0.0254 -0.26513,0.48952 -0.97723,0.86437 -0.89453,1.44531 0.2993,1.54428 0.58181,3.1013 0.87305,4.65625 -0.33356,0.282 -0.67982,0.69074 -1.01172,1.08985 -0.0279,-0.0482 -0.0527,-0.10008 -0.0879,-0.14258 -0.49829,-0.59846 -1.54121,-0.36863 -2.32422,0.51562 -0.78329,0.8842 -1.01709,2.09377 -0.51953,2.69532 0.49799,0.59967 1.54275,0.37111 2.32617,-0.51368 0.41503,-0.46849 0.66339,-1.03199 0.74219,-1.54296 l 0.8125,-0.61524 0.58984,-0.68945 0.12305,0.57422 0.3125,0.70898 c -0.39227,0.48477 -0.54633,1.29752 -0.33789,2.12109 0.28917,1.14395 1.15755,1.86981 1.9394502,1.62305 0.78246,-0.24855 1.18389,-1.37808 0.89453,-2.52148 -0.26846,-1.06184 -1.03531,-1.76615 -1.7695302,-1.66407 L 9.2379008,8.44337 C 10.237111,7.25682 11.239171,6.06391 12.239851,4.89063 c 0.35639,-0.46256 -0.0726,-1.13869 -0.0566,-1.69531 -0.0346,-0.0279 -0.0735,-0.0588 -0.10937,-0.0859 -1.06052,1.2332 -2.1099302,2.48162 -3.1621102,3.72851 -0.30371,-1.61255 -0.60799,-3.23305 -0.92578,-4.83789 z m -2.03711,7.51367 c 0.11428,0.0107 0.2054,0.0559 0.26758,0.13086 0.22099,0.26632 0.076,1.00294 -0.45118,1.59766 -0.52617,0.59499 -1.17012,0.74197 -1.39062,0.47461 -0.22087,-0.26568 -0.066,-1.00291 0.46094,-1.59766 0.32886,-0.37188 0.70443,-0.57352 0.99218,-0.60352 0.0432,-0.004 0.083,-0.006 0.1211,-0.002 z m 3.71094,1.00781 c 0.33722,0.0229 0.7678902,0.45022 0.9375002,1.12305 0.19466,0.76914 -0.0459,1.46697 -0.39258,1.57617 -0.3471502,0.11082 -0.8803502,-0.33848 -1.0742202,-1.10742 -0.19494,-0.76919 0.0455,-1.46649 0.39258,-1.57617 0.0434,-0.0137 0.0885,-0.0189 0.13672,-0.0156 z"
     style="display:inline;fill:#ffffff;fill-opacity:1;stroke:none;enable-background:new"
     id="path1-3" />
  <path
     id="rect2630"
     style="opacity:0.2;fill:#ffffff;fill-opacity:1"
     d="M 3,1 C 1.8920011,1 1,1.8920011 1,3 V 4 C 1,2.8920011 1.8920011,2 3,2 h 10 c 1.107999,0 2,0.8920011 2,2 V 3 C 15,1.8920011 14.107999,1 13,1 Z" />
  <path
     d="m 2.9999999,15 c -1.1079989,0 -2,-0.892001 -2,-2 v -1 c 0,1.107999 0.8920011,2 2,2 H 13 c 1.107999,0 2,-0.892001 2,-2 v 1 c 0,1.107999 -0.892001,2 -2,2 z"
     style="opacity:0.2;fill:#ffffff;fill-opacity:1"
     id="path19648" />
  <path
     id="rect899"
     style="opacity:0.5;fill:#000000;stroke:none"
     d="M 3,0 C 1.3380017,0 0,1.3380017 0,3 v 10 c 0,1.661998 1.3380017,3 3,3 h 10 c 1.661998,0 3,-1.338002 3,-3 V 3 C 16,1.3380017 14.661998,0 13,0 Z m 0,1 h 10 c 1.107999,0 2,0.8920011 2,2 v 10 c 0,1.107999 -0.892001,2 -2,2 H 3 C 1.8920011,15 1,14.107999 1,13 V 3 C 1,1.8920011 1.8920011,1 3,1 Z" />
</svg>
