<?xml version="1.0" encoding="UTF-8" standalone="no"?>
<!-- Created with Inkscape (http://www.inkscape.org/) -->

<svg
   width="16"
   height="16"
   viewBox="0 0 16 16"
   version="1.1"
   id="svg5"
   sodipodi:docname="applications-science.svg"
   inkscape:version="1.2.1 (9c6d41e410, 2022-07-14)"
   xmlns:inkscape="http://www.inkscape.org/namespaces/inkscape"
   xmlns:sodipodi="http://sodipodi.sourceforge.net/DTD/sodipodi-0.dtd"
   xmlns:xlink="http://www.w3.org/1999/xlink"
   xmlns="http://www.w3.org/2000/svg"
   xmlns:svg="http://www.w3.org/2000/svg">
  <sodipodi:namedview
     id="namedview7"
     pagecolor="#ffffff"
     bordercolor="#666666"
     borderopacity="1.0"
     inkscape:showpageshadow="2"
     inkscape:pageopacity="0.0"
     inkscape:pagecheckerboard="0"
     inkscape:deskcolor="#d1d1d1"
     inkscape:document-units="px"
     showgrid="false"
     inkscape:zoom="30.739635"
     inkscape:cx="-6.1158827"
     inkscape:cy="7.4984626"
     inkscape:window-width="1920"
     inkscape:window-height="1009"
     inkscape:window-x="0"
     inkscape:window-y="0"
     inkscape:window-maximized="1"
     inkscape:current-layer="svg5" />
  <defs
     id="defs2">
    <linearGradient
       inkscape:collect="always"
       id="linearGradient1918">
      <stop
         style="stop-color:#ff8d18;stop-opacity:1;"
         offset="0"
         id="stop1914" />
      <stop
         style="stop-color:#c94c41;stop-opacity:1;"
         offset="1"
         id="stop1916" />
    </linearGradient>
    <linearGradient
       inkscape:collect="always"
       xlink:href="#linearGradient1918"
       id="linearGradient30973"
       x1="8"
       y1="16"
       x2="8"
       y2="0"
       gradientUnits="userSpaceOnUse" />
  </defs>
  <rect
     style="fill:url(#linearGradient30973);fill-opacity:1.0;stroke:none"
     id="rect184"
     width="15"
     height="15"
     x="0.5"
     y="0.5"
     ry="2.5" />
  <path
     d="M 8,3 C 7.09391,3 6.2825,3.80417 5.73242,5.07422 4.35839,4.91608 3.25752,5.21567 2.80469,6 2.35173,6.78454 2.6423,7.8888 3.4668,9 2.6423,10.1112 2.35173,11.21546 2.80469,12 3.25752,12.78433 4.35839,13.08392 5.73242,12.92578 6.2825,14.19583 7.09391,15 8,15 8.90609,15 9.7175,14.19583 10.26758,12.92578 11.64161,13.08392 12.74248,12.78433 13.19531,12 13.64827,11.21546 13.3577,10.1112 12.5332,9 13.3577,7.8888 13.64827,6.78454 13.19531,6 12.74248,5.21567 11.64161,4.91608 10.26758,5.07422 9.7175,3.80417 8.90609,3 8,3 Z M 8,4 C 8.50535,4 8.96433,4.47325 9.31641,5.24609 8.8904,5.35033 8.44855,5.49246 8,5.67188 7.55145,5.49246 7.1096,5.35033 6.68359,5.24609 7.03567,4.47325 7.49465,4 8,4 Z M 4.96875,5.95898 c 0.13764,-0.002 0.28529,0.007 0.4375,0.0215 C 5.28308,6.40251 5.18624,6.85648 5.11719,7.33595 4.73693,7.63517 4.39347,7.94635 4.08984,8.26368 3.59638,7.57221 3.4172,6.93774 3.66992,6.50001 3.87703,6.14129 4.34226,5.96587 4.96875,5.95899 Z m 6.0625,0 c 0.62649,0.007 1.09172,0.1823 1.29883,0.54102 0.25272,0.43773 0.0735,1.0722 -0.41992,1.76367 C 11.60653,7.94634 11.26307,7.63516 10.88281,7.33594 10.81371,6.85647 10.71692,6.4025 10.59375,5.98047 c 0.15221,-0.0147 0.29986,-0.023 0.4375,-0.0215 z M 6.35742,6.1543 C 6.48405,6.187 6.61286,6.2229 6.74414,6.26367 6.66264,6.30827 6.58133,6.35537 6.5,6.40234 6.419,6.44914 6.33883,6.49684 6.25977,6.54492 6.29007,6.41074 6.32237,6.2804 6.35737,6.1543 Z m 3.28516,0 c 0.035,0.1261 0.0673,0.25644 0.0976,0.39062 C 9.66108,6.49682 9.58098,6.44912 9.49995,6.40234 9.41865,6.35534 9.33729,6.30824 9.25581,6.26367 9.38709,6.22287 9.5159,6.18697 9.64253,6.1543 Z M 8,6.75 C 8.33029,6.90217 8.66445,7.07385 9,7.26758 9.33536,7.4612 9.65047,7.66516 9.94727,7.875 9.98057,8.23711 9.99997,8.61256 9.99997,9 c 0,0.38744 -0.0194,0.76289 -0.0527,1.125 C 9.65047,10.33484 9.33536,10.5388 9,10.73242 8.66445,10.92615 8.33029,11.09783 8,11.25 7.66971,11.09783 7.33555,10.92615 7,10.73242 6.66464,10.5388 6.34953,10.33484 6.05273,10.125 6.01938,9.76289 6,9.38744 6,9 6,8.61256 6.0194,8.23711 6.0527,7.875 6.3495,7.66516 6.66461,7.4612 6.99997,7.26758 7.33552,7.07385 7.66968,6.90217 7.99997,6.75 Z M 8,8 C 7.44772,8 7,8.44772 7,9 7,9.55228 7.44772,10 8,10 8.55228,10 9,9.55228 9,9 9,8.44772 8.55228,8 8,8 Z M 5.00391,8.71875 c -0.002,0.0933 -0.004,0.18687 -0.004,0.28125 0,0.0944 0.002,0.18794 0.004,0.28125 C 4.90237,9.18745 4.805,9.09382 4.71289,9 4.80499,8.9062 4.90237,8.81256 5.00391,8.71875 Z m 5.99218,0 C 11.09763,8.81255 11.195,8.90618 11.28711,9 c -0.0921,0.0938 -0.18948,0.18744 -0.29102,0.28125 0.002,-0.0933 0.004,-0.18687 0.004,-0.28125 0,-0.0944 -0.002,-0.18794 -0.004,-0.28125 z M 4.08984,9.73633 c 0.30363,0.31733 0.64709,0.62851 1.02735,0.92773 0.0691,0.47947 0.16589,0.93344 0.28906,1.35547 C 4.56126,12.10093 3.92253,11.93753 3.66992,11.5 3.4172,11.06227 3.59642,10.4278 4.08984,9.73633 Z m 7.82032,0 c 0.49346,0.69147 0.67264,1.32594 0.41992,1.76367 -0.25261,0.43753 -0.89134,0.60089 -1.73633,0.51953 0.12317,-0.42203 0.22001,-0.876 0.28906,-1.35547 0.38026,-0.29922 0.72372,-0.6104 1.02735,-0.92773 z m -5.65039,1.71875 c 0.0791,0.0481 0.1592,0.0958 0.24023,0.14258 0.0813,0.047 0.16266,0.0941 0.24414,0.13867 -0.13128,0.0408 -0.26009,0.0767 -0.38672,0.10937 -0.035,-0.1261 -0.0673,-0.25644 -0.0976,-0.39062 z m 3.48046,0 C 9.70993,11.58926 9.67763,11.7196 9.64263,11.8457 9.516,11.813 9.38719,11.7771 9.25591,11.73633 c 0.0815,-0.0446 0.16281,-0.0917 0.24414,-0.13867 0.081,-0.0468 0.16117,-0.0945 0.24023,-0.14258 z M 8,12.32812 c 0.44855,0.17942 0.8904,0.32155 1.31641,0.42579 C 8.96433,13.52675 8.50535,14 8,14 7.49465,14 7.03567,13.52675 6.68359,12.75391 7.1096,12.64967 7.55145,12.50754 8,12.32812 Z"
     style="color:#000000;display:inline;overflow:visible;visibility:visible;opacity:0.2;fill:#000000;fill-opacity:1;fill-rule:evenodd;stroke:none;stroke-width:3;marker:none;enable-background:new"
     id="path1420" />
  <path
     d="M 8,2 C 7.09391,2 6.2825,2.80417 5.73242,4.07422 4.35839,3.91608 3.25752,4.21567 2.80469,5 2.35173,5.78454 2.6423,6.8888 3.4668,8 2.6423,9.1112 2.35173,10.21546 2.80469,11 3.25752,11.78433 4.35839,12.08392 5.73242,11.92578 6.2825,13.19583 7.09391,14 8,14 8.90609,14 9.7175,13.19583 10.26758,11.92578 11.64161,12.08392 12.74248,11.78433 13.19531,11 13.64827,10.21546 13.3577,9.1112 12.5332,8 13.3577,6.8888 13.64827,5.78454 13.19531,5 12.74248,4.21567 11.64161,3.91608 10.26758,4.07422 9.7175,2.80417 8.90609,2 8,2 Z M 8,3 C 8.50535,3 8.96433,3.47325 9.31641,4.24609 8.8904,4.35033 8.44855,4.49246 8,4.67188 7.55145,4.49246 7.1096,4.35033 6.68359,4.24609 7.03567,3.47325 7.49465,3 8,3 Z M 4.96875,4.95898 c 0.13764,-0.002 0.28529,0.007 0.4375,0.0215 C 5.28308,5.40251 5.18624,5.85648 5.11719,6.33595 4.73693,6.63517 4.39347,6.94635 4.08984,7.26368 3.59638,6.57221 3.4172,5.93774 3.66992,5.50001 3.87703,5.14129 4.34226,4.96587 4.96875,4.95899 Z m 6.0625,0 c 0.62649,0.007 1.09172,0.1823 1.29883,0.54102 0.25272,0.43773 0.0735,1.0722 -0.41992,1.76367 C 11.60653,6.94634 11.26307,6.63516 10.88281,6.33594 10.81371,5.85647 10.71692,5.4025 10.59375,4.98047 c 0.15221,-0.0147 0.29986,-0.023 0.4375,-0.0215 z M 6.35742,5.1543 C 6.48405,5.187 6.61286,5.2229 6.74414,5.26367 6.66264,5.30827 6.58133,5.35537 6.5,5.40234 6.419,5.44914 6.33883,5.49684 6.25977,5.54492 6.29007,5.41074 6.32237,5.2804 6.35737,5.1543 Z m 3.28516,0 c 0.035,0.1261 0.0673,0.25644 0.0976,0.39062 C 9.66108,5.49682 9.58098,5.44912 9.49995,5.40234 9.41865,5.35534 9.33729,5.30824 9.25581,5.26367 9.38709,5.22287 9.5159,5.18697 9.64253,5.1543 Z M 8,5.75 C 8.33029,5.90217 8.66445,6.07385 9,6.26758 9.33536,6.4612 9.65047,6.66516 9.94727,6.875 9.98057,7.23711 9.99997,7.61256 9.99997,8 c 0,0.38744 -0.0194,0.76289 -0.0527,1.125 C 9.65047,9.33484 9.33536,9.5388 9,9.73242 8.66445,9.92615 8.33029,10.09783 8,10.25 7.66971,10.09783 7.33555,9.92615 7,9.73242 6.66464,9.5388 6.34953,9.33484 6.05273,9.125 6.01938,8.76289 6,8.38744 6,8 6,7.61256 6.0194,7.23711 6.0527,6.875 6.3495,6.66516 6.66461,6.4612 6.99997,6.26758 7.33552,6.07385 7.66968,5.90217 7.99997,5.75 Z M 8,7 C 7.44772,7 7,7.44772 7,8 7,8.55228 7.44772,9 8,9 8.55228,9 9,8.55228 9,8 9,7.44772 8.55228,7 8,7 Z M 5.00391,7.71875 c -0.002,0.0933 -0.004,0.18687 -0.004,0.28125 0,0.0944 0.002,0.18794 0.004,0.28125 C 4.90237,8.18745 4.805,8.09382 4.71289,8 4.80499,7.9062 4.90237,7.81256 5.00391,7.71875 Z m 5.99218,0 C 11.09763,7.81255 11.195,7.90618 11.28711,8 c -0.0921,0.0938 -0.18948,0.18744 -0.29102,0.28125 0.002,-0.0933 0.004,-0.18687 0.004,-0.28125 0,-0.0944 -0.002,-0.18794 -0.004,-0.28125 z M 4.08984,8.73633 c 0.30363,0.31733 0.64709,0.62851 1.02735,0.92773 0.0691,0.47947 0.16589,0.93344 0.28906,1.35547 C 4.56126,11.10093 3.92253,10.93753 3.66992,10.5 3.4172,10.06227 3.59642,9.4278 4.08984,8.73633 Z m 7.82032,0 c 0.49346,0.69147 0.67264,1.32594 0.41992,1.76367 -0.25261,0.43753 -0.89134,0.60089 -1.73633,0.51953 0.12317,-0.42203 0.22001,-0.876 0.28906,-1.35547 0.38026,-0.29922 0.72372,-0.6104 1.02735,-0.92773 z m -5.65039,1.71875 c 0.0791,0.0481 0.1592,0.0958 0.24023,0.14258 0.0813,0.047 0.16266,0.0941 0.24414,0.13867 -0.13128,0.0408 -0.26009,0.0767 -0.38672,0.10937 -0.035,-0.1261 -0.0673,-0.25644 -0.0976,-0.39062 z m 3.48046,0 C 9.70993,10.58926 9.67763,10.7196 9.64263,10.8457 9.516,10.813 9.38719,10.7771 9.25591,10.73633 c 0.0815,-0.0446 0.16281,-0.0917 0.24414,-0.13867 0.081,-0.0468 0.16117,-0.0945 0.24023,-0.14258 z M 8,11.32812 c 0.44855,0.17942 0.8904,0.32155 1.31641,0.42579 C 8.96433,12.52675 8.50535,13 8,13 7.49465,13 7.03567,12.52675 6.68359,11.75391 7.1096,11.64967 7.55145,11.50754 8,11.32812 Z"
     style="color:#000000;display:inline;overflow:visible;visibility:visible;fill:#ffffff;fill-opacity:1;fill-rule:evenodd;stroke:none;stroke-width:3;marker:none;enable-background:new"
     id="path653"
     sodipodi:nodetypes="scccccscccccsscccscccccccccccccccccccccccccccscscscscscsccssssscsccccccscccccccccccccccccccccccccscc" />
  <path
     id="rect2630"
     style="opacity:0.3;fill:#ffffff;fill-opacity:1"
     d="M 3,1 C 1.8920011,1 1,1.8920011 1,3 V 4 C 1,2.8920011 1.8920011,2 3,2 h 10 c 1.107999,0 2,0.8920011 2,2 V 3 C 15,1.8920011 14.107999,1 13,1 Z" />
  <path
     d="m 2.9999999,15 c -1.1079989,0 -2,-0.892001 -2,-2 v -1 c 0,1.107999 0.8920011,2 2,2 H 13 c 1.107999,0 2,-0.892001 2,-2 v 1 c 0,1.107999 -0.892001,2 -2,2 z"
     style="opacity:0.3;fill:#ffffff;fill-opacity:1"
     id="path19648" />
  <path
     id="rect899"
     style="opacity:0.5;fill:#000000;stroke:none"
     d="M 3,0 C 1.3380017,0 0,1.3380017 0,3 v 10 c 0,1.661998 1.3380017,3 3,3 h 10 c 1.661998,0 3,-1.338002 3,-3 V 3 C 16,1.3380017 14.661998,0 13,0 Z m 0,1 h 10 c 1.107999,0 2,0.8920011 2,2 v 10 c 0,1.107999 -0.892001,2 -2,2 H 3 C 1.8920011,15 1,14.107999 1,13 V 3 C 1,1.8920011 1.8920011,1 3,1 Z" />
</svg>
