<?xml version="1.0" encoding="UTF-8" standalone="no"?>
<!-- Created with Inkscape (http://www.inkscape.org/) -->

<svg
   width="16"
   height="16"
   viewBox="0 0 16 16"
   version="1.1"
   id="svg5"
   sodipodi:docname="baloo.svg"
   inkscape:version="1.2.1 (9c6d41e410, 2022-07-14)"
   xmlns:inkscape="http://www.inkscape.org/namespaces/inkscape"
   xmlns:sodipodi="http://sodipodi.sourceforge.net/DTD/sodipodi-0.dtd"
   xmlns:xlink="http://www.w3.org/1999/xlink"
   xmlns="http://www.w3.org/2000/svg"
   xmlns:svg="http://www.w3.org/2000/svg">
  <sodipodi:namedview
     id="namedview7"
     pagecolor="#ffffff"
     bordercolor="#666666"
     borderopacity="1.0"
     inkscape:showpageshadow="2"
     inkscape:pageopacity="0.0"
     inkscape:pagecheckerboard="0"
     inkscape:deskcolor="#d1d1d1"
     inkscape:document-units="px"
     showgrid="false"
     inkscape:zoom="49.6875"
     inkscape:cx="8"
     inkscape:cy="8"
     inkscape:window-width="1920"
     inkscape:window-height="1007"
     inkscape:window-x="0"
     inkscape:window-y="0"
     inkscape:window-maximized="1"
     inkscape:current-layer="svg5" />
  <defs
     id="defs2">
    <linearGradient
       inkscape:collect="always"
       id="linearGradient1265">
      <stop
         style="stop-color:#2d7ff3;stop-opacity:1;"
         offset="0"
         id="stop1261" />
      <stop
         style="stop-color:#2cdbfa;stop-opacity:1;"
         offset="1"
         id="stop1263" />
    </linearGradient>
    <linearGradient
       inkscape:collect="always"
       xlink:href="#linearGradient1265"
       id="linearGradient19638"
       x1="13"
       y1="16"
       x2="3"
       y2="0"
       gradientUnits="userSpaceOnUse" />
  </defs>
  <rect
     style="fill:url(#linearGradient19638);fill-opacity:1.0;stroke:none"
     id="rect184"
     width="15"
     height="15"
     x="0.5"
     y="0.5"
     ry="2.5" />
  <path
     d="M 7.5,4 7,4.5 v 1.0000001 c 0,0.277 0.223,0.5000001 0.5,0.5000001 0.277,0 0.5,-0.2230001 0.5,-0.5000001 V 4.5 Z M 5.5,5 5,5.5 v 1.0000002 c 0,0.2769999 0.223,0.5 0.5,0.5 0.277,0 0.5,-0.2230001 0.5,-0.5 V 5.5 Z M 9.5,5 9,5.5 v 1.0000002 c 0,0.2769999 0.223,0.5 0.5,0.5 0.277,0 0.5,-0.2230001 0.5,-0.5 V 5.5 Z m -6,2.0000001 -0.5,0.5 V 8.5 C 3,8.777 3.223,9 3.5,9 3.777,9 4,8.777 4,8.5 V 7.5000002 Z m 8,0 -0.5,0.5 V 8.5 C 11,8.777 11.223,9 11.5,9 11.777,9 12,8.777 12,8.5 V 7.5000002 Z m -4,1 c -1.1045696,0 -2,0.8954305 -2,1.9999998 -1.10457,0 -2,0.8954311 -2,2.0000001 0,1.104569 0.89543,2 2,2 1.1045695,0 2,-0.895431 2,-2 0,1.104569 0.895431,2 2,2 1.104569,0 2,-0.895431 2,-2 0,-1.104569 -0.895431,-2.0000001 -2,-2.0000001 C 9.5,8.8954306 8.604569,8 7.5,8.0000001 Z"
     style="opacity:0.2;fill:#000000"
     id="path614"
     sodipodi:nodetypes="ccsssccccsssccccsssccccsssccccsssccscsscsscs" />
  <path
     d="M 7.5,3 7,3.5 v 1.0000001 c 0,0.277 0.223,0.5000001 0.5,0.5000001 0.277,0 0.5,-0.2230001 0.5,-0.5000001 V 3.5 Z m -2,1 -0.5000001,0.5 v 1.0000002 c 0,0.2769999 0.223,0.5 0.5000001,0.5 0.277,0 0.5,-0.2230001 0.5,-0.5 V 4.5 Z M 9.5,4 9,4.5 v 1.0000002 c 0,0.2769999 0.223,0.5 0.5,0.5 0.277,0 0.5,-0.2230001 0.5,-0.5 V 4.5 Z m -6,2.0000001 -0.5,0.5 V 7.5 C 3,7.777 3.2229999,8 3.5,8 3.777,8 4,7.777 4,7.5 V 6.5000001 Z m 8,0 -0.5,0.5 V 7.5 C 11,7.777 11.223,8 11.5,8 11.777,8 12,7.777 12,7.5 V 6.5000001 Z m -4,1 c -1.1045696,0 -2,0.8954305 -2,1.9999998 -1.1045696,0 -2.0000001,0.895431 -2.0000001,2.0000001 0,1.104569 0.8954305,2 2.0000001,2 1.1045695,0 2,-0.895431 2,-2 0,1.104569 0.895431,2 2,2 1.104569,0 2,-0.895431 2,-2 0,-1.1045692 -0.895431,-2.0000001 -2,-2.0000001 C 9.5,7.8954306 8.604569,7 7.5,7.0000001 Z"
     style="fill:#ffffff"
     id="path394"
     sodipodi:nodetypes="ccsssccccsssccccsssccccsssccccsssccscsscsscs" />
  <path
     id="rect2630"
     style="opacity:0.3;fill:#ffffff;fill-opacity:1"
     d="M 3,1 C 1.8920011,1 1,1.8920011 1,3 V 4 C 1,2.8920011 1.8920011,2 3,2 h 10 c 1.107999,0 2,0.8920011 2,2 V 3 C 15,1.8920011 14.107999,1 13,1 Z"
     sodipodi:nodetypes="sscsscsss" />
  <path
     d="M 3,15 C 1.8920011,15 1,14.107999 1,13 v -1 c 0,1.107999 0.8920011,2 2,2 h 10 c 1.107999,0 2,-0.892001 2,-2 v 1 c 0,1.107999 -0.892001,2 -2,2 z"
     style="opacity:0.3;fill:#ffffff;fill-opacity:1"
     id="path19648" />
  <path
     id="rect899"
     style="opacity:0.5;fill:#000000;stroke:none"
     d="M 3,0 C 1.3380017,0 0,1.3380017 0,3 v 10 c 0,1.661998 1.3380017,3 3,3 h 10 c 1.661998,0 3,-1.338002 3,-3 V 3 C 16,1.3380017 14.661998,0 13,0 Z m 0,1 h 10 c 1.107999,0 2,0.8920011 2,2 v 10 c 0,1.107999 -0.892001,2 -2,2 H 3 C 1.8920011,15 1,14.107999 1,13 V 3 C 1,1.8920011 1.8920011,1 3,1 Z" />
</svg>
