<?xml version="1.0" encoding="UTF-8" standalone="no"?>
<!-- Created with Inkscape (http://www.inkscape.org/) -->

<svg
   width="16"
   height="16"
   viewBox="0 0 16 16"
   version="1.1"
   id="svg5"
   sodipodi:docname="brave.svg"
   inkscape:version="1.2.1 (9c6d41e410, 2022-07-14)"
   xmlns:inkscape="http://www.inkscape.org/namespaces/inkscape"
   xmlns:sodipodi="http://sodipodi.sourceforge.net/DTD/sodipodi-0.dtd"
   xmlns:xlink="http://www.w3.org/1999/xlink"
   xmlns="http://www.w3.org/2000/svg"
   xmlns:svg="http://www.w3.org/2000/svg">
  <sodipodi:namedview
     id="namedview7"
     pagecolor="#ffffff"
     bordercolor="#666666"
     borderopacity="1.0"
     inkscape:showpageshadow="2"
     inkscape:pageopacity="0.0"
     inkscape:pagecheckerboard="0"
     inkscape:deskcolor="#d1d1d1"
     inkscape:document-units="px"
     showgrid="false"
     inkscape:zoom="49.5"
     inkscape:cx="7.989899"
     inkscape:cy="8"
     inkscape:window-width="1920"
     inkscape:window-height="1007"
     inkscape:window-x="0"
     inkscape:window-y="0"
     inkscape:window-maximized="1"
     inkscape:current-layer="svg5" />
  <defs
     id="defs2">
    <linearGradient
       inkscape:collect="always"
       xlink:href="#linearGradient3475"
       id="linearGradient19638"
       x1="13"
       y1="16"
       x2="3"
       y2="0"
       gradientUnits="userSpaceOnUse" />
    <linearGradient
       inkscape:collect="always"
       id="linearGradient3475">
      <stop
         style="stop-color:#f16649;stop-opacity:1;"
         offset="0"
         id="stop3471" />
      <stop
         style="stop-color:#fd8862;stop-opacity:1;"
         offset="1"
         id="stop3473" />
    </linearGradient>
  </defs>
  <rect
     style="fill:url(#linearGradient19638);fill-opacity:1.0;stroke:none"
     id="rect184"
     width="15"
     height="15"
     x="0.5"
     y="0.5"
     ry="2.5" />
  <path
     d="m 6.1542962,3.000272 -0.981445,0.9192712 c -0.013,0.0044 -0.1077622,-0.0778 -0.2124024,-0.1093741 C 4.6800924,3.7254231 4.3234,3.7413964 4.0815424,3.8544364 3.9233288,3.9283831 3.862125,3.9793966 3.48584,4.3596447 3.0802688,4.7695196 3,4.868925 3,4.9559997 3,4.9785727 3.1475838,5.1977131 3.2197262,5.3700626 l 0.129395,0.3125002 -0.1684574,0.4739589 c -0.0925,0.2610001 -0.1725088,0.4898868 -0.1782226,0.5078122 -0.014324,0.045746 1.3009862,5.3561901 1.3696288,5.5234401 0.124575,0.304501 0.3200874,0.576729 0.5737312,0.79948 0.2290712,0.201749 2.55306,1.83498 2.7832026,1.95573 0.068074,0.03526 0.1772824,0.05504 0.2709962,0.05729 0.093712,-0.0023 0.202925,-0.02204 0.2709962,-0.05729 0.2301426,-0.120748 2.5546318,-1.753981 2.7832028,-1.95573 0.253571,-0.222751 0.451172,-0.494979 0.576172,-0.79948 0.06858,-0.16725 1.381472,-5.4776895 1.367188,-5.5234401 -0.0058,-0.01792 -0.08537,-0.2468121 -0.178222,-0.5078122 L 12.650879,5.6825628 12.780273,5.3700626 C 12.852411,5.1977131 13,4.9785743 13,4.9559997 13,4.8689197 12.919878,4.7695196 12.51416,4.3596447 12.137732,3.9793951 12.076313,3.9283872 11.918458,3.8544364 11.676316,3.7413964 11.320266,3.7254097 11.039551,3.8101694 10.935262,3.8417424 10.84072,3.923969 10.827149,3.9195434 L 9.845702,3.000272 M 5.5830074,4.333606 c 0.438025,0.060907 0.751205,0.3263815 1.1743164,0.4010416 0.035675,0 0.180555,-0.1091737 0.3222662,-0.1614575 C 7.6845062,4.3506473 7.8828688,4.333606 8,4.333606 c 0.117125,0 0.3129776,0.01584 0.9179688,0.2395841 0.1416362,0.0526 0.283585,0.1615374 0.3173824,0.1614575 C 9.664983,4.6539136 10.006878,4.413142 10.414551,4.333606 c 0.07943,0 1.01128,1.4962621 1.235351,1.9739597 0.09442,0.1996801 0.122538,0.3988802 0.08057,0.5494789 -0.03748,0.1357321 -0.19978,0.2713788 -0.886232,1.0312513 -0.314747,0.3488401 -0.580884,0.6528629 -0.588378,0.677083 -0.03222,0.10152 -0.0071,0.2499308 0.09033,0.5208331 0.128148,0.354917 0.145016,0.50249 0.08057,0.721356 -0.06895,0.233893 -0.169242,0.406262 -0.339356,0.578125 C 9.914295,10.560753 9.80791,10.740016 9.708989,10.721631 9.590585,10.699241 8.8496168,10.1348 8.7275392,10.013297 8.436848,9.723767 8.1520892,9.385575 8.1416018,9.320589 8.1354718,9.282459 8.1482218,9.215962 8.1684518,9.17215 8.1886862,9.12819 8.398965,8.8929977 8.6371988,8.6487122 9.0519174,8.223692 9.1279226,8.283876 9.1279226,8.1617333 c 0,-0.030214 -0.075638,-0.2702255 -0.1660164,-0.5338549 C 8.83226,7.2497009 8.7977338,7.2791836 8.7983326,7.1721488 8.7990826,7.0026847 8.8522706,6.8809554 8.9619062,6.7945446 9.0085182,6.7577716 9.3453676,6.5907805 9.708978,6.4247538 c 0.363459,-0.1661081 0.684605,-0.3103336 0.715331,-0.3255216 0.03222,-0.014786 0.04692,-0.034373 0.03418,-0.04948 -0.01126,-0.013067 -0.212964,-0.046174 -0.446777,-0.070307 -0.500599,-0.05412 -0.489229,-0.05524 -1.0400392,0.179688 -0.3417262,0.1454828 -0.3983949,0.1760001 -0.4272462,0.2421869 -0.018288,0.042053 -0.032038,0.097826 -0.031738,0.125 3e-4,0.026854 0.071912,0.4170216 0.1586924,0.8645845 0.1486064,0.7661877 0.1536826,0.6563969 0.1171876,0.7005209 -0.045112,0.05444 -0.491775,0.2157961 -0.71045,0.2369802 C 7.8865706,8.3459125 7.273993,8.1699696 7.211418,8.0940295 7.172006,8.0461495 7.17693,8.1746825 7.3286054,7.3909052 c 0.086625,-0.4475629 0.15595,-0.8373204 0.1562502,-0.8645845 3e-4,-0.026854 -0.0136,-0.083267 -0.031738,-0.125 -0.028778,-0.066187 -0.08994,-0.099707 -0.473635,-0.2630204 l -0.4394538,-0.1848961 -0.2392576,0.0052 c -0.3162474,0.0096 -0.7505362,0.068306 -0.7568362,0.1015596 -0.00276,0.014546 0.3178076,0.1719455 0.7128912,0.3515628 0.3950088,0.1797761 0.7504726,0.3561722 0.791015,0.3906242 0.1001256,0.084893 0.1506176,0.2062428 0.1513676,0.3697923 5.25e-4,0.10824 -0.035212,0.080786 -0.1684576,0.4713549 C 6.8063062,8.3012116 6.782695,8.0557315 7.3725488,8.6617278 7.6221738,8.9182425 7.8372,9.158537 7.8510638,9.198185 7.8918258,9.315452 7.8400638,9.409507 7.5532126,9.719019 7.212085,10.086965 7.1449888,10.138503 6.69872,10.393499 v 0.0026 C 6.4939088,10.513673 6.2965562,10.727699 6.2617088,10.7269 6.1643588,10.723699 6.10202,10.56486 5.9370012,10.406586 5.7595438,10.235524 5.6425512,10.038972 5.5732324,9.794608 5.5095326,9.569747 5.5193826,9.466429 5.6513574,9.094086 5.7475074,8.8227829 5.7748076,8.6682375 5.7416824,8.5654402 5.7343074,8.5425735 5.4863874,8.2549973 5.189925,7.9274185 4.308555,6.9537167 4.2212938,6.907762 4.2548662,6.6305432 4.2788412,6.4323817 4.3626538,6.3646284 4.6576988,5.8440841 4.9085974,5.4014786 5.5146462,4.3887434 5.5829912,4.3336673 Z M 8,10.122672 c 0.1018878,5e-4 0.2061288,0.04649 0.3930662,0.138021 0.355515,0.17426 1.0977288,0.620329 1.1279298,0.677083 0.03748,0.07115 0.0036,0.12228 -0.227051,0.322918 -0.4096226,0.357313 -0.8715812,0.729167 -0.8715812,0.729167 v -0.0026 c -0.4400488,0.458825 -0.405855,0.45826 -0.8349614,0.01307 0,0 -0.6302612,-0.522488 -0.9594724,-0.794271 C 6.4681574,11.074096 6.4351362,11.006894 6.498535,10.932552 6.55991,10.860605 7.2915338,10.419544 7.6166988,10.258073 7.7980538,10.16774 7.89811,10.122156 8,10.122656 Z"
     style="opacity:0.2;fill:#000000;stroke-width:0.731924"
     id="path10403"
     sodipodi:nodetypes="cccscscccccccccccccccsccccccccscccccccccccccccssccccccccsccccssscccsccccccccccccsscccccsccccccsscss" />
  <path
     d="m 6.1542962,2 -0.981445,0.9192708 c -0.013,0.0044 -0.1077622,-0.0778 -0.2124024,-0.1093728 C 4.6800924,2.7251508 4.3234,2.7411241 4.0815424,2.8541641 3.9233288,2.9281107 3.862125,2.9791242 3.48584,3.3593721 3.0802688,3.7692469 3,3.8686522 3,3.9557269 3,3.9782999 3.1475838,4.1974402 3.2197262,4.3697896 l 0.129395,0.3125001 -0.1684574,0.4739587 c -0.0925,0.261 -0.1725088,0.4898867 -0.1782226,0.507812 -0.014324,0.045746 1.3009862,5.3561886 1.3696288,5.5234386 0.124575,0.3045 0.3200874,0.576728 0.5737312,0.799479 0.2290712,0.201749 2.55306,1.834979 2.7832026,1.955729 C 7.7970788,13.97796 7.9062862,13.997746 8,14 c 0.093712,-0.0023 0.202925,-0.02204 0.2709962,-0.05729 0.2301426,-0.120748 2.5546318,-1.75398 2.7832028,-1.955729 0.253571,-0.222751 0.451172,-0.494979 0.576172,-0.799479 0.06858,-0.16725 1.381472,-5.4776882 1.367188,-5.5234388 -0.0058,-0.01792 -0.08537,-0.246812 -0.178222,-0.507812 L 12.650879,4.6822897 12.780273,4.3697896 C 12.852411,4.1974402 13,3.9783015 13,3.9557269 13,3.8686469 12.91988,3.7692469 12.51416,3.3593721 12.137732,2.9791227 12.076313,2.9281148 11.918458,2.8541641 11.676316,2.7411241 11.320266,2.7251374 11.039551,2.8098971 10.935262,2.8414701 10.84072,2.9236967 10.827149,2.9192699 L 9.845702,2 M 5.5830074,3.3333334 c 0.438025,0.060907 0.751205,0.3263814 1.1743164,0.4010415 0.035675,0 0.180555,-0.1091736 0.3222662,-0.1614574 C 7.6845062,3.3503748 7.8828688,3.3333334 8,3.3333334 c 0.117125,0 0.3129776,0.01584 0.9179688,0.2395841 0.1416362,0.0526 0.283585,0.1615373 0.3173824,0.1614574 0.4296318,-0.080734 0.7715268,-0.3215055 1.1791998,-0.4010415 0.07943,0 1.01128,1.4962616 1.235351,1.973959 0.09442,0.19968 0.122538,0.39888 0.08057,0.5494787 -0.03748,0.135732 -0.19978,0.2713787 -0.886232,1.0312508 -0.314747,0.34884 -0.580884,0.6528627 -0.588378,0.6770827 -0.03222,0.10152 -0.0071,0.2499308 0.09033,0.5208334 0.128148,0.3549161 0.145016,0.5024894 0.08057,0.7213548 C 10.357812,9.041186 10.25752,9.213555 10.087406,9.385418 9.914292,9.560478 9.807906,9.739741 9.708985,9.721355 9.590585,9.698965 8.8496168,9.134525 8.7275392,9.013022 8.436845,8.7234927 8.1520862,8.3853007 8.1415988,8.3203141 c -0.00612,-0.038134 0.00662,-0.1046268 0.02685,-0.1484387 0.020238,-0.04396 0.2305162,-0.279152 0.46875,-0.5234375 0.4147188,-0.4250199 0.4907238,-0.364836 0.4907238,-0.4869787 0,-0.030214 -0.075638,-0.2702254 -0.1660164,-0.5338547 C 8.83226,6.2494272 8.7977338,6.2789098 8.7983326,6.1718751 8.7990826,6.0024111 8.8522703,5.8806818 8.9619062,5.7942711 9.0085184,5.7574971 9.3453676,5.590507 9.708978,5.4244804 10.072437,5.2583724 10.393583,5.114147 10.424309,5.098959 10.456531,5.084173 10.471231,5.064586 10.458487,5.049479 10.447231,5.036412 10.245523,5.003305 10.01171,4.979172 9.511111,4.925052 9.522481,4.923932 8.9716708,5.15886 8.6299446,5.3043427 8.5732759,5.33486 8.5444246,5.4010467 c -0.018288,0.042053 -0.032038,0.097826 -0.031738,0.1249999 3e-4,0.026854 0.071912,0.4170215 0.1586924,0.8645842 0.1486064,0.7661868 0.1536826,0.656396 0.1171876,0.70052 -0.045112,0.05444 -0.491775,0.215796 -0.71045,0.2369801 C 7.8865706,7.3456383 7.273993,7.1696955 7.211418,7.0937554 7.172006,7.0458754 7.17693,7.1744084 7.3286054,6.3906314 c 0.086625,-0.4475627 0.15595,-0.83732 0.1562502,-0.8645842 3e-4,-0.026854 -0.0136,-0.083267 -0.031738,-0.1249999 C 7.42434,5.3348604 7.3631774,5.3013404 6.9794826,5.138027 L 6.5400288,4.953131 6.3007712,4.958327 C 5.9845238,4.967927 5.550235,5.026633 5.543935,5.0598866 c -0.00276,0.014546 0.3178076,0.1719454 0.7128912,0.3515627 0.3950088,0.1797759 0.7504726,0.356172 0.791015,0.390624 0.1001256,0.084893 0.1506176,0.2062427 0.1513676,0.3697921 5.25e-4,0.10824 -0.035212,0.080786 -0.1684576,0.4713547 C 6.8063062,7.300938 6.782695,7.0554579 7.3725488,7.661454 7.6221738,7.9179686 7.8372,8.1582633 7.8510638,8.1979113 7.8918262,8.3151781 7.8400638,8.4092328 7.5532126,8.7187448 7.212085,9.08669 7.1449888,9.138229 6.69872,9.393225 v 0.0027 C 6.4939088,9.513398 6.2965562,9.727424 6.2617088,9.726625 6.1643588,9.723425 6.10202,9.564585 5.9370012,9.406311 5.7595438,9.235249 5.6425512,9.038697 5.5732324,8.7943328 5.5095326,8.5694727 5.5193826,8.466154 5.6513574,8.0938113 5.7475074,7.8225086 5.7748076,7.6679632 5.7416824,7.565166 5.7343074,7.5422992 5.4863874,7.2547232 5.189925,6.9271446 4.308555,5.9534431 4.2212938,5.9074885 4.2548662,5.6302698 4.2788412,5.4321084 4.3626538,5.364355 4.6576988,4.843811 4.9085974,4.4012056 5.5146462,3.3884708 5.5829912,3.3333948 Z M 8,9.122397 c 0.1018878,5e-4 0.2061288,0.04649 0.3930662,0.138021 0.355515,0.17426 1.0977288,0.620328 1.1279298,0.677083 0.03748,0.07115 0.0036,0.12228 -0.227051,0.322917 -0.4096224,0.357314 -0.8715812,0.729167 -0.8715812,0.729167 v -0.0026 c -0.4400488,0.458825 -0.405855,0.45826 -0.8349612,0.01307 0,0 -0.6302614,-0.522487 -0.9594726,-0.79427 C 6.4681574,10.073821 6.4351362,10.006618 6.498535,9.932277 6.55991,9.86033 7.2915338,9.419269 7.6166988,9.257798 7.7980538,9.167465 7.89811,9.121881 8,9.122381 Z"
     style="fill:#ffffff;stroke-width:0.731924"
     id="path10468" />
  <path
     id="rect2630"
     style="opacity:0.3;fill:#ffffff;fill-opacity:1"
     d="M 3,1 C 1.8920011,1 1,1.8920011 1,3 V 4 C 1,2.8920011 1.8920011,2 3,2 h 10 c 1.107999,0 2,0.8920011 2,2 V 3 C 15,1.8920011 14.107999,1 13,1 Z"
     sodipodi:nodetypes="sscsscsss" />
  <path
     d="M 3,15 C 1.8920011,15 1,14.107999 1,13 v -1 c 0,1.107999 0.8920011,2 2,2 h 10 c 1.107999,0 2,-0.892001 2,-2 v 1 c 0,1.107999 -0.892001,2 -2,2 z"
     style="opacity:0.3;fill:#ffffff;fill-opacity:1"
     id="path19648" />
  <path
     id="rect899"
     style="opacity:0.5;fill:#000000;stroke:none"
     d="M 3,0 C 1.3380017,0 0,1.3380017 0,3 v 10 c 0,1.661998 1.3380017,3 3,3 h 10 c 1.661998,0 3,-1.338002 3,-3 V 3 C 16,1.3380017 14.661998,0 13,0 Z m 0,1 h 10 c 1.107999,0 2,0.8920011 2,2 v 10 c 0,1.107999 -0.892001,2 -2,2 H 3 C 1.8920011,15 1,14.107999 1,13 V 3 C 1,1.8920011 1.8920011,1 3,1 Z" />
</svg>
