<?xml version="1.0" encoding="UTF-8" standalone="no"?>
<!-- Created with Inkscape (http://www.inkscape.org/) -->

<svg
   width="16"
   height="16"
   viewBox="0 0 16 16"
   version="1.1"
   id="svg5"
   sodipodi:docname="deja-dup.svg"
   inkscape:version="1.2.1 (9c6d41e410, 2022-07-14)"
   xmlns:inkscape="http://www.inkscape.org/namespaces/inkscape"
   xmlns:sodipodi="http://sodipodi.sourceforge.net/DTD/sodipodi-0.dtd"
   xmlns:xlink="http://www.w3.org/1999/xlink"
   xmlns="http://www.w3.org/2000/svg"
   xmlns:svg="http://www.w3.org/2000/svg">
  <sodipodi:namedview
     id="namedview7"
     pagecolor="#ffffff"
     bordercolor="#666666"
     borderopacity="1.0"
     inkscape:showpageshadow="2"
     inkscape:pageopacity="0.0"
     inkscape:pagecheckerboard="0"
     inkscape:deskcolor="#d1d1d1"
     inkscape:document-units="px"
     showgrid="false"
     inkscape:zoom="36.283417"
     inkscape:cx="7.2071493"
     inkscape:cy="8.8883581"
     inkscape:window-width="1920"
     inkscape:window-height="1007"
     inkscape:window-x="0"
     inkscape:window-y="0"
     inkscape:window-maximized="1"
     inkscape:current-layer="svg5"
     showguides="false" />
  <defs
     id="defs2">
    <linearGradient
       inkscape:collect="always"
       xlink:href="#4852"
       id="linearGradient19638"
       x1="8"
       y1="16"
       x2="8"
       y2="0"
       gradientUnits="userSpaceOnUse" />
    <linearGradient
       inkscape:collect="always"
       id="4852">
      <stop
         style="stop-color:#333333;stop-opacity:1"
         offset="0"
         id="stop14555" />
      <stop
         style="stop-color:#666666;stop-opacity:1"
         offset="1"
         id="stop14557" />
    </linearGradient>
  </defs>
  <rect
     style="fill:url(#linearGradient19638);fill-opacity:1;stroke:none"
     id="rect184"
     width="15"
     height="15"
     x="0.5"
     y="0.5"
     ry="2.5" />
  <path
     d="M 8,4 C 5.2385847,4 3,6.2385847 3,9 3.00434,9.6152468 3.1222029,10.224408 3.3476562,10.796875 L 3.5,11 5,9 H 4 C 4,6.7908676 5.7908676,5 8,5 c 2.209133,0 4,1.7908676 4,4 0,2.200593 -1.777259,3.986227 -3.9746094,4 -0.00853,5.3e-5 -0.01685,0 -0.025391,0 -0.2761424,0 -0.5,0.223858 -0.5,0.5 0,0.276142 0.2238576,0.5 0.5,0.5 C 10.761415,14 13,11.761415 13,9 13,6.2385847 10.761415,4 8,4 Z"
     style="fill:#000000;stroke-linecap:round;stroke-linejoin:round;opacity:0.2"
     id="path713" />
  <path
     d="M 8,3 C 5.238576,3 3,5.2385763 3,8 c 0,2.761424 2.238576,5 5,5 2.761424,0 5,-2.238576 5,-5 C 13,5.2385763 10.761424,3 8,3 Z m 0,1 c 2.209139,0 4,1.790861 4,4 0,2.209139 -1.790861,4 -4,4 C 5.790861,12 4,10.209139 4,8 4,5.790861 5.790861,4 8,4 Z"
     style="fill:#ffffff;stroke-linecap:round;stroke-linejoin:round;opacity:0.5"
     id="path566" />
  <path
     id="path424"
     style="opacity:1;fill:#ffffff;stroke-linecap:round;stroke-linejoin:round"
     d="M 8,3 C 5.2385847,3 3,5.2385847 3,8 3.0043435,8.6152468 3.1222029,9.2244082 3.3476562,9.796875 L 3.5,10 5,8 H 4 C 4,5.7908676 5.7908676,4 8,4 c 2.209133,0 4,1.7908676 4,4 0,2.200593 -1.777259,3.986227 -3.9746094,4 -0.00853,5.3e-5 -0.01685,0 -0.025391,0 -0.2761424,0 -0.5,0.223858 -0.5,0.5 0,0.276142 0.2238576,0.5 0.5,0.5 2.761415,0 5,-2.238585 5,-5 C 13,5.2385847 10.761415,3 8,3 Z"
     sodipodi:nodetypes="scccccssssssss" />
  <path
     id="rect2630"
     style="opacity:0.3;fill:#ffffff;fill-opacity:1"
     d="M 3,1 C 1.8920011,1 1,1.8920011 1,3 V 4 C 1,2.8920011 1.8920011,2 3,2 h 10 c 1.107999,0 2,0.8920011 2,2 V 3 C 15,1.8920011 14.107999,1 13,1 Z"
     sodipodi:nodetypes="sscsscsss" />
  <path
     d="M 3,15 C 1.8920011,15 1,14.107999 1,13 v -1 c 0,1.107999 0.8920011,2 2,2 h 10 c 1.107999,0 2,-0.892001 2,-2 v 1 c 0,1.107999 -0.892001,2 -2,2 z"
     style="opacity:0.3;fill:#ffffff;fill-opacity:1"
     id="path19648" />
  <path
     id="rect899"
     style="opacity:0.5;fill:#000000;stroke:none"
     d="M 3,0 C 1.3380017,0 0,1.3380017 0,3 v 10 c 0,1.661998 1.3380017,3 3,3 h 10 c 1.661998,0 3,-1.338002 3,-3 V 3 C 16,1.3380017 14.661998,0 13,0 Z m 0,1 h 10 c 1.107999,0 2,0.8920011 2,2 v 10 c 0,1.107999 -0.892001,2 -2,2 H 3 C 1.8920011,15 1,14.107999 1,13 V 3 C 1,1.8920011 1.8920011,1 3,1 Z" />
</svg>
