<?xml version="1.0" encoding="UTF-8" standalone="no"?>
<!-- Created with Inkscape (http://www.inkscape.org/) -->

<svg
   width="16"
   height="16"
   viewBox="0 0 16 16"
   version="1.1"
   id="svg5"
   sodipodi:docname="desktop-environment-xfce.svg"
   inkscape:version="1.3.2 (091e20ef0f, 2023-11-25, custom)"
   xmlns:inkscape="http://www.inkscape.org/namespaces/inkscape"
   xmlns:sodipodi="http://sodipodi.sourceforge.net/DTD/sodipodi-0.dtd"
   xmlns:xlink="http://www.w3.org/1999/xlink"
   xmlns="http://www.w3.org/2000/svg"
   xmlns:svg="http://www.w3.org/2000/svg">
  <sodipodi:namedview
     id="namedview7"
     pagecolor="#ffffff"
     bordercolor="#666666"
     borderopacity="1.0"
     inkscape:showpageshadow="2"
     inkscape:pageopacity="0.0"
     inkscape:pagecheckerboard="0"
     inkscape:deskcolor="#d1d1d1"
     inkscape:document-units="px"
     showgrid="false"
     inkscape:zoom="50.5"
     inkscape:cx="8"
     inkscape:cy="8"
     inkscape:window-width="1920"
     inkscape:window-height="1011"
     inkscape:window-x="0"
     inkscape:window-y="0"
     inkscape:window-maximized="1"
     inkscape:current-layer="svg5" />
  <defs
     id="defs2">
    <linearGradient
       inkscape:collect="always"
       id="linearGradient3">
      <stop
         style="stop-color:#3c7cbd;stop-opacity:1;"
         offset="0"
         id="stop2" />
      <stop
         style="stop-color:#79a8d7;stop-opacity:1;"
         offset="1"
         id="stop3" />
    </linearGradient>
    <linearGradient
       inkscape:collect="always"
       xlink:href="#linearGradient3"
       id="linearGradient19638"
       x1="13"
       y1="16"
       x2="3"
       y2="0"
       gradientUnits="userSpaceOnUse" />
  </defs>
  <rect
     style="fill:url(#linearGradient19638);fill-opacity:1.0;stroke:none"
     id="rect184"
     width="15"
     height="15"
     x="0.5"
     y="0.5"
     ry="2.5" />
  <path
     id="path2"
     style="opacity:0.2;fill:#000000"
     d="m 8,3.5 a 5,5 0 0 0 -5,5 5,5 0 0 0 5,5 5,5 0 0 0 5,-5 5,5 0 0 0 -5,-5 z M 7.15625,5.28125 c 0.0391,-0.002 0.08,-0.00114 0.125,0.00586 0.0751,0.042 0.4445857,-0.00938 0.5410156,1.0351562 0.0256,0.1758098 0.061966,0.5778396 0.072266,0.7558594 0.0201,0.1540098 1.6937759,0.091321 3.1777348,1.0625 0.173069,0.1041399 0.878358,0.78816 0.162109,1.3808594 -0.29391,0.2960097 -2.6730701,1.5269996 -2.8125,1.6249996 C 8.382675,12.268153 9.7021683,12.49194 8,12.5 5.7906922,12.5 4,10.709318 4,8.5 4.1427699,8.3944401 4.5865502,8.4838593 4.8125,8.4433594 5.1372097,8.3669595 5.2669756,7.8079596 5.2910156,7.375 5.2902956,7.1821702 5.1520606,6.5849649 5.1503906,6.453125 c -0.01,-0.4589095 0.4290145,-0.6602756 0.5527344,-0.6347656 0.1291499,0.033 0.3960955,0.088197 0.859375,1.2226562 0.0777,0.1444199 0.070126,0.084289 0.2910156,0.1054688 C 6.6232059,6.3848451 6.5694006,5.31516 7.15625,5.28125 Z m 3.541016,1.0195312 c 0.0014,-9.999e-4 0.0037,-4.68e-5 0.0059,0.00195 0.058,0.0561 0.01078,1.1152264 -0.177734,1.3164062 -0.0107,0.0114 -0.06591,-1.0358703 0.167968,-1.3125 0.0025,-0.003 0.0025,-0.00486 0.0039,-0.00586 z m 0.765625,0.2050782 c 0.0173,0.0299 0.03623,0.057491 0.05273,0.087891 -0.11306,0.3632396 -0.619679,1.2015156 -0.630859,1.1347656 -0.0331,-0.3034897 0.401795,-1.0152764 0.578125,-1.2226562 z M 8.25,7.8535156 c -0.1593998,0 -0.2929688,0.1358546 -0.2929688,0.3027344 0,0.1668498 0.1374352,0.3125 0.296875,0.3125 0.1594399,0 0.28125,-0.1456502 0.28125,-0.3125 C 8.5351562,7.9893702 8.4094498,7.8535156 8.25,7.8535156 Z M 7.6035156,8.140625 c -0.0708,-0.004 -0.06891,0.5498195 0.1875,0.6933594 0.2650598,0.1247999 0.6537006,-0.082544 0.5878906,-0.089844 -0.5722094,-0.0635 -0.6723257,-0.3312402 -0.7597656,-0.59375 -0.005,-0.006 -0.010925,-0.00947 -0.015625,-0.00977 z m 1.5898438,1.3105469 c -0.010537,4.312e-4 -0.022003,0.00168 -0.033203,0.00195 -0.3368996,0.0114 -1.1108011,0.4863294 -1.0507812,0.5371094 0.0905,0.0766 1.2518111,-0.5067694 1.1132812,-0.5371094 -0.00915,-0.002 -0.018759,-0.00238 -0.029297,-0.00195 z m 0.171875,0.3808593 c -0.00887,-4.099e-4 -0.018444,-4.68e-5 -0.027344,0.00195 -0.2672897,0.0603 -0.7846393,0.6679596 -0.7246094,0.7187496 0.0905,0.0766 0.8992737,-0.7093796 0.7773438,-0.7187496 -0.0077,-3.6e-4 -0.016516,-0.00154 -0.025391,-0.00195 z" />
  <path
     id="path2-6"
     style="opacity:1;fill:#ffffff"
     d="M 8,3 A 5,5 0 0 0 3,8 5,5 0 0 0 8,13 5,5 0 0 0 13,8 5,5 0 0 0 8,3 Z M 7.15625,4.78125 c 0.0391,-0.002 0.08,-0.00114 0.125,0.00586 0.0751,0.042 0.4445857,-0.00938 0.5410156,1.0351562 0.0256,0.1758098 0.061966,0.5778396 0.072266,0.7558594 0.0201,0.1540098 1.6937759,0.091321 3.1777344,1.0625 0.173069,0.1041399 0.878358,0.78816 0.162109,1.3808594 -0.29391,0.2960097 -2.6730697,1.527 -2.8124996,1.625 C 8.382675,11.768153 9.7021683,11.99194 8,12 5.7906922,12 4,10.209318 4,8 4.1427699,7.8944401 4.5865502,7.9838593 4.8125,7.9433594 5.1372097,7.8669595 5.2669756,7.3079596 5.2910156,6.875 5.2902956,6.6821702 5.1520606,6.0849649 5.1503906,5.953125 5.1403906,5.4942155 5.5794051,5.2928494 5.703125,5.3183594 5.8322749,5.3513594 6.0992205,5.4065564 6.5625,6.5410156 6.6402,6.6854355 6.632626,6.6253046 6.8535156,6.6464844 6.6232059,5.8848451 6.5694006,4.81516 7.15625,4.78125 Z m 3.541016,1.0195312 c 0.0014,-9.999e-4 0.0037,-4.68e-5 0.0059,0.00195 0.058,0.0561 0.01078,1.1152264 -0.177734,1.3164062 -0.0107,0.0114 -0.06591,-1.0358703 0.167968,-1.3125 0.0025,-0.003 0.0025,-0.00486 0.0039,-0.00586 z m 0.765625,0.2050782 c 0.0173,0.0299 0.03623,0.057491 0.05273,0.087891 C 11.402561,6.45699 10.895942,7.295266 10.884762,7.228516 10.851662,6.9250263 11.286557,6.2132396 11.462887,6.0058598 Z M 8.25,7.3535156 c -0.1593998,0 -0.2929688,0.1358546 -0.2929688,0.3027344 0,0.1668498 0.1374352,0.3125 0.296875,0.3125 0.1594399,0 0.28125,-0.1456502 0.28125,-0.3125 C 8.5351562,7.4893702 8.4094498,7.3535156 8.25,7.3535156 Z M 7.6035156,7.640625 c -0.0708,-0.004 -0.06891,0.5498195 0.1875,0.6933594 0.2650598,0.1247999 0.6537006,-0.082544 0.5878906,-0.089844 -0.5722094,-0.0635 -0.6723257,-0.3312402 -0.7597656,-0.59375 -0.005,-0.006 -0.010925,-0.00947 -0.015625,-0.00977 z m 1.5898438,1.3105469 c -0.010537,4.312e-4 -0.022003,0.00168 -0.033203,0.00195 -0.3368996,0.0114 -1.1108011,0.4863294 -1.0507812,0.5371094 0.0905,0.0766 1.2518111,-0.5067694 1.1132812,-0.5371094 -0.00915,-0.002 -0.018759,-0.00238 -0.029297,-0.00195 z m 0.171875,0.3808593 c -0.00887,-4.099e-4 -0.018444,-4.68e-5 -0.027344,0.00195 -0.2672897,0.0603 -0.7846393,0.6679598 -0.7246094,0.7187498 0.0905,0.0766 0.8992737,-0.7093798 0.7773438,-0.7187498 -0.0077,-3.6e-4 -0.016516,-0.00154 -0.02539,-0.00195 z" />
  <path
     id="rect2630"
     style="opacity:0.2;fill:#ffffff;fill-opacity:1"
     d="M 3,1 C 1.8920011,1 1,1.8920011 1,3 V 4 C 1,2.8920011 1.8920011,2 3,2 h 10 c 1.107999,0 2,0.8920011 2,2 V 3 C 15,1.8920011 14.107999,1 13,1 Z"
     sodipodi:nodetypes="sscsscsss" />
  <path
     d="M 3,15 C 1.8920011,15 1,14.107999 1,13 v -1 c 0,1.107999 0.8920011,2 2,2 h 10 c 1.107999,0 2,-0.892001 2,-2 v 1 c 0,1.107999 -0.892001,2 -2,2 z"
     style="opacity:0.2;fill:#ffffff;fill-opacity:1"
     id="path19648" />
  <path
     id="rect899"
     style="opacity:0.5;fill:#000000;stroke:none"
     d="M 3,0 C 1.3380017,0 0,1.3380017 0,3 v 10 c 0,1.661998 1.3380017,3 3,3 h 10 c 1.661998,0 3,-1.338002 3,-3 V 3 C 16,1.3380017 14.661998,0 13,0 Z m 0,1 h 10 c 1.107999,0 2,0.8920011 2,2 v 10 c 0,1.107999 -0.892001,2 -2,2 H 3 C 1.8920011,15 1,14.107999 1,13 V 3 C 1,1.8920011 1.8920011,1 3,1 Z" />
</svg>
