<?xml version="1.0" encoding="UTF-8" standalone="no"?>
<!-- Created with Inkscape (http://www.inkscape.org/) -->

<svg
   width="16"
   height="16"
   viewBox="0 0 16 16"
   version="1.1"
   id="svg5"
   sodipodi:docname="desktop-environment-kde.svg"
   inkscape:version="1.2 (dc2aedaf03, 2022-05-15)"
   xmlns:inkscape="http://www.inkscape.org/namespaces/inkscape"
   xmlns:sodipodi="http://sodipodi.sourceforge.net/DTD/sodipodi-0.dtd"
   xmlns:xlink="http://www.w3.org/1999/xlink"
   xmlns="http://www.w3.org/2000/svg"
   xmlns:svg="http://www.w3.org/2000/svg">
  <sodipodi:namedview
     id="namedview7"
     pagecolor="#ffffff"
     bordercolor="#666666"
     borderopacity="1.0"
     inkscape:showpageshadow="2"
     inkscape:pageopacity="0.0"
     inkscape:pagecheckerboard="0"
     inkscape:deskcolor="#d1d1d1"
     inkscape:document-units="px"
     showgrid="false"
     inkscape:zoom="18.384776"
     inkscape:cx="-14.006154"
     inkscape:cy="10.171459"
     inkscape:window-width="1920"
     inkscape:window-height="1007"
     inkscape:window-x="0"
     inkscape:window-y="0"
     inkscape:window-maximized="1"
     inkscape:current-layer="svg5" />
  <defs
     id="defs2">
    <linearGradient
       inkscape:collect="always"
       xlink:href="#linearGradient1090"
       id="linearGradient19638"
       x1="13"
       y1="16"
       x2="3"
       y2="0"
       gradientUnits="userSpaceOnUse" />
    <linearGradient
       inkscape:collect="always"
       id="linearGradient1090">
      <stop
         style="stop-color:#3daee9;stop-opacity:1;"
         offset="0"
         id="stop1086" />
      <stop
         style="stop-color:#53c5f2;stop-opacity:1;"
         offset="1"
         id="stop1088" />
    </linearGradient>
  </defs>
  <rect
     style="fill:url(#linearGradient19638);fill-opacity:1.0;stroke:none"
     id="rect184"
     width="15"
     height="15"
     x="0.5"
     y="0.5"
     ry="2.5" />
  <path
     d="M 8.21875,4 C 8.09765,4 8,4.2230003 8,4.5 v 5 c 0,0.2769999 0.09765,0.4999999 0.21875,0.4999999 h 0.5625 C 8.90245,9.9999999 9,9.7769999 9,9.5 V 7.6503906 l 0.01953,-0.023437 2.033203,2.1328123 c 0.196,0.1958 0.421813,0.2849191 0.507813,0.199219 l 0.398437,-0.3984375 c 0.086,-0.0856 -0.0032,-0.3119127 -0.199218,-0.5078125 L 9.707031,6.9003906 11.759766,4.9472656 C 11.955765,4.7513658 12.044984,4.525053 11.958984,4.4394531 L 11.560547,4.0410156 c -0.086,-0.0857 -0.311813,0.00342 -0.507813,0.1992188 L 9.019531,6.2734375 9.000001,6.2500005 v -1.75 c 0,-0.2769997 -0.09755,-0.5 -0.21875,-0.5 z M 6.9999999,5.5371094 c -0.592519,0.084789 -1.1358184,0.3196315 -1.59375,0.6621094 L 5.0253905,5.8183594 C 4.9274567,5.7204256 4.7996653,5.671875 4.6718749,5.671875 c -0.1277904,0 -0.2555818,0.04855 -0.3535156,0.1464844 -0.1958676,0.1958676 -0.1958676,0.5111636 0,0.7070312 L 4.6972655,6.9042969 C 4.354044,7.3620419 4.1201173,7.9072205 4.0351561,8.5 H 3.4999999 c -0.2769985,0 -0.5,0.2230015 -0.5,0.5 0,0.2769985 0.2230015,0.5 0.5,0.5 h 0.5371094 c 0.084853,0.592964 0.3169972,1.137591 0.6601562,1.595703 l -0.3789062,0.378906 c -0.1958678,0.195868 -0.1958676,0.511163 0,0.707032 0.1958676,0.195864 0.5111634,0.195864 0.7070312,0 l 0.3789063,-0.378907 c 0.4581123,0.34316 1.0027392,0.575303 1.5957031,0.660157 V 13 c 0,0.277 0.2230015,0.5 0.5000001,0.5 C 7.776998,13.5 8,13.277 8,13 v -0.537109 c 0.592467,-0.08494 1.138114,-0.317147 1.595703,-0.660157 l 0.378906,0.378907 c 0.195868,0.195864 0.511163,0.195864 0.707032,0 0.195864,-0.195869 0.195864,-0.511164 0,-0.707032 l -0.378907,-0.378906 c 0.196977,-0.263316 0.357323,-0.555895 0.47461,-0.86914 -0.113793,-0.01731 -0.210027,-0.04673 -0.294922,-0.08008 C 10.23462,10.049153 10.054126,9.9150109 9.884766,9.7519509 9.565841,10.765624 8.618978,11.499998 7.5,11.499998 c -1.3807064,0 -2.5000001,-1.119294 -2.5000001,-2.5 0,-1.2094473 0.8589221,-2.2175551 2,-2.4492188 z"
     style="fill:#000000;opacity:0.2"
     id="path1590" />
  <path
     id="rect820"
     style="fill:#ffffff"
     d="m 8.2382799,2.977 c -0.1210999,0 -0.21875,0.2230003 -0.21875,0.5 v 5 c 0,0.2769997 0.09765,0.5 0.21875,0.5 H 8.80078 c 0.1212,0 0.21875,-0.2230003 0.21875,-0.5 V 6.6273906 l 0.01953,-0.023437 2.033203,2.1328125 c 0.196,0.1957998 0.421813,0.2849189 0.507813,0.1992188 l 0.398438,-0.3984375 c 0.086,-0.0856 -0.0032,-0.3119127 -0.199218,-0.5078125 L 9.726561,5.8773906 11.779296,3.9242656 C 11.975295,3.7283658 12.064514,3.502053 11.978514,3.4164531 L 11.580077,3.0180156 c -0.086,-0.0857 -0.311813,0.00342 -0.507813,0.1992188 L 9.039061,5.2504375 9.019531,5.2270005 v -1.75 c 0,-0.2769997 -0.09755,-0.5 -0.21875,-0.5 z m -1.21875,1.5371094 c -0.592519,0.084789 -1.1358184,0.3196315 -1.59375,0.6621094 L 5.0449205,4.7953594 C 4.9469867,4.6974256 4.8191953,4.648875 4.6914049,4.648875 c -0.1277904,0 -0.2555818,0.04855 -0.3535156,0.1464844 -0.1958676,0.1958676 -0.1958676,0.5111636 0,0.7070312 L 4.7167955,5.8812969 C 4.373574,6.3390419 4.1396473,6.8842205 4.0546861,7.477 H 3.5195299 c -0.2769985,0 -0.5,0.2230015 -0.5,0.5 0,0.2769985 0.2230015,0.5 0.5,0.5 h 0.5371094 c 0.084853,0.592964 0.3169972,1.137591 0.6601562,1.595703 l -0.3789062,0.378906 c -0.1958678,0.195868 -0.1958676,0.511163 0,0.707032 0.1958676,0.195864 0.5111634,0.195864 0.7070312,0 l 0.3789063,-0.378907 c 0.4581123,0.34316 1.0027392,0.575303 1.5957031,0.660157 V 11.977 c 0,0.277 0.2230015,0.5 0.5,0.5 0.2769985,0 0.5,-0.223 0.5,-0.5 V 11.439891 C 8.611997,11.354951 9.157644,11.122744 9.615233,10.779734 l 0.378906,0.378907 c 0.195868,0.195864 0.511163,0.195864 0.707032,0 0.195864,-0.195869 0.195864,-0.511164 0,-0.707032 L 10.322264,10.072703 C 10.519241,9.809386 10.679587,9.516808 10.796874,9.203562 10.683081,9.186252 10.586847,9.156832 10.501952,9.123482 10.25415,9.026154 10.073656,8.8920126 9.904295,8.7289531 9.585371,9.742626 8.638508,10.477 7.5195299,10.477 c -1.3807063,0 -2.5,-1.119294 -2.5,-2.5 0,-1.2094473 0.8589221,-2.2175551 2,-2.4492188 z"
     sodipodi:nodetypes="sssssscccccccccccccsssccssssccsssccsccccssscccccccscsscc" />
  <path
     id="rect2630"
     style="opacity:0.3;fill:#ffffff;fill-opacity:1"
     d="M 3,1 C 1.8920011,1 1,1.8920011 1,3 V 4 C 1,2.8920011 1.8920011,2 3,2 h 10 c 1.107999,0 2,0.8920011 2,2 V 3 C 15,1.8920011 14.107999,1 13,1 Z"
     sodipodi:nodetypes="sscsscsss" />
  <path
     d="M 3,15 C 1.8920011,15 1,14.107999 1,13 v -1 c 0,1.107999 0.8920011,2 2,2 h 10 c 1.107999,0 2,-0.892001 2,-2 v 1 c 0,1.107999 -0.892001,2 -2,2 z"
     style="opacity:0.3;fill:#ffffff;fill-opacity:1"
     id="path19648" />
  <path
     id="rect899"
     style="opacity:0.5;fill:#000000;stroke:none"
     d="M 3,0 C 1.3380017,0 0,1.3380017 0,3 v 10 c 0,1.661998 1.3380017,3 3,3 h 10 c 1.661998,0 3,-1.338002 3,-3 V 3 C 16,1.3380017 14.661998,0 13,0 Z m 0,1 h 10 c 1.107999,0 2,0.8920011 2,2 v 10 c 0,1.107999 -0.892001,2 -2,2 H 3 C 1.8920011,15 1,14.107999 1,13 V 3 C 1,1.8920011 1.8920011,1 3,1 Z" />
</svg>
