<?xml version="1.0" encoding="UTF-8" standalone="no"?>
<!-- Created with Inkscape (http://www.inkscape.org/) -->

<svg
   width="16"
   height="16"
   viewBox="0 0 16 16"
   version="1.1"
   id="svg5"
   sodipodi:docname="devhelp.svg"
   inkscape:version="1.2.1 (9c6d41e410, 2022-07-14)"
   xmlns:inkscape="http://www.inkscape.org/namespaces/inkscape"
   xmlns:sodipodi="http://sodipodi.sourceforge.net/DTD/sodipodi-0.dtd"
   xmlns:xlink="http://www.w3.org/1999/xlink"
   xmlns="http://www.w3.org/2000/svg"
   xmlns:svg="http://www.w3.org/2000/svg">
  <sodipodi:namedview
     id="namedview7"
     pagecolor="#ffffff"
     bordercolor="#666666"
     borderopacity="1.0"
     inkscape:showpageshadow="2"
     inkscape:pageopacity="0.0"
     inkscape:pagecheckerboard="0"
     inkscape:deskcolor="#d1d1d1"
     inkscape:document-units="px"
     showgrid="false"
     inkscape:zoom="49.6875"
     inkscape:cx="8"
     inkscape:cy="8"
     inkscape:window-width="1920"
     inkscape:window-height="1007"
     inkscape:window-x="0"
     inkscape:window-y="0"
     inkscape:window-maximized="1"
     inkscape:current-layer="svg5" />
  <defs
     id="defs2">
    <linearGradient
       inkscape:collect="always"
       xlink:href="#linearGradient5312"
       id="linearGradient19638"
       x1="13"
       y1="16"
       x2="3"
       y2="0"
       gradientUnits="userSpaceOnUse" />
    <linearGradient
       inkscape:collect="always"
       id="linearGradient5312">
      <stop
         style="stop-color:#c72222;stop-opacity:1;"
         offset="0"
         id="stop5308" />
      <stop
         style="stop-color:#cf5b5b;stop-opacity:1;"
         offset="1"
         id="stop5310" />
    </linearGradient>
  </defs>
  <rect
     style="fill:url(#linearGradient19638);fill-opacity:1;stroke:none"
     id="rect184"
     width="15"
     height="15"
     x="0.5"
     y="0.5"
     ry="2.5" />
  <path
     d="M 8.0117657,6.002 C 7.5672224,6.0020044 6.5534184,6.06719 6.330125,6.2031719 6.1088775,6.337324 6.002,6.7797834 6.002,7.0664531 v 0.7519532 c 0,0.1709036 -0.075732,0.2904709 -0.2109375,0.375 C 5.6579038,8.2761033 5.2785579,8.5117676 5.002,8.5117657 v 0.9550781 c 0.5449213,1.3e-6 1,0.3535115 1,0.6953122 v 0.705078 c 0,0.314238 0.1016857,0.747058 0.3085938,0.886719 0.2089542,0.141498 1.2279482,0.207262 1.7011719,0.210938 V 11.002 C 7.7761772,10.998299 7.2490534,10.954179 7.1445781,10.876999 7.0400985,10.799819 6.9902813,10.691749 6.9902813,10.541063 V 9.9199688 C 6.9902813,9.5506028 6.4340139,9.0681565 5.9648907,9.002 V 8.962937 C 6.4340139,8.8912719 6.9902813,8.449725 6.9902813,8.0840313 V 7.4727031 c 0,-0.1506844 0.049818,-0.2508247 0.1542968,-0.3261718 0.1065245,-0.077177 0.633648,-0.1255737 0.8671876,-0.1347656 z m 1.9882813,0 v 1.0097657 c 0.233539,0.00919 0.760664,0.057589 0.867188,0.1347656 0.104482,0.075347 0.154296,0.1754874 0.154296,0.3261718 v 0.6113282 c 0,0.3656937 0.558221,0.8072406 1.027344,0.8789062 v 0.039063 c -0.469123,0.066156 -1.027344,0.5486028 -1.027344,0.9179688 v 0.6210937 c 0,0.150686 -0.04982,0.258756 -0.154296,0.335936 -0.104475,0.07719 -0.631599,0.1213 -0.867188,0.125001 v 0.962891 c 0.473224,-0.0037 1.49417,-0.06944 1.703125,-0.210938 0.206908,-0.139661 0.306641,-0.572481 0.306641,-0.886719 v -0.705078 c 0,-0.3418007 0.457032,-0.6953109 1.001953,-0.6953122 V 8.5117657 c -0.276558,1.9e-6 -0.657857,-0.2356624 -0.791016,-0.3183594 -0.1352,-0.084529 -0.210937,-0.2040964 -0.210937,-0.375 V 7.0664531 c 0,-0.2866697 -0.104925,-0.7291291 -0.326172,-0.8632812 C 11.460347,6.06719 10.444589,6.0020044 10.000047,6.002 Z"
     style="color:#000000;font-style:normal;font-variant:normal;font-weight:600;font-stretch:normal;font-size:19px;line-height:125%;font-family:'Open Sans';-inkscape-font-specification:'Open Sans Semi-Bold';text-align:start;letter-spacing:0px;word-spacing:0px;writing-mode:lr-tb;text-anchor:start;clip-rule:nonzero;display:inline;overflow:visible;visibility:visible;isolation:auto;mix-blend-mode:normal;color-interpolation:sRGB;color-interpolation-filters:linearRGB;solid-color:#000000;solid-opacity:1;fill:#000000;fill-opacity:1;fill-rule:nonzero;stroke:none;stroke-width:1;stroke-linecap:butt;stroke-linejoin:miter;stroke-miterlimit:4;stroke-dasharray:none;stroke-dashoffset:0;stroke-opacity:1;marker:none;color-rendering:auto;image-rendering:auto;shape-rendering:auto;text-rendering:auto;enable-background:accumulate;opacity:0.2"
     id="path1308" />
  <path
     d="M 8.0117657,5.002 C 7.5672224,5.0020044 6.5534184,5.06719 6.330125,5.2031719 6.1088775,5.337324 6.002,5.7797834 6.002,6.0664531 v 0.7519532 c 0,0.1709036 -0.075732,0.2904709 -0.2109375,0.375 C 5.6579038,7.2761033 5.2785579,7.5117676 5.002,7.5117657 v 0.9550781 c 0.5449213,1.3e-6 1,0.3535115 1,0.6953121 v 0.7050787 c 0,0.3142374 0.1016857,0.7470574 0.3085938,0.8867184 0.2089542,0.141498 1.2279482,0.207262 1.7011719,0.210938 V 10.002 C 7.7761772,9.9982996 7.2490534,9.9541796 7.1445781,9.8769996 7.0400985,9.7998196 6.9902813,9.6917496 6.9902813,9.5410629 V 8.9199688 C 6.9902813,8.5506028 6.4340139,8.0681565 5.9648907,8.002 V 7.962937 C 6.4340139,7.8912719 6.9902813,7.449725 6.9902813,7.0840313 V 6.4727031 c 0,-0.1506844 0.049818,-0.2508247 0.1542968,-0.3261718 0.1065245,-0.077177 0.633648,-0.1255737 0.8671876,-0.1347656 z m 1.9882813,0 v 1.0097657 c 0.233539,0.00919 0.760664,0.057589 0.867188,0.1347656 0.104482,0.075347 0.154296,0.1754874 0.154296,0.3261718 v 0.6113282 c 0,0.3656937 0.558221,0.8072406 1.027344,0.8789062 v 0.039063 c -0.469123,0.066156 -1.027344,0.5486028 -1.027344,0.9179688 v 0.6210936 c 0,0.1506867 -0.04982,0.2587567 -0.154296,0.3359367 -0.104475,0.07719 -0.631599,0.1213 -0.867188,0.1250004 v 0.962891 c 0.473224,-0.0037 1.49417,-0.06944 1.703125,-0.210938 0.206908,-0.139661 0.306641,-0.572481 0.306641,-0.8867184 V 9.1621559 c 0,-0.3418006 0.457032,-0.6953108 1.001953,-0.6953121 V 7.5117657 c -0.276558,1.9e-6 -0.657857,-0.2356624 -0.791016,-0.3183594 -0.1352,-0.084529 -0.210937,-0.2040964 -0.210937,-0.375 V 6.0664531 c 0,-0.2866697 -0.104925,-0.7291291 -0.326172,-0.8632812 C 11.460347,5.06719 10.444589,5.0020044 10.000047,5.002 Z"
     style="color:#000000;font-style:normal;font-variant:normal;font-weight:600;font-stretch:normal;font-size:19px;line-height:125%;font-family:'Open Sans';-inkscape-font-specification:'Open Sans Semi-Bold';text-align:start;letter-spacing:0px;word-spacing:0px;writing-mode:lr-tb;text-anchor:start;clip-rule:nonzero;display:inline;overflow:visible;visibility:visible;isolation:auto;mix-blend-mode:normal;color-interpolation:sRGB;color-interpolation-filters:linearRGB;solid-color:#000000;solid-opacity:1;fill:#ffffff;fill-opacity:1;fill-rule:nonzero;stroke:none;stroke-width:1;stroke-linecap:butt;stroke-linejoin:miter;stroke-miterlimit:4;stroke-dasharray:none;stroke-dashoffset:0;stroke-opacity:1;marker:none;color-rendering:auto;image-rendering:auto;shape-rendering:auto;text-rendering:auto;enable-background:accumulate"
     id="path647"
     sodipodi:nodetypes="ccsscccssccccssccssccccccssccssccccsscccsscc" />
  <path
     id="rect348"
     style="opacity:0.5;stroke-width:2;stroke-linecap:round;stroke-linejoin:round;fill:#000000"
     d="M 3 0.5 C 1.6150014 0.5 0.5 1.6150014 0.5 3 L 0.5 13 C 0.5 14.384999 1.6150014 15.5 3 15.5 L 4 15.5 L 4 0.5 L 3 0.5 z " />
  <path
     id="rect2630"
     style="opacity:0.3;fill:#ffffff;fill-opacity:1"
     d="M 3,1 C 1.8920011,1 1,1.8920011 1,3 V 4 C 1,2.8920011 1.8920011,2 3,2 h 10 c 1.107999,0 2,0.8920011 2,2 V 3 C 15,1.8920011 14.107999,1 13,1 Z"
     sodipodi:nodetypes="sscsscsss" />
  <path
     d="M 3,15 C 1.8920011,15 1,14.107999 1,13 v -1 c 0,1.107999 0.8920011,2 2,2 h 10 c 1.107999,0 2,-0.892001 2,-2 v 1 c 0,1.107999 -0.892001,2 -2,2 z"
     style="opacity:0.3;fill:#ffffff;fill-opacity:1"
     id="path19648" />
  <path
     id="rect899"
     style="opacity:0.5;fill:#000000;stroke:none"
     d="M 3,0 C 1.3380017,0 0,1.3380017 0,3 v 10 c 0,1.661998 1.3380017,3 3,3 h 10 c 1.661998,0 3,-1.338002 3,-3 V 3 C 16,1.3380017 14.661998,0 13,0 Z m 0,1 h 10 c 1.107999,0 2,0.8920011 2,2 v 10 c 0,1.107999 -0.892001,2 -2,2 H 3 C 1.8920011,15 1,14.107999 1,13 V 3 C 1,1.8920011 1.8920011,1 3,1 Z" />
</svg>
