<?xml version="1.0" encoding="UTF-8" standalone="no"?>
<!-- Created with Inkscape (http://www.inkscape.org/) -->

<svg
   width="16"
   height="16"
   viewBox="0 0 16 16"
   version="1.1"
   id="svg5"
   sodipodi:docname="discord.svg"
   inkscape:version="1.2 (dc2aedaf03, 2022-05-15)"
   xmlns:inkscape="http://www.inkscape.org/namespaces/inkscape"
   xmlns:sodipodi="http://sodipodi.sourceforge.net/DTD/sodipodi-0.dtd"
   xmlns:xlink="http://www.w3.org/1999/xlink"
   xmlns="http://www.w3.org/2000/svg"
   xmlns:svg="http://www.w3.org/2000/svg">
  <sodipodi:namedview
     id="namedview7"
     pagecolor="#ffffff"
     bordercolor="#666666"
     borderopacity="1.0"
     inkscape:showpageshadow="2"
     inkscape:pageopacity="0.0"
     inkscape:pagecheckerboard="0"
     inkscape:deskcolor="#d1d1d1"
     inkscape:document-units="px"
     showgrid="false"
     inkscape:zoom="48.5"
     inkscape:cx="7.9896907"
     inkscape:cy="8"
     inkscape:window-width="1920"
     inkscape:window-height="991"
     inkscape:window-x="0"
     inkscape:window-y="0"
     inkscape:window-maximized="1"
     inkscape:current-layer="svg5" />
  <defs
     id="defs2">
    <linearGradient
       inkscape:collect="always"
       xlink:href="#linearGradient1316"
       id="linearGradient19638"
       x1="13"
       y1="16"
       x2="3"
       y2="0"
       gradientUnits="userSpaceOnUse" />
    <linearGradient
       inkscape:collect="always"
       id="linearGradient1316">
      <stop
         style="stop-color:#5865f2;stop-opacity:1;"
         offset="0"
         id="stop1312" />
      <stop
         style="stop-color:#558af5;stop-opacity:1;"
         offset="1"
         id="stop1314" />
    </linearGradient>
  </defs>
  <rect
     style="fill:url(#linearGradient19638);fill-opacity:1.0;stroke:none"
     id="rect184"
     width="15"
     height="15"
     x="0.5"
     y="0.5"
     ry="2.5" />
  <path
     d="m 6.6332386,5.0000471 0.085691,0.1029297 c -1.5424044,0.4370088 -2.2449884,1.113954 -2.2449884,1.113954 0,0 0.188382,-0.1028905 0.505436,-0.2399952 C 5.8962456,5.5741925 6.6247025,5.4714675 6.9246139,5.437195 6.9760279,5.428605 7.0188049,5.419945 7.0702182,5.419945 7.592921,5.351393 8.1842753,5.334322 8.8012367,5.402899 9.615284,5.497158 10.48928,5.7370879 11.380445,6.2169448 c 0,0 -0.676979,-0.6426365 -2.1336903,-1.079648 L 9.3667501,5.0000606 c 0,0 1.1739429,-0.025675 2.3992899,0.8911978 0,0 1.23396,2.2194135 1.23396,4.9528906 0,-0.0085 -0.719789,1.225353 -2.613512,1.285337 0,0 -0.30862,-0.368463 -0.5656838,-0.685509 1.1225228,-0.31705 1.5511028,-1.011203 1.5511028,-1.011203 -0.351325,0.231365 -0.685512,0.394205 -0.985419,0.505607 -0.4284472,0.179942 -0.8397557,0.291405 -1.2424929,0.368525 -0.8226129,0.154242 -1.5767087,0.111264 -2.2193815,-0.0087 -0.488425,-0.09426 -0.9084022,-0.22269 -1.2597272,-0.368363 -0.1970886,-0.07712 -0.4112045,-0.171412 -0.625432,-0.291375 -0.02567,-0.01713 -0.051448,-0.02567 -0.07715,-0.04284 -0.017115,-0.0085 -0.025715,-0.01709 -0.0343,-0.01709 -0.1542385,-0.08569 -0.2398295,-0.145775 -0.2398295,-0.145775 0,0 0.411307,0.67705 1.4995571,1.002664 C 5.9306613,11.761034 5.6135114,12.138 5.6135114,12.138 3.7197885,12.078017 3,10.844117 3,10.844117 3,8.1106393 4.2339545,5.8912261 4.2339545,5.8912261 5.4678768,4.9743546 6.6332457,5.0000296 6.6332457,5.0000296 Z M 6.4019455,8.1620055 c -0.4884277,0 -0.8741322,0.4198743 -0.8741322,0.9425805 0,0.5227 0.3942705,0.94258 0.8741322,0.94258 0.4884295,0 0.8739588,-0.41988 0.8739588,-0.94258 C 7.2844472,8.5818798 6.890375,8.1620055 6.4019455,8.1620055 Z m 3.1276496,0 c -0.4884271,0 -0.8741337,0.4198743 -0.8741337,0.9425805 0,0.5227 0.3942723,0.94258 0.8741337,0.94258 0.4884219,0 0.8739589,-0.41988 0.8739589,-0.94258 0,-0.5227062 -0.394104,-0.9425805 -0.8739589,-0.9425805 z"
     style="display:inline;opacity:0.2;fill:#000000;stroke-width:0.227273;enable-background:new"
     id="path678" />
  <path
     d="m 6.6332386,4.0000897 0.085691,0.1029297 C 5.1765249,4.5400282 4.4739409,5.2169736 4.4739409,5.2169736 c 0,0 0.188382,-0.1028907 0.505436,-0.2399954 0.9168684,-0.4027431 1.6453253,-0.5054681 1.9452367,-0.5397406 0.051414,-0.00859 0.094191,-0.01725 0.1456043,-0.01725 0.5227028,-0.068553 1.1140571,-0.085623 1.7310185,-0.017047 0.8140473,0.094259 1.6880426,0.3341889 2.5792086,0.8140458 0,0 -0.676979,-0.6426365 -2.1336906,-1.0796479 L 9.3667501,4.0001033 c 0,0 1.1739429,-0.025675 2.3992899,0.8911979 0,0 1.23396,2.2194129 1.23396,4.9528908 0,-0.0085 -0.719789,1.225353 -2.613512,1.285337 0,0 -0.30862,-0.368464 -0.5656838,-0.685509 C 10.943327,10.12697 11.371907,9.432817 11.371907,9.432817 11.020582,9.664182 10.686395,9.827022 10.386488,9.938424 9.9580408,10.118365 9.5467323,10.229829 9.1439951,10.306949 8.3213822,10.46119 7.5672864,10.418213 6.9246136,10.298241 6.4361886,10.203986 6.0162114,10.075552 5.6648864,9.92988 5.4677979,9.852763 5.253682,9.758468 5.0394545,9.638505 c -0.02567,-0.01713 -0.051447,-0.02568 -0.07715,-0.04284 -0.017115,-0.0085 -0.025715,-0.01709 -0.0343,-0.01709 C 4.773766,9.492885 4.688175,9.432795 4.688175,9.432795 c 0,0 0.411307,0.67705 1.4995571,1.002663 C 5.9306613,10.761077 5.6135114,11.138043 5.6135114,11.138043 3.7197885,11.078059 3,9.844162 3,9.844162 3,7.1106834 4.2339545,4.8912699 4.2339545,4.8912699 5.4678768,3.9743972 6.6332457,4.0000722 6.6332457,4.0000722 Z M 6.4019455,7.1620484 c -0.4884277,0 -0.8741322,0.4198728 -0.8741322,0.9425807 0,0.5227 0.3942705,0.9425789 0.8741322,0.9425789 0.4884295,0 0.8739588,-0.4198789 0.8739588,-0.9425789 C 7.2844472,7.5819212 6.890375,7.1620484 6.4019455,7.1620484 Z m 3.1276496,0 c -0.4884271,0 -0.8741337,0.4198728 -0.8741337,0.9425807 0,0.5227 0.3942723,0.9425789 0.8741337,0.9425789 0.4884219,0 0.8739589,-0.4198789 0.8739589,-0.9425789 0,-0.5227079 -0.394104,-0.9425807 -0.8739589,-0.9425807 z"
     style="display:inline;fill:#ffffff;stroke-width:0.227273;enable-background:new"
     id="path492"
     sodipodi:nodetypes="cccccccccccccccccccccccccccccssscssssss" />
  <path
     id="rect2630"
     style="opacity:0.3;fill:#ffffff;fill-opacity:1"
     d="M 3,1 C 1.8920011,1 1,1.8920011 1,3 V 4 C 1,2.8920011 1.8920011,2 3,2 h 10 c 1.107999,0 2,0.8920011 2,2 V 3 C 15,1.8920011 14.107999,1 13,1 Z"
     sodipodi:nodetypes="sscsscsss" />
  <path
     d="M 3,15 C 1.8920011,15 1,14.107999 1,13 v -1 c 0,1.107999 0.8920011,2 2,2 h 10 c 1.107999,0 2,-0.892001 2,-2 v 1 c 0,1.107999 -0.892001,2 -2,2 z"
     style="opacity:0.3;fill:#ffffff;fill-opacity:1"
     id="path19648" />
  <path
     id="rect899"
     style="opacity:0.5;fill:#000000;stroke:none"
     d="M 3,0 C 1.3380017,0 0,1.3380017 0,3 v 10 c 0,1.661998 1.3380017,3 3,3 h 10 c 1.661998,0 3,-1.338002 3,-3 V 3 C 16,1.3380017 14.661998,0 13,0 Z m 0,1 h 10 c 1.107999,0 2,0.8920011 2,2 v 10 c 0,1.107999 -0.892001,2 -2,2 H 3 C 1.8920011,15 1,14.107999 1,13 V 3 C 1,1.8920011 1.8920011,1 3,1 Z" />
</svg>
