<?xml version="1.0" encoding="UTF-8" standalone="no"?>
<!-- Created with Inkscape (http://www.inkscape.org/) -->

<svg
   width="16"
   height="16"
   viewBox="0 0 16 16"
   version="1.1"
   id="svg5"
   sodipodi:docname="dolphin-emu.svg"
   inkscape:version="1.2 (dc2aedaf03, 2022-05-15)"
   xmlns:inkscape="http://www.inkscape.org/namespaces/inkscape"
   xmlns:sodipodi="http://sodipodi.sourceforge.net/DTD/sodipodi-0.dtd"
   xmlns:xlink="http://www.w3.org/1999/xlink"
   xmlns="http://www.w3.org/2000/svg"
   xmlns:svg="http://www.w3.org/2000/svg">
  <sodipodi:namedview
     id="namedview7"
     pagecolor="#ffffff"
     bordercolor="#666666"
     borderopacity="1.0"
     inkscape:showpageshadow="2"
     inkscape:pageopacity="0.0"
     inkscape:pagecheckerboard="0"
     inkscape:deskcolor="#d1d1d1"
     inkscape:document-units="px"
     showgrid="false"
     inkscape:zoom="36.769553"
     inkscape:cx="8.009344"
     inkscape:cy="6.8263"
     inkscape:window-width="1920"
     inkscape:window-height="1007"
     inkscape:window-x="0"
     inkscape:window-y="0"
     inkscape:window-maximized="1"
     inkscape:current-layer="svg5" />
  <defs
     id="defs2">
    <linearGradient
       inkscape:collect="always"
       xlink:href="#linearGradient1744"
       id="linearGradient19638"
       x1="13"
       y1="16"
       x2="3"
       y2="0"
       gradientUnits="userSpaceOnUse" />
    <linearGradient
       inkscape:collect="always"
       id="linearGradient1744">
      <stop
         style="stop-color:#0096f4;stop-opacity:1;"
         offset="0"
         id="stop1740" />
      <stop
         style="stop-color:#3cbff1;stop-opacity:1;"
         offset="1"
         id="stop1742" />
    </linearGradient>
  </defs>
  <rect
     style="fill:url(#linearGradient19638);fill-opacity:1.0;stroke:none"
     id="rect184"
     width="15"
     height="15"
     x="0.5"
     y="0.5"
     ry="2.5" />
  <path
     id="rect2630"
     style="opacity:0.3;fill:#ffffff;fill-opacity:1"
     d="M 3,1 C 1.8920011,1 1,1.8920011 1,3 V 4 C 1,2.8920011 1.8920011,2 3,2 h 10 c 1.107999,0 2,0.8920011 2,2 V 3 C 15,1.8920011 14.107999,1 13,1 Z"
     sodipodi:nodetypes="sscsscsss" />
  <path
     d="M 3,15 C 1.8920011,15 1,14.107999 1,13 v -1 c 0,1.107999 0.8920011,2 2,2 h 10 c 1.107999,0 2,-0.892001 2,-2 v 1 c 0,1.107999 -0.892001,2 -2,2 z"
     style="opacity:0.3;fill:#ffffff;fill-opacity:1"
     id="path19648" />
  <path
     id="rect899"
     style="opacity:0.5;fill:#000000;stroke:none"
     d="M 3,0 C 1.3380017,0 0,1.3380017 0,3 v 10 c 0,1.661998 1.3380017,3 3,3 h 10 c 1.661998,0 3,-1.338002 3,-3 V 3 C 16,1.3380017 14.661998,0 13,0 Z m 0,1 h 10 c 1.107999,0 2,0.8920011 2,2 v 10 c 0,1.107999 -0.892001,2 -2,2 H 3 C 1.8920011,15 1,14.107999 1,13 V 3 C 1,1.8920011 1.8920011,1 3,1 Z" />
  <path
     id="path1104"
     style="opacity:0.2;fill:#000000;stroke-width:0.374983"
     d="M 10.46875 5.9941406 C 10.385803 5.9947524 10.296248 5.9979328 10.203125 6.0039062 C 9.5039507 6.0487586 8.8772032 6.4581517 8.7597656 6.515625 C 8.3832204 6.4078379 7.9536271 6.1829026 7.4511719 6.0976562 C 5.7132615 5.8028006 4.2419685 6.2728864 3.5039062 6.7851562 C 2.5365356 7.4565811 2.5641254 8.2105061 2.484375 8.5234375 C 2.4349755 8.7172911 1.9947384 9.0766454 2 9.328125 C 2.0085971 9.6563807 2.2128906 9.7617188 2.2128906 9.7617188 C 2.3974863 9.7471474 2.6728828 9.6143672 2.9082031 9.5175781 C 3.2575029 9.3739032 3.2856197 9.2967299 4.2402344 9.1542969 C 4.6794215 9.0887669 5.1422021 9.0692942 5.4863281 9.0664062 C 5.6202421 9.3491745 5.9524348 9.9301887 6.5292969 10.208984 C 6.871602 10.366497 7.3874208 10.437448 7.6152344 10.482422 L 8.28125 10.582031 L 8.28125 10.3125 C 8.28125 10.3125 7.7209623 10.080314 7.3769531 9.7363281 C 7.2317679 9.5911543 7.2315658 9.4174714 7.1914062 9.2441406 C 7.7215191 9.3439382 8.1927075 9.4195425 9.3105469 9.8476562 C 10.340103 10.241957 11.044116 10.813796 11.044922 10.814453 L 11.044922 10.816406 L 11.046875 10.818359 L 11.046875 10.548828 L 11.044922 10.546875 C 11.035514 10.535285 10.314594 9.6412522 9.1015625 9.0429688 C 8.0990307 8.5484935 7.2752364 8.3033581 6.1347656 8.2480469 C 4.9503346 8.1906001 4.161816 8.3275286 4.0761719 8.3417969 C 4.1777326 8.1399453 4.3831878 7.8801959 4.9355469 7.6210938 C 5.7538872 7.2372182 7.0420002 7.173849 8.5195312 7.5507812 C 10.606958 8.0833061 11.318888 8.9906795 12.216797 9.9277344 C 13.171931 10.924522 13.997092 12.597671 13.998047 12.599609 L 13.998047 12.601562 L 14 12.605469 L 14 12.335938 L 13.992188 12.314453 C 13.952208 12.180636 13.704376 11.373209 13.285156 10.599609 C 12.732857 9.5804319 12.258219 8.8512594 11.466797 8.1113281 C 10.914645 7.6994811 10.353149 7.1404479 10.449219 6.8984375 C 10.697691 6.5715043 11.370558 6.3716114 11.373047 6.3710938 L 11.375 6.3710938 L 11.375 6.3691406 L 11.375 6.1015625 C 11.375 6.1015625 11.049378 5.9898585 10.46875 5.9941406 z " />
  <path
     id="path358"
     style="fill:#ffffff;stroke-width:0.374983"
     d="M 10.46875 4.9941406 C 10.385803 4.9947524 10.296248 4.9979328 10.203125 5.0039062 C 9.5039507 5.0487586 8.8772032 5.4581517 8.7597656 5.515625 C 8.3832204 5.407838 7.9536271 5.1829026 7.4511719 5.0976562 C 5.7132615 4.8028006 4.2419685 5.2728864 3.5039062 5.7851562 C 2.5365356 6.4565811 2.5641254 7.2105061 2.484375 7.5234375 C 2.4349755 7.7172911 1.9947384 8.0766454 2 8.328125 C 2.0085971 8.6563807 2.2128906 8.7617188 2.2128906 8.7617188 C 2.3974863 8.7471474 2.6728828 8.6143672 2.9082031 8.5175781 C 3.2575029 8.3739032 3.2856197 8.2967299 4.2402344 8.1542969 C 4.6794215 8.0887669 5.1422021 8.0692942 5.4863281 8.0664062 C 5.6202421 8.3491745 5.9524348 8.9301886 6.5292969 9.2089844 C 6.871602 9.366497 7.3874208 9.4374482 7.6152344 9.4824219 L 8.28125 9.5820312 L 8.28125 9.3125 C 8.28125 9.3125 7.7209623 9.0803141 7.3769531 8.7363281 C 7.2317679 8.5911536 7.2315658 8.4174714 7.1914062 8.2441406 C 7.7215191 8.3439382 8.1927075 8.4195425 9.3105469 8.8476562 C 10.340103 9.2419576 11.044116 9.8137961 11.044922 9.8144531 L 11.044922 9.8164062 L 11.046875 9.8183594 L 11.046875 9.5488281 L 11.044922 9.546875 C 11.035514 9.5352551 10.314594 8.6412522 9.1015625 8.0429688 C 8.0990307 7.5484935 7.2752364 7.3033581 6.1347656 7.2480469 C 4.9503346 7.1906001 4.161816 7.3275286 4.0761719 7.3417969 C 4.1777326 7.1399453 4.3831878 6.8801958 4.9355469 6.6210938 C 5.7538872 6.2372182 7.0420002 6.173849 8.5195312 6.5507812 C 10.606958 7.0833061 11.318888 7.9906795 12.216797 8.9277344 C 13.171931 9.9245221 13.997092 11.597671 13.998047 11.599609 L 13.998047 11.601562 L 14 11.605469 L 14 11.335938 L 13.992188 11.314453 C 13.952208 11.180636 13.704376 10.373208 13.285156 9.5996094 C 12.732857 8.5804315 12.258219 7.8512594 11.466797 7.1113281 C 10.914645 6.6994811 10.353149 6.1404479 10.449219 5.8984375 C 10.697691 5.5715043 11.370558 5.3716114 11.373047 5.3710938 L 11.375 5.3710938 L 11.375 5.3691406 L 11.375 5.1015625 C 11.375 5.1015625 11.049378 4.9898585 10.46875 4.9941406 z " />
</svg>
