<?xml version="1.0" encoding="UTF-8" standalone="no"?>
<!-- Created with Inkscape (http://www.inkscape.org/) -->

<svg
   width="16"
   height="16"
   viewBox="0 0 16 16"
   version="1.1"
   id="svg5"
   sodipodi:docname="emacs.svg"
   inkscape:version="1.2.1 (9c6d41e410, 2022-07-14)"
   xmlns:inkscape="http://www.inkscape.org/namespaces/inkscape"
   xmlns:sodipodi="http://sodipodi.sourceforge.net/DTD/sodipodi-0.dtd"
   xmlns:xlink="http://www.w3.org/1999/xlink"
   xmlns="http://www.w3.org/2000/svg"
   xmlns:svg="http://www.w3.org/2000/svg">
  <sodipodi:namedview
     id="namedview7"
     pagecolor="#ffffff"
     bordercolor="#666666"
     borderopacity="1.0"
     inkscape:showpageshadow="2"
     inkscape:pageopacity="0.0"
     inkscape:pagecheckerboard="0"
     inkscape:deskcolor="#d1d1d1"
     inkscape:document-units="px"
     showgrid="false"
     inkscape:zoom="49.375"
     inkscape:cx="8"
     inkscape:cy="8.0101266"
     inkscape:window-width="1920"
     inkscape:window-height="1009"
     inkscape:window-x="0"
     inkscape:window-y="0"
     inkscape:window-maximized="1"
     inkscape:current-layer="svg5" />
  <defs
     id="defs2">
    <linearGradient
       inkscape:collect="always"
       id="linearGradient1312">
      <stop
         style="stop-color:#9d4dcd;stop-opacity:1;"
         offset="0"
         id="stop1308" />
      <stop
         style="stop-color:#b589df;stop-opacity:1;"
         offset="1"
         id="stop1310" />
    </linearGradient>
    <linearGradient
       inkscape:collect="always"
       xlink:href="#linearGradient1312"
       id="linearGradient19638"
       x1="8"
       y1="15.5"
       x2="8"
       y2="0"
       gradientUnits="userSpaceOnUse" />
  </defs>
  <rect
     style="fill:url(#linearGradient19638);fill-opacity:1.0;stroke:none"
     id="rect184"
     width="15"
     height="15"
     x="0.5"
     y="0.5"
     ry="2.5" />
  <path
     d="m 5.4029718,12.59641 c 0,0 0.5365,0.15578 1.2506,0.24484 0.28921,0.03607 1.3896,0.16212 2.2333,0.15882 0,0 1.0275,9.5e-4 1.5947002,-0.07941 0.5935,-0.08431 0.9297,-0.1919 1.1168,-0.40662 0.0049,-0.05119 0.09032,-0.21808 -0.14038,-0.379 -0.59,-0.412 -1.352,-0.524 -2.8334002,-0.876 -1.6377,-0.412 -2.1271,-0.806 -2.3716,-1.091 -0.2319,-0.2862001 0.0435,-0.8801001 1.3631,-1.1715001 0.6681,-0.1626 3.1569002,-0.1925 3.1569002,-0.1925 -0.714,-0.5668 -2.0546002,-1.5816 -2.3285002,-1.7974 -0.24028,-0.18928 -0.6275,-0.47974 -0.6691,-0.7393 -0.05615,-0.25267 0.34157,-0.37433 0.55215,-0.38836 0.67845,-0.04679 1.6049,0.03275 2.4284002,0.19652 0.41395,0.08232 0.48662,0.07019 0.48662,0.07019 0.58955,0.02808 1.0481,-0.28074 1.0247,-0.93115 -0.0047,-0.65975 -0.6643,-1.1888 -1.3943,-1.2119 -0.6875,-0.02177 -2.3816002,0.09826 -2.3816002,0.09826 1.9746002,0.40708 2.2974002,0.51095 2.4004002,0.74865 0.061,0.14045 -0.1015,0.28 -0.6455,0.25275 -0.5925002,-0.0297 -1.8065002,-0.17315 -1.8065002,-0.17315 -1.1555,-0.1778 -1.9605,-0.34625 -2.3115,0.1123 -0.22927,0.29958 0.03276,0.66445 0.13569,0.87965 0.45855,0.80015 1.2515,1.3491 1.7546,1.7359 0.18932,0.14556 0.76735,0.46791 0.76735,0.46791 -1.7967,-0.4913 -3.2285,-0.21524 -4.1363,0.26203 -1.0434,0.61765 -0.86495,1.6599001 0.79075,2.6343001 0.97795,0.57555 1.4648,0.852 3.066,1.0486 0.9359,0.14923 1.0753,0.21029 1.0682,0.28819 -0.01004,0.10968 -1.1077,0.15124 -1.4094,0.17205 -0.7676,0.05294 -2.7528,0.06617 -2.7627,0.06617 z"
     style="fill:#000000;opacity:0.2"
     id="path667" />
  <path
     d="m 5.4029718,11.59641 c 0,0 0.5365,0.15578 1.2506,0.24484 0.28921,0.03607 1.3896,0.16212 2.2333,0.15882 0,0 1.0275,9.5e-4 1.5947002,-0.07941 0.5935,-0.08431 0.9297,-0.1919 1.1168,-0.40662 0.0049,-0.05119 0.09032,-0.21808 -0.14038,-0.379 -0.59,-0.412 -1.352,-0.524 -2.8334002,-0.876 -1.6377,-0.412 -2.1271,-0.806 -2.3716,-1.091 -0.2319,-0.2862001 0.0435,-0.8801001 1.3631,-1.1715001 0.6681,-0.1626 3.1569002,-0.1925 3.1569002,-0.1925 -0.714,-0.5668 -2.0546002,-1.5816 -2.3285002,-1.7974 -0.24028,-0.18928 -0.6275,-0.47974 -0.6691,-0.7393 -0.05615,-0.25267 0.34157,-0.37433 0.55215,-0.38836 0.67845,-0.04679 1.6049,0.03275 2.4284002,0.19652 0.41395,0.08232 0.48662,0.07019 0.48662,0.07019 0.58955,0.02808 1.0481,-0.28074 1.0247,-0.93115 -0.0047,-0.65975 -0.6643,-1.1888 -1.3943,-1.2119 -0.6875,-0.02177 -2.3816002,0.09826 -2.3816002,0.09826 1.9746002,0.40708 2.2974002,0.51095 2.4004002,0.74865 0.061,0.14045 -0.1015,0.28 -0.6455,0.25275 -0.5925002,-0.0297 -1.8065002,-0.17315 -1.8065002,-0.17315 -1.1555,-0.1778 -1.9605,-0.34625 -2.3115,0.1123 -0.22927,0.29958 0.03276,0.66445 0.13569,0.87965 0.45855,0.80015 1.2515,1.3491 1.7546,1.7359 0.18932,0.14556 0.76735,0.46791 0.76735,0.46791 -1.7967,-0.4913 -3.2285,-0.21524 -4.1363,0.26203 -1.0434,0.61765 -0.86495,1.6599001 0.79075,2.6343001 0.97795,0.57555 1.4648,0.852 3.066,1.0486 0.9359,0.14923 1.0753,0.21029 1.0682,0.28819 -0.01004,0.10968 -1.1077,0.15124 -1.4094,0.17205 -0.7676,0.05294 -2.7528,0.06617 -2.7627,0.06617 z"
     style="fill:#ffffff"
     id="path397"
     sodipodi:nodetypes="cscccccccccccccccccccccccccccccc" />
  <path
     id="rect2630"
     style="opacity:0.3;fill:#ffffff;fill-opacity:1"
     d="M 3,1 C 1.8920011,1 1,1.8920011 1,3 V 4 C 1,2.8920011 1.8920011,2 3,2 h 10 c 1.107999,0 2,0.8920011 2,2 V 3 C 15,1.8920011 14.107999,1 13,1 Z"
     sodipodi:nodetypes="sscsscsss" />
  <path
     d="M 3,15 C 1.8920011,15 1,14.107999 1,13 v -1 c 0,1.107999 0.8920011,2 2,2 h 10 c 1.107999,0 2,-0.892001 2,-2 v 1 c 0,1.107999 -0.892001,2 -2,2 z"
     style="opacity:0.3;fill:#ffffff;fill-opacity:1"
     id="path19648" />
  <path
     id="rect899"
     style="opacity:0.5;fill:#000000;stroke:none"
     d="M 3,0 C 1.3380017,0 0,1.3380017 0,3 v 10 c 0,1.661998 1.3380017,3 3,3 h 10 c 1.661998,0 3,-1.338002 3,-3 V 3 C 16,1.3380017 14.661998,0 13,0 Z m 0,1 h 10 c 1.107999,0 2,0.8920011 2,2 v 10 c 0,1.107999 -0.892001,2 -2,2 H 3 C 1.8920011,15 1,14.107999 1,13 V 3 C 1,1.8920011 1.8920011,1 3,1 Z" />
</svg>
