<?xml version="1.0" encoding="UTF-8" standalone="no"?>
<!-- Created with Inkscape (http://www.inkscape.org/) -->

<svg
   width="16"
   height="16"
   viewBox="0 0 16 16"
   version="1.1"
   id="svg5"
   sodipodi:docname="extensions.svg"
   inkscape:version="1.2.1 (9c6d41e410, 2022-07-14)"
   xmlns:inkscape="http://www.inkscape.org/namespaces/inkscape"
   xmlns:sodipodi="http://sodipodi.sourceforge.net/DTD/sodipodi-0.dtd"
   xmlns:xlink="http://www.w3.org/1999/xlink"
   xmlns="http://www.w3.org/2000/svg"
   xmlns:svg="http://www.w3.org/2000/svg">
  <sodipodi:namedview
     id="namedview7"
     pagecolor="#ffffff"
     bordercolor="#666666"
     borderopacity="1.0"
     inkscape:showpageshadow="2"
     inkscape:pageopacity="0.0"
     inkscape:pagecheckerboard="0"
     inkscape:deskcolor="#d1d1d1"
     inkscape:document-units="px"
     showgrid="false"
     inkscape:zoom="49.8125"
     inkscape:cx="7.9899624"
     inkscape:cy="8"
     inkscape:window-width="1920"
     inkscape:window-height="1009"
     inkscape:window-x="0"
     inkscape:window-y="0"
     inkscape:window-maximized="1"
     inkscape:current-layer="svg5" />
  <defs
     id="defs2">
    <linearGradient
       inkscape:collect="always"
       xlink:href="#linearGradient1270"
       id="linearGradient19638"
       x1="13"
       y1="16"
       x2="3"
       y2="0"
       gradientUnits="userSpaceOnUse" />
    <linearGradient
       inkscape:collect="always"
       id="linearGradient1270">
      <stop
         style="stop-color:#80d935;stop-opacity:1;"
         offset="0"
         id="stop1266" />
      <stop
         style="stop-color:#afd65f;stop-opacity:1;"
         offset="1"
         id="stop1268" />
    </linearGradient>
  </defs>
  <rect
     style="fill:url(#linearGradient19638);fill-opacity:1.0;stroke:none"
     id="rect184"
     width="15"
     height="15"
     x="0.5"
     y="0.5"
     ry="2.5" />
  <path
     id="rect1850"
     style="opacity:0.2;fill:#000000;stroke-width:3;stroke-linecap:round;stroke-linejoin:round"
     d="M 8,4 C 7.446002,4 7,4.4460012 7,5 V 6 H 5 C 4.4460012,6 4,6.446002 4,7 v 2 h 1 c 0.5539988,0 1,0.446002 1,1 0,0.553998 -0.4460012,1 -1,1 H 4 v 2 c 0,0.553998 0.4460012,1 1,1 h 2 v -1 c 0,-0.553998 0.446002,-1 1,-1 0.553998,0 1,0.446002 1,1 v 1 h 2 c 0.553998,0 1,-0.446002 1,-1 v -2 h 1 c 0.553998,0 1,-0.446002 1,-1 C 14,9.446002 13.553998,9 13,9 H 12 V 7 C 12,6.446002 11.553998,6 11,6 H 9 V 5 C 9,4.4460012 8.553998,4 8,4 Z"
     sodipodi:nodetypes="sscsscssscsscssscsscssscsscss" />
  <path
     d="M 8,3 C 7.446002,3 7,3.4460012 7,3.9999999 v 1 H 5 c -0.5539988,0 -1,0.446002 -1,1 V 8 H 5 C 5.5539987,8 6,8.446002 6,9 6,9.553998 5.5539987,10 5,10 H 4 v 2 c 0,0.553998 0.4460012,1 1,1 h 2 v -1 c 0,-0.553998 0.446002,-1 1,-1 0.5539979,0 1,0.446002 1,1 v 1 h 2 c 0.553998,0 1,-0.446002 1,-1 v -2 h 1 C 13.553998,10 14,9.553998 14,9 14,8.446002 13.553998,8 13,8 H 12 V 5.9999999 c 0,-0.553998 -0.446002,-1 -1,-1 H 9 v -1 C 9,3.4460012 8.5539979,3 8,3 Z"
     style="opacity:1;fill:#ffffff;stroke-width:3;stroke-linecap:round;stroke-linejoin:round"
     id="path2127" />
  <path
     id="rect2630"
     style="opacity:0.3;fill:#ffffff;fill-opacity:1"
     d="M 3,1 C 1.8920011,1 1,1.8920011 1,3 V 4 C 1,2.8920011 1.8920011,2 3,2 h 10 c 1.107999,0 2,0.8920011 2,2 V 3 C 15,1.8920011 14.107999,1 13,1 Z"
     sodipodi:nodetypes="sscsscsss" />
  <path
     d="M 3,15 C 1.8920011,15 1,14.107999 1,13 v -1 c 0,1.107999 0.8920011,2 2,2 h 10 c 1.107999,0 2,-0.892001 2,-2 v 1 c 0,1.107999 -0.892001,2 -2,2 z"
     style="opacity:0.3;fill:#ffffff;fill-opacity:1"
     id="path19648" />
  <path
     id="rect899"
     style="opacity:0.5;fill:#000000;stroke:none"
     d="M 3,0 C 1.3380017,0 0,1.3380017 0,3 v 10 c 0,1.661998 1.3380017,3 3,3 h 10 c 1.661998,0 3,-1.338002 3,-3 V 3 C 16,1.3380017 14.661998,0 13,0 Z m 0,1 h 10 c 1.107999,0 2,0.8920011 2,2 v 10 c 0,1.107999 -0.892001,2 -2,2 H 3 C 1.8920011,15 1,14.107999 1,13 V 3 C 1,1.8920011 1.8920011,1 3,1 Z" />
</svg>
