<?xml version="1.0" encoding="UTF-8" standalone="no"?>
<!-- Created with Inkscape (http://www.inkscape.org/) -->

<svg
   width="16"
   height="16"
   viewBox="0 0 16 16"
   version="1.1"
   id="svg5"
   sodipodi:docname="firewall.svg"
   inkscape:version="1.2.1 (9c6d41e410, 2022-07-14)"
   xmlns:inkscape="http://www.inkscape.org/namespaces/inkscape"
   xmlns:sodipodi="http://sodipodi.sourceforge.net/DTD/sodipodi-0.dtd"
   xmlns:xlink="http://www.w3.org/1999/xlink"
   xmlns="http://www.w3.org/2000/svg"
   xmlns:svg="http://www.w3.org/2000/svg">
  <sodipodi:namedview
     id="namedview7"
     pagecolor="#ffffff"
     bordercolor="#666666"
     borderopacity="1.0"
     inkscape:showpageshadow="2"
     inkscape:pageopacity="0.0"
     inkscape:pagecheckerboard="0"
     inkscape:deskcolor="#d1d1d1"
     inkscape:document-units="px"
     showgrid="false"
     inkscape:zoom="25.65625"
     inkscape:cx="-0.23386114"
     inkscape:cy="10.036541"
     inkscape:window-width="1920"
     inkscape:window-height="1007"
     inkscape:window-x="0"
     inkscape:window-y="0"
     inkscape:window-maximized="1"
     inkscape:current-layer="svg5" />
  <defs
     id="defs2">
    <linearGradient
       inkscape:collect="always"
       xlink:href="#linearGradient5495"
       id="linearGradient19638"
       x1="8"
       y1="16"
       x2="8"
       y2="0"
       gradientUnits="userSpaceOnUse" />
    <linearGradient
       inkscape:collect="always"
       id="linearGradient1093">
      <stop
         style="stop-color:#981b1b;stop-opacity:1;"
         offset="0"
         id="stop1089" />
      <stop
         style="stop-color:#c75349;stop-opacity:1;"
         offset="1"
         id="stop1091" />
    </linearGradient>
    <linearGradient
       inkscape:collect="always"
       xlink:href="#linearGradient1093"
       id="linearGradient8655"
       x1="16"
       y1="24"
       x2="16"
       y2="8"
       gradientUnits="userSpaceOnUse"
       gradientTransform="translate(-8,-8)" />
    <linearGradient
       inkscape:collect="always"
       id="linearGradient5495">
      <stop
         style="stop-color:#d8b99f;stop-opacity:1;"
         offset="0"
         id="stop5491" />
      <stop
         style="stop-color:#e9d1c2;stop-opacity:1;"
         offset="1"
         id="stop5493" />
    </linearGradient>
  </defs>
  <rect
     style="fill:url(#linearGradient19638);fill-opacity:1.0;stroke:none"
     id="rect184"
     width="15"
     height="15"
     x="0.5"
     y="0.5"
     ry="2.5" />
  <path
     id="rect11473"
     style="fill:url(#linearGradient8655);fill-opacity:1;stroke-width:0.5;stroke-linecap:round;stroke-linejoin:round"
     d="M 3 0.5 C 2.6437839 0.5 2.3061189 0.57389375 2 0.70703125 L 2 3 C 2 3.5539984 2.4460026 4 3 4 L 13 4 C 13.553997 4 14 3.5539984 14 3 L 14 0.70703125 C 13.693881 0.57389375 13.356216 0.5 13 0.5 L 3 0.5 z M 1 1.5019531 C 0.68762403 1.9192086 0.5 2.436357 0.5 3 L 0.5 3.8632812 C 0.7985328 3.6906629 1 3.3710084 1 3 L 1 1.5019531 z M 15 1.5019531 L 15 3 C 15 3.3710084 15.201467 3.6906629 15.5 3.8632812 L 15.5 3 C 15.5 2.436357 15.312376 1.9192086 15 1.5019531 z M 0.5 5 L 0.5 11 L 7 11 C 7.5539984 11 8 10.553997 8 10 L 8 6 C 8 5.4460026 7.5539984 5 7 5 L 0.5 5 z M 10 5 C 9.4460016 5 9 5.4460026 9 6 L 9 10 C 9 10.553997 9.4460016 11 10 11 L 15.5 11 L 15.5 5 L 10 5 z M 3 12 C 2.4460026 12 2 12.446002 2 13 L 2 15.292969 C 2.3061189 15.426106 2.6437839 15.5 3 15.5 L 13 15.5 C 13.356216 15.5 13.693881 15.426106 14 15.292969 L 14 13 C 14 12.446002 13.553997 12 13 12 L 3 12 z M 0.5 12.136719 L 0.5 13 C 0.5 13.563643 0.68762403 14.080791 1 14.498047 L 1 13 C 1 12.628992 0.7985328 12.309337 0.5 12.136719 z M 15.5 12.136719 C 15.201467 12.309337 15 12.628992 15 13 L 15 14.498047 C 15.312376 14.080791 15.5 13.563643 15.5 13 L 15.5 12.136719 z " />
  <path
     id="rect2630"
     style="opacity:0.3;fill:#ffffff;fill-opacity:1"
     d="M 3,1 C 1.8920011,1 1,1.8920011 1,3 V 4 C 1,2.8920011 1.8920011,2 3,2 h 10 c 1.107999,0 2,0.8920011 2,2 V 3 C 15,1.8920011 14.107999,1 13,1 Z"
     sodipodi:nodetypes="sscsscsss" />
  <path
     d="M 3,15 C 1.8920011,15 1,14.107999 1,13 v -1 c 0,1.107999 0.8920011,2 2,2 h 10 c 1.107999,0 2,-0.892001 2,-2 v 1 c 0,1.107999 -0.892001,2 -2,2 z"
     style="opacity:0.3;fill:#ffffff;fill-opacity:1"
     id="path19648" />
  <path
     id="rect899"
     style="opacity:0.5;fill:#000000;stroke:none"
     d="M 3,0 C 1.3380017,0 0,1.3380017 0,3 v 10 c 0,1.661998 1.3380017,3 3,3 h 10 c 1.661998,0 3,-1.338002 3,-3 V 3 C 16,1.3380017 14.661998,0 13,0 Z m 0,1 h 10 c 1.107999,0 2,0.8920011 2,2 v 10 c 0,1.107999 -0.892001,2 -2,2 H 3 C 1.8920011,15 1,14.107999 1,13 V 3 C 1,1.8920011 1.8920011,1 3,1 Z" />
</svg>
