<?xml version="1.0" encoding="UTF-8" standalone="no"?>
<!-- Created with Inkscape (http://www.inkscape.org/) -->

<svg
   width="16"
   height="16"
   viewBox="0 0 16 16"
   version="1.1"
   id="svg5"
   sodipodi:docname="firefox.svg"
   inkscape:version="1.2 (1:1.2+202206011326+fc4e4096c5)"
   xmlns:inkscape="http://www.inkscape.org/namespaces/inkscape"
   xmlns:sodipodi="http://sodipodi.sourceforge.net/DTD/sodipodi-0.dtd"
   xmlns:xlink="http://www.w3.org/1999/xlink"
   xmlns="http://www.w3.org/2000/svg"
   xmlns:svg="http://www.w3.org/2000/svg">
  <sodipodi:namedview
     id="namedview7"
     pagecolor="#ffffff"
     bordercolor="#666666"
     borderopacity="1.0"
     inkscape:showpageshadow="2"
     inkscape:pageopacity="0.0"
     inkscape:pagecheckerboard="0"
     inkscape:deskcolor="#d1d1d1"
     inkscape:document-units="px"
     showgrid="false"
     inkscape:zoom="36.769553"
     inkscape:cx="9.4643523"
     inkscape:cy="6.5543359"
     inkscape:window-width="1846"
     inkscape:window-height="1053"
     inkscape:window-x="0"
     inkscape:window-y="0"
     inkscape:window-maximized="1"
     inkscape:current-layer="svg5" />
  <defs
     id="defs2">
    <linearGradient
       inkscape:collect="always"
       id="linearGradient3523">
      <stop
         style="stop-color:#f94200;stop-opacity:1;"
         offset="0"
         id="stop3519" />
      <stop
         style="stop-color:#ffb439;stop-opacity:1;"
         offset="1"
         id="stop3521" />
    </linearGradient>
    <linearGradient
       inkscape:collect="always"
       xlink:href="#linearGradient3523"
       id="linearGradient19638"
       x1="13"
       y1="16"
       x2="3"
       y2="0"
       gradientUnits="userSpaceOnUse" />
  </defs>
  <rect
     style="fill:url(#linearGradient19638);fill-opacity:1;stroke:none"
     id="rect184"
     width="15"
     height="15"
     x="0.5"
     y="0.5"
     ry="2.5" />
  <path
     d="m 6.6323567,6.9715631 c 0.00329,2e-4 0.00171,6.28e-5 0,0 z M 5.4266466,6.3687909 c 0.00329,1.373e-4 0.00179,6.51e-5 0,0 z M 12.639735,7.299501 c -0.217603,-0.523395 -0.658333,-1.0885 -1.004395,-1.267085 0.281667,0.552085 0.444687,1.1061049 0.50698,1.51948 0,7.143e-4 2.5e-4,0.00279 10e-4,0.00833 -0.566148,-1.411085 -1.526128,-1.9801486 -2.3101279,-3.2190036 -0.03959,-0.062664 -0.07927,-0.12546 -0.1179373,-0.1916671 -0.0197,-0.033807 -0.03809,-0.068357 -0.05512,-0.1035829 -0.03249,-0.06285 -0.05756,-0.12927 -0.07469,-0.1979171 2.5e-4,-0.00679 -0.0046,-0.012571 -0.01138,-0.013429 -0.0031,-10e-4 -0.0064,-10e-4 -0.0094,0 -7.14e-4,2e-4 -0.0017,10e-4 -0.0025,0.00129 -10e-4,5e-4 -0.0025,0.0015 -0.0036,0.002 5e-4,-7.857e-4 0.0017,-0.0025 0.002,-0.00279 C 8.4472928,4.4872112 7.9858349,5.628732 7.8671899,6.3553369 7.523222,6.3748869 7.1862949,6.4608569 6.875022,6.6085241 6.816386,6.6375311 6.78906,6.7060921 6.811665,6.7674841 6.835836,6.8374271 6.9149178,6.8714519 6.9823328,6.8409221 7.25391,6.7127821 7.54696,6.6362993 7.84652,6.6153793 c 0.00975,-7.858e-4 0.019528,-0.00129 0.029271,-0.002 0.04115,-0.0025 0.08236,-0.00393 0.123585,-0.00443 0.2430708,-0.00171 0.4851028,0.031829 0.7185628,0.09952 0.01363,0.004 0.02698,0.00863 0.04054,0.012829 0.03877,0.01185 0.07725,0.02465 0.115398,0.038379 0.02791,0.010379 0.05564,0.021221 0.08317,0.032586 0.02238,0.00905 0.04475,0.018071 0.06679,0.027729 0.03439,0.01525 0.06843,0.031264 0.102085,0.048057 0.01548,0.00768 0.03094,0.015321 0.04619,0.023271 0.03286,0.01725 0.06533,0.035214 0.09739,0.053893 0.0207,0.012 0.04119,0.02435 0.0615,0.037 0.362677,0.2243728 0.6636303,0.5357 0.8755852,0.9057728 C 9.9392321,7.7001733 9.4605438,7.5146933 8.9993568,7.5949019 10.800212,8.4951933 10.316732,11.595468 7.8213333,11.478406 c -0.2222222,-0.0091 -0.4418272,-0.05141 -0.65148,-0.125645 -0.049586,-0.01863 -0.09863,-0.03868 -0.1470622,-0.06013 -0.02825,-0.01287 -0.056479,-0.02589 -0.084395,-0.04031 -0.611438,-0.316 -1.1163151,-0.913189 -1.1793979,-1.6383983 0,0 0.231105,-0.8611454 1.6548551,-0.8611454 0.1539178,0 0.5939185,-0.42946 0.6020855,-0.554023 C 8.0141858,8.1580713 7.1426274,7.8114653 6.8029196,7.4767566 6.6213774,7.2979016 6.5351898,7.2116945 6.4588773,7.1469866 6.4174559,7.1120152 6.3741644,7.0793295 6.3291894,7.0490695 6.2150623,6.6498116 6.2102094,6.2272366 6.3151394,5.8254638 5.8008273,6.0596716 5.4007645,6.4298595 5.1099523,6.7567145 h -0.00221 c -0.1985,-0.251395 -0.1844778,-1.0806886 -0.173165,-1.2538357 -0.0025,-0.01075 -0.1480628,0.075625 -0.1671678,0.088625 -0.175135,0.125027 -0.33887,0.265295 -0.4892929,0.4191678 -0.1711678,0.173575 -0.3275628,0.36112 -0.4675628,0.5606879 0,2.5e-4 -1.372e-4,4.999e-4 -2e-4,7.143e-4 0,-2.5e-4 1.378e-4,-5e-4 2e-4,-7.143e-4 -0.3219422,0.4562749 -0.5502572,0.9718321 -0.67175,1.5168777 -0.00129,0.0055 -0.047707,0.209458 -0.081667,0.461395 -0.00571,0.03919 -0.0111,0.07843 -0.016029,0.11773 -0.011628,0.07575 -0.020678,0.158333 -0.029586,0.2868134 -5e-4,0.005 -7.143e-4,0.0099 -0.001,0.01483 -0.00371,0.0555 -0.00707,0.11102 -0.010021,0.166562 0,0.0085 -5e-4,0.017 -5e-4,0.02556 0,2.7647733 2.2416679,5.0060463 5.006753,5.0060463 2.4763582,0 4.5324832,-1.797668 4.9350452,-4.15896 0.0085,-0.06406 0.01525,-0.1285003 0.02275,-0.1931253 0.09952,-0.858543 -0.01105,-1.7609408 -0.32475,-2.5155666 z"
     style="display:inline;opacity:0.2;fill:#000000;stroke-width:0.0208334;enable-background:new"
     id="path4039" />
  <path
     d="m 6.6323567,5.9710681 c 0.00329,2e-4 0.00171,6.28e-5 0,0 z M 5.4266466,5.3682959 c 0.00329,1.373e-4 0.00179,6.51e-5 0,0 z M 12.639735,6.299006 c -0.217603,-0.523395 -0.658333,-1.0885 -1.004395,-1.267085 0.281667,0.552085 0.444687,1.106105 0.50698,1.51948 0,7.857e-4 2.5e-4,0.00286 10e-4,0.00833 -0.566148,-1.4110857 -1.526128,-1.980148 -2.3101279,-3.2190036 -0.03959,-0.062664 -0.07927,-0.12546 -0.1179373,-0.1916671 -0.0197,-0.033807 -0.03809,-0.068357 -0.05512,-0.1035829 -0.03249,-0.06285 -0.05756,-0.12927 -0.07469,-0.1979172 2.5e-4,-0.00679 -0.0046,-0.012571 -0.01138,-0.013429 -0.0031,-0.001 -0.0064,-0.001 -0.0094,0 -7.14e-4,2e-4 -0.0017,10e-4 -0.0025,0.00129 -10e-4,5e-4 -0.0025,0.0015 -0.0036,0.002 5e-4,-7.142e-4 0.0017,-0.0025 0.002,-0.00286 C 8.4472928,3.4866462 7.9858349,4.6281662 7.8671899,5.3547719 7.523222,5.3743219 7.1862949,5.4602919 6.875022,5.607959 6.816386,5.636966 6.78906,5.705527 6.811665,5.766919 6.835836,5.8368621 6.9149178,5.8708869 6.9823328,5.8403571 7.25391,5.712217 7.54696,5.6357341 7.84652,5.6148141 c 0.00975,-7.143e-4 0.019528,-0.00129 0.029271,-0.002 0.04115,-0.0025 0.08236,-0.004 0.123585,-0.00443 0.2430708,-0.00171 0.4851028,0.031829 0.7185628,0.09952 0.01363,0.004 0.02698,0.00862 0.04054,0.012829 0.03877,0.01185 0.07725,0.02465 0.115398,0.038379 0.02791,0.010371 0.05564,0.021221 0.08317,0.032586 0.02238,0.00905 0.04475,0.018071 0.06679,0.027729 0.03439,0.01525 0.06843,0.031264 0.102085,0.048057 0.01548,0.00768 0.03094,0.015321 0.04619,0.023279 0.03286,0.01725 0.06533,0.035214 0.09739,0.053893 0.0207,0.012 0.04119,0.02435 0.0615,0.037 C 9.6936788,6.206029 9.9946321,6.517356 10.206587,6.887429 9.9392321,6.699616 9.4605438,6.514136 8.9993568,6.5943439 10.800212,7.494636 10.316732,10.59491 7.8213333,10.477848 c -0.2222222,-0.009 -0.4418272,-0.05141 -0.65148,-0.125645 -0.049586,-0.01862 -0.09863,-0.03867 -0.1470622,-0.06012 -0.02825,-0.01288 -0.056479,-0.02589 -0.084395,-0.04031 C 6.3269581,9.9357727 5.822081,9.3385847 5.7589982,8.6133743 c 0,0 0.231105,-0.861145 1.6548551,-0.861145 0.1539178,0 0.5939185,-0.42946 0.6020855,-0.5540228 -0.0017,-0.040686 -0.8732727,-0.3872922 -1.2129805,-0.722 C 6.6213774,6.2973495 6.5351898,6.2111423 6.4588773,6.1464345 6.4174559,6.111463 6.3741644,6.0787773 6.3291894,6.0485173 6.2150623,5.6492595 6.2102094,5.2266845 6.3151394,4.8249116 5.8008273,5.0591188 5.4007645,5.4293073 5.1099523,5.7561624 h -0.00221 c -0.1985,-0.251395 -0.1844778,-1.0806885 -0.173165,-1.2538357 -0.0025,-0.01075 -0.1480628,0.075625 -0.1671678,0.088625 -0.175135,0.1250272 -0.33887,0.265295 -0.4892929,0.4191672 -0.1711678,0.1735757 -0.3275628,0.3611207 -0.4675628,0.5606885 0,2.5e-4 -1.372e-4,5e-4 -2e-4,7.858e-4 0,-2.5e-4 1.378e-4,-5e-4 2e-4,-7.858e-4 -0.3219422,0.456275 -0.5502572,0.9718322 -0.67175,1.5168772 -0.00129,0.0055 -0.047707,0.2094585 -0.081667,0.4613957 -0.00571,0.039186 -0.0111,0.07843 -0.016029,0.11773 -0.011628,0.07575 -0.020678,0.1583328 -0.029586,0.2868128 -5e-4,0.00493 -7.143e-4,0.00988 -0.001,0.014829 -0.00371,0.0555 -0.00707,0.1110192 -0.010021,0.1665612 0,0.0085 -5e-4,0.017 -5e-4,0.02556 0,2.7647737 2.2416679,5.0060457 5.006753,5.0060457 2.4763582,0 4.5324832,-1.797668 4.9350452,-4.1589603 0.0085,-0.06406 0.01525,-0.1285014 0.02275,-0.1931254 0.09952,-0.8585426 -0.01105,-1.7609403 -0.32475,-2.5155654 z"
     style="display:inline;fill:#ffffff;stroke-width:0.0208334;enable-background:new"
     id="path606"
     sodipodi:nodetypes="ccccccccccccccccccccccccccccccccccccccccscccccccccccccccccccsscccc" />
  <path
     id="rect2630"
     style="opacity:0.3;fill:#ffffff;fill-opacity:1"
     d="M 3,1 C 1.8920011,1 1,1.8920011 1,3 V 4 C 1,2.8920011 1.8920011,2 3,2 h 10 c 1.107999,0 2,0.8920011 2,2 V 3 C 15,1.8920011 14.107999,1 13,1 Z"
     sodipodi:nodetypes="sscsscsss" />
  <path
     d="M 3,15 C 1.8920011,15 1,14.107999 1,13 v -1 c 0,1.107999 0.8920011,2 2,2 h 10 c 1.107999,0 2,-0.892001 2,-2 v 1 c 0,1.107999 -0.892001,2 -2,2 z"
     style="opacity:0.3;fill:#ffffff;fill-opacity:1"
     id="path19648" />
  <path
     id="rect899"
     style="opacity:0.5;fill:#000000;stroke:none"
     d="M 3,0 C 1.3380017,0 0,1.3380017 0,3 v 10 c 0,1.661998 1.3380017,3 3,3 h 10 c 1.661998,0 3,-1.338002 3,-3 V 3 C 16,1.3380017 14.661998,0 13,0 Z m 0,1 h 10 c 1.107999,0 2,0.8920011 2,2 v 10 c 0,1.107999 -0.892001,2 -2,2 H 3 C 1.8920011,15 1,14.107999 1,13 V 3 C 1,1.8920011 1.8920011,1 3,1 Z" />
</svg>
