<?xml version="1.0" encoding="UTF-8" standalone="no"?>
<!-- Created with Inkscape (http://www.inkscape.org/) -->

<svg
   width="16"
   height="16"
   viewBox="0 0 16 16"
   version="1.1"
   id="svg5"
   sodipodi:docname="github.svg"
   inkscape:version="1.2 (dc2aedaf03, 2022-05-15)"
   xmlns:inkscape="http://www.inkscape.org/namespaces/inkscape"
   xmlns:sodipodi="http://sodipodi.sourceforge.net/DTD/sodipodi-0.dtd"
   xmlns:xlink="http://www.w3.org/1999/xlink"
   xmlns="http://www.w3.org/2000/svg"
   xmlns:svg="http://www.w3.org/2000/svg">
  <sodipodi:namedview
     id="namedview7"
     pagecolor="#ffffff"
     bordercolor="#666666"
     borderopacity="1.0"
     inkscape:showpageshadow="2"
     inkscape:pageopacity="0.0"
     inkscape:pagecheckerboard="0"
     inkscape:deskcolor="#d1d1d1"
     inkscape:document-units="px"
     showgrid="false"
     inkscape:zoom="11.313708"
     inkscape:cx="15.512156"
     inkscape:cy="18.826719"
     inkscape:window-width="1920"
     inkscape:window-height="991"
     inkscape:window-x="0"
     inkscape:window-y="0"
     inkscape:window-maximized="1"
     inkscape:current-layer="svg5" />
  <defs
     id="defs2">
    <linearGradient
       inkscape:collect="always"
       xlink:href="#4852"
       id="linearGradient19638"
       x1="13"
       y1="16"
       x2="3"
       y2="0"
       gradientUnits="userSpaceOnUse" />
    <linearGradient
       inkscape:collect="always"
       id="4852">
      <stop
         style="stop-color:#333333;stop-opacity:1"
         offset="0"
         id="stop14555" />
      <stop
         style="stop-color:#666666;stop-opacity:1"
         offset="1"
         id="stop14557" />
    </linearGradient>
  </defs>
  <rect
     style="fill:url(#linearGradient19638);fill-opacity:1.0;stroke:none"
     id="rect184"
     width="15"
     height="15"
     x="0.5"
     y="0.5"
     ry="2.5" />
  <path
     d="M 8.000003,4.000001 C 5.230007,4.000001 3,6.230008 3,9.0000046 3,11.465108 4.766721,13.500921 7.107843,13.91944 7.106743,13.513002 7.105643,13.092908 7.104343,12.867543 5.802564,13.157713 5.486387,12.312995 5.486387,12.312995 5.2734825,11.758033 4.966716,11.610218 4.966716,11.610218 c -0.4249355,-0.297821 0.03174,-0.291923 0.03174,-0.291923 0.4697545,0.03389 0.716728,0.495257 0.716728,0.495257 0.417452,0.733953 1.132658,0.433019 1.399276,0.310059 0.04252,-0.310205 0.126588,-0.558348 0.260184,-0.678363 -1.0391835,-0.12121 -2.231796,-0.533507 -2.231796,-2.3740934 0,-0.524272 0.1756585,-0.9528016 0.475028,-1.2883666 -0.048265,-0.121461 -0.2094975,-0.610537 0.04534,-1.271625 0,0 0.02455,-0.00772 0.075335,-0.010115 C 5.890868,6.493868 6.233463,6.544438 6.9038,7.010605 7.315151,6.89122 7.738362,6.8577785 8.146477,6.856796 8.5926,6.855746 9.0205441,6.897561 9.3954311,7.010605 10.065554,6.5444155 10.494311,6.493592 10.646478,6.5006995 h 3.5e-4 c 0.05072,0.0024 0.07534,0.010465 0.07534,0.010465 0.25541,0.6610875 0.09437,1.1497865 0.04638,1.2712755 0.299923,0.335562 0.445723,0.7644446 0.445723,1.2887166 0,1.8453004 -1.094255,2.2517734 -2.1365799,2.3706054 0.167784,0.148317 0.352958,0.441455 0.352958,0.88937 0,0.381038 -0.0015,0.965697 -0.0028,1.461009 C 11.497427,13.180351 13,11.273112 13,9.0000036 13,6.2300075 10.769993,4 7.999997,4 Z m 1.4278751,9.792137 c -3.5e-4,9.6e-5 0,7.01e-4 0,0.001 1e-6,-3.49e-4 -10e-7,-7e-4 0,-0.001 z"
     style="opacity:0.2;fill:#000000;stroke-width:0.178577"
     id="path676" />
  <path
     d="M 8.000003,3.000001 C 5.230007,3.000001 3,5.230008 3,8.000004 c 0,2.465104 1.766721,4.500917 4.107843,4.919436 -0.0011,-0.406438 -0.0022,-0.826532 -0.0035,-1.051897 -1.301779,0.29017 -1.617956,-0.554548 -1.617956,-0.554548 -0.2129045,-0.554962 -0.519671,-0.702776 -0.519671,-0.702776 -0.4249355,-0.297822 0.03174,-0.291923 0.03174,-0.291923 0.4697545,0.03389 0.716728,0.495256 0.716728,0.495256 0.417452,0.733953 1.132658,0.43302 1.399276,0.31006 C 7.15698,10.813406 7.241048,10.565263 7.374644,10.445249 6.3354605,10.324038 5.142848,9.9117426 5.142848,8.071154 c 0,-0.52427 0.1756585,-0.9528 0.475028,-1.2883655 -0.048265,-0.121461 -0.2094975,-0.610538 0.04534,-1.2716255 0,0 0.02455,-0.00772 0.075335,-0.010115 C 5.890868,5.493868 6.233463,5.544438 6.9038,6.0106045 7.315151,5.89122 7.738362,5.8577785 8.146477,5.856796 8.5926,5.855746 9.0205441,5.897561 9.3954311,6.0106045 10.065554,5.5444155 10.494311,5.493592 10.646478,5.5006995 h 3.5e-4 c 0.05072,0.0024 0.07534,0.010465 0.07534,0.010465 0.25541,0.661087 0.09437,1.149787 0.04638,1.271276 0.299923,0.3355625 0.445723,0.7644455 0.445723,1.2887155 0,1.8453026 -1.094255,2.251775 -2.1365799,2.370607 0.167784,0.148317 0.352958,0.441454 0.352958,0.88937 0,0.381038 -0.0015,0.965697 -0.0028,1.461008 C 11.497427,12.180351 13,10.273112 13,8.000003 13,5.230007 10.769993,3 7.999997,3 Z m 1.4278751,9.792137 c -3.5e-4,9.6e-5 0,7e-4 0,0.0011 1e-6,-3.49e-4 -10e-7,-7e-4 0,-0.0011 z"
     style="fill:#ffffff;stroke-width:0.178577"
     id="path638"
     sodipodi:nodetypes="csccccccccscsccscccccscscsccccc" />
  <path
     id="rect2630"
     style="opacity:0.3;fill:#ffffff;fill-opacity:1"
     d="M 3,1 C 1.8920011,1 1,1.8920011 1,3 V 4 C 1,2.8920011 1.8920011,2 3,2 h 10 c 1.107999,0 2,0.8920011 2,2 V 3 C 15,1.8920011 14.107999,1 13,1 Z"
     sodipodi:nodetypes="sscsscsss" />
  <path
     d="M 3,15 C 1.8920011,15 1,14.107999 1,13 v -1 c 0,1.107999 0.8920011,2 2,2 h 10 c 1.107999,0 2,-0.892001 2,-2 v 1 c 0,1.107999 -0.892001,2 -2,2 z"
     style="opacity:0.3;fill:#ffffff;fill-opacity:1"
     id="path19648" />
  <path
     id="rect899"
     style="opacity:0.5;fill:#000000;stroke:none"
     d="M 3,0 C 1.3380017,0 0,1.3380017 0,3 v 10 c 0,1.661998 1.3380017,3 3,3 h 10 c 1.661998,0 3,-1.338002 3,-3 V 3 C 16,1.3380017 14.661998,0 13,0 Z m 0,1 h 10 c 1.107999,0 2,0.8920011 2,2 v 10 c 0,1.107999 -0.892001,2 -2,2 H 3 C 1.8920011,15 1,14.107999 1,13 V 3 C 1,1.8920011 1.8920011,1 3,1 Z" />
</svg>
