<?xml version="1.0" encoding="UTF-8" standalone="no"?>
<!-- Created with Inkscape (http://www.inkscape.org/) -->

<svg
   width="16"
   height="16"
   viewBox="0 0 16 16"
   version="1.1"
   id="svg5"
   sodipodi:docname="gnome-mines.svg"
   inkscape:version="1.2.1 (9c6d41e410, 2022-07-14)"
   xmlns:inkscape="http://www.inkscape.org/namespaces/inkscape"
   xmlns:sodipodi="http://sodipodi.sourceforge.net/DTD/sodipodi-0.dtd"
   xmlns:xlink="http://www.w3.org/1999/xlink"
   xmlns="http://www.w3.org/2000/svg"
   xmlns:svg="http://www.w3.org/2000/svg">
  <sodipodi:namedview
     id="namedview7"
     pagecolor="#ffffff"
     bordercolor="#666666"
     borderopacity="1.0"
     inkscape:showpageshadow="2"
     inkscape:pageopacity="0.0"
     inkscape:pagecheckerboard="0"
     inkscape:deskcolor="#d1d1d1"
     inkscape:document-units="px"
     showgrid="false"
     inkscape:zoom="49.5"
     inkscape:cx="8.010101"
     inkscape:cy="8"
     inkscape:window-width="1920"
     inkscape:window-height="1002"
     inkscape:window-x="0"
     inkscape:window-y="0"
     inkscape:window-maximized="1"
     inkscape:current-layer="svg5" />
  <defs
     id="defs2">
    <linearGradient
       inkscape:collect="always"
       xlink:href="#linearGradient3585"
       id="linearGradient19638"
       x1="13"
       y1="16"
       x2="3"
       y2="0"
       gradientUnits="userSpaceOnUse" />
    <linearGradient
       inkscape:collect="always"
       id="linearGradient3585">
      <stop
         style="stop-color:#adb2b9;stop-opacity:1;"
         offset="0"
         id="stop3581" />
      <stop
         style="stop-color:#e6e6e6;stop-opacity:1"
         offset="1"
         id="stop3583" />
    </linearGradient>
  </defs>
  <rect
     style="fill:url(#linearGradient19638);fill-opacity:1;stroke:none"
     id="rect184"
     width="15"
     height="15"
     x="0.5"
     y="0.5"
     ry="2.5" />
  <path
     d="m 7.9806048,4.00003 c -0.3557,0 -0.58244,0.26132 -0.60546,0.60547 v 0.625 0.0781 c 0.0326,0.31495 0.30181,0.56641 0.625,0.56641 0.0808,0 0.16339,-0.0106 0.23437,-0.0391 0.2136,-0.0855 0.3662,-0.29113 0.39063,-0.52734 V 5.23047 4.62501 C 8.6251448,4.28008 8.3363148,4 7.9806048,4 Z m -1.21093,1.46485 c -0.41162,0.14571 -0.79898,0.37514 -1.13282,0.64453 0.14445,0.10441 0.26561,0.23085 0.35156,0.39062 0.002,0.004 -0.002,0.0149 0,0.0195 0.0389,0.0752 0.076,0.15063 0.0977,0.23438 0.002,0.006 -10e-4,0.0135 0,0.0195 0.0204,0.0844 0.0391,0.1828 0.0391,0.27343 0,0.0795 -0.004,0.15937 -0.0195,0.23438 -0.0151,0.075 -0.0494,0.14591 -0.0781,0.21484 -0.17197,0.4136 -0.56592,0.70313 -1.03516,0.70313 -0.22428,0 -0.41001,-0.0614 -0.58594,-0.17578 -0.0252,0.0713 -0.0625,0.13843 -0.0781,0.21484 -0.001,0.006 0.001,0.0137 0,0.0195 -0.0231,0.11601 -0.0464,0.23197 -0.0586,0.35157 -5e-4,0.007 5e-4,0.0128 0,0.0195 -0.0116,0.11995 -0.0196,0.2481 -0.0196,0.3711 0,0.006 -4e-5,0.0131 0,0.0195 -4e-5,0.006 0,0.0131 0,0.0195 10e-4,0.11625 0.008,0.23807 0.0195,0.35155 0.001,0.013 -0.001,0.0261 0,0.0391 0.0126,0.11278 0.0362,0.2225 0.0586,0.33203 0.0208,0.10805 0.0476,0.20863 0.0781,0.3125 0.23186,-0.13445 0.49636,-0.18668 0.66406,-0.19532 0.22642,-0.0116 0.43776,0.0545 0.60547,0.17579 0.16771,0.12131 0.29354,0.28147 0.37109,0.48828 0.0259,0.0682 0.0451,0.14033 0.0586,0.21485 0.0156,0.0803 0.0195,0.14901 0.0195,0.23437 0,0.31659 -0.2593,0.73344 -0.44922,0.9375 0.0769,0.0601 0.15195,0.12067 0.23437,0.17578 0.0985,0.0658 0.18817,0.13877 0.29297,0.19532 0.14878,0.0808 0.30868,0.15443 0.46876,0.21484 0.0306,0.0114 0.0645,0.0141 0.0977,0.0195 -0.009,-0.043 -0.0195,-0.0919 -0.0195,-0.13672 0,-0.4967 0.55964,-0.89844 1.25,-0.89844 0.69036,0 1.25,0.40174 1.25,0.89844 0,0.0448 -0.0108,0.0937 -0.0195,0.13672 0.18792,-0.0646 0.3743,-0.14167 0.54687,-0.23438 0.13323,-0.0703 0.2481002,-0.14911 0.3711002,-0.23437 0.0381,-0.0268 0.0801,-0.0499 0.11718,-0.0781 0.0292,-0.022 0.0497,-0.0547 0.0781,-0.0781 -0.089,-0.0693 -0.15646,-0.14002 -0.21484,-0.21485 -0.11852,-0.14818 -0.1877602,-0.30951 -0.2148402,-0.46875 -0.0139,-0.0797 -0.0195,-0.15522 -0.0195,-0.23437 0,-0.1516 0.0346,-0.30084 0.0781,-0.42969 0.002,-0.006 -0.002,-0.0139 0,-0.0195 0.0237,-0.0667 0.0439,-0.11693 0.0781,-0.17578 0.0348,-0.0583 0.0727,-0.10687 0.11718,-0.15625 0.0464,-0.0546 0.0996,-0.0935 0.15625,-0.13672 0.10522,-0.0802 0.21655,-0.14151 0.35157,-0.17578 0.0675,-0.0171 0.1412,-0.035 0.21484,-0.0391 0.17578,-0.01 0.47126,0.0609 0.70312,0.19531 0.0283,-0.098 0.0586,-0.19123 0.0781,-0.29297 0.0224,-0.10952 0.0459,-0.21925 0.0586,-0.33203 10e-4,-0.013 -0.001,-0.0261 0,-0.0391 0.0115,-0.11349 0.0184,-0.23531 0.0195,-0.35156 0,-0.14305 -0.003,-0.29131 -0.0195,-0.4297 -0.0121,-0.11958 -0.0355,-0.23555 -0.0586,-0.35155 -0.001,-0.006 10e-4,-0.0137 0,-0.0195 -0.0169,-0.0826 -0.0507,-0.15727 -0.0781,-0.23438 -0.17593,0.11446 -0.36165,0.17578 -0.58593,0.17578 -0.31283,0 -0.59578,-0.1235 -0.80078,-0.33203 -0.0512,-0.0521 -0.096,-0.11448 -0.13673,-0.17578 C 9.9484048,7.48784 9.8752348,7.26588 9.8752348,7.02723 c 0,-0.19399 0.0542,-0.37275 0.1367202,-0.52735 0.0413,-0.078 0.0798,-0.14845 0.13671,-0.21484 0.058,-0.0654 0.12309,-0.12358 0.19532,-0.17578 -0.33392,-0.27032 -0.7011702,-0.50103 -1.1132802,-0.64453 0.009,0.043 0.0195,0.0919 0.0195,0.13672 0,0.49669 -0.55965,0.89843 -1.25001,0.89843 -0.43147,0 -0.81052,-0.15166 -1.03516,-0.39062 -0.0449,-0.0478 -0.0856,-0.1025 -0.11718,-0.15625 -0.0632,-0.10751 -0.0976,-0.22739 -0.0976,-0.35156 0,-0.0448 0.0107,-0.0937 0.0195,-0.13672 z m -2.71485,0.42969 c -0.15477,0.0387 -0.29687,0.14183 -0.39063,0.29296 -0.18752,0.30227 -0.0978,0.69708 0.19532,0.87891 l 0.50781,0.3125 0.19532,0.11719 c 0.0791,0.0289 0.16471,0.0586 0.2539,0.0586 0.0957,0 0.1914,-0.0256 0.27344,-0.0586 0.082,-0.0331 0.15332,-0.0781 0.21484,-0.13672 0.12303,-0.11732 0.19532,-0.27394 0.19532,-0.44922 0,-0.18457 -0.0801,-0.37486 -0.21485,-0.48828 l -0.23438,-0.13672 -0.52734,-0.3125 c -0.14655,-0.0909 -0.31398,-0.11679 -0.46875,-0.0781 z m 7.6562602,0 c -0.0797,0.012 -0.1611,0.0327 -0.23438,0.0781 l -0.52735,0.3125 -0.23437,0.13672 c -0.007,0.006 -0.0129,0.0134 -0.0195,0.0195 -0.13483,0.11342 -0.19534,0.26465 -0.19534,0.44922 0,0.17528 0.0723,0.3319 0.19531,0.44921 0.0615,0.0587 0.1328,0.10369 0.21484,0.13672 0.082,0.0331 0.17771,0.0586 0.27344,0.0586 0.0892,0 0.17477,-0.0102 0.25391,-0.0391 l 0.19531,-0.11718 0.50782,-0.3125 c 0.29309,-0.18183 0.38283,-0.57665 0.19531,-0.87891 -0.14064,-0.22669 -0.38604,-0.32895 -0.625,-0.29297 z M 8.0001448,7.75003 c 0.69035,0 1.25,0.55964 1.25,1.25001 0,0.69035 -0.55965,1.24999 -1.25,1.24999 -0.34518,0 -0.6527,-0.14488 -0.87891,-0.37109 -0.0566,-0.0566 -0.11133,-0.10928 -0.15625,-0.17578 -0.13478,-0.1995 -0.21484,-0.44424 -0.21484,-0.70312 0,-0.0863 0.003,-0.17253 0.0195,-0.25391 0.11658,-0.56961 0.62643,-0.9961 1.2305,-0.9961 z m 0,0.625 c -0.25945,0 -0.4717,0.1663 -0.56641,0.39063 -0.0316,0.0748 -0.0586,0.14808 -0.0586,0.23438 0,0.34519 0.27908,0.625 0.625,0.625 0.34594,0 0.625,-0.27981 0.625,-0.625 0,-0.3452 -0.27906,-0.62501 -0.625,-0.62501 z m -3.1836,2.08985 c -0.14588,0.0159 -0.18415,0.0528 -0.2539,0.0781 l -0.13673,0.0781 -0.50781,0.3125 c -0.29309,0.18183 -0.38284,0.57665 -0.19531,0.8789 0.18751,0.30226 0.58581,0.3967 0.87891,0.21485 l 0.50781,-0.3125 0.17578,-0.11719 c 0.085,-0.0894 0.16411,-0.18938 0.19531,-0.3125 0.0117,-0.0394 0.0195,-0.0743 0.0195,-0.11719 0,-0.0965 -0.0206,-0.18242 -0.0586,-0.27343 -0.0323,-0.0808 -0.0803,-0.14985 -0.13671,-0.21485 -0.0611,-0.0681 -0.13339,-0.13997 -0.21484,-0.17578 -0.0815,-0.0358 -0.17832,-0.0494 -0.27345,-0.0391 z m 6.3867302,0.0391 c -0.36675,0 -0.66407,0.30054 -0.66407,0.66407 0,0.17138 0.0479,0.29625 0.15625,0.41015 l 0.19532,0.13672 0.50781,0.3125 c 0.29309,0.18185 0.69139,0.0874 0.8789,-0.21484 0.18753,-0.30226 0.0978,-0.69708 -0.19531,-0.87891 l -0.50782,-0.3125 c -0.0447,-0.0263 -0.0869,-0.0553 -0.13671,-0.0781 -0.0697,-0.0251 -0.15609,-0.0391 -0.23437,-0.0391 z m -3.2031302,1.62109 c -0.0808,0 -0.15921,0.0101 -0.23438,0.0391 -0.0752,0.0289 -0.15367,0.085 -0.21485,0.13672 -0.12234,0.10346 -0.19855,0.23315 -0.21484,0.39062 v 0.0781 0.60547 c 0,0.34492 0.28883,0.625 0.64453,0.625 0.35571,0 0.64454,-0.28008 0.64454,-0.625 v -0.60547 -0.0781 c -0.0326,-0.31494 -0.30181,-0.5664 -0.625,-0.5664 z"
     style="display:inline;fill:#000000;fill-opacity:1;stroke:none;enable-background:new;opacity:0.2"
     id="path13932" />
  <path
     d="m 7.9806048,3.00003 c -0.3557,0 -0.58244,0.26132 -0.60546,0.60547 v 0.625 0.0781 c 0.0326,0.31495 0.30181,0.56641 0.625,0.56641 0.0808,0 0.16339,-0.0106 0.23437,-0.0391 0.2136,-0.0855 0.3662,-0.29113 0.39063,-0.52734 V 4.23047 3.62501 C 8.6251448,3.28008 8.3363148,3 7.9806048,3 Z m -1.21093,1.46485 c -0.41162,0.14571 -0.79898,0.37514 -1.13282,0.64453 0.14445,0.10441 0.26561,0.23085 0.35156,0.39062 0.002,0.004 -0.002,0.0149 0,0.0195 0.0389,0.0752 0.076,0.15063 0.0977,0.23438 0.002,0.006 -10e-4,0.0135 0,0.0195 0.0204,0.0844 0.0391,0.1828 0.0391,0.27343 0,0.0795 -0.004,0.15937 -0.0195,0.23438 -0.0151,0.075 -0.0494,0.14591 -0.0781,0.21484 -0.17197,0.4136 -0.56592,0.70313 -1.03516,0.70313 -0.22428,0 -0.41001,-0.0614 -0.58594,-0.17578 -0.0252,0.0713 -0.0625,0.13843 -0.0781,0.21484 -0.001,0.006 0.001,0.0137 0,0.0195 -0.0231,0.11601 -0.0464,0.23197 -0.0586,0.35157 -5e-4,0.007 5e-4,0.0128 0,0.0195 -0.0116,0.11995 -0.0196,0.2481 -0.0196,0.3711 0,0.006 -4e-5,0.0131 0,0.0195 -4e-5,0.006 0,0.0131 0,0.0195 10e-4,0.11625 0.008,0.23807 0.0195,0.35155 0.001,0.013 -0.001,0.0261 0,0.0391 0.0126,0.11278 0.0362,0.2225 0.0586,0.33203 0.0208,0.10805 0.0476,0.20863 0.0781,0.3125 0.23186,-0.13445 0.49636,-0.18668 0.66406,-0.19532 0.22642,-0.0116 0.43776,0.0545 0.60547,0.17579 0.16771,0.12131 0.29354,0.28147 0.37109,0.48828 0.0259,0.0682 0.0451,0.14033 0.0586,0.21485 0.0156,0.0803 0.0195,0.14901 0.0195,0.23437 0,0.31659 -0.2593,0.73344 -0.44922,0.9375 0.0769,0.0601 0.15195,0.12067 0.23437,0.17578 0.0985,0.0658 0.18817,0.13877 0.29297,0.19532 0.14878,0.0808 0.30868,0.15443 0.46876,0.21484 0.0306,0.0114 0.0645,0.0141 0.0977,0.0195 -0.009,-0.043 -0.0195,-0.0919 -0.0195,-0.13672 0,-0.4967 0.55964,-0.89844 1.25,-0.89844 0.69036,0 1.25,0.40174 1.25,0.89844 0,0.0448 -0.0108,0.0937 -0.0195,0.13672 0.18792,-0.0646 0.3743,-0.14167 0.54687,-0.23438 0.13323,-0.0703 0.2481002,-0.14911 0.3711002,-0.23437 0.0381,-0.0268 0.0801,-0.0499 0.11718,-0.0781 0.0292,-0.022 0.0497,-0.0547 0.0781,-0.0781 -0.089,-0.0693 -0.15646,-0.14002 -0.21484,-0.21485 -0.11852,-0.14818 -0.1877602,-0.30951 -0.2148402,-0.46875 -0.0139,-0.0797 -0.0195,-0.15522 -0.0195,-0.23437 0,-0.1516 0.0346,-0.30084 0.0781,-0.42969 0.002,-0.006 -0.002,-0.0139 0,-0.0195 0.0237,-0.0667 0.0439,-0.11693 0.0781,-0.17578 0.0348,-0.0583 0.0727,-0.10687 0.11718,-0.15625 0.0464,-0.0546 0.0996,-0.0935 0.15625,-0.13672 0.10522,-0.0802 0.21655,-0.14151 0.35157,-0.17578 0.0675,-0.0171 0.1412,-0.035 0.21484,-0.0391 0.17578,-0.01 0.47126,0.0609 0.70312,0.19531 0.0283,-0.098 0.0586,-0.19123 0.0781,-0.29297 0.0224,-0.10952 0.0459,-0.21925 0.0586,-0.33203 10e-4,-0.013 -0.001,-0.0261 0,-0.0391 0.0115,-0.11349 0.0184,-0.23531 0.0195,-0.35156 0,-0.14305 -0.003,-0.29131 -0.0195,-0.4297 -0.0121,-0.11958 -0.0355,-0.23555 -0.0586,-0.35155 -0.001,-0.006 10e-4,-0.0137 0,-0.0195 -0.0169,-0.0826 -0.0507,-0.15727 -0.0781,-0.23438 -0.17593,0.11446 -0.36165,0.17578 -0.58593,0.17578 -0.31283,0 -0.59578,-0.1235 -0.80078,-0.33203 -0.0512,-0.0521 -0.096,-0.11448 -0.13673,-0.17578 C 9.9484048,6.48784 9.8752348,6.26588 9.8752348,6.02723 c 0,-0.19399 0.0542,-0.37275 0.1367202,-0.52735 0.0413,-0.078 0.0798,-0.14845 0.13671,-0.21484 0.058,-0.0654 0.12309,-0.12358 0.19532,-0.17578 -0.33392,-0.27032 -0.7011702,-0.50103 -1.1132802,-0.64453 0.009,0.043 0.0195,0.0919 0.0195,0.13672 0,0.49669 -0.55965,0.89843 -1.25001,0.89843 -0.43147,0 -0.81052,-0.15166 -1.03516,-0.39062 -0.0449,-0.0478 -0.0856,-0.1025 -0.11718,-0.15625 -0.0632,-0.10751 -0.0976,-0.22739 -0.0976,-0.35156 0,-0.0448 0.0107,-0.0937 0.0195,-0.13672 z m -2.71485,0.42969 c -0.15477,0.0387 -0.29687,0.14183 -0.39063,0.29296 -0.18752,0.30227 -0.0978,0.69708 0.19532,0.87891 l 0.50781,0.3125 0.19532,0.11719 c 0.0791,0.0289 0.16471,0.0586 0.2539,0.0586 0.0957,0 0.1914,-0.0256 0.27344,-0.0586 0.082,-0.0331 0.15332,-0.0781 0.21484,-0.13672 0.12303,-0.11732 0.19532,-0.27394 0.19532,-0.44922 0,-0.18457 -0.0801,-0.37486 -0.21485,-0.48828 l -0.23438,-0.13672 -0.52734,-0.3125 c -0.14655,-0.0909 -0.31398,-0.11679 -0.46875,-0.0781 z m 7.6562602,0 c -0.0797,0.012 -0.1611,0.0327 -0.23438,0.0781 l -0.52735,0.3125 -0.23437,0.13672 c -0.007,0.006 -0.0129,0.0134 -0.0195,0.0195 -0.13483,0.11342 -0.19534,0.26465 -0.19534,0.44922 0,0.17528 0.0723,0.3319 0.19531,0.44921 0.0615,0.0587 0.1328,0.10369 0.21484,0.13672 0.082,0.0331 0.17771,0.0586 0.27344,0.0586 0.0892,0 0.17477,-0.0102 0.25391,-0.0391 l 0.19531,-0.11718 0.50782,-0.3125 c 0.29309,-0.18183 0.38283,-0.57665 0.19531,-0.87891 -0.14064,-0.22669 -0.38604,-0.32895 -0.625,-0.29297 z M 8.0001448,6.75003 c 0.69035,0 1.25,0.55964 1.25,1.25001 0,0.69035 -0.55965,1.24999 -1.25,1.24999 -0.34518,0 -0.6527,-0.14488 -0.87891,-0.37109 -0.0566,-0.0566 -0.11133,-0.10928 -0.15625,-0.17578 -0.13478,-0.1995 -0.21484,-0.44424 -0.21484,-0.70312 0,-0.0863 0.003,-0.17253 0.0195,-0.25391 0.11658,-0.56961 0.62643,-0.9961 1.2305,-0.9961 z m 0,0.625 c -0.25945,0 -0.4717,0.1663 -0.56641,0.39063 -0.0316,0.0748 -0.0586,0.14808 -0.0586,0.23438 0,0.34519 0.27908,0.625 0.625,0.625 0.34594,0 0.625,-0.27981 0.625,-0.625 0,-0.3452 -0.27906,-0.62501 -0.625,-0.62501 z m -3.1836,2.08985 c -0.14588,0.0159 -0.18415,0.0528 -0.2539,0.0781 l -0.13673,0.0781 -0.50781,0.3125 c -0.29309,0.18183 -0.38284,0.57665 -0.19531,0.8789 0.18751,0.30226 0.58581,0.3967 0.87891,0.21485 l 0.50781,-0.3125 0.17578,-0.11719 c 0.085,-0.0894 0.16411,-0.18938 0.19531,-0.3125 0.0117,-0.0394 0.0195,-0.0743 0.0195,-0.11719 0,-0.0965 -0.0206,-0.18242 -0.0586,-0.27343 -0.0323,-0.0808 -0.0803,-0.14985 -0.13671,-0.21485 -0.0611,-0.0681 -0.13339,-0.13997 -0.21484,-0.17578 -0.0815,-0.0358 -0.17832,-0.0494 -0.27345,-0.0391 z m 6.3867302,0.0391 c -0.36675,0 -0.66407,0.30054 -0.66407,0.66407 0,0.17138 0.0479,0.29625 0.15625,0.41015 l 0.19532,0.13672 0.50781,0.3125 c 0.29309,0.18185 0.69139,0.0874 0.8789,-0.21484 0.18753,-0.30226 0.0978,-0.69708 -0.19531,-0.87891 l -0.50782,-0.3125 c -0.0447,-0.0263 -0.0869,-0.0553 -0.13671,-0.0781 -0.0697,-0.0251 -0.15609,-0.0391 -0.23437,-0.0391 z m -3.2031302,1.62109 c -0.0808,0 -0.15921,0.0101 -0.23438,0.0391 -0.0752,0.0289 -0.15367,0.085 -0.21485,0.13672 -0.12234,0.10346 -0.19855,0.23315 -0.21484,0.39062 v 0.0781 0.60547 c 0,0.34492 0.28883,0.625 0.64453,0.625 0.35571,0 0.64454,-0.28008 0.64454,-0.625 v -0.60547 -0.0781 c -0.0326,-0.31494 -0.30181,-0.5664 -0.625,-0.5664 z"
     style="display:inline;fill:#3d3d3d;fill-opacity:1;stroke:none;enable-background:new"
     id="path13383"
     sodipodi:nodetypes="ccccscccsccccccccsccscccccsccccccccccscccccssscccccccsccccccccccccccccsccsccccssccscccccccsccsccccccccccsccscccsccsssscscsccssscccccccccccsccccccsccccccccccccccssscccc" />
  <path
     id="rect2630"
     style="opacity:0.3;fill:#ffffff;fill-opacity:1"
     d="M 3,1 C 1.8920011,1 1,1.8920011 1,3 V 4 C 1,2.8920011 1.8920011,2 3,2 h 10 c 1.107999,0 2,0.8920011 2,2 V 3 C 15,1.8920011 14.107999,1 13,1 Z"
     sodipodi:nodetypes="sscsscsss" />
  <path
     d="M 3,15 C 1.8920011,15 1,14.107999 1,13 v -1 c 0,1.107999 0.8920011,2 2,2 h 10 c 1.107999,0 2,-0.892001 2,-2 v 1 c 0,1.107999 -0.892001,2 -2,2 z"
     style="opacity:0.3;fill:#ffffff;fill-opacity:1"
     id="path19648" />
  <path
     id="rect899"
     style="opacity:0.5;fill:#000000;stroke:none"
     d="M 3,0 C 1.3380017,0 0,1.3380017 0,3 v 10 c 0,1.661998 1.3380017,3 3,3 h 10 c 1.661998,0 3,-1.338002 3,-3 V 3 C 16,1.3380017 14.661998,0 13,0 Z m 0,1 h 10 c 1.107999,0 2,0.8920011 2,2 v 10 c 0,1.107999 -0.892001,2 -2,2 H 3 C 1.8920011,15 1,14.107999 1,13 V 3 C 1,1.8920011 1.8920011,1 3,1 Z" />
</svg>
