<?xml version="1.0" encoding="UTF-8" standalone="no"?>
<!-- Created with Inkscape (http://www.inkscape.org/) -->

<svg
   width="16"
   height="16"
   viewBox="0 0 16 16"
   version="1.1"
   id="svg5"
   sodipodi:docname="gnome-boxes.svg"
   inkscape:version="1.2.1 (9c6d41e410, 2022-07-14)"
   xmlns:inkscape="http://www.inkscape.org/namespaces/inkscape"
   xmlns:sodipodi="http://sodipodi.sourceforge.net/DTD/sodipodi-0.dtd"
   xmlns:xlink="http://www.w3.org/1999/xlink"
   xmlns="http://www.w3.org/2000/svg"
   xmlns:svg="http://www.w3.org/2000/svg">
  <sodipodi:namedview
     id="namedview7"
     pagecolor="#ffffff"
     bordercolor="#666666"
     borderopacity="1.0"
     inkscape:showpageshadow="2"
     inkscape:pageopacity="0.0"
     inkscape:pagecheckerboard="0"
     inkscape:deskcolor="#d1d1d1"
     inkscape:document-units="px"
     showgrid="false"
     inkscape:zoom="15.999999"
     inkscape:cx="13.656251"
     inkscape:cy="12.750001"
     inkscape:window-width="1920"
     inkscape:window-height="1002"
     inkscape:window-x="0"
     inkscape:window-y="0"
     inkscape:window-maximized="1"
     inkscape:current-layer="svg5" />
  <defs
     id="defs2">
    <linearGradient
       inkscape:collect="always"
       xlink:href="#4852"
       id="linearGradient19638"
       x1="13"
       y1="16"
       x2="3"
       y2="0"
       gradientUnits="userSpaceOnUse" />
    <linearGradient
       inkscape:collect="always"
       id="4852">
      <stop
         style="stop-color:#333333;stop-opacity:1"
         offset="0"
         id="stop14555" />
      <stop
         style="stop-color:#666666;stop-opacity:1"
         offset="1"
         id="stop14557" />
    </linearGradient>
  </defs>
  <rect
     style="fill:url(#linearGradient19638);fill-opacity:1.0;stroke:none"
     id="rect184"
     width="15"
     height="15"
     x="0.5"
     y="0.5"
     ry="2.5" />
  <path
     d="M 4.5,4 C 3.67157,4 3,4.67157 3,5.5 3.002,6.13419 3.40208,6.69877 4,6.91016 v 4.17968 C 3.40208,11.30123 3.00171,11.86581 3,12.5 3,13.32843 3.67157,14 4.5,14 5.13419,13.998 5.69877,13.59792 5.91016,13 h 4.17968 c 0.21139,0.59792 0.77597,0.99829 1.41016,1 0.82843,0 1.5,-0.67157 1.5,-1.5 -7e-5,-0.63562 -0.40073,-1.20219 -1,-1.41406 V 6.91016 C 12.59792,6.69877 12.99828,6.13419 13,5.5 13,4.67157 12.32843,4 11.5,4 10.86581,4.002 10.30123,4.40208 10.08984,5 H 5.91406 C 5.70219,4.40073 5.13562,4.00007 4.5,4 Z m 1.41016,2 h 4.17968 c 0.0446,0.12538 0.10569,0.24426 0.18165,0.35352 L 9.61328,7.01172 C 9.57701,7.0034 9.53887,7 9.5,7 9.223,7 9,7.223 9,7.5 H 7 C 7,7.223 6.777,7 6.5,7 6.4611,7 6.423,7.003 6.38672,7.0117 L 5.72852,6.3535 C 5.80452,6.24424 5.86556,6.12536 5.91016,5.99998 Z m -0.55664,0.72852 0.6582,0.6582 c -0.008,0.0363 -0.0117,0.0744 -0.0117,0.11328 0,0.277 0.223,0.5 0.5,0.5 v 2 c -0.277,0 -0.5,0.223 -0.5,0.5 0,0.0389 0.003,0.077 0.0117,0.11328 l -0.6543,0.6543 C 5.24694,11.19128 5.12673,11.13022 5,11.08594 V 6.91016 C 5.12537,6.86556 5.24426,6.80448 5.35352,6.72852 Z m 5.29297,0 C 10.75575,6.80452 10.87463,6.86556 11,6.91016 v 4.17968 c -0.12537,0.0446 -0.24425,0.10568 -0.35351,0.18164 l -0.65821,-0.6582 c 0.008,-0.0363 0.0117,-0.0744 0.0117,-0.11328 0,-0.277 -0.223,-0.5 -0.5,-0.5 V 8 c 0.277,0 0.5,-0.223 0.5,-0.5 0,-0.0389 -0.003,-0.077 -0.0117,-0.11328 z M 7,8 h 2 v 2 H 7 Z m 0,2.5 h 2 c 0,0.277 0.223,0.5 0.5,0.5 0.0389,0 0.077,-0.003 0.11328,-0.0117 l 0.65821,0.6582 c -0.076,0.10926 -0.13705,0.22814 -0.18165,0.35352 H 5.91406 C 5.86976,11.87329 5.80869,11.75308 5.73242,11.6426 l 0.6543,-0.6543 C 6.42302,10.9963 6.46112,11 6.5,11 6.777,11 7,10.777 7,10.5 Z"
     style="color:#000000;display:inline;overflow:visible;visibility:visible;fill:#000000;fill-opacity:1;fill-rule:nonzero;stroke:none;stroke-width:2;marker:none;enable-background:new;opacity:0.2"
     id="path794" />
  <path
     d="M 4.5,3 C 3.67157,3 3,3.67157 3,4.5 3.002,5.13419 3.40208,5.69877 4,5.91016 v 4.17968 C 3.40208,10.30123 3.00171,10.86581 3,11.5 3,12.32843 3.67157,13 4.5,13 5.13419,12.998 5.69877,12.59792 5.91016,12 h 4.17968 c 0.21139,0.59792 0.77597,0.99829 1.41016,1 0.82843,0 1.5,-0.67157 1.5,-1.5 -7e-5,-0.63562 -0.40073,-1.20219 -1,-1.41406 V 5.91016 C 12.59792,5.69877 12.99828,5.13419 13,4.5 13,3.67157 12.32843,3 11.5,3 10.86581,3.002 10.30123,3.40208 10.08984,4 H 5.91406 C 5.70219,3.40073 5.13562,3.00007 4.5,3 Z m 1.41016,2 h 4.17968 c 0.0446,0.12538 0.10569,0.24426 0.18165,0.35352 L 9.61328,6.01172 C 9.57701,6.0034 9.53887,6 9.5,6 9.223,6 9,6.223 9,6.5 H 7 C 7,6.223 6.777,6 6.5,6 6.4611,6 6.423,6.003 6.38672,6.0117 L 5.72852,5.3535 C 5.80452,5.24424 5.86556,5.12536 5.91016,4.99998 Z m -0.55664,0.72852 0.6582,0.6582 c -0.008,0.0363 -0.0117,0.0744 -0.0117,0.11328 0,0.277 0.223,0.5 0.5,0.5 v 2 c -0.277,0 -0.5,0.223 -0.5,0.5 0,0.0389 0.003,0.077 0.0117,0.11328 l -0.6543,0.6543 C 5.24694,10.19128 5.12673,10.13022 5,10.08594 V 5.91016 C 5.12537,5.86556 5.24426,5.80448 5.35352,5.72852 Z m 5.29297,0 C 10.75575,5.80452 10.87463,5.86556 11,5.91016 v 4.17968 c -0.12537,0.0446 -0.24425,0.10568 -0.35351,0.18164 L 9.98828,9.61328 c 0.008,-0.0363 0.0117,-0.0744 0.0117,-0.11328 0,-0.277 -0.223,-0.5 -0.5,-0.5 V 7 c 0.277,0 0.5,-0.223 0.5,-0.5 0,-0.0389 -0.003,-0.077 -0.0117,-0.11328 z M 7,7 H 9 V 9 H 7 Z M 7,9.5 H 9 C 9,9.777 9.223,10 9.5,10 9.5389,10 9.577,9.997 9.61328,9.9883 l 0.65821,0.6582 c -0.076,0.10926 -0.13705,0.22814 -0.18165,0.35352 H 5.91406 C 5.86976,10.87329 5.80869,10.75308 5.73242,10.6426 L 6.38672,9.9883 C 6.42302,9.9963 6.46112,10 6.5,10 6.777,10 7,9.777 7,9.5 Z"
     style="color:#000000;display:inline;overflow:visible;visibility:visible;fill:#ffffff;fill-opacity:1;fill-rule:nonzero;stroke:none;stroke-width:2;marker:none;enable-background:new"
     id="path608"
     sodipodi:nodetypes="cccccccccccccccccccccsccsccccccsccsccccccccccsccscccccccccsccccccsc" />
  <path
     id="rect2630"
     style="opacity:0.3;fill:#ffffff;fill-opacity:1"
     d="M 3,1 C 1.8920011,1 1,1.8920011 1,3 V 4 C 1,2.8920011 1.8920011,2 3,2 h 10 c 1.107999,0 2,0.8920011 2,2 V 3 C 15,1.8920011 14.107999,1 13,1 Z"
     sodipodi:nodetypes="sscsscsss" />
  <path
     d="M 3,15 C 1.8920011,15 1,14.107999 1,13 v -1 c 0,1.107999 0.8920011,2 2,2 h 10 c 1.107999,0 2,-0.892001 2,-2 v 1 c 0,1.107999 -0.892001,2 -2,2 z"
     style="opacity:0.3;fill:#ffffff;fill-opacity:1"
     id="path19648" />
  <path
     id="rect899"
     style="opacity:0.5;fill:#000000;stroke:none"
     d="M 3,0 C 1.3380017,0 0,1.3380017 0,3 v 10 c 0,1.661998 1.3380017,3 3,3 h 10 c 1.661998,0 3,-1.338002 3,-3 V 3 C 16,1.3380017 14.661998,0 13,0 Z m 0,1 h 10 c 1.107999,0 2,0.8920011 2,2 v 10 c 0,1.107999 -0.892001,2 -2,2 H 3 C 1.8920011,15 1,14.107999 1,13 V 3 C 1,1.8920011 1.8920011,1 3,1 Z" />
</svg>
