<?xml version="1.0" encoding="UTF-8" standalone="no"?>
<!-- Created with Inkscape (http://www.inkscape.org/) -->

<svg
   width="16"
   height="16"
   viewBox="0 0 16 16"
   version="1.1"
   id="svg5"
   sodipodi:docname="google-chrome-canary.svg"
   inkscape:version="1.2.1 (9c6d41e410, 2022-07-14)"
   xmlns:inkscape="http://www.inkscape.org/namespaces/inkscape"
   xmlns:sodipodi="http://sodipodi.sourceforge.net/DTD/sodipodi-0.dtd"
   xmlns="http://www.w3.org/2000/svg"
   xmlns:svg="http://www.w3.org/2000/svg">
  <sodipodi:namedview
     id="namedview7"
     pagecolor="#ffffff"
     bordercolor="#666666"
     borderopacity="1.0"
     inkscape:showpageshadow="2"
     inkscape:pageopacity="0.0"
     inkscape:pagecheckerboard="0"
     inkscape:deskcolor="#d1d1d1"
     inkscape:document-units="px"
     showgrid="false"
     inkscape:zoom="49.5"
     inkscape:cx="7.989899"
     inkscape:cy="8"
     inkscape:window-width="1920"
     inkscape:window-height="1007"
     inkscape:window-x="0"
     inkscape:window-y="0"
     inkscape:window-maximized="1"
     inkscape:current-layer="svg5" />
  <defs
     id="defs2" />
  <rect
     style="fill:#f5f5f5;fill-opacity:1;stroke:none"
     id="rect184"
     width="15"
     height="15"
     x="0.5"
     y="0.5"
     ry="2.5" />
  <ellipse
     style="opacity:0.2;fill:#000000;stroke-width:0.75;stroke-linejoin:round"
     id="path6138"
     cx="7.9999504"
     cy="8.9999952"
     rx="6"
     ry="5.9999952" />
  <g
     id="g13900"
     transform="matrix(1.3339508,0,0,1.3339508,-0.47063737,-0.470588)">
    <path
       d="m 6.3499908,1.8520833 c -1.6648002,0 -3.1172325,0.9051142 -3.8949803,2.2495046 L 2.6017322,6.7248018 4.4023011,7.4744838 6.3499908,6.3500302 V 4.1010567 H 10.244704 C 9.4668234,2.7569983 8.014591,1.8520833 6.3499908,1.8520833 Z"
       style="fill:#f29c15;fill-opacity:1;stroke-width:0.0175699"
       id="path1309" />
    <path
       d="m 1.8521097,6.3500302 c 0,2.4841174 2.013697,4.4978798 4.4978805,4.4978798 L 8.322717,9.7933342 8.2976798,7.4744838 6.3499902,6.3500302 4.4023011,7.4744838 2.4550101,4.1015879 C 2.0722656,4.7632044 1.8520833,5.5305796 1.8520833,6.3499639"
       style="fill:#f4b609;fill-opacity:1;stroke-width:0.0175699"
       id="path1449"
       sodipodi:nodetypes="cccccccc" />
    <path
       d="m 6.3500375,6.3500302 1.947689,1.1244536 -1.947689,3.3734262 c 2.4841163,0 4.4978795,-2.0137624 4.4978795,-4.4978798 0,-0.819517 -0.220254,-1.5871712 -0.603213,-2.2489735 H 6.3499908 Z"
       style="fill:#f9cb51;fill-opacity:1;stroke-width:0.0175699"
       id="path1829" />
    <path
       d="m 8.5990112,6.3500302 c 0,1.2420585 -1.0069151,2.2489734 -2.2489737,2.2489734 -1.242059,0 -2.2489739,-1.0069149 -2.2489739,-2.2489734 0,-1.2420588 1.0069149,-2.2489735 2.2489739,-2.2489735 1.2420586,0 2.2489737,1.0069147 2.2489737,2.2489735"
       style="fill:#ffffff;stroke-width:0.0175699"
       id="path2229" />
    <path
       d="m 7.849343,6.3500007 c 0,0.8280318 -0.6712745,1.4993046 -1.4993057,1.4993046 -0.8280317,0 -1.4993056,-0.6712728 -1.4993056,-1.4993046 0,-0.8280314 0.6712739,-1.4993053 1.4993056,-1.4993053 0.8280312,0 1.4993057,0.6712739 1.4993057,1.4993053"
       style="fill:#f7c332;fill-opacity:1;stroke-width:0.0144162"
       id="path2029" />
  </g>
  <path
     id="rect2630"
     style="opacity:0.3;fill:#ffffff;fill-opacity:1"
     d="M 3,1 C 1.8920011,1 1,1.8920011 1,3 V 4 C 1,2.8920011 1.8920011,2 3,2 h 10 c 1.107999,0 2,0.8920011 2,2 V 3 C 15,1.8920011 14.107999,1 13,1 Z" />
  <path
     d="m 2.9999506,14.99999 c -1.1079989,0 -2.00000004,-0.892001 -2.00000004,-2 v -1 c 0,1.107999 0.89200114,2 2.00000004,2 H 12.99995 c 1.107999,0 2,-0.892001 2,-2 v 1 c 0,1.107999 -0.892001,2 -2,2 z"
     style="opacity:0.3;fill:#ffffff;fill-opacity:1"
     id="path19648" />
  <path
     id="rect899"
     style="opacity:0.5;fill:#000000;stroke:none"
     d="M 3,0 C 1.3380017,0 0,1.3380017 0,3 v 10 c 0,1.661998 1.3380017,3 3,3 h 10 c 1.661998,0 3,-1.338002 3,-3 V 3 C 16,1.3380017 14.661998,0 13,0 Z m 0,1 h 10 c 1.107999,0 2,0.8920011 2,2 v 10 c 0,1.107999 -0.892001,2 -2,2 H 3 C 1.8920011,15 1,14.107999 1,13 V 3 C 1,1.8920011 1.8920011,1 3,1 Z" />
</svg>
