<?xml version="1.0" encoding="UTF-8" standalone="no"?>
<!-- Created with Inkscape (http://www.inkscape.org/) -->

<svg
   width="16"
   height="16"
   viewBox="0 0 16 16"
   version="1.1"
   id="svg5"
   sodipodi:docname="google-drive.svg"
   inkscape:version="1.2.1 (9c6d41e410, 2022-07-14)"
   xmlns:inkscape="http://www.inkscape.org/namespaces/inkscape"
   xmlns:sodipodi="http://sodipodi.sourceforge.net/DTD/sodipodi-0.dtd"
   xmlns="http://www.w3.org/2000/svg"
   xmlns:svg="http://www.w3.org/2000/svg">
  <sodipodi:namedview
     id="namedview7"
     pagecolor="#ffffff"
     bordercolor="#666666"
     borderopacity="1.0"
     inkscape:showpageshadow="2"
     inkscape:pageopacity="0.0"
     inkscape:pagecheckerboard="0"
     inkscape:deskcolor="#d1d1d1"
     inkscape:document-units="px"
     showgrid="false"
     inkscape:zoom="49.5"
     inkscape:cx="7.989899"
     inkscape:cy="8"
     inkscape:window-width="1920"
     inkscape:window-height="1007"
     inkscape:window-x="0"
     inkscape:window-y="0"
     inkscape:window-maximized="1"
     inkscape:current-layer="svg5" />
  <defs
     id="defs2" />
  <rect
     style="fill:#f5f5f5;fill-opacity:1;stroke:none"
     id="rect184"
     width="15"
     height="15"
     x="0.5"
     y="0.5"
     ry="2.5" />
  <path
     inkscape:connector-curvature="0"
     d="m 3.7560137,11.657501 0.4410079,0.761741 c 0.091638,0.160365 0.2233663,0.286367 0.3780072,0.378007 l 1.5750285,-2.72623 H 2.9999998 c 0,0.177551 0.04582,0.355095 0.1374584,0.515462 z"
     id="path2-0"
     style="fill:#0066da;stroke-width:0.114547" />
  <path
     inkscape:connector-curvature="0"
     d="M 8,6.863688 6.4249707,4.1374573 C 6.2703313,4.2290889 6.1386035,4.3550984 6.0469643,4.5154637 L 3.1374568,9.5555549 A 1.0378006,1.0378006 0 0 0 3.0000017,10.071019 h 3.1500575 z"
     id="path4-3"
     style="fill:#00ac47;stroke-width:0.114547" />
  <path
     inkscape:connector-curvature="0"
     d="m 11.424972,12.797249 c 0.15464,-0.09163 0.286367,-0.21764 0.378007,-0.378007 l 0.183275,-0.315005 0.876289,-1.517755 c 0.09164,-0.160365 0.137458,-0.337913 0.137458,-0.515462 H 9.8497129 l 0.6703321,1.317296 z"
     id="path6-0"
     style="fill:#ea4335;stroke-width:0.114547" />
  <path
     inkscape:connector-curvature="0"
     d="M 8,6.863688 9.5750278,4.1374573 C 9.4203884,4.0458196 9.2428402,4 9.0595645,4 H 6.9404348 C 6.7571579,4 6.5796108,4.051549 6.4249707,4.1374577 Z"
     id="path8-4"
     style="fill:#00832d;stroke-width:0.114547" />
  <path
     inkscape:connector-curvature="0"
     d="M 9.8499431,10.071019 H 6.1500573 l -1.5750285,2.72623 c 0.1546393,0.09165 0.3321864,0.137458 0.5154633,0.137458 h 5.8190149 c 0.183277,0 0.360824,-0.05155 0.515465,-0.137458 z"
     id="path10-4"
     style="fill:#2684fc;stroke-width:0.114547" />
  <path
     inkscape:connector-curvature="0"
     d="M 11.407789,7.0355099 9.9530342,4.5154637 C 9.8614019,4.3550972 9.7296672,4.229095 9.5750278,4.1374573 L 8,6.863688 9.8499431,10.071019 h 3.1443299 c 0,-0.1775497 -0.04582,-0.3550973 -0.137454,-0.5154641 z"
     id="path12"
     style="fill:#ffba00;stroke-width:0.114547" />
  <path
     id="rect2630"
     style="opacity:0.3;fill:#ffffff;fill-opacity:1"
     d="M 3,1 C 1.8920011,1 1,1.8920011 1,3 V 4 C 1,2.8920011 1.8920011,2 3,2 h 10 c 1.107999,0 2,0.8920011 2,2 V 3 C 15,1.8920011 14.107999,1 13,1 Z"
     sodipodi:nodetypes="sscsscsss" />
  <path
     d="M 3,15 C 1.8920011,15 1,14.107999 1,13 v -1 c 0,1.107999 0.8920011,2 2,2 h 10 c 1.107999,0 2,-0.892001 2,-2 v 1 c 0,1.107999 -0.892001,2 -2,2 z"
     style="opacity:0.3;fill:#ffffff;fill-opacity:1"
     id="path19648" />
  <path
     id="rect899"
     style="opacity:0.5;fill:#000000;stroke:none"
     d="M 3,0 C 1.3380017,0 0,1.3380017 0,3 v 10 c 0,1.661998 1.3380017,3 3,3 h 10 c 1.661998,0 3,-1.338002 3,-3 V 3 C 16,1.3380017 14.661998,0 13,0 Z m 0,1 h 10 c 1.107999,0 2,0.8920011 2,2 v 10 c 0,1.107999 -0.892001,2 -2,2 H 3 C 1.8920011,15 1,14.107999 1,13 V 3 C 1,1.8920011 1.8920011,1 3,1 Z" />
</svg>
