<?xml version="1.0" encoding="UTF-8" standalone="no"?>
<!-- Created with Inkscape (http://www.inkscape.org/) -->

<svg
   width="16"
   height="16"
   viewBox="0 0 16 16"
   version="1.1"
   id="svg5"
   sodipodi:docname="google-chrome.svg"
   inkscape:version="1.2.1 (9c6d41e410, 2022-07-14)"
   xmlns:inkscape="http://www.inkscape.org/namespaces/inkscape"
   xmlns:sodipodi="http://sodipodi.sourceforge.net/DTD/sodipodi-0.dtd"
   xmlns:xlink="http://www.w3.org/1999/xlink"
   xmlns="http://www.w3.org/2000/svg"
   xmlns:svg="http://www.w3.org/2000/svg">
  <sodipodi:namedview
     id="namedview7"
     pagecolor="#ffffff"
     bordercolor="#666666"
     borderopacity="1.0"
     inkscape:showpageshadow="2"
     inkscape:pageopacity="0.0"
     inkscape:pagecheckerboard="0"
     inkscape:deskcolor="#d1d1d1"
     inkscape:document-units="px"
     showgrid="false"
     inkscape:zoom="49.5"
     inkscape:cx="8.010101"
     inkscape:cy="8"
     inkscape:window-width="1920"
     inkscape:window-height="1007"
     inkscape:window-x="0"
     inkscape:window-y="0"
     inkscape:window-maximized="1"
     inkscape:current-layer="svg5" />
  <defs
     id="defs2">
    <linearGradient
       inkscape:collect="always"
       xlink:href="#linearGradient12495"
       id="linearGradient12497"
       x1="3.7041574"
       y1="5.15939"
       x2="8.9958239"
       y2="5.15939"
       gradientUnits="userSpaceOnUse"
       gradientTransform="matrix(1.3339508,0,0,1.3339508,-0.47062531,-0.47062802)" />
    <linearGradient
       inkscape:collect="always"
       id="linearGradient12495">
      <stop
         style="stop-color:#db3328;stop-opacity:1;"
         offset="0"
         id="stop12491" />
      <stop
         style="stop-color:#e53d30;stop-opacity:1"
         offset="1"
         id="stop12493" />
    </linearGradient>
    <linearGradient
       inkscape:collect="always"
       xlink:href="#linearGradient13171"
       id="linearGradient13173"
       x1="4.4023013"
       y1="4.2994838"
       x2="5.9898009"
       y2="7.474484"
       gradientUnits="userSpaceOnUse"
       gradientTransform="matrix(1.3339508,0,0,1.3339508,-0.47062531,-0.47062802)" />
    <linearGradient
       inkscape:collect="always"
       id="linearGradient13171">
      <stop
         style="stop-color:#32a651;stop-opacity:1;"
         offset="0"
         id="stop13167" />
      <stop
         style="stop-color:#279847;stop-opacity:1"
         offset="1"
         id="stop13169" />
    </linearGradient>
  </defs>
  <rect
     style="fill:#f2f2f2;fill-opacity:1;stroke:none"
     id="rect184"
     width="15"
     height="15"
     x="0.5"
     y="0.5"
     ry="2.5" />
  <ellipse
     style="opacity:0.2;fill:#000000;stroke-width:0.75;stroke-linejoin:round"
     id="path6138"
     cx="7.9999504"
     cy="8.9999952"
     rx="6"
     ry="5.9999952" />
  <g
     id="g6614">
    <path
       d="m 7.9999504,1.9999601 c -2.2207617,0 -4.1582349,1.2073779 -5.1957123,3.0007286 L 2.9999576,8.4999271 5.4018281,9.4999659 7.9999504,8.0000002 V 4.9999801 h 5.1953556 c -1.037655,-1.7929078 -2.974862,-3.00002 -5.1953556,-3.00002 z"
       style="fill:url(#linearGradient12497);fill-opacity:1;stroke-width:0.0234374"
       id="path1309" />
    <path
       d="m 1.9999981,8.0000002 c 0,3.3136918 2.6861727,5.9999518 5.9999515,5.9999518 L 10.63147,12.593199 10.598071,9.4999659 7.9999496,8.0000002 5.4018281,9.4999659 2.8042376,5.0006887 C 2.2936753,5.8832525 1.9999629,6.9068933 1.9999629,7.9999118"
       style="fill:url(#linearGradient13173);fill-opacity:1;stroke-width:0.0234374"
       id="path1449"
       sodipodi:nodetypes="cccccccc" />
    <path
       d="M 8.0000126,8.0000002 10.598134,9.4999659 8.0000126,13.999952 c 3.3136884,0 5.9999494,-2.68626 5.9999494,-5.9999518 0,-1.0931954 -0.293808,-2.1172083 -0.804656,-3.0000201 H 7.9999504 Z"
       style="fill:#fbbf12;stroke-width:0.0234374"
       id="path1829" />
    <path
       d="m 11.000032,8.0000002 c 0,1.6568447 -1.3431743,3.0000198 -3.0000194,3.0000198 -1.6568457,0 -3.0000206,-1.3431751 -3.0000206,-3.0000198 0,-1.6568454 1.343175,-3.0000201 3.0000206,-3.0000201 1.6568451,0 3.0000194,1.3431747 3.0000194,3.0000201"
       style="fill:#ffffff;stroke-width:0.0234374"
       id="path2229" />
    <path
       d="m 10.000012,8.0000006 c 0,1.1045537 -0.8954468,1.9999982 -1.9999995,1.9999982 -1.1045537,0 -2.0000001,-0.8954445 -2.0000001,-1.9999982 0,-1.1045531 0.8954464,-1.9999994 2.0000001,-1.9999994 1.1045527,0 1.9999995,0.8954463 1.9999995,1.9999994"
       style="fill:#4688f4;fill-opacity:1;stroke-width:0.0192305"
       id="path2029" />
  </g>
  <path
     id="rect2630"
     style="opacity:0.3;fill:#ffffff;fill-opacity:1"
     d="M 3,1 C 1.8920011,1 1,1.8920011 1,3 V 4 C 1,2.8920011 1.8920011,2 3,2 h 10 c 1.107999,0 2,0.8920011 2,2 V 3 C 15,1.8920011 14.107999,1 13,1 Z" />
  <path
     d="m 2.9999506,14.99999 c -1.1079989,0 -2.00000004,-0.892001 -2.00000004,-2 v -1 c 0,1.107999 0.89200114,2 2.00000004,2 H 12.99995 c 1.107999,0 2,-0.892001 2,-2 v 1 c 0,1.107999 -0.892001,2 -2,2 z"
     style="opacity:0.3;fill:#ffffff;fill-opacity:1"
     id="path19648" />
  <path
     id="rect899"
     style="opacity:0.5;fill:#000000;stroke:none"
     d="M 3,0 C 1.3380017,0 0,1.3380017 0,3 v 10 c 0,1.661998 1.3380017,3 3,3 h 10 c 1.661998,0 3,-1.338002 3,-3 V 3 C 16,1.3380017 14.661998,0 13,0 Z m 0,1 h 10 c 1.107999,0 2,0.8920011 2,2 v 10 c 0,1.107999 -0.892001,2 -2,2 H 3 C 1.8920011,15 1,14.107999 1,13 V 3 C 1,1.8920011 1.8920011,1 3,1 Z" />
</svg>
