<?xml version="1.0" encoding="UTF-8" standalone="no"?>
<!-- Created with Inkscape (http://www.inkscape.org/) -->

<svg
   width="16"
   height="16"
   viewBox="0 0 16 16"
   version="1.1"
   id="svg5"
   sodipodi:docname="gthumb.svg"
   inkscape:version="1.2.1 (9c6d41e410, 2022-07-14)"
   xmlns:inkscape="http://www.inkscape.org/namespaces/inkscape"
   xmlns:sodipodi="http://sodipodi.sourceforge.net/DTD/sodipodi-0.dtd"
   xmlns:xlink="http://www.w3.org/1999/xlink"
   xmlns="http://www.w3.org/2000/svg"
   xmlns:svg="http://www.w3.org/2000/svg">
  <sodipodi:namedview
     id="namedview7"
     pagecolor="#ffffff"
     bordercolor="#666666"
     borderopacity="1.0"
     inkscape:showpageshadow="2"
     inkscape:pageopacity="0.0"
     inkscape:pagecheckerboard="0"
     inkscape:deskcolor="#d1d1d1"
     inkscape:document-units="px"
     showgrid="false"
     inkscape:zoom="49.5"
     inkscape:cx="8"
     inkscape:cy="8"
     inkscape:window-width="1920"
     inkscape:window-height="1007"
     inkscape:window-x="0"
     inkscape:window-y="0"
     inkscape:window-maximized="1"
     inkscape:current-layer="svg5" />
  <defs
     id="defs2">
    <linearGradient
       inkscape:collect="always"
       xlink:href="#linearGradient1555"
       id="linearGradient30973"
       x1="8"
       y1="16"
       x2="8"
       y2="0"
       gradientUnits="userSpaceOnUse" />
    <linearGradient
       inkscape:collect="always"
       xlink:href="#linearGradient2287"
       id="linearGradient2289"
       x1="20"
       y1="18"
       x2="20"
       y2="5"
       gradientUnits="userSpaceOnUse"
       gradientTransform="matrix(0.75000006,0,0,0.69230768,-1.0000007,-0.4615384)" />
    <linearGradient
       inkscape:collect="always"
       id="linearGradient2287">
      <stop
         style="stop-color:#8e9529;stop-opacity:1;"
         offset="0"
         id="stop2283" />
      <stop
         style="stop-color:#bbc236;stop-opacity:1;"
         offset="1"
         id="stop2285" />
    </linearGradient>
    <linearGradient
       inkscape:collect="always"
       xlink:href="#linearGradient3796"
       id="linearGradient3798"
       x1="19"
       y1="18"
       x2="19"
       y2="5"
       gradientUnits="userSpaceOnUse"
       gradientTransform="matrix(0.71428571,0,0,0.6923077,-0.57142919,-0.4615385)" />
    <linearGradient
       inkscape:collect="always"
       id="linearGradient3796">
      <stop
         style="stop-color:#ff7010;stop-opacity:1;"
         offset="0"
         id="stop3792" />
      <stop
         style="stop-color:#ff9a10;stop-opacity:1;"
         offset="1"
         id="stop3794" />
    </linearGradient>
    <linearGradient
       inkscape:collect="always"
       id="linearGradient1555">
      <stop
         style="stop-color:#eac045;stop-opacity:1;"
         offset="0"
         id="stop1551" />
      <stop
         style="stop-color:#a2d2f9;stop-opacity:1;"
         offset="1"
         id="stop1553" />
    </linearGradient>
  </defs>
  <rect
     style="fill:url(#linearGradient30973);fill-opacity:1.0;stroke:none"
     id="rect184"
     width="15"
     height="15"
     x="0.5"
     y="0.5"
     ry="2.5" />
  <path
     d="M 5.7224051,3.5004248 C 4.2725507,3.5262299 3.0175854,4.7269459 3.7407504,7.3293709 2.4738008,7.5564257 1.5108308,8.8718988 2.2670528,11.491974 3.9523907,9.902215 4.330762,10.942585 5.6685701,10.695924 6.0031676,11.324189 6.7355787,11.971825 8.0069308,12.5 8.1911233,12.027891 8.9681833,11.318063 9.4820939,10.609864 10.949418,11.226862 11.65627,10.243017 13.105177,12.19209 14.599972,9.960811 14.028104,8.5074507 12.807069,7.9384895 13.931975,4.9580904 10.652511,3.7618179 8.2750093,4.8428133 7.6626327,3.9534682 6.6544137,3.4838356 5.7224051,3.5004248 Z m -0.092289,3.1358839 c 0.376461,0.011395 0.7219883,0.124436 1.1667998,0.1308537 1.6445822,1.263323 2.5212212,0.8976724 3.4648751,1.1127779 C 9.8207456,8.0313466 9.3958319,8.263458 9.0228448,8.5828783 8.6802951,8.4607497 8.228768,8.3624116 7.644365,8.2943668 7.1856117,8.2409483 6.7688074,8.3081921 6.4233641,8.4611956 5.7989996,7.6663032 4.8835023,7.2591855 4.0450847,7.2951585 4.741645,6.7441217 5.207332,6.623512 5.6301161,6.6363087 Z"
     style="opacity:0.2;fill:#000000;fill-rule:evenodd;stroke-width:0.720576"
     id="path833" />
  <path
     d="M 5.7224051,3.0004248 C 4.2725507,3.0262299 3.0175854,4.2269459 3.7407504,6.8293711 2.4738008,7.0564258 1.5108308,8.3718984 2.2670528,10.991974 3.9523907,9.4022142 4.330762,10.442585 5.6685701,10.195923 6.0031676,10.824189 6.7355787,11.471825 8.0069308,12 8.1911233,11.527891 8.9681833,10.818062 9.4820939,10.109863 10.949418,10.726862 11.65627,9.7430165 13.105177,11.692089 14.599972,9.4608104 14.028104,8.0074503 12.807069,7.4384897 13.931975,4.4580904 10.652511,3.2618179 8.2750093,4.3428133 7.6626327,3.4534682 6.6544137,2.9838357 5.7224051,3.0004248 Z m -0.092289,3.1358841 c 0.376461,0.011395 0.7219883,0.124436 1.1667998,0.1308537 1.6445822,1.263323 2.5212212,0.8976724 3.4648751,1.112778 C 9.8207456,7.5313468 9.3958319,7.7634582 9.0228448,8.082878 8.6802951,7.9607494 8.228768,7.8624112 7.644365,7.794367 7.1856117,7.7409485 6.7688074,7.8081924 6.4233641,7.9611952 5.7989996,7.1663034 4.8835023,6.7591857 4.0450847,6.7951586 4.741645,6.2441219 5.207332,6.1235123 5.6301161,6.1363089 Z"
     style="fill:url(#linearGradient2289);fill-opacity:1;fill-rule:evenodd;stroke-width:0.720577"
     id="path467"
     sodipodi:nodetypes="sccccccccssccccccs" />
  <path
     d="M 10.426103,12.467439 C 9.9035683,12.814861 8.5596143,10.278527 7.61852,9.781316 6.5923965,10.025157 5.3299622,12.082984 4.8135579,11.706598 4.2229808,11.27615 4.9481743,8.6219474 5.2882429,8.0415783 5.7265358,7.2935794 2.7651994,7.2344078 3.0149865,6.6015064 3.2614129,5.9771091 5.6923386,5.4004679 6.4577872,5.2928276 6.7353808,4.5509551 7.4544208,3.382825 8.4380293,3.5095079 9.42164,3.6361912 9.9701162,5.06903 10.174418,5.8038961 11.196566,5.9789948 12.8713,6.673712 12.996793,7.345616 c 0.123805,0.6628693 -3.3818518,0.5479857 -2.935187,1.3168577 0.326087,0.5613168 0.75581,3.4349913 0.364497,3.8049653 z"
     style="opacity:0.2;fill:#000000;fill-opacity:1;stroke-width:0.703211"
     id="path3808" />
  <path
     d="M 10.426103,11.967439 C 9.9035683,12.314861 8.5596143,9.7785273 7.61852,9.2813161 6.5923965,9.5251572 5.3299622,11.582984 4.8135579,11.206598 4.2229808,10.77615 4.9481743,8.1219471 5.2882429,7.5415787 5.7265358,6.7935797 2.7651994,6.7344081 3.0149865,6.1015065 3.2614129,5.4771091 5.6923386,4.900468 6.4577872,4.7928276 6.7353808,4.0509551 7.4544208,2.882825 8.4380293,3.0095079 9.42164,3.1361912 9.9701162,4.56903 10.174418,5.3038962 c 1.022148,0.1750987 2.696882,0.8698161 2.822375,1.5417201 0.123805,0.6628694 -3.3818518,0.5479857 -2.935187,1.3168571 0.326087,0.5613169 0.75581,3.4349916 0.364497,3.8049656 z"
     style="fill:url(#linearGradient3798);fill-opacity:1;stroke-width:0.703211"
     id="path866"
     sodipodi:nodetypes="scssccscssss" />
  <ellipse
     style="opacity:0.2;fill:#000000;fill-opacity:1;stroke-width:1.54919;stroke-linecap:round;stroke-linejoin:round"
     id="path3887"
     cx="8"
     cy="6.5"
     rx="2"
     ry="1.5" />
  <path
     d="m 8.3165222,3.7810641 c -0.06905,-0.00219 -0.126782,0.052043 -0.128906,0.1210938 l -0.105469,2.0942485 c -0.0022,0.069048 0.05204,0.1267821 0.121094,0.1289061 0.06905,0.0022 0.126782,-0.05204 0.128906,-0.121094 l 0.105469,-2.0942482 c 0.0022,-0.069049 -0.05204,-0.1267823 -0.121094,-0.1289062 z m 1.7226558,0.8416093 c -0.0507,-0.00233 -0.09778,0.026223 -0.1191398,0.072266 l -1.033203,2.2526391 c -0.0291,0.06256 -0.002,0.136872 0.06055,0.166015 0.06256,0.0291 0.136872,0.002 0.166015,-0.06055 L 10.146603,4.8004051 c 0.0291,-0.062564 0.002,-0.1368724 -0.06055,-0.1660156 -0.01471,-0.00692 -0.03064,-0.010898 -0.04688,-0.011719 z M 6.5255072,5.1578296 c -0.02202,2.522e-4 -0.04358,0.00632 -0.0625,0.017578 -0.0597,0.03411 -0.08064,0.1100289 -0.04687,0.1699219 l 0.974609,1.717483 c 0.03416,0.06087 0.111545,0.08198 0.171875,0.04687 0.06087,-0.03416 0.08198,-0.1115441 0.04687,-0.171875 L 6.6329342,5.2222827 c -0.01617,-0.029642 -0.04365,-0.051481 -0.07617,-0.060547 -0.01021,-0.00261 -0.02071,-0.00393 -0.03125,-0.00391 z"
     style="color:#000000;fill:#ffffe0;stroke-linecap:round"
     id="path5727"
     sodipodi:nodetypes="cccccccccccccccccccccccccc" />
  <path
     id="rect2630"
     style="opacity:0.3;fill:#ffffff;fill-opacity:1"
     d="M 3,1 C 1.8920011,1 1,1.8920011 1,3 V 4 C 1,2.8920011 1.8920011,2 3,2 h 10 c 1.107999,0 2,0.8920011 2,2 V 3 C 15,1.8920011 14.107999,1 13,1 Z" />
  <path
     d="m 2.9999999,15 c -1.1079989,0 -2,-0.892001 -2,-2 v -1 c 0,1.107999 0.8920011,2 2,2 H 13 c 1.107999,0 2,-0.892001 2,-2 v 1 c 0,1.107999 -0.892001,2 -2,2 z"
     style="opacity:0.3;fill:#ffffff;fill-opacity:1"
     id="path19648" />
  <path
     id="rect899"
     style="opacity:0.5;fill:#000000;stroke:none"
     d="M 3,0 C 1.3380017,0 0,1.3380017 0,3 v 10 c 0,1.661998 1.3380017,3 3,3 h 10 c 1.661998,0 3,-1.338002 3,-3 V 3 C 16,1.3380017 14.661998,0 13,0 Z m 0,1 h 10 c 1.107999,0 2,0.8920011 2,2 v 10 c 0,1.107999 -0.892001,2 -2,2 H 3 C 1.8920011,15 1,14.107999 1,13 V 3 C 1,1.8920011 1.8920011,1 3,1 Z" />
</svg>
