<?xml version="1.0" encoding="UTF-8" standalone="no"?>
<!-- Created with Inkscape (http://www.inkscape.org/) -->

<svg
   width="16"
   height="16"
   viewBox="0 0 16 16"
   version="1.1"
   id="svg5"
   sodipodi:docname="help-browser.svg"
   inkscape:version="1.2.1 (9c6d41e410, 2022-07-14)"
   xmlns:inkscape="http://www.inkscape.org/namespaces/inkscape"
   xmlns:sodipodi="http://sodipodi.sourceforge.net/DTD/sodipodi-0.dtd"
   xmlns:xlink="http://www.w3.org/1999/xlink"
   xmlns="http://www.w3.org/2000/svg"
   xmlns:svg="http://www.w3.org/2000/svg">
  <sodipodi:namedview
     id="namedview7"
     pagecolor="#ffffff"
     bordercolor="#666666"
     borderopacity="1.0"
     inkscape:showpageshadow="2"
     inkscape:pageopacity="0.0"
     inkscape:pagecheckerboard="0"
     inkscape:deskcolor="#d1d1d1"
     inkscape:document-units="px"
     showgrid="false"
     inkscape:zoom="49.6875"
     inkscape:cx="8"
     inkscape:cy="8"
     inkscape:window-width="1920"
     inkscape:window-height="1007"
     inkscape:window-x="0"
     inkscape:window-y="0"
     inkscape:window-maximized="1"
     inkscape:current-layer="svg5" />
  <defs
     id="defs2">
    <linearGradient
       inkscape:collect="always"
       xlink:href="#linearGradient21236"
       id="linearGradient19638"
       x1="13"
       y1="16"
       x2="3"
       y2="0"
       gradientUnits="userSpaceOnUse" />
    <linearGradient
       inkscape:collect="always"
       id="linearGradient21236">
      <stop
         style="stop-color:#3689e6;stop-opacity:1;"
         offset="0"
         id="stop21232" />
      <stop
         style="stop-color:#5dcffc;stop-opacity:1;"
         offset="1"
         id="stop21234" />
    </linearGradient>
  </defs>
  <rect
     style="fill:url(#linearGradient19638);fill-opacity:1;stroke:none"
     id="rect184"
     width="15"
     height="15"
     x="0.5"
     y="0.5"
     ry="2.5" />
  <path
     id="path2447"
     style="font-size:7.8202px;line-height:1.25;font-family:'Google Sans';-inkscape-font-specification:'Google Sans';opacity:0.2;fill:#000000;fill-opacity:1;stroke-width:0.304864"
     d="M 7.536843,4 C 6.886466,4 6.357391,4.1829912 5.950906,4.5488281 5.54442,4.9065354 5.252807,5.3214457 5.073953,5.7929688 L 6.036843,6.195312 C 6.158788,5.8538645 6.338192,5.5694286 6.573953,5.3417969 6.817846,5.1060346 7.142078,4.9882812 7.548562,4.9882812 c 0.447135,10e-8 0.796807,0.1213432 1.048828,0.3652344 0.252021,0.2357618 0.378906,0.5492262 0.378906,0.9394534 0,0.292669 -0.07437,0.544486 -0.220703,0.755859 C 8.617389,7.252071 8.38547,7.500299 8.060281,7.792969 7.661924,8.166935 7.386621,8.487579 7.232156,8.755859 7.077689,9.024139 6.999734,9.361093 6.999734,9.767578 V 11 H 8.060281 V 9.841797 c 0,-0.29267 0.06165,-0.550029 0.183594,-0.769531 C 8.365821,8.852764 8.561531,8.620845 8.829812,8.376953 9.17939,8.059894 9.463825,7.748383 9.683328,7.439453 9.910961,7.122394 10.025125,6.740102 10.025125,6.292969 10.025125,5.8620934 9.918137,5.4706714 9.706765,5.1210938 9.503522,4.7715157 9.211909,4.4998007 8.829812,4.3046875 8.455845,4.1014442 8.024625,4 7.536843,4 Z m -0.03906,8.300391 c -0.213859,0.0099 -0.399638,0.09495 -0.558594,0.253908 -0.160625,0.160629 -0.242187,0.355867 -0.242187,0.587889 0,0.240945 0.08156,0.447635 0.242187,0.617188 0.169552,0.160625 0.36954,0.240234 0.601561,0.240234 0.240944,0 0.440933,-0.07961 0.601562,-0.240234 0.169551,-0.169553 0.25586,-0.376243 0.25586,-0.617188 0,-0.232021 -0.08631,-0.42726 -0.25586,-0.587889 -0.160629,-0.169552 -0.360618,-0.253908 -0.601562,-0.253908 -0.0145,0 -0.02871,-6.61e-4 -0.04297,0 z"
     sodipodi:nodetypes="sccccscsccssccssccsccscsscscscscc" />
  <path
     id="path14687"
     style="font-size:7.8202px;line-height:1.25;font-family:'Google Sans';-inkscape-font-specification:'Google Sans';fill:#ffffff;fill-opacity:1;stroke-width:0.304877"
     d="M 7.536843,3 C 6.886437,3 6.357409,3.1829749 5.950906,3.5488281 5.544402,3.9065512 5.250861,4.3214246 5.072,4.7929688 L 6.036843,5.1953125 C 6.158794,4.8538493 6.336228,4.5694393 6.572,4.3417969 6.815902,4.1060242 7.142059,3.9882812 7.548562,3.9882812 c 0.447155,0 0.796797,0.1213321 1.048828,0.3652344 0.252033,0.2357724 0.376953,0.5492095 0.376953,0.9394532 0,0.2926827 -0.07241,0.544478 -0.21875,0.7558592 C 8.617383,6.25208 8.385485,6.500286 8.060281,6.792969 7.661907,7.166951 7.386627,7.487568 7.232156,7.755859 7.077689,8.024152 6.999734,8.361075 6.999734,8.767578 V 10 H 8.060281 V 8.841797 c 0,-0.292684 0.06164,-0.55002 0.183594,-0.769531 C 8.365826,7.852754 8.559566,7.622809 8.827859,7.378906 9.177453,7.061834 9.463815,6.748396 9.683328,6.439453 9.91097,6.12238 10.023172,5.7401228 10.023172,5.2929688 10.023172,4.8620752 9.918147,4.4706869 9.706765,4.1210938 9.503513,3.7715005 9.209973,3.4998097 8.827859,3.3046875 8.453875,3.1014356 8.024648,3 7.536843,3 Z m -0.03906,8.300391 c -0.213859,0.0099 -0.399635,0.09495 -0.558594,0.253908 -0.160623,0.160629 -0.240234,0.355867 -0.240234,0.587889 0,0.240945 0.07961,0.447635 0.240234,0.617189 0.169554,0.160622 0.36954,0.240233 0.601561,0.240233 0.240942,0 0.442885,-0.07961 0.603515,-0.240233 0.16956,-0.169554 0.253907,-0.376244 0.253907,-0.617189 -1e-6,-0.232022 -0.08435,-0.42726 -0.253907,-0.587889 -0.16063,-0.169561 -0.362573,-0.253908 -0.603515,-0.253908 -0.0145,0 -0.02871,-6.62e-4 -0.04297,0 z"
     sodipodi:nodetypes="sccccscscccsccscccsccsccscssscscc" />
  <path
     id="rect2630"
     style="opacity:0.3;fill:#ffffff;fill-opacity:1"
     d="M 3,1 C 1.8920011,1 1,1.8920011 1,3 V 4 C 1,2.8920011 1.8920011,2 3,2 h 10 c 1.107999,0 2,0.8920011 2,2 V 3 C 15,1.8920011 14.107999,1 13,1 Z"
     sodipodi:nodetypes="sscsscsss" />
  <path
     d="M 3,15 C 1.8920011,15 1,14.107999 1,13 v -1 c 0,1.107999 0.8920011,2 2,2 h 10 c 1.107999,0 2,-0.892001 2,-2 v 1 c 0,1.107999 -0.892001,2 -2,2 z"
     style="opacity:0.3;fill:#ffffff;fill-opacity:1"
     id="path19648" />
  <path
     id="rect899"
     style="opacity:0.5;fill:#000000;stroke:none"
     d="M 3,0 C 1.3380017,0 0,1.3380017 0,3 v 10 c 0,1.661998 1.3380017,3 3,3 h 10 c 1.661998,0 3,-1.338002 3,-3 V 3 C 16,1.3380017 14.661998,0 13,0 Z m 0,1 h 10 c 1.107999,0 2,0.8920011 2,2 v 10 c 0,1.107999 -0.892001,2 -2,2 H 3 C 1.8920011,15 1,14.107999 1,13 V 3 C 1,1.8920011 1.8920011,1 3,1 Z" />
</svg>
