<?xml version="1.0" encoding="UTF-8" standalone="no"?>
<!-- Created with Inkscape (http://www.inkscape.org/) -->

<svg
   width="16"
   height="16"
   viewBox="0 0 16 16"
   version="1.1"
   id="svg5"
   sodipodi:docname="inkscape.svg"
   inkscape:version="1.2.1 (9c6d41e410, 2022-07-14)"
   xmlns:inkscape="http://www.inkscape.org/namespaces/inkscape"
   xmlns:sodipodi="http://sodipodi.sourceforge.net/DTD/sodipodi-0.dtd"
   xmlns:xlink="http://www.w3.org/1999/xlink"
   xmlns="http://www.w3.org/2000/svg"
   xmlns:svg="http://www.w3.org/2000/svg">
  <sodipodi:namedview
     id="namedview7"
     pagecolor="#ffffff"
     bordercolor="#666666"
     borderopacity="1.0"
     inkscape:showpageshadow="2"
     inkscape:pageopacity="0.0"
     inkscape:pagecheckerboard="0"
     inkscape:deskcolor="#d1d1d1"
     inkscape:document-units="px"
     showgrid="false"
     inkscape:zoom="49.5"
     inkscape:cx="7.989899"
     inkscape:cy="8"
     inkscape:window-width="1920"
     inkscape:window-height="1007"
     inkscape:window-x="0"
     inkscape:window-y="0"
     inkscape:window-maximized="1"
     inkscape:current-layer="svg5" />
  <defs
     id="defs2">
    <linearGradient
       inkscape:collect="always"
       xlink:href="#4852"
       id="linearGradient19638"
       x1="13"
       y1="16"
       x2="3"
       y2="0"
       gradientUnits="userSpaceOnUse" />
    <linearGradient
       inkscape:collect="always"
       id="4852">
      <stop
         style="stop-color:#333333;stop-opacity:1"
         offset="0"
         id="stop14555" />
      <stop
         style="stop-color:#666666;stop-opacity:1"
         offset="1"
         id="stop14557" />
    </linearGradient>
  </defs>
  <rect
     style="fill:url(#linearGradient19638);fill-opacity:1.0;stroke:none"
     id="rect184"
     width="15"
     height="15"
     x="0.5"
     y="0.5"
     ry="2.5" />
  <path
     d="M 7.9999997,4 C 7.7173363,4 7.4344875,4.106987 7.22092,4.3331162 L 3.3331161,8.3402775 C 3.1195501,8.5601251 3.0062814,8.8494022 2.9999999,9.1383463 v 0.018444 c 0,0.8605527 2.2927136,0.02521 2.4999999,1.0742197 C 5.6130643,10.802617 4.25,10.538849 4.25,11.110458 c 0,0.67211 1.9282473,0.213615 2.4810112,0.760091 0.2261291,0.552763 -0.7412005,0.464742 -0.5653214,0.979818 0.3203528,0.332912 1.0488753,0.144469 1.1870661,0.684678 0.1633172,0.61558 1.2060246,0.508694 1.8153207,0.05643 C 9.4947098,13.258562 8.6719441,13.108189 8.9922957,12.768993 9.3189289,12.436079 10.914411,12.504798 10.926974,11.776155 10.77622,11.317606 10.173165,11.242131 10.166883,10.701931 10.135485,10.243389 10.65703,10.375655 12.31532,9.9233939 12.974868,9.6093246 13,9.4457365 13,9.1567923 V 9.1383482 C 12.9937,8.8494098 12.862004,8.5601266 12.648436,8.3402775 L 8.7790797,4.3331162 C 8.559231,4.1069859 8.2826633,4 7.9999997,4 Z m 0.075413,0.8414713 c 0.2952264,0 1.0992416,0.9929636 1.8153218,1.7404513 0.2072845,0.2701002 -0.075413,0.5463326 -0.075413,0.5463326 L 8.3141272,6.3052298 7.6484374,7.2036674 7.0641274,6.3242189 6.7125648,7.6935762 5.675781,7.0718314 5.9524738,6.7197265 7.5730249,5.0552301 C 7.6923711,4.9296024 7.7927477,4.8414713 8.0754127,4.8414713 Z"
     style="fill:#000000;fill-opacity:1;stroke-width:0.628139;opacity:0.2"
     id="path11845" />
  <path
     d="M 7.9999997,3 C 7.7173363,3 7.4344875,3.106987 7.22092,3.3331162 L 3.3331161,7.3402775 C 3.1195501,7.5601251 3.0062814,7.8494022 2.9999999,8.1383463 v 0.018444 c 0,0.8605524 2.2927136,0.02521 2.4999999,1.0742193 C 5.6130643,9.8026168 4.25,9.5388488 4.25,10.110458 c 0,0.67211 1.9282473,0.213615 2.4810112,0.760091 0.2261291,0.552763 -0.7412005,0.464742 -0.5653214,0.979818 0.3203528,0.332912 1.0488753,0.144469 1.1870661,0.684678 0.1633172,0.61558 1.2060246,0.508694 1.8153207,0.05643 C 9.4947098,12.258562 8.6719441,12.108189 8.9922957,11.768993 9.3189289,11.436079 10.914411,11.504798 10.926974,10.776155 10.77622,10.317606 10.173165,10.242131 10.166883,9.7019308 10.135485,9.2433887 10.65703,9.3756552 12.31532,8.9233939 12.974868,8.6093246 13,8.4457365 13,8.1567923 V 8.1383482 C 12.9937,7.8494098 12.862004,7.5601266 12.648436,7.3402775 L 8.7790797,3.3331162 C 8.559231,3.1069859 8.2826633,3 7.9999997,3 Z m 0.075413,0.8414713 c 0.2952264,0 1.0992416,0.9929636 1.8153218,1.7404513 0.2072845,0.2701002 -0.075413,0.5463326 -0.075413,0.5463326 L 8.3141272,5.3052298 7.6484374,6.2036674 7.0641274,5.3242189 6.7125648,6.6935762 5.675781,6.0718314 5.9524738,5.7197265 7.5730249,4.0552301 C 7.6923711,3.9296024 7.7927477,3.8414713 8.0754127,3.8414713 Z"
     style="fill:#ffffff;fill-opacity:1;stroke-width:0.628139"
     id="path11658"
     sodipodi:nodetypes="scccscsccccccccscccsscccccccccs" />
  <path
     id="rect2630"
     style="opacity:0.3;fill:#ffffff;fill-opacity:1"
     d="M 3,1 C 1.8920011,1 1,1.8920011 1,3 V 4 C 1,2.8920011 1.8920011,2 3,2 h 10 c 1.107999,0 2,0.8920011 2,2 V 3 C 15,1.8920011 14.107999,1 13,1 Z"
     sodipodi:nodetypes="sscsscsss" />
  <path
     d="M 3,15 C 1.8920011,15 1,14.107999 1,13 v -1 c 0,1.107999 0.8920011,2 2,2 h 10 c 1.107999,0 2,-0.892001 2,-2 v 1 c 0,1.107999 -0.892001,2 -2,2 z"
     style="opacity:0.3;fill:#ffffff;fill-opacity:1"
     id="path19648" />
  <path
     id="rect899"
     style="opacity:0.5;fill:#000000;stroke:none"
     d="M 3,0 C 1.3380017,0 0,1.3380017 0,3 v 10 c 0,1.661998 1.3380017,3 3,3 h 10 c 1.661998,0 3,-1.338002 3,-3 V 3 C 16,1.3380017 14.661998,0 13,0 Z m 0,1 h 10 c 1.107999,0 2,0.8920011 2,2 v 10 c 0,1.107999 -0.892001,2 -2,2 H 3 C 1.8920011,15 1,14.107999 1,13 V 3 C 1,1.8920011 1.8920011,1 3,1 Z" />
</svg>
