<?xml version="1.0" encoding="UTF-8" standalone="no"?>
<!-- Created with Inkscape (http://www.inkscape.org/) -->

<svg
   width="16"
   height="16"
   viewBox="0 0 16 16"
   version="1.1"
   id="svg5"
   sodipodi:docname="java.svg"
   inkscape:version="1.2.1 (9c6d41e410, 2022-07-14)"
   xmlns:inkscape="http://www.inkscape.org/namespaces/inkscape"
   xmlns:sodipodi="http://sodipodi.sourceforge.net/DTD/sodipodi-0.dtd"
   xmlns:xlink="http://www.w3.org/1999/xlink"
   xmlns="http://www.w3.org/2000/svg"
   xmlns:svg="http://www.w3.org/2000/svg">
  <sodipodi:namedview
     id="namedview7"
     pagecolor="#ffffff"
     bordercolor="#666666"
     borderopacity="1.0"
     inkscape:showpageshadow="2"
     inkscape:pageopacity="0.0"
     inkscape:pagecheckerboard="0"
     inkscape:deskcolor="#d1d1d1"
     inkscape:document-units="px"
     showgrid="false"
     inkscape:zoom="34.913397"
     inkscape:cx="3.6948567"
     inkscape:cy="10.010484"
     inkscape:window-width="1920"
     inkscape:window-height="1007"
     inkscape:window-x="0"
     inkscape:window-y="0"
     inkscape:window-maximized="1"
     inkscape:current-layer="svg5" />
  <defs
     id="defs2">
    <linearGradient
       inkscape:collect="always"
       xlink:href="#linearGradient22024"
       id="linearGradient19638"
       x1="13"
       y1="16"
       x2="3"
       y2="0"
       gradientUnits="userSpaceOnUse" />
    <linearGradient
       inkscape:collect="always"
       id="linearGradient22024">
      <stop
         style="stop-color:#dedede;stop-opacity:1;"
         offset="0"
         id="stop22020" />
      <stop
         style="stop-color:#f2f2f2;stop-opacity:1;"
         offset="1"
         id="stop22022" />
    </linearGradient>
  </defs>
  <rect
     style="fill:url(#linearGradient19638);fill-opacity:1;stroke:none"
     id="rect184"
     width="15"
     height="15"
     x="0.5"
     y="0.5"
     ry="2.5" />
  <path
     d="M 9.0871969,3 C 9.5417017,4.9812689 7.4842107,5.580632 6.7414938,6.8144531 6.2357248,7.6550084 6.9888526,8.5579133 8.0168844,9.5839843 7.6160025,8.5814008 6.2558685,7.7028918 8.0168844,6.1640625 10.212847,4.2464953 9.0871969,3 9.0871969,3 Z m 1.3574221,2.4511719 c 2.4e-5,0 -3.7128954,1.0262718 -1.9394533,3.2871093 0.5235071,0.6666905 -0.1367188,1.2656248 -0.1367188,1.2656248 0,0 1.3287375,-0.7585743 0.71875,-1.7089841 C 8.5172734,7.4090152 8.0791325,6.9689591 10.444619,5.4511719 Z m 0.599609,4.0410156 c -0.113727,0.00645 -0.231695,0.032718 -0.353515,0.080078 -0.113951,0.044622 -0.173829,0.1484375 -0.173829,0.1484375 0,0 0.0718,-0.031274 0.232422,-0.068359 0.656832,-0.1514457 1.597649,0.970936 -0.4375,2.140625 -0.0094,0.02788 -0.04104,0.06055 -0.04102,0.06055 2.462786,-0.716206 1.872794,-2.423728 0.773438,-2.3613315 z M 6.6399313,9.6054687 c -0.2594664,0.00751 -0.8663391,0.0714 -1.5722654,0.4492193 -1.113509,0.595632 2.753586,0.865807 4.7558591,0.283203 0.20814,-0.157159 0.496094,-0.292969 0.496094,-0.292969 0,0 -0.8188119,0.162519 -1.6347659,0.238281 -0.9986477,0.0927 -2.0696685,0.110861 -2.6074218,0.03125 -1.2732084,-0.18831 0.6972656,-0.7070311 0.6972656,-0.7070311 0,0 -0.048277,-0.00446 -0.1347656,-0.00195 z M 6.3157125,10.96875 C 4.4791189,11.643181 7.3384492,12.408837 9.9055563,11.578125 9.6328055,11.471757 9.4602438,11.277344 9.4602438,11.277344 8.2051637,11.54458 7.4801031,11.534569 6.5618063,11.429687 5.8518537,11.348517 6.3157125,10.96875 6.3157125,10.96875 Z m 0.2597656,1.314453 C 4.9077219,12.798753 7.5905889,13.861998 9.71415,12.855469 9.3663524,12.705936 9.1164938,12.533203 9.1164938,12.533203 8.1695374,12.731239 7.7299658,12.747245 6.8704,12.638672 6.160986,12.548672 6.5754781,12.283203 6.5754781,12.283203 Z m -1.1582032,0.869141 c -0.748955,0.02556 -2.212561,0.771221 -0.873047,1.011718 4.3292194,0.776362 7.8905601,-0.349641 6.7675781,-0.910156 0,0 0.306553,0.279795 -0.33789,0.496094 -1.2254161,0.410628 -5.1011878,0.533688 -6.1777351,0.01563 -0.386709,-0.186351 0.340086,-0.44349 0.56836,-0.498047 0.238025,-0.05697 0.3730467,-0.04687 0.3730466,-0.04687 -0.067249,-0.05239 -0.1816166,-0.07309 -0.3203126,-0.06836 z m 6.5820311,0.71289 c 0,0 -0.135516,0.387756 -1.613281,0.695313 -1.6671619,0.347235 -3.7239787,0.306735 -4.9433591,0.08398 0,0 0.2495935,0.228931 1.5332029,0.320313 1.9530521,0.138147 4.9524842,-0.0771 5.0234372,-1.09961 z"
     style="fill:#000000;stroke-width:0.195366;opacity:0.2"
     id="path14694" />
  <path
     d="m 11.043984,8.4916609 c -0.113727,0.00645 -0.231695,0.032718 -0.353516,0.080078 -0.113951,0.044622 -0.173828,0.1484375 -0.173828,0.1484375 0,0 0.0718,-0.031274 0.232422,-0.068359 0.656832,-0.1514459 1.597651,0.9709356 -0.4375,2.1406256 -0.0094,0.02788 -0.04104,0.06055 -0.04102,0.06055 2.462788,-0.716203 1.872795,-2.4237232 0.773438,-2.3613268 z M 6.6396873,8.6049421 c -0.2594666,0.00751 -0.8663383,0.0714 -1.5722656,0.4492188 -1.1135102,0.5956327 2.7535842,0.8658079 4.7558593,0.2832031 0.20814,-0.1571585 0.496093,-0.2929687 0.496093,-0.2929687 0,0 -0.81881,0.1625193 -1.6347648,0.2382812 -0.9986487,0.092697 -2.069668,0.1108609 -2.6074219,0.03125 C 4.803978,9.1256157 6.7744529,8.6068953 6.7744529,8.6068953 c 0,0 -0.048277,-0.00446 -0.1347656,-0.00195 z M 6.3154685,9.9682234 C 4.4788733,10.642656 7.3382024,11.408312 9.905312,10.577599 9.632561,10.471231 9.46,10.276818 9.46,10.276818 8.2049187,10.544055 7.47986,10.534043 6.5615623,10.429161 5.851609,10.347991 6.3154685,9.9682234 6.3154685,9.9682234 Z M 6.5752342,11.282677 C 4.9074763,11.798228 7.5903428,12.861473 9.713906,11.854943 9.366108,11.70541 9.1162498,11.532677 9.1162498,11.532677 8.1692925,11.730713 7.7297227,11.746719 6.8701561,11.638146 6.1607414,11.548146 6.5752342,11.282677 6.5752342,11.282677 Z m -1.1582031,0.869141 c -0.7489562,0.02556 -2.2125624,0.77122 -0.8730469,1.011718 4.3292235,0.776362 7.8905608,-0.349641 6.7675778,-0.910156 0,0 0.306553,0.279795 -0.337891,0.496094 -1.225417,0.410629 -5.1011857,0.533694 -6.1777337,0.01563 -0.3867102,-0.186351 0.3400852,-0.44349 0.5683594,-0.498047 0.2380255,-0.05697 0.3730469,-0.04687 0.3730468,-0.04687 -0.067249,-0.05239 -0.1816169,-0.07309 -0.3203124,-0.06836 z m 6.5820309,0.71289 c 0,0 -0.135515,0.387756 -1.613281,0.695313 -1.6671636,0.347236 -3.7239774,0.306731 -4.9433593,0.08398 0,0 0.2495924,0.228931 1.5332031,0.320313 1.9530541,0.138148 4.9524842,-0.07709 5.0234372,-1.099606 z"
     style="fill:#5a87b6;stroke-width:0.195366;fill-opacity:1"
     id="path14500" />
  <path
     d="M 9.0871969,2 C 9.5417022,3.9812709 7.4842115,4.5806308 6.7414938,5.8144531 6.2357243,6.6550092 6.9888516,7.5579122 8.0168844,8.5839843 7.6160021,7.5813997 6.2558667,6.7028934 8.0168844,5.1640625 10.212849,3.2464934 9.0871969,2 9.0871969,2 Z m 1.3574211,2.4511719 c 2.4e-5,0 -3.7128962,1.0262695 -1.9394524,3.2871093 0.5235077,0.6666911 -0.1367187,1.2656251 -0.1367187,1.2656251 0,0 1.3287381,-0.7585736 0.71875,-1.7089844 C 8.5172728,6.4090144 8.0791294,5.9689607 10.444618,4.4511719 Z"
     style="fill:#ff9955;stroke-width:0.195366;fill-opacity:1"
     id="path14589" />
  <path
     id="rect2630"
     style="opacity:0.3;fill:#ffffff;fill-opacity:1"
     d="M 3,1 C 1.8920011,1 1,1.8920011 1,3 V 4 C 1,2.8920011 1.8920011,2 3,2 h 10 c 1.107999,0 2,0.8920011 2,2 V 3 C 15,1.8920011 14.107999,1 13,1 Z"
     sodipodi:nodetypes="sscsscsss" />
  <path
     d="M 3,15 C 1.8920011,15 1,14.107999 1,13 v -1 c 0,1.107999 0.8920011,2 2,2 h 10 c 1.107999,0 2,-0.892001 2,-2 v 1 c 0,1.107999 -0.892001,2 -2,2 z"
     style="opacity:0.3;fill:#ffffff;fill-opacity:1"
     id="path19648" />
  <path
     id="rect899"
     style="opacity:0.5;fill:#000000;stroke:none"
     d="M 3,0 C 1.3380017,0 0,1.3380017 0,3 v 10 c 0,1.661998 1.3380017,3 3,3 h 10 c 1.661998,0 3,-1.338002 3,-3 V 3 C 16,1.3380017 14.661998,0 13,0 Z m 0,1 h 10 c 1.107999,0 2,0.8920011 2,2 v 10 c 0,1.107999 -0.892001,2 -2,2 H 3 C 1.8920011,15 1,14.107999 1,13 V 3 C 1,1.8920011 1.8920011,1 3,1 Z" />
</svg>
