<?xml version="1.0" encoding="UTF-8" standalone="no"?>
<!-- Created with Inkscape (http://www.inkscape.org/) -->

<svg
   width="16"
   height="16"
   viewBox="0 0 16 16"
   version="1.1"
   id="svg5"
   sodipodi:docname="kate.svg"
   inkscape:version="1.2.1 (9c6d41e410, 2022-07-14)"
   xmlns:inkscape="http://www.inkscape.org/namespaces/inkscape"
   xmlns:sodipodi="http://sodipodi.sourceforge.net/DTD/sodipodi-0.dtd"
   xmlns:xlink="http://www.w3.org/1999/xlink"
   xmlns="http://www.w3.org/2000/svg"
   xmlns:svg="http://www.w3.org/2000/svg">
  <sodipodi:namedview
     id="namedview7"
     pagecolor="#ffffff"
     bordercolor="#666666"
     borderopacity="1.0"
     inkscape:showpageshadow="2"
     inkscape:pageopacity="0.0"
     inkscape:pagecheckerboard="0"
     inkscape:deskcolor="#d1d1d1"
     inkscape:document-units="px"
     showgrid="false"
     inkscape:zoom="49.375"
     inkscape:cx="7.9898734"
     inkscape:cy="8"
     inkscape:window-width="1920"
     inkscape:window-height="1002"
     inkscape:window-x="0"
     inkscape:window-y="0"
     inkscape:window-maximized="1"
     inkscape:current-layer="svg5" />
  <defs
     id="defs2">
    <linearGradient
       inkscape:collect="always"
       id="linearGradient1493">
      <stop
         style="stop-color:#197cf1;stop-opacity:1;"
         offset="0"
         id="stop1489" />
      <stop
         style="stop-color:#20bcfa;stop-opacity:1;"
         offset="1"
         id="stop1491" />
    </linearGradient>
    <linearGradient
       inkscape:collect="always"
       xlink:href="#linearGradient1493"
       id="linearGradient19638"
       x1="13"
       y1="16"
       x2="3"
       y2="0"
       gradientUnits="userSpaceOnUse" />
  </defs>
  <rect
     style="fill:url(#linearGradient19638);fill-opacity:1;stroke:none"
     id="rect184"
     width="15"
     height="15"
     x="0.5"
     y="0.5"
     ry="2.5" />
  <path
     d="M 7.0878909,4.0000012 C 6.3256057,3.9994039 5.4477962,4.2181392 4.5976563,4.8339855 3.7669691,5.4357435 3.4029426,5.5988093 3,5.7988293 3.3532271,5.8257804 5.440118,5.530413 5.8691407,6.7226574 4.3301721,7.2304201 3.7310237,8.0592337 3.9355469,9.0214855 c 0.031201,0.1661371 0.086422,0.3398723 0.171875,0.5195313 0.090472,0.1902098 0.1938603,0.3532169 0.3066406,0.4980472 0.00327,0.0046 0.00647,0.0091 0.00977,0.01367 0.7049473,0.89265 1.8141004,1.031579 3.0136718,1.833985 C 8.5292863,12.617021 8.8912257,12.987702 9.5957077,14 9.4492057,12.601323 8.6777489,10.800107 8.3613279,10.005861 l -0.00195,-0.0059 C 9.3493387,10.727177 10.52325,11.043645 11.90625,11.14258 9.6963357,9.5694679 9.2766517,9.1973576 8.0117189,8.1191418 7.1630859,8.1619027 7.2562959,8.1549079 6.7558594,8.1835949 6.815096,8.2823412 6.8763037,8.3760454 6.9375,8.4687512 7.4513819,9.3706825 7.5566389,10.5026 6.4707031,10.728517 5.3432113,10.963077 4.1127893,9.9896557 4.421875,8.9472668 4.7575067,7.815361 6.3492898,8.0322891 7.8691409,7.8359386 9.3889897,7.6395893 10.778025,6.1501452 11.613281,5.0468762 10.410731,5.4571823 8.8767437,5.8345795 7.1679689,6.3300793 6.8350872,5.6490817 6.5051489,4.47176 8.7421879,4.3867199 8.3444829,4.1709247 7.7604949,4.0005281 7.0878909,4.0000012 Z"
     style="fill:#000000;fill-opacity:1;stroke-width:0.357143;opacity:0.2"
     id="path8081" />
  <path
     style="fill:#cccccc;fill-opacity:1;stroke-width:0.357143"
     d="M 5.886825,5.7821882 C 5.506768,4.5204571 3.359006,4.8266234 3,4.7992313 3.402943,4.5992111 3.764798,4.6731871 4.595486,4.0714288 6.19575,2.9121871 7.318478,2.8967791 8.166915,3.3571429 5.84741,3.4453169 6.863112,4.7383563 7.204754,5.4041908 6.770286,5.5303904 6.084446,5.7208971 5.886825,5.7821882 Z"
     id="path10" />
  <path
     style="fill:#f2f2f2;stroke-width:0.357143"
     d="M 11.612323,4.0459896 C 10.777066,5.1492598 9.388367,6.6398537 7.868516,6.8362032 6.348664,7.0325538 4.756898,6.8150412 4.421266,7.9469481 4.11218,8.9893381 5.342102,9.9625651 6.469595,9.7280051 7.67411,9.4774191 7.413977,8.1121891 6.755153,7.1825012 7.255591,7.1538142 6.961137,7.3284931 7.809771,7.2857126 L 8.360989,9.0044561 C 8.67741,9.7987031 9.448989,11.60132 9.595486,13 8.891003,11.987701 8.52866,11.615683 7.436877,10.88538 6.038374,9.9499081 4.762912,9.9182381 4.107366,8.5400031 3.453235,7.164745 4.461899,6.174093 6.011239,5.7450721 8.225358,5.1319681 10.133116,4.5506899 11.612323,4.0459896 Z"
     id="path12" />
  <path
     style="fill:#cccccc;fill-opacity:1;stroke-width:0.357143"
     d="m 6.755155,7.1825012 c 0.500437,-0.028687 0.407346,-0.021279 1.25598,-0.06404 1.264934,1.0782169 1.684208,1.4512839 3.894124,3.0243968 C 9.683997,9.9839571 8.00333,9.2631881 6.755155,7.1825012 Z"
     id="path14" />
  <path
     style="fill:#e6e6e6;fill-opacity:1;stroke-width:0.357143"
     d="M 3,4.7992313 C 3.402943,4.5992111 3.767088,4.4343368 4.597776,3.8325782 6.198041,2.6733369 7.892296,2.9261514 8.740733,3.386515 6.421228,3.47469 6.72009,3.9368474 6.711531,4.299151 5.170446,3.9743105 4.720481,4.4162865 3,4.7992313 Z"
     id="path16" />
  <path
     style="fill:#f2f2f2;stroke-width:0.357143"
     d="M 8.740733,3.386515 C 6.421228,3.47469 6.863112,4.7383563 7.204754,5.4041908 6.934081,5.4828128 6.819106,5.5723798 6.457272,5.668142 4.997308,3.0667338 7.549144,2.7283066 8.740733,3.386515 Z"
     id="path18" />
  <path
     style="fill:#e6e6e6;fill-opacity:1;stroke-width:0.357143"
     d="M 4.525035,9.1880721 C 3.389997,7.7265701 3.742403,6.3869761 5.964973,5.6909674 8.158282,5.0041214 10.133116,4.5506899 11.612323,4.0459896 7.620492,5.5669633 2.479105,6.5832719 4.525035,9.1880721 Z"
     id="path20" />
  <path
     id="rect2630"
     style="opacity:0.3;fill:#ffffff;fill-opacity:1"
     d="M 3,1 C 1.8920011,1 1,1.8920011 1,3 V 4 C 1,2.8920011 1.8920011,2 3,2 h 10 c 1.107999,0 2,0.8920011 2,2 V 3 C 15,1.8920011 14.107999,1 13,1 Z"
     sodipodi:nodetypes="sscsscsss" />
  <path
     d="M 3,15 C 1.8920011,15 1,14.107999 1,13 v -1 c 0,1.107999 0.8920011,2 2,2 h 10 c 1.107999,0 2,-0.892001 2,-2 v 1 c 0,1.107999 -0.892001,2 -2,2 z"
     style="opacity:0.3;fill:#ffffff;fill-opacity:1"
     id="path19648" />
  <path
     id="rect899"
     style="opacity:0.5;fill:#000000;stroke:none"
     d="M 3,0 C 1.3380017,0 0,1.3380017 0,3 v 10 c 0,1.661998 1.3380017,3 3,3 h 10 c 1.661998,0 3,-1.338002 3,-3 V 3 C 16,1.3380017 14.661998,0 13,0 Z m 0,1 h 10 c 1.107999,0 2,0.8920011 2,2 v 10 c 0,1.107999 -0.892001,2 -2,2 H 3 C 1.8920011,15 1,14.107999 1,13 V 3 C 1,1.8920011 1.8920011,1 3,1 Z" />
</svg>
