<?xml version="1.0" encoding="UTF-8" standalone="no"?>
<!-- Created with Inkscape (http://www.inkscape.org/) -->

<svg
   width="16"
   height="16"
   viewBox="0 0 16 16"
   version="1.1"
   id="svg5"
   sodipodi:docname="kdeconnect.svg"
   inkscape:version="1.2.1 (9c6d41e410, 2022-07-14)"
   xmlns:inkscape="http://www.inkscape.org/namespaces/inkscape"
   xmlns:sodipodi="http://sodipodi.sourceforge.net/DTD/sodipodi-0.dtd"
   xmlns:xlink="http://www.w3.org/1999/xlink"
   xmlns="http://www.w3.org/2000/svg"
   xmlns:svg="http://www.w3.org/2000/svg">
  <sodipodi:namedview
     id="namedview7"
     pagecolor="#ffffff"
     bordercolor="#666666"
     borderopacity="1.0"
     inkscape:showpageshadow="2"
     inkscape:pageopacity="0.0"
     inkscape:pagecheckerboard="0"
     inkscape:deskcolor="#d1d1d1"
     inkscape:document-units="px"
     showgrid="false"
     inkscape:zoom="49.375"
     inkscape:cx="7.9898734"
     inkscape:cy="8"
     inkscape:window-width="1920"
     inkscape:window-height="1002"
     inkscape:window-x="0"
     inkscape:window-y="0"
     inkscape:window-maximized="1"
     inkscape:current-layer="svg5" />
  <defs
     id="defs2">
    <linearGradient
       inkscape:collect="always"
       xlink:href="#linearGradient1348"
       id="linearGradient19638"
       x1="13"
       y1="16"
       x2="3"
       y2="0"
       gradientUnits="userSpaceOnUse" />
    <linearGradient
       inkscape:collect="always"
       id="linearGradient1348">
      <stop
         style="stop-color:#2da4e8;stop-opacity:1;"
         offset="0"
         id="stop1344" />
      <stop
         style="stop-color:#67c0f0;stop-opacity:1;"
         offset="1"
         id="stop1346" />
    </linearGradient>
  </defs>
  <rect
     style="fill:url(#linearGradient19638);fill-opacity:1.0;stroke:none"
     id="rect184"
     width="15"
     height="15"
     x="0.5"
     y="0.5"
     ry="2.5" />
  <path
     id="rect2630"
     style="opacity:0.3;fill:#ffffff;fill-opacity:1"
     d="M 3,1 C 1.8920011,1 1,1.8920011 1,3 V 4 C 1,2.8920011 1.8920011,2 3,2 h 10 c 1.107999,0 2,0.8920011 2,2 V 3 C 15,1.8920011 14.107999,1 13,1 Z"
     sodipodi:nodetypes="sscsscsss" />
  <path
     d="M 3,15 C 1.8920011,15 1,14.107999 1,13 v -1 c 0,1.107999 0.8920011,2 2,2 h 10 c 1.107999,0 2,-0.892001 2,-2 v 1 c 0,1.107999 -0.892001,2 -2,2 z"
     style="opacity:0.3;fill:#ffffff;fill-opacity:1"
     id="path19648" />
  <path
     id="rect899"
     style="opacity:0.5;fill:#000000;stroke:none"
     d="M 3,0 C 1.3380017,0 0,1.3380017 0,3 v 10 c 0,1.661998 1.3380017,3 3,3 h 10 c 1.661998,0 3,-1.338002 3,-3 V 3 C 16,1.3380017 14.661998,0 13,0 Z m 0,1 h 10 c 1.107999,0 2,0.8920011 2,2 v 10 c 0,1.107999 -0.892001,2 -2,2 H 3 C 1.8920011,15 1,14.107999 1,13 V 3 C 1,1.8920011 1.8920011,1 3,1 Z" />
  <rect
     style="opacity:0.2;fill:#000000;stroke-linejoin:round"
     id="rect649"
     width="7.9999995"
     height="10"
     x="4.0000005"
     y="4"
     ry="1" />
  <rect
     style="opacity:1;fill:#ffffff;stroke-linejoin:round"
     id="rect634"
     width="8"
     height="10"
     x="4.0000005"
     y="3"
     ry="1" />
  <path
     d="m 6.7002127,5.0000368 c -0.2770016,0 -0.5000001,0.2229997 -0.5000001,0.4999998 0,0.2770016 0.2229997,0.5000001 0.5000001,0.5000001 0.2770016,0 0.4999998,-0.2229997 0.4999998,-0.5000001 0,-0.2770016 -0.2229997,-0.4999998 -0.4999998,-0.4999998 z M 8.9216478,5.000012 8.0906816,5.7997283 9.3371305,7.000012 8.0906816,8.200296 8.9216478,9.000012 10.168808,7.799728 10.999773,7.000012 10.168808,6.2002961 Z M 5.6502274,7.0000367 c -0.3600983,0 -0.6500001,0.2898972 -0.6500001,0.65 0,0.3600984 0.2899011,0.6500003 0.6500001,0.6500003 0.3601021,0 0.6499998,-0.2899011 0.6499998,-0.6500003 0,-0.360102 -0.2898973,-0.65 -0.6499998,-0.65 z M 7.2001879,8.999987 c -0.5540001,0 -1.0000003,0.446001 -1.0000003,1 0,0.554 0.4460002,1.000001 1.0000003,1.000001 0.5539998,0 0.9999999,-0.446001 0.9999999,-1.000001 0,-0.553999 -0.4460001,-1 -0.9999999,-1 z"
     style="opacity:0.8;fill:#4ab2ec;fill-opacity:1;stroke-width:0.999999"
     id="path1720"
     sodipodi:nodetypes="ssssscccccccccssssssssss" />
</svg>
