<?xml version="1.0" encoding="UTF-8" standalone="no"?>
<!-- Created with Inkscape (http://www.inkscape.org/) -->

<svg
   width="16"
   height="16"
   viewBox="0 0 16 16"
   version="1.1"
   id="svg5"
   sodipodi:docname="kleopatra.svg"
   inkscape:version="1.2 (1:1.2.1+202207142221+cd75a1ee6d)"
   xmlns:inkscape="http://www.inkscape.org/namespaces/inkscape"
   xmlns:sodipodi="http://sodipodi.sourceforge.net/DTD/sodipodi-0.dtd"
   xmlns:xlink="http://www.w3.org/1999/xlink"
   xmlns="http://www.w3.org/2000/svg"
   xmlns:svg="http://www.w3.org/2000/svg">
  <sodipodi:namedview
     id="namedview7"
     pagecolor="#ffffff"
     bordercolor="#666666"
     borderopacity="1.0"
     inkscape:showpageshadow="2"
     inkscape:pageopacity="0.0"
     inkscape:pagecheckerboard="0"
     inkscape:deskcolor="#d1d1d1"
     inkscape:document-units="px"
     showgrid="false"
     inkscape:zoom="20.689453"
     inkscape:cx="4.3742094"
     inkscape:cy="3.1900312"
     inkscape:window-width="1846"
     inkscape:window-height="1053"
     inkscape:window-x="0"
     inkscape:window-y="0"
     inkscape:window-maximized="1"
     inkscape:current-layer="svg5" />
  <defs
     id="defs2">
    <linearGradient
       inkscape:collect="always"
       id="linearGradient1617">
      <stop
         style="stop-color:#d5a43a;stop-opacity:1;"
         offset="0"
         id="stop1613" />
      <stop
         style="stop-color:#e0bc6f;stop-opacity:1;"
         offset="1"
         id="stop1615" />
    </linearGradient>
    <linearGradient
       inkscape:collect="always"
       xlink:href="#linearGradient1617"
       id="linearGradient1619"
       x1="13"
       y1="16"
       x2="3"
       y2="0"
       gradientUnits="userSpaceOnUse" />
  </defs>
  <rect
     style="fill:url(#linearGradient1619);fill-opacity:1;stroke:none"
     id="rect184"
     width="15"
     height="15"
     x="0.5"
     y="0.5"
     ry="2.5" />
  <path
     d="M 7.4053571,5 C 6.3665589,5 5.272,5.2399258 4.147545,5.7128906 3.232269,6.0978707 2.841276,6.4150108 3.057701,6.5976562 c 0.07634,0.064431 0.02265,0.077845 1.304687,-0.34375 C 5.238537,5.9657871 6.3169755,5.7231966 6.8994977,5.6816406 7.7989623,5.6174746 8.870231,5.8160252 10.766684,6.4003906 11.447706,6.6102375 12.230881,6.8311465 12.506918,6.890625 13.097277,7.0178316 13.159248,6.9985894 13.65145,7 h 0.347656 V 6.75 c 0,-0.2846019 -0.03945,-0.3105469 -0.464844,-0.3105469 -0.948362,0 -1.185928,-0.1304618 -2.613281,-0.6640625 C 9.3921597,5.2038549 8.466639,5 7.4053571,5 Z M 6.3389509,7.0039062 C 6.18444,7.0097462 6.047519,7.0253092 5.936607,7.0488282 5.42506,7.1572864 4.741576,7.5512176 4.321373,7.951172 3.67004,8.5711184 2.430924,9.731186 2.503013,10.023438 c 0.03246,0.131604 0.06671,0.139386 0.640625,0.164062 0.333163,0.01433 1.488541,0.09166 2,0.171875 l 0.966797,0.146485 v 0.408203 c -0.160421,0.747902 -0.04612,1.151446 -0.01758,1.423827 0.106908,0.985811 0.107966,1.09234 0.355469,1.05664 0.3823385,-0.639756 0.4269175,-1.867122 0.4296874,-2.574217 0.7599454,0.911028 1.9545962,1.392959 2.6718754,1.742186 0.7581772,0.318086 1.7265872,0.515693 2.4589832,0.460938 0.450217,0 1.017923,-0.511699 1.017578,-1.105468 -1.85e-4,-0.457848 -0.125042,-0.706424 -0.429688,-0.853516 -0.560057,-0.270411 -1.18164,0.05025 -1.18164,0.650391 0,0.58902 0.55201,0.915325 0.917968,0.542967 0.152656,-0.155325 0.190437,-0.416674 0.08203,-0.574217 -0.04812,-0.06992 -0.05348,-0.05747 -0.02344,0.05078 0.103682,0.373555 -0.178793,0.631999 -0.503906,0.460936 -0.339769,-0.178773 -0.276696,-0.753052 0.09375,-0.847655 0.182984,-0.04673 0.505024,0.116045 0.625,0.365235 0.06466,0.134281 0.0652,0.216105 0.0098,0.404297 -0.181795,0.617382 -0.998984,0.619933 -2.228516,0.0098 C 9.5216897,11.668671 8.5822643,11.120408 7.9014489,10.722656 7.5982917,10.451611 7.5541443,10.488661 8.3448082,10.357422 8.5721242,10.319694 9.2368478,10.124004 9.8213707,9.9218751 10.859803,9.5627859 10.899661,9.3952703 11.53426,9.3906251 c 0.357211,-0.00264 -0.237176,-0.026232 0.355469,0 l 1.109375,0.046875 V 8.248047 L 11.713948,8.214844 C 9.9201077,8.166906 10.79402,8.262954 8.9424645,7.5351564 8.5889109,7.3961845 8.2131126,7.2298423 7.965902,7.1640627 7.5275041,7.0474087 6.8024792,6.9864013 6.3389489,7.0039064 Z M 8.0401227,7.953125 c 0.021494,0 0.7273079,0.1756086 1.2207032,0.390625 0.4933958,0.215016 0.9613051,0.4059234 1.0390611,0.4257812 0.07776,0.01986 0.140625,0.058524 0.140625,0.083984 0,0.02546 -0.296779,0.1962862 -0.6621083,0.3808594 C 9.0333773,9.6107806 8.1896892,9.7683219 7.4698102,9.8046875 L 7.294029,9.8124995 7.4854352,9.6601557 C 7.5909946,9.5755104 7.7496677,9.3791469 7.8389509,9.2246089 7.9806018,8.9794321 8.0010602,8.8816925 8.0010602,8.4492183 c 0,-0.2725934 0.017568,-0.4960946 0.039063,-0.4960933 z M 4.924888,8.0820312 c 0.08849,-0.01706 0.08901,0.1234018 0.08984,0.4023438 0.0016,0.5489372 0.131491,0.8473506 0.503907,1.1621094 L 5.762775,9.8535156 4.618244,9.7441406 C 4.010065,9.685111 3.335907,9.6242023 3.319416,9.6074219 3.982158,9.1857175 4.507682,8.58967 4.924884,8.0820312 Z"
     style="opacity:0.2;fill:#000000"
     id="path1629" />
  <path
     d="M 7.4053571,4 C 6.3665589,4 5.2719997,4.2399258 4.1475446,4.7128906 3.2322687,5.0978707 2.8412762,5.4150108 3.0577009,5.5976562 c 0.076344,0.064431 0.022652,0.077845 1.3046874,-0.34375 C 5.2385372,4.9657871 6.3169755,4.7231966 6.8994977,4.6816406 7.7989623,4.6174746 8.870231,4.8160252 10.766684,5.4003906 11.447706,5.6102375 12.230881,5.8311465 12.506918,5.890625 13.097277,6.0178316 13.159248,5.9985894 13.65145,6 h 0.347656 V 5.75 c 0,-0.2846019 -0.03945,-0.3105469 -0.464844,-0.3105469 -0.948362,0 -1.185928,-0.1304618 -2.613281,-0.6640625 C 9.3921597,4.2038549 8.466639,4 7.4053571,4 Z M 6.3389509,6.0039062 C 6.1844404,6.0097463 6.0475189,6.0253091 5.9366071,6.0488281 5.4250604,6.1572863 4.7415763,6.5512175 4.3213727,6.9511719 3.6700399,7.5711183 2.4309236,8.7311859 2.5030133,9.0234375 c 0.032463,0.131604 0.066711,0.1393861 0.640625,0.1640625 0.333163,0.014328 1.4885408,0.091659 2,0.171875 l 0.9667969,0.1464844 v 0.4082031 c -0.1604214,0.7479025 -0.046122,1.1514465 -0.017578,1.4238275 0.1069079,0.985811 0.1079658,1.09234 0.3554688,1.05664 0.3823385,-0.639756 0.4269175,-1.867122 0.4296874,-2.5742175 0.7599454,0.9110285 1.9545962,1.3929595 2.6718754,1.7421865 0.7581772,0.318086 1.7265872,0.515693 2.4589832,0.460938 0.450217,0 1.017923,-0.511699 1.017578,-1.105468 -1.85e-4,-0.457848 -0.125042,-0.706424 -0.429688,-0.853516 -0.560057,-0.270411 -1.18164,0.05025 -1.18164,0.650391 0,0.58902 0.55201,0.915325 0.917968,0.542967 0.152656,-0.155325 0.190437,-0.416674 0.08203,-0.574217 -0.04812,-0.06992 -0.05348,-0.05747 -0.02344,0.05078 0.103682,0.373555 -0.178793,0.631999 -0.503906,0.460936 -0.339769,-0.178773 -0.276696,-0.753052 0.09375,-0.847655 0.182984,-0.04673 0.505024,0.116045 0.625,0.365235 0.06466,0.134281 0.0652,0.216105 0.0098,0.404297 -0.181795,0.617382 -0.998984,0.619933 -2.228516,0.0098 C 9.5216917,10.668671 8.5822663,10.120408 7.9014509,9.7226562 7.5982937,9.4516111 7.5541463,9.4886607 8.3448102,9.3574219 8.5721262,9.3196939 9.2368498,9.1240038 9.8213727,8.921875 10.859805,8.5627858 10.899663,8.3952702 11.534262,8.390625 c 0.357211,-0.00264 -0.237176,-0.026232 0.355469,0 L 12.999106,8.4375 V 7.2480469 L 11.71395,7.2148438 C 9.9201097,7.1669061 10.794022,7.2629542 8.9424665,6.5351562 8.5889129,6.3961843 8.2131146,6.2298421 7.965904,6.1640625 7.5275061,6.0474085 6.8024812,5.9864011 6.3389509,6.0039062 Z M 8.0401227,6.953125 c 0.021494,0 0.7273079,0.1756086 1.2207032,0.390625 0.4933958,0.215016 0.9613051,0.4059234 1.0390611,0.4257812 0.07776,0.01986 0.140625,0.058524 0.140625,0.083984 0,0.02546 -0.296779,0.1962862 -0.6621083,0.3808594 C 9.0333773,8.6107806 8.1896892,8.7683219 7.4698102,8.8046875 L 7.294029,8.8125 7.4854352,8.6601562 C 7.5909946,8.5755109 7.7496677,8.3791474 7.8389509,8.2246094 7.9806018,7.9794326 8.0010602,7.881693 8.0010602,7.4492188 c 0,-0.2725934 0.017568,-0.4960946 0.039063,-0.4960938 z M 4.9248883,7.0820312 c 0.088488,-0.01706 0.089015,0.1234018 0.089844,0.4023438 0.00165,0.5489372 0.1314902,0.8473506 0.5039062,1.1621094 L 5.762779,8.8535156 4.6182477,8.7441406 C 4.010069,8.685111 3.335911,8.6242023 3.3194196,8.6074219 3.9821621,8.1857175 4.5076855,7.58967 4.9248883,7.0820312 Z"
     style="fill:#482f00"
     id="path474"
     sodipodi:nodetypes="sscssssccssssccssccccccccccsssccsscccccscccccsscssssscccsssccccccc" />
  <path
     id="rect2630"
     style="opacity:0.3;fill:#ffffff;fill-opacity:1"
     d="M 3,1 C 1.8920011,1 1,1.8920011 1,3 V 4 C 1,2.8920011 1.8920011,2 3,2 h 10 c 1.107999,0 2,0.8920011 2,2 V 3 C 15,1.8920011 14.107999,1 13,1 Z"
     sodipodi:nodetypes="sscsscsss" />
  <path
     d="M 3,15 C 1.8920011,15 1,14.107999 1,13 v -1 c 0,1.107999 0.8920011,2 2,2 h 10 c 1.107999,0 2,-0.892001 2,-2 v 1 c 0,1.107999 -0.892001,2 -2,2 z"
     style="opacity:0.3;fill:#ffffff;fill-opacity:1"
     id="path19648" />
  <path
     id="rect899"
     style="opacity:0.5;fill:#000000;stroke:none"
     d="M 3,0 C 1.3380017,0 0,1.3380017 0,3 v 10 c 0,1.661998 1.3380017,3 3,3 h 10 c 1.661998,0 3,-1.338002 3,-3 V 3 C 16,1.3380017 14.661998,0 13,0 Z m 0,1 h 10 c 1.107999,0 2,0.8920011 2,2 v 10 c 0,1.107999 -0.892001,2 -2,2 H 3 C 1.8920011,15 1,14.107999 1,13 V 3 C 1,1.8920011 1.8920011,1 3,1 Z" />
</svg>
