<?xml version="1.0" encoding="UTF-8" standalone="no"?>
<!-- Created with Inkscape (http://www.inkscape.org/) -->

<svg
   width="16"
   height="16"
   viewBox="0 0 16 16"
   version="1.1"
   id="svg5"
   sodipodi:docname="kmahjongg.svg"
   inkscape:version="1.2.1 (9c6d41e410, 2022-07-14)"
   xmlns:inkscape="http://www.inkscape.org/namespaces/inkscape"
   xmlns:sodipodi="http://sodipodi.sourceforge.net/DTD/sodipodi-0.dtd"
   xmlns:xlink="http://www.w3.org/1999/xlink"
   xmlns="http://www.w3.org/2000/svg"
   xmlns:svg="http://www.w3.org/2000/svg">
  <sodipodi:namedview
     id="namedview7"
     pagecolor="#ffffff"
     bordercolor="#666666"
     borderopacity="1.0"
     inkscape:showpageshadow="2"
     inkscape:pageopacity="0.0"
     inkscape:pagecheckerboard="0"
     inkscape:deskcolor="#d1d1d1"
     inkscape:document-units="px"
     showgrid="false"
     inkscape:zoom="32"
     inkscape:cx="5.09375"
     inkscape:cy="8.296875"
     inkscape:window-width="1920"
     inkscape:window-height="1009"
     inkscape:window-x="0"
     inkscape:window-y="0"
     inkscape:window-maximized="1"
     inkscape:current-layer="svg5" />
  <defs
     id="defs2">
    <linearGradient
       inkscape:collect="always"
       xlink:href="#linearGradient1216"
       id="linearGradient19638"
       x1="13"
       y1="16"
       x2="3"
       y2="0"
       gradientUnits="userSpaceOnUse" />
    <linearGradient
       inkscape:collect="always"
       id="linearGradient1216">
      <stop
         style="stop-color:#dc1111;stop-opacity:1;"
         offset="0"
         id="stop1212" />
      <stop
         style="stop-color:#dc5d4f;stop-opacity:1;"
         offset="1"
         id="stop1214" />
    </linearGradient>
  </defs>
  <rect
     style="fill:url(#linearGradient19638);fill-opacity:1.0;stroke:none"
     id="rect184"
     width="15"
     height="15"
     x="0.5"
     y="0.5"
     ry="2.5" />
  <path
     d="m 6.7230027,2.0986813 c -0.089509,0.078947 -0.1118836,0.1973689 -0.1118836,0.3355265 0,0.2565791 0.089504,0.5723684 0.1342582,0.6907893 0,0 0.067134,1.3815813 0.089509,1.5394762 C 6.6334936,4.6842082 6.2754682,4.7039482 6.14121,4.7434202 H 5.9621973 c -0.3804055,0.01974 -0.7384309,0.039475 -0.8950691,0.1776323 l -0.067129,0.059211 0.067129,0.078947 c 0.1118836,0.118421 0.1566382,0.4539469 0.2013927,0.8092113 0.1118836,0.7302616 0.2461364,1.6381576 0.9174436,1.9934197 l 0.1342582,0.059211 v -0.138158 c 0,0 0.022418,-0.059211 0.022418,-0.1381577 0,-0.059211 -0.022418,-0.1578954 -0.044727,-0.2960536 0.1790128,0.019735 0.5594182,0.059211 0.6936764,0.059211 C 7.0139481,7.5657888 7.5957192,14 7.5957192,14 h 0.2237672 c 0,0 0.2461473,-6.3552627 0.2461473,-6.5526311 0.1566327,0 0.8503148,0.019735 1.0516966,0.039474 -0.044727,0.118421 -0.2237619,0.6118425 -0.2237619,0.6118425 L 9.2068393,7.8421067 C 9.2963483,7.7828965 11.243119,6.2236853 10.974597,5.1973701 10.885088,4.861843 10.571817,4.6250009 10.057154,4.5065805 h -0.02242 -0.02242 c -0.2908965,0 -1.1859604,0.019735 -1.8572676,0.05921 0.022418,-0.5131581 0.022418,-0.7894756 0.022418,-0.9276338 V 3.4802618 3.4605268 c 0,-0.098685 0.1118837,-0.2368429 0.2013928,-0.3355271 0.089509,-0.1184209 0.2013927,-0.2171051 0.2013927,-0.335526 0,-0.039475 -0.022418,-0.078948 -0.044727,-0.1184209 C 8.4012687,2.4934211 7.4166906,2.0394737 6.991536,1.9999997 6.8572779,2.0197347 6.7677688,2.0394737 6.7230142,2.0986837 Z m 0.022418,3.2368448 h 0.1118838 c 0,0.1776311 0.067129,1.4210525 0.089504,1.5986841 C 6.7677954,6.9144702 6.3426409,6.8750006 6.2083827,6.8750006 6.1412536,6.6184209 6.1188736,6.3421051 6.0964991,6.0657893 6.0741354,5.828947 6.0517718,5.5921051 6.00699,5.3749989 c 0.2013927,0 0.7384309,-0.039475 0.7384309,-0.039475 z m 1.3649782,0.6118423 c 0,0 0.022364,-0.4736841 0.022364,-0.6315791 0.2908909,0.039475 0.6712963,0.05921 1.029322,0.05921 h 0.40278 c 0,0.078948 -0.022418,0.1776321 -0.022418,0.1776321 -0.044727,0.4342107 -0.1118836,0.9473678 -0.3132763,1.4605266 -0.1342528,0 -0.962193,-0.039474 -1.1412057,-0.05921 0,-0.1381582 0.022418,-1.0065791 0.022418,-1.0065791 z"
     style="display:inline;fill:#ffffff;fill-opacity:1;stroke-width:0.545455;enable-background:new"
     id="path861" />
  <path
     id="rect2630"
     style="opacity:0.3;fill:#ffffff;fill-opacity:1"
     d="M 3,1 C 1.8920011,1 1,1.8920011 1,3 V 4 C 1,2.8920011 1.8920011,2 3,2 h 10 c 1.107999,0 2,0.8920011 2,2 V 3 C 15,1.8920011 14.107999,1 13,1 Z"
     sodipodi:nodetypes="sscsscsss" />
  <path
     d="M 3,15 C 1.8920011,15 1,14.107999 1,13 v -1 c 0,1.107999 0.8920011,2 2,2 h 10 c 1.107999,0 2,-0.892001 2,-2 v 1 c 0,1.107999 -0.892001,2 -2,2 z"
     style="opacity:0.3;fill:#ffffff;fill-opacity:1"
     id="path19648" />
  <path
     id="rect899"
     style="opacity:0.5;fill:#000000;stroke:none"
     d="M 3,0 C 1.3380017,0 0,1.3380017 0,3 v 10 c 0,1.661998 1.3380017,3 3,3 h 10 c 1.661998,0 3,-1.338002 3,-3 V 3 C 16,1.3380017 14.661998,0 13,0 Z m 0,1 h 10 c 1.107999,0 2,0.8920011 2,2 v 10 c 0,1.107999 -0.892001,2 -2,2 H 3 C 1.8920011,15 1,14.107999 1,13 V 3 C 1,1.8920011 1.8920011,1 3,1 Z" />
</svg>
