<?xml version="1.0" encoding="UTF-8" standalone="no"?>
<!-- Created with Inkscape (http://www.inkscape.org/) -->

<svg
   width="16"
   height="16"
   viewBox="0 0 16 16"
   version="1.1"
   id="svg5"
   sodipodi:docname="kodi.svg"
   inkscape:version="1.2 (dc2aedaf03, 2022-05-15)"
   xmlns:inkscape="http://www.inkscape.org/namespaces/inkscape"
   xmlns:sodipodi="http://sodipodi.sourceforge.net/DTD/sodipodi-0.dtd"
   xmlns:xlink="http://www.w3.org/1999/xlink"
   xmlns="http://www.w3.org/2000/svg"
   xmlns:svg="http://www.w3.org/2000/svg">
  <sodipodi:namedview
     id="namedview7"
     pagecolor="#ffffff"
     bordercolor="#666666"
     borderopacity="1.0"
     inkscape:showpageshadow="2"
     inkscape:pageopacity="0.0"
     inkscape:pagecheckerboard="0"
     inkscape:deskcolor="#d1d1d1"
     inkscape:document-units="px"
     showgrid="false"
     inkscape:zoom="18.384776"
     inkscape:cx="-14.006154"
     inkscape:cy="10.171459"
     inkscape:window-width="1920"
     inkscape:window-height="991"
     inkscape:window-x="0"
     inkscape:window-y="0"
     inkscape:window-maximized="1"
     inkscape:current-layer="svg5" />
  <defs
     id="defs2">
    <linearGradient
       inkscape:collect="always"
       xlink:href="#linearGradient14432"
       id="linearGradient10386"
       x1="14"
       y1="17"
       x2="3.9999998"
       y2="0.99999988"
       gradientUnits="userSpaceOnUse"
       gradientTransform="translate(-0.99999976,-0.99999987)" />
    <linearGradient
       inkscape:collect="always"
       id="linearGradient14432">
      <stop
         style="stop-color:#2d8cc7;stop-opacity:1;"
         offset="0"
         id="stop14428" />
      <stop
         style="stop-color:#3cbff1;stop-opacity:1;"
         offset="1"
         id="stop14430" />
    </linearGradient>
  </defs>
  <rect
     style="fill:url(#linearGradient10386);fill-opacity:1;stroke:none"
     id="rect184"
     width="15"
     height="15"
     x="0.5000003"
     y="0.50000006"
     ry="2.5" />
  <path
     d="m 7.9901945,4.0001311 c -0.173395,0.0025 -0.3389672,0.072575 -0.461595,0.1951921 l -1.36195,1.3619529 V 9.890649 L 10.166687,5.8906111 8.4713998,4.1953232 C 8.3439668,4.0679011 8.1703852,3.9974882 7.9901945,4.0001311 Z m 3.1192925,2.8332771 -2.1666902,2.166689 2.1666902,2.1666868 1.695288,-1.695288 c 0.2603,-0.260365 0.2603,-0.6824327 0,-0.9427977 z M 4.8333045,6.8906229 3.1952273,8.5287003 c -0.2603028,0.260365 -0.2603028,0.6824327 0,0.9427977 l 1.6380772,1.638077 z m 3.166695,3.0522751 -2.1666872,2.166685 1.6952872,1.69529 c 0.2603678,0.260305 0.6824353,0.260305 0.9428003,0 l 1.6952872,-1.69529 z"
     style="color:#000000;font-style:normal;font-variant:normal;font-weight:normal;font-stretch:normal;font-size:medium;line-height:normal;font-family:sans-serif;text-indent:0;text-align:start;text-decoration:none;text-decoration-line:none;text-decoration-style:solid;text-decoration-color:#000000;letter-spacing:normal;word-spacing:normal;text-transform:none;writing-mode:lr-tb;direction:ltr;baseline-shift:baseline;text-anchor:start;white-space:normal;clip-rule:nonzero;display:inline;overflow:visible;visibility:visible;opacity:0.2;isolation:auto;mix-blend-mode:normal;color-interpolation:sRGB;color-interpolation-filters:linearRGB;solid-color:#000000;solid-opacity:1;fill:#000000;fill-opacity:1;fill-rule:evenodd;stroke:none;stroke-width:16;stroke-linecap:butt;stroke-linejoin:round;stroke-miterlimit:4;stroke-dasharray:none;stroke-dashoffset:0;stroke-opacity:1;color-rendering:auto;image-rendering:auto;shape-rendering:auto;text-rendering:auto;enable-background:accumulate"
     id="path14442" />
  <path
     d="m 7.9901945,3.0000501 c -0.173395,0.0025 -0.3389672,0.072575 -0.461595,0.1951921 l -1.36195,1.3619529 V 8.8905683 L 10.166687,4.8905301 8.4713998,3.1952422 C 8.3439668,3.0678201 8.1703852,2.9974073 7.9901945,3.0000501 Z M 11.109487,5.8333272 8.9427968,8.0000153 11.109487,10.166703 12.804775,8.4714153 c 0.2603,-0.260365 0.2603,-0.682432 0,-0.9427977 z M 4.8333045,5.8905415 3.1952273,7.528619 c -0.2603028,0.2603657 -0.2603028,0.6824333 0,0.9427983 l 1.6380772,1.6380767 z m 3.166695,3.0522758 -2.1666872,2.1666847 1.6952872,1.695291 c 0.2603678,0.260305 0.6824353,0.260305 0.9428003,0 l 1.6952872,-1.695291 z"
     style="color:#000000;font-style:normal;font-variant:normal;font-weight:normal;font-stretch:normal;font-size:medium;line-height:normal;font-family:sans-serif;text-indent:0;text-align:start;text-decoration:none;text-decoration-line:none;text-decoration-style:solid;text-decoration-color:#000000;letter-spacing:normal;word-spacing:normal;text-transform:none;writing-mode:lr-tb;direction:ltr;baseline-shift:baseline;text-anchor:start;white-space:normal;clip-rule:nonzero;display:inline;overflow:visible;visibility:visible;isolation:auto;mix-blend-mode:normal;color-interpolation:sRGB;color-interpolation-filters:linearRGB;solid-color:#000000;solid-opacity:1;fill:#ffffff;fill-opacity:1;fill-rule:evenodd;stroke:none;stroke-width:16;stroke-linecap:butt;stroke-linejoin:round;stroke-miterlimit:4;stroke-dasharray:none;stroke-dashoffset:0;stroke-opacity:1;color-rendering:auto;image-rendering:auto;shape-rendering:auto;text-rendering:auto;enable-background:accumulate"
     id="path13877"
     sodipodi:nodetypes="cccccccccccccccccccccccc" />
  <path
     id="rect2630"
     style="opacity:0.3;fill:#ffffff;fill-opacity:1"
     d="M 3,1 C 1.8920011,1 1,1.8920011 1,3 V 4 C 1,2.8920011 1.8920011,2 3,2 h 10 c 1.107999,0 2,0.8920011 2,2 V 3 C 15,1.8920011 14.107999,1 13,1 Z"
     sodipodi:nodetypes="sscsscsss" />
  <path
     d="M 3,15 C 1.8920011,15 1,14.107999 1,13 v -1 c 0,1.107999 0.8920011,2 2,2 h 10 c 1.107999,0 2,-0.892001 2,-2 v 1 c 0,1.107999 -0.892001,2 -2,2 z"
     style="opacity:0.3;fill:#ffffff;fill-opacity:1"
     id="path19648" />
  <path
     id="rect899"
     style="opacity:0.5;fill:#000000;stroke:none"
     d="M 3,0 C 1.3380017,0 0,1.3380017 0,3 v 10 c 0,1.661998 1.3380017,3 3,3 h 10 c 1.661998,0 3,-1.338002 3,-3 V 3 C 16,1.3380017 14.661998,0 13,0 Z m 0,1 h 10 c 1.107999,0 2,0.8920011 2,2 v 10 c 0,1.107999 -0.892001,2 -2,2 H 3 C 1.8920011,15 1,14.107999 1,13 V 3 C 1,1.8920011 1.8920011,1 3,1 Z" />
</svg>
