<?xml version="1.0" encoding="UTF-8" standalone="no"?>
<!-- Created with Inkscape (http://www.inkscape.org/) -->

<svg
   width="16"
   height="16"
   viewBox="0 0 16 16"
   version="1.1"
   id="svg5"
   sodipodi:docname="kontact.svg"
   inkscape:version="1.2.1 (9c6d41e410, 2022-07-14)"
   xmlns:inkscape="http://www.inkscape.org/namespaces/inkscape"
   xmlns:sodipodi="http://sodipodi.sourceforge.net/DTD/sodipodi-0.dtd"
   xmlns:xlink="http://www.w3.org/1999/xlink"
   xmlns="http://www.w3.org/2000/svg"
   xmlns:svg="http://www.w3.org/2000/svg">
  <sodipodi:namedview
     id="namedview7"
     pagecolor="#ffffff"
     bordercolor="#666666"
     borderopacity="1.0"
     inkscape:showpageshadow="2"
     inkscape:pageopacity="0.0"
     inkscape:pagecheckerboard="0"
     inkscape:deskcolor="#d1d1d1"
     inkscape:document-units="px"
     showgrid="false"
     inkscape:zoom="17.456699"
     inkscape:cx="3.6089297"
     inkscape:cy="17.987364"
     inkscape:window-width="1920"
     inkscape:window-height="1012"
     inkscape:window-x="0"
     inkscape:window-y="0"
     inkscape:window-maximized="1"
     inkscape:current-layer="svg5" />
  <defs
     id="defs2">
    <linearGradient
       inkscape:collect="always"
       xlink:href="#linearGradient986"
       id="linearGradient19638"
       x1="8"
       y1="15.5"
       x2="8"
       y2="0"
       gradientUnits="userSpaceOnUse" />
    <linearGradient
       inkscape:collect="always"
       id="linearGradient986">
      <stop
         style="stop-color:#ffa12a;stop-opacity:1;"
         offset="0"
         id="stop982" />
      <stop
         style="stop-color:#ffdc75;stop-opacity:1;"
         offset="1"
         id="stop984" />
    </linearGradient>
  </defs>
  <rect
     style="fill:url(#linearGradient19638);fill-opacity:1;stroke:none"
     id="rect184"
     width="15"
     height="15"
     x="0.5"
     y="0.5"
     ry="2.5" />
  <path
     d="M 8,4 C 5.2385759,4 3,6.2385763 3,9 c 0,2.761424 2.2385759,5 5,5 h 3.5 C 11.777,14 12,13.777 12,13.5 12,13.223 11.777,13 11.5,13 H 8 C 5.7908609,13 3.9999999,11.209139 3.9999999,9 3.9999999,6.790861 5.7908609,5 8,5 c 2.209139,0 4,1.790861 4,4 v 1.5 C 12,10.777 11.777,11 11.5,11 11.223,11 11,10.777 11,10.5 V 9 C 11,7.343146 9.6568537,6 8,6 6.3431459,6 4.9999999,7.343146 4.9999999,9 c 0,1.656854 1.343146,3 3.0000001,3 0.800691,-6.12e-4 1.5679126,-0.321277 2.1309,-0.89062 0.233,0.525 0.756,0.891 1.369,0.891 0.831,0 1.5,-0.669 1.5,-1.5 v -1.5 c 0,-2.7614237 -2.238576,-5 -5.0000001,-5 z M 8,7 C 9.104569,7 9.9999998,7.895431 9.9999998,9 9.9999998,10.104569 9.104569,11 8,11 6.8954309,11 5.9999999,10.104569 5.9999999,9 5.9999999,7.895431 6.8954309,7 8,7 Z"
     style="opacity:0.2;fill:#000000"
     id="path4522" />
  <path
     d="m 8.0000502,3 c -2.7614241,0 -5,2.2385763 -5,5 0,2.761424 2.2385759,5 5,5 H 11.50005 c 0.277,0 0.5,-0.223 0.5,-0.5 0,-0.277 -0.223,-0.5 -0.5,-0.5 H 8.0000502 C 5.7909111,12 4.0000501,10.209139 4.0000501,8 c 0,-2.209139 1.790861,-4 4.0000001,-4 2.2091388,0 3.9999998,1.790861 3.9999998,4 v 1.5 c 0,0.277 -0.223,0.4999996 -0.5,0.4999996 -0.277,0 -0.5,-0.2229996 -0.5,-0.4999996 V 8 c 0,-1.656854 -1.3431461,-3 -2.9999998,-3 -1.6568541,0 -3.0000001,1.343146 -3.0000001,3 0,1.656854 1.343146,3 3.0000001,3 0.800691,-6.12e-4 1.5679126,-0.321277 2.1308998,-0.89062 0.233,0.525 0.756,0.891 1.369,0.891 0.831,0 1.5,-0.669 1.5,-1.5 v -1.5 c 0,-2.7614237 -2.238576,-5 -4.9999999,-5 z m 0,3 c 1.104569,0 1.9999998,0.895431 1.9999998,2 0,1.104569 -0.8954308,1.9999996 -1.9999998,1.9999996 C 6.8954811,9.9999996 6.0000501,9.104569 6.0000501,8 c 0,-1.104569 0.895431,-2 2.0000001,-2 z"
     style="fill:#4d4d4d"
     id="path4336"
     sodipodi:nodetypes="csssssssssssssssccsssccsssss" />
  <path
     id="rect2630"
     style="opacity:0.3;fill:#ffffff;fill-opacity:1"
     d="M 3,1 C 1.8920011,1 1,1.8920011 1,3 V 4 C 1,2.8920011 1.8920011,2 3,2 h 10 c 1.107999,0 2,0.8920011 2,2 V 3 C 15,1.8920011 14.107999,1 13,1 Z"
     sodipodi:nodetypes="sscsscsss" />
  <path
     d="M 3,15 C 1.8920011,15 1,14.107999 1,13 v -1 c 0,1.107999 0.8920011,2 2,2 h 10 c 1.107999,0 2,-0.892001 2,-2 v 1 c 0,1.107999 -0.892001,2 -2,2 z"
     style="opacity:0.3;fill:#ffffff;fill-opacity:1"
     id="path19648" />
  <path
     id="rect899"
     style="opacity:0.5;fill:#000000;stroke:none"
     d="M 3,0 C 1.3380017,0 0,1.3380017 0,3 v 10 c 0,1.661998 1.3380017,3 3,3 h 10 c 1.661998,0 3,-1.338002 3,-3 V 3 C 16,1.3380017 14.661998,0 13,0 Z m 0,1 h 10 c 1.107999,0 2,0.8920011 2,2 v 10 c 0,1.107999 -0.892001,2 -2,2 H 3 C 1.8920011,15 1,14.107999 1,13 V 3 C 1,1.8920011 1.8920011,1 3,1 Z" />
</svg>
