<?xml version="1.0" encoding="UTF-8" standalone="no"?>
<!-- Created with Inkscape (http://www.inkscape.org/) -->

<svg
   width="16"
   height="16"
   viewBox="0 0 16 16"
   version="1.1"
   id="svg5"
   sodipodi:docname="korganizer.svg"
   inkscape:version="1.2.1 (9c6d41e410, 2022-07-14)"
   xmlns:inkscape="http://www.inkscape.org/namespaces/inkscape"
   xmlns:sodipodi="http://sodipodi.sourceforge.net/DTD/sodipodi-0.dtd"
   xmlns:xlink="http://www.w3.org/1999/xlink"
   xmlns="http://www.w3.org/2000/svg"
   xmlns:svg="http://www.w3.org/2000/svg">
  <sodipodi:namedview
     id="namedview7"
     pagecolor="#ffffff"
     bordercolor="#666666"
     borderopacity="1.0"
     inkscape:showpageshadow="2"
     inkscape:pageopacity="0.0"
     inkscape:pagecheckerboard="0"
     inkscape:deskcolor="#d1d1d1"
     inkscape:document-units="px"
     showgrid="false"
     inkscape:zoom="51.3125"
     inkscape:cx="8"
     inkscape:cy="8"
     inkscape:window-width="1920"
     inkscape:window-height="1007"
     inkscape:window-x="0"
     inkscape:window-y="0"
     inkscape:window-maximized="1"
     inkscape:current-layer="svg5" />
  <defs
     id="defs2">
    <linearGradient
       inkscape:collect="always"
       xlink:href="#linearGradient22024"
       id="linearGradient19638"
       x1="8"
       y1="16"
       x2="8"
       y2="4"
       gradientUnits="userSpaceOnUse" />
    <linearGradient
       inkscape:collect="always"
       id="linearGradient22024">
      <stop
         style="stop-color:#dedede;stop-opacity:1;"
         offset="0"
         id="stop22020" />
      <stop
         style="stop-color:#f2f2f2;stop-opacity:1;"
         offset="1"
         id="stop22022" />
    </linearGradient>
  </defs>
  <rect
     style="fill:url(#linearGradient19638);fill-opacity:1;stroke:none"
     id="rect184"
     width="15"
     height="15"
     x="0.5"
     y="0.5"
     ry="2.5" />
  <path
     d="M 3,7 V 8 H 4 V 7 Z m 2,0 v 1 h 8 V 7 Z m -2,6 v 1 h 1 v -1 z m 2,0 v 1 h 8 V 13 Z M 3.5,9 C 2.6715729,9 2,9.6715729 2,10.5 2,11.328427 2.6715729,12 3.5,12 4.3284271,12 5,11.328427 5,10.5 5,9.6715729 4.3284271,9 3.5,9 Z M 6,10 v 1 h 7 v -1 z"
     style="fill:#ffffff;fill-opacity:1;stroke-linecap:round;stroke-linejoin:round;opacity:0.5"
     id="path3656" />
  <path
     id="rect348"
     style="fill:#abc837;fill-opacity:1;stroke-width:0.263523;stroke-linejoin:round"
     d="M 3,0.5 C 1.6150014,0.5 0.5,1.6150014 0.5,3 v 2 h 15 V 3 C 15.5,1.6150014 14.384999,0.5 13,0.5 Z"
     sodipodi:nodetypes="ssccsss" />
  <rect
     style="opacity:0.2;fill:#000000;stroke-width:0.484123;stroke-linejoin:round"
     id="rect581"
     width="15"
     height="1"
     x="0.5"
     y="4" />
  <path
     id="rect349"
     style="opacity:1;fill:#e06262;fill-opacity:1;stroke-linecap:round;stroke-linejoin:round"
     d="M 3.5,8 C 2.6715729,8 2,8.6715729 2,9.5 2,10.328427 2.6715729,11 3.5,11 4.3284271,11 5,10.328427 5,9.5 5,8.6715729 4.3284271,8 3.5,8 Z M 6,9 v 1 h 7 V 9 Z"
     sodipodi:nodetypes="sssssccccc" />
  <path
     id="rect376"
     style="opacity:1;fill:#929292;fill-opacity:1;stroke-linecap:round;stroke-linejoin:round"
     d="M 3,6 V 7 H 4 V 6 Z m 2,0 v 1 h 8 V 6 Z m -2,6 v 1 h 1 v -1 z m 2,0 v 1 h 8 v -1 z"
     sodipodi:nodetypes="cccccccccccccccccccc" />
  <rect
     style="opacity:1;fill:#ffffff;fill-opacity:1;stroke-linecap:round;stroke-linejoin:round"
     id="rect2834"
     width="1"
     height="1"
     x="3"
     y="9" />
  <path
     id="rect2630"
     style="opacity:0.3;fill:#ffffff;fill-opacity:1"
     d="M 3,1 C 1.8920011,1 1,1.8920011 1,3 V 4 C 1,2.8920011 1.8920011,2 3,2 h 10 c 1.107999,0 2,0.8920011 2,2 V 3 C 15,1.8920011 14.107999,1 13,1 Z"
     sodipodi:nodetypes="sscsscsss" />
  <path
     d="M 3,15 C 1.8920011,15 1,14.107999 1,13 v -1 c 0,1.107999 0.8920011,2 2,2 h 10 c 1.107999,0 2,-0.892001 2,-2 v 1 c 0,1.107999 -0.892001,2 -2,2 z"
     style="opacity:0.3;fill:#ffffff;fill-opacity:1"
     id="path19648" />
  <path
     id="rect899"
     style="opacity:0.5;fill:#000000;stroke:none"
     d="M 3,0 C 1.3380017,0 0,1.3380017 0,3 v 10 c 0,1.661998 1.3380017,3 3,3 h 10 c 1.661998,0 3,-1.338002 3,-3 V 3 C 16,1.3380017 14.661998,0 13,0 Z m 0,1 h 10 c 1.107999,0 2,0.8920011 2,2 v 10 c 0,1.107999 -0.892001,2 -2,2 H 3 C 1.8920011,15 1,14.107999 1,13 V 3 C 1,1.8920011 1.8920011,1 3,1 Z" />
</svg>
