<?xml version="1.0" encoding="UTF-8" standalone="no"?>
<!-- Created with Inkscape (http://www.inkscape.org/) -->

<svg
   width="16"
   height="16"
   viewBox="0 0 16 16"
   version="1.1"
   id="svg5"
   sodipodi:docname="ktorrent.svg"
   inkscape:version="1.2.1 (9c6d41e410, 2022-07-14)"
   xmlns:inkscape="http://www.inkscape.org/namespaces/inkscape"
   xmlns:sodipodi="http://sodipodi.sourceforge.net/DTD/sodipodi-0.dtd"
   xmlns:xlink="http://www.w3.org/1999/xlink"
   xmlns="http://www.w3.org/2000/svg"
   xmlns:svg="http://www.w3.org/2000/svg">
  <sodipodi:namedview
     id="namedview7"
     pagecolor="#ffffff"
     bordercolor="#666666"
     borderopacity="1.0"
     inkscape:showpageshadow="2"
     inkscape:pageopacity="0.0"
     inkscape:pagecheckerboard="0"
     inkscape:deskcolor="#d1d1d1"
     inkscape:document-units="px"
     showgrid="false"
     inkscape:zoom="49.6875"
     inkscape:cx="8.0201258"
     inkscape:cy="8"
     inkscape:window-width="1920"
     inkscape:window-height="1007"
     inkscape:window-x="0"
     inkscape:window-y="0"
     inkscape:window-maximized="1"
     inkscape:current-layer="svg5" />
  <defs
     id="defs2">
    <linearGradient
       inkscape:collect="always"
       id="linearGradient1265">
      <stop
         style="stop-color:#2d7ff3;stop-opacity:1;"
         offset="0"
         id="stop1261" />
      <stop
         style="stop-color:#2cdbfa;stop-opacity:1;"
         offset="1"
         id="stop1263" />
    </linearGradient>
    <linearGradient
       inkscape:collect="always"
       xlink:href="#linearGradient1265"
       id="linearGradient19638"
       x1="13"
       y1="16"
       x2="3"
       y2="0"
       gradientUnits="userSpaceOnUse" />
  </defs>
  <rect
     style="fill:url(#linearGradient19638);fill-opacity:1.0;stroke:none"
     id="rect184"
     width="15"
     height="15"
     x="0.5"
     y="0.5"
     ry="2.5" />
  <path
     d="m 6.125,3.9999999 v 4.13086 1.364745 C 5.962564,9.5732109 5.8006375,9.7550419 5.6623535,9.8959959 5.4347989,10.127453 5.2322599,10.143415 5.0703124,10.004639 4.90861,9.8661059 5.0496224,9.4888789 4.8627935,9.1098629 4.676213,8.7308489 4.3058555,8.9196899 4.2536624,9.1757809 c -0.052194,0.25609 0.4684046,0.429098 0.3674316,0.571289 -0.100973,0.142191 -0.5047576,0.109351 -0.6237791,-0.158691 -0.1187775,-0.268041 -0.378179,-0.1802 -0.383301,0.03907 -0.00512,0.219507 0.2008445,0.06535 0.3613285,0.225829 L 8.1220701,14.000008 12.267578,9.8532779 c 0.487792,-0.487791 -0.07043,-0.278209 -0.185546,-0.168457 -0.114877,0.109754 -0.470746,0.198367 -0.512695,0.07813 -0.04171,-0.120241 0.398317,-0.321913 0.523681,-0.457764 0.125362,-0.13585 0.247843,-0.521383 0.04517,-0.662841 -0.20268,-0.141461 -0.489383,0.11347 -0.614014,0.301513 -0.125362,0.188044 -0.01702,0.667871 -0.184326,0.814208 -0.167313,0.146339 -0.259308,0.057 -0.290527,-0.06836 -0.03146,-0.125362 0.361163,-0.302069 0.196533,-0.614012 -0.164874,-0.311944 -0.46938,-0.170511 -0.610352,-0.02441 -0.140971,0.146338 0.08428,0.371812 0.136719,0.601807 0.05219,0.229993 -0.481899,0.224037 -0.690919,0.14038 -0.09132,-0.03655 -0.1552343,-0.157453 -0.2063013,-0.284423 v -5.509049 z m -2.2033691,3.75 c -0.165039,0.0084 -0.2966305,0.145391 -0.2966305,0.3125 0,0.172499 0.14,0.3125 0.3125,0.3125 0.1725,0 0.3125,-0.140001 0.3125,-0.3125 0,-0.1725 -0.14,-0.3125 -0.3125,-0.3125 -0.00537,0 -0.010545,-2.75e-4 -0.015869,0 z m 1.7028811,0 c -0.093464,0.0041 -0.2028296,0.09355 -0.090332,0.217285 0.1597526,0.176135 0.2449741,0.490175 0.1025391,0.552979 -0.1431676,0.06281 -0.1338016,-0.234128 -0.1464841,-0.391846 -0.01244,-0.157717 -0.407862,-0.252865 -0.5541994,-0.05738 -0.1463375,0.195494 3.75e-4,0.40672 0.1452634,0.449219 0.144874,0.04273 0.167811,0.202947 0.253906,0.369872 0.08634,0.166925 0.5054741,0.125135 0.6079106,0 0.102436,-0.125135 0.1665475,-0.35789 -0.032955,-0.572509 -0.1995075,-0.214618 -0.13897,-0.41413 -0.192871,-0.523682 -0.013415,-0.02739 -0.04227,-0.04111 -0.074463,-0.04395 -0.00598,-5e-4 -0.01208,-2.75e-4 -0.018315,0 z m 5.79712,0 c -0.16504,0.0084 -0.296632,0.145391 -0.296632,0.3125 0,0.172499 0.14,0.3125 0.3125,0.3125 0.1725,0 0.3125,-0.140001 0.3125,-0.3125 0,-0.1725 -0.14,-0.3125 -0.3125,-0.3125 -0.0053,0 -0.01054,-2.75e-4 -0.01587,0 z m -1.118166,0.103759 c -0.112691,0.0025 -0.161846,0.22986 -0.190428,0.444337 -0.03049,0.228774 -0.1454104,0.465621 -0.04639,0.511474 0.137313,0.06097 0.207431,-0.315082 0.362549,-0.455321 0.155118,-0.140485 0.02698,-0.467561 -0.10254,-0.498048 -0.0081,-0.0019 -0.01568,-0.0027 -0.02319,-0.0024 z m -7.0593251,0.65796 c -0.1346305,0 -0.2441405,0.10951 -0.2441405,0.24414 0,0.134632 0.10951,0.244141 0.2441405,0.244141 0.1346305,0 0.2441406,-0.109509 0.2441406,-0.244141 0,-0.13463 -0.1095101,-0.24414 -0.2441406,-0.24414 z m 9.4995111,0.490723 c -0.128808,0.0065 -0.231933,0.113716 -0.231933,0.24414 0,0.134631 0.10951,0.24292 0.24414,0.24292 0.134631,0 0.244141,-0.108289 0.244141,-0.24292 0,-0.134631 -0.10951,-0.24414 -0.244141,-0.24414 -0.0042,0 -0.0081,-2.1e-4 -0.0122,0 z"
     style="opacity:0.2;fill:#000000;fill-opacity:1;stroke-width:1.25;stroke-linecap:round;stroke-linejoin:round"
     id="path3386" />
  <rect
     style="fill:#ffffff;fill-opacity:1;stroke-width:1.29099;stroke-linecap:round;stroke-linejoin:round"
     id="rect919"
     width="4.0000005"
     height="6.2499275"
     x="5.9999404"
     y="3" />
  <path
     d="m 6.9062051,6.7439738 c -0.016345,0.00195 -0.032245,0.0066 -0.047605,0.01343 -0.12341,0.054144 -0.164631,0.2305926 -0.00245,0.6005791 0.1624339,0.369987 0.3941609,0.626647 0.5175719,0.572503 0.123413,-0.05414 0.09139,-0.397824 -0.0708,-0.767812 C 7.160971,6.8387838 7.021311,6.7310533 6.9061936,6.7451998 Z m -2.9845847,0.0061 c -0.165038,0.00838 -0.296627,0.145389 -0.296627,0.3124961 0,0.172498 0.139998,0.312497 0.312496,0.312497 0.172498,0 0.3124965,-0.139999 0.3124965,-0.312497 0,-0.1724976 -0.1399985,-0.3124961 -0.3124965,-0.3124961 -0.00538,0 -0.010545,-2.75e-4 -0.01587,5e-7 z m 1.7028611,0 c -0.093464,0.0041 -0.2028271,0.09355 -0.090331,0.2172826 0.1597505,0.1761315 0.2449715,0.4901695 0.102538,0.5529725 -0.1431661,0.0628 -0.1338006,-0.234126 -0.1464826,-0.391842 -0.01244,-0.157715 -0.407857,-0.2528641 -0.5541929,-0.05738 -0.1463365,0.195492 3.75e-4,0.406716 0.1452619,0.449215 0.1448725,0.04273 0.1678085,0.202944 0.253903,0.369868 0.086339,0.166924 0.5054681,0.125134 0.6079031,0 C 6.0455165,7.7650589 6.1096275,7.5323059 5.910126,7.3176889 5.7106215,7.1030729 5.771158,6.9035653 5.717258,6.7940143 5.703843,6.7666243 5.674988,6.7528993 5.642796,6.7500693 c -0.00597,-5e-4 -0.01208,-2.75e-4 -0.018315,0 z m 5.7970515,0 c -0.165037,0.00838 -0.296627,0.145389 -0.296627,0.3124961 0,0.172498 0.139998,0.312497 0.312496,0.312497 0.172498,0 0.312497,-0.139999 0.312497,-0.312497 0,-0.1724976 -0.139999,-0.3124961 -0.312497,-0.3124961 -0.0053,0 -0.01054,-2.75e-4 -0.01587,0 z m -1.118151,0.103759 c -0.112691,0.00255 -0.161846,0.2298561 -0.190428,0.4443301 -0.03048,0.228773 -0.1454084,0.465617 -0.04639,0.511469 0.137312,0.06097 0.207428,-0.315078 0.362545,-0.455317 0.155116,-0.140483 0.02698,-0.4675546 -0.102539,-0.4980411 -0.0081,-0.0019 -0.01567,-0.00265 -0.02319,-0.00245 z m -3.93428,0.032955 c -0.1346295,-10e-7 -0.244138,0.1095081 -0.244138,0.2441371 0,0.134629 0.1095085,0.244138 0.244138,0.244138 0.1346286,0 0.2441376,-0.109509 0.2441376,-0.244138 0,-0.134629 -0.109509,-0.2441381 -0.2441376,-0.2441371 z m 2.76486,0.073242 C 8.975429,6.9717348 8.818458,7.2424409 8.7409,7.4299949 8.65212,7.6441339 8.75948,8.0619799 8.550473,8.2185599 8.3414561,8.3753829 8.188556,8.3788949 8.08417,8.3162099 7.979783,8.2535299 8.17268,8.2620199 8.0561001,8.0232449 7.939275,7.7844719 7.660523,7.8591259 7.587356,8.0452149 c -0.07317,0.186091 0.07807,0.17711 0.02563,0.286861 -0.05219,0.109753 -0.496432,0.22916 -0.595696,-0.100096 -0.09927,-0.329256 -0.4517694,-0.688135 -0.5615215,-0.599358 -0.1097525,0.08878 0.01298,0.416272 0.3002896,0.677482 0.2873069,0.26121 -0.073736,0.401654 -0.3234826,0.205076 C 6.182828,8.3183679 5.889629,8.6643459 5.6623205,8.8960449 5.4347679,9.1274989 5.2322319,9.1434609 5.0702864,9.0046859 4.9085855,8.8661539 5.0495964,8.4889319 4.8627695,8.1099199 4.676191,7.7309099 4.305839,7.9197499 4.2536459,8.1758379 c -0.052193,0.256088 0.4683986,0.429092 0.3674271,0.571282 -0.100972,0.14219 -0.5047516,0.109349 -0.6237721,-0.15869 -0.118776,-0.268039 -0.3781745,-0.180197 -0.383296,0.03906 -0.00513,0.219505 0.200842,0.06535 0.3613235,0.225828 L 8.122009,12.999998 12.267468,8.8533179 c 0.487787,-0.487787 -0.07043,-0.278207 -0.185544,-0.168455 -0.114875,0.109752 -0.47074,0.198364 -0.512689,0.07812 -0.04171,-0.120239 0.398313,-0.32191 0.523675,-0.457758 0.125361,-0.135849 0.247843,-0.521376 0.04517,-0.662834 -0.202679,-0.141458 -0.48938,0.113468 -0.61401,0.301509 -0.12536,0.188043 -0.01702,0.667864 -0.184323,0.8142 -0.167311,0.146336 -0.259306,0.057 -0.290525,-0.06836 -0.03146,-0.125362 0.361159,-0.302067 0.196532,-0.614007 -0.164873,-0.31194 -0.469375,-0.170506 -0.610345,-0.02441 -0.140971,0.146336 0.08428,0.371808 0.136717,0.6018 0.05219,0.229992 -0.481893,0.224035 -0.69091,0.140379 -0.2090154,-0.08365 -0.2774294,-0.608178 -0.366206,-0.639641 -0.08878,-0.03146 -0.315471,0.174226 -0.603021,0.08545 -0.287307,-0.08878 -0.04849,-0.267052 0.04028,-0.476069 0.08878,-0.209017 0.229554,-0.711985 0.05005,-0.7910065 -0.02244,-0.01 -0.04592,-0.01391 -0.06836,-0.012205 z M 3.2441383,7.5118049 c -0.134629,0 -0.244138,0.109509 -0.244138,0.244138 0,0.13463 0.109509,0.244139 0.244138,0.244139 0.134629,0 0.2441376,-0.109509 0.2441376,-0.244139 0,-0.134629 -0.1095085,-0.244138 -0.2441376,-0.244138 z m 9.4994007,0.490717 c -0.128807,0.0065 -0.231931,0.113716 -0.231931,0.244138 0,0.13463 0.109509,0.242918 0.244138,0.242918 0.134629,0 0.244138,-0.108288 0.244138,-0.242918 0,-0.134629 -0.109509,-0.244138 -0.244138,-0.244138 -0.0042,0 -0.008,-2.1e-4 -0.0122,0 z"
     style="fill:#a6d7ff;fill-opacity:1;stroke-width:0.62499"
     id="path449"
     sodipodi:nodetypes="ccccccccssssccsccsccsscccsscsssscscccccscssscscscsccssccccssccsccccssccccccsscccccsssssssssssss" />
  <path
     id="rect2630"
     style="opacity:0.3;fill:#ffffff;fill-opacity:1"
     d="M 3,1 C 1.8920011,1 1,1.8920011 1,3 V 4 C 1,2.8920011 1.8920011,2 3,2 h 10 c 1.107999,0 2,0.8920011 2,2 V 3 C 15,1.8920011 14.107999,1 13,1 Z"
     sodipodi:nodetypes="sscsscsss" />
  <path
     d="M 3,15 C 1.8920011,15 1,14.107999 1,13 v -1 c 0,1.107999 0.8920011,2 2,2 h 10 c 1.107999,0 2,-0.892001 2,-2 v 1 c 0,1.107999 -0.892001,2 -2,2 z"
     style="opacity:0.3;fill:#ffffff;fill-opacity:1"
     id="path19648" />
  <path
     id="rect899"
     style="opacity:0.5;fill:#000000;stroke:none"
     d="M 3,0 C 1.3380017,0 0,1.3380017 0,3 v 10 c 0,1.661998 1.3380017,3 3,3 h 10 c 1.661998,0 3,-1.338002 3,-3 V 3 C 16,1.3380017 14.661998,0 13,0 Z m 0,1 h 10 c 1.107999,0 2,0.8920011 2,2 v 10 c 0,1.107999 -0.892001,2 -2,2 H 3 C 1.8920011,15 1,14.107999 1,13 V 3 C 1,1.8920011 1.8920011,1 3,1 Z" />
</svg>
