<?xml version="1.0" encoding="UTF-8" standalone="no"?>
<!-- Created with Inkscape (http://www.inkscape.org/) -->

<svg
   width="16"
   height="16"
   viewBox="0 0 16 16"
   version="1.1"
   id="svg5"
   sodipodi:docname="libreoffice-draw.svg"
   inkscape:version="1.2.1 (9c6d41e410, 2022-07-14)"
   xmlns:inkscape="http://www.inkscape.org/namespaces/inkscape"
   xmlns:sodipodi="http://sodipodi.sourceforge.net/DTD/sodipodi-0.dtd"
   xmlns:xlink="http://www.w3.org/1999/xlink"
   xmlns="http://www.w3.org/2000/svg"
   xmlns:svg="http://www.w3.org/2000/svg">
  <sodipodi:namedview
     id="namedview7"
     pagecolor="#ffffff"
     bordercolor="#666666"
     borderopacity="1.0"
     inkscape:showpageshadow="2"
     inkscape:pageopacity="0.0"
     inkscape:pagecheckerboard="0"
     inkscape:deskcolor="#d1d1d1"
     inkscape:document-units="px"
     showgrid="false"
     inkscape:zoom="49.375"
     inkscape:cx="8.0101266"
     inkscape:cy="6.3898734"
     inkscape:window-width="1920"
     inkscape:window-height="1007"
     inkscape:window-x="0"
     inkscape:window-y="0"
     inkscape:window-maximized="1"
     inkscape:current-layer="svg5" />
  <defs
     id="defs2">
    <linearGradient
       inkscape:collect="always"
       xlink:href="#linearGradient986"
       id="linearGradient19638"
       x1="13"
       y1="16"
       x2="3"
       y2="0"
       gradientUnits="userSpaceOnUse" />
    <linearGradient
       inkscape:collect="always"
       id="linearGradient986">
      <stop
         style="stop-color:#ffa12a;stop-opacity:1;"
         offset="0"
         id="stop982" />
      <stop
         style="stop-color:#ffdc75;stop-opacity:1;"
         offset="1"
         id="stop984" />
    </linearGradient>
  </defs>
  <rect
     style="fill:url(#linearGradient19638);fill-opacity:1.0;stroke:none"
     id="rect184"
     width="15"
     height="15"
     x="0.5"
     y="0.5"
     ry="2.5" />
  <path
     d="m 11.597525,5.233618 c -0.233516,-0.078947 -0.541175,-0.1295699 -0.84081,0.037109 -0.463939,0.2580593 -0.633524,0.7861013 -0.633781,1.221664 -2.57e-4,0.435563 0.106518,0.863293 0.199216,1.268539 0.0927,0.405246 0.17135,0.788513 0.168944,1.033191 -0.0024,0.244679 -0.01136,0.264118 -0.115233,0.316402 -0.106194,0.05345 -0.144479,0.04958 -0.191405,0.04004 C 10.137536,9.141063 10.064199,9.107293 9.9627803,9.019705 9.7599403,8.844536 9.4944923,8.47134 9.1913053,8.060732 8.8881173,7.650124 8.5364043,7.196628 8.0458113,6.865434 7.5552193,6.53424 6.8982135,6.355776 6.165952,6.522665 l -0.00976,0.002 -0.00976,0.003 C 5.6411581,6.66456 5.2755741,7.045723 5.0292576,7.489567 4.7829417,7.933411 4.6355765,8.460473 4.5634428,9.016892 c -0.0038,0.02934 0.0044,0.06034 0.001,0.08984 C 4.4686948,9.102032 4.387342,9.066842 4.2910087,9.064742 L 3.5224539,9.048048 3.02246,9.036328 3,10.036316 l 0.4999939,0.01172 0.7695215,0.0166 c 0.1107322,0.0024 0.1935427,0.0395 0.3027308,0.0459 0.035585,0.777629 0.1672705,1.545347 0.5478448,2.161106 l 0.00976,0.01563 0.01074,0.01563 c 0.6353177,0.875172 1.712741,1.136875 2.540984,0.814443 0.4141223,-0.161217 0.7837573,-0.513466 0.8954973,-0.996082 0.11174,-0.482615 -0.02737,-1.024683 -0.387691,-1.583965 C 7.8295823,9.978806 7.2286933,9.635292 6.5478005,9.411336 6.2487462,9.312976 5.8868376,9.314176 5.5566017,9.258994 c 0.0039,-0.03744 -0.00674,-0.0773 -0.00195,-0.114257 0.059584,-0.459612 0.1864827,-0.877732 0.3486292,-1.169908 0.1606996,-0.289569 0.3358939,-0.43232 0.4999939,-0.47851 0.4712797,-0.103528 0.7736735,-0.01124 1.0839705,0.19824 0.314064,0.212021 0.611954,0.570656 0.899403,0.959949 0.287448,0.389295 0.554233,0.803736 0.92284,1.122057 0.184304,0.159161 0.405241,0.29947 0.675773,0.354488 0.2705327,0.05502 0.5724817,0.0066 0.8398337,-0.127928 0.473187,-0.238162 0.661746,-0.76584 0.666007,-1.199204 0.0043,-0.433364 -0.10148,-0.859685 -0.194334,-1.26561 -0.09285,-0.405924 -0.173976,-0.791619 -0.173826,-1.045886 1.5e-4,-0.2542659 0.01951,-0.29169 0.120116,-0.3476518 -0.05767,0.03208 -0.05822,0.0049 0.03418,0.036135 0.09239,0.031235 0.235764,0.1084141 0.370113,0.2001928 0.268696,0.183558 0.499017,0.406245 0.499017,0.406245 L 12.50379,7.13694 13.203,6.422105 12.845582,6.0724996 c 0,0 -0.275345,-0.2727102 -0.633781,-0.5175717 C 12.032583,5.432497 11.831068,5.312589 11.597551,5.233643 Z m -6.0233627,5.028259 c 0.2134033,0.04243 0.4758831,0.03868 0.6611249,0.09961 0.5508282,0.181176 0.9365241,0.442441 1.1132681,0.716788 0.265596,0.412255 0.286116,0.67824 0.253903,0.817373 -0.03222,0.139133 -0.110387,0.22238 -0.284176,0.290036 C 6.9739131,12.319743 6.3257966,12.209194 5.9628295,11.723773 5.7438772,11.36022 5.6289466,10.827867 5.5741623,10.261877 Z"
     style="color:#000000;opacity:0.2;fill:#000000;stroke-width:0.499994;stroke-linecap:square;-inkscape-stroke:none"
     id="path1543" />
  <path
     d="m 11.597525,4.2336244 c -0.233516,-0.078947 -0.541175,-0.1295699 -0.84081,0.037109 -0.463939,0.2580594 -0.633524,0.7861014 -0.633781,1.221665 -2.57e-4,0.435563 0.106518,0.8632926 0.199216,1.2685386 0.0927,0.405246 0.17135,0.788512 0.168944,1.033191 -0.0024,0.244678 -0.01136,0.264118 -0.115233,0.316402 C 10.269667,8.16398 10.231382,8.16011 10.184456,8.15057 10.137536,8.14107 10.064199,8.1073 9.9627803,8.019712 9.7599403,7.844543 9.4944923,7.471347 9.1913053,7.060739 8.8881173,6.650131 8.5364043,6.1966354 8.0458113,5.8654424 7.5552193,5.5342484 6.8982135,5.3557824 6.165952,5.5226724 l -0.00976,0.002 -0.00976,0.0029 C 5.6411484,5.6644674 5.2755644,6.0456304 5.0292479,6.489475 4.782932,6.933319 4.6355668,7.460381 4.5634331,8.0168 c -0.0038,0.02933 0.0044,0.06034 10e-4,0.08984 C 4.4686851,8.10194 4.3873323,8.06675 4.290999,8.06465 L 3.5224539,8.048053 3.02246,8.036333 3,9.036321 l 0.4999939,0.01172 0.7695215,0.0166 c 0.1107322,0.0024 0.1935427,0.0395 0.3027308,0.0459 0.035585,0.77763 0.1672705,1.545348 0.5478448,2.161107 l 0.00976,0.01563 0.01074,0.01562 c 0.6353177,0.875173 1.712741,1.136876 2.540984,0.814443 0.4141223,-0.161216 0.7837573,-0.513466 0.8954973,-0.996081 0.11174,-0.482615 -0.02737,-1.024683 -0.387691,-1.583965 C 7.8295823,8.978803 7.2286933,8.635289 6.5478005,8.411332 6.2487462,8.312972 5.8868376,8.314172 5.5566017,8.25899 5.5605017,8.22155 5.5498617,8.18169 5.5546517,8.144734 5.6142407,7.68512 5.7411392,7.267 5.9032857,6.974824 6.0639853,6.685255 6.2391796,6.542504 6.4032796,6.496314 c 0.4712797,-0.103528 0.7736737,-0.01124 1.0839707,0.19824 0.314064,0.212021 0.611954,0.570656 0.899403,0.95995 0.287448,0.389293 0.554233,0.803734 0.92284,1.122056 0.184304,0.159161 0.405241,0.29947 0.675773,0.354488 0.2705327,0.05502 0.5724817,0.0066 0.8398337,-0.127928 0.473187,-0.238162 0.661746,-0.765841 0.666007,-1.199204 0.0043,-0.433364 -0.10148,-0.859685 -0.194334,-1.26561 -0.09285,-0.4059236 -0.173976,-0.7916186 -0.173826,-1.0458846 1.5e-4,-0.2542668 0.01951,-0.2916908 0.120116,-0.3476527 -0.05767,0.03208 -0.05822,0.0049 0.03418,0.036135 0.09239,0.031235 0.235764,0.1084142 0.370113,0.2001927 0.268696,0.183558 0.499017,0.406245 0.499017,0.406245 L 12.50379,6.1369464 13.203,5.4221114 12.845582,5.0725061 c 0,0 -0.275345,-0.2727101 -0.633781,-0.5175716 -0.179218,-0.122431 -0.380733,-0.2423391 -0.61425,-0.3212851 z M 5.5741623,9.261882 c 0.2134033,0.04243 0.4758831,0.03868 0.6611249,0.09961 0.5508282,0.181176 0.9365241,0.442441 1.1132681,0.716788 0.265596,0.412255 0.286116,0.67824 0.253903,0.817373 -0.03222,0.139133 -0.110387,0.22238 -0.284176,0.290035 C 6.9739131,11.319749 6.3257966,11.209198 5.9628295,10.723779 5.7438772,10.360225 5.6289466,9.827873 5.5741623,9.261882 Z"
     style="color:#000000;fill:#ffffff;stroke-width:0.499994;stroke-linecap:square;-inkscape-stroke:none"
     id="path1299"
     sodipodi:nodetypes="ccsscscssscccsccccccccccccsscsccscssssscsscssccccscccscsscc" />
  <path
     id="rect2630"
     style="opacity:0.3;fill:#ffffff;fill-opacity:1"
     d="M 3,1 C 1.8920011,1 1,1.8920011 1,3 V 4 C 1,2.8920011 1.8920011,2 3,2 h 10 c 1.107999,0 2,0.8920011 2,2 V 3 C 15,1.8920011 14.107999,1 13,1 Z"
     sodipodi:nodetypes="sscsscsss" />
  <path
     d="M 3,15 C 1.8920011,15 1,14.107999 1,13 v -1 c 0,1.107999 0.8920011,2 2,2 h 10 c 1.107999,0 2,-0.892001 2,-2 v 1 c 0,1.107999 -0.892001,2 -2,2 z"
     style="opacity:0.3;fill:#ffffff;fill-opacity:1"
     id="path19648" />
  <path
     id="rect899"
     style="opacity:0.5;fill:#000000;stroke:none"
     d="M 3,0 C 1.3380017,0 0,1.3380017 0,3 v 10 c 0,1.661998 1.3380017,3 3,3 h 10 c 1.661998,0 3,-1.338002 3,-3 V 3 C 16,1.3380017 14.661998,0 13,0 Z m 0,1 h 10 c 1.107999,0 2,0.8920011 2,2 v 10 c 0,1.107999 -0.892001,2 -2,2 H 3 C 1.8920011,15 1,14.107999 1,13 V 3 C 1,1.8920011 1.8920011,1 3,1 Z" />
</svg>
