<?xml version="1.0" encoding="UTF-8" standalone="no"?>
<!-- Created with Inkscape (http://www.inkscape.org/) -->

<svg
   width="16"
   height="16"
   viewBox="0 0 16 16"
   version="1.1"
   id="svg5"
   sodipodi:docname="lutris.svg"
   inkscape:version="1.2.1 (9c6d41e410, 2022-07-14)"
   xmlns:inkscape="http://www.inkscape.org/namespaces/inkscape"
   xmlns:sodipodi="http://sodipodi.sourceforge.net/DTD/sodipodi-0.dtd"
   xmlns:xlink="http://www.w3.org/1999/xlink"
   xmlns="http://www.w3.org/2000/svg"
   xmlns:svg="http://www.w3.org/2000/svg">
  <sodipodi:namedview
     id="namedview7"
     pagecolor="#ffffff"
     bordercolor="#666666"
     borderopacity="1.0"
     inkscape:showpageshadow="2"
     inkscape:pageopacity="0.0"
     inkscape:pagecheckerboard="0"
     inkscape:deskcolor="#d1d1d1"
     inkscape:document-units="px"
     showgrid="false"
     inkscape:zoom="24.8125"
     inkscape:cx="11.083123"
     inkscape:cy="10.962217"
     inkscape:window-width="1920"
     inkscape:window-height="1006"
     inkscape:window-x="0"
     inkscape:window-y="0"
     inkscape:window-maximized="1"
     inkscape:current-layer="svg5" />
  <defs
     id="defs2">
    <linearGradient
       inkscape:collect="always"
       id="linearGradient3298">
      <stop
         style="stop-color:#ff9708;stop-opacity:1;"
         offset="0"
         id="stop3294" />
      <stop
         style="stop-color:#ffc608;stop-opacity:1;"
         offset="1"
         id="stop3296" />
    </linearGradient>
    <linearGradient
       inkscape:collect="always"
       xlink:href="#linearGradient3298"
       id="linearGradient19638"
       x1="13"
       y1="16"
       x2="3"
       y2="0"
       gradientUnits="userSpaceOnUse" />
  </defs>
  <rect
     style="fill:url(#linearGradient19638);fill-opacity:1.0;stroke:none"
     id="rect184"
     width="15"
     height="15"
     x="0.5"
     y="0.5"
     ry="2.5" />
  <circle
     style="opacity:1;fill:#ffdfa0;stroke-width:2.66667;stroke-linecap:round;stroke-linejoin:round;fill-opacity:1"
     id="path1782"
     cx="8"
     cy="8"
     r="4" />
  <path
     d="M 7.8645404,4.0000151 C 5.236307,3.9976651 3.070787,6.1621352 3.001698,8.892507 c -0.07026,2.773711 2.049262,5.080985 4.7338142,5.153505 1.3078699,0.03531 2.5081268,-0.466387 3.4037928,-1.310945 0.09563,-0.0798 0.147672,-0.129525 0.147672,-0.129525 0,0 1.007949,-1.372747 1.060076,-2.214243 -0.247832,0.409453 -0.502849,0.839068 -1.119761,1.142687 -0.282924,0.13106 -0.542251,0.242569 -0.803605,0.330679 -0.01674,0.0043 -0.03353,0.0082 -0.05053,0.01227 -0.123791,0.02955 -0.253535,0.05437 -0.389536,0.07311 -0.016488,0.0023 -0.033399,0.0042 -0.050048,0.0063 -0.1410513,0.0179 -0.2866924,0.03092 -0.4371262,0.03729 -0.015484,6.28e-4 -0.03153,4.52e-4 -0.047094,0.001 -0.1484084,0.0051 -0.3001941,0.0046 -0.4542975,-0.0015 -0.010058,-4.02e-4 -0.019854,-4.4e-5 -0.029922,-5.03e-4 -0.1567147,-0.0069 -0.3156349,-0.02116 -0.4749027,-0.03974 -0.022728,-0.0026 -0.045446,-0.0044 -0.068194,-0.0073 -0.1550357,-0.0197 -0.3100101,-0.04573 -0.4641084,-0.07653 -0.024898,-0.0049 -0.049746,-0.0099 -0.074574,-0.01521 -0.1507996,-0.032 -0.3002468,-0.06956 -0.4469378,-0.112353 -0.047034,-0.01373 -0.093886,-0.02785 -0.1403128,-0.04268 -0.035087,-0.01121 -0.070294,-0.02201 -0.1049876,-0.03385 -0.04958,-0.01693 -0.09801,-0.03525 -0.14669,-0.05347 -0.03971,-0.01488 -0.07969,-0.0294 -0.118726,-0.04514 -0.04523,-0.01825 -0.08918,-0.03799 -0.133444,-0.0574 -0.03751,-0.01649 -0.07561,-0.03229 -0.112349,-0.04959 C 6.599927,11.421711 6.521305,11.382314 6.445406,11.340642 6.384996,11.307223 6.327514,11.272237 6.272714,11.235649 6.146864,11.15161 6.037026,11.05899 5.938614,10.961881 5.426262,10.439021 5.441049,10.157886 5.467953,9.7594081 5.501853,9.2588755 6.037979,7.9045845 7.41882,7.3229683 8.2719852,7.0217135 9.275194,6.8864122 10.114007,7.1564812 c 0.630975,0.1423722 1.084696,0.3493956 1.684726,0.5612726 0,0 -0.0048,0.010443 0.160917,0.051516 1.166935,0.184859 1.035947,-0.7765237 1.035947,-0.7765237 l -0.09146,-0.2249805 v 0 l 0.06857,-0.2120571 c 0,0 -0.07193,-0.265102 -0.0598,-0.440304 C 12.925182,5.940283 12.798975,5.8965307 12.760753,5.5763819 12.722572,5.2562104 12.512441,5.1286938 12.444315,5.0789273 12.376031,5.0292503 12.057879,4.7893881 11.753059,4.6697479 11.448051,4.550106 11.139785,4.4616881 10.760081,4.5152017 c -0.04216,0.00596 -0.08206,0.012409 -0.123631,0.018644 -0.0073,-0.00233 -0.01313,-0.00499 -0.02109,-0.00735 -0.144791,-0.043001 -0.247212,-0.2773198 -0.365498,-0.2744856 -0.009,2.17e-4 -0.01821,9.922e-4 -0.02747,0.00196 -0.0091,9.545e-4 -0.01858,0.00217 -0.02796,0.00393 h -5.02e-4 c -0.0095,0.00179 -0.01906,0.00419 -0.02895,0.00687 -0.01079,0.00292 -0.02117,0.00676 -0.03091,0.011285 -0.06922,0.032177 -0.111628,0.1532955 -0.1378484,0.2327406 C 9.3888665,4.2017859 8.7097899,4.021377 7.9896459,4.00197 7.9476969,4.00083 7.9062599,4.00004 7.8645424,4 Z m 2.8643006,7.7724139 c -0.08915,0.03323 -0.18594,0.06135 -0.28553,0.08733 0.09953,-0.02596 0.196431,-0.05413 0.28553,-0.08733 z"
     style="fill:#000000;stroke-width:0.627984;opacity:0.2"
     id="path4345" />
  <path
     d="M 7.8645404,3.0000145 C 5.2363073,2.9976633 3.070787,5.1621346 3.0016977,7.8925064 c -0.070264,2.7737106 2.0492618,5.0809846 4.7338145,5.1535046 1.3078699,0.03531 2.5081268,-0.466387 3.4037928,-1.310945 0.09563,-0.0798 0.147672,-0.129525 0.147672,-0.129525 0,0 1.007949,-1.372747 1.060076,-2.2142431 -0.247832,0.4094533 -0.502849,0.8390681 -1.119761,1.1426871 -0.282924,0.13106 -0.542251,0.242569 -0.803605,0.330679 -0.01674,0.0043 -0.03353,0.0082 -0.05053,0.01227 -0.123791,0.02955 -0.253535,0.05437 -0.389536,0.07311 -0.016488,0.0023 -0.033399,0.0042 -0.050048,0.0063 -0.1410513,0.0179 -0.2866924,0.03092 -0.4371262,0.03729 -0.015484,6.28e-4 -0.03153,4.52e-4 -0.047094,10e-4 -0.1484084,0.0051 -0.3001941,0.0046 -0.4542975,-0.0015 -0.010058,-4.02e-4 -0.019854,-4.4e-5 -0.029922,-5.03e-4 -0.1567147,-0.0069 -0.3156349,-0.02116 -0.4749027,-0.03974 -0.022728,-0.0026 -0.045446,-0.0044 -0.068194,-0.0073 -0.1550357,-0.0197 -0.3100101,-0.04573 -0.4641084,-0.07653 -0.024898,-0.0049 -0.049746,-0.0099 -0.074574,-0.01521 -0.1507996,-0.032 -0.3002468,-0.06956 -0.4469378,-0.112353 -0.047034,-0.01373 -0.093886,-0.02785 -0.1403128,-0.04268 -0.035087,-0.01121 -0.070294,-0.02201 -0.1049879,-0.03385 -0.049576,-0.01693 -0.098006,-0.03525 -0.14669,-0.05347 -0.039709,-0.01488 -0.079689,-0.0294 -0.1187262,-0.04514 -0.045235,-0.01825 -0.089184,-0.03799 -0.1334431,-0.0574 -0.037509,-0.01649 -0.07561,-0.03229 -0.112349,-0.04959 C 6.5999274,10.42171 6.5213048,10.382313 6.4454061,10.340641 6.384999,10.307222 6.3275139,10.272236 6.2727135,10.235648 6.1468635,10.151609 6.0370255,10.058989 5.9386139,9.9618804 5.4262622,9.4390209 5.4410492,9.1578849 5.467953,8.7594075 5.5018541,8.2588749 6.0379794,6.9045839 7.41882,6.3229677 8.2719852,6.0217129 9.275194,5.8864116 10.114007,6.1564806 c 0.630975,0.1423722 1.084696,0.3493956 1.684726,0.5612726 0,0 -0.0048,0.010443 0.160917,0.051516 1.166935,0.184859 1.035947,-0.7765237 1.035947,-0.7765237 L 12.904137,5.767765 v 0 l 0.06857,-0.2120571 c 0,0 -0.07193,-0.265102 -0.0598,-0.440304 C 12.925182,4.9402824 12.798975,4.8965301 12.760753,4.5763813 12.722572,4.2562098 12.512441,4.1286932 12.444315,4.0789267 12.376031,4.0292497 12.057879,3.7893875 11.753059,3.6697473 11.448051,3.5501054 11.139785,3.4616875 10.760081,3.5152011 c -0.04216,0.00596 -0.08206,0.012409 -0.123631,0.018644 -0.0073,-0.00233 -0.01313,-0.00499 -0.02109,-0.00735 -0.144791,-0.043001 -0.247212,-0.2773198 -0.365498,-0.2744856 -0.009,2.17e-4 -0.01821,9.922e-4 -0.02747,0.00196 -0.0091,9.545e-4 -0.01858,0.00217 -0.02796,0.00393 h -5.02e-4 c -0.0095,0.00179 -0.01906,0.00419 -0.02895,0.00687 -0.01079,0.00292 -0.02117,0.00676 -0.03091,0.011285 C 10.064851,3.3082313 10.022442,3.42935 9.9962216,3.5087951 9.3888665,3.2017853 8.7097899,3.0213764 7.9896459,3.0019694 7.9476965,3.000834 7.9062596,3.0000402 7.8645424,3 Z m 2.8643006,7.7724135 c -0.08915,0.03323 -0.18594,0.06135 -0.28553,0.08733 0.09953,-0.02596 0.196431,-0.05413 0.28553,-0.08733 z"
     style="fill:#ffffff;stroke-width:0.627984"
     id="path990"
     sodipodi:nodetypes="cccccccccccccscccccccscsccccccccccccsccccccccssccccccccccc" />
  <path
     id="rect2630"
     style="opacity:0.3;fill:#ffffff;fill-opacity:1"
     d="M 3,1 C 1.8920011,1 1,1.8920011 1,3 V 4 C 1,2.8920011 1.8920011,2 3,2 h 10 c 1.107999,0 2,0.8920011 2,2 V 3 C 15,1.8920011 14.107999,1 13,1 Z"
     sodipodi:nodetypes="sscsscsss" />
  <path
     d="M 3,15 C 1.8920011,15 1,14.107999 1,13 v -1 c 0,1.107999 0.8920011,2 2,2 h 10 c 1.107999,0 2,-0.892001 2,-2 v 1 c 0,1.107999 -0.892001,2 -2,2 z"
     style="opacity:0.3;fill:#ffffff;fill-opacity:1"
     id="path19648" />
  <path
     id="rect899"
     style="opacity:0.5;fill:#000000;stroke:none"
     d="M 3,0 C 1.3380017,0 0,1.3380017 0,3 v 10 c 0,1.661998 1.3380017,3 3,3 h 10 c 1.661998,0 3,-1.338002 3,-3 V 3 C 16,1.3380017 14.661998,0 13,0 Z m 0,1 h 10 c 1.107999,0 2,0.8920011 2,2 v 10 c 0,1.107999 -0.892001,2 -2,2 H 3 C 1.8920011,15 1,14.107999 1,13 V 3 C 1,1.8920011 1.8920011,1 3,1 Z"
     sodipodi:nodetypes="ssssssssssssssssss" />
</svg>
