<?xml version="1.0" encoding="UTF-8" standalone="no"?>
<!-- Created with Inkscape (http://www.inkscape.org/) -->

<svg
   width="16"
   height="16"
   viewBox="0 0 16 16"
   version="1.1"
   id="svg5"
   sodipodi:docname="minecraft.svg"
   inkscape:version="1.2.1 (9c6d41e410, 2022-07-14)"
   xmlns:inkscape="http://www.inkscape.org/namespaces/inkscape"
   xmlns:sodipodi="http://sodipodi.sourceforge.net/DTD/sodipodi-0.dtd"
   xmlns:xlink="http://www.w3.org/1999/xlink"
   xmlns="http://www.w3.org/2000/svg"
   xmlns:svg="http://www.w3.org/2000/svg">
  <sodipodi:namedview
     id="namedview7"
     pagecolor="#ffffff"
     bordercolor="#666666"
     borderopacity="1.0"
     inkscape:showpageshadow="2"
     inkscape:pageopacity="0.0"
     inkscape:pagecheckerboard="0"
     inkscape:deskcolor="#d1d1d1"
     inkscape:document-units="px"
     showgrid="false"
     inkscape:zoom="24.84375"
     inkscape:cx="-0.54339623"
     inkscape:cy="6.9433962"
     inkscape:window-width="1920"
     inkscape:window-height="1007"
     inkscape:window-x="0"
     inkscape:window-y="0"
     inkscape:window-maximized="1"
     inkscape:current-layer="svg5" />
  <defs
     id="defs2">
    <linearGradient
       inkscape:collect="always"
       xlink:href="#linearGradient22024"
       id="linearGradient19638"
       x1="13"
       y1="16"
       x2="3"
       y2="0"
       gradientUnits="userSpaceOnUse" />
    <linearGradient
       inkscape:collect="always"
       id="linearGradient22024">
      <stop
         style="stop-color:#dedede;stop-opacity:1;"
         offset="0"
         id="stop22020" />
      <stop
         style="stop-color:#f2f2f2;stop-opacity:1;"
         offset="1"
         id="stop22022" />
    </linearGradient>
    <linearGradient
       inkscape:collect="always"
       xlink:href="#linearGradient974"
       id="linearGradient976"
       x1="0"
       y1="9"
       x2="10"
       y2="0"
       gradientUnits="userSpaceOnUse"
       gradientTransform="matrix(1,0,0,1.2222224,3,3.0000001)" />
    <linearGradient
       inkscape:collect="always"
       id="linearGradient974">
      <stop
         style="stop-color:#8e643b;stop-opacity:1;"
         offset="0"
         id="stop970" />
      <stop
         style="stop-color:#ab7948;stop-opacity:1;"
         offset="1"
         id="stop972" />
    </linearGradient>
    <linearGradient
       inkscape:collect="always"
       xlink:href="#linearGradient1863"
       id="linearGradient1871"
       x1="5"
       y1="0"
       x2="5"
       y2="4.0909085"
       gradientUnits="userSpaceOnUse"
       gradientTransform="matrix(1,0,0,1.2222224,3,3.0000001)" />
    <linearGradient
       inkscape:collect="always"
       id="linearGradient1863">
      <stop
         style="stop-color:#7da52e;stop-opacity:1;"
         offset="0"
         id="stop1859" />
      <stop
         style="stop-color:#a7d056;stop-opacity:1;"
         offset="1"
         id="stop1861" />
    </linearGradient>
    <linearGradient
       inkscape:collect="always"
       xlink:href="#linearGradient1863"
       id="linearGradient1510"
       x1="0"
       y1="2"
       x2="5"
       y2="4.90909"
       gradientUnits="userSpaceOnUse"
       gradientTransform="matrix(1,0,0,1.2222224,3,3.0000001)" />
    <linearGradient
       inkscape:collect="always"
       xlink:href="#linearGradient1863"
       id="linearGradient1512"
       x1="5"
       y1="4"
       x2="10"
       y2="2.9659085"
       gradientUnits="userSpaceOnUse"
       gradientTransform="matrix(1,0,0,1.2222224,3,3.0000001)" />
  </defs>
  <rect
     style="fill:url(#linearGradient19638);fill-opacity:1;stroke:none"
     id="rect184"
     width="15"
     height="15"
     x="0.5"
     y="0.5"
     ry="2.5" />
  <path
     d="M 3,6.5001112 8,4 13,6.5001112 V 12.5 L 8,15 3,12.5 Z"
     style="opacity:0.2;fill:#000000;fill-opacity:1;stroke-width:2.21107;stroke-linecap:round;stroke-linejoin:round"
     id="path2843" />
  <path
     id="rect237"
     style="fill:url(#linearGradient976);fill-opacity:1;stroke-width:2.21107;stroke-linecap:round;stroke-linejoin:round"
     d="M 3,5.5001112 8,3 13,5.5001112 V 11.5 L 8,14 3,11.5 Z"
     sodipodi:nodetypes="ccccccc" />
  <path
     id="rect390"
     style="fill:url(#linearGradient1871);fill-opacity:1;stroke-width:2.21107;stroke-linecap:round;stroke-linejoin:round"
     d="M 3,5.4998889 8,3 13,5.4998889 8,8 Z"
     sodipodi:nodetypes="ccccc" />
  <path
     id="rect1084"
     style="fill:url(#linearGradient1510);fill-opacity:1;stroke-width:1.56347;stroke-linecap:round;stroke-linejoin:round"
     d="M 3,5.5 8,7.8888894 V 9 L 3,6.625 Z"
     sodipodi:nodetypes="ccccc" />
  <path
     id="rect1087"
     style="fill:url(#linearGradient1512);fill-opacity:1;stroke-width:2.21107;stroke-linecap:round;stroke-linejoin:round"
     d="M 8,7.8888894 13,5.5001112 V 6.625 L 8,9 Z"
     sodipodi:nodetypes="ccccc" />
  <path
     id="rect2630"
     style="opacity:0.3;fill:#ffffff;fill-opacity:1"
     d="M 3,1 C 1.8920011,1 1,1.8920011 1,3 V 4 C 1,2.8920011 1.8920011,2 3,2 h 10 c 1.107999,0 2,0.8920011 2,2 V 3 C 15,1.8920011 14.107999,1 13,1 Z"
     sodipodi:nodetypes="sscsscsss" />
  <path
     d="M 3,15 C 1.8920011,15 1,14.107999 1,13 v -1 c 0,1.107999 0.8920011,2 2,2 h 10 c 1.107999,0 2,-0.892001 2,-2 v 1 c 0,1.107999 -0.892001,2 -2,2 z"
     style="opacity:0.3;fill:#ffffff;fill-opacity:1"
     id="path19648" />
  <path
     id="rect899"
     style="opacity:0.5;fill:#000000;stroke:none"
     d="M 3,0 C 1.3380017,0 0,1.3380017 0,3 v 10 c 0,1.661998 1.3380017,3 3,3 h 10 c 1.661998,0 3,-1.338002 3,-3 V 3 C 16,1.3380017 14.661998,0 13,0 Z m 0,1 h 10 c 1.107999,0 2,0.8920011 2,2 v 10 c 0,1.107999 -0.892001,2 -2,2 H 3 C 1.8920011,15 1,14.107999 1,13 V 3 C 1,1.8920011 1.8920011,1 3,1 Z" />
</svg>
