<?xml version="1.0" encoding="UTF-8" standalone="no"?>
<!-- Created with Inkscape (http://www.inkscape.org/) -->

<svg
   width="16"
   height="16"
   viewBox="0 0 16 16"
   version="1.1"
   id="svg5"
   sodipodi:docname="mintinstall.svg"
   inkscape:version="1.2.1 (9c6d41e410, 2022-07-14)"
   xmlns:inkscape="http://www.inkscape.org/namespaces/inkscape"
   xmlns:sodipodi="http://sodipodi.sourceforge.net/DTD/sodipodi-0.dtd"
   xmlns:xlink="http://www.w3.org/1999/xlink"
   xmlns="http://www.w3.org/2000/svg"
   xmlns:svg="http://www.w3.org/2000/svg">
  <sodipodi:namedview
     id="namedview7"
     pagecolor="#ffffff"
     bordercolor="#666666"
     borderopacity="1.0"
     inkscape:showpageshadow="2"
     inkscape:pageopacity="0.0"
     inkscape:pagecheckerboard="0"
     inkscape:deskcolor="#d1d1d1"
     inkscape:document-units="px"
     showgrid="false"
     inkscape:zoom="49.375"
     inkscape:cx="7.9898734"
     inkscape:cy="8"
     inkscape:window-width="1920"
     inkscape:window-height="1002"
     inkscape:window-x="0"
     inkscape:window-y="0"
     inkscape:window-maximized="1"
     inkscape:current-layer="svg5" />
  <defs
     id="defs2">
    <linearGradient
       inkscape:collect="always"
       xlink:href="#linearGradient22024"
       id="linearGradient19638"
       x1="8"
       y1="16"
       x2="8"
       y2="0"
       gradientUnits="userSpaceOnUse" />
    <linearGradient
       inkscape:collect="always"
       xlink:href="#linearGradient7533"
       id="linearGradient7535"
       x1="3"
       y1="3"
       x2="3"
       y2="45"
       gradientUnits="userSpaceOnUse"
       gradientTransform="matrix(0.34482758,0,0,0.34482758,-0.10344833,-0.44827566)" />
    <linearGradient
       inkscape:collect="always"
       id="linearGradient7533">
      <stop
         style="stop-color:#89c64b;stop-opacity:1;"
         offset="0"
         id="stop7529" />
      <stop
         style="stop-color:#6bae25;stop-opacity:1;"
         offset="1"
         id="stop7531" />
    </linearGradient>
    <linearGradient
       inkscape:collect="always"
       id="linearGradient22024">
      <stop
         style="stop-color:#dfdfdf;stop-opacity:1;"
         offset="0"
         id="stop22020" />
      <stop
         style="stop-color:#f2f2f2;stop-opacity:1;"
         offset="1"
         id="stop22022" />
    </linearGradient>
  </defs>
  <rect
     style="fill:url(#linearGradient19638);fill-opacity:1;stroke:none"
     id="rect184"
     width="15"
     height="15"
     x="0.5"
     y="0.5"
     ry="2.5" />
  <circle
     style="fill:url(#linearGradient7535);fill-opacity:1;stroke-width:0.3125;stroke-linecap:round;stroke-linejoin:round"
     id="path943"
     cx="8"
     cy="8"
     r="5" />
  <path
     d="M 5.5,6 C 5.223001,6 5,6.223 5,6.5 v 1 C 5,7.776999 5.223001,8 5.5,8 h 1 C 6.777,8 7,7.776999 7,7.5 v -1 C 7,6.223 6.777,6 6.5,6 Z m 4,0 C 9.223001,6 9,6.223 9,6.5 v 1 C 9,7.776999 9.223001,8 9.5,8 h 1 C 10.777,8 11,7.776999 11,7.5 v -1 C 11,6.223 10.777,6 10.5,6 Z m -4,4 C 5.223001,10 5,10.223 5,10.5 v 1 C 5,11.776999 5.223001,12 5.5,12 h 1 C 6.777,12 7,11.776999 7,11.5 v -1 C 7,10.223 6.777,10 6.5,10 Z m 4,0 C 9.223001,10 9,10.223 9,10.5 v 1 C 9,11.776999 9.223001,12 9.5,12 h 1 c 0.277,0 0.5,-0.223001 0.5,-0.5 v -1 C 11,10.223 10.777,10 10.5,10 Z"
     style="opacity:0.2;fill:#000000;stroke-width:0.5;stroke-linejoin:round"
     id="path6678"
     sodipodi:nodetypes="ssssssssssssssssssssssssssssssssssss" />
  <path
     id="rect3628"
     style="fill:#f2f2f2;stroke-width:0.5;stroke-linejoin:round"
     d="M 5.5,5 C 5.223001,5 5,5.223 5,5.5 v 1 C 5,6.776999 5.223001,7 5.5,7 h 1 C 6.777,7 7,6.776999 7,6.5 v -1 C 7,5.223 6.777,5 6.5,5 Z m 4,0 C 9.223001,5 9,5.223 9,5.5 v 1 C 9,6.776999 9.223001,7 9.5,7 h 1 C 10.777,7 11,6.776999 11,6.5 v -1 C 11,5.223 10.777,5 10.5,5 Z m -4,4 C 5.223001,9 5,9.223 5,9.5 v 1 C 5,10.777 5.223001,11 5.5,11 h 1 C 6.777,11 7,10.777 7,10.5 v -1 C 7,9.223 6.777,9 6.5,9 Z m 4,0 C 9.223001,9 9,9.223 9,9.5 v 1 C 9,10.777 9.223001,11 9.5,11 h 1 c 0.277,0 0.5,-0.223 0.5,-0.5 v -1 C 11,9.223 10.777,9 10.5,9 Z"
     sodipodi:nodetypes="ssssssssssssssssssssssssssssssssssss" />
  <path
     id="path29458"
     style="opacity:0.2;fill:#000000;stroke-linejoin:round"
     d="M 8 3 A 5 5 0 0 0 3 8 A 5 5 0 0 0 3.0351562 8.5 A 5 5 0 0 1 8 4 A 5 5 0 0 1 12.96875 8.4453125 A 5 5 0 0 0 13 8 A 5 5 0 0 0 8 3 z " />
  <path
     id="rect2630"
     style="opacity:0.3;fill:#ffffff;fill-opacity:1"
     d="M 3,1 C 1.8920011,1 1,1.8920011 1,3 V 4 C 1,2.8920011 1.8920011,2 3,2 h 10 c 1.107999,0 2,0.8920011 2,2 V 3 C 15,1.8920011 14.107999,1 13,1 Z"
     sodipodi:nodetypes="sscsscsss" />
  <path
     d="M 3,15 C 1.8920011,15 1,14.107999 1,13 v -1 c 0,1.107999 0.8920011,2 2,2 h 10 c 1.107999,0 2,-0.892001 2,-2 v 1 c 0,1.107999 -0.892001,2 -2,2 z"
     style="opacity:0.3;fill:#ffffff;fill-opacity:1"
     id="path19648" />
  <path
     id="rect899"
     style="opacity:0.5;fill:#000000;stroke:none"
     d="M 3,0 C 1.3380017,0 0,1.3380017 0,3 v 10 c 0,1.661998 1.3380017,3 3,3 h 10 c 1.661998,0 3,-1.338002 3,-3 V 3 C 16,1.3380017 14.661998,0 13,0 Z m 0,1 h 10 c 1.107999,0 2,0.8920011 2,2 v 10 c 0,1.107999 -0.892001,2 -2,2 H 3 C 1.8920011,15 1,14.107999 1,13 V 3 C 1,1.8920011 1.8920011,1 3,1 Z" />
</svg>
