<?xml version="1.0" encoding="UTF-8" standalone="no"?>
<!-- Created with Inkscape (http://www.inkscape.org/) -->

<svg
   width="16"
   height="16"
   viewBox="0 0 16 16"
   version="1.1"
   id="svg5"
   sodipodi:docname="multimedia-audio-player.svg"
   inkscape:version="1.2.1 (9c6d41e410, 2022-07-14)"
   xmlns:inkscape="http://www.inkscape.org/namespaces/inkscape"
   xmlns:sodipodi="http://sodipodi.sourceforge.net/DTD/sodipodi-0.dtd"
   xmlns:xlink="http://www.w3.org/1999/xlink"
   xmlns="http://www.w3.org/2000/svg"
   xmlns:svg="http://www.w3.org/2000/svg">
  <sodipodi:namedview
     id="namedview7"
     pagecolor="#ffffff"
     bordercolor="#666666"
     borderopacity="1.0"
     inkscape:showpageshadow="2"
     inkscape:pageopacity="0.0"
     inkscape:pagecheckerboard="0"
     inkscape:deskcolor="#d1d1d1"
     inkscape:document-units="px"
     showgrid="false"
     inkscape:zoom="35.001786"
     inkscape:cx="1.6284883"
     inkscape:cy="10.613744"
     inkscape:window-width="1920"
     inkscape:window-height="1009"
     inkscape:window-x="0"
     inkscape:window-y="0"
     inkscape:window-maximized="1"
     inkscape:current-layer="svg5" />
  <defs
     id="defs2">
    <linearGradient
       inkscape:collect="always"
       xlink:href="#linearGradient6732"
       id="linearGradient19638"
       x1="13"
       y1="16"
       x2="3"
       y2="0"
       gradientUnits="userSpaceOnUse" />
    <linearGradient
       inkscape:collect="always"
       id="linearGradient6732">
      <stop
         style="stop-color:#ef3764;stop-opacity:1;"
         offset="0"
         id="stop6728" />
      <stop
         style="stop-color:#f79289;stop-opacity:1;"
         offset="1"
         id="stop6730" />
    </linearGradient>
  </defs>
  <rect
     style="fill:url(#linearGradient19638);fill-opacity:1.0;stroke:none"
     id="rect184"
     width="15"
     height="15"
     x="0.5"
     y="0.5"
     ry="2.5" />
  <path
     d="m 11.722194,4.0059903 c -0.05452,-0.010256 -0.114656,-0.00756 -0.177733,0.00977 L 6.4548901,5.1388028 c -0.2523118,0.069311 -0.4550781,0.348 -0.4550781,0.625 v 6.2621202 c -0.2792037,-0.04445 -0.5816452,-0.03086 -0.8691406,0.03906 -0.8029604,0.196979 -1.2883044,0.775019 -1.0839844,1.291016 0.202585,0.516675 1.0186739,0.776459 1.8222656,0.580078 0.6846496,-0.168086 1.1548631,-0.620402 1.1289063,-1.085938 h 0.00195 V 7 L 10.99954,6 v 5.025923 c -0.279204,-0.04445 -0.581645,-0.03086 -0.869141,0.03906 -0.8029607,0.196979 -1.2883042,0.775019 -1.0839845,1.291016 0.2025851,0.516675 1.0186745,0.776459 1.8222655,0.580078 0.666082,-0.163852 1.131301,-0.597682 1.128906,-1.052735 h 0.002 V 4.3907559 c 0,-0.20775 -0.113771,-0.3539965 -0.277344,-0.3847656 z"
     style="color:#000000;clip-rule:nonzero;display:inline;overflow:visible;visibility:visible;isolation:auto;mix-blend-mode:normal;color-interpolation:sRGB;color-interpolation-filters:linearRGB;solid-color:#000000;solid-opacity:1;fill:#000000;fill-opacity:1;fill-rule:nonzero;stroke:none;stroke-width:1.00225;stroke-linecap:butt;stroke-linejoin:miter;stroke-miterlimit:4;stroke-dasharray:none;stroke-dashoffset:0;stroke-opacity:1;marker:none;color-rendering:auto;image-rendering:auto;shape-rendering:auto;text-rendering:auto;enable-background:accumulate;opacity:0.2"
     id="path579" />
  <path
     d="m 11.722194,3.0059903 c -0.05452,-0.010256 -0.114656,-0.00756 -0.177733,0.00977 L 6.4548901,4.1388028 c -0.2523118,0.069311 -0.4550781,0.348 -0.4550781,0.625 v 6.2621202 c -0.2792037,-0.04445 -0.5816452,-0.03086 -0.8691406,0.03906 -0.8029606,0.196979 -1.2883041,0.775019 -1.0839844,1.291016 0.2025851,0.516675 1.0186739,0.776459 1.8222656,0.580078 0.6846496,-0.168086 1.1548631,-0.620402 1.1289063,-1.085938 h 0.00195 V 6 L 10.99954,5 v 5.025923 c -0.279204,-0.04445 -0.581645,-0.03086 -0.869141,0.03906 -0.8029607,0.196979 -1.2883042,0.775019 -1.0839845,1.291016 0.2025851,0.516675 1.0186745,0.776459 1.8222655,0.580078 0.666082,-0.163852 1.131301,-0.597682 1.128906,-1.052735 h 0.002 V 3.3907559 c 0,-0.20775 -0.113771,-0.3539965 -0.277344,-0.3847656 z"
     style="color:#000000;clip-rule:nonzero;display:inline;overflow:visible;visibility:visible;isolation:auto;mix-blend-mode:normal;color-interpolation:sRGB;color-interpolation-filters:linearRGB;solid-color:#000000;solid-opacity:1;fill:#ffffff;fill-opacity:1;fill-rule:nonzero;stroke:none;stroke-width:1.00225;stroke-linecap:butt;stroke-linejoin:miter;stroke-miterlimit:4;stroke-dasharray:none;stroke-dashoffset:0;stroke-opacity:1;marker:none;color-rendering:auto;image-rendering:auto;shape-rendering:auto;text-rendering:auto;enable-background:accumulate"
     id="path343"
     sodipodi:nodetypes="cccsccccccccccccccscc" />
  <path
     id="rect2630"
     style="opacity:0.3;fill:#ffffff;fill-opacity:1"
     d="M 3,1 C 1.8920011,1 1,1.8920011 1,3 V 4 C 1,2.8920011 1.8920011,2 3,2 h 10 c 1.107999,0 2,0.8920011 2,2 V 3 C 15,1.8920011 14.107999,1 13,1 Z"
     sodipodi:nodetypes="sscsscsss" />
  <path
     d="M 3,15 C 1.8920011,15 1,14.107999 1,13 v -1 c 0,1.107999 0.8920011,2 2,2 h 10 c 1.107999,0 2,-0.892001 2,-2 v 1 c 0,1.107999 -0.892001,2 -2,2 z"
     style="opacity:0.3;fill:#ffffff;fill-opacity:1"
     id="path19648" />
  <path
     id="rect899"
     style="opacity:0.5;fill:#000000;stroke:none"
     d="M 3,0 C 1.3380017,0 0,1.3380017 0,3 v 10 c 0,1.661998 1.3380017,3 3,3 h 10 c 1.661998,0 3,-1.338002 3,-3 V 3 C 16,1.3380017 14.661998,0 13,0 Z m 0,1 h 10 c 1.107999,0 2,0.8920011 2,2 v 10 c 0,1.107999 -0.892001,2 -2,2 H 3 C 1.8920011,15 1,14.107999 1,13 V 3 C 1,1.8920011 1.8920011,1 3,1 Z" />
</svg>
