<?xml version="1.0" encoding="UTF-8" standalone="no"?>
<!-- Created with Inkscape (http://www.inkscape.org/) -->

<svg
   width="16"
   height="16"
   viewBox="0 0 16 16"
   version="1.1"
   id="svg5"
   sodipodi:docname="nvidia.svg"
   inkscape:version="1.2 (dc2aedaf03, 2022-05-15)"
   xmlns:inkscape="http://www.inkscape.org/namespaces/inkscape"
   xmlns:sodipodi="http://sodipodi.sourceforge.net/DTD/sodipodi-0.dtd"
   xmlns:xlink="http://www.w3.org/1999/xlink"
   xmlns="http://www.w3.org/2000/svg"
   xmlns:svg="http://www.w3.org/2000/svg">
  <sodipodi:namedview
     id="namedview7"
     pagecolor="#ffffff"
     bordercolor="#666666"
     borderopacity="1.0"
     inkscape:showpageshadow="2"
     inkscape:pageopacity="0.0"
     inkscape:pagecheckerboard="0"
     inkscape:deskcolor="#d1d1d1"
     inkscape:document-units="px"
     showgrid="false"
     inkscape:zoom="11.313708"
     inkscape:cx="15.512156"
     inkscape:cy="18.826719"
     inkscape:window-width="1920"
     inkscape:window-height="991"
     inkscape:window-x="0"
     inkscape:window-y="0"
     inkscape:window-maximized="1"
     inkscape:current-layer="svg5" />
  <defs
     id="defs2">
    <linearGradient
       inkscape:collect="always"
       xlink:href="#4852"
       id="linearGradient19638"
       x1="13"
       y1="16"
       x2="3"
       y2="0"
       gradientUnits="userSpaceOnUse" />
    <linearGradient
       inkscape:collect="always"
       id="4852">
      <stop
         style="stop-color:#333333;stop-opacity:1"
         offset="0"
         id="stop14555" />
      <stop
         style="stop-color:#666666;stop-opacity:1"
         offset="1"
         id="stop14557" />
    </linearGradient>
    <linearGradient
       inkscape:collect="always"
       xlink:href="#linearGradient1270"
       id="linearGradient1272"
       x1="29.378906"
       y1="26.515625"
       x2="17.378906"
       y2="18.515625"
       gradientUnits="userSpaceOnUse"
       gradientTransform="translate(-15.378906,-14.515625)" />
    <linearGradient
       inkscape:collect="always"
       id="linearGradient1270">
      <stop
         style="stop-color:#80d935;stop-opacity:1;"
         offset="0"
         id="stop1266" />
      <stop
         style="stop-color:#afd65f;stop-opacity:1;"
         offset="1"
         id="stop1268" />
    </linearGradient>
  </defs>
  <rect
     style="fill:url(#linearGradient19638);fill-opacity:1.0;stroke:none"
     id="rect184"
     width="15"
     height="15"
     x="0.5"
     y="0.5"
     ry="2.5" />
  <path
     id="path1282"
     style="opacity:0.2;fill:#000000;fill-opacity:1"
     d="m 7.001953,5 v 1.1875 c 0.07044,-0.0052 0.116677,-0.0094 0.1875,-0.01172 2.727949,-0.08916 4.00586,2.169922 4.00586,2.169922 0,0 -1.541131,2.40625 -3.667969,2.40625 -0.194922,0 -0.353996,-0.01742 -0.525391,-0.04687 v 0.642578 c 0.146566,0.01804 0.275024,0.0293 0.433594,0.0293 1.979163,0 2.910966,-0.980585 4.296875,-2.140625 0.22978,0.17845 1.169902,0.612691 1.363281,0.802735 -1.317738,1.069809 -3.889769,1.93164 -5.630859,1.93164 -0.167827,0 -0.304465,-0.0086 -0.462891,-0.02344 v 1.052734 H 14 v -8 z m 0,6.947266 v -0.59961 C 4.579912,11.052189 3.226563,8.464844 3.226563,8.464844 c 0,0 1.609067,-1.5523 3.77539,-1.712891 V 6.1875 C 4.602476,6.374365 2,8.345703 2,8.345703 c 0,0 1.701484,3.299502 5.001953,3.601563 z m 0,-5.195313 v 0.695313 c 0.128341,-0.01328 0.234508,-0.02348 0.371094,-0.02344 1.256557,0 1.501953,0.949219 1.501953,0.949219 L 7.855469,9.207029 C 7.396343,8.464853 7.765639,8.138306 7.001953,8.048826 v 2.109375 c 0.173082,0.05643 0.342144,0.08984 0.556641,0.08984 1.490435,0 2.380859,-1.873047 2.380859,-1.873047 0,0 -0.788338,-1.694516 -2.75,-1.634766 -0.07174,0.0022 -0.11778,0.007 -0.1875,0.01172 z m 0,3.40625 C 5.969969,9.821968 5.111328,8.652344 5.111328,8.652344 c 0,0 1.12253,-0.692666 1.888672,-0.603516 H 7.002 V 7.447266 c -1.459723,0.15311 -2.863281,1.097656 -2.863281,1.097656 0,0 1.032757,1.843696 2.863281,2.160156 z" />
  <path
     id="path353"
     style="fill:url(#linearGradient1272);fill-opacity:1"
     d="m 7.001953,4 v 1.189453 c 0.07044,-0.0052 0.116676,-0.0094 0.1875,-0.01172 2.727948,-0.08915 4.00586,2.167969 4.00586,2.167969 0,0 -1.541131,2.408203 -3.667969,2.408203 -0.194922,0 -0.353996,-0.01742 -0.525391,-0.04687 v 0.642578 c 0.146566,0.01804 0.275024,0.02734 0.433594,0.02734 1.979163,0 2.910966,-0.978632 4.296875,-2.138672 0.22978,0.17845 1.169902,0.612691 1.363281,0.802735 -1.317738,1.06981 -3.889769,1.93164 -5.630859,1.93164 -0.167827,0 -0.304465,-0.0106 -0.462891,-0.02539 V 12 H 14 V 4 Z m 0,6.947266 V 10.349609 C 4.579912,10.054142 3.226563,7.464844 3.226563,7.464844 c 0,0 1.609067,-1.5523 3.77539,-1.712891 v -0.5625 C 4.602476,5.376318 2,7.345703 2,7.345703 c 0,0 1.701484,3.299502 5.001953,3.601563 z m 0,-5.195313 v 0.695313 c 0.128341,-0.01328 0.234508,-0.02153 0.371094,-0.02148 1.256557,0 1.501953,0.947266 1.501953,0.947266 L 7.855469,8.208989 C 7.396343,7.466813 7.765639,7.138313 7.001953,7.048833 v 2.109375 c 0.173082,0.05644 0.342144,0.08984 0.556641,0.08984 1.490435,0 2.378906,-1.871094 2.378906,-1.871094 0,0 -0.786386,-1.694515 -2.748047,-1.634766 -0.07174,0.0022 -0.11778,0.0051 -0.1875,0.0098 z m 0,3.40625 C 5.969969,8.821968 5.111328,7.654297 5.111328,7.654297 c 0,0 1.12253,-0.694629 1.888672,-0.605469 H 7.002 V 6.447266 c -1.459723,0.15311 -2.863281,1.097656 -2.863281,1.097656 0,0 1.032757,1.845651 2.863281,2.162109 z" />
  <path
     id="rect2630"
     style="opacity:0.3;fill:#ffffff;fill-opacity:1"
     d="M 3,1 C 1.8920011,1 1,1.8920011 1,3 V 4 C 1,2.8920011 1.8920011,2 3,2 h 10 c 1.107999,0 2,0.8920011 2,2 V 3 C 15,1.8920011 14.107999,1 13,1 Z"
     sodipodi:nodetypes="sscsscsss" />
  <path
     d="M 3,15 C 1.8920011,15 1,14.107999 1,13 v -1 c 0,1.107999 0.8920011,2 2,2 h 10 c 1.107999,0 2,-0.892001 2,-2 v 1 c 0,1.107999 -0.892001,2 -2,2 z"
     style="opacity:0.3;fill:#ffffff;fill-opacity:1"
     id="path19648" />
  <path
     id="rect899"
     style="opacity:0.5;fill:#000000;stroke:none"
     d="M 3,0 C 1.3380017,0 0,1.3380017 0,3 v 10 c 0,1.661998 1.3380017,3 3,3 h 10 c 1.661998,0 3,-1.338002 3,-3 V 3 C 16,1.3380017 14.661998,0 13,0 Z m 0,1 h 10 c 1.107999,0 2,0.8920011 2,2 v 10 c 0,1.107999 -0.892001,2 -2,2 H 3 C 1.8920011,15 1,14.107999 1,13 V 3 C 1,1.8920011 1.8920011,1 3,1 Z" />
</svg>
