<?xml version="1.0" encoding="UTF-8" standalone="no"?>
<!-- Created with Inkscape (http://www.inkscape.org/) -->

<svg
   width="16"
   height="16"
   viewBox="0 0 16 16"
   version="1.1"
   id="svg5"
   sodipodi:docname="obsstudio.svg"
   inkscape:version="1.2.1 (9c6d41e410, 2022-07-14)"
   xmlns:inkscape="http://www.inkscape.org/namespaces/inkscape"
   xmlns:sodipodi="http://sodipodi.sourceforge.net/DTD/sodipodi-0.dtd"
   xmlns:xlink="http://www.w3.org/1999/xlink"
   xmlns="http://www.w3.org/2000/svg"
   xmlns:svg="http://www.w3.org/2000/svg">
  <sodipodi:namedview
     id="namedview7"
     pagecolor="#ffffff"
     bordercolor="#666666"
     borderopacity="1.0"
     inkscape:showpageshadow="2"
     inkscape:pageopacity="0.0"
     inkscape:pagecheckerboard="0"
     inkscape:deskcolor="#d1d1d1"
     inkscape:document-units="px"
     showgrid="false"
     inkscape:zoom="49.5"
     inkscape:cx="7.989899"
     inkscape:cy="8"
     inkscape:window-width="1920"
     inkscape:window-height="1007"
     inkscape:window-x="0"
     inkscape:window-y="0"
     inkscape:window-maximized="1"
     inkscape:current-layer="svg5" />
  <defs
     id="defs2">
    <linearGradient
       inkscape:collect="always"
       xlink:href="#4852"
       id="linearGradient19638"
       x1="13"
       y1="16"
       x2="3"
       y2="0"
       gradientUnits="userSpaceOnUse" />
    <linearGradient
       inkscape:collect="always"
       id="4852">
      <stop
         style="stop-color:#333333;stop-opacity:1"
         offset="0"
         id="stop14555" />
      <stop
         style="stop-color:#666666;stop-opacity:1"
         offset="1"
         id="stop14557" />
    </linearGradient>
  </defs>
  <rect
     style="fill:url(#linearGradient19638);fill-opacity:1.0;stroke:none"
     id="rect184"
     width="15"
     height="15"
     x="0.5"
     y="0.5"
     ry="2.5" />
  <path
     d="m 4.7380796,3.5219654 c -0.1234,0.1089 -0.2499,0.2342 -0.3809,0.3765 -0.2307,0.2507 -0.4452,0.5125 -0.5625,0.7305 -0.2462,0.4579 -0.4191,1.1619 -0.4179,1.6914 0.001,0.44459 0.10999,0.98898 0.2793,1.4121 0.046,0.11497 0.0913,0.24351 0.22461,0.32617 0.13327,0.0827 0.24604,0.0806 0.41406,0.0996 0.15941,0.018 0.46061,0.0862 0.60742,0.13672 1.4107,0.48534 2.0738,2.1059996 1.4121,3.4569996 -0.44631,0.91136 -1.5057,1.5082 -2.457,1.4004 -0.11401,-0.0129 -0.19766,-0.02 -0.26758,-0.0195 -0.0349,2.4e-4 -0.0598,-0.003 -0.12109,0.0156 -0.0153,0.005 -0.0339,0.0113 -0.0586,0.0254 -0.0124,0.007 -0.0424,0.0288 -0.043,0.0293 -5.8e-4,5.1e-4 -0.0465,0.0522 -0.0469,0.0527 -3.5e-4,5.4e-4 -0.0351,0.0854 -0.0351,0.0859 -1.3e-4,5.8e-4 -0.004,0.0931 -0.004,0.0937 1e-4,6.2e-4 0.0231,0.0716 0.0234,0.0723 3.2e-4,6.6e-4 0.0199,0.0349 0.0293,0.0469 0.0751,0.0961 0.10096,0.0821 0.13282,0.0957 0.0319,0.0136 0.0637,0.0254 0.10156,0.0371 0.0757,0.0233 0.17414,0.0479 0.29883,0.0762 0.50152,0.1141 1.2605,0.0917 1.7441,-0.0566 l 0.39648,-0.12305 -0.0918,-0.0918 c 0.615,-0.26736 1.2705,-0.64912 1.6191,-1.1387 l 0.19531,-0.27344 -0.19141,-0.57617 c -0.50731,-1.5349996 0.39525,-3.0486996 1.9707004,-3.3144996 1.1214,-0.18915 2.3249,0.50933 2.7324,1.5938 0.0269,0.0717 0.0458,0.12647 0.0625,0.16797 0.008,0.0207 0.0168,0.0383 0.0254,0.0566 0.004,0.009 0.008,0.0182 0.0156,0.0312 0.004,0.007 0.008,0.0134 0.0156,0.0234 0.007,0.01 0.0365,0.0405 0.0371,0.041 3.1e-4,2.8e-4 0.0427,0.033 0.043,0.0332 2.7e-4,1.6e-4 0.0896,0.0312 0.0898,0.0312 2.4e-4,4e-5 0.13261,-0.0155 0.13281,-0.0156 2.1e-4,-8e-5 0.0975,-0.072 0.0977,-0.0723 1.7e-4,-2.1e-4 0.037,-0.0622 0.0371,-0.0625 1.4e-4,-3.3e-4 0.011,-0.0302 0.0137,-0.041 0.005,-0.0217 0.007,-0.0342 0.008,-0.0449 0.003,-0.0429 1.8e-4,-0.0537 -0.002,-0.0723 -0.004,-0.0371 -0.0107,-0.0794 -0.0195,-0.13477 -0.112,-0.705 -0.465,-1.354 -1.02,-1.902 -0.58,-0.5737 -1.275,-0.9075 -2.111,-1.0195 -0.1256,-0.0168 -0.22033,-0.0418 -0.35547,0.008 -0.13514,0.0494 -0.20228,0.16004 -0.25195,0.24414 -0.0949,0.16068 -0.51594,0.58157 -0.77344,0.74609 -0.7170004,0.45811 -1.8999004,0.46 -2.6191004,0.002 -0.8372,-0.5333 -1.3157,-1.5734 -1.1641,-2.5019 0.0848,-0.519 0.3087,-0.9707 0.6739,-1.3574 0.0726,-0.0769 0.1288,-0.1374 0.1718,-0.1856 0.043,-0.0482 0.0684,-0.0722 0.10351,-0.13281 0.009,-0.0152 0.0208,-0.0337 0.0313,-0.0723 0.003,-0.01 0.004,-0.0198 0.006,-0.0332 0.002,-0.0134 0.002,-0.0483 0.002,-0.0488 -3e-5,-5.1e-4 -0.0116,-0.0621 -0.0117,-0.0625 -1.4e-4,-4.2e-4 -0.0349,-0.0719 -0.0352,-0.0723 -1.6e-4,-2.3e-4 -0.0217,-0.0218 -0.0391,-0.0391 -0.3372143,-0.225493 -0.66797,0.22475 -0.66797,0.22475 z"
     style="fill:#000000;opacity:0.2"
     id="path1352" />
  <path
     d="m 4.73808,2.5219654 c -0.1234,0.1089 -0.2499,0.2342 -0.3809,0.3765 -0.2307,0.2507 -0.4452,0.5125 -0.5625,0.7305 -0.2462,0.4579 -0.4191,1.1619 -0.4179,1.6914 10e-4,0.44459 0.10999,0.98898 0.2793,1.4121 0.046,0.11497 0.0913,0.24351 0.22461,0.32617 0.13327,0.0827 0.24604,0.0806 0.41406,0.0996 0.15941,0.018 0.46061,0.0862 0.60742,0.13672 1.4107,0.48534 2.0738,2.1059996 1.4121,3.4569996 -0.44631,0.91136 -1.5057,1.5082 -2.457,1.4004 -0.11401,-0.0129 -0.19766,-0.02 -0.26758,-0.0195 -0.0349,2.4e-4 -0.0598,-0.003 -0.12109,0.0156 -0.0153,0.005 -0.0339,0.0113 -0.0586,0.0254 -0.0124,0.007 -0.0424,0.0288 -0.043,0.0293 -5.8e-4,5.1e-4 -0.0465,0.0522 -0.0469,0.0527 -3.5e-4,5.4e-4 -0.0351,0.0854 -0.0351,0.0859 -1.3e-4,5.8e-4 -0.004,0.0931 -0.004,0.0937 10e-5,6.2e-4 0.0231,0.0716 0.0234,0.0723 3.2e-4,6.6e-4 0.0199,0.0349 0.0293,0.0469 0.0751,0.0961 0.10096,0.0821 0.13282,0.0957 0.0319,0.0136 0.0637,0.0254 0.10156,0.0371 0.0757,0.0233 0.17414,0.0479 0.29883,0.0762 0.50152,0.1141 1.2605,0.0917 1.7441,-0.0566 l 0.39648,-0.12305 -0.0918,-0.0918 c 0.615,-0.26736 1.2705,-0.64912 1.6191,-1.1387 L 7.7301,11.080065 7.53869,10.503895 C 7.03138,8.9688954 7.93394,7.4551954 9.50939,7.1893954 c 1.1214,-0.18915 2.3249,0.50933 2.7324,1.5938 0.0269,0.0717 0.0458,0.12647 0.0625,0.16797 0.008,0.0207 0.0168,0.0383 0.0254,0.0566 0.004,0.009 0.008,0.0182 0.0156,0.0312 0.004,0.007 0.008,0.0134 0.0156,0.0234 0.007,0.01 0.0365,0.0405 0.0371,0.041 3.1e-4,2.8e-4 0.0427,0.033 0.043,0.0332 2.7e-4,1.6e-4 0.0896,0.0312 0.0898,0.0312 2.4e-4,4e-5 0.13261,-0.0155 0.13281,-0.0156 2.1e-4,-8e-5 0.0975,-0.072 0.0977,-0.0723 1.7e-4,-2.1e-4 0.037,-0.0622 0.0371,-0.0625 1.4e-4,-3.3e-4 0.011,-0.0302 0.0137,-0.041 0.005,-0.0217 0.007,-0.0342 0.008,-0.0449 0.003,-0.0429 1.8e-4,-0.0537 -0.002,-0.0723 -0.004,-0.0371 -0.0107,-0.0794 -0.0195,-0.13477 -0.112,-0.705 -0.465,-1.354 -1.02,-1.902 -0.58,-0.5737 -1.275,-0.9075 -2.111,-1.0195 -0.1256,-0.0168 -0.22033,-0.0418 -0.35547,0.008 -0.13514,0.0494 -0.20228,0.16004 -0.25195,0.24414 -0.0949,0.16068 -0.51594,0.58157 -0.77344,0.74609 -0.717,0.45811 -1.8999,0.46 -2.6191,0.002 -0.8372,-0.5333 -1.3157,-1.5734 -1.1641,-2.5019 0.0848,-0.519 0.3087,-0.9707 0.6739,-1.3574 0.0726,-0.0769 0.1288,-0.1374 0.1718,-0.1856 0.043,-0.0482 0.0684,-0.0722 0.10351,-0.13281 0.009,-0.0152 0.0208,-0.0337 0.0313,-0.0723 0.003,-0.01 0.004,-0.0198 0.006,-0.0332 0.002,-0.0134 0.002,-0.0483 0.002,-0.0488 -3e-5,-5.1e-4 -0.0116,-0.0621 -0.0117,-0.0625 -1.4e-4,-4.2e-4 -0.0349,-0.0719 -0.0352,-0.0723 -1.6e-4,-2.3e-4 -0.0217,-0.0218 -0.0391,-0.0391 -0.3372143,-0.225493 -0.66797,0.22475 -0.66797,0.22475 z"
     style="fill:#ffffff"
     id="path1082"
     sodipodi:nodetypes="cccccccccccccccccccccccccccccccccccccccccccccccsccccsccsccccc" />
  <path
     id="rect2630"
     style="opacity:0.3;fill:#ffffff;fill-opacity:1"
     d="M 3,1 C 1.8920011,1 1,1.8920011 1,3 V 4 C 1,2.8920011 1.8920011,2 3,2 h 10 c 1.107999,0 2,0.8920011 2,2 V 3 C 15,1.8920011 14.107999,1 13,1 Z"
     sodipodi:nodetypes="sscsscsss" />
  <path
     d="M 3,15 C 1.8920011,15 1,14.107999 1,13 v -1 c 0,1.107999 0.8920011,2 2,2 h 10 c 1.107999,0 2,-0.892001 2,-2 v 1 c 0,1.107999 -0.892001,2 -2,2 z"
     style="opacity:0.3;fill:#ffffff;fill-opacity:1"
     id="path19648" />
  <path
     id="rect899"
     style="opacity:0.5;fill:#000000;stroke:none"
     d="M 3,0 C 1.3380017,0 0,1.3380017 0,3 v 10 c 0,1.661998 1.3380017,3 3,3 h 10 c 1.661998,0 3,-1.338002 3,-3 V 3 C 16,1.3380017 14.661998,0 13,0 Z m 0,1 h 10 c 1.107999,0 2,0.8920011 2,2 v 10 c 0,1.107999 -0.892001,2 -2,2 H 3 C 1.8920011,15 1,14.107999 1,13 V 3 C 1,1.8920011 1.8920011,1 3,1 Z" />
</svg>
