<?xml version="1.0" encoding="UTF-8" standalone="no"?>
<!-- Created with Inkscape (http://www.inkscape.org/) -->

<svg
   width="16"
   height="16"
   viewBox="0 0 16 16"
   version="1.1"
   id="svg5"
   sodipodi:docname="plasmadiscover.svg"
   inkscape:version="1.2.1 (9c6d41e410, 2022-07-14)"
   xmlns:inkscape="http://www.inkscape.org/namespaces/inkscape"
   xmlns:sodipodi="http://sodipodi.sourceforge.net/DTD/sodipodi-0.dtd"
   xmlns:xlink="http://www.w3.org/1999/xlink"
   xmlns="http://www.w3.org/2000/svg"
   xmlns:svg="http://www.w3.org/2000/svg">
  <sodipodi:namedview
     id="namedview7"
     pagecolor="#ffffff"
     bordercolor="#666666"
     borderopacity="1.0"
     inkscape:showpageshadow="2"
     inkscape:pageopacity="0.0"
     inkscape:pagecheckerboard="0"
     inkscape:deskcolor="#d1d1d1"
     inkscape:document-units="px"
     showgrid="false"
     inkscape:zoom="18.384776"
     inkscape:cx="-14.006154"
     inkscape:cy="10.171459"
     inkscape:window-width="1920"
     inkscape:window-height="1007"
     inkscape:window-x="0"
     inkscape:window-y="0"
     inkscape:window-maximized="1"
     inkscape:current-layer="svg5" />
  <defs
     id="defs2">
    <linearGradient
       inkscape:collect="always"
       id="linearGradient1493">
      <stop
         style="stop-color:#197cf1;stop-opacity:1;"
         offset="0"
         id="stop1489" />
      <stop
         style="stop-color:#20bcfa;stop-opacity:1;"
         offset="1"
         id="stop1491" />
    </linearGradient>
    <linearGradient
       inkscape:collect="always"
       xlink:href="#linearGradient1493"
       id="linearGradient19638"
       x1="8"
       y1="15.999997"
       x2="8"
       y2="0"
       gradientUnits="userSpaceOnUse" />
  </defs>
  <rect
     style="fill:url(#linearGradient19638);fill-opacity:1;stroke:none"
     id="rect184"
     width="15"
     height="15"
     x="0.5"
     y="0.5"
     ry="2.5" />
  <path
     id="rect2630"
     style="opacity:0.3;fill:#ffffff;fill-opacity:1"
     d="M 3,1 C 1.8920011,1 1,1.8920011 1,3 V 4 C 1,2.8920011 1.8920011,2 3,2 h 10 c 1.107999,0 2,0.8920011 2,2 V 3 C 15,1.8920011 14.107999,1 13,1 Z"
     sodipodi:nodetypes="sscsscsss" />
  <path
     d="M 3,15 C 1.8920011,15 1,14.107999 1,13 v -1 c 0,1.107999 0.8920011,2 2,2 h 10 c 1.107999,0 2,-0.892001 2,-2 v 1 c 0,1.107999 -0.892001,2 -2,2 z"
     style="opacity:0.3;fill:#ffffff;fill-opacity:1"
     id="path19648" />
  <path
     id="rect899"
     style="opacity:0.5;fill:#000000;stroke:none"
     d="M 3,0 C 1.3380017,0 0,1.3380017 0,3 v 10 c 0,1.661998 1.3380017,3 3,3 h 10 c 1.661998,0 3,-1.338002 3,-3 V 3 C 16,1.3380017 14.661998,0 13,0 Z m 0,1 h 10 c 1.107999,0 2,0.8920011 2,2 v 10 c 0,1.107999 -0.892001,2 -2,2 H 3 C 1.8920011,15 1,14.107999 1,13 V 3 C 1,1.8920011 1.8920011,1 3,1 Z" />
  <path
     id="path3331"
     style="opacity:0.2;fill:#000000"
     d="M 5.199219,3 C 4.75602,3 4.400391,3.3575822 4.400391,3.8007812 c 0,0.4431992 0.355629,0.7988282 0.798828,0.7988282 C 5.642418,4.5996094 6,4.2439804 6,3.8007812 6,3.3575822 5.642418,3 5.199219,3 Z M 9.714844,3 8,4.5996094 10.572266,7 8,9.400391 9.714844,11 14,7 Z M 3,8 C 2.446005,8 2,8.445998 2,9 2,9.553994 2.446005,10 3,10 3.554003,10 4,9.553994 4,9 4,8.445998 3.554003,8 3,8 Z m 3.5,4 C 5.669001,12 5,12.669002 5,13.5 5,14.330998 5.669001,15 6.5,15 7.330998,15 8,14.330998 8,13.5 8,12.669002 7.330998,12 6.5,12 Z" />
  <path
     id="path360"
     style="fill:#ffffff"
     d="M 5.199219,2 C 4.75602,2 4.400391,2.3575822 4.400391,2.8007812 c 0,0.4431992 0.355629,0.7988282 0.798828,0.7988282 C 5.642418,3.5996094 6,3.2439804 6,2.8007812 6,2.3575822 5.642418,2 5.199219,2 Z M 9.714844,2 8,3.5996094 10.572266,6 8,8.400391 9.714844,10 14,6 Z M 3,7 C 2.446005,7 2,7.445998 2,8 2,8.553996 2.446005,9 3,9 3.554003,9 4,8.553996 4,8 4,7.445998 3.554003,7 3,7 Z m 3.5,4 C 5.669001,11 5,11.669002 5,12.5 5,13.330998 5.669001,14 6.5,14 7.330999,14 8,13.330998 8,12.5 8,11.669002 7.330999,11 6.5,11 Z" />
</svg>
