<?xml version="1.0" encoding="UTF-8" standalone="no"?>
<!-- Created with Inkscape (http://www.inkscape.org/) -->

<svg
   width="16"
   height="16"
   viewBox="0 0 16 16"
   version="1.1"
   id="svg5"
   sodipodi:docname="polari.svg"
   inkscape:version="1.2.1 (9c6d41e410, 2022-07-14)"
   xmlns:inkscape="http://www.inkscape.org/namespaces/inkscape"
   xmlns:sodipodi="http://sodipodi.sourceforge.net/DTD/sodipodi-0.dtd"
   xmlns:xlink="http://www.w3.org/1999/xlink"
   xmlns="http://www.w3.org/2000/svg"
   xmlns:svg="http://www.w3.org/2000/svg">
  <sodipodi:namedview
     id="namedview7"
     pagecolor="#ffffff"
     bordercolor="#666666"
     borderopacity="1.0"
     inkscape:showpageshadow="2"
     inkscape:pageopacity="0.0"
     inkscape:pagecheckerboard="0"
     inkscape:deskcolor="#d1d1d1"
     inkscape:document-units="px"
     showgrid="false"
     inkscape:zoom="13"
     inkscape:cx="3.8461538"
     inkscape:cy="7.8846153"
     inkscape:window-width="1920"
     inkscape:window-height="1007"
     inkscape:window-x="0"
     inkscape:window-y="0"
     inkscape:window-maximized="1"
     inkscape:current-layer="svg5" />
  <defs
     id="defs2">
    <linearGradient
       inkscape:collect="always"
       xlink:href="#linearGradient3031"
       id="linearGradient30973"
       x1="8"
       y1="16"
       x2="8"
       y2="0"
       gradientUnits="userSpaceOnUse" />
    <linearGradient
       inkscape:collect="always"
       xlink:href="#linearGradient943"
       id="linearGradient6840"
       x1="-4"
       y1="12.000001"
       x2="-4"
       y2="0"
       gradientUnits="userSpaceOnUse"
       gradientTransform="translate(12)" />
    <linearGradient
       inkscape:collect="always"
       id="linearGradient943">
      <stop
         style="stop-color:#ffffff;stop-opacity:1;"
         offset="0"
         id="stop939" />
      <stop
         style="stop-color:#dffce7;stop-opacity:1;"
         offset="1"
         id="stop941" />
    </linearGradient>
    <linearGradient
       inkscape:collect="always"
       id="linearGradient3031">
      <stop
         style="stop-color:#74c021;stop-opacity:1;"
         offset="0"
         id="stop3027" />
      <stop
         style="stop-color:#b4e680;stop-opacity:1;"
         offset="1"
         id="stop3029" />
    </linearGradient>
  </defs>
  <rect
     style="fill:url(#linearGradient30973);fill-opacity:1.0;stroke:none"
     id="rect184"
     width="15"
     height="15"
     x="0.5"
     y="0.5"
     ry="2.5" />
  <path
     id="rect6731"
     style="opacity:0.2;fill:#000000;stroke-width:2;stroke-linecap:round;stroke-linejoin:round"
     d="m 7,4.0000001 -0.445312,2 H 4 v 1 H 6.332031 L 5.666016,10.000001 H 4 v 1 h 1.445313 l -0.445313,2 h 1 l 0.445313,-2 h 2 l -0.445313,2 h 1 l 0.445313,-2 H 12 v -1 H 9.666016 L 10.332031,7.0000001 H 12 v -1 h -1.445312 l 0.445312,-2 h -1 l -0.445312,2 h -2 l 0.445312,-2 z m 0.332031,3 h 2 L 8.666016,10.000001 h -2 z"
     sodipodi:nodetypes="cccccccccccccccccccccccccccccccccc" />
  <path
     d="M 7,3 6.554688,5.0000001 H 4 v 1 H 6.332031 L 5.666016,8.9999998 H 4 V 9.9999996 H 5.445313 L 5,12.000002 H 6 L 6.445313,9.9999996 h 2 L 8,12.000002 H 9 L 9.445313,9.9999996 H 12 V 8.9999998 H 9.666016 L 10.332031,6.0000001 H 12 v -1 H 10.554687 L 11,3 H 10 L 9.554688,5.0000001 H 7.554687 L 8,3 Z m 0.332031,3.0000001 h 2 L 8.666016,8.9999998 h -2 z"
     style="fill:url(#linearGradient6840);fill-opacity:1;stroke-width:2;stroke-linecap:round;stroke-linejoin:round"
     id="path6809" />
  <path
     id="rect2630"
     style="opacity:0.3;fill:#ffffff;fill-opacity:1"
     d="M 3,1 C 1.8920011,1 1,1.8920011 1,3 V 4 C 1,2.8920011 1.8920011,2 3,2 h 10 c 1.107999,0 2,0.8920011 2,2 V 3 C 15,1.8920011 14.107999,1 13,1 Z" />
  <path
     d="m 2.9999999,15 c -1.1079989,0 -2,-0.892001 -2,-2 v -1 c 0,1.107999 0.8920011,2 2,2 H 13 c 1.107999,0 2,-0.892001 2,-2 v 1 c 0,1.107999 -0.892001,2 -2,2 z"
     style="opacity:0.3;fill:#ffffff;fill-opacity:1"
     id="path19648" />
  <path
     id="rect899"
     style="opacity:0.5;fill:#000000;stroke:none"
     d="M 3,0 C 1.3380017,0 0,1.3380017 0,3 v 10 c 0,1.661998 1.3380017,3 3,3 h 10 c 1.661998,0 3,-1.338002 3,-3 V 3 C 16,1.3380017 14.661998,0 13,0 Z m 0,1 h 10 c 1.107999,0 2,0.8920011 2,2 v 10 c 0,1.107999 -0.892001,2 -2,2 H 3 C 1.8920011,15 1,14.107999 1,13 V 3 C 1,1.8920011 1.8920011,1 3,1 Z" />
</svg>
