<?xml version="1.0" encoding="UTF-8" standalone="no"?>
<!-- Created with Inkscape (http://www.inkscape.org/) -->

<svg
   width="16"
   height="16"
   viewBox="0 0 16 16"
   version="1.1"
   id="svg5"
   sodipodi:docname="preferences-desktop-screensaver.svg"
   inkscape:version="1.3.2 (091e20ef0f, 2023-11-25, custom)"
   xmlns:inkscape="http://www.inkscape.org/namespaces/inkscape"
   xmlns:sodipodi="http://sodipodi.sourceforge.net/DTD/sodipodi-0.dtd"
   xmlns:xlink="http://www.w3.org/1999/xlink"
   xmlns="http://www.w3.org/2000/svg"
   xmlns:svg="http://www.w3.org/2000/svg">
  <sodipodi:namedview
     id="namedview7"
     pagecolor="#ffffff"
     bordercolor="#666666"
     borderopacity="1.0"
     inkscape:showpageshadow="2"
     inkscape:pageopacity="0.0"
     inkscape:pagecheckerboard="0"
     inkscape:deskcolor="#d1d1d1"
     inkscape:document-units="px"
     showgrid="false"
     inkscape:zoom="51.625"
     inkscape:cx="8"
     inkscape:cy="8"
     inkscape:window-width="1920"
     inkscape:window-height="1011"
     inkscape:window-x="0"
     inkscape:window-y="0"
     inkscape:window-maximized="1"
     inkscape:current-layer="svg5" />
  <defs
     id="defs2">
    <linearGradient
       inkscape:collect="always"
       id="linearGradient2">
      <stop
         style="stop-color:#4b315a;stop-opacity:1;"
         offset="0"
         id="stop1" />
      <stop
         style="stop-color:#68487d;stop-opacity:1;"
         offset="1"
         id="stop2" />
    </linearGradient>
    <linearGradient
       inkscape:collect="always"
       xlink:href="#linearGradient2"
       id="linearGradient30973"
       x1="8"
       y1="16"
       x2="8"
       y2="0"
       gradientUnits="userSpaceOnUse" />
  </defs>
  <rect
     style="fill:url(#linearGradient30973);fill-opacity:1;stroke:none"
     id="rect184"
     width="15"
     height="15"
     x="0.5"
     y="0.5"
     ry="2.5" />
  <path
     d="m 7.7843282,3.00006 c -2.37106,0.0871 -4.55603,1.54873 -5.41752,3.91564 -1.13477,3.11777 0.44921,6.5892 3.56699,7.72399 2.36689,0.86147 4.9263298,0.1244 6.5171098,-1.63599 -1.13952,0.36783 -2.40825,0.38761 -3.6206098,-0.0537 -2.8951,-1.05372 -4.37934,-4.2657 -3.32561,-7.16078 0.44126,-1.21236 1.2654,-2.15273 2.27964,-2.78922 z m 3.6474598,0.25926 -0.24249,0.9018 -0.90182,0.24249 0.90182,0.2425 0.24249,0.90179 0.24248,-0.90179 0.9018,-0.2425 -0.9018,-0.24249 z m -2.8607498,1.69855 -0.18215,0.67608 -0.67608,0.18214 0.67608,0.18216 0.18215,0.67607 0.18215,-0.67607 0.67608,-0.18216 -0.67608,-0.18214 z m 3.4328798,1.73433 -0.12124,0.4509 -0.45089,0.12125 0.45089,0.12124 0.12124,0.45091 0.12125,-0.45091 0.4509,-0.12124 -0.4509,-0.12125 z m -0.85822,2.86074 -0.18215,0.67607 -0.67607,0.18214 0.67607,0.18215 0.18215,0.67607 0.18215,-0.67607 0.67607,-0.18215 -0.67607,-0.18214 z"
     style="color:#bebebe;display:inline;overflow:visible;visibility:visible;opacity:0.2;fill:#000000;fill-opacity:1;fill-rule:nonzero;stroke:none;stroke-width:1;marker:none;enable-background:accumulate"
     id="path1" />
  <path
     d="m 7.7843282,2.00004 c -2.37106,0.0871 -4.55603,1.54873 -5.41752,3.91564 -1.13477,3.11777 0.44921,6.5892 3.56699,7.72399 2.36689,0.86147 4.9263298,0.1244 6.5171098,-1.63599 -1.13952,0.36783 -2.40825,0.38761 -3.6206098,-0.0537 -2.8951,-1.05372 -4.37934,-4.2657 -3.32561,-7.16078 0.44126,-1.21236 1.2654,-2.15273 2.27964,-2.78922 z m 3.6474598,0.25926 -0.24249,0.9018 -0.90182,0.24249 0.90182,0.2425 0.24249,0.90179 0.24248,-0.90179 0.9018,-0.2425 -0.9018,-0.24249 z m -2.8607498,1.69855 -0.18215,0.67608 -0.67608,0.18214 0.67608,0.18216 0.18215,0.67607 0.18215,-0.67607 0.67608,-0.18216 -0.67608,-0.18214 z m 3.4328798,1.73433 -0.12124,0.4509 -0.45089,0.12125 0.45089,0.12124 0.12124,0.45091 0.12125,-0.45091 0.4509,-0.12124 -0.4509,-0.12125 z m -0.85822,2.86074 -0.18215,0.67607 -0.67607,0.18214 0.67607,0.18215 0.18215,0.67607 0.18215,-0.67607 0.67607,-0.18215 -0.67607,-0.18214 z"
     style="color:#bebebe;display:inline;overflow:visible;visibility:visible;opacity:1;fill:#ffffff;fill-opacity:1;fill-rule:nonzero;stroke:none;stroke-width:1;marker:none;enable-background:accumulate"
     id="path1-3" />
  <path
     id="rect2630"
     style="opacity:0.1;fill:#ffffff;fill-opacity:1"
     d="M 3,1 C 1.8920011,1 1,1.8920011 1,3 V 4 C 1,2.8920011 1.8920011,2 3,2 h 10 c 1.107999,0 2,0.8920011 2,2 V 3 C 15,1.8920011 14.107999,1 13,1 Z" />
  <path
     d="m 2.9999999,15 c -1.1079989,0 -2,-0.892001 -2,-2 v -1 c 0,1.107999 0.8920011,2 2,2 H 13 c 1.107999,0 2,-0.892001 2,-2 v 1 c 0,1.107999 -0.892001,2 -2,2 z"
     style="opacity:0.1;fill:#ffffff;fill-opacity:1"
     id="path19648" />
  <path
     id="rect899"
     style="opacity:0.5;fill:#000000;stroke:none"
     d="M 3,0 C 1.3380017,0 0,1.3380017 0,3 v 10 c 0,1.661998 1.3380017,3 3,3 h 10 c 1.661998,0 3,-1.338002 3,-3 V 3 C 16,1.3380017 14.661998,0 13,0 Z m 0,1 h 10 c 1.107999,0 2,0.8920011 2,2 v 10 c 0,1.107999 -0.892001,2 -2,2 H 3 C 1.8920011,15 1,14.107999 1,13 V 3 C 1,1.8920011 1.8920011,1 3,1 Z" />
</svg>
