<?xml version="1.0" encoding="UTF-8" standalone="no"?>
<!-- Created with Inkscape (http://www.inkscape.org/) -->

<svg
   width="16"
   height="16"
   viewBox="0 0 16 16"
   version="1.1"
   id="svg5"
   sodipodi:docname="preferences-desktop-font-installer.svg"
   inkscape:version="1.2.1 (9c6d41e410, 2022-07-14)"
   xmlns:inkscape="http://www.inkscape.org/namespaces/inkscape"
   xmlns:sodipodi="http://sodipodi.sourceforge.net/DTD/sodipodi-0.dtd"
   xmlns:xlink="http://www.w3.org/1999/xlink"
   xmlns="http://www.w3.org/2000/svg"
   xmlns:svg="http://www.w3.org/2000/svg">
  <sodipodi:namedview
     id="namedview7"
     pagecolor="#ffffff"
     bordercolor="#666666"
     borderopacity="1.0"
     inkscape:showpageshadow="2"
     inkscape:pageopacity="0.0"
     inkscape:pagecheckerboard="0"
     inkscape:deskcolor="#d1d1d1"
     inkscape:document-units="px"
     showgrid="false"
     inkscape:zoom="49.6875"
     inkscape:cx="8"
     inkscape:cy="8"
     inkscape:window-width="1920"
     inkscape:window-height="1007"
     inkscape:window-x="0"
     inkscape:window-y="0"
     inkscape:window-maximized="1"
     inkscape:current-layer="svg5" />
  <defs
     id="defs2">
    <linearGradient
       inkscape:collect="always"
       id="linearGradient6608">
      <stop
         style="stop-color:#b79877;stop-opacity:1;"
         offset="0"
         id="stop6604" />
      <stop
         style="stop-color:#f7d2a2;stop-opacity:1;"
         offset="1"
         id="stop6606" />
    </linearGradient>
    <linearGradient
       inkscape:collect="always"
       xlink:href="#linearGradient6608"
       id="linearGradient30973"
       x1="8"
       y1="16"
       x2="8"
       y2="0"
       gradientUnits="userSpaceOnUse" />
  </defs>
  <rect
     style="fill:url(#linearGradient30973);fill-opacity:1;stroke:none"
     id="rect184"
     width="15"
     height="15"
     x="0.5"
     y="0.5"
     ry="2.5" />
  <rect
     style="opacity:0.2;fill:#ffffff;stroke-width:0.484123;stroke-linejoin:round"
     id="rect581"
     width="15"
     height="1"
     x="0.5"
     y="7.9999995" />
  <rect
     style="opacity:0.2;fill:#000000;fill-opacity:1;stroke-width:0.522233;stroke-linecap:round;stroke-linejoin:round"
     id="rect11182"
     width="15"
     height="1"
     x="0.5"
     y="7" />
  <path
     d="m 8.192876,5.000006 c -0.5412454,0 -1.0303126,0.086453 -1.4660623,0.2607512 C 6.2956504,5.43047 5.94969,5.6691768 5.6882411,5.9764947 5.4267928,6.2838118 5.2712951,6.6372981 5.2208407,7.0363522 h 1.2381267 c 0.087166,-0.298144 0.2751037,-0.5393589 0.5640757,-0.7228321 0.2889697,-0.18806 0.6607493,-0.2820373 1.1148448,-0.2820373 0.5550073,0 0.9741418,0.1305647 1.258527,0.3920146 0.2889678,0.2568627 0.4336982,0.6261333 0.4336982,1.1077503 V 8.1370081 C 9.6695736,8.1416367 9.3718561,8.155759 8.9361072,8.1786944 8.500359,8.2016297 8.1235625,8.2240553 7.8070697,8.2469906 6.9952005,8.3066175 6.323195,8.4970824 5.7911237,8.8181613 5.2636372,9.1346518 4.9999996,9.6786006 4.9999996,10.449188 c 0,0.472446 0.1122706,0.882435 0.3370256,1.231033 0.2247557,0.344012 0.5299962,0.607651 0.9152907,0.791124 0.3852938,0.178886 0.816972,0.271243 1.2940026,0.27583 0.5871143,-0.0046 1.0661475,-0.126889 1.4376824,-0.365409 0.37612,-0.243102 0.6397592,-0.520016 0.7911239,-0.831922 h 0.054986 v 1.018174 H 10.999947 V 7.6421148 C 11.004502,6.6100777 10.717589,5.9122537 10.13965,5.5498936 9.5617081,5.1829465 8.9130129,5.0000091 8.1928799,5.0000091 Z m 1.6372371,4.1072818 v 0.7494394 c 0,0.3210778 -0.082337,0.6221898 -0.2474487,0.9019878 -0.1605377,0.279798 -0.3967356,0.50434 -0.7086413,0.674051 -0.3119042,0.169714 -0.6811748,0.254544 -1.1077512,0.254544 -0.4770299,0 -0.8604648,-0.100601 -1.149436,-0.302437 C 6.332454,11.183053 6.1886122,10.889464 6.1840252,10.50417 6.188657,10.109704 6.3415996,9.8085919 6.6443312,9.6021842 6.9516483,9.3957766 7.3858347,9.2743589 7.945429,9.2376641 l 0.9764878,-0.068289 c 0.4999673,-0.036692 0.8027025,-0.057496 0.9081963,-0.062082 z"
     style="font-size:8.21007px;line-height:1.25;font-family:Pretendard;-inkscape-font-specification:Pretendard;opacity:0.5;fill:#ffffff;stroke-width:0.35227"
     id="path1907"
     sodipodi:nodetypes="ccscccscscsccsccccccccccscscsscccccccs" />
  <path
     d="m 8.192876,4.000004 c -0.5412454,0 -1.0303126,0.086453 -1.4660623,0.2607511 C 6.2956504,4.4304678 5.94969,4.6691746 5.6882411,4.9764924 5.4267928,5.2838097 5.2712951,5.6372959 5.2208407,6.03635 H 6.4589674 C 6.5461336,5.7382062 6.7340711,5.4969913 7.0230431,5.3135181 7.3120128,5.1254579 7.6837924,5.0314807 8.1378879,5.0314807 c 0.5550073,0 0.9741418,0.1305646 1.258527,0.3920145 0.2889678,0.2568627 0.4336982,0.6261333 0.4336982,1.1077503 V 7.1370067 C 9.6695736,7.1416353 9.3718561,7.1557575 8.9361072,7.1786929 8.500359,7.2016282 8.1235625,7.224054 7.8070697,7.2469815 6.9952005,7.3066083 6.323195,7.4970741 5.7911237,7.8181523 5.2636372,8.1346435 4.9999996,8.6785923 4.9999996,9.4491798 c 0,0.472444 0.1122706,0.8824322 0.3370256,1.2310322 0.2247557,0.344012 0.5299962,0.607652 0.9152907,0.791125 0.3852938,0.178884 0.816972,0.271243 1.2940026,0.275829 0.5871143,-0.0046 1.0661475,-0.12689 1.4376824,-0.365408 0.37612,-0.243103 0.6397592,-0.520017 0.7911239,-0.831924 h 0.054986 v 1.018175 H 10.999947 V 6.6421058 C 11.004502,5.6100685 10.717589,4.9122447 10.13965,4.5498846 9.5617081,4.1829375 8.9130129,4 8.1928799,4 Z m 1.6372371,4.1072824 v 0.7494394 c 0,0.3210782 -0.082337,0.6221887 -0.2474487,0.9019867 C 9.4221267,10.03851 9.1859288,10.263052 8.8740231,10.432764 8.5621189,10.602479 8.1928483,10.687309 7.7662719,10.687309 7.289242,10.687309 6.9058071,10.586707 6.6168359,10.38487 6.332454,10.18305 6.1886122,9.8894628 6.1840252,9.5041686 6.188657,9.1097024 6.3415996,8.8085897 6.6443312,8.6021828 6.9516483,8.3957752 7.3858347,8.2743568 7.945429,8.2376628 l 0.9764878,-0.068296 c 0.4999673,-0.036692 0.8027025,-0.057496 0.9081963,-0.062082 z"
     style="font-size:8.21007px;line-height:1.25;font-family:Pretendard;-inkscape-font-specification:Pretendard;fill:#4d4d4d;stroke-width:0.35227"
     id="path1940"
     sodipodi:nodetypes="scscccscscsccsccccccccccsscscsscccccsc" />
  <path
     id="rect2630"
     style="opacity:0.3;fill:#ffffff;fill-opacity:1"
     d="M 3,1 C 1.8920011,1 1,1.8920011 1,3 V 4 C 1,2.8920011 1.8920011,2 3,2 h 10 c 1.107999,0 2,0.8920011 2,2 V 3 C 15,1.8920011 14.107999,1 13,1 Z" />
  <path
     d="m 2.9999999,15 c -1.1079989,0 -2,-0.892001 -2,-2 v -1 c 0,1.107999 0.8920011,2 2,2 H 13 c 1.107999,0 2,-0.892001 2,-2 v 1 c 0,1.107999 -0.892001,2 -2,2 z"
     style="opacity:0.3;fill:#ffffff;fill-opacity:1"
     id="path19648" />
  <path
     id="rect899"
     style="opacity:0.5;fill:#000000;stroke:none"
     d="M 3,0 C 1.3380017,0 0,1.3380017 0,3 v 10 c 0,1.661998 1.3380017,3 3,3 h 10 c 1.661998,0 3,-1.338002 3,-3 V 3 C 16,1.3380017 14.661998,0 13,0 Z m 0,1 h 10 c 1.107999,0 2,0.8920011 2,2 v 10 c 0,1.107999 -0.892001,2 -2,2 H 3 C 1.8920011,15 1,14.107999 1,13 V 3 C 1,1.8920011 1.8920011,1 3,1 Z" />
</svg>
