<?xml version="1.0" encoding="UTF-8" standalone="no"?>
<!-- Created with Inkscape (http://www.inkscape.org/) -->

<svg
   width="16"
   height="16"
   viewBox="0 0 16 16"
   version="1.1"
   id="svg5"
   sodipodi:docname="preferences-desktop-notification-bell.svg"
   inkscape:version="1.2.1 (9c6d41e410, 2022-07-14)"
   xmlns:inkscape="http://www.inkscape.org/namespaces/inkscape"
   xmlns:sodipodi="http://sodipodi.sourceforge.net/DTD/sodipodi-0.dtd"
   xmlns:xlink="http://www.w3.org/1999/xlink"
   xmlns="http://www.w3.org/2000/svg"
   xmlns:svg="http://www.w3.org/2000/svg">
  <sodipodi:namedview
     id="namedview7"
     pagecolor="#ffffff"
     bordercolor="#666666"
     borderopacity="1.0"
     inkscape:showpageshadow="2"
     inkscape:pageopacity="0.0"
     inkscape:pagecheckerboard="0"
     inkscape:deskcolor="#d1d1d1"
     inkscape:document-units="px"
     showgrid="false"
     inkscape:zoom="12.859375"
     inkscape:cx="-1.3219927"
     inkscape:cy="8.8262454"
     inkscape:window-width="1920"
     inkscape:window-height="1009"
     inkscape:window-x="0"
     inkscape:window-y="0"
     inkscape:window-maximized="1"
     inkscape:current-layer="svg5" />
  <defs
     id="defs2">
    <linearGradient
       inkscape:collect="always"
       id="linearGradient3551">
      <stop
         style="stop-color:#ffa028;stop-opacity:1;"
         offset="0"
         id="stop3547" />
      <stop
         style="stop-color:#ffe183;stop-opacity:1;"
         offset="1"
         id="stop3549" />
    </linearGradient>
    <linearGradient
       inkscape:collect="always"
       xlink:href="#linearGradient3551"
       id="linearGradient19638"
       x1="13.179658"
       y1="16"
       x2="3"
       y2="0"
       gradientUnits="userSpaceOnUse" />
  </defs>
  <rect
     style="fill:url(#linearGradient19638);fill-opacity:1.0;stroke:none"
     id="rect184"
     width="15"
     height="15"
     x="0.5"
     y="0.5"
     ry="2.5" />
  <path
     d="m 7.999995,4 c -0.39572,0 -0.71427,0.31855 -0.71427,0.71429 -9e-5,0.009 2e-4,0.0145 0,0.0223 -1.23429,0.32009 -2.14286,1.4063 -2.14286,2.83485 0,1.43231 5e-4,3.71429 -1.27232,3.71429 -0.0849,-4e-5 -0.15623,0.0797 -0.15625,0.17857 v 0.53571 h 8.57141 v -0.53573 c -3e-5,-0.0989 -0.072,-0.17835 -0.15622,-0.17858 -1.27779,10e-6 -1.27232,-2.28221 -1.27231,-3.71426 -10e-6,-1.42857 -0.90826,-2.5149 -2.14287,-2.83483 8e-5,-0.009 -2.4e-4,-0.0146 -10e-6,-0.0223 0,-0.39571 -0.31855,-0.71428 -0.71428,-0.71428 z m -1,9.00001 c 0,0 0,1 1,1 1,0 1,-1 1,-1 z"
     style="color:#000000;display:inline;overflow:visible;visibility:visible;fill:#000000;fill-opacity:1;fill-rule:nonzero;stroke:none;stroke-width:4;marker:none;enable-background:accumulate;opacity:0.2"
     id="path2906" />
  <path
     d="m 7.999995,2.999995 c -0.39572,0 -0.71427,0.31855 -0.71427,0.71429 -9e-5,0.009 2e-4,0.0145 0,0.0223 -1.23429,0.32009 -2.14286,1.4063 -2.14286,2.83485 0,1.43231 5e-4,3.71429 -1.27232,3.71429 -0.0849,-4e-5 -0.15623,0.0797 -0.15625,0.17857 v 0.53571 h 8.57141 v -0.53573 c -3e-5,-0.0989 -0.072,-0.17835 -0.15622,-0.17858 -1.27779,10e-6 -1.27232,-2.28221 -1.27231,-3.71426 -10e-6,-1.42857 -0.90826,-2.5149 -2.14287,-2.83483 8e-5,-0.009 -2.4e-4,-0.0146 -10e-6,-0.0223 0,-0.39571 -0.31855,-0.71428 -0.71428,-0.71428 z m -1,9.00001 c 0,0 0,1 1,1 1,0 1,-1 1,-1 z"
     style="color:#000000;display:inline;overflow:visible;visibility:visible;fill:#ffffff;fill-opacity:1;fill-rule:nonzero;stroke:none;stroke-width:4;marker:none;enable-background:accumulate"
     id="path2682"
     sodipodi:nodetypes="cccsccccccccccccscc" />
  <path
     id="rect2630"
     style="opacity:0.3;fill:#ffffff;fill-opacity:1"
     d="M 3,1 C 1.8920011,1 1,1.8920011 1,3 V 4 C 1,2.8920011 1.8920011,2 3,2 h 10 c 1.107999,0 2,0.8920011 2,2 V 3 C 15,1.8920011 14.107999,1 13,1 Z"
     sodipodi:nodetypes="sscsscsss" />
  <path
     d="M 3,15 C 1.8920011,15 1,14.107999 1,13 v -1 c 0,1.107999 0.8920011,2 2,2 h 10 c 1.107999,0 2,-0.892001 2,-2 v 1 c 0,1.107999 -0.892001,2 -2,2 z"
     style="opacity:0.3;fill:#ffffff;fill-opacity:1"
     id="path19648" />
  <path
     id="rect899"
     style="opacity:0.5;fill:#000000;stroke:none"
     d="M 3,0 C 1.3380017,0 0,1.3380017 0,3 v 10 c 0,1.661998 1.3380017,3 3,3 h 10 c 1.661998,0 3,-1.338002 3,-3 V 3 C 16,1.3380017 14.661998,0 13,0 Z m 0,1 h 10 c 1.107999,0 2,0.8920011 2,2 v 10 c 0,1.107999 -0.892001,2 -2,2 H 3 C 1.8920011,15 1,14.107999 1,13 V 3 C 1,1.8920011 1.8920011,1 3,1 Z" />
</svg>
