<?xml version="1.0" encoding="UTF-8" standalone="no"?>
<!-- Created with Inkscape (http://www.inkscape.org/) -->

<svg
   width="16"
   height="16"
   viewBox="0 0 16 16"
   version="1.1"
   id="svg5"
   sodipodi:docname="preferences-desktop-theme-windowdecorations.svg"
   inkscape:version="1.2.1 (9c6d41e410, 2022-07-14)"
   xmlns:inkscape="http://www.inkscape.org/namespaces/inkscape"
   xmlns:sodipodi="http://sodipodi.sourceforge.net/DTD/sodipodi-0.dtd"
   xmlns:xlink="http://www.w3.org/1999/xlink"
   xmlns="http://www.w3.org/2000/svg"
   xmlns:svg="http://www.w3.org/2000/svg">
  <sodipodi:namedview
     id="namedview7"
     pagecolor="#ffffff"
     bordercolor="#666666"
     borderopacity="1.0"
     inkscape:showpageshadow="2"
     inkscape:pageopacity="0.0"
     inkscape:pagecheckerboard="0"
     inkscape:deskcolor="#d1d1d1"
     inkscape:document-units="px"
     showgrid="false"
     inkscape:zoom="49.375"
     inkscape:cx="8.0101266"
     inkscape:cy="8.0101266"
     inkscape:window-width="1920"
     inkscape:window-height="1007"
     inkscape:window-x="0"
     inkscape:window-y="0"
     inkscape:window-maximized="1"
     inkscape:current-layer="svg5" />
  <defs
     id="defs2">
    <linearGradient
       inkscape:collect="always"
       xlink:href="#linearGradient22024"
       id="linearGradient19638"
       x1="8"
       y1="16"
       x2="8"
       y2="4"
       gradientUnits="userSpaceOnUse" />
    <linearGradient
       inkscape:collect="always"
       id="linearGradient22024">
      <stop
         style="stop-color:#dedede;stop-opacity:1;"
         offset="0"
         id="stop22020" />
      <stop
         style="stop-color:#f2f2f2;stop-opacity:1;"
         offset="1"
         id="stop22022" />
    </linearGradient>
  </defs>
  <rect
     style="fill:url(#linearGradient19638);fill-opacity:1;stroke:none"
     id="rect184"
     width="15"
     height="15"
     x="0.5"
     y="0.5"
     ry="2.5" />
  <path
     d="M 11.756578,7.0037747 C 11.154261,6.9278499 9.5830458,8.00484 8.034537,9.5539592 7.3439937,10.24492 6.7446897,10.927738 6.2856793,11.571785 c 0.5379672,0.171397 0.9715328,0.604677 1.14284,1.14284 C 8.0723218,12.255483 8.7566898,11.658789 9.4474618,10.968 11.204305,9.2104274 12.312023,7.469287 11.921754,7.0785503 c -0.04011,-0.0404 -0.09484,-0.065754 -0.165176,-0.074776 z M 5.9999697,12.331818 v 0.0011 C 4.000108,12.869025 5.4998937,14.135425 4,15.000267 c 1.9998617,0 2.9999545,-1.001024 2.9999545,-1.668501 0,-0.332726 0.033912,-0.944613 -0.9999848,-0.999985 z"
     style="color:#444444;opacity:0.2;fill:#000000;stroke-width:0.571418"
     id="path11335" />
  <path
     d="M 11.756578,6.0037747 C 11.154261,5.9278499 9.5830458,7.00484 8.034537,8.5539591 7.3439937,9.24492 6.7446897,9.9277382 6.2856793,10.571786 c 0.5379672,0.171396 0.9715328,0.604676 1.14284,1.142839 C 8.0723218,11.255483 8.7566898,10.658788 9.4474618,9.968 11.204305,8.2104274 12.312023,6.469287 11.921754,6.0785502 c -0.04011,-0.0404 -0.09484,-0.065754 -0.165176,-0.074775 z M 5.9999697,11.331818 v 0.0011 C 4.000108,11.869028 5.4998937,13.135425 4,14.000268 c 1.9998617,0 2.9999545,-1.001025 2.9999545,-1.6685 0,-0.332726 0.033912,-0.944614 -0.9999848,-0.999985 z"
     style="color:#444444;fill:#4d4d4d;stroke-width:0.571418;fill-opacity:1"
     id="path347"
     sodipodi:nodetypes="ccccccccccscc" />
  <path
     id="rect348"
     style="fill:#6a747d;fill-opacity:1;stroke-width:0.263523;stroke-linejoin:round"
     d="M 3,0.5 C 1.6150014,0.5 0.5,1.6150014 0.5,3 v 2 h 15 V 3 C 15.5,1.6150014 14.384999,0.5 13,0.5 Z"
     sodipodi:nodetypes="ssccsss" />
  <rect
     style="opacity:0.2;fill:#000000;stroke-width:0.484123;stroke-linejoin:round"
     id="rect581"
     width="15"
     height="1"
     x="0.5"
     y="4" />
  <path
     id="rect2630"
     style="opacity:0.3;fill:#ffffff;fill-opacity:1"
     d="M 3,1 C 1.8920011,1 1,1.8920011 1,3 V 4 C 1,2.8920011 1.8920011,2 3,2 h 10 c 1.107999,0 2,0.8920011 2,2 V 3 C 15,1.8920011 14.107999,1 13,1 Z"
     sodipodi:nodetypes="sscsscsss" />
  <path
     d="M 3,15 C 1.8920011,15 1,14.107999 1,13 v -1 c 0,1.107999 0.8920011,2 2,2 h 10 c 1.107999,0 2,-0.892001 2,-2 v 1 c 0,1.107999 -0.892001,2 -2,2 z"
     style="opacity:0.3;fill:#ffffff;fill-opacity:1"
     id="path19648" />
  <path
     id="rect899"
     style="opacity:0.5;fill:#000000;stroke:none"
     d="M 3,0 C 1.3380017,0 0,1.3380017 0,3 v 10 c 0,1.661998 1.3380017,3 3,3 h 10 c 1.661998,0 3,-1.338002 3,-3 V 3 C 16,1.3380017 14.661998,0 13,0 Z m 0,1 h 10 c 1.107999,0 2,0.8920011 2,2 v 10 c 0,1.107999 -0.892001,2 -2,2 H 3 C 1.8920011,15 1,14.107999 1,13 V 3 C 1,1.8920011 1.8920011,1 3,1 Z" />
</svg>
