<?xml version="1.0" encoding="UTF-8" standalone="no"?>
<!-- Created with Inkscape (http://www.inkscape.org/) -->

<svg
   width="16"
   height="16"
   viewBox="0 0 16 16"
   version="1.1"
   id="svg5"
   sodipodi:docname="preferences-desktop-keyboard.svg"
   inkscape:version="1.2.1 (9c6d41e410, 2022-07-14)"
   xmlns:inkscape="http://www.inkscape.org/namespaces/inkscape"
   xmlns:sodipodi="http://sodipodi.sourceforge.net/DTD/sodipodi-0.dtd"
   xmlns:xlink="http://www.w3.org/1999/xlink"
   xmlns="http://www.w3.org/2000/svg"
   xmlns:svg="http://www.w3.org/2000/svg">
  <sodipodi:namedview
     id="namedview7"
     pagecolor="#ffffff"
     bordercolor="#666666"
     borderopacity="1.0"
     inkscape:showpageshadow="2"
     inkscape:pageopacity="0.0"
     inkscape:pagecheckerboard="0"
     inkscape:deskcolor="#d1d1d1"
     inkscape:document-units="px"
     showgrid="false"
     inkscape:zoom="49.5"
     inkscape:cx="7.989899"
     inkscape:cy="8"
     inkscape:window-width="1920"
     inkscape:window-height="1007"
     inkscape:window-x="0"
     inkscape:window-y="0"
     inkscape:window-maximized="1"
     inkscape:current-layer="svg5" />
  <defs
     id="defs2">
    <linearGradient
       inkscape:collect="always"
       xlink:href="#linearGradient22024"
       id="linearGradient19638"
       x1="13"
       y1="16"
       x2="3"
       y2="0"
       gradientUnits="userSpaceOnUse" />
    <linearGradient
       inkscape:collect="always"
       id="linearGradient22024">
      <stop
         style="stop-color:#cdcdcd;stop-opacity:1;"
         offset="0"
         id="stop22020" />
      <stop
         style="stop-color:#eff0f1;stop-opacity:1;"
         offset="1"
         id="stop22022" />
    </linearGradient>
  </defs>
  <rect
     style="fill:url(#linearGradient19638);fill-opacity:1.0;stroke:none"
     id="rect184"
     width="15"
     height="15"
     x="0.5"
     y="0.5"
     ry="2.5" />
  <path
     d="M 3,4 C 2.4460006,4 2.0000001,4.446 2.0000001,5 V 6 C 2.0000001,6.553999 2.4460006,7 3,7 H 3.9999999 C 4.5539992,7 4.9999998,6.553999 4.9999998,6 V 5 c 0,-0.554 -0.4460006,-1 -0.9999999,-1 z m 3.9999999,0 c -0.553999,0 -1,0.446 -1,1 v 1 c 0,0.553999 0.446001,1 1,1 H 8 C 8.554,7 9,6.553999 9,6 V 5 C 9,4.446 8.554,4 8,4 Z M 11,4 c -0.554,0 -1,0.446 -1,1 v 1 c 0,0.553999 0.446,1 1,1 h 1 c 0.553999,0 1,-0.446001 1,-1 V 5 C 13,4.446 12.553999,4 12,4 Z M 3.9999998,9.0000001 c -0.5539994,0 -0.9999999,0.446 -0.9999999,0.9999999 v 1 c 0,0.553999 0.4460005,1 0.9999999,1 H 11 c 0.553999,0 1,-0.446001 1,-1 V 10 C 12,9.4460001 11.553999,9.0000001 11,9.0000001 Z"
     style="fill:#afafaf;fill-opacity:1;stroke-width:0.999999;stroke-linecap:round;stroke-linejoin:round"
     id="path1728"
     sodipodi:nodetypes="ssssssssssssssssssssssssssssssssssss" />
  <path
     id="path1695"
     style="opacity:0.2;fill:#000000;fill-opacity:0.961371;stroke-width:0.999999;stroke-linecap:round;stroke-linejoin:round"
     d="M 3,4 C 2.4460012,4 2,4.446001 2,5 V 6 C 2,5.446001 2.4460012,5 3,5 h 0.9999999 c 0.5539987,0 1,0.446001 1,1 V 5 c 0,-0.553999 -0.4460013,-1 -1,-1 z m 3.9999999,0 c -0.553998,0 -1,0.446001 -1,1 v 1 c 0,-0.553999 0.446002,-1 1,-1 H 8 C 8.5539989,5 9,5.446001 9,6 V 5 C 9,4.446001 8.5539989,4 8,4 Z M 11,4 c -0.553999,0 -1,0.446001 -1,1 v 1 c 0,-0.553999 0.446001,-1 1,-1 h 1 c 0.553998,0 1,0.446001 1,1 V 5 C 13,4.446001 12.553998,4 12,4 Z M 3.9999999,9.0000001 C 3.4460012,9.0000001 3,9.4460021 3,10 v 1 C 3,10.446002 3.4460012,10 3.9999999,10 H 11 c 0.553998,0 1,0.446002 1,1 V 10 C 12,9.4460021 11.553998,9.0000001 11,9.0000001 Z"
     sodipodi:nodetypes="sscsscssssscsscssssscsscssssscsscsss" />
  <path
     id="rect2630"
     style="opacity:0.3;fill:#ffffff;fill-opacity:1"
     d="M 3,1 C 1.8920011,1 1,1.8920011 1,3 V 4 C 1,2.8920011 1.8920011,2 3,2 h 10 c 1.107999,0 2,0.8920011 2,2 V 3 C 15,1.8920011 14.107999,1 13,1 Z"
     sodipodi:nodetypes="sscsscsss" />
  <path
     d="M 3,15 C 1.8920011,15 1,14.107999 1,13 v -1 c 0,1.107999 0.8920011,2 2,2 h 10 c 1.107999,0 2,-0.892001 2,-2 v 1 c 0,1.107999 -0.892001,2 -2,2 z"
     style="opacity:0.3;fill:#ffffff;fill-opacity:1"
     id="path19648" />
  <path
     id="rect899"
     style="opacity:0.5;fill:#000000;stroke:none"
     d="M 3,0 C 1.3380017,0 0,1.3380017 0,3 v 10 c 0,1.661998 1.3380017,3 3,3 h 10 c 1.661998,0 3,-1.338002 3,-3 V 3 C 16,1.3380017 14.661998,0 13,0 Z m 0,1 h 10 c 1.107999,0 2,0.8920011 2,2 v 10 c 0,1.107999 -0.892001,2 -2,2 H 3 C 1.8920011,15 1,14.107999 1,13 V 3 C 1,1.8920011 1.8920011,1 3,1 Z" />
</svg>
