<?xml version="1.0" encoding="UTF-8" standalone="no"?>
<!-- Created with Inkscape (http://www.inkscape.org/) -->

<svg
   width="16"
   height="16"
   viewBox="0 0 16 16"
   version="1.1"
   id="svg5"
   sodipodi:docname="preferences-system-search.svg"
   inkscape:version="1.2.1 (9c6d41e410, 2022-07-14)"
   xmlns:inkscape="http://www.inkscape.org/namespaces/inkscape"
   xmlns:sodipodi="http://sodipodi.sourceforge.net/DTD/sodipodi-0.dtd"
   xmlns:xlink="http://www.w3.org/1999/xlink"
   xmlns="http://www.w3.org/2000/svg"
   xmlns:svg="http://www.w3.org/2000/svg">
  <sodipodi:namedview
     id="namedview7"
     pagecolor="#ffffff"
     bordercolor="#666666"
     borderopacity="1.0"
     inkscape:showpageshadow="2"
     inkscape:pageopacity="0.0"
     inkscape:pagecheckerboard="0"
     inkscape:deskcolor="#d1d1d1"
     inkscape:document-units="px"
     showgrid="false"
     inkscape:zoom="24.90625"
     inkscape:cx="1.2045169"
     inkscape:cy="8.2910916"
     inkscape:window-width="1920"
     inkscape:window-height="1009"
     inkscape:window-x="0"
     inkscape:window-y="0"
     inkscape:window-maximized="1"
     inkscape:current-layer="svg5" />
  <defs
     id="defs2">
    <linearGradient
       inkscape:collect="always"
       xlink:href="#linearGradient1227"
       id="linearGradient19638"
       x1="8"
       y1="16"
       x2="8"
       y2="0"
       gradientUnits="userSpaceOnUse" />
    <linearGradient
       inkscape:collect="always"
       id="linearGradient1227">
      <stop
         style="stop-color:#565f76;stop-opacity:1;"
         offset="0"
         id="stop1223" />
      <stop
         style="stop-color:#a3a5b6;stop-opacity:1;"
         offset="1"
         id="stop1225" />
    </linearGradient>
  </defs>
  <rect
     style="fill:url(#linearGradient19638);fill-opacity:1;stroke:none"
     id="rect184"
     width="15"
     height="15"
     x="0.5"
     y="0.5"
     ry="2.5" />
  <path
     d="m 9.076,4.019 c -2.160211,0 -3.94495,1.7649 -3.94495,3.92266 0,0.8201 0.27759,1.57466 0.71321,2.2065 l -2.62997,2.62995 c -0.685411,0.66862 0.31944,1.6958 1.00296,1.02525 l 2.62997,-2.62997 c 0.63282,0.43572 1.407159,0.69093 2.22878,0.69093 2.160209,0 3.922649,-1.7649 3.922649,-3.92266 C 12.998649,5.7839 11.236209,4.019 9.076,4.019 Z m 0,1.42642 c 1.388869,0 2.496229,1.10895 2.496229,2.49624 0,1.38729 -1.10736,2.49623 -2.496229,2.49623 -1.38887,0 -2.49624,-1.10894 -2.49624,-2.49623 0,-1.38729 1.107369,-2.49624 2.49624,-2.49624 z"
     style="color:#000000;font-style:normal;font-variant:normal;font-weight:normal;font-stretch:normal;font-size:medium;line-height:normal;font-family:Sans;-inkscape-font-specification:Sans;text-indent:0;text-align:start;text-decoration:none;text-decoration-line:none;letter-spacing:normal;word-spacing:normal;text-transform:none;writing-mode:lr-tb;direction:ltr;baseline-shift:baseline;text-anchor:start;display:inline;overflow:visible;visibility:visible;fill:#000000;fill-opacity:1;stroke:none;stroke-width:1.55467;marker:none;enable-background:new;opacity:0.2"
     id="path6532" />
  <path
     d="m 9.075999,3.019 c -2.16021,0 -3.94495,1.7649 -3.94495,3.92266 0,0.8201 0.27759,1.57466 0.71321,2.2065 l -2.62997,2.62995 c -0.68541,0.66862 0.31944,1.6958 1.00296,1.02525 l 2.62997,-2.62997 c 0.63282,0.43572 1.40716,0.69093 2.22878,0.69093 2.16021,0 3.92265,-1.7649 3.92265,-3.92266 0,-2.15776 -1.76244,-3.92266 -3.92265,-3.92266 z m 0,1.42642 c 1.38887,0 2.49623,1.10895 2.49623,2.49624 0,1.38729 -1.10736,2.49623 -2.49623,2.49623 -1.38887,0 -2.49624,-1.10894 -2.49624,-2.49623 0,-1.38729 1.10737,-2.49624 2.49624,-2.49624 z"
     style="color:#000000;font-style:normal;font-variant:normal;font-weight:normal;font-stretch:normal;font-size:medium;line-height:normal;font-family:Sans;-inkscape-font-specification:Sans;text-indent:0;text-align:start;text-decoration:none;text-decoration-line:none;letter-spacing:normal;word-spacing:normal;text-transform:none;writing-mode:lr-tb;direction:ltr;baseline-shift:baseline;text-anchor:start;display:inline;overflow:visible;visibility:visible;fill:#ffffff;fill-opacity:1;stroke:none;stroke-width:1.55467;marker:none;enable-background:new"
     id="path6499"
     sodipodi:nodetypes="ssccccssssssss" />
  <path
     id="rect2630"
     style="opacity:0.3;fill:#ffffff;fill-opacity:1"
     d="M 3,1 C 1.8920011,1 1,1.8920011 1,3 V 4 C 1,2.8920011 1.8920011,2 3,2 h 10 c 1.107999,0 2,0.8920011 2,2 V 3 C 15,1.8920011 14.107999,1 13,1 Z"
     sodipodi:nodetypes="sscsscsss" />
  <path
     d="M 3,15 C 1.8920011,15 1,14.107999 1,13 v -1 c 0,1.107999 0.8920011,2 2,2 h 10 c 1.107999,0 2,-0.892001 2,-2 v 1 c 0,1.107999 -0.892001,2 -2,2 z"
     style="opacity:0.3;fill:#ffffff;fill-opacity:1"
     id="path19648" />
  <path
     id="rect899"
     style="opacity:0.5;fill:#000000;stroke:none"
     d="M 3,0 C 1.3380017,0 0,1.3380017 0,3 v 10 c 0,1.661998 1.3380017,3 3,3 h 10 c 1.661998,0 3,-1.338002 3,-3 V 3 C 16,1.3380017 14.661998,0 13,0 Z m 0,1 h 10 c 1.107999,0 2,0.8920011 2,2 v 10 c 0,1.107999 -0.892001,2 -2,2 H 3 C 1.8920011,15 1,14.107999 1,13 V 3 C 1,1.8920011 1.8920011,1 3,1 Z" />
</svg>
