<?xml version="1.0" encoding="UTF-8" standalone="no"?>
<!-- Created with Inkscape (http://www.inkscape.org/) -->

<svg
   width="16"
   height="16"
   viewBox="0 0 16 16"
   version="1.1"
   id="svg5"
   sodipodi:docname="preferences-desktop-font.svg"
   inkscape:version="1.2.1 (9c6d41e410, 2022-07-14)"
   xmlns:inkscape="http://www.inkscape.org/namespaces/inkscape"
   xmlns:sodipodi="http://sodipodi.sourceforge.net/DTD/sodipodi-0.dtd"
   xmlns:xlink="http://www.w3.org/1999/xlink"
   xmlns="http://www.w3.org/2000/svg"
   xmlns:svg="http://www.w3.org/2000/svg">
  <sodipodi:namedview
     id="namedview7"
     pagecolor="#ffffff"
     bordercolor="#666666"
     borderopacity="1.0"
     inkscape:showpageshadow="2"
     inkscape:pageopacity="0.0"
     inkscape:pagecheckerboard="0"
     inkscape:deskcolor="#d1d1d1"
     inkscape:document-units="px"
     showgrid="false"
     inkscape:zoom="49.8125"
     inkscape:cx="7.9899624"
     inkscape:cy="8"
     inkscape:window-width="1920"
     inkscape:window-height="1009"
     inkscape:window-x="0"
     inkscape:window-y="0"
     inkscape:window-maximized="1"
     inkscape:current-layer="svg5" />
  <defs
     id="defs2">
    <linearGradient
       inkscape:collect="always"
       xlink:href="#linearGradient22024"
       id="linearGradient19638"
       x1="13"
       y1="16"
       x2="3"
       y2="0"
       gradientUnits="userSpaceOnUse" />
    <linearGradient
       inkscape:collect="always"
       id="linearGradient22024">
      <stop
         style="stop-color:#dedede;stop-opacity:1;"
         offset="0"
         id="stop22020" />
      <stop
         style="stop-color:#f5f5f5;stop-opacity:1;"
         offset="1"
         id="stop22022" />
    </linearGradient>
  </defs>
  <rect
     style="fill:url(#linearGradient19638);fill-opacity:1;stroke:none"
     id="rect184"
     width="15"
     height="15"
     x="0.5"
     y="0.5"
     ry="2.5" />
  <path
     d="m 8.1928764,5.000006 c -0.5412454,0 -1.0303126,0.086453 -1.4660623,0.2607511 C 6.2956508,5.4304699 5.9496904,5.6691767 5.6882415,5.9764946 5.4267932,6.2838117 5.2712955,6.637298 5.2208411,7.0363521 H 6.4589678 C 6.546134,6.7382082 6.7340715,6.4969933 7.0230435,6.3135201 7.3120132,6.12546 7.6837928,6.0314828 8.1378883,6.0314828 c 0.5550073,0 0.9741418,0.1305647 1.258527,0.3920145 C 9.6853831,6.68036 9.8301135,7.0496307 9.8301135,7.5312476 V 8.137008 C 9.669574,8.1416366 9.3718565,8.1557589 8.9361076,8.1786943 8.5003594,8.2016296 8.1235629,8.2240553 7.8070701,8.2469905 6.9952009,8.3066174 6.3231954,8.4970823 5.7911241,8.8181613 5.2636376,9.1346517 5,9.6786006 5,10.449188 c 0,0.472445 0.1122706,0.882434 0.3370256,1.231032 0.2247557,0.344012 0.5299962,0.607651 0.9152907,0.791124 0.3852938,0.178886 0.816972,0.271243 1.2940026,0.27583 0.5871143,-0.0046 1.0661475,-0.126889 1.4376824,-0.365409 0.37612,-0.243102 0.6397592,-0.520016 0.7911239,-0.831922 h 0.054986 v 1.018174 H 10.999947 V 7.6421148 C 11.004502,6.6100776 10.717589,5.9122537 10.13965,5.5498936 9.5617085,5.1829465 8.9130133,5.0000091 8.1928803,5.0000091 Z m 1.6372371,4.1072817 v 0.7494394 c 0,0.3210779 -0.082337,0.6221899 -0.2474487,0.9019869 -0.1605377,0.279798 -0.3967356,0.50434 -0.7086413,0.674051 -0.3119042,0.169714 -0.6811748,0.254544 -1.1077512,0.254544 -0.4770299,0 -0.8604648,-0.100601 -1.149436,-0.302437 C 6.3324544,11.183052 6.1886126,10.889463 6.1840256,10.50417 6.1886574,10.109704 6.3416,9.8085918 6.6443316,9.6021842 6.9516487,9.3957765 7.3858351,9.2743589 7.9454294,9.2376641 l 0.9764878,-0.068289 c 0.4999673,-0.036692 0.8027025,-0.057496 0.9081963,-0.062082 z"
     style="font-size:8.21007px;line-height:1.25;font-family:Pretendard;-inkscape-font-specification:Pretendard;opacity:0.5;fill:#ffffff;stroke-width:0.35227"
     id="path1907"
     sodipodi:nodetypes="ccscccscscsccsccccccccccscscsscccccccs" />
  <path
     d="m 8.1928764,4.0000039 c -0.5412454,0 -1.0303126,0.086453 -1.4660623,0.2607511 C 6.2956508,4.4304678 5.9496904,4.6691746 5.6882415,4.9764924 5.4267932,5.2838096 5.2712955,5.6372958 5.2208411,6.0363499 H 6.4589678 C 6.546134,5.7382061 6.7340715,5.4969912 7.0230435,5.313518 7.3120132,5.1254578 7.6837928,5.0314806 8.1378883,5.0314806 c 0.5550073,0 0.9741418,0.1305647 1.258527,0.3920145 0.2889678,0.2568627 0.4336982,0.6261334 0.4336982,1.1077504 V 7.1370066 C 9.669574,7.1416352 9.3718565,7.1557575 8.9361076,7.1786929 8.5003594,7.2016282 8.1235629,7.224054 7.8070701,7.2469814 6.9952009,7.3066083 6.3231954,7.497074 5.7911241,7.8181522 5.2636376,8.1346434 5,8.6785922 5,9.4491797 c 0,0.4724444 0.1122706,0.8824323 0.3370256,1.2310313 0.2247557,0.344012 0.5299962,0.607652 0.9152907,0.791125 0.3852938,0.178884 0.816972,0.271243 1.2940026,0.275829 0.5871143,-0.0046 1.0661475,-0.12689 1.4376824,-0.365408 0.37612,-0.243103 0.6397592,-0.520017 0.7911239,-0.831923 h 0.054986 v 1.018174 H 10.999947 V 6.6421057 C 11.004502,5.6100685 10.717589,4.9122446 10.13965,4.5498845 9.5617085,4.1829374 8.9130133,4 8.1928803,4 Z m 1.6372371,4.1072824 v 0.7494394 c 0,0.3210782 -0.082337,0.6221887 -0.2474487,0.9019867 -0.1605377,0.2797976 -0.3967356,0.5043396 -0.7086413,0.6740516 -0.3119042,0.169714 -0.6811748,0.254544 -1.1077512,0.254544 -0.4770299,0 -0.8604648,-0.100601 -1.149436,-0.302438 C 6.3324544,10.18305 6.1886126,9.8894624 6.1840256,9.5041686 6.1886574,9.1097023 6.3416,8.8085896 6.6443316,8.6021827 6.9516487,8.3957751 7.3858351,8.2743567 7.9454294,8.2376627 l 0.9764878,-0.068296 c 0.4999673,-0.036692 0.8027025,-0.057496 0.9081963,-0.062082 z"
     style="font-size:8.21007px;line-height:1.25;font-family:Pretendard;-inkscape-font-specification:Pretendard;fill:#4d4d4d;stroke-width:0.35227"
     id="path1940"
     sodipodi:nodetypes="scscccscscsccsccccccccccsscscsscccccsc" />
  <path
     id="rect2630"
     style="opacity:0.3;fill:#ffffff;fill-opacity:1"
     d="M 3,1 C 1.8920011,1 1,1.8920011 1,3 V 4 C 1,2.8920011 1.8920011,2 3,2 h 10 c 1.107999,0 2,0.8920011 2,2 V 3 C 15,1.8920011 14.107999,1 13,1 Z"
     sodipodi:nodetypes="sscsscsss" />
  <path
     d="M 3,15 C 1.8920011,15 1,14.107999 1,13 v -1 c 0,1.107999 0.8920011,2 2,2 h 10 c 1.107999,0 2,-0.892001 2,-2 v 1 c 0,1.107999 -0.892001,2 -2,2 z"
     style="opacity:0.3;fill:#ffffff;fill-opacity:1"
     id="path19648" />
  <path
     id="rect899"
     style="opacity:0.5;fill:#000000;stroke:none"
     d="M 3,0 C 1.3380017,0 0,1.3380017 0,3 v 10 c 0,1.661998 1.3380017,3 3,3 h 10 c 1.661998,0 3,-1.338002 3,-3 V 3 C 16,1.3380017 14.661998,0 13,0 Z m 0,1 h 10 c 1.107999,0 2,0.8920011 2,2 v 10 c 0,1.107999 -0.892001,2 -2,2 H 3 C 1.8920011,15 1,14.107999 1,13 V 3 C 1,1.8920011 1.8920011,1 3,1 Z" />
</svg>
