<?xml version="1.0" encoding="UTF-8" standalone="no"?>
<!-- Created with Inkscape (http://www.inkscape.org/) -->

<svg
   width="16"
   height="16"
   viewBox="0 0 16 16"
   version="1.1"
   id="svg5"
   sodipodi:docname="preferences-system.svg"
   inkscape:version="1.2.1 (9c6d41e410, 2022-07-14)"
   xmlns:inkscape="http://www.inkscape.org/namespaces/inkscape"
   xmlns:sodipodi="http://sodipodi.sourceforge.net/DTD/sodipodi-0.dtd"
   xmlns:xlink="http://www.w3.org/1999/xlink"
   xmlns="http://www.w3.org/2000/svg"
   xmlns:svg="http://www.w3.org/2000/svg">
  <sodipodi:namedview
     id="namedview7"
     pagecolor="#ffffff"
     bordercolor="#666666"
     borderopacity="1.0"
     inkscape:showpageshadow="2"
     inkscape:pageopacity="0.0"
     inkscape:pagecheckerboard="0"
     inkscape:deskcolor="#d1d1d1"
     inkscape:document-units="px"
     showgrid="false"
     inkscape:zoom="49.375"
     inkscape:cx="7.9898734"
     inkscape:cy="8"
     inkscape:window-width="1920"
     inkscape:window-height="1002"
     inkscape:window-x="0"
     inkscape:window-y="0"
     inkscape:window-maximized="1"
     inkscape:current-layer="svg5" />
  <defs
     id="defs2">
    <linearGradient
       inkscape:collect="always"
       xlink:href="#linearGradient2739"
       id="linearGradient19638"
       x1="13"
       y1="16"
       x2="3"
       y2="0"
       gradientUnits="userSpaceOnUse" />
    <linearGradient
       inkscape:collect="always"
       id="linearGradient2739">
      <stop
         style="stop-color:#8a8a8a;stop-opacity:1;"
         offset="0"
         id="stop2735" />
      <stop
         style="stop-color:#c0c0c0;stop-opacity:1;"
         offset="1"
         id="stop2737" />
    </linearGradient>
  </defs>
  <rect
     style="fill:url(#linearGradient19638);fill-opacity:1.0;stroke:none"
     id="rect184"
     width="15"
     height="15"
     x="0.5"
     y="0.5"
     ry="2.5" />
  <path
     id="path529"
     style="fill:#000000;stroke-width:1.25;opacity:0.2"
     d="M 6.75 4 L 6.640625 5.3183594 C 6.2229364 5.4725072 5.8347972 5.6961438 5.4921875 5.9804688 L 4.2949219 5.4179688 L 3.0449219 7.5820312 L 4.1328125 8.3378906 C 4.0936925 8.556589 4.0719625 8.7778388 4.0703125 9 C 4.0705795 9.2229012 4.0909063 9.4444237 4.1289062 9.6640625 L 3.0449219 10.417969 L 4.2949219 12.582031 L 5.4882812 12.019531 C 5.8314539 12.303093 6.2207153 12.526425 6.6386719 12.679688 L 6.75 14 L 9.25 14 L 9.359375 12.681641 C 9.7770636 12.527491 10.165202 12.303856 10.507812 12.019531 L 11.705078 12.582031 L 12.955078 10.417969 L 11.867188 9.6621094 C 11.906307 9.4434072 11.928038 9.2221612 11.929688 9 C 11.92942 8.7770988 11.909094 8.5555766 11.871094 8.3359375 L 12.955078 7.5820312 L 11.705078 5.4179688 L 10.511719 5.9804688 C 10.168547 5.6969054 9.7792847 5.4735752 9.3613281 5.3203125 L 9.25 4 L 6.75 4 z M 8 7 A 2 2 0 0 1 10 9 A 2 2 0 0 1 8 11 A 2 2 0 0 1 6 9 A 2 2 0 0 1 8 7 z " />
  <path
     id="path892"
     style="fill:#ffffff;stroke-width:1.25"
     d="M 6.75 3 L 6.640625 4.3183594 C 6.2229359 4.4725072 5.834798 4.6961438 5.4921875 4.9804688 L 4.2949219 4.4179688 L 3.0449219 6.5820312 L 4.1328125 7.3378906 C 4.0936945 7.556589 4.0719645 7.7778388 4.0703125 8 C 4.0705801 8.2229012 4.0909063 8.4444237 4.1289062 8.6640625 L 3.0449219 9.4179688 L 4.2949219 11.582031 L 5.4882812 11.019531 C 5.8314544 11.303093 6.2207148 11.526425 6.6386719 11.679688 L 6.75 13 L 9.25 13 L 9.359375 11.681641 C 9.7770634 11.527491 10.165202 11.303856 10.507812 11.019531 L 11.705078 11.582031 L 12.955078 9.4179688 L 11.867188 8.6621094 C 11.906307 8.4434072 11.928038 8.2221612 11.929688 8 C 11.92942 7.7770988 11.909094 7.5555766 11.871094 7.3359375 L 12.955078 6.5820312 L 11.705078 4.4179688 L 10.511719 4.9804688 C 10.168546 4.6969054 9.7792848 4.4735752 9.3613281 4.3203125 L 9.25 3 L 6.75 3 z M 8 6 A 2 2 0 0 1 10 8 A 2 2 0 0 1 8 10 A 2 2 0 0 1 6 8 A 2 2 0 0 1 8 6 z " />
  <path
     id="rect2630"
     style="opacity:0.3;fill:#ffffff;fill-opacity:1"
     d="M 3,1 C 1.8920011,1 1,1.8920011 1,3 V 4 C 1,2.8920011 1.8920011,2 3,2 h 10 c 1.107999,0 2,0.8920011 2,2 V 3 C 15,1.8920011 14.107999,1 13,1 Z"
     sodipodi:nodetypes="sscsscsss" />
  <path
     d="M 3,15 C 1.8920011,15 1,14.107999 1,13 v -1 c 0,1.107999 0.8920011,2 2,2 h 10 c 1.107999,0 2,-0.892001 2,-2 v 1 c 0,1.107999 -0.892001,2 -2,2 z"
     style="opacity:0.3;fill:#ffffff;fill-opacity:1"
     id="path19648" />
  <path
     id="rect899"
     style="opacity:0.5;fill:#000000;stroke:none"
     d="M 3,0 C 1.3380017,0 0,1.3380017 0,3 v 10 c 0,1.661998 1.3380017,3 3,3 h 10 c 1.661998,0 3,-1.338002 3,-3 V 3 C 16,1.3380017 14.661998,0 13,0 Z m 0,1 h 10 c 1.107999,0 2,0.8920011 2,2 v 10 c 0,1.107999 -0.892001,2 -2,2 H 3 C 1.8920011,15 1,14.107999 1,13 V 3 C 1,1.8920011 1.8920011,1 3,1 Z" />
</svg>
