<?xml version="1.0" encoding="UTF-8" standalone="no"?>
<!-- Created with Inkscape (http://www.inkscape.org/) -->

<svg
   width="16"
   height="16"
   viewBox="0 0 16 16"
   version="1.1"
   id="svg5"
   sodipodi:docname="preferences-system-sound.svg"
   inkscape:version="1.2.1 (9c6d41e410, 2022-07-14)"
   xmlns:inkscape="http://www.inkscape.org/namespaces/inkscape"
   xmlns:sodipodi="http://sodipodi.sourceforge.net/DTD/sodipodi-0.dtd"
   xmlns:xlink="http://www.w3.org/1999/xlink"
   xmlns="http://www.w3.org/2000/svg"
   xmlns:svg="http://www.w3.org/2000/svg">
  <sodipodi:namedview
     id="namedview7"
     pagecolor="#ffffff"
     bordercolor="#666666"
     borderopacity="1.0"
     inkscape:showpageshadow="2"
     inkscape:pageopacity="0.0"
     inkscape:pagecheckerboard="0"
     inkscape:deskcolor="#d1d1d1"
     inkscape:document-units="px"
     showgrid="false"
     inkscape:zoom="49.8125"
     inkscape:cx="7.9899624"
     inkscape:cy="8"
     inkscape:window-width="1920"
     inkscape:window-height="1009"
     inkscape:window-x="0"
     inkscape:window-y="0"
     inkscape:window-maximized="1"
     inkscape:current-layer="svg5" />
  <defs
     id="defs2">
    <linearGradient
       inkscape:collect="always"
       xlink:href="#linearGradient22024"
       id="linearGradient19638"
       x1="13"
       y1="16"
       x2="3"
       y2="0"
       gradientUnits="userSpaceOnUse" />
    <linearGradient
       inkscape:collect="always"
       id="linearGradient22024">
      <stop
         style="stop-color:#cdcdcd;stop-opacity:1;"
         offset="0"
         id="stop22020" />
      <stop
         style="stop-color:#eff0f1;stop-opacity:1;"
         offset="1"
         id="stop22022" />
    </linearGradient>
  </defs>
  <rect
     style="fill:url(#linearGradient19638);fill-opacity:1.0;stroke:none"
     id="rect184"
     width="15"
     height="15"
     x="0.5"
     y="0.5"
     ry="2.5" />
  <path
     d="M 10.65625,3.501942 C 10.461951,3.489997 10.270073,3.592197 10.177734,3.7773327 10.054989,4.0243661 10.155494,4.3241371 10.402344,4.4472545 12.223454,5.35781 12.99969,7.1666029 13,8.9999889 c -3.1e-4,1.8333861 -0.776546,3.6421791 -2.597656,4.5527341 -0.246848,0.123117 -0.347355,0.422888 -0.22461,0.669922 0.123117,0.246848 0.422888,0.347355 0.669922,0.22461 C 13.026538,13.357814 13.999634,11.166595 14,8.9999889 13.999634,6.8333829 13.026538,4.6421638 10.847656,3.5527233 10.785896,3.5220373 10.721016,3.5059233 10.65625,3.501942 Z M 9.074219,6.0058483 C 8.859929,5.9737913 8.649377,6.0834043 8.552734,6.2773327 8.429989,6.5243664 8.530494,6.824137 8.777344,6.9472545 9.598456,7.357811 10,8.1666572 10,8.9999889 10,9.8333206 9.598456,10.642167 8.777344,11.052723 8.530496,11.17584 8.429989,11.475611 8.552734,11.722645 8.675852,11.969493 8.975622,12.07 9.222656,11.947255 10.40154,11.357812 11,10.166653 11,8.9999889 11,7.8333246 10.40154,6.6421648 9.222656,6.0527233 9.175926,6.0294453 9.125846,6.0136283 9.074219,6.0058483 Z M 7,4.7499889 v 8.5000001 l -2.5,-2.25 H 3 c -0.553999,0 -1,-0.446002 -1,-1.0000001 v -2 c 0,-0.5539988 0.446001,-1 1,-1 h 1.5 z"
     style="fill:#000000;stroke-linecap:round;-inkscape-stroke:none;opacity:0.2"
     id="path1112" />
  <path
     id="path1855"
     style="fill:#363636;stroke-linecap:round;-inkscape-stroke:none"
     d="M 10.583984 2.5019531 C 10.41583 2.5160438 10.258531 2.6153502 10.177734 2.7773438 C 10.054989 3.0243769 10.155494 3.3241483 10.402344 3.4472656 C 12.223452 4.3578202 12.99969 6.1666158 13 8 C 12.99969 9.8333845 12.223452 11.64218 10.402344 12.552734 C 10.155496 12.675851 10.054989 12.975622 10.177734 13.222656 C 10.300851 13.469504 10.600622 13.570011 10.847656 13.447266 C 13.026536 12.357826 13.999634 10.166604 14 8 C 13.999634 5.8333962 13.026536 3.6421738 10.847656 2.5527344 C 10.785896 2.5220484 10.721016 2.5059344 10.65625 2.5019531 C 10.631963 2.50046 10.608006 2.4999402 10.583984 2.5019531 z M 7 3.75 L 4.5 6 L 3 6 C 2.4460016 6 2 6.4460018 2 7 L 2 9 C 2 9.5539977 2.4460016 10 3 10 L 4.5 10 L 7 12.25 L 7 3.75 z M 8.9941406 5 C 8.8089608 5.0021563 8.6372966 5.1076567 8.5527344 5.2773438 C 8.42999 5.5243772 8.530496 5.8241482 8.7773438 5.9472656 C 9.5984549 6.3578217 10 7.1666691 10 8 C 10 8.8333309 9.5984549 9.6421786 8.7773438 10.052734 C 8.5304959 10.175851 8.4299899 10.475622 8.5527344 10.722656 C 8.6758518 10.969504 8.9756228 11.070011 9.2226562 10.947266 C 10.401539 10.357823 11 9.1666631 11 8 C 11 6.8333369 10.401539 5.6421753 9.2226562 5.0527344 C 9.1759279 5.029456 9.1258414 5.0136393 9.0742188 5.0058594 C 9.0474325 5.0018523 9.0205949 4.999692 8.9941406 5 z " />
  <path
     id="rect2630"
     style="opacity:0.3;fill:#ffffff;fill-opacity:1"
     d="M 3,1 C 1.8920011,1 1,1.8920011 1,3 V 4 C 1,2.8920011 1.8920011,2 3,2 h 10 c 1.107999,0 2,0.8920011 2,2 V 3 C 15,1.8920011 14.107999,1 13,1 Z"
     sodipodi:nodetypes="sscsscsss" />
  <path
     d="M 3,15 C 1.8920011,15 1,14.107999 1,13 v -1 c 0,1.107999 0.8920011,2 2,2 h 10 c 1.107999,0 2,-0.892001 2,-2 v 1 c 0,1.107999 -0.892001,2 -2,2 z"
     style="opacity:0.3;fill:#ffffff;fill-opacity:1"
     id="path19648" />
  <path
     id="rect899"
     style="opacity:0.5;fill:#000000;stroke:none"
     d="M 3,0 C 1.3380017,0 0,1.3380017 0,3 v 10 c 0,1.661998 1.3380017,3 3,3 h 10 c 1.661998,0 3,-1.338002 3,-3 V 3 C 16,1.3380017 14.661998,0 13,0 Z m 0,1 h 10 c 1.107999,0 2,0.8920011 2,2 v 10 c 0,1.107999 -0.892001,2 -2,2 H 3 C 1.8920011,15 1,14.107999 1,13 V 3 C 1,1.8920011 1.8920011,1 3,1 Z" />
</svg>
