<?xml version="1.0" encoding="UTF-8" standalone="no"?>
<!-- Created with Inkscape (http://www.inkscape.org/) -->

<svg
   width="16"
   height="16"
   viewBox="0 0 16 16"
   version="1.1"
   id="svg5"
   sodipodi:docname="preferences-desktop-theme-global.svg"
   inkscape:version="1.2.1 (9c6d41e410, 2022-07-14)"
   xmlns:inkscape="http://www.inkscape.org/namespaces/inkscape"
   xmlns:sodipodi="http://sodipodi.sourceforge.net/DTD/sodipodi-0.dtd"
   xmlns:xlink="http://www.w3.org/1999/xlink"
   xmlns="http://www.w3.org/2000/svg"
   xmlns:svg="http://www.w3.org/2000/svg">
  <sodipodi:namedview
     id="namedview7"
     pagecolor="#ffffff"
     bordercolor="#666666"
     borderopacity="1.0"
     inkscape:showpageshadow="2"
     inkscape:pageopacity="0.0"
     inkscape:pagecheckerboard="0"
     inkscape:deskcolor="#d1d1d1"
     inkscape:document-units="px"
     showgrid="false"
     inkscape:zoom="49.375"
     inkscape:cx="7.9898734"
     inkscape:cy="8"
     inkscape:window-width="1920"
     inkscape:window-height="1002"
     inkscape:window-x="0"
     inkscape:window-y="0"
     inkscape:window-maximized="1"
     inkscape:current-layer="svg5" />
  <defs
     id="defs2">
    <radialGradient
       inkscape:collect="always"
       xlink:href="#linearGradient1603"
       id="radialGradient11414"
       cx="-1.675118"
       cy="11.872787"
       fx="-1.675118"
       fy="11.872787"
       r="27.5"
       gradientUnits="userSpaceOnUse"
       gradientTransform="matrix(-0.22468158,0.22730846,-0.27376014,-0.27059656,3.9467688,4.8464216)" />
    <linearGradient
       inkscape:collect="always"
       id="linearGradient1603">
      <stop
         style="stop-color:#ff910c;stop-opacity:1;"
         offset="0"
         id="stop1599" />
      <stop
         style="stop-color:#ff910c;stop-opacity:0;"
         offset="1"
         id="stop1601" />
    </linearGradient>
    <radialGradient
       inkscape:collect="always"
       xlink:href="#linearGradient3954"
       id="radialGradient11404"
       cx="57.208611"
       cy="56.943909"
       fx="57.208611"
       fy="56.943909"
       r="27.5"
       gradientUnits="userSpaceOnUse"
       gradientTransform="matrix(0.26498914,-0.27805568,0.25221464,0.24036243,-14.646671,17.023086)" />
    <linearGradient
       inkscape:collect="always"
       id="linearGradient3954">
      <stop
         style="stop-color:#24c2f5;stop-opacity:1;"
         offset="0"
         id="stop3950" />
      <stop
         style="stop-color:#24c2f5;stop-opacity:0;"
         offset="1"
         id="stop3952" />
    </linearGradient>
    <radialGradient
       inkscape:collect="always"
       xlink:href="#linearGradient5569"
       id="radialGradient11396"
       cx="8.0326223"
       cy="59.247375"
       fx="8.0326223"
       fy="59.247375"
       r="27.5"
       gradientUnits="userSpaceOnUse"
       gradientTransform="matrix(0.25072392,-0.25396488,0.29694065,0.29315124,-18.38241,-0.42713558)" />
    <linearGradient
       inkscape:collect="always"
       id="linearGradient5569">
      <stop
         style="stop-color:#f5cc24;stop-opacity:1;"
         offset="0"
         id="stop5565" />
      <stop
         style="stop-color:#f5cc24;stop-opacity:0.00045133"
         offset="1"
         id="stop5567" />
    </linearGradient>
    <radialGradient
       inkscape:collect="always"
       xlink:href="#linearGradient7221"
       id="radialGradient11388"
       cx="32"
       cy="60"
       fx="32"
       fy="60"
       r="27.5"
       gradientUnits="userSpaceOnUse"
       gradientTransform="matrix(-0.27768594,0,0,-0.27272727,16.885948,16.727473)" />
    <linearGradient
       inkscape:collect="always"
       id="linearGradient7221">
      <stop
         style="stop-color:#ff2a2a;stop-opacity:1"
         offset="0"
         id="stop7217" />
      <stop
         style="stop-color:#ff2929;stop-opacity:0.00392157"
         offset="1"
         id="stop7219" />
    </linearGradient>
    <radialGradient
       inkscape:collect="always"
       xlink:href="#linearGradient10051"
       id="radialGradient11378"
       cx="6.5505433"
       cy="56.244072"
       fx="6.5505433"
       fy="56.244072"
       r="27.5"
       gradientUnits="userSpaceOnUse"
       gradientTransform="matrix(-0.19619183,-0.18919471,0.24689467,-0.2560258,2.3395639,16.907219)" />
    <linearGradient
       inkscape:collect="always"
       id="linearGradient10051">
      <stop
         style="stop-color:#aa3ad4;stop-opacity:1"
         offset="0"
         id="stop10047" />
      <stop
         style="stop-color:#aa3ad4;stop-opacity:0"
         offset="1"
         id="stop10049" />
    </linearGradient>
    <radialGradient
       inkscape:collect="always"
       xlink:href="#linearGradient15132"
       id="radialGradient11244"
       cx="45.75"
       cy="51.798988"
       fx="45.75"
       fy="51.798988"
       r="27.5"
       gradientUnits="userSpaceOnUse"
       gradientTransform="matrix(-1.6860842e-8,0.27768594,-0.27768591,-4.8513141e-8,14.747486,-4.7039299)" />
    <linearGradient
       inkscape:collect="always"
       id="linearGradient15132">
      <stop
         style="stop-color:#f5e224;stop-opacity:1;"
         offset="0"
         id="stop15128" />
      <stop
         style="stop-color:#f5e224;stop-opacity:0;"
         offset="1"
         id="stop15130" />
    </linearGradient>
    <radialGradient
       inkscape:collect="always"
       xlink:href="#linearGradient12059"
       id="radialGradient11234"
       cx="32"
       cy="60"
       fx="32"
       fy="60"
       r="27.5"
       gradientUnits="userSpaceOnUse"
       gradientTransform="matrix(0.27768594,0,0,0.27272727,-0.88595038,-0.72707268)" />
    <linearGradient
       inkscape:collect="always"
       id="linearGradient12059">
      <stop
         style="stop-color:#47c12a;stop-opacity:1;"
         offset="0"
         id="stop12055" />
      <stop
         style="stop-color:#47c12a;stop-opacity:0;"
         offset="1"
         id="stop12057" />
    </linearGradient>
  </defs>
  <rect
     style="fill:#ffffff;fill-opacity:1;stroke:none"
     id="rect184"
     width="15"
     height="15"
     x="0.5"
     y="0.5"
     ry="2.5" />
  <rect
     style="fill:url(#radialGradient11414);fill-opacity:1;stroke-width:0.272727;stroke-linejoin:round"
     id="rect10562"
     width="15"
     height="15"
     x="0.5"
     y="0.5001995"
     ry="2.5" />
  <rect
     style="fill:url(#radialGradient11404);fill-opacity:1;stroke-width:0.272727;stroke-linejoin:round"
     id="rect10564"
     width="15"
     height="15"
     x="0.5"
     y="0.5001995"
     ry="2.5" />
  <rect
     style="fill:url(#radialGradient11396);fill-opacity:1;stroke-width:0.272727;stroke-linejoin:round"
     id="rect10566"
     width="15"
     height="15"
     x="0.5"
     y="0.5001995"
     ry="2.5" />
  <rect
     style="fill:url(#radialGradient11388);fill-opacity:1;stroke-width:0.272727;stroke-linejoin:round"
     id="rect10568"
     width="15"
     height="15"
     x="0.5"
     y="0.5001995"
     ry="2.5" />
  <rect
     style="fill:url(#radialGradient11378);fill-opacity:1;stroke-width:0.272727;stroke-linejoin:round"
     id="rect10570"
     width="15"
     height="15"
     x="0.5"
     y="0.5001995"
     ry="2.5" />
  <rect
     style="fill:url(#radialGradient11244);fill-opacity:1;stroke-width:0.272727;stroke-linejoin:round"
     id="rect10572"
     width="15"
     height="15"
     x="0.5"
     y="0.5001995"
     ry="2.5"
     inkscape:label="rect10572" />
  <rect
     style="fill:url(#radialGradient11234);fill-opacity:1;stroke-width:0.272727;stroke-linejoin:round"
     id="rect10574"
     width="15"
     height="15"
     x="0.5"
     y="0.5001995"
     ry="2.5" />
  <rect
     style="opacity:0.2;fill:#ffffff;stroke-width:0.484123;stroke-linejoin:round"
     id="rect581"
     width="15"
     height="1"
     x="0.49999976"
     y="11.000251" />
  <path
     id="rect348"
     style="fill:#3b3b3b;fill-opacity:1;stroke-width:0.263523;stroke-linejoin:round"
     d="m 2.9999998,15.500251 c -1.3849986,0 -2.5,-1.115001 -2.5,-2.5 v -1 H 15.5 v 1 c 0,1.384999 -1.115001,2.5 -2.5,2.5 z"
     sodipodi:nodetypes="ssccsss" />
  <path
     d="M 11.756578,3.0037747 C 11.154261,2.9278499 9.5830458,4.00484 8.034537,5.5539592 7.3439937,6.24492 6.7446897,6.9277381 6.2856793,7.571786 6.8236465,7.7431829 7.2572121,8.1764627 7.4285193,8.7146259 8.0723218,8.2554835 8.7566898,7.6587892 9.4474618,6.968 11.204305,5.2104274 12.312023,3.469287 11.921754,3.0785503 c -0.04011,-0.0404 -0.09484,-0.065754 -0.165176,-0.074776 z m -5.7566083,5.328044 v 0.00112 C 4.000108,8.8690459 5.4998937,10.135445 4,11.000287 c 1.9998617,0 2.9999545,-1.0010239 2.9999545,-1.6685009 0,-0.3327258 0.033912,-0.944613 -0.9999848,-0.9999842 z"
     style="color:#444444;opacity:0.2;fill:#000000;stroke-width:0.571418"
     id="path11335" />
  <path
     d="M 11.756578,2.0037747 C 11.154261,1.9278499 9.5830458,3.00484 8.034537,4.5539591 7.3439937,5.24492 6.7446897,5.9277382 6.2856793,6.5717858 6.8236465,6.7431827 7.2572121,7.1764623 7.4285193,7.714626 8.0723218,7.2554833 8.7566898,6.658789 9.4474618,5.968 11.204305,4.2104274 12.312023,2.469287 11.921754,2.0785502 c -0.04011,-0.0404 -0.09484,-0.065754 -0.165176,-0.074775 z M 5.9999697,7.3318188 v 0.00115 C 4.000108,7.869078 5.4998937,9.1354751 4,10.000319 c 1.9998617,0 2.9999545,-1.0010257 2.9999545,-1.6685002 0,-0.3327264 0.033912,-0.9446141 -0.9999848,-0.9999848 z"
     style="color:#444444;fill:#ffffff;stroke-width:0.571418"
     id="path347"
     sodipodi:nodetypes="ccccccccccscc" />
  <path
     id="rect2630"
     style="opacity:0.3;fill:#ffffff;fill-opacity:1"
     d="M 3,1 C 1.8920011,1 1,1.8920011 1,3 V 4 C 1,2.8920011 1.8920011,2 3,2 h 10 c 1.107999,0 2,0.8920011 2,2 V 3 C 15,1.8920011 14.107999,1 13,1 Z"
     sodipodi:nodetypes="sscsscsss" />
  <path
     d="M 3,15 C 1.8920011,15 1,14.107999 1,13 v -1 c 0,1.107999 0.8920011,2 2,2 h 10 c 1.107999,0 2,-0.892001 2,-2 v 1 c 0,1.107999 -0.892001,2 -2,2 z"
     style="opacity:0.3;fill:#ffffff;fill-opacity:1"
     id="path19648" />
  <path
     id="rect899"
     style="opacity:0.5;fill:#000000;stroke:none"
     d="M 3,0 C 1.3380017,0 0,1.3380017 0,3 v 10 c 0,1.661998 1.3380017,3 3,3 h 10 c 1.661998,0 3,-1.338002 3,-3 V 3 C 16,1.3380017 14.661998,0 13,0 Z m 0,1 h 10 c 1.107999,0 2,0.8920011 2,2 v 10 c 0,1.107999 -0.892001,2 -2,2 H 3 C 1.8920011,15 1,14.107999 1,13 V 3 C 1,1.8920011 1.8920011,1 3,1 Z" />
</svg>
