<?xml version="1.0" encoding="UTF-8" standalone="no"?>
<!-- Created with Inkscape (http://www.inkscape.org/) -->

<svg
   width="16"
   height="16"
   viewBox="0 0 16 16"
   version="1.1"
   id="svg5"
   sodipodi:docname="preferences-desktop-emoticons.svg"
   inkscape:version="1.2.1 (9c6d41e410, 2022-07-14)"
   xmlns:inkscape="http://www.inkscape.org/namespaces/inkscape"
   xmlns:sodipodi="http://sodipodi.sourceforge.net/DTD/sodipodi-0.dtd"
   xmlns:xlink="http://www.w3.org/1999/xlink"
   xmlns="http://www.w3.org/2000/svg"
   xmlns:svg="http://www.w3.org/2000/svg">
  <sodipodi:namedview
     id="namedview7"
     pagecolor="#ffffff"
     bordercolor="#666666"
     borderopacity="1.0"
     inkscape:showpageshadow="2"
     inkscape:pageopacity="0.0"
     inkscape:pagecheckerboard="0"
     inkscape:deskcolor="#d1d1d1"
     inkscape:document-units="px"
     showgrid="false"
     inkscape:zoom="51.3125"
     inkscape:cx="8"
     inkscape:cy="8"
     inkscape:window-width="1920"
     inkscape:window-height="1007"
     inkscape:window-x="0"
     inkscape:window-y="0"
     inkscape:window-maximized="1"
     inkscape:current-layer="svg5" />
  <defs
     id="defs2">
    <linearGradient
       inkscape:collect="always"
       xlink:href="#linearGradient986"
       id="linearGradient19638"
       x1="8"
       y1="15.5"
       x2="8"
       y2="0"
       gradientUnits="userSpaceOnUse" />
    <linearGradient
       inkscape:collect="always"
       id="linearGradient986">
      <stop
         style="stop-color:#ffa12a;stop-opacity:1;"
         offset="0"
         id="stop982" />
      <stop
         style="stop-color:#ffdc75;stop-opacity:1;"
         offset="1"
         id="stop984" />
    </linearGradient>
  </defs>
  <rect
     style="fill:url(#linearGradient19638);fill-opacity:1;stroke:none"
     id="rect184"
     width="15"
     height="15"
     x="0.5"
     y="0.5"
     ry="2.5" />
  <path
     d="M 5,4 C 4.4477153,4 4,4.4477153 4,5 4,5.5522847 4.4477153,6 5,6 5.5522847,6 6,5.5522847 6,5 6,4.4477153 5.5522847,4 5,4 Z m 6,0 c -0.552285,0 -1,0.4477153 -1,1 0,0.5522847 0.447715,1 1,1 0.552285,0 1,-0.4477153 1,-1 0,-0.5522847 -0.447715,-1 -1,-1 z m 0.160156,6.599609 c -0.159783,-0.0017 -0.310759,0.07305 -0.40625,0.201172 0,0 -0.8722254,1.199219 -2.7499998,1.199219 -1.8777741,0 -2.7499999,-1.199219 -2.75,-1.199219 -0.079689,-0.106392 -0.198464,-0.176673 -0.3300781,-0.195312 -0.1312362,-0.01921 -0.2647264,0.01452 -0.3710937,0.09375 -0.2215329,0.165878 -0.26618,0.480159 -0.099609,0.701172 0,0 1.2285636,1.599609 3.5507812,1.599609 2.3222174,0 3.5488274,-1.599609 3.5488274,-1.599609 0.166571,-0.221013 0.121924,-0.535293 -0.09961,-0.701172 -0.08467,-0.06335 -0.187237,-0.09822 -0.292968,-0.09961 z"
     style="fill:#3f3f3f;stroke:none"
     id="path916" />
  <path
     id="rect2630"
     style="opacity:0.3;fill:#ffffff;fill-opacity:1"
     d="M 3,1 C 1.8920011,1 1,1.8920011 1,3 V 4 C 1,2.8920011 1.8920011,2 3,2 h 10 c 1.107999,0 2,0.8920011 2,2 V 3 C 15,1.8920011 14.107999,1 13,1 Z"
     sodipodi:nodetypes="sscsscsss" />
  <path
     d="M 3,15 C 1.8920011,15 1,14.107999 1,13 v -1 c 0,1.107999 0.8920011,2 2,2 h 10 c 1.107999,0 2,-0.892001 2,-2 v 1 c 0,1.107999 -0.892001,2 -2,2 z"
     style="opacity:0.3;fill:#ffffff;fill-opacity:1"
     id="path19648" />
  <path
     id="rect899"
     style="opacity:0.5;fill:#000000;stroke:none"
     d="M 3,0 C 1.3380017,0 0,1.3380017 0,3 v 10 c 0,1.661998 1.3380017,3 3,3 h 10 c 1.661998,0 3,-1.338002 3,-3 V 3 C 16,1.3380017 14.661998,0 13,0 Z m 0,1 h 10 c 1.107999,0 2,0.8920011 2,2 v 10 c 0,1.107999 -0.892001,2 -2,2 H 3 C 1.8920011,15 1,14.107999 1,13 V 3 C 1,1.8920011 1.8920011,1 3,1 Z" />
</svg>
