<?xml version="1.0" encoding="UTF-8" standalone="no"?>
<!-- Created with Inkscape (http://www.inkscape.org/) -->

<svg
   width="16"
   height="16"
   viewBox="0 0 16 16"
   version="1.1"
   id="svg5"
   sodipodi:docname="preferences-desktop-gestures-touch.svg"
   inkscape:version="1.3.2 (091e20ef0f, 2023-11-25, custom)"
   xmlns:inkscape="http://www.inkscape.org/namespaces/inkscape"
   xmlns:sodipodi="http://sodipodi.sourceforge.net/DTD/sodipodi-0.dtd"
   xmlns:xlink="http://www.w3.org/1999/xlink"
   xmlns="http://www.w3.org/2000/svg"
   xmlns:svg="http://www.w3.org/2000/svg">
  <sodipodi:namedview
     id="namedview7"
     pagecolor="#ffffff"
     bordercolor="#666666"
     borderopacity="1.0"
     inkscape:showpageshadow="2"
     inkscape:pageopacity="0.0"
     inkscape:pagecheckerboard="0"
     inkscape:deskcolor="#d1d1d1"
     inkscape:document-units="px"
     showgrid="false"
     inkscape:zoom="51.625"
     inkscape:cx="8"
     inkscape:cy="8"
     inkscape:window-width="1920"
     inkscape:window-height="1011"
     inkscape:window-x="0"
     inkscape:window-y="0"
     inkscape:window-maximized="1"
     inkscape:current-layer="svg5" />
  <defs
     id="defs2">
    <linearGradient
       inkscape:collect="always"
       xlink:href="#linearGradient21236"
       id="linearGradient19638"
       x1="8"
       y1="15.5"
       x2="8"
       y2="0"
       gradientUnits="userSpaceOnUse" />
    <linearGradient
       inkscape:collect="always"
       id="linearGradient21236">
      <stop
         style="stop-color:#3689e6;stop-opacity:1;"
         offset="0"
         id="stop21232" />
      <stop
         style="stop-color:#5dcffc;stop-opacity:1;"
         offset="1"
         id="stop21234" />
    </linearGradient>
    <linearGradient
       inkscape:collect="always"
       xlink:href="#linearGradient2190"
       id="linearGradient2192"
       x1="15"
       y1="11"
       x2="7"
       y2="11"
       gradientUnits="userSpaceOnUse"
       gradientTransform="matrix(0.4375,0,0,0.5,0.9375,-0.5)" />
    <linearGradient
       inkscape:collect="always"
       id="linearGradient2190">
      <stop
         style="stop-color:#ffffff;stop-opacity:1;"
         offset="0"
         id="stop2186" />
      <stop
         style="stop-color:#ffffff;stop-opacity:0;"
         offset="1"
         id="stop2188" />
    </linearGradient>
  </defs>
  <rect
     style="fill:url(#linearGradient19638);fill-opacity:1.0;stroke:none"
     id="rect184"
     width="15"
     height="15"
     x="0.5"
     y="0.5"
     ry="2.5" />
  <rect
     style="opacity:0.6;fill:url(#linearGradient2192);fill-opacity:1;stroke-width:0.467707;stroke-linecap:round;stroke-linejoin:round"
     id="rect2184"
     width="3.5"
     height="2"
     x="4"
     y="4" />
  <path
     id="path1379"
     style="opacity:0.2;fill:#000000;stroke-width:0.5;stroke-linecap:round;stroke-linejoin:round"
     d="M 7.5 5 C 7.2230016 5 7 5.2230015 7 5.5 L 7 9.3808594 L 6 8.2929688 C 5.6082658 7.9012324 4.8917354 7.9012324 4.5 8.2929688 C 5.7676874 9.6956268 6.8107434 12 7.5 12 L 10 12 L 11 8.5 C 11 8.3490154 9.6429918 7.1583696 8 7.5 L 8 5.5 C 8 5.2230015 7.7769984 5 7.5 5 z " />
  <path
     id="rect701"
     style="fill:#ffffff;stroke-width:0.5;stroke-linecap:round;stroke-linejoin:round"
     d="M 7.5 4 C 7.2230019 4 7 4.2230018 7 4.5 L 7 8.3808594 L 6 7.2929688 C 5.6082662 6.9012327 4.891735 6.9012327 4.5 7.2929688 C 5.7676861 8.6956243 6.8107441 11 7.5 11 L 10 11 L 11 7.5 C 11 7.3490156 9.6272862 6.2474819 8 6.5 L 8 4.5 C 8 4.2230018 7.7769981 4 7.5 4 z " />
  <path
     id="rect2630"
     style="opacity:0.3;fill:#ffffff;fill-opacity:1"
     d="M 3,1 C 1.8920011,1 1,1.8920011 1,3 V 4 C 1,2.8920011 1.8920011,2 3,2 h 10 c 1.107999,0 2,0.8920011 2,2 V 3 C 15,1.8920011 14.107999,1 13,1 Z"
     sodipodi:nodetypes="sscsscsss" />
  <path
     d="M 3,15 C 1.8920011,15 1,14.107999 1,13 v -1 c 0,1.107999 0.8920011,2 2,2 h 10 c 1.107999,0 2,-0.892001 2,-2 v 1 c 0,1.107999 -0.892001,2 -2,2 z"
     style="opacity:0.3;fill:#ffffff;fill-opacity:1"
     id="path19648" />
  <path
     id="rect899"
     style="opacity:0.5;fill:#000000;stroke:none"
     d="M 3,0 C 1.3380017,0 0,1.3380017 0,3 v 10 c 0,1.661998 1.3380017,3 3,3 h 10 c 1.661998,0 3,-1.338002 3,-3 V 3 C 16,1.3380017 14.661998,0 13,0 Z m 0,1 h 10 c 1.107999,0 2,0.8920011 2,2 v 10 c 0,1.107999 -0.892001,2 -2,2 H 3 C 1.8920011,15 1,14.107999 1,13 V 3 C 1,1.8920011 1.8920011,1 3,1 Z" />
</svg>
