<?xml version="1.0" encoding="UTF-8" standalone="no"?>
<!-- Created with Inkscape (http://www.inkscape.org/) -->

<svg
   width="16"
   height="16"
   viewBox="0 0 16 16"
   version="1.1"
   id="svg5"
   sodipodi:docname="skype.svg"
   inkscape:version="1.2.1 (9c6d41e410, 2022-07-14)"
   xmlns:inkscape="http://www.inkscape.org/namespaces/inkscape"
   xmlns:sodipodi="http://sodipodi.sourceforge.net/DTD/sodipodi-0.dtd"
   xmlns:xlink="http://www.w3.org/1999/xlink"
   xmlns="http://www.w3.org/2000/svg"
   xmlns:svg="http://www.w3.org/2000/svg">
  <sodipodi:namedview
     id="namedview7"
     pagecolor="#ffffff"
     bordercolor="#666666"
     borderopacity="1.0"
     inkscape:showpageshadow="2"
     inkscape:pageopacity="0.0"
     inkscape:pagecheckerboard="0"
     inkscape:deskcolor="#d1d1d1"
     inkscape:document-units="px"
     showgrid="false"
     inkscape:zoom="24.6875"
     inkscape:cx="2.8962025"
     inkscape:cy="4.3544304"
     inkscape:window-width="1920"
     inkscape:window-height="1007"
     inkscape:window-x="0"
     inkscape:window-y="0"
     inkscape:window-maximized="1"
     inkscape:current-layer="svg5" />
  <defs
     id="defs2">
    <linearGradient
       inkscape:collect="always"
       xlink:href="#linearGradient3632"
       id="linearGradient19638"
       x1="13"
       y1="16"
       x2="3"
       y2="0"
       gradientUnits="userSpaceOnUse" />
    <linearGradient
       inkscape:collect="always"
       id="linearGradient3632">
      <stop
         style="stop-color:#37a3ff;stop-opacity:1;"
         offset="0"
         id="stop3628" />
      <stop
         style="stop-color:#8adeff;stop-opacity:1;"
         offset="1"
         id="stop3630" />
    </linearGradient>
  </defs>
  <rect
     style="fill:url(#linearGradient19638);fill-opacity:1.0;stroke:none"
     id="rect184"
     width="15"
     height="15"
     x="0.5"
     y="0.5"
     ry="2.5" />
  <path
     d="m 5.500024,3.0000531 c -1.932997,0 -3.5,1.5670034 -3.5,3.5000001 5.92e-4,0.9160697 0.360316,1.7953947 1.001953,2.449219 -7.53e-4,0.016923 -0.0014,0.03385 -0.002,0.05078 0,2.7614248 2.238576,5.0000008 5,5.0000008 0.01693,-5.81e-4 0.033857,-0.0012 0.05078,-0.002 0.6538243,0.641637 1.5331493,1.001361 2.449219,1.001953 1.932997,0 3.5,-1.567003 3.5,-3.5 -8.1e-5,-0.916746 -0.359843,-1.7968658 -1.001953,-2.4511728 7.46e-4,-0.016273 0.0014,-0.03255 0.002,-0.04883 0,-2.7614238 -2.238576,-5.0000002 -5,-5.0000001 -0.01628,5.705e-4 -0.032557,0.00122 -0.04883,0.00195 C 7.2968861,3.3598429 6.4167669,3.0000811 5.500021,3 Z m 2.632812,3.0000002 c 0.231073,-0.00226 0.461415,0.016101 0.689454,0.054686 0.163116,0.026041 0.32358,0.068247 0.478515,0.1269539 0.14233,0.04972 0.27142,0.135742 0.375001,0.248047 0.07634,0.09237 0.117052,0.208706 0.115234,0.330077 0.0056,0.127329 -0.03776,0.251634 -0.121092,0.345703 -0.07907,0.08682 -0.191206,0.136021 -0.306641,0.132812 -0.07855,-5.97e-4 -0.155285,-0.01867 -0.226563,-0.05274 -0.175491,-0.08102 -0.356274,-0.150126 -0.541016,-0.205077 -0.170101,-0.04623 -0.345589,-0.06835 -0.521484,-0.06641 -0.229078,-0.0088 -0.455359,0.05092 -0.652344,0.171874 -0.169467,0.106171 -0.270425,0.299569 -0.261717,0.503906 -0.0012,0.131603 0.04877,0.258176 0.13672,0.353515 0.104591,0.111866 0.226844,0.203606 0.363281,0.269529 0.152897,0.07823 0.382412,0.181172 0.685546,0.310549 0.03364,0.01096 0.066,0.02502 0.09766,0.04101 0.295816,0.120684 0.578382,0.271351 0.845703,0.449219 0.211173,0.142046 0.389328,0.329321 0.521484,0.550781 0.130061,0.232656 0.196471,0.4991068 0.189453,0.7675778 0.01092,0.328849 -0.08143,0.652387 -0.261717,0.923829 -0.183561,0.256967 -0.436909,0.451831 -0.728516,0.558594 -0.351379,0.129445 -0.722669,0.191376 -1.095703,0.183594 -0.512638,0.0186 -1.023445,-0.08069 -1.494141,-0.291016 -0.120453,-0.05527 -0.224972,-0.141294 -0.30664,-0.248046 -0.06769,-0.09777 -0.104368,-0.213872 -0.101564,-0.333986 -0.0068,-0.128248 0.04267,-0.253203 0.132813,-0.341799 0.0935,-0.08448 0.213709,-0.130291 0.33789,-0.125 0.138217,0.002 0.274529,0.03835 0.396484,0.105468 0.151532,0.07824 0.271763,0.136713 0.359376,0.175782 0.100078,0.04324 0.202621,0.07755 0.308595,0.101564 0.130635,0.02959 0.264691,0.04436 0.398437,0.04297 C 8.18181,11.10137 8.41666,11.03699 8.613313,10.900424 8.762699,10.77985 8.845822,10.592015 8.837923,10.396518 8.838213,10.259745 8.788203,10.126947 8.697298,10.027379 8.577173,9.8997132 8.436104,9.7952202 8.281278,9.7168372 8.098304,9.6170972 7.841691,9.4964712 7.509794,9.3535562 7.212868,9.2315182 6.927647,9.0790022 6.660184,8.8984772 6.458375,8.7613312 6.291743,8.5766912 6.16995,8.3613682 6.052279,8.1340072 5.992792,7.8787612 6.000028,7.6211342 5.991028,7.2941672 6.100134,6.9765122 6.304715,6.7266022 6.51728,6.4756382 6.789655,6.2863662 7.095731,6.1797282 7.428696,6.0584389 7.779734,5.9978255 8.13284,6.0000403 Z"
     style="fill:#000000;fill-opacity:1;stroke-width:1.16667;stroke-linejoin:round;opacity:0.2"
     id="path8553" />
  <path
     id="path14352-6"
     style="fill:#ffffff;fill-opacity:1;stroke-width:1.16667;stroke-linejoin:round"
     d="m 5.500024,2.0000505 c -1.9329967,0 -3.5000001,1.5670034 -3.5,3.5000001 5.923e-4,0.9160697 0.3603162,1.7953947 1.001953,2.449219 -7.527e-4,0.016923 -0.00142,0.03385 -0.002,0.05078 -3e-7,2.7614244 2.238576,5.0000004 5,5.0000004 0.01693,-5.81e-4 0.033857,-0.0012 0.05078,-0.002 0.6538243,0.641637 1.5331493,1.001361 2.449219,1.001953 1.932997,0 3.5,-1.567003 3.5,-3.5 -8.1e-5,-0.916746 -0.359843,-1.7968654 -1.001953,-2.4511724 7.46e-4,-0.016273 0.0014,-0.03255 0.002,-0.04883 0,-2.7614238 -2.238576,-5.0000002 -5,-5.0000001 -0.01628,5.705e-4 -0.032557,0.00122 -0.04883,0.00195 C 7.2968861,2.3598403 6.4167669,2.0000785 5.500021,1.9999974 Z m 2.632812,3.0000002 c 0.231073,-0.00226 0.461415,0.016101 0.689454,0.054686 0.163116,0.026041 0.32358,0.068247 0.478515,0.1269539 0.14233,0.04972 0.27142,0.135742 0.375001,0.248047 0.07634,0.09237 0.117052,0.208706 0.115234,0.330077 0.0056,0.127329 -0.03776,0.251634 -0.121092,0.345703 -0.07907,0.08682 -0.191206,0.136021 -0.306641,0.132812 -0.07855,-5.97e-4 -0.155285,-0.01867 -0.226563,-0.05274 -0.175491,-0.08102 -0.356274,-0.150126 -0.541016,-0.205077 -0.170101,-0.04623 -0.345589,-0.06835 -0.521484,-0.06641 -0.229078,-0.0088 -0.455359,0.05092 -0.652344,0.171874 -0.169467,0.106171 -0.270425,0.299569 -0.261717,0.503906 -0.0012,0.131603 0.04877,0.258176 0.13672,0.353515 0.104591,0.111866 0.226844,0.203606 0.363281,0.269529 0.152897,0.07823 0.382412,0.181172 0.685546,0.310549 0.03364,0.01096 0.066,0.02502 0.09766,0.04101 0.295816,0.120684 0.578382,0.271351 0.845703,0.449219 0.211173,0.142046 0.389328,0.329321 0.521484,0.550781 0.130061,0.232656 0.196471,0.499107 0.189453,0.767578 C 10.01095,9.6609126 9.9186,9.9844506 9.738313,10.255892 9.554752,10.512859 9.301404,10.707723 9.009797,10.814486 8.658418,10.943931 8.287128,11.005862 7.914094,10.99808 7.401456,11.01668 6.890649,10.91739 6.419953,10.707064 6.2995,10.651794 6.194981,10.56577 6.113313,10.459018 6.045623,10.361248 6.008945,10.245146 6.011749,10.125032 6.004949,9.9967846 6.054419,9.8718296 6.144562,9.7832336 c 0.0935,-0.08448 0.213709,-0.130291 0.33789,-0.125 0.138217,0.002 0.274529,0.03835 0.396484,0.105468 0.151532,0.07824 0.271763,0.136713 0.359376,0.175782 0.100078,0.04324 0.202621,0.07755 0.308595,0.1015634 0.130635,0.02959 0.264691,0.04436 0.398437,0.04297 0.236466,0.01735 0.471316,-0.04703 0.667969,-0.1835954 0.149386,-0.120574 0.232509,-0.308409 0.22461,-0.503906 2.9e-4,-0.136773 -0.04972,-0.269571 -0.140625,-0.369139 C 8.577173,8.8997106 8.436104,8.7952176 8.281278,8.7168346 8.098304,8.6170946 7.841691,8.4964686 7.509794,8.3535536 7.212868,8.2315156 6.927647,8.0789996 6.660184,7.8984746 6.458375,7.7613286 6.291743,7.5766886 6.16995,7.3613656 6.052279,7.1340046 5.992792,6.8787586 6.000028,6.6211316 5.991028,6.2941646 6.100134,5.9765096 6.304715,5.7265996 6.51728,5.4756356 6.789655,5.2863636 7.095731,5.1797256 7.428696,5.0584363 7.779734,4.9978229 8.13284,5.0000377 Z"
     sodipodi:nodetypes="ccccccccccccccccccccccccccccccccccccccccccccccccccccccccc" />
  <path
     id="rect2630"
     style="opacity:0.3;fill:#ffffff;fill-opacity:1"
     d="M 3,1 C 1.8920011,1 1,1.8920011 1,3 V 4 C 1,2.8920011 1.8920011,2 3,2 h 10 c 1.107999,0 2,0.8920011 2,2 V 3 C 15,1.8920011 14.107999,1 13,1 Z"
     sodipodi:nodetypes="sscsscsss" />
  <path
     d="M 3,15 C 1.8920011,15 1,14.107999 1,13 v -1 c 0,1.107999 0.8920011,2 2,2 h 10 c 1.107999,0 2,-0.892001 2,-2 v 1 c 0,1.107999 -0.892001,2 -2,2 z"
     style="opacity:0.3;fill:#ffffff;fill-opacity:1"
     id="path19648" />
  <path
     id="rect899"
     style="opacity:0.5;fill:#000000;stroke:none"
     d="M 3,0 C 1.3380017,0 0,1.3380017 0,3 v 10 c 0,1.661998 1.3380017,3 3,3 h 10 c 1.661998,0 3,-1.338002 3,-3 V 3 C 16,1.3380017 14.661998,0 13,0 Z m 0,1 h 10 c 1.107999,0 2,0.8920011 2,2 v 10 c 0,1.107999 -0.892001,2 -2,2 H 3 C 1.8920011,15 1,14.107999 1,13 V 3 C 1,1.8920011 1.8920011,1 3,1 Z" />
</svg>
