<?xml version="1.0" encoding="UTF-8" standalone="no"?>
<!-- Created with Inkscape (http://www.inkscape.org/) -->

<svg
   width="16"
   height="16"
   viewBox="0 0 16 16"
   version="1.1"
   id="svg5"
   sodipodi:docname="sound-recorder.svg"
   inkscape:version="1.2.1 (9c6d41e410, 2022-07-14)"
   xmlns:inkscape="http://www.inkscape.org/namespaces/inkscape"
   xmlns:sodipodi="http://sodipodi.sourceforge.net/DTD/sodipodi-0.dtd"
   xmlns:xlink="http://www.w3.org/1999/xlink"
   xmlns="http://www.w3.org/2000/svg"
   xmlns:svg="http://www.w3.org/2000/svg">
  <sodipodi:namedview
     id="namedview7"
     pagecolor="#ffffff"
     bordercolor="#666666"
     borderopacity="1.0"
     inkscape:showpageshadow="2"
     inkscape:pageopacity="0.0"
     inkscape:pagecheckerboard="0"
     inkscape:deskcolor="#d1d1d1"
     inkscape:document-units="px"
     showgrid="false"
     inkscape:zoom="49.6875"
     inkscape:cx="8.0201258"
     inkscape:cy="8"
     inkscape:window-width="1920"
     inkscape:window-height="1007"
     inkscape:window-x="0"
     inkscape:window-y="0"
     inkscape:window-maximized="1"
     inkscape:current-layer="svg5" />
  <defs
     id="defs2">
    <linearGradient
       inkscape:collect="always"
       id="linearGradient3670">
      <stop
         style="stop-color:#ca3d3d;stop-opacity:1;"
         offset="0"
         id="stop3666" />
      <stop
         style="stop-color:#ed796c;stop-opacity:1;"
         offset="1"
         id="stop3668" />
    </linearGradient>
    <linearGradient
       inkscape:collect="always"
       xlink:href="#linearGradient3670"
       id="linearGradient19638"
       x1="13"
       y1="16"
       x2="3"
       y2="0"
       gradientUnits="userSpaceOnUse" />
  </defs>
  <rect
     style="fill:url(#linearGradient19638);fill-opacity:1.0;stroke:none"
     id="rect184"
     width="15"
     height="15"
     x="0.5"
     y="0.5"
     ry="2.5" />
  <path
     d="M 7.5,4 C 6.6690024,4 6,4.6690024 6,5.5 v 3 C 6,9.3309976 6.6690024,10 7.5,10 8.3309976,10 9,9.3309976 9,8.5 v -3 C 9,4.6690024 8.3309976,4 7.5,4 Z m -3,4 C 4.2238579,8 4,8.2238579 4,8.5 c -3.691e-4,1.740129 1.2777192,3.216254 3,3.464844 V 13 H 5.5 C 5.2230003,13 5,13.223 5,13.5 5,13.777 5.2230003,14 5.5,14 h 4 C 9.7769997,14 10,13.777 10,13.5 10,13.223 9.7769997,13 9.5,13 H 8 V 11.964844 C 9.7222808,11.716254 11.000369,10.240129 11,8.5 11,8.2238579 10.776142,8 10.5,8 10.223858,8 10,8.2238579 10,8.5 10,9.8807105 8.8807105,11 7.5,11 6.1192895,11 5,9.8807105 5,8.5 5,8.2238579 4.7761421,8 4.5,8 Z"
     style="fill:#000000;stroke-width:1.75;stroke-linecap:round;stroke-linejoin:round;opacity:0.2"
     id="path991" />
  <path
     id="path790"
     style="fill:#ffffff;stroke-width:1.75;stroke-linecap:round;stroke-linejoin:round"
     d="M 7.5,3 C 6.6690024,3 6,3.6690024 6,4.5 v 3 C 6,8.330998 6.6690024,9 7.5,9 8.3309976,9 9,8.330998 9,7.5 v -3 C 9,3.6690024 8.3309976,3 7.5,3 Z m -3,4 C 4.2238579,7 4,7.2238579 4,7.5 3.9996309,9.240129 5.2777192,10.716254 7,10.964844 V 12 H 5.5 C 5.2230003,12 5,12.223 5,12.5 5,12.777 5.2230003,13 5.5,13 h 4 C 9.7769997,13 10,12.777 10,12.5 10,12.223 9.7769997,12 9.5,12 H 8 V 10.964844 C 9.7222808,10.716254 11.000369,9.240129 11,7.5 11,7.2238579 10.776142,7 10.5,7 10.223858,7 10,7.2238579 10,7.5 10,8.88071 8.8807105,10 7.5,10 6.1192895,10 5,8.88071 5,7.5 5,7.2238579 4.7761421,7 4.5,7 Z"
     sodipodi:nodetypes="sssssssscccsssssscccsssss" />
  <path
     id="rect2630"
     style="opacity:0.3;fill:#ffffff;fill-opacity:1"
     d="M 3,1 C 1.8920011,1 1,1.8920011 1,3 V 4 C 1,2.8920011 1.8920011,2 3,2 h 10 c 1.107999,0 2,0.8920011 2,2 V 3 C 15,1.8920011 14.107999,1 13,1 Z"
     sodipodi:nodetypes="sscsscsss" />
  <path
     d="M 3,15 C 1.8920011,15 1,14.107999 1,13 v -1 c 0,1.107999 0.8920011,2 2,2 h 10 c 1.107999,0 2,-0.892001 2,-2 v 1 c 0,1.107999 -0.892001,2 -2,2 z"
     style="opacity:0.3;fill:#ffffff;fill-opacity:1"
     id="path19648" />
  <path
     id="rect899"
     style="opacity:0.5;fill:#000000;stroke:none"
     d="M 3,0 C 1.3380017,0 0,1.3380017 0,3 v 10 c 0,1.661998 1.3380017,3 3,3 h 10 c 1.661998,0 3,-1.338002 3,-3 V 3 C 16,1.3380017 14.661998,0 13,0 Z m 0,1 h 10 c 1.107999,0 2,0.8920011 2,2 v 10 c 0,1.107999 -0.892001,2 -2,2 H 3 C 1.8920011,15 1,14.107999 1,13 V 3 C 1,1.8920011 1.8920011,1 3,1 Z" />
</svg>
