<?xml version="1.0" encoding="UTF-8" standalone="no"?>
<!-- Created with Inkscape (http://www.inkscape.org/) -->

<svg
   width="16"
   height="16"
   viewBox="0 0 16 16"
   version="1.1"
   id="svg5"
   sodipodi:docname="utilities-tweak-tool.svg"
   inkscape:version="1.2.1 (9c6d41e410, 2022-07-14)"
   xmlns:inkscape="http://www.inkscape.org/namespaces/inkscape"
   xmlns:sodipodi="http://sodipodi.sourceforge.net/DTD/sodipodi-0.dtd"
   xmlns:xlink="http://www.w3.org/1999/xlink"
   xmlns="http://www.w3.org/2000/svg"
   xmlns:svg="http://www.w3.org/2000/svg">
  <sodipodi:namedview
     id="namedview7"
     pagecolor="#ffffff"
     bordercolor="#666666"
     borderopacity="1.0"
     inkscape:showpageshadow="2"
     inkscape:pageopacity="0.0"
     inkscape:pagecheckerboard="0"
     inkscape:deskcolor="#d1d1d1"
     inkscape:document-units="px"
     showgrid="false"
     inkscape:zoom="49.6875"
     inkscape:cx="8"
     inkscape:cy="8"
     inkscape:window-width="1920"
     inkscape:window-height="1007"
     inkscape:window-x="0"
     inkscape:window-y="0"
     inkscape:window-maximized="1"
     inkscape:current-layer="svg5" />
  <defs
     id="defs2">
    <linearGradient
       inkscape:collect="always"
       xlink:href="#linearGradient22024"
       id="linearGradient19638"
       x1="8"
       y1="16"
       x2="8"
       y2="0"
       gradientUnits="userSpaceOnUse" />
    <linearGradient
       inkscape:collect="always"
       id="linearGradient22024">
      <stop
         style="stop-color:#dedede;stop-opacity:1;"
         offset="0"
         id="stop22020" />
      <stop
         style="stop-color:#f2f2f2;stop-opacity:1;"
         offset="1"
         id="stop22022" />
    </linearGradient>
    <linearGradient
       inkscape:collect="always"
       xlink:href="#linearGradient2971"
       id="linearGradient2973"
       x1="53"
       y1="30"
       x2="53"
       y2="14"
       gradientUnits="userSpaceOnUse"
       gradientTransform="matrix(0.25,0,0,0.25,-0.24999993,-0.49999988)" />
    <linearGradient
       inkscape:collect="always"
       id="linearGradient2971">
      <stop
         style="stop-color:#51aadf;stop-opacity:1;"
         offset="0"
         id="stop2967" />
      <stop
         style="stop-color:#57bcfa;stop-opacity:1;"
         offset="1"
         id="stop2969" />
    </linearGradient>
    <linearGradient
       inkscape:collect="always"
       xlink:href="#linearGradient2059"
       id="linearGradient2063"
       x1="53"
       y1="52"
       x2="53"
       y2="36"
       gradientUnits="userSpaceOnUse"
       gradientTransform="matrix(0.25,0,0,0.25,-0.24999993,1.1768494e-7)" />
    <linearGradient
       inkscape:collect="always"
       id="linearGradient2059">
      <stop
         style="stop-color:#999999;stop-opacity:1"
         offset="0"
         id="stop2055" />
      <stop
         style="stop-color:#b3b3b3;stop-opacity:1"
         offset="1"
         id="stop2057" />
    </linearGradient>
    <linearGradient
       inkscape:collect="always"
       xlink:href="#linearGradient22024"
       id="linearGradient3761"
       x1="50"
       y1="27"
       x2="50"
       y2="15"
       gradientUnits="userSpaceOnUse"
       gradientTransform="matrix(0.16666666,0,0,0.16666666,3.0000001,1.5000001)" />
    <linearGradient
       inkscape:collect="always"
       xlink:href="#linearGradient22024"
       id="linearGradient3771"
       x1="50"
       y1="27"
       x2="50"
       y2="15"
       gradientUnits="userSpaceOnUse"
       gradientTransform="matrix(0.16666666,0,0,0.16666666,-0.99999973,7.5000001)" />
  </defs>
  <rect
     style="fill:url(#linearGradient19638);fill-opacity:1;stroke:none"
     id="rect184"
     width="15"
     height="15"
     x="0.5"
     y="0.5"
     ry="2.5" />
  <path
     id="rect1301"
     style="opacity:0.2;fill:#ffffff;stroke-width:0.857145;stroke-linecap:round;stroke-linejoin:round"
     d="m 5.0000001,3.9798743 c -1.1079984,0 -2,0.8920015 -2,2 0,1.107997 0.8920016,2 2,2 H 11 c 1.107998,0 2,-0.892003 2,-2 0,-1.1079985 -0.892002,-2 -2,-2 z m 0,5.9999999 c -1.1079974,0 -2,0.8920028 -2,2.0000008 0,1.107997 0.8920026,2 2,2 H 11 c 1.107998,0 2,-0.892003 2,-2 0,-1.107998 -0.892002,-2.0000008 -2,-2.0000008 z" />
  <rect
     style="fill:url(#linearGradient2973);fill-opacity:1;stroke-width:0.75;stroke-linecap:round;stroke-linejoin:round"
     id="rect743"
     width="10"
     height="4"
     x="3"
     y="3"
     ry="2" />
  <rect
     style="fill:url(#linearGradient2063);fill-opacity:1;stroke-width:0.75;stroke-linecap:round;stroke-linejoin:round"
     id="rect745"
     width="10"
     height="4"
     x="3"
     y="9"
     ry="2" />
  <path
     id="rect3773"
     style="opacity:0.2;fill:#000000;fill-opacity:1;stroke-width:0.5;stroke-linecap:round;stroke-linejoin:round"
     d="m 9.0000001,5.0000001 c -0.553998,0 -1,0.4460016 -1,1 0,0.5539981 0.446002,1 1,1 H 11 c 0.553998,0 1,-0.4460019 1,-1 0,-0.5539984 -0.446002,-1 -1,-1 z m -4,6.0000009 c -0.5539981,0 -1,0.446002 -1,1 0,0.553998 0.4460019,1 1,1 h 2 c 0.553998,0 1,-0.446002 1,-1 0,-0.553998 -0.446002,-1 -1,-1 z" />
  <rect
     style="fill:url(#linearGradient3761);fill-opacity:1;stroke-width:0.5;stroke-linecap:round;stroke-linejoin:round"
     id="rect3027"
     width="4"
     height="2"
     x="8"
     y="4"
     ry="1" />
  <rect
     style="fill:url(#linearGradient3771);fill-opacity:1;stroke-width:0.5;stroke-linecap:round;stroke-linejoin:round"
     id="rect3763"
     width="4"
     height="2"
     x="4"
     y="10"
     ry="1" />
  <path
     id="rect2630"
     style="opacity:0.3;fill:#ffffff;fill-opacity:1"
     d="M 3,1 C 1.8920011,1 1,1.8920011 1,3 V 4 C 1,2.8920011 1.8920011,2 3,2 h 10 c 1.107999,0 2,0.8920011 2,2 V 3 C 15,1.8920011 14.107999,1 13,1 Z"
     sodipodi:nodetypes="sscsscsss" />
  <path
     d="M 3,15 C 1.8920011,15 1,14.107999 1,13 v -1 c 0,1.107999 0.8920011,2 2,2 h 10 c 1.107999,0 2,-0.892001 2,-2 v 1 c 0,1.107999 -0.892001,2 -2,2 z"
     style="opacity:0.3;fill:#ffffff;fill-opacity:1"
     id="path19648" />
  <path
     id="rect899"
     style="opacity:0.5;fill:#000000;stroke:none"
     d="M 3,0 C 1.3380017,0 0,1.3380017 0,3 v 10 c 0,1.661998 1.3380017,3 3,3 h 10 c 1.661998,0 3,-1.338002 3,-3 V 3 C 16,1.3380017 14.661998,0 13,0 Z m 0,1 h 10 c 1.107999,0 2,0.8920011 2,2 v 10 c 0,1.107999 -0.892001,2 -2,2 H 3 C 1.8920011,15 1,14.107999 1,13 V 3 C 1,1.8920011 1.8920011,1 3,1 Z" />
</svg>
