<?xml version="1.0" encoding="UTF-8" standalone="no"?>
<!-- Created with Inkscape (http://www.inkscape.org/) -->

<svg
   width="16"
   height="16"
   viewBox="0 0 16 16"
   version="1.1"
   id="svg5"
   sodipodi:docname="utilities-system-monitor.svg"
   inkscape:version="1.2.1 (9c6d41e410, 2022-07-14)"
   xmlns:inkscape="http://www.inkscape.org/namespaces/inkscape"
   xmlns:sodipodi="http://sodipodi.sourceforge.net/DTD/sodipodi-0.dtd"
   xmlns:xlink="http://www.w3.org/1999/xlink"
   xmlns="http://www.w3.org/2000/svg"
   xmlns:svg="http://www.w3.org/2000/svg">
  <sodipodi:namedview
     id="namedview7"
     pagecolor="#ffffff"
     bordercolor="#666666"
     borderopacity="1.0"
     inkscape:showpageshadow="2"
     inkscape:pageopacity="0.0"
     inkscape:pagecheckerboard="0"
     inkscape:deskcolor="#d1d1d1"
     inkscape:document-units="px"
     showgrid="false"
     inkscape:zoom="25.71875"
     inkscape:cx="4.5492102"
     inkscape:cy="9.6233293"
     inkscape:window-width="1920"
     inkscape:window-height="1009"
     inkscape:window-x="0"
     inkscape:window-y="0"
     inkscape:window-maximized="1"
     inkscape:current-layer="svg5" />
  <defs
     id="defs2">
    <linearGradient
       inkscape:collect="always"
       id="linearGradient7403">
      <stop
         style="stop-color:#4d4d4d;stop-opacity:1;"
         offset="0"
         id="stop7399" />
      <stop
         style="stop-color:#26381b;stop-opacity:1;"
         offset="1"
         id="stop7401" />
    </linearGradient>
    <linearGradient
       inkscape:collect="always"
       id="linearGradient1610">
      <stop
         style="stop-color:#78e021;stop-opacity:0;"
         offset="0"
         id="stop1606" />
      <stop
         style="stop-color:#78e021;stop-opacity:0.5;"
         offset="0.2175552"
         id="stop1663" />
      <stop
         style="stop-color:#78e021;stop-opacity:1;"
         offset="0.5"
         id="stop1665" />
      <stop
         style="stop-color:#78e021;stop-opacity:0.5;"
         offset="0.77579284"
         id="stop1667" />
      <stop
         style="stop-color:#78e021;stop-opacity:0;"
         offset="1"
         id="stop1608" />
    </linearGradient>
    <linearGradient
       inkscape:collect="always"
       xlink:href="#linearGradient7403"
       id="linearGradient19638"
       x1="8"
       y1="16"
       x2="8"
       y2="0"
       gradientUnits="userSpaceOnUse" />
    <linearGradient
       inkscape:collect="always"
       xlink:href="#linearGradient1610"
       id="linearGradient1612"
       x1="0"
       y1="8.00044"
       x2="16"
       y2="8.00044"
       gradientUnits="userSpaceOnUse" />
  </defs>
  <rect
     style="fill:url(#linearGradient19638);fill-opacity:1;stroke:none"
     id="rect184"
     width="15"
     height="15"
     x="0.5"
     y="0.5"
     ry="2.5" />
  <path
     d="M 4.01486,3.9561 3.09699,9.18599 H 0 v 0.42262 h 3.45357 l 0.75939,-4.35164 1.08956,6.70904 0.20801,1.15087 0.208,-1.15086 0.46884,-3.18944 H 7.7986 L 8.03632,8.037 8.78911,10.7576 9.34379,9.5888 H 16 V 9.16618 H 9.07965 L 8.89476,9.54918 8.06273,6.55124 7.48824,8.35397 H 5.82419 L 5.50063,10.53969 4.43087,3.96271 4.22617,2.884 4.01486,3.95611 Z"
     style="display:inline;fill:url(#linearGradient1612);fill-opacity:1;fill-rule:evenodd;stroke:none;enable-background:new"
     id="path458" />
  <path
     id="rect2630"
     style="opacity:0.3;fill:#ffffff;fill-opacity:1"
     d="M 3,1 C 1.8920011,1 1,1.8920011 1,3 V 4 C 1,2.8920011 1.8920011,2 3,2 h 10 c 1.107999,0 2,0.8920011 2,2 V 3 C 15,1.8920011 14.107999,1 13,1 Z"
     sodipodi:nodetypes="sscsscsss" />
  <path
     d="M 3,15 C 1.8920011,15 1,14.107999 1,13 v -1 c 0,1.107999 0.8920011,2 2,2 h 10 c 1.107999,0 2,-0.892001 2,-2 v 1 c 0,1.107999 -0.892001,2 -2,2 z"
     style="opacity:0.3;fill:#ffffff;fill-opacity:1"
     id="path19648" />
  <path
     id="rect899"
     style="opacity:0.5;fill:#000000;stroke:none"
     d="M 3,0 C 1.3380017,0 0,1.3380017 0,3 v 10 c 0,1.661998 1.3380017,3 3,3 h 10 c 1.661998,0 3,-1.338002 3,-3 V 3 C 16,1.3380017 14.661998,0 13,0 Z m 0,1 h 10 c 1.107999,0 2,0.8920011 2,2 v 10 c 0,1.107999 -0.892001,2 -2,2 H 3 C 1.8920011,15 1,14.107999 1,13 V 3 C 1,1.8920011 1.8920011,1 3,1 Z" />
</svg>
