<?xml version="1.0" encoding="UTF-8" standalone="no"?>
<!-- Created with Inkscape (http://www.inkscape.org/) -->

<svg
   width="16"
   height="16"
   viewBox="0 0 16 16"
   version="1.1"
   id="svg5"
   sodipodi:docname="visual-studio-code.svg"
   inkscape:version="1.2.1 (9c6d41e410, 2022-07-14)"
   xmlns:inkscape="http://www.inkscape.org/namespaces/inkscape"
   xmlns:sodipodi="http://sodipodi.sourceforge.net/DTD/sodipodi-0.dtd"
   xmlns:xlink="http://www.w3.org/1999/xlink"
   xmlns="http://www.w3.org/2000/svg"
   xmlns:svg="http://www.w3.org/2000/svg">
  <sodipodi:namedview
     id="namedview7"
     pagecolor="#ffffff"
     bordercolor="#666666"
     borderopacity="1.0"
     inkscape:showpageshadow="2"
     inkscape:pageopacity="0.0"
     inkscape:pagecheckerboard="0"
     inkscape:deskcolor="#d1d1d1"
     inkscape:document-units="px"
     showgrid="false"
     inkscape:zoom="51.3125"
     inkscape:cx="8"
     inkscape:cy="8"
     inkscape:window-width="1920"
     inkscape:window-height="1007"
     inkscape:window-x="0"
     inkscape:window-y="0"
     inkscape:window-maximized="1"
     inkscape:current-layer="svg5" />
  <defs
     id="defs2">
    <linearGradient
       inkscape:collect="always"
       xlink:href="#4852"
       id="linearGradient19638"
       x1="13"
       y1="16"
       x2="3"
       y2="0"
       gradientUnits="userSpaceOnUse" />
    <linearGradient
       inkscape:collect="always"
       id="4852">
      <stop
         style="stop-color:#333333;stop-opacity:1"
         offset="0"
         id="stop14555" />
      <stop
         style="stop-color:#666666;stop-opacity:1"
         offset="1"
         id="stop14557" />
    </linearGradient>
  </defs>
  <rect
     style="fill:url(#linearGradient19638);fill-opacity:1.0;stroke:none"
     id="rect184"
     width="15"
     height="15"
     x="0.5"
     y="0.5"
     ry="2.5" />
  <path
     d="m 10.307207,4.0000652 c -0.03162,5.357e-4 -0.06348,0.00343 -0.09457,0.00874 -0.09313,0.016017 -0.182765,0.053263 -0.261103,0.1105095 -0.00959,0.00701 -0.018,0.016043 -0.027242,0.023643 -2.9e-4,2.361e-4 -7.5e-4,2.896e-4 -10e-4,5.357e-4 -0.015667,0.012933 -0.031708,0.025461 -0.046258,0.040092 L 5.9800034,7.7142434 4.2185787,6.3377501 C 4.0587648,6.2158073 3.8355525,6.2261827 3.6871178,6.3619076 L 3.1361261,6.8651138 c -0.1815814,0.1660144 -0.1813164,0.4530897 0,0.6193711 L 4.6564925,8.9128918 3.1361261,10.290415 c -0.1813172,0.166287 -0.1815814,0.453353 0,0.61937 l 0.5509917,0.50372 c 0.1484338,0.135748 0.371647,0.145572 0.5314609,0.02364 l 1.7336696,-1.307102 3.9247865,3.686927 c 0.012425,0.0125 0.026325,0.02267 0.039575,0.03392 0.0025,0.0019 0.00467,0.0043 0.00717,0.0062 h 5.35e-4 c 0.00924,0.0076 0.01765,0.01663 0.027242,0.02364 0.078476,0.05733 0.1678092,0.09456 0.2611032,0.11051 h 5.35e-4 c 0.06203,0.01062 0.125644,0.01172 0.188634,0.0031 h 5.35e-4 c 0.03141,-0.0043 0.06274,-0.01127 0.09355,-0.02056 0.03097,-0.0093 0.06168,-0.02105 0.09149,-0.03547 l 2.059023,-0.995629 c 0.18977,-0.09179 0.318581,-0.272597 0.347454,-0.478535 0.0041,-0.02882 0.0061,-0.05826 0.0062,-0.08789 v -0.0016 -0.02364 -6.7015392 -0.024158 c 0,-5.357e-4 1e-6,-0.00103 0,-0.00157 0,-0.029664 -0.0022,-0.059049 -0.0062,-0.087894 C 12.96498,5.3299222 12.836172,5.1491171 12.646399,5.05733 L 10.587377,4.0617317 c -0.05977,-0.028911 -0.122219,-0.047349 -0.185548,-0.056026 -0.03158,-0.00437 -0.06296,-0.00618 -0.09457,-0.00565 z m 0.194286,2.7010735 V 11.247988 L 7.5399133,8.9334432 Z"
     style="opacity:0.2;fill:#000000;stroke-width:0.500012"
     id="path1683" />
  <path
     d="M 12.646286,4.0594013 10.587119,3.0621932 C 10.348787,2.9467666 10.063924,2.9954566 9.8768508,3.1835982 l -6.741,6.1069035 C 2.954535,9.4567833 2.9547442,9.7438942 3.1363158,9.9099042 l 0.5506267,0.5034548 c 0.1484325,0.135742 0.3719708,0.14572 0.5317833,0.0238 L 12.336439,4.3180987 c 0.272331,-0.2077971 0.663499,-0.012422 0.663499,0.3313889 v -0.02405 c 0,-0.2413414 -0.137463,-0.4613464 -0.353652,-0.566041 z"
     style="fill:#0072b0;stroke-width:0.500003"
     id="path3815" />
  <path
     d="m 12.646286,11.940793 -2.059167,0.997212 c -0.238332,0.115383 -0.523195,0.06671 -0.7102682,-0.121404 l -6.741,-6.3319393 C 2.954535,6.3183871 2.9547433,6.03127 3.136315,5.8652625 L 3.6869275,5.3617886 C 3.83536,5.2260687 4.0588992,5.2160772 4.2187117,5.3380136 l 8.1177293,6.3440614 c 0.272331,0.207789 0.663498,0.01242 0.663498,-0.331394 v 0.02407 c 0,0.241323 -0.137462,0.461326 -0.353652,0.566046 z"
     style="fill:#008eda;stroke-width:0.500003"
     id="path3843" />
  <path
     d="m 10.58726,12.938067 c -0.23841,0.115315 -0.523273,0.0666 -0.7103475,-0.121566 0.2304845,0.231818 0.6246185,0.06762 0.6246185,-0.260246 V 3.4437235 c 0,-0.3278613 -0.394134,-0.4920585 -0.6246185,-0.2602243 C 10.063987,2.9953418 10.34885,2.9465824 10.58726,3.0619075 l 2.058817,0.9958381 C 12.862427,4.1623845 13,4.3824702 13,4.6239169 v 6.7521921 c 0,0.241441 -0.137576,0.46152 -0.353923,0.56616 z"
     style="fill:#1eacf8;stroke-width:0.500003"
     id="path3871" />
  <path
     id="rect2630"
     style="opacity:0.3;fill:#ffffff;fill-opacity:1"
     d="M 3,1 C 1.8920011,1 1,1.8920011 1,3 V 4 C 1,2.8920011 1.8920011,2 3,2 h 10 c 1.107999,0 2,0.8920011 2,2 V 3 C 15,1.8920011 14.107999,1 13,1 Z"
     sodipodi:nodetypes="sscsscsss" />
  <path
     d="M 3,15 C 1.8920011,15 1,14.107999 1,13 v -1 c 0,1.107999 0.8920011,2 2,2 h 10 c 1.107999,0 2,-0.892001 2,-2 v 1 c 0,1.107999 -0.892001,2 -2,2 z"
     style="opacity:0.3;fill:#ffffff;fill-opacity:1"
     id="path19648" />
  <path
     id="rect899"
     style="opacity:0.5;fill:#000000;stroke:none"
     d="M 3,0 C 1.3380017,0 0,1.3380017 0,3 v 10 c 0,1.661998 1.3380017,3 3,3 h 10 c 1.661998,0 3,-1.338002 3,-3 V 3 C 16,1.3380017 14.661998,0 13,0 Z m 0,1 h 10 c 1.107999,0 2,0.8920011 2,2 v 10 c 0,1.107999 -0.892001,2 -2,2 H 3 C 1.8920011,15 1,14.107999 1,13 V 3 C 1,1.8920011 1.8920011,1 3,1 Z" />
</svg>
