<?xml version="1.0" encoding="UTF-8" standalone="no"?>
<!-- Created with Inkscape (http://www.inkscape.org/) -->

<svg
   width="16"
   height="16"
   viewBox="0 0 16 16"
   version="1.1"
   id="svg5"
   sodipodi:docname="wayland.svg"
   inkscape:version="1.2.1 (9c6d41e410, 2022-07-14)"
   xmlns:inkscape="http://www.inkscape.org/namespaces/inkscape"
   xmlns:sodipodi="http://sodipodi.sourceforge.net/DTD/sodipodi-0.dtd"
   xmlns:xlink="http://www.w3.org/1999/xlink"
   xmlns="http://www.w3.org/2000/svg"
   xmlns:svg="http://www.w3.org/2000/svg">
  <sodipodi:namedview
     id="namedview7"
     pagecolor="#ffffff"
     bordercolor="#666666"
     borderopacity="1.0"
     inkscape:showpageshadow="2"
     inkscape:pageopacity="0.0"
     inkscape:pagecheckerboard="0"
     inkscape:deskcolor="#d1d1d1"
     inkscape:document-units="px"
     showgrid="false"
     inkscape:zoom="49.8125"
     inkscape:cx="7.9899624"
     inkscape:cy="8"
     inkscape:window-width="1920"
     inkscape:window-height="1009"
     inkscape:window-x="0"
     inkscape:window-y="0"
     inkscape:window-maximized="1"
     inkscape:current-layer="svg5" />
  <defs
     id="defs2">
    <linearGradient
       inkscape:collect="always"
       xlink:href="#linearGradient6547"
       id="linearGradient19638"
       x1="13"
       y1="16"
       x2="3"
       y2="0"
       gradientUnits="userSpaceOnUse" />
    <linearGradient
       inkscape:collect="always"
       id="linearGradient6547">
      <stop
         style="stop-color:#ffbc00;stop-opacity:1;"
         offset="0"
         id="stop6543" />
      <stop
         style="stop-color:#ffdf83;stop-opacity:1;"
         offset="1"
         id="stop6545" />
    </linearGradient>
  </defs>
  <rect
     style="fill:url(#linearGradient19638);fill-opacity:1.0;stroke:none"
     id="rect184"
     width="15"
     height="15"
     x="0.5"
     y="0.5"
     ry="2.5" />
  <path
     d="M 7.999365,4 C 7.146068,4 6.343038,4.214495 5.640213,4.591377 h 0.99326 v 0.06741 C 6.500813,4.665117 6.411613,4.699782 6.363858,4.7630725 6.263035,4.6934525 6.164315,4.658795 6.068803,4.658787 H 5.743228 L 5.560093,4.686766 5.528293,4.658787 h -0.01017 c -0.130077,0.074535 -0.256592,0.1548105 -0.37899,0.2403655 0.280418,0.4018875 0.449743,0.74914 0.50744,1.040315 h 0.270888 v 0.067405 h -0.2073 v 0.075035 c 0.07959,0.29118 0.13836,0.4374975 0.175505,0.4374925 h 0.06359 l 0.14371,-0.038153 0.0318,0.038153 0.0318,-0.038153 0.0318,0.038153 v 0.027979 c -0.106128,0.075965 -0.177788,0.18121 -0.21493,0.31413 h -0.02417 v 0.066133 h 0.05596 c 0.07429,1.0570875 0.212957,1.85803 0.4146,2.4023928 l 0.118275,0.09411 h 0.06359 c 0.07959,5e-6 0.247648,-0.36967 0.502353,-1.1102628 0.164495,-0.335475 0.28308,-0.6294175 0.35737,-0.882615 L 7.429614,7.3257095 C 7.594109,7.078852 7.764487,6.9556295 7.939599,6.955622 h 0.05596 c 0.11143,7.5e-6 0.190062,0.069323 0.237822,0.2085725 0.148575,0.20889 0.26843,0.5233525 0.358643,0.941115 l 0.446395,0.9869003 c 0.05836,0.069632 0.08648,0.14921 0.08648,0.237825 0.164492,0.3734625 0.313732,0.61991 0.446395,0.7401752 h 0.09538 c 0.11143,2e-6 0.259398,-0.4620802 0.445125,-1.3862405 0.03183,5e-6 0.11998,-0.246445 0.263258,-0.740175 v -0.038155 l -0.501083,-0.06613 -0.119545,0.03688 H 9.603087 v -0.075035 l 0.302682,-0.02925 h 0.588835 C 10.722769,6.955562 10.931829,6.322762 11.122862,5.873337 c 0.0198,-0.287275 0.043,-0.524395 0.06741,-0.72237 C 10.843819,4.8634795 10.457867,4.62137 10.041854,4.434955 10.007804,4.513595 9.942144,4.55324 9.842184,4.55323 V 4.4871 L 10.026593,4.42732 C 9.407106,4.152285 8.720886,4.000003 7.999396,4.000003 Z M 7.048072,4.591377 h 0.803766 v 0.06741 L 7.668703,4.686766 7.493198,4.658787 7.341855,4.72492 7.287165,4.658787 H 7.048069 Z M 8.71156,5.133155 h 0.08775 v 0.027979 c -3e-6,0.044318 -0.02939,0.06614 -0.08775,0.066133 L 8.67977,5.265419 V 5.303572 L 8.59201,5.265419 V 5.199286 Z M 4.43711,5.4930675 C 3.548498,6.3955975 3,7.6340075 3,9.0006379 3,11.76201 5.237993,14 7.999365,14 10.760738,14 13,11.76201 13,9.0006379 13,7.8849925 12.634563,6.85394 12.016915,6.0221275 11.882563,6.181515 11.75231,6.48322 11.625208,6.927635 c -0.05838,0.4620825 -0.157095,0.88951 -0.295055,1.281955 -0.12205,0.4051125 -0.18314,0.77863 -0.183135,1.1204379 L 10.916825,10.00407 c -5e-6,0.05697 0.08687,0.113453 0.261988,0.170418 -0.03185,0.13293 -0.08004,0.199672 -0.14371,0.19967 v 0.03815 h 0.05596 v 0.02798 c -7e-6,0.06963 -0.09048,0.104287 -0.27089,0.104285 l 0.03307,0.03816 v 0.133537 h -0.05596 c 0.03714,0.132928 0.115772,0.198398 0.237825,0.198395 v 0.06741 h -0.237825 v 0.03815 c 0.07959,0 0.119542,0.05648 0.119547,0.170418 l -0.334477,0.132265 0.0318,0.03815 v 0.02925 c -5e-6,0.04431 -0.03996,0.06613 -0.119547,0.06613 v 0.03815 c 0.100812,2e-6 0.151337,0.02182 0.151342,0.06613 -0.143277,0.05697 -0.33247,0.339347 -0.565942,0.845732 -0.23879,0.449418 -0.445523,0.674043 -0.620628,0.674043 H 9.395788 C 9.263126,12.979229 9.155108,12.642939 9.070213,12.073256 8.730603,11.206071 8.560226,10.696496 8.560228,10.544576 8.560226,10.152131 8.450938,9.7349664 8.233383,9.2918739 8.175003,9.0956539 8.136323,8.8479336 8.115108,8.5504286 L 7.971396,8.5135466 c -0.360833,0.6519753 -0.548753,1.1615528 -0.56467,1.5286774 -0.100823,0.215218 -0.180728,0.4745 -0.239095,0.77833 0.217557,0.06963 0.325572,0.136373 0.325577,0.19967 v 0.03688 c -0.169805,-0.02532 -0.288392,-0.07281 -0.35737,-0.14244 -0.07429,0.170908 -0.17301,0.645825 -0.295055,1.424395 -0.09551,0.3608 -0.2141,0.541778 -0.35737,0.541778 -0.40328,-0.158248 -0.740442,-0.41753 -1.011065,-0.77833 -0.04245,2e-6 -0.111785,-0.180978 -0.2073,-0.541778 -0.05837,0 -0.09832,-0.179705 -0.119545,-0.540505 C 4.943863,10.507509 4.806463,9.9209294 4.732173,9.2626244 V 8.2757241 h -0.0318 l -0.14371,0.038153 v -0.038153 c 0,-0.044305 0.0482,-0.066127 0.14371,-0.066132 L 4.668583,7.6398346 V 7.1934396 L 4.437118,5.7690471 Z m 3.828058,0.010175 v 0.038155 c -5e-6,0.050645 -0.126835,0.104555 -0.381535,0.161515 v -0.067405 l 0.175505,-0.09411 0.0318,0.027979 h 0.02417 l 0.15007,-0.066133 z m -0.858453,0.34211 v 0.027979 C 7.29528,5.9746165 7.114333,6.067029 6.864938,6.149309 V 6.081904 c 0.04245,5e-6 0.06359,-0.03465 0.06359,-0.104285 z m 4.502098,0.038153 -0.01398,0.1233625 h 0.05596 l 0.03434,-0.026707 c -0.0248,-0.032693 -0.05072,-0.064597 -0.07631,-0.096655 z M 8.91886,6.177288 8.95066,6.215441 V 6.24342 L 8.8947,6.319728 H 8.8629 L 8.79931,6.24342 V 6.215441 Z m 1.097548,0.038153 h 0.03179 V 6.24342 L 9.993508,6.319728 H 9.961718 V 6.281575 Z m -0.501083,0.4743725 0.119548,0.095385 c -0.02123,0.069632 -0.08,0.10429 -0.175505,0.104285 l -0.06359,-0.104285 c -5e-6,-0.031646 0.03995,-0.06373 0.119547,-0.095385 z m 0.716013,0.4374925 0.02417,0.036882 v 0.02925 l -0.02417,0.038155 h -0.06359 V 7.193438 Z m -1.12934,0.3408375 v 0.02925 l -0.151343,0.14244 h -0.08775 v -0.038155 c -5e-6,-0.056963 0.0799,-0.10188 0.239095,-0.133535 z m -4.935775,1.320105 h 0.0318 v 0.029254 c -0.07959,0.2088878 -0.14766,0.3346853 -0.20603,0.3789903 h -0.06359 v -0.14244 z m 3.892915,1.5859105 h 0.0318 v 0.06613 l -0.239095,0.14244 -0.0318,-0.03815 v -0.06613 z m -3.271015,0.446395 h 0.05468 l 0.09539,0.370087 h -0.06359 l -0.08648,-0.342107 z m 3.183262,0.43622 h 0.02417 l 0.09539,0.104285 -0.0318,0.02925 h -0.0318 l -0.05596,-0.09538 v -0.03815 z"
     style="display:inline;opacity:0.2;fill:#000000;fill-opacity:1;stroke:none;stroke-width:0.25;enable-background:new"
     id="path6093" />
  <path
     d="M 7.999365,3 C 7.146068,3 6.343038,3.214495 5.640213,3.591377 h 0.99326 v 0.06741 c -0.13266,0.0063 -0.22186,0.041 -0.269615,0.104285 C 6.263035,3.693452 6.164315,3.658795 6.068803,3.658787 H 5.743228 l -0.183135,0.02798 -0.0318,-0.02798 h -0.01017 c -0.130077,0.07454 -0.256592,0.15481 -0.37899,0.240365 0.280418,0.401888 0.449743,0.74914 0.50744,1.0403155 h 0.270888 v 0.067405 h -0.2073 v 0.075035 c 0.07959,0.29118 0.13836,0.4374975 0.175505,0.4374925 h 0.06359 l 0.14371,-0.038153 0.0318,0.038153 0.0318,-0.038153 0.0318,0.038153 v 0.027979 c -0.106128,0.075965 -0.177788,0.18121 -0.21493,0.31413 h -0.02417 v 0.066133 h 0.05596 c 0.07429,1.0570875 0.212957,1.85803 0.4146,2.4023925 l 0.118275,0.09411 h 0.06359 c 0.07959,5e-6 0.247648,-0.36967 0.502353,-1.1102625 0.164495,-0.335475 0.28308,-0.6294175 0.35737,-0.882615 L 7.429614,6.3257095 C 7.594109,6.078852 7.764487,5.9556295 7.939599,5.955622 h 0.05596 c 0.11143,7.5e-6 0.190062,0.069323 0.237822,0.2085725 0.148575,0.20889 0.26843,0.5233525 0.358643,0.941115 l 0.446395,0.9869 c 0.05836,0.069632 0.08648,0.14921 0.08648,0.237825 0.164492,0.3734625 0.313732,0.61991 0.446395,0.740175 h 0.09538 c 0.11143,2.5e-6 0.259398,-0.46208 0.445125,-1.38624 0.03183,5e-6 0.11998,-0.246445 0.263258,-0.740175 v -0.038155 l -0.501083,-0.06613 -0.119545,0.03688 H 9.603087 v -0.075035 l 0.302682,-0.02925 h 0.588835 C 10.722769,5.955562 10.931829,5.322762 11.122862,4.873337 c 0.0198,-0.287275 0.043,-0.524395 0.06741,-0.72237 C 10.843819,3.86348 10.457867,3.62137 10.041854,3.434955 10.007804,3.513595 9.942144,3.55324 9.842184,3.55323 V 3.4871 l 0.18441,-0.05978 C 9.407107,3.152285 8.720887,3.000002 7.999397,3.000002 Z M 7.048072,3.591377 h 0.803766 v 0.06741 L 7.668703,3.686767 7.493198,3.658787 7.341855,3.724917 7.287165,3.658787 H 7.048069 Z M 8.71156,4.133155 h 0.08775 v 0.02798 c -3e-6,0.04432 -0.02939,0.06614 -0.08775,0.06613 l -0.03179,0.03815 v 0.03815 L 8.59201,4.265415 V 4.199285 Z M 4.43711,4.493067 C 3.548498,5.3955975 3,6.6340075 3,8.0006375 3,10.76201 5.237993,13 7.999365,13 10.760738,13 13,10.76201 13,8.0006375 13,6.8849925 12.634563,5.85394 12.016915,5.0221275 11.882563,5.181515 11.75231,5.48322 11.625208,5.927635 c -0.05838,0.4620825 -0.157095,0.88951 -0.295055,1.281955 -0.12205,0.4051125 -0.18314,0.77863 -0.183135,1.1204375 L 10.916825,9.00407 c -5e-6,0.05697 0.08687,0.1134525 0.261988,0.1704175 -0.03185,0.13293 -0.08004,0.1996725 -0.14371,0.19967 v 0.038155 h 0.05596 v 0.027979 c -7e-6,0.06963 -0.09048,0.1042875 -0.27089,0.104285 l 0.03307,0.038155 V 9.716269 h -0.05596 c 0.03714,0.1329275 0.115772,0.1983975 0.237825,0.198395 v 0.067405 h -0.237825 v 0.038155 c 0.07959,0 0.119542,0.05648 0.119547,0.170418 l -0.334477,0.132265 0.0318,0.03815 v 0.02925 c -5e-6,0.04431 -0.03996,0.06613 -0.119547,0.06613 v 0.03815 c 0.100812,2e-6 0.151337,0.02182 0.151342,0.06613 -0.143277,0.05697 -0.33247,0.339347 -0.565942,0.845732 -0.23879,0.449418 -0.445523,0.674043 -0.620628,0.674043 H 9.395788 C 9.263126,11.97923 9.155108,11.64294 9.070213,11.073257 8.730603,10.206072 8.560226,9.696497 8.560228,9.544577 8.560226,9.152132 8.450938,8.734967 8.233383,8.2918745 8.175003,8.0956545 8.136323,7.8479345 8.115108,7.5504295 L 7.971396,7.5135475 C 7.610563,8.1655225 7.422643,8.6751 7.406726,9.042225 c -0.100823,0.2152175 -0.180728,0.4745 -0.239095,0.77833 0.217557,0.06963 0.325572,0.1363725 0.325577,0.19967 v 0.03688 c -0.169805,-0.02532 -0.288392,-0.07281 -0.35737,-0.14244 -0.07429,0.170908 -0.17301,0.645825 -0.295055,1.424395 -0.09551,0.3608 -0.2141,0.541778 -0.35737,0.541778 -0.40328,-0.158248 -0.740442,-0.41753 -1.011065,-0.77833 -0.04245,2e-6 -0.111785,-0.180978 -0.2073,-0.541778 -0.05837,0 -0.09832,-0.179705 -0.119545,-0.540505 C 4.943863,9.50751 4.806463,8.92093 4.732173,8.262625 v -0.9869 h -0.0318 L 4.556663,7.313878 V 7.275725 c 0,-0.044305 0.0482,-0.066127 0.14371,-0.066132 L 4.668583,6.6398355 V 6.1934405 L 4.437118,4.769048 Z m 3.828058,0.01018 v 0.03815 c -5e-6,0.05065 -0.126835,0.104555 -0.381535,0.1615155 v -0.067405 l 0.175505,-0.09411 0.0318,0.02798 h 0.02417 l 0.15007,-0.06613 z M 7.406715,4.8453575 v 0.027979 C 7.29528,4.9746215 7.114333,5.067034 6.864938,5.149314 V 5.081909 c 0.04245,5e-6 0.06359,-0.03465 0.06359,-0.104285 z m 4.502098,0.038153 -0.01398,0.1233625 h 0.05596 l 0.03434,-0.026707 c -0.0248,-0.032693 -0.05072,-0.064597 -0.07631,-0.096655 z M 8.91886,5.177293 8.95066,5.215446 V 5.243425 L 8.8947,5.319733 H 8.8629 L 8.79931,5.243425 V 5.215446 Z m 1.097548,0.038153 h 0.03179 V 5.243425 L 9.993508,5.319733 H 9.961718 V 5.28158 Z m -0.501083,0.4743725 0.119548,0.095385 c -0.02123,0.069632 -0.08,0.10429 -0.175505,0.104285 l -0.06359,-0.104285 c -5e-6,-0.031646 0.03995,-0.06373 0.119547,-0.095385 z m 0.716013,0.4374925 0.02417,0.036883 v 0.02925 l -0.02417,0.038155 h -0.06359 V 6.193444 Z m -1.12934,0.3408375 v 0.02925 l -0.151343,0.14244 h -0.08775 v -0.038155 c -5e-6,-0.056963 0.0799,-0.10188 0.239095,-0.133535 z m -4.935775,1.320105 h 0.0318 v 0.029254 c -0.07959,0.2088875 -0.14766,0.334685 -0.20603,0.37899 H 3.928403 V 8.05405 Z m 3.892915,1.58591 h 0.0318 v 0.066132 l -0.239095,0.14244 -0.0318,-0.038155 v -0.066132 z m -3.271015,0.446395 h 0.05468 l 0.09539,0.3700875 H 4.874603 L 4.788123,9.8485385 Z m 3.183262,0.4362195 h 0.02417 l 0.09539,0.104285 -0.0318,0.02925 h -0.0318 l -0.05596,-0.09538 z"
     style="display:inline;fill:#ffffff;fill-opacity:1;stroke:none;stroke-width:0.25;enable-background:new"
     id="path3360"
     sodipodi:nodetypes="scccccccccccccccccccccccccccccccccccccccscccccccccccccccsscccccccccccscccccccsssccccccccccccccccccccccccccsccccccccccccccccccccsccccccccccccccccccccccccccccccccccccccccccccccccccccccccccccccccccccccccccccccccccccccc" />
  <path
     id="rect2630"
     style="opacity:0.3;fill:#ffffff;fill-opacity:1"
     d="M 3,1 C 1.8920011,1 1,1.8920011 1,3 V 4 C 1,2.8920011 1.8920011,2 3,2 h 10 c 1.107999,0 2,0.8920011 2,2 V 3 C 15,1.8920011 14.107999,1 13,1 Z"
     sodipodi:nodetypes="sscsscsss" />
  <path
     d="M 3,15 C 1.8920011,15 1,14.107999 1,13 v -1 c 0,1.107999 0.8920011,2 2,2 h 10 c 1.107999,0 2,-0.892001 2,-2 v 1 c 0,1.107999 -0.892001,2 -2,2 z"
     style="opacity:0.3;fill:#ffffff;fill-opacity:1"
     id="path19648" />
  <path
     id="rect899"
     style="opacity:0.5;fill:#000000;stroke:none"
     d="M 3,0 C 1.3380017,0 0,1.3380017 0,3 v 10 c 0,1.661998 1.3380017,3 3,3 h 10 c 1.661998,0 3,-1.338002 3,-3 V 3 C 16,1.3380017 14.661998,0 13,0 Z m 0,1 h 10 c 1.107999,0 2,0.8920011 2,2 v 10 c 0,1.107999 -0.892001,2 -2,2 H 3 C 1.8920011,15 1,14.107999 1,13 V 3 C 1,1.8920011 1.8920011,1 3,1 Z" />
</svg>
