<?xml version="1.0" encoding="UTF-8" standalone="no"?>
<!-- Created with Inkscape (http://www.inkscape.org/) -->

<svg
   width="16"
   height="16"
   viewBox="0 0 16 16"
   version="1.1"
   id="svg5"
   sodipodi:docname="winefile.svg"
   inkscape:version="1.2.1 (9c6d41e410, 2022-07-14)"
   xmlns:inkscape="http://www.inkscape.org/namespaces/inkscape"
   xmlns:sodipodi="http://sodipodi.sourceforge.net/DTD/sodipodi-0.dtd"
   xmlns:xlink="http://www.w3.org/1999/xlink"
   xmlns="http://www.w3.org/2000/svg"
   xmlns:svg="http://www.w3.org/2000/svg">
  <sodipodi:namedview
     id="namedview7"
     pagecolor="#ffffff"
     bordercolor="#666666"
     borderopacity="1.0"
     inkscape:showpageshadow="2"
     inkscape:pageopacity="0.0"
     inkscape:pagecheckerboard="0"
     inkscape:deskcolor="#d1d1d1"
     inkscape:document-units="px"
     showgrid="false"
     inkscape:zoom="49.375"
     inkscape:cx="7.9898734"
     inkscape:cy="8"
     inkscape:window-width="1920"
     inkscape:window-height="1002"
     inkscape:window-x="0"
     inkscape:window-y="0"
     inkscape:window-maximized="1"
     inkscape:current-layer="svg5" />
  <defs
     id="defs2">
    <linearGradient
       inkscape:collect="always"
       xlink:href="#linearGradient1093"
       id="linearGradient19638"
       x1="13"
       y1="16"
       x2="3"
       y2="0"
       gradientUnits="userSpaceOnUse" />
    <linearGradient
       inkscape:collect="always"
       id="linearGradient1093">
      <stop
         style="stop-color:#981b1b;stop-opacity:1;"
         offset="0"
         id="stop1089" />
      <stop
         style="stop-color:#c75349;stop-opacity:1;"
         offset="1"
         id="stop1091" />
    </linearGradient>
  </defs>
  <rect
     style="fill:url(#linearGradient19638);fill-opacity:1.0;stroke:none"
     id="rect184"
     width="15"
     height="15"
     x="0.5"
     y="0.5"
     ry="2.5" />
  <path
     d="m 4.000079,3.9998868 c -0.554,0 -1,0.4460004 -1,1.0000001 V 12 c 0,0.554 0.446,1 1,1 h 8 c 0.554,0 1,-0.446 1,-1 V 6.9997738 c 0,-0.5539991 -0.446,-1.0000159 -1,-1.0000002 L 7.99998,5.9998866 7.000079,4.4998868 c -0.344345,-0.3146677 -0.446,-0.5 -1,-0.5 z"
     style="opacity:0.2;fill:#000000;fill-opacity:1;stroke-width:0.5"
     id="path14031"
     sodipodi:nodetypes="ssssssssccss" />
  <path
     d="m 4.000079,3 c -0.553999,0 -1,0.4460004 -1,0.9999999 V 11 c 0,0.554 0.446001,1 1,1 h 8 c 0.554,0 1,-0.446 1,-1 V 5.9999998 c 0,-0.5539989 -0.446,-1 -1,-1 H 7.99998 L 7.000079,3.5 c -0.344345,-0.3146678 -0.446,-0.5 -1,-0.5 z"
     style="fill:#f5d1d1;fill-opacity:1;stroke-width:0.5"
     id="path10731"
     sodipodi:nodetypes="ssssssssccss" />
  <path
     id="path15912"
     style="opacity:0.1;fill:#000000;fill-opacity:1;stroke-width:0.5"
     d="M 7.599609,4.3993712 6.999852,4.9989998 H 4 c -0.552283,0 -1,0.4477179 -1,1.0000002 v 2 c 0,0.553996 0.4493913,0.938823 1,1 l 9,0.999981 V 6.0009337 c 0,-0.5539988 -0.446001,-1 -1,-1 H 8 Z"
     sodipodi:nodetypes="ccsssscsscc" />
  <path
     d="M 7.99998,4.9999998 6.999852,5.9999999 H 4.000079 c -0.552284,0 -1,0.4477162 -1,1.0000001 v 4 c 0,0.553998 0.446001,1 1,1 h 7.999546 c 0.553999,0 1,-0.446002 1,-1 V 5.9999999 c 0,-0.5539989 -0.446001,-1 -1,-1 z"
     style="fill:#ffffff;fill-opacity:1;stroke-width:0.5"
     id="path14427"
     sodipodi:nodetypes="ccssssssssc" />
  <path
     id="rect2630"
     style="opacity:0.3;fill:#ffffff;fill-opacity:1"
     d="M 3,1 C 1.8920011,1 1,1.8920011 1,3 V 4 C 1,2.8920011 1.8920011,2 3,2 h 10 c 1.107999,0 2,0.8920011 2,2 V 3 C 15,1.8920011 14.107999,1 13,1 Z"
     sodipodi:nodetypes="sscsscsss" />
  <path
     d="M 3,15 C 1.8920011,15 1,14.107999 1,13 v -1 c 0,1.107999 0.8920011,2 2,2 h 10 c 1.107999,0 2,-0.892001 2,-2 v 1 c 0,1.107999 -0.892001,2 -2,2 z"
     style="opacity:0.3;fill:#ffffff;fill-opacity:1"
     id="path19648" />
  <path
     id="rect899"
     style="opacity:0.5;fill:#000000;stroke:none"
     d="M 3,0 C 1.3380017,0 0,1.3380017 0,3 v 10 c 0,1.661998 1.3380017,3 3,3 h 10 c 1.661998,0 3,-1.338002 3,-3 V 3 C 16,1.3380017 14.661998,0 13,0 Z m 0,1 h 10 c 1.107999,0 2,0.8920011 2,2 v 10 c 0,1.107999 -0.892001,2 -2,2 H 3 C 1.8920011,15 1,14.107999 1,13 V 3 C 1,1.8920011 1.8920011,1 3,1 Z" />
</svg>
