<?xml version="1.0" encoding="UTF-8" standalone="no"?>
<!-- Created with Inkscape (http://www.inkscape.org/) -->

<svg
   width="16"
   height="16"
   viewBox="0 0 16 16"
   version="1.1"
   id="svg5"
   sodipodi:docname="winecfg.svg"
   inkscape:version="1.2.1 (9c6d41e410, 2022-07-14)"
   xmlns:inkscape="http://www.inkscape.org/namespaces/inkscape"
   xmlns:sodipodi="http://sodipodi.sourceforge.net/DTD/sodipodi-0.dtd"
   xmlns:xlink="http://www.w3.org/1999/xlink"
   xmlns="http://www.w3.org/2000/svg"
   xmlns:svg="http://www.w3.org/2000/svg">
  <sodipodi:namedview
     id="namedview7"
     pagecolor="#ffffff"
     bordercolor="#666666"
     borderopacity="1.0"
     inkscape:showpageshadow="2"
     inkscape:pageopacity="0.0"
     inkscape:pagecheckerboard="0"
     inkscape:deskcolor="#d1d1d1"
     inkscape:document-units="px"
     showgrid="false"
     inkscape:zoom="49.375"
     inkscape:cx="7.9898734"
     inkscape:cy="8"
     inkscape:window-width="1920"
     inkscape:window-height="1002"
     inkscape:window-x="0"
     inkscape:window-y="0"
     inkscape:window-maximized="1"
     inkscape:current-layer="svg5" />
  <defs
     id="defs2">
    <linearGradient
       inkscape:collect="always"
       xlink:href="#linearGradient1093"
       id="linearGradient19638"
       x1="13"
       y1="16"
       x2="3"
       y2="0"
       gradientUnits="userSpaceOnUse" />
    <linearGradient
       inkscape:collect="always"
       id="linearGradient1093">
      <stop
         style="stop-color:#981b1b;stop-opacity:1;"
         offset="0"
         id="stop1089" />
      <stop
         style="stop-color:#c75349;stop-opacity:1;"
         offset="1"
         id="stop1091" />
    </linearGradient>
  </defs>
  <rect
     style="fill:url(#linearGradient19638);fill-opacity:1.0;stroke:none"
     id="rect184"
     width="15"
     height="15"
     x="0.5"
     y="0.5"
     ry="2.5" />
  <path
     id="path529"
     style="opacity:0.2;fill:#000000;stroke-width:1.25"
     d="M 6.7500781,4 6.6407031,5.3183594 C 6.2230145,5.4725072 5.8348753,5.6961438 5.4922656,5.9804688 L 4.295,5.4179688 3.045,7.5820312 4.1328906,8.3378906 C 4.0937706,8.556589 4.0720406,8.7778388 4.0703906,9 c 2.67e-4,0.2229012 0.020594,0.4444237 0.058594,0.6640625 l -1.0839843,0.7539065 1.25,2.164062 1.1933593,-0.5625 c 0.3431727,0.283562 0.7324341,0.506894 1.1503907,0.660157 L 6.7500781,14 h 2.5 l 0.109375,-1.318359 c 0.4176886,-0.15415 0.8058269,-0.377785 1.1484369,-0.66211 l 1.197266,0.5625 1.25,-2.164062 -1.08789,-0.7558596 C 11.906386,9.4434072 11.928116,9.2221612 11.929766,9 11.929498,8.7770988 11.909176,8.5555766 11.871176,8.3359375 l 1.083984,-0.7539063 -1.25,-2.1640624 -1.193359,0.5625 C 10.168625,5.6969054 9.7793628,5.4735752 9.3614062,5.3203125 L 9.2500781,4 Z m 1.25,3 a 2,2 0 0 1 1.9999999,2 2,2 0 0 1 -1.9999999,2 2,2 0 0 1 -2,-2 2,2 0 0 1 2,-2 z" />
  <path
     id="path892"
     style="fill:#ffffff;stroke-width:1.25"
     d="M 6.7500781,3 6.6407031,4.3183594 C 6.223014,4.4725072 5.8348761,4.6961438 5.4922656,4.9804688 L 4.295,4.4179688 3.045,6.5820312 4.1328906,7.3378906 C 4.0937726,7.556589 4.0720426,7.7778388 4.0703906,8 c 2.676e-4,0.2229012 0.020594,0.4444237 0.058594,0.6640625 l -1.0839843,0.7539063 1.25,2.1640622 1.1933593,-0.5625 c 0.3431732,0.283562 0.7324336,0.506894 1.1503907,0.660157 L 6.7500781,13 h 2.5 l 0.109375,-1.318359 c 0.4176884,-0.15415 0.8058269,-0.377785 1.1484369,-0.66211 l 1.197266,0.5625 1.25,-2.1640622 -1.08789,-0.7558594 C 11.906386,8.4434072 11.928116,8.2221612 11.929766,8 11.929498,7.7770988 11.909176,7.5555766 11.871176,7.3359375 l 1.083984,-0.7539063 -1.25,-2.1640624 -1.193359,0.5625 C 10.168624,4.6969054 9.7793629,4.4735752 9.3614062,4.3203125 L 9.2500781,3 Z m 1.25,3 A 2,2 0 0 1 10.000078,8 2,2 0 0 1 8.0000781,9.9999996 2,2 0 0 1 6.0000781,8 a 2,2 0 0 1 2,-2 z" />
  <path
     id="rect2630"
     style="opacity:0.3;fill:#ffffff;fill-opacity:1"
     d="M 3,1 C 1.8920011,1 1,1.8920011 1,3 V 4 C 1,2.8920011 1.8920011,2 3,2 h 10 c 1.107999,0 2,0.8920011 2,2 V 3 C 15,1.8920011 14.107999,1 13,1 Z"
     sodipodi:nodetypes="sscsscsss" />
  <path
     d="M 3,15 C 1.8920011,15 1,14.107999 1,13 v -1 c 0,1.107999 0.8920011,2 2,2 h 10 c 1.107999,0 2,-0.892001 2,-2 v 1 c 0,1.107999 -0.892001,2 -2,2 z"
     style="opacity:0.3;fill:#ffffff;fill-opacity:1"
     id="path19648" />
  <path
     id="rect899"
     style="opacity:0.5;fill:#000000;stroke:none"
     d="M 3,0 C 1.3380017,0 0,1.3380017 0,3 v 10 c 0,1.661998 1.3380017,3 3,3 h 10 c 1.661998,0 3,-1.338002 3,-3 V 3 C 16,1.3380017 14.661998,0 13,0 Z m 0,1 h 10 c 1.107999,0 2,0.8920011 2,2 v 10 c 0,1.107999 -0.892001,2 -2,2 H 3 C 1.8920011,15 1,14.107999 1,13 V 3 C 1,1.8920011 1.8920011,1 3,1 Z" />
</svg>
