<?xml version="1.0" encoding="UTF-8" standalone="no"?>
<!-- Created with Inkscape (http://www.inkscape.org/) -->

<svg
   width="16"
   height="16"
   viewBox="0 0 16 16"
   version="1.1"
   id="svg5"
   sodipodi:docname="yast-control-center.svg"
   inkscape:version="1.2.1 (9c6d41e410, 2022-07-14)"
   xmlns:inkscape="http://www.inkscape.org/namespaces/inkscape"
   xmlns:sodipodi="http://sodipodi.sourceforge.net/DTD/sodipodi-0.dtd"
   xmlns:xlink="http://www.w3.org/1999/xlink"
   xmlns="http://www.w3.org/2000/svg"
   xmlns:svg="http://www.w3.org/2000/svg">
  <sodipodi:namedview
     id="namedview7"
     pagecolor="#ffffff"
     bordercolor="#666666"
     borderopacity="1.0"
     inkscape:showpageshadow="2"
     inkscape:pageopacity="0.0"
     inkscape:pagecheckerboard="0"
     inkscape:deskcolor="#d1d1d1"
     inkscape:document-units="px"
     showgrid="false"
     inkscape:zoom="17.456699"
     inkscape:cx="3.6662144"
     inkscape:cy="11.514205"
     inkscape:window-width="1920"
     inkscape:window-height="1012"
     inkscape:window-x="0"
     inkscape:window-y="0"
     inkscape:window-maximized="1"
     inkscape:current-layer="svg5" />
  <defs
     id="defs2">
    <linearGradient
       inkscape:collect="always"
       id="linearGradient43829">
      <stop
         style="stop-color:#376d67;stop-opacity:1;"
         offset="0"
         id="stop43825" />
      <stop
         style="stop-color:#6cb086;stop-opacity:1;"
         offset="1"
         id="stop43827" />
    </linearGradient>
    <linearGradient
       inkscape:collect="always"
       xlink:href="#linearGradient43829"
       id="linearGradient19638"
       x1="13"
       y1="16"
       x2="3"
       y2="0"
       gradientUnits="userSpaceOnUse" />
  </defs>
  <rect
     style="fill:url(#linearGradient19638);fill-opacity:1.0;stroke:none"
     id="rect184"
     width="15"
     height="15"
     x="0.5"
     y="0.5"
     ry="2.5" />
  <path
     id="path1237"
     style="display:inline;opacity:0.2;fill:#000000;fill-opacity:1;stroke:none;enable-background:new"
     d="M 7.5,4 C 7.223,4 7,4.223001 7,4.4999999 v 1.15625 c -0.2317,0.0685 -0.447301,0.16882 -0.65625,0.28125 l -0.8125,-0.8125 c -0.19587,-0.19587 -0.522881,-0.19587 -0.71875,0 l -0.6875,0.6875 c -0.19587,0.1958701 -0.19587,0.52288 0,0.71875 l 0.8125,0.8125 c -0.11243,0.20895 -0.21277,0.42455 -0.28125,0.65625 H 3.5 C 3.223,7.9999999 3,8.2230009 3,8.5 v 1 C 3,9.7769999 3.223,10 3.5,10 h 1.15625 c 0.0685,0.2317 0.16882,0.4473 0.28125,0.65625 l -0.8125,0.8125 c -0.19587,0.19587 -0.19587,0.52288 0,0.71875 l 0.6875,0.6875 c 0.195869,0.19587 0.52288,0.19587 0.71875,0 l 0.8125,-0.8125 C 6.552699,12.17493 6.7683,12.27527 7,12.34375 V 13.5 C 7,13.777 7.223,14 7.5,14 h 1 c 0.2769988,0 0.4999998,-0.223 0.4999998,-0.5 v -1.15625 c 0.231699,-0.0685 0.4473,-0.16882 0.65625,-0.28125 L 10.46875,12.875 c 0.195869,0.19587 0.52288,0.19587 0.71875,0 l 0.6875,-0.6875 c 0.195869,-0.19587 0.195869,-0.52288 0,-0.71875 l -0.8125,-0.8125 C 11.17493,10.4473 11.27527,10.2317 11.34375,10 H 12.5 C 12.776999,10 13,9.7769999 13,9.5 v -1 C 13,8.2230009 12.776999,7.9999999 12.5,7.9999999 h -1.15625 c -0.0685,-0.2317 -0.16882,-0.4473 -0.28125,-0.65625 l 0.8125,-0.8125 c 0.195869,-0.19587 0.195869,-0.5228799 0,-0.71875 l -0.6875,-0.6875 c -0.19587,-0.19587 -0.522881,-0.19587 -0.71875,0 l -0.8125002,0.8125 c -0.20895,-0.11243 -0.424551,-0.2127699 -0.65625,-0.28125 v -1.15625 C 8.9999998,4.223001 8.7769988,4 8.5,4 Z M 8,6.9999999 c 1.1045688,0 1.9999998,0.895431 1.9999998,2.0000001 0,1.104569 -0.895431,2 -1.9999998,2 C 6.895431,11 6,10.104569 6,9 6,8.8619299 6.0051,8.72395 6.03125,8.59375 6.217789,7.682381 7.033501,6.9999999 8,6.9999999 Z" />
  <path
     id="path429"
     style="display:inline;fill:#ffffff;fill-opacity:1;stroke:none;enable-background:new"
     d="M 7.5,3 C 7.223,3 7,3.223001 7,3.5 v 1.1562499 c -0.2317,0.0685 -0.447301,0.16882 -0.65625,0.28125 L 5.53125,4.125 C 5.33538,3.9291299 5.008369,3.9291299 4.8125,4.125 L 4.125,4.8124999 c -0.19587,0.1958701 -0.19587,0.52288 0,0.71875 l 0.8125,0.8125 c -0.11243,0.20895 -0.21277,0.42455 -0.28125,0.65625 H 3.5 c -0.277,0 -0.5,0.223001 -0.5,0.5 V 8.5 C 3,8.7769999 3.223,9 3.5,9 h 1.15625 c 0.0685,0.2317 0.16882,0.4473 0.28125,0.65625 l -0.8125,0.8125 c -0.19587,0.19587 -0.19587,0.52288 0,0.71875 l 0.6875,0.6875 c 0.195869,0.19587 0.52288,0.19587 0.71875,0 l 0.8125,-0.8125 C 6.552699,11.17493 6.7683,11.27527 7,11.34375 V 12.5 C 7,12.777 7.223,13 7.5,13 h 1 c 0.2769988,0 0.4999998,-0.223 0.4999998,-0.5 v -1.15625 c 0.231699,-0.0685 0.4473,-0.16882 0.65625,-0.28125 L 10.46875,11.875 c 0.195869,0.19587 0.52288,0.19587 0.71875,0 l 0.6875,-0.6875 c 0.195869,-0.19587 0.195869,-0.52288 0,-0.71875 L 11.0625,9.65625 C 11.17493,9.4473 11.27527,9.2317 11.34375,9 H 12.5 C 12.776999,9 13,8.7769999 13,8.5 V 7.4999999 c 0,-0.276999 -0.223001,-0.5 -0.5,-0.5 h -1.15625 c -0.0685,-0.2317 -0.16882,-0.4473 -0.28125,-0.65625 l 0.8125,-0.8125 c 0.195869,-0.19587 0.195869,-0.5228799 0,-0.71875 L 11.1875,4.125 c -0.19587,-0.1958701 -0.522881,-0.1958701 -0.71875,0 L 9.6562498,4.9374999 c -0.20895,-0.11243 -0.424551,-0.2127699 -0.65625,-0.28125 V 3.5 C 8.9999998,3.223001 8.7769988,3 8.5,3 Z M 8,5.9999999 c 1.1045688,0 1.9999998,0.895431 1.9999998,2 C 9.9999998,9.1045689 9.1045688,10 8,10 6.895431,10 6,9.1045689 6,7.9999999 6,7.86193 6.0051,7.7239499 6.03125,7.5937499 6.217789,6.682381 7.033501,5.9999999 8,5.9999999 Z" />
  <path
     id="rect2630"
     style="opacity:0.3;fill:#ffffff;fill-opacity:1"
     d="M 3,1 C 1.8920011,1 1,1.8920011 1,3 V 4 C 1,2.8920011 1.8920011,2 3,2 h 10 c 1.107999,0 2,0.8920011 2,2 V 3 C 15,1.8920011 14.107999,1 13,1 Z"
     sodipodi:nodetypes="sscsscsss" />
  <path
     d="M 3,15 C 1.8920011,15 1,14.107999 1,13 v -1 c 0,1.107999 0.8920011,2 2,2 h 10 c 1.107999,0 2,-0.892001 2,-2 v 1 c 0,1.107999 -0.892001,2 -2,2 z"
     style="opacity:0.3;fill:#ffffff;fill-opacity:1"
     id="path19648" />
  <path
     id="rect899"
     style="opacity:0.5;fill:#000000;stroke:none"
     d="M 3,0 C 1.3380017,0 0,1.3380017 0,3 v 10 c 0,1.661998 1.3380017,3 3,3 h 10 c 1.661998,0 3,-1.338002 3,-3 V 3 C 16,1.3380017 14.661998,0 13,0 Z m 0,1 h 10 c 1.107999,0 2,0.8920011 2,2 v 10 c 0,1.107999 -0.892001,2 -2,2 H 3 C 1.8920011,15 1,14.107999 1,13 V 3 C 1,1.8920011 1.8920011,1 3,1 Z" />
</svg>
