<?xml version="1.0" encoding="UTF-8" standalone="no"?>
<!-- Created with Inkscape (http://www.inkscape.org/) -->

<svg
   width="16"
   height="16"
   viewBox="0 0 16 16"
   version="1.1"
   id="svg5"
   sodipodi:docname="yast.svg"
   inkscape:version="1.2.1 (9c6d41e410, 2022-07-14)"
   xmlns:inkscape="http://www.inkscape.org/namespaces/inkscape"
   xmlns:sodipodi="http://sodipodi.sourceforge.net/DTD/sodipodi-0.dtd"
   xmlns:xlink="http://www.w3.org/1999/xlink"
   xmlns="http://www.w3.org/2000/svg"
   xmlns:svg="http://www.w3.org/2000/svg">
  <sodipodi:namedview
     id="namedview7"
     pagecolor="#ffffff"
     bordercolor="#666666"
     borderopacity="1.0"
     inkscape:showpageshadow="2"
     inkscape:pageopacity="0.0"
     inkscape:pagecheckerboard="0"
     inkscape:deskcolor="#d1d1d1"
     inkscape:document-units="px"
     showgrid="false"
     inkscape:zoom="49.375"
     inkscape:cx="7.9898734"
     inkscape:cy="8"
     inkscape:window-width="1920"
     inkscape:window-height="1002"
     inkscape:window-x="0"
     inkscape:window-y="0"
     inkscape:window-maximized="1"
     inkscape:current-layer="svg5" />
  <defs
     id="defs2">
    <linearGradient
       inkscape:collect="always"
       id="linearGradient4246">
      <stop
         style="stop-color:#23aea1;stop-opacity:1;"
         offset="0"
         id="stop4242" />
      <stop
         style="stop-color:#49c77c;stop-opacity:1;"
         offset="1"
         id="stop4244" />
    </linearGradient>
    <linearGradient
       inkscape:collect="always"
       xlink:href="#linearGradient4246"
       id="linearGradient19638"
       x1="13"
       y1="16"
       x2="3"
       y2="0"
       gradientUnits="userSpaceOnUse" />
  </defs>
  <rect
     style="fill:url(#linearGradient19638);fill-opacity:1.0;stroke:none"
     id="rect184"
     width="15"
     height="15"
     x="0.5"
     y="0.5"
     ry="2.5" />
  <path
     d="M 4.6302937,4 5.0564544,5.0005005 6.0984456,6.1906699 C 5.7605988,6.2440139 5.4600931,6.3346992 5.1767759,6.443166 5.016743,6.520219 4.863823,6.6031985 4.7784719,6.7721221 L 4.5188633,7.2320679 c -0.083573,0.1689236 -0.260794,0.1968482 -0.434459,0.333765 L 3.3731482,8.1212055 C 3.514806,8.1899605 3.6416471,8.2800526 3.7584118,8.3867416 3.6327564,8.3173936 3.5106575,8.2444898 3.3642575,8.2059637 3.2623103,8.1899597 3.1615492,8.1911497 3.0684928,8.2652347 c -0.083573,0.069348 -0.074089,0.186705 -0.0569,0.2963568 0.032004,0.1695164 0.1736654,0.3200657 0.3348833,0.4338668 0.1499568,0.066976 0.2880589,0.032596 0.4208268,-0.045639 0.114986,-0.1066885 0.1618103,-0.293986 0.1475853,-0.5500382 0.082979,-0.015411 0.064605,0.4783197 0.079424,0.4220122 0.00771,-0.030229 1.2192117,-0.7430572 1.53987,-0.8183322 C 5.8613599,7.9192961 6.3716867,7.9992511 6.7409475,7.8842586 6.9703275,7.8107616 7.1380654,7.74358 7.2803168,7.5248682 L 7.1659229,7.7678808 C 7.0803943,7.9061401 6.94642,8.0075719 6.7901425,8.0523833 l -0.7880796,2.1882987 -0.00415,2.115988 -0.3759776,0.533443 0.243605,-0.0083 0.259609,-0.343181 -0.190854,0.410751 c 0,0 1.248848,-0.08357 1.248848,-0.07468 0,0.0089 -0.3852643,-2.530887 -0.3852643,-2.530887 0,0 0.4172708,-0.4664655 0.4261615,-0.4729855 0.00889,-0.00711 1.926463,0.5121045 1.926463,0.5121045 l -0.2335296,-0.275611 -0.1920393,-0.106096 0.2329368,0.07705 c 0,0 0.5411476,0.655541 0.5435183,0.665025 0.00236,0.0089 0.096613,-0.11795 0.096613,-0.11795 l -0.5666339,2.299728 0.7527459,0.256646 -0.0237,-0.35148 0.180185,0.436238 0.2767963,0.01837 -0.187298,-0.454607 0.325993,0.395933 0.178999,-0.03556 -0.322436,-0.464092 0.376374,-2.240457 L 10.155161,10.14348 9.8190937,9.6930182 10.137379,10.017233 9.7924207,9.5258728 9.7651507,8.8768513 9.8860647,9.4357806 10.01646,8.976427 9.94889,9.5128331 l 0.250718,0.5500379 0.501436,0.37341 -0.0095,0.08595 0.594909,-0.144623 L 11.54132,9.8014913 11.56325,9.4446777 11.6,9.8062331 c 0,0 -0.219304,0.5310709 -0.219304,0.5494449 0,0.01778 0.28628,-0.270869 0.28628,-0.270869 l -0.314138,0.369852 0.502029,0.905667 0.170109,0.987461 0.125062,-0.0895 -0.02668,0.03556 -0.403045,0.52633 0.26435,-0.05749 0.102539,-0.162404 -0.04504,0.197967 0.09424,0.0047 -0.02193,0.216341 0.196781,-0.176036 0.146993,0.04563 0.04564,-0.262572 v 0.266721 l 0.138102,-0.02727 0.06697,0.225232 0.09839,-0.28391 0.192632,-0.0089 C 12.816264,11.404134 12.573251,10.188623 12.508053,8.7945604 12.50091,8.5290246 12.27808,8.45954 12.03803,8.1525142 11.757672,7.8295308 11.185111,7.1390193 10.372501,6.9452021 9.9291515,6.8924503 9.4775039,6.96417 8.9855513,7.1247939 8.5504995,7.2522279 8.1012219,6.8290228 7.6128262,7.0631443 c 0.1149864,0.1884832 0.2673139,0.37341 0.5269225,0.5927136 0.081202,0.079424 0.2276022,0.101354 0.3716315,0.090093 -0.099576,0.035564 -0.2021154,0.065198 -0.3093965,0.00889 C 8.027133,7.6363008 7.8831037,7.4881222 7.745594,7.3316457 7.6619308,7.2278257 7.591269,7.11417 7.5351804,6.9932064 7.4522008,6.8047235 7.5500019,6.5652671 7.7100312,6.3080292 7.8552462,6.1296224 8.0152787,5.9553645 8.3406788,5.830302 8.6334791,5.7135373 8.9274653,5.596773 9.2054478,5.4426673 9.5195855,5.2387737 10.021021,4.5891593 10.287743,4.1351407 9.5610755,4.4018622 8.835002,4.615239 8.1124837,5.0408072 7.8422062,5.2263266 7.5772633,5.5137927 7.3069861,5.8113352 7.1919993,5.941732 7.0675293,6.0638313 6.9039404,6.1503674 6.6793021,6.2706881 6.5246039,6.156296 6.4208792,6.0644242 6.2601314,5.8904327 6.1177228,5.7003541 5.995906,5.4971948 5.8358731,5.2778908 5.6681356,5.0579937 5.422752,4.8386901 5.1406202,4.5767104 4.8863462,4.2744261 4.6302937,4 Z M 9.227381,4.7189615 8.5872502,5.4960091 9.0217099,5.3454598 8.1474566,5.773992 Z M 6.1909089,6.3412192 c 0.056308,-0.00121 0.1126153,0 0.1671453,0.00593 -0.3538504,0.027266 -0.5156611,0.088313 -0.8226868,0.245975 0.1126157,-0.085944 0.176036,-0.1499564 0.3787443,-0.2193043 0.088907,-0.019557 0.1831486,-0.030821 0.2767972,-0.032596 z m 0.09839,0.4883958 C 6.4641493,6.832545 6.5826925,6.909631 6.5826925,6.909631 6.1950575,6.8053135 5.9822732,6.891849 5.8163132,7.145531 5.7967562,7.129527 5.9265582,6.9090385 6.0984453,6.8568796 c 0.068755,-0.020743 0.1327679,-0.02845 0.1908536,-0.027268 z m -0.029636,0.1303975 c 0.036777,-0.00154 0.073602,0.00146 0.1096518,0.00889 0.072311,0.025486 0.1055029,0.079423 0.1410657,0.1303968 -0.075275,-0.066384 -0.15292,-0.1185425 -0.2471614,-0.094242 0.1066886,0.011854 0.1464004,0.078831 0.1618111,0.1665529 0.013039,0.11795 -0.088315,0.1872975 -0.1558843,0.1973736 -0.067569,0.010079 -0.154105,-0.00711 -0.2038933,-0.080016 -0.014229,-0.029636 -0.052159,-0.138695 0.0083,-0.2163407 -0.066024,0.026861 -0.1266615,0.065413 -0.1789997,0.1138011 0.045639,-0.066384 0.1013539,-0.1185429 0.1855193,-0.1742575 0.054769,-0.031729 0.1163647,-0.04982 0.1795922,-0.052752 z M 3.3992267,8.3920759 c 0.090685,0.107281 0.1789997,0.2104132 0.2222679,0.3526643 0.00593,0.1315825 -0.052159,0.1286189 -0.1090593,0.1280268 -0.047417,-5.714e-4 -0.13751,-0.05453 -0.1084668,-0.098391 0.028036,-0.056955 0.039925,-0.1205033 0.034379,-0.1837415 z m -0.3319193,0.032596 c 0.071125,0.074682 0.1410658,0.12447 0.154105,0.2287875 0.00534,0.024893 0.010079,0.086537 -0.03912,0.077053 C 3.0388556,8.5947812 3.1253924,8.6095991 3.0678985,8.4246723 Z"
     style="fill:#000000;opacity:0.2"
     id="path2340" />
  <path
     d="M 4.6302937,3 5.0564544,4.0005005 6.0984456,5.1906699 C 5.7605988,5.2440138 5.4600931,5.3346992 5.1767759,5.443166 5.016743,5.5202189 4.863823,5.6031985 4.7784719,5.7721221 L 4.5188633,6.2320679 c -0.083573,0.1689236 -0.260794,0.1968482 -0.434459,0.333765 L 3.3731482,7.1212055 C 3.514806,7.1899605 3.6416471,7.2800526 3.7584118,7.3867416 3.6327564,7.3173937 3.5106575,7.2444898 3.3642575,7.2059637 3.2623103,7.1899601 3.1615492,7.1911494 3.0684928,7.2652348 c -0.083573,0.069348 -0.074089,0.186705 -0.0569,0.2963568 0.032004,0.1695164 0.1736654,0.3200657 0.3348833,0.4338668 0.1499568,0.066976 0.2880589,0.032596 0.4208268,-0.045639 0.114986,-0.1066885 0.1618103,-0.293986 0.1475853,-0.5500382 0.082979,-0.015411 0.064605,0.4783197 0.079424,0.4220122 0.00771,-0.030229 1.2192117,-0.7430572 1.53987,-0.8183322 0.3271777,-0.084165 0.8375045,-0.00421 1.2067653,-0.1192025 0.22938,-0.073497 0.3971179,-0.1406786 0.5393693,-0.3593904 L 7.1659229,6.7678808 C 7.0803943,6.9061401 6.94642,7.0075719 6.7901425,7.0523833 l -0.7880796,2.1882991 -0.00415,2.1159876 -0.3759776,0.533443 0.243605,-0.0083 0.259609,-0.343181 -0.190854,0.410751 c 0,0 1.248848,-0.08357 1.248848,-0.07468 0,0.0089 -0.3852643,-2.5308866 -0.3852643,-2.5308866 0,0 0.4172708,-0.4664659 0.4261615,-0.4729859 0.00889,-0.00711 1.926463,0.5121049 1.926463,0.5121049 L 8.9169739,9.1073244 8.7249346,9.0012282 8.9578714,9.0782807 c 0,0 0.5411476,0.6555415 0.5435183,0.6650255 0.00236,0.0089 0.096613,-0.1179498 0.096613,-0.1179498 l -0.5666339,2.2997276 0.7527459,0.256646 -0.0237,-0.35148 0.180185,0.436238 0.2767963,0.01837 -0.187298,-0.454607 0.325993,0.395933 0.178999,-0.03556 L 10.212654,11.726529 10.589028,9.4860724 10.155161,9.1434804 9.8190937,8.6930182 10.137379,9.0172325 9.7924207,8.5258728 9.7651507,7.8768513 9.8860647,8.4357806 10.01646,7.976427 9.94889,8.5128331 l 0.250718,0.5500383 0.501436,0.37341 -0.0095,0.08595 0.594909,-0.144623 L 11.54132,8.8014913 11.56325,8.4446777 11.6,8.8062331 c 0,0 -0.219304,0.5310713 -0.219304,0.5494453 0,0.01778 0.28628,-0.2708699 0.28628,-0.2708699 l -0.314138,0.3698529 0.502029,0.9056666 0.170109,0.987461 0.125062,-0.0895 -0.02668,0.03556 -0.403045,0.52633 0.26435,-0.05749 0.102539,-0.162404 -0.04504,0.197967 0.09424,0.0047 -0.02193,0.216341 0.196781,-0.176036 0.146993,0.04563 0.04564,-0.262572 v 0.266721 l 0.138102,-0.02727 0.06697,0.225232 0.09839,-0.28391 0.192632,-0.0089 C 12.816264,10.404134 12.573251,9.1886234 12.508053,7.7945604 12.50091,7.5290246 12.27808,7.45954 12.03803,7.1525142 11.757672,6.8295308 11.185111,6.1390193 10.372501,5.9452021 9.9291515,5.8924503 9.4775039,5.96417 8.9855513,6.1247939 8.5504995,6.2522279 8.1012219,5.8290228 7.6128262,6.0631443 c 0.1149864,0.1884832 0.2673139,0.37341 0.5269225,0.5927136 0.081202,0.079424 0.2276022,0.101354 0.3716315,0.090093 -0.099576,0.035564 -0.2021154,0.065198 -0.3093965,0.00889 C 8.027133,6.6363008 7.8831037,6.4881222 7.745594,6.3316457 7.6619308,6.2278257 7.591269,6.11417 7.5351804,5.9932064 7.4522008,5.8047235 7.5500019,5.5652671 7.7100312,5.3080292 7.8552462,5.1296224 8.0152787,4.9553645 8.3406788,4.830302 8.6334791,4.7135373 8.9274653,4.596773 9.2054478,4.4426673 9.5195855,4.2387737 10.021021,3.5891593 10.287743,3.1351407 9.5610755,3.4018622 8.835002,3.615239 8.1124837,4.0408072 7.8422062,4.2263266 7.5772633,4.5137927 7.3069861,4.8113352 7.1919993,4.941732 7.0675293,5.0638313 6.9039404,5.1503674 6.6793021,5.2706881 6.5246039,5.156296 6.4208792,5.0644242 6.2601314,4.8904327 6.1177228,4.7003541 5.995906,4.4971948 5.8358731,4.2778908 5.6681356,4.0579937 5.422752,3.8386901 5.1406202,3.5767104 4.8863462,3.2744261 4.6302937,3 Z M 9.227381,3.7189615 8.5872502,4.4960091 9.0217099,4.3454598 8.1474566,4.773992 Z M 6.1909089,5.3412192 c 0.056308,-0.00121 0.1126153,0 0.1671453,0.00593 -0.3538504,0.027266 -0.5156611,0.088313 -0.8226868,0.245975 0.1126157,-0.085944 0.176036,-0.1499564 0.3787443,-0.2193043 0.088907,-0.019557 0.1831486,-0.030821 0.2767972,-0.032596 z m 0.09839,0.4883958 C 6.4641493,5.832545 6.5826925,5.909631 6.5826925,5.909631 6.1950575,5.8053135 5.9822732,5.891849 5.8163132,6.145531 5.7967562,6.129527 5.9265582,5.9090385 6.0984453,5.8568796 c 0.068755,-0.020743 0.1327679,-0.02845 0.1908536,-0.027268 z m -0.029636,0.1303975 c 0.036777,-0.00154 0.073602,0.00146 0.1096518,0.00889 0.072311,0.025486 0.1055029,0.079423 0.1410657,0.1303968 -0.075275,-0.066384 -0.15292,-0.1185425 -0.2471614,-0.094242 0.1066886,0.011854 0.1464004,0.078831 0.1618111,0.1665529 0.013039,0.11795 -0.088315,0.1872975 -0.1558843,0.1973736 -0.067569,0.010079 -0.154105,-0.00711 -0.2038933,-0.080016 -0.014229,-0.029636 -0.052159,-0.138695 0.0083,-0.2163407 -0.066024,0.026861 -0.1266615,0.065413 -0.1789997,0.1138011 0.045639,-0.066384 0.1013539,-0.1185429 0.1855193,-0.1742575 0.054769,-0.031729 0.1163647,-0.04982 0.1795922,-0.052752 z M 3.3992267,7.3920759 c 0.090685,0.107281 0.1789997,0.2104132 0.2222679,0.3526643 0.00593,0.1315825 -0.052159,0.1286189 -0.1090593,0.1280268 -0.047417,-5.714e-4 -0.13751,-0.05453 -0.1084668,-0.098391 0.028036,-0.056955 0.039925,-0.1205033 0.034379,-0.1837415 z m -0.3319193,0.032596 c 0.071125,0.074682 0.1410658,0.12447 0.154105,0.2287875 0.00534,0.024893 0.010079,0.086537 -0.03912,0.077053 C 3.0388556,7.5947812 3.1253919,7.6095991 3.0678985,7.4246723 Z"
     style="fill:#ffffff"
     id="path2154"
     sodipodi:nodetypes="cccccccccccccccccccccccccccscccccccccccccccccccccccccccccccccsccccccccccccccccccccccccccccccccccccccccccccccccccccccccccccccccccccccccccccccccc" />
  <path
     id="rect2630"
     style="opacity:0.3;fill:#ffffff;fill-opacity:1"
     d="M 3,1 C 1.8920011,1 1,1.8920011 1,3 V 4 C 1,2.8920011 1.8920011,2 3,2 h 10 c 1.107999,0 2,0.8920011 2,2 V 3 C 15,1.8920011 14.107999,1 13,1 Z"
     sodipodi:nodetypes="sscsscsss" />
  <path
     d="M 3,15 C 1.8920011,15 1,14.107999 1,13 v -1 c 0,1.107999 0.8920011,2 2,2 h 10 c 1.107999,0 2,-0.892001 2,-2 v 1 c 0,1.107999 -0.892001,2 -2,2 z"
     style="opacity:0.3;fill:#ffffff;fill-opacity:1"
     id="path19648" />
  <path
     id="rect899"
     style="opacity:0.5;fill:#000000;stroke:none"
     d="M 3,0 C 1.3380017,0 0,1.3380017 0,3 v 10 c 0,1.661998 1.3380017,3 3,3 h 10 c 1.661998,0 3,-1.338002 3,-3 V 3 C 16,1.3380017 14.661998,0 13,0 Z m 0,1 h 10 c 1.107999,0 2,0.8920011 2,2 v 10 c 0,1.107999 -0.892001,2 -2,2 H 3 C 1.8920011,15 1,14.107999 1,13 V 3 C 1,1.8920011 1.8920011,1 3,1 Z" />
</svg>
