<?xml version="1.0" encoding="UTF-8" standalone="no"?>
<!-- Created with Inkscape (http://www.inkscape.org/) -->

<svg
   width="16"
   height="16"
   viewBox="0 0 16 16"
   version="1.1"
   id="svg5"
   sodipodi:docname="youtube.svg"
   inkscape:version="1.2.1 (9c6d41e410, 2022-07-14)"
   xmlns:inkscape="http://www.inkscape.org/namespaces/inkscape"
   xmlns:sodipodi="http://sodipodi.sourceforge.net/DTD/sodipodi-0.dtd"
   xmlns:xlink="http://www.w3.org/1999/xlink"
   xmlns="http://www.w3.org/2000/svg"
   xmlns:svg="http://www.w3.org/2000/svg">
  <sodipodi:namedview
     id="namedview7"
     pagecolor="#ffffff"
     bordercolor="#666666"
     borderopacity="1.0"
     inkscape:showpageshadow="2"
     inkscape:pageopacity="0.0"
     inkscape:pagecheckerboard="0"
     inkscape:deskcolor="#d1d1d1"
     inkscape:document-units="px"
     showgrid="false"
     inkscape:zoom="49.5"
     inkscape:cx="7.989899"
     inkscape:cy="8"
     inkscape:window-width="1920"
     inkscape:window-height="1007"
     inkscape:window-x="0"
     inkscape:window-y="0"
     inkscape:window-maximized="1"
     inkscape:current-layer="svg5" />
  <defs
     id="defs2">
    <linearGradient
       inkscape:collect="always"
       xlink:href="#linearGradient2538"
       id="linearGradient19638"
       x1="13"
       y1="16"
       x2="3"
       y2="0"
       gradientUnits="userSpaceOnUse" />
    <linearGradient
       inkscape:collect="always"
       id="linearGradient2538">
      <stop
         style="stop-color:#e02727;stop-opacity:1;"
         offset="0"
         id="stop2534" />
      <stop
         style="stop-color:#eb8075;stop-opacity:1;"
         offset="1"
         id="stop2536" />
    </linearGradient>
  </defs>
  <rect
     style="fill:url(#linearGradient19638);fill-opacity:1.0;stroke:none"
     id="rect184"
     width="15"
     height="15"
     x="0.5"
     y="0.5"
     ry="2.5" />
  <path
     id="path1893"
     style="opacity:0.2;fill:#000000;stroke-width:0.0943325"
     d="M 7.9589844 5 C 7.9589844 5 4.1462365 5.0010356 3.2480469 5.2363281 C 2.765861 5.3680884 2.3686929 5.7625439 2.2363281 6.2519531 C 1.9999625 7.1460684 2 9 2 9 C 2 9 1.9999625 10.863343 2.2363281 11.748047 C 2.3686935 12.237456 2.7564065 12.624097 3.2480469 12.755859 C 4.1556903 13.000565 7.9589844 13 7.9589844 13 C 7.9589844 13 11.853763 12.998965 12.751953 12.763672 C 13.243595 12.631912 13.631306 12.24722 13.763672 11.757812 C 14.000037 10.863695 14 9.0097656 14 9.0097656 C 14 9.0097656 14.009436 7.1460684 13.763672 6.2519531 C 13.631306 5.7625439 13.243595 5.3759049 12.751953 5.2441406 C 11.853763 4.9994361 7.9589844 5 7.9589844 5 z M 6 6 L 11 9 L 6 12 L 6 6 z " />
  <path
     id="path1633"
     style="fill:#ffffff;stroke-width:0.0943325"
     d="m 7.9589844,4 c 0,0 -3.8127476,0.00103 -4.7109375,0.2363281 C 2.7658609,4.3680884 2.3686928,4.7625446 2.2363281,5.2519531 1.9999625,6.1460692 2,8 2,8 c 0,0 -3.75e-5,1.8633428 0.2363281,2.748047 0.1323653,0.489409 0.5200784,0.87605 1.0117188,1.007812 C 4.1556908,12.000565 7.9589844,12 7.9589844,12 c 0,0 3.8947796,-10e-4 4.7929686,-0.236328 0.491643,-0.13176 0.879353,-0.51645 1.011719,-1.00586 C 14.000039,9.8636954 14,8.0097656 14,8.0097656 c 0,0 0.0093,-1.8636964 -0.236328,-2.7578125 C 13.631306,4.7625446 13.243596,4.3759048 12.751953,4.2441406 11.853764,3.9994361 7.9589844,4 7.9589844,4 Z M 6,5 11,8 6,11 Z"
     sodipodi:nodetypes="ccccccccccccccccc" />
  <path
     id="rect2630"
     style="opacity:0.3;fill:#ffffff;fill-opacity:1"
     d="M 3,1 C 1.8920011,1 1,1.8920011 1,3 V 4 C 1,2.8920011 1.8920011,2 3,2 h 10 c 1.107999,0 2,0.8920011 2,2 V 3 C 15,1.8920011 14.107999,1 13,1 Z"
     sodipodi:nodetypes="sscsscsss" />
  <path
     d="M 3,15 C 1.8920011,15 1,14.107999 1,13 v -1 c 0,1.107999 0.8920011,2 2,2 h 10 c 1.107999,0 2,-0.892001 2,-2 v 1 c 0,1.107999 -0.892001,2 -2,2 z"
     style="opacity:0.3;fill:#ffffff;fill-opacity:1"
     id="path19648" />
  <path
     id="rect899"
     style="opacity:0.5;fill:#000000;stroke:none"
     d="M 3,0 C 1.3380017,0 0,1.3380017 0,3 v 10 c 0,1.661998 1.3380017,3 3,3 h 10 c 1.661998,0 3,-1.338002 3,-3 V 3 C 16,1.3380017 14.661998,0 13,0 Z m 0,1 h 10 c 1.107999,0 2,0.8920011 2,2 v 10 c 0,1.107999 -0.892001,2 -2,2 H 3 C 1.8920011,15 1,14.107999 1,13 V 3 C 1,1.8920011 1.8920011,1 3,1 Z" />
</svg>
