<?xml version="1.0" encoding="UTF-8" standalone="no"?>
<!-- Created with Inkscape (http://www.inkscape.org/) -->

<svg
   width="32"
   height="32"
   viewBox="0 0 32 32.000001"
   version="1.1"
   id="svg5"
   sodipodi:docname="audio-card.svg"
   inkscape:version="1.2.1 (9c6d41e410, 2022-07-14)"
   xmlns:inkscape="http://www.inkscape.org/namespaces/inkscape"
   xmlns:sodipodi="http://sodipodi.sourceforge.net/DTD/sodipodi-0.dtd"
   xmlns:xlink="http://www.w3.org/1999/xlink"
   xmlns="http://www.w3.org/2000/svg"
   xmlns:svg="http://www.w3.org/2000/svg">
  <sodipodi:namedview
     id="namedview7"
     pagecolor="#ffffff"
     bordercolor="#666666"
     borderopacity="1.0"
     inkscape:showpageshadow="2"
     inkscape:pageopacity="0.0"
     inkscape:pagecheckerboard="0"
     inkscape:deskcolor="#d1d1d1"
     inkscape:document-units="px"
     showgrid="false"
     inkscape:zoom="14.142857"
     inkscape:cx="5.3383839"
     inkscape:cy="16.439394"
     inkscape:window-width="1920"
     inkscape:window-height="1007"
     inkscape:window-x="0"
     inkscape:window-y="0"
     inkscape:window-maximized="1"
     inkscape:current-layer="svg5" />
  <defs
     id="defs2">
    <linearGradient
       inkscape:collect="always"
       xlink:href="#linearGradient14653"
       id="linearGradient8655"
       x1="25"
       y1="30"
       x2="7"
       y2="2"
       gradientUnits="userSpaceOnUse" />
    <linearGradient
       inkscape:collect="always"
       xlink:href="#linearGradient14659"
       id="linearGradient3871"
       x1="23.214283"
       y1="43.214287"
       x2="23.214283"
       y2="5.2142854"
       gradientUnits="userSpaceOnUse"
       gradientTransform="matrix(0.65497077,0,0,0.73684211,-0.2046764,-1.842105)" />
    <linearGradient
       inkscape:collect="always"
       id="linearGradient14659">
      <stop
         style="stop-color:#3d3d3d;stop-opacity:1;"
         offset="0"
         id="stop14655" />
      <stop
         style="stop-color:#6c6c6c;stop-opacity:1;"
         offset="1"
         id="stop14657" />
    </linearGradient>
    <linearGradient
       inkscape:collect="always"
       id="linearGradient14653">
      <stop
         style="stop-color:#4c972d;stop-opacity:1;"
         offset="0"
         id="stop14649" />
      <stop
         style="stop-color:#86d075;stop-opacity:1;"
         offset="1"
         id="stop14651" />
    </linearGradient>
  </defs>
  <rect
     style="fill:url(#linearGradient8655);fill-opacity:1.0;stroke:none"
     id="rect184"
     width="27"
     height="27"
     x="2.5"
     y="2.5"
     ry="4.5" />
  <rect
     style="opacity:0.2;fill:#000000;stroke-width:2.08411;stroke-linecap:round;stroke-linejoin:round"
     id="rect823"
     width="18"
     height="18"
     x="7"
     y="8"
     ry="1" />
  <rect
     style="fill:url(#linearGradient3871);fill-opacity:1;stroke-width:2.08411;stroke-linecap:round;stroke-linejoin:round"
     id="rect848"
     width="18"
     height="18"
     x="7"
     y="7"
     ry="1" />
  <path
     id="rect559"
     style="fill:#ffffff;stroke-width:1.22727;stroke-linecap:round;stroke-linejoin:round"
     d="m 20.164705,8.65402 c -0.05315,-3.85e-4 -0.108315,0.0048 -0.164594,0.01678 l -6.000524,1.909244 c -0.450232,0.09558 -0.818182,0.508731 -0.818182,0.962003 v 1.636364 6.517937 c -0.34606,-0.147449 -0.765282,-0.186375 -1.196112,-0.111062 -1.112662,0.196231 -2.0145539,1.088106 -2.0142929,1.991921 2.61e-4,0.903516 0.9019999,1.476895 2.0142929,1.280806 1.112278,-0.196163 2.014011,-1.087523 2.014294,-1.991122 V 12.99959 l 6.000525,-2 v 7.060255 C 19.654051,17.912396 19.23483,17.87347 18.804,17.948783 c -1.112662,0.196231 -2.014553,1.088106 -2.014294,1.991921 2.62e-4,0.903516 0.902001,1.476895 2.014294,1.280806 1.112278,-0.196163 2.01401,-1.087523 2.014294,-1.991122 V 11.327113 9.345159 c 0,-0.396613 -0.28154,-0.688447 -0.653589,-0.691139 z"
     sodipodi:nodetypes="sccscccsccccccscccss" />
  <path
     id="rect2630"
     style="opacity:0.3;fill:#ffffff;fill-opacity:1"
     d="M 7,3 C 4.7840022,3 3,4.7840022 3,6.9999998 v 1 C 3,5.7840022 4.7840022,4 7,4 h 18 c 2.215998,0 4,1.7840022 4,3.9999998 v -1 C 29,4.7840022 27.215998,3 25,3 Z" />
  <path
     id="rect398"
     style="opacity:0.3;fill:#ffffff"
     d="m 3.0000002,24 v 1 c 0,2.215998 1.7840022,4 4,4 H 25 c 2.215998,0 4,-1.784002 4,-4 v -1 c 0,2.215998 -1.784002,4 -4,4 H 7.0000002 c -2.2159978,0 -4,-1.784002 -4,-4 z" />
  <path
     id="rect899"
     style="fill:#000000;stroke:none;opacity:0.5"
     d="M 7 2 C 4.2300028 2 2 4.2300028 2 7 L 2 25 C 2 27.769997 4.2300028 30 7 30 L 25 30 C 27.769997 30 30 27.769997 30 25 L 30 7 C 30 4.2300028 27.769997 2 25 2 L 7 2 z M 7 3 L 25 3 C 27.215998 3 29 4.7840022 29 7 L 29 25 C 29 27.215998 27.215998 29 25 29 L 7 29 C 4.7840022 29 3 27.215998 3 25 L 3 7 C 3 4.7840022 4.7840022 3 7 3 z " />
</svg>
