<?xml version="1.0" encoding="UTF-8" standalone="no"?>
<!-- Created with Inkscape (http://www.inkscape.org/) -->

<svg
   width="32"
   height="32"
   viewBox="0 0 32 32"
   version="1.1"
   id="svg5"
   inkscape:version="1.2.1 (9c6d41e410, 2022-07-14)"
   sodipodi:docname="drive-removable-media.svg"
   xmlns:inkscape="http://www.inkscape.org/namespaces/inkscape"
   xmlns:sodipodi="http://sodipodi.sourceforge.net/DTD/sodipodi-0.dtd"
   xmlns:xlink="http://www.w3.org/1999/xlink"
   xmlns="http://www.w3.org/2000/svg"
   xmlns:svg="http://www.w3.org/2000/svg">
  <sodipodi:namedview
     id="namedview7"
     pagecolor="#ffffff"
     bordercolor="#000000"
     borderopacity="0.25"
     inkscape:showpageshadow="2"
     inkscape:pageopacity="0.0"
     inkscape:pagecheckerboard="0"
     inkscape:deskcolor="#d1d1d1"
     inkscape:document-units="px"
     showgrid="false"
     inkscape:zoom="28.285714"
     inkscape:cx="16.032828"
     inkscape:cy="16.015152"
     inkscape:window-width="1920"
     inkscape:window-height="1002"
     inkscape:window-x="0"
     inkscape:window-y="0"
     inkscape:window-maximized="1"
     inkscape:current-layer="svg5" />
  <defs
     id="defs2">
    <linearGradient
       inkscape:collect="always"
       id="linearGradient1082">
      <stop
         style="stop-color:#aaaaaa;stop-opacity:1;"
         offset="0"
         id="stop1078" />
      <stop
         style="stop-color:#c9c9c9;stop-opacity:1;"
         offset="1"
         id="stop1080" />
    </linearGradient>
    <linearGradient
       inkscape:collect="always"
       xlink:href="#linearGradient1082"
       id="linearGradient1084"
       x1="48.119049"
       y1="57.690475"
       x2="16.880953"
       y2="3.0238094"
       gradientUnits="userSpaceOnUse"
       gradientTransform="matrix(0.51219512,0,0,0.51219512,-0.6463415,0.4512196)" />
  </defs>
  <rect
     style="fill:url(#linearGradient1084);fill-opacity:1;stroke-width:0.512195;stroke-linejoin:round"
     id="rect499"
     width="21"
     height="27"
     x="5.4999995"
     y="2.5"
     ry="2.304878" />
  <path
     d="m 11,18 h 10 v 2 H 11 Z m 5,-8 5,6 H 11 Z"
     style="opacity:0.2;fill:#000000;fill-opacity:1;stroke-width:0.5"
     id="path1092" />
  <path
     d="m 11,17 h 10 v 2 H 11 Z m 5,-8 5,6 H 11 Z"
     style="fill:#707070;fill-opacity:1;stroke-width:0.5"
     id="path352"
     sodipodi:nodetypes="ccccccccc" />
  <path
     id="rect424"
     style="opacity:0.3;fill:#ffffff;stroke-linejoin:round"
     d="M 8,3 C 6.8920011,3 6,3.8920011 6,5 V 6 C 6,4.8920011 6.8920011,4 8,4 h 16 c 1.107999,0 2,0.8920011 2,2 V 5 C 26,3.8920011 25.107999,3 24,3 Z"
     sodipodi:nodetypes="sscsscsss" />
  <path
     d="m 7.9999998,29 c -1.1079989,0 -2,-0.892001 -2,-2 v -1 c 0,1.107999 0.8920011,2 2,2 H 24 c 1.107999,0 2,-0.892001 2,-2 v 1 c 0,1.107999 -0.892001,2 -2,2 z"
     style="opacity:0.3;fill:#ffffff;stroke-linejoin:round"
     id="path467" />
  <path
     id="rect1864"
     style="opacity:0.5;fill:#000000;fill-opacity:1;stroke-width:0.5;stroke-linejoin:round"
     d="M 8,2 C 6.338004,2 5,3.3380034 5,5 v 22 c 0,1.661996 1.338004,3 3,3 h 16 c 1.661996,0 3,-1.338004 3,-3 V 5 C 27,3.3380034 25.661996,2 24,2 Z m 0,1 h 16 c 1.107999,0 2,0.8920011 2,2 v 22 c 0,1.107999 -0.892001,2 -2,2 H 8 C 6.892001,29 6,28.107999 6,27 V 5 C 6,3.8920011 6.892001,3 8,3 Z" />
</svg>
