<?xml version="1.0" encoding="UTF-8" standalone="no"?>
<!-- Created with Inkscape (http://www.inkscape.org/) -->

<svg
   width="32"
   height="32"
   viewBox="0 0 32 32"
   version="1.1"
   id="svg5"
   sodipodi:docname="input-keyboard.svg"
   inkscape:version="1.2.1 (9c6d41e410, 2022-07-14)"
   xmlns:inkscape="http://www.inkscape.org/namespaces/inkscape"
   xmlns:sodipodi="http://sodipodi.sourceforge.net/DTD/sodipodi-0.dtd"
   xmlns:xlink="http://www.w3.org/1999/xlink"
   xmlns="http://www.w3.org/2000/svg"
   xmlns:svg="http://www.w3.org/2000/svg">
  <sodipodi:namedview
     id="namedview7"
     pagecolor="#ffffff"
     bordercolor="#666666"
     borderopacity="1.0"
     inkscape:showpageshadow="2"
     inkscape:pageopacity="0.0"
     inkscape:pagecheckerboard="0"
     inkscape:deskcolor="#d1d1d1"
     inkscape:document-units="px"
     showgrid="false"
     inkscape:zoom="24.84375"
     inkscape:cx="16"
     inkscape:cy="16"
     inkscape:window-width="1920"
     inkscape:window-height="1007"
     inkscape:window-x="0"
     inkscape:window-y="0"
     inkscape:window-maximized="1"
     inkscape:current-layer="svg5" />
  <defs
     id="defs2">
    <linearGradient
       inkscape:collect="always"
       xlink:href="#linearGradient22024"
       id="linearGradient932"
       x1="14.5"
       y1="13.021169"
       x2="0"
       y2="2.0211687"
       gradientUnits="userSpaceOnUse"
       gradientTransform="matrix(2,0,0,2,1,0.9576626)" />
    <linearGradient
       inkscape:collect="always"
       id="linearGradient22024">
      <stop
         style="stop-color:#cdcdcd;stop-opacity:1;"
         offset="0"
         id="stop22020" />
      <stop
         style="stop-color:#eff0f1;stop-opacity:1;"
         offset="1"
         id="stop22022" />
    </linearGradient>
  </defs>
  <rect
     style="opacity:0.2;fill:#000000;stroke-width:2;stroke-linecap:round;stroke-linejoin:round"
     id="rect934"
     width="29"
     height="22"
     x="1"
     y="6"
     ry="2" />
  <rect
     style="fill:url(#linearGradient932);fill-opacity:1;stroke-width:2;stroke-linecap:round;stroke-linejoin:round"
     id="rect370"
     width="29"
     height="22"
     x="1"
     y="5"
     ry="2" />
  <path
     id="path505"
     style="fill:#b3b3b3;stroke-width:2;stroke-linecap:round;stroke-linejoin:round"
     d="M 5,8 C 3.8954305,8 3,8.8954305 3,10 3,11.104569 3.8954305,12 5,12 6.1045695,12 7,11.104569 7,10 7,8.8954305 6.1045695,8 5,8 Z m 7,0 c -1.104569,0 -2,0.8954305 -2,2 0,1.104569 0.895431,2 2,2 1.104569,0 2,-0.895431 2,-2 0,-1.1045695 -0.895431,-2 -2,-2 z m 7,0 c -1.104569,0 -2,0.8954305 -2,2 0,1.104569 0.895431,2 2,2 1.104569,0 2,-0.895431 2,-2 0,-1.1045695 -0.895431,-2 -2,-2 z m 7,0 c -1.104569,0 -2,0.8954305 -2,2 0,1.104569 0.895431,2 2,2 1.104569,0 2,-0.895431 2,-2 C 28,8.8954305 27.104569,8 26,8 Z M 5,14 c -1.1045695,0 -2,0.895431 -2,2 0,1.104569 0.8954305,2 2,2 1.1045695,0 2,-0.895431 2,-2 0,-1.104569 -0.8954305,-2 -2,-2 z m 7,0 c -1.104569,0 -2,0.895431 -2,2 0,1.104569 0.895431,2 2,2 1.104569,0 2,-0.895431 2,-2 0,-1.104569 -0.895431,-2 -2,-2 z m 7,0 c -1.104569,0 -2,0.895431 -2,2 0,1.104569 0.895431,2 2,2 1.104569,0 2,-0.895431 2,-2 0,-1.104569 -0.895431,-2 -2,-2 z m 7,0 c -1.104569,0 -2,0.895431 -2,2 0,1.104569 0.895431,2 2,2 1.104569,0 2,-0.895431 2,-2 0,-1.104569 -0.895431,-2 -2,-2 z M 9,21 c -0.553999,0 -1,0.446001 -1,1 v 2 c 0,0.553999 0.446001,1 1,1 h 13 c 0.553999,0 1,-0.446001 1,-1 v -2 c 0,-0.553999 -0.446001,-1 -1,-1 z"
     sodipodi:nodetypes="sssssssssssssssssssssssssssssssssssssssssssssssss" />
  <path
     id="path778"
     style="opacity:0.2;fill:#000000;stroke-width:2;stroke-linecap:round;stroke-linejoin:round"
     d="M 5,8 C 3.8954312,8 3,8.895432 3,10 3,10.172999 3.025113,10.339898 3.066406,10.5 3.288765,9.63788 4.0684306,9 5,9 5.9315686,9 6.7112349,9.63788 6.9335938,10.5 6.9748874,10.339898 7,10.172999 7,10 7,8.895432 6.1045679,8 5,8 Z m 7,0 c -1.104568,0 -2,0.895432 -2,2 0,0.172999 0.02511,0.339898 0.06641,0.5 C 10.288765,9.63788 11.068431,9 12,9 12.931569,9 13.711235,9.63788 13.933594,10.5 13.974887,10.339898 14,10.172999 14,10 14,8.895432 13.104568,8 12,8 Z m 7,0 c -1.104568,0 -2,0.895432 -2,2 0,0.172999 0.02511,0.339898 0.06641,0.5 C 17.288765,9.63788 18.068431,9 19,9 19.931569,9 20.711235,9.63788 20.933594,10.5 20.974887,10.339898 21,10.172999 21,10 21,8.895432 20.104568,8 19,8 Z m 7,0 c -1.104568,0 -2,0.895432 -2,2 0,0.172999 0.02511,0.339898 0.06641,0.5 C 24.288765,9.63788 25.068431,9 26,9 26.931569,9 27.711235,9.63788 27.933594,10.5 27.974887,10.339898 28,10.172999 28,10 28,8.895432 27.104568,8 26,8 Z M 5,14 c -1.1045688,0 -2,0.895432 -2,2 0,0.172999 0.025113,0.339898 0.066406,0.5 C 3.288765,15.63788 4.0684306,15 5,15 5.9315686,15 6.7112349,15.63788 6.9335938,16.5 6.9748874,16.339898 7,16.172999 7,16 7,14.895432 6.1045679,14 5,14 Z m 7,0 c -1.104568,0 -2,0.895432 -2,2 0,0.172999 0.02511,0.339898 0.06641,0.5 C 10.288765,15.63788 11.068431,15 12,15 c 0.931569,0 1.711235,0.63788 1.933594,1.5 C 13.974887,16.339898 14,16.172999 14,16 14,14.895432 13.104568,14 12,14 Z m 7,0 c -1.104568,0 -2,0.895432 -2,2 0,0.172999 0.02511,0.339898 0.06641,0.5 C 17.288765,15.63788 18.068431,15 19,15 c 0.931569,0 1.711235,0.63788 1.933594,1.5 C 20.974887,16.339898 21,16.172999 21,16 21,14.895432 20.104568,14 19,14 Z m 7,0 c -1.104568,0 -2,0.895432 -2,2 0,0.172999 0.02511,0.339898 0.06641,0.5 C 24.288765,15.63788 25.068431,15 26,15 c 0.931569,0 1.711235,0.63788 1.933594,1.5 C 27.974887,16.339898 28,16.172999 28,16 28,14.895432 27.104568,14 26,14 Z M 9,21 c -0.553998,0 -1,0.446002 -1,1 v 1 c 0,-0.553998 0.446002,-1 1,-1 h 13 c 0.553998,0 1,0.446002 1,1 v -1 c 0,-0.553998 -0.446002,-1 -1,-1 z" />
  <path
     id="rect614"
     style="opacity:0.2;fill:#ffffff;stroke-width:2;stroke-linecap:round;stroke-linejoin:round"
     d="M 3,5 C 1.8920011,5 1,5.892001 1,7 V 8 C 1,6.892001 1.8920011,6 3,6 h 25 c 1.107999,0 2,0.892001 2,2 V 7 C 30,5.892001 29.107999,5 28,5 Z" />
</svg>
