<?xml version="1.0" encoding="UTF-8" standalone="no"?>
<!-- Created with Inkscape (http://www.inkscape.org/) -->

<svg
   width="96"
   height="96"
   viewBox="0 0 96 96.000004"
   version="1.1"
   id="svg2612"
   inkscape:version="1.3.2 (091e20ef0f, 2023-11-25, custom)"
   sodipodi:docname="drive-harddisk-usb.svg"
   xmlns:inkscape="http://www.inkscape.org/namespaces/inkscape"
   xmlns:sodipodi="http://sodipodi.sourceforge.net/DTD/sodipodi-0.dtd"
   xmlns:xlink="http://www.w3.org/1999/xlink"
   xmlns="http://www.w3.org/2000/svg"
   xmlns:svg="http://www.w3.org/2000/svg">
  <sodipodi:namedview
     id="namedview2614"
     pagecolor="#ffffff"
     bordercolor="#000000"
     borderopacity="0.25"
     inkscape:showpageshadow="2"
     inkscape:pageopacity="0.0"
     inkscape:pagecheckerboard="0"
     inkscape:deskcolor="#d1d1d1"
     inkscape:document-units="px"
     showgrid="false"
     showguides="false"
     inkscape:zoom="8.4166667"
     inkscape:cx="47.940594"
     inkscape:cy="48"
     inkscape:window-width="1920"
     inkscape:window-height="1011"
     inkscape:window-x="0"
     inkscape:window-y="0"
     inkscape:window-maximized="1"
     inkscape:current-layer="svg2612" />
  <defs
     id="defs2609">
    <linearGradient
       inkscape:collect="always"
       id="linearGradient1082">
      <stop
         style="stop-color:#aaaaaa;stop-opacity:1;"
         offset="0"
         id="stop1078" />
      <stop
         style="stop-color:#c9c9c9;stop-opacity:1;"
         offset="1"
         id="stop1080" />
    </linearGradient>
    <linearGradient
       inkscape:collect="always"
       xlink:href="#linearGradient1082"
       id="linearGradient4030"
       x1="17.359291"
       y1="22.590225"
       x2="6.0986423"
       y2="1.3794844"
       gradientUnits="userSpaceOnUse"
       gradientTransform="matrix(4.1488415,0,0,4.1488415,-0.02094483,-1.7232621)" />
  </defs>
  <rect
     style="fill:url(#linearGradient4030);fill-opacity:1;stroke-width:4.14883;stroke-linejoin:round"
     id="rect2787"
     width="67"
     height="87"
     x="14.5"
     y="4.5"
     ry="9.5" />
  <path
     d="m 48,79 c 3.31372,0 6,-2.6863 6,-6 0,-2.613 -1.66884,-4.833 -4,-5.65626 V 57.03124 L 60.1875,49.625 C 60.7029,49.24468 61.00498,48.64052 61,48 v -5 h 3 V 33 H 54 v 10 h 3 v 3.96874 L 50,52.0625 V 29 h 5 L 48,17 41,29 h 5 V 58.75 L 39,53.03124 V 48.5625 c 1.75952,-0.77428 3,-2.5168 3,-4.5625 0,-2.76142 -2.23858,-5 -5,-5 -2.76142,0 -5,2.23858 -5,5 0,2.0457 1.24048,3.78822 3,4.5625 V 54 c -0.008,0.6025 0.25606,1.17652 0.71876,1.5625 L 46,63.96874 v 3.375 C 43.66884,68.167 42,70.387 42,73 c 0,3.3137 2.6863,6 6,6 z"
     style="color:#bebebe;display:inline;overflow:visible;visibility:visible;opacity:0.2;fill:#000000;fill-opacity:1;fill-rule:nonzero;stroke:none;stroke-width:2;marker:none;enable-background:accumulate"
     id="path4726"
     sodipodi:nodetypes="ssccccccccccccccccccccssscccccss" />
  <path
     d="m 48,78 c 3.31372,0 6,-2.6863 6,-6 0,-2.613 -1.66884,-4.833 -4,-5.65626 V 56.03124 L 60.1875,48.625 C 60.7029,48.24468 61.00498,47.64052 61,47 v -5 h 3 V 32 H 54 v 10 h 3 v 3.96874 L 50,51.0625 V 28 h 5 L 48,16 41,28 h 5 V 57.75 L 39,52.03124 V 47.5625 c 1.75952,-0.77428 3,-2.5168 3,-4.5625 0,-2.76142 -2.23858,-5 -5,-5 -2.76142,0 -5,2.23858 -5,5 0,2.0457 1.24048,3.78822 3,4.5625 V 53 c -0.008,0.6025 0.25606,1.17652 0.71876,1.5625 L 46,62.96874 v 3.375 C 43.66884,67.167 42,69.387 42,72 c 0,3.3137 2.6863,6 6,6 z"
     style="color:#bebebe;display:inline;overflow:visible;visibility:visible;fill:#707070;fill-opacity:1;fill-rule:nonzero;stroke:none;stroke-width:2;marker:none;enable-background:accumulate"
     id="path5122" />
  <path
     id="rect804"
     style="opacity:0.2;fill:#ffffff;stroke-width:2;stroke-linejoin:round"
     d="M 15 81 L 15 82 C 15 86.98599 19.01401 91 24 91 L 72 91 C 76.98599 91 81 86.98599 81 82 L 81 81 C 81 85.985995 76.98599 90 72 90 L 24 90 C 19.01401 90 15 85.985995 15 81 z " />
  <path
     id="rect806"
     style="opacity:0.2;fill:#ffffff;stroke-width:2;stroke-linejoin:round"
     d="M 24 5 C 19.01401 5 15 9.01401 15 14 L 15 15 C 15 10.01401 19.01401 6 24 6 L 72 6 C 76.985985 6 81 10.01401 81 15 L 81 14 C 81 9.01401 76.98599 5 72 5 L 24 5 z " />
  <path
     id="rect717"
     style="opacity:0.5;fill:#000000;stroke-width:2;stroke-linejoin:round"
     d="M 24 4 C 18.460012 4 14 8.4600111 14 14 L 14 82 C 14 87.539988 18.460012 92 24 92 L 72 92 C 77.539988 92 82 87.539988 82 82 L 82 14 C 82 8.4600111 77.539988 4 72 4 L 24 4 z M 24 5 L 72 5 C 76.985995 5 81 9.014005 81 14 L 81 82 C 81 86.985995 76.985995 91 72 91 L 24 91 C 19.014005 91 15 86.985995 15 82 L 15 14 C 15 9.014005 19.014005 5 24 5 z " />
</svg>
