<?xml version="1.0" encoding="UTF-8" standalone="no"?>
<!-- Created with Inkscape (http://www.inkscape.org/) -->

<svg
   width="96"
   height="96"
   viewBox="0 0 96 96.000004"
   version="1.1"
   id="svg2612"
   inkscape:version="1.3.2 (091e20ef0f, 2023-11-25, custom)"
   sodipodi:docname="drive-harddisk-ieee1394.svg"
   xmlns:inkscape="http://www.inkscape.org/namespaces/inkscape"
   xmlns:sodipodi="http://sodipodi.sourceforge.net/DTD/sodipodi-0.dtd"
   xmlns:xlink="http://www.w3.org/1999/xlink"
   xmlns="http://www.w3.org/2000/svg"
   xmlns:svg="http://www.w3.org/2000/svg">
  <sodipodi:namedview
     id="namedview2614"
     pagecolor="#ffffff"
     bordercolor="#000000"
     borderopacity="0.25"
     inkscape:showpageshadow="2"
     inkscape:pageopacity="0.0"
     inkscape:pagecheckerboard="0"
     inkscape:deskcolor="#d1d1d1"
     inkscape:document-units="px"
     showgrid="false"
     showguides="false"
     inkscape:zoom="8.4166667"
     inkscape:cx="47.940594"
     inkscape:cy="48"
     inkscape:window-width="1920"
     inkscape:window-height="1011"
     inkscape:window-x="0"
     inkscape:window-y="0"
     inkscape:window-maximized="1"
     inkscape:current-layer="svg2612" />
  <defs
     id="defs2609">
    <linearGradient
       inkscape:collect="always"
       id="linearGradient1082">
      <stop
         style="stop-color:#aaaaaa;stop-opacity:1;"
         offset="0"
         id="stop1078" />
      <stop
         style="stop-color:#c9c9c9;stop-opacity:1;"
         offset="1"
         id="stop1080" />
    </linearGradient>
    <linearGradient
       inkscape:collect="always"
       xlink:href="#linearGradient1082"
       id="linearGradient4030"
       x1="17.359291"
       y1="22.590225"
       x2="6.0986423"
       y2="1.3794844"
       gradientUnits="userSpaceOnUse"
       gradientTransform="matrix(4.1488415,0,0,4.1488415,-0.02094483,-1.7232621)" />
  </defs>
  <rect
     style="fill:url(#linearGradient4030);fill-opacity:1;stroke-width:4.14883;stroke-linejoin:round"
     id="rect2787"
     width="67"
     height="87"
     x="14.5"
     y="4.5"
     ry="9.5" />
  <path
     d="M 31.4065,19.102 20.094,30.414522 22.922124,33.24264 34.242436,21.93012 Z m 36.593752,0.601564 -11.312504,11.320322 11.312504,11.304682 11.3125,-11.304682 z m -30.937504,5.054676 -11.3125,11.312522 2.828128,2.82812 11.320316,-11.31252 z m 10.937496,10.242202 c -6.627408,0 -11.999996,5.372602 -11.999996,11.999998 0,6.627404 5.372588,12.000004 11.999996,12.000004 6.62742,0 12,-5.3726 12,-12.000004 0,-6.627396 -5.37258,-11.999998 -12,-11.999998 z m 0,4 c 4.41828,0 8.000004,3.581718 8.000004,7.999998 0,4.418284 -3.581724,8.000004 -8.000004,8.000004 -4.418268,0 -7.999992,-3.58172 -7.999992,-8.000004 0,-4.41828 3.581724,-7.999998 7.999992,-7.999998 z m -7.999992,28.000002 v 4 h 15.999996 v -4 z m 0,8 v 4 h 15.999996 v -4 z"
     style="opacity:0.2;fill:#000000;fill-opacity:1;stroke-width:4"
     id="path1083" />
  <path
     d="M 31.4065,18.102 20.094,29.414522 22.922126,32.24264 34.242436,20.93012 Z m 36.593752,0.601565 -11.312504,11.320321 11.312504,11.30468 11.3125,-11.30468 z m -30.937504,5.054675 -11.3125,11.312522 2.82813,2.828118 11.320312,-11.312518 z m 10.937496,10.242202 c -6.627408,0 -11.999994,5.3726 -11.999994,11.999998 0,6.6274 5.372586,12 11.999994,12 6.62742,0 12,-5.3726 12,-12 0,-6.627398 -5.37258,-11.999998 -12,-11.999998 z m 0,3.999998 c 4.41828,0 8.000004,3.58172 8.000004,8 0,4.41828 -3.581724,8 -8.000004,8 -4.418268,0 -7.999994,-3.58172 -7.999994,-8 0,-4.41828 3.581726,-8 7.999994,-8 z m -7.999994,28 v 4 h 15.999998 v -4 z m 0,8 v 4 h 15.999998 v -4 z"
     style="fill:#707070;fill-opacity:1;stroke-width:4"
     id="path1704"
     sodipodi:nodetypes="cccccccccccccccsssssssssscccccccccc" />
  <path
     id="rect804"
     style="opacity:0.2;fill:#ffffff;stroke-width:2;stroke-linejoin:round"
     d="M 15 81 L 15 82 C 15 86.98599 19.01401 91 24 91 L 72 91 C 76.98599 91 81 86.98599 81 82 L 81 81 C 81 85.985995 76.98599 90 72 90 L 24 90 C 19.01401 90 15 85.985995 15 81 z " />
  <path
     id="rect806"
     style="opacity:0.2;fill:#ffffff;stroke-width:2;stroke-linejoin:round"
     d="M 24 5 C 19.01401 5 15 9.01401 15 14 L 15 15 C 15 10.01401 19.01401 6 24 6 L 72 6 C 76.985985 6 81 10.01401 81 15 L 81 14 C 81 9.01401 76.98599 5 72 5 L 24 5 z " />
  <path
     id="rect717"
     style="opacity:0.5;fill:#000000;stroke-width:2;stroke-linejoin:round"
     d="M 24 4 C 18.460012 4 14 8.4600111 14 14 L 14 82 C 14 87.539988 18.460012 92 24 92 L 72 92 C 77.539988 92 82 87.539988 82 82 L 82 14 C 82 8.4600111 77.539988 4 72 4 L 24 4 z M 24 5 L 72 5 C 76.985995 5 81 9.014005 81 14 L 81 82 C 81 86.985995 76.985995 91 72 91 L 24 91 C 19.014005 91 15 86.985995 15 82 L 15 14 C 15 9.014005 19.014005 5 24 5 z " />
</svg>
