<?xml version="1.0" encoding="UTF-8" standalone="no"?>
<!-- Created with Inkscape (http://www.inkscape.org/) -->

<svg
   width="96"
   height="96"
   viewBox="0 0 96 96.000004"
   version="1.1"
   id="svg2612"
   inkscape:version="1.3.2 (091e20ef0f, 2023-11-25, custom)"
   sodipodi:docname="drive-harddisk.svg"
   xmlns:inkscape="http://www.inkscape.org/namespaces/inkscape"
   xmlns:sodipodi="http://sodipodi.sourceforge.net/DTD/sodipodi-0.dtd"
   xmlns:xlink="http://www.w3.org/1999/xlink"
   xmlns="http://www.w3.org/2000/svg"
   xmlns:svg="http://www.w3.org/2000/svg">
  <sodipodi:namedview
     id="namedview2614"
     pagecolor="#ffffff"
     bordercolor="#000000"
     borderopacity="0.25"
     inkscape:showpageshadow="2"
     inkscape:pageopacity="0.0"
     inkscape:pagecheckerboard="0"
     inkscape:deskcolor="#d1d1d1"
     inkscape:document-units="px"
     showgrid="false"
     showguides="false"
     inkscape:zoom="8.4166667"
     inkscape:cx="47.940594"
     inkscape:cy="48"
     inkscape:window-width="1920"
     inkscape:window-height="1011"
     inkscape:window-x="0"
     inkscape:window-y="0"
     inkscape:window-maximized="1"
     inkscape:current-layer="svg2612" />
  <defs
     id="defs2609">
    <linearGradient
       inkscape:collect="always"
       id="linearGradient1082">
      <stop
         style="stop-color:#aaaaaa;stop-opacity:1;"
         offset="0"
         id="stop1078" />
      <stop
         style="stop-color:#c9c9c9;stop-opacity:1;"
         offset="1"
         id="stop1080" />
    </linearGradient>
    <linearGradient
       inkscape:collect="always"
       xlink:href="#linearGradient1082"
       id="linearGradient4030"
       x1="17.359291"
       y1="22.590225"
       x2="6.0986423"
       y2="1.3794844"
       gradientUnits="userSpaceOnUse"
       gradientTransform="matrix(4.1488415,0,0,4.1488415,-0.02094483,-1.7232621)" />
  </defs>
  <rect
     style="fill:url(#linearGradient4030);fill-opacity:1;stroke-width:4.14883;stroke-linejoin:round"
     id="rect2787"
     width="67"
     height="87"
     x="14.5"
     y="4.5"
     ry="9.5" />
  <path
     id="path1092"
     style="opacity:0.2;fill:#000000;stroke-width:4.8;stroke-linejoin:round"
     d="M 48,17 C 34.745204,17 24,27.745204 24,41 v 20 c 0,2.209136 1.790864,4 4,4 H 48 C 61.254796,65 72,54.254796 72,41 72,27.745204 61.254796,17 48,17 Z m 0,12 A 12,12 0 0 1 60,41 12,12 0 0 1 48,53 12,12 0 0 1 36,41 12,12 0 0 1 48,29 Z" />
  <path
     id="rect979"
     style="fill:#707070;stroke-width:4.8;stroke-linejoin:round"
     d="M 48,16 C 34.745192,16 24,26.745192 24,40 v 20 a 4,4 0 0 0 4,4 H 48 C 61.254812,64 72,53.254812 72,40 72,26.745192 61.254812,16 48,16 Z m 0,12 A 12,12 0 0 1 60,40 12,12 0 0 1 48,52 12,12 0 0 1 36,40 12,12 0 0 1 48,28 Z" />
  <path
     id="rect804"
     style="opacity:0.2;fill:#ffffff;stroke-width:2;stroke-linejoin:round"
     d="M 15 81 L 15 82 C 15 86.98599 19.01401 91 24 91 L 72 91 C 76.98599 91 81 86.98599 81 82 L 81 81 C 81 85.985995 76.98599 90 72 90 L 24 90 C 19.01401 90 15 85.985995 15 81 z " />
  <path
     id="rect806"
     style="opacity:0.2;fill:#ffffff;stroke-width:2;stroke-linejoin:round"
     d="M 24 5 C 19.01401 5 15 9.01401 15 14 L 15 15 C 15 10.01401 19.01401 6 24 6 L 72 6 C 76.985985 6 81 10.01401 81 15 L 81 14 C 81 9.01401 76.98599 5 72 5 L 24 5 z " />
  <path
     id="rect717"
     style="opacity:0.5;fill:#000000;stroke-width:2;stroke-linejoin:round"
     d="M 24 4 C 18.460012 4 14 8.4600111 14 14 L 14 82 C 14 87.539988 18.460012 92 24 92 L 72 92 C 77.539988 92 82 87.539988 82 82 L 82 14 C 82 8.4600111 77.539988 4 72 4 L 24 4 z M 24 5 L 72 5 C 76.985995 5 81 9.014005 81 14 L 81 82 C 81 86.985995 76.985995 91 72 91 L 24 91 C 19.014005 91 15 86.985995 15 82 L 15 14 C 15 9.014005 19.014005 5 24 5 z " />
</svg>
