<?xml version="1.0" encoding="UTF-8" standalone="no"?>
<!-- Created with Inkscape (http://www.inkscape.org/) -->

<svg
   width="96"
   height="96"
   viewBox="0 0 96 96.000005"
   version="1.1"
   id="svg5"
   sodipodi:docname="abiword.svg"
   inkscape:version="1.3.2 (091e20ef0f, 2023-11-25, custom)"
   xmlns:inkscape="http://www.inkscape.org/namespaces/inkscape"
   xmlns:sodipodi="http://sodipodi.sourceforge.net/DTD/sodipodi-0.dtd"
   xmlns:xlink="http://www.w3.org/1999/xlink"
   xmlns="http://www.w3.org/2000/svg"
   xmlns:svg="http://www.w3.org/2000/svg">
  <sodipodi:namedview
     id="namedview7"
     pagecolor="#ffffff"
     bordercolor="#666666"
     borderopacity="1.0"
     inkscape:showpageshadow="2"
     inkscape:pageopacity="0.0"
     inkscape:pagecheckerboard="0"
     inkscape:deskcolor="#d1d1d1"
     inkscape:document-units="px"
     showgrid="false"
     inkscape:zoom="8.6041667"
     inkscape:cx="48"
     inkscape:cy="48"
     inkscape:window-width="1920"
     inkscape:window-height="1011"
     inkscape:window-x="0"
     inkscape:window-y="0"
     inkscape:window-maximized="1"
     inkscape:current-layer="svg5" />
  <defs
     id="defs2">
    <linearGradient
       inkscape:collect="always"
       xlink:href="#linearGradient1677"
       id="linearGradient3525"
       x1="50.115543"
       y1="59.831326"
       x2="13.735723"
       y2="4.1686749"
       gradientUnits="userSpaceOnUse"
       gradientTransform="matrix(1.5090909,0,0,1.5090909,-0.2909091,-0.2909091)" />
    <linearGradient
       inkscape:collect="always"
       id="linearGradient1677">
      <stop
         style="stop-color:#5792d8;stop-opacity:1;"
         offset="0"
         id="stop1673" />
      <stop
         style="stop-color:#a2d2f9;stop-opacity:1;"
         offset="1"
         id="stop1675" />
    </linearGradient>
  </defs>
  <rect
     style="fill:url(#linearGradient3525);fill-opacity:1;stroke:none;stroke-width:1.50909"
     id="rect184"
     width="83"
     height="83"
     x="6.5"
     y="6.5"
     ry="14.5" />
  <path
     d="m 59.293038,57.734874 c -9.2516,4.7004 -18.7734,9.1116 -28.882,11.4616 -3.2584,-0.0164 -1.6507,-4.376 -1.12442,-6.3514 2.5264,-8.392 6.446,-16.248 10.172,-24.126 1.47566,-2.4892 2.5224,-5.9196 5.4976,-6.8774 2.89,-0.33002 4.7888,2.5424 6.2858,4.6378 6.121,9.6344 11.9016,19.521 16.9714,29.78 1.28404,2.674 2.542,5.3612 3.7866,8.054802 -3.7008,-15.524602 -8.6822,-30.924002 -16.7126,-44.704002 -1.80016,-2.7214 -3.4396,-5.674402 -5.8684,-7.863802 -2.367,-1.86812 -5.2784,0.14314 -7.0278,1.95154 -5.4964,5.665202 -8.8442,13.057602 -12.1248,20.196002 -3.826,8.4478 -6.3364,17.4524 -8.1792,26.548 -0.64606,3.063202 2.4198,5.286802 5.1444,4.336202 7.5466,-1.6131 14.6388,-4.996802 21.314,-8.879802 3.8466,-2.3214 7.546,-4.9572 10.7462,-8.1622 z"
     style="opacity:0.2;fill:#000000;stroke-width:2"
     id="path4332" />
  <path
     d="m 59.293038,56.734872 c -9.2516,4.7004 -18.7734,9.1116 -28.882,11.4616 -3.2584,-0.0164 -1.6507,-4.376 -1.12442,-6.3514 2.5264,-8.392 6.446,-16.248 10.172,-24.126 1.47566,-2.4892 2.5224,-5.9196 5.4976,-6.8774 2.89,-0.33002 4.7888,2.5424 6.2858,4.6378 6.121,9.6344 11.9016,19.521 16.9714,29.78 1.28404,2.674 2.542,5.3612 3.7866,8.0548 -3.7008,-15.5246 -8.6822,-30.924 -16.7126,-44.704 -1.80016,-2.7214 -3.4396,-5.6744 -5.8684,-7.8638 -2.367,-1.86812 -5.2784,0.14314 -7.0278,1.95154 -5.4964,5.6652 -8.8442,13.0576 -12.1248,20.196 -3.826,8.4478 -6.3364,17.4524 -8.1792,26.548 -0.64606,3.0632 2.4198,5.2868 5.1444,4.3362 7.5466,-1.6131 14.6388,-4.9968 21.314,-8.8798 3.8466,-2.3214 7.546,-4.9572 10.7462,-8.1622 z"
     style="fill:#ffffff;stroke-width:2"
     id="path3720"
     sodipodi:nodetypes="ccccccccccccccccc" />
  <path
     id="rect2630"
     style="opacity:0.3;fill:#ffffff;fill-opacity:1;stroke-width:1.5"
     d="M 21 7 C 13.244016 7 7 13.244016 7 21 L 7 22 C 7 14.244016 13.244016 8 21 8 L 75 8 C 82.755984 8 89 14.244016 89 22 L 89 21 C 89 13.244016 82.755984 7 75 7 L 21 7 z " />
  <path
     id="rect899"
     style="opacity:0.6;fill:#000000;stroke:none;stroke-width:1.5"
     d="M 21,6 C 12.690016,6 6,12.690016 6,21 v 54 c 0,8.309983 6.690016,15 15,15 h 54 c 8.309983,0 15,-6.690017 15,-15 V 21 C 90,12.690016 83.309983,6 75,6 Z m 0,1 h 54 c 7.755992,0 14,6.244008 14,14 v 54 c 0,7.755992 -6.244008,14 -14,14 H 21 C 13.244008,89 7,82.755992 7,75 V 21 C 7,13.244008 13.244008,7 21,7 Z" />
  <path
     id="rect398"
     style="opacity:0.3;fill:#ffffff;stroke-width:1.5"
     d="M 7 74 L 7 75 C 7 82.755984 13.244016 89 21 89 L 75 89 C 82.755984 89 89 82.755984 89 75 L 89 74 C 89 81.755982 82.755984 88 75 88 L 21 88 C 13.244016 88 7 81.755982 7 74 z " />
</svg>
