<?xml version="1.0" encoding="UTF-8" standalone="no"?>
<!-- Created with Inkscape (http://www.inkscape.org/) -->

<svg
   width="96"
   height="96"
   viewBox="0 0 96 96.000005"
   version="1.1"
   id="svg5"
   sodipodi:docname="accessories-calculator.svg"
   inkscape:version="1.3.2 (091e20ef0f, 2023-11-25, custom)"
   xmlns:inkscape="http://www.inkscape.org/namespaces/inkscape"
   xmlns:sodipodi="http://sodipodi.sourceforge.net/DTD/sodipodi-0.dtd"
   xmlns:xlink="http://www.w3.org/1999/xlink"
   xmlns="http://www.w3.org/2000/svg"
   xmlns:svg="http://www.w3.org/2000/svg">
  <sodipodi:namedview
     id="namedview7"
     pagecolor="#ffffff"
     bordercolor="#666666"
     borderopacity="1.0"
     inkscape:showpageshadow="2"
     inkscape:pageopacity="0.0"
     inkscape:pagecheckerboard="0"
     inkscape:deskcolor="#d1d1d1"
     inkscape:document-units="px"
     showgrid="false"
     inkscape:zoom="8.6041667"
     inkscape:cx="48"
     inkscape:cy="48"
     inkscape:window-width="1920"
     inkscape:window-height="1011"
     inkscape:window-x="0"
     inkscape:window-y="0"
     inkscape:window-maximized="1"
     inkscape:current-layer="svg5" />
  <defs
     id="defs2">
    <linearGradient
       inkscape:collect="always"
       xlink:href="#4852"
       id="linearGradient3525"
       x1="50.115543"
       y1="59.831326"
       x2="13.735723"
       y2="4.1686749"
       gradientUnits="userSpaceOnUse"
       gradientTransform="matrix(1.5090909,0,0,1.5090909,-0.2909091,-0.2909091)" />
    <linearGradient
       inkscape:collect="always"
       id="4852">
      <stop
         style="stop-color:#333333;stop-opacity:1"
         offset="0"
         id="stop14555" />
      <stop
         style="stop-color:#666666;stop-opacity:1"
         offset="1"
         id="stop14557" />
    </linearGradient>
    <linearGradient
       inkscape:collect="always"
       xlink:href="#linearGradient11839"
       id="linearGradient11841"
       x1="36.134377"
       y1="38.201565"
       x2="32"
       y2="32"
       gradientUnits="userSpaceOnUse"
       gradientTransform="matrix(6.7724868,0,0,6.7724868,-168.71958,-168.71958)" />
    <linearGradient
       inkscape:collect="always"
       id="linearGradient11839">
      <stop
         style="stop-color:#ee800d;stop-opacity:1;"
         offset="0"
         id="stop11835" />
      <stop
         style="stop-color:#eea40d;stop-opacity:1;"
         offset="1"
         id="stop11837" />
    </linearGradient>
  </defs>
  <rect
     style="fill:url(#linearGradient3525);fill-opacity:1;stroke:none;stroke-width:1.50909"
     id="rect184"
     width="83"
     height="83"
     x="6.5"
     y="6.5"
     ry="14.5" />
  <path
     id="rect11383"
     style="fill:url(#linearGradient11841);fill-opacity:1;stroke-width:13.545"
     d="M 48 48 L 48 89.5 L 75 89.5 C 83.032992 89.5 89.5 83.032992 89.5 75 L 89.5 48 L 48 48 z " />
  <path
     id="path10562"
     style="opacity:0.2;fill:#ffffff;fill-opacity:1;stroke:none"
     d="M 48 7 L 48 47 L 49 47 L 49 7 L 48 7 z M 7 48 L 7 49 L 47 49 L 47 48 L 7 48 z M 48 48 L 48 89 L 49 89 L 49 49 L 89 49 L 89 48 L 48 48 z " />
  <path
     id="path9077"
     style="opacity:0.2;fill:#000000;fill-opacity:1;stroke:none"
     d="M 47 7 L 47 47 L 7 47 L 7 48 L 47 48 L 47 89 L 48 89 L 48 48 L 89 48 L 89 47 L 48 47 L 48 7 L 47 7 z " />
  <path
     d="m 60,71 v 4 H 76 V 71 M 60,63 v 4 h 16 v -4 m 0,-36 v 4 H 60 V 27 Z M 20,61 v 2 c 0,0.55228 0.20056,1.07556 0.5625,1.4375 L 25.125,69 20.5625,73.5625 C 20.20056,73.92444 20,74.44772 20,75 v 2 h 2 c 0.55228,0 1.07556,-0.20056 1.4375,-0.5625 L 28,71.875 32.5625,76.4375 C 32.92444,76.79944 33.44772,77 34,77 h 2 v -2 c 0,-0.55228 -0.20056,-1.07556 -0.5625,-1.4375 L 30.875,69 35.4375,64.4375 C 35.79944,64.07556 36,63.55228 36,63 v -2 h -2 c -0.55228,0 -1.07556,0.20056 -1.4375,0.5625 L 28,66.125 23.4375,61.5625 C 23.07556,61.20056 22.55228,61 22,61 Z m 6,-34 v -6 h 4 v 6 h 6 v 4 h -6 v 6 h -4 v -6 h -6 v -4 z"
     style="font-style:normal;font-variant:normal;font-weight:normal;font-stretch:normal;font-size:9.88142px;line-height:125%;font-family:Helvetica;-inkscape-font-specification:Helvetica;letter-spacing:0px;word-spacing:0px;display:inline;opacity:0.2;fill:#000000;fill-opacity:1;stroke:none;stroke-width:2;enable-background:new"
     id="path26400"
     sodipodi:nodetypes="ccccccccccccccsscsscsscsscsscsscsscsscccccccccccccc" />
  <path
     d="m 60,70.000002 v 4.000002 h 16 v -4.000002 m -16,-8 v 4 h 16 v -4 m 0,-36 v 4 H 60 v -4 z m -56,34 v 2 c 0,0.55228 0.20056,1.07556 0.5625,1.4375 l 4.5625,4.5625 -4.5625,4.562502 C 20.20056,72.924444 20,73.447724 20,74.000004 v 2 h 2 c 0.55228,0 1.07556,-0.20056 1.4375,-0.5625 L 28,70.875002 l 4.5625,4.562502 c 0.36194,0.36194 0.88522,0.5625 1.4375,0.5625 h 2 v -2 c 0,-0.55228 -0.20056,-1.07556 -0.5625,-1.4375 l -4.5625,-4.562502 4.5625,-4.5625 C 35.79944,63.075562 36,62.552282 36,62.000002 v -2 h -2 c -0.55228,0 -1.07556,0.20056 -1.4375,0.5625 l -4.5625,4.5625 -4.5625,-4.5625 c -0.36194,-0.36194 -0.88522,-0.5625 -1.4375,-0.5625 z m 6,-34 V 20 h 4 v 6.000002 h 6 v 4 h -6 v 6 h -4 v -6 h -6 v -4 z"
     style="font-style:normal;font-variant:normal;font-weight:normal;font-stretch:normal;font-size:9.88142px;line-height:125%;font-family:Helvetica;-inkscape-font-specification:Helvetica;letter-spacing:0px;word-spacing:0px;display:inline;fill:#ffffff;fill-opacity:1;stroke:none;stroke-width:2;enable-background:new"
     id="path26586" />
  <path
     id="rect2630"
     style="opacity:0.3;fill:#ffffff;fill-opacity:1;stroke-width:1.5"
     d="M 21 7 C 13.244016 7 7 13.244016 7 21 L 7 22 C 7 14.244016 13.244016 8 21 8 L 75 8 C 82.755984 8 89 14.244016 89 22 L 89 21 C 89 13.244016 82.755984 7 75 7 L 21 7 z " />
  <path
     id="rect899"
     style="opacity:0.6;fill:#000000;stroke:none;stroke-width:1.5"
     d="M 21,6 C 12.690016,6 6,12.690016 6,21 v 54 c 0,8.309983 6.690016,15 15,15 h 54 c 8.309983,0 15,-6.690017 15,-15 V 21 C 90,12.690016 83.309983,6 75,6 Z m 0,1 h 54 c 7.755992,0 14,6.244008 14,14 v 54 c 0,7.755992 -6.244008,14 -14,14 H 21 C 13.244008,89 7,82.755992 7,75 V 21 C 7,13.244008 13.244008,7 21,7 Z" />
  <path
     id="rect398"
     style="opacity:0.3;fill:#ffffff;stroke-width:1.5"
     d="M 7 74 L 7 75 C 7 82.755984 13.244016 89 21 89 L 75 89 C 82.755984 89 89 82.755984 89 75 L 89 74 C 89 81.755982 82.755984 88 75 88 L 21 88 C 13.244016 88 7 81.755982 7 74 z " />
</svg>
