<?xml version="1.0" encoding="UTF-8" standalone="no"?>
<!-- Created with Inkscape (http://www.inkscape.org/) -->

<svg
   width="96"
   height="96"
   viewBox="0 0 96 96.000005"
   version="1.1"
   id="svg5"
   sodipodi:docname="akonadi.svg"
   inkscape:version="1.3.2 (091e20ef0f, 2023-11-25, custom)"
   xmlns:inkscape="http://www.inkscape.org/namespaces/inkscape"
   xmlns:sodipodi="http://sodipodi.sourceforge.net/DTD/sodipodi-0.dtd"
   xmlns:xlink="http://www.w3.org/1999/xlink"
   xmlns="http://www.w3.org/2000/svg"
   xmlns:svg="http://www.w3.org/2000/svg">
  <sodipodi:namedview
     id="namedview7"
     pagecolor="#ffffff"
     bordercolor="#666666"
     borderopacity="1.0"
     inkscape:showpageshadow="2"
     inkscape:pageopacity="0.0"
     inkscape:pagecheckerboard="0"
     inkscape:deskcolor="#d1d1d1"
     inkscape:document-units="px"
     showgrid="false"
     inkscape:zoom="8.6041667"
     inkscape:cx="48"
     inkscape:cy="48"
     inkscape:window-width="1920"
     inkscape:window-height="1011"
     inkscape:window-x="0"
     inkscape:window-y="0"
     inkscape:window-maximized="1"
     inkscape:current-layer="svg5" />
  <defs
     id="defs2">
    <linearGradient
       inkscape:collect="always"
       xlink:href="#linearGradient2466"
       id="linearGradient3525"
       x1="50.115543"
       y1="59.831326"
       x2="13.735723"
       y2="4.1686749"
       gradientUnits="userSpaceOnUse"
       gradientTransform="matrix(1.5090909,0,0,1.5090909,-0.2909091,-0.2909091)" />
    <linearGradient
       inkscape:collect="always"
       id="linearGradient2466">
      <stop
         style="stop-color:#366ecb;stop-opacity:1;"
         offset="0"
         id="stop2462" />
      <stop
         style="stop-color:#3694cb;stop-opacity:1;"
         offset="1"
         id="stop2464" />
    </linearGradient>
  </defs>
  <rect
     style="fill:url(#linearGradient3525);fill-opacity:1;stroke:none;stroke-width:1.50909"
     id="rect184"
     width="83"
     height="83"
     x="6.5"
     y="6.5"
     ry="14.5" />
  <path
     d="m 48,24.185663 c -1.227548,0.0014 -2.453397,0.09151 -3.667969,0.269532 1.227111,0.898643 2.39008,1.951721 3.480469,3.117188 3.506637,3.748089 6.435798,8.722828 8.917968,14.115234 0.0117,0.02533 0.02352,0.05082 0.03516,0.07617 6.124321,1.200751 11.86896,2.807772 16.482422,4.365234 C 71.517262,33.72981 60.87598,24.185663 48,24.185663 Z M 35.255859,23.500117 c -7.956027,4.593753 -12.853279,12.443514 -13.992188,20.89453 2.25812,-1.707375 5.033706,-2.848168 8.041993,-3.547851 2.499618,-0.581374 5.193547,-0.883002 8.000976,-0.972657 2.807427,-0.08966 5.728075,0.03432 8.683594,0.307617 2.678794,0.247712 5.381954,0.624114 8.047851,1.083987 C 49.268352,31.384301 42.935341,23.464847 35.255859,23.500117 Z M 76.5,49.685665 c 0,15.739502 -12.7605,28.500001 -28.5,28.500001 -15.739502,0 -28.5,-12.760499 -28.5,-28.500001 7.966948,-13.946852 43.123498,-5.425051 57,0 z"
     style="color:#000000;opacity:0.2;fill:#000000;stroke:none;stroke-width:4.5"
     id="path1252" />
  <path
     id="path984"
     d="m 48,23.185663 c -1.227548,0.0014 -2.453397,0.09152 -3.667969,0.269533 1.227111,0.898642 2.39008,1.95172 3.480469,3.117187 3.506637,3.748089 6.435798,8.722828 8.917968,14.115234 0.0117,0.02533 0.02352,0.05082 0.03516,0.07617 6.124321,1.200752 11.86896,2.807772 16.482422,4.365234 C 71.517262,32.72981 60.87598,23.185663 48,23.185663 Z"
     sodipodi:nodetypes="ccssccc"
     style="fill:#d0e6ff;fill-opacity:1;stroke-width:1.5" />
  <path
     id="path969"
     style="color:#000000;fill:#caedfc;fill-opacity:1;stroke:none;stroke-width:4.5"
     d="m 35.255859,22.500117 c -7.956027,4.593753 -12.853279,12.443514 -13.992188,20.89453 2.25812,-1.707375 5.033706,-2.848168 8.041993,-3.547851 2.499618,-0.581374 5.193547,-0.883002 8.000976,-0.972657 2.807427,-0.08966 5.728075,0.03432 8.683594,0.307617 2.678794,0.247712 5.381954,0.624114 8.047851,1.083987 C 49.268352,30.384301 42.935341,22.464847 35.255859,22.500117 Z"
     sodipodi:nodetypes="ccssscc" />
  <path
     style="color:#000000;fill:#ffffff;stroke:none;stroke-width:4.5"
     d="m 76.5,48.685664 c 0,15.739501 -12.7605,28.500001 -28.5,28.500001 -15.739502,0 -28.5,-12.7605 -28.5,-28.500001 7.966948,-13.94685 43.123498,-5.42505 57,0 z"
     id="path951"
     sodipodi:nodetypes="cscc" />
  <path
     id="rect2630"
     style="opacity:0.3;fill:#ffffff;fill-opacity:1;stroke-width:1.5"
     d="M 21 7 C 13.244016 7 7 13.244016 7 21 L 7 22 C 7 14.244016 13.244016 8 21 8 L 75 8 C 82.755984 8 89 14.244016 89 22 L 89 21 C 89 13.244016 82.755984 7 75 7 L 21 7 z " />
  <path
     id="rect899"
     style="opacity:0.6;fill:#000000;stroke:none;stroke-width:1.5"
     d="M 21,6 C 12.690016,6 6,12.690016 6,21 v 54 c 0,8.309983 6.690016,15 15,15 h 54 c 8.309983,0 15,-6.690017 15,-15 V 21 C 90,12.690016 83.309983,6 75,6 Z m 0,1 h 54 c 7.755992,0 14,6.244008 14,14 v 54 c 0,7.755992 -6.244008,14 -14,14 H 21 C 13.244008,89 7,82.755992 7,75 V 21 C 7,13.244008 13.244008,7 21,7 Z" />
  <path
     id="rect398"
     style="opacity:0.3;fill:#ffffff;stroke-width:1.5"
     d="M 7 74 L 7 75 C 7 82.755984 13.244016 89 21 89 L 75 89 C 82.755984 89 89 82.755984 89 75 L 89 74 C 89 81.755982 82.755984 88 75 88 L 21 88 C 13.244016 88 7 81.755982 7 74 z " />
</svg>
