<?xml version="1.0" encoding="UTF-8" standalone="no"?>
<!-- Created with Inkscape (http://www.inkscape.org/) -->

<svg
   width="96"
   height="96"
   viewBox="0 0 96 96.000005"
   version="1.1"
   id="svg5"
   sodipodi:docname="applications-science.svg"
   inkscape:version="1.3.2 (091e20ef0f, 2023-11-25, custom)"
   xmlns:inkscape="http://www.inkscape.org/namespaces/inkscape"
   xmlns:sodipodi="http://sodipodi.sourceforge.net/DTD/sodipodi-0.dtd"
   xmlns:xlink="http://www.w3.org/1999/xlink"
   xmlns="http://www.w3.org/2000/svg"
   xmlns:svg="http://www.w3.org/2000/svg">
  <sodipodi:namedview
     id="namedview7"
     pagecolor="#ffffff"
     bordercolor="#666666"
     borderopacity="1.0"
     inkscape:showpageshadow="2"
     inkscape:pageopacity="0.0"
     inkscape:pagecheckerboard="0"
     inkscape:deskcolor="#d1d1d1"
     inkscape:document-units="px"
     showgrid="false"
     inkscape:zoom="8.6041667"
     inkscape:cx="48"
     inkscape:cy="48"
     inkscape:window-width="1920"
     inkscape:window-height="1011"
     inkscape:window-x="0"
     inkscape:window-y="0"
     inkscape:window-maximized="1"
     inkscape:current-layer="svg5" />
  <defs
     id="defs2">
    <linearGradient
       inkscape:collect="always"
       xlink:href="#linearGradient1918"
       id="linearGradient15179"
       x1="24"
       y1="44.74699"
       x2="24"
       y2="3.2530122"
       gradientUnits="userSpaceOnUse"
       gradientTransform="matrix(2.0243902,0,0,2.0243902,-0.585366,-0.585366)" />
    <linearGradient
       inkscape:collect="always"
       id="linearGradient1918">
      <stop
         style="stop-color:#ff8d18;stop-opacity:1;"
         offset="0"
         id="stop1914" />
      <stop
         style="stop-color:#c94c41;stop-opacity:1;"
         offset="1"
         id="stop1916" />
    </linearGradient>
  </defs>
  <rect
     style="fill:url(#linearGradient15179);fill-opacity:1;stroke:none;stroke-width:2.02439"
     id="rect184"
     width="83"
     height="83"
     x="6.5"
     y="6.5"
     ry="14.5" />
  <path
     d="m 44.999368,15 c -1.656854,0 -3,1.343146 -3,3 0.0013,0.395814 0.081,0.78745 0.23438,1.15234 -2.45776,1.901038 -4.62288,4.978518 -6.32032,8.89062 -1.47126,-0.1738 -2.88908,-0.25872 -4.22656,-0.23046 -5.33626,0.1128 -9.442,1.83946 -11.374998,5.1875 -2.18336,3.7817 -1.15622,8.97618 2.312498,14.3125 0.41262,-0.53668 0.79654,-1.09266 1.25,-1.625 C 21.09839,41.24018 20.23261,37.0601 21.999368,34 c 1.9965,-3.45806 6.91262,-4.78066 13.16796,-4.11718 -1.99016,5.3342 -3.16796,11.9498 -3.16796,19.11718 0,2.05836 0.0994,4.0693 0.28516,6.01954 -1.72432,-1.45718 -3.28998,-2.95202 -4.66016,-4.45704 -0.41974,0.5276 -0.82414,1.04372 -1.1875,1.5625 1.78812,1.96046 3.86462,3.89548 6.1914,5.74218 1.92316,13.3573 8.0736,23.13282 15.3711,23.13282 4.83192,0 9.16002,-4.290258 12.09376,-11.0625 7.31664,0.8425 13.17874,-0.75462 15.59374,-4.9375 0.03,-0.0522 0.0532,-0.1076 0.082,-0.1602 1.256944,0.248128 2.532744,-0.329356 3.17578,-1.4375 0.828214,-1.434676 0.336818,-3.269102 -1.09766,-4.09766 -0.347496,-0.1991 -0.731342,-0.326606 -1.1289,-0.375 -0.34096,-2.5781 -1.48888,-5.38862 -3.34376,-8.24218 -0.41262,0.53668 -0.79654,1.09266 -1.25,1.625 1.53744,2.4631 2.48368,4.84182 2.72656,6.9961 -0.456786,0.261622 -0.83669,0.63883 -1.10156,1.09374 -0.63379,1.102274 -0.503878,2.484362 0.32422,3.44922 -0.0266,0.0488 -0.0464,0.1002 -0.0742,0.1484 -1.9965,3.45806 -6.91262,4.78066 -13.16796,4.11718 1.99018,-5.33412 3.16798,-11.94972 3.16798,-19.1171 0,-2.05836 -0.0994,-4.0693 -0.28516,-6.01954 1.72432,1.45718 3.28998,2.95202 4.66016,4.45704 0.41974,-0.5276 0.82414,-1.04372 1.1875,-1.5625 -1.78812,-1.96046 -3.86462,-3.89548 -6.1914,-5.74218 C 61.447308,26.77552 55.296868,17 47.999368,17 c -0.0562,0 -0.1118,0.006 -0.168,0.008 -0.421514,-1.203034 -1.55726,-2.008322 -2.832,-2.008 z m 3,4 c 5.99024,0 11.087,8.0775 13.08594,19.41406 -1.5997,-1.1477 -3.29128,-2.2529 -5.08594,-3.28906 -0.9318,-0.53798 -1.87838,-1.02058 -2.8125,-1.5 -0.86184,0.27664 -1.74128,0.60112 -2.625,0.9375 1.47702,0.70474 2.95692,1.4577 4.4375,2.3125 2.34426,1.35346 4.51442,2.81222 6.50782,4.33204 0.31208,2.48876 0.49218,5.09306 0.49218,7.79296 0,7.1453 -1.16712,13.70274 -3.11328,18.85546 -1.76238,-0.28882 -3.60672,-0.7167 -5.51172,-1.29296 -0.89196,0.43936 -1.79868,0.80166 -2.6875,1.1875 2.57536,0.88138 5.07628,1.50994 7.45704,1.91016 C 55.593268,75.410082 51.993768,79 47.999368,79 c -5.99024,0 -11.087,-8.0775 -13.08594,-19.41406 1.5997,1.1477 3.29128,2.2529 5.08594,3.28906 0.9318,0.53798 1.87838,1.02058 2.8125,1.5 0.86184,-0.27664 1.74128,-0.60112 2.625,-0.9375 -1.47702,-0.70474 -2.95692,-1.4577 -4.4375,-2.3125 -2.34426,-1.35346 -4.51442,-2.81222 -6.50782,-4.33204 C 34.179468,54.3042 33.999368,51.6999 33.999368,49 c 0,-7.1453 1.16712,-13.70274 3.11328,-18.85546 1.76238,0.28882 3.60672,0.7167 5.51172,1.29296 0.89196,-0.43936 1.79868,-0.80166 2.6875,-1.1875 -2.5685,-0.87904 -5.07008,-1.52256 -7.44922,-1.92968 1.54384,-3.474202 3.4697,-6.154962 5.63672,-7.73048 0.455258,0.266186 0.97264,0.407658 1.5,0.41016 1.263902,-0.0034 2.390164,-0.798412 2.8164,-1.98828 0.06156,-0.0017 0.12184,-0.0118 0.1836,-0.0118 z m 16.3125,8.8125 c -0.68214,-0.014 -1.40616,0.0254 -2.125,0.0624 0.24432,0.59152 0.46478,1.25382 0.6875,1.875 5.27228,-0.1948 9.35066,1.17676 11.125,4.25 2.74106,4.74762 -0.7567,12.21748 -8.125,19.125 -0.06,0.97716 -0.1484,1.92546 -0.25,2.875 9.0871,-7.95436 13.4414,-17.14758 10.0625,-23 -1.933,-3.34804 -6.03874,-5.07478 -11.375,-5.1875 z m -8.1875,0.9375 c -5.08642,1.11206 -10.65346,3.216 -16.125,6.375 -0.93172,0.53794 -1.86782,1.1183 -2.75,1.6875 -0.1936,0.88744 -0.34762,1.81296 -0.5,2.75 1.34896,-0.92688 2.76926,-1.8326 4.25,-2.6875 5.42644,-3.13296 10.94134,-5.2343 15.875,-6.3125 -0.24314,-0.62686 -0.48546,-1.2386 -0.75,-1.8125 z m -6.88282,13.15624 c -0.57505,-0.02774 -1.145934,0.11058 -1.64452,0.39844 -0.454918,0.264866 -0.832132,0.644772 -1.09376,1.10156 -0.456784,-0.265476 -0.975574,-0.405614 -1.5039,-0.40624 -1.656854,0 -3,1.343146 -3,3 0.0026,0.52736 0.14398,1.044742 0.41016,1.5 -0.458722,0.262156 -0.840074,0.64081 -1.10548,1.09766 -0.828214,1.434676 -0.336818,3.269102 1.09766,4.09766 0.459072,0.262048 0.979234,0.398148 1.50782,0.39452 -0.0036,0.528586 0.13248,1.048748 0.39452,1.50782 0.828558,1.434478 2.662984,1.925874 4.09766,1.09766 0.458282,-0.264862 0.838328,-0.64626 1.10156,-1.10548 0.454114,0.265524 0.970064,0.406974 1.4961,0.41016 1.656854,0 3,-1.343146 3,-3 -6.26e-4,-0.528326 -0.14076,-1.047116 -0.40624,-1.5039 0.456788,-0.261628 0.836694,-0.638842 1.10156,-1.09376 0.828214,-1.434676 0.336818,-3.269102 -1.09766,-4.09766 -0.456774,-0.26072 -0.974062,-0.396772 -1.5,-0.39452 0.0012,-0.5293 -0.13756,-1.049508 -0.40234,-1.50782 -0.510178,-0.883332 -1.43425,-1.446898 -2.45314,-1.4961 z M 30.374368,42 c -9.0871,7.95436 -13.4414,17.14758 -10.062498,23 0.026,0.045 0.0592,0.0846 0.086,0.1288 -0.843472,0.96425 -0.981568,2.357714 -0.34376,3.46876 0.828558,1.434476 2.662982,1.925874 4.097658,1.09766 0.345854,-0.19862 0.64863,-0.464226 0.89062,-0.78126 2.39038,0.98292 5.38266,1.3868 8.76954,1.21094 -0.24432,-0.59152 -0.46478,-1.25382 -0.6875,-1.875 -2.9209,0.108 -5.4734,-0.26792 -7.47266,-1.14454 0.0012,-0.529292 -0.13756,-1.049492 -0.40234,-1.5078 -0.63829,-1.098782 -1.8996,-1.676236 -3.14844,-1.44142 -0.0326,-0.0532 -0.0702,-0.102 -0.1016,-0.1562 -2.74106,-4.74762 0.7567,-12.21748 8.125,-19.125 0.06,-0.97716 0.1484,-1.92546 0.25,-2.875 z m 17.21876,5.49218 c 0.45945,0.26545 0.981084,0.40429 1.5117,0.40236 -0.0019,0.530616 0.13692,1.05225 0.40236,1.5117 -0.45779,0.263784 -0.837796,0.64379 -1.10158,1.10158 -0.45716,-0.26412 -0.975928,-0.402912 -1.5039,-0.40236 7.52e-4,-0.530972 -0.13944,-1.05263 -0.40624,-1.5117 0.456352,-0.26433 0.834958,-0.64429 1.09766,-1.10158 z m 11.65624,10.94532 c -1.34896,0.92688 -2.76926,1.8326 -4.25,2.6875 -5.42644,3.13296 -10.94134,5.2343 -15.875,6.3125 0.24314,0.62686 0.48546,1.2386 0.75,1.8125 5.08642,-1.11206 10.65346,-3.216 16.125,-6.375 0.93172,-0.53794 1.86782,-1.1183 2.75,-1.6875 0.1936,-0.88744 0.34762,-1.81296 0.5,-2.75 z"
     style="color:#000000;display:inline;overflow:visible;visibility:visible;opacity:0.2;fill:#000000;fill-opacity:1;fill-rule:evenodd;stroke:none;stroke-width:6;marker:none;enable-background:new"
     id="path11549" />
  <path
     id="path3879"
     style="color:#000000;display:inline;overflow:visible;visibility:visible;fill:#ffffff;fill-opacity:1;fill-rule:evenodd;stroke:none;stroke-width:6;marker:none;enable-background:new"
     d="m 44.999368,14 c -1.656854,0 -3,1.343146 -3,3 0.0013,0.395814 0.081,0.78745 0.23438,1.15234 -2.45776,1.90104 -4.62288,4.97852 -6.32032,8.89062 -1.47126,-0.1738 -2.88908,-0.25872 -4.22656,-0.23046 -5.33626,0.1128 -9.442,1.83946 -11.374998,5.1875 -2.18336,3.7817 -1.15622,8.97618 2.312498,14.3125 0.41262,-0.53668 0.79654,-1.09266 1.25,-1.625 C 21.09839,40.24018 20.23261,36.0601 21.999368,33 c 1.9965,-3.45806 6.91262,-4.78066 13.16796,-4.11718 -1.99016,5.3342 -3.16796,11.9498 -3.16796,19.11718 0,2.05836 0.0994,4.0693 0.28516,6.01954 -1.72432,-1.45718 -3.28998,-2.95202 -4.66016,-4.45704 -0.41974,0.5276 -0.82414,1.04372 -1.1875,1.5625 1.78812,1.96046 3.86462,3.89548 6.1914,5.74218 1.92316,13.3573 8.0736,23.13282 15.3711,23.13282 4.83192,0 9.16002,-4.29026 12.09376,-11.0625 7.31664,0.8425 13.17874,-0.75462 15.59374,-4.9375 0.03,-0.0522 0.0532,-0.1076 0.082,-0.1602 1.256944,0.248128 2.532744,-0.329356 3.17578,-1.4375 0.828214,-1.434676 0.336818,-3.269102 -1.09766,-4.09766 -0.347496,-0.1991 -0.731342,-0.326606 -1.1289,-0.375 -0.34096,-2.5781 -1.48888,-5.38862 -3.34376,-8.24218 -0.41262,0.53668 -0.79654,1.09266 -1.25,1.625 1.53744,2.4631 2.48368,4.84182 2.72656,6.9961 -0.456786,0.261622 -0.83669,0.63883 -1.10156,1.09374 -0.63379,1.102274 -0.503878,2.484362 0.32422,3.44922 -0.0266,0.0488 -0.0464,0.1002 -0.0742,0.1484 -1.9965,3.45806 -6.91262,4.78066 -13.16796,4.11718 1.99018,-5.33412 3.16798,-11.94972 3.16798,-19.1171 0,-2.05836 -0.0994,-4.0693 -0.28516,-6.01954 1.72432,1.45718 3.28998,2.95202 4.66016,4.45704 0.41974,-0.5276 0.82414,-1.04372 1.1875,-1.5625 -1.78812,-1.96046 -3.86462,-3.89548 -6.1914,-5.74218 C 61.447308,25.77552 55.296868,16 47.999368,16 c -0.0562,0 -0.1118,0.006 -0.168,0.008 -0.421514,-1.203034 -1.55726,-2.008322 -2.832,-2.008 z m 3,4 c 5.99024,0 11.087,8.0775 13.08594,19.41406 -1.5997,-1.1477 -3.29128,-2.2529 -5.08594,-3.28906 -0.9318,-0.53798 -1.87838,-1.02058 -2.8125,-1.5 -0.86184,0.27664 -1.74128,0.60112 -2.625,0.9375 1.47702,0.70474 2.95692,1.4577 4.4375,2.3125 2.34426,1.35346 4.51442,2.81222 6.50782,4.33204 0.31208,2.48876 0.49218,5.09306 0.49218,7.79296 0,7.1453 -1.16712,13.70274 -3.11328,18.85546 -1.76238,-0.28882 -3.60672,-0.7167 -5.51172,-1.29296 -0.89196,0.43936 -1.79868,0.80166 -2.6875,1.1875 2.57536,0.88138 5.07628,1.50994 7.45704,1.91016 C 55.593268,74.41008 51.993768,78 47.999368,78 c -5.99024,0 -11.087,-8.0775 -13.08594,-19.41406 1.5997,1.1477 3.29128,2.2529 5.08594,3.28906 0.9318,0.53798 1.87838,1.02058 2.8125,1.5 0.86184,-0.27664 1.74128,-0.60112 2.625,-0.9375 -1.47702,-0.70474 -2.95692,-1.4577 -4.4375,-2.3125 -2.34426,-1.35346 -4.51442,-2.81222 -6.50782,-4.33204 C 34.179468,53.3042 33.999368,50.6999 33.999368,48 c 0,-7.1453 1.16712,-13.70274 3.11328,-18.85546 1.76238,0.28882 3.60672,0.7167 5.51172,1.29296 0.89196,-0.43936 1.79868,-0.80166 2.6875,-1.1875 -2.5685,-0.87904 -5.07008,-1.52256 -7.44922,-1.92968 1.54384,-3.4742 3.4697,-6.15496 5.63672,-7.73048 0.455258,0.266184 0.97264,0.407658 1.5,0.41016 1.263902,-0.0034 2.390164,-0.798412 2.8164,-1.98828 0.06156,-0.0017 0.12184,-0.0118 0.1836,-0.0118 z m 16.3125,8.8125 c -0.68214,-0.014 -1.40616,0.0254 -2.125,0.0624 0.24432,0.59152 0.46478,1.25382 0.6875,1.875 5.27228,-0.1948 9.35066,1.17676 11.125,4.25 2.74106,4.74762 -0.7567,12.21748 -8.125,19.125 -0.06,0.97716 -0.1484,1.92546 -0.25,2.875 9.0871,-7.95436 13.4414,-17.14758 10.0625,-23 -1.933,-3.34804 -6.03874,-5.07478 -11.375,-5.1875 z m -8.1875,0.9375 c -5.08642,1.11206 -10.65346,3.216 -16.125,6.375 -0.93172,0.53794 -1.86782,1.1183 -2.75,1.6875 -0.1936,0.88744 -0.34762,1.81296 -0.5,2.75 1.34896,-0.92688 2.76926,-1.8326 4.25,-2.6875 5.42644,-3.13296 10.94134,-5.2343 15.875,-6.3125 -0.24314,-0.62686 -0.48546,-1.2386 -0.75,-1.8125 z m -6.88282,13.15624 c -0.57505,-0.02774 -1.145934,0.11058 -1.64452,0.39844 -0.454918,0.264866 -0.832132,0.644772 -1.09376,1.10156 -0.456784,-0.265476 -0.975574,-0.405614 -1.5039,-0.40624 -1.656854,0 -3,1.343146 -3,3 0.0026,0.52736 0.14398,1.044742 0.41016,1.5 -0.458722,0.262156 -0.840074,0.64081 -1.10548,1.09766 -0.828214,1.434676 -0.336818,3.269102 1.09766,4.09766 0.459072,0.262048 0.979234,0.398148 1.50782,0.39452 -0.0036,0.528586 0.13248,1.048748 0.39452,1.50782 0.828558,1.434478 2.662984,1.925874 4.09766,1.09766 0.458282,-0.264862 0.838328,-0.64626 1.10156,-1.10548 0.454114,0.265524 0.970064,0.406974 1.4961,0.41016 1.656854,0 3,-1.343146 3,-3 -6.26e-4,-0.528326 -0.14076,-1.047116 -0.40624,-1.5039 0.456788,-0.261628 0.836694,-0.638842 1.10156,-1.09376 0.828214,-1.434676 0.336818,-3.269102 -1.09766,-4.09766 -0.456774,-0.260718 -0.974062,-0.396772 -1.5,-0.39452 0.0012,-0.5293 -0.13756,-1.049508 -0.40234,-1.50782 -0.510178,-0.883332 -1.43425,-1.446898 -2.45314,-1.4961 z M 30.374368,41 c -9.0871,7.95436 -13.4414,17.14758 -10.062498,23 0.026,0.045 0.0592,0.0846 0.086,0.1288 -0.843472,0.96425 -0.981568,2.357712 -0.34376,3.46876 0.828558,1.434476 2.662982,1.925872 4.097658,1.09766 0.345854,-0.19864 0.64863,-0.464228 0.89062,-0.78126 2.39038,0.98292 5.38266,1.3868 8.76954,1.21094 -0.24432,-0.59152 -0.46478,-1.25382 -0.6875,-1.875 -2.9209,0.108 -5.4734,-0.26792 -7.47266,-1.14454 0.0012,-0.529292 -0.13756,-1.049492 -0.40234,-1.5078 -0.63829,-1.098784 -1.8996,-1.676236 -3.14844,-1.44142 -0.0326,-0.0532 -0.0702,-0.102 -0.1016,-0.1562 -2.74106,-4.74762 0.7567,-12.21748 8.125,-19.125 0.06,-0.97716 0.1484,-1.92546 0.25,-2.875 z m 17.21876,5.49218 c 0.45945,0.26545 0.981084,0.40429 1.5117,0.40236 -0.0019,0.530616 0.13692,1.05225 0.40236,1.5117 -0.45779,0.263784 -0.837796,0.64379 -1.10158,1.10158 -0.45716,-0.26412 -0.975928,-0.402912 -1.5039,-0.40236 7.52e-4,-0.530972 -0.13944,-1.05263 -0.40624,-1.5117 0.456352,-0.26433 0.834958,-0.64429 1.09766,-1.10158 z m 11.65624,10.94532 c -1.34896,0.92688 -2.76926,1.8326 -4.25,2.6875 -5.42644,3.13296 -10.94134,5.2343 -15.875,6.3125 0.24314,0.62686 0.48546,1.2386 0.75,1.8125 5.08642,-1.11206 10.65346,-3.216 16.125,-6.375 0.93172,-0.53794 1.86782,-1.1183 2.75,-1.6875 0.1936,-0.88744 0.34762,-1.81296 0.5,-2.75 z"
     sodipodi:nodetypes="ccccccccccsccccscccccccccccccsccccsccscsccccsccccscsccccscccccccscccsccscccscccccccccccccccccccccccccccccccccccccccccccccccccccscc" />
  <path
     id="rect2630"
     style="opacity:0.3;fill:#ffffff;fill-opacity:1;stroke-width:1.5"
     d="M 21 7 C 13.244016 7 7 13.244016 7 21 L 7 22 C 7 14.244016 13.244016 8 21 8 L 75 8 C 82.755984 8 89 14.244016 89 22 L 89 21 C 89 13.244016 82.755984 7 75 7 L 21 7 z " />
  <path
     id="rect899"
     style="opacity:0.6;fill:#000000;stroke:none;stroke-width:1.5"
     d="M 21,6 C 12.690016,6 6,12.690016 6,21 v 54 c 0,8.309983 6.690016,15 15,15 h 54 c 8.309983,0 15,-6.690017 15,-15 V 21 C 90,12.690016 83.309983,6 75,6 Z m 0,1 h 54 c 7.755992,0 14,6.244008 14,14 v 54 c 0,7.755992 -6.244008,14 -14,14 H 21 C 13.244008,89 7,82.755992 7,75 V 21 C 7,13.244008 13.244008,7 21,7 Z" />
  <path
     id="rect398"
     style="opacity:0.3;fill:#ffffff;stroke-width:1.5"
     d="M 7 74 L 7 75 C 7 82.755984 13.244016 89 21 89 L 75 89 C 82.755984 89 89 82.755984 89 75 L 89 74 C 89 81.755982 82.755984 88 75 88 L 21 88 C 13.244016 88 7 81.755982 7 74 z " />
</svg>
