<?xml version="1.0" encoding="UTF-8" standalone="no"?>
<!-- Created with Inkscape (http://www.inkscape.org/) -->

<svg
   width="96"
   height="96"
   viewBox="0 0 96 96.000005"
   version="1.1"
   id="svg5"
   sodipodi:docname="applications-accessories.svg"
   inkscape:version="1.3.2 (091e20ef0f, 2023-11-25, custom)"
   xmlns:inkscape="http://www.inkscape.org/namespaces/inkscape"
   xmlns:sodipodi="http://sodipodi.sourceforge.net/DTD/sodipodi-0.dtd"
   xmlns:xlink="http://www.w3.org/1999/xlink"
   xmlns="http://www.w3.org/2000/svg"
   xmlns:svg="http://www.w3.org/2000/svg">
  <sodipodi:namedview
     id="namedview7"
     pagecolor="#ffffff"
     bordercolor="#666666"
     borderopacity="1.0"
     inkscape:showpageshadow="2"
     inkscape:pageopacity="0.0"
     inkscape:pagecheckerboard="0"
     inkscape:deskcolor="#d1d1d1"
     inkscape:document-units="px"
     showgrid="false"
     inkscape:zoom="8.4166667"
     inkscape:cx="48.059406"
     inkscape:cy="48.059406"
     inkscape:window-width="1920"
     inkscape:window-height="1019"
     inkscape:window-x="0"
     inkscape:window-y="0"
     inkscape:window-maximized="1"
     inkscape:current-layer="svg5" />
  <defs
     id="defs2">
    <linearGradient
       inkscape:collect="always"
       xlink:href="#linearGradient2"
       id="linearGradient15179"
       x1="24"
       y1="44.74699"
       x2="24"
       y2="3.2530122"
       gradientUnits="userSpaceOnUse"
       gradientTransform="matrix(2.0243902,0,0,2.0243902,-0.585366,-0.585366)" />
    <linearGradient
       inkscape:collect="always"
       id="linearGradient2">
      <stop
         style="stop-color:#2588d5;stop-opacity:1;"
         offset="0"
         id="stop1" />
      <stop
         style="stop-color:#95cbf5;stop-opacity:1;"
         offset="1"
         id="stop2" />
    </linearGradient>
  </defs>
  <rect
     style="fill:url(#linearGradient15179);fill-opacity:1;stroke:none;stroke-width:2.02439"
     id="rect184"
     width="83"
     height="83"
     x="6.5"
     y="6.5"
     ry="14.5" />
  <path
     d="m 44.929152,19 c -0.2262,0.0258 -0.48639,0.08976 -0.70899,0.12306 -1.32567,2.447577 -4.88994,4.319922 -4.47654,7.224609 1.49652,7.721391 2.90904,15.516279 4.36521,23.291016 -1.66779,1.409976 -3.39714,3.447849 -5.05662,5.443359 -0.1398,-0.24132 -0.2577,-0.496284 -0.43359,-0.708984 -2.49141,-2.992263 -7.71582,-1.849011 -11.63088,2.572266 -3.91641,4.420974 -5.07762,10.474713 -2.58984,13.48242 2.48997,2.998377 7.7079,1.851681 11.625,-2.572266 2.07519,-2.342427 3.32094,-5.161938 3.71484,-7.716795 l 4.06056,-3.070314 2.94726,-3.451173 0.61524,2.876955 1.56444,3.539061 c -1.96095,2.42385 -2.7297,6.487554 -1.6875,10.605471 1.44585,5.719764 5.78775,9.35493 9.69729,8.121093 3.91227,-1.24272 5.91747,-6.892401 4.47069,-12.609375 -1.34226,-5.309214 -5.17074,-8.836623 -8.84181,-8.326173 l -1.37694,-6.609375 c 4.99608,-5.932755 10.01409,-11.899269 15.01758,-17.765625 1.78218,-2.312847 -0.37308,-5.689506 -0.2931,-8.472654 -0.1728,-0.13956 -0.36582,-0.29184 -0.54492,-0.427737 -5.30262,6.166044 -10.54185,12.404169 -15.80274,18.638673 C 48.045372,35.124757 46.518072,27.024202 44.929152,19 Z m -10.17774,37.570314 c 0.57144,0.05334 1.02519,0.28173 1.33596,0.65625 1.10496,1.331607 0.37998,5.006931 -2.25588,7.980468 -2.63091,2.974977 -5.85261,3.715704 -6.95508,2.378904 -1.10439,-1.328397 -0.33189,-5.018379 2.30274,-7.992186 1.6443,-1.859337 3.52407,-2.867577 4.9629,-3.017577 0.2157,-0.0225 0.41889,-0.0237 0.60936,-0.006 z m 18.5508,5.039061 c 1.68612,0.11442 3.83361,2.249136 4.68162,5.613282 0.97332,3.845694 -0.2238,7.334859 -1.95702,7.880859 -1.73571,0.55407 -4.4037,-1.698294 -5.37303,-5.542968 -0.9747,-3.845937 0.2274,-7.326633 1.96287,-7.875 0.2169,-0.06855 0.44469,-0.09252 0.68556,-0.07617 z"
     style="display:inline;opacity:0.2;fill:#000000;fill-opacity:1;stroke:none;stroke-width:3;enable-background:new"
     id="path1" />
  <path
     d="m 44.929152,18 c -0.2262,0.0258 -0.48639,0.08976 -0.70899,0.12306 -1.32567,2.447577 -4.88994,4.319922 -4.47654,7.224609 1.49652,7.721391 2.90904,15.516279 4.36521,23.291016 -1.66779,1.409976 -3.39714,3.447849 -5.05662,5.443359 -0.1398,-0.24132 -0.2577,-0.496284 -0.43359,-0.708984 -2.49141,-2.992263 -7.71582,-1.849011 -11.63088,2.572266 -3.91641,4.420974 -5.07762,10.474713 -2.58984,13.48242 2.48997,2.998377 7.7079,1.851681 11.625,-2.572266 2.07519,-2.342427 3.32094,-5.161938 3.71484,-7.716795 l 4.06056,-3.070314 2.94726,-3.451173 0.61524,2.876955 1.56444,3.539061 c -1.96095,2.42385 -2.7297,6.487554 -1.6875,10.605471 1.44585,5.719764 5.78775,9.35493 9.69729,8.121093 3.91227,-1.24272 5.91747,-6.892401 4.47069,-12.609375 -1.34226,-5.309214 -5.17074,-8.836623 -8.84181,-8.326173 l -1.37694,-6.609375 c 4.99608,-5.932755 10.01409,-11.899269 15.01758,-17.765625 1.78218,-2.312847 -0.37308,-5.689506 -0.2931,-8.472654 -0.1728,-0.13956 -0.36582,-0.29184 -0.54492,-0.427737 -5.30262,6.166044 -10.54185,12.404169 -15.80274,18.638673 C 48.045372,34.124757 46.518072,26.024202 44.929152,18 Z m -10.17774,37.570314 c 0.57144,0.05334 1.02519,0.28173 1.33596,0.65625 1.10496,1.331607 0.37998,5.006931 -2.25588,7.980468 -2.63091,2.974977 -5.85261,3.715704 -6.95508,2.378904 -1.10439,-1.328397 -0.33189,-5.018379 2.30274,-7.992186 1.6443,-1.859337 3.52407,-2.867577 4.9629,-3.017577 0.2157,-0.0225 0.41889,-0.0237 0.60936,-0.006 z m 18.5508,5.039061 c 1.68612,0.11442 3.83361,2.249136 4.68162,5.613282 0.97332,3.845694 -0.2238,7.334859 -1.95702,7.880859 -1.73571,0.55407 -4.4037,-1.698294 -5.37303,-5.542968 -0.9747,-3.845937 0.2274,-7.326633 1.96287,-7.875 0.2169,-0.06855 0.44469,-0.09252 0.68556,-0.07617 z"
     style="display:inline;fill:#ffffff;fill-opacity:1;stroke:none;stroke-width:3;enable-background:new"
     id="path1-6" />
  <path
     id="rect2630"
     style="opacity:0.2;fill:#ffffff;fill-opacity:1;stroke-width:1.5"
     d="M 21 7 C 13.244016 7 7 13.244016 7 21 L 7 22 C 7 14.244016 13.244016 8 21 8 L 75 8 C 82.755984 8 89 14.244016 89 22 L 89 21 C 89 13.244016 82.755984 7 75 7 L 21 7 z " />
  <path
     id="rect899"
     style="opacity:0.6;fill:#000000;stroke:none;stroke-width:1.5"
     d="M 21,6 C 12.690016,6 6,12.690016 6,21 v 54 c 0,8.309983 6.690016,15 15,15 h 54 c 8.309983,0 15,-6.690017 15,-15 V 21 C 90,12.690016 83.309983,6 75,6 Z m 0,1 h 54 c 7.755992,0 14,6.244008 14,14 v 54 c 0,7.755992 -6.244008,14 -14,14 H 21 C 13.244008,89 7,82.755992 7,75 V 21 C 7,13.244008 13.244008,7 21,7 Z" />
  <path
     id="rect398"
     style="opacity:0.2;fill:#ffffff;stroke-width:1.5"
     d="M 7 74 L 7 75 C 7 82.755984 13.244016 89 21 89 L 75 89 C 82.755984 89 89 82.755984 89 75 L 89 74 C 89 81.755982 82.755984 88 75 88 L 21 88 C 13.244016 88 7 81.755982 7 74 z " />
</svg>
