<?xml version="1.0" encoding="UTF-8" standalone="no"?>
<!-- Created with Inkscape (http://www.inkscape.org/) -->

<svg
   width="96"
   height="96"
   viewBox="0 0 96 96.000005"
   version="1.1"
   id="svg5"
   sodipodi:docname="firewall.svg"
   inkscape:version="1.3.2 (091e20ef0f, 2023-11-25, custom)"
   xmlns:inkscape="http://www.inkscape.org/namespaces/inkscape"
   xmlns:sodipodi="http://sodipodi.sourceforge.net/DTD/sodipodi-0.dtd"
   xmlns:xlink="http://www.w3.org/1999/xlink"
   xmlns="http://www.w3.org/2000/svg"
   xmlns:svg="http://www.w3.org/2000/svg">
  <sodipodi:namedview
     id="namedview7"
     pagecolor="#ffffff"
     bordercolor="#666666"
     borderopacity="1.0"
     inkscape:showpageshadow="2"
     inkscape:pageopacity="0.0"
     inkscape:pagecheckerboard="0"
     inkscape:deskcolor="#d1d1d1"
     inkscape:document-units="px"
     showgrid="false"
     inkscape:zoom="8.6041667"
     inkscape:cx="48"
     inkscape:cy="48"
     inkscape:window-width="1920"
     inkscape:window-height="1011"
     inkscape:window-x="0"
     inkscape:window-y="0"
     inkscape:window-maximized="1"
     inkscape:current-layer="svg5" />
  <defs
     id="defs2">
    <linearGradient
       inkscape:collect="always"
       xlink:href="#linearGradient5495"
       id="linearGradient15179"
       x1="24"
       y1="44.74699"
       x2="24"
       y2="3.2530122"
       gradientUnits="userSpaceOnUse"
       gradientTransform="matrix(2.0243902,0,0,2.0243902,-0.585366,-0.585366)" />
    <linearGradient
       inkscape:collect="always"
       id="linearGradient1093">
      <stop
         style="stop-color:#981b1b;stop-opacity:1;"
         offset="0"
         id="stop1089" />
      <stop
         style="stop-color:#c75349;stop-opacity:1;"
         offset="1"
         id="stop1091" />
    </linearGradient>
    <linearGradient
       inkscape:collect="always"
       id="linearGradient5495">
      <stop
         style="stop-color:#d8b99f;stop-opacity:1;"
         offset="0"
         id="stop5491" />
      <stop
         style="stop-color:#e9d1c2;stop-opacity:1;"
         offset="1"
         id="stop5493" />
    </linearGradient>
    <linearGradient
       inkscape:collect="always"
       xlink:href="#linearGradient1093"
       id="linearGradient2"
       x1="48"
       y1="88"
       x2="48"
       y2="6"
       gradientUnits="userSpaceOnUse" />
  </defs>
  <rect
     style="fill:url(#linearGradient15179);fill-opacity:1;stroke:none;stroke-width:2.02439"
     id="rect184"
     width="83"
     height="83"
     x="6.5"
     y="6.5"
     ry="14.5" />
  <path
     id="path1"
     style="color:#000000;display:inline;overflow:visible;visibility:visible;fill:url(#linearGradient2);fill-opacity:1;fill-rule:nonzero;stroke:none;stroke-width:1;marker:none;enable-background:accumulate"
     d="M 21 6.5 C 16.37627 6.5 12.280376 8.6494915 9.6289062 12 L 26.5 12 C 27.330999 12 28 11.330998 28 10.5 L 28 6.5 L 21 6.5 z M 30 6.5 L 30 10.5 C 30 11.330998 30.669001 12 31.5 12 L 52.5 12 C 53.330999 12 54 11.330998 54 10.5 L 54 6.5 L 30 6.5 z M 56 6.5 L 56 10.5 C 56 11.330998 56.669001 12 57.5 12 L 78.5 12 C 79.330999 12 80 11.330998 80 10.5 L 80 7.3984375 C 78.44039 6.8278575 76.762026 6.5 75 6.5 L 56 6.5 z M 82 8.2910156 L 82 10.5 C 82 11.330998 82.669001 12 83.5 12 L 86.371094 12 C 85.177909 10.492241 83.696678 9.2243639 82 8.2910156 z M 8.2910156 14 C 7.1502977 16.073643 6.5 18.45699 6.5 21 L 6.5 26 L 14.5 26 C 15.330999 26 16 25.330999 16 24.5 L 16 15.5 C 16 14.669 15.330999 14 14.5 14 L 8.2910156 14 z M 19.5 14 C 18.669001 14 18 14.669 18 15.5 L 18 24.5 C 18 25.330999 18.669001 26 19.5 26 L 40.5 26 C 41.330999 26 42 25.330999 42 24.5 L 42 15.5 C 42 14.669 41.330999 14 40.5 14 L 19.5 14 z M 45.5 14 C 44.669001 14 44 14.669 44 15.5 L 44 24.5 C 44 25.330999 44.669001 26 45.5 26 L 66.5 26 C 67.330999 26 68 25.330999 68 24.5 L 68 15.5 C 68 14.669 67.330999 14 66.5 14 L 45.5 14 z M 71.5 14 C 70.669001 14 70 14.669 70 15.5 L 70 24.5 C 70 25.330999 70.669001 26 71.5 26 L 89.5 26 L 89.5 21 C 89.5 18.45699 88.849702 16.073643 87.708984 14 L 71.5 14 z M 6.5 28 L 6.5 40 L 26.5 40 C 27.330999 40 28 39.330999 28 38.5 L 28 29.5 C 28 28.669 27.330999 28 26.5 28 L 6.5 28 z M 31.5 28 C 30.669001 28 30 28.669 30 29.5 L 30 38.5 C 30 39.330999 30.669001 40 31.5 40 L 52.5 40 C 53.330999 40 54 39.330999 54 38.5 L 54 29.5 C 54 28.669 53.330999 28 52.5 28 L 31.5 28 z M 57.5 28 C 56.669001 28 56 28.669 56 29.5 L 56 38.5 C 56 39.330999 56.669001 40 57.5 40 L 78.5 40 C 79.330999 40 80 39.330999 80 38.5 L 80 29.5 C 80 28.669 79.330999 28 78.5 28 L 57.5 28 z M 83.5 28 C 82.669001 28 82 28.669 82 29.5 L 82 38.5 C 82 39.330999 82.669001 40 83.5 40 L 89.5 40 L 89.5 28 L 83.5 28 z M 6.5 42 L 6.5 54 L 14.5 54 C 15.330999 54 16 53.330999 16 52.5 L 16 43.5 C 16 42.669 15.330999 42 14.5 42 L 6.5 42 z M 19.5 42 C 18.669001 42 18 42.669 18 43.5 L 18 52.5 C 18 53.330999 18.669001 54 19.5 54 L 40.5 54 C 41.330999 54 42 53.330999 42 52.5 L 42 43.5 C 42 42.669 41.330999 42 40.5 42 L 19.5 42 z M 45.5 42 C 44.669001 42 44 42.669 44 43.5 L 44 52.5 C 44 53.330999 44.669001 54 45.5 54 L 66.5 54 C 67.330999 54 68 53.330999 68 52.5 L 68 43.5 C 68 42.669 67.330999 42 66.5 42 L 45.5 42 z M 71.5 42 C 70.669001 42 70 42.669 70 43.5 L 70 52.5 C 70 53.330999 70.669001 54 71.5 54 L 89.5 54 L 89.5 42 L 71.5 42 z M 6.5 56 L 6.5 68 L 26.5 68 C 27.330999 68 28 67.330999 28 66.5 L 28 57.5 C 28 56.669 27.330999 56 26.5 56 L 6.5 56 z M 31.5 56 C 30.669001 56 30 56.669 30 57.5 L 30 66.5 C 30 67.330999 30.669001 68 31.5 68 L 52.5 68 C 53.330999 68 54 67.330999 54 66.5 L 54 57.5 C 54 56.669 53.330999 56 52.5 56 L 31.5 56 z M 57.5 56 C 56.669001 56 56 56.669 56 57.5 L 56 66.5 C 56 67.330999 56.669001 68 57.5 68 L 78.5 68 C 79.330999 68 80 67.330999 80 66.5 L 80 57.5 C 80 56.669 79.330999 56 78.5 56 L 57.5 56 z M 83.5 56 C 82.669001 56 82 56.669 82 57.5 L 82 66.5 C 82 67.330999 82.669001 68 83.5 68 L 89.5 68 L 89.5 56 L 83.5 56 z M 6.5 70 L 6.5 75 C 6.5 77.54301 7.1502977 79.926357 8.2910156 82 L 14.5 82 C 15.330999 82 16 81.330999 16 80.5 L 16 71.5 C 16 70.669 15.330999 70 14.5 70 L 6.5 70 z M 19.5 70 C 18.669001 70 18 70.669 18 71.5 L 18 80.5 C 18 81.330999 18.669001 82 19.5 82 L 40.5 82 C 41.330999 82 42 81.330999 42 80.5 L 42 71.5 C 42 70.669 41.330999 70 40.5 70 L 19.5 70 z M 45.5 70 C 44.669001 70 44 70.669 44 71.5 L 44 80.5 C 44 81.330999 44.669001 82 45.5 82 L 66.5 82 C 67.330999 82 68 81.330999 68 80.5 L 68 71.5 C 68 70.669 67.330999 70 66.5 70 L 45.5 70 z M 71.5 70 C 70.669001 70 70 70.669 70 71.5 L 70 80.5 C 70 81.330999 70.669001 82 71.5 82 L 87.708984 82 C 88.849702 79.926357 89.5 77.54301 89.5 75 L 89.5 70 L 71.5 70 z M 9.6289062 84 C 12.280376 87.350508 16.37627 89.5 21 89.5 L 28 89.5 L 28 85.5 C 28 84.669001 27.330999 84 26.5 84 L 9.6289062 84 z M 31.5 84 C 30.669001 84 30 84.669001 30 85.5 L 30 89.5 L 54 89.5 L 54 85.5 C 54 84.669001 53.330999 84 52.5 84 L 31.5 84 z M 57.5 84 C 56.669001 84 56 84.669001 56 85.5 L 56 89.5 L 75 89.5 C 76.762026 89.5 78.44039 89.172142 80 88.601562 L 80 85.5 C 80 84.669001 79.330999 84 78.5 84 L 57.5 84 z M 83.5 84 C 82.669001 84 82 84.669001 82 85.5 L 82 87.708984 C 83.696678 86.775636 85.177909 85.507759 86.371094 84 L 83.5 84 z " />
  <path
     id="rect2630"
     style="opacity:0.3;fill:#ffffff;fill-opacity:1;stroke-width:1.5"
     d="M 21 7 C 13.244016 7 7 13.244016 7 21 L 7 22 C 7 14.244016 13.244016 8 21 8 L 75 8 C 82.755984 8 89 14.244016 89 22 L 89 21 C 89 13.244016 82.755984 7 75 7 L 21 7 z " />
  <path
     id="rect899"
     style="opacity:0.6;fill:#000000;stroke:none;stroke-width:1.5"
     d="M 21,6 C 12.690016,6 6,12.690016 6,21 v 54 c 0,8.309983 6.690016,15 15,15 h 54 c 8.309983,0 15,-6.690017 15,-15 V 21 C 90,12.690016 83.309983,6 75,6 Z m 0,1 h 54 c 7.755992,0 14,6.244008 14,14 v 54 c 0,7.755992 -6.244008,14 -14,14 H 21 C 13.244008,89 7,82.755992 7,75 V 21 C 7,13.244008 13.244008,7 21,7 Z" />
  <path
     id="rect398"
     style="opacity:0.3;fill:#ffffff;stroke-width:1.5"
     d="M 7 74 L 7 75 C 7 82.755984 13.244016 89 21 89 L 75 89 C 82.755984 89 89 82.755984 89 75 L 89 74 C 89 81.755982 82.755984 88 75 88 L 21 88 C 13.244016 88 7 81.755982 7 74 z " />
</svg>
