<?xml version="1.0" encoding="UTF-8" standalone="no"?>
<!-- Created with Inkscape (http://www.inkscape.org/) -->

<svg
   width="96"
   height="96"
   viewBox="0 0 96 96.000005"
   version="1.1"
   id="svg5"
   sodipodi:docname="github.svg"
   inkscape:version="1.3.2 (091e20ef0f, 2023-11-25, custom)"
   xmlns:inkscape="http://www.inkscape.org/namespaces/inkscape"
   xmlns:sodipodi="http://sodipodi.sourceforge.net/DTD/sodipodi-0.dtd"
   xmlns:xlink="http://www.w3.org/1999/xlink"
   xmlns="http://www.w3.org/2000/svg"
   xmlns:svg="http://www.w3.org/2000/svg">
  <sodipodi:namedview
     id="namedview7"
     pagecolor="#ffffff"
     bordercolor="#666666"
     borderopacity="1.0"
     inkscape:showpageshadow="2"
     inkscape:pageopacity="0.0"
     inkscape:pagecheckerboard="0"
     inkscape:deskcolor="#d1d1d1"
     inkscape:document-units="px"
     showgrid="false"
     inkscape:zoom="8.6041667"
     inkscape:cx="48"
     inkscape:cy="48"
     inkscape:window-width="1920"
     inkscape:window-height="1011"
     inkscape:window-x="0"
     inkscape:window-y="0"
     inkscape:window-maximized="1"
     inkscape:current-layer="svg5" />
  <defs
     id="defs2">
    <linearGradient
       inkscape:collect="always"
       xlink:href="#4852"
       id="linearGradient3525"
       x1="50.115543"
       y1="59.831326"
       x2="13.735723"
       y2="4.1686749"
       gradientUnits="userSpaceOnUse"
       gradientTransform="matrix(1.5090909,0,0,1.5090909,-0.2909091,-0.2909091)" />
    <linearGradient
       inkscape:collect="always"
       id="4852">
      <stop
         style="stop-color:#333333;stop-opacity:1"
         offset="0"
         id="stop14555" />
      <stop
         style="stop-color:#666666;stop-opacity:1"
         offset="1"
         id="stop14557" />
    </linearGradient>
  </defs>
  <rect
     style="fill:url(#linearGradient3525);fill-opacity:1;stroke:none;stroke-width:1.50909"
     id="rect184"
     width="83"
     height="83"
     x="6.5"
     y="6.5"
     ry="14.5" />
  <path
     d="m 48,21.001 c -15.511968,0 -28,12.488032 -28,28 0,13.444188 9.384602,24.60819 21.984376,27.347656 v -5.6875 c -7.29017,1.624996 -8.058594,-4.007812 -8.058594,-4.007812 -1.192298,-3.107876 -2.910156,-3.933594 -2.910156,-3.933594 -2.379706,-1.667834 0.17578,-1.636718 0.17578,-1.636718 2.630694,0.1898 4.015624,2.773436 4.015624,2.773436 2.337796,4.110252 5.34284,3.325316 6.835936,2.63672 0.23812,-1.737196 1.708872,-2.722432 2.457032,-3.394532 -5.819588,-0.6788 -12.5,-3.387732 -12.5,-13.695312 0,-2.935996 0.98364,-5.339534 2.660156,-7.21875 -0.2703,-0.6802 -1.17323,-4.016558 0.253906,-7.71875 0,0 0.13748,-0.04128 0.421876,-0.05468 0.853,-0.0402 2.76944,0.74097 6.523438,3.351562 2.219582,-0.644174 4.932158,-0.735158 6.95703,-0.761718 2.373924,-0.03114 4.830508,0.10754 7,0.761718 3.752792,-2.610734 6.15175,-3.395268 7.003906,-3.355468 h 0.004 c 0.284056,0.0132 0.421876,0.0586 0.421876,0.0586 1.430336,3.702192 0.526512,7.03839 0.257812,7.71875 C 65.18356,44.063804 66,46.463456 66,49.399452 c 0,10.33398 -6.127738,13.01421 -11.964844,13.679686 0.93962,0.8306 1.976562,2.06973 1.976562,4.578126 0,0.993418 -0.0044,3.358664 -0.0078,5.449218 v 2.726564 C 67.589518,72.405648 76,61.727534 76,49.001014 c 0,-15.511968 -12.488034,-28 -28,-28 z"
     id="path412"
     sodipodi:nodetypes="csccccccccsccscscccccscsccscc"
     style="opacity:0.2;fill:#000000;stroke-width:2" />
  <path
     d="m 48,20 c -15.511968,0 -28,12.488032 -28,28 0,13.444188 9.384602,24.608192 21.984376,27.347658 v -5.6875 c -7.29017,1.624996 -8.058594,-4.007812 -8.058594,-4.007812 -1.192298,-3.107876 -2.910156,-3.933596 -2.910156,-3.933596 -2.379706,-1.667834 0.17578,-1.636718 0.17578,-1.636718 2.630694,0.1898 4.015624,2.773438 4.015624,2.773438 2.337796,4.110252 5.34284,3.325316 6.835936,2.63672 0.23812,-1.737196 1.708872,-2.722432 2.457032,-3.394534 -5.819588,-0.6788 -12.5,-3.387732 -12.5,-13.695312 0,-2.935996 0.98364,-5.339534 2.660156,-7.21875 -0.2703,-0.6802 -1.17323,-4.016558 0.253906,-7.71875 0,0 0.13748,-0.04128 0.421876,-0.05468 0.853,-0.0402 2.76944,0.74097 6.523438,3.351562 2.219582,-0.644174 4.932158,-0.735158 6.95703,-0.761718 2.373924,-0.03114 4.830508,0.10754 7,0.761718 3.752792,-2.610734 6.15175,-3.395268 7.003906,-3.355468 h 0.004 c 0.284056,0.0132 0.421876,0.0586 0.421876,0.0586 1.430336,3.702192 0.526512,7.03839 0.257812,7.71875 C 65.18356,43.062804 66,45.462456 66,48.398452 c 0,10.33398 -6.127738,13.01421 -11.964844,13.679686 0.93962,0.830602 1.976562,2.069732 1.976562,4.578128 0,0.993418 -0.0044,3.358664 -0.0078,5.449218 v 2.726564 C 67.589518,71.40465 76,60.726534 76,48.000014 c 0,-15.511968 -12.488034,-28 -28,-28 z"
     id="path630"
     style="fill:#ffffff;stroke-width:2" />
  <path
     id="rect2630"
     style="opacity:0.3;fill:#ffffff;fill-opacity:1;stroke-width:1.5"
     d="M 21 7 C 13.244016 7 7 13.244016 7 21 L 7 22 C 7 14.244016 13.244016 8 21 8 L 75 8 C 82.755984 8 89 14.244016 89 22 L 89 21 C 89 13.244016 82.755984 7 75 7 L 21 7 z " />
  <path
     id="rect899"
     style="opacity:0.6;fill:#000000;stroke:none;stroke-width:1.5"
     d="M 21,6 C 12.690016,6 6,12.690016 6,21 v 54 c 0,8.309983 6.690016,15 15,15 h 54 c 8.309983,0 15,-6.690017 15,-15 V 21 C 90,12.690016 83.309983,6 75,6 Z m 0,1 h 54 c 7.755992,0 14,6.244008 14,14 v 54 c 0,7.755992 -6.244008,14 -14,14 H 21 C 13.244008,89 7,82.755992 7,75 V 21 C 7,13.244008 13.244008,7 21,7 Z" />
  <path
     id="rect398"
     style="opacity:0.3;fill:#ffffff;stroke-width:1.5"
     d="M 7 74 L 7 75 C 7 82.755984 13.244016 89 21 89 L 75 89 C 82.755984 89 89 82.755984 89 75 L 89 74 C 89 81.755982 82.755984 88 75 88 L 21 88 C 13.244016 88 7 81.755982 7 74 z " />
</svg>
