<?xml version="1.0" encoding="UTF-8" standalone="no"?>
<!-- Created with Inkscape (http://www.inkscape.org/) -->

<svg
   width="96"
   height="96"
   viewBox="0 0 96 96.000005"
   version="1.1"
   id="svg5"
   sodipodi:docname="internet-web-browser.svg"
   inkscape:version="1.3.2 (091e20ef0f, 2023-11-25, custom)"
   xmlns:inkscape="http://www.inkscape.org/namespaces/inkscape"
   xmlns:sodipodi="http://sodipodi.sourceforge.net/DTD/sodipodi-0.dtd"
   xmlns:xlink="http://www.w3.org/1999/xlink"
   xmlns="http://www.w3.org/2000/svg"
   xmlns:svg="http://www.w3.org/2000/svg">
  <sodipodi:namedview
     id="namedview7"
     pagecolor="#ffffff"
     bordercolor="#666666"
     borderopacity="1.0"
     inkscape:showpageshadow="2"
     inkscape:pageopacity="0.0"
     inkscape:pagecheckerboard="0"
     inkscape:deskcolor="#d1d1d1"
     inkscape:document-units="px"
     showgrid="false"
     inkscape:zoom="8.6041667"
     inkscape:cx="48"
     inkscape:cy="48"
     inkscape:window-width="1920"
     inkscape:window-height="1011"
     inkscape:window-x="0"
     inkscape:window-y="0"
     inkscape:window-maximized="1"
     inkscape:current-layer="svg5" />
  <defs
     id="defs2">
    <linearGradient
       inkscape:collect="always"
       xlink:href="#linearGradient4152"
       id="linearGradient15179"
       x1="24"
       y1="44.74699"
       x2="24"
       y2="3.2530122"
       gradientUnits="userSpaceOnUse"
       gradientTransform="matrix(2.0243902,0,0,2.0243902,-0.585366,-0.585366)" />
    <linearGradient
       inkscape:collect="always"
       id="linearGradient4152">
      <stop
         style="stop-color:#548ed7;stop-opacity:1;"
         offset="0"
         id="stop4148" />
      <stop
         style="stop-color:#64c792;stop-opacity:1;"
         offset="1"
         id="stop4150" />
    </linearGradient>
  </defs>
  <rect
     style="fill:url(#linearGradient15179);fill-opacity:1;stroke:none;stroke-width:2.02439"
     id="rect184"
     width="83"
     height="83"
     x="6.5"
     y="6.5"
     ry="14.5" />
  <path
     d="m 48,19 -2,4.14454 C 33.268268,24.15774 23.157742,34.268282 22.144532,47.000002 l -4.144532,2 4.144532,2 C 23.157742,63.731722 33.268268,73.842264 46,74.855464 l 2,4.14454 2,-4.14454 c 12.731732,-1.0132 22.842258,-11.123742 23.855468,-23.855462 l 4.144532,-2 -4.085938,-2 C 72.924354,34.225022 62.774984,24.07564 50,23.08594 Z m 0,6.000002 c 13.254834,0 24,10.745166 24,24 0,13.254834 -10.745166,24.000002 -24,24.000002 -13.254834,0 -24,-10.745168 -24,-24.000002 0,-13.254834 10.745166,-24 24,-24 z"
     style="opacity:0.2;fill:#000000;stroke-width:14.6969;stroke-linecap:round;stroke-linejoin:round"
     id="path12134" />
  <path
     id="path1327"
     style="fill:#ffffff;stroke-width:14.6969;stroke-linecap:round;stroke-linejoin:round"
     d="m 48,18 -2,4.14454 C 33.268268,23.15774 23.157742,33.26828 22.144532,46 L 18,48 22.144532,50 C 23.157742,62.73172 33.268268,72.84226 46,73.85546 L 48,78 50,73.85546 C 62.731732,72.84226 72.842258,62.73172 73.855468,50 L 78,48 73.914062,46 C 72.924354,33.22502 62.774984,23.07564 50,22.08594 Z m 0,6 C 61.254834,24 72,34.745166 72,48 72,61.254834 61.254834,72 48,72 34.745166,72 24,61.254834 24,48 24,34.745166 34.745166,24 48,24 Z"
     sodipodi:nodetypes="cccccccccccccsssss" />
  <path
     id="rect1874"
     style="opacity:0.2;fill:#000000;stroke-width:18;stroke-linecap:round;stroke-linejoin:round"
     d="M 74.333998,22.665998 51.181978,52.181976 21.666,75.333996 44.818018,45.818016 Z"
     sodipodi:nodetypes="ccccc" />
  <g
     id="g1911"
     transform="matrix(4.2426408,4.2426408,-4.2426408,4.2426408,48,-15.639615)">
    <path
       id="rect1776"
       style="opacity:1;fill:#f2f2f2;stroke-width:2.86039;stroke-linecap:round;stroke-linejoin:round"
       d="m 6.7499999,7.5 h 1.4999995 l -0.749999,6.206984 z"
       sodipodi:nodetypes="cccc" />
    <path
       id="rect1779"
       style="opacity:1;fill:#ff5555;stroke-width:3;stroke-linecap:round;stroke-linejoin:round"
       d="M 7.5000004,1.2930166 8.2499994,7.5 H 6.7499999 Z"
       sodipodi:nodetypes="cccc" />
  </g>
  <path
     id="rect2630"
     style="opacity:0.3;fill:#ffffff;fill-opacity:1;stroke-width:1.5"
     d="M 21 7 C 13.244016 7 7 13.244016 7 21 L 7 22 C 7 14.244016 13.244016 8 21 8 L 75 8 C 82.755984 8 89 14.244016 89 22 L 89 21 C 89 13.244016 82.755984 7 75 7 L 21 7 z " />
  <path
     id="rect899"
     style="opacity:0.6;fill:#000000;stroke:none;stroke-width:1.5"
     d="M 21,6 C 12.690016,6 6,12.690016 6,21 v 54 c 0,8.309983 6.690016,15 15,15 h 54 c 8.309983,0 15,-6.690017 15,-15 V 21 C 90,12.690016 83.309983,6 75,6 Z m 0,1 h 54 c 7.755992,0 14,6.244008 14,14 v 54 c 0,7.755992 -6.244008,14 -14,14 H 21 C 13.244008,89 7,82.755992 7,75 V 21 C 7,13.244008 13.244008,7 21,7 Z" />
  <path
     id="rect398"
     style="opacity:0.3;fill:#ffffff;stroke-width:1.5"
     d="M 7 74 L 7 75 C 7 82.755984 13.244016 89 21 89 L 75 89 C 82.755984 89 89 82.755984 89 75 L 89 74 C 89 81.755982 82.755984 88 75 88 L 21 88 C 13.244016 88 7 81.755982 7 74 z " />
</svg>
