<?xml version="1.0" encoding="UTF-8" standalone="no"?>
<!-- Created with Inkscape (http://www.inkscape.org/) -->

<svg
   width="96"
   height="96"
   viewBox="0 0 96 96.000005"
   version="1.1"
   id="svg5"
   sodipodi:docname="ktorrent.svg"
   inkscape:version="1.3.2 (091e20ef0f, 2023-11-25, custom)"
   xmlns:inkscape="http://www.inkscape.org/namespaces/inkscape"
   xmlns:sodipodi="http://sodipodi.sourceforge.net/DTD/sodipodi-0.dtd"
   xmlns:xlink="http://www.w3.org/1999/xlink"
   xmlns="http://www.w3.org/2000/svg"
   xmlns:svg="http://www.w3.org/2000/svg">
  <sodipodi:namedview
     id="namedview7"
     pagecolor="#ffffff"
     bordercolor="#666666"
     borderopacity="1.0"
     inkscape:showpageshadow="2"
     inkscape:pageopacity="0.0"
     inkscape:pagecheckerboard="0"
     inkscape:deskcolor="#d1d1d1"
     inkscape:document-units="px"
     showgrid="false"
     inkscape:zoom="8.6041667"
     inkscape:cx="48"
     inkscape:cy="48"
     inkscape:window-width="1920"
     inkscape:window-height="1011"
     inkscape:window-x="0"
     inkscape:window-y="0"
     inkscape:window-maximized="1"
     inkscape:current-layer="svg5" />
  <defs
     id="defs2">
    <linearGradient
       inkscape:collect="always"
       xlink:href="#linearGradient1265"
       id="linearGradient3525"
       x1="50.115543"
       y1="59.831326"
       x2="13.735723"
       y2="4.1686749"
       gradientUnits="userSpaceOnUse"
       gradientTransform="matrix(1.5090909,0,0,1.5090909,-0.2909091,-0.2909091)" />
    <linearGradient
       inkscape:collect="always"
       id="linearGradient1265">
      <stop
         style="stop-color:#2d7ff3;stop-opacity:1;"
         offset="0"
         id="stop1261" />
      <stop
         style="stop-color:#2cdbfa;stop-opacity:1;"
         offset="1"
         id="stop1263" />
    </linearGradient>
  </defs>
  <rect
     style="fill:url(#linearGradient3525);fill-opacity:1;stroke:none;stroke-width:1.50909"
     id="rect184"
     width="83"
     height="83"
     x="6.5"
     y="6.5"
     ry="14.5" />
  <path
     d="m 36,17 v 26.437502 8.734374 c -1.03959,0.496676 -2.075922,1.660394 -2.960938,2.5625 -1.45635,1.481322 -2.7526,1.583484 -3.789062,0.695314 -1.0349,-0.88661 -0.13242,-3.300866 -1.328124,-5.726568 -1.194116,-2.425688 -3.564402,-1.217106 -3.89844,0.421878 -0.33404,1.638978 2.99779,2.746228 2.351564,3.656246 -0.646228,0.910028 -3.230448,0.69985 -3.992188,-1.015622 -0.760176,-1.715462 -2.420344,-1.15328 -2.453124,0.250002 -0.0328,1.404844 1.285404,0.418214 2.3125,1.445308 L 48.78125,81.000008 75.3125,54.460934 c 3.12187,-3.121866 -0.450738,-1.78054 -1.187498,-1.078122 -0.735208,0.702422 -3.01277,1.269544 -3.281248,0.500002 -0.266908,-0.769542 2.549232,-2.06024 3.351558,-2.92969 0.80232,-0.869438 1.586198,-3.336848 0.289088,-4.242182 -1.297152,-0.905348 -3.132048,0.726206 -3.92969,1.929684 -0.802314,1.203482 -0.10892,4.274378 -1.179684,5.210932 -1.0708,0.936566 -1.659572,0.3648 -1.859374,-0.437498 -0.201378,-0.802314 2.311444,-1.933242 1.25781,-3.92968 -1.05519,-1.996438 -3.004032,-1.091266 -3.90625,-0.15626 -0.902218,0.936566 0.539396,2.379602 0.875,3.851566 0.334048,1.471958 -3.084152,1.43384 -4.421876,0.898434 -0.584456,-0.2339 -0.993502,-1.0077 -1.320328,-1.82031 V 17 Z M 21.898436,41 C 20.842188,41.053598 20,41.9305 20,43 c 0,1.103996 0.896,2 2,2 1.104,0 2,-0.896004 2,-2 0,-1.104 -0.896,-2 -2,-2 -0.03442,0 -0.06748,-0.0018 -0.10156,0 z m 10.89844,0 c -0.59817,0.02616 -1.298108,0.59873 -0.578124,1.390624 1.022414,1.12726 1.567834,3.137122 0.656248,3.539066 -0.91627,0.401952 -0.856328,-1.49842 -0.937498,-2.507814 -0.07962,-1.009388 -2.610316,-1.618338 -3.546876,-0.367214 -0.936562,1.251164 0.0024,2.603008 0.929686,2.875 0.927194,0.27347 1.073992,1.298862 1.625,2.367184 0.552574,1.06832 3.235032,0.80086 3.890628,0 0.65559,-0.800866 1.065902,-2.2905 -0.210918,-3.664058 -1.276848,-1.37356 -0.889406,-2.650436 -1.234374,-3.351566 -0.08586,-0.1753 -0.270532,-0.263124 -0.476562,-0.281238 -0.03824,-0.0032 -0.07732,-0.0018 -0.11722,0 z m 37.101566,0 C 68.842188,41.053616 68,41.9305 68,43 c 0,1.103996 0.896,2 2,2 1.104,0 2,-0.896004 2,-2 0,-1.104 -0.896,-2 -2,-2 -0.03422,0 -0.06746,-0.0018 -0.101558,0 z m -7.156256,0.664058 c -0.721228,0.0162 -1.035818,1.471106 -1.218744,2.843754 -0.19514,1.464158 -0.930624,2.979976 -0.296896,3.273434 0.878804,0.39024 1.327558,-2.016522 2.320314,-2.914056 0.992752,-0.899104 0.17264,-2.992386 -0.656254,-3.187502 -0.0518,-0.012 -0.10034,-0.017 -0.14844,-0.0156 z M 17.5625,45.875004 C 16.700864,45.875004 16,46.575866 16,47.437498 16,48.29914 16.700864,49 17.5625,49 c 0.861636,0 1.5625,-0.70086 1.5625,-1.562502 0,-0.861632 -0.700864,-1.562494 -1.5625,-1.562494 z m 60.796874,3.140622 C 77.535002,49.057447 76.875,49.74341 76.875,50.578124 c 0,0.86164 0.700862,1.554688 1.562498,1.554688 0.861638,0 1.562502,-0.693048 1.562502,-1.554688 0,-0.861638 -0.700864,-1.562498 -1.562502,-1.562498 -0.02696,0 -0.05152,-0.0014 -0.07812,0 z"
     style="opacity:0.2;fill:#000000;fill-opacity:1;stroke-width:8;stroke-linecap:round;stroke-linejoin:round"
     id="path3386" />
  <rect
     style="fill:#ffffff;fill-opacity:1;stroke-width:8;stroke-linecap:round;stroke-linejoin:round"
     id="rect919"
     width="24"
     height="40"
     x="36"
     y="16" />
  <path
     d="m 50,34.000768 c -1.056258,0.05362 -1.898438,0.9305 -1.898438,2 0,1.103996 0.896,2 2,2 1.104,0 2,-0.896004 2,-2 0,-1.104 -0.896,-2 -2,-2 -0.03422,0 -0.06746,-0.0018 -0.101562,0 z m -8.898436,7.96094 c -0.10462,0.0124 -0.20637,0.04222 -0.304664,0.08594 -0.789836,0.346526 -1.053648,1.475808 -0.0156,3.843748 1.039586,2.367942 2.522668,4.010586 3.3125,3.664064 0.789852,-0.346526 0.584916,-2.546106 -0.453108,-4.91405 C 42.732076,42.568486 41.838246,41.879 41.10148,41.969538 Z m -3.4375,0.914186 c -0.86164,-4e-6 -1.562502,0.70086 -1.562502,1.562498 0,0.861638 0.700862,1.562502 1.562502,1.562502 0.861638,0 1.562498,-0.700864 1.562498,-1.562502 0,-0.861638 -0.70086,-1.562502 -1.562498,-1.562498 z m 17.695312,0.468754 c -1.014626,0.0749 -2.019248,1.807452 -2.515622,3.00781 -0.568184,1.370506 0.11894,4.044748 -1.218754,5.046872 -1.33772,1.003676 -2.316292,1.026158 -2.984372,0.624998 -0.668084,-0.401148 0.56644,-0.346848 -0.17968,-1.874998 -0.747692,-1.52816 -2.531718,-1.05037 -3.000002,0.14064 -0.468282,1.190992 0.499668,1.133512 0.16406,1.835934 -0.334048,0.702424 -3.177202,1.46664 -3.8125,-0.640624 -0.635326,-2.107266 -3.510686,-1.171762 -1.671902,0.500002 1.838786,1.671764 -0.471912,2.570614 -2.070314,1.3125 -1.598398,-1.259682 21.576002,-2.111132 21.007814,-2.31249 -0.568178,-0.201378 -2.01903,1.115054 -3.859372,0.546878 -1.838786,-0.568184 -0.31034,-1.709158 0.25781,-3.046874 0.56818,-1.337726 1.469162,-4.556756 0.320322,-5.062502 -0.14362,-0.064 -0.293876,-0.08904 -0.437498,-0.07812 z"
     style="opacity:0.2;fill:#000000;fill-opacity:1;stroke-width:4"
     id="path3439" />
  <path
     d="m 49.898438,32.000768 c -1.056258,0.0536 -1.898438,0.9305 -1.898438,2 0,1.104 0.896,2 2,2 1.104,0 2,-0.896 2,-2 0,-1.104 -0.896,-2 -2,-2 -0.03422,0 -0.06746,-0.0018 -0.101562,0 z m -8.898436,7.960944 c -0.10462,0.0124 -0.20637,0.04222 -0.304664,0.08594 -0.789832,0.346526 -1.05365,1.475808 -0.0156,3.843748 1.039586,2.367942 2.522662,4.01059 3.312498,3.664064 0.789854,-0.346526 0.584912,-2.546106 -0.453109,-4.91405 -0.908513,-2.072926 -1.802347,-2.762408 -2.539107,-2.67187 z m -19.101566,0.03904 c -1.056256,0.05362 -1.898436,0.9305 -1.898436,2 0,1.104 0.896,2 2,2 1.104,0 2,-0.896 2,-2 0,-1.104 -0.896,-2 -2,-2 -0.03442,0 -0.06748,-0.0018 -0.10156,4e-6 z m 10.89844,0 c -0.598174,0.02616 -1.298108,0.59873 -0.578124,1.390624 1.022414,1.127254 1.567834,3.13712 0.656248,3.539064 -0.916274,0.401952 -0.856332,-1.498422 -0.937498,-2.507814 -0.07962,-1.00939 -2.610316,-1.618352 -3.546876,-0.367216 -0.936566,1.251164 0.0024,2.60301 0.929686,2.875002 0.927194,0.273468 1.073988,1.29886 1.625,2.367186 0.552574,1.068326 3.235032,0.800866 3.890624,0 0.655594,-0.800866 1.06591,-2.290504 -0.210918,-3.664064 -1.276844,-1.373558 -0.889406,-2.650426 -1.23437,-3.35156 -0.08586,-0.1753 -0.270532,-0.263124 -0.476562,-0.281238 -0.03824,-0.0032 -0.07732,-0.0018 -0.11722,0 z m 37.101562,0 c -1.056254,0.05362 -1.898438,0.9305 -1.898438,2 0,1.104 0.896,2 2,2 1.104,0 2,-0.896 2,-2 0,-1.104 -0.896,-2 -2,-2 -0.03422,0 -0.06746,-0.0018 -0.101562,0 z m -7.156252,0.664064 c -0.721228,0.0162 -1.035822,1.471098 -1.218748,2.843748 -0.1951,1.46416 -0.930628,2.979978 -0.296896,3.27344 0.878804,0.390238 1.327554,-2.016524 2.32031,-2.914066 0.992756,-0.899098 0.17264,-2.992382 -0.656254,-3.187498 -0.0518,-0.012 -0.10034,-0.017 -0.14844,-0.0156 z M 37.562502,40.875738 C 36.700864,40.875734 36,41.576598 36,42.438234 c 0,0.861638 0.700864,1.562502 1.562502,1.562502 0.861632,0 1.562498,-0.700864 1.562498,-1.562502 0,-0.861636 -0.700866,-1.5625 -1.562498,-1.562496 z m 17.695312,0.468754 c -1.014626,0.0749 -2.019248,1.807452 -2.515628,3.00781 -0.568178,1.370506 0.11894,4.044752 -1.218748,5.046878 -1.337722,1.003678 -2.316294,1.026158 -2.984372,0.625 -0.668084,-0.401148 0.56644,-0.346848 -0.17968,-1.875 -0.747688,-1.528162 -2.53172,-1.050372 -2.999998,0.14064 -0.468282,1.190996 0.499664,1.133516 0.16406,1.835934 -0.334048,0.702426 -3.177202,1.466642 -3.8125,-0.640624 -0.635332,-2.107266 -2.891356,-4.404118 -3.593778,-3.835934 -0.702422,0.568178 0.08308,2.66417 1.921876,4.335936 1.838784,1.671764 -0.471914,2.570614 -2.070312,1.312498 -1.598402,-1.259676 -3.474898,0.95461 -4.92969,2.437502 -1.456354,1.481326 -2.7526,1.583482 -3.789062,0.69531 -1.0349,-0.886614 -0.13242,-3.300866 -1.328124,-5.726566 -1.194116,-2.425698 -3.564398,-1.217108 -3.898436,0.421876 -0.33404,1.638984 2.997786,2.746224 2.35156,3.656252 -0.646228,0.910024 -3.230448,0.699842 -3.992188,-1.015628 -0.760176,-1.71547 -2.420344,-1.15328 -2.453124,0.250002 -0.0328,1.404844 1.285404,0.418218 2.3125,1.445314 l 26.539062,26.539062 26.53125,-26.539062 c 3.121874,-3.121872 -0.450738,-1.780544 -1.187498,-1.078126 -0.735208,0.702426 -3.01277,1.269546 -3.281248,0.5 -0.266908,-0.769538 2.549232,-2.060244 3.351558,-2.929686 0.80232,-0.869442 1.586214,-3.336844 0.289088,-4.242186 -1.297156,-0.905342 -3.132064,0.726206 -3.929706,1.929684 -0.802318,1.203486 -0.10892,4.274376 -1.179684,5.21094 -1.070804,0.936562 -1.659576,0.3648 -1.859378,-0.437498 -0.201378,-0.802326 2.311444,-1.93325 1.257814,-3.929688 -1.055196,-1.996442 -3.004032,-1.091252 -3.90625,-0.15626 -0.902224,0.93656 0.539396,2.3796 0.875,3.851564 0.334048,1.471964 -3.084152,1.433838 -4.421876,0.898434 -1.337712,-0.535398 -1.775566,-3.892386 -2.343748,-4.093748 -0.56818,-0.20134 -2.019032,1.115056 -3.859378,0.546878 -1.838784,-0.568184 -0.31034,-1.709152 0.257812,-3.046876 0.568178,-1.337724 1.469162,-4.556756 0.320322,-5.0625 -0.14362,-0.064 -0.293878,-0.08904 -0.437498,-0.07812 z M 17.5625,44.87589 c -0.861636,0 -1.5625,0.700864 -1.5625,1.562502 0,0.861642 0.700864,1.562502 1.5625,1.562502 0.861636,0 1.5625,-0.70086 1.5625,-1.562502 0,-0.861638 -0.700864,-1.562502 -1.5625,-1.562502 z m 60.796874,3.140626 c -0.824372,0.04186 -1.484374,0.727788 -1.484374,1.5625 0,0.861638 0.700862,1.55469 1.562498,1.55469 0.861638,0 1.562502,-0.693052 1.562502,-1.55469 0,-0.861636 -0.700864,-1.5625 -1.562502,-1.5625 -0.02696,0 -0.05152,-0.0014 -0.07812,0 z"
     style="fill:#a6d7ff;fill-opacity:1;stroke-width:4"
     id="path449"
     sodipodi:nodetypes="sssssssccccccccsssscccccsccsscccssssssscscccccssssscccscsccssccccssccsccccssccccccsscccccssssssssssss" />
  <path
     id="rect2630"
     style="opacity:0.3;fill:#ffffff;fill-opacity:1;stroke-width:1.5"
     d="M 21 7 C 13.244016 7 7 13.244016 7 21 L 7 22 C 7 14.244016 13.244016 8 21 8 L 75 8 C 82.755984 8 89 14.244016 89 22 L 89 21 C 89 13.244016 82.755984 7 75 7 L 21 7 z " />
  <path
     id="rect899"
     style="opacity:0.6;fill:#000000;stroke:none;stroke-width:1.5"
     d="M 21,6 C 12.690016,6 6,12.690016 6,21 v 54 c 0,8.309983 6.690016,15 15,15 h 54 c 8.309983,0 15,-6.690017 15,-15 V 21 C 90,12.690016 83.309983,6 75,6 Z m 0,1 h 54 c 7.755992,0 14,6.244008 14,14 v 54 c 0,7.755992 -6.244008,14 -14,14 H 21 C 13.244008,89 7,82.755992 7,75 V 21 C 7,13.244008 13.244008,7 21,7 Z" />
  <path
     id="rect398"
     style="opacity:0.3;fill:#ffffff;stroke-width:1.5"
     d="M 7 74 L 7 75 C 7 82.755984 13.244016 89 21 89 L 75 89 C 82.755984 89 89 82.755984 89 75 L 89 74 C 89 81.755982 82.755984 88 75 88 L 21 88 C 13.244016 88 7 81.755982 7 74 z " />
</svg>
