<?xml version="1.0" encoding="UTF-8" standalone="no"?>
<!-- Created with Inkscape (http://www.inkscape.org/) -->

<svg
   width="96"
   height="96"
   viewBox="0 0 96 96.000005"
   version="1.1"
   id="svg5"
   sodipodi:docname="kvantum.svg"
   inkscape:version="1.3.2 (091e20ef0f, 2023-11-25, custom)"
   xmlns:inkscape="http://www.inkscape.org/namespaces/inkscape"
   xmlns:sodipodi="http://sodipodi.sourceforge.net/DTD/sodipodi-0.dtd"
   xmlns:xlink="http://www.w3.org/1999/xlink"
   xmlns="http://www.w3.org/2000/svg"
   xmlns:svg="http://www.w3.org/2000/svg">
  <sodipodi:namedview
     id="namedview7"
     pagecolor="#ffffff"
     bordercolor="#666666"
     borderopacity="1.0"
     inkscape:showpageshadow="2"
     inkscape:pageopacity="0.0"
     inkscape:pagecheckerboard="0"
     inkscape:deskcolor="#d1d1d1"
     inkscape:document-units="px"
     showgrid="false"
     inkscape:zoom="8.4166667"
     inkscape:cx="48"
     inkscape:cy="48"
     inkscape:window-width="1920"
     inkscape:window-height="1011"
     inkscape:window-x="0"
     inkscape:window-y="0"
     inkscape:window-maximized="1"
     inkscape:current-layer="svg5" />
  <defs
     id="defs2">
    <radialGradient
       inkscape:collect="always"
       xlink:href="#linearGradient1603"
       id="radialGradient11414"
       cx="-1.675118"
       cy="11.872787"
       fx="-1.675118"
       fy="11.872787"
       r="27.5"
       gradientUnits="userSpaceOnUse"
       gradientTransform="matrix(-1.243238,1.2577735,-1.5148061,-1.497301,25.572122,30.549095)" />
    <linearGradient
       inkscape:collect="always"
       id="linearGradient1603">
      <stop
         style="stop-color:#ff910c;stop-opacity:1;"
         offset="0"
         id="stop1599" />
      <stop
         style="stop-color:#ff910c;stop-opacity:0;"
         offset="1"
         id="stop1601" />
    </linearGradient>
    <radialGradient
       inkscape:collect="always"
       xlink:href="#linearGradient3954"
       id="radialGradient11404"
       cx="57.208611"
       cy="56.943909"
       fx="57.208611"
       fy="56.943909"
       r="27.5"
       gradientUnits="userSpaceOnUse"
       gradientTransform="matrix(1.4662733,-1.5385748,1.3955877,1.3300054,-77.311576,97.92664)" />
    <linearGradient
       inkscape:collect="always"
       id="linearGradient3954">
      <stop
         style="stop-color:#24c2f5;stop-opacity:1;"
         offset="0"
         id="stop3950" />
      <stop
         style="stop-color:#24c2f5;stop-opacity:0;"
         offset="1"
         id="stop3952" />
    </linearGradient>
    <radialGradient
       inkscape:collect="always"
       xlink:href="#linearGradient5569"
       id="radialGradient11396"
       cx="8.0326223"
       cy="59.247375"
       fx="8.0326223"
       fy="59.247375"
       r="27.5"
       gradientUnits="userSpaceOnUse"
       gradientTransform="matrix(1.387339,-1.4052723,1.6430716,1.6221035,-97.98267,1.3687449)" />
    <linearGradient
       inkscape:collect="always"
       id="linearGradient5569">
      <stop
         style="stop-color:#f5cc24;stop-opacity:1;"
         offset="0"
         id="stop5565" />
      <stop
         style="stop-color:#f5cc24;stop-opacity:0.00045133"
         offset="1"
         id="stop5567" />
    </linearGradient>
    <radialGradient
       inkscape:collect="always"
       xlink:href="#linearGradient7221"
       id="radialGradient11388"
       cx="32"
       cy="60"
       fx="32"
       fy="60"
       r="27.5"
       gradientUnits="userSpaceOnUse"
       gradientTransform="matrix(-1.5365289,0,0,-1.5090909,97.168914,96.290906)" />
    <linearGradient
       inkscape:collect="always"
       id="linearGradient7221">
      <stop
         style="stop-color:#ff2a2a;stop-opacity:1"
         offset="0"
         id="stop7217" />
      <stop
         style="stop-color:#ff2929;stop-opacity:0.00392157"
         offset="1"
         id="stop7219" />
    </linearGradient>
    <radialGradient
       inkscape:collect="always"
       xlink:href="#linearGradient10051"
       id="radialGradient11378"
       cx="6.5505433"
       cy="56.244072"
       fx="6.5505433"
       fy="56.244072"
       r="27.5"
       gradientUnits="userSpaceOnUse"
       gradientTransform="matrix(-1.0855948,-1.0468774,1.3661505,-1.4166761,16.67892,97.285505)" />
    <linearGradient
       inkscape:collect="always"
       id="linearGradient10051">
      <stop
         style="stop-color:#aa3ad4;stop-opacity:1"
         offset="0"
         id="stop10047" />
      <stop
         style="stop-color:#aa3ad4;stop-opacity:0"
         offset="1"
         id="stop10049" />
    </linearGradient>
    <radialGradient
       inkscape:collect="always"
       xlink:href="#linearGradient15132"
       id="radialGradient11244"
       cx="45.75"
       cy="51.798988"
       fx="45.75"
       fy="51.798988"
       r="27.5"
       gradientUnits="userSpaceOnUse"
       gradientTransform="matrix(-9.3296656e-8,1.5365289,-1.5365287,-2.6843938e-7,85.336086,-22.296182)" />
    <linearGradient
       inkscape:collect="always"
       id="linearGradient15132">
      <stop
         style="stop-color:#f5e224;stop-opacity:1;"
         offset="0"
         id="stop15128" />
      <stop
         style="stop-color:#f5e224;stop-opacity:0;"
         offset="1"
         id="stop15130" />
    </linearGradient>
    <radialGradient
       inkscape:collect="always"
       xlink:href="#linearGradient12059"
       id="radialGradient11234"
       cx="32"
       cy="60"
       fx="32"
       fy="60"
       r="27.5"
       gradientUnits="userSpaceOnUse"
       gradientTransform="matrix(1.5365289,0,0,1.5090909,-1.1689263,-0.2909066)" />
    <linearGradient
       inkscape:collect="always"
       id="linearGradient12059">
      <stop
         style="stop-color:#47c12a;stop-opacity:1;"
         offset="0"
         id="stop12055" />
      <stop
         style="stop-color:#47c12a;stop-opacity:0;"
         offset="1"
         id="stop12057" />
    </linearGradient>
  </defs>
  <rect
     style="fill:url(#radialGradient11414);fill-opacity:1;stroke-width:1.50909;stroke-linejoin:round"
     id="rect10562"
     width="83"
     height="83"
     x="6.5"
     y="6.5"
     ry="14.5" />
  <rect
     style="fill:url(#radialGradient11404);fill-opacity:1;stroke-width:1.50909;stroke-linejoin:round"
     id="rect10564"
     width="83"
     height="83"
     x="6.5"
     y="6.5"
     ry="14.5" />
  <rect
     style="fill:url(#radialGradient11396);fill-opacity:1;stroke-width:1.50909;stroke-linejoin:round"
     id="rect10566"
     width="83"
     height="83"
     x="6.5"
     y="6.5"
     ry="14.5" />
  <rect
     style="fill:url(#radialGradient11388);fill-opacity:1;stroke-width:1.50909;stroke-linejoin:round"
     id="rect10568"
     width="83"
     height="83"
     x="6.5"
     y="6.5"
     ry="14.5" />
  <rect
     style="fill:url(#radialGradient11378);fill-opacity:1;stroke-width:1.50909;stroke-linejoin:round"
     id="rect10570"
     width="83"
     height="83"
     x="6.5"
     y="6.5000019"
     ry="14.5" />
  <rect
     style="fill:url(#radialGradient11244);fill-opacity:1;stroke-width:1.50909;stroke-linejoin:round"
     id="rect10572"
     width="83"
     height="83"
     x="6.5"
     y="6.5000019"
     ry="14.5"
     inkscape:label="rect10572" />
  <rect
     style="fill:url(#radialGradient11234);fill-opacity:1;stroke-width:1.50909;stroke-linejoin:round"
     id="rect10574"
     width="83"
     height="83"
     x="6.5"
     y="6.5"
     ry="14.5" />
  <path
     d="m 26.223224,31.00885 v 4.151426 h 4.15928 L 24.151432,64.228148 H 20 v 4.15928 h 14.541786 v -4.15928 h -3.531464 l 2.283676,-12.454292 h 3.327426 l 6.231072,12.454292 c 1.051594,2.111032 2.903648,4.15928 6.223228,4.15928 h 6.231062 L 69.840726,53.845646 74,47.614572 V 45.542778 L 71.920364,43.46314 h -2.079638 l -2.0718,2.079638 v 6.231078 l -9.362298,10.374656 3.11554,-16.605734 -2.079642,-2.079638 -8.30286,2.079638 v 2.071794 h 4.151426 l -2.07179,16.613576 h -2.07179 L 42.844648,47.614572 55.298938,35.160276 H 59.45822 V 31.001 H 44.908594 v 4.159276 h 4.779248 L 35.781722,49.69421 H 33.70208 L 36.605728,35.160276 H 40.76501 V 31.001 Z"
     style="opacity:0.2;fill:#000000;stroke-width:7.8477"
     id="path13420" />
  <path
     d="m 26.223224,30.00785 v 4.151428 h 4.15928 L 24.151432,63.22715 H 20 v 4.159278 H 34.541786 V 63.22715 h -3.531464 l 2.283676,-12.454294 h 3.327426 l 6.231072,12.454294 c 1.051594,2.11103 2.903648,4.159278 6.223228,4.159278 h 6.231062 L 69.840726,52.844646 74,46.613574 v -2.071792 l -2.079636,-2.07964 h -2.079638 l -2.0718,2.07964 v 6.231074 l -9.362298,10.374656 3.11554,-16.60573 -2.079642,-2.07964 -8.30286,2.07964 v 2.071792 h 4.151426 l -2.07179,16.613576 h -2.07179 L 42.844648,46.613574 55.298938,34.159278 H 59.45822 V 30 H 44.908594 v 4.159278 h 4.779248 L 35.781722,48.693214 H 33.70208 L 36.605728,34.159278 H 40.76501 V 30 Z"
     style="fill:#ffffff;stroke-width:7.8477"
     id="path13203"
     sodipodi:nodetypes="ccccccccccccsccccccccccccccccccccccccccccc" />
  <path
     id="rect2630"
     style="opacity:0.3;fill:#ffffff;fill-opacity:1;stroke-width:1.5"
     d="M 21 7 C 13.244016 7 7 13.244016 7 21 L 7 22 C 7 14.244016 13.244016 8 21 8 L 75 8 C 82.755984 8 89 14.244016 89 22 L 89 21 C 89 13.244016 82.755984 7 75 7 L 21 7 z " />
  <path
     id="rect899"
     style="opacity:0.6;fill:#000000;stroke:none;stroke-width:1.5"
     d="M 21,6 C 12.690016,6 6,12.690016 6,21 v 54 c 0,8.309983 6.690016,15 15,15 h 54 c 8.309983,0 15,-6.690017 15,-15 V 21 C 90,12.690016 83.309983,6 75,6 Z m 0,1 h 54 c 7.755992,0 14,6.244008 14,14 v 54 c 0,7.755992 -6.244008,14 -14,14 H 21 C 13.244008,89 7,82.755992 7,75 V 21 C 7,13.244008 13.244008,7 21,7 Z" />
  <path
     id="rect398"
     style="opacity:0.3;fill:#ffffff;stroke-width:1.5"
     d="M 7 74 L 7 75 C 7 82.755984 13.244016 89 21 89 L 75 89 C 82.755984 89 89 82.755984 89 75 L 89 74 C 89 81.755982 82.755984 88 75 88 L 21 88 C 13.244016 88 7 81.755982 7 74 z " />
</svg>
