<?xml version="1.0" encoding="UTF-8" standalone="no"?>
<!-- Created with Inkscape (http://www.inkscape.org/) -->

<svg
   width="96"
   height="96"
   viewBox="0 0 96 96.000005"
   version="1.1"
   id="svg5"
   sodipodi:docname="minecraft.svg"
   inkscape:version="1.3.2 (091e20ef0f, 2023-11-25, custom)"
   xmlns:inkscape="http://www.inkscape.org/namespaces/inkscape"
   xmlns:sodipodi="http://sodipodi.sourceforge.net/DTD/sodipodi-0.dtd"
   xmlns:xlink="http://www.w3.org/1999/xlink"
   xmlns="http://www.w3.org/2000/svg"
   xmlns:svg="http://www.w3.org/2000/svg">
  <sodipodi:namedview
     id="namedview7"
     pagecolor="#ffffff"
     bordercolor="#666666"
     borderopacity="1.0"
     inkscape:showpageshadow="2"
     inkscape:pageopacity="0.0"
     inkscape:pagecheckerboard="0"
     inkscape:deskcolor="#d1d1d1"
     inkscape:document-units="px"
     showgrid="false"
     inkscape:zoom="8.6041667"
     inkscape:cx="48"
     inkscape:cy="48"
     inkscape:window-width="1920"
     inkscape:window-height="1011"
     inkscape:window-x="0"
     inkscape:window-y="0"
     inkscape:window-maximized="1"
     inkscape:current-layer="svg5" />
  <defs
     id="defs2">
    <linearGradient
       inkscape:collect="always"
       xlink:href="#linearGradient22024"
       id="linearGradient3525"
       x1="50.115543"
       y1="59.831326"
       x2="13.735723"
       y2="4.1686749"
       gradientUnits="userSpaceOnUse"
       gradientTransform="matrix(1.5090909,0,0,1.5090909,-0.2909091,-0.2909091)" />
    <linearGradient
       inkscape:collect="always"
       id="linearGradient22024">
      <stop
         style="stop-color:#dedede;stop-opacity:1;"
         offset="0"
         id="stop22020" />
      <stop
         style="stop-color:#f5f5f5;stop-opacity:1;"
         offset="1"
         id="stop22022" />
    </linearGradient>
    <linearGradient
       inkscape:collect="always"
       xlink:href="#linearGradient974"
       id="linearGradient1934"
       x1="11"
       y1="14"
       x2="23"
       y2="0"
       gradientUnits="userSpaceOnUse"
       gradientTransform="matrix(4,0,0,4,-20,20)" />
    <linearGradient
       inkscape:collect="always"
       id="linearGradient974">
      <stop
         style="stop-color:#8e643b;stop-opacity:1;"
         offset="0"
         id="stop970" />
      <stop
         style="stop-color:#ab7948;stop-opacity:1;"
         offset="1"
         id="stop972" />
    </linearGradient>
    <linearGradient
       inkscape:collect="always"
       xlink:href="#linearGradient1863"
       id="linearGradient1944"
       x1="17"
       y1="0"
       x2="17"
       y2="6"
       gradientUnits="userSpaceOnUse"
       gradientTransform="matrix(4,0,0,4,-20,20)" />
    <linearGradient
       inkscape:collect="always"
       id="linearGradient1863">
      <stop
         style="stop-color:#7da52e;stop-opacity:1;"
         offset="0"
         id="stop1859" />
      <stop
         style="stop-color:#a7d056;stop-opacity:1;"
         offset="1"
         id="stop1861" />
    </linearGradient>
    <linearGradient
       inkscape:collect="always"
       xlink:href="#linearGradient1863"
       id="linearGradient2091"
       x1="10.5"
       y1="3"
       x2="17"
       y2="8"
       gradientUnits="userSpaceOnUse"
       gradientTransform="matrix(4,0,0,4,-20,20)" />
    <linearGradient
       inkscape:collect="always"
       xlink:href="#linearGradient1863"
       id="linearGradient2083"
       x1="17"
       y1="6"
       x2="23.5"
       y2="5"
       gradientUnits="userSpaceOnUse"
       gradientTransform="matrix(4,0,0,4,-20,20)" />
  </defs>
  <rect
     style="fill:url(#linearGradient3525);fill-opacity:1;stroke:none;stroke-width:1.50909"
     id="rect184"
     width="83"
     height="83"
     x="6.5"
     y="6.5"
     ry="14.5" />
  <path
     d="M 22,33 48,21 74,33 V 65 L 48,77 22,65 Z"
     style="opacity:0.2;fill:#000000;fill-opacity:1;stroke-width:8;stroke-linecap:round;stroke-linejoin:round"
     id="path3283"
     sodipodi:nodetypes="ccccccc" />
  <path
     id="rect1925"
     style="fill:url(#linearGradient1934);fill-opacity:1;stroke-width:8;stroke-linecap:round;stroke-linejoin:round"
     d="M 22,32 48,20 74,32 V 64 L 48,76 22,64 Z"
     sodipodi:nodetypes="ccccccc" />
  <path
     id="rect1936"
     style="fill:url(#linearGradient1944);stroke-width:8;stroke-linecap:round;stroke-linejoin:round"
     d="M 22,32 48,20 74,32 48,44 Z"
     sodipodi:nodetypes="ccccc" />
  <path
     id="rect2071"
     style="fill:url(#linearGradient2091);fill-opacity:1;stroke-width:8;stroke-linecap:round;stroke-linejoin:round"
     d="m 22,32 26,12 v 8 L 22,40 Z"
     sodipodi:nodetypes="ccccc" />
  <path
     id="rect2074"
     style="fill:url(#linearGradient2083);fill-opacity:1;stroke-width:8;stroke-linecap:round;stroke-linejoin:round"
     d="M 74,32 48,44 v 8 L 74,40 Z"
     sodipodi:nodetypes="ccccc" />
  <path
     id="rect2630"
     style="opacity:0.3;fill:#ffffff;fill-opacity:1;stroke-width:1.5"
     d="M 21 7 C 13.244016 7 7 13.244016 7 21 L 7 22 C 7 14.244016 13.244016 8 21 8 L 75 8 C 82.755984 8 89 14.244016 89 22 L 89 21 C 89 13.244016 82.755984 7 75 7 L 21 7 z " />
  <path
     id="rect899"
     style="opacity:0.6;fill:#000000;stroke:none;stroke-width:1.5"
     d="M 21,6 C 12.690016,6 6,12.690016 6,21 v 54 c 0,8.309983 6.690016,15 15,15 h 54 c 8.309983,0 15,-6.690017 15,-15 V 21 C 90,12.690016 83.309983,6 75,6 Z m 0,1 h 54 c 7.755992,0 14,6.244008 14,14 v 54 c 0,7.755992 -6.244008,14 -14,14 H 21 C 13.244008,89 7,82.755992 7,75 V 21 C 7,13.244008 13.244008,7 21,7 Z" />
  <path
     id="rect398"
     style="opacity:0.3;fill:#ffffff;stroke-width:1.5"
     d="M 7 74 L 7 75 C 7 82.755984 13.244016 89 21 89 L 75 89 C 82.755984 89 89 82.755984 89 75 L 89 74 C 89 81.755982 82.755984 88 75 88 L 21 88 C 13.244016 88 7 81.755982 7 74 z " />
</svg>
