<?xml version="1.0" encoding="UTF-8" standalone="no"?>
<!-- Created with Inkscape (http://www.inkscape.org/) -->

<svg
   width="96"
   height="96"
   viewBox="0 0 96 96.000005"
   version="1.1"
   id="svg5"
   sodipodi:docname="nvidia.svg"
   inkscape:version="1.3.2 (091e20ef0f, 2023-11-25, custom)"
   xmlns:inkscape="http://www.inkscape.org/namespaces/inkscape"
   xmlns:sodipodi="http://sodipodi.sourceforge.net/DTD/sodipodi-0.dtd"
   xmlns:xlink="http://www.w3.org/1999/xlink"
   xmlns="http://www.w3.org/2000/svg"
   xmlns:svg="http://www.w3.org/2000/svg">
  <sodipodi:namedview
     id="namedview7"
     pagecolor="#ffffff"
     bordercolor="#666666"
     borderopacity="1.0"
     inkscape:showpageshadow="2"
     inkscape:pageopacity="0.0"
     inkscape:pagecheckerboard="0"
     inkscape:deskcolor="#d1d1d1"
     inkscape:document-units="px"
     showgrid="false"
     inkscape:zoom="8.6041667"
     inkscape:cx="48"
     inkscape:cy="48"
     inkscape:window-width="1920"
     inkscape:window-height="1011"
     inkscape:window-x="0"
     inkscape:window-y="0"
     inkscape:window-maximized="1"
     inkscape:current-layer="svg5" />
  <defs
     id="defs2">
    <linearGradient
       inkscape:collect="always"
       xlink:href="#4852"
       id="linearGradient3525"
       x1="50.115543"
       y1="59.831326"
       x2="13.735723"
       y2="4.1686749"
       gradientUnits="userSpaceOnUse"
       gradientTransform="matrix(1.5090909,0,0,1.5090909,-0.2909091,-0.2909091)" />
    <linearGradient
       inkscape:collect="always"
       id="4852">
      <stop
         style="stop-color:#333333;stop-opacity:1"
         offset="0"
         id="stop14555" />
      <stop
         style="stop-color:#666666;stop-opacity:1"
         offset="1"
         id="stop14557" />
    </linearGradient>
    <linearGradient
       inkscape:collect="always"
       xlink:href="#linearGradient1270"
       id="linearGradient1272"
       x1="40"
       y1="35.000004"
       x2="8"
       y2="12.999995"
       gradientUnits="userSpaceOnUse"
       gradientTransform="matrix(1.9999987,0,0,1.9999987,1.06e-5,2.7099993e-5)" />
    <linearGradient
       inkscape:collect="always"
       id="linearGradient1270">
      <stop
         style="stop-color:#80d935;stop-opacity:1;"
         offset="0"
         id="stop1266" />
      <stop
         style="stop-color:#afd65f;stop-opacity:1;"
         offset="1"
         id="stop1268" />
    </linearGradient>
  </defs>
  <rect
     style="fill:url(#linearGradient3525);fill-opacity:1;stroke:none;stroke-width:1.50909"
     id="rect184"
     width="83"
     height="83"
     x="6.5"
     y="6.5"
     ry="14.5" />
  <path
     d="m 22.538874,46.056493 c 0,0 5.914886,-8.53756 17.46861,-9.42081 V 33.538267 C 27.210269,34.566025 16,45.404664 16,45.404664 c 0,0 6.404982,18.144528 24.007484,19.805867 V 61.918213 C 27.089931,60.293136 22.538874,46.056493 22.538874,46.056493 Z m 17.46861,9.314102 v 3.015132 C 30.244687,56.6452 27.406387,46.496705 27.406387,46.496705 c 0,0 4.815904,-5.192787 12.601097,-6.034894 v 3.30852 c -0.006,0 -0.01,-0.0018 -0.015,-0.0018 -4.086089,-0.49035 -7.406511,3.326778 -7.406511,3.326778 0,0 1.917509,6.425991 7.421425,8.275286 m 0,-28.370595 v 6.538267 c 0.37567,-0.0288 0.622956,-0.05322 1.000684,-0.06608 14.549056,-0.490351 24.02875,11.932479 24.02875,11.932479 0,0 -10.887749,13.239225 -22.230881,13.239225 -1.039586,0 -1.884447,-0.09642 -2.798553,-0.258418 v 3.53274 c 0.781682,0.0992 1.463779,0.1576 2.309487,0.1576 10.555535,0 18.18902,-5.390775 25.580543,-11.770999 1.225493,0.981476 6.242658,3.369204 7.274015,4.414448 -7.027939,5.883956 -23.407004,10.627009 -32.692822,10.627009 -0.895078,0 -1.626287,-0.0542 -2.471223,-0.1358 v 5.78952 h 39.99256 V 27 Z m 0,13.461811 v -3.825872 c 0.371814,-0.02598 0.618072,-0.04602 1.000684,-0.05812 10.462197,-0.328613 17.326084,8.990631 17.326084,8.990631 0,0 -7.413637,10.296345 -15.362622,10.296345 -1.143981,0 -2.041298,-0.18384 -2.964404,-0.494208 V 43.770363 c 4.072976,0.492151 4.764329,2.291306 7.213,6.37328 l 5.44602,-4.592117 c 0,0 -3.975521,-5.213869 -10.677159,-5.213869 -0.728455,-2.58e-4 -1.297157,0.05092 -1.981643,0.1242"
     style="opacity:0.2;fill:#000000;fill-opacity:1;stroke-width:2"
     id="path1282" />
  <path
     d="m 22.538874,45.056494 c 0,0 5.914886,-8.537561 17.46861,-9.42081 V 32.538268 C 27.210269,33.566025 16,44.404664 16,44.404664 c 0,0 6.404982,18.144528 24.007484,19.805867 V 60.918213 C 27.089931,59.293136 22.538874,45.056494 22.538874,45.056494 Z m 17.46861,9.314101 v 3.015133 C 30.244687,55.645201 27.406387,45.496705 27.406387,45.496705 c 0,0 4.815904,-5.192786 12.601097,-6.034894 v 3.30852 c -0.006,0 -0.01,-0.0018 -0.015,-0.0018 -4.086089,-0.49035 -7.406511,3.326778 -7.406511,3.326778 0,0 1.917509,6.425992 7.421425,8.275286 m 0,-28.370595 v 6.538268 c 0.37567,-0.0288 0.622956,-0.05322 1.000684,-0.06608 14.549056,-0.490352 24.02875,11.932478 24.02875,11.932478 0,0 -10.887749,13.239225 -22.230881,13.239225 -1.039586,0 -1.884447,-0.09642 -2.798553,-0.258417 v 3.532739 c 0.781682,0.0992 1.463779,0.1576 2.309487,0.1576 10.555535,0 18.18902,-5.390774 25.580543,-11.770998 1.225493,0.981475 6.242658,3.369204 7.274015,4.414447 -7.027939,5.883956 -23.407004,10.627009 -32.692822,10.627009 -0.895078,0 -1.626287,-0.0542 -2.471223,-0.1358 v 5.78948 h 39.99256 V 26 Z m 0,13.461811 V 35.63598 c 0.371814,-0.02598 0.618072,-0.04602 1.000684,-0.05812 10.462197,-0.328614 17.326084,8.99063 17.326084,8.99063 0,0 -7.413637,10.296345 -15.362622,10.296345 -1.143981,0 -2.041298,-0.18384 -2.964404,-0.494208 V 42.770363 c 4.072976,0.492152 4.764329,2.291307 7.213,6.37328 l 5.44602,-4.592117 c 0,0 -3.975521,-5.213869 -10.677159,-5.213869 -0.728455,-2.58e-4 -1.297157,0.05092 -1.981643,0.1242"
     style="fill:url(#linearGradient1272);fill-opacity:1;stroke-width:2"
     id="path353"
     sodipodi:nodetypes="cccccccccccccccccccsccsccscccccccccscccccc" />
  <path
     id="rect2630"
     style="opacity:0.3;fill:#ffffff;fill-opacity:1;stroke-width:1.5"
     d="M 21 7 C 13.244016 7 7 13.244016 7 21 L 7 22 C 7 14.244016 13.244016 8 21 8 L 75 8 C 82.755984 8 89 14.244016 89 22 L 89 21 C 89 13.244016 82.755984 7 75 7 L 21 7 z " />
  <path
     id="rect899"
     style="opacity:0.6;fill:#000000;stroke:none;stroke-width:1.5"
     d="M 21,6 C 12.690016,6 6,12.690016 6,21 v 54 c 0,8.309983 6.690016,15 15,15 h 54 c 8.309983,0 15,-6.690017 15,-15 V 21 C 90,12.690016 83.309983,6 75,6 Z m 0,1 h 54 c 7.755992,0 14,6.244008 14,14 v 54 c 0,7.755992 -6.244008,14 -14,14 H 21 C 13.244008,89 7,82.755992 7,75 V 21 C 7,13.244008 13.244008,7 21,7 Z" />
  <path
     id="rect398"
     style="opacity:0.3;fill:#ffffff;stroke-width:1.5"
     d="M 7 74 L 7 75 C 7 82.755984 13.244016 89 21 89 L 75 89 C 82.755984 89 89 82.755984 89 75 L 89 74 C 89 81.755982 82.755984 88 75 88 L 21 88 C 13.244016 88 7 81.755982 7 74 z " />
</svg>
