<?xml version="1.0" encoding="UTF-8" standalone="no"?>
<!-- Created with Inkscape (http://www.inkscape.org/) -->

<svg
   width="96"
   height="96"
   viewBox="0 0 96 96.000005"
   version="1.1"
   id="svg5"
   sodipodi:docname="obsstudio.svg"
   inkscape:version="1.3.2 (091e20ef0f, 2023-11-25, custom)"
   xmlns:inkscape="http://www.inkscape.org/namespaces/inkscape"
   xmlns:sodipodi="http://sodipodi.sourceforge.net/DTD/sodipodi-0.dtd"
   xmlns:xlink="http://www.w3.org/1999/xlink"
   xmlns="http://www.w3.org/2000/svg"
   xmlns:svg="http://www.w3.org/2000/svg">
  <sodipodi:namedview
     id="namedview7"
     pagecolor="#ffffff"
     bordercolor="#666666"
     borderopacity="1.0"
     inkscape:showpageshadow="2"
     inkscape:pageopacity="0.0"
     inkscape:pagecheckerboard="0"
     inkscape:deskcolor="#d1d1d1"
     inkscape:document-units="px"
     showgrid="false"
     inkscape:zoom="8.6041667"
     inkscape:cx="48"
     inkscape:cy="48"
     inkscape:window-width="1920"
     inkscape:window-height="1011"
     inkscape:window-x="0"
     inkscape:window-y="0"
     inkscape:window-maximized="1"
     inkscape:current-layer="svg5" />
  <defs
     id="defs2">
    <linearGradient
       inkscape:collect="always"
       xlink:href="#4852"
       id="linearGradient3525"
       x1="50.115543"
       y1="59.831326"
       x2="13.735723"
       y2="4.1686749"
       gradientUnits="userSpaceOnUse"
       gradientTransform="matrix(1.5090909,0,0,1.5090909,-0.2909091,-0.2909091)" />
    <linearGradient
       inkscape:collect="always"
       id="4852">
      <stop
         style="stop-color:#333333;stop-opacity:1"
         offset="0"
         id="stop14555" />
      <stop
         style="stop-color:#666666;stop-opacity:1"
         offset="1"
         id="stop14557" />
    </linearGradient>
  </defs>
  <rect
     style="fill:url(#linearGradient3525);fill-opacity:1;stroke:none;stroke-width:1.50909"
     id="rect184"
     width="83"
     height="83"
     x="6.5"
     y="6.5"
     ry="14.5" />
  <path
     d="m 36.843648,76.110209 c 3.80412,-1.167 8.3684,-4.3708 10.508,-7.3752 l 0.7062,-0.99176 -0.88396,-2.67456 c -3.22892,-9.7696 2.63376,-19.620796 12.6856,-21.316396 7.306,-1.23232 14.9712,3.23664 17.614,10.269196 0.62916,1.67412 0.64836,1.69172 0.44368,0.4064 -0.6054,-3.8018 -2.48756,-7.306796 -5.5476,-10.331596 -3.19316,-3.15608 -6.9016,-4.9456 -11.5344,-5.566 -1.42196,-0.19044 -1.56948,-0.13652 -2.10432,0.76892 -0.8246,1.39592 -3.22336,3.73124 -4.996,4.8636 -4.7744,3.05048 -12.1344,3.05176 -16.9204,0.0034 -5.4068,-3.44408 -8.4648,-10.040002 -7.4724,-16.116402 0.5418,-3.31704 2.00228,-6.260002 4.3304,-8.725602 1.68712,-1.78684 1.80132,-1.98384 0.82632,-1.42552 -1.64156,0.94 -5.484,5.115202 -6.5748,7.144002 -1.25716,2.33828 -2.278,6.4764 -2.27184,9.2096 0.004,2.351442 0.62092,5.473602 1.52472,7.732402 0.52684,1.31664 0.59372,1.35816 2.5452,1.57892 1.10224,0.12468 2.84424,0.5158 3.87108,0.86908 9.0796,3.123836 13.3636,13.595196 9.1128,22.274796 -2.89732,5.916 -9.6048,9.7256 -15.8744,9.0152 -2.5518,-0.28912 -2.2812,0.05656 0.54808,0.70008 2.50732,0.57032 7.0792,0.41952 9.464,-0.31216 z"
     id="path395"
     style="opacity:0.2;fill:#000000;stroke-width:4" />
  <path
     d="m 36.843648,75.11021 c 3.80412,-1.167 8.3684,-4.3708 10.508,-7.3752 l 0.7062,-0.99176 -0.88396,-2.67456 c -3.22892,-9.7696 2.63376,-19.6208 12.6856,-21.3164 7.306,-1.23232 14.9712,3.23664 17.614,10.2692 0.62916,1.67412 0.64836,1.69172 0.44368,0.4064 -0.6054,-3.8018 -2.48756,-7.3068 -5.5476,-10.3316 -3.19316,-3.15608 -6.9016,-4.9456 -11.5344,-5.566 -1.42196,-0.19044 -1.56948,-0.13652 -2.10432,0.76892 -0.8246,1.39592 -3.22336,3.73124 -4.996,4.8636 -4.7744,3.05048 -12.1344,3.05176 -16.9204,0.0034 -5.4068,-3.44408 -8.4648,-10.04 -7.4724,-16.1164 0.5418,-3.31704 2.00228,-6.26 4.3304,-8.7256 1.68712,-1.786842 1.80132,-1.983842 0.82632,-1.425522 -1.64156,0.94 -5.484,5.115202 -6.5748,7.144002 -1.25716,2.33828 -2.278,6.4764 -2.27184,9.2096 0.004,2.35144 0.62092,5.4736 1.52472,7.7324 0.52684,1.31664 0.59372,1.35816 2.5452,1.57892 1.10224,0.12468 2.84424,0.5158 3.87108,0.86908 9.0796,3.12384 13.3636,13.5952 9.1128,22.2748 -2.89732,5.916 -9.6048,9.7256 -15.8744,9.0152 -2.5518,-0.28912 -2.2812,0.05656 0.54808,0.70008 2.50732,0.57032 7.0792,0.41952 9.464,-0.31216 z"
     id="path362"
     style="fill:#ffffff;stroke-width:4;enable-background:new" />
  <path
     id="rect2630"
     style="opacity:0.3;fill:#ffffff;fill-opacity:1;stroke-width:1.5"
     d="M 21 7 C 13.244016 7 7 13.244016 7 21 L 7 22 C 7 14.244016 13.244016 8 21 8 L 75 8 C 82.755984 8 89 14.244016 89 22 L 89 21 C 89 13.244016 82.755984 7 75 7 L 21 7 z " />
  <path
     id="rect899"
     style="opacity:0.6;fill:#000000;stroke:none;stroke-width:1.5"
     d="M 21,6 C 12.690016,6 6,12.690016 6,21 v 54 c 0,8.309983 6.690016,15 15,15 h 54 c 8.309983,0 15,-6.690017 15,-15 V 21 C 90,12.690016 83.309983,6 75,6 Z m 0,1 h 54 c 7.755992,0 14,6.244008 14,14 v 54 c 0,7.755992 -6.244008,14 -14,14 H 21 C 13.244008,89 7,82.755992 7,75 V 21 C 7,13.244008 13.244008,7 21,7 Z" />
  <path
     id="rect398"
     style="opacity:0.3;fill:#ffffff;stroke-width:1.5"
     d="M 7 74 L 7 75 C 7 82.755984 13.244016 89 21 89 L 75 89 C 82.755984 89 89 82.755984 89 75 L 89 74 C 89 81.755982 82.755984 88 75 88 L 21 88 C 13.244016 88 7 81.755982 7 74 z " />
</svg>
