<?xml version="1.0" encoding="UTF-8" standalone="no"?>
<!-- Created with Inkscape (http://www.inkscape.org/) -->

<svg
   width="96"
   height="96"
   viewBox="0 0 96 96.000005"
   version="1.1"
   id="svg5"
   sodipodi:docname="org.kde.kalendar.svg"
   inkscape:version="1.3.2 (091e20ef0f, 2023-11-25, custom)"
   xmlns:inkscape="http://www.inkscape.org/namespaces/inkscape"
   xmlns:sodipodi="http://sodipodi.sourceforge.net/DTD/sodipodi-0.dtd"
   xmlns:xlink="http://www.w3.org/1999/xlink"
   xmlns="http://www.w3.org/2000/svg"
   xmlns:svg="http://www.w3.org/2000/svg">
  <sodipodi:namedview
     id="namedview7"
     pagecolor="#ffffff"
     bordercolor="#666666"
     borderopacity="1.0"
     inkscape:showpageshadow="2"
     inkscape:pageopacity="0.0"
     inkscape:pagecheckerboard="0"
     inkscape:deskcolor="#d1d1d1"
     inkscape:document-units="px"
     showgrid="false"
     inkscape:zoom="8.6041667"
     inkscape:cx="48"
     inkscape:cy="48"
     inkscape:window-width="1920"
     inkscape:window-height="1011"
     inkscape:window-x="0"
     inkscape:window-y="0"
     inkscape:window-maximized="1"
     inkscape:current-layer="svg5" />
  <defs
     id="defs2">
    <linearGradient
       inkscape:collect="always"
       xlink:href="#linearGradient7002"
       id="linearGradient3525"
       x1="50"
       y1="60"
       x2="14"
       y2="4"
       gradientUnits="userSpaceOnUse"
       gradientTransform="matrix(1.5090909,0,0,1.5090909,-0.2909091,-0.2909091)" />
    <linearGradient
       inkscape:collect="always"
       id="linearGradient7002">
      <stop
         style="stop-color:#0290e9;stop-opacity:1;"
         offset="0"
         id="stop6998" />
      <stop
         style="stop-color:#44d9ff;stop-opacity:1;"
         offset="1"
         id="stop7000" />
    </linearGradient>
  </defs>
  <rect
     style="fill:url(#linearGradient3525);fill-opacity:1;stroke:none;stroke-width:1.50909"
     id="rect184"
     width="83"
     height="83"
     x="6.5"
     y="6.5"
     ry="14.5" />
  <path
     id="rect294"
     style="opacity:0.8;fill:#115267;fill-opacity:1;stroke-width:1.50909;stroke-linecap:round;stroke-linejoin:round"
     d="M 21 6.5 C 12.967008 6.5 6.5 12.967008 6.5 21 L 6.5 62.068359 L 14.929688 50.626953 L 38.488281 89.5 L 50.560547 89.5 L 21.552734 41.636719 L 47.443359 6.5 L 21 6.5 z " />
  <path
     d="m 48,37 c -1.107998,0 -2,0.892002 -2,2 v 10 c 0,1.107998 0.892002,2 2,2 h 10 c 1.107998,0 2,-0.892002 2,-2 V 39 c 0,-1.107998 -0.892002,-2 -2,-2 z m 18,0 c -1.107998,0 -2,0.892002 -2,2 v 10 c 0,1.107998 0.892002,2 2,2 h 10 c 1.107998,0 2,-0.892002 2,-2 V 39 c 0,-1.107998 -0.892002,-2 -2,-2 z M 48,55 c -1.107998,0 -2,0.892002 -2,2 v 10 c 0,1.107998 0.892002,2 2,2 h 10 c 1.107998,0 2,-0.892002 2,-2 V 57 c 0,-1.107998 -0.892002,-2 -2,-2 z m 18,0 c -1.107998,0 -2,0.892002 -2,2 v 10 c 0,1.107998 0.892002,2 2,2 h 10 c 1.107998,0 2,-0.892002 2,-2 V 57 c 0,-1.107998 -0.892002,-2 -2,-2 z"
     style="opacity:0.2;fill:#000000;fill-opacity:1;stroke-width:2;stroke-linecap:round;stroke-linejoin:round"
     id="path53534" />
  <path
     id="rect8457"
     style="fill:#ffffff;fill-opacity:1;stroke-width:2;stroke-linecap:round;stroke-linejoin:round"
     d="m 48,36 c -1.107998,0 -2,0.892002 -2,2 v 10 c 0,1.107998 0.892002,2 2,2 h 10 c 1.107998,0 2,-0.892002 2,-2 V 38 c 0,-1.107998 -0.892002,-2 -2,-2 z m 18,0 c -1.107998,0 -2,0.892002 -2,2 v 10 c 0,1.107998 0.892002,2 2,2 h 10 c 1.107998,0 2,-0.892002 2,-2 V 38 c 0,-1.107998 -0.892002,-2 -2,-2 z M 48,54 c -1.107998,0 -2,0.892002 -2,2 v 10 c 0,1.107998 0.892002,2 2,2 h 10 c 1.107998,0 2,-0.892002 2,-2 V 56 c 0,-1.107998 -0.892002,-2 -2,-2 z m 18,0 c -1.107998,0 -2,0.892002 -2,2 v 10 c 0,1.107998 0.892002,2 2,2 h 10 c 1.107998,0 2,-0.892002 2,-2 V 56 c 0,-1.107998 -0.892002,-2 -2,-2 z"
     sodipodi:nodetypes="ssssssssssssssssssssssssssssssssssss" />
  <path
     id="rect17141"
     style="fill:#00789d;fill-opacity:1;stroke-width:2;stroke-linecap:round;stroke-linejoin:round"
     d="m 48,24 c -1.107998,0 -2,0.892002 -2,2 v 2 c 0,1.107998 0.892002,2 2,2 h 10 c 1.107998,0 2,-0.892002 2,-2 v -2 c 0,-1.107998 -0.892002,-2 -2,-2 z m 18,0 c -1.107998,0 -2,0.892002 -2,2 v 2 c 0,1.107998 0.892002,2 2,2 h 10 c 1.107998,0 2,-0.892002 2,-2 v -2 c 0,-1.107998 -0.892002,-2 -2,-2 z" />
  <rect
     style="opacity:0.4;fill:#3daee9;fill-opacity:1;stroke-width:2;stroke-linecap:round;stroke-linejoin:round"
     id="rect23005"
     width="10"
     height="10"
     x="48"
     y="56" />
  <path
     id="rect23785"
     style="fill:#3daee9;fill-opacity:1;stroke-width:2;stroke-linecap:round;stroke-linejoin:round"
     d="m 58.378906,56.636 -5.664062,5.664064 -2.542968,-2.542968 -1.414062,1.414062 2.828124,2.828124 0.0078,-0.0078 1.125,1.128906 7.074218,-7.070312 z" />
  <path
     id="rect2630"
     style="opacity:0.3;fill:#ffffff;fill-opacity:1;stroke-width:1.5"
     d="M 21 7 C 13.244016 7 7 13.244016 7 21 L 7 22 C 7 14.244016 13.244016 8 21 8 L 75 8 C 82.755984 8 89 14.244016 89 22 L 89 21 C 89 13.244016 82.755984 7 75 7 L 21 7 z " />
  <path
     id="rect899"
     style="opacity:0.6;fill:#000000;stroke:none;stroke-width:1.5"
     d="M 21,6 C 12.690016,6 6,12.690016 6,21 v 54 c 0,8.309983 6.690016,15 15,15 h 54 c 8.309983,0 15,-6.690017 15,-15 V 21 C 90,12.690016 83.309983,6 75,6 Z m 0,1 h 54 c 7.755992,0 14,6.244008 14,14 v 54 c 0,7.755992 -6.244008,14 -14,14 H 21 C 13.244008,89 7,82.755992 7,75 V 21 C 7,13.244008 13.244008,7 21,7 Z" />
  <path
     id="rect398"
     style="opacity:0.3;fill:#ffffff;stroke-width:1.5"
     d="M 7 74 L 7 75 C 7 82.755984 13.244016 89 21 89 L 75 89 C 82.755984 89 89 82.755984 89 75 L 89 74 C 89 81.755982 82.755984 88 75 88 L 21 88 C 13.244016 88 7 81.755982 7 74 z " />
</svg>
