<?xml version="1.0" encoding="UTF-8" standalone="no"?>
<!-- Created with Inkscape (http://www.inkscape.org/) -->

<svg
   width="96"
   height="96"
   viewBox="0 0 96 96.000005"
   version="1.1"
   id="svg5"
   sodipodi:docname="preferences-system-network.svg"
   inkscape:version="1.3.2 (091e20ef0f, 2023-11-25, custom)"
   xmlns:inkscape="http://www.inkscape.org/namespaces/inkscape"
   xmlns:sodipodi="http://sodipodi.sourceforge.net/DTD/sodipodi-0.dtd"
   xmlns:xlink="http://www.w3.org/1999/xlink"
   xmlns="http://www.w3.org/2000/svg"
   xmlns:svg="http://www.w3.org/2000/svg">
  <sodipodi:namedview
     id="namedview7"
     pagecolor="#ffffff"
     bordercolor="#666666"
     borderopacity="1.0"
     inkscape:showpageshadow="2"
     inkscape:pageopacity="0.0"
     inkscape:pagecheckerboard="0"
     inkscape:deskcolor="#d1d1d1"
     inkscape:document-units="px"
     showgrid="false"
     inkscape:zoom="8.6041667"
     inkscape:cx="48"
     inkscape:cy="48"
     inkscape:window-width="1920"
     inkscape:window-height="1011"
     inkscape:window-x="0"
     inkscape:window-y="0"
     inkscape:window-maximized="1"
     inkscape:current-layer="svg5" />
  <defs
     id="defs2">
    <linearGradient
       inkscape:collect="always"
       xlink:href="#linearGradient3863"
       id="linearGradient15179"
       x1="24"
       y1="44.74699"
       x2="24"
       y2="3.2530122"
       gradientUnits="userSpaceOnUse"
       gradientTransform="matrix(2.0243902,0,0,2.0243902,-0.585366,-0.585366)" />
    <linearGradient
       inkscape:collect="always"
       id="linearGradient3863">
      <stop
         style="stop-color:#ab78ad;stop-opacity:1;"
         offset="0"
         id="stop3859" />
      <stop
         style="stop-color:#e7c0ea;stop-opacity:1;"
         offset="1"
         id="stop3861" />
    </linearGradient>
  </defs>
  <rect
     style="fill:url(#linearGradient15179);fill-opacity:1;stroke:none;stroke-width:2.02439"
     id="rect184"
     width="83"
     height="83"
     x="6.5"
     y="6.5"
     ry="14.5" />
  <path
     d="M 56,20.874 V 30.999002 H 44 v 4 h 16 v -5.875 l 14.875,11.875 -14.875,11.875 v -5.875 H 40 v -10.125 L 14.75,56.999002 40,77.124004 V 66.999002 h 12 v -4 H 36 v 5.875 L 21.125,56.999002 36,45.124002 v 5.875 h 20 v 10.125 l 25.25,-20.125"
     style="color:#000000;display:inline;opacity:0.2;fill:#000000;fill-opacity:1;stroke-width:2;enable-background:new"
     id="path3291" />
  <path
     d="M 56,19.875 V 30 H 44 v 4 H 60 V 28.125 L 74.875,40 60,51.875 V 46 H 40 V 35.875 L 14.75,56 40,76.125 V 66 H 52 V 62 H 36 v 5.875 L 21.125,56 36,44.125 V 50 H 56 V 60.125 L 81.25,40"
     style="color:#000000;display:inline;fill:#ffffff;fill-opacity:1;stroke-width:2;enable-background:new"
     id="path2863"
     sodipodi:nodetypes="cccccccccccccccccccccccc" />
  <path
     id="rect2630"
     style="opacity:0.3;fill:#ffffff;fill-opacity:1;stroke-width:1.5"
     d="M 21 7 C 13.244016 7 7 13.244016 7 21 L 7 22 C 7 14.244016 13.244016 8 21 8 L 75 8 C 82.755984 8 89 14.244016 89 22 L 89 21 C 89 13.244016 82.755984 7 75 7 L 21 7 z " />
  <path
     id="rect899"
     style="opacity:0.6;fill:#000000;stroke:none;stroke-width:1.5"
     d="M 21,6 C 12.690016,6 6,12.690016 6,21 v 54 c 0,8.309983 6.690016,15 15,15 h 54 c 8.309983,0 15,-6.690017 15,-15 V 21 C 90,12.690016 83.309983,6 75,6 Z m 0,1 h 54 c 7.755992,0 14,6.244008 14,14 v 54 c 0,7.755992 -6.244008,14 -14,14 H 21 C 13.244008,89 7,82.755992 7,75 V 21 C 7,13.244008 13.244008,7 21,7 Z" />
  <path
     id="rect398"
     style="opacity:0.3;fill:#ffffff;stroke-width:1.5"
     d="M 7 74 L 7 75 C 7 82.755984 13.244016 89 21 89 L 75 89 C 82.755984 89 89 82.755984 89 75 L 89 74 C 89 81.755982 82.755984 88 75 88 L 21 88 C 13.244016 88 7 81.755982 7 74 z " />
</svg>
