<?xml version="1.0" encoding="UTF-8" standalone="no"?>
<!-- Created with Inkscape (http://www.inkscape.org/) -->

<svg
   width="96"
   height="96"
   viewBox="0 0 96 96.000005"
   version="1.1"
   id="svg5"
   sodipodi:docname="preferences-desktop-screensaver.svg"
   inkscape:version="1.3.2 (091e20ef0f, 2023-11-25, custom)"
   xmlns:inkscape="http://www.inkscape.org/namespaces/inkscape"
   xmlns:sodipodi="http://sodipodi.sourceforge.net/DTD/sodipodi-0.dtd"
   xmlns:xlink="http://www.w3.org/1999/xlink"
   xmlns="http://www.w3.org/2000/svg"
   xmlns:svg="http://www.w3.org/2000/svg">
  <sodipodi:namedview
     id="namedview7"
     pagecolor="#ffffff"
     bordercolor="#666666"
     borderopacity="1.0"
     inkscape:showpageshadow="2"
     inkscape:pageopacity="0.0"
     inkscape:pagecheckerboard="0"
     inkscape:deskcolor="#d1d1d1"
     inkscape:document-units="px"
     showgrid="false"
     inkscape:zoom="8.6041667"
     inkscape:cx="48"
     inkscape:cy="48"
     inkscape:window-width="1920"
     inkscape:window-height="1011"
     inkscape:window-x="0"
     inkscape:window-y="0"
     inkscape:window-maximized="1"
     inkscape:current-layer="svg5" />
  <defs
     id="defs2">
    <linearGradient
       inkscape:collect="always"
       xlink:href="#linearGradient2"
       id="linearGradient15179"
       x1="24"
       y1="44.74699"
       x2="24"
       y2="3.2530122"
       gradientUnits="userSpaceOnUse"
       gradientTransform="matrix(2.0243902,0,0,2.0243902,-0.585366,-0.585366)" />
    <linearGradient
       inkscape:collect="always"
       id="linearGradient2">
      <stop
         style="stop-color:#4b315a;stop-opacity:1;"
         offset="0"
         id="stop1" />
      <stop
         style="stop-color:#68487d;stop-opacity:1;"
         offset="1"
         id="stop2" />
    </linearGradient>
  </defs>
  <rect
     style="fill:url(#linearGradient15179);fill-opacity:1;stroke:none;stroke-width:2.02439"
     id="rect184"
     width="83"
     height="83"
     x="6.5"
     y="6.5"
     ry="14.5" />
  <path
     d="m 48.993633,21 c -11.065039,0.40626 -21.261557,7.227419 -25.281817,18.272977 -5.295637,14.549679 2.09624,30.749696 16.645958,36.045356 11.045519,4.020219 22.989557,0.58058 30.413236,-7.634619 -5.317799,1.71658 -11.238538,1.8089 -16.896238,-0.2503 C 40.364334,62.516014 33.437855,47.526756 38.355254,34.016378 40.414474,28.358659 44.260433,23.970299 48.993633,21 Z m 17.021398,1.20986 -1.13162,4.208399 -4.20842,1.13164 4.20842,1.13164 1.13162,4.208419 1.13164,-4.208419 4.208419,-1.13164 -4.208419,-1.13164 z m -13.350119,7.926639 -0.850039,3.154999 -3.155,0.85004 3.155,0.85002 0.850039,3.15502 0.85002,-3.15502 3.15502,-0.85002 -3.15502,-0.85004 z m 16.020158,8.093519 -0.56584,2.104199 -2.104199,0.56582 2.104199,0.56582 0.56584,2.1042 0.5658,-2.1042 2.10422,-0.56582 -2.10422,-0.56582 z m -4.005039,13.350118 -0.85004,3.154999 -3.155,0.85004 3.155,0.85002 0.85004,3.15502 0.85002,-3.15502 3.155019,-0.85002 -3.155019,-0.85004 z"
     style="color:#bebebe;display:inline;overflow:visible;visibility:visible;opacity:0.2;fill:#000000;fill-opacity:1;fill-rule:nonzero;stroke:none;stroke-width:2;marker:none;enable-background:accumulate"
     id="path1" />
  <path
     d="m 48.993615,20 c -11.065039,0.40626 -21.261557,7.227419 -25.281817,18.272978 -5.295639,14.549678 2.09624,30.749696 16.645958,36.045355 11.045519,4.02022 22.989557,0.58058 30.413236,-7.634619 -5.317799,1.71658 -11.238538,1.8089 -16.896238,-0.2503 C 40.364316,61.516015 33.437837,46.526757 38.355236,33.016378 40.414456,27.358659 44.260415,22.9703 48.993615,20 Z m 17.021398,1.20986 -1.13162,4.208399 -4.20842,1.13164 4.20842,1.13164 1.13162,4.208419 1.13164,-4.208419 4.208419,-1.13164 -4.208419,-1.13164 z m -13.350119,7.926639 -0.850039,3.154999 -3.155,0.85004 3.155,0.85002 0.850039,3.15502 0.85002,-3.15502 3.15502,-0.85002 -3.15502,-0.85004 z m 16.020158,8.093519 -0.56584,2.1042 -2.104199,0.565819 2.104199,0.56582 0.56584,2.1042 0.5658,-2.1042 2.10422,-0.56582 -2.10422,-0.565819 z m -4.005039,13.350118 -0.85004,3.155 -3.155,0.85004 3.155,0.850019 0.85004,3.15502 0.85002,-3.15502 3.155019,-0.850019 -3.155019,-0.85004 z"
     style="color:#bebebe;display:inline;overflow:visible;visibility:visible;fill:#ffffff;fill-opacity:1;fill-rule:nonzero;stroke:none;stroke-width:2;marker:none;enable-background:accumulate"
     id="path1-9" />
  <path
     id="rect2630"
     style="opacity:0.1;fill:#ffffff;fill-opacity:1;stroke-width:1.5"
     d="M 21 7 C 13.244016 7 7 13.244016 7 21 L 7 22 C 7 14.244016 13.244016 8 21 8 L 75 8 C 82.755984 8 89 14.244016 89 22 L 89 21 C 89 13.244016 82.755984 7 75 7 L 21 7 z " />
  <path
     id="rect899"
     style="opacity:0.6;fill:#000000;stroke:none;stroke-width:1.5"
     d="M 21,6 C 12.690016,6 6,12.690016 6,21 v 54 c 0,8.309983 6.690016,15 15,15 h 54 c 8.309983,0 15,-6.690017 15,-15 V 21 C 90,12.690016 83.309983,6 75,6 Z m 0,1 h 54 c 7.755992,0 14,6.244008 14,14 v 54 c 0,7.755992 -6.244008,14 -14,14 H 21 C 13.244008,89 7,82.755992 7,75 V 21 C 7,13.244008 13.244008,7 21,7 Z" />
  <path
     id="rect398"
     style="opacity:0.1;fill:#ffffff;stroke-width:1.5"
     d="M 7 74 L 7 75 C 7 82.755984 13.244016 89 21 89 L 75 89 C 82.755984 89 89 82.755984 89 75 L 89 74 C 89 81.755982 82.755984 88 75 88 L 21 88 C 13.244016 88 7 81.755982 7 74 z " />
</svg>
