<?xml version="1.0" encoding="UTF-8" standalone="no"?>
<!-- Created with Inkscape (http://www.inkscape.org/) -->

<svg
   width="96"
   height="96"
   viewBox="0 0 96 96.000005"
   version="1.1"
   id="svg5"
   sodipodi:docname="preferences-desktop-keyboard.svg"
   inkscape:version="1.3.2 (091e20ef0f, 2023-11-25, custom)"
   xmlns:inkscape="http://www.inkscape.org/namespaces/inkscape"
   xmlns:sodipodi="http://sodipodi.sourceforge.net/DTD/sodipodi-0.dtd"
   xmlns:xlink="http://www.w3.org/1999/xlink"
   xmlns="http://www.w3.org/2000/svg"
   xmlns:svg="http://www.w3.org/2000/svg">
  <sodipodi:namedview
     id="namedview7"
     pagecolor="#ffffff"
     bordercolor="#666666"
     borderopacity="1.0"
     inkscape:showpageshadow="2"
     inkscape:pageopacity="0.0"
     inkscape:pagecheckerboard="0"
     inkscape:deskcolor="#d1d1d1"
     inkscape:document-units="px"
     showgrid="false"
     inkscape:zoom="8.4166667"
     inkscape:cx="48"
     inkscape:cy="48"
     inkscape:window-width="1920"
     inkscape:window-height="1011"
     inkscape:window-x="0"
     inkscape:window-y="0"
     inkscape:window-maximized="1"
     inkscape:current-layer="svg5" />
  <defs
     id="defs2">
    <linearGradient
       inkscape:collect="always"
       xlink:href="#linearGradient22024"
       id="linearGradient3525"
       x1="50.115543"
       y1="59.831326"
       x2="13.735723"
       y2="4.1686749"
       gradientUnits="userSpaceOnUse"
       gradientTransform="matrix(1.5090909,0,0,1.5090909,-0.2909091,-0.2909091)" />
    <linearGradient
       inkscape:collect="always"
       id="linearGradient22024">
      <stop
         style="stop-color:#cdcdcd;stop-opacity:1;"
         offset="0"
         id="stop22020" />
      <stop
         style="stop-color:#eff0f1;stop-opacity:1;"
         offset="1"
         id="stop22022" />
    </linearGradient>
  </defs>
  <rect
     style="fill:url(#linearGradient3525);fill-opacity:1;stroke:none;stroke-width:1.50909"
     id="rect184"
     width="83"
     height="83"
     x="6.5"
     y="6.5"
     ry="14.5" />
  <path
     d="m 20,26 c -1.108,0 -2,0.892 -2,2 v 8 c 0,1.107998 0.892,2 2,2 h 8 c 1.107998,0 2,-0.892002 2,-2 v -8 c 0,-1.108 -0.892002,-2 -2,-2 z m 16,0 c -1.107998,0 -2,0.892 -2,2 v 8 c 0,1.107998 0.892002,2 2,2 h 8 c 1.108,0 2,-0.892002 2,-2 v -8 c 0,-1.108 -0.892,-2 -2,-2 z m 16,0 c -1.108,0 -2,0.892 -2,2 v 8 c 0,1.107998 0.892,2 2,2 h 8 c 1.107998,0 2,-0.892002 2,-2 v -8 c 0,-1.108 -0.892002,-2 -2,-2 z m 16,0 c -1.108,0 -2,0.892 -2,2 v 8 c 0,1.107998 0.892,2 2,2 h 8 c 1.107998,0 2,-0.892002 2,-2 v -8 c 0,-1.108 -0.892002,-2 -2,-2 z M 20,42 c -1.108,0 -2,0.892 -2,2 v 8 c 0,1.107998 0.892,2 2,2 h 8 c 1.107998,0 2,-0.892002 2,-2 v -8 c 0,-1.108 -0.892002,-2 -2,-2 z m 16,0 c -1.107998,0 -2,0.892 -2,2 v 8 c 0,1.107998 0.892002,2 2,2 h 8 c 1.108,0 2,-0.892002 2,-2 v -8 c 0,-1.108 -0.892,-2 -2,-2 z m 16,0 c -1.108,0 -2,0.892 -2,2 v 8 c 0,1.107998 0.892,2 2,2 h 8 c 1.107998,0 2,-0.892002 2,-2 v -8 c 0,-1.108 -0.892002,-2 -2,-2 z m 16,0 c -1.108,0 -2,0.892 -2,2 v 8 c 0,1.107998 0.892,2 2,2 h 8 c 1.107998,0 2,-0.892002 2,-2 v -8 c 0,-1.108 -0.892002,-2 -2,-2 z M 28,58 c -1.108,0 -2,0.892 -2,2 v 8 c 0,1.107998 0.892,2 2,2 h 40 c 1.107998,0 2,-0.892002 2,-2 v -8 c 0,-1.108 -0.892002,-2 -2,-2 z"
     style="fill:#afafaf;fill-opacity:1;stroke-width:2;stroke-linecap:round;stroke-linejoin:round"
     id="path1728"
     sodipodi:nodetypes="sssssssssssssssssssssssssssssssssssssssssssssssssssssssssssssssssssssssssssssssss" />
  <path
     id="path847"
     style="opacity:0.2;fill:#000000;fill-opacity:1;stroke-width:2;stroke-linecap:round;stroke-linejoin:round"
     d="M 20 26 C 18.892003 26 18 26.892003 18 28 L 18 29 C 18 27.892001 18.892001 27 20 27 L 28 27 C 29.107997 27 30 27.892001 30 29 L 30 28 C 30 26.892003 29.107995 26 28 26 L 20 26 z M 36 26 C 34.892005 26 34 26.892003 34 28 L 34 29 C 34 27.892001 34.892003 27 36 27 L 44 27 C 45.107999 27 46 27.892001 46 29 L 46 28 C 46 26.892003 45.107997 26 44 26 L 36 26 z M 52 26 C 50.892003 26 50 26.892003 50 28 L 50 29 C 50 27.892001 50.892001 27 52 27 L 60 27 C 61.107997 27 62 27.892001 62 29 L 62 28 C 62 26.892003 61.107995 26 60 26 L 52 26 z M 68 26 C 66.892003 26 66 26.892003 66 28 L 66 29 C 66 27.892001 66.892001 27 68 27 L 76 27 C 77.107997 27 78 27.892001 78 29 L 78 28 C 78 26.892003 77.107995 26 76 26 L 68 26 z M 20 42 C 18.892003 42 18 42.892003 18 44 L 18 45 C 18 43.892001 18.892001 43 20 43 L 28 43 C 29.107997 43 30 43.892001 30 45 L 30 44 C 30 42.892003 29.107995 42 28 42 L 20 42 z M 36 42 C 34.892005 42 34 42.892003 34 44 L 34 45 C 34 43.892001 34.892003 43 36 43 L 44 43 C 45.107999 43 46 43.892001 46 45 L 46 44 C 46 42.892003 45.107997 42 44 42 L 36 42 z M 52 42 C 50.892003 42 50 42.892003 50 44 L 50 45 C 50 43.892001 50.892001 43 52 43 L 60 43 C 61.107997 43 62 43.892001 62 45 L 62 44 C 62 42.892003 61.107995 42 60 42 L 52 42 z M 68 42 C 66.892003 42 66 42.892003 66 44 L 66 45 C 66 43.892001 66.892001 43 68 43 L 76 43 C 77.107997 43 78 43.892001 78 45 L 78 44 C 78 42.892003 77.107995 42 76 42 L 68 42 z M 28 58 C 26.892003 58 26 58.892003 26 60 L 26 61 C 26 59.892001 26.892001 59 28 59 L 68 59 C 69.107997 59 70 59.892001 70 61 L 70 60 C 70 58.892003 69.107995 58 68 58 L 28 58 z " />
  <path
     id="rect2630"
     style="opacity:0.3;fill:#ffffff;fill-opacity:1;stroke-width:1.5"
     d="M 21 7 C 13.244016 7 7 13.244016 7 21 L 7 22 C 7 14.244016 13.244016 8 21 8 L 75 8 C 82.755984 8 89 14.244016 89 22 L 89 21 C 89 13.244016 82.755984 7 75 7 L 21 7 z " />
  <path
     id="rect899"
     style="opacity:0.6;fill:#000000;stroke:none;stroke-width:1.5"
     d="M 21,6 C 12.690016,6 6,12.690016 6,21 v 54 c 0,8.309983 6.690016,15 15,15 h 54 c 8.309983,0 15,-6.690017 15,-15 V 21 C 90,12.690016 83.309983,6 75,6 Z m 0,1 h 54 c 7.755992,0 14,6.244008 14,14 v 54 c 0,7.755992 -6.244008,14 -14,14 H 21 C 13.244008,89 7,82.755992 7,75 V 21 C 7,13.244008 13.244008,7 21,7 Z" />
  <path
     id="rect398"
     style="opacity:0.3;fill:#ffffff;stroke-width:1.5"
     d="M 7 74 L 7 75 C 7 82.755984 13.244016 89 21 89 L 75 89 C 82.755984 89 89 82.755984 89 75 L 89 74 C 89 81.755982 82.755984 88 75 88 L 21 88 C 13.244016 88 7 81.755982 7 74 z " />
</svg>
