<?xml version="1.0" encoding="UTF-8" standalone="no"?>
<!-- Created with Inkscape (http://www.inkscape.org/) -->

<svg
   width="96"
   height="96"
   viewBox="0 0 96 96.000005"
   version="1.1"
   id="svg5"
   sodipodi:docname="preferences-system-bluetooth.svg"
   inkscape:version="1.3.2 (091e20ef0f, 2023-11-25, custom)"
   xmlns:inkscape="http://www.inkscape.org/namespaces/inkscape"
   xmlns:sodipodi="http://sodipodi.sourceforge.net/DTD/sodipodi-0.dtd"
   xmlns:xlink="http://www.w3.org/1999/xlink"
   xmlns="http://www.w3.org/2000/svg"
   xmlns:svg="http://www.w3.org/2000/svg">
  <sodipodi:namedview
     id="namedview7"
     pagecolor="#ffffff"
     bordercolor="#666666"
     borderopacity="1.0"
     inkscape:showpageshadow="2"
     inkscape:pageopacity="0.0"
     inkscape:pagecheckerboard="0"
     inkscape:deskcolor="#d1d1d1"
     inkscape:document-units="px"
     showgrid="false"
     inkscape:zoom="8.6041667"
     inkscape:cx="48"
     inkscape:cy="48"
     inkscape:window-width="1920"
     inkscape:window-height="1011"
     inkscape:window-x="0"
     inkscape:window-y="0"
     inkscape:window-maximized="1"
     inkscape:current-layer="svg5" />
  <defs
     id="defs2">
    <linearGradient
       inkscape:collect="always"
       xlink:href="#linearGradient2466"
       id="linearGradient3525"
       x1="50.115543"
       y1="59.831326"
       x2="13.735723"
       y2="4.1686749"
       gradientUnits="userSpaceOnUse"
       gradientTransform="matrix(1.5090909,0,0,1.5090909,-0.2909091,-0.2909091)" />
    <linearGradient
       inkscape:collect="always"
       id="linearGradient2466">
      <stop
         style="stop-color:#366ecb;stop-opacity:1;"
         offset="0"
         id="stop2462" />
      <stop
         style="stop-color:#3694cb;stop-opacity:1;"
         offset="1"
         id="stop2464" />
    </linearGradient>
  </defs>
  <rect
     style="fill:url(#linearGradient3525);fill-opacity:1;stroke:none;stroke-width:1.50909"
     id="rect184"
     width="83"
     height="83"
     x="6.5"
     y="6.5"
     ry="14.5" />
  <path
     d="m 47.289,21.123876 c -0.776172,0.29508 -1.289256,1.03908 -1.289256,1.86944 V 44.306128 L 33.235776,33.419958 c -0.868572,-0.6824 -2.125868,-0.53156 -2.808312,0.337 -0.682452,0.86856 -0.531568,2.12584 0.337,2.80828 L 45.489656,48.992208 30.764464,61.42 c -0.868568,0.6824 -1.019452,1.9396 -0.337,2.808 0.682444,0.8688 1.93974,1.0196 2.808312,0.3372 L 45.999744,53.678608 v 21.313354 c 0,0.8304 0.513084,1.5744 1.289256,1.8696 0.77617,0.2952 1.653942,0.08 2.205626,-0.5408 L 65.494814,62.321008 c 0.36636,-0.412 0.546328,-0.9572 0.497244,-1.5068 -0.04908,-0.5492 -0.3228,-1.054 -0.756448,-1.3944 L 51.964254,48.992208 65.23561,38.565006 c 0.433648,-0.34072 0.707368,-0.8454 0.756448,-1.39468 0.04908,-0.54932 -0.13088,-1.09448 -0.497244,-1.50668 L 49.494626,21.664436 C 48.869674,21.11764 48.06517,20.828636 47.289,21.123716 Z m 2.710794,31.412012 10.29256,8.716 -10.29256,8.479752 z m 0,-7.0872 v -17.19521 l 10.29256,8.479208 z"
     style="opacity:0.2;fill:#000000;stroke-width:4.00004"
     id="path528" />
  <path
     d="m 47.289,20.124744 c -0.776172,0.29508 -1.289256,1.03908 -1.289256,1.86944 v 21.31281 L 33.235776,32.420824 c -0.868572,-0.6824 -2.125868,-0.53156 -2.808312,0.337 -0.682452,0.86856 -0.531568,2.12584 0.337,2.80828 l 14.725192,12.42697 -14.725192,12.427792 c -0.868568,0.6824 -1.019452,1.9396 -0.337,2.808 0.682444,0.8688 1.93974,1.0196 2.808312,0.3372 L 45.999744,52.679474 v 21.313352 c 0,0.8304 0.513084,1.5744 1.289256,1.8696 0.77617,0.2952 1.653942,0.08 2.205626,-0.5408 L 65.494814,61.321874 c 0.36636,-0.412 0.546328,-0.9572 0.497244,-1.5068 -0.04908,-0.5492 -0.3228,-1.054 -0.756448,-1.3944 L 51.964254,47.993074 65.23561,37.565872 c 0.433648,-0.34072 0.707368,-0.8454 0.756448,-1.39468 0.04908,-0.54932 -0.13088,-1.09448 -0.497244,-1.50668 L 49.494626,20.665304 C 48.869674,20.118508 48.06517,19.829504 47.289,20.124584 Z m 2.710794,31.41201 10.29256,8.716 -10.29256,8.479752 z m 0,-7.0872 v -17.19521 l 10.29256,8.479208 z"
     id="path346"
     sodipodi:nodetypes="csccsccccccssccccccscscccccccccc"
     style="fill:#ffffff;stroke-width:4.00004" />
  <path
     id="rect2630"
     style="opacity:0.3;fill:#ffffff;fill-opacity:1;stroke-width:1.5"
     d="M 21 7 C 13.244016 7 7 13.244016 7 21 L 7 22 C 7 14.244016 13.244016 8 21 8 L 75 8 C 82.755984 8 89 14.244016 89 22 L 89 21 C 89 13.244016 82.755984 7 75 7 L 21 7 z " />
  <path
     id="rect899"
     style="opacity:0.6;fill:#000000;stroke:none;stroke-width:1.5"
     d="M 21,6 C 12.690016,6 6,12.690016 6,21 v 54 c 0,8.309983 6.690016,15 15,15 h 54 c 8.309983,0 15,-6.690017 15,-15 V 21 C 90,12.690016 83.309983,6 75,6 Z m 0,1 h 54 c 7.755992,0 14,6.244008 14,14 v 54 c 0,7.755992 -6.244008,14 -14,14 H 21 C 13.244008,89 7,82.755992 7,75 V 21 C 7,13.244008 13.244008,7 21,7 Z" />
  <path
     id="rect398"
     style="opacity:0.3;fill:#ffffff;stroke-width:1.5"
     d="M 7 74 L 7 75 C 7 82.755984 13.244016 89 21 89 L 75 89 C 82.755984 89 89 82.755984 89 75 L 89 74 C 89 81.755982 82.755984 88 75 88 L 21 88 C 13.244016 88 7 81.755982 7 74 z " />
</svg>
