<?xml version="1.0" encoding="UTF-8" standalone="no"?>
<!-- Created with Inkscape (http://www.inkscape.org/) -->

<svg
   width="96"
   height="96"
   viewBox="0 0 96 96.000005"
   version="1.1"
   id="svg5"
   sodipodi:docname="preferences-desktop-font-installer.svg"
   inkscape:version="1.3.2 (091e20ef0f, 2023-11-25, custom)"
   xmlns:inkscape="http://www.inkscape.org/namespaces/inkscape"
   xmlns:sodipodi="http://sodipodi.sourceforge.net/DTD/sodipodi-0.dtd"
   xmlns:xlink="http://www.w3.org/1999/xlink"
   xmlns="http://www.w3.org/2000/svg"
   xmlns:svg="http://www.w3.org/2000/svg">
  <sodipodi:namedview
     id="namedview7"
     pagecolor="#ffffff"
     bordercolor="#666666"
     borderopacity="1.0"
     inkscape:showpageshadow="2"
     inkscape:pageopacity="0.0"
     inkscape:pagecheckerboard="0"
     inkscape:deskcolor="#d1d1d1"
     inkscape:document-units="px"
     showgrid="false"
     inkscape:zoom="8.6041667"
     inkscape:cx="48"
     inkscape:cy="48"
     inkscape:window-width="1920"
     inkscape:window-height="1011"
     inkscape:window-x="0"
     inkscape:window-y="0"
     inkscape:window-maximized="1"
     inkscape:current-layer="svg5" />
  <defs
     id="defs2">
    <linearGradient
       inkscape:collect="always"
       xlink:href="#linearGradient6608"
       id="linearGradient15179"
       x1="24"
       y1="44.74699"
       x2="24"
       y2="3.2530122"
       gradientUnits="userSpaceOnUse"
       gradientTransform="matrix(2.0243902,0,0,2.0243902,-0.585366,-0.585366)" />
    <linearGradient
       inkscape:collect="always"
       id="linearGradient6608">
      <stop
         style="stop-color:#b79877;stop-opacity:1;"
         offset="0"
         id="stop6604" />
      <stop
         style="stop-color:#f7d2a2;stop-opacity:1;"
         offset="1"
         id="stop6606" />
    </linearGradient>
  </defs>
  <rect
     style="fill:url(#linearGradient15179);fill-opacity:1;stroke:none;stroke-width:2.02439"
     id="rect184"
     width="83"
     height="83"
     x="6.5"
     y="6.5"
     ry="14.5" />
  <rect
     style="opacity:0.2;fill:#ffffff;stroke-width:1.1388;stroke-linejoin:round"
     id="rect581"
     width="83"
     height="1"
     x="6.5"
     y="48" />
  <rect
     style="opacity:0.2;fill:#000000;fill-opacity:1;stroke-width:1.22845;stroke-linecap:round;stroke-linejoin:round"
     id="rect11182"
     width="83"
     height="1"
     x="6.5"
     y="47" />
  <path
     d="M 32.1693,29 18,67.716545 h 5.025256 l 3.877516,-10.908736 h 15.561757 l 3.877514,10.908736 h 5.080406 L 37.249703,29 Z m 2.354078,6.255722 h 0.320544 l 6.148873,17.326459 H 28.374502 Z m 32.567671,3.050316 c -2.103368,0 -4.003964,0.335966 -5.697358,1.013318 -1.675572,0.659532 -3.02003,1.587186 -4.036064,2.781474 -1.01603,1.194284 -1.62032,2.567989 -1.816394,4.118779 h 4.811564 c 0.338742,-1.158636 1.069096,-2.096034 2.19209,-2.809043 1.122984,-0.730832 2.56778,-1.096044 4.33247,-1.096044 2.15685,0 3.785675,0.507396 4.890841,1.523432 1.122978,0.998211 1.685424,2.433257 1.685424,4.304901 v 2.354084 c -0.623884,0.018 -1.780864,0.07286 -3.474254,0.162 -1.693389,0.08912 -3.157683,0.17628 -4.387625,0.26541 -3.155058,0.23172 -5.76658,0.971898 -7.834298,2.219662 -2.049898,1.229934 -3.074438,3.34381 -3.074438,6.338438 0,1.836 0.436302,3.429282 1.309738,4.783992 0.873436,1.33689 2.059652,2.361434 3.55697,3.074442 1.497314,0.69518 3.174886,1.054096 5.028706,1.07192 2.281622,-0.018 4.143224,-0.493114 5.587069,-1.420038 1.461666,-0.944736 2.48621,-2.020868 3.074438,-3.232986 h 0.21369 v 3.956786 H 77.99979 V 48.573701 c 0.0178,-4.010666 -1.097292,-6.722523 -3.343258,-8.130713 -2.245978,-1.426018 -4.766912,-2.136942 -7.565467,-2.136942 z m 6.362573,15.961569 v 2.912446 c 0,1.247762 -0.319978,2.41793 -0.961626,3.505268 -0.623878,1.087344 -1.54178,1.95995 -2.753898,2.619476 -1.212109,0.659534 -2.647157,0.989198 -4.304901,0.989198 -1.853818,0 -3.343908,-0.390954 -4.466898,-1.175322 -1.105154,-0.784304 -1.664148,-1.925236 -1.681974,-3.422552 0.018,-1.532958 0.61236,-2.70313 1.788826,-3.505264 1.194284,-0.802134 2.881604,-1.273984 5.05628,-1.416586 l 3.794791,-0.26538 c 1.942954,-0.14258 3.119434,-0.22344 3.5294,-0.24126 z"
     style="font-size:8.21007px;line-height:1.25;font-family:Pretendard;-inkscape-font-specification:Pretendard;opacity:0.5;fill:#ffffff;stroke-width:1.36898"
     id="path1907"
     sodipodi:nodetypes="ccccccccccccccscscccscscsccsccccccccccscscsscccccc" />
  <path
     d="M 32.1693,28 18,66.716551 h 5.025258 l 3.877514,-10.908736 h 15.561757 l 3.877514,10.908736 h 5.080406 L 37.249703,28 Z m 2.354078,6.255728 h 0.320544 l 6.148873,17.326457 H 28.374502 Z m 32.567671,3.050312 c -2.103368,0 -4.003964,0.33597 -5.697358,1.013318 -1.675572,0.659536 -3.02003,1.587188 -4.036064,2.781478 -1.016032,1.194284 -1.62032,2.567988 -1.816396,4.118777 h 4.811564 c 0.338744,-1.158633 1.069098,-2.096033 2.19209,-2.809043 1.122984,-0.73083 2.567782,-1.096042 4.332472,-1.096042 2.15685,0 3.785673,0.507392 4.890839,1.523432 1.122978,0.99821 1.685424,2.433257 1.685424,4.304899 v 2.354088 c -0.623882,0.018 -1.78086,0.07286 -3.474254,0.162 -1.693387,0.08914 -3.157681,0.17628 -4.387623,0.26538 -3.155058,0.23172 -5.766582,0.9719 -7.834298,2.219664 -2.049898,1.229936 -3.074438,3.34381 -3.074438,6.33844 0,1.835998 0.436302,3.429278 1.309736,4.783992 0.873438,1.336886 2.059654,2.361434 3.556972,3.074438 1.497314,0.695178 3.174886,1.054098 5.028706,1.07192 2.281622,-0.018 4.143224,-0.493116 5.587069,-1.420038 1.461666,-0.944736 2.48621,-2.02087 3.074438,-3.232986 h 0.21369 v 3.95679 H 77.99979 V 47.573681 c 0.0178,-4.010665 -1.097292,-6.722525 -3.34326,-8.130715 -2.245976,-1.426016 -4.76691,-2.13694 -7.565467,-2.13694 z m 6.362571,15.961575 v 2.912444 c 0,1.247762 -0.319976,2.417926 -0.961624,3.505268 -0.623876,1.08734 -1.541782,1.959946 -2.753898,2.619472 -1.212111,0.659538 -2.647157,0.989202 -4.304903,0.989202 -1.853816,0 -3.343906,-0.390954 -4.466896,-1.175324 -1.105154,-0.784302 -1.664148,-1.925234 -1.681974,-3.42255 0.018,-1.53296 0.61236,-2.703134 1.788824,-3.505266 1.194286,-0.802132 2.881604,-1.273986 5.05628,-1.416584 l 3.794791,-0.26541 c 1.942956,-0.1426 3.119436,-0.22344 3.5294,-0.24126 z"
     style="font-size:8.21007px;line-height:1.25;font-family:Pretendard;-inkscape-font-specification:Pretendard;fill:#4d4d4d;stroke-width:1.36898"
     id="path1940" />
  <path
     id="rect2630"
     style="opacity:0.3;fill:#ffffff;fill-opacity:1;stroke-width:1.5"
     d="M 21 7 C 13.244016 7 7 13.244016 7 21 L 7 22 C 7 14.244016 13.244016 8 21 8 L 75 8 C 82.755984 8 89 14.244016 89 22 L 89 21 C 89 13.244016 82.755984 7 75 7 L 21 7 z " />
  <path
     id="rect899"
     style="opacity:0.6;fill:#000000;stroke:none;stroke-width:1.5"
     d="M 21,6 C 12.690016,6 6,12.690016 6,21 v 54 c 0,8.309983 6.690016,15 15,15 h 54 c 8.309983,0 15,-6.690017 15,-15 V 21 C 90,12.690016 83.309983,6 75,6 Z m 0,1 h 54 c 7.755992,0 14,6.244008 14,14 v 54 c 0,7.755992 -6.244008,14 -14,14 H 21 C 13.244008,89 7,82.755992 7,75 V 21 C 7,13.244008 13.244008,7 21,7 Z" />
  <path
     id="rect398"
     style="opacity:0.3;fill:#ffffff;stroke-width:1.5"
     d="M 7 74 L 7 75 C 7 82.755984 13.244016 89 21 89 L 75 89 C 82.755984 89 89 82.755984 89 75 L 89 74 C 89 81.755982 82.755984 88 75 88 L 21 88 C 13.244016 88 7 81.755982 7 74 z " />
</svg>
