<?xml version="1.0" encoding="UTF-8" standalone="no"?>
<!-- Created with Inkscape (http://www.inkscape.org/) -->

<svg
   width="96"
   height="96"
   viewBox="0 0 96 96.000005"
   version="1.1"
   id="svg5"
   sodipodi:docname="preferences-desktop-accessibility.svg"
   inkscape:version="1.3.2 (091e20ef0f, 2023-11-25, custom)"
   xmlns:inkscape="http://www.inkscape.org/namespaces/inkscape"
   xmlns:sodipodi="http://sodipodi.sourceforge.net/DTD/sodipodi-0.dtd"
   xmlns:xlink="http://www.w3.org/1999/xlink"
   xmlns="http://www.w3.org/2000/svg"
   xmlns:svg="http://www.w3.org/2000/svg">
  <sodipodi:namedview
     id="namedview7"
     pagecolor="#ffffff"
     bordercolor="#666666"
     borderopacity="1.0"
     inkscape:showpageshadow="2"
     inkscape:pageopacity="0.0"
     inkscape:pagecheckerboard="0"
     inkscape:deskcolor="#d1d1d1"
     inkscape:document-units="px"
     showgrid="false"
     inkscape:zoom="8.6041667"
     inkscape:cx="48"
     inkscape:cy="48"
     inkscape:window-width="1920"
     inkscape:window-height="1011"
     inkscape:window-x="0"
     inkscape:window-y="0"
     inkscape:window-maximized="1"
     inkscape:current-layer="svg5"
     showguides="false" />
  <defs
     id="defs2">
    <linearGradient
       inkscape:collect="always"
       xlink:href="#linearGradient3463"
       id="linearGradient3525"
       x1="50.115543"
       y1="59.831326"
       x2="13.735723"
       y2="4.1686749"
       gradientUnits="userSpaceOnUse"
       gradientTransform="matrix(1.5090909,0,0,1.5090909,-0.2909091,-0.2909091)" />
    <linearGradient
       inkscape:collect="always"
       id="linearGradient3463">
      <stop
         style="stop-color:#0064cd;stop-opacity:1;"
         offset="0"
         id="stop3459" />
      <stop
         style="stop-color:#35a2f2;stop-opacity:1;"
         offset="1"
         id="stop3461" />
    </linearGradient>
  </defs>
  <rect
     style="fill:url(#linearGradient3525);fill-opacity:1;stroke:none;stroke-width:1.50909"
     id="rect184"
     width="83"
     height="83"
     x="6.5"
     y="6.5"
     ry="14.5" />
  <path
     id="path3009-1"
     style="opacity:0.2;fill:#000000;stroke-width:8"
     d="m 48,21 c -3.313788,0 -6,2.68621 -6,6 0,3.313792 2.686212,6 6,6 3.313788,0 6,-2.686208 6,-6 0,-3.31379 -2.686212,-6 -6,-6 z M 28,37 a 2,2 0 0 0 -2,2 2,2 0 0 0 2,2 h 14 v 34 a 2,2 0 0 0 2,2 2,2 0 0 0 2,-2 2,2 0 0 0 0,-0.10156 V 53.000004 h 4 v 22 a 2,2 0 0 0 2,2 2,2 0 0 0 2,-2 2,2 0 0 0 0,-0.10156 v -33.89844 h 14 a 2,2 0 0 0 2,-2 2,2 0 0 0 -2,-2 z" />
  <path
     id="path2789-2"
     style="fill:#ffffff;stroke-width:8"
     d="m 48,19.999998 c -3.313784,0 -6,2.686212 -6,6 0,3.31379 2.686216,6 6,6 3.313784,0 6,-2.68621 6,-6 0,-3.313788 -2.686216,-6 -6,-6 z m -20,16 c -1.104568,0 -2,0.895432 -2,2 0,1.104568 0.895432,2 2,2 h 14 v 34 a 2,2 0 0 0 2,2 2,2 0 0 0 2,-2 2,2 0 0 0 0,-0.10156 V 52.000002 h 4 v 22 a 2,2 0 0 0 2,2 2,2 0 0 0 2,-2 2,2 0 0 0 0,-0.10156 v -33.89844 h 14 c 1.104568,0 2,-0.895432 2,-2 0,-1.104568 -0.895432,-2 -2,-2 H 28.101564 c -0.034,-8.6e-4 -0.06772,-8.6e-4 -0.10156,0 z" />
  <path
     id="rect2630"
     style="opacity:0.3;fill:#ffffff;fill-opacity:1;stroke-width:1.5"
     d="M 21 7 C 13.244016 7 7 13.244016 7 21 L 7 22 C 7 14.244016 13.244016 8 21 8 L 75 8 C 82.755984 8 89 14.244016 89 22 L 89 21 C 89 13.244016 82.755984 7 75 7 L 21 7 z " />
  <path
     id="rect899"
     style="opacity:0.6;fill:#000000;stroke:none;stroke-width:1.5"
     d="M 21,6 C 12.690016,6 6,12.690016 6,21 v 54 c 0,8.309983 6.690016,15 15,15 h 54 c 8.309983,0 15,-6.690017 15,-15 V 21 C 90,12.690016 83.309983,6 75,6 Z m 0,1 h 54 c 7.755992,0 14,6.244008 14,14 v 54 c 0,7.755992 -6.244008,14 -14,14 H 21 C 13.244008,89 7,82.755992 7,75 V 21 C 7,13.244008 13.244008,7 21,7 Z" />
  <path
     id="rect398"
     style="opacity:0.3;fill:#ffffff;stroke-width:1.5"
     d="M 7 74 L 7 75 C 7 82.755984 13.244016 89 21 89 L 75 89 C 82.755984 89 89 82.755984 89 75 L 89 74 C 89 81.755982 82.755984 88 75 88 L 21 88 C 13.244016 88 7 81.755982 7 74 z " />
</svg>
