<?xml version="1.0" encoding="UTF-8" standalone="no"?>
<!-- Created with Inkscape (http://www.inkscape.org/) -->

<svg
   width="96"
   height="96"
   viewBox="0 0 96 96.000005"
   version="1.1"
   id="svg5"
   sodipodi:docname="preferences-security.svg"
   inkscape:version="1.3.2 (091e20ef0f, 2023-11-25, custom)"
   xmlns:inkscape="http://www.inkscape.org/namespaces/inkscape"
   xmlns:sodipodi="http://sodipodi.sourceforge.net/DTD/sodipodi-0.dtd"
   xmlns:xlink="http://www.w3.org/1999/xlink"
   xmlns="http://www.w3.org/2000/svg"
   xmlns:svg="http://www.w3.org/2000/svg">
  <sodipodi:namedview
     id="namedview7"
     pagecolor="#ffffff"
     bordercolor="#666666"
     borderopacity="1.0"
     inkscape:showpageshadow="2"
     inkscape:pageopacity="0.0"
     inkscape:pagecheckerboard="0"
     inkscape:deskcolor="#d1d1d1"
     inkscape:document-units="px"
     showgrid="false"
     inkscape:zoom="8.4166667"
     inkscape:cx="48"
     inkscape:cy="48"
     inkscape:window-width="1920"
     inkscape:window-height="1011"
     inkscape:window-x="0"
     inkscape:window-y="0"
     inkscape:window-maximized="1"
     inkscape:current-layer="svg5" />
  <defs
     id="defs2">
    <linearGradient
       inkscape:collect="always"
       xlink:href="#linearGradient2543"
       id="linearGradient3525"
       x1="50.115543"
       y1="59.831326"
       x2="13.735723"
       y2="4.1686749"
       gradientUnits="userSpaceOnUse"
       gradientTransform="matrix(1.5090909,0,0,1.5090909,-0.2909091,-0.2909091)" />
    <linearGradient
       inkscape:collect="always"
       id="linearGradient2543">
      <stop
         style="stop-color:#5984da;stop-opacity:1;"
         offset="0"
         id="stop2539" />
      <stop
         style="stop-color:#c989ed;stop-opacity:1;"
         offset="1"
         id="stop2541" />
    </linearGradient>
  </defs>
  <rect
     style="fill:url(#linearGradient3525);fill-opacity:1;stroke:none;stroke-width:1.50909"
     id="rect184"
     width="83"
     height="83"
     x="6.5"
     y="6.5"
     ry="14.5" />
  <path
     id="path4328"
     style="opacity:0.2;fill:#000000;stroke-width:4.66668;stroke-linecap:round;stroke-linejoin:round"
     d="m 48,17 c 0,0 -14.666518,8 -24,8 V 53 C 24,66.999944 40.093336,78.666678 48,81 56.416082,78.666678 72,66.999944 72,53 V 25 C 62.666518,25 48,17 48,17 Z m 0,16 c 4.431984,0 8,3.568016 8,8 v 4 h 2 a 2,2 0 0 1 2,2 v 12 a 2,2 0 0 1 -2,2 H 38 A 2,2 0 0 1 36,59 V 47 a 2,2 0 0 1 2,-2 h 2 v -4 c 0,-4.431984 3.568018,-8 8,-8 z m 0,4 a 4,4 0 0 0 -4,4 v 4 h 8 v -4 a 4,4 0 0 0 -4,-4 z" />
  <path
     id="rect3473"
     style="fill:#ffffff;stroke-width:4.66668;stroke-linecap:round;stroke-linejoin:round"
     d="m 48,16 c 0,0 -14.666524,8 -24,8 V 52 C 24,65.999946 40.09334,77.666678 48,80 56.41608,77.666678 72,65.999946 72,52 V 24 C 62.666518,24 48,16 48,16 Z m 0,16 c 4.431984,0 8,3.56802 8,8 v 4 h 2 a 2,2 0 0 1 2,2 v 12 a 2,2 0 0 1 -2,2 H 38 A 2,2 0 0 1 36,58 V 46 a 2,2 0 0 1 2,-2 h 2 v -4 c 0,-4.43198 3.568018,-8 8,-8 z m 0,4 a 4,4 0 0 0 -4,4 v 4 h 8 v -4 a 4,4 0 0 0 -4,-4 z" />
  <path
     id="rect2630"
     style="opacity:0.3;fill:#ffffff;fill-opacity:1;stroke-width:1.5"
     d="M 21 7 C 13.244016 7 7 13.244016 7 21 L 7 22 C 7 14.244016 13.244016 8 21 8 L 75 8 C 82.755984 8 89 14.244016 89 22 L 89 21 C 89 13.244016 82.755984 7 75 7 L 21 7 z " />
  <path
     id="rect899"
     style="opacity:0.6;fill:#000000;stroke:none;stroke-width:1.5"
     d="M 21,6 C 12.690016,6 6,12.690016 6,21 v 54 c 0,8.309983 6.690016,15 15,15 h 54 c 8.309983,0 15,-6.690017 15,-15 V 21 C 90,12.690016 83.309983,6 75,6 Z m 0,1 h 54 c 7.755992,0 14,6.244008 14,14 v 54 c 0,7.755992 -6.244008,14 -14,14 H 21 C 13.244008,89 7,82.755992 7,75 V 21 C 7,13.244008 13.244008,7 21,7 Z" />
  <path
     id="rect398"
     style="opacity:0.3;fill:#ffffff;stroke-width:1.5"
     d="M 7 74 L 7 75 C 7 82.755984 13.244016 89 21 89 L 75 89 C 82.755984 89 89 82.755984 89 75 L 89 74 C 89 81.755982 82.755984 88 75 88 L 21 88 C 13.244016 88 7 81.755982 7 74 z " />
</svg>
