<?xml version="1.0" encoding="UTF-8" standalone="no"?>
<!-- Created with Inkscape (http://www.inkscape.org/) -->

<svg
   width="96"
   height="96"
   viewBox="0 0 96 96.000005"
   version="1.1"
   id="svg5"
   sodipodi:docname="preferences-desktop-online-accounts.svg"
   inkscape:version="1.3.2 (091e20ef0f, 2023-11-25, custom)"
   xmlns:inkscape="http://www.inkscape.org/namespaces/inkscape"
   xmlns:sodipodi="http://sodipodi.sourceforge.net/DTD/sodipodi-0.dtd"
   xmlns:xlink="http://www.w3.org/1999/xlink"
   xmlns="http://www.w3.org/2000/svg"
   xmlns:svg="http://www.w3.org/2000/svg">
  <sodipodi:namedview
     id="namedview7"
     pagecolor="#ffffff"
     bordercolor="#666666"
     borderopacity="1.0"
     inkscape:showpageshadow="2"
     inkscape:pageopacity="0.0"
     inkscape:pagecheckerboard="0"
     inkscape:deskcolor="#d1d1d1"
     inkscape:document-units="px"
     showgrid="false"
     inkscape:zoom="8.4166667"
     inkscape:cx="48"
     inkscape:cy="48"
     inkscape:window-width="1920"
     inkscape:window-height="1011"
     inkscape:window-x="0"
     inkscape:window-y="0"
     inkscape:window-maximized="1"
     inkscape:current-layer="svg5" />
  <defs
     id="defs2">
    <linearGradient
       inkscape:collect="always"
       xlink:href="#linearGradient21236"
       id="linearGradient15179"
       x1="24"
       y1="44.74699"
       x2="24"
       y2="3.2530122"
       gradientUnits="userSpaceOnUse"
       gradientTransform="matrix(2.0243902,0,0,2.0243902,-0.585366,-0.585366)" />
    <linearGradient
       inkscape:collect="always"
       id="linearGradient21236">
      <stop
         style="stop-color:#3689e6;stop-opacity:1;"
         offset="0"
         id="stop21232" />
      <stop
         style="stop-color:#5dcffc;stop-opacity:1;"
         offset="1"
         id="stop21234" />
    </linearGradient>
  </defs>
  <rect
     style="fill:url(#linearGradient15179);fill-opacity:1;stroke:none;stroke-width:2.02439"
     id="rect184"
     width="83"
     height="83"
     x="6.5"
     y="6.5"
     ry="14.5" />
  <path
     d="m 62.055988,62.678732 c -1.43337,0 -2.81299,-0.358342 -4.138856,-1.075024 -1.325868,-0.752522 -2.25756,-1.935056 -2.795074,-3.547598 h -0.05364 c -0.322564,0.860022 -0.806348,1.576706 -1.451358,2.150054 -0.645014,0.573352 -1.3617,1.039194 -2.150054,1.397538 -0.752518,0.35835 -1.522954,0.60919 -2.311308,0.752518 -0.788356,0.1433 -1.50504,0.21498 -2.150058,0.21498 -3.440088,0 -6.05599,-0.967528 -7.847704,-2.902578 -1.791746,-1.935036 -2.687618,-4.533018 -2.687618,-7.793934 v -4.192612 c 0,-3.296752 0.860022,-5.894738 2.580062,-7.793954 1.75588,-1.93505 4.138862,-2.902574 7.148938,-2.902574 2.00672,0 3.601344,0.304592 4.783874,0.913772 1.182534,0.609186 2.024634,1.34379 2.526316,2.20381 v -2.795076 h 5.052632 v 16.931692 c 0,1.505038 0.304594,2.615904 0.913776,3.332586 0.609184,0.68085 1.487124,1.021276 2.63382,1.021276 0.895856,0 1.68421,-0.16124 2.365062,-0.483756 0.68085,-0.358356 1.254198,-0.913786 1.720042,-1.666294 0.465842,-0.788354 0.824184,-1.791714 1.075022,-3.010076 0.25083,-1.254202 0.37626,-2.777158 0.37626,-4.56887 v -0.591238 c 0,-3.010076 -0.44793,-5.697648 -1.343786,-8.06271 -0.860014,-2.365076 -2.15004,-4.3718 -3.870084,-6.020178 -1.720048,-1.684208 -3.83427,-2.956326 -6.34267,-3.816348 -2.508398,-0.895856 -5.393052,-1.343784 -8.653972,-1.343784 -2.795072,0 -5.357224,0.447928 -7.686452,1.343784 -2.329224,0.895858 -4.335944,2.20381 -6.020154,3.923854 -1.648378,1.684208 -2.93841,3.762596 -3.870102,6.23516 -0.931692,2.472564 -1.397538,5.267638 -1.397538,8.38522 v 0.913778 c 0,3.332588 0.44793,6.288912 1.34379,8.868984 0.931688,2.54423 2.257556,4.676366 3.977604,6.396414 1.720038,1.755878 3.816342,3.081746 6.28891,3.977604 2.508398,0.931692 5.321388,1.397538 8.438966,1.397538 2.687574,0 5.357226,-0.304596 8.008962,-0.913776 2.651736,-0.573348 5.088462,-1.43337 7.310188,-2.580072 l 1.50504,3.762596 c -2.257558,1.218366 -4.801792,2.150058 -7.6327,2.795076 -2.795072,0.680852 -5.80515,1.021282 -9.030234,1.021282 -3.870098,0 -7.328106,-0.573352 -10.37402,-1.720048 C 35.251956,71.691046 32.671894,70.04267 30.55767,67.892614 28.443446,65.74256 26.812986,63.144578 25.666294,60.098662 24.555432,57.05275 24,53.648494 24,49.885898 v -1.02128 c 0,-3.440088 0.537514,-6.61142 1.61254,-9.513994 1.110864,-2.938408 2.669656,-5.464724 4.676372,-7.578946 2.042556,-2.114224 4.497198,-3.762602 7.363942,-4.945132 2.902574,-1.218362 6.163494,-1.827546 9.782754,-1.827546 3.977604,0 7.489362,0.573348 10.535274,1.720048 3.045912,1.11086 5.608062,2.687568 7.68645,4.73012 2.078388,2.042554 3.655094,4.479286 4.730124,7.31019 1.075028,2.830904 1.612542,5.948486 1.612542,9.35274 v 0.698762 c 0,1.57671 -0.16124,3.189252 -0.483758,4.837628 -0.28668,1.612546 -0.806278,3.09967 -1.558796,4.461372 -0.752516,1.325868 -1.773796,2.418814 -3.063828,3.278836 -1.254198,0.860024 -2.86674,1.290036 -4.837628,1.290036 z M 41.79171,51.014678 c 0,2.042552 0.447928,3.67301 1.343784,4.891374 0.895858,1.18253 2.311312,1.773798 4.246362,1.773798 0.752518,0 1.469202,-0.08958 2.150056,-0.26877 0.716682,-0.1792 1.34378,-0.483772 1.8813,-0.913776 0.573344,-0.430012 1.021274,-1.003362 1.343784,-1.720048 0.32251,-0.716678 0.483762,-1.612536 0.483762,-2.687568 v -4.73012 c 0,-0.716678 -0.10748,-1.39753 -0.322516,-2.042552 -0.17918,-0.680852 -0.501686,-1.272118 -0.96752,-1.773796 -0.46585,-0.537516 -1.075032,-0.94961 -1.82755,-1.23628 -0.752516,-0.322506 -1.66629,-0.48376 -2.741318,-0.48376 -1.75588,0 -3.135502,0.48376 -4.13886,1.451286 -0.967522,0.967524 -1.451284,2.723402 -1.451284,5.267634 z"
     style="font-weight:bold;font-size:4.74057px;line-height:1.25;font-family:'나눔스퀘어';-inkscape-font-specification:'나눔스퀘어 Bold';opacity:0.2;fill:#000000;stroke-width:1.34379"
     id="path1620" />
  <path
     d="m 62.055988,61.67973 c -1.43337,0 -2.81299,-0.358342 -4.138856,-1.075024 -1.325868,-0.752522 -2.25756,-1.935056 -2.795074,-3.547598 h -0.05364 c -0.322564,0.860022 -0.806348,1.576706 -1.451358,2.150054 -0.645014,0.573352 -1.3617,1.039194 -2.150054,1.397538 -0.752518,0.35835 -1.522954,0.60919 -2.311308,0.752518 -0.788356,0.1433 -1.50504,0.21498 -2.150058,0.21498 -3.440088,0 -6.05599,-0.967528 -7.847704,-2.902578 -1.791746,-1.935036 -2.687618,-4.533018 -2.687618,-7.793934 v -4.192612 c 0,-3.29675 0.860022,-5.894736 2.580062,-7.793952 1.75588,-1.93505 4.13886,-2.902574 7.148938,-2.902574 2.00672,0 3.601344,0.304592 4.783874,0.913774 1.182532,0.609184 2.024634,1.34379 2.526316,2.203808 V 36 h 5.052632 v 17.240746 c 0,1.505036 0.304594,2.615902 0.913776,3.332584 0.609184,0.680852 1.487124,1.021276 2.63382,1.021276 0.895856,0 1.68421,-0.16124 2.365062,-0.483756 0.68085,-0.358356 1.254198,-0.913786 1.720042,-1.666292 0.465842,-0.788356 0.824184,-1.791714 1.075022,-3.010078 0.25083,-1.254202 0.37626,-2.777156 0.37626,-4.568868 v -0.591238 c 0,-3.010076 -0.44793,-5.697646 -1.343786,-8.06271 -0.860014,-2.365076 -2.15004,-4.3718 -3.870084,-6.020178 -1.720048,-1.684208 -3.83427,-2.956326 -6.34267,-3.816348 -2.508398,-0.895856 -5.393052,-1.343784 -8.653972,-1.343784 -2.795072,0 -5.357224,0.447928 -7.686452,1.343784 -2.329224,0.895858 -4.335944,2.20381 -6.020154,3.923854 -1.648378,1.684208 -2.93841,3.762596 -3.870102,6.23516 -0.931692,2.472564 -1.397538,5.267638 -1.397538,8.38522 v 0.913776 c 0,3.332588 0.44793,6.288912 1.34379,8.868984 0.931688,2.54423 2.257556,4.676366 3.977604,6.396414 1.720038,1.755878 3.816342,3.081746 6.28891,3.977604 2.508398,0.931692 5.321388,1.397538 8.438966,1.397538 2.687574,0 5.357226,-0.304596 8.008962,-0.913776 2.651736,-0.573348 5.088462,-1.43337 7.310188,-2.580072 l 1.50504,3.762596 c -2.257558,1.218366 -4.801792,2.150058 -7.6327,2.795076 -2.795072,0.68085 -5.80515,1.021278 -9.030234,1.021278 -3.870098,0 -7.328106,-0.573348 -10.37402,-1.720044 -3.045914,-1.146702 -5.625976,-2.795078 -7.7402,-4.945134 C 28.443446,64.743558 26.812986,62.145576 25.666294,59.09966 24.555432,56.053748 24,52.649492 24,48.886896 v -1.021278 c 0,-3.440088 0.537514,-6.611422 1.61254,-9.513994 1.110864,-2.93841 2.669656,-5.464724 4.676372,-7.578948 2.042556,-2.114222 4.497198,-3.7626 7.363942,-4.94513 C 40.555428,24.609184 43.816348,24 47.435608,24 c 3.977604,0 7.489362,0.573348 10.535274,1.720048 3.045912,1.11086 5.608062,2.687566 7.68645,4.73012 2.078388,2.042554 3.655094,4.479286 4.730124,7.31019 1.075028,2.830904 1.612542,5.948486 1.612542,9.35274 v 0.698762 c 0,1.576708 -0.16124,3.18925 -0.483758,4.837626 -0.28668,1.612546 -0.806278,3.09967 -1.558796,4.461372 -0.752516,1.32587 -1.773796,2.418814 -3.063828,3.278836 -1.254198,0.860024 -2.86674,1.290036 -4.837628,1.290036 z M 41.79171,50.015676 c 0,2.042552 0.447928,3.67301 1.343784,4.891374 0.895858,1.18253 2.311312,1.773798 4.246362,1.773798 0.752518,0 1.469202,-0.08958 2.150056,-0.26877 0.716682,-0.17918 1.34378,-0.48377 1.8813,-0.913776 0.573344,-0.430012 1.021274,-1.003362 1.343784,-1.720048 0.32251,-0.716678 0.483762,-1.612536 0.483762,-2.687566 v -4.73012 c 0,-0.716678 -0.10748,-1.397532 -0.322516,-2.042552 -0.17918,-0.680854 -0.501686,-1.272116 -0.96752,-1.773794 -0.46585,-0.537518 -1.075032,-0.949612 -1.827548,-1.236282 -0.752518,-0.322508 -1.666292,-0.48376 -2.74132,-0.48376 -1.755878,0 -3.1355,0.48376 -4.13886,1.451286 -0.96752,0.967524 -1.451282,2.723402 -1.451282,5.267634 z"
     style="font-weight:bold;font-size:4.74057px;line-height:1.25;font-family:'나눔스퀘어';-inkscape-font-specification:'나눔스퀘어 Bold';fill:#ffffff;stroke-width:1.34379"
     id="path6805"
     sodipodi:nodetypes="scccscsscsscsscccscscccsscccsscssscccsccccssscsscccscsssscccsscsccssscccscss" />
  <path
     id="rect2630"
     style="opacity:0.3;fill:#ffffff;fill-opacity:1;stroke-width:1.5"
     d="M 21 7 C 13.244016 7 7 13.244016 7 21 L 7 22 C 7 14.244016 13.244016 8 21 8 L 75 8 C 82.755984 8 89 14.244016 89 22 L 89 21 C 89 13.244016 82.755984 7 75 7 L 21 7 z " />
  <path
     id="rect899"
     style="opacity:0.6;fill:#000000;stroke:none;stroke-width:1.5"
     d="M 21,6 C 12.690016,6 6,12.690016 6,21 v 54 c 0,8.309983 6.690016,15 15,15 h 54 c 8.309983,0 15,-6.690017 15,-15 V 21 C 90,12.690016 83.309983,6 75,6 Z m 0,1 h 54 c 7.755992,0 14,6.244008 14,14 v 54 c 0,7.755992 -6.244008,14 -14,14 H 21 C 13.244008,89 7,82.755992 7,75 V 21 C 7,13.244008 13.244008,7 21,7 Z" />
  <path
     id="rect398"
     style="opacity:0.3;fill:#ffffff;stroke-width:1.5"
     d="M 7 74 L 7 75 C 7 82.755984 13.244016 89 21 89 L 75 89 C 82.755984 89 89 82.755984 89 75 L 89 74 C 89 81.755982 82.755984 88 75 88 L 21 88 C 13.244016 88 7 81.755982 7 74 z " />
</svg>
