<?xml version="1.0" encoding="UTF-8" standalone="no"?>
<!-- Created with Inkscape (http://www.inkscape.org/) -->

<svg
   width="96"
   height="96"
   viewBox="0 0 96 96.000005"
   version="1.1"
   id="svg5"
   sodipodi:docname="rhythmbox.svg"
   inkscape:version="1.3.2 (091e20ef0f, 2023-11-25, custom)"
   xmlns:inkscape="http://www.inkscape.org/namespaces/inkscape"
   xmlns:sodipodi="http://sodipodi.sourceforge.net/DTD/sodipodi-0.dtd"
   xmlns:xlink="http://www.w3.org/1999/xlink"
   xmlns="http://www.w3.org/2000/svg"
   xmlns:svg="http://www.w3.org/2000/svg">
  <sodipodi:namedview
     id="namedview7"
     pagecolor="#ffffff"
     bordercolor="#666666"
     borderopacity="1.0"
     inkscape:showpageshadow="2"
     inkscape:pageopacity="0.0"
     inkscape:pagecheckerboard="0"
     inkscape:deskcolor="#d1d1d1"
     inkscape:document-units="px"
     showgrid="false"
     inkscape:zoom="8.4166667"
     inkscape:cx="48"
     inkscape:cy="48"
     inkscape:window-width="1920"
     inkscape:window-height="1011"
     inkscape:window-x="0"
     inkscape:window-y="0"
     inkscape:window-maximized="1"
     inkscape:current-layer="svg5" />
  <defs
     id="defs2">
    <linearGradient
       inkscape:collect="always"
       xlink:href="#linearGradient22024"
       id="linearGradient15179"
       x1="24"
       y1="44.74699"
       x2="24"
       y2="3.2530122"
       gradientUnits="userSpaceOnUse"
       gradientTransform="matrix(2.0243902,0,0,2.0243902,-0.585366,-0.585366)" />
    <linearGradient
       inkscape:collect="always"
       id="linearGradient22024">
      <stop
         style="stop-color:#cdcdcd;stop-opacity:1;"
         offset="0"
         id="stop22020" />
      <stop
         style="stop-color:#eff0f1;stop-opacity:1;"
         offset="1"
         id="stop22022" />
    </linearGradient>
    <linearGradient
       inkscape:collect="always"
       xlink:href="#linearGradient15347"
       id="linearGradient2629"
       x1="8.2020826"
       y1="11.112499"
       x2="8.2020826"
       y2="4.7624998"
       gradientUnits="userSpaceOnUse"
       gradientTransform="matrix(6.871868,0,0,6.871868,-10.181816,-10.18181)" />
    <linearGradient
       inkscape:collect="always"
       id="linearGradient15347">
      <stop
         style="stop-color:#ffd017;stop-opacity:1;"
         offset="0"
         id="stop15343" />
      <stop
         style="stop-color:#f99b00;stop-opacity:1;"
         offset="1"
         id="stop15345" />
    </linearGradient>
    <radialGradient
       inkscape:collect="always"
       xlink:href="#linearGradient1990"
       id="radialGradient1992"
       cx="-5.0270829"
       cy="12.700001"
       fx="-5.0270829"
       fy="12.700001"
       r="1.0583333"
       gradientUnits="userSpaceOnUse"
       gradientTransform="matrix(-9.3715656e-6,7.5590588,-7.5590552,-2.0674758e-5,143.99996,82.000268)" />
    <linearGradient
       inkscape:collect="always"
       id="linearGradient1990">
      <stop
         style="stop-color:#515151;stop-opacity:1"
         offset="0"
         id="stop1986" />
      <stop
         style="stop-color:#303030;stop-opacity:1"
         offset="1"
         id="stop1988" />
    </linearGradient>
  </defs>
  <rect
     style="fill:url(#linearGradient15179);fill-opacity:1;stroke:none;stroke-width:2.02439"
     id="rect184"
     width="83"
     height="83"
     x="6.5"
     y="6.5"
     ry="14.5" />
  <circle
     style="opacity:0.2;fill:#000000;stroke-width:3;stroke-linecap:round;stroke-linejoin:round"
     id="path2003"
     cx="48"
     cy="49"
     r="30" />
  <circle
     style="fill:#333333;stroke-width:1.875"
     id="path1406"
     cx="48"
     cy="48"
     r="30" />
  <circle
     style="fill:#4d4d4d;stroke-width:1.84615"
     id="path1678"
     cx="48"
     cy="48"
     r="24" />
  <circle
     style="fill:url(#linearGradient2629);fill-opacity:1;stroke-width:14.5303;stroke-linecap:round;stroke-linejoin:round"
     id="path2453"
     cx="48"
     cy="48"
     r="20" />
  <circle
     style="fill:#1a1a1a;fill-opacity:1;stroke-width:22.5;stroke-linecap:round;stroke-linejoin:round"
     id="path3067"
     cx="48"
     cy="48"
     r="10" />
  <circle
     style="fill:url(#radialGradient1992);fill-opacity:1;stroke-width:41.3562;stroke-linecap:round;stroke-linejoin:round"
     id="path3261"
     cx="48"
     cy="48"
     r="8" />
  <path
     id="rect2630"
     style="opacity:0.3;fill:#ffffff;fill-opacity:1;stroke-width:1.5"
     d="M 21 7 C 13.244016 7 7 13.244016 7 21 L 7 22 C 7 14.244016 13.244016 8 21 8 L 75 8 C 82.755984 8 89 14.244016 89 22 L 89 21 C 89 13.244016 82.755984 7 75 7 L 21 7 z " />
  <path
     id="rect899"
     style="opacity:0.6;fill:#000000;stroke:none;stroke-width:1.5"
     d="M 21,6 C 12.690016,6 6,12.690016 6,21 v 54 c 0,8.309983 6.690016,15 15,15 h 54 c 8.309983,0 15,-6.690017 15,-15 V 21 C 90,12.690016 83.309983,6 75,6 Z m 0,1 h 54 c 7.755992,0 14,6.244008 14,14 v 54 c 0,7.755992 -6.244008,14 -14,14 H 21 C 13.244008,89 7,82.755992 7,75 V 21 C 7,13.244008 13.244008,7 21,7 Z" />
  <path
     id="rect398"
     style="opacity:0.3;fill:#ffffff;stroke-width:1.5"
     d="M 7 74 L 7 75 C 7 82.755984 13.244016 89 21 89 L 75 89 C 82.755984 89 89 82.755984 89 75 L 89 74 C 89 81.755982 82.755984 88 75 88 L 21 88 C 13.244016 88 7 81.755982 7 74 z " />
</svg>
