<?xml version="1.0" encoding="UTF-8" standalone="no"?>
<!-- Created with Inkscape (http://www.inkscape.org/) -->

<svg
   width="48"
   height="48"
   viewBox="0 0 48 48.000002"
   version="1.1"
   id="svg5"
   sodipodi:docname="system-log-out.svg"
   inkscape:version="1.2.1 (9c6d41e410, 2022-07-14)"
   xmlns:inkscape="http://www.inkscape.org/namespaces/inkscape"
   xmlns:sodipodi="http://sodipodi.sourceforge.net/DTD/sodipodi-0.dtd"
   xmlns:xlink="http://www.w3.org/1999/xlink"
   xmlns="http://www.w3.org/2000/svg"
   xmlns:svg="http://www.w3.org/2000/svg">
  <sodipodi:namedview
     id="namedview7"
     pagecolor="#ffffff"
     bordercolor="#666666"
     borderopacity="1.0"
     inkscape:showpageshadow="2"
     inkscape:pageopacity="0.0"
     inkscape:pagecheckerboard="0"
     inkscape:deskcolor="#d1d1d1"
     inkscape:document-units="px"
     showgrid="false"
     inkscape:zoom="16.5625"
     inkscape:cx="24"
     inkscape:cy="24"
     inkscape:window-width="1920"
     inkscape:window-height="1007"
     inkscape:window-x="0"
     inkscape:window-y="0"
     inkscape:window-maximized="1"
     inkscape:current-layer="svg5"
     showguides="false" />
  <defs
     id="defs2">
    <linearGradient
       inkscape:collect="always"
       xlink:href="#linearGradient4380"
       id="linearGradient6478"
       x1="37.5"
       y1="44.5"
       x2="9.5"
       y2="2.5"
       gradientUnits="userSpaceOnUse"
       gradientTransform="translate(0.5,0.5)" />
    <linearGradient
       inkscape:collect="always"
       id="linearGradient4380">
      <stop
         style="stop-color:#e58800;stop-opacity:1;"
         offset="0"
         id="stop4376" />
      <stop
         style="stop-color:#f3dc1d;stop-opacity:1;"
         offset="1"
         id="stop4378" />
    </linearGradient>
  </defs>
  <rect
     style="fill:url(#linearGradient6478);fill-opacity:1.0;stroke:none"
     id="rect184"
     width="41"
     height="41"
     x="3.5"
     y="3.5"
     ry="6.5" />
  <path
     d="m 40.022183,24.933417 c 0,-1.10805 -0.89195,-2 -1.999999,-2 H 28.022182 c -0.741929,0 -1.373449,0.40306 -1.71875,1 -0.0415,0.0717 -0.0925,0.14173 -0.125,0.21875 -0.0208,0.0411 -0.0445,0.0823 -0.0625,0.125 -0.0276,0.0804 -0.0452,0.16522 -0.0625,0.25 -0.0476,0.17143 -0.0937,0.34427 -0.0937,0.53125 0,1.10805 0.89195,2 2,2 h 10.000002 c 0.74193,0 1.373459,-0.40306 1.718749,-1 0.0462,-0.0684 0.0874,-0.1446 0.125,-0.21875 0.0177,-0.0419 0.0477,-0.0817 0.0625,-0.125 0.0328,-0.0778 0.0396,-0.16746 0.0625,-0.25 0.0476,-0.17143 0.0937,-0.34427 0.0937,-0.53125 z m -3.5625,-6.125 c -0.0338,-0.31074 -0.14179,-0.61311 -0.3125,-0.875 -1.22276,-2.11996 -3.00872,-3.89588 -5.125,-5.125 -6.19705,-3.599219 -14.03317,-1.809009 -18.218751,3.8125 -0.272081,0.36542 -0.54168,0.72737 -0.78125,1.125 -0.0393,0.0652 -0.0866,0.12145 -0.125,0.1875 -0.18792,0.32356 -0.34109,0.66814 -0.5,1 -0.164861,0.34429 -0.3034,0.67969 -0.4375,1.03125 -0.0414,0.10587 -0.0862,0.20572 -0.125,0.3125 -0.074,0.20946 -0.155371,0.41364 -0.21875,0.625 -0.0549,0.1764 -0.10826,0.35289 -0.15625,0.53125 -0.0342,0.13296 -0.0637,0.27277 -0.0937,0.40625 -0.7978495,3.35523 -0.3922505,7.01452 1.46875,10.21875 3.871551,6.66594 12.459071,8.99654 19.125001,5.125 2.11628,-1.22912 3.90224,-3.00504 5.125,-5.125 0.17071,-0.26189 0.2787,-0.56426 0.3125,-0.875 0.0769,-0.90618 -0.53516,-1.83242 -1.40625,-2.09375 -0.87106,-0.26131 -1.90909,0.16991 -2.34375,0.96875 -0.8735,1.51441 -2.11323,2.74698 -3.625,3.625 -2.99782,1.74111 -6.51573,1.7871 -9.40625,0.40625 -0.0127,-0.006 -0.0186,-0.0251 -0.0312,-0.0312 -0.16968,-0.208 -0.38036,-0.38196 -0.625,-0.5 -4.79651,-2.78577 -6.348281,-8.89099 -3.5625,-13.6875 0.16248,-0.27976 0.3471,-0.55503 0.53125,-0.8125 0.0135,-0.0181 0.0176,-0.0445 0.0312,-0.0625 0.77047,-1.01637 1.75926,-1.87819 2.9375,-2.5625 0.19027,-0.0918 0.35422,-0.22608 0.5,-0.375 2.94294,-1.52491 6.58975,-1.54914 9.6875,0.25 1.51177,0.87802 2.7515,2.11059 3.625,3.625 0.43466,0.79884 1.47269,1.23006 2.34375,0.96875 0.87109,-0.26133 1.4831,-1.18757 1.40625,-2.09375 z"
     style="color:#000000;font-style:normal;font-variant:normal;font-weight:normal;font-stretch:normal;font-size:medium;line-height:normal;font-family:Sans;-inkscape-font-specification:Sans;text-indent:0;text-align:start;text-decoration:none;text-decoration-line:none;letter-spacing:normal;word-spacing:normal;text-transform:none;writing-mode:lr-tb;direction:ltr;baseline-shift:baseline;text-anchor:start;display:inline;overflow:visible;visibility:visible;opacity:0.2;fill:#000000;fill-opacity:1;stroke:none;stroke-width:2.33333;marker:none;enable-background:new"
     id="path14631" />
  <path
     d="m 40.022183,23.933349 c 0,-1.10805 -0.89195,-2 -2,-2 h -10 c -0.74193,0 -1.37345,0.40306 -1.71875,1 -0.0415,0.0717 -0.0925,0.14173 -0.125,0.21875 -0.0208,0.0411 -0.0445,0.0823 -0.0625,0.125 -0.0276,0.0804 -0.0452,0.16522 -0.0625,0.25 -0.0476,0.17143 -0.0937,0.34427 -0.0937,0.53125 0,1.10805 0.89195,2 2,2 h 10 c 0.74193,0 1.37346,-0.40306 1.71875,-1 0.0462,-0.0684 0.0874,-0.1446 0.125,-0.21875 0.0177,-0.0419 0.0477,-0.0817 0.0625,-0.125 0.0328,-0.0778 0.0396,-0.16746 0.0625,-0.25 0.0476,-0.17143 0.0937,-0.34427 0.0937,-0.53125 z m -3.5625,-6.125 c -0.0338,-0.31074 -0.14179,-0.61311 -0.3125,-0.875 -1.22276,-2.11996 -3.00872,-3.89588 -5.125,-5.125 -6.19705,-3.599219 -14.03317,-1.809009 -18.21875,3.8125 -0.27208,0.36542 -0.54168,0.72737 -0.78125,1.125 -0.0393,0.0652 -0.0866,0.12145 -0.125,0.1875 -0.18792,0.32356 -0.34109,0.66814 -0.5,1 -0.16486,0.34429 -0.3034,0.67969 -0.4375,1.03125 -0.0414,0.10587 -0.0862,0.20572 -0.125,0.3125 -0.074,0.20946 -0.15537,0.41364 -0.21875,0.625 -0.0549,0.1764 -0.10826,0.35289 -0.15625,0.53125 -0.0342,0.13296 -0.0637,0.27277 -0.0937,0.40625 -0.7978495,3.35523 -0.3922495,7.01452 1.46875,10.21875 3.87155,6.66594 12.45907,8.99654 19.125,5.125 2.11628,-1.22912 3.90224,-3.00504 5.125,-5.125 0.17071,-0.26189 0.2787,-0.56426 0.3125,-0.875 0.0769,-0.90618 -0.53516,-1.83242 -1.40625,-2.09375 -0.87106,-0.26131 -1.90909,0.16991 -2.34375,0.96875 -0.8735,1.51441 -2.11323,2.74698 -3.625,3.625 -2.99782,1.74111 -6.51573,1.7871 -9.40625,0.40625 -0.0127,-0.006 -0.0186,-0.0251 -0.0312,-0.0312 -0.16968,-0.208 -0.38036,-0.38196 -0.625,-0.5 -4.79651,-2.78577 -6.34828,-8.89099 -3.5625,-13.6875 0.16248,-0.27976 0.3471,-0.55503 0.53125,-0.8125 0.0135,-0.0181 0.0176,-0.0445 0.0312,-0.0625 0.77047,-1.01637 1.75926,-1.87819 2.9375,-2.5625 0.19027,-0.0918 0.35422,-0.22608 0.5,-0.375 2.94294,-1.52491 6.58975,-1.54914 9.6875,0.25 1.51177,0.87802 2.7515,2.11059 3.625,3.625 0.43466,0.79884 1.47269,1.23006 2.34375,0.96875 0.87109,-0.26133 1.4831,-1.18757 1.40625,-2.09375 z"
     style="color:#000000;font-style:normal;font-variant:normal;font-weight:normal;font-stretch:normal;font-size:medium;line-height:normal;font-family:Sans;-inkscape-font-specification:Sans;text-indent:0;text-align:start;text-decoration:none;text-decoration-line:none;letter-spacing:normal;word-spacing:normal;text-transform:none;writing-mode:lr-tb;direction:ltr;baseline-shift:baseline;text-anchor:start;display:inline;overflow:visible;visibility:visible;fill:#ffffff;fill-opacity:1;stroke:none;stroke-width:2.33333;marker:none;enable-background:new"
     id="path14235"
     sodipodi:nodetypes="sssccccsssccccscccsccscccccssccccscccsccccscccc" />
  <path
     id="rect2630"
     style="fill:#ffffff;fill-opacity:1;opacity:0.3"
     d="M 10,4 C 6.6760035,4 4.0000002,6.6760033 4.0000002,10 v 1 C 4.0000002,7.6760032 6.6760035,5 10,5 h 28 c 3.323997,0 6,2.6760032 6,6 V 10 C 44,6.6760033 41.323997,4 38,4 Z" />
  <path
     id="rect398"
     style="opacity:0.3;fill:#ffffff"
     d="m 4.0000001,37 v 1 c 0,3.323996 2.6760033,6 5.9999999,6 h 28 c 3.323997,0 6,-2.676004 6,-6 v -1 c 0,3.323996 -2.676003,6 -6,6 H 10 C 6.6760034,43 4.0000001,40.323996 4.0000001,37 Z" />
  <path
     id="rect899"
     style="opacity:0.5;fill:#000000;stroke:none"
     d="M 10,3 C 6.1220039,3 3,6.1220039 3,10 v 28 c 0,3.877996 3.1220039,7 7,7 h 28 c 3.877996,0 7,-3.122004 7,-7 V 10 C 45,6.1220039 41.877996,3 38,3 Z m 0,1 h 28 c 3.323997,0 6,2.6760033 6,6 v 28 c 0,3.323997 -2.676003,6 -6,6 H 10 C 6.6760033,44 4,41.323997 4,38 V 10 C 4,6.6760033 6.6760033,4 10,4 Z" />
</svg>
