<?xml version="1.0" encoding="UTF-8" standalone="no"?>
<!-- Created with Inkscape (http://www.inkscape.org/) -->

<svg
   width="48"
   height="48"
   viewBox="0 0 48 48.000002"
   version="1.1"
   id="svg5"
   sodipodi:docname="system-reboot.svg"
   inkscape:version="1.2.1 (9c6d41e410, 2022-07-14)"
   xmlns:inkscape="http://www.inkscape.org/namespaces/inkscape"
   xmlns:sodipodi="http://sodipodi.sourceforge.net/DTD/sodipodi-0.dtd"
   xmlns:xlink="http://www.w3.org/1999/xlink"
   xmlns="http://www.w3.org/2000/svg"
   xmlns:svg="http://www.w3.org/2000/svg">
  <sodipodi:namedview
     id="namedview7"
     pagecolor="#ffffff"
     bordercolor="#666666"
     borderopacity="1.0"
     inkscape:showpageshadow="2"
     inkscape:pageopacity="0.0"
     inkscape:pagecheckerboard="0"
     inkscape:deskcolor="#d1d1d1"
     inkscape:document-units="px"
     showgrid="false"
     inkscape:zoom="17.104167"
     inkscape:cx="24"
     inkscape:cy="24"
     inkscape:window-width="1920"
     inkscape:window-height="1007"
     inkscape:window-x="0"
     inkscape:window-y="0"
     inkscape:window-maximized="1"
     inkscape:current-layer="svg5"
     showguides="false" />
  <defs
     id="defs2">
    <linearGradient
       inkscape:collect="always"
       xlink:href="#linearGradient1252"
       id="linearGradient6478"
       x1="37.5"
       y1="44.5"
       x2="9.5"
       y2="2.5"
       gradientUnits="userSpaceOnUse"
       gradientTransform="translate(0.5,0.5)" />
    <linearGradient
       inkscape:collect="always"
       id="linearGradient1252">
      <stop
         style="stop-color:#6daa24;stop-opacity:1;"
         offset="0"
         id="stop1248" />
      <stop
         style="stop-color:#b8df8a;stop-opacity:1;"
         offset="1"
         id="stop1250" />
    </linearGradient>
  </defs>
  <rect
     style="fill:url(#linearGradient6478);fill-opacity:1.0;stroke:none"
     id="rect184"
     width="41"
     height="41"
     x="3.5"
     y="3.5"
     ry="6.5" />
  <path
     d="m 24.026,12 c 2.63952,0 5.22704,0.7925 7.436,2.340001 0.70616,0.494 0.858,1.4519 0.364,2.158 -0.49296,0.7062 -1.45288,0.885 -2.158,0.39 -1.70664,-1.195 -3.70448,-1.7867 -5.746,-1.768 -0.29328,0 -0.572,0 -0.858,0.026 -0.0874,0.01 -0.17264,0.041 -0.26,0.052 -0.23504,0.029 -0.4732,0.059 -0.702,0.104 -0.10192,0.02 -0.2132,0.029 -0.312,0.052 -0.22568,0.051 -0.45656,0.1154 -0.676,0.182 -0.0697,0.022 -0.13832,0.055 -0.208,0.078 -0.25064,0.082 -0.48568,0.1592 -0.728,0.26 -0.025,0.011 -0.0541,0.016 -0.078,0.026 -1.45392,0.625 -2.72272,1.6037 -3.718,2.808 -0.006,0.01 -0.0198,0.019 -0.026,0.026 -1.39984,1.7045 -2.23496,3.8666 -2.236,6.24 h 2.6 l -4.16,6.24 -4.16,-6.24 H 11 c 10e-4,-2.7269 0.84656,-5.2395 2.288,-7.332 0.0208,-0.036 0.0281,-0.071 0.052,-0.104 0.17888,-0.2558 0.37752,-0.4888 0.572,-0.728 0.0229,-0.029 0.0541,-0.075 0.078,-0.104 1.31872,-1.6006 2.9588,-2.832 4.836,-3.64 0.052,-0.023 0.104,-0.056 0.156,-0.078 0.29952,-0.1238 0.60112,-0.235 0.91,-0.338 0.11128,-0.037 0.22464,-0.07 0.338,-0.104 0.26936,-0.082 0.5564,-0.1446 0.832,-0.208 0.15184,-0.035 0.28808,-0.074 0.442,-0.104 0.0759,-0.014 0.15912,-0.039 0.234,-0.052 0.20592,-0.036 0.41808,-0.051 0.624,-0.078 0.14248,-0.017 0.27248,-0.038 0.416,-0.052 0.34528,-0.032 0.6968,-0.046 1.04,-0.052 H 24 Z m 11.414,6.760001 4.16,6.24 H 37 c 0,2.7352 -0.86528,5.2614 -2.314,7.358 -0.0177,0.029 -0.0322,0.049 -0.052,0.078 -0.14976,0.2142 -0.3068,0.4212 -0.468,0.624 -0.0603,0.077 -0.1196,0.1591 -0.182,0.234 -0.23712,0.288 -0.49504,0.5418 -0.754,0.806 -0.025,0.026 -0.0281,0.054 -0.052,0.078 -0.86944,0.8704 -1.86888,1.6234 -2.938,2.21 -0.0281,0.017 -0.0478,0.036 -0.078,0.052 -0.30784,0.1654 -0.61464,0.3006 -0.936,0.442 -0.0801,0.034 -0.17888,0.069 -0.26,0.104 -0.27456,0.113401 -0.54808,0.217401 -0.832,0.312001 -0.13416,0.046 -0.25376,0.088 -0.39,0.13 -0.24856,0.074 -0.52416,0.1477 -0.78,0.208 -0.16952,0.039 -0.32136,0.071 -0.494,0.104 -0.0718,0.014 -0.13728,0.04 -0.208,0.052 -0.24128,0.042 -0.48672,0.075 -0.728,0.104 -0.0874,0.01 -0.17264,0.017 -0.26,0.026 -0.43368,0.042 -0.8684,0.078 -1.3,0.078 -2.64264,0 -5.22392,-0.8164 -7.436,-2.366001 -0.70512,-0.495 -0.884,-1.4779 -0.39,-2.184 0.49504,-0.7072 1.47992,-0.859 2.184,-0.364 1.71912,1.2043 3.71592,1.796 5.772,1.768 0.27144,0 0.53976,0 0.806,-0.026 0.1092,-0.011 0.2288,-0.039 0.338,-0.052 0.21008,-0.028 0.41912,-0.064 0.624,-0.104 0.12584,-0.024 0.24024,-0.049 0.364,-0.078 0.20072,-0.047 0.40248,-0.098 0.598,-0.156 0.0946,-0.029 0.1924,-0.047 0.286,-0.078 0.22568,-0.076 0.4576,-0.1685 0.676,-0.26 0.0499,-0.02 0.10712,-0.03 0.156,-0.052 0.25584,-0.1123 0.4836,-0.232 0.728,-0.364 0.0114,-0.01 0.0406,-0.02 0.052,-0.026 0.8268,-0.4544 1.57248,-1.0276 2.236,-1.69 0.0104,-0.011 0.0146,-0.014 0.026,-0.026 0.20592,-0.2069 0.4108,-0.4243 0.598,-0.65 0.0395,-0.048 0.0905,-0.1072 0.13,-0.156 1.35096,-1.69 2.158,-3.8096 2.158,-6.136 h -2.6 z"
     style="display:inline;fill:#000000;fill-opacity:1;fill-rule:nonzero;stroke:none;enable-background:new;opacity:0.2"
     id="path10320" />
  <path
     d="m 24.026,11 c 2.63952,0 5.22704,0.7925 7.436,2.34 0.70616,0.494 0.858,1.4519 0.364,2.158 -0.49296,0.7062 -1.45288,0.885 -2.158,0.39 -1.70664,-1.195 -3.70448,-1.7867 -5.746,-1.768 -0.29328,0 -0.572,0 -0.858,0.026 -0.0874,0.01 -0.17264,0.041 -0.26,0.052 -0.23504,0.029 -0.4732,0.059 -0.702,0.104 -0.10192,0.02 -0.2132,0.029 -0.312,0.052 -0.22568,0.051 -0.45656,0.1154 -0.676,0.182 -0.0697,0.022 -0.13832,0.055 -0.208,0.078 -0.25064,0.082 -0.48568,0.1592 -0.728,0.26 -0.025,0.011 -0.0541,0.016 -0.078,0.026 -1.45392,0.625 -2.72272,1.6037 -3.718,2.808 -0.006,0.01 -0.0198,0.019 -0.026,0.026 -1.39984,1.7045 -2.23496,3.8666 -2.236,6.24 h 2.6 l -4.16,6.24 -4.16,-6.24 H 11 c 10e-4,-2.7269 0.84656,-5.2395 2.288,-7.332 0.0208,-0.036 0.0281,-0.071 0.052,-0.104 0.17888,-0.2558 0.37752,-0.4888 0.572,-0.728 0.0229,-0.029 0.0541,-0.075 0.078,-0.104 1.31872,-1.6006 2.9588,-2.832 4.836,-3.64 0.052,-0.023 0.104,-0.056 0.156,-0.078 0.29952,-0.1238 0.60112,-0.235 0.91,-0.338 0.11128,-0.037 0.22464,-0.07 0.338,-0.104 0.26936,-0.082 0.5564,-0.1446 0.832,-0.208 0.15184,-0.035 0.28808,-0.074 0.442,-0.104 0.0759,-0.014 0.15912,-0.039 0.234,-0.052 0.20592,-0.036 0.41808,-0.051 0.624,-0.078 0.14248,-0.017 0.27248,-0.038 0.416,-0.052 0.34528,-0.032 0.6968,-0.046 1.04,-0.052 H 24 Z M 35.44,17.76 39.6,24 H 37 c 0,2.7352 -0.86528,5.2614 -2.314,7.358 -0.0177,0.029 -0.0322,0.049 -0.052,0.078 -0.14976,0.2142 -0.3068,0.4212 -0.468,0.624 -0.0603,0.077 -0.1196,0.1591 -0.182,0.234 -0.23712,0.288 -0.49504,0.5418 -0.754,0.806 -0.025,0.026 -0.0281,0.054 -0.052,0.078 -0.86944,0.8704 -1.86888,1.6234 -2.938,2.21 -0.0281,0.017 -0.0478,0.036 -0.078,0.052 -0.30784,0.1654 -0.61464,0.3006 -0.936,0.442 -0.0801,0.034 -0.17888,0.069 -0.26,0.104 -0.27456,0.1134 -0.54808,0.2174 -0.832,0.312 -0.13416,0.046 -0.25376,0.088 -0.39,0.13 -0.24856,0.074 -0.52416,0.1477 -0.78,0.208 -0.16952,0.039 -0.32136,0.071 -0.494,0.104 -0.0718,0.014 -0.13728,0.04 -0.208,0.052 -0.24128,0.042 -0.48672,0.075 -0.728,0.104 -0.0874,0.01 -0.17264,0.017 -0.26,0.026 -0.43368,0.042 -0.8684,0.078 -1.3,0.078 -2.64264,0 -5.22392,-0.8164 -7.436,-2.366 -0.70512,-0.495 -0.884,-1.4779 -0.39,-2.184 0.49504,-0.7072 1.47992,-0.859 2.184,-0.364 1.71912,1.2043 3.71592,1.796 5.772,1.768 0.27144,0 0.53976,0 0.806,-0.026 0.1092,-0.011 0.2288,-0.039 0.338,-0.052 0.21008,-0.028 0.41912,-0.064 0.624,-0.104 0.12584,-0.024 0.24024,-0.049 0.364,-0.078 0.20072,-0.047 0.40248,-0.098 0.598,-0.156 0.0946,-0.029 0.1924,-0.047 0.286,-0.078 0.22568,-0.076 0.4576,-0.1685 0.676,-0.26 0.0499,-0.02 0.10712,-0.03 0.156,-0.052 0.25584,-0.1123 0.4836,-0.232 0.728,-0.364 0.0114,-0.01 0.0406,-0.02 0.052,-0.026 0.8268,-0.4544 1.57248,-1.0276 2.236,-1.69 0.0104,-0.011 0.0146,-0.014 0.026,-0.026 0.20592,-0.2069 0.4108,-0.4243 0.598,-0.65 0.0395,-0.048 0.0905,-0.1072 0.13,-0.156 1.35096,-1.69 2.158,-3.8096 2.158,-6.136 h -2.6 z"
     style="display:inline;fill:#ffffff;fill-opacity:1;fill-rule:nonzero;stroke:none;enable-background:new"
     id="path7377"
     sodipodi:nodetypes="sccccccccccccccccccccccccccccccccccsccccccccccccccccccccsccccccccccccccccccccc" />
  <path
     id="rect2630"
     style="fill:#ffffff;fill-opacity:1;opacity:0.3"
     d="M 10,4 C 6.6760035,4 4.0000002,6.6760033 4.0000002,10 v 1 C 4.0000002,7.6760032 6.6760035,5 10,5 h 28 c 3.323997,0 6,2.6760032 6,6 V 10 C 44,6.6760033 41.323997,4 38,4 Z" />
  <path
     id="rect398"
     style="opacity:0.3;fill:#ffffff"
     d="m 4.0000001,37 v 1 c 0,3.323996 2.6760033,6 5.9999999,6 h 28 c 3.323997,0 6,-2.676004 6,-6 v -1 c 0,3.323996 -2.676003,6 -6,6 H 10 C 6.6760034,43 4.0000001,40.323996 4.0000001,37 Z" />
  <path
     id="rect899"
     style="opacity:0.5;fill:#000000;stroke:none"
     d="M 10,3 C 6.1220039,3 3,6.1220039 3,10 v 28 c 0,3.877996 3.1220039,7 7,7 h 28 c 3.877996,0 7,-3.122004 7,-7 V 10 C 45,6.1220039 41.877996,3 38,3 Z m 0,1 h 28 c 3.323997,0 6,2.6760033 6,6 v 28 c 0,3.323997 -2.676003,6 -6,6 H 10 C 6.6760033,44 4,41.323997 4,38 V 10 C 4,6.6760033 6.6760033,4 10,4 Z" />
</svg>
