<?xml version="1.0" encoding="UTF-8" standalone="no"?>
<!-- Created with Inkscape (http://www.inkscape.org/) -->

<svg
   width="48"
   height="48"
   viewBox="0 0 48 48.000002"
   version="1.1"
   id="svg5"
   sodipodi:docname="system-shutdown.svg"
   inkscape:version="1.2.1 (9c6d41e410, 2022-07-14)"
   xmlns:inkscape="http://www.inkscape.org/namespaces/inkscape"
   xmlns:sodipodi="http://sodipodi.sourceforge.net/DTD/sodipodi-0.dtd"
   xmlns:xlink="http://www.w3.org/1999/xlink"
   xmlns="http://www.w3.org/2000/svg"
   xmlns:svg="http://www.w3.org/2000/svg">
  <sodipodi:namedview
     id="namedview7"
     pagecolor="#ffffff"
     bordercolor="#666666"
     borderopacity="1.0"
     inkscape:showpageshadow="2"
     inkscape:pageopacity="0.0"
     inkscape:pagecheckerboard="0"
     inkscape:deskcolor="#d1d1d1"
     inkscape:document-units="px"
     showgrid="false"
     inkscape:zoom="16.5625"
     inkscape:cx="24"
     inkscape:cy="24"
     inkscape:window-width="1920"
     inkscape:window-height="1007"
     inkscape:window-x="0"
     inkscape:window-y="0"
     inkscape:window-maximized="1"
     inkscape:current-layer="svg5"
     showguides="false" />
  <defs
     id="defs2">
    <linearGradient
       inkscape:collect="always"
       xlink:href="#linearGradient5312"
       id="linearGradient6478"
       x1="37.5"
       y1="44.5"
       x2="9.5"
       y2="2.5"
       gradientUnits="userSpaceOnUse"
       gradientTransform="translate(0.5,0.5)" />
    <linearGradient
       inkscape:collect="always"
       id="linearGradient5312">
      <stop
         style="stop-color:#c72222;stop-opacity:1;"
         offset="0"
         id="stop5308" />
      <stop
         style="stop-color:#cf5b5b;stop-opacity:1;"
         offset="1"
         id="stop5310" />
    </linearGradient>
  </defs>
  <rect
     style="fill:url(#linearGradient6478);fill-opacity:1.0;stroke:none"
     id="rect184"
     width="41"
     height="41"
     x="3.5"
     y="3.5"
     ry="6.5" />
  <path
     d="m 23.929417,9.956 c -1.10805,0 -2,0.89195 -2,1.999999 v 10.000002 c 0,0.741929 0.40306,1.373449 1,1.71875 0.0717,0.0415 0.14173,0.0925 0.21875,0.125 0.0411,0.0208 0.0823,0.0445 0.125,0.0625 0.0804,0.0276 0.16522,0.0452 0.25,0.0625 0.17143,0.0476 0.34427,0.0937 0.53125,0.0937 1.10805,0 2,-0.89195 2,-2 V 12.018449 c 0,-0.74193 -0.40306,-1.373459 -1,-1.718749 -0.0684,-0.0462 -0.1446,-0.0874 -0.21875,-0.125 -0.0419,-0.0177 -0.0817,-0.0477 -0.125,-0.0625 -0.0778,-0.0328 -0.16746,-0.0396 -0.25,-0.0625 -0.17143,-0.0476 -0.34427,-0.0937 -0.53125,-0.0937 z m -6.125,3.5625 c -0.31074,0.0338 -0.61311,0.14179 -0.875,0.3125 -2.11996,1.22276 -3.89588,3.00872 -5.125,5.125 -3.599219,6.19705 -1.809009,14.03317 3.8125,18.218751 0.36542,0.272081 0.72737,0.54168 1.125,0.78125 0.0652,0.0393 0.12145,0.0866 0.1875,0.125 0.32356,0.18792 0.66814,0.34109 1,0.5 0.34429,0.164861 0.67969,0.3034 1.03125,0.4375 0.10587,0.0414 0.20572,0.0862 0.3125,0.125 0.20946,0.074 0.41364,0.155371 0.625,0.21875 0.1764,0.0549 0.35289,0.10826 0.53125,0.15625 0.13296,0.0342 0.27277,0.0637 0.40625,0.0937 3.35523,0.79785 7.01452,0.392251 10.21875,-1.46875 6.66594,-3.871551 8.99654,-12.459071 5.125,-19.125001 -1.22912,-2.11628 -3.00504,-3.90224 -5.125,-5.125 -0.26189,-0.17071 -0.56426,-0.2787 -0.875,-0.3125 -0.90618,-0.0769 -1.83242,0.53516 -2.09375,1.40625 -0.26131,0.87106 0.16991,1.90909 0.96875,2.34375 1.51441,0.8735 2.74698,2.11323 3.625,3.625 1.74111,2.99782 1.7871,6.51573 0.40625,9.40625 -0.006,0.0127 -0.0251,0.0186 -0.0312,0.0312 -0.208,0.16968 -0.38196,0.38036 -0.5,0.625 -2.78577,4.79651 -8.89099,6.348281 -13.6875,3.5625 -0.27976,-0.16248 -0.55503,-0.3471 -0.8125,-0.53125 -0.0181,-0.0135 -0.0445,-0.0176 -0.0625,-0.0312 -1.01637,-0.77047 -1.87819,-1.75926 -2.5625,-2.9375 -0.0918,-0.19027 -0.22608,-0.35422 -0.375,-0.5 -1.52491,-2.94294 -1.54914,-6.58975 0.25,-9.6875 0.87802,-1.51177 2.11059,-2.7515 3.625,-3.625 0.79884,-0.43466 1.23006,-1.47269 0.96875,-2.34375 -0.26133,-0.87109 -1.18757,-1.4831 -2.09375,-1.40625 z"
     style="color:#000000;font-style:normal;font-variant:normal;font-weight:normal;font-stretch:normal;font-size:medium;line-height:normal;font-family:Sans;-inkscape-font-specification:Sans;text-indent:0;text-align:start;text-decoration:none;text-decoration-line:none;letter-spacing:normal;word-spacing:normal;text-transform:none;writing-mode:lr-tb;direction:ltr;baseline-shift:baseline;text-anchor:start;display:inline;overflow:visible;visibility:visible;fill:#000000;fill-opacity:1;stroke:none;stroke-width:2.33333;marker:none;enable-background:new;opacity:0.2"
     id="path14631" />
  <path
     d="m 23.929417,8.956 c -1.10805,0 -2,0.89195 -2,2 v 10 c 0,0.74193 0.40306,1.37345 1,1.71875 0.0717,0.0415 0.14173,0.0925 0.21875,0.125 0.0411,0.0208 0.0823,0.0445 0.125,0.0625 0.0804,0.0276 0.16522,0.0452 0.25,0.0625 0.17143,0.0476 0.34427,0.0937 0.53125,0.0937 1.10805,0 2,-0.89195 2,-2 v -10 c 0,-0.74193 -0.40306,-1.37346 -1,-1.71875 -0.0684,-0.0462 -0.1446,-0.0874 -0.21875,-0.125 -0.0419,-0.0177 -0.0817,-0.0477 -0.125,-0.0625 -0.0778,-0.0328 -0.16746,-0.0396 -0.25,-0.0625 -0.17143,-0.0476 -0.34427,-0.0937 -0.53125,-0.0937 z m -6.125,3.5625 c -0.31074,0.0338 -0.61311,0.14179 -0.875,0.3125 -2.11996,1.22276 -3.89588,3.00872 -5.125,5.125 -3.5992192,6.19705 -1.8090092,14.03317 3.8125,18.21875 0.36542,0.27208 0.72737,0.54168 1.125,0.78125 0.0652,0.0393 0.12145,0.0866 0.1875,0.125 0.32356,0.18792 0.66814,0.34109 1,0.5 0.34429,0.16486 0.67969,0.3034 1.03125,0.4375 0.10587,0.0414 0.20572,0.0862 0.3125,0.125 0.20946,0.074 0.41364,0.15537 0.625,0.21875 0.1764,0.0549 0.35289,0.10826 0.53125,0.15625 0.13296,0.0342 0.27277,0.0637 0.40625,0.0937 3.35523,0.79785 7.01452,0.39225 10.21875,-1.46875 6.66594,-3.87155 8.99654,-12.45907 5.125,-19.125 -1.22912,-2.11628 -3.00504,-3.90224 -5.125,-5.125 -0.26189,-0.17071 -0.56426,-0.2787 -0.875,-0.3125 -0.90618,-0.0769 -1.83242,0.53516 -2.09375,1.40625 -0.26131,0.87106 0.16991,1.90909 0.96875,2.34375 1.51441,0.8735 2.74698,2.11323 3.625,3.625 1.74111,2.99782 1.7871,6.51573 0.40625,9.40625 -0.006,0.0127 -0.0251,0.0186 -0.0312,0.0312 -0.208,0.16968 -0.38196,0.38036 -0.5,0.625 -2.78577,4.79651 -8.89099,6.34828 -13.6875,3.5625 -0.27976,-0.16248 -0.55503,-0.3471 -0.8125,-0.53125 -0.0181,-0.0135 -0.0445,-0.0176 -0.0625,-0.0312 -1.01637,-0.77047 -1.87819,-1.75926 -2.5625,-2.9375 -0.0918,-0.19027 -0.22608,-0.35422 -0.375,-0.5 -1.52491,-2.94294 -1.54914,-6.58975 0.25,-9.6875 0.87802,-1.51177 2.11059,-2.7515 3.625,-3.625 0.79884,-0.43466 1.23006,-1.47269 0.96875,-2.34375 -0.26133,-0.87109 -1.18757,-1.4831 -2.09375,-1.40625 z"
     style="color:#000000;font-style:normal;font-variant:normal;font-weight:normal;font-stretch:normal;font-size:medium;line-height:normal;font-family:Sans;-inkscape-font-specification:Sans;text-indent:0;text-align:start;text-decoration:none;text-decoration-line:none;letter-spacing:normal;word-spacing:normal;text-transform:none;writing-mode:lr-tb;direction:ltr;baseline-shift:baseline;text-anchor:start;display:inline;overflow:visible;visibility:visible;fill:#ffffff;fill-opacity:1;stroke:none;stroke-width:2.33333;marker:none;enable-background:new"
     id="path14235"
     sodipodi:nodetypes="sssccccsssccccscccsccscccccssccccscccsccccscccc" />
  <path
     id="rect2630"
     style="fill:#ffffff;fill-opacity:1;opacity:0.3"
     d="M 10,4 C 6.6760035,4 4.0000002,6.6760033 4.0000002,10 v 1 C 4.0000002,7.6760032 6.6760035,5 10,5 h 28 c 3.323997,0 6,2.6760032 6,6 V 10 C 44,6.6760033 41.323997,4 38,4 Z" />
  <path
     id="rect398"
     style="opacity:0.3;fill:#ffffff"
     d="m 4.0000001,37 v 1 c 0,3.323996 2.6760033,6 5.9999999,6 h 28 c 3.323997,0 6,-2.676004 6,-6 v -1 c 0,3.323996 -2.676003,6 -6,6 H 10 C 6.6760034,43 4.0000001,40.323996 4.0000001,37 Z" />
  <path
     id="rect899"
     style="opacity:0.5;fill:#000000;stroke:none"
     d="M 10,3 C 6.1220039,3 3,6.1220039 3,10 v 28 c 0,3.877996 3.1220039,7 7,7 h 28 c 3.877996,0 7,-3.122004 7,-7 V 10 C 45,6.1220039 41.877996,3 38,3 Z m 0,1 h 28 c 3.323997,0 6,2.6760033 6,6 v 28 c 0,3.323997 -2.676003,6 -6,6 H 10 C 6.6760033,44 4,41.323997 4,38 V 10 C 4,6.6760033 6.6760033,4 10,4 Z" />
</svg>
