<?xml version="1.0" encoding="UTF-8" standalone="no"?>
<!-- Created with Inkscape (http://www.inkscape.org/) -->

<svg
   width="32"
   height="32"
   viewBox="0 0 32 32"
   version="1.1"
   id="svg5"
   inkscape:version="1.2.1 (9c6d41e410, 2022-07-14)"
   sodipodi:docname="dialog-error.svg"
   xmlns:inkscape="http://www.inkscape.org/namespaces/inkscape"
   xmlns:sodipodi="http://sodipodi.sourceforge.net/DTD/sodipodi-0.dtd"
   xmlns:xlink="http://www.w3.org/1999/xlink"
   xmlns="http://www.w3.org/2000/svg"
   xmlns:svg="http://www.w3.org/2000/svg">
  <sodipodi:namedview
     id="namedview7"
     pagecolor="#ffffff"
     bordercolor="#666666"
     borderopacity="1.0"
     inkscape:showpageshadow="2"
     inkscape:pageopacity="0.0"
     inkscape:pagecheckerboard="0"
     inkscape:deskcolor="#d1d1d1"
     inkscape:document-units="px"
     showgrid="false"
     inkscape:zoom="8.8388348"
     inkscape:cx="6.4488138"
     inkscape:cy="32.640049"
     inkscape:window-width="1920"
     inkscape:window-height="1007"
     inkscape:window-x="0"
     inkscape:window-y="0"
     inkscape:window-maximized="1"
     inkscape:current-layer="svg5" />
  <defs
     id="defs2">
    <linearGradient
       inkscape:collect="always"
       xlink:href="#linearGradient5312"
       id="linearGradient2881"
       x1="29"
       y1="29"
       x2="3"
       y2="3"
       gradientUnits="userSpaceOnUse"
       gradientTransform="matrix(1.076923,0,0,1.076923,-1.2307692,-1.2307692)" />
    <linearGradient
       inkscape:collect="always"
       id="linearGradient5312">
      <stop
         style="stop-color:#c72222;stop-opacity:1;"
         offset="0"
         id="stop5308" />
      <stop
         style="stop-color:#cf5b5b;stop-opacity:1;"
         offset="1"
         id="stop5310" />
    </linearGradient>
  </defs>
  <circle
     style="opacity:0.2;fill:#000000;fill-opacity:1;stroke:none;stroke-width:2.15385;stroke-linecap:round;stroke-linejoin:round;stroke-dasharray:none;stroke-opacity:1"
     id="path2871"
     cx="16"
     cy="17.000126"
     r="14" />
  <circle
     style="opacity:1;fill:url(#linearGradient2881);fill-opacity:1.0;stroke:none;stroke-width:2.15385;stroke-linecap:round;stroke-linejoin:round;stroke-dasharray:none;stroke-opacity:1"
     id="path2873"
     cx="16"
     cy="16"
     r="14" />
  <path
     d="m 10.403815,9.989001 -1.414062,1.414062 5.596751,5.596751 -5.596751,5.596752 1.414062,1.414062 5.596752,-5.596751 5.595618,5.596751 1.414062,-1.414062 -5.596752,-5.596752 5.596752,-5.596751 L 21.596185,9.989 16.000567,15.58575 Z"
     style="opacity:0.2;fill:#000000;fill-rule:evenodd;stroke-width:1.8898;paint-order:fill markers stroke"
     id="path629" />
  <path
     d="M 10.403815,8.989186 8.989753,10.403249 14.586504,16 l -5.596751,5.596751 1.414062,1.414062 5.596752,-5.596751 5.595618,5.596752 1.414062,-1.414063 L 17.413495,16 23.010247,10.403248 21.596185,8.989186 16.000567,14.585937 Z"
     style="fill:#ffffff;fill-rule:evenodd;stroke-width:1.8898;paint-order:fill markers stroke"
     id="path5343"
     sodipodi:nodetypes="ccccccccccccc" />
  <path
     id="path2132"
     style="opacity:0.2;fill:#ffffff;stroke-width:3;stroke-linecap:round;stroke-linejoin:round"
     d="M 16,2 A 14,14 0 0 0 2,16 14,14 0 0 0 2.0351562,16.5 14,14 0 0 1 16,3 14,14 0 0 1 29.980469,16.279297 14,14 0 0 0 30,16 14,14 0 0 0 16,2 Z" />
</svg>
