<?xml version="1.0" encoding="UTF-8" standalone="no"?>
<!-- Created with Inkscape (http://www.inkscape.org/) -->

<svg
   width="32"
   height="32"
   viewBox="0 0 32 32.000001"
   version="1.1"
   id="svg5"
   sodipodi:docname="system-log-out.svg"
   inkscape:version="1.2.1 (9c6d41e410, 2022-07-14)"
   xmlns:inkscape="http://www.inkscape.org/namespaces/inkscape"
   xmlns:sodipodi="http://sodipodi.sourceforge.net/DTD/sodipodi-0.dtd"
   xmlns:xlink="http://www.w3.org/1999/xlink"
   xmlns="http://www.w3.org/2000/svg"
   xmlns:svg="http://www.w3.org/2000/svg">
  <sodipodi:namedview
     id="namedview7"
     pagecolor="#ffffff"
     bordercolor="#666666"
     borderopacity="1.0"
     inkscape:showpageshadow="2"
     inkscape:pageopacity="0.0"
     inkscape:pagecheckerboard="0"
     inkscape:deskcolor="#d1d1d1"
     inkscape:document-units="px"
     showgrid="false"
     inkscape:zoom="25.65625"
     inkscape:cx="15.980512"
     inkscape:cy="16"
     inkscape:window-width="1920"
     inkscape:window-height="1007"
     inkscape:window-x="0"
     inkscape:window-y="0"
     inkscape:window-maximized="1"
     inkscape:current-layer="svg5" />
  <defs
     id="defs2">
    <linearGradient
       inkscape:collect="always"
       xlink:href="#linearGradient4380"
       id="linearGradient8655"
       x1="25"
       y1="30"
       x2="7"
       y2="2"
       gradientUnits="userSpaceOnUse" />
    <linearGradient
       inkscape:collect="always"
       id="linearGradient4380">
      <stop
         style="stop-color:#e58800;stop-opacity:1;"
         offset="0"
         id="stop4376" />
      <stop
         style="stop-color:#f3dc1d;stop-opacity:1;"
         offset="1"
         id="stop4378" />
    </linearGradient>
  </defs>
  <rect
     style="fill:url(#linearGradient8655);fill-opacity:1;stroke:none"
     id="rect184"
     width="27"
     height="27"
     x="2.5"
     y="2.5"
     ry="4.5" />
  <path
     d="m 27.00653,16.898607 c 0,-0.80924 -0.60699,-1.46875 -1.375,-1.46875 h -6.9375 c -0.61762,0 -1.13221,0.4454 -1.3125,1.03125 -0.0159,0.0516 -0.0521,0.10227 -0.0625,0.15625 -0.0112,0.0399 -0.0233,0.0837 -0.0312,0.125 -0.006,0.0539 0,0.10074 0,0.15625 -0.004,0.0446 -0.0312,0.0794 -0.0312,0.125001 0,0.80924 0.63823,1.46875 1.40625,1.46875 h 6.90625 c 0.6176,0 1.13221,-0.41415 1.3125,-1 0.004,-0.0121 0.0278,-0.019 0.0312,-0.0312 0.0175,-0.0437 0.0178,-0.0792 0.0312,-0.125 0.0404,-0.13739 0.0625,-0.28577 0.0625,-0.437501 z m -2.71875,-3.96875 c -0.0221,-0.20314 -0.0759,-0.3913 -0.1875,-0.5625 -0.79935,-1.38588 -1.99153,-2.5402403 -3.375,-3.3437503 -2.93223,-1.7030201 -6.40829,-1.5655101 -9.15625,0.0312 -0.008,0.005 -0.023,-0.005 -0.0312,0 -0.02,0.0116 -0.0426,0.0195 -0.0625,0.0312 -0.0318,0.019 -0.0621,0.0431 -0.0937,0.0625 -0.21646,0.13144 -0.42321,0.29118 -0.625,0.4375 -0.24659,0.18008 -0.48945,0.35674 -0.71875,0.5625003 -0.1260796,0.11313 -0.2546896,0.22301 -0.3749996,0.34375 -0.0938,0.0934 -0.19207,0.18432 -0.28125,0.28125 -0.0251,0.0274 -0.0378,0.066 -0.0625,0.0937 -0.17565,0.19562 -0.34301,0.41666 -0.5,0.625 -0.0226,0.0304 -0.0402,0.063 -0.0625,0.0937 -0.17273,0.23531 -0.32004,0.46965 -0.46875,0.71875 -0.0147,0.0248 -0.048,0.0375 -0.0625,0.0625 -0.059,0.1016 -0.10163,0.20959 -0.15625,0.3125 -0.0551,0.10311 -0.10516,0.20754 -0.15625,0.3125 -0.0342,0.0709 -0.0616,0.14738 -0.0937,0.21875 -0.12519,0.27467 -0.24617,0.55883 -0.34375,0.84375 -0.0672,0.19632 -0.13362,0.39348 -0.1875,0.59375 -0.0238,0.092 -0.0417,0.18888 -0.0625,0.28125 -0.0686,0.29153 -0.11625,0.57789 -0.15625,0.875 -0.26016,1.932441 0.0739,3.971441 1.125,5.781251 2.5309296,4.3577 8.1422996,5.87468 12.4999996,3.34375 1.38347,-0.80351 2.5444,-1.95787 3.34375,-3.34375 0.1116,-0.1712 0.19665,-0.39061 0.21875,-0.59375 0.0502,-0.59239 -0.36805,-1.17291 -0.9375,-1.34375 -0.56944,-0.17083 -1.2471,0.10278 -1.53125,0.625 -0.57103,0.99001 -1.38672,1.80101 -2.375,2.375 -1.96807,1.14304 -4.26208,1.16448 -6.15625,0.25 -0.0125,-0.006 -0.0188,-0.0252 -0.0312,-0.0312 -0.10572,-0.12107 -0.2284,-0.21052 -0.375,-0.28125 -2.3517,-1.36586 -3.5234696,-3.96917 -3.1874996,-6.500001 0.11199,-0.84361 0.3884696,-1.6536 0.8437496,-2.4375 0.004,-0.008 -0.004,-0.0237 0,-0.0312 0.17105,-0.29189 0.38742,-0.55822 0.59375,-0.8125 0.0594,-0.0732 0.12545,-0.14873 0.1875,-0.21875 0.005,-0.006 -0.005,-0.0256 0,-0.0312 0.1303,-0.14592 0.2964,-0.27444 0.4375,-0.40625 0.32427,-0.28956 0.7018,-0.55361 1.09375,-0.78125 0.08,-0.0386 0.15052,-0.10133 0.21875,-0.15625 0.0123,-0.007 0.0189,-0.0247 0.0312,-0.0312 1.93451,-1.02909 4.3594,-1.06379 6.40625,0.125 0.98828,0.57399 1.80397,1.38499 2.375,2.375 0.28415,0.52222 0.93056,0.79583 1.5,0.625 0.56945,-0.17084 0.98773,-0.78261 0.9375,-1.375 z"
     style="color:#000000;font-style:normal;font-variant:normal;font-weight:normal;font-stretch:normal;font-size:medium;line-height:normal;font-family:Sans;-inkscape-font-specification:Sans;text-indent:0;text-align:start;text-decoration:none;text-decoration-line:none;letter-spacing:normal;word-spacing:normal;text-transform:none;writing-mode:lr-tb;direction:ltr;baseline-shift:baseline;text-anchor:start;display:inline;overflow:visible;visibility:visible;opacity:0.2;fill:#000000;fill-opacity:1;stroke:none;stroke-width:2.33333;marker:none;enable-background:new"
     id="path6929" />
  <path
     d="m 27.00653,15.898607 c 0,-0.80924 -0.60699,-1.46875 -1.375,-1.46875 h -6.9375 c -0.61762,0 -1.13221,0.4454 -1.3125,1.03125 -0.0159,0.0516 -0.0521,0.10227 -0.0625,0.15625 -0.0112,0.0399 -0.0233,0.0837 -0.0312,0.125 -0.006,0.0539 0,0.10074 0,0.15625 -0.004,0.0446 -0.0312,0.0794 -0.0312,0.125 0,0.80924 0.63823,1.46875 1.40625,1.46875 h 6.90625 c 0.6176,0 1.13221,-0.41415 1.3125,-1 0.004,-0.0121 0.0278,-0.019 0.0312,-0.0312 0.0175,-0.0437 0.0178,-0.0792 0.0312,-0.125 0.0404,-0.13739 0.0625,-0.28577 0.0625,-0.4375 z m -2.71875,-3.96875 c -0.0221,-0.20314 -0.0759,-0.3913 -0.1875,-0.5625 -0.79935,-1.38588 -1.99153,-2.5402404 -3.375,-3.3437504 -2.93223,-1.70302 -6.40829,-1.56551 -9.15625,0.0312 -0.008,0.005 -0.023,-0.005 -0.0312,0 -0.02,0.0116 -0.0426,0.0195 -0.0625,0.0312 -0.0318,0.019 -0.0621,0.0431 -0.0937,0.0625 -0.21646,0.13144 -0.42321,0.29118 -0.625,0.4375 -0.24659,0.18008 -0.48945,0.35674 -0.71875,0.5625 -0.12608,0.11313 -0.25469,0.22301 -0.375,0.34375 -0.0938,0.0934 -0.19207,0.18432 -0.28125,0.28125 -0.0251,0.0274 -0.0378,0.066 -0.0625,0.0937 -0.17565,0.1956204 -0.3430096,0.4166604 -0.4999996,0.6250004 -0.0226,0.0304 -0.0402,0.063 -0.0625,0.0937 -0.17273,0.23531 -0.32004,0.46965 -0.46875,0.71875 -0.0147,0.0248 -0.048,0.0375 -0.0625,0.0625 -0.059,0.1016 -0.10163,0.20959 -0.15625,0.3125 -0.0551,0.10311 -0.10516,0.20754 -0.15625,0.3125 -0.0342,0.0709 -0.0616,0.14738 -0.0937,0.21875 -0.12519,0.27467 -0.24617,0.55883 -0.34375,0.84375 -0.0672,0.19632 -0.13362,0.39348 -0.1875,0.59375 -0.0238,0.092 -0.0417,0.18888 -0.0625,0.28125 -0.0686,0.29153 -0.11625,0.57789 -0.15625,0.875 -0.26016,1.93244 0.0739,3.97144 1.125,5.78125 2.5309296,4.3577 8.1422996,5.87468 12.4999996,3.34375 1.38347,-0.80351 2.5444,-1.95787 3.34375,-3.34375 0.1116,-0.1712 0.19665,-0.39061 0.21875,-0.59375 0.0502,-0.59239 -0.36805,-1.17291 -0.9375,-1.34375 -0.56944,-0.17083 -1.2471,0.10278 -1.53125,0.625 -0.57103,0.99001 -1.38672,1.80101 -2.375,2.375 -1.96807,1.14304 -4.26208,1.16448 -6.15625,0.25 -0.0125,-0.006 -0.0188,-0.0252 -0.0312,-0.0312 -0.10572,-0.12107 -0.2284,-0.21052 -0.375,-0.28125 -2.3517,-1.36586 -3.52347,-3.96917 -3.1875,-6.5 0.11199,-0.84361 0.38847,-1.6536 0.84375,-2.4375 0.004,-0.008 -0.004,-0.0237 0,-0.0312 0.17105,-0.29189 0.38742,-0.55822 0.59375,-0.8125 0.0594,-0.0732 0.12545,-0.14873 0.1875,-0.21875 0.005,-0.006 -0.005,-0.0256 0,-0.0312 0.1303,-0.14592 0.2964,-0.27444 0.4375,-0.40625 0.32427,-0.28956 0.7018,-0.55361 1.09375,-0.78125 0.08,-0.0386 0.15052,-0.10133 0.21875,-0.15625 0.0123,-0.007 0.0189,-0.0247 0.0312,-0.0312 1.93451,-1.0290904 4.3594,-1.0637904 6.40625,0.125 0.98828,0.57399 1.80397,1.38499 2.375,2.375 0.28415,0.52222 0.93056,0.79583 1.5,0.625 0.56945,-0.17084 0.98773,-0.78261 0.9375,-1.375 z"
     style="color:#000000;font-style:normal;font-variant:normal;font-weight:normal;font-stretch:normal;font-size:medium;line-height:normal;font-family:Sans;-inkscape-font-specification:Sans;text-indent:0;text-align:start;text-decoration:none;text-decoration-line:none;letter-spacing:normal;word-spacing:normal;text-transform:none;writing-mode:lr-tb;direction:ltr;baseline-shift:baseline;text-anchor:start;display:inline;overflow:visible;visibility:visible;fill:#ffffff;fill-opacity:1;stroke:none;stroke-width:2.33333;marker:none;enable-background:new"
     id="path5176"
     sodipodi:nodetypes="sssccccssscccssccscccccccccccccccccccccsccccccccsccsccccccccccc" />
  <path
     id="rect2630"
     style="opacity:0.3;fill:#ffffff;fill-opacity:1"
     d="M 7,3 C 4.7840022,3 3,4.7840022 3,6.9999998 v 1 C 3,5.7840022 4.7840022,4 7,4 h 18 c 2.215998,0 4,1.7840022 4,3.9999998 v -1 C 29,4.7840022 27.215998,3 25,3 Z" />
  <path
     id="rect398"
     style="opacity:0.3;fill:#ffffff"
     d="m 3.0000002,24 v 1 c 0,2.215998 1.7840022,4 4,4 H 25 c 2.215998,0 4,-1.784002 4,-4 v -1 c 0,2.215998 -1.784002,4 -4,4 H 7.0000002 c -2.2159978,0 -4,-1.784002 -4,-4 z" />
  <path
     id="rect899"
     style="fill:#000000;stroke:none;opacity:0.5"
     d="M 7 2 C 4.2300028 2 2 4.2300028 2 7 L 2 25 C 2 27.769997 4.2300028 30 7 30 L 25 30 C 27.769997 30 30 27.769997 30 25 L 30 7 C 30 4.2300028 27.769997 2 25 2 L 7 2 z M 7 3 L 25 3 C 27.215998 3 29 4.7840022 29 7 L 29 25 C 29 27.215998 27.215998 29 25 29 L 7 29 C 4.7840022 29 3 27.215998 3 25 L 3 7 C 3 4.7840022 4.7840022 3 7 3 z " />
</svg>
