<?xml version="1.0" encoding="UTF-8" standalone="no"?>
<!-- Created with Inkscape (http://www.inkscape.org/) -->

<svg
   width="256"
   height="256"
   viewBox="0 0 256 256.00001"
   version="1.1"
   id="svg5"
   sodipodi:docname="0ad.svg"
   inkscape:version="1.2.1 (9c6d41e410, 2022-07-14)"
   xmlns:inkscape="http://www.inkscape.org/namespaces/inkscape"
   xmlns:sodipodi="http://sodipodi.sourceforge.net/DTD/sodipodi-0.dtd"
   xmlns:xlink="http://www.w3.org/1999/xlink"
   xmlns="http://www.w3.org/2000/svg"
   xmlns:svg="http://www.w3.org/2000/svg">
  <sodipodi:namedview
     id="namedview7"
     pagecolor="#ffffff"
     bordercolor="#666666"
     borderopacity="1.0"
     inkscape:showpageshadow="2"
     inkscape:pageopacity="0.0"
     inkscape:pagecheckerboard="0"
     inkscape:deskcolor="#d1d1d1"
     inkscape:document-units="px"
     showgrid="false"
     inkscape:zoom="2.298097"
     inkscape:cx="20.669275"
     inkscape:cy="84.852815"
     inkscape:window-width="1920"
     inkscape:window-height="1002"
     inkscape:window-x="0"
     inkscape:window-y="0"
     inkscape:window-maximized="1"
     inkscape:current-layer="svg5" />
  <defs
     id="defs2">
    <linearGradient
       inkscape:collect="always"
       xlink:href="#linearGradient985"
       id="linearGradient3525"
       x1="49.757847"
       y1="59.623318"
       x2="14.242153"
       y2="4.3766818"
       gradientUnits="userSpaceOnUse"
       gradientTransform="matrix(4.0545454,0,0,4.0545454,-1.745455,-1.745455)" />
    <linearGradient
       inkscape:collect="always"
       id="linearGradient985">
      <stop
         style="stop-color:#a0894c;stop-opacity:1;"
         offset="0"
         id="stop981" />
      <stop
         style="stop-color:#bab495;stop-opacity:1;"
         offset="1"
         id="stop983" />
    </linearGradient>
  </defs>
  <rect
     style="fill:url(#linearGradient3525);fill-opacity:1.0;stroke:none;stroke-width:4.05454"
     id="rect184"
     width="223"
     height="223"
     x="16.5"
     y="16.5"
     ry="39.5" />
  <path
     id="path1493"
     style="opacity:0.2;fill:#000000;stroke-width:14.5455;stroke-linejoin:round"
     d="m 128,49.000914 c -44.18268,0 -80,35.817304 -80,79.999996 0,44.18269 35.81732,80.00001 80,80.00001 44.18268,0 80,-35.81732 80,-80.00001 0,-44.182692 -35.81732,-79.999996 -80,-79.999996 z m -8,16.515626 v 55.48437 H 64.51562 C 68.12676,92.053774 91.05286,69.127666 120,65.51654 Z m 16,0 c 28.94714,3.611126 51.87324,26.537234 55.48438,55.48437 H 136 Z M 64.51562,137.00092 H 120 v 55.48437 C 91.05286,188.87416 68.12676,165.94805 64.51562,137.00092 Z m 71.48438,0 h 55.48438 C 187.87324,165.94805 164.94714,188.87416 136,192.48529 Z" />
  <path
     id="path1039"
     style="fill:#ffffff;stroke-width:14.5455;stroke-linejoin:round"
     d="m 128,48 c -44.1827,0 -80,35.817304 -80,80 0,44.18269 35.8173,80 80,80 44.18268,0 80,-35.81731 80,-80 0,-44.182696 -35.81732,-80 -80,-80 z m -8,16.515626 V 120 H 64.51562 C 68.12676,91.05286 91.05286,68.126752 120,64.515626 Z m 16,0 C 164.94714,68.126752 187.87324,91.05286 191.48438,120 H 136 Z M 64.51562,136 H 120 v 55.48438 C 91.05286,187.87325 68.12676,164.94714 64.51562,136 Z M 136,136 h 55.48438 C 187.87324,164.94714 164.94714,187.87325 136,191.48438 Z" />
  <path
     id="rect899"
     style="fill:#000000;stroke:none;stroke-width:4;opacity:0.5"
     d="M 56,16 C 33.840066,16 16,33.840066 16,56 v 144 c 0,22.15994 17.840066,40 40,40 h 144 c 22.15994,0 40,-17.84006 40,-40 V 56 C 240,33.840066 222.15994,16 200,16 Z m 0,1 h 144 c 21.60598,0 39,17.394022 39,39 v 144 c 0,21.60598 -17.39402,39 -39,39 H 56 C 34.394022,239 17,221.60598 17,200 V 56 C 17,34.394022 34.394022,17 56,17 Z" />
  <path
     id="rect441"
     style="opacity:0.3;fill:#ffffff"
     d="m 17,199 v 1 c 0,21.60598 17.394022,39 39,39 h 144 c 21.60598,0 39,-17.39402 39,-39 v -1 c 0,21.60598 -17.39402,39 -39,39 H 56 C 34.394022,238 17,220.60598 17,199 Z" />
  <path
     id="rect443"
     style="opacity:0.3;fill:#ffffff"
     d="M 56,17 C 34.394022,17 17,34.394022 17,56 v 1 C 17,35.394022 34.394022,18 56,18 h 144 c 21.60598,0 39,17.394022 39,39 V 56 C 239,34.394022 221.60598,17 200,17 Z" />
</svg>
