<?xml version="1.0" encoding="UTF-8" standalone="no"?>
<!-- Created with Inkscape (http://www.inkscape.org/) -->

<svg
   width="256"
   height="256"
   viewBox="0 0 256 256.00001"
   version="1.1"
   id="svg5"
   sodipodi:docname="accessories-document-viewer.svg"
   inkscape:version="1.2.1 (9c6d41e410, 2022-07-14)"
   xmlns:inkscape="http://www.inkscape.org/namespaces/inkscape"
   xmlns:sodipodi="http://sodipodi.sourceforge.net/DTD/sodipodi-0.dtd"
   xmlns:xlink="http://www.w3.org/1999/xlink"
   xmlns="http://www.w3.org/2000/svg"
   xmlns:svg="http://www.w3.org/2000/svg">
  <sodipodi:namedview
     id="namedview7"
     pagecolor="#ffffff"
     bordercolor="#666666"
     borderopacity="1.0"
     inkscape:showpageshadow="2"
     inkscape:pageopacity="0.0"
     inkscape:pagecheckerboard="0"
     inkscape:deskcolor="#d1d1d1"
     inkscape:document-units="px"
     showgrid="false"
     inkscape:zoom="1.625"
     inkscape:cx="5.2307693"
     inkscape:cy="111.38462"
     inkscape:window-width="1920"
     inkscape:window-height="1002"
     inkscape:window-x="0"
     inkscape:window-y="0"
     inkscape:window-maximized="1"
     inkscape:current-layer="svg5" />
  <defs
     id="defs2">
    <linearGradient
       inkscape:collect="always"
       xlink:href="#linearGradient1216"
       id="linearGradient3525"
       x1="49.757847"
       y1="59.623318"
       x2="14.242153"
       y2="4.3766818"
       gradientUnits="userSpaceOnUse"
       gradientTransform="matrix(4.0545454,0,0,4.0545454,-1.745455,-1.745455)" />
    <linearGradient
       inkscape:collect="always"
       id="linearGradient1216">
      <stop
         style="stop-color:#dc1111;stop-opacity:1;"
         offset="0"
         id="stop1212" />
      <stop
         style="stop-color:#dc5d4f;stop-opacity:1;"
         offset="1"
         id="stop1214" />
    </linearGradient>
  </defs>
  <rect
     style="fill:url(#linearGradient3525);fill-opacity:1.0;stroke:none;stroke-width:4.05454"
     id="rect184"
     width="223"
     height="223"
     x="16.5"
     y="16.5"
     ry="39.5" />
  <path
     d="m 118.77821,49 c -2.75864,0 -3.30276,0.1292 -4.41244,1.05912 -2.20928,1.85184 -3.46828,7.5498 -3.45556,15.83412 0.012,8.565601 1.186,16.717801 3.88084,27.325763 l 1.70116,6.6196 -1.59484,4.977957 c -5.06556,16.18732 -12.40968,33.03365 -23.231805,53.22164 -16.40132,30.59584 -29.07656,46.65786 -37.904481,48.0849 -1.4204,0.2296 -1.48852,0.1704 -1.48852,-0.84728 0,-5.16376 9.791121,-18.07562 20.680001,-27.27286 5.56224,-4.69808 -0.91064,-1.55824 -8.3996,4.07768 -7.54696,5.67956 -13.798481,13.04384 -15.735961,18.53494 -1.37764,3.90464 -1.08624,5.28524 1.43536,6.56668 4.505521,2.28964 6.798281,2.37972 10.632401,0.4766 7.45304,-3.6994 17.30948,-15.40718 28.2822,-33.57466 3.55788,-5.89084 4.67436,-7.36104 5.582,-7.36104 0.32,0 3.68224,-0.93208 7.442685,-2.06532 15.02968,-4.52936 33.07676,-8.18524 50.76971,-10.3266 l 5.90096,-0.7414 2.97708,1.4828 c 7.75312,3.88936 18.55616,7.6632 26.47464,9.21448 5.35562,1.0492 12.32958,1.24256 14.67274,0.42368 1.4764,-0.51596 4.55212,-2.33916 4.55216,-2.93832 -6.00988,2.8186 -15.06848,-0.66424 -21.88298,-2.67508 -4.493,-1.41556 -14.3808,-5.28136 -14.93852,-5.82528 11.9718,-2.3172 34.42818,-2.83112 36.84126,5.45452 0.707,0 0.52532,-3.32608 -0.266,-4.66016 -1.48172,-2.49868 -5.77532,-4.51584 -11.96144,-5.6664 -5.00846,-0.93152 -16.87626,-1.19232 -26.1557,-0.58252 l -8.24012,0.52956 -2.97704,-1.80052 c -17.07079,-10.3408 -26.11179,-22.00656 -34.28951,-44.16604 -1.2272,-3.325401 -1.30972,-3.781641 -0.90376,-5.878241 1.42948,-7.38172 2.75608,-32.322483 1.7544,-32.939203 -1.82444,8.17264 -3.29992,16.346961 -5.15676,23.724681 -0.3836,0 -1.5074,-5.75068 -2.39232,-12.44484 -0.96272,-7.283241 -0.61308,-17.136197 0.69116,-20.494317 0.5226,-1.34568 1.20428,-2.57184 1.54168,-2.7008 3.34312,0.95884 5.20376,3.6066 5.68832,7.67872 0.47436,0 0.59616,-0.77816 0.69112,-3.28328 C 125.79193,50.53356 124.31521,49 118.77821,49 Z m 1.329,60.79452 c 0.1896,-0.0604 0.2972,0.3488 0.53168,1.00616 0.2888,0.80944 1.90368,4.1234 3.5618,7.36104 7.1346,13.93052 15.03528,23.06684 26.42152,30.55608 0.57684,0.3796 0.93328,0.81192 0.79744,0.95324 -0.1356,0.1416 -2.45352,0.64024 -5.10356,1.11208 -18.07108,3.21784 -40.56908,9.9872 -51.513925,15.46344 -0.174,0.0872 -0.3188,-0.084 -0.3188,-0.3708 0,-0.2868 1.07584,-2.52812 2.44544,-4.97796 10.316045,-18.45216 17.247965,-33.36592 21.158485,-45.64884 1.24052,-3.89648 1.70436,-5.35404 2.02012,-5.45452 z"
     style="display:inline;opacity:0.2;fill:#000000;fill-opacity:1;fill-rule:nonzero;stroke:none;stroke-width:4;enable-background:new"
     id="path1239" />
  <path
     d="m 118.77821,48 c -2.75864,0 -3.30276,0.1292 -4.41244,1.05912 -2.20928,1.85184 -3.46828,7.5498 -3.45556,15.834116 0.012,8.565604 1.186,16.717801 3.88084,27.325763 l 1.70116,6.6196 -1.59484,4.977961 c -5.06556,16.18732 -12.40968,33.03364 -23.231805,53.22164 -16.40132,30.59584 -29.07656,46.65784 -37.904481,48.08488 -1.4204,0.2296 -1.48852,0.1704 -1.48852,-0.84728 0,-5.16376 9.791121,-18.0756 20.680001,-27.27284 5.56224,-4.69808 -0.91064,-1.55824 -8.3996,4.07768 -7.54696,5.67956 -13.798481,13.04384 -15.735961,18.53492 -1.37764,3.90464 -1.08624,5.28524 1.43536,6.56668 4.505521,2.28964 6.798281,2.37972 10.632401,0.4766 7.45304,-3.6994 17.30948,-15.40716 28.2822,-33.57464 3.55788,-5.89084 4.67436,-7.36104 5.582,-7.36104 0.32,0 3.68224,-0.93208 7.442685,-2.06532 15.02968,-4.52936 33.07676,-8.18524 50.76971,-10.3266 l 5.90096,-0.7414 2.97708,1.4828 c 7.75312,3.88936 18.55616,7.6632 26.47464,9.21448 5.35562,1.0492 12.32958,1.24256 14.67274,0.42368 1.4764,-0.51596 4.55212,-2.33916 4.55216,-2.93832 -6.00988,2.8186 -15.06848,-0.66424 -21.88298,-2.67508 -4.493,-1.41556 -14.3808,-5.28136 -14.93852,-5.82528 11.9718,-2.3172 34.42818,-2.83112 36.84126,5.45452 0.707,0 0.52532,-3.32608 -0.266,-4.66016 -1.48172,-2.49868 -5.77532,-4.51584 -11.96144,-5.6664 -5.00846,-0.93152 -16.87626,-1.19232 -26.1557,-0.58252 l -8.24012,0.52956 -2.97704,-1.80052 c -17.07079,-10.3408 -26.11179,-22.00656 -34.28951,-44.16604 -1.2272,-3.325401 -1.30972,-3.781641 -0.90376,-5.878241 1.42948,-7.381722 2.75608,-32.322479 1.7544,-32.939199 -1.82444,8.172636 -3.29992,16.346957 -5.15676,23.724677 -0.3836,0 -1.5074,-5.75068 -2.39232,-12.444841 -0.96272,-7.28324 -0.61308,-17.136196 0.69116,-20.494316 0.5226,-1.34568 1.20428,-2.57184 1.54168,-2.7008 3.34312,0.95884 5.20376,3.6066 5.68832,7.67872 0.47436,0 0.59616,-0.77816 0.69112,-3.28328 C 125.79193,49.53356 124.31521,48 118.77821,48 Z m 1.329,60.79452 c 0.1896,-0.0604 0.2972,0.3488 0.53168,1.00616 0.2888,0.80944 1.90368,4.1234 3.5618,7.36104 7.1346,13.93052 15.03528,23.06684 26.42152,30.55608 0.57684,0.3796 0.93328,0.81192 0.79744,0.95324 -0.1356,0.1416 -2.45352,0.64024 -5.10356,1.11208 -18.07108,3.21784 -40.56908,9.9872 -51.513925,15.46344 -0.174,0.0872 -0.3188,-0.084 -0.3188,-0.3708 0,-0.2868 1.07584,-2.52812 2.44544,-4.97796 10.316045,-18.45216 17.247965,-33.36592 21.158485,-45.64884 1.24052,-3.89648 1.70436,-5.35404 2.02012,-5.45452 z"
     style="display:inline;fill:#ffffff;fill-opacity:1;fill-rule:nonzero;stroke:none;stroke-width:4;enable-background:new"
     id="path429"
     sodipodi:nodetypes="sccccccsssscssssscccsscccccscccsccccccccscccccccscscc" />
  <path
     id="rect899"
     style="fill:#000000;stroke:none;stroke-width:4;opacity:0.5"
     d="M 56,16 C 33.840066,16 16,33.840066 16,56 v 144 c 0,22.15994 17.840066,40 40,40 h 144 c 22.15994,0 40,-17.84006 40,-40 V 56 C 240,33.840066 222.15994,16 200,16 Z m 0,1 h 144 c 21.60598,0 39,17.394022 39,39 v 144 c 0,21.60598 -17.39402,39 -39,39 H 56 C 34.394022,239 17,221.60598 17,200 V 56 C 17,34.394022 34.394022,17 56,17 Z" />
  <path
     id="rect441"
     style="opacity:0.3;fill:#ffffff"
     d="m 17,199 v 1 c 0,21.60598 17.394022,39 39,39 h 144 c 21.60598,0 39,-17.39402 39,-39 v -1 c 0,21.60598 -17.39402,39 -39,39 H 56 C 34.394022,238 17,220.60598 17,199 Z" />
  <path
     id="rect443"
     style="opacity:0.3;fill:#ffffff"
     d="M 56,17 C 34.394022,17 17,34.394022 17,56 v 1 C 17,35.394022 34.394022,18 56,18 h 144 c 21.60598,0 39,17.394022 39,39 V 56 C 239,34.394022 221.60598,17 200,17 Z" />
</svg>
