<?xml version="1.0" encoding="UTF-8" standalone="no"?>
<!-- Created with Inkscape (http://www.inkscape.org/) -->

<svg
   width="256"
   height="256"
   viewBox="0 0 256 256.00001"
   version="1.1"
   id="svg5"
   sodipodi:docname="accessories-camera.svg"
   inkscape:version="1.2.1 (9c6d41e410, 2022-07-14)"
   xmlns:inkscape="http://www.inkscape.org/namespaces/inkscape"
   xmlns:sodipodi="http://sodipodi.sourceforge.net/DTD/sodipodi-0.dtd"
   xmlns:xlink="http://www.w3.org/1999/xlink"
   xmlns="http://www.w3.org/2000/svg"
   xmlns:svg="http://www.w3.org/2000/svg">
  <sodipodi:namedview
     id="namedview7"
     pagecolor="#ffffff"
     bordercolor="#666666"
     borderopacity="1.0"
     inkscape:showpageshadow="2"
     inkscape:pageopacity="0.0"
     inkscape:pagecheckerboard="0"
     inkscape:deskcolor="#d1d1d1"
     inkscape:document-units="px"
     showgrid="false"
     inkscape:zoom="1.1490485"
     inkscape:cx="279.79672"
     inkscape:cy="-77.45539"
     inkscape:window-width="1920"
     inkscape:window-height="1007"
     inkscape:window-x="0"
     inkscape:window-y="0"
     inkscape:window-maximized="1"
     inkscape:current-layer="svg5" />
  <defs
     id="defs2">
    <linearGradient
       inkscape:collect="always"
       xlink:href="#linearGradient3585"
       id="linearGradient3525"
       x1="49.757851"
       y1="59.623322"
       x2="14.242154"
       y2="4.3766828"
       gradientUnits="userSpaceOnUse"
       gradientTransform="matrix(4.0545454,0,0,4.0545454,-1.7454618,-1.7454586)" />
    <linearGradient
       inkscape:collect="always"
       id="linearGradient3585">
      <stop
         style="stop-color:#adb2b9;stop-opacity:1;"
         offset="0"
         id="stop3581" />
      <stop
         style="stop-color:#e6e6e6;stop-opacity:1"
         offset="1"
         id="stop3583" />
    </linearGradient>
  </defs>
  <rect
     style="fill:url(#linearGradient3525);fill-opacity:1;stroke:none;stroke-width:4.05454"
     id="rect184"
     width="223"
     height="223"
     x="16.5"
     y="16.5"
     ry="39.5" />
  <path
     d="m 109.99218,69.000026 c -2.10705,0.0048 -4.05223,1.113008 -5.13281,2.921888 L 94.617182,89.000039 H 68.000001 C 61.351992,89.000039 56,94.352039 56,101.00004 v 76 c 0,6.648 5.351992,12 12.000001,12 H 188 c 6.648,0 12,-5.352 12,-12 v -76 c 0,-6.648001 -5.352,-12.000001 -12,-12.000001 h -26.60936 l -10.2344,-17.078125 c -1.08596,-1.81792 -3.04648,-2.9275 -5.16404,-2.921888 z M 128,105.00004 c 17.67312,0 32,14.32688 32,32 0,17.67312 -14.32688,32 -32,32 -17.67311,0 -32.000006,-14.32688 -32.000006,-32 0,-17.67312 14.326896,-32 32.000006,-32 z m 0,8 c -13.25483,0 -24.00001,10.74516 -24.00001,24 0,13.25484 10.74518,24 24.00001,24 13.25484,0 24,-10.74516 24,-24 0,-13.25484 -10.74516,-24 -24,-24 z"
     style="opacity:0.2;fill:#000000;fill-opacity:1;stroke-width:27.9151;stroke-linejoin:round"
     id="path10249" />
  <path
     id="rect849"
     style="fill:#666666;fill-opacity:1;stroke-width:7.38588;stroke-linejoin:round"
     d="m 109.99219,68.000021 c -2.10705,0.0048 -4.05223,1.113004 -5.13281,2.921876 L 94.61719,88.000009 H 68.000001 C 61.352,88.000009 56,93.352009 56,100.00001 v 76 c 0,6.64801 5.352,12.00001 12.000001,12.00001 H 188 c 6.648,0 12,-5.352 12,-12.00001 v -76 c 0,-6.648001 -5.352,-12.000001 -12,-12.000001 h -26.60936 l -10.2344,-17.078112 c -1.08596,-1.817916 -3.04648,-2.927488 -5.16404,-2.921876 z M 128,104.00001 c 17.67312,0 32,14.32692 32,32 0,17.67312 -14.32688,32 -32,32 -17.67311,0 -31.999998,-14.32688 -31.999998,-32 0,-17.67308 14.326888,-32 31.999998,-32 z m 0,8 c -13.25483,0 -24,10.7452 -24,24 0,13.25484 10.74517,24 24,24 13.25484,0 24,-10.74516 24,-24 0,-13.2548 -10.74516,-24 -24,-24 z"
     sodipodi:nodetypes="cccssssssssccccssssssssss" />
  <path
     id="rect899"
     style="fill:#000000;stroke:none;stroke-width:4;opacity:0.5"
     d="M 56,16 C 33.840066,16 16,33.840066 16,56 v 144 c 0,22.15994 17.840066,40 40,40 h 144 c 22.15994,0 40,-17.84006 40,-40 V 56 C 240,33.840066 222.15994,16 200,16 Z m 0,1 h 144 c 21.60598,0 39,17.394022 39,39 v 144 c 0,21.60598 -17.39402,39 -39,39 H 56 C 34.394022,239 17,221.60598 17,200 V 56 C 17,34.394022 34.394022,17 56,17 Z" />
  <path
     id="rect441"
     style="opacity:0.3;fill:#ffffff"
     d="m 17,199 v 1 c 0,21.60598 17.394022,39 39,39 h 144 c 21.60598,0 39,-17.39402 39,-39 v -1 c 0,21.60598 -17.39402,39 -39,39 H 56 C 34.394022,238 17,220.60598 17,199 Z" />
  <path
     id="rect443"
     style="opacity:0.3;fill:#ffffff"
     d="M 56,17 C 34.394022,17 17,34.394022 17,56 v 1 C 17,35.394022 34.394022,18 56,18 h 144 c 21.60598,0 39,17.394022 39,39 V 56 C 239,34.394022 221.60598,17 200,17 Z" />
</svg>
