<?xml version="1.0" encoding="UTF-8" standalone="no"?>
<!-- Created with Inkscape (http://www.inkscape.org/) -->

<svg
   width="256"
   height="256"
   viewBox="0 0 256 256.00001"
   version="1.1"
   id="svg5"
   sodipodi:docname="accessories-text-editor.svg"
   inkscape:version="1.2.1 (9c6d41e410, 2022-07-14)"
   xmlns:inkscape="http://www.inkscape.org/namespaces/inkscape"
   xmlns:sodipodi="http://sodipodi.sourceforge.net/DTD/sodipodi-0.dtd"
   xmlns:xlink="http://www.w3.org/1999/xlink"
   xmlns="http://www.w3.org/2000/svg"
   xmlns:svg="http://www.w3.org/2000/svg">
  <sodipodi:namedview
     id="namedview7"
     pagecolor="#ffffff"
     bordercolor="#666666"
     borderopacity="1.0"
     inkscape:showpageshadow="2"
     inkscape:pageopacity="0.0"
     inkscape:pagecheckerboard="0"
     inkscape:deskcolor="#d1d1d1"
     inkscape:document-units="px"
     showgrid="false"
     inkscape:zoom="3.125"
     inkscape:cx="128.48"
     inkscape:cy="128.16"
     inkscape:window-width="1920"
     inkscape:window-height="1007"
     inkscape:window-x="0"
     inkscape:window-y="0"
     inkscape:window-maximized="1"
     inkscape:current-layer="svg5" />
  <defs
     id="defs2">
    <linearGradient
       inkscape:collect="always"
       id="linearGradient6608">
      <stop
         style="stop-color:#b79877;stop-opacity:1;"
         offset="0"
         id="stop6604" />
      <stop
         style="stop-color:#f7d2a2;stop-opacity:1;"
         offset="1"
         id="stop6606" />
    </linearGradient>
    <linearGradient
       inkscape:collect="always"
       xlink:href="#linearGradient6608"
       id="linearGradient33585"
       x1="200"
       y1="240"
       x2="56"
       y2="16"
       gradientUnits="userSpaceOnUse" />
  </defs>
  <rect
     style="fill:url(#linearGradient33585);fill-opacity:1;stroke:none;stroke-width:4"
     id="rect184"
     width="223"
     height="223"
     x="16.5"
     y="16.5"
     ry="39.5" />
  <path
     d="m 186.22185,59.464426 c -3.1339,-3.133901 -8.17983,-3.133901 -11.31373,0 l -11.31373,11.31373 22.62746,22.62746 11.31372,-11.31374 c 3.1339,-3.133901 3.1339,-8.179819 0,-11.313728 z M 157.93753,76.435013 67.427725,166.94484 56.114003,200.88602 90.055177,189.5723 180.56499,99.062471 Z"
     style="opacity:0.2;fill:#000000;stroke-width:8.00001;stroke-linecap:round;stroke-linejoin:round"
     id="path1413" />
  <path
     id="rect746"
     style="fill:#ffffff;stroke-width:8.00001;stroke-linecap:round;stroke-linejoin:round"
     d="m 186.22185,58.464426 c -3.1339,-3.133901 -8.17983,-3.133901 -11.31373,0 l -11.31373,11.313722 22.62746,22.627462 11.31372,-11.31373 c 3.1339,-3.133901 3.1339,-8.179829 0,-11.313734 z M 157.93753,75.435015 67.427725,165.94483 56.114003,199.886 90.055177,188.57228 180.56499,98.062465 Z"
     sodipodi:nodetypes="ssccssscccccc" />
  <path
     id="rect899"
     style="fill:#000000;stroke:none;stroke-width:4;opacity:0.5"
     d="M 56,16 C 33.840066,16 16,33.840066 16,56 v 144 c 0,22.15994 17.840066,40 40,40 h 144 c 22.15994,0 40,-17.84006 40,-40 V 56 C 240,33.840066 222.15994,16 200,16 Z m 0,1 h 144 c 21.60598,0 39,17.394022 39,39 v 144 c 0,21.60598 -17.39402,39 -39,39 H 56 C 34.394022,239 17,221.60598 17,200 V 56 C 17,34.394022 34.394022,17 56,17 Z" />
  <path
     id="rect441"
     style="opacity:0.3;fill:#ffffff"
     d="m 17,199 v 1 c 0,21.60598 17.394022,39 39,39 h 144 c 21.60598,0 39,-17.39402 39,-39 v -1 c 0,21.60598 -17.39402,39 -39,39 H 56 C 34.394022,238 17,220.60598 17,199 Z" />
  <path
     id="rect443"
     style="opacity:0.3;fill:#ffffff"
     d="M 56,17 C 34.394022,17 17,34.394022 17,56 v 1 C 17,35.394022 34.394022,18 56,18 h 144 c 21.60598,0 39,17.394022 39,39 V 56 C 239,34.394022 221.60598,17 200,17 Z" />
</svg>
