<?xml version="1.0" encoding="UTF-8" standalone="no"?>
<!-- Created with Inkscape (http://www.inkscape.org/) -->

<svg
   width="256"
   height="256"
   viewBox="0 0 256 256.00001"
   version="1.1"
   id="svg5"
   sodipodi:docname="accessories-clock.svg"
   inkscape:version="1.2.1 (9c6d41e410, 2022-07-14)"
   xmlns:inkscape="http://www.inkscape.org/namespaces/inkscape"
   xmlns:sodipodi="http://sodipodi.sourceforge.net/DTD/sodipodi-0.dtd"
   xmlns:xlink="http://www.w3.org/1999/xlink"
   xmlns="http://www.w3.org/2000/svg"
   xmlns:svg="http://www.w3.org/2000/svg">
  <sodipodi:namedview
     id="namedview7"
     pagecolor="#ffffff"
     bordercolor="#666666"
     borderopacity="1.0"
     inkscape:showpageshadow="2"
     inkscape:pageopacity="0.0"
     inkscape:pagecheckerboard="0"
     inkscape:deskcolor="#d1d1d1"
     inkscape:document-units="px"
     showgrid="false"
     inkscape:zoom="1"
     inkscape:cx="129"
     inkscape:cy="128.5"
     inkscape:window-width="1920"
     inkscape:window-height="1007"
     inkscape:window-x="0"
     inkscape:window-y="0"
     inkscape:window-maximized="1"
     inkscape:current-layer="svg5" />
  <defs
     id="defs2">
    <linearGradient
       inkscape:collect="always"
       xlink:href="#4852"
       id="linearGradient3525"
       x1="32"
       y1="4.3766818"
       x2="32"
       y2="59.623318"
       gradientUnits="userSpaceOnUse"
       gradientTransform="matrix(4.0545454,0,0,4.0545454,-1.745455,-1.745455)" />
    <linearGradient
       inkscape:collect="always"
       id="4852">
      <stop
         style="stop-color:#333333;stop-opacity:1"
         offset="0"
         id="stop14555" />
      <stop
         style="stop-color:#666666;stop-opacity:1"
         offset="1"
         id="stop14557" />
    </linearGradient>
  </defs>
  <rect
     style="fill:url(#linearGradient3525);fill-opacity:1;stroke:none;stroke-width:4.05454"
     id="rect184"
     width="223"
     height="223"
     x="16.5"
     y="16.5"
     ry="39.5" />
  <path
     d="m 178.8394,48.784001 -48.18756,83.375109 -0.65621,0.3438 c -0.55995,-0.1248 -1.07812,-0.37348 -1.67188,-0.39068 l -75.73448,-71.078222 -4.875006,4.859382 70.468836,74.92197 -14.84377,12.71876 1.71875,2.98438 19.40626,-6.81251 c 1.10439,0.4715 2.31674,0.74999 3.59375,0.74999 0.43524,0 0.84643,-0.0515 1.26564,-0.10936 l 16.96877,11.60938 2.4375,-2.43751 -11.07815,-16.1875 63.65634,-40.34381 -3.45313,-5.96875 -59.60946,31.17191 44.56254,-77.109472 z"
     style="display:inline;opacity:0.2;fill:#000000;fill-opacity:1;stroke:none;stroke-width:7.99993;enable-background:new"
     id="path1509" />
  <path
     d="m 52.579002,60.032015 -4.875002,4.85933 70.46818,74.921305 -14.84356,12.71865 1.71871,2.98434 19.40607,-6.81244 c 1.10439,0.4715 2.3167,0.74999 3.59373,0.74999 0.43523,0 0.8464,-0.0515 1.26559,-0.10936 l 16.98427,11.60929 2.43752,-2.43749 -11.07808,-16.18738 63.65576,-40.34343 -3.45312,-5.96871 -67.87443,35.4841 c -0.55996,-0.1248 -1.07815,-0.37348 -1.67191,-0.39068 z"
     style="display:inline;fill:#ffffff;fill-opacity:1;stroke:none;stroke-width:7.99993;enable-background:new"
     id="path1339" />
  <path
     d="m 178.83324,47.784 3.97489,2.294927 -50.05342,86.592233 c 0.55682,0.88653 0.88501,1.9357 0.88501,3.05991 0,3.18107 -2.57873,5.75981 -5.75983,5.75981 -3.18109,0 -5.7598,-2.57874 -5.7598,-5.75981 0,-3.18106 2.57871,-5.75981 5.7598,-5.75981 0.3712,0 0.72804,0.0376 1.07997,0.10504 z"
     style="color:#000000;display:inline;overflow:visible;visibility:visible;fill:#eb3030;fill-opacity:1;fill-rule:nonzero;stroke:none;stroke-width:7.99973;marker:none;enable-background:accumulate"
     id="path1404" />
  <path
     id="rect899"
     style="fill:#000000;stroke:none;stroke-width:4;opacity:0.5"
     d="M 56,16 C 33.840066,16 16,33.840066 16,56 v 144 c 0,22.15994 17.840066,40 40,40 h 144 c 22.15994,0 40,-17.84006 40,-40 V 56 C 240,33.840066 222.15994,16 200,16 Z m 0,1 h 144 c 21.60598,0 39,17.394022 39,39 v 144 c 0,21.60598 -17.39402,39 -39,39 H 56 C 34.394022,239 17,221.60598 17,200 V 56 C 17,34.394022 34.394022,17 56,17 Z" />
  <path
     id="rect441"
     style="opacity:0.3;fill:#ffffff"
     d="m 17,199 v 1 c 0,21.60598 17.394022,39 39,39 h 144 c 21.60598,0 39,-17.39402 39,-39 v -1 c 0,21.60598 -17.39402,39 -39,39 H 56 C 34.394022,238 17,220.60598 17,199 Z" />
  <path
     id="rect443"
     style="opacity:0.3;fill:#ffffff"
     d="M 56,17 C 34.394022,17 17,34.394022 17,56 v 1 C 17,35.394022 34.394022,18 56,18 h 144 c 21.60598,0 39,17.394022 39,39 V 56 C 239,34.394022 221.60598,17 200,17 Z" />
</svg>
