<?xml version="1.0" encoding="UTF-8" standalone="no"?>
<!-- Created with Inkscape (http://www.inkscape.org/) -->

<svg
   width="256"
   height="256"
   viewBox="0 0 256 256.00001"
   version="1.1"
   id="svg5"
   sodipodi:docname="accessories-dictionary.svg"
   inkscape:version="1.2.1 (9c6d41e410, 2022-07-14)"
   xmlns:inkscape="http://www.inkscape.org/namespaces/inkscape"
   xmlns:sodipodi="http://sodipodi.sourceforge.net/DTD/sodipodi-0.dtd"
   xmlns:xlink="http://www.w3.org/1999/xlink"
   xmlns="http://www.w3.org/2000/svg"
   xmlns:svg="http://www.w3.org/2000/svg">
  <sodipodi:namedview
     id="namedview7"
     pagecolor="#ffffff"
     bordercolor="#666666"
     borderopacity="1.0"
     inkscape:showpageshadow="2"
     inkscape:pageopacity="0.0"
     inkscape:pagecheckerboard="0"
     inkscape:deskcolor="#d1d1d1"
     inkscape:document-units="px"
     showgrid="false"
     inkscape:zoom="3.2070312"
     inkscape:cx="127.84409"
     inkscape:cy="128"
     inkscape:window-width="1920"
     inkscape:window-height="1007"
     inkscape:window-x="0"
     inkscape:window-y="0"
     inkscape:window-maximized="1"
     inkscape:current-layer="svg5" />
  <defs
     id="defs2">
    <linearGradient
       inkscape:collect="always"
       xlink:href="#linearGradient1093"
       id="linearGradient3525"
       x1="49.757847"
       y1="59.623318"
       x2="14.242153"
       y2="4.3766818"
       gradientUnits="userSpaceOnUse"
       gradientTransform="matrix(4.0545454,0,0,4.0545454,-1.745455,-1.745455)" />
    <linearGradient
       inkscape:collect="always"
       id="linearGradient1093">
      <stop
         style="stop-color:#981b1b;stop-opacity:1;"
         offset="0"
         id="stop1089" />
      <stop
         style="stop-color:#c75349;stop-opacity:1;"
         offset="1"
         id="stop1091" />
    </linearGradient>
  </defs>
  <rect
     style="fill:url(#linearGradient3525);fill-opacity:1.0;stroke:none;stroke-width:4.05454"
     id="rect184"
     width="223"
     height="223"
     x="16.5"
     y="16.5"
     ry="39.5" />
  <path
     d="M 89.607156,81 58.392839,167.92855 48,169.78571 v 3.64284 h 30.142837 v -3.64284 L 65.821438,167.92855 75.071437,141.5 h 36.071393 l 9.10716,26.42855 -12.32144,1.85716 v 3.64284 h 38.75002 v -3.64284 L 135.07145,167.92855 102.60715,81 Z m 3.21428,9.857163 16.214274,44.499997 H 77.107157 Z m 86.750004,16.857117 c -3.69076,8e-5 -7.13196,0.2844 -10.32144,0.78572 -3.14396,0.45572 -6.21688,0.96932 -9.17856,1.60716 v 14.03572 h 3.85712 l 2.32144,-8 c 1.68588,-0.9568 3.62444,-1.72904 5.85716,-2.32144 2.2326,-0.59228 4.45572,-0.8928 6.64284,-0.89288 1.91368,8e-5 3.50988,0.3264 4.78572,0.96432 1.27576,0.63796 2.27092,1.5038 3,2.64284 0.77456,1.13916 1.32384,2.51244 1.64284,4.10716 0.3188,1.54924 0.46428,3.3006 0.46428,5.21428 v 10.03572 l -9.60712,0.2856 c -2.18712,0.0456 -4.38436,0.1392 -6.57144,0.3216 -2.14156,0.1824 -4.1836,0.53452 -6.14284,1.03572 -1.91372,0.50124 -3.74272,1.19588 -5.4286,2.10712 -1.64032,0.86576 -3.05543,2.01612 -4.28567,3.42856 -1.23028,1.41256 -2.17368,3.15408 -2.85716,5.25 -0.68348,2.05044 -1.03572,4.49648 -1.03572,7.32144 0,2.73391 0.2748,5.27351 0.82144,7.64287 0.54676,2.3238 1.43848,4.37568 2.71428,6.10712 1.2758,1.68592 2.97543,3.00744 5.07143,3.96432 2.14152,0.95684 4.75872,1.42856 7.85712,1.42856 2.64272,0 5.03704,-0.2748 7.1786,-0.82144 2.18704,-0.5468 4.10964,-1.2254 5.75,-2 1.64028,-0.82016 3.00368,-1.66016 4.14284,-2.57144 1.18464,-0.91128 2.13792,-1.70936 2.82144,-2.39284 l 1.28572,6.42856 H 208 v -3.10716 l -8,-1.67856 v -43.42855 c -4e-5,-3.41728 -0.52348,-6.23156 -1.57144,-8.46428 -1.00244,-2.2782 -2.42744,-4.0714 -4.25,-5.39284 -1.8226,-1.32132 -3.95828,-2.27464 -6.46428,-2.82144 -2.50608,-0.54672 -5.22676,-0.82136 -8.14284,-0.82144 z m 9.0714,32.96428 v 22.82143 c -2.27824,1.09356 -4.5432,2.021 -6.8214,2.75 -2.23272,0.68348 -4.90164,1 -8,1 -6.51576,0 -9.78572,-4.01632 -9.78572,-12.03571 0,-2.82496 0.3264,-5.14168 0.96428,-6.96428 0.63788,-1.82256 1.61704,-3.23768 2.89284,-4.28572 1.2758,-1.04796 2.89784,-1.80416 4.85716,-2.21428 1.95924,-0.4556 4.27596,-0.69452 6.96428,-0.78572 l 8.92856,-0.2856 z"
     style="font-style:normal;font-variant:normal;font-weight:normal;font-stretch:normal;font-size:122.478px;line-height:125%;font-family:'Liberation Serif';-inkscape-font-specification:'Liberation Serif';letter-spacing:0px;word-spacing:0px;display:inline;opacity:0.2;fill:#000000;fill-opacity:1;stroke:none;stroke-width:4;enable-background:new"
     id="path8966" />
  <path
     d="M 89.607156,80 58.392839,166.92855 48,168.78571 v 3.64284 h 30.142837 v -3.64284 L 65.821438,166.92855 75.071437,140.5 h 36.071393 l 9.10716,26.42855 -12.32144,1.85716 v 3.64284 h 38.75002 v -3.64284 L 135.07145,166.92855 102.60715,80 Z m 3.21428,9.857163 16.214274,44.499997 H 77.107157 Z m 86.750004,16.857117 c -3.69076,8e-5 -7.13196,0.2844 -10.32144,0.78572 -3.14396,0.45572 -6.21688,0.96932 -9.17856,1.60716 v 14.03572 h 3.85712 l 2.32144,-8 c 1.68588,-0.9568 3.62444,-1.72904 5.85716,-2.32144 2.2326,-0.59228 4.45572,-0.8928 6.64284,-0.89288 1.91368,8e-5 3.50988,0.3264 4.78572,0.96432 1.27576,0.63796 2.27092,1.5038 3,2.64284 0.77456,1.13916 1.32384,2.51244 1.64284,4.10716 0.3188,1.54924 0.46428,3.3006 0.46428,5.21428 v 10.03572 l -9.60712,0.2856 c -2.18712,0.0456 -4.38436,0.1392 -6.57144,0.3216 -2.14156,0.1824 -4.1836,0.53452 -6.14284,1.03572 -1.91372,0.50124 -3.74272,1.19588 -5.4286,2.10712 -1.64032,0.86576 -3.05543,2.01612 -4.28567,3.42856 -1.23028,1.41256 -2.17368,3.15408 -2.85716,5.25 -0.68348,2.05044 -1.03572,4.49648 -1.03572,7.32144 0,2.73392 0.2748,5.27352 0.82144,7.64287 0.54676,2.3238 1.43848,4.37568 2.71428,6.10712 1.2758,1.68592 2.97543,3.00744 5.07143,3.96432 2.14152,0.95684 4.75872,1.42856 7.85712,1.42856 2.64272,0 5.03704,-0.2748 7.1786,-0.82144 2.18704,-0.5468 4.10964,-1.2254 5.75,-2 1.64028,-0.82016 3.00368,-1.66016 4.14284,-2.57144 1.18464,-0.91128 2.13792,-1.70936 2.82144,-2.39284 l 1.28572,6.42856 H 208 v -3.10716 l -8,-1.67856 v -43.42855 c -4e-5,-3.41728 -0.52348,-6.23156 -1.57144,-8.46428 -1.00244,-2.2782 -2.42744,-4.0714 -4.25,-5.39284 -1.8226,-1.32132 -3.95828,-2.27464 -6.46428,-2.82144 -2.50608,-0.54672 -5.22676,-0.82136 -8.14284,-0.82144 z m 9.0714,32.96428 v 22.82143 c -2.27824,1.09356 -4.5432,2.021 -6.8214,2.75 -2.23272,0.68348 -4.90164,1 -8,1 -6.51576,0 -9.78572,-4.01632 -9.78572,-12.03571 0,-2.82496 0.3264,-5.14168 0.96428,-6.96428 0.63788,-1.82256 1.61704,-3.23768 2.89284,-4.28572 1.2758,-1.04796 2.89784,-1.80416 4.85716,-2.21428 1.95924,-0.4556 4.27596,-0.69452 6.96428,-0.78572 l 8.92856,-0.2856 z"
     style="font-style:normal;font-variant:normal;font-weight:normal;font-stretch:normal;font-size:122.478px;line-height:125%;font-family:'Liberation Serif';-inkscape-font-specification:'Liberation Serif';letter-spacing:0px;word-spacing:0px;display:inline;fill:#ffffff;fill-opacity:1;stroke:none;stroke-width:4;enable-background:new"
     id="path8614"
     sodipodi:nodetypes="ccccccccccccccccccccccccccccccccscccccccscccscccccccccccccccccsssccccc" />
  <path
     id="rect899"
     style="fill:#000000;stroke:none;stroke-width:4;opacity:0.5"
     d="M 56,16 C 33.840066,16 16,33.840066 16,56 v 144 c 0,22.15994 17.840066,40 40,40 h 144 c 22.15994,0 40,-17.84006 40,-40 V 56 C 240,33.840066 222.15994,16 200,16 Z m 0,1 h 144 c 21.60598,0 39,17.394022 39,39 v 144 c 0,21.60598 -17.39402,39 -39,39 H 56 C 34.394022,239 17,221.60598 17,200 V 56 C 17,34.394022 34.394022,17 56,17 Z" />
  <path
     id="rect441"
     style="opacity:0.3;fill:#ffffff"
     d="m 17,199 v 1 c 0,21.60598 17.394022,39 39,39 h 144 c 21.60598,0 39,-17.39402 39,-39 v -1 c 0,21.60598 -17.39402,39 -39,39 H 56 C 34.394022,238 17,220.60598 17,199 Z" />
  <path
     id="rect443"
     style="opacity:0.3;fill:#ffffff"
     d="M 56,17 C 34.394022,17 17,34.394022 17,56 v 1 C 17,35.394022 34.394022,18 56,18 h 144 c 21.60598,0 39,17.394022 39,39 V 56 C 239,34.394022 221.60598,17 200,17 Z" />
</svg>
