<?xml version="1.0" encoding="UTF-8" standalone="no"?>
<!-- Created with Inkscape (http://www.inkscape.org/) -->

<svg
   width="256"
   height="256"
   viewBox="0 0 256 256.00001"
   version="1.1"
   id="svg5"
   sodipodi:docname="akonadi.svg"
   inkscape:version="1.2.1 (9c6d41e410, 2022-07-14)"
   xmlns:inkscape="http://www.inkscape.org/namespaces/inkscape"
   xmlns:sodipodi="http://sodipodi.sourceforge.net/DTD/sodipodi-0.dtd"
   xmlns:xlink="http://www.w3.org/1999/xlink"
   xmlns="http://www.w3.org/2000/svg"
   xmlns:svg="http://www.w3.org/2000/svg">
  <sodipodi:namedview
     id="namedview7"
     pagecolor="#ffffff"
     bordercolor="#666666"
     borderopacity="1.0"
     inkscape:showpageshadow="2"
     inkscape:pageopacity="0.0"
     inkscape:pagecheckerboard="0"
     inkscape:deskcolor="#d1d1d1"
     inkscape:document-units="px"
     showgrid="false"
     inkscape:zoom="2.8284271"
     inkscape:cx="111.01576"
     inkscape:cy="154.50283"
     inkscape:window-width="1920"
     inkscape:window-height="1012"
     inkscape:window-x="0"
     inkscape:window-y="0"
     inkscape:window-maximized="1"
     inkscape:current-layer="svg5" />
  <defs
     id="defs2">
    <linearGradient
       inkscape:collect="always"
       xlink:href="#linearGradient2466"
       id="linearGradient3525"
       x1="49.757847"
       y1="59.623318"
       x2="14.242153"
       y2="4.3766818"
       gradientUnits="userSpaceOnUse"
       gradientTransform="matrix(4.0545454,0,0,4.0545454,-1.745455,-1.745455)" />
    <linearGradient
       inkscape:collect="always"
       id="linearGradient2466">
      <stop
         style="stop-color:#366ecb;stop-opacity:1;"
         offset="0"
         id="stop2462" />
      <stop
         style="stop-color:#3694cb;stop-opacity:1;"
         offset="1"
         id="stop2464" />
    </linearGradient>
  </defs>
  <rect
     style="fill:url(#linearGradient3525);fill-opacity:1;stroke:none;stroke-width:4.05454"
     id="rect184"
     width="223"
     height="223"
     x="16.5"
     y="16.5"
     ry="39.5" />
  <path
     d="m 128,62.828436 c -3.27346,0.0038 -6.5424,0.24404 -9.78126,0.718752 3.2723,2.39638 6.37356,5.204588 9.28126,8.3125 9.35104,9.994904 17.16212,23.260876 23.78124,37.640622 0.0312,0.0676 0.0628,0.13552 0.0938,0.20312 16.33154,3.20201 31.65056,7.48739 43.95314,11.64063 C 190.7127,88.279492 162.33594,62.828436 128,62.828436 Z M 94.01562,61.000312 C 72.79956,73.25032 59.74022,94.183016 56.703124,116.71906 c 6.021656,-4.553 13.423216,-7.59512 21.445316,-9.46094 6.66564,-1.55033 13.84946,-2.35467 21.33594,-2.59375 7.48646,-0.23908 15.27486,0.0915 23.15624,0.82031 7.14346,0.66057 14.35188,1.66431 21.46094,2.89064 C 131.38228,82.024804 114.49424,60.90626 94.01562,61.000312 Z M 204,130.82844 c 0,41.972 -34.028,76 -76,76 -41.972,0 -76,-34.028 -76,-76 21.2452,-37.191604 114.996,-14.4668 152,0 z"
     style="color:#000000;opacity:0.2;fill:#000000;stroke:none;stroke-width:12"
     id="path1252" />
  <path
     id="path984"
     d="m 128,61.828436 c -3.27346,0.0038 -6.5424,0.24404 -9.78126,0.718752 3.2723,2.39638 6.37356,5.204588 9.28126,8.3125 9.35104,9.994904 17.16212,23.260876 23.78124,37.640622 0.0312,0.0676 0.0628,0.13552 0.0938,0.20312 16.33154,3.20201 31.65056,7.48739 43.95314,11.64063 C 190.7127,87.279492 162.33594,61.828436 128,61.828436 Z"
     sodipodi:nodetypes="ccssccc"
     style="fill:#d0e6ff;fill-opacity:1;stroke-width:4" />
  <path
     id="path969"
     style="color:#000000;fill:#caedfc;fill-opacity:1;stroke:none;stroke-width:12"
     d="M 94.01562,60.000312 C 72.79956,72.25032 59.74022,93.183016 56.703124,115.71906 c 6.021656,-4.553 13.423216,-7.59512 21.445316,-9.46094 6.66564,-1.55033 13.84946,-2.35467 21.33594,-2.59375 7.48646,-0.23908 15.27486,0.0915 23.15624,0.82031 7.14346,0.66057 14.35188,1.66431 21.46094,2.89064 C 131.38228,81.024804 114.49424,59.90626 94.01562,60.000312 Z"
     sodipodi:nodetypes="ccssscc" />
  <path
     style="color:#000000;fill:#ffffff;stroke:none;stroke-width:12"
     d="m 204,129.82844 c 0,41.972 -34.028,76 -76,76 -41.972,0 -76,-34.028 -76,-76 21.2452,-37.191604 114.996,-14.4668 152,0 z"
     id="path951"
     sodipodi:nodetypes="cscc" />
  <path
     id="rect899"
     style="fill:#000000;stroke:none;stroke-width:4;opacity:0.5"
     d="M 56,16 C 33.840066,16 16,33.840066 16,56 v 144 c 0,22.15994 17.840066,40 40,40 h 144 c 22.15994,0 40,-17.84006 40,-40 V 56 C 240,33.840066 222.15994,16 200,16 Z m 0,1 h 144 c 21.60598,0 39,17.394022 39,39 v 144 c 0,21.60598 -17.39402,39 -39,39 H 56 C 34.394022,239 17,221.60598 17,200 V 56 C 17,34.394022 34.394022,17 56,17 Z" />
  <path
     id="rect441"
     style="opacity:0.3;fill:#ffffff"
     d="m 17,199 v 1 c 0,21.60598 17.394022,39 39,39 h 144 c 21.60598,0 39,-17.39402 39,-39 v -1 c 0,21.60598 -17.39402,39 -39,39 H 56 C 34.394022,238 17,220.60598 17,199 Z" />
  <path
     id="rect443"
     style="opacity:0.3;fill:#ffffff"
     d="M 56,17 C 34.394022,17 17,34.394022 17,56 v 1 C 17,35.394022 34.394022,18 56,18 h 144 c 21.60598,0 39,17.394022 39,39 V 56 C 239,34.394022 221.60598,17 200,17 Z" />
</svg>
