<?xml version="1.0" encoding="UTF-8" standalone="no"?>
<!-- Created with Inkscape (http://www.inkscape.org/) -->

<svg
   width="256"
   height="256"
   viewBox="0 0 256 256.00001"
   version="1.1"
   id="svg5"
   sodipodi:docname="akregator.svg"
   inkscape:version="1.2.1 (9c6d41e410, 2022-07-14)"
   xmlns:inkscape="http://www.inkscape.org/namespaces/inkscape"
   xmlns:sodipodi="http://sodipodi.sourceforge.net/DTD/sodipodi-0.dtd"
   xmlns:xlink="http://www.w3.org/1999/xlink"
   xmlns="http://www.w3.org/2000/svg"
   xmlns:svg="http://www.w3.org/2000/svg">
  <sodipodi:namedview
     id="namedview7"
     pagecolor="#ffffff"
     bordercolor="#666666"
     borderopacity="1.0"
     inkscape:showpageshadow="2"
     inkscape:pageopacity="0.0"
     inkscape:pagecheckerboard="0"
     inkscape:deskcolor="#d1d1d1"
     inkscape:document-units="px"
     showgrid="false"
     inkscape:zoom="2.298097"
     inkscape:cx="85.505529"
     inkscape:cy="87.463671"
     inkscape:window-width="1920"
     inkscape:window-height="1007"
     inkscape:window-x="0"
     inkscape:window-y="0"
     inkscape:window-maximized="1"
     inkscape:current-layer="svg5" />
  <defs
     id="defs2">
    <linearGradient
       inkscape:collect="always"
       xlink:href="#linearGradient4648"
       id="linearGradient3525"
       x1="49.757847"
       y1="59.623318"
       x2="14.242153"
       y2="4.3766818"
       gradientUnits="userSpaceOnUse"
       gradientTransform="matrix(4.0545454,0,0,4.0545454,-1.745455,-1.745455)" />
    <linearGradient
       inkscape:collect="always"
       id="linearGradient4648">
      <stop
         style="stop-color:#f97a00;stop-opacity:1;"
         offset="0"
         id="stop4644" />
      <stop
         style="stop-color:#ffb439;stop-opacity:1;"
         offset="1"
         id="stop4646" />
    </linearGradient>
  </defs>
  <rect
     style="fill:url(#linearGradient3525);fill-opacity:1.0;stroke:none;stroke-width:4.05454"
     id="rect184"
     width="223"
     height="223"
     x="16.5"
     y="16.5"
     ry="39.5" />
  <path
     id="path4683"
     style="opacity:0.2;fill:#000000;fill-opacity:1;stroke-width:10.2946;stroke-linejoin:round"
     d="m 56,57 v 23.999992 c 66.2741,0 120,53.725898 120,120.000008 h 24 C 200,121.47107 135.52892,57 56,57 Z m 0,47.99999 v 24 c 39.764462,0 72,32.23555 72,72.00001 h 24 c 0,-53.01928 -42.98072,-96.00001 -96,-96.00001 z M 72,165 c -11.045204,-0.001 -19.996404,8.9548 -20,20 -0.0013,11.0487 8.951312,20.00134 20,20 11.045204,-0.004 20.001342,-8.95478 20.000002,-20 C 91.996002,173.95828 83.041724,165.0036 72,165 Z" />
  <path
     id="path1545"
     style="fill:#ffffff;fill-opacity:1;stroke-width:10.2946;stroke-linejoin:round"
     d="m 56,56 v 23.999992 c 66.2741,0 120,53.725898 120,120.000008 h 24 C 200,120.47107 135.52892,56 56,56 Z m 0,47.99999 v 24 c 39.764462,0 72,32.23555 72,72.00001 h 24 c 0,-53.01928 -42.98072,-96.00001 -96,-96.00001 z M 72,164 c -11.045204,-0.001 -19.996404,8.9548 -20,20 -0.0013,11.0487 8.951312,20.00134 20,20 11.045204,-0.004 20.001342,-8.95478 20.000002,-20 C 91.996002,172.95828 83.041724,164.0036 72,164 Z" />
  <path
     id="rect899"
     style="fill:#000000;stroke:none;stroke-width:4;opacity:0.5"
     d="M 56,16 C 33.840066,16 16,33.840066 16,56 v 144 c 0,22.15994 17.840066,40 40,40 h 144 c 22.15994,0 40,-17.84006 40,-40 V 56 C 240,33.840066 222.15994,16 200,16 Z m 0,1 h 144 c 21.60598,0 39,17.394022 39,39 v 144 c 0,21.60598 -17.39402,39 -39,39 H 56 C 34.394022,239 17,221.60598 17,200 V 56 C 17,34.394022 34.394022,17 56,17 Z" />
  <path
     id="rect441"
     style="opacity:0.3;fill:#ffffff"
     d="m 17,199 v 1 c 0,21.60598 17.394022,39 39,39 h 144 c 21.60598,0 39,-17.39402 39,-39 v -1 c 0,21.60598 -17.39402,39 -39,39 H 56 C 34.394022,238 17,220.60598 17,199 Z" />
  <path
     id="rect443"
     style="opacity:0.3;fill:#ffffff"
     d="M 56,17 C 34.394022,17 17,34.394022 17,56 v 1 C 17,35.394022 34.394022,18 56,18 h 144 c 21.60598,0 39,17.394022 39,39 V 56 C 239,34.394022 221.60598,17 200,17 Z" />
</svg>
