<?xml version="1.0" encoding="UTF-8" standalone="no"?>
<!-- Created with Inkscape (http://www.inkscape.org/) -->

<svg
   width="256"
   height="256"
   viewBox="0 0 256 256.00001"
   version="1.1"
   id="svg5"
   sodipodi:docname="baloo.svg"
   inkscape:version="1.2.1 (9c6d41e410, 2022-07-14)"
   xmlns:inkscape="http://www.inkscape.org/namespaces/inkscape"
   xmlns:sodipodi="http://sodipodi.sourceforge.net/DTD/sodipodi-0.dtd"
   xmlns:xlink="http://www.w3.org/1999/xlink"
   xmlns="http://www.w3.org/2000/svg"
   xmlns:svg="http://www.w3.org/2000/svg">
  <sodipodi:namedview
     id="namedview7"
     pagecolor="#ffffff"
     bordercolor="#666666"
     borderopacity="1.0"
     inkscape:showpageshadow="2"
     inkscape:pageopacity="0.0"
     inkscape:pagecheckerboard="0"
     inkscape:deskcolor="#d1d1d1"
     inkscape:document-units="px"
     showgrid="false"
     inkscape:zoom="1.1490485"
     inkscape:cx="281.53729"
     inkscape:cy="-8.2677102"
     inkscape:window-width="1920"
     inkscape:window-height="1007"
     inkscape:window-x="0"
     inkscape:window-y="0"
     inkscape:window-maximized="1"
     inkscape:current-layer="svg5" />
  <defs
     id="defs2">
    <linearGradient
       inkscape:collect="always"
       xlink:href="#linearGradient1265"
       id="linearGradient3525"
       x1="49.757851"
       y1="59.623322"
       x2="14.242154"
       y2="4.3766828"
       gradientUnits="userSpaceOnUse"
       gradientTransform="matrix(4.0545454,0,0,4.0545454,-1.7454618,-1.7454586)" />
    <linearGradient
       inkscape:collect="always"
       id="linearGradient1265">
      <stop
         style="stop-color:#2d7ff3;stop-opacity:1;"
         offset="0"
         id="stop1261" />
      <stop
         style="stop-color:#2cdbfa;stop-opacity:1;"
         offset="1"
         id="stop1263" />
    </linearGradient>
  </defs>
  <rect
     style="fill:url(#linearGradient3525);fill-opacity:1.0;stroke:none;stroke-width:4.05454"
     id="rect184"
     width="223"
     height="223"
     x="16.5"
     y="16.5"
     ry="39.5" />
  <path
     id="path16580-8"
     style="opacity:0.2;fill:#000000;stroke-width:7.5;stroke-linecap:round;stroke-linejoin:round"
     d="m 106.95963,50.008842 c -1.08129,0.0184 -2.16516,0.0632 -3.25,0.14064 -14.395015,1.03128 -27.936125,7.21658 -38.140625,17.42188 -23.42534,23.43034 -23.42534,61.413388 0,84.843748 22.34767,22.22895 58.085825,23.37561 81.812515,2.625 l 47.12499,47.12501 a 4,4 0 0 0 5.65626,0 4,4 0 0 0 0,-5.65626 L 153.13151,149.4776 c 20.78411,-23.76516 19.59557,-59.571698 -2.71875,-81.906258 -11.53559,-11.53605 -27.23378,-17.84089 -43.45313,-17.5625 z m 1.03125,7.98438 c 13.79042,0.002 27.01537,5.48203 36.76563,15.23438 20.30195,20.3063 20.30195,53.224938 0,73.531238 -20.30631,20.30197 -53.224955,20.30197 -73.531245,0 -20.30196,-20.3063 -20.30196,-53.224938 0,-73.531238 9.75025,-9.75235 22.9752,-15.2323 36.765615,-15.23438 z m 0.57031,12.00781 c -1.88071,6.03566 -2.23264,5.74397 -2.8125,12.19531 -2.99538,2.67983 -3.39681,5.73171 -3.26562,8.69532 0.14204,3.21801 2.3667,5.32109 4.96875,5.46875 3.22814,-0.0104 5.10838,-3.18939 5.40625,-6.27344 0.34896,-3.6158 -0.27668,-5.96716 -2.86719,-7.82813 -0.0676,-4.89252 -0.2742,-6.05907 -1.42969,-12.25781 z m -14.929685,6.08594 c -1.8807,6.03566 -2.23265,5.75183 -2.8125,12.20313 -2.9954,2.67983 -3.39681,5.72388 -3.26562,8.6875 0.14204,3.217988 2.35103,5.321088 4.95312,5.468738 3.22814,-0.0104 5.10838,-3.189388 5.40626,-6.273428 0.34892,-3.61578 -0.26108,-5.97498 -2.85157,-7.83594 -0.0676,-4.89253 -0.2742,-6.05125 -1.42969,-12.25 z m 29.039065,0 c -1.15548,6.19875 -1.35381,7.35747 -1.42188,12.25 -2.59052,1.86096 -3.20832,4.22016 -2.85937,7.83594 0.29789,3.08404 2.17811,6.263148 5.40625,6.273428 2.60209,-0.14764 4.81108,-2.25075 4.95312,-5.468738 0.13117,-2.96362 -0.2702,-6.00767 -3.26562,-8.6875 -0.57986,-6.4513 -0.93176,-6.16747 -2.8125,-12.20313 z m 15.4375,10.28906 c -1.15548,6.19874 -1.36162,7.35747 -1.42969,12.25 -2.59052,1.860968 -3.20052,4.220148 -2.85156,7.835938 0.29788,3.08404 2.17809,6.26315 5.40625,6.27344 2.60208,-0.14768 4.81108,-2.25075 4.95312,-5.46875 0.13117,-2.96361 -0.2702,-6.00767 -3.26562,-8.687498 -0.57986,-6.4513 -0.93176,-6.16747 -2.8125,-12.20313 z m -60.007805,1.78907 c -1.88072,6.03566 -2.23266,5.75177 -2.8125,12.203118 -2.9954,2.67983 -3.39682,5.71607 -3.26562,8.67969 0.142,3.218 2.35884,5.3289 4.96094,5.47656 3.22814,-0.0104 5.10836,-3.19721 5.40624,-6.28125 0.34896,-3.61579 -0.27668,-5.96717 -2.86719,-7.82812 -0.0676,-4.892528 -0.26636,-6.051248 -1.42187,-12.249998 z m 28.796865,15.960928 c -4.78239,0.0829 -7.865905,2.66721 -15.656245,8.96875 -10.75698,6.5817 -13.979,10.2198 -14.1328,19.86719 -0.1702,10.66572 13.62533,14.10285 24.734355,9.375 3.3864,-1.4411 10.69261,-1.56505 14.59375,0.14844 8.10623,2.62349 22.47418,0.93002 22.70313,-10.75 0.46067,-9.78744 -5.77363,-12.55687 -15.24219,-18.64063 -5.66149,-5.5053 -8.48097,-8.59361 -16.02344,-8.96094 -0.33587,-0.0164 -0.65771,-0.0136 -0.97656,-0.008 z" />
  <path
     d="m 108.56489,68.001022 c -1.88071,6.03567 -2.23359,5.74701 -2.81344,12.19836 -2.9954,2.67983 -3.39684,5.72796 -3.26565,8.69158 0.14204,3.21801 2.36169,5.3185 4.96374,5.46616 3.22814,-0.0104 5.10804,-3.18596 5.40591,-6.27 0.34896,-3.6158 -0.2732,-5.96648 -2.86371,-7.82745 -0.0676,-4.89253 -0.27136,-6.0599 -1.42685,-12.25865 z m -14.931445,6.08912 c -1.88071,6.03567 -2.23363,5.74705 -2.81348,12.19836 -2.99541,2.67983 -3.39679,5.72802 -3.2656,8.69164 0.14204,3.218 2.35161,5.318498 4.95371,5.466158 3.22814,-0.0104 5.10799,-3.185978 5.40586,-6.270018 0.34892,-3.61578 -0.26316,-5.97655 -2.85367,-7.83752 -0.0676,-4.89253 -0.27132,-6.04986 -1.42682,-12.24862 z m 29.038975,0 c -1.15549,6.19876 -1.35875,7.35609 -1.42681,12.24862 -2.59053,1.86097 -3.20263,4.22174 -2.85367,7.83752 0.29788,3.08404 2.17772,6.259718 5.40586,6.270018 2.6021,-0.14764 4.81166,-2.248158 4.9537,-5.466158 0.13117,-2.96362 -0.27023,-6.01181 -3.26564,-8.69164 -0.57986,-6.45131 -0.9327,-6.16269 -2.81344,-12.19836 z m 15.43387,10.28925 c -1.15549,6.19874 -1.35875,7.35608 -1.42683,12.24861 -2.59052,1.86097 -3.20262,4.221738 -2.85367,7.837528 0.29788,3.08404 2.17772,6.25972 5.40588,6.27 2.60209,-0.14768 4.81167,-2.24815 4.95371,-5.46615 0.13116,-2.96362 -0.2702,-6.011798 -3.26565,-8.691638 -0.57986,-6.4513 -0.9327,-6.16269 -2.81344,-12.19835 z m -60.007165,1.78857 c -1.88072,6.03567 -2.23364,5.74701 -2.81348,12.19836 -2.99542,2.679838 -3.3968,5.717938 -3.2656,8.681548 0.142,3.21801 2.36162,5.32854 4.96372,5.47619 3.22815,-0.0104 5.10799,-3.196 5.40587,-6.28004 0.34896,-3.6158 -0.2732,-5.96647 -2.86371,-7.827428 -0.0676,-4.89254 -0.27132,-6.04987 -1.4268,-12.24863 z m 28.797785,15.956358 c -4.7824,0.0829 -7.864585,2.67139 -15.654935,8.97294 -10.75699,6.5817 -13.98379,10.21767 -14.13761,19.86507 -0.1702,10.66572 13.62933,14.10269 24.738375,9.37483 3.38639,-1.4411 10.68867,-1.56272 14.58983,0.15076 8.10622,2.6235 22.47971,0.92861 22.70866,-10.75142 0.46067,-9.78745 -5.77438,-12.55545 -15.24295,-18.63922 -5.6615,-5.50531 -8.48419,-8.59558 -16.02668,-8.96291 -0.33587,-0.0164 -0.65582,-0.0156 -0.97467,-0.01 z"
     id="path3291-7"
     sodipodi:nodetypes="ccccccccccccccccccccccccccccccccccccccccccccc"
     style="fill:#ffffff;stroke-width:5.14464" />
  <path
     id="path16476-9"
     style="fill:#d7f2fd;stroke-width:7.5;stroke-linecap:round;stroke-linejoin:round"
     d="m 106.97526,48.008832 c -1.0813,0.0184 -2.16516,0.0709 -3.25,0.14844 -14.395045,1.03127 -27.936095,7.21655 -38.140615,17.42188 -23.4254,23.43039 -23.4254,61.413348 0,84.843748 22.3477,22.22898 58.085745,23.37566 81.812485,2.625 l 47.12501,47.125 a 4,4 0 0 0 5.65624,0 4,4 0 0 0 0,-5.65626 L 153.14713,147.4854 c 20.78415,-23.7652 19.59562,-59.571648 -2.71875,-81.906258 -11.53562,-11.53607 -27.23374,-17.8487 -43.45312,-17.57031 z m 1.03125,7.99219 c 13.79045,0.002 27.01535,5.48202 36.76562,15.23438 20.302,20.30634 20.302,53.224898 0,73.531238 -20.30635,20.30201 -53.224905,20.30201 -73.531245,0 -20.302,-20.30634 -20.302,-53.224898 0,-73.531238 9.75028,-9.75236 22.97518,-15.2323 36.765625,-15.23438 z" />
  <path
     id="rect899"
     style="fill:#000000;stroke:none;stroke-width:4;opacity:0.5"
     d="M 56,16 C 33.840066,16 16,33.840066 16,56 v 144 c 0,22.15994 17.840066,40 40,40 h 144 c 22.15994,0 40,-17.84006 40,-40 V 56 C 240,33.840066 222.15994,16 200,16 Z m 0,1 h 144 c 21.60598,0 39,17.394022 39,39 v 144 c 0,21.60598 -17.39402,39 -39,39 H 56 C 34.394022,239 17,221.60598 17,200 V 56 C 17,34.394022 34.394022,17 56,17 Z" />
  <path
     id="rect441"
     style="opacity:0.3;fill:#ffffff"
     d="m 17,199 v 1 c 0,21.60598 17.394022,39 39,39 h 144 c 21.60598,0 39,-17.39402 39,-39 v -1 c 0,21.60598 -17.39402,39 -39,39 H 56 C 34.394022,238 17,220.60598 17,199 Z" />
  <path
     id="rect443"
     style="opacity:0.3;fill:#ffffff"
     d="M 56,17 C 34.394022,17 17,34.394022 17,56 v 1 C 17,35.394022 34.394022,18 56,18 h 144 c 21.60598,0 39,17.394022 39,39 V 56 C 239,34.394022 221.60598,17 200,17 Z" />
</svg>
