<?xml version="1.0" encoding="UTF-8" standalone="no"?>
<!-- Created with Inkscape (http://www.inkscape.org/) -->

<svg
   width="256"
   height="256"
   viewBox="0 0 256 256.00001"
   version="1.1"
   id="svg5"
   sodipodi:docname="bulky.svg"
   inkscape:version="1.2.1 (9c6d41e410, 2022-07-14)"
   xmlns:inkscape="http://www.inkscape.org/namespaces/inkscape"
   xmlns:sodipodi="http://sodipodi.sourceforge.net/DTD/sodipodi-0.dtd"
   xmlns:xlink="http://www.w3.org/1999/xlink"
   xmlns="http://www.w3.org/2000/svg"
   xmlns:svg="http://www.w3.org/2000/svg">
  <sodipodi:namedview
     id="namedview7"
     pagecolor="#ffffff"
     bordercolor="#666666"
     borderopacity="1.0"
     inkscape:showpageshadow="2"
     inkscape:pageopacity="0.0"
     inkscape:pagecheckerboard="0"
     inkscape:deskcolor="#d1d1d1"
     inkscape:document-units="px"
     showgrid="false"
     inkscape:zoom="1.7633929"
     inkscape:cx="108.31392"
     inkscape:cy="163.60506"
     inkscape:window-width="1920"
     inkscape:window-height="1009"
     inkscape:window-x="0"
     inkscape:window-y="0"
     inkscape:window-maximized="1"
     inkscape:current-layer="svg5" />
  <defs
     id="defs2">
    <linearGradient
       inkscape:collect="always"
       xlink:href="#linearGradient3712"
       id="linearGradient3525"
       x1="32"
       y1="59.623318"
       x2="32"
       y2="4.3766818"
       gradientUnits="userSpaceOnUse"
       gradientTransform="matrix(4.0545454,0,0,4.0545454,-1.745455,-1.745455)" />
    <linearGradient
       inkscape:collect="always"
       id="linearGradient3712">
      <stop
         style="stop-color:#393e53;stop-opacity:1;"
         offset="0"
         id="stop3708" />
      <stop
         style="stop-color:#797d96;stop-opacity:1;"
         offset="1"
         id="stop3710" />
    </linearGradient>
  </defs>
  <rect
     style="fill:url(#linearGradient3525);fill-opacity:1.0;stroke:none;stroke-width:4.05454"
     id="rect184"
     width="223"
     height="223"
     x="16.5"
     y="16.5"
     ry="39.5" />
  <path
     d="m 128,65 v 8 h 24 v 111.99996 h -24 v 8 h 56 v -8 H 160 V 73 h 24 V 65 M 53.250045,96.999997 c -2.7964,0.012 -5.26224,2.61676 -5.25,5.249993 v 53.49997 c 2.4e-4,2.79228 2.75808,5.24968 5.75,5.25 H 144 v -8 H 56.000085 v -47.99997 h 87.999955 v -7.999993 m 24,0 v 7.999993 H 200 v 47.99997 h -32 v 8 h 34.25 c 2.99196,-3.2e-4 5.74972,-2.45772 5.75,-5.25 v -53.49997 c -2.8e-4,-2.792233 -2.75804,-5.249793 -5.75,-5.249993 z M 72.000045,120.99999 v 15.99997 h 55.999995 v -15.99997 z"
     style="display:inline;opacity:0.2;fill:#1a1a1a;fill-opacity:1;stroke:none;stroke-width:4;enable-background:new"
     id="path1365" />
  <path
     d="m 128,64 v 8 h 24 v 111.99996 h -24 v 8 h 56 v -8 H 160 V 72 h 24 V 64 M 53.250045,95.999997 c -2.7964,0.012 -5.26224,2.61676 -5.25,5.249993 v 53.49997 c 2.4e-4,2.79228 2.75808,5.24968 5.75,5.25 H 144 v -8 H 56.000085 v -47.99997 h 87.999955 v -7.999993 m 24,0 v 7.999993 H 200 v 47.99997 h -32 v 8 h 34.25 c 2.99196,-3.2e-4 5.74972,-2.45772 5.75,-5.25 v -53.49997 c -2.8e-4,-2.792233 -2.75804,-5.249793 -5.75,-5.249993 z M 72.000045,119.99999 v 15.99996 h 55.999995 v -15.99996 z"
     style="display:inline;fill:#ffffff;fill-opacity:1;stroke:none;stroke-width:4;enable-background:new"
     id="path1017"
     sodipodi:nodetypes="cccccccccccccccccccccccccccccccccccccc" />
  <path
     id="rect899"
     style="fill:#000000;stroke:none;stroke-width:4;opacity:0.5"
     d="M 56,16 C 33.840066,16 16,33.840066 16,56 v 144 c 0,22.15994 17.840066,40 40,40 h 144 c 22.15994,0 40,-17.84006 40,-40 V 56 C 240,33.840066 222.15994,16 200,16 Z m 0,1 h 144 c 21.60598,0 39,17.394022 39,39 v 144 c 0,21.60598 -17.39402,39 -39,39 H 56 C 34.394022,239 17,221.60598 17,200 V 56 C 17,34.394022 34.394022,17 56,17 Z" />
  <path
     id="rect441"
     style="opacity:0.3;fill:#ffffff"
     d="m 17,199 v 1 c 0,21.60598 17.394022,39 39,39 h 144 c 21.60598,0 39,-17.39402 39,-39 v -1 c 0,21.60598 -17.39402,39 -39,39 H 56 C 34.394022,238 17,220.60598 17,199 Z" />
  <path
     id="rect443"
     style="opacity:0.3;fill:#ffffff"
     d="M 56,17 C 34.394022,17 17,34.394022 17,56 v 1 C 17,35.394022 34.394022,18 56,18 h 144 c 21.60598,0 39,17.394022 39,39 V 56 C 239,34.394022 221.60598,17 200,17 Z" />
</svg>
