<?xml version="1.0" encoding="UTF-8" standalone="no"?>
<!-- Created with Inkscape (http://www.inkscape.org/) -->

<svg
   width="256"
   height="256"
   viewBox="0 0 256 256.00001"
   version="1.1"
   id="svg5"
   sodipodi:docname="com.github.maoschanz.drawing.svg"
   inkscape:version="1.2.1 (9c6d41e410, 2022-07-14)"
   xmlns:inkscape="http://www.inkscape.org/namespaces/inkscape"
   xmlns:sodipodi="http://sodipodi.sourceforge.net/DTD/sodipodi-0.dtd"
   xmlns:xlink="http://www.w3.org/1999/xlink"
   xmlns="http://www.w3.org/2000/svg"
   xmlns:svg="http://www.w3.org/2000/svg">
  <sodipodi:namedview
     id="namedview7"
     pagecolor="#ffffff"
     bordercolor="#666666"
     borderopacity="1.0"
     inkscape:showpageshadow="2"
     inkscape:pageopacity="0.0"
     inkscape:pagecheckerboard="0"
     inkscape:deskcolor="#d1d1d1"
     inkscape:document-units="px"
     showgrid="false"
     inkscape:zoom="2.298097"
     inkscape:cx="85.505529"
     inkscape:cy="87.463671"
     inkscape:window-width="1920"
     inkscape:window-height="1002"
     inkscape:window-x="0"
     inkscape:window-y="0"
     inkscape:window-maximized="1"
     inkscape:current-layer="svg5" />
  <defs
     id="defs2">
    <linearGradient
       inkscape:collect="always"
       xlink:href="#linearGradient2538"
       id="linearGradient3525"
       x1="49.757847"
       y1="59.623318"
       x2="14.242153"
       y2="4.3766818"
       gradientUnits="userSpaceOnUse"
       gradientTransform="matrix(4.0545454,0,0,4.0545454,-1.745455,-1.745455)" />
    <linearGradient
       inkscape:collect="always"
       id="linearGradient2538">
      <stop
         style="stop-color:#e02727;stop-opacity:1;"
         offset="0"
         id="stop2534" />
      <stop
         style="stop-color:#eb8075;stop-opacity:1;"
         offset="1"
         id="stop2536" />
    </linearGradient>
  </defs>
  <rect
     style="fill:url(#linearGradient3525);fill-opacity:1.0;stroke:none;stroke-width:4.05454"
     id="rect184"
     width="223"
     height="223"
     x="16.5"
     y="16.5"
     ry="39.5" />
  <path
     d="M 190.7313,64.496 176.7705,78.4568 200.03916,101.72552 214,87.76472 Z m -18.61372,18.6158 -60.49825,60.49616 23.26868,23.26868 60.49827,-60.49824 z M 45.427264,129.96904 c -3.8258,-0.1584 -4.79268,5.24 -1.14968,6.41916 4.824,1.6372 5.750878,3.244 6.197598,5.31344 0.44676,2.0694 -0.1684,5.19132 -0.71696,8.67664 -0.548678,3.48532 -0.976398,7.82376 1.87916,11.42324 2.8556,3.59948 7.96564,5.38464 16.391798,5.9238 3.96372,0.2536 6.62892,1.69448 8.77908,3.821 2.150118,2.12644 3.708318,5.04036 4.757398,8.04956 2.09816,6.0184 2.10072,12.06284 2.10072,12.06284 -0.0652,2.42368 2.4238,4.0834 4.63616,3.09148 l 0.048,0.048 25.595152,-11.63436 2.32856,2.32648 13.9608,-13.9608 -23.26872,-23.26668 -13.960794,13.96084 2.32644,2.32644 -6.864398,15.1042 c -0.2088,-0.73556 -0.42636,-1.47648 -0.68768,-2.22612 -1.27204,-3.64876 -3.21616,-7.46876 -6.34392,-10.56208 -3.12776,-3.09328 -7.518278,-5.35856 -12.986718,-5.70844 -7.623358,-0.48776 -10.648158,-2.17732 -11.655278,-3.44684 -1.00712,-1.26948 -1.02564,-3.19444 -0.53512,-6.31048 0.49056,-3.116 1.54696,-6.93416 0.65008,-11.0888 -0.89688,-4.15464 -4.32872,-8.05456 -10.516078,-10.15444 -0.3108,-0.1108 -0.6362,-0.174 -0.96568,-0.188 z"
     style="color:#000000;font-style:normal;font-variant:normal;font-weight:normal;font-stretch:normal;font-size:medium;line-height:normal;font-family:sans-serif;font-variant-ligatures:normal;font-variant-position:normal;font-variant-caps:normal;font-variant-numeric:normal;font-variant-alternates:normal;font-feature-settings:normal;text-indent:0;text-align:start;text-decoration:none;text-decoration-line:none;text-decoration-style:solid;text-decoration-color:#000000;letter-spacing:normal;word-spacing:normal;text-transform:none;writing-mode:lr-tb;direction:ltr;text-orientation:mixed;dominant-baseline:auto;baseline-shift:baseline;text-anchor:start;white-space:normal;shape-padding:0;clip-rule:nonzero;display:inline;overflow:visible;visibility:visible;opacity:0.2;isolation:auto;mix-blend-mode:normal;color-interpolation:sRGB;color-interpolation-filters:linearRGB;solid-color:#000000;solid-opacity:1;vector-effect:none;fill:#000000;fill-opacity:1;fill-rule:nonzero;stroke:none;stroke-width:6.58124;stroke-linecap:round;stroke-linejoin:miter;stroke-miterlimit:4;stroke-dasharray:none;stroke-dashoffset:0;stroke-opacity:1;color-rendering:auto;image-rendering:auto;shape-rendering:auto;text-rendering:auto;enable-background:accumulate"
     id="path3606" />
  <path
     d="M 190.7313,63.496 176.7705,77.45678 200.03916,100.7255 214,86.7647 Z m -18.61372,18.61578 -60.49825,60.49616 23.26868,23.26868 60.49827,-60.49824 z M 45.427264,128.96902 c -3.8258,-0.1584 -4.79268,5.24 -1.14968,6.41916 4.824,1.6372 5.750878,3.244 6.197598,5.31344 0.44676,2.0694 -0.1684,5.19132 -0.71696,8.67664 -0.548678,3.48532 -0.976398,7.82376 1.87916,11.42324 2.8556,3.59948 7.96564,5.38464 16.391798,5.9238 3.96372,0.2536 6.62892,1.69448 8.77908,3.821 2.150118,2.12644 3.708318,5.04036 4.757398,8.04956 2.09816,6.0184 2.10072,12.06284 2.10072,12.06284 -0.0652,2.42368 2.4238,4.0834 4.63616,3.09148 l 0.048,0.048 25.595152,-11.63436 2.32856,2.32648 13.9608,-13.9608 -23.26872,-23.26668 -13.960794,13.96084 2.32644,2.32644 -6.864398,15.1042 c -0.2088,-0.73556 -0.42636,-1.47648 -0.68768,-2.22612 -1.27204,-3.64876 -3.21616,-7.46876 -6.34392,-10.56208 -3.12776,-3.09328 -7.518278,-5.35856 -12.986718,-5.70844 -7.623358,-0.48776 -10.648158,-2.17732 -11.655278,-3.44684 -1.00712,-1.26948 -1.02564,-3.19444 -0.53512,-6.31048 0.49056,-3.116 1.54696,-6.93416 0.65008,-11.0888 -0.89688,-4.15464 -4.32872,-8.05456 -10.516078,-10.15444 -0.3108,-0.1108 -0.6362,-0.174 -0.96568,-0.188 z"
     style="color:#000000;font-style:normal;font-variant:normal;font-weight:normal;font-stretch:normal;font-size:medium;line-height:normal;font-family:sans-serif;font-variant-ligatures:normal;font-variant-position:normal;font-variant-caps:normal;font-variant-numeric:normal;font-variant-alternates:normal;font-feature-settings:normal;text-indent:0;text-align:start;text-decoration:none;text-decoration-line:none;text-decoration-style:solid;text-decoration-color:#000000;letter-spacing:normal;word-spacing:normal;text-transform:none;writing-mode:lr-tb;direction:ltr;text-orientation:mixed;dominant-baseline:auto;baseline-shift:baseline;text-anchor:start;white-space:normal;shape-padding:0;clip-rule:nonzero;display:inline;overflow:visible;visibility:visible;isolation:auto;mix-blend-mode:normal;color-interpolation:sRGB;color-interpolation-filters:linearRGB;solid-color:#000000;solid-opacity:1;vector-effect:none;fill:#ffffff;fill-opacity:1;fill-rule:nonzero;stroke:none;stroke-width:6.58124;stroke-linecap:round;stroke-linejoin:miter;stroke-miterlimit:4;stroke-dasharray:none;stroke-dashoffset:0;stroke-opacity:1;color-rendering:auto;image-rendering:auto;shape-rendering:auto;text-rendering:auto;enable-background:accumulate"
     id="path435"
     sodipodi:nodetypes="ccccccccccccccsssscccccccccccssscsccc" />
  <path
     id="rect899"
     style="fill:#000000;stroke:none;stroke-width:4;opacity:0.5"
     d="M 56,16 C 33.840066,16 16,33.840066 16,56 v 144 c 0,22.15994 17.840066,40 40,40 h 144 c 22.15994,0 40,-17.84006 40,-40 V 56 C 240,33.840066 222.15994,16 200,16 Z m 0,1 h 144 c 21.60598,0 39,17.394022 39,39 v 144 c 0,21.60598 -17.39402,39 -39,39 H 56 C 34.394022,239 17,221.60598 17,200 V 56 C 17,34.394022 34.394022,17 56,17 Z" />
  <path
     id="rect441"
     style="opacity:0.3;fill:#ffffff"
     d="m 17,199 v 1 c 0,21.60598 17.394022,39 39,39 h 144 c 21.60598,0 39,-17.39402 39,-39 v -1 c 0,21.60598 -17.39402,39 -39,39 H 56 C 34.394022,238 17,220.60598 17,199 Z" />
  <path
     id="rect443"
     style="opacity:0.3;fill:#ffffff"
     d="M 56,17 C 34.394022,17 17,34.394022 17,56 v 1 C 17,35.394022 34.394022,18 56,18 h 144 c 21.60598,0 39,17.394022 39,39 V 56 C 239,34.394022 221.60598,17 200,17 Z" />
</svg>
