<?xml version="1.0" encoding="UTF-8" standalone="no"?>
<!-- Created with Inkscape (http://www.inkscape.org/) -->

<svg
   width="256"
   height="256"
   viewBox="0 0 256 256.00001"
   version="1.1"
   id="svg5"
   sodipodi:docname="cups.svg"
   inkscape:version="1.2.1 (9c6d41e410, 2022-07-14)"
   xmlns:inkscape="http://www.inkscape.org/namespaces/inkscape"
   xmlns:sodipodi="http://sodipodi.sourceforge.net/DTD/sodipodi-0.dtd"
   xmlns:xlink="http://www.w3.org/1999/xlink"
   xmlns="http://www.w3.org/2000/svg"
   xmlns:svg="http://www.w3.org/2000/svg">
  <sodipodi:namedview
     id="namedview7"
     pagecolor="#ffffff"
     bordercolor="#666666"
     borderopacity="1.0"
     inkscape:showpageshadow="2"
     inkscape:pageopacity="0.0"
     inkscape:pagecheckerboard="0"
     inkscape:deskcolor="#d1d1d1"
     inkscape:document-units="px"
     showgrid="false"
     inkscape:zoom="3.125"
     inkscape:cx="128.48"
     inkscape:cy="128.16"
     inkscape:window-width="1920"
     inkscape:window-height="1007"
     inkscape:window-x="0"
     inkscape:window-y="0"
     inkscape:window-maximized="1"
     inkscape:current-layer="svg5" />
  <defs
     id="defs2">
    <linearGradient
       inkscape:collect="always"
       xlink:href="#linearGradient6078"
       id="linearGradient33585"
       x1="128"
       y1="240"
       x2="128"
       y2="16"
       gradientUnits="userSpaceOnUse" />
    <linearGradient
       inkscape:collect="always"
       id="linearGradient6078">
      <stop
         style="stop-color:#999999;stop-opacity:1"
         offset="0"
         id="stop6074" />
      <stop
         style="stop-color:#d2d2d2;stop-opacity:1;"
         offset="1"
         id="stop6076" />
    </linearGradient>
  </defs>
  <rect
     style="fill:url(#linearGradient33585);fill-opacity:1.0;stroke:none;stroke-width:4"
     id="rect184"
     width="223"
     height="223"
     x="16.5"
     y="16.5"
     ry="39.5" />
  <path
     d="m 60,92.999996 c -4.432,0 -8,3.568012 -8,8.000004 v 40 c 0,4.432 3.568,8 8,8 h 8 v -8 h 120 v 8 h 8 c 4.432,0 8,-3.568 8,-8 v -40 c 0,-4.431992 -3.568,-8.000004 -8,-8.000004 z M 68,113 h 8 v 8 H 68 Z M 76,53 V 84.999996 H 180 V 53 Z m 0,96 v 56 h 104 v -56 z"
     style="opacity:0.2;fill:#ffffff;fill-opacity:1;stroke-width:4;stroke-linecap:round;stroke-linejoin:round"
     id="path26946" />
  <path
     id="rect5611"
     style="fill:#ffffff;stroke-width:8;stroke-linecap:round;stroke-linejoin:round"
     d="M 76,52 V 83.999996 H 180 V 52 Z m 0,96 v 56 h 104 v -56 z"
     sodipodi:nodetypes="cccccccccc" />
  <rect
     style="fill:#f9f9f9;fill-opacity:1;stroke-width:4;stroke-linecap:round;stroke-linejoin:round"
     id="rect16571"
     width="8"
     height="8"
     x="68.000008"
     y="112" />
  <path
     id="rect16511"
     style="fill:#4d4d4d;fill-opacity:1;stroke-width:4;stroke-linecap:round;stroke-linejoin:round"
     d="m 60,91.999996 c -4.432,0 -8,3.568012 -8,8 V 140 c 0,4.43198 3.568,8 8,8 h 8 v -8 h 120 v 8 h 8 c 4.432,0 8,-3.56802 8,-8 V 99.999996 c 0,-4.431988 -3.568,-8 -8,-8 z M 68,112 h 8 v 8 h -8 z"
     sodipodi:nodetypes="sssccccccssssccccc" />
  <path
     id="rect899"
     style="fill:#000000;stroke:none;stroke-width:4;opacity:0.5"
     d="M 56,16 C 33.840066,16 16,33.840066 16,56 v 144 c 0,22.15994 17.840066,40 40,40 h 144 c 22.15994,0 40,-17.84006 40,-40 V 56 C 240,33.840066 222.15994,16 200,16 Z m 0,1 h 144 c 21.60598,0 39,17.394022 39,39 v 144 c 0,21.60598 -17.39402,39 -39,39 H 56 C 34.394022,239 17,221.60598 17,200 V 56 C 17,34.394022 34.394022,17 56,17 Z" />
  <path
     id="rect441"
     style="opacity:0.3;fill:#ffffff"
     d="m 17,199 v 1 c 0,21.60598 17.394022,39 39,39 h 144 c 21.60598,0 39,-17.39402 39,-39 v -1 c 0,21.60598 -17.39402,39 -39,39 H 56 C 34.394022,238 17,220.60598 17,199 Z" />
  <path
     id="rect443"
     style="opacity:0.3;fill:#ffffff"
     d="M 56,17 C 34.394022,17 17,34.394022 17,56 v 1 C 17,35.394022 34.394022,18 56,18 h 144 c 21.60598,0 39,17.394022 39,39 V 56 C 239,34.394022 221.60598,17 200,17 Z" />
</svg>
