<?xml version="1.0" encoding="UTF-8" standalone="no"?>
<!-- Created with Inkscape (http://www.inkscape.org/) -->

<svg
   width="256"
   height="256"
   viewBox="0 0 256 256.00001"
   version="1.1"
   id="svg5"
   sodipodi:docname="cuttlefish.svg"
   inkscape:version="1.2 (1:1.2.1+202207142221+cd75a1ee6d)"
   xmlns:inkscape="http://www.inkscape.org/namespaces/inkscape"
   xmlns:sodipodi="http://sodipodi.sourceforge.net/DTD/sodipodi-0.dtd"
   xmlns:xlink="http://www.w3.org/1999/xlink"
   xmlns="http://www.w3.org/2000/svg"
   xmlns:svg="http://www.w3.org/2000/svg">
  <sodipodi:namedview
     id="namedview7"
     pagecolor="#ffffff"
     bordercolor="#666666"
     borderopacity="1.0"
     inkscape:showpageshadow="2"
     inkscape:pageopacity="0.0"
     inkscape:pagecheckerboard="0"
     inkscape:deskcolor="#d1d1d1"
     inkscape:document-units="px"
     showgrid="false"
     inkscape:zoom="2"
     inkscape:cx="-40"
     inkscape:cy="150"
     inkscape:window-width="1846"
     inkscape:window-height="1053"
     inkscape:window-x="0"
     inkscape:window-y="0"
     inkscape:window-maximized="1"
     inkscape:current-layer="svg5"
     showguides="false" />
  <defs
     id="defs2">
    <linearGradient
       inkscape:collect="always"
       xlink:href="#linearGradient22024"
       id="linearGradient3525"
       x1="49.757847"
       y1="59.623318"
       x2="14.242153"
       y2="4.3766818"
       gradientUnits="userSpaceOnUse"
       gradientTransform="matrix(4.0545454,0,0,4.0545454,-1.745455,-1.745455)" />
    <linearGradient
       inkscape:collect="always"
       id="linearGradient22024">
      <stop
         style="stop-color:#dedede;stop-opacity:1;"
         offset="0"
         id="stop22020" />
      <stop
         style="stop-color:#f2f2f2;stop-opacity:1;"
         offset="1"
         id="stop22022" />
    </linearGradient>
    <linearGradient
       inkscape:collect="always"
       xlink:href="#linearGradient986"
       id="linearGradient2369"
       x1="24"
       y1="45"
       x2="24"
       y2="3"
       gradientUnits="userSpaceOnUse"
       gradientTransform="matrix(5.3333337,0,0,5.3333337,8.5661713e-5,-6.6200001e-7)" />
    <linearGradient
       inkscape:collect="always"
       id="linearGradient986">
      <stop
         style="stop-color:#ffa12a;stop-opacity:1;"
         offset="0"
         id="stop982" />
      <stop
         style="stop-color:#ffdc75;stop-opacity:1;"
         offset="1"
         id="stop984" />
    </linearGradient>
  </defs>
  <rect
     style="fill:url(#linearGradient3525);fill-opacity:1;stroke:none;stroke-width:4.05454"
     id="rect184"
     width="223"
     height="223"
     x="16.5"
     y="16.5"
     ry="39.5" />
  <path
     d="m 127.65608,49 c -30.648,0 -67.076003,25.105335 -74.616,53.33333 -3.551203,21.244 2.298799,36.63068 13.0224,46.92268 0.287197,3.00799 0.861142,6.01203 0.6096,9.01601 -0.008,0.0879 -0.02162,0.18008 -0.0312,0.26796 -0.05677,0.56404 -0.142795,1.12804 -0.2736,1.69603 -0.05519,0.22801 -0.142394,0.464 -0.210718,0.69201 -0.125992,0.432 -0.2496,0.85999 -0.429918,1.29199 -0.150826,0.35599 -0.369279,0.71201 -0.562403,1.068 -0.179212,0.336 -0.327197,0.66801 -0.546718,0.99999 -0.450718,0.68401 -0.977259,1.36402 -1.617199,2.048 -2.500003,2.66798 -4.687598,4.33198 -6.562403,5.41601 -5.625526,3.248 -8.437924,1.248 -8.437924,5.248 0,4.33203 9.899602,12.18401 18.976402,9.25601 1.3968,-0.448 2.775598,-1.148 4.093998,-2.16401 0.6592,-0.50397 1.3056,-1.08803 1.9296,-1.75599 1.144,-1.22401 2.139999,-2.36398 3.024,-3.43598 0.872,-1.05203 1.611999,-2.02002 2.28,-2.94003 0.15201,1.34003 0.064,3.03603 -0.584,5.62401 -2.587999,10.304 -16.274002,9.44 -9.72,16.752 5.08,5.66802 20.260001,5.88399 28.656,-1.47601 -3.347999,7.58801 -8.435999,12.13998 1.344,12.13998 C 113,208.99999 128,198.33602 128,182.33602 c 0,16 15,26.66397 30,26.66397 9.78002,0 4.69202,-4.55197 1.344,-12.13998 8.39598,7.36 23.57601,7.14403 28.656,1.47601 6.55598,-7.312 -7.13198,-6.448 -9.71999,-16.752 -0.65203,-2.592 -0.73999,-4.288 -0.58401,-5.632 1.35201,1.86799 3.04402,3.97202 5.30401,6.384 10,10.66799 24.99999,-0.004 24.99999,-5.33601 0,-5.33197 -4.99999,0.004 -14.99999,-10.66399 -5.58003,-5.952 -3.44801,-11.90801 -3.01601,-17.86001 11.57202,-10.464 17.06401,-25.73868 12.288,-46.14268 C 191.62401,72.076937 158.30402,49 127.65602,49 Z"
     style="opacity:0.2;fill:#000000;stroke-width:4"
     id="path615" />
  <path
     d="m 127.65608,48 c -30.648,0 -67.076003,25.105343 -74.615994,53.33335 -3.551203,21.244 2.298799,36.63066 13.022394,46.92266 0.287197,3.008 0.861162,6.012 0.6096,9.016 -0.008,0.0879 -0.02162,0.18008 -0.0312,0.26801 -0.05677,0.56399 -0.142795,1.12796 -0.2736,1.69602 -0.05519,0.22795 -0.142394,0.464 -0.210718,0.69197 -0.125992,0.43198 -0.2496,0.86003 -0.429918,1.29203 -0.150826,0.35597 -0.369279,0.71194 -0.562403,1.06796 -0.179212,0.33602 -0.327197,0.66798 -0.546718,1.00001 -0.450718,0.68403 -0.977239,1.36397 -1.617199,2.048 -2.500003,2.66801 -4.687592,4.33201 -6.562397,5.41599 C 50.812411,174 48.000012,172 48.000012,176 c 0,4.33198 9.899602,12.18401 18.976416,9.25601 1.39678,-0.448 2.775598,-1.14803 4.093998,-2.16397 0.6592,-0.50403 1.30558,-1.08802 1.92958,-1.75603 1.14402,-1.22399 2.139999,-2.364 3.02402,-3.436 0.87198,-1.05199 1.611979,-2.02 2.27998,-2.93999 0.15199,1.33999 0.064,3.03599 -0.584,5.62397 -2.587983,10.30402 -16.274001,9.44002 -9.72,16.752 5.08,5.66802 20.259999,5.88405 28.656,-1.47595 -3.348003,7.58795 -8.436003,12.14 1.344,12.14 15.000004,0 30.000004,-10.66405 30.000004,-26.66405 0,16 15,26.66405 29.99999,26.66405 9.78002,0 4.69202,-4.55203 1.344,-12.14 8.39598,7.36002 23.57599,7.14399 28.656,1.47595 6.55598,-7.312 -7.13198,-6.448 -9.71999,-16.752 -0.65203,-2.592 -0.73999,-4.288 -0.58401,-5.63198 1.35201,1.86803 3.04402,3.972 5.30401,6.384 10,10.66803 24.99999,-0.004 24.99999,-5.33599 0,-5.33201 -5.00001,0.004 -14.99999,-10.66403 -5.58003,-5.952 -3.44801,-11.90795 -3.01601,-17.85998 11.57202,-10.464 17.06401,-25.73866 12.288,-46.14266 C 191.62401,71.076945 158.304,48 127.656,48 Z"
     style="fill:url(#linearGradient2369);fill-opacity:1;stroke-width:4"
     id="path312"
     sodipodi:nodetypes="scccccccccccsccccccccscscccccscccs" />
  <ellipse
     style="fill:#ffffff;stroke-width:8;stroke-linecap:round;stroke-linejoin:round"
     id="path697"
     cx="92.000237"
     cy="103.99999"
     rx="11.999999"
     ry="15.999999" />
  <ellipse
     style="fill:#ffffff;stroke-width:11.3137;stroke-linecap:round;stroke-linejoin:round"
     id="path1307"
     cx="164.00024"
     cy="103.99999"
     rx="11.999999"
     ry="15.999999" />
  <ellipse
     style="fill:#333333;stroke-width:5.65681;stroke-linecap:round;stroke-linejoin:round"
     id="path1309"
     cx="98.000244"
     cy="103.99999"
     rx="5.9999995"
     ry="7.9999995" />
  <ellipse
     style="fill:#333333;stroke-width:9.79794;stroke-linecap:round;stroke-linejoin:round"
     id="path1363"
     cx="170.00003"
     cy="103.99999"
     rx="5.9999995"
     ry="7.9999995" />
  <path
     id="rect899"
     style="fill:#000000;stroke:none;stroke-width:4;opacity:0.5"
     d="M 56,16 C 33.840066,16 16,33.840066 16,56 v 144 c 0,22.15994 17.840066,40 40,40 h 144 c 22.15994,0 40,-17.84006 40,-40 V 56 C 240,33.840066 222.15994,16 200,16 Z m 0,1 h 144 c 21.60598,0 39,17.394022 39,39 v 144 c 0,21.60598 -17.39402,39 -39,39 H 56 C 34.394022,239 17,221.60598 17,200 V 56 C 17,34.394022 34.394022,17 56,17 Z" />
  <path
     id="rect441"
     style="opacity:0.3;fill:#ffffff"
     d="m 17,199 v 1 c 0,21.60598 17.394022,39 39,39 h 144 c 21.60598,0 39,-17.39402 39,-39 v -1 c 0,21.60598 -17.39402,39 -39,39 H 56 C 34.394022,238 17,220.60598 17,199 Z" />
  <path
     id="rect443"
     style="opacity:0.3;fill:#ffffff"
     d="M 56,17 C 34.394022,17 17,34.394022 17,56 v 1 C 17,35.394022 34.394022,18 56,18 h 144 c 21.60598,0 39,17.394022 39,39 V 56 C 239,34.394022 221.60598,17 200,17 Z" />
</svg>
