<?xml version="1.0" encoding="UTF-8" standalone="no"?>
<!-- Created with Inkscape (http://www.inkscape.org/) -->

<svg
   width="256"
   height="256"
   viewBox="0 0 256 256.00001"
   version="1.1"
   id="svg5"
   sodipodi:docname="desktop-environment-xfce.svg"
   inkscape:version="1.3.2 (091e20ef0f, 2023-11-25, custom)"
   xmlns:inkscape="http://www.inkscape.org/namespaces/inkscape"
   xmlns:sodipodi="http://sodipodi.sourceforge.net/DTD/sodipodi-0.dtd"
   xmlns:xlink="http://www.w3.org/1999/xlink"
   xmlns="http://www.w3.org/2000/svg"
   xmlns:svg="http://www.w3.org/2000/svg">
  <sodipodi:namedview
     id="namedview7"
     pagecolor="#ffffff"
     bordercolor="#666666"
     borderopacity="1.0"
     inkscape:showpageshadow="2"
     inkscape:pageopacity="0.0"
     inkscape:pagecheckerboard="0"
     inkscape:deskcolor="#d1d1d1"
     inkscape:document-units="px"
     showgrid="false"
     inkscape:zoom="3.15625"
     inkscape:cx="128"
     inkscape:cy="128"
     inkscape:window-width="1920"
     inkscape:window-height="1011"
     inkscape:window-x="0"
     inkscape:window-y="0"
     inkscape:window-maximized="1"
     inkscape:current-layer="svg5" />
  <defs
     id="defs2">
    <linearGradient
       inkscape:collect="always"
       xlink:href="#linearGradient3"
       id="linearGradient3525"
       x1="49.757851"
       y1="59.623322"
       x2="14.242154"
       y2="4.3766828"
       gradientUnits="userSpaceOnUse"
       gradientTransform="matrix(4.0545454,0,0,4.0545454,-1.7454618,-1.7454586)" />
    <linearGradient
       inkscape:collect="always"
       id="linearGradient3">
      <stop
         style="stop-color:#3c7cbd;stop-opacity:1;"
         offset="0"
         id="stop2" />
      <stop
         style="stop-color:#79a8d7;stop-opacity:1;"
         offset="1"
         id="stop3" />
    </linearGradient>
  </defs>
  <rect
     style="fill:url(#linearGradient3525);fill-opacity:1;stroke:none;stroke-width:4.05454"
     id="rect184"
     width="223"
     height="223"
     x="16.5"
     y="16.5"
     ry="39.5" />
  <path
     id="path2"
     style="opacity:0.2;fill:#000000;stroke-width:16"
     d="m 128,49 a 80,80 0 0 0 -80,80 80,80 0 0 0 80,80 80,80 0 0 0 80,-80 80,80 0 0 0 -80,-80 z m -13.5,28.5 c 0.6256,-0.032 1.28,-0.0176 2,0.0944 1.2016,0.672 7.11338,-0.1504 8.65626,16.562496 0.4096,2.81296 0.99152,9.245444 1.15632,12.093764 0.3216,2.46414 27.1004,1.46112 50.84374,17 2.7691,1.66624 14.05372,12.61056 2.59374,22.09374 -4.70256,4.73616 -42.76912,24.432 -45,26 C 134.1228,189.29044 155.23468,192.87104 128,193 92.651072,193 64,164.34908 64,129 c 2.28432,-1.68896 9.3848,-0.25824 13,-0.90624 5.195352,-1.2224 7.271608,-10.16638 7.656248,-17.09374 -0.0112,-3.08528 -2.22328,-12.640564 -2.25,-14.750004 -0.16,-7.34256 6.864232,-10.564416 8.843752,-10.156256 2.0664,0.528 6.337536,1.4112 13.75,19.56251 1.2432,2.31072 1.12208,1.34864 4.65626,1.68749 C 105.9713,95.157536 105.11042,78.042576 114.5,77.500016 Z m 56.65626,16.312496 c 0.0224,-0.016 0.0592,-7.52e-4 0.0944,0.0304 0.928,0.8976 0.1724,17.843634 -2.84374,21.062494 -0.1712,0.1824 -1.05456,-16.573918 2.68748,-20.999998 0.04,-0.048 0.04,-0.0784 0.0624,-0.0944 z m 12.25,3.281248 c 0.2768,0.4784 0.57968,0.91984 0.84368,1.40624 -1.80896,5.811836 -9.91486,19.224256 -10.09374,18.156256 -0.5296,-4.85584 6.42872,-16.24442 9.25,-19.562496 z M 132,118.65626 c -2.5504,0 -4.6875,2.17366 -4.6875,4.84374 0,2.6696 2.19896,5 4.75,5 2.55104,0 4.5,-2.3304 4.5,-5 0,-2.67008 -2.0113,-4.84374 -4.5625,-4.84374 z M 121.65626,123.25 c -1.1328,-0.064 -1.10256,8.79712 3,11.09374 4.24094,1.9968 10.4592,-1.32064 9.40624,-1.43744 -9.15535,-1.016 -10.75722,-5.29984 -12.15624,-9.5 -0.08,-0.096 -0.17488,-0.152 -0.25008,-0.1568 z m 25.43748,20.96876 c -0.1686,0.006 -0.352,0.0272 -0.5312,0.032 -5.39038,0.1824 -17.77281,7.78126 -16.81249,8.59374 1.44799,1.2256 20.02897,-8.1083 17.81249,-8.59374 -0.1456,-0.032 -0.30016,-0.0384 -0.4688,-0.032 z m 2.75,6.09374 c -0.1424,-0.006 -0.29504,-7.6e-4 -0.43744,0.0304 -4.27662,0.9648 -12.55422,10.68736 -11.59374,11.5 1.448,1.2256 14.38838,-11.35008 12.4375,-11.5 -0.1232,-0.006 -0.26432,-0.024 -0.40624,-0.0304 z" />
  <path
     id="path2-6"
     style="fill:#ffffff;stroke-width:16"
     d="m 128,48 a 80,80 0 0 0 -80,80 80,80 0 0 0 80,80 80,80 0 0 0 80,-80 80,80 0 0 0 -80,-80 z m -13.5,28.5 c 0.6256,-0.032 1.28,-0.0184 2,0.09376 1.2016,0.672 7.11338,-0.15008 8.65626,16.562496 0.4096,2.81296 0.99152,9.245444 1.15632,12.093764 0.3216,2.46414 27.1004,1.46112 50.84374,17 2.7691,1.66624 14.05372,12.61056 2.59374,22.09374 -4.70256,4.73616 -42.76912,24.432 -45,26 C 134.1228,188.29044 155.23468,191.87104 128,192 92.651072,192 64,163.34908 64,128 c 2.28432,-1.68896 9.3848,-0.25824 13,-0.90626 5.195352,-1.22238 7.271608,-10.16638 7.656248,-17.09374 -0.0112,-3.08528 -2.22328,-12.64056 -2.25,-14.75 -0.16,-7.34256 6.864232,-10.564416 8.843752,-10.156256 2.0664,0.528 6.337536,1.4112 13.75,19.562516 1.2432,2.31072 1.12208,1.34864 4.65626,1.68748 C 105.9713,94.15752 105.11042,77.04256 114.5,76.5 Z m 56.65626,16.312496 c 0.0224,-0.016 0.0592,-7.52e-4 0.0944,0.0304 0.928,0.8976 0.1724,17.843634 -2.84374,21.062494 -0.1712,0.1824 -1.05456,-16.573918 2.68748,-20.999998 0.04,-0.048 0.04,-0.0784 0.0624,-0.0944 z m 12.25,3.281248 c 0.2768,0.4784 0.57968,0.91984 0.84368,1.40624 -1.80896,5.811836 -9.91486,19.224256 -10.09374,18.156256 -0.5296,-4.85584 6.42872,-16.244416 9.25,-19.562496 z M 132,117.65626 c -2.5504,0 -4.6875,2.17366 -4.6875,4.84374 0,2.6696 2.19896,5 4.75,5 2.55104,0 4.5,-2.3304 4.5,-5 0,-2.67008 -2.0113,-4.84374 -4.5625,-4.84374 z M 121.65626,122.25 c -1.1328,-0.064 -1.10256,8.79712 3,11.09374 4.24094,1.9968 10.4592,-1.32064 9.40624,-1.43744 -9.15535,-1.016 -10.75722,-5.29984 -12.15624,-9.5 -0.08,-0.096 -0.17488,-0.152 -0.25008,-0.1568 z m 25.43748,20.96876 c -0.1686,0.006 -0.352,0.0272 -0.5312,0.032 -5.39038,0.1824 -17.77281,7.78126 -16.81249,8.59374 1.44799,1.2256 20.02897,-8.1083 17.81249,-8.59374 -0.1456,-0.032 -0.30016,-0.0384 -0.4688,-0.032 z m 2.75,6.09374 c -0.1424,-0.006 -0.29504,-7.6e-4 -0.43744,0.0304 -4.27662,0.9648 -12.55422,10.68736 -11.59374,11.5 1.448,1.2256 14.38838,-11.35008 12.4375,-11.5 -0.1232,-0.006 -0.26432,-0.024 -0.40624,-0.0304 z" />
  <path
     id="rect899"
     style="fill:#000000;stroke:none;stroke-width:4;opacity:0.5"
     d="M 56,16 C 33.840066,16 16,33.840066 16,56 v 144 c 0,22.15994 17.840066,40 40,40 h 144 c 22.15994,0 40,-17.84006 40,-40 V 56 C 240,33.840066 222.15994,16 200,16 Z m 0,1 h 144 c 21.60598,0 39,17.394022 39,39 v 144 c 0,21.60598 -17.39402,39 -39,39 H 56 C 34.394022,239 17,221.60598 17,200 V 56 C 17,34.394022 34.394022,17 56,17 Z" />
  <path
     id="rect441"
     style="opacity:0.2;fill:#ffffff"
     d="m 17,199 v 1 c 0,21.60598 17.394022,39 39,39 h 144 c 21.60598,0 39,-17.39402 39,-39 v -1 c 0,21.60598 -17.39402,39 -39,39 H 56 C 34.394022,238 17,220.60598 17,199 Z" />
  <path
     id="rect443"
     style="opacity:0.2;fill:#ffffff"
     d="M 56,17 C 34.394022,17 17,34.394022 17,56 v 1 C 17,35.394022 34.394022,18 56,18 h 144 c 21.60598,0 39,17.394022 39,39 V 56 C 239,34.394022 221.60598,17 200,17 Z" />
</svg>
