<?xml version="1.0" encoding="UTF-8" standalone="no"?>
<!-- Created with Inkscape (http://www.inkscape.org/) -->

<svg
   width="256"
   height="256"
   viewBox="0 0 256 256.00001"
   version="1.1"
   id="svg5"
   sodipodi:docname="desktop-environment-kde.svg"
   inkscape:version="1.2 (dc2aedaf03, 2022-05-15)"
   xmlns:inkscape="http://www.inkscape.org/namespaces/inkscape"
   xmlns:sodipodi="http://sodipodi.sourceforge.net/DTD/sodipodi-0.dtd"
   xmlns:xlink="http://www.w3.org/1999/xlink"
   xmlns="http://www.w3.org/2000/svg"
   xmlns:svg="http://www.w3.org/2000/svg">
  <sodipodi:namedview
     id="namedview7"
     pagecolor="#ffffff"
     bordercolor="#666666"
     borderopacity="1.0"
     inkscape:showpageshadow="2"
     inkscape:pageopacity="0.0"
     inkscape:pagecheckerboard="0"
     inkscape:deskcolor="#d1d1d1"
     inkscape:document-units="px"
     showgrid="false"
     inkscape:zoom="2.298097"
     inkscape:cx="137.2875"
     inkscape:cy="124.01565"
     inkscape:window-width="1920"
     inkscape:window-height="1007"
     inkscape:window-x="0"
     inkscape:window-y="0"
     inkscape:window-maximized="1"
     inkscape:current-layer="svg5" />
  <defs
     id="defs2">
    <linearGradient
       inkscape:collect="always"
       xlink:href="#linearGradient1090"
       id="linearGradient3525"
       x1="49.757851"
       y1="59.623322"
       x2="14.242154"
       y2="4.3766828"
       gradientUnits="userSpaceOnUse"
       gradientTransform="matrix(4.0545454,0,0,4.0545454,-1.7454618,-1.7454586)" />
    <linearGradient
       inkscape:collect="always"
       id="linearGradient1090">
      <stop
         style="stop-color:#3daee9;stop-opacity:1;"
         offset="0"
         id="stop1086" />
      <stop
         style="stop-color:#53c5f2;stop-opacity:1;"
         offset="1"
         id="stop1088" />
    </linearGradient>
  </defs>
  <rect
     style="fill:url(#linearGradient3525);fill-opacity:1;stroke:none;stroke-width:4.05454"
     id="rect184"
     width="223"
     height="223"
     x="16.5"
     y="16.5"
     ry="39.5" />
  <path
     d="m 144.00008,45 -32.00002,4.843761 V 165.59381 l 32.00002,-8.59376 v -44.71877 l 32.00001,52.71877 32.00003,-12 L 168.00009,105.00003 208.01574,53.015622 176.96885,45 144.00008,97.46877 Z M 78.843807,76.390627 c -0.75674,0 -1.5135,0.294741 -2.09376,0.875001 L 64.171924,89.84377 c -1.16054,1.16054 -0.88116,2.81846 0,4.20312 l 13.015623,20.43753 c -0.96434,2.00176 -1.79938,4.06328 -2.500001,6.17186 -0.0308,0.0908 -0.0792,0.1748 -0.1094,0.2656 l -23.609385,5.25 C 49.36658,126.528 48,127.49942 48,129.14066 v 7.85938 7.85938 c 0,1.64124 1.36658,2.61272 2.968741,2.96876 l 23.609385,5.25001 c 0.0516,0.1552 0.1342,0.29848 0.1874,0.45312 0.681961,2.04834 1.490821,4.05222 2.421881,6 l -13.015623,20.42188 c -0.88116,1.38466 -1.16054,3.04258 0,4.20312 l 12.578123,12.57815 c 1.16054,1.16052 3.026941,1.16052 4.187521,0 l 20.406242,-13.00003 c 2.00608,0.9756 4.07284,1.8211 6.1875,2.53126 0.1388,0.0488 0.26712,0.1244 0.40624,0.1718 l 5.23437,23.59375 c 0,1.64126 1.32752,2.96876 2.96876,2.96876 h 17.76562 c 1.64124,0 2.61272,-1.3666 2.96876,-2.96876 l 5.23438,-24.31251 c 2.40484,-0.9041 4.73934,-1.98518 6.98438,-3.23438 l 19.92189,14.25003 c 1.16054,1.16052 3.02696,1.16052 4.1875,0 l 12.57812,-12.57815 c 1.16054,-1.16054 0.88116,-2.81846 0,-4.20312 l -7.57812,-11.5 -0.79688,0.29688 c -1.802,0.67688 -3.8306,-0.0256 -4.82812,-1.67188 l -7.96872,-13.12496 c -6.6395,15.88156 -22.31949,27.04688 -40.60939,27.04688 -24.30055,0 -44.000032,-19.69948 -44.000032,-44.00003 0,-18.64736 11.622402,-34.54681 28.000002,-40.95315 v -8.76562 l -0.0624,0.28128 c -0.1766,0.06 -0.3396,0.1566 -0.5156,0.21872 -2.0866,0.69296 -4.12716,1.5175 -6.10936,2.46874 L 80.937428,77.265588 c -0.58028,-0.58026 -1.33702,-0.875001 -2.093741,-0.875001 z"
     style="opacity:0.2;fill:#000000;stroke-width:4"
     id="path277" />
  <path
     d="m 144.00008,44 -32,4.843761 V 164.59381 l 32,-8.59376 v -44.71877 l 32.00001,52.71877 32.00003,-12 L 168.00009,104.00003 208.01574,52.015622 176.96885,44 144.00008,96.46877 Z M 78.843807,75.390647 c -0.75674,0 -1.51348,0.294721 -2.09376,0.875001 L 64.171924,88.84377 c -1.16054,1.16054 -0.88116,2.81846 0,4.20312 l 13.015623,20.43753 c -0.96434,2.00176 -1.79938,4.06328 -2.500001,6.17186 -0.0308,0.0908 -0.0792,0.1748 -0.1094,0.2656 l -23.609385,5.25 C 49.36658,125.528 48,126.49942 48,128.14066 v 7.85938 7.85938 c 0,1.64124 1.36658,2.61272 2.968741,2.96876 l 23.609385,5.25001 c 0.0516,0.1552 0.1342,0.29848 0.1874,0.45312 0.681961,2.04832 1.490821,4.0522 2.421881,6 l -13.015623,20.42188 c -0.88116,1.38466 -1.16054,3.04258 0,4.20312 l 12.578123,12.57815 c 1.16054,1.16052 3.026941,1.16052 4.187521,0 l 20.406242,-13.00003 c 2.00608,0.9756 4.07284,1.8211 6.1875,2.53126 0.1388,0.0488 0.26712,0.1244 0.40624,0.1718 l 5.23439,23.59375 c 0,1.64126 1.32752,2.96876 2.96874,2.96876 h 17.76564 c 1.64124,0 2.61272,-1.3666 2.96874,-2.96876 l 5.23438,-24.31251 c 2.40484,-0.9041 4.73934,-1.98518 6.98438,-3.23438 l 19.92189,14.25003 c 1.16054,1.16052 3.02696,1.16052 4.1875,0 l 12.57812,-12.57815 c 1.16054,-1.16054 0.88116,-2.81846 0,-4.20312 l -7.57812,-11.5 -0.79688,0.29688 c -1.802,0.67688 -3.8306,-0.0256 -4.82812,-1.67188 l -7.96872,-13.12496 c -6.6395,15.88156 -22.31949,27.04688 -40.60939,27.04688 -24.30055,0 -44.000032,-19.69948 -44.000032,-44.00003 0,-18.64736 11.622402,-34.54681 28.000002,-40.95315 v -8.76562 l -0.0624,0.28128 c -0.1766,0.06 -0.3396,0.1566 -0.5156,0.21872 -2.0866,0.69296 -4.12716,1.5175 -6.10936,2.46874 L 80.937428,76.265608 c -0.58028,-0.58028 -1.337,-0.875001 -2.093741,-0.875001 z"
     style="fill:#ffffff;stroke-width:4"
     id="path244"
     sodipodi:nodetypes="ccccccccccccscccccccscscccccsscccccssccccsccccccssccccccs" />
  <path
     id="rect899"
     style="fill:#000000;stroke:none;stroke-width:4;opacity:0.5"
     d="M 56,16 C 33.840066,16 16,33.840066 16,56 v 144 c 0,22.15994 17.840066,40 40,40 h 144 c 22.15994,0 40,-17.84006 40,-40 V 56 C 240,33.840066 222.15994,16 200,16 Z m 0,1 h 144 c 21.60598,0 39,17.394022 39,39 v 144 c 0,21.60598 -17.39402,39 -39,39 H 56 C 34.394022,239 17,221.60598 17,200 V 56 C 17,34.394022 34.394022,17 56,17 Z" />
  <path
     id="rect441"
     style="opacity:0.3;fill:#ffffff"
     d="m 17,199 v 1 c 0,21.60598 17.394022,39 39,39 h 144 c 21.60598,0 39,-17.39402 39,-39 v -1 c 0,21.60598 -17.39402,39 -39,39 H 56 C 34.394022,238 17,220.60598 17,199 Z" />
  <path
     id="rect443"
     style="opacity:0.3;fill:#ffffff"
     d="M 56,17 C 34.394022,17 17,34.394022 17,56 v 1 C 17,35.394022 34.394022,18 56,18 h 144 c 21.60598,0 39,17.394022 39,39 V 56 C 239,34.394022 221.60598,17 200,17 Z" />
</svg>
