<?xml version="1.0" encoding="UTF-8" standalone="no"?>
<!-- Created with Inkscape (http://www.inkscape.org/) -->

<svg
   width="256"
   height="256"
   viewBox="0 0 256 256.00001"
   version="1.1"
   id="svg5"
   sodipodi:docname="desktop-environment-gnome.svg"
   inkscape:version="1.2 (dc2aedaf03, 2022-05-15)"
   xmlns:inkscape="http://www.inkscape.org/namespaces/inkscape"
   xmlns:sodipodi="http://sodipodi.sourceforge.net/DTD/sodipodi-0.dtd"
   xmlns:xlink="http://www.w3.org/1999/xlink"
   xmlns="http://www.w3.org/2000/svg"
   xmlns:svg="http://www.w3.org/2000/svg">
  <sodipodi:namedview
     id="namedview7"
     pagecolor="#ffffff"
     bordercolor="#666666"
     borderopacity="1.0"
     inkscape:showpageshadow="2"
     inkscape:pageopacity="0.0"
     inkscape:pagecheckerboard="0"
     inkscape:deskcolor="#d1d1d1"
     inkscape:document-units="px"
     showgrid="false"
     inkscape:zoom="1.625"
     inkscape:cx="-1.5384616"
     inkscape:cy="89.846155"
     inkscape:window-width="1920"
     inkscape:window-height="1007"
     inkscape:window-x="0"
     inkscape:window-y="0"
     inkscape:window-maximized="1"
     inkscape:current-layer="svg5" />
  <defs
     id="defs2">
    <linearGradient
       inkscape:collect="always"
       xlink:href="#linearGradient3030"
       id="linearGradient3525"
       x1="188"
       y1="228"
       x2="44.000004"
       y2="3.9999969"
       gradientUnits="userSpaceOnUse"
       gradientTransform="translate(11.999998,12.000003)" />
    <linearGradient
       inkscape:collect="always"
       id="linearGradient3030">
      <stop
         style="stop-color:#4a86cf;stop-opacity:1;"
         offset="0"
         id="stop3026" />
      <stop
         style="stop-color:#70b7df;stop-opacity:1;"
         offset="1"
         id="stop3028" />
    </linearGradient>
  </defs>
  <rect
     style="fill:url(#linearGradient3525);fill-opacity:1;stroke:none"
     id="rect184"
     width="223"
     height="223"
     x="16.5"
     y="16.5"
     ry="39.5" />
  <path
     id="path7698"
     style="opacity:0.2;fill:#000000;stroke-width:14"
     d="m 185.3458,41 c -35.54272,0 -42.20572,52 -22.21096,52 19.99188,0 57.75512,-52 22.21096,-52 z m -54.60156,8 c -0.5736,-0.002 -1.17704,0.04 -1.81252,0.125 -20.32812,2.721712 -13.1834,39.18564 -2.35936,39.8672 10.48152,0.66028 21.95332,-39.929172 4.17188,-39.9922 z m -37.179685,8.007812 c -0.45432,-0.0228 -0.91956,-0.0084 -1.40628,0.0392 -1.03832,0.10132 -2.15452,0.369 -3.34372,0.820312 -19.03112,7.222968 -2.88796,37.042996 7.77344,35.039076 9.690485,-1.81712 11.060085,-35.196648 -3.02344,-35.898452 z M 67.134835,85 c -1.69876,-0.0452 -3.54404,0.4006 -5.5,1.47656 -15.64048,8.60896 5.27452,29.41288 14.4766,26.18752 8.0518,-2.82344 2.91476,-27.34528 -8.9766,-27.66408 z m 74.312525,16 C 114.4768,100.52084 78.897555,114.73808 72.830155,143.27344 66.258955,174.1536 99.882675,217 134.963,217 c 17.25768,0 37.16648,-17.56576 40.8906,-38.29688 1.35972,-7.55744 -7.07196,-10.29816 -16.10156,-9.70312 -9.85852,0.64968 -20.43108,5.22772 -19.75,10.68752 1.06556,8.5458 -2.01764,13.17336 -8.16404,13.31248 -8.39168,-1.02084 -14.73196,-4.8712 -15.83596,-12.21876 -1.50284,-19.29392 60.45844,-33.04388 55.66408,-62.96092 C 169.91256,106.8782 157.62968,101.28752 141.44736,101 Z" />
  <path
     id="path7665"
     style="fill:#ffffff;stroke-width:14"
     d="m 185.3458,40 c -35.54272,0 -42.20572,52 -22.21096,52 19.99188,0 57.75512,-52 22.21096,-52 z m -54.60156,8 c -0.5736,-0.002 -1.17704,0.04 -1.81252,0.125 -20.32812,2.721712 -13.1834,39.18564 -2.35936,39.8672 10.48152,0.66028 21.95332,-39.929172 4.17188,-39.9922 z m -37.179685,8.007812 c -0.45432,-0.0228 -0.91956,-0.0084 -1.40628,0.0392 -1.03832,0.10132 -2.15452,0.369 -3.34372,0.820312 -19.03112,7.222968 -2.88796,37.042996 7.77344,35.039076 9.690485,-1.81712 11.060085,-35.196648 -3.02344,-35.898452 z M 67.134835,84 c -1.69876,-0.0452 -3.54404,0.4006 -5.5,1.47656 -15.64048,8.60896 5.27452,29.41288 14.4766,26.18752 8.0518,-2.82344 2.91476,-27.34528 -8.9766,-27.66408 z m 74.312525,16 C 114.4768,99.52084 78.897555,113.73808 72.830155,142.27344 66.258955,173.1536 99.882675,216 134.963,216 c 17.25768,0 37.16648,-17.56576 40.8906,-38.29688 1.35972,-7.55744 -7.07196,-10.29816 -16.10156,-9.70312 -9.85852,0.64968 -20.43108,5.22772 -19.75,10.68752 1.06556,8.5458 -2.01764,13.17336 -8.16404,13.31248 -8.39168,-1.02084 -14.73196,-4.8712 -15.83596,-12.21876 -1.50284,-19.29392 60.45844,-33.04388 55.66408,-62.96092 C 169.91256,105.8782 157.62968,100.28752 141.44736,100 Z" />
  <path
     id="rect899"
     style="fill:#000000;stroke:none;stroke-width:4;opacity:0.5"
     d="M 56,16 C 33.840066,16 16,33.840066 16,56 v 144 c 0,22.15994 17.840066,40 40,40 h 144 c 22.15994,0 40,-17.84006 40,-40 V 56 C 240,33.840066 222.15994,16 200,16 Z m 0,1 h 144 c 21.60598,0 39,17.394022 39,39 v 144 c 0,21.60598 -17.39402,39 -39,39 H 56 C 34.394022,239 17,221.60598 17,200 V 56 C 17,34.394022 34.394022,17 56,17 Z" />
  <path
     id="rect441"
     style="opacity:0.3;fill:#ffffff"
     d="m 17,199 v 1 c 0,21.60598 17.394022,39 39,39 h 144 c 21.60598,0 39,-17.39402 39,-39 v -1 c 0,21.60598 -17.39402,39 -39,39 H 56 C 34.394022,238 17,220.60598 17,199 Z" />
  <path
     id="rect443"
     style="opacity:0.3;fill:#ffffff"
     d="M 56,17 C 34.394022,17 17,34.394022 17,56 v 1 C 17,35.394022 34.394022,18 56,18 h 144 c 21.60598,0 39,17.394022 39,39 V 56 C 239,34.394022 221.60598,17 200,17 Z" />
</svg>
