<?xml version="1.0" encoding="UTF-8" standalone="no"?>
<!-- Created with Inkscape (http://www.inkscape.org/) -->

<svg
   width="256"
   height="256"
   viewBox="0 0 256 256.00001"
   version="1.1"
   id="svg5"
   sodipodi:docname="digikam.svg"
   inkscape:version="1.2.1 (9c6d41e410, 2022-07-14)"
   xmlns:inkscape="http://www.inkscape.org/namespaces/inkscape"
   xmlns:sodipodi="http://sodipodi.sourceforge.net/DTD/sodipodi-0.dtd"
   xmlns:xlink="http://www.w3.org/1999/xlink"
   xmlns="http://www.w3.org/2000/svg"
   xmlns:svg="http://www.w3.org/2000/svg">
  <sodipodi:namedview
     id="namedview7"
     pagecolor="#ffffff"
     bordercolor="#666666"
     borderopacity="1.0"
     inkscape:showpageshadow="2"
     inkscape:pageopacity="0.0"
     inkscape:pagecheckerboard="0"
     inkscape:deskcolor="#d1d1d1"
     inkscape:document-units="px"
     showgrid="false"
     inkscape:zoom="1"
     inkscape:cx="128.5"
     inkscape:cy="128"
     inkscape:window-width="1920"
     inkscape:window-height="1002"
     inkscape:window-x="0"
     inkscape:window-y="0"
     inkscape:window-maximized="1"
     inkscape:current-layer="svg5" />
  <defs
     id="defs2">
    <linearGradient
       inkscape:collect="always"
       xlink:href="#linearGradient2466"
       id="linearGradient3525"
       x1="49.757847"
       y1="59.623318"
       x2="14.242153"
       y2="4.3766818"
       gradientUnits="userSpaceOnUse"
       gradientTransform="matrix(4.0545454,0,0,4.0545454,-1.745455,-1.745455)" />
    <linearGradient
       inkscape:collect="always"
       id="linearGradient2466">
      <stop
         style="stop-color:#366ecb;stop-opacity:1;"
         offset="0"
         id="stop2462" />
      <stop
         style="stop-color:#3694cb;stop-opacity:1;"
         offset="1"
         id="stop2464" />
    </linearGradient>
  </defs>
  <rect
     style="fill:url(#linearGradient3525);fill-opacity:1.0;stroke:none;stroke-width:4.05454"
     id="rect184"
     width="223"
     height="223"
     x="16.5"
     y="16.5"
     ry="39.5" />
  <path
     d="m 109.99218,69.000027 c -2.10705,0.0048 -4.05223,1.113004 -5.13281,2.921876 L 94.617178,89.000027 H 68 c -6.648008,0 -12,5.352008 -12,12.000003 v 76 c 0,6.64798 5.351992,12 12,12 h 120 c 6.648,0 12,-5.35202 12,-12 v -76 c 0,-6.647995 -5.352,-12.000003 -12,-12.000003 H 161.39062 L 151.15624,71.921903 c -1.08598,-1.817916 -3.04648,-2.927488 -5.16406,-2.921876 z m 18.00781,35.999983 c 17.67311,0 32.00001,14.3269 32.00001,32 0,17.67312 -14.3269,32.00002 -32.00001,32.00002 -17.67311,0 -32,-14.3269 -32,-32.00002 0,-17.6731 14.32689,-32 32,-32 z m 0,8 c -13.25483,0 -24,10.74518 -24,24 0,13.25484 10.74517,24.00002 24,24.00002 13.25483,0 24.00001,-10.74518 24.00001,-24.00002 0,-13.25482 -10.74518,-24 -24.00001,-24 z"
     style="opacity:0.2;fill:#000000;fill-opacity:1;stroke-width:27.9152;stroke-linejoin:round"
     id="path10249" />
  <path
     id="rect849"
     style="fill:#ffffff;fill-opacity:1;stroke-width:7.38588;stroke-linejoin:round"
     d="m 109.99219,68.000022 c -2.10705,0.0048 -4.05223,1.113004 -5.13281,2.921876 L 94.617188,88.000022 H 68 c -6.648,0 -12,5.352 -12,11.999998 v 76 c 0,6.648 5.352,12 12,12 h 120 c 6.648,0 12,-5.352 12,-12 v -76 c 0,-6.647998 -5.352,-11.999998 -12,-11.999998 H 161.39062 L 151.15624,70.921898 c -1.08598,-1.817916 -3.04648,-2.927488 -5.16406,-2.921876 z M 128,104.00002 c 17.67312,0 32,14.32688 32,32 0,17.67312 -14.32688,32 -32,32 -17.67311,0 -32,-14.32688 -32,-32 0,-17.67312 14.32689,-32 32,-32 z m 0,8 c -13.25483,0 -24,10.74518 -24,24 0,13.25484 10.74517,24 24,24 13.25483,0 24,-10.74516 24,-24 0,-13.25482 -10.74517,-24 -24,-24 z"
     sodipodi:nodetypes="cccssssssssccccssssssssss" />
  <path
     id="rect899"
     style="fill:#000000;stroke:none;stroke-width:4;opacity:0.5"
     d="M 56,16 C 33.840066,16 16,33.840066 16,56 v 144 c 0,22.15994 17.840066,40 40,40 h 144 c 22.15994,0 40,-17.84006 40,-40 V 56 C 240,33.840066 222.15994,16 200,16 Z m 0,1 h 144 c 21.60598,0 39,17.394022 39,39 v 144 c 0,21.60598 -17.39402,39 -39,39 H 56 C 34.394022,239 17,221.60598 17,200 V 56 C 17,34.394022 34.394022,17 56,17 Z" />
  <path
     id="rect441"
     style="opacity:0.3;fill:#ffffff"
     d="m 17,199 v 1 c 0,21.60598 17.394022,39 39,39 h 144 c 21.60598,0 39,-17.39402 39,-39 v -1 c 0,21.60598 -17.39402,39 -39,39 H 56 C 34.394022,238 17,220.60598 17,199 Z" />
  <path
     id="rect443"
     style="opacity:0.3;fill:#ffffff"
     d="M 56,17 C 34.394022,17 17,34.394022 17,56 v 1 C 17,35.394022 34.394022,18 56,18 h 144 c 21.60598,0 39,17.394022 39,39 V 56 C 239,34.394022 221.60598,17 200,17 Z" />
</svg>
