<?xml version="1.0" encoding="UTF-8" standalone="no"?>
<!-- Created with Inkscape (http://www.inkscape.org/) -->

<svg
   width="256"
   height="256"
   viewBox="0 0 256 256.00001"
   version="1.1"
   id="svg5"
   sodipodi:docname="display.im6.svg"
   inkscape:version="1.2.1 (9c6d41e410, 2022-07-14)"
   xmlns:inkscape="http://www.inkscape.org/namespaces/inkscape"
   xmlns:sodipodi="http://sodipodi.sourceforge.net/DTD/sodipodi-0.dtd"
   xmlns:xlink="http://www.w3.org/1999/xlink"
   xmlns="http://www.w3.org/2000/svg"
   xmlns:svg="http://www.w3.org/2000/svg">
  <sodipodi:namedview
     id="namedview7"
     pagecolor="#ffffff"
     bordercolor="#666666"
     borderopacity="1.0"
     inkscape:showpageshadow="2"
     inkscape:pageopacity="0.0"
     inkscape:pagecheckerboard="0"
     inkscape:deskcolor="#d1d1d1"
     inkscape:document-units="px"
     showgrid="false"
     inkscape:zoom="2.298097"
     inkscape:cx="20.669275"
     inkscape:cy="84.852815"
     inkscape:window-width="1920"
     inkscape:window-height="1002"
     inkscape:window-x="0"
     inkscape:window-y="0"
     inkscape:window-maximized="1"
     inkscape:current-layer="svg5" />
  <defs
     id="defs2">
    <linearGradient
       inkscape:collect="always"
       xlink:href="#linearGradient1440"
       id="linearGradient3525"
       x1="49.757847"
       y1="59.623318"
       x2="14.242153"
       y2="4.3766818"
       gradientUnits="userSpaceOnUse"
       gradientTransform="matrix(4.0545454,0,0,4.0545454,-1.745455,-1.745455)" />
    <linearGradient
       inkscape:collect="always"
       id="linearGradient1440">
      <stop
         style="stop-color:#273894;stop-opacity:1;"
         offset="0"
         id="stop1436" />
      <stop
         style="stop-color:#5068c3;stop-opacity:1;"
         offset="1"
         id="stop1438" />
    </linearGradient>
  </defs>
  <rect
     style="fill:url(#linearGradient3525);fill-opacity:1.0;stroke:none;stroke-width:4.05454"
     id="rect184"
     width="223"
     height="223"
     x="16.5"
     y="16.5"
     ry="39.5" />
  <path
     id="path5452"
     style="opacity:0.2;fill:#000000;stroke-width:3.99996"
     d="m 160.29312,53.00178 c -5.38372,-0.034 -11.4457,0.423548 -18.50763,0.99999 l 0.008,-0.0312 c -14.49984,2.020776 -30.08152,9.643234 -42.757376,32.194988 -28.97848,51.531432 -26.9192,69.468922 -31.53874,75.264862 -4.63596,5.77194 -17.12654,8.90466 -15.32016,15.4686 3.0712,6.15552 4.13276,6.83586 4.13276,6.83586 0,0 17.74054,27.40092 70.655536,19.9998 52.90743,-7.40152 60.24503,-19.46614 59.76503,-25.45286 -0.47938,-5.99314 -11.6405,-10.35928 -11.6405,-10.35928 0,0 -8.27076,-31.47733 -6.14838,-44.39799 2.12218,-12.92705 10.18776,-31.765594 18.15606,-35.819948 7.94512,-4.092356 11.92154,13.693748 16.0311,9.304594 4.08794,-4.391952 -6.81294,-30.283702 -20.1248,-37.999616 -6.65512,-4.523 -13.73802,-5.950952 -22.7109,-6.0078 z m -22.99977,43.999556 5.06244,14.492044 13.42957,5.49213 -10.35147,9.46084 -0.22656,15.35922 -10.99208,-8.0546 -14.69516,5.42182 4.12496,-14.89048 -7.66398,-13.73423 13.93736,-0.84375 z m -34.67152,29.960634 3.42184,15.10141 12.70298,7.41398 -11.31238,7.87494 -1.92186,15.18734 -9.984276,-9.5546 -15.18734,3.24216 5.7187,-14.16392 -6.06244,-14.74204 13.91392,1.1953 z m 28.1169,9.60147 8.57022,12.08582 14.24205,0.70312 -7.42181,12.53892 3.75779,14.74204 -12.57019,-3.93746 -12.62488,10.16396 0.086,-15.61702 -10.8827,-10.50772 13.09362,-5.51556 z" />
  <path
     id="path316"
     style="fill:#ffffff;stroke-width:3.99996"
     d="m 160.29312,52.00178 c -5.38372,-0.034 -11.4457,0.423548 -18.50763,0.99999 l 0.008,-0.0312 c -14.49984,2.020776 -30.08152,9.643234 -42.757376,32.194988 -28.97848,51.531432 -26.9192,69.461122 -31.53874,75.257042 -4.63596,5.77194 -17.12654,8.90468 -15.32016,15.4686 3.0712,6.15554 4.13276,6.84368 4.13276,6.84368 0,0 17.74054,27.40092 70.655536,19.9998 52.90743,-7.40152 60.24503,-19.46614 59.76503,-25.45286 -0.47938,-5.99314 -11.6405,-10.35928 -11.6405,-10.35928 0,0 -8.27076,-31.47733 -6.14838,-44.39799 2.12218,-12.92705 10.18776,-31.765594 18.15606,-35.819948 7.94512,-4.092354 11.92154,13.693748 16.0311,9.304594 4.08776,-4.392 -6.81314,-30.291562 -20.12498,-38.007476 -6.65494,-4.522952 -13.73784,-5.943092 -22.71072,-5.99994 z m -22.99977,43.999556 5.06244,14.492044 13.42957,5.49213 -10.35147,9.46084 -0.22656,15.35922 -10.99208,-8.0546 -14.69516,5.42182 4.12496,-14.89048 -7.66398,-13.73423 13.93736,-0.84375 z m -34.67152,29.960634 3.42184,15.10141 12.70298,7.41398 -11.31238,7.87494 -1.92186,15.18734 -9.984276,-9.5546 -15.18734,3.24216 5.7187,-14.16392 -6.06244,-14.74204 13.91392,1.1953 z m 28.1169,9.60147 8.57022,12.08581 14.24205,0.70313 -7.42181,12.53892 3.75779,14.74204 -12.57019,-3.93746 -12.62488,10.16396 0.086,-15.61702 -10.8827,-10.50772 13.09362,-5.51556 z" />
  <path
     id="rect899"
     style="fill:#000000;stroke:none;stroke-width:4;opacity:0.5"
     d="M 56,16 C 33.840066,16 16,33.840066 16,56 v 144 c 0,22.15994 17.840066,40 40,40 h 144 c 22.15994,0 40,-17.84006 40,-40 V 56 C 240,33.840066 222.15994,16 200,16 Z m 0,1 h 144 c 21.60598,0 39,17.394022 39,39 v 144 c 0,21.60598 -17.39402,39 -39,39 H 56 C 34.394022,239 17,221.60598 17,200 V 56 C 17,34.394022 34.394022,17 56,17 Z" />
  <path
     id="rect441"
     style="opacity:0.3;fill:#ffffff"
     d="m 17,199 v 1 c 0,21.60598 17.394022,39 39,39 h 144 c 21.60598,0 39,-17.39402 39,-39 v -1 c 0,21.60598 -17.39402,39 -39,39 H 56 C 34.394022,238 17,220.60598 17,199 Z" />
  <path
     id="rect443"
     style="opacity:0.3;fill:#ffffff"
     d="M 56,17 C 34.394022,17 17,34.394022 17,56 v 1 C 17,35.394022 34.394022,18 56,18 h 144 c 21.60598,0 39,17.394022 39,39 V 56 C 239,34.394022 221.60598,17 200,17 Z" />
</svg>
