<?xml version="1.0" encoding="UTF-8" standalone="no"?>
<!-- Created with Inkscape (http://www.inkscape.org/) -->

<svg
   width="256"
   height="256"
   viewBox="0 0 256 256.00001"
   version="1.1"
   id="svg5"
   sodipodi:docname="dolphin-emu.svg"
   inkscape:version="1.2 (1:1.2+202206011326+fc4e4096c5)"
   xmlns:inkscape="http://www.inkscape.org/namespaces/inkscape"
   xmlns:sodipodi="http://sodipodi.sourceforge.net/DTD/sodipodi-0.dtd"
   xmlns:xlink="http://www.w3.org/1999/xlink"
   xmlns="http://www.w3.org/2000/svg"
   xmlns:svg="http://www.w3.org/2000/svg">
  <sodipodi:namedview
     id="namedview7"
     pagecolor="#ffffff"
     bordercolor="#666666"
     borderopacity="1.0"
     inkscape:showpageshadow="2"
     inkscape:pageopacity="0.0"
     inkscape:pagecheckerboard="0"
     inkscape:deskcolor="#d1d1d1"
     inkscape:document-units="px"
     showgrid="false"
     inkscape:zoom="2.298097"
     inkscape:cx="84.852814"
     inkscape:cy="87.46367"
     inkscape:window-width="1846"
     inkscape:window-height="1053"
     inkscape:window-x="0"
     inkscape:window-y="0"
     inkscape:window-maximized="1"
     inkscape:current-layer="svg5" />
  <defs
     id="defs2">
    <linearGradient
       inkscape:collect="always"
       xlink:href="#linearGradient1744"
       id="linearGradient3525"
       x1="49.757847"
       y1="59.623318"
       x2="14.242153"
       y2="4.3766818"
       gradientUnits="userSpaceOnUse"
       gradientTransform="matrix(4.0545454,0,0,4.0545454,-1.745455,-1.745455)" />
    <linearGradient
       inkscape:collect="always"
       id="linearGradient1744">
      <stop
         style="stop-color:#0096f4;stop-opacity:1;"
         offset="0"
         id="stop1740" />
      <stop
         style="stop-color:#3cbff1;stop-opacity:1;"
         offset="1"
         id="stop1742" />
    </linearGradient>
  </defs>
  <rect
     style="fill:url(#linearGradient3525);fill-opacity:1.0;stroke:none;stroke-width:4.05454"
     id="rect184"
     width="223"
     height="223"
     x="16.5"
     y="16.5"
     ry="39.5" />
  <path
     id="rect899"
     style="fill:#000000;stroke:none;stroke-width:4;opacity:0.5"
     d="M 56,16 C 33.840066,16 16,33.840066 16,56 v 144 c 0,22.15994 17.840066,40 40,40 h 144 c 22.15994,0 40,-17.84006 40,-40 V 56 C 240,33.840066 222.15994,16 200,16 Z m 0,1 h 144 c 21.60598,0 39,17.394022 39,39 v 144 c 0,21.60598 -17.39402,39 -39,39 H 56 C 34.394022,239 17,221.60598 17,200 V 56 C 17,34.394022 34.394022,17 56,17 Z" />
  <path
     id="rect441"
     style="opacity:0.3;fill:#ffffff"
     d="m 17,199 v 1 c 0,21.60598 17.394022,39 39,39 h 144 c 21.60598,0 39,-17.39402 39,-39 v -1 c 0,21.60598 -17.39402,39 -39,39 H 56 C 34.394022,238 17,220.60598 17,199 Z" />
  <path
     id="rect443"
     style="opacity:0.3;fill:#ffffff"
     d="M 56,17 C 34.394022,17 17,34.394022 17,56 v 1 C 17,35.394022 34.394022,18 56,18 h 144 c 21.60598,0 39,17.394022 39,39 V 56 C 239,34.394022 221.60598,17 200,17 Z" />
  <path
     d="m 157.38211,85.950677 c -9.32229,0.593857 -17.69638,6.05169 -19.26307,6.819666 -5.01954,-1.433553 -10.74357,-4.427658 -17.44243,-5.564272 -23.171183,-3.932081 -42.779943,2.342848 -52.62038,9.172769 -12.898015,8.95164 -12.541673,19.00299 -13.604552,23.17508 -0.655327,2.58451 -6.520691,7.36035 -6.451064,10.71285 0.11468,4.3765 2.850748,5.78547 2.850748,5.78547 2.461648,-0.1942 6.131583,-1.94555 9.26905,-3.23986 4.657048,-1.92507 5.017483,-2.95519 17.745535,-4.85366 5.855097,-0.88065 12.017406,-1.12637 16.606865,-1.16731 1.781725,3.7703 6.225788,11.52794 13.917898,15.245 4.56491,2.10119 11.43784,3.03915 14.47495,3.6392 l 8.88404,1.31066 v -3.59417 h -0.0116 c 0,0 -7.45456,-3.0924 -12.04198,-7.67778 -1.94557,-1.94555 -1.94557,-4.25156 -2.48828,-6.56165 7.0675,1.3312 13.36497,2.33877 28.26896,8.04642 13.72746,5.2571 23.10196,12.89188 23.11282,12.90212 l 0.012,0.012 0.0228,0.0228 v -3.59418 l -0.0332,-0.0228 c -0.1254,-0.1548 -9.74007,-12.07882 -25.91401,-20.05562 -13.36701,-6.59237 -24.3463,-9.85271 -39.55196,-10.58996 -15.791784,-0.75772 -26.289808,1.06491 -27.431754,1.26971 1.351649,-2.69101 4.097959,-7.3542 11.46241,-10.80911 10.911504,-5.11783 28.066004,-5.97388 47.765694,-0.94211 27.83131,7.10024 37.32296,20.38943 49.2947,32.88339 12.73417,13.28917 23.7362,35.61988 23.7489,35.64588 l 0.012,0.0228 0.0228,0.056 v -3.6167 l -0.1,-0.28668 c -0.53254,-1.78171 -3.84196,-12.54168 -9.43083,-22.85621 -7.36447,-13.58819 -13.69877,-23.30286 -24.25106,-33.16806 -7.36242,-5.49056 -14.85179,-12.96766 -13.57181,-16.19316 3.31358,-4.358061 12.30002,-7.024508 12.33277,-7.030648 h 0.0228 v -0.012 -3.581863 c 0,0 -5.68103,-1.92509 -15.61362,-1.290253 z m 11.14907,64.104273 c 0,0 0.0894,0.0786 0,0 z"
     style="opacity:0.2;fill:#000000;stroke-width:3.99984"
     id="path1104" />
  <path
     d="m 157.38211,84.950677 c -9.32229,0.593857 -17.69638,6.05169 -19.26307,6.819666 -5.01953,-1.433553 -10.74357,-4.427658 -17.44243,-5.564272 -23.171181,-3.932081 -42.779941,2.342848 -52.620376,9.172774 -12.898019,8.951635 -12.541677,19.002985 -13.604556,23.175085 -0.655327,2.5845 -6.520691,7.36034 -6.451064,10.71284 0.11468,4.37648 2.850748,5.78547 2.850748,5.78547 2.461648,-0.1942 6.131585,-1.94555 9.269054,-3.23986 4.657048,-1.92507 5.017483,-2.95519 17.745533,-4.85366 5.855097,-0.88065 12.017406,-1.12637 16.606865,-1.16731 1.781725,3.77028 6.225786,11.52794 13.917906,15.24498 4.5649,2.10121 11.43783,3.03917 14.47494,3.63922 l 8.88404,1.31064 v -3.59415 h -0.0116 c 0,0 -7.45456,-3.0924 -12.04198,-7.67778 -1.94556,-1.94557 -1.94556,-4.25156 -2.48828,-6.56165 7.0675,1.33118 13.36497,2.33875 28.26896,8.04642 13.72746,5.2571 23.10196,12.89188 23.11282,12.90212 l 0.012,0.012 0.0228,0.0228 v -3.59418 l -0.0332,-0.0228 c -0.1254,-0.1548 -9.74007,-12.07884 -25.91401,-20.05562 -13.36701,-6.59236 -24.3463,-9.85271 -39.55196,-10.58996 -15.791782,-0.75772 -26.289804,1.06493 -27.43175,1.26971 1.351649,-2.69101 4.097957,-7.3542 11.46241,-10.80911 10.9115,-5.11783 28.066,-5.97388 47.76569,-0.94211 27.83131,7.10024 37.32298,20.38943 49.2947,32.88339 12.73417,13.28917 23.7362,35.61986 23.7489,35.64588 l 0.012,0.0228 0.0228,0.056 v -3.6167 l -0.1,-0.28668 c -0.53254,-1.78173 -3.84196,-12.54168 -9.43083,-22.85621 -7.36447,-13.58819 -13.69877,-23.30286 -24.25106,-33.16806 -7.36242,-5.49056 -14.85179,-12.96766 -13.57181,-16.19316 3.31358,-4.358061 12.30002,-7.024508 12.33277,-7.030648 h 0.0228 v -0.012 -3.581863 c 0,0 -5.68103,-1.92509 -15.61362,-1.290253 z m 11.14909,64.104253 c 0,0 0.0894,0.0786 0,0 z"
     style="fill:#ffffff;stroke-width:3.99984"
     id="path358"
     sodipodi:nodetypes="cccccccccccccccccsccccccccccccccccccccccccccc" />
</svg>
