<?xml version="1.0" encoding="UTF-8" standalone="no"?>
<!-- Created with Inkscape (http://www.inkscape.org/) -->

<svg
   width="256"
   height="256"
   viewBox="0 0 256 256.00001"
   version="1.1"
   id="svg5"
   sodipodi:docname="emacs.svg"
   inkscape:version="1.2.1 (9c6d41e410, 2022-07-14)"
   xmlns:inkscape="http://www.inkscape.org/namespaces/inkscape"
   xmlns:sodipodi="http://sodipodi.sourceforge.net/DTD/sodipodi-0.dtd"
   xmlns:xlink="http://www.w3.org/1999/xlink"
   xmlns="http://www.w3.org/2000/svg"
   xmlns:svg="http://www.w3.org/2000/svg">
  <sodipodi:namedview
     id="namedview7"
     pagecolor="#ffffff"
     bordercolor="#666666"
     borderopacity="1.0"
     inkscape:showpageshadow="2"
     inkscape:pageopacity="0.0"
     inkscape:pagecheckerboard="0"
     inkscape:deskcolor="#d1d1d1"
     inkscape:document-units="px"
     showgrid="false"
     inkscape:zoom="3.125"
     inkscape:cx="128.32"
     inkscape:cy="128.16"
     inkscape:window-width="1920"
     inkscape:window-height="1009"
     inkscape:window-x="0"
     inkscape:window-y="0"
     inkscape:window-maximized="1"
     inkscape:current-layer="svg5" />
  <defs
     id="defs2">
    <linearGradient
       inkscape:collect="always"
       xlink:href="#linearGradient1312"
       id="linearGradient33585"
       x1="128"
       y1="240"
       x2="128"
       y2="16"
       gradientUnits="userSpaceOnUse" />
    <linearGradient
       inkscape:collect="always"
       id="linearGradient1312">
      <stop
         style="stop-color:#9d4dcd;stop-opacity:1;"
         offset="0"
         id="stop1308" />
      <stop
         style="stop-color:#b589df;stop-opacity:1;"
         offset="1"
         id="stop1310" />
    </linearGradient>
  </defs>
  <rect
     style="fill:url(#linearGradient33585);fill-opacity:1.0;stroke:none;stroke-width:4"
     id="rect184"
     width="223"
     height="223"
     x="16.5"
     y="16.5"
     ry="39.5" />
  <path
     d="m 75.694285,198.18166 c 0,0 9.060752,2.6309 21.120933,4.13503 4.884372,0.60918 23.468452,2.73798 37.717392,2.68224 0,0 17.35307,0.016 26.93231,-1.34112 10.02342,-1.42388 15.70138,-3.24093 18.86124,-6.86727 0.0828,-0.86454 1.52538,-3.68308 -2.37082,-6.4008 -9.9643,-6.95812 -22.83344,-8.84964 -47.85227,-14.79444 -27.65853,-6.95812 -35.923829,-13.61224 -40.053105,-18.4255 -3.916472,-4.83354 0.734668,-14.8637 23.020905,-19.78504 11.2833,-2.7461 53.31575,-3.25107 53.31575,-3.25107 -12.0585,-9.57248 -34.6994,-26.71107 -39.3252,-30.35563 -4.05801,-3.19669 -10.59762,-8.10216 -11.30019,-12.485772 -0.94829,-4.267257 5.76866,-6.321925 9.32507,-6.558877 11.45809,-0.790232 27.10456,0.553112 41.01236,3.318952 6.99106,1.390277 8.21834,1.185417 8.21834,1.185417 9.95672,0.47424 17.701,-4.741313 17.3058,-15.725853 -0.0794,-11.142284 -11.21912,-20.077217 -23.54784,-20.467341 -11.61094,-0.36768 -40.22197,1.659476 -40.22197,1.659476 33.34831,6.875029 38.79995,8.629253 40.53949,12.643681 1.0302,2.372004 -1.7142,4.728812 -10.90162,4.2686 -10.00652,-0.5016 -30.50933,-2.924268 -30.50933,-2.924268 -19.51481,-3.002804 -33.110173,-5.847696 -39.038081,1.896596 -3.872064,5.059496 0.55328,11.221652 2.29162,14.856092 7.744281,13.513441 21.136131,22.784457 29.632801,29.316987 3.19736,2.45831 12.9595,7.90236 12.9595,7.90236 -30.34382,-8.29739 -54.524977,-3.63511 -69.856482,4.42533 -17.621604,10.43127 -14.607824,28.03344 13.354693,44.48974 16.516244,9.72024 24.738489,14.38912 51.780569,17.70942 15.80607,2.5203 18.16035,3.55152 18.04045,4.86714 -0.16956,1.85236 -18.70755,2.55424 -23.80285,2.9057 -12.96372,0.89408 -46.491049,1.11752 -46.658249,1.11752 z"
     style="opacity:0.2;fill:#000000;stroke-width:16.8886"
     id="path667" />
  <path
     d="m 75.694285,197.18166 c 0,0 9.060752,2.6309 21.120933,4.13503 4.884372,0.60918 23.468452,2.73798 37.717392,2.68224 0,0 17.35307,0.016 26.93231,-1.34112 10.02342,-1.42388 15.70138,-3.24093 18.86124,-6.86727 0.0828,-0.86454 1.52538,-3.68308 -2.37082,-6.4008 -9.9643,-6.95812 -22.83344,-8.84964 -47.85227,-14.79444 -27.65853,-6.95812 -35.923829,-13.61224 -40.053105,-18.4255 -3.916472,-4.83354 0.734668,-14.8637 23.020905,-19.78504 11.2833,-2.7461 53.31575,-3.25107 53.31575,-3.25107 -12.0585,-9.57248 -34.6994,-26.71107 -39.3252,-30.35563 -4.05801,-3.196688 -10.59762,-8.10216 -11.30019,-12.485772 -0.94829,-4.267257 5.76866,-6.321925 9.32507,-6.558877 11.45809,-0.790232 27.10456,0.553112 41.01236,3.318952 6.99106,1.390277 8.21834,1.185417 8.21834,1.185417 9.95672,0.47424 17.701,-4.741321 17.3058,-15.725853 -0.0794,-11.142284 -11.21912,-20.077217 -23.54784,-20.467341 -11.61094,-0.36768 -40.22197,1.659476 -40.22197,1.659476 33.34831,6.875029 38.79995,8.629245 40.53949,12.643673 1.0302,2.372012 -1.7142,4.72882 -10.90162,4.268608 -10.00652,-0.5016 -30.50933,-2.924268 -30.50933,-2.924268 -19.51481,-3.002804 -33.110173,-5.847696 -39.038081,1.896596 -3.872064,5.059496 0.55328,11.221652 2.29162,14.856092 7.744281,13.513441 21.136131,22.784457 29.632801,29.316987 3.19736,2.45831 12.9595,7.90236 12.9595,7.90236 -30.34382,-8.29739 -54.524977,-3.63511 -69.856482,4.42533 -17.621604,10.43127 -14.607824,28.03344 13.354693,44.48974 16.516244,9.72024 24.738489,14.38912 51.780569,17.70942 15.80607,2.5203 18.16035,3.55152 18.04045,4.86714 -0.16956,1.85236 -18.70755,2.55424 -23.80285,2.9057 -12.96372,0.89408 -46.491049,1.11752 -46.658249,1.11752 z"
     style="fill:#ffffff;stroke-width:16.8886"
     id="path397"
     sodipodi:nodetypes="cscccccccccccccccccccccccccccccc" />
  <path
     id="rect899"
     style="fill:#000000;stroke:none;stroke-width:4;opacity:0.5"
     d="M 56,16 C 33.840066,16 16,33.840066 16,56 v 144 c 0,22.15994 17.840066,40 40,40 h 144 c 22.15994,0 40,-17.84006 40,-40 V 56 C 240,33.840066 222.15994,16 200,16 Z m 0,1 h 144 c 21.60598,0 39,17.394022 39,39 v 144 c 0,21.60598 -17.39402,39 -39,39 H 56 C 34.394022,239 17,221.60598 17,200 V 56 C 17,34.394022 34.394022,17 56,17 Z" />
  <path
     id="rect441"
     style="opacity:0.3;fill:#ffffff"
     d="m 17,199 v 1 c 0,21.60598 17.394022,39 39,39 h 144 c 21.60598,0 39,-17.39402 39,-39 v -1 c 0,21.60598 -17.39402,39 -39,39 H 56 C 34.394022,238 17,220.60598 17,199 Z" />
  <path
     id="rect443"
     style="opacity:0.3;fill:#ffffff"
     d="M 56,17 C 34.394022,17 17,34.394022 17,56 v 1 C 17,35.394022 34.394022,18 56,18 h 144 c 21.60598,0 39,17.394022 39,39 V 56 C 239,34.394022 221.60598,17 200,17 Z" />
</svg>
