<?xml version="1.0" encoding="UTF-8" standalone="no"?>
<!-- Created with Inkscape (http://www.inkscape.org/) -->

<svg
   width="256"
   height="256"
   viewBox="0 0 256 256.00001"
   version="1.1"
   id="svg5"
   sodipodi:docname="extensions.svg"
   inkscape:version="1.2.1 (9c6d41e410, 2022-07-14)"
   xmlns:inkscape="http://www.inkscape.org/namespaces/inkscape"
   xmlns:sodipodi="http://sodipodi.sourceforge.net/DTD/sodipodi-0.dtd"
   xmlns:xlink="http://www.w3.org/1999/xlink"
   xmlns="http://www.w3.org/2000/svg"
   xmlns:svg="http://www.w3.org/2000/svg">
  <sodipodi:namedview
     id="namedview7"
     pagecolor="#ffffff"
     bordercolor="#666666"
     borderopacity="1.0"
     inkscape:showpageshadow="2"
     inkscape:pageopacity="0.0"
     inkscape:pagecheckerboard="0"
     inkscape:deskcolor="#d1d1d1"
     inkscape:document-units="px"
     showgrid="false"
     inkscape:zoom="2.298097"
     inkscape:cx="70.493108"
     inkscape:cy="110.7438"
     inkscape:window-width="1920"
     inkscape:window-height="1009"
     inkscape:window-x="0"
     inkscape:window-y="0"
     inkscape:window-maximized="1"
     inkscape:current-layer="svg5"
     showguides="false" />
  <defs
     id="defs2">
    <linearGradient
       inkscape:collect="always"
       xlink:href="#linearGradient1270"
       id="linearGradient3525"
       x1="49.757847"
       y1="59.623318"
       x2="14.242153"
       y2="4.3766818"
       gradientUnits="userSpaceOnUse"
       gradientTransform="matrix(4.0545454,0,0,4.0545454,-1.745455,-1.745455)" />
    <linearGradient
       inkscape:collect="always"
       id="linearGradient1270">
      <stop
         style="stop-color:#80d935;stop-opacity:1;"
         offset="0"
         id="stop1266" />
      <stop
         style="stop-color:#afd65f;stop-opacity:1;"
         offset="1"
         id="stop1268" />
    </linearGradient>
  </defs>
  <rect
     style="fill:url(#linearGradient3525);fill-opacity:1.0;stroke:none;stroke-width:4.05454"
     id="rect184"
     width="223"
     height="223"
     x="16.5"
     y="16.5"
     ry="39.5" />
  <path
     id="rect395"
     style="opacity:0.2;fill:#000000;stroke-width:12;stroke-linecap:round;stroke-linejoin:round"
     d="m 124,45 c -11.07998,0 -20,8.920024 -20,20 V 77.000008 H 84 c -13.295972,0 -24,10.70402 -24,24.000002 v 20 h 12 c 11.079964,0 20,8.92002 20,20 C 92,152.07997 83.079964,161 72,161 H 60 v 20 c 0,13.29596 10.704028,24 24,24 h 20 v -12 c 0,-11.07998 8.92004,-20 20,-20 11.07997,0 20,8.92002 20,20 v 12 h 20 c 13.29598,0 24,-10.70404 24,-24 v -20 h 12 c 11.07998,0 20,-8.92003 20,-19.99999 0,-11.07998 -8.92002,-20 -20,-20 h -12 v -20 C 188,87.704028 177.29598,77.000008 164,77.000008 H 144 V 65 c 0,-11.079976 -8.92002,-20 -20,-20 z"
     sodipodi:nodetypes="sscsscssscsscssscsscssscsscss" />
  <path
     d="m 124,44 c -11.07998,0 -20,8.920024 -20,20 V 76 H 84 C 70.704028,76 60,86.704028 60,100.00001 v 20 h 12 c 11.079964,0 20,8.92004 20,20 C 92,151.07997 83.079964,160 72,160 H 60 v 20 c 0,13.29598 10.704028,24 24,24 h 20 v -12 c 0,-11.07998 8.92004,-20 20,-20 11.07997,0 20,8.92002 20,20 v 12 h 20 c 13.29598,0 24,-10.70402 24,-24 v -20 h 12 c 11.07998,0 20,-8.92001 20,-19.99999 0,-11.07998 -8.92002,-20 -20,-20 h -12 v -20 C 188,86.704028 177.29598,76.000004 164,76.000004 h -20 v -12 c 0,-11.079976 -8.92002,-20 -20,-20.000004 z"
     style="fill:#ffffff;stroke-width:12;stroke-linecap:round;stroke-linejoin:round"
     id="path1260" />
  <path
     id="rect899"
     style="fill:#000000;stroke:none;stroke-width:4;opacity:0.5"
     d="M 56,16 C 33.840066,16 16,33.840066 16,56 v 144 c 0,22.15994 17.840066,40 40,40 h 144 c 22.15994,0 40,-17.84006 40,-40 V 56 C 240,33.840066 222.15994,16 200,16 Z m 0,1 h 144 c 21.60598,0 39,17.394022 39,39 v 144 c 0,21.60598 -17.39402,39 -39,39 H 56 C 34.394022,239 17,221.60598 17,200 V 56 C 17,34.394022 34.394022,17 56,17 Z" />
  <path
     id="rect441"
     style="opacity:0.3;fill:#ffffff"
     d="m 17,199 v 1 c 0,21.60598 17.394022,39 39,39 h 144 c 21.60598,0 39,-17.39402 39,-39 v -1 c 0,21.60598 -17.39402,39 -39,39 H 56 C 34.394022,238 17,220.60598 17,199 Z" />
  <path
     id="rect443"
     style="opacity:0.3;fill:#ffffff"
     d="M 56,17 C 34.394022,17 17,34.394022 17,56 v 1 C 17,35.394022 34.394022,18 56,18 h 144 c 21.60598,0 39,17.394022 39,39 V 56 C 239,34.394022 221.60598,17 200,17 Z" />
</svg>
