<?xml version="1.0" encoding="UTF-8" standalone="no"?>
<!-- Created with Inkscape (http://www.inkscape.org/) -->

<svg
   width="256"
   height="256"
   viewBox="0 0 256 256.00001"
   version="1.1"
   id="svg5"
   sodipodi:docname="firefox.svg"
   inkscape:version="1.2 (1:1.2+202206011326+fc4e4096c5)"
   xmlns:inkscape="http://www.inkscape.org/namespaces/inkscape"
   xmlns:sodipodi="http://sodipodi.sourceforge.net/DTD/sodipodi-0.dtd"
   xmlns:xlink="http://www.w3.org/1999/xlink"
   xmlns="http://www.w3.org/2000/svg"
   xmlns:svg="http://www.w3.org/2000/svg">
  <sodipodi:namedview
     id="namedview7"
     pagecolor="#ffffff"
     bordercolor="#666666"
     borderopacity="1.0"
     inkscape:showpageshadow="2"
     inkscape:pageopacity="0.0"
     inkscape:pagecheckerboard="0"
     inkscape:deskcolor="#d1d1d1"
     inkscape:document-units="px"
     showgrid="false"
     inkscape:zoom="3.25"
     inkscape:cx="128"
     inkscape:cy="128"
     inkscape:window-width="1846"
     inkscape:window-height="1053"
     inkscape:window-x="0"
     inkscape:window-y="0"
     inkscape:window-maximized="1"
     inkscape:current-layer="svg5" />
  <defs
     id="defs2">
    <linearGradient
       inkscape:collect="always"
       xlink:href="#linearGradient3523"
       id="linearGradient3525"
       x1="49.757847"
       y1="59.623318"
       x2="14.242153"
       y2="4.3766818"
       gradientUnits="userSpaceOnUse"
       gradientTransform="matrix(4.0545454,0,0,4.0545454,-1.745455,-1.745455)" />
    <linearGradient
       inkscape:collect="always"
       id="linearGradient3523">
      <stop
         style="stop-color:#f94200;stop-opacity:1;"
         offset="0"
         id="stop3519" />
      <stop
         style="stop-color:#ffb439;stop-opacity:1;"
         offset="1"
         id="stop3521" />
    </linearGradient>
  </defs>
  <rect
     style="fill:url(#linearGradient3525);fill-opacity:1;stroke:none;stroke-width:4.05454"
     id="rect184"
     width="223"
     height="223"
     x="16.5"
     y="16.5"
     ry="39.5" />
  <path
     d="m 106.11881,95.537013 c 0.0524,0.0032 0.028,0.001 0,0 z M 86.827447,85.892651 c 0.0528,0.0022 0.028,0.001 0,0 z M 202.23686,100.78401 c -3.48164,-8.374321 -10.53332,-17.415999 -16.07032,-20.273359 4.50668,8.83336 7.115,17.69768 8.11168,24.311679 0,0.012 0.004,0.0452 0.016,0.1332 -9.05836,-22.577361 -24.41804,-31.682363 -36.96205,-51.504043 -0.63332,-1.00268 -1.26832,-2.00736 -1.887,-3.06668 -0.3152,-0.54092 -0.60936,-1.09376 -0.882,-1.657322 -0.51988,-1.0056 -0.92092,-2.06832 -1.195,-3.16668 0.004,-0.108 -0.0748,-0.2012 -0.182,-0.2148 -0.0492,-0.016 -0.1012,-0.016 -0.1504,0 -0.012,0.0032 -0.028,0.016 -0.04,0.02 -0.016,0.008 -0.04,0.024 -0.0588,0.032 0.008,-0.012 0.028,-0.04 0.032,-0.0452 -17.81236,10.433362 -25.19568,28.697684 -27.094,40.323364 -5.50348,0.3128 -10.89432,1.688322 -15.87468,4.051002 -0.9382,0.46416 -1.3754,1.56108 -1.01368,2.543358 0.3868,1.11912 1.65204,1.663482 2.73068,1.175 4.34524,-2.05024 9.03404,-3.27396 13.827,-3.60868 0.156,-0.012 0.3124,-0.02 0.46832,-0.032 0.65844,-0.04 1.31776,-0.0636 1.97736,-0.0704 3.88912,-0.028 7.76164,0.50924 11.497,1.59232 0.218,0.064 0.43168,0.138 0.64864,0.2052 0.62032,0.1896 1.23596,0.3944 1.84636,0.614 0.44656,0.166 0.8902,0.3396 1.33064,0.52136 0.358,0.1448 0.716,0.2892 1.06868,0.44368 0.55024,0.244 1.09484,0.500242 1.63336,0.768962 0.2476,0.1228 0.495,0.2452 0.739,0.3724 0.52576,0.276 1.04532,0.5634 1.55832,0.86232 0.3312,0.192 0.65916,0.3896 0.984,0.592 5.80284,3.58996 10.61808,8.571199 14.00937,14.492369 -4.27769,-3.00501 -11.93669,-5.97269 -19.31569,-4.68937 28.81369,14.40469 21.07801,64.00906 -18.84836,62.13605 -3.55556,-0.1448 -7.06924,-0.82252 -10.42368,-2.01032 -0.7934,-0.298 -1.57808,-0.6188 -2.353,-0.962 -0.452,-0.20599 -0.90368,-0.41432 -1.35032,-0.645 -9.783,-5.05601 -17.861043,-14.61101 -18.870363,-26.21436 0,0 3.69768,-13.77832 26.477683,-13.77832 2.46268,0 9.50268,-6.87136 9.63336,-8.86437 -0.028,-0.65099 -13.97236,-6.19668 -19.40768,-11.552 -2.90468,-2.86168 -4.28368,-4.240999 -5.50468,-5.276319 -0.66272,-0.559478 -1.3554,-1.08248 -2.075,-1.56668 -1.826043,-6.388122 -1.903683,-13.149322 -0.2248,-19.577684 -8.229003,3.747322 -14.630003,9.670322 -19.283005,14.900002 h -0.036 c -3.176,-4.02232 -2.95164,-17.291002 -2.77064,-20.061362 -0.04,-0.172 -2.369,1.21 -2.67468,1.418 -2.80216,2.00044 -5.42192,4.24472 -7.828682,6.706682 -2.73868,2.7772 -5.241,5.77792 -7.481,8.971 0,0.004 -0.0022,0.008 -0.0032,0.012 0,-0.004 0.0022,-0.008 0.0032,-0.012 -5.15108,7.300402 -8.804122,15.549321 -10.748002,24.270041 -0.02,0.0884 -0.76336,3.35132 -1.30668,7.38232 -0.092,0.62696 -0.1776,1.25488 -0.2564,1.88368 -0.186,1.212 -0.3308,2.53332 -0.47332,4.589 -0.008,0.0796 -0.012,0.158 -0.016,0.2372 -0.0596,0.88797 -0.1128,1.77632 -0.1604,2.66501 0,0.13679 -0.008,0.27199 -0.008,0.40899 0,44.23636 35.866684,80.09674 80.108049,80.09674 39.62173,0 72.51973,-28.7627 78.96073,-66.54338 0.1356,-1.025 0.244,-2.056 0.364,-3.09 1.59236,-13.73667 -0.1768,-28.17504 -5.196,-40.24904 z"
     style="display:inline;opacity:0.2;fill:#000000;stroke-width:0.333334;enable-background:new"
     id="path4039" />
  <path
     d="m 106.11881,94.536516 c 0.0524,0.0032 0.028,10e-4 0,0 z m -19.291363,-9.64436 c 0.0528,0.0022 0.028,0.001 0,0 z M 202.23686,99.783518 c -3.48164,-8.374324 -10.53332,-17.416002 -16.07032,-20.273364 4.50668,8.83336 7.115,17.697682 8.11168,24.311686 0,0.012 0.004,0.0452 0.016,0.1332 -9.05836,-22.577368 -24.41804,-31.682366 -36.96205,-51.504048 -0.63332,-1.002682 -1.26832,-2.007364 -1.887,-3.066682 -0.3152,-0.54092 -0.60936,-1.093762 -0.882,-1.65732 -0.51988,-1.0056 -0.92092,-2.06832 -1.195,-3.16668 0.004,-0.108 -0.0748,-0.2012 -0.182,-0.2148 -0.0492,-0.016 -0.1012,-0.016 -0.1504,0 -0.012,0.0032 -0.028,0.016 -0.04,0.02 -0.016,0.008 -0.04,0.024 -0.0588,0.032 0.008,-0.012 0.028,-0.04 0.032,-0.0452 -17.81236,10.43336 -25.19568,28.697682 -27.094,40.323364 -5.50348,0.312802 -10.89432,1.688322 -15.87468,4.051 -0.9382,0.464162 -1.3754,1.561082 -1.01368,2.54336 0.3868,1.11912 1.65204,1.66348 2.73068,1.175 4.34524,-2.05024 9.03404,-3.27396 13.827,-3.60868 0.156,-0.012 0.3124,-0.02 0.46832,-0.032 0.65844,-0.04 1.31776,-0.0636 1.97736,-0.0704 3.88912,-0.028 7.76164,0.50924 11.497,1.59232 0.218,0.064 0.43168,0.138 0.64864,0.2052 0.62032,0.1896 1.23596,0.3944 1.84636,0.614 0.44656,0.166 0.8902,0.3396 1.33064,0.52136 0.358,0.1448 0.716,0.2892 1.06868,0.44368 0.55024,0.244 1.09484,0.50024 1.63336,0.76896 0.2476,0.1228 0.495,0.2452 0.739,0.3724 0.52576,0.276 1.04532,0.5634 1.55832,0.86232 0.3312,0.192 0.65916,0.3896 0.984,0.592 5.80284,3.589962 10.61808,8.571206 14.00937,14.492366 -4.27769,-3.005 -11.93669,-5.97268 -19.31569,-4.68936 28.81369,14.40468 21.07801,64.00904 -18.84836,62.13605 -3.55556,-0.1448 -7.06924,-0.82251 -10.42368,-2.01034 -0.7934,-0.298 -1.57808,-0.61878 -2.353,-0.96198 -0.452,-0.206 -0.90368,-0.41433 -1.35032,-0.64502 -9.783,-5.056 -17.861043,-14.61099 -18.870363,-26.21435 0,0 3.69768,-13.77832 26.477683,-13.77832 2.46268,0 9.50268,-6.87136 9.63336,-8.86436 -0.028,-0.651 -13.97236,-6.19668 -19.40768,-11.552 -2.90468,-2.861684 -4.28368,-4.241004 -5.50468,-5.276324 -0.66272,-0.55948 -1.3554,-1.082482 -2.075,-1.566682 -1.826043,-6.38812 -1.903683,-13.14932 -0.2248,-19.577682 -8.229003,3.74732 -14.630003,9.670322 -19.283005,14.900002 h -0.036 c -3.176,-4.02232 -2.95164,-17.291002 -2.77064,-20.061362 -0.04,-0.172 -2.369,1.21 -2.67468,1.418 -2.80216,2.00044 -5.42192,4.24472 -7.828682,6.70668 -2.73868,2.777202 -5.241,5.777922 -7.481,8.971002 0,0.004 -0.0022,0.008 -0.0032,0.012 0,-0.004 0.0022,-0.008 0.0032,-0.012 -5.15108,7.3004 -8.804122,15.549326 -10.748002,24.270046 -0.02,0.0884 -0.76336,3.35132 -1.30668,7.38232 -0.092,0.62695 -0.1776,1.25488 -0.2564,1.88367 -0.186,1.21201 -0.3308,2.53333 -0.47332,4.589 -0.008,0.0796 -0.012,0.158 -0.016,0.2372 -0.0596,0.88797 -0.1128,1.77632 -0.1604,2.66501 0,0.13679 -0.008,0.272 -0.008,0.409 0,44.23636 35.866684,80.09673 80.108049,80.09673 39.62173,0 72.51973,-28.76268 78.96073,-66.54337 0.1356,-1.025 0.244,-2.05599 0.364,-3.09 1.59236,-13.73668 -0.1768,-28.17504 -5.196,-40.249044 z"
     style="display:inline;fill:#ffffff;stroke-width:0.333334;enable-background:new"
     id="path606"
     sodipodi:nodetypes="ccccccccccccccccccccccccccccccccccccccccscccccccccccccccccccsscccc" />
  <path
     id="rect899"
     style="fill:#000000;stroke:none;stroke-width:4;opacity:0.5"
     d="M 56,16 C 33.840066,16 16,33.840066 16,56 v 144 c 0,22.15994 17.840066,40 40,40 h 144 c 22.15994,0 40,-17.84006 40,-40 V 56 C 240,33.840066 222.15994,16 200,16 Z m 0,1 h 144 c 21.60598,0 39,17.394022 39,39 v 144 c 0,21.60598 -17.39402,39 -39,39 H 56 C 34.394022,239 17,221.60598 17,200 V 56 C 17,34.394022 34.394022,17 56,17 Z" />
  <path
     id="rect441"
     style="opacity:0.3;fill:#ffffff"
     d="m 17,199 v 1 c 0,21.60598 17.394022,39 39,39 h 144 c 21.60598,0 39,-17.39402 39,-39 v -1 c 0,21.60598 -17.39402,39 -39,39 H 56 C 34.394022,238 17,220.60598 17,199 Z" />
  <path
     id="rect443"
     style="opacity:0.3;fill:#ffffff"
     d="M 56,17 C 34.394022,17 17,34.394022 17,56 v 1 C 17,35.394022 34.394022,18 56,18 h 144 c 21.60598,0 39,17.394022 39,39 V 56 C 239,34.394022 221.60598,17 200,17 Z" />
</svg>
