<?xml version="1.0" encoding="UTF-8" standalone="no"?>
<!-- Created with Inkscape (http://www.inkscape.org/) -->

<svg
   width="256"
   height="256"
   viewBox="0 0 256 256.00001"
   version="1.1"
   id="svg5"
   sodipodi:docname="github.svg"
   inkscape:version="1.2.1 (9c6d41e410, 2022-07-14)"
   xmlns:inkscape="http://www.inkscape.org/namespaces/inkscape"
   xmlns:sodipodi="http://sodipodi.sourceforge.net/DTD/sodipodi-0.dtd"
   xmlns:xlink="http://www.w3.org/1999/xlink"
   xmlns="http://www.w3.org/2000/svg"
   xmlns:svg="http://www.w3.org/2000/svg">
  <sodipodi:namedview
     id="namedview7"
     pagecolor="#ffffff"
     bordercolor="#666666"
     borderopacity="1.0"
     inkscape:showpageshadow="2"
     inkscape:pageopacity="0.0"
     inkscape:pagecheckerboard="0"
     inkscape:deskcolor="#d1d1d1"
     inkscape:document-units="px"
     showgrid="false"
     inkscape:zoom="1"
     inkscape:cx="128.5"
     inkscape:cy="128"
     inkscape:window-width="1920"
     inkscape:window-height="1007"
     inkscape:window-x="0"
     inkscape:window-y="0"
     inkscape:window-maximized="1"
     inkscape:current-layer="svg5" />
  <defs
     id="defs2">
    <linearGradient
       inkscape:collect="always"
       xlink:href="#4852"
       id="linearGradient3525"
       x1="49.757847"
       y1="59.623318"
       x2="14.242153"
       y2="4.3766818"
       gradientUnits="userSpaceOnUse"
       gradientTransform="matrix(4.0545454,0,0,4.0545454,-1.745455,-1.745455)" />
    <linearGradient
       inkscape:collect="always"
       id="4852">
      <stop
         style="stop-color:#333333;stop-opacity:1"
         offset="0"
         id="stop14555" />
      <stop
         style="stop-color:#666666;stop-opacity:1"
         offset="1"
         id="stop14557" />
    </linearGradient>
  </defs>
  <rect
     style="fill:url(#linearGradient3525);fill-opacity:1.0;stroke:none;stroke-width:4.05454"
     id="rect184"
     width="223"
     height="223"
     x="16.5"
     y="16.5"
     ry="39.5" />
  <path
     d="M 128.00004,59.00001 C 89.2201,59.00001 58,90.22011 58,129.00006 c 0,34.51146 24.734092,63.01286 57.5098,68.8721 -0.0154,-5.69012 -0.0305,-11.57143 -0.0488,-14.72657 -18.224909,4.06239 -22.651386,-7.76367 -22.651386,-7.76367 -2.980661,-7.76948 -7.275395,-9.83886 -7.275395,-9.83886 -5.949098,-4.16948 0.444335,-4.08691 0.444335,-4.08691 6.576557,0.47446 10.034188,6.93357 10.034188,6.93357 5.844328,10.27534 15.857208,6.06229 19.589858,4.34085 0.59528,-4.34288 1.77223,-7.81688 3.64258,-9.49709 -14.54857,-1.69694 -31.24514,-7.46911 -31.24514,-33.23733 0,-7.33979 2.459221,-13.33921 6.650393,-18.03712 -0.675728,-1.70045 -2.932971,-8.54752 0.634764,-17.802747 4e-6,0 0.3437,-0.108115 1.05469,-0.14161 2.132436,-0.100485 6.928773,0.607491 16.313493,7.133787 5.75891,-1.671383 11.68385,-2.139564 17.39746,-2.153315 6.24574,-0.01505 12.23695,0.570727 17.48537,2.153315 9.38171,-6.526646 15.38432,-7.238171 17.51465,-7.13867 h 0.005 c 0.71013,0.03325 1.05469,0.146475 1.05469,0.146475 3.57574,9.255225 1.32115,16.097005 0.64942,17.797865 4.19891,4.69786 6.24012,10.70223 6.24012,18.04201 0,25.83424 -15.31958,31.52486 -29.91213,33.18852 2.34898,2.07641 4.94141,6.18033 4.94141,12.45115 0,5.33453 -0.0203,13.51978 -0.039,20.45412 C 176.96398,187.52494 198,160.82356 198,129.00004 198,90.2201 166.7799,59 127.99996,59 Z m 19.99025,137.08995 c -0.005,0.002 0,0.0105 0,0.014 1e-5,-0.004 -10e-6,-0.0105 0,-0.014 z"
     style="opacity:0.2;fill:#000000;stroke-width:2.50008"
     id="path676" />
  <path
     d="M 128.00004,58.00001 C 89.220101,58.00001 58,89.220111 58,128.00006 c 0,34.51145 24.734091,63.01286 57.5098,68.8721 -0.0154,-5.69012 -0.0305,-11.57142 -0.0488,-14.72657 -18.224909,4.06239 -22.651386,-7.76367 -22.651386,-7.76367 -2.980661,-7.76947 -7.275395,-9.83885 -7.275395,-9.83885 -5.949097,-4.16953 0.444335,-4.08693 0.444335,-4.08693 6.576557,0.47446 10.034188,6.93359 10.034188,6.93359 5.844328,10.27533 15.857208,6.06228 19.589858,4.34084 0.59528,-4.34287 1.77223,-7.81689 3.64258,-9.4971 -14.54857,-1.69694 -31.24514,-7.4691 -31.24514,-33.23733 0,-7.33978 2.459221,-13.3392 6.650394,-18.03711 -0.67573,-1.70045 -2.932972,-8.54752 0.634763,-17.802747 4e-6,0 0.3437,-0.108115 1.054691,-0.14161 2.132435,-0.100485 6.928772,0.607491 16.313482,7.133797 5.75892,-1.671393 11.68386,-2.139575 17.39747,-2.153326 6.24573,-0.01505 12.23695,0.570728 17.48537,2.153326 9.38172,-6.526656 15.38432,-7.238181 17.51466,-7.13868 h 0.004 c 0.71011,0.03325 1.05469,0.146475 1.05469,0.146475 3.57574,9.255225 1.32113,16.097005 0.64939,17.797865 4.19892,4.69786 6.24014,10.70222 6.24014,18.04201 0,25.8342 -15.31957,31.52485 -29.91212,33.18847 2.34897,2.07645 4.9414,6.18039 4.9414,12.4512 0,5.33453 -0.0203,13.51977 -0.0391,20.45411 C 176.96398,186.52494 198,159.82355 198,128.00004 198,89.220101 166.77989,58 127.99996,58 Z m 19.99025,137.08992 c -0.004,8.7e-4 0,0.0105 0,0.014 2e-5,-0.003 -10e-6,-0.0105 0,-0.014 z"
     style="fill:#ffffff;stroke-width:2.50008"
     id="path638"
     sodipodi:nodetypes="csccccccccscsccscccccscscsccccc" />
  <path
     id="rect899"
     style="fill:#000000;stroke:none;stroke-width:4;opacity:0.5"
     d="M 56,16 C 33.840066,16 16,33.840066 16,56 v 144 c 0,22.15994 17.840066,40 40,40 h 144 c 22.15994,0 40,-17.84006 40,-40 V 56 C 240,33.840066 222.15994,16 200,16 Z m 0,1 h 144 c 21.60598,0 39,17.394022 39,39 v 144 c 0,21.60598 -17.39402,39 -39,39 H 56 C 34.394022,239 17,221.60598 17,200 V 56 C 17,34.394022 34.394022,17 56,17 Z" />
  <path
     id="rect441"
     style="opacity:0.3;fill:#ffffff"
     d="m 17,199 v 1 c 0,21.60598 17.394022,39 39,39 h 144 c 21.60598,0 39,-17.39402 39,-39 v -1 c 0,21.60598 -17.39402,39 -39,39 H 56 C 34.394022,238 17,220.60598 17,199 Z" />
  <path
     id="rect443"
     style="opacity:0.3;fill:#ffffff"
     d="M 56,17 C 34.394022,17 17,34.394022 17,56 v 1 C 17,35.394022 34.394022,18 56,18 h 144 c 21.60598,0 39,17.394022 39,39 V 56 C 239,34.394022 221.60598,17 200,17 Z" />
</svg>
