<?xml version="1.0" encoding="UTF-8" standalone="no"?>
<!-- Created with Inkscape (http://www.inkscape.org/) -->

<svg
   width="256"
   height="256"
   viewBox="0 0 256 256.00001"
   version="1.1"
   id="svg5"
   sodipodi:docname="github.svg"
   inkscape:version="1.2 (dc2aedaf03, 2022-05-15)"
   xmlns:inkscape="http://www.inkscape.org/namespaces/inkscape"
   xmlns:sodipodi="http://sodipodi.sourceforge.net/DTD/sodipodi-0.dtd"
   xmlns:xlink="http://www.w3.org/1999/xlink"
   xmlns="http://www.w3.org/2000/svg"
   xmlns:svg="http://www.w3.org/2000/svg">
  <sodipodi:namedview
     id="namedview7"
     pagecolor="#ffffff"
     bordercolor="#666666"
     borderopacity="1.0"
     inkscape:showpageshadow="2"
     inkscape:pageopacity="0.0"
     inkscape:pagecheckerboard="0"
     inkscape:deskcolor="#d1d1d1"
     inkscape:document-units="px"
     showgrid="false"
     inkscape:zoom="3.03125"
     inkscape:cx="127.83505"
     inkscape:cy="128"
     inkscape:window-width="1920"
     inkscape:window-height="991"
     inkscape:window-x="0"
     inkscape:window-y="0"
     inkscape:window-maximized="1"
     inkscape:current-layer="svg5" />
  <defs
     id="defs2">
    <linearGradient
       inkscape:collect="always"
       xlink:href="#4852"
       id="linearGradient3525"
       x1="49.757847"
       y1="59.623318"
       x2="14.242153"
       y2="4.3766818"
       gradientUnits="userSpaceOnUse"
       gradientTransform="matrix(4.0545454,0,0,4.0545454,-1.745455,-1.745455)" />
    <linearGradient
       inkscape:collect="always"
       id="4852">
      <stop
         style="stop-color:#333333;stop-opacity:1"
         offset="0"
         id="stop14555" />
      <stop
         style="stop-color:#666666;stop-opacity:1"
         offset="1"
         id="stop14557" />
    </linearGradient>
  </defs>
  <rect
     style="fill:url(#linearGradient3525);fill-opacity:1.0;stroke:none;stroke-width:4.05454"
     id="rect184"
     width="223"
     height="223"
     x="16.5"
     y="16.5"
     ry="39.5" />
  <path
     d="M 128.00005,49.000012 C 83.680114,49.000012 48,84.680126 48,129.00007 c 0,39.44167 28.267534,72.01469 65.72549,78.71097 -0.0176,-6.503 -0.0348,-13.22449 -0.0558,-16.83037 -20.828466,4.64273 -25.887297,-8.87276 -25.887297,-8.87276 -3.40647,-8.87941 -8.314737,-11.24441 -8.314737,-11.24441 -6.798969,-4.76512 0.507812,-4.67076 0.507812,-4.67076 7.516065,0.54224 11.467643,7.92408 11.467643,7.92408 6.679232,11.74325 18.122529,6.92833 22.388409,4.96097 0.68032,-4.96329 2.02541,-8.93357 4.16295,-10.85381 -16.62694,-1.93936 -35.708733,-8.53613 -35.708733,-37.98552 0,-8.38833 2.810538,-15.24481 7.600449,-20.61385 -0.77226,-1.94338 -3.351966,-9.768602 0.725445,-20.346001 4e-6,0 0.3928,-0.12356 1.20536,-0.16184 2.43707,-0.11484 7.918593,0.694276 18.643989,8.152905 6.58161,-1.910157 13.35298,-2.445221 19.88282,-2.460937 7.13798,-0.0172 13.98508,0.65226 19.98327,2.460937 10.72196,-7.459029 17.58208,-8.272201 20.01675,-8.158485 h 0.006 c 0.81157,0.038 1.20536,0.1674 1.20536,0.1674 4.08656,10.577399 1.50988,18.396581 0.74219,20.340411 4.79875,5.36899 7.13157,12.23112 7.13157,20.61945 0,29.52484 -17.50809,36.02841 -34.18529,37.92973 2.68454,2.37304 5.64732,7.06324 5.64732,14.22989 0,6.0966 -0.0232,15.45117 -0.0446,23.37613 C 183.95883,195.88564 208,165.36978 208,129.00005 208,84.680114 172.31989,49 127.99995,49 Z m 22.846,156.674228 c -0.006,0.002 0,0.012 0,0.016 1e-5,-0.004 -2e-5,-0.012 0,-0.016 z"
     style="opacity:0.2;fill:#000000;stroke-width:2.85723"
     id="path676" />
  <path
     d="M 128.00005,48.000012 C 83.680115,48.000012 48,83.680127 48,128.00007 c 0,39.44166 28.267533,72.01469 65.72549,78.71097 -0.0176,-6.503 -0.0348,-13.22448 -0.0558,-16.83037 -20.828466,4.64273 -25.887297,-8.87276 -25.887297,-8.87276 -3.40647,-8.8794 -8.314737,-11.2444 -8.314737,-11.2444 -6.798968,-4.76518 0.507812,-4.67078 0.507812,-4.67078 7.516065,0.54224 11.467643,7.9241 11.467643,7.9241 6.679232,11.74324 18.122529,6.92832 22.388409,4.96096 0.68032,-4.96328 2.02541,-8.93358 4.16295,-10.85382 -16.62694,-1.93936 -35.708733,-8.53612 -35.708733,-37.98552 0,-8.38832 2.810538,-15.2448 7.60045,-20.61384 -0.772262,-1.94338 -3.351967,-9.768602 0.725444,-20.346001 4e-6,0 0.3928,-0.12356 1.205361,-0.16184 2.437069,-0.11484 7.918592,0.694276 18.643978,8.152906 6.58162,-1.910158 13.35299,-2.445223 19.88283,-2.460939 7.13797,-0.0172 13.98508,0.652261 19.98327,2.460939 10.72197,-7.45903 17.58209,-8.272202 20.01676,-8.158486 h 0.005 c 0.81156,0.038 1.20536,0.1674 1.20536,0.1674 4.08656,10.577399 1.50987,18.396581 0.74217,20.340411 4.79876,5.36899 7.13158,12.23112 7.13158,20.61945 0,29.5248 -17.50808,36.0284 -34.18528,37.92968 2.68454,2.37308 5.64732,7.0633 5.64732,14.22994 0,6.0966 -0.0232,15.45117 -0.0447,23.37613 C 183.95883,194.88564 208,164.36977 208,128.00005 208,83.680115 172.31988,48 127.99995,48 Z m 22.846,156.674188 c -0.005,10e-4 0,0.012 0,0.016 2e-5,-0.004 -2e-5,-0.012 0,-0.016 z"
     style="fill:#ffffff;stroke-width:2.85723"
     id="path638"
     sodipodi:nodetypes="csccccccccscsccscccccscscsccccc" />
  <path
     id="rect899"
     style="fill:#000000;stroke:none;stroke-width:4;opacity:0.5"
     d="M 56,16 C 33.840066,16 16,33.840066 16,56 v 144 c 0,22.15994 17.840066,40 40,40 h 144 c 22.15994,0 40,-17.84006 40,-40 V 56 C 240,33.840066 222.15994,16 200,16 Z m 0,1 h 144 c 21.60598,0 39,17.394022 39,39 v 144 c 0,21.60598 -17.39402,39 -39,39 H 56 C 34.394022,239 17,221.60598 17,200 V 56 C 17,34.394022 34.394022,17 56,17 Z" />
  <path
     id="rect441"
     style="opacity:0.3;fill:#ffffff"
     d="m 17,199 v 1 c 0,21.60598 17.394022,39 39,39 h 144 c 21.60598,0 39,-17.39402 39,-39 v -1 c 0,21.60598 -17.39402,39 -39,39 H 56 C 34.394022,238 17,220.60598 17,199 Z" />
  <path
     id="rect443"
     style="opacity:0.3;fill:#ffffff"
     d="M 56,17 C 34.394022,17 17,34.394022 17,56 v 1 C 17,35.394022 34.394022,18 56,18 h 144 c 21.60598,0 39,17.394022 39,39 V 56 C 239,34.394022 221.60598,17 200,17 Z" />
</svg>
