<?xml version="1.0" encoding="UTF-8" standalone="no"?>
<!-- Created with Inkscape (http://www.inkscape.org/) -->

<svg
   width="256"
   height="256"
   viewBox="0 0 256 256.00001"
   version="1.1"
   id="svg5"
   sodipodi:docname="github-desktop.svg"
   inkscape:version="1.2.1 (9c6d41e410, 2022-07-14)"
   xmlns:inkscape="http://www.inkscape.org/namespaces/inkscape"
   xmlns:sodipodi="http://sodipodi.sourceforge.net/DTD/sodipodi-0.dtd"
   xmlns:xlink="http://www.w3.org/1999/xlink"
   xmlns="http://www.w3.org/2000/svg"
   xmlns:svg="http://www.w3.org/2000/svg">
  <sodipodi:namedview
     id="namedview7"
     pagecolor="#ffffff"
     bordercolor="#666666"
     borderopacity="1.0"
     inkscape:showpageshadow="2"
     inkscape:pageopacity="0.0"
     inkscape:pagecheckerboard="0"
     inkscape:deskcolor="#d1d1d1"
     inkscape:document-units="px"
     showgrid="false"
     inkscape:zoom="2.298097"
     inkscape:cx="85.505529"
     inkscape:cy="87.463671"
     inkscape:window-width="1920"
     inkscape:window-height="1007"
     inkscape:window-x="0"
     inkscape:window-y="0"
     inkscape:window-maximized="1"
     inkscape:current-layer="svg5" />
  <defs
     id="defs2">
    <linearGradient
       inkscape:collect="always"
       xlink:href="#linearGradient3523"
       id="linearGradient3525"
       x1="49.757847"
       y1="59.623318"
       x2="14.242153"
       y2="4.3766818"
       gradientUnits="userSpaceOnUse"
       gradientTransform="matrix(4.0545454,0,0,4.0545454,-1.745455,-1.745455)" />
    <linearGradient
       inkscape:collect="always"
       id="linearGradient3523">
      <stop
         style="stop-color:#7937ac;stop-opacity:1;"
         offset="0"
         id="stop3519" />
      <stop
         style="stop-color:#ac37a4;stop-opacity:1;"
         offset="1"
         id="stop3521" />
    </linearGradient>
  </defs>
  <rect
     style="fill:url(#linearGradient3525);fill-opacity:1.0;stroke:none;stroke-width:4.05454"
     id="rect184"
     width="223"
     height="223"
     x="16.5"
     y="16.5"
     ry="39.5" />
  <path
     id="rect899"
     style="fill:#000000;stroke:none;stroke-width:4;opacity:0.5"
     d="M 56,16 C 33.840066,16 16,33.840066 16,56 v 144 c 0,22.15994 17.840066,40 40,40 h 144 c 22.15994,0 40,-17.84006 40,-40 V 56 C 240,33.840066 222.15994,16 200,16 Z m 0,1 h 144 c 21.60598,0 39,17.394022 39,39 v 144 c 0,21.60598 -17.39402,39 -39,39 H 56 C 34.394022,239 17,221.60598 17,200 V 56 C 17,34.394022 34.394022,17 56,17 Z" />
  <path
     id="rect441"
     style="opacity:0.3;fill:#ffffff"
     d="m 17,199 v 1 c 0,21.60598 17.394022,39 39,39 h 144 c 21.60598,0 39,-17.39402 39,-39 v -1 c 0,21.60598 -17.39402,39 -39,39 H 56 C 34.394022,238 17,220.60598 17,199 Z" />
  <path
     id="rect443"
     style="opacity:0.3;fill:#ffffff"
     d="M 56,17 C 34.394022,17 17,34.394022 17,56 v 1 C 17,35.394022 34.394022,18 56,18 h 144 c 21.60598,0 39,17.394022 39,39 V 56 C 239,34.394022 221.60598,17 200,17 Z" />
  <path
     d="M 125.99986,60.000011 C 87.220019,60.000011 56,91.220024 56,129.99987 c 0,34.51135 24.734029,63.01268 57.50964,68.87192 -0.0158,-5.69012 -0.0305,-11.57143 -0.0488,-14.72655 -18.22485,4.06239 -22.651305,-7.76365 -22.651305,-7.76365 -2.980662,-7.76945 -7.275379,-9.83884 -7.275379,-9.83884 -5.94909,-4.16948 0.444325,-4.08692 0.444325,-4.08692 6.576551,0.4745 10.034175,6.93359 10.034175,6.93359 5.844301,10.2753 15.857164,6.06225 19.589794,4.34081 0.59528,-4.34286 1.77224,-7.81684 3.64257,-9.49705 -14.54852,-1.69695 -31.24505,-7.46907 -31.24505,-33.23722 0,-7.33977 2.459216,-13.33918 6.650367,-18.03707 -0.675726,-1.70045 -2.932957,-8.5475 0.634776,-17.802703 0,0 0.343681,-0.108115 1.054687,-0.14161 2.132421,-0.100485 6.92874,0.60749 16.31344,7.133773 5.75888,-1.67138 11.68382,-2.13956 17.39741,-2.153315 6.24572,-0.01505 12.23692,0.570725 17.48533,2.153315 9.38169,-6.526633 15.38428,-7.238157 17.5146,-7.138656 h 0.005 c 0.71013,0.03325 1.05469,0.146475 1.05469,0.146475 3.57573,9.255201 1.32114,16.096961 0.6494,17.797811 4.1989,4.69785 6.24012,10.7022 6.24012,18.04196 0,25.83414 -15.31953,31.52475 -29.91206,33.18839 2.34899,2.07645 4.94141,6.18036 4.94141,12.45115 0,5.33452 -0.0203,13.51973 -0.039,20.45409 C 174.96403,188.52457 196,161.82328 196,129.99985 196,91.220013 164.77998,60.000001 126.00014,60.000001 Z m 19.9902,137.089559 c -0.005,0.002 0,0.0105 0,0.014 0,-0.005 -4e-5,-0.0105 0,-0.014 z"
     style="opacity:0.2;fill:#000000;stroke-width:2.50006"
     id="path676" />
  <path
     d="M 125.99986,58.00001 C 87.220017,58.00001 56,89.220027 56,127.99987 c 0,34.51135 24.734027,63.01266 57.50964,68.8719 -0.0157,-5.69011 -0.0306,-11.57141 -0.049,-14.72653 -18.224853,4.06237 -22.65131,-7.76367 -22.65131,-7.76367 -2.980663,-7.76945 -7.27538,-9.83883 -7.27538,-9.83883 -5.94909,-4.16947 0.444323,-4.08689 0.444323,-4.08689 6.576554,0.47451 10.034177,6.93355 10.034177,6.93355 5.8443,10.27532 15.85716,6.06226 19.5898,4.34082 0.59526,-4.34287 1.77223,-7.81685 3.64256,-9.49704 -14.54852,-1.69694 -31.24504,-7.46908 -31.24504,-33.23724 0,-7.33975 2.459213,-13.33916 6.650357,-18.03706 -0.675674,-1.70044 -2.932957,-8.54749 0.634813,-17.802693 0,0 0.3437,-0.108162 1.05469,-0.141569 2.13242,-0.100462 6.92874,0.607511 16.31344,7.133772 5.75888,-1.671385 11.68382,-2.139571 17.39741,-2.153316 6.24572,-0.01497 12.23692,0.570761 17.48533,2.153316 9.38169,-6.526636 15.38428,-7.238161 17.5146,-7.138655 h 0.005 c 0.71015,0.03326 1.05469,0.146469 1.05469,0.146469 3.57573,9.255196 1.32114,16.096966 0.64942,17.797806 4.1989,4.69786 6.24011,10.7022 6.24011,18.04197 0,25.83414 -15.31952,31.52474 -29.91205,33.18839 2.34899,2.07643 4.94141,6.18033 4.94141,12.45114 0,5.33452 -0.02,13.51971 -0.0394,20.45408 C 174.96403,186.52454 196,159.82328 196,127.99985 196,89.22001 164.77998,58 126.00014,58 Z m 19.9902,137.08956 c -0.005,0.002 0,0.01 0,0.0145 0,-0.005 -4e-5,-0.01 0,-0.0145 z"
     style="fill:#ffffff;stroke-width:2.50006"
     id="path638"
     sodipodi:nodetypes="csccccccccscsccscccccscscsccccc" />
</svg>
