<?xml version="1.0" encoding="UTF-8" standalone="no"?>
<!-- Created with Inkscape (http://www.inkscape.org/) -->

<svg
   width="256"
   height="256"
   viewBox="0 0 256 256.00001"
   version="1.1"
   id="svg5"
   sodipodi:docname="github-desktop.svg"
   inkscape:version="1.2 (dc2aedaf03, 2022-05-15)"
   xmlns:inkscape="http://www.inkscape.org/namespaces/inkscape"
   xmlns:sodipodi="http://sodipodi.sourceforge.net/DTD/sodipodi-0.dtd"
   xmlns:xlink="http://www.w3.org/1999/xlink"
   xmlns="http://www.w3.org/2000/svg"
   xmlns:svg="http://www.w3.org/2000/svg">
  <sodipodi:namedview
     id="namedview7"
     pagecolor="#ffffff"
     bordercolor="#666666"
     borderopacity="1.0"
     inkscape:showpageshadow="2"
     inkscape:pageopacity="0.0"
     inkscape:pagecheckerboard="0"
     inkscape:deskcolor="#d1d1d1"
     inkscape:document-units="px"
     showgrid="false"
     inkscape:zoom="2.298097"
     inkscape:cx="85.070386"
     inkscape:cy="87.463671"
     inkscape:window-width="1920"
     inkscape:window-height="1007"
     inkscape:window-x="0"
     inkscape:window-y="0"
     inkscape:window-maximized="1"
     inkscape:current-layer="svg5" />
  <defs
     id="defs2">
    <linearGradient
       inkscape:collect="always"
       xlink:href="#linearGradient3523"
       id="linearGradient3525"
       x1="49.757847"
       y1="59.623318"
       x2="14.242153"
       y2="4.3766818"
       gradientUnits="userSpaceOnUse"
       gradientTransform="matrix(4.0545454,0,0,4.0545454,-1.745455,-1.745455)" />
    <linearGradient
       inkscape:collect="always"
       id="linearGradient3523">
      <stop
         style="stop-color:#7937ac;stop-opacity:1;"
         offset="0"
         id="stop3519" />
      <stop
         style="stop-color:#ac37a4;stop-opacity:1;"
         offset="1"
         id="stop3521" />
    </linearGradient>
  </defs>
  <rect
     style="fill:url(#linearGradient3525);fill-opacity:1.0;stroke:none;stroke-width:4.05454"
     id="rect184"
     width="223"
     height="223"
     x="16.5"
     y="16.5"
     ry="39.5" />
  <path
     id="rect899"
     style="fill:#000000;stroke:none;stroke-width:4;opacity:0.5"
     d="M 56,16 C 33.840066,16 16,33.840066 16,56 v 144 c 0,22.15994 17.840066,40 40,40 h 144 c 22.15994,0 40,-17.84006 40,-40 V 56 C 240,33.840066 222.15994,16 200,16 Z m 0,1 h 144 c 21.60598,0 39,17.394022 39,39 v 144 c 0,21.60598 -17.39402,39 -39,39 H 56 C 34.394022,239 17,221.60598 17,200 V 56 C 17,34.394022 34.394022,17 56,17 Z" />
  <path
     id="rect441"
     style="opacity:0.3;fill:#ffffff"
     d="m 17,199 v 1 c 0,21.60598 17.394022,39 39,39 h 144 c 21.60598,0 39,-17.39402 39,-39 v -1 c 0,21.60598 -17.39402,39 -39,39 H 56 C 34.394022,238 17,220.60598 17,199 Z" />
  <path
     id="rect443"
     style="opacity:0.3;fill:#ffffff"
     d="M 56,17 C 34.394022,17 17,34.394022 17,56 v 1 C 17,35.394022 34.394022,18 56,18 h 144 c 21.60598,0 39,17.394022 39,39 V 56 C 239,34.394022 221.60598,17 200,17 Z" />
  <path
     d="M 127.99984,50.000013 C 83.680022,50.000013 48,85.680027 48,129.99985 c 0,39.44154 28.267462,72.01449 65.7253,78.71077 -0.018,-6.503 -0.0348,-13.2245 -0.0558,-16.83035 -20.828403,4.64273 -25.887209,-8.87274 -25.887209,-8.87274 -3.406471,-8.87937 -8.314718,-11.24439 -8.314718,-11.24439 -6.798961,-4.76512 0.507799,-4.67076 0.507799,-4.67076 7.516059,0.54228 11.467629,7.9241 11.467629,7.9241 6.679201,11.7432 18.122469,6.92828 22.388339,4.96092 0.68032,-4.96326 2.02541,-8.93353 4.16293,-10.85377 -16.62688,-1.93937 -35.708624,-8.53608 -35.708624,-37.98539 0,-8.38831 2.810532,-15.24478 7.600419,-20.6138 -0.772258,-1.94337 -3.351951,-9.76857 0.725458,-20.345941 0,0 0.392779,-0.12356 1.205357,-0.16184 2.437053,-0.11484 7.918558,0.694274 18.64393,8.152882 6.58158,-1.910151 13.35294,-2.445214 19.88276,-2.46093 7.13796,-0.0172 13.98505,0.652259 19.98323,2.46093 10.72193,-7.459008 17.58203,-8.272178 20.01668,-8.158462 h 0.006 c 0.81158,0.038 1.20536,0.1674 1.20536,0.1674 4.08655,10.577371 1.50988,18.396531 0.74218,20.340351 4.79874,5.36898 7.13156,12.23109 7.13156,20.61939 0,29.52473 -17.50803,36.02828 -34.18521,37.92959 2.68456,2.37308 5.64733,7.06326 5.64733,14.22988 0,6.09659 -0.0232,15.45112 -0.0446,23.3761 C 183.95889,196.88522 208,166.36946 208,129.99983 208,85.680015 172.31998,50.000001 128.00016,50.000001 Z m 22.84594,156.673777 c -0.006,0.002 0,0.012 0,0.016 0,-0.006 -4e-5,-0.012 0,-0.016 z"
     style="opacity:0.2;fill:#000000;stroke-width:2.85721"
     id="path676" />
  <path
     d="M 127.99984,48.00001 C 83.68002,48.00001 48,83.68003 48,127.99985 c 0,39.44154 28.26746,72.01447 65.7253,78.71075 -0.018,-6.50298 -0.035,-13.22448 -0.056,-16.83033 -20.8284,4.64271 -25.88721,-8.87276 -25.88721,-8.87276 -3.40647,-8.87937 -8.31472,-11.24438 -8.31472,-11.24438 -6.79896,-4.76511 0.5078,-4.67073 0.5078,-4.67073 7.51606,0.5423 11.46763,7.92406 11.46763,7.92406 6.6792,11.74322 18.12247,6.9283 22.38834,4.96094 0.6803,-4.96328 2.02541,-8.93355 4.16293,-10.85377 -16.62688,-1.93935 -35.70862,-8.53609 -35.70862,-37.98541 0,-8.38829 2.81053,-15.24476 7.60041,-20.61378 -0.7722,-1.94337 -3.35195,-9.76857 0.7255,-20.34594 0,0 0.3928,-0.1236 1.20536,-0.1618 2.43705,-0.1148 7.91856,0.6943 18.64393,8.15288 6.58158,-1.91015 13.35294,-2.44522 19.88276,-2.46093 7.13796,-0.017 13.98505,0.6523 19.98323,2.46093 10.72193,-7.45901 17.58203,-8.27218 20.01668,-8.15846 h 0.006 c 0.8116,0.038 1.20536,0.1674 1.20536,0.1674 4.08655,10.57737 1.50988,18.39653 0.7422,20.34035 4.79874,5.36898 7.13156,12.23109 7.13156,20.61939 0,29.52474 -17.50803,36.02828 -34.18521,37.92959 2.68456,2.37306 5.64733,7.06324 5.64733,14.22988 0,6.09659 -0.023,15.4511 -0.045,23.37608 C 183.95889,194.8852 208,164.36946 208,127.99983 208,83.68001 172.31998,48 128.00016,48 Z m 22.84594,156.67378 c -0.006,0.002 0,0.012 0,0.016 0,-0.006 -4e-5,-0.012 0,-0.016 z"
     style="fill:#ffffff;stroke-width:2.85721"
     id="path638"
     sodipodi:nodetypes="csccccccccscsccscccccscscsccccc" />
</svg>
