<?xml version="1.0" encoding="UTF-8" standalone="no"?>
<!-- Created with Inkscape (http://www.inkscape.org/) -->

<svg
   width="256"
   height="256"
   viewBox="0 0 256 256.00001"
   version="1.1"
   id="svg5"
   sodipodi:docname="gmail.svg"
   inkscape:version="1.2.1 (9c6d41e410, 2022-07-14)"
   xmlns:inkscape="http://www.inkscape.org/namespaces/inkscape"
   xmlns:sodipodi="http://sodipodi.sourceforge.net/DTD/sodipodi-0.dtd"
   xmlns="http://www.w3.org/2000/svg"
   xmlns:svg="http://www.w3.org/2000/svg">
  <sodipodi:namedview
     id="namedview7"
     pagecolor="#ffffff"
     bordercolor="#666666"
     borderopacity="1.0"
     inkscape:showpageshadow="2"
     inkscape:pageopacity="0.0"
     inkscape:pagecheckerboard="0"
     inkscape:deskcolor="#d1d1d1"
     inkscape:document-units="px"
     showgrid="false"
     inkscape:zoom="3.5357143"
     inkscape:cx="128.26263"
     inkscape:cy="128.12121"
     inkscape:window-width="1920"
     inkscape:window-height="1002"
     inkscape:window-x="0"
     inkscape:window-y="0"
     inkscape:window-maximized="1"
     inkscape:current-layer="svg5" />
  <defs
     id="defs2" />
  <rect
     style="fill:#f5f5f5;fill-opacity:1;stroke:none;stroke-width:4.05454"
     id="rect184"
     width="223"
     height="223"
     x="16.5"
     y="16.5"
     ry="39.5" />
  <path
     d="M 58.8,188 H 83.999996 V 118.19696 L 48,90.930914 V 177.09358 C 48,183.11938 52.833,188 58.8,188 Z"
     style="fill:#4285f4;stroke-width:4"
     id="path523"
     sodipodi:nodetypes="scccss" />
  <path
     d="m 172,188 h 25.2 c 5.967,0 10.8,-4.88062 10.8,-10.90642 V 90.930914 l -36,27.266046 z"
     style="fill:#34a853;stroke-width:4"
     id="path391"
     sodipodi:nodetypes="cssccc" />
  <path
     d="M 73.92,118.56247 V 71.301318 L 128,111.63637 182.08,71.301314 V 118.56247 L 128,158.90908 Z"
     style="fill:#ea4335;stroke-width:4"
     id="path457"
     sodipodi:nodetypes="ccccccc" />
  <path
     d="m 172,78.93581 v 47.26115 L 208,98.930914 V 84.389018 C 208,70.910502 192.763,63.212386 182.08,71.301314 Z"
     style="fill:#fbbc04;stroke-width:4"
     id="path424" />
  <path
     d="M 48,84.389018 V 98.930914 L 83.999996,126.19696 V 78.93581 L 73.92,71.301318 C 63.237,63.21239 48,70.910518 48,84.389018 Z"
     style="fill:#c5221f;stroke-width:4"
     id="path490" />
  <path
     id="rect899"
     style="fill:#000000;stroke:none;stroke-width:4;opacity:0.5"
     d="M 56,16 C 33.840066,16 16,33.840066 16,56 v 144 c 0,22.15994 17.840066,40 40,40 h 144 c 22.15994,0 40,-17.84006 40,-40 V 56 C 240,33.840066 222.15994,16 200,16 Z m 0,1 h 144 c 21.60598,0 39,17.394022 39,39 v 144 c 0,21.60598 -17.39402,39 -39,39 H 56 C 34.394022,239 17,221.60598 17,200 V 56 C 17,34.394022 34.394022,17 56,17 Z" />
  <path
     id="rect441"
     style="opacity:0.3;fill:#ffffff"
     d="m 17,199 v 1 c 0,21.60598 17.394022,39 39,39 h 144 c 21.60598,0 39,-17.39402 39,-39 v -1 c 0,21.60598 -17.39402,39 -39,39 H 56 C 34.394022,238 17,220.60598 17,199 Z" />
  <path
     id="rect443"
     style="opacity:0.3;fill:#ffffff"
     d="M 56,17 C 34.394022,17 17,34.394022 17,56 v 1 C 17,35.394022 34.394022,18 56,18 h 144 c 21.60598,0 39,17.394022 39,39 V 56 C 239,34.394022 221.60598,17 200,17 Z" />
</svg>
