<?xml version="1.0" encoding="UTF-8" standalone="no"?>
<!-- Created with Inkscape (http://www.inkscape.org/) -->

<svg
   width="256"
   height="256"
   viewBox="0 0 256 256.00001"
   version="1.1"
   id="svg5"
   sodipodi:docname="gnome-boxes.svg"
   inkscape:version="1.2.1 (9c6d41e410, 2022-07-14)"
   xmlns:inkscape="http://www.inkscape.org/namespaces/inkscape"
   xmlns:sodipodi="http://sodipodi.sourceforge.net/DTD/sodipodi-0.dtd"
   xmlns:xlink="http://www.w3.org/1999/xlink"
   xmlns="http://www.w3.org/2000/svg"
   xmlns:svg="http://www.w3.org/2000/svg">
  <sodipodi:namedview
     id="namedview7"
     pagecolor="#ffffff"
     bordercolor="#666666"
     borderopacity="1.0"
     inkscape:showpageshadow="2"
     inkscape:pageopacity="0.0"
     inkscape:pagecheckerboard="0"
     inkscape:deskcolor="#d1d1d1"
     inkscape:document-units="px"
     showgrid="false"
     inkscape:zoom="2.298097"
     inkscape:cx="85.505529"
     inkscape:cy="87.463671"
     inkscape:window-width="1920"
     inkscape:window-height="1002"
     inkscape:window-x="0"
     inkscape:window-y="0"
     inkscape:window-maximized="1"
     inkscape:current-layer="svg5" />
  <defs
     id="defs2">
    <linearGradient
       inkscape:collect="always"
       xlink:href="#4852"
       id="linearGradient3525"
       x1="49.757847"
       y1="59.623318"
       x2="14.242153"
       y2="4.3766818"
       gradientUnits="userSpaceOnUse"
       gradientTransform="matrix(4.0545454,0,0,4.0545454,-1.745455,-1.745455)" />
    <linearGradient
       inkscape:collect="always"
       id="4852">
      <stop
         style="stop-color:#333333;stop-opacity:1"
         offset="0"
         id="stop14555" />
      <stop
         style="stop-color:#666666;stop-opacity:1"
         offset="1"
         id="stop14557" />
    </linearGradient>
  </defs>
  <rect
     style="fill:url(#linearGradient3525);fill-opacity:1.0;stroke:none;stroke-width:4.05454"
     id="rect184"
     width="223"
     height="223"
     x="16.5"
     y="16.5"
     ry="39.5" />
  <path
     d="M 68.000013,49.00001 C 56.954286,49.00001 48,57.954336 48,69.000023 c 0.0039,7.948844 4.714763,15.140889 12.000008,18.320411 V 170.67981 C 52.714763,173.85933 48.00392,181.05133 48,189.00022 c 0,11.04568 8.954286,19.99997 20.000013,19.99997 7.948844,-0.004 15.140849,-4.71472 18.320371,-11.99997 h 83.359376 c 3.17952,7.28517 10.37148,11.99601 18.32029,11.99997 11.0457,0 19.99995,-8.95429 19.99995,-19.99997 -8.4e-4,-7.95169 -4.71216,-15.14749 -12.00001,-18.32817 V 87.320434 C 203.28528,84.140912 207.99608,76.948867 208,69.000023 208,57.954336 199.04571,49.00001 188.00005,49.00001 c -7.94881,0.004 -15.14077,4.714803 -18.32029,12.000008 H 86.328144 C 83.147462,53.712213 75.951657,49.00089 68.000013,49.00001 Z m 18.320371,28.000018 h 83.359376 c 0.4522,1.03052 0.99056,2.021001 1.60932,2.960961 l -14.17185,14.171849 c -1.55056,-0.72828 -3.28468,-1.1328 -5.1172,-1.1328 -5.24373,0 -9.67961,3.330922 -11.32029,8.000002 H 115.3204 c -1.6408,-4.66908 -6.07664,-8.000002 -11.32041,-8.000002 -1.8324,0 -3.56652,0.40452 -5.117198,1.1328 L 84.710943,79.960989 c 0.61884,-0.93996 1.157241,-1.930441 1.609441,-2.960961 z m -7.359445,8.710925 14.171849,14.171889 c -0.72824,1.550678 -1.132801,3.284798 -1.132801,5.117208 0,5.24372 3.330963,9.67972 8.000005,11.3204 v 25.35934 c -4.669042,1.64068 -8.000005,6.07668 -8.000005,11.32029 0,1.83252 0.404561,3.56664 1.132801,5.1172 l -14.164009,14.16413 c -0.94244,-0.6192 -1.935601,-1.15756 -2.968761,-1.60936 V 87.320434 c 1.03048,-0.45224 2.020961,-0.990641 2.960921,-1.609481 z m 98.078141,0 c 0.93996,0.61884 1.93044,1.157241 2.96096,1.609481 v 83.359376 c -1.03052,0.45216 -2.021,0.99052 -2.96096,1.60932 l -14.17185,-14.17185 c 0.7284,-1.55056 1.1328,-3.28468 1.1328,-5.1172 0,-5.24361 -3.3308,-9.67961 -8,-11.32029 v -25.35934 c 4.6692,-1.64068 8,-6.07668 8,-11.3204 0,-1.83241 -0.4044,-3.56653 -1.1328,-5.117208 z M 115.3204,109.00005 h 25.35934 c 1.20136,3.4188 3.9016,6.11908 7.32028,7.3204 v 25.35934 c -3.41868,1.20132 -6.11892,3.9016 -7.32028,7.32028 H 115.3204 c -1.20132,-3.41868 -3.9016,-6.11896 -7.3204,-7.32028 v -25.35934 c 3.4188,-1.20132 6.11908,-3.9016 7.3204,-7.3204 z m 0,48.00003 h 25.35934 c 1.64068,4.6692 6.07656,7.99996 11.32029,7.99996 1.83252,0 3.56664,-0.4044 5.1172,-1.1328 l 14.17185,14.17189 c -0.61876,0.93996 -1.15712,1.93044 -1.60932,2.96092 H 86.328144 c -0.4518,-1.03316 -0.990161,-2.02624 -1.609361,-2.96864 l 14.164009,-14.16417 c 1.550678,0.7284 3.284798,1.1328 5.117198,1.1328 5.24377,0 9.67961,-3.33076 11.32041,-7.99996 z"
     style="color:#000000;display:inline;overflow:visible;visibility:visible;opacity:0.2;fill:#000000;fill-opacity:1;fill-rule:nonzero;stroke:none;stroke-width:8;marker:none;enable-background:new"
     id="path2247" />
  <path
     d="M 68.000013,48 C 56.954286,48 48,56.954326 48,68.000013 c 0.0039,7.948844 4.714763,15.140889 12.000008,18.320411 V 169.6798 C 52.714763,172.85932 48.00392,180.05132 48,188.00021 c 0,11.04568 8.954286,19.99997 20.000013,19.99997 7.948844,-0.004 15.140849,-4.71472 18.320371,-11.99997 h 83.359376 c 3.17952,7.28517 10.37148,11.99601 18.32029,11.99997 11.0457,0 19.99995,-8.95429 19.99995,-19.99997 -8.4e-4,-7.95169 -4.71216,-15.14749 -12.00001,-18.32817 V 86.320424 C 203.28528,83.140902 207.99608,75.948857 208,68.000013 208,56.954326 199.04571,48 188.00005,48 c -7.94881,0.004 -15.14077,4.714803 -18.32029,12.000008 H 86.328144 C 83.147462,52.712203 75.951657,48.00088 68.000013,48 Z m 18.320371,28.000018 h 83.359376 c 0.4522,1.03052 0.99056,2.021001 1.60932,2.960961 l -14.17185,14.171849 c -1.55056,-0.72828 -3.28468,-1.1328 -5.1172,-1.1328 -5.24373,0 -9.67961,3.330922 -11.32029,8.000002 H 115.3204 c -1.6408,-4.66908 -6.07664,-8.000002 -11.32041,-8.000002 -1.8324,0 -3.56652,0.40452 -5.117198,1.1328 L 84.710943,78.960979 c 0.61884,-0.93996 1.157241,-1.930441 1.609441,-2.960961 z m -7.359445,8.710925 14.171849,14.171889 c -0.72824,1.550678 -1.132801,3.284798 -1.132801,5.117208 0,5.24372 3.330963,9.67972 8.000005,11.3204 v 25.35934 c -4.669042,1.64068 -8.000005,6.07668 -8.000005,11.32029 0,1.83252 0.404561,3.56664 1.132801,5.1172 L 78.968779,171.2814 c -0.94244,-0.6192 -1.935601,-1.15756 -2.968761,-1.60936 V 86.320424 c 1.03048,-0.45224 2.020961,-0.990641 2.960921,-1.609481 z m 98.078141,0 c 0.93996,0.61884 1.93044,1.157241 2.96096,1.609481 V 169.6798 c -1.03052,0.45216 -2.021,0.99052 -2.96096,1.60932 l -14.17185,-14.17185 c 0.7284,-1.55056 1.1328,-3.28468 1.1328,-5.1172 0,-5.24361 -3.3308,-9.67961 -8,-11.32029 v -25.35934 c 4.6692,-1.64068 8,-6.07668 8,-11.3204 0,-1.83241 -0.4044,-3.56653 -1.1328,-5.117208 z M 115.3204,108.00004 h 25.35934 c 1.20136,3.4188 3.9016,6.11908 7.32028,7.3204 v 25.35934 c -3.41868,1.20132 -6.11892,3.9016 -7.32028,7.32028 H 115.3204 c -1.20132,-3.41868 -3.9016,-6.11896 -7.3204,-7.32028 v -25.35934 c 3.4188,-1.20132 6.11908,-3.9016 7.3204,-7.3204 z m 0,48.00003 h 25.35934 c 1.64068,4.6692 6.07656,7.99996 11.32029,7.99996 1.83252,0 3.56664,-0.4044 5.1172,-1.1328 l 14.17185,14.17189 c -0.61876,0.93996 -1.15712,1.93044 -1.60932,2.96092 H 86.328144 c -0.4518,-1.03316 -0.990161,-2.02624 -1.609361,-2.96864 l 14.164009,-14.16417 c 1.550678,0.7284 3.284798,1.1328 5.117198,1.1328 5.24377,0 9.67961,-3.33076 11.32041,-7.99996 z"
     style="color:#000000;display:inline;overflow:visible;visibility:visible;fill:#ffffff;fill-opacity:1;fill-rule:nonzero;stroke:none;stroke-width:8;marker:none;enable-background:new"
     id="path2182"
     sodipodi:nodetypes="cccccccccccccccccccccsccscccccsccsccccccccccsccscccccccccccccsccccccsc" />
  <path
     id="rect899"
     style="fill:#000000;stroke:none;stroke-width:4;opacity:0.5"
     d="M 56,16 C 33.840066,16 16,33.840066 16,56 v 144 c 0,22.15994 17.840066,40 40,40 h 144 c 22.15994,0 40,-17.84006 40,-40 V 56 C 240,33.840066 222.15994,16 200,16 Z m 0,1 h 144 c 21.60598,0 39,17.394022 39,39 v 144 c 0,21.60598 -17.39402,39 -39,39 H 56 C 34.394022,239 17,221.60598 17,200 V 56 C 17,34.394022 34.394022,17 56,17 Z" />
  <path
     id="rect441"
     style="opacity:0.3;fill:#ffffff"
     d="m 17,199 v 1 c 0,21.60598 17.394022,39 39,39 h 144 c 21.60598,0 39,-17.39402 39,-39 v -1 c 0,21.60598 -17.39402,39 -39,39 H 56 C 34.394022,238 17,220.60598 17,199 Z" />
  <path
     id="rect443"
     style="opacity:0.3;fill:#ffffff"
     d="M 56,17 C 34.394022,17 17,34.394022 17,56 v 1 C 17,35.394022 34.394022,18 56,18 h 144 c 21.60598,0 39,17.394022 39,39 V 56 C 239,34.394022 221.60598,17 200,17 Z" />
</svg>
