<?xml version="1.0" encoding="UTF-8" standalone="no"?>
<!-- Created with Inkscape (http://www.inkscape.org/) -->

<svg
   width="256"
   height="256"
   viewBox="0 0 256 256.00001"
   version="1.1"
   id="svg5"
   sodipodi:docname="gnome-mines.svg"
   inkscape:version="1.2.1 (9c6d41e410, 2022-07-14)"
   xmlns:inkscape="http://www.inkscape.org/namespaces/inkscape"
   xmlns:sodipodi="http://sodipodi.sourceforge.net/DTD/sodipodi-0.dtd"
   xmlns:xlink="http://www.w3.org/1999/xlink"
   xmlns="http://www.w3.org/2000/svg"
   xmlns:svg="http://www.w3.org/2000/svg">
  <sodipodi:namedview
     id="namedview7"
     pagecolor="#ffffff"
     bordercolor="#666666"
     borderopacity="1.0"
     inkscape:showpageshadow="2"
     inkscape:pageopacity="0.0"
     inkscape:pagecheckerboard="0"
     inkscape:deskcolor="#d1d1d1"
     inkscape:document-units="px"
     showgrid="false"
     inkscape:zoom="3.2499999"
     inkscape:cx="183.53846"
     inkscape:cy="104.92308"
     inkscape:window-width="1920"
     inkscape:window-height="1002"
     inkscape:window-x="0"
     inkscape:window-y="0"
     inkscape:window-maximized="1"
     inkscape:current-layer="svg5" />
  <defs
     id="defs2">
    <linearGradient
       inkscape:collect="always"
       xlink:href="#linearGradient3585"
       id="linearGradient3525"
       x1="49.757851"
       y1="59.623322"
       x2="14.242154"
       y2="4.3766828"
       gradientUnits="userSpaceOnUse"
       gradientTransform="matrix(4.0545454,0,0,4.0545454,-1.7454618,-1.7454586)" />
    <linearGradient
       inkscape:collect="always"
       id="linearGradient3585">
      <stop
         style="stop-color:#adb2b9;stop-opacity:1;"
         offset="0"
         id="stop3581" />
      <stop
         style="stop-color:#e6e6e6;stop-opacity:1"
         offset="1"
         id="stop3583" />
    </linearGradient>
  </defs>
  <rect
     style="fill:url(#linearGradient3525);fill-opacity:1;stroke:none;stroke-width:4.05454"
     id="rect184"
     width="223"
     height="223"
     x="16.5"
     y="16.5"
     ry="39.5" />
  <path
     d="m 127.6875,49 c -5.6912,0 -9.3191,4.181101 -9.6875,9.6875 v 10.000001 1.25 c 0.521,5.039131 4.829,9.062501 10,9.062501 1.2928,0 2.6142,-0.169 3.75,-0.62502 3.4175,-1.36778 5.8591,-4.65808 6.25,-8.437481 v -1.25 V 59 c 0,-5.5187 -4.6213,-10 -10.3125,-10 z m -19.37502,23.437502 c -6.58578,2.3314 -12.783599,6.0022 -18.124979,10.3125 2.3112,1.67063 4.2497,3.6936 5.62498,6.25 0.04,0.0697 -0.04,0.239 0,0.312 0.62302,1.2037 1.21612,2.410001 1.56252,3.750001 0.029,0.1 -0.0225,0.215999 0,0.312 0.3258,1.350399 0.625,2.9248 0.625,4.374979 0,1.27279 -0.0697,2.549818 -0.312,3.749988 -0.241,1.20023 -0.791,2.33463 -1.25,3.43753 -2.75152,6.61751 -9.0548,11.25001 -16.562497,11.25001 -3.5885,0 -6.5601,-0.982 -9.37502,-2.8125 -0.40298,1.1408 -1,2.2149 -1.25,3.4375 -0.0225,0.0902 0.0175,0.21899 0,0.312 -0.37,1.856 -0.74298,3.71147 -0.93698,5.625 -0.01,0.108 0.01,0.204 0,0.312 -0.18625,1.9192 -0.3131,3.96967 -0.3131,5.9375 0,0.10301 -4.7e-4,0.20901 0,0.31201 -4.7e-4,0.103 0,0.209 0,0.312 0.0175,1.86 0.128,3.8092 0.312,5.62498 0.0225,0.20799 -0.0175,0.41702 0,0.62502 0.20225,1.8044 0.57903,3.5601 0.93703,5.3125 0.3331,1.7288 0.76097,3.338 1.25,5 3.70977,-2.15113 7.9417,-2.9869 10.62497,-3.125 3.622727,-0.18575 7.004227,0.872 9.687527,2.8125 2.68327,1.94097 4.6966,4.5035 5.9375,7.8125 0.414,1.0918 0.72097,2.24527 0.93697,3.4375 0.2502,1.28578 0.312,2.3843 0.312,3.75 0,5.0655 -4.14867,11.7351 -7.18747,15 1.2312,0.962 2.4313,1.9308 3.75,2.8125 1.5756,1.0534 3.01067,2.2204 4.68747,3.125 2.380399,1.29307 4.938799,2.471 7.499999,3.43748 0.48903,0.183 1.032,0.22625 1.56253,0.312 -0.141,-0.688 -0.312,-1.47008 -0.312,-2.18748 0,-7.9471 8.95427,-14.375 20,-14.375 11.0457,0 20,6.4279 20,14.375 0,0.717 -0.172,1.4996 -0.312,2.18748 3.0066,-1.03418 5.9888,-2.26668 8.75,-3.75 2.1316,-1.12548 3.9696,-2.38578 5.93747,-3.75 0.61,-0.42898 1.28213,-0.79898 1.87503,-1.25 0.468,-0.35201 0.796,-0.87498 1.25,-1.25 -1.42383,-1.1092 -2.5033,-2.24028 -3.4375,-3.43748 -1.8962,-2.371 -3.0041,-4.9522 -3.43753,-7.5 -0.22175,-1.2758 -0.312,-2.4836 -0.312,-3.75 0,-2.4256 0.55303,-4.81333 1.25,-6.875 0.029,-0.0902 -0.029,-0.22175 0,-0.312 0.37903,-1.0666 0.70303,-1.8709 1.25,-2.8125 0.556,-0.93302 1.16373,-1.7099 1.87503,-2.5 0.74297,-0.874 1.5935,-1.4968 2.5,-2.1875 1.6836,-1.28272 3.4648,-2.2642 5.62497,-2.8125 1.08013,-0.27418 2.25943,-0.56 3.43753,-0.62502 2.81247,-0.156 7.5402,0.97399 11.25,3.12502 0.452,-1.5684 0.937,-3.0597 1.25,-4.6875 0.35892,-1.7524 0.735,-3.5081 0.937,-5.3125 0.0225,-0.208 -0.0175,-0.41702 0,-0.62502 0.184,-1.81578 0.2938,-3.76498 0.312,-5.62498 0,-2.28881 -0.0497,-4.66091 -0.312,-6.87503 -0.19375,-1.91348 -0.568,-3.76898 -0.937,-5.62498 -0.0225,-0.0903 0.0175,-0.219 0,-0.312 -0.2709,-1.3223 -0.812,-2.51623 -1.25,-3.75 -2.8149,1.83137 -5.7865,2.8125 -9.375,2.8125 -5.0051,0 -9.53253,-1.976 -12.81253,-5.3125 -0.82,-0.834 -1.53607,-1.8316 -2.18747,-2.8125 -1.9538,-2.94261 -3.12453,-6.49401 -3.12453,-10.312528 0,-3.10378 0.86703,-5.964 2.18753,-8.437481 0.661,-1.24812 1.27687,-2.37532 2.1875,-3.4375 0.928,-1.0468 1.96937,-1.9772 3.12497,-2.8125 -5.34257,-4.3251 -11.21857,-8.0164 -17.81247,-10.31252 0.14,0.688 0.312,1.47052 0.312,2.18752 0,7.9471 -8.95433,14.375 -20,14.375 -6.9036,0 -12.9684,-2.4266 -16.5625,-6.25 -0.71903,-0.765 -1.36903,-1.6399 -1.87503,-2.5 -1.0116,-1.7202 -1.562,-3.6382 -1.562,-5.625 0,-0.717 0.171,-1.49952 0.312,-2.18752 z m -43.437476,6.875 c -2.4763,0.619 -4.7499,2.2694 -6.25,4.6875 -3.0004,4.83617 -1.56452,11.153201 3.125,14.062501 l 8.125,4.999997 3.125,1.875 c 1.26608,0.462 2.6354,0.937 4.06248,0.937 1.53172,0 3.0624,-0.409 4.37502,-0.937 1.31258,-0.529 2.4532,-1.249 3.437497,-2.1875 1.9685,-1.87703 3.125,-4.383027 3.125,-7.187497 0,-2.95307 -1.28072,-5.997801 -3.43752,-7.812501 l -3.749997,-2.1875 -8.43748,-5 c -2.3448,-1.4548 -5.02372,-1.8686 -7.5,-1.25 z m 122.499996,0 c -1.27452,0.191999 -2.5776,0.523 -3.75,1.25 l -8.4375,5 -3.75,2.1875 c -0.111,0.0902 -0.20625,0.215 -0.312,0.312 -2.1573,1.8147 -3.1255,4.2344 -3.1255,7.187501 0,2.8045 1.15648,5.310497 3.125,7.187467 0.984,0.93903 2.1249,1.65893 3.43748,2.18753 1.31262,0.529 2.84332,0.937 4.37502,0.937 1.4271,0 2.7964,-0.163 4.0625,-0.625 l 3.125,-1.875 8.125,-4.999997 c 4.6895,-2.90932 6.1254,-9.226301 3.125,-14.062522 -2.25012,-3.62708 -6.17652,-5.263279 -10,-4.687479 z M 128,109.00001 c 11.04568,0 20,8.95429 20,20.00001 0,11.0457 -8.95432,19.99999 -20,19.99999 -5.5228,0 -10.4432,-2.31818 -14.0625,-5.9375 -0.90502,-0.905 -1.7812,-1.7485 -2.5,-2.8125 -2.1565,-3.192 -3.4375,-7.10789 -3.4375,-11.24999 0,-1.38071 0.0497,-2.76051 0.312,-4.06251 1.8654,-9.11373 10.023,-15.9375 19.688,-15.9375 z m 0,10 c -4.15112,0 -7.5472,2.6608 -9.0625,6.25 -0.506,1.1964 -0.93702,2.3693 -0.93702,3.75001 0,5.52309 4.46512,9.99999 10,9.99999 5.53492,0 10,-4.4769 10,-9.99999 0,-5.52311 -4.46508,-10.00001 -10,-10.00001 z m -50.937516,33.4375 c -2.334,0.25417 -2.94648,0.845 -4.06248,1.25 l -2.18752,1.25 -8.12498,5 c -4.6895,2.9093 -6.12542,9.22632 -3.12502,14.0625 3.00022,4.8361 9.37302,6.34711 14.06252,3.4375 l 8.125,-5 2.812477,-1.875 c 1.36022,-1.43073 2.62582,-3.0302 3.12502,-5 0.187,-0.631 0.312,-1.18952 0.312,-1.875 0,-1.54453 -0.3291,-2.9188 -0.93702,-4.375 -0.516,-1.29329 -1.28458,-2.3976 -2.18748,-3.43753 -0.976997,-1.08897 -2.134117,-2.2396 -3.437497,-2.81247 -1.30342,-0.573 -2.85302,-0.791 -4.37502,-0.625 z m 102.187516,0.625 c -5.868,0 -10.625,4.8087 -10.625,10.625 0,2.7422 0.767,4.74001 2.5,6.5625 l 3.125,2.1875 8.125,5 c 4.68948,2.90961 11.06228,1.3986 14.0625,-3.4375 3.0004,-4.83618 1.5645,-11.1532 -3.12502,-14.0625 l -8.12498,-5 c -0.71502,-0.42099 -1.3904,-0.88399 -2.1875,-1.25 -1.116,-0.401 -2.4973,-0.625 -3.75,-0.625 z M 128,179.00001 c -1.2928,0 -2.5474,0.16176 -3.75,0.62497 -1.2026,0.46303 -2.45872,1.35993 -3.43752,2.18753 -1.95748,1.65532 -3.17688,3.7304 -3.43748,6.25 v 1.25 V 199 c 0,5.5187 4.6213,10 10.3125,10 C 133.3787,209 138,204.5187 138,199 v -9.68749 -1.25 c -0.522,-5.03913 -4.829,-9.0625 -10,-9.0625 z"
     style="display:inline;fill:#000000;fill-opacity:1;stroke:none;enable-background:new;opacity:0.2"
     id="path16010" />
  <path
     d="m 127.6875,48.000002 c -5.6912,0 -9.3191,4.181101 -9.6875,9.6875 v 10 1.25 c 0.521,5.039131 4.829,9.062501 10,9.062501 1.2928,0 2.6142,-0.169 3.75,-0.62502 3.4175,-1.36778 5.8591,-4.65808 6.25,-8.437481 v -1.25 -9.6875 c 0,-5.5187 -4.6213,-10 -10.3125,-10 z m -19.37502,23.437501 c -6.58578,2.3314 -12.783599,6.0022 -18.124979,10.3125 2.3112,1.67063 4.2497,3.6936 5.62498,6.25 0.04,0.0697 -0.04,0.239 0,0.312 0.62302,1.2037 1.21612,2.41 1.56252,3.75 0.029,0.1 -0.0225,0.215999 0,0.312 0.3258,1.350399 0.625,2.9248 0.625,4.374979 0,1.27279 -0.0697,2.54982 -0.312,3.749988 -0.241,1.20023 -0.791,2.33463 -1.25,3.43753 -2.75152,6.61751 -9.0548,11.25001 -16.562497,11.25001 -3.5885,0 -6.5601,-0.982 -9.37502,-2.8125 -0.40298,1.1408 -1,2.2149 -1.25,3.4375 -0.0225,0.0902 0.0175,0.21899 0,0.312 -0.37,1.856 -0.74298,3.71147 -0.93698,5.625 -0.01,0.108 0.01,0.204 0,0.312 -0.18625,1.9192 -0.3131,3.96967 -0.3131,5.9375 0,0.103 -4.7e-4,0.209 0,0.312 -4.7e-4,0.103 0,0.209 0,0.312 0.0175,1.86 0.128,3.8092 0.312,5.62498 0.0225,0.20799 -0.0175,0.41702 0,0.62502 0.20225,1.8044 0.57903,3.5601 0.93703,5.3125 0.3331,1.7288 0.76097,3.338 1.25,5 3.70977,-2.15113 7.9417,-2.9869 10.62497,-3.125 3.622727,-0.18575 7.004227,0.872 9.687527,2.8125 2.68327,1.94097 4.6966,4.5035 5.9375,7.8125 0.414,1.0918 0.72097,2.24527 0.93697,3.4375 0.2502,1.28578 0.312,2.3843 0.312,3.75 0,5.0655 -4.14867,11.7351 -7.18747,15 1.2312,0.962 2.4313,1.9308 3.75,2.8125 1.5756,1.0534 3.01067,2.2204 4.68747,3.125 2.380399,1.29307 4.938799,2.471 7.499999,3.43748 0.48903,0.183 1.032,0.22625 1.56253,0.312 -0.141,-0.688 -0.312,-1.47008 -0.312,-2.18748 0,-7.9471 8.95427,-14.375 20,-14.375 11.0457,0 20,6.4279 20,14.375 0,0.717 -0.172,1.4996 -0.312,2.18748 3.0066,-1.03418 5.9888,-2.26668 8.75,-3.75 2.1316,-1.12548 3.9696,-2.38578 5.93747,-3.75 0.61,-0.42898 1.28213,-0.79898 1.87503,-1.25 0.468,-0.35201 0.796,-0.87498 1.25,-1.25 -1.42383,-1.1092 -2.5033,-2.24028 -3.4375,-3.43748 -1.8962,-2.371 -3.0041,-4.9522 -3.43753,-7.5 -0.22175,-1.2758 -0.312,-2.4836 -0.312,-3.75 0,-2.4256 0.55303,-4.81333 1.25,-6.875 0.029,-0.0902 -0.029,-0.22175 0,-0.312 0.37903,-1.0666 0.70303,-1.8709 1.25,-2.8125 0.556,-0.93302 1.16373,-1.7099 1.87503,-2.5 0.74297,-0.874 1.5935,-1.4968 2.5,-2.1875 1.6836,-1.28272 3.4648,-2.2642 5.62497,-2.8125 1.08013,-0.27418 2.25943,-0.56 3.43753,-0.62502 2.81247,-0.156 7.5402,0.97399 11.25,3.12502 0.452,-1.5684 0.937,-3.0597 1.25,-4.6875 0.35892,-1.7524 0.735,-3.5081 0.937,-5.3125 0.0225,-0.208 -0.0175,-0.41702 0,-0.62502 0.184,-1.81578 0.2938,-3.76498 0.312,-5.62498 0,-2.2888 -0.0497,-4.6609 -0.312,-6.87502 -0.19375,-1.91348 -0.568,-3.76898 -0.937,-5.62498 -0.0225,-0.0903 0.0175,-0.219 0,-0.312 -0.2709,-1.3223 -0.812,-2.51623 -1.25,-3.75 -2.8149,1.83137 -5.7865,2.8125 -9.375,2.8125 -5.0051,0 -9.53253,-1.976 -12.81253,-5.3125 -0.82,-0.834 -1.53607,-1.8316 -2.18747,-2.8125 -1.9538,-2.94261 -3.12453,-6.49401 -3.12453,-10.312528 0,-3.10378 0.86703,-5.964 2.18753,-8.43748 0.661,-1.24812 1.27687,-2.37532 2.1875,-3.4375 0.928,-1.0468 1.96937,-1.9772 3.12497,-2.8125 -5.34257,-4.3251 -11.21857,-8.0164 -17.81247,-10.31252 0.14,0.688 0.312,1.47052 0.312,2.18752 0,7.9471 -8.95433,14.375 -20,14.375 -6.9036,0 -12.9684,-2.4266 -16.5625,-6.25 -0.71903,-0.765 -1.36903,-1.6399 -1.87503,-2.5 -1.0116,-1.7202 -1.562,-3.6382 -1.562,-5.625 0,-0.717 0.171,-1.49952 0.312,-2.18752 z m -43.437476,6.875 c -2.4763,0.619 -4.7499,2.2694 -6.25,4.6875 -3.0004,4.83617 -1.56452,11.1532 3.125,14.0625 l 8.125,4.999997 3.125,1.875 c 1.26608,0.462 2.6354,0.937 4.06248,0.937 1.53172,0 3.0624,-0.409 4.37502,-0.937 1.31258,-0.529 2.4532,-1.249 3.437497,-2.1875 1.9685,-1.877027 3.125,-4.383027 3.125,-7.187497 0,-2.95307 -1.28072,-5.9978 -3.43752,-7.8125 l -3.749997,-2.1875 -8.43748,-5 c -2.3448,-1.4548 -5.02372,-1.8686 -7.5,-1.25 z m 122.499996,0 c -1.27452,0.191999 -2.5776,0.523 -3.75,1.25 l -8.4375,5 -3.75,2.1875 c -0.111,0.0902 -0.20625,0.215 -0.312,0.312 -2.1573,1.8147 -3.1255,4.234399 -3.1255,7.1875 0,2.8045 1.15648,5.3105 3.125,7.187467 0.984,0.93903 2.1249,1.65893 3.43748,2.18753 1.31262,0.529 2.84332,0.937 4.37502,0.937 1.4271,0 2.7964,-0.163 4.0625,-0.625 l 3.125,-1.875 8.125,-4.999997 c 4.6895,-2.90932 6.1254,-9.2263 3.125,-14.062521 -2.25012,-3.62708 -6.17652,-5.263279 -10,-4.687479 z M 128,108.00001 c 11.04568,0 20,8.95429 20,20 C 148,139.04571 139.04568,148 128,148 c -5.5228,0 -10.4432,-2.31818 -14.0625,-5.9375 -0.90502,-0.905 -1.7812,-1.7485 -2.5,-2.8125 C 109.281,136.058 108,132.14211 108,128.00001 c 0,-1.3807 0.0497,-2.7605 0.312,-4.0625 1.8654,-9.11373 10.023,-15.9375 19.688,-15.9375 z m 0,10 c -4.15112,0 -7.5472,2.6608 -9.0625,6.25 -0.506,1.1964 -0.93702,2.3693 -0.93702,3.75 0,5.52309 4.46512,9.99999 10,9.99999 5.53492,0 10,-4.4769 10,-9.99999 0,-5.5231 -4.46508,-10 -10,-10 z M 77.062484,151.4375 c -2.334,0.25417 -2.94648,0.845 -4.06248,1.25 l -2.18752,1.25 -8.12498,5 c -4.6895,2.9093 -6.12542,9.22632 -3.12502,14.0625 3.00022,4.8361 9.37302,6.34711 14.06252,3.4375 l 8.125,-5 2.812477,-1.875 c 1.36022,-1.43073 2.62582,-3.0302 3.12502,-5 0.187,-0.631 0.312,-1.18952 0.312,-1.875 0,-1.54453 -0.3291,-2.9188 -0.93702,-4.375 -0.516,-1.29329 -1.28458,-2.3976 -2.18748,-3.43753 -0.976997,-1.08897 -2.134117,-2.2396 -3.437497,-2.81247 -1.30342,-0.573 -2.85302,-0.791 -4.37502,-0.625 z M 179.25,152.0625 c -5.868,0 -10.625,4.8087 -10.625,10.625 0,2.7422 0.767,4.74001 2.5,6.5625 l 3.125,2.1875 8.125,5 c 4.68948,2.90961 11.06228,1.3986 14.0625,-3.4375 3.0004,-4.83618 1.5645,-11.1532 -3.12502,-14.0625 l -8.12498,-5 c -0.71502,-0.42099 -1.3904,-0.88399 -2.1875,-1.25 -1.116,-0.401 -2.4973,-0.625 -3.75,-0.625 z M 128,178 c -1.2928,0 -2.5474,0.16176 -3.75,0.62497 -1.2026,0.46303 -2.45872,1.35993 -3.43752,2.18753 -1.95748,1.65532 -3.17688,3.7304 -3.43748,6.25 v 1.25 V 198 c 0,5.5187 4.6213,10 10.3125,10 C 133.3787,208 138,203.5187 138,198 v -9.6875 -1.25 C 137.478,182.02337 133.171,178 128,178 Z"
     style="display:inline;fill:#3d3d3d;fill-opacity:1;stroke:none;enable-background:new"
     id="path15461"
     sodipodi:nodetypes="scccscccssccccccsccscccccsccccccccccscccccssscccccccscccccsccccccccccsccsccccssccscccccccsccscccccccccsccsccccccsssscscsscssssscccccccccsccccsscccccccssccccsssccs" />
  <path
     id="rect899"
     style="fill:#000000;stroke:none;stroke-width:4;opacity:0.5"
     d="M 56,16 C 33.840066,16 16,33.840066 16,56 v 144 c 0,22.15994 17.840066,40 40,40 h 144 c 22.15994,0 40,-17.84006 40,-40 V 56 C 240,33.840066 222.15994,16 200,16 Z m 0,1 h 144 c 21.60598,0 39,17.394022 39,39 v 144 c 0,21.60598 -17.39402,39 -39,39 H 56 C 34.394022,239 17,221.60598 17,200 V 56 C 17,34.394022 34.394022,17 56,17 Z" />
  <path
     id="rect441"
     style="opacity:0.3;fill:#ffffff"
     d="m 17,199 v 1 c 0,21.60598 17.394022,39 39,39 h 144 c 21.60598,0 39,-17.39402 39,-39 v -1 c 0,21.60598 -17.39402,39 -39,39 H 56 C 34.394022,238 17,220.60598 17,199 Z" />
  <path
     id="rect443"
     style="opacity:0.3;fill:#ffffff"
     d="M 56,17 C 34.394022,17 17,34.394022 17,56 v 1 C 17,35.394022 34.394022,18 56,18 h 144 c 21.60598,0 39,17.394022 39,39 V 56 C 239,34.394022 221.60598,17 200,17 Z" />
</svg>
