<?xml version="1.0" encoding="UTF-8" standalone="no"?>
<!-- Created with Inkscape (http://www.inkscape.org/) -->

<svg
   width="256"
   height="256"
   viewBox="0 0 256 256.00001"
   version="1.1"
   id="svg5"
   sodipodi:docname="gthumb.svg"
   inkscape:version="1.2.1 (9c6d41e410, 2022-07-14)"
   xmlns:inkscape="http://www.inkscape.org/namespaces/inkscape"
   xmlns:sodipodi="http://sodipodi.sourceforge.net/DTD/sodipodi-0.dtd"
   xmlns:xlink="http://www.w3.org/1999/xlink"
   xmlns="http://www.w3.org/2000/svg"
   xmlns:svg="http://www.w3.org/2000/svg">
  <sodipodi:namedview
     id="namedview7"
     pagecolor="#ffffff"
     bordercolor="#666666"
     borderopacity="1.0"
     inkscape:showpageshadow="2"
     inkscape:pageopacity="0.0"
     inkscape:pagecheckerboard="0"
     inkscape:deskcolor="#d1d1d1"
     inkscape:document-units="px"
     showgrid="false"
     inkscape:zoom="3.125"
     inkscape:cx="128"
     inkscape:cy="128"
     inkscape:window-width="1920"
     inkscape:window-height="1007"
     inkscape:window-x="0"
     inkscape:window-y="0"
     inkscape:window-maximized="1"
     inkscape:current-layer="svg5" />
  <defs
     id="defs2">
    <linearGradient
       inkscape:collect="always"
       xlink:href="#linearGradient1555"
       id="linearGradient33585"
       x1="128"
       y1="240"
       x2="128"
       y2="16"
       gradientUnits="userSpaceOnUse" />
    <linearGradient
       inkscape:collect="always"
       xlink:href="#linearGradient2287"
       id="linearGradient2289"
       x1="20"
       y1="18"
       x2="20"
       y2="5"
       gradientUnits="userSpaceOnUse"
       gradientTransform="matrix(11,0,0,9.8461539,-4.0000208,14.769236)" />
    <linearGradient
       inkscape:collect="always"
       id="linearGradient2287">
      <stop
         style="stop-color:#8e9529;stop-opacity:1;"
         offset="0"
         id="stop2283" />
      <stop
         style="stop-color:#bbc236;stop-opacity:1;"
         offset="1"
         id="stop2285" />
    </linearGradient>
    <linearGradient
       inkscape:collect="always"
       xlink:href="#linearGradient3796"
       id="linearGradient3798"
       x1="19"
       y1="18"
       x2="19"
       y2="5"
       gradientUnits="userSpaceOnUse"
       gradientTransform="matrix(10.285714,0,0,9.8461547,4.5714128,14.769228)" />
    <linearGradient
       inkscape:collect="always"
       id="linearGradient3796">
      <stop
         style="stop-color:#ff7010;stop-opacity:1;"
         offset="0"
         id="stop3792" />
      <stop
         style="stop-color:#ff9a10;stop-opacity:1;"
         offset="1"
         id="stop3794" />
    </linearGradient>
    <linearGradient
       inkscape:collect="always"
       id="linearGradient1555">
      <stop
         style="stop-color:#eac045;stop-opacity:1;"
         offset="0"
         id="stop1551" />
      <stop
         style="stop-color:#a2d2f9;stop-opacity:1;"
         offset="1"
         id="stop1553" />
    </linearGradient>
  </defs>
  <rect
     style="fill:url(#linearGradient33585);fill-opacity:1.0;stroke:none;stroke-width:4"
     id="rect184"
     width="223"
     height="223"
     x="16.5"
     y="16.5"
     ry="39.5" />
  <path
     d="m 94.595268,65.006042 c -21.264527,0.36704 -39.670694,17.443855 -29.064271,54.456128 -18.581919,3.22922 -32.705479,21.93817 -21.614223,59.20147 24.718287,-22.60992 30.267727,-7.81354 49.88891,-11.3216 4.907448,8.93532 15.649476,18.14614 34.295966,25.65796 2.70148,-6.71444 14.09836,-16.80976 21.63573,-26.88194 21.52076,8.77508 31.8879,-5.21736 53.13853,22.50278 21.92368,-31.73374 13.53628,-52.40378 -4.37223,-60.49566 C 215.00229,85.737289 166.9035,68.723634 132.03346,84.097785 123.05195,71.449322 108.26474,64.770106 94.595268,65.006042 Z m -1.353584,44.599248 c 5.521432,0.16216 10.589156,1.76973 17.113066,1.86101 24.12053,17.96726 36.9779,12.76691 50.81817,15.82618 -6.46866,2.15334 -12.70073,5.45448 -18.17121,9.99734 -5.02407,-1.73692 -11.64647,-3.13552 -20.21771,-4.10326 -6.72837,-0.75968 -12.84152,0.1964 -17.90801,2.37266 -9.157338,-11.30513 -22.584641,-17.09526 -34.881433,-16.58365 10.216216,-7.83695 17.046296,-9.55229 23.247127,-9.37028 z"
     style="opacity:0.2;fill:#000000;fill-rule:evenodd;stroke-width:10.4071"
     id="path833" />
  <path
     d="m 94.595268,64.006042 c -21.264527,0.36704 -39.670694,17.443855 -29.064271,54.456128 -18.581919,3.22922 -32.705479,21.93817 -21.614223,59.20147 24.718287,-22.60992 30.267727,-7.81354 49.88891,-11.32162 4.907448,8.93534 15.649476,18.14616 34.295966,25.65798 2.70148,-6.71444 14.09836,-16.80978 21.63573,-26.88194 21.52076,8.77508 31.8879,-5.21738 53.13853,22.50276 21.92368,-31.73374 13.53628,-52.40376 -4.37223,-60.49563 C 215.00229,84.737289 166.9035,67.723634 132.03346,83.097785 123.05195,70.449322 108.26474,63.770106 94.595268,64.006042 Z m -1.353584,44.599248 c 5.521432,0.16208 10.589156,1.76975 17.113066,1.86101 24.12053,17.96726 36.9779,12.76691 50.81817,15.82618 -6.46866,2.15334 -12.70073,5.45448 -18.17121,9.99734 -5.02407,-1.73694 -11.64647,-3.13552 -20.21771,-4.10326 -6.72837,-0.75976 -12.84152,0.1966 -17.90801,2.37266 -9.157338,-11.30513 -22.584641,-17.09526 -34.881433,-16.58364 10.216216,-7.83696 17.046296,-9.55229 23.247127,-9.37029 z"
     style="fill:url(#linearGradient2289);fill-opacity:1;fill-rule:evenodd;stroke-width:10.4071"
     id="path467"
     sodipodi:nodetypes="sccccccccssccccccs" />
  <path
     d="m 162.93588,192.53692 c -7.5245,4.9411 -26.87744,-31.13118 -40.4292,-38.20264 -14.77616,3.46796 -32.955227,32.73484 -40.391451,27.3818 -8.504304,-6.12194 1.938472,-43.87062 6.835472,-52.12474 6.311415,-10.63821 -36.331839,-11.47976 -32.734895,-20.48103 3.548536,-8.88031 38.55387,-17.081421 49.576324,-18.612317 3.99736,-10.55108 14.35154,-27.164479 28.51549,-25.362767 14.16399,1.80172 22.06205,22.179871 25.004,32.631295 14.71894,2.490299 38.83512,12.370729 40.6422,21.926689 1.7828,9.42747 -48.69867,7.79359 -42.26669,18.72863 4.69565,7.98318 10.88367,48.85324 5.24875,54.11508 z"
     style="opacity:0.2;fill:#000000;fill-opacity:1;stroke-width:10.0636"
     id="path3808" />
  <path
     d="m 162.93588,191.53692 c -7.5245,4.94112 -26.87744,-31.1312 -40.4292,-38.20264 -14.77616,3.46796 -32.955219,32.73484 -40.391451,27.38178 -8.504312,-6.12192 1.938472,-43.87058 6.835464,-52.1247 6.311423,-10.63822 -36.331831,-11.47978 -32.734887,-20.48104 3.548536,-8.880319 38.55387,-17.081431 49.576324,-18.612327 3.99736,-10.551079 14.35154,-27.164479 28.51549,-25.362767 14.16399,1.80172 22.06205,22.179863 25.004,32.631295 14.71894,2.490296 38.83512,12.370729 40.6422,21.926699 1.7828,9.42748 -48.69867,7.79357 -42.26669,18.72862 4.69565,7.98318 10.88367,48.85322 5.24875,54.11508 z"
     style="fill:url(#linearGradient3798);fill-opacity:1;stroke-width:10.0636"
     id="path866"
     sodipodi:nodetypes="scssccscssss" />
  <ellipse
     style="opacity:0.2;fill:#000000;fill-opacity:1;stroke-width:19.5958;stroke-linecap:round;stroke-linejoin:round"
     id="path3887"
     cx="128"
     cy="115.99998"
     rx="24"
     ry="20" />
  <path
     id="path5727"
     style="color:#000000;fill:#ffffe0;stroke-width:12.1531;stroke-linecap:round"
     d="m 132,72.000002 a 3.9999999,3.9999999 0 0 0 -4,4 3.9999999,3.9999999 0 0 0 2.5,3.703128 l -1.20313,27.21874 c -0.0272,0.83916 0.64512,1.53671 1.48437,1.56251 0.83916,0.0272 1.53669,-0.6296 1.56251,-1.46876 l 1.18749,-27.328114 A 3.9999999,3.9999999 0 0 0 136,76.000002 a 3.9999999,3.9999999 0 0 0 -4,-4 z m -24,15.999999 a 3.9999999,3.9999999 0 0 0 -4,4 3.9999999,3.9999999 0 0 0 3.59375,3.968752 l 13.31249,23.921867 c 0.4152,0.73976 1.34494,0.98922 2.07813,0.56248 0.73976,-0.41512 1.00483,-1.36055 0.57808,-2.09375 L 110.54683,95.062473 A 3.9999999,3.9999999 0 0 0 112,92.000001 a 3.9999999,3.9999999 0 0 0 -4,-4 z m 39.99999,0 a 3.9999999,3.9999999 0 0 0 -4,4 3.9999999,3.9999999 0 0 0 2.23438,3.578128 l -7.15625,22.906251 c -0.35368,0.76024 -0.0264,1.66145 0.7344,2.01562 0.76024,0.35368 1.67708,0.0264 2.03126,-0.7344 l 7.5,-23.999999 a 3.9999999,3.9999999 0 0 0 2.65621,-3.7656 3.9999999,3.9999999 0 0 0 -4,-4 z" />
  <path
     id="rect899"
     style="fill:#000000;stroke:none;stroke-width:4;opacity:0.5"
     d="M 56,16 C 33.840066,16 16,33.840066 16,56 v 144 c 0,22.15994 17.840066,40 40,40 h 144 c 22.15994,0 40,-17.84006 40,-40 V 56 C 240,33.840066 222.15994,16 200,16 Z m 0,1 h 144 c 21.60598,0 39,17.394022 39,39 v 144 c 0,21.60598 -17.39402,39 -39,39 H 56 C 34.394022,239 17,221.60598 17,200 V 56 C 17,34.394022 34.394022,17 56,17 Z" />
  <path
     id="rect441"
     style="opacity:0.3;fill:#ffffff"
     d="m 17,199 v 1 c 0,21.60598 17.394022,39 39,39 h 144 c 21.60598,0 39,-17.39402 39,-39 v -1 c 0,21.60598 -17.39402,39 -39,39 H 56 C 34.394022,238 17,220.60598 17,199 Z" />
  <path
     id="rect443"
     style="opacity:0.3;fill:#ffffff"
     d="M 56,17 C 34.394022,17 17,34.394022 17,56 v 1 C 17,35.394022 34.394022,18 56,18 h 144 c 21.60598,0 39,17.394022 39,39 V 56 C 239,34.394022 221.60598,17 200,17 Z" />
</svg>
