<?xml version="1.0" encoding="UTF-8" standalone="no"?>
<!-- Created with Inkscape (http://www.inkscape.org/) -->

<svg
   width="256"
   height="256"
   viewBox="0 0 256 256.00001"
   version="1.1"
   id="svg5"
   sodipodi:docname="help-browser.svg"
   inkscape:version="1.2.1 (9c6d41e410, 2022-07-14)"
   xmlns:inkscape="http://www.inkscape.org/namespaces/inkscape"
   xmlns:sodipodi="http://sodipodi.sourceforge.net/DTD/sodipodi-0.dtd"
   xmlns:xlink="http://www.w3.org/1999/xlink"
   xmlns="http://www.w3.org/2000/svg"
   xmlns:svg="http://www.w3.org/2000/svg">
  <sodipodi:namedview
     id="namedview7"
     pagecolor="#ffffff"
     bordercolor="#666666"
     borderopacity="1.0"
     inkscape:showpageshadow="2"
     inkscape:pageopacity="0.0"
     inkscape:pagecheckerboard="0"
     inkscape:deskcolor="#d1d1d1"
     inkscape:document-units="px"
     showgrid="false"
     inkscape:zoom="2"
     inkscape:cx="135.25"
     inkscape:cy="121.25"
     inkscape:window-width="1920"
     inkscape:window-height="1007"
     inkscape:window-x="0"
     inkscape:window-y="0"
     inkscape:window-maximized="1"
     inkscape:current-layer="svg5" />
  <defs
     id="defs2">
    <linearGradient
       inkscape:collect="always"
       xlink:href="#linearGradient21236"
       id="linearGradient3525"
       x1="49.757847"
       y1="59.623318"
       x2="14.242153"
       y2="4.3766818"
       gradientUnits="userSpaceOnUse"
       gradientTransform="matrix(4.0545454,0,0,4.0545454,-1.745455,-1.745455)" />
    <linearGradient
       inkscape:collect="always"
       id="linearGradient21236">
      <stop
         style="stop-color:#3689e6;stop-opacity:1;"
         offset="0"
         id="stop21232" />
      <stop
         style="stop-color:#5dcffc;stop-opacity:1;"
         offset="1"
         id="stop21234" />
    </linearGradient>
  </defs>
  <rect
     style="fill:url(#linearGradient3525);fill-opacity:1;stroke:none;stroke-width:4.05454"
     id="rect184"
     width="223"
     height="223"
     x="16.5"
     y="16.5"
     ry="39.5" />
  <path
     d="m 119.22146,149.29324 c 0,-6.5041 1.23578,-11.9025 3.70734,-16.19521 2.47156,-4.29271 6.89436,-9.43095 13.26838,-15.41473 5.20328,-4.68296 8.91062,-8.65046 11.122,-11.90251 2.3415,-3.38214 3.51222,-7.414685 3.51222,-12.097637 0,-6.243942 -2.01626,-11.252106 -6.04882,-15.024484 -4.03254,-3.902468 -9.62606,-5.8537 -16.78058,-5.8537 -6.5041,0 -11.7074,1.88619 -15.60986,5.65857 -3.77238,3.642298 -6.63418,8.195174 -8.58542,13.658628 L 88.392,85.683103 c 2.8618,-7.544766 7.54476,-14.178954 14.04886,-19.902562 6.50412,-5.853696 14.95944,-8.780542 25.36602,-8.780542 7.80492,0 14.69928,1.626026 20.68304,4.878078 6.11388,3.121972 10.79682,7.479722 14.04888,13.073248 3.38214,5.593536 5.0732,11.837478 5.0732,18.731828 0,7.154517 -1.82116,13.268367 -5.46346,18.341567 -3.5122,4.94313 -8.06508,9.95129 -13.65862,15.02449 -4.2927,3.90247 -7.41468,7.6098 -9.3659,11.12202 -1.95124,3.51221 -2.92684,7.60979 -2.92684,12.29275 v 8.19518 h -16.97572 z m 8.3903,52.8859 c -3.38214,0 -6.30898,-1.17072 -8.78054,-3.51222 -2.34148,-2.47154 -3.51222,-5.46344 -3.51222,-8.97566 0,-3.38214 1.17074,-6.24394 3.51222,-8.58542 2.47156,-2.47154 5.3984,-3.70734 8.78054,-3.70734 3.51222,0 6.43906,1.2358 8.78054,3.70734 2.47156,2.34148 3.70734,5.20328 3.70734,8.58542 0,3.51222 -1.23578,6.50412 -3.70734,8.97566 -2.34148,2.3415 -5.26832,3.51222 -8.78054,3.51222 z"
     style="font-size:7.8202px;line-height:1.25;font-family:'Google Sans';-inkscape-font-specification:'Google Sans';opacity:0.2;fill:#000000;fill-opacity:1;stroke-width:4.87806"
     id="path1273"
     sodipodi:nodetypes="ssccscsccccsccsccssccsscssscsss" />
  <path
     d="m 119.22146,148.29324 c 0,-6.5041 1.23578,-11.9025 3.70734,-16.19521 2.47156,-4.29271 6.89436,-9.43095 13.26838,-15.41473 5.20328,-4.68296 8.91062,-8.65046 11.122,-11.90251 2.3415,-3.38214 3.51222,-7.414684 3.51222,-12.097636 0,-6.243942 -2.01626,-11.252106 -6.04882,-15.024484 -4.03254,-3.902468 -9.62606,-5.8537 -16.78058,-5.8537 -6.5041,0 -11.7074,1.88619 -15.60986,5.65857 -3.77238,3.642298 -6.63418,8.195174 -8.58542,13.658628 L 88.392,84.683104 C 91.2538,77.138338 95.93676,70.50415 102.44086,64.780542 108.94498,58.926846 117.40032,56 127.80688,56 c 7.80492,0 14.69928,1.626026 20.68304,4.878078 6.11388,3.121972 10.79682,7.479722 14.04888,13.073248 3.38214,5.593536 5.0732,11.837478 5.0732,18.731828 0,7.154512 -1.82116,13.268366 -5.46346,18.341566 -3.5122,4.94313 -8.06508,9.95129 -13.65862,15.02449 -4.2927,3.90247 -7.41468,7.6098 -9.3659,11.12202 -1.95124,3.51222 -2.92684,7.60979 -2.92684,12.29275 v 8.19518 h -16.97572 z m 8.3903,52.8859 c -3.38214,0 -6.30898,-1.17072 -8.78054,-3.51222 -2.34148,-2.47154 -3.51222,-5.46344 -3.51222,-8.97566 0,-3.38214 1.17074,-6.24394 3.51222,-8.58542 2.47156,-2.47156 5.3984,-3.70734 8.78054,-3.70734 3.51222,0 6.43906,1.23578 8.78054,3.70734 2.47156,2.34148 3.70734,5.20328 3.70734,8.58542 0,3.51222 -1.23578,6.50412 -3.70734,8.97566 -2.34148,2.3415 -5.26832,3.51222 -8.78054,3.51222 z"
     style="font-size:7.8202px;line-height:1.25;font-family:'Google Sans';-inkscape-font-specification:'Google Sans';fill:#ffffff;fill-opacity:1;stroke-width:4.87806"
     id="path14687"
     sodipodi:nodetypes="ssccscsccccsccsccssccsscssscsss" />
  <path
     id="rect899"
     style="fill:#000000;stroke:none;stroke-width:4;opacity:0.5"
     d="M 56,16 C 33.840066,16 16,33.840066 16,56 v 144 c 0,22.15994 17.840066,40 40,40 h 144 c 22.15994,0 40,-17.84006 40,-40 V 56 C 240,33.840066 222.15994,16 200,16 Z m 0,1 h 144 c 21.60598,0 39,17.394022 39,39 v 144 c 0,21.60598 -17.39402,39 -39,39 H 56 C 34.394022,239 17,221.60598 17,200 V 56 C 17,34.394022 34.394022,17 56,17 Z" />
  <path
     id="rect441"
     style="opacity:0.3;fill:#ffffff"
     d="m 17,199 v 1 c 0,21.60598 17.394022,39 39,39 h 144 c 21.60598,0 39,-17.39402 39,-39 v -1 c 0,21.60598 -17.39402,39 -39,39 H 56 C 34.394022,238 17,220.60598 17,199 Z" />
  <path
     id="rect443"
     style="opacity:0.3;fill:#ffffff"
     d="M 56,17 C 34.394022,17 17,34.394022 17,56 v 1 C 17,35.394022 34.394022,18 56,18 h 144 c 21.60598,0 39,17.394022 39,39 V 56 C 239,34.394022 221.60598,17 200,17 Z" />
</svg>
