<?xml version="1.0" encoding="UTF-8" standalone="no"?>
<!-- Created with Inkscape (http://www.inkscape.org/) -->

<svg
   width="256"
   height="256"
   viewBox="0 0 256 256.00001"
   version="1.1"
   id="svg5"
   sodipodi:docname="htop.svg"
   inkscape:version="1.3.2 (091e20ef0f, 2023-11-25, custom)"
   xmlns:inkscape="http://www.inkscape.org/namespaces/inkscape"
   xmlns:sodipodi="http://sodipodi.sourceforge.net/DTD/sodipodi-0.dtd"
   xmlns:xlink="http://www.w3.org/1999/xlink"
   xmlns="http://www.w3.org/2000/svg"
   xmlns:svg="http://www.w3.org/2000/svg">
  <sodipodi:namedview
     id="namedview7"
     pagecolor="#ffffff"
     bordercolor="#666666"
     borderopacity="1.0"
     inkscape:showpageshadow="2"
     inkscape:pageopacity="0.0"
     inkscape:pagecheckerboard="0"
     inkscape:deskcolor="#d1d1d1"
     inkscape:document-units="px"
     showgrid="false"
     inkscape:zoom="3.3007812"
     inkscape:cx="128"
     inkscape:cy="128"
     inkscape:window-width="1920"
     inkscape:window-height="1019"
     inkscape:window-x="0"
     inkscape:window-y="0"
     inkscape:window-maximized="1"
     inkscape:current-layer="svg5" />
  <defs
     id="defs2">
    <linearGradient
       inkscape:collect="always"
       xlink:href="#4852"
       id="linearGradient3525"
       x1="49.757847"
       y1="59.623318"
       x2="14.242153"
       y2="4.3766818"
       gradientUnits="userSpaceOnUse"
       gradientTransform="matrix(4.0545454,0,0,4.0545454,-1.745455,-1.745455)" />
    <linearGradient
       inkscape:collect="always"
       id="4852">
      <stop
         style="stop-color:#333333;stop-opacity:1"
         offset="0"
         id="stop14555" />
      <stop
         style="stop-color:#666666;stop-opacity:1"
         offset="1"
         id="stop14557" />
    </linearGradient>
  </defs>
  <rect
     style="fill:url(#linearGradient3525);fill-opacity:1.0;stroke:none;stroke-width:4.05454"
     id="rect184"
     width="223"
     height="223"
     x="16.5"
     y="16.5"
     ry="39.5" />
  <path
     d="M 48,49 V 97 H 64 V 89 H 56 V 57 h 8 v -8 z m 24,0 v 48 h 8 V 49 Z m 16,0 v 48 h 8 V 49 Z m 72,0 v 48 h 8 V 49 Z m 16,0 v 48 h 8 V 49 Z m 16,0 v 8 h 8 v 32 h -8 v 8 h 16 V 49 Z M 48,105 v 48 h 16 v -8 h -8 v -32 h 8 v -8 z m 24,0 v 48 h 8 v -48 z m 16,0 v 48 h 8 v -48 z m 16,0 v 48 h 8 v -48 z m 40,0 v 48 h 8 v -48 z m 16,0 v 48 h 8 v -48 z m 16,0 v 48 h 8 v -48 z m 16,0 v 8 h 8 v 32 h -8 v 8 h 16 V 105 Z M 48,161 v 48 h 16 v -8 h -8 v -32 h 8 v -8 z m 24,0 v 48 h 8 v -48 z m 16,0 v 48 h 8 v -48 z m 72,0 v 48 h 8 v -48 z m 16,0 v 48 h 8 v -48 z m 16,0 v 8 h 8 v 32 h -8 v 8 h 16 v -48 z"
     style="opacity:0.2;fill:#000000;stroke-width:16"
     id="path1" />
  <path
     id="path1240"
     style="fill:#8bc34a;stroke-width:16"
     d="m 72,48 v 48 h 8.000008 V 48 Z m 16,0 v 48 h 8 V 48 Z m -16,56 v 48 h 8.000008 v -48 z m 16,0 v 48 h 8 v -48 z m -16,56 v 48 h 8.000008 v -48 z m 16,0 v 48 h 8 v -48 z"
     sodipodi:nodetypes="cccccccccccccccccccccccccccccc" />
  <path
     d="m 104.00001,104 v 48 H 112 V 104 Z M 144,104 v 48 h 8 v -48 z"
     style="fill:#ff9800;stroke-width:8"
     id="path1212"
     sodipodi:nodetypes="cccccccccc" />
  <path
     id="path1128"
     style="fill:#ff5722;stroke-width:8"
     d="m 160,48 v 48 h 8 V 48 Z m 16,0 v 48 h 8 V 48 Z m -16,56 v 48 h 8 v -48 z m 16,0 v 48 h 8 v -48 z m -16,56 v 48 h 8 v -48 z m 16,0 v 48 h 8 v -48 z"
     sodipodi:nodetypes="cccccccccccccccccccccccccccccc" />
  <path
     id="path1156"
     style="fill:#f9f9f9;stroke-width:8"
     d="M 48,48 V 96 H 64 V 88 H 56 V 56 h 8 v -8 z m 144,0 v 8 h 8 v 32 h -8 v 8 h 16 V 48 Z M 48,104 v 48 h 16 v -8 h -8 v -32 h 8 v -8 z m 144,0 v 8 h 8 v 32 h -8 v 8 h 16 V 104 Z M 48,160 v 48 h 16 v -8 h -8 v -32 h 8 v -8 z m 144,0 v 8 h 8 v 32 h -8 v 8 h 16 v -48 z"
     sodipodi:nodetypes="cccccccccccccccccccccccccccccccccccccccccccccccccccccc" />
  <path
     id="rect899"
     style="fill:#000000;stroke:none;stroke-width:4;opacity:0.5"
     d="M 56,16 C 33.840066,16 16,33.840066 16,56 v 144 c 0,22.15994 17.840066,40 40,40 h 144 c 22.15994,0 40,-17.84006 40,-40 V 56 C 240,33.840066 222.15994,16 200,16 Z m 0,1 h 144 c 21.60598,0 39,17.394022 39,39 v 144 c 0,21.60598 -17.39402,39 -39,39 H 56 C 34.394022,239 17,221.60598 17,200 V 56 C 17,34.394022 34.394022,17 56,17 Z" />
  <path
     id="rect441"
     style="opacity:0.3;fill:#ffffff"
     d="m 17,199 v 1 c 0,21.60598 17.394022,39 39,39 h 144 c 21.60598,0 39,-17.39402 39,-39 v -1 c 0,21.60598 -17.39402,39 -39,39 H 56 C 34.394022,238 17,220.60598 17,199 Z" />
  <path
     id="rect443"
     style="opacity:0.3;fill:#ffffff"
     d="M 56,17 C 34.394022,17 17,34.394022 17,56 v 1 C 17,35.394022 34.394022,18 56,18 h 144 c 21.60598,0 39,17.394022 39,39 V 56 C 239,34.394022 221.60598,17 200,17 Z" />
</svg>
