<?xml version="1.0" encoding="UTF-8" standalone="no"?>
<!-- Created with Inkscape (http://www.inkscape.org/) -->

<svg
   width="256"
   height="256"
   viewBox="0 0 256 256.00001"
   version="1.1"
   id="svg5"
   sodipodi:docname="deepin-terminal.svg"
   inkscape:version="1.2.1 (9c6d41e410, 2022-07-14)"
   xmlns:inkscape="http://www.inkscape.org/namespaces/inkscape"
   xmlns:sodipodi="http://sodipodi.sourceforge.net/DTD/sodipodi-0.dtd"
   xmlns:xlink="http://www.w3.org/1999/xlink"
   xmlns="http://www.w3.org/2000/svg"
   xmlns:svg="http://www.w3.org/2000/svg">
  <sodipodi:namedview
     id="namedview7"
     pagecolor="#ffffff"
     bordercolor="#666666"
     borderopacity="1.0"
     inkscape:showpageshadow="2"
     inkscape:pageopacity="0.0"
     inkscape:pagecheckerboard="0"
     inkscape:deskcolor="#d1d1d1"
     inkscape:document-units="px"
     showgrid="false"
     inkscape:zoom="1"
     inkscape:cx="129.5"
     inkscape:cy="128"
     inkscape:window-width="1920"
     inkscape:window-height="1007"
     inkscape:window-x="0"
     inkscape:window-y="0"
     inkscape:window-maximized="1"
     inkscape:current-layer="svg5" />
  <defs
     id="defs2">
    <linearGradient
       inkscape:collect="always"
       xlink:href="#4852"
       id="linearGradient3525"
       x1="49.757847"
       y1="59.623318"
       x2="14.242153"
       y2="4.3766818"
       gradientUnits="userSpaceOnUse"
       gradientTransform="matrix(4.0545454,0,0,4.0545454,-1.745455,-1.745455)" />
    <linearGradient
       inkscape:collect="always"
       id="4852">
      <stop
         style="stop-color:#333333;stop-opacity:1"
         offset="0"
         id="stop14555" />
      <stop
         style="stop-color:#666666;stop-opacity:1"
         offset="1"
         id="stop14557" />
    </linearGradient>
  </defs>
  <rect
     style="fill:url(#linearGradient3525);fill-opacity:1.0;stroke:none;stroke-width:4.05454"
     id="rect184"
     width="223"
     height="223"
     x="16.5"
     y="16.5"
     ry="39.5" />
  <path
     d="m 128,59 c -3.95727,0 -7.91717,1.49779 -10.90712,4.663645 L 62.66361,119.76389 c -2.989945,3.0779 -4.57569,7.12775 -4.66361,11.17298 v 0.2583 c 0,12.04773 32.097975,0.35315 35,15.03908 1.58291,8.00246 -17.5,4.30972 -17.5,12.31226 0,9.40954 26.99546,2.99058 34.73414,10.64126 3.16585,7.73871 -10.3768,6.50639 -7.91448,13.71748 4.4849,4.66078 14.68425,2.02254 16.61891,9.58548 2.28645,8.61812 16.88435,7.1217 25.41452,0.79003 4.57285,-4.66081 -6.94586,-6.76603 -2.46096,-11.51479 4.57286,-4.66078 26.90961,-3.69874 27.08548,-13.89973 -2.11053,-6.4197 -10.55334,-7.47635 -10.64126,-15.03915 -0.43959,-6.4196 6.86207,-4.56785 30.07813,-10.89949 C 197.64814,137.53062 198,135.2404 198,131.19517 v -0.2583 c -0.0882,-4.04513 -1.93193,-8.09508 -4.92188,-11.17298 l -54.171,-56.100245 C 135.82922,60.49779 131.95728,59 128,59 Z m 1.05574,11.780615 c 4.13318,0 15.38939,13.901475 25.41451,24.3663 2.902,3.7814 -1.05574,7.648655 -1.05574,7.648655 l -21.01672,-11.52235 -9.31966,12.57812 -8.18034,-12.31226 -4.92188,19.17097 -14.51499,-8.7044 3.873695,-4.929465 22.687735,-23.302965 c 1.67083,-1.75882 3.07612,-2.992605 7.03339,-2.992605 z M 190.564,154.99936 c -0.81616,1.1e-4 -1.55592,0.0991 -2.14952,0.29611 -1.49496,0.43973 -8.53006,0.70136 -7.91448,5.97765 6.33164,2.72608 16.00739,4.83248 17.15059,-0.53165 0.87945,-3.95731 -2.90174,-5.62387 -6.24347,-5.71183 -0.2856,-0.021 -0.57106,-0.0315 -0.84305,-0.0315 z M 83.855025,172.72722 c -0.3227,8.7e-4 -0.64498,0.0245 -0.964635,0.0686 -0.61558,0.0872 -1.059835,0.25866 -1.58746,0.52409 -4.836685,1.84668 -8.09277,5.71957 -3.60787,7.39043 4.484935,1.67087 7.565075,-0.0914 11.522385,-2.20273 3.957275,-2.11053 3.780525,-2.45913 3.516695,-3.25083 -0.52759,0.0872 -4.13308,-2.10931 -7.914515,-2.46096 -0.31955,-0.0448 -0.6419,-0.0672 -0.9646,-0.0686 z"
     style="opacity:0.2;fill:#000000;fill-opacity:1;stroke-width:8.79393"
     id="path624" />
  <path
     d="m 128,58 c -3.95727,0 -7.91717,1.49779 -10.90712,4.663645 L 62.66361,118.76389 c -2.989945,3.0779 -4.57569,7.12775 -4.66361,11.17294 v 0.2583 c 0,12.04773 32.097975,0.35315 35,15.03908 1.58291,8.0025 -17.5,4.30976 -17.5,12.31226 0,9.40958 26.99546,2.99061 34.73418,10.6413 3.16582,7.73871 -10.37684,6.50639 -7.91452,13.71744 4.48494,4.66081 14.68425,2.02258 16.61891,9.58552 2.28645,8.61809 16.88435,7.1217 25.41452,0.78999 4.57285,-4.66078 -6.94586,-6.76599 -2.46096,-11.51476 4.57286,-4.66081 26.90961,-3.69873 27.08548,-13.89972 -2.11053,-6.4197 -10.55334,-7.47635 -10.64126,-15.03915 -0.43959,-6.4196 6.86207,-4.56785 30.07813,-10.89953 C 197.64814,136.53058 198,134.24036 198,130.19517 v -0.25831 c -0.0882,-4.04512 -1.93193,-8.09507 -4.92188,-11.17297 l -54.171,-56.100245 C 135.82922,59.49779 131.95728,58 128,58 Z m 1.05574,11.780615 c 4.13318,0 15.38939,13.901475 25.41451,24.3663 2.902,3.7814 -1.05574,7.648655 -1.05574,7.648655 l -21.01672,-11.52235 -9.31966,12.57812 -8.18034,-12.312295 -4.92188,19.171035 -14.51499,-8.70443 3.873695,-4.929465 22.687735,-23.302965 c 1.67083,-1.75882 3.07612,-2.992605 7.03339,-2.992605 z M 190.564,153.99933 c -0.81616,1.1e-4 -1.55592,0.0991 -2.14952,0.2961 -1.49496,0.43974 -8.53006,0.70137 -7.91448,5.97765 6.33164,2.72612 16.00739,4.83252 17.15059,-0.53165 0.87941,-3.95727 -2.90178,-5.62383 -6.24347,-5.71179 -0.2856,-0.021 -0.57106,-0.0315 -0.84305,-0.0315 z M 83.855025,171.72721 c -0.3227,8.8e-4 -0.64498,0.0245 -0.964635,0.0686 -0.61558,0.0872 -1.059835,0.25865 -1.58746,0.52409 -4.836685,1.84667 -8.09277,5.71956 -3.60787,7.39043 4.484935,1.67083 7.565075,-0.0914 11.522385,-2.20273 3.957275,-2.11053 3.780525,-2.45913 3.516695,-3.25087 -0.52759,0.0872 -4.13308,-2.10927 -7.914515,-2.46092 -0.31955,-0.0448 -0.6419,-0.0672 -0.9646,-0.0686 z"
     style="fill:#ffffff;fill-opacity:1;stroke-width:8.79393"
     id="path335"
     sodipodi:nodetypes="scccscsccccccccscccsscccccccccscccccccsccscccss" />
  <path
     id="rect899"
     style="fill:#000000;stroke:none;stroke-width:4;opacity:0.5"
     d="M 56,16 C 33.840066,16 16,33.840066 16,56 v 144 c 0,22.15994 17.840066,40 40,40 h 144 c 22.15994,0 40,-17.84006 40,-40 V 56 C 240,33.840066 222.15994,16 200,16 Z m 0,1 h 144 c 21.60598,0 39,17.394022 39,39 v 144 c 0,21.60598 -17.39402,39 -39,39 H 56 C 34.394022,239 17,221.60598 17,200 V 56 C 17,34.394022 34.394022,17 56,17 Z" />
  <path
     id="rect441"
     style="opacity:0.3;fill:#ffffff"
     d="m 17,199 v 1 c 0,21.60598 17.394022,39 39,39 h 144 c 21.60598,0 39,-17.39402 39,-39 v -1 c 0,21.60598 -17.39402,39 -39,39 H 56 C 34.394022,238 17,220.60598 17,199 Z" />
  <path
     id="rect443"
     style="opacity:0.3;fill:#ffffff"
     d="M 56,17 C 34.394022,17 17,34.394022 17,56 v 1 C 17,35.394022 34.394022,18 56,18 h 144 c 21.60598,0 39,17.394022 39,39 V 56 C 239,34.394022 221.60598,17 200,17 Z" />
</svg>
