<?xml version="1.0" encoding="UTF-8" standalone="no"?>
<!-- Created with Inkscape (http://www.inkscape.org/) -->

<svg
   width="256"
   height="256"
   viewBox="0 0 256 256.00001"
   version="1.1"
   id="svg5"
   sodipodi:docname="java.svg"
   inkscape:version="1.2.1 (9c6d41e410, 2022-07-14)"
   xmlns:inkscape="http://www.inkscape.org/namespaces/inkscape"
   xmlns:sodipodi="http://sodipodi.sourceforge.net/DTD/sodipodi-0.dtd"
   xmlns:xlink="http://www.w3.org/1999/xlink"
   xmlns="http://www.w3.org/2000/svg"
   xmlns:svg="http://www.w3.org/2000/svg">
  <sodipodi:namedview
     id="namedview7"
     pagecolor="#ffffff"
     bordercolor="#666666"
     borderopacity="1.0"
     inkscape:showpageshadow="2"
     inkscape:pageopacity="0.0"
     inkscape:pagecheckerboard="0"
     inkscape:deskcolor="#d1d1d1"
     inkscape:document-units="px"
     showgrid="false"
     inkscape:zoom="2"
     inkscape:cx="-40.25"
     inkscape:cy="150.25"
     inkscape:window-width="1920"
     inkscape:window-height="1007"
     inkscape:window-x="0"
     inkscape:window-y="0"
     inkscape:window-maximized="1"
     inkscape:current-layer="svg5"
     showguides="false" />
  <defs
     id="defs2">
    <linearGradient
       inkscape:collect="always"
       xlink:href="#linearGradient22024"
       id="linearGradient3525"
       x1="49.757847"
       y1="59.623318"
       x2="14.242153"
       y2="4.3766818"
       gradientUnits="userSpaceOnUse"
       gradientTransform="matrix(4.0545454,0,0,4.0545454,-1.745455,-1.745455)" />
    <linearGradient
       inkscape:collect="always"
       id="linearGradient22024">
      <stop
         style="stop-color:#dedede;stop-opacity:1;"
         offset="0"
         id="stop22020" />
      <stop
         style="stop-color:#f2f2f2;stop-opacity:1;"
         offset="1"
         id="stop22022" />
    </linearGradient>
  </defs>
  <rect
     style="fill:url(#linearGradient3525);fill-opacity:1;stroke:none;stroke-width:4.05454"
     id="rect184"
     width="223"
     height="223"
     x="16.5"
     y="16.5"
     ry="39.5" />
  <path
     id="path3787"
     style="opacity:0.2;fill:#000000;stroke-width:2.66918"
     d="m 143.20346,49 c 6.36312,26.416472 -22.44536,34.392664 -32.84349,50.843338 -7.08082,11.207222 3.46668,23.256482 17.85923,36.937202 -5.61243,-13.36756 -24.6388,-25.06038 0.016,-45.577742 C 158.97856,65.635656 143.20346,49 143.20346,49 Z m 19.01546,32.671608 c 3.4e-4,0 -51.98442,13.68379 -27.15602,43.827772 7.32916,8.88906 -1.92186,16.8905 -1.92186,16.8905 0,0 18.60232,-10.12478 10.06242,-22.7967 -7.979,-11.8119 -14.10162,-17.68474 19.01546,-37.921572 z m 9.20306,53.858932 c -1.82658,0.004 -3.76022,0.34146 -5.74996,1.07812 -1.5953,0.59496 -2.43748,1.96874 -2.43748,1.96874 0,0 1.01692,-0.42744 3.2656,-0.92188 9.19572,-2.01922 22.36736,12.9667 -6.12496,28.56228 -0.132,0.3716 -0.57846,0.79688 -0.57814,0.79688 33.88482,-9.38456 26.49844,-31.51338 11.6249,-31.48412 z m -62.437,1.51562 c -3.63256,0.1002 -12.132394,0.93122 -22.015444,5.9687 -15.589266,7.94164 38.545534,11.56478 66.577584,3.79684 2.91398,-2.0954 6.93744,-3.9062 6.93744,-3.9062 0,0 -11.46698,2.14608 -22.89044,3.1562 -13.98118,1.23596 -28.9711,1.48336 -36.4997,0.42184 -17.825062,-2.51076 9.76555,-9.4218 9.76555,-9.4218 0,0 -0.66416,-0.0488 -1.87499,-0.016 z m -4.54683,18.17172 c -25.712524,8.99222 14.30979,19.20092 50.24959,8.12494 -3.81856,-1.4182 -6.23432,-4.01558 -6.23432,-4.01558 -17.57128,3.5631 -27.72155,3.44526 -40.5778,2.04684 -9.939428,-1.08222 -3.43747,-6.1562 -3.43747,-6.1562 z m 3.64059,17.5155 c -23.348776,6.87388 14.19142,21.07634 43.92152,7.65618 -4.8692,-1.99374 -8.35932,-4.29684 -8.35932,-4.29684 -13.25748,2.64038 -19.40322,2.85386 -31.43723,1.40624 -9.93188,-1.20004 -4.12497,-4.76558 -4.12497,-4.76558 z m -16.21862,11.60928 c -10.485464,0.3408 -31.00325,10.27768 -12.2499,13.48426 60.60958,10.3513 110.48674,-4.66712 94.76486,-12.14052 0,0 4.30356,3.74102 -4.71872,6.62494 -17.15598,5.47498 -71.427516,7.12624 -86.499294,0.21872 -5.41398,-2.48464 4.741574,-5.92878 7.937438,-6.6562 3.332382,-0.7596 5.234336,-0.62504 5.234336,-0.62504 -0.941506,-0.69854 -2.526966,-0.96936 -4.46872,-0.90624 z M 184,193.84258 c 0,0 -1.90468,5.16488 -22.59356,9.26556 -23.34046,4.62974 -52.14673,4.0949 -69.218194,1.12498 0,0 3.497894,3.04718 21.468574,4.26558 27.34296,1.84192 69.34984,-1.02282 70.34318,-14.65612 z"
     sodipodi:nodetypes="ccccccccccccccccccccccccccccccccccccccccccccccccccc" />
  <path
     d="m 171.42198,134.53055 c -1.82658,0.004 -3.76022,0.34144 -5.74996,1.07812 -1.5953,0.59496 -2.43748,1.96874 -2.43748,1.96874 0,0 1.01692,-0.42744 3.2656,-0.92188 9.19572,-2.01924 22.36736,12.9667 -6.12496,28.56227 -0.132,0.3716 -0.57846,0.79686 -0.57814,0.79686 33.88482,-9.38456 26.49844,-31.51335 11.6249,-31.48411 z m -62.437,1.51562 c -3.63256,0.1002 -12.132394,0.9312 -22.015444,5.9687 -15.589266,7.94162 38.545534,11.56477 66.577584,3.79684 2.91398,-2.0954 6.93744,-3.90622 6.93744,-3.90622 0,0 -11.46698,2.14608 -22.89044,3.15622 -13.98118,1.23594 -28.9711,1.48334 -36.4997,0.42184 -17.825062,-2.51076 9.76555,-9.4218 9.76555,-9.4218 0,0 -0.66416,-0.0488 -1.87499,-0.016 z m -4.54683,18.17171 c -25.712524,8.99222 14.30979,19.2009 50.24959,8.12494 -3.81856,-1.41822 -6.23432,-4.0156 -6.23432,-4.0156 -17.57128,3.5631 -27.72155,3.44526 -40.5778,2.04686 -9.939428,-1.08224 -3.43747,-6.1562 -3.43747,-6.1562 z m 3.64059,17.51548 c -23.348776,6.8739 14.19142,21.07636 43.92152,7.6562 -4.8692,-1.99374 -8.35932,-4.29684 -8.35932,-4.29684 -13.25748,2.64036 -19.40322,2.85384 -31.43723,1.40622 -9.93188,-1.20004 -4.12497,-4.76558 -4.12497,-4.76558 z m -16.21862,11.60928 c -10.485464,0.3408 -31.00325,10.27768 -12.2499,13.48428 60.60958,10.3513 110.48674,-4.66714 94.76486,-12.14054 0,0 4.30356,3.74102 -4.71872,6.62494 -17.15598,5.47498 -71.427516,7.12624 -86.499294,0.21872 -5.41398,-2.48462 4.741574,-5.92878 7.937438,-6.65618 3.332382,-0.7596 5.234336,-0.62504 5.234336,-0.62504 -0.941506,-0.69856 -2.526966,-0.96936 -4.46872,-0.90624 z M 184,192.84256 c 0,0 -1.90468,5.16488 -22.59356,9.26556 -23.34046,4.62974 -52.14673,4.0949 -69.218194,1.125 0,0 3.497894,3.0472 21.468574,4.26558 27.34296,1.8419 69.34984,-1.02284 70.34318,-14.65614 z"
     style="fill:#5a87b6;fill-opacity:1;stroke-width:2.66918"
     id="path4299" />
  <path
     d="m 143.20346,48 c 6.36312,26.416472 -22.44536,34.392664 -32.84349,50.843348 -7.08082,11.207202 3.46668,23.256462 17.85923,36.937202 -5.61243,-13.36756 -24.6388,-25.06038 0.016,-45.577762 C 158.97856,64.635656 143.20346,48 143.20346,48 Z m 19.01546,32.671608 c 3.4e-4,0 -51.98442,13.68378 -27.15602,43.827782 7.32916,8.88906 -1.92186,16.89048 -1.92186,16.89048 0,0 18.60232,-10.12476 10.06242,-22.79668 -7.979,-11.8119 -14.10162,-17.68476 19.01546,-37.921582 z"
     style="fill:#ff9955;stroke-width:2.66918"
     id="path4332" />
  <path
     id="rect899"
     style="fill:#000000;stroke:none;stroke-width:4;opacity:0.5"
     d="M 56,16 C 33.840066,16 16,33.840066 16,56 v 144 c 0,22.15994 17.840066,40 40,40 h 144 c 22.15994,0 40,-17.84006 40,-40 V 56 C 240,33.840066 222.15994,16 200,16 Z m 0,1 h 144 c 21.60598,0 39,17.394022 39,39 v 144 c 0,21.60598 -17.39402,39 -39,39 H 56 C 34.394022,239 17,221.60598 17,200 V 56 C 17,34.394022 34.394022,17 56,17 Z" />
  <path
     id="rect441"
     style="opacity:0.3;fill:#ffffff"
     d="m 17,199 v 1 c 0,21.60598 17.394022,39 39,39 h 144 c 21.60598,0 39,-17.39402 39,-39 v -1 c 0,21.60598 -17.39402,39 -39,39 H 56 C 34.394022,238 17,220.60598 17,199 Z" />
  <path
     id="rect443"
     style="opacity:0.3;fill:#ffffff"
     d="M 56,17 C 34.394022,17 17,34.394022 17,56 v 1 C 17,35.394022 34.394022,18 56,18 h 144 c 21.60598,0 39,17.394022 39,39 V 56 C 239,34.394022 221.60598,17 200,17 Z" />
</svg>
