<?xml version="1.0" encoding="UTF-8" standalone="no"?>
<!-- Created with Inkscape (http://www.inkscape.org/) -->

<svg
   width="256"
   height="256"
   viewBox="0 0 256 256.00001"
   version="1.1"
   id="svg5"
   sodipodi:docname="kate.svg"
   inkscape:version="1.2.1 (9c6d41e410, 2022-07-14)"
   xmlns:inkscape="http://www.inkscape.org/namespaces/inkscape"
   xmlns:sodipodi="http://sodipodi.sourceforge.net/DTD/sodipodi-0.dtd"
   xmlns:xlink="http://www.w3.org/1999/xlink"
   xmlns="http://www.w3.org/2000/svg"
   xmlns:svg="http://www.w3.org/2000/svg">
  <sodipodi:namedview
     id="namedview7"
     pagecolor="#ffffff"
     bordercolor="#666666"
     borderopacity="1.0"
     inkscape:showpageshadow="2"
     inkscape:pageopacity="0.0"
     inkscape:pagecheckerboard="0"
     inkscape:deskcolor="#d1d1d1"
     inkscape:document-units="px"
     showgrid="false"
     inkscape:zoom="1"
     inkscape:cx="35"
     inkscape:cy="172"
     inkscape:window-width="1920"
     inkscape:window-height="1012"
     inkscape:window-x="0"
     inkscape:window-y="0"
     inkscape:window-maximized="1"
     inkscape:current-layer="svg5" />
  <defs
     id="defs2">
    <linearGradient
       inkscape:collect="always"
       xlink:href="#linearGradient1493"
       id="linearGradient3525"
       x1="49.757847"
       y1="59.623318"
       x2="14.242153"
       y2="4.3766818"
       gradientUnits="userSpaceOnUse"
       gradientTransform="matrix(4.0545454,0,0,4.0545454,-1.745455,-1.745455)" />
    <linearGradient
       inkscape:collect="always"
       id="linearGradient1493">
      <stop
         style="stop-color:#197cf1;stop-opacity:1;"
         offset="0"
         id="stop1489" />
      <stop
         style="stop-color:#20bcfa;stop-opacity:1;"
         offset="1"
         id="stop1491" />
    </linearGradient>
  </defs>
  <rect
     style="fill:url(#linearGradient3525);fill-opacity:1;stroke:none;stroke-width:4.05454"
     id="rect184"
     width="223"
     height="223"
     x="16.5"
     y="16.5"
     ry="39.5" />
  <path
     d="M 121.40626,53.00002 C 109.20968,52.99042 95.16474,56.490228 81.5625,66.343772 68.2715,75.9719 62.44708,78.580956 56,81.781276 c 5.65164,0.4312 39.04188,-4.294664 45.90624,14.781246 -24.62348,8.124198 -34.20986,21.385218 -30.93748,36.781248 0.4992,2.65819 1.38274,5.43796 2.75,8.3125 1.44754,3.04336 3.10176,5.65147 4.90624,7.96876 0.052,0.0736 0.1036,0.1456 0.1564,0.21872 11.27916,14.28239 29.0256,16.50525 48.21876,29.34375 17.4685,11.68484 23.25952,17.61574 34.53124,33.8125 -2.34404,-22.37884 -14.68734,-51.19828 -19.75008,-63.90622 l -0.0312,-0.0944 c 15.83938,11.63546 34.62196,16.69894 56.74996,18.2819 -35.35864,-25.16979 -42.07358,-31.12356 -62.3125,-48.37501 -13.57812,0.68416 -12.08676,0.57224 -20.09374,1.03125 0.94778,1.57994 1.9271,3.07921 2.90624,4.5625 8.2221,14.4309 9.90622,32.54158 -7.46876,36.15626 -18.03986,3.75296 -37.7266,-11.82179 -32.78124,-28.50001 5.3701,-18.11049 30.83864,-14.63964 55.15626,-17.78125 24.31756,-3.14159 46.54214,-26.972698 59.90624,-44.625 -19.2408,6.564904 -43.7846,12.603256 -71.125,20.531254 -5.32612,-10.895966 -10.60512,-29.73311 25.1875,-31.09375 C 141.5118,55.734796 132.168,53.008452 121.40634,53.00002 Z"
     style="opacity:0.2;fill:#000000;fill-opacity:1;stroke-width:5.71428"
     id="path8081" />
  <path
     style="fill:#cccccc;fill-opacity:1;stroke-width:5.71428"
     d="M 102.1892,96.515006 C 96.10828,76.327312 61.7441,81.225976 56,80.787704 c 6.44708,-3.200328 12.23676,-2.016712 25.52778,-11.64484 25.60422,-18.547872 43.56786,-18.7944 57.14286,-11.428576 -37.11208,1.410784 -20.86086,22.099416 -15.39458,32.752766 -6.95148,2.019192 -17.92492,5.067296 -21.08686,6.047952 z"
     id="path10" />
  <path
     style="fill:#f2f2f2;stroke-width:5.71428"
     d="m 193.79716,68.735832 c -13.3641,17.652328 -35.5833,41.501818 -59.9009,44.643418 -24.31764,3.14161 -49.7859,-0.33856 -55.156,17.77192 -4.94538,16.67824 14.73338,32.24987 32.77326,28.49691 19.27224,-4.00938 15.11012,-25.85306 4.56892,-40.72807 8.00702,-0.45896 3.29576,2.33588 16.8739,1.65139 l 8.81948,27.49989 c 5.06274,12.70795 17.408,41.54983 19.75196,63.92871 -11.27174,-16.19678 -17.06922,-22.14908 -34.53774,-33.83392 -22.37606,-14.96756 -42.78344,-15.47428 -53.27218,-37.52603 -10.4661,-22.00413 5.67252,-37.85456 30.46196,-44.7189 35.4259,-9.809662 65.95004,-19.11011 89.61734,-27.185318 z"
     id="path12" />
  <path
     style="fill:#cccccc;fill-opacity:1;stroke-width:5.71428"
     d="m 116.08248,118.92001 c 8.007,-0.45896 6.51754,-0.34048 20.09568,-1.02464 20.23894,17.25148 26.94732,23.22055 62.30598,48.39035 -35.54018,-2.54242 -62.43086,-14.07471 -82.40166,-47.36571 z"
     id="path14" />
  <path
     style="fill:#e6e6e6;fill-opacity:1;stroke-width:5.71428"
     d="m 56,80.787704 c 6.44708,-3.200328 12.2734,-5.838312 25.56442,-15.466456 25.60424,-18.547856 52.71232,-14.502824 66.2873,-7.137008 -37.11208,1.4108 -32.33028,8.80532 -32.46722,14.602176 C 90.72714,67.588968 83.5277,74.660584 56,80.787704 Z"
     id="path16" />
  <path
     style="fill:#f2f2f2;stroke-width:5.71428"
     d="m 147.85172,58.18424 c -37.11208,1.4108 -30.04192,21.629464 -24.57566,32.282814 -4.33076,1.257952 -6.17036,2.691024 -11.9597,4.223216 C 87.95692,53.067744 128.7863,47.652904 147.85172,58.18424 Z"
     id="path18" />
  <path
     style="fill:#e6e6e6;fill-opacity:1;stroke-width:5.71428"
     d="M 80.40056,151.00915 C 62.23996,127.62512 67.87844,106.19161 103.43956,95.055478 138.53252,84.065944 170.12986,76.81104 193.79716,68.735832 129.92788,93.071414 47.66568,109.33235 80.40056,151.00915 Z"
     id="path20" />
  <path
     id="rect899"
     style="fill:#000000;stroke:none;stroke-width:4;opacity:0.5"
     d="M 56,16 C 33.840066,16 16,33.840066 16,56 v 144 c 0,22.15994 17.840066,40 40,40 h 144 c 22.15994,0 40,-17.84006 40,-40 V 56 C 240,33.840066 222.15994,16 200,16 Z m 0,1 h 144 c 21.60598,0 39,17.394022 39,39 v 144 c 0,21.60598 -17.39402,39 -39,39 H 56 C 34.394022,239 17,221.60598 17,200 V 56 C 17,34.394022 34.394022,17 56,17 Z" />
  <path
     id="rect441"
     style="opacity:0.3;fill:#ffffff"
     d="m 17,199 v 1 c 0,21.60598 17.394022,39 39,39 h 144 c 21.60598,0 39,-17.39402 39,-39 v -1 c 0,21.60598 -17.39402,39 -39,39 H 56 C 34.394022,238 17,220.60598 17,199 Z" />
  <path
     id="rect443"
     style="opacity:0.3;fill:#ffffff"
     d="M 56,17 C 34.394022,17 17,34.394022 17,56 v 1 C 17,35.394022 34.394022,18 56,18 h 144 c 21.60598,0 39,17.394022 39,39 V 56 C 239,34.394022 221.60598,17 200,17 Z" />
</svg>
