<?xml version="1.0" encoding="UTF-8" standalone="no"?>
<!-- Created with Inkscape (http://www.inkscape.org/) -->

<svg
   width="256"
   height="256"
   viewBox="0 0 256 256.00001"
   version="1.1"
   id="svg5"
   sodipodi:docname="kleopatra.svg"
   inkscape:version="1.2.1 (9c6d41e410, 2022-07-14)"
   xmlns:inkscape="http://www.inkscape.org/namespaces/inkscape"
   xmlns:sodipodi="http://sodipodi.sourceforge.net/DTD/sodipodi-0.dtd"
   xmlns:xlink="http://www.w3.org/1999/xlink"
   xmlns="http://www.w3.org/2000/svg"
   xmlns:svg="http://www.w3.org/2000/svg">
  <sodipodi:namedview
     id="namedview7"
     pagecolor="#ffffff"
     bordercolor="#666666"
     borderopacity="1.0"
     inkscape:showpageshadow="2"
     inkscape:pageopacity="0.0"
     inkscape:pagecheckerboard="0"
     inkscape:deskcolor="#d1d1d1"
     inkscape:document-units="px"
     showgrid="false"
     inkscape:zoom="2.298097"
     inkscape:cx="20.451704"
     inkscape:cy="85.070386"
     inkscape:window-width="1920"
     inkscape:window-height="1007"
     inkscape:window-x="0"
     inkscape:window-y="0"
     inkscape:window-maximized="1"
     inkscape:current-layer="svg5" />
  <defs
     id="defs2">
    <linearGradient
       inkscape:collect="always"
       xlink:href="#linearGradient1617"
       id="linearGradient3525"
       x1="49.757847"
       y1="59.623318"
       x2="14.242153"
       y2="4.3766818"
       gradientUnits="userSpaceOnUse"
       gradientTransform="matrix(4.0545454,0,0,4.0545454,-1.745455,-1.745455)" />
    <linearGradient
       inkscape:collect="always"
       id="linearGradient1617">
      <stop
         style="stop-color:#d5a43a;stop-opacity:1;"
         offset="0"
         id="stop1613" />
      <stop
         style="stop-color:#e0bc6f;stop-opacity:1;"
         offset="1"
         id="stop1615" />
    </linearGradient>
  </defs>
  <rect
     style="fill:url(#linearGradient3525);fill-opacity:1.0;stroke:none;stroke-width:4.05454"
     id="rect184"
     width="223"
     height="223"
     x="16.5"
     y="16.5"
     ry="39.5" />
  <path
     d="m 112.48344,67 c -14.732201,0 -30.248801,3.831034 -46.195781,11.39855 -12.9804,6.159746 -18.53042,11.24184 -15.46108,14.164206 1.08272,1.030894 0.33408,1.245528 18.5158,-5.500056 12.42552,-4.60995 27.7078,-8.499252 35.969121,-9.164154 12.75616,-1.026664 27.94886,2.1658 54.84429,11.515742 9.65823,3.357586 20.7652,6.884342 24.67994,7.836014 8.37243,2.035326 9.25416,1.719634 16.23453,1.742206 L 206,99.000508 V 95.00828 c 0,-4.553682 -0.56872,-4.187542 -6.60163,-4.187542 -13.44962,0 -16.80456,-2.063964 -37.04724,-10.601666 C 140.66942,71.074112 127.5345,67 112.48344,67 Z m -9.04696,32.047196 c -2.2867,0.08392 -4.327361,0.294684 -5.968821,0.63282 -7.57066,1.559404 -17.7111,7.226174 -23.92992,12.976694 -9.63944,8.91356 -20.53584,25.57958 -19.46894,29.78155 0.48044,1.8922 0.9908,2.02023 9.48446,2.37502 4.93066,0.20601 14.5871,1.32325 22.15648,2.47659 l 13.92982,2.08596 v 5.86725 c -2.37416,10.7533 -0.68026,16.56047 -0.2578,20.47677 1.582201,14.17393 1.602761,15.71656 5.265681,15.20327 5.65844,-9.19837 5.50594,-26.8416 5.54694,-37.00818 l 5.77348,5.5938 c 15.8182,13.95191 21.67636,14.95356 35.24255,21.47678 11.22069,4.57342 20.84086,6.59983 31.68,5.81256 6.66303,0 15.07557,-7.38485 15.07047,-15.92203 -0.003,-6.58291 -1.85863,-12.14307 -6.36726,-14.25796 -8.28859,-3.88795 -17.47673,0.72288 -17.47673,9.35166 0,8.46891 8.16225,13.17413 13.57826,7.82039 2.25924,-2.23328 2.8153,-6.00057 1.21095,-8.26571 -0.71204,-1.00534 -0.78835,-0.8376 -0.34377,0.71876 1.53446,5.37095 -2.64949,9.0924 -7.46101,6.63288 -5.02844,-2.57041 -4.0762,-10.82744 1.40627,-12.18763 2.70808,-0.67189 7.45105,3.66724 9.22665,7.25008 0.95686,1.93069 0.99216,3.10673 0.17188,5.81255 -2.69046,8.87672 -14.78037,8.92197 -32.97689,0.14844 -4.41074,-2.12666 -10.32532,-5.33409 -13.14076,-7.13288 -4.85251,-3.10027 -11.17151,-6.90153 -19.64081,-14.25795 -4.48662,-3.89708 -4.74048,-3.36311 6.961,-5.25006 3.36416,-0.54245 13.2011,-3.3673 21.85178,-6.2735 15.36836,-5.16296 15.95223,-6.37858 25.34401,-6.44537 5.28655,-0.038 -3.4974,-0.36933 5.27348,0.008 l 16.42203,0.6795 v -7.76571 -8.54696 l -19.03925,-0.46875 c -26.54806,-0.68924 -13.60601,-1.3015 -41.00823,-11.76574 -5.23244,-1.99814 -10.81028,-4.41366 -14.4689,-5.35943 -6.48808,-1.677248 -17.18708,-2.525168 -24.0471,-2.273466 z m 31.08624,13.617324 c 0.31812,0 4.84654,2.54138 12.14856,5.63287 7.30204,3.09149 14.22439,5.84736 15.37515,6.13287 1.15082,0.28557 2.08597,0.82925 2.08597,1.19533 0,0.36608 -4.42152,2.83846 -9.82823,5.49225 -11.02607,5.41192 -17.56515,7.68034 -28.21903,8.2032 l -2.62502,0.10936 2.83596,-2.21096 c 1.56222,-1.21705 3.9209,-4.02812 5.24224,-6.25006 2.09638,-3.52514 2.40628,-4.94609 2.40628,-11.16418 0,-3.91932 0.26,-7.14071 0.57812,-7.14069 z m -45.977021,1.88283 c 1.30958,-0.24532 1.30024,1.76289 1.31252,5.7735 0.0248,7.89258 1.9416,12.19334 7.4532,16.71892 l 3.601601,2.95315 -18.531441,-1.5547 c -9.00078,-0.84872 -15.99048,-1.7275 -16.23454,-1.96877 -0.87482,-0.86472 5.5573,-7.47286 12.63294,-14.18765 5.26834,-4.99964 8.45614,-7.48917 9.76572,-7.73445 z"
     style="opacity:0.2;fill:#000000;stroke-width:4.00004"
     id="path822" />
  <path
     d="m 112.48344,66 c -14.732201,0 -30.248801,3.831034 -46.195781,11.39855 -12.9804,6.159746 -18.53042,11.24184 -15.46108,14.164206 1.08272,1.030894 0.33408,1.245528 18.5158,-5.500056 12.42552,-4.60995 27.7078,-8.499252 35.969121,-9.164154 12.75616,-1.026664 27.94886,2.1658 54.84429,11.515742 9.65823,3.357586 20.7652,6.884342 24.67994,7.836014 8.37243,2.035326 9.25416,1.719634 16.23453,1.742206 L 206,98.000508 V 94.00828 c 0,-4.553682 -0.56872,-4.187542 -6.60163,-4.187542 -13.44962,0 -16.80456,-2.063964 -37.04724,-10.601666 C 140.66942,70.074112 127.5345,66 112.48344,66 Z m -9.04696,32.047196 c -2.2867,0.08392 -4.327361,0.294684 -5.968821,0.63282 -7.57066,1.559404 -17.7111,7.226174 -23.92992,12.976694 -9.63944,8.91356 -20.53584,25.57957 -19.46894,29.78155 0.48044,1.89219 0.9908,2.02023 9.48446,2.37502 4.93066,0.206 14.5871,1.32325 22.15648,2.47659 l 13.92982,2.08596 v 5.86724 c -2.37416,10.75331 -0.68026,16.56047 -0.2578,20.47677 1.582201,14.17393 1.602761,15.71657 5.265681,15.20328 5.65844,-9.19838 5.50594,-26.8416 5.54694,-37.00818 l 5.77348,5.5938 c 15.8182,13.9519 21.67636,14.95356 35.24255,21.47678 11.22069,4.57342 20.84086,6.59983 31.68,5.81256 6.66303,0 15.07557,-7.38485 15.07047,-15.92204 -0.003,-6.5829 -1.85863,-12.14307 -6.36726,-14.25795 -8.28859,-3.88795 -17.47673,0.72287 -17.47673,9.35165 0,8.46891 8.16225,13.17413 13.57826,7.82039 2.25924,-2.23327 2.8153,-6.00056 1.21095,-8.26571 -0.71204,-1.00533 -0.78835,-0.83759 -0.34377,0.71876 1.53446,5.37095 -2.64949,9.09241 -7.46101,6.63288 -5.02844,-2.5704 -4.0762,-10.82743 1.40627,-12.18762 2.70808,-0.67189 7.45105,3.66724 9.22665,7.25007 0.95686,1.93069 0.99216,3.10674 0.17188,5.81256 -2.69046,8.87671 -14.78037,8.92196 -32.97689,0.14844 -4.41074,-2.12667 -10.32532,-5.33409 -13.14076,-7.13288 -4.85251,-3.10027 -11.17151,-6.90154 -19.64081,-14.25796 -4.48662,-3.89708 -4.74048,-3.3631 6.961,-5.25005 3.36416,-0.54245 13.2011,-3.36731 21.85178,-6.2735 15.36836,-5.16296 15.95223,-6.37859 25.34401,-6.44538 5.28655,-0.038 -3.4974,-0.36932 5.27348,0.008 l 16.42203,0.67951 v -7.76571 -8.54695 l -19.03925,-0.46876 c -26.54806,-0.68924 -13.60601,-1.3015 -41.00823,-11.76574 -5.23244,-1.99814 -10.81028,-4.41365 -14.4689,-5.35943 -6.48808,-1.677246 -17.18708,-2.525166 -24.0471,-2.273464 z m 31.08624,13.617324 c 0.31812,0 4.84654,2.54138 12.14856,5.63287 7.30204,3.09149 14.22439,5.84736 15.37515,6.13287 1.15082,0.28557 2.08597,0.82925 2.08597,1.19533 0,0.36608 -4.42152,2.83846 -9.82823,5.49224 -11.02607,5.41193 -17.56515,7.68034 -28.21903,8.20321 l -2.62502,0.10936 2.83596,-2.21096 c 1.56222,-1.21706 3.9209,-4.02813 5.24224,-6.25006 2.09638,-3.52514 2.40628,-4.94609 2.40628,-11.16418 0,-3.91932 0.26,-7.14071 0.57812,-7.14069 z m -45.977021,1.88283 c 1.30958,-0.24532 1.30024,1.76289 1.31252,5.7735 0.0248,7.89258 1.9416,12.19334 7.4532,16.71892 l 3.601601,2.95315 -18.531441,-1.5547 c -9.00078,-0.84872 -15.99048,-1.7275 -16.23454,-1.96877 -0.87482,-0.86472 5.5573,-7.47286 12.63294,-14.18765 5.26834,-4.99964 8.45614,-7.48917 9.76572,-7.73445 z"
     style="fill:#482f00;stroke-width:4.00004"
     id="path304"
     sodipodi:nodetypes="ssscsssccsscsscsscccccccccccsssscssscssscsccccccsssssssscccssssccccccsc" />
  <path
     id="rect899"
     style="fill:#000000;stroke:none;stroke-width:4;opacity:0.5"
     d="M 56,16 C 33.840066,16 16,33.840066 16,56 v 144 c 0,22.15994 17.840066,40 40,40 h 144 c 22.15994,0 40,-17.84006 40,-40 V 56 C 240,33.840066 222.15994,16 200,16 Z m 0,1 h 144 c 21.60598,0 39,17.394022 39,39 v 144 c 0,21.60598 -17.39402,39 -39,39 H 56 C 34.394022,239 17,221.60598 17,200 V 56 C 17,34.394022 34.394022,17 56,17 Z" />
  <path
     id="rect441"
     style="opacity:0.3;fill:#ffffff"
     d="m 17,199 v 1 c 0,21.60598 17.394022,39 39,39 h 144 c 21.60598,0 39,-17.39402 39,-39 v -1 c 0,21.60598 -17.39402,39 -39,39 H 56 C 34.394022,238 17,220.60598 17,199 Z" />
  <path
     id="rect443"
     style="opacity:0.3;fill:#ffffff"
     d="M 56,17 C 34.394022,17 17,34.394022 17,56 v 1 C 17,35.394022 34.394022,18 56,18 h 144 c 21.60598,0 39,17.394022 39,39 V 56 C 239,34.394022 221.60598,17 200,17 Z" />
</svg>
