<?xml version="1.0" encoding="UTF-8" standalone="no"?>
<!-- Created with Inkscape (http://www.inkscape.org/) -->

<svg
   width="256"
   height="256"
   viewBox="0 0 256 256.00001"
   version="1.1"
   id="svg5"
   sodipodi:docname="kmenuedit.svg"
   inkscape:version="1.2.1 (9c6d41e410, 2022-07-14)"
   xmlns:inkscape="http://www.inkscape.org/namespaces/inkscape"
   xmlns:sodipodi="http://sodipodi.sourceforge.net/DTD/sodipodi-0.dtd"
   xmlns:xlink="http://www.w3.org/1999/xlink"
   xmlns="http://www.w3.org/2000/svg"
   xmlns:svg="http://www.w3.org/2000/svg">
  <sodipodi:namedview
     id="namedview7"
     pagecolor="#ffffff"
     bordercolor="#666666"
     borderopacity="1.0"
     inkscape:showpageshadow="2"
     inkscape:pageopacity="0.0"
     inkscape:pagecheckerboard="0"
     inkscape:deskcolor="#d1d1d1"
     inkscape:document-units="px"
     showgrid="false"
     inkscape:zoom="3.1054688"
     inkscape:cx="123.65283"
     inkscape:cy="128"
     inkscape:window-width="1920"
     inkscape:window-height="1007"
     inkscape:window-x="0"
     inkscape:window-y="0"
     inkscape:window-maximized="1"
     inkscape:current-layer="svg5"
     showguides="false" />
  <defs
     id="defs2">
    <linearGradient
       inkscape:collect="always"
       xlink:href="#linearGradient22024"
       id="linearGradient3525"
       x1="32"
       y1="59.623318"
       x2="32"
       y2="4.3766818"
       gradientUnits="userSpaceOnUse"
       gradientTransform="matrix(4.0545454,0,0,4.0545454,-1.745455,-1.745455)" />
    <linearGradient
       inkscape:collect="always"
       id="linearGradient22024">
      <stop
         style="stop-color:#dedede;stop-opacity:1;"
         offset="0"
         id="stop22020" />
      <stop
         style="stop-color:#f2f2f2;stop-opacity:1;"
         offset="1"
         id="stop22022" />
    </linearGradient>
  </defs>
  <rect
     style="fill:url(#linearGradient3525);fill-opacity:1;stroke:none;stroke-width:4.05454"
     id="rect184"
     width="223"
     height="223"
     x="16.5"
     y="16.5"
     ry="39.5" />
  <rect
     style="opacity:0.5;fill:#57dade;fill-opacity:1;stroke-width:8.69972;stroke-linecap:round;stroke-linejoin:round"
     id="rect811"
     width="223"
     height="56"
     x="16.5"
     y="100" />
  <path
     d="m 64,57 c -8.83656,0 -16,7.16344 -16,16 0,8.83656 7.16344,16 16,16 8.83656,0 16,-7.16344 16,-16 0,-8.83656 -7.16344,-16 -16,-16 z m 0,8 c 4.41824,0 8,3.58172 8,8 0,4.41828 -3.58176,8 -8,8 -4.41824,0 -8,-3.58172 -8,-8 0,-4.41828 3.58176,-8 8,-8 z m 40,4 v 8 H 208 V 69 Z M 64,169 c -8.83656,0 -16,7.16344 -16,16 0,8.83656 7.16344,16 16,16 8.83656,0 16,-7.16344 16,-16 0,-8.83656 -7.16344,-16 -16,-16 z m 0,8 c 4.41824,0 8,3.58172 8,8 0,4.41828 -3.58176,8 -8,8 -4.41824,0 -8,-3.58172 -8,-8 0,-4.41828 3.58176,-8 8,-8 z m 40,4 v 8 h 104 v -8 z"
     style="color:#000000;display:inline;overflow:visible;visibility:visible;opacity:0.5;fill:#ffffff;fill-opacity:1;fill-rule:nonzero;stroke:none;stroke-width:16;marker:none;enable-background:accumulate"
     id="path734"
     sodipodi:nodetypes="sssssssssscccccssssssssssccccc" />
  <path
     d="m 64,113 c -8.83656,0 -16,7.16344 -16,16 0,8.83656 7.16344,16 16,16 8.83656,0 16,-7.16344 16,-16 0,-8.83656 -7.16344,-16 -16,-16 z m 0,8 c 4.41824,0 8,3.58172 8,8 0,4.41828 -3.58176,8 -8,8 -4.41824,0 -8,-3.58172 -8,-8 0,-4.41828 3.58176,-8 8,-8 z m 40,4 v 8 h 104 v -8 z"
     style="color:#000000;display:inline;overflow:visible;visibility:visible;opacity:0.2;fill:#000000;fill-opacity:1;fill-rule:nonzero;stroke:none;stroke-width:16;marker:none;enable-background:accumulate"
     id="path1408"
     sodipodi:nodetypes="ssssssssssccccc" />
  <path
     id="rect4137"
     style="color:#000000;display:inline;overflow:visible;visibility:visible;fill:#ababab;fill-opacity:1;fill-rule:nonzero;stroke:none;stroke-width:16;marker:none;enable-background:accumulate"
     d="m 64,56 c -8.83656,0 -16,7.16344 -16,16 0,8.836556 7.16344,15.999996 16,15.999996 8.83656,0 16,-7.16344 16,-15.999996 0,-8.83656 -7.16344,-16 -16,-16 z m 0,8 c 4.41824,0 8,3.58172 8,8 0,4.41828 -3.58176,7.999996 -8,7.999996 -4.41824,0 -8,-3.581716 -8,-7.999996 0,-4.41828 3.58176,-8 8,-8 z m 40,4 v 8 h 104 v -8 z m -40,99.99999 c -8.83656,0 -16,7.16344 -16,16 0,8.83656 7.16344,16 16,16 8.83656,0 16,-7.16344 16,-16 0,-8.83656 -7.16344,-16 -16,-16 z m 0,8 c 4.41824,0 8,3.58172 8,8 0,4.41828 -3.58176,8 -8,8 -4.41824,0 -8,-3.58172 -8,-8 0,-4.41828 3.58176,-8 8,-8 z m 40,4 v 8 h 104 v -8 z"
     sodipodi:nodetypes="sssssssssscccccssssssssssccccc" />
  <path
     d="m 64,112 c -8.83656,0 -16,7.16344 -16,16.00001 0,8.83656 7.16344,16.00002 16,16.00002 8.83656,0 16,-7.16346 16,-16.00002 C 80,119.16344 72.83656,112 64,112 Z m 0,8 c 4.41824,0 8,3.58172 8,8.00001 0,4.41828 -3.58176,8 -8,8 -4.41824,0 -8,-3.58172 -8,-8 C 56,123.58172 59.58176,120 64,120 Z m 40,4 v 8.00001 H 208 V 124 Z"
     style="color:#000000;display:inline;overflow:visible;visibility:visible;fill:#ffffff;fill-opacity:1;fill-rule:nonzero;stroke:none;stroke-width:16;marker:none;enable-background:accumulate"
     id="path1375"
     sodipodi:nodetypes="ssssssssssccccc" />
  <path
     id="rect899"
     style="fill:#000000;stroke:none;stroke-width:4;opacity:0.5"
     d="M 56,16 C 33.840066,16 16,33.840066 16,56 v 144 c 0,22.15994 17.840066,40 40,40 h 144 c 22.15994,0 40,-17.84006 40,-40 V 56 C 240,33.840066 222.15994,16 200,16 Z m 0,1 h 144 c 21.60598,0 39,17.394022 39,39 v 144 c 0,21.60598 -17.39402,39 -39,39 H 56 C 34.394022,239 17,221.60598 17,200 V 56 C 17,34.394022 34.394022,17 56,17 Z" />
  <path
     id="rect441"
     style="opacity:0.3;fill:#ffffff"
     d="m 17,199 v 1 c 0,21.60598 17.394022,39 39,39 h 144 c 21.60598,0 39,-17.39402 39,-39 v -1 c 0,21.60598 -17.39402,39 -39,39 H 56 C 34.394022,238 17,220.60598 17,199 Z" />
  <path
     id="rect443"
     style="opacity:0.3;fill:#ffffff"
     d="M 56,17 C 34.394022,17 17,34.394022 17,56 v 1 C 17,35.394022 34.394022,18 56,18 h 144 c 21.60598,0 39,17.394022 39,39 V 56 C 239,34.394022 221.60598,17 200,17 Z" />
</svg>
