<?xml version="1.0" encoding="UTF-8" standalone="no"?>
<!-- Created with Inkscape (http://www.inkscape.org/) -->

<svg
   width="256"
   height="256"
   viewBox="0 0 256 256.00001"
   version="1.1"
   id="svg5"
   sodipodi:docname="ksudoku.svg"
   inkscape:version="1.2.1 (9c6d41e410, 2022-07-14)"
   xmlns:inkscape="http://www.inkscape.org/namespaces/inkscape"
   xmlns:sodipodi="http://sodipodi.sourceforge.net/DTD/sodipodi-0.dtd"
   xmlns:xlink="http://www.w3.org/1999/xlink"
   xmlns="http://www.w3.org/2000/svg"
   xmlns:svg="http://www.w3.org/2000/svg">
  <sodipodi:namedview
     id="namedview7"
     pagecolor="#ffffff"
     bordercolor="#666666"
     borderopacity="1.0"
     inkscape:showpageshadow="2"
     inkscape:pageopacity="0.0"
     inkscape:pagecheckerboard="0"
     inkscape:deskcolor="#d1d1d1"
     inkscape:document-units="px"
     showgrid="false"
     inkscape:zoom="3.2070312"
     inkscape:cx="128"
     inkscape:cy="128"
     inkscape:window-width="1920"
     inkscape:window-height="1007"
     inkscape:window-x="0"
     inkscape:window-y="0"
     inkscape:window-maximized="1"
     inkscape:current-layer="svg5"
     showguides="false" />
  <defs
     id="defs2">
    <linearGradient
       inkscape:collect="always"
       xlink:href="#linearGradient22024"
       id="linearGradient3525"
       x1="32"
       y1="59.623318"
       x2="32"
       y2="4.3766818"
       gradientUnits="userSpaceOnUse"
       gradientTransform="matrix(4.0545454,0,0,4.0545454,-1.745455,-1.745455)" />
    <linearGradient
       inkscape:collect="always"
       id="linearGradient22024">
      <stop
         style="stop-color:#dedede;stop-opacity:1;"
         offset="0"
         id="stop22020" />
      <stop
         style="stop-color:#f2f2f2;stop-opacity:1;"
         offset="1"
         id="stop22022" />
    </linearGradient>
  </defs>
  <rect
     style="fill:url(#linearGradient3525);fill-opacity:1;stroke:none;stroke-width:4.05454"
     id="rect184"
     width="223"
     height="223"
     x="16.5"
     y="16.5"
     ry="39.5" />
  <path
     d="M 82.000002,16 V 82.000002 H 16 v 6.000002 H 82.000002 V 168 H 16 v 6 h 66.000002 v 66 H 88 v -66 h 80 v 66 h 6 v -66 h 66 v -6 H 174 V 88 h 66 V 82.000002 H 174 V 16 h -6 V 82.000002 H 88 V 16 Z M 88,88 h 80 v 80 H 88 Z"
     style="color:#000000;font-style:normal;font-variant:normal;font-weight:normal;font-stretch:normal;font-size:medium;line-height:normal;font-family:Sans;-inkscape-font-specification:Sans;text-indent:0;text-align:start;text-decoration:none;text-decoration-line:none;letter-spacing:normal;word-spacing:normal;text-transform:none;writing-mode:lr-tb;direction:ltr;baseline-shift:baseline;text-anchor:start;display:inline;overflow:visible;visibility:visible;opacity:0.2;fill:#000000;fill-opacity:1;stroke:none;stroke-width:4px;marker:none;enable-background:accumulate"
     id="path633"
     sodipodi:nodetypes="cccccccccccccccccccccccccccccccccc" />
  <path
     d="m 16,88.000002 v 6 h 224 v -6 z M 16,174 v 6 h 224 v -6 z"
     style="color:#000000;font-style:normal;font-variant:normal;font-weight:normal;font-stretch:normal;font-size:medium;line-height:normal;font-family:Sans;-inkscape-font-specification:Sans;text-indent:0;text-align:start;text-decoration:none;text-decoration-line:none;letter-spacing:normal;word-spacing:normal;text-transform:none;writing-mode:lr-tb;direction:ltr;baseline-shift:baseline;text-anchor:start;display:inline;overflow:visible;visibility:visible;opacity:0.2;fill:#ffffff;fill-opacity:1;stroke:none;stroke-width:4px;marker:none;enable-background:accumulate"
     id="path868"
     sodipodi:nodetypes="cccccccccc" />
  <rect
     style="fill:#a348b1;fill-opacity:1;stroke-width:4;stroke-linecap:round;stroke-linejoin:round"
     id="rect945"
     width="88"
     height="88"
     x="84"
     y="84" />
  <path
     id="path8490"
     style="font-size:12px;line-height:1.25;opacity:0.2;fill:#000000;stroke-width:4"
     d="m 50.878908,103.546 c -2.559974,0 -4.778082,0.48142 -6.652344,1.44141 -1.874258,0.95998 -3.425884,2.19458 -4.660156,3.70312 -1.188586,1.50854 -2.08147,3.17537 -2.675782,5.00391 -0.59419,1.82854 -0.890624,3.58982 -0.890624,5.28124 0,1.91998 0.250906,3.77188 0.753906,5.5547 0.548552,1.73714 1.416882,3.29262 2.60547,4.66406 1.188546,1.32566 2.719494,2.39982 4.593748,3.22266 1.874264,0.7773 4.162282,1.16406 6.859376,1.16406 1.599982,0 3.15161,-0.1604 4.660156,-0.48048 1.508542,-0.3657 2.858288,-0.82254 4.046876,-1.37108 -0.548596,2.78852 -1.416922,5.14252 -2.60547,7.0625 -1.142866,1.91998 -2.583214,3.4962 -4.320312,4.73046 -1.737142,1.18858 -3.770144,2.05692 -6.101562,2.60546 -2.285654,0.54848 -4.870032,0.82422 -7.75,0.82422 l 0.20703,5.34766 c 9.234184,-0.0458 16.18092,-2.46568 20.84375,-7.26562 4.708512,-4.84568 7.0625,-11.97746 7.0625,-21.39454 0,-3.10852 -0.341628,-5.89864 -1.027344,-8.36718 -0.68571,-2.51429 -1.714514,-4.63785 -3.085936,-6.375 -1.325708,-1.73713 -2.992488,-3.06615 -5.003906,-3.98047 -1.965702,-0.91427 -4.253682,-1.37109 -6.859376,-1.37109 z m 75.070312,0.4375 c -1.32572,0 -2.60556,0.13576 -3.83984,0.41016 -1.18857,0.22856 -2.30794,0.52502 -3.35938,0.89062 -1.0514,0.36572 -2.01421,0.77722 -2.88281,1.23438 -0.82284,0.4114 -1.50613,0.80237 -2.05469,1.16797 l 2.46875,4.86718 c 1.05144,-0.68572 2.33129,-1.34828 3.83985,-1.98828 1.55427,-0.64 3.42681,-0.96094 5.62109,-0.96094 1.09716,0 2.12594,0.13966 3.08594,0.41407 1.00572,0.22856 1.87403,0.64009 2.60547,1.23437 0.77715,0.59428 1.3944,1.34744 1.85156,2.26172 0.45692,0.91427 0.6875,2.01297 0.6875,3.29297 0,1.55432 -0.32094,2.8548 -0.96094,3.90624 -0.64,1.00572 -1.46303,1.80808 -2.46875,2.40236 -1.00568,0.59428 -2.12506,1.00596 -3.35937,1.23436 -1.18856,0.2284 -2.35326,0.33986 -3.4961,0.33986 h -2.26562 v 5.21092 h 1.64843 c 1.64572,0 3.2426,0.1604 4.79688,0.48048 1.6,0.27428 2.99499,0.77642 4.18359,1.5078 1.18856,0.68572 2.14746,1.62396 2.8789,2.8125 0.73152,1.18856 1.09766,2.65352 1.09766,4.39064 0,2.69716 -0.889,4.8453 -2.67187,6.4453 -1.73712,1.6 -4.64238,2.39844 -8.71094,2.39844 -2.60572,0 -4.81988,-0.2963 -6.64843,-0.89062 -1.78284,-0.59428 -3.0666,-1.0758 -3.84375,-1.4414 l -1.23047,5.55468 c 0.36572,0.1828 0.95841,0.4131 1.78125,0.6875 0.82288,0.27432 1.78178,0.54592 2.8789,0.82032 1.09716,0.27428 2.26182,0.5047 3.4961,0.6875 1.28,0.1828 2.51456,0.27344 3.70312,0.27344 3.06288,0 5.71704,-0.36622 7.95703,-1.09766 2.24,-0.7314 4.0918,-1.73564 5.55468,-3.01564 1.50856,-1.27998 2.6034,-2.79022 3.28908,-4.52734 0.73156,-1.78288 1.09764,-3.70068 1.09764,-5.7578 0,-1.69144 -0.27566,-3.22236 -0.82422,-4.59376 -0.50288,-1.37144 -1.18612,-2.58532 -2.05468,-3.63672 -0.82284,-1.05144 -1.80638,-1.91974 -2.94922,-2.60546 -1.14288,-0.68572 -2.33212,-1.21252 -3.5664,-1.57812 2.01144,-0.91428 3.7274,-2.23946 5.14452,-3.97658 1.41716,-1.78286 2.125,-3.90644 2.125,-6.375 0,-1.78282 -0.2963,-3.42889 -0.89062,-4.93749 -0.59428,-1.55428 -1.48718,-2.87944 -2.67578,-3.97656 -1.18856,-1.14288 -2.69874,-2.01119 -4.52734,-2.60547 -1.82856,-0.64 -3.99744,-0.96094 -6.51172,-0.96094 z m -75,4.84375 c 1.828542,0 3.334892,0.4115 4.523438,1.23438 1.188552,0.77711 2.126784,1.85127 2.8125,3.22265 0.731392,1.3257 1.233414,2.90194 1.507812,4.73046 0.274236,1.78284 0.414064,3.65936 0.414064,5.625 v 1.50782 c 0,0.45712 -0.02472,0.93462 -0.07032,1.4375 -1.325706,0.59428 -2.696138,1.055 -4.11328,1.375 -1.417108,0.27424 -2.927362,0.41016 -4.527344,0.41016 -2.97137,0 -5.210168,-0.80236 -6.71875,-2.40234 -1.462826,-1.6457 -2.195312,-4.02034 -2.195312,-7.12892 0,-1.0971 0.13576,-2.2165 0.410156,-3.35936 0.319996,-1.18856 0.826002,-2.26267 1.511718,-3.22266 0.685712,-1.00571 1.554042,-1.82876 2.60547,-2.46875 1.05143,-0.63999 2.3313,-0.96094 3.839842,-0.96094 z M 206.39844,182.671 c -2.05714,2.3771 -4.32054,4.36486 -6.78906,5.96484 -2.46854,1.55426 -5.0037,2.83414 -7.60938,3.83984 l 1.98828,4.80078 c 0.96,-0.31998 1.9435,-0.71086 2.94922,-1.16796 1.05138,-0.45716 2.03104,-0.93466 2.94532,-1.4375 0.95998,-0.50288 1.8283,-1.02954 2.60546,-1.57812 0.82284,-0.54856 1.51004,-1.0753 2.0586,-1.57814 v 38.67578 h 6.3789 V 182.671 Z" />
  <path
     d="m 124.64572,146.93824 c 4.06856,0 6.97144,-0.8 8.70856,-2.4 1.78288,-1.6 2.67428,-3.74856 2.67428,-6.44572 0,-1.73712 -0.3656,-3.2 -1.09712,-4.38856 -0.73144,-1.18856 -1.69144,-2.12572 -2.88,-2.81144 -1.1886,-0.7314 -2.58288,-1.23428 -4.18288,-1.50856 -1.55428,-0.32 -3.15428,-0.48 -4.8,-0.48 h -1.64572 v -5.21144 h 2.26288 c 1.14284,0 2.30856,-0.1144 3.49712,-0.3428 1.23432,-0.2284 2.35432,-0.64 3.36,-1.23428 1.00572,-0.59428 1.8286,-1.39428 2.4686,-2.4 0.64,-1.05144 0.96,-2.35428 0.96,-3.9086 0,-1.28 -0.2288,-2.37712 -0.68572,-3.2914 -0.45716,-0.91428 -1.07428,-1.6686 -1.85144,-2.26288 -0.73144,-0.59428 -1.6,-1.00572 -2.60572,-1.23428 -0.96,-0.2744 -1.98856,-0.41144 -3.08572,-0.41144 -2.19428,0 -4.06856,0.32 -5.62284,0.96 -1.50856,0.64 -2.78856,1.30288 -3.84,1.9886 l -2.46856,-4.8686 c 0.54856,-0.3656 1.23428,-0.75428 2.05712,-1.16568 0.8686,-0.45716 1.8286,-0.8686 2.88,-1.23432 1.05144,-0.3656 2.17144,-0.66284 3.36,-0.8914 1.23428,-0.2744 2.51428,-0.41144 3.84,-0.41144 2.51428,0 4.68572,0.32 6.51428,0.96 1.8286,0.59428 3.33716,1.46284 4.52572,2.60572 1.1886,1.09712 2.08,2.42284 2.67428,3.97712 0.59432,1.5086 0.89144,3.15432 0.89144,4.93716 0,2.46856 -0.70856,4.59428 -2.12572,6.37716 -1.41712,1.73712 -3.1314,3.06284 -5.14284,3.97712 1.23428,0.3656 2.42284,0.89144 3.56572,1.57716 1.14284,0.68572 2.12572,1.55428 2.94856,2.60572 0.86856,1.0514 1.55428,2.26284 2.05716,3.63428 0.54856,1.3714 0.82284,2.90284 0.82284,4.59428 0,2.05712 -0.3656,3.97712 -1.09716,5.76 -0.68568,1.73712 -1.78284,3.24572 -3.2914,4.52572 -1.46288,1.28 -3.31428,2.28572 -5.55428,3.01712 -2.24,0.73144 -4.89144,1.09716 -7.95432,1.09716 -1.18856,0 -2.42284,-0.0916 -3.70284,-0.2744 -1.23428,-0.1828 -2.4,-0.41144 -3.49716,-0.68572 -1.09712,-0.2744 -2.05712,-0.54856 -2.88,-0.82288 -0.82284,-0.2744 -1.41712,-0.50284 -1.78284,-0.68568 l 1.23428,-5.55432 c 0.77716,0.3656 2.05716,0.84572 3.84,1.44 1.82856,0.59432 4.04572,0.89144 6.65144,0.89144 z"
     style="font-size:12px;line-height:1.25;fill:#ffffff;stroke-width:4"
     id="path10343" />
  <path
     d="m 66.856824,122.6392 c 0,9.41708 -2.354256,16.54844 -7.062772,21.39412 -4.662836,4.79996 -11.611328,7.22278 -20.84552,7.26848 l -0.2056,-5.3485 c 2.879972,0 5.462828,-0.2744 7.748484,-0.82288 2.33142,-0.54854 4.36568,-1.4171 6.102824,-2.60568 1.7371,-1.23428 3.177088,-2.81138 4.319956,-4.73136 1.188548,-1.91998 2.0571,-4.27428 2.605696,-7.06282 -1.188588,0.54856 -2.537136,1.00572 -4.04568,1.37144 -1.508548,0.32 -3.062852,0.47998 -4.662836,0.47998 -2.697096,0 -4.982792,-0.38838 -6.857056,-1.1657 -1.874256,-0.82284 -3.405684,-1.89714 -4.594232,-3.2228 -1.188588,-1.37144 -2.05714,-2.9257 -2.605692,-4.66284 C 36.251396,121.74782 36,119.89638 36,117.97642 c 0,-1.69144 0.2972,-3.45142 0.891392,-5.27996 0.594312,-1.82854 1.485704,-3.49712 2.674292,-5.00567 1.234272,-1.50855 2.788536,-2.74281 4.662796,-3.7028 1.874264,-0.95999 4.0914,-1.43999 6.651376,-1.43999 2.605696,0 4.891352,0.45712 6.857056,1.37139 2.01142,0.91431 3.679964,2.23998 5.005672,3.97712 1.371424,1.73714 2.399976,3.8628 3.085688,6.3771 0.685716,2.46853 1.028552,5.25707 1.028552,8.36559 z m -15.359852,4.7314 c 1.599984,0 3.108568,-0.1372 4.525676,-0.41144 1.417144,-0.32 2.788532,-0.7771 4.11424,-1.37138 0.0456,-0.50288 0.0684,-0.98288 0.0684,-1.44 v -1.50858 c 0,-1.96566 -0.1372,-3.83996 -0.411436,-5.62278 -0.2744,-1.82854 -0.777152,-3.40569 -1.508544,-4.73139 -0.685716,-1.37139 -1.622864,-2.4457 -2.811416,-3.22281 -1.188548,-0.82288 -2.697132,-1.23427 -4.525676,-1.23427 -1.508544,0 -2.788532,0.32 -3.839964,0.95999 -1.051428,0.64 -1.91998,1.46282 -2.605692,2.46854 -0.685716,0.95999 -1.188552,2.03426 -1.508548,3.2228 -0.2744,1.14288 -0.411436,2.26286 -0.411436,3.35996 0,3.10858 0.731432,5.48568 2.19426,7.13138 1.508584,1.59998 3.748564,2.39998 6.719936,2.39998 z m 140.501488,64.10646 c 2.6057,-1.0057 5.14284,-2.2857 7.61136,-3.83996 2.46854,-1.59998 4.73136,-3.58856 6.7885,-5.96566 h 4.52568 v 47.51954 h -6.3771 v -38.6739 c -0.54856,0.50282 -1.23426,1.02854 -2.0571,1.5771 -0.77716,0.5486 -1.6457,1.07426 -2.6057,1.57714 -0.91426,0.50284 -1.89714,0.98284 -2.94852,1.44 -1.00572,0.4571 -1.98858,0.8457 -2.94858,1.1657 z"
     style="font-size:12px;line-height:1.25;fill:#4d4d4d;stroke-width:3.99996"
     id="path4422"
     sodipodi:nodetypes="sccccccccscccsccsscccssccsscccssccscsscccccccccccc" />
  <path
     id="rect899"
     style="fill:#000000;stroke:none;stroke-width:4;opacity:0.5"
     d="M 56,16 C 33.840066,16 16,33.840066 16,56 v 144 c 0,22.15994 17.840066,40 40,40 h 144 c 22.15994,0 40,-17.84006 40,-40 V 56 C 240,33.840066 222.15994,16 200,16 Z m 0,1 h 144 c 21.60598,0 39,17.394022 39,39 v 144 c 0,21.60598 -17.39402,39 -39,39 H 56 C 34.394022,239 17,221.60598 17,200 V 56 C 17,34.394022 34.394022,17 56,17 Z" />
  <path
     id="rect441"
     style="opacity:0.3;fill:#ffffff"
     d="m 17,199 v 1 c 0,21.60598 17.394022,39 39,39 h 144 c 21.60598,0 39,-17.39402 39,-39 v -1 c 0,21.60598 -17.39402,39 -39,39 H 56 C 34.394022,238 17,220.60598 17,199 Z" />
  <path
     id="rect443"
     style="opacity:0.3;fill:#ffffff"
     d="M 56,17 C 34.394022,17 17,34.394022 17,56 v 1 C 17,35.394022 34.394022,18 56,18 h 144 c 21.60598,0 39,17.394022 39,39 V 56 C 239,34.394022 221.60598,17 200,17 Z" />
</svg>
