<?xml version="1.0" encoding="UTF-8" standalone="no"?>
<!-- Created with Inkscape (http://www.inkscape.org/) -->

<svg
   width="256"
   height="256"
   viewBox="0 0 256 256.00001"
   version="1.1"
   id="svg5"
   sodipodi:docname="ktorrent.svg"
   inkscape:version="1.2.1 (9c6d41e410, 2022-07-14)"
   xmlns:inkscape="http://www.inkscape.org/namespaces/inkscape"
   xmlns:sodipodi="http://sodipodi.sourceforge.net/DTD/sodipodi-0.dtd"
   xmlns:xlink="http://www.w3.org/1999/xlink"
   xmlns="http://www.w3.org/2000/svg"
   xmlns:svg="http://www.w3.org/2000/svg">
  <sodipodi:namedview
     id="namedview7"
     pagecolor="#ffffff"
     bordercolor="#666666"
     borderopacity="1.0"
     inkscape:showpageshadow="2"
     inkscape:pageopacity="0.0"
     inkscape:pagecheckerboard="0"
     inkscape:deskcolor="#d1d1d1"
     inkscape:document-units="px"
     showgrid="false"
     inkscape:zoom="1.625"
     inkscape:cx="94.46154"
     inkscape:cy="109.84616"
     inkscape:window-width="1920"
     inkscape:window-height="1007"
     inkscape:window-x="0"
     inkscape:window-y="0"
     inkscape:window-maximized="1"
     inkscape:current-layer="svg5" />
  <defs
     id="defs2">
    <linearGradient
       inkscape:collect="always"
       xlink:href="#linearGradient1265"
       id="linearGradient3525"
       x1="49.757851"
       y1="59.623322"
       x2="14.242154"
       y2="4.3766828"
       gradientUnits="userSpaceOnUse"
       gradientTransform="matrix(4.0545454,0,0,4.0545454,-1.7454618,-1.7454586)" />
    <linearGradient
       inkscape:collect="always"
       id="linearGradient1265">
      <stop
         style="stop-color:#2d7ff3;stop-opacity:1;"
         offset="0"
         id="stop1261" />
      <stop
         style="stop-color:#2cdbfa;stop-opacity:1;"
         offset="1"
         id="stop1263" />
    </linearGradient>
  </defs>
  <rect
     style="fill:url(#linearGradient3525);fill-opacity:1;stroke:none;stroke-width:4.05454"
     id="rect184"
     width="223"
     height="223"
     x="16.5"
     y="16.5"
     ry="39.5" />
  <path
     d="m 98,49 v 66.09376 21.83593 c -2.598976,1.24169 -5.189804,4.15099 -7.402344,6.40625 -3.640876,3.7033 -6.8815,3.95871 -9.472656,1.73828 -2.587248,-2.21652 -0.33104,-8.25216 -3.320308,-14.31642 -2.985292,-6.06422 -8.911008,-3.04276 -9.7461,1.0547 -0.8351,4.09744 7.494472,6.86557 5.878908,9.14062 -1.615572,2.27506 -8.07612,1.74962 -9.980468,-2.53906 -1.90044,-4.28866 -6.050864,-2.8832 -6.132812,0.625 -0.082,3.51212 3.213512,1.04554 5.781252,3.61328 l 66.347648,66.34768 66.32812,-66.34768 c 7.80468,-7.80467 -1.12684,-4.45136 -2.96874,-2.69531 -1.83802,1.75605 -7.53192,3.17386 -8.20312,1.25001 -0.66728,-1.92386 6.37308,-5.1506 8.3789,-7.32423 2.0058,-2.17359 3.96548,-8.34212 0.72272,-10.60545 -3.24288,-2.26338 -7.83012,1.81551 -9.82424,4.8242 -2.00578,3.00871 -0.27232,10.68595 -2.9492,13.02734 -2.677,2.34141 -4.14894,0.912 -4.64844,-1.09375 -0.50344,-2.00579 5.77862,-4.83311 3.14452,-9.8242 -2.63796,-4.99109 -7.51008,-2.72817 -9.76562,-0.39064 -2.25554,2.34142 1.3485,5.94901 2.1875,9.62892 0.83512,3.67989 -7.71038,3.5846 -11.05468,2.24608 -1.46114,-0.58475 -2.48376,-2.51925 -3.30082,-4.55077 V 49 Z M 62.746092,109 C 60.105468,109.134 58,111.32625 58,114 c 0,2.75999 2.24,5 5,5 2.76,0 5,-2.24001 5,-5 0,-2.76 -2.24,-5 -5,-5 -0.08604,0 -0.16872,-0.004 -0.25392,0 z m 27.246096,0 c -1.495424,0.0654 -3.245268,1.49682 -1.445308,3.47656 2.556036,2.81815 3.919584,7.8428 1.64062,8.84766 -2.290676,1.00488 -2.14082,-3.74604 -2.343744,-6.26953 -0.19904,-2.52347 -6.525792,-4.04585 -8.867192,-0.91803 -2.341404,3.1279 0.006,6.50752 2.324216,7.1875 2.317984,0.68367 2.68498,3.24715 4.0625,5.91796 1.381436,2.6708 8.08758,2.00214 9.726568,0 1.638976,-2.00217 2.664756,-5.72626 -0.527292,-9.16015 -3.19212,-3.4339 -2.223516,-6.62609 -3.085936,-8.37891 -0.21464,-0.43826 -0.676332,-0.65782 -1.191404,-0.7031 -0.0956,-0.008 -0.19332,-0.004 -0.29304,0 z m 92.753912,0 c -2.64064,0.13404 -4.7461,2.32625 -4.7461,5 0,2.75999 2.24,5 5,5 2.76,0 5,-2.24001 5,-5 0,-2.76 -2.24,-5 -5,-5 -0.0856,0 -0.1686,-0.004 -0.25388,0 z m -17.89064,1.66014 c -1.80308,0.0405 -2.58954,3.67777 -3.04686,7.10939 -0.48786,3.66039 -2.32656,7.44994 -0.74224,8.18359 2.197,0.9756 3.3189,-5.04131 5.80078,-7.28514 2.48188,-2.24776 0.4316,-7.48097 -1.64064,-7.96876 -0.1296,-0.03 -0.25084,-0.0425 -0.37112,-0.0392 z M 51.906248,121.18751 C 49.75216,121.18751 48,122.93966 48,125.09374 48,127.24785 49.75216,129 51.906248,129 c 2.154092,0 3.906252,-1.75215 3.906252,-3.90626 0,-2.15408 -1.75216,-3.90623 -3.906252,-3.90623 z m 151.992192,7.85155 c -2.06094,0.10456 -3.71094,1.81946 -3.71094,3.90625 0,2.1541 1.75216,3.88672 3.90624,3.88672 2.1541,0 3.90626,-1.73262 3.90626,-3.88672 0,-2.15409 -1.75216,-3.90625 -3.90626,-3.90625 -0.0674,0 -0.1288,-0.003 -0.1952,0 z"
     style="opacity:0.2;fill:#000000;fill-opacity:1;stroke-width:20;stroke-linecap:round;stroke-linejoin:round"
     id="path3386" />
  <rect
     style="fill:#ffffff;fill-opacity:1;stroke-width:19.9998;stroke-linecap:round;stroke-linejoin:round"
     id="rect919"
     width="59.999294"
     height="99.998825"
     x="97.999405"
     y="48" />
  <path
     d="m 133,89.00192 c -2.64064,0.13404 -4.7461,2.326248 -4.7461,5 0,2.759988 2.24,5 5,5 2.76,0 5,-2.240012 5,-5 0,-2.76 -2.24,-5 -5,-5 -0.0856,0 -0.16864,-0.0044 -0.25392,0 z m -22.24609,19.90235 c -0.26156,0.0308 -0.51593,0.10556 -0.76166,0.21484 -1.97459,0.86631 -2.63412,3.68952 -0.0392,9.60937 2.59897,5.91985 6.30667,10.02646 8.28125,9.16016 1.97463,-0.86632 1.46229,-6.36527 -1.13277,-12.28513 -2.27153,-5.18231 -4.50611,-6.90602 -6.34802,-6.67968 z m -8.59375,2.28547 c -2.1541,-2e-5 -3.906256,1.75214 -3.906256,3.90624 0,2.1541 1.752156,3.90626 3.906256,3.90626 2.1541,0 3.90624,-1.75216 3.90624,-3.90626 0,-2.1541 -1.75214,-3.90626 -3.90624,-3.90624 z m 44.23828,1.17188 c -2.53658,0.18724 -5.04812,4.51863 -6.28906,7.51952 -1.42046,3.42627 0.29736,10.11188 -3.04688,12.61718 -3.3443,2.5092 -5.79073,2.5654 -7.46093,1.5625 -1.67021,-1.00287 1.4161,-0.86712 -0.4492,-4.6875 -1.86923,-3.8204 -6.32929,-2.62592 -7.50001,0.3516 -1.1707,2.97748 1.24918,2.83378 0.41016,4.58984 -0.83512,1.75606 -7.94301,3.6666 -9.53126,-1.60156 -1.58831,-5.26816 -8.77671,-2.9294 -4.17975,1.25 4.59697,4.17942 -1.17978,6.42654 -5.17579,3.28126 -3.995992,-3.14921 53.94,-5.27784 52.51954,-5.78123 -1.42046,-0.50345 -5.04758,2.78763 -9.64844,1.36719 -4.59696,-1.42046 -0.77584,-4.27289 0.64452,-7.61718 1.42046,-3.34432 3.67292,-11.39189 0.80082,-12.65626 -0.35904,-0.16 -0.7347,-0.2226 -1.09376,-0.19532 z"
     style="opacity:0.2;fill:#000000;fill-opacity:1;stroke-width:10"
     id="path3439" />
  <path
     d="m 132.7451,88.001452 c -2.64062,0.134 -4.74604,2.326224 -4.74604,4.999944 0,2.759968 2.23997,4.99994 4.99994,4.99994 2.75997,0 4.99994,-2.239972 4.99994,-4.99994 0,-2.759968 -2.23997,-4.999944 -4.99994,-4.999944 -0.0856,0 -0.16864,-0.0044 -0.25388,0 z m -22.24583,19.902128 c -0.26156,0.0312 -0.51592,0.10556 -0.76165,0.21484 -1.97456,0.8663 -2.6341,3.68948 -0.0392,9.60926 2.59894,5.91978 6.30658,10.02635 8.28115,9.16005 1.97461,-0.86631 1.46226,-6.36519 -1.13276,-12.28498 -2.27126,-5.18225 -4.50582,-6.90594 -6.34769,-6.6796 z m -47.753354,0.0976 c -2.640608,0.13404 -4.746032,2.32622 -4.746032,4.99994 0,2.75997 2.239972,4.99994 4.99994,4.99994 2.759968,0 4.99994,-2.23997 4.99994,-4.99994 0,-2.75997 -2.239972,-4.99994 -4.99994,-4.99994 -0.08604,0 -0.16868,-0.004 -0.25388,10e-6 z m 27.24578,0 c -1.495416,0.0654 -3.245232,1.49681 -1.445292,3.47652 2.556004,2.8181 3.91954,7.8427 1.6406,8.84756 -2.290656,1.00486 -2.140804,-3.74602 -2.343716,-6.26947 -0.19904,-2.52344 -6.525716,-4.04583 -8.867088,-0.91803 -2.341388,3.12788 0.006,6.50745 2.324188,7.18742 2.31796,0.68367 2.68494,3.24712 4.062452,5.9179 1.38142,2.67078 8.087484,2.00214 9.726448,0 1.638964,-2.00214 2.664744,-5.72619 -0.527292,-9.16005 -3.192072,-3.43386 -2.223488,-6.62599 -3.085888,-8.37881 -0.21464,-0.43824 -0.67632,-0.6578 -1.191388,-0.70308 -0.0956,-0.008 -0.19328,-0.004 -0.29304,0 z m 92.752804,0 c -2.6406,0.13404 -4.74604,2.32622 -4.74604,4.99994 0,2.75997 2.23998,4.99994 4.99994,4.99994 2.75998,0 4.99994,-2.23997 4.99994,-4.99994 0,-2.75997 -2.23996,-4.99994 -4.99994,-4.99994 -0.0856,0 -0.1686,-0.004 -0.25392,0 z m -17.89042,1.66014 c -1.80304,0.0405 -2.58952,3.6777 -3.04684,7.10928 -0.48774,3.66036 -2.32654,7.44986 -0.74222,8.18351 2.19698,0.97558 3.31884,-5.04125 5.8007,-7.28508 2.48186,-2.24772 0.4316,-7.48087 -1.64062,-7.96865 -0.1294,-0.03 -0.25084,-0.0425 -0.37108,-0.0392 z m -62.94846,0.5273 c -2.154068,-1e-5 -3.906208,1.75213 -3.906208,3.90619 0,2.15407 1.75214,3.90621 3.906208,3.90621 2.15406,0 3.9062,-1.75214 3.9062,-3.90621 0,-2.15406 -1.75214,-3.9062 -3.9062,-3.90619 z m 44.23776,1.17187 c -2.53654,0.18724 -5.04806,4.51858 -6.289,7.51944 -1.42044,3.42622 0.29736,10.11176 -3.04683,12.61704 -3.34427,2.50917 -5.79067,2.56537 -7.46084,1.56249 -1.67019,-1.00286 1.41608,-0.86712 -0.44919,-4.68745 -1.8692,-3.82036 -6.32923,-2.6259 -7.49991,0.3516 -1.17069,2.97745 1.24914,2.83376 0.41014,4.58978 -0.83511,1.75605 -7.94291,3.66656 -9.53113,-1.60154 -1.58832,-5.2681 -7.22831,-11.01017 -8.98434,-9.58972 -1.75604,1.42043 0.20768,6.66034 4.80463,10.83971 4.59691,4.17936 -1.17977,6.42646 -5.17572,3.28121 -3.995958,-3.14916 -8.687142,2.38649 -12.324082,6.09368 -3.64084,3.70327 -6.881416,3.95866 -9.472544,1.73825 -2.587216,-2.2165 -0.33104,-8.25206 -3.320268,-14.31624 -2.985256,-6.06418 -8.910892,-3.04274 -9.745976,1.05468 -0.835092,4.09741 7.494376,6.86548 5.878832,9.14052 -1.615552,2.27503 -8.076028,1.74958 -9.980356,-2.53904 -1.900416,-4.28863 -6.050788,-2.88317 -6.132736,0.625 -0.082,3.51206 3.213472,1.04553 5.78118,3.61324 L 129.95212,208 196.27946,141.65313 c 7.8046,-7.80459 -1.12684,-4.45131 -2.96872,-2.69528 -1.838,1.75605 -7.53184,3.17383 -8.20302,1.24999 -0.66726,-1.92383 6.373,-5.15055 8.3788,-7.32413 2.00578,-2.17358 3.96548,-8.34201 0.7227,-10.60534 -3.24284,-2.26333 -7.83006,1.81549 -9.82414,4.82415 -2.00578,3.00868 -0.27228,10.68581 -2.94918,13.0272 -2.67698,2.34137 -4.14888,0.91198 -4.64838,-1.09374 -0.50344,-2.00579 5.77854,-4.83306 3.1445,-9.8241 -2.63796,-4.99105 -7.51,-2.7281 -9.76552,-0.39064 -2.25554,2.34137 1.34848,5.94893 2.18748,9.6288 0.8351,3.67986 -7.7103,3.58455 -11.05456,2.24605 -3.34424,-1.33847 -4.43886,-9.73085 -5.8593,-10.23425 -1.42044,-0.50334 -5.04752,2.78761 -9.64834,1.36718 -4.5969,-1.42044 -0.77584,-4.27283 0.64452,-7.6171 1.42044,-3.34427 3.67286,-11.39175 0.8008,-12.6561 -0.35904,-0.16 -0.73468,-0.2226 -1.09374,-0.19528 z m -94.237176,8.82839 C 49.75214,120.18888 48,121.94102 48,124.09509 c 0,2.15408 1.75214,3.90621 3.906204,3.90621 2.154064,0 3.906204,-1.75213 3.906204,-3.90621 0,-2.15407 -1.75214,-3.90621 -3.906204,-3.90621 z m 151.990396,7.85147 c -2.0609,0.10464 -3.71088,1.81945 -3.71088,3.90621 0,2.15407 1.75212,3.88668 3.9062,3.88668 2.15406,0 3.9062,-1.73261 3.9062,-3.88668 0,-2.15407 -1.75214,-3.90621 -3.9062,-3.90621 -0.0674,0 -0.1288,-0.003 -0.1954,0 z"
     style="fill:#a6d7ff;fill-opacity:1;stroke-width:9.99988"
     id="path449"
     sodipodi:nodetypes="sssssssccccccccsssscccccsccsscccssssssscscccccssssscccscsccssccccssccsccccssccccccsscccccssssssssssss" />
  <path
     id="rect899"
     style="fill:#000000;stroke:none;stroke-width:4;opacity:0.5"
     d="M 56,16 C 33.840066,16 16,33.840066 16,56 v 144 c 0,22.15994 17.840066,40 40,40 h 144 c 22.15994,0 40,-17.84006 40,-40 V 56 C 240,33.840066 222.15994,16 200,16 Z m 0,1 h 144 c 21.60598,0 39,17.394022 39,39 v 144 c 0,21.60598 -17.39402,39 -39,39 H 56 C 34.394022,239 17,221.60598 17,200 V 56 C 17,34.394022 34.394022,17 56,17 Z" />
  <path
     id="rect441"
     style="opacity:0.3;fill:#ffffff"
     d="m 17,199 v 1 c 0,21.60598 17.394022,39 39,39 h 144 c 21.60598,0 39,-17.39402 39,-39 v -1 c 0,21.60598 -17.39402,39 -39,39 H 56 C 34.394022,238 17,220.60598 17,199 Z" />
  <path
     id="rect443"
     style="opacity:0.3;fill:#ffffff"
     d="M 56,17 C 34.394022,17 17,34.394022 17,56 v 1 C 17,35.394022 34.394022,18 56,18 h 144 c 21.60598,0 39,17.394022 39,39 V 56 C 239,34.394022 221.60598,17 200,17 Z" />
</svg>
