<?xml version="1.0" encoding="UTF-8" standalone="no"?>
<!-- Created with Inkscape (http://www.inkscape.org/) -->

<svg
   width="256"
   height="256"
   viewBox="0 0 256 256.00001"
   version="1.1"
   id="svg5"
   sodipodi:docname="kvantum.svg"
   inkscape:version="1.2.1 (9c6d41e410, 2022-07-14)"
   xmlns:inkscape="http://www.inkscape.org/namespaces/inkscape"
   xmlns:sodipodi="http://sodipodi.sourceforge.net/DTD/sodipodi-0.dtd"
   xmlns:xlink="http://www.w3.org/1999/xlink"
   xmlns="http://www.w3.org/2000/svg"
   xmlns:svg="http://www.w3.org/2000/svg">
  <sodipodi:namedview
     id="namedview7"
     pagecolor="#ffffff"
     bordercolor="#666666"
     borderopacity="1.0"
     inkscape:showpageshadow="2"
     inkscape:pageopacity="0.0"
     inkscape:pagecheckerboard="0"
     inkscape:deskcolor="#d1d1d1"
     inkscape:document-units="px"
     showgrid="false"
     inkscape:zoom="2"
     inkscape:cx="19.75"
     inkscape:cy="178"
     inkscape:window-width="1920"
     inkscape:window-height="1007"
     inkscape:window-x="0"
     inkscape:window-y="0"
     inkscape:window-maximized="1"
     inkscape:current-layer="svg5" />
  <defs
     id="defs2">
    <radialGradient
       inkscape:collect="always"
       xlink:href="#linearGradient1603"
       id="radialGradient11414"
       cx="-1.675118"
       cy="11.872787"
       fx="-1.675118"
       fy="11.872787"
       r="27.5"
       gradientUnits="userSpaceOnUse"
       gradientTransform="matrix(-3.3402662,3.3793192,-4.0699009,-4.022869,67.741974,81.113838)" />
    <linearGradient
       inkscape:collect="always"
       id="linearGradient1603">
      <stop
         style="stop-color:#ff910c;stop-opacity:1;"
         offset="0"
         id="stop1599" />
      <stop
         style="stop-color:#ff910c;stop-opacity:0;"
         offset="1"
         id="stop1601" />
    </linearGradient>
    <radialGradient
       inkscape:collect="always"
       xlink:href="#linearGradient3954"
       id="radialGradient11404"
       cx="57.208611"
       cy="56.943909"
       fx="57.208611"
       fy="56.943909"
       r="27.5"
       gradientUnits="userSpaceOnUse"
       gradientTransform="matrix(3.9395054,-4.1337612,3.7495911,3.5733882,-208.68051,262.14024)" />
    <linearGradient
       inkscape:collect="always"
       id="linearGradient3954">
      <stop
         style="stop-color:#24c2f5;stop-opacity:1;"
         offset="0"
         id="stop3950" />
      <stop
         style="stop-color:#24c2f5;stop-opacity:0;"
         offset="1"
         id="stop3952" />
    </linearGradient>
    <radialGradient
       inkscape:collect="always"
       xlink:href="#linearGradient5569"
       id="radialGradient11396"
       cx="8.0326223"
       cy="59.247375"
       fx="8.0326223"
       fy="59.247375"
       r="27.5"
       gradientUnits="userSpaceOnUse"
       gradientTransform="matrix(3.727429,-3.7756113,4.4145178,4.3581819,-264.2185,2.7136178)" />
    <linearGradient
       inkscape:collect="always"
       id="linearGradient5569">
      <stop
         style="stop-color:#f5cc24;stop-opacity:1;"
         offset="0"
         id="stop5565" />
      <stop
         style="stop-color:#f5cc24;stop-opacity:0.00045133"
         offset="1"
         id="stop5567" />
    </linearGradient>
    <radialGradient
       inkscape:collect="always"
       xlink:href="#linearGradient7221"
       id="radialGradient11388"
       cx="32"
       cy="60"
       fx="32"
       fy="60"
       r="27.5"
       gradientUnits="userSpaceOnUse"
       gradientTransform="matrix(-4.1282644,0,0,-4.0545455,260.10445,257.74546)" />
    <linearGradient
       inkscape:collect="always"
       id="linearGradient7221">
      <stop
         style="stop-color:#ff2a2a;stop-opacity:1"
         offset="0"
         id="stop7217" />
      <stop
         style="stop-color:#ff2929;stop-opacity:0.00392157"
         offset="1"
         id="stop7219" />
    </linearGradient>
    <radialGradient
       inkscape:collect="always"
       xlink:href="#linearGradient10051"
       id="radialGradient11378"
       cx="6.5505433"
       cy="56.244072"
       fx="6.5505433"
       fy="56.244072"
       r="27.5"
       gradientUnits="userSpaceOnUse"
       gradientTransform="matrix(-2.9167186,-2.8126947,3.6705008,-3.8062503,43.848193,260.4177)" />
    <linearGradient
       inkscape:collect="always"
       id="linearGradient10051">
      <stop
         style="stop-color:#aa3ad4;stop-opacity:1"
         offset="0"
         id="stop10047" />
      <stop
         style="stop-color:#aa3ad4;stop-opacity:0"
         offset="1"
         id="stop10049" />
    </linearGradient>
    <radialGradient
       inkscape:collect="always"
       xlink:href="#linearGradient15132"
       id="radialGradient11244"
       cx="45.75"
       cy="51.798988"
       fx="45.75"
       fy="51.798988"
       r="27.5"
       gradientUnits="userSpaceOnUse"
       gradientTransform="matrix(-2.5066452e-7,4.1282644,-4.128264,-7.2122872e-7,228.31264,-60.868053)" />
    <linearGradient
       inkscape:collect="always"
       id="linearGradient15132">
      <stop
         style="stop-color:#f5e224;stop-opacity:1;"
         offset="0"
         id="stop15128" />
      <stop
         style="stop-color:#f5e224;stop-opacity:0;"
         offset="1"
         id="stop15130" />
    </linearGradient>
    <radialGradient
       inkscape:collect="always"
       xlink:href="#linearGradient12059"
       id="radialGradient11234"
       cx="32"
       cy="60"
       fx="32"
       fy="60"
       r="27.5"
       gradientUnits="userSpaceOnUse"
       gradientTransform="matrix(4.1282644,0,0,4.0545455,-4.1044552,-1.7454452)" />
    <linearGradient
       inkscape:collect="always"
       id="linearGradient12059">
      <stop
         style="stop-color:#47c12a;stop-opacity:1;"
         offset="0"
         id="stop12055" />
      <stop
         style="stop-color:#47c12a;stop-opacity:0;"
         offset="1"
         id="stop12057" />
    </linearGradient>
  </defs>
  <rect
     style="fill:#ffffff;fill-opacity:1;stroke:none;stroke-width:4.05454"
     id="rect184"
     width="223"
     height="223"
     x="16.5"
     y="16.5"
     ry="39.5" />
  <rect
     style="fill:url(#radialGradient11414);fill-opacity:1;stroke-width:4.05455;stroke-linejoin:round"
     id="rect10562"
     width="223"
     height="223"
     x="16.5"
     y="16.500006"
     ry="39.5" />
  <rect
     style="fill:url(#radialGradient11404);fill-opacity:1;stroke-width:4.05455;stroke-linejoin:round"
     id="rect10564"
     width="223"
     height="223"
     x="16.5"
     y="16.500006"
     ry="39.5" />
  <rect
     style="fill:url(#radialGradient11396);fill-opacity:1;stroke-width:4.05455;stroke-linejoin:round"
     id="rect10566"
     width="223"
     height="223"
     x="16.5"
     y="16.500006"
     ry="39.5" />
  <rect
     style="fill:url(#radialGradient11388);fill-opacity:1;stroke-width:4.05455;stroke-linejoin:round"
     id="rect10568"
     width="223"
     height="223"
     x="16.5"
     y="16.500006"
     ry="39.5" />
  <rect
     style="fill:url(#radialGradient11378);fill-opacity:1;stroke-width:4.05455;stroke-linejoin:round"
     id="rect10570"
     width="223"
     height="223"
     x="16.5"
     y="16.500006"
     ry="39.5" />
  <rect
     style="fill:url(#radialGradient11244);fill-opacity:1;stroke-width:4.05455;stroke-linejoin:round"
     id="rect10572"
     width="223"
     height="223"
     x="16.5"
     y="16.500006"
     ry="39.5"
     inkscape:label="rect10572" />
  <rect
     style="fill:url(#radialGradient11234);fill-opacity:1;stroke-width:4.05455;stroke-linejoin:round"
     id="rect10574"
     width="223"
     height="223"
     x="16.5"
     y="16.500006"
     ry="39.5" />
  <path
     d="M 69.51724,77.02208 V 88.7076 h 11.7076 L 63.68552,170.52828 H 52 v 11.7076 h 40.93244 v -11.7076 H 82.992 l 6.42816,-35.05652 h 9.36608 l 17.53932,35.05652 c 2.96004,5.94216 8.1732,11.7076 17.5172,11.7076 h 17.53932 L 192.2924,141.30344 204,123.76412 v -5.83172 l -5.8538,-5.8538 h -5.8538 l -5.83172,5.8538 v 17.53936 l -26.35312,29.20272 8.76964,-46.74208 -5.8538,-5.8538 -23.371,5.8538 v 5.83172 h 11.68548 l -5.83168,46.76416 h -5.83172 L 116.30344,123.76412 151.35996,88.7076 H 163.0676 V 77 h -40.95452 v 11.7076 h 13.45268 L 96.42264,129.61792 H 90.5688 L 98.74204,88.7076 h 11.7076 V 77 Z"
     style="opacity:0.2;fill:#000000;stroke-width:22.0898"
     id="path13420" />
  <path
     d="M 69.51724,76.02208 V 87.7076 h 11.7076 L 63.68552,169.52828 H 52 v 11.7076 h 40.93244 v -11.7076 H 82.992 l 6.42816,-35.05652 h 9.36608 l 17.53932,35.05652 c 2.96004,5.94216 8.1732,11.7076 17.5172,11.7076 h 17.53932 L 192.2924,140.30344 204,122.76412 v -5.83168 l -5.8538,-5.8538 h -5.8538 l -5.83172,5.8538 v 17.53932 l -26.35312,29.20272 8.76964,-46.74204 -5.8538,-5.8538 -23.371,5.8538 v 5.83168 h 11.68548 l -5.83168,46.76416 h -5.83172 L 116.30344,122.76412 151.35996,87.7076 H 163.0676 V 76 h -40.95452 v 11.7076 h 13.45268 L 96.42264,128.61792 H 90.5688 L 98.74204,87.7076 h 11.7076 V 76 Z"
     style="fill:#ffffff;stroke-width:22.0898"
     id="path13203"
     sodipodi:nodetypes="ccccccccccccsccccccccccccccccccccccccccccc" />
  <path
     id="rect899"
     style="fill:#000000;stroke:none;stroke-width:4;opacity:0.5"
     d="M 56,16 C 33.840066,16 16,33.840066 16,56 v 144 c 0,22.15994 17.840066,40 40,40 h 144 c 22.15994,0 40,-17.84006 40,-40 V 56 C 240,33.840066 222.15994,16 200,16 Z m 0,1 h 144 c 21.60598,0 39,17.394022 39,39 v 144 c 0,21.60598 -17.39402,39 -39,39 H 56 C 34.394022,239 17,221.60598 17,200 V 56 C 17,34.394022 34.394022,17 56,17 Z" />
  <path
     id="rect441"
     style="opacity:0.3;fill:#ffffff"
     d="m 17,199 v 1 c 0,21.60598 17.394022,39 39,39 h 144 c 21.60598,0 39,-17.39402 39,-39 v -1 c 0,21.60598 -17.39402,39 -39,39 H 56 C 34.394022,238 17,220.60598 17,199 Z" />
  <path
     id="rect443"
     style="opacity:0.3;fill:#ffffff"
     d="M 56,17 C 34.394022,17 17,34.394022 17,56 v 1 C 17,35.394022 34.394022,18 56,18 h 144 c 21.60598,0 39,17.394022 39,39 V 56 C 239,34.394022 221.60598,17 200,17 Z" />
</svg>
