<?xml version="1.0" encoding="UTF-8" standalone="no"?>
<!-- Created with Inkscape (http://www.inkscape.org/) -->

<svg
   width="256"
   height="256"
   viewBox="0 0 256 256.00001"
   version="1.1"
   id="svg5"
   sodipodi:docname="kwalletmanager.svg"
   inkscape:version="1.3.2 (091e20ef0f, 2023-11-25, custom)"
   xmlns:inkscape="http://www.inkscape.org/namespaces/inkscape"
   xmlns:sodipodi="http://sodipodi.sourceforge.net/DTD/sodipodi-0.dtd"
   xmlns:xlink="http://www.w3.org/1999/xlink"
   xmlns="http://www.w3.org/2000/svg"
   xmlns:svg="http://www.w3.org/2000/svg">
  <sodipodi:namedview
     id="namedview7"
     pagecolor="#ffffff"
     bordercolor="#666666"
     borderopacity="1.0"
     inkscape:showpageshadow="2"
     inkscape:pageopacity="0.0"
     inkscape:pagecheckerboard="0"
     inkscape:deskcolor="#d1d1d1"
     inkscape:document-units="px"
     showgrid="false"
     inkscape:zoom="3.2265625"
     inkscape:cx="128"
     inkscape:cy="128"
     inkscape:window-width="1920"
     inkscape:window-height="1011"
     inkscape:window-x="0"
     inkscape:window-y="0"
     inkscape:window-maximized="1"
     inkscape:current-layer="svg5" />
  <defs
     id="defs2">
    <linearGradient
       inkscape:collect="always"
       xlink:href="#4852"
       id="linearGradient3525"
       x1="49.757847"
       y1="59.623318"
       x2="14.242153"
       y2="4.3766818"
       gradientUnits="userSpaceOnUse"
       gradientTransform="matrix(4.0545454,0,0,4.0545454,-1.745455,-1.745455)" />
    <linearGradient
       inkscape:collect="always"
       id="4852">
      <stop
         style="stop-color:#333333;stop-opacity:1"
         offset="0"
         id="stop14555" />
      <stop
         style="stop-color:#666666;stop-opacity:1"
         offset="1"
         id="stop14557" />
    </linearGradient>
    <linearGradient
       inkscape:collect="always"
       xlink:href="#linearGradient5606"
       id="linearGradient5608"
       x1="7.9375"
       y1="4.2333341"
       x2="7.9375"
       y2="12.700001"
       gradientUnits="userSpaceOnUse"
       gradientTransform="matrix(15.11811,0,0,15.11811,4e-6,8e-6)" />
    <linearGradient
       inkscape:collect="always"
       id="linearGradient5606">
      <stop
         style="stop-color:#f4e9d3;stop-opacity:1"
         offset="0"
         id="stop5602" />
      <stop
         style="stop-color:#e3ca8e;stop-opacity:1"
         offset="1"
         id="stop5604" />
    </linearGradient>
    <linearGradient
       inkscape:collect="always"
       xlink:href="#linearGradient6552"
       id="linearGradient6554"
       x1="26"
       y1="17.580078"
       x2="26"
       y2="51.580078"
       gradientUnits="userSpaceOnUse"
       gradientTransform="matrix(4,0,0,4,4e-6,-0.320304)" />
    <linearGradient
       inkscape:collect="always"
       id="linearGradient6552">
      <stop
         style="stop-color:#e4d09b;stop-opacity:1;"
         offset="0"
         id="stop6548" />
      <stop
         style="stop-color:#f1d793;stop-opacity:0.99607843"
         offset="1"
         id="stop6550" />
    </linearGradient>
  </defs>
  <rect
     style="fill:url(#linearGradient3525);fill-opacity:1.0;stroke:none;stroke-width:4.05454"
     id="rect184"
     width="223"
     height="223"
     x="16.5"
     y="16.5"
     ry="39.5" />
  <rect
     style="opacity:0.2;fill:#000000;fill-opacity:1;stroke-width:16;stroke-linecap:round;stroke-linejoin:round"
     id="rect3396"
     width="160"
     height="120.00001"
     x="48"
     y="69"
     ry="12" />
  <rect
     style="fill:url(#linearGradient5608);fill-opacity:1;stroke-width:35.9998;stroke-linecap:round;stroke-linejoin:round"
     id="rect849"
     width="160"
     height="120"
     x="48"
     y="68"
     ry="12" />
  <path
     id="rect5268"
     style="fill:#25b1ef;stroke-width:35.9998;stroke-linecap:round;stroke-linejoin:round"
     d="M 64.000008,76.000016 H 192 c 4.432,0 8,3.567992 8,8 V 131.99999 C 200,136.432 196.432,140 192,140 H 64.000008 c -4.432,0 -8,-3.568 -8,-8.00001 V 84.000016 c 0,-4.432008 3.568,-8 8,-8 z" />
  <path
     id="rect4606"
     style="fill:#efc225;stroke-width:35.9998;stroke-linecap:round;stroke-linejoin:round"
     d="M 64.000008,88.000008 H 192 c 4.432,0 8,3.568 8,8 V 144 c 0,4.432 -3.568,8 -8,8 H 64.000008 c -4.432,0 -8,-3.568 -8,-8 V 96.000008 c 0,-4.432 3.568,-8 8,-8 z" />
  <path
     id="rect3107"
     style="fill:#55bf5d;stroke-width:35.9998;stroke-linecap:round;stroke-linejoin:round"
     d="M 64.000008,100.00001 H 192 c 4.432,0 8,3.568 8,8 V 156 c 0,4.432 -3.568,8 -8,8 H 64.000008 c -4.432,0 -8,-3.568 -8,-8 v -47.99999 c 0,-4.432 3.568,-8 8,-8 z" />
  <path
     id="rect2181"
     style="fill:#f06767;stroke-width:37.0436;stroke-linecap:round;stroke-linejoin:round"
     d="M 64.000008,112.00001 H 192 c 4.432,0 8,3.568 8,8 v 48.00001 C 200,172.432 196.432,176 192,176 H 64.000008 c -4.432,0 -8,-3.568 -8,-7.99998 v -48.00001 c 0,-4.432 3.568,-8 8,-8 z" />
  <path
     d="m 48.000008,131 v 39.99978 c 0,6.648 5.352,12 12,12 H 196 c 6.648,0 12,-5.352 12,-12 V 131 h -64 c -0.17432,8.70514 -7.29311,15.9931 -16,15.99984 -8.70689,-0.006 -15.8257,-7.2947 -16,-15.99984 z"
     style="opacity:0.2;fill:#000000;fill-opacity:1;stroke-width:35.9998;stroke-linecap:round;stroke-linejoin:round"
     id="path3791"
     sodipodi:nodetypes="cssssccccc" />
  <path
     id="rect1745"
     style="fill:url(#linearGradient6554);fill-opacity:1;stroke-width:35.9998;stroke-linecap:round;stroke-linejoin:round"
     d="M 48.000008,132.00016 V 176 c 0,6.648 5.352,12 12,12 H 196 c 6.648,0 12,-5.352 12,-12 v -43.99984 h -64 c -0.17432,8.70514 -7.29311,15.9931 -16,15.99984 -8.70689,-0.006 -15.8257,-7.2947 -16,-15.99984 z"
     sodipodi:nodetypes="cssssccccc" />
  <path
     id="rect899"
     style="fill:#000000;stroke:none;stroke-width:4;opacity:0.5"
     d="M 56,16 C 33.840066,16 16,33.840066 16,56 v 144 c 0,22.15994 17.840066,40 40,40 h 144 c 22.15994,0 40,-17.84006 40,-40 V 56 C 240,33.840066 222.15994,16 200,16 Z m 0,1 h 144 c 21.60598,0 39,17.394022 39,39 v 144 c 0,21.60598 -17.39402,39 -39,39 H 56 C 34.394022,239 17,221.60598 17,200 V 56 C 17,34.394022 34.394022,17 56,17 Z" />
  <path
     id="rect441"
     style="opacity:0.3;fill:#ffffff"
     d="m 17,199 v 1 c 0,21.60598 17.394022,39 39,39 h 144 c 21.60598,0 39,-17.39402 39,-39 v -1 c 0,21.60598 -17.39402,39 -39,39 H 56 C 34.394022,238 17,220.60598 17,199 Z" />
  <path
     id="rect443"
     style="opacity:0.3;fill:#ffffff"
     d="M 56,17 C 34.394022,17 17,34.394022 17,56 v 1 C 17,35.394022 34.394022,18 56,18 h 144 c 21.60598,0 39,17.394022 39,39 V 56 C 239,34.394022 221.60598,17 200,17 Z" />
</svg>
