<?xml version="1.0" encoding="UTF-8" standalone="no"?>
<!-- Created with Inkscape (http://www.inkscape.org/) -->

<svg
   width="256"
   height="256"
   viewBox="0 0 256 256.00001"
   version="1.1"
   id="svg5"
   sodipodi:docname="libreoffice-draw.svg"
   inkscape:version="1.2.1 (9c6d41e410, 2022-07-14)"
   xmlns:inkscape="http://www.inkscape.org/namespaces/inkscape"
   xmlns:sodipodi="http://sodipodi.sourceforge.net/DTD/sodipodi-0.dtd"
   xmlns:xlink="http://www.w3.org/1999/xlink"
   xmlns="http://www.w3.org/2000/svg"
   xmlns:svg="http://www.w3.org/2000/svg">
  <sodipodi:namedview
     id="namedview7"
     pagecolor="#ffffff"
     bordercolor="#666666"
     borderopacity="1.0"
     inkscape:showpageshadow="2"
     inkscape:pageopacity="0.0"
     inkscape:pagecheckerboard="0"
     inkscape:deskcolor="#d1d1d1"
     inkscape:document-units="px"
     showgrid="false"
     inkscape:zoom="3.2070312"
     inkscape:cx="127.84409"
     inkscape:cy="128"
     inkscape:window-width="1920"
     inkscape:window-height="1007"
     inkscape:window-x="0"
     inkscape:window-y="0"
     inkscape:window-maximized="1"
     inkscape:current-layer="svg5" />
  <defs
     id="defs2">
    <linearGradient
       inkscape:collect="always"
       xlink:href="#linearGradient986"
       id="linearGradient3525"
       x1="49.757847"
       y1="59.623318"
       x2="14.242153"
       y2="4.3766818"
       gradientUnits="userSpaceOnUse"
       gradientTransform="matrix(4.0545454,0,0,4.0545454,-1.745455,-1.745455)" />
    <linearGradient
       inkscape:collect="always"
       id="linearGradient986">
      <stop
         style="stop-color:#ffa12a;stop-opacity:1;"
         offset="0"
         id="stop982" />
      <stop
         style="stop-color:#ffdc75;stop-opacity:1;"
         offset="1"
         id="stop984" />
    </linearGradient>
  </defs>
  <rect
     style="fill:url(#linearGradient3525);fill-opacity:1.0;stroke:none;stroke-width:4.05454"
     id="rect184"
     width="223"
     height="223"
     x="16.5"
     y="16.5"
     ry="39.5" />
  <path
     id="path746"
     style="color:#000000;display:inline;overflow:visible;visibility:visible;opacity:0.2;fill:#000000;fill-opacity:1;fill-rule:nonzero;stroke:none;stroke-width:80;marker:none;enable-background:new"
     d="m 72,49.000183 c -4.43198,0 -8,3.568012 -8,8 V 201.00018 c 0,4.43199 3.56802,8 8,8 h 112 c 4.43199,0 8,-3.56801 8,-8 V 87.750182 L 153.25,49.000183 Z m 86.75,0 L 192,82.250182 V 57.000183 c 0,-4.431988 -3.56801,-8 -8,-8 z m -5.13281,69.281247 c 1.14848,0.0136 2.22999,0.27016 3.16406,0.58593 1.86816,0.63158 3.4803,1.59085 4.91406,2.57032 2.86752,1.95892 5.07031,4.14063 5.07031,4.14063 l 2.85938,2.79687 -5.59375,5.71874 -2.85937,-2.79687 c 0,0 -1.8426,-1.78153 -3.99219,-3.25 -1.07481,-0.73424 -2.22177,-1.35169 -2.96094,-1.60157 -0.3254,-0.11 -0.45398,-0.11579 -0.51563,-0.125 -0.57268,0.38573 -0.71769,0.83268 -0.71874,2.61719 -0.001,2.03415 0.64778,5.11977 1.39062,8.36719 0.74284,3.24743 1.58869,6.65805 1.55469,10.125 -0.034,3.46695 -1.54258,7.68844 -5.32813,9.59375 -2.13884,1.07652 -4.55446,1.46359 -6.71875,1.02344 -2.16428,-0.44015 -3.9318,-1.56264 -5.40624,-2.83594 -2.9489,-2.5466 -5.0832,-5.86217 -7.38282,-8.97656 -2.29961,-3.11439 -4.68277,-5.98351 -7.19531,-7.67969 -2.48241,-1.67586 -4.90159,-2.41417 -8.67187,-1.58594 -1.31282,0.36952 -2.7144,1.51154 -4,3.82813 -1.29719,2.33743 -2.31239,5.68243 -2.78907,9.35937 -0.0384,0.29568 0.0468,0.6145 0.0156,0.91406 2.64192,0.44145 5.53723,0.43184 7.92969,1.21876 5.44721,1.79166 10.25439,4.53982 13.13281,9.00782 2.88261,4.47431 3.99549,8.8109 3.10157,12.67187 -0.89394,3.86098 -3.85106,6.67899 -7.16407,7.96875 -6.62602,2.57948 -15.24552,0.48582 -20.32812,-6.51563 l -0.0859,-0.125 -0.0781,-0.125 c -3.04463,-4.92612 -4.09813,-11.06794 -4.38281,-17.28906 -0.873519,-0.0512 -1.536011,-0.348 -2.421879,-0.36721 l -6.156248,-0.13279 -4,-0.0938 0.17968,-8 4,0.0938 6.148436,0.13279 c 0.770676,0.0168 1.421508,0.29796 2.187501,0.33592 0.0272,-0.236 -0.0384,-0.48406 -0.008,-0.71875 0.57708,-4.45139 1.75601,-8.66794 3.72656,-12.21875 1.97056,-3.55078 4.89527,-6.60013 8.9375,-7.6953 l 0.0781,-0.0236 0.0781,-0.0156 c 5.85816,-1.33513 11.11428,0.0926 15.03907,2.74219 3.92478,2.64958 6.73853,6.2776 9.16406,9.5625 2.42552,3.2849 4.54914,6.27051 6.17187,7.67187 0.81136,0.70069 1.39804,0.97053 1.77344,1.04688 0.3754,0.0763 0.68169,0.10728 1.53125,-0.32032 0.83103,-0.41828 0.90267,-0.5738 0.92187,-2.53125 0.0192,-1.95746 -0.60996,-5.02361 -1.35156,-8.26562 -0.7416,-3.24201 -1.59581,-6.66389 -1.59375,-10.14843 0.002,-3.48455 1.35875,-7.70894 5.07031,-9.77345 1.19856,-0.66673 2.41402,-0.89633 3.5625,-0.88281 z m -45.02343,40.81249 c 0.43827,4.52798 1.35773,8.78686 3.10937,11.69532 2.90377,3.88342 8.08876,4.7678 10.84375,3.6953 1.39033,-0.54123 2.01571,-1.20724 2.27343,-2.3203 0.25772,-1.11308 0.0936,-3.24098 -2.03124,-6.53906 -1.41397,-2.19479 -4.49958,-4.28496 -8.90626,-5.73437 -1.48195,-0.48744 -3.58181,-0.45745 -5.28905,-0.79689 z" />
  <path
     id="path528"
     style="color:#000000;display:inline;overflow:visible;visibility:visible;fill:#ffffff;fill-opacity:1;fill-rule:nonzero;stroke:none;stroke-width:80;marker:none;enable-background:new"
     d="m 72,47.999998 c -4.43198,0 -8,3.568012 -8,8 V 200 c 0,4.43198 3.56802,8 8,8 h 112 c 4.43199,0 8,-3.56802 8,-8 V 86.749997 L 153.25,47.999998 Z m 86.75,0 L 192,81.249997 V 55.999998 c 0,-4.431988 -3.56801,-8 -8,-8 z m -5.13281,69.281242 c 1.14848,0.0136 2.22999,0.27016 3.16406,0.58594 1.86816,0.63158 3.4803,1.59085 4.91406,2.57031 2.86752,1.95892 5.07031,4.14063 5.07031,4.14063 l 2.85938,2.79687 -5.59375,5.71875 -2.85937,-2.79687 c 0,0 -1.8426,-1.78153 -3.99219,-3.25 -1.07481,-0.73424 -2.22177,-1.35169 -2.96094,-1.60157 -0.3254,-0.11 -0.45398,-0.1158 -0.51563,-0.125 -0.57268,0.38572 -0.71769,0.83268 -0.71874,2.61719 -0.001,2.03415 0.64778,5.11976 1.39062,8.36719 0.74284,3.24743 1.58869,6.65805 1.55469,10.125 -0.034,3.46695 -1.54258,7.68844 -5.32813,9.59375 -2.13884,1.07652 -4.55446,1.46359 -6.71875,1.02344 -2.16428,-0.44015 -3.9318,-1.56264 -5.40624,-2.83594 -2.9489,-2.5466 -5.0832,-5.86218 -7.38282,-8.97656 -2.29961,-3.11439 -4.68277,-5.98351 -7.19531,-7.67969 -2.48241,-1.67586 -4.90159,-2.41417 -8.67187,-1.58594 -1.31282,0.36952 -2.7144,1.51154 -4,3.82813 -1.29719,2.33743 -2.31239,5.68243 -2.78907,9.35937 -0.0384,0.29568 0.0468,0.6145 0.0156,0.91406 2.64192,0.44145 5.53723,0.43184 7.92969,1.21876 5.44721,1.79166 10.25439,4.53982 13.13281,9.00781 2.88261,4.47431 3.99549,8.81091 3.10157,12.67187 -0.89394,3.86098 -3.85106,6.679 -7.16407,7.96876 -6.62602,2.57948 -15.24552,0.48582 -20.32812,-6.51564 l -0.0859,-0.125 -0.0781,-0.125 c -3.04463,-4.92612 -4.09813,-11.06795 -4.38281,-17.28906 -0.873519,-0.0512 -1.536011,-0.348 -2.421879,-0.3672 l -6.156248,-0.1328 -4,-0.0938 0.17968,-8 4,0.0938 6.148436,0.1328 c 0.770676,0.0168 1.421508,0.29796 2.187501,0.33592 0.0272,-0.236 -0.0384,-0.48407 -0.008,-0.71875 0.57708,-4.45139 1.75601,-8.66795 3.72656,-12.21875 1.97056,-3.55079 4.89527,-6.60014 8.9375,-7.69531 l 0.0781,-0.0236 0.0781,-0.0156 c 5.85816,-1.33513 11.11428,0.0926 15.03907,2.74219 3.92478,2.64958 6.73853,6.2776 9.16406,9.5625 2.42552,3.2849 4.54914,6.27051 6.17187,7.67187 0.81136,0.70068 1.39804,0.97052 1.77344,1.04688 0.3754,0.0763 0.68169,0.10728 1.53125,-0.32032 0.83103,-0.41828 0.90267,-0.5738 0.92187,-2.53125 0.0192,-1.95746 -0.60996,-5.02362 -1.35156,-8.26563 -0.7416,-3.242 -1.59581,-6.66389 -1.59375,-10.14843 0.002,-3.48455 1.35875,-7.70894 5.07031,-9.77344 1.19856,-0.66673 2.41402,-0.89633 3.5625,-0.88282 z m -45.02343,40.8125 c 0.43827,4.52798 1.35773,8.78686 3.10937,11.69532 2.90377,3.88342 8.08876,4.7678 10.84375,3.6953 1.39033,-0.54124 2.01571,-1.20724 2.27343,-2.3203 0.25772,-1.11308 0.0936,-3.24098 -2.03124,-6.53906 -1.41397,-2.19481 -4.49958,-4.28496 -8.90626,-5.73438 -1.48195,-0.48744 -3.58181,-0.45744 -5.28905,-0.79688 z" />
  <path
     id="rect899"
     style="fill:#000000;stroke:none;stroke-width:4;opacity:0.5"
     d="M 56,16 C 33.840066,16 16,33.840066 16,56 v 144 c 0,22.15994 17.840066,40 40,40 h 144 c 22.15994,0 40,-17.84006 40,-40 V 56 C 240,33.840066 222.15994,16 200,16 Z m 0,1 h 144 c 21.60598,0 39,17.394022 39,39 v 144 c 0,21.60598 -17.39402,39 -39,39 H 56 C 34.394022,239 17,221.60598 17,200 V 56 C 17,34.394022 34.394022,17 56,17 Z" />
  <path
     id="rect441"
     style="opacity:0.3;fill:#ffffff"
     d="m 17,199 v 1 c 0,21.60598 17.394022,39 39,39 h 144 c 21.60598,0 39,-17.39402 39,-39 v -1 c 0,21.60598 -17.39402,39 -39,39 H 56 C 34.394022,238 17,220.60598 17,199 Z" />
  <path
     id="rect443"
     style="opacity:0.3;fill:#ffffff"
     d="M 56,17 C 34.394022,17 17,34.394022 17,56 v 1 C 17,35.394022 34.394022,18 56,18 h 144 c 21.60598,0 39,17.394022 39,39 V 56 C 239,34.394022 221.60598,17 200,17 Z" />
</svg>
