<?xml version="1.0" encoding="UTF-8" standalone="no"?>
<!-- Created with Inkscape (http://www.inkscape.org/) -->

<svg
   width="256"
   height="256"
   viewBox="0 0 256 256.00001"
   version="1.1"
   id="svg5"
   sodipodi:docname="mate.svg"
   inkscape:version="1.2.1 (9c6d41e410, 2022-07-14)"
   xmlns:inkscape="http://www.inkscape.org/namespaces/inkscape"
   xmlns:sodipodi="http://sodipodi.sourceforge.net/DTD/sodipodi-0.dtd"
   xmlns:xlink="http://www.w3.org/1999/xlink"
   xmlns="http://www.w3.org/2000/svg"
   xmlns:svg="http://www.w3.org/2000/svg">
  <sodipodi:namedview
     id="namedview7"
     pagecolor="#ffffff"
     bordercolor="#666666"
     borderopacity="1.0"
     inkscape:showpageshadow="2"
     inkscape:pageopacity="0.0"
     inkscape:pagecheckerboard="0"
     inkscape:deskcolor="#d1d1d1"
     inkscape:document-units="px"
     showgrid="false"
     inkscape:zoom="2.298097"
     inkscape:cx="119.66423"
     inkscape:cy="124.23322"
     inkscape:window-width="1920"
     inkscape:window-height="1009"
     inkscape:window-x="0"
     inkscape:window-y="0"
     inkscape:window-maximized="1"
     inkscape:current-layer="svg5" />
  <defs
     id="defs2">
    <linearGradient
       inkscape:collect="always"
       xlink:href="#linearGradient5536"
       id="linearGradient3525"
       x1="49.757851"
       y1="59.623322"
       x2="14.242154"
       y2="4.3766828"
       gradientUnits="userSpaceOnUse"
       gradientTransform="matrix(4.0545454,0,0,4.0545454,-1.7454618,-1.7454586)" />
    <linearGradient
       inkscape:collect="always"
       id="linearGradient5536">
      <stop
         style="stop-color:#87a556;stop-opacity:1;"
         offset="0"
         id="stop5532" />
      <stop
         style="stop-color:#b2c592;stop-opacity:1;"
         offset="1"
         id="stop5534" />
    </linearGradient>
  </defs>
  <rect
     style="fill:url(#linearGradient3525);fill-opacity:1.0;stroke:none;stroke-width:4.05454"
     id="rect184"
     width="223"
     height="223"
     x="16.5"
     y="16.5"
     ry="39.5" />
  <path
     d="m 130.05628,47 c -26.09684,0 -49.25388,12.30856 -64.25,31.375 l 10.25,6.5 c 12.794,-15.65904 32.342,-25.625 54.125,-25.625 38.502,0 69.75,31.247998 69.75,69.75 0,38.502 -31.248,69.75 -69.75,69.75 -21.7202,0 -41.20456,-9.91868 -54,-25.5 l -10.25,6.5 c 14.99968,18.98748 38.0912,31.25 64.125,31.25 45.195,0 81.875,-36.736 81.875,-82 0,-45.264 -36.68,-82 -81.875,-82 z M 44.1344,77.41408 44.072,179.6172 130.68916,128.4922 44.13448,77.41408 Z M 130.05628,79 c -14.731,0 -27.9514,6.3718 -37.125,16.499998 l 10.625,6.625002 c 6.834,-6.749562 16.17684,-10.875002 26.5,-10.875002 20.907,0 37.875,17.080002 37.875,38.125002 0,21.045 -16.968,38.125 -37.875,38.125 -10.51556,0 -20.0102,-4.277 -26.875,-11.25 l -10.25,6.5 c 9.1736,10.1282 22.394,16.5 37.125,16.5 27.669,0 50.125,-22.456 50.125,-50.125 0,-27.669 -22.456,-50.125 -50.125,-50.125 z"
     style="display:inline;opacity:0.2;fill:#000000;fill-opacity:1;fill-rule:evenodd;stroke:none;stroke-width:4;enable-background:new"
     id="path13776" />
  <path
     inkscape:connector-curvature="0"
     style="display:inline;fill:#ffffff;fill-opacity:1;fill-rule:evenodd;stroke:none;stroke-width:4;enable-background:new"
     d="m 130.05628,46 c -26.09684,0 -49.25388,12.30856 -64.25,31.375 l 10.25,6.5 c 12.794,-15.65904 32.342,-25.625 54.125,-25.625 38.502,0 69.75,31.248 69.75,69.75 0,38.502 -31.248,69.75 -69.75,69.75 -21.7202,0 -41.20456,-9.91868 -54,-25.5 l -10.25,6.5 c 14.99968,18.98748 38.0912,31.25 64.125,31.25 45.195,0 81.875,-36.736 81.875,-82 0,-45.264 -36.68,-82 -81.875,-82 z M 44.1344,76.41408 44.072,178.6172 130.68916,127.4922 44.13448,76.41408 Z M 130.05628,78 c -14.731,0 -27.9514,6.3718 -37.125,16.5 l 10.625,6.625 c 6.834,-6.74956 16.17684,-10.875 26.5,-10.875 20.907,0 37.875,17.08 37.875,38.125 0,21.045 -16.968,38.125 -37.875,38.125 -10.51556,0 -20.0102,-4.277 -26.875,-11.25 l -10.25,6.5 c 9.1736,10.1282 22.394,16.5 37.125,16.5 27.669,0 50.125,-22.456 50.125,-50.125 0,-27.669 -22.456,-50.125 -50.125,-50.125 z"
     id="path5070"
     sodipodi:nodetypes="sccsssccssscccccsccsssccsss" />
  <path
     id="rect899"
     style="fill:#000000;stroke:none;stroke-width:4;opacity:0.5"
     d="M 56,16 C 33.840066,16 16,33.840066 16,56 v 144 c 0,22.15994 17.840066,40 40,40 h 144 c 22.15994,0 40,-17.84006 40,-40 V 56 C 240,33.840066 222.15994,16 200,16 Z m 0,1 h 144 c 21.60598,0 39,17.394022 39,39 v 144 c 0,21.60598 -17.39402,39 -39,39 H 56 C 34.394022,239 17,221.60598 17,200 V 56 C 17,34.394022 34.394022,17 56,17 Z" />
  <path
     id="rect441"
     style="opacity:0.3;fill:#ffffff"
     d="m 17,199 v 1 c 0,21.60598 17.394022,39 39,39 h 144 c 21.60598,0 39,-17.39402 39,-39 v -1 c 0,21.60598 -17.39402,39 -39,39 H 56 C 34.394022,238 17,220.60598 17,199 Z" />
  <path
     id="rect443"
     style="opacity:0.3;fill:#ffffff"
     d="M 56,17 C 34.394022,17 17,34.394022 17,56 v 1 C 17,35.394022 34.394022,18 56,18 h 144 c 21.60598,0 39,17.394022 39,39 V 56 C 239,34.394022 221.60598,17 200,17 Z" />
</svg>
