<?xml version="1.0" encoding="UTF-8" standalone="no"?>
<!-- Created with Inkscape (http://www.inkscape.org/) -->

<svg
   width="256"
   height="256"
   viewBox="0 0 256 256.00001"
   version="1.1"
   id="svg5"
   sodipodi:docname="microsoft-edge.svg"
   inkscape:version="1.2.1 (9c6d41e410, 2022-07-14)"
   xmlns:inkscape="http://www.inkscape.org/namespaces/inkscape"
   xmlns:sodipodi="http://sodipodi.sourceforge.net/DTD/sodipodi-0.dtd"
   xmlns:xlink="http://www.w3.org/1999/xlink"
   xmlns="http://www.w3.org/2000/svg"
   xmlns:svg="http://www.w3.org/2000/svg">
  <sodipodi:namedview
     id="namedview7"
     pagecolor="#ffffff"
     bordercolor="#666666"
     borderopacity="1.0"
     inkscape:showpageshadow="2"
     inkscape:pageopacity="0.0"
     inkscape:pagecheckerboard="0"
     inkscape:deskcolor="#d1d1d1"
     inkscape:document-units="px"
     showgrid="false"
     inkscape:zoom="2"
     inkscape:cx="74.75"
     inkscape:cy="145"
     inkscape:window-width="1920"
     inkscape:window-height="1002"
     inkscape:window-x="0"
     inkscape:window-y="0"
     inkscape:window-maximized="1"
     inkscape:current-layer="svg5" />
  <defs
     id="defs2">
    <linearGradient
       inkscape:collect="always"
       id="linearGradient1140">
      <stop
         style="stop-color:#2a9cf8;stop-opacity:1;"
         offset="0"
         id="stop1136" />
      <stop
         style="stop-color:#39e98b;stop-opacity:1;"
         offset="1"
         id="stop1138" />
    </linearGradient>
    <linearGradient
       inkscape:collect="always"
       xlink:href="#linearGradient1140"
       id="linearGradient1096"
       x1="200"
       y1="240"
       x2="56"
       y2="16"
       gradientUnits="userSpaceOnUse" />
  </defs>
  <rect
     style="fill:url(#linearGradient1096);fill-opacity:1;stroke:none;stroke-width:4"
     id="rect184"
     width="223"
     height="223"
     x="16.5"
     y="16.5"
     ry="39.5" />
  <path
     d="m 119.02925,156.36532 c -5.5199,-6.15989 -9.27984,-13.51977 -10.47982,-21.75963 -2.39996,3.67994 -4.39992,7.67987 -5.8399,11.9998 -7.359875,21.99962 5.43991,49.43914 27.19953,57.43901 18.71968,6.23988 39.75933,-4.87992 53.59909,-17.03971 2.07996,-2.79993 18.47968,-17.27969 10.31982,-18.87967 -24.15958,12.39979 -56.15904,8.87985 -74.79872,-11.7598 m 4.79992,-46.4792 c 8.31986,-0.08 0.32,-3.43995 -3.11995,-5.9999 -8.31986,-4.559918 -18.07969,-6.799878 -27.519525,-6.799878 -30.799463,0.32 -53.079085,19.599658 -42.639265,51.519108 7.519874,31.03948 34.479405,55.99903 66.31886,59.99897 C 100.46957,198.2846 90.549739,178.92494 90.549739,159.64526 91.189727,139.40562 103.66951,115.64602 123.82917,109.88612 M 54.390368,99.326302 c 24.319575,-17.919699 63.038912,-16.479723 83.998552,6.079888 8.15986,8.87985 13.75976,23.9996 6.31989,34.9594 -13.91976,15.03976 24.63958,17.03971 32.87944,14.79975 29.91948,-5.7599 37.83934,-40.5593 23.5996,-64.558898 C 187.58807,63.406923 157.42859,49.167168 127.8291,49.407164 95.349655,48.847176 66.150168,69.406819 54.390368,99.326302 Z"
     id="path534"
     style="opacity:0.2;fill:#000000;stroke-width:7.99988" />
  <path
     d="m 119.02925,155.36511 c -5.5199,-6.15989 -9.27984,-13.51976 -10.47982,-21.75962 -2.39996,3.67994 -4.39992,7.67986 -5.8399,11.99979 -7.359874,21.99962 5.43991,49.43915 27.19953,57.439 18.71968,6.2399 39.75933,-4.87991 53.59909,-17.03969 2.07996,-2.79996 18.47968,-17.2797 10.31982,-18.87968 -24.15958,12.3998 -56.15904,8.87985 -74.79872,-11.7598 m 4.79992,-46.47919 c 8.31986,-0.08 0.32,-3.43994 -3.11995,-5.9999 -8.31986,-4.559917 -18.07969,-6.799881 -27.519524,-6.799881 -30.799467,0.32 -53.079085,19.599661 -42.639265,51.519111 7.519874,31.03946 34.479405,55.99903 66.318859,59.99895 -16.39972,-10.31981 -26.31955,-29.67948 -26.31955,-48.95914 0.639992,-20.23964 13.11977,-43.99924 33.27943,-49.75914 M 54.390365,98.326103 C 78.709944,80.406404 117.42928,81.84638 138.38892,104.406 c 8.15986,8.87984 13.75976,23.99958 6.31989,34.95939 -13.91976,15.03974 24.63958,17.03971 32.87944,14.79974 29.91948,-5.7599 37.83934,-40.55929 23.5996,-64.558887 C 187.58807,62.406716 157.42859,48.166965 127.8291,48.406961 95.349656,47.846969 66.150165,68.406612 54.390365,98.326103 Z"
     id="path345"
     sodipodi:nodetypes="ccccccccccccccccccccc"
     style="fill:#ffffff;stroke-width:7.99988" />
  <path
     id="rect899"
     style="fill:#000000;stroke:none;stroke-width:4;opacity:0.5"
     d="M 56,16 C 33.840066,16 16,33.840066 16,56 v 144 c 0,22.15994 17.840066,40 40,40 h 144 c 22.15994,0 40,-17.84006 40,-40 V 56 C 240,33.840066 222.15994,16 200,16 Z m 0,1 h 144 c 21.60598,0 39,17.394022 39,39 v 144 c 0,21.60598 -17.39402,39 -39,39 H 56 C 34.394022,239 17,221.60598 17,200 V 56 C 17,34.394022 34.394022,17 56,17 Z" />
  <path
     id="rect441"
     style="opacity:0.3;fill:#ffffff"
     d="m 17,199 v 1 c 0,21.60598 17.394022,39 39,39 h 144 c 21.60598,0 39,-17.39402 39,-39 v -1 c 0,21.60598 -17.39402,39 -39,39 H 56 C 34.394022,238 17,220.60598 17,199 Z" />
  <path
     id="rect443"
     style="opacity:0.3;fill:#ffffff"
     d="M 56,17 C 34.394022,17 17,34.394022 17,56 v 1 C 17,35.394022 34.394022,18 56,18 h 144 c 21.60598,0 39,17.394022 39,39 V 56 C 239,34.394022 221.60598,17 200,17 Z" />
</svg>
