<?xml version="1.0" encoding="UTF-8" standalone="no"?>
<!-- Created with Inkscape (http://www.inkscape.org/) -->

<svg
   width="256"
   height="256"
   viewBox="0 0 256 256.00001"
   version="1.1"
   id="svg5"
   sodipodi:docname="mintinstall.svg"
   inkscape:version="1.2.1 (9c6d41e410, 2022-07-14)"
   xmlns:inkscape="http://www.inkscape.org/namespaces/inkscape"
   xmlns:sodipodi="http://sodipodi.sourceforge.net/DTD/sodipodi-0.dtd"
   xmlns:xlink="http://www.w3.org/1999/xlink"
   xmlns="http://www.w3.org/2000/svg"
   xmlns:svg="http://www.w3.org/2000/svg">
  <sodipodi:namedview
     id="namedview7"
     pagecolor="#ffffff"
     bordercolor="#666666"
     borderopacity="1.0"
     inkscape:showpageshadow="2"
     inkscape:pageopacity="0.0"
     inkscape:pagecheckerboard="0"
     inkscape:deskcolor="#d1d1d1"
     inkscape:document-units="px"
     showgrid="false"
     inkscape:zoom="3.0859375"
     inkscape:cx="127.83797"
     inkscape:cy="128"
     inkscape:window-width="1920"
     inkscape:window-height="1002"
     inkscape:window-x="0"
     inkscape:window-y="0"
     inkscape:window-maximized="1"
     inkscape:current-layer="svg5" />
  <defs
     id="defs2">
    <linearGradient
       inkscape:collect="always"
       xlink:href="#linearGradient22024"
       id="linearGradient3525"
       x1="32"
       y1="59.623318"
       x2="32"
       y2="4.3766818"
       gradientUnits="userSpaceOnUse"
       gradientTransform="matrix(4.0545454,0,0,4.0545454,-1.745455,-1.745455)" />
    <linearGradient
       inkscape:collect="always"
       xlink:href="#linearGradient7533"
       id="linearGradient7535"
       x1="3"
       y1="3"
       x2="3"
       y2="45"
       gradientUnits="userSpaceOnUse"
       gradientTransform="matrix(5.5172412,0,0,5.5172412,-1.6551531,-7.1724093)" />
    <linearGradient
       inkscape:collect="always"
       id="linearGradient7533">
      <stop
         style="stop-color:#89c64b;stop-opacity:1;"
         offset="0"
         id="stop7529" />
      <stop
         style="stop-color:#6bae25;stop-opacity:1;"
         offset="1"
         id="stop7531" />
    </linearGradient>
    <linearGradient
       inkscape:collect="always"
       id="linearGradient22024">
      <stop
         style="stop-color:#dfdfdf;stop-opacity:1;"
         offset="0"
         id="stop22020" />
      <stop
         style="stop-color:#f2f2f2;stop-opacity:1;"
         offset="1"
         id="stop22022" />
    </linearGradient>
  </defs>
  <rect
     style="fill:url(#linearGradient3525);fill-opacity:1.0;stroke:none;stroke-width:4.05454"
     id="rect184"
     width="223"
     height="223"
     x="16.5"
     y="16.5"
     ry="39.5" />
  <circle
     style="fill:url(#linearGradient7535);fill-opacity:1;stroke-width:5;stroke-linecap:round;stroke-linejoin:round"
     id="path943"
     cx="128"
     cy="128"
     r="80" />
  <path
     d="m 92.000007,89.000003 c -2.216,0 -4,1.784 -4,3.999999 V 101 c 0,2.216 1.784,4 4,4 h 8.000003 c 2.216,0 4,-1.784 4,-4 v -7.999998 c 0,-2.215999 -1.784,-3.999999 -4,-3.999999 z m 32.000003,0 c -2.216,0 -4,1.784 -4,3.999999 V 101 c 0,2.216 1.784,4 4,4 h 8 c 2.216,0 4,-1.784 4,-4 v -7.999998 c 0,-2.215999 -1.784,-3.999999 -4,-3.999999 z m 32,0 c -2.216,0 -4,1.784 -4,3.999999 V 101 c 0,2.216 1.784,4 4,4 h 8 c 2.216,0 4,-1.784 4,-4 v -7.999998 c 0,-2.215999 -1.784,-3.999999 -4,-3.999999 z M 92.000007,121 c -2.216,0 -4,1.784 -4,4 v 8 c 0,2.216 1.784,4 4,4 h 8.000003 c 2.216,0 4,-1.784 4,-4 v -8 c 0,-2.216 -1.784,-4 -4,-4 z m 32.000003,0 c -2.216,0 -4,1.784 -4,4 v 8 c 0,2.216 1.784,4 4,4 h 8 c 2.216,0 4,-1.784 4,-4 v -8 c 0,-2.216 -1.784,-4 -4,-4 z m 32,0 c -2.216,0 -4,1.784 -4,4 v 8 c 0,2.216 1.784,4 4,4 h 8 c 2.216,0 4,-1.784 4,-4 v -8 c 0,-2.216 -1.784,-4 -4,-4 z m -64.000003,32 c -2.216,0 -4,1.784 -4,4 v 8 c 0,2.216 1.784,4 4,4 h 8.000003 c 2.216,0 4,-1.784 4,-4 v -8 c 0,-2.216 -1.784,-4 -4,-4 z m 32.000003,0 c -2.216,0 -4,1.784 -4,4 v 8 c 0,2.216 1.784,4 4,4 h 8 c 2.216,0 4,-1.784 4,-4 v -8 c 0,-2.216 -1.784,-4 -4,-4 z m 32,0 c -2.216,0 -4,1.784 -4,4 v 8 c 0,2.216 1.784,4 4,4 h 8 c 2.216,0 4,-1.784 4,-4 v -8 c 0,-2.216 -1.784,-4 -4,-4 z"
     style="opacity:0.2;fill:#000000;stroke-width:4;stroke-linejoin:round"
     id="path6678"
     sodipodi:nodetypes="sssssssssssssssssssssssssssssssssssssssssssssssssssssssssssssssssssssssssssssssss" />
  <path
     id="rect3628"
     style="fill:#f2f2f2;stroke-width:4;stroke-linejoin:round"
     d="m 92.000007,88.000003 c -2.216,0 -4,1.784 -4,4 V 100 c 0,2.216 1.784,4 4,4 h 8.000003 c 2.216,0 4,-1.784 4,-4 v -7.999997 c 0,-2.216 -1.784,-4 -4,-4 z m 32.000003,0 c -2.216,0 -4,1.784 -4,4 V 100 c 0,2.216 1.784,4 4,4 h 8 c 2.216,0 4,-1.784 4,-4 v -7.999997 c 0,-2.216 -1.784,-4 -4,-4 z m 32,0 c -2.216,0 -4,1.784 -4,4 V 100 c 0,2.216 1.784,4 4,4 h 8 c 2.216,0 4,-1.784 4,-4 v -7.999997 c 0,-2.216 -1.784,-4 -4,-4 z M 92.000007,120 c -2.216,0 -4,1.784 -4,4 v 8 c 0,2.216 1.784,4 4,4 h 8.000003 c 2.216,0 4,-1.784 4,-4 v -8 c 0,-2.216 -1.784,-4 -4,-4 z m 32.000003,0 c -2.216,0 -4,1.784 -4,4 v 8 c 0,2.216 1.784,4 4,4 h 8 c 2.216,0 4,-1.784 4,-4 v -8 c 0,-2.216 -1.784,-4 -4,-4 z m 32,0 c -2.216,0 -4,1.784 -4,4 v 8 c 0,2.216 1.784,4 4,4 h 8 c 2.216,0 4,-1.784 4,-4 v -8 c 0,-2.216 -1.784,-4 -4,-4 z m -64.000003,32 c -2.216,0 -4,1.784 -4,4 v 8 c 0,2.216 1.784,4 4,4 h 8.000003 c 2.216,0 4,-1.784 4,-4 v -8 c 0,-2.216 -1.784,-4 -4,-4 z m 32.000003,0 c -2.216,0 -4,1.784 -4,4 v 8 c 0,2.216 1.784,4 4,4 h 8 c 2.216,0 4,-1.784 4,-4 v -8 c 0,-2.216 -1.784,-4 -4,-4 z m 32,0 c -2.216,0 -4,1.784 -4,4 v 8 c 0,2.216 1.784,4 4,4 h 8 c 2.216,0 4,-1.784 4,-4 v -8 c 0,-2.216 -1.784,-4 -4,-4 z"
     sodipodi:nodetypes="sssssssssssssssssssssssssssssssssssssssssssssssssssssssssssssssssssssssssssssssss" />
  <path
     id="path10073"
     style="opacity:0.2;fill:#000000;stroke-width:4;stroke-linejoin:round"
     d="M 128.00001,48.000003 A 79.99994,79.99994 0 0 0 48.000007,128 a 79.99994,79.99994 0 0 0 0.03516,0.50391 80,80 0 0 1 79.964843,-79.503907 80,80 0 0 1 79.98242,79.257807 79.99994,79.99994 0 0 0 0.0176,-0.25781 79.99994,79.99994 0 0 0 -80,-79.999997 z" />
  <path
     id="rect899"
     style="fill:#000000;stroke:none;stroke-width:4;opacity:0.5"
     d="M 56,16 C 33.840066,16 16,33.840066 16,56 v 144 c 0,22.15994 17.840066,40 40,40 h 144 c 22.15994,0 40,-17.84006 40,-40 V 56 C 240,33.840066 222.15994,16 200,16 Z m 0,1 h 144 c 21.60598,0 39,17.394022 39,39 v 144 c 0,21.60598 -17.39402,39 -39,39 H 56 C 34.394022,239 17,221.60598 17,200 V 56 C 17,34.394022 34.394022,17 56,17 Z" />
  <path
     id="rect441"
     style="opacity:0.3;fill:#ffffff"
     d="m 17,199 v 1 c 0,21.60598 17.394022,39 39,39 h 144 c 21.60598,0 39,-17.39402 39,-39 v -1 c 0,21.60598 -17.39402,39 -39,39 H 56 C 34.394022,238 17,220.60598 17,199 Z" />
  <path
     id="rect443"
     style="opacity:0.3;fill:#ffffff"
     d="M 56,17 C 34.394022,17 17,34.394022 17,56 v 1 C 17,35.394022 34.394022,18 56,18 h 144 c 21.60598,0 39,17.394022 39,39 V 56 C 239,34.394022 221.60598,17 200,17 Z" />
</svg>
