<?xml version="1.0" encoding="UTF-8" standalone="no"?>
<!-- Created with Inkscape (http://www.inkscape.org/) -->

<svg
   width="256"
   height="256"
   viewBox="0 0 256 256.00001"
   version="1.1"
   id="svg5"
   sodipodi:docname="multimedia-photo-viewer.svg"
   inkscape:version="1.2.1 (9c6d41e410, 2022-07-14)"
   xmlns:inkscape="http://www.inkscape.org/namespaces/inkscape"
   xmlns:sodipodi="http://sodipodi.sourceforge.net/DTD/sodipodi-0.dtd"
   xmlns:xlink="http://www.w3.org/1999/xlink"
   xmlns="http://www.w3.org/2000/svg"
   xmlns:svg="http://www.w3.org/2000/svg">
  <sodipodi:namedview
     id="namedview7"
     pagecolor="#ffffff"
     bordercolor="#666666"
     borderopacity="1.0"
     inkscape:showpageshadow="2"
     inkscape:pageopacity="0.0"
     inkscape:pagecheckerboard="0"
     inkscape:deskcolor="#d1d1d1"
     inkscape:document-units="px"
     showgrid="false"
     inkscape:zoom="2.8284271"
     inkscape:cx="172.71083"
     inkscape:cy="146.19433"
     inkscape:window-width="1920"
     inkscape:window-height="1007"
     inkscape:window-x="0"
     inkscape:window-y="0"
     inkscape:window-maximized="1"
     inkscape:current-layer="svg5" />
  <defs
     id="defs2">
    <linearGradient
       inkscape:collect="always"
       xlink:href="#linearGradient21236"
       id="linearGradient3525"
       x1="49.757847"
       y1="59.623318"
       x2="14.242153"
       y2="4.3766818"
       gradientUnits="userSpaceOnUse"
       gradientTransform="matrix(4.0545454,0,0,4.0545454,-1.745455,-1.745455)" />
    <linearGradient
       inkscape:collect="always"
       id="linearGradient21236">
      <stop
         style="stop-color:#3689e6;stop-opacity:1;"
         offset="0"
         id="stop21232" />
      <stop
         style="stop-color:#5dcffc;stop-opacity:1;"
         offset="1"
         id="stop21234" />
    </linearGradient>
    <linearGradient
       inkscape:collect="always"
       xlink:href="#linearGradient1767"
       id="linearGradient1769"
       x1="21"
       y1="23"
       x2="8"
       y2="9"
       gradientUnits="userSpaceOnUse"
       gradientTransform="matrix(12,0,0,12,-12.000004,-20.000004)" />
    <linearGradient
       inkscape:collect="always"
       id="linearGradient1767">
      <stop
         style="stop-color:#09ae39;stop-opacity:1;"
         offset="0"
         id="stop1763" />
      <stop
         style="stop-color:#8ed90b;stop-opacity:1;"
         offset="1"
         id="stop1765" />
    </linearGradient>
    <linearGradient
       inkscape:collect="always"
       xlink:href="#linearGradient2509"
       id="linearGradient1777"
       x1="22.333334"
       y1="23"
       x2="13.942867"
       y2="14.50999"
       gradientUnits="userSpaceOnUse"
       gradientTransform="matrix(12,0,0,12,-12.000004,-20.000004)" />
    <linearGradient
       inkscape:collect="always"
       id="linearGradient2509">
      <stop
         style="stop-color:#077e29;stop-opacity:1;"
         offset="0"
         id="stop2505" />
      <stop
         style="stop-color:#77b408;stop-opacity:1;"
         offset="1"
         id="stop2507" />
    </linearGradient>
    <linearGradient
       inkscape:collect="always"
       xlink:href="#linearGradient2879"
       id="linearGradient2881"
       x1="29"
       y1="29"
       x2="16"
       y2="3"
       gradientUnits="userSpaceOnUse"
       gradientTransform="matrix(1.8461538,0,0,1.8461538,154.46154,50.461528)" />
    <linearGradient
       inkscape:collect="always"
       id="linearGradient2879">
      <stop
         style="stop-color:#ff8e42;stop-opacity:1;"
         offset="0"
         id="stop2875" />
      <stop
         style="stop-color:#ffdc42;stop-opacity:1;"
         offset="1"
         id="stop2877" />
    </linearGradient>
  </defs>
  <rect
     style="fill:url(#linearGradient3525);fill-opacity:1;stroke:none;stroke-width:4.05454"
     id="rect184"
     width="223"
     height="223"
     x="16.5"
     y="16.5"
     ry="39.5" />
  <path
     id="path9116"
     style="opacity:0.2;fill:#000000;fill-opacity:1;stroke-width:24;stroke-linecap:round;stroke-linejoin:round"
     d="M 82 89 L 16.5 154.5 L 16.5 200 C 16.5 221.88298 34.117022 239.5 56 239.5 L 200 239.5 C 221.88298 239.5 239.5 221.88298 239.5 200 L 239.5 182.5 L 186 129 L 152.25 162.75 L 82 89 z " />
  <circle
     style="opacity:0.2;fill:#000000;fill-opacity:1;stroke:none;stroke-width:3.69232;stroke-linecap:round;stroke-linejoin:round;stroke-dasharray:none;stroke-opacity:1"
     id="path2871"
     cx="184"
     cy="81"
     r="24" />
  <circle
     style="fill:url(#linearGradient2881);fill-opacity:1;stroke:none;stroke-width:3.6923;stroke-linecap:round;stroke-linejoin:round;stroke-dasharray:none;stroke-opacity:1"
     id="path2873"
     cx="184"
     cy="80"
     r="24" />
  <path
     id="rect1034"
     style="fill:url(#linearGradient1777);fill-opacity:1;stroke-width:24;stroke-linecap:round;stroke-linejoin:round"
     d="M 184 128 L 104 208 L 104 239.5 L 200 239.5 C 221.88298 239.5 239.5 221.88298 239.5 200 L 239.5 183.5 L 184 128 z " />
  <path
     id="rect304"
     style="fill:url(#linearGradient1769);fill-opacity:1;stroke-width:24;stroke-linecap:round;stroke-linejoin:round"
     d="M 80 88 L 16.5 151.5 L 16.5 200 C 16.5 221.88298 34.117022 239.5 56 239.5 L 200 239.5 C 207.07786 239.5 213.69419 237.63462 219.42773 234.40039 L 80 88 z " />
  <path
     id="rect899"
     style="fill:#000000;stroke:none;stroke-width:4;opacity:0.5"
     d="M 56,16 C 33.840066,16 16,33.840066 16,56 v 144 c 0,22.15994 17.840066,40 40,40 h 144 c 22.15994,0 40,-17.84006 40,-40 V 56 C 240,33.840066 222.15994,16 200,16 Z m 0,1 h 144 c 21.60598,0 39,17.394022 39,39 v 144 c 0,21.60598 -17.39402,39 -39,39 H 56 C 34.394022,239 17,221.60598 17,200 V 56 C 17,34.394022 34.394022,17 56,17 Z" />
  <path
     id="rect441"
     style="opacity:0.3;fill:#ffffff"
     d="m 17,199 v 1 c 0,21.60598 17.394022,39 39,39 h 144 c 21.60598,0 39,-17.39402 39,-39 v -1 c 0,21.60598 -17.39402,39 -39,39 H 56 C 34.394022,238 17,220.60598 17,199 Z" />
  <path
     id="rect443"
     style="opacity:0.3;fill:#ffffff"
     d="M 56,17 C 34.394022,17 17,34.394022 17,56 v 1 C 17,35.394022 34.394022,18 56,18 h 144 c 21.60598,0 39,17.394022 39,39 V 56 C 239,34.394022 221.60598,17 200,17 Z" />
</svg>
