<?xml version="1.0" encoding="UTF-8" standalone="no"?>
<!-- Created with Inkscape (http://www.inkscape.org/) -->

<svg
   width="256"
   height="256"
   viewBox="0 0 256 256.00001"
   version="1.1"
   id="svg5"
   sodipodi:docname="nvidia.svg"
   inkscape:version="1.2 (dc2aedaf03, 2022-05-15)"
   xmlns:inkscape="http://www.inkscape.org/namespaces/inkscape"
   xmlns:sodipodi="http://sodipodi.sourceforge.net/DTD/sodipodi-0.dtd"
   xmlns:xlink="http://www.w3.org/1999/xlink"
   xmlns="http://www.w3.org/2000/svg"
   xmlns:svg="http://www.w3.org/2000/svg">
  <sodipodi:namedview
     id="namedview7"
     pagecolor="#ffffff"
     bordercolor="#666666"
     borderopacity="1.0"
     inkscape:showpageshadow="2"
     inkscape:pageopacity="0.0"
     inkscape:pagecheckerboard="0"
     inkscape:deskcolor="#d1d1d1"
     inkscape:document-units="px"
     showgrid="false"
     inkscape:zoom="2.298097"
     inkscape:cx="85.940672"
     inkscape:cy="87.463671"
     inkscape:window-width="1920"
     inkscape:window-height="991"
     inkscape:window-x="0"
     inkscape:window-y="0"
     inkscape:window-maximized="1"
     inkscape:current-layer="svg5"
     showguides="false" />
  <defs
     id="defs2">
    <linearGradient
       inkscape:collect="always"
       xlink:href="#4852"
       id="linearGradient3525"
       x1="49.757847"
       y1="59.623318"
       x2="14.242153"
       y2="4.3766818"
       gradientUnits="userSpaceOnUse"
       gradientTransform="matrix(4.0545454,0,0,4.0545454,-1.745455,-1.745455)" />
    <linearGradient
       inkscape:collect="always"
       id="4852">
      <stop
         style="stop-color:#333333;stop-opacity:1"
         offset="0"
         id="stop14555" />
      <stop
         style="stop-color:#666666;stop-opacity:1"
         offset="1"
         id="stop14557" />
    </linearGradient>
    <linearGradient
       inkscape:collect="always"
       xlink:href="#linearGradient1270"
       id="linearGradient1272"
       x1="41.069729"
       y1="34.462826"
       x2="9.6275396"
       y2="13.024969"
       gradientUnits="userSpaceOnUse"
       gradientTransform="matrix(5.5975752,0,0,5.5975752,-13.890874,-4.9082451)" />
    <linearGradient
       inkscape:collect="always"
       id="linearGradient1270">
      <stop
         style="stop-color:#80d935;stop-opacity:1;"
         offset="0"
         id="stop1266" />
      <stop
         style="stop-color:#afd65f;stop-opacity:1;"
         offset="1"
         id="stop1268" />
    </linearGradient>
  </defs>
  <rect
     style="fill:url(#linearGradient3525);fill-opacity:1.0;stroke:none;stroke-width:4.05454"
     id="rect184"
     width="223"
     height="223"
     x="16.5"
     y="16.5"
     ry="39.5" />
  <path
     id="path1282"
     style="opacity:0.2;fill:#000000;fill-opacity:1;stroke-width:5.59756"
     d="m 104.02344,69 v 17.835937 c 1.03309,-0.0784 3.71125,-0.14464 4.75,-0.17968 40.0099,-1.337324 66.07813,32.539063 66.07813,32.539063 0,0 -29.93921,36.10938 -61.13282,36.10938 -2.85886,0 -7.18153,-0.26136 -9.69531,-0.70312 v 9.63281 c 2.14962,0.27056 6.02587,0.42969 8.35156,0.42969 29.02771,0 50.01707,-14.70097 70.34376,-32.10157 3.3701,2.67676 17.16376,9.18841 20,12.03907 -19.32683,16.04715 -64.37026,28.98437 -89.90626,28.98437 -2.46145,0 -6.4655,-0.15252 -8.78906,-0.375 v 15.78906 H 216 V 69 Z m 0,104.21094 v -8.97656 c -35.523262,-4.43203 -46.039067,-43.25781 -46.039067,-43.25781 0,0 14.266333,-23.286448 46.039067,-25.69532 V 86.835937 C 68.83111,89.638905 40,119.19532 40,119.19532 c 0,0 15.616573,49.48471 64.02344,54.01562 z m 0,-77.92969 v 10.4375 c 1.88234,-0.19984 5.44206,-0.34444 7.44531,-0.34376 18.4295,0 29.35938,14.21876 29.35938,14.21876 l -14.97656,12.52343 c -6.73225,-11.13 -10.63355,-16.0314 -21.82813,-17.375 v -9.02343 c -21.409269,2.29665 -32.656254,16.45312 -32.656254,16.45312 4e-6,0 5.808573,27.6828 32.656254,32.42969 v -8.22655 c 2.53962,0.84521 7.00509,1.35156 10.14844,1.35156 21.85969,0 42.25,-28.08594 42.25,-28.08594 0,0 -18.87739,-25.411844 -47.64844,-24.515628 -1.05218,0.0328 -3.72751,0.08584 -4.75,0.15624 z m -2.10156,19.33594 c 0.66948,-0.003 1.35239,0.0336 2.05468,0.1172 0.012,0 0.0264,0.007 0.0392,0.008 v 31.63282 c -15.129721,-5.04663 -18.406249,-22.57032 -18.406249,-22.57032 0,0 6.270241,-9.1457 16.312499,-9.1875 z" />
  <path
     id="path353"
     style="fill:url(#linearGradient1272);fill-opacity:1;stroke-width:5.59756"
     d="m 104.02344,68 v 17.835937 c 1.03309,-0.0784 3.71125,-0.14464 4.75,-0.17968 40.0099,-1.337324 66.07813,32.539063 66.07813,32.539063 0,0 -29.93921,36.10938 -61.13282,36.10938 -2.85886,0 -7.18153,-0.26136 -9.69531,-0.70312 v 9.63281 c 2.14962,0.27056 6.02587,0.42969 8.35156,0.42969 29.02771,0 50.01707,-14.70097 70.34376,-32.10157 3.3701,2.67676 17.16376,9.18841 20,12.03907 -19.32683,16.04715 -64.37026,28.98437 -89.90626,28.98437 -2.46145,0 -6.4655,-0.15252 -8.78906,-0.375 v 15.78906 H 216 V 68 Z m 0,104.21094 v -8.97656 c -35.523262,-4.43203 -46.039067,-43.25781 -46.039067,-43.25781 0,0 14.266333,-23.286448 46.039067,-25.69532 V 85.835937 C 68.83111,88.638905 40,118.19532 40,118.19532 c 0,0 15.616573,49.48471 64.02344,54.01562 z m 0,-77.92969 v 10.4375 c 1.88234,-0.19984 5.44206,-0.34444 7.44531,-0.34376 18.4295,0 29.35938,14.21876 29.35938,14.21876 l -14.97656,12.52343 c -6.73225,-11.13 -10.63355,-16.0314 -21.82813,-17.375 v -9.02343 c -21.409269,2.29665 -32.656254,16.45312 -32.656254,16.45312 0,0 5.808573,27.6828 32.656254,32.42969 v -8.22655 c 2.53962,0.84521 7.00509,1.35156 10.14844,1.35156 21.85969,0 42.25,-28.08594 42.25,-28.08594 0,0 -18.87739,-25.411844 -47.64844,-24.515628 -1.05218,0.0328 -3.72751,0.08584 -4.75,0.15624 z m -2.10156,19.33594 c 0.66948,-0.003 1.35239,0.0336 2.05468,0.1172 0.012,0 0.0264,0.007 0.0392,0.008 v 31.63282 c -15.129721,-5.04663 -18.406249,-22.57032 -18.406249,-22.57032 0,0 6.270241,-9.1457 16.312499,-9.1875 z" />
  <path
     id="rect899"
     style="fill:#000000;stroke:none;stroke-width:4;opacity:0.5"
     d="M 56,16 C 33.840066,16 16,33.840066 16,56 v 144 c 0,22.15994 17.840066,40 40,40 h 144 c 22.15994,0 40,-17.84006 40,-40 V 56 C 240,33.840066 222.15994,16 200,16 Z m 0,1 h 144 c 21.60598,0 39,17.394022 39,39 v 144 c 0,21.60598 -17.39402,39 -39,39 H 56 C 34.394022,239 17,221.60598 17,200 V 56 C 17,34.394022 34.394022,17 56,17 Z" />
  <path
     id="rect441"
     style="opacity:0.3;fill:#ffffff"
     d="m 17,199 v 1 c 0,21.60598 17.394022,39 39,39 h 144 c 21.60598,0 39,-17.39402 39,-39 v -1 c 0,21.60598 -17.39402,39 -39,39 H 56 C 34.394022,238 17,220.60598 17,199 Z" />
  <path
     id="rect443"
     style="opacity:0.3;fill:#ffffff"
     d="M 56,17 C 34.394022,17 17,34.394022 17,56 v 1 C 17,35.394022 34.394022,18 56,18 h 144 c 21.60598,0 39,17.394022 39,39 V 56 C 239,34.394022 221.60598,17 200,17 Z" />
</svg>
