<?xml version="1.0" encoding="UTF-8" standalone="no"?>
<!-- Created with Inkscape (http://www.inkscape.org/) -->

<svg
   width="256"
   height="256"
   viewBox="0 0 256 256.00001"
   version="1.1"
   id="svg5"
   sodipodi:docname="okular.svg"
   inkscape:version="1.2.1 (9c6d41e410, 2022-07-14)"
   xmlns:inkscape="http://www.inkscape.org/namespaces/inkscape"
   xmlns:sodipodi="http://sodipodi.sourceforge.net/DTD/sodipodi-0.dtd"
   xmlns:xlink="http://www.w3.org/1999/xlink"
   xmlns="http://www.w3.org/2000/svg"
   xmlns:svg="http://www.w3.org/2000/svg">
  <sodipodi:namedview
     id="namedview7"
     pagecolor="#ffffff"
     bordercolor="#666666"
     borderopacity="1.0"
     inkscape:showpageshadow="2"
     inkscape:pageopacity="0.0"
     inkscape:pagecheckerboard="0"
     inkscape:deskcolor="#d1d1d1"
     inkscape:document-units="px"
     showgrid="false"
     inkscape:zoom="3.1132812"
     inkscape:cx="128.1606"
     inkscape:cy="128"
     inkscape:window-width="1920"
     inkscape:window-height="1009"
     inkscape:window-x="0"
     inkscape:window-y="0"
     inkscape:window-maximized="1"
     inkscape:current-layer="svg5" />
  <defs
     id="defs2">
    <linearGradient
       inkscape:collect="always"
       xlink:href="#linearGradient22024"
       id="linearGradient3525"
       x1="49.757847"
       y1="59.623318"
       x2="14.242153"
       y2="4.3766818"
       gradientUnits="userSpaceOnUse"
       gradientTransform="matrix(4.0545454,0,0,4.0545454,-1.745455,-1.745455)" />
    <linearGradient
       inkscape:collect="always"
       id="linearGradient22024">
      <stop
         style="stop-color:#dfdfdf;stop-opacity:1;"
         offset="0"
         id="stop22020" />
      <stop
         style="stop-color:#f2f2f2;stop-opacity:1;"
         offset="1"
         id="stop22022" />
    </linearGradient>
    <linearGradient
       inkscape:collect="always"
       xlink:href="#linearGradient1549"
       id="linearGradient3328"
       x1="22.000116"
       y1="46.000076"
       x2="59.999985"
       y2="4.0000014"
       gradientUnits="userSpaceOnUse"
       gradientTransform="matrix(4.0000017,0,0,4.0000017,-3.78e-5,-1.1600002e-5)" />
    <linearGradient
       inkscape:collect="always"
       id="linearGradient1549">
      <stop
         style="stop-color:#358fe1;stop-opacity:1;"
         offset="0"
         id="stop1545" />
      <stop
         style="stop-color:#36c4f9;stop-opacity:1;"
         offset="1"
         id="stop1547" />
    </linearGradient>
  </defs>
  <rect
     style="fill:url(#linearGradient3525);fill-opacity:1;stroke:none;stroke-width:4.05454"
     id="rect184"
     width="223"
     height="223"
     x="16.5"
     y="16.5"
     ry="39.5" />
  <path
     id="path2721"
     style="opacity:0.5;fill:#ffffff;stroke-width:4"
     d="M 154.74609 17.033203 C 150.24943 17.002383 145.55818 16.974383 137.32812 17.039062 C 123.59398 29.978516 111.95571 47.170105 102.43359 66.710938 C 87.730525 96.883832 84.234911 122.36937 92.066406 143.26367 C 99.897805 164.15801 117.86784 177.25839 145.90234 182.60938 C 175.36969 188.23383 202.68814 183.9462 227.87305 169.63086 C 231.57148 167.52857 235.9544 165.19856 239.5 162.73438 L 239.5 129.61133 C 230.48495 141.84237 219.70347 151.79373 209.19727 159.39258 C 190.29967 173.06041 170.77319 177.93783 150.53125 174.07422 C 131.27427 170.39862 119.96874 159.5234 116.64648 141.42969 C 113.45483 123.26858 118.66654 100.2391 132.29883 72.263672 C 143.47726 49.32371 156.35827 30.427891 170.99609 17.039062 C 163.54472 17.097662 159.24276 17.064023 154.74609 17.033203 z " />
  <path
     id="path2530"
     style="fill:url(#linearGradient3328);fill-opacity:1;stroke-width:4"
     d="M 136.86719 16.5 C 123.33702 29.387507 111.84707 46.393062 102.43359 65.710938 C 87.730525 95.883832 84.234911 121.36936 92.066406 142.26367 C 99.897805 163.15801 117.86784 176.2584 145.90234 181.60938 C 175.36969 187.23383 202.68814 182.94619 227.87305 168.63086 C 231.57148 166.52856 235.9544 164.19855 239.5 161.73438 L 239.5 128.61133 C 230.48495 140.84238 219.70347 150.79373 209.19727 158.39258 C 190.29967 172.06042 170.77319 176.93783 150.53125 173.07422 C 131.27427 169.39862 119.96874 158.52339 116.64648 140.42969 C 113.45483 122.26857 118.66654 99.239103 132.29883 71.263672 C 143.3521 48.58055 156.07277 29.860676 170.50781 16.5 L 136.86719 16.5 z " />
  <path
     id="rect899"
     style="fill:#000000;stroke:none;stroke-width:4;opacity:0.5"
     d="M 56,16 C 33.840066,16 16,33.840066 16,56 v 144 c 0,22.15994 17.840066,40 40,40 h 144 c 22.15994,0 40,-17.84006 40,-40 V 56 C 240,33.840066 222.15994,16 200,16 Z m 0,1 h 144 c 21.60598,0 39,17.394022 39,39 v 144 c 0,21.60598 -17.39402,39 -39,39 H 56 C 34.394022,239 17,221.60598 17,200 V 56 C 17,34.394022 34.394022,17 56,17 Z" />
  <path
     id="rect441"
     style="opacity:0.3;fill:#ffffff"
     d="m 17,199 v 1 c 0,21.60598 17.394022,39 39,39 h 144 c 21.60598,0 39,-17.39402 39,-39 v -1 c 0,21.60598 -17.39402,39 -39,39 H 56 C 34.394022,238 17,220.60598 17,199 Z" />
  <path
     id="rect443"
     style="opacity:0.3;fill:#ffffff"
     d="M 56,17 C 34.394022,17 17,34.394022 17,56 v 1 C 17,35.394022 34.394022,18 56,18 h 144 c 21.60598,0 39,17.394022 39,39 V 56 C 239,34.394022 221.60598,17 200,17 Z" />
</svg>
