<?xml version="1.0" encoding="UTF-8" standalone="no"?>
<!-- Created with Inkscape (http://www.inkscape.org/) -->

<svg
   width="256"
   height="256"
   viewBox="0 0 256 256.00001"
   version="1.1"
   id="svg5"
   sodipodi:docname="org.kde.kalendar.svg"
   inkscape:version="1.3.2 (091e20ef0f, 2023-11-25, custom)"
   xmlns:inkscape="http://www.inkscape.org/namespaces/inkscape"
   xmlns:sodipodi="http://sodipodi.sourceforge.net/DTD/sodipodi-0.dtd"
   xmlns:xlink="http://www.w3.org/1999/xlink"
   xmlns="http://www.w3.org/2000/svg"
   xmlns:svg="http://www.w3.org/2000/svg">
  <sodipodi:namedview
     id="namedview7"
     pagecolor="#ffffff"
     bordercolor="#666666"
     borderopacity="1.0"
     inkscape:showpageshadow="2"
     inkscape:pageopacity="0.0"
     inkscape:pagecheckerboard="0"
     inkscape:deskcolor="#d1d1d1"
     inkscape:document-units="px"
     showgrid="false"
     inkscape:zoom="3.2265625"
     inkscape:cx="128"
     inkscape:cy="128"
     inkscape:window-width="1920"
     inkscape:window-height="1011"
     inkscape:window-x="0"
     inkscape:window-y="0"
     inkscape:window-maximized="1"
     inkscape:current-layer="svg5" />
  <defs
     id="defs2">
    <linearGradient
       inkscape:collect="always"
       xlink:href="#linearGradient7002"
       id="linearGradient3525"
       x1="49.757847"
       y1="59.623318"
       x2="14.242153"
       y2="4.3766818"
       gradientUnits="userSpaceOnUse"
       gradientTransform="matrix(4.0545454,0,0,4.0545454,-1.745455,-1.745455)" />
    <linearGradient
       inkscape:collect="always"
       id="linearGradient7002">
      <stop
         style="stop-color:#0290e9;stop-opacity:1;"
         offset="0"
         id="stop6998" />
      <stop
         style="stop-color:#44d9ff;stop-opacity:1;"
         offset="1"
         id="stop7000" />
    </linearGradient>
  </defs>
  <rect
     style="fill:url(#linearGradient3525);fill-opacity:1.0;stroke:none;stroke-width:4.05454"
     id="rect184"
     width="223"
     height="223"
     x="16.5"
     y="16.5"
     ry="39.5" />
  <path
     id="rect294"
     style="opacity:0.8;fill:#115267;fill-opacity:1;stroke-width:4.05455;stroke-linecap:round;stroke-linejoin:round"
     d="M 55.5,16.5 C 33.617022,16.5 16,34.117022 16,56 V 165.79688 L 38.648438,135.05664 101.94531,239.5 h 32.43555 L 56.443359,110.90234 126.00391,16.5 Z" />
  <path
     d="m 124,89.000004 c -4.432,0 -8,3.568004 -8,8 V 121 c 0,4.432 3.568,8 8,8 h 24 c 4.432,0 8,-3.568 8,-8 V 97 c 0,-4.431996 -3.568,-8 -8,-8 z m 52,0 c -4.432,0 -8,3.568004 -8,8 V 121 c 0,4.432 3.568,8 8,8 h 24 c 4.432,0 8,-3.568 8,-8 V 97 c 0,-4.431996 -3.568,-8 -8,-8 z M 124,141 c -4.432,0 -8,3.56801 -8,8 v 24 c 0,4.432 3.568,8 8,8 h 24 c 4.432,0 8,-3.568 8,-8 v -24 c 0,-4.43199 -3.568,-8 -8,-8 z m 52,0 c -4.432,0 -8,3.56801 -8,8 v 24 c 0,4.432 3.568,8 8,8 h 24 c 4.432,0 8,-3.568 8,-8 v -24 c 0,-4.43199 -3.568,-8 -8,-8 z"
     style="opacity:0.2;fill:#000000;fill-opacity:1;stroke-width:4;stroke-linecap:round;stroke-linejoin:round"
     id="path28288" />
  <path
     id="rect8457"
     style="fill:#ffffff;fill-opacity:1;stroke-width:4;stroke-linecap:round;stroke-linejoin:round"
     d="m 124,87.999999 c -4.432,0 -8,3.568004 -8,8 V 120 c 0,4.43199 3.568,8 8,8 h 24 c 4.432,0 8,-3.56801 8,-8 V 95.999999 c 0,-4.431996 -3.568,-8 -8,-8 z m 52,0 c -4.432,0 -8,3.568004 -8,8 V 120 c 0,4.43199 3.568,8 8,8 h 24 c 4.432,0 8,-3.56801 8,-8 V 95.999999 c 0,-4.431996 -3.568,-8 -8,-8 z M 124,140 c -4.432,0 -8,3.568 -8,8 v 24 c 0,4.43199 3.568,8 8,8 h 24 c 4.432,0 8,-3.56801 8,-8 v -24 c 0,-4.432 -3.568,-8 -8,-8 z m 52,0 c -4.432,0 -8,3.568 -8,8 v 24 c 0,4.43199 3.568,8 8,8 h 24 c 4.432,0 8,-3.56801 8,-8 v -24 c 0,-4.432 -3.568,-8 -8,-8 z"
     sodipodi:nodetypes="ssssssssssssssssssssssssssssssssssss" />
  <rect
     style="opacity:0.4;fill:#3daee9;fill-opacity:1;stroke-width:6.4;stroke-linecap:round;stroke-linejoin:round"
     id="rect23005"
     width="31.999998"
     height="31.999998"
     x="120"
     y="144"
     ry="3.9999998" />
  <path
     id="rect23785"
     style="fill:#3daee9;fill-opacity:1;stroke-width:4;stroke-linecap:round;stroke-linejoin:round"
     d="m 150.75588,147.272 -19.32812,19.328 -9.08764,-9.082 -2.82812,2.828 9.65796,9.654 h 0.016 l 2.25,2.256 22.14844,-22.14 z"
     sodipodi:nodetypes="ccccccccc" />
  <path
     id="rect17141"
     style="fill:#00789d;fill-opacity:1;stroke-width:4;stroke-linecap:round;stroke-linejoin:round"
     d="m 120,60 c -2.216,0 -4,1.784004 -4,4 v 8 c 0,2.215996 1.784,3.999999 4,3.999999 h 32 c 2.216,0 4,-1.784003 4,-3.999999 v -8 c 0,-2.215996 -1.784,-4 -4,-4 z m 52,0 c -2.216,0 -4,1.784004 -4,4 v 8 c 0,2.215996 1.784,3.999999 4,3.999999 h 32 c 2.216,0 4,-1.784003 4,-3.999999 v -8 c 0,-2.215996 -1.784,-4 -4,-4 z" />
  <path
     id="rect899"
     style="fill:#000000;stroke:none;stroke-width:4;opacity:0.5"
     d="M 56,16 C 33.840066,16 16,33.840066 16,56 v 144 c 0,22.15994 17.840066,40 40,40 h 144 c 22.15994,0 40,-17.84006 40,-40 V 56 C 240,33.840066 222.15994,16 200,16 Z m 0,1 h 144 c 21.60598,0 39,17.394022 39,39 v 144 c 0,21.60598 -17.39402,39 -39,39 H 56 C 34.394022,239 17,221.60598 17,200 V 56 C 17,34.394022 34.394022,17 56,17 Z" />
  <path
     id="rect441"
     style="opacity:0.3;fill:#ffffff"
     d="m 17,199 v 1 c 0,21.60598 17.394022,39 39,39 h 144 c 21.60598,0 39,-17.39402 39,-39 v -1 c 0,21.60598 -17.39402,39 -39,39 H 56 C 34.394022,238 17,220.60598 17,199 Z" />
  <path
     id="rect443"
     style="opacity:0.3;fill:#ffffff"
     d="M 56,17 C 34.394022,17 17,34.394022 17,56 v 1 C 17,35.394022 34.394022,18 56,18 h 144 c 21.60598,0 39,17.394022 39,39 V 56 C 239,34.394022 221.60598,17 200,17 Z" />
</svg>
