<?xml version="1.0" encoding="UTF-8" standalone="no"?>
<!-- Created with Inkscape (http://www.inkscape.org/) -->

<svg
   width="256"
   height="256"
   viewBox="0 0 256 256.00001"
   version="1.1"
   id="svg5"
   sodipodi:docname="polari.svg"
   inkscape:version="1.2.1 (9c6d41e410, 2022-07-14)"
   xmlns:inkscape="http://www.inkscape.org/namespaces/inkscape"
   xmlns:sodipodi="http://sodipodi.sourceforge.net/DTD/sodipodi-0.dtd"
   xmlns:xlink="http://www.w3.org/1999/xlink"
   xmlns="http://www.w3.org/2000/svg"
   xmlns:svg="http://www.w3.org/2000/svg">
  <sodipodi:namedview
     id="namedview7"
     pagecolor="#ffffff"
     bordercolor="#666666"
     borderopacity="1.0"
     inkscape:showpageshadow="2"
     inkscape:pageopacity="0.0"
     inkscape:pagecheckerboard="0"
     inkscape:deskcolor="#d1d1d1"
     inkscape:document-units="px"
     showgrid="false"
     inkscape:zoom="2"
     inkscape:cx="88.5"
     inkscape:cy="116.25"
     inkscape:window-width="1920"
     inkscape:window-height="1007"
     inkscape:window-x="0"
     inkscape:window-y="0"
     inkscape:window-maximized="1"
     inkscape:current-layer="svg5" />
  <defs
     id="defs2">
    <linearGradient
       inkscape:collect="always"
       xlink:href="#linearGradient3031"
       id="linearGradient3525"
       x1="32"
       y1="59.623318"
       x2="32"
       y2="4.3766818"
       gradientUnits="userSpaceOnUse"
       gradientTransform="matrix(4.0545454,0,0,4.0545454,-1.745455,-1.745455)" />
    <linearGradient
       inkscape:collect="always"
       xlink:href="#linearGradient943"
       id="linearGradient1792"
       x1="16"
       y1="25"
       x2="16"
       y2="2"
       gradientUnits="userSpaceOnUse"
       gradientTransform="scale(8)" />
    <linearGradient
       inkscape:collect="always"
       id="linearGradient943">
      <stop
         style="stop-color:#ffffff;stop-opacity:1;"
         offset="0"
         id="stop939" />
      <stop
         style="stop-color:#dffce7;stop-opacity:1;"
         offset="1"
         id="stop941" />
    </linearGradient>
    <linearGradient
       inkscape:collect="always"
       id="linearGradient3031">
      <stop
         style="stop-color:#74c021;stop-opacity:1;"
         offset="0"
         id="stop3027" />
      <stop
         style="stop-color:#b4e680;stop-opacity:1;"
         offset="1"
         id="stop3029" />
    </linearGradient>
  </defs>
  <rect
     style="fill:url(#linearGradient3525);fill-opacity:1.0;stroke:none;stroke-width:4.05454"
     id="rect184"
     width="223"
     height="223"
     x="16.5"
     y="16.5"
     ry="39.5" />
  <path
     d="m 72,73 c -8.863992,0 -16,7.136008 -16,16 v 64 c 0,8.864 7.136008,16 16,16 h 16 v 32 l 26.67187,-32 H 184 c 8.864,0 16,-7.136 16,-16 V 89 c 0,-8.863992 -7.136,-16 -16,-16 z"
     style="opacity:0.2;fill:#000000;stroke-width:16;stroke-linecap:round;stroke-linejoin:round"
     id="path1035" />
  <path
     id="rect373"
     style="fill:url(#linearGradient1792);fill-opacity:1.0;stroke-width:16;stroke-linecap:round;stroke-linejoin:round"
     d="m 72,72 c -8.863992,0 -16,7.136008 -16,16 v 64 c 0,8.864 7.136008,16 16,16 h 16 v 32 l 26.67187,-32 H 184 c 8.864,0 16,-7.136 16,-16 V 88 c 0,-8.863992 -7.136,-16 -16,-16 z"
     sodipodi:nodetypes="sssscccsssss" />
  <path
     id="path6809"
     style="fill:#79c525;fill-opacity:1;stroke-width:15.492;stroke-linecap:round;stroke-linejoin:round"
     d="m 118,84 -2.66406,16 H 98 v 8 h 16 l -4,24 H 98 v 8 h 10.66406 L 106,156 h 8 l 2.66406,-16 h 16 L 130,156 h 8 l 2.66406,-16 H 158 v -8 h -16 l 4,-24 h 12 v -8 H 147.33594 L 150,84 h -8 l -2.66406,16 h -16 L 126,84 Z m 4,24 h 16 l -4,24 h -16 z" />
  <path
     id="path1929"
     style="fill:#ffffff;fill-opacity:1;stroke-width:16;stroke-linecap:round;stroke-linejoin:round"
     d="m 72,72 c -8.863976,0 -16,7.136024 -16,16 v 1 c 0,-8.863976 7.136024,-16 16,-16 h 112 c 8.86398,0 16,7.136024 16,16 v -1 c 0,-8.863976 -7.13602,-16 -16,-16 z"
     sodipodi:nodetypes="sscsscsss" />
  <path
     id="rect899"
     style="fill:#000000;stroke:none;stroke-width:4;opacity:0.5"
     d="M 56,16 C 33.840066,16 16,33.840066 16,56 v 144 c 0,22.15994 17.840066,40 40,40 h 144 c 22.15994,0 40,-17.84006 40,-40 V 56 C 240,33.840066 222.15994,16 200,16 Z m 0,1 h 144 c 21.60598,0 39,17.394022 39,39 v 144 c 0,21.60598 -17.39402,39 -39,39 H 56 C 34.394022,239 17,221.60598 17,200 V 56 C 17,34.394022 34.394022,17 56,17 Z" />
  <path
     id="rect441"
     style="opacity:0.3;fill:#ffffff"
     d="m 17,199 v 1 c 0,21.60598 17.394022,39 39,39 h 144 c 21.60598,0 39,-17.39402 39,-39 v -1 c 0,21.60598 -17.39402,39 -39,39 H 56 C 34.394022,238 17,220.60598 17,199 Z" />
  <path
     id="rect443"
     style="opacity:0.3;fill:#ffffff"
     d="M 56,17 C 34.394022,17 17,34.394022 17,56 v 1 C 17,35.394022 34.394022,18 56,18 h 144 c 21.60598,0 39,17.394022 39,39 V 56 C 239,34.394022 221.60598,17 200,17 Z" />
</svg>
