<?xml version="1.0" encoding="UTF-8" standalone="no"?>
<!-- Created with Inkscape (http://www.inkscape.org/) -->

<svg
   width="256"
   height="256"
   viewBox="0 0 256 256.00001"
   version="1.1"
   id="svg5"
   sodipodi:docname="preferences-desktop-theme-applications.svg"
   inkscape:version="1.2.1 (9c6d41e410, 2022-07-14)"
   xmlns:inkscape="http://www.inkscape.org/namespaces/inkscape"
   xmlns:sodipodi="http://sodipodi.sourceforge.net/DTD/sodipodi-0.dtd"
   xmlns:xlink="http://www.w3.org/1999/xlink"
   xmlns="http://www.w3.org/2000/svg"
   xmlns:svg="http://www.w3.org/2000/svg">
  <sodipodi:namedview
     id="namedview7"
     pagecolor="#ffffff"
     bordercolor="#666666"
     borderopacity="1.0"
     inkscape:showpageshadow="2"
     inkscape:pageopacity="0.0"
     inkscape:pagecheckerboard="0"
     inkscape:deskcolor="#d1d1d1"
     inkscape:document-units="px"
     showgrid="false"
     inkscape:zoom="2"
     inkscape:cx="-62"
     inkscape:cy="149.75"
     inkscape:window-width="1920"
     inkscape:window-height="1007"
     inkscape:window-x="0"
     inkscape:window-y="0"
     inkscape:window-maximized="1"
     inkscape:current-layer="svg5"
     showguides="false" />
  <defs
     id="defs2">
    <linearGradient
       inkscape:collect="always"
       xlink:href="#linearGradient22024"
       id="linearGradient3525"
       x1="32"
       y1="59.623318"
       x2="32"
       y2="18.188341"
       gradientUnits="userSpaceOnUse"
       gradientTransform="matrix(4.0545454,0,0,4.0545454,-1.745455,-1.745455)" />
    <linearGradient
       inkscape:collect="always"
       id="linearGradient22024">
      <stop
         style="stop-color:#dedede;stop-opacity:1;"
         offset="0"
         id="stop22020" />
      <stop
         style="stop-color:#f2f2f2;stop-opacity:1;"
         offset="1"
         id="stop22022" />
    </linearGradient>
  </defs>
  <rect
     style="fill:url(#linearGradient3525);fill-opacity:1.0;stroke:none;stroke-width:4.05454"
     id="rect184"
     width="223"
     height="223"
     x="16.5"
     y="16.5"
     ry="39.5" />
  <path
     id="rect348"
     style="fill:#6a747d;fill-opacity:1;stroke-width:4;stroke-linejoin:round"
     d="M 56,16.5 C 34.117022,16.5 16.5,34.117022 16.5,56 v 17 h 223 V 56 C 239.5,34.117022 221.88298,16.5 200,16.5 Z"
     sodipodi:nodetypes="ssccsss" />
  <rect
     style="opacity:0.2;fill:#000000;stroke-width:1.86246;stroke-linejoin:round"
     id="rect581"
     width="222"
     height="1"
     x="17"
     y="72" />
  <path
     d="m 163.21534,114.38321 c 0,0 -1.9788,0.89714 -6.5226,4.67342 -5.55684,4.61664 -8.998,4.24447 -13.06332,3.56292 l -0.032,0.032 c -0.7744,-0.35344 -1.55734,-0.68464 -2.3517,-0.98185 v -0.032 c -3.35724,-2.3909 -6.0526,-4.56384 -6.71758,-11.75777 -0.544,-5.8805 -1.30758,-7.91723 -1.30758,-7.91723 -2.21526,-0.96288 -5.22608,-0.96258 -5.22608,-0.96258 0,0 -3.01162,3.1e-4 -5.22522,0.9634 0,0 -0.76561,2.03501 -1.30819,7.91658 -0.6648,7.19359 -3.36173,9.36566 -6.71743,11.75773 l -0.006,0.04 c -0.7936,0.2968 -1.57429,0.6288 -2.35152,0.98196 l -0.032,-0.032 c -4.06501,0.6824 -7.50744,1.05243 -13.064516,-3.56381 -4.542132,-3.77395 -6.522292,-4.67342 -6.522292,-4.67342 -2.242156,0.8806 -4.370608,3.00904 -4.370608,3.00904 0,0 -2.129432,2.12943 -3.01356,4.37641 0,0 0.899168,1.98069 4.672956,6.52268 4.616556,5.55675 4.24502,9.00063 3.56398,13.06436 l 0.032,0.032 c -0.352,0.7752 -0.6848,1.55755 -0.982992,2.35071 h -0.032 c -2.390244,3.35762 -4.56336,6.05301 -11.756728,6.71872 -5.880332,0.5432 -7.9184,1.3093 -7.9184,1.3093 C 72.000168,153.98987 72,156.99637 72,156.99637 c 0,0 0.0016,3.01297 0.963952,5.22623 0,0 2.03454,0.76648 7.916024,1.30727 7.1932,0.66559 9.362788,3.36433 11.756536,6.71869 h 0.032 c 0.2976,0.79448 0.6296,1.57566 0.981736,2.3519 l -0.032,0.032 c 0.684,4.0648 1.053384,7.50668 -3.562692,13.06316 -3.773788,4.54312 -4.673516,6.5263 -4.673516,6.5263 0.887408,2.2468 3.013696,4.3731 3.013696,4.3731 0,0 2.130164,2.13024 4.376376,3.01362 0,0 1.979992,-0.89618 6.5219,-4.67254 5.557248,-4.61592 9.000158,-4.24198 13.064268,-3.56348 l 0.032,-0.032 c 0.77768,0.35288 1.55781,0.6856 2.35192,0.98178 l -0.006,0.04 c 3.35804,2.3907 6.05292,4.56334 6.71871,11.75648 0.5432,5.88066 1.30875,7.91936 1.30875,7.91936 2.21625,0.96044 5.22346,0.96188 5.22346,0.96188 0,0 3.013,-8.2e-4 5.22538,-0.96516 0,0 0.7664,-2.03262 1.30806,-7.91512 0.6656,-7.19312 3.36528,-9.36368 6.71786,-11.75704 l -0.006,-0.04 c 0.7936,-0.2968 1.57504,-0.6304 2.3517,-0.9821 l 0.032,0.032 c 4.06462,-0.684 7.50632,-1.05316 13.0634,3.56314 4.54212,3.7739 6.52508,4.67408 6.52508,4.67408 2.2472,-0.88824 4.37376,-3.01474 4.37376,-3.01474 0,0 2.13012,-2.13012 3.01376,-4.37662 0,0 -0.89626,-1.98014 -4.67344,-6.5223 -4.61652,-5.55674 -4.24236,-9.00012 -3.56292,-13.06354 l -0.032,-0.032 c 0.3528,-0.7776 0.6856,-1.55782 0.98196,-2.35152 h 0.048 c 2.39072,-3.35706 4.56362,-6.05234 11.75704,-6.71813 5.88114,-0.5432 7.92,-1.30909 7.92,-1.30909 0.96012,-2.21625 0.96036,-5.22402 0.96036,-5.22402 0,0 -5e-4,-3.01162 -0.96268,-5.22608 0,0 -2.03532,-0.7656 -7.91712,-1.30757 -7.19382,-0.6648 -9.36464,-3.36188 -11.75784,-6.71743 h -0.032 c -0.2968,-0.7936 -0.62728,-1.57556 -0.98204,-2.35158 l 0.032,-0.032 c -0.6824,-4.06333 -1.0536,-7.50633 3.56268,-13.06349 3.77396,-4.54214 4.67502,-6.52436 4.67502,-6.52436 -0.88666,-2.24633 -3.01512,-4.37481 -3.01512,-4.37481 0,0 -2.13024,-2.13004 -4.3767,-3.0137 z m -16.7027,61.13315 c -10.22858,10.22848 -26.81152,10.22864 -37.04012,1.6e-4 -10.228572,-10.2286 -10.228404,-26.81155 1.7e-4,-37.04012 10.22834,-10.22835 26.81129,-10.22848 37.03987,8e-5 10.22856,10.22849 10.22842,26.81152 8e-5,37.03988 z"
     style="display:inline;opacity:0.2;fill:#000000;fill-opacity:1;stroke:none;stroke-width:2.8;enable-background:new"
     id="path1237" />
  <path
     d="m 163.21726,113.38324 c 0,0 -1.97878,0.89715 -6.5226,4.67343 -5.55682,4.61664 -8.998,4.24447 -13.06332,3.56292 l -0.032,0.032 c -0.7744,-0.3536 -1.55732,-0.6848 -2.35168,-0.98202 v -0.032 c -3.35726,-2.39089 -6.05262,-4.56383 -6.7176,-11.75776 -0.544,-5.88051 -1.30756,-7.91723 -1.30756,-7.91723 C 131.00722,99.999688 127.99641,100 127.99641,100 c 0,0 -3.01163,3e-4 -5.22522,0.9634 0,0 -0.76561,2.035 -1.30819,7.91658 -0.6648,7.19359 -3.36174,9.36566 -6.71743,11.75773 l -0.006,0.04 c -0.79361,0.2968 -1.57429,0.6288 -2.35152,0.98196 l -0.032,-0.032 c -4.06501,0.68241 -7.50745,1.05244 -13.064526,-3.56381 -4.542132,-3.77396 -6.522292,-4.67342 -6.522292,-4.67342 -2.242152,0.88059 -4.370604,3.00904 -4.370604,3.00904 0,0 -2.129432,2.12944 -3.013556,4.3764 0,0 0.899164,1.98069 4.672948,6.52269 4.616556,5.55674 4.245028,9.00063 3.563984,13.06435 l 0.032,0.032 c -0.352,0.77521 -0.684804,1.55756 -0.982996,2.35072 h -0.032 c -2.390252,3.35762 -4.563356,6.05301 -11.756732,6.71872 -5.880332,0.5432 -7.918396,1.3093 -7.918396,1.3093 -0.962196,2.21609 -0.962364,5.22259 -0.962364,5.22259 0,0 0.0016,3.01297 0.963956,5.22623 0,0 2.034536,0.76648 7.91602,1.30726 7.193208,0.6656 9.362784,3.36434 11.756532,6.71868 h 0.032 c 0.2976,0.7945 0.629604,1.57568 0.981732,2.35192 l -0.032,0.032 c 0.684004,4.0648 1.05338,7.50666 -3.562696,13.06316 -3.773784,4.54312 -4.673508,6.5263 -4.673508,6.5263 0.887404,2.2468 3.0137,4.3731 3.0137,4.3731 0,0 2.130156,2.13022 4.376372,3.01364 0,0 1.979984,-0.8962 6.5219,-4.67256 5.557236,-4.61592 9.000156,-4.24198 13.064266,-3.56348 l 0.032,-0.032 c 0.77761,0.3528 1.55781,0.6856 2.35191,0.9818 l -0.006,0.04 c 3.35805,2.39068 6.05294,4.56332 6.71872,11.75646 0.5432,5.88068 1.30875,7.91936 1.30875,7.91936 2.21625,0.96046 5.22346,0.96188 5.22346,0.96188 0,0 3.01299,-8e-4 5.22539,-0.96516 0,0 0.7664,-2.0326 1.30804,-7.91512 0.6656,-7.19312 3.3653,-9.36368 6.71788,-11.75704 l -0.006,-0.04 c 0.7936,-0.2968 1.57502,-0.6304 2.3517,-0.9821 l 0.032,0.032 c 4.06462,-0.68408 7.50632,-1.05316 13.0634,3.56314 4.54214,3.7739 6.5251,4.6741 6.5251,4.6741 2.24718,-0.88828 4.37374,-3.01476 4.37374,-3.01476 0,0 2.13012,-2.13012 3.01378,-4.37662 0,0 -0.89628,-1.98014 -4.67346,-6.5223 -4.61652,-5.55674 -4.24236,-9.00012 -3.56292,-13.06354 l -0.032,-0.032 c 0.35288,-0.7776 0.6856,-1.5578 0.98196,-2.35152 h 0.048 c 2.39074,-3.35706 4.56362,-6.05235 11.75704,-6.71813 5.88116,-0.5432 7.92,-1.30909 7.92,-1.30909 0.96012,-2.21626 0.96038,-5.22401 0.96038,-5.22401 0,0 -5.2e-4,-3.01163 -0.9627,-5.2261 0,0 -2.03532,-0.7656 -7.91712,-1.30756 -7.19382,-0.66481 -9.36462,-3.36188 -11.75784,-6.71743 h -0.032 c -0.2968,-0.79361 -0.6273,-1.57556 -0.98206,-2.35158 l 0.032,-0.032 c -0.6824,-4.06333 -1.05358,-7.50633 3.5627,-13.06349 3.77396,-4.54213 4.67502,-6.52437 4.67502,-6.52437 -0.88668,-2.24632 -3.01512,-4.3748 -3.01512,-4.3748 0,0 -2.13024,-2.13005 -4.3767,-3.0137 z m -16.7027,61.13316 c -10.22856,10.22848 -26.81152,10.22864 -37.04012,1.6e-4 -10.228572,-10.2286 -10.228404,-26.81155 1.7e-4,-37.04012 10.22835,-10.22834 26.81129,-10.22849 37.03987,8e-5 10.22858,10.22849 10.22842,26.81152 8e-5,37.03988 z"
     style="display:inline;fill:#4d4d4d;fill-opacity:1;stroke:none;stroke-width:2.8;enable-background:new"
     id="path429"
     sodipodi:nodetypes="ccccccccccccccccccccccccccccccccccccccccccccccccccccccccccccccccccccccccccccscc" />
  <path
     id="path294"
     style="opacity:0.2;fill:#000000;stroke-width:9;stroke-linecap:round;stroke-linejoin:round"
     d="m 140,37 a 12,12 0 0 0 -12,12 12,12 0 0 0 12,12 12,12 0 0 0 12,-12 12,12 0 0 0 -12,-12 z m 36,0 a 12,12 0 0 0 -12,12 12,12 0 0 0 12,12 12,12 0 0 0 12,-12 12,12 0 0 0 -12,-12 z m 36,0 a 12,12 0 0 0 -12,12 12,12 0 0 0 12,12 12,12 0 0 0 12,-12 12,12 0 0 0 -12,-12 z" />
  <path
     id="path354"
     style="fill:#ffffff;stroke-width:12;stroke-linecap:round;stroke-linejoin:round"
     d="m 140,36 a 12,12 0 0 0 -12,12 12,12 0 0 0 12,12 12,12 0 0 0 12,-12 12,12 0 0 0 -12,-12 z m 36,0 a 12,12 0 0 0 -12,12 12,12 0 0 0 12,12 12,12 0 0 0 12,-12 12,12 0 0 0 -12,-12 z m 36,0 a 12,12 0 0 0 -12,12 12,12 0 0 0 12,12 12,12 0 0 0 12,-12 12,12 0 0 0 -12,-12 z" />
  <path
     id="rect899"
     style="fill:#000000;stroke:none;stroke-width:4;opacity:0.5"
     d="M 56,16 C 33.840066,16 16,33.840066 16,56 v 144 c 0,22.15994 17.840066,40 40,40 h 144 c 22.15994,0 40,-17.84006 40,-40 V 56 C 240,33.840066 222.15994,16 200,16 Z m 0,1 h 144 c 21.60598,0 39,17.394022 39,39 v 144 c 0,21.60598 -17.39402,39 -39,39 H 56 C 34.394022,239 17,221.60598 17,200 V 56 C 17,34.394022 34.394022,17 56,17 Z" />
  <path
     id="rect441"
     style="opacity:0.3;fill:#ffffff"
     d="m 17,199 v 1 c 0,21.60598 17.394022,39 39,39 h 144 c 21.60598,0 39,-17.39402 39,-39 v -1 c 0,21.60598 -17.39402,39 -39,39 H 56 C 34.394022,238 17,220.60598 17,199 Z" />
  <path
     id="rect443"
     style="opacity:0.3;fill:#ffffff"
     d="M 56,17 C 34.394022,17 17,34.394022 17,56 v 1 C 17,35.394022 34.394022,18 56,18 h 144 c 21.60598,0 39,17.394022 39,39 V 56 C 239,34.394022 221.60598,17 200,17 Z" />
</svg>
