<?xml version="1.0" encoding="UTF-8" standalone="no"?>
<!-- Created with Inkscape (http://www.inkscape.org/) -->

<svg
   width="256"
   height="256"
   viewBox="0 0 256 256.00001"
   version="1.1"
   id="svg5"
   sodipodi:docname="preferences-desktop-notification-bell.svg"
   inkscape:version="1.2.1 (9c6d41e410, 2022-07-14)"
   xmlns:inkscape="http://www.inkscape.org/namespaces/inkscape"
   xmlns:sodipodi="http://sodipodi.sourceforge.net/DTD/sodipodi-0.dtd"
   xmlns:xlink="http://www.w3.org/1999/xlink"
   xmlns="http://www.w3.org/2000/svg"
   xmlns:svg="http://www.w3.org/2000/svg">
  <sodipodi:namedview
     id="namedview7"
     pagecolor="#ffffff"
     bordercolor="#666666"
     borderopacity="1.0"
     inkscape:showpageshadow="2"
     inkscape:pageopacity="0.0"
     inkscape:pagecheckerboard="0"
     inkscape:deskcolor="#d1d1d1"
     inkscape:document-units="px"
     showgrid="false"
     inkscape:zoom="2.298097"
     inkscape:cx="20.886847"
     inkscape:cy="85.070386"
     inkscape:window-width="1920"
     inkscape:window-height="1009"
     inkscape:window-x="0"
     inkscape:window-y="0"
     inkscape:window-maximized="1"
     inkscape:current-layer="svg5"
     showguides="false" />
  <defs
     id="defs2">
    <linearGradient
       inkscape:collect="always"
       xlink:href="#linearGradient3551"
       id="linearGradient3525"
       x1="49.757847"
       y1="59.623318"
       x2="14.242153"
       y2="4.3766818"
       gradientUnits="userSpaceOnUse"
       gradientTransform="matrix(4.0545454,0,0,4.0545454,-1.745455,-1.745455)" />
    <linearGradient
       inkscape:collect="always"
       id="linearGradient3551">
      <stop
         style="stop-color:#ffa028;stop-opacity:1;"
         offset="0"
         id="stop3547" />
      <stop
         style="stop-color:#ffe183;stop-opacity:1;"
         offset="1"
         id="stop3549" />
    </linearGradient>
  </defs>
  <rect
     style="fill:url(#linearGradient3525);fill-opacity:1.0;stroke:none;stroke-width:4.05454"
     id="rect184"
     width="223"
     height="223"
     x="16.5"
     y="16.5"
     ry="39.5" />
  <path
     d="m 128.00064,55 c -5.54016,0 -9.99992,4.460193 -10,9.999984 -0.002,0.11048 -0.002,0.20504 -4.8e-4,0.312 -17.27992,4.481216 -30.000001,19.688015 -30.000001,39.687966 0,20.05243 0.008,60.00009 -17.812559,60.00009 -1.18712,2e-5 -2.18728,1.11536 -2.1876,2.49994 V 175 l 120,-4e-5 v -7.49998 c 0,-1.3849 -1.00544,-2.49808 -2.18752,-2.50002 C 167.92344,165 168,125.04886 168,105.00006 168,85.000015 155.28167,69.792592 137.99999,65.312512 c 0.004,-0.10768 0.002,-0.206 5.6e-4,-0.312 0,-5.540007 -4.4604,-9.99984 -10.00007,-9.999952 z M 110.8132,185.00004 c 3.46032,5.96892 9.79144,9.99998 17.18744,9.99998 7.39607,0 13.72711,-4.03104 17.18751,-10.00006 z"
     style="color:#000000;display:inline;overflow:visible;visibility:visible;opacity:0.2;fill:#000000;fill-opacity:1;fill-rule:nonzero;stroke:none;stroke-width:32;marker:none;enable-background:accumulate"
     id="path6816" />
  <path
     d="m 128.00064,54 c -5.54016,0 -9.99992,4.460201 -10,9.999984 -0.002,0.11048 -0.002,0.20504 -4.8e-4,0.312 -17.27992,4.481224 -29.999999,19.688033 -29.999999,39.687986 0,20.05241 0.008,60.00007 -17.812561,60.00007 -1.18712,2e-5 -2.18728,1.11538 -2.1876,2.49994 v 7.50004 l 120,-6e-5 v -7.49998 c 0,-1.3849 -1.00544,-2.49808 -2.18752,-2.50002 C 167.92344,164.00002 168,124.04886 168,104.00007 168,84.000017 155.28169,68.7926 138.00001,64.312512 c 0.004,-0.10768 0.002,-0.206 5.6e-4,-0.312 0,-5.540007 -4.4604,-9.99984 -10.00009,-9.999952 z M 110.8132,184.00004 c 3.46032,5.96892 9.79144,9.99998 17.18744,9.99998 7.39609,2e-5 13.72713,-4.03104 17.18753,-10.00004 z"
     style="color:#000000;display:inline;overflow:visible;visibility:visible;fill:#ffffff;fill-opacity:1;fill-rule:nonzero;stroke:none;stroke-width:32;marker:none;enable-background:accumulate"
     id="path6057"
     sodipodi:nodetypes="cccsscccscscccccscc" />
  <path
     id="rect899"
     style="fill:#000000;stroke:none;stroke-width:4;opacity:0.5"
     d="M 56,16 C 33.840066,16 16,33.840066 16,56 v 144 c 0,22.15994 17.840066,40 40,40 h 144 c 22.15994,0 40,-17.84006 40,-40 V 56 C 240,33.840066 222.15994,16 200,16 Z m 0,1 h 144 c 21.60598,0 39,17.394022 39,39 v 144 c 0,21.60598 -17.39402,39 -39,39 H 56 C 34.394022,239 17,221.60598 17,200 V 56 C 17,34.394022 34.394022,17 56,17 Z" />
  <path
     id="rect441"
     style="opacity:0.3;fill:#ffffff"
     d="m 17,199 v 1 c 0,21.60598 17.394022,39 39,39 h 144 c 21.60598,0 39,-17.39402 39,-39 v -1 c 0,21.60598 -17.39402,39 -39,39 H 56 C 34.394022,238 17,220.60598 17,199 Z" />
  <path
     id="rect443"
     style="opacity:0.3;fill:#ffffff"
     d="M 56,17 C 34.394022,17 17,34.394022 17,56 v 1 C 17,35.394022 34.394022,18 56,18 h 144 c 21.60598,0 39,17.394022 39,39 V 56 C 239,34.394022 221.60598,17 200,17 Z" />
</svg>
