<?xml version="1.0" encoding="UTF-8" standalone="no"?>
<!-- Created with Inkscape (http://www.inkscape.org/) -->

<svg
   width="256"
   height="256"
   viewBox="0 0 256 256.00001"
   version="1.1"
   id="svg5"
   sodipodi:docname="preferences-desktop-font.svg"
   inkscape:version="1.2.1 (9c6d41e410, 2022-07-14)"
   xmlns:inkscape="http://www.inkscape.org/namespaces/inkscape"
   xmlns:sodipodi="http://sodipodi.sourceforge.net/DTD/sodipodi-0.dtd"
   xmlns:xlink="http://www.w3.org/1999/xlink"
   xmlns="http://www.w3.org/2000/svg"
   xmlns:svg="http://www.w3.org/2000/svg">
  <sodipodi:namedview
     id="namedview7"
     pagecolor="#ffffff"
     bordercolor="#666666"
     borderopacity="1.0"
     inkscape:showpageshadow="2"
     inkscape:pageopacity="0.0"
     inkscape:pagecheckerboard="0"
     inkscape:deskcolor="#d1d1d1"
     inkscape:document-units="px"
     showgrid="false"
     inkscape:zoom="2.298097"
     inkscape:cx="137.50507"
     inkscape:cy="124.23322"
     inkscape:window-width="1920"
     inkscape:window-height="1009"
     inkscape:window-x="0"
     inkscape:window-y="0"
     inkscape:window-maximized="1"
     inkscape:current-layer="svg5" />
  <defs
     id="defs2">
    <linearGradient
       inkscape:collect="always"
       xlink:href="#linearGradient22024"
       id="linearGradient3525"
       x1="49.757851"
       y1="59.623322"
       x2="14.242154"
       y2="4.3766828"
       gradientUnits="userSpaceOnUse"
       gradientTransform="matrix(4.0545454,0,0,4.0545454,-1.7454618,-1.7454586)" />
    <linearGradient
       inkscape:collect="always"
       id="linearGradient22024">
      <stop
         style="stop-color:#dedede;stop-opacity:1;"
         offset="0"
         id="stop22020" />
      <stop
         style="stop-color:#f5f5f5;stop-opacity:1;"
         offset="1"
         id="stop22022" />
    </linearGradient>
  </defs>
  <rect
     style="fill:url(#linearGradient3525);fill-opacity:1.0;stroke:none;stroke-width:4.05454"
     id="rect184"
     width="223"
     height="223"
     x="16.5"
     y="16.5"
     ry="39.5" />
  <path
     d="M 85.784805,73 48,176.24414 h 13.40069 l 10.340042,-29.08996 h 41.498028 l 10.34004,29.08996 h 13.54775 L 99.332549,73 Z m 6.277548,16.68193 h 0.85478 l 16.397007,46.20389 H 75.665348 Z M 178.9095,97.8161 c -5.60898,0 -10.67724,0.895916 -15.19296,2.70219 -4.4682,1.75875 -8.05342,4.23249 -10.76284,7.41726 -2.70942,3.18476 -4.32086,6.84798 -4.84372,10.98342 h 12.83084 c 0.9033,-3.0897 2.85092,-5.58944 5.84556,-7.49078 2.99464,-1.94889 6.84742,-2.92279 11.55326,-2.92279 5.7516,0 10.09514,1.35306 13.04226,4.06249 2.9946,2.6619 4.49446,6.48868 4.49446,11.47974 v 6.27755 c -1.66368,0.0476 -4.74896,0.1944 -9.26468,0.432 -4.5157,0.23768 -8.4205,0.47006 -11.70034,0.70774 -8.41348,0.61794 -15.37754,2.59172 -20.89146,5.9191 -5.4664,3.27982 -8.19851,8.91682 -8.19851,16.9025 0,4.896 1.16347,9.14474 3.49264,12.75732 2.32916,3.56502 5.49241,6.29716 9.48525,8.1985 3.99284,1.85382 8.46638,2.81092 13.40988,2.85846 6.08434,-0.0484 11.04862,-1.31498 14.89886,-3.78678 3.89778,-2.5193 6.6299,-5.38898 8.19852,-8.6213 h 0.5698 v 10.55146 h 12.12312 v -51.04766 c 0.0476,-10.69511 -2.92612,-17.92674 -8.91536,-21.68191 C 193.0948,99.7119 186.3723,97.8161 178.9095,97.8161 Z m 16.96686,42.5642 v 7.76652 c 0,3.32736 -0.85326,6.44782 -2.56434,9.34738 -1.66366,2.89958 -4.11142,5.22654 -7.34372,6.98526 -3.2323,1.75878 -7.0591,2.63788 -11.47974,2.63788 -4.94352,0 -8.9171,-1.04254 -11.91174,-3.1342 -2.94708,-2.09148 -4.43772,-5.13396 -4.48526,-9.1268 0.0482,-4.0879 1.63296,-7.20836 4.7702,-9.34738 3.18476,-2.13902 7.68428,-3.39728 13.48342,-3.77756 l 10.11944,-0.70772 c 5.18122,-0.38028 8.3185,-0.59584 9.41174,-0.64338 z"
     style="font-size:8.21007px;line-height:1.25;font-family:Pretendard;-inkscape-font-specification:Pretendard;opacity:0.5;fill:#ffffff;stroke-width:3.65062"
     id="path1907"
     sodipodi:nodetypes="ccccccccccccccscscccscscsccsccccccccccscscsscccccc" />
  <path
     d="M 85.784805,72 48,175.24414 h 13.40069 l 10.340042,-29.08996 h 41.498028 l 10.34004,29.08996 h 13.54775 L 99.332549,72 Z m 6.277548,16.68193 h 0.85478 l 16.397007,46.20391 H 75.665348 Z M 178.9095,96.8161 c -5.60898,0 -10.67724,0.895916 -15.19296,2.702192 -4.4682,1.758748 -8.05342,4.232488 -10.76284,7.417258 -2.70942,3.18476 -4.32086,6.84798 -4.84372,10.98342 h 12.83084 c 0.9033,-3.0897 2.85092,-5.58944 5.84556,-7.49078 2.99464,-1.94889 6.84742,-2.92279 11.55326,-2.92279 5.7516,0 10.09514,1.35306 13.04226,4.06249 2.9946,2.6619 4.49446,6.48868 4.49446,11.47974 v 6.27757 c -1.66368,0.0476 -4.74896,0.1944 -9.26468,0.432 -4.5157,0.23768 -8.4205,0.47004 -11.70034,0.70772 -8.41348,0.61794 -15.37754,2.59172 -20.89146,5.9191 -5.4664,3.27982 -8.19851,8.91682 -8.19851,16.9025 0,4.896 1.16347,9.14476 3.49264,12.75732 2.32916,3.56502 5.49241,6.29716 9.48525,8.1985 3.99284,1.85382 8.46638,2.81092 13.40988,2.85846 6.08434,-0.0484 11.04862,-1.31498 14.89886,-3.78676 3.89778,-2.5193 6.6299,-5.389 8.19852,-8.62132 h 0.5698 v 10.55146 h 12.12312 v -51.04766 c 0.0476,-10.69511 -2.92612,-17.92674 -8.91536,-21.68191 C 193.0948,98.7119 186.3723,96.8161 178.9095,96.8161 Z m 16.96686,42.5642 v 7.76652 c 0,3.32736 -0.85326,6.44782 -2.56434,9.34738 -1.66366,2.89958 -4.11142,5.22654 -7.34372,6.98528 -3.2323,1.75876 -7.0591,2.63786 -11.47974,2.63786 -4.94352,0 -8.9171,-1.04254 -11.91174,-3.1342 -2.94708,-2.09146 -4.43772,-5.13396 -4.48526,-9.1268 0.0482,-4.0879 1.63296,-7.20836 4.7702,-9.34738 3.18476,-2.13902 7.68428,-3.39728 13.48342,-3.77756 l 10.11944,-0.70772 c 5.18122,-0.38028 8.3185,-0.59584 9.41174,-0.64338 z"
     style="font-size:8.21007px;line-height:1.25;font-family:Pretendard;-inkscape-font-specification:Pretendard;fill:#4d4d4d;stroke-width:3.65062"
     id="path1940" />
  <path
     id="rect899"
     style="fill:#000000;stroke:none;stroke-width:4;opacity:0.5"
     d="M 56,16 C 33.840066,16 16,33.840066 16,56 v 144 c 0,22.15994 17.840066,40 40,40 h 144 c 22.15994,0 40,-17.84006 40,-40 V 56 C 240,33.840066 222.15994,16 200,16 Z m 0,1 h 144 c 21.60598,0 39,17.394022 39,39 v 144 c 0,21.60598 -17.39402,39 -39,39 H 56 C 34.394022,239 17,221.60598 17,200 V 56 C 17,34.394022 34.394022,17 56,17 Z" />
  <path
     id="rect441"
     style="opacity:0.3;fill:#ffffff"
     d="m 17,199 v 1 c 0,21.60598 17.394022,39 39,39 h 144 c 21.60598,0 39,-17.39402 39,-39 v -1 c 0,21.60598 -17.39402,39 -39,39 H 56 C 34.394022,238 17,220.60598 17,199 Z" />
  <path
     id="rect443"
     style="opacity:0.3;fill:#ffffff"
     d="M 56,17 C 34.394022,17 17,34.394022 17,56 v 1 C 17,35.394022 34.394022,18 56,18 h 144 c 21.60598,0 39,17.394022 39,39 V 56 C 239,34.394022 221.60598,17 200,17 Z" />
</svg>
