<?xml version="1.0" encoding="UTF-8" standalone="no"?>
<!-- Created with Inkscape (http://www.inkscape.org/) -->

<svg
   width="256"
   height="256"
   viewBox="0 0 256 256.00001"
   version="1.1"
   id="svg5"
   sodipodi:docname="preferences-desktop-theme-global.svg"
   inkscape:version="1.2.1 (9c6d41e410, 2022-07-14)"
   xmlns:inkscape="http://www.inkscape.org/namespaces/inkscape"
   xmlns:sodipodi="http://sodipodi.sourceforge.net/DTD/sodipodi-0.dtd"
   xmlns:xlink="http://www.w3.org/1999/xlink"
   xmlns="http://www.w3.org/2000/svg"
   xmlns:svg="http://www.w3.org/2000/svg">
  <sodipodi:namedview
     id="namedview7"
     pagecolor="#ffffff"
     bordercolor="#666666"
     borderopacity="1.0"
     inkscape:showpageshadow="2"
     inkscape:pageopacity="0.0"
     inkscape:pagecheckerboard="0"
     inkscape:deskcolor="#d1d1d1"
     inkscape:document-units="px"
     showgrid="false"
     inkscape:zoom="1"
     inkscape:cx="87.5"
     inkscape:cy="243"
     inkscape:window-width="1920"
     inkscape:window-height="1002"
     inkscape:window-x="0"
     inkscape:window-y="0"
     inkscape:window-maximized="1"
     inkscape:current-layer="svg5" />
  <defs
     id="defs2">
    <radialGradient
       inkscape:collect="always"
       xlink:href="#linearGradient1603"
       id="radialGradient11414"
       cx="-1.675118"
       cy="11.872787"
       fx="-1.675118"
       fy="11.872787"
       r="27.5"
       gradientUnits="userSpaceOnUse"
       gradientTransform="matrix(-3.3402662,3.3793192,-4.0699009,-4.022869,67.741974,81.113838)" />
    <linearGradient
       inkscape:collect="always"
       id="linearGradient1603">
      <stop
         style="stop-color:#ff910c;stop-opacity:1;"
         offset="0"
         id="stop1599" />
      <stop
         style="stop-color:#ff910c;stop-opacity:0;"
         offset="1"
         id="stop1601" />
    </linearGradient>
    <radialGradient
       inkscape:collect="always"
       xlink:href="#linearGradient3954"
       id="radialGradient11404"
       cx="57.208611"
       cy="56.943909"
       fx="57.208611"
       fy="56.943909"
       r="27.5"
       gradientUnits="userSpaceOnUse"
       gradientTransform="matrix(3.9395054,-4.1337612,3.7495911,3.5733882,-208.68051,262.14024)" />
    <linearGradient
       inkscape:collect="always"
       id="linearGradient3954">
      <stop
         style="stop-color:#24c2f5;stop-opacity:1;"
         offset="0"
         id="stop3950" />
      <stop
         style="stop-color:#24c2f5;stop-opacity:0;"
         offset="1"
         id="stop3952" />
    </linearGradient>
    <radialGradient
       inkscape:collect="always"
       xlink:href="#linearGradient5569"
       id="radialGradient11396"
       cx="8.0326223"
       cy="59.247375"
       fx="8.0326223"
       fy="59.247375"
       r="27.5"
       gradientUnits="userSpaceOnUse"
       gradientTransform="matrix(3.727429,-3.7756113,4.4145178,4.3581819,-264.2185,2.7136178)" />
    <linearGradient
       inkscape:collect="always"
       id="linearGradient5569">
      <stop
         style="stop-color:#f5cc24;stop-opacity:1;"
         offset="0"
         id="stop5565" />
      <stop
         style="stop-color:#f5cc24;stop-opacity:0.00045133"
         offset="1"
         id="stop5567" />
    </linearGradient>
    <radialGradient
       inkscape:collect="always"
       xlink:href="#linearGradient7221"
       id="radialGradient11388"
       cx="32"
       cy="60"
       fx="32"
       fy="60"
       r="27.5"
       gradientUnits="userSpaceOnUse"
       gradientTransform="matrix(-4.1282644,0,0,-4.0545455,260.10445,257.74546)" />
    <linearGradient
       inkscape:collect="always"
       id="linearGradient7221">
      <stop
         style="stop-color:#ff2a2a;stop-opacity:1"
         offset="0"
         id="stop7217" />
      <stop
         style="stop-color:#ff2929;stop-opacity:0.00392157"
         offset="1"
         id="stop7219" />
    </linearGradient>
    <radialGradient
       inkscape:collect="always"
       xlink:href="#linearGradient10051"
       id="radialGradient11378"
       cx="6.5505433"
       cy="56.244072"
       fx="6.5505433"
       fy="56.244072"
       r="27.5"
       gradientUnits="userSpaceOnUse"
       gradientTransform="matrix(-2.9167186,-2.8126947,3.6705008,-3.8062503,43.848193,260.4177)" />
    <linearGradient
       inkscape:collect="always"
       id="linearGradient10051">
      <stop
         style="stop-color:#aa3ad4;stop-opacity:1"
         offset="0"
         id="stop10047" />
      <stop
         style="stop-color:#aa3ad4;stop-opacity:0"
         offset="1"
         id="stop10049" />
    </linearGradient>
    <radialGradient
       inkscape:collect="always"
       xlink:href="#linearGradient15132"
       id="radialGradient11244"
       cx="45.75"
       cy="51.798988"
       fx="45.75"
       fy="51.798988"
       r="27.5"
       gradientUnits="userSpaceOnUse"
       gradientTransform="matrix(-2.5066452e-7,4.1282644,-4.128264,-7.2122872e-7,228.31264,-60.868053)" />
    <linearGradient
       inkscape:collect="always"
       id="linearGradient15132">
      <stop
         style="stop-color:#f5e224;stop-opacity:1;"
         offset="0"
         id="stop15128" />
      <stop
         style="stop-color:#f5e224;stop-opacity:0;"
         offset="1"
         id="stop15130" />
    </linearGradient>
    <radialGradient
       inkscape:collect="always"
       xlink:href="#linearGradient12059"
       id="radialGradient11234"
       cx="32"
       cy="60"
       fx="32"
       fy="60"
       r="27.5"
       gradientUnits="userSpaceOnUse"
       gradientTransform="matrix(4.1282644,0,0,4.0545455,-4.1044552,-1.7454452)" />
    <linearGradient
       inkscape:collect="always"
       id="linearGradient12059">
      <stop
         style="stop-color:#47c12a;stop-opacity:1;"
         offset="0"
         id="stop12055" />
      <stop
         style="stop-color:#47c12a;stop-opacity:0;"
         offset="1"
         id="stop12057" />
    </linearGradient>
  </defs>
  <rect
     style="fill:#ffffff;fill-opacity:1;stroke:none;stroke-width:4.05454"
     id="rect184"
     width="223"
     height="223"
     x="16.5"
     y="16.5"
     ry="39.5" />
  <rect
     style="fill:url(#radialGradient11414);fill-opacity:1;stroke-width:4.05455;stroke-linejoin:round"
     id="rect10562"
     width="223"
     height="223"
     x="16.5"
     y="16.500006"
     ry="39.5" />
  <rect
     style="fill:url(#radialGradient11404);fill-opacity:1;stroke-width:4.05455;stroke-linejoin:round"
     id="rect10564"
     width="223"
     height="223"
     x="16.5"
     y="16.500006"
     ry="39.5" />
  <rect
     style="fill:url(#radialGradient11396);fill-opacity:1;stroke-width:4.05455;stroke-linejoin:round"
     id="rect10566"
     width="223"
     height="223"
     x="16.5"
     y="16.500006"
     ry="39.5" />
  <rect
     style="fill:url(#radialGradient11388);fill-opacity:1;stroke-width:4.05455;stroke-linejoin:round"
     id="rect10568"
     width="223"
     height="223"
     x="16.5"
     y="16.500006"
     ry="39.5" />
  <rect
     style="fill:url(#radialGradient11378);fill-opacity:1;stroke-width:4.05455;stroke-linejoin:round"
     id="rect10570"
     width="223"
     height="223"
     x="16.5"
     y="16.500006"
     ry="39.5" />
  <rect
     style="fill:url(#radialGradient11244);fill-opacity:1;stroke-width:4.05455;stroke-linejoin:round"
     id="rect10572"
     width="223"
     height="223"
     x="16.5"
     y="16.500006"
     ry="39.5"
     inkscape:label="rect10572" />
  <rect
     style="fill:url(#radialGradient11234);fill-opacity:1;stroke-width:4.05455;stroke-linejoin:round"
     id="rect10574"
     width="223"
     height="223"
     x="16.5"
     y="16.500006"
     ry="39.5" />
  <path
     d="m 173.07893,57.045296 c -7.22781,-0.9111 -26.08239,12.01278 -44.66449,30.602225 -8.28652,8.291519 -15.47817,16.485329 -20.98629,24.213899 6.4556,2.05677 11.65839,7.25613 13.71408,13.71408 7.72563,-5.50971 15.93804,-12.67002 24.22731,-20.9595 21.08211,-21.090869 34.37473,-41.984554 29.69151,-46.673404 -0.48138,-0.4848 -1.13809,-0.78903 -1.98212,-0.8973 z m -69.0793,63.936514 v 0.015 c -23.998338,6.43329 -6.000918,21.63006 -23.999628,32.0082 23.998348,0 35.999448,-12.01233 35.999448,-20.022 0,-3.99273 0.40699,-11.33538 -11.99982,-11.99982 z"
     style="color:#444444;opacity:0.3;fill:#000000;stroke-width:6.85701"
     id="path11335" />
  <path
     d="m 173.07893,56.045296 c -7.22781,-0.9111 -26.08239,12.01278 -44.66449,30.602225 -8.28652,8.291519 -15.47817,16.485329 -20.98629,24.213899 6.4556,2.05677 11.65839,7.25613 13.71408,13.71408 7.72563,-5.50971 15.93804,-12.67005 24.22731,-20.9595 21.08211,-21.090873 34.37473,-41.984554 29.69151,-46.673404 -0.48138,-0.4848 -1.13809,-0.78903 -1.98212,-0.8973 z m -69.0793,63.936514 v 0.015 c -23.998338,6.43329 -6.000918,21.63006 -23.999628,32.0082 23.998348,0 35.999448,-12.01233 35.999448,-20.02203 0,-3.9927 0.40699,-11.33535 -11.99982,-11.99979 z"
     style="color:#444444;fill:#ffffff;stroke-width:6.85701"
     id="path347"
     sodipodi:nodetypes="ccccccccccscc" />
  <rect
     style="opacity:0.2;fill:#ffffff;stroke-width:1.86665;stroke-linejoin:round"
     id="rect581"
     width="223"
     height="1"
     x="16.5"
     y="183" />
  <path
     id="rect348"
     style="fill:#3b3b3b;fill-opacity:1;stroke-width:4;stroke-linejoin:round"
     d="M 56,239.5 C 34.117022,239.5 16.5,221.88298 16.5,200 v -16 h 223 v 16 c 0,21.88298 -17.61702,39.5 -39.5,39.5 z" />
  <path
     id="rect899"
     style="fill:#000000;stroke:none;stroke-width:4;opacity:0.5"
     d="M 56,16 C 33.840066,16 16,33.840066 16,56 v 144 c 0,22.15994 17.840066,40 40,40 h 144 c 22.15994,0 40,-17.84006 40,-40 V 56 C 240,33.840066 222.15994,16 200,16 Z m 0,1 h 144 c 21.60598,0 39,17.394022 39,39 v 144 c 0,21.60598 -17.39402,39 -39,39 H 56 C 34.394022,239 17,221.60598 17,200 V 56 C 17,34.394022 34.394022,17 56,17 Z" />
  <path
     id="rect441"
     style="opacity:0.3;fill:#ffffff"
     d="m 17,199 v 1 c 0,21.60598 17.394022,39 39,39 h 144 c 21.60598,0 39,-17.39402 39,-39 v -1 c 0,21.60598 -17.39402,39 -39,39 H 56 C 34.394022,238 17,220.60598 17,199 Z" />
  <path
     id="rect443"
     style="opacity:0.3;fill:#ffffff"
     d="M 56,17 C 34.394022,17 17,34.394022 17,56 v 1 C 17,35.394022 34.394022,18 56,18 h 144 c 21.60598,0 39,17.394022 39,39 V 56 C 239,34.394022 221.60598,17 200,17 Z" />
</svg>
