<?xml version="1.0" encoding="UTF-8" standalone="no"?>
<!-- Created with Inkscape (http://www.inkscape.org/) -->

<svg
   width="256"
   height="256"
   viewBox="0 0 256 256.00001"
   version="1.1"
   id="svg5"
   sodipodi:docname="preferences-desktop-online-accounts.svg"
   inkscape:version="1.2.1 (9c6d41e410, 2022-07-14)"
   xmlns:inkscape="http://www.inkscape.org/namespaces/inkscape"
   xmlns:sodipodi="http://sodipodi.sourceforge.net/DTD/sodipodi-0.dtd"
   xmlns:xlink="http://www.w3.org/1999/xlink"
   xmlns="http://www.w3.org/2000/svg"
   xmlns:svg="http://www.w3.org/2000/svg">
  <sodipodi:namedview
     id="namedview7"
     pagecolor="#ffffff"
     bordercolor="#666666"
     borderopacity="1.0"
     inkscape:showpageshadow="2"
     inkscape:pageopacity="0.0"
     inkscape:pagecheckerboard="0"
     inkscape:deskcolor="#d1d1d1"
     inkscape:document-units="px"
     showgrid="false"
     inkscape:zoom="2"
     inkscape:cx="87"
     inkscape:cy="116"
     inkscape:window-width="1920"
     inkscape:window-height="1012"
     inkscape:window-x="0"
     inkscape:window-y="0"
     inkscape:window-maximized="1"
     inkscape:current-layer="svg5" />
  <defs
     id="defs2">
    <linearGradient
       inkscape:collect="always"
       xlink:href="#linearGradient21236"
       id="linearGradient3525"
       x1="32"
       y1="59.623318"
       x2="32"
       y2="4.3766818"
       gradientUnits="userSpaceOnUse"
       gradientTransform="matrix(4.0545454,0,0,4.0545454,-1.745455,-1.745455)" />
    <linearGradient
       inkscape:collect="always"
       id="linearGradient21236">
      <stop
         style="stop-color:#3689e6;stop-opacity:1;"
         offset="0"
         id="stop21232" />
      <stop
         style="stop-color:#5dcffc;stop-opacity:1;"
         offset="1"
         id="stop21234" />
    </linearGradient>
  </defs>
  <rect
     style="fill:url(#linearGradient3525);fill-opacity:1.0;stroke:none;stroke-width:4.05454"
     id="rect184"
     width="223"
     height="223"
     x="16.5"
     y="16.5"
     ry="39.5" />
  <path
     d="m 165.48264,161.47928 c -3.82232,0 -7.5013,-0.95558 -11.03696,-2.86672 -3.53564,-2.00674 -6.02016,-5.16016 -7.45352,-9.46026 h -0.143 c -0.86016,2.29338 -2.15026,4.20454 -3.87028,5.73348 -1.72004,1.52892 -3.6312,2.77118 -5.73348,3.72676 -2.00672,0.9556 -4.06122,1.6245 -6.1635,2.00672 -2.10228,0.38216 -4.01344,0.57328 -5.73348,0.57328 -9.17357,0 -16.14931,-2.58008 -20.92721,-7.74022 -4.777994,-5.1601 -7.166986,-12.08804 -7.166986,-20.78382 v -11.1803 c 0,-8.79134 2.293392,-15.7193 6.880166,-20.78387 4.68235,-5.160138 11.03696,-7.740202 19.06383,-7.740202 5.35126,0 9.60359,0.812248 12.757,2.436728 3.15342,1.624496 5.39902,3.58344 6.73684,5.876824 v -7.453536 h 13.4737 v 45.151176 c 0,4.01344 0.81224,6.97574 2.43672,8.8869 1.6245,1.8156 3.96568,2.7234 7.02352,2.7234 2.38896,0 4.49124,-0.43 6.30684,-1.29002 1.8156,-0.95562 3.34452,-2.43676 4.58678,-4.44344 1.24224,-2.10228 2.19782,-4.7779 2.86672,-8.02688 0.66888,-3.34453 1.00336,-7.40575 1.00336,-12.18365 V 123.065 c 0,-8.02687 -1.19448,-15.19373 -3.58342,-21.50056 C 174.5129,95.257568 171.07284,89.906304 166.48604,85.510632 161.89926,81.019408 156.26132,77.627096 149.57226,75.333704 142.8832,72.944752 135.19078,71.75028 126.495,71.75028 c -7.45353,0 -14.28593,1.194472 -20.4972,3.583424 -6.211272,2.388952 -11.56252,5.876824 -16.053752,10.463608 -4.395672,4.491224 -7.83576,10.033592 -10.320272,16.627098 -2.484504,6.5935 -3.72676,14.04703 -3.72676,22.36058 v 2.43674 c 0,8.88691 1.19448,16.77043 3.583432,23.65063 2.484504,6.78462 6.020152,12.47032 10.606944,17.0571 4.586776,4.68234 10.176918,8.21798 16.770428,10.60696 6.68907,2.4845 14.19037,3.72676 22.50392,3.72676 7.16686,0 14.28592,-0.81226 21.35722,-2.43674 7.0713,-1.52892 13.56924,-3.82232 19.49384,-6.88018 l 4.01344,10.03358 c -6.02016,3.24898 -12.80478,5.7335 -20.35386,7.45354 -7.45354,1.8156 -15.4804,2.7234 -24.08063,2.7234 -10.32026,0 -19.54161,-1.52892 -27.66405,-4.58678 C 94.005264,185.51214 87.125088,181.11646 81.48716,175.38298 75.849232,169.6495 71.501344,162.72154 68.443488,154.5991 65.481152,146.47666 64,137.39865 64,127.36506 v -2.72341 c 0,-9.17357 1.433376,-17.63046 4.300112,-25.37065 2.962304,-7.83576 7.11908,-14.5726 12.470328,-20.210528 5.446808,-5.637928 11.992528,-10.0336 19.63718,-13.187016 C 108.14782,62.624488 116.8436,61 126.49496,61 c 10.60694,0 19.97164,1.528928 28.09406,4.586792 8.12244,2.962296 14.95484,7.166848 20.4972,12.613656 5.54238,5.446808 9.74692,11.94476 12.61366,19.49384 C 190.56664,105.24337 192,113.55692 192,122.63493 v 1.86337 c 0,4.20455 -0.43,8.50466 -1.29002,12.90034 -0.76448,4.30012 -2.15008,8.26578 -4.15678,11.89698 -2.00672,3.53566 -4.73014,6.45018 -8.17022,8.74356 -3.34454,2.2934 -7.64464,3.4401 -12.90034,3.4401 z m -54.03807,-31.10414 c 0,5.44681 1.19447,9.7947 3.58342,13.04366 2.38895,3.15342 6.1635,4.73014 11.32363,4.73014 2.00672,0 3.91788,-0.23888 5.73348,-0.71672 1.91116,-0.47784 3.58342,-1.29006 5.0168,-2.43674 1.52892,-1.1467 2.7234,-2.67564 3.58342,-4.5868 0.86004,-1.91114 1.29004,-4.30009 1.29004,-7.16684 v -12.61366 c 0,-1.91114 -0.28664,-3.72675 -0.86004,-5.4468 -0.47784,-1.81561 -1.33784,-3.39232 -2.58006,-4.73012 -1.24226,-1.43338 -2.86674,-2.5323 -4.87346,-3.29676 -2.00671,-0.86001 -4.44344,-1.29002 -7.31018,-1.29002 -4.68235,0 -8.36134,1.29002 -11.03696,3.8701 -2.58006,2.58006 -3.87009,7.2624 -3.87009,14.04702 z"
     style="font-weight:bold;font-size:4.74057px;line-height:1.25;font-family:'나눔스퀘어';-inkscape-font-specification:'나눔스퀘어 Bold';opacity:0.2;fill:#000000;stroke-width:3.58344"
     id="path1620" />
  <path
     d="m 165.48264,160.47928 c -3.82232,0 -7.5013,-0.95558 -11.03696,-2.86672 -3.53564,-2.00674 -6.02016,-5.16016 -7.45352,-9.46028 h -0.143 c -0.86016,2.2934 -2.15026,4.20456 -3.87028,5.73348 -1.72004,1.52894 -3.6312,2.7712 -5.73348,3.72678 -2.00672,0.9556 -4.06122,1.6245 -6.1635,2.0067 -2.10228,0.38216 -4.01344,0.57328 -5.73348,0.57328 -9.17357,0 -16.14931,-2.58006 -20.92721,-7.7402 -4.777994,-5.1601 -7.166986,-12.08804 -7.166986,-20.78382 v -11.1803 c 0,-8.79134 2.293392,-15.7193 6.880166,-20.783872 4.68235,-5.160136 11.03696,-7.7402 19.06383,-7.7402 5.35126,0 9.60359,0.812248 12.757,2.436728 3.15342,1.624496 5.39902,3.58344 6.73684,5.876824 v -7.453536 h 13.4737 v 45.151176 c 0,4.01344 0.81224,6.97574 2.43672,8.8869 1.6245,1.8156 3.96568,2.7234 7.02352,2.7234 2.38896,0 4.49124,-0.43 6.30684,-1.29002 1.8156,-0.95562 3.34452,-2.43676 4.58678,-4.44344 1.24224,-2.10228 2.19782,-4.77791 2.86672,-8.02688 0.66888,-3.34454 1.00336,-7.40575 1.00336,-12.18365 V 122.065 c 0,-8.02687 -1.19448,-15.19373 -3.58342,-21.50056 C 174.5129,94.257568 171.07284,88.906304 166.48604,84.510632 161.89926,80.019408 156.26132,76.627096 149.57226,74.333704 142.8832,71.944752 135.19078,70.75028 126.495,70.75028 c -7.45353,0 -14.28593,1.194472 -20.4972,3.583424 -6.211272,2.388952 -11.56252,5.876824 -16.053752,10.463608 -4.395672,4.491224 -7.83576,10.033592 -10.320272,16.627098 -2.484504,6.5935 -3.72676,14.04703 -3.72676,22.36058 v 2.43674 c 0,8.8869 1.19448,16.77043 3.583432,23.65063 2.484504,6.7846 6.020152,12.4703 10.606944,17.05708 4.586776,4.68236 10.176918,8.218 16.770428,10.60696 6.68907,2.4845 14.19037,3.72678 22.50392,3.72678 7.16686,0 14.28592,-0.81228 21.35722,-2.43674 7.0713,-1.52894 13.56924,-3.82232 19.49384,-6.8802 l 4.01344,10.03358 c -6.02016,3.249 -12.80478,5.7335 -20.35386,7.45356 -7.45354,1.81558 -15.4804,2.72338 -24.08063,2.72338 -10.32026,0 -19.54161,-1.5289 -27.66405,-4.58676 C 94.005264,184.51214 87.125088,180.11644 81.48716,174.38298 75.849192,168.6495 71.501304,161.72154 68.443448,153.5991 65.481152,145.47666 64,136.39865 64,126.36506 v -2.72341 c 0,-9.17357 1.433376,-17.63046 4.300112,-25.37065 2.962304,-7.83576 7.11908,-14.5726 12.470328,-20.210528 5.446808,-5.637928 11.992528,-10.0336 19.63718,-13.187016 C 108.14782,61.624488 116.8436,60 126.49496,60 c 10.60694,0 19.97164,1.528928 28.09406,4.586792 8.12244,2.962296 14.95484,7.166848 20.4972,12.613656 5.54238,5.446808 9.74692,11.94476 12.61366,19.49384 C 190.56664,104.24337 192,112.55692 192,121.63493 v 1.86337 c 0,4.20455 -0.43,8.50466 -1.29002,12.90033 -0.76448,4.30013 -2.15008,8.26579 -4.15678,11.89699 -2.00672,3.53566 -4.73014,6.45018 -8.17022,8.74356 -3.34454,2.2934 -7.64464,3.4401 -12.90034,3.4401 z m -54.03807,-31.10414 c 0,5.4468 1.19447,9.79469 3.58342,13.04366 2.38895,3.15342 6.1635,4.73012 11.32363,4.73012 2.00672,0 3.91788,-0.23888 5.73348,-0.71672 1.91116,-0.47784 3.58342,-1.29004 5.0168,-2.43672 1.52892,-1.1467 2.7234,-2.67564 3.58342,-4.5868 0.86004,-1.91114 1.29004,-4.3001 1.29004,-7.16685 v -12.61365 c 0,-1.91114 -0.28664,-3.72675 -0.86004,-5.4468 -0.47784,-1.81561 -1.33784,-3.39232 -2.58006,-4.73012 -1.24226,-1.43338 -2.86674,-2.5323 -4.87346,-3.29676 -2.00671,-0.86001 -4.44344,-1.29002 -7.31018,-1.29002 -4.68235,0 -8.36134,1.29002 -11.03696,3.8701 -2.58006,2.58006 -3.87009,7.2624 -3.87009,14.04702 z"
     style="font-weight:bold;font-size:4.74057px;line-height:1.25;font-family:'나눔스퀘어';-inkscape-font-specification:'나눔스퀘어 Bold';fill:#ffffff;stroke-width:3.58344"
     id="path6805"
     sodipodi:nodetypes="scccscsscsscsscccscscccsscccsscssscccsccccssscsscccscsssscccsscsccssscccscss" />
  <path
     id="rect899"
     style="fill:#000000;stroke:none;stroke-width:4;opacity:0.5"
     d="M 56,16 C 33.840066,16 16,33.840066 16,56 v 144 c 0,22.15994 17.840066,40 40,40 h 144 c 22.15994,0 40,-17.84006 40,-40 V 56 C 240,33.840066 222.15994,16 200,16 Z m 0,1 h 144 c 21.60598,0 39,17.394022 39,39 v 144 c 0,21.60598 -17.39402,39 -39,39 H 56 C 34.394022,239 17,221.60598 17,200 V 56 C 17,34.394022 34.394022,17 56,17 Z" />
  <path
     id="rect441"
     style="opacity:0.3;fill:#ffffff"
     d="m 17,199 v 1 c 0,21.60598 17.394022,39 39,39 h 144 c 21.60598,0 39,-17.39402 39,-39 v -1 c 0,21.60598 -17.39402,39 -39,39 H 56 C 34.394022,238 17,220.60598 17,199 Z" />
  <path
     id="rect443"
     style="opacity:0.3;fill:#ffffff"
     d="M 56,17 C 34.394022,17 17,34.394022 17,56 v 1 C 17,35.394022 34.394022,18 56,18 h 144 c 21.60598,0 39,17.394022 39,39 V 56 C 239,34.394022 221.60598,17 200,17 Z" />
</svg>
