<?xml version="1.0" encoding="UTF-8" standalone="no"?>
<!-- Created with Inkscape (http://www.inkscape.org/) -->

<svg
   width="256"
   height="256"
   viewBox="0 0 256 256.00001"
   version="1.1"
   id="svg5"
   sodipodi:docname="shotwell.svg"
   inkscape:version="1.3.2 (091e20ef0f, 2023-11-25, custom)"
   xmlns:inkscape="http://www.inkscape.org/namespaces/inkscape"
   xmlns:sodipodi="http://sodipodi.sourceforge.net/DTD/sodipodi-0.dtd"
   xmlns:xlink="http://www.w3.org/1999/xlink"
   xmlns="http://www.w3.org/2000/svg"
   xmlns:svg="http://www.w3.org/2000/svg">
  <sodipodi:namedview
     id="namedview7"
     pagecolor="#ffffff"
     bordercolor="#666666"
     borderopacity="1.0"
     inkscape:showpageshadow="2"
     inkscape:pageopacity="0.0"
     inkscape:pagecheckerboard="0"
     inkscape:deskcolor="#d1d1d1"
     inkscape:document-units="px"
     showgrid="false"
     inkscape:zoom="3.15625"
     inkscape:cx="128"
     inkscape:cy="128"
     inkscape:window-width="1920"
     inkscape:window-height="1011"
     inkscape:window-x="0"
     inkscape:window-y="0"
     inkscape:window-maximized="1"
     inkscape:current-layer="svg5" />
  <defs
     id="defs2">
    <linearGradient
       inkscape:collect="always"
       xlink:href="#linearGradient4014"
       id="linearGradient3525"
       x1="32"
       y1="46.864857"
       x2="32"
       y2="4.2522521"
       gradientUnits="userSpaceOnUse"
       gradientTransform="matrix(4.0545454,0,0,4.0545454,-1.7454542,-1.7454542)" />
    <linearGradient
       inkscape:collect="always"
       id="linearGradient4014">
      <stop
         style="stop-color:#2869b4;stop-opacity:1;"
         offset="0"
         id="stop4010" />
      <stop
         style="stop-color:#95caff;stop-opacity:1;"
         offset="1"
         id="stop4012" />
    </linearGradient>
  </defs>
  <rect
     style="fill:url(#linearGradient3525);fill-opacity:1;stroke:none;stroke-width:4.05454"
     id="rect184"
     width="223"
     height="223"
     x="16.5"
     y="16.5"
     ry="39.5" />
  <rect
     style="opacity:0.2;fill:#ffffff;stroke-width:1.86246;stroke-linejoin:round"
     id="rect581"
     width="222"
     height="1"
     x="17"
     y="183" />
  <path
     id="path2539"
     style="opacity:0.5;fill:#ffffff;stroke-width:26.6668;stroke-linecap:round;stroke-linejoin:round"
     d="m 104,144 a 40,40 0 0 0 -40,40 h 80 a 40,40 0 0 0 -40,-40 z" />
  <path
     id="rect348"
     style="fill:#3b3b3b;fill-opacity:1;stroke-width:4;stroke-linejoin:round"
     d="M 80 60 L 112 91.375 L 120 123.375 L 72 100 L 48 116 L 56 116 L 72 108 L 120 147.375 L 120 184 L 16.5 184 L 16.5 200 C 16.5 221.88298 34.117022 239.5 56 239.5 L 200 239.5 C 221.88298 239.5 239.5 221.88298 239.5 200 L 239.5 184 L 144 184 L 144 147.375 L 184 116 L 192 116 L 200 108 L 184 108 L 144 123.375 L 120 83.375 L 80 60 z " />
  <path
     id="path7424"
     style="opacity:0.2;fill:#ffffff;fill-opacity:1;stroke-width:8"
     d="M 80 60 L 82.40625 62.40625 L 120 84.375 L 144 124.375 L 184 109 L 199 109 L 200 108 L 184 108 L 144 123.375 L 120 83.375 L 80 60 z M 72 100 L 48 116 L 49.5 116 L 72 101 L 120 124.375 L 119.71484 123.23633 L 72 100 z " />
  <path
     id="rect899"
     style="fill:#000000;stroke:none;stroke-width:4;opacity:0.5"
     d="M 56,16 C 33.840066,16 16,33.840066 16,56 v 144 c 0,22.15994 17.840066,40 40,40 h 144 c 22.15994,0 40,-17.84006 40,-40 V 56 C 240,33.840066 222.15994,16 200,16 Z m 0,1 h 144 c 21.60598,0 39,17.394022 39,39 v 144 c 0,21.60598 -17.39402,39 -39,39 H 56 C 34.394022,239 17,221.60598 17,200 V 56 C 17,34.394022 34.394022,17 56,17 Z" />
  <path
     id="rect441"
     style="opacity:0.3;fill:#ffffff"
     d="m 17,199 v 1 c 0,21.60598 17.394022,39 39,39 h 144 c 21.60598,0 39,-17.39402 39,-39 v -1 c 0,21.60598 -17.39402,39 -39,39 H 56 C 34.394022,238 17,220.60598 17,199 Z" />
  <path
     id="rect443"
     style="opacity:0.3;fill:#ffffff"
     d="M 56,17 C 34.394022,17 17,34.394022 17,56 v 1 C 17,35.394022 34.394022,18 56,18 h 144 c 21.60598,0 39,17.394022 39,39 V 56 C 239,34.394022 221.60598,17 200,17 Z" />
</svg>
