<?xml version="1.0" encoding="UTF-8" standalone="no"?>
<!-- Created with Inkscape (http://www.inkscape.org/) -->

<svg
   width="256"
   height="256"
   viewBox="0 0 256 256.00001"
   version="1.1"
   id="svg5"
   sodipodi:docname="skype.svg"
   inkscape:version="1.2.1 (9c6d41e410, 2022-07-14)"
   xmlns:inkscape="http://www.inkscape.org/namespaces/inkscape"
   xmlns:sodipodi="http://sodipodi.sourceforge.net/DTD/sodipodi-0.dtd"
   xmlns:xlink="http://www.w3.org/1999/xlink"
   xmlns="http://www.w3.org/2000/svg"
   xmlns:svg="http://www.w3.org/2000/svg">
  <sodipodi:namedview
     id="namedview7"
     pagecolor="#ffffff"
     bordercolor="#666666"
     borderopacity="1.0"
     inkscape:showpageshadow="2"
     inkscape:pageopacity="0.0"
     inkscape:pagecheckerboard="0"
     inkscape:deskcolor="#d1d1d1"
     inkscape:document-units="px"
     showgrid="false"
     inkscape:zoom="2.298097"
     inkscape:cx="21.104418"
     inkscape:cy="85.505529"
     inkscape:window-width="1920"
     inkscape:window-height="1007"
     inkscape:window-x="0"
     inkscape:window-y="0"
     inkscape:window-maximized="1"
     inkscape:current-layer="svg5" />
  <defs
     id="defs2">
    <linearGradient
       inkscape:collect="always"
       xlink:href="#linearGradient3632"
       id="linearGradient3525"
       x1="49.757847"
       y1="59.623318"
       x2="14.242153"
       y2="4.3766818"
       gradientUnits="userSpaceOnUse"
       gradientTransform="matrix(4.0545454,0,0,4.0545454,-1.745455,-1.745455)" />
    <linearGradient
       inkscape:collect="always"
       id="linearGradient3632">
      <stop
         style="stop-color:#37a3ff;stop-opacity:1;"
         offset="0"
         id="stop3628" />
      <stop
         style="stop-color:#8adeff;stop-opacity:1;"
         offset="1"
         id="stop3630" />
    </linearGradient>
  </defs>
  <rect
     style="fill:url(#linearGradient3525);fill-opacity:1.0;stroke:none;stroke-width:4.05454"
     id="rect184"
     width="223"
     height="223"
     x="16.5"
     y="16.5"
     ry="39.5" />
  <path
     d="m 96,49 c -26.50966,0 -48,21.490328 -48,48.000002 0.004,9.554738 2.86108,18.890658 8.20312,26.812498 -0.13,1.72616 -0.1978,3.45646 -0.20312,5.1875 0,39.7645 32.2355,72 72,72 1.73106,-0.006 3.46134,-0.0728 5.1875,-0.20312 7.92186,5.34204 17.25776,8.1983 26.8125,8.20312 26.50966,0 48,-21.49034 48,-48 -0.002,-9.56008 -2.85812,-18.90186 -8.20314,-26.82812 0.1296,-1.72098 0.1974,-3.44604 0.20312,-5.17188 0,-39.764498 -32.23548,-72 -72,-72 -1.72582,0.0056 -3.4509,0.0736 -5.17186,0.20312 C 114.90184,51.858112 105.56006,49.001712 95.99998,49 Z m 34.125,32.000002 c 3.69722,-0.036 7.39826,0.25728 11.04686,0.875 2.60994,0.41616 5.1773,1.10752 7.65626,2.04688 2.27728,0.7956 4.32706,2.14062 5.98438,3.9375 1.22154,1.47794 1.87286,3.37052 1.84374,5.3125 0.0888,2.03722 -0.6036,4.0261 -1.9375,5.53124 -1.26514,1.389138 -3.0436,2.145038 -4.89062,2.093758 -1.2569,-0.01 -2.5002,-0.28288 -3.64062,-0.828138 -2.80788,-1.29638 -5.7004,-2.40204 -8.65626,-3.28124 -2.72166,-0.73968 -5.5294,-1.09366 -8.34374,-1.0625 -3.66528,-0.1404 -7.28574,0.8148 -10.4375,2.74998 -2.7115,1.698758 -4.31124,4.793098 -4.17188,8.062498 -0.02,2.10566 0.74904,4.1309 2.15626,5.65624 1.67344,1.78988 3.66076,3.24212 5.84376,4.29688 2.44634,1.25172 6.08734,2.91438 10.9375,4.98438 0.53768,0.1754 1.056,0.40064 1.56248,0.65624 4.73298,1.93088 9.28538,4.326 13.5625,7.17188 3.37878,2.27268 6.21364,5.30034 8.32812,8.84374 2.08098,3.7225 3.12792,7.97008 3.01564,12.26564 0.1748,5.26156 -1.28736,10.43818 -4.17186,14.78124 -2.93702,4.11144 -6.99058,7.21368 -11.65628,8.9219 -5.62204,2.07108 -11.5627,3.0776 -17.53124,2.95312 -8.20218,0.29768 -16.37514,-1.2911 -23.90626,-4.65626 -1.92722,-0.8843 -3.61518,-2.24502 -4.92188,-3.95312 -1.0831,-1.56434 -1.6386,-3.45316 -1.59374,-5.375 -0.1094,-2.05196 0.65136,-4.0512 2.09374,-5.46874 1.49604,-1.35162 3.43492,-2.05344 5.42188,-1.96874 2.21146,0.032 4.39246,0.6136 6.34376,1.68752 2.42454,1.25176 4.33262,2.18744 5.73436,2.8125 1.60124,0.69192 3.25756,1.22512 4.95314,1.60938 2.09016,0.47368 4.2351,0.70992 6.375,0.68752 3.78348,0.27784 7.54104,-0.768 10.6875,-2.95316 2.3901,-1.92924 3.73576,-4.91898 3.60936,-8.04688 0.004,-2.18844 -0.8112,-4.29752 -2.26562,-5.89064 -1.92198,-2.04258 -4.1634,-3.73024 -6.64062,-4.98436 -2.92758,-1.59592 -7.04902,-3.5415 -12.35938,-5.82814 -4.75082,-1.9526 -9.29872,-4.39284 -13.57812,-7.28126 -3.22896,-2.19432 -5.92632,-5.11734 -7.875,-8.56248 -1.88272,-3.63778 -2.80328,-7.72172 -2.6875,-11.84376 -0.1434,-5.2315 1.58604,-10.329578 4.85938,-14.328118 3.40102,-4.0154 7.77466,-7.04378 12.67186,-8.75 5.32742,-1.94062 10.92844,-2.91034 16.57814,-2.875 z"
     style="opacity:0.2;fill:#000000;fill-opacity:1;stroke-width:16;stroke-linejoin:round"
     id="path691" />
  <path
     id="path14352"
     style="fill:#ffffff;fill-opacity:1;stroke-width:16;stroke-linejoin:round"
     d="m 96,48 c -26.50966,0 -48,21.490326 -48,48 0.004,9.55474 2.86108,18.89064 8.20312,26.8125 -0.13,1.72616 -0.1978,3.45644 -0.20312,5.1875 0,39.7645 32.2355,72 72,72 1.73106,-0.006 3.46134,-0.0728 5.1875,-0.20314 7.92186,5.34206 17.25776,8.19832 26.8125,8.20314 26.50966,0 48,-21.49034 48,-48 -0.002,-9.56008 -2.85812,-18.90186 -8.20312,-26.82814 0.1296,-1.72096 0.1974,-3.44604 0.20312,-5.17186 0,-39.7645 -32.2355,-72.000002 -72,-72.000002 -1.72584,0.0056 -3.4509,0.0736 -5.17188,0.20312 C 114.90186,50.85811 105.56006,48.00171 96,48 Z m 34.125,31.999998 c 3.69722,-0.036 7.39826,0.257282 11.04686,0.875002 2.60994,0.41616 5.1773,1.10752 7.65626,2.04688 2.27728,0.7956 4.32706,2.14064 5.98438,3.9375 1.22154,1.47794 1.87286,3.37052 1.84374,5.3125 0.0888,2.03722 -0.6036,4.0261 -1.9375,5.53124 -1.26514,1.38914 -3.0436,2.14504 -4.89062,2.09376 -1.2569,-0.01 -2.5002,-0.28288 -3.64062,-0.82814 -2.80788,-1.29638 -5.7004,-2.40204 -8.65626,-3.28124 -2.72166,-0.73968 -5.5294,-1.09366 -8.34374,-1.0625 -3.66528,-0.1404 -7.28574,0.8148 -10.4375,2.74998 -2.7115,1.69876 -4.31124,4.7931 -4.17188,8.0625 -0.02,2.10566 0.74904,4.1309 2.15626,5.65624 1.67344,1.78988 3.66076,3.24212 5.84376,4.29688 2.44634,1.25172 6.08734,2.91438 10.9375,4.98438 0.53768,0.1754 1.056,0.40064 1.56248,0.65624 4.73298,1.93088 9.28538,4.326 13.5625,7.17188 3.37878,2.27268 6.21364,5.30032 8.32812,8.84374 2.08098,3.72248 3.12792,7.97008 3.01564,12.26562 0.1748,5.26158 -1.28736,10.4382 -4.17186,14.78126 -2.93702,4.11144 -6.99058,7.21368 -11.65628,8.92188 -5.62204,2.07108 -11.5627,3.07762 -17.53124,2.95314 -8.20218,0.29768 -16.37514,-1.2911 -23.90626,-4.65626 -1.92722,-0.88432 -3.61518,-2.24504 -4.92188,-3.95312 -1.0831,-1.56434 -1.6386,-3.45318 -1.59374,-5.375 -0.1094,-2.05198 0.65136,-4.0512 2.09374,-5.46874 1.49604,-1.35162 3.43492,-2.05344 5.42188,-1.96874 2.21146,0.032 4.39246,0.6136 6.34376,1.6875 2.42454,1.25178 4.33262,2.18744 5.73436,2.81252 1.60124,0.69192 3.25756,1.2251 4.95314,1.60938 2.09016,0.47368 4.2351,0.70992 6.375,0.68752 3.78348,0.27784 7.54104,-0.768 10.6875,-2.95318 2.3901,-1.92922 3.73576,-4.91898 3.60936,-8.04688 0.004,-2.18842 -0.8112,-4.2975 -2.26562,-5.89062 -1.92198,-2.04258 -4.1634,-3.73024 -6.64062,-4.98438 -2.92758,-1.5959 -7.04902,-3.54148 -12.35938,-5.82812 -4.75082,-1.9526 -9.29872,-4.39284 -13.57812,-7.28124 -3.22896,-2.19434 -5.92632,-5.11736 -7.875,-8.5625 -1.88272,-3.63778 -2.80328,-7.72172 -2.6875,-11.84376 -0.1434,-5.2315 1.58604,-10.32958 4.85938,-14.32812 3.40102,-4.0154 7.77466,-7.04378 12.67186,-8.75 5.32742,-1.94062 10.92844,-2.910346 16.57814,-2.875002 z"
     sodipodi:nodetypes="scccccccccccsscccccccccccccccccccccccccccccscccccccccccc" />
  <path
     id="rect899"
     style="fill:#000000;stroke:none;stroke-width:4;opacity:0.5"
     d="M 56,16 C 33.840066,16 16,33.840066 16,56 v 144 c 0,22.15994 17.840066,40 40,40 h 144 c 22.15994,0 40,-17.84006 40,-40 V 56 C 240,33.840066 222.15994,16 200,16 Z m 0,1 h 144 c 21.60598,0 39,17.394022 39,39 v 144 c 0,21.60598 -17.39402,39 -39,39 H 56 C 34.394022,239 17,221.60598 17,200 V 56 C 17,34.394022 34.394022,17 56,17 Z" />
  <path
     id="rect441"
     style="opacity:0.3;fill:#ffffff"
     d="m 17,199 v 1 c 0,21.60598 17.394022,39 39,39 h 144 c 21.60598,0 39,-17.39402 39,-39 v -1 c 0,21.60598 -17.39402,39 -39,39 H 56 C 34.394022,238 17,220.60598 17,199 Z" />
  <path
     id="rect443"
     style="opacity:0.3;fill:#ffffff"
     d="M 56,17 C 34.394022,17 17,34.394022 17,56 v 1 C 17,35.394022 34.394022,18 56,18 h 144 c 21.60598,0 39,17.394022 39,39 V 56 C 239,34.394022 221.60598,17 200,17 Z" />
</svg>
