<?xml version="1.0" encoding="UTF-8" standalone="no"?>
<!-- Created with Inkscape (http://www.inkscape.org/) -->

<svg
   width="256"
   height="256"
   viewBox="0 0 256 256.00001"
   version="1.1"
   id="svg5"
   sodipodi:docname="system-error.svg"
   inkscape:version="1.2.1 (9c6d41e410, 2022-07-14)"
   xmlns:inkscape="http://www.inkscape.org/namespaces/inkscape"
   xmlns:sodipodi="http://sodipodi.sourceforge.net/DTD/sodipodi-0.dtd"
   xmlns:xlink="http://www.w3.org/1999/xlink"
   xmlns="http://www.w3.org/2000/svg"
   xmlns:svg="http://www.w3.org/2000/svg">
  <sodipodi:namedview
     id="namedview7"
     pagecolor="#ffffff"
     bordercolor="#666666"
     borderopacity="1.0"
     inkscape:showpageshadow="2"
     inkscape:pageopacity="0.0"
     inkscape:pagecheckerboard="0"
     inkscape:deskcolor="#d1d1d1"
     inkscape:document-units="px"
     showgrid="false"
     inkscape:zoom="2.298097"
     inkscape:cx="20.451704"
     inkscape:cy="85.070386"
     inkscape:window-width="1920"
     inkscape:window-height="1007"
     inkscape:window-x="0"
     inkscape:window-y="0"
     inkscape:window-maximized="1"
     inkscape:current-layer="svg5" />
  <defs
     id="defs2">
    <linearGradient
       inkscape:collect="always"
       xlink:href="#linearGradient5312"
       id="linearGradient3525"
       x1="49.757847"
       y1="59.623318"
       x2="14.242153"
       y2="4.3766818"
       gradientUnits="userSpaceOnUse"
       gradientTransform="matrix(4.0545454,0,0,4.0545454,-1.745455,-1.745455)" />
    <linearGradient
       inkscape:collect="always"
       id="linearGradient5312">
      <stop
         style="stop-color:#c72222;stop-opacity:1;"
         offset="0"
         id="stop5308" />
      <stop
         style="stop-color:#cf5b5b;stop-opacity:1;"
         offset="1"
         id="stop5310" />
    </linearGradient>
  </defs>
  <rect
     style="fill:url(#linearGradient3525);fill-opacity:1.0;stroke:none;stroke-width:4.05454"
     id="rect184"
     width="223"
     height="223"
     x="16.5"
     y="16.5"
     ry="39.5" />
  <path
     d="M 118.41982,105.46535 V 57 h 16.75345 v 48.46535 l -1.99438,52.25485 h -12.96401 z m 8.37674,95.5347 c -3.59006,0 -6.64822,-1.19676 -9.17452,-3.59028 -2.39336,-2.52614 -3.59004,-5.58422 -3.59004,-9.17426 0,-3.4572 1.19668,-6.38247 3.59004,-8.77577 2.5263,-2.52634 5.58446,-3.7895 9.17452,-3.7895 3.45706,0 6.38227,1.26312 8.77561,3.7895 2.52632,2.39332 3.78948,5.31857 3.78948,8.77577 0,3.59004 -1.26316,6.64814 -3.78948,9.17426 -2.39334,2.39352 -5.31855,3.59028 -8.77561,3.59028 z"
     style="font-size:30.4709px;line-height:1.25;font-family:'Google Sans';-inkscape-font-specification:'Google Sans';opacity:0.2;fill:#000000;fill-opacity:1;stroke-width:4.98616"
     id="path3173" />
  <path
     d="M 118.41982,104.46535 V 56 h 16.75345 v 48.46535 l -1.99438,52.25488 h -12.96401 z m 8.37674,95.53469 c -3.59006,0 -6.64822,-1.19674 -9.17452,-3.59024 -2.39336,-2.52614 -3.59004,-5.58422 -3.59004,-9.17426 0,-3.45722 1.19668,-6.38249 3.59004,-8.77577 2.5263,-2.52634 5.58446,-3.78952 9.17452,-3.78952 3.45706,0 6.38227,1.2631 8.77561,3.78952 2.52632,2.39328 3.78948,5.31855 3.78948,8.77577 0,3.59002 -1.26316,6.64812 -3.78948,9.17426 -2.39336,2.3935 -5.31855,3.59024 -8.77561,3.59024 z"
     style="font-size:30.4709px;line-height:1.25;font-family:'Google Sans';-inkscape-font-specification:'Google Sans';fill:#ffffff;fill-opacity:1;stroke-width:4.98616"
     id="path13331"
     sodipodi:nodetypes="cccccccscscscscs" />
  <path
     id="rect899"
     style="fill:#000000;stroke:none;stroke-width:4;opacity:0.5"
     d="M 56,16 C 33.840066,16 16,33.840066 16,56 v 144 c 0,22.15994 17.840066,40 40,40 h 144 c 22.15994,0 40,-17.84006 40,-40 V 56 C 240,33.840066 222.15994,16 200,16 Z m 0,1 h 144 c 21.60598,0 39,17.394022 39,39 v 144 c 0,21.60598 -17.39402,39 -39,39 H 56 C 34.394022,239 17,221.60598 17,200 V 56 C 17,34.394022 34.394022,17 56,17 Z" />
  <path
     id="rect441"
     style="opacity:0.3;fill:#ffffff"
     d="m 17,199 v 1 c 0,21.60598 17.394022,39 39,39 h 144 c 21.60598,0 39,-17.39402 39,-39 v -1 c 0,21.60598 -17.39402,39 -39,39 H 56 C 34.394022,238 17,220.60598 17,199 Z" />
  <path
     id="rect443"
     style="opacity:0.3;fill:#ffffff"
     d="M 56,17 C 34.394022,17 17,34.394022 17,56 v 1 C 17,35.394022 34.394022,18 56,18 h 144 c 21.60598,0 39,17.394022 39,39 V 56 C 239,34.394022 221.60598,17 200,17 Z" />
</svg>
