<?xml version="1.0" encoding="UTF-8" standalone="no"?>
<!-- Created with Inkscape (http://www.inkscape.org/) -->

<svg
   width="256"
   height="256"
   viewBox="0 0 256 256.00001"
   version="1.1"
   id="svg5"
   sodipodi:docname="system-run.svg"
   inkscape:version="1.3.2 (091e20ef0f, 2023-11-25, custom)"
   xmlns:inkscape="http://www.inkscape.org/namespaces/inkscape"
   xmlns:sodipodi="http://sodipodi.sourceforge.net/DTD/sodipodi-0.dtd"
   xmlns:xlink="http://www.w3.org/1999/xlink"
   xmlns="http://www.w3.org/2000/svg"
   xmlns:svg="http://www.w3.org/2000/svg">
  <sodipodi:namedview
     id="namedview7"
     pagecolor="#ffffff"
     bordercolor="#666666"
     borderopacity="1.0"
     inkscape:showpageshadow="2"
     inkscape:pageopacity="0.0"
     inkscape:pagecheckerboard="0"
     inkscape:deskcolor="#d1d1d1"
     inkscape:document-units="px"
     showgrid="false"
     inkscape:zoom="3.125"
     inkscape:cx="128.32"
     inkscape:cy="128"
     inkscape:window-width="1920"
     inkscape:window-height="1011"
     inkscape:window-x="0"
     inkscape:window-y="0"
     inkscape:window-maximized="1"
     inkscape:current-layer="svg5" />
  <defs
     id="defs2">
    <linearGradient
       inkscape:collect="always"
       xlink:href="#linearGradient22024"
       id="linearGradient33585"
       x1="128"
       y1="240"
       x2="128"
       y2="16"
       gradientUnits="userSpaceOnUse" />
    <linearGradient
       inkscape:collect="always"
       id="linearGradient22024">
      <stop
         style="stop-color:#cdcdcd;stop-opacity:1;"
         offset="0"
         id="stop22020" />
      <stop
         style="stop-color:#eff0f1;stop-opacity:1;"
         offset="1"
         id="stop22022" />
    </linearGradient>
  </defs>
  <rect
     style="fill:url(#linearGradient33585);fill-opacity:1.0;stroke:none;stroke-width:4"
     id="rect184"
     width="223"
     height="223"
     x="16.5"
     y="16.5"
     ry="39.5" />
  <path
     d="m 175.56978,112.18406 c 0,0 -1.7408,1.23676 -5.41688,5.73266 -4.49576,5.49673 -7.88592,5.78296 -11.93632,5.88788 l -0.024,0.0328 c -0.81136,-0.196 -1.63088,-0.3688 -2.45312,-0.5064 l -0.006,-0.0328 c -3.6876,-1.67735 -6.69592,-3.26838 -8.68672,-10.08499 -1.62824,-5.5718 -2.74664,-7.39392 -2.74664,-7.39392 -2.31808,-0.51304 -5.22304,0.0552 -5.22304,0.0552 0,0 -2.90576,0.5648 -4.86096,1.90953 0,0 -0.3568,2.10703 0.2264,7.88383 0.708,7.06552 -1.48728,9.66729 -4.27656,12.60474 l 0.002,0.044 c -0.7088,0.43488 -1.4012,0.90166 -2.08488,1.38848 l -0.024,-0.0224 c -3.79416,1.42073 -7.04648,2.42343 -13.27408,-0.98862 -5.0904,-2.7896 -7.16968,-3.286 -7.16968,-3.286 -1.9984,1.27012 -3.6528,3.72307 -3.6528,3.72307 0,0 -1.6552,2.45403 -2.08688,4.78784 0,0 1.23816,1.74274 5.73208,5.41726 5.49648,4.49566 5.78416,7.88822 5.88904,11.93704 l 0.04,0.0224 c -0.1944,0.81356 -0.368,1.6312 -0.5064,2.45238 l -0.024,0.004 c -1.67656,3.68804 -3.268,6.69628 -10.08392,8.68782 -5.571749,1.62692 -7.394629,2.74842 -7.394629,2.74842 -0.5128,2.31862 0.048,5.21962 0.048,5.21962 0,0 0.5656,2.90696 1.90968,4.86206 0,0 2.10679,0.35776 7.883109,-0.22352 7.06528,-0.7068 9.66488,1.49018 12.60392,4.2777 l 0.04,-0.006 c 0.436,0.71008 0.9028,1.40222 1.38784,2.08522 l -0.024,0.0328 c 1.42368,3.79352 2.4235,7.0456 -0.98752,13.27256 -2.78928,5.09138 -3.28528,7.17362 -3.28528,7.17362 1.27728,2.00156 3.72792,3.65426 3.72792,3.65426 0,0 2.45504,1.65586 4.78784,2.08698 0,0 1.74256,-1.23598 5.41648,-5.73166 4.4963,-5.49606 7.88856,-5.78098 11.93702,-5.88854 l 0.024,-0.0328 c 0.8169,0.1948 1.63178,0.3688 2.45344,0.5064 l 0.002,0.044 c 3.68846,1.67692 6.6963,3.26784 8.68766,10.08344 1.62712,5.57226 2.74848,7.3957 2.74848,7.3957 2.31848,0.5108 5.22032,-0.0552 5.22032,-0.0552 0,0 2.90704,-0.56584 4.86088,-1.9113 0,0 0.3568,-2.1046 -0.2144,-7.8826 -0.7064,-7.06542 1.49088,-9.66588 4.27688,-12.60408 l -0.008,-0.0328 c 0.7096,-0.43488 1.40136,-0.90384 2.08488,-1.38868 l 0.04,0.0224 c 3.79344,-1.42238 7.04512,-2.4241 13.27296,0.9875 5.09056,2.78938 7.17232,3.2861 7.17232,3.2861 2.00176,-1.27858 3.6548,-3.7292 3.6548,-3.7292 0,0 1.65584,-2.45482 2.0872,-4.7882 0,0 -1.23592,-1.74252 -5.73264,-5.41668 -5.49664,-4.49536 -5.78136,-7.88804 -5.88792,-11.9362 l -0.024,-0.0224 c 0.1944,-0.81686 0.3696,-1.63164 0.5048,-2.45292 l 0.04,-0.006 c 1.67712,-3.68762 3.26816,-6.69574 10.08408,-8.68728 5.57272,-1.62714 7.39632,-2.74852 7.39632,-2.74852 0.5112,-2.31852 -0.056,-5.22052 -0.056,-5.22052 0,0 -0.5648,-2.90584 -1.90944,-4.86194 0,0 -2.10736,-0.35672 -7.88424,0.22344 -7.06568,0.70792 -9.66624,-1.48744 -12.60472,-4.27626 l -0.04,0.006 c -0.436,-0.71008 -0.90048,-1.40256 -1.39,-2.08456 l 0.024,-0.0328 c -1.42016,-3.79262 -2.42464,-7.04493 0.98752,-13.27289 2.78952,-5.09038 3.28712,-7.17198 3.28712,-7.17198 -1.27712,-2.00101 -3.72976,-3.65567 -3.72976,-3.65567 0,0 -2.45488,-1.65566 -4.78824,-2.08699 z m -4.65032,62.11868 c -7.95088,11.78764 -23.95152,14.89804 -35.73912,6.94716 -11.78752,-7.95098 -14.89776,-23.95148 -6.94696,-35.73924 7.95072,-11.78742 23.95136,-14.89781 35.73912,-6.94684 11.78768,7.95088 14.89784,23.95148 6.94696,35.73892 z M 126.8753,57.200293 c 0,0 -1.62104,0.53944 -5.48504,3.118752 -4.72528,3.153664 -7.38568,2.579872 -10.50904,1.712688 l -0.024,0.0224 c -0.576,-0.34016 -1.1616,-0.66384 -1.75832,-0.961096 l 0.002,-0.0224 c -2.4288,-2.145784 -4.35824,-4.06676 -4.28696,-9.74744 0.048,-4.643528 -0.3704,-6.299184 -0.3704,-6.299184 -1.65336,-0.934672 -4.00791,-1.1826 -4.00791,-1.1826 0,0 -2.355279,-0.24768 -4.165599,0.32368 0,0 -0.7648,1.528608 -1.67336,6.08372 -1.11128,5.57116 -3.39896,7.048128 -6.21976,8.643136 l -0.007,0.0328 c -0.6448,0.16736 -1.2828,0.36216 -1.91976,0.57464 l -0.024,-0.0224 c -3.2352,0.19928 -5.95776,0.20584 -9.92433,-3.861 -3.24192,-3.324856 -4.71664,-4.191056 -4.71664,-4.191056 -1.82584,0.50424 -3.66536,1.993968 -3.66536,1.993968 0,0 -1.84032,1.490408 -2.71648,3.174912 0,0 0.5392,1.62296 3.1184,5.48528 3.15344,4.725096 2.58008,7.387864 1.71328,10.509928 l 0.024,0.0224 c -0.3392,0.57688 -0.6624,1.161896 -0.96224,1.7576 l -0.024,-0.0024 c -2.14536,2.429378 -4.06632,4.358608 -9.74672,4.288038 -4.6432,-0.0552 -6.30024,0.3732 -6.30024,0.3732 -0.93472,1.654 -1.182,4.00522 -1.182,4.00522 0,0 -0.2536,2.35594 0.324,4.16638 0,0 1.52808,0.76624 6.0832,1.67295 5.5708,1.1118 7.04576,3.4007 8.64208,6.22079 l 0.024,0.002 c 0.1688,0.64624 0.3632,1.28399 0.5744,1.91998 l -0.024,0.0224 c 0.2008,3.235141 0.2072,5.957131 -3.86,9.923271 -3.32472,3.24272 -4.19128,4.71981 -4.19128,4.71981 0.5096,1.83004 1.99728,3.66768 1.99728,3.66768 0,0 1.49096,1.84105 3.17504,2.7166 0,0 1.622,-0.53832 5.48448,-3.11821 4.72544,-3.153 7.38728,-2.57767 10.50984,-1.71291 l 0.024,-0.0224 c 0.58,0.34016 1.16176,0.66384 1.75864,0.9611 l -0.007,0.0328 c 2.4296,2.14567 4.35856,4.06631 4.28808,9.74645 -0.048,4.64364 0.372,6.30095 0.372,6.30095 1.65424,0.93357 4.00584,1.18161 4.00584,1.18161 0,0 2.3564,0.24768 4.16584,-0.3248 0,0 0.7648,-1.52675 1.67328,-6.08264 1.11352,-5.5706 3.401599,-7.04626 6.220159,-8.64247 l -10e-4,-0.0328 c 0.6448,-0.16736 1.28352,-0.36328 1.92,-0.57464 l 0.024,0.0224 c 3.23504,-0.2004 5.95712,-0.20696 9.9236,3.86034 3.242,3.32474 4.7188,4.19181 4.7188,4.19181 1.83048,-0.50976 3.66824,-1.99825 3.66824,-1.99825 0,0 1.84112,-1.49075 2.7168,-3.17503 0,0 -0.5384,-1.62229 -3.11888,-5.48494 -3.15352,-4.7251 -2.57776,-7.38732 -1.71256,-10.50927 l -0.024,-0.0224 c 0.3392,-0.57904 0.6624,-1.16211 0.96104,-1.75837 l 0.04,0.004 c 2.14584,-2.428931 4.06672,-4.358161 9.74704,-4.287591 4.64408,0.0552 6.30152,-0.3732 6.30152,-0.3732 0.93352,-1.65423 1.18088,-4.00655 1.18088,-4.00655 0,0 0.252,-2.35484 -0.324,-4.16627 0,0 -1.52888,-0.76624 -6.084,-1.67338 -5.57152,-1.11137 -7.04744,-3.39895 -8.64328,-6.2198 l -0.024,-0.002 c -0.1672,-0.64512 -0.3608,-1.28378 -0.5752,-1.91988 l 0.024,-0.0224 c -0.2,-3.23392 -0.208,-5.957018 3.86008,-9.923482 3.32496,-3.242064 4.1924,-4.718168 4.1924,-4.718168 -0.5088,-1.8296 -1.99856,-3.669216 -1.99856,-3.669216 0,0 -1.49072,-1.840936 -3.17504,-2.7166 z m -18.08736,46.436537 c -8.839999,7.15855 -21.808719,5.79562 -28.967359,-3.04434 -7.15856,-8.840081 -5.79536,-21.808891 3.04424,-28.967549 8.83984,-7.158328 21.808799,-5.795408 28.967359,3.044668 7.15856,8.84008 5.7952,21.80889 -3.0444,28.967331 z"
     style="display:inline;opacity:0.5;fill:#ffffff;fill-opacity:1;stroke:none;stroke-width:8;enable-background:new"
     id="path7698" />
  <path
     d="m 175.60978,111.18324 c 0,0 -1.7408,1.23676 -5.41688,5.73265 -4.49576,5.49673 -7.88592,5.78296 -11.93632,5.88788 l -0.024,0.0328 c -0.81136,-0.196 -1.63088,-0.3688 -2.45312,-0.5064 l -0.006,-0.0328 c -3.6876,-1.67734 -6.69592,-3.26837 -8.68672,-10.08498 -1.62824,-5.57181 -2.74664,-7.39392 -2.74664,-7.39392 -2.31808,-0.51304 -5.22304,0.0552 -5.22304,0.0552 0,0 -2.90576,0.5648 -4.86096,1.90953 0,0 -0.3568,2.10702 0.2264,7.88382 0.708,7.06552 -1.48728,9.6673 -4.27656,12.60474 l 0.002,0.044 c -0.7088,0.43488 -1.4012,0.90165 -2.08488,1.38848 l -0.024,-0.0224 c -3.79416,1.42072 -7.04648,2.42343 -13.27408,-0.98862 -5.0904,-2.78959 -7.16968,-3.28599 -7.16968,-3.28599 -1.9984,1.27012 -3.6528,3.72305 -3.6528,3.72305 0,0 -1.6552,2.45404 -2.08688,4.78784 0,0 1.23816,1.74276 5.73208,5.41726 5.49648,4.49566 5.78416,7.88822 5.88904,11.93704 l 0.04,0.0224 c -0.1944,0.81358 -0.368,1.63122 -0.5064,2.45238 l -0.024,0.004 c -1.67656,3.68804 -3.268,6.69628 -10.08392,8.68782 -5.571749,1.62692 -7.394629,2.74842 -7.394629,2.74842 -0.5128,2.31862 0.048,5.21962 0.048,5.21962 0,0 0.5656,2.90696 1.90968,4.86206 0,0 2.10679,0.35776 7.883109,-0.22352 7.06528,-0.7068 9.66488,1.4902 12.60392,4.2777 l 0.04,-0.006 c 0.436,0.71008 0.9028,1.40222 1.38784,2.08522 l -0.024,0.0328 c 1.42368,3.79352 2.42352,7.0456 -0.98752,13.27256 -2.78928,5.09138 -3.28528,7.17364 -3.28528,7.17364 1.27728,2.00156 3.7279,3.65424 3.7279,3.65424 0,0 2.45504,1.65588 4.78786,2.087 0,0 1.74256,-1.236 5.41646,-5.73168 4.49634,-5.49606 7.88858,-5.78098 11.93706,-5.88852 l 0.024,-0.0328 c 0.81686,0.1948 1.63176,0.3688 2.45344,0.5064 l 0.002,0.044 c 3.68848,1.6769 6.69632,3.26782 8.68768,10.08344 1.62712,5.57224 2.74848,7.39568 2.74848,7.39568 2.31848,0.5108 5.22032,-0.0552 5.22032,-0.0552 0,0 2.90704,-0.56584 4.86088,-1.91128 0,0 0.3568,-2.10462 -0.2144,-7.88262 -0.7064,-7.06542 1.49088,-9.66586 4.27688,-12.60408 l -0.008,-0.0328 c 0.7096,-0.43488 1.40136,-0.90384 2.08488,-1.38868 l 0.04,0.0224 c 3.79344,-1.42238 7.04512,-2.4241 13.27296,0.9875 5.09056,2.78938 7.17232,3.28612 7.17232,3.28612 2.00176,-1.2786 3.6548,-3.72922 3.6548,-3.72922 0,0 1.65584,-2.45482 2.0872,-4.78818 0,0 -1.23592,-1.74252 -5.73264,-5.4167 -5.49664,-4.49536 -5.78136,-7.88804 -5.88792,-11.93618 l -0.024,-0.0224 c 0.1944,-0.81688 0.3696,-1.63166 0.5048,-2.45294 l 0.04,-0.006 c 1.67712,-3.68762 3.26816,-6.69574 10.08408,-8.68728 5.57272,-1.62714 7.39632,-2.74852 7.39632,-2.74852 0.5112,-2.31852 -0.056,-5.22052 -0.056,-5.22052 0,0 -0.5648,-2.90584 -1.90944,-4.86194 0,0 -2.10736,-0.35672 -7.88424,0.22344 -7.06568,0.70792 -9.66624,-1.48744 -12.60472,-4.27624 l -0.04,0.006 c -0.436,-0.71008 -0.90048,-1.40256 -1.39,-2.08458 l 0.024,-0.0328 c -1.42016,-3.79262 -2.42464,-7.04492 0.98752,-13.27287 2.78952,-5.09039 3.28712,-7.17199 3.28712,-7.17199 -1.27712,-2.001 -3.72976,-3.65567 -3.72976,-3.65567 0,0 -2.45488,-1.65565 -4.78824,-2.08699 z m -4.65032,62.11866 c -7.95088,11.78764 -23.95152,14.89804 -35.73912,6.94716 -11.78752,-7.95098 -14.89776,-23.95146 -6.94696,-35.73922 7.95072,-11.78744 23.95136,-14.89783 35.73912,-6.94686 11.78768,7.95088 14.89784,23.95148 6.94696,35.73892 z M 126.9153,56.199467 c 0,0 -1.62104,0.53944 -5.48504,3.118752 -4.72528,3.153672 -7.38568,2.579872 -10.50904,1.712688 l -0.024,0.0224 c -0.576,-0.34016 -1.1616,-0.66384 -1.75832,-0.961096 l 0.002,-0.0224 c -2.4288,-2.145784 -4.35824,-4.066768 -4.28696,-9.747448 0.048,-4.64352 -0.3704,-6.299176 -0.3704,-6.299176 -1.65336,-0.934672 -4.00791,-1.1826 -4.00791,-1.1826 0,0 -2.355279,-0.24768 -4.165599,0.32368 0,0 -0.7648,1.528608 -1.67336,6.083728 -1.11128,5.571152 -3.39896,7.048128 -6.21976,8.643128 l -0.007,0.0328 c -0.6448,0.16736 -1.2828,0.36216 -1.91976,0.57464 l -0.024,-0.0224 c -3.2352,0.19928 -5.95776,0.20584 -9.92433,-3.860992 -3.24192,-3.324856 -4.71664,-4.191056 -4.71664,-4.191056 -1.82584,0.50424 -3.66536,1.993968 -3.66536,1.993968 0,0 -1.84032,1.490408 -2.71648,3.174912 0,0 0.5392,1.62296 3.1184,5.48528 3.15344,4.725096 2.58008,7.387864 1.71328,10.509928 l 0.024,0.0224 c -0.3392,0.57688 -0.6624,1.161896 -0.96224,1.7576 l -0.024,-0.0024 c -2.14536,2.429366 -4.06632,4.358596 -9.74672,4.288036 -4.6432,-0.0552 -6.30024,0.3732 -6.30024,0.3732 -0.93472,1.654 -1.182,4.00521 -1.182,4.00521 0,0 -0.2536,2.35595 0.324,4.16639 0,0 1.52808,0.76624 6.0832,1.67294 5.5708,1.11181 7.04576,3.4007 8.64208,6.22079 l 0.024,0.002 c 0.1688,0.64624 0.3632,1.28399 0.5744,1.91999 l -0.024,0.0224 c 0.2008,3.23513 0.2072,5.957121 -3.86,9.923261 -3.32472,3.24273 -4.19128,4.71982 -4.19128,4.71982 0.5096,1.83004 1.99728,3.66768 1.99728,3.66768 0,0 1.49096,1.84104 3.17504,2.7166 0,0 1.622,-0.53832 5.48448,-3.11822 4.72544,-3.153 7.38728,-2.57766 10.50984,-1.7129 l 0.024,-0.0224 c 0.58,0.34016 1.16176,0.66384 1.75864,0.96109 l -0.007,0.0328 c 2.4296,2.14567 4.35856,4.06631 4.28808,9.74646 -0.048,4.64363 0.372,6.30093 0.372,6.30093 1.65424,0.93358 4.00584,1.18161 4.00584,1.18161 0,0 2.3564,0.24768 4.16584,-0.3248 0,0 0.7648,-1.52674 1.67328,-6.08263 1.11352,-5.5706 3.401599,-7.04626 6.220159,-8.64246 l -0.001,-0.0328 c 0.6448,-0.16736 1.28352,-0.36328 1.92,-0.57464 l 0.024,0.0224 c 3.23504,-0.2004 5.95712,-0.20696 9.9236,3.86033 3.242,3.32475 4.7188,4.19182 4.7188,4.19182 1.83048,-0.50976 3.66824,-1.99826 3.66824,-1.99826 0,0 1.84112,-1.49074 2.7168,-3.17502 0,0 -0.5384,-1.6223 -3.11888,-5.48495 -3.15352,-4.7251 -2.57776,-7.38732 -1.71256,-10.50927 l -0.024,-0.0224 c 0.3392,-0.57904 0.6624,-1.16211 0.96104,-1.758371 l 0.04,0.004 c 2.14584,-2.42892 4.06672,-4.35816 9.74704,-4.28759 4.64408,0.0552 6.30152,-0.3732 6.30152,-0.3732 0.93352,-1.65423 1.18088,-4.00654 1.18088,-4.00654 0,0 0.252,-2.35484 -0.324,-4.16627 0,0 -1.52888,-0.76624 -6.084,-1.67339 -5.57152,-1.11137 -7.04744,-3.39894 -8.64328,-6.2198 l -0.024,-0.002 c -0.1672,-0.64512 -0.3608,-1.28377 -0.5752,-1.91988 l 0.024,-0.0224 c -0.2,-3.233918 -0.208,-5.957014 3.86008,-9.923478 3.32496,-3.242064 4.1924,-4.718168 4.1924,-4.718168 -0.5088,-1.8296 -1.99856,-3.669216 -1.99856,-3.669216 0,0 -1.49072,-1.840936 -3.17504,-2.7166 z M 108.82794,102.636 c -8.839999,7.15856 -21.808719,5.79563 -28.967359,-3.044341 -7.15856,-8.84007 -5.79536,-21.80889 3.04424,-28.967536 8.83984,-7.158336 21.808799,-5.795408 28.967359,3.044672 7.15856,8.840064 5.7952,21.808884 -3.0444,28.967325 z"
     style="display:inline;fill:#929292;fill-opacity:1;stroke:none;stroke-width:8;enable-background:new"
     id="path5900"
     sodipodi:nodetypes="cccccccccccccccccccccccccccccccccccccccccccccccccccccccccccccccccccccccccccccsccccccccccccccccccccccccccccccccccccccccccccccccccccccccccccccccccccccccccccccscc" />
  <path
     id="rect899"
     style="fill:#000000;stroke:none;stroke-width:4;opacity:0.5"
     d="M 56,16 C 33.840066,16 16,33.840066 16,56 v 144 c 0,22.15994 17.840066,40 40,40 h 144 c 22.15994,0 40,-17.84006 40,-40 V 56 C 240,33.840066 222.15994,16 200,16 Z m 0,1 h 144 c 21.60598,0 39,17.394022 39,39 v 144 c 0,21.60598 -17.39402,39 -39,39 H 56 C 34.394022,239 17,221.60598 17,200 V 56 C 17,34.394022 34.394022,17 56,17 Z" />
  <path
     id="rect441"
     style="opacity:0.3;fill:#ffffff"
     d="m 17,199 v 1 c 0,21.60598 17.394022,39 39,39 h 144 c 21.60598,0 39,-17.39402 39,-39 v -1 c 0,21.60598 -17.39402,39 -39,39 H 56 C 34.394022,238 17,220.60598 17,199 Z" />
  <path
     id="rect443"
     style="opacity:0.3;fill:#ffffff"
     d="M 56,17 C 34.394022,17 17,34.394022 17,56 v 1 C 17,35.394022 34.394022,18 56,18 h 144 c 21.60598,0 39,17.394022 39,39 V 56 C 239,34.394022 221.60598,17 200,17 Z" />
</svg>
