<?xml version="1.0" encoding="UTF-8" standalone="no"?>
<!-- Created with Inkscape (http://www.inkscape.org/) -->

<svg
   width="256"
   height="256"
   viewBox="0 0 256 256.00001"
   version="1.1"
   id="svg5"
   sodipodi:docname="utilities-tweak-tool.svg"
   inkscape:version="1.2.1 (9c6d41e410, 2022-07-14)"
   xmlns:inkscape="http://www.inkscape.org/namespaces/inkscape"
   xmlns:sodipodi="http://sodipodi.sourceforge.net/DTD/sodipodi-0.dtd"
   xmlns:xlink="http://www.w3.org/1999/xlink"
   xmlns="http://www.w3.org/2000/svg"
   xmlns:svg="http://www.w3.org/2000/svg">
  <sodipodi:namedview
     id="namedview7"
     pagecolor="#ffffff"
     bordercolor="#666666"
     borderopacity="1.0"
     inkscape:showpageshadow="2"
     inkscape:pageopacity="0.0"
     inkscape:pagecheckerboard="0"
     inkscape:deskcolor="#d1d1d1"
     inkscape:document-units="px"
     showgrid="false"
     inkscape:zoom="3.2070312"
     inkscape:cx="128"
     inkscape:cy="128"
     inkscape:window-width="1920"
     inkscape:window-height="1007"
     inkscape:window-x="0"
     inkscape:window-y="0"
     inkscape:window-maximized="1"
     inkscape:current-layer="svg5"
     showguides="false" />
  <defs
     id="defs2">
    <linearGradient
       inkscape:collect="always"
       xlink:href="#linearGradient22024"
       id="linearGradient3525"
       x1="32"
       y1="59.623318"
       x2="32"
       y2="4.3766818"
       gradientUnits="userSpaceOnUse"
       gradientTransform="matrix(4.0545454,0,0,4.0545454,-1.745455,-1.745455)" />
    <linearGradient
       inkscape:collect="always"
       id="linearGradient22024">
      <stop
         style="stop-color:#dedede;stop-opacity:1;"
         offset="0"
         id="stop22020" />
      <stop
         style="stop-color:#f2f2f2;stop-opacity:1;"
         offset="1"
         id="stop22022" />
    </linearGradient>
    <linearGradient
       inkscape:collect="always"
       xlink:href="#linearGradient2971"
       id="linearGradient2973"
       x1="51"
       y1="28"
       x2="51"
       y2="14"
       gradientUnits="userSpaceOnUse"
       gradientTransform="matrix(4,0,0,4,4e-6,0)" />
    <linearGradient
       inkscape:collect="always"
       id="linearGradient2971">
      <stop
         style="stop-color:#51aadf;stop-opacity:1;"
         offset="0"
         id="stop2967" />
      <stop
         style="stop-color:#57bcfa;stop-opacity:1;"
         offset="1"
         id="stop2969" />
    </linearGradient>
    <linearGradient
       inkscape:collect="always"
       xlink:href="#linearGradient2059"
       id="linearGradient2063"
       x1="32"
       y1="50"
       x2="32"
       y2="36"
       gradientUnits="userSpaceOnUse"
       gradientTransform="matrix(4,0,0,4,4e-6,0)" />
    <linearGradient
       inkscape:collect="always"
       id="linearGradient2059">
      <stop
         style="stop-color:#999999;stop-opacity:1"
         offset="0"
         id="stop2055" />
      <stop
         style="stop-color:#b3b3b3;stop-opacity:1"
         offset="1"
         id="stop2057" />
    </linearGradient>
    <linearGradient
       inkscape:collect="always"
       xlink:href="#linearGradient22024"
       id="linearGradient3761"
       x1="50"
       y1="27"
       x2="50"
       y2="15"
       gradientUnits="userSpaceOnUse"
       gradientTransform="matrix(3.9999998,0,0,3.9999998,4e-6,2e-6)" />
    <linearGradient
       inkscape:collect="always"
       xlink:href="#linearGradient22024"
       id="linearGradient3771"
       x1="50"
       y1="27"
       x2="50"
       y2="15"
       gradientUnits="userSpaceOnUse"
       gradientTransform="matrix(3.9999998,0,0,3.9999998,-63.999994,87.999996)" />
  </defs>
  <rect
     style="fill:url(#linearGradient3525);fill-opacity:1;stroke:none;stroke-width:4.05454"
     id="rect184"
     width="223"
     height="223"
     x="16.5"
     y="16.5"
     ry="39.5" />
  <path
     id="rect1301"
     style="opacity:0.2;fill:#ffffff;stroke-width:12;stroke-linecap:round;stroke-linejoin:round"
     d="m 80.000001,57 c -15.511984,0 -28,12.488016 -28,28 0,15.51198 12.488016,28 28,28 H 176 c 15.51198,0 28,-12.48802 28,-28 0,-15.511984 -12.48802,-28 -28,-28 z m 0,88 c -15.511984,0 -28,12.48802 -28,28 0,15.51198 12.488016,28 28,28 H 176 c 15.51198,0 28,-12.48802 28,-28 0,-15.51198 -12.48802,-28 -28,-28 z" />
  <rect
     style="fill:url(#linearGradient2973);fill-opacity:1;stroke-width:12;stroke-linecap:round;stroke-linejoin:round"
     id="rect743"
     width="152"
     height="56"
     x="52"
     y="56"
     ry="28" />
  <rect
     style="fill:url(#linearGradient2063);fill-opacity:1;stroke-width:12;stroke-linecap:round;stroke-linejoin:round"
     id="rect745"
     width="152"
     height="56"
     x="52"
     y="144"
     ry="28" />
  <path
     id="rect3773"
     style="opacity:0.2;fill:#000000;fill-opacity:1;stroke-width:12;stroke-linecap:round;stroke-linejoin:round"
     d="m 144,62 c -13.29599,0 -24,10.704012 -24,24 0,13.295986 10.70401,24 24,24 h 32 c 13.29598,0 24,-10.704014 24,-24 0,-13.295988 -10.70402,-24 -24,-24 z m -63.999996,88 c -13.295988,0 -24,10.70402 -24,24 0,13.29598 10.704012,24 24,24 H 112 c 13.29599,0 24,-10.70402 24,-24 0,-13.29598 -10.70401,-24 -24,-24 z" />
  <rect
     style="fill:url(#linearGradient3761);fill-opacity:1;stroke-width:12;stroke-linecap:round;stroke-linejoin:round"
     id="rect3027"
     width="80"
     height="48"
     x="120"
     y="60"
     ry="24" />
  <rect
     style="fill:url(#linearGradient3771);fill-opacity:1;stroke-width:12;stroke-linecap:round;stroke-linejoin:round"
     id="rect3763"
     width="80"
     height="48"
     x="56"
     y="148"
     ry="24" />
  <path
     id="rect899"
     style="fill:#000000;stroke:none;stroke-width:4;opacity:0.5"
     d="M 56,16 C 33.840066,16 16,33.840066 16,56 v 144 c 0,22.15994 17.840066,40 40,40 h 144 c 22.15994,0 40,-17.84006 40,-40 V 56 C 240,33.840066 222.15994,16 200,16 Z m 0,1 h 144 c 21.60598,0 39,17.394022 39,39 v 144 c 0,21.60598 -17.39402,39 -39,39 H 56 C 34.394022,239 17,221.60598 17,200 V 56 C 17,34.394022 34.394022,17 56,17 Z" />
  <path
     id="rect441"
     style="opacity:0.3;fill:#ffffff"
     d="m 17,199 v 1 c 0,21.60598 17.394022,39 39,39 h 144 c 21.60598,0 39,-17.39402 39,-39 v -1 c 0,21.60598 -17.39402,39 -39,39 H 56 C 34.394022,238 17,220.60598 17,199 Z" />
  <path
     id="rect443"
     style="opacity:0.3;fill:#ffffff"
     d="M 56,17 C 34.394022,17 17,34.394022 17,56 v 1 C 17,35.394022 34.394022,18 56,18 h 144 c 21.60598,0 39,17.394022 39,39 V 56 C 239,34.394022 221.60598,17 200,17 Z" />
</svg>
