<?xml version="1.0" encoding="UTF-8" standalone="no"?>
<!-- Created with Inkscape (http://www.inkscape.org/) -->

<svg
   width="256"
   height="256"
   viewBox="0 0 256 256.00001"
   version="1.1"
   id="svg5"
   sodipodi:docname="virtualbox.svg"
   inkscape:version="1.2.1 (9c6d41e410, 2022-07-14)"
   xmlns:inkscape="http://www.inkscape.org/namespaces/inkscape"
   xmlns:sodipodi="http://sodipodi.sourceforge.net/DTD/sodipodi-0.dtd"
   xmlns:xlink="http://www.w3.org/1999/xlink"
   xmlns="http://www.w3.org/2000/svg"
   xmlns:svg="http://www.w3.org/2000/svg">
  <sodipodi:namedview
     id="namedview7"
     pagecolor="#ffffff"
     bordercolor="#666666"
     borderopacity="1.0"
     inkscape:showpageshadow="2"
     inkscape:pageopacity="0.0"
     inkscape:pagecheckerboard="0"
     inkscape:deskcolor="#d1d1d1"
     inkscape:document-units="px"
     showgrid="false"
     inkscape:zoom="2.2097087"
     inkscape:cx="152.50879"
     inkscape:cy="160.42839"
     inkscape:window-width="1920"
     inkscape:window-height="1007"
     inkscape:window-x="0"
     inkscape:window-y="0"
     inkscape:window-maximized="1"
     inkscape:current-layer="svg5" />
  <defs
     id="defs2">
    <linearGradient
       inkscape:collect="always"
       xlink:href="#linearGradient3319"
       id="linearGradient33585"
       x1="128"
       y1="240"
       x2="128"
       y2="16"
       gradientUnits="userSpaceOnUse" />
    <linearGradient
       inkscape:collect="always"
       id="linearGradient3319">
      <stop
         style="stop-color:#0073de;stop-opacity:1;"
         offset="0"
         id="stop3315" />
      <stop
         style="stop-color:#63beff;stop-opacity:1;"
         offset="1"
         id="stop3317" />
    </linearGradient>
  </defs>
  <rect
     style="fill:url(#linearGradient33585);fill-opacity:1.0;stroke:none;stroke-width:4"
     id="rect184"
     width="223"
     height="223"
     x="16.5"
     y="16.5"
     ry="39.5" />
  <path
     id="path4119"
     style="display:inline;opacity:0.2;fill:#000000;fill-opacity:1;fill-rule:nonzero;stroke:none;stroke-width:16;enable-background:new"
     d="M 64,41 C 50.704032,41 40,51.704024 40,65 v 128 c 0,13.29596 10.704032,24 24,24 h 128 c 13.29596,0 24,-10.70404 24,-24 V 65 C 216,51.704024 205.29596,41 192,41 Z m 0,16 h 128 c 4.43198,0 8,3.568008 8,8 v 80 H 184 L 152,65 136,113 120,65 104.05014,118.16619 96,145 80,97 H 56 V 65 c 0,-4.431992 3.568016,-8 8,-8 z m 56,48 16,51.1875 16,-51.1875 24,56 h 24 v 32 c 0,4.43198 -3.56802,8 -8,8 H 64 c -4.431984,0 -8,-3.56802 -8,-8 V 113 H 68.812504 L 96,193 Z"
     sodipodi:nodetypes="sssssssssssscccccccccsscccccsccscccc" />
  <path
     id="path590"
     style="display:inline;fill:#ffffff;fill-opacity:1;fill-rule:nonzero;stroke:none;stroke-width:16;enable-background:new"
     d="M 64,40 C 50.704032,40 40,50.704024 40,64 v 128 c 0,13.29596 10.704032,24 24,24 h 128 c 13.29596,0 24,-10.70404 24,-24 V 64 C 216,50.704024 205.29596,40 192,40 Z m 0,16 h 128 c 4.43198,0 8,3.568008 8,8 v 80 H 184 L 152,64 136,112 120,64 96,144 80,96 H 56 V 64 c 0,-4.431992 3.568008,-8 8,-8 z m 56,48 16,51.1875 16,-51.1875 24,56 h 24 v 32 c 0,4.43198 -3.56802,8 -8,8 H 64 c -4.431992,0 -8,-3.56802 -8,-8 V 112 H 68.812504 L 96,192 Z"
     sodipodi:nodetypes="ssssssssssssccccccccsscccccsssscccc" />
  <path
     id="rect899"
     style="fill:#000000;stroke:none;stroke-width:4;opacity:0.5"
     d="M 56,16 C 33.840066,16 16,33.840066 16,56 v 144 c 0,22.15994 17.840066,40 40,40 h 144 c 22.15994,0 40,-17.84006 40,-40 V 56 C 240,33.840066 222.15994,16 200,16 Z m 0,1 h 144 c 21.60598,0 39,17.394022 39,39 v 144 c 0,21.60598 -17.39402,39 -39,39 H 56 C 34.394022,239 17,221.60598 17,200 V 56 C 17,34.394022 34.394022,17 56,17 Z" />
  <path
     id="rect441"
     style="opacity:0.3;fill:#ffffff"
     d="m 17,199 v 1 c 0,21.60598 17.394022,39 39,39 h 144 c 21.60598,0 39,-17.39402 39,-39 v -1 c 0,21.60598 -17.39402,39 -39,39 H 56 C 34.394022,238 17,220.60598 17,199 Z" />
  <path
     id="rect443"
     style="opacity:0.3;fill:#ffffff"
     d="M 56,17 C 34.394022,17 17,34.394022 17,56 v 1 C 17,35.394022 34.394022,18 56,18 h 144 c 21.60598,0 39,17.394022 39,39 V 56 C 239,34.394022 221.60598,17 200,17 Z" />
</svg>
