<?xml version="1.0" encoding="UTF-8" standalone="no"?>
<!-- Created with Inkscape (http://www.inkscape.org/) -->

<svg
   width="256"
   height="256"
   viewBox="0 0 256 256.00001"
   version="1.1"
   id="svg5"
   sodipodi:docname="visual-studio-code.svg"
   inkscape:version="1.2.1 (9c6d41e410, 2022-07-14)"
   xmlns:inkscape="http://www.inkscape.org/namespaces/inkscape"
   xmlns:sodipodi="http://sodipodi.sourceforge.net/DTD/sodipodi-0.dtd"
   xmlns:xlink="http://www.w3.org/1999/xlink"
   xmlns="http://www.w3.org/2000/svg"
   xmlns:svg="http://www.w3.org/2000/svg">
  <sodipodi:namedview
     id="namedview7"
     pagecolor="#ffffff"
     bordercolor="#666666"
     borderopacity="1.0"
     inkscape:showpageshadow="2"
     inkscape:pageopacity="0.0"
     inkscape:pagecheckerboard="0"
     inkscape:deskcolor="#d1d1d1"
     inkscape:document-units="px"
     showgrid="false"
     inkscape:zoom="2.298097"
     inkscape:cx="85.7231"
     inkscape:cy="87.681242"
     inkscape:window-width="1920"
     inkscape:window-height="1009"
     inkscape:window-x="0"
     inkscape:window-y="0"
     inkscape:window-maximized="1"
     inkscape:current-layer="svg5" />
  <defs
     id="defs2">
    <linearGradient
       inkscape:collect="always"
       xlink:href="#4852"
       id="linearGradient3525"
       x1="49.757847"
       y1="59.623318"
       x2="14.242153"
       y2="4.3766818"
       gradientUnits="userSpaceOnUse"
       gradientTransform="matrix(4.0545454,0,0,4.0545454,-1.745455,-1.745455)" />
    <linearGradient
       inkscape:collect="always"
       id="4852">
      <stop
         style="stop-color:#333333;stop-opacity:1"
         offset="0"
         id="stop14555" />
      <stop
         style="stop-color:#666666;stop-opacity:1"
         offset="1"
         id="stop14557" />
    </linearGradient>
  </defs>
  <rect
     style="fill:url(#linearGradient3525);fill-opacity:1.0;stroke:none;stroke-width:4.05454"
     id="rect184"
     width="223"
     height="223"
     x="16.5"
     y="16.5"
     ry="39.5" />
  <path
     d="m 163.0685,53.00129 c -0.48058,0.008 -0.96482,0.052 -1.4375,0.1328 -1.4155,0.24344 -2.77802,0.809584 -3.96876,1.679736 -0.1458,0.10648 -0.2736,0.24384 -0.41406,0.35936 -0.004,0.0036 -0.012,0.0044 -0.016,0.008 -0.23808,0.19656 -0.482,0.387 -0.70312,0.609396 L 97.295074,109.45631 70.521636,88.533788 c -2.429144,-1.853512 -5.821948,-1.695808 -8.078124,0.3672 l -8.375,7.648672 c -2.760024,2.523388 -2.755996,6.8869 0,9.41436 l 23.109376,21.7116 -23.109376,20.93816 c -2.756008,2.52756 -2.76002,6.89092 0,9.41436 l 8.375,7.65648 c 2.256168,2.06334 5.64898,2.21268 8.078124,0.35936 l 26.351562,-19.86776 59.656262,56.0408 c 0.189,0.19 0.40014,0.34448 0.60156,0.51564 0.038,0.0288 0.071,0.066 0.1094,0.0938 h 0.008 c 0.1404,0.1156 0.26832,0.25288 0.41406,0.35936 1.19282,0.87138 2.55068,1.43738 3.96874,1.67974 h 0.008 c 0.94292,0.1614 1.90978,0.178 2.8672,0.0468 h 0.008 c 0.47736,-0.0664 0.95368,-0.1712 1.42188,-0.31252 0.47076,-0.142 0.93764,-0.31996 1.39062,-0.53908 l 31.29688,-15.13338 c 2.88446,-1.39516 4.84238,-4.14346 5.28124,-7.27366 0.0624,-0.43798 0.0926,-0.8855 0.0938,-1.33598 v -0.0236 -0.35936 -101.86253 -0.3672 c 0,-0.008 2e-5,-0.0156 0,-0.0236 0,-0.450892 -0.0324,-0.89754 -0.0938,-1.33598 -0.43886,-3.130296 -2.39674,-5.878508 -5.28124,-7.27366 L 167.32692,53.938842 c -0.9084,-0.439428 -1.85772,-0.7197 -2.82032,-0.851588 -0.4799,-0.06632 -0.95692,-0.09388 -1.4375,-0.08592 z m 2.95312,41.055962 v 69.111528 l -45.01563,-35.18079 z"
     style="opacity:0.2;fill:#000000;stroke-width:7.60016"
     id="path1683" />
  <path
     d="M 198.62356,68.1029 167.32422,52.94534 c -3.62264,-1.754488 -7.95258,-1.0144 -10.79608,1.845352 L 54.064916,147.61563 c -2.756012,2.52749 -2.752824,6.89157 0.0072,9.41493 l 8.369528,7.6525 c 2.256168,2.06328 5.65396,2.21494 8.083108,0.36172 L 193.91388,72.0351 c 4.13942,-3.15852 10.08518,-0.18876 10.08518,5.037112 v -0.36556 c 0,-3.668392 -2.08944,-7.012468 -5.37552,-8.603828 z"
     style="fill:#0072b0;stroke-width:7.60004"
     id="path3815" />
  <path
     d="m 198.62356,187.90008 -31.29934,15.1576 c -3.62264,1.75384 -7.95258,1.01398 -10.79608,-1.84534 L 54.064912,104.96686 c -2.756,-2.52737 -2.752828,-6.89155 0.0072,-9.414862 l 8.369308,-7.652806 c 2.256176,-2.062944 5.653964,-2.214812 8.083112,-0.36136 L 193.91404,183.96758 c 4.13944,3.1584 10.08518,0.1888 10.08518,-5.0372 v 0.36604 c 0,3.66812 -2.08944,7.01216 -5.3755,8.6039 z"
     style="fill:#008eda;stroke-width:7.60004"
     id="path3843" />
  <path
     d="m 167.32634,203.05862 c -3.62382,1.75282 -7.95374,1.01234 -10.79726,-1.8478 3.50336,3.52364 9.49418,1.02772 9.49418,-3.95574 V 58.7446 c 0,-4.9835 -5.99082,-7.479292 -9.49418,-3.955412 2.8435,-2.859992 7.17344,-3.601136 10.79726,-1.848192 l 31.29402,15.136736 C 201.9089,69.668248 204,73.013548 204,76.68354 v 102.63334 c 0,3.66988 -2.09116,7.0151 -5.37964,8.60562 z"
     style="fill:#1eacf8;stroke-width:7.60004"
     id="path3871" />
  <path
     id="rect899"
     style="fill:#000000;stroke:none;stroke-width:4;opacity:0.5"
     d="M 56,16 C 33.840066,16 16,33.840066 16,56 v 144 c 0,22.15994 17.840066,40 40,40 h 144 c 22.15994,0 40,-17.84006 40,-40 V 56 C 240,33.840066 222.15994,16 200,16 Z m 0,1 h 144 c 21.60598,0 39,17.394022 39,39 v 144 c 0,21.60598 -17.39402,39 -39,39 H 56 C 34.394022,239 17,221.60598 17,200 V 56 C 17,34.394022 34.394022,17 56,17 Z" />
  <path
     id="rect441"
     style="opacity:0.3;fill:#ffffff"
     d="m 17,199 v 1 c 0,21.60598 17.394022,39 39,39 h 144 c 21.60598,0 39,-17.39402 39,-39 v -1 c 0,21.60598 -17.39402,39 -39,39 H 56 C 34.394022,238 17,220.60598 17,199 Z" />
  <path
     id="rect443"
     style="opacity:0.3;fill:#ffffff"
     d="M 56,17 C 34.394022,17 17,34.394022 17,56 v 1 C 17,35.394022 34.394022,18 56,18 h 144 c 21.60598,0 39,17.394022 39,39 V 56 C 239,34.394022 221.60598,17 200,17 Z" />
</svg>
