<?xml version="1.0" encoding="UTF-8" standalone="no"?>
<!-- Created with Inkscape (http://www.inkscape.org/) -->

<svg
   width="256"
   height="256"
   viewBox="0 0 256 256.00001"
   version="1.1"
   id="svg5"
   sodipodi:docname="yast.svg"
   inkscape:version="1.2.1 (9c6d41e410, 2022-07-14)"
   xmlns:inkscape="http://www.inkscape.org/namespaces/inkscape"
   xmlns:sodipodi="http://sodipodi.sourceforge.net/DTD/sodipodi-0.dtd"
   xmlns:xlink="http://www.w3.org/1999/xlink"
   xmlns="http://www.w3.org/2000/svg"
   xmlns:svg="http://www.w3.org/2000/svg">
  <sodipodi:namedview
     id="namedview7"
     pagecolor="#ffffff"
     bordercolor="#666666"
     borderopacity="1.0"
     inkscape:showpageshadow="2"
     inkscape:pageopacity="0.0"
     inkscape:pagecheckerboard="0"
     inkscape:deskcolor="#d1d1d1"
     inkscape:document-units="px"
     showgrid="false"
     inkscape:zoom="2.298097"
     inkscape:cx="20.669275"
     inkscape:cy="84.852815"
     inkscape:window-width="1920"
     inkscape:window-height="1002"
     inkscape:window-x="0"
     inkscape:window-y="0"
     inkscape:window-maximized="1"
     inkscape:current-layer="svg5" />
  <defs
     id="defs2">
    <linearGradient
       inkscape:collect="always"
       xlink:href="#linearGradient4246"
       id="linearGradient3525"
       x1="49.757847"
       y1="59.623318"
       x2="14.242153"
       y2="4.3766818"
       gradientUnits="userSpaceOnUse"
       gradientTransform="matrix(4.0545454,0,0,4.0545454,-1.745455,-1.745455)" />
    <linearGradient
       inkscape:collect="always"
       id="linearGradient4246">
      <stop
         style="stop-color:#23aea1;stop-opacity:1;"
         offset="0"
         id="stop4242" />
      <stop
         style="stop-color:#49c77c;stop-opacity:1;"
         offset="1"
         id="stop4244" />
    </linearGradient>
  </defs>
  <rect
     style="fill:url(#linearGradient3525);fill-opacity:1.0;stroke:none;stroke-width:4.05454"
     id="rect184"
     width="223"
     height="223"
     x="16.5"
     y="16.5"
     ry="39.5" />
  <path
     d="m 74.08475,57.000037 6.81858,16.00804 16.6719,19.042752 c -5.40556,0.853504 -10.21367,2.304472 -14.74675,4.039944 -2.56053,1.232848 -5.00725,2.56053 -6.37288,5.263317 l -4.15374,7.35914 c -1.33718,2.70279 -4.17271,3.14958 -6.95136,5.34025 l -11.38012,8.88598 c 2.26653,1.10008 4.29599,2.54156 6.16423,4.24859 -2.01049,-1.10957 -3.96408,-2.27604 -6.30649,-2.89246 -1.63116,-0.25608 -3.24333,-0.23704 -4.73224,0.94834 -1.33716,1.10957 -1.18542,2.98728 -0.9104,4.74172 0.51208,2.71227 2.77865,5.12106 5.35815,6.94188 2.39931,1.07162 4.60894,0.52152 6.73324,-0.73024 1.83977,-1.70701 2.58897,-4.70378 2.36137,-8.80062 1.32766,-0.24656 1.03368,7.65313 1.27078,6.75221 0.12328,-0.48368 19.50743,-11.88894 24.63798,-13.09335 5.23484,-1.34663 13.40009,-0.0672 19.30828,-1.90724 3.67008,-1.17595 6.35389,-2.25086 8.62992,-5.75025 l -1.83031,3.88821 c -1.36845,2.21215 -3.51205,3.83506 -6.01249,4.55204 l -12.6093,35.01286 -0.0664,33.85587 -6.01566,8.53512 3.89769,-0.1326 4.15375,-5.4909 -3.05367,6.57204 c 0,0 19.98161,-1.33706 19.98161,-1.19484 0,0.14224 -6.16424,-40.49429 -6.16424,-40.49429 0,0 6.67635,-7.46346 6.8186,-7.56778 0.14224,-0.11376 30.82347,8.19368 30.82347,8.19368 l -3.73645,-4.41011 -3.07264,-1.69754 3.727,1.2328 c 0,0 8.65837,10.48868 8.6963,10.64041 0.0376,0.14224 1.54582,-1.88719 1.54582,-1.88719 l -9.06616,36.79572 12.04395,4.10634 -0.3792,-5.62369 2.88297,6.97983 4.42874,0.294 -2.99677,-7.27372 5.21591,6.33492 2.86398,-0.56888 -5.15898,-7.42548 6.022,-35.84739 -6.94188,-5.48162 -5.3771,-7.2074 5.09257,5.18745 -5.51934,-7.86177 -0.43632,-10.38437 1.93463,8.94289 2.08633,-7.34968 -1.08112,8.58252 4.01148,8.80062 8.023,5.97458 -0.15192,1.37519 9.51857,-2.31398 4.07788,-9.21789 0.35088,-5.70903 0.58792,5.78491 c 0,0 -3.50886,8.49715 -3.50886,8.79113 0,0.28448 4.58048,-4.33392 4.58048,-4.33392 l -5.02622,5.91765 8.03249,14.4907 2.72174,15.79941 2.001,-1.43208 -0.4268,0.56888 -6.44874,8.42131 4.22961,-0.91992 1.64063,-2.59847 -0.72064,3.16748 1.50788,0.076 -0.35088,3.46148 3.14851,-2.8166 2.35189,0.73 0.73017,-4.20116 v 4.26754 l 2.20962,-0.4364 1.07152,3.60372 1.5743,-4.54256 3.082,-0.1428 c -2.93946,-22.30492 -6.82768,-41.75313 -7.87086,-64.05818 -0.1142,-4.24858 -3.67956,-5.36033 -7.52037,-10.27276 -4.48573,-5.16774 -13.64673,-16.21595 -26.64852,-19.31703 -7.0936,-0.84403 -14.31998,0.30352 -22.19124,2.87347 -6.96084,2.03895 -14.1493,-4.73234 -21.96365,-0.98639 1.83979,3.01574 4.27704,5.97457 8.43078,9.48344 1.29923,1.27078 3.64164,1.62166 5.94611,1.44148 -1.5932,0.56904 -3.23384,1.04317 -4.95035,0.14224 -2.79761,-1.89664 -5.10209,-4.2675 -7.30225,-6.77113 -1.33861,-1.66113 -2.46921,-3.47961 -3.36662,-5.41504 -1.32768,-3.01573 0.23712,-6.847039 2.79761,-10.962855 2.32345,-2.854512 4.88398,-5.642648 10.09039,-7.643648 4.68482,-1.86824 9.3886,-3.73648 13.83633,-6.202168 5.02621,-3.262304 13.0492,-13.65616 17.31676,-20.920472 -11.62671,4.267552 -23.24391,7.681592 -34.80422,14.490696 -4.32445,2.968312 -8.56354,7.567784 -12.88799,12.328472 -1.83979,2.086352 -3.83131,4.039944 -6.44875,5.424528 -3.59421,1.925128 -6.06939,0.09488 -7.72899,-1.375096 C 100.1622,87.246965 97.88366,84.205701 95.93459,80.955149 93.37405,77.446277 90.69025,73.927917 86.76411,70.419053 82.24999,66.227365 78.1816,61.390813 74.08475,56.999981 Z m 73.55354,11.503408 -10.24211,12.432784 6.95137,-2.408792 -13.98808,6.856528 z M 99.05464,94.459621 c 0.90093,-0.0192 1.80185,0 2.67433,0.09488 -5.66161,0.43624 -8.25059,1.413008 -13.16301,3.93561 1.80185,-1.375114 2.81658,-2.399314 6.05992,-3.508882 1.42251,-0.31296 2.93038,-0.49312 4.42876,-0.52152 z m 1.57424,7.814349 c 2.79761,0.0472 4.69431,1.28026 4.69431,1.28026 -6.20217,-1.66909 -9.60673,-0.28448 -12.26209,3.77441 -0.31288,-0.25608 1.76392,-3.78389 4.51412,-4.61843 1.10008,-0.33192 2.12429,-0.4552 3.05366,-0.43632 z m -0.47416,2.08636 c 0.5884,-0.0248 1.17763,0.0232 1.75443,0.14224 1.15698,0.40777 1.68805,1.27077 2.25706,2.08636 -1.2044,-1.06215 -2.44673,-1.89668 -3.95459,-1.50788 1.70702,0.18968 2.34241,1.2613 2.58898,2.66484 0.20864,1.88721 -1.41304,2.99677 -2.49416,3.15799 -1.08109,0.16128 -2.46568,-0.11376 -3.26229,-1.28026 -0.22768,-0.47416 -0.83455,-2.21913 0.13288,-3.46145 -1.05639,0.42976 -2.02659,1.04661 -2.864,1.82081 0.73024,-1.06213 1.62166,-1.89669 2.96831,-2.78812 0.8763,-0.50768 1.86184,-0.79712 2.87348,-0.84404 z M 54.38766,127.2734 c 1.45096,1.71649 2.864,3.36661 3.5563,5.64263 0.0949,2.10533 -0.83456,2.05791 -1.74496,2.04844 -0.75864,-0.009 -2.20016,-0.87249 -1.73547,-1.57426 0.44856,-0.91128 0.6388,-1.92806 0.55008,-2.93987 z m -5.31072,0.52152 c 1.13801,1.19491 2.25706,1.99153 2.46569,3.66061 0.0855,0.39832 0.16128,1.3846 -0.62592,1.23285 -2.29499,-2.1717 -0.9104,-1.93461 -1.83031,-4.89345 z"
     style="opacity:0.2;fill:#000000;stroke-width:16"
     id="path2340" />
  <path
     d="m 74.08475,56.000024 6.81858,16.00804 16.6719,19.042752 c -5.40556,0.853504 -10.21367,2.304472 -14.74675,4.039944 -2.56053,1.232848 -5.00726,2.56053 -6.37288,5.26331 l -4.15374,7.35915 c -1.33718,2.70278 -4.17271,3.14957 -6.95136,5.34025 l -11.38012,8.88598 c 2.26653,1.10008 4.29599,2.54155 6.16423,4.24858 -2.01049,-1.10956 -3.96408,-2.27603 -6.30649,-2.89245 -1.63115,-0.25608 -3.24333,-0.23704 -4.73224,0.94834 -1.33716,1.10957 -1.18542,2.98728 -0.9104,4.74171 0.51208,2.71228 2.77865,5.12107 5.35815,6.94189 2.39931,1.07162 4.60894,0.52152 6.73324,-0.73024 1.83977,-1.70702 2.58897,-4.70379 2.36137,-8.80063 1.32766,-0.24656 1.03368,7.65313 1.27078,6.75221 0.12336,-0.48368 19.50743,-11.88894 24.63798,-13.09335 5.23484,-1.34664 13.40009,-0.0672 19.30828,-1.90724 3.67008,-1.17595 6.35389,-2.25086 8.62992,-5.75025 l -1.83031,3.88821 c -1.36845,2.21215 -3.51205,3.83506 -6.01249,4.55204 l -12.6093,35.01286 -0.0664,33.85587 -6.01566,8.53511 3.89769,-0.1328 4.15375,-5.49091 -3.05367,6.57203 c 0,0 19.98161,-1.33712 19.98161,-1.19488 0,0.1424 -6.16424,-40.49428 -6.16424,-40.49428 0,0 6.67634,-7.46346 6.8186,-7.56778 0.14224,-0.11376 30.82347,8.19369 30.82347,8.19369 l -3.73648,-4.40979 -3.07264,-1.69754 3.727,1.23285 c 0,0 8.65838,10.48868 8.69631,10.64042 0.0376,0.1424 1.54581,-1.8872 1.54581,-1.8872 l -9.06616,36.79572 12.04396,4.10634 -0.3792,-5.62369 2.88297,6.97983 4.42875,0.29392 -2.99677,-7.27373 5.21589,6.33495 2.864,-0.56896 -5.15899,-7.42554 6.02199,-35.84738 -6.94188,-5.48149 -5.37708,-7.20741 5.09257,5.18744 -5.51934,-7.86177 -0.43632,-10.38436 1.93463,8.94288 2.08633,-7.34967 -1.08112,8.58251 4.01149,8.80064 8.023,5.97457 -0.152,1.3752 9.51856,-2.31397 4.07788,-9.21789 0.35088,-5.70903 0.588,5.78489 c 0,0 -3.50887,8.49716 -3.50887,8.79115 0,0.28448 4.58049,-4.33393 4.58049,-4.33393 l -5.02622,5.91766 8.03248,14.4907 2.72175,15.7994 2.001,-1.432 -0.42688,0.56896 -6.44874,8.4213 4.22961,-0.91984 1.64062,-2.59848 -0.72064,3.16748 1.50785,0.0752 -0.35088,3.46146 3.14851,-2.81658 2.35189,0.73008 0.73024,-4.20116 v 4.26755 l 2.20964,-0.43632 1.07152,3.60371 1.57424,-4.54257 3.0821,-0.1424 c -2.93946,-22.3049 -6.82768,-41.75311 -7.87084,-64.05817 -0.1144,-4.24858 -3.67959,-5.36033 -7.52039,-10.27276 -4.48574,-5.16774 -13.64673,-16.21595 -26.64852,-19.31703 -7.0936,-0.84403 -14.31998,0.30352 -22.19124,2.87348 -6.96084,2.03894 -14.1493,-4.73235 -21.96365,-0.9864 1.83979,3.01574 4.27704,5.97458 8.43078,9.48343 1.29923,1.27079 3.64164,1.62167 5.94611,1.4415 -1.59321,0.56904 -3.23384,1.04317 -4.95035,0.14224 -2.79761,-1.89665 -5.10209,-4.26751 -7.30225,-6.77114 -1.33861,-1.66113 -2.46921,-3.47961 -3.36662,-5.41504 -1.32768,-3.01573 0.23712,-6.84704 2.79761,-10.962856 2.32345,-2.85452 4.88397,-5.642648 10.09039,-7.643648 4.68482,-1.86824 9.3886,-3.736472 13.83633,-6.202168 5.02621,-3.262304 13.0492,-13.65616 17.31676,-20.920472 -11.62671,4.267552 -23.24391,7.681592 -34.80422,14.490696 -4.32445,2.968312 -8.56354,7.567784 -12.88799,12.328472 -1.83979,2.086352 -3.83131,4.039944 -6.44875,5.424528 -3.59421,1.925128 -6.06939,0.09488 -7.72899,-1.375096 C 100.1622,86.246984 97.88366,83.20572 95.93459,79.955168 93.37405,76.446296 90.69025,72.927936 86.76411,69.419072 82.24999,65.227384 78.1816,60.390832 74.08475,56 Z m 73.55354,11.503408 -10.24211,12.432784 6.95137,-2.408792 -13.98808,6.856528 z M 99.05464,93.459608 c 0.90093,-0.0192 1.80185,0 2.67433,0.09488 -5.66161,0.43624 -8.25059,1.413008 -13.16301,3.93561 1.80185,-1.375106 2.81658,-2.399306 6.05992,-3.508874 1.42251,-0.31288 2.93038,-0.49312 4.42876,-0.52152 z m 1.57424,7.814342 c 2.79761,0.0472 4.69431,1.28027 4.69431,1.28027 -6.20217,-1.66909 -9.60673,-0.28448 -12.26209,3.77441 -0.31288,-0.25608 1.76392,-3.78389 4.51412,-4.61844 1.10008,-0.33192 2.12429,-0.4552 3.05366,-0.43632 z m -0.47416,2.08637 c 0.5884,-0.0248 1.17764,0.0232 1.75444,0.14224 1.15697,0.40776 1.68804,1.27077 2.25705,2.08635 -1.2044,-1.06214 -2.44673,-1.89668 -3.95459,-1.50787 1.70702,0.18968 2.34241,1.2613 2.58898,2.66485 0.20864,1.88721 -1.41304,2.99677 -2.49415,3.15798 -1.08111,0.16128 -2.46569,-0.11376 -3.2623,-1.28025 -0.22768,-0.47416 -0.83455,-2.21913 0.1328,-3.46146 -1.05639,0.42976 -2.02659,1.04661 -2.864,1.82082 0.73024,-1.06215 1.62166,-1.89669 2.96831,-2.78812 0.87631,-0.50768 1.86184,-0.79712 2.87349,-0.84404 z m -45.76707,22.91306 c 1.45096,1.7165 2.864,3.36662 3.5563,5.64264 0.0949,2.10533 -0.83455,2.05791 -1.74495,2.04844 -0.75864,-0.009 -2.20017,-0.87249 -1.73548,-1.57427 0.44856,-0.91128 0.6388,-1.92805 0.55008,-2.93987 z m -5.31072,0.52152 c 1.138,1.19491 2.25706,1.99152 2.46569,3.6606 0.0854,0.39832 0.16128,1.3846 -0.62592,1.23285 -2.295,-2.17168 -0.91042,-1.93459 -1.83031,-4.89343 z"
     style="fill:#ffffff;stroke-width:16"
     id="path2154"
     sodipodi:nodetypes="cccccccccccccccccccccccccccscccccccccccccccccccccccccccccccccsccccccccccccccccccccccccccccccccccccccccccccccccccccccccccccccccccccccccccccccccc" />
  <path
     id="rect899"
     style="fill:#000000;stroke:none;stroke-width:4;opacity:0.5"
     d="M 56,16 C 33.840066,16 16,33.840066 16,56 v 144 c 0,22.15994 17.840066,40 40,40 h 144 c 22.15994,0 40,-17.84006 40,-40 V 56 C 240,33.840066 222.15994,16 200,16 Z m 0,1 h 144 c 21.60598,0 39,17.394022 39,39 v 144 c 0,21.60598 -17.39402,39 -39,39 H 56 C 34.394022,239 17,221.60598 17,200 V 56 C 17,34.394022 34.394022,17 56,17 Z" />
  <path
     id="rect441"
     style="opacity:0.3;fill:#ffffff"
     d="m 17,199 v 1 c 0,21.60598 17.394022,39 39,39 h 144 c 21.60598,0 39,-17.39402 39,-39 v -1 c 0,21.60598 -17.39402,39 -39,39 H 56 C 34.394022,238 17,220.60598 17,199 Z" />
  <path
     id="rect443"
     style="opacity:0.3;fill:#ffffff"
     d="M 56,17 C 34.394022,17 17,34.394022 17,56 v 1 C 17,35.394022 34.394022,18 56,18 h 144 c 21.60598,0 39,17.394022 39,39 V 56 C 239,34.394022 221.60598,17 200,17 Z" />
</svg>
