<?xml version="1.0" encoding="UTF-8" standalone="no"?>
<!-- Created with Inkscape (http://www.inkscape.org/) -->

<svg
   width="256"
   height="256"
   viewBox="0 0 256 256.00001"
   version="1.1"
   id="svg5"
   sodipodi:docname="yast-sound.svg"
   inkscape:version="1.2.1 (9c6d41e410, 2022-07-14)"
   xmlns:inkscape="http://www.inkscape.org/namespaces/inkscape"
   xmlns:sodipodi="http://sodipodi.sourceforge.net/DTD/sodipodi-0.dtd"
   xmlns:xlink="http://www.w3.org/1999/xlink"
   xmlns="http://www.w3.org/2000/svg"
   xmlns:svg="http://www.w3.org/2000/svg">
  <sodipodi:namedview
     id="namedview7"
     pagecolor="#ffffff"
     bordercolor="#666666"
     borderopacity="1.0"
     inkscape:showpageshadow="2"
     inkscape:pageopacity="0.0"
     inkscape:pagecheckerboard="0"
     inkscape:deskcolor="#d1d1d1"
     inkscape:document-units="px"
     showgrid="false"
     inkscape:zoom="2"
     inkscape:cx="-40.25"
     inkscape:cy="150.25"
     inkscape:window-width="1920"
     inkscape:window-height="1007"
     inkscape:window-x="0"
     inkscape:window-y="0"
     inkscape:window-maximized="1"
     inkscape:current-layer="svg5"
     showguides="false" />
  <defs
     id="defs2">
    <linearGradient
       inkscape:collect="always"
       xlink:href="#linearGradient1227"
       id="linearGradient3525"
       x1="49.757847"
       y1="59.623318"
       x2="14.242153"
       y2="4.3766818"
       gradientUnits="userSpaceOnUse"
       gradientTransform="matrix(4.0545454,0,0,4.0545454,-1.745455,-1.745455)" />
    <linearGradient
       inkscape:collect="always"
       id="linearGradient1227">
      <stop
         style="stop-color:#565f76;stop-opacity:1;"
         offset="0"
         id="stop1223" />
      <stop
         style="stop-color:#a3a5b6;stop-opacity:1;"
         offset="1"
         id="stop1225" />
    </linearGradient>
  </defs>
  <rect
     style="fill:url(#linearGradient3525);fill-opacity:1.0;stroke:none;stroke-width:4.05454"
     id="rect184"
     width="223"
     height="223"
     x="16.5"
     y="16.5"
     ry="39.5" />
  <path
     id="path1112"
     style="opacity:0.2;fill:#000000;stroke-width:16;stroke-linecap:round;-inkscape-stroke:none"
     d="m 169.73438,66.097778 c -0.25904,0.0184 -0.51386,0.05648 -0.76562,0.125 -1.0272,0.27148 -1.9042,0.94046 -2.43752,1.859376 -1.10696,1.915416 -0.44888,4.365648 1.46876,5.468748 19.80716,11.435664 32,32.550538 32,55.421868 0,22.87135 -12.19282,43.98621 -32,55.42187 -1.91764,1.1031 -2.57572,3.55332 -1.46876,5.46874 1.1031,1.91766 3.55334,2.57572 5.46876,1.46876 22.27126,-12.85832 36,-36.64272 36,-62.35937 0,-25.71663 -13.72874,-49.501052 -36,-62.359368 -0.45704,-0.26288 -0.96148,-0.432784 -1.48438,-0.5 -0.25892,-0.0324 -0.5222,-0.034 -0.78124,-0.0156 z M 120,68.972778 88,96.972774 H 64 c -8.863976,0 -16,7.136026 -16,15.999996 v 31.99999 c 0,8.86396 7.136024,16 16,16 h 24 l 32,28 z m 26.875,20.359372 c -1.38255,0.09952 -2.63898,0.91136 -3.28125,2.171872 -0.99927,1.967656 -0.21616,4.372848 1.75,5.375 C 157.4129,103.02856 165,115.41163 165,128.95715 c 0,13.54551 -7.5871,25.92857 -19.65625,32.07811 -1.96619,1.00216 -2.74928,3.40736 -1.75,5.37502 1.00215,1.96616 3.40735,2.74926 5.375,1.75 C 163.70376,160.6524 173,145.49464 173,128.95715 c 0,-16.5375 -9.29624,-31.695264 -24.03125,-39.203128 -0.46752,-0.2376 -0.97718,-0.38092 -1.5,-0.421872 -0.20148,-0.0156 -0.39624,-0.0144 -0.59375,0 z" />
  <path
     id="path1855"
     style="fill:#ffffff;fill-opacity:1;stroke-width:16;stroke-linecap:round"
     d="m 170.51562,65.116948 c -0.51784,-0.0648 -1.04332,-0.0276 -1.54686,0.10936 -1.0272,0.27148 -1.9042,0.94046 -2.43752,1.859376 -1.10696,1.91542 -0.44888,4.365648 1.46876,5.468748 19.80718,11.43568 32,32.550508 32,55.421878 0,22.87135 -12.1928,43.98619 -32,55.42185 -1.91764,1.1031 -2.57572,3.55334 -1.46876,5.46876 1.1031,1.91764 3.55334,2.57572 5.46876,1.46876 22.27128,-12.85834 36,-36.64272 36,-62.35937 0,-25.71666 -13.72872,-49.50105 -36,-62.359378 -0.45704,-0.26288 -0.96148,-0.432784 -1.48438,-0.5 z M 120,67.976324 88,95.97632 H 64 c -8.863964,0 -16,7.13603 -16,16 v 32 c 0,8.86394 7.136036,16 16,16 h 24 l 32,28 z m 27.46875,20.359372 c -1.61189,-0.12568 -3.14097,0.73128 -3.875,2.171872 -0.99927,1.967648 -0.21616,4.372848 1.75,5.375 C 157.41292,102.03211 165,114.41516 165,127.96069 c 0,13.54553 -7.58708,25.92857 -19.65625,32.07811 -1.96619,1.00216 -2.74928,3.40736 -1.75,5.37502 1.00215,1.96618 3.40735,2.74926 5.375,1.75 C 163.70378,159.65594 173,144.4982 173,127.96069 c 0,-16.53751 -9.29622,-31.69525 -24.03125,-39.203122 -0.46752,-0.2376 -0.97718,-0.38088 -1.5,-0.42184 z"
     sodipodi:nodetypes="ccccscccsccccsssscccsccscccscss" />
  <path
     id="rect899"
     style="fill:#000000;stroke:none;stroke-width:4;opacity:0.5"
     d="M 56,16 C 33.840066,16 16,33.840066 16,56 v 144 c 0,22.15994 17.840066,40 40,40 h 144 c 22.15994,0 40,-17.84006 40,-40 V 56 C 240,33.840066 222.15994,16 200,16 Z m 0,1 h 144 c 21.60598,0 39,17.394022 39,39 v 144 c 0,21.60598 -17.39402,39 -39,39 H 56 C 34.394022,239 17,221.60598 17,200 V 56 C 17,34.394022 34.394022,17 56,17 Z" />
  <path
     id="rect441"
     style="opacity:0.3;fill:#ffffff"
     d="m 17,199 v 1 c 0,21.60598 17.394022,39 39,39 h 144 c 21.60598,0 39,-17.39402 39,-39 v -1 c 0,21.60598 -17.39402,39 -39,39 H 56 C 34.394022,238 17,220.60598 17,199 Z" />
  <path
     id="rect443"
     style="opacity:0.3;fill:#ffffff"
     d="M 56,17 C 34.394022,17 17,34.394022 17,56 v 1 C 17,35.394022 34.394022,18 56,18 h 144 c 21.60598,0 39,17.394022 39,39 V 56 C 239,34.394022 221.60598,17 200,17 Z" />
</svg>
