<?xml version="1.0" encoding="UTF-8" standalone="no"?>
<svg
   version="1.1"
   viewBox="0 0 22 22"
   id="svg5"
   sodipodi:docname="user-trash-full.svg"
   inkscape:version="1.2.1 (9c6d41e410, 2022-07-14)"
   width="22"
   height="22"
   xmlns:inkscape="http://www.inkscape.org/namespaces/inkscape"
   xmlns:sodipodi="http://sodipodi.sourceforge.net/DTD/sodipodi-0.dtd"
   xmlns:xlink="http://www.w3.org/1999/xlink"
   xmlns="http://www.w3.org/2000/svg"
   xmlns:svg="http://www.w3.org/2000/svg">
  <defs
     id="defs9">
    <linearGradient
       inkscape:collect="always"
       id="linearGradient6624">
      <stop
         style="stop-color:#a7afb4;stop-opacity:1;"
         offset="0"
         id="stop6620" />
      <stop
         style="stop-color:#c2ced4;stop-opacity:1"
         offset="1"
         id="stop6622" />
    </linearGradient>
    <linearGradient
       inkscape:collect="always"
       xlink:href="#linearGradient6624"
       id="linearGradient6626"
       x1="16"
       y1="23"
       x2="6"
       y2="-1"
       gradientUnits="userSpaceOnUse"
       gradientTransform="translate(-2,-0.99956979)" />
  </defs>
  <sodipodi:namedview
     id="namedview7"
     pagecolor="#ffffff"
     bordercolor="#666666"
     borderopacity="1.0"
     inkscape:pageshadow="2"
     inkscape:pageopacity="0.0"
     inkscape:pagecheckerboard="0"
     showgrid="false"
     inkscape:zoom="8"
     inkscape:cx="-25"
     inkscape:cy="19.6875"
     inkscape:window-width="1920"
     inkscape:window-height="1009"
     inkscape:window-x="0"
     inkscape:window-y="0"
     inkscape:window-maximized="1"
     inkscape:current-layer="svg5"
     inkscape:showpageshadow="2"
     inkscape:deskcolor="#d1d1d1" />
  <style
     type="text/css"
     id="current-color-scheme">
        .ColorScheme-Text {
            color:#232629;
        }
    </style>
  <path
     id="rect954"
     style="opacity:1;fill:url(#linearGradient6626);fill-opacity:1;stroke-width:1.00885"
     d="M 2,6.0004302 V 20.00043 c 0,0.552285 0.4477153,1 1,1 h 12 c 0.552285,0 1,-0.447715 1,-1 V 6.0004302 Z"
     sodipodi:nodetypes="csssscc" />
  <path
     id="rect1810"
     style="opacity:0.2;fill:#000000;fill-opacity:1;stroke-width:0.552702"
     d="M 4,8.0004302 V 18.00043 H 5 V 8.0004302 Z m 3,0 V 18.00043 H 8 V 8.0004302 Z m 3,0 V 18.00043 h 1 V 8.0004302 Z m 3,0 V 18.00043 h 1 V 8.0004302 Z"
     sodipodi:nodetypes="cccccccccccccccccccc" />
  <path
     id="rect6279"
     style="opacity:0.2;fill:#000000;fill-opacity:1;stroke-width:1.73205"
     d="m 2,19.00043 v 1 c 0,0.554 0.446,1 1,1 h 12 c 0.554,0 1,-0.446 1,-1 v -1 c 0,0.554 -0.446,1 -1,1 H 3 c -0.554,0 -1,-0.446 -1,-1 z" />
  <g
     id="g7880"
     transform="rotate(85,9.650228,11.039516)">
    <path
       d="M 8,0 C 7.4477153,0 7.0000003,0.4477153 7.0000003,1 v 2 h -4 c -0.552285,0 -1,0.4477153 -1,1 V 5 H 20 V 3.9648438 C 19.98184,3.4396811 19.560319,3.0181598 19.035156,3 H 15 V 1 C 15,0.4477153 14.552285,0 14,0 Z m 1,2 h 4 V 3 H 9 Z"
       style="opacity:1;fill:#c2ced4;fill-opacity:1;stroke-width:1.00885"
       id="path7556" />
    <rect
       style="opacity:0.2;fill:#000000;fill-opacity:1"
       id="rect3297"
       width="18"
       height="1"
       x="2"
       y="4" />
    <path
       id="rect5186"
       style="opacity:0.2;stroke-width:0.887914"
       d="m 8,1 h 6 V 3 H 13 V 2 H 9 V 3 H 8 Z"
       sodipodi:nodetypes="ccccccccc" />
  </g>
  <path
     id="rect8041"
     style="opacity:0.9;fill:#ffffff;stroke-width:0.964004"
     d="m 4,6.0004302 h 10 l -3,2 -1,-1 -4,2 z"
     sodipodi:nodetypes="cccccc" />
  <path
     id="rect8618"
     style="opacity:1;fill:#8b6039;fill-opacity:1;stroke-width:3.11905"
     d="m 5,4.0004302 2,2 6,-3 2,3 H 3 Z"
     sodipodi:nodetypes="cccccc" />
</svg>
