<?xml version="1.0" encoding="UTF-8" standalone="no"?>
<!-- Created with Inkscape (http://www.inkscape.org/) -->

<svg
   width="48"
   height="48"
   viewBox="0 0 48 48"
   version="1.1"
   id="svg5"
   inkscape:version="1.2.1 (9c6d41e410, 2022-07-14)"
   sodipodi:docname="application-vnd.ms-powerpoint.template.macroenabled.12.svg"
   xmlns:inkscape="http://www.inkscape.org/namespaces/inkscape"
   xmlns:sodipodi="http://sodipodi.sourceforge.net/DTD/sodipodi-0.dtd"
   xmlns="http://www.w3.org/2000/svg"
   xmlns:svg="http://www.w3.org/2000/svg">
  <sodipodi:namedview
     id="namedview7"
     pagecolor="#ffffff"
     bordercolor="#000000"
     borderopacity="0.25"
     inkscape:showpageshadow="2"
     inkscape:pageopacity="0.0"
     inkscape:pagecheckerboard="0"
     inkscape:deskcolor="#d1d1d1"
     inkscape:document-units="px"
     showgrid="false"
     inkscape:zoom="16.458333"
     inkscape:cx="24.09114"
     inkscape:cy="24.03038"
     inkscape:window-width="1920"
     inkscape:window-height="1007"
     inkscape:window-x="0"
     inkscape:window-y="0"
     inkscape:window-maximized="1"
     inkscape:current-layer="svg5" />
  <defs
     id="defs2" />
  <rect
     style="opacity:0.3;fill:#000000;fill-opacity:1;stroke-width:2;stroke-linejoin:round"
     id="rect234"
     width="36"
     height="44"
     x="6"
     y="2"
     ry="1" />
  <rect
     style="fill:#fafafa;fill-opacity:1;stroke-width:2.31345;stroke-linejoin:round"
     id="rect2307"
     width="34"
     height="42"
     x="7"
     y="3" />
  <circle
     style="opacity:0.3;fill:#d04423;stroke-width:8.00001;stroke-linejoin:bevel;fill-opacity:1"
     id="path31463"
     cx="26.000008"
     cy="23.999998"
     r="11.999998" />
  <path
     id="path31465"
     style="opacity:0.7;fill:#d04423;stroke-width:6;stroke-linejoin:bevel;fill-opacity:1"
     d="M 14.000001,24 A 11.999999,11.999999 0 0 0 25.999998,36 11.999999,11.999999 0 0 0 37.999995,24 H 25.999998 Z" />
  <path
     id="path31759"
     style="opacity:0.5;fill:#d04423;stroke-width:6;stroke-linejoin:bevel;fill-opacity:1"
     d="M 25.999998,12.000001 A 11.999998,11.999999 0 0 0 14.000001,24 h 11.999997 z" />
  <rect
     style="fill:#fafafa;fill-opacity:1;stroke-width:0.999999"
     id="rect3242"
     width="15.999999"
     height="15.999999"
     x="9"
     y="16.000011"
     ry="1.9999999" />
  <rect
     style="fill:#d04423;stroke-width:0.999999;fill-opacity:1"
     id="rect2687"
     width="14"
     height="14"
     x="10"
     y="17.000013"
     ry="0.99999994" />
  <path
     id="path5021"
     style="fill:#ffffff;fill-opacity:1;stroke-width:1.16666"
     d="M 14.000001,19.000001 V 29.000002 H 16 v -3 h 1.5 c 1.932996,0 3.500001,-1.567005 3.500001,-3.500001 0,-1.932995 -1.567005,-3.5 -3.500001,-3.5 H 16 Z m 1.999999,2 h 1.5 c 0.828427,0 1.5,0.671574 1.5,1.5 0,0.828427 -0.671573,1.5 -1.5,1.5 H 16 Z"
     sodipodi:nodetypes="ccccssscccssscc" />
  <path
     id="path27198"
     style="color:#000000;opacity:0.8;fill:#e9e9e9;fill-rule:evenodd;-inkscape-stroke:none"
     d="M 41,26.707031 22.707031,45 H 41 Z m -3,6.919922 V 42 h -7.166016 -1.207031 z" />
  <path
     style="color:#000000;opacity:0.8;fill:#83899a;fill-rule:evenodd;-inkscape-stroke:none"
     d="M 42,24.292969 20.292969,46 H 21.5 42 Z m -1,2.414062 V 45 H 22.707031 Z M 38,33.626953 29.626953,42 H 30.833984 38 Z m -1,2.414063 V 41 h -4.958984 z"
     id="path27200" />
</svg>
