<?xml version="1.0" encoding="UTF-8" standalone="no"?>
<!-- Created with Inkscape (http://www.inkscape.org/) -->

<svg
   width="48"
   height="48"
   viewBox="0 0 48 48"
   version="1.1"
   id="svg5"
   inkscape:version="1.2.1 (9c6d41e410, 2022-07-14)"
   sodipodi:docname="application-x-theme.svg"
   xmlns:inkscape="http://www.inkscape.org/namespaces/inkscape"
   xmlns:sodipodi="http://sodipodi.sourceforge.net/DTD/sodipodi-0.dtd"
   xmlns="http://www.w3.org/2000/svg"
   xmlns:svg="http://www.w3.org/2000/svg">
  <sodipodi:namedview
     id="namedview7"
     pagecolor="#ffffff"
     bordercolor="#000000"
     borderopacity="0.25"
     inkscape:showpageshadow="2"
     inkscape:pageopacity="0.0"
     inkscape:pagecheckerboard="0"
     inkscape:deskcolor="#d1d1d1"
     inkscape:document-units="px"
     showgrid="false"
     inkscape:zoom="16.458333"
     inkscape:cx="24.03038"
     inkscape:cy="24.03038"
     inkscape:window-width="1920"
     inkscape:window-height="1007"
     inkscape:window-x="0"
     inkscape:window-y="0"
     inkscape:window-maximized="1"
     inkscape:current-layer="svg5" />
  <defs
     id="defs2" />
  <rect
     style="opacity:0.3;fill:#000000;fill-opacity:1;stroke-width:2;stroke-linejoin:round"
     id="rect234"
     width="36"
     height="44"
     x="6"
     y="2"
     ry="1" />
  <rect
     style="fill:#fafafa;fill-opacity:1;stroke-width:2.31345;stroke-linejoin:round"
     id="rect2307"
     width="34"
     height="42"
     x="7"
     y="3" />
  <path
     d="m 33.391445,14.009069 c -1.505795,-0.189812 -5.433832,2.502663 -9.305103,6.375461 -1.726358,1.727401 -3.224619,3.434448 -4.372144,5.044566 1.344917,0.428492 2.428831,1.511692 2.8571,2.8571 1.609506,-1.147856 3.320426,-2.639592 5.047356,-4.366565 4.392107,-4.393931 7.161403,-8.746781 6.185732,-9.723623 -0.100289,-0.101 -0.237103,-0.164384 -0.412941,-0.186939 z m -14.39152,13.320109 v 0.0028 c -4.999655,1.340287 -1.25019,4.50628 -4.999925,6.66839 4.999655,0 7.499886,-2.502565 7.499886,-4.171252 0,-0.831816 0.08479,-2.361535 -2.499961,-2.499961 z"
     style="color:#444444;fill:#a47fdc;fill-opacity:1;stroke-width:1.42855"
     id="path347"
     sodipodi:nodetypes="ccccccccccscc" />
</svg>
