<?xml version="1.0" encoding="UTF-8" standalone="no"?>
<!-- Created with Inkscape (http://www.inkscape.org/) -->

<svg
   width="48"
   height="48"
   viewBox="0 0 48 48"
   version="1.1"
   id="svg5"
   inkscape:version="1.2.1 (9c6d41e410, 2022-07-14)"
   sodipodi:docname="application-x-desktop.svg"
   xmlns:inkscape="http://www.inkscape.org/namespaces/inkscape"
   xmlns:sodipodi="http://sodipodi.sourceforge.net/DTD/sodipodi-0.dtd"
   xmlns="http://www.w3.org/2000/svg"
   xmlns:svg="http://www.w3.org/2000/svg">
  <sodipodi:namedview
     id="namedview7"
     pagecolor="#ffffff"
     bordercolor="#000000"
     borderopacity="0.25"
     inkscape:showpageshadow="2"
     inkscape:pageopacity="0.0"
     inkscape:pagecheckerboard="0"
     inkscape:deskcolor="#d1d1d1"
     inkscape:document-units="px"
     showgrid="false"
     inkscape:zoom="16.458333"
     inkscape:cx="24"
     inkscape:cy="24"
     inkscape:window-width="1920"
     inkscape:window-height="1012"
     inkscape:window-x="0"
     inkscape:window-y="0"
     inkscape:window-maximized="1"
     inkscape:current-layer="svg5" />
  <defs
     id="defs2" />
  <rect
     style="opacity:0.3;fill:#000000;fill-opacity:1;stroke-width:2;stroke-linejoin:round"
     id="rect234"
     width="36"
     height="44"
     x="6"
     y="2"
     ry="1" />
  <rect
     style="fill:#fafafa;fill-opacity:1;stroke-width:2.31345;stroke-linejoin:round"
     id="rect2307"
     width="34"
     height="42"
     x="7"
     y="3" />
  <path
     d="m 22.285714,12 c -0.308512,0 -0.565606,1.191586 -0.716518,2.894531 -0.798213,0.217841 -1.56428,0.539803 -2.27846,0.95759 -1.316183,-1.103097 -2.344314,-1.768967 -2.563057,-1.550224 l -2.425782,2.425782 c -0.218743,0.218743 0.447127,1.246874 1.550224,2.563057 -0.414881,0.714611 -0.734021,1.48066 -0.949219,2.27846 C 13.195186,21.719963 12,21.976685 12,22.285714 v 3.428572 c 0,0.308512 1.191586,0.565606 2.894531,0.716518 0.216369,0.799781 0.537212,1.567554 0.954241,2.283482 -1.100589,1.313826 -1.765355,2.339555 -1.546875,2.558035 l 2.425782,2.425782 c 0.218274,0.218274 1.242712,-0.444905 2.554687,-1.543527 0.717581,0.413231 1.486472,0.730131 2.28683,0.942522 C 21.719963,34.804814 21.976685,36 22.285714,36 h 3.428572 c 0.308512,0 0.565606,-1.191586 0.716518,-2.894531 0.798213,-0.217841 1.56428,-0.539803 2.27846,-0.95759 1.316183,1.103097 2.344314,1.768967 2.563057,1.550224 l 2.425782,-2.425782 c 0.218743,-0.218743 -0.447127,-1.246874 -1.550224,-2.563057 0.414881,-0.714611 0.734021,-1.48066 0.949219,-2.27846 C 34.804814,26.280037 36,26.023315 36,25.714286 v -3.428572 c 0,-0.308512 -1.191586,-0.565606 -2.894531,-0.716518 -0.216369,-0.799781 -0.537212,-1.567554 -0.954241,-2.283482 1.100589,-1.313826 1.765355,-2.339555 1.546875,-2.558035 l -2.425782,-2.425782 c -0.218274,-0.218274 -1.242712,0.444905 -2.554687,1.543527 -0.717581,-0.413231 -1.486472,-0.730131 -2.28683,-0.942522 C 26.280037,13.195186 26.023315,12 25.714286,12 Z M 24,19.714286 c 2.366934,0 4.285714,1.91878 4.285714,4.285714 0,2.366934 -1.91878,4.285714 -4.285714,4.285714 -2.366934,0 -4.285714,-1.91878 -4.285714,-4.285714 0,-2.366934 1.91878,-4.285714 4.285714,-4.285714 z"
     style="color:#000000;clip-rule:nonzero;display:inline;overflow:visible;visibility:visible;isolation:auto;mix-blend-mode:normal;color-interpolation:sRGB;color-interpolation-filters:linearRGB;solid-color:#000000;solid-opacity:1;fill:#5e6c83;fill-opacity:1;fill-rule:nonzero;stroke:none;stroke-width:1;stroke-linecap:butt;stroke-linejoin:miter;stroke-miterlimit:4;stroke-dasharray:none;stroke-dashoffset:0;stroke-opacity:1;marker:none;color-rendering:auto;image-rendering:auto;shape-rendering:auto;text-rendering:auto;enable-background:accumulate"
     id="path3854" />
</svg>
