<?xml version="1.0" encoding="UTF-8" standalone="no"?>
<!-- Created with Inkscape (http://www.inkscape.org/) -->

<svg
   width="48"
   height="48"
   viewBox="0 0 48 48"
   version="1.1"
   id="svg4041"
   sodipodi:docname="application-x-deb.svg"
   inkscape:version="1.2.1 (9c6d41e410, 2022-07-14)"
   xmlns:inkscape="http://www.inkscape.org/namespaces/inkscape"
   xmlns:sodipodi="http://sodipodi.sourceforge.net/DTD/sodipodi-0.dtd"
   xmlns="http://www.w3.org/2000/svg"
   xmlns:svg="http://www.w3.org/2000/svg">
  <sodipodi:namedview
     id="namedview4043"
     pagecolor="#ffffff"
     bordercolor="#000000"
     borderopacity="0.25"
     inkscape:showpageshadow="2"
     inkscape:pageopacity="0.0"
     inkscape:pagecheckerboard="0"
     inkscape:deskcolor="#d1d1d1"
     inkscape:document-units="px"
     showgrid="false"
     showguides="false"
     inkscape:zoom="6.388067"
     inkscape:cx="4.1483598"
     inkscape:cy="33.734775"
     inkscape:window-width="1920"
     inkscape:window-height="1007"
     inkscape:window-x="0"
     inkscape:window-y="0"
     inkscape:window-maximized="1"
     inkscape:current-layer="svg4041" />
  <defs
     id="defs4038" />
  <rect
     style="opacity:0.6;fill:#7d0a34;fill-opacity:1;stroke-width:3;stroke-linecap:round;stroke-linejoin:round"
     id="rect4577"
     width="42"
     height="36"
     x="3"
     y="6"
     ry="1" />
  <rect
     style="opacity:1;fill:#e68cac;fill-opacity:1;stroke-width:3;stroke-linecap:round;stroke-linejoin:round"
     id="rect4891"
     width="40"
     height="34"
     x="4"
     y="7" />
  <path
     style="fill:#ffffff;stroke-width:2.00111"
     d="m 13.01914,20.081661 c 0.132474,-0.39602 0.156087,-0.633752 0.206715,-0.864281 -0.365003,0.456254 -0.168294,0.553508 -0.206715,0.864281 m 0.674575,-2.752932 c 0.06584,0.594331 -0.457454,0.82606 0.115665,0.433441 0.307771,-0.677177 -0.119667,-0.187304 -0.115665,-0.433441 m 10.016376,-5.204698 c 0.285359,-0.101857 0.70059,-0.05603 1.004559,-0.123068 -0.39522,0.03222 -0.788039,0.05163 -1.175854,0.09986 l 0.171375,0.02317 m 9.166503,11.102181 -0.06183,0.152345 c -0.114064,0.788839 -0.360201,1.569274 -0.73641,2.293277 0.416232,-0.763626 0.684381,-1.599092 0.798444,-2.445562 m -11.601265,2.464973 c -0.147482,-0.158889 -0.233129,-0.349795 -0.330983,-0.540501 0.09325,0.334186 0.283957,0.621546 0.461056,0.914109 l -0.130073,-0.373408 m -0.655363,0.02501 -0.05963,0.288958 c 0.277555,0.368408 0.497877,0.767428 0.851674,1.054388 -0.254742,-0.485471 -0.443647,-0.685982 -0.79204,-1.343348 m 3.454922,-13.272388 -0.158868,0.0323 0.147602,-0.01321 0.01121,-0.01909 m -0.44905,-0.122068 c 0.225326,0.03919 0.486811,0.06956 0.44923,0.12226 0.247678,-0.05319 0.302709,-0.101212 -0.44907,-0.122224 m 4.699417,10.150251 c 0.05139,-0.742693 -0.149384,-0.507562 -0.216861,-0.224665 0.0785,0.04028 0.140898,0.523832 0.216861,0.224665 m -0.835586,2.126384 c 0.252141,-0.339189 0.436243,-0.710195 0.500279,-1.093809 -0.05803,0.273152 -0.208116,0.509284 -0.352196,0.758623 -0.788039,0.48547 -0.07404,-0.288161 0,-0.582525 -0.847672,1.043982 -0.116065,0.625949 -0.148083,0.917711 m -2.26386,0.551105 c -0.421855,0.0054 0.07934,0.211958 0.630251,0.295044 0.152765,-0.116464 0.289981,-0.23349 0.41311,-0.347753 -0.342511,0.08198 -0.691505,0.08391 -1.043341,0.05271 M 13.020284,20.081928 c 0.132474,-0.396621 0.156087,-0.634554 0.206715,-0.864482 -0.365203,0.456454 -0.168293,0.553909 -0.206715,0.864482 m 0.674176,-2.752933 c 0.06584,0.594531 -0.457255,0.82566 0.115864,0.433041 0.307772,-0.677177 -0.119666,-0.186704 -0.115864,-0.433041 M 23.710035,12.123097 C 23.994933,12.021252 24.410845,12.06707 24.714114,12 c -0.39474,0.03229 -0.787499,0.05161 -1.175174,0.09991 l 0.171115,0.02318 m 9.166904,11.103181 -0.06183,0.152345 c -0.114063,0.789039 -0.3602,1.569474 -0.73641,2.293477 0.416232,-0.763625 0.684381,-1.59909 0.798445,-2.445562 m -11.600663,2.464571 c -0.146882,-0.158889 -0.23313,-0.349993 -0.330983,-0.539901 0.09325,0.334386 0.284157,0.621548 0.461256,0.914109 l -0.130273,-0.374208 m -0.655364,0.02481 -0.05963,0.288961 c 0.277554,0.368605 0.497876,0.767628 0.851673,1.054587 -0.254742,-0.48547 -0.443646,-0.685982 -0.79204,-1.343548 m 3.454522,-13.272587 -0.158408,0.03229 0.147682,-0.01325 0.01081,-0.01905 m 6.291503,10.337556 c 0.02327,0.623587 -0.182261,0.926616 -0.368165,1.462494 l -0.334286,0.165973 c -0.273272,0.530155 0.02714,0.336587 -0.168574,0.75808 -0.427097,0.378651 -1.29428,1.184479 -1.571855,1.258261 -0.202953,-0.0046 0.137277,-0.239014 0.181761,-0.330645 -0.572318,0.39142 -0.458255,0.587528 -1.332141,0.82586 l -0.02541,-0.05703 C 24.594964,27.875637 21.603098,25.870921 21.64232,23.136 c -0.02281,0.173497 -0.06544,0.130072 -0.113063,0.199711 -0.111062,-1.406983 0.651162,-2.82017 1.936478,-3.397892 1.2573,-0.621145 2.731321,-0.366604 3.631822,0.472063 -0.495076,-0.64696 -1.479824,-1.332742 -2.646073,-1.269306 -1.143037,0.01861 -2.212632,0.743614 -2.569231,1.531052 -0.585326,0.367805 -0.653564,1.41879 -0.908505,1.611097 -0.343611,2.519202 0.645559,3.607008 2.319091,4.887719 0.262666,0.177059 0.07394,0.204174 0.1091,0.338909 -0.555909,-0.259745 -1.064592,-0.652163 -1.483426,-1.132431 0.222324,0.324383 0.462058,0.639757 0.77203,0.887695 -0.524492,-0.176899 -1.224882,-1.268104 -1.428795,-1.312531 0.903503,1.615099 3.665441,2.831977 5.112446,2.22764 -0.669573,0.02602 -1.519846,0.01401 -2.271665,-0.262946 -0.316776,-0.162491 -0.745615,-0.498278 -0.668772,-0.560913 1.974259,0.73587 4.013034,0.55701 5.720785,-0.80969 0.434862,-0.338129 0.909546,-0.912929 1.046823,-0.920693 -0.206575,0.310233 0.03542,0.149183 -0.123329,0.423058 0.432281,-0.697151 -0.188485,-0.283921 0.447269,-1.203871 l 0.234751,0.32264 c -0.08789,-0.579203 0.720021,-1.281674 0.637815,-2.197023 0.185363,-0.279776 0.206575,0.301488 0.01001,0.945206 0.272751,-0.714198 0.07214,-0.829062 0.141939,-1.41867 0.07524,0.19823 0.175277,0.408588 0.226226,0.617924 -0.177879,-0.690444 0.181761,-1.162287 0.271211,-1.56369 -0.08841,-0.03872 -0.274313,0.30509 -0.317217,-0.510024 0.0066,-0.354137 0.09903,-0.185582 0.134435,-0.272812 -0.0693,-0.04 -0.252081,-0.311534 -0.363002,-0.832143 0.07988,-0.122609 0.215099,0.317216 0.324721,0.335026 -0.07058,-0.41377 -0.191827,-0.729426 -0.19701,-1.047143 -0.320579,-0.668512 -0.113503,0.08932 -0.373068,-0.28702 -0.34127,-1.061871 0.282858,-0.246497 0.325241,-0.728645 0.516568,0.747236 0.811032,1.906241 0.946767,2.385928 -0.103417,-0.585126 -0.27017,-1.152201 -0.474164,-1.700687 0.157448,0.06634 -0.253101,-1.20363 0.204494,-0.362642 -0.490353,-1.792418 -2.090164,-3.46733 -3.562583,-4.253168 0.18012,0.164486 0.407787,0.370867 0.326481,0.403405 -0.732411,-0.435042 -0.60434,-0.469462 -0.710399,-0.653164 -0.596332,-0.242335 -0.634353,0.01981 -1.030574,6.01e-4 -1.123625,-0.595932 -1.340146,-0.532497 -2.374522,-0.905304 l 0.04707,0.219922 c -0.744814,-0.247938 -0.867883,0.09345 -1.672931,4e-4 -0.04883,-0.03782 0.258144,-0.138277 0.510884,-0.174697 -0.720201,0.09505 -0.686582,-0.141879 -1.391374,0.02601 0.173496,-0.121468 0.357599,-0.202313 0.542702,-0.30557 -0.587127,0.03562 -1.402381,0.34119 -1.150841,0.06303 -0.957932,0.426838 -2.659279,1.025971 -3.614011,1.919869 l -0.03002,-0.200311 c -0.437443,0.524092 -1.907862,1.565671 -2.024927,2.24545 l -0.117265,0.02702 c -0.227127,0.384814 -0.374809,0.820857 -0.555309,1.216477 -0.297566,0.506682 -0.436443,0.195109 -0.39402,0.274553 -0.585526,1.18526 -0.876888,2.181215 -1.128028,2.998269 0.1789,0.267149 0.0046,1.608696 0.07204,2.682093 -0.293763,5.302551 3.727476,10.451417 8.123122,11.638078 0.644158,0.232129 1.602092,0.224125 2.417146,0.246137 -0.961336,-0.274153 -1.085405,-0.146081 -2.022326,-0.472263 -0.675577,-0.318177 -0.823459,-0.680379 -1.302125,-1.094609 l 0.189505,0.334246 c -0.938521,-0.332176 -0.545903,-0.41022 -1.309728,-0.652354 l 0.202513,-0.262146 c -0.302769,-0.02401 -0.804248,-0.512286 -0.941925,-0.784437 l -0.333005,0.01321 C 18.62438,32.589361 18.411062,32.235164 18.42687,31.95901 l -0.107659,0.192107 C 18.197543,31.941 16.847991,30.302088 17.547981,30.6843 17.417909,30.566235 17.245012,30.492194 17.057508,30.152004 l 0.142463,-0.16235 c -0.336387,-0.434242 -0.619945,-0.988551 -0.598133,-1.172653 0.1797,0.242135 0.30417,0.286159 0.427839,0.328183 -0.850874,-2.107174 -0.898701,-0.116065 -1.542659,-2.144795 l 0.135981,-0.01081 c -0.104258,-0.157683 -0.168293,-0.327778 -0.25194,-0.495271 l 0.05943,-0.589929 c -0.612141,-0.706993 -0.170895,-3.006271 -0.08225,-4.266973 0.06063,-0.512686 0.511085,-1.05899 0.852475,-1.915066 l -0.208316,-0.03542 c 0.398622,-0.693986 2.275667,-2.787552 3.145351,-2.680092 0.421035,-0.528094 -0.08385,-0.002 -0.166292,-0.134675 0.925315,-0.955732 1.216277,-0.675176 1.840624,-0.847272 0.672974,-0.398822 -0.577921,0.155887 -0.258944,-0.152085 1.164247,-0.296565 0.824858,-0.674775 2.343304,-0.825259 0.160289,0.09085 -0.371607,0.140478 -0.505081,0.258344 0.969539,-0.473864 3.068708,-0.365604 4.432868,0.262746 1.58168,0.738611 3.35867,2.920426 3.43071,4.973169 l 0.07988,0.02142 c -0.04032,0.816154 0.12513,1.759999 -0.16209,2.626662 l 0.194168,-0.410649 M 23.625354,12.320006 c 0.225325,0.03919 0.486791,0.06955 0.44923,0.122268 0.247338,-0.05327 0.302968,-0.101292 -0.44923,-0.122268 m 4.700817,10.151052 c 0.05139,-0.742714 -0.149363,-0.507563 -0.216861,-0.224665 0.0785,0.0403 0.140899,0.523851 0.216861,0.224665 m -0.836466,2.126384 c 0.252141,-0.339189 0.436243,-0.710196 0.500279,-1.093809 -0.05803,0.273152 -0.208116,0.509083 -0.352196,0.758622 -0.788039,0.48547 -0.07404,-0.28816 0,-0.582524 -0.847672,1.043981 -0.116065,0.625948 -0.148083,0.917711 m -2.26346,0.551705 c -0.421835,0.0054 0.07924,0.211918 0.630151,0.294964 0.152685,-0.116465 0.289961,-0.23353 0.41303,-0.347794 -0.342391,0.08205 -0.691385,0.08405 -1.043181,0.05283"
     id="path9184" />
</svg>
