<?xml version="1.0" encoding="UTF-8" standalone="no"?>
<!-- Created with Inkscape (http://www.inkscape.org/) -->

<svg
   width="48"
   height="48"
   viewBox="0 0 48 48"
   version="1.1"
   id="svg5"
   inkscape:version="1.2.1 (9c6d41e410, 2022-07-14)"
   sodipodi:docname="audio-x-generic.svg"
   xmlns:inkscape="http://www.inkscape.org/namespaces/inkscape"
   xmlns:sodipodi="http://sodipodi.sourceforge.net/DTD/sodipodi-0.dtd"
   xmlns="http://www.w3.org/2000/svg"
   xmlns:svg="http://www.w3.org/2000/svg">
  <sodipodi:namedview
     id="namedview7"
     pagecolor="#ffffff"
     bordercolor="#000000"
     borderopacity="0.25"
     inkscape:showpageshadow="2"
     inkscape:pageopacity="0.0"
     inkscape:pagecheckerboard="0"
     inkscape:deskcolor="#d1d1d1"
     inkscape:document-units="px"
     showgrid="false"
     inkscape:zoom="16.458333"
     inkscape:cx="24"
     inkscape:cy="24"
     inkscape:window-width="1920"
     inkscape:window-height="1012"
     inkscape:window-x="0"
     inkscape:window-y="0"
     inkscape:window-maximized="1"
     inkscape:current-layer="svg5" />
  <defs
     id="defs2" />
  <rect
     style="opacity:0.3;fill:#000000;fill-opacity:1;stroke-width:2;stroke-linejoin:round"
     id="rect234"
     width="36"
     height="44"
     x="6"
     y="2"
     ry="1" />
  <rect
     style="fill:#fafafa;fill-opacity:1;stroke-width:2.31345;stroke-linejoin:round"
     id="rect2307"
     width="34"
     height="42"
     x="7"
     y="3" />
  <path
     d="m 32.445503,12.009963 c -0.108835,-0.01895 -0.227605,-0.01107 -0.353515,0.02539 l -12.183594,3.527344 c -0.503639,0.145837 -0.908203,0.709672 -0.908203,1.263672 v 13.511719 c -0.870948,-0.376328 -1.900382,-0.438401 -2.882812,-0.173829 -2.154814,0.584184 -3.505906,2.551792 -3.017579,4.394532 0.488754,1.841328 2.62967,2.860645 4.783203,2.277344 1.774251,-0.483156 3.052032,-1.929487 3.109376,-3.519532 l 0.0078,-0.273438 v -12.39453 l 10,-2.894532 v 9.583985 c -0.870948,-0.376328 -1.900382,-0.438401 -2.882812,-0.173829 -2.154814,0.584184 -3.505906,2.551792 -3.017579,4.394532 0.488754,1.841328 2.62967,2.860645 4.783203,2.277344 1.774251,-0.483156 3.052032,-1.929487 3.109376,-3.519532 l 0.0078,-0.105469 V 12.771681 c 0,-0.4155 -0.22818,-0.704858 -0.554688,-0.761718 z"
     style="color:#000000;clip-rule:nonzero;display:inline;overflow:visible;visibility:visible;isolation:auto;mix-blend-mode:normal;color-interpolation:sRGB;color-interpolation-filters:linearRGB;solid-color:#000000;solid-opacity:1;fill:#ff7f2a;fill-opacity:1;fill-rule:nonzero;stroke:none;stroke-width:1.00001;stroke-linecap:butt;stroke-linejoin:miter;stroke-miterlimit:4;stroke-dasharray:none;stroke-dashoffset:0;stroke-opacity:1;marker:none;color-rendering:auto;image-rendering:auto;shape-rendering:auto;text-rendering:auto;enable-background:accumulate"
     id="path1117" />
</svg>
