<?xml version="1.0" encoding="UTF-8" standalone="no"?>
<!-- Created with Inkscape (http://www.inkscape.org/) -->

<svg
   width="48"
   height="48"
   viewBox="0 0 48 48"
   version="1.1"
   id="svg5"
   inkscape:version="1.2.1 (9c6d41e410, 2022-07-14)"
   sodipodi:docname="playlist.svg"
   xmlns:inkscape="http://www.inkscape.org/namespaces/inkscape"
   xmlns:sodipodi="http://sodipodi.sourceforge.net/DTD/sodipodi-0.dtd"
   xmlns="http://www.w3.org/2000/svg"
   xmlns:svg="http://www.w3.org/2000/svg">
  <sodipodi:namedview
     id="namedview7"
     pagecolor="#ffffff"
     bordercolor="#000000"
     borderopacity="0.25"
     inkscape:showpageshadow="2"
     inkscape:pageopacity="0.0"
     inkscape:pagecheckerboard="0"
     inkscape:deskcolor="#d1d1d1"
     inkscape:document-units="px"
     showgrid="false"
     inkscape:zoom="17.104167"
     inkscape:cx="24"
     inkscape:cy="24"
     inkscape:window-width="1920"
     inkscape:window-height="1007"
     inkscape:window-x="0"
     inkscape:window-y="0"
     inkscape:window-maximized="1"
     inkscape:current-layer="svg5" />
  <defs
     id="defs2" />
  <rect
     style="opacity:0.3;fill:#000000;fill-opacity:1;stroke-width:2;stroke-linejoin:round"
     id="rect234"
     width="36"
     height="44"
     x="6"
     y="2"
     ry="1" />
  <rect
     style="fill:#fafafa;fill-opacity:1;stroke-width:2.31345;stroke-linejoin:round"
     id="rect2307"
     width="34"
     height="42"
     x="7"
     y="3" />
  <path
     d="m 30.99955,10 c -0.553988,0 -0.999978,0.445991 -0.999978,0.999978 v 19.065999 c -1.225479,-0.514267 -2.757819,-0.334857 -4.070225,0.476552 -2.138076,1.322637 -3.06353,3.897814 -2.066362,5.749877 0.995635,1.85202 3.535303,2.280547 5.671753,0.957011 1.54574,-0.957912 2.513484,-2.621506 2.460885,-4.230377 1.38e-4,-0.0068 0.004,-0.0126 0.004,-0.0196 V 16.749856 c 0.240745,-0.132917 0.614767,0.153836 0.812483,0.289055 2.246819,1.359326 4.20841,3.615114 4.347563,6.394395 0.120377,1.607718 -0.216354,3.206759 -0.679674,4.734274 2.065481,-3.398237 1.954406,-8.126071 -0.597634,-11.230228 C 34.236182,15.219656 32.683824,13.217323 31.999629,10.890605 31.94973,10.6696 31.647923,10 30.99965,10 Z M 10.999978,11.999958 C 10.445991,11.999958 10,12.445948 10,12.999936 c 0,0.553988 0.445991,0.999979 0.999978,0.999979 h 11.999744 c 0.553988,0 0.999978,-0.445991 0.999978,-0.999979 0,-0.553988 -0.44599,-0.999978 -0.999978,-0.999978 z m 0,5.999872 C 10.445991,17.99983 10,18.445819 10,18.999808 c 0,0.553988 0.445991,0.999978 0.999978,0.999978 h 11.999744 c 0.553988,0 0.999978,-0.44599 0.999978,-0.999978 0,-0.553989 -0.44599,-0.999978 -0.999978,-0.999978 z m 0,5.99987 C 10.445991,23.9997 10,24.445691 10,24.99968 c 0,0.553988 0.445991,0.999978 0.999978,0.999978 h 11.999744 c 0.553988,0 0.999978,-0.44599 0.999978,-0.999978 0,-0.553989 -0.44599,-0.99998 -0.999978,-0.99998 z m 0,5.999872 C 10.445991,29.999572 10,30.445562 10,30.999551 c 0,0.553988 0.445991,0.999979 0.999978,0.999979 h 5.999872 c 0.553988,0 0.999979,-0.445991 0.999979,-0.999979 0,-0.553989 -0.445991,-0.999979 -0.999979,-0.999979 z"
     style="color:#000000;clip-rule:nonzero;display:inline;overflow:visible;visibility:visible;isolation:auto;mix-blend-mode:normal;color-interpolation:sRGB;color-interpolation-filters:linearRGB;solid-color:#000000;solid-opacity:1;fill:#ff7f2a;fill-opacity:1;fill-rule:nonzero;stroke:none;stroke-width:1.99995;stroke-linecap:butt;stroke-linejoin:round;stroke-miterlimit:4;stroke-dasharray:none;stroke-dashoffset:0;stroke-opacity:1;marker:none;color-rendering:auto;image-rendering:auto;shape-rendering:auto;text-rendering:auto;enable-background:accumulate"
     id="path1198" />
</svg>
