<?xml version="1.0" encoding="UTF-8" standalone="no"?>
<!-- Created with Inkscape (http://www.inkscape.org/) -->

<svg
   width="48"
   height="48"
   viewBox="0 0 48 48"
   version="1.1"
   id="svg5"
   inkscape:version="1.2.1 (9c6d41e410, 2022-07-14)"
   sodipodi:docname="x-office-presentation-template.svg"
   xmlns:inkscape="http://www.inkscape.org/namespaces/inkscape"
   xmlns:sodipodi="http://sodipodi.sourceforge.net/DTD/sodipodi-0.dtd"
   xmlns="http://www.w3.org/2000/svg"
   xmlns:svg="http://www.w3.org/2000/svg">
  <sodipodi:namedview
     id="namedview7"
     pagecolor="#ffffff"
     bordercolor="#000000"
     borderopacity="0.25"
     inkscape:showpageshadow="2"
     inkscape:pageopacity="0.0"
     inkscape:pagecheckerboard="0"
     inkscape:deskcolor="#d1d1d1"
     inkscape:document-units="px"
     showgrid="false"
     inkscape:zoom="16.5625"
     inkscape:cx="24"
     inkscape:cy="24"
     inkscape:window-width="1920"
     inkscape:window-height="1007"
     inkscape:window-x="0"
     inkscape:window-y="0"
     inkscape:window-maximized="1"
     inkscape:current-layer="svg5" />
  <defs
     id="defs2" />
  <rect
     style="opacity:0.6;fill:#6c2d00;fill-opacity:1;stroke-width:2;stroke-linejoin:round"
     id="rect234"
     width="36"
     height="44"
     x="6"
     y="2"
     ry="1" />
  <rect
     style="fill:#ff7e28;fill-opacity:1;stroke-width:2.31345;stroke-linejoin:round"
     id="rect2307"
     width="34"
     height="42"
     x="7"
     y="3" />
  <path
     id="path27792"
     style="color:#000000;display:inline;overflow:visible;visibility:visible;fill:#ffffff;fill-opacity:1;fill-rule:nonzero;stroke:none;stroke-width:40;marker:none;enable-background:new"
     d="m 17,13 c -3.313704,0 -6,2.686292 -6,6 0,3.313706 2.686296,6 6,6 3.313704,0 6,-2.686294 6,-6 h -6 z m 10,2 v 2 h 10 v -2 z m 0,6 v 2 h 10 v -2 z m -16,6 v 2 h 26 v -2 z m 0,6 v 2 h 13 v -2 z"
     sodipodi:nodetypes="cssccccccccccccccccccccccc" />
  <path
     id="path27198"
     style="color:#000000;opacity:0.8;fill:#e9e9e9;fill-rule:evenodd;-inkscape-stroke:none"
     d="M 41 26.707031 L 22.707031 45 L 41 45 L 41 26.707031 z M 38 33.626953 L 38 42 L 30.833984 42 L 29.626953 42 L 38 33.626953 z " />
  <path
     style="color:#000000;opacity:0.8;fill:#83899a;fill-rule:evenodd;-inkscape-stroke:none"
     d="M 42,24.292969 20.292969,46 H 21.5 42 Z m -1,2.414062 V 45 H 22.707031 Z M 38,33.626953 29.626953,42 H 30.833984 38 Z m -1,2.414063 V 41 h -4.958984 z"
     id="path27200" />
</svg>
