<?xml version="1.0" encoding="UTF-8" standalone="no"?>
<!-- Created with Inkscape (http://www.inkscape.org/) -->

<svg
   width="64"
   height="64"
   viewBox="0 0 64 64"
   version="1.1"
   id="svg5"
   inkscape:version="1.2.1 (9c6d41e410, 2022-07-14)"
   sodipodi:docname="application-x-theme.svg"
   xmlns:inkscape="http://www.inkscape.org/namespaces/inkscape"
   xmlns:sodipodi="http://sodipodi.sourceforge.net/DTD/sodipodi-0.dtd"
   xmlns="http://www.w3.org/2000/svg"
   xmlns:svg="http://www.w3.org/2000/svg">
  <sodipodi:namedview
     id="namedview7"
     pagecolor="#ffffff"
     bordercolor="#000000"
     borderopacity="0.25"
     inkscape:showpageshadow="2"
     inkscape:pageopacity="0.0"
     inkscape:pagecheckerboard="0"
     inkscape:deskcolor="#d1d1d1"
     inkscape:document-units="px"
     showgrid="false"
     inkscape:zoom="12.34375"
     inkscape:cx="32.121519"
     inkscape:cy="32.040506"
     inkscape:window-width="1920"
     inkscape:window-height="1007"
     inkscape:window-x="0"
     inkscape:window-y="0"
     inkscape:window-maximized="1"
     inkscape:current-layer="svg5" />
  <defs
     id="defs2" />
  <rect
     style="opacity:0.3;fill:#000000;fill-opacity:1;stroke-width:2;stroke-linejoin:round"
     id="rect234"
     width="48"
     height="60"
     x="8"
     y="2"
     ry="1" />
  <rect
     style="fill:#fafafa;fill-opacity:1;stroke-width:3.1622;stroke-linejoin:round"
     id="rect2307"
     width="46"
     height="58"
     x="9"
     y="3" />
  <path
     d="m 45.148022,18.013211 c -2.108112,-0.265738 -7.607364,3.503728 -13.027143,8.925645 -2.416902,2.418362 -4.514467,4.808226 -6.121001,7.062392 1.882883,0.59989 3.400363,2.116368 3.999939,3.99994 2.253308,-1.606998 4.648596,-3.695428 7.066298,-6.11319 6.148951,-6.151504 10.025965,-12.245494 8.660025,-13.613073 -0.140404,-0.1414 -0.331944,-0.230138 -0.578118,-0.261714 z M 24.999894,36.661364 v 0.004 C 18.000378,38.541739 23.249628,42.974131 18,46.001084 c 6.999516,0 10.499841,-3.503591 10.499841,-5.839753 0,-1.164542 0.118704,-3.306148 -3.499947,-3.499946 z"
     style="color:#444444;fill:#a47fdc;fill-opacity:1;stroke-width:1.99996"
     id="path347"
     sodipodi:nodetypes="ccccccccccscc" />
</svg>
