<?xml version="1.0" encoding="UTF-8" standalone="no"?>
<!-- Created with Inkscape (http://www.inkscape.org/) -->

<svg
   width="64"
   height="64"
   viewBox="0 0 64 64"
   version="1.1"
   id="svg5"
   inkscape:version="1.2.1 (9c6d41e410, 2022-07-14)"
   sodipodi:docname="application-x-sharedlib.svg"
   xmlns:inkscape="http://www.inkscape.org/namespaces/inkscape"
   xmlns:sodipodi="http://sodipodi.sourceforge.net/DTD/sodipodi-0.dtd"
   xmlns="http://www.w3.org/2000/svg"
   xmlns:svg="http://www.w3.org/2000/svg">
  <sodipodi:namedview
     id="namedview7"
     pagecolor="#ffffff"
     bordercolor="#000000"
     borderopacity="0.25"
     inkscape:showpageshadow="2"
     inkscape:pageopacity="0.0"
     inkscape:pagecheckerboard="0"
     inkscape:deskcolor="#d1d1d1"
     inkscape:document-units="px"
     showgrid="false"
     inkscape:zoom="12.34375"
     inkscape:cx="32.040506"
     inkscape:cy="32"
     inkscape:window-width="1920"
     inkscape:window-height="1002"
     inkscape:window-x="0"
     inkscape:window-y="0"
     inkscape:window-maximized="1"
     inkscape:current-layer="svg5" />
  <defs
     id="defs2" />
  <rect
     style="opacity:0.3;fill:#000000;fill-opacity:1;stroke-width:2;stroke-linejoin:round"
     id="rect234"
     width="48"
     height="60"
     x="8"
     y="2"
     ry="1" />
  <rect
     style="fill:#fafafa;fill-opacity:1;stroke-width:3.1622;stroke-linejoin:round"
     id="rect2307"
     width="46"
     height="58"
     x="9"
     y="3" />
  <path
     d="m 31.804915,18.956071 c 0,0 -0.2945,0.098 -0.99646,0.56658 -0.85842,0.57292 -1.34174,0.46868 -1.90916,0.31114 l -0.004,0.004 c -0.1046,-0.0618 -0.21102,-0.1206 -0.31944,-0.1746 l 4.8e-4,-0.004 c -0.44124,-0.38982 -0.79174,-0.7388 -0.7788,-1.7708 0.01,-0.84358 -0.0674,-1.14436 -0.0674,-1.14436 -0.30036,-0.1698 -0.7281,-0.21484 -0.7281,-0.21484 0,0 -0.42788,-0.045 -0.75676,0.0588 0,0 -0.139,0.2777 -0.304,1.10522 -0.20188,1.0121 -0.61748,1.28042 -1.12994,1.57018 l -0.001,0.006 c -0.1172,0.0304 -0.23304,0.0658 -0.34876,0.1044 l -0.004,-0.004 c -0.58774,0.0362 -1.08234,0.0374 -1.80294,-0.70142 -0.58894,-0.60402 -0.85686,-0.76138 -0.85686,-0.76138 -0.3317,0.0916 -0.66588,0.36224 -0.66588,0.36224 0,0 -0.33432,0.27076 -0.4935,0.57678 0,0 0.098,0.29484 0.56652,0.9965 0.57288,0.8584 0.46872,1.34214 0.31124,1.90932 l 0.004,0.004 c -0.0616,0.1048 -0.1204,0.21108 -0.1748,0.3193 l -0.004,-4.2e-4 c -0.38974,0.44134 -0.73872,0.79182 -1.77066,0.779 -0.84354,-0.01 -1.14456,0.0678 -1.14456,0.0678 -0.1698,0.30048 -0.21474,0.72762 -0.21474,0.72762 0,0 -0.046,0.428 0.0588,0.7569 0,0 0.27762,0.1392 1.10514,0.30392 1.01202,0.20198 1.27998,0.6178 1.56998,1.13012 l 0.004,4.2e-4 c 0.0306,0.1174 0.066,0.23326 0.1044,0.3488 l -0.004,0.004 c 0.0366,0.58772 0.0376,1.08222 -0.70124,1.80274 -0.604,0.5891 -0.76142,0.85744 -0.76142,0.85744 0.0926,0.33246 0.36284,0.6663 0.36284,0.6663 0,0 0.27086,0.33446 0.5768,0.49352 0,0 0.29466,-0.0978 0.99636,-0.56648 0.85846,-0.5728 1.34202,-0.46828 1.9093,-0.31118 l 0.004,-0.004 c 0.1054,0.0618 0.21106,0.1206 0.31948,0.1746 l -0.001,0.006 c 0.44138,0.3898 0.79182,0.73872 0.779,1.77062 -0.01,0.8436 0.0676,1.14468 0.0676,1.14468 0.30052,0.1696 0.72774,0.21466 0.72774,0.21466 0,0 0.42808,0.045 0.7568,-0.059 0,0 0.139,-0.27736 0.30398,-1.10502 0.20228,-1.012 0.61796,-1.28008 1.13,-1.57006 l -2e-4,-0.006 c 0.1172,-0.0304 0.23318,-0.066 0.3488,-0.1044 l 0.004,0.004 c 0.5877,-0.0364 1.08222,-0.0376 1.8028,0.7013 0.58896,0.604 0.85726,0.76152 0.85726,0.76152 0.33254,-0.0926 0.6664,-0.36302 0.6664,-0.36302 0,0 0.33448,-0.27082 0.49356,-0.5768 0,0 -0.0978,-0.29472 -0.5666,-0.99644 -0.5729,-0.8584 -0.4683,-1.34204 -0.31112,-1.9092 l -0.004,-0.004 c 0.0616,-0.1052 0.1204,-0.21112 0.1746,-0.31944 l 0.006,6.4e-4 c 0.38982,-0.44126 0.73878,-0.79174 1.77072,-0.77892 0.84368,0.01 1.14478,-0.0678 1.14478,-0.0678 0.1696,-0.30052 0.21454,-0.72786 0.21454,-0.72786 0,0 0.0458,-0.4278 -0.0588,-0.75688 0,0 -0.27776,-0.1392 -1.10528,-0.304 -1.01216,-0.2019 -1.2803,-0.61748 -1.5702,-1.12994 l -0.004,-4.2e-4 c -0.0304,-0.1172 -0.0656,-0.23322 -0.1046,-0.34878 l 0.004,-0.004 c -0.0364,-0.5875 -0.0378,-1.0822 0.70124,-1.80278 0.60404,-0.58898 0.76162,-0.85714 0.76162,-0.85714 -0.0924,-0.33238 -0.36306,-0.66658 -0.36306,-0.66658 0,0 -0.27082,-0.33444 -0.5768,-0.49352 z m -3.2859,8.43604 c -1.60594,1.30048 -3.96194,1.05288 -5.26244,-0.55306 -1.30048,-1.60596 -1.05284,-3.96198 0.55304,-5.26248 1.60592,-1.30044 3.96196,-1.05284 5.26244,0.55312 1.30048,1.60596 1.05282,3.96198 -0.55306,5.26244 z m 12.13214,1.55276 c 0,0 -0.31626,0.22468 -0.98408,1.04144 -0.81674,0.99858 -1.43262,1.05058 -2.16844,1.06964 l -0.004,0.006 c -0.1474,-0.0356 -0.29628,-0.067 -0.44566,-0.092 l -10e-4,-0.006 c -0.66992,-0.30472 -1.21644,-0.59376 -1.5781,-1.83212 -0.2958,-1.01222 -0.49898,-1.34324 -0.49898,-1.34324 -0.42112,-0.0932 -0.94886,0.01 -0.94886,0.01 0,0 -0.52788,0.1026 -0.88308,0.3469 0,0 -0.0648,0.38278 0.041,1.43224 0.1286,1.28358 -0.27018,1.75624 -0.7769,2.28988 l 4.2e-4,0.008 c -0.1288,0.079 -0.25454,0.1638 -0.37876,0.25224 l -0.004,-0.004 c -0.68928,0.2581 -1.28012,0.44026 -2.41148,-0.1796 -0.92476,-0.50678 -1.3025,-0.59696 -1.3025,-0.59696 -0.36304,0.23074 -0.6636,0.67636 -0.6636,0.67636 0,0 -0.3007,0.44582 -0.37912,0.8698 0,0 0.22494,0.3166 1.04134,0.98414 0.99854,0.81672 1.0508,1.43304 1.06986,2.16858 l 0.006,0.004 c -0.0354,0.1478 -0.0668,0.29634 -0.092,0.44552 l -0.004,7.6e-4 c -0.30458,0.67 -0.5937,1.2165 -1.83192,1.5783 -1.01222,0.29556 -1.34338,0.4993 -1.34338,0.4993 -0.0932,0.42122 0.008,0.94824 0.008,0.94824 0,0 0.1028,0.5281 0.34692,0.88328 0,0 0.38274,0.065 1.43212,-0.0406 1.28354,-0.1284 1.7558,0.27072 2.28972,0.77712 l 0.006,-10e-4 c 0.0792,0.129 0.164,0.25474 0.25212,0.37882 l -0.004,0.006 c 0.25864,0.68916 0.44028,1.27996 -0.1794,2.4112 -0.50672,0.92494 -0.59682,1.30322 -0.59682,1.30322 0.23204,0.36362 0.67724,0.66386 0.67724,0.66386 0,0 0.446,0.30082 0.8698,0.37914 0,0 0.31656,-0.22454 0.984,-1.04126 0.81684,-0.99846 1.4331,-1.05022 2.16858,-1.06976 l 0.004,-0.006 c 0.1484,0.0354 0.29644,0.067 0.44572,0.092 l 4.2e-4,0.008 c 0.67008,0.30464 1.21652,0.59366 1.57828,1.83184 0.2956,1.0123 0.4993,1.34356 0.4993,1.34356 0.4212,0.0928 0.94838,-0.01 0.94838,-0.01 0,0 0.5281,-0.1028 0.88306,-0.34722 0,0 0.0648,-0.38234 -0.039,-1.43202 -0.1282,-1.28356 0.27084,-1.75598 0.77698,-2.28976 l -0.002,-0.006 c 0.129,-0.079 0.25458,-0.1642 0.37876,-0.25228 l 0.006,0.004 c 0.68914,-0.2584 1.27988,-0.44038 2.41128,0.1794 0.92478,0.50674 1.30298,0.59698 1.30298,0.59698 0.36366,-0.23228 0.66396,-0.67748 0.66396,-0.67748 0,0 0.30082,-0.44596 0.37918,-0.86986 0,0 -0.22454,-0.31656 -1.04144,-0.98404 -0.99856,-0.81672 -1.0503,-1.43306 -1.06964,-2.16848 l -0.004,-0.004 c 0.0354,-0.1484 0.067,-0.29642 0.0918,-0.44562 l 0.006,-0.001 c 0.30468,-0.66992 0.59372,-1.2164 1.83196,-1.5782 1.01238,-0.2956 1.34368,-0.49932 1.34368,-0.49932 0.0928,-0.4212 -0.01,-0.9484 -0.01,-0.9484 0,0 -0.1026,-0.5279 -0.3469,-0.88326 0,0 -0.38284,-0.0648 -1.4323,0.0406 -1.28362,0.1286 -1.75606,-0.27022 -2.28988,-0.77686 l -0.006,0.001 c -0.0792,-0.129 -0.1636,-0.2548 -0.25252,-0.3787 l 0.004,-0.006 c -0.258,-0.689 -0.4405,-1.27984 0.1794,-2.41126 0.50676,-0.92476 0.59716,-1.30292 0.59716,-1.30292 -0.23202,-0.36352 -0.67758,-0.66412 -0.67758,-0.66412 0,0 -0.44598,-0.30078 -0.86988,-0.37914 z m -0.84482,11.28498 c -1.44442,2.14144 -4.35122,2.7065 -6.49266,1.26208 -2.14142,-1.44444 -2.70644,-4.35122 -1.26204,-6.49268 1.4444,-2.1414 4.3512,-2.70646 6.49266,-1.26202 2.14144,1.44442 2.70646,4.35122 1.26204,6.49262 z"
     style="display:inline;fill:#929292;fill-opacity:1;stroke:none;enable-background:new"
     id="path1900" />
</svg>
