<?xml version="1.0" encoding="UTF-8" standalone="no"?>
<!-- Created with Inkscape (http://www.inkscape.org/) -->

<svg
   width="64"
   height="64"
   viewBox="0 0 64 64"
   version="1.1"
   id="svg5"
   inkscape:version="1.2.1 (9c6d41e410, 2022-07-14)"
   sodipodi:docname="application-vnd.ms-word.template.macroenabled.12.svg"
   xmlns:inkscape="http://www.inkscape.org/namespaces/inkscape"
   xmlns:sodipodi="http://sodipodi.sourceforge.net/DTD/sodipodi-0.dtd"
   xmlns="http://www.w3.org/2000/svg"
   xmlns:svg="http://www.w3.org/2000/svg">
  <sodipodi:namedview
     id="namedview7"
     pagecolor="#ffffff"
     bordercolor="#000000"
     borderopacity="0.25"
     inkscape:showpageshadow="2"
     inkscape:pageopacity="0.0"
     inkscape:pagecheckerboard="0"
     inkscape:deskcolor="#d1d1d1"
     inkscape:document-units="px"
     showgrid="false"
     inkscape:zoom="12.34375"
     inkscape:cx="32.202532"
     inkscape:cy="32.040506"
     inkscape:window-width="1920"
     inkscape:window-height="1007"
     inkscape:window-x="0"
     inkscape:window-y="0"
     inkscape:window-maximized="1"
     inkscape:current-layer="svg5" />
  <defs
     id="defs2" />
  <rect
     style="opacity:0.3;fill:#000000;fill-opacity:1;stroke-width:2;stroke-linejoin:round"
     id="rect234"
     width="48"
     height="60"
     x="8"
     y="2"
     ry="1" />
  <rect
     style="fill:#fafafa;fill-opacity:1;stroke-width:3.1622;stroke-linejoin:round"
     id="rect2307"
     width="46"
     height="58"
     x="9"
     y="3" />
  <rect
     style="opacity:0.25;fill:#005a9e;fill-opacity:1;stroke-width:3.99999;stroke-linejoin:bevel"
     id="rect25302"
     width="26"
     height="31.999998"
     x="23.000004"
     y="16"
     ry="1.9999993" />
  <path
     id="rect29937"
     style="opacity:0.5;fill:#005a9e;fill-opacity:1;stroke-width:7.99998;stroke-linejoin:bevel"
     d="m 22.999999,32.000003 v 8.000001 h 25.999978 v -8.000001 z"
     sodipodi:nodetypes="ccccc" />
  <path
     id="path29903"
     style="opacity:0.7;fill:#005a9e;fill-opacity:1;stroke-width:3.99999;stroke-linejoin:bevel"
     d="m 22.999999,40.000004 v 5.999997 c 0,1.107998 0.892002,1.999997 2.000001,1.999997 h 21.99999 c 1.107999,0 1.999998,-0.891999 1.999998,-1.999997 v -5.999997 z"
     sodipodi:nodetypes="csccscc" />
  <path
     id="rect28337"
     style="opacity:0.3;fill:#005a9e;fill-opacity:1;stroke-width:7.99998;stroke-linejoin:bevel"
     d="m 22.999998,24.000003 v 8 h 25.999979 v -8 z"
     sodipodi:nodetypes="ccccc" />
  <rect
     style="fill:#fafafa;fill-opacity:1;stroke-width:0.999999"
     id="rect3242"
     width="20"
     height="20"
     x="13"
     y="22.000004"
     ry="3" />
  <rect
     style="fill:#005a9e;fill-opacity:1;stroke-width:0.999999"
     id="rect2687"
     width="18"
     height="18"
     x="14"
     y="23.000004"
     ry="1.9999993" />
  <path
     id="rect3454"
     style="fill:#ffffff;stroke-width:0.999999"
     d="m 16,26.000003 3,12 h 1.999999 L 23,30.000002 24.999999,38.000003 H 27 l 3,-12 H 27.999999 L 26,34.000004 24,26.000003 h -2 l -2,8.000001 -2.000001,-8.000001 z" />
  <path
     id="path8301"
     style="color:#000000;opacity:0.8;fill:#e9e9e9;fill-rule:evenodd;stroke-width:1px;-inkscape-stroke:none"
     d="M 55,22.707031 16.707031,61 H 55 Z M 48,38.970703 V 54 H 32.783203 Z" />
  <path
     d="M 56,20.292969 14.292969,62 H 56 Z m -1,2.414062 V 61 H 16.707031 Z M 48,38.970703 32.783203,54 H 48 Z m -1,2.392578 V 53 H 35.216797 Z"
     style="color:#000000;opacity:0.8;fill:#83899a;fill-rule:evenodd;-inkscape-stroke:none"
     id="path8313" />
</svg>
