<?xml version="1.0" encoding="UTF-8" standalone="no"?>
<!-- Created with Inkscape (http://www.inkscape.org/) -->

<svg
   width="64"
   height="64"
   viewBox="0 0 64 64"
   version="1.1"
   id="svg5"
   inkscape:version="1.2.1 (9c6d41e410, 2022-07-14)"
   sodipodi:docname="application-vnd.ms-powerpoint.svg"
   xmlns:inkscape="http://www.inkscape.org/namespaces/inkscape"
   xmlns:sodipodi="http://sodipodi.sourceforge.net/DTD/sodipodi-0.dtd"
   xmlns="http://www.w3.org/2000/svg"
   xmlns:svg="http://www.w3.org/2000/svg">
  <sodipodi:namedview
     id="namedview7"
     pagecolor="#ffffff"
     bordercolor="#000000"
     borderopacity="0.25"
     inkscape:showpageshadow="2"
     inkscape:pageopacity="0.0"
     inkscape:pagecheckerboard="0"
     inkscape:deskcolor="#d1d1d1"
     inkscape:document-units="px"
     showgrid="false"
     inkscape:zoom="12.34375"
     inkscape:cx="32.081013"
     inkscape:cy="32"
     inkscape:window-width="1920"
     inkscape:window-height="1012"
     inkscape:window-x="0"
     inkscape:window-y="0"
     inkscape:window-maximized="1"
     inkscape:current-layer="svg5" />
  <defs
     id="defs2" />
  <rect
     style="opacity:0.3;fill:#000000;fill-opacity:1;stroke-width:2;stroke-linejoin:round"
     id="rect234"
     width="48"
     height="60"
     x="8"
     y="2"
     ry="1" />
  <rect
     style="fill:#fafafa;fill-opacity:1;stroke-width:3.1622;stroke-linejoin:round"
     id="rect2307"
     width="46"
     height="58"
     x="9"
     y="3" />
  <circle
     style="opacity:0.3;fill:#d04423;fill-opacity:1;stroke-width:10.6667;stroke-linejoin:bevel"
     id="path31463"
     cx="34"
     cy="32"
     r="15.999997" />
  <path
     id="path31465"
     style="opacity:0.7;fill:#d04423;fill-opacity:1;stroke-width:7.99998;stroke-linejoin:bevel"
     d="M 17.999999,31.999998 A 15.999999,15.999999 0 0 0 33.999997,48.000001 15.999999,15.999999 0 0 0 49.999998,31.999998 H 33.999997 Z" />
  <path
     id="path31759"
     style="opacity:0.5;fill:#d04423;fill-opacity:1;stroke-width:7.99998;stroke-linejoin:bevel"
     d="M 33.999997,16 A 15.999997,15.999999 0 0 0 17.999999,31.999998 h 15.999998 z" />
  <rect
     style="fill:#fafafa;fill-opacity:1;stroke-width:0.999999"
     id="rect3242"
     width="20"
     height="20"
     x="13"
     y="22.000002"
     ry="3" />
  <rect
     style="fill:#d04423;fill-opacity:1;stroke-width:0.999999"
     id="rect2687"
     width="18"
     height="18"
     x="14"
     y="23.000004"
     ry="1.9999993" />
  <path
     id="rect4291"
     style="fill:#ffffff;fill-opacity:1;stroke-width:0.999999"
     d="m 19.999999,26 v 11.999998 h 2 v -3.999999 h 2 a 3.9999999,3.9999999 0 0 0 4,-3.999999 3.9999999,3.9999999 0 0 0 -4,-4 h -2 z m 2,2 h 2 a 1.9999999,1.9999999 0 0 1 2,2 1.9999999,1.9999999 0 0 1 -2,1.999998 h -2 z" />
</svg>
