<?xml version="1.0" encoding="UTF-8" standalone="no"?>
<!-- Created with Inkscape (http://www.inkscape.org/) -->

<svg
   width="64"
   height="64"
   viewBox="0 0 64 64"
   version="1.1"
   id="svg5"
   inkscape:version="1.2.1 (9c6d41e410, 2022-07-14)"
   sodipodi:docname="application-x-plasma.svg"
   xmlns:inkscape="http://www.inkscape.org/namespaces/inkscape"
   xmlns:sodipodi="http://sodipodi.sourceforge.net/DTD/sodipodi-0.dtd"
   xmlns="http://www.w3.org/2000/svg"
   xmlns:svg="http://www.w3.org/2000/svg">
  <sodipodi:namedview
     id="namedview7"
     pagecolor="#ffffff"
     bordercolor="#000000"
     borderopacity="0.25"
     inkscape:showpageshadow="2"
     inkscape:pageopacity="0.0"
     inkscape:pagecheckerboard="0"
     inkscape:deskcolor="#d1d1d1"
     inkscape:document-units="px"
     showgrid="false"
     inkscape:zoom="13.166667"
     inkscape:cx="32.012658"
     inkscape:cy="31.974684"
     inkscape:window-width="1920"
     inkscape:window-height="1002"
     inkscape:window-x="0"
     inkscape:window-y="0"
     inkscape:window-maximized="1"
     inkscape:current-layer="svg5" />
  <defs
     id="defs2" />
  <rect
     style="opacity:0.3;fill:#000000;fill-opacity:1;stroke-width:2;stroke-linejoin:round"
     id="rect234"
     width="48"
     height="60"
     x="8"
     y="2"
     ry="1" />
  <rect
     style="fill:#fafafa;fill-opacity:1;stroke-width:3.1622;stroke-linejoin:round"
     id="rect2307"
     width="46"
     height="58"
     x="9"
     y="3" />
  <path
     d="m 24,18.000001 c -1.108,0 -2,0.892 -2,2 0,1.108 0.892,2 2,2 1.108,0 2,-0.892 2,-2 0,-1.108 -0.892,-2 -2,-2 z m 12,0 -4,4 6,5.999998 -6,6 4,4 6,-6 4,-4 -4,-3.999998 z m -15,9.999998 c -1.661988,0 -3,1.33799 -3,3 0,1.661988 1.338012,3 3,3 1.662012,0 3,-1.338012 3,-3 0,-1.66201 -1.337988,-3 -3,-3 z m 7,10 c -2.216,0 -4,1.784 -4,4 0,2.216 1.784,4 4,4 2.216,0 4,-1.784 4,-4 0,-2.216 -1.784,-4 -4,-4 z"
     style="fill:#3daee9;stroke-width:2;fill-opacity:1"
     id="path360"
     sodipodi:nodetypes="ssssscccccccccssssssssss" />
</svg>
