<?xml version="1.0" encoding="UTF-8" standalone="no"?>
<!-- Created with Inkscape (http://www.inkscape.org/) -->

<svg
   width="64"
   height="64"
   viewBox="0 0 64 64"
   version="1.1"
   id="svg4041"
   sodipodi:docname="application-x-deb.svg"
   inkscape:version="1.2.1 (9c6d41e410, 2022-07-14)"
   xmlns:inkscape="http://www.inkscape.org/namespaces/inkscape"
   xmlns:sodipodi="http://sodipodi.sourceforge.net/DTD/sodipodi-0.dtd"
   xmlns="http://www.w3.org/2000/svg"
   xmlns:svg="http://www.w3.org/2000/svg">
  <sodipodi:namedview
     id="namedview4043"
     pagecolor="#ffffff"
     bordercolor="#000000"
     borderopacity="0.25"
     inkscape:showpageshadow="2"
     inkscape:pageopacity="0.0"
     inkscape:pagecheckerboard="0"
     inkscape:deskcolor="#d1d1d1"
     inkscape:document-units="px"
     showgrid="false"
     showguides="false"
     inkscape:zoom="8.7835921"
     inkscape:cx="1.3092593"
     inkscape:cy="28.291387"
     inkscape:window-width="1920"
     inkscape:window-height="1007"
     inkscape:window-x="0"
     inkscape:window-y="0"
     inkscape:window-maximized="1"
     inkscape:current-layer="svg4041" />
  <defs
     id="defs4038" />
  <rect
     style="opacity:0.6;fill:#7d0a34;fill-opacity:1;stroke-width:6;stroke-linecap:round;stroke-linejoin:round"
     id="rect4577"
     width="56"
     height="48"
     x="4"
     y="8"
     ry="1" />
  <rect
     style="opacity:1;fill:#e68cac;fill-opacity:1;stroke-width:4.0544;stroke-linecap:round;stroke-linejoin:round"
     id="rect4891"
     width="54"
     height="46"
     x="5"
     y="9" />
  <path
     style="fill:#ffffff;stroke-width:3.00165"
     d="m 17.12087,26.122452 c 0.198719,-0.594029 0.234129,-0.950626 0.310071,-1.296419 -0.547503,0.684378 -0.252439,0.83026 -0.310071,1.296419 m 1.011857,-4.129389 c 0.09876,0.891495 -0.686176,1.239088 0.1735,0.65016 0.461654,-1.015763 -0.1795,-0.280955 -0.1735,-0.65016 m 15.024528,-7.807027 c 0.428037,-0.15278 1.050881,-0.08404 1.506834,-0.1846 -0.592828,0.04832 -1.182055,0.07744 -1.763777,0.14978 l 0.257063,0.03476 m 13.749719,16.653229 -0.09274,0.228517 c -0.1711,1.183255 -0.540301,2.353905 -1.104613,3.439907 0.624346,-1.145437 1.026569,-2.398631 1.197662,-3.668334 m -17.401853,3.69745 c -0.221224,-0.238333 -0.349693,-0.52469 -0.496473,-0.81075 0.13988,0.501279 0.425933,0.932318 0.691582,1.371161 L 29.50556,34.537045 m -0.983044,0.03752 -0.08944,0.433438 c 0.416331,0.552611 0.746814,1.151139 1.277508,1.581577 -0.382113,-0.728203 -0.66547,-1.028969 -1.188059,-2.015017 m 5.182371,-19.908532 -0.238302,0.04846 0.221404,-0.0198 0.0168,-0.02864 m -0.673573,-0.183099 c 0.337987,0.05878 0.730214,0.104339 0.673843,0.183379 0.371517,-0.07978 0.454062,-0.151819 -0.673603,-0.183339 m 7.049108,15.225339 c 0.07708,-1.114037 -0.224076,-0.761342 -0.325292,-0.336997 0.11776,0.06042 0.211348,0.785746 0.325292,0.336997 m -1.253375,3.189568 c 0.378209,-0.508783 0.654362,-1.06529 0.750416,-1.64071 -0.08704,0.409727 -0.312173,0.763923 -0.528293,1.137933 -1.182054,0.728202 -0.111059,-0.432241 0,-0.873786 -1.271504,1.565968 -0.174099,0.938922 -0.222123,1.376563 m -3.395783,0.826655 c -0.63278,0.008 0.11902,0.317936 0.945375,0.442564 0.229146,-0.174698 0.434969,-0.350234 0.619663,-0.521627 -0.513765,0.122979 -1.037255,0.125858 -1.565008,0.07906 M 17.12259,26.122856 c 0.198719,-0.594931 0.234129,-0.95183 0.310071,-1.296721 -0.547803,0.68468 -0.252437,0.830862 -0.310071,1.296721 m 1.011259,-4.129389 c 0.09876,0.891793 -0.685878,1.238486 0.1738,0.64956 0.461656,-1.015763 -0.1795,-0.280055 -0.1738,-0.64956 M 33.157175,14.18464 C 33.58452,14.03188 34.208386,14.1006 34.663289,14 c -0.592108,0.04844 -1.181245,0.07742 -1.762757,0.14986 l 0.256673,0.03478 m 13.750321,16.654729 -0.09274,0.228515 c -0.1711,1.183557 -0.540299,2.354206 -1.104611,3.440207 0.624346,-1.145433 1.026569,-2.398626 1.197664,-3.668332 m -17.400951,3.696846 c -0.220324,-0.238333 -0.349695,-0.524988 -0.496473,-0.80985 0.13988,0.50158 0.426233,0.93232 0.691882,1.371161 l -0.195399,-0.561311 m -0.983044,0.03722 -0.08944,0.433441 c 0.416331,0.552906 0.746812,1.15144 1.277506,1.581877 -0.382111,-0.728204 -0.665466,-1.028971 -1.188057,-2.015317 m 5.181771,-19.908831 -0.237612,0.04844 0.221522,-0.0198 0.0162,-0.02858 m 9.43723,15.506297 c 0.0349,0.935377 -0.273391,1.38992 -0.552246,2.193734 l -0.501427,0.248959 c -0.409907,0.79523 0.0407,0.504878 -0.252861,1.137117 -0.640644,0.567974 -1.941415,1.776716 -2.357776,1.887386 -0.304429,-0.007 0.205914,-0.358519 0.272639,-0.495965 -0.858473,0.587127 -0.68738,0.881288 -1.998204,1.238785 l -0.03812,-0.08554 c -3.230415,1.517655 -7.718202,-1.489412 -7.65937,-5.591784 -0.03422,0.260246 -0.09816,0.1951 -0.169599,0.299568 -0.1666,-2.110471 0.976739,-4.230245 2.90471,-5.096827 1.885945,-0.931715 4.096971,-0.549904 5.44772,0.708094 -0.742615,-0.970439 -2.219733,-1.999108 -3.969102,-1.903955 -1.714549,0.02792 -3.318939,1.115417 -3.853836,2.296572 -0.877987,0.551707 -0.980343,2.128181 -1.362754,2.41664 -0.515415,3.778794 0.968335,5.410497 3.478629,7.33156 0.393997,0.265588 0.110919,0.30626 0.163659,0.508364 -0.833861,-0.389618 -1.596885,-0.978244 -2.225134,-1.698645 0.333485,0.486576 0.693084,0.959634 1.158041,1.331542 -0.786736,-0.26535 -1.837317,-1.902153 -2.143186,-1.968794 1.35525,2.422645 5.498147,4.247955 7.668649,3.341453 -1.004357,0.03904 -2.279762,0.02102 -3.407489,-0.394419 -0.475162,-0.243735 -1.118419,-0.747416 -1.003155,-0.841367 2.961382,1.103803 6.019536,0.835513 8.581157,-1.214531 0.652291,-0.507193 1.364315,-1.369391 1.57023,-1.381037 -0.309861,0.465348 0.05312,0.223774 -0.184999,0.634585 0.64842,-1.045723 -0.282728,-0.425881 0.670902,-1.805801 l 0.352125,0.483958 c -0.13184,-0.8688 1.080029,-1.922507 0.956721,-3.295527 0.278044,-0.419663 0.309861,0.452232 0.015,1.417806 0.409125,-1.071295 0.1082,-1.24359 0.212908,-2.128 0.112859,0.297345 0.262915,0.61288 0.339339,0.926884 -0.266817,-1.035664 0.272641,-1.743426 0.406815,-2.345527 -0.13262,-0.05808 -0.411469,0.457633 -0.475825,-0.765034 0.01,-0.531205 0.14854,-0.278373 0.201653,-0.409218 -0.103939,-0.06 -0.378121,-0.4673 -0.544502,-1.248213 0.11982,-0.183918 0.322647,0.475823 0.487081,0.502539 -0.10588,-0.620653 -0.28774,-1.094137 -0.295516,-1.570712 -0.480866,-1.002765 -0.170259,0.13398 -0.5596,-0.430529 -0.511903,-1.592802 0.424287,-0.369743 0.487861,-1.092963 0.77485,1.120851 1.216544,2.859355 1.420146,3.578883 -0.15512,-0.877688 -0.405253,-1.728298 -0.711244,-2.551026 0.236171,0.09952 -0.379649,-1.805439 0.306741,-0.54396 -0.735528,-2.688621 -3.135238,-5.200982 -5.343862,-6.379736 0.270179,0.246728 0.61168,0.5563 0.489721,0.605106 -1.098613,-0.652561 -0.906508,-0.704191 -1.065595,-0.979744 -0.894496,-0.363501 -0.951528,0.02972 -1.545858,9.02e-4 -1.685434,-0.893896 -2.010215,-0.798744 -3.561775,-1.357952 l 0.0706,0.329881 c -1.117219,-0.371905 -1.301822,0.140179 -2.509391,6e-4 -0.07324,-0.05672 0.387215,-0.207416 0.766324,-0.262046 -1.080297,0.14258 -1.02987,-0.212817 -2.087055,0.03902 0.260244,-0.182199 0.536397,-0.303468 0.81405,-0.458354 -0.880688,0.05344 -2.103566,0.511785 -1.726257,0.09454 -1.436894,0.640253 -3.988908,1.538952 -5.421002,2.879796 l -0.04502,-0.300466 c -0.656164,0.786136 -2.861786,2.348501 -3.037384,3.368166 l -0.175899,0.04054 c -0.340689,0.577221 -0.562211,1.231283 -0.83296,1.824711 -0.446349,0.760022 -0.654664,0.292663 -0.591028,0.411829 -0.878288,1.777886 -1.315331,3.271816 -1.69204,4.497391 0.268349,0.400723 0.0068,2.413038 0.10806,4.02313 -0.440643,7.953806 5.591201,15.677087 12.184653,17.457074 0.966236,0.348193 2.403132,0.336187 3.625711,0.369205 -1.442,-0.411229 -1.628104,-0.219122 -3.033482,-0.708393 -1.013363,-0.477265 -1.235185,-1.020567 -1.953183,-1.641909 l 0.284257,0.501367 c -1.407776,-0.498262 -0.81885,-0.615328 -1.964584,-0.978526 l 0.303767,-0.39322 c -0.454151,-0.03602 -1.206369,-0.768426 -1.412883,-1.176653 l -0.499506,0.0198 C 25.528707,44.883955 25.20873,44.352661 25.232442,43.93843 l -0.161479,0.28816 c -0.1825,-0.315176 -2.206824,-2.773537 -1.156843,-2.20022 -0.1951,-0.177099 -0.454451,-0.288157 -0.735706,-0.798443 l 0.213693,-0.243523 c -0.504579,-0.651362 -0.929915,-1.482824 -0.897198,-1.758975 0.26955,0.363201 0.456255,0.429237 0.641757,0.492272 -1.276307,-3.160753 -1.348049,-0.174099 -2.313982,-3.217183 l 0.203971,-0.0162 c -0.156379,-0.236523 -0.252439,-0.491664 -0.377909,-0.742903 l 0.08914,-0.884893 c -0.918209,-1.060486 -0.256341,-4.509395 -0.123379,-6.400442 0.09094,-0.769028 0.766623,-1.588482 1.278708,-2.872593 l -0.312473,-0.05312 c 0.59793,-1.040977 3.413491,-4.181317 4.718015,-4.020126 0.631551,-0.79214 -0.125779,-0.003 -0.249437,-0.202014 1.387968,-1.433595 1.824409,-1.012761 2.760929,-1.270904 1.009457,-0.598231 -0.86688,0.23383 -0.388415,-0.228127 1.746365,-0.444846 1.237282,-1.012161 3.514946,-1.237885 0.240434,0.136278 -0.557408,0.210717 -0.75762,0.387515 1.454306,-0.710794 4.603052,-0.548406 6.649287,0.394119 2.372513,1.107913 5.037992,4.380628 5.146052,7.459734 l 0.11982,0.03212 c -0.06048,1.224228 0.187699,2.639993 -0.243136,3.939983 L 43.142434,30.16881 M 33.030147,14.480015 c 0.337988,0.05878 0.730184,0.104319 0.673843,0.183399 0.371007,-0.0799 0.45445,-0.151939 -0.673843,-0.183399 m 7.051208,15.226539 c 0.07708,-1.114069 -0.224044,-0.761344 -0.325292,-0.336997 0.11776,0.06046 0.21135,0.785774 0.325292,0.336997 m -1.254695,3.189568 c 0.378209,-0.508783 0.654362,-1.065292 0.750416,-1.64071 -0.08704,0.409727 -0.312173,0.763624 -0.528293,1.137931 -1.182054,0.728202 -0.111059,-0.432239 0,-0.873784 -1.271504,1.565968 -0.174099,0.93892 -0.222123,1.376563 m -3.395183,0.827555 c -0.63275,0.0082 0.11886,0.317876 0.945225,0.442445 0.229026,-0.174699 0.434939,-0.350295 0.619543,-0.52169 -0.513585,0.123079 -1.037075,0.126079 -1.564768,0.07924"
     id="path9184" />
</svg>
