<?xml version="1.0" encoding="UTF-8" standalone="no"?>
<!-- Created with Inkscape (http://www.inkscape.org/) -->

<svg
   width="64"
   height="64"
   viewBox="0 0 64 64"
   version="1.1"
   id="svg5"
   inkscape:version="1.2.1 (9c6d41e410, 2022-07-14)"
   sodipodi:docname="application-vnd.ms-excel.svg"
   xmlns:inkscape="http://www.inkscape.org/namespaces/inkscape"
   xmlns:sodipodi="http://sodipodi.sourceforge.net/DTD/sodipodi-0.dtd"
   xmlns="http://www.w3.org/2000/svg"
   xmlns:svg="http://www.w3.org/2000/svg">
  <sodipodi:namedview
     id="namedview7"
     pagecolor="#ffffff"
     bordercolor="#000000"
     borderopacity="0.25"
     inkscape:showpageshadow="2"
     inkscape:pageopacity="0.0"
     inkscape:pagecheckerboard="0"
     inkscape:deskcolor="#d1d1d1"
     inkscape:document-units="px"
     showgrid="false"
     inkscape:zoom="13.166667"
     inkscape:cx="32.202531"
     inkscape:cy="31.974683"
     inkscape:window-width="1920"
     inkscape:window-height="1012"
     inkscape:window-x="0"
     inkscape:window-y="0"
     inkscape:window-maximized="1"
     inkscape:current-layer="svg5" />
  <defs
     id="defs2" />
  <rect
     style="opacity:0.3;fill:#000000;fill-opacity:1;stroke-width:2;stroke-linejoin:round"
     id="rect234"
     width="48"
     height="60"
     x="8"
     y="2"
     ry="1" />
  <rect
     style="fill:#fafafa;fill-opacity:1;stroke-width:3.1622;stroke-linejoin:round"
     id="rect2307"
     width="46"
     height="58"
     x="9"
     y="3" />
  <rect
     style="opacity:0.25;fill:#407855;fill-opacity:1;stroke-width:3.99999;stroke-linejoin:bevel"
     id="rect25302"
     width="26"
     height="31.999998"
     x="23"
     y="16.000002"
     ry="1.9999999" />
  <path
     id="rect29937"
     style="opacity:0.5;fill:#407855;fill-opacity:1;stroke-width:7.99998;stroke-linejoin:bevel"
     d="M 23,24.000002 V 32 H 36.000003 V 24.000002 Z M 36.000003,32 v 8.000002 h 13 v -7.999998 z"
     sodipodi:nodetypes="cccccccccc" />
  <path
     id="path29903"
     style="opacity:0.7;fill:#407855;fill-opacity:1;stroke-width:3.99999;stroke-linejoin:bevel"
     d="m 23.000001,32 v 14.000002 c 0,1.107995 0.892002,2.000001 1.999999,2.000001 h 22.000006 c 1.107998,0 1.999997,-0.892006 1.999997,-2.000001 v -6 h -13 V 32 Z"
     sodipodi:nodetypes="csccscccc" />
  <path
     id="rect28337"
     style="opacity:0.3;fill:#407855;fill-opacity:1;stroke-width:3.99999;stroke-linejoin:bevel"
     d="m 24.94922,16.000002 c -1.08388,0.02728 -1.949219,0.909314 -1.949219,2 v 6 h 13.000002 v -8 H 25.000001 c -0.01731,0 -0.03356,-4.33e-4 -0.0508,0 z m 11.050783,8 V 32 h 13 v -7.999998 z"
     sodipodi:nodetypes="cscccsccccccc" />
  <rect
     style="fill:#fafafa;fill-opacity:1;stroke-width:0.999999"
     id="rect3242"
     width="20"
     height="20"
     x="13"
     y="21.999811"
     ry="3" />
  <rect
     style="fill:#407855;fill-opacity:1;stroke-width:0.999999"
     id="rect2687"
     width="18"
     height="18"
     x="14.000001"
     y="22.999811"
     ry="1.9999993" />
  <path
     id="rect4044"
     style="fill:#ffffff;fill-opacity:1;stroke-width:0.999999"
     d="m 18,25.999809 4,5.999998 -4,6 h 2 l 3,-4.5 3,4.5 h 2 l -4,-6 4,-5.999998 h -2 l -3,4.499998 -3,-4.499998 z" />
</svg>
