<?xml version="1.0" encoding="UTF-8" standalone="no"?>
<!-- Created with Inkscape (http://www.inkscape.org/) -->

<svg
   width="64"
   height="64"
   viewBox="0 0 64 64"
   version="1.1"
   id="svg5"
   inkscape:version="1.2.1 (9c6d41e410, 2022-07-14)"
   sodipodi:docname="application-octet-stream.svg"
   xmlns:inkscape="http://www.inkscape.org/namespaces/inkscape"
   xmlns:sodipodi="http://sodipodi.sourceforge.net/DTD/sodipodi-0.dtd"
   xmlns="http://www.w3.org/2000/svg"
   xmlns:svg="http://www.w3.org/2000/svg">
  <sodipodi:namedview
     id="namedview7"
     pagecolor="#ffffff"
     bordercolor="#000000"
     borderopacity="0.25"
     inkscape:showpageshadow="2"
     inkscape:pageopacity="0.0"
     inkscape:pagecheckerboard="0"
     inkscape:deskcolor="#d1d1d1"
     inkscape:document-units="px"
     showgrid="false"
     inkscape:zoom="13.333333"
     inkscape:cx="32.025"
     inkscape:cy="32.025"
     inkscape:window-width="1920"
     inkscape:window-height="1012"
     inkscape:window-x="0"
     inkscape:window-y="0"
     inkscape:window-maximized="1"
     inkscape:current-layer="svg5" />
  <defs
     id="defs2" />
  <rect
     style="opacity:0.3;fill:#000000;fill-opacity:1;stroke-width:2;stroke-linejoin:round"
     id="rect234"
     width="48"
     height="60"
     x="8"
     y="2"
     ry="1" />
  <rect
     style="fill:#fafafa;fill-opacity:1;stroke-width:3.1622;stroke-linejoin:round"
     id="rect2307"
     width="46"
     height="58"
     x="9"
     y="3" />
  <path
     d="m 20,10 v 4 h 4 v -4 z m 4,4 v 4 h 4 v -4 z m 4,0 h 4 v -4 h -4 z m 4,0 v 4 h 4 v -4 z m 4,0 h 4 v -4 h -4 z m 4,0 v 4 h 4 v -4 z m 4,0 h 4 v -4 h -4 z m 0,4 v 4 h 4 v -4 z m 0,4 h -4 v 4 h 4 z m 0,4 v 4 h 4 v -4 z m 0,4 h -4 v 4 h 4 z m 0,4 v 4 h 4 v -4 z m 0,4 h -4 v 4 h 4 z m 0,4 v 4 h 4 v -4 z m 0,4 h -4 v 4 h 4 z m 0,4 v 4 h 4 v -4 z m -4,0 h -4 v 4 h 4 z m -4,0 v -4 h -4 v 4 z m -4,0 h -4 v 4 h 4 z m -4,0 v -4 h -4 v 4 z m -4,0 h -4 v 4 h 4 z m -4,0 v -4 h -4 v 4 z m 0,-4 h 4 v -4 h -4 z m 0,-4 v -4 h -4 v 4 z m 0,-4 h 4 v -4 h -4 z m 0,-4 v -4 h -4 v 4 z m 0,-4 h 4 v -4 h -4 z m 0,-4 v -4 h -4 v 4 z m 0,-4 h 4 v -4 h -4 z m 0,-4 v -4 h -4 v 4 z m 4,4 v 4 h 4 v -4 z m 4,0 h 4 v -4 h -4 z m 4,0 v 4 h 4 v -4 z m 4,0 h 4 v -4 h -4 z m 0,4 v 4 h 4 v -4 z m 0,4 h -4 v 4 h 4 z m 0,4 v 4 h 4 v -4 z m 0,4 h -4 v 4 h 4 z m 0,4 v 4 h 4 v -4 z m -4,0 h -4 v 4 h 4 z m -4,0 v -4 h -4 v 4 z m 0,-4 h 4 v -4 h -4 z m 0,-4 v -4 h -4 v 4 z m 0,-4 h 4 v -4 h -4 z"
     style="color:#000000;display:inline;overflow:visible;visibility:visible;opacity:0.2;fill:#000000;fill-opacity:1;fill-rule:nonzero;stroke:none;stroke-width:0.985427;marker:none;enable-background:accumulate"
     id="path5692" />
</svg>
