<?xml version="1.0" encoding="UTF-8" standalone="no"?>
<!-- Created with Inkscape (http://www.inkscape.org/) -->

<svg
   width="64"
   height="64"
   viewBox="0 0 64 64"
   version="1.1"
   id="svg5"
   inkscape:version="1.2.1 (9c6d41e410, 2022-07-14)"
   sodipodi:docname="application-pdf.svg"
   xmlns:inkscape="http://www.inkscape.org/namespaces/inkscape"
   xmlns:sodipodi="http://sodipodi.sourceforge.net/DTD/sodipodi-0.dtd"
   xmlns="http://www.w3.org/2000/svg"
   xmlns:svg="http://www.w3.org/2000/svg">
  <sodipodi:namedview
     id="namedview7"
     pagecolor="#ffffff"
     bordercolor="#000000"
     borderopacity="0.25"
     inkscape:showpageshadow="2"
     inkscape:pageopacity="0.0"
     inkscape:pagecheckerboard="0"
     inkscape:deskcolor="#d1d1d1"
     inkscape:document-units="px"
     showgrid="false"
     inkscape:zoom="13.166667"
     inkscape:cx="31.481013"
     inkscape:cy="31.974684"
     inkscape:window-width="1920"
     inkscape:window-height="1002"
     inkscape:window-x="0"
     inkscape:window-y="0"
     inkscape:window-maximized="1"
     inkscape:current-layer="svg5" />
  <defs
     id="defs2" />
  <rect
     style="opacity:0.3;fill:#000000;fill-opacity:1;stroke-width:2;stroke-linejoin:round"
     id="rect234"
     width="48"
     height="60"
     x="8"
     y="2"
     ry="1" />
  <rect
     style="fill:#fafafa;fill-opacity:1;stroke-width:3.1622;stroke-linejoin:round"
     id="rect2307"
     width="46"
     height="58"
     x="9"
     y="3" />
  <path
     d="M 37.875,3.0000002 C 24.426461,14.539579 14.910308,19.33263 9,21.3125 v 6.125 c 3.284751,-0.967238 7.356975,-2.565106 11.59375,-5.21875 9.747583,-6.105262 21.375,-17.6874998 21.375,-17.6874998 C 38.772738,10.800417 37.843006,32.413387 37.78125,61 H 55 V 38.96875 C 54.244748,35.606873 53.570816,32.205377 52.96875,28.9375 51.382781,16.902436 53.725493,6.3901553 54.59375,3.0000002 c -0.225923,-2.54e-5 -10.16441,6.795e-4 -16.71875,0 z M 9,34.84375 V 40.75 C 16.504646,43.847649 25.209587,51.833778 29.96875,61 h 5.125 C 32.838316,52.595378 18.221314,39.91821 9,34.84375 Z"
     style="color:#000000;clip-rule:nonzero;display:inline;overflow:visible;visibility:visible;isolation:auto;mix-blend-mode:normal;color-interpolation:sRGB;color-interpolation-filters:linearRGB;solid-color:#000000;solid-opacity:1;fill:#df554a;fill-opacity:1;fill-rule:nonzero;stroke:none;stroke-width:1;stroke-linecap:butt;stroke-linejoin:miter;stroke-miterlimit:4;stroke-dasharray:none;stroke-dashoffset:0;stroke-opacity:1;marker:none;color-rendering:auto;image-rendering:auto;shape-rendering:auto;text-rendering:auto;enable-background:accumulate"
     id="path433" />
  <path
     d="m 38.330078,1.9755859 c -0.276142,0 -0.5,0.2238576 -0.5,0.5 0,0.2761424 0.223858,0.5 0.5,0.5 l 16.003906,0.00195 c 0.276142,0 0.5,-0.2238576 0.5,-0.4999999 0,-0.2761424 -0.223858,-0.5000001 -0.5,-0.5000001 z M 8.5,20.916992 c -0.276142,0 -0.5,0.223858 -0.5,0.5 v 5.916016 c 0,0.276142 0.223858,0.5 0.5,0.5 0.276142,0 0.5,-0.223858 0.5,-0.5 v -5.916016 c 0,-0.276142 -0.223858,-0.5 -0.5,-0.5 z m 0,13.50586 c -0.276142,0 -0.5,0.223858 -0.5,0.5 v 5.642578 c 0,0.276142 0.223858,0.5 0.5,0.5 0.276142,0 0.5,-0.223858 0.5,-0.5 v -5.642578 c 0,-0.276142 -0.223858,-0.5 -0.5,-0.5 z m 47,4.335937 c -0.276142,0 -0.5,0.223858 -0.5,0.5 V 60.973633 H 37.990234 c -0.276142,0 -0.5,0.223858 -0.5,0.5 0,0.276142 0.223858,0.5 0.5,0.5 H 55.5 c 0.276131,-2.8e-5 0.499972,-0.223869 0.5,-0.5 V 39.258789 c 0,-0.276142 -0.223858,-0.5 -0.5,-0.5 z M 30.107422,60.93457 c -0.276146,-0.0022 -0.501757,0.219948 -0.503906,0.496094 -0.0022,0.276145 0.219947,0.501757 0.496093,0.503906 l 4.91211,0.03906 c 0.276146,0.0022 0.501757,-0.219948 0.503906,-0.496094 0.0022,-0.276146 -0.219948,-0.501757 -0.496094,-0.503906 z"
     style="color:#000000;opacity:0.2;fill:#410000;stroke-linecap:round;stroke-linejoin:round;-inkscape-stroke:none"
     id="path3374" />
</svg>
