<?xml version="1.0" encoding="UTF-8" standalone="no"?>
<!-- Created with Inkscape (http://www.inkscape.org/) -->

<svg
   width="64"
   height="64"
   viewBox="0 0 64 64"
   version="1.1"
   id="svg5"
   inkscape:version="1.2.1 (9c6d41e410, 2022-07-14)"
   sodipodi:docname="application-vnd.ms-access.svg"
   xmlns:inkscape="http://www.inkscape.org/namespaces/inkscape"
   xmlns:sodipodi="http://sodipodi.sourceforge.net/DTD/sodipodi-0.dtd"
   xmlns="http://www.w3.org/2000/svg"
   xmlns:svg="http://www.w3.org/2000/svg">
  <sodipodi:namedview
     id="namedview7"
     pagecolor="#ffffff"
     bordercolor="#000000"
     borderopacity="0.25"
     inkscape:showpageshadow="2"
     inkscape:pageopacity="0.0"
     inkscape:pagecheckerboard="0"
     inkscape:deskcolor="#d1d1d1"
     inkscape:document-units="px"
     showgrid="false"
     inkscape:zoom="12.34375"
     inkscape:cx="32.040506"
     inkscape:cy="32"
     inkscape:window-width="1920"
     inkscape:window-height="1002"
     inkscape:window-x="0"
     inkscape:window-y="0"
     inkscape:window-maximized="1"
     inkscape:current-layer="svg5" />
  <defs
     id="defs2" />
  <rect
     style="opacity:0.3;fill:#000000;fill-opacity:1;stroke-width:2;stroke-linejoin:round"
     id="rect234"
     width="48"
     height="60"
     x="8"
     y="2"
     ry="1" />
  <rect
     style="fill:#fafafa;fill-opacity:1;stroke-width:3.1622;stroke-linejoin:round"
     id="rect2307"
     width="46"
     height="58"
     x="9"
     y="3" />
  <ellipse
     style="opacity:0.25;fill:#a4262c;fill-opacity:1;stroke-width:5.26632;stroke-linejoin:round"
     id="path2670"
     cx="36"
     cy="20.000134"
     rx="12.999998"
     ry="4.000133" />
  <path
     id="rect3773"
     style="opacity:0.5;fill:#a4262c;fill-opacity:1;stroke-width:5.26632;stroke-linejoin:round"
     d="m 23.000006,20.000126 v 8.000266 c 0,2.209214 5.820297,4.000136 13.000001,4.000136 7.179697,0 12.999995,-1.790922 12.999995,-4.000136 v -0.0052 -0.0052 -0.0052 -0.0052 -0.0052 -0.0052 -0.0052 -0.0052 -0.0052 -0.0052 -0.0052 -0.0052 -0.0052 -0.0052 -0.0052 -0.0052 -0.0052 -7.911722 c 0,2.209212 -5.820298,4.000133 -12.999995,4.000133 -7.179704,0 -13.000001,-1.790921 -13.000001,-4.000133 z"
     sodipodi:nodetypes="csssssssssssssssssssccsc" />
  <path
     d="M 23.000003,28.000392 V 35.9996 c 0,2.209214 5.820296,4.000131 12.999997,4.000131 7.179704,0 13.000002,-1.790917 13.000002,-4.000131 V 35.9943 35.989 35.9837 35.9784 35.9731 35.9678 35.9625 35.9572 35.9519 35.9466 35.9413 35.936 35.9307 35.9254 35.9201 35.9148 35.9095 27.998838 c 0,2.209214 -5.820298,4.000136 -13.000002,4.000136 -7.179701,0 -12.999997,-1.790922 -12.999997,-4.000136 z"
     style="opacity:0.7;fill:#a4262c;fill-opacity:1;stroke-width:5.26632;stroke-linejoin:round"
     id="path5291"
     sodipodi:nodetypes="csssccccccccccccccccccsc" />
  <path
     d="m 23.000003,36.000662 v 7.999204 c 0,2.209217 5.820296,4.000139 12.999997,4.000139 7.179704,0 13.000002,-1.790922 13.000002,-4.000139 v -0.0053 -0.0053 -0.0053 -0.0053 -0.0053 -0.0053 -0.0053 -0.0053 -0.0053 -0.0053 -0.0053 -0.0053 -0.0053 -0.0053 -0.0053 -0.0053 -0.0053 -7.910664 c 0,2.209213 -5.820298,4.000131 -13.000002,4.000131 -7.179701,0 -12.999997,-1.790918 -12.999997,-4.000131 z"
     style="opacity:0.9;fill:#a4262c;fill-opacity:1;stroke-width:5.26632;stroke-linejoin:round"
     id="path5319" />
  <rect
     style="fill:#fafafa;fill-opacity:1;stroke-width:0.999999"
     id="rect3242"
     width="20"
     height="20"
     x="13"
     y="23.000002"
     ry="3" />
  <rect
     style="fill:#a4262c;stroke-width:0.999999;fill-opacity:1"
     id="rect2687"
     width="18"
     height="18"
     x="14"
     y="24.000002"
     ry="1.9999993" />
  <path
     id="rect7048"
     style="fill:#ffffff;stroke-width:3.99999;stroke-linejoin:round"
     d="m 21.999999,26.999999 -4,11.999998 h 2 l 1.144531,-3.999999 h 3.710938 l 1.14453,3.999999 h 2.000001 l -4,-11.999998 z m 0.999999,2.25 1.285157,3.749998 h -2.570312 z"
     sodipodi:nodetypes="ccccccccccccc" />
</svg>
