<?xml version="1.0" encoding="UTF-8" standalone="no"?>
<!-- Created with Inkscape (http://www.inkscape.org/) -->

<svg
   width="64"
   height="64"
   viewBox="0 0 64 64"
   version="1.1"
   id="svg5"
   inkscape:version="1.2.1 (9c6d41e410, 2022-07-14)"
   sodipodi:docname="text-x-vala.svg"
   xmlns:inkscape="http://www.inkscape.org/namespaces/inkscape"
   xmlns:sodipodi="http://sodipodi.sourceforge.net/DTD/sodipodi-0.dtd"
   xmlns="http://www.w3.org/2000/svg"
   xmlns:svg="http://www.w3.org/2000/svg">
  <sodipodi:namedview
     id="namedview7"
     pagecolor="#ffffff"
     bordercolor="#000000"
     borderopacity="0.25"
     inkscape:showpageshadow="2"
     inkscape:pageopacity="0.0"
     inkscape:pagecheckerboard="0"
     inkscape:deskcolor="#d1d1d1"
     inkscape:document-units="px"
     showgrid="false"
     inkscape:zoom="12.34375"
     inkscape:cx="32"
     inkscape:cy="32.040506"
     inkscape:window-width="1920"
     inkscape:window-height="1007"
     inkscape:window-x="0"
     inkscape:window-y="0"
     inkscape:window-maximized="1"
     inkscape:current-layer="svg5" />
  <defs
     id="defs2" />
  <rect
     style="opacity:0.3;fill:#000000;fill-opacity:1;stroke-width:2;stroke-linejoin:round"
     id="rect234"
     width="48"
     height="60"
     x="8"
     y="2"
     ry="1" />
  <rect
     style="fill:#fafafa;fill-opacity:1;stroke-width:3.1622;stroke-linejoin:round"
     id="rect2307"
     width="46"
     height="58"
     x="9"
     y="3" />
  <path
     d="M 27.947304,45.999972 27.345743,20.497361 c -1.750001,0.656251 -3.117188,1.683159 -4.101564,3.080728 -0.972221,1.397571 -1.458333,3.13542 -1.458333,5.213543 0,0.473958 0.02438,0.862849 0.0729,1.166667 0.06074,0.291674 0.12154,0.528644 0.18228,0.71094 0.06074,0.17014 0.11546,0.303824 0.16406,0.40104 0.06074,0.09724 0.09112,0.182281 0.09112,0.255225 -0.644096,0 -1.215278,-0.06074 -1.713541,-0.18228 -0.498266,-0.133681 -0.917534,-0.340277 -1.257812,-0.619791 -0.328127,-0.279524 -0.583337,-0.650174 -0.765629,-1.11198 C 18.389084,28.949648 18.304,28.378466 18.304,27.69791 c 0,-0.826389 0.17622,-1.640623 0.528648,-2.442708 0.364577,-0.802076 0.856767,-1.561625 1.476561,-2.278639 0.631947,-0.717015 1.367187,-1.379341 2.205731,-1.986979 0.850691,-0.607639 1.756073,-1.130209 2.716146,-1.567709 0.972221,-0.449652 1.980903,-0.796007 3.026044,-1.039063 C 29.31442,18.127602 30.365635,18 31.410771,18 c 0.279527,0 0.534725,0.006 0.765627,0.0182 0.243038,0.0122 0.486114,0.03038 0.72917,0.0547 l 0.328139,22.968765 7.85677,-22.859381 h 2.606774 L 33.324851,46 Z"
     style="color:#000000;clip-rule:nonzero;display:inline;overflow:visible;visibility:visible;isolation:auto;mix-blend-mode:normal;color-interpolation:sRGB;color-interpolation-filters:linearRGB;solid-color:#000000;solid-opacity:1;fill:#8d5fd3;fill-opacity:1;fill-rule:nonzero;stroke-width:2;stroke-linecap:butt;stroke-linejoin:miter;stroke-miterlimit:4;stroke-dasharray:none;stroke-dashoffset:0;stroke-opacity:1;color-rendering:auto;image-rendering:auto;shape-rendering:auto;text-rendering:auto;enable-background:accumulate"
     id="path328" />
</svg>
