<?xml version="1.0" encoding="UTF-8" standalone="no"?>
<!-- Created with Inkscape (http://www.inkscape.org/) -->

<svg
   width="64"
   height="64"
   viewBox="0 0 64 64"
   version="1.1"
   id="svg5"
   inkscape:version="1.2.1 (9c6d41e410, 2022-07-14)"
   sodipodi:docname="text-x-ruby.svg"
   xmlns:inkscape="http://www.inkscape.org/namespaces/inkscape"
   xmlns:sodipodi="http://sodipodi.sourceforge.net/DTD/sodipodi-0.dtd"
   xmlns="http://www.w3.org/2000/svg"
   xmlns:svg="http://www.w3.org/2000/svg">
  <sodipodi:namedview
     id="namedview7"
     pagecolor="#ffffff"
     bordercolor="#000000"
     borderopacity="0.25"
     inkscape:showpageshadow="2"
     inkscape:pageopacity="0.0"
     inkscape:pagecheckerboard="0"
     inkscape:deskcolor="#d1d1d1"
     inkscape:document-units="px"
     showgrid="false"
     inkscape:zoom="12.34375"
     inkscape:cx="32.121519"
     inkscape:cy="32.040506"
     inkscape:window-width="1920"
     inkscape:window-height="1007"
     inkscape:window-x="0"
     inkscape:window-y="0"
     inkscape:window-maximized="1"
     inkscape:current-layer="svg5" />
  <defs
     id="defs2" />
  <rect
     style="opacity:0.3;fill:#000000;fill-opacity:1;stroke-width:2;stroke-linejoin:round"
     id="rect234"
     width="48"
     height="60"
     x="8"
     y="2"
     ry="1" />
  <rect
     style="fill:#fafafa;fill-opacity:1;stroke-width:3.1622;stroke-linejoin:round"
     id="rect2307"
     width="46"
     height="58"
     x="9"
     y="3" />
  <path
     d="m 42.673892,15 -9.075821,1.158645 c 1.321864,0.659515 3.138078,0.495125 3.693384,2.432238 z m 2.323787,0.154436 -5.217452,3.017992 8.949454,-0.08387 z m -13.499581,3.165769 c -1.07796,0.06129 -2.369526,0.428863 -3.809219,1.145337 -4.607077,2.292715 -8.944033,7.222282 -9.690371,11.002998 -0.74631,3.780726 2.380822,4.982333 6.987861,2.689628 4.607087,-2.292715 8.944052,-7.209409 9.690381,-10.990135 0.513079,-2.599244 -0.807123,-3.982676 -3.178652,-3.847828 z m 4.298234,7.103688 10.822846,-0.154426 -8.919128,-5.386641 c -0.01436,1.713752 -0.936125,4.653808 -1.903718,5.541067 z M 48.884117,25.372423 49,19.838751 39.674553,19.250693 Z m -0.501888,1.351245 -10.809963,0.167299 7.850092,5.302028 z M 35.2301,27.302773 C 29.451723,35.016714 15.759334,42.80163 15.637274,31.172003 L 15,44.830354 c 0.14535,0.826389 1.203024,3.285308 4.735786,3.950773 8.952693,0.310977 15.077285,0.428277 27.398105,-1.248282 1.039191,-5.754653 0.976914,-11.696447 1.2483,-17.579063 -3.975536,6.170775 -8.35894,10.909139 -14.082917,13.813411 4.00998,-3.326958 7.286835,-6.963977 10.338053,-10.647632 l -9.407246,-5.816788 z"
     style="display:inline;vector-effect:none;fill:#ff5555;fill-opacity:1;stroke:none;stroke-width:1.1178;stroke-linecap:butt;stroke-linejoin:miter;stroke-miterlimit:4;stroke-dasharray:none;stroke-dashoffset:0;stroke-opacity:1;enable-background:new"
     id="path3031" />
</svg>
