<?xml version="1.0" encoding="UTF-8" standalone="no"?>
<!-- Created with Inkscape (http://www.inkscape.org/) -->

<svg
   width="64"
   height="64"
   viewBox="0 0 64 64"
   version="1.1"
   id="svg5"
   inkscape:version="1.2.1 (9c6d41e410, 2022-07-14)"
   sodipodi:docname="text-x-markdown.svg"
   xmlns:inkscape="http://www.inkscape.org/namespaces/inkscape"
   xmlns:sodipodi="http://sodipodi.sourceforge.net/DTD/sodipodi-0.dtd"
   xmlns="http://www.w3.org/2000/svg"
   xmlns:svg="http://www.w3.org/2000/svg">
  <sodipodi:namedview
     id="namedview7"
     pagecolor="#ffffff"
     bordercolor="#000000"
     borderopacity="0.25"
     inkscape:showpageshadow="2"
     inkscape:pageopacity="0.0"
     inkscape:pagecheckerboard="0"
     inkscape:deskcolor="#d1d1d1"
     inkscape:document-units="px"
     showgrid="false"
     inkscape:zoom="12.34375"
     inkscape:cx="32.121519"
     inkscape:cy="32.040506"
     inkscape:window-width="1920"
     inkscape:window-height="1007"
     inkscape:window-x="0"
     inkscape:window-y="0"
     inkscape:window-maximized="1"
     inkscape:current-layer="svg5" />
  <defs
     id="defs2" />
  <rect
     style="opacity:0.3;fill:#000000;fill-opacity:1;stroke-width:2;stroke-linejoin:round"
     id="rect234"
     width="48"
     height="60"
     x="8"
     y="2"
     ry="1" />
  <rect
     style="fill:#fafafa;fill-opacity:1;stroke-width:3.1622;stroke-linejoin:round"
     id="rect2307"
     width="46"
     height="58"
     x="9"
     y="3" />
  <path
     id="rect297"
     style="fill:#505f6f;stroke-width:3;stroke-linecap:round;stroke-linejoin:round"
     d="m 17,22 c -1.661996,0 -3,1.338004 -3,3 v 14 c 0,1.661996 1.338004,3 3,3 h 30 c 1.661996,0 3,-1.338004 3,-3 V 25 c 0,-1.661996 -1.338004,-3 -3,-3 z m 0,2 h 30 c 0.553998,0 1,0.446002 1,1 v 14 c 0,0.553998 -0.446002,1 -1,1 H 17 c -0.553998,0 -1,-0.446002 -1,-1 V 25 c 0,-0.553998 0.446002,-1 1,-1 z m 3,3 v 10 h 3 v -5.5 l 3,3.25 3,-3.25 V 37 h 3 V 27 H 29 L 26,30.3125 23,27 Z m 18,0 v 5 H 35 L 39.5,37.5 44,32 h -3 v -5 z" />
</svg>
