<?xml version="1.0" encoding="UTF-8" standalone="no"?>
<!-- Created with Inkscape (http://www.inkscape.org/) -->

<svg
   width="64"
   height="64"
   viewBox="0 0 64 64"
   version="1.1"
   id="svg5"
   inkscape:version="1.2.1 (9c6d41e410, 2022-07-14)"
   sodipodi:docname="text-x-python.svg"
   xmlns:inkscape="http://www.inkscape.org/namespaces/inkscape"
   xmlns:sodipodi="http://sodipodi.sourceforge.net/DTD/sodipodi-0.dtd"
   xmlns="http://www.w3.org/2000/svg"
   xmlns:svg="http://www.w3.org/2000/svg">
  <sodipodi:namedview
     id="namedview7"
     pagecolor="#ffffff"
     bordercolor="#000000"
     borderopacity="0.25"
     inkscape:showpageshadow="2"
     inkscape:pageopacity="0.0"
     inkscape:pagecheckerboard="0"
     inkscape:deskcolor="#d1d1d1"
     inkscape:document-units="px"
     showgrid="false"
     inkscape:zoom="12.828125"
     inkscape:cx="32"
     inkscape:cy="32"
     inkscape:window-width="1920"
     inkscape:window-height="1007"
     inkscape:window-x="0"
     inkscape:window-y="0"
     inkscape:window-maximized="1"
     inkscape:current-layer="svg5" />
  <defs
     id="defs2" />
  <rect
     style="opacity:0.3;fill:#000000;fill-opacity:1;stroke-width:2;stroke-linejoin:round"
     id="rect234"
     width="48"
     height="60"
     x="8"
     y="2"
     ry="1" />
  <rect
     style="fill:#fafafa;fill-opacity:1;stroke-width:3.1622;stroke-linejoin:round"
     id="rect2307"
     width="46"
     height="58"
     x="9"
     y="3" />
  <path
     d="m 31.805881,15.59527 c -1.347407,0.0063 -2.63415,0.121175 -3.766352,0.321518 -3.335324,0.589242 -3.940889,1.822577 -3.94089,4.097056 v 3.003895 h 7.88178 v 1.001298 h -7.88178 -2.957964 c -2.290665,0 -4.296436,1.376822 -4.923816,3.996008 -0.723675,3.002195 -0.755774,4.875613 0,8.010387 0.560265,2.333405 1.898254,3.996007 4.188918,3.996008 h 2.709936 v -3.601 c 0,-2.60151 2.250888,-4.896257 4.923816,-4.896258 h 7.872594 c 2.191452,0 3.940891,-1.804369 3.940891,-4.005193 v -7.505145 c 0,-2.136007 -1.801964,-3.740565 -3.940891,-4.097056 -1.353972,-0.225386 -2.758835,-0.327779 -4.106242,-0.321518 z m -4.262408,2.415977 c 0.814134,0 1.478982,0.675708 1.478982,1.506541 0,0.827887 -0.664848,1.497354 -1.478982,1.497354 -0.817052,0 -1.478982,-0.669467 -1.478982,-1.497354 0,-0.830833 0.66193,-1.506541 1.478982,-1.506541 z"
     style="color:#000000;clip-rule:nonzero;display:inline;overflow:visible;visibility:visible;isolation:auto;mix-blend-mode:normal;color-interpolation:sRGB;color-interpolation-filters:linearRGB;solid-color:#000000;solid-opacity:1;fill:#3b92e7;fill-opacity:1;fill-rule:nonzero;stroke:none;stroke-width:1;stroke-linecap:butt;stroke-linejoin:miter;stroke-miterlimit:4;stroke-dasharray:none;stroke-dashoffset:0;stroke-opacity:1;marker:none;color-rendering:auto;image-rendering:auto;shape-rendering:auto;text-rendering:auto;enable-background:accumulate"
     id="path395" />
  <path
     d="m 40.835302,24.019 v 3.49996 c 0,2.71346 -2.3005,4.9973 -4.92382,4.9973 h -7.87259 c -2.15644,0 -3.940891,1.84562 -3.940892,4.00519 v 7.50515 c 0,2.13601 1.857402,3.39238 3.940892,4.00519 2.49493,0.73361 4.88743,0.86619 7.87259,0 1.98427,-0.57451 3.94089,-1.73072 3.94089,-4.00519 v -3.0039 h -7.87259 v -1.00129 h 7.87259 3.94089 c 2.29067,0 3.14426,-1.59779 3.94089,-3.99601 0.82289,-2.46893 0.78788,-4.84321 0,-8.01039 -0.5661,-2.28037 -1.64731,-3.99601 -3.94089,-3.99601 z m -4.42776,19.0063 c 0.81705,0 1.47898,0.66947 1.47898,1.49736 0,0.83083 -0.66193,1.50654 -1.47898,1.50654 -0.81414,0 -1.47898,-0.67571 -1.47898,-1.50654 0,-0.82789 0.66484,-1.49736 1.47898,-1.49736 z"
     style="color:#000000;clip-rule:nonzero;display:inline;overflow:visible;visibility:visible;isolation:auto;mix-blend-mode:normal;color-interpolation:sRGB;color-interpolation-filters:linearRGB;solid-color:#000000;solid-opacity:1;fill:#ffda2f;fill-opacity:1;fill-rule:nonzero;stroke:none;stroke-width:1;stroke-linecap:butt;stroke-linejoin:miter;stroke-miterlimit:4;stroke-dasharray:none;stroke-dashoffset:0;stroke-opacity:1;marker:none;color-rendering:auto;image-rendering:auto;shape-rendering:auto;text-rendering:auto;enable-background:accumulate"
     id="path3769" />
</svg>
