<?xml version="1.0" encoding="UTF-8" standalone="no"?>
<!-- Created with Inkscape (http://www.inkscape.org/) -->

<svg
   width="64"
   height="64"
   viewBox="0 0 64 64"
   version="1.1"
   id="svg5"
   inkscape:version="1.2.1 (9c6d41e410, 2022-07-14)"
   sodipodi:docname="x-office-spreadsheet-template.svg"
   xmlns:inkscape="http://www.inkscape.org/namespaces/inkscape"
   xmlns:sodipodi="http://sodipodi.sourceforge.net/DTD/sodipodi-0.dtd"
   xmlns="http://www.w3.org/2000/svg"
   xmlns:svg="http://www.w3.org/2000/svg">
  <sodipodi:namedview
     id="namedview7"
     pagecolor="#ffffff"
     bordercolor="#000000"
     borderopacity="0.25"
     inkscape:showpageshadow="2"
     inkscape:pageopacity="0.0"
     inkscape:pagecheckerboard="0"
     inkscape:deskcolor="#d1d1d1"
     inkscape:document-units="px"
     showgrid="false"
     inkscape:zoom="12.828125"
     inkscape:cx="32.077954"
     inkscape:cy="32.077954"
     inkscape:window-width="1920"
     inkscape:window-height="1007"
     inkscape:window-x="0"
     inkscape:window-y="0"
     inkscape:window-maximized="1"
     inkscape:current-layer="svg5" />
  <defs
     id="defs2" />
  <rect
     style="opacity:0.6;fill:#225500;fill-opacity:1;stroke-width:4;stroke-linejoin:round"
     id="rect234"
     width="48"
     height="60"
     x="8"
     y="2"
     ry="1" />
  <rect
     style="fill:#77c143;fill-opacity:1;stroke-width:3.1622;stroke-linejoin:round"
     id="rect2307"
     width="46"
     height="58"
     x="9"
     y="3" />
  <path
     id="rect287"
     style="fill:#ffffff;stroke-width:6;stroke-linecap:round;stroke-linejoin:round"
     d="M 16,19 V 45 H 48 V 19 Z m 2,2 h 28 v 4 H 18 Z m 0,6 h 8 v 4 h -8 z m 10,0 h 8 v 4 h -8 z m 10,0 h 8 v 4 h -8 z m -20,6 h 8 v 4 h -8 z m 10,0 h 8 v 4 h -8 z m 10,0 h 8 v 4 h -8 z m -20,6 h 8 v 4 h -8 z m 10,0 h 8 v 4 h -8 z m 10,0 h 8 v 4 h -8 z" />
  <path
     id="path8301"
     style="color:#000000;opacity:0.8;fill:#e9e9e9;fill-rule:evenodd;stroke-width:1px;-inkscape-stroke:none"
     d="M 55,22.707031 16.707031,61 H 55 Z M 48,38.970704 V 54.000001 H 32.783203 Z" />
  <path
     d="M 56,20.292969 14.292969,62 H 56 Z m -1,2.414062 V 61 H 16.707031 Z M 48,38.970704 32.783203,54.000001 H 48 Z m -1,2.392578 V 53.000001 H 35.216797 Z"
     style="color:#000000;opacity:0.8;fill:#83899a;fill-rule:evenodd;-inkscape-stroke:none"
     id="path8313" />
</svg>
