<?xml version="1.0" encoding="UTF-8" standalone="no"?>
<!-- Created with Inkscape (http://www.inkscape.org/) -->

<svg
   width="64"
   height="64"
   viewBox="0 0 64 64.000003"
   version="1.1"
   id="svg5"
   sodipodi:docname="x-office-calendar.svg"
   inkscape:version="1.2.1 (9c6d41e410, 2022-07-14)"
   xmlns:inkscape="http://www.inkscape.org/namespaces/inkscape"
   xmlns:sodipodi="http://sodipodi.sourceforge.net/DTD/sodipodi-0.dtd"
   xmlns:xlink="http://www.w3.org/1999/xlink"
   xmlns="http://www.w3.org/2000/svg"
   xmlns:svg="http://www.w3.org/2000/svg">
  <sodipodi:namedview
     id="namedview7"
     pagecolor="#ffffff"
     bordercolor="#666666"
     borderopacity="1.0"
     inkscape:showpageshadow="2"
     inkscape:pageopacity="0.0"
     inkscape:pagecheckerboard="0"
     inkscape:deskcolor="#d1d1d1"
     inkscape:document-units="px"
     showgrid="false"
     inkscape:zoom="12.34375"
     inkscape:cx="31.959494"
     inkscape:cy="32"
     inkscape:window-width="1920"
     inkscape:window-height="1002"
     inkscape:window-x="0"
     inkscape:window-y="0"
     inkscape:window-maximized="1"
     inkscape:current-layer="svg5"
     showguides="true" />
  <defs
     id="defs2">
    <linearGradient
       inkscape:collect="always"
       xlink:href="#linearGradient22024"
       id="linearGradient3525"
       x1="32"
       y1="60"
       x2="32"
       y2="18"
       gradientUnits="userSpaceOnUse" />
    <linearGradient
       inkscape:collect="always"
       id="linearGradient22024">
      <stop
         style="stop-color:#dedede;stop-opacity:1;"
         offset="0"
         id="stop22020" />
      <stop
         style="stop-color:#f2f2f2;stop-opacity:1;"
         offset="1"
         id="stop22022" />
    </linearGradient>
  </defs>
  <rect
     style="fill:url(#linearGradient3525);fill-opacity:1;stroke:none"
     id="rect184"
     width="55"
     height="55"
     x="4.5"
     y="4.5"
     ry="9.5" />
  <path
     id="rect348"
     style="opacity:1;fill:#97c04d;fill-opacity:1;stroke-linejoin:round"
     d="M 14,4.5 C 8.7370053,4.5 4.5,8.7370053 4.5,14 v 5 h 55 V 14 C 59.5,8.7370053 55.262995,4.5 50,4.5 Z"
     sodipodi:nodetypes="ssccsss" />
  <rect
     style="opacity:0.2;fill:#000000;stroke-width:0.927025;stroke-linejoin:round"
     id="rect581"
     width="55"
     height="1"
     x="4.5"
     y="18" />
  <path
     d="m 14.000001,10.999524 c -1.104567,8e-6 -1.999993,0.895433 -2.000001,2 8e-6,1.104566 0.895434,1.999992 2.000001,2 1.104566,-8e-6 1.999991,-0.895434 1.999999,-2 -8e-6,-1.104566 -0.895433,-1.999992 -1.999999,-2 z m 36,0 c -1.104566,8e-6 -1.999992,0.895434 -1.999999,2 7e-6,1.104566 0.895433,1.999992 1.999999,2 1.104566,-7e-6 1.999991,-0.895433 2.000003,-2 -1.2e-5,-1.104568 -0.895437,-1.999994 -2.000003,-2 z"
     id="path1474"
     style="opacity:0.2;fill:#000000;stroke-width:3.7796"
     sodipodi:nodetypes="cccccccccc" />
  <path
     d="m 14.000002,10 c -1.104566,8e-6 -1.999992,0.895434 -2,2 8e-6,1.104566 0.895434,1.999992 2,2 1.104566,-8e-6 1.999992,-0.895434 2,-2 -8e-6,-1.104566 -0.895433,-1.999992 -2,-2 z m 35.999999,0 c -1.104566,8e-6 -1.999992,0.895434 -1.999999,2 7e-6,1.104566 0.895433,1.999991 1.999999,2 1.104566,-7e-6 1.999995,-0.895433 2.000003,-2 -8e-6,-1.104568 -0.895437,-1.999994 -2.000003,-2 z"
     id="path1545"
     style="fill:#ffffff;stroke-width:3.7796"
     sodipodi:nodetypes="cccccccccc" />
  <path
     id="rect2630"
     style="opacity:0.3;fill:#ffffff;fill-opacity:1"
     d="M 14,5 C 9.014005,5 5,9.014005 5,14 v 1 C 5,10.014005 9.014005,6 14,6 h 36 c 4.985995,0 9,4.014005 9,9 V 14 C 59,9.014005 54.985995,5 50,5 Z" />
  <path
     id="rect899"
     style="fill:#000000;stroke:none;opacity:0.6"
     d="M 14,4 C 8.4600055,4 4,8.4600055 4,14 v 36 c 0,5.539994 4.4600055,10 10,10 h 36 c 5.539994,0 10,-4.460006 10,-10 V 14 C 60,8.4600055 55.539994,4 50,4 Z m 0,1 h 36 c 4.985995,0 9,4.014005 9,9 v 36 c 0,4.985995 -4.014005,9 -9,9 H 14 C 9.014005,59 5,54.985995 5,50 V 14 C 5,9.014005 9.014005,5 14,5 Z" />
  <path
     id="rect398"
     style="opacity:0.3;fill:#ffffff"
     d="M 5 49 L 5 50 C 5 54.985995 9.014005 59 14 59 L 50 59 C 54.985995 59 59 54.985995 59 50 L 59 49 C 59 53.985995 54.985995 58 50 58 L 14 58 C 9.014005 58 5 53.985995 5 49 z " />
</svg>
