<?xml version="1.0" encoding="UTF-8" standalone="no"?>
<!-- Created with Inkscape (http://www.inkscape.org/) -->

<svg
   width="22"
   height="22"
   viewBox="0 0 22 22"
   version="1.1"
   id="svg5"
   inkscape:version="1.2.1 (9c6d41e410, 2022-07-14)"
   sodipodi:docname="application-x-plasma.svg"
   xmlns:inkscape="http://www.inkscape.org/namespaces/inkscape"
   xmlns:sodipodi="http://sodipodi.sourceforge.net/DTD/sodipodi-0.dtd"
   xmlns="http://www.w3.org/2000/svg"
   xmlns:svg="http://www.w3.org/2000/svg">
  <sodipodi:namedview
     id="namedview7"
     pagecolor="#ffffff"
     bordercolor="#000000"
     borderopacity="0.25"
     inkscape:showpageshadow="2"
     inkscape:pageopacity="0.0"
     inkscape:pagecheckerboard="0"
     inkscape:deskcolor="#d1d1d1"
     inkscape:document-units="px"
     showgrid="false"
     inkscape:zoom="8.2291668"
     inkscape:cx="-16.405063"
     inkscape:cy="19.382278"
     inkscape:window-width="1920"
     inkscape:window-height="1009"
     inkscape:window-x="0"
     inkscape:window-y="0"
     inkscape:window-maximized="1"
     inkscape:current-layer="svg5" />
  <defs
     id="defs2" />
  <rect
     style="opacity:0.3;fill:#000000;fill-opacity:1;stroke-linejoin:round"
     id="rect234"
     width="18"
     height="22"
     x="2"
     y="0"
     ry="0.5" />
  <rect
     style="fill:#fafafa;fill-opacity:1;stroke-width:2.31345;stroke-linejoin:round"
     id="rect2307"
     width="16"
     height="20"
     x="3"
     y="1" />
  <path
     id="path360"
     style="fill:#3daee9;fill-opacity:1"
     d="m 8.1992191,5.0000001 c -0.443199,0 -0.798828,0.3575822 -0.798828,0.8007812 0,0.4431992 0.355629,0.7988282 0.798828,0.7988282 C 8.6424181,6.5996095 9,6.2439805 9,5.8007813 9,5.3575823 8.6424181,5.0000001 8.1992191,5.0000001 Z m 4.5156249,0 L 11,6.5996095 13.572266,8.9999999 11,11.400391 12.714844,13 17,8.9999999 Z M 6.0000001,10 c -0.5539951,0 -1,0.445998 -1,1 0,0.553996 0.4460049,1 1,1 0.554003,0 1,-0.446004 1,-1 0,-0.554002 -0.445997,-1 -1,-1 z M 9.5,14 C 8.6690011,14 8.0000001,14.669002 8.0000001,15.5 8.0000001,16.330998 8.6690011,17 9.5,17 10.330999,17 11,16.330998 11,15.5 11,14.669002 10.330999,14 9.5,14 Z" />
</svg>
