<?xml version="1.0" encoding="UTF-8" standalone="no"?>
<!-- Created with Inkscape (http://www.inkscape.org/) -->

<svg
   width="22"
   height="22"
   viewBox="0 0 22 22"
   version="1.1"
   id="svg5"
   inkscape:version="1.2.1 (9c6d41e410, 2022-07-14)"
   sodipodi:docname="application-x-cd-image.svg"
   xmlns:inkscape="http://www.inkscape.org/namespaces/inkscape"
   xmlns:sodipodi="http://sodipodi.sourceforge.net/DTD/sodipodi-0.dtd"
   xmlns="http://www.w3.org/2000/svg"
   xmlns:svg="http://www.w3.org/2000/svg">
  <sodipodi:namedview
     id="namedview7"
     pagecolor="#ffffff"
     bordercolor="#000000"
     borderopacity="0.25"
     inkscape:showpageshadow="2"
     inkscape:pageopacity="0.0"
     inkscape:pagecheckerboard="0"
     inkscape:deskcolor="#d1d1d1"
     inkscape:document-units="px"
     showgrid="false"
     inkscape:zoom="9.090909"
     inkscape:cx="-9.5700001"
     inkscape:cy="8.1950001"
     inkscape:window-width="1920"
     inkscape:window-height="1009"
     inkscape:window-x="0"
     inkscape:window-y="0"
     inkscape:window-maximized="1"
     inkscape:current-layer="svg5" />
  <defs
     id="defs2" />
  <rect
     style="opacity:0.3;fill:#000000;fill-opacity:1;stroke-linejoin:round"
     id="rect234"
     width="18"
     height="22"
     x="2"
     y="0"
     ry="0.5" />
  <rect
     style="fill:#fafafa;fill-opacity:1;stroke-width:2.31345;stroke-linejoin:round"
     id="rect2307"
     width="16"
     height="20"
     x="3"
     y="1" />
  <path
     id="path4048"
     style="fill:#b3b3b3;fill-opacity:1;stroke-width:0.466663;stroke-linejoin:round"
     d="m 11,3.9999999 c -3.865969,0 -7.0000003,3.1340312 -7.0000003,7.0000001 0,3.865969 3.1340313,7 7.0000003,7 3.865969,0 7,-3.134031 7,-7 0,-3.8659689 -3.134031,-7.0000002 -7,-7.0000001 z m 0,4.0000002 c 1.656843,0 3,1.3431569 3,2.9999999 0,1.656843 -1.343157,3 -3,3 C 9.343157,14 7.9999997,12.656843 7.9999997,11 7.9999997,9.343157 9.343157,8.0000001 11,8.0000001 Z M 11,9 c -1.104563,0 -2,0.895437 -2,2 0,1.104563 0.895437,2 2,2 1.104563,0 2,-0.895437 2,-2 0,-1.104563 -0.895437,-2 -2,-2 z m 0,1 c 0.55228,0 1,0.44772 1,1 0,0.55228 -0.44772,1 -1,1 -0.55228,0 -1,-0.44772 -1,-1 0,-0.55228 0.44772,-1 1,-1 z" />
</svg>
