<?xml version="1.0" encoding="UTF-8" standalone="no"?>
<!-- Created with Inkscape (http://www.inkscape.org/) -->

<svg
   width="22"
   height="22"
   viewBox="0 0 22 22"
   version="1.1"
   id="svg5"
   inkscape:version="1.2.1 (9c6d41e410, 2022-07-14)"
   sodipodi:docname="application-pdf.svg"
   xmlns:inkscape="http://www.inkscape.org/namespaces/inkscape"
   xmlns:sodipodi="http://sodipodi.sourceforge.net/DTD/sodipodi-0.dtd"
   xmlns="http://www.w3.org/2000/svg"
   xmlns:svg="http://www.w3.org/2000/svg">
  <sodipodi:namedview
     id="namedview7"
     pagecolor="#ffffff"
     bordercolor="#000000"
     borderopacity="0.25"
     inkscape:showpageshadow="2"
     inkscape:pageopacity="0.0"
     inkscape:pagecheckerboard="0"
     inkscape:deskcolor="#d1d1d1"
     inkscape:document-units="px"
     showgrid="false"
     inkscape:zoom="11.637799"
     inkscape:cx="3.2652222"
     inkscape:cy="18.603174"
     inkscape:window-width="1920"
     inkscape:window-height="1009"
     inkscape:window-x="0"
     inkscape:window-y="0"
     inkscape:window-maximized="1"
     inkscape:current-layer="svg5" />
  <defs
     id="defs2" />
  <rect
     style="opacity:0.3;fill:#000000;fill-opacity:1;stroke-linejoin:round"
     id="rect234"
     width="18"
     height="22"
     x="2"
     y="2e-07"
     ry="0.5" />
  <rect
     style="fill:#fafafa;fill-opacity:1;stroke-width:2.31345;stroke-linejoin:round"
     id="rect2307"
     width="16"
     height="20"
     x="3"
     y="1.0000002" />
  <path
     d="m 13,0 v 1 h 5.869141 V 0 Z M 2.0000002,7.3144531 v 2.1054691 h 1 V 7.3144531 Z m 0,4.6855469 v 2 h 1 V 12 Z M 19,13.412109 V 21 h -6 v 1 h 6.5 c 0.276131,-2.8e-5 0.499972,-0.223869 0.5,-0.5 v -8.087891 z m -8.681641,7.574219 -0.0078,1 1.775391,0.01367 0.0078,-1 z"
     style="color:#000000;opacity:0.2;fill:#410000;stroke-linejoin:round;-inkscape-stroke:none"
     id="path11118" />
  <path
     d="M 13.043479,1.0000007 C 8.3657247,4.9791666 5.0557594,6.6319417 3.0000002,7.3146559 V 9.4267252 C 4.1425212,9.0931952 5.5589473,8.542205 7.0326083,7.627157 10.423072,5.5218927 14.467391,1.5280179 14.467391,1.5280179 13.355735,3.6897999 13.032349,11.142549 13.010871,21 H 19 V 13.403018 C 18.737304,12.243751 18.502892,11.07082 18.293479,9.9439672 17.741836,5.7939443 18.556693,2.16902 18.858696,1.0000007 c -0.07858,-8.3e-6 -3.535446,2.345e-4 -5.815217,0 z M 3.0000002,11.980605 v 2.036637 C 5.6103109,15.085397 8.6381167,17.839235 10.293479,21 h 1.78261 c -0.7845,-2.898145 -5.8686765,-7.269583 -9.0760888,-9.019395 z"
     style="color:#000000;clip-rule:nonzero;display:inline;overflow:visible;visibility:visible;isolation:auto;mix-blend-mode:normal;color-interpolation:sRGB;color-interpolation-filters:linearRGB;solid-color:#000000;solid-opacity:1;fill:#df554a;fill-opacity:1;fill-rule:nonzero;stroke:none;stroke-width:1;stroke-linecap:butt;stroke-linejoin:miter;stroke-miterlimit:4;stroke-dasharray:none;stroke-dashoffset:0;stroke-opacity:1;marker:none;color-rendering:auto;image-rendering:auto;shape-rendering:auto;text-rendering:auto;enable-background:accumulate"
     id="path9020" />
</svg>
