<?xml version="1.0" encoding="UTF-8" standalone="no"?>
<!-- Created with Inkscape (http://www.inkscape.org/) -->

<svg
   width="22"
   height="22"
   viewBox="0 0 22 22"
   version="1.1"
   id="svg5"
   inkscape:version="1.2.1 (9c6d41e410, 2022-07-14)"
   sodipodi:docname="audio-x-flac.svg"
   xmlns:inkscape="http://www.inkscape.org/namespaces/inkscape"
   xmlns:sodipodi="http://sodipodi.sourceforge.net/DTD/sodipodi-0.dtd"
   xmlns="http://www.w3.org/2000/svg"
   xmlns:svg="http://www.w3.org/2000/svg">
  <sodipodi:namedview
     id="namedview7"
     pagecolor="#ffffff"
     bordercolor="#000000"
     borderopacity="0.25"
     inkscape:showpageshadow="2"
     inkscape:pageopacity="0.0"
     inkscape:pagecheckerboard="0"
     inkscape:deskcolor="#d1d1d1"
     inkscape:document-units="px"
     showgrid="false"
     inkscape:zoom="5.8925565"
     inkscape:cx="-16.800857"
     inkscape:cy="11.115719"
     inkscape:window-width="1920"
     inkscape:window-height="1009"
     inkscape:window-x="0"
     inkscape:window-y="0"
     inkscape:window-maximized="1"
     inkscape:current-layer="svg5" />
  <defs
     id="defs2" />
  <rect
     style="opacity:0.3;fill:#000000;fill-opacity:1;stroke-linejoin:round"
     id="rect234"
     width="18"
     height="22"
     x="2"
     y="0"
     ry="0.5" />
  <rect
     style="fill:#fafafa;fill-opacity:1;stroke-width:2.31345;stroke-linejoin:round"
     id="rect2307"
     width="16"
     height="20"
     x="3"
     y="0.99999994" />
  <path
     d="m 14.723446,6.0060275 c -0.05462,-0.010575 -0.116504,-0.00719 -0.179687,0.0098 L 9.457821,7.381058 C 9.205087,7.448898 9.00079,7.727105 9.00079,8.004105 v 1.603516 4.4375 C 8.550167,13.88538 8.0155397,13.87557 7.5105548,14.017751 6.4397532,14.320099 5.7909515,15.210234 6.061336,16.006032 6.3323965,16.801749 7.4202152,17.201374 8.4910236,16.898611 9.372828,16.648807 9.992432,15.988269 9.998837,15.291189 h 0.002 V 9.838064 l 4,-1.072266 v 4.279297 c -0.450622,-0.159711 -0.985249,-0.169521 -1.490234,-0.02734 -1.070802,0.302348 -1.719603,1.192483 -1.449219,1.988281 0.271061,0.795717 1.358879,1.195342 2.429687,0.892579 0.881803,-0.249804 1.501408,-0.910341 1.507813,-1.607422 h 0.002 V 7.996263 6.3927465 c 0,-0.20775 -0.113497,-0.354994 -0.277344,-0.386719 z"
     style="color:#000000;clip-rule:nonzero;display:inline;overflow:visible;visibility:visible;opacity:1;isolation:auto;mix-blend-mode:normal;color-interpolation:sRGB;color-interpolation-filters:linearRGB;solid-color:#000000;solid-opacity:1;fill:#abc837;fill-opacity:1;fill-rule:nonzero;stroke:none;stroke-width:1.0007;stroke-linecap:butt;stroke-linejoin:miter;stroke-miterlimit:4;stroke-dasharray:none;stroke-dashoffset:0;stroke-opacity:1;marker:none;color-rendering:auto;image-rendering:auto;shape-rendering:auto;text-rendering:auto;enable-background:accumulate"
     id="path2525" />
</svg>
