<?xml version="1.0" encoding="UTF-8" standalone="no"?>
<!-- Created with Inkscape (http://www.inkscape.org/) -->

<svg
   width="22"
   height="22"
   viewBox="0 0 22 22"
   version="1.1"
   id="svg5"
   inkscape:version="1.2.1 (9c6d41e410, 2022-07-14)"
   sodipodi:docname="x-office-spreadsheet-template.svg"
   xmlns:inkscape="http://www.inkscape.org/namespaces/inkscape"
   xmlns:sodipodi="http://sodipodi.sourceforge.net/DTD/sodipodi-0.dtd"
   xmlns="http://www.w3.org/2000/svg"
   xmlns:svg="http://www.w3.org/2000/svg">
  <sodipodi:namedview
     id="namedview7"
     pagecolor="#ffffff"
     bordercolor="#000000"
     borderopacity="0.25"
     inkscape:showpageshadow="2"
     inkscape:pageopacity="0.0"
     inkscape:pagecheckerboard="0"
     inkscape:deskcolor="#d1d1d1"
     inkscape:document-units="px"
     showgrid="false"
     inkscape:zoom="16.5625"
     inkscape:cx="2.2037736"
     inkscape:cy="13.916981"
     inkscape:window-width="1920"
     inkscape:window-height="1007"
     inkscape:window-x="0"
     inkscape:window-y="0"
     inkscape:window-maximized="1"
     inkscape:current-layer="svg5" />
  <defs
     id="defs2" />
  <rect
     style="opacity:0.6;fill:#225500;fill-opacity:1;stroke-width:2;stroke-linejoin:round"
     id="rect234"
     width="18"
     height="22"
     x="2"
     y="0"
     ry="0.5" />
  <rect
     style="fill:#77c143;fill-opacity:1;stroke-width:1.51945;stroke-linejoin:round"
     id="rect2307"
     width="16"
     height="20"
     x="3"
     y="1" />
  <path
     id="rect287"
     style="fill:#ffffff;stroke-width:2.16174;stroke-linecap:round;stroke-linejoin:round"
     d="M 4,7 V 17 H 17 V 7 Z m 1,1 h 11 v 2 H 5 Z m 0,3 h 3 v 2 H 5 Z m 4,0 h 3 v 2 H 9 Z m 4,0 h 3 v 2 h -3 z m -8,3 h 3 v 2 H 5 Z m 4,0 h 3 v 2 H 9 Z m 4,0 h 3 v 2 h -3 z" />
  <path
     id="path1442"
     style="color:#000000;opacity:0.8;fill:#e9e9e9;fill-rule:evenodd;stroke-width:1px;-inkscape-stroke:none"
     d="M 19,12.167969 9.748047,21 H 19 Z m -1,2.46875 V 20 h -5.654297 z" />
  <path
     style="color:#000000;opacity:0.8;fill:#83899a;fill-rule:evenodd;-inkscape-stroke:none"
     d="M 20,9.8300781 19.154297,10.638672 7.2519531,22 H 20 Z M 19,12.167969 V 21 H 9.748047 Z M 18,14.636719 17.15625,15.4375 12.345703,20 H 18 Z m -1,2.326172 V 19 h -2.148437 z"
     id="path1444"
     sodipodi:nodetypes="cccccccccccccccccc" />
</svg>
