<?xml version="1.0" encoding="UTF-8" standalone="no"?>
<!-- Created with Inkscape (http://www.inkscape.org/) -->

<svg
   width="64"
   height="64"
   viewBox="0 0 64 64"
   version="1.1"
   id="svg5"
   inkscape:version="1.2.1 (9c6d41e410, 2022-07-14)"
   sodipodi:docname="dialog-error.svg"
   xmlns:inkscape="http://www.inkscape.org/namespaces/inkscape"
   xmlns:sodipodi="http://sodipodi.sourceforge.net/DTD/sodipodi-0.dtd"
   xmlns:xlink="http://www.w3.org/1999/xlink"
   xmlns="http://www.w3.org/2000/svg"
   xmlns:svg="http://www.w3.org/2000/svg">
  <sodipodi:namedview
     id="namedview7"
     pagecolor="#ffffff"
     bordercolor="#666666"
     borderopacity="1.0"
     inkscape:showpageshadow="2"
     inkscape:pageopacity="0.0"
     inkscape:pagecheckerboard="0"
     inkscape:deskcolor="#d1d1d1"
     inkscape:document-units="px"
     showgrid="false"
     inkscape:zoom="12.421875"
     inkscape:cx="30.913208"
     inkscape:cy="32"
     inkscape:window-width="1920"
     inkscape:window-height="1007"
     inkscape:window-x="0"
     inkscape:window-y="0"
     inkscape:window-maximized="1"
     inkscape:current-layer="svg5" />
  <defs
     id="defs2">
    <linearGradient
       inkscape:collect="always"
       xlink:href="#linearGradient5312"
       id="linearGradient2881"
       x1="29"
       y1="29"
       x2="3"
       y2="3"
       gradientUnits="userSpaceOnUse"
       gradientTransform="matrix(2.1538461,0,0,2.1538461,-2.4615385,-2.4615385)" />
    <linearGradient
       inkscape:collect="always"
       id="linearGradient5312">
      <stop
         style="stop-color:#c72222;stop-opacity:1;"
         offset="0"
         id="stop5308" />
      <stop
         style="stop-color:#cf5b5b;stop-opacity:1;"
         offset="1"
         id="stop5310" />
    </linearGradient>
  </defs>
  <circle
     style="opacity:0.2;fill:#000000;fill-opacity:1;stroke:none;stroke-width:4.30769;stroke-linecap:round;stroke-linejoin:round;stroke-dasharray:none;stroke-opacity:1"
     id="path2871"
     cx="32"
     cy="33.000126"
     r="28" />
  <circle
     style="opacity:1;fill:url(#linearGradient2881);fill-opacity:1.0;stroke:none;stroke-width:4.30769;stroke-linecap:round;stroke-linejoin:round;stroke-dasharray:none;stroke-opacity:1"
     id="path2873"
     cx="32"
     cy="32"
     r="28" />
  <path
     d="M 20.80763,18.978001 17.979505,21.806126 29.173009,32.999629 17.979505,44.193132 20.80763,47.021257 32.001134,35.827754 43.19237,47.021257 46.020495,44.193132 34.826991,32.999628 46.020495,21.806125 43.19237,18.978 32.001134,30.171503 Z"
     style="fill:#000000;fill-rule:evenodd;stroke-width:3.7796;paint-order:fill markers stroke;opacity:0.2"
     id="path629" />
  <path
     d="M 20.80763,17.978372 17.979505,20.806497 29.173009,32 17.979505,43.193503 20.80763,46.021628 32.001134,34.828125 43.19237,46.021628 46.020495,43.193503 34.826991,31.999999 46.020495,20.806496 43.19237,17.978371 32.001134,29.171874 Z"
     style="fill:#ffffff;fill-rule:evenodd;stroke-width:3.7796;paint-order:fill markers stroke"
     id="path5343"
     sodipodi:nodetypes="ccccccccccccc" />
  <path
     id="path1350"
     style="opacity:0.2;fill:#ffffff;stroke-width:3;stroke-linecap:round;stroke-linejoin:round"
     d="M 32 4 A 28 28 0 0 0 4 32 A 28 28 0 0 0 4.0351562 32.5 A 28 28 0 0 1 32 5 A 28 28 0 0 1 59.982422 32.251953 A 28 28 0 0 0 60 32 A 28 28 0 0 0 32 4 z " />
</svg>
