<?xml version="1.0" encoding="UTF-8" standalone="no"?>
<!-- Created with Inkscape (http://www.inkscape.org/) -->

<svg
   width="64"
   height="64"
   viewBox="0 0 64 64.000003"
   version="1.1"
   id="svg5"
   sodipodi:docname="system-shutdown.svg"
   inkscape:version="1.2.1 (9c6d41e410, 2022-07-14)"
   xmlns:inkscape="http://www.inkscape.org/namespaces/inkscape"
   xmlns:sodipodi="http://sodipodi.sourceforge.net/DTD/sodipodi-0.dtd"
   xmlns:xlink="http://www.w3.org/1999/xlink"
   xmlns="http://www.w3.org/2000/svg"
   xmlns:svg="http://www.w3.org/2000/svg">
  <sodipodi:namedview
     id="namedview7"
     pagecolor="#ffffff"
     bordercolor="#666666"
     borderopacity="1.0"
     inkscape:showpageshadow="2"
     inkscape:pageopacity="0.0"
     inkscape:pagecheckerboard="0"
     inkscape:deskcolor="#d1d1d1"
     inkscape:document-units="px"
     showgrid="false"
     inkscape:zoom="12.34375"
     inkscape:cx="31.959494"
     inkscape:cy="32"
     inkscape:window-width="1920"
     inkscape:window-height="1002"
     inkscape:window-x="0"
     inkscape:window-y="0"
     inkscape:window-maximized="1"
     inkscape:current-layer="svg5" />
  <defs
     id="defs2">
    <linearGradient
       inkscape:collect="always"
       id="linearGradient5312">
      <stop
         style="stop-color:#c72222;stop-opacity:1;"
         offset="0"
         id="stop5308" />
      <stop
         style="stop-color:#cf5b5b;stop-opacity:1;"
         offset="1"
         id="stop5310" />
    </linearGradient>
    <linearGradient
       inkscape:collect="always"
       xlink:href="#linearGradient5312"
       id="linearGradient5314"
       x1="50"
       y1="60"
       x2="14"
       y2="4"
       gradientUnits="userSpaceOnUse" />
  </defs>
  <rect
     style="fill:url(#linearGradient5314);fill-opacity:1;stroke:none"
     id="rect184"
     width="55"
     height="55"
     x="4.5"
     y="4.5"
     ry="9.5" />
  <path
     d="m 31.984566,11.9996 c -1.65054,0 -2.96875,1.24608 -2.96875,2.8125 v 14.15625 c 0,1.56644 1.31821,2.8125 2.96875,2.8125 1.65053,0 3,-1.24606 3,-2.8125 V 14.8121 c 0,-1.56645 -1.34947,-2.8125 -3,-2.8125 z m -8.0625,5.53125 c -0.41431,0.0451 -0.83831,0.17864 -1.1875,0.40625 -2.82661,1.63034 -5.17367,4.02204 -6.8125,6.84375 -3.25128,5.59798 -3.21921,12.205151 -0.53125,17.625001 0.001,0.0105 -10e-4,0.0208 0,0.0312 0.0445,0.35513 0.1509,0.69348 0.34375,1 2.38778,4.11123 6.14079,6.98368 10.34375,8.375 0.13462,0.0457 0.27105,0.0825 0.40625,0.125 0.33042,0.10122 0.66462,0.19833 1,0.28125 0.27858,0.0705 0.56359,0.13044 0.84375,0.1875 0.33294,0.0663 0.66373,0.13925 1,0.1875 0.42857,0.063 0.85154,0.0923 1.28125,0.125 0.0104,7.7e-4 0.0209,-7.5e-4 0.0312,0 0.0105,7.8e-4 0.0207,-7.6e-4 0.0312,0 0.44077,0.032 0.87229,0.062 1.3125,0.0625 0.43767,-3.4e-4 0.87426,-0.0311 1.3125,-0.0625 0.0207,-10e-4 0.0419,0.002 0.0625,0 0.0208,-0.002 0.0418,0.002 0.0625,0 0.41447,-0.0325 0.83661,-0.0642 1.25,-0.125 0.33627,-0.0483 0.66706,-0.12117 1,-0.1875 0.27287,-0.0556 0.54112,-0.1192 0.8125,-0.1875 0.44102,-0.10828 0.88025,-0.23516 1.3125,-0.375 4.25265,-1.3758 8.02664,-4.25529 10.4375,-8.40625 0.19285,-0.30652 0.33051,-0.64487 0.375,-1 0.001,-0.0105 -10e-4,-0.0208 0,-0.0312 2.68743,-5.41965 2.71982,-12.027391 -0.53125,-17.625001 -1.63883,-2.82171 -4.01714,-5.21341 -6.84375,-6.84375 -0.34919,-0.22761 -0.74194,-0.36115 -1.15625,-0.40625 -1.20825,-0.10246 -2.43281,0.74481 -2.78125,1.90625 -0.34842,1.16141 0.21613,2.5142 1.28125,3.09375 2.01921,1.16467 3.67305,2.82806 4.84375,4.84375 3.71436,6.395351 1.64535,14.535641 -4.75,18.250001 -1.59884,0.9286 -3.31063,1.49034 -5.03125,1.71875 -0.43015,0.0571 -0.88227,0.0786 -1.3125,0.0937 -0.23086,0.008 -0.45729,0.004 -0.6875,0 -0.43023,-0.0151 -0.8511,-0.0367 -1.28125,-0.0937 -1.72062,-0.22841 -3.43241,-0.79015 -5.03125,-1.71875 -6.39535,-3.71436 -8.46436,-11.85465 -4.75,-18.250001 1.1707,-2.01569 2.82454,-3.67908 4.84375,-4.84375 1.06512,-0.57955 1.62967,-1.93234 1.28125,-3.09375 -0.34844,-1.16144 -1.573,-2.00871 -2.78125,-1.90625 z"
     style="color:#000000;font-style:normal;font-variant:normal;font-weight:normal;font-stretch:normal;font-size:medium;line-height:normal;font-family:Sans;-inkscape-font-specification:Sans;text-indent:0;text-align:start;text-decoration:none;text-decoration-line:none;letter-spacing:normal;word-spacing:normal;text-transform:none;writing-mode:lr-tb;direction:ltr;baseline-shift:baseline;text-anchor:start;display:inline;overflow:visible;visibility:visible;opacity:0.2;fill:#000000;fill-opacity:1;stroke:none;stroke-width:2.33333;marker:none;enable-background:new"
     id="path4897" />
  <path
     d="m 31.984566,11 c -1.65054,0 -2.96875,1.24608 -2.96875,2.8125 v 14.15625 c 0,1.56644 1.31821,2.8125 2.96875,2.8125 1.65053,0 3,-1.24606 3,-2.8125 V 13.8125 c 0,-1.56645 -1.34947,-2.8125 -3,-2.8125 z m -8.0625,5.53125 c -0.41431,0.0451 -0.83831,0.17864 -1.1875,0.40625 -2.82661,1.63034 -5.17367,4.02204 -6.8125,6.84375 -3.25128,5.59798 -3.21921,12.20515 -0.53125,17.625 0.001,0.0105 -10e-4,0.0208 0,0.0312 0.0445,0.35513 0.1509,0.69348 0.34375,1 2.38778,4.11123 6.14079,6.98368 10.34375,8.375 0.13462,0.0457 0.27105,0.0825 0.40625,0.125 0.33042,0.10122 0.66462,0.19833 1,0.28125 0.27858,0.0705 0.56359,0.13044 0.84375,0.1875 0.33294,0.0663 0.66373,0.13925 1,0.1875 0.42857,0.063 0.85154,0.0923 1.28125,0.125 0.0104,7.7e-4 0.0209,-7.5e-4 0.0312,0 0.0105,7.8e-4 0.0207,-7.6e-4 0.0312,0 0.44077,0.032 0.87229,0.062 1.3125,0.0625 0.43767,-3.4e-4 0.87426,-0.0311 1.3125,-0.0625 0.0207,-10e-4 0.0419,0.002 0.0625,0 0.0208,-0.002 0.0418,0.002 0.0625,0 0.41447,-0.0325 0.83661,-0.0642 1.25,-0.125 0.33627,-0.0483 0.66706,-0.12117 1,-0.1875 0.27287,-0.0556 0.54112,-0.1192 0.8125,-0.1875 0.44102,-0.10828 0.88025,-0.23516 1.3125,-0.375 4.25265,-1.3758 8.02664,-4.25529 10.4375,-8.40625 0.19285,-0.30652 0.33051,-0.64487 0.375,-1 0.001,-0.0105 -10e-4,-0.0208 0,-0.0312 2.68743,-5.41965 2.71982,-12.02739 -0.53125,-17.625 -1.63883,-2.82171 -4.01714,-5.21341 -6.84375,-6.84375 -0.34919,-0.22761 -0.74194,-0.36115 -1.15625,-0.40625 -1.20825,-0.10246 -2.43281,0.74481 -2.78125,1.90625 -0.34842,1.16141 0.21613,2.5142 1.28125,3.09375 2.01921,1.16467 3.67305,2.82806 4.84375,4.84375 3.71436,6.39535 1.64535,14.53564 -4.75,18.25 -1.59884,0.9286 -3.31063,1.49034 -5.03125,1.71875 -0.43015,0.0571 -0.88227,0.0786 -1.3125,0.0937 -0.23086,0.008 -0.45729,0.004 -0.6875,0 -0.43023,-0.0151 -0.8511,-0.0367 -1.28125,-0.0937 -1.72062,-0.22841 -3.43241,-0.79015 -5.03125,-1.71875 -6.39535,-3.71436 -8.46436,-11.85465 -4.75,-18.25 1.1707,-2.01569 2.82454,-3.67908 4.84375,-4.84375 1.06512,-0.57955 1.62967,-1.93234 1.28125,-3.09375 -0.34844,-1.16144 -1.573,-2.00871 -2.78125,-1.90625 z"
     style="color:#000000;font-style:normal;font-variant:normal;font-weight:normal;font-stretch:normal;font-size:medium;line-height:normal;font-family:Sans;-inkscape-font-specification:Sans;text-indent:0;text-align:start;text-decoration:none;text-decoration-line:none;letter-spacing:normal;word-spacing:normal;text-transform:none;writing-mode:lr-tb;direction:ltr;baseline-shift:baseline;text-anchor:start;display:inline;overflow:visible;visibility:visible;fill:#ffffff;fill-opacity:1;stroke:none;stroke-width:2.33333;marker:none;enable-background:new"
     id="path4738"
     sodipodi:nodetypes="ssssssscccccccccccccccccccccscccscccccssccccscccc" />
  <path
     id="rect2630"
     style="opacity:0.3;fill:#ffffff;fill-opacity:1"
     d="M 14,5 C 9.014005,5 5,9.014005 5,14 v 1 C 5,10.014005 9.014005,6 14,6 h 36 c 4.985995,0 9,4.014005 9,9 V 14 C 59,9.014005 54.985995,5 50,5 Z" />
  <path
     id="rect899"
     style="fill:#000000;stroke:none;opacity:0.5"
     d="M 14,4 C 8.4600055,4 4,8.4600055 4,14 v 36 c 0,5.539994 4.4600055,10 10,10 h 36 c 5.539994,0 10,-4.460006 10,-10 V 14 C 60,8.4600055 55.539994,4 50,4 Z m 0,1 h 36 c 4.985995,0 9,4.014005 9,9 v 36 c 0,4.985995 -4.014005,9 -9,9 H 14 C 9.014005,59 5,54.985995 5,50 V 14 C 5,9.014005 9.014005,5 14,5 Z" />
  <path
     id="rect398"
     style="opacity:0.3;fill:#ffffff"
     d="M 5 49 L 5 50 C 5 54.985995 9.014005 59 14 59 L 50 59 C 54.985995 59 59 54.985995 59 50 L 59 49 C 59 53.985995 54.985995 58 50 58 L 14 58 C 9.014005 58 5 53.985995 5 49 z " />
</svg>
