<?xml version="1.0" encoding="UTF-8" standalone="no"?>
<!-- Created with Inkscape (http://www.inkscape.org/) -->

<svg
   width="64"
   height="64"
   viewBox="0 0 64 64.000003"
   version="1.1"
   id="svg5"
   sodipodi:docname="system-reboot.svg"
   inkscape:version="1.2.1 (9c6d41e410, 2022-07-14)"
   xmlns:inkscape="http://www.inkscape.org/namespaces/inkscape"
   xmlns:sodipodi="http://sodipodi.sourceforge.net/DTD/sodipodi-0.dtd"
   xmlns:xlink="http://www.w3.org/1999/xlink"
   xmlns="http://www.w3.org/2000/svg"
   xmlns:svg="http://www.w3.org/2000/svg">
  <sodipodi:namedview
     id="namedview7"
     pagecolor="#ffffff"
     bordercolor="#666666"
     borderopacity="1.0"
     inkscape:showpageshadow="2"
     inkscape:pageopacity="0.0"
     inkscape:pagecheckerboard="0"
     inkscape:deskcolor="#d1d1d1"
     inkscape:document-units="px"
     showgrid="false"
     inkscape:zoom="10.36669"
     inkscape:cx="21.462974"
     inkscape:cy="29.758775"
     inkscape:window-width="1920"
     inkscape:window-height="1007"
     inkscape:window-x="0"
     inkscape:window-y="0"
     inkscape:window-maximized="1"
     inkscape:current-layer="svg5" />
  <defs
     id="defs2">
    <linearGradient
       inkscape:collect="always"
       id="linearGradient1252">
      <stop
         style="stop-color:#6daa24;stop-opacity:1;"
         offset="0"
         id="stop1248" />
      <stop
         style="stop-color:#b8df8a;stop-opacity:1;"
         offset="1"
         id="stop1250" />
    </linearGradient>
    <linearGradient
       inkscape:collect="always"
       xlink:href="#linearGradient1252"
       id="linearGradient5314"
       x1="50"
       y1="60"
       x2="14"
       y2="4"
       gradientUnits="userSpaceOnUse" />
  </defs>
  <rect
     style="fill:url(#linearGradient5314);fill-opacity:1.0;stroke:none"
     id="rect184"
     width="55"
     height="55"
     x="4.5"
     y="4.5"
     ry="9.5" />
  <path
     d="m 32.03332,16.33313 c 3.384,0 6.70134,1.01603 9.53334,3 0.90533,0.63333 1.1,1.86141 0.46666,2.76667 -0.63201,0.90538 -1.86267,1.13461 -2.76666,0.5 -2.188,-1.53206 -4.74935,-2.29064 -7.36667,-2.26667 -0.376,0 -0.73334,0 -1.10001,0.0333 -0.11205,0.0128 -0.22133,0.0525 -0.33333,0.0667 -0.30133,0.0372 -0.60667,0.0756 -0.89999,0.13333 -0.13067,0.0257 -0.27335,0.0372 -0.4,0.0667 -0.28934,0.0654 -0.58534,0.14795 -0.86667,0.23334 -0.0894,0.0282 -0.17733,0.0705 -0.26667,0.1 -0.32133,0.10512 -0.62266,0.2041 -0.93333,0.33333 -0.0321,0.0141 -0.0694,0.0205 -0.1,0.0333 -1.864,0.80128 -3.49067,2.05602 -4.76667,3.6 -0.008,0.0128 -0.0254,0.0243 -0.0333,0.0333 -1.79467,2.18525 -2.86533,4.95718 -2.86667,8 h 3.33334 l -5.33334,8.000001 -5.33333,-8.000001 h 3.33333 c 0.001,-3.49603 1.08534,-6.71731 2.93334,-9.4 0.0267,-0.0461 0.036,-0.091 0.0667,-0.13333 0.22934,-0.32795 0.484,-0.62667 0.73334,-0.93334 0.0293,-0.0372 0.0694,-0.0962 0.1,-0.13333 1.69066,-2.05205 3.79333,-3.63077 6.2,-4.66667 0.0667,-0.0295 0.13333,-0.0718 0.2,-0.1 0.384,-0.15872 0.77066,-0.30128 1.16666,-0.43333 0.14267,-0.0474 0.288,-0.0897 0.43334,-0.13333 0.34526,-0.10513 0.71326,-0.18539 1.06659,-0.26667 0.19467,-0.0449 0.36934,-0.0949 0.56667,-0.13333 0.0973,-0.0179 0.204,-0.05 0.3,-0.0667 0.264,-0.0461 0.536,-0.0654 0.8,-0.1 0.18267,-0.0218 0.34933,-0.0487 0.53333,-0.0667 0.44267,-0.041 0.89334,-0.059 1.33334,-0.0667 h 0.23333 0.0333 z m 14.63333,8.66667 5.33333,8.000001 h -3.33333 c 0,3.50666 -1.10933,6.74538 -2.96667,9.43333 -0.0227,0.0372 -0.0413,0.0628 -0.0667,0.1 -0.192,0.27461 -0.39333,0.54 -0.6,0.8 -0.0773,0.0987 -0.15333,0.20397 -0.23333,0.3 -0.304,0.36923 -0.63467,0.69461 -0.96667,1.03333 -0.0321,0.0333 -0.036,0.0692 -0.0667,0.1 -1.11467,1.1159 -2.396,2.08128 -3.76667,2.83334 -0.036,0.0218 -0.0613,0.0461 -0.1,0.0667 -0.39467,0.21205 -0.788,0.38538 -1.2,0.56666 -0.10269,0.0436 -0.22933,0.0885 -0.33333,0.13334 -0.352,0.14538 -0.70267,0.27872 -1.06667,0.40001 -0.172,0.059 -0.32533,0.11282 -0.5,0.16667 -0.31867,0.0949 -0.672,0.18936 -1,0.26666 -0.21733,0.05 -0.412,0.091 -0.63333,0.13334 -0.0921,0.0179 -0.176,0.0513 -0.26667,0.0667 -0.30933,0.0539 -0.624,0.0962 -0.93333,0.13334 -0.11206,0.0128 -0.22134,0.0218 -0.33334,0.0333 -0.556,0.0539 -1.11333,0.1 -1.66666,0.1 -3.388,0 -6.69734,-1.04667 -9.53334,-3.03334 -0.904,-0.63462 -1.13333,-1.89475 -0.5,-2.80001 0.63467,-0.90665 1.89734,-1.10128 2.8,-0.46666 2.204,1.54398 4.764,2.30256 7.4,2.26667 0.348,0 0.692,0 1.03334,-0.0333 0.14,-0.0141 0.29333,-0.05 0.43333,-0.0667 0.26933,-0.0359 0.53733,-0.082 0.8,-0.13333 0.16133,-0.0307 0.308,-0.0628 0.46667,-0.1 0.25733,-0.0603 0.516,-0.12564 0.76666,-0.2 0.12128,-0.0372 0.24667,-0.0603 0.36667,-0.1 0.28933,-0.0974 0.58667,-0.21603 0.86667,-0.33333 0.064,-0.0257 0.13733,-0.0385 0.2,-0.0667 0.328,-0.14398 0.62,-0.29744 0.93333,-0.46667 0.0146,-0.0128 0.0521,-0.0257 0.0667,-0.0333 1.06,-0.58257 2.016,-1.31743 2.86666,-2.16667 0.0133,-0.0141 0.0187,-0.0179 0.0333,-0.0333 0.264,-0.26525 0.52666,-0.54397 0.76666,-0.83333 0.0507,-0.0615 0.11603,-0.13743 0.16667,-0.2 1.73201,-2.16667 2.76667,-4.8841 2.76667,-7.86667 h -3.33334 l 5.33334,-8.000001 z"
     style="display:inline;fill:#000000;fill-opacity:1;fill-rule:nonzero;stroke:none;enable-background:new;opacity:0.2"
     id="path615" />
  <path
     d="m 32.03332,15.33337 c 3.384,0 6.70134,1.01603 9.53334,3 0.90533,0.63333 1.1,1.86141 0.46666,2.76667 -0.63201,0.90538 -1.86267,1.13461 -2.76666,0.5 -2.188,-1.53206 -4.74935,-2.29064 -7.36667,-2.26667 -0.376,0 -0.73334,0 -1.10001,0.0333 -0.11205,0.0128 -0.22133,0.0525 -0.33333,0.0667 -0.30133,0.0372 -0.60667,0.0756 -0.89999,0.13333 -0.13067,0.0257 -0.27335,0.0372 -0.4,0.0667 -0.28934,0.0654 -0.58534,0.14795 -0.86667,0.23334 -0.0894,0.0282 -0.17733,0.0705 -0.26667,0.1 -0.32133,0.10512 -0.62266,0.2041 -0.93333,0.33333 -0.0321,0.0141 -0.0694,0.0205 -0.1,0.0333 -1.864,0.80128 -3.49067,2.05602 -4.76667,3.6 -0.008,0.0128 -0.0254,0.0243 -0.0333,0.0333 -1.79467,2.18525 -2.86533,4.95718 -2.86667,8 h 3.33334 l -5.33334,8 -5.33333,-8 h 3.33333 c 0.001,-3.49603 1.08534,-6.71731 2.93334,-9.4 0.0267,-0.0461 0.036,-0.091 0.0667,-0.13333 0.22934,-0.32795 0.484,-0.62667 0.73334,-0.93334 0.0293,-0.0372 0.0694,-0.0962 0.1,-0.13333 1.69066,-2.05205 3.79333,-3.63077 6.2,-4.66667 0.0667,-0.0295 0.13333,-0.0718 0.2,-0.1 0.384,-0.15872 0.77066,-0.30128 1.16666,-0.43333 0.14267,-0.0474 0.288,-0.0897 0.43334,-0.13333 0.34526,-0.10513 0.71326,-0.18539 1.06659,-0.26667 0.19467,-0.0449 0.36934,-0.0949 0.56667,-0.13333 0.0973,-0.0179 0.204,-0.05 0.3,-0.0667 0.264,-0.0461 0.536,-0.0654 0.8,-0.1 0.18267,-0.0218 0.34933,-0.0487 0.53333,-0.0667 0.44267,-0.041 0.89334,-0.059 1.33334,-0.0667 h 0.23333 0.0333 z m 14.63333,8.66667 5.33333,8 h -3.33333 c 0,3.50666 -1.10933,6.74538 -2.96667,9.43333 -0.0227,0.0372 -0.0413,0.0628 -0.0667,0.1 -0.192,0.27461 -0.39333,0.54 -0.6,0.8 -0.0773,0.0987 -0.15333,0.20397 -0.23333,0.3 -0.304,0.36923 -0.63467,0.69461 -0.96667,1.03333 -0.0321,0.0333 -0.036,0.0692 -0.0667,0.1 -1.11467,1.1159 -2.396,2.08128 -3.76667,2.83334 -0.036,0.0218 -0.0613,0.0461 -0.1,0.0667 -0.39467,0.21205 -0.788,0.38538 -1.2,0.56666 -0.10269,0.0436 -0.22933,0.0885 -0.33333,0.13334 -0.352,0.14538 -0.70267,0.27872 -1.06667,0.40001 -0.172,0.059 -0.32533,0.11282 -0.5,0.16667 -0.31867,0.0949 -0.672,0.18936 -1,0.26666 -0.21733,0.05 -0.412,0.091 -0.63333,0.13334 -0.0921,0.0179 -0.176,0.0513 -0.26667,0.0667 -0.30933,0.0539 -0.624,0.0962 -0.93333,0.13334 -0.11206,0.0128 -0.22134,0.0218 -0.33334,0.0333 -0.556,0.0539 -1.11333,0.1 -1.66666,0.1 -3.388,0 -6.69734,-1.04667 -9.53334,-3.03334 -0.904,-0.63462 -1.13333,-1.89475 -0.5,-2.80001 0.63467,-0.90665 1.89734,-1.10128 2.8,-0.46666 2.204,1.54398 4.764,2.30256 7.4,2.26667 0.348,0 0.692,0 1.03334,-0.0333 0.14,-0.0141 0.29333,-0.05 0.43333,-0.0667 0.26933,-0.0359 0.53733,-0.082 0.8,-0.13333 0.16133,-0.0307 0.308,-0.0628 0.46667,-0.1 0.25733,-0.0603 0.516,-0.12564 0.76666,-0.2 0.12128,-0.0372 0.24667,-0.0603 0.36667,-0.1 0.28933,-0.0974 0.58667,-0.21603 0.86667,-0.33333 0.064,-0.0257 0.13733,-0.0385 0.2,-0.0667 0.328,-0.14398 0.62,-0.29744 0.93333,-0.46667 0.0146,-0.0128 0.0521,-0.0257 0.0667,-0.0333 1.06,-0.58257 2.016,-1.31743 2.86666,-2.16667 0.0133,-0.0141 0.0187,-0.0179 0.0333,-0.0333 0.264,-0.26525 0.52666,-0.54397 0.76666,-0.83333 0.0507,-0.0615 0.11603,-0.13743 0.16667,-0.2 1.73201,-2.16667 2.76667,-4.8841 2.76667,-7.86667 h -3.33334 l 5.33334,-8 z"
     style="display:inline;fill:#ffffff;fill-opacity:1;fill-rule:nonzero;stroke:none;enable-background:new"
     id="path429"
     sodipodi:nodetypes="cccccccccccccccccccccccccccccccccccccccccccccccccccccccccscccccccccccccccccccccc" />
  <path
     id="rect2630"
     style="opacity:0.3;fill:#ffffff;fill-opacity:1"
     d="M 14,5 C 9.014005,5 5,9.014005 5,14 v 1 C 5,10.014005 9.014005,6 14,6 h 36 c 4.985995,0 9,4.014005 9,9 V 14 C 59,9.014005 54.985995,5 50,5 Z" />
  <path
     id="rect899"
     style="fill:#000000;stroke:none;opacity:0.5"
     d="M 14,4 C 8.4600055,4 4,8.4600055 4,14 v 36 c 0,5.539994 4.4600055,10 10,10 h 36 c 5.539994,0 10,-4.460006 10,-10 V 14 C 60,8.4600055 55.539994,4 50,4 Z m 0,1 h 36 c 4.985995,0 9,4.014005 9,9 v 36 c 0,4.985995 -4.014005,9 -9,9 H 14 C 9.014005,59 5,54.985995 5,50 V 14 C 5,9.014005 9.014005,5 14,5 Z" />
  <path
     id="rect398"
     style="opacity:0.3;fill:#ffffff"
     d="M 5 49 L 5 50 C 5 54.985995 9.014005 59 14 59 L 50 59 C 54.985995 59 59 54.985995 59 50 L 59 49 C 59 53.985995 54.985995 58 50 58 L 14 58 C 9.014005 58 5 53.985995 5 49 z " />
</svg>
