<?xml version="1.0" encoding="UTF-8" standalone="no"?>
<!-- Created with Inkscape (http://www.inkscape.org/) -->

<svg
   width="22"
   height="22"
   viewBox="0 0 22 22"
   version="1.1"
   id="svg5"
   sodipodi:docname="battery-030.svg"
   inkscape:version="1.2 (1:1.2+202206011326+fc4e4096c5)"
   xmlns:inkscape="http://www.inkscape.org/namespaces/inkscape"
   xmlns:sodipodi="http://sodipodi.sourceforge.net/DTD/sodipodi-0.dtd"
   xmlns="http://www.w3.org/2000/svg"
   xmlns:svg="http://www.w3.org/2000/svg">
  <sodipodi:namedview
     id="namedview7"
     pagecolor="#ffffff"
     bordercolor="#666666"
     borderopacity="1.0"
     inkscape:showpageshadow="2"
     inkscape:pageopacity="0.0"
     inkscape:pagecheckerboard="0"
     inkscape:deskcolor="#d1d1d1"
     inkscape:document-units="px"
     showgrid="false"
     inkscape:zoom="18.384776"
     inkscape:cx="3.8346945"
     inkscape:cy="13.163065"
     inkscape:window-width="1846"
     inkscape:window-height="1053"
     inkscape:window-x="0"
     inkscape:window-y="0"
     inkscape:window-maximized="1"
     inkscape:current-layer="svg5" />
  <defs
     id="defs2" />
  <path
     d="M 4,9 C 3.4460006,9 3,9.4460006 3,10 v 3 c 0,0.553999 0.4460006,1 1,1 z M 7,6 C 5.8920011,6 5,6.8920011 5,8 v 7 c 0,1.107999 0.8920011,2 2,2 h 10 c 1.107999,0 2,-0.892001 2,-2 V 8 C 19,6.8920011 18.107999,6 17,6 Z m 0,1 h 10 c 0.553999,0 1,0.4460006 1,1 v 7 c 0,0.553999 -0.446001,1 -1,1 H 7 C 6.4460006,16 6,15.553999 6,15 V 8 C 6,7.4460006 6.4460006,7 7,7 Z"
     id="path1017"
     sodipodi:nodetypes="cssccssssssssssssssssss" />
  <path
     d="m 14,8 h 3 v 7 h -3 z"
     id="path1056"
     sodipodi:nodetypes="ccccc"
     style="fill-opacity:1" />
</svg>
