<?xml version="1.0" encoding="UTF-8" standalone="no"?>
<!-- Created with Inkscape (http://www.inkscape.org/) -->

<svg
   width="24"
   height="24"
   viewBox="0 0 24 24.000001"
   version="1.1"
   id="svg2612"
   inkscape:version="1.2.1 (9c6d41e410, 2022-07-14)"
   sodipodi:docname="drive-harddisk-ieee1394.svg"
   xmlns:inkscape="http://www.inkscape.org/namespaces/inkscape"
   xmlns:sodipodi="http://sodipodi.sourceforge.net/DTD/sodipodi-0.dtd"
   xmlns:xlink="http://www.w3.org/1999/xlink"
   xmlns="http://www.w3.org/2000/svg"
   xmlns:svg="http://www.w3.org/2000/svg">
  <sodipodi:namedview
     id="namedview2614"
     pagecolor="#ffffff"
     bordercolor="#000000"
     borderopacity="0.25"
     inkscape:showpageshadow="2"
     inkscape:pageopacity="0.0"
     inkscape:pagecheckerboard="0"
     inkscape:deskcolor="#d1d1d1"
     inkscape:document-units="px"
     showgrid="false"
     showguides="false"
     inkscape:zoom="18"
     inkscape:cx="3.6388889"
     inkscape:cy="17.111111"
     inkscape:window-width="1920"
     inkscape:window-height="1007"
     inkscape:window-x="0"
     inkscape:window-y="0"
     inkscape:window-maximized="1"
     inkscape:current-layer="svg2612" />
  <defs
     id="defs2609">
    <linearGradient
       inkscape:collect="always"
       id="linearGradient1082">
      <stop
         style="stop-color:#aaaaaa;stop-opacity:1;"
         offset="0"
         id="stop1078" />
      <stop
         style="stop-color:#c9c9c9;stop-opacity:1;"
         offset="1"
         id="stop1080" />
    </linearGradient>
    <linearGradient
       inkscape:collect="always"
       xlink:href="#linearGradient1082"
       id="linearGradient4030"
       x1="18"
       y1="23"
       x2="6"
       y2="1"
       gradientUnits="userSpaceOnUse" />
  </defs>
  <rect
     style="fill:url(#linearGradient4030);fill-opacity:1;stroke-linejoin:round"
     id="rect2787"
     width="17"
     height="21"
     x="3.5"
     y="1.5"
     ry="2.5" />
  <path
     d="M 7.851125,5.025 5.023,7.8531304 5.730031,8.5601602 8.560109,5.7320302 Z m 9.148438,0.1503912 -2.828126,2.8300802 2.828126,2.8261706 2.828125,-2.8261706 z M 9.265187,6.4390601 6.437062,9.2671904 7.144094,9.9742203 9.974173,7.1460904 Z m 2.734374,2.5605503 c -1.656852,0 -2.999999,1.3431506 -2.999999,2.9999996 0,1.656851 1.343147,3.000001 2.999999,3.000001 1.656855,0 3,-1.34315 3,-3.000001 0,-1.656849 -1.343145,-2.9999996 -3,-2.9999996 z m 0,1.0000001 c 1.10457,0 2.000001,0.8954295 2.000001,1.9999995 0,1.104571 -0.895431,2.000001 -2.000001,2.000001 -1.104567,0 -1.999998,-0.89543 -1.999998,-2.000001 0,-1.10457 0.895431,-1.9999995 1.999998,-1.9999995 z M 9.999563,16.999611 v 1 h 3.999999 v -1 z m 0,2 v 1 h 3.999999 v -1 z"
     style="fill:#000000;fill-opacity:1;stroke-width:0.999999;opacity:0.2"
     id="path1083" />
  <path
     d="M 7.8511252,4.025 5.023,6.8531303 5.7300313,7.5601601 8.5601091,4.7320302 Z m 9.1484378,0.1503912 -2.828126,2.8300801 2.828126,2.8261701 2.828125,-2.8261701 z M 9.2651871,5.4390601 6.4370622,8.2671903 7.1440943,8.9742201 9.9741725,6.1460903 Z m 2.7343739,2.5605502 c -1.656852,0 -2.9999987,1.34315 -2.9999987,2.9999997 0,1.65685 1.3431467,3 2.9999987,3 1.656855,0 3,-1.34315 3,-3 0,-1.6568497 -1.343145,-2.9999997 -3,-2.9999997 z m 0,0.9999999 c 1.10457,0 2.000001,0.8954298 2.000001,1.9999998 0,1.10457 -0.895431,2 -2.000001,2 -1.104567,0 -1.9999985,-0.89543 -1.9999985,-2 0,-1.10457 0.8954315,-1.9999998 1.9999985,-1.9999998 z M 9.9995625,15.99961 v 1 h 3.9999995 v -1 z m 0,2 v 1 h 3.9999995 v -1 z"
     style="fill:#707070;fill-opacity:1;stroke-width:0.999999"
     id="path1704"
     sodipodi:nodetypes="cccccccccccccccsssssssssscccccccccc" />
  <path
     id="rect4034"
     style="opacity:0.3;fill:#ffffff;stroke-linejoin:round"
     d="M 6,2 C 4.8920011,2 4,2.8920011 4,4 V 5 C 4,3.8920011 4.8920011,3 6,3 h 12 c 1.107999,0 2,0.8920011 2,2 V 4 C 20,2.8920011 19.107999,2 18,2 Z"
     sodipodi:nodetypes="sscsscsss" />
  <path
     d="m 5.9999999,22 c -1.1079989,0 -2,-0.892001 -2,-2 v -1 c 0,1.107998 0.8920011,2 2,2 H 18 c 1.107999,0 2,-0.892002 2,-2 v 1 c 0,1.107999 -0.892001,2 -2,2 z"
     style="opacity:0.3;fill:#ffffff;stroke-linejoin:round"
     id="path4077" />
  <path
     id="rect2785"
     style="opacity:0.5;fill:#000000;stroke-width:0.264583;stroke-linejoin:round"
     d="M 6,1 C 4.3380017,1 3,2.3380017 3,4 v 16 c 0,1.661998 1.3380017,3 3,3 h 12 c 1.661998,0 3,-1.338002 3,-3 V 4 C 21,2.3380017 19.661998,1 18,1 Z m 0,1 h 12 c 1.107999,0 2,0.8920011 2,2 v 16 c 0,1.107999 -0.892001,2 -2,2 H 6 C 4.8920011,22 4,21.107999 4,20 V 4 C 4,2.8920011 4.8920011,2 6,2 Z" />
</svg>
