<?xml version="1.0" encoding="UTF-8" standalone="no"?>
<!-- Created with Inkscape (http://www.inkscape.org/) -->

<svg
   width="24"
   height="24"
   viewBox="0 0 24 24.000001"
   version="1.1"
   id="svg2612"
   inkscape:version="1.2.1 (9c6d41e410, 2022-07-14)"
   sodipodi:docname="drive-removable-media.svg"
   xmlns:inkscape="http://www.inkscape.org/namespaces/inkscape"
   xmlns:sodipodi="http://sodipodi.sourceforge.net/DTD/sodipodi-0.dtd"
   xmlns:xlink="http://www.w3.org/1999/xlink"
   xmlns="http://www.w3.org/2000/svg"
   xmlns:svg="http://www.w3.org/2000/svg">
  <sodipodi:namedview
     id="namedview2614"
     pagecolor="#ffffff"
     bordercolor="#000000"
     borderopacity="0.25"
     inkscape:showpageshadow="2"
     inkscape:pageopacity="0.0"
     inkscape:pagecheckerboard="0"
     inkscape:deskcolor="#d1d1d1"
     inkscape:document-units="px"
     showgrid="false"
     showguides="false"
     inkscape:zoom="32.916667"
     inkscape:cx="11.98481"
     inkscape:cy="12"
     inkscape:window-width="1920"
     inkscape:window-height="1002"
     inkscape:window-x="0"
     inkscape:window-y="0"
     inkscape:window-maximized="1"
     inkscape:current-layer="svg2612" />
  <defs
     id="defs2609">
    <linearGradient
       inkscape:collect="always"
       id="linearGradient1082">
      <stop
         style="stop-color:#aaaaaa;stop-opacity:1;"
         offset="0"
         id="stop1078" />
      <stop
         style="stop-color:#c9c9c9;stop-opacity:1;"
         offset="1"
         id="stop1080" />
    </linearGradient>
    <linearGradient
       inkscape:collect="always"
       xlink:href="#linearGradient1082"
       id="linearGradient4030"
       x1="18"
       y1="23"
       x2="6"
       y2="1"
       gradientUnits="userSpaceOnUse" />
  </defs>
  <rect
     style="fill:url(#linearGradient4030);fill-opacity:1;stroke-linejoin:round"
     id="rect2787"
     width="17"
     height="21"
     x="3.5"
     y="1.5"
     ry="2.5" />
  <path
     d="m 12,6 -5,6 h 10 z m -5,8 v 2 h 10 v -2 z"
     style="opacity:0.2;fill:#000000;fill-opacity:1;stroke-linejoin:round"
     id="path2598"
     sodipodi:nodetypes="ccccccccc" />
  <path
     id="rect2584"
     style="fill:#707070;fill-opacity:1;stroke-linejoin:round"
     d="m 12,5 -5,6 h 10 z m -5,8 v 2 h 10 v -2 z"
     sodipodi:nodetypes="ccccccccc" />
  <path
     id="rect4034"
     style="opacity:0.3;fill:#ffffff;stroke-linejoin:round"
     d="M 6,2 C 4.8920011,2 4,2.8920011 4,4 V 5 C 4,3.8920011 4.8920011,3 6,3 h 12 c 1.107999,0 2,0.8920011 2,2 V 4 C 20,2.8920011 19.107999,2 18,2 Z"
     sodipodi:nodetypes="sscsscsss" />
  <path
     d="m 5.9999999,22 c -1.1079989,0 -2,-0.892001 -2,-2 v -1 c 0,1.107998 0.8920011,2 2,2 H 18 c 1.107999,0 2,-0.892002 2,-2 v 1 c 0,1.107999 -0.892001,2 -2,2 z"
     style="opacity:0.3;fill:#ffffff;stroke-linejoin:round"
     id="path4077" />
  <path
     id="rect2785"
     style="opacity:0.5;fill:#000000;stroke-width:0.264583;stroke-linejoin:round"
     d="M 6,1 C 4.3380017,1 3,2.3380017 3,4 v 16 c 0,1.661998 1.3380017,3 3,3 h 12 c 1.661998,0 3,-1.338002 3,-3 V 4 C 21,2.3380017 19.661998,1 18,1 Z m 0,1 h 12 c 1.107999,0 2,0.8920011 2,2 v 16 c 0,1.107999 -0.892001,2 -2,2 H 6 C 4.8920011,22 4,21.107999 4,20 V 4 C 4,2.8920011 4.8920011,2 6,2 Z" />
</svg>
