<?xml version="1.0" encoding="UTF-8" standalone="no"?>
<!-- Created with Inkscape (http://www.inkscape.org/) -->

<svg
   width="22"
   height="22"
   viewBox="0 0 22 22.000001"
   version="1.1"
   id="svg5"
   sodipodi:docname="0ad.svg"
   inkscape:version="1.2.1 (9c6d41e410, 2022-07-14)"
   xmlns:inkscape="http://www.inkscape.org/namespaces/inkscape"
   xmlns:sodipodi="http://sodipodi.sourceforge.net/DTD/sodipodi-0.dtd"
   xmlns:xlink="http://www.w3.org/1999/xlink"
   xmlns="http://www.w3.org/2000/svg"
   xmlns:svg="http://www.w3.org/2000/svg">
  <sodipodi:namedview
     id="namedview7"
     pagecolor="#ffffff"
     bordercolor="#666666"
     borderopacity="1.0"
     inkscape:showpageshadow="2"
     inkscape:pageopacity="0.0"
     inkscape:pagecheckerboard="0"
     inkscape:deskcolor="#d1d1d1"
     inkscape:document-units="px"
     showgrid="false"
     inkscape:zoom="16.458334"
     inkscape:cx="-0.94177214"
     inkscape:cy="12.729114"
     inkscape:window-width="1920"
     inkscape:window-height="1007"
     inkscape:window-x="0"
     inkscape:window-y="0"
     inkscape:window-maximized="1"
     inkscape:current-layer="svg5" />
  <defs
     id="defs2">
    <linearGradient
       inkscape:collect="always"
       xlink:href="#linearGradient985"
       id="linearGradient10386"
       x1="19"
       y1="23"
       x2="5"
       y2="1"
       gradientUnits="userSpaceOnUse"
       gradientTransform="translate(-1,-1)" />
    <linearGradient
       inkscape:collect="always"
       id="linearGradient985">
      <stop
         style="stop-color:#a0894c;stop-opacity:1;"
         offset="0"
         id="stop981" />
      <stop
         style="stop-color:#bab495;stop-opacity:1;"
         offset="1"
         id="stop983" />
    </linearGradient>
  </defs>
  <rect
     style="fill:url(#linearGradient10386);fill-opacity:1;stroke:none"
     id="rect184"
     width="21"
     height="21"
     x="0.5"
     y="0.5"
     ry="3.5" />
  <path
     id="path1493"
     style="opacity:0.2;fill:#000000;stroke-width:1.36364;stroke-linejoin:round"
     d="M 10.5,4 C 6.3578727,4 3,7.3578726 3,11.5 3,15.642127 6.3578727,19 10.5,19 14.642127,19 18,15.642127 18,11.5 18,7.3578726 14.642127,4 10.5,4 Z M 10,5.0214844 V 11 H 4.0214844 C 4.2647421,7.8097309 6.8097306,5.2647422 10,5.0214844 Z m 1,0 C 14.190269,5.2647422 16.735258,7.8097309 16.978516,11 H 11 Z M 4.0214844,12 H 10 v 5.978516 C 6.8097306,17.735258 4.2647421,15.190269 4.0214844,12 Z M 11,12 h 5.978516 C 16.735258,15.190269 14.190269,17.735258 11,17.978516 Z" />
  <path
     id="path1039"
     style="fill:#ffffff;stroke-width:1.36364;stroke-linejoin:round"
     d="M 10.5,3 C 6.3578726,3 3,6.3578726 3,10.5 3,14.642127 6.3578726,18 10.5,18 14.642127,18 18,14.642127 18,10.5 18,6.3578726 14.642127,3 10.5,3 Z M 10,4.0214844 V 10 H 4.0214844 C 4.2647422,6.8097307 6.809731,4.2647421 10,4.0214844 Z m 1,0 C 14.190269,4.2647421 16.735258,6.8097307 16.978516,10 H 11 Z M 4.0214844,11 H 10 v 5.978516 C 6.809731,16.735258 4.2647422,14.190269 4.0214844,11 Z M 11,11 h 5.978516 C 16.735258,14.190269 14.190269,16.735258 11,16.978516 Z" />
  <path
     id="rect2630"
     style="opacity:0.3;fill:#ffffff;fill-opacity:1"
     d="m 3.9999999,1 c -1.6619983,0 -3,1.3380017 -3,2.9999997 v 1 c 0,-1.661998 1.3380017,-3 3,-3 H 18 c 1.661998,0 3,1.338002 3,3 v -1 C 21,2.3380017 19.661998,1 18,1 Z" />
  <path
     id="rect398"
     style="opacity:0.3;fill:#ffffff"
     d="m 1,17 v 1 c 0,1.661998 1.3380017,3 3,3 h 14 c 1.661998,0 3,-1.338002 3,-3 v -1 c 0,1.661998 -1.338002,3 -3,3 H 4 C 2.3380017,20 1,18.661998 1,17 Z" />
  <path
     id="rect899"
     style="opacity:0.5;fill:#000000;stroke:none"
     d="M 4,0 C 1.7840022,0 0,1.7840022 0,4 v 14 c 0,2.215998 1.7840022,4 4,4 h 14 c 2.215998,0 4,-1.784002 4,-4 V 4 C 22,1.7840022 20.215998,0 18,0 Z m 0,1 h 14 c 1.661998,0 3,1.3380017 3,3 v 14 c 0,1.661998 -1.338002,3 -3,3 H 4 C 2.3380017,21 1,19.661998 1,18 V 4 C 1,2.3380017 2.3380017,1 4,1 Z" />
</svg>
