<?xml version="1.0" encoding="UTF-8" standalone="no"?>
<!-- Created with Inkscape (http://www.inkscape.org/) -->

<svg
   width="22"
   height="22"
   viewBox="0 0 22 22.000001"
   version="1.1"
   id="svg5"
   sodipodi:docname="accessories-dictionary.svg"
   inkscape:version="1.2.1 (9c6d41e410, 2022-07-14)"
   xmlns:inkscape="http://www.inkscape.org/namespaces/inkscape"
   xmlns:sodipodi="http://sodipodi.sourceforge.net/DTD/sodipodi-0.dtd"
   xmlns:xlink="http://www.w3.org/1999/xlink"
   xmlns="http://www.w3.org/2000/svg"
   xmlns:svg="http://www.w3.org/2000/svg">
  <sodipodi:namedview
     id="namedview7"
     pagecolor="#ffffff"
     bordercolor="#666666"
     borderopacity="1.0"
     inkscape:showpageshadow="2"
     inkscape:pageopacity="0.0"
     inkscape:pagecheckerboard="0"
     inkscape:deskcolor="#d1d1d1"
     inkscape:document-units="px"
     showgrid="false"
     inkscape:zoom="37.318182"
     inkscape:cx="10.986602"
     inkscape:cy="11"
     inkscape:window-width="1920"
     inkscape:window-height="1007"
     inkscape:window-x="0"
     inkscape:window-y="0"
     inkscape:window-maximized="1"
     inkscape:current-layer="svg5"
     showguides="true" />
  <defs
     id="defs2">
    <linearGradient
       inkscape:collect="always"
       id="linearGradient1093">
      <stop
         style="stop-color:#981b1b;stop-opacity:1;"
         offset="0"
         id="stop1089" />
      <stop
         style="stop-color:#c75349;stop-opacity:1;"
         offset="1"
         id="stop1091" />
    </linearGradient>
    <linearGradient
       inkscape:collect="always"
       xlink:href="#linearGradient1093"
       id="linearGradient10386"
       x1="19"
       y1="23"
       x2="5"
       y2="1"
       gradientUnits="userSpaceOnUse"
       gradientTransform="translate(-1,-1)" />
  </defs>
  <rect
     style="fill:url(#linearGradient10386);fill-opacity:1;stroke:none"
     id="rect184"
     width="21"
     height="21"
     x="0.5"
     y="0.5"
     ry="3.5" />
  <path
     d="M 6.9006712,7 3.9743287,15.149553 3,15.323661 v 0.341517 H 5.8258912 V 15.323661 L 4.67076,15.149553 5.5379475,12.671875 h 3.3816934 l 0.8537971,2.477678 -1.1551351,0.174108 v 0.341517 H 12.251115 V 15.323661 L 11.162948,15.149553 8.1194213,7 Z M 7.20201,7.9241088 8.7220989,12.095984 H 5.7287962 Z m 8.132813,1.5803549 c -0.346009,7e-6 -0.668622,0.02666 -0.967635,0.07366 -0.294747,0.04272 -0.582833,0.09087 -0.86049,0.150671 v 1.3158493 h 0.361605 l 0.217635,-0.75 c 0.158051,-0.0897 0.339791,-0.162098 0.549108,-0.217635 0.209307,-0.05553 0.417724,-0.0837 0.622767,-0.08371 0.179407,8e-6 0.329051,0.0306 0.448661,0.09041 0.119602,0.05981 0.212899,0.140981 0.28125,0.247767 0.07262,0.106796 0.12411,0.235541 0.154016,0.385045 0.02989,0.145242 0.04353,0.309432 0.04353,0.48884 v 0.940849 l -0.900667,0.02677 c -0.205043,0.0043 -0.411034,0.01305 -0.616073,0.03015 -0.200771,0.0171 -0.392212,0.05011 -0.575891,0.0971 -0.179411,0.04699 -0.35088,0.112113 -0.508931,0.197542 -0.15378,0.08116 -0.286448,0.189011 -0.401783,0.321428 -0.115338,0.132427 -0.203782,0.295695 -0.267858,0.492187 -0.06408,0.192229 -0.0971,0.421545 -0.0971,0.686385 0,0.256305 0.02576,0.494392 0.07701,0.71652 0.05126,0.217856 0.134857,0.41022 0.254463,0.572542 0.119607,0.158055 0.278948,0.281948 0.475448,0.371656 0.200764,0.08971 0.446127,0.133929 0.736602,0.133929 0.247755,0 0.472222,-0.02576 0.672994,-0.07701 0.205035,-0.05126 0.385278,-0.114881 0.539062,-0.1875 0.153776,-0.07689 0.281595,-0.15564 0.388391,-0.241073 0.11106,-0.08543 0.20043,-0.160252 0.26451,-0.224328 l 0.120537,0.602677 H 18 v -0.291296 l -0.75,-0.157365 v -4.071428 c -4e-6,-0.32037 -0.04908,-0.584209 -0.147322,-0.793526 -0.09398,-0.213581 -0.227573,-0.3816943 -0.398438,-0.5055793 -0.170869,-0.123874 -0.371089,-0.213247 -0.606026,-0.26451 -0.234945,-0.05125 -0.490009,-0.077 -0.763391,-0.07701 z m 0.850443,3.0904023 v 2.139509 c -0.213585,0.102521 -0.425925,0.189469 -0.639506,0.257813 -0.209317,0.06408 -0.459529,0.09375 -0.75,0.09375 -0.610852,0 -0.917411,-0.37653 -0.917411,-1.128349 0,-0.26484 0.0306,-0.482032 0.0904,-0.652901 0.0598,-0.170865 0.151598,-0.303533 0.271204,-0.401786 0.119606,-0.09825 0.271672,-0.16914 0.455359,-0.207589 0.183678,-0.04271 0.400871,-0.06511 0.652901,-0.07366 l 0.837052,-0.02678 z"
     style="font-style:normal;font-variant:normal;font-weight:normal;font-stretch:normal;font-size:122.478px;line-height:125%;font-family:'Liberation Serif';-inkscape-font-specification:'Liberation Serif';letter-spacing:0px;word-spacing:0px;display:inline;opacity:0.2;fill:#000000;fill-opacity:1;stroke:none;stroke-width:0.375;enable-background:new"
     id="path8966" />
  <path
     d="M 6.9006712,6 3.9743287,14.149553 3,14.323661 v 0.341517 H 5.8258912 V 14.323661 L 4.67076,14.149553 5.5379475,11.671875 h 3.3816934 l 0.8537971,2.477678 -1.1551351,0.174108 v 0.341517 H 12.251115 V 14.323661 L 11.162948,14.149553 8.1194213,6 Z M 7.20201,6.9241088 8.7220989,11.095984 H 5.7287962 Z m 8.132813,1.5803549 c -0.346009,7.5e-6 -0.668622,0.026663 -0.967635,0.073661 -0.294747,0.042724 -0.582833,0.090874 -0.86049,0.1506712 v 1.3158491 h 0.361605 l 0.217635,-0.7500003 c 0.158051,-0.0897 0.339791,-0.162097 0.549108,-0.217635 0.209307,-0.05553 0.417724,-0.0837 0.622767,-0.08371 0.179407,8e-6 0.329051,0.0306 0.448661,0.09041 0.119602,0.05981 0.212899,0.140982 0.28125,0.247766 0.07262,0.106797 0.12411,0.235542 0.154016,0.385047 0.02989,0.145241 0.04353,0.3094313 0.04353,0.4888393 v 0.940849 l -0.900667,0.02677 c -0.205043,0.0043 -0.411034,0.01305 -0.616073,0.03015 -0.200771,0.0171 -0.392212,0.05011 -0.575891,0.0971 -0.179411,0.04699 -0.35088,0.112113 -0.508931,0.197542 -0.15378,0.08116 -0.286448,0.189011 -0.401783,0.321428 -0.115338,0.132427 -0.203782,0.295695 -0.267858,0.492187 -0.06408,0.192229 -0.0971,0.421545 -0.0971,0.686385 0,0.256305 0.02576,0.494392 0.07701,0.71652 0.05126,0.217856 0.134857,0.41022 0.254463,0.572542 0.119607,0.158055 0.278948,0.281948 0.475448,0.371655 0.200764,0.08971 0.446127,0.133929 0.736602,0.133929 0.247755,0 0.472222,-0.02576 0.672994,-0.07701 0.205035,-0.05126 0.385278,-0.114881 0.539062,-0.1875 0.153776,-0.07689 0.281595,-0.15564 0.388391,-0.241072 0.11106,-0.08543 0.20043,-0.160253 0.26451,-0.224329 l 0.120537,0.602677 H 18 v -0.291296 l -0.75,-0.157365 v -4.071427 c -4e-6,-0.3203703 -0.04908,-0.5842093 -0.147322,-0.7935273 -0.09398,-0.213581 -0.227573,-0.381693 -0.398438,-0.505578 -0.170869,-0.1238742 -0.371089,-0.213248 -0.606026,-0.2645104 -0.234945,-0.051255 -0.490009,-0.077002 -0.763391,-0.07701 z m 0.850443,3.0904013 v 2.13951 c -0.213585,0.102521 -0.425925,0.189469 -0.639506,0.257813 -0.209317,0.06408 -0.459529,0.09375 -0.75,0.09375 -0.610852,0 -0.917411,-0.37653 -0.917411,-1.128349 0,-0.26484 0.0306,-0.482032 0.0904,-0.652901 0.0598,-0.170865 0.151598,-0.303533 0.271204,-0.401786 0.119606,-0.09825 0.271672,-0.169141 0.455359,-0.207589 0.183678,-0.04271 0.400871,-0.06511 0.652901,-0.07366 l 0.837052,-0.02678 z"
     style="font-style:normal;font-variant:normal;font-weight:normal;font-stretch:normal;font-size:122.478px;line-height:125%;font-family:'Liberation Serif';-inkscape-font-specification:'Liberation Serif';letter-spacing:0px;word-spacing:0px;display:inline;fill:#ffffff;fill-opacity:1;stroke:none;stroke-width:0.375;enable-background:new"
     id="path8614"
     sodipodi:nodetypes="ccccccccccccccccccccccccccccccccscccccccscccscccccccccccccccccsssccccc" />
  <path
     id="rect2630"
     style="opacity:0.3;fill:#ffffff;fill-opacity:1"
     d="m 3.9999999,1 c -1.6619983,0 -3,1.3380017 -3,2.9999997 v 1 c 0,-1.661998 1.3380017,-3 3,-3 H 18 c 1.661998,0 3,1.338002 3,3 v -1 C 21,2.3380017 19.661998,1 18,1 Z" />
  <path
     id="rect398"
     style="opacity:0.3;fill:#ffffff"
     d="m 1,17 v 1 c 0,1.661998 1.3380017,3 3,3 h 14 c 1.661998,0 3,-1.338002 3,-3 v -1 c 0,1.661998 -1.338002,3 -3,3 H 4 C 2.3380017,20 1,18.661998 1,17 Z" />
  <path
     id="rect899"
     style="opacity:0.5;fill:#000000;stroke:none"
     d="M 4,0 C 1.7840022,0 0,1.7840022 0,4 v 14 c 0,2.215998 1.7840022,4 4,4 h 14 c 2.215998,0 4,-1.784002 4,-4 V 4 C 22,1.7840022 20.215998,0 18,0 Z m 0,1 h 14 c 1.661998,0 3,1.3380017 3,3 v 14 c 0,1.661998 -1.338002,3 -3,3 H 4 C 2.3380017,21 1,19.661998 1,18 V 4 C 1,2.3380017 2.3380017,1 4,1 Z" />
</svg>
