<?xml version="1.0" encoding="UTF-8" standalone="no"?>
<!-- Created with Inkscape (http://www.inkscape.org/) -->

<svg
   width="22"
   height="22"
   viewBox="0 0 22 22.000001"
   version="1.1"
   id="svg5"
   sodipodi:docname="applications-development.svg"
   inkscape:version="1.2.1 (9c6d41e410, 2022-07-14)"
   xmlns:inkscape="http://www.inkscape.org/namespaces/inkscape"
   xmlns:sodipodi="http://sodipodi.sourceforge.net/DTD/sodipodi-0.dtd"
   xmlns:xlink="http://www.w3.org/1999/xlink"
   xmlns="http://www.w3.org/2000/svg"
   xmlns:svg="http://www.w3.org/2000/svg">
  <sodipodi:namedview
     id="namedview7"
     pagecolor="#ffffff"
     bordercolor="#666666"
     borderopacity="1.0"
     inkscape:showpageshadow="2"
     inkscape:pageopacity="0.0"
     inkscape:pagecheckerboard="0"
     inkscape:deskcolor="#d1d1d1"
     inkscape:document-units="px"
     showgrid="false"
     inkscape:zoom="23.334524"
     inkscape:cx="5.8925565"
     inkscape:cy="12.23509"
     inkscape:window-width="1920"
     inkscape:window-height="1007"
     inkscape:window-x="0"
     inkscape:window-y="0"
     inkscape:window-maximized="1"
     inkscape:current-layer="svg5" />
  <defs
     id="defs2">
    <linearGradient
       inkscape:collect="always"
       xlink:href="#linearGradient4648"
       id="linearGradient10386"
       x1="19"
       y1="23"
       x2="5"
       y2="1"
       gradientUnits="userSpaceOnUse"
       gradientTransform="translate(-1,-1)" />
    <linearGradient
       inkscape:collect="always"
       id="linearGradient4648">
      <stop
         style="stop-color:#f97a00;stop-opacity:1;"
         offset="0"
         id="stop4644" />
      <stop
         style="stop-color:#ffb439;stop-opacity:1;"
         offset="1"
         id="stop4646" />
    </linearGradient>
  </defs>
  <rect
     style="fill:url(#linearGradient10386);fill-opacity:1;stroke:none"
     id="rect184"
     width="21"
     height="21"
     x="0.5"
     y="0.5"
     ry="3.5" />
  <path
     d="M 11.183546,6.0230552 C 9.541292,6.0288752 8.7055663,6.4988136 8.3729986,6.8277428 7.9473086,7.2487719 7.5036707,7.6885206 7.3925299,7.7984459 7.1519234,8.0364188 7.3926227,8.7128565 7.0409674,9.097274 6.921738,9.215199 6.774024,9.285173 6.638624,9.316024 L 6.505811,9.183212 c -0.243268,-0.2432692 -0.635638,-0.2432692 -0.878906,0 L 5.187452,9.622665 c -0.243269,0.243267 -0.243269,0.635638 0,0.878906 l 1.318359,1.316406 c 0.243268,0.24327 0.633685,0.24327 0.8769533,0 l 0.4394531,-0.439453 c 0.2432684,-0.243268 0.2432684,-0.633684 0,-0.876953 L 7.6718267,10.35118 c 0.00622,-0.148171 0.1015444,-0.341473 0.2949219,-0.521484 0.444197,-0.45764 0.9166657,-0.476254 1.1386724,-0.238281 0.03545,0.02805 0.10085,0.09966 0.167968,0.173828 l 5.970703,6.888673 c 0.361435,0.417295 0.992655,0.462758 1.410157,0.101562 0.417296,-0.361435 0.462758,-0.992654 0.101562,-1.410156 L 10.869093,8.5543053 10.576124,8.1871178 c -0.425688,-0.42103 0.01758,-0.8476563 0.01758,-0.8476563 1.203032,-1.1715597 2.888672,-0.8398438 2.888672,-0.8398437 l 0.01758,-0.234375 C 12.592004,6.0889033 11.826166,6.0207762 11.183546,6.0230552 Z"
     style="color:#000000;opacity:0.2;fill:#000000;fill-opacity:1;stroke-linecap:round;stroke-linejoin:round;-inkscape-stroke:none"
     id="path2904" />
  <path
     d="M 9.570265,6.5015707 C 9.306194,6.4832127 9.045617,6.5703057 8.8456546,6.7437582 8.4283576,7.105193 8.3828956,7.736411 8.7440916,8.153915 l 6.5000014,7.5 c 0.361435,0.417296 0.992653,0.462758 1.410156,0.101562 0.417296,-0.361435 0.462758,-0.992653 0.101562,-1.410156 l -6.5,-7.5000003 C 10.082059,6.6441843 9.835383,6.5204944 9.570265,6.5015707 Z"
     style="color:#000000;opacity:1;fill:#fdd9ab;fill-opacity:1;stroke-linecap:round;stroke-linejoin:round;-inkscape-stroke:none"
     id="path381" />
  <path
     d="M 11.183546,5.0230552 C 9.541291,5.0288752 8.7055666,5.4988132 8.3729986,5.8277427 7.9473081,6.2487723 7.5036703,6.6885204 7.3925294,6.7984458 7.1519227,7.036419 7.3926226,7.712856 7.0409669,8.097274 6.921737,8.215199 6.7740233,8.285173 6.6386232,8.316024 L 6.5058107,8.183212 c -0.2432686,-0.243269 -0.6356376,-0.243269 -0.8789062,0 L 5.1874514,8.622665 c -0.2432685,0.243268 -0.2432685,0.635638 0,0.878906 l 1.3183593,1.316406 c 0.2432685,0.243269 0.6336846,0.243269 0.8769531,0 l 0.4394531,-0.439453 c 0.2432687,-0.243268 0.2432687,-0.633684 0,-0.876953 L 7.6718263,9.35118 C 7.6780463,9.203008 7.7733705,9.009707 7.9667482,8.829696 8.4109456,8.372056 8.8834146,8.353442 9.105421,8.591415 c 0.09254,0.07322 0.388672,0.423828 0.388672,0.423828 l 1.419921,-1.40625 -0.33789,-0.421875 c -0.425688,-0.4210304 0.01758,-0.8476565 0.01758,-0.8476565 1.203033,-1.1715609 2.888672,-0.8398438 2.888672,-0.8398438 l 0.01758,-0.234375 C 12.592007,5.0889031 11.826167,5.0207761 11.183546,5.0230552 Z"
     style="fill:#ffffff"
     id="path465" />
  <path
     id="rect2630"
     style="opacity:0.3;fill:#ffffff;fill-opacity:1"
     d="m 3.9999999,1 c -1.6619983,0 -3,1.3380017 -3,2.9999997 v 1 c 0,-1.661998 1.3380017,-3 3,-3 H 18 c 1.661998,0 3,1.338002 3,3 v -1 C 21,2.3380017 19.661998,1 18,1 Z" />
  <path
     id="rect398"
     style="opacity:0.3;fill:#ffffff"
     d="m 1,17 v 1 c 0,1.661998 1.3380017,3 3,3 h 14 c 1.661998,0 3,-1.338002 3,-3 v -1 c 0,1.661998 -1.338002,3 -3,3 H 4 C 2.3380017,20 1,18.661998 1,17 Z" />
  <path
     id="rect899"
     style="opacity:0.5;fill:#000000;stroke:none"
     d="M 4,0 C 1.7840022,0 0,1.7840022 0,4 v 14 c 0,2.215998 1.7840022,4 4,4 h 14 c 2.215998,0 4,-1.784002 4,-4 V 4 C 22,1.7840022 20.215998,0 18,0 Z m 0,1 h 14 c 1.661998,0 3,1.3380017 3,3 v 14 c 0,1.661998 -1.338002,3 -3,3 H 4 C 2.3380017,21 1,19.661998 1,18 V 4 C 1,2.3380017 2.3380017,1 4,1 Z" />
</svg>
