<?xml version="1.0" encoding="UTF-8" standalone="no"?>
<!-- Created with Inkscape (http://www.inkscape.org/) -->

<svg
   width="22"
   height="22"
   viewBox="0 0 22 22.000001"
   version="1.1"
   id="svg5"
   sodipodi:docname="applications-science.svg"
   inkscape:version="1.2.1 (9c6d41e410, 2022-07-14)"
   xmlns:inkscape="http://www.inkscape.org/namespaces/inkscape"
   xmlns:sodipodi="http://sodipodi.sourceforge.net/DTD/sodipodi-0.dtd"
   xmlns:xlink="http://www.w3.org/1999/xlink"
   xmlns="http://www.w3.org/2000/svg"
   xmlns:svg="http://www.w3.org/2000/svg">
  <sodipodi:namedview
     id="namedview7"
     pagecolor="#ffffff"
     bordercolor="#666666"
     borderopacity="1.0"
     inkscape:showpageshadow="2"
     inkscape:pageopacity="0.0"
     inkscape:pagecheckerboard="0"
     inkscape:deskcolor="#d1d1d1"
     inkscape:document-units="px"
     showgrid="false"
     inkscape:zoom="17.333334"
     inkscape:cx="9.1153843"
     inkscape:cy="14.682692"
     inkscape:window-width="1920"
     inkscape:window-height="1009"
     inkscape:window-x="0"
     inkscape:window-y="0"
     inkscape:window-maximized="1"
     inkscape:current-layer="svg5" />
  <defs
     id="defs2">
    <linearGradient
       inkscape:collect="always"
       xlink:href="#linearGradient1918"
       id="linearGradient16885"
       x1="13"
       y1="24"
       x2="13"
       y2="2"
       gradientUnits="userSpaceOnUse"
       gradientTransform="translate(-1.9999999,-2.0000001)" />
    <linearGradient
       inkscape:collect="always"
       id="linearGradient1918">
      <stop
         style="stop-color:#ff8d18;stop-opacity:1;"
         offset="0"
         id="stop1914" />
      <stop
         style="stop-color:#c94c41;stop-opacity:1;"
         offset="1"
         id="stop1916" />
    </linearGradient>
  </defs>
  <rect
     style="fill:url(#linearGradient16885);fill-opacity:1;stroke:none"
     id="rect184"
     width="21"
     height="21"
     x="0.5"
     y="0.5"
     ry="3.5" />
  <path
     d="M 11,4 C 9.69101,4 8.50065,4.8058 7.60938,6.1230501 6.02151,6.2356701 4.7272,6.8656201 4.07227,8.0000001 3.41757,9.13397 3.52109,10.56908 4.2168,12.000001 3.52109,13.430921 3.41757,14.866031 4.07227,16 4.7272,17.13438 6.02151,17.76433 7.60938,17.87695 8.50065,19.1942 9.69101,20 11,20 12.30899,20 13.49935,19.1942 14.39062,17.87695 15.97849,17.76433 17.2728,17.13438 17.92773,16 18.58243,14.866031 18.47891,13.430921 17.7832,12.000001 18.47891,10.56908 18.58243,9.13397 17.92773,8.0000001 17.2728,6.8656201 15.97849,6.2356701 14.39062,6.1230501 13.49935,4.8058 12.30899,4 11,4 Z m 0,1 c 0.80529,0 1.554,0.41822 2.18164,1.1347701 -0.69973,0.0574 -1.43542,0.20137 -2.18164,0.43359 -0.74622,-0.23222 -1.48191,-0.37616 -2.18164,-0.43359 C 9.446,5.41822 10.19471,5 11,5 Z M 8.1582,7.0761701 c 0.3965,0.004 0.81564,0.0449 1.2461,0.11914 -0.303,0.14417 -0.60459,0.30158 -0.9043,0.47461 C 8.1992,7.8435901 7.91203,8.0276802 7.63477,8.2187502 7.78641,7.8063301 7.96189,7.4231601 8.1582,7.0761701 Z m 5.6836,0 c 0.19631,0.34699 0.37179,0.73016 0.52343,1.1425801 C 14.08797,8.0276802 13.8008,7.8435901 13.5,7.6699201 c -0.29971,-0.17303 -0.6013,-0.33044 -0.9043,-0.47461 0.43046,-0.0742 0.8496,-0.11554 1.2461,-0.11914 z m -6.83008,0.10156 C 6.71141,7.8127701 6.46696,8.5223402 6.29492,9.28516 5.72078,9.81528 5.22963,10.37979 4.83008,10.95703 4.52341,10.05527 4.53488,9.19736 4.9375,8.5000002 5.34019,7.8025201 6.07721,7.3629801 7.01172,7.1777301 Z m 7.97656,0 c 0.93451,0.18525 1.67153,0.62479 2.07422,1.3222701 C 17.46512,9.19736 17.47659,10.05527 17.16992,10.95703 16.77037,10.37979 16.27922,9.81528 15.70508,9.28516 15.53304,8.5223402 15.28859,7.8127701 14.98828,7.1777301 Z M 11,7.6152301 c 0.66272,0.23244 1.33628,0.53673 2,0.9199301 C 13.66474,8.9189403 14.26557,9.35204 14.79883,9.81055 14.92843,10.49958 15,11.23505 15,12.000001 c 0,0.76495 -0.0716,1.50042 -0.20117,2.18945 C 14.26557,14.647961 13.66474,15.08105 13,15.46484 12.33629,15.84804 11.66272,16.15233 11,16.38477 10.33728,16.15233 9.66372,15.84804 9,15.46484 8.33526,15.08106 7.73443,14.647961 7.20117,14.189451 7.07157,13.500421 7,12.764951 7,12.000001 7,11.23505 7.0716,10.49958 7.20117,9.81055 7.73443,9.35204 8.33526,8.9189503 9,8.5351602 9.66371,8.1519601 10.33728,7.8476701 11,7.6152301 Z M 11,10 c -0.35738,6.9e-4 -0.68724,0.19204 -0.86523,0.50195 C 9.77749,10.50113 9.44692,10.69099 9.26758,11 c -0.17743,0.3101 -0.17594,0.6913 0.004,1 -0.17984,0.3087 -0.18133,0.6899 -0.004,1 0.17934,0.30901 0.50991,0.49887 0.86719,0.49805 0.17799,0.309911 0.50785,0.501261 0.86523,0.501951 0.35738,-6.9e-4 0.68724,-0.19204 0.86523,-0.50195 0.35728,8.19e-4 0.68785,-0.189041 0.86719,-0.49805 0.17863,-0.3094 0.17863,-0.6906 0,-1 C 12.91105,11.6906 12.91105,11.3094 12.73242,11 12.55343,10.6916 12.22377,10.50183 11.86719,10.50195 11.68885,10.19144 11.35808,9.99999 11,10 Z M 6.04102,10.98047 C 6.01446,11.31444 6,11.65449 6,12.000001 c 0,0.34551 0.0145,0.68556 0.041,1.01953 C 5.7612,12.683471 5.51592,12.341961 5.31443,12.000001 5.51592,11.65804 5.7612,11.31653 6.041,10.98047 Z m 9.91796,0 c 0.2798,0.33606 0.52508,0.677569 0.72657,1.019531 -0.20149,0.34196 -0.44677,0.68347 -0.72657,1.01953 0.0266,-0.333971 0.041,-0.67402 0.041,-1.01953 0,-0.345511 -0.0145,-0.685561 -0.041,-1.019531 z m -11.1289,2.062501 c 0.39955,0.57724 0.8907,1.14175 1.46484,1.67187 0.17204,0.762819 0.41649,1.472389 0.7168,2.107429 C 6.07721,16.63702 5.34019,16.19748 4.9375,15.5 4.53488,14.802641 4.52341,13.944731 4.83008,13.042971 Z m 12.33984,0 c 0.30667,0.90176 0.2952,1.75967 -0.10742,2.457029 -0.40269,0.69748 -1.13971,1.13702 -2.07422,1.32227 0.30031,-0.63504 0.54476,-1.34461 0.7168,-2.10743 0.57414,-0.53012 1.06529,-1.09463 1.46484,-1.671869 z M 7.63477,15.78125 C 7.91203,15.97232 8.1992,16.15641 8.5,16.33008 8.79971,16.50311 9.1013,16.66052 9.4043,16.80469 8.97384,16.87889 8.5547,16.92023 8.1582,16.92383 7.96189,16.57684 7.78641,16.19367 7.63477,15.78125 Z m 6.73046,0 c -0.15164,0.41242 -0.32712,0.79559 -0.52343,1.14258 -0.3965,-0.004 -0.81564,-0.0449 -1.2461,-0.11914 0.303,-0.14417 0.60459,-0.30158 0.9043,-0.47461 0.3008,-0.17367 0.58797,-0.35776 0.86523,-0.54883 z M 11,17.43164 c 0.74622,0.232221 1.48191,0.37616 2.18164,0.43359 C 12.554,18.58178 11.80529,19 11,19 10.19471,19 9.446,18.58178 8.81836,17.86523 9.51809,17.80783 10.25378,17.66386 11,17.43164 Z"
     style="color:#000000;display:inline;overflow:visible;visibility:visible;opacity:0.2;fill:#000000;fill-opacity:1;fill-rule:evenodd;stroke:none;stroke-width:3;marker:none;enable-background:new"
     id="path8020" />
  <path
     d="M 11,3 C 9.69101,3 8.50065,3.8058 7.60938,5.12305 6.02151,5.23567 4.7272,5.86562 4.07227,7 3.41757,8.13397 3.52109,9.56908 4.2168,11 3.52109,12.43092 3.41757,13.86603 4.07227,15 4.7272,16.13438 6.02151,16.76433 7.60938,16.87695 8.50065,18.1942 9.69101,19 11,19 12.30899,19 13.49935,18.1942 14.39062,16.87695 15.97849,16.76433 17.2728,16.13438 17.92773,15 18.58243,13.86603 18.47891,12.43092 17.7832,11 18.47891,9.56908 18.58243,8.13397 17.92773,7 17.2728,5.86562 15.97849,5.23567 14.39062,5.12305 13.49935,3.8058 12.30899,3 11,3 Z m 0,1 c 0.80529,0 1.554,0.41822 2.18164,1.13477 C 12.48191,5.19217 11.74622,5.33614 11,5.56836 10.25378,5.33614 9.51809,5.1922 8.81836,5.13477 9.446,4.41822 10.19471,4 11,4 Z M 8.1582,6.07617 c 0.3965,0.004 0.81564,0.0449 1.2461,0.11914 C 9.1013,6.33948 8.79971,6.49689 8.5,6.66992 8.1992,6.84359 7.91203,7.02768 7.63477,7.21875 7.78641,6.80633 7.96189,6.42316 8.1582,6.07617 Z m 5.6836,0 c 0.19631,0.34699 0.37179,0.73016 0.52343,1.14258 C 14.08797,7.02768 13.8008,6.84359 13.5,6.66992 13.20029,6.49689 12.8987,6.33948 12.5957,6.19531 13.02616,6.12111 13.4453,6.07977 13.8418,6.07617 Z M 7.01172,6.17773 C 6.71141,6.81277 6.46696,7.52234 6.29492,8.28516 5.72078,8.81528 5.22963,9.37979 4.83008,9.95703 4.52341,9.05527 4.53488,8.19736 4.9375,7.5 5.34019,6.80252 6.07721,6.36298 7.01172,6.17773 Z m 7.97656,0 C 15.92279,6.36298 16.65981,6.80252 17.0625,7.5 17.46512,8.19736 17.47659,9.05527 17.16992,9.95703 16.77037,9.37979 16.27922,8.81528 15.70508,8.28516 15.53304,7.52234 15.28859,6.81277 14.98828,6.17773 Z M 11,6.61523 c 0.66272,0.23244 1.33628,0.53673 2,0.91993 0.66474,0.38378 1.26557,0.81688 1.79883,1.27539 C 14.92843,9.49958 15,10.23505 15,11 c 0,0.76495 -0.0716,1.50042 -0.20117,2.18945 -0.53326,0.45851 -1.13409,0.8916 -1.79883,1.27539 -0.66371,0.3832 -1.33728,0.68749 -2,0.91993 C 10.33728,15.15233 9.66372,14.84804 9,14.46484 8.33526,14.08106 7.73443,13.64796 7.20117,13.18945 7.07157,12.50042 7,11.76495 7,11 7,10.23505 7.0716,9.49958 7.20117,8.81055 7.73443,8.35204 8.33526,7.91895 9,7.53516 9.66371,7.15196 10.33728,6.84767 11,6.61523 Z M 11,9 C 10.64262,9.00069 10.31276,9.19204 10.13477,9.50195 9.77749,9.50113 9.44692,9.69099 9.26758,10 c -0.17743,0.3101 -0.17594,0.6913 0.004,1 -0.17984,0.3087 -0.18133,0.6899 -0.004,1 0.17934,0.30901 0.50991,0.49887 0.86719,0.49805 C 10.31276,12.80796 10.64262,12.99931 11,13 c 0.35738,-6.9e-4 0.68724,-0.19204 0.86523,-0.50195 0.35728,8.2e-4 0.68785,-0.18904 0.86719,-0.49805 0.17863,-0.3094 0.17863,-0.6906 0,-1 0.17863,-0.3094 0.17863,-0.6906 0,-1 C 12.55343,9.6916 12.22377,9.50183 11.86719,9.50195 11.68885,9.19144 11.35808,8.99999 11,9 Z M 6.04102,9.98047 C 6.01446,10.31444 6,10.65449 6,11 6,11.34551 6.0145,11.68556 6.041,12.01953 5.7612,11.68347 5.51592,11.34196 5.31443,11 5.51592,10.65804 5.7612,10.31653 6.041,9.98047 Z m 9.91796,0 c 0.2798,0.33606 0.52508,0.67757 0.72657,1.01953 -0.20149,0.34196 -0.44677,0.68347 -0.72657,1.01953 0.0266,-0.33397 0.041,-0.67402 0.041,-1.01953 0,-0.34551 -0.0145,-0.68556 -0.041,-1.01953 z m -11.1289,2.0625 c 0.39955,0.57724 0.8907,1.14175 1.46484,1.67187 0.17204,0.76282 0.41649,1.47239 0.7168,2.10743 C 6.07721,15.63702 5.34019,15.19748 4.9375,14.5 4.53488,13.80264 4.52341,12.94473 4.83008,12.04297 Z m 12.33984,0 c 0.30667,0.90176 0.2952,1.75967 -0.10742,2.45703 -0.40269,0.69748 -1.13971,1.13702 -2.07422,1.32227 0.30031,-0.63504 0.54476,-1.34461 0.7168,-2.10743 0.57414,-0.53012 1.06529,-1.09463 1.46484,-1.67187 z M 7.63477,14.78125 C 7.91203,14.97232 8.1992,15.15641 8.5,15.33008 8.79971,15.50311 9.1013,15.66052 9.4043,15.80469 8.97384,15.87889 8.5547,15.92023 8.1582,15.92383 7.96189,15.57684 7.78641,15.19367 7.63477,14.78125 Z m 6.73046,0 c -0.15164,0.41242 -0.32712,0.79559 -0.52343,1.14258 -0.3965,-0.004 -0.81564,-0.0449 -1.2461,-0.11914 0.303,-0.14417 0.60459,-0.30158 0.9043,-0.47461 0.3008,-0.17367 0.58797,-0.35776 0.86523,-0.54883 z M 11,16.43164 c 0.74622,0.23222 1.48191,0.37616 2.18164,0.43359 C 12.554,17.58178 11.80529,18 11,18 10.19471,18 9.446,17.58178 8.81836,16.86523 9.51809,16.80783 10.25378,16.66386 11,16.43164 Z"
     style="color:#000000;display:inline;overflow:visible;visibility:visible;fill:#ffffff;fill-opacity:1;fill-rule:evenodd;stroke:none;stroke-width:3;marker:none;enable-background:new"
     id="path6898"
     sodipodi:nodetypes="scccccscccccsscccscccccccccccccsccsccccccscscccscccccccccccccccccscccccccsccccsccscccccccccccccccscc" />
  <path
     id="rect2630"
     style="opacity:0.3;fill:#ffffff;fill-opacity:1"
     d="m 3.9999999,1 c -1.6619983,0 -3,1.3380017 -3,2.9999997 v 1 c 0,-1.661998 1.3380017,-3 3,-3 H 18 c 1.661998,0 3,1.338002 3,3 v -1 C 21,2.3380017 19.661998,1 18,1 Z" />
  <path
     id="rect398"
     style="opacity:0.3;fill:#ffffff"
     d="m 1,17 v 1 c 0,1.661998 1.3380017,3 3,3 h 14 c 1.661998,0 3,-1.338002 3,-3 v -1 c 0,1.661998 -1.338002,3 -3,3 H 4 C 2.3380017,20 1,18.661998 1,17 Z" />
  <path
     id="rect899"
     style="opacity:0.5;fill:#000000;stroke:none"
     d="M 4,0 C 1.7840022,0 0,1.7840022 0,4 v 14 c 0,2.215998 1.7840022,4 4,4 h 14 c 2.215998,0 4,-1.784002 4,-4 V 4 C 22,1.7840022 20.215998,0 18,0 Z m 0,1 h 14 c 1.661998,0 3,1.3380017 3,3 v 14 c 0,1.661998 -1.338002,3 -3,3 H 4 C 2.3380017,21 1,19.661998 1,18 V 4 C 1,2.3380017 2.3380017,1 4,1 Z" />
</svg>
