<?xml version="1.0" encoding="UTF-8" standalone="no"?>
<!-- Created with Inkscape (http://www.inkscape.org/) -->

<svg
   width="22"
   height="22"
   viewBox="0 0 22 22.000001"
   version="1.1"
   id="svg5"
   sodipodi:docname="brave.svg"
   inkscape:version="1.2.1 (9c6d41e410, 2022-07-14)"
   xmlns:inkscape="http://www.inkscape.org/namespaces/inkscape"
   xmlns:sodipodi="http://sodipodi.sourceforge.net/DTD/sodipodi-0.dtd"
   xmlns:xlink="http://www.w3.org/1999/xlink"
   xmlns="http://www.w3.org/2000/svg"
   xmlns:svg="http://www.w3.org/2000/svg">
  <sodipodi:namedview
     id="namedview7"
     pagecolor="#ffffff"
     bordercolor="#666666"
     borderopacity="1.0"
     inkscape:showpageshadow="2"
     inkscape:pageopacity="0.0"
     inkscape:pagecheckerboard="0"
     inkscape:deskcolor="#d1d1d1"
     inkscape:document-units="px"
     showgrid="false"
     inkscape:zoom="16.5"
     inkscape:cx="4.2727273"
     inkscape:cy="13.242424"
     inkscape:window-width="1920"
     inkscape:window-height="1007"
     inkscape:window-x="0"
     inkscape:window-y="0"
     inkscape:window-maximized="1"
     inkscape:current-layer="svg5"
     showguides="false" />
  <defs
     id="defs2">
    <linearGradient
       inkscape:collect="always"
       xlink:href="#linearGradient3475"
       id="linearGradient10386"
       x1="19"
       y1="23"
       x2="5"
       y2="1"
       gradientUnits="userSpaceOnUse"
       gradientTransform="translate(-1,-1)" />
    <linearGradient
       inkscape:collect="always"
       id="linearGradient3475">
      <stop
         style="stop-color:#f16649;stop-opacity:1;"
         offset="0"
         id="stop3471" />
      <stop
         style="stop-color:#fd8862;stop-opacity:1;"
         offset="1"
         id="stop3473" />
    </linearGradient>
  </defs>
  <rect
     style="fill:url(#linearGradient10386);fill-opacity:1;stroke:none"
     id="rect184"
     width="21"
     height="21"
     x="0.5"
     y="0.5"
     ry="3.5" />
  <path
     d="m 10.999675,5.5277278 c -0.221774,0 -0.593532,0.09688 -1.738889,0.4525795 -0.2682413,0.0833 -0.5395623,0.1509485 -0.6034443,0.1508505 -0.06384,-7e-5 -0.569382,-0.08694 -1.122537,-0.1935367 C 6.9816907,5.8309408 6.495315,5.7431045 6.4529789,5.7431045 c -0.1498285,0 -1.839046,2.2326852 -2.2639053,2.9924118 C 4.011469,9.053093 3.9561128,9.369186 4.0352271,9.608909 c 0.07126,0.215908 0.2794129,0.432112 1.5790931,1.640624 0.5966399,0.554794 1.0963855,1.038775 1.1106096,1.075875 0.06202,0.161477 0.0126,0.398022 -0.1716966,0.828747 -0.2420748,0.564468 -0.2732389,0.799949 -0.1508785,1.14834 0.1304805,0.371435 0.3230791,0.644842 0.64515,0.918053 0.328469,0.278671 0.528782,0.374893 0.716592,0.344401 0.224239,-0.0364 1.6239353,-0.742521 1.8549923,-0.935931 0.5503,-0.46063 1.090813,-0.996132 1.110624,-1.099704 0.0112,-0.06048 -0.0098,-0.166348 -0.04872,-0.236209 -0.03836,-0.06986 -0.438201,-0.4453 -0.889283,-0.833702 -0.785122,-0.676021 -0.9269993,-0.832737 -0.9269993,-1.027268 0,-0.04802 0.1394413,-0.430347 0.3106473,-0.849564 C 9.420863,9.981197 9.487027,9.774305 9.486005,9.603953 9.484605,9.334508 9.383945,9.138801 9.176352,9.001503 9.088011,8.9429833 8.4529967,8.679124 7.7649927,8.4149152 7.0770167,8.1507203 6.4664889,7.9160095 6.4092428,7.8938615 c -0.06174,-0.02366 -0.08764,-0.05502 -0.06454,-0.07742 0.02156,-0.02072 0.4006813,-0.07098 0.8426349,-0.1111603 0.947788,-0.08624 0.927096,-0.08974 1.9701273,0.2838509 0.646999,0.2317287 0.754351,0.2835709 0.808895,0.3890612 0.03458,0.06692 0.06202,0.1568006 0.06146,0.1994867 -4.76e-4,0.0427 -0.13552,0.659948 -0.299741,1.371641 -0.281317,1.218885 -0.294379,1.297636 -0.225302,1.367691 0.0854,0.08666 0.931703,0.288248 1.345838,0.320573 0.362559,0.02828 1.524129,-0.194782 1.642597,-0.315617 0.07462,-0.07616 0.06594,-0.126001 -0.221326,-1.372649 -0.163983,-0.711691 -0.298229,-1.3289529 -0.298747,-1.371639 -4.62e-4,-0.0427 0.02716,-0.1320204 0.06146,-0.1984926 0.05446,-0.1054204 0.168742,-0.1591246 0.895233,-0.4188394 l 0.831714,-0.297753 0.453588,0.0112 c 0.598754,0.01512 1.42323,0.1069603 1.435158,0.1597965 0.0056,0.02324 -0.601903,0.2759549 -1.3498,0.5617518 -0.747896,0.285797 -1.422825,0.564608 -1.499685,0.6193337 -0.189532,0.13496 -0.284313,0.330331 -0.285839,0.590536 -7e-4,0.172214 0.06524,0.380212 0.317605,1.00145 0.424944,1.046098 0.471634,0.910115 -0.645136,1.873864 -0.472501,0.407738 -0.879987,0.792361 -0.906153,0.855529 -0.07728,0.186495 0.02282,0.333439 0.565714,0.825751 0.645878,0.585636 0.771921,0.669286 1.616795,1.075903 0.387732,0.186593 0.758831,0.337961 0.824785,0.336449 0.184325,-0.0042 0.305943,-0.06622 0.61834,-0.318599 0.335931,-0.271433 0.557594,-0.585818 0.688788,-0.974641 0.120681,-0.357547 0.09912,-0.521375 -0.150864,-1.113591 -0.182015,-0.431188 -0.232331,-0.677491 -0.169709,-0.840661 0.014,-0.03654 0.484794,-0.492452 1.046098,-1.013351 1.668679,-1.548643 1.728991,-1.623347 1.665431,-2.064404 -0.04536,-0.3151967 -0.1015,-0.4217237 -0.660018,-1.24956 -0.474994,-0.7040063 -1.571855,-2.1413769 -1.70116,-2.2291852 -0.03248,-0.02212 -0.476001,0.04298 -1.103665,0.1617705 -0.576942,0.1093404 -1.103666,0.1995007 -1.17116,0.1995007 -0.06748,0 -0.342133,-0.06846 -0.610388,-0.1518585 C 11.592913,5.6238523 11.221156,5.527 10.999381,5.527 Z m -0.0028,9.2799442 c -0.19292,8.82e-4 -0.388459,0.07364 -0.742408,0.219353 -0.672996,0.277145 -2.0807713,0.986373 -2.1378633,1.076856 -0.07126,0.11312 -0.0028,0.194446 0.433735,0.514123 0.7756033,0.568248 1.0219343,0.764529 1.6465743,1.309116 0.833184,0.726433 0.770632,0.725635 1.583041,0.01694 0.563096,-0.491261 1.194064,-0.982621 1.81729,-1.414326 0.302527,-0.209553 0.363203,-0.318179 0.243153,-0.436704 -0.116201,-0.1148 -1.501267,-0.81609 -2.117003,-1.071913 -0.343337,-0.142646 -0.533612,-0.214243 -0.726519,-0.213389 z"
     style="display:inline;opacity:0.2;fill:#000000;fill-opacity:1;fill-rule:evenodd;stroke:none;stroke-width:1.4px;stroke-linecap:butt;stroke-linejoin:miter;stroke-opacity:1;enable-background:new"
     id="path1314" />
  <path
     d="m 10.999675,4.5277278 c -0.221774,0 -0.593532,0.09688 -1.738889,0.4525795 -0.2682413,0.0833 -0.5395623,0.1509485 -0.6034443,0.1508505 -0.06384,-7e-5 -0.569382,-0.08694 -1.122537,-0.1935367 C 6.9816907,4.8309408 6.495315,4.7431045 6.4529789,4.7431045 c -0.1498285,0 -1.839046,2.2326852 -2.2639053,2.9924117 -0.1776046,0.317577 -0.2329608,0.6336701 -0.1538465,0.8733928 0.07126,0.2159083 0.2794129,0.432111 1.5790931,1.640623 0.5966399,0.554795 1.0963855,1.038776 1.1106096,1.075876 0.06202,0.161477 0.0126,0.398022 -0.1716966,0.828747 -0.2420748,0.564468 -0.2732389,0.799949 -0.1508785,1.14834 0.1304805,0.371435 0.3230791,0.644842 0.64515,0.918053 0.328469,0.278671 0.528782,0.374893 0.716592,0.344401 0.224239,-0.0364 1.6239353,-0.742521 1.8549923,-0.935931 0.5503,-0.46063 1.090813,-0.996132 1.110624,-1.099704 0.0112,-0.06048 -0.0098,-0.166348 -0.04872,-0.236209 -0.03836,-0.06986 -0.438201,-0.4453 -0.889283,-0.833702 -0.785122,-0.676021 -0.9269993,-0.832737 -0.9269993,-1.027268 0,-0.04802 0.1394413,-0.430348 0.3106473,-0.849565 C 9.420863,8.9811983 9.487027,8.7743053 9.486005,8.603953 9.484604,8.3345082 9.383944,8.1388015 9.176351,8.0015031 9.088011,7.9429829 8.4529967,7.679124 7.7649927,7.4149152 7.0770167,7.1507203 6.4664889,6.9160095 6.4092428,6.8938615 c -0.06174,-0.02366 -0.08764,-0.05502 -0.06454,-0.07742 0.02156,-0.02072 0.4006813,-0.07098 0.8426349,-0.1111603 0.947788,-0.08624 0.927096,-0.08974 1.9701273,0.2838509 0.646999,0.2317287 0.754351,0.2835709 0.808895,0.3890612 0.03458,0.06692 0.06202,0.1568006 0.06146,0.1994867 C 10.027344,7.62038 9.8923,8.2376281 9.728079,8.9493203 9.446762,10.168206 9.4337,10.246956 9.502777,10.317012 c 0.0854,0.08666 0.931703,0.288248 1.345838,0.320573 0.362559,0.02828 1.524129,-0.194782 1.642597,-0.315617 0.07462,-0.07616 0.06594,-0.126 -0.221326,-1.3726477 C 12.105903,8.2376281 11.971657,7.6203661 11.971139,7.57768 c -4.62e-4,-0.0427 0.02716,-0.1320204 0.06146,-0.1984926 0.05446,-0.1054204 0.168742,-0.1591246 0.895233,-0.4188394 l 0.831714,-0.297753 0.453588,0.0112 c 0.598754,0.01512 1.42323,0.1069603 1.435158,0.1597965 0.0056,0.02324 -0.601903,0.2759549 -1.3498,0.5617518 -0.747896,0.2857969 -1.422825,0.5646078 -1.499685,0.619334 -0.189532,0.1349605 -0.284313,0.3303311 -0.285839,0.5905359 -7e-4,0.1722141 0.06524,0.3802131 0.317605,1.0014508 0.424944,1.046097 0.471634,0.910114 -0.645136,1.873865 -0.472501,0.407737 -0.879987,0.79236 -0.906153,0.855529 -0.07728,0.186494 0.02282,0.333439 0.565714,0.82575 0.645878,0.585636 0.771921,0.669286 1.616795,1.075904 0.387732,0.186592 0.758831,0.337961 0.824785,0.336449 0.184325,-0.0042 0.305943,-0.06622 0.61834,-0.318599 0.335931,-0.271433 0.557594,-0.585818 0.688788,-0.974641 0.120681,-0.357548 0.09912,-0.521376 -0.150864,-1.113592 -0.182015,-0.431187 -0.232331,-0.67749 -0.169709,-0.840661 0.014,-0.03654 0.484794,-0.492451 1.046098,-1.013352 1.668679,-1.5486427 1.728991,-1.6233467 1.665431,-2.0644039 -0.04536,-0.315197 -0.1015,-0.4217234 -0.660018,-1.2495601 -0.474994,-0.7040063 -1.571855,-2.1413769 -1.70116,-2.2291852 -0.03248,-0.02212 -0.476001,0.04298 -1.103665,0.1617705 -0.576942,0.1093404 -1.103666,0.1995007 -1.17116,0.1995007 -0.06748,0 -0.342133,-0.06846 -0.610388,-0.1518585 C 11.592913,4.6238523 11.221156,4.527 10.999381,4.527 Z m -0.0028,9.2799442 c -0.19292,8.82e-4 -0.388459,0.07364 -0.742408,0.219353 -0.672996,0.277145 -2.0807713,0.986373 -2.1378633,1.076856 -0.07126,0.11312 -0.0028,0.194446 0.433735,0.514123 0.7756033,0.568248 1.0219343,0.764529 1.6465743,1.309116 0.833184,0.726435 0.770632,0.725637 1.583041,0.01694 0.563096,-0.491261 1.194064,-0.982621 1.81729,-1.414326 0.302527,-0.209553 0.363203,-0.318179 0.243153,-0.436704 -0.116201,-0.1148 -1.501267,-0.81609 -2.117003,-1.071913 -0.343337,-0.142646 -0.533612,-0.214243 -0.726519,-0.213389 z"
     style="display:inline;fill:#ffffff;fill-opacity:1;fill-rule:evenodd;stroke:none;stroke-width:1.4px;stroke-linecap:butt;stroke-linejoin:miter;stroke-opacity:1;enable-background:new"
     id="path1128"
     sodipodi:nodetypes="ccccsccccccccccccscccccccccccccccccccccsccccccccccsccccccscccccccccccscc" />
  <path
     id="rect2630"
     style="opacity:0.3;fill:#ffffff;fill-opacity:1"
     d="m 3.9999999,1 c -1.6619983,0 -3,1.3380017 -3,2.9999997 v 1 c 0,-1.661998 1.3380017,-3 3,-3 H 18 c 1.661998,0 3,1.338002 3,3 v -1 C 21,2.3380017 19.661998,1 18,1 Z" />
  <path
     id="rect398"
     style="opacity:0.3;fill:#ffffff"
     d="m 1,17 v 1 c 0,1.661998 1.3380017,3 3,3 h 14 c 1.661998,0 3,-1.338002 3,-3 v -1 c 0,1.661998 -1.338002,3 -3,3 H 4 C 2.3380017,20 1,18.661998 1,17 Z" />
  <path
     id="rect899"
     style="opacity:0.5;fill:#000000;stroke:none"
     d="M 4,0 C 1.7840022,0 0,1.7840022 0,4 v 14 c 0,2.215998 1.7840022,4 4,4 h 14 c 2.215998,0 4,-1.784002 4,-4 V 4 C 22,1.7840022 20.215998,0 18,0 Z m 0,1 h 14 c 1.661998,0 3,1.3380017 3,3 v 14 c 0,1.661998 -1.338002,3 -3,3 H 4 C 2.3380017,21 1,19.661998 1,18 V 4 C 1,2.3380017 2.3380017,1 4,1 Z" />
</svg>
