<?xml version="1.0" encoding="UTF-8" standalone="no"?>
<!-- Created with Inkscape (http://www.inkscape.org/) -->

<svg
   width="22"
   height="22"
   viewBox="0 0 22 22.000001"
   version="1.1"
   id="svg5"
   sodipodi:docname="bulky.svg"
   inkscape:version="1.2.1 (9c6d41e410, 2022-07-14)"
   xmlns:inkscape="http://www.inkscape.org/namespaces/inkscape"
   xmlns:sodipodi="http://sodipodi.sourceforge.net/DTD/sodipodi-0.dtd"
   xmlns:xlink="http://www.w3.org/1999/xlink"
   xmlns="http://www.w3.org/2000/svg"
   xmlns:svg="http://www.w3.org/2000/svg">
  <sodipodi:namedview
     id="namedview7"
     pagecolor="#ffffff"
     bordercolor="#666666"
     borderopacity="1.0"
     inkscape:showpageshadow="2"
     inkscape:pageopacity="0.0"
     inkscape:pagecheckerboard="0"
     inkscape:deskcolor="#d1d1d1"
     inkscape:document-units="px"
     showgrid="false"
     inkscape:zoom="8.666667"
     inkscape:cx="-0.74999997"
     inkscape:cy="18.403845"
     inkscape:window-width="1920"
     inkscape:window-height="1007"
     inkscape:window-x="0"
     inkscape:window-y="0"
     inkscape:window-maximized="1"
     inkscape:current-layer="svg5" />
  <defs
     id="defs2">
    <linearGradient
       inkscape:collect="always"
       xlink:href="#linearGradient3712"
       id="linearGradient16885"
       x1="13"
       y1="24"
       x2="13"
       y2="2"
       gradientUnits="userSpaceOnUse"
       gradientTransform="translate(-1.9999999,-2.0000001)" />
    <linearGradient
       inkscape:collect="always"
       id="linearGradient3712">
      <stop
         style="stop-color:#393e53;stop-opacity:1;"
         offset="0"
         id="stop3708" />
      <stop
         style="stop-color:#797d96;stop-opacity:1;"
         offset="1"
         id="stop3710" />
    </linearGradient>
  </defs>
  <rect
     style="fill:url(#linearGradient16885);fill-opacity:1;stroke:none"
     id="rect184"
     width="21"
     height="21"
     x="0.5"
     y="0.5"
     ry="3.5" />
  <path
     d="m 11,6 v 1 h 2 v 10 h -2 v 1 h 5 V 17 H 14 V 7 h 2 V 6 M 4,9.65625 v 4.687501 c 3e-5,0.349032 0.34476,0.65621 0.71875,0.65625 H 12 v -1 H 5 V 10 h 7 V 8.9999999 H 4.71875 C 4.3026,8.9984999 3.99999,9.2733 4,9.65625 Z M 15,8.9999999 V 10 h 2 v 4.000001 h -2 v 1 h 2.28125 c 0.374,-4e-5 0.71872,-0.307218 0.71875,-0.65625 V 9.65625 C 17.99997,9.307219 17.65525,9.000027 17.28125,8.9999999 Z M 6,11 v 2.000001 h 5 V 11 Z"
     style="display:inline;opacity:0.2;fill:#000000;fill-opacity:1;stroke:none;enable-background:new"
     id="path30664"
     sodipodi:nodetypes="ccccccccccccccccccccccccccccccccccccccc" />
  <path
     d="m 11,5 v 1 h 2 v 10 h -2 v 1 h 5 V 16 H 14 V 6 h 2 V 5 M 4,8.6562503 V 13.34375 C 4.00003,13.692782 4.34476,13.99996 4.71875,14 H 12 V 13 H 5 V 8.9999999 h 7 V 8.0000003 H 4.71875 C 4.3026,7.9985003 3.99999,8.2733003 4,8.6562503 Z m 11,-0.65625 v 0.9999996 h 2 V 13 h -2 v 1 h 2.28125 c 0.374,-4e-5 0.71872,-0.307218 0.71875,-0.65625 V 8.6562503 c -3e-5,-0.349031 -0.34475,-0.656223 -0.71875,-0.65625 z M 6,10 v 2 h 5 v -2 z"
     style="display:inline;fill:#ffffff;fill-opacity:1;stroke:none;enable-background:new"
     id="path30115"
     sodipodi:nodetypes="ccccccccccccccccccccccccccccccccccccccc" />
  <path
     id="rect2630"
     style="opacity:0.3;fill:#ffffff;fill-opacity:1"
     d="m 3.9999999,1 c -1.6619983,0 -3,1.3380017 -3,2.9999997 v 1 c 0,-1.661998 1.3380017,-3 3,-3 H 18 c 1.661998,0 3,1.338002 3,3 v -1 C 21,2.3380017 19.661998,1 18,1 Z" />
  <path
     id="rect398"
     style="opacity:0.3;fill:#ffffff"
     d="m 1,17 v 1 c 0,1.661998 1.3380017,3 3,3 h 14 c 1.661998,0 3,-1.338002 3,-3 v -1 c 0,1.661998 -1.338002,3 -3,3 H 4 C 2.3380017,20 1,18.661998 1,17 Z" />
  <path
     id="rect899"
     style="opacity:0.5;fill:#000000;stroke:none"
     d="M 4,0 C 1.7840022,0 0,1.7840022 0,4 v 14 c 0,2.215998 1.7840022,4 4,4 h 14 c 2.215998,0 4,-1.784002 4,-4 V 4 C 22,1.7840022 20.215998,0 18,0 Z m 0,1 h 14 c 1.661998,0 3,1.3380017 3,3 v 14 c 0,1.661998 -1.338002,3 -3,3 H 4 C 2.3380017,21 1,19.661998 1,18 V 4 C 1,2.3380017 2.3380017,1 4,1 Z" />
</svg>
