<?xml version="1.0" encoding="UTF-8" standalone="no"?>
<!-- Created with Inkscape (http://www.inkscape.org/) -->

<svg
   width="22"
   height="22"
   viewBox="0 0 22 22.000001"
   version="1.1"
   id="svg5"
   sodipodi:docname="cs-actions.svg"
   inkscape:version="1.3.2 (091e20ef0f, 2023-11-25, custom)"
   xmlns:inkscape="http://www.inkscape.org/namespaces/inkscape"
   xmlns:sodipodi="http://sodipodi.sourceforge.net/DTD/sodipodi-0.dtd"
   xmlns:xlink="http://www.w3.org/1999/xlink"
   xmlns="http://www.w3.org/2000/svg"
   xmlns:svg="http://www.w3.org/2000/svg">
  <sodipodi:namedview
     id="namedview7"
     pagecolor="#ffffff"
     bordercolor="#666666"
     borderopacity="1.0"
     inkscape:showpageshadow="2"
     inkscape:pageopacity="0.0"
     inkscape:pagecheckerboard="0"
     inkscape:deskcolor="#d1d1d1"
     inkscape:document-units="px"
     showgrid="false"
     inkscape:zoom="37.545455"
     inkscape:cx="11"
     inkscape:cy="11"
     inkscape:window-width="1920"
     inkscape:window-height="1011"
     inkscape:window-x="0"
     inkscape:window-y="0"
     inkscape:window-maximized="1"
     inkscape:current-layer="svg5" />
  <defs
     id="defs2">
    <linearGradient
       inkscape:collect="always"
       xlink:href="#linearGradient22024"
       id="linearGradient10386"
       x1="12"
       y1="23"
       x2="12"
       y2="1"
       gradientUnits="userSpaceOnUse"
       gradientTransform="translate(-1,-1)" />
    <linearGradient
       inkscape:collect="always"
       id="linearGradient22024">
      <stop
         style="stop-color:#dedede;stop-opacity:1;"
         offset="0"
         id="stop22020" />
      <stop
         style="stop-color:#f2f2f2;stop-opacity:1;"
         offset="1"
         id="stop22022" />
    </linearGradient>
  </defs>
  <rect
     style="fill:url(#linearGradient10386);fill-opacity:1;stroke:none"
     id="rect184"
     width="21"
     height="21"
     x="0.5"
     y="0.5"
     ry="3.5" />
  <path
     id="path14174"
     style="color:#000000;display:inline;overflow:visible;visibility:visible;opacity:0.5;fill:#ffffff;fill-opacity:1;stroke:none;stroke-width:1;marker:none;enable-background:accumulate"
     d="M 5.5 6 C 4.6690008 6 4 6.6690009 4 7.5 C 4 8.3309992 4.6690008 9 5.5 9 C 6.3309992 9 7 8.3309992 7 7.5 C 7 6.6690009 6.3309992 6 5.5 6 z M 5.5 7 C 5.7761397 7 6 7.2238603 6 7.5 C 6 7.7761397 5.7761397 8 5.5 8 C 5.2238603 8 5 7.7761397 5 7.5 C 5 7.2238603 5.2238603 7 5.5 7 z M 9 7 L 9 8 L 18 8 L 18 7 L 9 7 z M 5.5 11 C 4.6690012 11 4 11.668999 4 12.5 C 4 13.330999 4.6690012 14 5.5 14 C 6.3309992 14 7 13.330999 7 12.5 C 7 11.668999 6.3309992 11 5.5 11 z M 5.5 12 C 5.7761397 12 6 12.22386 6 12.5 C 6 12.77614 5.7761397 13 5.5 13 C 5.2238603 13 5 12.77614 5 12.5 C 5 12.22386 5.2238603 12 5.5 12 z M 9 12 L 9 13 L 18 13 L 18 12 L 9 12 z M 5.5 16 C 4.6690008 16 4 16.669001 4 17.5 C 4 18.330999 4.6690008 19 5.5 19 C 6.3309992 19 7 18.330999 7 17.5 C 7 16.669001 6.3309992 16 5.5 16 z M 5.5 17 C 5.7761397 17 6 17.22386 6 17.5 C 6 17.77614 5.7761397 18 5.5 18 C 5.2238603 18 5 17.77614 5 17.5 C 5 17.22386 5.2238603 17 5.5 17 z M 9 17 L 9 18 L 18 18 L 18 17 L 9 17 z " />
  <path
     id="rect4096"
     style="color:#000000;display:inline;overflow:visible;visibility:visible;fill:#ababab;fill-opacity:1;stroke:none;stroke-width:1;marker:none;enable-background:accumulate"
     d="M 5.5 5 C 4.6690008 5 4 5.6690009 4 6.5 C 4 7.3309992 4.6690008 8 5.5 8 C 6.3309992 8 7 7.3309992 7 6.5 C 7 5.6690009 6.3309992 5 5.5 5 z M 5.5 6 C 5.7761397 6 6 6.2238603 6 6.5 C 6 6.7761397 5.7761397 7 5.5 7 C 5.2238603 7 5 6.7761397 5 6.5 C 5 6.2238603 5.2238603 6 5.5 6 z M 9 6 L 9 7 L 18 7 L 18 6 L 9 6 z M 5.5 10 C 4.6690009 10 4 10.669 4 11.5 C 4 12.330999 4.6690009 13 5.5 13 C 6.3309992 13 7 12.330999 7 11.5 C 7 10.669 6.3309992 10 5.5 10 z M 5.5 11 C 5.7761397 11 6 11.22386 6 11.5 C 6 11.77614 5.7761397 12 5.5 12 C 5.2238603 12 5 11.77614 5 11.5 C 5 11.22386 5.2238603 11 5.5 11 z M 9 11 L 9 12 L 18 12 L 18 11 L 9 11 z M 5.5 15 C 4.6690008 15 4 15.669001 4 16.5 C 4 17.330999 4.6690008 18 5.5 18 C 6.3309992 18 7 17.330999 7 16.5 C 7 15.669001 6.3309992 15 5.5 15 z M 5.5 16 C 5.7761397 16 6 16.22386 6 16.5 C 6 16.77614 5.7761397 17 5.5 17 C 5.2238603 17 5 16.77614 5 16.5 C 5 16.22386 5.2238603 16 5.5 16 z M 9 16 L 9 17 L 18 17 L 18 16 L 9 16 z " />
  <path
     id="rect2630"
     style="opacity:0.3;fill:#ffffff;fill-opacity:1"
     d="m 3.9999999,1 c -1.6619983,0 -3,1.3380017 -3,2.9999997 v 1 c 0,-1.661998 1.3380017,-3 3,-3 H 18 c 1.661998,0 3,1.338002 3,3 v -1 C 21,2.3380017 19.661998,1 18,1 Z" />
  <path
     id="rect398"
     style="opacity:0.3;fill:#ffffff"
     d="m 1,17 v 1 c 0,1.661998 1.3380017,3 3,3 h 14 c 1.661998,0 3,-1.338002 3,-3 v -1 c 0,1.661998 -1.338002,3 -3,3 H 4 C 2.3380017,20 1,18.661998 1,17 Z" />
  <path
     id="rect899"
     style="opacity:0.5;fill:#000000;stroke:none"
     d="M 4,0 C 1.7840022,0 0,1.7840022 0,4 v 14 c 0,2.215998 1.7840022,4 4,4 h 14 c 2.215998,0 4,-1.784002 4,-4 V 4 C 22,1.7840022 20.215998,0 18,0 Z m 0,1 h 14 c 1.661998,0 3,1.3380017 3,3 v 14 c 0,1.661998 -1.338002,3 -3,3 H 4 C 2.3380017,21 1,19.661998 1,18 V 4 C 1,2.3380017 2.3380017,1 4,1 Z" />
</svg>
