<?xml version="1.0" encoding="UTF-8" standalone="no"?>
<!-- Created with Inkscape (http://www.inkscape.org/) -->

<svg
   width="22"
   height="22"
   viewBox="0 0 22 22.000001"
   version="1.1"
   id="svg5"
   sodipodi:docname="deja-dup.svg"
   inkscape:version="1.2.1 (9c6d41e410, 2022-07-14)"
   xmlns:inkscape="http://www.inkscape.org/namespaces/inkscape"
   xmlns:sodipodi="http://sodipodi.sourceforge.net/DTD/sodipodi-0.dtd"
   xmlns:xlink="http://www.w3.org/1999/xlink"
   xmlns="http://www.w3.org/2000/svg"
   xmlns:svg="http://www.w3.org/2000/svg">
  <sodipodi:namedview
     id="namedview7"
     pagecolor="#ffffff"
     bordercolor="#666666"
     borderopacity="1.0"
     inkscape:showpageshadow="2"
     inkscape:pageopacity="0.0"
     inkscape:pagecheckerboard="0"
     inkscape:deskcolor="#d1d1d1"
     inkscape:document-units="px"
     showgrid="false"
     inkscape:zoom="18.659091"
     inkscape:cx="6.8063337"
     inkscape:cy="8.8160779"
     inkscape:window-width="1920"
     inkscape:window-height="1007"
     inkscape:window-x="0"
     inkscape:window-y="0"
     inkscape:window-maximized="1"
     inkscape:current-layer="svg5"
     showguides="false" />
  <defs
     id="defs2">
    <linearGradient
       inkscape:collect="always"
       xlink:href="#4852"
       id="linearGradient10386"
       x1="12"
       y1="23"
       x2="12"
       y2="1"
       gradientUnits="userSpaceOnUse"
       gradientTransform="translate(-1,-1)" />
    <linearGradient
       inkscape:collect="always"
       id="4852">
      <stop
         style="stop-color:#333333;stop-opacity:1"
         offset="0"
         id="stop14555" />
      <stop
         style="stop-color:#666666;stop-opacity:1"
         offset="1"
         id="stop14557" />
    </linearGradient>
  </defs>
  <rect
     style="fill:url(#linearGradient10386);fill-opacity:1;stroke:none"
     id="rect184"
     width="21"
     height="21"
     x="0.5"
     y="0.5"
     ry="3.5" />
  <path
     d="m 11,5 c -3.865978,0 -7,3.1340225 -7,7.000001 0.0011,1.35602 0.39597,2.68254 1.136719,3.818359 L 8,12.000001 H 6 c 0,-2.7614144 2.238587,-5.0000009 5,-5.0000009 2.761411,0 5,2.2385865 5,5.0000009 0,2.761411 -2.238589,5 -5,5 -0.552285,0 -1,0.447715 -1,1 C 10,18.552285 10.447715,19 11,19 14.865977,19 18,15.865978 18,12.000001 18,8.1340225 14.865977,5 11,5 Z"
     style="fill:#000000;stroke-linecap:round;stroke-linejoin:round;opacity:0.2"
     id="path17940" />
  <path
     d="m 11,3.9999999 c -3.865989,0 -7,3.1340108 -7,7.0000011 0,3.865989 3.134011,7 7,7 3.865989,0 7,-3.134011 7,-7 C 18,7.1340107 14.865989,3.9999999 11,3.9999999 Z M 11,6 c 2.76142,0 5,2.2385781 5,5.000001 0,2.76142 -2.23858,5 -5,5 -2.7614212,0 -5,-2.23858 -5,-5 C 6,8.2385781 8.2385788,6 11,6 Z"
     style="fill:#ffffff;stroke-linecap:round;stroke-linejoin:round;opacity:0.5"
     id="path17897" />
  <path
     id="path17480"
     style="fill:#ffffff;stroke-linecap:round;stroke-linejoin:round"
     d="m 11,4 c -3.8659776,0 -7,3.1340224 -7,7 0.00107,1.356021 0.3959697,2.68254 1.1367188,3.818359 L 8,11 H 6 c 0,-2.7614136 2.2385872,-5 5,-5 2.761411,0 5,2.2385864 5,5 0,2.761411 -2.238589,5 -5,5 -0.552285,0 -1,0.447715 -1,1 0,0.552285 0.447715,1 1,1 3.865977,0 7,-3.134023 7,-7 0,-3.8659776 -3.134023,-7 -7,-7 z"
     sodipodi:nodetypes="sccccsssssss" />
  <path
     id="rect2630"
     style="opacity:0.3;fill:#ffffff;fill-opacity:1"
     d="m 3.9999999,1 c -1.6619983,0 -3,1.3380017 -3,2.9999997 v 1 c 0,-1.661998 1.3380017,-3 3,-3 H 18 c 1.661998,0 3,1.338002 3,3 v -1 C 21,2.3380017 19.661998,1 18,1 Z" />
  <path
     id="rect398"
     style="opacity:0.3;fill:#ffffff"
     d="m 1,17 v 1 c 0,1.661998 1.3380017,3 3,3 h 14 c 1.661998,0 3,-1.338002 3,-3 v -1 c 0,1.661998 -1.338002,3 -3,3 H 4 C 2.3380017,20 1,18.661998 1,17 Z" />
  <path
     id="rect899"
     style="opacity:0.5;fill:#000000;stroke:none"
     d="M 4,0 C 1.7840022,0 0,1.7840022 0,4 v 14 c 0,2.215998 1.7840022,4 4,4 h 14 c 2.215998,0 4,-1.784002 4,-4 V 4 C 22,1.7840022 20.215998,0 18,0 Z m 0,1 h 14 c 1.661998,0 3,1.3380017 3,3 v 14 c 0,1.661998 -1.338002,3 -3,3 H 4 C 2.3380017,21 1,19.661998 1,18 V 4 C 1,2.3380017 2.3380017,1 4,1 Z" />
</svg>
