<?xml version="1.0" encoding="UTF-8" standalone="no"?>
<!-- Created with Inkscape (http://www.inkscape.org/) -->

<svg
   width="22"
   height="22"
   viewBox="0 0 22 22.000001"
   version="1.1"
   id="svg5"
   sodipodi:docname="desktop-environment-gnome.svg"
   inkscape:version="1.2.1 (9c6d41e410, 2022-07-14)"
   xmlns:inkscape="http://www.inkscape.org/namespaces/inkscape"
   xmlns:sodipodi="http://sodipodi.sourceforge.net/DTD/sodipodi-0.dtd"
   xmlns:xlink="http://www.w3.org/1999/xlink"
   xmlns="http://www.w3.org/2000/svg"
   xmlns:svg="http://www.w3.org/2000/svg">
  <sodipodi:namedview
     id="namedview7"
     pagecolor="#ffffff"
     bordercolor="#666666"
     borderopacity="1.0"
     inkscape:showpageshadow="2"
     inkscape:pageopacity="0.0"
     inkscape:pagecheckerboard="0"
     inkscape:deskcolor="#d1d1d1"
     inkscape:document-units="px"
     showgrid="false"
     inkscape:zoom="17.333334"
     inkscape:cx="6.5480767"
     inkscape:cy="19.355768"
     inkscape:window-width="1920"
     inkscape:window-height="1007"
     inkscape:window-x="0"
     inkscape:window-y="0"
     inkscape:window-maximized="1"
     inkscape:current-layer="svg5" />
  <defs
     id="defs2">
    <linearGradient
       inkscape:collect="always"
       xlink:href="#linearGradient3030"
       id="linearGradient10386"
       x1="19"
       y1="23"
       x2="5"
       y2="1"
       gradientUnits="userSpaceOnUse"
       gradientTransform="translate(-1,-1)" />
    <linearGradient
       inkscape:collect="always"
       id="linearGradient3030">
      <stop
         style="stop-color:#4a86cf;stop-opacity:1;"
         offset="0"
         id="stop3026" />
      <stop
         style="stop-color:#70b7df;stop-opacity:1;"
         offset="1"
         id="stop3028" />
    </linearGradient>
  </defs>
  <rect
     style="fill:url(#linearGradient10386);fill-opacity:1;stroke:none"
     id="rect184"
     width="21"
     height="21"
     x="0.5"
     y="0.5"
     ry="3.5" />
  <path
     id="path7698"
     style="opacity:0.2;fill:#000000;stroke-width:1.375"
     d="m 15.779297,4 c -2.961747,0 -3.51771,4.5 -1.851563,4.5 1.665908,0 4.81343,-4.5 1.851563,-4.5 z m -4.550781,0.5 c -0.0478,-1.779e-4 -0.09743,0.00232 -0.150391,0.00977 C 9.384081,4.7478982 9.978837,7.9384149 10.880859,7.9980469 11.754337,8.0558134 12.710332,4.5055145 11.228516,4.5 Z m -3.0976566,1 C 8.0930014,5.49811 8.0542314,5.4999466 8.0136719,5.50391 7.9271419,5.51231 7.8334749,5.534649 7.734375,5.572269 6.1484842,6.174231 7.4943844,8.6591963 8.3828125,8.4921875 9.190334,8.3407478 9.304462,5.5584895 8.1308594,5.5 Z m -2.203125,2 C 5.7861387,7.4959 5.6337362,7.5347835 5.4707031,7.6308594 4.167028,8.3995316 5.9087676,10.256737 6.6757812,9.96875 7.3469195,9.716652 6.9189043,7.528465 5.9277344,7.5 Z M 12.009766,9 C 9.67582,8.95869 6.5973177,10.184591 6.0722656,12.644531 5.5036149,15.306612 8.4134822,19 11.449219,19 c 1.493426,0 3.214836,-1.412055 3.537109,-3.199219 0.246134,-1.362812 -3.095347,-0.815826 -2.982422,0.08594 0.09221,0.736708 -0.29428,1.118866 -0.826172,1.130859 C 10.451546,16.929578 10.095537,16.51036 10,15.876953 9.869948,14.213684 15.108248,13.02827 14.693359,10.449219 14.541614,9.505934 13.410132,9.024785 12.009766,9 Z" />
  <path
     id="path7665"
     style="fill:#ffffff;stroke-width:1.375"
     d="m 15.779297,3 c -2.961747,0 -3.51771,4.5 -1.851563,4.5 1.665908,0 4.81343,-4.5 1.851563,-4.5 z m -4.550781,0.5 c -0.0478,-1.779e-4 -0.09743,0.00232 -0.150391,0.00977 C 9.384081,3.7479027 9.978837,6.938419 10.880859,6.9980513 11.754337,7.0558163 12.710332,3.5055147 11.228516,3.5 Z m -3.0976566,1 C 8.0930014,4.49811 8.0542314,4.4999466 8.0136719,4.50391 7.9271459,4.51235 7.8334749,4.534655 7.734375,4.572269 6.1484846,5.1742316 7.4943843,7.6591961 8.3828125,7.4921875 9.190335,7.3407476 9.304463,4.5584887 8.1308594,4.5 Z m -2.203125,2 C 5.7861387,6.49595 5.6337362,6.5347889 5.4707031,6.6308594 4.167028,7.399532 5.9087676,9.256736 6.6757812,8.96875 7.3469194,8.7166523 6.9189047,6.5284649 5.9277344,6.5 Z M 12.009766,8 C 9.67582,7.958692 6.5973177,9.184591 6.0722656,11.644531 5.5036149,14.306611 8.4134815,18 11.449219,18 c 1.493426,0 3.214836,-1.412056 3.537109,-3.199219 0.246134,-1.362812 -3.095347,-0.815826 -2.982422,0.08594 0.09221,0.736707 -0.29428,1.118866 -0.826172,1.130859 C 10.451546,15.929578 10.095537,15.51036 10,14.876953 9.869948,13.213684 15.108248,12.028269 14.693359,9.449219 14.541614,8.5059332 13.410132,8.0247854 12.009766,8 Z" />
  <path
     id="rect2630"
     style="opacity:0.3;fill:#ffffff;fill-opacity:1"
     d="m 3.9999999,1 c -1.6619983,0 -3,1.3380017 -3,2.9999997 v 1 c 0,-1.661998 1.3380017,-3 3,-3 H 18 c 1.661998,0 3,1.338002 3,3 v -1 C 21,2.3380017 19.661998,1 18,1 Z" />
  <path
     id="rect398"
     style="opacity:0.3;fill:#ffffff"
     d="m 1,17 v 1 c 0,1.661998 1.3380017,3 3,3 h 14 c 1.661998,0 3,-1.338002 3,-3 v -1 c 0,1.661998 -1.338002,3 -3,3 H 4 C 2.3380017,20 1,18.661998 1,17 Z" />
  <path
     id="rect899"
     style="opacity:0.5;fill:#000000;stroke:none"
     d="M 4,0 C 1.7840022,0 0,1.7840022 0,4 v 14 c 0,2.215998 1.7840022,4 4,4 h 14 c 2.215998,0 4,-1.784002 4,-4 V 4 C 22,1.7840022 20.215998,0 18,0 Z m 0,1 h 14 c 1.661998,0 3,1.3380017 3,3 v 14 c 0,1.661998 -1.338002,3 -3,3 H 4 C 2.3380017,21 1,19.661998 1,18 V 4 C 1,2.3380017 2.3380017,1 4,1 Z" />
</svg>
