<?xml version="1.0" encoding="UTF-8" standalone="no"?>
<!-- Created with Inkscape (http://www.inkscape.org/) -->

<svg
   width="22"
   height="22"
   viewBox="0 0 22 22.000001"
   version="1.1"
   id="svg5"
   sodipodi:docname="desktop-environment-xfce.svg"
   inkscape:version="1.3.2 (091e20ef0f, 2023-11-25, custom)"
   xmlns:inkscape="http://www.inkscape.org/namespaces/inkscape"
   xmlns:sodipodi="http://sodipodi.sourceforge.net/DTD/sodipodi-0.dtd"
   xmlns:xlink="http://www.w3.org/1999/xlink"
   xmlns="http://www.w3.org/2000/svg"
   xmlns:svg="http://www.w3.org/2000/svg">
  <sodipodi:namedview
     id="namedview7"
     pagecolor="#ffffff"
     bordercolor="#666666"
     borderopacity="1.0"
     inkscape:showpageshadow="2"
     inkscape:pageopacity="0.0"
     inkscape:pagecheckerboard="0"
     inkscape:deskcolor="#d1d1d1"
     inkscape:document-units="px"
     showgrid="false"
     inkscape:zoom="36.727273"
     inkscape:cx="11"
     inkscape:cy="11"
     inkscape:window-width="1920"
     inkscape:window-height="1011"
     inkscape:window-x="0"
     inkscape:window-y="0"
     inkscape:window-maximized="1"
     inkscape:current-layer="svg5" />
  <defs
     id="defs2">
    <linearGradient
       inkscape:collect="always"
       xlink:href="#linearGradient3"
       id="linearGradient10386"
       x1="19"
       y1="23"
       x2="5"
       y2="1"
       gradientUnits="userSpaceOnUse"
       gradientTransform="translate(-1,-1)" />
    <linearGradient
       inkscape:collect="always"
       id="linearGradient3">
      <stop
         style="stop-color:#3c7cbd;stop-opacity:1;"
         offset="0"
         id="stop2" />
      <stop
         style="stop-color:#79a8d7;stop-opacity:1;"
         offset="1"
         id="stop3" />
    </linearGradient>
  </defs>
  <rect
     style="fill:url(#linearGradient10386);fill-opacity:1;stroke:none"
     id="rect184"
     width="21"
     height="21"
     x="0.5"
     y="0.5"
     ry="3.5" />
  <path
     id="path1"
     style="opacity:0.2;fill:#000000"
     d="m 11,5 a 7,7 0 0 0 -7,7 7,7 0 0 0 7,7 7,7 0 0 0 7,-7 7,7 0 0 0 -7,-7 z M 9.9023438,7.4921875 c 0.029044,8.75e-4 0.058369,0.00281 0.089844,0.00781 0.1051295,0.0588 0.6247755,-0.010997 0.7597655,1.4511719 0.0358,0.2461197 0.08707,0.809384 0.101563,1.0585941 0.0281,0.215599 2.369847,0.126809 4.447265,1.486328 0.24228,0.14578 1.229252,1.103864 0.226563,1.933594 -0.41144,0.414389 -3.74231,2.136247 -3.9375,2.273437 -0.0549,1.570238 1.793034,1.885194 -0.589844,1.896484 -3.0928469,0 -5.6015625,-2.506762 -5.6015625,-5.599609 0.1998698,-0.14777 0.8223622,-0.02338 1.1386719,-0.08008 0.4545695,-0.10693 0.6362719,-0.889994 0.6699218,-1.496094 -9.999e-4,-0.26995 -0.1949256,-1.1045026 -0.1972656,-1.2890624 -0.0134,-0.6424393 0.6002477,-0.9263449 0.7734375,-0.890625 0.1808098,0.0462 0.5545857,0.1247922 1.203125,1.7128906 0.1087699,0.2021698 0.098963,0.1168348 0.4082031,0.1464848 -0.3223996,-1.0662193 -0.397701,-2.5618954 0.4238282,-2.6093754 0.02735,-0.0015 0.054941,-0.00283 0.083984,-0.00195 z M 14.777344,8.921875 c 0.0021,-0.00144 0.0031,-7.969e-4 0.0059,0.00195 0.07998,0.087405 0.01502,1.5630339 -0.248047,1.8437499 -0.015,0.0159 -0.09306,-1.4506309 0.234375,-1.8378905 0.0035,-0.004 0.0057,-0.00638 0.0078,-0.00781 z m 1.070312,0.2851562 c 0.0242,0.0419 0.05112,0.08234 0.07422,0.125 -0.15828,0.5085095 -0.867163,1.6813408 -0.882813,1.5878908 -0.0463,-0.42486 0.561744,-1.422581 0.808594,-1.7128908 z m -4.498047,1.8886718 c -0.223139,0 -0.408203,0.190218 -0.408203,0.423828 0,0.23358 0.190853,0.4375 0.414063,0.4375 0.2232,0 0.394531,-0.20392 0.394531,-0.4375 0,-0.23361 -0.177181,-0.423828 -0.400391,-0.423828 z m -0.904297,0.400391 c -0.0991,-0.005 -0.09718,0.769753 0.261719,0.970703 0.37106,0.17471 0.916339,-0.11469 0.824219,-0.125 -0.801049,-0.0889 -0.942043,-0.462589 -1.064453,-0.830078 -0.007,-0.008 -0.01488,-0.01512 -0.02149,-0.01563 z m 2.179688,1.83789 c -0.47163,0.016 -1.556666,0.680864 -1.472656,0.751954 0.12673,0.107209 1.754476,-0.709474 1.560547,-0.751954 -0.0256,-0.005 -0.05649,-7.7e-4 -0.08789,0 z m 0.285156,0.529297 c -0.01243,-6.25e-4 -0.02466,9.07e-4 -0.03711,0.0039 -0.37419,0.0844 -1.097702,0.934759 -1.013672,1.005859 0.12676,0.10721 1.256627,-0.99274 1.085937,-1.005859 -0.01075,-5e-4 -0.02273,-0.0033 -0.03516,-0.0039 z" />
  <path
     id="path2"
     style="opacity:1;fill:#ffffff"
     d="M 11 4 A 7 7 0 0 0 4 11 A 7 7 0 0 0 11 18 A 7 7 0 0 0 18 11 A 7 7 0 0 0 11 4 z M 9.9023438 6.4921875 C 9.9313875 6.4930625 9.9607125 6.495 9.9921875 6.5 C 10.097317 6.5587999 10.616963 6.4890033 10.751953 7.9511719 C 10.787753 8.1972916 10.839026 8.7605559 10.853516 9.0097656 C 10.881616 9.2253654 13.223363 9.1365751 15.300781 10.496094 C 15.543061 10.641874 16.530033 11.599958 15.527344 12.429688 C 15.115904 12.844077 11.785034 14.565935 11.589844 14.703125 C 11.534944 16.273363 13.382878 16.588319 11 16.599609 C 7.9071531 16.599609 5.3984375 14.092847 5.3984375 11 C 5.5983073 10.85223 6.2207997 10.976622 6.5371094 10.919922 C 6.9916789 10.812992 7.1733813 10.029928 7.2070312 9.4238281 C 7.2060313 9.1538784 7.0121056 8.3193254 7.0097656 8.1347656 C 6.9963656 7.4923263 7.6100133 7.2084207 7.7832031 7.2441406 C 7.9640129 7.2903406 8.3377888 7.3689324 8.9863281 8.9570312 C 9.095098 9.159201 9.0852916 9.0738657 9.3945312 9.1035156 C 9.0721316 8.0372963 8.9968302 6.5416206 9.8183594 6.4941406 C 9.8457093 6.4926406 9.8733 6.4913125 9.9023438 6.4921875 z M 14.777344 7.921875 C 14.779419 7.9204375 14.780403 7.9210781 14.783203 7.9238281 C 14.863179 8.0112334 14.798221 9.4868618 14.535156 9.7675781 C 14.520156 9.7834781 14.442092 8.3169471 14.769531 7.9296875 C 14.773031 7.9256875 14.775269 7.9233125 14.777344 7.921875 z M 15.847656 8.2070312 C 15.871856 8.2489312 15.898775 8.2893713 15.921875 8.3320312 C 15.763595 8.8405411 15.054712 10.013372 15.039062 9.9199219 C 14.992763 9.4950623 15.600806 8.4973414 15.847656 8.2070312 z M 11.349609 10.095703 C 11.12647 10.095703 10.941406 10.285921 10.941406 10.519531 C 10.941406 10.753111 11.132259 10.957031 11.355469 10.957031 C 11.578669 10.957031 11.75 10.753111 11.75 10.519531 C 11.75 10.285921 11.572819 10.095703 11.349609 10.095703 z M 10.445312 10.496094 C 10.346213 10.491094 10.348132 11.265847 10.707031 11.466797 C 11.078091 11.641507 11.62337 11.352107 11.53125 11.341797 C 10.730201 11.252897 10.589207 10.879208 10.466797 10.511719 C 10.459797 10.503719 10.451912 10.496594 10.445312 10.496094 z M 12.625 12.333984 C 12.15337 12.349984 11.068334 13.014848 11.152344 13.085938 C 11.279074 13.193147 12.90682 12.376464 12.712891 12.333984 C 12.687291 12.328984 12.6564 12.333214 12.625 12.333984 z M 12.910156 12.863281 C 12.897731 12.862656 12.885497 12.864188 12.873047 12.867188 C 12.498857 12.951587 11.775345 13.801947 11.859375 13.873047 C 11.986135 13.980257 13.116002 12.880307 12.945312 12.867188 C 12.934563 12.866688 12.922581 12.863906 12.910156 12.863281 z " />
  <path
     id="rect2630"
     style="opacity:0.2;fill:#ffffff;fill-opacity:1"
     d="m 3.9999999,1 c -1.6619983,0 -3,1.3380017 -3,2.9999997 v 1 c 0,-1.661998 1.3380017,-3 3,-3 H 18 c 1.661998,0 3,1.338002 3,3 v -1 C 21,2.3380017 19.661998,1 18,1 Z" />
  <path
     id="rect398"
     style="opacity:0.2;fill:#ffffff"
     d="m 1,17 v 1 c 0,1.661998 1.3380017,3 3,3 h 14 c 1.661998,0 3,-1.338002 3,-3 v -1 c 0,1.661998 -1.338002,3 -3,3 H 4 C 2.3380017,20 1,18.661998 1,17 Z" />
  <path
     id="rect899"
     style="opacity:0.5;fill:#000000;stroke:none"
     d="M 4,0 C 1.7840022,0 0,1.7840022 0,4 v 14 c 0,2.215998 1.7840022,4 4,4 h 14 c 2.215998,0 4,-1.784002 4,-4 V 4 C 22,1.7840022 20.215998,0 18,0 Z m 0,1 h 14 c 1.661998,0 3,1.3380017 3,3 v 14 c 0,1.661998 -1.338002,3 -3,3 H 4 C 2.3380017,21 1,19.661998 1,18 V 4 C 1,2.3380017 2.3380017,1 4,1 Z" />
</svg>
