<?xml version="1.0" encoding="UTF-8" standalone="no"?>
<!-- Created with Inkscape (http://www.inkscape.org/) -->

<svg
   width="22"
   height="22"
   viewBox="0 0 22 22.000001"
   version="1.1"
   id="svg5"
   sodipodi:docname="elisa.svg"
   inkscape:version="1.2.1 (9c6d41e410, 2022-07-14)"
   xmlns:inkscape="http://www.inkscape.org/namespaces/inkscape"
   xmlns:sodipodi="http://sodipodi.sourceforge.net/DTD/sodipodi-0.dtd"
   xmlns:xlink="http://www.w3.org/1999/xlink"
   xmlns="http://www.w3.org/2000/svg"
   xmlns:svg="http://www.w3.org/2000/svg">
  <sodipodi:namedview
     id="namedview7"
     pagecolor="#ffffff"
     bordercolor="#666666"
     borderopacity="1.0"
     inkscape:showpageshadow="2"
     inkscape:pageopacity="0.0"
     inkscape:pagecheckerboard="0"
     inkscape:deskcolor="#d1d1d1"
     inkscape:document-units="px"
     showgrid="false"
     inkscape:zoom="25.712974"
     inkscape:cx="8.6143284"
     inkscape:cy="11.764489"
     inkscape:window-width="1920"
     inkscape:window-height="1007"
     inkscape:window-x="0"
     inkscape:window-y="0"
     inkscape:window-maximized="1"
     inkscape:current-layer="svg5" />
  <defs
     id="defs2">
    <linearGradient
       inkscape:collect="always"
       xlink:href="#linearGradient8229"
       id="linearGradient10386"
       x1="19"
       y1="23"
       x2="5"
       y2="1"
       gradientUnits="userSpaceOnUse"
       gradientTransform="translate(-1,-1)" />
    <linearGradient
       inkscape:collect="always"
       id="linearGradient8229">
      <stop
         style="stop-color:#38b8db;stop-opacity:1;"
         offset="0"
         id="stop8225" />
      <stop
         style="stop-color:#76deab;stop-opacity:1;"
         offset="1"
         id="stop8227" />
    </linearGradient>
  </defs>
  <rect
     style="fill:url(#linearGradient10386);fill-opacity:1;stroke:none"
     id="rect184"
     width="21"
     height="21"
     x="0.5"
     y="0.5"
     ry="3.5" />
  <path
     d="m 15.164706,4.65443 c -0.05315,-3.84e-4 -0.108315,0.0048 -0.164594,0.01678 L 8.9995872,6.3988378 c -0.450232,0.09558 -0.818182,0.508731 -0.818182,0.962003 v 1.636364 6.5179372 c -0.34606,-0.147449 -0.765282,-0.186375 -1.196112,-0.111062 -1.1126621,0.196231 -2.0145541,1.088106 -2.0142931,1.991921 2.61e-4,0.903516 0.902,1.476895 2.0142931,1.280806 1.112278,-0.196163 2.014011,-1.087523 2.014294,-1.991122 V 9 L 15.000112,7 v 6.878639 c -0.34606,-0.147449 -0.765282,-0.186375 -1.196111,-0.111062 -1.112662,0.196231 -2.014554,1.088106 -2.014294,1.991921 2.61e-4,0.903516 0.902,1.476895 2.014294,1.280806 1.112277,-0.196163 2.014009,-1.087523 2.014293,-1.991122 V 7.1459068 5.3455699 c 0,-0.3966129 -0.28154,-0.6884479 -0.653588,-0.6911399 z"
     style="opacity:0.2;fill:#000000;stroke-width:1.22727;stroke-linecap:round;stroke-linejoin:round"
     id="path733"
     sodipodi:nodetypes="sccscccsccccccscccss" />
  <path
     id="rect559"
     style="fill:#ffffff;stroke-width:1.22727;stroke-linecap:round;stroke-linejoin:round"
     d="m 15.164706,3.6544305 c -0.05315,-3.85e-4 -0.108315,0.0048 -0.164594,0.01678 L 8.9995872,5.5804538 c -0.450232,0.09558 -0.818182,0.508731 -0.818182,0.962003 v 1.636364 6.5179372 c -0.34606,-0.147449 -0.765282,-0.186375 -1.196112,-0.111062 -1.1126621,0.196231 -2.0145541,1.088106 -2.0142931,1.991921 2.61e-4,0.903516 0.902,1.476895 2.0142931,1.280806 1.112278,-0.196163 2.014011,-1.087523 2.014294,-1.991122 V 8 L 15.000112,6 v 7.060255 c -0.34606,-0.147449 -0.765282,-0.186375 -1.196111,-0.111062 -1.112662,0.196231 -2.014554,1.088106 -2.014294,1.991921 2.61e-4,0.903516 0.902,1.476895 2.014294,1.280806 1.112277,-0.196163 2.014009,-1.087523 2.014293,-1.991122 V 6.3275228 4.3455695 c 0,-0.396613 -0.28154,-0.688447 -0.653588,-0.691139 z"
     sodipodi:nodetypes="sccscccsccccccscccss" />
  <path
     id="rect2630"
     style="opacity:0.3;fill:#ffffff;fill-opacity:1"
     d="m 3.9999999,1 c -1.6619983,0 -3,1.3380017 -3,2.9999997 v 1 c 0,-1.661998 1.3380017,-3 3,-3 H 18 c 1.661998,0 3,1.338002 3,3 v -1 C 21,2.3380017 19.661998,1 18,1 Z" />
  <path
     id="rect398"
     style="opacity:0.3;fill:#ffffff"
     d="m 1,17 v 1 c 0,1.661998 1.3380017,3 3,3 h 14 c 1.661998,0 3,-1.338002 3,-3 v -1 c 0,1.661998 -1.338002,3 -3,3 H 4 C 2.3380017,20 1,18.661998 1,17 Z" />
  <path
     id="rect899"
     style="opacity:0.5;fill:#000000;stroke:none"
     d="M 4,0 C 1.7840022,0 0,1.7840022 0,4 v 14 c 0,2.215998 1.7840022,4 4,4 h 14 c 2.215998,0 4,-1.784002 4,-4 V 4 C 22,1.7840022 20.215998,0 18,0 Z m 0,1 h 14 c 1.661998,0 3,1.3380017 3,3 v 14 c 0,1.661998 -1.338002,3 -3,3 H 4 C 2.3380017,21 1,19.661998 1,18 V 4 C 1,2.3380017 2.3380017,1 4,1 Z" />
</svg>
