<?xml version="1.0" encoding="UTF-8" standalone="no"?>
<!-- Created with Inkscape (http://www.inkscape.org/) -->

<svg
   width="22"
   height="22"
   viewBox="0 0 22 22.000001"
   version="1.1"
   id="svg5"
   sodipodi:docname="extensions.svg"
   inkscape:version="1.2.1 (9c6d41e410, 2022-07-14)"
   xmlns:inkscape="http://www.inkscape.org/namespaces/inkscape"
   xmlns:sodipodi="http://sodipodi.sourceforge.net/DTD/sodipodi-0.dtd"
   xmlns:xlink="http://www.w3.org/1999/xlink"
   xmlns="http://www.w3.org/2000/svg"
   xmlns:svg="http://www.w3.org/2000/svg">
  <sodipodi:namedview
     id="namedview7"
     pagecolor="#ffffff"
     bordercolor="#666666"
     borderopacity="1.0"
     inkscape:showpageshadow="2"
     inkscape:pageopacity="0.0"
     inkscape:pagecheckerboard="0"
     inkscape:deskcolor="#d1d1d1"
     inkscape:document-units="px"
     showgrid="false"
     inkscape:zoom="33.333333"
     inkscape:cx="9.7650001"
     inkscape:cy="11.025"
     inkscape:window-width="1920"
     inkscape:window-height="1007"
     inkscape:window-x="0"
     inkscape:window-y="0"
     inkscape:window-maximized="1"
     inkscape:current-layer="svg5" />
  <defs
     id="defs2">
    <linearGradient
       inkscape:collect="always"
       xlink:href="#linearGradient1270"
       id="linearGradient10386"
       x1="19"
       y1="23"
       x2="5"
       y2="1"
       gradientUnits="userSpaceOnUse"
       gradientTransform="translate(-1,-1)" />
    <linearGradient
       inkscape:collect="always"
       id="linearGradient1270">
      <stop
         style="stop-color:#80d935;stop-opacity:1;"
         offset="0"
         id="stop1266" />
      <stop
         style="stop-color:#afd65f;stop-opacity:1;"
         offset="1"
         id="stop1268" />
    </linearGradient>
  </defs>
  <rect
     style="fill:url(#linearGradient10386);fill-opacity:1;stroke:none"
     id="rect184"
     width="21"
     height="21"
     x="0.5"
     y="0.5"
     ry="3.5" />
  <path
     d="M 10,4 C 8.8920011,4 8,4.8920011 8,6.0000001 v 1 H 5.8457031 C 4.8229041,7.0000001 4,7.8229342 4,8.8457033 V 11 h 1 c 1.1079978,0 2,0.892002 2,2.000001 0,1.107998 -0.8920022,2 -2,2 H 4 v 2.154297 c 0,1.022799 0.8229341,1.845703 1.8457031,1.845703 H 8 v -1 c 0,-1.107998 0.8920022,-2 2,-2 1.107998,0 2,0.892002 2,2 v 1 h 2.154297 C 15.177095,19.000001 16,18.177067 16,17.154298 v -2.154297 h 1 c 1.107997,0 2,-0.892001 2,-2 C 19,11.892001 18.107997,11 17,11 H 16 V 8.8457033 C 16,7.8229042 15.177067,7.0000001 14.154297,7.0000001 H 12 v -1 C 12,4.8920011 11.107999,4 10,4 Z"
     style="opacity:0.2;fill:#000000;fill-opacity:1"
     id="path3587" />
  <path
     d="M 10,3 C 8.8920011,3 8,3.8920011 8,5 V 6 H 5.8457031 C 4.8229041,6 4,6.8229341 4,7.8457031 V 10 h 1 c 1.1079978,0 2,0.892002 2,2 0,1.107998 -0.8920022,2 -2,2 H 4 v 2.154297 C 4,17.177096 4.8229341,18 5.8457031,18 H 8 v -1 c 0,-1.107998 0.8920022,-2 2,-2 1.107998,0 2,0.892002 2,2 v 1 h 2.154297 C 15.177096,18 16,17.177066 16,16.154297 V 14 h 1 c 1.107998,0 2,-0.892001 2,-2 0,-1.107999 -0.892002,-2 -2,-2 H 16 V 7.8457031 C 16,6.8229041 15.177067,6 14.154297,6 H 12 V 5 C 12,3.8920011 11.107999,3 10,3 Z"
     style="fill:#ffffff;fill-opacity:1"
     id="path3401"
     sodipodi:nodetypes="sscsscssscsscssscsscssscsscss" />
  <path
     id="rect2630"
     style="opacity:0.3;fill:#ffffff;fill-opacity:1"
     d="m 3.9999999,1 c -1.6619983,0 -3,1.3380017 -3,2.9999997 v 1 c 0,-1.661998 1.3380017,-3 3,-3 H 18 c 1.661998,0 3,1.338002 3,3 v -1 C 21,2.3380017 19.661998,1 18,1 Z" />
  <path
     id="rect398"
     style="opacity:0.3;fill:#ffffff"
     d="m 1,17 v 1 c 0,1.661998 1.3380017,3 3,3 h 14 c 1.661998,0 3,-1.338002 3,-3 v -1 c 0,1.661998 -1.338002,3 -3,3 H 4 C 2.3380017,20 1,18.661998 1,17 Z" />
  <path
     id="rect899"
     style="opacity:0.5;fill:#000000;stroke:none"
     d="M 4,0 C 1.7840022,0 0,1.7840022 0,4 v 14 c 0,2.215998 1.7840022,4 4,4 h 14 c 2.215998,0 4,-1.784002 4,-4 V 4 C 22,1.7840022 20.215998,0 18,0 Z m 0,1 h 14 c 1.661998,0 3,1.3380017 3,3 v 14 c 0,1.661998 -1.338002,3 -3,3 H 4 C 2.3380017,21 1,19.661998 1,18 V 4 C 1,2.3380017 2.3380017,1 4,1 Z" />
</svg>
