<?xml version="1.0" encoding="UTF-8" standalone="no"?>
<!-- Created with Inkscape (http://www.inkscape.org/) -->

<svg
   width="22"
   height="22"
   viewBox="0 0 22 22.000001"
   version="1.1"
   id="svg5"
   sodipodi:docname="fbmessenger.svg"
   inkscape:version="1.2.1 (9c6d41e410, 2022-07-14)"
   xmlns:inkscape="http://www.inkscape.org/namespaces/inkscape"
   xmlns:sodipodi="http://sodipodi.sourceforge.net/DTD/sodipodi-0.dtd"
   xmlns:xlink="http://www.w3.org/1999/xlink"
   xmlns="http://www.w3.org/2000/svg"
   xmlns:svg="http://www.w3.org/2000/svg">
  <sodipodi:namedview
     id="namedview7"
     pagecolor="#ffffff"
     bordercolor="#666666"
     borderopacity="1.0"
     inkscape:showpageshadow="2"
     inkscape:pageopacity="0.0"
     inkscape:pagecheckerboard="0"
     inkscape:deskcolor="#d1d1d1"
     inkscape:document-units="px"
     showgrid="false"
     inkscape:zoom="33.125"
     inkscape:cx="9.7056604"
     inkscape:cy="11.003774"
     inkscape:window-width="1920"
     inkscape:window-height="1007"
     inkscape:window-x="0"
     inkscape:window-y="0"
     inkscape:window-maximized="1"
     inkscape:current-layer="svg5" />
  <defs
     id="defs2">
    <radialGradient
       inkscape:collect="always"
       xlink:href="#linearGradient982"
       id="radialGradient1977"
       cx="29.445274"
       cy="36.813942"
       fx="29.445274"
       fy="36.813942"
       r="20"
       gradientTransform="matrix(5.3667477e-8,0.75243322,-0.73503101,8.7456593e-8,33.98666,-4.145623)"
       gradientUnits="userSpaceOnUse" />
    <linearGradient
       inkscape:collect="always"
       id="linearGradient982">
      <stop
         style="stop-color:#0099ff;stop-opacity:1;"
         offset="0"
         id="stop978" />
      <stop
         style="stop-color:#a033ff;stop-opacity:1;"
         offset="0.60000002"
         id="stop986" />
      <stop
         style="stop-color:#ff5280;stop-opacity:1;"
         offset="0.93000001"
         id="stop988" />
      <stop
         style="stop-color:#ff7061;stop-opacity:1;"
         offset="1"
         id="stop980" />
    </linearGradient>
  </defs>
  <rect
     style="fill:#fafafa;fill-opacity:1;stroke:none"
     id="rect184"
     width="21"
     height="21"
     x="0.5"
     y="0.5"
     ry="3.5" />
  <path
     d="m 11,4.0000003 c -3.94275,0 -7,2.8889938 -7,6.7893977 0,2.040319 0.8365,3.804163 2.198,5.022054 0.11375,0.101492 0.18375,0.244979 0.18725,0.398965 l 0.0385,1.24589 C 6.436,17.853522 6.8455,18.112498 7.2095,17.951512 L 8.599,17.339067 c 0.11725,-0.05249 0.25025,-0.06124 0.3745,-0.028 0.63875,0.174985 1.31775,0.269476 2.0265,0.269476 3.94275,0 7,-2.888994 7,-6.789397 0,-3.9004019 -3.05725,-6.7911457 -7,-6.7911457 z"
     style="fill:url(#radialGradient1977);fill-opacity:1;stroke-width:0.0174992"
     id="path1218" />
  <path
     d="M 7.0509397,12.552527 8.9825103,9.701004 C 9.289918,9.246659 9.947475,9.134984 10.409407,9.456239 l 1.537037,1.072381 c 0.141375,0.09791 0.335354,0.09791 0.475084,-0.0014 l 2.07459,-1.465535 c 0.276173,-0.1958126 0.637829,0.113204 0.453713,0.387036 l -1.933214,2.849992 C 12.70921,12.753061 12.051654,12.864734 11.58972,12.54348 L 10.052683,11.47107 C 9.911308,11.37316 9.71733,11.37316 9.577599,11.47257 L 7.5030093,12.938096 C 7.2268359,13.133908 6.8651797,12.826422 7.0509397,12.552589 Z"
     style="fill:#ffffff;stroke-width:0.0158582"
     id="path11549" />
  <path
     id="rect2630"
     style="opacity:0.3;fill:#ffffff;fill-opacity:1"
     d="m 3.9999999,1 c -1.6619983,0 -3,1.3380017 -3,2.9999997 v 1 c 0,-1.661998 1.3380017,-3 3,-3 H 18 c 1.661998,0 3,1.338002 3,3 v -1 C 21,2.3380017 19.661998,1 18,1 Z" />
  <path
     id="rect398"
     style="opacity:0.3;fill:#ffffff"
     d="m 1,17 v 1 c 0,1.661998 1.3380017,3 3,3 h 14 c 1.661998,0 3,-1.338002 3,-3 v -1 c 0,1.661998 -1.338002,3 -3,3 H 4 C 2.3380017,20 1,18.661998 1,17 Z" />
  <path
     id="rect899"
     style="opacity:0.5;fill:#000000;stroke:none"
     d="M 4,0 C 1.7840022,0 0,1.7840022 0,4 v 14 c 0,2.215998 1.7840022,4 4,4 h 14 c 2.215998,0 4,-1.784002 4,-4 V 4 C 22,1.7840022 20.215998,0 18,0 Z m 0,1 h 14 c 1.661998,0 3,1.3380017 3,3 v 14 c 0,1.661998 -1.338002,3 -3,3 H 4 C 2.3380017,21 1,19.661998 1,18 V 4 C 1,2.3380017 2.3380017,1 4,1 Z" />
</svg>
