<?xml version="1.0" encoding="UTF-8" standalone="no"?>
<!-- Created with Inkscape (http://www.inkscape.org/) -->

<svg
   width="22"
   height="22"
   viewBox="0 0 22 22.000001"
   version="1.1"
   id="svg5"
   sodipodi:docname="gnome-mines.svg"
   inkscape:version="1.2.1 (9c6d41e410, 2022-07-14)"
   xmlns:inkscape="http://www.inkscape.org/namespaces/inkscape"
   xmlns:sodipodi="http://sodipodi.sourceforge.net/DTD/sodipodi-0.dtd"
   xmlns:xlink="http://www.w3.org/1999/xlink"
   xmlns="http://www.w3.org/2000/svg"
   xmlns:svg="http://www.w3.org/2000/svg">
  <sodipodi:namedview
     id="namedview7"
     pagecolor="#ffffff"
     bordercolor="#666666"
     borderopacity="1.0"
     inkscape:showpageshadow="2"
     inkscape:pageopacity="0.0"
     inkscape:pagecheckerboard="0"
     inkscape:deskcolor="#d1d1d1"
     inkscape:document-units="px"
     showgrid="false"
     inkscape:zoom="36"
     inkscape:cx="9.8194444"
     inkscape:cy="11.013889"
     inkscape:window-width="1920"
     inkscape:window-height="1007"
     inkscape:window-x="0"
     inkscape:window-y="0"
     inkscape:window-maximized="1"
     inkscape:current-layer="svg5" />
  <defs
     id="defs2">
    <linearGradient
       inkscape:collect="always"
       xlink:href="#linearGradient3585"
       id="linearGradient10386"
       x1="19"
       y1="23"
       x2="5"
       y2="1"
       gradientUnits="userSpaceOnUse"
       gradientTransform="translate(-1,-1)" />
    <linearGradient
       inkscape:collect="always"
       id="linearGradient3585">
      <stop
         style="stop-color:#adb2b9;stop-opacity:1;"
         offset="0"
         id="stop3581" />
      <stop
         style="stop-color:#e6e6e6;stop-opacity:1"
         offset="1"
         id="stop3583" />
    </linearGradient>
  </defs>
  <rect
     style="fill:url(#linearGradient10386);fill-opacity:1;stroke:none"
     id="rect184"
     width="21"
     height="21"
     x="0.5"
     y="0.5"
     ry="3.5" />
  <path
     d="m 10.968745,4 c -0.56912,0 -0.9319,0.41811 -0.96874,0.96875 v 1 0.1250001 c 0.0521,0.50392 0.4829,0.90626 1,0.90626 0.12928,0 0.26142,-0.0169 0.375,-0.0625 0.34175,-0.13678 0.58591,-0.46581 0.625,-0.84375 V 5.96876 5.00001 C 12.000005,4.44813 11.537875,4 10.968745,4 Z m -1.9375,2.3437601 c -0.6585802,0.23314 -1.2783702,0.60022 -1.8125002,1.03125 0.23112,0.16706 0.42497,0.36936 0.56249,0.625 0.004,0.007 -0.004,0.0239 0,0.0312 0.0623,0.12037 0.12162,0.241 0.15626,0.3750001 0.003,0.01 -0.002,0.0216 0,0.0312 0.0326,0.13504 0.0625,0.29248 0.0625,0.4375 0,0.1272798 -0.007,0.2549798 -0.0312,0.3749998 -0.0241,0.12002 -0.0791,0.23346 -0.125,0.34375 -0.27516,0.66175 -0.90548,1.125 -1.65626,1.125 -0.35885,0 -0.65601,-0.0982 -0.9375,-0.28125 -0.0403,0.11408 -0.10001,0.22149 -0.12501,0.34375 -0.002,0.009 0.002,0.0219 0,0.0312 -0.037,0.18561 -0.0743,0.37115 -0.0937,0.56251 -8e-4,0.0108 8e-4,0.0204 0,0.0312 -0.0186,0.19192 -0.0313,0.39697 -0.0313,0.59376 0,0.0103 -5e-5,0.0209 0,0.0312 -5e-5,0.0103 0,0.0209 0,0.0312 0.002,0.186 0.0128,0.38092 0.0312,0.56249 0.002,0.0208 -0.002,0.0417 0,0.0625 0.0202,0.18045 0.0579,0.35601 0.0937,0.53125 0.0333,0.17289 0.0761,0.33381 0.12501,0.5 0.37098,-0.21511 0.79417,-0.29868 1.0625,-0.3125 0.36227,-0.0186 0.70042,0.0872 0.96875,0.28126 0.26833,0.19409 0.46966,0.45035 0.59375,0.78125 0.0414,0.10918 0.0721,0.22452 0.0937,0.34375 0.025,0.12857 0.0312,0.23843 0.0312,0.375 0,0.50655 -0.41487,1.17351 -0.71875,1.5 0.12312,0.0962 0.24313,0.19308 0.375,0.28125 0.15756,0.10535 0.30107,0.22204 0.46875,0.31251 0.23805,0.1293 0.49389,0.24709 0.75001,0.34374 0.0489,0.0183 0.1032,0.0226 0.1562402,0.0312 -0.0141,-0.0688 -0.0312,-0.14701 -0.0312,-0.21874 0,-0.79472 0.89544,-1.43751 2.00001,-1.43751 1.10457,0 2,0.64279 2,1.43751 0,0.0717 -0.0172,0.14996 -0.0312,0.21874 0.30067,-0.10342 0.59888,-0.22666 0.875,-0.375 0.21316,-0.11254 0.39696,-0.23858 0.59376,-0.375 0.061,-0.0429 0.1282,-0.0799 0.18749,-0.125 0.0468,-0.0352 0.0796,-0.0875 0.125,-0.125 -0.14237,-0.11092 -0.25033,-0.22403 -0.34374,-0.34375 -0.18963,-0.2371 -0.30042,-0.49522 -0.34375,-0.75 -0.0222,-0.12758 -0.0312,-0.24836 -0.0312,-0.375 0,-0.24256 0.0553,-0.48134 0.125,-0.6875 0.003,-0.009 -0.003,-0.0222 0,-0.0312 0.0379,-0.10666 0.0703,-0.18709 0.125,-0.28125 0.0556,-0.0933 0.11636,-0.17099 0.18749,-0.25 0.0743,-0.0874 0.15935,-0.14968 0.25,-0.21876 0.16836,-0.12827 0.34648,-0.22641 0.56251,-0.28124 0.10801,-0.0274 0.22593,-0.056 0.34375,-0.0625 0.28125,-0.0156 0.75402,0.0974 1.125,0.3125 0.0452,-0.15684 0.0937,-0.30597 0.125,-0.46875 0.0359,-0.17524 0.0735,-0.35081 0.0937,-0.53125 0.002,-0.0208 -0.002,-0.0417 0,-0.0625 0.0184,-0.18158 0.0294,-0.3765 0.0312,-0.5625 0,-0.228881 -0.005,-0.466091 -0.0312,-0.687511 -0.0194,-0.19134 -0.0568,-0.37689 -0.0937,-0.56249 -0.002,-0.009 0.002,-0.0219 0,-0.0312 -0.0271,-0.13223 -0.0812,-0.25163 -0.125,-0.375 -0.28149,0.18313 -0.57865,0.28125 -0.9375,0.28125 -0.50052,0 -0.95325,-0.1976 -1.28125,-0.53126 -0.082,-0.0834 -0.15361,-0.18316 -0.21876,-0.28125 -0.19537,-0.29426 -0.31244,-0.6494 -0.31244,-1.0312498 0,-0.31038 0.0867,-0.5964001 0.21875,-0.8437501 0.0661,-0.12481 0.12769,-0.23753 0.21874,-0.34375 0.0928,-0.10468 0.19695,-0.19772 0.31251,-0.28125 -0.53427,-0.43251 -1.12187,-0.80164 -1.78125,-1.03125 0.014,0.0688 0.0312,0.14705 0.0312,0.21875 0,0.79471 -0.89544,1.4375 -2.00001,1.4375 -0.69036,0 -1.29684,-0.24266 -1.65626,-0.625 -0.0719,-0.0765 -0.13689,-0.16399 -0.18749,-0.25 -0.10116,-0.17202 -0.1562,-0.36382 -0.1562,-0.5625 0,-0.0717 0.0171,-0.14995 0.0312,-0.21875 z m -4.3437602,0.6875 c -0.24763,0.0619 -0.47499,0.22694 -0.625,0.46875 -0.30004,0.48362 -0.15645,1.1153201 0.31251,1.4062501 l 0.8125,0.4999998 0.3125,0.1875 c 0.1266,0.0462 0.26354,0.0937 0.40624,0.0937 0.15318,0 0.30624,-0.0409 0.43751,-0.0937 0.13125,-0.0529 0.24532,-0.1249 0.34375,-0.21875 0.19685,-0.1877 0.3125,-0.4382998 0.3125,-0.7187498 0,-0.2953101 -0.12808,-0.5997801 -0.34376,-0.7812501 l -0.375,-0.21875 -0.84374,-0.5 c -0.23448,-0.14548 -0.50238,-0.18686 -0.75001,-0.125 z m 12.2500302,0 c -0.12746,0.0192 -0.25776,0.0523 -0.375,0.125 l -0.84376,0.5 -0.375,0.21875 c -0.0111,0.009 -0.0206,0.0215 -0.0312,0.0312 -0.21573,0.18147 -0.31254,0.42344 -0.31254,0.7187501 0,0.28045 0.11564,0.5310498 0.31249,0.7187498 0.0984,0.0939 0.21249,0.16589 0.34375,0.21875 0.13126,0.0529 0.28434,0.0937 0.4375,0.0937 0.14272,0 0.27964,-0.0163 0.40626,-0.0625 l 0.3125,-0.1875 0.8125,-0.4999998 c 0.46895,-0.29093 0.61254,-0.9226301 0.3125,-1.4062501 -0.22502,-0.36271 -0.61766,-0.52633 -1,-0.46875 z m -5.93751,2.9687499 c 1.10456,0 2,0.89543 2,2.000011 0,1.10457 -0.89544,2 -2,2 -0.55228,0 -1.04432,-0.23182 -1.40626,-0.59375 -0.0905,-0.0905 -0.17812,-0.17485 -0.25,-0.28125 -0.21565,-0.3192 -0.34374,-0.71079 -0.34374,-1.125 0,-0.138071 0.005,-0.276051 0.0312,-0.406251 0.18653,-0.91138 1.00229,-1.59376 1.9688,-1.59376 z m 0,1 c -0.41512,0 -0.75472,0.26608 -0.90626,0.62501 -0.0506,0.11964 -0.0937,0.23693 -0.0937,0.375001 0,0.55231 0.44652,1 1,1 0.5535,0 1,-0.44769 1,-1 0,-0.552321 -0.4465,-1.000011 -1,-1.000011 z m -5.0937702,3.343761 c -0.2334,0.0254 -0.29464,0.0845 -0.40624,0.125 l -0.21876,0.125 -0.8125,0.5 c -0.46894,0.29093 -0.61254,0.92264 -0.3125,1.40625 0.30002,0.48361 0.9373,0.63472 1.40626,0.34376 l 0.8125,-0.5 0.28124,-0.18751 c 0.13603,-0.14307 0.26259,-0.30301 0.31251,-0.5 0.0187,-0.0631 0.0312,-0.11895 0.0312,-0.1875 0,-0.15445 -0.0329,-0.29188 -0.0937,-0.4375 -0.0516,-0.12933 -0.12845,-0.23976 -0.21874,-0.34375 -0.0977,-0.1089 -0.21342,-0.22396 -0.34375,-0.28125 -0.13035,-0.0573 -0.28531,-0.0791 -0.43751,-0.0625 z m 10.2187802,0.0625 c -0.5868,0 -1.06251,0.48087 -1.06251,1.06251 0,0.27421 0.0767,0.474 0.25,0.65625 l 0.31251,0.21875 0.8125,0.5 c 0.46894,0.29096 1.10622,0.13986 1.40625,-0.34375 0.30004,-0.48362 0.15645,-1.11532 -0.31251,-1.40625 l -0.8125,-0.5 c -0.0715,-0.0421 -0.13904,-0.0884 -0.21874,-0.125 -0.1116,-0.0401 -0.24974,-0.0625 -0.375,-0.0625 z m -5.12501,2.59374 c -0.12928,0 -0.25474,0.0162 -0.375,0.0625 -0.12026,0.0463 -0.24588,0.13599 -0.34376,0.21875 -0.19575,0.16554 -0.31768,0.37304 -0.34375,0.625 v 0.125 0.96876 c 0,0.55187 0.46213,1 1.03125,1 0.56913,0 1.03126,-0.44813 1.03126,-1 v -0.96876 -0.125 c -0.0522,-0.50391 -0.4829,-0.90625 -1,-0.90625 z"
     style="display:inline;opacity:0.2;fill:#000000;fill-opacity:1;stroke:none;enable-background:new"
     id="path12231" />
  <path
     d="m 10.968745,2.99999 c -0.56912,0 -0.9319,0.41811 -0.96874,0.96875 v 1 0.125 c 0.0521,0.50392 0.4829,0.90626 1,0.90626 0.12928,0 0.26142,-0.0169 0.375,-0.0625 0.34175,-0.13678 0.58591,-0.46581 0.625,-0.84375 V 4.96875 4 c 0,-0.55188 -0.46213,-1.00001 -1.03126,-1.00001 z m -1.9375,2.34376 C 8.3726648,5.57689 7.7528748,5.94397 7.2187448,6.375 c 0.23112,0.16706 0.42497,0.36936 0.56249,0.625 0.004,0.007 -0.004,0.0239 0,0.0312 0.0623,0.12037 0.12162,0.241 0.15626,0.375 0.003,0.01 -0.002,0.0216 0,0.0312 0.0326,0.13504 0.0625,0.29248 0.0625,0.4375 0,0.12728 -0.007,0.25498 -0.0312,0.375 -0.0241,0.12002 -0.0791,0.23346 -0.125,0.34375 -0.27516,0.66175 -0.90548,1.125 -1.65626,1.125 -0.35885,0 -0.65601,-0.0982 -0.9375,-0.28125 -0.0403,0.11408 -0.10001,0.22149 -0.12501,0.34375 -0.002,0.009 0.002,0.0219 0,0.0312 -0.037,0.18561 -0.0743,0.37115 -0.0937,0.56251 -8e-4,0.0108 8e-4,0.0204 0,0.0312 -0.0186,0.19192 -0.0313,0.39697 -0.0313,0.59376 0,0.0103 -5e-5,0.0209 0,0.0312 -5e-5,0.0103 0,0.0209 0,0.0312 0.002,0.186 0.0128,0.38092 0.0312,0.56249 0.002,0.0208 -0.002,0.0417 0,0.0625 0.0202,0.18045 0.0579,0.35601 0.0937,0.53125 0.0333,0.17289 0.0761,0.33381 0.12501,0.5 0.37098,-0.21511 0.79417,-0.29868 1.0625,-0.3125 0.36227,-0.0186 0.70042,0.0872 0.96875,0.28126 0.26833,0.19409 0.46966,0.45035 0.59375,0.78125 0.0414,0.10918 0.0721,0.22452 0.0937,0.34375 0.025,0.12857 0.0312,0.23843 0.0312,0.375 0,0.50655 -0.41487,1.17351 -0.71875,1.5 0.12312,0.0962 0.24313,0.19308 0.375,0.28125 0.15756,0.10535 0.30107,0.22204 0.46875,0.31251 0.23805,0.1293 0.49389,0.24709 0.75001,0.34374 0.0489,0.0183 0.1032,0.0226 0.1562402,0.0312 -0.0141,-0.0688 -0.0312,-0.14701 -0.0312,-0.21874 0,-0.79472 0.89544,-1.43751 2.00001,-1.43751 1.10457,0 2,0.64279 2,1.43751 0,0.0717 -0.0172,0.14996 -0.0312,0.21874 0.30067,-0.10342 0.59888,-0.22666 0.875,-0.375 0.21316,-0.11254 0.39696,-0.23858 0.59376,-0.375 0.061,-0.0429 0.1282,-0.0799 0.18749,-0.125 0.0468,-0.0352 0.0796,-0.0875 0.125,-0.125 -0.14237,-0.11092 -0.25033,-0.22403 -0.34374,-0.34375 -0.18963,-0.2371 -0.30042,-0.49522 -0.34375,-0.75 -0.0222,-0.12758 -0.0312,-0.24836 -0.0312,-0.375 0,-0.24256 0.0553,-0.48134 0.125,-0.6875 0.003,-0.009 -0.003,-0.0222 0,-0.0312 0.0379,-0.10666 0.0703,-0.18709 0.125,-0.28125 0.0556,-0.0933 0.11636,-0.17099 0.18749,-0.25 0.0743,-0.0874 0.15935,-0.14968 0.25,-0.21876 0.16836,-0.12827 0.34648,-0.22641 0.56251,-0.28124 0.10801,-0.0274 0.22593,-0.056 0.34375,-0.0625 0.28125,-0.0156 0.75402,0.0974 1.125,0.3125 0.0452,-0.15684 0.0937,-0.30597 0.125,-0.46875 0.0359,-0.17524 0.0735,-0.35081 0.0937,-0.53125 0.002,-0.0208 -0.002,-0.0417 0,-0.0625 0.0184,-0.18158 0.0294,-0.3765 0.0312,-0.5625 0,-0.22888 -0.005,-0.46609 -0.0312,-0.68751 -0.0194,-0.19134 -0.0568,-0.37689 -0.0937,-0.56249 -0.002,-0.009 0.002,-0.0219 0,-0.0312 -0.0271,-0.13223 -0.0812,-0.25163 -0.125,-0.375 -0.28149,0.18313 -0.57865,0.28125 -0.9375,0.28125 -0.50052,0 -0.95325,-0.1976 -1.28125,-0.53126 -0.082,-0.0834 -0.15361,-0.18316 -0.21876,-0.28125 -0.19537,-0.29426 -0.31244,-0.6494 -0.31244,-1.03125 0,-0.31038 0.0867,-0.5964 0.21875,-0.84375 0.0661,-0.12481 0.12769,-0.23753 0.21874,-0.34375 0.0928,-0.10468 0.19695,-0.19772 0.31251,-0.28125 -0.53427,-0.43251 -1.12187,-0.80164 -1.78125,-1.03125 0.014,0.0688 0.0312,0.14705 0.0312,0.21875 0,0.79471 -0.89544,1.4375 -2.00001,1.4375 -0.69036,0 -1.29684,-0.24266 -1.65626,-0.625 -0.0719,-0.0765 -0.13689,-0.16399 -0.18749,-0.25 -0.10116,-0.17202 -0.1562,-0.36382 -0.1562,-0.5625 0,-0.0717 0.0171,-0.14995 0.0312,-0.21875 z m -4.3437602,0.6875 c -0.24763,0.0619 -0.47499,0.22694 -0.625,0.46875 -0.30004,0.48362 -0.15645,1.11532 0.31251,1.40625 l 0.8125,0.5 0.3125,0.1875 c 0.1266,0.0462 0.26354,0.0937 0.40624,0.0937 0.15318,0 0.30624,-0.0409 0.43751,-0.0937 0.13125,-0.0529 0.24532,-0.1249 0.34375,-0.21875 0.19685,-0.1877 0.3125,-0.4383 0.3125,-0.71875 0,-0.29531 -0.12808,-0.59978 -0.34376,-0.78125 l -0.375,-0.21875 -0.84374,-0.5 c -0.23448,-0.14548 -0.50238,-0.18686 -0.75001,-0.125 z m 12.2500302,0 c -0.12746,0.0192 -0.25776,0.0523 -0.375,0.125 l -0.84376,0.5 -0.375,0.21875 c -0.0111,0.009 -0.0206,0.0215 -0.0312,0.0312 -0.21573,0.18147 -0.31254,0.42344 -0.31254,0.71875 0,0.28045 0.11564,0.53105 0.31249,0.71875 0.0984,0.0939 0.21249,0.16589 0.34375,0.21875 0.13126,0.0529 0.28434,0.0937 0.4375,0.0937 0.14272,0 0.27964,-0.0163 0.40626,-0.0625 l 0.3125,-0.1875 0.8125,-0.5 c 0.46895,-0.29093 0.61254,-0.92263 0.3125,-1.40625 -0.22502,-0.36271 -0.61766,-0.52633 -1,-0.46875 z M 11.000005,9 c 1.10456,0 2,0.89543 2,2.00001 0,1.10457 -0.89544,2 -2,2 -0.55228,0 -1.04432,-0.23182 -1.40626,-0.59375 -0.0905,-0.0905 -0.17812,-0.17485 -0.25,-0.28125 -0.21565,-0.3192 -0.34374,-0.71079 -0.34374,-1.125 0,-0.13807 0.005,-0.27605 0.0312,-0.40625 C 9.217735,9.68238 10.033495,9 11.000005,9 Z m 0,1 c -0.41512,0 -0.75472,0.26608 -0.90626,0.62501 -0.0506,0.11964 -0.0937,0.23693 -0.0937,0.375 0,0.55231 0.44652,1 1,1 0.5535,0 1,-0.44769 1,-1 0,-0.55232 -0.4465,-1.00001 -1,-1.00001 z m -5.0937702,3.34376 c -0.2334,0.0254 -0.29464,0.0845 -0.40624,0.125 l -0.21876,0.125 -0.8125,0.5 c -0.46894,0.29093 -0.61254,0.92264 -0.3125,1.40625 0.30002,0.48361 0.9373,0.63472 1.40626,0.34376 l 0.8125,-0.5 0.28124,-0.18751 c 0.13603,-0.14307 0.26259,-0.30301 0.31251,-0.5 0.0187,-0.0631 0.0312,-0.11895 0.0312,-0.1875 0,-0.15445 -0.0329,-0.29188 -0.0937,-0.4375 -0.0516,-0.12933 -0.12845,-0.23976 -0.21874,-0.34375 -0.0977,-0.1089 -0.21342,-0.22396 -0.34375,-0.28125 -0.13035,-0.0573 -0.28531,-0.0791 -0.43751,-0.0625 z m 10.2187802,0.0625 c -0.5868,0 -1.06251,0.48087 -1.06251,1.06251 0,0.27421 0.0767,0.474 0.25,0.65625 l 0.31251,0.21875 0.8125,0.5 c 0.46894,0.29096 1.10622,0.13986 1.40625,-0.34375 0.30004,-0.48362 0.15645,-1.11532 -0.31251,-1.40625 l -0.8125,-0.5 c -0.0715,-0.0421 -0.13904,-0.0884 -0.21874,-0.125 -0.1116,-0.0401 -0.24974,-0.0625 -0.375,-0.0625 z M 11.000005,16 c -0.12928,0 -0.25474,0.0162 -0.375,0.0625 -0.12026,0.0463 -0.24588,0.13599 -0.34376,0.21875 -0.19575,0.16554 -0.31768,0.37304 -0.34375,0.625 v 0.125 0.96876 c 0,0.55187 0.46213,1 1.03125,1 0.56913,0 1.03126,-0.44813 1.03126,-1 v -0.96876 -0.125 C 11.947805,16.40234 11.517105,16 11.000005,16 Z"
     style="display:inline;fill:#3d3d3d;fill-opacity:1;stroke:none;enable-background:new"
     id="path10227"
     sodipodi:nodetypes="scccscccssccccccsccscccccsccccccccccscscccssscccccccsccccccccccccccccsccsccccssccscccccccsccscccccccccsccsccccccsssscscsscssssssccccccccsccssscscccscccccsscccsssccs" />
  <path
     id="rect2630"
     style="opacity:0.3;fill:#ffffff;fill-opacity:1"
     d="m 3.9999999,1 c -1.6619983,0 -3,1.3380017 -3,2.9999997 v 1 c 0,-1.661998 1.3380017,-3 3,-3 H 18 c 1.661998,0 3,1.338002 3,3 v -1 C 21,2.3380017 19.661998,1 18,1 Z" />
  <path
     id="rect398"
     style="opacity:0.3;fill:#ffffff"
     d="m 1,17 v 1 c 0,1.661998 1.3380017,3 3,3 h 14 c 1.661998,0 3,-1.338002 3,-3 v -1 c 0,1.661998 -1.338002,3 -3,3 H 4 C 2.3380017,20 1,18.661998 1,17 Z" />
  <path
     id="rect899"
     style="opacity:0.5;fill:#000000;stroke:none"
     d="M 4,0 C 1.7840022,0 0,1.7840022 0,4 v 14 c 0,2.215998 1.7840022,4 4,4 h 14 c 2.215998,0 4,-1.784002 4,-4 V 4 C 22,1.7840022 20.215998,0 18,0 Z m 0,1 h 14 c 1.661998,0 3,1.3380017 3,3 v 14 c 0,1.661998 -1.338002,3 -3,3 H 4 C 2.3380017,21 1,19.661998 1,18 V 4 C 1,2.3380017 2.3380017,1 4,1 Z" />
</svg>
