<?xml version="1.0" encoding="UTF-8" standalone="no"?>
<!-- Created with Inkscape (http://www.inkscape.org/) -->

<svg
   width="22"
   height="22"
   viewBox="0 0 22 22.000001"
   version="1.1"
   id="svg5"
   sodipodi:docname="gnome-boxes.svg"
   inkscape:version="1.2.1 (9c6d41e410, 2022-07-14)"
   xmlns:inkscape="http://www.inkscape.org/namespaces/inkscape"
   xmlns:sodipodi="http://sodipodi.sourceforge.net/DTD/sodipodi-0.dtd"
   xmlns:xlink="http://www.w3.org/1999/xlink"
   xmlns="http://www.w3.org/2000/svg"
   xmlns:svg="http://www.w3.org/2000/svg">
  <sodipodi:namedview
     id="namedview7"
     pagecolor="#ffffff"
     bordercolor="#666666"
     borderopacity="1.0"
     inkscape:showpageshadow="2"
     inkscape:pageopacity="0.0"
     inkscape:pagecheckerboard="0"
     inkscape:deskcolor="#d1d1d1"
     inkscape:document-units="px"
     showgrid="false"
     inkscape:zoom="24.513036"
     inkscape:cx="2.5088692"
     inkscape:cy="13.19706"
     inkscape:window-width="1920"
     inkscape:window-height="1007"
     inkscape:window-x="0"
     inkscape:window-y="0"
     inkscape:window-maximized="1"
     inkscape:current-layer="svg5" />
  <defs
     id="defs2">
    <linearGradient
       inkscape:collect="always"
       xlink:href="#4852"
       id="linearGradient10386"
       x1="19"
       y1="23"
       x2="5"
       y2="1"
       gradientUnits="userSpaceOnUse"
       gradientTransform="translate(-1,-1)" />
    <linearGradient
       inkscape:collect="always"
       id="4852">
      <stop
         style="stop-color:#333333;stop-opacity:1"
         offset="0"
         id="stop14555" />
      <stop
         style="stop-color:#666666;stop-opacity:1"
         offset="1"
         id="stop14557" />
    </linearGradient>
  </defs>
  <rect
     style="fill:url(#linearGradient10386);fill-opacity:1;stroke:none"
     id="rect184"
     width="21"
     height="21"
     x="0.5"
     y="0.5"
     ry="3.5" />
  <path
     d="M 5.5,5 C 4.67157,5 4,5.67157 4,6.5000001 c 0.002,0.63418 0.40208,1.19876 1,1.41016 v 8.1796809 c -0.59792,0.2114 -0.99829,0.77598 -1,1.41016 0,0.82843 0.67157,1.5 1.5,1.5 0.63419,-0.002 1.19876,-0.40208 1.41016,-1 h 8.17968 c 0.2114,0.59792 0.77597,0.99829 1.41016,1 0.82843,0 1.5,-0.67157 1.5,-1.5 -6e-5,-0.63562 -0.40073,-1.20219 -1,-1.41406 V 7.9101601 c 0.59792,-0.21139 0.99829,-0.77597 1,-1.41016 C 18,5.67157 17.32843,5 16.5,5 15.86582,5.002 15.30124,5.40208 15.08984,6.0000001 H 6.91406 C 6.70219,5.40073 6.13562,5.00006 5.5,5 Z m 1.41016,2.0000001 h 8.17968 c 0.0446,0.12538 0.10569,0.24426 0.18165,0.35352 L 13.53711,9.08789 C 13.37861,8.9930902 13.19509,8.9375002 13,8.9375002 12.50627,8.9375002 12.08127,9.28768 11.9668,9.75 H 10.0332 C 9.91873,9.28768 9.49373,8.9375002 9,8.9375002 c -0.19509,0 -0.37861,0.0556 -0.53711,0.1503898 L 6.72851,7.3535201 c 0.076,-0.10926 0.13705,-0.22814 0.18165,-0.35352 z M 6.35351,7.7285201 8.08789,9.46289 C 7.99309,9.6214 7.9375,9.80491 7.9375,10 c 0,0.49373 0.35018,0.91873 0.8125,1.0332 v 1.933601 c -0.46232,0.11447 -0.8125,0.53948 -0.8125,1.0332 0,0.19509 0.0556,0.3786 0.15039,0.53711 l -1.73242,1.73242 C 6.24571,16.192731 6.12616,16.130991 6,16.085941 V 7.9101601 c 0.12537,-0.0446 0.24426,-0.10568 0.35351,-0.18164 z m 9.29298,0 c 0.10926,0.076 0.22814,0.13704 0.35351,0.18164 v 8.1796809 c -0.12537,0.0446 -0.24425,0.10569 -0.35351,0.18165 l -1.73438,-1.73438 c 0.0948,-0.15851 0.15039,-0.34202 0.15039,-0.53711 0,-0.49372 -0.35018,-0.91873 -0.8125,-1.0332 V 11.0332 c 0.46232,-0.11447 0.8125,-0.53947 0.8125,-1.0332 0,-0.19509 -0.0556,-0.3786 -0.15039,-0.53711 z M 10.0332,10.25 h 1.9336 c 0.0946,0.38218 0.40102,0.68857 0.7832,0.7832 v 1.933601 c -0.38218,0.0946 -0.68857,0.40102 -0.7832,0.7832 H 10.0332 C 9.9386,13.367821 9.63218,13.061431 9.25,12.966801 V 11.0332 C 9.63218,10.9386 9.93857,10.63218 10.0332,10.25 Z m 0,4.000001 h 1.9336 c 0.11447,0.46232 0.53947,0.8125 1.0332,0.8125 0.19509,0 0.37861,-0.0556 0.53711,-0.15039 l 1.73438,1.73438 c -0.076,0.10926 -0.13705,0.22814 -0.18165,0.35351 H 6.91406 c -0.0451,-0.12616 -0.10679,-0.24571 -0.18359,-0.35547 l 1.73242,-1.73242 c 0.1585,0.0948 0.34202,0.15039 0.53711,0.15039 0.49373,0 0.91873,-0.35018 1.0332,-0.8125 z"
     style="color:#000000;display:inline;overflow:visible;visibility:visible;opacity:0.2;fill:#000000;fill-opacity:1;fill-rule:nonzero;stroke:none;stroke-width:0.5;marker:none;enable-background:new"
     id="path1124" />
  <path
     d="M 5.5,4 C 4.67157,4 4,4.67157 4,5.5 4.002,6.13418 4.40208,6.69876 5,6.91016 v 8.17968 C 4.40208,15.30124 4.00171,15.86582 4,16.5 4,17.32843 4.67157,18 5.5,18 6.13419,17.998 6.69876,17.59792 6.91016,17 h 8.17968 c 0.2114,0.59792 0.77597,0.99829 1.41016,1 0.82843,0 1.5,-0.67157 1.5,-1.5 -6e-5,-0.63562 -0.40073,-1.20219 -1,-1.41406 V 6.91016 C 17.59792,6.69877 17.99829,6.13419 18,5.5 18,4.67157 17.32843,4 16.5,4 15.86582,4.002 15.30124,4.40208 15.08984,5 H 6.91406 C 6.70219,4.40073 6.13562,4.00006 5.5,4 Z m 1.41016,2 h 8.17968 c 0.0446,0.12538 0.10569,0.24426 0.18165,0.35352 L 13.53711,8.08789 C 13.37861,7.99309 13.19509,7.9375 13,7.9375 c -0.49373,0 -0.91873,0.35018 -1.0332,0.8125 H 10.0332 C 9.91873,8.28768 9.49373,7.9375 9,7.9375 8.80491,7.9375 8.62139,7.9931 8.46289,8.08789 L 6.72851,6.35352 C 6.80451,6.24426 6.86556,6.12538 6.91016,6 Z M 6.35351,6.72852 8.08789,8.46289 C 7.99309,8.6214 7.9375,8.80491 7.9375,9 c 0,0.49373 0.35018,0.91873 0.8125,1.0332 v 1.9336 C 8.28768,12.08127 7.9375,12.50628 7.9375,13 c 0,0.19509 0.0556,0.3786 0.15039,0.53711 L 6.35547,15.26953 C 6.24571,15.19273 6.12616,15.13099 6,15.08594 V 6.91016 C 6.12537,6.86556 6.24426,6.80448 6.35351,6.72852 Z m 9.29298,0 C 15.75575,6.80452 15.87463,6.86556 16,6.91016 v 8.17968 c -0.12537,0.0446 -0.24425,0.10569 -0.35351,0.18165 L 13.91211,13.53711 C 14.00691,13.3786 14.0625,13.19509 14.0625,13 c 0,-0.49372 -0.35018,-0.91873 -0.8125,-1.0332 V 10.0332 C 13.71232,9.91873 14.0625,9.49373 14.0625,9 c 0,-0.19509 -0.0556,-0.3786 -0.15039,-0.53711 z M 10.0332,9.25 h 1.9336 c 0.0946,0.38218 0.40102,0.68857 0.7832,0.7832 v 1.9336 c -0.38218,0.0946 -0.68857,0.40102 -0.7832,0.7832 H 10.0332 C 9.9386,12.36782 9.63218,12.06143 9.25,11.9668 V 10.0332 C 9.63218,9.9386 9.93857,9.63218 10.0332,9.25 Z m 0,4 h 1.9336 c 0.11447,0.46232 0.53947,0.8125 1.0332,0.8125 0.19509,0 0.37861,-0.0556 0.53711,-0.15039 l 1.73438,1.73438 C 15.19549,15.75575 15.13444,15.87463 15.08984,16 H 6.91406 C 6.86896,15.87384 6.80727,15.75429 6.73047,15.64453 L 8.46289,13.91211 C 8.62139,14.00691 8.80491,14.0625 9,14.0625 c 0.49373,0 0.91873,-0.35018 1.0332,-0.8125 z"
     style="color:#000000;display:inline;overflow:visible;visibility:visible;fill:#ffffff;fill-opacity:1;fill-rule:nonzero;stroke:none;stroke-width:0.5;marker:none;enable-background:new"
     id="path906"
     sodipodi:nodetypes="cccccccccccccccccccccsccscccccsccsccccccccccsccscccccccccccccsccccccsc" />
  <path
     id="rect2630"
     style="opacity:0.3;fill:#ffffff;fill-opacity:1"
     d="m 3.9999999,1 c -1.6619983,0 -3,1.3380017 -3,2.9999997 v 1 c 0,-1.661998 1.3380017,-3 3,-3 H 18 c 1.661998,0 3,1.338002 3,3 v -1 C 21,2.3380017 19.661998,1 18,1 Z" />
  <path
     id="rect398"
     style="opacity:0.3;fill:#ffffff"
     d="m 1,17 v 1 c 0,1.661998 1.3380017,3 3,3 h 14 c 1.661998,0 3,-1.338002 3,-3 v -1 c 0,1.661998 -1.338002,3 -3,3 H 4 C 2.3380017,20 1,18.661998 1,17 Z" />
  <path
     id="rect899"
     style="opacity:0.5;fill:#000000;stroke:none"
     d="M 4,0 C 1.7840022,0 0,1.7840022 0,4 v 14 c 0,2.215998 1.7840022,4 4,4 h 14 c 2.215998,0 4,-1.784002 4,-4 V 4 C 22,1.7840022 20.215998,0 18,0 Z m 0,1 h 14 c 1.661998,0 3,1.3380017 3,3 v 14 c 0,1.661998 -1.338002,3 -3,3 H 4 C 2.3380017,21 1,19.661998 1,18 V 4 C 1,2.3380017 2.3380017,1 4,1 Z" />
</svg>
