<?xml version="1.0" encoding="UTF-8" standalone="no"?>
<!-- Created with Inkscape (http://www.inkscape.org/) -->

<svg
   width="22"
   height="22"
   viewBox="0 0 22 22.000001"
   version="1.1"
   id="svg5"
   sodipodi:docname="gthumb.svg"
   inkscape:version="1.2.1 (9c6d41e410, 2022-07-14)"
   xmlns:inkscape="http://www.inkscape.org/namespaces/inkscape"
   xmlns:sodipodi="http://sodipodi.sourceforge.net/DTD/sodipodi-0.dtd"
   xmlns:xlink="http://www.w3.org/1999/xlink"
   xmlns="http://www.w3.org/2000/svg"
   xmlns:svg="http://www.w3.org/2000/svg">
  <sodipodi:namedview
     id="namedview7"
     pagecolor="#ffffff"
     bordercolor="#666666"
     borderopacity="1.0"
     inkscape:showpageshadow="2"
     inkscape:pageopacity="0.0"
     inkscape:pagecheckerboard="0"
     inkscape:deskcolor="#d1d1d1"
     inkscape:document-units="px"
     showgrid="false"
     inkscape:zoom="16.5"
     inkscape:cx="2.2727273"
     inkscape:cy="12.484848"
     inkscape:window-width="1920"
     inkscape:window-height="1007"
     inkscape:window-x="0"
     inkscape:window-y="0"
     inkscape:window-maximized="1"
     inkscape:current-layer="svg5" />
  <defs
     id="defs2">
    <linearGradient
       inkscape:collect="always"
       id="linearGradient3796">
      <stop
         style="stop-color:#ff7010;stop-opacity:1;"
         offset="0"
         id="stop3792" />
      <stop
         style="stop-color:#ff9a10;stop-opacity:1;"
         offset="1"
         id="stop3794" />
    </linearGradient>
    <linearGradient
       inkscape:collect="always"
       id="linearGradient2287">
      <stop
         style="stop-color:#8e9529;stop-opacity:1;"
         offset="0"
         id="stop2283" />
      <stop
         style="stop-color:#bbc236;stop-opacity:1;"
         offset="1"
         id="stop2285" />
    </linearGradient>
    <linearGradient
       inkscape:collect="always"
       id="linearGradient1555">
      <stop
         style="stop-color:#eac045;stop-opacity:1;"
         offset="0"
         id="stop1551" />
      <stop
         style="stop-color:#a2d2f9;stop-opacity:1;"
         offset="1"
         id="stop1553" />
    </linearGradient>
    <linearGradient
       inkscape:collect="always"
       xlink:href="#linearGradient1555"
       id="linearGradient10386"
       x1="12"
       y1="23"
       x2="12"
       y2="1"
       gradientUnits="userSpaceOnUse"
       gradientTransform="translate(-1,-1)" />
    <linearGradient
       inkscape:collect="always"
       xlink:href="#linearGradient2287"
       id="linearGradient2289"
       x1="20"
       y1="18"
       x2="20"
       y2="5"
       gradientUnits="userSpaceOnUse"
       gradientTransform="translate(-1,-1)" />
    <linearGradient
       inkscape:collect="always"
       xlink:href="#linearGradient3796"
       id="linearGradient3798"
       x1="19"
       y1="18"
       x2="19"
       y2="5"
       gradientUnits="userSpaceOnUse"
       gradientTransform="translate(-1,-1)" />
  </defs>
  <rect
     style="fill:url(#linearGradient10386);fill-opacity:1;stroke:none"
     id="rect184"
     width="21"
     height="21"
     x="0.5"
     y="0.5"
     ry="3.5" />
  <path
     d="M 7.9632074,5.0006136 C 6.0300679,5.0378876 4.356781,6.7722553 5.3210014,10.531314 3.631735,10.859282 2.347775,12.75941 3.356071,16.543964 c 2.2471169,-2.29632 2.7516124,-0.793562 4.5353564,-1.149851 0.44613,0.907495 1.4226776,1.842968 3.1178136,2.605888 0.24559,-0.681935 1.28167,-1.707243 1.966884,-2.730197 1.956433,0.89122 2.898902,-0.52989 4.830778,2.285438 1.993059,-3.222959 1.230569,-5.322257 -0.397478,-6.14409 C 18.9093,7.1061307 14.536681,5.3781815 11.366679,6.9396194 10.550177,5.6550097 9.205885,4.9766515 7.9632074,5.0006136 Z M 7.8401554,9.530224 c 0.501948,0.01646 0.9626505,0.179741 1.5557326,0.189011 2.192776,1.8248 3.361628,1.296638 4.619833,1.607346 -0.58806,0.218698 -1.154612,0.55397 -1.651928,1.015355 C 11.90706,12.165528 11.305024,12.023484 10.52582,11.925197 9.914149,11.848037 9.35841,11.945167 8.8978189,12.166172 8.0653329,11.017994 6.8446699,10.429935 5.7267804,10.481896 6.6555274,9.685954 7.2764429,9.51174 7.8401554,9.530224 Z"
     style="opacity:0.2;fill:#000000;fill-rule:evenodd"
     id="path833" />
  <path
     d="M 7.9632074,4.0006136 C 6.0300679,4.0378876 4.3567814,5.7722552 5.3210014,9.531314 3.6317349,9.859282 2.3477748,11.759409 3.3560708,15.543963 5.6031879,13.247643 6.1076834,14.750401 7.8914274,14.394112 8.3375574,15.301607 9.314105,16.23708 11.009241,17 c 0.24559,-0.681935 1.28167,-1.707243 1.966884,-2.730197 1.956433,0.89122 2.898902,-0.52989 4.830778,2.285438 1.993059,-3.222959 1.230569,-5.322257 -0.397478,-6.144089 C 18.9093,6.1061306 14.536681,4.3781815 11.366679,5.9396193 10.550177,4.6550097 9.205885,3.9766515 7.9632074,4.0006136 Z M 7.8401554,8.530224 c 0.501948,0.01646 0.9626505,0.179741 1.5557326,0.189011 2.192776,1.8248 3.361628,1.296638 4.619833,1.607346 -0.58806,0.218698 -1.154612,0.55397 -1.651928,1.015354 C 11.90706,11.165527 11.305024,11.023483 10.52582,10.925197 9.914149,10.848037 9.35841,10.945167 8.8978189,11.166171 8.0653329,10.017994 6.8446699,9.429935 5.7267804,9.481896 6.6555274,8.685954 7.2764429,8.51174 7.8401554,8.530224 Z"
     style="fill:url(#linearGradient2289);fill-opacity:1;fill-rule:evenodd"
     id="path467"
     sodipodi:nodetypes="sccccccccssccccccs" />
  <path
     d="M 14.396545,17.952969 C 13.664997,18.4548 11.783461,14.791207 10.465929,14.073013 9.029356,14.425228 7.2619477,17.397644 6.538982,16.853975 5.7121742,16.232217 6.7274454,12.398369 7.2035413,11.560058 7.8171509,10.479615 3.6712801,10.394145 4.0209821,9.479954 4.3659791,8.5780467 7.7692751,7.7451205 8.840903,7.58964 9.229534,6.5180464 10.23619,4.8307472 11.613242,5.0137336 c 1.377055,0.182987 2.144922,2.2526432 2.430945,3.3141166 1.431007,0.2529203 3.775634,1.2564008 3.951325,2.2269288 0.173327,0.957478 -4.734593,0.791535 -4.109262,1.902128 0.456521,0.810791 1.058134,4.961654 0.510294,5.496062 z"
     style="opacity:0.2;fill:#000000;fill-opacity:1"
     id="path3808" />
  <path
     d="M 14.396545,16.952968 C 13.664997,17.454799 11.783461,13.791206 10.465929,13.073012 9.029356,13.425227 7.2619476,16.397643 6.5389819,15.853974 5.7121741,15.232216 6.7274453,11.398368 7.2035412,10.560058 7.8171508,9.479615 3.6712803,9.394145 4.0209816,8.4799538 4.3659789,7.5780465 7.769275,6.7451204 8.8409029,6.5896399 9.229534,5.5180463 10.23619,3.8307472 11.613242,4.0137336 c 1.377055,0.182987 2.144922,2.2526431 2.430945,3.3141165 1.431007,0.2529202 3.775634,1.2564009 3.951325,2.2269289 0.173327,0.957478 -4.734593,0.791535 -4.109262,1.902127 0.456521,0.810791 1.058134,4.961654 0.510294,5.496062 z"
     style="fill:url(#linearGradient3798);fill-opacity:1"
     id="path866"
     sodipodi:nodetypes="scssccscssss" />
  <path
     id="rect2630"
     style="opacity:0.3;fill:#ffffff;fill-opacity:1"
     d="m 3.9999999,1 c -1.6619983,0 -3,1.3380017 -3,2.9999997 v 1 c 0,-1.661998 1.3380017,-3 3,-3 H 18 c 1.661998,0 3,1.338002 3,3 v -1 C 21,2.3380017 19.661998,1 18,1 Z" />
  <path
     id="rect398"
     style="opacity:0.3;fill:#ffffff"
     d="m 1,17 v 1 c 0,1.661998 1.3380017,3 3,3 h 14 c 1.661998,0 3,-1.338002 3,-3 v -1 c 0,1.661998 -1.338002,3 -3,3 H 4 C 2.3380017,20 1,18.661998 1,17 Z" />
  <path
     id="rect899"
     style="opacity:0.5;fill:#000000;stroke:none"
     d="M 4,0 C 1.7840022,0 0,1.7840022 0,4 v 14 c 0,2.215998 1.7840022,4 4,4 h 14 c 2.215998,0 4,-1.784002 4,-4 V 4 C 22,1.7840022 20.215998,0 18,0 Z m 0,1 h 14 c 1.661998,0 3,1.3380017 3,3 v 14 c 0,1.661998 -1.338002,3 -3,3 H 4 C 2.3380017,21 1,19.661998 1,18 V 4 C 1,2.3380017 2.3380017,1 4,1 Z" />
  <ellipse
     style="opacity:0.2;fill:#000000;fill-opacity:1;stroke-width:2;stroke-linecap:round;stroke-linejoin:round"
     id="path3887"
     cx="10.5"
     cy="9"
     rx="2.5"
     ry="2" />
  <path
     d="m 10.316524,5.7810641 c -0.06905,-0.00219 -0.126782,0.052043 -0.128906,0.1210938 l -0.105469,3.09375 c -0.0022,0.069048 0.05204,0.1267821 0.121094,0.1289061 0.06905,0.0022 0.126782,-0.05204 0.128906,-0.121094 l 0.105469,-3.0937497 c 0.0022,-0.069049 -0.05204,-0.1267823 -0.121094,-0.1289062 z M 12.03918,7.622861 C 11.98848,7.620531 11.9414,7.649084 11.92004,7.695127 L 10.886837,9.94708 c -0.0291,0.06256 -0.002,0.136872 0.06055,0.166015 0.06256,0.0291 0.136872,0.002 0.166015,-0.06055 l 1.033203,-2.2519523 c 0.0291,-0.062564 0.002,-0.1368724 -0.06055,-0.1660156 -0.01471,-0.00692 -0.03064,-0.010898 -0.04688,-0.011719 z M 8.5255092,8.1580172 c -0.022018,2.522e-4 -0.043578,0.00632 -0.0625,0.017578 -0.059698,0.03411 -0.080642,0.1100289 -0.046875,0.1699219 L 9.390743,10.062314 c 0.03416,0.06087 0.111545,0.08198 0.171875,0.04687 0.06087,-0.03416 0.08198,-0.111544 0.04687,-0.171875 L 8.6329311,8.2224703 c -0.016171,-0.029642 -0.043646,-0.051481 -0.076172,-0.060547 -0.01021,-0.00261 -0.02071,-0.00393 -0.03125,-0.00391 z"
     style="color:#000000;fill:#ffffe0;stroke-linecap:round;-inkscape-stroke:none"
     id="path5727" />
</svg>
