<?xml version="1.0" encoding="UTF-8" standalone="no"?>
<!-- Created with Inkscape (http://www.inkscape.org/) -->

<svg
   width="22"
   height="22"
   viewBox="0 0 22 22.000001"
   version="1.1"
   id="svg5"
   sodipodi:docname="htop.svg"
   inkscape:version="1.3.2 (091e20ef0f, 2023-11-25, custom)"
   xmlns:inkscape="http://www.inkscape.org/namespaces/inkscape"
   xmlns:sodipodi="http://sodipodi.sourceforge.net/DTD/sodipodi-0.dtd"
   xmlns:xlink="http://www.w3.org/1999/xlink"
   xmlns="http://www.w3.org/2000/svg"
   xmlns:svg="http://www.w3.org/2000/svg">
  <sodipodi:namedview
     id="namedview7"
     pagecolor="#ffffff"
     bordercolor="#666666"
     borderopacity="1.0"
     inkscape:showpageshadow="2"
     inkscape:pageopacity="0.0"
     inkscape:pagecheckerboard="0"
     inkscape:deskcolor="#d1d1d1"
     inkscape:document-units="px"
     showgrid="false"
     inkscape:zoom="38.409091"
     inkscape:cx="11"
     inkscape:cy="11"
     inkscape:window-width="1920"
     inkscape:window-height="1019"
     inkscape:window-x="0"
     inkscape:window-y="0"
     inkscape:window-maximized="1"
     inkscape:current-layer="svg5" />
  <defs
     id="defs2">
    <linearGradient
       inkscape:collect="always"
       xlink:href="#4852"
       id="linearGradient10386"
       x1="19"
       y1="23"
       x2="5"
       y2="1"
       gradientUnits="userSpaceOnUse"
       gradientTransform="translate(-1,-1)" />
    <linearGradient
       inkscape:collect="always"
       id="4852">
      <stop
         style="stop-color:#333333;stop-opacity:1"
         offset="0"
         id="stop14555" />
      <stop
         style="stop-color:#666666;stop-opacity:1"
         offset="1"
         id="stop14557" />
    </linearGradient>
  </defs>
  <rect
     style="fill:url(#linearGradient10386);fill-opacity:1;stroke:none"
     id="rect184"
     width="21"
     height="21"
     x="0.5"
     y="0.5"
     ry="3.5" />
  <path
     d="M 3,5 V 9 H 4 V 5 Z M 5,5 V 9 H 6 V 5 Z M 7,5 V 9 H 8 V 5 Z m 6,0 v 4 h 1 V 5 Z m 2,0 v 4 h 1 V 5 Z m 2,0 v 4 h 1 V 5 Z M 3,10 v 4 h 1 v -4 z m 2,0 v 4 h 1 v -4 z m 2,0 v 4 h 1 v -4 z m 2,0 v 4 h 1 v -4 z m 2,0 v 4 h 1 v -4 z m 2,0 v 4 h 1 v -4 z m 2,0 v 4 h 1 v -4 z m 2,0 v 4 h 1 V 10 Z M 3,15 v 4 h 1 v -4 z m 2,0 v 4 h 1 v -4 z m 2,0 v 4 h 1 v -4 z m 6,0 v 4 h 1 v -4 z m 2,0 v 4 h 1 v -4 z m 2,0 v 4 h 1 v -4 z"
     style="opacity:0.2;fill:#000000"
     id="path1" />
  <path
     id="path1240"
     style="fill:#8bc34a"
     d="M 5,4 V 8 H 6 V 4 Z M 7,4 V 8 H 8 V 4 Z M 5,9 v 4 H 6 V 9 Z m 2,0 v 4 H 8 V 9 Z m -2,5 v 4 h 1 v -4 z m 2,0 v 4 h 1 v -4 z"
     sodipodi:nodetypes="cccccccccccccccccccccccccccccc" />
  <path
     d="M 9,8.9999998 V 13 h 1 V 8.9999998 Z m 2,0 V 13 h 1 V 8.9999998 Z"
     style="fill:#ff9800"
     id="path1212"
     sodipodi:nodetypes="cccccccccc" />
  <path
     id="path1128"
     style="fill:#ff5722"
     d="m 13,4 v 4 h 1 V 4 Z m 2,0 v 4 h 1 V 4 Z m -2,5 v 4 h 1 V 9 Z m 2,0 v 4 h 1 V 9 Z m -2,5 v 4 h 1 v -4 z m 2,0 v 4 h 1 v -4 z" />
  <path
     id="path1156"
     style="fill:#f9f9f9"
     d="M 3,4 V 7.9999998 H 4 V 4 Z m 14,0 v 3.9999998 h 1 V 4 Z M 3,8.9999998 V 13 H 4 V 8.9999998 Z m 14,0 V 13 h 1 V 8.9999998 Z M 3,14 v 4 h 1 v -4 z m 14,0 v 4 h 1 v -4 z"
     sodipodi:nodetypes="cccccccccccccccccccccccccccccc" />
  <path
     id="rect2630"
     style="opacity:0.3;fill:#ffffff;fill-opacity:1"
     d="m 3.9999999,1 c -1.6619983,0 -3,1.3380017 -3,2.9999997 v 1 c 0,-1.661998 1.3380017,-3 3,-3 H 18 c 1.661998,0 3,1.338002 3,3 v -1 C 21,2.3380017 19.661998,1 18,1 Z" />
  <path
     id="rect398"
     style="opacity:0.3;fill:#ffffff"
     d="m 1,17 v 1 c 0,1.661998 1.3380017,3 3,3 h 14 c 1.661998,0 3,-1.338002 3,-3 v -1 c 0,1.661998 -1.338002,3 -3,3 H 4 C 2.3380017,20 1,18.661998 1,17 Z" />
  <path
     id="rect899"
     style="opacity:0.5;fill:#000000;stroke:none"
     d="M 4,0 C 1.7840022,0 0,1.7840022 0,4 v 14 c 0,2.215998 1.7840022,4 4,4 h 14 c 2.215998,0 4,-1.784002 4,-4 V 4 C 22,1.7840022 20.215998,0 18,0 Z m 0,1 h 14 c 1.661998,0 3,1.3380017 3,3 v 14 c 0,1.661998 -1.338002,3 -3,3 H 4 C 2.3380017,21 1,19.661998 1,18 V 4 C 1,2.3380017 2.3380017,1 4,1 Z" />
</svg>
