<?xml version="1.0" encoding="UTF-8" standalone="no"?>
<!-- Created with Inkscape (http://www.inkscape.org/) -->

<svg
   width="22"
   height="22"
   viewBox="0 0 22 22.000001"
   version="1.1"
   id="svg5"
   sodipodi:docname="inkscape.svg"
   inkscape:version="1.2.1 (9c6d41e410, 2022-07-14)"
   xmlns:inkscape="http://www.inkscape.org/namespaces/inkscape"
   xmlns:sodipodi="http://sodipodi.sourceforge.net/DTD/sodipodi-0.dtd"
   xmlns:xlink="http://www.w3.org/1999/xlink"
   xmlns="http://www.w3.org/2000/svg"
   xmlns:svg="http://www.w3.org/2000/svg">
  <sodipodi:namedview
     id="namedview7"
     pagecolor="#ffffff"
     bordercolor="#666666"
     borderopacity="1.0"
     inkscape:showpageshadow="2"
     inkscape:pageopacity="0.0"
     inkscape:pagecheckerboard="0"
     inkscape:deskcolor="#d1d1d1"
     inkscape:document-units="px"
     showgrid="false"
     inkscape:zoom="24.513036"
     inkscape:cx="3.5695293"
     inkscape:cy="-1.5705929"
     inkscape:window-width="1920"
     inkscape:window-height="1007"
     inkscape:window-x="0"
     inkscape:window-y="0"
     inkscape:window-maximized="1"
     inkscape:current-layer="svg5" />
  <defs
     id="defs2">
    <linearGradient
       inkscape:collect="always"
       xlink:href="#4852"
       id="linearGradient10386"
       x1="19"
       y1="23"
       x2="5"
       y2="1"
       gradientUnits="userSpaceOnUse"
       gradientTransform="translate(-1,-1)" />
    <linearGradient
       inkscape:collect="always"
       id="4852">
      <stop
         style="stop-color:#333333;stop-opacity:1"
         offset="0"
         id="stop14555" />
      <stop
         style="stop-color:#666666;stop-opacity:1"
         offset="1"
         id="stop14557" />
    </linearGradient>
  </defs>
  <rect
     style="fill:url(#linearGradient10386);fill-opacity:1;stroke:none"
     id="rect184"
     width="21"
     height="21"
     x="0.5"
     y="0.5"
     ry="3.5" />
  <path
     d="M 11,5 C 10.60427,5 10.208283,5.1497818 9.909288,5.4663627 L 4.4663627,11.076389 C 4.1673703,11.384175 4.0087941,11.789163 4,12.193684 v 0.02582 c 0,1.204775 3.2097991,0.03529 3.4999999,1.503908 0.15829,0.80025 -1.7499997,0.430975 -1.7499997,1.231228 0,0.940954 2.6995467,0.299061 3.4734148,1.064127 0.316581,0.773868 -1.0376801,0.650639 -0.7914491,1.371745 0.448494,0.466077 1.4684251,0.202257 1.6618921,0.95855 0.228644,0.861812 1.688435,0.712171 2.54145,0.079 0.457286,-0.466079 -0.694586,-0.676601 -0.246094,-1.151475 0.457287,-0.46608 2.690961,-0.369873 2.70855,-1.389974 C 14.886708,15.244645 14.042431,15.13898 14.033636,14.3827 13.989676,13.740741 14.719842,13.925913 17.041448,13.292748 17.964815,12.853051 18,12.624028 18,12.219505 v -0.02582 C 17.9912,11.789172 17.806806,11.384176 17.50781,11.076387 L 12.090712,5.4663627 C 11.782923,5.1497803 11.395728,5 11,5 Z m 0.105574,1.1780598 c 0.413316,0 1.538939,1.3901491 2.541451,2.4366322 0.290197,0.37814 -0.105574,0.764865 -0.105574,0.764865 L 11.439778,8.2273219 10.507813,9.485135 9.689779,8.2539069 9.197591,10.171006 7.7460939,9.300564 8.1334639,8.807617 10.402235,6.4773222 c 0.167084,-0.1758788 0.307612,-0.2992624 0.703343,-0.2992624 z"
     style="opacity:0.2;fill:#000000;fill-opacity:1;stroke-width:0.879395"
     id="path11845" />
  <path
     d="M 11,4 C 10.60427,4 10.208283,4.1497818 9.909288,4.4663627 L 4.4663627,10.076389 C 4.1673703,10.384175 4.0087941,10.789163 4,11.193684 v 0.02582 c 0,1.204775 3.2097991,0.03529 3.4999999,1.503908 0.15829,0.80025 -1.7499997,0.430975 -1.7499997,1.231228 0,0.940954 2.6995467,0.299061 3.4734148,1.064127 0.316581,0.773868 -1.0376801,0.650639 -0.7914491,1.371745 0.448494,0.466077 1.4684251,0.202257 1.6618921,0.958549 0.228644,0.861813 1.688435,0.712172 2.54145,0.079 0.457286,-0.466078 -0.694586,-0.6766 -0.246094,-1.151474 0.457287,-0.46608 2.690961,-0.369873 2.70855,-1.389974 C 14.886708,14.244645 14.042431,14.13898 14.033636,13.3827 13.989676,12.740741 14.719842,12.925913 17.041448,12.292748 17.964815,11.853051 18,11.624028 18,11.219505 v -0.02582 C 17.9912,10.789172 17.806806,10.384176 17.50781,10.076387 L 12.090712,4.4663627 C 11.782923,4.1497803 11.395728,4 11,4 Z m 0.105574,1.1780598 c 0.413316,0 1.538939,1.3901491 2.541451,2.4366319 0.290197,0.3781403 -0.105574,0.7648652 -0.105574,0.7648652 L 11.439778,7.2273218 10.507813,8.4851349 9.689779,7.2539065 9.197591,9.171007 7.7460939,8.3005639 8.1334639,7.8076171 10.402235,5.4773222 c 0.167084,-0.1758788 0.307612,-0.2992624 0.703343,-0.2992624 z"
     style="fill:#ffffff;fill-opacity:1;stroke-width:0.879395"
     id="path11658"
     sodipodi:nodetypes="scccscsccccccccscccsscccccccccs" />
  <path
     id="rect2630"
     style="opacity:0.3;fill:#ffffff;fill-opacity:1"
     d="m 3.9999999,1 c -1.6619983,0 -3,1.3380017 -3,2.9999997 v 1 c 0,-1.661998 1.3380017,-3 3,-3 H 18 c 1.661998,0 3,1.338002 3,3 v -1 C 21,2.3380017 19.661998,1 18,1 Z" />
  <path
     id="rect398"
     style="opacity:0.3;fill:#ffffff"
     d="m 1,17 v 1 c 0,1.661998 1.3380017,3 3,3 h 14 c 1.661998,0 3,-1.338002 3,-3 v -1 c 0,1.661998 -1.338002,3 -3,3 H 4 C 2.3380017,20 1,18.661998 1,17 Z" />
  <path
     id="rect899"
     style="opacity:0.5;fill:#000000;stroke:none"
     d="M 4,0 C 1.7840022,0 0,1.7840022 0,4 v 14 c 0,2.215998 1.7840022,4 4,4 h 14 c 2.215998,0 4,-1.784002 4,-4 V 4 C 22,1.7840022 20.215998,0 18,0 Z m 0,1 h 14 c 1.661998,0 3,1.3380017 3,3 v 14 c 0,1.661998 -1.338002,3 -3,3 H 4 C 2.3380017,21 1,19.661998 1,18 V 4 C 1,2.3380017 2.3380017,1 4,1 Z" />
</svg>
