<?xml version="1.0" encoding="UTF-8" standalone="no"?>
<!-- Created with Inkscape (http://www.inkscape.org/) -->

<svg
   width="22"
   height="22"
   viewBox="0 0 22 22.000001"
   version="1.1"
   id="svg5"
   sodipodi:docname="internet-web-browser.svg"
   inkscape:version="1.2.1 (9c6d41e410, 2022-07-14)"
   xmlns:inkscape="http://www.inkscape.org/namespaces/inkscape"
   xmlns:sodipodi="http://sodipodi.sourceforge.net/DTD/sodipodi-0.dtd"
   xmlns:xlink="http://www.w3.org/1999/xlink"
   xmlns="http://www.w3.org/2000/svg"
   xmlns:svg="http://www.w3.org/2000/svg">
  <sodipodi:namedview
     id="namedview7"
     pagecolor="#ffffff"
     bordercolor="#666666"
     borderopacity="1.0"
     inkscape:showpageshadow="2"
     inkscape:pageopacity="0.0"
     inkscape:pagecheckerboard="0"
     inkscape:deskcolor="#d1d1d1"
     inkscape:document-units="px"
     showgrid="false"
     inkscape:zoom="11.740919"
     inkscape:cx="6.5156739"
     inkscape:cy="5.4084352"
     inkscape:window-width="1920"
     inkscape:window-height="1007"
     inkscape:window-x="0"
     inkscape:window-y="0"
     inkscape:window-maximized="1"
     inkscape:current-layer="svg5" />
  <defs
     id="defs2">
    <linearGradient
       inkscape:collect="always"
       xlink:href="#linearGradient4152"
       id="linearGradient16885"
       x1="13"
       y1="24"
       x2="13"
       y2="2"
       gradientUnits="userSpaceOnUse"
       gradientTransform="translate(-1.9999999,-2.0000001)" />
    <linearGradient
       inkscape:collect="always"
       id="linearGradient4152">
      <stop
         style="stop-color:#548ed7;stop-opacity:1;"
         offset="0"
         id="stop4148" />
      <stop
         style="stop-color:#64c792;stop-opacity:1;"
         offset="1"
         id="stop4150" />
    </linearGradient>
  </defs>
  <rect
     style="fill:url(#linearGradient16885);fill-opacity:1;stroke:none"
     id="rect184"
     width="21"
     height="21"
     x="0.5"
     y="0.5"
     ry="3.5" />
  <path
     d="M 11,4 10,6.0918001 C 7.487573,6.5194201 5.519418,8.4875702 5.091797,11 L 3,12.000001 l 2.091797,1 c 0.427621,2.51243 2.395776,4.48058 4.908203,4.9082 l 1,2.0918 1,-2.0918 c 2.512428,-0.42762 4.480581,-2.39577 4.908203,-4.9082 L 19,12.000001 16.914062,11 C 16.487946,8.4835302 14.516468,6.5120601 12,6.0859401 Z m 0,3.0000001 c 2.761424,0 5,2.2385759 5,5.0000009 0,2.761423 -2.238576,5 -5,5 -2.761424,0 -5,-2.238577 -5,-5 0,-2.761425 2.238576,-5.0000009 5,-5.0000009 z"
     style="opacity:0.2;fill:#000000;stroke-width:3.42928;stroke-linecap:round;stroke-linejoin:round"
     id="path13991" />
  <path
     id="path1327"
     style="fill:#ffffff;stroke-width:3.42928;stroke-linecap:round;stroke-linejoin:round"
     d="M 11,3 10,5.0918 C 7.487573,5.51942 5.519418,7.48757 5.091797,10 L 3,11 5.091797,12 C 5.519418,14.51243 7.487573,16.48058 10,16.9082 L 11,19 12,16.9082 C 14.512428,16.48058 16.480581,14.51243 16.908203,12 L 19,11 16.914062,10 C 16.487946,7.48353 14.516468,5.51206 12,5.08594 Z m 0,3 c 2.761424,0 5,2.2385763 5,5 0,2.761424 -2.238576,5 -5,5 C 8.2385763,16 6,13.761424 6,11 6,8.2385763 8.2385763,6 11,6 Z"
     sodipodi:nodetypes="cccccccccccccsssss" />
  <path
     id="rect1874"
     style="opacity:0.2;fill:#000000;stroke-width:4.5;stroke-linecap:round;stroke-linejoin:round"
     d="M 18,5 12,13 4.0000004,19 10,11 Z"
     sodipodi:nodetypes="ccccc" />
  <g
     id="g1911"
     transform="matrix(1.0606602,1.0606602,-1.0606602,1.0606602,11,-4.9099037)">
    <path
       id="rect1776"
       style="opacity:1;fill:#f2f2f2;stroke-width:2.86039;stroke-linecap:round;stroke-linejoin:round"
       d="m 6.5571913,7.5000003 h 1.885618 l -0.942809,6.5996627 z"
       sodipodi:nodetypes="cccc" />
    <path
       id="rect1779"
       style="opacity:1;fill:#ff5555;stroke-width:3;stroke-linecap:round;stroke-linejoin:round"
       d="M 7.5000003,0.90033721 8.4428093,7.5000003 H 6.5571913 Z"
       sodipodi:nodetypes="cccc" />
  </g>
  <path
     id="rect2630"
     style="opacity:0.3;fill:#ffffff;fill-opacity:1"
     d="m 3.9999999,1 c -1.6619983,0 -3,1.3380017 -3,2.9999997 v 1 c 0,-1.661998 1.3380017,-3 3,-3 H 18 c 1.661998,0 3,1.338002 3,3 v -1 C 21,2.3380017 19.661998,1 18,1 Z" />
  <path
     id="rect398"
     style="opacity:0.3;fill:#ffffff"
     d="m 1,17 v 1 c 0,1.661998 1.3380017,3 3,3 h 14 c 1.661998,0 3,-1.338002 3,-3 v -1 c 0,1.661998 -1.338002,3 -3,3 H 4 C 2.3380017,20 1,18.661998 1,17 Z" />
  <path
     id="rect899"
     style="opacity:0.5;fill:#000000;stroke:none"
     d="M 4,0 C 1.7840022,0 0,1.7840022 0,4 v 14 c 0,2.215998 1.7840022,4 4,4 h 14 c 2.215998,0 4,-1.784002 4,-4 V 4 C 22,1.7840022 20.215998,0 18,0 Z m 0,1 h 14 c 1.661998,0 3,1.3380017 3,3 v 14 c 0,1.661998 -1.338002,3 -3,3 H 4 C 2.3380017,21 1,19.661998 1,18 V 4 C 1,2.3380017 2.3380017,1 4,1 Z" />
</svg>
