<?xml version="1.0" encoding="UTF-8" standalone="no"?>
<!-- Created with Inkscape (http://www.inkscape.org/) -->

<svg
   width="22"
   height="22"
   viewBox="0 0 22 22.000001"
   version="1.1"
   id="svg5"
   sodipodi:docname="java.svg"
   inkscape:version="1.2.1 (9c6d41e410, 2022-07-14)"
   xmlns:inkscape="http://www.inkscape.org/namespaces/inkscape"
   xmlns:sodipodi="http://sodipodi.sourceforge.net/DTD/sodipodi-0.dtd"
   xmlns:xlink="http://www.w3.org/1999/xlink"
   xmlns="http://www.w3.org/2000/svg"
   xmlns:svg="http://www.w3.org/2000/svg">
  <sodipodi:namedview
     id="namedview7"
     pagecolor="#ffffff"
     bordercolor="#666666"
     borderopacity="1.0"
     inkscape:showpageshadow="2"
     inkscape:pageopacity="0.0"
     inkscape:pagecheckerboard="0"
     inkscape:deskcolor="#d1d1d1"
     inkscape:document-units="px"
     showgrid="false"
     inkscape:zoom="36.136364"
     inkscape:cx="11"
     inkscape:cy="11"
     inkscape:window-width="1920"
     inkscape:window-height="1007"
     inkscape:window-x="0"
     inkscape:window-y="0"
     inkscape:window-maximized="1"
     inkscape:current-layer="svg5" />
  <defs
     id="defs2">
    <linearGradient
       inkscape:collect="always"
       xlink:href="#linearGradient22024"
       id="linearGradient10386"
       x1="19"
       y1="23"
       x2="5"
       y2="1"
       gradientUnits="userSpaceOnUse"
       gradientTransform="translate(-1,-1)" />
    <linearGradient
       inkscape:collect="always"
       id="linearGradient22024">
      <stop
         style="stop-color:#dedede;stop-opacity:1;"
         offset="0"
         id="stop22020" />
      <stop
         style="stop-color:#f2f2f2;stop-opacity:1;"
         offset="1"
         id="stop22022" />
    </linearGradient>
  </defs>
  <rect
     style="fill:url(#linearGradient10386);fill-opacity:1;stroke:none"
     id="rect184"
     width="21"
     height="21"
     x="0.5"
     y="0.5"
     ry="3.5" />
  <path
     id="path10051"
     style="opacity:0.2;fill:#000000;stroke-width:0.273971"
     d="m 12.500134,4 c 0.670406,2.6415419 -2.36407,3.4394902 -3.459597,5.084492 -0.7460216,1.120676 0.365203,2.32594 1.881575,3.693957 -0.591311,-1.336703 -2.5953107,-2.506084 0.0023,-4.5577409 C 14.163496,5.6640979 12.500188,4 12.500188,4 Z m 2.004335,3.2676453 c 3.5e-5,0 -5.477293,1.3671343 -2.861422,4.3814117 0.772186,0.888871 -0.203111,1.689623 -0.203111,1.689623 0,0 1.959945,-1.011728 1.060198,-2.27887 -0.84065,-1.181141 -1.484818,-1.768563 2.004335,-3.7921647 z m 0.970919,5.3835787 c -0.192444,3.6e-4 -0.397468,0.0357 -0.607103,0.109365 -0.168077,0.05949 -0.256681,0.196416 -0.256681,0.196416 0,0 0.106816,-0.04207 0.343729,-0.09151 0.968841,-0.201915 2.356847,1.297463 -0.645048,2.856957 -0.01391,0.03715 -0.0603,0.07812 -0.06026,0.07812 3.570037,-0.938419 2.792413,-3.152276 1.225367,-3.14935 z m -6.5799308,0.154009 c -0.3827192,0.01006 -1.2777871,0.09221 -2.3190465,0.595943 -1.6424535,0.794132 4.0617693,1.156201 7.0151703,0.37944 0.307013,-0.209532 0.729864,-0.390599 0.729864,-0.390599 0,0 -1.207005,0.215933 -2.410558,0.316944 -1.47303,0.123592 -3.0525337,0.148549 -3.8457328,0.04241 -1.8780131,-0.251066 1.0289508,-0.941903 1.0289508,-0.941903 0,0 -0.07107,-0.0056 -0.1986478,-0.0023 z M 8.4178091,14.622079 C 5.7087893,15.521265 9.925563,16.54208 13.71211,15.434526 13.309795,15.29271 13.05367,15.032767 13.05367,15.032767 11.202397,15.389063 10.133904,15.377946 8.7793939,15.23811 7.7321953,15.129889 8.4178091,14.622079 8.4178091,14.622079 Z m 0.3816726,1.749887 c -2.4599825,0.687362 1.4968593,2.107538 4.6291643,0.765576 -0.51301,-0.199367 -0.879407,-0.428544 -0.879407,-0.428544 -1.396784,0.264027 -2.046637,0.28537 -3.314518,0.140616 C 8.1883177,16.729615 8.7994817,16.371966 8.7994817,16.371966 Z m -1.7074792,1.162871 c -1.1047273,0.03408 -3.2659118,1.027482 -1.2900947,1.348127 6.3857062,1.035089 11.6401542,-0.466897 9.9837282,-1.214207 0,0 0.452832,0.372291 -0.497736,0.660671 -1.807519,0.547476 -7.5253159,0.713038 -9.1132484,0.02232 -0.5704064,-0.248453 0.5002888,-0.592397 0.8369995,-0.665136 0.3510927,-0.07595 0.5513037,-0.0625 0.5513037,-0.0625 -0.099194,-0.06985 -0.2663725,-0.09559 -0.4709523,-0.08929 z m 9.7069605,0.948599 c 0,0 -0.19957,0.516227 -2.37931,0.926279 -2.459104,0.462957 -5.4933212,0.408582 -7.2919386,0.111605 0,0 0.3676585,0.306708 2.2610146,0.428543 2.8808,0.184183 7.305577,-0.103147 7.410234,-1.466422 z" />
  <path
     id="path10069"
     d="m 15.392782,11.653457 c -0.167749,0.0086 -0.344831,0.044 -0.524519,0.107136 -0.168078,0.05949 -0.25668,0.196416 -0.25668,0.196416 0,0 0.106816,-0.04207 0.343727,-0.09151 0.968843,-0.201917 2.356849,1.297462 -0.645047,2.856957 -0.01391,0.03716 -0.06029,0.07812 -0.06026,0.07812 3.63267,-0.954882 2.76436,-3.230308 1.142783,-3.147117 z m -6.4973464,0.151776 c -0.3827192,0.01006 -1.2777871,0.09221 -2.3190465,0.595944 -1.6424535,0.79413 4.0617689,1.1562 7.0151709,0.379439 0.307012,-0.209532 0.729863,-0.390599 0.729863,-0.390599 0,0 -1.207005,0.215933 -2.410558,0.316944 -1.47303,0.123587 -3.0525333,0.148549 -3.8457324,0.04241 -1.8780131,-0.251066 1.0289505,-0.941903 1.0289505,-0.941903 0,0 -0.07107,-0.0056 -0.1986475,-0.0022 z m -0.4776481,1.816846 c -2.7090198,0.899186 1.5077536,1.920001 5.2943005,0.812447 -0.402315,-0.141815 -0.65844,-0.401759 -0.65844,-0.401759 -1.851273,0.356296 -2.919766,0.345179 -4.2742757,0.205343 C 7.7321737,14.129889 8.4177875,13.622079 8.4177875,13.622079 Z m 0.3816726,1.749887 c -2.4599825,0.687359 1.4968579,2.107538 4.6291639,0.765576 -0.51301,-0.199366 -0.879407,-0.428544 -0.879407,-0.428544 -1.396784,0.264027 -2.046637,0.28537 -3.3145179,0.140616 -1.046403,-0.119999 -0.435239,-0.477648 -0.435239,-0.477648 z m -1.5891829,1.162871 c -1.0571566,-0.04067 -3.4573862,1.015605 -1.408391,1.348127 6.3857048,1.035088 11.6401538,-0.466897 9.9837278,-1.214208 0,0 0.452832,0.37229 -0.497736,0.660673 -1.80752,0.547474 -7.5253155,0.713037 -9.113248,0.02232 -0.5704064,-0.248452 0.5002899,-0.592395 0.8369995,-0.665135 0.3510927,-0.07595 0.5513026,-0.0625 0.5513026,-0.0625 -0.079355,-0.05588 -0.2016327,-0.08347 -0.3526549,-0.08927 z m 9.5886648,0.948599 c 0,0 -0.199572,0.516227 -2.379311,0.926279 -2.459105,0.462956 -5.4933208,0.408579 -7.2919382,0.111605 0,0 0.3676585,0.306709 2.2610153,0.428543 2.8807989,0.184183 7.3055759,-0.103147 7.4102339,-1.466422 z"
     sodipodi:nodetypes="scccccssccccccsccccccccccsccccccsccccc"
     style="fill:#5a87b6;fill-opacity:1;stroke-width:0.273971" />
  <path
     id="path10073"
     d="M 12.500113,3 C 13.170518,5.6415419 10.136042,6.4394902 9.0405151,8.0844921 8.2944938,9.205168 9.4057181,10.410432 10.92209,11.778449 10.330779,10.441746 8.3267797,9.272364 10.92429,7.2207081 14.16336,4.6640979 12.500052,3 12.500052,3 Z m 2.004334,3.2676453 c 3.5e-5,0 -5.4772919,1.3671331 -2.861422,4.3814117 0.772186,0.888871 -0.203111,1.689623 -0.203111,1.689623 0,0 1.959945,-1.011728 1.060199,-2.27887 -0.840652,-1.1811419 -1.484817,-1.7685633 2.004334,-3.7921647 z"
     style="fill:#ff9955;fill-opacity:1;stroke-width:0.273971" />
  <path
     id="rect2630"
     style="opacity:0.3;fill:#ffffff;fill-opacity:1"
     d="m 3.9999999,1 c -1.6619983,0 -3,1.3380017 -3,2.9999997 v 1 c 0,-1.661998 1.3380017,-3 3,-3 H 18 c 1.661998,0 3,1.338002 3,3 v -1 C 21,2.3380017 19.661998,1 18,1 Z" />
  <path
     id="rect398"
     style="opacity:0.3;fill:#ffffff"
     d="m 1,17 v 1 c 0,1.661998 1.3380017,3 3,3 h 14 c 1.661998,0 3,-1.338002 3,-3 v -1 c 0,1.661998 -1.338002,3 -3,3 H 4 C 2.3380017,20 1,18.661998 1,17 Z" />
  <path
     id="rect899"
     style="opacity:0.5;fill:#000000;stroke:none"
     d="M 4,0 C 1.7840022,0 0,1.7840022 0,4 v 14 c 0,2.215998 1.7840022,4 4,4 h 14 c 2.215998,0 4,-1.784002 4,-4 V 4 C 22,1.7840022 20.215998,0 18,0 Z m 0,1 h 14 c 1.661998,0 3,1.3380017 3,3 v 14 c 0,1.661998 -1.338002,3 -3,3 H 4 C 2.3380017,21 1,19.661998 1,18 V 4 C 1,2.3380017 2.3380017,1 4,1 Z" />
</svg>
