<?xml version="1.0" encoding="UTF-8" standalone="no"?>
<!-- Created with Inkscape (http://www.inkscape.org/) -->

<svg
   width="22"
   height="22"
   viewBox="0 0 22 22.000001"
   version="1.1"
   id="svg5"
   sodipodi:docname="kate.svg"
   inkscape:version="1.2.1 (9c6d41e410, 2022-07-14)"
   xmlns:inkscape="http://www.inkscape.org/namespaces/inkscape"
   xmlns:sodipodi="http://sodipodi.sourceforge.net/DTD/sodipodi-0.dtd"
   xmlns:xlink="http://www.w3.org/1999/xlink"
   xmlns="http://www.w3.org/2000/svg"
   xmlns:svg="http://www.w3.org/2000/svg">
  <sodipodi:namedview
     id="namedview7"
     pagecolor="#ffffff"
     bordercolor="#666666"
     borderopacity="1.0"
     inkscape:showpageshadow="2"
     inkscape:pageopacity="0.0"
     inkscape:pagecheckerboard="0"
     inkscape:deskcolor="#d1d1d1"
     inkscape:document-units="px"
     showgrid="false"
     inkscape:zoom="11.814576"
     inkscape:cx="9.4374946"
     inkscape:cy="7.3214644"
     inkscape:window-width="1920"
     inkscape:window-height="1007"
     inkscape:window-x="0"
     inkscape:window-y="0"
     inkscape:window-maximized="1"
     inkscape:current-layer="svg5" />
  <defs
     id="defs2">
    <linearGradient
       inkscape:collect="always"
       xlink:href="#linearGradient1493"
       id="linearGradient10386"
       x1="19"
       y1="23"
       x2="5"
       y2="1"
       gradientUnits="userSpaceOnUse"
       gradientTransform="translate(-1,-1)" />
    <linearGradient
       inkscape:collect="always"
       id="linearGradient1493">
      <stop
         style="stop-color:#197cf1;stop-opacity:1;"
         offset="0"
         id="stop1489" />
      <stop
         style="stop-color:#20bcfa;stop-opacity:1;"
         offset="1"
         id="stop1491" />
    </linearGradient>
  </defs>
  <rect
     style="fill:url(#linearGradient10386);fill-opacity:1;stroke:none"
     id="rect184"
     width="21"
     height="21"
     x="0.5"
     y="0.5"
     ry="3.5" />
  <path
     id="path10-3"
     style="opacity:0.1;fill:#000000;stroke-width:0.561445"
     d="M 10.424845,4.0000017 C 9.226492,3.9990624 7.8487235,4.3411705 6.512258,5.3093146 5.2063723,6.2553096 4.6334473,6.5147273 4,6.8291703 4.5553283,6.8715403 7.8327815,6.4063376 8.506932,8.2810393 6.1033865,9.074177 5.159437,10.364388 5.462834,11.864652 c 0.047728,0.270134 0.1391471,0.552417 0.2785323,0.845461 0.1439509,0.302646 0.308126,0.562048 0.4879771,0.791729 0.00858,0.01206 0.017575,0.02411 0.026305,0.03617 -0.0045,-0.0063 -0.00873,-0.01236 -0.013153,-0.01867 1.1083952,1.399233 2.8490886,1.617401 4.7328316,2.877453 1.71634,1.14809 2.286421,1.732357 3.393905,3.323736 -0.230302,-2.198798 -1.443511,-5.0326 -1.940941,-6.281193 l -0.0011,-0.0055 c 1.555775,1.141909 3.399769,1.639643 5.572806,1.795094 -3.474103,-2.473016 -4.13365,-3.058644 -6.12219,-4.753662 -1.334096,0.06725 -1.187125,0.05467 -1.973838,0.09979 0.09858,0.164342 0.198421,0.323305 0.30046,0.477011 0.794555,1.413376 0.946258,3.172598 -0.750058,3.525497 C 7.681894,14.946309 5.7489231,13.415602 6.2348218,11.77691 6.7624532,9.997489 9.264819,10.339829 11.654105,10.031159 14.043392,9.722488 16.226368,7.3792493 17.539435,5.6448515 15.647731,6.2902928 13.240442,6.8828493 10.552045,7.6625533 10.029044,6.5917053 9.51011,4.7421953 13.024826,4.608586 12.961616,4.573663 12.8963,4.540071 12.828541,4.508799 12.820141,4.504829 12.811761,4.500669 12.803331,4.496742 12.788781,4.490162 12.774191,4.4834 12.759471,4.477013 12.152426,4.2025603 11.341231,4.0007033 10.424843,3.9999856 Z" />
  <path
     style="fill:#cccccc;fill-opacity:1;stroke-width:0.561468"
     d="M 8.5383909,7.3738913 C 7.9409013,5.3903175 4.5643946,5.8716433 4,5.8285798 4.6334685,5.5141272 5.2023426,5.6304244 6.5082714,4.6843981 9.024054,2.8619489 10.789099,2.8377259 12.122931,3.5614661 8.4764271,3.7000844 10.073217,5.732878 10.610313,6.7796403 9.927284,6.9780383 8.8490715,7.2775353 8.5383909,7.3738913 Z"
     id="path10" />
  <path
     style="fill:#f2f2f2;stroke-width:0.561468"
     d="M 17.539473,4.6444051 C 16.226362,6.3788612 14.043182,8.7222323 11.653817,9.030913 9.264451,9.339594 6.7620285,8.997633 6.2343792,10.77712 c -0.4859149,1.638746 1.4476505,3.168762 3.2201868,2.80001 1.893624,-0.393946 1.484668,-2.540233 0.448931,-4.0018 0.78674,-0.04511 0.323829,0.229512 1.657968,0.162259 l 0.866573,2.702049 c 0.497446,1.248635 1.710449,4.082539 1.940757,6.28141 -1.107522,-1.59144 -1.677162,-2.176291 -3.39356,-3.324405 C 8.7766417,13.925984 6.7714822,13.876197 5.7408946,11.709465 4.7125321,9.547415 6.2982589,7.9900073 8.733983,7.3155413 12.21481,6.351677 15.214006,5.4378462 17.539473,4.6444051 Z"
     id="path12" />
  <path
     style="fill:#cccccc;fill-opacity:1;stroke-width:0.561468"
     d="M 9.903497,9.57533 C 10.690237,9.53022 10.543891,9.5419 11.87803,9.474647 13.866637,11.169721 14.525781,11.756221 18,14.22932 14.507943,13.979512 11.865759,12.846388 9.903497,9.57533 Z"
     id="path14" />
  <path
     style="fill:#e6e6e6;fill-opacity:1;stroke-width:0.561468"
     d="M 4,5.8285798 C 4.6334685,5.5141272 5.2059418,5.2549276 6.5118714,4.3089006 9.027654,2.4864513 11.691202,2.8839023 13.025035,3.6076421 9.37853,3.7462616 9.848372,4.4728221 9.834915,5.0424014 7.4121677,4.5317181 6.7047766,5.2265506 4,5.8285798 Z"
     id="path16" />
  <path
     style="fill:#f2f2f2;stroke-width:0.561468"
     d="M 13.025035,3.6076421 C 9.37853,3.7462616 10.073217,5.732878 10.610313,6.7796403 10.184787,6.9032413 10.004035,7.0440513 9.435194,7.1945983 7.1399778,3.1049124 11.151731,2.5728695 13.025035,3.6076421 Z"
     id="path18" />
  <path
     style="fill:#e6e6e6;fill-opacity:1;stroke-width:0.561468"
     d="M 6.397515,12.728298 C 4.6131154,10.430664 5.1671348,8.3246813 8.6612482,7.2304833 12.109359,6.1506881 15.214006,5.4378462 17.539473,4.6444051 11.263897,7.0355353 3.1810981,8.6332783 6.397515,12.728298 Z"
     id="path20" />
  <path
     id="rect2630"
     style="opacity:0.3;fill:#ffffff;fill-opacity:1"
     d="m 3.9999999,1 c -1.6619983,0 -3,1.3380017 -3,2.9999997 v 1 c 0,-1.661998 1.3380017,-3 3,-3 H 18 c 1.661998,0 3,1.338002 3,3 v -1 C 21,2.3380017 19.661998,1 18,1 Z" />
  <path
     id="rect398"
     style="opacity:0.3;fill:#ffffff"
     d="m 1,17 v 1 c 0,1.661998 1.3380017,3 3,3 h 14 c 1.661998,0 3,-1.338002 3,-3 v -1 c 0,1.661998 -1.338002,3 -3,3 H 4 C 2.3380017,20 1,18.661998 1,17 Z" />
  <path
     id="rect899"
     style="opacity:0.5;fill:#000000;stroke:none"
     d="M 4,0 C 1.7840022,0 0,1.7840022 0,4 v 14 c 0,2.215998 1.7840022,4 4,4 h 14 c 2.215998,0 4,-1.784002 4,-4 V 4 C 22,1.7840022 20.215998,0 18,0 Z m 0,1 h 14 c 1.661998,0 3,1.3380017 3,3 v 14 c 0,1.661998 -1.338002,3 -3,3 H 4 C 2.3380017,21 1,19.661998 1,18 V 4 C 1,2.3380017 2.3380017,1 4,1 Z" />
</svg>
