<?xml version="1.0" encoding="UTF-8" standalone="no"?>
<!-- Created with Inkscape (http://www.inkscape.org/) -->

<svg
   width="22"
   height="22"
   viewBox="0 0 22 22.000001"
   version="1.1"
   id="svg5"
   sodipodi:docname="kmahjongg.svg"
   inkscape:version="1.2.1 (9c6d41e410, 2022-07-14)"
   xmlns:inkscape="http://www.inkscape.org/namespaces/inkscape"
   xmlns:sodipodi="http://sodipodi.sourceforge.net/DTD/sodipodi-0.dtd"
   xmlns:xlink="http://www.w3.org/1999/xlink"
   xmlns="http://www.w3.org/2000/svg"
   xmlns:svg="http://www.w3.org/2000/svg">
  <sodipodi:namedview
     id="namedview7"
     pagecolor="#ffffff"
     bordercolor="#666666"
     borderopacity="1.0"
     inkscape:showpageshadow="2"
     inkscape:pageopacity="0.0"
     inkscape:pagecheckerboard="0"
     inkscape:deskcolor="#d1d1d1"
     inkscape:document-units="px"
     showgrid="false"
     inkscape:zoom="6.3478904"
     inkscape:cx="-7.0889693"
     inkscape:cy="23.708664"
     inkscape:window-width="1920"
     inkscape:window-height="1009"
     inkscape:window-x="0"
     inkscape:window-y="0"
     inkscape:window-maximized="1"
     inkscape:current-layer="svg5"
     showguides="true" />
  <defs
     id="defs2">
    <linearGradient
       inkscape:collect="always"
       xlink:href="#linearGradient1216"
       id="linearGradient10386"
       x1="19"
       y1="23"
       x2="5"
       y2="1"
       gradientUnits="userSpaceOnUse"
       gradientTransform="translate(-1,-1)" />
    <linearGradient
       inkscape:collect="always"
       id="linearGradient1216">
      <stop
         style="stop-color:#dc1111;stop-opacity:1;"
         offset="0"
         id="stop1212" />
      <stop
         style="stop-color:#dc5d4f;stop-opacity:1;"
         offset="1"
         id="stop1214" />
    </linearGradient>
  </defs>
  <rect
     style="fill:url(#linearGradient10386);fill-opacity:1;stroke:none"
     id="rect184"
     width="21"
     height="21"
     x="0.5"
     y="0.5"
     ry="3.5" />
  <path
     d="M 9.297337,3.1315744 C 9.177991,3.2368373 9.148159,3.394733 9.148159,3.5789432 c 0,0.3421054 0.119338,0.7631577 0.179011,0.9210523 0,0 0.08951,1.8421084 0.119345,2.0526349 -0.268524,0.026313 -0.7458909,0.052633 -0.9249017,0.1052617 H 8.2829297 C 7.7757225,6.6842121 7.2983552,6.7105252 7.0895043,6.894735 l -0.089505,0.078949 0.089505,0.1052629 C 7.2386825,7.236841 7.2983552,7.684209 7.358028,8.1578948 7.5072062,9.131577 7.6862097,10.342105 8.5812861,10.815788 l 0.1790107,0.07895 v -0.184211 c 0,0 0.029891,-0.07895 0.029891,-0.18421 0,-0.07895 -0.029891,-0.210527 -0.059637,-0.394738 0.2386837,0.02631 0.7458912,0.07895 0.9249022,0.07895 C 9.685253,10.421051 10.460958,19 10.460958,19 h 0.298356 c 0,0 0.328197,-8.473684 0.328197,-8.736842 0.208843,0 1.133752,0.02631 1.402262,0.05263 -0.05964,0.157895 -0.29835,0.81579 -0.29835,0.81579 l 0.417696,-0.342106 C 12.728464,10.710529 15.324159,8.6315805 14.96613,7.2631601 14.846784,6.8157907 14.42909,6.5000012 13.742872,6.3421074 h -0.02989 -0.02989 c -0.387862,0 -1.58128,0.026313 -2.476357,0.078947 0.02989,-0.6842109 0.02989,-1.0526341 0.02989,-1.2368451 V 4.973682 4.9473694 c 0,-0.1315805 0.149178,-0.3157907 0.268524,-0.4473695 0.119345,-0.1578945 0.268524,-0.2894735 0.268524,-0.447368 0,-0.052633 -0.0299,-0.105264 -0.05964,-0.1578945 C 11.535014,3.6578952 10.222244,3.0526319 9.655371,2.9999999 9.47636,3.0263129 9.357014,3.0526329 9.297342,3.1315788 Z m 0.02989,4.315793 h 0.149179 c 0,0.2368415 0.0895,1.8947366 0.119338,2.1315786 C 9.357061,9.552626 8.7901876,9.5 8.611177,9.5 8.5216715,9.157894 8.4918315,8.7894728 8.4619988,8.4210518 8.4321807,8.105262 8.4023625,7.7894729 8.3426534,7.499998 c 0.2685236,0 0.9845746,-0.052633 0.9845746,-0.052633 z m 1.819972,0.8157898 c 0,0 0.02982,-0.6315789 0.02982,-0.8421054 0.387855,0.052633 0.895062,0.078946 1.372429,0.078946 h 0.53704 c 0,0.105264 -0.02989,0.2368429 -0.02989,0.2368429 -0.05963,0.5789476 -0.149178,1.2631571 -0.417702,1.9473683 -0.179003,0 -1.282923,-0.05263 -1.521608,-0.07895 0,-0.184211 0.0299,-1.3421051 0.0299,-1.3421051 z"
     style="display:inline;fill:#ffffff;fill-opacity:1;stroke-width:0.727273;enable-background:new"
     id="path861" />
  <path
     id="rect2630"
     style="opacity:0.3;fill:#ffffff;fill-opacity:1"
     d="m 3.9999999,1 c -1.6619983,0 -3,1.3380017 -3,2.9999997 v 1 c 0,-1.661998 1.3380017,-3 3,-3 H 18 c 1.661998,0 3,1.338002 3,3 v -1 C 21,2.3380017 19.661998,1 18,1 Z" />
  <path
     id="rect398"
     style="opacity:0.3;fill:#ffffff"
     d="m 1,17 v 1 c 0,1.661998 1.3380017,3 3,3 h 14 c 1.661998,0 3,-1.338002 3,-3 v -1 c 0,1.661998 -1.338002,3 -3,3 H 4 C 2.3380017,20 1,18.661998 1,17 Z" />
  <path
     id="rect899"
     style="opacity:0.5;fill:#000000;stroke:none"
     d="M 4,0 C 1.7840022,0 0,1.7840022 0,4 v 14 c 0,2.215998 1.7840022,4 4,4 h 14 c 2.215998,0 4,-1.784002 4,-4 V 4 C 22,1.7840022 20.215998,0 18,0 Z m 0,1 h 14 c 1.661998,0 3,1.3380017 3,3 v 14 c 0,1.661998 -1.338002,3 -3,3 H 4 C 2.3380017,21 1,19.661998 1,18 V 4 C 1,2.3380017 2.3380017,1 4,1 Z" />
</svg>
