<?xml version="1.0" encoding="UTF-8" standalone="no"?>
<!-- Created with Inkscape (http://www.inkscape.org/) -->

<svg
   width="22"
   height="22"
   viewBox="0 0 22 22.000001"
   version="1.1"
   id="svg5"
   sodipodi:docname="kmenuedit.svg"
   inkscape:version="1.2.1 (9c6d41e410, 2022-07-14)"
   xmlns:inkscape="http://www.inkscape.org/namespaces/inkscape"
   xmlns:sodipodi="http://sodipodi.sourceforge.net/DTD/sodipodi-0.dtd"
   xmlns:xlink="http://www.w3.org/1999/xlink"
   xmlns="http://www.w3.org/2000/svg"
   xmlns:svg="http://www.w3.org/2000/svg">
  <sodipodi:namedview
     id="namedview7"
     pagecolor="#ffffff"
     bordercolor="#666666"
     borderopacity="1.0"
     inkscape:showpageshadow="2"
     inkscape:pageopacity="0.0"
     inkscape:pagecheckerboard="0"
     inkscape:deskcolor="#d1d1d1"
     inkscape:document-units="px"
     showgrid="false"
     inkscape:zoom="16.5625"
     inkscape:cx="8.9660377"
     inkscape:cy="10.777358"
     inkscape:window-width="1920"
     inkscape:window-height="1007"
     inkscape:window-x="0"
     inkscape:window-y="0"
     inkscape:window-maximized="1"
     inkscape:current-layer="svg5" />
  <defs
     id="defs2">
    <linearGradient
       inkscape:collect="always"
       xlink:href="#linearGradient22024"
       id="linearGradient10386"
       x1="12"
       y1="23"
       x2="12"
       y2="1"
       gradientUnits="userSpaceOnUse"
       gradientTransform="translate(-1,-1)" />
    <linearGradient
       inkscape:collect="always"
       id="linearGradient22024">
      <stop
         style="stop-color:#dedede;stop-opacity:1;"
         offset="0"
         id="stop22020" />
      <stop
         style="stop-color:#f2f2f2;stop-opacity:1;"
         offset="1"
         id="stop22022" />
    </linearGradient>
  </defs>
  <rect
     style="fill:url(#linearGradient10386);fill-opacity:1;stroke:none"
     id="rect184"
     width="21"
     height="21"
     x="0.5"
     y="0.5"
     ry="3.5" />
  <rect
     style="opacity:0.5;fill:#57dade;fill-opacity:1;stroke-width:0.797721;stroke-linecap:round;stroke-linejoin:round"
     id="rect811"
     width="21"
     height="5"
     x="0.5"
     y="9" />
  <path
     d="m 5.4999994,10.999999 c -0.8309996,0 -1.4999997,0.669 -1.4999997,1.500002 0,0.831 0.6690001,1.5 1.4999997,1.5 0.831,0 1.5,-0.669 1.5,-1.5 0,-0.831002 -0.669,-1.500002 -1.5,-1.500002 z m 0,1.000002 c 0.27614,0 0.5,0.22386 0.5,0.5 0,0.27614 -0.22386,0.5 -0.5,0.5 -0.27614,0 -0.5,-0.22386 -0.5,-0.5 0,-0.27614 0.22386,-0.5 0.5,-0.5 z m 3.5,0 v 1 H 18 v -1 z"
     style="color:#000000;display:inline;overflow:visible;visibility:visible;opacity:0.2;fill:#000000;fill-opacity:1;stroke:none;stroke-width:1;marker:none;enable-background:accumulate"
     id="path14207" />
  <path
     d="M 5.5,6 C 4.669,6 4,6.6690001 4,7.5 4,8.331 4.669,9 5.5,9 6.331,9 7,8.331 7,7.5 7,6.6690001 6.331,6 5.5,6 Z m 0,1 C 5.77614,7 6,7.22386 6,7.5 6,7.77614 5.77614,8 5.5,8 5.22386,8 5,7.77614 5,7.5 5,7.22386 5.22386,7 5.5,7 Z M 9,7 v 1 h 9 V 7 Z m -3.5,9.000001 c -0.831,0 -1.5,0.669 -1.5,1.5 0,0.831 0.669,1.5 1.5,1.5 0.831,0 1.5,-0.669 1.5,-1.5 0,-0.831 -0.669,-1.5 -1.5,-1.5 z m 0,1 c 0.27614,0 0.5,0.22386 0.5,0.5 0,0.27614 -0.22386,0.5 -0.5,0.5 -0.27614,0 -0.5,-0.22386 -0.5,-0.5 0,-0.27614 0.22386,-0.5 0.5,-0.5 z m 3.5,0 v 1 h 9 v -1 z"
     style="color:#000000;display:inline;overflow:visible;visibility:visible;opacity:0.5;fill:#ffffff;fill-opacity:1;stroke:none;stroke-width:1;marker:none;enable-background:accumulate"
     id="path14174" />
  <path
     id="rect4096"
     style="color:#000000;display:inline;overflow:visible;visibility:visible;fill:#ababab;fill-opacity:1;stroke:none;stroke-width:1;marker:none;enable-background:accumulate"
     d="M 5.5,5 C 4.669,5 4,5.6690001 4,6.5 4,7.331 4.669,8.0000001 5.5,8.0000001 6.331,8.0000001 7,7.331 7,6.5 7,5.6690001 6.331,5 5.5,5 Z m 0,1 C 5.77614,6 6,6.22386 6,6.5 6,6.77614 5.77614,7 5.5,7 5.22386,7 5,6.77614 5,6.5 5,6.22386 5.22386,6 5.5,6 Z M 9,6 v 1 h 9 V 6 Z M 5.5,15 C 4.669,15 4,15.669 4,16.5 4,17.331 4.669,18 5.5,18 6.331,18 7,17.331 7,16.5 7,15.669 6.331,15 5.5,15 Z m 0,1 C 5.77614,16 6,16.22386 6,16.5 6,16.77614 5.77614,17 5.5,17 5.22386,17 5,16.77614 5,16.5 5,16.22386 5.22386,16 5.5,16 Z M 9,16 v 1 h 9 v -1 z"
     sodipodi:nodetypes="sssssssssscccccssssssssssccccc" />
  <path
     d="m 5.4999998,10 c -0.8309999,0 -1.5,0.669 -1.5,1.500001 0,0.831 0.6690001,1.5 1.5,1.5 0.831,0 1.5,-0.669 1.5,-1.5 0,-0.831001 -0.669,-1.500001 -1.5,-1.500001 z m 0,1.000001 c 0.27614,0 0.5,0.22386 0.5,0.5 0,0.27614 -0.22386,0.5 -0.5,0.5 -0.27614,0 -0.5,-0.22386 -0.5,-0.5 0,-0.27614 0.22386,-0.5 0.5,-0.5 z m 3.5000001,0 v 1 H 18 v -1 z"
     style="color:#000000;display:inline;overflow:visible;visibility:visible;fill:#ffffff;fill-opacity:1;stroke:none;stroke-width:1;marker:none;enable-background:accumulate"
     id="path12689"
     sodipodi:nodetypes="ssssssssssccccc" />
  <path
     id="rect2630"
     style="opacity:0.3;fill:#ffffff;fill-opacity:1"
     d="m 3.9999999,1 c -1.6619983,0 -3,1.3380017 -3,2.9999997 v 1 c 0,-1.661998 1.3380017,-3 3,-3 H 18 c 1.661998,0 3,1.338002 3,3 v -1 C 21,2.3380017 19.661998,1 18,1 Z" />
  <path
     id="rect398"
     style="opacity:0.3;fill:#ffffff"
     d="m 1,17 v 1 c 0,1.661998 1.3380017,3 3,3 h 14 c 1.661998,0 3,-1.338002 3,-3 v -1 c 0,1.661998 -1.338002,3 -3,3 H 4 C 2.3380017,20 1,18.661998 1,17 Z" />
  <path
     id="rect899"
     style="opacity:0.5;fill:#000000;stroke:none"
     d="M 4,0 C 1.7840022,0 0,1.7840022 0,4 v 14 c 0,2.215998 1.7840022,4 4,4 h 14 c 2.215998,0 4,-1.784002 4,-4 V 4 C 22,1.7840022 20.215998,0 18,0 Z m 0,1 h 14 c 1.661998,0 3,1.3380017 3,3 v 14 c 0,1.661998 -1.338002,3 -3,3 H 4 C 2.3380017,21 1,19.661998 1,18 V 4 C 1,2.3380017 2.3380017,1 4,1 Z" />
</svg>
