<?xml version="1.0" encoding="UTF-8" standalone="no"?>
<!-- Created with Inkscape (http://www.inkscape.org/) -->

<svg
   width="22"
   height="22"
   viewBox="0 0 22 22.000001"
   version="1.1"
   id="svg5"
   sodipodi:docname="kontact.svg"
   inkscape:version="1.2.1 (9c6d41e410, 2022-07-14)"
   xmlns:inkscape="http://www.inkscape.org/namespaces/inkscape"
   xmlns:sodipodi="http://sodipodi.sourceforge.net/DTD/sodipodi-0.dtd"
   xmlns:xlink="http://www.w3.org/1999/xlink"
   xmlns="http://www.w3.org/2000/svg"
   xmlns:svg="http://www.w3.org/2000/svg">
  <sodipodi:namedview
     id="namedview7"
     pagecolor="#ffffff"
     bordercolor="#666666"
     borderopacity="1.0"
     inkscape:showpageshadow="2"
     inkscape:pageopacity="0.0"
     inkscape:pagecheckerboard="0"
     inkscape:deskcolor="#d1d1d1"
     inkscape:document-units="px"
     showgrid="false"
     inkscape:zoom="16.166667"
     inkscape:cx="3.1855669"
     inkscape:cy="16.237113"
     inkscape:window-width="1920"
     inkscape:window-height="1007"
     inkscape:window-x="0"
     inkscape:window-y="0"
     inkscape:window-maximized="1"
     inkscape:current-layer="svg5" />
  <defs
     id="defs2">
    <linearGradient
       inkscape:collect="always"
       xlink:href="#linearGradient986"
       id="linearGradient10386"
       x1="12"
       y1="23"
       x2="12"
       y2="1"
       gradientUnits="userSpaceOnUse"
       gradientTransform="translate(-1,-1)" />
    <linearGradient
       inkscape:collect="always"
       id="linearGradient986">
      <stop
         style="stop-color:#ffa12a;stop-opacity:1;"
         offset="0"
         id="stop982" />
      <stop
         style="stop-color:#ffdc75;stop-opacity:1;"
         offset="1"
         id="stop984" />
    </linearGradient>
  </defs>
  <rect
     style="fill:url(#linearGradient10386);fill-opacity:1;stroke:none"
     id="rect184"
     width="21"
     height="21"
     x="0.5"
     y="0.5"
     ry="3.5" />
  <path
     d="M 10.999956,5.0004809 C 7.1339679,5.0004809 4,8.1344489 4,12.000438 c 0,3.865989 3.1339679,6.999956 6.999956,6.999956 h 4.374973 c 0,0 0.820307,0 0.874994,-0.874994 0,-0.874995 -0.874994,-0.874995 -0.874994,-0.874995 h -4.374973 c -2.8994691,0 -5.2499669,-2.350497 -5.2499669,-5.249967 0,-2.89947 2.3504978,-5.2499679 5.2499669,-5.2499679 2.89947,0 5.249967,2.3504979 5.249967,5.2499679 v 0.874995 c 0,0.483242 -0.391752,0.874994 -0.874994,0.874994 -0.483242,0 -0.874995,-0.391752 -0.874995,-0.874994 v -0.874995 c 0,-1.932951 -1.567027,-3.4999791 -3.499978,-3.4999791 -1.93295,0 -3.4999779,1.5670281 -3.4999779,3.4999791 0,1.932951 1.5670279,3.499978 3.4999779,3.499978 0.91542,0 1.741502,-0.359535 2.365198,-0.934844 0.498747,0.592372 1.234617,0.934494 2.009862,0.934494 C 16.824707,15.500066 18,14.324774 18,12.875083 V 12.000087 C 18,8.1340989 14.866032,5.000131 11.000044,5.000131 Z m 0,5.2499671 c 0.966519,0 1.749989,0.783497 1.749989,1.74999 0,0.966493 -0.783496,1.749989 -1.749989,1.749989 -0.966492,0 -1.749989,-0.783496 -1.749989,-1.749989 0,-0.966493 0.783497,-1.74999 1.749989,-1.74999 z"
     style="opacity:0.2;fill:#000000;stroke-width:0.874995"
     id="path4907" />
  <path
     d="M 10.999956,4.0003499 C 7.1339679,4.0003499 4,7.1343178 4,11.000306 c 0,3.865989 3.1339679,6.999956 6.999956,6.999956 h 4.374973 c 0,0 0.820307,0 0.874994,-0.874994 0,-0.874995 -0.874994,-0.874995 -0.874994,-0.874995 h -4.374973 c -2.8994691,0 -5.2499669,-2.350497 -5.2499669,-5.249967 0,-2.8994691 2.3504978,-5.249967 5.2499669,-5.249967 2.89947,0 5.249967,2.3504979 5.249967,5.249967 v 0.874995 c 0,0.483242 -0.391752,0.874994 -0.874994,0.874994 -0.483242,0 -0.874995,-0.391752 -0.874995,-0.874994 v -0.874995 c 0,-1.93295 -1.567027,-3.499978 -3.499978,-3.499978 -1.93295,0 -3.4999779,1.567028 -3.4999779,3.499978 0,1.932951 1.5670279,3.499978 3.4999779,3.499978 0.91542,0 1.741502,-0.359535 2.365198,-0.934844 0.498747,0.592372 1.234617,0.934494 2.009862,0.934494 C 16.824707,14.499934 18,13.324642 18,11.874951 V 10.999956 C 18,7.1339678 14.866032,4 11.000044,4 Z m 0,5.2499671 c 0.966519,0 1.749989,0.783497 1.749989,1.749989 0,0.966493 -0.783496,1.749989 -1.749989,1.749989 -0.966492,0 -1.749989,-0.783496 -1.749989,-1.749989 0,-0.966492 0.783497,-1.749989 1.749989,-1.749989 z"
     style="fill:#4d4d4d;stroke-width:0.874995"
     id="path4721"
     sodipodi:nodetypes="csscccssssssssssscsssccsssss" />
  <path
     id="rect2630"
     style="opacity:0.3;fill:#ffffff;fill-opacity:1"
     d="m 3.9999999,1 c -1.6619983,0 -3,1.3380017 -3,2.9999997 v 1 c 0,-1.661998 1.3380017,-3 3,-3 H 18 c 1.661998,0 3,1.338002 3,3 v -1 C 21,2.3380017 19.661998,1 18,1 Z" />
  <path
     id="rect398"
     style="opacity:0.3;fill:#ffffff"
     d="m 1,17 v 1 c 0,1.661998 1.3380017,3 3,3 h 14 c 1.661998,0 3,-1.338002 3,-3 v -1 c 0,1.661998 -1.338002,3 -3,3 H 4 C 2.3380017,20 1,18.661998 1,17 Z" />
  <path
     id="rect899"
     style="opacity:0.5;fill:#000000;stroke:none"
     d="M 4,0 C 1.7840022,0 0,1.7840022 0,4 v 14 c 0,2.215998 1.7840022,4 4,4 h 14 c 2.215998,0 4,-1.784002 4,-4 V 4 C 22,1.7840022 20.215998,0 18,0 Z m 0,1 h 14 c 1.661998,0 3,1.3380017 3,3 v 14 c 0,1.661998 -1.338002,3 -3,3 H 4 C 2.3380017,21 1,19.661998 1,18 V 4 C 1,2.3380017 2.3380017,1 4,1 Z" />
</svg>
