<?xml version="1.0" encoding="UTF-8" standalone="no"?>
<!-- Created with Inkscape (http://www.inkscape.org/) -->

<svg
   width="22"
   height="22"
   viewBox="0 0 22 22.000001"
   version="1.1"
   id="svg5"
   sodipodi:docname="ktorrent.svg"
   inkscape:version="1.2.1 (9c6d41e410, 2022-07-14)"
   xmlns:inkscape="http://www.inkscape.org/namespaces/inkscape"
   xmlns:sodipodi="http://sodipodi.sourceforge.net/DTD/sodipodi-0.dtd"
   xmlns:xlink="http://www.w3.org/1999/xlink"
   xmlns="http://www.w3.org/2000/svg"
   xmlns:svg="http://www.w3.org/2000/svg">
  <sodipodi:namedview
     id="namedview7"
     pagecolor="#ffffff"
     bordercolor="#666666"
     borderopacity="1.0"
     inkscape:showpageshadow="2"
     inkscape:pageopacity="0.0"
     inkscape:pagecheckerboard="0"
     inkscape:deskcolor="#d1d1d1"
     inkscape:document-units="px"
     showgrid="false"
     inkscape:zoom="11.711456"
     inkscape:cx="4.8243361"
     inkscape:cy="7.5567034"
     inkscape:window-width="1920"
     inkscape:window-height="1007"
     inkscape:window-x="0"
     inkscape:window-y="0"
     inkscape:window-maximized="1"
     inkscape:current-layer="svg5" />
  <defs
     id="defs2">
    <linearGradient
       inkscape:collect="always"
       xlink:href="#linearGradient1265"
       id="linearGradient10386"
       x1="19"
       y1="23"
       x2="5"
       y2="1"
       gradientUnits="userSpaceOnUse"
       gradientTransform="translate(-1,-1)" />
    <linearGradient
       inkscape:collect="always"
       id="linearGradient1265">
      <stop
         style="stop-color:#2d7ff3;stop-opacity:1;"
         offset="0"
         id="stop1261" />
      <stop
         style="stop-color:#2cdbfa;stop-opacity:1;"
         offset="1"
         id="stop1263" />
    </linearGradient>
  </defs>
  <rect
     style="fill:url(#linearGradient10386);fill-opacity:1;stroke:none"
     id="rect184"
     width="21"
     height="21"
     x="0.5"
     y="0.5"
     ry="3.5" />
  <path
     d="m 7.9999999,4 v 6.609376 2.183594 c -0.259897,0.124169 -0.518981,0.415098 -0.740234,0.640625 -0.364088,0.370331 -0.68815,0.395871 -0.947266,0.173828 -0.258725,-0.221653 -0.03311,-0.825217 -0.332031,-1.431641 -0.298529,-0.606423 -0.8911001,-0.304277 -0.97461,0.105469 -0.08351,0.409745 0.749448,0.686556 0.587891,0.914062 -0.161557,0.227506 -0.807612,0.174962 -0.998047,-0.253906 -0.190044,-0.428867 -0.605086,-0.28832 -0.613281,0.0625 -0.0082,0.351211 0.321351,0.104554 0.578125,0.361328 l 6.6347661,6.634767 6.632812,-6.634767 c 0.780468,-0.780467 -0.112685,-0.445136 -0.296875,-0.269531 -0.183801,0.175606 -0.753192,0.317386 -0.820312,0.125 -0.06673,-0.192385 0.637309,-0.515061 0.83789,-0.732422 0.20058,-0.21736 0.39655,-0.834212 0.07227,-1.060547 -0.324288,-0.226336 -0.783012,0.181552 -0.982422,0.482422 -0.200579,0.300871 -0.02723,1.068594 -0.294922,1.302734 -0.2677,0.23414 -0.414893,0.0912 -0.464843,-0.109375 -0.05034,-0.20058 0.577861,-0.483312 0.314453,-0.982421 -0.263798,-0.49911 -0.751008,-0.272816 -0.976563,-0.03906 -0.225555,0.234141 0.134849,0.5949 0.21875,0.962891 0.08351,0.36799 -0.771038,0.35846 -1.105469,0.224609 C 14.183968,13.211055 14.081707,13.017609 14,12.814457 V 4 Z m -3.525391,6.000001 c -0.264062,0.0134 -0.474609,0.232625 -0.474609,0.5 0,0.275999 0.224,0.5 0.5,0.5 0.276,0 0.5,-0.224001 0.5,-0.5 0,-0.276 -0.224,-0.5 -0.5,-0.5 -0.0086,0 -0.01687,-4.32e-4 -0.025391,0 z m 2.72461,0 c -0.149543,0.0065 -0.324527,0.149683 -0.144531,0.347656 0.255603,0.281814 0.391959,0.78428 0.164062,0.884766 -0.229067,0.100485 -0.214082,-0.374606 -0.234375,-0.626954 -0.0199,-0.252347 -0.652578,-0.404584 -0.886719,-0.0918 -0.23414,0.312791 6.22e-4,0.650753 0.232422,0.718751 0.231799,0.06837 0.268498,0.324716 0.40625,0.591796 0.138143,0.267081 0.808758,0.200216 0.972657,0 C 7.8728829,11.624 7.9754609,11.25159 7.6562549,10.908201 7.3370429,10.564811 7.4339029,10.245593 7.3476609,10.07031 7.3262009,10.02649 7.2800309,10.00453 7.2285199,10 c -0.0096,-8.01e-4 -0.01933,-4.31e-4 -0.0293,0 z m 9.2753911,0 c -0.264063,0.0134 -0.47461,0.232625 -0.47461,0.5 0,0.275999 0.224,0.5 0.5,0.5 0.276,0 0.5,-0.224001 0.5,-0.5 0,-0.276 -0.224,-0.5 -0.5,-0.5 -0.0086,0 -0.01687,-4.32e-4 -0.02539,0 z m -1.789063,0.166015 c -0.180307,0.004 -0.258955,0.367776 -0.304687,0.710938 -0.04878,0.36604 -0.232656,0.744994 -0.07422,0.818359 0.219701,0.09756 0.331889,-0.504131 0.580078,-0.728515 0.248188,-0.224775 0.04316,-0.748096 -0.164063,-0.796875 -0.01295,-0.003 -0.02509,-0.0042 -0.03711,-0.0039 z M 3.3906249,11.218751 c -0.215409,0 -0.390625,0.175216 -0.390625,0.390625 0,0.21541 0.175216,0.390625 0.390625,0.390625 0.215409,0 0.390625,-0.175215 0.390625,-0.390625 0,-0.215409 -0.175216,-0.390625 -0.390625,-0.390625 z m 15.1992191,0.785156 c -0.206094,0.01046 -0.371094,0.181947 -0.371094,0.390625 0,0.21541 0.175215,0.388672 0.390625,0.388672 0.215409,0 0.390625,-0.173262 0.390625,-0.388672 0,-0.215409 -0.175216,-0.390625 -0.390625,-0.390625 -0.0067,0 -0.01288,-3.37e-4 -0.01953,0 z"
     style="opacity:0.2;fill:#000000;fill-opacity:1;stroke-width:2;stroke-linecap:round;stroke-linejoin:round"
     id="path3386" />
  <rect
     style="fill:#ffffff;fill-opacity:1;stroke-width:2;stroke-linecap:round;stroke-linejoin:round"
     id="rect919"
     width="6"
     height="10"
     x="8"
     y="3" />
  <path
     d="m 11.5,8.000192 c -0.264064,0.0134 -0.474609,0.232625 -0.474609,0.5000001 0,0.276 0.224,0.4999999 0.5,0.4999999 0.276,0 0.5,-0.2239999 0.5,-0.4999999 0,-0.2760001 -0.224,-0.5000001 -0.5,-0.5000001 -0.0086,0 -0.01687,-4.32e-4 -0.02539,0 z M 9.275391,9.990427 c -0.02615,0.0031 -0.05159,0.01056 -0.07617,0.02148 -0.197459,0.08663 -0.2634124,0.368952 -0.0039,0.960937 0.259896,0.591986 0.630666,1.002648 0.828125,0.916016 0.197463,-0.08663 0.146228,-0.636526 -0.113277,-1.228512 C 9.68304,10.142117 9.459582,9.969746 9.275391,9.99238 Z m -0.8593754,0.228547 c -0.2154094,-10e-7 -0.390625,0.175215 -0.390625,0.390624 0,0.215409 0.1752156,0.390625 0.390625,0.390625 0.2154093,0 0.390625,-0.175216 0.390625,-0.390625 0,-0.215409 -0.1752157,-0.390625 -0.390625,-0.390624 z m 4.4238284,0.117188 c -0.253656,0.01873 -0.504812,0.451863 -0.628906,0.751953 -0.142045,0.342626 0.02974,1.011187 -0.304688,1.261718 -0.33443,0.25092 -0.579073,0.25654 -0.746093,0.15625 -0.167021,-0.100291 0.14161,-0.08671 -0.04492,-0.46875 -0.186923,-0.382039 -0.63293,-0.262592 -0.75,0.03516 -0.117071,0.297749 0.124916,0.283379 0.04102,0.458984 -0.08351,0.175606 -0.7943,0.36666 -0.953125,-0.160156 -0.158832,-0.526816 -0.8776713,-0.292941 -0.417975,0.125 0.459696,0.417941 -0.1179787,0.642654 -0.5175787,0.328125 -0.3996001,-0.314919 5.3939997,-0.527782 5.2519537,-0.578122 -0.142045,-0.05034 -0.504758,0.278764 -0.964844,0.136719 -0.459696,-0.142046 -0.07759,-0.427289 0.06445,-0.761719 0.142045,-0.334431 0.367291,-1.139189 0.08008,-1.265625 -0.0359,-0.016 -0.07347,-0.02226 -0.109375,-0.01953 z"
     style="opacity:0.2;fill:#000000;fill-opacity:1"
     id="path3439" />
  <path
     d="M 11.474609,7.000192 C 11.210545,7.013592 11,7.232817 11,7.500192 c 0,0.276 0.224,0.5 0.5,0.5 0.276,0 0.5,-0.224 0.5,-0.5 0,-0.276 -0.224,-0.5 -0.5,-0.5 -0.0086,0 -0.01687,-4.32e-4 -0.02539,0 z M 9.25,8.9904273 c -0.02615,0.0031 -0.05159,0.01056 -0.07617,0.02148 -0.1974582,0.08663 -0.263412,0.368952 -0.0039,0.960937 C 9.429826,10.56483 9.800596,10.975492 9.998055,10.88886 10.195518,10.80223 10.144283,10.252334 9.884778,9.6603483 9.657649,9.142117 9.434191,8.9697463 9.25,8.9923803 Z m -4.7753906,0.0098 C 4.2105455,9.013627 4,9.232852 4,9.500227 c 0,0.276 0.224,0.5 0.5,0.5 0.276,0 0.5,-0.224 0.5,-0.5 0,-0.276 -0.224,-0.5 -0.5,-0.5 -0.00862,0 -0.016872,-4.317e-4 -0.025391,3e-7 z m 2.7246094,0 C 7.0496754,9.0067273 6.8746919,9.1499103 7.0546875,9.3478833 7.310291,9.6296973 7.4466469,10.132163 7.21875,10.232649 6.9896824,10.333135 7.0046672,9.8580443 6.984375,9.6056963 6.964473,9.3533483 6.3317969,9.2011083 6.0976562,9.5138963 c -0.2341407,0.312791 6.218e-4,0.6507517 0.2324219,0.7187497 0.2317992,0.06837 0.2684973,0.324716 0.40625,0.591797 0.138143,0.267081 0.8087579,0.200216 0.9726563,0 0.1638985,-0.200217 0.2664774,-0.572626 -0.052734,-0.9160157 -0.3192117,-0.34339 -0.222352,-0.662607 -0.3085938,-0.83789 -0.021463,-0.04382 -0.06763,-0.06578 -0.1191406,-0.07031 -0.00963,-8.021e-4 -0.019327,-4.321e-4 -0.029297,0 z m 9.2753902,0 C 16.210546,9.013627 16,9.232852 16,9.500227 c 0,0.276 0.224,0.5 0.5,0.5 0.276,0 0.5,-0.224 0.5,-0.5 0,-0.276 -0.224,-0.5 -0.5,-0.5 -0.0086,0 -0.01687,-4.317e-4 -0.02539,0 z m -1.789062,0.166016 c -0.180307,0.004 -0.258956,0.367775 -0.304688,0.710937 -0.04878,0.3660397 -0.232657,0.7449947 -0.07422,0.8183597 0.219702,0.09756 0.331889,-0.504131 0.580078,-0.7285157 0.248189,-0.224775 0.04316,-0.748096 -0.164063,-0.796875 -0.01295,-0.003 -0.02509,-0.0042 -0.03711,-0.0039 z m -6.294922,0.05273 C 8.1752156,9.218973 8,9.394189 8,9.609598 c 0,0.215409 0.1752156,0.390625 0.390625,0.390625 0.2154093,0 0.390625,-0.175216 0.390625,-0.390625 0,-0.215409 -0.1752157,-0.390625 -0.390625,-0.3906247 z m 4.423828,0.117188 c -0.253656,0.01873 -0.504812,0.451863 -0.628906,0.7519527 -0.142045,0.342626 0.02974,1.011188 -0.304688,1.261719 -0.33443,0.25092 -0.579073,0.25654 -0.746093,0.15625 -0.167021,-0.100291 0.14161,-0.08671 -0.04492,-0.46875 -0.186923,-0.38204 -0.63293,-0.262593 -0.75,0.03516 -0.117071,0.297749 0.124916,0.283379 0.04102,0.458984 -0.08351,0.175606 -0.7943,0.36666 -0.953125,-0.160156 -0.158832,-0.526817 -0.7228384,-1.10103 -0.8984439,-0.958984 -0.1756055,0.142045 0.020773,0.666043 0.4804689,1.083984 0.459696,0.417941 -0.1179783,0.642654 -0.5175783,0.328125 -0.3996001,-0.314919 -0.8687234,0.238652 -1.2324219,0.609375 -0.3640887,0.370332 -0.68815,0.395871 -0.9472656,0.173828 C 6.0537748,12.385996 6.2793882,11.782433 5.980469,11.176008 5.6819397,10.569584 5.0893698,10.871731 5.0058596,11.281477 c -0.08351,0.409746 0.7494476,0.686556 0.5878906,0.914063 -0.161557,0.227506 -0.8076125,0.174961 -0.9980469,-0.253907 -0.1900441,-0.428867 -0.6050863,-0.28832 -0.6132812,0.0625 -0.00819,0.351211 0.3213508,0.104554 0.578125,0.361328 l 6.6347659,6.634765 6.632812,-6.634765 c 0.780469,-0.780468 -0.112685,-0.445136 -0.296875,-0.269531 -0.183801,0.175606 -0.753192,0.317386 -0.820312,0.125 -0.06673,-0.192385 0.637309,-0.515061 0.83789,-0.732422 0.20058,-0.21736 0.396554,-0.834211 0.07227,-1.060546 -0.324289,-0.226336 -0.783016,0.181551 -0.982426,0.482421 -0.20058,0.300871 -0.02723,1.068594 -0.294922,1.302735 -0.267701,0.23414 -0.414894,0.0912 -0.464844,-0.109375 -0.05034,-0.200581 0.577861,-0.483312 0.314453,-0.982422 -0.263798,-0.49911 -0.751007,-0.272813 -0.976562,-0.03906 -0.225556,0.234141 0.134849,0.5949 0.21875,0.962891 0.08351,0.367991 -0.771038,0.35846 -1.105469,0.224609 -0.334428,-0.13385 -0.443891,-0.973097 -0.585937,-1.023437 -0.142045,-0.05034 -0.504758,0.278764 -0.964844,0.136719 -0.459696,-0.142046 -0.07759,-0.427288 0.06445,-0.761719 0.142045,-0.334431 0.367291,-1.139189 0.08008,-1.265625 -0.0359,-0.016 -0.07347,-0.02226 -0.109375,-0.01953 z M 3.390625,10.218973 C 3.1752156,10.218973 3,10.394189 3,10.609598 c 0,0.21541 0.1752156,0.390625 0.390625,0.390625 0.2154094,0 0.390625,-0.175215 0.390625,-0.390625 0,-0.215409 -0.1752156,-0.390625 -0.390625,-0.390625 z m 15.199219,0.785156 c -0.206094,0.01046 -0.371094,0.181947 -0.371094,0.390625 0,0.21541 0.175215,0.388672 0.390625,0.388672 0.215409,0 0.390625,-0.173262 0.390625,-0.388672 0,-0.215409 -0.175216,-0.390625 -0.390625,-0.390625 -0.0067,0 -0.01288,-3.37e-4 -0.01953,0 z"
     style="fill:#a6d7ff;fill-opacity:1"
     id="path449"
     sodipodi:nodetypes="sssssssccccccccsssscccccsccsscccssssssscscccccssssscccscsccssccccssccsccccssccccccsscccccssssssssssss" />
  <path
     id="rect2630"
     style="opacity:0.3;fill:#ffffff;fill-opacity:1"
     d="m 3.9999999,1 c -1.6619983,0 -3,1.3380017 -3,2.9999997 v 1 c 0,-1.661998 1.3380017,-3 3,-3 H 18 c 1.661998,0 3,1.338002 3,3 v -1 C 21,2.3380017 19.661998,1 18,1 Z" />
  <path
     id="rect398"
     style="opacity:0.3;fill:#ffffff"
     d="m 1,17 v 1 c 0,1.661998 1.3380017,3 3,3 h 14 c 1.661998,0 3,-1.338002 3,-3 v -1 c 0,1.661998 -1.338002,3 -3,3 H 4 C 2.3380017,20 1,18.661998 1,17 Z" />
  <path
     id="rect899"
     style="opacity:0.5;fill:#000000;stroke:none"
     d="M 4,0 C 1.7840022,0 0,1.7840022 0,4 v 14 c 0,2.215998 1.7840022,4 4,4 h 14 c 2.215998,0 4,-1.784002 4,-4 V 4 C 22,1.7840022 20.215998,0 18,0 Z m 0,1 h 14 c 1.661998,0 3,1.3380017 3,3 v 14 c 0,1.661998 -1.338002,3 -3,3 H 4 C 2.3380017,21 1,19.661998 1,18 V 4 C 1,2.3380017 2.3380017,1 4,1 Z" />
</svg>
