<?xml version="1.0" encoding="UTF-8" standalone="no"?>
<!-- Created with Inkscape (http://www.inkscape.org/) -->

<svg
   width="22"
   height="22"
   viewBox="0 0 22 22.000001"
   version="1.1"
   id="svg5"
   sodipodi:docname="kvantum.svg"
   inkscape:version="1.2.1 (9c6d41e410, 2022-07-14)"
   xmlns:inkscape="http://www.inkscape.org/namespaces/inkscape"
   xmlns:sodipodi="http://sodipodi.sourceforge.net/DTD/sodipodi-0.dtd"
   xmlns:xlink="http://www.w3.org/1999/xlink"
   xmlns="http://www.w3.org/2000/svg"
   xmlns:svg="http://www.w3.org/2000/svg">
  <sodipodi:namedview
     id="namedview7"
     pagecolor="#ffffff"
     bordercolor="#666666"
     borderopacity="1.0"
     inkscape:showpageshadow="2"
     inkscape:pageopacity="0.0"
     inkscape:pagecheckerboard="0"
     inkscape:deskcolor="#d1d1d1"
     inkscape:document-units="px"
     showgrid="false"
     inkscape:zoom="16.5"
     inkscape:cx="-0.51515151"
     inkscape:cy="11"
     inkscape:window-width="1920"
     inkscape:window-height="1007"
     inkscape:window-x="0"
     inkscape:window-y="0"
     inkscape:window-maximized="1"
     inkscape:current-layer="svg5"
     showguides="false" />
  <defs
     id="defs2">
    <radialGradient
       inkscape:collect="always"
       xlink:href="#linearGradient1603"
       id="radialGradient11414"
       cx="-1.675118"
       cy="11.872787"
       fx="-1.675118"
       fy="11.872787"
       r="27.5"
       gradientUnits="userSpaceOnUse"
       gradientTransform="matrix(-0.31455421,0.31823185,-0.3832642,-0.37883519,5.325476,6.5847111)" />
    <linearGradient
       inkscape:collect="always"
       id="linearGradient1603">
      <stop
         style="stop-color:#ff910c;stop-opacity:1;"
         offset="0"
         id="stop1599" />
      <stop
         style="stop-color:#ff910c;stop-opacity:0;"
         offset="1"
         id="stop1601" />
    </linearGradient>
    <radialGradient
       inkscape:collect="always"
       xlink:href="#linearGradient3954"
       id="radialGradient11404"
       cx="57.208611"
       cy="56.943909"
       fx="57.208611"
       fy="56.943909"
       r="27.5"
       gradientUnits="userSpaceOnUse"
       gradientTransform="matrix(0.3709848,-0.38927795,0.3531005,0.3365074,-20.705339,23.632041)" />
    <linearGradient
       inkscape:collect="always"
       id="linearGradient3954">
      <stop
         style="stop-color:#24c2f5;stop-opacity:1;"
         offset="0"
         id="stop3950" />
      <stop
         style="stop-color:#24c2f5;stop-opacity:0;"
         offset="1"
         id="stop3952" />
    </linearGradient>
    <radialGradient
       inkscape:collect="always"
       xlink:href="#linearGradient5569"
       id="radialGradient11396"
       cx="8.0326223"
       cy="59.247375"
       fx="8.0326223"
       fy="59.247375"
       r="27.5"
       gradientUnits="userSpaceOnUse"
       gradientTransform="matrix(0.35101349,-0.35555083,0.41571691,0.41041174,-25.935374,-0.798269)" />
    <linearGradient
       inkscape:collect="always"
       id="linearGradient5569">
      <stop
         style="stop-color:#f5cc24;stop-opacity:1;"
         offset="0"
         id="stop5565" />
      <stop
         style="stop-color:#f5cc24;stop-opacity:0.00045133"
         offset="1"
         id="stop5567" />
    </linearGradient>
    <radialGradient
       inkscape:collect="always"
       xlink:href="#linearGradient7221"
       id="radialGradient11388"
       cx="32"
       cy="60"
       fx="32"
       fy="60"
       r="27.5"
       gradientUnits="userSpaceOnUse"
       gradientTransform="matrix(-0.38876032,0,0,-0.38181818,23.440327,23.218182)" />
    <linearGradient
       inkscape:collect="always"
       id="linearGradient7221">
      <stop
         style="stop-color:#ff2a2a;stop-opacity:1"
         offset="0"
         id="stop7217" />
      <stop
         style="stop-color:#ff2929;stop-opacity:0.00392157"
         offset="1"
         id="stop7219" />
    </linearGradient>
    <radialGradient
       inkscape:collect="always"
       xlink:href="#linearGradient10051"
       id="radialGradient11378"
       cx="6.5505433"
       cy="56.244072"
       fx="6.5505433"
       fy="56.244072"
       r="27.5"
       gradientUnits="userSpaceOnUse"
       gradientTransform="matrix(-0.27466856,-0.26487259,0.34565254,-0.35843612,3.075389,23.469827)" />
    <linearGradient
       inkscape:collect="always"
       id="linearGradient10051">
      <stop
         style="stop-color:#aa3ad4;stop-opacity:1"
         offset="0"
         id="stop10047" />
      <stop
         style="stop-color:#aa3ad4;stop-opacity:0"
         offset="1"
         id="stop10049" />
    </linearGradient>
    <radialGradient
       inkscape:collect="always"
       xlink:href="#linearGradient15132"
       id="radialGradient11244"
       cx="45.75"
       cy="51.798988"
       fx="45.75"
       fy="51.798988"
       r="27.5"
       gradientUnits="userSpaceOnUse"
       gradientTransform="matrix(-2.3605179e-8,0.38876032,-0.38876028,-6.7918398e-8,20.44648,-6.785781)" />
    <linearGradient
       inkscape:collect="always"
       id="linearGradient15132">
      <stop
         style="stop-color:#f5e224;stop-opacity:1;"
         offset="0"
         id="stop15128" />
      <stop
         style="stop-color:#f5e224;stop-opacity:0;"
         offset="1"
         id="stop15130" />
    </linearGradient>
    <radialGradient
       inkscape:collect="always"
       xlink:href="#linearGradient12059"
       id="radialGradient11234"
       cx="32"
       cy="60"
       fx="32"
       fy="60"
       r="27.5"
       gradientUnits="userSpaceOnUse"
       gradientTransform="matrix(0.38876032,0,0,0.38181818,-1.440331,-1.218181)" />
    <linearGradient
       inkscape:collect="always"
       id="linearGradient12059">
      <stop
         style="stop-color:#47c12a;stop-opacity:1;"
         offset="0"
         id="stop12055" />
      <stop
         style="stop-color:#47c12a;stop-opacity:0;"
         offset="1"
         id="stop12057" />
    </linearGradient>
  </defs>
  <rect
     style="fill:#ffffff;fill-opacity:1;stroke:none"
     id="rect184"
     width="21"
     height="21"
     x="0.5"
     y="0.5"
     ry="3.5" />
  <rect
     style="fill:url(#radialGradient11414);fill-opacity:1;stroke-width:0.381818;stroke-linejoin:round"
     id="rect10562"
     width="21"
     height="21"
     x="0.5"
     y="0.5"
     ry="3.5" />
  <rect
     style="fill:url(#radialGradient11404);fill-opacity:1;stroke-width:0.381818;stroke-linejoin:round"
     id="rect10564"
     width="21"
     height="21"
     x="0.5"
     y="0.5"
     ry="3.5" />
  <rect
     style="fill:url(#radialGradient11396);fill-opacity:1;stroke-width:0.381818;stroke-linejoin:round"
     id="rect10566"
     width="21"
     height="21"
     x="0.5"
     y="0.5"
     ry="3.5" />
  <rect
     style="fill:url(#radialGradient11388);fill-opacity:1;stroke-width:0.381818;stroke-linejoin:round"
     id="rect10568"
     width="21"
     height="21"
     x="0.5"
     y="0.5"
     ry="3.5" />
  <rect
     style="fill:url(#radialGradient11378);fill-opacity:1;stroke-width:0.381818;stroke-linejoin:round"
     id="rect10570"
     width="21"
     height="21"
     x="0.5"
     y="0.5"
     ry="3.5" />
  <rect
     style="fill:url(#radialGradient11244);fill-opacity:1;stroke-width:0.381818;stroke-linejoin:round"
     id="rect10572"
     width="21"
     height="21"
     x="0.5"
     y="0.5"
     ry="3.5"
     inkscape:label="rect10572" />
  <rect
     style="fill:url(#radialGradient11234);fill-opacity:1;stroke-width:0.381818;stroke-linejoin:round"
     id="rect10574"
     width="21"
     height="21"
     x="0.5"
     y="0.5"
     ry="3.5" />
  <path
     style="opacity:0.2"
     d="m 5.615319,7 9.7e-5,0.973351 0.804965,0.063143 0.1444,0.189409 L 5.129238,14.779154 4.908387,14.976506 4,15.040046 v 0.959898 L 7.999938,16 8.000062,15.040152 7.091866,14.984782 6.938969,14.779564 7.525086,12.003953 h 0.900365 l 1.291126,2.525564 c 0.5277,1.007123 0.897888,1.43889 2.038622,1.452249 0.327999,0.0039 0.459949,0.02629 1.344811,0 3.051955,-2.367516 4.609783,-4.371769 4.855914,-5.187674 0.149068,-0.494166 -0.0876,-0.797243 -0.594732,-0.797243 -0.247381,0 -0.530596,0.0968 -0.849264,0.29217 l -0.229342,1.896436 c -0.624618,0.75847 -1.457297,1.584681 -2.471815,2.446615 l 0.886364,-3.459613 c 0.139252,-0.666613 -0.138566,-1.022284 -0.604089,-1.160218 l -1.757271,0.426268 -0.110288,0.362985 0.959703,0.142154 c 0.06672,0.229817 -0.222526,0.929496 -0.368228,1.699573 l -0.467182,2.39133 c -0.0074,0.0246 -0.01201,0.05158 -0.01702,0.07892 -0.302929,-0.151233 -0.493889,-0.42053 -0.713518,-0.828663 l -1.826251,-3.393751 3.338202,-2.79128 0.868877,-0.1025926 -1.4e-4,-0.997066 -3.000005,2.75e-5 1.5e-4,0.9971155 0.585147,0.06306 0.08495,0.213107 L 8.14794,10.99909 H 7.723225 L 8.374426,8.226097 8.561299,8.036689 9.384631,7.97357 9.384545,7.0001185 Z"
     id="path9876" />
  <path
     style="fill:#ffffff"
     d="m 5.615319,6 9.7e-5,0.973351 0.804965,0.063143 0.1444,0.1894085 L 5.129238,13.779154 4.908387,13.976506 4,14.040046 v 0.959898 L 7.999938,15 8.000062,14.040152 7.091866,13.984782 6.938969,13.779564 7.525086,11.003953 h 0.900365 l 1.291126,2.525564 c 0.5277,1.007123 0.897888,1.43889 2.038622,1.452249 0.327999,0.0039 0.459949,0.02629 1.344811,0 3.051955,-2.367516 4.609783,-4.371769 4.855914,-5.187674 0.149068,-0.494166 -0.0876,-0.797243 -0.594732,-0.797243 -0.247381,0 -0.530596,0.0968 -0.849264,0.29217 l -0.229342,1.896436 c -0.624618,0.75847 -1.457297,1.584681 -2.471815,2.446615 l 0.886364,-3.459613 C 14.836387,9.505844 14.558569,9.150173 14.093046,9.012239 l -1.757271,0.426268 -0.110288,0.362985 0.959703,0.142154 c 0.06672,0.229817 -0.222526,0.929496 -0.368228,1.699573 l -0.467182,2.39133 c -0.0074,0.0246 -0.01201,0.05158 -0.01702,0.07892 -0.302929,-0.151233 -0.493889,-0.42053 -0.713518,-0.828663 l -1.826251,-3.393751 3.338202,-2.7912796 0.868877,-0.102593 -1.4e-4,-0.997066 -3.000005,2.75e-5 1.5e-4,0.9971155 0.585147,0.06306 0.08495,0.2131065 L 8.14794,9.99909 H 7.723225 L 8.374426,7.2260969 8.561299,7.0366894 9.384631,6.9735704 9.384545,6.0001189 Z"
     id="path9878" />
  <path
     id="rect2630"
     style="opacity:0.3;fill:#ffffff;fill-opacity:1"
     d="m 3.9999999,1 c -1.6619983,0 -3,1.3380017 -3,2.9999997 v 1 c 0,-1.661998 1.3380017,-3 3,-3 H 18 c 1.661998,0 3,1.338002 3,3 v -1 C 21,2.3380017 19.661998,1 18,1 Z" />
  <path
     id="rect398"
     style="opacity:0.3;fill:#ffffff"
     d="m 1,17 v 1 c 0,1.661998 1.3380017,3 3,3 h 14 c 1.661998,0 3,-1.338002 3,-3 v -1 c 0,1.661998 -1.338002,3 -3,3 H 4 C 2.3380017,20 1,18.661998 1,17 Z" />
  <path
     id="rect899"
     style="opacity:0.5;fill:#000000;stroke:none"
     d="M 4,0 C 1.7840022,0 0,1.7840022 0,4 v 14 c 0,2.215998 1.7840022,4 4,4 h 14 c 2.215998,0 4,-1.784002 4,-4 V 4 C 22,1.7840022 20.215998,0 18,0 Z m 0,1 h 14 c 1.661998,0 3,1.3380017 3,3 v 14 c 0,1.661998 -1.338002,3 -3,3 H 4 C 2.3380017,21 1,19.661998 1,18 V 4 C 1,2.3380017 2.3380017,1 4,1 Z" />
</svg>
