<?xml version="1.0" encoding="UTF-8" standalone="no"?>
<!-- Created with Inkscape (http://www.inkscape.org/) -->

<svg
   width="22"
   height="22"
   viewBox="0 0 22 22.000001"
   version="1.1"
   id="svg5"
   sodipodi:docname="libreoffice-draw.svg"
   inkscape:version="1.2.1 (9c6d41e410, 2022-07-14)"
   xmlns:inkscape="http://www.inkscape.org/namespaces/inkscape"
   xmlns:sodipodi="http://sodipodi.sourceforge.net/DTD/sodipodi-0.dtd"
   xmlns:xlink="http://www.w3.org/1999/xlink"
   xmlns="http://www.w3.org/2000/svg"
   xmlns:svg="http://www.w3.org/2000/svg">
  <sodipodi:namedview
     id="namedview7"
     pagecolor="#ffffff"
     bordercolor="#666666"
     borderopacity="1.0"
     inkscape:showpageshadow="2"
     inkscape:pageopacity="0.0"
     inkscape:pagecheckerboard="0"
     inkscape:deskcolor="#d1d1d1"
     inkscape:document-units="px"
     showgrid="false"
     inkscape:zoom="8.5520833"
     inkscape:cx="-9.7637029"
     inkscape:cy="0.8769793"
     inkscape:window-width="1920"
     inkscape:window-height="1007"
     inkscape:window-x="0"
     inkscape:window-y="0"
     inkscape:window-maximized="1"
     inkscape:current-layer="svg5"
     showguides="false" />
  <defs
     id="defs2">
    <linearGradient
       inkscape:collect="always"
       xlink:href="#linearGradient986"
       id="linearGradient10386"
       x1="19"
       y1="23"
       x2="5"
       y2="1"
       gradientUnits="userSpaceOnUse"
       gradientTransform="translate(-1,-1)" />
    <linearGradient
       inkscape:collect="always"
       id="linearGradient986">
      <stop
         style="stop-color:#ffa12a;stop-opacity:1;"
         offset="0"
         id="stop982" />
      <stop
         style="stop-color:#ffdc75;stop-opacity:1;"
         offset="1"
         id="stop984" />
    </linearGradient>
  </defs>
  <rect
     style="fill:url(#linearGradient10386);fill-opacity:1;stroke:none"
     id="rect184"
     width="21"
     height="21"
     x="0.5"
     y="0.5"
     ry="3.5" />
  <path
     d="m 15.229488,7.0007078 c -0.189314,0.0059 -0.387925,0.04986 -0.583972,0.158917 -0.638456,0.355132 -0.865223,1.089073 -0.853939,1.6868171 0.01128,0.5977441 0.17071,1.1828151 0.310176,1.7365981 0.139465,0.553782 0.258049,1.077002 0.261351,1.40919 0.0017,0.166095 -0.02402,0.273848 -0.04691,0.323579 -0.02289,0.04973 -0.02521,0.05833 -0.09573,0.09382 -0.138917,0.06992 -0.179007,0.06332 -0.244119,0.04787 -0.06511,-0.01545 -0.176356,-0.07052 -0.323578,-0.204869 -0.294444,-0.268697 -0.673181,-0.820684 -1.10093,-1.42068 C 12.124087,10.231956 11.634186,9.575901 10.955009,9.091524 10.275833,8.6071459 9.360389,8.3326908 8.345326,8.5640339 l -0.0134,0.0029 -0.0134,0.0038 C 7.625071,8.7586129 7.122939,9.282707 6.784883,9.89185 c -0.338057,0.609144 -0.540498,1.330997 -0.639497,2.09464 -0.02247,0.173344 0.01692,0.354542 0.0048,0.531319 -0.136198,-0.0049 -0.238514,-0.04003 -0.378146,-0.04308 L 4.716083,12.451749 4.030635,12.436429 4,13.808284 l 0.686406,0.01532 1.055935,0.02297 c 0.167604,0.0037 0.258989,0.03915 0.418354,0.04595 0.0895,0.925864 0.292648,1.824047 0.748633,2.561817 l 0.0134,0.02202 0.01532,0.02011 c 0.849074,1.16963 2.210745,1.615976 3.296089,1.192835 0.542672,-0.211567 1.008432,-0.724448 1.106674,-1.368979 0.09824,-0.644532 -0.114519,-1.344003 -0.601203,-2.099426 C 10.26156,13.478859 9.49782,13.041523 8.64784,12.804051 8.313126,12.710541 7.884355,12.723531 7.515318,12.674812 c 0.0083,-0.171135 -0.03007,-0.345774 -0.0086,-0.511215 0.08178,-0.630781 0.255173,-1.205416 0.477708,-1.606402 0.220488,-0.397297 0.461238,-0.592318 0.686406,-0.655771 0.636934,-0.139599 1.049526,-0.0052 1.487692,0.307303 0.443535,0.316321 0.868771,0.848339 1.276122,1.419721 0.40735,0.571383 0.784196,1.174235 1.292396,1.637994 0.2541,0.23188 0.556503,0.437291 0.93244,0.526532 0.375937,0.08924 0.804721,0.03111 1.178474,-0.157003 0.325479,-0.163818 0.585096,-0.442429 0.724699,-0.74576 0.139603,-0.303331 0.176233,-0.614012 0.173277,-0.91138 -0.0059,-0.594735 -0.163794,-1.176221 -0.303474,-1.730854 -0.13968,-0.554632 -0.261533,-1.082023 -0.268052,-1.4273791 -0.0065,-0.345356 0.01203,-0.385588 0.148386,-0.4614341 -0.06001,0.03338 -0.03904,0.0018 0.08999,0.03638 0.129027,0.03462 0.32266,0.1225621 0.505471,0.2297591 0.365621,0.214397 0.676832,0.4796231 0.676832,0.4796231 L 17.105853,9.551994 18,8.5113749 17.480169,8.0643018 c 0,0 -0.382786,-0.332909 -0.877872,-0.623223 -0.24754,-0.145155 -0.526093,-0.286063 -0.844362,-0.371443 -0.159135,-0.04269 -0.339133,-0.07486 -0.528447,-0.06893 z M 7.538294,14.044748 c 0.225305,0.03622 0.550561,0.02844 0.740017,0.08137 0.649265,0.181396 1.049385,0.437637 1.307713,0.838622 0.372353,0.577959 0.425865,0.967624 0.39825,1.148797 -0.02762,0.181172 -0.08031,0.231044 -0.248906,0.296772 C 9.40174,16.54038 8.58683,16.398999 8.067698,15.704756 7.811433,15.280344 7.633526,14.691503 7.538294,14.044745 Z"
     style="color:#000000;opacity:0.2;fill:#000000;stroke-width:0.490153;stroke-linecap:square;-inkscape-stroke:none"
     id="path1098" />
  <path
     style="color:#000000;opacity:1;fill:#ffffff;stroke-width:0.490153;stroke-linecap:square;-inkscape-stroke:none"
     d="m 15.229488,6.0007078 c -0.189314,0.0059 -0.387925,0.04986 -0.583972,0.158917 -0.638456,0.355132 -0.865223,1.089073 -0.853939,1.686817 0.01128,0.597744 0.17071,1.1828152 0.310176,1.7365982 0.139465,0.553782 0.258049,1.077002 0.261351,1.40919 0.0017,0.166094 -0.02402,0.273847 -0.04691,0.323578 -0.02289,0.04973 -0.02521,0.05833 -0.09573,0.09382 -0.138917,0.06992 -0.179007,0.06332 -0.244119,0.04787 -0.06511,-0.01545 -0.176356,-0.07052 -0.323578,-0.204869 C 13.358323,10.983933 12.979586,10.431946 12.551837,9.83195 12.124087,9.231956 11.634186,8.5759008 10.955009,8.0915238 10.275833,7.6071458 9.360389,7.3326908 8.345326,7.5640338 l -0.0134,0.0029 -0.0134,0.0038 C 7.625071,7.7586128 7.122939,8.2827068 6.784883,8.8918498 6.446826,9.500994 6.244385,10.222847 6.145386,10.98649 c -0.02247,0.173343 0.01692,0.354541 0.0048,0.531318 -0.136198,-0.0049 -0.238514,-0.04003 -0.378146,-0.04308 L 4.716083,11.451748 4.030635,11.436428 4,12.808283 l 0.686406,0.01532 1.055935,0.02297 c 0.167604,0.0037 0.258989,0.03915 0.418354,0.04595 0.0895,0.925864 0.292648,1.824047 0.748633,2.561817 l 0.0134,0.02202 0.01532,0.02011 c 0.849074,1.16963 2.210745,1.615976 3.296089,1.192835 0.542672,-0.211567 1.008432,-0.724448 1.106674,-1.368979 C 11.439051,14.675794 11.226292,13.976323 10.739608,13.2209 10.26156,12.478858 9.49782,12.041522 8.64784,11.80405 8.313126,11.71054 7.884355,11.72353 7.515318,11.674811 c 0.0083,-0.171135 -0.03007,-0.345774 -0.0086,-0.511215 0.08178,-0.63078 0.255173,-1.205415 0.477708,-1.606401 0.220488,-0.397297 0.461238,-0.5923182 0.686406,-0.6557712 0.636934,-0.139599 1.049526,-0.0052 1.487692,0.3073032 0.443535,0.316321 0.868771,0.848339 1.276122,1.419721 0.40735,0.571382 0.784196,1.174234 1.292396,1.637993 0.2541,0.23188 0.556503,0.437291 0.93244,0.526532 0.375937,0.08924 0.804721,0.03111 1.178474,-0.157003 0.325479,-0.163818 0.585096,-0.442429 0.724699,-0.74576 0.139603,-0.303331 0.176233,-0.614012 0.173277,-0.911379 -0.0059,-0.594735 -0.163794,-1.176221 -0.303474,-1.730854 -0.13968,-0.5546322 -0.261533,-1.0820232 -0.268052,-1.4273792 -0.0065,-0.345356 0.01203,-0.385588 0.148386,-0.461434 -0.06001,0.03338 -0.03904,0.0018 0.08999,0.03638 0.129027,0.03462 0.32266,0.122562 0.505471,0.229759 0.365621,0.214397 0.676832,0.479623 0.676832,0.479623 L 17.105853,8.5519938 18,7.5113748 17.480169,7.0643018 c 0,0 -0.382786,-0.332909 -0.877872,-0.623223 -0.24754,-0.145155 -0.526093,-0.286063 -0.844362,-0.371443 -0.159135,-0.04269 -0.339133,-0.07486 -0.528447,-0.06893 z M 7.538294,13.044747 c 0.225305,0.03622 0.550561,0.02844 0.740017,0.08137 0.649265,0.181396 1.049385,0.437637 1.307713,0.838622 0.372353,0.577959 0.425865,0.967624 0.39825,1.148797 -0.02762,0.181172 -0.08031,0.231044 -0.248906,0.296772 C 9.40174,15.540379 8.58683,15.398998 8.067698,14.704755 7.811433,14.280343 7.633526,13.691502 7.538294,13.044744 Z"
     id="path718"
     sodipodi:nodetypes="sccscscsssscccsscccccccccccssccccsccssssscscccsccccsssssccccccs" />
  <path
     id="rect2630"
     style="opacity:0.3;fill:#ffffff;fill-opacity:1"
     d="m 3.9999999,1 c -1.6619983,0 -3,1.3380017 -3,2.9999997 v 1 c 0,-1.661998 1.3380017,-3 3,-3 H 18 c 1.661998,0 3,1.338002 3,3 v -1 C 21,2.3380017 19.661998,1 18,1 Z" />
  <path
     id="rect398"
     style="opacity:0.3;fill:#ffffff"
     d="m 1,17 v 1 c 0,1.661998 1.3380017,3 3,3 h 14 c 1.661998,0 3,-1.338002 3,-3 v -1 c 0,1.661998 -1.338002,3 -3,3 H 4 C 2.3380017,20 1,18.661998 1,17 Z" />
  <path
     id="rect899"
     style="opacity:0.5;fill:#000000;stroke:none"
     d="M 4,0 C 1.7840022,0 0,1.7840022 0,4 v 14 c 0,2.215998 1.7840022,4 4,4 h 14 c 2.215998,0 4,-1.784002 4,-4 V 4 C 22,1.7840022 20.215998,0 18,0 Z m 0,1 h 14 c 1.661998,0 3,1.3380017 3,3 v 14 c 0,1.661998 -1.338002,3 -3,3 H 4 C 2.3380017,21 1,19.661998 1,18 V 4 C 1,2.3380017 2.3380017,1 4,1 Z" />
</svg>
