<?xml version="1.0" encoding="UTF-8" standalone="no"?>
<!-- Created with Inkscape (http://www.inkscape.org/) -->

<svg
   width="22"
   height="22"
   viewBox="0 0 22 22.000001"
   version="1.1"
   id="svg5"
   sodipodi:docname="maps-app.svg"
   inkscape:version="1.2.1 (9c6d41e410, 2022-07-14)"
   xmlns:inkscape="http://www.inkscape.org/namespaces/inkscape"
   xmlns:sodipodi="http://sodipodi.sourceforge.net/DTD/sodipodi-0.dtd"
   xmlns:xlink="http://www.w3.org/1999/xlink"
   xmlns="http://www.w3.org/2000/svg"
   xmlns:svg="http://www.w3.org/2000/svg">
  <sodipodi:namedview
     id="namedview7"
     pagecolor="#ffffff"
     bordercolor="#666666"
     borderopacity="1.0"
     inkscape:showpageshadow="2"
     inkscape:pageopacity="0.0"
     inkscape:pagecheckerboard="0"
     inkscape:deskcolor="#d1d1d1"
     inkscape:document-units="px"
     showgrid="false"
     inkscape:zoom="24.513036"
     inkscape:cx="2.631253"
     inkscape:cy="13.278649"
     inkscape:window-width="1920"
     inkscape:window-height="1007"
     inkscape:window-x="0"
     inkscape:window-y="0"
     inkscape:window-maximized="1"
     inkscape:current-layer="svg5"
     showguides="false" />
  <defs
     id="defs2">
    <linearGradient
       inkscape:collect="always"
       xlink:href="#linearGradient3670"
       id="linearGradient10386"
       x1="19"
       y1="23"
       x2="5"
       y2="1"
       gradientUnits="userSpaceOnUse"
       gradientTransform="translate(-1,-1)" />
    <linearGradient
       inkscape:collect="always"
       id="linearGradient3670">
      <stop
         style="stop-color:#ca3d3d;stop-opacity:1;"
         offset="0"
         id="stop3666" />
      <stop
         style="stop-color:#ed796c;stop-opacity:1;"
         offset="1"
         id="stop3668" />
    </linearGradient>
  </defs>
  <rect
     style="fill:url(#linearGradient10386);fill-opacity:1;stroke:none"
     id="rect184"
     width="21"
     height="21"
     x="0.5"
     y="0.5"
     ry="3.5" />
  <path
     id="path5820"
     style="opacity:0.2;fill:#000000;fill-opacity:1;stroke:none;stroke-width:0.944915;stroke-linecap:round;stroke-linejoin:round;stroke-miterlimit:10"
     d="M 11,5 C 8.2272782,5 6.0000002,7.00447 6.0000002,9.999999 c 0,3.928562 4.9999998,9 4.9999998,9 0,0 5,-5.071438 5,-9 C 15.999997,7.00447 13.772721,5 11,5 Z m 0,3 c 1.104569,0 2,0.8954315 2,1.999999 0,1.10457 -0.895431,2 -2,2 -1.104569,0 -2,-0.89543 -2,-2 C 9,8.8954315 9.895431,8 11,8 Z" />
  <path
     id="path5493"
     style="fill:#ffffff;fill-opacity:1;stroke:none;stroke-width:0.944915;stroke-linecap:round;stroke-linejoin:round;stroke-miterlimit:10"
     d="M 11,4 C 8.2272782,4 6.0000002,6.004469 6.0000002,8.9999995 6.0000002,12.928561 11,17.999999 11,17.999999 c 0,0 5,-5.071438 5,-8.9999995 C 15.999997,6.004469 13.772721,4 11,4 Z m 0,3 c 1.104569,0 2,0.895431 2,1.9999995 0,1.1045695 -0.895431,1.9999995 -2,1.9999995 -1.104569,0 -2,-0.89543 -2,-1.9999995 C 9,7.895431 9.895431,7 11,7 Z" />
  <path
     id="rect2630"
     style="opacity:0.3;fill:#ffffff;fill-opacity:1"
     d="m 3.9999999,1 c -1.6619983,0 -3,1.3380017 -3,2.9999997 v 1 c 0,-1.661998 1.3380017,-3 3,-3 H 18 c 1.661998,0 3,1.338002 3,3 v -1 C 21,2.3380017 19.661998,1 18,1 Z" />
  <path
     id="rect398"
     style="opacity:0.3;fill:#ffffff"
     d="m 1,17 v 1 c 0,1.661998 1.3380017,3 3,3 h 14 c 1.661998,0 3,-1.338002 3,-3 v -1 c 0,1.661998 -1.338002,3 -3,3 H 4 C 2.3380017,20 1,18.661998 1,17 Z" />
  <path
     id="rect899"
     style="opacity:0.5;fill:#000000;stroke:none"
     d="M 4,0 C 1.7840022,0 0,1.7840022 0,4 v 14 c 0,2.215998 1.7840022,4 4,4 h 14 c 2.215998,0 4,-1.784002 4,-4 V 4 C 22,1.7840022 20.215998,0 18,0 Z m 0,1 h 14 c 1.661998,0 3,1.3380017 3,3 v 14 c 0,1.661998 -1.338002,3 -3,3 H 4 C 2.3380017,21 1,19.661998 1,18 V 4 C 1,2.3380017 2.3380017,1 4,1 Z" />
</svg>
