<?xml version="1.0" encoding="UTF-8" standalone="no"?>
<!-- Created with Inkscape (http://www.inkscape.org/) -->

<svg
   width="22"
   height="22"
   viewBox="0 0 22 22.000001"
   version="1.1"
   id="svg5"
   sodipodi:docname="microsoft-edge-beta.svg"
   inkscape:version="1.2.1 (9c6d41e410, 2022-07-14)"
   xmlns:inkscape="http://www.inkscape.org/namespaces/inkscape"
   xmlns:sodipodi="http://sodipodi.sourceforge.net/DTD/sodipodi-0.dtd"
   xmlns:xlink="http://www.w3.org/1999/xlink"
   xmlns="http://www.w3.org/2000/svg"
   xmlns:svg="http://www.w3.org/2000/svg">
  <sodipodi:namedview
     id="namedview7"
     pagecolor="#ffffff"
     bordercolor="#666666"
     borderopacity="1.0"
     inkscape:showpageshadow="2"
     inkscape:pageopacity="0.0"
     inkscape:pagecheckerboard="0"
     inkscape:deskcolor="#d1d1d1"
     inkscape:document-units="px"
     showgrid="false"
     inkscape:zoom="17.333334"
     inkscape:cx="6.2596151"
     inkscape:cy="9.8942304"
     inkscape:window-width="1920"
     inkscape:window-height="1007"
     inkscape:window-x="0"
     inkscape:window-y="0"
     inkscape:window-maximized="1"
     inkscape:current-layer="svg5" />
  <defs
     id="defs2">
    <linearGradient
       inkscape:collect="always"
       id="linearGradient1140">
      <stop
         style="stop-color:#45a7e4;stop-opacity:1;"
         offset="0"
         id="stop1136" />
      <stop
         style="stop-color:#95d8f3;stop-opacity:1;"
         offset="1"
         id="stop1138" />
    </linearGradient>
    <linearGradient
       inkscape:collect="always"
       xlink:href="#linearGradient1140"
       id="linearGradient14257"
       x1="19"
       y1="23"
       x2="5"
       y2="1"
       gradientUnits="userSpaceOnUse"
       gradientTransform="translate(-1,-1)" />
  </defs>
  <rect
     style="fill:url(#linearGradient14257);fill-opacity:1;stroke:none"
     id="rect184"
     width="21"
     height="21"
     x="0.5"
     y="0.5"
     ry="3.5" />
  <path
     d="M 10.215216,14.393949 C 9.732322,13.855066 9.403393,13.211204 9.298414,12.49036 c -0.209953,0.32193 -0.384915,0.671854 -0.510888,1.049773 -0.64386,1.924584 0.475896,4.325063 2.379484,5.02491 1.637644,0.545882 3.478245,-0.426907 4.688982,-1.490677 0.181961,-0.244946 1.616649,-1.511672 0.902804,-1.651641 -2.113541,1.084765 -4.912934,0.776831 -6.54358,-1.028776 m 0.419909,-4.06612 c 0.727843,-0.007 0.028,-0.300935 -0.272941,-0.524886 C 9.634342,9.40403 8.780527,9.208072 7.954707,9.208072 c -2.694415,0.028 -4.6434919,1.714627 -3.7301898,4.507023 0.6578573,2.715412 3.0163448,4.898938 5.8017398,5.248861 -1.434689,-0.902803 -2.3025,-2.596436 -2.3025,-4.283069 0.05599,-1.770618 1.147751,-3.849167 2.911368,-4.353058 M 4.560444,9.40403 c 2.127538,-1.567661 5.514803,-1.441689 7.348405,0.531885 0.713844,0.776831 1.203739,2.099544 0.55288,3.058336 -1.217737,1.315716 2.155532,1.490678 2.876375,1.29472 2.617432,-0.50389 3.310282,-3.548231 2.064552,-5.647777 C 16.212914,6.261712 13.574487,5.015982 10.985049,5.036977 8.143666,4.987977 5.589221,6.786597 4.560444,9.40403 Z"
     id="path534"
     style="opacity:0.2;fill:#000000;stroke-width:0.699846" />
  <path
     d="M 10.215217,13.39397 C 9.732322,12.855087 9.403392,12.211225 9.298416,11.490382 c -0.209956,0.32193 -0.384918,0.671854 -0.510891,1.049773 -0.6438595,1.924582 0.475898,4.325063 2.379485,5.02491 1.637645,0.545882 3.478244,-0.426908 4.688982,-1.490677 0.181962,-0.244948 1.61665,-1.511672 0.902804,-1.651641 -2.113542,1.084764 -4.912933,0.776831 -6.543579,-1.028777 m 0.419908,-4.066118 c 0.727843,-0.007 0.02799,-0.300934 -0.272939,-0.5248843 C 9.634343,8.4040517 8.780527,8.2080937 7.9547065,8.2080937 5.2602925,8.2360837 3.3112153,9.922724 4.2245169,12.715116 4.8823742,15.430527 7.2408605,17.614053 10.026258,17.963977 8.591568,17.061173 7.7237565,15.367542 7.7237565,13.680907 7.7797465,11.910291 8.871506,9.831743 10.635125,9.327852 M 4.5604442,8.4040517 c 2.1275363,-1.56766 5.5148028,-1.441687 7.3484058,0.531885 0.713844,0.7768313 1.203737,2.0995443 0.552878,3.0583353 -1.217735,1.315716 2.155533,1.490677 2.876377,1.294721 2.617432,-0.503892 3.310281,-3.54823 2.064551,-5.6477743 C 16.212915,5.2617347 13.574487,4.0160046 10.985049,4.0369998 8.1436655,3.9880108 5.5892195,5.7866217 4.5604442,8.4040517 Z"
     id="path345"
     sodipodi:nodetypes="ccccccccccccccccccccc"
     style="fill:#ffffff;stroke-width:0.699846" />
  <path
     id="rect2630"
     style="opacity:0.3;fill:#ffffff;fill-opacity:1"
     d="m 3.9999999,1 c -1.6619983,0 -3,1.3380017 -3,2.9999997 v 1 c 0,-1.661998 1.3380017,-3 3,-3 H 18 c 1.661998,0 3,1.338002 3,3 v -1 C 21,2.3380017 19.661998,1 18,1 Z" />
  <path
     id="rect398"
     style="opacity:0.3;fill:#ffffff"
     d="m 1,17 v 1 c 0,1.661998 1.3380017,3 3,3 h 14 c 1.661998,0 3,-1.338002 3,-3 v -1 c 0,1.661998 -1.338002,3 -3,3 H 4 C 2.3380017,20 1,18.661998 1,17 Z" />
  <path
     id="rect899"
     style="opacity:0.5;fill:#000000;stroke:none"
     d="M 4,0 C 1.7840022,0 0,1.7840022 0,4 v 14 c 0,2.215998 1.7840022,4 4,4 h 14 c 2.215998,0 4,-1.784002 4,-4 V 4 C 22,1.7840022 20.215998,0 18,0 Z m 0,1 h 14 c 1.661998,0 3,1.3380017 3,3 v 14 c 0,1.661998 -1.338002,3 -3,3 H 4 C 2.3380017,21 1,19.661998 1,18 V 4 C 1,2.3380017 2.3380017,1 4,1 Z" />
</svg>
