<?xml version="1.0" encoding="UTF-8" standalone="no"?>
<!-- Created with Inkscape (http://www.inkscape.org/) -->

<svg
   width="22"
   height="22"
   viewBox="0 0 22 22.000001"
   version="1.1"
   id="svg5"
   sodipodi:docname="mpv.svg"
   inkscape:version="1.2.1 (9c6d41e410, 2022-07-14)"
   xmlns:inkscape="http://www.inkscape.org/namespaces/inkscape"
   xmlns:sodipodi="http://sodipodi.sourceforge.net/DTD/sodipodi-0.dtd"
   xmlns:xlink="http://www.w3.org/1999/xlink"
   xmlns="http://www.w3.org/2000/svg"
   xmlns:svg="http://www.w3.org/2000/svg">
  <sodipodi:namedview
     id="namedview7"
     pagecolor="#ffffff"
     bordercolor="#666666"
     borderopacity="1.0"
     inkscape:showpageshadow="2"
     inkscape:pageopacity="0.0"
     inkscape:pagecheckerboard="0"
     inkscape:deskcolor="#d1d1d1"
     inkscape:document-units="px"
     showgrid="false"
     inkscape:zoom="23.334524"
     inkscape:cx="8.1210142"
     inkscape:cy="10.220907"
     inkscape:window-width="1920"
     inkscape:window-height="1007"
     inkscape:window-x="0"
     inkscape:window-y="0"
     inkscape:window-maximized="1"
     inkscape:current-layer="svg5" />
  <defs
     id="defs2">
    <linearGradient
       inkscape:collect="always"
       xlink:href="#linearGradient6304"
       id="linearGradient10386"
       x1="19"
       y1="23"
       x2="5"
       y2="1"
       gradientUnits="userSpaceOnUse"
       gradientTransform="translate(-1,-1)" />
    <linearGradient
       inkscape:collect="always"
       id="linearGradient6304">
      <stop
         style="stop-color:#8d348e;stop-opacity:1;"
         offset="0"
         id="stop6300" />
      <stop
         style="stop-color:#c275c3;stop-opacity:1;"
         offset="1"
         id="stop6302" />
    </linearGradient>
  </defs>
  <rect
     style="fill:url(#linearGradient10386);fill-opacity:1;stroke:none"
     id="rect184"
     width="21"
     height="21"
     x="0.5"
     y="0.5"
     ry="3.5" />
  <path
     id="path4659"
     style="opacity:0.2;fill:#000000;stroke-width:1.4;stroke-linejoin:round"
     d="m 11,4.9999997 c -3.865988,0 -7,3.1340107 -7,6.9999993 0,3.86599 3.134012,7 7,7 3.86599,0 7,-3.13401 7,-7 0,-3.8659886 -3.13401,-6.9999993 -7,-6.9999993 z m -2.275391,3 c 0.127253,-0.0048 0.259944,0.0252 0.384766,0.097656 l 5.5,3.1992193 c 0.521955,0.303008 0.521955,1.103241 0,1.40625 l -5.5,3.199219 C 8.610085,16.192169 8.000853,15.805544 8,15.199219 V 8.8007814 C 8.000675,8.3460334 8.342851,8.0144045 8.724609,7.9999997 Z" />
  <path
     id="path4648"
     style="fill:#ffffff;stroke-width:1.4;stroke-linejoin:round"
     d="m 11,3.9999997 c -3.86599,0 -7,3.1340107 -7,6.9999993 0,3.86599 3.13401,7 7,7 3.86599,0 7,-3.13401 7,-7 0,-3.8659886 -3.13401,-6.9999993 -7,-6.9999993 z m -2.275391,3 c 0.127253,-0.0048 0.259944,0.0252 0.384766,0.097656 l 5.5,3.1992183 c 0.521955,0.303008 0.521955,1.103241 0,1.40625 l -5.5,3.199219 C 8.610085,15.192168 8.000853,14.805543 8,14.199218 V 7.8007809 C 8.000675,7.3460338 8.342851,7.0144045 8.724609,6.9999997 Z" />
  <path
     id="rect2630"
     style="opacity:0.3;fill:#ffffff;fill-opacity:1"
     d="m 3.9999999,1 c -1.6619983,0 -3,1.3380017 -3,2.9999997 v 1 c 0,-1.661998 1.3380017,-3 3,-3 H 18 c 1.661998,0 3,1.338002 3,3 v -1 C 21,2.3380017 19.661998,1 18,1 Z" />
  <path
     id="rect398"
     style="opacity:0.3;fill:#ffffff"
     d="m 1,17 v 1 c 0,1.661998 1.3380017,3 3,3 h 14 c 1.661998,0 3,-1.338002 3,-3 v -1 c 0,1.661998 -1.338002,3 -3,3 H 4 C 2.3380017,20 1,18.661998 1,17 Z" />
  <path
     id="rect899"
     style="opacity:0.5;fill:#000000;stroke:none"
     d="M 4,0 C 1.7840022,0 0,1.7840022 0,4 v 14 c 0,2.215998 1.7840022,4 4,4 h 14 c 2.215998,0 4,-1.784002 4,-4 V 4 C 22,1.7840022 20.215998,0 18,0 Z m 0,1 h 14 c 1.661998,0 3,1.3380017 3,3 v 14 c 0,1.661998 -1.338002,3 -3,3 H 4 C 2.3380017,21 1,19.661998 1,18 V 4 C 1,2.3380017 2.3380017,1 4,1 Z" />
</svg>
