<?xml version="1.0" encoding="UTF-8" standalone="no"?>
<!-- Created with Inkscape (http://www.inkscape.org/) -->

<svg
   width="22"
   height="22"
   viewBox="0 0 22 22.000001"
   version="1.1"
   id="svg5"
   sodipodi:docname="multimedia-audio-player.svg"
   inkscape:version="1.2.1 (9c6d41e410, 2022-07-14)"
   xmlns:inkscape="http://www.inkscape.org/namespaces/inkscape"
   xmlns:sodipodi="http://sodipodi.sourceforge.net/DTD/sodipodi-0.dtd"
   xmlns:xlink="http://www.w3.org/1999/xlink"
   xmlns="http://www.w3.org/2000/svg"
   xmlns:svg="http://www.w3.org/2000/svg">
  <sodipodi:namedview
     id="namedview7"
     pagecolor="#ffffff"
     bordercolor="#666666"
     borderopacity="1.0"
     inkscape:showpageshadow="2"
     inkscape:pageopacity="0.0"
     inkscape:pagecheckerboard="0"
     inkscape:deskcolor="#d1d1d1"
     inkscape:document-units="px"
     showgrid="false"
     inkscape:zoom="23.481838"
     inkscape:cx="8.0274806"
     inkscape:cy="8.3255834"
     inkscape:window-width="1920"
     inkscape:window-height="1007"
     inkscape:window-x="0"
     inkscape:window-y="0"
     inkscape:window-maximized="1"
     inkscape:current-layer="svg5" />
  <defs
     id="defs2">
    <linearGradient
       inkscape:collect="always"
       xlink:href="#linearGradient6732"
       id="linearGradient10386"
       x1="19"
       y1="23"
       x2="5"
       y2="1"
       gradientUnits="userSpaceOnUse"
       gradientTransform="translate(-1,-1)" />
    <linearGradient
       inkscape:collect="always"
       id="linearGradient6732">
      <stop
         style="stop-color:#ef3764;stop-opacity:1;"
         offset="0"
         id="stop6728" />
      <stop
         style="stop-color:#f79289;stop-opacity:1;"
         offset="1"
         id="stop6730" />
    </linearGradient>
  </defs>
  <rect
     style="fill:url(#linearGradient10386);fill-opacity:1;stroke:none"
     id="rect184"
     width="21"
     height="21"
     x="0.5"
     y="0.5"
     ry="3.5" />
  <path
     d="M 15.373757,5 8.998622,6.905274 C 8.444903,7.0536375 7.999599,7.643553 7.999599,8.216798 v 7.951171 c -0.5346091,-0.222685 -1.2005001,-0.221614 -1.8212891,0.003 -1.167687,0.425059 -1.846257,1.505873 -1.515625,2.414063 0.330513,0.908273 1.545142,1.300033 2.71289,0.875 C 8.331538,19.112072 8.98697,18.308497 8.974208,17.500071 v -0.002 L 8.998628,9.403522 14.99974,7.5294985 V 14.15918 c -0.530582,-0.213212 -1.185734,-0.20894 -1.796875,0.01172 -1.167687,0.425059 -1.846257,1.505873 -1.515625,2.414062 0.330513,0.908274 1.545142,1.300033 2.712891,0.875 1.072343,-0.391311 1.598629,-1.345053 1.568359,-2.21875 L 15.99876,5.8125 C 15.99876,5.382561 15.737794,5 15.37376,5 Z"
     style="color:#000000;clip-rule:nonzero;display:inline;overflow:visible;visibility:visible;opacity:0.2;isolation:auto;mix-blend-mode:normal;color-interpolation:sRGB;color-interpolation-filters:linearRGB;solid-color:#000000;solid-opacity:1;fill:#000000;fill-opacity:1;fill-rule:nonzero;stroke:none;stroke-width:0.5;stroke-linecap:butt;stroke-linejoin:miter;stroke-miterlimit:4;stroke-dasharray:none;stroke-dashoffset:0;stroke-opacity:1;marker:none;color-rendering:auto;image-rendering:auto;shape-rendering:auto;text-rendering:auto;enable-background:accumulate"
     id="path718"
     sodipodi:nodetypes="ccsccccccccccccccsc" />
  <path
     id="path5386"
     style="color:#000000;clip-rule:nonzero;display:inline;overflow:visible;visibility:visible;isolation:auto;mix-blend-mode:normal;color-interpolation:sRGB;color-interpolation-filters:linearRGB;solid-color:#000000;solid-opacity:1;fill:#ffffff;fill-opacity:1;fill-rule:nonzero;stroke:none;stroke-width:0.5;stroke-linecap:butt;stroke-linejoin:miter;stroke-miterlimit:4;stroke-dasharray:none;stroke-dashoffset:0;stroke-opacity:1;marker:none;color-rendering:auto;image-rendering:auto;shape-rendering:auto;text-rendering:auto;enable-background:accumulate"
     d="M 15.373757,4 8.998622,5.9052735 C 8.444903,6.053637 7.999599,6.6435525 7.999599,7.216797 v 7.951172 c -0.5346091,-0.222686 -1.2005001,-0.221615 -1.8212891,0.003 -1.167687,0.425058 -1.846257,1.505873 -1.515625,2.414062 0.330513,0.908273 1.545142,1.300033 2.71289,0.875 C 8.331538,18.112051 8.98697,17.308475 8.974208,16.50005 v -0.002 L 8.998628,8.403501 14.99974,6.529478 v 6.629705 c -0.530582,-0.213213 -1.185734,-0.20894 -1.796875,0.01172 -1.167687,0.425058 -1.846257,1.505872 -1.515625,2.414062 0.330513,0.908273 1.545142,1.300033 2.712891,0.875 1.072343,-0.391312 1.568359,-1.218753 1.568359,-2.21875 L 15.99876,4.8125 c 0,-0.4299388 -0.266025,-0.7520209 -0.625,-0.8125 z"
     sodipodi:nodetypes="ccscccccccccccccccc" />
  <path
     id="rect2630"
     style="opacity:0.3;fill:#ffffff;fill-opacity:1"
     d="m 3.9999999,1 c -1.6619983,0 -3,1.3380017 -3,2.9999997 v 1 c 0,-1.661998 1.3380017,-3 3,-3 H 18 c 1.661998,0 3,1.338002 3,3 v -1 C 21,2.3380017 19.661998,1 18,1 Z" />
  <path
     id="rect398"
     style="opacity:0.3;fill:#ffffff"
     d="m 1,17 v 1 c 0,1.661998 1.3380017,3 3,3 h 14 c 1.661998,0 3,-1.338002 3,-3 v -1 c 0,1.661998 -1.338002,3 -3,3 H 4 C 2.3380017,20 1,18.661998 1,17 Z" />
  <path
     id="rect899"
     style="opacity:0.5;fill:#000000;stroke:none"
     d="M 4,0 C 1.7840022,0 0,1.7840022 0,4 v 14 c 0,2.215998 1.7840022,4 4,4 h 14 c 2.215998,0 4,-1.784002 4,-4 V 4 C 22,1.7840022 20.215998,0 18,0 Z m 0,1 h 14 c 1.661998,0 3,1.3380017 3,3 v 14 c 0,1.661998 -1.338002,3 -3,3 H 4 C 2.3380017,21 1,19.661998 1,18 V 4 C 1,2.3380017 2.3380017,1 4,1 Z" />
</svg>
