<?xml version="1.0" encoding="UTF-8" standalone="no"?>
<!-- Created with Inkscape (http://www.inkscape.org/) -->

<svg
   width="22"
   height="22"
   viewBox="0 0 22 22.000001"
   version="1.1"
   id="svg5"
   sodipodi:docname="nvidia.svg"
   inkscape:version="1.2.1 (9c6d41e410, 2022-07-14)"
   xmlns:inkscape="http://www.inkscape.org/namespaces/inkscape"
   xmlns:sodipodi="http://sodipodi.sourceforge.net/DTD/sodipodi-0.dtd"
   xmlns:xlink="http://www.w3.org/1999/xlink"
   xmlns="http://www.w3.org/2000/svg"
   xmlns:svg="http://www.w3.org/2000/svg">
  <sodipodi:namedview
     id="namedview7"
     pagecolor="#ffffff"
     bordercolor="#666666"
     borderopacity="1.0"
     inkscape:showpageshadow="2"
     inkscape:pageopacity="0.0"
     inkscape:pagecheckerboard="0"
     inkscape:deskcolor="#d1d1d1"
     inkscape:document-units="px"
     showgrid="false"
     inkscape:zoom="22.863119"
     inkscape:cx="6.1015297"
     inkscape:cy="10.300432"
     inkscape:window-width="1920"
     inkscape:window-height="1007"
     inkscape:window-x="0"
     inkscape:window-y="0"
     inkscape:window-maximized="1"
     inkscape:current-layer="svg5" />
  <defs
     id="defs2">
    <linearGradient
       inkscape:collect="always"
       xlink:href="#4852"
       id="linearGradient10386"
       x1="19"
       y1="23"
       x2="5"
       y2="1"
       gradientUnits="userSpaceOnUse"
       gradientTransform="translate(-1,-1)" />
    <linearGradient
       inkscape:collect="always"
       id="4852">
      <stop
         style="stop-color:#333333;stop-opacity:1"
         offset="0"
         id="stop14555" />
      <stop
         style="stop-color:#666666;stop-opacity:1"
         offset="1"
         id="stop14557" />
    </linearGradient>
    <linearGradient
       inkscape:collect="always"
       xlink:href="#linearGradient1270"
       id="linearGradient1272"
       x1="25.461685"
       y1="29.79702"
       x2="14.742757"
       y2="22.65107"
       gradientUnits="userSpaceOnUse"
       gradientTransform="matrix(1.3993937,0,0,1.3993937,-17.63091,-25.697763)" />
    <linearGradient
       inkscape:collect="always"
       id="linearGradient1270">
      <stop
         style="stop-color:#80d935;stop-opacity:1;"
         offset="0"
         id="stop1266" />
      <stop
         style="stop-color:#afd65f;stop-opacity:1;"
         offset="1"
         id="stop1268" />
    </linearGradient>
  </defs>
  <rect
     style="fill:url(#linearGradient10386);fill-opacity:1;stroke:none"
     id="rect184"
     width="21"
     height="21"
     x="0.5"
     y="0.5"
     ry="3.5" />
  <path
     id="path1282"
     style="opacity:0.2;fill:#000000;fill-opacity:1;stroke-width:1.39939"
     d="m 9.001963,7 v 1.332031 c 3.329701,-0.03179 5.492187,2.81836 5.492187,2.81836 0,0 -2.552639,3.125 -5.210937,3.125 -0.24364,0 -0.06699,-0.02232 -0.28125,-0.06055 v 0.833984 c 0.1832,0.0234 -0.03218,0.03711 0.166016,0.03711 2.473797,0 4.263995,-1.272799 5.996093,-2.779297 0.28722,0.23176 1.463279,0.796119 1.705078,1.042968 -1.647098,1.389399 -5.486111,2.509766 -7.662109,2.509766 -0.20977,0 -0.0071,-0.01395 -0.205078,-0.0332 V 17 H 18.00001 V 7 Z m 0,8.826172 v -0.777344 c -3.027497,-0.383999 -4.46875,-3.746093 -4.46875,-3.746093 0,0 1.760953,-2.01611 4.46875,-2.22461 v 0.002 0.902344 c 0.1604,-0.0172 -0.08086,-0.0293 0.08984,-0.0293 1.570698,0 2.501953,1.230469 2.501953,1.230469 l -1.275391,1.085937 C 9.744467,11.305726 9.956509,10.879926 9.00196,10.763716 v 2.738281 C 7.71207,13.065398 6.888678,11.548872 6.888678,11.548872 c 0,0 1.151727,-0.900936 2.109376,-0.785156 h 0.0039 v -0.78125 c -1.824598,0.1988 -3.328125,1.425781 -3.328125,1.425781 0,0 1.039927,2.395641 3.328125,2.806641 V 13.50395 c 0.216351,0.0733 0.0522,0.115235 0.320313,0.115235 1.862898,0 3.599609,-2.429688 3.599609,-2.429688 0,0 -1.547173,-2.11679 -3.919922,-2.125 v 0.01172 c -0.0497,-0.0039 -0.20728,-0.0076 -0.140625,-0.0098 0.04716,-0.0015 0.0941,-0.0021 0.140625,-0.002 V 8.34762 C 6.002356,8.59012 3,11.148402 3,11.148402 c 0,0 1.876457,4.285334 6.001953,4.677734 z m 0,-7.478516 c 0.02201,-0.0017 0.01592,-0.0024 0,-0.0039 z m 0,-0.0039 v -0.01172 c -0.0469,4.48e-4 -0.09327,-0.0016 -0.140625,0 -0.0658,0.0023 0.09131,0.0072 0.140625,0.01172 z" />
  <path
     id="path353"
     style="fill:url(#linearGradient1272);fill-opacity:1;stroke-width:1.39939"
     d="m 9.001963,6 v 1.332031 c 3.329701,-0.03179 5.492187,2.81836 5.492187,2.81836 0,0 -2.552639,3.125 -5.210937,3.125 -0.24364,0 -0.06699,-0.02232 -0.28125,-0.06055 v 0.833984 c 0.1832,0.0234 -0.03218,0.03711 0.166016,0.03711 2.473797,0 4.263995,-1.272799 5.996093,-2.779297 0.28722,0.23176 1.463279,0.796119 1.705078,1.042968 -1.647098,1.389399 -5.486111,2.509766 -7.662109,2.509766 -0.20977,0 -0.0071,-0.01395 -0.205078,-0.0332 V 16 H 18.00001 V 6 Z m 0,8.826172 v -0.777344 c -3.027497,-0.383999 -4.46875,-3.746093 -4.46875,-3.746093 0,0 1.760953,-2.01611 4.46875,-2.22461 v 0.002 0.902344 c 0.1604,-0.0172 -0.08086,-0.0293 0.08984,-0.0293 1.570698,0 2.501953,1.230469 2.501953,1.230469 l -1.275391,1.085937 C 9.744467,10.305726 9.956509,9.879926 9.00196,9.763716 v 2.738281 C 7.71207,12.065398 6.888678,10.548872 6.888678,10.548872 c 0,0 1.151727,-0.900936 2.109376,-0.785156 h 0.0039 v -0.78125 c -1.824598,0.1988 -3.328125,1.425781 -3.328125,1.425781 0,0 1.039927,2.395641 3.328125,2.806641 V 12.50395 c 0.216351,0.0733 0.0522,0.115235 0.320313,0.115235 1.862898,0 3.599609,-2.429688 3.599609,-2.429688 0,0 -1.547173,-2.11679 -3.919922,-2.125 v 0.01172 c -0.0497,-0.0039 -0.20728,-0.0076 -0.140625,-0.0098 0.04716,-0.0015 0.0941,-0.0021 0.140625,-0.002 V 7.34762 C 6.002356,7.59012 3,10.148402 3,10.148402 c 0,0 1.876457,4.285334 6.001953,4.677734 z m 0,-7.478516 c 0.02201,-0.0017 0.01592,-0.0024 0,-0.0039 z m 0,-0.0039 v -0.01172 c -0.0469,4.48e-4 -0.09327,-0.0016 -0.140625,0 -0.0658,0.0023 0.09131,0.0072 0.140625,0.01172 z" />
  <path
     id="rect2630"
     style="opacity:0.3;fill:#ffffff;fill-opacity:1"
     d="m 3.9999999,1 c -1.6619983,0 -3,1.3380017 -3,2.9999997 v 1 c 0,-1.661998 1.3380017,-3 3,-3 H 18 c 1.661998,0 3,1.338002 3,3 v -1 C 21,2.3380017 19.661998,1 18,1 Z" />
  <path
     id="rect398"
     style="opacity:0.3;fill:#ffffff"
     d="m 1,17 v 1 c 0,1.661998 1.3380017,3 3,3 h 14 c 1.661998,0 3,-1.338002 3,-3 v -1 c 0,1.661998 -1.338002,3 -3,3 H 4 C 2.3380017,20 1,18.661998 1,17 Z" />
  <path
     id="rect899"
     style="opacity:0.5;fill:#000000;stroke:none"
     d="M 4,0 C 1.7840022,0 0,1.7840022 0,4 v 14 c 0,2.215998 1.7840022,4 4,4 h 14 c 2.215998,0 4,-1.784002 4,-4 V 4 C 22,1.7840022 20.215998,0 18,0 Z m 0,1 h 14 c 1.661998,0 3,1.3380017 3,3 v 14 c 0,1.661998 -1.338002,3 -3,3 H 4 C 2.3380017,21 1,19.661998 1,18 V 4 C 1,2.3380017 2.3380017,1 4,1 Z" />
</svg>
