<?xml version="1.0" encoding="UTF-8" standalone="no"?>
<!-- Created with Inkscape (http://www.inkscape.org/) -->

<svg
   width="22"
   height="22"
   viewBox="0 0 22 22.000001"
   version="1.1"
   id="svg5"
   sodipodi:docname="obsstudio.svg"
   inkscape:version="1.2.1 (9c6d41e410, 2022-07-14)"
   xmlns:inkscape="http://www.inkscape.org/namespaces/inkscape"
   xmlns:sodipodi="http://sodipodi.sourceforge.net/DTD/sodipodi-0.dtd"
   xmlns:xlink="http://www.w3.org/1999/xlink"
   xmlns="http://www.w3.org/2000/svg"
   xmlns:svg="http://www.w3.org/2000/svg">
  <sodipodi:namedview
     id="namedview7"
     pagecolor="#ffffff"
     bordercolor="#666666"
     borderopacity="1.0"
     inkscape:showpageshadow="2"
     inkscape:pageopacity="0.0"
     inkscape:pagecheckerboard="0"
     inkscape:deskcolor="#d1d1d1"
     inkscape:document-units="px"
     showgrid="false"
     inkscape:zoom="33"
     inkscape:cx="9.7121212"
     inkscape:cy="11.015152"
     inkscape:window-width="1920"
     inkscape:window-height="1007"
     inkscape:window-x="0"
     inkscape:window-y="0"
     inkscape:window-maximized="1"
     inkscape:current-layer="svg5" />
  <defs
     id="defs2">
    <linearGradient
       inkscape:collect="always"
       xlink:href="#4852"
       id="linearGradient10386"
       x1="19"
       y1="23"
       x2="5"
       y2="1"
       gradientUnits="userSpaceOnUse"
       gradientTransform="translate(-1,-1)" />
    <linearGradient
       inkscape:collect="always"
       id="4852">
      <stop
         style="stop-color:#333333;stop-opacity:1"
         offset="0"
         id="stop14555" />
      <stop
         style="stop-color:#666666;stop-opacity:1"
         offset="1"
         id="stop14557" />
    </linearGradient>
  </defs>
  <rect
     style="fill:url(#linearGradient10386);fill-opacity:1;stroke:none"
     id="rect184"
     width="21"
     height="21"
     x="0.5"
     y="0.5"
     ry="3.5" />
  <path
     d="m 7.8599119,18.621608 c 0.95103,-0.29175 2.0921001,-1.0927 2.6270001,-1.8438 l 0.17655,-0.24794 -0.22099,-0.66864 c -0.80723,-2.4424 0.65844,-4.905199 3.1714,-5.329099 1.8265,-0.30808 3.7428,0.80916 4.4035,2.567299 0.15729,0.41853 0.16209,0.42293 0.11092,0.1016 -0.15135,-0.95045 -0.62189,-1.826699 -1.3869,-2.582899 -0.79829,-0.78902 -1.7254,-1.2364 -2.8836,-1.3915 -0.35549,-0.04761 -0.39237,-0.03413 -0.52608,0.19223 -0.20615,0.34898 -0.80584,0.93281 -1.249,1.2159 -1.1936,0.76262 -3.0336,0.76294 -4.2301001,8.35e-4 -1.3517,-0.86102 -2.1162,-2.5100006 -1.8681,-4.0291006 0.13545,-0.82926 0.50057,-1.565 1.0826,-2.1814 0.42178,-0.44671 0.45033,-0.49596 0.20658,-0.35638 -0.41039,0.235 -1.371,1.2788 -1.6437,1.786 -0.31429,0.58457 -0.5695,1.6191 -0.56796,2.3024 0.001,0.5878606 0.15523,1.3684006 0.38118,1.9331006 0.13171,0.32916 0.14843,0.33954 0.6363,0.39473 0.27556,0.03117 0.71106,0.12895 0.96777,0.21727 2.2699001,0.780959 3.3409001,3.398799 2.2782001,5.568699 -0.7243301,1.479 -2.4012001,2.4314 -3.9686001,2.2538 -0.63795,-0.07228 -0.5703,0.01414 0.13702,0.17502 0.62683,0.14258 1.7698,0.10488 2.366,-0.07804 z"
     id="path395"
     style="opacity:0.2;fill:#000000" />
  <path
     d="m 7.8599119,17.622067 c 0.95103,-0.29175 2.0921001,-1.0927 2.6270001,-1.8438 l 0.17655,-0.24794 -0.22099,-0.66864 c -0.80723,-2.4424 0.65844,-4.9052 3.1714,-5.3291 1.8265,-0.30808 3.7428,0.80916 4.4035,2.5673 0.15729,0.41853 0.16209,0.42293 0.11092,0.1016 -0.15135,-0.95045 -0.62189,-1.8267 -1.3869,-2.5829 -0.79829,-0.78902 -1.7254,-1.2363998 -2.8836,-1.3914998 -0.35549,-0.04761 -0.39237,-0.03413 -0.52608,0.1922296 -0.20615,0.3489802 -0.80584,0.9328102 -1.249,1.2159002 -1.1936,0.76262 -3.0336,0.76294 -4.2301001,8.35e-4 -1.3517,-0.86102 -2.1162,-2.5099998 -1.8681,-4.0290998 0.13545,-0.82926 0.50057,-1.565 1.0826,-2.1814 0.42178,-0.44671 0.45033,-0.49596 0.20658,-0.35638 -0.41039,0.235 -1.371,1.2788 -1.6437,1.786 -0.31429,0.58457 -0.5695,1.6191 -0.56796,2.3024 0.001,0.58786 0.15523,1.3683996 0.38118,1.9330998 0.13171,0.32916 0.14843,0.33954 0.6363,0.39473 0.27556,0.03117 0.71106,0.12895 0.96777,0.21727 2.2699001,0.78096 3.3409001,3.3988 2.2782001,5.5687 -0.7243301,1.479 -2.4012001,2.4314 -3.9686001,2.2538 -0.63795,-0.07228 -0.5703,0.01414 0.13702,0.17502 0.62683,0.14258 1.7698,0.10488 2.366,-0.07804 z"
     id="path362"
     style="fill:#ffffff;enable-background:new" />
  <path
     id="rect2630"
     style="opacity:0.3;fill:#ffffff;fill-opacity:1"
     d="m 3.9999999,1 c -1.6619983,0 -3,1.3380017 -3,2.9999997 v 1 c 0,-1.661998 1.3380017,-3 3,-3 H 18 c 1.661998,0 3,1.338002 3,3 v -1 C 21,2.3380017 19.661998,1 18,1 Z" />
  <path
     id="rect398"
     style="opacity:0.3;fill:#ffffff"
     d="m 1,17 v 1 c 0,1.661998 1.3380017,3 3,3 h 14 c 1.661998,0 3,-1.338002 3,-3 v -1 c 0,1.661998 -1.338002,3 -3,3 H 4 C 2.3380017,20 1,18.661998 1,17 Z" />
  <path
     id="rect899"
     style="opacity:0.5;fill:#000000;stroke:none"
     d="M 4,0 C 1.7840022,0 0,1.7840022 0,4 v 14 c 0,2.215998 1.7840022,4 4,4 h 14 c 2.215998,0 4,-1.784002 4,-4 V 4 C 22,1.7840022 20.215998,0 18,0 Z m 0,1 h 14 c 1.661998,0 3,1.3380017 3,3 v 14 c 0,1.661998 -1.338002,3 -3,3 H 4 C 2.3380017,21 1,19.661998 1,18 V 4 C 1,2.3380017 2.3380017,1 4,1 Z" />
</svg>
