<?xml version="1.0" encoding="UTF-8" standalone="no"?>
<!-- Created with Inkscape (http://www.inkscape.org/) -->

<svg
   width="22"
   height="22"
   viewBox="0 0 22 22.000001"
   version="1.1"
   id="svg5"
   sodipodi:docname="office-address-book.svg"
   inkscape:version="1.2.1 (9c6d41e410, 2022-07-14)"
   xmlns:inkscape="http://www.inkscape.org/namespaces/inkscape"
   xmlns:sodipodi="http://sodipodi.sourceforge.net/DTD/sodipodi-0.dtd"
   xmlns:xlink="http://www.w3.org/1999/xlink"
   xmlns="http://www.w3.org/2000/svg"
   xmlns:svg="http://www.w3.org/2000/svg">
  <sodipodi:namedview
     id="namedview7"
     pagecolor="#ffffff"
     bordercolor="#666666"
     borderopacity="1.0"
     inkscape:showpageshadow="2"
     inkscape:pageopacity="0.0"
     inkscape:pagecheckerboard="0"
     inkscape:deskcolor="#d1d1d1"
     inkscape:document-units="px"
     showgrid="false"
     inkscape:zoom="37.318182"
     inkscape:cx="11"
     inkscape:cy="11"
     inkscape:window-width="1920"
     inkscape:window-height="1007"
     inkscape:window-x="0"
     inkscape:window-y="0"
     inkscape:window-maximized="1"
     inkscape:current-layer="svg5"
     showguides="false" />
  <defs
     id="defs2">
    <linearGradient
       inkscape:collect="always"
       xlink:href="#linearGradient8443"
       id="linearGradient10386"
       x1="19"
       y1="23"
       x2="5"
       y2="1"
       gradientUnits="userSpaceOnUse"
       gradientTransform="translate(-1,-1)" />
    <linearGradient
       inkscape:collect="always"
       id="linearGradient8443">
      <stop
         style="stop-color:#3465c4;stop-opacity:1;"
         offset="0"
         id="stop8439" />
      <stop
         style="stop-color:#68b4f7;stop-opacity:1;"
         offset="1"
         id="stop8441" />
    </linearGradient>
  </defs>
  <rect
     style="fill:url(#linearGradient10386);fill-opacity:1.0;stroke:none"
     id="rect184"
     width="21"
     height="21"
     x="0.5"
     y="0.5"
     ry="3.5" />
  <path
     id="rect294"
     style="fill:#8ace64;fill-opacity:1;stroke-width:1.65803;stroke-linecap:round;stroke-linejoin:round"
     d="M 18,0.5 V 9 h 3.5 V 4 C 21.5,2.0610019 19.938998,0.5 18,0.5 Z"
     sodipodi:nodetypes="cccsc" />
  <rect
     style="fill:#e65b5b;fill-opacity:1;stroke-width:0.669244;stroke-linecap:round;stroke-linejoin:round"
     id="rect956"
     width="3.5"
     height="8"
     x="18"
     y="7" />
  <path
     id="rect1736"
     style="fill:#e6b45b;fill-opacity:1;stroke-width:1.4359;stroke-linecap:round;stroke-linejoin:round"
     inkscape:label="rect1736"
     d="M 18 14 L 18 21.5 C 19.938998 21.5 21.5 19.938998 21.5 18 L 21.5 14 L 18 14 z " />
  <path
     id="rect4024"
     style="opacity:0.2;fill:#000000;fill-opacity:1;stroke-width:1.55556;stroke-linecap:round;stroke-linejoin:round"
     d="m 18,7 v 1 h 3.5 V 7 Z m 0,7 v 1 h 3.5 v -1 z"
     sodipodi:nodetypes="cccccccccc" />
  <path
     d="m 10,6 c -3.313709,0 -6,2.6862917 -6,6.000001 0.003,3.28416 2.645752,5.955656 5.929687,5.994141 0.0231,0.0032 0.0463,0.0059 0.07031,0.0059 h 4.500001 c 0.276999,0 0.5,-0.223 0.5,-0.5 0,-0.277 -0.223001,-0.5 -0.5,-0.5 h -4.5 c -2.761424,0 -5,-2.238577 -5,-5 0,-2.7614246 2.238576,-5.0000009 5,-5.0000009 2.761424,0 5,2.2385763 5,5.0000009 v 1 c 0,0.553998 -0.446002,1 -1,1 -0.553998,0 -1,-0.446002 -1,-1 v -1 c 0,-1.656855 -1.343146,-3.0000008 -3,-3.0000008 -1.656854,0 -3,1.3431458 -3,3.0000008 0,1.656854 1.343146,3 3,3 0.863279,-3.44e-4 1.684569,-0.372558 2.253906,-1.021484 0.341637,0.610537 0.994016,1.021484 1.746094,1.021484 1.107998,0 2,-0.892002 2,-2 v -1 C 15.999998,8.6862917 13.313706,6 9.999998,6 Z m 0,4 c 1.104569,0 2,0.895431 2,2.000001 0,1.104569 -0.895431,2 -2,2 -1.10457,0 -2,-0.895431 -2,-2 C 8,10.895431 8.89543,10 10,10 Z"
     style="opacity:0.2;fill:#000000;stroke-linecap:round;stroke-linejoin:round"
     id="path6746" />
  <path
     id="path6522"
     style="fill:#ffffff;stroke-linecap:round;stroke-linejoin:round"
     d="M 10,5 C 6.6862915,5 4,7.6862915 4,11 4.00298,14.28416 6.6457516,16.955656 9.9296875,16.994141 9.9527827,16.997383 9.9759827,17 10,17 h 4.5 C 14.777,17 15,16.777 15,16.5 15,16.223 14.777,16 14.5,16 H 10 C 7.2385763,16 5,13.761424 5,11 5,8.2385763 7.2385763,6 10,6 c 2.761424,0 5,2.2385763 5,5 v 1 c 0,0.553998 -0.446002,1 -1,1 -0.553998,0 -1,-0.446002 -1,-1 V 11 C 13,9.3431458 11.656854,8 10,8 8.3431458,8 7,9.3431458 7,11 c 0,1.656854 1.3431458,3 3,3 0.863279,-3.44e-4 1.684569,-0.372557 2.253906,-1.021484 C 12.595543,13.589053 13.247922,14 14,14 c 1.107998,0 2,-0.892002 2,-2 V 11 C 16,7.6862915 13.313708,5 10,5 Z m 0,4 c 1.104569,0 2,0.8954305 2,2 0,1.104569 -0.895431,2 -2,2 C 8.8954305,13 8,12.104569 8,11 8,9.8954305 8.8954305,9 10,9 Z"
     sodipodi:nodetypes="sccssssssssssssssccsssssssss" />
  <path
     id="rect2630"
     style="opacity:0.3;fill:#ffffff;fill-opacity:1"
     d="m 3.9999999,1 c -1.6619983,0 -3,1.3380017 -3,2.9999997 v 1 c 0,-1.661998 1.3380017,-3 3,-3 H 18 c 1.661998,0 3,1.338002 3,3 v -1 C 21,2.3380017 19.661998,1 18,1 Z" />
  <path
     id="rect398"
     style="opacity:0.3;fill:#ffffff"
     d="m 1,17 v 1 c 0,1.661998 1.3380017,3 3,3 h 14 c 1.661998,0 3,-1.338002 3,-3 v -1 c 0,1.661998 -1.338002,3 -3,3 H 4 C 2.3380017,20 1,18.661998 1,17 Z" />
  <path
     id="rect899"
     style="opacity:0.5;fill:#000000;stroke:none"
     d="M 4,0 C 1.7840022,0 0,1.7840022 0,4 v 14 c 0,2.215998 1.7840022,4 4,4 h 14 c 2.215998,0 4,-1.784002 4,-4 V 4 C 22,1.7840022 20.215998,0 18,0 Z m 0,1 h 14 c 1.661998,0 3,1.3380017 3,3 v 14 c 0,1.661998 -1.338002,3 -3,3 H 4 C 2.3380017,21 1,19.661998 1,18 V 4 C 1,2.3380017 2.3380017,1 4,1 Z" />
</svg>
