<?xml version="1.0" encoding="UTF-8" standalone="no"?>
<!-- Created with Inkscape (http://www.inkscape.org/) -->

<svg
   width="22"
   height="22"
   viewBox="0 0 22 22.000001"
   version="1.1"
   id="svg5"
   sodipodi:docname="okular.svg"
   inkscape:version="1.2.1 (9c6d41e410, 2022-07-14)"
   xmlns:inkscape="http://www.inkscape.org/namespaces/inkscape"
   xmlns:sodipodi="http://sodipodi.sourceforge.net/DTD/sodipodi-0.dtd"
   xmlns:xlink="http://www.w3.org/1999/xlink"
   xmlns="http://www.w3.org/2000/svg"
   xmlns:svg="http://www.w3.org/2000/svg">
  <sodipodi:namedview
     id="namedview7"
     pagecolor="#ffffff"
     bordercolor="#666666"
     borderopacity="1.0"
     inkscape:showpageshadow="2"
     inkscape:pageopacity="0.0"
     inkscape:pagecheckerboard="0"
     inkscape:deskcolor="#d1d1d1"
     inkscape:document-units="px"
     showgrid="false"
     inkscape:zoom="8.3020833"
     inkscape:cx="0.24090339"
     inkscape:cy="25.355082"
     inkscape:window-width="1920"
     inkscape:window-height="1009"
     inkscape:window-x="0"
     inkscape:window-y="0"
     inkscape:window-maximized="1"
     inkscape:current-layer="svg5" />
  <defs
     id="defs2">
    <linearGradient
       inkscape:collect="always"
       id="linearGradient22024">
      <stop
         style="stop-color:#dfdfdf;stop-opacity:1;"
         offset="0"
         id="stop22020" />
      <stop
         style="stop-color:#f2f2f2;stop-opacity:1;"
         offset="1"
         id="stop22022" />
    </linearGradient>
    <linearGradient
       inkscape:collect="always"
       xlink:href="#linearGradient22024"
       id="linearGradient20044"
       x1="19"
       y1="23"
       x2="5"
       y2="1"
       gradientUnits="userSpaceOnUse"
       gradientTransform="translate(-1,-1)" />
    <linearGradient
       inkscape:collect="always"
       id="linearGradient1549">
      <stop
         style="stop-color:#358fe1;stop-opacity:1;"
         offset="0"
         id="stop1545" />
      <stop
         style="stop-color:#36c4f9;stop-opacity:1;"
         offset="1"
         id="stop1547" />
    </linearGradient>
    <linearGradient
       inkscape:collect="always"
       xlink:href="#linearGradient1549"
       id="linearGradient5694"
       x1="9"
       y1="16"
       x2="23"
       y2="1"
       gradientUnits="userSpaceOnUse"
       gradientTransform="translate(-1,-1)" />
  </defs>
  <rect
     style="fill:url(#linearGradient20044);fill-opacity:1;stroke:none"
     id="rect184"
     width="21"
     height="21"
     x="0.5"
     y="0.5"
     ry="3.5" />
  <path
     id="path5244"
     style="opacity:0.5;fill:#ffffff"
     d="M 12.542969,1.0039062 C 11.277981,2.1592141 10.207114,3.6947369 9.330078,5.4394531 7.9758497,8.13346 7.6536788,10.407873 8.375,12.273438 c 0.721312,1.865564 2.376862,3.035906 4.958984,3.513671 2.714096,0.502184 5.229172,0.117998 7.548828,-1.160156 0.193944,-0.106867 0.407677,-0.221452 0.617188,-0.339844 v -2.675781 c -0.726674,0.840146 -1.540687,1.542618 -2.337891,2.101563 -1.740565,1.220341 -3.537954,1.657464 -5.402343,1.3125 C 11.9861,14.697213 10.94467,13.724883 10.638672,12.109375 10.344705,10.487847 10.824474,8.4313995 12.080078,5.9335938 13.109671,3.885384 14.29631,2.1993369 15.644531,1.0039062 c -1.372621,0.010463 -1.585505,-0.011552 -3.101562,0 z" />
  <path
     id="path5053"
     style="fill:url(#linearGradient5694);fill-opacity:1"
     d="M 12.037109,0.5 C 10.990415,1.5843452 10.087348,2.9329918 9.330078,4.4394531 7.9758497,7.1334599 7.6536788,9.407874 8.375,11.273438 c 0.721312,1.865564 2.376862,3.035906 4.958984,3.513671 2.714096,0.502184 5.229172,0.117998 7.548828,-1.160156 0.193944,-0.106867 0.407677,-0.221452 0.617188,-0.339844 v -2.675781 c -0.726674,0.840145 -1.540687,1.542618 -2.337891,2.101563 -1.740565,1.220341 -3.537954,1.657464 -5.402343,1.3125 C 11.9861,13.697213 10.94467,12.724883 10.638672,11.109375 10.344705,9.487848 10.824474,7.4313993 12.080078,4.9335938 12.974674,3.1539388 13.988397,1.648771 15.123047,0.5 Z" />
  <path
     id="rect2630"
     style="opacity:0.3;fill:#ffffff;fill-opacity:1"
     d="m 3.9999999,1 c -1.6619983,0 -3,1.3380017 -3,2.9999997 v 1 c 0,-1.661998 1.3380017,-3 3,-3 H 18 c 1.661998,0 3,1.338002 3,3 v -1 C 21,2.3380017 19.661998,1 18,1 Z" />
  <path
     id="rect398"
     style="opacity:0.3;fill:#ffffff"
     d="m 1,17 v 1 c 0,1.661998 1.3380017,3 3,3 h 14 c 1.661998,0 3,-1.338002 3,-3 v -1 c 0,1.661998 -1.338002,3 -3,3 H 4 C 2.3380017,20 1,18.661998 1,17 Z" />
  <path
     id="rect899"
     style="opacity:0.5;fill:#000000;stroke:none"
     d="M 4,0 C 1.7840022,0 0,1.7840022 0,4 v 14 c 0,2.215998 1.7840022,4 4,4 h 14 c 2.215998,0 4,-1.784002 4,-4 V 4 C 22,1.7840022 20.215998,0 18,0 Z m 0,1 h 14 c 1.661998,0 3,1.3380017 3,3 v 14 c 0,1.661998 -1.338002,3 -3,3 H 4 C 2.3380017,21 1,19.661998 1,18 V 4 C 1,2.3380017 2.3380017,1 4,1 Z" />
</svg>
