<?xml version="1.0" encoding="UTF-8" standalone="no"?>
<!-- Created with Inkscape (http://www.inkscape.org/) -->

<svg
   width="22"
   height="22"
   viewBox="0 0 22 22.000001"
   version="1.1"
   id="svg5"
   sodipodi:docname="org.gnome.Software.svg"
   inkscape:version="1.2.1 (9c6d41e410, 2022-07-14)"
   xmlns:inkscape="http://www.inkscape.org/namespaces/inkscape"
   xmlns:sodipodi="http://sodipodi.sourceforge.net/DTD/sodipodi-0.dtd"
   xmlns:xlink="http://www.w3.org/1999/xlink"
   xmlns="http://www.w3.org/2000/svg"
   xmlns:svg="http://www.w3.org/2000/svg">
  <sodipodi:namedview
     id="namedview7"
     pagecolor="#ffffff"
     bordercolor="#666666"
     borderopacity="1.0"
     inkscape:showpageshadow="2"
     inkscape:pageopacity="0.0"
     inkscape:pagecheckerboard="0"
     inkscape:deskcolor="#d1d1d1"
     inkscape:document-units="px"
     showgrid="false"
     inkscape:zoom="33"
     inkscape:cx="9.7121212"
     inkscape:cy="11.015152"
     inkscape:window-width="1920"
     inkscape:window-height="1007"
     inkscape:window-x="0"
     inkscape:window-y="0"
     inkscape:window-maximized="1"
     inkscape:current-layer="svg5" />
  <defs
     id="defs2">
    <linearGradient
       inkscape:collect="always"
       xlink:href="#linearGradient1912"
       id="linearGradient10386"
       x1="19"
       y1="23"
       x2="5"
       y2="1"
       gradientUnits="userSpaceOnUse"
       gradientTransform="translate(-1,-1)" />
    <linearGradient
       inkscape:collect="always"
       xlink:href="#linearGradient24599"
       id="linearGradient24601"
       x1="10.627575"
       y1="4.2302613"
       x2="10.627575"
       y2="7.9344277"
       gradientUnits="userSpaceOnUse"
       gradientTransform="matrix(1.6197975,0,0,1.6197975,-2.1428567,-3.8571428)" />
    <linearGradient
       inkscape:collect="always"
       id="linearGradient24599">
      <stop
         style="stop-color:#404ce6;stop-opacity:1;"
         offset="0"
         id="stop24595" />
      <stop
         style="stop-color:#c061cb;stop-opacity:1"
         offset="1"
         id="stop24597" />
    </linearGradient>
    <linearGradient
       inkscape:collect="always"
       xlink:href="#linearGradient27108"
       id="linearGradient27110"
       x1="9.7895832"
       y1="11.292581"
       x2="13.493803"
       y2="11.292581"
       gradientUnits="userSpaceOnUse"
       gradientTransform="matrix(1.6197742,0,0,1.6197742,-2.1426533,-2.2907839)" />
    <linearGradient
       inkscape:collect="always"
       id="linearGradient27108">
      <stop
         style="stop-color:#33d1c6;stop-opacity:1;"
         offset="0"
         id="stop27104" />
      <stop
         style="stop-color:#1c25d8;stop-opacity:1"
         offset="1"
         id="stop27106" />
    </linearGradient>
    <linearGradient
       inkscape:collect="always"
       xlink:href="#linearGradient23632"
       id="linearGradient993"
       x1="4.2333331"
       y1="8.4666662"
       x2="8.4666662"
       y2="8.4666672"
       gradientUnits="userSpaceOnUse"
       gradientTransform="matrix(1.6197975,0,0,1.6197975,-2.857142,-2.7142865)" />
    <linearGradient
       inkscape:collect="always"
       id="linearGradient23632">
      <stop
         style="stop-color:#ed336c;stop-opacity:1;"
         offset="0"
         id="stop23628" />
      <stop
         style="stop-color:#ffa348;stop-opacity:1"
         offset="1"
         id="stop23630" />
    </linearGradient>
    <linearGradient
       inkscape:collect="always"
       id="linearGradient1912">
      <stop
         style="stop-color:#dfdfdf;stop-opacity:1;"
         offset="0"
         id="stop1908" />
      <stop
         style="stop-color:#f2f2f2;stop-opacity:1;"
         offset="1"
         id="stop1910" />
    </linearGradient>
  </defs>
  <rect
     style="fill:url(#linearGradient10386);fill-opacity:1;stroke:none"
     id="rect184"
     width="21"
     height="21"
     x="0.5"
     y="0.5"
     ry="3.5" />
  <path
     id="path3607"
     style="opacity:0.2;fill:#000000;fill-opacity:1;stroke-width:1.1403"
     d="m 15,4 a 3,3 0 0 0 -3,3 3,3 0 0 0 3,3 3,3 0 0 0 3,-3 3,3 0 0 0 -3,-3 z M 5.5,9 C 4.669,9 4,9.669002 4,10.5 v 3 C 4,14.330998 4.669,15 5.5,15 h 3 C 9.330998,15 10,14.330998 10,13.5 v -3 C 10,9.669002 9.330998,9 8.5,9 Z m 11.392578,4.708984 c -0.19334,-0.0034 -0.392593,0.04415 -0.580078,0.152344 l -3.75,2.166015 c -0.750057,0.43311 -0.750058,1.51416 0,1.947266 l 3.75,2.166016 c 0.750085,0.43287 1.687387,-0.108579 1.6875,-0.97461 v -4.330078 c -2.81e-4,-0.649403 -0.527404,-1.116796 -1.107422,-1.126953 z" />
  <circle
     style="fill:url(#linearGradient24601);fill-opacity:1;stroke-width:0.4887"
     id="path23832"
     cx="15"
     cy="6"
     r="3" />
  <path
     style="color:#000000;fill:url(#linearGradient27110);fill-opacity:1;stroke-width:0.178564;stroke-linecap:round;stroke-linejoin:round"
     d="m 16.312369,19.139974 c 0.750087,0.432872 1.687517,-0.108396 1.68763,-0.974427 l 2e-6,-4.330156 c -3.74e-4,-0.865873 -0.937684,-1.406867 -1.687632,-0.974072 l -3.749826,2.164725 c -0.750057,0.43311 -0.750058,1.515739 0,1.948847 z"
     id="path26141"
     sodipodi:nodetypes="ccccccc" />
  <rect
     style="fill:url(#linearGradient993);fill-opacity:1;stroke-width:0.428571;stroke-linejoin:round"
     id="rect985"
     width="6"
     height="6"
     x="4"
     y="8"
     ry="1.5" />
  <path
     id="rect2630"
     style="opacity:0.3;fill:#ffffff;fill-opacity:1"
     d="m 3.9999999,1 c -1.6619983,0 -3,1.3380017 -3,2.9999997 v 1 c 0,-1.661998 1.3380017,-3 3,-3 H 18 c 1.661998,0 3,1.338002 3,3 v -1 C 21,2.3380017 19.661998,1 18,1 Z" />
  <path
     id="rect398"
     style="opacity:0.3;fill:#ffffff"
     d="m 1,17 v 1 c 0,1.661998 1.3380017,3 3,3 h 14 c 1.661998,0 3,-1.338002 3,-3 v -1 c 0,1.661998 -1.338002,3 -3,3 H 4 C 2.3380017,20 1,18.661998 1,17 Z" />
  <path
     id="rect899"
     style="opacity:0.5;fill:#000000;stroke:none"
     d="M 4,0 C 1.7840022,0 0,1.7840022 0,4 v 14 c 0,2.215998 1.7840022,4 4,4 h 14 c 2.215998,0 4,-1.784002 4,-4 V 4 C 22,1.7840022 20.215998,0 18,0 Z m 0,1 h 14 c 1.661998,0 3,1.3380017 3,3 v 14 c 0,1.661998 -1.338002,3 -3,3 H 4 C 2.3380017,21 1,19.661998 1,18 V 4 C 1,2.3380017 2.3380017,1 4,1 Z" />
</svg>
