<?xml version="1.0" encoding="UTF-8" standalone="no"?>
<!-- Created with Inkscape (http://www.inkscape.org/) -->

<svg
   width="22"
   height="22"
   viewBox="0 0 22 22.000001"
   version="1.1"
   id="svg5"
   sodipodi:docname="plasma.svg"
   inkscape:version="1.2.1 (9c6d41e410, 2022-07-14)"
   xmlns:inkscape="http://www.inkscape.org/namespaces/inkscape"
   xmlns:sodipodi="http://sodipodi.sourceforge.net/DTD/sodipodi-0.dtd"
   xmlns:xlink="http://www.w3.org/1999/xlink"
   xmlns="http://www.w3.org/2000/svg"
   xmlns:svg="http://www.w3.org/2000/svg">
  <sodipodi:namedview
     id="namedview7"
     pagecolor="#ffffff"
     bordercolor="#666666"
     borderopacity="1.0"
     inkscape:showpageshadow="2"
     inkscape:pageopacity="0.0"
     inkscape:pagecheckerboard="0"
     inkscape:deskcolor="#d1d1d1"
     inkscape:document-units="px"
     showgrid="false"
     inkscape:zoom="33.416667"
     inkscape:cx="9.7406483"
     inkscape:cy="11.027431"
     inkscape:window-width="1920"
     inkscape:window-height="1007"
     inkscape:window-x="0"
     inkscape:window-y="0"
     inkscape:window-maximized="1"
     inkscape:current-layer="svg5" />
  <defs
     id="defs2">
    <linearGradient
       inkscape:collect="always"
       id="linearGradient1348">
      <stop
         style="stop-color:#2da4e8;stop-opacity:1;"
         offset="0"
         id="stop1344" />
      <stop
         style="stop-color:#67c0f0;stop-opacity:1;"
         offset="1"
         id="stop1346" />
    </linearGradient>
    <linearGradient
       inkscape:collect="always"
       xlink:href="#linearGradient1348"
       id="linearGradient10386"
       x1="19"
       y1="23"
       x2="5"
       y2="1"
       gradientUnits="userSpaceOnUse"
       gradientTransform="translate(-1,-1)" />
  </defs>
  <rect
     style="fill:url(#linearGradient10386);fill-opacity:1;stroke:none"
     id="rect184"
     width="21"
     height="21"
     x="0.5"
     y="0.5"
     ry="3.5" />
  <path
     d="M 7,5 C 6.446,5 6,5.446 6,6.0000001 c 0,0.554 0.446,1 1,1 0.554,0 1,-0.446 1,-1 C 8,5.446 7.554,5 7,5 Z M 13,5 11,7.0000001 14,10 l -3,3.000001 2,2 3,-3 L 18,10 16,7.9999997 Z M 5.5,10 C 4.6690062,10 4.0000002,10.668993 4.0000002,11.5 4.0000002,12.330994 4.6690062,13 5.5,13 6.331006,13 7,12.330994 7,11.5 7,10.668993 6.331006,10 5.5,10 Z M 9,15.000001 c -1.108,0 -2,0.892 -2,1.999999 0,1.108001 0.892,2 2,2 1.108,0 2,-0.891999 2,-2 0,-1.107999 -0.892,-1.999999 -2,-1.999999 z"
     style="opacity:0.2;fill:#000000"
     id="path3331" />
  <path
     d="m 6.9999998,4.0000001 c -0.554,0 -1,0.446 -1,1 0,0.554 0.446,1 1,1 0.554,0 1,-0.446 1,-1 0,-0.554 -0.446,-1 -1,-1 z m 6.0000002,0 -2,2 L 14,9 l -3,3 2,2 3,-3 2,-2 -2,-1.9999999 z M 5.4999998,9 c -0.830994,0 -1.5,0.668994 -1.5,1.5 0,0.830994 0.669006,1.5 1.5,1.5 0.831006,0 1.5,-0.669006 1.5,-1.5 0,-0.831006 -0.668994,-1.5 -1.5,-1.5 z M 9,14 c -1.1080002,0 -2.0000002,0.892 -2.0000002,2 0,1.108 0.892,2 2.0000002,2 1.108,0 2,-0.892 2,-2 0,-1.108 -0.892,-2 -2,-2 z"
     style="fill:#ffffff"
     id="path360"
     sodipodi:nodetypes="ssssscccccccccssssssssss" />
  <path
     id="rect2630"
     style="opacity:0.3;fill:#ffffff;fill-opacity:1"
     d="m 3.9999999,1 c -1.6619983,0 -3,1.3380017 -3,2.9999997 v 1 c 0,-1.661998 1.3380017,-3 3,-3 H 18 c 1.661998,0 3,1.338002 3,3 v -1 C 21,2.3380017 19.661998,1 18,1 Z" />
  <path
     id="rect398"
     style="opacity:0.3;fill:#ffffff"
     d="m 1,17 v 1 c 0,1.661998 1.3380017,3 3,3 h 14 c 1.661998,0 3,-1.338002 3,-3 v -1 c 0,1.661998 -1.338002,3 -3,3 H 4 C 2.3380017,20 1,18.661998 1,17 Z" />
  <path
     id="rect899"
     style="opacity:0.5;fill:#000000;stroke:none"
     d="M 4,0 C 1.7840022,0 0,1.7840022 0,4 v 14 c 0,2.215998 1.7840022,4 4,4 h 14 c 2.215998,0 4,-1.784002 4,-4 V 4 C 22,1.7840022 20.215998,0 18,0 Z m 0,1 h 14 c 1.661998,0 3,1.3380017 3,3 v 14 c 0,1.661998 -1.338002,3 -3,3 H 4 C 2.3380017,21 1,19.661998 1,18 V 4 C 1,2.3380017 2.3380017,1 4,1 Z" />
</svg>
