<?xml version="1.0" encoding="UTF-8" standalone="no"?>
<!-- Created with Inkscape (http://www.inkscape.org/) -->

<svg
   width="22"
   height="22"
   viewBox="0 0 22 22.000001"
   version="1.1"
   id="svg5"
   sodipodi:docname="pop-cosmic-applications.svg"
   inkscape:version="1.2.1 (9c6d41e410, 2022-07-14)"
   xmlns:inkscape="http://www.inkscape.org/namespaces/inkscape"
   xmlns:sodipodi="http://sodipodi.sourceforge.net/DTD/sodipodi-0.dtd"
   xmlns:xlink="http://www.w3.org/1999/xlink"
   xmlns="http://www.w3.org/2000/svg"
   xmlns:svg="http://www.w3.org/2000/svg">
  <sodipodi:namedview
     id="namedview7"
     pagecolor="#ffffff"
     bordercolor="#666666"
     borderopacity="1.0"
     inkscape:showpageshadow="2"
     inkscape:pageopacity="0.0"
     inkscape:pagecheckerboard="0"
     inkscape:deskcolor="#d1d1d1"
     inkscape:document-units="px"
     showgrid="false"
     inkscape:zoom="32.916667"
     inkscape:cx="9.5544303"
     inkscape:cy="12.01519"
     inkscape:window-width="1920"
     inkscape:window-height="1007"
     inkscape:window-x="0"
     inkscape:window-y="0"
     inkscape:window-maximized="1"
     inkscape:current-layer="svg5" />
  <defs
     id="defs2">
    <linearGradient
       inkscape:collect="always"
       xlink:href="#linearGradient47792"
       id="linearGradient10386"
       x1="19"
       y1="23"
       x2="5"
       y2="1"
       gradientUnits="userSpaceOnUse"
       gradientTransform="translate(-1,-1)" />
    <linearGradient
       inkscape:collect="always"
       id="linearGradient47792">
      <stop
         style="stop-color:#48b9c7;stop-opacity:1;"
         offset="0"
         id="stop47788" />
      <stop
         style="stop-color:#46d6eb;stop-opacity:1;"
         offset="1"
         id="stop47790" />
    </linearGradient>
  </defs>
  <rect
     style="fill:url(#linearGradient10386);fill-opacity:1;stroke:none"
     id="rect184"
     width="21"
     height="21"
     x="0.5"
     y="0.5"
     ry="3.5" />
  <path
     id="path599"
     style="opacity:0.2;fill:#000000;fill-opacity:1;stroke-width:4.5;stroke-linecap:round;stroke-linejoin:round"
     d="M 5.5,5 A 1.5,1.5 0 0 0 4,6.5 1.5,1.5 0 0 0 5.5,8 1.5,1.5 0 0 0 7,6.5 1.5,1.5 0 0 0 5.5,5 Z m 5,0 A 1.5,1.5 0 0 0 9,6.5 1.5,1.5 0 0 0 10.5,8 1.5,1.5 0 0 0 12,6.5 1.5,1.5 0 0 0 10.5,5 Z m 5,0 A 1.5,1.5 0 0 0 14,6.5 1.5,1.5 0 0 0 15.5,8 1.5,1.5 0 0 0 17,6.5 1.5,1.5 0 0 0 15.5,5 Z m -10,5 A 1.5,1.5 0 0 0 4,11.5 1.5,1.5 0 0 0 5.5,13 1.5,1.5 0 0 0 7,11.5 1.5,1.5 0 0 0 5.5,10 Z m 5,0 A 1.5,1.5 0 0 0 9,11.5 1.5,1.5 0 0 0 10.5,13 1.5,1.5 0 0 0 12,11.5 1.5,1.5 0 0 0 10.5,10 Z m 5,0 A 1.5,1.5 0 0 0 14,11.5 1.5,1.5 0 0 0 15.5,13 1.5,1.5 0 0 0 17,11.5 1.5,1.5 0 0 0 15.5,10 Z m -10,5 A 1.5,1.5 0 0 0 4,16.5 1.5,1.5 0 0 0 5.5,18 1.5,1.5 0 0 0 7,16.5 1.5,1.5 0 0 0 5.5,15 Z m 5,0 A 1.5,1.5 0 0 0 9,16.5 1.5,1.5 0 0 0 10.5,18 1.5,1.5 0 0 0 12,16.5 1.5,1.5 0 0 0 10.5,15 Z m 5,0 A 1.5,1.5 0 0 0 14,16.5 1.5,1.5 0 0 0 15.5,18 1.5,1.5 0 0 0 17,16.5 1.5,1.5 0 0 0 15.5,15 Z" />
  <path
     id="path1122"
     style="opacity:1;fill:#ffffff;fill-opacity:1;stroke-width:4.5;stroke-linecap:round;stroke-linejoin:round"
     d="M 5.5,4 A 1.5,1.5 0 0 0 4,5.5 1.5,1.5 0 0 0 5.5,7 1.5,1.5 0 0 0 7,5.5 1.5,1.5 0 0 0 5.5,4 Z m 5,0 A 1.5,1.5 0 0 0 9,5.5 1.5,1.5 0 0 0 10.5,7 1.5,1.5 0 0 0 12,5.5 1.5,1.5 0 0 0 10.5,4 Z m 5,0 A 1.5,1.5 0 0 0 14,5.5 1.5,1.5 0 0 0 15.5,7 1.5,1.5 0 0 0 17,5.5 1.5,1.5 0 0 0 15.5,4 Z M 5.5,9 A 1.5,1.5 0 0 0 4,10.5 1.5,1.5 0 0 0 5.5,12 1.5,1.5 0 0 0 7,10.5 1.5,1.5 0 0 0 5.5,9 Z m 5,0 A 1.5,1.5 0 0 0 9,10.5 1.5,1.5 0 0 0 10.5,12 1.5,1.5 0 0 0 12,10.5 1.5,1.5 0 0 0 10.5,9 Z m 5,0 A 1.5,1.5 0 0 0 14,10.5 1.5,1.5 0 0 0 15.5,12 1.5,1.5 0 0 0 17,10.5 1.5,1.5 0 0 0 15.5,9 Z m -10,5 A 1.5,1.5 0 0 0 4,15.5 1.5,1.5 0 0 0 5.5,17 1.5,1.5 0 0 0 7,15.5 1.5,1.5 0 0 0 5.5,14 Z m 5,0 A 1.5,1.5 0 0 0 9,15.5 1.5,1.5 0 0 0 10.5,17 1.5,1.5 0 0 0 12,15.5 1.5,1.5 0 0 0 10.5,14 Z m 5,0 A 1.5,1.5 0 0 0 14,15.5 1.5,1.5 0 0 0 15.5,17 1.5,1.5 0 0 0 17,15.5 1.5,1.5 0 0 0 15.5,14 Z" />
  <path
     id="rect2630"
     style="opacity:0.3;fill:#ffffff;fill-opacity:1"
     d="m 3.9999999,1 c -1.6619983,0 -3,1.3380017 -3,2.9999997 v 1 c 0,-1.661998 1.3380017,-3 3,-3 H 18 c 1.661998,0 3,1.338002 3,3 v -1 C 21,2.3380017 19.661998,1 18,1 Z" />
  <path
     id="rect398"
     style="opacity:0.3;fill:#ffffff"
     d="m 1,17 v 1 c 0,1.661998 1.3380017,3 3,3 h 14 c 1.661998,0 3,-1.338002 3,-3 v -1 c 0,1.661998 -1.338002,3 -3,3 H 4 C 2.3380017,20 1,18.661998 1,17 Z" />
  <path
     id="rect899"
     style="opacity:0.5;fill:#000000;stroke:none"
     d="M 4,0 C 1.7840022,0 0,1.7840022 0,4 v 14 c 0,2.215998 1.7840022,4 4,4 h 14 c 2.215998,0 4,-1.784002 4,-4 V 4 C 22,1.7840022 20.215998,0 18,0 Z m 0,1 h 14 c 1.661998,0 3,1.3380017 3,3 v 14 c 0,1.661998 -1.338002,3 -3,3 H 4 C 2.3380017,21 1,19.661998 1,18 V 4 C 1,2.3380017 2.3380017,1 4,1 Z" />
</svg>
