<?xml version="1.0" encoding="UTF-8" standalone="no"?>
<!-- Created with Inkscape (http://www.inkscape.org/) -->

<svg
   width="22"
   height="22"
   viewBox="0 0 22 22.000001"
   version="1.1"
   id="svg5"
   sodipodi:docname="preferences-system.svg"
   inkscape:version="1.2.1 (9c6d41e410, 2022-07-14)"
   xmlns:inkscape="http://www.inkscape.org/namespaces/inkscape"
   xmlns:sodipodi="http://sodipodi.sourceforge.net/DTD/sodipodi-0.dtd"
   xmlns:xlink="http://www.w3.org/1999/xlink"
   xmlns="http://www.w3.org/2000/svg"
   xmlns:svg="http://www.w3.org/2000/svg">
  <sodipodi:namedview
     id="namedview7"
     pagecolor="#ffffff"
     bordercolor="#666666"
     borderopacity="1.0"
     inkscape:showpageshadow="2"
     inkscape:pageopacity="0.0"
     inkscape:pagecheckerboard="0"
     inkscape:deskcolor="#d1d1d1"
     inkscape:document-units="px"
     showgrid="false"
     inkscape:zoom="6.128259"
     inkscape:cx="-33.696357"
     inkscape:cy="6.6087285"
     inkscape:window-width="1920"
     inkscape:window-height="1007"
     inkscape:window-x="0"
     inkscape:window-y="0"
     inkscape:window-maximized="1"
     inkscape:current-layer="svg5"
     showguides="false" />
  <defs
     id="defs2">
    <linearGradient
       inkscape:collect="always"
       xlink:href="#linearGradient2739"
       id="linearGradient10386"
       x1="19"
       y1="23"
       x2="5"
       y2="1"
       gradientUnits="userSpaceOnUse"
       gradientTransform="translate(-1,-1)" />
    <linearGradient
       inkscape:collect="always"
       id="linearGradient2739">
      <stop
         style="stop-color:#8a8a8a;stop-opacity:1;"
         offset="0"
         id="stop2735" />
      <stop
         style="stop-color:#c0c0c0;stop-opacity:1;"
         offset="1"
         id="stop2737" />
    </linearGradient>
  </defs>
  <rect
     style="fill:url(#linearGradient10386);fill-opacity:1;stroke:none"
     id="rect184"
     width="21"
     height="21"
     x="0.5"
     y="0.5"
     ry="3.5" />
  <path
     d="m 15.401961,6.6729147 c 0,0 -0.247349,0.1121437 -0.815325,0.5841778 -0.694602,0.5770794 -1.124748,0.5305574 -1.632913,0.4453641 l -0.004,0.00397 C 12.852923,7.6622452 12.755057,7.620844 12.655762,7.583695 V 7.579705 C 12.236107,7.2808434 11.899187,7.0092262 11.816065,6.109986 11.748065,5.3749237 11.652619,5.1203338 11.652619,5.1203338 11.37571,4.9999726 10.999358,5.0000111 10.999358,5.0000111 c 0,0 -0.376452,3.85e-5 -0.653152,0.1204245 0,0 -0.0957,0.2543761 -0.163523,0.9895714 -0.0831,0.8991982 -0.420216,1.1707071 -0.839677,1.4697153 l -7e-4,0.00501 c -0.0992,0.0371 -0.196787,0.078603 -0.29394,0.122745 l -0.004,-0.00397 C 8.53624,7.7888093 8.105936,7.8350615 7.411303,7.2580311 6.843537,6.7862878 6.596017,6.6738538 6.596017,6.6738538 6.315748,6.7839288 6.049692,7.0499842 6.049692,7.0499842 c 0,0 -0.266179,0.2661782 -0.376695,0.5470498 0,0 0.112396,0.2475862 0.584119,0.815335 0.577069,0.694592 0.530627,1.125077 0.445497,1.633043 l 0.004,0.004 c -0.044,0.0969 -0.0856,0.194694 -0.122874,0.293838 h -0.004 c -0.29878,0.419703 -0.570419,0.756626 -1.469589,0.839839 -0.735041,0.0679 -0.989799,0.163663 -0.989799,0.163663 -0.120274,0.277011 -0.120295,0.652823 -0.120295,0.652823 0,0 1.99e-4,0.376621 0.120494,0.653278 0,0 0.254317,0.09581 0.989502,0.163408 0.899149,0.0832 1.170347,0.420542 1.469565,0.839835 h 0.004 c 0.0372,0.09931 0.0787,0.196958 0.122717,0.293989 l -0.004,0.004 c 0.0855,0.508098 0.131673,0.938332 -0.445336,1.632892 -0.471723,0.567889 -0.584189,0.815786 -0.584189,0.815786 0.110926,0.280851 0.376712,0.546637 0.376712,0.546637 0,0 0.26627,0.26628 0.547046,0.376704 0,0 0.247499,-0.112024 0.815237,-0.584068 0.694655,-0.576989 1.125018,-0.530246 1.633032,-0.445434 l 0.004,-0.004 c 0.09721,0.04411 0.194726,0.0857 0.293989,0.122723 l -7e-4,0.005 c 0.419755,0.298837 0.756615,0.570416 0.839838,1.469558 0.0679,0.735083 0.163593,0.989918 0.163593,0.989918 0.277032,0.120057 0.652932,0.120235 0.652932,0.120235 0,0 0.376624,-1.01e-4 0.653173,-0.120644 0,0 0.0958,-0.254076 0.163506,-0.98939 0.0832,-0.899139 0.420661,-1.170458 0.839733,-1.469628 l -7e-4,-0.005 c 0.0992,-0.0371 0.196879,-0.0788 0.293961,-0.122762 l 0.004,0.004 c 0.508077,-0.0855 0.93829,-0.131645 1.632924,0.445392 0.567765,0.471737 0.815635,0.584261 0.815635,0.584261 0.280899,-0.111033 0.546717,-0.376844 0.546717,-0.376844 0,0 0.266266,-0.266266 0.376722,-0.547078 0,0 -0.112034,-0.247516 -0.584181,-0.815285 -0.577065,-0.694592 -0.530295,-1.125015 -0.445364,-1.632942 l -0.004,-0.004 c 0.0441,-0.0972 0.0857,-0.194726 0.122745,-0.29394 h 0.006 c 0.29884,-0.419632 0.570451,-0.756542 1.469628,-0.839765 0.735143,-0.0679 0.989999,-0.163635 0.989999,-0.163635 0.120015,-0.277032 0.120046,-0.653002 0.120046,-0.653002 0,0 -6.3e-5,-0.376452 -0.120337,-0.65326 0,0 -0.254414,-0.0957 -0.989638,-0.163446 -0.899226,-0.0831 -1.170578,-0.420234 -1.469729,-0.839678 h -0.004 c -0.0371,-0.0992 -0.07841,-0.196944 -0.122755,-0.293947 l 0.004,-0.004 c -0.0853,-0.507916 -0.131698,-0.93829 0.445336,-1.632934 0.471744,-0.5677665 0.584377,-0.8155449 0.584377,-0.8155449 -0.110834,-0.2807909 -0.37689,-0.5468501 -0.37689,-0.5468501 0,0 -0.26628,-0.2662552 -0.547088,-0.3767119 z M 13.314125,14.31455 c -1.27857,1.278559 -3.351436,1.27858 -4.630009,2.1e-5 -1.27857,-1.278574 -1.278549,-3.35144 2.1e-5,-4.63001 1.278541,-1.2785421 3.351408,-1.2785593 4.629978,10e-6 1.278569,1.27856 1.278552,3.351437 1e-5,4.629979 z"
     style="display:inline;opacity:0.2;fill:#000000;fill-opacity:1;stroke:none;stroke-width:0.35;enable-background:new"
     id="path1237" />
  <path
     d="m 15.402403,5.6728992 c 0,0 -0.247347,0.1121433 -0.815321,0.5841759 -0.694601,0.5770773 -1.124746,0.5305555 -1.632908,0.4453625 l -0.004,0.00401 c -0.0968,-0.044202 -0.194665,-0.085603 -0.29396,-0.1227515 v -0.00401 C 12.23656,6.280826 11.899641,6.0092092 11.816519,5.109972 11.748519,4.3749122 11.653074,4.1203233 11.653074,4.1203233 11.376165,3.9999623 10.999816,4.0000008 10.999816,4.0000008 c 0,0 -0.376452,3.85e-5 -0.65315,0.120424 0,0 -0.0957,0.2543754 -0.163523,0.9895682 -0.0831,0.8991952 -0.420215,1.1707032 -0.839675,1.4697104 l -7e-4,0.00501 c -0.0992,0.0371 -0.196786,0.078603 -0.293939,0.1227445 l -0.004,-0.00397 C 8.536705,6.7887896 8.106403,6.8350422 7.411771,6.2580133 6.844007,5.7862715 6.596488,5.6738379 6.596488,5.6738379 6.31622,5.7839125 6.050165,6.049967 6.050165,6.049967 c 0,0 -0.266178,0.2661778 -0.376693,0.547048 0,0 0.112395,0.2475854 0.584116,0.8153323 C 6.834655,8.106937 6.788214,8.537421 6.703084,9.045384 l 0.004,0.004 c -0.044,0.0969 -0.0856,0.194694 -0.122874,0.293838 h -0.004 C 6.28143,9.762923 6.009793,10.099845 5.110625,10.183058 4.375587,10.250958 4.12083,10.34672 4.12083,10.34672 c -0.120274,0.27701 -0.120295,0.652821 -0.120295,0.652821 0,0 1.99e-4,0.37662 0.120494,0.653276 0,0 0.254316,0.09581 0.989498,0.163407 0.899147,0.0832 1.170343,0.420541 1.46956,0.839832 h 0.004 c 0.0372,0.09931 0.0787,0.196958 0.122716,0.293988 l -0.004,0.004 c 0.0855,0.508097 0.131672,0.938329 -0.445335,1.632887 -0.471721,0.567887 -0.584186,0.815784 -0.584186,0.815784 0.110925,0.280849 0.376711,0.546635 0.376711,0.546635 0,0 0.266268,0.266278 0.547044,0.376703 0,0 0.247497,-0.112024 0.815234,-0.584067 0.694652,-0.576987 1.125014,-0.530245 1.633026,-0.445433 l 0.004,-0.004 c 0.0972,0.0441 0.194725,0.0857 0.293988,0.122724 l -7e-4,0.005 c 0.419754,0.298835 0.756613,0.570413 0.839836,1.469553 0.0679,0.735081 0.163593,0.989915 0.163593,0.989915 0.27703,0.120056 0.652929,0.120234 0.652929,0.120234 0,0 0.376623,-1.01e-4 0.653171,-0.120644 0,0 0.0958,-0.254074 0.163505,-0.989386 0.0832,-0.899136 0.42066,-1.170455 0.839731,-1.469623 l -7e-4,-0.005 c 0.0992,-0.0371 0.196877,-0.0788 0.29396,-0.122762 l 0.004,0.004 c 0.508076,-0.08551 0.938287,-0.131645 1.632918,0.44539 0.567765,0.471735 0.815634,0.58426 0.815634,0.58426 0.280898,-0.111034 0.546715,-0.376843 0.546715,-0.376843 0,0 0.266265,-0.266265 0.376721,-0.547076 0,0 -0.112035,-0.247516 -0.584179,-0.815283 -0.577064,-0.69459 -0.530294,-1.125011 -0.445363,-1.632936 l -0.004,-0.004 c 0.04411,-0.0972 0.0857,-0.194725 0.122745,-0.293939 h 0.006 c 0.298839,-0.419631 0.570448,-0.75654 1.469622,-0.839762 0.735141,-0.0679 0.989996,-0.163635 0.989996,-0.163635 0.120015,-0.277031 0.120046,-0.652999 0.120046,-0.652999 0,0 -6.3e-5,-0.376452 -0.120337,-0.653259 0,0 -0.254414,-0.0957 -0.989635,-0.163445 -0.899223,-0.0831 -1.170573,-0.420233 -1.469724,-0.839675 h -0.004 c -0.0371,-0.0992 -0.07841,-0.196944 -0.122755,-0.293946 l 0.004,-0.004 c -0.0853,-0.5079143 -0.131697,-0.9382867 0.445335,-1.6329287 0.471742,-0.5677641 0.584375,-0.8155422 0.584375,-0.8155422 -0.110834,-0.28079 -0.376889,-0.5468483 -0.376889,-0.5468483 0,0 -0.266279,-0.2662543 -0.547086,-0.3767106 z m -2.087829,7.6416098 c -1.278565,1.278555 -3.351425,1.278576 -4.629994,2.1e-5 -1.278566,-1.27857 -1.278545,-3.351429 2.1e-5,-4.6299946 1.278538,-1.2785378 3.351397,-1.2785551 4.629963,1.03e-5 1.278566,1.2785553 1.278548,3.3514253 10e-6,4.6299633 z"
     style="display:inline;fill:#ffffff;fill-opacity:1;stroke:none;stroke-width:0.349999;enable-background:new"
     id="path429"
     sodipodi:nodetypes="ccccccccccccccccccccccccccccccccccccccccccccccccccccccccccccccccccccccccccccscc" />
  <path
     id="rect2630"
     style="opacity:0.3;fill:#ffffff;fill-opacity:1"
     d="m 3.9999999,1 c -1.6619983,0 -3,1.3380017 -3,2.9999997 v 1 c 0,-1.661998 1.3380017,-3 3,-3 H 18 c 1.661998,0 3,1.338002 3,3 v -1 C 21,2.3380017 19.661998,1 18,1 Z" />
  <path
     id="rect398"
     style="opacity:0.3;fill:#ffffff"
     d="m 1,17 v 1 c 0,1.661998 1.3380017,3 3,3 h 14 c 1.661998,0 3,-1.338002 3,-3 v -1 c 0,1.661998 -1.338002,3 -3,3 H 4 C 2.3380017,20 1,18.661998 1,17 Z" />
  <path
     id="rect899"
     style="opacity:0.5;fill:#000000;stroke:none"
     d="M 4,0 C 1.7840022,0 0,1.7840022 0,4 v 14 c 0,2.215998 1.7840022,4 4,4 h 14 c 2.215998,0 4,-1.784002 4,-4 V 4 C 22,1.7840022 20.215998,0 18,0 Z m 0,1 h 14 c 1.661998,0 3,1.3380017 3,3 v 14 c 0,1.661998 -1.338002,3 -3,3 H 4 C 2.3380017,21 1,19.661998 1,18 V 4 C 1,2.3380017 2.3380017,1 4,1 Z" />
</svg>
