<?xml version="1.0" encoding="UTF-8" standalone="no"?>
<!-- Created with Inkscape (http://www.inkscape.org/) -->

<svg
   width="22"
   height="22"
   viewBox="0 0 22 22.000001"
   version="1.1"
   id="svg5"
   sodipodi:docname="preferences-desktop-accessibility.svg"
   inkscape:version="1.2.1 (9c6d41e410, 2022-07-14)"
   xmlns:inkscape="http://www.inkscape.org/namespaces/inkscape"
   xmlns:sodipodi="http://sodipodi.sourceforge.net/DTD/sodipodi-0.dtd"
   xmlns:xlink="http://www.w3.org/1999/xlink"
   xmlns="http://www.w3.org/2000/svg"
   xmlns:svg="http://www.w3.org/2000/svg">
  <sodipodi:namedview
     id="namedview7"
     pagecolor="#ffffff"
     bordercolor="#666666"
     borderopacity="1.0"
     inkscape:showpageshadow="2"
     inkscape:pageopacity="0.0"
     inkscape:pagecheckerboard="0"
     inkscape:deskcolor="#d1d1d1"
     inkscape:document-units="px"
     showgrid="false"
     inkscape:zoom="36.136364"
     inkscape:cx="10.986164"
     inkscape:cy="11"
     inkscape:window-width="1920"
     inkscape:window-height="1007"
     inkscape:window-x="0"
     inkscape:window-y="0"
     inkscape:window-maximized="1"
     inkscape:current-layer="svg5"
     showguides="true" />
  <defs
     id="defs2">
    <linearGradient
       inkscape:collect="always"
       xlink:href="#linearGradient3463"
       id="linearGradient10386"
       x1="19"
       y1="23"
       x2="5"
       y2="1"
       gradientUnits="userSpaceOnUse"
       gradientTransform="translate(-1,-1)" />
    <linearGradient
       inkscape:collect="always"
       id="linearGradient3463">
      <stop
         style="stop-color:#0064cd;stop-opacity:1;"
         offset="0"
         id="stop3459" />
      <stop
         style="stop-color:#35a2f2;stop-opacity:1;"
         offset="1"
         id="stop3461" />
    </linearGradient>
  </defs>
  <rect
     style="fill:url(#linearGradient10386);fill-opacity:1.0;stroke:none"
     id="rect184"
     width="21"
     height="21"
     x="0.5"
     y="0.5"
     ry="3.5" />
  <path
     id="path3009"
     style="opacity:0.2;fill:#000000;stroke-width:2"
     d="M 10.5 5 C 9.6715528 5 9 5.6715525 9 6.5 C 9 7.3284482 9.6715528 8 10.5 8 C 11.328447 8 12 7.3284482 12 6.5 C 12 5.6715525 11.328447 5 10.5 5 z M 5.5 9 A 0.5 0.5 0 0 0 5 9.5 A 0.5 0.5 0 0 0 5.5 10 L 9 10 L 9 18.5 A 0.5 0.5 0 0 0 9.5 19 A 0.5 0.5 0 0 0 10 18.5 A 0.5 0.5 0 0 0 10 18.474609 L 10 13 L 11 13 L 11 18.5 A 0.5 0.5 0 0 0 11.5 19 A 0.5 0.5 0 0 0 12 18.5 A 0.5 0.5 0 0 0 12 18.474609 L 12 10 L 15.5 10 A 0.5 0.5 0 0 0 16 9.5 A 0.5 0.5 0 0 0 15.5 9 L 5.5 9 z " />
  <path
     id="path2789"
     style="fill:#ffffff;stroke-width:2"
     d="M 10.5 4 C 9.6715536 4 9 4.6715529 9 5.5 C 9 6.3284474 9.6715536 7 10.5 7 C 11.328446 7 12 6.3284474 12 5.5 C 12 4.6715529 11.328446 4 10.5 4 z M 5.5 8 C 5.2238579 8 5 8.2238579 5 8.5 C 5 8.7761421 5.2238579 9 5.5 9 L 9 9 L 9 17.5 A 0.5 0.5 0 0 0 9.5 18 A 0.5 0.5 0 0 0 10 17.5 A 0.5 0.5 0 0 0 10 17.474609 L 10 12 L 11 12 L 11 17.5 A 0.5 0.5 0 0 0 11.5 18 A 0.5 0.5 0 0 0 12 17.5 A 0.5 0.5 0 0 0 12 17.474609 L 12 9 L 15.5 9 C 15.776142 9 16 8.7761421 16 8.5 C 16 8.2238579 15.776142 8 15.5 8 L 5.5253906 8 C 5.5169284 7.9997851 5.5084622 7.9997851 5.5 8 z " />
  <path
     id="rect2630"
     style="opacity:0.3;fill:#ffffff;fill-opacity:1"
     d="m 3.9999999,1 c -1.6619983,0 -3,1.3380017 -3,2.9999997 v 1 c 0,-1.661998 1.3380017,-3 3,-3 H 18 c 1.661998,0 3,1.338002 3,3 v -1 C 21,2.3380017 19.661998,1 18,1 Z" />
  <path
     id="rect398"
     style="opacity:0.3;fill:#ffffff"
     d="m 1,17 v 1 c 0,1.661998 1.3380017,3 3,3 h 14 c 1.661998,0 3,-1.338002 3,-3 v -1 c 0,1.661998 -1.338002,3 -3,3 H 4 C 2.3380017,20 1,18.661998 1,17 Z" />
  <path
     id="rect899"
     style="opacity:0.5;fill:#000000;stroke:none"
     d="M 4,0 C 1.7840022,0 0,1.7840022 0,4 v 14 c 0,2.215998 1.7840022,4 4,4 h 14 c 2.215998,0 4,-1.784002 4,-4 V 4 C 22,1.7840022 20.215998,0 18,0 Z m 0,1 h 14 c 1.661998,0 3,1.3380017 3,3 v 14 c 0,1.661998 -1.338002,3 -3,3 H 4 C 2.3380017,21 1,19.661998 1,18 V 4 C 1,2.3380017 2.3380017,1 4,1 Z" />
</svg>
