<?xml version="1.0" encoding="UTF-8" standalone="no"?>
<!-- Created with Inkscape (http://www.inkscape.org/) -->

<svg
   width="22"
   height="22"
   viewBox="0 0 22 22.000001"
   version="1.1"
   id="svg5"
   sodipodi:docname="preferences-desktop-keyboard.svg"
   inkscape:version="1.2.1 (9c6d41e410, 2022-07-14)"
   xmlns:inkscape="http://www.inkscape.org/namespaces/inkscape"
   xmlns:sodipodi="http://sodipodi.sourceforge.net/DTD/sodipodi-0.dtd"
   xmlns:xlink="http://www.w3.org/1999/xlink"
   xmlns="http://www.w3.org/2000/svg"
   xmlns:svg="http://www.w3.org/2000/svg">
  <sodipodi:namedview
     id="namedview7"
     pagecolor="#ffffff"
     bordercolor="#666666"
     borderopacity="1.0"
     inkscape:showpageshadow="2"
     inkscape:pageopacity="0.0"
     inkscape:pagecheckerboard="0"
     inkscape:deskcolor="#d1d1d1"
     inkscape:document-units="px"
     showgrid="false"
     inkscape:zoom="33"
     inkscape:cx="9.7121212"
     inkscape:cy="11.015152"
     inkscape:window-width="1920"
     inkscape:window-height="1007"
     inkscape:window-x="0"
     inkscape:window-y="0"
     inkscape:window-maximized="1"
     inkscape:current-layer="svg5" />
  <defs
     id="defs2">
    <linearGradient
       inkscape:collect="always"
       xlink:href="#linearGradient22024"
       id="linearGradient10386"
       x1="19"
       y1="23"
       x2="5"
       y2="1"
       gradientUnits="userSpaceOnUse"
       gradientTransform="translate(-1,-1)" />
    <linearGradient
       inkscape:collect="always"
       id="linearGradient22024">
      <stop
         style="stop-color:#cdcdcd;stop-opacity:1;"
         offset="0"
         id="stop22020" />
      <stop
         style="stop-color:#eff0f1;stop-opacity:1;"
         offset="1"
         id="stop22022" />
    </linearGradient>
  </defs>
  <rect
     style="fill:url(#linearGradient10386);fill-opacity:1;stroke:none"
     id="rect184"
     width="21"
     height="21"
     x="0.5"
     y="0.5"
     ry="3.5" />
  <path
     d="M 3.9999999,6 C 3.4460005,6 3,6.446 3,7 v 2 c 0,0.553999 0.4460005,1 0.9999999,1 H 6 C 6.5539993,10 6.9999998,9.553999 6.9999998,9 V 7 C 6.9999998,6.446 6.5539993,6 6,6 Z M 10,6 C 9.446001,6 9,6.446 9,7 v 2 c 0,0.553999 0.446001,1 1,1 h 2 c 0.554,0 1,-0.446001 1,-1 V 7 C 13,6.446 12.554,6 12,6 Z m 6,0 c -0.554,0 -1,0.446 -1,1 v 2 c 0,0.553999 0.446,1 1,1 h 2 c 0.553999,0 1,-0.446001 1,-1 V 7 C 19,6.446 18.553999,6 18,6 Z M 4.9999998,12 c -0.5539994,0 -0.9999999,0.446 -0.9999999,1 v 2 c 0,0.553999 0.4460005,1 0.9999999,1 H 17 c 0.553999,0 1,-0.446001 1,-1 v -2 c 0,-0.554 -0.446001,-1 -1,-1 z"
     style="fill:#afafaf;fill-opacity:1;stroke-width:0.999999;stroke-linecap:round;stroke-linejoin:round"
     id="path1728"
     sodipodi:nodetypes="ssssssssssssssssssssssssssssssssssss" />
  <path
     id="path1695"
     style="opacity:0.2;fill:#000000;fill-opacity:0.961371;stroke-width:0.999999;stroke-linecap:round;stroke-linejoin:round"
     d="M 4,6 C 3.4460012,6 3,6.446001 3,7 V 8 C 3,7.446001 3.4460012,7 4,7 H 6 C 6.5539987,7 7,7.446001 7,8 V 7 C 7,6.446001 6.5539987,6 6,6 Z m 6,0 C 9.446002,6 9,6.446001 9,7 V 8 C 9,7.446001 9.446002,7 10,7 h 2 c 0.553999,0 1,0.446001 1,1 V 7 C 13,6.446001 12.553999,6 12,6 Z m 6,0 c -0.553999,0 -1,0.446001 -1,1 v 1 c 0,-0.553999 0.446001,-1 1,-1 h 2 c 0.553998,0 1,0.446001 1,1 V 7 C 19,6.446001 18.553998,6 18,6 Z M 5,12 c -0.5539988,0 -1,0.446002 -1,1 v 1 c 0,-0.553998 0.4460012,-1 1,-1 h 12 c 0.553998,0 1,0.446002 1,1 v -1 c 0,-0.553998 -0.446002,-1 -1,-1 z"
     sodipodi:nodetypes="sscsscssssscsscssssscsscssssscsscsss" />
  <path
     id="rect2630"
     style="opacity:0.3;fill:#ffffff;fill-opacity:1"
     d="m 3.9999999,1 c -1.6619983,0 -3,1.3380017 -3,2.9999997 v 1 c 0,-1.661998 1.3380017,-3 3,-3 H 18 c 1.661998,0 3,1.338002 3,3 v -1 C 21,2.3380017 19.661998,1 18,1 Z" />
  <path
     id="rect398"
     style="opacity:0.3;fill:#ffffff"
     d="m 1,17 v 1 c 0,1.661998 1.3380017,3 3,3 h 14 c 1.661998,0 3,-1.338002 3,-3 v -1 c 0,1.661998 -1.338002,3 -3,3 H 4 C 2.3380017,20 1,18.661998 1,17 Z" />
  <path
     id="rect899"
     style="opacity:0.5;fill:#000000;stroke:none"
     d="M 4,0 C 1.7840022,0 0,1.7840022 0,4 v 14 c 0,2.215998 1.7840022,4 4,4 h 14 c 2.215998,0 4,-1.784002 4,-4 V 4 C 22,1.7840022 20.215998,0 18,0 Z m 0,1 h 14 c 1.661998,0 3,1.3380017 3,3 v 14 c 0,1.661998 -1.338002,3 -3,3 H 4 C 2.3380017,21 1,19.661998 1,18 V 4 C 1,2.3380017 2.3380017,1 4,1 Z" />
</svg>
