<?xml version="1.0" encoding="UTF-8" standalone="no"?>
<!-- Created with Inkscape (http://www.inkscape.org/) -->

<svg
   width="22"
   height="22"
   viewBox="0 0 22 22.000001"
   version="1.1"
   id="svg5"
   sodipodi:docname="preferences-desktop-theme-applications.svg"
   inkscape:version="1.2.1 (9c6d41e410, 2022-07-14)"
   xmlns:inkscape="http://www.inkscape.org/namespaces/inkscape"
   xmlns:sodipodi="http://sodipodi.sourceforge.net/DTD/sodipodi-0.dtd"
   xmlns:xlink="http://www.w3.org/1999/xlink"
   xmlns="http://www.w3.org/2000/svg"
   xmlns:svg="http://www.w3.org/2000/svg">
  <sodipodi:namedview
     id="namedview7"
     pagecolor="#ffffff"
     bordercolor="#666666"
     borderopacity="1.0"
     inkscape:showpageshadow="2"
     inkscape:pageopacity="0.0"
     inkscape:pagecheckerboard="0"
     inkscape:deskcolor="#d1d1d1"
     inkscape:document-units="px"
     showgrid="false"
     inkscape:zoom="22.86312"
     inkscape:cx="4.3082484"
     inkscape:cy="7.8510719"
     inkscape:window-width="1920"
     inkscape:window-height="1007"
     inkscape:window-x="0"
     inkscape:window-y="0"
     inkscape:window-maximized="1"
     inkscape:current-layer="svg5" />
  <defs
     id="defs2">
    <linearGradient
       inkscape:collect="always"
       xlink:href="#linearGradient22024"
       id="linearGradient10386"
       x1="12"
       y1="23"
       x2="12"
       y2="7"
       gradientUnits="userSpaceOnUse"
       gradientTransform="translate(-1,-1)" />
    <linearGradient
       inkscape:collect="always"
       id="linearGradient22024">
      <stop
         style="stop-color:#dedede;stop-opacity:1;"
         offset="0"
         id="stop22020" />
      <stop
         style="stop-color:#f2f2f2;stop-opacity:1;"
         offset="1"
         id="stop22022" />
    </linearGradient>
  </defs>
  <rect
     style="fill:url(#linearGradient10386);fill-opacity:1;stroke:none"
     id="rect184"
     width="21"
     height="21"
     x="0.5"
     y="0.5"
     ry="3.5" />
  <path
     id="path1237"
     style="display:inline;opacity:0.2;fill:#000000;fill-opacity:1;stroke:none;enable-background:new"
     d="M 10.5,10 C 10.223,10 10,10.223001 10,10.5 v 1.15625 C 9.7683,11.72475 9.552699,11.82507 9.34375,11.9375 L 8.53125,11.125 c -0.19587,-0.19587 -0.522881,-0.19587 -0.71875,0 L 7.125,11.8125 c -0.19587,0.19587 -0.19587,0.52288 0,0.71875 l 0.8125,0.8125 C 7.82507,13.5527 7.72473,13.7683 7.65625,14 H 6.5 C 6.223,14 6,14.223001 6,14.5 v 1 C 6,15.777 6.223,16 6.5,16 h 1.15625 c 0.0685,0.2317 0.16882,0.4473 0.28125,0.65625 l -0.8125,0.8125 c -0.19587,0.19587 -0.19587,0.52288 0,0.71875 l 0.6875,0.6875 c 0.195869,0.19587 0.52288,0.19587 0.71875,0 l 0.8125,-0.8125 C 9.552699,18.17493 9.7683,18.27527 10,18.34375 V 19.5 c 0,0.277 0.223,0.5 0.5,0.5 h 1 c 0.276999,0 0.5,-0.223 0.5,-0.5 v -1.15625 c 0.231699,-0.0685 0.4473,-0.16882 0.65625,-0.28125 l 0.8125,0.8125 c 0.195869,0.19587 0.52288,0.19587 0.71875,0 l 0.6875,-0.6875 c 0.195869,-0.19587 0.195869,-0.52288 0,-0.71875 l -0.8125,-0.8125 C 14.17493,16.4473 14.27527,16.2317 14.34375,16 H 15.5 c 0.276999,0 0.5,-0.223 0.5,-0.5 v -1 C 16,14.223001 15.776999,14 15.5,14 h -1.15625 c -0.0685,-0.2317 -0.16882,-0.4473 -0.28125,-0.65625 l 0.8125,-0.8125 c 0.195869,-0.19587 0.195869,-0.52288 0,-0.71875 L 14.1875,11.125 c -0.19587,-0.19587 -0.522881,-0.19587 -0.71875,0 l -0.8125,0.8125 C 12.4473,11.82507 12.231699,11.72473 12,11.65625 V 10.5 C 12,10.223001 11.776999,10 11.5,10 Z m 0.5,3 c 1.104569,0 2,0.895431 2,2 0,1.104569 -0.895431,2 -2,2 C 9.895431,17 9,16.104569 9,15 9,14.86193 9.0051,14.72395 9.03125,14.59375 9.217789,13.682381 10.033501,13 11,13 Z" />
  <path
     id="path429"
     style="display:inline;fill:#4d4d4d;fill-opacity:1;stroke:none;enable-background:new"
     d="M 10.5,9 C 10.223,9 10,9.223001 10,9.5 v 1.15625 C 9.7683,10.72475 9.552699,10.82507 9.34375,10.9375 L 8.53125,10.125 C 8.33538,9.92913 8.008369,9.92913 7.8125,10.125 L 7.125,10.8125 c -0.19587,0.19587 -0.19587,0.52288 0,0.71875 l 0.8125,0.8125 C 7.82507,12.5527 7.72473,12.7683 7.65625,13 H 6.5 C 6.223,13 6,13.223001 6,13.5 v 1 C 6,14.777 6.223,15 6.5,15 h 1.15625 c 0.0685,0.2317 0.16882,0.4473 0.28125,0.65625 l -0.8125,0.8125 c -0.19587,0.19587 -0.19587,0.52288 0,0.71875 l 0.6875,0.6875 c 0.195869,0.19587 0.52288,0.19587 0.71875,0 l 0.8125,-0.8125 C 9.552699,17.17493 9.7683,17.27527 10,17.34375 V 18.5 c 0,0.277 0.223,0.5 0.5,0.5 h 1 c 0.276999,0 0.5,-0.223 0.5,-0.5 v -1.15625 c 0.231699,-0.0685 0.4473,-0.16882 0.65625,-0.28125 l 0.8125,0.8125 c 0.195869,0.19587 0.52288,0.19587 0.71875,0 l 0.6875,-0.6875 c 0.195869,-0.19587 0.195869,-0.52288 0,-0.71875 l -0.8125,-0.8125 C 14.17493,15.4473 14.27527,15.2317 14.34375,15 H 15.5 c 0.276999,0 0.5,-0.223 0.5,-0.5 v -1 C 16,13.223001 15.776999,13 15.5,13 h -1.15625 c -0.0685,-0.2317 -0.16882,-0.4473 -0.28125,-0.65625 l 0.8125,-0.8125 c 0.195869,-0.19587 0.195869,-0.52288 0,-0.71875 L 14.1875,10.125 c -0.19587,-0.19587 -0.522881,-0.19587 -0.71875,0 l -0.8125,0.8125 C 12.4473,10.82507 12.231699,10.72473 12,10.65625 V 9.5 C 12,9.223001 11.776999,9 11.5,9 Z m 0.5,3 c 1.104569,0 2,0.895431 2,2 0,1.104569 -0.895431,2 -2,2 C 9.895431,16 9,15.104569 9,14 9,13.86193 9.0051,13.72395 9.03125,13.59375 9.217789,12.682381 10.033501,12 11,12 Z" />
  <path
     id="rect348"
     style="fill:#6a747d;fill-opacity:1;stroke-width:0.381881;stroke-linejoin:round"
     d="M 4,0.5 C 2.0610019,0.5 0.5,2.0610019 0.5,4 v 3 h 21 V 4 C 21.5,2.0610019 19.938998,0.5 18,0.5 Z"
     sodipodi:nodetypes="ssccsss" />
  <path
     id="path292"
     style="opacity:0.2;fill:#000000;stroke-width:3;stroke-linecap:round;stroke-linejoin:round"
     d="m 13,3.9999997 c -0.552285,0 -1,0.447715 -1,1 0,0.552285 0.447715,1 1,1 0.552285,0 1,-0.447715 1,-1 0,-0.552285 -0.447715,-1 -1,-1 z m 3,0 c -0.552285,0 -1,0.447715 -1,1 0,0.552285 0.447715,1 1,1 0.552285,0 1,-0.447715 1,-1 0,-0.552285 -0.447715,-1 -1,-1 z m 3,0 c -0.552285,0 -1,0.447715 -1,1 0,0.552285 0.447715,1 1,1 0.552285,0 1,-0.447715 1,-1 0,-0.552285 -0.447715,-1 -1,-1 z"
     sodipodi:nodetypes="sssssssssssssss" />
  <path
     d="m 13,2.9999997 c -0.552285,0 -1,0.447715 -1,1 0,0.552285 0.447715,1 1,1 0.552285,0 1,-0.447715 1,-1 0,-0.552285 -0.447715,-1 -1,-1 z m 3,0 c -0.552285,0 -1,0.447715 -1,1 0,0.552285 0.447715,1 1,1 0.552285,0 1,-0.447715 1,-1 0,-0.552285 -0.447715,-1 -1,-1 z m 3,0 c -0.552285,0 -1,0.447715 -1,1 0,0.552285 0.447715,1 1,1 0.552285,0 1,-0.447715 1,-1 0,-0.552285 -0.447715,-1 -1,-1 z"
     style="fill:#ffffff;stroke-width:3;stroke-linecap:round;stroke-linejoin:round"
     id="path522" />
  <rect
     style="opacity:0.2;fill:#000000;stroke-width:0.572822;stroke-linejoin:round"
     id="rect581"
     width="21"
     height="1"
     x="0.5"
     y="6" />
  <path
     id="rect2630"
     style="opacity:0.3;fill:#ffffff;fill-opacity:1"
     d="m 3.9999999,1 c -1.6619983,0 -3,1.3380017 -3,2.9999997 v 1 c 0,-1.661998 1.3380017,-3 3,-3 H 18 c 1.661998,0 3,1.338002 3,3 v -1 C 21,2.3380017 19.661998,1 18,1 Z" />
  <path
     id="rect398"
     style="opacity:0.3;fill:#ffffff"
     d="m 1,17 v 1 c 0,1.661998 1.3380017,3 3,3 h 14 c 1.661998,0 3,-1.338002 3,-3 v -1 c 0,1.661998 -1.338002,3 -3,3 H 4 C 2.3380017,20 1,18.661998 1,17 Z" />
  <path
     id="rect899"
     style="opacity:0.5;fill:#000000;stroke:none"
     d="M 4,0 C 1.7840022,0 0,1.7840022 0,4 v 14 c 0,2.215998 1.7840022,4 4,4 h 14 c 2.215998,0 4,-1.784002 4,-4 V 4 C 22,1.7840022 20.215998,0 18,0 Z m 0,1 h 14 c 1.661998,0 3,1.3380017 3,3 v 14 c 0,1.661998 -1.338002,3 -3,3 H 4 C 2.3380017,21 1,19.661998 1,18 V 4 C 1,2.3380017 2.3380017,1 4,1 Z" />
</svg>
