<?xml version="1.0" encoding="UTF-8" standalone="no"?>
<!-- Created with Inkscape (http://www.inkscape.org/) -->

<svg
   width="22"
   height="22"
   viewBox="0 0 22 22.000001"
   version="1.1"
   id="svg5"
   sodipodi:docname="preferences-desktop-color.svg"
   inkscape:version="1.2.1 (9c6d41e410, 2022-07-14)"
   xmlns:inkscape="http://www.inkscape.org/namespaces/inkscape"
   xmlns:sodipodi="http://sodipodi.sourceforge.net/DTD/sodipodi-0.dtd"
   xmlns:xlink="http://www.w3.org/1999/xlink"
   xmlns="http://www.w3.org/2000/svg"
   xmlns:svg="http://www.w3.org/2000/svg">
  <sodipodi:namedview
     id="namedview7"
     pagecolor="#ffffff"
     bordercolor="#666666"
     borderopacity="1.0"
     inkscape:showpageshadow="2"
     inkscape:pageopacity="0.0"
     inkscape:pagecheckerboard="0"
     inkscape:deskcolor="#d1d1d1"
     inkscape:document-units="px"
     showgrid="false"
     inkscape:zoom="33"
     inkscape:cx="9.7727273"
     inkscape:cy="11.015152"
     inkscape:window-width="1920"
     inkscape:window-height="1007"
     inkscape:window-x="0"
     inkscape:window-y="0"
     inkscape:window-maximized="1"
     inkscape:current-layer="svg5"
     showguides="false" />
  <defs
     id="defs2">
    <radialGradient
       inkscape:collect="always"
       xlink:href="#linearGradient1603"
       id="radialGradient11414"
       cx="-1.675118"
       cy="11.872787"
       fx="-1.675118"
       fy="11.872787"
       r="27.5"
       gradientUnits="userSpaceOnUse"
       gradientTransform="matrix(-0.31455421,0.31823185,-0.3832642,-0.37883519,5.325476,6.5847111)" />
    <linearGradient
       inkscape:collect="always"
       id="linearGradient1603">
      <stop
         style="stop-color:#ff910c;stop-opacity:1;"
         offset="0"
         id="stop1599" />
      <stop
         style="stop-color:#ff910c;stop-opacity:0;"
         offset="1"
         id="stop1601" />
    </linearGradient>
    <radialGradient
       inkscape:collect="always"
       xlink:href="#linearGradient3954"
       id="radialGradient11404"
       cx="57.208611"
       cy="56.943909"
       fx="57.208611"
       fy="56.943909"
       r="27.5"
       gradientUnits="userSpaceOnUse"
       gradientTransform="matrix(0.3709848,-0.38927795,0.3531005,0.3365074,-20.705339,23.632041)" />
    <linearGradient
       inkscape:collect="always"
       id="linearGradient3954">
      <stop
         style="stop-color:#24c2f5;stop-opacity:1;"
         offset="0"
         id="stop3950" />
      <stop
         style="stop-color:#24c2f5;stop-opacity:0;"
         offset="1"
         id="stop3952" />
    </linearGradient>
    <radialGradient
       inkscape:collect="always"
       xlink:href="#linearGradient5569"
       id="radialGradient11396"
       cx="8.0326223"
       cy="59.247375"
       fx="8.0326223"
       fy="59.247375"
       r="27.5"
       gradientUnits="userSpaceOnUse"
       gradientTransform="matrix(0.35101349,-0.35555083,0.41571691,0.41041174,-25.935374,-0.798269)" />
    <linearGradient
       inkscape:collect="always"
       id="linearGradient5569">
      <stop
         style="stop-color:#f5cc24;stop-opacity:1;"
         offset="0"
         id="stop5565" />
      <stop
         style="stop-color:#f5cc24;stop-opacity:0.00045133"
         offset="1"
         id="stop5567" />
    </linearGradient>
    <radialGradient
       inkscape:collect="always"
       xlink:href="#linearGradient7221"
       id="radialGradient11388"
       cx="32"
       cy="60"
       fx="32"
       fy="60"
       r="27.5"
       gradientUnits="userSpaceOnUse"
       gradientTransform="matrix(-0.38876032,0,0,-0.38181818,23.440327,23.218182)" />
    <linearGradient
       inkscape:collect="always"
       id="linearGradient7221">
      <stop
         style="stop-color:#ff2a2a;stop-opacity:1"
         offset="0"
         id="stop7217" />
      <stop
         style="stop-color:#ff2929;stop-opacity:0.00392157"
         offset="1"
         id="stop7219" />
    </linearGradient>
    <radialGradient
       inkscape:collect="always"
       xlink:href="#linearGradient10051"
       id="radialGradient11378"
       cx="6.5505433"
       cy="56.244072"
       fx="6.5505433"
       fy="56.244072"
       r="27.5"
       gradientUnits="userSpaceOnUse"
       gradientTransform="matrix(-0.27466856,-0.26487259,0.34565254,-0.35843612,3.075389,23.469827)" />
    <linearGradient
       inkscape:collect="always"
       id="linearGradient10051">
      <stop
         style="stop-color:#aa3ad4;stop-opacity:1"
         offset="0"
         id="stop10047" />
      <stop
         style="stop-color:#aa3ad4;stop-opacity:0"
         offset="1"
         id="stop10049" />
    </linearGradient>
    <radialGradient
       inkscape:collect="always"
       xlink:href="#linearGradient15132"
       id="radialGradient11244"
       cx="45.75"
       cy="51.798988"
       fx="45.75"
       fy="51.798988"
       r="27.5"
       gradientUnits="userSpaceOnUse"
       gradientTransform="matrix(-2.3605179e-8,0.38876032,-0.38876028,-6.7918398e-8,20.44648,-6.785781)" />
    <linearGradient
       inkscape:collect="always"
       id="linearGradient15132">
      <stop
         style="stop-color:#f5e224;stop-opacity:1;"
         offset="0"
         id="stop15128" />
      <stop
         style="stop-color:#f5e224;stop-opacity:0;"
         offset="1"
         id="stop15130" />
    </linearGradient>
    <radialGradient
       inkscape:collect="always"
       xlink:href="#linearGradient12059"
       id="radialGradient11234"
       cx="32"
       cy="60"
       fx="32"
       fy="60"
       r="27.5"
       gradientUnits="userSpaceOnUse"
       gradientTransform="matrix(0.38876032,0,0,0.38181818,-1.440331,-1.218181)" />
    <linearGradient
       inkscape:collect="always"
       id="linearGradient12059">
      <stop
         style="stop-color:#47c12a;stop-opacity:1;"
         offset="0"
         id="stop12055" />
      <stop
         style="stop-color:#47c12a;stop-opacity:0;"
         offset="1"
         id="stop12057" />
    </linearGradient>
  </defs>
  <rect
     style="fill:#ffffff;fill-opacity:1;stroke:none"
     id="rect184"
     width="21"
     height="21"
     x="0.5"
     y="0.5"
     ry="3.5" />
  <rect
     style="fill:url(#radialGradient11414);fill-opacity:1;stroke-width:0.381818;stroke-linejoin:round"
     id="rect10562"
     width="21"
     height="21"
     x="0.5"
     y="0.5"
     ry="3.5" />
  <rect
     style="fill:url(#radialGradient11404);fill-opacity:1;stroke-width:0.381818;stroke-linejoin:round"
     id="rect10564"
     width="21"
     height="21"
     x="0.5"
     y="0.5"
     ry="3.5" />
  <rect
     style="fill:url(#radialGradient11396);fill-opacity:1;stroke-width:0.381818;stroke-linejoin:round"
     id="rect10566"
     width="21"
     height="21"
     x="0.5"
     y="0.5"
     ry="3.5" />
  <rect
     style="fill:url(#radialGradient11388);fill-opacity:1;stroke-width:0.381818;stroke-linejoin:round"
     id="rect10568"
     width="21"
     height="21"
     x="0.5"
     y="0.5"
     ry="3.5" />
  <rect
     style="fill:url(#radialGradient11378);fill-opacity:1;stroke-width:0.381818;stroke-linejoin:round"
     id="rect10570"
     width="21"
     height="21"
     x="0.5"
     y="0.5"
     ry="3.5" />
  <rect
     style="fill:url(#radialGradient11244);fill-opacity:1;stroke-width:0.381818;stroke-linejoin:round"
     id="rect10572"
     width="21"
     height="21"
     x="0.5"
     y="0.5"
     ry="3.5"
     inkscape:label="rect10572" />
  <rect
     style="fill:url(#radialGradient11234);fill-opacity:1;stroke-width:0.381818;stroke-linejoin:round"
     id="rect10574"
     width="21"
     height="21"
     x="0.5"
     y="0.5"
     ry="3.5" />
  <path
     id="path1406"
     style="opacity:0.2;fill:#000000;stroke-linejoin:round"
     d="m 11,4 c 0,0 -5,8.238578 -5,11 0,2.761421 2.2385788,5 5,5 2.761421,0 5,-2.238579 5,-5 C 16,12.238578 11,4 11,4 Z m 2.988281,9.179688 C 14.322631,13.728018 14.499665,14.357773 14.5,15 14.5,16.932997 12.932997,18.5 11,18.5 10.686377,18.4988 10.374338,18.45543 10.072266,18.371094 12.361282,17.868522 13.994103,15.843531 14,13.5 13.999518,13.393132 13.9956,13.286306 13.98828,13.179688 Z"
     sodipodi:nodetypes="csssccccccc" />
  <path
     id="path1395"
     style="fill:#ffffff;stroke-linejoin:round"
     d="m 11,3 c 0,0 -5,8.238579 -5,11 0,2.761421 2.2385796,5 5,5 2.761421,0 5,-2.238579 5,-5 C 16,11.238579 11,3 11,3 Z m 2.988281,9.179688 C 14.322631,12.728018 14.499665,13.357773 14.5,14 14.5,15.932997 12.932997,17.5 11,17.5 10.686377,17.4988 10.374338,17.45543 10.072266,17.371094 12.361282,16.868522 13.994103,14.843531 14,12.5 13.999518,12.393132 13.9956,12.286306 13.98828,12.179688 Z"
     sodipodi:nodetypes="csssccccccc" />
  <path
     id="rect2630"
     style="opacity:0.3;fill:#ffffff;fill-opacity:1"
     d="m 3.9999999,1 c -1.6619983,0 -3,1.3380017 -3,2.9999997 v 1 c 0,-1.661998 1.3380017,-3 3,-3 H 18 c 1.661998,0 3,1.338002 3,3 v -1 C 21,2.3380017 19.661998,1 18,1 Z" />
  <path
     id="rect398"
     style="opacity:0.3;fill:#ffffff"
     d="m 1,17 v 1 c 0,1.661998 1.3380017,3 3,3 h 14 c 1.661998,0 3,-1.338002 3,-3 v -1 c 0,1.661998 -1.338002,3 -3,3 H 4 C 2.3380017,20 1,18.661998 1,17 Z" />
  <path
     id="rect899"
     style="opacity:0.5;fill:#000000;stroke:none"
     d="M 4,0 C 1.7840022,0 0,1.7840022 0,4 v 14 c 0,2.215998 1.7840022,4 4,4 h 14 c 2.215998,0 4,-1.784002 4,-4 V 4 C 22,1.7840022 20.215998,0 18,0 Z m 0,1 h 14 c 1.661998,0 3,1.3380017 3,3 v 14 c 0,1.661998 -1.338002,3 -3,3 H 4 C 2.3380017,21 1,19.661998 1,18 V 4 C 1,2.3380017 2.3380017,1 4,1 Z" />
</svg>
