<?xml version="1.0" encoding="UTF-8" standalone="no"?>
<!-- Created with Inkscape (http://www.inkscape.org/) -->

<svg
   width="22"
   height="22"
   viewBox="0 0 22 22.000001"
   version="1.1"
   id="svg5"
   sodipodi:docname="preferences-desktop-screensaver.svg"
   inkscape:version="1.3.2 (091e20ef0f, 2023-11-25, custom)"
   xmlns:inkscape="http://www.inkscape.org/namespaces/inkscape"
   xmlns:sodipodi="http://sodipodi.sourceforge.net/DTD/sodipodi-0.dtd"
   xmlns:xlink="http://www.w3.org/1999/xlink"
   xmlns="http://www.w3.org/2000/svg"
   xmlns:svg="http://www.w3.org/2000/svg">
  <sodipodi:namedview
     id="namedview7"
     pagecolor="#ffffff"
     bordercolor="#666666"
     borderopacity="1.0"
     inkscape:showpageshadow="2"
     inkscape:pageopacity="0.0"
     inkscape:pagecheckerboard="0"
     inkscape:deskcolor="#d1d1d1"
     inkscape:document-units="px"
     showgrid="false"
     inkscape:zoom="37.545455"
     inkscape:cx="11"
     inkscape:cy="11"
     inkscape:window-width="1920"
     inkscape:window-height="1011"
     inkscape:window-x="0"
     inkscape:window-y="0"
     inkscape:window-maximized="1"
     inkscape:current-layer="svg5" />
  <defs
     id="defs2">
    <linearGradient
       inkscape:collect="always"
       xlink:href="#linearGradient2"
       id="linearGradient16885"
       x1="13"
       y1="24"
       x2="13"
       y2="2"
       gradientUnits="userSpaceOnUse"
       gradientTransform="translate(-1.9999999,-2.0000001)" />
    <linearGradient
       inkscape:collect="always"
       id="linearGradient2">
      <stop
         style="stop-color:#4b315a;stop-opacity:1;"
         offset="0"
         id="stop1" />
      <stop
         style="stop-color:#68487d;stop-opacity:1;"
         offset="1"
         id="stop2" />
    </linearGradient>
  </defs>
  <rect
     style="fill:url(#linearGradient16885);fill-opacity:1;stroke:none"
     id="rect184"
     width="21"
     height="21"
     x="0.5"
     y="0.5"
     ry="3.5" />
  <path
     d="M 10.748394,5.00002 C 7.9821338,5.10159 5.4330138,6.80687 4.4279538,9.56827 c -1.32392,3.63741 0.52406,7.68742 4.16148,9.01134 2.7613802,1.00505 5.7473902,0.14513 7.6033202,-1.90866 -1.32946,0.42914 -2.80964,0.45222 -4.22406,-0.0626 C 8.5910738,15.37901 6.8594638,11.63169 8.0888038,8.25409 8.6036138,6.83967 9.5651138,5.74257 10.748394,5 Z m 4.25536,0.30247 -0.28291,1.0521 -1.05211,0.28291 1.05211,0.28291 0.28291,1.0521 0.28291,-1.0521 1.0521,-0.28291 -1.0521,-0.28291 z m -3.33753,1.98165 -0.21251,0.78876 -0.78876,0.2125 0.78876,0.21251 0.21251,0.78875 0.2125,-0.78875 0.78876,-0.21251 -0.78876,-0.2125 z m 4.00503,2.02338 -0.14145,0.52605 -0.52605,0.14146 0.52605,0.14145 0.14145,0.52606 0.14146,-0.52606 0.52605,-0.14145 -0.52605,-0.14146 z m -1.00126,3.33754 -0.21251,0.78875 -0.78875,0.2125 0.78875,0.21251 0.21251,0.78875 0.21251,-0.78875 0.78875,-0.21251 -0.78875,-0.2125 z"
     style="color:#bebebe;display:inline;overflow:visible;visibility:visible;fill:#000000;fill-opacity:1;fill-rule:nonzero;stroke:none;stroke-width:1;marker:none;enable-background:accumulate;opacity:0.2"
     id="path1" />
  <path
     d="M 10.74839,4.00001 C 7.98213,4.10158 5.43301,5.80686 4.42795,8.56826 c -1.32392,3.63741 0.52406,7.68742 4.16148,9.01134 2.76138,1.00505 5.74739,0.14513 7.60332,-1.90866 -1.32946,0.42914 -2.80964,0.45222 -4.22406,-0.0626 C 8.59107,14.379 6.85946,10.63168 8.0888,7.25408 8.60361,5.83966 9.56511,4.74256 10.74839,3.99999 Z m 4.25536,0.30247 -0.28291,1.0521 -1.05211,0.28291 1.05211,0.28291 0.28291,1.0521 0.28291,-1.0521 1.0521,-0.28291 -1.0521,-0.28291 z m -3.33753,1.98165 -0.21251,0.78876 -0.78876,0.2125 0.78876,0.21251 0.21251,0.78875 0.2125,-0.78875 0.78876,-0.21251 -0.78876,-0.2125 z m 4.00503,2.02338 -0.14145,0.52605 -0.52605,0.14146 0.52605,0.14145 0.14145,0.52606 0.14146,-0.52606 0.52605,-0.14145 -0.52605,-0.14146 z m -1.00126,3.33754 -0.21251,0.78875 -0.78875,0.2125 0.78875,0.21251 0.21251,0.78875 0.21251,-0.78875 0.78875,-0.21251 -0.78875,-0.2125 z"
     style="color:#bebebe;display:inline;overflow:visible;visibility:visible;fill:#ffffff;fill-opacity:1;fill-rule:nonzero;stroke:none;stroke-width:1;marker:none;enable-background:accumulate"
     id="path1-5" />
  <path
     id="rect2630"
     style="opacity:0.1;fill:#ffffff;fill-opacity:1"
     d="m 3.9999999,1 c -1.6619983,0 -3,1.3380017 -3,2.9999997 v 1 c 0,-1.661998 1.3380017,-3 3,-3 H 18 c 1.661998,0 3,1.338002 3,3 v -1 C 21,2.3380017 19.661998,1 18,1 Z" />
  <path
     id="rect398"
     style="opacity:0.1;fill:#ffffff"
     d="m 1,17 v 1 c 0,1.661998 1.3380017,3 3,3 h 14 c 1.661998,0 3,-1.338002 3,-3 v -1 c 0,1.661998 -1.338002,3 -3,3 H 4 C 2.3380017,20 1,18.661998 1,17 Z" />
  <path
     id="rect899"
     style="opacity:0.5;fill:#000000;stroke:none"
     d="M 4,0 C 1.7840022,0 0,1.7840022 0,4 v 14 c 0,2.215998 1.7840022,4 4,4 h 14 c 2.215998,0 4,-1.784002 4,-4 V 4 C 22,1.7840022 20.215998,0 18,0 Z m 0,1 h 14 c 1.661998,0 3,1.3380017 3,3 v 14 c 0,1.661998 -1.338002,3 -3,3 H 4 C 2.3380017,21 1,19.661998 1,18 V 4 C 1,2.3380017 2.3380017,1 4,1 Z" />
</svg>
