<?xml version="1.0" encoding="UTF-8" standalone="no"?>
<!-- Created with Inkscape (http://www.inkscape.org/) -->

<svg
   width="22"
   height="22"
   viewBox="0 0 22 22.000001"
   version="1.1"
   id="svg5"
   sodipodi:docname="preferences-desktop-theme-windowdecorations.svg"
   inkscape:version="1.2.1 (9c6d41e410, 2022-07-14)"
   xmlns:inkscape="http://www.inkscape.org/namespaces/inkscape"
   xmlns:sodipodi="http://sodipodi.sourceforge.net/DTD/sodipodi-0.dtd"
   xmlns:xlink="http://www.w3.org/1999/xlink"
   xmlns="http://www.w3.org/2000/svg"
   xmlns:svg="http://www.w3.org/2000/svg">
  <sodipodi:namedview
     id="namedview7"
     pagecolor="#ffffff"
     bordercolor="#666666"
     borderopacity="1.0"
     inkscape:showpageshadow="2"
     inkscape:pageopacity="0.0"
     inkscape:pagecheckerboard="0"
     inkscape:deskcolor="#d1d1d1"
     inkscape:document-units="px"
     showgrid="false"
     inkscape:zoom="22.86312"
     inkscape:cx="4.2645098"
     inkscape:cy="7.8510719"
     inkscape:window-width="1920"
     inkscape:window-height="1007"
     inkscape:window-x="0"
     inkscape:window-y="0"
     inkscape:window-maximized="1"
     inkscape:current-layer="svg5" />
  <defs
     id="defs2">
    <linearGradient
       inkscape:collect="always"
       xlink:href="#linearGradient22024"
       id="linearGradient10386"
       x1="12"
       y1="23"
       x2="12"
       y2="7"
       gradientUnits="userSpaceOnUse"
       gradientTransform="translate(-1,-1)" />
    <linearGradient
       inkscape:collect="always"
       id="linearGradient22024">
      <stop
         style="stop-color:#dedede;stop-opacity:1;"
         offset="0"
         id="stop22020" />
      <stop
         style="stop-color:#f2f2f2;stop-opacity:1;"
         offset="1"
         id="stop22022" />
    </linearGradient>
  </defs>
  <rect
     style="fill:url(#linearGradient10386);fill-opacity:1;stroke:none"
     id="rect184"
     width="21"
     height="21"
     x="0.5"
     y="0.5"
     ry="3.5" />
  <path
     d="m 15.695722,10.004718 c -0.752897,-0.094906 -2.716916,1.251332 -4.652551,3.18773 -0.863179,0.863702 -1.61231,1.717225 -2.1860717,2.522284 0.6724587,0.214247 1.2144157,0.755846 1.4285497,1.42855 0.804753,-0.573928 1.660213,-1.319796 2.523678,-2.183282 2.196054,-2.196966 3.580702,-4.373391 3.092866,-4.861812 -0.05014,-0.0505 -0.118552,-0.08219 -0.206471,-0.09347 z m -7.1957599,6.660056 v 0.0014 C 6.000135,17.336336 7.8748671,18.919334 6,20.000388 c 2.4998271,0 3.749943,-1.251282 3.749943,-2.085626 0,-0.415908 0.04239,-1.180767 -1.2499809,-1.249981 z"
     style="color:#444444;opacity:0.2;fill:#000000;stroke-width:0.714272"
     id="path11335" />
  <path
     d="m 15.695722,9.0047183 c -0.752897,-0.094906 -2.716916,1.2513317 -4.652551,3.1877297 -0.863179,0.863702 -1.61231,1.717225 -2.1860717,2.522284 0.6724587,0.214246 1.2144157,0.755846 1.4285497,1.42855 0.804753,-0.573928 1.660213,-1.319796 2.523678,-2.183282 2.196054,-2.196966 3.580702,-4.3733915 3.092866,-4.8618124 -0.05014,-0.0505 -0.118552,-0.082192 -0.206471,-0.093469 z M 8.4999621,15.664773 v 0.0014 C 6.000135,16.336336 7.8748671,17.919333 6,19.000387 c 2.4998271,0 3.749943,-1.251283 3.749943,-2.085626 0,-0.415907 0.04239,-1.180767 -1.2499809,-1.24998 z"
     style="color:#444444;fill:#4d4d4d;fill-opacity:1;stroke-width:0.714272"
     id="path347"
     sodipodi:nodetypes="ccccccccccscc" />
  <path
     id="rect348"
     style="fill:#6a747d;fill-opacity:1;stroke-width:0.381881;stroke-linejoin:round"
     d="M 4,0.5 C 2.0610019,0.5 0.5,2.0610019 0.5,4 v 3 h 21 V 4 C 21.5,2.0610019 19.938998,0.5 18,0.5 Z"
     sodipodi:nodetypes="ssccsss" />
  <path
     id="path292"
     style="opacity:0.2;fill:#000000;stroke-width:3;stroke-linecap:round;stroke-linejoin:round"
     d="m 13,3.9999997 c -0.552285,0 -1,0.447715 -1,1 0,0.552285 0.447715,1 1,1 0.552285,0 1,-0.447715 1,-1 0,-0.552285 -0.447715,-1 -1,-1 z m 3,0 c -0.552285,0 -1,0.447715 -1,1 0,0.552285 0.447715,1 1,1 0.552285,0 1,-0.447715 1,-1 0,-0.552285 -0.447715,-1 -1,-1 z m 3,0 c -0.552285,0 -1,0.447715 -1,1 0,0.552285 0.447715,1 1,1 0.552285,0 1,-0.447715 1,-1 0,-0.552285 -0.447715,-1 -1,-1 z"
     sodipodi:nodetypes="sssssssssssssss" />
  <path
     d="m 13,2.9999997 c -0.552285,0 -1,0.447715 -1,1 0,0.552285 0.447715,1 1,1 0.552285,0 1,-0.447715 1,-1 0,-0.552285 -0.447715,-1 -1,-1 z m 3,0 c -0.552285,0 -1,0.447715 -1,1 0,0.552285 0.447715,1 1,1 0.552285,0 1,-0.447715 1,-1 0,-0.552285 -0.447715,-1 -1,-1 z m 3,0 c -0.552285,0 -1,0.447715 -1,1 0,0.552285 0.447715,1 1,1 0.552285,0 1,-0.447715 1,-1 0,-0.552285 -0.447715,-1 -1,-1 z"
     style="fill:#ffffff;stroke-width:3;stroke-linecap:round;stroke-linejoin:round"
     id="path522" />
  <rect
     style="opacity:0.2;fill:#000000;stroke-width:0.572822;stroke-linejoin:round"
     id="rect581"
     width="21"
     height="1"
     x="0.5"
     y="6" />
  <path
     id="rect2630"
     style="opacity:0.3;fill:#ffffff;fill-opacity:1"
     d="m 3.9999999,1 c -1.6619983,0 -3,1.3380017 -3,2.9999997 v 1 c 0,-1.661998 1.3380017,-3 3,-3 H 18 c 1.661998,0 3,1.338002 3,3 v -1 C 21,2.3380017 19.661998,1 18,1 Z" />
  <path
     id="rect398"
     style="opacity:0.3;fill:#ffffff"
     d="m 1,17 v 1 c 0,1.661998 1.3380017,3 3,3 h 14 c 1.661998,0 3,-1.338002 3,-3 v -1 c 0,1.661998 -1.338002,3 -3,3 H 4 C 2.3380017,20 1,18.661998 1,17 Z" />
  <path
     id="rect899"
     style="opacity:0.5;fill:#000000;stroke:none"
     d="M 4,0 C 1.7840022,0 0,1.7840022 0,4 v 14 c 0,2.215998 1.7840022,4 4,4 h 14 c 2.215998,0 4,-1.784002 4,-4 V 4 C 22,1.7840022 20.215998,0 18,0 Z m 0,1 h 14 c 1.661998,0 3,1.3380017 3,3 v 14 c 0,1.661998 -1.338002,3 -3,3 H 4 C 2.3380017,21 1,19.661998 1,18 V 4 C 1,2.3380017 2.3380017,1 4,1 Z" />
</svg>
