<?xml version="1.0" encoding="UTF-8" standalone="no"?>
<!-- Created with Inkscape (http://www.inkscape.org/) -->

<svg
   width="22"
   height="22"
   viewBox="0 0 22 22.000001"
   version="1.1"
   id="svg5"
   sodipodi:docname="preferences-system-sound.svg"
   inkscape:version="1.2.1 (9c6d41e410, 2022-07-14)"
   xmlns:inkscape="http://www.inkscape.org/namespaces/inkscape"
   xmlns:sodipodi="http://sodipodi.sourceforge.net/DTD/sodipodi-0.dtd"
   xmlns:xlink="http://www.w3.org/1999/xlink"
   xmlns="http://www.w3.org/2000/svg"
   xmlns:svg="http://www.w3.org/2000/svg">
  <sodipodi:namedview
     id="namedview7"
     pagecolor="#ffffff"
     bordercolor="#666666"
     borderopacity="1.0"
     inkscape:showpageshadow="2"
     inkscape:pageopacity="0.0"
     inkscape:pagecheckerboard="0"
     inkscape:deskcolor="#d1d1d1"
     inkscape:document-units="px"
     showgrid="false"
     inkscape:zoom="18.068182"
     inkscape:cx="6.5031446"
     inkscape:cy="16.963522"
     inkscape:window-width="1920"
     inkscape:window-height="1007"
     inkscape:window-x="0"
     inkscape:window-y="0"
     inkscape:window-maximized="1"
     inkscape:current-layer="svg5"
     showguides="true" />
  <defs
     id="defs2">
    <linearGradient
       inkscape:collect="always"
       xlink:href="#linearGradient22024"
       id="linearGradient10386"
       x1="19"
       y1="23"
       x2="5"
       y2="1"
       gradientUnits="userSpaceOnUse"
       gradientTransform="translate(-1,-1)" />
    <linearGradient
       inkscape:collect="always"
       id="linearGradient22024">
      <stop
         style="stop-color:#cdcdcd;stop-opacity:1;"
         offset="0"
         id="stop22020" />
      <stop
         style="stop-color:#eff0f1;stop-opacity:1;"
         offset="1"
         id="stop22022" />
    </linearGradient>
  </defs>
  <rect
     style="fill:url(#linearGradient10386);fill-opacity:1;stroke:none"
     id="rect184"
     width="21"
     height="21"
     x="0.5"
     y="0.5"
     ry="3.5" />
  <path
     d="m 14.583984,6.5023194 c -0.168154,0.014091 -0.325453,0.1133971 -0.40625,0.2753907 -0.122745,0.2470331 -0.02224,0.5468045 0.22461,0.6699218 C 16.223452,8.3581865 16.99969,10.166982 17,12.000367 c -3.1e-4,1.833384 -0.776548,3.64218 -2.597656,4.552734 -0.246848,0.123117 -0.347355,0.422888 -0.22461,0.669922 0.123117,0.246848 0.422888,0.347355 0.669922,0.22461 2.17888,-1.08944 3.151978,-3.280662 3.152344,-5.447266 -3.66e-4,-2.166604 -0.973464,-4.3578269 -3.152344,-5.4472663 -0.06176,-0.030686 -0.12664,-0.0468 -0.191406,-0.050781 -0.02429,-0.00149 -0.04824,-0.00201 -0.07227,0 z M 10,7.0003663 7,10.000367 H 5 c -0.553998,0 -1,0.446001 -1,0.999999 v 2.000001 c 0,0.553998 0.446002,1 1,1 h 2 l 3,3 z m 3.074219,2.0058597 c -0.21429,-0.032057 -0.424842,0.07756 -0.521485,0.271484 -0.122745,0.247034 -0.02224,0.546805 0.22461,0.669922 C 13.598455,10.358188 14,11.167035 14,12.000367 c 0,0.833331 -0.401545,1.642179 -1.222656,2.052734 -0.246848,0.123117 -0.347355,0.422888 -0.22461,0.669922 0.123117,0.246848 0.422888,0.347354 0.669922,0.22461 C 14.401539,14.35819 15,13.16703 15,12.000367 15,10.833704 14.401539,9.642542 13.222656,9.053101 c -0.04673,-0.02328 -0.09681,-0.03909 -0.148437,-0.04687 z"
     style="opacity:0.2;fill:#000000"
     id="path10922" />
  <path
     id="path8054"
     style="fill:#4d4d4d;fill-opacity:1"
     d="m 14.583984,5.5019531 c -0.168154,0.014091 -0.325453,0.1133971 -0.40625,0.2753907 -0.122745,0.2470331 -0.02224,0.5468045 0.22461,0.6699218 C 16.223452,7.3578202 16.99969,9.166616 17,11 c -3.1e-4,1.833384 -0.776548,3.64218 -2.597656,4.552734 -0.246848,0.123117 -0.347355,0.422888 -0.22461,0.669922 0.123117,0.246848 0.422888,0.347355 0.669922,0.22461 C 17.026536,15.357826 17.999634,13.166604 18,11 17.999634,8.833396 17.026536,6.6421738 14.847656,5.5527344 c -0.06176,-0.030686 -0.12664,-0.0468 -0.191406,-0.050781 -0.02429,-0.00149 -0.04824,-0.00201 -0.07227,0 z M 10,6 7,9 H 5 C 4.4460018,9 4,9.446002 4,10 v 2 c 0,0.553998 0.4460018,1 1,1 h 2 l 3,3 z m 3.074219,2.0058594 c -0.21429,-0.032057 -0.424842,0.077556 -0.521485,0.2714844 -0.122745,0.2470337 -0.02224,0.5468043 0.22461,0.6699218 C 13.598455,9.357821 14,10.166669 14,11 c 0,0.833331 -0.401545,1.642179 -1.222656,2.052734 -0.246848,0.123117 -0.347355,0.422888 -0.22461,0.669922 0.123117,0.246848 0.422888,0.347355 0.669922,0.22461 C 14.401539,13.357823 15,12.166663 15,11 15,9.833337 14.401539,8.6421753 13.222656,8.0527344 13.175928,8.029456 13.125842,8.0136393 13.074219,8.0058594 Z"
     sodipodi:nodetypes="sccccccccssccssssccccccscccscc" />
  <path
     id="rect2630"
     style="opacity:0.3;fill:#ffffff;fill-opacity:1"
     d="m 3.9999999,1 c -1.6619983,0 -3,1.3380017 -3,2.9999997 v 1 c 0,-1.661998 1.3380017,-3 3,-3 H 18 c 1.661998,0 3,1.338002 3,3 v -1 C 21,2.3380017 19.661998,1 18,1 Z" />
  <path
     id="rect398"
     style="opacity:0.3;fill:#ffffff"
     d="m 1,17 v 1 c 0,1.661998 1.3380017,3 3,3 h 14 c 1.661998,0 3,-1.338002 3,-3 v -1 c 0,1.661998 -1.338002,3 -3,3 H 4 C 2.3380017,20 1,18.661998 1,17 Z" />
  <path
     id="rect899"
     style="opacity:0.5;fill:#000000;stroke:none"
     d="M 4,0 C 1.7840022,0 0,1.7840022 0,4 v 14 c 0,2.215998 1.7840022,4 4,4 h 14 c 2.215998,0 4,-1.784002 4,-4 V 4 C 22,1.7840022 20.215998,0 18,0 Z m 0,1 h 14 c 1.661998,0 3,1.3380017 3,3 v 14 c 0,1.661998 -1.338002,3 -3,3 H 4 C 2.3380017,21 1,19.661998 1,18 V 4 C 1,2.3380017 2.3380017,1 4,1 Z" />
</svg>
