<?xml version="1.0" encoding="UTF-8" standalone="no"?>
<!-- Created with Inkscape (http://www.inkscape.org/) -->

<svg
   width="22"
   height="22"
   viewBox="0 0 22 22.000001"
   version="1.1"
   id="svg5"
   sodipodi:docname="qt.svg"
   inkscape:version="1.2.1 (9c6d41e410, 2022-07-14)"
   xmlns:inkscape="http://www.inkscape.org/namespaces/inkscape"
   xmlns:sodipodi="http://sodipodi.sourceforge.net/DTD/sodipodi-0.dtd"
   xmlns:xlink="http://www.w3.org/1999/xlink"
   xmlns="http://www.w3.org/2000/svg"
   xmlns:svg="http://www.w3.org/2000/svg">
  <sodipodi:namedview
     id="namedview7"
     pagecolor="#ffffff"
     bordercolor="#666666"
     borderopacity="1.0"
     inkscape:showpageshadow="2"
     inkscape:pageopacity="0.0"
     inkscape:pagecheckerboard="0"
     inkscape:deskcolor="#d1d1d1"
     inkscape:document-units="px"
     showgrid="false"
     inkscape:zoom="12.256518"
     inkscape:cx="-6.8942908"
     inkscape:cy="15.62434"
     inkscape:window-width="1920"
     inkscape:window-height="1007"
     inkscape:window-x="0"
     inkscape:window-y="0"
     inkscape:window-maximized="1"
     inkscape:current-layer="svg5"
     showguides="false" />
  <defs
     id="defs2">
    <linearGradient
       inkscape:collect="always"
       xlink:href="#linearGradient2833"
       id="linearGradient10386"
       x1="19"
       y1="23"
       x2="5"
       y2="1"
       gradientUnits="userSpaceOnUse"
       gradientTransform="translate(-1,-1)" />
    <linearGradient
       inkscape:collect="always"
       id="linearGradient2833">
      <stop
         style="stop-color:#00cc5c;stop-opacity:1;"
         offset="0"
         id="stop2829" />
      <stop
         style="stop-color:#65e35e;stop-opacity:1;"
         offset="1"
         id="stop2831" />
    </linearGradient>
  </defs>
  <rect
     style="fill:url(#linearGradient10386);fill-opacity:1;stroke:none"
     id="rect184"
     width="21"
     height="21"
     x="0.5"
     y="0.49999997"
     ry="3.5" />
  <path
     d="M 8.517578,7 C 5.738268,7 5,8.5000001 5,11.5 c 0,3.000001 0.725278,4.500001 3.517578,4.500001 h 0.792969 l 1.15625,2 1.337891,-0.5 -1.091797,-2 C 11.751886,15 12,13.5 12,11.5 12,8.5000001 11.296888,7 8.517578,7 Z M 14,7 v 2 h -1 v 1 h 1 v 3.500001 c 0,2 0.467967,2.5 1.935547,2.5 h 1.095703 l -0.0625,-1 h -1.238281 c -0.675351,0 -0.730469,-0.5 -0.730469,-1.5 V 10 h 2 V 9 H 15 V 7 Z M 8.507813,8 C 10.52615,8 11.000005,9.166667 11,11.5 11,13.833334 10.541444,15 8.507813,15 6.474181,15 6,13.833334 6,11.5 6,9.166667 6.489475,8 8.507813,8 Z"
     style="opacity:0.2;fill:#000000"
     id="path2174" />
  <path
     d="M 8.5175782,6 C 5.7382681,6 5,7.5 5,10.5 5,13.5 5.7252781,15 8.5175782,15 H 9.310547 l 1.15625,2 1.337891,-0.5 -1.091797,-2 C 11.751886,14 12,12.5 12,10.5 12,7.5 11.296888,6 8.5175782,6 Z M 14,6 v 2 h -1 v 0.9999996 h 1 V 12.5 c 0,2 0.467967,2.5 1.935547,2.5 h 1.095703 l -0.0625,-1 H 15.730469 C 15.055118,14 15,13.5 15,12.5 V 8.9999996 h 2 V 8 H 15 V 6 Z M 8.5078126,7 C 10.52615,7 11.000005,8.1666667 11,10.5 11,12.833333 10.541444,14 8.5078126,14 6.4741812,14 6,12.833333 6,10.5 6,8.1666667 6.489475,7 8.5078126,7 Z"
     style="fill:#ffffff"
     id="path1746"
     sodipodi:nodetypes="sssccccsscccccssccssccccccscsss" />
  <path
     id="rect2630"
     style="opacity:0.3;fill:#ffffff;fill-opacity:1"
     d="m 3.9999999,1 c -1.6619983,0 -3,1.3380017 -3,2.9999997 v 1 c 0,-1.661998 1.3380017,-3 3,-3 H 18 c 1.661998,0 3,1.338002 3,3 v -1 C 21,2.3380017 19.661998,1 18,1 Z" />
  <path
     id="rect398"
     style="opacity:0.3;fill:#ffffff"
     d="m 1,17 v 1 c 0,1.661998 1.3380017,3 3,3 h 14 c 1.661998,0 3,-1.338002 3,-3 v -1 c 0,1.661998 -1.338002,3 -3,3 H 4 C 2.3380017,20 1,18.661998 1,17 Z" />
  <path
     id="rect899"
     style="opacity:0.5;fill:#000000;stroke:none"
     d="M 4,0 C 1.7840022,0 0,1.7840022 0,4 v 14 c 0,2.215998 1.7840022,4 4,4 h 14 c 2.215998,0 4,-1.784002 4,-4 V 4 C 22,1.7840022 20.215998,0 18,0 Z m 0,1 h 14 c 1.661998,0 3,1.3380017 3,3 v 14 c 0,1.661998 -1.338002,3 -3,3 H 4 C 2.3380017,21 1,19.661998 1,18 V 4 C 1,2.3380017 2.3380017,1 4,1 Z" />
</svg>
