<?xml version="1.0" encoding="UTF-8" standalone="no"?>
<!-- Created with Inkscape (http://www.inkscape.org/) -->

<svg
   width="22"
   height="22"
   viewBox="0 0 22 22.000001"
   version="1.1"
   id="svg5"
   sodipodi:docname="rhythmbox.svg"
   inkscape:version="1.2.1 (9c6d41e410, 2022-07-14)"
   xmlns:inkscape="http://www.inkscape.org/namespaces/inkscape"
   xmlns:sodipodi="http://sodipodi.sourceforge.net/DTD/sodipodi-0.dtd"
   xmlns:xlink="http://www.w3.org/1999/xlink"
   xmlns="http://www.w3.org/2000/svg"
   xmlns:svg="http://www.w3.org/2000/svg">
  <sodipodi:namedview
     id="namedview7"
     pagecolor="#ffffff"
     bordercolor="#666666"
     borderopacity="1.0"
     inkscape:showpageshadow="2"
     inkscape:pageopacity="0.0"
     inkscape:pagecheckerboard="0"
     inkscape:deskcolor="#d1d1d1"
     inkscape:document-units="px"
     showgrid="false"
     inkscape:zoom="33.125"
     inkscape:cx="9.7358491"
     inkscape:cy="11.003774"
     inkscape:window-width="1920"
     inkscape:window-height="1007"
     inkscape:window-x="0"
     inkscape:window-y="0"
     inkscape:window-maximized="1"
     inkscape:current-layer="svg5" />
  <defs
     id="defs2">
    <linearGradient
       inkscape:collect="always"
       xlink:href="#linearGradient22024"
       id="linearGradient10386"
       x1="12"
       y1="23"
       x2="12"
       y2="1"
       gradientUnits="userSpaceOnUse"
       gradientTransform="translate(-1,-1)" />
    <linearGradient
       inkscape:collect="always"
       id="linearGradient22024">
      <stop
         style="stop-color:#cdcdcd;stop-opacity:1;"
         offset="0"
         id="stop22020" />
      <stop
         style="stop-color:#eff0f1;stop-opacity:1;"
         offset="1"
         id="stop22022" />
    </linearGradient>
    <linearGradient
       inkscape:collect="always"
       xlink:href="#linearGradient15347"
       id="linearGradient2629"
       x1="8.2020826"
       y1="11.112499"
       x2="8.2020826"
       y2="4.7624998"
       gradientUnits="userSpaceOnUse"
       gradientTransform="matrix(1.7179671,0,0,1.7179671,-3.5454552,-3.5454537)" />
    <linearGradient
       inkscape:collect="always"
       id="linearGradient15347">
      <stop
         style="stop-color:#ffd017;stop-opacity:1;"
         offset="0"
         id="stop15343" />
      <stop
         style="stop-color:#f99b00;stop-opacity:1;"
         offset="1"
         id="stop15345" />
    </linearGradient>
    <radialGradient
       inkscape:collect="always"
       xlink:href="#linearGradient1990"
       id="radialGradient1992"
       cx="-5.0270829"
       cy="12.700001"
       fx="-5.0270829"
       fy="12.700001"
       r="1.0583333"
       gradientUnits="userSpaceOnUse"
       gradientTransform="matrix(-2.9286142e-6,2.362206,-2.3622048,-6.460862e-6,40.99999,21.625085)" />
    <linearGradient
       inkscape:collect="always"
       id="linearGradient1990">
      <stop
         style="stop-color:#515151;stop-opacity:1"
         offset="0"
         id="stop1986" />
      <stop
         style="stop-color:#303030;stop-opacity:1"
         offset="1"
         id="stop1988" />
    </linearGradient>
  </defs>
  <rect
     style="fill:url(#linearGradient10386);fill-opacity:1;stroke:none"
     id="rect184"
     width="21"
     height="21"
     x="0.5"
     y="0.5"
     ry="3.5" />
  <circle
     style="opacity:0.2;fill:#000000;stroke-width:0.7;stroke-linecap:round;stroke-linejoin:round"
     id="path2003"
     cx="11"
     cy="12"
     r="7" />
  <circle
     style="fill:#333333;stroke-width:0.4375"
     id="path1406"
     cx="11"
     cy="11"
     r="7" />
  <circle
     style="fill:#4d4d4d;stroke-width:0.461538"
     id="path1678"
     cx="11"
     cy="11"
     r="6" />
  <circle
     style="fill:url(#linearGradient2629);fill-opacity:1;stroke-width:3.63257;stroke-linecap:round;stroke-linejoin:round"
     id="path2453"
     cx="11"
     cy="11"
     r="5" />
  <circle
     style="fill:url(#radialGradient1992);fill-opacity:1;stroke-width:12.9239;stroke-linecap:round;stroke-linejoin:round"
     id="path3261"
     cx="11"
     cy="11"
     r="2.5" />
  <path
     id="rect2630"
     style="opacity:0.3;fill:#ffffff;fill-opacity:1"
     d="m 3.9999999,1 c -1.6619983,0 -3,1.3380017 -3,2.9999997 v 1 c 0,-1.661998 1.3380017,-3 3,-3 H 18 c 1.661998,0 3,1.338002 3,3 v -1 C 21,2.3380017 19.661998,1 18,1 Z" />
  <path
     id="rect398"
     style="opacity:0.3;fill:#ffffff"
     d="m 1,17 v 1 c 0,1.661998 1.3380017,3 3,3 h 14 c 1.661998,0 3,-1.338002 3,-3 v -1 c 0,1.661998 -1.338002,3 -3,3 H 4 C 2.3380017,20 1,18.661998 1,17 Z" />
  <path
     id="rect899"
     style="opacity:0.5;fill:#000000;stroke:none"
     d="M 4,0 C 1.7840022,0 0,1.7840022 0,4 v 14 c 0,2.215998 1.7840022,4 4,4 h 14 c 2.215998,0 4,-1.784002 4,-4 V 4 C 22,1.7840022 20.215998,0 18,0 Z m 0,1 h 14 c 1.661998,0 3,1.3380017 3,3 v 14 c 0,1.661998 -1.338002,3 -3,3 H 4 C 2.3380017,21 1,19.661998 1,18 V 4 C 1,2.3380017 2.3380017,1 4,1 Z" />
</svg>
