<?xml version="1.0" encoding="UTF-8" standalone="no"?>
<!-- Created with Inkscape (http://www.inkscape.org/) -->

<svg
   width="22"
   height="22"
   viewBox="0 0 22 22.000001"
   version="1.1"
   id="svg5"
   sodipodi:docname="system-file-manager.svg"
   inkscape:version="1.2.1 (9c6d41e410, 2022-07-14)"
   xmlns:inkscape="http://www.inkscape.org/namespaces/inkscape"
   xmlns:sodipodi="http://sodipodi.sourceforge.net/DTD/sodipodi-0.dtd"
   xmlns:xlink="http://www.w3.org/1999/xlink"
   xmlns="http://www.w3.org/2000/svg"
   xmlns:svg="http://www.w3.org/2000/svg">
  <sodipodi:namedview
     id="namedview7"
     pagecolor="#ffffff"
     bordercolor="#666666"
     borderopacity="1.0"
     inkscape:showpageshadow="2"
     inkscape:pageopacity="0.0"
     inkscape:pagecheckerboard="0"
     inkscape:deskcolor="#d1d1d1"
     inkscape:document-units="px"
     showgrid="false"
     inkscape:zoom="16.5"
     inkscape:cx="-1.1818182"
     inkscape:cy="10.757576"
     inkscape:window-width="1920"
     inkscape:window-height="1007"
     inkscape:window-x="0"
     inkscape:window-y="0"
     inkscape:window-maximized="1"
     inkscape:current-layer="svg5" />
  <defs
     id="defs2">
    <linearGradient
       inkscape:collect="always"
       xlink:href="#linearGradient1264"
       id="linearGradient10386"
       x1="19"
       y1="23"
       x2="5"
       y2="1"
       gradientUnits="userSpaceOnUse"
       gradientTransform="translate(-1,-1)" />
    <linearGradient
       inkscape:collect="always"
       id="linearGradient1264">
      <stop
         style="stop-color:#97866b;stop-opacity:1;"
         offset="0"
         id="stop1260" />
      <stop
         style="stop-color:#d0c7ad;stop-opacity:1;"
         offset="1"
         id="stop1262" />
    </linearGradient>
  </defs>
  <rect
     style="fill:url(#linearGradient10386);fill-opacity:1;stroke:none"
     id="rect184"
     width="21"
     height="21"
     x="0.5"
     y="0.5"
     ry="3.5" />
  <path
     d="m 5.000227,5.9998868 c -0.554,0 -1,0.4460004 -1,1.0000001 V 16.999888 c 0,0.554 0.446,1 1,1 h 12 c 0.554,0 1,-0.446 1,-1 V 8.9997738 c 0,-0.5539991 -0.446,-1.0000002 -1,-1.0000002 l -6.000099,1.13e-4 -0.999901,-1.4999998 c -0.344345,-0.3146677 -0.446,-0.5 -1,-0.5 z"
     style="opacity:0.2;fill:#000000;fill-opacity:1;stroke-width:0.5"
     id="path14031"
     sodipodi:nodetypes="ssssssssccss" />
  <path
     d="m 5.000227,5 c -0.553999,0 -1,0.4460004 -1,0.9999999 V 16 c 0,0.554 0.446001,1 1,1 h 12 c 0.554,0 1,-0.446 1,-1 V 7.9999998 c 0,-0.5539989 -0.446,-1 -1,-1 H 11.000128 L 10.000227,5.5 c -0.344345,-0.3146678 -0.446,-0.5 -1,-0.5 z"
     style="fill:#ede9e1;fill-opacity:1;stroke-width:0.5"
     id="path10731"
     sodipodi:nodetypes="ssssssssccss" />
  <path
     id="path15912"
     style="opacity:0.1;fill:#000000;fill-opacity:1;stroke-width:0.5"
     d="M 10.599757,6.3993712 9.000148,7.9989806 h -4 c -0.552283,0 -1,0.4477179 -1,1.0000002 v 6.0000002 c 0,0.553996 0.446003,1 1,1 h 13 V 8.0009337 c 0,-0.5539988 -0.446001,-1 -1,-1 h -6 z" />
  <path
     d="m 11.000128,6.9999998 -1.999901,2 h -4 c -0.552284,0 -1,0.4477162 -1,1.0000002 v 6 c 0,0.553998 0.446001,1 1,1 h 11.999546 c 0.553999,0 1,-0.446002 1,-1 V 7.9999999 c 0,-0.5539989 -0.446001,-1 -1,-1 z"
     style="fill:#ffffff;fill-opacity:1;stroke-width:0.5"
     id="path14427"
     sodipodi:nodetypes="ccssssssssc" />
  <path
     id="rect2630"
     style="opacity:0.3;fill:#ffffff;fill-opacity:1"
     d="m 3.9999999,1 c -1.6619983,0 -3,1.3380017 -3,2.9999997 v 1 c 0,-1.661998 1.3380017,-3 3,-3 H 18 c 1.661998,0 3,1.338002 3,3 v -1 C 21,2.3380017 19.661998,1 18,1 Z" />
  <path
     id="rect398"
     style="opacity:0.3;fill:#ffffff"
     d="m 1,17 v 1 c 0,1.661998 1.3380017,3 3,3 h 14 c 1.661998,0 3,-1.338002 3,-3 v -1 c 0,1.661998 -1.338002,3 -3,3 H 4 C 2.3380017,20 1,18.661998 1,17 Z" />
  <path
     id="rect899"
     style="opacity:0.5;fill:#000000;stroke:none"
     d="M 4,0 C 1.7840022,0 0,1.7840022 0,4 v 14 c 0,2.215998 1.7840022,4 4,4 h 14 c 2.215998,0 4,-1.784002 4,-4 V 4 C 22,1.7840022 20.215998,0 18,0 Z m 0,1 h 14 c 1.661998,0 3,1.3380017 3,3 v 14 c 0,1.661998 -1.338002,3 -3,3 H 4 C 2.3380017,21 1,19.661998 1,18 V 4 C 1,2.3380017 2.3380017,1 4,1 Z" />
</svg>
