<?xml version="1.0" encoding="UTF-8" standalone="no"?>
<!-- Created with Inkscape (http://www.inkscape.org/) -->

<svg
   width="22"
   height="22"
   viewBox="0 0 22 22.000001"
   version="1.1"
   id="svg5"
   sodipodi:docname="utilities-tweak-tool.svg"
   inkscape:version="1.2.1 (9c6d41e410, 2022-07-14)"
   xmlns:inkscape="http://www.inkscape.org/namespaces/inkscape"
   xmlns:sodipodi="http://sodipodi.sourceforge.net/DTD/sodipodi-0.dtd"
   xmlns:xlink="http://www.w3.org/1999/xlink"
   xmlns="http://www.w3.org/2000/svg"
   xmlns:svg="http://www.w3.org/2000/svg">
  <sodipodi:namedview
     id="namedview7"
     pagecolor="#ffffff"
     bordercolor="#666666"
     borderopacity="1.0"
     inkscape:showpageshadow="2"
     inkscape:pageopacity="0.0"
     inkscape:pagecheckerboard="0"
     inkscape:deskcolor="#d1d1d1"
     inkscape:document-units="px"
     showgrid="false"
     inkscape:zoom="36.136364"
     inkscape:cx="11.055346"
     inkscape:cy="11.027673"
     inkscape:window-width="1920"
     inkscape:window-height="1007"
     inkscape:window-x="0"
     inkscape:window-y="0"
     inkscape:window-maximized="1"
     inkscape:current-layer="svg5" />
  <defs
     id="defs2">
    <linearGradient
       inkscape:collect="always"
       xlink:href="#linearGradient22024"
       id="linearGradient10386"
       x1="12"
       y1="23"
       x2="12"
       y2="1"
       gradientUnits="userSpaceOnUse"
       gradientTransform="translate(-1,-1)" />
    <linearGradient
       inkscape:collect="always"
       id="linearGradient22024">
      <stop
         style="stop-color:#dedede;stop-opacity:1;"
         offset="0"
         id="stop22020" />
      <stop
         style="stop-color:#f2f2f2;stop-opacity:1;"
         offset="1"
         id="stop22022" />
    </linearGradient>
    <linearGradient
       inkscape:collect="always"
       xlink:href="#linearGradient2971"
       id="linearGradient2973"
       x1="31.666666"
       y1="30"
       x2="31.666666"
       y2="14"
       gradientUnits="userSpaceOnUse"
       gradientTransform="matrix(0.375,0,0,0.375,-0.87499985,-1.2499998)" />
    <linearGradient
       inkscape:collect="always"
       id="linearGradient2971">
      <stop
         style="stop-color:#51aadf;stop-opacity:1;"
         offset="0"
         id="stop2967" />
      <stop
         style="stop-color:#57bcfa;stop-opacity:1;"
         offset="1"
         id="stop2969" />
    </linearGradient>
    <linearGradient
       inkscape:collect="always"
       xlink:href="#linearGradient2059"
       id="linearGradient2063"
       x1="31.666666"
       y1="52"
       x2="31.666666"
       y2="36"
       gradientUnits="userSpaceOnUse"
       gradientTransform="matrix(0.375,0,0,0.375,-0.87499985,-1.4999999)" />
    <linearGradient
       inkscape:collect="always"
       id="linearGradient2059">
      <stop
         style="stop-color:#999999;stop-opacity:1"
         offset="0"
         id="stop2055" />
      <stop
         style="stop-color:#b3b3b3;stop-opacity:1"
         offset="1"
         id="stop2057" />
    </linearGradient>
    <linearGradient
       inkscape:collect="always"
       xlink:href="#linearGradient22024"
       id="linearGradient3761"
       x1="39"
       y1="27"
       x2="39"
       y2="15"
       gradientUnits="userSpaceOnUse"
       gradientTransform="matrix(0.33333333,0,0,0.33333333,0.99999995,7.6837158e-8)" />
    <linearGradient
       inkscape:collect="always"
       xlink:href="#linearGradient22024"
       id="linearGradient3771"
       x1="38.999996"
       y1="27"
       x2="39"
       y2="15"
       gradientUnits="userSpaceOnUse"
       gradientTransform="matrix(0.33333334,0,0,0.33333334,-4.9999998,8.0000002)" />
  </defs>
  <rect
     style="fill:url(#linearGradient10386);fill-opacity:1;stroke:none"
     id="rect184"
     width="21"
     height="21"
     x="0.5"
     y="0.5"
     ry="3.5" />
  <path
     id="rect1301"
     style="opacity:0.2;fill:#ffffff;stroke-width:1.28572;stroke-linecap:round;stroke-linejoin:round"
     d="m 7.0000001,5.0000002 c -1.6619976,0 -3,1.3380021 -3,3 0,1.6619953 1.3380025,2.9999998 3,2.9999998 H 15 c 1.661998,0 3,-1.3380045 3,-2.9999998 0,-1.6619979 -1.338002,-3 -3,-3 z m 0,7.9999998 c -1.661996,0 -3,1.338005 -3,3 0,1.661997 1.338004,3 3,3 H 15 c 1.661997,0 3,-1.338003 3,-3 0,-1.661995 -1.338003,-3 -3,-3 z" />
  <rect
     style="fill:url(#linearGradient2973);fill-opacity:1;stroke-width:1.125;stroke-linecap:round;stroke-linejoin:round"
     id="rect743"
     width="14"
     height="6"
     x="4"
     y="4"
     ry="3" />
  <rect
     style="fill:url(#linearGradient2063);fill-opacity:1;stroke-width:1.125;stroke-linecap:round;stroke-linejoin:round"
     id="rect745"
     width="14"
     height="6"
     x="4"
     y="12"
     ry="3" />
  <path
     id="rect3773"
     style="opacity:0.2;fill:#000000;fill-opacity:1;stroke-width:1;stroke-linecap:round;stroke-linejoin:round"
     d="m 13,6.0000002 c -1.107997,0 -2,0.8920031 -2,2 C 11,9.1079965 11.892003,10 13,10 h 2 c 1.107996,0 2,-0.8920035 2,-1.9999998 0,-1.1079969 -0.892004,-2 -2,-2 z M 7.0000001,14 c -1.1079959,0 -2,0.892004 -2,2 0,1.107996 0.8920041,2 2,2 H 9.0000002 C 10.107997,18 11,17.107996 11,16 11,14.892004 10.107997,14 9.0000002,14 Z" />
  <rect
     style="fill:url(#linearGradient3761);fill-opacity:1;stroke-width:1;stroke-linecap:round;stroke-linejoin:round"
     id="rect3027"
     width="6"
     height="4"
     x="11"
     y="5"
     ry="2" />
  <rect
     style="fill:url(#linearGradient3771);fill-opacity:1;stroke-width:1;stroke-linecap:round;stroke-linejoin:round"
     id="rect3763"
     width="6"
     height="4"
     x="5"
     y="13"
     ry="2" />
  <path
     id="rect2630"
     style="opacity:0.3;fill:#ffffff;fill-opacity:1"
     d="m 3.9999999,1 c -1.6619983,0 -3,1.3380017 -3,2.9999997 v 1 c 0,-1.661998 1.3380017,-3 3,-3 H 18 c 1.661998,0 3,1.338002 3,3 v -1 C 21,2.3380017 19.661998,1 18,1 Z" />
  <path
     id="rect398"
     style="opacity:0.3;fill:#ffffff"
     d="m 1,17 v 1 c 0,1.661998 1.3380017,3 3,3 h 14 c 1.661998,0 3,-1.338002 3,-3 v -1 c 0,1.661998 -1.338002,3 -3,3 H 4 C 2.3380017,20 1,18.661998 1,17 Z" />
  <path
     id="rect899"
     style="opacity:0.5;fill:#000000;stroke:none"
     d="M 4,0 C 1.7840022,0 0,1.7840022 0,4 v 14 c 0,2.215998 1.7840022,4 4,4 h 14 c 2.215998,0 4,-1.784002 4,-4 V 4 C 22,1.7840022 20.215998,0 18,0 Z m 0,1 h 14 c 1.661998,0 3,1.3380017 3,3 v 14 c 0,1.661998 -1.338002,3 -3,3 H 4 C 2.3380017,21 1,19.661998 1,18 V 4 C 1,2.3380017 2.3380017,1 4,1 Z" />
</svg>
