<?xml version="1.0" encoding="UTF-8" standalone="no"?>
<!-- Created with Inkscape (http://www.inkscape.org/) -->

<svg
   width="22"
   height="22"
   viewBox="0 0 22 22.000001"
   version="1.1"
   id="svg5"
   sodipodi:docname="visual-studio-code.svg"
   inkscape:version="1.2.1 (9c6d41e410, 2022-07-14)"
   xmlns:inkscape="http://www.inkscape.org/namespaces/inkscape"
   xmlns:sodipodi="http://sodipodi.sourceforge.net/DTD/sodipodi-0.dtd"
   xmlns:xlink="http://www.w3.org/1999/xlink"
   xmlns="http://www.w3.org/2000/svg"
   xmlns:svg="http://www.w3.org/2000/svg">
  <sodipodi:namedview
     id="namedview7"
     pagecolor="#ffffff"
     bordercolor="#666666"
     borderopacity="1.0"
     inkscape:showpageshadow="2"
     inkscape:pageopacity="0.0"
     inkscape:pagecheckerboard="0"
     inkscape:deskcolor="#d1d1d1"
     inkscape:document-units="px"
     showgrid="false"
     inkscape:zoom="24.513036"
     inkscape:cx="3.5287347"
     inkscape:cy="-6.9146882"
     inkscape:window-width="1920"
     inkscape:window-height="1007"
     inkscape:window-x="0"
     inkscape:window-y="0"
     inkscape:window-maximized="1"
     inkscape:current-layer="svg5" />
  <defs
     id="defs2">
    <linearGradient
       inkscape:collect="always"
       xlink:href="#4852"
       id="linearGradient10386"
       x1="19"
       y1="23"
       x2="5"
       y2="1"
       gradientUnits="userSpaceOnUse"
       gradientTransform="translate(-1,-1)" />
    <linearGradient
       inkscape:collect="always"
       id="4852">
      <stop
         style="stop-color:#333333;stop-opacity:1"
         offset="0"
         id="stop14555" />
      <stop
         style="stop-color:#666666;stop-opacity:1"
         offset="1"
         id="stop14557" />
    </linearGradient>
  </defs>
  <rect
     style="fill:url(#linearGradient10386);fill-opacity:1;stroke:none"
     id="rect184"
     width="21"
     height="21"
     x="0.5"
     y="0.5"
     ry="3.5" />
  <path
     d="m 14.22998,5.0001292 c -0.04426,7.5e-4 -0.08886,0.0048 -0.132401,0.01223 -0.130375,0.022425 -0.25587,0.074567 -0.365542,0.1547118 -0.01342,0.00981 -0.0252,0.02246 -0.03814,0.0331 -4.05e-4,3.305e-4 -10e-4,4.055e-4 -0.0015,7.5e-4 -0.02193,0.018105 -0.04439,0.035645 -0.06476,0.056129 L 8.1719084,10.199928 5.7059381,8.2728566 C 5.4822013,8.1021384 5.1697067,8.1166638 4.9619012,8.3066764 L 4.1905206,9.011158 c -0.2542125,0.232418 -0.2538415,0.634319 0,0.867111 l 2.1284918,1.99975 -2.1284918,1.928512 c -0.2538426,0.232801 -0.2542121,0.634688 0,0.86711 l 0.7713806,0.705202 c 0.2078045,0.190044 0.5203001,0.203798 0.7440369,0.0331 l 2.4271136,-1.829925 5.4946463,5.161646 c 0.0174,0.0175 0.03685,0.03173 0.05541,0.04749 0.0035,0.0026 0.0065,0.0061 0.01007,0.0086 h 7.5e-4 c 0.01294,0.01065 0.02472,0.02329 0.03814,0.0331 0.109864,0.08026 0.234932,0.132389 0.365542,0.154713 h 7.5e-4 c 0.08685,0.01486 0.175899,0.0164 0.264083,0.0043 h 7.5e-4 c 0.04397,-0.0061 0.08784,-0.01577 0.130963,-0.02878 0.04336,-0.01307 0.08636,-0.02947 0.128083,-0.04965 l 2.882603,-1.393866 c 0.265675,-0.128502 0.446009,-0.381633 0.48643,-0.669942 0.0057,-0.04034 0.0085,-0.08156 0.0086,-0.12305 v -0.0022 -0.0331 -9.3820616 -0.03382 c 0,-7.5e-4 1e-6,-0.00145 0,-0.0022 0,-0.04153 -0.003,-0.082668 -0.0086,-0.1230506 C 17.950819,6.8619153 17.770487,6.6087907 17.504808,6.48029 L 14.622205,5.0864661 c -0.08367,-0.040475 -0.171105,-0.066288 -0.259765,-0.078436 -0.0442,-0.00611 -0.08814,-0.00865 -0.132401,-0.00791 z m 0.271998,3.7814656 V 15.147121 L 10.355807,11.90679 Z"
     style="opacity:0.2;fill:#000000;stroke-width:0.70001"
     id="path1683" />
  <path
     d="M 17.5047,5.4831508 14.621888,4.0870699 C 14.288227,3.9254738 13.88942,3.9936393 13.62752,4.2570356 L 4.1901906,12.806636 c -0.2538413,0.232792 -0.2535477,0.634744 6.5e-4,0.867157 l 0.7708721,0.704832 c 0.2078035,0.190037 0.5207556,0.204006 0.7444909,0.03331 L 17.070917,5.8453241 c 0.381261,-0.2909138 0.928892,-0.01739 0.928892,0.4639409 v -0.03367 c 0,-0.3378754 -0.192447,-0.6458801 -0.495109,-0.7924515 z"
     style="fill:#0072b0;stroke-width:0.7"
     id="path3815" />
  <path
     d="m 17.5047,16.517017 -2.882812,1.396086 c -0.333661,0.161535 -0.732468,0.09339 -0.994368,-0.169965 L 4.1901901,8.87849 C 3.93635,8.6457073 3.9366421,8.2437463 4.1908401,8.0113376 L 4.9616922,7.3064794 C 5.1694957,7.1164729 5.4824478,7.102485 5.7061836,7.2731947 L 17.070919,16.154814 c 0.381261,0.290903 0.928892,0.01739 0.928892,-0.463948 v 0.03371 c 0,0.33785 -0.192447,0.645851 -0.495109,0.792458 z"
     style="fill:#008eda;stroke-width:0.7"
     id="path3843" />
  <path
     d="m 14.622085,17.913189 c -0.333772,0.161441 -0.732576,0.09324 -0.994479,-0.170191 0.322677,0.324544 0.874458,0.09466 0.874458,-0.364341 V 4.6212083 c 0,-0.4590025 -0.551781,-0.6888768 -0.874458,-0.3643112 0.261901,-0.2634185 0.660707,-0.3316812 0.994479,-0.1702272 l 2.882322,1.3941629 c 0.302889,0.1464934 0.495489,0.4546111 0.495489,0.792634 v 9.4529982 c 0,0.338014 -0.192605,0.646123 -0.495489,0.792618 z"
     style="fill:#1eacf8;stroke-width:0.7"
     id="path3871" />
  <path
     id="rect2630"
     style="opacity:0.3;fill:#ffffff;fill-opacity:1"
     d="m 3.9999999,1 c -1.6619983,0 -3,1.3380017 -3,2.9999997 v 1 c 0,-1.661998 1.3380017,-3 3,-3 H 18 c 1.661998,0 3,1.338002 3,3 v -1 C 21,2.3380017 19.661998,1 18,1 Z" />
  <path
     id="rect398"
     style="opacity:0.3;fill:#ffffff"
     d="m 1,17 v 1 c 0,1.661998 1.3380017,3 3,3 h 14 c 1.661998,0 3,-1.338002 3,-3 v -1 c 0,1.661998 -1.338002,3 -3,3 H 4 C 2.3380017,20 1,18.661998 1,17 Z" />
  <path
     id="rect899"
     style="opacity:0.5;fill:#000000;stroke:none"
     d="M 4,0 C 1.7840022,0 0,1.7840022 0,4 v 14 c 0,2.215998 1.7840022,4 4,4 h 14 c 2.215998,0 4,-1.784002 4,-4 V 4 C 22,1.7840022 20.215998,0 18,0 Z m 0,1 h 14 c 1.661998,0 3,1.3380017 3,3 v 14 c 0,1.661998 -1.338002,3 -3,3 H 4 C 2.3380017,21 1,19.661998 1,18 V 4 C 1,2.3380017 2.3380017,1 4,1 Z" />
</svg>
