<?xml version="1.0" encoding="UTF-8" standalone="no"?>
<!-- Created with Inkscape (http://www.inkscape.org/) -->

<svg
   width="22"
   height="22"
   viewBox="0 0 22 22.000001"
   version="1.1"
   id="svg5"
   sodipodi:docname="wayland.svg"
   inkscape:version="1.2.1 (9c6d41e410, 2022-07-14)"
   xmlns:inkscape="http://www.inkscape.org/namespaces/inkscape"
   xmlns:sodipodi="http://sodipodi.sourceforge.net/DTD/sodipodi-0.dtd"
   xmlns:xlink="http://www.w3.org/1999/xlink"
   xmlns="http://www.w3.org/2000/svg"
   xmlns:svg="http://www.w3.org/2000/svg">
  <sodipodi:namedview
     id="namedview7"
     pagecolor="#ffffff"
     bordercolor="#666666"
     borderopacity="1.0"
     inkscape:showpageshadow="2"
     inkscape:pageopacity="0.0"
     inkscape:pagecheckerboard="0"
     inkscape:deskcolor="#d1d1d1"
     inkscape:document-units="px"
     showgrid="false"
     inkscape:zoom="8.3020833"
     inkscape:cx="3.9749059"
     inkscape:cy="1.8670013"
     inkscape:window-width="1920"
     inkscape:window-height="1009"
     inkscape:window-x="0"
     inkscape:window-y="0"
     inkscape:window-maximized="1"
     inkscape:current-layer="svg5"
     showguides="true" />
  <defs
     id="defs2">
    <linearGradient
       inkscape:collect="always"
       xlink:href="#linearGradient6547"
       id="linearGradient10386"
       x1="19"
       y1="23"
       x2="5"
       y2="1"
       gradientUnits="userSpaceOnUse"
       gradientTransform="translate(-1,-1)" />
    <linearGradient
       inkscape:collect="always"
       id="linearGradient6547">
      <stop
         style="stop-color:#ffbc00;stop-opacity:1;"
         offset="0"
         id="stop6543" />
      <stop
         style="stop-color:#ffdf83;stop-opacity:1;"
         offset="1"
         id="stop6545" />
    </linearGradient>
  </defs>
  <rect
     style="fill:url(#linearGradient10386);fill-opacity:1;stroke:none"
     id="rect184"
     width="21"
     height="21"
     x="0.5"
     y="0.5"
     ry="3.5" />
  <path
     d="M 10.999111,5 C 9.804494,5 8.680253,5.300293 7.696298,5.8279285 h 1.390563 v 0.094367 C 8.901137,5.9311455 8.776258,5.9796885 8.709401,6.0682945 8.568249,5.9708265 8.430041,5.922306 8.296324,5.9222955 H 7.840519 l -0.25639,0.03917 -0.04451,-0.03917 H 7.525369 C 7.343261,6.0266445 7.16614,6.1390295 6.994783,6.2588065 7.387368,6.821449 7.624423,7.3076025 7.7052,7.7152475 h 0.379242 v 0.094367 h -0.29022 v 0.105049 C 7.905655,8.3223155 7.987926,8.52716 8.039929,8.527153 h 0.08903 l 0.201194,-0.053414 0.04452,0.053414 0.04452,-0.053414 0.04452,0.053414 v 0.03917 C 8.315134,8.672674 8.21481,8.820017 8.162811,9.006105 h -0.03384 v 0.09258 h 0.07834 c 0.103999,1.479923 0.29814,2.601242 0.58044,3.36335 l 0.165585,0.131754 h 0.08902 c 0.111429,7e-6 0.346706,-0.517538 0.703293,-1.554368 0.230293,-0.469665 0.396312,-0.881185 0.500318,-1.235661 L 10.201447,9.65598 C 10.43174,9.310379 10.670268,9.137868 10.915426,9.137857 h 0.07834 c 0.156003,1.1e-5 0.266088,0.09705 0.332952,0.292002 0.208005,0.292446 0.375802,0.732693 0.502099,1.31756 l 0.624953,1.381661 c 0.08171,0.09749 0.121069,0.208894 0.121072,0.332955 0.23029,0.522847 0.439226,0.867874 0.624953,1.036245 h 0.133536 c 0.156002,3e-6 0.363156,-0.646912 0.623175,-1.940737 0.04456,7e-6 0.167972,-0.345022 0.36856,-1.036245 v -0.05342 l -0.701515,-0.09258 -0.167363,0.05163 h -0.21188 v -0.10505 l 0.423756,-0.04095 h 0.824369 c 0.319431,-1.143159 0.612115,-2.029079 0.87956,-2.658274 0.02772,-0.402185 0.0602,-0.734153 0.09437,-1.011318 -0.485033,-0.4024825 -1.025367,-0.7414365 -1.607784,-1.0024175 -0.04767,0.110089 -0.139594,0.165599 -0.279538,0.165585 v -0.092584 l 0.258172,-0.083685 C 12.96993,5.2131945 12.009222,4.999999 10.999137,4.999999 Z M 9.667302,5.8279285 h 1.125271 v 0.094367 l -0.256389,0.03917 -0.245708,-0.03917 -0.211879,0.092585 -0.07656,-0.092585 H 9.667304 Z m 2.328882,0.7584885 h 0.122853 v 0.03917 c -3e-6,0.062044 -0.04114,0.092596 -0.122853,0.092586 l -0.04451,0.053413 V 6.825 L 11.828817,6.771586 V 6.679 Z M 6.011954,7.0902945 C 4.767897,8.3538365 4,10.087611 4,12.000893 4,15.866814 7.13319,19 10.999111,19 14.865033,19 18,15.866814 18,12.000893 18,10.43899 17.488388,8.995516 16.623681,7.8309785 16.435588,8.054121 16.253234,8.476508 16.07529,9.098689 c -0.08173,0.646916 -0.219932,1.245314 -0.413076,1.794737 -0.170871,0.567157 -0.256397,1.090082 -0.25639,1.568613 l -0.322269,0.94366 c -7e-6,0.07976 0.121622,0.158833 0.366783,0.238584 -0.04458,0.186102 -0.11206,0.279541 -0.201194,0.279538 v 0.05342 h 0.07834 v 0.03917 c -10e-6,0.09748 -0.126672,0.146002 -0.379246,0.145999 l 0.04629,0.05342 v 0.186952 h -0.07834 c 0.052,0.186099 0.162082,0.277757 0.332955,0.277753 v 0.09437 h -0.332955 v 0.05342 c 0.111426,0 0.167359,0.07908 0.167366,0.238585 l -0.468268,0.185171 0.04452,0.05341 v 0.04095 c -7e-6,0.06204 -0.05594,0.09259 -0.167367,0.09259 v 0.05341 c 0.141138,4e-6 0.211873,0.03055 0.21188,0.09259 -0.200589,0.07976 -0.465458,0.475086 -0.792319,1.184025 -0.334306,0.629185 -0.623732,0.94366 -0.868879,0.94366 h -0.08903 c -0.185728,-0.141785 -0.336952,-0.612591 -0.455805,-1.410147 -0.475454,-1.214058 -0.713982,-1.927464 -0.713979,-2.140152 -3e-6,-0.549423 -0.153006,-1.133454 -0.457583,-1.753783 -0.08172,-0.274708 -0.135877,-0.621517 -0.165585,-1.038024 l -0.201197,-0.05164 c -0.505166,0.912765 -0.768254,1.626174 -0.790538,2.140149 -0.141152,0.301304 -0.253019,0.6643 -0.334733,1.089662 0.30458,0.09748 0.455801,0.190921 0.455808,0.279538 v 0.05163 C 10.052752,14.844499 9.88673,14.778013 9.790161,14.680531 9.686152,14.919801 9.547947,15.584686 9.377084,16.674684 9.243363,17.179804 9.077344,17.433172 8.876766,17.433172 8.312174,17.211626 7.840147,16.84863 7.461275,16.34351 c -0.05943,4e-6 -0.156499,-0.253368 -0.29022,-0.758488 -0.08172,0 -0.137648,-0.251587 -0.167363,-0.756707 C 6.721396,14.110514 6.529036,13.289302 6.42503,12.367675 V 10.986013 H 6.38051 l -0.201194,0.05341 v -0.05341 c 0,-0.06203 0.06748,-0.09258 0.201194,-0.09258 L 6.336,10.095767 V 9.470814 L 6.011949,7.4766645 Z m 5.359281,0.014245 v 0.053417 c -7e-6,0.070903 -0.177569,0.146377 -0.534149,0.226121 v -0.094367 l 0.245707,-0.131754 0.04452,0.03917 h 0.03384 l 0.210098,-0.092586 z m -1.201834,0.478954 v 0.03917 C 10.013392,7.7644625 9.760066,7.89384 9.410913,8.009032 V 7.914665 c 0.05943,7e-6 0.08902,-0.04851 0.08903,-0.145999 z m 6.302937,0.053414 -0.01957,0.1727075 h 0.07834 l 0.04807,-0.03739 c -0.03472,-0.04577 -0.071,-0.090437 -0.106831,-0.135317 z m -4.185934,0.4112955 0.04452,0.053414 v 0.03917 l -0.07834,0.1068305 h -0.04452 L 12.119034,8.140787 v -0.03917 z m 1.536567,0.053414 h 0.04451 v 0.03917 l -0.07656,0.1068305 h -0.04451 v -0.053414 z m -0.701516,0.6641215 0.167366,0.133539 c -0.02971,0.097486 -0.111993,0.1460065 -0.245706,0.1459995 l -0.08903,-0.1459995 c -7e-6,-0.044305 0.05593,-0.089222 0.167367,-0.133539 z m 1.002417,0.6124895 0.03385,0.05163 v 0.04095 l -0.03385,0.05342 h -0.08902 v -0.05342 z m -1.581076,0.477173 v 0.04095 l -0.211879,0.199416 h -0.122853 v -0.05342 c -8e-6,-0.07975 0.11186,-0.142631 0.334732,-0.186948 z m -6.910084,1.848146 h 0.04452 v 0.04096 C 5.565799,12.036946 5.470508,12.213062 5.38879,12.275089 H 5.29976 v -0.199417 z m 5.450081,2.220275 h 0.04452 v 0.09259 l -0.334733,0.199416 -0.04452,-0.05342 v -0.09259 z m -4.579421,0.624953 h 0.07656 l 0.133539,0.518123 H 6.624441 L 6.503372,14.587946 Z m 4.456567,0.610708 h 0.03384 l 0.133539,0.145999 -0.04452,0.04095 h -0.04452 l -0.07834,-0.133536 v -0.05341 z"
     style="display:inline;opacity:0.2;fill:#000000;fill-opacity:1;stroke:none;stroke-width:0.35;enable-background:new"
     id="path6093" />
  <path
     d="M 10.999111,4 C 9.804494,4 8.680253,4.300293 7.696298,4.8279285 h 1.390563 v 0.094367 C 8.901137,4.9311455 8.776258,4.9796885 8.709401,5.0682945 8.568249,4.9708265 8.430041,4.922306 8.296324,4.9222955 H 7.840519 l -0.25639,0.03917 -0.04451,-0.03917 H 7.525369 C 7.343261,5.0266445 7.16614,5.1390295 6.994783,5.2588065 7.387368,5.821449 7.624423,6.3076025 7.7052,6.7152475 h 0.379242 v 0.094367 h -0.29022 v 0.105049 C 7.905655,7.3223155 7.987926,7.52716 8.039929,7.527153 h 0.08903 l 0.201194,-0.053414 0.04452,0.053414 0.04452,-0.053414 0.04452,0.053414 v 0.03917 C 8.315134,7.672674 8.21481,7.820017 8.162811,8.006105 H 8.128971 V 8.09869 h 0.07834 c 0.103999,1.479923 0.29814,2.601242 0.58044,3.36335 l 0.165585,0.131754 h 0.08902 c 0.111429,6e-6 0.346706,-0.517538 0.703293,-1.554368 0.230293,-0.469665 0.396312,-0.881184 0.500318,-1.235661 L 10.201447,8.6559845 C 10.43174,8.310384 10.670268,8.1378725 10.915426,8.137862 h 0.07834 c 0.156003,1.05e-5 0.266088,0.097052 0.332952,0.2920015 0.208005,0.292446 0.375802,0.7326935 0.502099,1.3175605 l 0.624953,1.38166 c 0.08171,0.09749 0.121069,0.208895 0.121072,0.332956 0.23029,0.522847 0.439226,0.867874 0.624953,1.036244 h 0.133536 c 0.156002,4e-6 0.363156,-0.646911 0.623175,-1.940736 0.04456,7e-6 0.167972,-0.345022 0.36856,-1.036245 v -0.05342 l -0.701515,-0.09258 -0.167363,0.05163 h -0.21188 V 9.321884 l 0.423756,-0.04095 h 0.824369 c 0.319431,-1.143159 0.612115,-2.029079 0.87956,-2.658274 0.02772,-0.402185 0.0602,-0.734153 0.09437,-1.011318 -0.485033,-0.4024825 -1.025367,-0.7414365 -1.607784,-1.0024175 -0.04767,0.110089 -0.139594,0.165599 -0.279538,0.165585 v -0.092582 l 0.258174,-0.083685 C 12.969932,4.2131965 12.009224,4.000001 10.999139,4.000001 Z M 9.667302,4.8279285 h 1.125271 v 0.094367 l -0.256389,0.03917 -0.245708,-0.03917 -0.211879,0.092585 -0.07656,-0.092585 H 9.667304 Z m 2.328882,0.7584885 h 0.122853 v 0.03917 c -3e-6,0.062044 -0.04114,0.092596 -0.122853,0.092586 l -0.04451,0.053413 V 5.825 L 11.828817,5.771586 V 5.679 Z M 6.011954,6.0902945 C 4.767897,7.3538365 4,9.087611 4,11.000892 4,14.866814 7.13319,18 10.999111,18 14.865033,18 18,14.866814 18,11.000892 18,9.43899 17.488388,7.995516 16.623681,6.8309785 16.435588,7.054121 16.253234,7.476508 16.07529,8.098689 c -0.08173,0.6469155 -0.219932,1.245314 -0.413076,1.794737 -0.170871,0.567157 -0.256397,1.090082 -0.25639,1.568612 l -0.322269,0.94366 c -7e-6,0.07976 0.121622,0.158833 0.366783,0.238584 -0.04458,0.186102 -0.11206,0.279542 -0.201194,0.279539 v 0.05342 h 0.07834 v 0.03917 c -10e-6,0.09748 -0.126672,0.146002 -0.379246,0.145998 l 0.04629,0.05342 v 0.186953 h -0.07834 c 0.052,0.186098 0.162082,0.277756 0.332955,0.277753 v 0.09437 h -0.332955 v 0.05342 c 0.111426,0 0.167359,0.07908 0.167366,0.238585 l -0.468268,0.185171 0.04452,0.05341 v 0.04095 c -7e-6,0.06204 -0.05594,0.09259 -0.167367,0.09259 v 0.05341 c 0.141138,4e-6 0.211873,0.03055 0.21188,0.09258 -0.200589,0.07976 -0.465458,0.475087 -0.792319,1.184026 -0.334306,0.629184 -0.623732,0.943659 -0.868879,0.943659 h -0.08903 C 12.768363,16.57092 12.617139,16.100114 12.498286,15.302559 12.022832,14.0885 11.784304,13.375095 11.784307,13.162407 c -3e-6,-0.549423 -0.153006,-1.133454 -0.457583,-1.753784 -0.08172,-0.274708 -0.135877,-0.621516 -0.165585,-1.038022 l -0.201197,-0.05164 c -0.505166,0.912765 -0.768254,1.626174 -0.790538,2.140149 -0.141152,0.301304 -0.253019,0.6643 -0.334733,1.089662 0.30458,0.09748 0.455801,0.190921 0.455808,0.279538 v 0.05163 C 10.052752,13.8445 9.88673,13.778012 9.790161,13.68053 9.686152,13.9198 9.547947,14.584685 9.377084,15.674683 9.243363,16.179803 9.077344,16.433171 8.876766,16.433171 8.312174,16.211625 7.840147,15.848629 7.461275,15.34351 c -0.05943,3e-6 -0.156499,-0.253369 -0.29022,-0.758489 -0.08172,0 -0.137648,-0.251587 -0.167363,-0.756707 C 6.721396,13.110513 6.529036,12.289301 6.42503,11.367674 V 9.986014 H 6.38051 l -0.201194,0.05341 v -0.05341 c 0,-0.06203 0.06748,-0.09258 0.201194,-0.09259 L 6.336,9.095769 V 8.470814 L 6.011949,6.4766645 Z m 5.359281,0.014245 v 0.053417 c -7e-6,0.070903 -0.177569,0.146377 -0.534149,0.226121 v -0.094367 l 0.245707,-0.131754 0.04452,0.03917 h 0.03384 l 0.210098,-0.092586 z m -1.201834,0.478954 v 0.03917 C 10.013392,6.7644625 9.760066,6.89384 9.410913,7.009032 V 6.914665 c 0.05943,7e-6 0.08902,-0.04851 0.08903,-0.145999 z m 6.302937,0.053413 -0.01957,0.1727075 h 0.07834 l 0.04807,-0.03739 c -0.03472,-0.04577 -0.071,-0.090437 -0.106831,-0.135317 z m -4.185934,0.4112955 0.04452,0.053413 v 0.03917 l -0.07834,0.1068305 h -0.04452 L 12.119034,7.140785 v -0.03917 z m 1.536567,0.053413 h 0.04451 v 0.03917 l -0.07656,0.1068305 h -0.04451 v -0.053414 z m -0.701516,0.6641215 0.167366,0.133539 c -0.02971,0.097486 -0.111993,0.146006 -0.245706,0.145999 l -0.08903,-0.145999 c -7e-6,-0.044305 0.05593,-0.089222 0.167367,-0.133539 z m 1.002417,0.6124895 0.03385,0.051635 v 0.04095 l -0.03385,0.053417 h -0.08902 V 8.470811 Z m -1.581076,0.4771725 v 0.04095 L 12.330917,9.095765 h -0.122853 v -0.05342 c -8e-6,-0.079747 0.11186,-0.1426325 0.334732,-0.1869495 z M 5.632712,10.703545 h 0.04452 V 10.7445 C 5.565799,11.036943 5.470508,11.21306 5.38879,11.275086 H 5.29976 V 11.07567 Z m 5.450081,2.220274 h 0.04452 v 0.09258 l -0.334733,0.199416 -0.04452,-0.05342 v -0.09258 z m -4.579421,0.624953 h 0.07656 l 0.133539,0.518123 H 6.624441 L 6.503369,13.587944 Z m 4.456567,0.610708 h 0.03384 l 0.133539,0.145999 -0.04452,0.04095 h -0.04452 l -0.07834,-0.133535 v -0.05341 z"
     style="display:inline;fill:#ffffff;fill-opacity:1;stroke:none;stroke-width:0.35;enable-background:new"
     id="path3360"
     sodipodi:nodetypes="scccccccccccccccccccccccccccccccccccccccscccccccccccccccsscccccccccccscccccccsssccccccccccccccccccccccccccsccccccccccccccccccccsccccccccccccccccccccccccccccccccccccccccccccccccccccccccccccccccccccccccccccccccccccccc" />
  <path
     id="rect2630"
     style="opacity:0.3;fill:#ffffff;fill-opacity:1"
     d="m 3.9999999,1 c -1.6619983,0 -3,1.3380017 -3,2.9999997 v 1 c 0,-1.661998 1.3380017,-3 3,-3 H 18 c 1.661998,0 3,1.338002 3,3 v -1 C 21,2.3380017 19.661998,1 18,1 Z" />
  <path
     id="rect398"
     style="opacity:0.3;fill:#ffffff"
     d="m 1,17 v 1 c 0,1.661998 1.3380017,3 3,3 h 14 c 1.661998,0 3,-1.338002 3,-3 v -1 c 0,1.661998 -1.338002,3 -3,3 H 4 C 2.3380017,20 1,18.661998 1,17 Z" />
  <path
     id="rect899"
     style="opacity:0.5;fill:#000000;stroke:none"
     d="M 4,0 C 1.7840022,0 0,1.7840022 0,4 v 14 c 0,2.215998 1.7840022,4 4,4 h 14 c 2.215998,0 4,-1.784002 4,-4 V 4 C 22,1.7840022 20.215998,0 18,0 Z m 0,1 h 14 c 1.661998,0 3,1.3380017 3,3 v 14 c 0,1.661998 -1.338002,3 -3,3 H 4 C 2.3380017,21 1,19.661998 1,18 V 4 C 1,2.3380017 2.3380017,1 4,1 Z" />
</svg>
