<?xml version="1.0" encoding="UTF-8" standalone="no"?>
<!-- Created with Inkscape (http://www.inkscape.org/) -->

<svg
   width="22"
   height="22"
   viewBox="0 0 22 22.000001"
   version="1.1"
   id="svg5"
   sodipodi:docname="winecfg.svg"
   inkscape:version="1.2.1 (9c6d41e410, 2022-07-14)"
   xmlns:inkscape="http://www.inkscape.org/namespaces/inkscape"
   xmlns:sodipodi="http://sodipodi.sourceforge.net/DTD/sodipodi-0.dtd"
   xmlns:xlink="http://www.w3.org/1999/xlink"
   xmlns="http://www.w3.org/2000/svg"
   xmlns:svg="http://www.w3.org/2000/svg">
  <sodipodi:namedview
     id="namedview7"
     pagecolor="#ffffff"
     bordercolor="#666666"
     borderopacity="1.0"
     inkscape:showpageshadow="2"
     inkscape:pageopacity="0.0"
     inkscape:pagecheckerboard="0"
     inkscape:deskcolor="#d1d1d1"
     inkscape:document-units="px"
     showgrid="false"
     inkscape:zoom="35.909091"
     inkscape:cx="9.9"
     inkscape:cy="11.013924"
     inkscape:window-width="1920"
     inkscape:window-height="1007"
     inkscape:window-x="0"
     inkscape:window-y="0"
     inkscape:window-maximized="1"
     inkscape:current-layer="svg5"
     showguides="true" />
  <defs
     id="defs2">
    <linearGradient
       inkscape:collect="always"
       id="linearGradient1093">
      <stop
         style="stop-color:#981b1b;stop-opacity:1;"
         offset="0"
         id="stop1089" />
      <stop
         style="stop-color:#c75349;stop-opacity:1;"
         offset="1"
         id="stop1091" />
    </linearGradient>
    <linearGradient
       inkscape:collect="always"
       xlink:href="#linearGradient1093"
       id="linearGradient10386"
       x1="19"
       y1="23"
       x2="5"
       y2="1"
       gradientUnits="userSpaceOnUse"
       gradientTransform="translate(-1,-1)" />
  </defs>
  <rect
     style="fill:url(#linearGradient10386);fill-opacity:1;stroke:none"
     id="rect184"
     width="21"
     height="21"
     x="0.5"
     y="0.5"
     ry="3.5" />
  <path
     d="m 15.401904,6.6729139 c 0,0 -0.247349,0.1121437 -0.815325,0.5841778 -0.694602,0.5770794 -1.124746,0.5305574 -1.632911,0.4453641 l -0.004,0.00397 c -0.0968,-0.044181 -0.194666,-0.085583 -0.293961,-0.1227316 v -0.00399 C 12.236052,7.2808426 11.899132,7.0092254 11.81601,6.1099852 11.74801,5.3749229 11.652564,5.120333 11.652564,5.120333 11.375655,4.9999718 10.999303,5.0000103 10.999303,5.0000103 c 0,0 -0.376452,3.85e-5 -0.653152,0.1204245 0,0 -0.0957,0.2543761 -0.163523,0.9895714 -0.0831,0.8991982 -0.420217,1.1707071 -0.839678,1.4697153 l -7e-4,0.00501 c -0.0992,0.0371 -0.196787,0.078603 -0.29394,0.122745 l -0.004,-0.00397 C 8.5361845,7.7888085 8.1058805,7.8350607 7.411247,7.2580303 6.843481,6.786287 6.595961,6.673853 6.595961,6.673853 6.315692,6.783928 6.049636,7.0499834 6.049636,7.0499834 c 0,0 -0.266179,0.2661782 -0.376695,0.5470498 0,0 0.112396,0.2475862 0.584119,0.815335 C 6.834129,9.10696 6.787687,9.537445 6.702557,10.045411 l 0.004,0.004 c -0.044,0.0969 -0.0856,0.194694 -0.122874,0.293838 h -0.004 c -0.29878,0.419703 -0.570419,0.756626 -1.469589,0.839839 -0.735041,0.0679 -0.989799,0.163663 -0.989799,0.163663 C 4.000021,11.623762 4,11.999574 4,11.999574 c 0,0 1.99e-4,0.376621 0.120494,0.653278 0,0 0.254317,0.09581 0.989502,0.163408 0.899149,0.0832 1.170347,0.420542 1.469565,0.839835 h 0.004 c 0.0372,0.09931 0.0787,0.196958 0.122717,0.293989 l -0.004,0.004 c 0.0855,0.508098 0.131673,0.938332 -0.445336,1.632892 -0.471723,0.567889 -0.584189,0.815786 -0.584189,0.815786 0.110926,0.280851 0.376712,0.546637 0.376712,0.546637 0,0 0.26627,0.26628 0.547046,0.376704 0,0 0.247499,-0.112024 0.815237,-0.584068 0.6946555,-0.576989 1.1250185,-0.530246 1.633033,-0.445434 l 0.004,-0.004 c 0.09721,0.04411 0.194726,0.0857 0.293989,0.122723 l -7e-4,0.005 c 0.419755,0.298837 0.756616,0.570416 0.839839,1.469558 0.0679,0.735083 0.163593,0.989918 0.163593,0.989918 0.277032,0.120057 0.652932,0.120235 0.652932,0.120235 0,0 0.376624,-1.01e-4 0.653173,-0.120644 0,0 0.0958,-0.254076 0.163506,-0.98939 0.0832,-0.899139 0.420661,-1.170458 0.839733,-1.469628 l -7e-4,-0.005 c 0.0992,-0.0371 0.196879,-0.0788 0.293961,-0.122762 l 0.004,0.004 c 0.508077,-0.0855 0.938289,-0.131645 1.632923,0.445392 0.567765,0.471737 0.815635,0.584261 0.815635,0.584261 0.280899,-0.111033 0.546717,-0.376844 0.546717,-0.376844 0,0 0.266266,-0.266266 0.376722,-0.547078 0,0 -0.112034,-0.247516 -0.584181,-0.815285 -0.577065,-0.694592 -0.530295,-1.125015 -0.445364,-1.632942 l -0.004,-0.004 c 0.0441,-0.0972 0.0857,-0.194726 0.122744,-0.29394 h 0.006 c 0.29884,-0.419632 0.570451,-0.756542 1.469628,-0.839765 0.735144,-0.0679 0.99,-0.163635 0.99,-0.163635 0.120014,-0.277032 0.120045,-0.653002 0.120045,-0.653002 0,0 -6.3e-5,-0.376452 -0.120337,-0.65326 0,0 -0.254414,-0.0957 -0.989637,-0.163446 -0.899226,-0.0831 -1.170578,-0.420234 -1.46973,-0.839678 h -0.004 c -0.0371,-0.0992 -0.07841,-0.196944 -0.122755,-0.293947 l 0.004,-0.004 C 15.211217,9.537526 15.164819,9.107152 15.741853,8.4125082 16.213598,7.8447417 16.32623,7.5969633 16.32623,7.5969633 16.215396,7.3161724 15.94934,7.0501132 15.94934,7.0501132 c 0,0 -0.266279,-0.2662552 -0.547087,-0.3767119 z M 13.31407,14.314549 c -1.27857,1.278559 -3.351436,1.27858 -4.6300095,2.1e-5 -1.2785705,-1.278574 -1.2785495,-3.35144 2.1e-5,-4.63001 1.2785415,-1.2785419 3.3514075,-1.2785591 4.6299785,1e-5 1.278568,1.27856 1.278551,3.351437 10e-6,4.629979 z"
     style="display:inline;opacity:0.2;fill:#000000;fill-opacity:1;stroke:none;stroke-width:0.35;enable-background:new"
     id="path1237" />
  <path
     d="m 15.402346,5.6728984 c 0,0 -0.247347,0.1121433 -0.815321,0.5841759 -0.6946,0.5770773 -1.124746,0.5305555 -1.632908,0.4453625 l -0.004,0.00401 c -0.0968,-0.044202 -0.194665,-0.085603 -0.29396,-0.1227515 v -0.00401 C 12.236505,6.2808252 11.899586,6.0092084 11.816464,5.1099712 11.748464,4.3749114 11.653019,4.1203225 11.653019,4.1203225 11.37611,3.9999615 10.999761,4 10.999761,4 c 0,0 -0.376453,3.85e-5 -0.653151,0.120424 0,0 -0.0957,0.2543754 -0.163522,0.9895682 -0.0831,0.8991952 -0.420217,1.1707032 -0.839676,1.4697104 l -7e-4,0.00501 c -0.0992,0.0371 -0.196785,0.078603 -0.293939,0.1227445 l -0.004,-0.00397 C 8.5366495,6.7887888 8.1063475,6.8350414 7.411715,6.2580125 6.843951,5.7862707 6.596432,5.6738371 6.596432,5.6738371 6.316164,5.7839117 6.050109,6.0499662 6.050109,6.0499662 c 0,0 -0.266178,0.2661778 -0.376693,0.547048 0,0 0.112395,0.2475854 0.584116,0.8153323 0.577067,0.6945897 0.530626,1.1250737 0.445496,1.6330365 l 0.004,0.004 c -0.044,0.0969 -0.0856,0.194694 -0.122874,0.293838 h -0.004 c -0.29878,0.419701 -0.570417,0.756623 -1.469585,0.839836 -0.735038,0.0679 -0.989795,0.163662 -0.989795,0.163662 -0.120274,0.27701 -0.120295,0.652821 -0.120295,0.652821 0,0 1.99e-4,0.37662 0.120494,0.653276 0,0 0.254316,0.09581 0.989498,0.163407 0.899147,0.0832 1.170343,0.420541 1.46956,0.839832 h 0.004 c 0.0372,0.09931 0.0787,0.196958 0.122716,0.293988 l -0.004,0.004 c 0.0855,0.508097 0.131672,0.938329 -0.445335,1.632887 -0.471721,0.567887 -0.584186,0.815784 -0.584186,0.815784 0.110925,0.280849 0.376711,0.546635 0.376711,0.546635 0,0 0.266268,0.266278 0.547044,0.376703 0,0 0.247497,-0.112024 0.815234,-0.584067 0.6946515,-0.576987 1.1250135,-0.530245 1.633026,-0.445433 l 0.004,-0.004 c 0.0972,0.0441 0.194725,0.0857 0.293988,0.122724 l -7e-4,0.005 c 0.419754,0.298835 0.756613,0.570413 0.839836,1.469553 0.0679,0.735081 0.163593,0.989915 0.163593,0.989915 0.27703,0.120056 0.652929,0.120234 0.652929,0.120234 0,0 0.376624,-1.01e-4 0.653172,-0.120644 0,0 0.0958,-0.254074 0.163505,-0.989386 0.0832,-0.899136 0.42066,-1.170455 0.839731,-1.469623 l -7e-4,-0.005 c 0.0992,-0.0371 0.196877,-0.0788 0.29396,-0.122762 l 0.004,0.004 c 0.508075,-0.08551 0.938286,-0.131645 1.632917,0.44539 0.567765,0.471735 0.815634,0.58426 0.815634,0.58426 0.280898,-0.111034 0.546715,-0.376843 0.546715,-0.376843 0,0 0.266265,-0.266265 0.376721,-0.547076 0,0 -0.112035,-0.247516 -0.584179,-0.815283 C 15.163299,13.892421 15.210069,13.462 15.295,12.954075 l -0.004,-0.004 c 0.04411,-0.0972 0.0857,-0.194725 0.122744,-0.293939 h 0.006 c 0.298839,-0.419631 0.570448,-0.75654 1.469623,-0.839762 0.73514,-0.0679 0.989996,-0.163635 0.989996,-0.163635 0.120015,-0.277031 0.120045,-0.652999 0.120045,-0.652999 0,0 -6.3e-5,-0.376452 -0.120336,-0.653259 0,0 -0.254414,-0.0957 -0.989635,-0.163445 -0.899223,-0.0831 -1.170574,-0.420233 -1.469724,-0.839675 h -0.004 c -0.0371,-0.0992 -0.07841,-0.196944 -0.122756,-0.293946 l 0.004,-0.004 C 15.211657,8.5375009 15.165261,8.1071285 15.742293,7.4124865 16.214034,6.8447224 16.326667,6.5969443 16.326667,6.5969443 16.215834,6.3161543 15.949778,6.050096 15.949778,6.050096 c 0,0 -0.266279,-0.2662543 -0.547086,-0.3767106 z m -2.087827,7.6416096 c -1.278565,1.278555 -3.351426,1.278576 -4.6299945,2.1e-5 C 7.405958,12.035959 7.405979,9.9631 8.6845455,8.6845346 9.963084,7.4059968 12.035943,7.4059795 13.314509,8.6845449 c 1.278564,1.2785551 1.278547,3.3514251 1e-5,4.6299631 z"
     style="display:inline;fill:#ffffff;fill-opacity:1;stroke:none;stroke-width:0.349999;enable-background:new"
     id="path429"
     sodipodi:nodetypes="ccccccccccccccccccccccccccccccccccccccccccccccccccccccccccccccccccccccccccccscc" />
  <path
     id="rect2630"
     style="opacity:0.3;fill:#ffffff;fill-opacity:1"
     d="m 3.9999999,1 c -1.6619983,0 -3,1.3380017 -3,2.9999997 v 1 c 0,-1.661998 1.3380017,-3 3,-3 H 18 c 1.661998,0 3,1.338002 3,3 v -1 C 21,2.3380017 19.661998,1 18,1 Z" />
  <path
     id="rect398"
     style="opacity:0.3;fill:#ffffff"
     d="m 1,17 v 1 c 0,1.661998 1.3380017,3 3,3 h 14 c 1.661998,0 3,-1.338002 3,-3 v -1 c 0,1.661998 -1.338002,3 -3,3 H 4 C 2.3380017,20 1,18.661998 1,17 Z" />
  <path
     id="rect899"
     style="opacity:0.5;fill:#000000;stroke:none"
     d="M 4,0 C 1.7840022,0 0,1.7840022 0,4 v 14 c 0,2.215998 1.7840022,4 4,4 h 14 c 2.215998,0 4,-1.784002 4,-4 V 4 C 22,1.7840022 20.215998,0 18,0 Z m 0,1 h 14 c 1.661998,0 3,1.3380017 3,3 v 14 c 0,1.661998 -1.338002,3 -3,3 H 4 C 2.3380017,21 1,19.661998 1,18 V 4 C 1,2.3380017 2.3380017,1 4,1 Z" />
</svg>
