<?xml version="1.0" encoding="UTF-8" standalone="no"?>
<!-- Created with Inkscape (http://www.inkscape.org/) -->

<svg
   width="22"
   height="22"
   viewBox="0 0 22 22.000001"
   version="1.1"
   id="svg5"
   sodipodi:docname="workspace-switcher-top-left.svg"
   inkscape:version="1.2.1 (9c6d41e410, 2022-07-14)"
   xmlns:inkscape="http://www.inkscape.org/namespaces/inkscape"
   xmlns:sodipodi="http://sodipodi.sourceforge.net/DTD/sodipodi-0.dtd"
   xmlns:xlink="http://www.w3.org/1999/xlink"
   xmlns="http://www.w3.org/2000/svg"
   xmlns:svg="http://www.w3.org/2000/svg">
  <sodipodi:namedview
     id="namedview7"
     pagecolor="#ffffff"
     bordercolor="#666666"
     borderopacity="1.0"
     inkscape:showpageshadow="2"
     inkscape:pageopacity="0.0"
     inkscape:pagecheckerboard="0"
     inkscape:deskcolor="#d1d1d1"
     inkscape:document-units="px"
     showgrid="false"
     inkscape:zoom="22.86312"
     inkscape:cx="12.881007"
     inkscape:cy="14.018209"
     inkscape:window-width="1920"
     inkscape:window-height="1007"
     inkscape:window-x="0"
     inkscape:window-y="0"
     inkscape:window-maximized="1"
     inkscape:current-layer="svg5" />
  <defs
     id="defs2">
    <linearGradient
       inkscape:collect="always"
       xlink:href="#linearGradient21236"
       id="linearGradient10386"
       x1="12"
       y1="23"
       x2="12"
       y2="1"
       gradientUnits="userSpaceOnUse"
       gradientTransform="translate(-1,-1)" />
    <linearGradient
       inkscape:collect="always"
       id="linearGradient21236">
      <stop
         style="stop-color:#3689e6;stop-opacity:1;"
         offset="0"
         id="stop21232" />
      <stop
         style="stop-color:#5dcffc;stop-opacity:1;"
         offset="1"
         id="stop21234" />
    </linearGradient>
    <linearGradient
       inkscape:collect="always"
       xlink:href="#linearGradient22024"
       id="linearGradient11841"
       x1="37.25"
       y1="32"
       x2="37.25"
       y2="43"
       gradientUnits="userSpaceOnUse"
       gradientTransform="rotate(180,21.5,21.5)" />
    <linearGradient
       inkscape:collect="always"
       id="linearGradient22024">
      <stop
         style="stop-color:#cdcdcd;stop-opacity:1;"
         offset="0"
         id="stop22020" />
      <stop
         style="stop-color:#eff0f1;stop-opacity:1;"
         offset="1"
         id="stop22022" />
    </linearGradient>
  </defs>
  <rect
     style="fill:url(#linearGradient10386);fill-opacity:1;stroke:none"
     id="rect184"
     width="21"
     height="21"
     x="0.5"
     y="0.5"
     ry="3.5" />
  <path
     id="rect11383"
     style="fill:url(#linearGradient11841);fill-opacity:1;stroke-width:2"
     d="M 10.999999,11 V 0.5 H 4 C 2.061002,0.5 0.5,2.061002 0.5,4 v 7 z" />
  <path
     id="path10562"
     style="opacity:0.2;fill:#ffffff;fill-opacity:1;stroke:none"
     d="M 10.999999,21.5 V 12 h -1 v 9.5 z M 21.5,11 v -1 h -9.500001 v 1 z M 10.999999,11 V 0.5 h -1 V 10 H 0.5 v 1 z"
     sodipodi:nodetypes="ccccccccccccccccc" />
  <path
     d="M 11.999999,21.5 V 12 H 21.5 V 11 H 11.999999 V 0.5 h -1 V 11 H 0.5 v 1 h 10.499999 v 9.5 z"
     style="opacity:0.2;fill:#000000;fill-opacity:1;stroke:none"
     id="path9077"
     sodipodi:nodetypes="ccccccccccccc" />
  <path
     id="rect2630"
     style="opacity:0.3;fill:#ffffff;fill-opacity:1"
     d="m 3.9999999,1 c -1.6619983,0 -3,1.3380017 -3,2.9999997 v 1 c 0,-1.661998 1.3380017,-3 3,-3 H 18 c 1.661998,0 3,1.338002 3,3 v -1 C 21,2.3380017 19.661998,1 18,1 Z" />
  <path
     id="rect398"
     style="opacity:0.3;fill:#ffffff"
     d="m 1,17 v 1 c 0,1.661998 1.3380017,3 3,3 h 14 c 1.661998,0 3,-1.338002 3,-3 v -1 c 0,1.661998 -1.338002,3 -3,3 H 4 C 2.3380017,20 1,18.661998 1,17 Z" />
  <path
     id="rect899"
     style="opacity:0.5;fill:#000000;stroke:none"
     d="M 4,0 C 1.7840022,0 0,1.7840022 0,4 v 14 c 0,2.215998 1.7840022,4 4,4 h 14 c 2.215998,0 4,-1.784002 4,-4 V 4 C 22,1.7840022 20.215998,0 18,0 Z m 0,1 h 14 c 1.661998,0 3,1.3380017 3,3 v 14 c 0,1.661998 -1.338002,3 -3,3 H 4 C 2.3380017,21 1,19.661998 1,18 V 4 C 1,2.3380017 2.3380017,1 4,1 Z" />
</svg>
