<?xml version="1.0" encoding="UTF-8" standalone="no"?>
<!-- Created with Inkscape (http://www.inkscape.org/) -->

<svg
   width="22"
   height="22"
   viewBox="0 0 22 22.000001"
   version="1.1"
   id="svg5"
   sodipodi:docname="youtube.svg"
   inkscape:version="1.2.1 (9c6d41e410, 2022-07-14)"
   xmlns:inkscape="http://www.inkscape.org/namespaces/inkscape"
   xmlns:sodipodi="http://sodipodi.sourceforge.net/DTD/sodipodi-0.dtd"
   xmlns="http://www.w3.org/2000/svg"
   xmlns:svg="http://www.w3.org/2000/svg">
  <sodipodi:namedview
     id="namedview7"
     pagecolor="#ffffff"
     bordercolor="#666666"
     borderopacity="1.0"
     inkscape:showpageshadow="2"
     inkscape:pageopacity="0.0"
     inkscape:pagecheckerboard="0"
     inkscape:deskcolor="#d1d1d1"
     inkscape:document-units="px"
     showgrid="false"
     inkscape:zoom="16.458334"
     inkscape:cx="5.3164556"
     inkscape:cy="17.286076"
     inkscape:window-width="1920"
     inkscape:window-height="1007"
     inkscape:window-x="0"
     inkscape:window-y="0"
     inkscape:window-maximized="1"
     inkscape:current-layer="svg5" />
  <defs
     id="defs2" />
  <rect
     style="fill:#f5f5f5;fill-opacity:1;stroke:none"
     id="rect184"
     width="21"
     height="21"
     x="0.5"
     y="0.5"
     ry="3.5" />
  <path
     id="path1633"
     style="fill:#ff0000;fill-opacity:1;stroke-width:0.109398"
     d="m 11.249614,6 c 0,0 -4.684638,9e-4 -5.758408,0.2656236 C 4.91476,6.4138586 4.440465,6.8576136 4.282225,7.4081976 3.999654,8.4140726 4,11.000347 4,11.000347 c 0,0 -3.46e-4,2.597116 0.282225,3.592405 0.158241,0.550583 0.621233,0.983599 1.208981,1.131832 1.085072,0.275294 5.758408,0.275389 5.758408,0.275389 0,0 4.184524,-8.99e-4 5.258295,-0.265624 0.587749,-0.148235 1.050741,-0.581248 1.208982,-1.131832 0.282571,-1.005876 0.2832,-4.091791 0.2832,-4.091791 0,0 0.01056,-2.0966534 -0.2832,-3.1025284 C 17.55865,6.8576136 17.095658,6.4236226 16.507909,6.2753886 15.434138,6.000097 11.249614,6 11.249614,6 Z"
     sodipodi:nodetypes="ccccccccccccc" />
  <path
     d="M 9.000001,8.5003625 13,11.000347 9.000001,13.500363 Z"
     style="fill:#ffffff;stroke-width:0.109398"
     id="path351" />
  <path
     id="rect2630"
     style="opacity:0.3;fill:#ffffff;fill-opacity:1"
     d="m 3.9999999,1 c -1.6619983,0 -3,1.3380017 -3,2.9999997 v 1 c 0,-1.661998 1.3380017,-3 3,-3 H 18 c 1.661998,0 3,1.338002 3,3 v -1 C 21,2.3380017 19.661998,1 18,1 Z" />
  <path
     id="rect398"
     style="opacity:0.3;fill:#ffffff"
     d="m 1,17 v 1 c 0,1.661998 1.3380017,3 3,3 h 14 c 1.661998,0 3,-1.338002 3,-3 v -1 c 0,1.661998 -1.338002,3 -3,3 H 4 C 2.3380017,20 1,18.661998 1,17 Z" />
  <path
     id="rect899"
     style="opacity:0.5;fill:#000000;stroke:none"
     d="M 4,0 C 1.7840022,0 0,1.7840022 0,4 v 14 c 0,2.215998 1.7840022,4 4,4 h 14 c 2.215998,0 4,-1.784002 4,-4 V 4 C 22,1.7840022 20.215998,0 18,0 Z m 0,1 h 14 c 1.661998,0 3,1.3380017 3,3 v 14 c 0,1.661998 -1.338002,3 -3,3 H 4 C 2.3380017,21 1,19.661998 1,18 V 4 C 1,2.3380017 2.3380017,1 4,1 Z" />
</svg>
