<?xml version="1.0" encoding="UTF-8" standalone="no"?>
<!-- Created with Inkscape (http://www.inkscape.org/) -->

<svg
   width="22"
   height="22"
   viewBox="0 0 22 22.000001"
   version="1.1"
   id="svg5"
   sodipodi:docname="audio-card.svg"
   inkscape:version="1.2.1 (9c6d41e410, 2022-07-14)"
   xmlns:inkscape="http://www.inkscape.org/namespaces/inkscape"
   xmlns:sodipodi="http://sodipodi.sourceforge.net/DTD/sodipodi-0.dtd"
   xmlns:xlink="http://www.w3.org/1999/xlink"
   xmlns="http://www.w3.org/2000/svg"
   xmlns:svg="http://www.w3.org/2000/svg">
  <sodipodi:namedview
     id="namedview7"
     pagecolor="#ffffff"
     bordercolor="#666666"
     borderopacity="1.0"
     inkscape:showpageshadow="2"
     inkscape:pageopacity="0.0"
     inkscape:pagecheckerboard="0"
     inkscape:deskcolor="#d1d1d1"
     inkscape:document-units="px"
     showgrid="false"
     inkscape:zoom="36.136364"
     inkscape:cx="11"
     inkscape:cy="11"
     inkscape:window-width="1920"
     inkscape:window-height="1007"
     inkscape:window-x="0"
     inkscape:window-y="0"
     inkscape:window-maximized="1"
     inkscape:current-layer="svg5" />
  <defs
     id="defs2">
    <linearGradient
       inkscape:collect="always"
       xlink:href="#linearGradient14653"
       id="linearGradient10386"
       x1="19"
       y1="23"
       x2="5"
       y2="1"
       gradientUnits="userSpaceOnUse"
       gradientTransform="translate(-1,-1)" />
    <linearGradient
       inkscape:collect="always"
       xlink:href="#linearGradient14659"
       id="linearGradient3871"
       x1="23.214283"
       y1="43.408161"
       x2="23.214283"
       y2="5.0204082"
       gradientUnits="userSpaceOnUse"
       gradientTransform="matrix(0.57309942,0,0,0.57309942,-2.3040916,-2.877193)" />
    <linearGradient
       inkscape:collect="always"
       id="linearGradient14659">
      <stop
         style="stop-color:#3d3d3d;stop-opacity:1;"
         offset="0"
         id="stop14655" />
      <stop
         style="stop-color:#6c6c6c;stop-opacity:1;"
         offset="1"
         id="stop14657" />
    </linearGradient>
    <linearGradient
       inkscape:collect="always"
       id="linearGradient14653">
      <stop
         style="stop-color:#4c972d;stop-opacity:1;"
         offset="0"
         id="stop14649" />
      <stop
         style="stop-color:#86d075;stop-opacity:1;"
         offset="1"
         id="stop14651" />
    </linearGradient>
  </defs>
  <rect
     style="fill:url(#linearGradient10386);fill-opacity:1;stroke:none"
     id="rect184"
     width="21"
     height="21"
     x="0.5"
     y="0.5"
     ry="3.5" />
  <rect
     style="opacity:0.2;fill:#000000;stroke-width:1.86824;stroke-linecap:round;stroke-linejoin:round"
     id="rect823"
     width="14"
     height="14"
     x="4"
     y="5"
     ry="1" />
  <rect
     style="fill:url(#linearGradient3871);fill-opacity:1;stroke-width:1.7193;stroke-linecap:round;stroke-linejoin:round"
     id="rect848"
     width="14"
     height="14"
     x="4"
     y="4"
     ry="1" />
  <path
     d="m 14.722426,6.0059903 c -0.05452,-0.010256 -0.114656,-0.00756 -0.177733,0.00977 L 9.4551219,7.1388028 c -0.2523116,0.069311 -0.4550779,0.348 -0.4550779,0.625 v 6.2621202 c -0.2792037,-0.04445 -0.5816452,-0.03086 -0.8691406,0.03906 -0.8029606,0.196979 -1.2883041,0.775019 -1.0839844,1.291016 0.2025851,0.516675 1.0186739,0.776459 1.8222656,0.580078 0.6846493,-0.168086 1.1548634,-0.620402 1.1289063,-1.085938 h 0.0019 V 9 L 13.999722,8 v 5.025923 c -0.279204,-0.04445 -0.581645,-0.03086 -0.869141,0.03906 -0.802961,0.196979 -1.288304,0.775019 -1.083984,1.291016 0.202585,0.516675 1.018674,0.776459 1.822265,0.580078 0.666082,-0.163852 1.131301,-0.597682 1.128906,-1.052735 h 0.002 V 6.3907559 c 0,-0.20775 -0.113771,-0.3539965 -0.277344,-0.3847656 z"
     style="color:#000000;clip-rule:nonzero;display:inline;overflow:visible;visibility:visible;isolation:auto;mix-blend-mode:normal;color-interpolation:sRGB;color-interpolation-filters:linearRGB;solid-color:#000000;solid-opacity:1;fill:#ffffff;fill-opacity:1;fill-rule:nonzero;stroke:none;stroke-width:1.00225;stroke-linecap:butt;stroke-linejoin:miter;stroke-miterlimit:4;stroke-dasharray:none;stroke-dashoffset:0;stroke-opacity:1;marker:none;color-rendering:auto;image-rendering:auto;shape-rendering:auto;text-rendering:auto;enable-background:accumulate"
     id="path343"
     sodipodi:nodetypes="cccsccccccccccccccscc" />
  <path
     id="rect2630"
     style="opacity:0.3;fill:#ffffff;fill-opacity:1"
     d="m 3.9999999,1 c -1.6619983,0 -3,1.3380017 -3,2.9999997 v 1 c 0,-1.661998 1.3380017,-3 3,-3 H 18 c 1.661998,0 3,1.338002 3,3 v -1 C 21,2.3380017 19.661998,1 18,1 Z" />
  <path
     id="rect398"
     style="opacity:0.3;fill:#ffffff"
     d="m 1,17 v 1 c 0,1.661998 1.3380017,3 3,3 h 14 c 1.661998,0 3,-1.338002 3,-3 v -1 c 0,1.661998 -1.338002,3 -3,3 H 4 C 2.3380017,20 1,18.661998 1,17 Z" />
  <path
     id="rect899"
     style="opacity:0.5;fill:#000000;stroke:none"
     d="M 4,0 C 1.7840022,0 0,1.7840022 0,4 v 14 c 0,2.215998 1.7840022,4 4,4 h 14 c 2.215998,0 4,-1.784002 4,-4 V 4 C 22,1.7840022 20.215998,0 18,0 Z m 0,1 h 14 c 1.661998,0 3,1.3380017 3,3 v 14 c 0,1.661998 -1.338002,3 -3,3 H 4 C 2.3380017,21 1,19.661998 1,18 V 4 C 1,2.3380017 2.3380017,1 4,1 Z" />
</svg>
