<?xml version="1.0" encoding="UTF-8" standalone="no"?>
<!-- Created with Inkscape (http://www.inkscape.org/) -->

<svg
   width="22"
   height="22"
   viewBox="0 0 22 22.000001"
   version="1.1"
   id="svg2612"
   inkscape:version="1.2.1 (9c6d41e410, 2022-07-14)"
   sodipodi:docname="drive-harddisk.svg"
   xmlns:inkscape="http://www.inkscape.org/namespaces/inkscape"
   xmlns:sodipodi="http://sodipodi.sourceforge.net/DTD/sodipodi-0.dtd"
   xmlns:xlink="http://www.w3.org/1999/xlink"
   xmlns="http://www.w3.org/2000/svg"
   xmlns:svg="http://www.w3.org/2000/svg">
  <sodipodi:namedview
     id="namedview2614"
     pagecolor="#ffffff"
     bordercolor="#000000"
     borderopacity="0.25"
     inkscape:showpageshadow="2"
     inkscape:pageopacity="0.0"
     inkscape:pagecheckerboard="0"
     inkscape:deskcolor="#d1d1d1"
     inkscape:document-units="px"
     showgrid="false"
     showguides="false"
     inkscape:zoom="18"
     inkscape:cx="5.8333333"
     inkscape:cy="13.083333"
     inkscape:window-width="1920"
     inkscape:window-height="1009"
     inkscape:window-x="0"
     inkscape:window-y="0"
     inkscape:window-maximized="1"
     inkscape:current-layer="svg2612" />
  <defs
     id="defs2609">
    <linearGradient
       inkscape:collect="always"
       id="linearGradient1082">
      <stop
         style="stop-color:#aaaaaa;stop-opacity:1;"
         offset="0"
         id="stop1078" />
      <stop
         style="stop-color:#c9c9c9;stop-opacity:1;"
         offset="1"
         id="stop1080" />
    </linearGradient>
    <linearGradient
       inkscape:collect="always"
       xlink:href="#linearGradient1082"
       id="linearGradient4030"
       x1="18"
       y1="23"
       x2="6"
       y2="1"
       gradientUnits="userSpaceOnUse"
       gradientTransform="translate(-1,-1)" />
  </defs>
  <rect
     style="fill:url(#linearGradient4030);fill-opacity:1;stroke-linejoin:round"
     id="rect2787"
     width="17"
     height="21"
     x="2.5"
     y="0.5"
     ry="2.5" />
  <path
     id="path1092"
     style="opacity:0.2;fill:#000000;stroke-width:1.2;stroke-linejoin:round"
     d="M 11,5 C 7.6863012,5 5,7.6863014 5,11 v 5 c 0,0.552284 0.4477159,1 1,1 h 5 c 3.313699,0 6,-2.686301 6,-6 0,-3.3136986 -2.686301,-6 -6,-6 z m 0,3 a 3,3 0 0 1 3,3 3,3 0 0 1 -3,3 3,3 0 0 1 -3,-3 3,3 0 0 1 3,-3 z" />
  <path
     id="rect979"
     style="opacity:1;fill:#707070;stroke-width:1.2;stroke-linejoin:round"
     d="M 11,4 C 7.6862982,4 5,6.6862982 5,10 v 5 a 1,1 0 0 0 1,1 h 5 c 3.313703,0 6,-2.686297 6,-6 0,-3.3137018 -2.686297,-6 -6,-6 z m 0,3 a 3,3 0 0 1 3,3 3,3 0 0 1 -3,3 3,3 0 0 1 -3,-3 3,3 0 0 1 3,-3 z" />
  <path
     id="rect4034"
     style="opacity:0.3;fill:#ffffff;stroke-linejoin:round"
     d="M 5,1 C 3.8920011,1 3,1.8920011 3,3 V 4 C 3,2.8920011 3.8920011,2 5,2 h 12 c 1.107999,0 2,0.8920011 2,2 V 3 C 19,1.8920011 18.107999,1 17,1 Z"
     sodipodi:nodetypes="sscsscsss" />
  <path
     d="m 4.9999999,21 c -1.1079989,0 -2,-0.892001 -2,-2 v -1 c 0,1.107998 0.8920011,2 2,2 H 17 c 1.107999,0 2,-0.892002 2,-2 v 1 c 0,1.107999 -0.892001,2 -2,2 z"
     style="opacity:0.3;fill:#ffffff;stroke-linejoin:round"
     id="path4077" />
  <path
     id="rect2785"
     style="opacity:0.5;fill:#000000;stroke-width:0.264583;stroke-linejoin:round"
     d="M 5,0 C 3.3380017,0 2,1.3380017 2,3 v 16 c 0,1.661998 1.3380017,3 3,3 h 12 c 1.661998,0 3,-1.338002 3,-3 V 3 C 20,1.3380017 18.661998,0 17,0 Z m 0,1 h 12 c 1.107999,0 2,0.8920011 2,2 v 16 c 0,1.107999 -0.892001,2 -2,2 H 5 C 3.8920011,21 3,20.107999 3,19 V 3 C 3,1.8920011 3.8920011,1 5,1 Z" />
</svg>
