<?xml version="1.0" encoding="UTF-8" standalone="no"?>
<!-- Created with Inkscape (http://www.inkscape.org/) -->

<svg
   width="22"
   height="22"
   viewBox="0 0 22 22.000001"
   version="1.1"
   id="svg2612"
   inkscape:version="1.2.1 (9c6d41e410, 2022-07-14)"
   sodipodi:docname="drive-harddisk-ieee1394.svg"
   xmlns:inkscape="http://www.inkscape.org/namespaces/inkscape"
   xmlns:sodipodi="http://sodipodi.sourceforge.net/DTD/sodipodi-0.dtd"
   xmlns:xlink="http://www.w3.org/1999/xlink"
   xmlns="http://www.w3.org/2000/svg"
   xmlns:svg="http://www.w3.org/2000/svg">
  <sodipodi:namedview
     id="namedview2614"
     pagecolor="#ffffff"
     bordercolor="#000000"
     borderopacity="0.25"
     inkscape:showpageshadow="2"
     inkscape:pageopacity="0.0"
     inkscape:pagecheckerboard="0"
     inkscape:deskcolor="#d1d1d1"
     inkscape:document-units="px"
     showgrid="false"
     showguides="false"
     inkscape:zoom="9"
     inkscape:cx="-6.4444444"
     inkscape:cy="11.5"
     inkscape:window-width="1920"
     inkscape:window-height="1009"
     inkscape:window-x="0"
     inkscape:window-y="0"
     inkscape:window-maximized="1"
     inkscape:current-layer="svg2612" />
  <defs
     id="defs2609">
    <linearGradient
       inkscape:collect="always"
       id="linearGradient1082">
      <stop
         style="stop-color:#aaaaaa;stop-opacity:1;"
         offset="0"
         id="stop1078" />
      <stop
         style="stop-color:#c9c9c9;stop-opacity:1;"
         offset="1"
         id="stop1080" />
    </linearGradient>
    <linearGradient
       inkscape:collect="always"
       xlink:href="#linearGradient1082"
       id="linearGradient4030"
       x1="18"
       y1="23"
       x2="6"
       y2="1"
       gradientUnits="userSpaceOnUse"
       gradientTransform="translate(-1,-1)" />
  </defs>
  <rect
     style="fill:url(#linearGradient4030);fill-opacity:1;stroke-linejoin:round"
     id="rect2787"
     width="17"
     height="21"
     x="2.5"
     y="0.5"
     ry="2.5" />
  <path
     d="M 6.851125,4.025 4.023,6.8531304 4.730031,7.5601602 7.560109,4.7320302 Z m 9.148438,0.1503912 -2.828126,2.8300802 2.828126,2.8261706 2.828125,-2.8261706 z M 8.265187,5.4390601 5.437062,8.2671904 6.144094,8.9742203 8.974173,6.1460904 Z m 2.734374,2.5605503 c -1.656852,0 -2.999999,1.3431506 -2.999999,2.9999996 0,1.656851 1.343147,3.000001 2.999999,3.000001 1.656855,0 3,-1.34315 3,-3.000001 0,-1.656849 -1.343145,-2.9999996 -3,-2.9999996 z m 0,1.0000001 c 1.10457,0 2.000001,0.8954295 2.000001,1.9999995 0,1.104571 -0.895431,2.000001 -2.000001,2.000001 -1.104567,0 -1.999998,-0.89543 -1.999998,-2.000001 0,-1.10457 0.895431,-1.9999995 1.999998,-1.9999995 z M 8.999563,15.999611 v 1 h 3.999999 v -1 z m 0,2 v 1 h 3.999999 v -1 z"
     style="opacity:0.2;fill:#000000;fill-opacity:1;stroke-width:0.999999"
     id="path1083" />
  <path
     d="M 6.8511252,3.025 4.023,5.8531303 4.7300313,6.5601601 7.5601091,3.7320302 Z m 9.1484378,0.1503912 -2.828126,2.8300801 2.828126,2.8261701 2.828125,-2.8261701 z M 8.2651871,4.4390601 5.4370622,7.2671903 6.1440943,7.9742201 8.9741725,5.1460903 Z m 2.7343739,2.5605502 c -1.656852,0 -2.9999987,1.34315 -2.9999987,2.9999997 0,1.65685 1.3431467,3 2.9999987,3 1.656855,0 3,-1.34315 3,-3 0,-1.6568497 -1.343145,-2.9999997 -3,-2.9999997 z m 0,0.9999999 c 1.10457,0 2.000001,0.8954298 2.000001,1.9999998 0,1.10457 -0.895431,2 -2.000001,2 -1.104567,0 -1.9999985,-0.89543 -1.9999985,-2 0,-1.10457 0.8954315,-1.9999998 1.9999985,-1.9999998 z M 8.9995625,14.99961 v 1 h 3.9999995 v -1 z m 0,2 v 1 h 3.9999995 v -1 z"
     style="fill:#707070;fill-opacity:1;stroke-width:0.999999"
     id="path1704"
     sodipodi:nodetypes="cccccccccccccccsssssssssscccccccccc" />
  <path
     id="rect4034"
     style="opacity:0.3;fill:#ffffff;stroke-linejoin:round"
     d="M 5,1 C 3.8920011,1 3,1.8920011 3,3 V 4 C 3,2.8920011 3.8920011,2 5,2 h 12 c 1.107999,0 2,0.8920011 2,2 V 3 C 19,1.8920011 18.107999,1 17,1 Z"
     sodipodi:nodetypes="sscsscsss" />
  <path
     d="m 4.9999999,21 c -1.1079989,0 -2,-0.892001 -2,-2 v -1 c 0,1.107998 0.8920011,2 2,2 H 17 c 1.107999,0 2,-0.892002 2,-2 v 1 c 0,1.107999 -0.892001,2 -2,2 z"
     style="opacity:0.3;fill:#ffffff;stroke-linejoin:round"
     id="path4077" />
  <path
     id="rect2785"
     style="opacity:0.5;fill:#000000;stroke-width:0.264583;stroke-linejoin:round"
     d="M 5,0 C 3.3380017,0 2,1.3380017 2,3 v 16 c 0,1.661998 1.3380017,3 3,3 h 12 c 1.661998,0 3,-1.338002 3,-3 V 3 C 20,1.3380017 18.661998,0 17,0 Z m 0,1 h 12 c 1.107999,0 2,0.8920011 2,2 v 16 c 0,1.107999 -0.892001,2 -2,2 H 5 C 3.8920011,21 3,20.107999 3,19 V 3 C 3,1.8920011 3.8920011,1 5,1 Z" />
</svg>
