<?xml version="1.0" encoding="UTF-8" standalone="no"?>
<!-- Created with Inkscape (http://www.inkscape.org/) -->

<svg
   width="48"
   height="48"
   viewBox="0 0 48 48.000002"
   version="1.1"
   id="svg5"
   sodipodi:docname="abiword.svg"
   inkscape:version="1.2.1 (9c6d41e410, 2022-07-14)"
   xmlns:inkscape="http://www.inkscape.org/namespaces/inkscape"
   xmlns:sodipodi="http://sodipodi.sourceforge.net/DTD/sodipodi-0.dtd"
   xmlns:xlink="http://www.w3.org/1999/xlink"
   xmlns="http://www.w3.org/2000/svg"
   xmlns:svg="http://www.w3.org/2000/svg">
  <sodipodi:namedview
     id="namedview7"
     pagecolor="#ffffff"
     bordercolor="#666666"
     borderopacity="1.0"
     inkscape:showpageshadow="2"
     inkscape:pageopacity="0.0"
     inkscape:pagecheckerboard="0"
     inkscape:deskcolor="#d1d1d1"
     inkscape:document-units="px"
     showgrid="false"
     inkscape:zoom="8.28125"
     inkscape:cx="7.3056604"
     inkscape:cy="26.264151"
     inkscape:window-width="1920"
     inkscape:window-height="1007"
     inkscape:window-x="0"
     inkscape:window-y="0"
     inkscape:window-maximized="1"
     inkscape:current-layer="svg5"
     showguides="false" />
  <defs
     id="defs2">
    <linearGradient
       inkscape:collect="always"
       xlink:href="#linearGradient1677"
       id="linearGradient6478"
       x1="37.5"
       y1="44.5"
       x2="9.5"
       y2="2.5"
       gradientUnits="userSpaceOnUse"
       gradientTransform="translate(0.5,0.5)" />
    <linearGradient
       inkscape:collect="always"
       id="linearGradient1677">
      <stop
         style="stop-color:#5792d8;stop-opacity:1;"
         offset="0"
         id="stop1673" />
      <stop
         style="stop-color:#a2d2f9;stop-opacity:1;"
         offset="1"
         id="stop1675" />
    </linearGradient>
  </defs>
  <rect
     style="fill:url(#linearGradient6478);fill-opacity:1.0;stroke:none"
     id="rect184"
     width="41"
     height="41"
     x="3.5"
     y="3.5"
     ry="6.5" />
  <path
     d="m 29.646519,29.367437 c -4.6258,2.3502 -9.3867,4.5558 -14.441,5.7308 -1.6292,-0.0082 -0.82535,-2.188 -0.56221,-3.1757 1.2632,-4.196 3.223,-8.124 5.086,-12.063 0.73783,-1.2446 1.2612,-2.9598 2.7488,-3.4387 1.445,-0.16501 2.3944,1.2712 3.1429,2.3189 3.0605,4.8172 5.9508,9.7605 8.4857,14.89 0.64202,1.337 1.271,2.6806 1.8933,4.027401 -1.8504,-7.762301 -4.3411,-15.462001 -8.3563,-22.352001 -0.90008,-1.3607 -1.7198,-2.837201 -2.9342,-3.931901 -1.1835,-0.93406 -2.6392,0.07157 -3.5139,0.97577 -2.7482,2.832601 -4.4221,6.528801 -6.0624,10.098001 -1.913,4.2239 -3.1682,8.7262 -4.0896,13.274 -0.32303,1.531601 1.2099,2.643401 2.5722,2.168101 3.7733,-0.80655 7.3194,-2.498401 10.657,-4.439901 1.9233,-1.1607 3.773,-2.4786 5.3731,-4.0811 z"
     style="fill:#000000;opacity:0.2"
     id="path4332" />
  <path
     d="m 29.646519,28.367436 c -4.6258,2.3502 -9.3867,4.5558 -14.441,5.7308 -1.6292,-0.0082 -0.82535,-2.188 -0.56221,-3.1757 1.2632,-4.196 3.223,-8.124 5.086,-12.063 0.73783,-1.2446 1.2612,-2.9598 2.7488,-3.4387 1.445,-0.16501 2.3944,1.2712 3.1429,2.3189 3.0605,4.8172 5.9508,9.7605 8.4857,14.89 0.64202,1.337 1.271,2.6806 1.8933,4.0274 -1.8504,-7.7623 -4.3411,-15.462 -8.3563,-22.352 -0.90008,-1.3607 -1.7198,-2.8372 -2.9342,-3.9319 -1.1835,-0.9340602 -2.6392,0.07157 -3.5139,0.97577 -2.7482,2.8326 -4.4221,6.5288 -6.0624,10.098 -1.913,4.2239 -3.1682,8.7262 -4.0896,13.274 -0.32303,1.5316 1.2099,2.6434 2.5722,2.1681 3.7733,-0.80655 7.3194,-2.4984 10.657,-4.4399 1.9233,-1.1607 3.773,-2.4786 5.3731,-4.0811 z"
     style="fill:#ffffff"
     id="path3720"
     sodipodi:nodetypes="ccccccccccccccccc" />
  <path
     id="rect2630"
     style="fill:#ffffff;fill-opacity:1;opacity:0.3"
     d="M 10,4 C 6.6760035,4 4.0000002,6.6760033 4.0000002,10 v 1 C 4.0000002,7.6760032 6.6760035,5 10,5 h 28 c 3.323997,0 6,2.6760032 6,6 V 10 C 44,6.6760033 41.323997,4 38,4 Z" />
  <path
     id="rect398"
     style="opacity:0.3;fill:#ffffff"
     d="m 4.0000001,37 v 1 c 0,3.323996 2.6760033,6 5.9999999,6 h 28 c 3.323997,0 6,-2.676004 6,-6 v -1 c 0,3.323996 -2.676003,6 -6,6 H 10 C 6.6760034,43 4.0000001,40.323996 4.0000001,37 Z" />
  <path
     id="rect899"
     style="opacity:0.5;fill:#000000;stroke:none"
     d="M 10,3 C 6.1220039,3 3,6.1220039 3,10 v 28 c 0,3.877996 3.1220039,7 7,7 h 28 c 3.877996,0 7,-3.122004 7,-7 V 10 C 45,6.1220039 41.877996,3 38,3 Z m 0,1 h 28 c 3.323997,0 6,2.6760033 6,6 v 28 c 0,3.323997 -2.676003,6 -6,6 H 10 C 6.6760033,44 4,41.323997 4,38 V 10 C 4,6.6760033 6.6760033,4 10,4 Z" />
</svg>
