<?xml version="1.0" encoding="UTF-8" standalone="no"?>
<!-- Created with Inkscape (http://www.inkscape.org/) -->

<svg
   width="48"
   height="48"
   viewBox="0 0 48 48.000002"
   version="1.1"
   id="svg5"
   sodipodi:docname="accessories-notes.svg"
   inkscape:version="1.2.1 (9c6d41e410, 2022-07-14)"
   xmlns:inkscape="http://www.inkscape.org/namespaces/inkscape"
   xmlns:sodipodi="http://sodipodi.sourceforge.net/DTD/sodipodi-0.dtd"
   xmlns:xlink="http://www.w3.org/1999/xlink"
   xmlns="http://www.w3.org/2000/svg"
   xmlns:svg="http://www.w3.org/2000/svg">
  <sodipodi:namedview
     id="namedview7"
     pagecolor="#ffffff"
     bordercolor="#666666"
     borderopacity="1.0"
     inkscape:showpageshadow="2"
     inkscape:pageopacity="0.0"
     inkscape:pagecheckerboard="0"
     inkscape:deskcolor="#d1d1d1"
     inkscape:document-units="px"
     showgrid="false"
     inkscape:zoom="17.104167"
     inkscape:cx="24"
     inkscape:cy="24"
     inkscape:window-width="1920"
     inkscape:window-height="1007"
     inkscape:window-x="0"
     inkscape:window-y="0"
     inkscape:window-maximized="1"
     inkscape:current-layer="svg5" />
  <defs
     id="defs2">
    <linearGradient
       inkscape:collect="always"
       id="linearGradient986">
      <stop
         style="stop-color:#ffa12a;stop-opacity:1;"
         offset="0"
         id="stop982" />
      <stop
         style="stop-color:#ffdc75;stop-opacity:1;"
         offset="1"
         id="stop984" />
    </linearGradient>
    <linearGradient
       inkscape:collect="always"
       xlink:href="#linearGradient986"
       id="linearGradient12308"
       x1="24"
       y1="45"
       x2="24"
       y2="3"
       gradientUnits="userSpaceOnUse" />
    <linearGradient
       inkscape:collect="always"
       xlink:href="#linearGradient4866"
       id="linearGradient37402"
       x1="15"
       y1="0.66666663"
       x2="11.333334"
       y2="6.333333"
       gradientUnits="userSpaceOnUse"
       gradientTransform="matrix(3.0000002,0,0,-3.0000002,-4.3e-6,47)" />
    <linearGradient
       inkscape:collect="always"
       id="linearGradient4866">
      <stop
         style="stop-color:#efaa00;stop-opacity:1;"
         offset="0"
         id="stop4862" />
      <stop
         style="stop-color:#ffeec1;stop-opacity:1;"
         offset="1"
         id="stop4864" />
    </linearGradient>
  </defs>
  <rect
     style="fill:url(#linearGradient12308);fill-opacity:1;stroke:none"
     id="rect184"
     width="41"
     height="41"
     x="3.5"
     y="3.5"
     ry="6.5" />
  <path
     id="rect36675"
     style="fill:#a67024;fill-opacity:1;stroke-width:3.20002;stroke-linejoin:round"
     d="M 28,44.5 V 34 c 0,-3.323991 2.676009,-6 6,-6 h 10.5 v 10 c 0,3.600996 -2.899004,6.5 -6.5,6.5 z"
     sodipodi:nodetypes="csscssc" />
  <path
     d="M 28,44.5 V 33.000001 C 28,29.676002 30.676002,27 34.000002,27 H 44.5 v 1 z"
     style="opacity:0.2;fill:#000000;fill-opacity:1;stroke-width:3.2;stroke-linejoin:round"
     id="path38138"
     sodipodi:nodetypes="cssccc" />
  <path
     d="M 28,44.5 V 34 c 0,-3.323996 2.676002,-6 6,-6 h 10.5 z"
     style="fill:url(#linearGradient37402);fill-opacity:1;stroke-width:3.20002;stroke-linejoin:round"
     id="path37156"
     sodipodi:nodetypes="csscc" />
  <path
     id="rect2630"
     style="fill:#ffffff;fill-opacity:1;opacity:0.3"
     d="M 10,4 C 6.6760035,4 4.0000002,6.6760033 4.0000002,10 v 1 C 4.0000002,7.6760032 6.6760035,5 10,5 h 28 c 3.323997,0 6,2.6760032 6,6 V 10 C 44,6.6760033 41.323997,4 38,4 Z" />
  <path
     id="rect398"
     style="opacity:0.3;fill:#ffffff"
     d="m 4.0000001,37 v 1 c 0,3.323996 2.6760033,6 5.9999999,6 h 28 c 3.323997,0 6,-2.676004 6,-6 v -1 c 0,3.323996 -2.676003,6 -6,6 H 10 C 6.6760034,43 4.0000001,40.323996 4.0000001,37 Z" />
  <path
     id="rect899"
     style="opacity:0.5;fill:#000000;stroke:none"
     d="M 10,3 C 6.1220039,3 3,6.1220039 3,10 v 28 c 0,3.877996 3.1220039,7 7,7 h 28 c 3.877996,0 7,-3.122004 7,-7 V 10 C 45,6.1220039 41.877996,3 38,3 Z m 0,1 h 28 c 3.323997,0 6,2.6760033 6,6 v 28 c 0,3.323997 -2.676003,6 -6,6 H 10 C 6.6760033,44 4,41.323997 4,38 V 10 C 4,6.6760033 6.6760033,4 10,4 Z" />
</svg>
