<?xml version="1.0" encoding="UTF-8" standalone="no"?>
<!-- Created with Inkscape (http://www.inkscape.org/) -->

<svg
   width="48"
   height="48"
   viewBox="0 0 48 48.000002"
   version="1.1"
   id="svg5"
   sodipodi:docname="accessories-dictionary.svg"
   inkscape:version="1.2.1 (9c6d41e410, 2022-07-14)"
   xmlns:inkscape="http://www.inkscape.org/namespaces/inkscape"
   xmlns:sodipodi="http://sodipodi.sourceforge.net/DTD/sodipodi-0.dtd"
   xmlns:xlink="http://www.w3.org/1999/xlink"
   xmlns="http://www.w3.org/2000/svg"
   xmlns:svg="http://www.w3.org/2000/svg">
  <sodipodi:namedview
     id="namedview7"
     pagecolor="#ffffff"
     bordercolor="#666666"
     borderopacity="1.0"
     inkscape:showpageshadow="2"
     inkscape:pageopacity="0.0"
     inkscape:pagecheckerboard="0"
     inkscape:deskcolor="#d1d1d1"
     inkscape:document-units="px"
     showgrid="false"
     inkscape:zoom="4.7142858"
     inkscape:cx="-39.454545"
     inkscape:cy="62.893938"
     inkscape:window-width="1920"
     inkscape:window-height="1007"
     inkscape:window-x="0"
     inkscape:window-y="0"
     inkscape:window-maximized="1"
     inkscape:current-layer="svg5"
     showguides="false" />
  <defs
     id="defs2">
    <linearGradient
       inkscape:collect="always"
       xlink:href="#linearGradient1093"
       id="linearGradient6478"
       x1="37.5"
       y1="44.5"
       x2="9.5"
       y2="2.5"
       gradientUnits="userSpaceOnUse"
       gradientTransform="translate(0.5,0.5)" />
    <linearGradient
       inkscape:collect="always"
       id="linearGradient1093">
      <stop
         style="stop-color:#981b1b;stop-opacity:1;"
         offset="0"
         id="stop1089" />
      <stop
         style="stop-color:#c75349;stop-opacity:1;"
         offset="1"
         id="stop1091" />
    </linearGradient>
  </defs>
  <rect
     style="fill:url(#linearGradient6478);fill-opacity:1.0;stroke:none"
     id="rect184"
     width="41"
     height="41"
     x="3.5"
     y="3.5"
     ry="6.5" />
  <path
     d="M 16.801344,15 10.94866,31.299106 9.0000015,31.647323 v 0.683033 h 5.6517835 v -0.683033 l -2.310264,-0.348217 1.734375,-4.955356 h 6.763389 l 1.707592,4.955356 -2.31027,0.348217 v 0.683033 h 7.265625 V 31.647323 L 25.325896,31.299106 19.238844,15 Z m 0.602677,1.848218 3.040178,8.34375 h -5.986605 z m 16.265625,3.16071 c -0.692017,1.5e-5 -1.337242,0.05333 -1.93527,0.147322 -0.589492,0.08545 -1.165665,0.181747 -1.72098,0.301343 v 2.631696 h 0.72321 l 0.435271,-1.5 c 0.316103,-0.1794 0.679583,-0.324194 1.098218,-0.435269 0.418612,-0.111053 0.835447,-0.1674 1.245532,-0.167416 0.358815,1.5e-5 0.658102,0.0612 0.897323,0.18081 0.239205,0.119618 0.425797,0.281963 0.5625,0.495533 0.14523,0.213593 0.24822,0.471083 0.308031,0.770092 0.05977,0.290483 0.08705,0.618863 0.08705,0.977678 v 1.881698 l -1.801335,0.05355 c -0.410085,0.0085 -0.822068,0.0261 -1.232145,0.0603 -0.401543,0.0342 -0.784425,0.100223 -1.151783,0.194198 -0.358822,0.09398 -0.70176,0.224227 -1.017862,0.395085 -0.30756,0.16233 -0.572895,0.378022 -0.803565,0.642855 -0.230678,0.264855 -0.407565,0.59139 -0.535718,0.984375 -0.128152,0.384457 -0.194197,0.84309 -0.194197,1.37277 0,0.51261 0.05152,0.988785 0.15402,1.43304 0.102517,0.435712 0.269715,0.82044 0.508927,1.145085 0.239213,0.31611 0.557895,0.563895 0.950895,0.74331 0.401535,0.179407 0.89226,0.267855 1.47321,0.267855 0.49551,0 0.944445,-0.05153 1.345988,-0.15402 0.41007,-0.102525 0.770557,-0.229763 1.078125,-0.375 0.307552,-0.15378 0.56319,-0.31128 0.776782,-0.482145 0.22212,-0.170865 0.40086,-0.320505 0.52902,-0.448658 l 0.241073,1.205355 h 3.308032 v -0.582592 l -1.5,-0.31473 v -8.142856 c -7e-6,-0.64074 -0.09815,-1.168418 -0.294645,-1.587053 -0.187957,-0.427162 -0.455145,-0.763387 -0.796875,-1.011157 -0.341737,-0.247748 -0.742177,-0.426495 -1.212052,-0.52902 -0.46989,-0.10251 -0.980018,-0.154005 -1.526783,-0.15402 z m 1.700888,6.180803 v 4.279019 c -0.427169,0.205043 -0.85185,0.378938 -1.279013,0.515625 -0.418635,0.128153 -0.919057,0.1875 -1.5,0.1875 -1.221705,0 -1.834822,-0.75306 -1.834822,-2.256697 0,-0.52968 0.0612,-0.964065 0.180802,-1.305803 0.119603,-0.34173 0.303195,-0.607065 0.542408,-0.803572 0.239212,-0.196492 0.543345,-0.33828 0.910717,-0.415178 0.367358,-0.08543 0.801743,-0.130222 1.305803,-0.147322 l 1.674105,-0.05355 z"
     style="font-style:normal;font-variant:normal;font-weight:normal;font-stretch:normal;font-size:122.478px;line-height:125%;font-family:'Liberation Serif';-inkscape-font-specification:'Liberation Serif';letter-spacing:0px;word-spacing:0px;display:inline;opacity:0.2;fill:#000000;fill-opacity:1;stroke:none;stroke-width:0.75;enable-background:new"
     id="path8966" />
  <path
     d="m 16.801344,14 -5.852686,16.299105 -1.9486565,0.348218 v 0.683032 h 5.6517825 v -0.683032 l -2.310263,-0.348218 1.734375,-4.955355 h 6.763388 l 1.707592,4.955355 -2.31027,0.348218 v 0.683032 h 7.265625 V 30.647323 L 25.325896,30.299105 19.238844,14 Z m 0.602677,1.848217 3.040178,8.343751 h -5.986605 z m 16.265625,3.160711 c -0.692017,1.5e-5 -1.337243,0.05332 -1.93527,0.147322 -0.589492,0.08545 -1.165665,0.181748 -1.72098,0.301342 v 2.631698 h 0.72321 l 0.435271,-1.5 c 0.316102,-0.1794 0.679582,-0.324195 1.098217,-0.43527 0.418613,-0.111052 0.835447,-0.1674 1.245533,-0.167415 0.358815,1.5e-5 0.658102,0.0612 0.897322,0.18081 0.239206,0.119617 0.425798,0.281962 0.5625,0.495532 0.14523,0.213593 0.248221,0.471083 0.308033,0.770093 0.05977,0.290483 0.08705,0.618862 0.08705,0.977677 v 1.881698 l -1.801334,0.05355 c -0.410085,0.0085 -0.822068,0.0261 -1.232145,0.0603 -0.401543,0.0342 -0.784425,0.100222 -1.151783,0.194197 -0.358823,0.09398 -0.70176,0.224228 -1.017862,0.395085 -0.307561,0.16233 -0.572896,0.378023 -0.803565,0.642855 -0.230678,0.264855 -0.407566,0.59139 -0.535718,0.984375 -0.128153,0.384458 -0.194198,0.843091 -0.194198,1.37277 0,0.51261 0.05153,0.988785 0.154019,1.43304 0.102518,0.435713 0.269715,0.820441 0.508928,1.145085 0.239212,0.316111 0.557895,0.563896 0.950895,0.743311 0.401535,0.179407 0.89226,0.267855 1.47321,0.267855 0.495511,0 0.944445,-0.05153 1.345988,-0.154021 0.41007,-0.102525 0.770557,-0.229762 1.078124,-0.375 0.307553,-0.153779 0.563192,-0.311279 0.776784,-0.482145 0.222119,-0.170864 0.40086,-0.320504 0.52902,-0.448657 l 0.241073,1.205355 H 39 v -0.582593 l -1.5,-0.31473 v -8.142855 c -9e-6,-0.640739 -0.09815,-1.168417 -0.294646,-1.587052 -0.187956,-0.427163 -0.455145,-0.763387 -0.796875,-1.011157 -0.341737,-0.247748 -0.742178,-0.426496 -1.212052,-0.529021 -0.46989,-0.102509 -0.980018,-0.154005 -1.526783,-0.154019 z m 1.700887,6.180802 v 4.27902 c -0.427169,0.205042 -0.851849,0.378937 -1.279012,0.515625 -0.418635,0.128153 -0.919058,0.1875 -1.5,0.1875 -1.221705,0 -1.834822,-0.75306 -1.834822,-2.256698 0,-0.529679 0.0612,-0.964064 0.180802,-1.305802 0.119602,-0.34173 0.303195,-0.607065 0.542408,-0.803573 0.239212,-0.196492 0.543345,-0.338279 0.910717,-0.415177 0.367358,-0.08543 0.801743,-0.130223 1.305803,-0.147323 l 1.674104,-0.05355 z"
     style="font-style:normal;font-variant:normal;font-weight:normal;font-stretch:normal;font-size:122.478px;line-height:125%;font-family:'Liberation Serif';-inkscape-font-specification:'Liberation Serif';letter-spacing:0px;word-spacing:0px;display:inline;fill:#ffffff;fill-opacity:1;stroke:none;stroke-width:0.75;enable-background:new"
     id="path8614"
     sodipodi:nodetypes="ccccccccccccccccccccccccccccccccscccccccscccscccccccccccccccccsssccccc" />
  <path
     id="rect2630"
     style="fill:#ffffff;fill-opacity:1;opacity:0.3"
     d="M 10,4 C 6.6760035,4 4.0000002,6.6760033 4.0000002,10 v 1 C 4.0000002,7.6760032 6.6760035,5 10,5 h 28 c 3.323997,0 6,2.6760032 6,6 V 10 C 44,6.6760033 41.323997,4 38,4 Z" />
  <path
     id="rect398"
     style="opacity:0.3;fill:#ffffff"
     d="m 4.0000001,37 v 1 c 0,3.323996 2.6760033,6 5.9999999,6 h 28 c 3.323997,0 6,-2.676004 6,-6 v -1 c 0,3.323996 -2.676003,6 -6,6 H 10 C 6.6760034,43 4.0000001,40.323996 4.0000001,37 Z" />
  <path
     id="rect899"
     style="opacity:0.5;fill:#000000;stroke:none"
     d="M 10,3 C 6.1220039,3 3,6.1220039 3,10 v 28 c 0,3.877996 3.1220039,7 7,7 h 28 c 3.877996,0 7,-3.122004 7,-7 V 10 C 45,6.1220039 41.877996,3 38,3 Z m 0,1 h 28 c 3.323997,0 6,2.6760033 6,6 v 28 c 0,3.323997 -2.676003,6 -6,6 H 10 C 6.6760033,44 4,41.323997 4,38 V 10 C 4,6.6760033 6.6760033,4 10,4 Z" />
</svg>
