<?xml version="1.0" encoding="UTF-8" standalone="no"?>
<!-- Created with Inkscape (http://www.inkscape.org/) -->

<svg
   width="48"
   height="48"
   viewBox="0 0 48 48.000002"
   version="1.1"
   id="svg5"
   sodipodi:docname="accessories-camera.svg"
   inkscape:version="1.2.1 (9c6d41e410, 2022-07-14)"
   xmlns:inkscape="http://www.inkscape.org/namespaces/inkscape"
   xmlns:sodipodi="http://sodipodi.sourceforge.net/DTD/sodipodi-0.dtd"
   xmlns:xlink="http://www.w3.org/1999/xlink"
   xmlns="http://www.w3.org/2000/svg"
   xmlns:svg="http://www.w3.org/2000/svg">
  <sodipodi:namedview
     id="namedview7"
     pagecolor="#ffffff"
     bordercolor="#666666"
     borderopacity="1.0"
     inkscape:showpageshadow="2"
     inkscape:pageopacity="0.0"
     inkscape:pagecheckerboard="0"
     inkscape:deskcolor="#d1d1d1"
     inkscape:document-units="px"
     showgrid="false"
     inkscape:zoom="18.857143"
     inkscape:cx="23.996212"
     inkscape:cy="24.022727"
     inkscape:window-width="1920"
     inkscape:window-height="1007"
     inkscape:window-x="0"
     inkscape:window-y="0"
     inkscape:window-maximized="1"
     inkscape:current-layer="svg5"
     showguides="false" />
  <defs
     id="defs2">
    <linearGradient
       inkscape:collect="always"
       xlink:href="#linearGradient3585"
       id="linearGradient6478"
       x1="37.5"
       y1="44.5"
       x2="9.5"
       y2="2.5"
       gradientUnits="userSpaceOnUse"
       gradientTransform="translate(0.5,0.5)" />
    <linearGradient
       inkscape:collect="always"
       id="linearGradient3585">
      <stop
         style="stop-color:#adb2b9;stop-opacity:1;"
         offset="0"
         id="stop3581" />
      <stop
         style="stop-color:#e6e6e6;stop-opacity:1"
         offset="1"
         id="stop3583" />
    </linearGradient>
  </defs>
  <rect
     style="fill:url(#linearGradient6478);fill-opacity:1;stroke:none"
     id="rect184"
     width="41"
     height="41"
     x="3.5"
     y="3.5"
     ry="6.5" />
  <path
     id="path10249"
     style="opacity:0.2;fill:#000000;fill-opacity:1;stroke-width:6.97878;stroke-linejoin:round"
     d="M 20.498047 13 C 19.971284 13.0012 19.484987 13.278251 19.214844 13.730469 L 16.654297 18 L 12 18 A 2 2 0 0 0 10 20 L 10 35 A 2 2 0 0 0 12 37 L 36 37 A 2 2 0 0 0 38 35 L 38 20 A 2 2 0 0 0 36 18 L 31.347656 18 L 28.789062 13.730469 C 28.517571 13.27599 28.027439 12.998597 27.498047 13 L 20.498047 13 z M 24 20 A 7 7 0 0 1 31 27 A 7 7 0 0 1 24 34 A 7 7 0 0 1 17 27 A 7 7 0 0 1 24 20 z M 24 22 A 5 5 0 0 0 19 27 A 5 5 0 0 0 24 32 A 5 5 0 0 0 29 27 A 5 5 0 0 0 24 22 z " />
  <path
     id="rect849"
     style="fill:#666666;fill-opacity:1;stroke-width:1.84647;stroke-linejoin:round"
     d="M 20.498047 12 C 19.971284 12.0012 19.484987 12.278251 19.214844 12.730469 L 16.654297 17 L 12 17 A 2 2 0 0 0 10 19 L 10 34 A 2 2 0 0 0 12 36 L 36 36 A 2 2 0 0 0 38 34 L 38 19 A 2 2 0 0 0 36 17 L 31.347656 17 L 28.789062 12.730469 C 28.517569 12.27599 28.027439 11.998597 27.498047 12 L 20.498047 12 z M 24 19 A 7 7 0 0 1 31 26 A 7 7 0 0 1 24 33 A 7 7 0 0 1 17 26 A 7 7 0 0 1 24 19 z M 24 21 A 5 5 0 0 0 19 26 A 5 5 0 0 0 24 31 A 5 5 0 0 0 29 26 A 5 5 0 0 0 24 21 z " />
  <path
     id="rect2630"
     style="fill:#ffffff;fill-opacity:1;opacity:0.3"
     d="M 10,4 C 6.6760035,4 4.0000002,6.6760033 4.0000002,10 v 1 C 4.0000002,7.6760032 6.6760035,5 10,5 h 28 c 3.323997,0 6,2.6760032 6,6 V 10 C 44,6.6760033 41.323997,4 38,4 Z" />
  <path
     id="rect398"
     style="opacity:0.3;fill:#ffffff"
     d="m 4.0000001,37 v 1 c 0,3.323996 2.6760033,6 5.9999999,6 h 28 c 3.323997,0 6,-2.676004 6,-6 v -1 c 0,3.323996 -2.676003,6 -6,6 H 10 C 6.6760034,43 4.0000001,40.323996 4.0000001,37 Z" />
  <path
     id="rect899"
     style="opacity:0.5;fill:#000000;stroke:none"
     d="M 10,3 C 6.1220039,3 3,6.1220039 3,10 v 28 c 0,3.877996 3.1220039,7 7,7 h 28 c 3.877996,0 7,-3.122004 7,-7 V 10 C 45,6.1220039 41.877996,3 38,3 Z m 0,1 h 28 c 3.323997,0 6,2.6760033 6,6 v 28 c 0,3.323997 -2.676003,6 -6,6 H 10 C 6.6760033,44 4,41.323997 4,38 V 10 C 4,6.6760033 6.6760033,4 10,4 Z" />
</svg>
