<?xml version="1.0" encoding="UTF-8" standalone="no"?>
<!-- Created with Inkscape (http://www.inkscape.org/) -->

<svg
   width="48"
   height="48"
   viewBox="0 0 48 48.000002"
   version="1.1"
   id="svg5"
   sodipodi:docname="accessories-document-viewer.svg"
   inkscape:version="1.2.1 (9c6d41e410, 2022-07-14)"
   xmlns:inkscape="http://www.inkscape.org/namespaces/inkscape"
   xmlns:sodipodi="http://sodipodi.sourceforge.net/DTD/sodipodi-0.dtd"
   xmlns:xlink="http://www.w3.org/1999/xlink"
   xmlns="http://www.w3.org/2000/svg"
   xmlns:svg="http://www.w3.org/2000/svg">
  <sodipodi:namedview
     id="namedview7"
     pagecolor="#ffffff"
     bordercolor="#666666"
     borderopacity="1.0"
     inkscape:showpageshadow="2"
     inkscape:pageopacity="0.0"
     inkscape:pagecheckerboard="0"
     inkscape:deskcolor="#d1d1d1"
     inkscape:document-units="px"
     showgrid="false"
     inkscape:zoom="16.458333"
     inkscape:cx="23.969621"
     inkscape:cy="24"
     inkscape:window-width="1920"
     inkscape:window-height="1002"
     inkscape:window-x="0"
     inkscape:window-y="0"
     inkscape:window-maximized="1"
     inkscape:current-layer="svg5" />
  <defs
     id="defs2">
    <linearGradient
       inkscape:collect="always"
       xlink:href="#linearGradient1216"
       id="linearGradient6228"
       x1="38"
       y1="45"
       x2="10"
       y2="3"
       gradientUnits="userSpaceOnUse" />
    <linearGradient
       inkscape:collect="always"
       id="linearGradient1216">
      <stop
         style="stop-color:#dc1111;stop-opacity:1;"
         offset="0"
         id="stop1212" />
      <stop
         style="stop-color:#dc5d4f;stop-opacity:1;"
         offset="1"
         id="stop1214" />
    </linearGradient>
  </defs>
  <rect
     style="fill:url(#linearGradient6228);fill-opacity:1.0;stroke:none"
     id="rect184"
     width="41"
     height="41"
     x="3.5"
     y="3.5"
     ry="6.5" />
  <path
     d="m 22.386192,11 c -0.48277,0 -0.57799,0.0226 -0.77218,0.18535 -0.38663,0.32406 -0.60695,1.3212 -0.60472,2.770971 0.002,1.49898 0.20755,2.92561 0.67914,4.782 l 0.29771,1.15843 -0.2791,0.87114 c -0.88647,2.83279 -2.1717,5.78089 -4.06557,9.31379 -2.87023,5.35428 -5.0884,8.165131 -6.63328,8.414861 -0.24857,0.0402 -0.26049,0.0298 -0.26049,-0.14827 0,-0.90366 1.71344,-3.163241 3.619,-4.772751 0.97339,-0.82216 -0.15936,-0.27269 -1.46993,0.71359 -1.32072,0.99392 -2.41474,2.28268 -2.7538,3.243611 -0.2410799,0.68331 -0.1900899,0.92492 0.25119,1.14917 0.78847,0.40069 1.1897,0.41645 1.86067,0.0834 1.30429,-0.64739 3.02916,-2.696251 4.94939,-5.875561 0.62263,-1.0309 0.81801,-1.28819 0.97685,-1.28819 0.056,0 0.64439,-0.16311 1.30247,-0.36142 2.63019,-0.79264 5.78843,-1.43242 8.8847,-1.80716 l 1.03267,-0.12974 0.52099,0.25949 c 1.35679,0.68063 3.24732,1.34106 4.63306,1.61253 0.93723,0.18361 2.15767,0.21745 2.56772,0.0741 0.25837,-0.0903 0.79662,-0.40936 0.79663,-0.51421 -1.05173,0.49326 -2.63698,-0.11624 -3.82952,-0.46814 -0.78627,-0.24772 -2.51664,-0.92424 -2.61424,-1.01943 2.09507,-0.40551 6.02493,-0.49544 6.44723,0.95455 0.12371,0 0.0919,-0.58207 -0.0465,-0.81553 -0.2593,-0.43727 -1.01068,-0.79027 -2.09325,-0.99162 -0.87648,-0.16302 -2.95334,-0.20866 -4.57725,-0.10194 l -1.44202,0.0927 -0.52098,-0.3151 c -2.98739,-1.80964 -4.56956,-3.85115 -6.00066,-7.72906 -0.21476,-0.58194 -0.22921,-0.66179 -0.15817,-1.02868 0.25016,-1.29181 0.48232,-5.65644 0.30702,-5.76437 -0.31928,1.43021 -0.57748,2.86072 -0.90243,4.15182 -0.0671,0 -0.26379,-1.00637 -0.41865,-2.17785 -0.16847,-1.27457 -0.10729,-2.998841 0.12095,-3.586501 0.0915,-0.23549 0.21074,-0.45008 0.2698,-0.47264 0.58504,0.1678 0.91065,0.63115 0.99545,1.34378 0.083,0 0.10433,-0.13619 0.12094,-0.57458 C 23.613632,11.26837 23.355162,11 22.386192,11 Z m 0.23257,10.639041 c 0.0332,-0.0106 0.052,0.061 0.093,0.17608 0.0505,0.14165 0.33315,0.7216 0.62332,1.28818 1.24855,2.43784 2.63117,4.03669 4.62377,5.34731 0.10095,0.0664 0.16332,0.14209 0.13955,0.16682 -0.0237,0.0248 -0.42937,0.11205 -0.89313,0.19462 -3.16243,0.56312 -7.09958,1.74776 -9.01493,2.7061 -0.0305,0.0152 -0.0558,-0.0147 -0.0558,-0.0648 0,-0.0502 0.18828,-0.44243 0.42796,-0.87114 1.8053,-3.22914 3.01839,-5.83905 3.70272,-7.98855 0.21709,-0.68189 0.29827,-0.93696 0.35352,-0.95455 z"
     style="display:inline;fill:#000000;fill-opacity:1;fill-rule:nonzero;stroke:none;stroke-width:0.5;stroke-miterlimit:4;stroke-dasharray:none;stroke-opacity:1;enable-background:new;opacity:0.2"
     id="path12418" />
  <path
     d="m 22.386194,9.9999999 c -0.48277,0 -0.57799,0.0226 -0.77218,0.1853501 -0.38663,0.32406 -0.60695,1.3212 -0.60472,2.77097 0.002,1.49898 0.20755,2.92561 0.67914,4.782 l 0.29771,1.15843 -0.2791,0.87114 c -0.88647,2.83279 -2.1717,5.78089 -4.06557,9.31379 -2.87023,5.35428 -5.0884,8.16513 -6.63328,8.41486 -0.24857,0.0402 -0.26049,0.0298 -0.26049,-0.14827 0,-0.90366 1.71344,-3.16324 3.619,-4.77275 0.97339,-0.82216 -0.15936,-0.27269 -1.46993,0.71359 -1.32072,0.99392 -2.41474,2.28268 -2.7538,3.24361 -0.2410803,0.68331 -0.1900903,0.92492 0.25119,1.14917 0.78847,0.40069 1.1897,0.41645 1.86067,0.0834 1.30429,-0.64739 3.02916,-2.69625 4.94939,-5.87556 0.62263,-1.0309 0.81801,-1.28819 0.97685,-1.28819 0.056,0 0.64439,-0.16311 1.30247,-0.36142 2.63019,-0.79264 5.78843,-1.43242 8.8847,-1.80716 l 1.03267,-0.12974 0.52099,0.25949 c 1.35679,0.68063 3.24732,1.34106 4.63306,1.61253 0.93723,0.18361 2.15767,0.21745 2.56772,0.0741 0.25837,-0.0903 0.79662,-0.40936 0.79663,-0.51421 -1.05173,0.49326 -2.63698,-0.11624 -3.82952,-0.46814 -0.78627,-0.24772 -2.51664,-0.92424 -2.61424,-1.01943 2.09507,-0.40551 6.02493,-0.49544 6.44723,0.95455 0.12371,0 0.0919,-0.58207 -0.0465,-0.81553 -0.2593,-0.43727 -1.01068,-0.79027 -2.09325,-0.99162 -0.87648,-0.16302 -2.95334,-0.20866 -4.57725,-0.10194 l -1.44202,0.0927 -0.52098,-0.3151 c -2.98739,-1.80964 -4.56956,-3.85115 -6.00066,-7.72906 -0.21476,-0.58194 -0.22921,-0.66179 -0.15817,-1.02868 0.25016,-1.29181 0.48232,-5.65644 0.30702,-5.76437 -0.31928,1.43021 -0.57748,2.86072 -0.90243,4.15182 -0.0671,0 -0.26379,-1.00637 -0.41865,-2.17785 -0.16847,-1.27457 -0.10729,-2.99884 0.12095,-3.5865 0.0915,-0.23549 0.21074,-0.45008 0.2698,-0.47264 0.58504,0.1678 0.91065,0.63115 0.99545,1.34378 0.083,0 0.10433,-0.13619 0.12094,-0.57458 0.0366,-0.96417 -0.22187,-1.2325401 -1.19084,-1.2325401 z m 0.23257,10.6390401 c 0.0332,-0.0106 0.052,0.061 0.093,0.17608 0.0505,0.14165 0.33315,0.7216 0.62332,1.28818 1.24855,2.43784 2.63117,4.03669 4.62377,5.34731 0.10095,0.0664 0.16332,0.14209 0.13955,0.16682 -0.0237,0.0248 -0.42937,0.11205 -0.89313,0.19462 -3.16243,0.56312 -7.09958,1.74776 -9.01493,2.7061 -0.0305,0.0152 -0.0558,-0.0147 -0.0558,-0.0648 0,-0.0502 0.18828,-0.44243 0.42796,-0.87114 1.8053,-3.22914 3.01839,-5.83905 3.70272,-7.98855 0.21709,-0.68189 0.29827,-0.93696 0.35352,-0.95455 z"
     style="display:inline;fill:#ffffff;fill-opacity:1;fill-rule:nonzero;stroke:none;stroke-width:0.5;stroke-miterlimit:4;stroke-dasharray:none;stroke-opacity:1;enable-background:new"
     id="path11869"
     sodipodi:nodetypes="scccccccssscsccsccccsccccccscccsccccccccscccscccscscc" />
  <path
     id="rect2630"
     style="fill:#ffffff;fill-opacity:1;opacity:0.3"
     d="M 10,4 C 6.6760035,4 4.0000002,6.6760033 4.0000002,10 v 1 C 4.0000002,7.6760032 6.6760035,5 10,5 h 28 c 3.323997,0 6,2.6760032 6,6 V 10 C 44,6.6760033 41.323997,4 38,4 Z" />
  <path
     id="rect398"
     style="opacity:0.3;fill:#ffffff"
     d="m 4.0000001,37 v 1 c 0,3.323996 2.6760033,6 5.9999999,6 h 28 c 3.323997,0 6,-2.676004 6,-6 v -1 c 0,3.323996 -2.676003,6 -6,6 H 10 C 6.6760034,43 4.0000001,40.323996 4.0000001,37 Z" />
  <path
     id="rect899"
     style="opacity:0.5;fill:#000000;stroke:none"
     d="M 10,3 C 6.1220039,3 3,6.1220039 3,10 v 28 c 0,3.877996 3.1220039,7 7,7 h 28 c 3.877996,0 7,-3.122004 7,-7 V 10 C 45,6.1220039 41.877996,3 38,3 Z m 0,1 h 28 c 3.323997,0 6,2.6760033 6,6 v 28 c 0,3.323997 -2.676003,6 -6,6 H 10 C 6.6760033,44 4,41.323997 4,38 V 10 C 4,6.6760033 6.6760033,4 10,4 Z" />
</svg>
