<?xml version="1.0" encoding="UTF-8" standalone="no"?>
<!-- Created with Inkscape (http://www.inkscape.org/) -->

<svg
   width="48"
   height="48"
   viewBox="0 0 48 48.000002"
   version="1.1"
   id="svg5"
   sodipodi:docname="applications-science.svg"
   inkscape:version="1.2.1 (9c6d41e410, 2022-07-14)"
   xmlns:inkscape="http://www.inkscape.org/namespaces/inkscape"
   xmlns:sodipodi="http://sodipodi.sourceforge.net/DTD/sodipodi-0.dtd"
   xmlns:xlink="http://www.w3.org/1999/xlink"
   xmlns="http://www.w3.org/2000/svg"
   xmlns:svg="http://www.w3.org/2000/svg">
  <sodipodi:namedview
     id="namedview7"
     pagecolor="#ffffff"
     bordercolor="#666666"
     borderopacity="1.0"
     inkscape:showpageshadow="2"
     inkscape:pageopacity="0.0"
     inkscape:pagecheckerboard="0"
     inkscape:deskcolor="#d1d1d1"
     inkscape:document-units="px"
     showgrid="false"
     inkscape:zoom="6.5"
     inkscape:cx="-8"
     inkscape:cy="43.153846"
     inkscape:window-width="1920"
     inkscape:window-height="1009"
     inkscape:window-x="0"
     inkscape:window-y="0"
     inkscape:window-maximized="1"
     inkscape:current-layer="svg5" />
  <defs
     id="defs2">
    <linearGradient
       inkscape:collect="always"
       xlink:href="#linearGradient1918"
       id="linearGradient15179"
       x1="24"
       y1="45"
       x2="24"
       y2="3"
       gradientUnits="userSpaceOnUse" />
    <linearGradient
       inkscape:collect="always"
       id="linearGradient1918">
      <stop
         style="stop-color:#ff8d18;stop-opacity:1;"
         offset="0"
         id="stop1914" />
      <stop
         style="stop-color:#c94c41;stop-opacity:1;"
         offset="1"
         id="stop1916" />
    </linearGradient>
  </defs>
  <rect
     style="fill:url(#linearGradient15179);fill-opacity:1.0;stroke:none"
     id="rect184"
     width="41"
     height="41"
     x="3.5"
     y="3.5"
     ry="6.5" />
  <path
     d="m 22.499684,8 c -0.828427,0 -1.5,0.6715729 -1.5,1.5000001 6.71e-4,0.197907 0.0405,0.3937249 0.11719,0.5761699 -1.22888,0.950519 -2.31144,2.489259 -3.16016,4.44531 -0.73563,-0.0869 -1.44454,-0.12936 -2.11328,-0.11523 -2.66813,0.0564 -4.721,0.91973 -5.687499,2.59375 -1.0916803,1.89085 -0.5781103,4.48809 1.156249,7.15625 0.20631,-0.26834 0.39827,-0.54633 0.625,-0.8125 -1.387989,-2.22366 -1.820879,-4.3137 -0.9375,-5.84375 0.99825,-1.72903 3.45631,-2.39033 6.58398,-2.05859 -0.99508,2.6671 -1.58398,5.9749 -1.58398,9.55859 0,1.02918 0.0497,2.03465 0.14258,3.00977 -0.86216,-0.72859 -1.64499,-1.47601 -2.33008,-2.22852 -0.20987,0.2638 -0.41207,0.52186 -0.59375,0.78125 0.89406,0.98023 1.93231,1.94774 3.0957,2.87109 0.96158,6.67865 4.0368,11.566411 7.68555,11.566411 2.41596,0 4.58001,-2.14513 6.04688,-5.531251 3.65832,0.42125 6.58937,-0.37731 7.79687,-2.46875 0.015,-0.0261 0.0266,-0.0538 0.041,-0.0801 0.628472,0.124064 1.266372,-0.164678 1.58789,-0.71875 0.414107,-0.717338 0.168409,-1.634551 -0.54883,-2.04883 -0.173748,-0.09955 -0.365671,-0.163303 -0.56445,-0.1875 -0.17048,-1.28905 -0.74444,-2.69431 -1.67188,-4.12109 -0.20631,0.26834 -0.39827,0.54633 -0.625,0.8125 0.76872,1.23155 1.24184,2.42091 1.36328,3.49805 -0.228393,0.130811 -0.418345,0.319415 -0.55078,0.54687 -0.316895,0.551137 -0.251939,1.242181 0.16211,1.72461 -0.0133,0.0244 -0.0232,0.0501 -0.0371,0.0742 -0.99825,1.72903 -3.45631,2.39033 -6.58398,2.05859 0.99509,-2.66706 1.58399,-5.97486 1.58399,-9.55855 0,-1.02918 -0.0497,-2.03465 -0.14258,-3.00977 0.86216,0.72859 1.64499,1.47601 2.33008,2.22852 0.20987,-0.2638 0.41207,-0.52186 0.59375,-0.78125 -0.89406,-0.98023 -1.93231,-1.94774 -3.0957,-2.87109 C 30.723654,13.88776 27.648434,9 23.999684,9 c -0.0281,0 -0.0559,0.003 -0.084,0.004 C 23.704927,8.4024834 23.137054,7.9998391 22.499684,8 Z m 1.5,2 c 2.99512,0 5.5435,4.03875 6.54297,9.70703 -0.79985,-0.57385 -1.64564,-1.12645 -2.54297,-1.64453 -0.4659,-0.26899 -0.93919,-0.51029 -1.40625,-0.75 -0.43092,0.13832 -0.87064,0.30056 -1.3125,0.46875 0.73851,0.35237 1.47846,0.72885 2.21875,1.15625 1.17213,0.67673 2.25721,1.40611 3.25391,2.16602 0.15604,1.24438 0.24609,2.54653 0.24609,3.89648 0,3.57265 -0.58356,6.85137 -1.55664,9.42773 -0.88119,-0.14441 -1.80336,-0.35835 -2.75586,-0.64648 -0.44598,0.21968 -0.89934,0.40083 -1.34375,0.59375 1.28768,0.44069 2.53814,0.75497 3.72852,0.95508 -1.27532,2.874961 -3.07507,4.669921 -5.07227,4.669921 -2.99512,0 -5.5435,-4.038751 -6.54297,-9.707031 0.79985,0.57385 1.64564,1.12645 2.54297,1.64453 0.4659,0.26899 0.93919,0.51029 1.40625,0.75 0.43092,-0.13832 0.87064,-0.30056 1.3125,-0.46875 -0.73851,-0.35237 -1.47846,-0.72885 -2.21875,-1.15625 -1.17213,-0.67673 -2.25721,-1.40611 -3.25391,-2.16602 -0.15604,-1.24438 -0.24609,-2.54653 -0.24609,-3.89648 0,-3.57265 0.58356,-6.85137 1.55664,-9.42773 0.88119,0.14441 1.80336,0.35835 2.75586,0.64648 0.44598,-0.21968 0.89934,-0.40083 1.34375,-0.59375 -1.28425,-0.43952 -2.53504,-0.76128 -3.72461,-0.96484 0.77192,-1.737101 1.73485,-3.077481 2.81836,-3.86524 0.227629,0.133093 0.48632,0.203829 0.75,0.20508 0.631951,-0.0017 1.195082,-0.399206 1.4082,-0.99414 0.03078,-8.5e-4 0.06092,-0.0059 0.0918,-0.0059 z m 8.15625,4.40625 c -0.34107,-0.007 -0.70308,0.0127 -1.0625,0.0312 0.12216,0.29576 0.23239,0.62691 0.34375,0.9375 2.63614,-0.0974 4.67533,0.58838 5.5625,2.125 1.37053,2.37381 -0.37835,6.10874 -4.0625,9.5625 -0.03,0.48858 -0.0742,0.96273 -0.125,1.4375 4.54355,-3.97718 6.7207,-8.57379 5.03125,-11.5 -0.9665,-1.67402 -3.01937,-2.53739 -5.6875,-2.59375 z m -4.09375,0.46875 c -2.54321,0.55603 -5.32673,1.608 -8.0625,3.1875 -0.46586,0.26897 -0.93391,0.55915 -1.375,0.84375 -0.0968,0.44372 -0.17381,0.90648 -0.25,1.375 0.67448,-0.46344 1.38463,-0.9163 2.125,-1.34375 2.71322,-1.56648 5.47067,-2.61715 7.9375,-3.15625 -0.12157,-0.31343 -0.24273,-0.6193 -0.375,-0.90625 z m -3.44141,6.57812 c -0.287525,-0.01387 -0.572967,0.05529 -0.82226,0.19922 -0.227459,0.132433 -0.416066,0.322386 -0.54688,0.55078 C 23.023242,22.070382 22.763847,22.000313 22.499684,22 c -0.828427,0 -1.5,0.671573 -1.5,1.5 0.0013,0.26368 0.07199,0.522371 0.20508,0.75 -0.229361,0.131078 -0.420037,0.320405 -0.55274,0.54883 -0.414107,0.717338 -0.168409,1.634551 0.54883,2.04883 0.229536,0.131024 0.489617,0.199074 0.75391,0.19726 -0.0018,0.264293 0.06624,0.524374 0.19726,0.75391 0.414279,0.717239 1.331492,0.962937 2.04883,0.54883 0.229141,-0.132431 0.419164,-0.32313 0.55078,-0.55274 0.227057,0.132762 0.485032,0.203487 0.74805,0.20508 0.828427,0 1.5,-0.671573 1.5,-1.5 -3.13e-4,-0.264163 -0.07038,-0.523558 -0.20312,-0.75195 0.228394,-0.130814 0.418347,-0.319421 0.55078,-0.54688 0.414107,-0.717338 0.168409,-1.634551 -0.54883,-2.04883 -0.228387,-0.13036 -0.487031,-0.198386 -0.75,-0.19726 6.25e-4,-0.26465 -0.06878,-0.524754 -0.20117,-0.75391 -0.255089,-0.441666 -0.717125,-0.723449 -1.22657,-0.74805 z M 15.187184,21.5 c -4.54355,3.97718 -6.7206998,8.57379 -5.031249,11.5 0.013,0.0225 0.0296,0.0423 0.043,0.0644 -0.4217362,0.482125 -0.4907835,1.178857 -0.17188,1.73438 0.414279,0.717238 1.331491,0.962937 2.048829,0.54883 0.172927,-0.09931 0.324315,-0.232113 0.44531,-0.39063 1.19519,0.49146 2.69133,0.6934 4.38477,0.60547 -0.12216,-0.29576 -0.23239,-0.62691 -0.34375,-0.9375 -1.46045,0.054 -2.7367,-0.13396 -3.73633,-0.57227 6.23e-4,-0.264646 -0.06878,-0.524746 -0.20117,-0.7539 -0.319145,-0.549391 -0.9498,-0.838118 -1.57422,-0.72071 -0.0163,-0.0266 -0.0351,-0.051 -0.0508,-0.0781 -1.3705296,-2.37381 0.37835,-6.10874 4.0625,-9.5625 0.03,-0.48858 0.0742,-0.96273 0.125,-1.4375 z m 8.60938,2.74609 c 0.229725,0.132725 0.490542,0.202145 0.75585,0.20118 -9.65e-4,0.265308 0.06846,0.526125 0.20118,0.75585 -0.228895,0.131892 -0.418898,0.321895 -0.55079,0.55079 -0.22858,-0.13206 -0.487964,-0.201456 -0.75195,-0.20118 3.76e-4,-0.265486 -0.06972,-0.526315 -0.20312,-0.75585 0.228176,-0.132165 0.417479,-0.322145 0.54883,-0.55079 z m 5.82812,5.47266 c -0.67448,0.46344 -1.38463,0.9163 -2.125,1.34375 -2.71322,1.56648 -5.47067,2.61715 -7.9375,3.15625 0.12157,0.31343 0.24273,0.6193 0.375,0.90625 2.54321,-0.55603 5.32673,-1.608 8.0625,-3.1875 0.46586,-0.26897 0.93391,-0.55915 1.375,-0.84375 0.0968,-0.44372 0.17381,-0.90648 0.25,-1.375 z"
     style="color:#000000;display:inline;overflow:visible;visibility:visible;fill:#000000;fill-opacity:1;fill-rule:evenodd;stroke:none;stroke-width:3;marker:none;enable-background:new;opacity:0.2"
     id="path11549" />
  <path
     id="path3879"
     style="color:#000000;display:inline;overflow:visible;visibility:visible;fill:#ffffff;fill-opacity:1;fill-rule:evenodd;stroke:none;stroke-width:3;marker:none;enable-background:new"
     d="m 22.499684,7 c -0.828427,0 -1.5,0.6715729 -1.5,1.5 6.71e-4,0.197907 0.0405,0.3937249 0.11719,0.57617 -1.22888,0.95052 -2.31144,2.48926 -3.16016,4.44531 -0.73563,-0.0869 -1.44454,-0.12936 -2.11328,-0.11523 -2.66813,0.0564 -4.721,0.91973 -5.687499,2.59375 -1.0916803,1.89085 -0.5781103,4.48809 1.156249,7.15625 0.20631,-0.26834 0.39827,-0.54633 0.625,-0.8125 -1.387989,-2.22366 -1.820879,-4.3137 -0.9375,-5.84375 0.99825,-1.72903 3.45631,-2.39033 6.58398,-2.05859 -0.99508,2.6671 -1.58398,5.9749 -1.58398,9.55859 0,1.02918 0.0497,2.03465 0.14258,3.00977 -0.86216,-0.72859 -1.64499,-1.47601 -2.33008,-2.22852 -0.20987,0.2638 -0.41207,0.52186 -0.59375,0.78125 0.89406,0.98023 1.93231,1.94774 3.0957,2.87109 0.96158,6.67865 4.0368,11.56641 7.68555,11.56641 2.41596,0 4.58001,-2.14513 6.04688,-5.53125 3.65832,0.42125 6.58937,-0.37731 7.79687,-2.46875 0.015,-0.0261 0.0266,-0.0538 0.041,-0.0801 0.628472,0.124064 1.266372,-0.164678 1.58789,-0.71875 0.414107,-0.717338 0.168409,-1.634551 -0.54883,-2.04883 -0.173748,-0.09955 -0.365671,-0.163303 -0.56445,-0.1875 -0.17048,-1.28905 -0.74444,-2.69431 -1.67188,-4.12109 -0.20631,0.26834 -0.39827,0.54633 -0.625,0.8125 0.76872,1.23155 1.24184,2.42091 1.36328,3.49805 -0.228393,0.130811 -0.418345,0.319415 -0.55078,0.54687 -0.316895,0.551137 -0.251939,1.242181 0.16211,1.72461 -0.0133,0.0244 -0.0232,0.0501 -0.0371,0.0742 -0.99825,1.72903 -3.45631,2.39033 -6.58398,2.05859 0.99509,-2.66706 1.58399,-5.97486 1.58399,-9.55855 0,-1.02918 -0.0497,-2.03465 -0.14258,-3.00977 0.86216,0.72859 1.64499,1.47601 2.33008,2.22852 0.20987,-0.2638 0.41207,-0.52186 0.59375,-0.78125 -0.89406,-0.98023 -1.93231,-1.94774 -3.0957,-2.87109 C 30.723654,12.88776 27.648434,8 23.999684,8 c -0.0281,0 -0.0559,0.003 -0.084,0.004 C 23.704927,7.4024834 23.137054,6.9998391 22.499684,7 Z m 1.5,2 c 2.99512,0 5.5435,4.03875 6.54297,9.70703 -0.79985,-0.57385 -1.64564,-1.12645 -2.54297,-1.64453 -0.4659,-0.26899 -0.93919,-0.51029 -1.40625,-0.75 -0.43092,0.13832 -0.87064,0.30056 -1.3125,0.46875 0.73851,0.35237 1.47846,0.72885 2.21875,1.15625 1.17213,0.67673 2.25721,1.40611 3.25391,2.16602 0.15604,1.24438 0.24609,2.54653 0.24609,3.89648 0,3.57265 -0.58356,6.85137 -1.55664,9.42773 -0.88119,-0.14441 -1.80336,-0.35835 -2.75586,-0.64648 -0.44598,0.21968 -0.89934,0.40083 -1.34375,0.59375 1.28768,0.44069 2.53814,0.75497 3.72852,0.95508 C 27.796634,37.20504 25.996884,39 23.999684,39 c -2.99512,0 -5.5435,-4.03875 -6.54297,-9.70703 0.79985,0.57385 1.64564,1.12645 2.54297,1.64453 0.4659,0.26899 0.93919,0.51029 1.40625,0.75 0.43092,-0.13832 0.87064,-0.30056 1.3125,-0.46875 -0.73851,-0.35237 -1.47846,-0.72885 -2.21875,-1.15625 -1.17213,-0.67673 -2.25721,-1.40611 -3.25391,-2.16602 -0.15604,-1.24438 -0.24609,-2.54653 -0.24609,-3.89648 0,-3.57265 0.58356,-6.85137 1.55664,-9.42773 0.88119,0.14441 1.80336,0.35835 2.75586,0.64648 0.44598,-0.21968 0.89934,-0.40083 1.34375,-0.59375 -1.28425,-0.43952 -2.53504,-0.76128 -3.72461,-0.96484 0.77192,-1.7371 1.73485,-3.07748 2.81836,-3.86524 0.227629,0.1330925 0.48632,0.2038289 0.75,0.20508 0.631951,-0.00166 1.195082,-0.3992065 1.4082,-0.99414 C 23.938664,9.00501 23.968804,9 23.999684,9 Z m 8.15625,4.40625 c -0.34107,-0.007 -0.70308,0.0127 -1.0625,0.0312 0.12216,0.29576 0.23239,0.62691 0.34375,0.9375 2.63614,-0.0974 4.67533,0.58838 5.5625,2.125 1.37053,2.37381 -0.37835,6.10874 -4.0625,9.5625 -0.03,0.48858 -0.0742,0.96273 -0.125,1.4375 4.54355,-3.97718 6.7207,-8.57379 5.03125,-11.5 -0.9665,-1.67402 -3.01937,-2.53739 -5.6875,-2.59375 z m -4.09375,0.46875 c -2.54321,0.55603 -5.32673,1.608 -8.0625,3.1875 -0.46586,0.26897 -0.93391,0.55915 -1.375,0.84375 -0.0968,0.44372 -0.17381,0.90648 -0.25,1.375 0.67448,-0.46344 1.38463,-0.9163 2.125,-1.34375 2.71322,-1.56648 5.47067,-2.61715 7.9375,-3.15625 -0.12157,-0.31343 -0.24273,-0.6193 -0.375,-0.90625 z m -3.44141,6.57812 c -0.287525,-0.01387 -0.572967,0.05529 -0.82226,0.19922 -0.227459,0.132433 -0.416066,0.322386 -0.54688,0.55078 C 23.023242,21.070382 22.763847,21.000313 22.499684,21 c -0.828427,0 -1.5,0.671573 -1.5,1.5 0.0013,0.26368 0.07199,0.522371 0.20508,0.75 -0.229361,0.131078 -0.420037,0.320405 -0.55274,0.54883 -0.414107,0.717338 -0.168409,1.634551 0.54883,2.04883 0.229536,0.131024 0.489617,0.199074 0.75391,0.19726 -0.0018,0.264293 0.06624,0.524374 0.19726,0.75391 0.414279,0.717239 1.331492,0.962937 2.04883,0.54883 0.229141,-0.132431 0.419164,-0.32313 0.55078,-0.55274 0.227057,0.132762 0.485032,0.203487 0.74805,0.20508 0.828427,0 1.5,-0.671573 1.5,-1.5 -3.13e-4,-0.264163 -0.07038,-0.523558 -0.20312,-0.75195 0.228394,-0.130814 0.418347,-0.319421 0.55078,-0.54688 0.414107,-0.717338 0.168409,-1.634551 -0.54883,-2.04883 -0.228387,-0.130359 -0.487031,-0.198386 -0.75,-0.19726 6.25e-4,-0.26465 -0.06878,-0.524754 -0.20117,-0.75391 -0.255089,-0.441666 -0.717125,-0.723449 -1.22657,-0.74805 z M 15.187184,20.5 c -4.54355,3.97718 -6.7206998,8.57379 -5.031249,11.5 0.013,0.0225 0.0296,0.0423 0.043,0.0644 -0.4217362,0.482125 -0.4907835,1.178856 -0.17188,1.73438 0.414279,0.717238 1.331491,0.962936 2.048829,0.54883 0.172927,-0.09932 0.324315,-0.232114 0.44531,-0.39063 1.19519,0.49146 2.69133,0.6934 4.38477,0.60547 -0.12216,-0.29576 -0.23239,-0.62691 -0.34375,-0.9375 -1.46045,0.054 -2.7367,-0.13396 -3.73633,-0.57227 6.23e-4,-0.264646 -0.06878,-0.524746 -0.20117,-0.7539 -0.319145,-0.549392 -0.9498,-0.838118 -1.57422,-0.72071 -0.0163,-0.0266 -0.0351,-0.051 -0.0508,-0.0781 -1.3705296,-2.37381 0.37835,-6.10874 4.0625,-9.5625 0.03,-0.48858 0.0742,-0.96273 0.125,-1.4375 z m 8.60938,2.74609 c 0.229725,0.132725 0.490542,0.202145 0.75585,0.20118 -9.65e-4,0.265308 0.06846,0.526125 0.20118,0.75585 -0.228895,0.131892 -0.418898,0.321895 -0.55079,0.55079 -0.22858,-0.13206 -0.487964,-0.201456 -0.75195,-0.20118 3.76e-4,-0.265486 -0.06972,-0.526315 -0.20312,-0.75585 0.228176,-0.132165 0.417479,-0.322145 0.54883,-0.55079 z m 5.82812,5.47266 c -0.67448,0.46344 -1.38463,0.9163 -2.125,1.34375 -2.71322,1.56648 -5.47067,2.61715 -7.9375,3.15625 0.12157,0.31343 0.24273,0.6193 0.375,0.90625 2.54321,-0.55603 5.32673,-1.608 8.0625,-3.1875 0.46586,-0.26897 0.93391,-0.55915 1.375,-0.84375 0.0968,-0.44372 0.17381,-0.90648 0.25,-1.375 z"
     sodipodi:nodetypes="ccccccccccsccccscccccccccccccsccccsccscsccccsccccscsccccscccccccscccsccscccscccccccccccccccccccccccccccccccccccccccccccccccccccscc" />
  <path
     id="rect2630"
     style="fill:#ffffff;fill-opacity:1;opacity:0.3"
     d="M 10,4 C 6.6760035,4 4.0000002,6.6760033 4.0000002,10 v 1 C 4.0000002,7.6760032 6.6760035,5 10,5 h 28 c 3.323997,0 6,2.6760032 6,6 V 10 C 44,6.6760033 41.323997,4 38,4 Z" />
  <path
     id="rect398"
     style="opacity:0.3;fill:#ffffff"
     d="m 4.0000001,37 v 1 c 0,3.323996 2.6760033,6 5.9999999,6 h 28 c 3.323997,0 6,-2.676004 6,-6 v -1 c 0,3.323996 -2.676003,6 -6,6 H 10 C 6.6760034,43 4.0000001,40.323996 4.0000001,37 Z" />
  <path
     id="rect899"
     style="opacity:0.5;fill:#000000;stroke:none"
     d="M 10,3 C 6.1220039,3 3,6.1220039 3,10 v 28 c 0,3.877996 3.1220039,7 7,7 h 28 c 3.877996,0 7,-3.122004 7,-7 V 10 C 45,6.1220039 41.877996,3 38,3 Z m 0,1 h 28 c 3.323997,0 6,2.6760033 6,6 v 28 c 0,3.323997 -2.676003,6 -6,6 H 10 C 6.6760033,44 4,41.323997 4,38 V 10 C 4,6.6760033 6.6760033,4 10,4 Z" />
</svg>
