<?xml version="1.0" encoding="UTF-8" standalone="no"?>
<!-- Created with Inkscape (http://www.inkscape.org/) -->

<svg
   width="48"
   height="48"
   viewBox="0 0 48 48.000002"
   version="1.1"
   id="svg5"
   sodipodi:docname="applications-utilities.svg"
   inkscape:version="1.2.1 (9c6d41e410, 2022-07-14)"
   xmlns:inkscape="http://www.inkscape.org/namespaces/inkscape"
   xmlns:sodipodi="http://sodipodi.sourceforge.net/DTD/sodipodi-0.dtd"
   xmlns:xlink="http://www.w3.org/1999/xlink"
   xmlns="http://www.w3.org/2000/svg"
   xmlns:svg="http://www.w3.org/2000/svg">
  <sodipodi:namedview
     id="namedview7"
     pagecolor="#ffffff"
     bordercolor="#666666"
     borderopacity="1.0"
     inkscape:showpageshadow="2"
     inkscape:pageopacity="0.0"
     inkscape:pagecheckerboard="0"
     inkscape:deskcolor="#d1d1d1"
     inkscape:document-units="px"
     showgrid="false"
     inkscape:zoom="16.5625"
     inkscape:cx="24.060377"
     inkscape:cy="24.060377"
     inkscape:window-width="1920"
     inkscape:window-height="1007"
     inkscape:window-x="0"
     inkscape:window-y="0"
     inkscape:window-maximized="1"
     inkscape:current-layer="svg5" />
  <defs
     id="defs2">
    <linearGradient
       inkscape:collect="always"
       xlink:href="#linearGradient22024"
       id="linearGradient6478"
       x1="23.5"
       y1="44.5"
       x2="23.5"
       y2="2.5"
       gradientUnits="userSpaceOnUse"
       gradientTransform="translate(0.5,0.5)" />
    <linearGradient
       inkscape:collect="always"
       id="linearGradient22024">
      <stop
         style="stop-color:#cdcdcd;stop-opacity:1;"
         offset="0"
         id="stop22020" />
      <stop
         style="stop-color:#eff0f1;stop-opacity:1;"
         offset="1"
         id="stop22022" />
    </linearGradient>
  </defs>
  <rect
     style="fill:url(#linearGradient6478);fill-opacity:1.0;stroke:none"
     id="rect184"
     width="41"
     height="41"
     x="3.5"
     y="3.5"
     ry="6.5" />
  <path
     d="m 23.805158,11.955016 c 0,0 -0.294525,0.09801 -0.996545,0.566628 -0.858494,0.57297 -1.341855,0.46872 -1.909324,0.311167 l -0.004,0.004 c -0.104609,-0.0618 -0.211038,-0.12061 -0.319467,-0.174614 l 4.8e-4,-0.004 c -0.441278,-0.389854 -0.79181,-0.738864 -0.778869,-1.770952 0.01,-0.843652 -0.06741,-1.1444588 -0.06741,-1.1444588 -0.300385,-0.169815 -0.728162,-0.214858 -0.728162,-0.214858 0,0 -0.427917,-0.045004 -0.756825,0.0588 0,0 -0.139012,0.277723 -0.304026,1.1053148 -0.201897,1.012187 -0.617533,1.28053 -1.130037,1.570315 l -0.0014,0.006 c -0.11721,0.0304 -0.23306,0.06581 -0.34879,0.104409 l -0.004,-0.004 c -0.587806,0.0362 -1.082449,0.0374 -1.803111,-0.701481 -0.58899,-0.604071 -0.856933,-0.761445 -0.856933,-0.761445 -0.331729,0.09161 -0.665937,0.362271 -0.665937,0.362271 0,0 -0.334349,0.270783 -0.493543,0.57683 0,0 0.09801,0.294865 0.566569,0.996585 0.57293,0.858473 0.468761,1.342255 0.311267,1.909483 l 0.004,0.004 c -0.06161,0.104809 -0.120411,0.211098 -0.174815,0.319327 l -0.004,-4.2e-4 c -0.389774,0.441379 -0.738784,0.791889 -1.770812,0.779068 -0.843612,-0.01 -1.144658,0.06781 -1.144658,0.06781 -0.169814,0.300507 -0.214758,0.727684 -0.214758,0.727684 0,0 -0.046,0.428036 0.0588,0.756964 0,0 0.277643,0.139212 1.105234,0.303946 1.012107,0.201998 1.28009,0.617853 1.570115,1.130217 l 0.004,4.2e-4 c 0.0306,0.117409 0.06601,0.23328 0.104409,0.34883 l -0.004,0.004 c 0.0366,0.587771 0.0376,1.082313 -0.7013,1.802895 -0.604052,0.58915 -0.761486,0.857513 -0.761486,0.857513 0.09261,0.332489 0.362872,0.666358 0.362872,0.666358 0,0 0.270883,0.334489 0.576849,0.493563 0,0 0.294685,-0.09781 0.996445,-0.566529 0.858534,-0.572849 1.342136,-0.46832 1.909464,-0.311207 l 0.004,-0.004 c 0.105409,0.0618 0.211078,0.12061 0.319507,0.174615 l -0.0014,0.006 c 0.441419,0.389834 0.791889,0.738784 0.779067,1.770772 -0.01,0.843672 0.06761,1.14478 0.06761,1.14478 0.300546,0.169615 0.727803,0.214678 0.727803,0.214678 0,0 0.428116,0.045 0.756864,-0.059 0,0 0.139012,-0.277383 0.304006,-1.105116 0.202298,-1.012087 0.618013,-1.28019 1.130097,-1.570195 l -2e-4,-0.006 c 0.11721,-0.0304 0.2332,-0.06601 0.34883,-0.104409 l 0.004,0.004 c 0.587753,-0.0364 1.082315,-0.0376 1.802957,0.70136 0.58901,0.604052 0.857333,0.761586 0.857333,0.761586 0.332569,-0.09261 0.666457,-0.363052 0.666457,-0.363052 0,0 0.334509,-0.270843 0.493602,-0.576849 0,0 -0.09781,-0.294745 -0.566648,-0.996525 -0.572949,-0.858474 -0.46834,-1.342155 -0.311147,-1.909364 l -0.004,-0.004 c 0.06161,-0.105209 0.12041,-0.211138 0.174615,-0.319467 l 0.006,6.4e-4 c 0.389854,-0.441298 0.738844,-0.791808 1.770872,-0.778987 0.843752,0.01 1.144878,-0.06781 1.144878,-0.06781 0.169615,-0.300546 0.214558,-0.727923 0.214558,-0.727923 0,0 0.0458,-0.427836 -0.0588,-0.756945 0,0 -0.277783,-0.139212 -1.105374,-0.304026 -1.012247,-0.201917 -1.28041,-0.617533 -1.570335,-1.130037 l -0.004,-4.2e-4 c -0.0304,-0.11721 -0.06561,-0.23324 -0.104609,-0.348809 l 0.004,-0.004 c -0.0364,-0.587551 -0.0378,-1.082293 0.7013,-1.802935 0.604092,-0.58903 0.761686,-0.857213 0.761686,-0.857213 -0.09241,-0.332409 -0.363092,-0.666637 -0.363092,-0.666637 0,0 -0.270843,-0.334469 -0.576849,-0.493563 z m -3.286181,8.436763 c -1.60608,1.300591 -3.962281,1.05297 -5.262893,-0.553107 -1.300591,-1.606097 -1.05293,-3.962319 0.553088,-5.262932 1.606057,-1.300551 3.962299,-1.05293 5.262892,0.553168 1.300591,1.606097 1.05291,3.96232 -0.553107,5.262891 z m 12.133178,1.552893 c 0,0 -0.316287,0.2247 -0.984164,1.04153 -0.81681,0.998666 -1.432742,1.05067 -2.168625,1.069731 l -0.004,0.006 c -0.147412,-0.0356 -0.296305,-0.067 -0.445698,-0.09201 l -0.0011,-0.006 C 28.378591,23.659176 27.832024,23.370111 27.470333,22.131645 27.174508,21.119338 26.97131,20.78829 26.97131,20.78829 c -0.421156,-0.09321 -0.948941,0.01 -0.948941,0.01 0,0 -0.527925,0.102609 -0.883156,0.34693 0,0 -0.0648,0.382812 0.041,1.432362 0.128611,1.28369 -0.270203,1.756392 -0.776967,2.290076 l 4.2e-4,0.008 c -0.128811,0.07901 -0.254561,0.163814 -0.378792,0.252264 l -0.004,-0.004 c -0.689339,0.258122 -1.28023,0.440298 -2.411687,-0.179615 -0.924839,-0.506824 -1.302611,-0.59701 -1.302611,-0.59701 -0.363074,0.230758 -0.663659,0.67642 -0.663659,0.67642 0,0 -0.300726,0.445858 -0.379153,0.869874 0,0 0.22496,0.316627 1.041431,0.984224 0.998626,0.81679 1.05089,1.433163 1.069952,2.168766 l 0.006,0.004 c -0.0354,0.147813 -0.06681,0.296366 -0.09201,0.445559 l -0.004,7.6e-4 c -0.304606,0.670057 -0.59375,1.216604 -1.832078,1.578435 -1.012307,0.295585 -1.343496,0.499342 -1.343496,0.499342 -0.09321,0.421257 0.008,0.948322 0.008,0.948322 0,0 0.102809,0.528145 0.34695,0.883355 0,0 0.382773,0.06501 1.432242,-0.0406 1.283652,-0.128411 1.755953,0.270743 2.289919,0.777186 l 0.006,-0.0011 c 0.07921,0.12901 0.164014,0.254762 0.252142,0.378853 l -0.004,0.006 c 0.258662,0.689218 0.440318,1.280069 -0.179415,2.411407 -0.506763,0.925019 -0.596871,1.303331 -0.596871,1.303331 0.23206,0.36365 0.677298,0.663916 0.677298,0.663916 0,0 0.446038,0.300846 0.869874,0.379172 0,0 0.316587,-0.224559 0.984085,-1.041349 0.816909,-0.998545 1.433222,-1.05031 2.168765,-1.069851 l 0.004,-0.006 c 0.148412,0.0354 0.296465,0.06701 0.445758,0.09201 l 4.2e-4,0.008 c 0.670137,0.304666 1.216624,0.593711 1.578415,1.831997 0.295625,1.012386 0.499343,1.343675 0.499343,1.343675 0.421236,0.09281 0.948461,-0.01 0.948461,-0.01 0,0 0.528145,-0.102809 0.883135,-0.34725 0,0 0.06481,-0.382373 -0.039,-1.432144 -0.128211,-1.283669 0.270863,-1.75613 0.777047,-2.289956 l -0.002,-0.006 c 0.129011,-0.07901 0.254602,-0.164214 0.378793,-0.252302 l 0.006,0.004 c 0.689199,-0.258422 1.27999,-0.440418 2.411487,0.179415 0.924859,0.506783 1.303091,0.597031 1.303091,0.597031 0.363692,-0.2323 0.664017,-0.677537 0.664017,-0.677537 0,0 0.300846,-0.445999 0.379213,-0.869934 0,0 -0.22456,-0.316587 -1.041529,-0.984125 -0.998646,-0.81679 -1.05039,-1.433182 -1.069732,-2.168665 l -0.004,-0.004 c 0.0354,-0.148412 0.067,-0.296444 0.09181,-0.445658 l 0.006,-0.0011 c 0.304706,-0.669977 0.593771,-1.216504 1.832117,-1.578335 1.012466,-0.295625 1.343795,-0.499363 1.343795,-0.499363 0.09281,-0.421236 -0.01,-0.948481 -0.01,-0.948481 0,0 -0.102609,-0.527945 -0.34693,-0.883336 0,0 -0.382872,-0.0648 -1.432422,0.0406 -1.28373,0.128611 -1.756211,-0.270243 -2.290076,-0.776927 l -0.006,0.0011 c -0.07921,-0.129011 -0.163614,-0.254822 -0.252542,-0.378733 l 0.004,-0.006 c -0.258022,-0.689059 -0.440538,-1.27995 0.179415,-2.411469 0.506804,-0.924838 0.597211,-1.303031 0.597211,-1.303031 -0.23204,-0.363552 -0.677638,-0.664177 -0.677638,-0.664177 0,0 -0.446018,-0.300806 -0.869954,-0.379173 z M 31.807263,33.23062 c -1.444544,2.141624 -4.351592,2.706732 -6.493216,1.262188 -2.141603,-1.444562 -2.706671,-4.351592 -1.262148,-6.493236 1.444524,-2.141583 4.351573,-2.70669 6.493216,-1.262128 2.141623,1.444544 2.706692,4.351594 1.262148,6.493176 z"
     style="display:inline;opacity:0.5;fill:#ffffff;fill-opacity:1;stroke:none;stroke-width:2.00017;enable-background:new"
     id="path1559" />
  <path
     d="m 23.805158,10.954794 c 0,0 -0.294525,0.09801 -0.996545,0.566629 -0.858494,0.572969 -1.341855,0.46872 -1.909324,0.311166 l -0.004,0.004 c -0.104609,-0.0618 -0.211038,-0.12061 -0.319467,-0.174614 l 4.8e-4,-0.004 c -0.441278,-0.389854 -0.79181,-0.738864 -0.778868,-1.7709528 0.01,-0.8436523 -0.06741,-1.144458 -0.06741,-1.144458 -0.300386,-0.1698146 -0.728163,-0.2148584 -0.728163,-0.2148584 0,0 -0.427916,-0.045004 -0.756824,0.058805 0,0 -0.139012,0.2777238 -0.304026,1.1053144 -0.201898,1.0121878 -0.617533,1.2805308 -1.130037,1.5703158 l -0.0014,0.006 c -0.11721,0.0304 -0.23306,0.06581 -0.34879,0.104409 l -0.004,-0.004 c -0.587807,0.0362 -1.082449,0.0374 -1.803111,-0.70148 -0.58899,-0.604072 -0.856933,-0.7614468 -0.856933,-0.7614468 -0.331729,0.09161 -0.665938,0.3622718 -0.665938,0.3622718 0,0 -0.334348,0.270784 -0.493542,0.57683 0,0 0.09801,0.294865 0.566569,0.996585 0.572929,0.858474 0.46876,1.342255 0.311266,1.909483 l 0.004,0.004 c -0.06161,0.104809 -0.12041,0.211098 -0.174815,0.319328 l -0.004,-4.2e-4 c -0.389773,0.441378 -0.738783,0.791888 -1.770811,0.779067 -0.843613,-0.01 -1.144658,0.06781 -1.144658,0.06781 -0.169815,0.300505 -0.214759,0.727682 -0.214759,0.727682 0,0 -0.046,0.428037 0.0588,0.756965 0,0 0.277644,0.139212 1.105235,0.303946 1.012106,0.201997 1.280089,0.617853 1.570114,1.130217 l 0.004,4.2e-4 c 0.0306,0.11741 0.06601,0.23328 0.104409,0.34883 l -0.004,0.004 c 0.0366,0.587771 0.0376,1.082312 -0.7013,1.802894 -0.604051,0.589151 -0.761485,0.857514 -0.761485,0.857514 0.09261,0.332488 0.362871,0.666357 0.362871,0.666357 0,0 0.270883,0.33449 0.576849,0.493563 0,0 0.294686,-0.09781 0.996446,-0.566529 0.858534,-0.572849 1.342135,-0.46832 1.909464,-0.311207 l 0.004,-0.004 c 0.105409,0.0618 0.211078,0.12061 0.319507,0.174616 l -0.0014,0.006 c 0.441418,0.389834 0.791888,0.738783 0.779067,1.770772 -0.01,0.843672 0.06761,1.144778 0.06761,1.144778 0.300546,0.169613 0.727802,0.214677 0.727802,0.214677 0,0 0.428117,0.045 0.756865,-0.059 0,0 0.139012,-0.277384 0.304006,-1.105114 0.202297,-1.012087 0.618013,-1.28019 1.130097,-1.570195 l -2e-4,-0.006 c 0.11721,-0.0304 0.2332,-0.06601 0.34883,-0.104409 l 0.004,0.004 c 0.587752,-0.0364 1.082314,-0.0376 1.802956,0.70136 0.58901,0.604052 0.857333,0.761585 0.857333,0.761585 0.332569,-0.09261 0.666457,-0.363051 0.666457,-0.363051 0,0 0.334509,-0.270842 0.493602,-0.576848 0,0 -0.09781,-0.294745 -0.566648,-0.996526 -0.572949,-0.858473 -0.46834,-1.342156 -0.311147,-1.909364 l -0.004,-0.004 c 0.06161,-0.105208 0.12041,-0.211137 0.174615,-0.319466 l 0.006,6.4e-4 c 0.389854,-0.441298 0.738844,-0.791808 1.770872,-0.778987 0.843752,0.01 1.144878,-0.06781 1.144878,-0.06781 0.169615,-0.300546 0.214558,-0.727922 0.214558,-0.727922 0,0 0.0458,-0.427837 -0.0588,-0.756945 0,0 -0.277783,-0.139212 -1.105374,-0.304026 -1.012247,-0.201917 -1.28041,-0.617533 -1.570335,-1.130037 l -0.004,-4.2e-4 c -0.0304,-0.11721 -0.06561,-0.23324 -0.104609,-0.34881 l 0.004,-0.004 c -0.0364,-0.58755 -0.0378,-1.082293 0.7013,-1.802934 0.604092,-0.589036 0.761686,-0.857219 0.761686,-0.857219 -0.09241,-0.332408 -0.363092,-0.666637 -0.363092,-0.666637 0,0 -0.270843,-0.334468 -0.576849,-0.493562 z m -3.286181,8.436762 c -1.606079,1.300592 -3.962281,1.052972 -5.262892,-0.553106 -1.300592,-1.606098 -1.05293,-3.96232 0.553087,-5.262932 1.606058,-1.300551 3.962299,-1.052929 5.262892,0.553168 1.300591,1.606098 1.05291,3.96232 -0.553107,5.26289 z m 12.133178,1.552894 c 0,0 -0.316287,0.224699 -0.984164,1.041529 -0.81681,0.998665 -1.432742,1.05067 -2.168625,1.069732 l -0.004,0.006 c -0.147412,-0.0356 -0.296305,-0.06701 -0.445698,-0.09201 l -0.0011,-0.006 c -0.669977,-0.304746 -1.216544,-0.59381 -1.578235,-1.832277 -0.295825,-1.012307 -0.499023,-1.343356 -0.499023,-1.343356 -0.421156,-0.09321 -0.948941,0.01 -0.948941,0.01 0,0 -0.527925,0.102608 -0.883156,0.34693 0,0 -0.0648,0.382812 0.041,1.432362 0.128611,1.28369 -0.270203,1.75639 -0.776967,2.290076 l 4.2e-4,0.008 c -0.128811,0.07901 -0.254561,0.163814 -0.378792,0.252261 l -0.004,-0.004 c -0.689339,0.258122 -1.28023,0.440298 -2.411687,-0.179615 -0.924839,-0.506824 -1.302611,-0.597012 -1.302611,-0.597012 -0.363073,0.23076 -0.663659,0.676419 -0.663659,0.676419 0,0 -0.300725,0.445858 -0.379152,0.869875 0,0 0.224959,0.316627 1.04143,0.984224 0.998626,0.81679 1.05089,1.433163 1.069952,2.168766 l 0.006,0.004 c -0.0354,0.147813 -0.06681,0.296365 -0.09201,0.445558 l -0.004,7.6e-4 c -0.304606,0.670058 -0.59375,1.216604 -1.832078,1.578435 -1.012307,0.295586 -1.343495,0.499343 -1.343495,0.499343 -0.09321,0.421256 0.008,0.948321 0.008,0.948321 0,0 0.102809,0.528146 0.346949,0.883356 0,0 0.382773,0.06501 1.432243,-0.0406 1.283651,-0.128411 1.755952,0.270743 2.289918,0.777186 l 0.006,-0.0011 c 0.07921,0.129011 0.164014,0.254762 0.252142,0.378852 l -0.004,0.006 c 0.258662,0.689219 0.440318,1.280069 -0.179415,2.411406 -0.506763,0.92502 -0.596871,1.303332 -0.596871,1.303332 0.23206,0.363651 0.677298,0.663917 0.677298,0.663917 0,0 0.446038,0.300846 0.869874,0.379172 0,0 0.316587,-0.224559 0.984085,-1.041349 0.816909,-0.998545 1.433222,-1.05031 2.168765,-1.069852 l 0.004,-0.006 c 0.148412,0.0354 0.296465,0.06701 0.445758,0.09201 l 4.2e-4,0.008 c 0.670137,0.304666 1.216624,0.59371 1.578415,1.831996 0.295625,1.012387 0.499343,1.343675 0.499343,1.343675 0.421236,0.09281 0.948461,-0.01 0.948461,-0.01 0,0 0.528145,-0.102809 0.883135,-0.34725 0,0 0.06481,-0.382373 -0.039,-1.432143 -0.128211,-1.28367 0.270863,-1.75613 0.777047,-2.289956 l -0.002,-0.006 c 0.129011,-0.07901 0.254602,-0.164214 0.378793,-0.252302 l 0.006,0.004 c 0.689199,-0.258422 1.27999,-0.440417 2.411487,0.179416 0.924859,0.506783 1.303091,0.597031 1.303091,0.597031 0.363692,-0.2323 0.664017,-0.677538 0.664017,-0.677538 0,0 0.300846,-0.445998 0.379213,-0.869935 0,0 -0.22456,-0.316587 -1.041529,-0.984124 -0.998646,-0.81679 -1.05039,-1.433183 -1.069732,-2.168666 l -0.004,-0.004 c 0.0354,-0.148413 0.067,-0.296445 0.09181,-0.445658 l 0.006,-0.0011 c 0.304706,-0.669977 0.593771,-1.216504 1.832117,-1.578335 1.012466,-0.295626 1.343795,-0.499363 1.343795,-0.499363 0.09281,-0.421236 -0.01,-0.948481 -0.01,-0.948481 0,0 -0.102609,-0.527945 -0.34693,-0.883336 0,0 -0.382872,-0.0648 -1.432422,0.0406 -1.28373,0.128611 -1.756211,-0.270243 -2.290076,-0.776927 l -0.006,0.0011 c -0.07921,-0.129011 -0.163614,-0.254822 -0.252542,-0.378732 l 0.004,-0.006 c -0.258022,-0.689059 -0.440538,-1.279949 0.179415,-2.411466 0.506804,-0.924839 0.597211,-1.303032 0.597211,-1.303032 -0.23204,-0.363551 -0.677638,-0.664177 -0.677638,-0.664177 0,0 -0.446018,-0.300805 -0.869954,-0.379172 z m -0.844892,11.285946 c -1.444544,2.141623 -4.351592,2.706732 -6.493216,1.262188 -2.141603,-1.444564 -2.706671,-4.351593 -1.262148,-6.493236 1.444524,-2.141583 4.351573,-2.706692 6.493216,-1.262128 2.141623,1.444544 2.706692,4.351593 1.262148,6.493176 z"
     style="display:inline;fill:#929292;fill-opacity:1;stroke:none;stroke-width:2.00017;enable-background:new"
     id="path443"
     sodipodi:nodetypes="cccccccccccccccccccccccccccccccccccccccccccccccccccccccccccccccccccccccccccccscccccccccccccccccccccccccccccccccccccccccccccccccccccccccccccccccccccccccccccccsc" />
  <path
     id="rect2630"
     style="fill:#ffffff;fill-opacity:1;opacity:0.3"
     d="M 10,4 C 6.6760035,4 4.0000002,6.6760033 4.0000002,10 v 1 C 4.0000002,7.6760032 6.6760035,5 10,5 h 28 c 3.323997,0 6,2.6760032 6,6 V 10 C 44,6.6760033 41.323997,4 38,4 Z" />
  <path
     id="rect398"
     style="opacity:0.3;fill:#ffffff"
     d="m 4.0000001,37 v 1 c 0,3.323996 2.6760033,6 5.9999999,6 h 28 c 3.323997,0 6,-2.676004 6,-6 v -1 c 0,3.323996 -2.676003,6 -6,6 H 10 C 6.6760034,43 4.0000001,40.323996 4.0000001,37 Z" />
  <path
     id="rect899"
     style="opacity:0.5;fill:#000000;stroke:none"
     d="M 10,3 C 6.1220039,3 3,6.1220039 3,10 v 28 c 0,3.877996 3.1220039,7 7,7 h 28 c 3.877996,0 7,-3.122004 7,-7 V 10 C 45,6.1220039 41.877996,3 38,3 Z m 0,1 h 28 c 3.323997,0 6,2.6760033 6,6 v 28 c 0,3.323997 -2.676003,6 -6,6 H 10 C 6.6760033,44 4,41.323997 4,38 V 10 C 4,6.6760033 6.6760033,4 10,4 Z" />
</svg>
