<?xml version="1.0" encoding="UTF-8" standalone="no"?>
<!-- Created with Inkscape (http://www.inkscape.org/) -->

<svg
   width="48"
   height="48"
   viewBox="0 0 48 48.000002"
   version="1.1"
   id="svg5"
   sodipodi:docname="applications-accessories.svg"
   inkscape:version="1.3.2 (091e20ef0f, 2023-11-25, custom)"
   xmlns:inkscape="http://www.inkscape.org/namespaces/inkscape"
   xmlns:sodipodi="http://sodipodi.sourceforge.net/DTD/sodipodi-0.dtd"
   xmlns:xlink="http://www.w3.org/1999/xlink"
   xmlns="http://www.w3.org/2000/svg"
   xmlns:svg="http://www.w3.org/2000/svg">
  <sodipodi:namedview
     id="namedview7"
     pagecolor="#ffffff"
     bordercolor="#666666"
     borderopacity="1.0"
     inkscape:showpageshadow="2"
     inkscape:pageopacity="0.0"
     inkscape:pagecheckerboard="0"
     inkscape:deskcolor="#d1d1d1"
     inkscape:document-units="px"
     showgrid="false"
     inkscape:zoom="17.604167"
     inkscape:cx="24"
     inkscape:cy="24"
     inkscape:window-width="1920"
     inkscape:window-height="1019"
     inkscape:window-x="0"
     inkscape:window-y="0"
     inkscape:window-maximized="1"
     inkscape:current-layer="svg5" />
  <defs
     id="defs2">
    <linearGradient
       inkscape:collect="always"
       xlink:href="#linearGradient2"
       id="linearGradient15179"
       x1="24"
       y1="45"
       x2="24"
       y2="3"
       gradientUnits="userSpaceOnUse" />
    <linearGradient
       inkscape:collect="always"
       id="linearGradient2">
      <stop
         style="stop-color:#2588d5;stop-opacity:1;"
         offset="0"
         id="stop1" />
      <stop
         style="stop-color:#95cbf5;stop-opacity:1;"
         offset="1"
         id="stop2" />
    </linearGradient>
  </defs>
  <rect
     style="fill:url(#linearGradient15179);fill-opacity:1;stroke:none"
     id="rect184"
     width="41"
     height="41"
     x="3.5"
     y="3.5"
     ry="6.5" />
  <path
     d="m 22.464576,10 c -0.1131,0.0129 -0.243195,0.04488 -0.354495,0.06153 -0.662835,1.223788 -2.44497,2.159961 -2.23827,3.612305 0.74826,3.860695 1.45452,7.758139 2.182605,11.645507 -0.833895,0.704989 -1.69857,1.723925 -2.52831,2.72168 -0.0699,-0.12066 -0.12885,-0.248142 -0.216795,-0.354492 -1.245705,-1.496132 -3.85791,-0.924506 -5.81544,1.286133 -1.958205,2.210487 -2.53881,5.237357 -1.29492,6.74121 1.244985,1.499188 3.85395,0.92584 5.8125,-1.286133 1.037595,-1.171214 1.66047,-2.580969 1.85742,-3.858398 l 2.03028,-1.535157 1.47363,-1.725586 0.30762,1.438477 0.78222,1.769531 c -0.980475,1.211925 -1.36485,3.243777 -0.84375,5.302735 0.722925,2.859882 2.893875,4.677465 4.848645,4.060547 1.956135,-0.62136 2.958735,-3.446201 2.235345,-6.304688 -0.67113,-2.654607 -2.58537,-4.418311 -4.420905,-4.163086 l -0.68847,-3.304688 c 2.49804,-2.966377 5.007045,-5.949634 7.50879,-8.882812 0.89109,-1.156424 -0.18654,-2.844753 -0.14655,-4.236327 -0.0864,-0.06978 -0.18291,-0.14592 -0.27246,-0.213869 -2.65131,3.083022 -5.270925,6.202085 -7.90137,9.319337 C 24.022686,18.062378 23.259036,14.012101 22.464576,10 Z m -5.08887,18.785157 c 0.28572,0.02667 0.512595,0.140865 0.66798,0.328125 0.55248,0.665803 0.18999,2.503465 -1.12794,3.990234 -1.315455,1.487488 -2.926305,1.857852 -3.47754,1.189452 -0.552195,-0.664199 -0.165945,-2.50919 1.15137,-3.996093 0.82215,-0.929669 1.762035,-1.433789 2.48145,-1.508789 0.10785,-0.01125 0.209445,-0.01185 0.30468,-0.003 z m 9.2754,2.51953 c 0.84306,0.05721 1.916805,1.124568 2.34081,2.806641 0.48666,1.922847 -0.1119,3.66743 -0.97851,3.94043 -0.867855,0.277035 -2.20185,-0.849147 -2.686515,-2.771484 -0.48735,-1.922969 0.1137,-3.663317 0.981435,-3.9375 0.10845,-0.03427 0.222345,-0.04626 0.34278,-0.03809 z"
     style="display:inline;opacity:0.2;fill:#000000;fill-opacity:1;stroke:none;stroke-width:1.5;enable-background:new"
     id="path1" />
  <path
     d="m 22.464576,9 c -0.1131,0.0129 -0.243195,0.04488 -0.354495,0.06153 -0.662835,1.223789 -2.44497,2.159961 -2.23827,3.612305 0.74826,3.860695 1.45452,7.758139 2.182605,11.645507 -0.833895,0.704989 -1.69857,1.723925 -2.52831,2.72168 -0.0699,-0.12066 -0.12885,-0.248142 -0.216795,-0.354492 -1.245705,-1.496132 -3.85791,-0.924506 -5.81544,1.286133 -1.958205,2.210487 -2.53881,5.237357 -1.29492,6.74121 1.244985,1.499188 3.85395,0.92584 5.8125,-1.286133 1.037595,-1.171214 1.66047,-2.580969 1.85742,-3.858398 l 2.03028,-1.535157 1.47363,-1.725586 0.30762,1.438477 0.78222,1.769531 c -0.980475,1.211925 -1.36485,3.243777 -0.84375,5.302735 0.722925,2.859882 2.893875,4.677465 4.848645,4.060547 1.956135,-0.62136 2.958735,-3.446201 2.235345,-6.304688 -0.67113,-2.654607 -2.58537,-4.418311 -4.420905,-4.163086 l -0.68847,-3.304688 c 2.49804,-2.966377 5.007045,-5.949634 7.50879,-8.882812 0.89109,-1.156424 -0.18654,-2.844753 -0.14655,-4.236327 -0.0864,-0.06978 -0.18291,-0.14592 -0.27246,-0.213869 -2.65131,3.083022 -5.270925,6.202085 -7.90137,9.319337 C 24.022686,17.062378 23.259036,13.012101 22.464576,9 Z m -5.08887,18.785157 c 0.28572,0.02667 0.512595,0.140865 0.66798,0.328125 0.55248,0.665803 0.18999,2.503465 -1.12794,3.990234 -1.315455,1.487488 -2.926305,1.857852 -3.47754,1.189452 -0.552195,-0.664199 -0.165945,-2.50919 1.15137,-3.996093 0.82215,-0.929669 1.762035,-1.433789 2.48145,-1.508789 0.10785,-0.01125 0.209445,-0.01185 0.30468,-0.003 z m 9.2754,2.51953 c 0.84306,0.05721 1.916805,1.124568 2.34081,2.806641 0.48666,1.922847 -0.1119,3.66743 -0.97851,3.94043 -0.867855,0.277035 -2.20185,-0.849147 -2.686515,-2.771484 -0.48735,-1.922969 0.1137,-3.663317 0.981435,-3.9375 0.10845,-0.03427 0.222345,-0.04626 0.34278,-0.03809 z"
     style="display:inline;fill:#ffffff;fill-opacity:1;stroke:none;stroke-width:1.5;enable-background:new"
     id="path1-6" />
  <path
     id="rect2630"
     style="fill:#ffffff;fill-opacity:1;opacity:0.2"
     d="M 10,4 C 6.6760035,4 4.0000002,6.6760033 4.0000002,10 v 1 C 4.0000002,7.6760032 6.6760035,5 10,5 h 28 c 3.323997,0 6,2.6760032 6,6 V 10 C 44,6.6760033 41.323997,4 38,4 Z" />
  <path
     id="rect398"
     style="opacity:0.2;fill:#ffffff"
     d="m 4.0000001,37 v 1 c 0,3.323996 2.6760033,6 5.9999999,6 h 28 c 3.323997,0 6,-2.676004 6,-6 v -1 c 0,3.323996 -2.676003,6 -6,6 H 10 C 6.6760034,43 4.0000001,40.323996 4.0000001,37 Z" />
  <path
     id="rect899"
     style="opacity:0.5;fill:#000000;stroke:none"
     d="M 10,3 C 6.1220039,3 3,6.1220039 3,10 v 28 c 0,3.877996 3.1220039,7 7,7 h 28 c 3.877996,0 7,-3.122004 7,-7 V 10 C 45,6.1220039 41.877996,3 38,3 Z m 0,1 h 28 c 3.323997,0 6,2.6760033 6,6 v 28 c 0,3.323997 -2.676003,6 -6,6 H 10 C 6.6760033,44 4,41.323997 4,38 V 10 C 4,6.6760033 6.6760033,4 10,4 Z" />
</svg>
