<?xml version="1.0" encoding="UTF-8" standalone="no"?>
<!-- Created with Inkscape (http://www.inkscape.org/) -->

<svg
   width="48"
   height="48"
   viewBox="0 0 48 48.000002"
   version="1.1"
   id="svg5"
   sodipodi:docname="baloo.svg"
   inkscape:version="1.2.1 (9c6d41e410, 2022-07-14)"
   xmlns:inkscape="http://www.inkscape.org/namespaces/inkscape"
   xmlns:sodipodi="http://sodipodi.sourceforge.net/DTD/sodipodi-0.dtd"
   xmlns:xlink="http://www.w3.org/1999/xlink"
   xmlns="http://www.w3.org/2000/svg"
   xmlns:svg="http://www.w3.org/2000/svg">
  <sodipodi:namedview
     id="namedview7"
     pagecolor="#ffffff"
     bordercolor="#666666"
     borderopacity="1.0"
     inkscape:showpageshadow="2"
     inkscape:pageopacity="0.0"
     inkscape:pagecheckerboard="0"
     inkscape:deskcolor="#d1d1d1"
     inkscape:document-units="px"
     showgrid="false"
     inkscape:zoom="17.104167"
     inkscape:cx="24"
     inkscape:cy="24"
     inkscape:window-width="1920"
     inkscape:window-height="1007"
     inkscape:window-x="0"
     inkscape:window-y="0"
     inkscape:window-maximized="1"
     inkscape:current-layer="svg5" />
  <defs
     id="defs2">
    <linearGradient
       inkscape:collect="always"
       xlink:href="#linearGradient1265"
       id="linearGradient6478"
       x1="37.5"
       y1="44.5"
       x2="9.5"
       y2="2.5"
       gradientUnits="userSpaceOnUse"
       gradientTransform="translate(0.5,0.5)" />
    <linearGradient
       inkscape:collect="always"
       id="linearGradient1265">
      <stop
         style="stop-color:#2d7ff3;stop-opacity:1;"
         offset="0"
         id="stop1261" />
      <stop
         style="stop-color:#2cdbfa;stop-opacity:1;"
         offset="1"
         id="stop1263" />
    </linearGradient>
  </defs>
  <rect
     style="fill:url(#linearGradient6478);fill-opacity:1.0;stroke:none"
     id="rect184"
     width="41"
     height="41"
     x="3.5"
     y="3.5"
     ry="6.5" />
  <path
     id="path4266"
     style="opacity:0.2;fill:#000000"
     d="M 19.808594 10.001953 C 19.61034 10.005338 19.411797 10.01315 19.212891 10.027344 C 16.573717 10.216822 14.091268 11.351259 12.220703 13.222656 C 7.9260474 17.518229 7.9260474 24.481771 12.220703 28.777344 C 16.24475 32.781432 22.65486 33.065724 27.017578 29.433594 L 36.261719 38.677734 C 36.653455 39.069471 37.284046 39.069471 37.675781 38.677734 C 38.067518 38.285999 38.067518 37.655408 37.675781 37.263672 L 28.451172 28.039062 C 32.090056 23.668205 31.797051 17.244113 27.775391 13.222656 C 25.660683 11.107196 22.7824 9.951187 19.808594 10.001953 z M 19.998047 12 C 22.384854 12.000361 24.673781 12.948809 26.361328 14.636719 C 29.875137 18.151278 29.875137 23.848722 26.361328 27.363281 C 22.846769 30.87709 17.149325 30.87709 13.634766 27.363281 C 10.120957 23.848722 10.120957 18.151278 13.634766 14.636719 C 15.322313 12.948809 17.611239 12.000361 19.998047 12 z M 20.107422 12.138672 C 19.741852 13.311871 19.673257 13.255767 19.560547 14.509766 C 18.978307 15.030665 18.900281 15.62316 18.925781 16.199219 C 18.953391 16.824729 19.384846 17.233019 19.890625 17.261719 C 20.518104 17.259719 20.883506 16.642439 20.941406 16.042969 C 21.009236 15.34014 20.888305 14.883214 20.384766 14.521484 C 20.371536 13.570485 20.332022 13.343571 20.107422 12.138672 z M 17.205078 13.322266 C 16.839508 14.495464 16.770913 14.43937 16.658203 15.693359 C 16.075964 16.214259 15.997938 16.806753 16.023438 17.382812 C 16.051047 18.008322 16.480539 18.416613 16.986328 18.445312 C 17.613807 18.443313 17.979209 17.826032 18.037109 17.226562 C 18.104939 16.523732 17.985961 16.064855 17.482422 15.703125 C 17.469192 14.752126 17.429678 14.527164 17.205078 13.322266 z M 22.849609 13.322266 C 22.62501 14.527164 22.585496 14.752125 22.572266 15.703125 C 22.068726 16.064854 21.949748 16.523733 22.017578 17.226562 C 22.075478 17.826032 22.44088 18.443313 23.068359 18.445312 C 23.574149 18.416613 24.00364 18.008322 24.03125 17.382812 C 24.05675 16.806753 23.978724 16.214259 23.396484 15.693359 C 23.283774 14.43937 23.215179 14.495464 22.849609 13.322266 z M 25.849609 15.322266 C 25.62501 16.527165 25.585496 16.752126 25.572266 17.703125 C 25.068726 18.064855 24.949748 18.523733 25.017578 19.226562 C 25.075478 19.826032 25.44088 20.443313 26.068359 20.445312 C 26.574149 20.416613 27.00364 20.008322 27.03125 19.382812 C 27.05675 18.806753 26.978724 18.214259 26.396484 17.693359 C 26.283774 16.43937 26.215179 16.495464 25.849609 15.322266 z M 14.185547 15.669922 C 13.819977 16.843122 13.751382 16.787017 13.638672 18.041016 C 13.056432 18.561913 12.978406 19.152456 13.003906 19.728516 C 13.031516 20.354026 13.462961 20.764269 13.96875 20.792969 C 14.596229 20.790969 14.961631 20.171735 15.019531 19.572266 C 15.087361 18.869436 14.96643 18.412509 14.462891 18.050781 C 14.449661 17.099782 14.410147 16.874822 14.185547 15.669922 z M 19.783203 18.771484 C 18.853614 18.787594 18.254503 19.290745 16.740234 20.515625 C 14.649316 21.794964 14.022087 22.501715 13.992188 24.376953 C 13.959088 26.450131 16.641433 27.118208 18.800781 26.199219 C 19.459021 25.919099 20.87842 25.895456 21.636719 26.228516 C 23.212387 26.738465 26.006281 26.40901 26.050781 24.138672 C 26.140321 22.236214 24.928369 21.698174 23.087891 20.515625 C 21.987422 19.445515 21.438745 18.844837 19.972656 18.773438 C 19.907366 18.770238 19.845183 18.770384 19.783203 18.771484 z " />
  <path
     d="m 20.107657,11.638 c -0.36557,1.1732 -0.43416,1.11709 -0.54687,2.37109 -0.58224,0.5209 -0.66027,1.11339 -0.63477,1.68945 0.02761,0.62551 0.45906,1.0338 0.96484,1.0625 0.62748,-0.002 0.99289,-0.61928 1.05079,-1.21875 0.06783,-0.70283 -0.0531,-1.15975 -0.55664,-1.52148 -0.01323,-0.951 -0.05275,-1.17791 -0.27735,-2.38281 z m -2.90234,1.18359 c -0.36557,1.1732 -0.43417,1.1171 -0.54688,2.37109 -0.58224,0.5209 -0.66026,1.1134 -0.63476,1.68946 0.02761,0.62551 0.4571,1.0338 0.96289,1.0625 0.62748,-0.002 0.99288,-0.61928 1.05078,-1.21875 0.06783,-0.70283 -0.05115,-1.16171 -0.55469,-1.52344 -0.01323,-0.951 -0.05274,-1.17596 -0.27734,-2.38086 z m 5.64453,0 c -0.2246,1.2049 -0.26411,1.42986 -0.27734,2.38086 -0.50354,0.36173 -0.62252,0.82061 -0.55469,1.52344 0.0579,0.59947 0.4233,1.21675 1.05078,1.21875 0.50579,-0.0287 0.93528,-0.43699 0.96289,-1.0625 0.0255,-0.57606 -0.05253,-1.16856 -0.63477,-1.68946 -0.11271,-1.25399 -0.1813,-1.19789 -0.54687,-2.37109 z m 3,2 c -0.2246,1.2049 -0.26411,1.42986 -0.27734,2.38086 -0.50354,0.36173 -0.62252,0.82061 -0.55469,1.52344 0.0579,0.59947 0.4233,1.21675 1.05078,1.21875 0.50579,-0.0287 0.93528,-0.43699 0.96289,-1.0625 0.0255,-0.57606 -0.05253,-1.16856 -0.63477,-1.68946 -0.11271,-1.25399 -0.1813,-1.19789 -0.54687,-2.37109 z m -11.66406,0.34766 c -0.36557,1.1732 -0.43417,1.11709 -0.54688,2.37109 -0.58224,0.5209 -0.66026,1.11144 -0.63476,1.6875 0.02761,0.62551 0.45905,1.03575 0.96484,1.06445 0.62748,-0.002 0.99288,-0.62123 1.05078,-1.2207 0.06783,-0.70283 -0.0531,-1.15975 -0.55664,-1.52148 -0.01323,-0.951 -0.05274,-1.17596 -0.27734,-2.38086 z m 5.59765,3.10156 c -0.92959,0.01611 -1.5287,0.51926 -3.04297,1.74414 -2.09092,1.27934 -2.71814,1.98609 -2.74804,3.86133 -0.0331,2.07318 2.64924,2.74125 4.80859,1.82226 0.65824,-0.28012 2.07764,-0.30376 2.83594,0.0293 1.57567,0.50995 4.36956,0.1805 4.41406,-2.08984 0.08954,-1.90246 -1.12241,-2.4405 -2.96289,-3.62305 -1.10047,-1.07011 -1.64914,-1.67079 -3.11523,-1.74219 -0.06529,-0.0032 -0.12748,-0.003 -0.18946,-0.0019 z"
     id="path3291"
     sodipodi:nodetypes="ccccccccccccccccccccccccccccccccccccccccccccc"
     style="fill:#ffffff" />
  <path
     id="path10824"
     style="opacity:1;fill:#d7f2fd;stroke-width:0.916666;stroke-linecap:round;stroke-linejoin:round;fill-opacity:1"
     d="m 19.213183,9.0278988 c -2.639176,0.1894787 -5.121621,1.3239142 -6.992188,3.1953122 -4.2946599,4.295577 -4.2946599,11.259111 0,15.554688 4.024051,4.004092 10.434153,4.288384 14.796875,0.65625 l 9.244141,9.24414 c 0.391737,0.391737 1.022326,0.391737 1.414062,0 0.391737,-0.391736 0.391737,-1.022325 0,-1.414062 l -9.224609,-9.22461 c 3.638888,-4.370862 3.345883,-10.794944 -0.675781,-14.816406 -2.25569,-2.2564934 -5.379997,-3.4224072 -8.5625,-3.1953122 z m 0.785156,1.9726562 c 2.38681,3.61e-4 4.675732,0.948809 6.363281,2.636719 3.513812,3.514563 3.513812,9.211999 0,12.726562 -3.514563,3.513812 -9.211999,3.513812 -12.726562,0 -3.513812,-3.514563 -3.513812,-9.211999 0,-12.726562 1.687549,-1.68791 3.976471,-2.636358 6.363281,-2.636719 z"
     sodipodi:nodetypes="ccccsssccccsccsc" />
  <path
     id="rect2630"
     style="fill:#ffffff;fill-opacity:1;opacity:0.3"
     d="M 10,4 C 6.6760035,4 4.0000002,6.6760033 4.0000002,10 v 1 C 4.0000002,7.6760032 6.6760035,5 10,5 h 28 c 3.323997,0 6,2.6760032 6,6 V 10 C 44,6.6760033 41.323997,4 38,4 Z" />
  <path
     id="rect398"
     style="opacity:0.3;fill:#ffffff"
     d="m 4.0000001,37 v 1 c 0,3.323996 2.6760033,6 5.9999999,6 h 28 c 3.323997,0 6,-2.676004 6,-6 v -1 c 0,3.323996 -2.676003,6 -6,6 H 10 C 6.6760034,43 4.0000001,40.323996 4.0000001,37 Z" />
  <path
     id="rect899"
     style="opacity:0.5;fill:#000000;stroke:none"
     d="M 10,3 C 6.1220039,3 3,6.1220039 3,10 v 28 c 0,3.877996 3.1220039,7 7,7 h 28 c 3.877996,0 7,-3.122004 7,-7 V 10 C 45,6.1220039 41.877996,3 38,3 Z m 0,1 h 28 c 3.323997,0 6,2.6760033 6,6 v 28 c 0,3.323997 -2.676003,6 -6,6 H 10 C 6.6760033,44 4,41.323997 4,38 V 10 C 4,6.6760033 6.6760033,4 10,4 Z" />
</svg>
