<?xml version="1.0" encoding="UTF-8" standalone="no"?>
<!-- Created with Inkscape (http://www.inkscape.org/) -->

<svg
   width="48"
   height="48"
   viewBox="0 0 48 48.000002"
   version="1.1"
   id="svg5"
   sodipodi:docname="brave.svg"
   inkscape:version="1.2.1 (9c6d41e410, 2022-07-14)"
   xmlns:inkscape="http://www.inkscape.org/namespaces/inkscape"
   xmlns:sodipodi="http://sodipodi.sourceforge.net/DTD/sodipodi-0.dtd"
   xmlns:xlink="http://www.w3.org/1999/xlink"
   xmlns="http://www.w3.org/2000/svg"
   xmlns:svg="http://www.w3.org/2000/svg">
  <sodipodi:namedview
     id="namedview7"
     pagecolor="#ffffff"
     bordercolor="#666666"
     borderopacity="1.0"
     inkscape:showpageshadow="2"
     inkscape:pageopacity="0.0"
     inkscape:pagecheckerboard="0"
     inkscape:deskcolor="#d1d1d1"
     inkscape:document-units="px"
     showgrid="false"
     inkscape:zoom="16.666667"
     inkscape:cx="24"
     inkscape:cy="24"
     inkscape:window-width="1920"
     inkscape:window-height="1012"
     inkscape:window-x="0"
     inkscape:window-y="0"
     inkscape:window-maximized="1"
     inkscape:current-layer="svg5" />
  <defs
     id="defs2">
    <linearGradient
       inkscape:collect="always"
       xlink:href="#linearGradient3475"
       id="linearGradient6478"
       x1="37.5"
       y1="44.5"
       x2="9.5"
       y2="2.5"
       gradientUnits="userSpaceOnUse"
       gradientTransform="translate(0.5,0.5)" />
    <linearGradient
       inkscape:collect="always"
       id="linearGradient3475">
      <stop
         style="stop-color:#f16649;stop-opacity:1;"
         offset="0"
         id="stop3471" />
      <stop
         style="stop-color:#fd8862;stop-opacity:1;"
         offset="1"
         id="stop3473" />
    </linearGradient>
  </defs>
  <rect
     style="fill:url(#linearGradient6478);fill-opacity:1.0;stroke:none"
     id="rect184"
     width="41"
     height="41"
     x="3.5"
     y="3.5"
     ry="6.5" />
  <path
     d="m 23.999305,11.26056 c -0.475231,0 -1.271854,0.207601 -3.726192,0.969813 -0.574802,0.1785 -1.156204,0.323461 -1.293094,0.323251 -0.136801,-1.5e-4 -1.220104,-0.186301 -2.405438,-0.414721 -1.185244,-0.228601 -2.227477,-0.416822 -2.318197,-0.416822 -0.321061,0 -3.940813,4.784326 -4.8512267,6.412312 -0.380581,0.680522 -0.499201,1.357864 -0.329671,1.871555 0.1527,0.462662 0.5987424,0.925953 3.3837717,3.515622 1.278514,1.188843 2.349397,2.225946 2.379878,2.305447 0.1329,0.346021 0.027,0.852903 -0.367922,1.775886 -0.518731,1.209573 -0.585512,1.714175 -0.323311,2.460727 0.279601,0.795934 0.692313,1.381805 1.382465,1.967257 0.703862,0.597152 1.133103,0.803343 1.535555,0.738002 0.480511,-0.078 3.479861,-1.591114 3.974983,-2.005567 1.179213,-0.987063 2.337457,-2.134566 2.379907,-2.356507 0.024,-0.1296 -0.021,-0.356461 -0.1044,-0.506161 -0.0822,-0.149701 -0.939003,-0.954213 -1.905606,-1.786507 -1.682405,-1.448614 -1.986426,-1.784435 -1.986426,-2.201286 0,-0.1029 0.298801,-0.922173 0.665672,-1.820497 0.526081,-1.288653 0.667862,-1.731995 0.665672,-2.097036 -0.003,-0.577382 -0.218701,-0.996753 -0.663542,-1.290964 -0.189301,-0.1254 -1.550045,-0.690812 -3.02434,-1.256974 -1.474235,-0.566132 -2.782509,-1.069084 -2.905179,-1.116544 -0.132301,-0.0507 -0.187801,-0.1179 -0.138301,-0.1659 0.0462,-0.0444 0.858603,-0.152101 1.805646,-0.238201 2.030977,-0.184801 1.986636,-0.192301 4.221704,0.608252 1.386424,0.496561 1.616465,0.607652 1.733345,0.833702 0.0741,0.143401 0.132901,0.336001 0.131701,0.427473 -10e-4,0.0915 -0.290401,1.414174 -0.642302,2.939228 -0.602822,2.611899 -0.630812,2.78065 -0.482792,2.93077 0.183001,0.185701 1.996506,0.617672 2.883939,0.686942 0.776913,0.0606 3.265991,-0.417391 3.519852,-0.676322 0.1599,-0.1632 0.1413,-0.270001 -0.474272,-2.94139 -0.351391,-1.525054 -0.639062,-2.847758 -0.640172,-2.939228 -9.9e-4,-0.0915 0.0582,-0.282902 0.1317,-0.425343 0.116701,-0.2259 0.361592,-0.340981 1.918357,-0.897512 l 1.782245,-0.638042 0.971973,0.024 c 1.283044,0.0324 3.049779,0.2292 3.075339,0.342421 0.012,0.0498 -1.289793,0.591332 -2.892429,1.203753 -1.602634,0.612423 -3.048909,1.209875 -3.213609,1.327145 -0.406142,0.289201 -0.609242,0.707852 -0.612512,1.265434 -0.0015,0.369031 0.1398,0.814743 0.680582,2.145968 0.910593,2.241636 1.010643,1.950245 -1.382434,4.015422 -1.012504,0.873723 -1.885687,1.697916 -1.941757,1.833276 -0.1656,0.399631 0.0489,0.714512 1.212244,1.769465 1.384025,1.254935 1.654116,1.434186 3.464561,2.305508 0.830852,0.399841 1.626065,0.724202 1.767395,0.720962 0.394982,-0.009 0.655593,-0.1419 1.325015,-0.682712 0.719852,-0.581641 1.194843,-1.255323 1.475974,-2.088517 0.258601,-0.766172 0.212401,-1.117233 -0.323281,-2.386267 -0.390031,-0.923973 -0.497851,-1.451765 -0.363661,-1.801416 0.03,-0.0783 1.038843,-1.055254 2.241637,-2.171467 3.575741,-3.318521 3.704982,-3.478601 3.568781,-4.423724 -0.0972,-0.675422 -0.2175,-0.903693 -1.414324,-2.677629 -1.017843,-1.508585 -3.368261,-4.588665 -3.645342,-4.776825 -0.0696,-0.0474 -1.020003,0.0921 -2.364997,0.346651 -1.236304,0.2343 -2.364997,0.427501 -2.509627,0.427501 -0.144601,0 -0.733143,-0.146701 -1.307975,-0.325411 C 25.270529,11.466541 24.473907,11.259 23.998675,11.259 Z m -0.006,19.885594 c -0.413401,0.0019 -0.832413,0.157801 -1.590875,0.470042 -1.442135,0.593882 -4.458794,2.113656 -4.581135,2.307547 -0.1527,0.2424 -0.006,0.416671 0.929433,1.101693 1.662006,1.217675 2.189857,1.638276 3.528372,2.805249 1.785395,1.556645 1.651355,1.554935 3.39223,0.0363 1.206634,-1.052704 2.558709,-2.105617 3.894193,-3.0307 0.648271,-0.449042 0.778292,-0.681813 0.521041,-0.935793 -0.249001,-0.246 -3.217,-1.748765 -4.536434,-2.296956 -0.735722,-0.305671 -1.143454,-0.459092 -1.556825,-0.457262 z"
     style="display:inline;opacity:0.2;fill:#000000;fill-opacity:1;fill-rule:evenodd;stroke:none;stroke-width:3.00001px;stroke-linecap:butt;stroke-linejoin:miter;stroke-opacity:1;enable-background:new"
     id="path1314" />
  <path
     d="m 23.999305,10.26056 c -0.475231,0 -1.271854,0.207601 -3.726192,0.969813 -0.574802,0.1785 -1.156204,0.323461 -1.293094,0.323251 -0.136801,-1.5e-4 -1.220104,-0.186301 -2.405438,-0.414721 -1.185244,-0.228601 -2.227477,-0.416822 -2.318197,-0.416822 -0.321061,0 -3.940813,4.784326 -4.8512267,6.412312 -0.380581,0.680522 -0.499201,1.357864 -0.329671,1.871555 0.1527,0.462662 0.5987424,0.925953 3.3837717,3.515622 1.278514,1.188843 2.349397,2.225946 2.379878,2.305447 0.1329,0.346021 0.027,0.852903 -0.367922,1.775886 -0.518731,1.209573 -0.585512,1.714175 -0.323311,2.460727 0.279601,0.795934 0.692313,1.381805 1.382465,1.967257 0.703862,0.597152 1.133103,0.803343 1.535555,0.738002 0.480511,-0.078 3.479861,-1.591114 3.974983,-2.005567 1.179213,-0.987063 2.337457,-2.134566 2.379907,-2.356507 0.024,-0.1296 -0.021,-0.356461 -0.1044,-0.506161 -0.0822,-0.149701 -0.939003,-0.954213 -1.905606,-1.786507 -1.682405,-1.448614 -1.986426,-1.784435 -1.986426,-2.201286 0,-0.1029 0.298801,-0.922173 0.665672,-1.820497 0.526081,-1.288653 0.667862,-1.731995 0.665672,-2.097036 -0.003,-0.577382 -0.218701,-0.996753 -0.663542,-1.290964 -0.189301,-0.1254 -1.550045,-0.690812 -3.02434,-1.256974 -1.474235,-0.566132 -2.782509,-1.069084 -2.905179,-1.116544 -0.132301,-0.0507 -0.187801,-0.1179 -0.138301,-0.1659 0.0462,-0.0444 0.858603,-0.152101 1.805646,-0.238201 2.030977,-0.184801 1.986636,-0.192301 4.221704,0.608252 1.386424,0.496561 1.616465,0.607652 1.733345,0.833702 0.0741,0.143401 0.132901,0.336001 0.131701,0.427473 -10e-4,0.0915 -0.290401,1.414174 -0.642302,2.939228 -0.602822,2.611899 -0.630812,2.78065 -0.482792,2.93077 0.183001,0.185701 1.996506,0.617672 2.883939,0.686942 0.776913,0.0606 3.265991,-0.417391 3.519852,-0.676322 0.1599,-0.1632 0.1413,-0.270001 -0.474272,-2.94139 -0.351391,-1.525054 -0.639062,-2.847758 -0.640172,-2.939228 -9.9e-4,-0.0915 0.0582,-0.282902 0.1317,-0.425343 0.116701,-0.2259 0.361592,-0.340981 1.918357,-0.897512 l 1.782245,-0.638042 0.971973,0.024 c 1.283044,0.0324 3.049779,0.2292 3.075339,0.342421 0.012,0.0498 -1.289793,0.591332 -2.892429,1.203753 -1.602634,0.612423 -3.048909,1.209875 -3.213609,1.327145 -0.406142,0.289201 -0.609242,0.707852 -0.612512,1.265434 -0.0015,0.369031 0.1398,0.814743 0.680582,2.145968 0.910593,2.241636 1.010643,1.950245 -1.382434,4.015422 -1.012504,0.873723 -1.885687,1.697916 -1.941757,1.833276 -0.1656,0.399631 0.0489,0.714512 1.212244,1.769465 1.384025,1.254935 1.654116,1.434186 3.464561,2.305508 0.830852,0.399841 1.626065,0.724202 1.767395,0.720962 0.394982,-0.009 0.655593,-0.1419 1.325015,-0.682712 0.719852,-0.581641 1.194843,-1.255323 1.475974,-2.088517 0.258601,-0.766172 0.212401,-1.117233 -0.323281,-2.386267 -0.390031,-0.923973 -0.497851,-1.451765 -0.363661,-1.801416 0.03,-0.0783 1.038843,-1.055254 2.241637,-2.171467 3.575741,-3.318521 3.704982,-3.478601 3.568781,-4.423724 -0.0972,-0.675422 -0.2175,-0.903693 -1.414324,-2.677629 -1.017843,-1.508585 -3.368261,-4.588665 -3.645342,-4.776825 -0.0696,-0.0474 -1.020003,0.0921 -2.364997,0.346651 -1.236304,0.2343 -2.364997,0.427501 -2.509627,0.427501 -0.144601,0 -0.733143,-0.146701 -1.307975,-0.325411 C 25.270529,10.466541 24.473907,10.259 23.998675,10.259 Z m -0.006,19.885594 c -0.413401,0.0019 -0.832413,0.157801 -1.590875,0.470042 -1.442135,0.593882 -4.458794,2.113656 -4.581135,2.307547 -0.1527,0.2424 -0.006,0.416671 0.929433,1.101693 1.662006,1.217675 2.189857,1.638276 3.528372,2.805249 1.785395,1.556645 1.651355,1.554935 3.39223,0.0363 1.206634,-1.052704 2.558709,-2.105617 3.894193,-3.0307 0.648271,-0.449042 0.778292,-0.681813 0.521041,-0.935793 -0.249001,-0.246 -3.217,-1.748765 -4.536434,-2.296956 -0.735722,-0.305671 -1.143454,-0.459092 -1.556825,-0.457262 z"
     style="display:inline;fill:#ffffff;fill-opacity:1;fill-rule:evenodd;stroke:none;stroke-width:3.00001px;stroke-linecap:butt;stroke-linejoin:miter;stroke-opacity:1;enable-background:new"
     id="path1128"
     sodipodi:nodetypes="ccccsccccccccccccscccccccccccccccccccccsccccccccccsccccccscccccccccccscc" />
  <path
     id="rect2630"
     style="fill:#ffffff;fill-opacity:1;opacity:0.3"
     d="M 10,4 C 6.6760035,4 4.0000002,6.6760033 4.0000002,10 v 1 C 4.0000002,7.6760032 6.6760035,5 10,5 h 28 c 3.323997,0 6,2.6760032 6,6 V 10 C 44,6.6760033 41.323997,4 38,4 Z" />
  <path
     id="rect398"
     style="opacity:0.3;fill:#ffffff"
     d="m 4.0000001,37 v 1 c 0,3.323996 2.6760033,6 5.9999999,6 h 28 c 3.323997,0 6,-2.676004 6,-6 v -1 c 0,3.323996 -2.676003,6 -6,6 H 10 C 6.6760034,43 4.0000001,40.323996 4.0000001,37 Z" />
  <path
     id="rect899"
     style="opacity:0.5;fill:#000000;stroke:none"
     d="M 10,3 C 6.1220039,3 3,6.1220039 3,10 v 28 c 0,3.877996 3.1220039,7 7,7 h 28 c 3.877996,0 7,-3.122004 7,-7 V 10 C 45,6.1220039 41.877996,3 38,3 Z m 0,1 h 28 c 3.323997,0 6,2.6760033 6,6 v 28 c 0,3.323997 -2.676003,6 -6,6 H 10 C 6.6760033,44 4,41.323997 4,38 V 10 C 4,6.6760033 6.6760033,4 10,4 Z" />
</svg>
