<?xml version="1.0" encoding="UTF-8" standalone="no"?>
<!-- Created with Inkscape (http://www.inkscape.org/) -->

<svg
   width="48"
   height="48"
   viewBox="0 0 48 48.000002"
   version="1.1"
   id="svg5"
   sodipodi:docname="bulky.svg"
   inkscape:version="1.2.1 (9c6d41e410, 2022-07-14)"
   xmlns:inkscape="http://www.inkscape.org/namespaces/inkscape"
   xmlns:sodipodi="http://sodipodi.sourceforge.net/DTD/sodipodi-0.dtd"
   xmlns:xlink="http://www.w3.org/1999/xlink"
   xmlns="http://www.w3.org/2000/svg"
   xmlns:svg="http://www.w3.org/2000/svg">
  <sodipodi:namedview
     id="namedview7"
     pagecolor="#ffffff"
     bordercolor="#666666"
     borderopacity="1.0"
     inkscape:showpageshadow="2"
     inkscape:pageopacity="0.0"
     inkscape:pagecheckerboard="0"
     inkscape:deskcolor="#d1d1d1"
     inkscape:document-units="px"
     showgrid="false"
     inkscape:zoom="5.8336309"
     inkscape:cx="18.513341"
     inkscape:cy="43.026377"
     inkscape:window-width="1920"
     inkscape:window-height="1012"
     inkscape:window-x="0"
     inkscape:window-y="0"
     inkscape:window-maximized="1"
     inkscape:current-layer="svg5" />
  <defs
     id="defs2">
    <linearGradient
       inkscape:collect="always"
       xlink:href="#linearGradient3712"
       id="linearGradient6478"
       x1="23.5"
       y1="44.5"
       x2="23.5"
       y2="2.5"
       gradientUnits="userSpaceOnUse"
       gradientTransform="translate(0.5,0.5)" />
    <linearGradient
       inkscape:collect="always"
       id="linearGradient3712">
      <stop
         style="stop-color:#393e53;stop-opacity:1;"
         offset="0"
         id="stop3708" />
      <stop
         style="stop-color:#797d96;stop-opacity:1;"
         offset="1"
         id="stop3710" />
    </linearGradient>
  </defs>
  <rect
     style="fill:url(#linearGradient6478);fill-opacity:1.0;stroke:none"
     id="rect184"
     width="41"
     height="41"
     x="3.5"
     y="3.5"
     ry="6.5" />
  <path
     d="m 24.000001,12.999995 v 2 h 4 v 19.999991 h -4 v 2 h 10 v -2 h -4 V 14.999995 h 4 v -2 m -22.68749,6 c -0.6991,0.003 -1.3155603,0.65419 -1.3125,1.3125 v 9.374991 c 6e-5,0.69807 0.68952,1.31242 1.4375,1.3125 h 14.56249 v -2 h -13.99998 v -7.999991 h 13.99999 v -2 m 6,0 v 2 h 3.99999 v 7.999991 h -4 v 2 h 4.5625 c 0.74799,-8e-5 1.43743,-0.61443 1.4375,-1.3125 v -9.374991 c -7e-5,-0.69806 -0.68951,-1.31245 -1.4375,-1.3125 z m -18,4 v 3.999991 h 10 v -3.999991 z"
     style="display:inline;opacity:0.2;fill:#1a1a1a;fill-opacity:1;stroke:none;enable-background:new"
     id="path1365"
     sodipodi:nodetypes="cccccccccccccccccccccccccccccccccccccc" />
  <path
     d="m 24.000001,12 v 2 h 4 v 19.99999 h -4 v 2 h 10 v -2 h -4 V 14 h 4 v -2 m -22.68749,6 c -0.6991,0.003 -1.3155603,0.65419 -1.3125,1.3125 v 9.37499 c 6e-5,0.69807 0.68952,1.31242 1.4375,1.3125 h 14.56249 v -2 H 12.000021 V 20 h 13.99999 v -2 m 6,0 v 2 h 3.99999 v 7.99999 h -4 v 2 h 4.5625 c 0.74799,-8e-5 1.43743,-0.61443 1.4375,-1.3125 V 19.3125 c -7e-5,-0.69806 -0.68951,-1.31245 -1.4375,-1.3125 z m -18,4 v 3.99999 h 10 V 22 Z"
     style="display:inline;fill:#ffffff;fill-opacity:1;stroke:none;enable-background:new"
     id="path1017"
     sodipodi:nodetypes="cccccccccccccccccccccccccccccccccccccc" />
  <path
     id="rect2630"
     style="fill:#ffffff;fill-opacity:1;opacity:0.3"
     d="M 10,4 C 6.6760035,4 4.0000002,6.6760033 4.0000002,10 v 1 C 4.0000002,7.6760032 6.6760035,5 10,5 h 28 c 3.323997,0 6,2.6760032 6,6 V 10 C 44,6.6760033 41.323997,4 38,4 Z" />
  <path
     id="rect398"
     style="opacity:0.3;fill:#ffffff"
     d="m 4.0000001,37 v 1 c 0,3.323996 2.6760033,6 5.9999999,6 h 28 c 3.323997,0 6,-2.676004 6,-6 v -1 c 0,3.323996 -2.676003,6 -6,6 H 10 C 6.6760034,43 4.0000001,40.323996 4.0000001,37 Z" />
  <path
     id="rect899"
     style="opacity:0.5;fill:#000000;stroke:none"
     d="M 10,3 C 6.1220039,3 3,6.1220039 3,10 v 28 c 0,3.877996 3.1220039,7 7,7 h 28 c 3.877996,0 7,-3.122004 7,-7 V 10 C 45,6.1220039 41.877996,3 38,3 Z m 0,1 h 28 c 3.323997,0 6,2.6760033 6,6 v 28 c 0,3.323997 -2.676003,6 -6,6 H 10 C 6.6760033,44 4,41.323997 4,38 V 10 C 4,6.6760033 6.6760033,4 10,4 Z" />
</svg>
