<?xml version="1.0" encoding="UTF-8" standalone="no"?>
<!-- Created with Inkscape (http://www.inkscape.org/) -->

<svg
   width="48"
   height="48"
   viewBox="0 0 48 48.000002"
   version="1.1"
   id="svg5"
   sodipodi:docname="com.github.maoschanz.drawing.svg"
   inkscape:version="1.2.1 (9c6d41e410, 2022-07-14)"
   xmlns:inkscape="http://www.inkscape.org/namespaces/inkscape"
   xmlns:sodipodi="http://sodipodi.sourceforge.net/DTD/sodipodi-0.dtd"
   xmlns:xlink="http://www.w3.org/1999/xlink"
   xmlns="http://www.w3.org/2000/svg"
   xmlns:svg="http://www.w3.org/2000/svg">
  <sodipodi:namedview
     id="namedview7"
     pagecolor="#ffffff"
     bordercolor="#666666"
     borderopacity="1.0"
     inkscape:showpageshadow="2"
     inkscape:pageopacity="0.0"
     inkscape:pagecheckerboard="0"
     inkscape:deskcolor="#d1d1d1"
     inkscape:document-units="px"
     showgrid="false"
     inkscape:zoom="16.458333"
     inkscape:cx="23.96962"
     inkscape:cy="24"
     inkscape:window-width="1920"
     inkscape:window-height="1002"
     inkscape:window-x="0"
     inkscape:window-y="0"
     inkscape:window-maximized="1"
     inkscape:current-layer="svg5" />
  <defs
     id="defs2">
    <linearGradient
       inkscape:collect="always"
       id="linearGradient2538">
      <stop
         style="stop-color:#e02727;stop-opacity:1;"
         offset="0"
         id="stop2534" />
      <stop
         style="stop-color:#eb8075;stop-opacity:1;"
         offset="1"
         id="stop2536" />
    </linearGradient>
    <linearGradient
       inkscape:collect="always"
       xlink:href="#linearGradient2538"
       id="linearGradient6228"
       x1="38"
       y1="45"
       x2="10"
       y2="3"
       gradientUnits="userSpaceOnUse" />
  </defs>
  <rect
     style="fill:url(#linearGradient6228);fill-opacity:1;stroke:none"
     id="rect184"
     width="41"
     height="41"
     x="3.5"
     y="3.5"
     ry="6.5" />
  <path
     d="m 35.639673,12.7 -2.59736,2.59736 4.32906,4.32906 2.59737,-2.59736 z m -3.46302,3.4634 -11.25548,11.2551 4.32906,4.32906 11.25549,-11.25549 z M 8.6063631,24.88103 c -0.71177,-0.0295 -0.89164,0.97488 -0.21389,1.19426 0.8974901,0.3046 1.0699301,0.60354 1.1530401,0.98855 0.0831,0.385 -0.0313,0.96582 -0.13338,1.61426 -0.10208,0.64843 -0.18166,1.45558 0.3496,2.12525 0.5312798,0.66967 1.4819798,1.00179 3.0496398,1.1021 0.73744,0.0472 1.23329,0.31526 1.63332,0.71088 0.40002,0.39562 0.68992,0.93775 0.8851,1.4976 0.39035,1.1197 0.39083,2.244251 0.39083,2.244251 -0.0121,0.45092 0.45094,0.7597 0.86254,0.57516 l 0.009,0.009 4.76189,-2.164531 0.43322,0.43283 2.59736,-2.59736 -4.32906,-4.32868 -2.59736,2.59736 0.43283,0.43283 -1.2771,2.81008 c -0.0389,-0.13685 -0.0793,-0.27469 -0.12794,-0.41416 -0.23666,-0.67884 -0.59836,-1.38953 -1.18027,-1.96504 -0.5819,-0.57549 -1.39875,-0.99694 -2.41613,-1.06204 -1.4183,-0.0907 -1.98105,-0.40508 -2.16842,-0.64127 -0.18738,-0.23618 -0.19082,-0.59431 -0.0996,-1.17404 0.0913,-0.57972 0.28781,-1.29008 0.12094,-2.06303 -0.16686,-0.77296 -0.8053398,-1.49852 -1.9564799,-1.8892 -0.0578,-0.0206 -0.11836,-0.0324 -0.17966,-0.035 z"
     style="color:#000000;font-style:normal;font-variant:normal;font-weight:normal;font-stretch:normal;font-size:medium;line-height:normal;font-family:sans-serif;font-variant-ligatures:normal;font-variant-position:normal;font-variant-caps:normal;font-variant-numeric:normal;font-variant-alternates:normal;font-feature-settings:normal;text-indent:0;text-align:start;text-decoration:none;text-decoration-line:none;text-decoration-style:solid;text-decoration-color:#000000;letter-spacing:normal;word-spacing:normal;text-transform:none;writing-mode:lr-tb;direction:ltr;text-orientation:mixed;dominant-baseline:auto;baseline-shift:baseline;text-anchor:start;white-space:normal;shape-padding:0;clip-rule:nonzero;display:inline;overflow:visible;visibility:visible;opacity:0.2;isolation:auto;mix-blend-mode:normal;color-interpolation:sRGB;color-interpolation-filters:linearRGB;solid-color:#000000;solid-opacity:1;vector-effect:none;fill:#000000;fill-opacity:1;fill-rule:nonzero;stroke:none;stroke-width:1.22442;stroke-linecap:round;stroke-linejoin:miter;stroke-miterlimit:4;stroke-dasharray:none;stroke-dashoffset:0;stroke-opacity:1;color-rendering:auto;image-rendering:auto;shape-rendering:auto;text-rendering:auto;enable-background:accumulate"
     id="path3953" />
  <path
     d="m 35.639673,11.7 -2.59736,2.59736 4.32906,4.32906 2.59737,-2.59736 z m -3.46302,3.4634 -11.25548,11.2551 4.32906,4.32906 11.25549,-11.25549 z M 8.6063629,23.88103 c -0.71177,-0.0295 -0.89164,0.97488 -0.21389,1.19426 0.8974901,0.3046 1.0699301,0.60354 1.1530401,0.98855 0.0831,0.385 -0.0313,0.96582 -0.13338,1.61426 -0.10208,0.64843 -0.18166,1.45558 0.3496,2.12525 0.53128,0.66967 1.48198,1.00179 3.04964,1.1021 0.73744,0.0472 1.23329,0.31526 1.63332,0.71088 0.40002,0.39562 0.68992,0.93775 0.8851,1.4976 0.39035,1.1197 0.39083,2.24425 0.39083,2.24425 -0.0121,0.45092 0.45094,0.7597 0.86254,0.57516 l 0.009,0.009 4.76189,-2.16453 0.43322,0.43283 2.59736,-2.59736 -4.32906,-4.32868 -2.59736,2.59736 0.43283,0.43283 -1.2771,2.81008 c -0.0389,-0.13685 -0.0793,-0.27469 -0.12794,-0.41416 -0.23666,-0.67884 -0.59836,-1.38953 -1.18027,-1.96504 -0.5819,-0.57549 -1.39875,-0.99694 -2.41613,-1.06204 -1.4183,-0.0907 -1.98105,-0.40508 -2.16842,-0.64127 -0.18738,-0.23618 -0.19082,-0.59431 -0.0996,-1.17404 0.0913,-0.57972 0.28781,-1.29008 0.12094,-2.06303 -0.16686,-0.77296 -0.80534,-1.49852 -1.9564801,-1.8892 -0.0578,-0.0206 -0.11836,-0.0324 -0.17966,-0.035 z"
     style="color:#000000;font-style:normal;font-variant:normal;font-weight:normal;font-stretch:normal;font-size:medium;line-height:normal;font-family:sans-serif;font-variant-ligatures:normal;font-variant-position:normal;font-variant-caps:normal;font-variant-numeric:normal;font-variant-alternates:normal;font-feature-settings:normal;text-indent:0;text-align:start;text-decoration:none;text-decoration-line:none;text-decoration-style:solid;text-decoration-color:#000000;letter-spacing:normal;word-spacing:normal;text-transform:none;writing-mode:lr-tb;direction:ltr;text-orientation:mixed;dominant-baseline:auto;baseline-shift:baseline;text-anchor:start;white-space:normal;shape-padding:0;clip-rule:nonzero;display:inline;overflow:visible;visibility:visible;isolation:auto;mix-blend-mode:normal;color-interpolation:sRGB;color-interpolation-filters:linearRGB;solid-color:#000000;solid-opacity:1;vector-effect:none;fill:#ffffff;fill-opacity:1;fill-rule:nonzero;stroke:none;stroke-width:1.22442;stroke-linecap:round;stroke-linejoin:miter;stroke-miterlimit:4;stroke-dasharray:none;stroke-dashoffset:0;stroke-opacity:1;color-rendering:auto;image-rendering:auto;shape-rendering:auto;text-rendering:auto;enable-background:accumulate"
     id="path3639"
     sodipodi:nodetypes="cccccccccccccsccscccccccccccccccccccc" />
  <path
     id="rect2630"
     style="fill:#ffffff;fill-opacity:1;opacity:0.3"
     d="M 10,4 C 6.6760035,4 4.0000002,6.6760033 4.0000002,10 v 1 C 4.0000002,7.6760032 6.6760035,5 10,5 h 28 c 3.323997,0 6,2.6760032 6,6 V 10 C 44,6.6760033 41.323997,4 38,4 Z" />
  <path
     id="rect398"
     style="opacity:0.3;fill:#ffffff"
     d="m 4.0000001,37 v 1 c 0,3.323996 2.6760033,6 5.9999999,6 h 28 c 3.323997,0 6,-2.676004 6,-6 v -1 c 0,3.323996 -2.676003,6 -6,6 H 10 C 6.6760034,43 4.0000001,40.323996 4.0000001,37 Z" />
  <path
     id="rect899"
     style="opacity:0.5;fill:#000000;stroke:none"
     d="M 10,3 C 6.1220039,3 3,6.1220039 3,10 v 28 c 0,3.877996 3.1220039,7 7,7 h 28 c 3.877996,0 7,-3.122004 7,-7 V 10 C 45,6.1220039 41.877996,3 38,3 Z m 0,1 h 28 c 3.323997,0 6,2.6760033 6,6 v 28 c 0,3.323997 -2.676003,6 -6,6 H 10 C 6.6760033,44 4,41.323997 4,38 V 10 C 4,6.6760033 6.6760033,4 10,4 Z" />
</svg>
