<?xml version="1.0" encoding="UTF-8" standalone="no"?>
<!-- Created with Inkscape (http://www.inkscape.org/) -->

<svg
   width="48"
   height="48"
   viewBox="0 0 48 48.000002"
   version="1.1"
   id="svg5"
   sodipodi:docname="desktop-environment-kde.svg"
   inkscape:version="1.2 (dc2aedaf03, 2022-05-15)"
   xmlns:inkscape="http://www.inkscape.org/namespaces/inkscape"
   xmlns:sodipodi="http://sodipodi.sourceforge.net/DTD/sodipodi-0.dtd"
   xmlns:xlink="http://www.w3.org/1999/xlink"
   xmlns="http://www.w3.org/2000/svg"
   xmlns:svg="http://www.w3.org/2000/svg">
  <sodipodi:namedview
     id="namedview7"
     pagecolor="#ffffff"
     bordercolor="#666666"
     borderopacity="1.0"
     inkscape:showpageshadow="2"
     inkscape:pageopacity="0.0"
     inkscape:pagecheckerboard="0"
     inkscape:deskcolor="#d1d1d1"
     inkscape:document-units="px"
     showgrid="false"
     inkscape:zoom="12.256517"
     inkscape:cx="22.804194"
     inkscape:cy="31.085503"
     inkscape:window-width="1920"
     inkscape:window-height="1007"
     inkscape:window-x="0"
     inkscape:window-y="0"
     inkscape:window-maximized="1"
     inkscape:current-layer="svg5" />
  <defs
     id="defs2">
    <linearGradient
       inkscape:collect="always"
       xlink:href="#linearGradient1090"
       id="linearGradient6478"
       x1="37.5"
       y1="44.5"
       x2="9.5"
       y2="2.5"
       gradientUnits="userSpaceOnUse"
       gradientTransform="translate(0.5,0.5)" />
    <linearGradient
       inkscape:collect="always"
       id="linearGradient1090">
      <stop
         style="stop-color:#3daee9;stop-opacity:1;"
         offset="0"
         id="stop1086" />
      <stop
         style="stop-color:#53c5f2;stop-opacity:1;"
         offset="1"
         id="stop1088" />
    </linearGradient>
  </defs>
  <rect
     style="fill:url(#linearGradient6478);fill-opacity:1.0;stroke:none"
     id="rect184"
     width="41"
     height="41"
     x="3.5"
     y="3.5"
     ry="6.5" />
  <path
     id="path277"
     style="opacity:0.2;fill:#000000"
     d="M 26 8 L 26 8.0019531 L 26.027344 8 L 26 8 z M 26 8.0019531 L 21 8.4960938 L 21 29.779297 L 26 29 L 26 20 L 33 30 L 38.943359 28 L 31 19 L 39 10 L 33 8 L 26 18 L 26 8.0019531 z M 14.701172 14.001953 C 14.639672 14.009453 14.573844 14.023813 14.527344 14.070312 L 12.394531 16.189453 C 12.305051 16.278703 12.295548 16.413484 12.361328 16.521484 L 14.628906 20.242188 C 14.095567 21.108307 13.68435 22.055295 13.40625 23.058594 L 9.2207031 23.921875 C 9.0936033 23.947875 9 24.069219 9 24.199219 L 9 27.191406 C 9 27.318156 9.0974032 27.425828 9.2207031 27.455078 L 13.279297 28.433594 C 13.534607 29.562393 13.966123 30.622345 14.539062 31.589844 L 12.173828 35.166016 C 12.102128 35.274766 12.116514 35.419469 12.208984 35.511719 L 14.339844 37.628906 C 14.429844 37.718156 14.569734 37.729312 14.677734 37.664062 L 18.371094 35.4375 C 19.282793 35.982439 20.278239 36.39849 21.335938 36.662109 L 22.197266 40.78125 C 22.224266 40.90825 22.331891 41 22.462891 41 L 25.476562 41 C 25.602562 41 25.712188 40.915219 25.742188 40.792969 L 26.765625 36.648438 C 27.831724 36.372258 28.825435 35.925451 29.740234 35.363281 L 33.449219 37.777344 C 33.558719 37.847844 33.701922 37.834891 33.794922 37.744141 L 35.916016 35.626953 C 36.006016 35.537703 36.026937 35.400219 35.960938 35.292969 L 34.513672 32.921875 L 34.039062 33.072266 C 33.970063 33.093266 33.894016 33.061203 33.853516 33.001953 C 33.853516 33.001953 33.403915 32.393696 33.046875 31.910156 C 32.880325 31.656717 32.073154 30.471365 31.240234 29.384766 C 29.926236 32.198763 27.103997 33.998953 24 34.001953 C 19.581704 34.001953 16 30.420249 16 26.001953 C 16.0029 22.968256 17.420503 20.272574 20 18.921875 L 20 15.6875 C 19.442131 15.89487 19.075303 16.150307 18.564453 16.441406 L 14.873047 14.041016 C 14.818297 14.005016 14.761922 13.997906 14.701172 14.003906 L 14.701172 14.001953 z " />
  <path
     id="rect294"
     style="fill:#ffffff"
     d="M 26 7 L 26 7.0019531 L 26.027344 7 L 26 7 z M 26 7.0019531 L 21 7.4960938 L 21 28.779297 L 26 28 L 26 19 L 33 29 L 38.943359 27 L 31 18 L 39 9 L 33 7 L 26 17 L 26 7.0019531 z M 14.701172 13.001953 C 14.639672 13.009453 14.573844 13.023813 14.527344 13.070312 L 12.394531 15.189453 C 12.305051 15.278703 12.295548 15.413484 12.361328 15.521484 L 14.628906 19.242188 C 14.095567 20.108307 13.68435 21.055295 13.40625 22.058594 L 9.2207031 22.921875 C 9.0936033 22.947875 9 23.069219 9 23.199219 L 9 26.191406 C 9 26.318156 9.0974062 26.425828 9.2207031 26.455078 L 13.279297 27.433594 C 13.534607 28.562393 13.966123 29.622345 14.539062 30.589844 L 12.173828 34.166016 C 12.102128 34.274766 12.116514 34.419469 12.208984 34.511719 L 14.339844 36.628906 C 14.429844 36.718156 14.569734 36.729312 14.677734 36.664062 L 18.371094 34.4375 C 19.282793 34.982439 20.278239 35.39849 21.335938 35.662109 L 22.197266 39.78125 C 22.224266 39.90825 22.331891 40 22.462891 40 L 25.476562 40 C 25.602562 40 25.712188 39.915219 25.742188 39.792969 L 26.765625 35.648438 C 27.831724 35.372258 28.825435 34.925451 29.740234 34.363281 L 33.449219 36.777344 C 33.558719 36.847844 33.701922 36.834891 33.794922 36.744141 L 35.916016 34.626953 C 36.006016 34.537703 36.026937 34.400219 35.960938 34.292969 L 34.513672 31.921875 L 34.039062 32.072266 C 33.970063 32.093266 33.894016 32.061203 33.853516 32.001953 C 33.853516 32.001953 33.403915 31.393696 33.046875 30.910156 C 32.880325 30.656717 32.073154 29.471365 31.240234 28.384766 C 29.926236 31.198763 27.103997 32.998953 24 33.001953 C 19.581704 33.001953 16 29.420249 16 25.001953 C 16.0029 21.968256 17.420503 19.272574 20 17.921875 L 20 14.6875 C 19.442131 14.89487 19.075303 15.150307 18.564453 15.441406 L 14.873047 13.041016 C 14.818297 13.005016 14.761922 12.997906 14.701172 13.003906 L 14.701172 13.001953 z " />
  <path
     id="rect2630"
     style="fill:#ffffff;fill-opacity:1;opacity:0.3"
     d="M 10,4 C 6.6760035,4 4.0000002,6.6760033 4.0000002,10 v 1 C 4.0000002,7.6760032 6.6760035,5 10,5 h 28 c 3.323997,0 6,2.6760032 6,6 V 10 C 44,6.6760033 41.323997,4 38,4 Z" />
  <path
     id="rect398"
     style="opacity:0.3;fill:#ffffff"
     d="m 4.0000001,37 v 1 c 0,3.323996 2.6760033,6 5.9999999,6 h 28 c 3.323997,0 6,-2.676004 6,-6 v -1 c 0,3.323996 -2.676003,6 -6,6 H 10 C 6.6760034,43 4.0000001,40.323996 4.0000001,37 Z" />
  <path
     id="rect899"
     style="opacity:0.5;fill:#000000;stroke:none"
     d="M 10,3 C 6.1220039,3 3,6.1220039 3,10 v 28 c 0,3.877996 3.1220039,7 7,7 h 28 c 3.877996,0 7,-3.122004 7,-7 V 10 C 45,6.1220039 41.877996,3 38,3 Z m 0,1 h 28 c 3.323997,0 6,2.6760033 6,6 v 28 c 0,3.323997 -2.676003,6 -6,6 H 10 C 6.6760033,44 4,41.323997 4,38 V 10 C 4,6.6760033 6.6760033,4 10,4 Z" />
</svg>
