<?xml version="1.0" encoding="UTF-8" standalone="no"?>
<!-- Created with Inkscape (http://www.inkscape.org/) -->

<svg
   width="48"
   height="48"
   viewBox="0 0 48 48.000002"
   version="1.1"
   id="svg5"
   sodipodi:docname="desktop-environment-xfce.svg"
   inkscape:version="1.3.2 (091e20ef0f, 2023-11-25, custom)"
   xmlns:inkscape="http://www.inkscape.org/namespaces/inkscape"
   xmlns:sodipodi="http://sodipodi.sourceforge.net/DTD/sodipodi-0.dtd"
   xmlns:xlink="http://www.w3.org/1999/xlink"
   xmlns="http://www.w3.org/2000/svg"
   xmlns:svg="http://www.w3.org/2000/svg">
  <sodipodi:namedview
     id="namedview7"
     pagecolor="#ffffff"
     bordercolor="#666666"
     borderopacity="1.0"
     inkscape:showpageshadow="2"
     inkscape:pageopacity="0.0"
     inkscape:pagecheckerboard="0"
     inkscape:deskcolor="#d1d1d1"
     inkscape:document-units="px"
     showgrid="false"
     inkscape:zoom="16.833333"
     inkscape:cx="24"
     inkscape:cy="24"
     inkscape:window-width="1920"
     inkscape:window-height="1011"
     inkscape:window-x="0"
     inkscape:window-y="0"
     inkscape:window-maximized="1"
     inkscape:current-layer="svg5" />
  <defs
     id="defs2">
    <linearGradient
       inkscape:collect="always"
       xlink:href="#linearGradient3"
       id="linearGradient6478"
       x1="37.5"
       y1="44.5"
       x2="9.5"
       y2="2.5"
       gradientUnits="userSpaceOnUse"
       gradientTransform="translate(0.5,0.5)" />
    <linearGradient
       inkscape:collect="always"
       id="linearGradient3">
      <stop
         style="stop-color:#3c7cbd;stop-opacity:1;"
         offset="0"
         id="stop2" />
      <stop
         style="stop-color:#79a8d7;stop-opacity:1;"
         offset="1"
         id="stop3" />
    </linearGradient>
  </defs>
  <rect
     style="fill:url(#linearGradient6478);fill-opacity:1.0;stroke:none"
     id="rect184"
     width="41"
     height="41"
     x="3.5"
     y="3.5"
     ry="6.5" />
  <path
     id="path2"
     style="opacity:0.2;fill:#000000;stroke-width:3"
     d="M 24,10 A 15,15 0 0 0 9,25 15,15 0 0 0 24,40 15,15 0 0 0 39,25 15,15 0 0 0 24,10 Z m -2.53125,5.34375 c 0.1173,-0.006 0.24,-0.0033 0.375,0.0177 0.2253,0.126 1.333758,-0.0282 1.623048,3.105468 0.0768,0.52743 0.18591,1.73352 0.21681,2.26758 0.0603,0.462027 5.081325,0.27396 9.533202,3.1875 0.519207,0.31242 2.635074,2.36448 0.486327,4.142577 -0.88173,0.88803 -8.01921,4.581 -8.4375,4.875 C 25.148025,36.304459 29.106504,36.97582 24,37 17.372076,37 12,31.627954 12,25 c 0.42831,-0.31668 1.75965,-0.04842 2.4375,-0.16992 0.974128,-0.2292 1.363426,-1.906197 1.435547,-3.205077 -0.0021,-0.57849 -0.416865,-2.370105 -0.421875,-2.765625 -0.03,-1.37673 1.287043,-1.980828 1.658203,-1.904298 0.38745,0.099 1.188288,0.2646 2.578125,3.667971 0.2331,0.43326 0.21039,0.25287 0.873048,0.316404 -0.69093,-2.284917 -0.852345,-5.493972 0.908202,-5.595702 z m 10.623048,3.058593 c 0.0042,-0.003 0.0111,-1.41e-4 0.0177,0.0057 0.174,0.1683 0.03234,3.345681 -0.533202,3.949218 -0.0321,0.0342 -0.19773,-3.10761 0.503904,-3.9375 0.0075,-0.009 0.0075,-0.0147 0.0117,-0.0177 z m 2.296875,0.615234 c 0.0519,0.0897 0.10869,0.17247 0.15819,0.26367 -0.33918,1.08972 -1.859037,3.604548 -1.892577,3.404298 -0.0993,-0.91047 1.205385,-3.045828 1.734375,-3.667968 z M 24.75,23.060548 c -0.4782,0 -0.878907,0.407562 -0.878907,0.908202 0,0.50055 0.412305,0.9375 0.890625,0.9375 0.47832,0 0.84375,-0.43695 0.84375,-0.9375 0,-0.50064 -0.377118,-0.908202 -0.855468,-0.908202 z m -1.939452,0.861327 c -0.2124,-0.012 -0.20673,1.64946 0.5625,2.080077 0.795177,0.3744 1.9611,-0.24762 1.76367,-0.26952 -1.716627,-0.1905 -2.016978,-0.99372 -2.279295,-1.78125 -0.015,-0.018 -0.03279,-0.0285 -0.04689,-0.0294 z m 4.769529,3.931641 c -0.03162,0.0013 -0.066,0.0051 -0.0996,0.006 -1.010697,0.0342 -3.332403,1.458987 -3.152343,1.611327 0.2715,0.2298 3.755433,-1.520307 3.339843,-1.611327 -0.0273,-0.006 -0.05628,-0.0072 -0.0879,-0.006 z m 0.515625,1.142577 c -0.0267,-0.0012 -0.05532,-1.41e-4 -0.08202,0.0057 -0.801867,0.1809 -2.353917,2.00388 -2.173827,2.15625 0.2715,0.2298 2.697822,-2.12814 2.332032,-2.15625 -0.0231,-0.0011 -0.04956,-0.0045 -0.07617,-0.0057 z" />
  <path
     id="path2-6"
     style="fill:#ffffff;stroke-width:3"
     d="M 24,9 A 15,15 0 0 0 9,24 15,15 0 0 0 24,39 15,15 0 0 0 39,24 15,15 0 0 0 24,9 Z m -2.53125,5.34375 c 0.1173,-0.006 0.24,-0.0035 0.375,0.01758 0.2253,0.126 1.333758,-0.02814 1.623048,3.105468 0.0768,0.52743 0.18591,1.73352 0.21681,2.26758 0.0603,0.462027 5.081325,0.27396 9.533202,3.1875 0.519207,0.31242 2.635074,2.36448 0.486327,4.142577 -0.88173,0.88803 -8.01921,4.581 -8.4375,4.875 C 25.148025,35.304459 29.106504,35.97582 24,36 17.372076,36 12,30.627954 12,24 c 0.42831,-0.31668 1.75965,-0.04842 2.4375,-0.169923 0.974128,-0.229197 1.363426,-1.906197 1.435547,-3.205077 -0.0021,-0.57849 -0.416865,-2.370105 -0.421875,-2.765625 -0.03,-1.37673 1.287043,-1.980828 1.658203,-1.904298 0.38745,0.099 1.188288,0.2646 2.578125,3.667971 0.2331,0.43326 0.21039,0.25287 0.873048,0.316404 -0.69093,-2.284917 -0.852345,-5.493972 0.908202,-5.595702 z m 10.623048,3.058593 c 0.0042,-0.003 0.0111,-1.41e-4 0.0177,0.0057 0.174,0.1683 0.03234,3.345681 -0.533202,3.949218 -0.0321,0.0342 -0.19773,-3.10761 0.503904,-3.9375 0.0075,-0.009 0.0075,-0.0147 0.0117,-0.0177 z m 2.296875,0.615234 c 0.0519,0.0897 0.10869,0.17247 0.15819,0.26367 -0.33918,1.08972 -1.859037,3.604548 -1.892577,3.404298 -0.0993,-0.91047 1.205385,-3.045828 1.734375,-3.667968 z M 24.75,22.060548 c -0.4782,0 -0.878907,0.407562 -0.878907,0.908202 0,0.50055 0.412305,0.9375 0.890625,0.9375 0.47832,0 0.84375,-0.43695 0.84375,-0.9375 0,-0.50064 -0.377118,-0.908202 -0.855468,-0.908202 z m -1.939452,0.861327 c -0.2124,-0.012 -0.20673,1.64946 0.5625,2.080077 0.795177,0.3744 1.9611,-0.24762 1.76367,-0.26952 -1.716627,-0.1905 -2.016978,-0.99372 -2.279295,-1.78125 -0.015,-0.018 -0.03279,-0.0285 -0.04689,-0.0294 z m 4.769529,3.931641 c -0.03162,0.0013 -0.066,0.0051 -0.0996,0.006 -1.010697,0.0342 -3.332403,1.458987 -3.152343,1.611327 0.2715,0.2298 3.755433,-1.520307 3.339843,-1.611327 -0.0273,-0.006 -0.05628,-0.0072 -0.0879,-0.006 z m 0.515625,1.142577 c -0.0267,-0.0012 -0.05532,-1.41e-4 -0.08202,0.0057 -0.801867,0.1809 -2.353917,2.00388 -2.173827,2.15625 0.2715,0.2298 2.697822,-2.12814 2.332032,-2.15625 -0.0231,-0.0011 -0.04956,-0.0045 -0.07617,-0.0057 z" />
  <path
     id="rect2630"
     style="fill:#ffffff;fill-opacity:1;opacity:0.2"
     d="M 10,4 C 6.6760035,4 4.0000002,6.6760033 4.0000002,10 v 1 C 4.0000002,7.6760032 6.6760035,5 10,5 h 28 c 3.323997,0 6,2.6760032 6,6 V 10 C 44,6.6760033 41.323997,4 38,4 Z" />
  <path
     id="rect398"
     style="opacity:0.2;fill:#ffffff"
     d="m 4.0000001,37 v 1 c 0,3.323996 2.6760033,6 5.9999999,6 h 28 c 3.323997,0 6,-2.676004 6,-6 v -1 c 0,3.323996 -2.676003,6 -6,6 H 10 C 6.6760034,43 4.0000001,40.323996 4.0000001,37 Z" />
  <path
     id="rect899"
     style="opacity:0.5;fill:#000000;stroke:none"
     d="M 10,3 C 6.1220039,3 3,6.1220039 3,10 v 28 c 0,3.877996 3.1220039,7 7,7 h 28 c 3.877996,0 7,-3.122004 7,-7 V 10 C 45,6.1220039 41.877996,3 38,3 Z m 0,1 h 28 c 3.323997,0 6,2.6760033 6,6 v 28 c 0,3.323997 -2.676003,6 -6,6 H 10 C 6.6760033,44 4,41.323997 4,38 V 10 C 4,6.6760033 6.6760033,4 10,4 Z" />
</svg>
