<?xml version="1.0" encoding="UTF-8" standalone="no"?>
<!-- Created with Inkscape (http://www.inkscape.org/) -->

<svg
   width="48"
   height="48"
   viewBox="0 0 48 48.000002"
   version="1.1"
   id="svg5"
   sodipodi:docname="desktop-environment-gnome.svg"
   inkscape:version="1.2 (dc2aedaf03, 2022-05-15)"
   xmlns:inkscape="http://www.inkscape.org/namespaces/inkscape"
   xmlns:sodipodi="http://sodipodi.sourceforge.net/DTD/sodipodi-0.dtd"
   xmlns:xlink="http://www.w3.org/1999/xlink"
   xmlns="http://www.w3.org/2000/svg"
   xmlns:svg="http://www.w3.org/2000/svg">
  <sodipodi:namedview
     id="namedview7"
     pagecolor="#ffffff"
     bordercolor="#666666"
     borderopacity="1.0"
     inkscape:showpageshadow="2"
     inkscape:pageopacity="0.0"
     inkscape:pagecheckerboard="0"
     inkscape:deskcolor="#d1d1d1"
     inkscape:document-units="px"
     showgrid="false"
     inkscape:zoom="17.333333"
     inkscape:cx="23.971154"
     inkscape:cy="24"
     inkscape:window-width="1920"
     inkscape:window-height="1007"
     inkscape:window-x="0"
     inkscape:window-y="0"
     inkscape:window-maximized="1"
     inkscape:current-layer="svg5" />
  <defs
     id="defs2">
    <linearGradient
       inkscape:collect="always"
       xlink:href="#linearGradient3030"
       id="linearGradient6478"
       x1="37.5"
       y1="44.5"
       x2="9.5"
       y2="2.5"
       gradientUnits="userSpaceOnUse"
       gradientTransform="translate(0.5,0.5)" />
    <linearGradient
       inkscape:collect="always"
       id="linearGradient3030">
      <stop
         style="stop-color:#4a86cf;stop-opacity:1;"
         offset="0"
         id="stop3026" />
      <stop
         style="stop-color:#70b7df;stop-opacity:1;"
         offset="1"
         id="stop3028" />
    </linearGradient>
  </defs>
  <rect
     style="fill:url(#linearGradient6478);fill-opacity:1.0;stroke:none"
     id="rect184"
     width="41"
     height="41"
     x="3.5"
     y="3.5"
     ry="6.5" />
  <path
     id="path7698"
     style="opacity:0.2;fill:#000000;stroke-width:3.5"
     d="m 33.556974,10 c -5.923519,0 -7.033483,9 -3.701172,9 3.33183,0 9.624935,-9 3.701172,-9 z m -9.099609,1 c -0.0956,-3.56e-4 -0.196818,0.0066 -0.302735,0.02148 -3.388106,0.476268 -2.196629,6.857298 -0.392578,6.976563 1.746964,0.11554 3.658958,-6.987018 0.695313,-6.998047 z m -6.195313,2.001953 c -0.07572,-0.0038 -0.15521,-0.0021 -0.236328,0.0059 -0.173051,0.01689 -0.35844,0.06149 -0.556641,0.136719 -3.171795,1.203938 -0.481942,6.173863 1.294922,5.839844 1.615052,-0.302881 1.845266,-5.865444 -0.501953,-5.982422 z M 13.855803,17 c -0.283193,-0.0081 -0.589948,0.07153 -0.916016,0.263672 -2.607362,1.537352 0.878075,5.251759 2.412109,4.675781 C 16.694178,21.435256 15.838152,17.05693 13.855803,17 Z m 12.162109,3.001953 c -4.667913,-0.08262 -10.824891,2.367206 -11.875,7.287109 C 13.005605,32.613248 18.825313,40 24.896818,40 c 2.986867,0 6.431624,-2.822139 7.076171,-6.396484 0.492271,-2.725638 -6.192647,-1.633617 -5.966796,0.169922 0.184418,1.473422 -0.586603,2.239685 -1.650391,2.263671 -1.452385,-0.176007 -2.164393,-1.014429 -2.355469,-2.28125 -0.260104,-3.326554 10.2165,-5.697343 9.386719,-10.855468 -0.303491,-1.88658 -2.568393,-2.848867 -5.36914,-2.898438 z" />
  <path
     id="path7665"
     style="fill:#ffffff;stroke-width:3.5"
     d="M 33.556974,9.0000001 C 27.633453,9.0000001 26.52349,18 29.855802,18 c 3.33183,0 9.624935,-8.9999999 3.701172,-8.9999999 z M 24.457365,10 c -0.0956,-3.559e-4 -0.196818,0.0066 -0.302735,0.02148 -3.388106,0.476268 -2.196629,6.857298 -0.392578,6.976563 1.746964,0.11554 3.658958,-6.987018 0.695313,-6.9980469 z m -6.195313,2.001953 c -0.07572,-0.0038 -0.15521,-0.0021 -0.236328,0.0059 -0.173051,0.01689 -0.35844,0.06149 -0.556641,0.136719 -3.171795,1.203938 -0.481942,6.173863 1.294922,5.839844 1.615053,-0.302881 1.845266,-5.865444 -0.501953,-5.982422 z M 13.855803,16 c -0.283193,-0.0081 -0.589948,0.07153 -0.916016,0.263672 -2.607361,1.537352 0.878075,5.251759 2.412109,4.675781 C 16.694178,20.435256 15.838154,16.05693 13.855803,16 Z m 12.162109,3.001953 c -4.667913,-0.08262 -10.824891,2.367206 -11.875,7.287109 C 13.005605,31.613248 18.825313,39 24.896818,39 c 2.986868,0 6.431624,-2.822139 7.076171,-6.396484 0.492271,-2.725638 -6.192647,-1.633617 -5.966796,0.169922 0.184418,1.473422 -0.586602,2.239685 -1.650391,2.263671 -1.452385,-0.176007 -2.164393,-1.014429 -2.355469,-2.28125 -0.260104,-3.326554 10.2165,-5.697343 9.386719,-10.855468 -0.303491,-1.88658 -2.568395,-2.848867 -5.36914,-2.898438 z" />
  <path
     id="rect2630"
     style="fill:#ffffff;fill-opacity:1;opacity:0.3"
     d="M 10,4 C 6.6760035,4 4.0000002,6.6760033 4.0000002,10 v 1 C 4.0000002,7.6760032 6.6760035,5 10,5 h 28 c 3.323997,0 6,2.6760032 6,6 V 10 C 44,6.6760033 41.323997,4 38,4 Z" />
  <path
     id="rect398"
     style="opacity:0.3;fill:#ffffff"
     d="m 4.0000001,37 v 1 c 0,3.323996 2.6760033,6 5.9999999,6 h 28 c 3.323997,0 6,-2.676004 6,-6 v -1 c 0,3.323996 -2.676003,6 -6,6 H 10 C 6.6760034,43 4.0000001,40.323996 4.0000001,37 Z" />
  <path
     id="rect899"
     style="opacity:0.5;fill:#000000;stroke:none"
     d="M 10,3 C 6.1220039,3 3,6.1220039 3,10 v 28 c 0,3.877996 3.1220039,7 7,7 h 28 c 3.877996,0 7,-3.122004 7,-7 V 10 C 45,6.1220039 41.877996,3 38,3 Z m 0,1 h 28 c 3.323997,0 6,2.6760033 6,6 v 28 c 0,3.323997 -2.676003,6 -6,6 H 10 C 6.6760033,44 4,41.323997 4,38 V 10 C 4,6.6760033 6.6760033,4 10,4 Z" />
</svg>
