<?xml version="1.0" encoding="UTF-8" standalone="no"?>
<!-- Created with Inkscape (http://www.inkscape.org/) -->

<svg
   width="48"
   height="48"
   viewBox="0 0 48 48.000002"
   version="1.1"
   id="svg5"
   sodipodi:docname="discord.svg"
   inkscape:version="1.2 (dc2aedaf03, 2022-05-15)"
   xmlns:inkscape="http://www.inkscape.org/namespaces/inkscape"
   xmlns:sodipodi="http://sodipodi.sourceforge.net/DTD/sodipodi-0.dtd"
   xmlns:xlink="http://www.w3.org/1999/xlink"
   xmlns="http://www.w3.org/2000/svg"
   xmlns:svg="http://www.w3.org/2000/svg">
  <sodipodi:namedview
     id="namedview7"
     pagecolor="#ffffff"
     bordercolor="#666666"
     borderopacity="1.0"
     inkscape:showpageshadow="2"
     inkscape:pageopacity="0.0"
     inkscape:pagecheckerboard="0"
     inkscape:deskcolor="#d1d1d1"
     inkscape:document-units="px"
     showgrid="false"
     inkscape:zoom="8.6666665"
     inkscape:cx="20.25"
     inkscape:cy="28.269231"
     inkscape:window-width="1920"
     inkscape:window-height="991"
     inkscape:window-x="0"
     inkscape:window-y="0"
     inkscape:window-maximized="1"
     inkscape:current-layer="svg5" />
  <defs
     id="defs2">
    <linearGradient
       inkscape:collect="always"
       xlink:href="#linearGradient1316"
       id="linearGradient6478"
       x1="37.5"
       y1="44.5"
       x2="9.5"
       y2="2.5"
       gradientUnits="userSpaceOnUse"
       gradientTransform="translate(0.5,0.5)" />
    <linearGradient
       inkscape:collect="always"
       id="linearGradient1316">
      <stop
         style="stop-color:#5865f2;stop-opacity:1;"
         offset="0"
         id="stop1312" />
      <stop
         style="stop-color:#558af5;stop-opacity:1;"
         offset="1"
         id="stop1314" />
    </linearGradient>
  </defs>
  <rect
     style="fill:url(#linearGradient6478);fill-opacity:1.0;stroke:none"
     id="rect184"
     width="41"
     height="41"
     x="3.5"
     y="3.5"
     ry="6.5" />
  <path
     d="m 19.899716,14.000266 0.257073,0.308789 c -4.627214,1.311026 -6.734966,3.341862 -6.734966,3.341862 0,0 0.565146,-0.308672 1.516308,-0.719986 2.750605,-1.208229 4.935975,-1.516404 5.83571,-1.619222 0.15424,-0.02577 0.282573,-0.05175 0.436814,-0.05175 1.568106,-0.205657 3.34217,-0.256868 5.193054,-0.05114 2.442143,0.282778 5.06413,1.002567 7.737627,2.442137 0,0 -2.030938,-1.927909 -6.401072,-3.238943 l 0.359986,-0.411708 c 0,0 3.52183,-0.07703 7.197873,2.673594 0,0 3.701877,6.658241 3.701877,14.858673 0,-0.02564 -2.159366,3.676057 -7.840534,3.856009 0,0 -0.925861,-1.10539 -1.697052,-2.056527 3.367567,-0.95115 4.653306,-3.033607 4.653306,-3.033607 -1.053975,0.694091 -2.056534,1.182614 -2.956254,1.516821 -1.285343,0.539823 -2.519271,0.874213 -3.72748,1.105575 -2.467841,0.462723 -4.730127,0.33379 -6.658145,-0.02611 -1.465275,-0.282771 -2.725207,-0.668072 -3.779182,-1.105091 -0.591265,-0.231361 -1.233614,-0.514234 -1.876295,-0.874125 -0.07701,-0.05141 -0.154344,-0.07702 -0.23145,-0.128536 -0.05134,-0.02564 -0.07715,-0.05127 -0.1029,-0.05127 -0.462716,-0.257058 -0.719489,-0.437325 -0.719489,-0.437325 0,0 1.23392,2.03115 4.49867,3.007992 -0.771211,0.976854 -1.722661,2.107752 -1.722661,2.107752 C 11.159366,35.234164 9,31.532484 9,31.532484 c 0,-8.200432 3.701864,-14.858673 3.701864,-14.858673 3.701767,-2.750619 7.197872,-2.673594 7.197872,-2.673594 z m -0.69388,9.485876 c -1.465281,0 -2.622395,1.25962 -2.622395,2.82774 0,1.5681 1.182811,2.827739 2.622395,2.827739 1.465289,0 2.621878,-1.259639 2.621878,-2.827739 0.02564,-1.56812 -1.156589,-2.82774 -2.621878,-2.82774 z m 9.38295,0 c -1.465281,0 -2.622402,1.25962 -2.622402,2.82774 0,1.5681 1.182818,2.827739 2.622402,2.827739 1.465269,0 2.621878,-1.259639 2.621878,-2.827739 0,-1.56812 -1.182314,-2.82774 -2.621878,-2.82774 z"
     style="display:inline;opacity:0.2;fill:#000000;stroke-width:0.681819;enable-background:new"
     id="path678" />
  <path
     d="m 19.899716,13.000266 0.257073,0.308789 c -4.627214,1.311026 -6.734966,3.341862 -6.734966,3.341862 0,0 0.565146,-0.308672 1.516308,-0.719986 2.750605,-1.208229 4.935975,-1.516404 5.83571,-1.619222 0.15424,-0.02577 0.282573,-0.05175 0.436814,-0.05175 1.568106,-0.205657 3.34217,-0.256868 5.193054,-0.05114 2.442143,0.282778 5.06413,1.002567 7.737627,2.442137 0,0 -2.030938,-1.927909 -6.401072,-3.238943 l 0.359986,-0.411708 c 0,0 3.52183,-0.07703 7.197873,2.673594 0,0 3.701877,6.658241 3.701877,14.858672 0,-0.02564 -2.159366,3.676058 -7.840534,3.856009 0,0 -0.925861,-1.10539 -1.697052,-2.056526 3.367567,-0.95115 4.653306,-3.033608 4.653306,-3.033608 -1.053975,0.694092 -2.056534,1.182614 -2.956254,1.51682 -1.285343,0.539824 -2.519271,0.874214 -3.72748,1.105575 -2.467841,0.462724 -4.730127,0.333792 -6.658145,-0.02611 -1.465275,-0.282771 -2.725207,-0.668073 -3.779182,-1.105091 -0.591265,-0.231362 -1.233614,-0.514234 -1.876295,-0.874125 -0.07701,-0.05141 -0.154344,-0.07702 -0.23145,-0.128537 -0.05134,-0.02564 -0.07715,-0.05127 -0.1029,-0.05127 -0.462716,-0.257059 -0.719489,-0.437325 -0.719489,-0.437325 0,0 1.23392,2.03115 4.49867,3.007991 -0.771211,0.976854 -1.722661,2.107752 -1.722661,2.107752 C 11.159366,34.234164 9,30.532484 9,30.532484 c 0,-8.200432 3.701864,-14.858673 3.701864,-14.858673 3.701767,-2.750619 7.197872,-2.673594 7.197872,-2.673594 z m -0.69388,9.485876 c -1.465281,0 -2.622395,1.259619 -2.622395,2.827739 0,1.5681 1.182811,2.827739 2.622395,2.827739 1.465289,0 2.621878,-1.259639 2.621878,-2.827739 0.02564,-1.56812 -1.156589,-2.827739 -2.621878,-2.827739 z m 9.38295,0 c -1.465281,0 -2.622402,1.259619 -2.622402,2.827739 0,1.5681 1.182818,2.827739 2.622402,2.827739 1.465269,0 2.621878,-1.259639 2.621878,-2.827739 0,-1.56812 -1.182314,-2.827739 -2.621878,-2.827739 z"
     style="display:inline;fill:#ffffff;stroke-width:0.681819;enable-background:new"
     id="path492"
     sodipodi:nodetypes="cccccccccccccccccccccccccccccssscssssss" />
  <path
     id="rect2630"
     style="fill:#ffffff;fill-opacity:1;opacity:0.3"
     d="M 10,4 C 6.6760035,4 4.0000002,6.6760033 4.0000002,10 v 1 C 4.0000002,7.6760032 6.6760035,5 10,5 h 28 c 3.323997,0 6,2.6760032 6,6 V 10 C 44,6.6760033 41.323997,4 38,4 Z" />
  <path
     id="rect398"
     style="opacity:0.3;fill:#ffffff"
     d="m 4.0000001,37 v 1 c 0,3.323996 2.6760033,6 5.9999999,6 h 28 c 3.323997,0 6,-2.676004 6,-6 v -1 c 0,3.323996 -2.676003,6 -6,6 H 10 C 6.6760034,43 4.0000001,40.323996 4.0000001,37 Z" />
  <path
     id="rect899"
     style="opacity:0.5;fill:#000000;stroke:none"
     d="M 10,3 C 6.1220039,3 3,6.1220039 3,10 v 28 c 0,3.877996 3.1220039,7 7,7 h 28 c 3.877996,0 7,-3.122004 7,-7 V 10 C 45,6.1220039 41.877996,3 38,3 Z m 0,1 h 28 c 3.323997,0 6,2.6760033 6,6 v 28 c 0,3.323997 -2.676003,6 -6,6 H 10 C 6.6760033,44 4,41.323997 4,38 V 10 C 4,6.6760033 6.6760033,4 10,4 Z" />
</svg>
