<?xml version="1.0" encoding="UTF-8" standalone="no"?>
<!-- Created with Inkscape (http://www.inkscape.org/) -->

<svg
   width="48"
   height="48"
   viewBox="0 0 48 48.000002"
   version="1.1"
   id="svg5"
   sodipodi:docname="disk-burner.svg"
   inkscape:version="1.2.1 (9c6d41e410, 2022-07-14)"
   xmlns:inkscape="http://www.inkscape.org/namespaces/inkscape"
   xmlns:sodipodi="http://sodipodi.sourceforge.net/DTD/sodipodi-0.dtd"
   xmlns:xlink="http://www.w3.org/1999/xlink"
   xmlns="http://www.w3.org/2000/svg"
   xmlns:svg="http://www.w3.org/2000/svg">
  <sodipodi:namedview
     id="namedview7"
     pagecolor="#ffffff"
     bordercolor="#666666"
     borderopacity="1.0"
     inkscape:showpageshadow="2"
     inkscape:pageopacity="0.0"
     inkscape:pagecheckerboard="0"
     inkscape:deskcolor="#d1d1d1"
     inkscape:document-units="px"
     showgrid="false"
     inkscape:zoom="9.4285714"
     inkscape:cx="21.583333"
     inkscape:cy="30.015151"
     inkscape:window-width="1920"
     inkscape:window-height="1007"
     inkscape:window-x="0"
     inkscape:window-y="0"
     inkscape:window-maximized="1"
     inkscape:current-layer="svg5" />
  <defs
     id="defs2">
    <linearGradient
       inkscape:collect="always"
       xlink:href="#linearGradient4853"
       id="linearGradient6478"
       x1="37.5"
       y1="44.5"
       x2="9.5"
       y2="2.5"
       gradientUnits="userSpaceOnUse"
       gradientTransform="translate(0.5,0.5)" />
    <linearGradient
       inkscape:collect="always"
       id="linearGradient4853">
      <stop
         style="stop-color:#ff5840;stop-opacity:1;"
         offset="0"
         id="stop4849" />
      <stop
         style="stop-color:#fda36d;stop-opacity:1;"
         offset="1"
         id="stop4851" />
    </linearGradient>
  </defs>
  <rect
     style="fill:url(#linearGradient6478);fill-opacity:1.0;stroke:none"
     id="rect184"
     width="41"
     height="41"
     x="3.5"
     y="3.5"
     ry="6.5" />
  <path
     id="path8495"
     style="opacity:0.2;fill:#000000;fill-opacity:1;stroke-width:0.933326;stroke-linejoin:round"
     d="M 24 11 C 16.268046 11 10 17.268046 10 25 C 10 32.731954 16.268046 39 24 39 C 31.731954 39 38 32.731954 38 25 C 38 17.268046 31.731954 11 24 11 z M 24 19 C 27.313696 19 30 21.686304 30 25 C 30 28.313696 27.313696 31 24 31 C 20.686304 31 18 28.313696 18 25 C 18 21.686304 20.686304 19 24 19 z M 24 21 C 21.79087 21 20 22.79087 20 25 C 20 27.20913 21.79087 29 24 29 C 26.20913 29 28 27.20913 28 25 C 28 22.79087 26.20913 21 24 21 z M 24 22 C 25.656847 22 27 23.343153 27 25 C 27 26.656847 25.656847 28 24 28 C 22.343153 28 21 26.656847 21 25 C 21 23.343153 22.343153 22 24 22 z " />
  <path
     id="path4048"
     style="fill:#ffffff;fill-opacity:1;stroke-width:0.933327;stroke-linejoin:round"
     d="M 24 10 C 16.268046 10 10 16.268046 10 24 C 10 31.731954 16.268046 38 24 38 C 31.731954 38 38 31.731954 38 24 C 38 16.268046 31.731954 10 24 10 z M 24 18 C 27.313696 18 30 20.686304 30 24 C 30 27.313696 27.313696 30 24 30 C 20.686304 30 18 27.313696 18 24 C 18 20.686304 20.686304 18 24 18 z M 24 20 C 21.79087 20 20 21.79087 20 24 C 20 26.20913 21.79087 28 24 28 C 26.20913 28 28 26.20913 28 24 C 28 21.79087 26.20913 20 24 20 z M 24 21 C 25.656847 21 27 22.343153 27 24 C 27 25.656847 25.656847 27 24 27 C 22.343153 27 21 25.656847 21 24 C 21 22.343153 22.343153 21 24 21 z " />
  <path
     id="rect2630"
     style="fill:#ffffff;fill-opacity:1;opacity:0.3"
     d="M 10,4 C 6.6760035,4 4.0000002,6.6760033 4.0000002,10 v 1 C 4.0000002,7.6760032 6.6760035,5 10,5 h 28 c 3.323997,0 6,2.6760032 6,6 V 10 C 44,6.6760033 41.323997,4 38,4 Z" />
  <path
     id="rect398"
     style="opacity:0.3;fill:#ffffff"
     d="m 4.0000001,37 v 1 c 0,3.323996 2.6760033,6 5.9999999,6 h 28 c 3.323997,0 6,-2.676004 6,-6 v -1 c 0,3.323996 -2.676003,6 -6,6 H 10 C 6.6760034,43 4.0000001,40.323996 4.0000001,37 Z" />
  <path
     id="rect899"
     style="opacity:0.5;fill:#000000;stroke:none"
     d="M 10,3 C 6.1220039,3 3,6.1220039 3,10 v 28 c 0,3.877996 3.1220039,7 7,7 h 28 c 3.877996,0 7,-3.122004 7,-7 V 10 C 45,6.1220039 41.877996,3 38,3 Z m 0,1 h 28 c 3.323997,0 6,2.6760033 6,6 v 28 c 0,3.323997 -2.676003,6 -6,6 H 10 C 6.6760033,44 4,41.323997 4,38 V 10 C 4,6.6760033 6.6760033,4 10,4 Z" />
</svg>
