<?xml version="1.0" encoding="UTF-8" standalone="no"?>
<!-- Created with Inkscape (http://www.inkscape.org/) -->

<svg
   width="48"
   height="48"
   viewBox="0 0 48 48.000002"
   version="1.1"
   id="svg5"
   sodipodi:docname="dolphin-emu.svg"
   inkscape:version="1.2 (1:1.2+202206011326+fc4e4096c5)"
   xmlns:inkscape="http://www.inkscape.org/namespaces/inkscape"
   xmlns:sodipodi="http://sodipodi.sourceforge.net/DTD/sodipodi-0.dtd"
   xmlns:xlink="http://www.w3.org/1999/xlink"
   xmlns="http://www.w3.org/2000/svg"
   xmlns:svg="http://www.w3.org/2000/svg">
  <sodipodi:namedview
     id="namedview7"
     pagecolor="#ffffff"
     bordercolor="#666666"
     borderopacity="1.0"
     inkscape:showpageshadow="2"
     inkscape:pageopacity="0.0"
     inkscape:pagecheckerboard="0"
     inkscape:deskcolor="#d1d1d1"
     inkscape:document-units="px"
     showgrid="false"
     inkscape:zoom="17.333333"
     inkscape:cx="24"
     inkscape:cy="24"
     inkscape:window-width="1846"
     inkscape:window-height="1053"
     inkscape:window-x="0"
     inkscape:window-y="0"
     inkscape:window-maximized="1"
     inkscape:current-layer="svg5" />
  <defs
     id="defs2">
    <linearGradient
       inkscape:collect="always"
       xlink:href="#linearGradient1744"
       id="linearGradient6478"
       x1="37.5"
       y1="44.5"
       x2="9.5"
       y2="2.5"
       gradientUnits="userSpaceOnUse"
       gradientTransform="translate(0.5,0.5)" />
    <linearGradient
       inkscape:collect="always"
       id="linearGradient1744">
      <stop
         style="stop-color:#0096f4;stop-opacity:1;"
         offset="0"
         id="stop1740" />
      <stop
         style="stop-color:#3cbff1;stop-opacity:1;"
         offset="1"
         id="stop1742" />
    </linearGradient>
  </defs>
  <rect
     style="fill:url(#linearGradient6478);fill-opacity:1.0;stroke:none"
     id="rect184"
     width="41"
     height="41"
     x="3.5"
     y="3.5"
     ry="6.5" />
  <path
     id="rect2630"
     style="fill:#ffffff;fill-opacity:1;opacity:0.3"
     d="M 10,4 C 6.6760035,4 4.0000002,6.6760033 4.0000002,10 v 1 C 4.0000002,7.6760032 6.6760035,5 10,5 h 28 c 3.323997,0 6,2.6760032 6,6 V 10 C 44,6.6760033 41.323997,4 38,4 Z" />
  <path
     id="rect398"
     style="opacity:0.3;fill:#ffffff"
     d="m 4.0000001,37 v 1 c 0,3.323996 2.6760033,6 5.9999999,6 h 28 c 3.323997,0 6,-2.676004 6,-6 v -1 c 0,3.323996 -2.676003,6 -6,6 H 10 C 6.6760034,43 4.0000001,40.323996 4.0000001,37 Z" />
  <path
     id="rect899"
     style="opacity:0.5;fill:#000000;stroke:none"
     d="M 10,3 C 6.1220039,3 3,6.1220039 3,10 v 28 c 0,3.877996 3.1220039,7 7,7 h 28 c 3.877996,0 7,-3.122004 7,-7 V 10 C 45,6.1220039 41.877996,3 38,3 Z m 0,1 h 28 c 3.323997,0 6,2.6760033 6,6 v 28 c 0,3.323997 -2.676003,6 -6,6 H 10 C 6.6760033,44 4,41.323997 4,38 V 10 C 4,6.6760033 6.6760033,4 10,4 Z" />
  <path
     d="m 29.509199,16.75608 c -1.747939,0.11135 -3.318089,1.134701 -3.611844,1.278698 -0.941168,-0.268796 -2.014429,-0.830194 -3.270472,-1.043309 -4.344619,-0.737267 -8.02128,0.439288 -9.866371,1.719906 -2.418389,1.678437 -2.351575,3.563077 -2.550866,4.345349 -0.122874,0.484599 -1.2226363,1.380071 -1.2095803,2.00867 0.0215,0.820596 0.534518,1.084781 0.534518,1.084781 0.461561,-0.0364 1.1496773,-0.364792 1.7379553,-0.607478 0.873201,-0.360952 0.940783,-0.554101 3.327304,-0.910063 1.097837,-0.165124 2.253275,-0.211199 3.113803,-0.218874 0.334075,0.706933 1.167342,2.161502 2.60962,2.858451 0.855924,0.393977 2.144605,0.569846 2.714066,0.682355 l 1.665765,0.245748 v -0.673907 h -0.0022 c 0,0 -1.397737,-0.57983 -2.257882,-1.439592 -0.364795,-0.364794 -0.364795,-0.797171 -0.466554,-1.230315 1.325162,0.249598 2.505943,0.43852 5.300456,1.508711 2.57391,0.98571 4.331638,2.417238 4.333674,2.419158 l 0.0022,0.0022 0.0043,0.0043 v -0.67391 l -0.0062,-0.0043 c -0.0235,-0.02902 -1.826274,-2.264793 -4.8589,-3.760449 -2.506328,-1.236075 -4.564954,-1.847393 -7.41603,-1.985629 -2.960974,-0.142075 -4.929363,0.199673 -5.143479,0.238073 0.253435,-0.504569 0.768371,-1.378922 2.149213,-2.02672 2.045917,-0.9596 5.262402,-1.120108 8.956112,-0.176648 5.218395,1.331304 6.998091,3.82304 9.242801,6.16567 2.387671,2.491733 4.450563,6.67876 4.452942,6.683638 l 0.0022,0.0043 0.0043,0.0105 v -0.678136 l -0.01875,-0.05375 c -0.09985,-0.334075 -0.720372,-2.351576 -1.768291,-4.285561 -1.380842,-2.547798 -2.568533,-4.36931 -4.547097,-6.219045 -1.380459,-1.029487 -2.784723,-2.431448 -2.544728,-3.036236 0.621303,-0.817139 2.306268,-1.3171 2.31241,-1.31825 h 0.0043 v -0.0022 -0.671605 c 0,0 -1.0652,-0.360954 -2.927567,-0.241923 z m 2.090462,12.019615 c 0,0 0.01675,0.01475 0,0 z"
     style="opacity:0.2;fill:#000000;stroke-width:0.749974"
     id="path1104" />
  <path
     d="m 29.509199,15.75608 c -1.747938,0.11135 -3.318088,1.134701 -3.611844,1.278698 -0.941167,-0.268796 -2.014429,-0.830194 -3.270472,-1.043309 -4.344618,-0.737267 -8.021279,0.439288 -9.86637,1.719906 -2.41839,1.678437 -2.351576,3.563077 -2.550867,4.345348 -0.122874,0.484599 -1.2226363,1.380072 -1.2095803,2.00867 0.0215,0.820596 0.534518,1.084781 0.534518,1.084781 0.461561,-0.0364 1.1496783,-0.364792 1.7379563,-0.607478 0.873201,-0.360952 0.940782,-0.5541 3.327304,-0.910063 1.097836,-0.165123 2.253275,-0.211198 3.113803,-0.218873 0.334075,0.706932 1.167341,2.161501 2.609619,2.85845 0.855924,0.393977 2.144606,0.569846 2.714066,0.682355 l 1.665765,0.245748 v -0.673907 h -0.0022 c 0,0 -1.397736,-0.57983 -2.257882,-1.439592 C 22.07822,24.72202 22.07822,24.289643 21.976461,23.8565 c 1.325162,0.249597 2.505943,0.438519 5.300456,1.50871 2.57391,0.98571 4.331638,2.417238 4.333674,2.419158 l 0.0022,0.0022 0.0043,0.0043 v -0.67391 l -0.0062,-0.0043 c -0.0235,-0.02902 -1.826274,-2.264793 -4.858899,-3.760448 -2.506328,-1.236075 -4.564955,-1.847393 -7.41603,-1.98563 -2.960974,-0.142074 -4.929363,0.199674 -5.143479,0.238074 0.253435,-0.504569 0.768371,-1.378922 2.149212,-2.02672 2.045917,-0.9596 5.262402,-1.120108 8.956113,-0.176648 5.218394,1.331304 6.99809,3.82304 9.2428,6.165669 2.387671,2.491733 4.450563,6.67876 4.452942,6.683637 l 0.0022,0.0043 0.0043,0.0105 v -0.678135 l -0.01875,-0.05375 c -0.09985,-0.334075 -0.720372,-2.351576 -1.768291,-4.285561 -1.380841,-2.547798 -2.568532,-4.369309 -4.547097,-6.219045 -1.380459,-1.029486 -2.784723,-2.431448 -2.544727,-3.036235 0.621302,-0.817139 2.306267,-1.3171 2.312409,-1.31825 h 0.0043 v -0.0022 -0.671605 c 0,0 -1.065199,-0.360954 -2.927567,-0.241923 z m 2.090462,12.019614 c 0,0 0.01675,0.01475 0,0 z"
     style="fill:#ffffff;stroke-width:0.749974"
     id="path358"
     sodipodi:nodetypes="cccccccccccccccccsccccccccccccccccccccccccccc" />
</svg>
