<?xml version="1.0" encoding="UTF-8" standalone="no"?>
<!-- Created with Inkscape (http://www.inkscape.org/) -->

<svg
   width="48"
   height="48"
   viewBox="0 0 48 48.000002"
   version="1.1"
   id="svg5"
   sodipodi:docname="extensions.svg"
   inkscape:version="1.2.1 (9c6d41e410, 2022-07-14)"
   xmlns:inkscape="http://www.inkscape.org/namespaces/inkscape"
   xmlns:sodipodi="http://sodipodi.sourceforge.net/DTD/sodipodi-0.dtd"
   xmlns:xlink="http://www.w3.org/1999/xlink"
   xmlns="http://www.w3.org/2000/svg"
   xmlns:svg="http://www.w3.org/2000/svg">
  <sodipodi:namedview
     id="namedview7"
     pagecolor="#ffffff"
     bordercolor="#666666"
     borderopacity="1.0"
     inkscape:showpageshadow="2"
     inkscape:pageopacity="0.0"
     inkscape:pagecheckerboard="0"
     inkscape:deskcolor="#d1d1d1"
     inkscape:document-units="px"
     showgrid="false"
     inkscape:zoom="16.666667"
     inkscape:cx="24"
     inkscape:cy="24"
     inkscape:window-width="1920"
     inkscape:window-height="1012"
     inkscape:window-x="0"
     inkscape:window-y="0"
     inkscape:window-maximized="1"
     inkscape:current-layer="svg5" />
  <defs
     id="defs2">
    <linearGradient
       inkscape:collect="always"
       id="linearGradient1270">
      <stop
         style="stop-color:#80d935;stop-opacity:1;"
         offset="0"
         id="stop1266" />
      <stop
         style="stop-color:#afd65f;stop-opacity:1;"
         offset="1"
         id="stop1268" />
    </linearGradient>
    <linearGradient
       inkscape:collect="always"
       xlink:href="#linearGradient1270"
       id="linearGradient6478"
       x1="37.5"
       y1="44.5"
       x2="9.5"
       y2="2.5"
       gradientUnits="userSpaceOnUse"
       gradientTransform="translate(0.5,0.5)" />
  </defs>
  <rect
     style="fill:url(#linearGradient6478);fill-opacity:1.0;stroke:none"
     id="rect184"
     width="41"
     height="41"
     x="3.5"
     y="3.5"
     ry="6.5" />
  <path
     d="m 23,10 c -2.215998,0 -4,1.784004 -4,4.000002 v 2 H 14.691406 C 12.645808,16.000002 11,17.64587 11,19.691408 V 24 h 2 c 2.215996,0 4,1.784004 4,4.000002 0,2.215996 -1.784004,4 -4,4 h -2 v 4.308594 c 0,2.045598 1.645868,3.691406 3.691406,3.691406 H 19 v -2 c 0,-2.215996 1.784004,-4 4,-4 2.215996,0 4,1.784004 4,4 v 2 h 4.308594 C 33.35419,40.000002 35,38.354134 35,36.308596 v -4.308594 h 2 c 2.215994,0 4,-1.784002 4,-4 C 41,25.784002 39.215994,24 37,24 H 35 V 19.691408 C 35,17.64581 33.354134,16.000002 31.308594,16.000002 H 27 v -2 C 27,11.784004 25.215998,10 23,10 Z"
     style="opacity:0.2;fill:#000000;fill-opacity:1;stroke-width:2"
     id="path3587" />
  <path
     d="m 23,9 c -2.215998,0 -4,1.784003 -4,3.999999 V 15 H 14.691406 C 12.645808,15 11,16.64587 11,18.691408 V 23 h 2 c 2.215996,0 4,1.784004 4,4 0,2.215996 -1.784004,4 -4,4 h -2 v 4.308594 C 11,37.354192 12.645868,39 14.691406,39 H 19 v -2 c 0,-2.215996 1.784004,-4 4,-4 2.215996,0 4,1.784004 4,4 v 2 h 4.308594 C 33.354192,39 35,37.354132 35,35.308594 V 31 h 2 c 2.215996,0 4,-1.784002 4,-4 0,-2.215998 -1.784004,-4 -4,-4 H 35 V 18.691408 C 35,16.64581 33.354134,15 31.308594,15 H 27 V 12.999999 C 27,10.784003 25.215998,9 23,9 Z"
     style="fill:#ffffff;fill-opacity:1;stroke-width:2"
     id="path3401"
     sodipodi:nodetypes="sscsscssscsscssscsscssscsscss" />
  <path
     id="rect2630"
     style="fill:#ffffff;fill-opacity:1;opacity:0.3"
     d="M 10,4 C 6.6760035,4 4.0000002,6.6760033 4.0000002,10 v 1 C 4.0000002,7.6760032 6.6760035,5 10,5 h 28 c 3.323997,0 6,2.6760032 6,6 V 10 C 44,6.6760033 41.323997,4 38,4 Z" />
  <path
     id="rect398"
     style="opacity:0.3;fill:#ffffff"
     d="m 4.0000001,37 v 1 c 0,3.323996 2.6760033,6 5.9999999,6 h 28 c 3.323997,0 6,-2.676004 6,-6 v -1 c 0,3.323996 -2.676003,6 -6,6 H 10 C 6.6760034,43 4.0000001,40.323996 4.0000001,37 Z" />
  <path
     id="rect899"
     style="opacity:0.5;fill:#000000;stroke:none"
     d="M 10,3 C 6.1220039,3 3,6.1220039 3,10 v 28 c 0,3.877996 3.1220039,7 7,7 h 28 c 3.877996,0 7,-3.122004 7,-7 V 10 C 45,6.1220039 41.877996,3 38,3 Z m 0,1 h 28 c 3.323997,0 6,2.6760033 6,6 v 28 c 0,3.323997 -2.676003,6 -6,6 H 10 C 6.6760033,44 4,41.323997 4,38 V 10 C 4,6.6760033 6.6760033,4 10,4 Z" />
</svg>
