<?xml version="1.0" encoding="UTF-8" standalone="no"?>
<!-- Created with Inkscape (http://www.inkscape.org/) -->

<svg
   width="48"
   height="48"
   viewBox="0 0 48 48.000002"
   version="1.1"
   id="svg5"
   sodipodi:docname="firefox.svg"
   inkscape:version="1.2 (1:1.2+202206011326+fc4e4096c5)"
   xmlns:inkscape="http://www.inkscape.org/namespaces/inkscape"
   xmlns:sodipodi="http://sodipodi.sourceforge.net/DTD/sodipodi-0.dtd"
   xmlns:xlink="http://www.w3.org/1999/xlink"
   xmlns="http://www.w3.org/2000/svg"
   xmlns:svg="http://www.w3.org/2000/svg">
  <sodipodi:namedview
     id="namedview7"
     pagecolor="#ffffff"
     bordercolor="#666666"
     borderopacity="1.0"
     inkscape:showpageshadow="2"
     inkscape:pageopacity="0.0"
     inkscape:pagecheckerboard="0"
     inkscape:deskcolor="#d1d1d1"
     inkscape:document-units="px"
     showgrid="false"
     inkscape:zoom="13"
     inkscape:cx="43.307692"
     inkscape:cy="35.230769"
     inkscape:window-width="1846"
     inkscape:window-height="1053"
     inkscape:window-x="0"
     inkscape:window-y="0"
     inkscape:window-maximized="1"
     inkscape:current-layer="svg5" />
  <defs
     id="defs2">
    <linearGradient
       inkscape:collect="always"
       id="linearGradient3523">
      <stop
         style="stop-color:#ff7139;stop-opacity:1;"
         offset="0"
         id="stop3519" />
      <stop
         style="stop-color:#ffb439;stop-opacity:1;"
         offset="1"
         id="stop3521" />
    </linearGradient>
    <linearGradient
       inkscape:collect="always"
       xlink:href="#linearGradient3523"
       id="linearGradient6478"
       x1="37.5"
       y1="44.5"
       x2="9.5"
       y2="2.5"
       gradientUnits="userSpaceOnUse"
       gradientTransform="translate(0.5,0.5)" />
  </defs>
  <rect
     style="fill:url(#linearGradient6478);fill-opacity:1;stroke:none"
     id="rect184"
     width="41"
     height="41"
     x="3.5"
     y="3.5"
     ry="6.5" />
  <path
     d="m 20.170126,19.318526 c 0.0092,5.6e-4 0.0049,1.75e-4 0,0 z m -3.375988,-1.687763 c 0.0092,3.85e-4 0.0049,1.82e-4 0,0 z m 20.196651,2.605988 c -0.60929,-1.465506 -1.84333,-3.0478 -2.81231,-3.547838 0.78867,1.545838 1.24513,3.097094 1.41954,4.254544 0,0.0021 7e-4,0.0079 0.003,0.02331 -1.58521,-3.951038 -4.27315,-5.544414 -6.46835,-9.013208 -0.11083,-0.175469 -0.22196,-0.351288 -0.33023,-0.536669 -0.0552,-0.09466 -0.10664,-0.191408 -0.15435,-0.290031 -0.091,-0.17598 -0.16116,-0.361956 -0.20912,-0.554169 7e-4,-0.0189 -0.0131,-0.03521 -0.0318,-0.03759 -0.009,-0.0028 -0.0177,-0.0028 -0.0263,0 -0.002,5.6e-4 -0.005,0.0028 -0.007,0.0035 -0.003,0.0014 -0.007,0.0042 -0.0103,0.0056 0.001,-0.0021 0.005,-0.007 0.006,-0.0079 -3.117167,1.825838 -4.409248,5.022095 -4.741454,7.056589 -0.963109,0.05474 -1.906506,0.295456 -2.77807,0.708925 -0.164185,0.08123 -0.240695,0.273189 -0.177394,0.445088 0.06769,0.195846 0.289107,0.291109 0.47787,0.205625 0.760417,-0.358792 1.580957,-0.572943 2.419725,-0.631519 0.0273,-0.0021 0.05467,-0.0035 0.08196,-0.0056 0.115227,-0.007 0.230608,-0.01113 0.346038,-0.01232 0.680596,-0.0049 1.358287,0.08912 2.011975,0.278656 0.03815,0.0112 0.07554,0.02415 0.113512,0.03591 0.108556,0.03318 0.216293,0.06902 0.323113,0.10745 0.07815,0.02905 0.155785,0.05943 0.232862,0.09124 0.06265,0.02534 0.1253,0.05061 0.187019,0.07764 0.09629,0.0427 0.191598,0.08754 0.285844,0.134568 0.0433,0.02149 0.0866,0.04291 0.12932,0.06517 0.092,0.0483 0.18293,0.09859 0.27271,0.150906 0.058,0.0336 0.11535,0.06818 0.1722,0.1036 1.01549,0.628243 1.85816,1.49996 2.45163,2.536164 -0.74859,-0.525876 -2.08891,-1.04522 -3.380241,-0.820639 5.042391,2.52082 3.688651,11.201584 -3.298463,10.873809 -0.622223,-0.02534 -1.237117,-0.143941 -1.824144,-0.351806 -0.138845,-0.05215 -0.276164,-0.10829 -0.411775,-0.16835 -0.0791,-0.03605 -0.158145,-0.07251 -0.236307,-0.112875 -1.712025,-0.8848 -3.125682,-2.556925 -3.302313,-4.587514 0,0 0.647094,-2.411206 4.633595,-2.411206 0.430969,0 1.662969,-1.202488 1.685838,-1.551263 -0.0049,-0.113925 -2.445163,-1.084419 -3.396345,-2.021601 -0.508319,-0.500794 -0.749644,-0.742175 -0.963319,-0.923356 -0.115976,-0.09791 -0.237195,-0.189434 -0.363125,-0.274169 -0.319557,-1.117921 -0.333144,-2.301131 -0.03934,-3.426095 -1.440075,0.655782 -2.56025,1.692307 -3.374525,2.607501 h -0.0063 c -0.5558,-0.703906 -0.516537,-3.025926 -0.484862,-3.510739 -0.007,-0.0301 -0.414575,0.21175 -0.468069,0.24815 -0.490378,0.350077 -0.948836,0.742826 -1.37002,1.17367 -0.479269,0.48601 -0.917175,1.011136 -1.309175,1.569925 0,7e-4 -3.85e-4,0.0014 -5.6e-4,0.0021 0,-7e-4 3.85e-4,-0.0014 5.6e-4,-0.0021 -0.901439,1.27757 -1.540721,2.721131 -1.8809,4.247258 -0.0035,0.01547 -0.133588,0.586481 -0.228669,1.291906 -0.0161,0.109718 -0.03108,0.219604 -0.04487,0.329644 -0.03255,0.2121 -0.05789,0.443331 -0.08283,0.803075 -0.0014,0.01393 -0.0021,0.02765 -0.0028,0.04151 -0.01043,0.155393 -0.01974,0.310856 -0.02807,0.466375 0,0.02394 -0.0014,0.0476 -0.0014,0.07158 0,7.741364 6.27667,14.01693 14.018909,14.01693 6.9338,0 12.69095,-5.033472 13.81813,-11.645092 0.0237,-0.179375 0.0427,-0.3598 0.0637,-0.54075 0.27866,-2.403919 -0.0309,-4.930632 -0.9093,-7.043583 z"
     style="display:inline;opacity:0.2;fill:#000000;stroke-width:0.0583334;enable-background:new"
     id="path4039" />
  <path
     d="m 20.170123,18.318976 c 0.0092,5.6e-4 0.0049,1.75e-4 0,0 z m -3.375988,-1.687763 c 0.0092,3.85e-4 0.0049,1.82e-4 0,0 z m 20.196651,2.605988 c -0.60929,-1.465506 -1.84333,-3.0478 -2.81231,-3.547838 0.78867,1.545838 1.24513,3.097094 1.41954,4.254544 0,0.0021 7e-4,0.0079 0.003,0.02331 -1.58521,-3.951039 -4.27315,-5.544413 -6.46835,-9.013208 -0.11083,-0.175469 -0.22196,-0.351288 -0.33023,-0.536669 -0.0552,-0.09466 -0.10664,-0.191408 -0.15435,-0.290031 -0.091,-0.17598 -0.16116,-0.361956 -0.20912,-0.554169 7e-4,-0.0189 -0.0131,-0.03521 -0.0318,-0.03759 -0.009,-0.0028 -0.0177,-0.0028 -0.0263,0 -0.002,5.6e-4 -0.005,0.0028 -0.007,0.0035 -0.003,0.0014 -0.007,0.0042 -0.0103,0.0056 0.001,-0.0021 0.005,-0.007 0.006,-0.0079 -3.117167,1.825838 -4.409248,5.022094 -4.741454,7.056589 -0.963109,0.05474 -1.906506,0.295456 -2.77807,0.708925 -0.164185,0.08123 -0.240695,0.273189 -0.177394,0.445088 0.06769,0.195846 0.289107,0.291109 0.47787,0.205625 0.760417,-0.358792 1.580957,-0.572943 2.419725,-0.631519 0.0273,-0.0021 0.05467,-0.0035 0.08196,-0.0056 0.115227,-0.007 0.230608,-0.01113 0.346038,-0.01232 0.680596,-0.0049 1.358287,0.08912 2.011975,0.278656 0.03815,0.0112 0.07554,0.02415 0.113512,0.03591 0.108556,0.03318 0.216293,0.06902 0.323113,0.10745 0.07815,0.02905 0.155785,0.05943 0.232862,0.09124 0.06265,0.02534 0.1253,0.05061 0.187019,0.07764 0.09629,0.0427 0.191598,0.08754 0.285844,0.134568 0.0433,0.02149 0.0866,0.04291 0.12932,0.06517 0.092,0.0483 0.18293,0.09859 0.27271,0.150906 0.058,0.0336 0.11535,0.06818 0.1722,0.1036 1.01549,0.628243 1.85816,1.49996 2.45163,2.536163 -0.74859,-0.525875 -2.08891,-1.045219 -3.380241,-0.820638 5.042391,2.52082 3.688651,11.201584 -3.298463,10.873809 -0.622223,-0.02534 -1.237117,-0.143941 -1.824144,-0.351806 -0.138845,-0.05215 -0.276164,-0.10829 -0.411775,-0.16835 -0.0791,-0.03605 -0.158145,-0.07251 -0.236307,-0.112875 -1.712025,-0.8848 -3.125682,-2.556926 -3.302313,-4.587514 0,0 0.647094,-2.411206 4.633595,-2.411206 0.430969,0 1.662969,-1.202488 1.685838,-1.551263 -0.0049,-0.113925 -2.445163,-1.08442 -3.396345,-2.021601 -0.508319,-0.500794 -0.749644,-0.742175 -0.963319,-0.923356 -0.115976,-0.09791 -0.237195,-0.189434 -0.363125,-0.274169 -0.319557,-1.117921 -0.333144,-2.301131 -0.03934,-3.426095 -1.440075,0.655781 -2.56025,1.692307 -3.374525,2.607501 h -0.0063 c -0.5558,-0.703906 -0.516537,-3.025926 -0.484862,-3.510739 -0.007,-0.0301 -0.414575,0.21175 -0.468069,0.24815 -0.490378,0.350077 -0.948836,0.742826 -1.37002,1.173669 -0.479269,0.486011 -0.917175,1.011137 -1.309175,1.569926 0,7e-4 -3.85e-4,0.0014 -5.6e-4,0.0021 0,-7e-4 3.85e-4,-0.0014 5.6e-4,-0.0021 -0.901439,1.27757 -1.540721,2.721131 -1.8809,4.247258 -0.0035,0.01547 -0.133588,0.586481 -0.228669,1.291906 -0.0161,0.109718 -0.03108,0.219604 -0.04487,0.329644 -0.03255,0.2121 -0.05789,0.443331 -0.08283,0.803075 -0.0014,0.01393 -0.0021,0.02765 -0.0028,0.04151 -0.01043,0.155393 -0.01974,0.310856 -0.02807,0.466375 0,0.02394 -0.0014,0.0476 -0.0014,0.07157 0,7.741364 6.2766701,14.016928 14.0189091,14.016928 6.9338,0 12.69095,-5.03347 13.81813,-11.64509 0.0237,-0.179375 0.0427,-0.3598 0.0637,-0.54075 0.27866,-2.403919 -0.0309,-4.930632 -0.9093,-7.043583 z"
     style="display:inline;fill:#ffffff;stroke-width:0.0583334;enable-background:new"
     id="path606"
     sodipodi:nodetypes="ccccccccccccccccccccccccccccccccccccccccscccccccccccccccccccsscccc" />
  <path
     id="rect2630"
     style="fill:#ffffff;fill-opacity:1;opacity:0.3"
     d="M 10,4 C 6.6760035,4 4.0000002,6.6760033 4.0000002,10 v 1 C 4.0000002,7.6760032 6.6760035,5 10,5 h 28 c 3.323997,0 6,2.6760032 6,6 V 10 C 44,6.6760033 41.323997,4 38,4 Z" />
  <path
     id="rect398"
     style="opacity:0.3;fill:#ffffff"
     d="m 4.0000001,37 v 1 c 0,3.323996 2.6760033,6 5.9999999,6 h 28 c 3.323997,0 6,-2.676004 6,-6 v -1 c 0,3.323996 -2.676003,6 -6,6 H 10 C 6.6760034,43 4.0000001,40.323996 4.0000001,37 Z" />
  <path
     id="rect899"
     style="opacity:0.5;fill:#000000;stroke:none"
     d="M 10,3 C 6.1220039,3 3,6.1220039 3,10 v 28 c 0,3.877996 3.1220039,7 7,7 h 28 c 3.877996,0 7,-3.122004 7,-7 V 10 C 45,6.1220039 41.877996,3 38,3 Z m 0,1 h 28 c 3.323997,0 6,2.6760033 6,6 v 28 c 0,3.323997 -2.676003,6 -6,6 H 10 C 6.6760033,44 4,41.323997 4,38 V 10 C 4,6.6760033 6.6760033,4 10,4 Z" />
</svg>
