<?xml version="1.0" encoding="UTF-8" standalone="no"?>
<!-- Created with Inkscape (http://www.inkscape.org/) -->

<svg
   width="48"
   height="48"
   viewBox="0 0 48 48.000002"
   version="1.1"
   id="svg5"
   sodipodi:docname="firewall.svg"
   inkscape:version="1.2.1 (9c6d41e410, 2022-07-14)"
   xmlns:inkscape="http://www.inkscape.org/namespaces/inkscape"
   xmlns:sodipodi="http://sodipodi.sourceforge.net/DTD/sodipodi-0.dtd"
   xmlns:xlink="http://www.w3.org/1999/xlink"
   xmlns="http://www.w3.org/2000/svg"
   xmlns:svg="http://www.w3.org/2000/svg">
  <sodipodi:namedview
     id="namedview7"
     pagecolor="#ffffff"
     bordercolor="#666666"
     borderopacity="1.0"
     inkscape:showpageshadow="2"
     inkscape:pageopacity="0.0"
     inkscape:pagecheckerboard="0"
     inkscape:deskcolor="#d1d1d1"
     inkscape:document-units="px"
     showgrid="false"
     inkscape:zoom="6.6670069"
     inkscape:cx="-0.8249579"
     inkscape:cy="27.373603"
     inkscape:window-width="1920"
     inkscape:window-height="1007"
     inkscape:window-x="0"
     inkscape:window-y="0"
     inkscape:window-maximized="1"
     inkscape:current-layer="svg5"
     showguides="true" />
  <defs
     id="defs2">
    <linearGradient
       inkscape:collect="always"
       xlink:href="#linearGradient5495"
       id="linearGradient6478"
       x1="23.5"
       y1="44.5"
       x2="23.5"
       y2="2.5"
       gradientUnits="userSpaceOnUse"
       gradientTransform="translate(0.5,0.5)" />
    <linearGradient
       inkscape:collect="always"
       id="linearGradient1093">
      <stop
         style="stop-color:#981b1b;stop-opacity:1;"
         offset="0"
         id="stop1089" />
      <stop
         style="stop-color:#c75349;stop-opacity:1;"
         offset="1"
         id="stop1091" />
    </linearGradient>
    <linearGradient
       inkscape:collect="always"
       id="linearGradient5495">
      <stop
         style="stop-color:#d8b99f;stop-opacity:1;"
         offset="0"
         id="stop5491" />
      <stop
         style="stop-color:#e9d1c2;stop-opacity:1;"
         offset="1"
         id="stop5493" />
    </linearGradient>
    <linearGradient
       inkscape:collect="always"
       xlink:href="#linearGradient1093"
       id="linearGradient20749"
       x1="24"
       y1="45"
       x2="24"
       y2="3"
       gradientUnits="userSpaceOnUse" />
  </defs>
  <rect
     style="fill:url(#linearGradient6478);fill-opacity:1.0;stroke:none"
     id="rect184"
     width="41"
     height="41"
     x="3.5"
     y="3.5"
     ry="6.5" />
  <path
     id="rect5196"
     style="fill:url(#linearGradient20749);stroke-linecap:round;stroke-linejoin:round;fill-opacity:1"
     d="M 10 3.5 C 7.9120084 3.5 6.064605 4.4789494 4.8769531 6 L 13 6 C 13.553998 6 14 5.5539988 14 5 L 14 3.5 L 10 3.5 z M 15 3.5 L 15 5 C 15 5.5539988 15.446002 6 16 6 L 26 6 C 26.553998 6 27 5.5539988 27 5 L 27 3.5 L 15 3.5 z M 28 3.5 L 28 5 C 28 5.5539988 28.446002 6 29 6 L 39 6 C 39.553998 6 40 5.5539988 40 5 L 40 3.8144531 C 39.370135 3.612171 38.698791 3.5 38 3.5 L 28 3.5 z M 41 4.234375 L 41 5 C 41 5.5539988 41.446002 6 42 6 L 43.123047 6 C 42.552243 5.26896 41.830158 4.6654506 41 4.234375 z M 4.234375 7 C 3.7685259 7.8971245 3.5 8.9155288 3.5 10 L 3.5 13 L 7 13 C 7.5539988 13 8 12.553998 8 12 L 8 8 C 8 7.4460012 7.5539988 7 7 7 L 4.234375 7 z M 10 7 C 9.4460012 7 9 7.4460012 9 8 L 9 12 C 9 12.553998 9.4460012 13 10 13 L 20 13 C 20.553998 13 21 12.553998 21 12 L 21 8 C 21 7.4460012 20.553998 7 20 7 L 10 7 z M 23 7 C 22.446002 7 22 7.4460012 22 8 L 22 12 C 22 12.553998 22.446002 13 23 13 L 33 13 C 33.553998 13 34 12.553998 34 12 L 34 8 C 34 7.4460012 33.553998 7 33 7 L 23 7 z M 36 7 C 35.446002 7 35 7.4460012 35 8 L 35 12 C 35 12.553998 35.446002 13 36 13 L 44.5 13 L 44.5 10 C 44.5 8.9155288 44.231474 7.8971245 43.765625 7 L 36 7 z M 3.5 14 L 3.5 20 L 13 20 C 13.553998 20 14 19.553998 14 19 L 14 15 C 14 14.446002 13.553998 14 13 14 L 3.5 14 z M 16 14 C 15.446002 14 15 14.446002 15 15 L 15 19 C 15 19.553998 15.446002 20 16 20 L 26 20 C 26.553998 20 27 19.553998 27 19 L 27 15 C 27 14.446002 26.553998 14 26 14 L 16 14 z M 29 14 C 28.446002 14 28 14.446002 28 15 L 28 19 C 28 19.553998 28.446002 20 29 20 L 39 20 C 39.553998 20 40 19.553998 40 19 L 40 15 C 40 14.446002 39.553998 14 39 14 L 29 14 z M 42 14 C 41.446002 14 41 14.446002 41 15 L 41 19 C 41 19.553998 41.446002 20 42 20 L 44.5 20 L 44.5 14 L 42 14 z M 3.5 21 L 3.5 27 L 7 27 C 7.5539988 27 8 26.553998 8 26 L 8 22 C 8 21.446002 7.5539988 21 7 21 L 3.5 21 z M 10 21 C 9.4460012 21 9 21.446002 9 22 L 9 26 C 9 26.553998 9.4460012 27 10 27 L 20 27 C 20.553998 27 21 26.553998 21 26 L 21 22 C 21 21.446002 20.553998 21 20 21 L 10 21 z M 23 21 C 22.446002 21 22 21.446002 22 22 L 22 26 C 22 26.553998 22.446002 27 23 27 L 33 27 C 33.553998 27 34 26.553998 34 26 L 34 22 C 34 21.446002 33.553998 21 33 21 L 23 21 z M 36 21 C 35.446002 21 35 21.446002 35 22 L 35 26 C 35 26.553998 35.446002 27 36 27 L 44.5 27 L 44.5 21 L 36 21 z M 3.5 28 L 3.5 34 L 13 34 C 13.553998 34 14 33.553998 14 33 L 14 29 C 14 28.446002 13.553998 28 13 28 L 3.5 28 z M 16 28 C 15.446002 28 15 28.446002 15 29 L 15 33 C 15 33.553998 15.446002 34 16 34 L 26 34 C 26.553998 34 27 33.553998 27 33 L 27 29 C 27 28.446002 26.553998 28 26 28 L 16 28 z M 29 28 C 28.446002 28 28 28.446002 28 29 L 28 33 C 28 33.553998 28.446002 34 29 34 L 39 34 C 39.553998 34 40 33.553998 40 33 L 40 29 C 40 28.446002 39.553998 28 39 28 L 29 28 z M 42 28 C 41.446002 28 41 28.446002 41 29 L 41 33 C 41 33.553998 41.446002 34 42 34 L 44.5 34 L 44.5 28 L 42 28 z M 3.5 35 L 3.5 38 C 3.5 39.084471 3.7685259 40.102875 4.234375 41 L 7 41 C 7.5539988 41 8 40.553998 8 40 L 8 36 C 8 35.446002 7.5539988 35 7 35 L 3.5 35 z M 10 35 C 9.4460012 35 9 35.446002 9 36 L 9 40 C 9 40.553998 9.4460012 41 10 41 L 20 41 C 20.553998 41 21 40.553998 21 40 L 21 36 C 21 35.446002 20.553998 35 20 35 L 10 35 z M 23 35 C 22.446002 35 22 35.446002 22 36 L 22 40 C 22 40.553998 22.446002 41 23 41 L 33 41 C 33.553998 41 34 40.553998 34 40 L 34 36 C 34 35.446002 33.553998 35 33 35 L 23 35 z M 36 35 C 35.446002 35 35 35.446002 35 36 L 35 40 C 35 40.553998 35.446002 41 36 41 L 43.765625 41 C 44.231474 40.102875 44.5 39.084471 44.5 38 L 44.5 35 L 36 35 z M 4.8769531 42 C 6.064605 43.521051 7.9120084 44.5 10 44.5 L 14 44.5 L 14 43 C 14 42.446002 13.553998 42 13 42 L 4.8769531 42 z M 16 42 C 15.446002 42 15 42.446002 15 43 L 15 44.5 L 27 44.5 L 27 43 C 27 42.446002 26.553998 42 26 42 L 16 42 z M 29 42 C 28.446002 42 28 42.446002 28 43 L 28 44.5 L 38 44.5 C 38.698791 44.5 39.370135 44.387829 40 44.185547 L 40 43 C 40 42.446002 39.553998 42 39 42 L 29 42 z M 42 42 C 41.446002 42 41 42.446002 41 43 L 41 43.765625 C 41.830158 43.334549 42.552243 42.73104 43.123047 42 L 42 42 z " />
  <path
     id="rect2630"
     style="fill:#ffffff;fill-opacity:1;opacity:0.3"
     d="M 10,4 C 6.6760035,4 4.0000002,6.6760033 4.0000002,10 v 1 C 4.0000002,7.6760032 6.6760035,5 10,5 h 28 c 3.323997,0 6,2.6760032 6,6 V 10 C 44,6.6760033 41.323997,4 38,4 Z" />
  <path
     id="rect398"
     style="opacity:0.3;fill:#ffffff"
     d="m 4.0000001,37 v 1 c 0,3.323996 2.6760033,6 5.9999999,6 h 28 c 3.323997,0 6,-2.676004 6,-6 v -1 c 0,3.323996 -2.676003,6 -6,6 H 10 C 6.6760034,43 4.0000001,40.323996 4.0000001,37 Z" />
  <path
     id="rect899"
     style="opacity:0.5;fill:#000000;stroke:none"
     d="M 10,3 C 6.1220039,3 3,6.1220039 3,10 v 28 c 0,3.877996 3.1220039,7 7,7 h 28 c 3.877996,0 7,-3.122004 7,-7 V 10 C 45,6.1220039 41.877996,3 38,3 Z m 0,1 h 28 c 3.323997,0 6,2.6760033 6,6 v 28 c 0,3.323997 -2.676003,6 -6,6 H 10 C 6.6760033,44 4,41.323997 4,38 V 10 C 4,6.6760033 6.6760033,4 10,4 Z" />
</svg>
