<?xml version="1.0" encoding="UTF-8" standalone="no"?>
<!-- Created with Inkscape (http://www.inkscape.org/) -->

<svg
   width="48"
   height="48"
   viewBox="0 0 48 48.000002"
   version="1.1"
   id="svg5"
   sodipodi:docname="gnome-mines.svg"
   inkscape:version="1.2.1 (9c6d41e410, 2022-07-14)"
   xmlns:inkscape="http://www.inkscape.org/namespaces/inkscape"
   xmlns:sodipodi="http://sodipodi.sourceforge.net/DTD/sodipodi-0.dtd"
   xmlns:xlink="http://www.w3.org/1999/xlink"
   xmlns="http://www.w3.org/2000/svg"
   xmlns:svg="http://www.w3.org/2000/svg">
  <sodipodi:namedview
     id="namedview7"
     pagecolor="#ffffff"
     bordercolor="#666666"
     borderopacity="1.0"
     inkscape:showpageshadow="2"
     inkscape:pageopacity="0.0"
     inkscape:pagecheckerboard="0"
     inkscape:deskcolor="#d1d1d1"
     inkscape:document-units="px"
     showgrid="false"
     inkscape:zoom="16.5"
     inkscape:cx="23.606061"
     inkscape:cy="24"
     inkscape:window-width="1920"
     inkscape:window-height="1002"
     inkscape:window-x="0"
     inkscape:window-y="0"
     inkscape:window-maximized="1"
     inkscape:current-layer="svg5"
     showguides="false" />
  <defs
     id="defs2">
    <linearGradient
       inkscape:collect="always"
       xlink:href="#linearGradient3585"
       id="linearGradient6478"
       x1="37.5"
       y1="44.5"
       x2="9.5"
       y2="2.5"
       gradientUnits="userSpaceOnUse"
       gradientTransform="translate(0.5,0.5)" />
    <linearGradient
       inkscape:collect="always"
       id="linearGradient3585">
      <stop
         style="stop-color:#adb2b9;stop-opacity:1;"
         offset="0"
         id="stop3581" />
      <stop
         style="stop-color:#e6e6e6;stop-opacity:1"
         offset="1"
         id="stop3583" />
    </linearGradient>
  </defs>
  <rect
     style="fill:url(#linearGradient6478);fill-opacity:1;stroke:none"
     id="rect184"
     width="41"
     height="41"
     x="3.5"
     y="3.5"
     ry="6.5" />
  <path
     d="M 23.9375,9 C 22.79926,9 22.07368,9.8362201 22,10.9375 v 2 0.250001 c 0.1042,1.00782 0.9658,1.8125 2,1.8125 0.25856,0 0.52284,-0.0338 0.75,-0.125 0.6835,-0.27356 1.17182,-0.93162 1.25,-1.6875 V 12.9375 11 C 26,9.8962601 25.07574,9 23.9375,9 Z m -3.875,4.687501 c -1.31716,0.46628 -2.55672,1.20044 -3.625,2.0625 0.46224,0.33412 0.84994,0.73872 1.125,1.25 0.008,0.014 -0.008,0.0478 0,0.0624 0.1246,0.24074 0.24322,0.482 0.3125,0.75 0.006,0.02 -0.004,0.0432 0,0.0624 0.0652,0.27008 0.125,0.58496 0.125,0.875 0,0.25456 -0.014,0.50996 -0.0624,0.75 -0.0482,0.24004 -0.1582,0.46692 -0.25,0.6875 -0.5503,1.3235 -1.81096,2.25 -3.3125,2.25 -0.7177,0 -1.31202,-0.1964 -1.875,-0.5625 -0.0806,0.22816 -0.2,0.44298 -0.25,0.6875 -0.004,0.018 0.004,0.0438 0,0.0624 -0.074,0.3712 -0.1486,0.7423 -0.1874,1.125 -0.002,0.0216 0.002,0.0408 0,0.0624 -0.0372,0.38384 -0.0626,0.79394 -0.0626,1.1875 0,0.0206 -10e-5,0.0418 0,0.0624 -10e-5,0.0206 0,0.0418 0,0.0624 0.004,0.372 0.0256,0.76184 0.0624,1.125 0.004,0.0416 -0.004,0.0834 0,0.125 0.0404,0.36088 0.1158,0.71202 0.1874,1.0625 0.0666,0.34576 0.1522,0.6676 0.25,1 0.74196,-0.43022 1.58834,-0.59738 2.125,-0.625 0.72454,-0.0372 1.40084,0.1744 1.9375,0.5625 0.53666,0.3882 0.93932,0.9007 1.1875,1.5625 0.0828,0.21836 0.1442,0.44906 0.1874,0.6875 0.05,0.25716 0.0624,0.47686 0.0624,0.75 0,1.0131 -0.82974,2.34702 -1.4375,3 0.24624,0.1924 0.48626,0.38616 0.75,0.5625 0.31512,0.21068 0.60214,0.44408 0.9375,0.625 0.47608,0.25862 0.98776,0.4942 1.5,0.6875 0.0978,0.0366 0.2064,0.0452 0.3125,0.0624 -0.0282,-0.1376 -0.0624,-0.29402 -0.0624,-0.4375 0,-1.58942 1.79086,-2.875 4,-2.875 2.20914,0 4,1.28558 4,2.875 0,0.1434 -0.0344,0.29992 -0.0624,0.4375 0.60132,-0.20684 1.19776,-0.45334 1.75,-0.75 0.42632,-0.2251 0.79392,-0.47716 1.1875,-0.75 0.122,-0.0858 0.25642,-0.1598 0.375,-0.25 0.0936,-0.0704 0.1592,-0.175 0.25,-0.25 -0.28476,-0.22184 -0.50066,-0.44806 -0.6875,-0.6875 -0.37924,-0.4742 -0.60082,-0.99044 -0.6875,-1.5 -0.0444,-0.25516 -0.0624,-0.49672 -0.0624,-0.75 0,-0.48512 0.1106,-0.96266 0.25,-1.375 0.006,-0.018 -0.006,-0.0444 0,-0.0624 0.0758,-0.21332 0.1406,-0.37418 0.25,-0.5625 0.1112,-0.1866 0.23274,-0.34198 0.375,-0.5 0.1486,-0.1748 0.3187,-0.29936 0.5,-0.4375 0.33672,-0.25654 0.69296,-0.45284 1.125,-0.5625 0.21602,-0.0548 0.45188,-0.112 0.6875,-0.125 0.5625,-0.0312 1.50804,0.1948 2.25,0.625 0.0904,-0.31368 0.1874,-0.61194 0.25,-0.9375 0.0718,-0.35048 0.147,-0.70162 0.1874,-1.0625 0.004,-0.0416 -0.004,-0.0834 0,-0.125 0.0368,-0.36316 0.0588,-0.753 0.0624,-1.125 0,-0.45776 -0.01,-0.93218 -0.0624,-1.375 -0.0388,-0.3827 -0.1136,-0.7538 -0.1874,-1.125 -0.004,-0.018 0.004,-0.0438 0,-0.0624 -0.0542,-0.26446 -0.1624,-0.50324 -0.25,-0.75 -0.56298,0.36628 -1.1573,0.5625 -1.875,0.5625 -1.00102,0 -1.9065,-0.3952 -2.5625,-1.0625 -0.164,-0.1668 -0.30722,-0.36632 -0.4375,-0.5625 -0.39076,-0.58852 -0.6249,-1.2988 -0.6249,-2.0625 0,-0.62076 0.1734,-1.1928 0.4375,-1.6875 0.1322,-0.24962 0.25538,-0.47506 0.4375,-0.6875 0.1856,-0.20936 0.39388,-0.39544 0.625,-0.5625 -1.06852,-0.86502 -2.24372,-1.60328 -3.5625,-2.0625 0.028,0.1376 0.0624,0.2941 0.0624,0.4375 0,1.58942 -1.79086,2.875 -4,2.875 -1.38072,0 -2.59368,-0.48532 -3.3125,-1.25 -0.1438,-0.153 -0.2738,-0.32798 -0.375,-0.5 -0.20232,-0.34404 -0.3124,-0.72764 -0.3124,-1.125 0,-0.1434 0.0342,-0.2999 0.0624,-0.4375 z m -8.6875,1.375 c -0.49526,0.1238 -0.94998,0.45388 -1.25,0.9375 -0.60008,0.96724 -0.3129,2.23064 0.625,2.8125 l 1.625,1 0.625,0.375 c 0.25322,0.0924 0.52708,0.1874 0.8125,0.1874 0.30634,0 0.61248,-0.0818 0.875,-0.1874 0.26252,-0.1058 0.49064,-0.2498 0.6875,-0.4375 0.3937,-0.3754 0.625,-0.8766 0.625,-1.4375 0,-0.59062 -0.25614,-1.19956 -0.6875,-1.5625 l -0.75,-0.4375 -1.6875,-1 c -0.46896,-0.29096 -1.00474,-0.37372 -1.5,-0.25 z m 24.5,0 c -0.2549,0.0384 -0.51552,0.1046 -0.75,0.25 l -1.6875,1 -0.75,0.4375 c -0.0222,0.018 -0.0412,0.043 -0.0624,0.0624 -0.43146,0.36294 -0.6251,0.84688 -0.6251,1.4375 0,0.5609 0.2313,1.0621 0.625,1.4375 0.1968,0.1878 0.42498,0.33178 0.6875,0.4375 0.26252,0.1058 0.56866,0.1874 0.875,0.1874 0.28542,0 0.55928,-0.0326 0.8125,-0.125 l 0.625,-0.375 1.625,-1 c 0.9379,-0.58186 1.22508,-1.84526 0.625,-2.8125 -0.45002,-0.72542 -1.2353,-1.05266 -2,-0.9375 z M 24,21.000001 c 2.20914,0 4,1.79086 4,4 0,2.20914 -1.79086,4 -4,4 -1.10456,0 -2.08864,-0.46364 -2.8125,-1.1875 -0.181,-0.181 -0.35624,-0.3497 -0.5,-0.5625 -0.4313,-0.6384 -0.6875,-1.42158 -0.6875,-2.25 0,-0.27614 0.01,-0.5521 0.0624,-0.8125 0.37308,-1.82274 2.0046,-3.1875 3.9376,-3.1875 z m 0,2 c -0.83022,0 -1.50944,0.53216 -1.8125,1.25 -0.1012,0.23928 -0.1874,0.47386 -0.1874,0.75 0,1.10462 0.89302,2 2,2 1.10698,0 2,-0.89538 2,-2 0,-1.10462 -0.89302,-2 -2,-2 z m -10.1875,6.6875 c -0.4668,0.0508 -0.5893,0.169 -0.8125,0.25 l -0.4375,0.25 -1.625,1 c -0.9379,0.58186 -1.22508,1.84526 -0.625,2.8125 0.60004,0.96722 1.8746,1.26942 2.8125,0.6875 l 1.625,-1 0.5625,-0.375 c 0.27204,-0.28614 0.52516,-0.60604 0.625,-1 0.0374,-0.1262 0.0624,-0.2379 0.0624,-0.375 0,-0.3089 -0.0658,-0.58376 -0.1874,-0.875 -0.1032,-0.25866 -0.25692,-0.47952 -0.4375,-0.6875 -0.1954,-0.2178 -0.42682,-0.44792 -0.6875,-0.5625 -0.26068,-0.1146 -0.5706,-0.1582 -0.875,-0.125 z m 20.4375,0.125 c -1.1736,0 -2.125,0.96174 -2.125,2.125 0,0.54844 0.1534,0.948 0.5,1.3125 l 0.625,0.4375 1.625,1 c 0.9379,0.58192 2.21246,0.27972 2.8125,-0.6875 0.60008,-0.96724 0.3129,-2.23064 -0.625,-2.8125 l -1.625,-1 c -0.143,-0.0842 -0.27808,-0.1768 -0.4375,-0.25 -0.2232,-0.0802 -0.49946,-0.125 -0.75,-0.125 z M 24,35.000001 c -0.25856,0 -0.50948,0.0324 -0.75,0.125 -0.24052,0.0926 -0.49174,0.27198 -0.6875,0.4375 -0.3915,0.33106 -0.63538,0.74608 -0.6875,1.25 v 0.250001 1.9375 c 0,1.10374 0.92426,2 2.0625,2 1.13824,0 2.0625,-0.89626 2.0625,-2 v -1.9375 -0.250001 c -0.1044,-1.00782 -0.9658,-1.8125 -2,-1.8125 z"
     style="display:inline;fill:#000000;fill-opacity:1;stroke:none;enable-background:new;opacity:0.2"
     id="path7010" />
  <path
     d="M 23.9375,8 C 22.79926,8 22.07368,8.83622 22,9.9375 v 2 0.25 C 22.1042,13.19532 22.9658,14 24,14 c 0.25856,0 0.52284,-0.0338 0.75,-0.125 0.6835,-0.27356 1.17182,-0.93162 1.25,-1.6875 V 11.9375 10 C 26,8.89626 25.07574,8 23.9375,8 Z m -3.875,4.6875 c -1.31716,0.46628 -2.55672,1.20044 -3.625,2.0625 0.46224,0.33412 0.84994,0.73872 1.125,1.25 0.008,0.014 -0.008,0.0478 0,0.0624 0.1246,0.24074 0.24322,0.482 0.3125,0.75 0.006,0.02 -0.004,0.0432 0,0.0624 0.0652,0.27008 0.125,0.58496 0.125,0.875 0,0.25456 -0.014,0.50996 -0.0624,0.75 -0.0482,0.24004 -0.1582,0.46692 -0.25,0.6875 -0.5503,1.3235 -1.81096,2.25 -3.3125,2.25 -0.7177,0 -1.31202,-0.1964 -1.875,-0.5625 -0.0806,0.22816 -0.2,0.44298 -0.25,0.6875 -0.004,0.018 0.004,0.0438 0,0.0624 -0.074,0.3712 -0.1486,0.7423 -0.1874,1.125 -0.002,0.0216 0.002,0.0408 0,0.0624 -0.0372,0.38384 -0.0626,0.79394 -0.0626,1.1875 0,0.0206 -10e-5,0.0418 0,0.0624 -10e-5,0.0206 0,0.0418 0,0.0624 0.004,0.372 0.0256,0.76184 0.0624,1.125 0.004,0.0416 -0.004,0.0834 0,0.125 0.0404,0.36088 0.1158,0.71202 0.1874,1.0625 0.0666,0.34576 0.1522,0.6676 0.25,1 0.74196,-0.43022 1.58834,-0.59738 2.125,-0.625 0.72454,-0.0372 1.40084,0.1744 1.9375,0.5625 0.53666,0.3882 0.93932,0.9007 1.1875,1.5625 0.0828,0.21836 0.1442,0.44906 0.1874,0.6875 0.05,0.25716 0.0624,0.47686 0.0624,0.75 0,1.0131 -0.82974,2.34702 -1.4375,3 0.24624,0.1924 0.48626,0.38616 0.75,0.5625 0.31512,0.21068 0.60214,0.44408 0.9375,0.625 0.47608,0.25862 0.98776,0.4942 1.5,0.6875 0.0978,0.0366 0.2064,0.0452 0.3125,0.0624 -0.0282,-0.1376 -0.0624,-0.29402 -0.0624,-0.4375 0,-1.58942 1.79086,-2.875 4,-2.875 2.20914,0 4,1.28558 4,2.875 0,0.1434 -0.0344,0.29992 -0.0624,0.4375 0.60132,-0.20684 1.19776,-0.45334 1.75,-0.75 0.42632,-0.2251 0.79392,-0.47716 1.1875,-0.75 0.122,-0.0858 0.25642,-0.1598 0.375,-0.25 0.0936,-0.0704 0.1592,-0.175 0.25,-0.25 -0.28476,-0.22184 -0.50066,-0.44806 -0.6875,-0.6875 -0.37924,-0.4742 -0.60082,-0.99044 -0.6875,-1.5 -0.0444,-0.25516 -0.0624,-0.49672 -0.0624,-0.75 0,-0.48512 0.1106,-0.96266 0.25,-1.375 0.006,-0.018 -0.006,-0.0444 0,-0.0624 0.0758,-0.21332 0.1406,-0.37418 0.25,-0.5625 0.1112,-0.1866 0.23274,-0.34198 0.375,-0.5 0.1486,-0.1748 0.3187,-0.29936 0.5,-0.4375 0.33672,-0.25654 0.69296,-0.45284 1.125,-0.5625 0.21602,-0.0548 0.45188,-0.112 0.6875,-0.125 0.5625,-0.0312 1.50804,0.1948 2.25,0.625 0.0904,-0.31368 0.1874,-0.61194 0.25,-0.9375 0.0718,-0.35048 0.147,-0.70162 0.1874,-1.0625 0.004,-0.0416 -0.004,-0.0834 0,-0.125 0.0368,-0.36316 0.0588,-0.753 0.0624,-1.125 0,-0.45776 -0.01,-0.93218 -0.0624,-1.375 -0.0388,-0.3827 -0.1136,-0.7538 -0.1874,-1.125 -0.004,-0.018 0.004,-0.0438 0,-0.0624 -0.0542,-0.26446 -0.1624,-0.50324 -0.25,-0.75 -0.56298,0.36628 -1.1573,0.5625 -1.875,0.5625 -1.00102,0 -1.9065,-0.3952 -2.5625,-1.0625 -0.164,-0.1668 -0.30722,-0.36632 -0.4375,-0.5625 -0.39076,-0.58852 -0.6249,-1.2988 -0.6249,-2.0625 0,-0.62076 0.1734,-1.1928 0.4375,-1.6875 0.1322,-0.24962 0.25538,-0.47506 0.4375,-0.6875 0.1856,-0.20936 0.39388,-0.39544 0.625,-0.5625 -1.06852,-0.86502 -2.24372,-1.60328 -3.5625,-2.0625 0.028,0.1376 0.0624,0.2941 0.0624,0.4375 0,1.58942 -1.79086,2.875 -4,2.875 -1.38072,0 -2.59368,-0.48532 -3.3125,-1.25 -0.1438,-0.153 -0.2738,-0.32798 -0.375,-0.5 -0.20232,-0.34404 -0.3124,-0.72764 -0.3124,-1.125 0,-0.1434 0.0342,-0.2999 0.0624,-0.4375 z m -8.6875,1.375 c -0.49526,0.1238 -0.94998,0.45388 -1.25,0.9375 -0.60008,0.96724 -0.3129,2.23064 0.625,2.8125 l 1.625,1 0.625,0.375 c 0.25322,0.0924 0.52708,0.1874 0.8125,0.1874 0.30634,0 0.61248,-0.0818 0.875,-0.1874 C 14.95002,19.0817 15.17814,18.9377 15.375,18.75 15.7687,18.3746 16,17.8734 16,17.3125 16,16.72188 15.74386,16.11294 15.3125,15.75 l -0.75,-0.4375 -1.6875,-1 c -0.46896,-0.29096 -1.00474,-0.37372 -1.5,-0.25 z m 24.5,0 c -0.2549,0.0384 -0.51552,0.1046 -0.75,0.25 l -1.6875,1 -0.75,0.4375 c -0.0222,0.018 -0.0412,0.043 -0.0624,0.0624 C 32.19364,16.17534 32,16.65928 32,17.2499 c 0,0.5609 0.2313,1.0621 0.625,1.4375 0.1968,0.1878 0.42498,0.33178 0.6875,0.4375 0.26252,0.1058 0.56866,0.1874 0.875,0.1874 0.28542,0 0.55928,-0.0326 0.8125,-0.125 l 0.625,-0.375 1.625,-1 c 0.9379,-0.58186 1.22508,-1.84526 0.625,-2.8125 -0.45002,-0.72542 -1.2353,-1.05266 -2,-0.9375 z M 24,20 c 2.20914,0 4,1.79086 4,4 0,2.20914 -1.79086,4 -4,4 -1.10456,0 -2.08864,-0.46364 -2.8125,-1.1875 -0.181,-0.181 -0.35624,-0.3497 -0.5,-0.5625 C 20.2562,25.6116 20,24.82842 20,24 20,23.72386 20.01,23.4479 20.0624,23.1875 20.43548,21.36476 22.067,20 24,20 Z m 0,2 c -0.83022,0 -1.50944,0.53216 -1.8125,1.25 -0.1012,0.23928 -0.1874,0.47386 -0.1874,0.75 0,1.10462 0.89302,2 2,2 1.10698,0 2,-0.89538 2,-2 0,-1.10462 -0.89302,-2 -2,-2 z m -10.1875,6.6875 c -0.4668,0.0508 -0.5893,0.169 -0.8125,0.25 l -0.4375,0.25 -1.625,1 C 9.9996,30.76936 9.71242,32.03276 10.3125,33 c 0.60004,0.96722 1.8746,1.26942 2.8125,0.6875 l 1.625,-1 0.5625,-0.375 c 0.27204,-0.28614 0.52516,-0.60604 0.625,-1 0.0374,-0.1262 0.0624,-0.2379 0.0624,-0.375 0,-0.3089 -0.0658,-0.58376 -0.1874,-0.875 -0.1032,-0.25866 -0.25692,-0.47952 -0.4375,-0.6875 -0.1954,-0.2178 -0.42682,-0.44792 -0.6875,-0.5625 -0.26068,-0.1146 -0.5706,-0.1582 -0.875,-0.125 z m 20.4375,0.125 c -1.1736,0 -2.125,0.96174 -2.125,2.125 0,0.54844 0.1534,0.948 0.5,1.3125 l 0.625,0.4375 1.625,1 c 0.9379,0.58192 2.21246,0.27972 2.8125,-0.6875 0.60008,-0.96724 0.3129,-2.23064 -0.625,-2.8125 l -1.625,-1 C 35.2945,29.1033 35.15942,29.0107 35,28.9375 34.7768,28.8573 34.50054,28.8125 34.25,28.8125 Z M 24,34 c -0.25856,0 -0.50948,0.0324 -0.75,0.125 -0.24052,0.0926 -0.49174,0.27198 -0.6875,0.4375 -0.3915,0.33106 -0.63538,0.74608 -0.6875,1.25 v 0.25 V 38 c 0,1.10374 0.92426,2 2.0625,2 C 25.07574,40 26,39.10374 26,38 v -1.9375 -0.25 C 25.8956,34.80468 25.0342,34 24,34 Z"
     style="display:inline;fill:#333333;fill-opacity:1;stroke:none;enable-background:new"
     id="path6097"
     sodipodi:nodetypes="scccscccssccccccsccscccccsccccccccccscccccssscccccccsccccccccccccccccsccsccccssccscccccccsccscccccccccsccsccccccsssscscsscssssscccccccccsccccsscccccccssscccsssccs" />
  <path
     id="rect2630"
     style="fill:#ffffff;fill-opacity:1;opacity:0.3"
     d="M 10,4 C 6.6760035,4 4.0000002,6.6760033 4.0000002,10 v 1 C 4.0000002,7.6760032 6.6760035,5 10,5 h 28 c 3.323997,0 6,2.6760032 6,6 V 10 C 44,6.6760033 41.323997,4 38,4 Z" />
  <path
     id="rect398"
     style="opacity:0.3;fill:#ffffff"
     d="m 4.0000001,37 v 1 c 0,3.323996 2.6760033,6 5.9999999,6 h 28 c 3.323997,0 6,-2.676004 6,-6 v -1 c 0,3.323996 -2.676003,6 -6,6 H 10 C 6.6760034,43 4.0000001,40.323996 4.0000001,37 Z" />
  <path
     id="rect899"
     style="opacity:0.5;fill:#000000;stroke:none"
     d="M 10,3 C 6.1220039,3 3,6.1220039 3,10 v 28 c 0,3.877996 3.1220039,7 7,7 h 28 c 3.877996,0 7,-3.122004 7,-7 V 10 C 45,6.1220039 41.877996,3 38,3 Z m 0,1 h 28 c 3.323997,0 6,2.6760033 6,6 v 28 c 0,3.323997 -2.676003,6 -6,6 H 10 C 6.6760033,44 4,41.323997 4,38 V 10 C 4,6.6760033 6.6760033,4 10,4 Z" />
</svg>
