<?xml version="1.0" encoding="UTF-8" standalone="no"?>
<!-- Created with Inkscape (http://www.inkscape.org/) -->

<svg
   width="48"
   height="48"
   viewBox="0 0 48 48.000002"
   version="1.1"
   id="svg5"
   sodipodi:docname="gnome-boxes.svg"
   inkscape:version="1.2.1 (9c6d41e410, 2022-07-14)"
   xmlns:inkscape="http://www.inkscape.org/namespaces/inkscape"
   xmlns:sodipodi="http://sodipodi.sourceforge.net/DTD/sodipodi-0.dtd"
   xmlns:xlink="http://www.w3.org/1999/xlink"
   xmlns="http://www.w3.org/2000/svg"
   xmlns:svg="http://www.w3.org/2000/svg">
  <sodipodi:namedview
     id="namedview7"
     pagecolor="#ffffff"
     bordercolor="#666666"
     borderopacity="1.0"
     inkscape:showpageshadow="2"
     inkscape:pageopacity="0.0"
     inkscape:pagecheckerboard="0"
     inkscape:deskcolor="#d1d1d1"
     inkscape:document-units="px"
     showgrid="false"
     inkscape:zoom="5.6568542"
     inkscape:cx="47.11099"
     inkscape:cy="41.896077"
     inkscape:window-width="1920"
     inkscape:window-height="1002"
     inkscape:window-x="0"
     inkscape:window-y="0"
     inkscape:window-maximized="1"
     inkscape:current-layer="svg5" />
  <defs
     id="defs2">
    <linearGradient
       inkscape:collect="always"
       xlink:href="#4852"
       id="linearGradient6478"
       x1="37.5"
       y1="44.5"
       x2="9.5"
       y2="2.5"
       gradientUnits="userSpaceOnUse"
       gradientTransform="translate(0.5,0.5)" />
    <linearGradient
       inkscape:collect="always"
       id="4852">
      <stop
         style="stop-color:#333333;stop-opacity:1"
         offset="0"
         id="stop14555" />
      <stop
         style="stop-color:#666666;stop-opacity:1"
         offset="1"
         id="stop14557" />
    </linearGradient>
  </defs>
  <rect
     style="fill:url(#linearGradient6478);fill-opacity:1.0;stroke:none"
     id="rect184"
     width="41"
     height="41"
     x="3.5"
     y="3.5"
     ry="6.5" />
  <path
     d="m 13.999995,12 c -1.65685,0 -3,1.343151 -3,3 0.002,1.26981 0.80283,2.400951 2.00001,2.82421 v 14.35157 c -1.19718,0.42326 -1.99822,1.554411 -2.00001,2.82422 0,1.656851 1.34315,3.000001 3,3.000001 1.26982,-0.002 2.40096,-0.80281 2.82423,-2.000001 h 14.35155 c 0.42327,1.197191 1.55443,1.998221 2.82423,2.000001 1.65686,0 3,-1.34315 3,-3.000001 -1.3e-4,-1.27124 -0.80147,-2.404381 -2.00001,-2.82812 V 17.82421 c 1.19719,-0.42326 1.99823,-1.5544 2.00001,-2.82421 0,-1.656849 -1.34314,-3 -3,-3 -1.2698,0.002 -2.40096,0.80281 -2.82423,2.000001 H 16.828125 C 16.404385,12.801459 15.271235,12.000129 13.999995,12 Z m 2.82423,4 h 14.35155 c 0.0937,0.2664 0.22456,0.51823 0.38868,0.74804 l -2.5371,2.53712 C 28.717005,19.0989 28.361945,19.00035 28.000005,19 c -0.71256,0.002 -1.37027,0.38289 -1.72656,1 h -4.54297 c -0.35699,-0.61832 -1.01651,-0.99943 -1.73048,-1 -0.36145,0.001 -0.71581,0.1005 -1.02538,0.2871 l -2.53907,-2.53906 C 16.599675,16.51823 16.730525,16.2664 16.824225,16 Z m -1.07616,1.43555 2.53906,2.53906 c -0.1866,0.30957 -0.28582,0.66393 -0.28711,1.02539 0.002,0.71257 0.38291,1.37028 1,1.72656 v 4.54687 c -0.61709,0.35629 -0.99804,1.014 -1,1.72657 10e-4,0.36146 0.10051,0.71582 0.28711,1.025391 l -2.53712,2.537109 c -0.2303,-0.16497 -0.4828,-0.296481 -0.75,-0.39062 V 17.82421 c 0.2664,-0.0937 0.51823,-0.224541 0.74806,-0.38866 z m 16.50389,0 c 0.22981,0.16412 0.48165,0.29496 0.74805,0.38866 v 14.35157 c -0.2664,0.0937 -0.51824,0.224559 -0.74805,0.388681 l -2.53906,-2.53907 c 0.1866,-0.309571 0.28582,-0.663931 0.28711,-1.025391 -5.7e-4,-0.71397 -0.38169,-1.373489 -1.00001,-1.73046 v -4.54298 c 0.61712,-0.35628 0.99805,-1.01399 1.00001,-1.72656 -3.4e-4,-0.36194 -0.0989,-0.717009 -0.28515,-1.027349 z M 22.000005,21 h 3.99999 c 1e-5,1.10457 0.89545,2 2.00001,2 v 4 c -1.10457,-10e-6 -2,0.895421 -2.00001,2 h -3.99999 c 0,-1.104579 -0.89543,-2.00001 -2.00001,-2 v -4 c 1.10458,0 2.00001,-0.89543 2.00001,-2 z m -0.27343,9 h 4.54687 c 0.35629,0.61711 1.01399,0.998051 1.72656,1 0.36146,-0.001 0.71582,-0.1005 1.02539,-0.28711 l 2.53906,2.53906 c -0.16412,0.229819 -0.29496,0.481651 -0.38868,0.74805 h -14.34765 c -0.0941,-0.267181 -0.22566,-0.51969 -0.39063,-0.75 l 2.53713,-2.53711 c 0.30957,0.18661 0.66392,0.285831 1.02537,0.28711 0.71259,-0.002 1.3703,-0.382891 1.72658,-1 z"
     style="color:#000000;display:inline;overflow:visible;visibility:visible;fill:#000000;fill-opacity:1;fill-rule:nonzero;stroke:none;stroke-width:0.6;marker:none;enable-background:new;opacity:0.2"
     id="path2119" />
  <path
     d="m 13.999995,11.000001 c -1.65685,0 -3,1.34315 -3,2.999999 0.002,1.26981 0.80283,2.400951 2.00001,2.82421 v 14.35157 c -1.19718,0.42326 -1.99822,1.554411 -2.00001,2.82422 0,1.656851 1.34315,3 3,3 1.26982,-0.002 2.40096,-0.80281 2.82423,-2 h 14.35155 c 0.42327,1.19719 1.55443,1.99822 2.82423,2 1.65686,0 3,-1.343149 3,-3 -1.3e-4,-1.27124 -0.80147,-2.404381 -2.00001,-2.82812 V 16.82421 c 1.19719,-0.42326 1.99823,-1.5544 2.00001,-2.82421 0,-1.656849 -1.34314,-2.999999 -3,-2.999999 -1.2698,0.002 -2.40096,0.80281 -2.82423,2 h -14.34765 c -0.42374,-1.198541 -1.55689,-1.999871 -2.82813,-2 z M 16.824225,15 h 14.35155 c 0.0937,0.2664 0.22456,0.51823 0.38868,0.74804 l -2.5371,2.53712 C 28.717005,18.0989 28.361945,18.00035 28.000005,18 c -0.71256,0.002 -1.37027,0.38289 -1.72656,1 h -4.54297 c -0.35699,-0.61832 -1.01651,-0.99943 -1.73048,-1 -0.36145,0.001 -0.71581,0.1005 -1.02538,0.2871 l -2.53907,-2.53906 C 16.599675,15.51823 16.730525,15.2664 16.824225,15 Z m -1.07616,1.43555 2.53906,2.53906 c -0.1866,0.30957 -0.28582,0.66393 -0.28711,1.02539 0.002,0.71257 0.38291,1.37028 1,1.72656 v 4.54687 c -0.61709,0.35629 -0.99804,1.014 -1,1.72657 10e-4,0.36146 0.10051,0.71582 0.28711,1.025391 l -2.53712,2.537109 c -0.2303,-0.16497 -0.4828,-0.296481 -0.75,-0.39062 V 16.82421 c 0.2664,-0.0937 0.51823,-0.224541 0.74806,-0.38866 z m 16.50389,0 c 0.22981,0.16412 0.48165,0.29496 0.74805,0.38866 v 14.35157 c -0.2664,0.0937 -0.51824,0.224559 -0.74805,0.388681 l -2.53906,-2.53907 c 0.1866,-0.309571 0.28582,-0.663931 0.28711,-1.025391 -5.7e-4,-0.71397 -0.38169,-1.373489 -1.00001,-1.73046 v -4.54298 c 0.61712,-0.35628 0.99805,-1.01399 1.00001,-1.72656 -3.4e-4,-0.36194 -0.0989,-0.717009 -0.28515,-1.027349 z M 22.000005,20 h 3.99999 c 1e-5,1.10457 0.89545,2 2.00001,2 v 4 c -1.10457,-10e-6 -2,0.895421 -2.00001,2 h -3.99999 c 0,-1.104579 -0.89543,-2.00001 -2.00001,-2 v -4 c 1.10458,0 2.00001,-0.89543 2.00001,-2 z m -0.27343,9 h 4.54687 c 0.35629,0.61711 1.01399,0.998051 1.72656,1 0.36146,-0.001 0.71582,-0.1005 1.02539,-0.28711 l 2.53906,2.53906 c -0.16412,0.229819 -0.29496,0.481651 -0.38868,0.74805 h -14.34765 c -0.0941,-0.267181 -0.22566,-0.51969 -0.39063,-0.75 l 2.53713,-2.53711 c 0.30957,0.18661 0.66392,0.285831 1.02537,0.28711 0.71259,-0.002 1.3703,-0.382891 1.72658,-1 z"
     style="color:#000000;display:inline;overflow:visible;visibility:visible;fill:#ffffff;fill-opacity:1;fill-rule:nonzero;stroke:none;stroke-width:0.6;marker:none;enable-background:new"
     id="path1716"
     sodipodi:nodetypes="cccccccccccccccccccccccccccccccccccccccccccccccccccccccccccccccccccccc" />
  <path
     id="rect2630"
     style="fill:#ffffff;fill-opacity:1;opacity:0.3"
     d="M 10,4 C 6.6760035,4 4.0000002,6.6760033 4.0000002,10 v 1 C 4.0000002,7.6760032 6.6760035,5 10,5 h 28 c 3.323997,0 6,2.6760032 6,6 V 10 C 44,6.6760033 41.323997,4 38,4 Z" />
  <path
     id="rect398"
     style="opacity:0.3;fill:#ffffff"
     d="m 4.0000001,37 v 1 c 0,3.323996 2.6760033,6 5.9999999,6 h 28 c 3.323997,0 6,-2.676004 6,-6 v -1 c 0,3.323996 -2.676003,6 -6,6 H 10 C 6.6760034,43 4.0000001,40.323996 4.0000001,37 Z" />
  <path
     id="rect899"
     style="opacity:0.5;fill:#000000;stroke:none"
     d="M 10,3 C 6.1220039,3 3,6.1220039 3,10 v 28 c 0,3.877996 3.1220039,7 7,7 h 28 c 3.877996,0 7,-3.122004 7,-7 V 10 C 45,6.1220039 41.877996,3 38,3 Z m 0,1 h 28 c 3.323997,0 6,2.6760033 6,6 v 28 c 0,3.323997 -2.676003,6 -6,6 H 10 C 6.6760033,44 4,41.323997 4,38 V 10 C 4,6.6760033 6.6760033,4 10,4 Z" />
</svg>
