<?xml version="1.0" encoding="UTF-8" standalone="no"?>
<!-- Created with Inkscape (http://www.inkscape.org/) -->

<svg
   width="48"
   height="48"
   viewBox="0 0 48 48.000002"
   version="1.1"
   id="svg5"
   sodipodi:docname="gthumb.svg"
   inkscape:version="1.2.1 (9c6d41e410, 2022-07-14)"
   xmlns:inkscape="http://www.inkscape.org/namespaces/inkscape"
   xmlns:sodipodi="http://sodipodi.sourceforge.net/DTD/sodipodi-0.dtd"
   xmlns:xlink="http://www.w3.org/1999/xlink"
   xmlns="http://www.w3.org/2000/svg"
   xmlns:svg="http://www.w3.org/2000/svg">
  <sodipodi:namedview
     id="namedview7"
     pagecolor="#ffffff"
     bordercolor="#666666"
     borderopacity="1.0"
     inkscape:showpageshadow="2"
     inkscape:pageopacity="0.0"
     inkscape:pagecheckerboard="0"
     inkscape:deskcolor="#d1d1d1"
     inkscape:document-units="px"
     showgrid="false"
     inkscape:zoom="16.5"
     inkscape:cx="24"
     inkscape:cy="24"
     inkscape:window-width="1920"
     inkscape:window-height="1007"
     inkscape:window-x="0"
     inkscape:window-y="0"
     inkscape:window-maximized="1"
     inkscape:current-layer="svg5" />
  <defs
     id="defs2">
    <linearGradient
       inkscape:collect="always"
       xlink:href="#linearGradient1555"
       id="linearGradient15179"
       x1="24"
       y1="45"
       x2="24"
       y2="3"
       gradientUnits="userSpaceOnUse" />
    <linearGradient
       inkscape:collect="always"
       xlink:href="#linearGradient2287"
       id="linearGradient2289"
       x1="20"
       y1="18"
       x2="20"
       y2="5"
       gradientUnits="userSpaceOnUse"
       gradientTransform="matrix(2.0000002,0,0,2.0000002,-1.7000001e-6,0.99999789)" />
    <linearGradient
       inkscape:collect="always"
       id="linearGradient2287">
      <stop
         style="stop-color:#8e9529;stop-opacity:1;"
         offset="0"
         id="stop2283" />
      <stop
         style="stop-color:#bbc236;stop-opacity:1;"
         offset="1"
         id="stop2285" />
    </linearGradient>
    <linearGradient
       inkscape:collect="always"
       xlink:href="#linearGradient3796"
       id="linearGradient3798"
       x1="19"
       y1="18"
       x2="19"
       y2="5"
       gradientUnits="userSpaceOnUse"
       gradientTransform="matrix(2.0000002,0,0,2.0000002,-1.7000001e-6,0.99999789)" />
    <linearGradient
       inkscape:collect="always"
       id="linearGradient3796">
      <stop
         style="stop-color:#ff7010;stop-opacity:1;"
         offset="0"
         id="stop3792" />
      <stop
         style="stop-color:#ff9a10;stop-opacity:1;"
         offset="1"
         id="stop3794" />
    </linearGradient>
    <linearGradient
       inkscape:collect="always"
       id="linearGradient1555">
      <stop
         style="stop-color:#eac045;stop-opacity:1;"
         offset="0"
         id="stop1551" />
      <stop
         style="stop-color:#a2d2f9;stop-opacity:1;"
         offset="1"
         id="stop1553" />
    </linearGradient>
  </defs>
  <rect
     style="fill:url(#linearGradient15179);fill-opacity:1.0;stroke:none"
     id="rect184"
     width="41"
     height="41"
     x="3.5"
     y="3.5"
     ry="6.5" />
  <path
     d="m 17.926413,12.001227 c -3.866279,0.07454 -7.212852,3.543282 -5.284413,11.061401 -3.3785311,0.655936 -5.9464513,4.456192 -3.9298591,12.025301 4.4942331,-4.592641 5.5032231,-1.587125 9.0707121,-2.299703 0.89226,1.814991 2.845356,3.685937 6.235628,5.211777 0.49118,-1.36387 2.56334,-3.414486 3.933769,-5.460395 3.912866,1.782441 5.797804,-1.05978 9.661556,4.570877 C 41.599925,30.664566 40.074945,26.46597 36.81885,24.822304 39.8186,16.212261 31.073362,12.756363 24.733357,15.879237 23.100353,13.310019 20.411769,11.953301 17.926413,12.001227 Z m -0.246104,9.059221 c 1.003896,0.03292 1.925302,0.359482 3.111466,0.378022 4.385552,3.6496 6.723257,2.593276 9.239667,3.214692 -1.17612,0.437396 -2.309224,1.10794 -3.303857,2.03071 -0.913466,-0.352816 -2.117538,-0.636904 -3.675946,-0.833478 -1.223342,-0.15432 -2.33482,0.03994 -3.256002,0.48195 -1.664972,-2.296356 -4.106298,-3.472474 -6.342079,-3.368552 1.857495,-1.591884 3.099327,-1.940312 4.226751,-1.903344 z"
     style="opacity:0.2;fill:#000000;fill-rule:evenodd;stroke-width:2"
     id="path833" />
  <path
     d="m 17.926413,11.001227 c -3.866279,0.07454 -7.212852,3.543282 -5.284413,11.061401 -3.3785311,0.655936 -5.9464513,4.45619 -3.9298591,12.025299 4.4942331,-4.592641 5.5032231,-1.587125 9.0707121,-2.299703 0.89226,1.81499 2.845356,3.685937 6.235628,5.211777 0.49118,-1.36387 2.56334,-3.414487 3.933769,-5.460395 3.912866,1.78244 5.797804,-1.05978 9.661556,4.570877 3.986119,-6.445919 2.461139,-10.644515 -0.794956,-12.288179 2.99975,-8.610043 -5.745488,-12.065941 -12.085493,-8.943067 -1.633004,-2.569218 -4.321588,-3.925936 -6.806944,-3.87801 z m -0.246104,9.05922 c 1.003896,0.03292 1.925302,0.359482 3.111466,0.378022 4.385552,3.649601 6.723257,2.593277 9.239667,3.214693 -1.17612,0.437396 -2.309224,1.10794 -3.303857,2.030708 -0.913466,-0.352816 -2.117538,-0.636904 -3.675946,-0.833476 -1.223342,-0.15432 -2.33482,0.03994 -3.256002,0.481948 -1.664972,-2.296354 -4.106298,-3.472472 -6.342079,-3.36855 1.857495,-1.591885 3.099327,-1.940313 4.226751,-1.903345 z"
     style="fill:url(#linearGradient2289);fill-opacity:1;fill-rule:evenodd;stroke-width:2"
     id="path467"
     sodipodi:nodetypes="sccccccccssccccccs" />
  <path
     d="m 30.79309,37.905939 c -1.463096,1.003662 -5.226169,-6.323525 -7.861233,-7.759913 -2.873146,0.70443 -6.407962,6.649263 -7.853894,5.561925 -1.653617,-1.243516 0.376926,-8.911213 1.329118,-10.587835 1.22722,-2.160886 -7.0645221,-2.331826 -6.365118,-4.160208 0.689994,-1.803815 7.496586,-3.469669 9.639842,-3.780629 0.777262,-2.143188 2.790574,-5.517786 5.544678,-5.151812 2.754111,0.365974 4.289845,4.505286 4.861891,6.628232 2.862014,0.50584 7.551268,2.512803 7.90265,4.453859 0.346654,1.914956 -9.469186,1.58307 -8.218524,3.804256 0.913042,1.621582 2.116268,9.923309 1.02059,10.992125 z"
     style="opacity:0.2;fill:#000000;fill-opacity:1;stroke-width:2"
     id="path3808" />
  <path
     d="m 30.79309,36.905937 c -1.463096,1.003662 -5.226169,-6.323525 -7.861233,-7.759913 -2.873146,0.70443 -6.407962,6.649263 -7.853894,5.561925 -1.653617,-1.243517 0.376926,-8.911213 1.329118,-10.587833 1.22722,-2.160886 -7.0645221,-2.331826 -6.365118,-4.160209 0.689994,-1.803816 7.496586,-3.469668 9.639842,-3.780628 0.777262,-2.143188 2.790574,-5.517786 5.544678,-5.151812 2.754111,0.365974 4.289845,4.505286 4.861891,6.628232 2.862014,0.50584 7.551268,2.512802 7.90265,4.453859 0.346654,1.914956 -9.469186,1.58307 -8.218524,3.804254 0.913042,1.621582 2.116268,9.923309 1.02059,10.992125 z"
     style="fill:url(#linearGradient3798);fill-opacity:1;stroke-width:2"
     id="path866"
     sodipodi:nodetypes="scssccscssss" />
  <ellipse
     style="opacity:0.2;fill:#000000;fill-opacity:1;stroke-width:4;stroke-linecap:round;stroke-linejoin:round"
     id="path3887"
     cx="23.000002"
     cy="21"
     rx="5.0000005"
     ry="4.0000005" />
  <path
     id="path5727"
     style="color:#000000;fill:#ffffe0;stroke-width:2;stroke-linecap:round;-inkscape-stroke:none"
     d="M 23.5 13 A 1 1 0 0 0 22.5 14 A 1 1 0 0 0 23.171875 14.941406 L 22.964844 20.992188 C 22.960444 21.130287 23.068923 21.245752 23.207031 21.25 C 23.345131 21.2544 23.460596 21.14592 23.464844 21.007812 L 23.669922 14.984375 A 1 1 0 0 0 24.5 14 A 1 1 0 0 0 23.5 13 z M 27 17 A 1 1 0 0 0 26 18 A 1 1 0 0 0 26.439453 18.828125 L 24.574219 22.894531 C 24.516019 23.019651 24.570213 23.168277 24.695312 23.226562 C 24.820432 23.284762 24.969058 23.230569 25.027344 23.105469 L 26.914062 18.994141 A 1 1 0 0 0 27 19 A 1 1 0 0 0 28 18 A 1 1 0 0 0 27 17 z M 19.5 18 A 1 1 0 0 0 18.5 19 A 1 1 0 0 0 19.5 20 A 1 1 0 0 0 19.783203 19.957031 L 21.582031 23.125 C 21.650351 23.24674 21.805121 23.28897 21.925781 23.21875 C 22.047521 23.15043 22.089751 22.995662 22.019531 22.875 L 20.210938 19.699219 A 1 1 0 0 0 20.5 19 A 1 1 0 0 0 19.5 18 z " />
  <path
     id="rect2630"
     style="fill:#ffffff;fill-opacity:1;opacity:0.3"
     d="M 10,4 C 6.6760035,4 4.0000002,6.6760033 4.0000002,10 v 1 C 4.0000002,7.6760032 6.6760035,5 10,5 h 28 c 3.323997,0 6,2.6760032 6,6 V 10 C 44,6.6760033 41.323997,4 38,4 Z" />
  <path
     id="rect398"
     style="opacity:0.3;fill:#ffffff"
     d="m 4.0000001,37 v 1 c 0,3.323996 2.6760033,6 5.9999999,6 h 28 c 3.323997,0 6,-2.676004 6,-6 v -1 c 0,3.323996 -2.676003,6 -6,6 H 10 C 6.6760034,43 4.0000001,40.323996 4.0000001,37 Z" />
  <path
     id="rect899"
     style="opacity:0.5;fill:#000000;stroke:none"
     d="M 10,3 C 6.1220039,3 3,6.1220039 3,10 v 28 c 0,3.877996 3.1220039,7 7,7 h 28 c 3.877996,0 7,-3.122004 7,-7 V 10 C 45,6.1220039 41.877996,3 38,3 Z m 0,1 h 28 c 3.323997,0 6,2.6760033 6,6 v 28 c 0,3.323997 -2.676003,6 -6,6 H 10 C 6.6760033,44 4,41.323997 4,38 V 10 C 4,6.6760033 6.6760033,4 10,4 Z" />
</svg>
