<?xml version="1.0" encoding="UTF-8" standalone="no"?>
<!-- Created with Inkscape (http://www.inkscape.org/) -->

<svg
   width="48"
   height="48"
   viewBox="0 0 48 48.000002"
   version="1.1"
   id="svg5"
   sodipodi:docname="hypnotix.svg"
   inkscape:version="1.2.1 (9c6d41e410, 2022-07-14)"
   xmlns:inkscape="http://www.inkscape.org/namespaces/inkscape"
   xmlns:sodipodi="http://sodipodi.sourceforge.net/DTD/sodipodi-0.dtd"
   xmlns:xlink="http://www.w3.org/1999/xlink"
   xmlns="http://www.w3.org/2000/svg"
   xmlns:svg="http://www.w3.org/2000/svg">
  <sodipodi:namedview
     id="namedview7"
     pagecolor="#ffffff"
     bordercolor="#666666"
     borderopacity="1.0"
     inkscape:showpageshadow="2"
     inkscape:pageopacity="0.0"
     inkscape:pagecheckerboard="0"
     inkscape:deskcolor="#d1d1d1"
     inkscape:document-units="px"
     showgrid="false"
     inkscape:zoom="16.5"
     inkscape:cx="24.060606"
     inkscape:cy="24"
     inkscape:window-width="1920"
     inkscape:window-height="1012"
     inkscape:window-x="0"
     inkscape:window-y="0"
     inkscape:window-maximized="1"
     inkscape:current-layer="svg5"
     showguides="false" />
  <defs
     id="defs2">
    <linearGradient
       inkscape:collect="always"
       xlink:href="#linearGradient36553"
       id="linearGradient6478"
       x1="23.5"
       y1="44.5"
       x2="23.5"
       y2="2.5"
       gradientUnits="userSpaceOnUse"
       gradientTransform="translate(0.5,0.5)" />
    <linearGradient
       inkscape:collect="always"
       id="linearGradient36553">
      <stop
         style="stop-color:#33abf2;stop-opacity:1;"
         offset="0"
         id="stop36549" />
      <stop
         style="stop-color:#6bc9ff;stop-opacity:1;"
         offset="1"
         id="stop36551" />
    </linearGradient>
  </defs>
  <rect
     style="fill:url(#linearGradient6478);fill-opacity:1;stroke:none"
     id="rect184"
     width="41"
     height="41"
     x="3.5"
     y="3.5"
     ry="6.5" />
  <path
     id="path28369"
     style="display:inline;fill:#ffffff;fill-opacity:1;stroke:none;stroke-width:1.00225;stroke-opacity:1;enable-background:new"
     d="M 10 3.5 C 8.0238525 3.5 6.2624943 4.376752 5.0722656 5.7597656 C 5.9455336 9.5525982 8.8286262 13.997596 11.716797 17.277344 C 10.622512 19.272616 10 21.563774 10 24 C 10 24.613168 10.044651 25.216234 10.121094 25.808594 C 7.8995364 24.771136 5.5610323 23.309886 3.5 21.544922 L 3.5 31.988281 C 6.3243457 32.105675 9.3712069 31.811588 12.037109 31.275391 C 13.570088 33.790855 15.874387 35.783491 18.621094 36.927734 C 14.829871 39.57729 9.5289395 41.838002 4.7246094 41.796875 C 5.9026582 43.433839 7.8204057 44.5 10 44.5 L 21.425781 44.5 C 22.605615 42.417073 23.600271 40.129338 24.320312 37.992188 C 27.396296 37.922917 30.22705 36.863249 32.505859 35.117188 C 32.757953 38.025965 32.571395 41.379071 31.789062 44.5 L 38 44.5 C 39.976148 44.5 41.737506 43.623248 42.927734 42.240234 C 42.054466 38.447407 39.171374 34.002397 36.283203 30.722656 C 37.377488 28.727384 38 26.436227 38 24 C 38 23.386832 37.955349 22.783766 37.878906 22.191406 C 40.100468 23.228864 42.438969 24.690114 44.5 26.455078 L 44.5 15.996094 C 41.464416 15.849929 38.419963 16.226885 35.958984 16.71875 C 34.426 14.206124 32.123422 12.215597 29.378906 11.072266 C 33.170109 8.422711 38.471074 6.1620028 43.275391 6.203125 C 42.097342 4.566161 40.179594 3.5 38 3.5 L 26.578125 3.5 C 25.396383 5.5829604 24.400535 7.8707371 23.679688 10.007812 C 20.603704 10.077083 17.77295 11.136751 15.494141 12.882812 C 15.242047 9.9740397 15.428606 6.6209323 16.210938 3.5 L 10 3.5 z " />
  <path
     d="m 19.235835,17.001252 c -0.673622,-0.03051 -1.236473,0.500709 -1.235834,1.166308 v 11.663098 c -0.0012,0.890242 0.968097,1.453343 1.756244,1.020519 l 10.634324,-5.831544 c 0.812575,-0.443962 0.812575,-1.597085 0,-2.04104 L 19.756245,17.147041 c -0.159718,-0.08766 -0.337854,-0.137564 -0.52041,-0.145789 z"
     style="color:#000000;display:inline;fill:#57bdee;fill-opacity:1;fill-rule:evenodd;stroke:none;stroke-width:1.17393;stroke-linecap:round;stroke-linejoin:round;enable-background:new"
     id="path14268" />
  <path
     id="path4659"
     style="opacity:0.2;fill:#000000;stroke-width:2.8;stroke-linejoin:round"
     d="M 10.011719 24.5 C 10.005876 24.666202 10 24.832373 10 25 C 10 32.731964 16.26804 39 24 39 C 31.731964 39 38 32.731964 38 25 C 38 24.832373 37.994124 24.666202 37.988281 24.5 C 37.724605 32.000029 31.564337 38 24 38 C 16.435666 38 10.275396 32.000029 10.011719 24.5 z " />
  <path
     id="rect2630"
     style="fill:#ffffff;fill-opacity:1;opacity:0.3"
     d="M 10,4 C 6.6760035,4 4.0000002,6.6760033 4.0000002,10 v 1 C 4.0000002,7.6760032 6.6760035,5 10,5 h 28 c 3.323997,0 6,2.6760032 6,6 V 10 C 44,6.6760033 41.323997,4 38,4 Z" />
  <path
     id="rect398"
     style="opacity:0.3;fill:#ffffff"
     d="m 4.0000001,37 v 1 c 0,3.323996 2.6760033,6 5.9999999,6 h 28 c 3.323997,0 6,-2.676004 6,-6 v -1 c 0,3.323996 -2.676003,6 -6,6 H 10 C 6.6760034,43 4.0000001,40.323996 4.0000001,37 Z" />
  <path
     id="rect899"
     style="opacity:0.5;fill:#000000;stroke:none"
     d="M 10,3 C 6.1220039,3 3,6.1220039 3,10 v 28 c 0,3.877996 3.1220039,7 7,7 h 28 c 3.877996,0 7,-3.122004 7,-7 V 10 C 45,6.1220039 41.877996,3 38,3 Z m 0,1 h 28 c 3.323997,0 6,2.6760033 6,6 v 28 c 0,3.323997 -2.676003,6 -6,6 H 10 C 6.6760033,44 4,41.323997 4,38 V 10 C 4,6.6760033 6.6760033,4 10,4 Z" />
</svg>
