<?xml version="1.0" encoding="UTF-8" standalone="no"?>
<!-- Created with Inkscape (http://www.inkscape.org/) -->

<svg
   width="48"
   height="48"
   viewBox="0 0 48 48.000002"
   version="1.1"
   id="svg5"
   sodipodi:docname="inkscape.svg"
   inkscape:version="1.2.1 (9c6d41e410, 2022-07-14)"
   xmlns:inkscape="http://www.inkscape.org/namespaces/inkscape"
   xmlns:sodipodi="http://sodipodi.sourceforge.net/DTD/sodipodi-0.dtd"
   xmlns:xlink="http://www.w3.org/1999/xlink"
   xmlns="http://www.w3.org/2000/svg"
   xmlns:svg="http://www.w3.org/2000/svg">
  <sodipodi:namedview
     id="namedview7"
     pagecolor="#ffffff"
     bordercolor="#666666"
     borderopacity="1.0"
     inkscape:showpageshadow="2"
     inkscape:pageopacity="0.0"
     inkscape:pagecheckerboard="0"
     inkscape:deskcolor="#d1d1d1"
     inkscape:document-units="px"
     showgrid="false"
     inkscape:zoom="5.6568542"
     inkscape:cx="44.459339"
     inkscape:cy="41.18897"
     inkscape:window-width="1920"
     inkscape:window-height="1007"
     inkscape:window-x="0"
     inkscape:window-y="0"
     inkscape:window-maximized="1"
     inkscape:current-layer="svg5" />
  <defs
     id="defs2">
    <linearGradient
       inkscape:collect="always"
       xlink:href="#4852"
       id="linearGradient6478"
       x1="37.5"
       y1="44.5"
       x2="9.5"
       y2="2.5"
       gradientUnits="userSpaceOnUse"
       gradientTransform="translate(0.5,0.5)" />
    <linearGradient
       inkscape:collect="always"
       id="4852">
      <stop
         style="stop-color:#333333;stop-opacity:1"
         offset="0"
         id="stop14555" />
      <stop
         style="stop-color:#666666;stop-opacity:1"
         offset="1"
         id="stop14557" />
    </linearGradient>
  </defs>
  <rect
     style="fill:url(#linearGradient6478);fill-opacity:1.0;stroke:none"
     id="rect184"
     width="41"
     height="41"
     x="3.5"
     y="3.5"
     ry="6.5" />
  <path
     d="m 24,10 c -0.847989,0 -1.696536,0.320955 -2.337239,0.99935 L 9.999349,23.020833 C 9.358645,23.680381 9.018844,24.548207 9,25.41504 v 0.05534 c 0,2.581657 6.878141,0.07567 7.500001,3.222658 0.339193,1.714822 -3.75,0.923519 -3.75,2.638344 0,2.016333 5.784741,0.640841 7.443034,2.280275 0.678391,1.658291 -2.223603,1.394227 -1.695966,2.939454 0.961056,0.998742 3.146628,0.433406 3.5612,2.054036 0.489951,1.846737 3.618074,1.526079 5.445962,0.169285 0.979901,-0.998742 -1.488398,-1.449859 -0.527346,-2.467449 0.979901,-0.998742 5.766347,-0.792584 5.804038,-2.978513 -0.452264,-1.375648 -2.26143,-1.602075 -2.280275,-3.222673 -0.0942,-1.375629 1.470441,-0.978828 6.445313,-2.335612 C 38.924604,26.827976 39,26.337212 39,25.47038 V 25.41505 C 38.9811,24.548238 38.586016,23.680389 37.945312,23.020842 L 26.337242,10.99935 C 25.677694,10.320958 24.847992,10 24,10 Z m 0.226234,2.524414 c 0.885678,0 3.297723,2.978892 5.445966,5.221353 0.621856,0.810299 -0.226233,1.638998 -0.226233,1.638998 l -4.503585,-2.469075 -1.997068,2.695313 -1.75293,-2.638347 -1.05469,4.108073 -3.11035,-1.865234 0.830077,-1.056316 4.861655,-4.993489 c 0.358038,-0.376888 0.659171,-0.641272 1.507158,-0.641276 z m 13.180343,18.046875 c -0.174897,2.4e-5 -0.333417,0.02126 -0.460613,0.06347 -0.320349,0.09423 -1.827873,0.150294 -1.695963,1.280927 1.356783,0.584164 3.430157,1.035534 3.675129,-0.113925 0.188448,-0.847994 -0.621807,-1.205111 -1.33789,-1.223958 -0.06123,-0.0045 -0.12237,-0.0065 -0.180651,-0.0065 z m -22.866212,3.79883 c -0.06916,2.23e-4 -0.13821,0.0051 -0.206708,0.0147 -0.13191,0.01871 -0.227106,0.05544 -0.340168,0.112305 -1.036434,0.395712 -1.734169,1.225618 -0.773114,1.583661 0.961055,0.358038 1.621086,-0.01956 2.469077,-0.47201 0.847989,-0.452262 0.810112,-0.52696 0.75358,-0.696613 -0.113055,0.0187 -0.885663,-0.451991 -1.695964,-0.527346 -0.06849,-0.0096 -0.13755,-0.0144 -0.206703,-0.0147 z"
     style="opacity:0.2;fill:#000000;fill-opacity:1;stroke-width:1.88442"
     id="path624" />
  <path
     d="M 24,9 C 23.152011,9 22.303464,9.320955 21.662761,9.99935 L 9.999349,22.020833 c -0.640703,0.659546 -0.980504,1.527374 -0.99935,2.394205 v 0.05533 c 0,2.581657 6.878142,0.07568 7.500002,3.222657 0.339194,1.714821 -3.75,0.923519 -3.75,2.638345 0,2.016334 5.784741,0.640841 7.443035,2.280275 0.67839,1.658291 -2.223603,1.394226 -1.695966,2.939454 0.961056,0.998742 3.146626,0.433406 3.561199,2.054035 0.489951,1.846737 3.618074,1.52608 5.445962,0.169286 0.9799,-0.998742 -1.488398,-1.44986 -0.527346,-2.467449 0.9799,-0.998742 5.766347,-0.792584 5.804037,-2.978513 -0.452263,-1.375649 -2.26143,-1.602076 -2.280275,-3.222674 -0.0942,-1.375628 1.470442,-0.978828 6.445313,-2.335611 1.978643,-0.942203 2.054039,-1.432968 2.054039,-2.299799 v -0.05533 c -0.0189,-0.866812 -0.413984,-1.734661 -1.054688,-2.394207 L 26.337241,9.99935 C 25.677694,9.320958 24.847992,9 24,9 Z m 0.226234,2.524414 c 0.885678,0 3.297723,2.978891 5.445965,5.221353 0.621856,0.810299 -0.226233,1.638998 -0.226233,1.638998 l -4.503584,-2.469076 -1.997068,2.695313 -1.75293,-2.638347 -1.054689,4.108073 -3.110351,-1.865234 0.830078,-1.056315 4.861654,-4.993489 c 0.358038,-0.376888 0.659171,-0.641272 1.507158,-0.641276 z m 13.180342,18.046872 c -0.174897,2.4e-5 -0.333417,0.02126 -0.460613,0.06347 -0.320349,0.09423 -1.827873,0.150294 -1.695963,1.280927 1.356783,0.584164 3.430157,1.035534 3.675129,-0.113925 0.188448,-0.847994 -0.621807,-1.205111 -1.33789,-1.223958 -0.06123,-0.0045 -0.12237,-0.0065 -0.180651,-0.0065 z m -22.866212,3.79883 c -0.06917,2.25e-4 -0.13821,0.0051 -0.206707,0.0147 -0.13191,0.01871 -0.227106,0.05544 -0.340169,0.112306 -1.036434,0.395711 -1.734168,1.225618 -0.773113,1.58366 0.961054,0.358039 1.621086,-0.01956 2.469076,-0.472009 0.84799,-0.452262 0.810113,-0.52696 0.753581,-0.696614 -0.113055,0.01871 -0.885663,-0.45199 -1.695965,-0.527344 -0.06849,-0.0096 -0.13755,-0.0144 -0.206703,-0.0147 z"
     style="fill:#ffffff;fill-opacity:1;stroke-width:1.88442"
     id="path335"
     sodipodi:nodetypes="scccscsccccccccscccsscccccccccscccccccsccscccss" />
  <path
     id="rect2630"
     style="fill:#ffffff;fill-opacity:1;opacity:0.3"
     d="M 10,4 C 6.6760035,4 4.0000002,6.6760033 4.0000002,10 v 1 C 4.0000002,7.6760032 6.6760035,5 10,5 h 28 c 3.323997,0 6,2.6760032 6,6 V 10 C 44,6.6760033 41.323997,4 38,4 Z" />
  <path
     id="rect398"
     style="opacity:0.3;fill:#ffffff"
     d="m 4.0000001,37 v 1 c 0,3.323996 2.6760033,6 5.9999999,6 h 28 c 3.323997,0 6,-2.676004 6,-6 v -1 c 0,3.323996 -2.676003,6 -6,6 H 10 C 6.6760034,43 4.0000001,40.323996 4.0000001,37 Z" />
  <path
     id="rect899"
     style="opacity:0.5;fill:#000000;stroke:none"
     d="M 10,3 C 6.1220039,3 3,6.1220039 3,10 v 28 c 0,3.877996 3.1220039,7 7,7 h 28 c 3.877996,0 7,-3.122004 7,-7 V 10 C 45,6.1220039 41.877996,3 38,3 Z m 0,1 h 28 c 3.323997,0 6,2.6760033 6,6 v 28 c 0,3.323997 -2.676003,6 -6,6 H 10 C 6.6760033,44 4,41.323997 4,38 V 10 C 4,6.6760033 6.6760033,4 10,4 Z" />
</svg>
