<?xml version="1.0" encoding="UTF-8" standalone="no"?>
<!-- Created with Inkscape (http://www.inkscape.org/) -->

<svg
   width="48"
   height="48"
   viewBox="0 0 48 48.000002"
   version="1.1"
   id="svg5"
   sodipodi:docname="java.svg"
   inkscape:version="1.2.1 (9c6d41e410, 2022-07-14)"
   xmlns:inkscape="http://www.inkscape.org/namespaces/inkscape"
   xmlns:sodipodi="http://sodipodi.sourceforge.net/DTD/sodipodi-0.dtd"
   xmlns:xlink="http://www.w3.org/1999/xlink"
   xmlns="http://www.w3.org/2000/svg"
   xmlns:svg="http://www.w3.org/2000/svg">
  <sodipodi:namedview
     id="namedview7"
     pagecolor="#ffffff"
     bordercolor="#666666"
     borderopacity="1.0"
     inkscape:showpageshadow="2"
     inkscape:pageopacity="0.0"
     inkscape:pagecheckerboard="0"
     inkscape:deskcolor="#d1d1d1"
     inkscape:document-units="px"
     showgrid="false"
     inkscape:zoom="16.5625"
     inkscape:cx="24"
     inkscape:cy="24"
     inkscape:window-width="1920"
     inkscape:window-height="1007"
     inkscape:window-x="0"
     inkscape:window-y="0"
     inkscape:window-maximized="1"
     inkscape:current-layer="svg5" />
  <defs
     id="defs2">
    <linearGradient
       inkscape:collect="always"
       xlink:href="#linearGradient22024"
       id="linearGradient6478"
       x1="37.5"
       y1="44.5"
       x2="9.5"
       y2="2.5"
       gradientUnits="userSpaceOnUse"
       gradientTransform="translate(0.5,0.5)" />
    <linearGradient
       inkscape:collect="always"
       id="linearGradient22024">
      <stop
         style="stop-color:#dedede;stop-opacity:1;"
         offset="0"
         id="stop22020" />
      <stop
         style="stop-color:#f5f5f5;stop-opacity:1;"
         offset="1"
         id="stop22022" />
    </linearGradient>
  </defs>
  <rect
     style="fill:url(#linearGradient6478);fill-opacity:1;stroke:none"
     id="rect184"
     width="41"
     height="41"
     x="3.5"
     y="3.5"
     ry="6.5" />
  <path
     id="path3787"
     style="opacity:0.2;fill:#000000;stroke-width:0.50047"
     d="m 26.350582,10 c 1.193078,4.953064 -4.208483,6.448592 -6.158122,9.533078 -1.327648,2.101342 0.649998,4.360568 3.348588,6.92569 -1.052326,-2.506404 -4.619751,-4.698797 0.003,-8.545785 C 29.308399,13.11917 26.350582,10 26.350582,10 Z m 3.565382,6.125896 c 6.3e-5,0 -9.74703,2.565696 -5.091731,8.217666 1.374211,1.666689 -0.360346,3.16695 -0.360346,3.16695 0,0 3.487916,-1.898385 1.886695,-4.274358 -1.496055,-2.214719 -2.644041,-3.315873 3.565382,-7.110258 z m 1.725563,10.0985 c -0.34248,6.73e-4 -0.705035,0.06402 -1.078111,0.202146 -0.299117,0.111554 -0.457025,0.369136 -0.457025,0.369136 0,0 0.190672,-0.08014 0.612297,-0.17285 1.724187,-0.378605 4.193859,2.431244 -1.148423,5.355399 -0.02475,0.06968 -0.108463,0.149414 -0.108403,0.149414 6.353372,-1.759597 4.968432,-5.908729 2.179659,-5.903244 z M 19.93465,26.508572 c -0.681102,0.01878 -2.274813,0.174602 -4.127875,1.119126 -2.922973,1.489048 7.22725,2.168385 12.483233,0.711904 0.546369,-0.392885 1.300765,-0.732412 1.300765,-0.732412 0,0 -2.15005,0.40239 -4.291936,0.591789 -2.621459,0.231739 -5.432054,0.278125 -6.843659,0.07909 -3.342183,-0.470766 1.83103,-1.766579 1.83103,-1.766579 0,0 -0.124528,-0.0091 -0.351558,-0.003 z m -0.852527,3.407182 c -4.821074,1.686032 2.683072,3.600152 9.421751,1.523418 -0.715975,-0.265914 -1.16893,-0.75292 -1.16893,-0.75292 -3.294596,0.668078 -5.197764,0.645984 -7.608299,0.383784 -1.863633,-0.202917 -0.644522,-1.154282 -0.644522,-1.154282 z m 0.682608,3.284137 c -4.377874,1.288847 2.660878,3.951795 8.235243,1.435527 -0.912971,-0.373824 -1.567363,-0.805652 -1.567363,-0.805652 -2.485767,0.495068 -3.638086,0.535094 -5.894453,0.263667 -1.862218,-0.225006 -0.773427,-0.893542 -0.773427,-0.893542 z m -3.040976,2.176729 c -1.966015,0.0639 -5.813082,1.927055 -2.296845,2.528288 11.364238,1.940857 20.716157,-0.875083 17.768321,-2.276338 0,0 0.806913,0.701437 -0.884754,1.24217 -3.216731,1.026554 -13.392593,1.336164 -16.218537,0.04101 -1.015116,-0.465865 0.889041,-1.11164 1.488262,-1.24803 0.624819,-0.142423 0.981433,-0.117193 0.981433,-0.117193 -0.176531,-0.130979 -0.473803,-0.181755 -0.83788,-0.16992 z m 17.27614,1.781227 c 0,0 -0.357128,0.968407 -4.236273,1.737281 -4.376314,0.868072 -9.777461,0.767789 -12.978344,0.210935 0,0 0.655852,0.571346 4.025337,0.799794 5.126779,0.345354 13.003029,-0.191781 13.18928,-2.74801 z"
     sodipodi:nodetypes="ccccccccccccccccccccccccccccccccccccccccccccccccccc" />
  <path
     d="m 31.641527,25.224396 c -0.34248,6.73e-4 -0.705035,0.06402 -1.078111,0.202146 -0.299117,0.111554 -0.457025,0.369136 -0.457025,0.369136 0,0 0.190672,-0.08014 0.612297,-0.17285 1.724187,-0.378605 4.193859,2.431244 -1.148423,5.355399 -0.02475,0.06968 -0.108463,0.149414 -0.108403,0.149414 6.353372,-1.759597 4.968432,-5.908729 2.179659,-5.903244 z M 19.93465,25.508572 c -0.681102,0.01878 -2.274813,0.174602 -4.127875,1.119126 -2.922973,1.489048 7.22725,2.168385 12.483233,0.711904 0.546369,-0.392885 1.300765,-0.732412 1.300765,-0.732412 0,0 -2.15005,0.40239 -4.291936,0.591789 -2.621459,0.231739 -5.432054,0.278125 -6.843659,0.07909 -3.342183,-0.470766 1.83103,-1.766579 1.83103,-1.766579 0,0 -0.124528,-0.0091 -0.351558,-0.003 z m -0.852527,3.407182 c -4.821074,1.686032 2.683072,3.600152 9.421751,1.523418 -0.715975,-0.265914 -1.16893,-0.75292 -1.16893,-0.75292 -3.294596,0.668078 -5.197764,0.645984 -7.608299,0.383784 -1.863633,-0.202917 -0.644522,-1.154282 -0.644522,-1.154282 z m 0.682608,3.284137 c -4.377874,1.288847 2.660878,3.951795 8.235243,1.435527 -0.912971,-0.373824 -1.567363,-0.805652 -1.567363,-0.805652 -2.485767,0.495068 -3.638086,0.535094 -5.894453,0.263667 -1.862218,-0.225006 -0.773427,-0.893542 -0.773427,-0.893542 z m -3.040976,2.176729 c -1.966015,0.0639 -5.813082,1.927055 -2.296845,2.528288 11.364238,1.940857 20.716157,-0.875083 17.768321,-2.276338 0,0 0.806913,0.701437 -0.884754,1.24217 -3.216731,1.026554 -13.392593,1.336164 -16.218537,0.04101 -1.015116,-0.465865 0.889041,-1.11164 1.488262,-1.24803 0.624819,-0.142423 0.981433,-0.117193 0.981433,-0.117193 -0.176531,-0.130979 -0.473803,-0.181755 -0.83788,-0.16992 z m 17.27614,1.781227 c 0,0 -0.357128,0.968407 -4.236273,1.737281 -4.376314,0.868072 -9.777461,0.767789 -12.978344,0.210935 0,0 0.655852,0.571346 4.025337,0.799794 5.126779,0.345354 13.003029,-0.191781 13.18928,-2.74801 z"
     style="fill:#5a87b6;fill-opacity:1;stroke-width:0.50047"
     id="path4299" />
  <path
     d="m 26.350582,9 c 1.193078,4.953064 -4.208483,6.448592 -6.158122,9.533078 -1.327648,2.101342 0.649998,4.360568 3.348588,6.925691 -1.052326,-2.506405 -4.619751,-4.698797 0.003,-8.545786 C 29.308399,12.11917 26.350582,9 26.350582,9 Z m 3.565382,6.125896 c 6.3e-5,0 -9.74703,2.565697 -5.091731,8.217666 1.374211,1.66669 -0.360346,3.166952 -0.360346,3.166952 0,0 3.487916,-1.898387 1.886695,-4.27436 -1.496055,-2.214719 -2.644041,-3.315873 3.565382,-7.110258 z"
     style="fill:#ff9955;stroke-width:0.50047"
     id="path4332" />
  <path
     id="rect2630"
     style="fill:#ffffff;fill-opacity:1;opacity:0.3"
     d="M 10,4 C 6.6760035,4 4.0000002,6.6760033 4.0000002,10 v 1 C 4.0000002,7.6760032 6.6760035,5 10,5 h 28 c 3.323997,0 6,2.6760032 6,6 V 10 C 44,6.6760033 41.323997,4 38,4 Z" />
  <path
     id="rect398"
     style="opacity:0.3;fill:#ffffff"
     d="m 4.0000001,37 v 1 c 0,3.323996 2.6760033,6 5.9999999,6 h 28 c 3.323997,0 6,-2.676004 6,-6 v -1 c 0,3.323996 -2.676003,6 -6,6 H 10 C 6.6760034,43 4.0000001,40.323996 4.0000001,37 Z" />
  <path
     id="rect899"
     style="opacity:0.5;fill:#000000;stroke:none"
     d="M 10,3 C 6.1220039,3 3,6.1220039 3,10 v 28 c 0,3.877996 3.1220039,7 7,7 h 28 c 3.877996,0 7,-3.122004 7,-7 V 10 C 45,6.1220039 41.877996,3 38,3 Z m 0,1 h 28 c 3.323997,0 6,2.6760033 6,6 v 28 c 0,3.323997 -2.676003,6 -6,6 H 10 C 6.6760033,44 4,41.323997 4,38 V 10 C 4,6.6760033 6.6760033,4 10,4 Z" />
</svg>
