<?xml version="1.0" encoding="UTF-8" standalone="no"?>
<!-- Created with Inkscape (http://www.inkscape.org/) -->

<svg
   width="48"
   height="48"
   viewBox="0 0 48 48.000002"
   version="1.1"
   id="svg5"
   sodipodi:docname="kate.svg"
   inkscape:version="1.2.1 (9c6d41e410, 2022-07-14)"
   xmlns:inkscape="http://www.inkscape.org/namespaces/inkscape"
   xmlns:sodipodi="http://sodipodi.sourceforge.net/DTD/sodipodi-0.dtd"
   xmlns:xlink="http://www.w3.org/1999/xlink"
   xmlns="http://www.w3.org/2000/svg"
   xmlns:svg="http://www.w3.org/2000/svg">
  <sodipodi:namedview
     id="namedview7"
     pagecolor="#ffffff"
     bordercolor="#666666"
     borderopacity="1.0"
     inkscape:showpageshadow="2"
     inkscape:pageopacity="0.0"
     inkscape:pagecheckerboard="0"
     inkscape:deskcolor="#d1d1d1"
     inkscape:document-units="px"
     showgrid="false"
     inkscape:zoom="16.458333"
     inkscape:cx="23.96962"
     inkscape:cy="24"
     inkscape:window-width="1920"
     inkscape:window-height="1002"
     inkscape:window-x="0"
     inkscape:window-y="0"
     inkscape:window-maximized="1"
     inkscape:current-layer="svg5" />
  <defs
     id="defs2">
    <linearGradient
       inkscape:collect="always"
       xlink:href="#linearGradient1493"
       id="linearGradient6478"
       x1="37.5"
       y1="44.5"
       x2="9.5"
       y2="2.5"
       gradientUnits="userSpaceOnUse"
       gradientTransform="translate(0.5,0.5)" />
    <linearGradient
       inkscape:collect="always"
       id="linearGradient1493">
      <stop
         style="stop-color:#197cf1;stop-opacity:1;"
         offset="0"
         id="stop1489" />
      <stop
         style="stop-color:#20bcfa;stop-opacity:1;"
         offset="1"
         id="stop1491" />
    </linearGradient>
  </defs>
  <rect
     style="fill:url(#linearGradient6478);fill-opacity:1;stroke:none"
     id="rect184"
     width="41"
     height="41"
     x="3.5"
     y="3.5"
     ry="6.5" />
  <path
     id="path10-3"
     style="opacity:0.1;fill:#000000;stroke-width:1.12289"
     d="m 22.849686,10.000046 c -2.396705,-0.00188 -5.15224,0.682338 -7.825171,2.618624 -2.611772,1.89199 -3.757621,2.410826 -5.024515,3.039712 1.110656,0.08474 7.66556,-0.845666 9.013861,2.903735 -4.80709,1.586278 -6.694988,4.166699 -6.088194,7.167226 0.09546,0.540268 0.278294,1.104832 0.557064,1.690922 0.287902,0.60529 0.616252,1.124095 0.975954,1.583457 0.0172,0.02412 0.03516,0.04822 0.05262,0.07234 -0.009,-0.0126 -0.0174,-0.02472 -0.0263,-0.03734 2.216789,2.798466 5.698176,3.234801 9.465663,5.754905 3.432677,2.296177 4.572839,3.464713 6.787806,6.647468 -0.460602,-4.397593 -2.887021,-10.065197 -3.881881,-12.562381 l -0.0022,-0.011 C 29.965942,31.151532 33.653929,32.146997 38,32.457901 31.051798,27.511871 29.732702,26.340613 25.755623,22.95058 c -2.668191,0.13448 -2.374247,0.10934 -3.947676,0.19958 0.19716,0.328682 0.396844,0.64661 0.600921,0.954022 1.58911,2.826751 1.892516,6.345194 -1.500115,7.05099 -3.544953,0.737484 -7.410894,-2.323932 -6.439098,-5.601313 1.055263,-3.558843 6.059994,-2.874163 10.838565,-3.491501 4.778574,-0.617344 9.144525,-5.303818 11.770656,-8.772613 -3.783407,1.290881 -8.597981,2.475995 -13.974776,4.035401 -1.046001,-2.141696 -2.083869,-5.840713 4.945563,-6.107933 -0.12642,-0.06984 -0.257054,-0.13704 -0.392572,-0.19958 -0.0168,-0.008 -0.03356,-0.0162 -0.05042,-0.02412 -0.0291,-0.0132 -0.05828,-0.02668 -0.08772,-0.03946 C 26.304861,10.40515 24.682474,10.001436 22.849696,10 Z" />
  <path
     style="fill:#cccccc;fill-opacity:1;stroke-width:1.12294"
     d="M 19.076779,17.74778 C 17.8818,13.780633 11.12879,14.743284 10,14.657156 c 1.266938,-0.628903 2.404685,-0.396309 5.016541,-2.288362 5.031564,-3.644897 8.561653,-3.693343 11.229318,-2.245863 -7.293008,0.277237 -4.099428,4.342821 -3.025235,6.436345 -1.366059,0.396798 -3.522485,0.995792 -4.143845,1.188504 z"
     id="path10" />
  <path
     style="fill:#f2f2f2;stroke-width:1.12294"
     d="m 37.07894,12.288808 c -2.626221,3.468912 -6.99258,8.155651 -11.771308,8.773015 -4.778733,0.617359 -9.783578,-0.06656 -10.838875,3.492413 -0.97183,3.277491 2.895301,6.337522 6.440372,5.600016 3.787249,-0.78789 2.969335,-5.080465 0.897862,-8.003596 1.573479,-0.09022 0.647659,0.459024 3.315937,0.324518 l 1.733143,5.404095 c 0.994892,2.497271 3.420897,8.165077 3.881515,12.562816 -2.215043,-3.182877 -3.354323,-4.352579 -6.78712,-6.648806 -4.397185,-2.941317 -8.407504,-3.040893 -10.468677,-7.374354 -2.056725,-4.324099 1.114728,-7.438914 5.986174,-8.787847 6.961652,-1.927728 12.960043,-3.755389 17.610977,-5.34227 z"
     id="path12" />
  <path
     style="fill:#cccccc;fill-opacity:1;stroke-width:1.12294"
     d="m 21.806991,22.150656 c 1.573479,-0.09022 1.280787,-0.06688 3.949064,-0.201368 3.977215,3.390147 5.295501,4.563149 12.243937,9.509346 -6.98411,-0.499616 -12.268476,-2.765864 -16.193001,-9.307978 z"
     id="path14" />
  <path
     style="fill:#e6e6e6;fill-opacity:1;stroke-width:1.12294"
     d="M 10,14.657156 C 11.266938,14.028253 12.411883,13.509853 15.023741,11.6178 20.055305,7.9729032 25.3824,8.767805 28.050065,10.215283 20.757057,10.492522 21.696741,11.945642 21.669827,13.084801 16.824334,12.063434 15.409552,13.453099 10,14.657156 Z"
     id="path16" />
  <path
     style="fill:#f2f2f2;stroke-width:1.12294"
     d="m 28.050065,10.215283 c -7.293008,0.277239 -5.903634,4.250469 -4.829441,6.343993 -0.851054,0.247204 -1.212557,0.528824 -2.350239,0.829918 -4.590431,-8.1793691 3.433075,-9.2434548 7.17968,-7.173911 z"
     id="path18" />
  <path
     style="fill:#e6e6e6;fill-opacity:1;stroke-width:1.12294"
     d="M 14.795029,28.45659 C 11.22623,23.861324 12.334269,19.649359 19.322493,17.460962 26.218713,15.301372 32.428006,13.875689 37.07894,12.288808 24.52779,17.071068 8.3621965,20.266553 14.795029,28.45659 Z"
     id="path20" />
  <path
     id="rect2630"
     style="fill:#ffffff;fill-opacity:1;opacity:0.3"
     d="M 10,4 C 6.6760035,4 4.0000002,6.6760033 4.0000002,10 v 1 C 4.0000002,7.6760032 6.6760035,5 10,5 h 28 c 3.323997,0 6,2.6760032 6,6 V 10 C 44,6.6760033 41.323997,4 38,4 Z" />
  <path
     id="rect398"
     style="opacity:0.3;fill:#ffffff"
     d="m 4.0000001,37 v 1 c 0,3.323996 2.6760033,6 5.9999999,6 h 28 c 3.323997,0 6,-2.676004 6,-6 v -1 c 0,3.323996 -2.676003,6 -6,6 H 10 C 6.6760034,43 4.0000001,40.323996 4.0000001,37 Z" />
  <path
     id="rect899"
     style="opacity:0.5;fill:#000000;stroke:none"
     d="M 10,3 C 6.1220039,3 3,6.1220039 3,10 v 28 c 0,3.877996 3.1220039,7 7,7 h 28 c 3.877996,0 7,-3.122004 7,-7 V 10 C 45,6.1220039 41.877996,3 38,3 Z m 0,1 h 28 c 3.323997,0 6,2.6760033 6,6 v 28 c 0,3.323997 -2.676003,6 -6,6 H 10 C 6.6760033,44 4,41.323997 4,38 V 10 C 4,6.6760033 6.6760033,4 10,4 Z" />
</svg>
