<?xml version="1.0" encoding="UTF-8" standalone="no"?>
<!-- Created with Inkscape (http://www.inkscape.org/) -->

<svg
   width="48"
   height="48"
   viewBox="0 0 48 48.000002"
   version="1.1"
   id="svg5"
   sodipodi:docname="kmahjongg.svg"
   inkscape:version="1.2.1 (9c6d41e410, 2022-07-14)"
   xmlns:inkscape="http://www.inkscape.org/namespaces/inkscape"
   xmlns:sodipodi="http://sodipodi.sourceforge.net/DTD/sodipodi-0.dtd"
   xmlns:xlink="http://www.w3.org/1999/xlink"
   xmlns="http://www.w3.org/2000/svg"
   xmlns:svg="http://www.w3.org/2000/svg">
  <sodipodi:namedview
     id="namedview7"
     pagecolor="#ffffff"
     bordercolor="#666666"
     borderopacity="1.0"
     inkscape:showpageshadow="2"
     inkscape:pageopacity="0.0"
     inkscape:pagecheckerboard="0"
     inkscape:deskcolor="#d1d1d1"
     inkscape:document-units="px"
     showgrid="false"
     inkscape:zoom="17.145833"
     inkscape:cx="23.970838"
     inkscape:cy="24"
     inkscape:window-width="1920"
     inkscape:window-height="1009"
     inkscape:window-x="0"
     inkscape:window-y="0"
     inkscape:window-maximized="1"
     inkscape:current-layer="svg5" />
  <defs
     id="defs2">
    <linearGradient
       inkscape:collect="always"
       xlink:href="#linearGradient1216"
       id="linearGradient6228"
       x1="38"
       y1="45"
       x2="10"
       y2="3"
       gradientUnits="userSpaceOnUse" />
    <linearGradient
       inkscape:collect="always"
       id="linearGradient1216">
      <stop
         style="stop-color:#dc1111;stop-opacity:1;"
         offset="0"
         id="stop1212" />
      <stop
         style="stop-color:#dc5d4f;stop-opacity:1;"
         offset="1"
         id="stop1214" />
    </linearGradient>
  </defs>
  <rect
     style="fill:url(#linearGradient6228);fill-opacity:1.0;stroke:none"
     id="rect184"
     width="41"
     height="41"
     x="3.5"
     y="3.5"
     ry="6.5" />
  <path
     d="m 21.020339,10.230255 c -0.208853,0.184211 -0.261061,0.460528 -0.261061,0.782896 0,0.598684 0.208841,1.335526 0.313269,1.611841 0,0 0.156647,3.22369 0.208854,3.592111 -0.469915,0.04605 -1.305308,0.09211 -1.618578,0.184209 h -0.417696 c -0.887613,0.04606 -1.723005,0.09211 -2.088494,0.414476 l -0.156635,0.138159 0.156635,0.18421 c 0.261061,0.276315 0.365489,1.059208 0.469916,1.888159 0.261062,1.703943 0.574318,3.822367 2.140702,4.651312 l 0.313269,0.13816 v -0.322369 c 0,0 0.05231,-0.13816 0.05231,-0.322368 0,-0.138158 -0.05231,-0.368422 -0.104364,-0.690791 0.417697,0.04605 1.305309,0.138159 1.618578,0.138159 C 21.699212,22.986839 23.056678,38 23.056678,38 h 0.522123 c 0,0 0.574344,-14.828948 0.574344,-15.289473 0.365476,0 1.984067,0.04605 2.453958,0.09211 -0.104364,0.276315 -0.522111,1.427632 -0.522111,1.427632 l 0.730966,-0.598685 c 0.208854,-0.138157 4.751319,-3.776316 4.124769,-6.171052 -0.208855,-0.782897 -0.93982,-1.335528 -2.140702,-1.611842 h -0.05231 -0.05231 c -0.678758,0 -2.76724,0.04605 -4.333624,0.138157 0.05231,-1.197368 0.05231,-1.842109 0.05231,-2.164478 v -0.368425 -0.04605 c 0,-0.230266 0.261062,-0.552634 0.469917,-0.782897 0.208854,-0.276315 0.469916,-0.506579 0.469916,-0.782894 0,-0.09211 -0.05231,-0.184212 -0.104363,-0.276315 C 24.936292,11.151317 22.638943,10.092106 21.646916,10 c -0.313269,0.04605 -0.522124,0.09211 -0.626551,0.230263 z m 0.05231,7.552638 h 0.261061 c 0,0.414472 0.156635,3.315789 0.208842,3.730263 C 21.124856,21.467096 20.132829,21.375 19.81956,21.375 c -0.156635,-0.598686 -0.208855,-1.243422 -0.261062,-1.888159 -0.05218,-0.552633 -0.104364,-1.105264 -0.208855,-1.611845 0.469917,0 1.723006,-0.09211 1.723006,-0.09211 z m 3.184949,1.427632 c 0,0 0.05218,-1.105263 0.05218,-1.473685 0.678745,0.09211 1.566358,0.138156 2.40175,0.138156 h 0.939821 c 0,0.184212 -0.05231,0.414475 -0.05231,0.414475 -0.104363,1.013159 -0.261061,2.210525 -0.730978,3.407896 -0.313256,0 -2.245116,-0.09211 -2.662813,-0.138157 0,-0.322369 0.05231,-2.348684 0.05231,-2.348684 z"
     style="display:inline;fill:#ffffff;fill-opacity:1;stroke-width:1.27273;enable-background:new"
     id="path861" />
  <path
     id="rect2630"
     style="fill:#ffffff;fill-opacity:1;opacity:0.3"
     d="M 10,4 C 6.6760035,4 4.0000002,6.6760033 4.0000002,10 v 1 C 4.0000002,7.6760032 6.6760035,5 10,5 h 28 c 3.323997,0 6,2.6760032 6,6 V 10 C 44,6.6760033 41.323997,4 38,4 Z" />
  <path
     id="rect398"
     style="opacity:0.3;fill:#ffffff"
     d="m 4.0000001,37 v 1 c 0,3.323996 2.6760033,6 5.9999999,6 h 28 c 3.323997,0 6,-2.676004 6,-6 v -1 c 0,3.323996 -2.676003,6 -6,6 H 10 C 6.6760034,43 4.0000001,40.323996 4.0000001,37 Z" />
  <path
     id="rect899"
     style="opacity:0.5;fill:#000000;stroke:none"
     d="M 10,3 C 6.1220039,3 3,6.1220039 3,10 v 28 c 0,3.877996 3.1220039,7 7,7 h 28 c 3.877996,0 7,-3.122004 7,-7 V 10 C 45,6.1220039 41.877996,3 38,3 Z m 0,1 h 28 c 3.323997,0 6,2.6760033 6,6 v 28 c 0,3.323997 -2.676003,6 -6,6 H 10 C 6.6760033,44 4,41.323997 4,38 V 10 C 4,6.6760033 6.6760033,4 10,4 Z" />
</svg>
