<?xml version="1.0" encoding="UTF-8" standalone="no"?>
<!-- Created with Inkscape (http://www.inkscape.org/) -->

<svg
   width="48"
   height="48"
   viewBox="0 0 48 48.000002"
   version="1.1"
   id="svg5"
   sodipodi:docname="kmenuedit.svg"
   inkscape:version="1.2.1 (9c6d41e410, 2022-07-14)"
   xmlns:inkscape="http://www.inkscape.org/namespaces/inkscape"
   xmlns:sodipodi="http://sodipodi.sourceforge.net/DTD/sodipodi-0.dtd"
   xmlns:xlink="http://www.w3.org/1999/xlink"
   xmlns="http://www.w3.org/2000/svg"
   xmlns:svg="http://www.w3.org/2000/svg">
  <sodipodi:namedview
     id="namedview7"
     pagecolor="#ffffff"
     bordercolor="#666666"
     borderopacity="1.0"
     inkscape:showpageshadow="2"
     inkscape:pageopacity="0.0"
     inkscape:pagecheckerboard="0"
     inkscape:deskcolor="#d1d1d1"
     inkscape:document-units="px"
     showgrid="false"
     inkscape:zoom="16.5625"
     inkscape:cx="24"
     inkscape:cy="24"
     inkscape:window-width="1920"
     inkscape:window-height="1007"
     inkscape:window-x="0"
     inkscape:window-y="0"
     inkscape:window-maximized="1"
     inkscape:current-layer="svg5" />
  <defs
     id="defs2">
    <linearGradient
       inkscape:collect="always"
       xlink:href="#linearGradient22024"
       id="linearGradient6478"
       x1="23.5"
       y1="44.5"
       x2="23.5"
       y2="2.5"
       gradientUnits="userSpaceOnUse"
       gradientTransform="translate(0.5,0.5)" />
    <linearGradient
       inkscape:collect="always"
       id="linearGradient22024">
      <stop
         style="stop-color:#dedede;stop-opacity:1;"
         offset="0"
         id="stop22020" />
      <stop
         style="stop-color:#f5f5f5;stop-opacity:1;"
         offset="1"
         id="stop22022" />
    </linearGradient>
  </defs>
  <rect
     style="fill:url(#linearGradient6478);fill-opacity:1;stroke:none"
     id="rect184"
     width="41"
     height="41"
     x="3.5"
     y="3.5"
     ry="6.5" />
  <rect
     style="opacity:0.5;fill:#57dade;fill-opacity:1;stroke-width:1.49545;stroke-linecap:round;stroke-linejoin:round"
     id="rect811"
     width="41"
     height="9"
     x="3.5"
     y="20" />
  <path
     d="M 12.5,23 C 11.11929,23 10,24.11929 10,25.5 10,26.88071 11.11929,28 12.5,28 13.88071,28 15,26.88071 15,25.5 15,24.11929 13.88071,23 12.5,23 Z m 0,1 C 13.32843,24 14,24.67157 14,25.5 14,26.32843 13.32843,27 12.5,27 11.67157,27 11,26.32843 11,25.5 11,24.67157 11.67157,24 12.5,24 Z m 5.5,1 v 1 h 20 v -1 z"
     style="color:#000000;display:inline;overflow:visible;visibility:visible;opacity:0.2;fill:#000000;fill-opacity:1;fill-rule:nonzero;stroke:none;stroke-width:4;marker:none;enable-background:accumulate"
     id="path17507"
     sodipodi:nodetypes="ssssssssssccccc" />
  <path
     d="M 12.5,13 C 11.11929,13 9.9999998,14.11929 9.9999998,15.5 9.9999998,16.88071 11.11929,18 12.5,18 13.88071,18 15,16.88071 15,15.5 15,14.11929 13.88071,13 12.5,13 Z m 0,1 C 13.32843,14 14,14.67157 14,15.5 14,16.32843 13.32843,17 12.5,17 11.67157,17 11,16.32843 11,15.5 11,14.67157 11.67157,14 12.5,14 Z m 5.5,1 v 1 h 20 v -1 z m -5.5,18 c -1.38071,0 -2.5000002,1.11929 -2.5000002,2.5 0,1.380711 1.1192902,2.500002 2.5000002,2.500002 1.38071,0 2.5,-1.119291 2.5,-2.500002 C 15,34.11929 13.88071,33 12.5,33 Z m 0,1 c 0.82843,0 1.5,0.67157 1.5,1.5 0,0.828431 -0.67157,1.500002 -1.5,1.500002 -0.82843,0 -1.5,-0.671571 -1.5,-1.500002 0,-0.82843 0.67157,-1.5 1.5,-1.5 z m 5.5,1 v 1.000001 H 38 V 35 Z"
     style="color:#000000;display:inline;overflow:visible;visibility:visible;opacity:0.5;fill:#ffffff;fill-opacity:1;fill-rule:nonzero;stroke:none;stroke-width:4;marker:none;enable-background:accumulate"
     id="path17540" />
  <path
     id="path3193"
     style="color:#000000;display:inline;overflow:visible;visibility:visible;fill:#ababab;fill-opacity:1;fill-rule:nonzero;stroke:none;stroke-width:4;marker:none;enable-background:accumulate"
     d="M 12.5,12 C 11.11929,12 10,13.11929 10,14.5 10,15.88071 11.11929,17 12.5,17 13.88071,17 15,15.88071 15,14.5 15,13.11929 13.88071,12 12.5,12 Z m 0,1 C 13.32843,13 14,13.67157 14,14.5 14,15.32843 13.32843,16 12.5,16 11.67157,16 11,15.32843 11,14.5 11,13.67157 11.67157,13 12.5,13 Z m 5.5,1 v 1 H 38 V 14 Z M 12.5,32 C 11.11929,32 10,33.11929 10,34.5 10,35.88071 11.11929,37 12.5,37 13.88071,37 15,35.88071 15,34.5 15,33.11929 13.88071,32 12.5,32 Z m 0,1 C 13.32843,33 14,33.67157 14,34.5 14,35.32843 13.32843,36 12.5,36 11.67157,36 11,35.32843 11,34.5 11,33.67157 11.67157,33 12.5,33 Z m 5.5,1 v 1 h 20 v -1 z"
     sodipodi:nodetypes="sssssssssscccccssssssssssccccc" />
  <path
     d="M 12.5,22 C 11.11929,22 9.9999997,23.11929 9.9999997,24.5 9.9999997,25.88071 11.11929,27 12.5,27 13.88071,27 15,25.88071 15,24.5 15,23.11929 13.88071,22 12.5,22 Z m 0,1 C 13.32843,23 14,23.67157 14,24.5 14,25.32843 13.32843,26 12.5,26 11.67157,26 11,25.32843 11,24.5 11,23.67157 11.67157,23 12.5,23 Z m 5.5,1 v 1 h 20 v -1 z"
     style="color:#000000;display:inline;overflow:visible;visibility:visible;fill:#ffffff;fill-opacity:1;fill-rule:nonzero;stroke:none;stroke-width:4;marker:none;enable-background:accumulate"
     id="path17573" />
  <path
     id="rect2630"
     style="fill:#ffffff;fill-opacity:1;opacity:0.3"
     d="M 10,4 C 6.6760035,4 4.0000002,6.6760033 4.0000002,10 v 1 C 4.0000002,7.6760032 6.6760035,5 10,5 h 28 c 3.323997,0 6,2.6760032 6,6 V 10 C 44,6.6760033 41.323997,4 38,4 Z" />
  <path
     id="rect398"
     style="opacity:0.3;fill:#ffffff"
     d="m 4.0000001,37 v 1 c 0,3.323996 2.6760033,6 5.9999999,6 h 28 c 3.323997,0 6,-2.676004 6,-6 v -1 c 0,3.323996 -2.676003,6 -6,6 H 10 C 6.6760034,43 4.0000001,40.323996 4.0000001,37 Z" />
  <path
     id="rect899"
     style="opacity:0.5;fill:#000000;stroke:none"
     d="M 10,3 C 6.1220039,3 3,6.1220039 3,10 v 28 c 0,3.877996 3.1220039,7 7,7 h 28 c 3.877996,0 7,-3.122004 7,-7 V 10 C 45,6.1220039 41.877996,3 38,3 Z m 0,1 h 28 c 3.323997,0 6,2.6760033 6,6 v 28 c 0,3.323997 -2.676003,6 -6,6 H 10 C 6.6760033,44 4,41.323997 4,38 V 10 C 4,6.6760033 6.6760033,4 10,4 Z" />
</svg>
