<?xml version="1.0" encoding="UTF-8" standalone="no"?>
<!-- Created with Inkscape (http://www.inkscape.org/) -->

<svg
   width="48"
   height="48"
   viewBox="0 0 48 48.000002"
   version="1.1"
   id="svg5"
   sodipodi:docname="ksudoku.svg"
   inkscape:version="1.2.1 (9c6d41e410, 2022-07-14)"
   xmlns:inkscape="http://www.inkscape.org/namespaces/inkscape"
   xmlns:sodipodi="http://sodipodi.sourceforge.net/DTD/sodipodi-0.dtd"
   xmlns:xlink="http://www.w3.org/1999/xlink"
   xmlns="http://www.w3.org/2000/svg"
   xmlns:svg="http://www.w3.org/2000/svg">
  <sodipodi:namedview
     id="namedview7"
     pagecolor="#ffffff"
     bordercolor="#666666"
     borderopacity="1.0"
     inkscape:showpageshadow="2"
     inkscape:pageopacity="0.0"
     inkscape:pagecheckerboard="0"
     inkscape:deskcolor="#d1d1d1"
     inkscape:document-units="px"
     showgrid="false"
     inkscape:zoom="17.104167"
     inkscape:cx="24"
     inkscape:cy="24"
     inkscape:window-width="1920"
     inkscape:window-height="1007"
     inkscape:window-x="0"
     inkscape:window-y="0"
     inkscape:window-maximized="1"
     inkscape:current-layer="svg5" />
  <defs
     id="defs2">
    <linearGradient
       inkscape:collect="always"
       xlink:href="#linearGradient22024"
       id="linearGradient6478"
       x1="23.5"
       y1="44.5"
       x2="23.5"
       y2="2.5"
       gradientUnits="userSpaceOnUse"
       gradientTransform="translate(0.5,0.5)" />
    <linearGradient
       inkscape:collect="always"
       id="linearGradient22024">
      <stop
         style="stop-color:#dedede;stop-opacity:1;"
         offset="0"
         id="stop22020" />
      <stop
         style="stop-color:#f5f5f5;stop-opacity:1;"
         offset="1"
         id="stop22022" />
    </linearGradient>
  </defs>
  <rect
     style="fill:url(#linearGradient6478);fill-opacity:1;stroke:none"
     id="rect184"
     width="41"
     height="41"
     x="3.5"
     y="3.5"
     ry="6.5" />
  <path
     d="M 16.000715,3 V 16.000429 H 3 V 17.429 H 16.000715 V 30.000287 H 3 v 1.42857 H 16.000715 V 45 h 1.42857 V 31.428857 h 13.57043 V 45 h 1.42857 V 31.428857 H 45 v -1.42857 H 32.428285 V 17.428999 H 45 v -1.42857 H 32.428285 V 3 h -1.42857 V 16.000429 H 17.429285 V 3 Z m 1.42857,14.428999 h 13.57043 v 12.571288 h -13.57043 z"
     style="color:#000000;font-style:normal;font-variant:normal;font-weight:normal;font-stretch:normal;font-size:medium;line-height:normal;font-family:Sans;-inkscape-font-specification:Sans;text-indent:0;text-align:start;text-decoration:none;text-decoration-line:none;letter-spacing:normal;word-spacing:normal;text-transform:none;writing-mode:lr-tb;direction:ltr;baseline-shift:baseline;text-anchor:start;display:inline;overflow:visible;visibility:visible;opacity:0.2;fill:#000000;fill-opacity:1;stroke:none;stroke-width:0.999999px;marker:none;enable-background:accumulate"
     id="path633"
     sodipodi:nodetypes="cccccccccccccccccccccccccccccccccc" />
  <path
     d="m 3,17.429 v 1.42857 H 45 V 17.429 Z m 0,14.000143 v 1.42857 h 42 v -1.42857 z"
     style="color:#000000;font-style:normal;font-variant:normal;font-weight:normal;font-stretch:normal;font-size:medium;line-height:normal;font-family:Sans;-inkscape-font-specification:Sans;text-indent:0;text-align:start;text-decoration:none;text-decoration-line:none;letter-spacing:normal;word-spacing:normal;text-transform:none;writing-mode:lr-tb;direction:ltr;baseline-shift:baseline;text-anchor:start;display:inline;overflow:visible;visibility:visible;opacity:0.2;fill:#ffffff;fill-opacity:1;stroke:none;stroke-width:0.999999px;marker:none;enable-background:accumulate"
     id="path868"
     sodipodi:nodetypes="cccccccccc" />
  <rect
     style="fill:#a348b1;fill-opacity:1;stroke-width:0.727273;stroke-linecap:round;stroke-linejoin:round"
     id="rect945"
     width="16"
     height="16"
     x="16"
     y="16.000429" />
  <path
     id="path8490"
     style="font-size:12px;line-height:1.25;opacity:0.2;fill:#000000;stroke-width:0.749284"
     d="m 10.787871,19.999 c -0.479539,0 -0.895771,0.08945 -1.2468595,0.269275 -0.3510889,0.179827 -0.6424734,0.411092 -0.873679,0.693675 -0.2226478,0.282582 -0.389172,0.595545 -0.5004994,0.93807 C 8.0555286,22.242544 8,22.572471 8,22.889311 c 0,0.359652 0.047732,0.706552 0.1419539,1.040511 0.1027561,0.325405 0.2646807,0.616782 0.4873285,0.873679 0.2226399,0.248326 0.50942,0.448808 0.8605076,0.602942 0.3510895,0.145605 0.779687,0.218052 1.284909,0.218052 0.299711,0 0.591096,-0.02933 0.87368,-0.08927 0.28258,-0.0685 0.535417,-0.153346 0.758065,-0.256103 -0.102765,0.522351 -0.266152,0.963305 -0.488791,1.322958 -0.214083,0.359654 -0.483892,0.654182 -0.809288,0.885385 -0.325404,0.222649 -0.706229,0.386036 -1.142954,0.488793 C 9.5372585,28.078993 9.0531497,28.12992 8.51367,28.12992 l 0.038049,1.002462 c 1.729759,-0.0085 3.032495,-0.463338 3.905944,-1.362471 0.882006,-0.907697 1.322958,-2.242902 1.322958,-4.006921 0,-0.582295 -0.06472,-1.104943 -0.193176,-1.567353 C 13.459,21.724656 13.26628,21.326866 13.009384,21.001464 12.761052,20.676057 12.448096,20.427833 12.071314,20.256563 11.703095,20.085305 11.275972,19.999 10.787871,19.999 Z m 12.81056,0.08196 c -0.248335,0 -0.487347,0.02616 -0.718552,0.07757 -0.222644,0.04281 -0.432328,0.09835 -0.629284,0.166833 -0.196949,0.0685 -0.377305,0.14559 -0.540013,0.231225 -0.154135,0.07706 -0.282129,0.149564 -0.384886,0.218053 l 0.462449,0.911729 c 0.196957,-0.128445 0.435967,-0.25183 0.718553,-0.371716 0.29115,-0.119881 0.642648,-0.180003 1.053684,-0.180003 0.205521,0 0.398233,0.02471 0.578061,0.07609 0.188394,0.04281 0.351778,0.11991 0.488793,0.231226 0.145575,0.111314 0.261201,0.253135 0.346838,0.424401 0.08559,0.171263 0.127319,0.376339 0.127319,0.616111 0,0.291156 -0.06012,0.53623 -0.180004,0.733188 -0.11988,0.188392 -0.274058,0.337957 -0.46245,0.449279 -0.188385,0.111314 -0.398068,0.18844 -0.629283,0.231224 -0.222642,0.04278 -0.440083,0.06439 -0.654162,0.06439 h -0.424399 v 0.976119 h 0.308787 c 0.308278,0 0.607408,0.02933 0.898558,0.08927 0.299713,0.05137 0.561757,0.14544 0.784408,0.282445 0.222642,0.128444 0.401534,0.304199 0.538549,0.52684 0.137024,0.222643 0.206346,0.49706 0.206346,0.822459 0,0.505235 -0.167992,0.907631 -0.501963,1.207345 -0.325398,0.299714 -0.868154,0.449278 -1.630282,0.449278 -0.488107,0 -0.90433,-0.0555 -1.246858,-0.166833 -0.333963,-0.111314 -0.572974,-0.20079 -0.718552,-0.269275 l -0.231226,1.040513 c 0.0685,0.03425 0.179531,0.07592 0.333667,0.127319 0.154143,0.05139 0.334498,0.103727 0.540011,0.155126 0.205522,0.05137 0.422956,0.09308 0.654163,0.12732 0.239771,0.03425 0.471033,0.05268 0.693675,0.05268 0.573742,0 1.070189,-0.06933 1.489791,-0.206348 0.419597,-0.13701 0.766483,-0.325117 1.040511,-0.564889 0.282584,-0.239771 0.489133,-0.521937 0.617575,-0.847337 0.13704,-0.333971 0.204883,-0.694681 0.204883,-1.080024 0,-0.316844 -0.05091,-0.603616 -0.153662,-0.860508 -0.0942,-0.256901 -0.22365,-0.483553 -0.386351,-0.680504 -0.154135,-0.196957 -0.337642,-0.358879 -0.551719,-0.487329 -0.214087,-0.128445 -0.436127,-0.227131 -0.667332,-0.295615 0.376785,-0.171266 0.697491,-0.419496 0.962948,-0.744896 0.265465,-0.333971 0.398059,-0.733223 0.398059,-1.195637 0,-0.333965 -0.0555,-0.642307 -0.166834,-0.924901 -0.111315,-0.29115 -0.277849,-0.539382 -0.5005,-0.744895 -0.222642,-0.214087 -0.506263,-0.376009 -0.848801,-0.487329 -0.342527,-0.119881 -0.749538,-0.180005 -1.220515,-0.180005 z M 10.799578,20.9883 c 0.342525,0 0.62616,0.07709 0.848801,0.231224 0.222639,0.145575 0.39839,0.346052 0.52684,0.602941 0.137009,0.248333 0.231045,0.544327 0.282445,0.88685 0.05137,0.333961 0.07609,0.685474 0.07609,1.053682 v 0.282446 c 0,0.08564 -0.0032,0.175076 -0.0117,0.269274 -0.248332,0.111315 -0.505776,0.197625 -0.771238,0.257568 -0.265453,0.05137 -0.547625,0.07609 -0.847335,0.07609 -0.556603,0 -0.977441,-0.149565 -1.2600306,-0.449278 -0.2740183,-0.308276 -0.4097656,-0.753827 -0.4097656,-1.33613 0,-0.205511 0.024699,-0.415198 0.0761,-0.629282 0.059941,-0.22264 0.1539962,-0.423114 0.2824456,-0.602941 0.128445,-0.188391 0.291837,-0.342566 0.4887916,-0.46245 0.196955,-0.11988 0.435973,-0.180005 0.718554,-0.180005 z m 27.119234,13.832515 c -0.385346,0.445281 -0.809326,0.818364 -1.271737,1.118074 -0.46241,0.291149 -0.937298,0.530163 -1.425399,0.718554 L 35.593392,37.556 c 0.179828,-0.05994 0.364793,-0.13242 0.553182,-0.218053 0.196948,-0.08564 0.380458,-0.175083 0.551721,-0.269275 0.179828,-0.0942 0.343215,-0.192855 0.488793,-0.295616 0.154134,-0.102751 0.282131,-0.201426 0.384886,-0.295618 v 7.24407 h 1.194175 v -8.900693 z"
     sodipodi:nodetypes="ssccscccsccccccccscccscccccccscccscscsccscccscsccccccssccscccccscccccccccssccscsccscccccccccccccc" />
  <path
     d="m 23.356012,27.314169 c 0.762116,0 1.305877,-0.14985 1.63127,-0.449564 0.333966,-0.299709 0.500941,-0.702172 0.500941,-1.207398 0,-0.325393 -0.06849,-0.599418 -0.20551,-0.822056 -0.13701,-0.222639 -0.316836,-0.398185 -0.539476,-0.526634 -0.222645,-0.136994 -0.483818,-0.231203 -0.783527,-0.28258 -0.291144,-0.05994 -0.590855,-0.08991 -0.899126,-0.08991 h -0.308273 v -0.976196 h 0.423879 c 0.214074,0 0.432433,-0.02144 0.655071,-0.06422 0.231211,-0.0428 0.441007,-0.119879 0.629389,-0.231204 0.18839,-0.111315 0.34253,-0.261172 0.462412,-0.449562 0.11988,-0.196953 0.179827,-0.440999 0.179827,-0.73215 0,-0.239769 -0.04285,-0.445278 -0.128445,-0.616539 -0.08564,-0.171261 -0.201233,-0.312559 -0.34681,-0.423878 -0.13701,-0.11133 -0.299707,-0.188389 -0.488096,-0.231203 -0.179825,-0.0514 -0.372492,-0.07707 -0.57801,-0.07707 -0.411028,0 -0.762115,0.05994 -1.05326,0.179827 -0.282579,0.11988 -0.522347,0.244053 -0.719299,0.372499 l -0.462407,-0.911974 c 0.102765,-0.06849 0.231202,-0.141284 0.385335,-0.218353 0.162705,-0.08564 0.342531,-0.162705 0.539477,-0.23121 0.196951,-0.06849 0.406748,-0.124156 0.629388,-0.166976 0.231202,-0.0514 0.47097,-0.07706 0.719299,-0.07706 0.470972,0 0.87772,0.05994 1.220243,0.179826 0.342529,0.111315 0.625109,0.274014 0.847747,0.488098 0.222646,0.205509 0.389622,0.453842 0.500941,0.744986 0.111331,0.282588 0.166984,0.59086 0.166984,0.924818 0,0.462406 -0.13272,0.860593 -0.398186,1.194556 -0.265452,0.325394 -0.586569,0.573727 -0.963346,0.744987 0.231202,0.06849 0.453841,0.166982 0.667922,0.29543 0.214074,0.128445 0.398186,0.291144 0.552319,0.488098 0.162697,0.196945 0.291145,0.42387 0.385342,0.680766 0.102764,0.256887 0.154134,0.543753 0.154134,0.86059 0,0.385336 -0.06847,0.744986 -0.205518,1.078951 -0.128445,0.325395 -0.333958,0.607981 -0.616537,0.847749 -0.274025,0.239767 -0.620825,0.428156 -1.040417,0.56516 -0.419592,0.13701 -0.916256,0.205517 -1.489986,0.205517 -0.222639,0 -0.453843,-0.01716 -0.693609,-0.0514 -0.231202,-0.03425 -0.449563,-0.07707 -0.655082,-0.128446 -0.20551,-0.0514 -0.385334,-0.102764 -0.539474,-0.154132 -0.154133,-0.0514 -0.265452,-0.0942 -0.333959,-0.12843 l 0.231202,-1.040424 c 0.145591,0.06848 0.385344,0.158418 0.719302,0.269737 0.342523,0.11133 0.757835,0.166983 1.245933,0.166983 z"
     style="font-size:12px;line-height:1.25;fill:#ffffff;stroke-width:0.749271"
     id="path10343" />
  <path
     d="m 13.780036,22.763443 c 0,1.763987 -0.440994,3.099819 -1.322983,4.007502 -0.873433,0.899115 -2.175011,1.352954 -3.9047401,1.361517 l -0.038513,-1.001871 c 0.5394702,0 1.0232855,-0.0514 1.4514285,-0.154132 0.4367176,-0.102766 0.8177706,-0.265451 1.1431696,-0.488093 0.325389,-0.231201 0.595125,-0.526622 0.809205,-0.886269 0.222636,-0.359647 0.385332,-0.800649 0.488094,-1.322991 -0.222644,0.102766 -0.475252,0.188388 -0.75783,0.256894 -0.282578,0.05994 -0.573726,0.08991 -0.873432,0.08991 -0.505215,0 -0.9333664,-0.07275 -1.2844489,-0.218357 C 9.1389049,24.253417 8.8520408,24.052179 8.6294048,23.803858 8.4067608,23.546964 8.2440654,23.255822 8.1413119,22.930425 8.047091,22.596469 8,22.249664 8,21.890019 8,21.573183 8.055669,21.243509 8.1669736,20.90099 8.2782977,20.55847 8.4452726,20.245914 8.6679165,19.963339 8.8991176,19.68076 9.1902593,19.44956 9.5413416,19.269734 9.8924246,19.089913 10.307735,19 10.787263,19 c 0.488094,0 0.916238,0.08562 1.28445,0.256887 0.376776,0.171266 0.689323,0.419588 0.937653,0.744985 0.256891,0.325399 0.449559,0.723573 0.578004,1.194545 0.128446,0.462401 0.192666,0.984743 0.192666,1.567026 z m -2.877176,0.886275 c 0.299707,0 0.582291,-0.02569 0.84774,-0.07707 0.265457,-0.05994 0.522343,-0.14556 0.770671,-0.256884 0.0085,-0.0942 0.01289,-0.18411 0.01289,-0.269737 v -0.282585 c 0,-0.368204 -0.0257,-0.719295 -0.07708,-1.053249 -0.05139,-0.342524 -0.145575,-0.63795 -0.282572,-0.886279 -0.128448,-0.256891 -0.303992,-0.458127 -0.526629,-0.603694 -0.222637,-0.154133 -0.505221,-0.231203 -0.84774,-0.231203 -0.282577,0 -0.522342,0.05994 -0.719294,0.179825 -0.1969521,0.11988 -0.3596475,0.274012 -0.4880926,0.4624 -0.1284465,0.179825 -0.2226375,0.381054 -0.2825784,0.60369 -0.051401,0.214082 -0.07707,0.423875 -0.07707,0.629382 0,0.582291 0.1370115,1.027563 0.411025,1.335835 0.2825843,0.299706 0.702173,0.449559 1.258763,0.449559 z m 24.318594,12.008184 c 0.488093,-0.188389 0.963344,-0.428151 1.425745,-0.719294 0.462402,-0.299706 0.886267,-0.672201 1.271608,-1.117475 h 0.84774 v 8.901261 h -1.194544 v -7.244316 c -0.102767,0.0942 -0.231203,0.192667 -0.385334,0.295421 -0.145589,0.102764 -0.30827,0.201228 -0.488092,0.295426 -0.17126,0.0942 -0.355368,0.184102 -0.552313,0.269736 -0.188389,0.08562 -0.372497,0.158417 -0.552321,0.218356 z"
     style="font-size:12px;line-height:1.25;fill:#4d4d4d;stroke-width:0.749264"
     id="path4422"
     sodipodi:nodetypes="sccccccccscccsccsscccssccsscccssccscsscccccccccccc" />
  <path
     id="rect2630"
     style="fill:#ffffff;fill-opacity:1;opacity:0.3"
     d="M 10,4 C 6.6760035,4 4.0000002,6.6760033 4.0000002,10 v 1 C 4.0000002,7.6760032 6.6760035,5 10,5 h 28 c 3.323997,0 6,2.6760032 6,6 V 10 C 44,6.6760033 41.323997,4 38,4 Z" />
  <path
     id="rect398"
     style="opacity:0.3;fill:#ffffff"
     d="m 4.0000001,37 v 1 c 0,3.323996 2.6760033,6 5.9999999,6 h 28 c 3.323997,0 6,-2.676004 6,-6 v -1 c 0,3.323996 -2.676003,6 -6,6 H 10 C 6.6760034,43 4.0000001,40.323996 4.0000001,37 Z" />
  <path
     id="rect899"
     style="opacity:0.5;fill:#000000;stroke:none"
     d="M 10,3 C 6.1220039,3 3,6.1220039 3,10 v 28 c 0,3.877996 3.1220039,7 7,7 h 28 c 3.877996,0 7,-3.122004 7,-7 V 10 C 45,6.1220039 41.877996,3 38,3 Z m 0,1 h 28 c 3.323997,0 6,2.6760033 6,6 v 28 c 0,3.323997 -2.676003,6 -6,6 H 10 C 6.6760033,44 4,41.323997 4,38 V 10 C 4,6.6760033 6.6760033,4 10,4 Z" />
</svg>
