<?xml version="1.0" encoding="UTF-8" standalone="no"?>
<!-- Created with Inkscape (http://www.inkscape.org/) -->

<svg
   width="48"
   height="48"
   viewBox="0 0 48 48.000002"
   version="1.1"
   id="svg5"
   sodipodi:docname="ktorrent.svg"
   inkscape:version="1.2.1 (9c6d41e410, 2022-07-14)"
   xmlns:inkscape="http://www.inkscape.org/namespaces/inkscape"
   xmlns:sodipodi="http://sodipodi.sourceforge.net/DTD/sodipodi-0.dtd"
   xmlns:xlink="http://www.w3.org/1999/xlink"
   xmlns="http://www.w3.org/2000/svg"
   xmlns:svg="http://www.w3.org/2000/svg">
  <sodipodi:namedview
     id="namedview7"
     pagecolor="#ffffff"
     bordercolor="#666666"
     borderopacity="1.0"
     inkscape:showpageshadow="2"
     inkscape:pageopacity="0.0"
     inkscape:pagecheckerboard="0"
     inkscape:deskcolor="#d1d1d1"
     inkscape:document-units="px"
     showgrid="false"
     inkscape:zoom="16.5625"
     inkscape:cx="24"
     inkscape:cy="24"
     inkscape:window-width="1920"
     inkscape:window-height="1007"
     inkscape:window-x="0"
     inkscape:window-y="0"
     inkscape:window-maximized="1"
     inkscape:current-layer="svg5" />
  <defs
     id="defs2">
    <linearGradient
       inkscape:collect="always"
       xlink:href="#linearGradient1265"
       id="linearGradient6478"
       x1="37.5"
       y1="44.5"
       x2="9.5"
       y2="2.5"
       gradientUnits="userSpaceOnUse"
       gradientTransform="translate(0.5,0.5)" />
    <linearGradient
       inkscape:collect="always"
       id="linearGradient1265">
      <stop
         style="stop-color:#2d7ff3;stop-opacity:1;"
         offset="0"
         id="stop1261" />
      <stop
         style="stop-color:#2cdbfa;stop-opacity:1;"
         offset="1"
         id="stop1263" />
    </linearGradient>
  </defs>
  <rect
     style="fill:url(#linearGradient6478);fill-opacity:1;stroke:none"
     id="rect184"
     width="41"
     height="41"
     x="3.5"
     y="3.5"
     ry="6.5" />
  <path
     d="m 18,9 v 13.218751 4.367187 c -0.519795,0.248338 -1.037961,0.830197 -1.480469,1.28125 -0.728175,0.740661 -1.3763,0.791742 -1.894531,0.347657 -0.51745,-0.443305 -0.06621,-1.650433 -0.664062,-2.863284 -0.597058,-1.212844 -1.782201,-0.608553 -1.94922,0.210939 -0.16702,0.819489 1.498895,1.373114 1.175782,1.828123 -0.323114,0.455014 -1.615224,0.349925 -1.996094,-0.507811 -0.380088,-0.857731 -1.2101721,-0.57664 -1.2265619,0.125001 -0.016402,0.702422 0.6427019,0.209107 1.1562499,0.722654 L 24.390625,41.000004 37.65625,27.730467 c 1.560935,-1.560933 -0.225369,-0.89027 -0.593749,-0.539061 -0.367604,0.351211 -1.506385,0.634772 -1.640624,0.250001 -0.133454,-0.384771 1.274616,-1.03012 1.675779,-1.464845 0.40116,-0.434719 0.793099,-1.668424 0.144544,-2.121091 -0.648576,-0.452674 -1.566024,0.363103 -1.964845,0.964842 -0.401157,0.601741 -0.05446,2.137189 -0.589842,2.605466 -0.5354,0.468283 -0.829786,0.1824 -0.929687,-0.218749 -0.100689,-0.401157 1.155722,-0.966621 0.628905,-1.96484 -0.527595,-0.998219 -1.502016,-0.545633 -1.953125,-0.07813 -0.451109,0.468283 0.269698,1.189801 0.4375,1.925783 0.167024,0.735979 -1.542076,0.71692 -2.210938,0.449217 -0.292228,-0.11695 -0.496751,-0.50385 -0.660164,-0.910155 V 9 Z M 10.949218,21 C 10.421094,21.026799 10,21.46525 10,22 c 0,0.551998 0.448,1 1,1 0.552,0 1,-0.448002 1,-1 0,-0.552 -0.448,-1 -1,-1 -0.01721,0 -0.03374,-8.63e-4 -0.05078,0 z m 5.44922,0 c -0.299085,0.01308 -0.649054,0.299365 -0.289062,0.695312 0.511207,0.56363 0.783917,1.568561 0.328124,1.769533 -0.458135,0.200976 -0.428164,-0.74921 -0.468749,-1.253907 -0.03981,-0.504694 -1.305158,-0.809169 -1.773438,-0.183607 -0.468281,0.625582 0.0012,1.301504 0.464843,1.4375 0.463597,0.136735 0.536996,0.649431 0.8125,1.183592 0.276287,0.53416 1.617516,0.40043 1.945314,0 0.327795,-0.400433 0.532951,-1.14525 -0.105459,-1.832029 -0.638424,-0.68678 -0.444703,-1.325218 -0.617187,-1.675783 -0.04293,-0.08765 -0.135266,-0.131562 -0.238281,-0.140619 -0.01912,-0.0016 -0.03866,-8.63e-4 -0.05861,0 z m 18.550783,0 C 34.421094,21.026808 34,21.46525 34,22 c 0,0.551998 0.448,1 1,1 0.552,0 1,-0.448002 1,-1 0,-0.552 -0.448,-1 -1,-1 -0.01711,0 -0.03373,-8.63e-4 -0.05078,0 z m -3.578128,0.332029 c -0.360614,0.0081 -0.517909,0.735553 -0.609372,1.421877 -0.09757,0.732079 -0.465312,1.489988 -0.148448,1.636717 0.439402,0.19512 0.663779,-1.008261 1.160157,-1.457028 0.496376,-0.449552 0.08632,-1.496193 -0.328127,-1.593751 -0.0259,-0.006 -0.05017,-0.0085 -0.07422,-0.0078 z M 8.78125,23.437502 C 8.350432,23.437502 8,23.787933 8,24.218749 8,24.64957 8.350432,25 8.78125,25 9.212068,25 9.5625,24.64957 9.5625,24.218749 c 0,-0.430816 -0.350432,-0.781247 -0.78125,-0.781247 z m 30.398437,1.570311 c -0.412186,0.02091 -0.742187,0.363892 -0.742187,0.781249 0,0.43082 0.350431,0.777344 0.781249,0.777344 0.430819,0 0.781251,-0.346524 0.781251,-0.777344 0,-0.430819 -0.350432,-0.781249 -0.781251,-0.781249 -0.01348,0 -0.02576,-6.72e-4 -0.03906,0 z"
     style="opacity:0.2;fill:#000000;fill-opacity:1;stroke-width:4;stroke-linecap:round;stroke-linejoin:round"
     id="path3386" />
  <rect
     style="fill:#ffffff;fill-opacity:1;stroke-width:4;stroke-linecap:round;stroke-linejoin:round"
     id="rect919"
     width="12"
     height="20"
     x="17.999998"
     y="8" />
  <path
     d="m 25,17.000384 c -0.528129,0.02681 -0.949219,0.46525 -0.949219,1 0,0.551998 0.448,1 1,1 0.552,0 1,-0.448002 1,-1 0,-0.552 -0.448,-1 -1,-1 -0.01711,0 -0.03373,-8.63e-4 -0.05078,0 z m -4.449218,3.98047 c -0.05231,0.0062 -0.103185,0.02111 -0.152332,0.04297 -0.394918,0.173263 -0.526824,0.737904 -0.0078,1.921874 0.519793,1.183971 1.261334,2.005293 1.65625,1.832032 0.394926,-0.173263 0.292458,-1.273053 -0.226554,-2.457025 C 21.36604,21.284243 20.919125,20.9395 20.550742,20.984769 Z m -1.71875,0.457093 c -0.43082,-2e-6 -0.781251,0.35043 -0.781251,0.781249 0,0.430819 0.350431,0.781251 0.781251,0.781251 0.430819,0 0.781249,-0.350432 0.781249,-0.781251 0,-0.430819 -0.35043,-0.781251 -0.781249,-0.781249 z m 8.847656,0.234377 c -0.507313,0.03745 -1.009624,0.903726 -1.257811,1.503905 -0.284092,0.685253 0.05947,2.022374 -0.609377,2.523436 -0.66886,0.501838 -1.158146,0.513079 -1.492186,0.312499 -0.334042,-0.200574 0.28322,-0.173424 -0.08984,-0.937499 -0.373846,-0.76408 -1.265859,-0.525185 -1.500001,0.07032 -0.234141,0.595496 0.249834,0.566756 0.08203,0.917967 -0.167024,0.351212 -1.588601,0.73332 -1.90625,-0.320312 -0.317663,-1.053633 -1.755343,-0.585881 -0.835951,0.250001 0.919393,0.835882 -0.235956,1.285307 -1.035157,0.65625 -0.799199,-0.629841 10.788001,-1.055566 10.503907,-1.156245 -0.284089,-0.100689 -1.009515,0.557527 -1.929686,0.273439 -0.919393,-0.284092 -0.15517,-0.854579 0.128905,-1.523437 0.28409,-0.668863 0.734581,-2.278378 0.160161,-2.531251 -0.07181,-0.032 -0.146938,-0.04452 -0.218749,-0.03906 z"
     style="opacity:0.2;fill:#000000;fill-opacity:1;stroke-width:2"
     id="path3439" />
  <path
     d="m 24.949219,16.000384 c -0.528129,0.0268 -0.949219,0.46525 -0.949219,1 0,0.552 0.448,1 1,1 0.552,0 1,-0.448 1,-1 0,-0.552 -0.448,-1 -1,-1 -0.01711,0 -0.03373,-8.63e-4 -0.05078,0 z m -4.449218,3.980472 c -0.05231,0.0062 -0.103185,0.02111 -0.152332,0.04297 -0.394916,0.173263 -0.526825,0.737904 -0.0078,1.921874 0.519793,1.183971 1.261331,2.005295 1.656249,1.832032 0.394927,-0.173263 0.292456,-1.273053 -0.226554,-2.457025 -0.454257,-1.036463 -0.901174,-1.381204 -1.269554,-1.335935 z m -9.550783,0.01952 C 10.42109,20.027186 10,20.465626 10,21.000376 c 0,0.552 0.448,1 1,1 0.552,0 1,-0.448 1,-1 0,-0.552 -0.448,-1 -1,-1 -0.01721,0 -0.03374,-8.63e-4 -0.05078,2e-6 z m 5.44922,0 c -0.299087,0.01308 -0.649054,0.299365 -0.289062,0.695312 0.511207,0.563627 0.783917,1.56856 0.328124,1.769532 -0.458137,0.200976 -0.428166,-0.749211 -0.468749,-1.253907 -0.03981,-0.504695 -1.305158,-0.809176 -1.773438,-0.183608 -0.468283,0.625582 0.0012,1.301505 0.464843,1.437501 0.463597,0.136734 0.536994,0.64943 0.8125,1.183593 0.276287,0.534163 1.617516,0.400433 1.945312,0 0.327797,-0.400433 0.532955,-1.145252 -0.105459,-1.832032 -0.638422,-0.686779 -0.444703,-1.325213 -0.617185,-1.67578 -0.04293,-0.08765 -0.135266,-0.131562 -0.238281,-0.140619 -0.01912,-0.0016 -0.03866,-8.63e-4 -0.05861,0 z m 18.550781,0 c -0.528127,0.02681 -0.949219,0.46525 -0.949219,1 0,0.552 0.448,1 1,1 0.552,0 1,-0.448 1,-1 0,-0.552 -0.448,-1 -1,-1 -0.01711,0 -0.03373,-8.63e-4 -0.05078,0 z m -3.578126,0.332032 c -0.360614,0.0081 -0.517911,0.735549 -0.609374,1.421874 -0.09755,0.73208 -0.465314,1.489989 -0.148448,1.63672 0.439402,0.195119 0.663777,-1.008262 1.160155,-1.457033 0.496378,-0.449549 0.08632,-1.496191 -0.328127,-1.593749 -0.0259,-0.006 -0.05017,-0.0085 -0.07422,-0.0078 z M 18.781251,20.437869 C 18.350432,20.437867 18,20.788299 18,21.219117 c 0,0.430819 0.350432,0.781251 0.781251,0.781251 0.430816,0 0.781249,-0.350432 0.781249,-0.781251 0,-0.430818 -0.350433,-0.78125 -0.781249,-0.781248 z m 8.847656,0.234377 c -0.507313,0.03745 -1.009624,0.903726 -1.257814,1.503905 -0.284089,0.685253 0.05947,2.022376 -0.609374,2.523439 -0.668861,0.501839 -1.158147,0.513079 -1.492186,0.3125 -0.334042,-0.200574 0.28322,-0.173424 -0.08984,-0.9375 -0.373844,-0.764081 -1.26586,-0.525186 -1.499999,0.07032 -0.234141,0.595498 0.249832,0.566758 0.08203,0.917967 -0.167024,0.351213 -1.588601,0.733321 -1.90625,-0.320312 -0.317666,-1.053633 -1.445678,-2.202059 -1.796889,-1.917967 -0.351211,0.284089 0.04154,1.332085 0.960938,2.167968 0.919392,0.835882 -0.235957,1.285307 -1.035156,0.656249 -0.799201,-0.629838 -1.737449,0.477305 -2.464845,1.218751 -0.728177,0.740663 -1.3763,0.791741 -1.894531,0.347655 -0.51745,-0.443307 -0.06621,-1.650433 -0.664062,-2.863283 -0.597058,-1.212849 -1.782199,-0.608554 -1.949218,0.210938 -0.16702,0.819492 1.498893,1.373112 1.17578,1.828126 -0.323114,0.455012 -1.615224,0.349921 -1.996094,-0.507814 -0.380088,-0.857735 -1.2101721,-0.57664 -1.226562,0.125001 -0.016402,0.702422 0.642702,0.209109 1.15625,0.722657 l 13.269531,13.26953 13.265625,-13.26953 c 1.560937,-1.560936 -0.225369,-0.890272 -0.593749,-0.539063 -0.367604,0.351213 -1.506385,0.634773 -1.640624,0.25 -0.133454,-0.384769 1.274616,-1.030122 1.675779,-1.464843 0.40116,-0.434721 0.793107,-1.668422 0.144544,-2.121093 -0.648578,-0.452671 -1.566032,0.363103 -1.964853,0.964842 -0.401159,0.601743 -0.05446,2.137188 -0.589842,2.60547 -0.535402,0.468281 -0.829788,0.1824 -0.929689,-0.218749 -0.100689,-0.401163 1.155722,-0.966625 0.628907,-1.964844 -0.527598,-0.998221 -1.502016,-0.545626 -1.953125,-0.07813 -0.451112,0.46828 0.269698,1.1898 0.4375,1.925782 0.167024,0.735982 -1.542076,0.716919 -2.210938,0.449217 -0.668856,-0.267699 -0.887783,-1.946193 -1.171874,-2.046874 -0.28409,-0.10067 -1.009516,0.557528 -1.929689,0.273439 -0.919392,-0.284092 -0.15517,-0.854576 0.128906,-1.523438 0.284089,-0.668862 0.734581,-2.278378 0.160161,-2.53125 -0.07181,-0.032 -0.146939,-0.04452 -0.218749,-0.03906 z M 8.78125,22.437945 C 8.350432,22.437945 8,22.788377 8,23.219196 c 0,0.430821 0.350432,0.781251 0.78125,0.781251 0.430818,0 0.78125,-0.35043 0.78125,-0.781251 0,-0.430819 -0.350432,-0.781251 -0.78125,-0.781251 z m 30.398437,1.570313 c -0.412186,0.02093 -0.742187,0.363894 -0.742187,0.78125 0,0.430819 0.350431,0.777345 0.781249,0.777345 0.430819,0 0.781251,-0.346526 0.781251,-0.777345 0,-0.430818 -0.350432,-0.78125 -0.781251,-0.78125 -0.01348,0 -0.02576,-6.75e-4 -0.03906,0 z"
     style="fill:#a6d7ff;fill-opacity:1;stroke-width:2"
     id="path449"
     sodipodi:nodetypes="sssssssccccccccsssscccccsccsscccssssssscscccccssssscccscsccssccccssccsccccssccccccsscccccssssssssssss" />
  <path
     id="rect2630"
     style="fill:#ffffff;fill-opacity:1;opacity:0.3"
     d="M 10,4 C 6.6760035,4 4.0000002,6.6760033 4.0000002,10 v 1 C 4.0000002,7.6760032 6.6760035,5 10,5 h 28 c 3.323997,0 6,2.6760032 6,6 V 10 C 44,6.6760033 41.323997,4 38,4 Z" />
  <path
     id="rect398"
     style="opacity:0.3;fill:#ffffff"
     d="m 4.0000001,37 v 1 c 0,3.323996 2.6760033,6 5.9999999,6 h 28 c 3.323997,0 6,-2.676004 6,-6 v -1 c 0,3.323996 -2.676003,6 -6,6 H 10 C 6.6760034,43 4.0000001,40.323996 4.0000001,37 Z" />
  <path
     id="rect899"
     style="opacity:0.5;fill:#000000;stroke:none"
     d="M 10,3 C 6.1220039,3 3,6.1220039 3,10 v 28 c 0,3.877996 3.1220039,7 7,7 h 28 c 3.877996,0 7,-3.122004 7,-7 V 10 C 45,6.1220039 41.877996,3 38,3 Z m 0,1 h 28 c 3.323997,0 6,2.6760033 6,6 v 28 c 0,3.323997 -2.676003,6 -6,6 H 10 C 6.6760033,44 4,41.323997 4,38 V 10 C 4,6.6760033 6.6760033,4 10,4 Z" />
</svg>
