<?xml version="1.0" encoding="UTF-8" standalone="no"?>
<!-- Created with Inkscape (http://www.inkscape.org/) -->

<svg
   width="48"
   height="48"
   viewBox="0 0 48 48.000002"
   version="1.1"
   id="svg5"
   sodipodi:docname="kvantum.svg"
   inkscape:version="1.2.1 (9c6d41e410, 2022-07-14)"
   xmlns:inkscape="http://www.inkscape.org/namespaces/inkscape"
   xmlns:sodipodi="http://sodipodi.sourceforge.net/DTD/sodipodi-0.dtd"
   xmlns:xlink="http://www.w3.org/1999/xlink"
   xmlns="http://www.w3.org/2000/svg"
   xmlns:svg="http://www.w3.org/2000/svg">
  <sodipodi:namedview
     id="namedview7"
     pagecolor="#ffffff"
     bordercolor="#666666"
     borderopacity="1.0"
     inkscape:showpageshadow="2"
     inkscape:pageopacity="0.0"
     inkscape:pagecheckerboard="0"
     inkscape:deskcolor="#d1d1d1"
     inkscape:document-units="px"
     showgrid="false"
     inkscape:zoom="16.5"
     inkscape:cx="23.969697"
     inkscape:cy="24"
     inkscape:window-width="1920"
     inkscape:window-height="1007"
     inkscape:window-x="0"
     inkscape:window-y="0"
     inkscape:window-maximized="1"
     inkscape:current-layer="svg5"
     showguides="false" />
  <defs
     id="defs2">
    <radialGradient
       inkscape:collect="always"
       xlink:href="#linearGradient1603"
       id="radialGradient11414"
       cx="-1.675118"
       cy="11.872787"
       fx="-1.675118"
       fy="11.872787"
       r="27.5"
       gradientUnits="userSpaceOnUse"
       gradientTransform="matrix(-0.61412964,0.6213098,-0.74827774,-0.73963062,12.921169,15.379674)" />
    <linearGradient
       inkscape:collect="always"
       id="linearGradient1603">
      <stop
         style="stop-color:#ff910c;stop-opacity:1;"
         offset="0"
         id="stop1599" />
      <stop
         style="stop-color:#ff910c;stop-opacity:0;"
         offset="1"
         id="stop1601" />
    </linearGradient>
    <radialGradient
       inkscape:collect="always"
       xlink:href="#linearGradient3954"
       id="radialGradient11404"
       cx="57.208611"
       cy="56.943909"
       fx="57.208611"
       fy="56.943909"
       r="27.5"
       gradientUnits="userSpaceOnUse"
       gradientTransform="matrix(0.72430367,-0.76001887,0.68938669,0.65699064,-37.9009,48.662557)" />
    <linearGradient
       inkscape:collect="always"
       id="linearGradient3954">
      <stop
         style="stop-color:#24c2f5;stop-opacity:1;"
         offset="0"
         id="stop3950" />
      <stop
         style="stop-color:#24c2f5;stop-opacity:0;"
         offset="1"
         id="stop3952" />
    </linearGradient>
    <radialGradient
       inkscape:collect="always"
       xlink:href="#linearGradient5569"
       id="radialGradient11396"
       cx="8.0326223"
       cy="59.247375"
       fx="8.0326223"
       fy="59.247375"
       r="27.5"
       gradientUnits="userSpaceOnUse"
       gradientTransform="matrix(0.68531206,-0.69417068,0.81163779,0.80128008,-48.11192,0.96528365)" />
    <linearGradient
       inkscape:collect="always"
       id="linearGradient5569">
      <stop
         style="stop-color:#f5cc24;stop-opacity:1;"
         offset="0"
         id="stop5565" />
      <stop
         style="stop-color:#f5cc24;stop-opacity:0.00045133"
         offset="1"
         id="stop5567" />
    </linearGradient>
    <radialGradient
       inkscape:collect="always"
       xlink:href="#linearGradient7221"
       id="radialGradient11388"
       cx="32"
       cy="60"
       fx="32"
       fy="60"
       r="27.5"
       gradientUnits="userSpaceOnUse"
       gradientTransform="matrix(-0.75900826,0,0,-0.74545455,48.28826,47.854545)" />
    <linearGradient
       inkscape:collect="always"
       id="linearGradient7221">
      <stop
         style="stop-color:#ff2a2a;stop-opacity:1"
         offset="0"
         id="stop7217" />
      <stop
         style="stop-color:#ff2929;stop-opacity:0.00392157"
         offset="1"
         id="stop7219" />
    </linearGradient>
    <radialGradient
       inkscape:collect="always"
       xlink:href="#linearGradient10051"
       id="radialGradient11378"
       cx="6.5505433"
       cy="56.244072"
       fx="6.5505433"
       fy="56.244072"
       r="27.5"
       gradientUnits="userSpaceOnUse"
       gradientTransform="matrix(-0.53625768,-0.51713221,0.67484543,-0.69980387,8.5281415,48.345853)" />
    <linearGradient
       inkscape:collect="always"
       id="linearGradient10051">
      <stop
         style="stop-color:#aa3ad4;stop-opacity:1"
         offset="0"
         id="stop10047" />
      <stop
         style="stop-color:#aa3ad4;stop-opacity:0"
         offset="1"
         id="stop10049" />
    </linearGradient>
    <radialGradient
       inkscape:collect="always"
       xlink:href="#linearGradient15132"
       id="radialGradient11244"
       cx="45.75"
       cy="51.798988"
       fx="45.75"
       fy="51.798988"
       r="27.5"
       gradientUnits="userSpaceOnUse"
       gradientTransform="matrix(-4.6086301e-8,0.75900826,-0.75900817,-1.3260259e-7,42.443128,-10.72462)" />
    <linearGradient
       inkscape:collect="always"
       id="linearGradient15132">
      <stop
         style="stop-color:#f5e224;stop-opacity:1;"
         offset="0"
         id="stop15128" />
      <stop
         style="stop-color:#f5e224;stop-opacity:0;"
         offset="1"
         id="stop15130" />
    </linearGradient>
    <radialGradient
       inkscape:collect="always"
       xlink:href="#linearGradient12059"
       id="radialGradient11234"
       cx="32"
       cy="60"
       fx="32"
       fy="60"
       r="27.5"
       gradientUnits="userSpaceOnUse"
       gradientTransform="matrix(0.75900826,0,0,0.74545455,-0.28826476,0.14545578)" />
    <linearGradient
       inkscape:collect="always"
       id="linearGradient12059">
      <stop
         style="stop-color:#47c12a;stop-opacity:1;"
         offset="0"
         id="stop12055" />
      <stop
         style="stop-color:#47c12a;stop-opacity:0;"
         offset="1"
         id="stop12057" />
    </linearGradient>
  </defs>
  <rect
     style="fill:#ffffff;fill-opacity:1;stroke:none"
     id="rect184"
     width="41"
     height="41"
     x="3.5"
     y="3.5"
     ry="6.5" />
  <rect
     style="fill:url(#radialGradient11414);fill-opacity:1;stroke-width:0.745455;stroke-linejoin:round"
     id="rect10562"
     width="41"
     height="41"
     x="3.5"
     y="3.5"
     ry="6.5" />
  <rect
     style="fill:url(#radialGradient11404);fill-opacity:1;stroke-width:0.745455;stroke-linejoin:round"
     id="rect10564"
     width="41"
     height="41"
     x="3.5"
     y="3.5"
     ry="6.5" />
  <rect
     style="fill:url(#radialGradient11396);fill-opacity:1;stroke-width:0.745455;stroke-linejoin:round"
     id="rect10566"
     width="41"
     height="41"
     x="3.5"
     y="3.5"
     ry="6.5" />
  <rect
     style="fill:url(#radialGradient11388);fill-opacity:1;stroke-width:0.745455;stroke-linejoin:round"
     id="rect10568"
     width="41"
     height="41"
     x="3.5"
     y="3.5"
     ry="6.5" />
  <rect
     style="fill:url(#radialGradient11378);fill-opacity:1;stroke-width:0.745455;stroke-linejoin:round"
     id="rect10570"
     width="41"
     height="41"
     x="3.5"
     y="3.500001"
     ry="6.5" />
  <rect
     style="fill:url(#radialGradient11244);fill-opacity:1;stroke-width:0.745455;stroke-linejoin:round"
     id="rect10572"
     width="41"
     height="41"
     x="3.5"
     y="3.500001"
     ry="6.5"
     inkscape:label="rect10572" />
  <rect
     style="fill:url(#radialGradient11234);fill-opacity:1;stroke-width:0.745455;stroke-linejoin:round"
     id="rect10574"
     width="41"
     height="41"
     x="3.5"
     y="3.5"
     ry="6.5" />
  <path
     d="m 13.111612,16.004288 v 2.075713 h 2.07964 L 12.075716,32.613937 H 10 v 2.07964 h 7.270893 v -2.07964 h -1.765732 l 1.141838,-6.227146 h 1.663713 l 3.115536,6.227146 c 0.525797,1.055516 1.451824,2.07964 3.111614,2.07964 h 3.115531 L 34.920363,27.422686 37,24.307149 v -1.035897 l -1.039818,-1.039819 h -1.039819 l -1.0359,1.039819 v 3.115539 l -4.681149,5.187328 1.55777,-8.302867 -1.039821,-1.039819 -4.15143,1.039819 v 1.035897 h 2.075713 l -1.035895,8.306788 h -1.035895 l -4.151432,-8.306788 6.227145,-6.227148 h 2.079641 v -2.079638 h -7.274813 v 2.079638 h 2.389624 l -6.95306,7.266967 H 16.85104 l 1.451824,-7.266967 h 2.079641 v -2.079638 z"
     style="opacity:0.2;fill:#000000;stroke-width:3.92385"
     id="path13420" />
  <path
     d="m 13.111612,15.003925 v 2.075714 h 2.07964 L 12.075716,31.613575 H 10 v 2.079639 h 7.270893 v -2.079639 h -1.765732 l 1.141838,-6.227147 h 1.663713 l 3.115536,6.227147 c 0.525797,1.055515 1.451824,2.079639 3.111614,2.079639 h 3.115531 L 34.920363,26.422323 37,23.306787 v -1.035896 l -1.039818,-1.03982 h -1.039819 l -1.0359,1.03982 v 3.115537 l -4.681149,5.187328 1.55777,-8.302865 -1.039821,-1.03982 -4.15143,1.03982 v 1.035896 h 2.075713 l -1.035895,8.306788 h -1.035895 l -4.151432,-8.306788 6.227145,-6.227148 H 29.72911 V 15 h -7.274813 v 2.079639 h 2.389624 l -6.95306,7.266968 H 16.85104 l 1.451824,-7.266968 h 2.079641 V 15 Z"
     style="fill:#ffffff;stroke-width:3.92385"
     id="path13203"
     sodipodi:nodetypes="ccccccccccccsccccccccccccccccccccccccccccc" />
  <path
     id="rect2630"
     style="fill:#ffffff;fill-opacity:1;opacity:0.3"
     d="M 10,4 C 6.6760035,4 4.0000002,6.6760033 4.0000002,10 v 1 C 4.0000002,7.6760032 6.6760035,5 10,5 h 28 c 3.323997,0 6,2.6760032 6,6 V 10 C 44,6.6760033 41.323997,4 38,4 Z" />
  <path
     id="rect398"
     style="opacity:0.3;fill:#ffffff"
     d="m 4.0000001,37 v 1 c 0,3.323996 2.6760033,6 5.9999999,6 h 28 c 3.323997,0 6,-2.676004 6,-6 v -1 c 0,3.323996 -2.676003,6 -6,6 H 10 C 6.6760034,43 4.0000001,40.323996 4.0000001,37 Z" />
  <path
     id="rect899"
     style="opacity:0.5;fill:#000000;stroke:none"
     d="M 10,3 C 6.1220039,3 3,6.1220039 3,10 v 28 c 0,3.877996 3.1220039,7 7,7 h 28 c 3.877996,0 7,-3.122004 7,-7 V 10 C 45,6.1220039 41.877996,3 38,3 Z m 0,1 h 28 c 3.323997,0 6,2.6760033 6,6 v 28 c 0,3.323997 -2.676003,6 -6,6 H 10 C 6.6760033,44 4,41.323997 4,38 V 10 C 4,6.6760033 6.6760033,4 10,4 Z" />
</svg>
