<?xml version="1.0" encoding="UTF-8" standalone="no"?>
<!-- Created with Inkscape (http://www.inkscape.org/) -->

<svg
   width="48"
   height="48"
   viewBox="0 0 48 48.000002"
   version="1.1"
   id="svg5"
   sodipodi:docname="microsoft-edge-canary.svg"
   inkscape:version="1.2.1 (9c6d41e410, 2022-07-14)"
   xmlns:inkscape="http://www.inkscape.org/namespaces/inkscape"
   xmlns:sodipodi="http://sodipodi.sourceforge.net/DTD/sodipodi-0.dtd"
   xmlns:xlink="http://www.w3.org/1999/xlink"
   xmlns="http://www.w3.org/2000/svg"
   xmlns:svg="http://www.w3.org/2000/svg">
  <sodipodi:namedview
     id="namedview7"
     pagecolor="#ffffff"
     bordercolor="#666666"
     borderopacity="1.0"
     inkscape:showpageshadow="2"
     inkscape:pageopacity="0.0"
     inkscape:pagecheckerboard="0"
     inkscape:deskcolor="#d1d1d1"
     inkscape:document-units="px"
     showgrid="false"
     inkscape:zoom="9.1923882"
     inkscape:cx="19.091883"
     inkscape:cy="34.811411"
     inkscape:window-width="1920"
     inkscape:window-height="1002"
     inkscape:window-x="0"
     inkscape:window-y="0"
     inkscape:window-maximized="1"
     inkscape:current-layer="svg5" />
  <defs
     id="defs2">
    <linearGradient
       inkscape:collect="always"
       id="linearGradient1140">
      <stop
         style="stop-color:#f4ae35;stop-opacity:1;"
         offset="0"
         id="stop1136" />
      <stop
         style="stop-color:#fde38b;stop-opacity:1;"
         offset="1"
         id="stop1138" />
    </linearGradient>
    <linearGradient
       inkscape:collect="always"
       xlink:href="#linearGradient1140"
       id="linearGradient12308"
       x1="38"
       y1="45"
       x2="10"
       y2="3"
       gradientUnits="userSpaceOnUse" />
  </defs>
  <rect
     style="fill:url(#linearGradient12308);fill-opacity:1;stroke:none"
     id="rect184"
     width="41"
     height="41"
     x="3.5"
     y="3.5"
     ry="6.5" />
  <path
     d="m 22.317985,30.130657 c -1.034982,-1.15498 -1.73997,-2.534956 -1.964967,-4.07993 -0.449992,0.689988 -0.824985,1.439975 -1.094981,2.249962 -1.379976,4.124929 1.019983,9.269841 5.099913,10.769815 3.50994,1.16998 7.454872,-0.914984 10.049828,-3.194945 0.389993,-0.524991 3.46494,-3.239945 1.934966,-3.53994 -4.529922,2.324961 -10.529819,1.664972 -14.024759,-2.204962 m 0.899984,-8.714852 c 1.559974,-0.015 0.06,-0.644989 -0.58499,-1.124981 -1.559973,-0.854985 -3.389942,-1.274978 -5.159911,-1.274978 -5.774899,0.06 -9.952328,3.674937 -7.994861,9.659836 1.409976,5.8199 6.464887,10.49982 12.434785,11.249807 -3.074948,-1.934967 -4.934916,-5.564904 -4.934916,-9.179842 0.119998,-3.794935 2.459958,-8.24986 6.239893,-9.329842 M 10.198194,19.435839 c 4.55992,-3.359944 11.819796,-3.089949 15.749729,1.13998 1.529973,1.664972 2.579955,4.499925 1.184979,6.55489 -2.609955,2.819951 4.619921,3.194945 6.164895,2.774952 C 38.9077,28.82568 40.392675,22.30079 37.722721,17.800866 35.172764,12.700955 29.517861,10.031001 23.967956,10.076 17.878061,9.9710021 12.403157,13.825936 10.198194,19.435839 Z"
     id="path534"
     style="opacity:0.2;fill:#000000;stroke-width:1.49997" />
  <path
     d="m 22.317985,29.130959 c -1.034983,-1.15498 -1.73997,-2.534957 -1.964967,-4.07993 -0.449992,0.689988 -0.824985,1.439975 -1.094981,2.249961 -1.379976,4.124929 1.019983,9.269841 5.099913,10.769815 3.509939,1.16998 7.454872,-0.914984 10.049827,-3.194945 0.389994,-0.524991 3.464941,-3.239944 1.934967,-3.539939 -4.529922,2.32496 -10.529819,1.664971 -14.024759,-2.204962 m 0.899984,-8.714851 c 1.559973,-0.015 0.06,-0.644989 -0.58499,-1.12498 -1.559973,-0.854986 -3.389942,-1.274979 -5.159911,-1.274979 -5.7749,0.06 -9.952328,3.674937 -7.994862,9.659835 1.409976,5.8199 6.464888,10.499819 12.434786,11.249807 -3.074948,-1.934967 -4.934916,-5.564905 -4.934916,-9.179843 0.119998,-3.794935 2.459958,-8.249858 6.239893,-9.32984 M 10.198194,18.436142 c 4.559921,-3.359944 11.819796,-3.089948 15.749728,1.139981 1.529974,1.664971 2.579956,4.499922 1.18498,6.554887 -2.609955,2.819952 4.619921,3.194945 6.164894,2.774953 C 38.9077,27.825981 40.392674,21.301093 37.72272,16.801169 35.172764,11.701257 29.517861,9.0313031 23.967956,9.0763021 17.878061,8.9713041 12.403156,12.826238 10.198194,18.436142 Z"
     id="path345"
     sodipodi:nodetypes="ccccccccccccccccccccc"
     style="fill:#ffffff;stroke-width:1.49997" />
  <path
     id="rect2630"
     style="fill:#ffffff;fill-opacity:1;opacity:0.3"
     d="M 10,4 C 6.6760035,4 4.0000002,6.6760033 4.0000002,10 v 1 C 4.0000002,7.6760032 6.6760035,5 10,5 h 28 c 3.323997,0 6,2.6760032 6,6 V 10 C 44,6.6760033 41.323997,4 38,4 Z" />
  <path
     id="rect398"
     style="opacity:0.3;fill:#ffffff"
     d="m 4.0000001,37 v 1 c 0,3.323996 2.6760033,6 5.9999999,6 h 28 c 3.323997,0 6,-2.676004 6,-6 v -1 c 0,3.323996 -2.676003,6 -6,6 H 10 C 6.6760034,43 4.0000001,40.323996 4.0000001,37 Z" />
  <path
     id="rect899"
     style="opacity:0.5;fill:#000000;stroke:none"
     d="M 10,3 C 6.1220039,3 3,6.1220039 3,10 v 28 c 0,3.877996 3.1220039,7 7,7 h 28 c 3.877996,0 7,-3.122004 7,-7 V 10 C 45,6.1220039 41.877996,3 38,3 Z m 0,1 h 28 c 3.323997,0 6,2.6760033 6,6 v 28 c 0,3.323997 -2.676003,6 -6,6 H 10 C 6.6760033,44 4,41.323997 4,38 V 10 C 4,6.6760033 6.6760033,4 10,4 Z" />
</svg>
