<?xml version="1.0" encoding="UTF-8" standalone="no"?>
<!-- Created with Inkscape (http://www.inkscape.org/) -->

<svg
   width="48"
   height="48"
   viewBox="0 0 48 48.000002"
   version="1.1"
   id="svg5"
   sodipodi:docname="mintupdate.svg"
   inkscape:version="1.2.1 (9c6d41e410, 2022-07-14)"
   xmlns:inkscape="http://www.inkscape.org/namespaces/inkscape"
   xmlns:sodipodi="http://sodipodi.sourceforge.net/DTD/sodipodi-0.dtd"
   xmlns:xlink="http://www.w3.org/1999/xlink"
   xmlns="http://www.w3.org/2000/svg"
   xmlns:svg="http://www.w3.org/2000/svg">
  <sodipodi:namedview
     id="namedview7"
     pagecolor="#ffffff"
     bordercolor="#666666"
     borderopacity="1.0"
     inkscape:showpageshadow="2"
     inkscape:pageopacity="0.0"
     inkscape:pagecheckerboard="0"
     inkscape:deskcolor="#d1d1d1"
     inkscape:document-units="px"
     showgrid="false"
     inkscape:zoom="17.104167"
     inkscape:cx="23.970767"
     inkscape:cy="24.058465"
     inkscape:window-width="1920"
     inkscape:window-height="1007"
     inkscape:window-x="0"
     inkscape:window-y="0"
     inkscape:window-maximized="1"
     inkscape:current-layer="svg5" />
  <defs
     id="defs2">
    <linearGradient
       inkscape:collect="always"
       xlink:href="#linearGradient4522"
       id="linearGradient15179"
       x1="38"
       y1="45"
       x2="10"
       y2="3"
       gradientUnits="userSpaceOnUse" />
    <linearGradient
       inkscape:collect="always"
       id="linearGradient4522">
      <stop
         style="stop-color:#579142;stop-opacity:1;"
         offset="0"
         id="stop4518" />
      <stop
         style="stop-color:#92cd50;stop-opacity:1;"
         offset="1"
         id="stop4520" />
    </linearGradient>
  </defs>
  <rect
     style="fill:url(#linearGradient15179);fill-opacity:1.0;stroke:none;stroke-width:1"
     id="rect184"
     width="41"
     height="41"
     x="3.5"
     y="3.5"
     ry="6.5" />
  <path
     d="m 24,10.999992 c 0,0 -3.41273,2.833737 -13.999999,4.000008 C 9.95918,26.669139 20.116461,37.599991 24,38.999992 27.652902,37.599991 38.040821,26.669139 37.999999,15 27.412729,13.833729 24,10.999992 24,10.999992 Z"
     style="opacity:0.2;fill:#000000;stroke-width:2.79999;stroke-linecap:round;stroke-linejoin:round"
     id="path11269"
     sodipodi:nodetypes="ccccc" />
  <path
     id="rect11106"
     style="fill:#ffffff;stroke-width:2.79999;stroke-linecap:round;stroke-linejoin:round"
     d="m 24,10 c 0,0 -3.41273,2.833728 -14,4 C 9.959179,25.669139 20.355228,36.726418 24,38 27.706242,36.711169 38.04082,25.669139 37.999999,14 27.412728,12.833728 24,10 24,10 Z"
     sodipodi:nodetypes="ccccc" />
  <path
     d="M 24,10 V 38 C 27.830293,36.602521 38.040821,25.669139 37.999999,14 27.412728,12.833728 24,10 24,10 Z"
     style="opacity:0.1;fill:#000000;stroke-width:2.79999;stroke-linecap:round;stroke-linejoin:round"
     id="path11356"
     sodipodi:nodetypes="cccc" />
  <path
     id="rect2630"
     style="fill:#ffffff;fill-opacity:1;opacity:0.3"
     d="M 10,4 C 6.6760035,4 4.0000002,6.6760033 4.0000002,10 v 1 C 4.0000002,7.6760032 6.6760035,5 10,5 h 28 c 3.323997,0 6,2.6760032 6,6 V 10 C 44,6.6760033 41.323997,4 38,4 Z" />
  <path
     id="rect398"
     style="opacity:0.3;fill:#ffffff"
     d="m 4.0000001,37 v 1 c 0,3.323996 2.6760033,6 5.9999999,6 h 28 c 3.323997,0 6,-2.676004 6,-6 v -1 c 0,3.323996 -2.676003,6 -6,6 H 10 C 6.6760034,43 4.0000001,40.323996 4.0000001,37 Z" />
  <path
     id="rect899"
     style="opacity:0.5;fill:#000000;stroke:none"
     d="M 10,3 C 6.1220039,3 3,6.1220039 3,10 v 28 c 0,3.877996 3.1220039,7 7,7 h 28 c 3.877996,0 7,-3.122004 7,-7 V 10 C 45,6.1220039 41.877996,3 38,3 Z m 0,1 h 28 c 3.323997,0 6,2.6760033 6,6 v 28 c 0,3.323997 -2.676003,6 -6,6 H 10 C 6.6760033,44 4,41.323997 4,38 V 10 C 4,6.6760033 6.6760033,4 10,4 Z" />
</svg>
