<?xml version="1.0" encoding="UTF-8" standalone="no"?>
<!-- Created with Inkscape (http://www.inkscape.org/) -->

<svg
   width="48"
   height="48"
   viewBox="0 0 48 48.000002"
   version="1.1"
   id="svg5"
   sodipodi:docname="mintinstall.svg"
   inkscape:version="1.2.1 (9c6d41e410, 2022-07-14)"
   xmlns:inkscape="http://www.inkscape.org/namespaces/inkscape"
   xmlns:sodipodi="http://sodipodi.sourceforge.net/DTD/sodipodi-0.dtd"
   xmlns:xlink="http://www.w3.org/1999/xlink"
   xmlns="http://www.w3.org/2000/svg"
   xmlns:svg="http://www.w3.org/2000/svg">
  <sodipodi:namedview
     id="namedview7"
     pagecolor="#ffffff"
     bordercolor="#666666"
     borderopacity="1.0"
     inkscape:showpageshadow="2"
     inkscape:pageopacity="0.0"
     inkscape:pagecheckerboard="0"
     inkscape:deskcolor="#d1d1d1"
     inkscape:document-units="px"
     showgrid="false"
     inkscape:zoom="18.809524"
     inkscape:cx="24.003797"
     inkscape:cy="23.977215"
     inkscape:window-width="1920"
     inkscape:window-height="1002"
     inkscape:window-x="0"
     inkscape:window-y="0"
     inkscape:window-maximized="1"
     inkscape:current-layer="svg5" />
  <defs
     id="defs2">
    <linearGradient
       inkscape:collect="always"
       id="linearGradient7533">
      <stop
         style="stop-color:#89c64b;stop-opacity:1;"
         offset="0"
         id="stop7529" />
      <stop
         style="stop-color:#6bae25;stop-opacity:1;"
         offset="1"
         id="stop7531" />
    </linearGradient>
    <linearGradient
       inkscape:collect="always"
       xlink:href="#linearGradient22024"
       id="linearGradient6478"
       x1="23.5"
       y1="44.5"
       x2="23.5"
       y2="2.5"
       gradientUnits="userSpaceOnUse"
       gradientTransform="translate(0.5,0.5)" />
    <linearGradient
       inkscape:collect="always"
       id="linearGradient22024">
      <stop
         style="stop-color:#dfdfdf;stop-opacity:1;"
         offset="0"
         id="stop22020" />
      <stop
         style="stop-color:#f2f2f2;stop-opacity:1;"
         offset="1"
         id="stop22022" />
    </linearGradient>
    <linearGradient
       inkscape:collect="always"
       xlink:href="#linearGradient7533"
       id="linearGradient7535"
       x1="3"
       y1="3"
       x2="3"
       y2="45"
       gradientUnits="userSpaceOnUse" />
  </defs>
  <rect
     style="fill:url(#linearGradient6478);fill-opacity:1;stroke:none"
     id="rect184"
     width="41"
     height="41"
     x="3.5"
     y="3.5"
     ry="6.5" />
  <circle
     style="fill:url(#linearGradient7535);fill-opacity:1;stroke-width:0.906247;stroke-linecap:round;stroke-linejoin:round"
     id="path943"
     cx="23.5"
     cy="24.5"
     r="14.5" />
  <path
     id="path6755"
     style="opacity:0.2;fill:#000000;stroke-linejoin:round"
     d="M 23.5 10 A 14.5 14.5 0 0 0 9 24.5 A 14.5 14.5 0 0 0 9.0351562 25 A 14.5 14.5 0 0 1 23.5 11 A 14.5 14.5 0 0 1 37.980469 24.767578 A 14.5 14.5 0 0 0 38 24.5 A 14.5 14.5 0 0 0 23.5 10 z " />
  <path
     d="m 17,18 c -0.553999,0 -1,0.446 -1,1 v 1 c 0,0.553999 0.446001,1 1,1 h 1 c 0.553999,0 1,-0.446001 1,-1 v -1 c 0,-0.554 -0.446001,-1 -1,-1 z m 6,0 c -0.553999,0 -1,0.446 -1,1 v 1 c 0,0.553999 0.446001,1 1,1 h 1 c 0.553999,0 1,-0.446001 1,-1 v -1 c 0,-0.554 -0.446001,-1 -1,-1 z m 6,0 c -0.553999,0 -1,0.446 -1,1 v 1 c 0,0.553999 0.446001,1 1,1 h 1 c 0.553999,0 1,-0.446001 1,-1 v -1 c 0,-0.554 -0.446001,-1 -1,-1 z m -12,6 c -0.553999,0 -1,0.446 -1,1 v 1 c 0,0.553999 0.446001,1 1,1 h 1 c 0.553999,0 1,-0.446001 1,-1 v -1 c 0,-0.554 -0.446001,-1 -1,-1 z m 6,0 c -0.553999,0 -1,0.446 -1,1 v 1 c 0,0.553999 0.446001,1 1,1 h 1 c 0.553999,0 1,-0.446001 1,-1 v -1 c 0,-0.554 -0.446001,-1 -1,-1 z m 6,0 c -0.553999,0 -1,0.446 -1,1 v 1 c 0,0.553999 0.446001,1 1,1 h 1 c 0.553999,0 1,-0.446001 1,-1 v -1 c 0,-0.554 -0.446001,-1 -1,-1 z m -12,6 c -0.553999,0 -1,0.446 -1,1 v 1 c 0,0.553999 0.446001,1 1,1 h 1 c 0.553999,0 1,-0.446001 1,-1 v -1 c 0,-0.554 -0.446001,-1 -1,-1 z m 6,0 c -0.553999,0 -1,0.446 -1,1 v 1 c 0,0.553999 0.446001,1 1,1 h 1 c 0.553999,0 1,-0.446001 1,-1 v -1 c 0,-0.554 -0.446001,-1 -1,-1 z m 6,0 c -0.553999,0 -1,0.446 -1,1 v 1 c 0,0.553999 0.446001,1 1,1 h 1 c 0.553999,0 1,-0.446001 1,-1 v -1 c 0,-0.554 -0.446001,-1 -1,-1 z"
     style="fill:#000000;stroke-linejoin:round;opacity:0.2"
     id="path6678" />
  <path
     id="rect2630"
     style="fill:#ffffff;fill-opacity:1;opacity:0.3"
     d="M 10,4 C 6.6760035,4 4.0000002,6.6760033 4.0000002,10 v 1 C 4.0000002,7.6760032 6.6760035,5 10,5 h 28 c 3.323997,0 6,2.6760032 6,6 V 10 C 44,6.6760033 41.323997,4 38,4 Z" />
  <path
     id="rect398"
     style="opacity:0.3;fill:#ffffff"
     d="m 4.0000001,37 v 1 c 0,3.323996 2.6760033,6 5.9999999,6 h 28 c 3.323997,0 6,-2.676004 6,-6 v -1 c 0,3.323996 -2.676003,6 -6,6 H 10 C 6.6760034,43 4.0000001,40.323996 4.0000001,37 Z" />
  <path
     id="rect899"
     style="opacity:0.5;fill:#000000;stroke:none"
     d="M 10,3 C 6.1220039,3 3,6.1220039 3,10 v 28 c 0,3.877996 3.1220039,7 7,7 h 28 c 3.877996,0 7,-3.122004 7,-7 V 10 C 45,6.1220039 41.877996,3 38,3 Z m 0,1 h 28 c 3.323997,0 6,2.6760033 6,6 v 28 c 0,3.323997 -2.676003,6 -6,6 H 10 C 6.6760033,44 4,41.323997 4,38 V 10 C 4,6.6760033 6.6760033,4 10,4 Z" />
  <path
     id="rect3628"
     style="opacity:1;fill:#f2f2f2;stroke-linejoin:round"
     d="m 17,17 c -0.553999,0 -1,0.446 -1,1 v 1 c 0,0.553999 0.446001,1 1,1 h 1 c 0.553999,0 1,-0.446001 1,-1 v -1 c 0,-0.554 -0.446001,-1 -1,-1 z m 6,0 c -0.553999,0 -1,0.446 -1,1 v 1 c 0,0.553999 0.446001,1 1,1 h 1 c 0.553999,0 1,-0.446001 1,-1 v -1 c 0,-0.554 -0.446001,-1 -1,-1 z m 6,0 c -0.553999,0 -1,0.446 -1,1 v 1 c 0,0.553999 0.446001,1 1,1 h 1 c 0.553999,0 1,-0.446001 1,-1 v -1 c 0,-0.554 -0.446001,-1 -1,-1 z m -12,6 c -0.553999,0 -1,0.446 -1,1 v 1 c 0,0.553999 0.446001,1 1,1 h 1 c 0.553999,0 1,-0.446001 1,-1 v -1 c 0,-0.554 -0.446001,-1 -1,-1 z m 6,0 c -0.553999,0 -1,0.446 -1,1 v 1 c 0,0.553999 0.446001,1 1,1 h 1 c 0.553999,0 1,-0.446001 1,-1 v -1 c 0,-0.554 -0.446001,-1 -1,-1 z m 6,0 c -0.553999,0 -1,0.446 -1,1 v 1 c 0,0.553999 0.446001,1 1,1 h 1 c 0.553999,0 1,-0.446001 1,-1 v -1 c 0,-0.554 -0.446001,-1 -1,-1 z m -12,6 c -0.553999,0 -1,0.446 -1,1 v 1 c 0,0.553999 0.446001,1 1,1 h 1 c 0.553999,0 1,-0.446001 1,-1 v -1 c 0,-0.554 -0.446001,-1 -1,-1 z m 6,0 c -0.553999,0 -1,0.446 -1,1 v 1 c 0,0.553999 0.446001,1 1,1 h 1 c 0.553999,0 1,-0.446001 1,-1 v -1 c 0,-0.554 -0.446001,-1 -1,-1 z m 6,0 c -0.553999,0 -1,0.446 -1,1 v 1 c 0,0.553999 0.446001,1 1,1 h 1 c 0.553999,0 1,-0.446001 1,-1 v -1 c 0,-0.554 -0.446001,-1 -1,-1 z"
     sodipodi:nodetypes="sssssssssssssssssssssssssssssssssssssssssssssssssssssssssssssssssssssssssssssssss" />
</svg>
