<?xml version="1.0" encoding="UTF-8" standalone="no"?>
<!-- Created with Inkscape (http://www.inkscape.org/) -->

<svg
   width="48"
   height="48"
   viewBox="0 0 48 48.000002"
   version="1.1"
   id="svg5"
   sodipodi:docname="multimedia-photo-viewer.svg"
   inkscape:version="1.2.1 (9c6d41e410, 2022-07-14)"
   xmlns:inkscape="http://www.inkscape.org/namespaces/inkscape"
   xmlns:sodipodi="http://sodipodi.sourceforge.net/DTD/sodipodi-0.dtd"
   xmlns:xlink="http://www.w3.org/1999/xlink"
   xmlns="http://www.w3.org/2000/svg"
   xmlns:svg="http://www.w3.org/2000/svg">
  <sodipodi:namedview
     id="namedview7"
     pagecolor="#ffffff"
     bordercolor="#666666"
     borderopacity="1.0"
     inkscape:showpageshadow="2"
     inkscape:pageopacity="0.0"
     inkscape:pagecheckerboard="0"
     inkscape:deskcolor="#d1d1d1"
     inkscape:document-units="px"
     showgrid="false"
     inkscape:zoom="11.711456"
     inkscape:cx="14.302235"
     inkscape:cy="27.451753"
     inkscape:window-width="1920"
     inkscape:window-height="1007"
     inkscape:window-x="0"
     inkscape:window-y="0"
     inkscape:window-maximized="1"
     inkscape:current-layer="svg5" />
  <defs
     id="defs2">
    <linearGradient
       inkscape:collect="always"
       xlink:href="#linearGradient21236"
       id="linearGradient6478"
       x1="37.5"
       y1="44.5"
       x2="9.5"
       y2="2.5"
       gradientUnits="userSpaceOnUse"
       gradientTransform="translate(0.5,0.5)" />
    <linearGradient
       inkscape:collect="always"
       id="linearGradient21236">
      <stop
         style="stop-color:#3689e6;stop-opacity:1;"
         offset="0"
         id="stop21232" />
      <stop
         style="stop-color:#5dcffc;stop-opacity:1;"
         offset="1"
         id="stop21234" />
    </linearGradient>
    <linearGradient
       inkscape:collect="always"
       xlink:href="#linearGradient2509"
       id="linearGradient1777"
       x1="23"
       y1="23"
       x2="15.398276"
       y2="14.601724"
       gradientUnits="userSpaceOnUse"
       gradientTransform="scale(2)" />
    <linearGradient
       inkscape:collect="always"
       id="linearGradient2509">
      <stop
         style="stop-color:#077e29;stop-opacity:1;"
         offset="0"
         id="stop2505" />
      <stop
         style="stop-color:#77b408;stop-opacity:1;"
         offset="1"
         id="stop2507" />
    </linearGradient>
    <linearGradient
       inkscape:collect="always"
       xlink:href="#linearGradient1767"
       id="linearGradient1769"
       x1="21"
       y1="23"
       x2="8"
       y2="9"
       gradientUnits="userSpaceOnUse"
       gradientTransform="scale(2)" />
    <linearGradient
       inkscape:collect="always"
       id="linearGradient1767">
      <stop
         style="stop-color:#09ae39;stop-opacity:1;"
         offset="0"
         id="stop1763" />
      <stop
         style="stop-color:#8ed90b;stop-opacity:1;"
         offset="1"
         id="stop1765" />
    </linearGradient>
    <linearGradient
       inkscape:collect="always"
       xlink:href="#linearGradient2879"
       id="linearGradient2881"
       x1="29"
       y1="29"
       x2="16"
       y2="3"
       gradientUnits="userSpaceOnUse"
       gradientTransform="matrix(0.30769231,0,0,0.30769231,31.076923,9.0769229)" />
    <linearGradient
       inkscape:collect="always"
       id="linearGradient2879">
      <stop
         style="stop-color:#ff8e42;stop-opacity:1;"
         offset="0"
         id="stop2875" />
      <stop
         style="stop-color:#ffdc42;stop-opacity:1;"
         offset="1"
         id="stop2877" />
    </linearGradient>
  </defs>
  <rect
     style="fill:url(#linearGradient6478);fill-opacity:1;stroke:none"
     id="rect184"
     width="41"
     height="41"
     x="3.5"
     y="3.5"
     ry="6.5" />
  <circle
     style="opacity:0.2;fill:#000000;fill-opacity:1;stroke:none;stroke-width:0.615387;stroke-linecap:round;stroke-linejoin:round;stroke-dasharray:none;stroke-opacity:1"
     id="path2871"
     cx="36"
     cy="15.000126"
     r="4" />
  <circle
     style="fill:url(#linearGradient2881);fill-opacity:1;stroke:none;stroke-width:0.615383;stroke-linecap:round;stroke-linejoin:round;stroke-dasharray:none;stroke-opacity:1"
     id="path2873"
     cx="36"
     cy="14"
     r="4" />
  <path
     id="path2573"
     style="opacity:0.2;fill:#000000;fill-opacity:1;stroke-width:4;stroke-linecap:round;stroke-linejoin:round"
     d="M 18 19 L 4 35 L 4 40.507812 C 4.9777797 42.856559 7.2889852 44.5 10 44.5 L 38 44.5 C 41.600996 44.5 44.5 41.600996 44.5 38 L 44.5 31.5 L 38 25 L 30.517578 32.482422 L 18 19 z " />
  <path
     id="rect1034"
     style="fill:url(#linearGradient1777);fill-opacity:1;stroke-width:4;stroke-linecap:round;stroke-linejoin:round"
     d="M 36 24 L 22 38 L 22 44.5 L 38 44.5 C 41.600996 44.5 44.5 41.600996 44.5 38 L 44.5 32.5 L 36 24 z " />
  <path
     id="rect304"
     style="fill:url(#linearGradient1769);fill-opacity:1;stroke-width:4;stroke-linecap:round;stroke-linejoin:round"
     d="M 16 18 L 3.5 32.285156 L 3.5 38 C 3.5 41.600996 6.3990036 44.5 10 44.5 L 38 44.5 C 38.787718 44.5 39.538791 44.354055 40.236328 44.099609 L 16 18 z " />
  <g
     id="g2705"
     transform="matrix(0,1.8897813,-1.8897813,0,45.68215,-5.0375344)" />
  <path
     id="rect2630"
     style="fill:#ffffff;fill-opacity:1;opacity:0.3"
     d="M 10,4 C 6.6760035,4 4.0000002,6.6760033 4.0000002,10 v 1 C 4.0000002,7.6760032 6.6760035,5 10,5 h 28 c 3.323997,0 6,2.6760032 6,6 V 10 C 44,6.6760033 41.323997,4 38,4 Z" />
  <path
     id="rect398"
     style="opacity:0.3;fill:#ffffff"
     d="m 4.0000001,37 v 1 c 0,3.323996 2.6760033,6 5.9999999,6 h 28 c 3.323997,0 6,-2.676004 6,-6 v -1 c 0,3.323996 -2.676003,6 -6,6 H 10 C 6.6760034,43 4.0000001,40.323996 4.0000001,37 Z" />
  <path
     id="rect899"
     style="opacity:0.5;fill:#000000;stroke:none"
     d="M 10,3 C 6.1220039,3 3,6.1220039 3,10 v 28 c 0,3.877996 3.1220039,7 7,7 h 28 c 3.877996,0 7,-3.122004 7,-7 V 10 C 45,6.1220039 41.877996,3 38,3 Z m 0,1 h 28 c 3.323997,0 6,2.6760033 6,6 v 28 c 0,3.323997 -2.676003,6 -6,6 H 10 C 6.6760033,44 4,41.323997 4,38 V 10 C 4,6.6760033 6.6760033,4 10,4 Z" />
</svg>
