<?xml version="1.0" encoding="UTF-8" standalone="no"?>
<!-- Created with Inkscape (http://www.inkscape.org/) -->

<svg
   width="48"
   height="48"
   viewBox="0 0 48 48.000002"
   version="1.1"
   id="svg5"
   sodipodi:docname="nvidia.svg"
   inkscape:version="1.2 (dc2aedaf03, 2022-05-15)"
   xmlns:inkscape="http://www.inkscape.org/namespaces/inkscape"
   xmlns:sodipodi="http://sodipodi.sourceforge.net/DTD/sodipodi-0.dtd"
   xmlns:xlink="http://www.w3.org/1999/xlink"
   xmlns="http://www.w3.org/2000/svg"
   xmlns:svg="http://www.w3.org/2000/svg">
  <sodipodi:namedview
     id="namedview7"
     pagecolor="#ffffff"
     bordercolor="#666666"
     borderopacity="1.0"
     inkscape:showpageshadow="2"
     inkscape:pageopacity="0.0"
     inkscape:pagecheckerboard="0"
     inkscape:deskcolor="#d1d1d1"
     inkscape:document-units="px"
     showgrid="false"
     inkscape:zoom="16.166667"
     inkscape:cx="23.969072"
     inkscape:cy="24"
     inkscape:window-width="1920"
     inkscape:window-height="991"
     inkscape:window-x="0"
     inkscape:window-y="0"
     inkscape:window-maximized="1"
     inkscape:current-layer="svg5" />
  <defs
     id="defs2">
    <linearGradient
       inkscape:collect="always"
       id="linearGradient1270">
      <stop
         style="stop-color:#80d935;stop-opacity:1;"
         offset="0"
         id="stop1266" />
      <stop
         style="stop-color:#afd65f;stop-opacity:1;"
         offset="1"
         id="stop1268" />
    </linearGradient>
    <linearGradient
       inkscape:collect="always"
       xlink:href="#4852"
       id="linearGradient6478"
       x1="37.5"
       y1="44.5"
       x2="9.5"
       y2="2.5"
       gradientUnits="userSpaceOnUse"
       gradientTransform="translate(0.5,0.5)" />
    <linearGradient
       inkscape:collect="always"
       id="4852">
      <stop
         style="stop-color:#333333;stop-opacity:1"
         offset="0"
         id="stop14555" />
      <stop
         style="stop-color:#666666;stop-opacity:1"
         offset="1"
         id="stop14557" />
    </linearGradient>
    <linearGradient
       inkscape:collect="always"
       xlink:href="#linearGradient1270"
       id="linearGradient1272"
       x1="40"
       y1="35.000004"
       x2="8"
       y2="12.999995"
       gradientUnits="userSpaceOnUse" />
  </defs>
  <rect
     style="fill:url(#linearGradient6478);fill-opacity:1.0;stroke:none"
     id="rect184"
     width="41"
     height="41"
     x="3.5"
     y="3.5"
     ry="6.5" />
  <path
     d="m 11.269439,23.528253 c 0,0 2.957445,-4.268783 8.734311,-4.710408 V 17.269136 C 13.605138,17.783015 8,23.202338 8,23.202338 c 0,0 3.202493,9.07227 12.00375,9.90294 v -1.64616 c -6.458781,-0.812539 -8.734311,-7.930865 -8.734311,-7.930865 z m 8.734311,4.657054 v 1.507567 c -4.881402,-0.870264 -6.300553,-5.944515 -6.300553,-5.944515 0,0 2.407954,-2.596395 6.300553,-3.017449 v 1.654261 c -0.003,0 -0.005,-8.8e-4 -0.0075,-8.8e-4 -2.043046,-0.245175 -3.703258,1.66339 -3.703258,1.66339 0,0 0.958755,3.212998 3.710715,4.137646 m 0,-14.185307 v 3.269136 c 0.187835,-0.0144 0.311478,-0.02661 0.500342,-0.03304 7.274533,-0.245176 12.014383,5.966243 12.014383,5.966243 0,0 -5.443878,6.619617 -11.115448,6.619617 -0.519793,0 -0.942224,-0.04821 -1.399277,-0.129209 v 1.766371 c 0.390841,0.0496 0.73189,0.0788 1.154744,0.0788 5.277771,0 9.094516,-2.695389 12.79028,-5.885503 0.612747,0.490738 3.121331,1.684603 3.63701,2.207225 -3.513972,2.94198 -11.70351,5.313508 -16.346422,5.313508 -0.447539,0 -0.813144,-0.0271 -1.235612,-0.0679 V 36.00001 H 40 V 14 Z m 0,6.73091 v -1.912937 c 0.185907,-0.01299 0.309036,-0.02301 0.500342,-0.02906 5.231102,-0.164307 8.663048,4.495318 8.663048,4.495318 0,0 -3.706821,5.148176 -7.681316,5.148176 -0.571991,0 -1.02065,-0.09192 -1.482203,-0.247104 v -5.800136 c 2.036489,0.246076 2.382166,1.145654 3.606502,3.186642 l 2.723012,-2.29606 c 0,0 -1.987762,-2.606936 -5.338583,-2.606936 -0.364228,-1.29e-4 -0.648579,0.02546 -0.990822,0.0621"
     style="fill:#000000;fill-opacity:1;opacity:0.2"
     id="path1282" />
  <path
     d="m 11.269439,22.528248 c 0,0 2.957445,-4.268783 8.734311,-4.710408 V 16.269131 C 13.605138,16.78301 8,22.202333 8,22.202333 c 0,0 3.202493,9.07227 12.00375,9.90294 v -1.64616 c -6.458781,-0.812539 -8.734311,-7.930865 -8.734311,-7.930865 z m 8.734311,4.657054 v 1.507567 c -4.881402,-0.870264 -6.300553,-5.944515 -6.300553,-5.944515 0,0 2.407954,-2.596395 6.300553,-3.017449 v 1.654261 c -0.003,0 -0.005,-8.8e-4 -0.0075,-8.8e-4 -2.043046,-0.245175 -3.703258,1.66339 -3.703258,1.66339 0,0 0.958755,3.212998 3.710715,4.137646 m 0,-14.185307 v 3.269136 c 0.187835,-0.0144 0.311478,-0.02661 0.500342,-0.03304 7.274533,-0.245176 12.014383,5.966243 12.014383,5.966243 0,0 -5.443878,6.619617 -11.115448,6.619617 -0.519793,0 -0.942224,-0.04821 -1.399277,-0.129209 v 1.766371 c 0.390841,0.0496 0.73189,0.0788 1.154744,0.0788 5.277771,0 9.094516,-2.695389 12.79028,-5.885503 0.612747,0.490738 3.121331,1.684603 3.63701,2.207225 -3.513972,2.94198 -11.70351,5.313508 -16.346422,5.313508 -0.447539,0 -0.813144,-0.0271 -1.235612,-0.0679 v 2.894742 H 40 v -22.00001 z m 0,6.73091 v -1.912937 c 0.185907,-0.01299 0.309036,-0.02301 0.500342,-0.02906 5.231102,-0.164307 8.663048,4.495318 8.663048,4.495318 0,0 -3.706821,5.148176 -7.681316,5.148176 -0.571991,0 -1.02065,-0.09192 -1.482203,-0.247104 v -5.800136 c 2.036489,0.246076 2.382166,1.145654 3.606502,3.186642 l 2.723012,-2.29606 c 0,0 -1.987762,-2.606936 -5.338583,-2.606936 -0.364228,-1.29e-4 -0.648579,0.02546 -0.990822,0.0621"
     style="fill:url(#linearGradient1272);fill-opacity:1"
     id="path353"
     sodipodi:nodetypes="cccccccccccccccccccsccsccscccccccccscccccc" />
  <path
     id="rect2630"
     style="fill:#ffffff;fill-opacity:1;opacity:0.3"
     d="M 10,4 C 6.6760035,4 4.0000002,6.6760033 4.0000002,10 v 1 C 4.0000002,7.6760032 6.6760035,5 10,5 h 28 c 3.323997,0 6,2.6760032 6,6 V 10 C 44,6.6760033 41.323997,4 38,4 Z" />
  <path
     id="rect398"
     style="opacity:0.3;fill:#ffffff"
     d="m 4.0000001,37 v 1 c 0,3.323996 2.6760033,6 5.9999999,6 h 28 c 3.323997,0 6,-2.676004 6,-6 v -1 c 0,3.323996 -2.676003,6 -6,6 H 10 C 6.6760034,43 4.0000001,40.323996 4.0000001,37 Z" />
  <path
     id="rect899"
     style="opacity:0.5;fill:#000000;stroke:none"
     d="M 10,3 C 6.1220039,3 3,6.1220039 3,10 v 28 c 0,3.877996 3.1220039,7 7,7 h 28 c 3.877996,0 7,-3.122004 7,-7 V 10 C 45,6.1220039 41.877996,3 38,3 Z m 0,1 h 28 c 3.323997,0 6,2.6760033 6,6 v 28 c 0,3.323997 -2.676003,6 -6,6 H 10 C 6.6760033,44 4,41.323997 4,38 V 10 C 4,6.6760033 6.6760033,4 10,4 Z" />
</svg>
