<?xml version="1.0" encoding="UTF-8" standalone="no"?>
<!-- Created with Inkscape (http://www.inkscape.org/) -->

<svg
   width="48"
   height="48"
   viewBox="0 0 48 48.000002"
   version="1.1"
   id="svg5"
   sodipodi:docname="obsstudio.svg"
   inkscape:version="1.2.1 (9c6d41e410, 2022-07-14)"
   xmlns:inkscape="http://www.inkscape.org/namespaces/inkscape"
   xmlns:sodipodi="http://sodipodi.sourceforge.net/DTD/sodipodi-0.dtd"
   xmlns:xlink="http://www.w3.org/1999/xlink"
   xmlns="http://www.w3.org/2000/svg"
   xmlns:svg="http://www.w3.org/2000/svg">
  <sodipodi:namedview
     id="namedview7"
     pagecolor="#ffffff"
     bordercolor="#666666"
     borderopacity="1.0"
     inkscape:showpageshadow="2"
     inkscape:pageopacity="0.0"
     inkscape:pagecheckerboard="0"
     inkscape:deskcolor="#d1d1d1"
     inkscape:document-units="px"
     showgrid="false"
     inkscape:zoom="16.5"
     inkscape:cx="23.969697"
     inkscape:cy="24"
     inkscape:window-width="1920"
     inkscape:window-height="1007"
     inkscape:window-x="0"
     inkscape:window-y="0"
     inkscape:window-maximized="1"
     inkscape:current-layer="svg5" />
  <defs
     id="defs2">
    <linearGradient
       inkscape:collect="always"
       xlink:href="#4852"
       id="linearGradient6478"
       x1="37.5"
       y1="44.5"
       x2="9.5"
       y2="2.5"
       gradientUnits="userSpaceOnUse"
       gradientTransform="translate(0.5,0.5)" />
    <linearGradient
       inkscape:collect="always"
       id="4852">
      <stop
         style="stop-color:#333333;stop-opacity:1"
         offset="0"
         id="stop14555" />
      <stop
         style="stop-color:#666666;stop-opacity:1"
         offset="1"
         id="stop14557" />
    </linearGradient>
  </defs>
  <rect
     style="fill:url(#linearGradient6478);fill-opacity:1.0;stroke:none"
     id="rect184"
     width="41"
     height="41"
     x="3.5"
     y="3.5"
     ry="6.5" />
  <path
     d="m 17.421824,38.555075 c 1.90206,-0.5835 4.1842,-2.1854 5.254,-3.6876 l 0.3531,-0.49588 -0.44198,-1.33728 c -1.61446,-4.8848 1.31688,-9.810398 6.3428,-10.658198 3.653,-0.61616 7.4856,1.61832 8.807,5.134598 0.31458,0.83706 0.32418,0.84586 0.22184,0.2032 -0.3027,-1.9009 -1.24378,-3.653398 -2.7738,-5.165798 -1.59658,-1.57804 -3.4508,-2.4728 -5.7672,-2.783 -0.71098,-0.09522 -0.78474,-0.06826 -1.05216,0.38446 -0.4123,0.69796 -1.61168,1.86562 -2.498,2.4318 -2.3872,1.52524 -6.0672,1.52588 -8.4602,0.0017 -2.7034,-1.72204 -4.2324,-5.020001 -3.7362,-8.058201 0.2709,-1.65852 1.00114,-3.130001 2.1652,-4.362801 0.84356,-0.89342 0.90066,-0.99192 0.41316,-0.71276 -0.82078,0.47 -2.742,2.557601 -3.2874,3.572001 -0.62858,1.16914 -1.139,3.2382 -1.13592,4.6048 0.002,1.175721 0.31046,2.736801 0.76236,3.866201 0.26342,0.65832 0.29686,0.67908 1.2726,0.78946 0.55112,0.06234 1.42212,0.2579 1.93554,0.43454 4.5398,1.561918 6.6818,6.797598 4.5564,11.137398 -1.44866,2.958 -4.8024,4.8628 -7.9372,4.5076 -1.2759,-0.14456 -1.1406,0.02828 0.27404,0.35004 1.25366,0.28516 3.5396,0.20976 4.732,-0.15608 z"
     id="path395"
     style="opacity:0.2;fill:#000000;stroke-width:2" />
  <path
     d="m 17.421824,37.555105 c 1.90206,-0.5835 4.1842,-2.1854 5.254,-3.6876 l 0.3531,-0.49588 -0.44198,-1.33728 c -1.61446,-4.8848 1.31688,-9.8104 6.3428,-10.6582 3.653,-0.61616 7.4856,1.61832 8.807,5.1346 0.31458,0.83706 0.32418,0.84586 0.22184,0.2032 -0.3027,-1.9009 -1.24378,-3.6534 -2.7738,-5.1658 -1.59658,-1.57804 -3.4508,-2.4728 -5.7672,-2.783 -0.71098,-0.09522 -0.78474,-0.06826 -1.05216,0.38446 -0.4123,0.69796 -1.61168,1.86562 -2.498,2.4318 -2.3872,1.52524 -6.0672,1.52588 -8.4602,0.0017 -2.7034,-1.72204 -4.2324,-5.02 -3.7362,-8.0582 0.2709,-1.65852 1.00114,-3.13 2.1652,-4.3628 0.84356,-0.8934205 0.90066,-0.9919205 0.41316,-0.7127605 -0.82078,0.47 -2.742,2.5576005 -3.2874,3.5720005 -0.62858,1.16914 -1.139,3.2382 -1.13592,4.6048 0.002,1.17572 0.31046,2.7368 0.76236,3.8662 0.26342,0.65832 0.29686,0.67908 1.2726,0.78946 0.55112,0.06234 1.42212,0.2579 1.93554,0.43454 4.5398,1.56192 6.6818,6.7976 4.5564,11.1374 -1.44866,2.958 -4.8024,4.8628 -7.9372,4.5076 -1.2759,-0.14456 -1.1406,0.02828 0.27404,0.35004 1.25366,0.28516 3.5396,0.20976 4.732,-0.15608 z"
     id="path362"
     style="fill:#ffffff;stroke-width:2;enable-background:new" />
  <path
     id="rect2630"
     style="fill:#ffffff;fill-opacity:1;opacity:0.3"
     d="M 10,4 C 6.6760035,4 4.0000002,6.6760033 4.0000002,10 v 1 C 4.0000002,7.6760032 6.6760035,5 10,5 h 28 c 3.323997,0 6,2.6760032 6,6 V 10 C 44,6.6760033 41.323997,4 38,4 Z" />
  <path
     id="rect398"
     style="opacity:0.3;fill:#ffffff"
     d="m 4.0000001,37 v 1 c 0,3.323996 2.6760033,6 5.9999999,6 h 28 c 3.323997,0 6,-2.676004 6,-6 v -1 c 0,3.323996 -2.676003,6 -6,6 H 10 C 6.6760034,43 4.0000001,40.323996 4.0000001,37 Z" />
  <path
     id="rect899"
     style="opacity:0.5;fill:#000000;stroke:none"
     d="M 10,3 C 6.1220039,3 3,6.1220039 3,10 v 28 c 0,3.877996 3.1220039,7 7,7 h 28 c 3.877996,0 7,-3.122004 7,-7 V 10 C 45,6.1220039 41.877996,3 38,3 Z m 0,1 h 28 c 3.323997,0 6,2.6760033 6,6 v 28 c 0,3.323997 -2.676003,6 -6,6 H 10 C 6.6760033,44 4,41.323997 4,38 V 10 C 4,6.6760033 6.6760033,4 10,4 Z" />
</svg>
