<?xml version="1.0" encoding="UTF-8" standalone="no"?>
<!-- Created with Inkscape (http://www.inkscape.org/) -->

<svg
   width="48"
   height="48"
   viewBox="0 0 48 48.000002"
   version="1.1"
   id="svg5"
   sodipodi:docname="preferences-desktop-default-applications.svg"
   inkscape:version="1.2.1 (9c6d41e410, 2022-07-14)"
   xmlns:inkscape="http://www.inkscape.org/namespaces/inkscape"
   xmlns:sodipodi="http://sodipodi.sourceforge.net/DTD/sodipodi-0.dtd"
   xmlns:xlink="http://www.w3.org/1999/xlink"
   xmlns="http://www.w3.org/2000/svg"
   xmlns:svg="http://www.w3.org/2000/svg">
  <sodipodi:namedview
     id="namedview7"
     pagecolor="#ffffff"
     bordercolor="#666666"
     borderopacity="1.0"
     inkscape:showpageshadow="2"
     inkscape:pageopacity="0.0"
     inkscape:pagecheckerboard="0"
     inkscape:deskcolor="#d1d1d1"
     inkscape:document-units="px"
     showgrid="false"
     inkscape:zoom="16.5625"
     inkscape:cx="23.969811"
     inkscape:cy="24"
     inkscape:window-width="1920"
     inkscape:window-height="1007"
     inkscape:window-x="0"
     inkscape:window-y="0"
     inkscape:window-maximized="1"
     inkscape:current-layer="svg5"
     showguides="false" />
  <defs
     id="defs2">
    <linearGradient
       inkscape:collect="always"
       xlink:href="#linearGradient22024"
       id="linearGradient6478"
       x1="37.5"
       y1="44.5"
       x2="9.5"
       y2="2.5"
       gradientUnits="userSpaceOnUse"
       gradientTransform="translate(0.5,0.5)" />
    <linearGradient
       inkscape:collect="always"
       id="linearGradient22024">
      <stop
         style="stop-color:#dedede;stop-opacity:1;"
         offset="0"
         id="stop22020" />
      <stop
         style="stop-color:#f5f5f5;stop-opacity:1;"
         offset="1"
         id="stop22022" />
    </linearGradient>
  </defs>
  <rect
     style="fill:url(#linearGradient6478);fill-opacity:1;stroke:none"
     id="rect184"
     width="41"
     height="41"
     x="3.5"
     y="3.5"
     ry="6.5" />
  <path
     id="path1658"
     style="color:#000000;clip-rule:nonzero;display:inline;overflow:visible;visibility:visible;opacity:0.5;isolation:auto;mix-blend-mode:normal;color-interpolation:sRGB;color-interpolation-filters:linearRGB;solid-color:#000000;solid-opacity:1;fill:#ffffff;fill-opacity:1;fill-rule:nonzero;stroke:none;stroke-width:2.00451;stroke-linecap:butt;stroke-linejoin:miter;stroke-miterlimit:4;stroke-dasharray:none;stroke-dashoffset:0;stroke-opacity:1;marker:none;color-rendering:auto;image-rendering:auto;shape-rendering:auto;text-rendering:auto;enable-background:accumulate"
     d="m 23.273438,9 c -0.05946,0.00312 -0.120513,0.01392 -0.183594,0.03125 l -8.179688,2.248047 C 14.405533,11.41792 14,11.975296 14,12.529297 v 8.02364 c -0.558407,-0.0889 -1.163291,-0.06171 -1.738281,0.07813 -1.605924,0.393959 -2.5766092,2.049834 -2.167969,3.081829 0.405171,1.03335 2.037347,1.552919 3.644531,1.160156 1.3693,-0.336173 2.309727,-1.240802 2.257813,-2.171875 H 16 v -7.699219 l 6,-2 v 5.550984 c -0.558408,-0.0889 -1.163289,-0.06171 -1.738281,0.07813 -1.605924,0.393959 -2.576609,2.049833 -2.167969,3.081829 0.405173,1.033348 2.037347,1.552918 3.644531,1.160156 1.332165,-0.327705 2.262603,-1.195361 2.257813,-2.105469 H 24 V 9.78125 C 24,9.3657496 23.772459,9.0732568 23.445312,9.0117188 23.390794,9.0014588 23.332916,8.99688 23.273438,9 Z M 30,27 c -1.107999,0 -2,0.892002 -2,2 v 2 1 1 2 c 0,1.107998 0.892001,2 2,2 h 8 c 1.107998,0 2,-0.892002 2,-2 v -6 c 0,-1.107998 -0.892002,-2 -2,-2 z m -2,5 -4,-4 v 8 z m -9.925781,-4.996094 -8.8007815,9.566406 4.3046875,-0.136718 -1.914063,5.261718 1.878907,0.6875 1.914062,-5.265624 3.210938,2.875 z"
     sodipodi:nodetypes="sccsccccccccccccccssssscccssssssscccccccccccc" />
  <path
     id="path343"
     style="color:#000000;clip-rule:nonzero;display:inline;overflow:visible;visibility:visible;isolation:auto;mix-blend-mode:normal;color-interpolation:sRGB;color-interpolation-filters:linearRGB;solid-color:#000000;solid-opacity:1;fill:#4d4d4d;fill-opacity:1;fill-rule:nonzero;stroke:none;stroke-width:2.00451;stroke-linecap:butt;stroke-linejoin:miter;stroke-miterlimit:4;stroke-dasharray:none;stroke-dashoffset:0;stroke-opacity:1;marker:none;color-rendering:auto;image-rendering:auto;shape-rendering:auto;text-rendering:auto;enable-background:accumulate"
     d="m 23.273438,8 c -0.05946,0.00312 -0.120513,0.01392 -0.183594,0.03125 l -8.179688,2.246094 C 14.405533,10.415967 14,10.975296 14,11.529297 v 8.02364 c -0.558407,-0.0889 -1.163291,-0.06171 -1.738281,0.07813 -1.605924,0.393959 -2.5766092,2.049833 -2.167969,3.081829 0.405171,1.03335 2.037347,1.552918 3.644531,1.160156 1.3693,-0.336173 2.309727,-1.240802 2.257813,-2.171875 H 16 v -7.699219 l 6,-2 v 5.550984 c -0.558408,-0.0889 -1.163289,-0.06171 -1.738281,0.07813 -1.605924,0.393959 -2.576609,2.049834 -2.167969,3.081829 0.405173,1.033348 2.037347,1.552918 3.644531,1.160156 1.332165,-0.327705 2.262603,-1.195362 2.257813,-2.105469 H 24 V 8.78125 C 24,8.3657496 23.772459,8.0732568 23.445312,8.0117188 23.390794,8.0014588 23.332916,7.99688 23.273438,8 Z M 30,26 c -1.107999,0 -2,0.892001 -2,2 v 2 1 1 2 c 0,1.107998 0.892001,2 2,2 h 8 c 1.107998,0 2,-0.892002 2,-2 v -6 c 0,-1.107999 -0.892002,-2 -2,-2 z m -2,5 -4,-4 v 8 z m -9.925781,-4.996094 -8.8007815,9.566406 4.3046875,-0.136718 -1.914063,5.261718 1.878907,0.6875 1.914062,-5.265624 3.210938,2.875 z"
     sodipodi:nodetypes="sccsccccccccccccccssssscccssssssscccccccccccc" />
  <path
     id="rect2630"
     style="fill:#ffffff;fill-opacity:1;opacity:0.3"
     d="M 10,4 C 6.6760035,4 4.0000002,6.6760033 4.0000002,10 v 1 C 4.0000002,7.6760032 6.6760035,5 10,5 h 28 c 3.323997,0 6,2.6760032 6,6 V 10 C 44,6.6760033 41.323997,4 38,4 Z" />
  <path
     id="rect398"
     style="opacity:0.3;fill:#ffffff"
     d="m 4.0000001,37 v 1 c 0,3.323996 2.6760033,6 5.9999999,6 h 28 c 3.323997,0 6,-2.676004 6,-6 v -1 c 0,3.323996 -2.676003,6 -6,6 H 10 C 6.6760034,43 4.0000001,40.323996 4.0000001,37 Z" />
  <path
     id="rect899"
     style="opacity:0.5;fill:#000000;stroke:none"
     d="M 10,3 C 6.1220039,3 3,6.1220039 3,10 v 28 c 0,3.877996 3.1220039,7 7,7 h 28 c 3.877996,0 7,-3.122004 7,-7 V 10 C 45,6.1220039 41.877996,3 38,3 Z m 0,1 h 28 c 3.323997,0 6,2.6760033 6,6 v 28 c 0,3.323997 -2.676003,6 -6,6 H 10 C 6.6760033,44 4,41.323997 4,38 V 10 C 4,6.6760033 6.6760033,4 10,4 Z" />
</svg>
