<?xml version="1.0" encoding="UTF-8" standalone="no"?>
<!-- Created with Inkscape (http://www.inkscape.org/) -->

<svg
   width="48"
   height="48"
   viewBox="0 0 48 48.000002"
   version="1.1"
   id="svg5"
   sodipodi:docname="preferences-desktop.svg"
   inkscape:version="1.2.1 (9c6d41e410, 2022-07-14)"
   xmlns:inkscape="http://www.inkscape.org/namespaces/inkscape"
   xmlns:sodipodi="http://sodipodi.sourceforge.net/DTD/sodipodi-0.dtd"
   xmlns:xlink="http://www.w3.org/1999/xlink"
   xmlns="http://www.w3.org/2000/svg"
   xmlns:svg="http://www.w3.org/2000/svg">
  <sodipodi:namedview
     id="namedview7"
     pagecolor="#ffffff"
     bordercolor="#666666"
     borderopacity="1.0"
     inkscape:showpageshadow="2"
     inkscape:pageopacity="0.0"
     inkscape:pagecheckerboard="0"
     inkscape:deskcolor="#d1d1d1"
     inkscape:document-units="px"
     showgrid="false"
     inkscape:zoom="16.604167"
     inkscape:cx="24.361355"
     inkscape:cy="24.060225"
     inkscape:window-width="1920"
     inkscape:window-height="1007"
     inkscape:window-x="0"
     inkscape:window-y="0"
     inkscape:window-maximized="1"
     inkscape:current-layer="svg5" />
  <defs
     id="defs2">
    <linearGradient
       inkscape:collect="always"
       xlink:href="#linearGradient22024"
       id="linearGradient6478"
       x1="23.5"
       y1="44.5"
       x2="23.5"
       y2="2.5"
       gradientUnits="userSpaceOnUse"
       gradientTransform="translate(0.5,0.5)" />
    <linearGradient
       inkscape:collect="always"
       id="linearGradient22024">
      <stop
         style="stop-color:#dedede;stop-opacity:1;"
         offset="0"
         id="stop22020" />
      <stop
         style="stop-color:#f5f5f5;stop-opacity:1;"
         offset="1"
         id="stop22022" />
    </linearGradient>
    <linearGradient
       inkscape:collect="always"
       xlink:href="#linearGradient21236"
       id="linearGradient2973"
       x1="31.666666"
       y1="30"
       x2="31.666666"
       y2="14"
       gradientUnits="userSpaceOnUse"
       gradientTransform="matrix(0.75,0,0,0.75,0.25000056,-0.49999925)" />
    <linearGradient
       inkscape:collect="always"
       xlink:href="#linearGradient2059"
       id="linearGradient2063"
       x1="31.666666"
       y1="52"
       x2="31.666666"
       y2="36"
       gradientUnits="userSpaceOnUse"
       gradientTransform="matrix(0.75,0,0,0.75,0.25000056,-0.99999945)" />
    <linearGradient
       inkscape:collect="always"
       id="linearGradient2059">
      <stop
         style="stop-color:#999999;stop-opacity:1"
         offset="0"
         id="stop2055" />
      <stop
         style="stop-color:#b3b3b3;stop-opacity:1"
         offset="1"
         id="stop2057" />
    </linearGradient>
    <linearGradient
       inkscape:collect="always"
       xlink:href="#linearGradient22024-3"
       id="linearGradient3761"
       x1="39"
       y1="27"
       x2="39"
       y2="15"
       gradientUnits="userSpaceOnUse"
       gradientTransform="matrix(0.83333332,0,0,0.83333332,-1.9999997,-1.4999993)" />
    <linearGradient
       inkscape:collect="always"
       id="linearGradient22024-3">
      <stop
         style="stop-color:#dedede;stop-opacity:1;"
         offset="0"
         id="stop22020-5" />
      <stop
         style="stop-color:#f2f2f2;stop-opacity:1;"
         offset="1"
         id="stop22022-6" />
    </linearGradient>
    <linearGradient
       inkscape:collect="always"
       xlink:href="#linearGradient22024-3"
       id="linearGradient3771"
       x1="38.999996"
       y1="27"
       x2="39"
       y2="15"
       gradientUnits="userSpaceOnUse"
       gradientTransform="matrix(0.83333335,0,0,0.83333335,-13.999999,14.500001)" />
    <linearGradient
       inkscape:collect="always"
       id="linearGradient21236">
      <stop
         style="stop-color:#3689e6;stop-opacity:1;"
         offset="0"
         id="stop21232" />
      <stop
         style="stop-color:#5dcffc;stop-opacity:1;"
         offset="1"
         id="stop21234" />
    </linearGradient>
  </defs>
  <rect
     style="fill:url(#linearGradient6478);fill-opacity:1;stroke:none"
     id="rect184"
     width="41"
     height="41"
     x="3.5"
     y="3.5"
     ry="6.5" />
  <path
     id="rect1301"
     style="opacity:0.2;fill:#ffffff;stroke-width:2.57144;stroke-linecap:round;stroke-linejoin:round"
     d="m 16.000001,11.000001 c -3.323995,0 -6,2.676004 -6,5.999999 0,3.323992 2.676005,6 6,6 h 16 c 3.323996,0 6,-2.67601 6,-6 0,-3.323995 -2.676004,-5.999999 -6,-5.999999 z m 0,15.999999 c -3.323992,0 -6,2.67601 -6,6 0,3.323994 2.676008,6 6,6 h 16 c 3.323994,0 6,-2.676006 6,-6 0,-3.32399 -2.676006,-6 -6,-6 z" />
  <rect
     style="fill:url(#linearGradient2973);fill-opacity:1.0;stroke-width:2.25;stroke-linecap:round;stroke-linejoin:round"
     id="rect743"
     width="28"
     height="12"
     x="10"
     y="10"
     ry="6" />
  <rect
     style="fill:url(#linearGradient2063);fill-opacity:1;stroke-width:2.25;stroke-linecap:round;stroke-linejoin:round"
     id="rect745"
     width="28"
     height="12"
     x="10"
     y="26"
     ry="6" />
  <path
     id="rect3773"
     style="opacity:0.2;fill:#000000;fill-opacity:1;stroke-width:2.5;stroke-linecap:round;stroke-linejoin:round"
     d="m 16.000001,28 c -2.76999,0 -5,2.23001 -5,5 0,2.76999 2.23001,5 5,5 h 4 c 2.769992,0 5,-2.23001 5,-5 0,-2.76999 -2.230008,-5 -5,-5 z"
     sodipodi:nodetypes="sssssss" />
  <path
     d="m 28.000002,12 c -2.769994,0 -5.000001,2.230009 -5.000001,5.000001 0,2.76999 2.230007,4.999999 5.000001,4.999999 h 3.999521 c 2.76999,0 5,-2.230009 5,-4.999999 0,-2.769992 -2.23001,-5.000001 -5,-5.000001 z"
     style="opacity:0.2;fill:#000000;fill-opacity:1;stroke-width:2.5;stroke-linecap:round;stroke-linejoin:round"
     id="path5225"
     sodipodi:nodetypes="sssssss" />
  <rect
     style="fill:url(#linearGradient3761);fill-opacity:1;stroke-width:2.5;stroke-linecap:round;stroke-linejoin:round"
     id="rect3027"
     width="14"
     height="10"
     x="23"
     y="11"
     ry="5" />
  <rect
     style="fill:url(#linearGradient3771);fill-opacity:1;stroke-width:2.5;stroke-linecap:round;stroke-linejoin:round"
     id="rect3763"
     width="14"
     height="10"
     x="11"
     y="27"
     ry="5" />
  <path
     id="rect2630"
     style="fill:#ffffff;fill-opacity:1;opacity:0.3"
     d="M 10,4 C 6.6760035,4 4.0000002,6.6760033 4.0000002,10 v 1 C 4.0000002,7.6760032 6.6760035,5 10,5 h 28 c 3.323997,0 6,2.6760032 6,6 V 10 C 44,6.6760033 41.323997,4 38,4 Z" />
  <path
     id="rect398"
     style="opacity:0.3;fill:#ffffff"
     d="m 4.0000001,37 v 1 c 0,3.323996 2.6760033,6 5.9999999,6 h 28 c 3.323997,0 6,-2.676004 6,-6 v -1 c 0,3.323996 -2.676003,6 -6,6 H 10 C 6.6760034,43 4.0000001,40.323996 4.0000001,37 Z" />
  <path
     id="rect899"
     style="opacity:0.5;fill:#000000;stroke:none"
     d="M 10,3 C 6.1220039,3 3,6.1220039 3,10 v 28 c 0,3.877996 3.1220039,7 7,7 h 28 c 3.877996,0 7,-3.122004 7,-7 V 10 C 45,6.1220039 41.877996,3 38,3 Z m 0,1 h 28 c 3.323997,0 6,2.6760033 6,6 v 28 c 0,3.323997 -2.676003,6 -6,6 H 10 C 6.6760033,44 4,41.323997 4,38 V 10 C 4,6.6760033 6.6760033,4 10,4 Z" />
</svg>
