<?xml version="1.0" encoding="UTF-8" standalone="no"?>
<!-- Created with Inkscape (http://www.inkscape.org/) -->

<svg
   width="48"
   height="48"
   viewBox="0 0 48 48.000002"
   version="1.1"
   id="svg5"
   sodipodi:docname="preferences-desktop-notification-bell.svg"
   inkscape:version="1.2.1 (9c6d41e410, 2022-07-14)"
   xmlns:inkscape="http://www.inkscape.org/namespaces/inkscape"
   xmlns:sodipodi="http://sodipodi.sourceforge.net/DTD/sodipodi-0.dtd"
   xmlns:xlink="http://www.w3.org/1999/xlink"
   xmlns="http://www.w3.org/2000/svg"
   xmlns:svg="http://www.w3.org/2000/svg">
  <sodipodi:namedview
     id="namedview7"
     pagecolor="#ffffff"
     bordercolor="#666666"
     borderopacity="1.0"
     inkscape:showpageshadow="2"
     inkscape:pageopacity="0.0"
     inkscape:pagecheckerboard="0"
     inkscape:deskcolor="#d1d1d1"
     inkscape:document-units="px"
     showgrid="false"
     inkscape:zoom="9.404762"
     inkscape:cx="10.101266"
     inkscape:cy="32.589873"
     inkscape:window-width="1920"
     inkscape:window-height="1009"
     inkscape:window-x="0"
     inkscape:window-y="0"
     inkscape:window-maximized="1"
     inkscape:current-layer="svg5"
     showguides="false" />
  <defs
     id="defs2">
    <linearGradient
       inkscape:collect="always"
       xlink:href="#linearGradient3551"
       id="linearGradient6478"
       x1="37.5"
       y1="44.5"
       x2="9.5"
       y2="2.5"
       gradientUnits="userSpaceOnUse"
       gradientTransform="translate(0.5,0.5)" />
    <linearGradient
       inkscape:collect="always"
       id="linearGradient3551">
      <stop
         style="stop-color:#ffa028;stop-opacity:1;"
         offset="0"
         id="stop3547" />
      <stop
         style="stop-color:#ffe183;stop-opacity:1;"
         offset="1"
         id="stop3549" />
    </linearGradient>
  </defs>
  <rect
     style="fill:url(#linearGradient6478);fill-opacity:1.0;stroke:none"
     id="rect184"
     width="41"
     height="41"
     x="3.5"
     y="3.5"
     ry="6.5" />
  <path
     d="m 24.00007,10.999999 c -1.107999,0 -1.999998,0.892039 -1.999998,1.999998 -4.6e-4,0.0222 -2e-5,0.0408 -6e-5,0.0624 -3.455977,0.89628 -5.999995,3.937637 -5.999995,7.937612 0,4.010478 0.0014,12.000012 -3.562497,12.000012 -0.23742,0 -0.43746,0.22308 -0.4375,0.499979 l -2e-5,1.500019 24,-4e-5 V 33.49998 c 6e-5,-0.276999 -0.20102,-0.499639 -0.4375,-0.499999 -3.577817,2e-5 -3.562497,-7.990214 -3.562497,-11.999972 0,-3.999995 -2.543718,-7.041452 -5.999995,-7.937512 6.8e-4,-0.0216 -4e-5,-0.041 8e-5,-0.0624 0,-1.108019 -0.892039,-1.999978 -2.000018,-1.999978 z m -3.437497,25.999998 c 0.692079,1.193779 1.958298,1.999999 3.437497,1.999999 1.479199,0 2.745398,-0.80622 3.437497,-2.000019 z"
     style="color:#000000;display:inline;overflow:visible;visibility:visible;opacity:0.2;fill:#000000;fill-opacity:1;fill-rule:nonzero;stroke:none;stroke-width:7.99999;marker:none;enable-background:accumulate"
     id="path1434" />
  <path
     d="m 24.00007,10 c -1.107999,0 -1.999998,0.892039 -1.999998,1.999998 -4.6e-4,0.0222 -2e-5,0.0408 -6e-5,0.0624 -3.455977,0.89628 -5.999995,3.937637 -5.999995,7.937614 0,4.010476 0.0014,12.00001 -3.562497,12.00001 -0.23742,0 -0.43746,0.223079 -0.4375,0.499979 L 12,34.00002 l 24,-4e-5 v -1.499999 c 6e-5,-0.277 -0.20102,-0.499639 -0.4375,-0.499999 -3.577817,2e-5 -3.562497,-7.990214 -3.562497,-11.99997 0,-3.999997 -2.543718,-7.041454 -5.999995,-7.937514 6.8e-4,-0.0216 -4e-5,-0.041 8e-5,-0.0624 0,-1.108019 -0.892039,-1.999978 -2.000018,-1.999978 z m -3.437497,25.999998 c 0.692079,1.193779 1.958298,1.999999 3.437497,1.999999 1.479199,0 2.745398,-0.80622 3.437497,-2.000019 z"
     style="color:#000000;display:inline;overflow:visible;visibility:visible;fill:#ffffff;fill-opacity:1;fill-rule:nonzero;stroke:none;stroke-width:7.99999;marker:none;enable-background:accumulate"
     id="path478"
     sodipodi:nodetypes="cccsscccccscccccscc" />
  <path
     id="rect2630"
     style="fill:#ffffff;fill-opacity:1;opacity:0.3"
     d="M 10,4 C 6.6760035,4 4.0000002,6.6760033 4.0000002,10 v 1 C 4.0000002,7.6760032 6.6760035,5 10,5 h 28 c 3.323997,0 6,2.6760032 6,6 V 10 C 44,6.6760033 41.323997,4 38,4 Z" />
  <path
     id="rect398"
     style="opacity:0.3;fill:#ffffff"
     d="m 4.0000001,37 v 1 c 0,3.323996 2.6760033,6 5.9999999,6 h 28 c 3.323997,0 6,-2.676004 6,-6 v -1 c 0,3.323996 -2.676003,6 -6,6 H 10 C 6.6760034,43 4.0000001,40.323996 4.0000001,37 Z" />
  <path
     id="rect899"
     style="opacity:0.5;fill:#000000;stroke:none"
     d="M 10,3 C 6.1220039,3 3,6.1220039 3,10 v 28 c 0,3.877996 3.1220039,7 7,7 h 28 c 3.877996,0 7,-3.122004 7,-7 V 10 C 45,6.1220039 41.877996,3 38,3 Z m 0,1 h 28 c 3.323997,0 6,2.6760033 6,6 v 28 c 0,3.323997 -2.676003,6 -6,6 H 10 C 6.6760033,44 4,41.323997 4,38 V 10 C 4,6.6760033 6.6760033,4 10,4 Z" />
</svg>
