<?xml version="1.0" encoding="UTF-8" standalone="no"?>
<!-- Created with Inkscape (http://www.inkscape.org/) -->

<svg
   width="48"
   height="48"
   viewBox="0 0 48 48.000002"
   version="1.1"
   id="svg5"
   sodipodi:docname="preferences-system-login.svg"
   inkscape:version="1.2.1 (9c6d41e410, 2022-07-14)"
   xmlns:inkscape="http://www.inkscape.org/namespaces/inkscape"
   xmlns:sodipodi="http://sodipodi.sourceforge.net/DTD/sodipodi-0.dtd"
   xmlns:xlink="http://www.w3.org/1999/xlink"
   xmlns="http://www.w3.org/2000/svg"
   xmlns:svg="http://www.w3.org/2000/svg">
  <sodipodi:namedview
     id="namedview7"
     pagecolor="#ffffff"
     bordercolor="#666666"
     borderopacity="1.0"
     inkscape:showpageshadow="2"
     inkscape:pageopacity="0.0"
     inkscape:pagecheckerboard="0"
     inkscape:deskcolor="#d1d1d1"
     inkscape:document-units="px"
     showgrid="false"
     inkscape:zoom="16.5625"
     inkscape:cx="23.969811"
     inkscape:cy="24"
     inkscape:window-width="1920"
     inkscape:window-height="1007"
     inkscape:window-x="0"
     inkscape:window-y="0"
     inkscape:window-maximized="1"
     inkscape:current-layer="svg5"
     showguides="false" />
  <defs
     id="defs2">
    <linearGradient
       inkscape:collect="always"
       xlink:href="#linearGradient21236"
       id="linearGradient6478"
       x1="23.5"
       y1="44.5"
       x2="23.5"
       y2="2.5"
       gradientUnits="userSpaceOnUse"
       gradientTransform="translate(0.5,0.5)" />
    <linearGradient
       inkscape:collect="always"
       id="linearGradient21236">
      <stop
         style="stop-color:#3689e6;stop-opacity:1;"
         offset="0"
         id="stop21232" />
      <stop
         style="stop-color:#5dcffc;stop-opacity:1;"
         offset="1"
         id="stop21234" />
    </linearGradient>
    <linearGradient
       inkscape:collect="always"
       xlink:href="#linearGradient11754"
       id="linearGradient11756"
       x1="16.039745"
       y1="0"
       x2="15.884658"
       y2="32"
       gradientUnits="userSpaceOnUse"
       gradientTransform="scale(1.5)" />
    <linearGradient
       inkscape:collect="always"
       id="linearGradient11754">
      <stop
         style="stop-color:#d9d9d9;stop-opacity:1;"
         offset="0"
         id="stop11750" />
      <stop
         style="stop-color:#f0f0f0;stop-opacity:1;"
         offset="1"
         id="stop11752" />
    </linearGradient>
  </defs>
  <rect
     style="fill:url(#linearGradient6478);fill-opacity:1;stroke:none"
     id="rect184"
     width="41"
     height="41"
     x="3.5"
     y="3.5"
     ry="6.5" />
  <rect
     style="opacity:0.2;fill:#000000;fill-opacity:1;stroke-width:6;stroke-linecap:round;stroke-linejoin:round"
     id="rect7702"
     width="30"
     height="24"
     x="9"
     y="13"
     ry="3" />
  <rect
     style="fill:url(#linearGradient11756);fill-opacity:1;stroke-width:6;stroke-linecap:round;stroke-linejoin:round"
     id="rect4572"
     width="30"
     height="24"
     x="9"
     y="12"
     ry="3" />
  <rect
     style="fill:#ffffff;fill-opacity:0.99935;stroke-width:6.9282;stroke-linecap:round;stroke-linejoin:round"
     id="rect7588"
     width="24"
     height="4"
     x="12"
     y="29" />
  <path
     id="rect9174"
     style="fill:#ffffff;stroke-width:3;stroke-linecap:round;stroke-linejoin:round"
     d="M 12 12 C 10.338004 12 9 13.338004 9 15 L 9 16 C 9 14.338004 10.338003 13 12 13 L 36 13 C 37.661995 13 39 14.338004 39 16 L 39 15 C 39 13.338004 37.661996 12 36 12 L 12 12 z " />
  <path
     id="path16245"
     style="fill:#4d4d4d;fill-opacity:1;stroke-width:3;stroke-linecap:round;stroke-linejoin:round"
     d="M 24 15 A 3 3 0 0 0 21 18 A 3 3 0 0 0 24 21 A 3 3 0 0 0 27 18 A 3 3 0 0 0 24 15 z M 26.121094 21.388672 A 4 4 0 0 1 24 22 A 4 4 0 0 1 21.890625 21.394531 A 6 6 0 0 0 18 27 L 30 27 A 6 6 0 0 0 26.121094 21.388672 z " />
  <path
     id="rect2630"
     style="fill:#ffffff;fill-opacity:1;opacity:0.3"
     d="M 10,4 C 6.6760035,4 4.0000002,6.6760033 4.0000002,10 v 1 C 4.0000002,7.6760032 6.6760035,5 10,5 h 28 c 3.323997,0 6,2.6760032 6,6 V 10 C 44,6.6760033 41.323997,4 38,4 Z" />
  <path
     id="rect398"
     style="opacity:0.3;fill:#ffffff"
     d="m 4.0000001,37 v 1 c 0,3.323996 2.6760033,6 5.9999999,6 h 28 c 3.323997,0 6,-2.676004 6,-6 v -1 c 0,3.323996 -2.676003,6 -6,6 H 10 C 6.6760034,43 4.0000001,40.323996 4.0000001,37 Z" />
  <path
     id="rect899"
     style="opacity:0.5;fill:#000000;stroke:none"
     d="M 10,3 C 6.1220039,3 3,6.1220039 3,10 v 28 c 0,3.877996 3.1220039,7 7,7 h 28 c 3.877996,0 7,-3.122004 7,-7 V 10 C 45,6.1220039 41.877996,3 38,3 Z m 0,1 h 28 c 3.323997,0 6,2.6760033 6,6 v 28 c 0,3.323997 -2.676003,6 -6,6 H 10 C 6.6760033,44 4,41.323997 4,38 V 10 C 4,6.6760033 6.6760033,4 10,4 Z" />
</svg>
