<?xml version="1.0" encoding="UTF-8" standalone="no"?>
<!-- Created with Inkscape (http://www.inkscape.org/) -->

<svg
   width="48"
   height="48"
   viewBox="0 0 48 48.000002"
   version="1.1"
   id="svg5"
   sodipodi:docname="preferences-desktop-online-accounts.svg"
   inkscape:version="1.2.1 (9c6d41e410, 2022-07-14)"
   xmlns:inkscape="http://www.inkscape.org/namespaces/inkscape"
   xmlns:sodipodi="http://sodipodi.sourceforge.net/DTD/sodipodi-0.dtd"
   xmlns:xlink="http://www.w3.org/1999/xlink"
   xmlns="http://www.w3.org/2000/svg"
   xmlns:svg="http://www.w3.org/2000/svg">
  <sodipodi:namedview
     id="namedview7"
     pagecolor="#ffffff"
     bordercolor="#666666"
     borderopacity="1.0"
     inkscape:showpageshadow="2"
     inkscape:pageopacity="0.0"
     inkscape:pagecheckerboard="0"
     inkscape:deskcolor="#d1d1d1"
     inkscape:document-units="px"
     showgrid="false"
     inkscape:zoom="16.666667"
     inkscape:cx="24"
     inkscape:cy="24"
     inkscape:window-width="1920"
     inkscape:window-height="1012"
     inkscape:window-x="0"
     inkscape:window-y="0"
     inkscape:window-maximized="1"
     inkscape:current-layer="svg5" />
  <defs
     id="defs2">
    <linearGradient
       inkscape:collect="always"
       xlink:href="#linearGradient21236"
       id="linearGradient6478"
       x1="23.5"
       y1="44.5"
       x2="23.5"
       y2="2.5"
       gradientUnits="userSpaceOnUse"
       gradientTransform="translate(0.5,0.5)" />
    <linearGradient
       inkscape:collect="always"
       id="linearGradient21236">
      <stop
         style="stop-color:#3689e6;stop-opacity:1;"
         offset="0"
         id="stop21232" />
      <stop
         style="stop-color:#5dcffc;stop-opacity:1;"
         offset="1"
         id="stop21234" />
    </linearGradient>
  </defs>
  <rect
     style="fill:url(#linearGradient6478);fill-opacity:1;stroke:none"
     id="rect184"
     width="41"
     height="41"
     x="3.5"
     y="3.5"
     ry="6.5" />
  <path
     d="m 31.027994,31.839463 c -0.716685,0 -1.406495,-0.179171 -2.069428,-0.537512 -0.662934,-0.376261 -1.12878,-0.967528 -1.397537,-1.773799 h -0.02682 c -0.161282,0.430011 -0.403174,0.788353 -0.725679,1.075027 -0.322507,0.286676 -0.68085,0.519597 -1.075027,0.698769 -0.376259,0.179175 -0.761477,0.304595 -1.155654,0.376259 -0.394178,0.07165 -0.75252,0.10749 -1.075029,0.10749 -1.720044,0 -3.027995,-0.483764 -3.923852,-1.451289 -0.895873,-0.967518 -1.343809,-2.266509 -1.343809,-3.896967 v -2.096306 c 0,-1.648376 0.430011,-2.947369 1.290031,-3.896977 0.87794,-0.967525 2.069431,-1.451287 3.574469,-1.451287 1.00336,0 1.800672,0.152296 2.391937,0.456886 0.591267,0.304593 1.012317,0.671895 1.263158,1.101905 v -1.397538 h 2.526316 v 8.465846 c 0,0.752519 0.152297,1.307952 0.456888,1.666293 0.304592,0.340425 0.743562,0.510638 1.31691,0.510638 0.447928,0 0.842105,-0.08062 1.182531,-0.241878 0.340425,-0.179178 0.627099,-0.456893 0.860021,-0.833147 0.232921,-0.394177 0.412092,-0.895857 0.537511,-1.505038 0.125415,-0.627101 0.18813,-1.388579 0.18813,-2.284435 v -0.295619 c 0,-1.505038 -0.223965,-2.848824 -0.671893,-4.031355 -0.430007,-1.182538 -1.07502,-2.1859 -1.935042,-3.010089 -0.860024,-0.842104 -1.917135,-1.478163 -3.171335,-1.908174 -1.254199,-0.447928 -2.696526,-0.671892 -4.326986,-0.671892 -1.397536,0 -2.678612,0.223964 -3.843226,0.671892 -1.164612,0.447929 -2.167972,1.101905 -3.010077,1.961927 -0.824189,0.842104 -1.469205,1.881298 -1.935051,3.11758 -0.465846,1.236282 -0.698769,2.633819 -0.698769,4.19261 v 0.456889 c 0,1.666294 0.223965,3.144456 0.671895,4.434492 0.465844,1.272115 1.128778,2.338183 1.988802,3.198207 0.860019,0.877939 1.908171,1.540873 3.144455,1.988802 1.254199,0.465846 2.660694,0.698769 4.219483,0.698769 1.343787,0 2.678613,-0.152298 4.004481,-0.456888 1.325868,-0.286674 2.544231,-0.716685 3.655094,-1.290036 l 0.75252,1.881298 c -1.128779,0.609183 -2.400896,1.075029 -3.81635,1.397538 -1.397536,0.340425 -2.902575,0.510639 -4.515117,0.510639 -1.935049,0 -3.664053,-0.286674 -5.18701,-0.860022 -1.522957,-0.573351 -2.812988,-1.397539 -3.8701,-2.472567 C 14.221723,33.371377 13.406493,32.072386 12.833147,30.549428 12.277716,29.026472 12,27.324344 12,25.443046 v -0.51064 c 0,-1.720044 0.268757,-3.30571 0.80627,-4.756997 0.555432,-1.469204 1.334828,-2.732362 2.338186,-3.789473 1.021278,-1.057112 2.248599,-1.881301 3.681971,-2.472566 1.451287,-0.609181 3.081747,-0.913773 4.891377,-0.913773 1.988802,0 3.744681,0.286674 5.267637,0.860024 1.522956,0.55543 2.804031,1.343784 3.843225,2.36506 1.039194,1.021277 1.827547,2.239643 2.365062,3.655095 0.537514,1.415452 0.806271,2.974243 0.806271,4.67637 v 0.349381 c 0,0.788355 -0.08062,1.594626 -0.241879,2.418814 -0.14334,0.806273 -0.403139,1.549835 -0.779398,2.230686 -0.376258,0.662934 -0.886898,1.209407 -1.531914,1.639418 -0.627099,0.430012 -1.43337,0.645018 -2.418814,0.645018 z M 20.895855,26.007436 c 0,1.021276 0.223964,1.836505 0.671892,2.445687 0.447929,0.591265 1.155656,0.886899 2.123181,0.886899 0.376259,0 0.734601,-0.04479 1.075028,-0.134385 0.358341,-0.0896 0.67189,-0.241886 0.94065,-0.456888 0.286672,-0.215006 0.510637,-0.501681 0.671892,-0.860024 0.161255,-0.358339 0.241881,-0.806268 0.241881,-1.343784 v -2.36506 c 0,-0.358339 -0.05374,-0.698765 -0.161258,-1.021276 -0.08959,-0.340426 -0.250843,-0.636059 -0.48376,-0.886898 -0.232925,-0.268758 -0.537516,-0.474805 -0.913775,-0.61814 -0.376258,-0.161253 -0.833145,-0.24188 -1.370659,-0.24188 -0.87794,0 -1.567751,0.24188 -2.06943,0.725643 -0.483761,0.483762 -0.725642,1.361701 -0.725642,2.633817 z"
     style="font-weight:bold;font-size:4.74057px;line-height:1.25;font-family:'나눔스퀘어';-inkscape-font-specification:'나눔스퀘어 Bold';opacity:0.2;fill:#000000;stroke-width:0.671896"
     id="path1620" />
  <path
     d="m 31.027994,30.839865 c -0.716685,0 -1.406495,-0.179171 -2.069428,-0.537512 -0.662934,-0.376261 -1.12878,-0.967528 -1.397537,-1.773799 h -0.02682 c -0.161282,0.430011 -0.403174,0.788353 -0.725679,1.075027 -0.322507,0.286676 -0.68085,0.519597 -1.075027,0.698769 -0.376259,0.179175 -0.761477,0.304595 -1.155654,0.376259 -0.394178,0.07165 -0.75252,0.10749 -1.075029,0.10749 -1.720044,0 -3.027995,-0.483764 -3.923852,-1.451289 -0.895873,-0.967518 -1.343809,-2.266509 -1.343809,-3.896967 v -2.096306 c 0,-1.648375 0.430011,-2.947368 1.290031,-3.896976 0.87794,-0.967525 2.06943,-1.451287 3.574469,-1.451287 1.00336,0 1.800672,0.152296 2.391937,0.456887 0.591266,0.304592 1.012317,0.671895 1.263158,1.101904 V 18 h 2.526316 v 8.620373 c 0,0.752518 0.152297,1.307951 0.456888,1.666292 0.304592,0.340426 0.743562,0.510638 1.31691,0.510638 0.447928,0 0.842105,-0.08062 1.182531,-0.241878 0.340425,-0.179178 0.627099,-0.456893 0.860021,-0.833146 0.232921,-0.394178 0.412092,-0.895857 0.537511,-1.505039 0.125415,-0.627101 0.18813,-1.388578 0.18813,-2.284434 v -0.295619 c 0,-1.505038 -0.223965,-2.848823 -0.671893,-4.031355 -0.430007,-1.182538 -1.07502,-2.1859 -1.935042,-3.010089 -0.860024,-0.842104 -1.917135,-1.478163 -3.171335,-1.908174 -1.254199,-0.447928 -2.696526,-0.671892 -4.326986,-0.671892 -1.397536,0 -2.678612,0.223964 -3.843226,0.671892 -1.164612,0.447929 -2.167972,1.101905 -3.010077,1.961927 -0.824189,0.842104 -1.469205,1.881298 -1.935051,3.11758 -0.465846,1.236282 -0.698769,2.633819 -0.698769,4.19261 v 0.456888 c 0,1.666294 0.223965,3.144456 0.671895,4.434492 0.465844,1.272115 1.128778,2.338183 1.988802,3.198207 0.860019,0.877939 1.908171,1.540873 3.144455,1.988802 1.254199,0.465846 2.660694,0.698769 4.219483,0.698769 1.343787,0 2.678613,-0.152298 4.004481,-0.456888 1.325868,-0.286674 2.544231,-0.716685 3.655094,-1.290036 l 0.75252,1.881298 c -1.128779,0.609183 -2.400896,1.075029 -3.81635,1.397538 -1.397536,0.340425 -2.902575,0.510639 -4.515117,0.510639 -1.935049,0 -3.664053,-0.286674 -5.18701,-0.860022 -1.522957,-0.573351 -2.812988,-1.397539 -3.8701,-2.472567 C 14.221723,32.371779 13.406493,31.072788 12.833147,29.54983 12.277716,28.026874 12,26.324746 12,24.443448 v -0.510639 c 0,-1.720044 0.268757,-3.305711 0.80627,-4.756997 0.555432,-1.469205 1.334828,-2.732362 2.338186,-3.789474 1.021278,-1.057111 2.248599,-1.8813 3.681971,-2.472565 C 20.277714,12.304592 21.908174,12 23.717804,12 c 1.988802,0 3.744681,0.286674 5.267637,0.860024 1.522956,0.55543 2.804031,1.343783 3.843225,2.36506 1.039194,1.021277 1.827547,2.239643 2.365062,3.655095 0.537514,1.415452 0.806271,2.974243 0.806271,4.67637 v 0.349381 c 0,0.788354 -0.08062,1.594625 -0.241879,2.418813 -0.14334,0.806273 -0.403139,1.549835 -0.779398,2.230686 -0.376258,0.662935 -0.886898,1.209407 -1.531914,1.639418 -0.627099,0.430012 -1.43337,0.645018 -2.418814,0.645018 z M 20.895855,25.007838 c 0,1.021276 0.223964,1.836505 0.671892,2.445687 0.447929,0.591265 1.155656,0.886899 2.123181,0.886899 0.376259,0 0.734601,-0.04479 1.075028,-0.134385 0.358341,-0.08959 0.67189,-0.241885 0.94065,-0.456888 0.286672,-0.215006 0.510637,-0.501681 0.671892,-0.860024 0.161255,-0.358339 0.241881,-0.806268 0.241881,-1.343783 v -2.36506 c 0,-0.358339 -0.05374,-0.698766 -0.161258,-1.021276 -0.08959,-0.340427 -0.250843,-0.636058 -0.48376,-0.886897 -0.232925,-0.268759 -0.537516,-0.474806 -0.913774,-0.618141 -0.376259,-0.161254 -0.833146,-0.24188 -1.37066,-0.24188 -0.877939,0 -1.56775,0.24188 -2.06943,0.725643 -0.48376,0.483762 -0.725641,1.361701 -0.725641,2.633817 z"
     style="font-weight:bold;font-size:4.74057px;line-height:1.25;font-family:'나눔스퀘어';-inkscape-font-specification:'나눔스퀘어 Bold';fill:#ffffff;stroke-width:0.671896"
     id="path6805"
     sodipodi:nodetypes="scccscsscsscsscccscscccsscccsscssscccsccccssscsscccscsssscccsscsccssscccscss" />
  <path
     id="rect2630"
     style="fill:#ffffff;fill-opacity:1;opacity:0.3"
     d="M 10,4 C 6.6760035,4 4.0000002,6.6760033 4.0000002,10 v 1 C 4.0000002,7.6760032 6.6760035,5 10,5 h 28 c 3.323997,0 6,2.6760032 6,6 V 10 C 44,6.6760033 41.323997,4 38,4 Z" />
  <path
     id="rect398"
     style="opacity:0.3;fill:#ffffff"
     d="m 4.0000001,37 v 1 c 0,3.323996 2.6760033,6 5.9999999,6 h 28 c 3.323997,0 6,-2.676004 6,-6 v -1 c 0,3.323996 -2.676003,6 -6,6 H 10 C 6.6760034,43 4.0000001,40.323996 4.0000001,37 Z" />
  <path
     id="rect899"
     style="opacity:0.5;fill:#000000;stroke:none"
     d="M 10,3 C 6.1220039,3 3,6.1220039 3,10 v 28 c 0,3.877996 3.1220039,7 7,7 h 28 c 3.877996,0 7,-3.122004 7,-7 V 10 C 45,6.1220039 41.877996,3 38,3 Z m 0,1 h 28 c 3.323997,0 6,2.6760033 6,6 v 28 c 0,3.323997 -2.676003,6 -6,6 H 10 C 6.6760033,44 4,41.323997 4,38 V 10 C 4,6.6760033 6.6760033,4 10,4 Z" />
</svg>
