<?xml version="1.0" encoding="UTF-8" standalone="no"?>
<!-- Created with Inkscape (http://www.inkscape.org/) -->

<svg
   width="48"
   height="48"
   viewBox="0 0 48 48.000002"
   version="1.1"
   id="svg5"
   sodipodi:docname="preferences-desktop-theme-global.svg"
   inkscape:version="1.2.1 (9c6d41e410, 2022-07-14)"
   xmlns:inkscape="http://www.inkscape.org/namespaces/inkscape"
   xmlns:sodipodi="http://sodipodi.sourceforge.net/DTD/sodipodi-0.dtd"
   xmlns:xlink="http://www.w3.org/1999/xlink"
   xmlns="http://www.w3.org/2000/svg"
   xmlns:svg="http://www.w3.org/2000/svg">
  <sodipodi:namedview
     id="namedview7"
     pagecolor="#ffffff"
     bordercolor="#666666"
     borderopacity="1.0"
     inkscape:showpageshadow="2"
     inkscape:pageopacity="0.0"
     inkscape:pagecheckerboard="0"
     inkscape:deskcolor="#d1d1d1"
     inkscape:document-units="px"
     showgrid="false"
     inkscape:zoom="16.458333"
     inkscape:cx="23.96962"
     inkscape:cy="24"
     inkscape:window-width="1920"
     inkscape:window-height="1002"
     inkscape:window-x="0"
     inkscape:window-y="0"
     inkscape:window-maximized="1"
     inkscape:current-layer="svg5"
     showguides="true" />
  <defs
     id="defs2">
    <radialGradient
       inkscape:collect="always"
       xlink:href="#linearGradient1603"
       id="radialGradient11414"
       cx="-1.675118"
       cy="11.872787"
       fx="-1.675118"
       fy="11.872787"
       r="27.5"
       gradientUnits="userSpaceOnUse"
       gradientTransform="matrix(-0.61412964,0.6213098,-0.74827774,-0.73963062,12.921169,15.379674)" />
    <linearGradient
       inkscape:collect="always"
       id="linearGradient1603">
      <stop
         style="stop-color:#ff910c;stop-opacity:1;"
         offset="0"
         id="stop1599" />
      <stop
         style="stop-color:#ff910c;stop-opacity:0;"
         offset="1"
         id="stop1601" />
    </linearGradient>
    <radialGradient
       inkscape:collect="always"
       xlink:href="#linearGradient3954"
       id="radialGradient11404"
       cx="57.208611"
       cy="56.943909"
       fx="57.208611"
       fy="56.943909"
       r="27.5"
       gradientUnits="userSpaceOnUse"
       gradientTransform="matrix(0.72430367,-0.76001887,0.68938669,0.65699064,-37.9009,48.662557)" />
    <linearGradient
       inkscape:collect="always"
       id="linearGradient3954">
      <stop
         style="stop-color:#24c2f5;stop-opacity:1;"
         offset="0"
         id="stop3950" />
      <stop
         style="stop-color:#24c2f5;stop-opacity:0;"
         offset="1"
         id="stop3952" />
    </linearGradient>
    <radialGradient
       inkscape:collect="always"
       xlink:href="#linearGradient5569"
       id="radialGradient11396"
       cx="8.0326223"
       cy="59.247375"
       fx="8.0326223"
       fy="59.247375"
       r="27.5"
       gradientUnits="userSpaceOnUse"
       gradientTransform="matrix(0.68531206,-0.69417068,0.81163779,0.80128008,-48.11192,0.96528365)" />
    <linearGradient
       inkscape:collect="always"
       id="linearGradient5569">
      <stop
         style="stop-color:#f5cc24;stop-opacity:1;"
         offset="0"
         id="stop5565" />
      <stop
         style="stop-color:#f5cc24;stop-opacity:0.00045133"
         offset="1"
         id="stop5567" />
    </linearGradient>
    <radialGradient
       inkscape:collect="always"
       xlink:href="#linearGradient7221"
       id="radialGradient11388"
       cx="32"
       cy="60"
       fx="32"
       fy="60"
       r="27.5"
       gradientUnits="userSpaceOnUse"
       gradientTransform="matrix(-0.75900826,0,0,-0.74545455,48.28826,47.854545)" />
    <linearGradient
       inkscape:collect="always"
       id="linearGradient7221">
      <stop
         style="stop-color:#ff2a2a;stop-opacity:1"
         offset="0"
         id="stop7217" />
      <stop
         style="stop-color:#ff2929;stop-opacity:0.00392157"
         offset="1"
         id="stop7219" />
    </linearGradient>
    <radialGradient
       inkscape:collect="always"
       xlink:href="#linearGradient10051"
       id="radialGradient11378"
       cx="6.5505433"
       cy="56.244072"
       fx="6.5505433"
       fy="56.244072"
       r="27.5"
       gradientUnits="userSpaceOnUse"
       gradientTransform="matrix(-0.53625768,-0.51713221,0.67484543,-0.69980387,8.5281415,48.345853)" />
    <linearGradient
       inkscape:collect="always"
       id="linearGradient10051">
      <stop
         style="stop-color:#aa3ad4;stop-opacity:1"
         offset="0"
         id="stop10047" />
      <stop
         style="stop-color:#aa3ad4;stop-opacity:0"
         offset="1"
         id="stop10049" />
    </linearGradient>
    <radialGradient
       inkscape:collect="always"
       xlink:href="#linearGradient15132"
       id="radialGradient11244"
       cx="45.75"
       cy="51.798988"
       fx="45.75"
       fy="51.798988"
       r="27.5"
       gradientUnits="userSpaceOnUse"
       gradientTransform="matrix(-4.6086301e-8,0.75900826,-0.75900817,-1.3260259e-7,42.443128,-10.72462)" />
    <linearGradient
       inkscape:collect="always"
       id="linearGradient15132">
      <stop
         style="stop-color:#f5e224;stop-opacity:1;"
         offset="0"
         id="stop15128" />
      <stop
         style="stop-color:#f5e224;stop-opacity:0;"
         offset="1"
         id="stop15130" />
    </linearGradient>
    <radialGradient
       inkscape:collect="always"
       xlink:href="#linearGradient12059"
       id="radialGradient11234"
       cx="32"
       cy="60"
       fx="32"
       fy="60"
       r="27.5"
       gradientUnits="userSpaceOnUse"
       gradientTransform="matrix(0.75900826,0,0,0.74545455,-0.28826476,0.14545578)" />
    <linearGradient
       inkscape:collect="always"
       id="linearGradient12059">
      <stop
         style="stop-color:#47c12a;stop-opacity:1;"
         offset="0"
         id="stop12055" />
      <stop
         style="stop-color:#47c12a;stop-opacity:0;"
         offset="1"
         id="stop12057" />
    </linearGradient>
  </defs>
  <rect
     style="fill:#ffffff;fill-opacity:1;stroke:none"
     id="rect184"
     width="41"
     height="41"
     x="3.5"
     y="3.5"
     ry="6.5" />
  <rect
     style="fill:url(#radialGradient11414);fill-opacity:1;stroke-width:0.745455;stroke-linejoin:round"
     id="rect10562"
     width="41"
     height="41"
     x="3.5"
     y="3.5"
     ry="6.5" />
  <rect
     style="fill:url(#radialGradient11404);fill-opacity:1;stroke-width:0.745455;stroke-linejoin:round"
     id="rect10564"
     width="41"
     height="41"
     x="3.5"
     y="3.5"
     ry="6.5" />
  <rect
     style="fill:url(#radialGradient11396);fill-opacity:1;stroke-width:0.745455;stroke-linejoin:round"
     id="rect10566"
     width="41"
     height="41"
     x="3.5"
     y="3.5"
     ry="6.5" />
  <rect
     style="fill:url(#radialGradient11388);fill-opacity:1;stroke-width:0.745455;stroke-linejoin:round"
     id="rect10568"
     width="41"
     height="41"
     x="3.5"
     y="3.5"
     ry="6.5" />
  <rect
     style="fill:url(#radialGradient11378);fill-opacity:1;stroke-width:0.745455;stroke-linejoin:round"
     id="rect10570"
     width="41"
     height="41"
     x="3.5"
     y="3.500001"
     ry="6.5" />
  <rect
     style="fill:url(#radialGradient11244);fill-opacity:1;stroke-width:0.745455;stroke-linejoin:round"
     id="rect10572"
     width="41"
     height="41"
     x="3.5"
     y="3.500001"
     ry="6.5"
     inkscape:label="rect10572" />
  <rect
     style="fill:url(#radialGradient11234);fill-opacity:1;stroke-width:0.745455;stroke-linejoin:round"
     id="rect10574"
     width="41"
     height="41"
     x="3.5"
     y="3.5"
     ry="6.5" />
  <rect
     style="opacity:0.2;fill:#ffffff;stroke-width:0.80039;stroke-linejoin:round"
     id="rect581"
     width="41"
     height="1"
     x="3.5"
     y="32" />
  <path
     id="rect348"
     style="fill:#3b3b3b;fill-opacity:1;stroke-width:0.790569;stroke-linejoin:round"
     d="M 10.000001,44.5 C 6.3990036,44.5 3.5,41.600996 3.5,38 v -5 h 41 v 5 c 0,3.600996 -2.899004,6.5 -6.5,6.5 z" />
  <path
     d="m 33.391444,10.009436 c -1.505794,-0.1898136 -5.433831,2.502662 -9.305103,6.37546 -1.726357,1.727401 -3.224619,3.434447 -4.372142,5.044566 1.344916,0.428494 2.42883,1.511692 2.857099,2.8571 1.609506,-1.147856 3.320426,-2.639592 5.047356,-4.366565 4.392108,-4.393931 7.161402,-8.746781 6.185732,-9.723622 -0.100289,-0.101 -0.237104,-0.164384 -0.412942,-0.186939 z m -14.391521,13.32011 v 0.0029 C 14.00027,24.672729 17.749733,27.838724 14,30.000833 c 4.999653,0 7.499888,-2.502565 7.499888,-4.171252 0,-0.831817 0.08479,-2.361535 -2.499965,-2.499961 z"
     style="color:#444444;opacity:0.2;fill:#000000;stroke-width:1.42853"
     id="path11335" />
  <path
     d="m 33.391444,9.0094368 c -1.505794,-0.1898138 -5.43383,2.5026622 -9.305102,6.3754582 -1.726357,1.727403 -3.224619,3.434449 -4.372143,5.044568 1.344916,0.428492 2.42883,1.511691 2.857099,2.8571 1.609506,-1.147858 3.320426,-2.639592 5.047356,-4.366565 4.392109,-4.393931 7.161402,-8.746781 6.185732,-9.7236224 -0.100289,-0.101 -0.237103,-0.1643838 -0.412942,-0.1869388 z M 18.999925,22.329545 v 0.0029 C 14.00027,23.67273 17.749735,26.838725 14,29.000833 c 4.999655,0 7.499887,-2.502565 7.499887,-4.171251 0,-0.831817 0.08479,-2.361535 -2.499962,-2.499962 z"
     style="color:#444444;fill:#ffffff;stroke-width:1.42856"
     id="path347"
     sodipodi:nodetypes="ccccccccccscc" />
  <path
     id="rect2630"
     style="fill:#ffffff;fill-opacity:1;opacity:0.3"
     d="M 10,4 C 6.6760035,4 4.0000002,6.6760033 4.0000002,10 v 1 C 4.0000002,7.6760032 6.6760035,5 10,5 h 28 c 3.323997,0 6,2.6760032 6,6 V 10 C 44,6.6760033 41.323997,4 38,4 Z" />
  <path
     id="rect398"
     style="opacity:0.3;fill:#ffffff"
     d="m 4.0000001,37 v 1 c 0,3.323996 2.6760033,6 5.9999999,6 h 28 c 3.323997,0 6,-2.676004 6,-6 v -1 c 0,3.323996 -2.676003,6 -6,6 H 10 C 6.6760034,43 4.0000001,40.323996 4.0000001,37 Z" />
  <path
     id="rect899"
     style="opacity:0.5;fill:#000000;stroke:none"
     d="M 10,3 C 6.1220039,3 3,6.1220039 3,10 v 28 c 0,3.877996 3.1220039,7 7,7 h 28 c 3.877996,0 7,-3.122004 7,-7 V 10 C 45,6.1220039 41.877996,3 38,3 Z m 0,1 h 28 c 3.323997,0 6,2.6760033 6,6 v 28 c 0,3.323997 -2.676003,6 -6,6 H 10 C 6.6760033,44 4,41.323997 4,38 V 10 C 4,6.6760033 6.6760033,4 10,4 Z" />
</svg>
