<?xml version="1.0" encoding="UTF-8" standalone="no"?>
<!-- Created with Inkscape (http://www.inkscape.org/) -->

<svg
   width="48"
   height="48"
   viewBox="0 0 48 48.000002"
   version="1.1"
   id="svg5"
   sodipodi:docname="preferences-system.svg"
   inkscape:version="1.2.1 (9c6d41e410, 2022-07-14)"
   xmlns:inkscape="http://www.inkscape.org/namespaces/inkscape"
   xmlns:sodipodi="http://sodipodi.sourceforge.net/DTD/sodipodi-0.dtd"
   xmlns:xlink="http://www.w3.org/1999/xlink"
   xmlns="http://www.w3.org/2000/svg"
   xmlns:svg="http://www.w3.org/2000/svg">
  <sodipodi:namedview
     id="namedview7"
     pagecolor="#ffffff"
     bordercolor="#666666"
     borderopacity="1.0"
     inkscape:showpageshadow="2"
     inkscape:pageopacity="0.0"
     inkscape:pagecheckerboard="0"
     inkscape:deskcolor="#d1d1d1"
     inkscape:document-units="px"
     showgrid="false"
     inkscape:zoom="5.8336309"
     inkscape:cx="18.256212"
     inkscape:cy="43.026377"
     inkscape:window-width="1920"
     inkscape:window-height="1002"
     inkscape:window-x="0"
     inkscape:window-y="0"
     inkscape:window-maximized="1"
     inkscape:current-layer="svg5" />
  <defs
     id="defs2">
    <linearGradient
       inkscape:collect="always"
       xlink:href="#linearGradient2739"
       id="linearGradient6478"
       x1="37.5"
       y1="44.5"
       x2="9.5"
       y2="2.5"
       gradientUnits="userSpaceOnUse"
       gradientTransform="translate(0.5,0.5)" />
    <linearGradient
       inkscape:collect="always"
       id="linearGradient2739">
      <stop
         style="stop-color:#8a8a8a;stop-opacity:1;"
         offset="0"
         id="stop2735" />
      <stop
         style="stop-color:#c0c0c0;stop-opacity:1;"
         offset="1"
         id="stop2737" />
    </linearGradient>
  </defs>
  <rect
     style="fill:url(#linearGradient6478);fill-opacity:1.0;stroke:none"
     id="rect184"
     width="41"
     height="41"
     x="3.5"
     y="3.5"
     ry="6.5" />
  <path
     id="path7469"
     style="opacity:0.2;fill:#000000;stroke-width:2"
     d="m 20.499994,10.881828 -0.308594,3.6875 c -1.1697,0.433178 -2.256056,1.061522 -3.214844,1.859374 l -3.351562,-1.578124 -3.5,6.0625 3.042968,2.113282 c -0.1084,0.612794 -0.16456,1.233162 -0.16796,1.855468 3.04e-4,0.624748 0.05398,1.24762 0.16016,1.863282 l -3.035156,2.105468 3.5,6.0625 3.34375,-1.574218 c 0.962084,0.794376 2.050964,1.418952 3.222656,1.847656 l 0.308594,3.695312 h 7 l 0.308594,-3.6875 c 1.1697,-0.43318 2.256054,-1.061522 3.214844,-1.859376 l 3.351562,1.578126 3.5,-6.0625 -3.042968,-2.113282 c 0.1084,-0.612794 0.16456,-1.233162 0.16796,-1.855468 -3.04e-4,-0.624748 -0.05398,-1.24762 -0.16016,-1.863282 l 3.035156,-2.105468 -3.5,-6.0625 -3.34375,1.574218 C 30.069162,15.630418 28.980282,15.005842 27.808592,14.57714 l -0.308594,-3.695312 z m 3.5,8 c 3.3137,0 6,2.6863 6,6 0,3.313696 -2.6863,6 -6,6 -3.313698,0 -6,-2.6863 -6,-6 0,-3.313702 2.686302,-6 6,-6 z m 0,2 c -2.209136,0 -4,1.79086 -4,4 0,2.209136 1.790864,4 4,4 2.209136,0 4,-1.790866 4,-4 0,-2.20914 -1.790864,-4 -4,-4 z" />
  <path
     id="path8346"
     style="fill:#ffffff;stroke-width:2"
     d="M 20.499994,9.8818283 20.1914,13.569328 c -1.1697,0.433178 -2.256056,1.061522 -3.214844,1.859374 l -3.351562,-1.578124 -3.5,6.0625 3.042968,2.113282 c -0.1084,0.612794 -0.16456,1.233162 -0.16796,1.855468 3.04e-4,0.624748 0.05398,1.24762 0.16016,1.863282 l -3.035156,2.105468 3.5,6.0625 3.34375,-1.574218 c 0.962084,0.794376 2.050964,1.418952 3.222656,1.847656 l 0.308594,3.695312 h 7 l 0.308594,-3.6875 c 1.1697,-0.433178 2.256054,-1.061522 3.214844,-1.859376 l 3.351562,1.578126 3.5,-6.0625 -3.042968,-2.113282 c 0.1084,-0.612794 0.16456,-1.233162 0.16796,-1.855468 -3.04e-4,-0.624748 -0.05398,-1.24762 -0.16016,-1.863282 l 3.035156,-2.105468 -3.5,-6.0625 -3.34375,1.574218 C 30.069162,14.630418 28.980282,14.005842 27.808592,13.57714 L 27.499998,9.8818283 Z m 3.5,7.9999997 c 3.3137,0 6,2.686298 6,6 0,3.313696 -2.6863,6 -6,6 -3.313698,0 -6,-2.686302 -6,-6 0,-3.313702 2.686302,-6 6,-6 z m 0,2 c -2.209136,0 -4,1.790862 -4,4 0,2.209136 1.790864,4 4,4 2.209136,0 4,-1.790866 4,-4 0,-2.209136 -1.790864,-4 -4,-4 z" />
  <path
     id="rect2630"
     style="fill:#ffffff;fill-opacity:1;opacity:0.3"
     d="M 10,4 C 6.6760035,4 4.0000002,6.6760033 4.0000002,10 v 1 C 4.0000002,7.6760032 6.6760035,5 10,5 h 28 c 3.323997,0 6,2.6760032 6,6 V 10 C 44,6.6760033 41.323997,4 38,4 Z" />
  <path
     id="rect398"
     style="opacity:0.3;fill:#ffffff"
     d="m 4.0000001,37 v 1 c 0,3.323996 2.6760033,6 5.9999999,6 h 28 c 3.323997,0 6,-2.676004 6,-6 v -1 c 0,3.323996 -2.676003,6 -6,6 H 10 C 6.6760034,43 4.0000001,40.323996 4.0000001,37 Z" />
  <path
     id="rect899"
     style="opacity:0.5;fill:#000000;stroke:none"
     d="M 10,3 C 6.1220039,3 3,6.1220039 3,10 v 28 c 0,3.877996 3.1220039,7 7,7 h 28 c 3.877996,0 7,-3.122004 7,-7 V 10 C 45,6.1220039 41.877996,3 38,3 Z m 0,1 h 28 c 3.323997,0 6,2.6760033 6,6 v 28 c 0,3.323997 -2.676003,6 -6,6 H 10 C 6.6760033,44 4,41.323997 4,38 V 10 C 4,6.6760033 6.6760033,4 10,4 Z" />
</svg>
