<?xml version="1.0" encoding="UTF-8" standalone="no"?>
<!-- Created with Inkscape (http://www.inkscape.org/) -->

<svg
   width="48"
   height="48"
   viewBox="0 0 48 48.000002"
   version="1.1"
   id="svg5"
   sodipodi:docname="preferences-desktop-font.svg"
   inkscape:version="1.2.1 (9c6d41e410, 2022-07-14)"
   xmlns:inkscape="http://www.inkscape.org/namespaces/inkscape"
   xmlns:sodipodi="http://sodipodi.sourceforge.net/DTD/sodipodi-0.dtd"
   xmlns:xlink="http://www.w3.org/1999/xlink"
   xmlns="http://www.w3.org/2000/svg"
   xmlns:svg="http://www.w3.org/2000/svg">
  <sodipodi:namedview
     id="namedview7"
     pagecolor="#ffffff"
     bordercolor="#666666"
     borderopacity="1.0"
     inkscape:showpageshadow="2"
     inkscape:pageopacity="0.0"
     inkscape:pagecheckerboard="0"
     inkscape:deskcolor="#d1d1d1"
     inkscape:document-units="px"
     showgrid="false"
     inkscape:zoom="16.604167"
     inkscape:cx="23.969887"
     inkscape:cy="24"
     inkscape:window-width="1920"
     inkscape:window-height="1009"
     inkscape:window-x="0"
     inkscape:window-y="0"
     inkscape:window-maximized="1"
     inkscape:current-layer="svg5" />
  <defs
     id="defs2">
    <linearGradient
       inkscape:collect="always"
       xlink:href="#linearGradient22024"
       id="linearGradient6478"
       x1="37.5"
       y1="44.5"
       x2="9.5"
       y2="2.5"
       gradientUnits="userSpaceOnUse"
       gradientTransform="translate(0.5,0.5)" />
    <linearGradient
       inkscape:collect="always"
       id="linearGradient22024">
      <stop
         style="stop-color:#dedede;stop-opacity:1;"
         offset="0"
         id="stop22020" />
      <stop
         style="stop-color:#f5f5f5;stop-opacity:1;"
         offset="1"
         id="stop22022" />
    </linearGradient>
  </defs>
  <rect
     style="fill:url(#linearGradient6478);fill-opacity:1;stroke:none"
     id="rect184"
     width="41"
     height="41"
     x="3.5"
     y="3.5"
     ry="6.5" />
  <path
     d="M 16.08465,15.000002 8.9999996,34.358275 h 2.5126284 l 1.938758,-5.454368 h 7.780879 l 1.938757,5.454368 h 2.540203 L 18.624852,15.000002 Z m 1.177039,3.127861 h 0.160272 l 3.074437,8.66323 h -6.309147 z m 16.283836,1.525158 c -1.051684,0 -2.001982,0.167983 -2.848679,0.506659 -0.837786,0.329766 -1.510015,0.793593 -2.018032,1.390737 -0.508015,0.597142 -0.81016,1.283995 -0.908197,2.05939 h 2.405782 c 0.169371,-0.579318 0.534548,-1.048017 1.096045,-1.404522 0.561492,-0.365416 1.28389,-0.548022 2.166235,-0.548022 1.078425,0 1.892838,0.253698 2.445421,0.761716 0.561489,0.499106 0.842712,1.216629 0.842712,2.152451 v 1.177042 c -0.311942,0.009 -0.890432,0.03643 -1.737127,0.081 -0.846695,0.04456 -1.578842,0.08814 -2.193813,0.132705 -1.577529,0.11586 -2.88329,0.485949 -3.917149,1.109831 -1.024949,0.614967 -1.537219,1.671905 -1.537219,3.169219 0,0.918 0.218151,1.714641 0.654869,2.391996 0.436718,0.668445 1.029826,1.180717 1.778485,1.537221 0.748657,0.34759 1.587443,0.527048 2.514353,0.53596 1.140811,-0.009 2.071612,-0.246557 2.793535,-0.710019 0.730833,-0.472368 1.243105,-1.010434 1.537219,-1.616493 h 0.106845 v 1.978393 h 2.273086 v -9.571432 c 0.0089,-2.005333 -0.548646,-3.361262 -1.671629,-4.065357 -1.122989,-0.713009 -2.383456,-1.068471 -3.782734,-1.068471 z m 3.181287,7.980785 v 1.456223 c 0,0.623881 -0.159989,1.208965 -0.480813,1.752634 -0.311939,0.543672 -0.77089,0.979975 -1.376949,1.309738 -0.606055,0.329767 -1.323579,0.494599 -2.152451,0.494599 -0.926909,0 -1.671954,-0.195477 -2.233449,-0.587661 -0.552577,-0.392152 -0.832074,-0.962618 -0.840987,-1.711276 0.009,-0.766479 0.30618,-1.351565 0.894413,-1.752632 0.597142,-0.401067 1.440802,-0.636992 2.52814,-0.708293 l 1.897396,-0.13269 c 0.971477,-0.07129 1.559717,-0.11172 1.7647,-0.12063 z"
     style="font-size:8.21007px;line-height:1.25;font-family:Pretendard;-inkscape-font-specification:Pretendard;opacity:0.5;fill:#ffffff;stroke-width:0.68449"
     id="path1907"
     sodipodi:nodetypes="ccccccccccccccscscccscscsccsccccccccccscscsscccccc" />
  <path
     d="M 16.08465,14 8.9999996,33.358276 h 2.5126294 l 1.938757,-5.454368 h 7.780879 l 1.938757,5.454368 h 2.540203 L 18.624852,14 Z m 1.177039,3.127864 h 0.160272 l 3.074437,8.663229 h -6.309147 z m 16.283836,1.525156 c -1.051684,0 -2.001982,0.167985 -2.848679,0.506659 -0.837786,0.329768 -1.510015,0.793594 -2.018032,1.390739 -0.508016,0.597142 -0.81016,1.283994 -0.908198,2.059389 h 2.405782 c 0.169372,-0.579317 0.534549,-1.048017 1.096045,-1.404522 0.561492,-0.365415 1.283891,-0.548021 2.166236,-0.548021 1.078425,0 1.892837,0.253696 2.44542,0.761716 0.561489,0.499105 0.842712,1.216629 0.842712,2.15245 v 1.177044 c -0.311941,0.009 -0.89043,0.03643 -1.737127,0.081 -0.846694,0.04457 -1.578841,0.08814 -2.193812,0.13269 -1.577529,0.11586 -2.883291,0.48595 -3.917149,1.109832 -1.024949,0.614968 -1.537219,1.671905 -1.537219,3.16922 0,0.917999 0.218151,1.714639 0.654868,2.391996 0.436719,0.668443 1.029827,1.180717 1.778486,1.537219 0.748657,0.347589 1.587443,0.527049 2.514353,0.53596 1.140811,-0.009 2.071612,-0.246558 2.793535,-0.710019 0.730833,-0.472368 1.243105,-1.010435 1.537219,-1.616493 h 0.106845 v 1.978395 h 2.273086 v -9.571433 c 0.0089,-2.005333 -0.548646,-3.361263 -1.67163,-4.065358 -1.122988,-0.713008 -2.383455,-1.06847 -3.782734,-1.06847 z m 3.181286,7.980788 v 1.456222 c 0,0.623881 -0.159988,1.208963 -0.480812,1.752634 -0.311938,0.54367 -0.770891,0.979973 -1.376949,1.309736 -0.606056,0.329769 -1.323579,0.494601 -2.152452,0.494601 -0.926908,0 -1.671953,-0.195477 -2.233448,-0.587662 -0.552577,-0.392151 -0.832074,-0.962617 -0.840987,-1.711275 0.009,-0.76648 0.30618,-1.351567 0.894412,-1.752633 0.597143,-0.401066 1.440802,-0.636993 2.52814,-0.708292 l 1.897396,-0.132705 c 0.971478,-0.0713 1.559718,-0.11172 1.7647,-0.12063 z"
     style="font-size:8.21007px;line-height:1.25;font-family:Pretendard;-inkscape-font-specification:Pretendard;fill:#4d4d4d;stroke-width:0.68449"
     id="path1940" />
  <path
     id="rect2630"
     style="fill:#ffffff;fill-opacity:1;opacity:0.3"
     d="M 10,4 C 6.6760035,4 4.0000002,6.6760033 4.0000002,10 v 1 C 4.0000002,7.6760032 6.6760035,5 10,5 h 28 c 3.323997,0 6,2.6760032 6,6 V 10 C 44,6.6760033 41.323997,4 38,4 Z" />
  <path
     id="rect398"
     style="opacity:0.3;fill:#ffffff"
     d="m 4.0000001,37 v 1 c 0,3.323996 2.6760033,6 5.9999999,6 h 28 c 3.323997,0 6,-2.676004 6,-6 v -1 c 0,3.323996 -2.676003,6 -6,6 H 10 C 6.6760034,43 4.0000001,40.323996 4.0000001,37 Z" />
  <path
     id="rect899"
     style="opacity:0.5;fill:#000000;stroke:none"
     d="M 10,3 C 6.1220039,3 3,6.1220039 3,10 v 28 c 0,3.877996 3.1220039,7 7,7 h 28 c 3.877996,0 7,-3.122004 7,-7 V 10 C 45,6.1220039 41.877996,3 38,3 Z m 0,1 h 28 c 3.323997,0 6,2.6760033 6,6 v 28 c 0,3.323997 -2.676003,6 -6,6 H 10 C 6.6760033,44 4,41.323997 4,38 V 10 C 4,6.6760033 6.6760033,4 10,4 Z" />
</svg>
