<?xml version="1.0" encoding="UTF-8" standalone="no"?>
<!-- Created with Inkscape (http://www.inkscape.org/) -->

<svg
   width="48"
   height="48"
   viewBox="0 0 48 48.000002"
   version="1.1"
   id="svg5"
   sodipodi:docname="qt.svg"
   inkscape:version="1.2.1 (9c6d41e410, 2022-07-14)"
   xmlns:inkscape="http://www.inkscape.org/namespaces/inkscape"
   xmlns:sodipodi="http://sodipodi.sourceforge.net/DTD/sodipodi-0.dtd"
   xmlns:xlink="http://www.w3.org/1999/xlink"
   xmlns="http://www.w3.org/2000/svg"
   xmlns:svg="http://www.w3.org/2000/svg">
  <sodipodi:namedview
     id="namedview7"
     pagecolor="#ffffff"
     bordercolor="#666666"
     borderopacity="1.0"
     inkscape:showpageshadow="2"
     inkscape:pageopacity="0.0"
     inkscape:pagecheckerboard="0"
     inkscape:deskcolor="#d1d1d1"
     inkscape:document-units="px"
     showgrid="false"
     inkscape:zoom="16.604167"
     inkscape:cx="24.180677"
     inkscape:cy="24.060225"
     inkscape:window-width="1920"
     inkscape:window-height="1007"
     inkscape:window-x="0"
     inkscape:window-y="0"
     inkscape:window-maximized="1"
     inkscape:current-layer="svg5" />
  <defs
     id="defs2">
    <linearGradient
       inkscape:collect="always"
       xlink:href="#linearGradient2833"
       id="linearGradient6478"
       x1="37.5"
       y1="44.5"
       x2="9.5"
       y2="2.5"
       gradientUnits="userSpaceOnUse"
       gradientTransform="translate(0.5,0.5)" />
    <linearGradient
       inkscape:collect="always"
       id="linearGradient2833">
      <stop
         style="stop-color:#00cc5c;stop-opacity:1;"
         offset="0"
         id="stop2829" />
      <stop
         style="stop-color:#65e35e;stop-opacity:1;"
         offset="1"
         id="stop2831" />
    </linearGradient>
  </defs>
  <rect
     style="fill:url(#linearGradient6478);fill-opacity:1.0;stroke:none"
     id="rect184"
     width="41"
     height="41"
     x="3.5"
     y="3.5"
     ry="6.5" />
  <path
     style="opacity:0.2"
     d="M 18.035156,15 C 12.476536,15 11,18 11,24 c 0,6 1.450556,9 7.035156,9 h 1.585938 l 2.310547,4 2.677734,-1 -2.181641,-4 C 24.505724,31 25,28 25,24 25,18 23.593776,15 18.035156,15 Z m 10.992188,1 v 4 H 27 v 2 h 2.027344 v 6 c 0,4 0.90859,5 3.84375,5 h 2.193359 L 34.935547,31 H 33.460938 C 32.110237,31 32,30 32,28 v -6 h 3 v -2 h -3 v -4 z m -11.015625,2 c 3.229341,0 3.98829,2 3.988281,6 0,4 -0.73447,6 -3.988281,6 C 14.757909,30 14,28 14,24 c 0,-4 0.782379,-6 4.011719,-6 z"
     id="path6" />
  <path
     style="fill:#ffffff"
     d="M 18.035156,14 C 12.476536,14 11,17 11,23 c 0,6 1.450556,9 7.035156,9 h 1.585938 l 2.310547,4 2.677734,-1 -2.181641,-4 C 24.505724,30 25,27 25,23 25,17 23.593776,14 18.035156,14 Z m 10.992188,1 v 4 H 27 v 2 h 2.027344 v 6 c 0,4 0.90859,5 3.84375,5 h 2.193359 L 34.935547,30 H 33.460938 C 32.110237,30 32,29 32,27 v -6 h 3 v -2 h -3 v -4 z m -11.015625,2 c 3.229341,0 3.98829,2 3.988281,6 0,4 -0.73447,6 -3.988281,6 C 14.757909,29 14,27 14,23 c 0,-4 0.782379,-6 4.011719,-6 z"
     id="path8"
     sodipodi:nodetypes="sssccccsscccccssccssccccccscsss" />
  <path
     id="rect2630"
     style="fill:#ffffff;fill-opacity:1;opacity:0.3"
     d="M 10,4 C 6.6760035,4 4.0000002,6.6760033 4.0000002,10 v 1 C 4.0000002,7.6760032 6.6760035,5 10,5 h 28 c 3.323997,0 6,2.6760032 6,6 V 10 C 44,6.6760033 41.323997,4 38,4 Z" />
  <path
     id="rect398"
     style="opacity:0.3;fill:#ffffff"
     d="m 4.0000001,37 v 1 c 0,3.323996 2.6760033,6 5.9999999,6 h 28 c 3.323997,0 6,-2.676004 6,-6 v -1 c 0,3.323996 -2.676003,6 -6,6 H 10 C 6.6760034,43 4.0000001,40.323996 4.0000001,37 Z" />
  <path
     id="rect899"
     style="opacity:0.5;fill:#000000;stroke:none"
     d="M 10,3 C 6.1220039,3 3,6.1220039 3,10 v 28 c 0,3.877996 3.1220039,7 7,7 h 28 c 3.877996,0 7,-3.122004 7,-7 V 10 C 45,6.1220039 41.877996,3 38,3 Z m 0,1 h 28 c 3.323997,0 6,2.6760033 6,6 v 28 c 0,3.323997 -2.676003,6 -6,6 H 10 C 6.6760033,44 4,41.323997 4,38 V 10 C 4,6.6760033 6.6760033,4 10,4 Z" />
</svg>
