<?xml version="1.0" encoding="UTF-8" standalone="no"?>
<!-- Created with Inkscape (http://www.inkscape.org/) -->

<svg
   width="48"
   height="48"
   viewBox="0 0 48 48.000002"
   version="1.1"
   id="svg5"
   sodipodi:docname="skype.svg"
   inkscape:version="1.2.1 (9c6d41e410, 2022-07-14)"
   xmlns:inkscape="http://www.inkscape.org/namespaces/inkscape"
   xmlns:sodipodi="http://sodipodi.sourceforge.net/DTD/sodipodi-0.dtd"
   xmlns:xlink="http://www.w3.org/1999/xlink"
   xmlns="http://www.w3.org/2000/svg"
   xmlns:svg="http://www.w3.org/2000/svg">
  <sodipodi:namedview
     id="namedview7"
     pagecolor="#ffffff"
     bordercolor="#666666"
     borderopacity="1.0"
     inkscape:showpageshadow="2"
     inkscape:pageopacity="0.0"
     inkscape:pagecheckerboard="0"
     inkscape:deskcolor="#d1d1d1"
     inkscape:document-units="px"
     showgrid="false"
     inkscape:zoom="8.5520835"
     inkscape:cx="11.868453"
     inkscape:cy="26.601705"
     inkscape:window-width="1920"
     inkscape:window-height="1007"
     inkscape:window-x="0"
     inkscape:window-y="0"
     inkscape:window-maximized="1"
     inkscape:current-layer="svg5" />
  <defs
     id="defs2">
    <linearGradient
       inkscape:collect="always"
       xlink:href="#linearGradient3632"
       id="linearGradient6478"
       x1="37.5"
       y1="44.5"
       x2="9.5"
       y2="2.5"
       gradientUnits="userSpaceOnUse"
       gradientTransform="translate(0.5,0.5)" />
    <linearGradient
       inkscape:collect="always"
       id="linearGradient3632">
      <stop
         style="stop-color:#37a3ff;stop-opacity:1;"
         offset="0"
         id="stop3628" />
      <stop
         style="stop-color:#8adeff;stop-opacity:1;"
         offset="1"
         id="stop3630" />
    </linearGradient>
  </defs>
  <rect
     style="fill:url(#linearGradient6478);fill-opacity:1.0;stroke:none"
     id="rect184"
     width="41"
     height="41"
     x="3.5"
     y="3.5"
     ry="6.5" />
  <path
     d="m 18.000001,10.000003 c -4.970563,0 -9.000001,4.029437 -9.000001,9 3.22e-4,2.064783 0.710602,4.066668 2.011719,5.669922 -0.0053,0.109972 -0.0092,0.220006 -0.01172,0.330077 0,7.179702 5.820299,13.000001 13.000001,13.000001 0.110071,-0.0025 0.220106,-0.0064 0.330078,-0.01172 1.603254,1.301117 3.605138,2.011396 5.669921,2.011719 4.970563,0 9.000001,-4.029437 9.000001,-9.000001 -3.22e-4,-2.064783 -0.710601,-4.066668 -2.011719,-5.669922 0.0053,-0.109972 0.0092,-0.220007 0.01172,-0.330078 1e-6,-7.179701 -5.820294,-13 -12.999995,-13.000003 -0.110071,0.0025 -0.220106,0.0064 -0.330078,0.01172 C 22.066674,10.710601 20.064789,10.000322 18.000006,10 Z m 6.332031,8 c 0.577689,-0.0053 1.156466,0.03689 1.726562,0.126954 0.4078,0.0607 0.807975,0.16184 1.195313,0.298829 0.355824,0.116027 0.676592,0.312177 0.935547,0.574218 0.190866,0.215532 0.293609,0.492187 0.289062,0.775391 0.01391,0.297101 -0.09626,0.587142 -0.304687,0.806641 -0.19768,0.202579 -0.475076,0.314116 -0.763672,0.30664 -0.196388,-0.0014 -0.390166,-0.04355 -0.568359,-0.123048 -0.438733,-0.189055 -0.891663,-0.348343 -1.353516,-0.476563 -0.425259,-0.107863 -0.862992,-0.160793 -1.302734,-0.15625 -0.572702,-0.02045 -1.138397,0.118173 -1.630859,0.400391 -0.423672,0.247734 -0.674118,0.698994 -0.652344,1.175781 -0.0031,0.307072 0.118012,0.603723 0.337889,0.826172 0.261472,0.261026 0.571017,0.473137 0.91211,0.626953 0.382243,0.18254 0.951146,0.42468 1.708984,0.726563 0.08401,0.02555 0.166957,0.05647 0.246093,0.09375 0.739528,0.28159 1.448885,0.633805 2.117187,1.048828 0.527935,0.331435 0.972347,0.770362 1.302735,1.28711 0.325152,0.542862 0.488249,1.162628 0.470702,1.789062 0.02733,0.76731 -0.201637,1.522887 -0.652343,2.15625 -0.458905,0.599583 -1.093247,1.053618 -1.822264,1.302733 -0.878444,0.302033 -1.807648,0.445889 -2.740234,0.427735 -1.281591,0.04341 -2.555686,-0.188937 -3.732422,-0.679688 -0.301129,-0.128964 -0.565362,-0.325123 -0.769531,-0.574219 -0.169236,-0.228132 -0.257011,-0.502937 -0.25,-0.783203 -0.01708,-0.299244 0.102758,-0.592104 0.328123,-0.798828 0.233753,-0.19711 0.537194,-0.299456 0.847657,-0.287108 0.345539,0.0046 0.685344,0.08948 0.990234,0.246093 0.378835,0.182551 0.67746,0.318996 0.896484,0.410156 0.25019,0.100898 0.508504,0.180291 0.773438,0.236326 0.326589,0.06907 0.659783,0.100914 0.994141,0.09766 0.59117,0.0405 1.180244,-0.109059 1.671876,-0.427733 0.373455,-0.28134 0.5842,-0.719627 0.564453,-1.175781 7.25e-4,-0.319139 -0.126263,-0.627046 -0.353515,-0.859375 -0.300311,-0.297875 -0.651997,-0.543668 -1.039063,-0.726562 -0.457433,-0.232736 -1.099943,-0.514188 -1.929688,-0.847656 -0.742316,-0.284755 -1.45439,-0.641276 -2.123046,-1.0625 -0.504525,-0.320007 -0.925987,-0.747582 -1.230469,-1.250001 -0.294175,-0.530508 -0.438013,-1.125433 -0.419922,-1.726562 -0.0224,-0.762926 0.248307,-1.508676 0.759766,-2.091797 0.531408,-0.585578 1.213326,-1.024614 1.978515,-1.273437 0.832409,-0.28301 1.70903,-0.425082 2.591797,-0.419922 z"
     style="fill:#000000;fill-opacity:1;stroke-width:0.928569;opacity:0.2"
     id="path13349" />
  <path
     id="path4871"
     style="fill:#ffffff;fill-opacity:1;stroke-width:0.928569"
     d="m 18.000001,9.0000025 c -4.970563,-5e-7 -9.0000005,4.0294365 -9.0000006,8.9999995 3.218e-4,2.064783 0.7106012,4.066668 2.0117186,5.669922 -0.0053,0.109972 -0.0092,0.220006 -0.01172,0.330077 0,7.179702 5.820299,13.000001 13.000001,13 0.110071,-0.0025 0.220106,-0.0064 0.330078,-0.01172 C 25.933332,38.289398 27.935216,38.999678 29.999999,39 34.970562,39.000001 39,34.970563 39,30 c -3.22e-4,-2.064783 -0.710601,-4.066668 -2.011719,-5.669922 0.0053,-0.109972 0.0092,-0.220007 0.01172,-0.330078 1e-6,-7.179701 -5.820294,-12.999999 -12.999995,-13.000002 -0.110071,0.0025 -0.220106,0.0064 -0.330078,0.01172 C 22.066674,9.7106007 20.064789,9.0003213 18.000006,8.9999995 Z m 6.332031,7.9999995 c 0.577689,-0.0053 1.156466,0.03689 1.726562,0.126954 0.4078,0.0607 0.807975,0.16184 1.195313,0.298829 0.355824,0.116027 0.676592,0.312177 0.935547,0.574218 0.190866,0.215532 0.293609,0.492187 0.289062,0.775391 0.01391,0.297101 -0.09626,0.587142 -0.304687,0.806641 -0.19768,0.202579 -0.475076,0.314116 -0.763672,0.30664 -0.196388,-0.0014 -0.390166,-0.04355 -0.568359,-0.123048 -0.438733,-0.189055 -0.891663,-0.348343 -1.353516,-0.476563 -0.425259,-0.107863 -0.862992,-0.160793 -1.302734,-0.15625 -0.572702,-0.02045 -1.138397,0.118173 -1.630859,0.400391 -0.423672,0.247734 -0.674118,0.698994 -0.652344,1.175781 -0.0031,0.307072 0.118012,0.603723 0.337889,0.826172 0.261472,0.261026 0.571017,0.473137 0.91211,0.626953 0.382243,0.18254 0.951146,0.42468 1.708984,0.726563 0.08401,0.02555 0.166957,0.05647 0.246093,0.09375 0.739528,0.28159 1.448885,0.633805 2.117187,1.048828 0.527935,0.331435 0.972347,0.770362 1.302735,1.28711 0.325152,0.542862 0.488249,1.162628 0.470702,1.789062 0.02733,0.76731 -0.201637,1.522887 -0.652343,2.15625 -0.458905,0.599583 -1.093247,1.053618 -1.822264,1.302733 -0.878444,0.302033 -1.807648,0.445889 -2.740234,0.427735 -1.281591,0.04341 -2.555686,-0.188937 -3.732422,-0.679688 -0.301129,-0.128964 -0.565362,-0.325123 -0.769531,-0.574219 -0.169236,-0.228132 -0.257011,-0.502937 -0.25,-0.783203 -0.01708,-0.299244 0.102758,-0.592104 0.328123,-0.798828 0.233753,-0.19711 0.537194,-0.299456 0.847657,-0.287108 0.345539,0.0046 0.685344,0.08948 0.990234,0.246093 0.378835,0.182551 0.67746,0.318996 0.896484,0.410156 0.25019,0.100898 0.508504,0.180291 0.773438,0.236326 0.326589,0.06907 0.659783,0.100914 0.994141,0.09766 0.59117,0.0405 1.180244,-0.109059 1.671876,-0.427733 0.373455,-0.28134 0.5842,-0.719627 0.564453,-1.175781 7.25e-4,-0.319139 -0.126263,-0.627046 -0.353515,-0.859375 -0.300311,-0.297875 -0.651997,-0.543668 -1.039063,-0.726562 -0.457433,-0.232736 -1.099943,-0.514188 -1.929688,-0.847656 -0.742316,-0.284755 -1.45439,-0.641276 -2.123046,-1.0625 -0.504525,-0.320007 -0.925987,-0.747582 -1.230469,-1.250001 -0.294175,-0.530508 -0.438013,-1.125433 -0.419922,-1.726562 -0.0224,-0.762926 0.248307,-1.508676 0.759766,-2.091797 0.531408,-0.585578 1.213326,-1.024614 1.978515,-1.273437 0.832409,-0.28301 1.70903,-0.425082 2.591797,-0.419922 z"
     sodipodi:nodetypes="scccccccccccsssccccccccccccccccccccccccccccscccccccccccss" />
  <path
     id="rect2630"
     style="fill:#ffffff;fill-opacity:1;opacity:0.3"
     d="M 10,4 C 6.6760035,4 4.0000002,6.6760033 4.0000002,10 v 1 C 4.0000002,7.6760032 6.6760035,5 10,5 h 28 c 3.323997,0 6,2.6760032 6,6 V 10 C 44,6.6760033 41.323997,4 38,4 Z" />
  <path
     id="rect398"
     style="opacity:0.3;fill:#ffffff"
     d="m 4.0000001,37 v 1 c 0,3.323996 2.6760033,6 5.9999999,6 h 28 c 3.323997,0 6,-2.676004 6,-6 v -1 c 0,3.323996 -2.676003,6 -6,6 H 10 C 6.6760034,43 4.0000001,40.323996 4.0000001,37 Z" />
  <path
     id="rect899"
     style="opacity:0.5;fill:#000000;stroke:none"
     d="M 10,3 C 6.1220039,3 3,6.1220039 3,10 v 28 c 0,3.877996 3.1220039,7 7,7 h 28 c 3.877996,0 7,-3.122004 7,-7 V 10 C 45,6.1220039 41.877996,3 38,3 Z m 0,1 h 28 c 3.323997,0 6,2.6760033 6,6 v 28 c 0,3.323997 -2.676003,6 -6,6 H 10 C 6.6760033,44 4,41.323997 4,38 V 10 C 4,6.6760033 6.6760033,4 10,4 Z" />
</svg>
