<?xml version="1.0" encoding="UTF-8" standalone="no"?>
<!-- Created with Inkscape (http://www.inkscape.org/) -->

<svg
   width="48"
   height="48"
   viewBox="0 0 48 48.000002"
   version="1.1"
   id="svg5"
   sodipodi:docname="system-software-install.svg"
   inkscape:version="1.2.1 (9c6d41e410, 2022-07-14)"
   xmlns:inkscape="http://www.inkscape.org/namespaces/inkscape"
   xmlns:sodipodi="http://sodipodi.sourceforge.net/DTD/sodipodi-0.dtd"
   xmlns:xlink="http://www.w3.org/1999/xlink"
   xmlns="http://www.w3.org/2000/svg"
   xmlns:svg="http://www.w3.org/2000/svg">
  <sodipodi:namedview
     id="namedview7"
     pagecolor="#ffffff"
     bordercolor="#666666"
     borderopacity="1.0"
     inkscape:showpageshadow="2"
     inkscape:pageopacity="0.0"
     inkscape:pagecheckerboard="0"
     inkscape:deskcolor="#d1d1d1"
     inkscape:document-units="px"
     showgrid="false"
     inkscape:zoom="16.604167"
     inkscape:cx="23.969887"
     inkscape:cy="24"
     inkscape:window-width="1920"
     inkscape:window-height="1009"
     inkscape:window-x="0"
     inkscape:window-y="0"
     inkscape:window-maximized="1"
     inkscape:current-layer="svg5" />
  <defs
     id="defs2">
    <linearGradient
       inkscape:collect="always"
       id="linearGradient6608">
      <stop
         style="stop-color:#b79877;stop-opacity:1;"
         offset="0"
         id="stop6604" />
      <stop
         style="stop-color:#f7d2a2;stop-opacity:1;"
         offset="1"
         id="stop6606" />
    </linearGradient>
    <linearGradient
       inkscape:collect="always"
       xlink:href="#linearGradient6608"
       id="linearGradient15179"
       x1="24"
       y1="45"
       x2="24"
       y2="3"
       gradientUnits="userSpaceOnUse" />
  </defs>
  <rect
     style="fill:url(#linearGradient15179);fill-opacity:1;stroke:none"
     id="rect184"
     width="41"
     height="41"
     x="3.5"
     y="3.5"
     ry="6.5" />
  <rect
     style="opacity:0.2;fill:#ffffff;stroke-width:0.800391;stroke-linejoin:round"
     id="rect581"
     width="41"
     height="1"
     x="3.5"
     y="24" />
  <rect
     style="opacity:0.2;fill:#000000;fill-opacity:1;stroke-width:0.863397;stroke-linecap:round;stroke-linejoin:round"
     id="rect11182"
     width="41"
     height="1"
     x="3.5"
     y="23" />
  <path
     id="rect29789"
     style="opacity:0.2;fill:#000000;stroke-width:2.25;stroke-linecap:round;stroke-linejoin:round"
     d="M 22.000469,11 V 30.637 L 16.82664,25.211425 13.645,28.393066 24,39 34.35782,28.393066 31.17618,25.211425 26,30.637 V 11 Z"
     sodipodi:nodetypes="cccccccccc" />
  <path
     d="M 22.000469,10 V 29.637 L 16.82664,24.211426 13.645,27.393067 24,38 34.35782,27.393067 31.17618,24.211426 26,29.637 V 10 Z"
     style="fill:#ffffff;stroke-width:2.25;stroke-linecap:round;stroke-linejoin:round"
     id="path29858"
     sodipodi:nodetypes="cccccccccc" />
  <path
     id="rect2630"
     style="fill:#ffffff;fill-opacity:1;opacity:0.3"
     d="M 10,4 C 6.6760035,4 4.0000002,6.6760033 4.0000002,10 v 1 C 4.0000002,7.6760032 6.6760035,5 10,5 h 28 c 3.323997,0 6,2.6760032 6,6 V 10 C 44,6.6760033 41.323997,4 38,4 Z" />
  <path
     id="rect398"
     style="opacity:0.3;fill:#ffffff"
     d="m 4.0000001,37 v 1 c 0,3.323996 2.6760033,6 5.9999999,6 h 28 c 3.323997,0 6,-2.676004 6,-6 v -1 c 0,3.323996 -2.676003,6 -6,6 H 10 C 6.6760034,43 4.0000001,40.323996 4.0000001,37 Z" />
  <path
     id="rect899"
     style="opacity:0.5;fill:#000000;stroke:none"
     d="M 10,3 C 6.1220039,3 3,6.1220039 3,10 v 28 c 0,3.877996 3.1220039,7 7,7 h 28 c 3.877996,0 7,-3.122004 7,-7 V 10 C 45,6.1220039 41.877996,3 38,3 Z m 0,1 h 28 c 3.323997,0 6,2.6760033 6,6 v 28 c 0,3.323997 -2.676003,6 -6,6 H 10 C 6.6760033,44 4,41.323997 4,38 V 10 C 4,6.6760033 6.6760033,4 10,4 Z" />
</svg>
