<?xml version="1.0" encoding="UTF-8" standalone="no"?>
<!-- Created with Inkscape (http://www.inkscape.org/) -->

<svg
   width="48"
   height="48"
   viewBox="0 0 48 48.000002"
   version="1.1"
   id="svg5"
   sodipodi:docname="system-error.svg"
   inkscape:version="1.2.1 (9c6d41e410, 2022-07-14)"
   xmlns:inkscape="http://www.inkscape.org/namespaces/inkscape"
   xmlns:sodipodi="http://sodipodi.sourceforge.net/DTD/sodipodi-0.dtd"
   xmlns:xlink="http://www.w3.org/1999/xlink"
   xmlns="http://www.w3.org/2000/svg"
   xmlns:svg="http://www.w3.org/2000/svg">
  <sodipodi:namedview
     id="namedview7"
     pagecolor="#ffffff"
     bordercolor="#666666"
     borderopacity="1.0"
     inkscape:showpageshadow="2"
     inkscape:pageopacity="0.0"
     inkscape:pagecheckerboard="0"
     inkscape:deskcolor="#d1d1d1"
     inkscape:document-units="px"
     showgrid="false"
     inkscape:zoom="16.5625"
     inkscape:cx="24"
     inkscape:cy="24"
     inkscape:window-width="1920"
     inkscape:window-height="1007"
     inkscape:window-x="0"
     inkscape:window-y="0"
     inkscape:window-maximized="1"
     inkscape:current-layer="svg5"
     showguides="false" />
  <defs
     id="defs2">
    <linearGradient
       inkscape:collect="always"
       xlink:href="#linearGradient5312"
       id="linearGradient6478"
       x1="37.5"
       y1="44.5"
       x2="9.5"
       y2="2.5"
       gradientUnits="userSpaceOnUse"
       gradientTransform="translate(0.5,0.5)" />
    <linearGradient
       inkscape:collect="always"
       id="linearGradient5312">
      <stop
         style="stop-color:#c72222;stop-opacity:1;"
         offset="0"
         id="stop5308" />
      <stop
         style="stop-color:#cf5b5b;stop-opacity:1;"
         offset="1"
         id="stop5310" />
    </linearGradient>
  </defs>
  <rect
     style="fill:url(#linearGradient6478);fill-opacity:1.0;stroke:none"
     id="rect184"
     width="41"
     height="41"
     x="3.5"
     y="3.5"
     ry="6.5" />
  <path
     id="path3173"
     style="font-size:30.4709px;line-height:1.25;font-family:'Google Sans';-inkscape-font-specification:'Google Sans';opacity:0.2;fill:#000000;fill-opacity:1;stroke-width:0.934905"
     d="m 22,10 v 11 l 0.5,10 h 3 L 26,21 V 10 Z m 2.019531,25 c -0.708664,0 -1.311862,0.249356 -1.810547,0.748047 C 21.736546,36.220474 21.5,36.798026 21.5,37.480469 c 0,0.708664 0.236547,1.311892 0.708984,1.810547 C 22.70767,39.763486 23.310867,40 24.019531,40 c 0.682416,0 1.25998,-0.236514 1.732422,-0.708984 C 26.250642,38.792364 26.5,38.189133 26.5,37.480469 26.5,36.798026 26.250641,36.220474 25.751953,35.748047 25.279513,35.249344 24.701946,35 24.019531,35 Z"
     sodipodi:nodetypes="cccccccscscscscs" />
  <path
     id="path13331"
     style="font-size:30.4709px;line-height:1.25;font-family:'Google Sans';-inkscape-font-specification:'Google Sans';fill:#ffffff;fill-opacity:1;stroke-width:0.934905"
     d="m 22,9 v 11 l 0.5,10 h 3 L 26,20 V 9 Z m 2.019531,25 c -0.708664,0 -1.311862,0.249356 -1.810547,0.748047 C 21.736546,35.220474 21.5,35.798026 21.5,36.480469 c 0,0.708664 0.236547,1.311892 0.708984,1.810547 C 22.707669,38.763486 23.310867,39 24.019531,39 24.701946,39 25.279512,38.763486 25.751953,38.291016 26.250642,37.792364 26.5,37.189133 26.5,36.480469 26.5,35.798026 26.250641,35.220474 25.751953,34.748047 25.279514,34.249344 24.701946,34 24.019531,34 Z"
     sodipodi:nodetypes="cccccccscscscscs" />
  <path
     id="rect2630"
     style="fill:#ffffff;fill-opacity:1;opacity:0.3"
     d="M 10,4 C 6.6760035,4 4.0000002,6.6760033 4.0000002,10 v 1 C 4.0000002,7.6760032 6.6760035,5 10,5 h 28 c 3.323997,0 6,2.6760032 6,6 V 10 C 44,6.6760033 41.323997,4 38,4 Z" />
  <path
     id="rect398"
     style="opacity:0.3;fill:#ffffff"
     d="m 4.0000001,37 v 1 c 0,3.323996 2.6760033,6 5.9999999,6 h 28 c 3.323997,0 6,-2.676004 6,-6 v -1 c 0,3.323996 -2.676003,6 -6,6 H 10 C 6.6760034,43 4.0000001,40.323996 4.0000001,37 Z" />
  <path
     id="rect899"
     style="opacity:0.5;fill:#000000;stroke:none"
     d="M 10,3 C 6.1220039,3 3,6.1220039 3,10 v 28 c 0,3.877996 3.1220039,7 7,7 h 28 c 3.877996,0 7,-3.122004 7,-7 V 10 C 45,6.1220039 41.877996,3 38,3 Z m 0,1 h 28 c 3.323997,0 6,2.6760033 6,6 v 28 c 0,3.323997 -2.676003,6 -6,6 H 10 C 6.6760033,44 4,41.323997 4,38 V 10 C 4,6.6760033 6.6760033,4 10,4 Z" />
</svg>
