<?xml version="1.0" encoding="UTF-8" standalone="no"?>
<!-- Created with Inkscape (http://www.inkscape.org/) -->

<svg
   width="48"
   height="48"
   viewBox="0 0 48 48.000002"
   version="1.1"
   id="svg5"
   sodipodi:docname="system-file-manager.svg"
   inkscape:version="1.2.1 (9c6d41e410, 2022-07-14)"
   xmlns:inkscape="http://www.inkscape.org/namespaces/inkscape"
   xmlns:sodipodi="http://sodipodi.sourceforge.net/DTD/sodipodi-0.dtd"
   xmlns:xlink="http://www.w3.org/1999/xlink"
   xmlns="http://www.w3.org/2000/svg"
   xmlns:svg="http://www.w3.org/2000/svg">
  <sodipodi:namedview
     id="namedview7"
     pagecolor="#ffffff"
     bordercolor="#666666"
     borderopacity="1.0"
     inkscape:showpageshadow="2"
     inkscape:pageopacity="0.0"
     inkscape:pagecheckerboard="0"
     inkscape:deskcolor="#d1d1d1"
     inkscape:document-units="px"
     showgrid="false"
     inkscape:zoom="18.857143"
     inkscape:cx="23.996212"
     inkscape:cy="24.022727"
     inkscape:window-width="1920"
     inkscape:window-height="1007"
     inkscape:window-x="0"
     inkscape:window-y="0"
     inkscape:window-maximized="1"
     inkscape:current-layer="svg5" />
  <defs
     id="defs2">
    <linearGradient
       inkscape:collect="always"
       xlink:href="#linearGradient1264"
       id="linearGradient6478"
       x1="37.5"
       y1="44.5"
       x2="9.5"
       y2="2.5"
       gradientUnits="userSpaceOnUse"
       gradientTransform="translate(0.5,0.5)" />
    <linearGradient
       inkscape:collect="always"
       id="linearGradient1264">
      <stop
         style="stop-color:#97866b;stop-opacity:1;"
         offset="0"
         id="stop1260" />
      <stop
         style="stop-color:#d0c7ad;stop-opacity:1;"
         offset="1"
         id="stop1262" />
    </linearGradient>
  </defs>
  <rect
     style="fill:url(#linearGradient6478);fill-opacity:1.0;stroke:none"
     id="rect184"
     width="41"
     height="41"
     x="3.5"
     y="3.5"
     ry="6.5" />
  <path
     d="m 12,12.999887 c -1.108,0 -2,0.892001 -2,2 v 20.000002 c 0,1.108 0.892,2 2,2 h 24 c 1.108,0 2,-0.892 2,-2 V 18.999661 C 38,17.891663 37.108,16.99966 36,16.99966 L 23.999802,16.999886 22,13.999887 c -0.68869,-0.629336 -0.892,-1 -2,-1 z"
     style="opacity:0.2;fill:#000000;fill-opacity:1;stroke-width:1"
     id="path14031"
     sodipodi:nodetypes="ssssssssccss" />
  <path
     d="m 12,12 c -1.107998,0 -2,0.892001 -2,2 v 20 c 0,1.108 0.892002,2 2,2 h 24 c 1.108,0 2,-0.892 2,-2 V 18 c 0,-1.107998 -0.892,-2 -2,-2 H 23.999802 L 22,13 c -0.68869,-0.629336 -0.892,-1 -2,-1 z"
     style="fill:#ede9e1;fill-opacity:1;stroke-width:1"
     id="path10731"
     sodipodi:nodetypes="ssssssssccss" />
  <path
     id="path15912"
     style="opacity:0.1;fill:#000000;fill-opacity:1;stroke-width:1"
     d="M 23.599382,15.398437 20.999773,17.998 h -9 c -1.104565,0 -2,0.895437 -2,2 v 13.000047 c 0,1.107991 0.892007,2 2,2 H 37.734148 C 37.902939,34.704499 37.999773,34.364256 37.999773,34 V 18 c 0,-1.107997 -0.892001,-2 -2,-2 h -12 z"
     sodipodi:nodetypes="ccsssscssscc" />
  <path
     d="m 23.999802,16 -3.000029,3 H 12 c -1.104568,0 -2,0.895433 -2,2 v 13 c 0,1.107996 0.892002,2 2,2 h 23.999092 c 1.107998,0 2,-0.892004 2,-2 V 18 c 0,-1.107998 -0.892002,-2 -2,-2 z"
     style="fill:#ffffff;fill-opacity:1;stroke-width:1"
     id="path14427"
     sodipodi:nodetypes="ccssssssssc" />
  <path
     id="rect2630"
     style="fill:#ffffff;fill-opacity:1;opacity:0.3"
     d="M 10,4 C 6.6760035,4 4.0000002,6.6760033 4.0000002,10 v 1 C 4.0000002,7.6760032 6.6760035,5 10,5 h 28 c 3.323997,0 6,2.6760032 6,6 V 10 C 44,6.6760033 41.323997,4 38,4 Z" />
  <path
     id="rect398"
     style="opacity:0.3;fill:#ffffff"
     d="m 4.0000001,37 v 1 c 0,3.323996 2.6760033,6 5.9999999,6 h 28 c 3.323997,0 6,-2.676004 6,-6 v -1 c 0,3.323996 -2.676003,6 -6,6 H 10 C 6.6760034,43 4.0000001,40.323996 4.0000001,37 Z" />
  <path
     id="rect899"
     style="opacity:0.5;fill:#000000;stroke:none"
     d="M 10,3 C 6.1220039,3 3,6.1220039 3,10 v 28 c 0,3.877996 3.1220039,7 7,7 h 28 c 3.877996,0 7,-3.122004 7,-7 V 10 C 45,6.1220039 41.877996,3 38,3 Z m 0,1 h 28 c 3.323997,0 6,2.6760033 6,6 v 28 c 0,3.323997 -2.676003,6 -6,6 H 10 C 6.6760033,44 4,41.323997 4,38 V 10 C 4,6.6760033 6.6760033,4 10,4 Z" />
</svg>
