<?xml version="1.0" encoding="UTF-8" standalone="no"?>
<!-- Created with Inkscape (http://www.inkscape.org/) -->

<svg
   width="48"
   height="48"
   viewBox="0 0 48 48.000002"
   version="1.1"
   id="svg5"
   sodipodi:docname="ubuntusoftware.svg"
   inkscape:version="1.2.1 (9c6d41e410, 2022-07-14)"
   xmlns:inkscape="http://www.inkscape.org/namespaces/inkscape"
   xmlns:sodipodi="http://sodipodi.sourceforge.net/DTD/sodipodi-0.dtd"
   xmlns:xlink="http://www.w3.org/1999/xlink"
   xmlns="http://www.w3.org/2000/svg"
   xmlns:svg="http://www.w3.org/2000/svg">
  <sodipodi:namedview
     id="namedview7"
     pagecolor="#ffffff"
     bordercolor="#666666"
     borderopacity="1.0"
     inkscape:showpageshadow="2"
     inkscape:pageopacity="0.0"
     inkscape:pagecheckerboard="0"
     inkscape:deskcolor="#d1d1d1"
     inkscape:document-units="px"
     showgrid="false"
     inkscape:zoom="18.857143"
     inkscape:cx="23.996212"
     inkscape:cy="24.022727"
     inkscape:window-width="1920"
     inkscape:window-height="1007"
     inkscape:window-x="0"
     inkscape:window-y="0"
     inkscape:window-maximized="1"
     inkscape:current-layer="svg5" />
  <defs
     id="defs2">
    <linearGradient
       inkscape:collect="always"
       xlink:href="#linearGradient877"
       id="linearGradient6478"
       x1="37.5"
       y1="44.5"
       x2="9.5"
       y2="2.5"
       gradientUnits="userSpaceOnUse"
       gradientTransform="translate(0.5,0.5)" />
    <linearGradient
       inkscape:collect="always"
       id="linearGradient877">
      <stop
         style="stop-color:#e95420;stop-opacity:1;"
         offset="0"
         id="stop873" />
      <stop
         style="stop-color:#ff8e31;stop-opacity:1;"
         offset="1"
         id="stop875" />
    </linearGradient>
  </defs>
  <rect
     style="fill:url(#linearGradient6478);fill-opacity:1.0;stroke:none"
     id="rect184"
     width="41"
     height="41"
     x="3.5"
     y="3.5"
     ry="6.5" />
  <path
     id="path1237"
     style="opacity:0.2;fill:#000000;stroke-width:0.522233;stroke-linejoin:round"
     d="M 22 13 L 16.5 26 L 20.5 26 L 24 17.800781 L 27.5 26 L 31.5 26 L 26 13 L 22 13 z M 13 27 C 11.892003 27 11 27.892003 11 29 C 11 30.107997 11.892003 31 13 31 L 35 31 C 36.107997 31 37 30.107997 37 29 C 37 27.892003 36.107997 27 35 27 L 13 27 z M 14.083984 32 L 12 37 L 16 37 L 18.083984 32 L 14.083984 32 z M 29.916016 32 L 32 37 L 36 37 L 33.916016 32 L 29.916016 32 z " />
  <path
     id="rect2385"
     style="fill:#ffffff;stroke-width:0.522233;stroke-linejoin:round"
     d="m 22,12 -5.5,13 h 4 L 24,16.800781 27.5,25 h 4 L 26,12 Z M 14.083984,31 12,36 h 4 l 2.083984,-5 z M 29.916016,31 32,36 h 4 l -2.083984,-5 z"
     sodipodi:nodetypes="cccccccccccccccccc" />
  <path
     d="m 13,26 c -1.107998,0 -2,0.892002 -2,2 0,1.107998 0.892002,2 2,2 h 22 c 1.107998,0 2,-0.892002 2,-2 0,-1.107998 -0.892002,-2 -2,-2 z"
     style="fill:#ffffff;stroke-width:0.5;stroke-linejoin:round"
     id="path10779"
     sodipodi:nodetypes="sssssss" />
  <rect
     style="opacity:0.6;fill:#fc872f;fill-opacity:1;stroke-width:0.5;stroke-linejoin:round"
     id="rect4873"
     width="12"
     height="2"
     x="12"
     y="27"
     ry="1" />
  <path
     id="rect2630"
     style="fill:#ffffff;fill-opacity:1;opacity:0.3"
     d="M 10,4 C 6.6760035,4 4.0000002,6.6760033 4.0000002,10 v 1 C 4.0000002,7.6760032 6.6760035,5 10,5 h 28 c 3.323997,0 6,2.6760032 6,6 V 10 C 44,6.6760033 41.323997,4 38,4 Z" />
  <path
     id="rect398"
     style="opacity:0.3;fill:#ffffff"
     d="m 4.0000001,37 v 1 c 0,3.323996 2.6760033,6 5.9999999,6 h 28 c 3.323997,0 6,-2.676004 6,-6 v -1 c 0,3.323996 -2.676003,6 -6,6 H 10 C 6.6760034,43 4.0000001,40.323996 4.0000001,37 Z" />
  <path
     id="rect899"
     style="opacity:0.5;fill:#000000;stroke:none"
     d="M 10,3 C 6.1220039,3 3,6.1220039 3,10 v 28 c 0,3.877996 3.1220039,7 7,7 h 28 c 3.877996,0 7,-3.122004 7,-7 V 10 C 45,6.1220039 41.877996,3 38,3 Z m 0,1 h 28 c 3.323997,0 6,2.6760033 6,6 v 28 c 0,3.323997 -2.676003,6 -6,6 H 10 C 6.6760033,44 4,41.323997 4,38 V 10 C 4,6.6760033 6.6760033,4 10,4 Z" />
</svg>
