<?xml version="1.0" encoding="UTF-8" standalone="no"?>
<!-- Created with Inkscape (http://www.inkscape.org/) -->

<svg
   width="48"
   height="48"
   viewBox="0 0 48 48.000002"
   version="1.1"
   id="svg5"
   sodipodi:docname="visual-studio-code.svg"
   inkscape:version="1.2.1 (9c6d41e410, 2022-07-14)"
   xmlns:inkscape="http://www.inkscape.org/namespaces/inkscape"
   xmlns:sodipodi="http://sodipodi.sourceforge.net/DTD/sodipodi-0.dtd"
   xmlns:xlink="http://www.w3.org/1999/xlink"
   xmlns="http://www.w3.org/2000/svg"
   xmlns:svg="http://www.w3.org/2000/svg">
  <sodipodi:namedview
     id="namedview7"
     pagecolor="#ffffff"
     bordercolor="#666666"
     borderopacity="1.0"
     inkscape:showpageshadow="2"
     inkscape:pageopacity="0.0"
     inkscape:pagecheckerboard="0"
     inkscape:deskcolor="#d1d1d1"
     inkscape:document-units="px"
     showgrid="false"
     inkscape:zoom="17.104167"
     inkscape:cx="24"
     inkscape:cy="24"
     inkscape:window-width="1920"
     inkscape:window-height="1007"
     inkscape:window-x="0"
     inkscape:window-y="0"
     inkscape:window-maximized="1"
     inkscape:current-layer="svg5" />
  <defs
     id="defs2">
    <linearGradient
       inkscape:collect="always"
       xlink:href="#4852"
       id="linearGradient6478"
       x1="37.5"
       y1="44.5"
       x2="9.5"
       y2="2.5"
       gradientUnits="userSpaceOnUse"
       gradientTransform="translate(0.5,0.5)" />
    <linearGradient
       inkscape:collect="always"
       id="4852">
      <stop
         style="stop-color:#333333;stop-opacity:1"
         offset="0"
         id="stop14555" />
      <stop
         style="stop-color:#666666;stop-opacity:1"
         offset="1"
         id="stop14557" />
    </linearGradient>
  </defs>
  <rect
     style="fill:url(#linearGradient6478);fill-opacity:1.0;stroke:none"
     id="rect184"
     width="41"
     height="41"
     x="3.5"
     y="3.5"
     ry="6.5" />
  <path
     d="m 30.460115,11.000241 c -0.08853,0.0015 -0.177729,0.0096 -0.264804,0.02446 -0.260751,0.04485 -0.511743,0.149135 -0.731089,0.309426 -0.02685,0.01962 -0.0504,0.04492 -0.07627,0.0662 -8.11e-4,6.61e-4 -0.0021,8.11e-4 -0.0029,0.0015 -0.04386,0.03621 -0.08879,0.07129 -0.129524,0.112258 l -10.911647,9.885832 -4.931979,-3.854172 c -0.447477,-0.341439 -1.072471,-0.312388 -1.488085,0.06764 l -1.542773,1.408974 c -0.5084288,0.464839 -0.5076868,1.268648 0,1.734235 l 4.257016,3.99953 -4.257016,3.857054 c -0.507689,0.465605 -0.5084281,1.269386 0,1.734233 l 1.542773,1.410414 c 0.415612,0.380092 1.040608,0.4076 1.488085,0.0662 l 4.854265,-3.659876 10.989376,10.323369 c 0.0348,0.035 0.07371,0.06346 0.110815,0.09499 0.007,0.0053 0.01309,0.01215 0.02014,0.01728 h 0.0015 c 0.02587,0.02129 0.04943,0.04658 0.07627,0.0662 0.219731,0.160518 0.469867,0.26478 0.73109,0.309428 h 0.0015 c 0.173694,0.02972 0.351801,0.03281 0.52817,0.0087 h 0.0015 c 0.08794,-0.01222 0.17568,-0.03154 0.261927,-0.05757 0.08672,-0.02614 0.172725,-0.05894 0.256168,-0.0993 l 5.76525,-2.787754 c 0.531354,-0.257006 0.892025,-0.763271 0.972868,-1.339894 0.0115,-0.08068 0.01706,-0.163117 0.01728,-0.246103 v -0.0044 -0.0662 -18.764265 -0.06764 c 0,-0.0015 3e-6,-0.0029 0,-0.0044 0,-0.08306 -0.006,-0.165337 -0.01728,-0.246103 -0.08089,-0.576646 -0.441557,-1.082899 -0.97292,-1.339902 l -5.765249,-2.787669 c -0.167337,-0.08095 -0.342212,-0.132577 -0.519534,-0.156872 -0.08841,-0.01222 -0.176277,-0.0173 -0.264804,-0.01583 z m 0.544001,7.562988 v 12.731148 l -8.292404,-6.48071 z"
     style="opacity:0.2;fill:#000000;stroke-width:1.40003"
     id="path1683" />
  <path
     d="M 37.009605,12.966324 31.243938,10.174141 C 30.576609,9.8509464 29.77899,9.9872784 29.255186,10.514075 L 10.380384,27.613406 c -0.5076864,0.465588 -0.5070992,1.269498 0.0013,1.734327 l 1.541756,1.409674 c 0.41561,0.380078 1.041519,0.408016 1.488993,0.06663 L 36.142034,13.690676 c 0.762527,-0.581832 1.857797,-0.03478 1.857797,0.927889 v -0.06734 c 0,-0.675756 -0.384897,-1.29177 -0.990226,-1.584915 z"
     style="fill:#0072b0;stroke-width:1.40001"
     id="path3815" />
  <path
     d="m 37.009605,35.034224 -5.765667,2.792192 C 30.576609,38.14949 29.77899,38.0132 29.255186,37.486485 L 10.380383,19.757054 c -0.507684,-0.465569 -0.5070997,-1.269497 0.0013,-1.734318 l 1.541716,-1.409727 c 0.41561,-0.380016 1.041519,-0.407992 1.488994,-0.06657 l 22.729645,17.763374 c 0.762527,0.58181 1.857797,0.03477 1.857797,-0.927904 v 0.06742 c 0,0.675706 -0.384896,1.291712 -0.990225,1.584928 z"
     style="fill:#008eda;stroke-width:1.40001"
     id="path3843" />
  <path
     d="m 31.244331,37.826589 c -0.667548,0.322885 -1.465162,0.186482 -1.988972,-0.340384 0.645358,0.649092 1.74893,0.189317 1.74893,-0.728689 v -25.51509 c 0,-0.918012 -1.103572,-1.377764 -1.74893,-0.728628 0.523806,-0.5268409 1.321424,-0.6633674 1.988972,-0.340457 l 5.764689,2.788347 c 0.605782,0.292989 0.990985,0.909229 0.990985,1.58528 v 18.90614 c 0,0.676033 -0.385213,1.292255 -0.990985,1.585247 z"
     style="fill:#1eacf8;stroke-width:1.40001"
     id="path3871" />
  <path
     id="rect2630"
     style="fill:#ffffff;fill-opacity:1;opacity:0.3"
     d="M 10,4 C 6.6760035,4 4.0000002,6.6760033 4.0000002,10 v 1 C 4.0000002,7.6760032 6.6760035,5 10,5 h 28 c 3.323997,0 6,2.6760032 6,6 V 10 C 44,6.6760033 41.323997,4 38,4 Z" />
  <path
     id="rect398"
     style="opacity:0.3;fill:#ffffff"
     d="m 4.0000001,37 v 1 c 0,3.323996 2.6760033,6 5.9999999,6 h 28 c 3.323997,0 6,-2.676004 6,-6 v -1 c 0,3.323996 -2.676003,6 -6,6 H 10 C 6.6760034,43 4.0000001,40.323996 4.0000001,37 Z" />
  <path
     id="rect899"
     style="opacity:0.5;fill:#000000;stroke:none"
     d="M 10,3 C 6.1220039,3 3,6.1220039 3,10 v 28 c 0,3.877996 3.1220039,7 7,7 h 28 c 3.877996,0 7,-3.122004 7,-7 V 10 C 45,6.1220039 41.877996,3 38,3 Z m 0,1 h 28 c 3.323997,0 6,2.6760033 6,6 v 28 c 0,3.323997 -2.676003,6 -6,6 H 10 C 6.6760033,44 4,41.323997 4,38 V 10 C 4,6.6760033 6.6760033,4 10,4 Z" />
</svg>
