<?xml version="1.0" encoding="UTF-8" standalone="no"?>
<!-- Created with Inkscape (http://www.inkscape.org/) -->

<svg
   width="48"
   height="48"
   viewBox="0 0 48 48.000002"
   version="1.1"
   id="svg5"
   sodipodi:docname="web-google.svg"
   inkscape:version="1.2.1 (9c6d41e410, 2022-07-14)"
   xmlns:inkscape="http://www.inkscape.org/namespaces/inkscape"
   xmlns:sodipodi="http://sodipodi.sourceforge.net/DTD/sodipodi-0.dtd"
   xmlns="http://www.w3.org/2000/svg"
   xmlns:svg="http://www.w3.org/2000/svg">
  <sodipodi:namedview
     id="namedview7"
     pagecolor="#ffffff"
     bordercolor="#666666"
     borderopacity="1.0"
     inkscape:showpageshadow="2"
     inkscape:pageopacity="0.0"
     inkscape:pagecheckerboard="0"
     inkscape:deskcolor="#d1d1d1"
     inkscape:document-units="px"
     showgrid="false"
     inkscape:zoom="16.5"
     inkscape:cx="24"
     inkscape:cy="24"
     inkscape:window-width="1920"
     inkscape:window-height="1007"
     inkscape:window-x="0"
     inkscape:window-y="0"
     inkscape:window-maximized="1"
     inkscape:current-layer="svg5" />
  <defs
     id="defs2" />
  <rect
     style="fill:#f5f5f5;fill-opacity:1;stroke:none"
     id="rect184"
     width="41"
     height="41"
     x="3.5"
     y="3.5"
     ry="6.5" />
  <path
     d="m 23.999984,11.000114 c -5.050112,0.0146 -9.701582,2.748828 -12.171392,7.153812 l -0.0068,-0.0034 c -1.18545,2.088948 -1.811472,4.44776 -1.821782,6.849612 0.003,2.405026 0.622702,4.76875 1.804688,6.863284 v 0.0036 c 2.47908,4.405262 7.1404,7.131346 12.195318,7.133304 3.176394,-0.0017 6.256028,-1.085158 8.736332,-3.069338 h 0.0068 c 3.321448,-2.656644 5.256528,-6.677642 5.256862,-10.930768 -5.02e-4,-0.940516 -0.0985,-1.877906 -0.28711,-2.799318 h -1.339844 -4.477542 -7.89551 v 5.598636 h 7.915998 c -0.639824,1.806402 -1.888856,3.369162 -3.578614,4.388674 -1.309194,0.79139 -2.807604,1.208868 -4.337404,1.209962 -3.313586,-0.0016 -6.305364,-1.947212 -7.656254,-4.949222 -0.10806,-0.424322 -0.741082,-2.545072 -0.745118,-3.448732 0.0094,-1.066686 0.221258,-2.123186 0.625488,-3.110352 l -0.0068,-0.0036 c 3.9e-4,-9.78e-4 -3.9e-4,-0.0024 0,-0.0034 1.27238,-3.183726 4.353948,-5.276318 7.782718,-5.284184 1.718832,0.0112 3.392158,0.548844 4.795412,1.541506 l 4.361326,-3.691408 c -2.537982,-2.214386 -5.788548,-3.4375 -9.156742,-3.448732 z"
     style="opacity:0.2;fill:#000000;fill-opacity:1;stroke-width:1.4;stroke-linejoin:round"
     id="path12181" />
  <g
     id="g12145"
     transform="matrix(1.7499999,0,0,1.7499999,2.9999998,2.2488146)">
    <path
       id="path24487"
       style="fill:#ea4335;fill-opacity:1;stroke-width:0.799998;stroke-linejoin:round"
       d="M 12,4.429249 C 9.1142207,4.437659 6.456633,5.9996136 5.0453123,8.5167488 L 5.7869073,10.502823 7.553125,10.64956 C 8.2797898,8.8293456 10.0401,7.6337449 12,7.6292488 c 0.982189,0.00643 1.938764,0.3140145 2.740625,0.8812494 l 2.492187,-2.109374 C 15.782536,5.1357599 13.924683,4.435667 12,4.429249 Z"
       sodipodi:nodetypes="cccccccc" />
    <path
       id="rect25425"
       style="fill:#fbbc05;fill-opacity:1;stroke-width:0.799998;stroke-linejoin:round"
       d="m 5.0421883,8.5151863 c -0.677398,1.1936863 -1.036297,2.5415757 -1.042188,3.9140617 0.0017,1.374303 0.357392,2.724996 1.032812,3.921873 l 1.8053799,-0.2579 0.7086829,-1.878037 c 0.3315704,0.936148 -0.3437367,-1.08352 -0.3468737,-1.785936 0.00537,-0.609535 0.1268221,-1.212466 0.3578117,-1.776562 z"
       sodipodi:nodetypes="cccccccc" />
    <path
       id="rect35766"
       style="fill:#4285f4;fill-opacity:1;stroke-width:0.799998;stroke-linejoin:round"
       d="m 12,10.829248 v 3.199999 h 4.523437 c -0.365615,1.03223 -1.078173,1.925233 -2.04375,2.507811 l 0.316082,1.988125 2.201105,0.150935 c 1.897958,-1.518025 3.002936,-3.816515 3.003127,-6.246874 -2.88e-4,-0.537437 -0.05473,-1.073479 -0.162501,-1.6 H 19.071876 16.5125 Z"
       sodipodi:nodetypes="ccccccccccc" />
    <path
       id="rect24779-7"
       style="fill:#34a853;fill-opacity:1;stroke-width:0.799998;stroke-linejoin:round"
       d="M 7.5468751,14.215184 5.0312503,16.352683 C 6.4478686,18.869978 9.1114745,20.428124 12,20.429243 c 1.815998,-9.58e-4 3.577629,-0.619776 4.995312,-1.754686 L 14.479687,16.537058 C 13.731576,16.989283 12.874172,17.22862 12,17.229246 10.039363,17.228286 8.2763708,16.035056 7.5468751,14.215184 Z"
       sodipodi:nodetypes="ccccccc" />
  </g>
  <path
     id="rect2630"
     style="fill:#ffffff;fill-opacity:1;opacity:0.3"
     d="M 10,4 C 6.6760035,4 4.0000002,6.6760033 4.0000002,10 v 1 C 4.0000002,7.6760032 6.6760035,5 10,5 h 28 c 3.323997,0 6,2.6760032 6,6 V 10 C 44,6.6760033 41.323997,4 38,4 Z" />
  <path
     id="rect398"
     style="opacity:0.3;fill:#ffffff"
     d="m 4.0000001,37 v 1 c 0,3.323996 2.6760033,6 5.9999999,6 h 28 c 3.323997,0 6,-2.676004 6,-6 v -1 c 0,3.323996 -2.676003,6 -6,6 H 10 C 6.6760034,43 4.0000001,40.323996 4.0000001,37 Z" />
  <path
     id="rect899"
     style="opacity:0.5;fill:#000000;stroke:none"
     d="M 10,3 C 6.1220039,3 3,6.1220039 3,10 v 28 c 0,3.877996 3.1220039,7 7,7 h 28 c 3.877996,0 7,-3.122004 7,-7 V 10 C 45,6.1220039 41.877996,3 38,3 Z m 0,1 h 28 c 3.323997,0 6,2.6760033 6,6 v 28 c 0,3.323997 -2.676003,6 -6,6 H 10 C 6.6760033,44 4,41.323997 4,38 V 10 C 4,6.6760033 6.6760033,4 10,4 Z" />
</svg>
