<?xml version="1.0" encoding="UTF-8" standalone="no"?>
<!-- Created with Inkscape (http://www.inkscape.org/) -->

<svg
   width="48"
   height="48"
   viewBox="0 0 48 48.000002"
   version="1.1"
   id="svg5"
   sodipodi:docname="yast-control-center.svg"
   inkscape:version="1.2.1 (9c6d41e410, 2022-07-14)"
   xmlns:inkscape="http://www.inkscape.org/namespaces/inkscape"
   xmlns:sodipodi="http://sodipodi.sourceforge.net/DTD/sodipodi-0.dtd"
   xmlns:xlink="http://www.w3.org/1999/xlink"
   xmlns="http://www.w3.org/2000/svg"
   xmlns:svg="http://www.w3.org/2000/svg">
  <sodipodi:namedview
     id="namedview7"
     pagecolor="#ffffff"
     bordercolor="#666666"
     borderopacity="1.0"
     inkscape:showpageshadow="2"
     inkscape:pageopacity="0.0"
     inkscape:pagecheckerboard="0"
     inkscape:deskcolor="#d1d1d1"
     inkscape:document-units="px"
     showgrid="false"
     inkscape:zoom="5.8336309"
     inkscape:cx="18.513341"
     inkscape:cy="43.026377"
     inkscape:window-width="1920"
     inkscape:window-height="1012"
     inkscape:window-x="0"
     inkscape:window-y="0"
     inkscape:window-maximized="1"
     inkscape:current-layer="svg5" />
  <defs
     id="defs2">
    <linearGradient
       inkscape:collect="always"
       xlink:href="#linearGradient43829"
       id="linearGradient6478"
       x1="37.5"
       y1="44.5"
       x2="9.5"
       y2="2.5"
       gradientUnits="userSpaceOnUse"
       gradientTransform="translate(0.5,0.5)" />
    <linearGradient
       inkscape:collect="always"
       id="linearGradient43829">
      <stop
         style="stop-color:#376d67;stop-opacity:1;"
         offset="0"
         id="stop43825" />
      <stop
         style="stop-color:#6cb086;stop-opacity:1;"
         offset="1"
         id="stop43827" />
    </linearGradient>
  </defs>
  <rect
     style="fill:url(#linearGradient6478);fill-opacity:1.0;stroke:none"
     id="rect184"
     width="41"
     height="41"
     x="3.5"
     y="3.5"
     ry="6.5" />
  <path
     d="m 33.433187,13.584778 c 0,0 -0.530032,0.240308 -1.747124,1.25181 -1.488434,1.236599 -2.410176,1.136909 -3.499101,0.954352 l -0.0085,0.0085 C 27.971028,15.704772 27.76132,15.616055 27.548545,15.53645 V 15.5279 C 26.649283,14.887482 25.927311,14.305445 25.749194,12.378501 25.603476,10.803367 25.398951,10.257817 25.398951,10.257817 24.805574,9.9999 23.999107,9.9999825 23.999107,9.9999825 c 0,0 -0.806684,8.25e-5 -1.399612,0.2580525 0,0 -0.20508,0.545092 -0.350407,2.120511 -0.17808,1.926854 -0.900464,2.508659 -1.799309,3.149391 l -0.0015,0.01073 c -0.21258,0.0795 -0.421687,0.168435 -0.629872,0.263025 l -0.0085,-0.0085 c -1.088842,0.18279 -2.010922,0.281902 -3.499423,-0.954592 -1.216642,-1.010879 -1.747042,-1.251809 -1.747042,-1.251809 -0.600577,0.235875 -1.170697,0.805994 -1.170697,0.805994 0,0 -0.570382,0.570382 -0.807202,1.17225 0,0 0.240847,0.530542 1.251682,1.747147 1.236577,1.488411 1.137059,2.410881 0.954637,3.499378 l 0.0085,0.0085 c -0.09429,0.207652 -0.183435,0.417202 -0.263302,0.629654 h -0.0085 c -0.640245,0.899363 -1.222327,1.621342 -3.149121,1.799655 -1.575089,0.145499 -2.120999,0.350707 -2.120999,0.350707 -0.25773,0.593595 -0.257775,1.398907 -0.257775,1.398907 0,0 4.27e-4,0.807045 0.258202,1.399882 0,0 0.544965,0.205298 2.120362,0.35016 1.926749,0.17829 2.507886,0.901162 3.149068,1.799647 h 0.0085 c 0.07972,0.212797 0.168653,0.422054 0.262965,0.629977 l -0.0085,0.0085 c 0.183217,1.088782 0.282157,2.010711 -0.954292,3.499055 -1.010835,1.216905 -1.251832,1.748114 -1.251832,1.748114 0.237697,0.601823 0.80724,1.171365 0.80724,1.171365 0,0 0.570577,0.5706 1.172242,0.807224 0,0 0.530354,-0.240052 1.746936,-1.251576 1.488547,-1.236405 2.410754,-1.136242 3.499356,-0.954502 l 0.0085,-0.0085 c 0.208297,0.09451 0.41727,0.183652 0.629977,0.262979 l -0.0015,0.01073 c 0.899475,0.640365 1.621319,1.22232 1.799654,3.149054 0.1455,1.575179 0.350557,2.121254 0.350557,2.121254 0.59364,0.257265 1.39914,0.257647 1.39914,0.257647 0,0 0.807052,-2.17e-4 1.399656,-0.258525 0,0 0.20529,-0.544447 0.35037,-2.120121 0.17829,-1.926727 0.901417,-2.508126 1.799429,-3.149204 l -0.0015,-0.01073 c 0.21258,-0.0795 0.421883,-0.168862 0.629917,-0.263062 l 0.0085,0.0085 c 1.088737,-0.183225 2.010622,-0.282097 3.499124,0.954412 1.216641,1.010865 1.747791,1.251989 1.747791,1.251989 0.601927,-0.237929 1.171537,-0.807524 1.171537,-0.807524 0,0 0.57057,-0.57057 0.807262,-1.17231 0,0 -0.240075,-0.530392 -1.251817,-1.747041 -1.236569,-1.488412 -1.136347,-2.410746 -0.954352,-3.499161 l -0.0085,-0.0086 c 0.09451,-0.20829 0.183653,-0.41727 0.263025,-0.629872 h 0.01282 c 0.640372,-0.899212 1.222395,-1.621162 3.149203,-1.799497 1.575307,-0.145507 2.121427,-0.350647 2.121427,-0.350647 0.257175,-0.59364 0.257242,-1.39929 0.257242,-1.39929 0,0 -1.35e-4,-0.806684 -0.257865,-1.399844 0,0 -0.545174,-0.20508 -2.120654,-0.350242 -1.926913,-0.17808 -2.508381,-0.900502 -3.14942,-1.79931 h -0.0085 c -0.0795,-0.212579 -0.168015,-0.422024 -0.263048,-0.629887 l 0.0085,-0.0085 c -0.18279,-1.088392 -0.28221,-2.010621 0.954292,-3.499145 1.01088,-1.216643 1.252237,-1.747597 1.252237,-1.747597 -0.237502,-0.601695 -0.807622,-1.171822 -0.807622,-1.171822 0,0 -0.5706,-0.570547 -1.172332,-0.80724 z m -4.473935,16.374938 c -2.739794,2.739771 -7.181651,2.739816 -9.921452,4.5e-5 -2.739794,-2.739801 -2.739749,-7.18166 4.5e-5,-9.921453 2.739733,-2.739734 7.181591,-2.739771 9.921385,2.2e-5 2.739793,2.739771 2.739756,7.181652 2.2e-5,9.921386 z"
     style="display:inline;opacity:0.2;fill:#000000;fill-opacity:1;stroke:none;stroke-width:0.75;enable-background:new"
     id="path1237" />
  <path
     d="m 33.433668,12.584768 c 0,0 -0.530032,0.240308 -1.747124,1.25181 -1.488435,1.236599 -2.410177,1.136909 -3.499101,0.954352 l -0.0085,0.0086 c -0.207435,-0.09472 -0.417142,-0.183435 -0.629917,-0.26304 v -0.0086 C 26.649764,13.887473 25.927792,13.305435 25.749674,11.378491 25.603957,9.8033571 25.399432,9.2578074 25.399432,9.2578074 24.806055,8.99989 23.999588,8.9999725 23.999588,8.9999725 c 0,0 -0.806685,8.25e-5 -1.399612,0.2580524 0,0 -0.20508,0.5450922 -0.350408,2.1205111 -0.17808,1.926854 -0.900464,2.508659 -1.799309,3.149391 l -0.0015,0.01073 c -0.21258,0.0795 -0.421687,0.168435 -0.629872,0.263025 l -0.0085,-0.0085 c -1.088842,0.18279 -2.010921,0.281903 -3.499423,-0.954592 -1.216642,-1.010879 -1.747042,-1.251809 -1.747042,-1.251809 -0.600577,0.235875 -1.170697,0.805994 -1.170697,0.805994 0,0 -0.570382,0.570383 -0.807202,1.17225 0,0 0.240848,0.530542 1.251682,1.747147 1.236577,1.488412 1.13706,2.410881 0.954637,3.499378 l 0.0085,0.0086 c -0.09429,0.207652 -0.183435,0.417202 -0.263302,0.629655 h -0.0085 c -0.640245,0.899362 -1.222327,1.621341 -3.149121,1.799654 -1.575089,0.1455 -2.120999,0.350707 -2.120999,0.350707 -0.25773,0.593595 -0.257775,1.398907 -0.257775,1.398907 0,0 4.27e-4,0.807045 0.258202,1.399882 0,0 0.544965,0.205297 2.120362,0.35016 1.926749,0.17829 2.507886,0.901162 3.149068,1.799646 h 0.0085 c 0.07972,0.212798 0.168653,0.422055 0.262965,0.629977 l -0.0085,0.0085 c 0.183218,1.088782 0.282157,2.010712 -0.954292,3.499056 -1.010834,1.216905 -1.251832,1.748114 -1.251832,1.748114 0.237698,0.601822 0.80724,1.171365 0.80724,1.171365 0,0 0.570577,0.570599 1.172242,0.807224 0,0 0.530354,-0.240052 1.746936,-1.251577 1.488547,-1.236404 2.410754,-1.136242 3.499356,-0.954502 l 0.0085,-0.0085 c 0.208297,0.09451 0.41727,0.183653 0.629977,0.26298 l -0.0015,0.01073 c 0.899475,0.640365 1.621319,1.22232 1.799654,3.149054 0.1455,1.575179 0.350558,2.121254 0.350558,2.121254 0.593639,0.257265 1.399139,0.257647 1.399139,0.257647 0,0 0.807052,-2.17e-4 1.399657,-0.258525 0,0 0.20529,-0.544447 0.35037,-2.120121 0.17829,-1.926727 0.901417,-2.508127 1.799429,-3.149204 l -0.0015,-0.01072 c 0.21258,-0.0795 0.421882,-0.168862 0.629917,-0.263062 l 0.0085,0.0085 c 1.088737,-0.183225 2.010621,-0.282097 3.499123,0.954412 1.216642,1.010864 1.747792,1.251989 1.747792,1.251989 0.601927,-0.23793 1.171537,-0.807524 1.171537,-0.807524 0,0 0.570569,-0.57057 0.807262,-1.17231 0,0 -0.240075,-0.530392 -1.251817,-1.747041 -1.236569,-1.488412 -1.136347,-2.410747 -0.954352,-3.499161 l -0.0085,-0.0085 c 0.09451,-0.20829 0.183652,-0.41727 0.263025,-0.629872 h 0.01282 c 0.640372,-0.899212 1.222394,-1.621162 3.149203,-1.799497 1.575307,-0.145507 2.121427,-0.350647 2.121427,-0.350647 0.257175,-0.59364 0.257242,-1.399289 0.257242,-1.399289 0,0 -1.35e-4,-0.806685 -0.257865,-1.399845 0,0 -0.545175,-0.20508 -2.120654,-0.350242 -1.926914,-0.17808 -2.508381,-0.900502 -3.149421,-1.799309 h -0.0085 c -0.0795,-0.21258 -0.168015,-0.422025 -0.263047,-0.629887 l 0.0085,-0.0085 c -0.18279,-1.088392 -0.28221,-2.010622 0.954292,-3.499146 1.010879,-1.216642 1.252237,-1.747597 1.252237,-1.747597 -0.237503,-0.601695 -0.807622,-1.171822 -0.807622,-1.171822 0,0 -0.5706,-0.570547 -1.172332,-0.80724 z m -4.473935,16.374938 c -2.739794,2.739771 -7.181652,2.739816 -9.921453,4.5e-5 -2.739794,-2.739802 -2.739749,-7.181659 4.5e-5,-9.921453 2.739734,-2.739734 7.181591,-2.739771 9.921385,2.2e-5 2.739794,2.739772 2.739756,7.181652 2.3e-5,9.921386 z"
     style="display:inline;fill:#ffffff;fill-opacity:1;stroke:none;stroke-width:0.75;enable-background:new"
     id="path429"
     sodipodi:nodetypes="ccccccccccccccccccccccccccccccccccccccccccccccccccccccccccccccccccccccccccccscc" />
  <path
     id="rect2630"
     style="fill:#ffffff;fill-opacity:1;opacity:0.3"
     d="M 10,4 C 6.6760035,4 4.0000002,6.6760033 4.0000002,10 v 1 C 4.0000002,7.6760032 6.6760035,5 10,5 h 28 c 3.323997,0 6,2.6760032 6,6 V 10 C 44,6.6760033 41.323997,4 38,4 Z" />
  <path
     id="rect398"
     style="opacity:0.3;fill:#ffffff"
     d="m 4.0000001,37 v 1 c 0,3.323996 2.6760033,6 5.9999999,6 h 28 c 3.323997,0 6,-2.676004 6,-6 v -1 c 0,3.323996 -2.676003,6 -6,6 H 10 C 6.6760034,43 4.0000001,40.323996 4.0000001,37 Z" />
  <path
     id="rect899"
     style="opacity:0.5;fill:#000000;stroke:none"
     d="M 10,3 C 6.1220039,3 3,6.1220039 3,10 v 28 c 0,3.877996 3.1220039,7 7,7 h 28 c 3.877996,0 7,-3.122004 7,-7 V 10 C 45,6.1220039 41.877996,3 38,3 Z m 0,1 h 28 c 3.323997,0 6,2.6760033 6,6 v 28 c 0,3.323997 -2.676003,6 -6,6 H 10 C 6.6760033,44 4,41.323997 4,38 V 10 C 4,6.6760033 6.6760033,4 10,4 Z" />
</svg>
