<?xml version="1.0" encoding="UTF-8" standalone="no"?>
<!-- Created with Inkscape (http://www.inkscape.org/) -->

<svg
   width="48"
   height="48"
   viewBox="0 0 48 48.000002"
   version="1.1"
   id="svg5"
   sodipodi:docname="yast.svg"
   inkscape:version="1.2.1 (9c6d41e410, 2022-07-14)"
   xmlns:inkscape="http://www.inkscape.org/namespaces/inkscape"
   xmlns:sodipodi="http://sodipodi.sourceforge.net/DTD/sodipodi-0.dtd"
   xmlns:xlink="http://www.w3.org/1999/xlink"
   xmlns="http://www.w3.org/2000/svg"
   xmlns:svg="http://www.w3.org/2000/svg">
  <sodipodi:namedview
     id="namedview7"
     pagecolor="#ffffff"
     bordercolor="#666666"
     borderopacity="1.0"
     inkscape:showpageshadow="2"
     inkscape:pageopacity="0.0"
     inkscape:pagecheckerboard="0"
     inkscape:deskcolor="#d1d1d1"
     inkscape:document-units="px"
     showgrid="false"
     inkscape:zoom="6.0104076"
     inkscape:cx="54.987951"
     inkscape:cy="33.941125"
     inkscape:window-width="1920"
     inkscape:window-height="1002"
     inkscape:window-x="0"
     inkscape:window-y="0"
     inkscape:window-maximized="1"
     inkscape:current-layer="svg5" />
  <defs
     id="defs2">
    <linearGradient
       inkscape:collect="always"
       xlink:href="#linearGradient4246"
       id="linearGradient6478"
       x1="37.5"
       y1="44.5"
       x2="9.5"
       y2="2.5"
       gradientUnits="userSpaceOnUse"
       gradientTransform="translate(0.5,0.5)" />
    <linearGradient
       inkscape:collect="always"
       id="linearGradient4246">
      <stop
         style="stop-color:#23aea1;stop-opacity:1;"
         offset="0"
         id="stop4242" />
      <stop
         style="stop-color:#49c77c;stop-opacity:1;"
         offset="1"
         id="stop4244" />
    </linearGradient>
  </defs>
  <rect
     style="fill:url(#linearGradient6478);fill-opacity:1.0;stroke:none"
     id="rect184"
     width="41"
     height="41"
     x="3.5"
     y="3.5"
     ry="6.5" />
  <path
     d="m 14.564831,12.000003 1.193252,2.80166 2.917581,3.332782 c -0.945973,0.149377 -1.78739,0.403319 -2.58068,0.707054 -0.448093,0.215768 -0.876269,0.448131 -1.115254,0.921161 l -0.726905,1.287968 c -0.234005,0.47303 -0.730224,0.551225 -1.216488,0.934628 l -1.99152,1.555187 c 0.396642,0.192531 0.751799,0.444812 1.07874,0.743569 -0.351837,-0.194192 -0.693714,-0.398341 -1.103635,-0.506225 -0.285452,-0.04482 -0.567583,-0.04149 -0.828142,0.165975 -0.2340039,0.194192 -0.2074489,0.522821 -0.15932,0.829875 0.08961,0.474691 0.486262,0.896268 0.937673,1.214941 0.419882,0.187549 0.806569,0.09127 1.178319,-0.127804 0.32196,-0.298755 0.453069,-0.823236 0.413239,-1.540249 0.232341,-0.04315 0.180894,1.339419 0.222387,1.181744 0.02157,-0.08465 3.413801,-2.080753 4.311646,-2.291543 0.916098,-0.235682 2.345016,-0.01176 3.378949,-0.333797 0.642265,-0.205812 1.111932,-0.393937 1.510237,-1.006386 l -0.320305,0.680498 c -0.23948,0.387162 -0.614608,0.671197 -1.052186,0.79668 l -2.206627,6.127805 -0.01162,5.925312 -1.05274,1.493779 0.682095,-0.0232 0.726907,-0.960994 -0.534393,1.15021 c 0,0 3.496782,-0.234006 3.496782,-0.209115 0,0.02489 -1.078742,-7.087139 -1.078742,-7.087139 0,0 1.168361,-1.306223 1.193255,-1.324481 0.02489,-0.01991 5.394108,1.434024 5.394108,1.434024 l -0.65388,-0.77184 -0.537712,-0.297097 0.652225,0.21576 c 0,0 1.515216,1.835684 1.521853,1.862241 0.0066,0.02489 0.270518,-0.330289 0.270518,-0.330289 l -1.586578,6.439832 2.107691,0.718675 -0.06636,-0.984235 0.50452,1.22158 0.77503,0.05145 -0.524434,-1.273017 0.912783,1.108712 0.501197,-0.09956 -0.902822,-1.299577 1.05385,-6.273858 -1.214829,-0.95937 -0.940992,-1.261409 0.8912,0.907886 -0.965884,-1.375935 -0.07636,-1.817429 0.338559,1.565147 0.365107,-1.286309 -0.189194,1.502075 0.702008,1.540249 1.404026,1.045645 -0.02659,0.24068 1.665749,-0.404982 0.713629,-1.613276 0.0614,-0.999171 0.102886,1.01245 c 0,0 -0.614052,1.487135 -0.614052,1.538587 0,0.04979 0.801585,-0.758504 0.801585,-0.758504 l -0.879588,1.035682 1.405685,2.5361 0.476305,2.765147 0.350175,-0.250636 -0.07469,0.09956 -1.12853,1.473861 0.740182,-0.161001 0.28711,-0.454772 -0.126112,0.554359 0.263879,0.0133 -0.0614,0.605811 0.550989,-0.492947 0.41158,0.127762 0.127779,-0.735271 v 0.746888 l 0.386686,-0.07638 0.187515,0.630708 0.275503,-0.79502 0.539349,-0.02498 c -0.514405,-3.90371 -1.194846,-7.307454 -1.3774,-11.21119 -0.02,-0.74357 -0.643923,-0.938144 -1.316065,-1.797896 -0.785003,-0.904437 -2.388178,-2.838048 -4.66349,-3.380786 -1.241382,-0.147719 -2.505997,0.05312 -3.883467,0.502903 C 25.54142,21.107084 24.28344,19.922 22.91593,20.577601 c 0.321962,0.527801 0.74848,1.045644 1.475386,1.659752 0.227365,0.222407 0.637287,0.283817 1.04057,0.252282 -0.278813,0.09959 -0.565924,0.18257 -0.866312,0.02489 -0.489583,-0.331942 -0.892866,-0.746881 -1.277894,-1.185055 -0.234258,-0.290723 -0.432111,-0.608987 -0.589159,-0.947717 -0.232345,-0.527801 0.04149,-1.198341 0.489583,-1.918673 0.406603,-0.499586 0.854696,-0.987552 1.765817,-1.33776 0.819843,-0.326972 1.643005,-0.653942 2.421357,-1.085478 0.879588,-0.570954 2.28361,-2.390042 3.030433,-3.661411 -2.034673,0.746889 -4.067683,1.344398 -6.090737,2.5361 -0.756779,0.519502 -1.49862,1.324481 -2.2554,2.157678 -0.321964,0.365144 -0.670479,0.707054 -1.12853,0.949376 -0.628988,0.33693 -1.062144,0.01661 -1.352574,-0.240662 -0.450093,-0.487221 -0.848839,-1.019491 -1.189927,-1.588388 -0.448092,-0.614108 -0.917758,-1.229877 -1.604833,-1.843984 -0.789971,-0.733611 -1.501939,-1.580085 -2.218888,-2.348549 z m 12.87187,2.013278 -1.79237,2.175933 1.21649,-0.421576 -2.447914,1.2 z m -8.502141,4.542741 c 0.157664,-0.0034 0.315325,0 0.468009,0.01661 -0.990783,0.07635 -1.443853,0.247299 -2.303527,0.688792 0.315325,-0.240666 0.492902,-0.419916 1.060486,-0.614108 0.248939,-0.05476 0.512817,-0.0863 0.775032,-0.09127 z m 0.275492,1.367633 c 0.489583,0.0083 0.821505,0.224066 0.821505,0.224066 -1.085379,-0.292116 -1.681177,-0.0498 -2.145865,0.660581 -0.05476,-0.04482 0.308686,-0.66224 0.78997,-0.808298 0.192515,-0.05809 0.371751,-0.07967 0.534392,-0.07636 z m -0.08298,0.365147 c 0.102971,-0.0043 0.206086,0.0041 0.307026,0.0249 0.202472,0.07136 0.29541,0.222404 0.394986,0.365144 -0.21077,-0.185892 -0.428177,-0.33195 -0.692053,-0.263903 0.298727,0.0332 0.409921,0.220749 0.453072,0.466392 0.03651,0.330291 -0.247284,0.524481 -0.436478,0.552697 -0.189192,0.02823 -0.431494,-0.01991 -0.570902,-0.224065 -0.03985,-0.08299 -0.146047,-0.388383 0.02326,-0.60581 -0.184867,0.07522 -0.354652,0.183173 -0.5012,0.318672 0.127792,-0.185891 0.283792,-0.331951 0.519454,-0.487966 0.153354,-0.08885 0.325823,-0.139509 0.50286,-0.14772 z m -8.009233,4.010148 c 0.253918,0.300414 0.5012,0.589211 0.622351,0.987551 0.0166,0.368466 -0.146045,0.360167 -0.305366,0.358509 -0.132762,-0.0015 -0.385029,-0.152699 -0.303708,-0.275521 0.0785,-0.159488 0.11179,-0.33744 0.09627,-0.514523 z m -0.929376,0.09127 c 0.199151,0.209128 0.394984,0.348548 0.431495,0.640665 0.01497,0.06971 0.02823,0.242327 -0.109536,0.215769 -0.401624,-0.380083 -0.15932,-0.338589 -0.320303,-0.856433 z"
     style="opacity:0.2;fill:#000000;stroke-width:2.80012"
     id="path2340" />
  <path
     d="m 14.564831,11 1.193252,2.801659 2.917581,3.332782 c -0.945973,0.149376 -1.78739,0.403319 -2.580679,0.707053 -0.448094,0.215769 -0.876271,0.448132 -1.115254,0.921161 l -0.726905,1.287968 c -0.234006,0.47303 -0.730225,0.551226 -1.216488,0.934627 l -1.991521,1.555188 c 0.396642,0.192532 0.751798,0.444811 1.07874,0.743569 -0.351837,-0.194192 -0.693714,-0.398342 -1.103635,-0.506225 -0.285452,-0.04481 -0.567584,-0.04148 -0.828142,0.165974 -0.2340049,0.194193 -0.2074499,0.522822 -0.15932,0.829875 0.08961,0.474691 0.486263,0.896267 0.937675,1.21494 0.41988,0.18755 0.806567,0.09128 1.178317,-0.127804 0.321961,-0.298755 0.453069,-0.823237 0.413239,-1.540249 0.232342,-0.04315 0.180894,1.339418 0.222388,1.181743 0.02159,-0.08465 3.4138,-2.080752 4.311645,-2.291541 0.916098,-0.235684 2.345017,-0.01176 3.378949,-0.333797 0.642265,-0.205811 1.111932,-0.393937 1.510237,-1.006386 l -0.320304,0.680497 c -0.23948,0.387162 -0.614609,0.671198 -1.052187,0.796681 l -2.206627,6.127802 -0.01162,5.925309 -1.052739,1.49378 0.682095,-0.02324 0.726906,-0.960996 -0.534392,1.150209 c 0,0 3.496781,-0.234017 3.496781,-0.209122 0,0.02492 -1.078742,-7.087136 -1.078742,-7.087136 0,0 1.16836,-1.306223 1.193255,-1.324482 0.02489,-0.01991 5.394109,1.434025 5.394109,1.434025 l -0.653886,-0.771781 -0.537711,-0.297097 0.652225,0.215767 c 0,0 1.515216,1.835684 1.521854,1.862242 0.0066,0.02492 0.270518,-0.33029 0.270518,-0.33029 l -1.586578,6.43983 2.107693,0.718676 -0.06636,-0.984236 0.504519,1.221579 0.775032,0.05145 -0.524436,-1.273018 0.912782,1.108716 0.501198,-0.09958 -0.902822,-1.299586 1.053849,-6.273855 -1.214829,-0.959347 -0.940991,-1.26141 0.891201,0.907884 -0.965885,-1.375933 -0.07636,-1.817429 0.33856,1.565146 0.365108,-1.286308 -0.189196,1.502076 0.702012,1.540248 1.404023,1.045645 -0.0266,0.240682 1.665748,-0.404982 0.713629,-1.613276 0.0614,-0.99917 0.1029,1.012448 c 0,0 -0.614051,1.487136 -0.614051,1.538588 0,0.04978 0.801585,-0.758505 0.801585,-0.758505 l -0.879589,1.035684 1.405684,2.5361 0.476307,2.765144 0.350175,-0.250623 -0.0747,0.09958 -1.128529,1.47386 0.740182,-0.160987 0.287109,-0.454773 -0.126112,0.554358 0.263873,0.01316 -0.0614,0.605811 0.550988,-0.492947 0.411582,0.127775 0.127792,-0.735269 v 0.746888 l 0.386687,-0.07637 0.187516,0.630706 0.275492,-0.79502 L 38,35.637195 c -0.514406,-3.903709 -1.194844,-7.307451 -1.377398,-11.211188 -0.02,-0.743569 -0.643926,-0.938144 -1.316068,-1.797895 -0.785004,-0.904436 -2.388177,-2.838047 -4.663489,-3.380785 -1.241382,-0.147718 -2.505998,0.05313 -3.883468,0.502903 -1.218148,0.356849 -2.476128,-0.828234 -3.843638,-0.172634 0.321962,0.527801 0.748481,1.045644 1.475386,1.65975 0.227365,0.222409 0.637287,0.283818 1.040569,0.252285 -0.278812,0.09959 -0.565923,0.18257 -0.866311,0.02489 -0.489583,-0.331944 -0.892866,-0.746883 -1.277894,-1.185057 -0.234257,-0.290723 -0.432111,-0.608988 -0.589159,-0.947717 -0.232345,-0.527801 0.0415,-1.198341 0.489583,-1.918673 0.406603,-0.499586 0.854694,-0.987551 1.765817,-1.337759 0.819843,-0.326971 1.643005,-0.653942 2.421358,-1.085478 0.879588,-0.570954 2.28361,-2.390042 3.030433,-3.66141 -2.034673,0.746888 -4.067684,1.344398 -6.090738,2.5361 -0.756779,0.519501 -1.49862,1.32448 -2.2554,2.157676 -0.321963,0.365145 -0.670479,0.707055 -1.12853,0.949377 -0.628988,0.336929 -1.062143,0.0166 -1.352573,-0.240662 -0.450095,-0.487226 -0.84884,-1.019495 -1.189928,-1.588392 -0.448092,-0.614106 -0.917758,-1.229874 -1.604833,-1.843981 -0.789971,-0.733612 -1.50194,-1.580086 -2.218888,-2.348549 z m 12.871871,2.013278 -1.79237,2.175933 1.216489,-0.421577 -2.447914,1.200001 z m -8.502141,4.54274 c 0.157664,-0.0034 0.315325,0 0.468009,0.0166 -0.990783,0.07635 -1.443854,0.247299 -2.303528,0.688793 0.315325,-0.240666 0.492902,-0.419917 1.060486,-0.614109 0.248939,-0.05476 0.512817,-0.08631 0.775033,-0.09128 z m 0.275493,1.367633 c 0.489582,0.0083 0.821503,0.224066 0.821503,0.224066 -1.085379,-0.292116 -1.681177,-0.04978 -2.145865,0.66058 -0.05475,-0.04481 0.308686,-0.662239 0.789971,-0.808297 0.192514,-0.0581 0.37175,-0.07967 0.534391,-0.07637 z m -0.08298,0.365147 c 0.10297,-0.0043 0.206086,0.0041 0.307026,0.02489 0.202471,0.07137 0.295408,0.222405 0.394985,0.365145 -0.21077,-0.185892 -0.428178,-0.331951 -0.692054,-0.263902 0.298729,0.03319 0.409921,0.220747 0.453072,0.466391 0.03651,0.330291 -0.247283,0.524481 -0.436476,0.552697 -0.189195,0.02822 -0.431496,-0.01991 -0.570904,-0.224065 -0.03984,-0.08299 -0.146045,-0.388382 0.02324,-0.605811 -0.184867,0.07522 -0.354652,0.183175 -0.5012,0.318673 0.127792,-0.185892 0.283792,-0.33195 0.519455,-0.487966 0.153355,-0.08885 0.325822,-0.139509 0.50286,-0.147719 z m -8.009237,4.010145 c 0.253918,0.300415 0.5012,0.589212 0.622352,0.987551 0.0166,0.368466 -0.146047,0.360168 -0.305367,0.35851 -0.132762,-0.0015 -0.385029,-0.152699 -0.303707,-0.275521 0.0785,-0.159489 0.11179,-0.337441 0.09626,-0.514525 z m -0.929376,0.09128 c 0.19915,0.209128 0.394985,0.348547 0.431496,0.640662 0.01495,0.06972 0.02822,0.242327 -0.109536,0.21577 -0.401626,-0.380079 -0.159323,-0.338585 -0.320305,-0.856428 z"
     style="fill:#ffffff;stroke-width:2.80013"
     id="path2154"
     sodipodi:nodetypes="cccccccccccccccccccccccccccscccccccccccccccccccccccccccccccccsccccccccccccccccccccccccccccccccccccccccccccccccccccccccccccccccccccccccccccccccc" />
  <path
     id="rect2630"
     style="fill:#ffffff;fill-opacity:1;opacity:0.3"
     d="M 10,4 C 6.6760035,4 4.0000002,6.6760033 4.0000002,10 v 1 C 4.0000002,7.6760032 6.6760035,5 10,5 h 28 c 3.323997,0 6,2.6760032 6,6 V 10 C 44,6.6760033 41.323997,4 38,4 Z" />
  <path
     id="rect398"
     style="opacity:0.3;fill:#ffffff"
     d="m 4.0000001,37 v 1 c 0,3.323996 2.6760033,6 5.9999999,6 h 28 c 3.323997,0 6,-2.676004 6,-6 v -1 c 0,3.323996 -2.676003,6 -6,6 H 10 C 6.6760034,43 4.0000001,40.323996 4.0000001,37 Z" />
  <path
     id="rect899"
     style="opacity:0.5;fill:#000000;stroke:none"
     d="M 10,3 C 6.1220039,3 3,6.1220039 3,10 v 28 c 0,3.877996 3.1220039,7 7,7 h 28 c 3.877996,0 7,-3.122004 7,-7 V 10 C 45,6.1220039 41.877996,3 38,3 Z m 0,1 h 28 c 3.323997,0 6,2.6760033 6,6 v 28 c 0,3.323997 -2.676003,6 -6,6 H 10 C 6.6760033,44 4,41.323997 4,38 V 10 C 4,6.6760033 6.6760033,4 10,4 Z" />
</svg>
