<?xml version="1.0" encoding="UTF-8" standalone="no"?>
<!-- Created with Inkscape (http://www.inkscape.org/) -->

<svg
   width="48"
   height="48"
   viewBox="0 0 48 48.000002"
   version="1.1"
   id="svg5"
   sodipodi:docname="yast-sound.svg"
   inkscape:version="1.2.1 (9c6d41e410, 2022-07-14)"
   xmlns:inkscape="http://www.inkscape.org/namespaces/inkscape"
   xmlns:sodipodi="http://sodipodi.sourceforge.net/DTD/sodipodi-0.dtd"
   xmlns:xlink="http://www.w3.org/1999/xlink"
   xmlns="http://www.w3.org/2000/svg"
   xmlns:svg="http://www.w3.org/2000/svg">
  <sodipodi:namedview
     id="namedview7"
     pagecolor="#ffffff"
     bordercolor="#666666"
     borderopacity="1.0"
     inkscape:showpageshadow="2"
     inkscape:pageopacity="0.0"
     inkscape:pagecheckerboard="0"
     inkscape:deskcolor="#d1d1d1"
     inkscape:document-units="px"
     showgrid="false"
     inkscape:zoom="16.5625"
     inkscape:cx="24"
     inkscape:cy="24"
     inkscape:window-width="1920"
     inkscape:window-height="1007"
     inkscape:window-x="0"
     inkscape:window-y="0"
     inkscape:window-maximized="1"
     inkscape:current-layer="svg5" />
  <defs
     id="defs2">
    <linearGradient
       inkscape:collect="always"
       xlink:href="#linearGradient1227"
       id="linearGradient6478"
       x1="37.5"
       y1="44.5"
       x2="9.5"
       y2="2.5"
       gradientUnits="userSpaceOnUse"
       gradientTransform="translate(0.5,0.5)" />
    <linearGradient
       inkscape:collect="always"
       id="linearGradient1227">
      <stop
         style="stop-color:#565f76;stop-opacity:1;"
         offset="0"
         id="stop1223" />
      <stop
         style="stop-color:#a3a5b6;stop-opacity:1;"
         offset="1"
         id="stop1225" />
    </linearGradient>
  </defs>
  <rect
     style="fill:url(#linearGradient6478);fill-opacity:1.0;stroke:none"
     id="rect184"
     width="41"
     height="41"
     x="3.5"
     y="3.5"
     ry="6.5" />
  <path
     d="m 31.167968,14.003001 c -0.336308,0.02818 -0.650906,0.226794 -0.8125,0.550782 -0.24549,0.494066 -0.04448,1.09361 0.44922,1.339844 3.642216,1.821108 5.194692,5.4387 5.195312,9.10547 -6.2e-4,3.666768 -1.553096,7.28436 -5.195312,9.105468 -0.493696,0.246234 -0.69471,0.845776 -0.44922,1.339844 0.246234,0.493696 0.845776,0.69471 1.339844,0.44922 4.35776,-2.17888 6.303956,-6.561324 6.304688,-10.894532 -7.32e-4,-4.333208 -1.946928,-8.715654 -6.304688,-10.894532 -0.12352,-0.06138 -0.25328,-0.0936 -0.382812,-0.10156 -0.04858,-0.003 -0.09648,-0.004 -0.14454,0 z M 23,14 16,20.000001 h -4 c -1.107996,0 -2,0.892002 -2,1.999998 V 28 c 0,1.107996 0.892004,2 2,2 h 4 l 7,6.000183 z m 5.148438,5.010815 c -0.42858,-0.06412 -0.849684,0.15512 -1.04297,0.542968 -0.24549,0.494068 -0.04448,1.09361 0.44922,1.339844 C 29.19691,21.714739 30,23.332433 30,24.999097 c 0,1.666662 -0.80309,3.284358 -2.445312,4.105468 -0.493696,0.246234 -0.69471,0.845776 -0.44922,1.339844 0.246234,0.493696 0.845776,0.694708 1.339844,0.44922 C 30.803078,29.714743 32,27.332423 32,24.999097 c 0,-2.333326 -1.196922,-4.71565 -3.554688,-5.894532 -0.09346,-0.04656 -0.19362,-0.07818 -0.296874,-0.09374 z"
     style="opacity:0.2;fill:#000000;stroke-width:2"
     id="path10922"
     sodipodi:nodetypes="ccccccccccccccssssccccccscccsccc" />
  <path
     id="path8054"
     style="fill:#ffffff;stroke-width:2"
     d="m 31.167968,13.002636 c -0.336308,0.02818 -0.650906,0.226794 -0.8125,0.550782 -0.24549,0.494066 -0.04448,1.093608 0.44922,1.339842 3.642216,1.82111 5.194692,5.438702 5.195312,9.10547 -6.2e-4,3.666768 -1.553096,7.28436 -5.195312,9.105468 -0.493696,0.246234 -0.69471,0.845776 -0.44922,1.339844 0.246234,0.493696 0.845776,0.69471 1.339844,0.44922 4.35776,-2.17888 6.303956,-6.561324 6.304688,-10.894532 -7.32e-4,-4.333208 -1.946928,-8.715652 -6.304688,-10.894532 -0.12352,-0.06138 -0.25328,-0.0936 -0.382812,-0.10156 -0.04858,-0.003 -0.09648,-0.004 -0.14454,0 z M 23,13 16,19 h -4 c -1.107996,0 -2,0.892004 -2,2 v 6 c 0,1.107996 0.892004,2 2,2 h 4 l 7,5.999817 z m 5.148438,5.010448 c -0.42858,-0.06412 -0.849684,0.15512 -1.04297,0.54297 -0.24549,0.494066 -0.04448,1.093608 0.44922,1.339844 C 29.19691,20.714372 30,22.332068 30,23.99873 c 0,1.666662 -0.80309,3.284358 -2.445312,4.105468 -0.493696,0.246234 -0.69471,0.845776 -0.44922,1.339844 0.246234,0.493696 0.845776,0.69471 1.339844,0.44922 C 30.803078,28.714376 32,26.332056 32,23.99873 c 0,-2.333326 -1.196922,-4.71565 -3.554688,-5.894532 -0.09346,-0.04656 -0.19362,-0.07818 -0.296874,-0.09374 z"
     sodipodi:nodetypes="cccccccccssccssssccccccscccscccc" />
  <path
     id="rect2630"
     style="fill:#ffffff;fill-opacity:1;opacity:0.3"
     d="M 10,4 C 6.6760035,4 4.0000002,6.6760033 4.0000002,10 v 1 C 4.0000002,7.6760032 6.6760035,5 10,5 h 28 c 3.323997,0 6,2.6760032 6,6 V 10 C 44,6.6760033 41.323997,4 38,4 Z" />
  <path
     id="rect398"
     style="opacity:0.3;fill:#ffffff"
     d="m 4.0000001,37 v 1 c 0,3.323996 2.6760033,6 5.9999999,6 h 28 c 3.323997,0 6,-2.676004 6,-6 v -1 c 0,3.323996 -2.676003,6 -6,6 H 10 C 6.6760034,43 4.0000001,40.323996 4.0000001,37 Z" />
  <path
     id="rect899"
     style="opacity:0.5;fill:#000000;stroke:none"
     d="M 10,3 C 6.1220039,3 3,6.1220039 3,10 v 28 c 0,3.877996 3.1220039,7 7,7 h 28 c 3.877996,0 7,-3.122004 7,-7 V 10 C 45,6.1220039 41.877996,3 38,3 Z m 0,1 h 28 c 3.323997,0 6,2.6760033 6,6 v 28 c 0,3.323997 -2.676003,6 -6,6 H 10 C 6.6760033,44 4,41.323997 4,38 V 10 C 4,6.6760033 6.6760033,4 10,4 Z" />
</svg>
