<?xml version="1.0" encoding="UTF-8" standalone="no"?>
<!-- Created with Inkscape (http://www.inkscape.org/) -->

<svg
   width="48"
   height="48"
   viewBox="0 0 48 48.000002"
   version="1.1"
   id="svg5"
   sodipodi:docname="youtube.svg"
   inkscape:version="1.2.1 (9c6d41e410, 2022-07-14)"
   xmlns:inkscape="http://www.inkscape.org/namespaces/inkscape"
   xmlns:sodipodi="http://sodipodi.sourceforge.net/DTD/sodipodi-0.dtd"
   xmlns:xlink="http://www.w3.org/1999/xlink"
   xmlns="http://www.w3.org/2000/svg"
   xmlns:svg="http://www.w3.org/2000/svg">
  <sodipodi:namedview
     id="namedview7"
     pagecolor="#ffffff"
     bordercolor="#666666"
     borderopacity="1.0"
     inkscape:showpageshadow="2"
     inkscape:pageopacity="0.0"
     inkscape:pagecheckerboard="0"
     inkscape:deskcolor="#d1d1d1"
     inkscape:document-units="px"
     showgrid="false"
     inkscape:zoom="18.857143"
     inkscape:cx="23.996212"
     inkscape:cy="24.022727"
     inkscape:window-width="1920"
     inkscape:window-height="1007"
     inkscape:window-x="0"
     inkscape:window-y="0"
     inkscape:window-maximized="1"
     inkscape:current-layer="svg5" />
  <defs
     id="defs2">
    <linearGradient
       inkscape:collect="always"
       xlink:href="#linearGradient2538"
       id="linearGradient6478"
       x1="37.5"
       y1="44.5"
       x2="9.5"
       y2="2.5"
       gradientUnits="userSpaceOnUse"
       gradientTransform="translate(0.5,0.5)" />
    <linearGradient
       inkscape:collect="always"
       id="linearGradient2538">
      <stop
         style="stop-color:#e02727;stop-opacity:1;"
         offset="0"
         id="stop2534" />
      <stop
         style="stop-color:#eb8075;stop-opacity:1;"
         offset="1"
         id="stop2536" />
    </linearGradient>
  </defs>
  <rect
     style="fill:url(#linearGradient6478);fill-opacity:1.0;stroke:none"
     id="rect184"
     width="41"
     height="41"
     x="3.5"
     y="3.5"
     ry="6.5" />
  <path
     id="path1893"
     style="opacity:0.2;fill:#000000;stroke-width:0.218797"
     d="M 24 16 C 24 16 16.12997 16.001841 13.982422 16.53125 C 12.829526 16.82772 11.880933 17.713282 11.564453 18.814453 C 10.999308 20.826212 11 25 11 25 C 11 25 10.999308 29.194963 11.564453 31.185547 C 11.880935 32.286718 12.806922 33.152755 13.982422 33.449219 C 16.152575 33.99981 24 34 24 34 C 24 34 31.868076 33.998161 34.015625 33.46875 C 35.191128 33.172278 36.117111 32.306248 36.433594 31.205078 C 36.998739 29.193317 37 25.021484 37 25.021484 C 37 25.021484 37.021117 20.826212 36.433594 18.814453 C 36.117111 17.713282 35.191128 16.847248 34.015625 16.550781 C 31.868076 16.000195 24.000001 16 24 16 z M 21 21 L 28 25 L 21 29 L 21 21 z " />
  <path
     id="path1633"
     style="fill:#ffffff;stroke-width:0.218796"
     d="m 24,15 c 0,0 -7.870029,0.0018 -10.017578,0.53125 -1.152895,0.296471 -2.101489,1.183984 -2.417969,2.285156 C 10.999308,19.828164 11,24 11,24 c 0,0 -6.92e-4,4.194963 0.564453,6.185547 0.316482,1.101171 1.242469,1.967206 2.417969,2.263672 C 16.152575,32.99981 24,33 24,33 c 0,0 7.868075,-0.0018 10.015625,-0.53125 1.175502,-0.296472 2.101487,-1.1625 2.417969,-2.263672 C 36.998739,28.193318 37,24.021484 37,24.021484 c 0,0 0.02112,-4.19332 -0.566406,-6.205078 C 36.117111,16.715234 35.191127,15.84725 34.015625,15.550781 31.868075,15.000195 24,15 24,15 Z m -3,5 7,4 -7,4 z"
     sodipodi:nodetypes="ccccccccccccccccc" />
  <path
     id="rect2630"
     style="fill:#ffffff;fill-opacity:1;opacity:0.3"
     d="M 10,4 C 6.6760035,4 4.0000002,6.6760033 4.0000002,10 v 1 C 4.0000002,7.6760032 6.6760035,5 10,5 h 28 c 3.323997,0 6,2.6760032 6,6 V 10 C 44,6.6760033 41.323997,4 38,4 Z" />
  <path
     id="rect398"
     style="opacity:0.3;fill:#ffffff"
     d="m 4.0000001,37 v 1 c 0,3.323996 2.6760033,6 5.9999999,6 h 28 c 3.323997,0 6,-2.676004 6,-6 v -1 c 0,3.323996 -2.676003,6 -6,6 H 10 C 6.6760034,43 4.0000001,40.323996 4.0000001,37 Z" />
  <path
     id="rect899"
     style="opacity:0.5;fill:#000000;stroke:none"
     d="M 10,3 C 6.1220039,3 3,6.1220039 3,10 v 28 c 0,3.877996 3.1220039,7 7,7 h 28 c 3.877996,0 7,-3.122004 7,-7 V 10 C 45,6.1220039 41.877996,3 38,3 Z m 0,1 h 28 c 3.323997,0 6,2.6760033 6,6 v 28 c 0,3.323997 -2.676003,6 -6,6 H 10 C 6.6760033,44 4,41.323997 4,38 V 10 C 4,6.6760033 6.6760033,4 10,4 Z" />
</svg>
