<?xml version="1.0" encoding="UTF-8" standalone="no"?>
<!-- Created with Inkscape (http://www.inkscape.org/) -->

<svg
   width="64"
   height="64"
   viewBox="0 0 64 64"
   version="1.1"
   id="svg5"
   inkscape:version="1.2.1 (9c6d41e410, 2022-07-14)"
   sodipodi:docname="folder-blue-games-open.svg"
   xmlns:inkscape="http://www.inkscape.org/namespaces/inkscape"
   xmlns:sodipodi="http://sodipodi.sourceforge.net/DTD/sodipodi-0.dtd"
   xmlns:xlink="http://www.w3.org/1999/xlink"
   xmlns="http://www.w3.org/2000/svg"
   xmlns:svg="http://www.w3.org/2000/svg">
  <sodipodi:namedview
     id="namedview7"
     pagecolor="#ffffff"
     bordercolor="#000000"
     borderopacity="0.25"
     inkscape:showpageshadow="2"
     inkscape:pageopacity="0.0"
     inkscape:pagecheckerboard="0"
     inkscape:deskcolor="#d1d1d1"
     inkscape:document-units="px"
     showgrid="false"
     inkscape:zoom="6.265625"
     inkscape:cx="26.892768"
     inkscape:cy="18.274314"
     inkscape:window-width="1920"
     inkscape:window-height="1007"
     inkscape:window-x="0"
     inkscape:window-y="0"
     inkscape:window-maximized="1"
     inkscape:current-layer="svg5" />
  <defs
     id="defs2">
    <linearGradient
       inkscape:collect="always"
       id="linearGradient3155">
      <stop
         style="stop-color:#2c89b7;stop-opacity:1;"
         offset="0"
         id="stop3151" />
      <stop
         style="stop-color:#2077a5;stop-opacity:1;"
         offset="1"
         id="stop3153" />
    </linearGradient>
    <linearGradient
       inkscape:collect="always"
       id="linearGradient3147">
      <stop
         style="stop-color:#36aded;stop-opacity:1;"
         offset="0"
         id="stop3143" />
      <stop
         style="stop-color:#30c7f3;stop-opacity:1;"
         offset="1"
         id="stop3145" />
    </linearGradient>
    <linearGradient
       inkscape:collect="always"
       xlink:href="#linearGradient3147"
       id="linearGradient3149"
       x1="56"
       y1="55"
       x2="32"
       y2="19"
       gradientUnits="userSpaceOnUse"
       gradientTransform="translate(0,1)" />
    <linearGradient
       inkscape:collect="always"
       xlink:href="#linearGradient3155"
       id="linearGradient3157"
       x1="16"
       y1="7"
       x2="16"
       y2="32"
       gradientUnits="userSpaceOnUse"
       gradientTransform="translate(0,1)" />
  </defs>
  <path
     d="M 8,9 C 5.784002,9 4,10.784002 4,13 v 40 c 0,2.215998 1.784002,4 4,4 h 48 c 2.215998,0 4,-1.784002 4,-4 V 19 c 0,-2.215998 -1.784002,-4 -4,-4 H 32 L 28,11 C 26.64145,9.6798078 26.215998,9 24,9 Z"
     style="opacity:0.3;fill:#000000;stroke-width:2"
     id="path1016"
     sodipodi:nodetypes="ssssssssccss" />
  <path
     id="rect184"
     style="fill:url(#linearGradient3157);fill-opacity:1;stroke-width:2"
     d="M 8,8 C 5.7840022,8 4,9.7840016 4,12 v 40 c 0,2.215998 1.7840022,4 4,4 h 48 c 2.215998,0 4,-1.784002 4,-4 V 18 c 0,-2.215998 -1.784002,-4 -4,-4 H 32 L 28,10 C 26.622618,8.7413292 26.215998,8 24,8 Z"
     sodipodi:nodetypes="sccsssssccss" />
  <path
     id="rect1043"
     style="fill:url(#linearGradient3149);fill-opacity:1;stroke-width:2"
     d="m 32,20 -4,4 c -1.333612,1.227952 -1.784004,2 -4,2 H 8 c -2.2091368,0 -4,1.790862 -4,4 v 22 c 0,2.215994 1.7840066,4 4,4 h 48 c 2.215994,0 4,-1.784006 4,-4 V 24 c 0,-2.215994 -1.784006,-4 -4,-4 z"
     sodipodi:nodetypes="ccsssssssssc" />
  <path
     id="path3081"
     style="opacity:0.2;fill:#ffffff;stroke-width:2"
     d="m 32,20 -4,4 c -1.33361,1.227951 -1.784005,2 -4,2 H 8 c -2.2091346,0 -4,1.790864 -4,4 v 1 c 0,-2.209136 1.7908654,-4 4,-4 h 16 c 2.215994,0 2.666389,-0.77205 4,-2 l 4,-4 h 24 c 2.215992,0 4,1.784008 4,4 v -1 c 0,-2.215992 -1.784008,-4 -4,-4 z" />
  <path
     id="path1905"
     style="color:#727272;opacity:0.6;fill:#ffffff;stroke:none;stroke-width:2"
     d="m 37.826157,32 c -0.331363,0.0013 -0.637033,0.106781 -0.925781,0.306641 -0.728726,0.508997 -2.23884,1.039062 -4.892579,1.039062 -2.667377,0 -4.179455,-0.530076 -4.908203,-1.039062 -0.288737,-0.199871 -0.564532,-0.292969 -0.894531,-0.292969 -0.329988,0 -0.71652,0.09312 -1.115234,0.292969 -1.416244,0.735507 -2.734223,3.109072 -3.449219,6.207031 -0.604975,2.643532 -0.826238,6.235955 -0.46875,7.68164 C 21.488098,47.450508 22.039343,48 23.01561,48 c 1.429995,-0.02665 3.229771,-1.580519 4.384766,-3.677734 0.824974,-1.161922 2.75118,-1.683484 4.607421,-1.628907 1.842493,-0.06662 3.768864,0.466975 4.59375,1.628907 1.154995,2.097215 2.954803,3.651085 4.398438,3.677734 0.962473,0 1.511876,-0.549535 1.828125,-1.804688 0.357488,-1.445685 0.136236,-5.038108 -0.46875,-7.68164 -0.714974,-3.097959 -2.032975,-5.470936 -3.449219,-6.205078 -0.391861,-0.207867 -0.751246,-0.309306 -1.083984,-0.306641 z m -0.002,1.001953 h 0.01172 c 0.124141,-9.94e-4 0.31726,0.03657 0.605468,0.189453 l 0.0039,0.002 0.0039,0.002 c 0.859498,0.445542 2.257991,2.598689 2.9375,5.542969 h -0.002 c 0.286404,1.251473 0.489522,2.770374 0.572265,4.126953 0.08264,1.354868 0.02104,2.595511 -0.09961,3.085938 -0.133026,0.527962 -0.299429,0.800462 -0.40625,0.90625 -0.104453,0.103443 -0.167254,0.137061 -0.441406,0.138672 -0.371749,-0.0092 -1.013228,-0.264731 -1.673828,-0.822266 -0.663695,-0.560144 -1.337423,-1.386237 -1.859376,-2.333984 l -0.02734,-0.04883 -0.0332,-0.04687 c -1.160399,-1.634534 -3.361501,-2.113009 -5.41211,-2.044922 -2.053861,-0.05467 -4.255914,0.408242 -5.417968,2.044922 l -0.0332,0.04687 -0.02734,0.04883 c -0.521875,0.947606 -1.196475,1.773515 -1.859375,2.333984 -0.659794,0.557844 -1.300307,0.813218 -1.66211,0.822266 -0.281073,-0.0019 -0.352726,-0.03792 -0.457031,-0.140625 -0.106999,-0.105355 -0.271273,-0.376308 -0.404297,-0.904297 -0.120651,-0.490424 -0.182248,-1.731069 -0.09961,-3.085938 0.08274,-1.356579 0.285865,-2.875477 0.572265,-4.126953 h -0.002 c 0.67836,-2.939213 2.070717,-5.087037 2.931641,-5.539062 0.275737,-0.13687 0.519882,-0.185547 0.660156,-0.185547 0.141588,0 0.162042,0.0016 0.326172,0.115234 0.994313,0.6932 2.679371,1.216797 5.476562,1.216797 2.786959,0 4.471906,-0.525205 5.464844,-1.21875 0.145977,-0.100211 0.234002,-0.123803 0.351563,-0.125 z M 25.999985,35 v 2 h -2 v 2 h 2 v 2 h 2 v -2 h 2 v -2 h -2 v -2 z m 11,0 c -0.552283,0 -1,0.447717 -1,1 0,0.552283 0.447717,1 1,1 0.552283,0 1,-0.447717 1,-1 0,-0.552283 -0.447717,-1 -1,-1 z m -2,2 c -0.552283,0 -1,0.447717 -1,1 0,0.552283 0.447717,1 1,1 0.552283,0 1,-0.447717 1,-1 0,-0.552283 -0.447717,-1 -1,-1 z m 4,0 c -0.552283,0 -1,0.447717 -1,1 0,0.552283 0.447717,1 1,1 0.552283,0 1,-0.447717 1,-1 0,-0.552283 -0.447717,-1 -1,-1 z m -2,2 c -0.552283,0 -1,0.447717 -1,1 0,0.552283 0.447717,1 1,1 0.552283,0 1,-0.447717 1,-1 0,-0.552283 -0.447717,-1 -1,-1 z" />
</svg>
