<?xml version="1.0" encoding="UTF-8" standalone="no"?>
<!-- Created with Inkscape (http://www.inkscape.org/) -->

<svg
   width="64"
   height="64"
   viewBox="0 0 64 64"
   version="1.1"
   id="svg5"
   inkscape:version="1.2.1 (9c6d41e410, 2022-07-14)"
   sodipodi:docname="folder-blue-games.svg"
   xmlns:inkscape="http://www.inkscape.org/namespaces/inkscape"
   xmlns:sodipodi="http://sodipodi.sourceforge.net/DTD/sodipodi-0.dtd"
   xmlns:xlink="http://www.w3.org/1999/xlink"
   xmlns="http://www.w3.org/2000/svg"
   xmlns:svg="http://www.w3.org/2000/svg">
  <sodipodi:namedview
     id="namedview7"
     pagecolor="#ffffff"
     bordercolor="#000000"
     borderopacity="0.25"
     inkscape:showpageshadow="2"
     inkscape:pageopacity="0.0"
     inkscape:pagecheckerboard="0"
     inkscape:deskcolor="#d1d1d1"
     inkscape:document-units="px"
     showgrid="false"
     inkscape:zoom="12.421875"
     inkscape:cx="31.959748"
     inkscape:cy="32"
     inkscape:window-width="1920"
     inkscape:window-height="1007"
     inkscape:window-x="0"
     inkscape:window-y="0"
     inkscape:window-maximized="1"
     inkscape:current-layer="svg5" />
  <defs
     id="defs2">
    <linearGradient
       inkscape:collect="always"
       id="linearGradient3155">
      <stop
         style="stop-color:#2c89b7;stop-opacity:1;"
         offset="0"
         id="stop3151" />
      <stop
         style="stop-color:#2077a5;stop-opacity:1;"
         offset="1"
         id="stop3153" />
    </linearGradient>
    <linearGradient
       inkscape:collect="always"
       id="linearGradient3147">
      <stop
         style="stop-color:#36aded;stop-opacity:1;"
         offset="0"
         id="stop3143" />
      <stop
         style="stop-color:#30c7f3;stop-opacity:1;"
         offset="1"
         id="stop3145" />
    </linearGradient>
    <linearGradient
       inkscape:collect="always"
       xlink:href="#linearGradient3147"
       id="linearGradient3149"
       x1="56"
       y1="55"
       x2="32"
       y2="13"
       gradientUnits="userSpaceOnUse"
       gradientTransform="translate(0,1)" />
    <linearGradient
       inkscape:collect="always"
       xlink:href="#linearGradient3155"
       id="linearGradient3157"
       x1="16"
       y1="7"
       x2="16"
       y2="24"
       gradientUnits="userSpaceOnUse"
       gradientTransform="translate(0,1)" />
  </defs>
  <path
     d="M 8,9 C 5.784002,9 4,10.784002 4,13 v 40 c 0,2.215998 1.784002,4 4,4 h 48 c 2.215998,0 4,-1.784002 4,-4 V 19 c 0,-2.215998 -1.784002,-4 -4,-4 H 32 L 28,11 C 26.64145,9.6798078 26.215998,9 24,9 Z"
     style="opacity:0.3;fill:#000000;stroke-width:2"
     id="path1016"
     sodipodi:nodetypes="ssssssssccss" />
  <path
     id="rect184"
     style="fill:url(#linearGradient3157);fill-opacity:1;stroke-width:2"
     d="M 8,8 C 5.7840022,8 4,9.7840016 4,12 v 40 c 0,2.215998 1.7840022,4 4,4 h 48 c 2.215998,0 4,-1.784002 4,-4 V 18 c 0,-2.215998 -1.784002,-4 -4,-4 H 32 L 28,10 C 26.622618,8.7413292 26.215998,8 24,8 Z"
     sodipodi:nodetypes="sccsssssccss" />
  <path
     id="rect1043"
     style="fill:url(#linearGradient3149);fill-opacity:1;stroke-width:2"
     d="m 32,14 -4,4 c -1.333612,1.227952 -1.784004,2 -4,2 H 8 c -2.2091368,0 -4,1.790862 -4,4 v 28 c 0,2.215994 1.7840066,4 4,4 h 48 c 2.215994,0 4,-1.784006 4,-4 V 18 c 0,-2.215994 -1.784006,-4 -4,-4 z"
     sodipodi:nodetypes="ccsssssssssc" />
  <path
     id="path3081"
     style="opacity:0.2;fill:#ffffff;stroke-width:2"
     d="m 32,14 -4,4 c -1.33361,1.227951 -1.784005,2 -4,2 H 8 c -2.2091346,0 -4,1.790864 -4,4 v 1 c 0,-2.209136 1.7908654,-4 4,-4 h 16 c 2.215994,0 2.666389,-0.77205 4,-2 l 4,-4 h 24 c 2.215992,0 4,1.784008 4,4 v -1 c 0,-2.215992 -1.784008,-4 -4,-4 z" />
  <path
     id="path1905"
     style="color:#727272;opacity:0.6;fill:#ffffff;stroke:none;stroke-width:2"
     d="M 37.826172 29 C 37.494809 29.0013 37.189139 29.106781 36.900391 29.306641 C 36.171665 29.815638 34.661551 30.345703 32.007812 30.345703 C 29.340435 30.345703 27.828357 29.815627 27.099609 29.306641 C 26.810872 29.10677 26.535077 29.013672 26.205078 29.013672 C 25.87509 29.013672 25.488558 29.106792 25.089844 29.306641 C 23.6736 30.042148 22.355621 32.415713 21.640625 35.513672 C 21.03565 38.157204 20.814387 41.749627 21.171875 43.195312 C 21.488113 44.450508 22.039358 45 23.015625 45 C 24.44562 44.97335 26.245396 43.419481 27.400391 41.322266 C 28.225365 40.160344 30.151571 39.638782 32.007812 39.693359 C 33.850305 39.626739 35.776676 40.160334 36.601562 41.322266 C 37.756557 43.419481 39.556365 44.973351 41 45 C 41.962473 45 42.511876 44.450465 42.828125 43.195312 C 43.185613 41.749627 42.964361 38.157204 42.359375 35.513672 C 41.644401 32.415713 40.3264 30.042736 38.910156 29.308594 C 38.518295 29.100727 38.15891 28.999288 37.826172 29.001953 L 37.826172 29 z M 37.824219 30.001953 L 37.835938 30.001953 C 37.960079 30.000959 38.153198 30.038523 38.441406 30.191406 L 38.445312 30.193359 L 38.449219 30.195312 C 39.308717 30.640854 40.70721 32.794001 41.386719 35.738281 L 41.384766 35.738281 C 41.67117 36.989754 41.874288 38.508655 41.957031 39.865234 C 42.039671 41.220102 41.978072 42.460745 41.857422 42.951172 C 41.724396 43.479134 41.557993 43.751634 41.451172 43.857422 C 41.346719 43.960865 41.283918 43.994483 41.009766 43.996094 C 40.638017 43.986894 39.996538 43.731363 39.335938 43.173828 C 38.672243 42.613684 37.998515 41.787591 37.476562 40.839844 L 37.449219 40.791016 L 37.416016 40.744141 C 36.255617 39.109607 34.054515 38.631132 32.003906 38.699219 C 29.950045 38.644549 27.747992 39.107461 26.585938 40.744141 L 26.552734 40.791016 L 26.525391 40.839844 C 26.003516 41.78745 25.328916 42.613359 24.666016 43.173828 C 24.006222 43.731672 23.365709 43.987046 23.003906 43.996094 C 22.722833 43.994194 22.65118 43.958174 22.546875 43.855469 C 22.439876 43.750114 22.275602 43.479161 22.142578 42.951172 C 22.021927 42.460748 21.96033 41.220103 22.042969 39.865234 C 22.125709 38.508655 22.328834 36.989757 22.615234 35.738281 L 22.613281 35.738281 C 23.291641 32.799068 24.683998 30.651244 25.544922 30.199219 C 25.820659 30.062349 26.064804 30.013672 26.205078 30.013672 C 26.346666 30.013672 26.36712 30.015272 26.53125 30.128906 C 27.525563 30.822106 29.210621 31.345703 32.007812 31.345703 C 34.794771 31.345703 36.479718 30.820498 37.472656 30.126953 C 37.618633 30.026742 37.706658 30.00315 37.824219 30.001953 z M 26 32 L 26 34 L 24 34 L 24 36 L 26 36 L 26 38 L 28 38 L 28 36 L 30 36 L 30 34 L 28 34 L 28 32 L 26 32 z M 37 32 C 36.447717 32 36 32.447717 36 33 C 36 33.552283 36.447717 34 37 34 C 37.552283 34 38 33.552283 38 33 C 38 32.447717 37.552283 32 37 32 z M 35 34 C 34.447717 34 34 34.447717 34 35 C 34 35.552283 34.447717 36 35 36 C 35.552283 36 36 35.552283 36 35 C 36 34.447717 35.552283 34 35 34 z M 39 34 C 38.447717 34 38 34.447717 38 35 C 38 35.552283 38.447717 36 39 36 C 39.552283 36 40 35.552283 40 35 C 40 34.447717 39.552283 34 39 34 z M 37 36 C 36.447717 36 36 36.447717 36 37 C 36 37.552283 36.447717 38 37 38 C 37.552283 38 38 37.552283 38 37 C 38 36.447717 37.552283 36 37 36 z " />
</svg>
