<?xml version="1.0" encoding="UTF-8" standalone="no"?>
<svg
   version="1.1"
   viewBox="0 0 64 64"
   id="svg71"
   sodipodi:docname="user-trash-full.svg"
   inkscape:version="1.2.1 (9c6d41e410, 2022-07-14)"
   xmlns:inkscape="http://www.inkscape.org/namespaces/inkscape"
   xmlns:sodipodi="http://sodipodi.sourceforge.net/DTD/sodipodi-0.dtd"
   xmlns:xlink="http://www.w3.org/1999/xlink"
   xmlns="http://www.w3.org/2000/svg"
   xmlns:svg="http://www.w3.org/2000/svg"
   xmlns:rdf="http://www.w3.org/1999/02/22-rdf-syntax-ns#"
   xmlns:cc="http://creativecommons.org/ns#"
   xmlns:dc="http://purl.org/dc/elements/1.1/">
  <metadata
     id="metadata75">
    <rdf:RDF>
      <cc:Work
         rdf:about="">
        <dc:format>image/svg+xml</dc:format>
        <dc:type
           rdf:resource="http://purl.org/dc/dcmitype/StillImage" />
      </cc:Work>
    </rdf:RDF>
  </metadata>
  <sodipodi:namedview
     pagecolor="#ffffff"
     bordercolor="#666666"
     borderopacity="1"
     objecttolerance="10"
     gridtolerance="10"
     guidetolerance="10"
     inkscape:pageopacity="0"
     inkscape:pageshadow="2"
     inkscape:window-width="1920"
     inkscape:window-height="1012"
     id="namedview73"
     showgrid="true"
     inkscape:zoom="4.4304659"
     inkscape:cx="59.135993"
     inkscape:cy="30.019416"
     inkscape:window-x="0"
     inkscape:window-y="0"
     inkscape:window-maximized="1"
     inkscape:current-layer="svg71"
     inkscape:pagecheckerboard="0"
     inkscape:showpageshadow="2"
     inkscape:deskcolor="#d1d1d1" />
  <defs
     id="defs12">
    <linearGradient
       inkscape:collect="always"
       id="linearGradient4644">
      <stop
         style="stop-color:#8b6039;stop-opacity:1;"
         offset="0"
         id="stop4640" />
      <stop
         style="stop-color:#d4b394;stop-opacity:1"
         offset="1"
         id="stop4642" />
    </linearGradient>
    <linearGradient
       inkscape:collect="always"
       id="linearGradient2001">
      <stop
         style="stop-color:#a7afb4;stop-opacity:1;"
         offset="0"
         id="stop1997" />
      <stop
         style="stop-color:#c2ced4;stop-opacity:1"
         offset="1"
         id="stop1999" />
    </linearGradient>
    <linearGradient
       inkscape:collect="always"
       xlink:href="#linearGradient2001"
       id="linearGradient2003"
       x1="30"
       y1="65"
       x2="10"
       y2="0"
       gradientUnits="userSpaceOnUse"
       gradientTransform="translate(-3)" />
    <linearGradient
       inkscape:collect="always"
       xlink:href="#linearGradient4644"
       id="linearGradient4646"
       x1="30"
       y1="27.121737"
       x2="20"
       y2="5"
       gradientUnits="userSpaceOnUse" />
  </defs>
  <path
     id="rect859"
     style="fill:url(#linearGradient4646);fill-opacity:1"
     d="M 11,15 17,9 26,15 33,5 48,15 17,27 11,16 Z"
     sodipodi:nodetypes="cccccccc" />
  <path
     id="path45"
     style="fill:url(#linearGradient2003);fill-opacity:1"
     d="M 9,15 V 56.166016 C 9,57.18168 9.892,58 11,58 h 36 c 1.108,0 2,-0.81832 2,-1.833984 V 15 Z"
     sodipodi:nodetypes="csssscc" />
  <path
     d="m 9,55.166016 v 1 C 9,57.18168 9.892,58 11,58 h 36 c 1.108,0 2,-0.81832 2,-1.833984 v -1 C 49,56.18168 48.108,57 47,57 H 11 C 9.892,57 9,56.18168 9,55.166016 Z"
     opacity="0.2"
     stroke-width="1.91485"
     id="path69" />
  <path
     id="rect965"
     style="fill:#000000;fill-opacity:1;opacity:0.2"
     d="M 15.5 19 C 14.669001 19 14 19.669001 14 20.5 L 14 53.5 C 14 54.330999 14.669001 55 15.5 55 C 16.330999 55 17 54.330999 17 53.5 L 17 20.5 C 17 19.669001 16.330999 19 15.5 19 z M 24.5 19 C 23.669001 19 23 19.669001 23 20.5 L 23 53.5 C 23 54.330999 23.669001 55 24.5 55 C 25.330999 55 26 54.330999 26 53.5 L 26 20.5 C 26 19.669001 25.330999 19 24.5 19 z M 33.5 19 C 32.669001 19 32 19.669001 32 20.5 L 32 53.5 C 32 54.330999 32.669001 55 33.5 55 C 34.330999 55 35 54.330999 35 53.5 L 35 20.5 C 35 19.669001 34.330999 19 33.5 19 z M 42.5 19 C 41.669001 19 41 19.669001 41 20.5 L 41 53.5 C 41 54.330999 41.669001 55 42.5 55 C 43.330999 55 44 54.330999 44 53.5 L 44 20.5 C 44 19.669001 43.330999 19 42.5 19 z " />
  <path
     d="M 60.356511,25.288332 C 60.259943,24.184548 59.293594,23.373685 58.18981,23.470254 L 54.205031,23.818876 53.159163,11.864541 C 53.062594,10.760757 51.10005,10.03705 49.996267,10.133619 l -0.996194,0.08716 0.348623,3.984778 3.486229,39.847788 0.348624,3.984779 0.996194,-0.08716 c 1.103783,-0.09657 2.910841,-1.150074 2.814272,-2.253857 l -1.045867,-11.954332 3.984777,-0.348622 c 1.103784,-0.09657 1.914646,-1.062917 1.818078,-2.166701 z m -3.769783,2.806034 0.964671,11.026239 c 0.004,0.262645 -0.195852,0.484439 -0.457582,0.506653 l -1.494293,0.130734 -1.04587,-11.954336 1.494293,-0.130733 c 0.262337,-0.02357 0.498036,0.161219 0.538781,0.421443 z"
     style="fill:#bdc8ce;fill-opacity:1"
     id="path873"
     sodipodi:nodetypes="sscssccccsscsssccccccc" />
  <path
     sodipodi:nodetypes="ssccccccccsss"
     style="opacity:0.33;fill:#000000;fill-opacity:1;stroke-width:2"
     inkscape:connector-curvature="0"
     id="path49"
     d="m 57.542165,27.541348 c -0.04828,-0.551892 -0.531458,-0.957323 -1.083349,-0.909038 l -1.99239,0.174311 0.08716,0.996194 1.494292,-0.130734 c 0.262337,-0.02357 0.497967,0.160427 0.538712,0.420649 l 0.964814,11.027875 c 0.004,0.262645 -0.195924,0.483599 -0.457656,0.505813 l -1.494293,0.130733 0.08716,0.996194 1.992389,-0.17431 c 0.551892,-0.04828 0.957323,-0.531458 0.90904,-1.083352 z" />
  <path
     d="m 49,10.219934 4.183475,47.817345 0.996194,-0.08715 -4.174304,-47.712511 z"
     id="path67"
     style="opacity:0.33;fill:#000000;fill-opacity:1;stroke-width:1.41266"
     inkscape:connector-curvature="0" />
  <path
     id="rect4676"
     style="fill:#ffffff;opacity:0.9"
     d="M 13,15 H 46 L 34,25 25.6,18.1 16,21 Z"
     sodipodi:nodetypes="cccccc" />
</svg>
