<?xml version="1.0" encoding="UTF-8" standalone="no"?>
<!-- Created with Inkscape (http://www.inkscape.org/) -->

<svg
   width="128"
   height="128"
   viewBox="0 0 128 128.00001"
   version="1.1"
   id="svg5"
   sodipodi:docname="0ad.svg"
   inkscape:version="1.2.1 (9c6d41e410, 2022-07-14)"
   xmlns:inkscape="http://www.inkscape.org/namespaces/inkscape"
   xmlns:sodipodi="http://sodipodi.sourceforge.net/DTD/sodipodi-0.dtd"
   xmlns:xlink="http://www.w3.org/1999/xlink"
   xmlns="http://www.w3.org/2000/svg"
   xmlns:svg="http://www.w3.org/2000/svg">
  <sodipodi:namedview
     id="namedview7"
     pagecolor="#ffffff"
     bordercolor="#666666"
     borderopacity="1.0"
     inkscape:showpageshadow="2"
     inkscape:pageopacity="0.0"
     inkscape:pagecheckerboard="0"
     inkscape:deskcolor="#d1d1d1"
     inkscape:document-units="px"
     showgrid="false"
     inkscape:zoom="4.4967572"
     inkscape:cx="31.46712"
     inkscape:cy="66.49236"
     inkscape:window-width="1920"
     inkscape:window-height="1002"
     inkscape:window-x="0"
     inkscape:window-y="0"
     inkscape:window-maximized="1"
     inkscape:current-layer="svg5" />
  <defs
     id="defs2">
    <linearGradient
       inkscape:collect="always"
       xlink:href="#linearGradient985"
       id="linearGradient3525"
       x1="96"
       y1="116"
       x2="24.000002"
       y2="3.9999969"
       gradientUnits="userSpaceOnUse"
       gradientTransform="translate(3.9999978,4.0000032)" />
    <linearGradient
       inkscape:collect="always"
       id="linearGradient985">
      <stop
         style="stop-color:#a0894c;stop-opacity:1;"
         offset="0"
         id="stop981" />
      <stop
         style="stop-color:#bab495;stop-opacity:1;"
         offset="1"
         id="stop983" />
    </linearGradient>
  </defs>
  <rect
     style="fill:url(#linearGradient3525);fill-opacity:1.0;stroke:none"
     id="rect184"
     width="111"
     height="111"
     x="8.5"
     y="8.5"
     ry="19.5" />
  <path
     id="path1493"
     style="opacity:0.2;fill:#000000;stroke-width:7.27274;stroke-linejoin:round"
     d="m 64,25 c -22.091342,0 -40,17.908652 -40,40 0,22.091342 17.908658,40 40,40 22.091342,0 40,-17.908658 40,-40 C 104,42.908652 86.091342,25 64,25 Z m -4,8.257812 V 61 H 32.257812 C 34.063376,46.52643 45.52643,35.063376 60,33.257812 Z m 8,0 C 82.473566,35.063376 93.936622,46.52643 95.742188,61 H 68 Z M 32.257812,69 H 60 V 96.742188 C 45.52643,94.936622 34.063376,83.473566 32.257812,69 Z M 68,69 H 95.742188 C 93.936622,83.473566 82.473566,94.936622 68,96.742188 Z" />
  <path
     id="path1039"
     style="fill:#ffffff;stroke-width:7.27274;stroke-linejoin:round"
     d="m 64,24 c -22.091348,0 -40,17.908652 -40,40 0,22.091342 17.908652,40 40,40 22.091342,0 40,-17.908658 40,-40 C 104,41.908652 86.091342,24 64,24 Z m -4,8.257812 V 60 H 32.257812 C 34.063376,45.52643 45.52643,34.063376 60,32.257812 Z m 8,0 C 82.473566,34.063376 93.936622,45.52643 95.742188,60 H 68 Z M 32.257812,68 H 60 V 95.742188 C 45.52643,93.936622 34.063376,82.473566 32.257812,68 Z M 68,68 H 95.742188 C 93.936622,82.473566 82.473566,93.936622 68,95.742188 Z" />
  <path
     id="rect441"
     style="opacity:0.3;fill:#ffffff"
     d="M 28,9 C 17.474011,9 9,17.474011 9,28 v 1 C 9,18.474011 17.474011,10 28,10 h 72 c 10.52599,0 19,8.474011 19,19 V 28 C 119,17.474011 110.52599,9 100,9 Z" />
  <path
     id="rect443"
     style="opacity:0.3;fill:#ffffff"
     d="m 9,99 v 1 c 0,10.52599 8.474011,19 19,19 h 72 c 10.52599,0 19,-8.47401 19,-19 v -1 c 0,10.52599 -8.47401,19 -19,19 H 28 C 17.474011,118 9,109.52599 9,99 Z" />
  <path
     id="rect899"
     style="fill:#000000;stroke:none;stroke-width:2;opacity:0.5"
     d="M 28,8 C 16.920022,8 8,16.920022 8,28 v 72 c 0,11.07998 8.920022,20 20,20 h 72 c 11.07998,0 20,-8.92002 20,-20 V 28 C 120,16.920022 111.07998,8 100,8 Z m 0,1 h 72 c 10.52599,0 19,8.474011 19,19 v 72 c 0,10.52599 -8.47401,19 -19,19 H 28 C 17.474011,119 9,110.52599 9,100 V 28 C 9,17.474011 17.474011,9 28,9 Z" />
</svg>
