<?xml version="1.0" encoding="UTF-8" standalone="no"?>
<!-- Created with Inkscape (http://www.inkscape.org/) -->

<svg
   width="128"
   height="128"
   viewBox="0 0 128 128.00001"
   version="1.1"
   id="svg5"
   sodipodi:docname="accessories-dictionary.svg"
   inkscape:version="1.2.1 (9c6d41e410, 2022-07-14)"
   xmlns:inkscape="http://www.inkscape.org/namespaces/inkscape"
   xmlns:sodipodi="http://sodipodi.sourceforge.net/DTD/sodipodi-0.dtd"
   xmlns:xlink="http://www.w3.org/1999/xlink"
   xmlns="http://www.w3.org/2000/svg"
   xmlns:svg="http://www.w3.org/2000/svg">
  <sodipodi:namedview
     id="namedview7"
     pagecolor="#ffffff"
     bordercolor="#666666"
     borderopacity="1.0"
     inkscape:showpageshadow="2"
     inkscape:pageopacity="0.0"
     inkscape:pagecheckerboard="0"
     inkscape:deskcolor="#d1d1d1"
     inkscape:document-units="px"
     showgrid="false"
     inkscape:zoom="4.4967572"
     inkscape:cx="31.355929"
     inkscape:cy="66.603552"
     inkscape:window-width="1920"
     inkscape:window-height="1007"
     inkscape:window-x="0"
     inkscape:window-y="0"
     inkscape:window-maximized="1"
     inkscape:current-layer="svg5" />
  <defs
     id="defs2">
    <linearGradient
       inkscape:collect="always"
       xlink:href="#linearGradient1093"
       id="linearGradient3525"
       x1="96"
       y1="116"
       x2="24.000002"
       y2="3.9999969"
       gradientUnits="userSpaceOnUse"
       gradientTransform="translate(3.9999978,4.0000032)" />
    <linearGradient
       inkscape:collect="always"
       id="linearGradient1093">
      <stop
         style="stop-color:#981b1b;stop-opacity:1;"
         offset="0"
         id="stop1089" />
      <stop
         style="stop-color:#c75349;stop-opacity:1;"
         offset="1"
         id="stop1091" />
    </linearGradient>
  </defs>
  <rect
     style="fill:url(#linearGradient3525);fill-opacity:1.0;stroke:none"
     id="rect184"
     width="111"
     height="111"
     x="8.5"
     y="8.5"
     ry="19.5" />
  <path
     d="M 44.80358,41 29.196422,84.464282 24,85.39286 v 1.821422 H 39.071422 V 85.39286 L 32.91072,84.464282 37.53572,71.25 h 18.0357 L 60.125,84.464282 53.96428,85.39286 v 1.821422 h 19.375 V 85.39286 L 67.53572,84.464282 51.30358,41 Z m 1.60714,4.92858 8.10714,22.25 H 38.55358 Z m 43.375,8.42856 c -1.84538,4e-5 -3.56598,0.1422 -5.16072,0.39286 -1.571978,0.227858 -3.10844,0.484658 -4.58928,0.80358 v 7.017858 h 1.92856 l 1.16072,-4 c 0.84294,-0.4784 1.81222,-0.864518 2.92858,-1.160718 1.1163,-0.296142 2.227862,-0.4464 3.32142,-0.446442 0.95684,4e-5 1.754942,0.1632 2.39286,0.48216 0.63788,0.31898 1.13546,0.7519 1.5,1.321422 0.387282,0.56958 0.66192,1.25622 0.82142,2.053578 0.1594,0.77462 0.232142,1.650302 0.232142,2.607142 v 5.01786 l -4.803562,0.1428 c -1.09356,0.0228 -2.192178,0.0696 -3.28572,0.1608 -1.07078,0.0912 -2.0918,0.26726 -3.07142,0.51786 -0.95686,0.25062 -1.87136,0.59794 -2.714298,1.05356 -0.820162,0.43288 -1.527722,1.00806 -2.142842,1.71428 -0.61514,0.70628 -1.08684,1.57704 -1.42858,2.625 -0.34174,1.02522 -0.51786,2.24824 -0.51786,3.66072 0,1.36696 0.1374,2.63676 0.41072,3.82144 0.27338,1.1619 0.71924,2.18784 1.35714,3.05356 0.6379,0.84296 1.48772,1.50372 2.53572,1.98216 1.070762,0.47842 2.379362,0.71428 3.92856,0.71428 1.32136,0 2.51852,-0.1374 3.5893,-0.41072 1.09352,-0.2734 2.054822,-0.6127 2.875,-1 0.82014,-0.41008 1.50184,-0.83008 2.07142,-1.28572 0.59232,-0.45564 1.068962,-0.85468 1.41072,-1.19642 l 0.64286,3.21428 H 104 v -1.55358 l -4,-0.83928 V 63.10718 c -2e-5,-1.708642 -0.26174,-3.115782 -0.78572,-4.232142 -0.50122,-1.1391 -1.213718,-2.0357 -2.125,-2.69642 -0.911298,-0.66066 -1.97914,-1.13732 -3.23214,-1.41072 -1.253038,-0.27336 -2.61338,-0.41068 -4.07142,-0.41072 z m 4.535702,16.482142 V 82.25 c -1.139122,0.54678 -2.271602,1.0105 -3.410702,1.375 -1.11636,0.341742 -2.450818,0.5 -4,0.5 -3.25788,0 -4.89286,-2.00816 -4.89286,-6.01786 0,-1.41248 0.1632,-2.57084 0.48214,-3.48214 0.31894,-0.91128 0.80852,-1.61884 1.446422,-2.14286 0.6379,-0.523978 1.44892,-0.902078 2.428578,-1.10714 0.97962,-0.2278 2.13798,-0.34726 3.48214,-0.39286 l 4.464282,-0.1428 z"
     style="font-style:normal;font-variant:normal;font-weight:normal;font-stretch:normal;font-size:122.478px;line-height:125%;font-family:'Liberation Serif';-inkscape-font-specification:'Liberation Serif';letter-spacing:0px;word-spacing:0px;display:inline;opacity:0.2;fill:#000000;fill-opacity:1;stroke:none;stroke-width:2;enable-background:new"
     id="path8966" />
  <path
     d="M 44.80358,40 29.196422,83.46428 24,84.39286 v 1.82142 h 15.071422 v -1.82142 l -6.1607,-0.92858 4.625,-13.21428 h 18.0357 L 60.125,83.46428 53.96428,84.39286 v 1.82142 h 19.375 V 84.39286 L 67.53572,83.46428 51.30358,40 Z m 1.60714,4.92858 8.10714,22.25 H 38.55358 Z m 43.375,8.42856 c -1.84538,4e-5 -3.56598,0.1422 -5.16072,0.39286 -1.571978,0.22786 -3.10844,0.48466 -4.58928,0.80358 v 7.01786 h 1.92856 l 1.16072,-4 c 0.84294,-0.4784 1.81222,-0.86452 2.92858,-1.16072 1.1163,-0.29614 2.227862,-0.4464 3.32142,-0.44644 0.95684,4e-5 1.754942,0.1632 2.39286,0.48216 0.63788,0.31898 1.13546,0.7519 1.5,1.32142 0.387282,0.56958 0.66192,1.25622 0.82142,2.05358 0.1594,0.77462 0.232142,1.6503 0.232142,2.60714 v 5.01786 l -4.803562,0.1428 c -1.09356,0.0228 -2.192178,0.0696 -3.28572,0.1608 -1.07078,0.0912 -2.0918,0.26726 -3.07142,0.51786 -0.95686,0.25062 -1.87136,0.59794 -2.714298,1.05356 -0.820162,0.43288 -1.527722,1.00806 -2.142842,1.71428 -0.61514,0.70628 -1.08684,1.57704 -1.42858,2.625 -0.34174,1.02522 -0.51786,2.24824 -0.51786,3.66072 0,1.36696 0.1374,2.63676 0.41072,3.82144 0.27338,1.1619 0.71924,2.18784 1.35714,3.05356 0.6379,0.84296 1.48772,1.50372 2.53572,1.98216 1.070762,0.47842 2.379362,0.71428 3.92856,0.71428 1.32136,0 2.51852,-0.1374 3.5893,-0.41072 1.09352,-0.2734 2.054822,-0.6127 2.875,-1 0.82014,-0.41008 1.50184,-0.83008 2.07142,-1.28572 0.59232,-0.45564 1.068962,-0.85468 1.41072,-1.19642 l 0.64286,3.21428 H 104 v -1.55358 l -4,-0.83928 V 62.10718 c -2e-5,-1.70864 -0.26174,-3.11578 -0.78572,-4.23214 -0.50122,-1.1391 -1.213718,-2.0357 -2.125,-2.69642 -0.911298,-0.66066 -1.97914,-1.13732 -3.23214,-1.41072 -1.253038,-0.27336 -2.61338,-0.41068 -4.07142,-0.41072 z m 4.535702,16.48214 V 81.25 c -1.139122,0.54678 -2.271602,1.0105 -3.410702,1.375 -1.11636,0.34174 -2.450818,0.5 -4,0.5 -3.25788,0 -4.89286,-2.00816 -4.89286,-6.01786 0,-1.41248 0.1632,-2.57084 0.48214,-3.48214 0.31894,-0.91128 0.80852,-1.61884 1.446422,-2.14286 0.6379,-0.52398 1.44892,-0.90208 2.428578,-1.10714 0.97962,-0.2278 2.13798,-0.34726 3.48214,-0.39286 l 4.464282,-0.1428 z"
     style="font-style:normal;font-variant:normal;font-weight:normal;font-stretch:normal;font-size:122.478px;line-height:125%;font-family:'Liberation Serif';-inkscape-font-specification:'Liberation Serif';letter-spacing:0px;word-spacing:0px;display:inline;fill:#ffffff;fill-opacity:1;stroke:none;stroke-width:2;enable-background:new"
     id="path8614"
     sodipodi:nodetypes="ccccccccccccccccccccccccccccccccscccccccscccscccccccccccccccccsssccccc" />
  <path
     id="rect441"
     style="opacity:0.3;fill:#ffffff"
     d="M 28,9 C 17.474011,9 9,17.474011 9,28 v 1 C 9,18.474011 17.474011,10 28,10 h 72 c 10.52599,0 19,8.474011 19,19 V 28 C 119,17.474011 110.52599,9 100,9 Z" />
  <path
     id="rect443"
     style="opacity:0.3;fill:#ffffff"
     d="m 9,99 v 1 c 0,10.52599 8.474011,19 19,19 h 72 c 10.52599,0 19,-8.47401 19,-19 v -1 c 0,10.52599 -8.47401,19 -19,19 H 28 C 17.474011,118 9,109.52599 9,99 Z" />
  <path
     id="rect899"
     style="fill:#000000;stroke:none;stroke-width:2;opacity:0.5"
     d="M 28,8 C 16.920022,8 8,16.920022 8,28 v 72 c 0,11.07998 8.920022,20 20,20 h 72 c 11.07998,0 20,-8.92002 20,-20 V 28 C 120,16.920022 111.07998,8 100,8 Z m 0,1 h 72 c 10.52599,0 19,8.474011 19,19 v 72 c 0,10.52599 -8.47401,19 -19,19 H 28 C 17.474011,119 9,110.52599 9,100 V 28 C 9,17.474011 17.474011,9 28,9 Z" />
</svg>
