<?xml version="1.0" encoding="UTF-8" standalone="no"?>
<!-- Created with Inkscape (http://www.inkscape.org/) -->

<svg
   width="128"
   height="128"
   viewBox="0 0 128 128.00001"
   version="1.1"
   id="svg5"
   sodipodi:docname="accessories-clock.svg"
   inkscape:version="1.2.1 (9c6d41e410, 2022-07-14)"
   xmlns:inkscape="http://www.inkscape.org/namespaces/inkscape"
   xmlns:sodipodi="http://sodipodi.sourceforge.net/DTD/sodipodi-0.dtd"
   xmlns:xlink="http://www.w3.org/1999/xlink"
   xmlns="http://www.w3.org/2000/svg"
   xmlns:svg="http://www.w3.org/2000/svg">
  <sodipodi:namedview
     id="namedview7"
     pagecolor="#ffffff"
     bordercolor="#666666"
     borderopacity="1.0"
     inkscape:showpageshadow="2"
     inkscape:pageopacity="0.0"
     inkscape:pagecheckerboard="0"
     inkscape:deskcolor="#d1d1d1"
     inkscape:document-units="px"
     showgrid="false"
     inkscape:zoom="4.4967572"
     inkscape:cx="31.800694"
     inkscape:cy="66.825934"
     inkscape:window-width="1920"
     inkscape:window-height="1007"
     inkscape:window-x="0"
     inkscape:window-y="0"
     inkscape:window-maximized="1"
     inkscape:current-layer="svg5" />
  <defs
     id="defs2">
    <linearGradient
       inkscape:collect="always"
       xlink:href="#4852"
       id="linearGradient3525"
       x1="60.000004"
       y1="3.9999969"
       x2="60.000004"
       y2="116"
       gradientUnits="userSpaceOnUse"
       gradientTransform="translate(3.9999978,4.0000032)" />
    <linearGradient
       inkscape:collect="always"
       id="4852">
      <stop
         style="stop-color:#333333;stop-opacity:1"
         offset="0"
         id="stop14555" />
      <stop
         style="stop-color:#666666;stop-opacity:1"
         offset="1"
         id="stop14557" />
    </linearGradient>
  </defs>
  <rect
     style="fill:url(#linearGradient3525);fill-opacity:1;stroke:none"
     id="rect184"
     width="111"
     height="111"
     x="8.5"
     y="8.5"
     ry="19.5" />
  <path
     d="m 89.41962,24.872 -24.093749,41.687503 -0.328108,0.1719 c -0.279978,-0.0624 -0.539056,-0.18674 -0.835938,-0.19534 l -37.867193,-35.539067 -2.4375,2.429688 35.234373,37.460939 -7.421874,6.359372 0.859374,1.492188 9.703122,-3.406248 c 0.552192,0.235748 1.158364,0.374992 1.796876,0.374992 0.217612,0 0.423214,-0.02574 0.632812,-0.05468 l 8.484374,5.804684 1.21875,-1.218752 L 68.825871,72.145435 100.654,51.973557 98.927434,48.989183 69.122745,64.575119 91.40399,26.020432 Z"
     style="display:inline;opacity:0.2;fill:#000000;fill-opacity:1;stroke:none;stroke-width:3.99996;enable-background:new"
     id="path1509" />
  <path
     d="m 26.289498,29.996 -2.437498,2.429662 35.234045,37.460607 -7.42177,6.359318 0.859352,1.492168 9.703034,-3.406216 c 0.552192,0.235748 1.158348,0.374994 1.79686,0.374994 0.217614,0 0.423202,-0.02574 0.632796,-0.05468 l 8.492124,5.80464 1.218752,-1.218744 -5.539034,-8.093682 31.827841,-20.171692 -1.726552,-2.98435 -33.937173,17.74203 c -0.27998,-0.0624 -0.539076,-0.18674 -0.835954,-0.19534 z"
     style="display:inline;fill:#ffffff;fill-opacity:1;stroke:none;stroke-width:3.99996;enable-background:new"
     id="path1339" />
  <path
     d="m 89.416542,23.872 1.987448,1.147462 -25.026687,43.296065 c 0.27841,0.443262 0.442506,0.96785 0.442506,1.529952 0,1.590532 -1.28936,2.879904 -2.87991,2.879904 -1.590544,0 -2.879902,-1.289372 -2.879902,-2.879904 0,-1.590526 1.289358,-2.879902 2.879902,-2.879902 0.1856,0 0.364016,0.0188 0.539982,0.05252 z"
     style="color:#000000;display:inline;overflow:visible;visibility:visible;fill:#eb3030;fill-opacity:1;fill-rule:nonzero;stroke:none;stroke-width:3.99986;marker:none;enable-background:accumulate"
     id="path1404" />
  <path
     id="rect441"
     style="opacity:0.3;fill:#ffffff"
     d="M 28,9 C 17.474011,9 9,17.474011 9,28 v 1 C 9,18.474011 17.474011,10 28,10 h 72 c 10.52599,0 19,8.474011 19,19 V 28 C 119,17.474011 110.52599,9 100,9 Z" />
  <path
     id="rect443"
     style="opacity:0.3;fill:#ffffff"
     d="m 9,99 v 1 c 0,10.52599 8.474011,19 19,19 h 72 c 10.52599,0 19,-8.47401 19,-19 v -1 c 0,10.52599 -8.47401,19 -19,19 H 28 C 17.474011,118 9,109.52599 9,99 Z" />
  <path
     id="rect899"
     style="fill:#000000;stroke:none;stroke-width:2;opacity:0.5"
     d="M 28,8 C 16.920022,8 8,16.920022 8,28 v 72 c 0,11.07998 8.920022,20 20,20 h 72 c 11.07998,0 20,-8.92002 20,-20 V 28 C 120,16.920022 111.07998,8 100,8 Z m 0,1 h 72 c 10.52599,0 19,8.474011 19,19 v 72 c 0,10.52599 -8.47401,19 -19,19 H 28 C 17.474011,119 9,110.52599 9,100 V 28 C 9,17.474011 17.474011,9 28,9 Z" />
</svg>
