<?xml version="1.0" encoding="UTF-8" standalone="no"?>
<!-- Created with Inkscape (http://www.inkscape.org/) -->

<svg
   width="128"
   height="128"
   viewBox="0 0 128 128.00001"
   version="1.1"
   id="svg5"
   sodipodi:docname="accessories-document-viewer.svg"
   inkscape:version="1.2.1 (9c6d41e410, 2022-07-14)"
   xmlns:inkscape="http://www.inkscape.org/namespaces/inkscape"
   xmlns:sodipodi="http://sodipodi.sourceforge.net/DTD/sodipodi-0.dtd"
   xmlns:xlink="http://www.w3.org/1999/xlink"
   xmlns="http://www.w3.org/2000/svg"
   xmlns:svg="http://www.w3.org/2000/svg">
  <sodipodi:namedview
     id="namedview7"
     pagecolor="#ffffff"
     bordercolor="#666666"
     borderopacity="1.0"
     inkscape:showpageshadow="2"
     inkscape:pageopacity="0.0"
     inkscape:pagecheckerboard="0"
     inkscape:deskcolor="#d1d1d1"
     inkscape:document-units="px"
     showgrid="false"
     inkscape:zoom="3.09375"
     inkscape:cx="-79.030303"
     inkscape:cy="51.393939"
     inkscape:window-width="1920"
     inkscape:window-height="1002"
     inkscape:window-x="0"
     inkscape:window-y="0"
     inkscape:window-maximized="1"
     inkscape:current-layer="svg5" />
  <defs
     id="defs2">
    <linearGradient
       inkscape:collect="always"
       xlink:href="#linearGradient1216"
       id="linearGradient3525"
       x1="49.837837"
       y1="59.747749"
       x2="14.162162"
       y2="4.2522521"
       gradientUnits="userSpaceOnUse"
       gradientTransform="matrix(2.0181818,0,0,2.0181818,-0.58181789,-0.58181778)" />
    <linearGradient
       inkscape:collect="always"
       id="linearGradient1216">
      <stop
         style="stop-color:#dc1111;stop-opacity:1;"
         offset="0"
         id="stop1212" />
      <stop
         style="stop-color:#dc5d4f;stop-opacity:1;"
         offset="1"
         id="stop1214" />
    </linearGradient>
  </defs>
  <rect
     style="fill:url(#linearGradient3525);fill-opacity:1.0;stroke:none;stroke-width:2.01818"
     id="rect184"
     width="111"
     height="111"
     x="8.5"
     y="8.5"
     ry="19.5" />
  <path
     d="m 59.389102,25.000004 c -1.37932,0 -1.65138,0.0646 -2.20622,0.52956 -1.10464,0.92592 -1.73414,3.7749 -1.72778,7.91706 0.006,4.2828 0.593,8.3589 1.94042,13.662881 l 0.85058,3.3098 -0.79742,2.48898 c -2.53278,8.09366 -6.20484,16.516822 -11.6159,26.61082 -8.20066,15.297922 -14.53828,23.328925 -18.95224,24.042445 -0.7102,0.1148 -0.74426,0.0852 -0.74426,-0.42364 0,-2.58188 4.89556,-9.037805 10.34,-13.636425 2.78112,-2.34904 -0.45532,-0.77912 -4.1998,2.03884 -3.77348,2.83978 -6.89924,6.521921 -7.86798,9.267465 -0.68882,1.95232 -0.54312,2.64262 0.71768,3.28334 2.25276,1.14482 3.39914,1.18986 5.3162,0.2383 3.72652,-1.8497 8.65474,-7.703585 14.1411,-16.787325 1.77894,-2.94542 2.33718,-3.68052 2.791,-3.68052 0.16,0 1.84112,-0.46604 3.72134,-1.03266 7.51484,-2.26468 16.538382,-4.09262 25.384862,-5.1633 l 2.95048,-0.3707 1.48854,0.7414 c 3.87656,1.94468 9.27808,3.8316 13.237321,4.60724 2.677802,0.5246 6.164785,0.62128 7.336365,0.21184 0.7382,-0.25798 2.27606,-1.16958 2.27608,-1.46916 -3.00494,1.4093 -7.534243,-0.33212 -10.941485,-1.33754 -2.246501,-0.70778 -7.190401,-2.64068 -7.469261,-2.91264 5.9859,-1.1586 17.214086,-1.41556 18.420626,2.72726 0.3535,0 0.26266,-1.66304 -0.133,-2.33008 -0.74086,-1.24934 -2.88766,-2.25792 -5.980723,-2.8332 -2.504222,-0.46576 -8.438123,-0.59616 -13.077843,-0.29126 l -4.12006,0.26478 -1.48852,-0.90026 c -8.5354,-5.1704 -13.0559,-11.003282 -17.14476,-22.083022 -0.6136,-1.6627 -0.65486,-1.89082 -0.45188,-2.93912 0.71474,-3.69086 1.37804,-16.161241 0.8772,-16.469601 -0.91222,4.08632 -1.64996,8.17348 -2.578382,11.86234 -0.1918,0 -0.7537,-2.87534 -1.19616,-6.22242 -0.48136,-3.64162 -0.30654,-8.568098 0.34558,-10.247158 0.2613,-0.67284 0.60214,-1.28592 0.77084,-1.3504 1.671562,0.47942 2.601882,1.8033 2.844162,3.83936 0.23718,0 0.29808,-0.38908 0.34556,-1.64164 0.1046,-2.75486 -0.63376,-3.52164 -3.402262,-3.52164 z m 0.6645,30.397259 c 0.0948,-0.0302 0.148602,0.1744 0.265842,0.50308 0.1444,0.40472 0.95184,2.0617 1.7809,3.68052 3.5673,6.965262 7.51764,11.533422 13.21076,15.278042 0.28842,0.1898 0.46664,0.40596 0.39872,0.47662 -0.0678,0.0708 -1.22676,0.32012 -2.55178,0.55604 -9.03554,1.60892 -20.284542,4.9936 -25.756962,7.73172 -0.087,0.0436 -0.1594,-0.042 -0.1594,-0.1854 0,-0.1434 0.53792,-1.26406 1.22272,-2.48898 5.15802,-9.22608 8.62398,-16.682962 10.57924,-22.824422 0.62026,-1.94824 0.85218,-2.67702 1.01006,-2.72726 z"
     style="display:inline;opacity:0.2;fill:#000000;fill-opacity:1;fill-rule:nonzero;stroke:none;stroke-width:2;enable-background:new"
     id="path1239" />
  <path
     d="m 59.389102,24 c -1.37932,0 -1.65138,0.0646 -2.20622,0.52956 -1.10464,0.92592 -1.73414,3.7749 -1.72778,7.917058 0.006,4.282802 0.593,8.3589 1.94042,13.662881 l 0.85058,3.3098 -0.79742,2.48898 c -2.53278,8.09366 -6.20484,16.51682 -11.6159,26.610822 -8.20066,15.29792 -14.53828,23.328919 -18.95224,24.042439 -0.7102,0.1148 -0.74426,0.0852 -0.74426,-0.42364 0,-2.58188 4.89556,-9.037801 10.34,-13.636421 2.78112,-2.34904 -0.45532,-0.77912 -4.1998,2.03884 -3.77348,2.83978 -6.89924,6.52192 -7.86798,9.267461 -0.68882,1.95232 -0.54312,2.64262 0.71768,3.28334 2.25276,1.14482 3.39914,1.18986 5.3162,0.2383 3.72652,-1.8497 8.65474,-7.703581 14.1411,-16.787321 1.77894,-2.94542 2.33718,-3.68052 2.791,-3.68052 0.16,0 1.84112,-0.46604 3.72134,-1.03266 7.51484,-2.26468 16.538382,-4.09262 25.384862,-5.1633 l 2.95048,-0.3707 1.48854,0.7414 c 3.87656,1.944682 9.27808,3.8316 13.237321,4.60724 2.677808,0.524602 6.164785,0.62128 7.336365,0.21184 0.7382,-0.25798 2.27606,-1.16958 2.27608,-1.46916 -3.00494,1.4093 -7.534237,-0.33212 -10.941485,-1.33754 -2.246501,-0.70778 -7.190401,-2.64068 -7.469261,-2.91264 5.9859,-1.1586 17.214086,-1.41556 18.420626,2.72726 0.3535,0 0.26266,-1.66304 -0.133,-2.33008 -0.74086,-1.24934 -2.88766,-2.25792 -5.980717,-2.8332 -2.504228,-0.46576 -8.438129,-0.59616 -13.077849,-0.29126 l -4.12006,0.264782 -1.48852,-0.900262 c -8.5354,-5.1704 -13.0559,-11.00328 -17.14476,-22.08302 -0.6136,-1.6627 -0.65486,-1.89082 -0.45188,-2.93912 0.71474,-3.690861 1.37804,-16.161239 0.8772,-16.469599 -0.91222,4.086318 -1.64996,8.173478 -2.578382,11.862338 -0.1918,0 -0.7537,-2.87534 -1.19616,-6.22242 -0.48136,-3.64162 -0.30654,-8.568098 0.34558,-10.247158 0.2613,-0.67284 0.60214,-1.28592 0.77084,-1.3504 1.671562,0.47942 2.601882,1.8033 2.844162,3.83936 0.23718,0 0.29808,-0.38908 0.34556,-1.64164 C 62.895964,24.76678 62.157604,24 59.389102,24 Z m 0.6645,30.397259 c 0.0948,-0.0302 0.148602,0.1744 0.265842,0.50308 0.1444,0.40472 0.95184,2.0617 1.7809,3.68052 3.5673,6.96526 7.51764,11.53342 13.21076,15.27804 0.28842,0.1898 0.46664,0.40596 0.39872,0.47662 -0.0678,0.0708 -1.22676,0.32012 -2.55178,0.55604 -9.03554,1.60892 -20.284542,4.9936 -25.756962,7.73172 -0.087,0.0436 -0.1594,-0.042 -0.1594,-0.1854 0,-0.1434 0.53792,-1.26406 1.22272,-2.48898 5.15802,-9.22608 8.62398,-16.68296 10.57924,-22.82442 0.62026,-1.94824 0.85218,-2.67702 1.01006,-2.72726 z"
     style="display:inline;fill:#ffffff;fill-opacity:1;fill-rule:nonzero;stroke:none;stroke-width:2;enable-background:new"
     id="path429"
     sodipodi:nodetypes="sccccccsssscssssscccsscccccscccsccccccccscccccccscscc" />
  <path
     id="rect441"
     style="opacity:0.3;fill:#ffffff"
     d="M 28,9 C 17.474011,9 9,17.474011 9,28 v 1 C 9,18.474011 17.474011,10 28,10 h 72 c 10.52599,0 19,8.474011 19,19 V 28 C 119,17.474011 110.52599,9 100,9 Z" />
  <path
     id="rect443"
     style="opacity:0.3;fill:#ffffff"
     d="m 9,99 v 1 c 0,10.52599 8.474011,19 19,19 h 72 c 10.52599,0 19,-8.47401 19,-19 v -1 c 0,10.52599 -8.47401,19 -19,19 H 28 C 17.474011,118 9,109.52599 9,99 Z" />
  <path
     id="rect899"
     style="fill:#000000;stroke:none;stroke-width:2;opacity:0.5"
     d="M 28,8 C 16.920022,8 8,16.920022 8,28 v 72 c 0,11.07998 8.920022,20 20,20 h 72 c 11.07998,0 20,-8.92002 20,-20 V 28 C 120,16.920022 111.07998,8 100,8 Z m 0,1 h 72 c 10.52599,0 19,8.474011 19,19 v 72 c 0,10.52599 -8.47401,19 -19,19 H 28 C 17.474011,119 9,110.52599 9,100 V 28 C 9,17.474011 17.474011,9 28,9 Z" />
</svg>
