<?xml version="1.0" encoding="UTF-8" standalone="no"?>
<!-- Created with Inkscape (http://www.inkscape.org/) -->

<svg
   width="128"
   height="128"
   viewBox="0 0 128 128.00001"
   version="1.1"
   id="svg5"
   sodipodi:docname="akonadi.svg"
   inkscape:version="1.2.1 (9c6d41e410, 2022-07-14)"
   xmlns:inkscape="http://www.inkscape.org/namespaces/inkscape"
   xmlns:sodipodi="http://sodipodi.sourceforge.net/DTD/sodipodi-0.dtd"
   xmlns:xlink="http://www.w3.org/1999/xlink"
   xmlns="http://www.w3.org/2000/svg"
   xmlns:svg="http://www.w3.org/2000/svg">
  <sodipodi:namedview
     id="namedview7"
     pagecolor="#ffffff"
     bordercolor="#666666"
     borderopacity="1.0"
     inkscape:showpageshadow="2"
     inkscape:pageopacity="0.0"
     inkscape:pagecheckerboard="0"
     inkscape:deskcolor="#d1d1d1"
     inkscape:document-units="px"
     showgrid="false"
     inkscape:zoom="6.0625"
     inkscape:cx="64.164948"
     inkscape:cy="64"
     inkscape:window-width="1920"
     inkscape:window-height="1012"
     inkscape:window-x="0"
     inkscape:window-y="0"
     inkscape:window-maximized="1"
     inkscape:current-layer="svg5" />
  <defs
     id="defs2">
    <linearGradient
       inkscape:collect="always"
       xlink:href="#linearGradient2466"
       id="linearGradient3525"
       x1="49.837837"
       y1="59.747749"
       x2="14.162162"
       y2="4.2522521"
       gradientUnits="userSpaceOnUse"
       gradientTransform="matrix(2.0181818,0,0,2.0181818,-0.58181789,-0.58181778)" />
    <linearGradient
       inkscape:collect="always"
       id="linearGradient2466">
      <stop
         style="stop-color:#366ecb;stop-opacity:1;"
         offset="0"
         id="stop2462" />
      <stop
         style="stop-color:#3694cb;stop-opacity:1;"
         offset="1"
         id="stop2464" />
    </linearGradient>
  </defs>
  <rect
     style="fill:url(#linearGradient3525);fill-opacity:1.0;stroke:none;stroke-width:2.01818"
     id="rect184"
     width="111"
     height="111"
     x="8.5"
     y="8.5"
     ry="19.5" />
  <path
     d="m 64,31.914218 c -1.63673,0.0019 -3.271196,0.12202 -4.890626,0.359376 1.636148,1.19819 3.186774,2.602294 4.640626,4.15625 4.675516,4.997452 8.581064,11.630438 11.890624,18.820312 0.0156,0.03378 0.03136,0.06776 0.04688,0.10156 8.165762,1.601002 15.82528,3.743696 21.976562,5.820312 C 95.35635,44.639746 81.167974,31.914218 64,31.914218 Z M 47.007812,31.000156 C 36.399776,37.12516 29.870106,47.591508 28.351562,58.85953 c 3.010826,-2.2765 6.711608,-3.797558 10.722656,-4.730468 3.332824,-0.775166 6.92473,-1.177336 10.667968,-1.296876 3.743236,-0.11954 7.637434,0.04576 11.578126,0.410156 3.571726,0.330282 7.175938,0.832152 10.730468,1.445316 C 65.691136,41.512402 57.247122,30.95313 47.007812,31.000156 Z M 102,65.91422 c 0,20.986002 -17.014,38 -38,38 -20.986002,0 -38,-17.013998 -38,-38 10.622598,-18.595802 57.497998,-7.233402 76,0 z"
     style="color:#000000;opacity:0.2;fill:#000000;stroke:none;stroke-width:6"
     id="path1252" />
  <path
     id="path984"
     d="m 64,30.914218 c -1.63673,0.0019 -3.271196,0.12202 -4.890626,0.359376 1.636148,1.19819 3.186774,2.602294 4.640626,4.15625 4.675516,4.997452 8.581064,11.630438 11.890624,18.820312 0.0156,0.03378 0.03136,0.06776 0.04688,0.10156 8.165762,1.601002 15.82528,3.743696 21.976562,5.820312 C 95.35635,43.639746 81.167974,30.914218 64,30.914218 Z"
     sodipodi:nodetypes="ccssccc"
     style="fill:#d0e6ff;fill-opacity:1;stroke-width:2" />
  <path
     id="path969"
     style="color:#000000;fill:#caedfc;fill-opacity:1;stroke:none;stroke-width:6"
     d="M 47.007812,30.000156 C 36.399776,36.12516 29.870106,46.591508 28.351562,57.85953 c 3.010826,-2.2765 6.711608,-3.797558 10.722656,-4.730468 3.332824,-0.775166 6.92473,-1.177336 10.667968,-1.296876 3.743236,-0.11954 7.637434,0.04576 11.578126,0.410156 3.571726,0.330282 7.175938,0.832152 10.730468,1.445316 C 65.691136,40.512402 57.247122,29.95313 47.007812,30.000156 Z"
     sodipodi:nodetypes="ccssscc" />
  <path
     style="color:#000000;fill:#ffffff;stroke:none;stroke-width:6"
     d="m 102,64.914218 c 0,20.986002 -17.014,38.000002 -38,38.000002 -20.986002,0 -38,-17.014 -38,-38.000002 10.622598,-18.5958 57.497998,-7.2334 76,0 z"
     id="path951"
     sodipodi:nodetypes="cscc" />
  <path
     id="rect441"
     style="opacity:0.3;fill:#ffffff"
     d="M 28,9 C 17.474011,9 9,17.474011 9,28 v 1 C 9,18.474011 17.474011,10 28,10 h 72 c 10.52599,0 19,8.474011 19,19 V 28 C 119,17.474011 110.52599,9 100,9 Z" />
  <path
     id="rect443"
     style="opacity:0.3;fill:#ffffff"
     d="m 9,99 v 1 c 0,10.52599 8.474011,19 19,19 h 72 c 10.52599,0 19,-8.47401 19,-19 v -1 c 0,10.52599 -8.47401,19 -19,19 H 28 C 17.474011,118 9,109.52599 9,99 Z" />
  <path
     id="rect899"
     style="fill:#000000;stroke:none;stroke-width:2;opacity:0.5"
     d="M 28,8 C 16.920022,8 8,16.920022 8,28 v 72 c 0,11.07998 8.920022,20 20,20 h 72 c 11.07998,0 20,-8.92002 20,-20 V 28 C 120,16.920022 111.07998,8 100,8 Z m 0,1 h 72 c 10.52599,0 19,8.474011 19,19 v 72 c 0,10.52599 -8.47401,19 -19,19 H 28 C 17.474011,119 9,110.52599 9,100 V 28 C 9,17.474011 17.474011,9 28,9 Z" />
</svg>
