<?xml version="1.0" encoding="UTF-8" standalone="no"?>
<!-- Created with Inkscape (http://www.inkscape.org/) -->

<svg
   width="128"
   height="128"
   viewBox="0 0 128 128.00001"
   version="1.1"
   id="svg5"
   sodipodi:docname="applications-science.svg"
   inkscape:version="1.2.1 (9c6d41e410, 2022-07-14)"
   xmlns:inkscape="http://www.inkscape.org/namespaces/inkscape"
   xmlns:sodipodi="http://sodipodi.sourceforge.net/DTD/sodipodi-0.dtd"
   xmlns:xlink="http://www.w3.org/1999/xlink"
   xmlns="http://www.w3.org/2000/svg"
   xmlns:svg="http://www.w3.org/2000/svg">
  <sodipodi:namedview
     id="namedview7"
     pagecolor="#ffffff"
     bordercolor="#666666"
     borderopacity="1.0"
     inkscape:showpageshadow="2"
     inkscape:pageopacity="0.0"
     inkscape:pagecheckerboard="0"
     inkscape:deskcolor="#d1d1d1"
     inkscape:document-units="px"
     showgrid="false"
     inkscape:zoom="6.2265625"
     inkscape:cx="63.919699"
     inkscape:cy="64"
     inkscape:window-width="1920"
     inkscape:window-height="1009"
     inkscape:window-x="0"
     inkscape:window-y="0"
     inkscape:window-maximized="1"
     inkscape:current-layer="svg5" />
  <defs
     id="defs2">
    <linearGradient
       inkscape:collect="always"
       xlink:href="#linearGradient1918"
       id="linearGradient32279"
       x1="64"
       y1="120"
       x2="64"
       y2="8"
       gradientUnits="userSpaceOnUse" />
    <linearGradient
       inkscape:collect="always"
       id="linearGradient1918">
      <stop
         style="stop-color:#ff8d18;stop-opacity:1;"
         offset="0"
         id="stop1914" />
      <stop
         style="stop-color:#c94c41;stop-opacity:1;"
         offset="1"
         id="stop1916" />
    </linearGradient>
  </defs>
  <rect
     style="fill:url(#linearGradient32279);fill-opacity:1.0;stroke:none;stroke-width:2"
     id="rect184"
     width="111"
     height="111"
     x="8.5"
     y="8.5"
     ry="19.5" />
  <path
     d="m 60.643124,27.5 c -1.845132,0 -3.340908,1.495776 -3.340908,3.340908 0.0015,0.440304 0.09042,0.875928 0.261006,1.28184 -2.741431,2.119341 -5.152319,5.552874 -7.044328,9.918329 -1.628938,-0.188012 -3.200769,-0.280666 -4.680747,-0.249411 -5.942657,0.12547 -10.561367,2.025273 -12.714017,5.753788 -2.519175,4.36333 -1.139738,10.396878 3.062504,16.565338 0.43464,-0.573595 0.913725,-1.146554 1.392046,-1.716855 -3.459683,-5.217297 -4.568122,-10.162615 -2.505683,-13.734847 2.21988,-3.844955 7.667641,-5.299973 14.610669,-4.558945 -2.21039,5.935815 -3.517814,13.293403 -3.517814,21.263491 0,2.300565 0.11374,4.546115 0.321915,6.725323 -2.140541,-1.800958 -4.06384,-3.655058 -5.707383,-5.518883 -0.467504,0.581732 -0.937522,1.14216 -1.34565,1.716855 2.102656,2.377464 4.604103,4.729181 7.430052,6.963122 C 49.008209,90.11977 55.859226,101 63.984033,101 c 5.379517,0 10.198073,-4.775632 13.46514,-12.313805 8.157356,0.934682 14.701484,-0.849526 17.388967,-5.504378 0.03255,-0.05642 0.05565,-0.117006 0.08701,-0.174011 1.395863,0.267883 2.808383,-0.376707 3.52073,-1.60665 0.92109,-1.597757 0.37329,-3.639661 -1.223848,-4.56184 -0.387427,-0.221911 -0.815407,-0.363907 -1.25865,-0.417614 -0.42318,-3.057481 -1.874737,-6.409987 -4.18773,-9.805227 -0.434647,0.573597 -0.913732,1.146556 -1.392045,1.716857 1.986803,2.996157 3.209543,5.900653 3.50331,8.508878 -0.509767,0.290957 -0.933869,0.711065 -1.229632,1.218036 -0.70611,1.228178 -0.560828,2.768159 0.362505,3.842625 -0.0297,0.05449 -0.05302,0.111363 -0.08404,0.165308 -2.221575,3.847881 -7.693832,5.305542 -14.654177,4.561855 2.210968,-5.936275 3.520709,-13.295154 3.520709,-21.266399 0,-2.299556 -0.113889,-4.544114 -0.321901,-6.722416 2.158569,1.815243 4.095613,3.68293 5.747982,5.562376 0.470163,-0.581169 0.935024,-1.142531 1.345644,-1.716856 -2.110088,-2.392358 -4.626995,-4.756578 -7.470644,-7.003732 -2.14248,-14.872701 -8.993378,-25.755734 -17.119256,-25.755734 -0.06325,0 -0.125469,0.0074 -0.1885,0.0089 -0.469317,-1.33917 -1.733383,-2.235768 -3.152408,-2.235975 z m 3.340909,4.454545 c 6.670608,0 12.346663,8.99349 14.572985,21.617298 -1.785753,-1.276554 -3.669832,-2.506971 -5.666789,-3.659912 -1.38924,-0.802085 -2.784165,-1.495776 -4.176136,-2.180871 -0.941854,0.320163 -1.868533,0.684144 -2.830492,1.067235 1.956792,0.89719 3.926784,1.927316 5.892991,3.0625 2.606696,1.504983 5.024059,3.126792 7.247338,4.81416 0.34839,2.774646 0.551012,5.678254 0.551012,8.688681 0,7.94373 -1.296214,15.236741 -3.456905,20.970587 -2.280654,-0.374789 -4.684445,-0.9563 -7.171937,-1.76036 -0.98634,0.473562 -1.941172,0.930658 -2.923295,1.345644 3.196255,1.15083 6.309952,1.969338 9.254198,2.462175 -2.840203,6.397263 -6.847065,10.391043 -11.29297,10.391043 -6.670072,0 -12.346276,-8.992212 -14.57297,-21.614403 1.783778,1.275544 3.665913,2.505162 5.660985,3.657018 1.389253,0.802085 2.784165,1.495777 4.176136,2.180871 0.941854,-0.320163 1.868533,-0.684144 2.830492,-1.067235 -1.956793,-0.89719 -3.926785,-1.927319 -5.892993,-3.0625 -2.605433,-1.504255 -5.019633,-3.126957 -7.241531,-4.814161 -0.34839,-2.774647 -0.551026,-5.678252 -0.551026,-8.688679 0,-7.94247 1.293941,-15.234264 3.454009,-20.967679 2.278515,0.374301 4.680747,0.953793 7.169042,1.757452 0.986339,-0.473563 1.941171,-0.930658 2.923295,-1.345644 -3.193093,-1.149688 -6.3063,-1.964128 -9.251303,-2.45928 1.720418,-3.875826 3.868208,-6.865464 6.284502,-8.621981 0.507134,0.295931 1.0833,0.452969 1.670453,0.455315 1.410562,-8.26e-4 2.668614,-0.887524 3.143707,-2.215677 0.06593,-0.0015 0.131112,-0.01188 0.197202,-0.01188 z m 18.140096,9.837121 c -1.018457,-0.02154 -2.064845,0.01039 -3.155302,0.0928 0.285402,0.675932 0.575096,1.374671 0.835227,2.088067 6.212769,-0.371048 11.077266,1.128292 13.131628,4.686553 3.155048,5.464672 -1.104344,14.18538 -9.883522,22.087122 -0.07795,1.050068 -0.156311,2.089434 -0.278409,3.108901 C 93.45202,64.839098 98.70194,54.23774 94.83814,47.545454 92.685482,43.816939 88.06679,41.917181 82.124129,41.791666 Z m -8.30587,0.835228 c -5.874862,1.18329 -12.370035,3.603741 -18.746211,7.285037 -1.365125,0.788158 -2.67546,1.612262 -3.944128,2.459279 -0.201569,1.002005 -0.355073,2.009002 -0.510417,3.062499 1.755507,-1.246143 3.601826,-2.43763 5.56818,-3.572914 6.353905,-3.668423 12.759348,-6.103276 18.467803,-7.238637 -0.266724,-0.69531 -0.543648,-1.354894 -0.835227,-1.995264 z M 45.188526,56.872157 C 34.51025,65.888172 29.260332,76.489531 33.12413,83.181817 c 0.03195,0.05524 0.0714,0.104978 0.104384,0.159501 -0.926962,1.07494 -1.073481,2.618248 -0.365407,3.848431 0.92325,1.597829 2.967105,2.144491 4.564755,1.22093 0.381487,-0.220424 0.715605,-0.514143 0.98313,-0.864226 2.85909,1.171234 6.488092,1.599924 10.582443,1.296347 -0.285403,-0.675933 -0.575097,-1.374673 -0.835227,-2.088069 -3.566962,0.213033 -6.67148,-0.194217 -9.059893,-1.249945 -0.003,-0.581704 -0.158078,-1.152509 -0.44952,-1.655947 -0.702397,-1.214992 -2.089246,-1.861495 -3.471413,-1.618247 -0.03368,-0.05493 -0.07215,-0.106463 -0.104385,-0.162413 -3.150045,-5.456001 1.086255,-14.148927 9.83712,-22.04072 0.0784,-1.065853 0.154528,-2.120913 0.278409,-3.155302 z m 20.175956,0.591624 c -0.638944,-0.02999 -1.273079,0.123985 -1.827061,0.443716 -0.506601,0.294965 -0.926679,0.718043 -1.218036,1.226739 -0.509125,-0.295902 -1.087399,-0.451975 -1.676261,-0.452421 -1.845132,0 -3.340908,1.495778 -3.340908,3.340909 0.003,0.588403 0.160794,1.165651 0.458224,1.673352 -0.511188,0.291343 -0.936375,0.712534 -1.232543,1.220947 -0.921586,1.596999 -0.375147,3.638664 1.220932,4.561839 0.511099,0.292337 1.090369,0.444416 1.679155,0.440822 -0.003,0.588787 0.148485,1.168058 0.440822,1.679156 0.923175,1.596079 2.964842,2.142517 4.561841,1.220932 0.510178,-0.294549 0.93339,-0.718771 1.226751,-1.229633 0.506274,0.295425 1.081371,0.452465 1.667545,0.455315 1.845132,0 3.340908,-1.495776 3.340908,-3.340909 -4.45e-4,-0.588861 -0.156518,-1.167136 -0.452404,-1.67626 0.508695,-0.291357 0.931773,-0.711436 1.226739,-1.218036 0.92157,-1.597 0.375131,-3.638667 -1.220947,-4.561842 -0.509392,-0.291357 -1.086539,-0.44339 -1.673351,-0.440822 0.0015,-0.589306 -0.152255,-1.168621 -0.446613,-1.679155 -0.569052,-0.983979 -1.599374,-1.611135 -2.734793,-1.664649 z m -1.829956,6.217803 c 0.509971,0.296388 1.089314,0.452475 1.679154,0.452418 -5.9e-5,0.589841 0.156029,1.169187 0.452419,1.679143 -0.512674,0.294548 -0.937993,0.719869 -1.232543,1.232542 -0.508263,-0.29541 -1.085483,-0.451468 -1.673365,-0.452417 5.8e-4,-0.590823 -0.155523,-1.171235 -0.452403,-1.682052 0.510165,-0.29455 0.93339,-0.718773 1.226738,-1.229634 z M 77.344774,75.29356 c -1.755507,1.246142 -3.601827,2.437629 -5.568182,3.572916 -6.353904,3.668422 -12.759347,6.103276 -18.467801,7.238636 0.266723,0.695309 0.543647,1.354895 0.835227,1.995265 5.874862,-1.18329 12.370033,-3.603743 18.746211,-7.285037 1.365124,-0.788158 2.675458,-1.612264 3.944128,-2.45928 0.201569,-1.002006 0.355072,-2.009002 0.510417,-3.0625 z"
     style="color:#000000;display:inline;overflow:visible;visibility:visible;opacity:0.2;fill:#000000;fill-opacity:1;fill-rule:evenodd;stroke:none;stroke-width:4.45454;marker:none;enable-background:new"
     id="path13528" />
  <path
     d="m 60.643127,26.5 c -1.845132,0 -3.34091,1.495777 -3.34091,3.340909 0.0015,0.440302 0.09043,0.875927 0.261007,1.28184 -2.741431,2.119338 -5.15232,5.552872 -7.044329,9.918327 -1.628938,-0.188012 -3.200769,-0.280666 -4.680747,-0.24941 -5.942658,0.125469 -10.561368,2.025274 -12.714018,5.753788 -2.519175,4.363331 -1.139738,10.396879 3.062505,16.565341 0.43464,-0.573597 0.913725,-1.146556 1.392045,-1.716856 -3.459683,-5.217298 -4.568123,-10.162616 -2.505683,-13.734849 2.21988,-3.844955 7.66764,-5.299973 14.610671,-4.558945 -2.210391,5.935815 -3.517815,13.293403 -3.517815,21.26349 0,2.300565 0.11374,4.546117 0.321916,6.725325 -2.140543,-1.800958 -4.063834,-3.655059 -5.707384,-5.518885 -0.467505,0.581734 -0.937523,1.142161 -1.34565,1.716856 2.102655,2.377465 4.604103,4.729183 7.430052,6.963123 C 49.00821,89.119772 55.859227,100 63.984035,100 c 5.379517,0 10.198074,-4.775633 13.465141,-12.313805 8.157357,0.934683 14.701481,-0.849526 17.388971,-5.504378 0.03255,-0.05642 0.05565,-0.117006 0.08701,-0.174009 1.395855,0.267881 2.808383,-0.376706 3.520723,-1.60665 0.92109,-1.597757 0.37329,-3.639661 -1.223848,-4.561841 -0.38742,-0.221911 -0.8154,-0.363907 -1.258642,-0.417614 -0.42318,-3.057481 -1.874738,-6.409987 -4.18773,-9.805226 -0.434648,0.573597 -0.913733,1.146555 -1.392045,1.716855 1.986795,2.996157 3.209542,5.900654 3.503302,8.50888 -0.50976,0.290957 -0.933862,0.711065 -1.229632,1.218036 -0.706103,1.228178 -0.560828,2.768158 0.362512,3.842625 -0.0297,0.0545 -0.05303,0.111364 -0.08405,0.165308 -2.221567,3.847881 -7.693829,5.305542 -14.654175,4.561856 2.21097,-5.936276 3.52071,-13.295156 3.52071,-21.266402 0,-2.299554 -0.113889,-4.544111 -0.3219,-6.722413 2.158568,1.815242 4.095612,3.682929 5.747982,5.562376 0.470162,-0.58117 0.935023,-1.142532 1.345644,-1.716856 C 86.463929,59.094384 83.947022,56.730163 81.103373,54.483009 78.960886,39.610305 72.109988,28.727273 63.98411,28.727273 c -0.06325,0 -0.12547,0.0074 -0.188502,0.0089 -0.469316,-1.339172 -1.733382,-2.235767 -3.152407,-2.235975 z m 3.340908,4.454546 c 6.670608,0 12.346664,8.993489 14.572986,21.617299 -1.785753,-1.276554 -3.669832,-2.506974 -5.66679,-3.659914 -1.389239,-0.802086 -2.784165,-1.495777 -4.176136,-2.180872 -0.941855,0.320164 -1.868534,0.684145 -2.830493,1.067236 1.956793,0.89719 3.926786,1.927318 5.892993,3.0625 2.606696,1.504983 5.024058,3.126793 7.247337,4.814161 0.34839,2.774647 0.551013,5.678254 0.551013,8.688679 0,7.943733 -1.296213,15.236744 -3.456906,20.97059 -2.280653,-0.37479 -4.684444,-0.956302 -7.171937,-1.760362 -0.98634,0.473563 -1.941172,0.930658 -2.923295,1.345644 3.196255,1.150831 6.309952,1.969339 9.254199,2.462176 -2.840203,6.397262 -6.847067,10.391042 -11.292971,10.391042 -6.670073,0 -12.346277,-8.992211 -14.572971,-21.614403 1.783779,1.275544 3.665913,2.505162 5.660985,3.657018 1.389254,0.802085 2.784165,1.495777 4.176137,2.180871 0.941854,-0.320163 1.868533,-0.684143 2.830492,-1.067234 -1.956793,-0.897191 -3.926786,-1.927319 -5.892993,-3.062501 -2.605434,-1.504255 -5.019633,-3.126957 -7.241532,-4.814161 -0.34839,-2.774647 -0.551027,-5.678253 -0.551027,-8.68868 0,-7.942469 1.293942,-15.234263 3.45401,-20.967679 2.278515,0.374301 4.680747,0.953793 7.169042,1.757452 0.98634,-0.473563 1.941172,-0.930658 2.923295,-1.345644 -3.193092,-1.149688 -6.3063,-1.964128 -9.251304,-2.45928 1.72042,-3.875826 3.868209,-6.865465 6.284503,-8.62198 0.507135,0.295929 1.083301,0.452967 1.670455,0.455313 1.410561,-8.25e-4 2.668614,-0.887523 3.143706,-2.215675 0.06593,-0.0015 0.131112,-0.01188 0.197202,-0.01188 z m 18.140097,9.83712 c -1.018457,-0.02153 -2.064845,0.01039 -3.155303,0.0928 0.285403,0.675933 0.575097,1.374673 0.835228,2.088068 6.212769,-0.371049 11.077263,1.128292 13.131625,4.686553 3.155055,5.464673 -1.104337,14.185381 -9.883519,22.087121 -0.07795,1.05007 -0.15631,2.089434 -0.278409,3.108902 C 93.452027,63.839098 98.70194,53.23774 94.838147,46.545454 92.68549,42.81694 88.066793,40.91718 82.124132,40.791666 Z m -8.305871,0.835227 c -5.874862,1.183291 -12.370035,3.603742 -18.746212,7.285038 -1.365125,0.788158 -2.675459,1.612263 -3.944129,2.45928 -0.201568,1.002005 -0.355072,2.009 -0.510416,3.0625 1.755506,-1.246144 3.601826,-2.437631 5.568181,-3.572916 6.353905,-3.668423 12.759348,-6.103277 18.467804,-7.238637 -0.266724,-0.69531 -0.543648,-1.354895 -0.835228,-1.995265 z M 45.188526,55.872158 C 34.51025,64.888173 29.260332,75.489531 33.12413,82.181817 c 0.03195,0.05524 0.0714,0.104979 0.104385,0.159503 -0.926963,1.074941 -1.073483,2.618248 -0.365408,3.848431 0.92325,1.59783 2.967105,2.144492 4.564755,1.220931 0.381488,-0.220426 0.715605,-0.514144 0.98313,-0.864227 2.859098,1.171234 6.488093,1.599925 10.582444,1.296347 -0.285403,-0.675933 -0.575097,-1.374672 -0.835227,-2.088068 -3.566963,0.213032 -6.671482,-0.194218 -9.059894,-1.249945 -0.003,-0.581704 -0.158078,-1.15251 -0.44952,-1.655948 -0.702398,-1.214992 -2.089245,-1.861495 -3.471413,-1.618247 -0.03368,-0.05494 -0.07215,-0.106464 -0.104385,-0.162413 -3.150045,-5.456002 1.086255,-14.148928 9.83712,-22.04072 0.0784,-1.065853 0.154529,-2.120913 0.278409,-3.155303 z m 20.175959,0.591623 c -0.638946,-0.02999 -1.27308,0.123985 -1.827062,0.443718 -0.506601,0.294964 -0.92668,0.718042 -1.218037,1.226737 -0.509124,-0.295901 -1.087398,-0.451973 -1.676259,-0.452418 -1.845132,0 -3.34091,1.495776 -3.34091,3.340909 0.003,0.588401 0.160795,1.16565 0.458225,1.673349 -0.511189,0.291343 -0.936375,0.712535 -1.232544,1.220947 -0.921585,1.596999 -0.375147,3.638665 1.220932,4.561841 0.5111,0.292337 1.090369,0.444415 1.679156,0.440821 -0.003,0.588787 0.148485,1.168056 0.440822,1.679156 0.923174,1.596078 2.964841,2.142518 4.56184,1.220931 0.51018,-0.294549 0.933391,-0.71877 1.226752,-1.229632 0.506274,0.295425 1.081371,0.452463 1.667545,0.455313 1.845132,0 3.340909,-1.495776 3.340909,-3.340908 -4.46e-4,-0.588861 -0.156518,-1.167136 -0.452404,-1.676261 0.508694,-0.291357 0.931772,-0.711435 1.226737,-1.218036 0.921572,-1.596999 0.375132,-3.638665 -1.220946,-4.56184 -0.509392,-0.291357 -1.086538,-0.443391 -1.67335,-0.440822 0.0015,-0.589307 -0.152256,-1.168621 -0.446613,-1.679156 -0.569053,-0.983979 -1.599374,-1.611135 -2.734793,-1.664649 z m -1.829958,6.217804 c 0.509972,0.29639 1.089315,0.452477 1.679156,0.452418 -5.9e-5,0.589841 0.156028,1.169184 0.452419,1.679141 -0.512674,0.294549 -0.937994,0.719869 -1.232544,1.232542 -0.508263,-0.29541 -1.085483,-0.451467 -1.673364,-0.452418 5.79e-4,-0.590821 -0.155523,-1.171233 -0.452404,-1.682051 0.510164,-0.29455 0.933391,-0.718771 1.226737,-1.229632 z m 13.810249,11.611974 c -1.755506,1.246145 -3.601826,2.437632 -5.568181,3.572917 -6.353904,3.668423 -12.759348,6.103277 -18.467803,7.238637 0.266723,0.69531 0.543647,1.354895 0.835227,1.995265 5.874862,-1.183291 12.370035,-3.603742 18.746212,-7.285038 1.365125,-0.788158 2.67546,-1.612263 3.944129,-2.45928 0.201568,-1.002005 0.355072,-2.009 0.510416,-3.062501 z"
     style="color:#000000;display:inline;overflow:visible;visibility:visible;fill:#ffffff;fill-opacity:1;fill-rule:evenodd;stroke:none;stroke-width:4.45454;marker:none;enable-background:new"
     id="path12916"
     sodipodi:nodetypes="ccccccccccsccccscccccccccccccsccccscccccsccccsccccscsccccscccccccccccccccsccsccccccccccccccccccccccccccccccccccccccccccccccccccscc" />
  <path
     id="rect441"
     style="opacity:0.3;fill:#ffffff"
     d="M 28,9 C 17.474011,9 9,17.474011 9,28 v 1 C 9,18.474011 17.474011,10 28,10 h 72 c 10.52599,0 19,8.474011 19,19 V 28 C 119,17.474011 110.52599,9 100,9 Z" />
  <path
     id="rect443"
     style="opacity:0.3;fill:#ffffff"
     d="m 9,99 v 1 c 0,10.52599 8.474011,19 19,19 h 72 c 10.52599,0 19,-8.47401 19,-19 v -1 c 0,10.52599 -8.47401,19 -19,19 H 28 C 17.474011,118 9,109.52599 9,99 Z" />
  <path
     id="rect899"
     style="fill:#000000;stroke:none;stroke-width:2;opacity:0.5"
     d="M 28,8 C 16.920022,8 8,16.920022 8,28 v 72 c 0,11.07998 8.920022,20 20,20 h 72 c 11.07998,0 20,-8.92002 20,-20 V 28 C 120,16.920022 111.07998,8 100,8 Z m 0,1 h 72 c 10.52599,0 19,8.474011 19,19 v 72 c 0,10.52599 -8.47401,19 -19,19 H 28 C 17.474011,119 9,110.52599 9,100 V 28 C 9,17.474011 17.474011,9 28,9 Z" />
</svg>
