<?xml version="1.0" encoding="UTF-8" standalone="no"?>
<!-- Created with Inkscape (http://www.inkscape.org/) -->

<svg
   width="128"
   height="128"
   viewBox="0 0 128 128.00001"
   version="1.1"
   id="svg5"
   sodipodi:docname="applications-accessories.svg"
   inkscape:version="1.3.2 (091e20ef0f, 2023-11-25, custom)"
   xmlns:inkscape="http://www.inkscape.org/namespaces/inkscape"
   xmlns:sodipodi="http://sodipodi.sourceforge.net/DTD/sodipodi-0.dtd"
   xmlns:xlink="http://www.w3.org/1999/xlink"
   xmlns="http://www.w3.org/2000/svg"
   xmlns:svg="http://www.w3.org/2000/svg">
  <sodipodi:namedview
     id="namedview7"
     pagecolor="#ffffff"
     bordercolor="#666666"
     borderopacity="1.0"
     inkscape:showpageshadow="2"
     inkscape:pageopacity="0.0"
     inkscape:pagecheckerboard="0"
     inkscape:deskcolor="#d1d1d1"
     inkscape:document-units="px"
     showgrid="false"
     inkscape:zoom="6.6015625"
     inkscape:cx="64"
     inkscape:cy="64"
     inkscape:window-width="1920"
     inkscape:window-height="1019"
     inkscape:window-x="0"
     inkscape:window-y="0"
     inkscape:window-maximized="1"
     inkscape:current-layer="svg5" />
  <defs
     id="defs2">
    <linearGradient
       inkscape:collect="always"
       xlink:href="#linearGradient2"
       id="linearGradient32279"
       x1="64"
       y1="120"
       x2="64"
       y2="8"
       gradientUnits="userSpaceOnUse" />
    <linearGradient
       inkscape:collect="always"
       id="linearGradient2">
      <stop
         style="stop-color:#2588d5;stop-opacity:1;"
         offset="0"
         id="stop1" />
      <stop
         style="stop-color:#95cbf5;stop-opacity:1;"
         offset="1"
         id="stop2" />
    </linearGradient>
  </defs>
  <rect
     style="fill:url(#linearGradient32279);fill-opacity:1;stroke:none;stroke-width:2"
     id="rect184"
     width="111"
     height="111"
     x="8.5"
     y="8.5"
     ry="19.5" />
  <path
     d="m 59.905536,25 c -0.3016,0.0344 -0.64852,0.11968 -0.94532,0.16408 -1.76756,3.263436 -6.51992,5.759896 -5.96872,9.632812 1.99536,10.295188 3.87872,20.688372 5.82028,31.054688 -2.22372,1.879968 -4.52952,4.597132 -6.74216,7.257812 -0.1864,-0.32176 -0.3436,-0.661712 -0.57812,-0.945312 -3.32188,-3.989684 -10.28776,-2.465348 -15.50784,3.429688 -5.22188,5.894632 -6.77016,13.966284 -3.45312,17.97656 3.31996,3.997836 10.2772,2.468908 15.5,-3.429688 2.76692,-3.123236 4.42792,-6.882584 4.95312,-10.28906 l 5.41408,-4.093752 3.92968,-4.601564 0.82032,3.83594 2.08592,4.718748 c -2.6146,3.2318 -3.6396,8.650072 -2.25,14.140628 1.9278,7.62635 7.717,12.47324 12.92972,10.82812 5.21636,-1.65696 7.88996,-9.189864 5.96092,-16.812496 -1.78968,-7.078952 -6.89432,-11.782164 -11.78908,-11.101564 l -1.83592,-8.8125 c 6.66144,-7.91034 13.35212,-15.865692 20.02344,-23.6875 2.37624,-3.083796 -0.49744,-7.586008 -0.3908,-11.296872 -0.2304,-0.18608 -0.48776,-0.38912 -0.72656,-0.570316 -7.07016,8.221392 -14.0558,16.538892 -21.07032,24.851564 C 64.060496,46.499676 62.024096,35.698936 59.905536,25 Z m -13.57032,50.093752 c 0.76192,0.07112 1.36692,0.37564 1.78128,0.875 1.47328,1.775476 0.50664,6.675908 -3.00784,10.640624 -3.50788,3.966636 -7.80348,4.954272 -9.27344,3.171872 -1.47252,-1.771196 -0.44252,-6.691172 3.07032,-10.656248 2.1924,-2.479116 4.69876,-3.823436 6.6172,-4.023436 0.2876,-0.03 0.55852,-0.0316 0.81248,-0.008 z m 24.7344,6.718748 c 2.24816,0.15256 5.11148,2.998848 6.24216,7.484376 1.29776,5.127592 -0.2984,9.779814 -2.60936,10.507814 -2.31428,0.73876 -5.8716,-2.264394 -7.16404,-7.390626 -1.2996,-5.127916 0.3032,-9.768844 2.61716,-10.5 0.2892,-0.0914 0.59292,-0.12336 0.91408,-0.10156 z"
     style="display:inline;opacity:0.2;fill:#000000;fill-opacity:1;stroke:none;stroke-width:4;enable-background:new"
     id="path1" />
  <path
     d="m 59.905536,24 c -0.3016,0.0344 -0.64852,0.11968 -0.94532,0.16408 -1.76756,3.263436 -6.51992,5.759896 -5.96872,9.632812 1.99536,10.295188 3.87872,20.688372 5.82028,31.054688 -2.22372,1.879968 -4.52952,4.597132 -6.74216,7.257812 -0.1864,-0.32176 -0.3436,-0.661712 -0.57812,-0.945312 -3.32188,-3.989684 -10.28776,-2.465348 -15.50784,3.429688 -5.22188,5.894632 -6.77016,13.966284 -3.45312,17.97656 3.31996,3.997836 10.2772,2.468908 15.5,-3.429688 2.76692,-3.123236 4.42792,-6.882584 4.95312,-10.28906 l 5.41408,-4.093752 3.92968,-4.601564 0.82032,3.83594 2.08592,4.718748 c -2.6146,3.2318 -3.6396,8.650072 -2.25,14.140628 1.9278,7.62635 7.717,12.47324 12.92972,10.82812 5.21636,-1.65696 7.88996,-9.189864 5.96092,-16.812496 -1.78968,-7.078952 -6.89432,-11.782164 -11.78908,-11.101564 l -1.83592,-8.8125 c 6.66144,-7.91034 13.35212,-15.865692 20.02344,-23.6875 2.37624,-3.083796 -0.49744,-7.586008 -0.3908,-11.296872 -0.2304,-0.18608 -0.48776,-0.38912 -0.72656,-0.570316 -7.07016,8.221392 -14.0558,16.538892 -21.07032,24.851564 C 64.060496,45.499676 62.024096,34.698936 59.905536,24 Z m -13.57032,50.093752 c 0.76192,0.07112 1.36692,0.37564 1.78128,0.875 1.47328,1.775476 0.50664,6.675908 -3.00784,10.640624 -3.50788,3.966636 -7.80348,4.954272 -9.27344,3.171872 -1.47252,-1.771196 -0.44252,-6.691172 3.07032,-10.656248 2.1924,-2.479116 4.69876,-3.823436 6.6172,-4.023436 0.2876,-0.03 0.55852,-0.0316 0.81248,-0.008 z m 24.7344,6.718748 c 2.24816,0.15256 5.11148,2.998848 6.24216,7.484376 1.29776,5.127592 -0.2984,9.779812 -2.60936,10.507812 -2.31428,0.73876 -5.8716,-2.264392 -7.16404,-7.390624 -1.2996,-5.127916 0.3032,-9.768844 2.61716,-10.5 0.2892,-0.0914 0.59292,-0.12336 0.91408,-0.10156 z"
     style="display:inline;fill:#ffffff;fill-opacity:1;stroke:none;stroke-width:4;enable-background:new"
     id="path1-6" />
  <path
     id="rect441"
     style="opacity:0.2;fill:#ffffff"
     d="M 28,9 C 17.474011,9 9,17.474011 9,28 v 1 C 9,18.474011 17.474011,10 28,10 h 72 c 10.52599,0 19,8.474011 19,19 V 28 C 119,17.474011 110.52599,9 100,9 Z" />
  <path
     id="rect443"
     style="opacity:0.2;fill:#ffffff"
     d="m 9,99 v 1 c 0,10.52599 8.474011,19 19,19 h 72 c 10.52599,0 19,-8.47401 19,-19 v -1 c 0,10.52599 -8.47401,19 -19,19 H 28 C 17.474011,118 9,109.52599 9,99 Z" />
  <path
     id="rect899"
     style="fill:#000000;stroke:none;stroke-width:2;opacity:0.5"
     d="M 28,8 C 16.920022,8 8,16.920022 8,28 v 72 c 0,11.07998 8.920022,20 20,20 h 72 c 11.07998,0 20,-8.92002 20,-20 V 28 C 120,16.920022 111.07998,8 100,8 Z m 0,1 h 72 c 10.52599,0 19,8.474011 19,19 v 72 c 0,10.52599 -8.47401,19 -19,19 H 28 C 17.474011,119 9,110.52599 9,100 V 28 C 9,17.474011 17.474011,9 28,9 Z" />
</svg>
