<?xml version="1.0" encoding="UTF-8" standalone="no"?>
<!-- Created with Inkscape (http://www.inkscape.org/) -->

<svg
   width="128"
   height="128"
   viewBox="0 0 128 128.00001"
   version="1.1"
   id="svg5"
   sodipodi:docname="applications-other.svg"
   inkscape:version="1.2.1 (9c6d41e410, 2022-07-14)"
   xmlns:inkscape="http://www.inkscape.org/namespaces/inkscape"
   xmlns:sodipodi="http://sodipodi.sourceforge.net/DTD/sodipodi-0.dtd"
   xmlns:xlink="http://www.w3.org/1999/xlink"
   xmlns="http://www.w3.org/2000/svg"
   xmlns:svg="http://www.w3.org/2000/svg">
  <sodipodi:namedview
     id="namedview7"
     pagecolor="#ffffff"
     bordercolor="#666666"
     borderopacity="1.0"
     inkscape:showpageshadow="2"
     inkscape:pageopacity="0.0"
     inkscape:pagecheckerboard="0"
     inkscape:deskcolor="#d1d1d1"
     inkscape:document-units="px"
     showgrid="false"
     inkscape:zoom="4.4967572"
     inkscape:cx="55.929193"
     inkscape:cy="60.488033"
     inkscape:window-width="1920"
     inkscape:window-height="1007"
     inkscape:window-x="0"
     inkscape:window-y="0"
     inkscape:window-maximized="1"
     inkscape:current-layer="svg5" />
  <defs
     id="defs2">
    <linearGradient
       inkscape:collect="always"
       xlink:href="#linearGradient3585"
       id="linearGradient3525"
       x1="96"
       y1="116"
       x2="24.000002"
       y2="3.9999969"
       gradientUnits="userSpaceOnUse"
       gradientTransform="translate(3.9999978,4.0000032)" />
    <linearGradient
       inkscape:collect="always"
       id="linearGradient3585">
      <stop
         style="stop-color:#adb2b9;stop-opacity:1;"
         offset="0"
         id="stop3581" />
      <stop
         style="stop-color:#e6e6e6;stop-opacity:1"
         offset="1"
         id="stop3583" />
    </linearGradient>
  </defs>
  <rect
     style="fill:url(#linearGradient3525);fill-opacity:1;stroke:none"
     id="rect184"
     width="111"
     height="111"
     x="8.5"
     y="8.5"
     ry="19.5" />
  <path
     d="M 31.999995,57 C 27.58172,57 24,60.58172 24,65 c 0,4.41828 3.58172,8 7.999995,8 4.418277,0 8,-3.58172 8,-8 0,-4.41828 -3.581724,-8 -8,-8 z m 31.999996,0 c -4.41828,0 -7.999996,3.58172 -7.999996,8 0,4.41828 3.581716,8 7.999996,8 4.418281,0 7.999997,-3.58172 7.999997,-8 0,-4.41828 -3.581716,-8 -7.999997,-8 z m 31.999992,0 c -4.418279,0 -8,3.58172 -8,8 0,4.41828 3.581721,8 8,8 4.418277,0 7.999997,-3.58172 7.999997,-8 0,-4.41828 -3.58172,-8 -7.999997,-8 z"
     style="opacity:0.2;fill:#000000;fill-opacity:1;stroke-width:72;stroke-linecap:round;stroke-linejoin:round"
     id="path1082" />
  <path
     id="path1026"
     style="fill:#666666;fill-opacity:1;stroke-width:72;stroke-linecap:round;stroke-linejoin:round"
     d="m 32,56 c -4.41828,0 -8,3.58172 -8,8 0,4.41828 3.58172,8 8,8 4.418275,0 8,-3.58172 8,-8 0,-4.41828 -3.581725,-8 -8,-8 z m 32,0 c -4.418276,0 -7.999997,3.58172 -7.999997,8 0,4.41828 3.58172,8 7.999997,8 4.418279,0 8,-3.58172 8,-8 0,-4.41828 -3.581721,-8 -8,-8 z m 32.000004,0 c -4.41828,0 -8,3.58172 -8,8 0,4.41828 3.58172,8 8,8 C 100.41828,72 104,68.41828 104,64 c 0,-4.41828 -3.58172,-8 -7.999996,-8 z"
     sodipodi:nodetypes="sssssssssssssss" />
  <path
     id="rect441"
     style="opacity:0.3;fill:#ffffff"
     d="M 28,9 C 17.474011,9 9,17.474011 9,28 v 1 C 9,18.474011 17.474011,10 28,10 h 72 c 10.52599,0 19,8.474011 19,19 V 28 C 119,17.474011 110.52599,9 100,9 Z" />
  <path
     id="rect443"
     style="opacity:0.3;fill:#ffffff"
     d="m 9,99 v 1 c 0,10.52599 8.474011,19 19,19 h 72 c 10.52599,0 19,-8.47401 19,-19 v -1 c 0,10.52599 -8.47401,19 -19,19 H 28 C 17.474011,118 9,109.52599 9,99 Z" />
  <path
     id="rect899"
     style="fill:#000000;stroke:none;stroke-width:2;opacity:0.5"
     d="M 28,8 C 16.920022,8 8,16.920022 8,28 v 72 c 0,11.07998 8.920022,20 20,20 h 72 c 11.07998,0 20,-8.92002 20,-20 V 28 C 120,16.920022 111.07998,8 100,8 Z m 0,1 h 72 c 10.52599,0 19,8.474011 19,19 v 72 c 0,10.52599 -8.47401,19 -19,19 H 28 C 17.474011,119 9,110.52599 9,100 V 28 C 9,17.474011 17.474011,9 28,9 Z" />
</svg>
