<?xml version="1.0" encoding="UTF-8" standalone="no"?>
<!-- Created with Inkscape (http://www.inkscape.org/) -->

<svg
   width="128"
   height="128"
   viewBox="0 0 128 128.00001"
   version="1.1"
   id="svg5"
   sodipodi:docname="baloo.svg"
   inkscape:version="1.2.1 (9c6d41e410, 2022-07-14)"
   xmlns:inkscape="http://www.inkscape.org/namespaces/inkscape"
   xmlns:sodipodi="http://sodipodi.sourceforge.net/DTD/sodipodi-0.dtd"
   xmlns:xlink="http://www.w3.org/1999/xlink"
   xmlns="http://www.w3.org/2000/svg"
   xmlns:svg="http://www.w3.org/2000/svg">
  <sodipodi:namedview
     id="namedview7"
     pagecolor="#ffffff"
     bordercolor="#666666"
     borderopacity="1.0"
     inkscape:showpageshadow="2"
     inkscape:pageopacity="0.0"
     inkscape:pagecheckerboard="0"
     inkscape:deskcolor="#d1d1d1"
     inkscape:document-units="px"
     showgrid="false"
     inkscape:zoom="3.1796875"
     inkscape:cx="5.8181818"
     inkscape:cy="85.700245"
     inkscape:window-width="1920"
     inkscape:window-height="1007"
     inkscape:window-x="0"
     inkscape:window-y="0"
     inkscape:window-maximized="1"
     inkscape:current-layer="svg5" />
  <defs
     id="defs2">
    <linearGradient
       inkscape:collect="always"
       xlink:href="#linearGradient1265"
       id="linearGradient3525"
       x1="96"
       y1="116"
       x2="24.000002"
       y2="3.9999969"
       gradientUnits="userSpaceOnUse"
       gradientTransform="translate(3.9999978,4.0000032)" />
    <linearGradient
       inkscape:collect="always"
       id="linearGradient1265">
      <stop
         style="stop-color:#2d7ff3;stop-opacity:1;"
         offset="0"
         id="stop1261" />
      <stop
         style="stop-color:#2cdbfa;stop-opacity:1;"
         offset="1"
         id="stop1263" />
    </linearGradient>
  </defs>
  <rect
     style="fill:url(#linearGradient3525);fill-opacity:1;stroke:none;stroke-width:1"
     id="rect184"
     width="111"
     height="111"
     x="8.5"
     y="8.5"
     ry="19.5" />
  <path
     id="path16580"
     style="opacity:0.2;fill:#000000;stroke-width:3.75;stroke-linecap:round;stroke-linejoin:round"
     d="m 53.479816,25.004422 c -0.540644,0.0092 -1.082584,0.0316 -1.625,0.07032 -7.197508,0.515636 -13.968064,3.608286 -19.070312,8.710938 -11.712672,11.715172 -11.712672,30.706696 0,42.421876 11.173832,11.114474 29.042906,11.687804 40.90625,1.3125 L 97.25325,101.08256 a 2,2 0 0 0 2.82813,0 2,2 0 0 0 0,-2.82813 L 76.565754,74.738798 C 86.95781,62.856222 86.36354,44.952952 75.20638,33.785672 69.438584,28.017644 61.589492,24.865226 53.479816,25.004422 Z m 0.515626,3.992188 c 6.895204,0.001 13.507684,2.741016 18.382812,7.617188 10.15098,10.153152 10.15098,26.612472 0,36.765624 -10.153152,10.150984 -26.612476,10.150984 -36.765624,0 -10.150984,-10.153152 -10.150984,-26.612472 0,-36.765624 4.875128,-4.876172 11.4876,-7.616148 18.382812,-7.617188 z m 0.285156,6.003906 c -0.940356,3.01783 -1.116322,2.871984 -1.40625,6.097656 -1.497698,1.339914 -1.698404,2.865852 -1.632812,4.347656 0.07102,1.609006 1.183352,2.660548 2.484374,2.734376 1.61407,-0.0052 2.55419,-1.594696 2.703126,-3.13672 0.17448,-1.807898 -0.13834,-2.983578 -1.433594,-3.914062 -0.03378,-2.446262 -0.1371,-3.029536 -0.714844,-6.128906 z m -7.464844,3.042968 c -0.940354,3.017832 -1.116326,2.875916 -1.40625,6.101564 -1.497702,1.339916 -1.69841,2.861942 -1.632812,4.34375 0.07102,1.608998 1.175514,2.660546 2.476562,2.734374 1.61407,-0.0052 2.554188,-1.594698 2.703126,-3.136718 0.17446,-1.80789 -0.13054,-2.987488 -1.425782,-3.91797 -0.03378,-2.446264 -0.1371,-3.025624 -0.714844,-6.125 z m 14.519532,0 c -0.577742,3.099374 -0.676908,3.678734 -0.710938,6.125 -1.29526,0.93048 -1.604168,2.110082 -1.429688,3.91797 0.14894,1.542022 1.089056,3.131574 2.703126,3.136718 1.301048,-0.07382 2.40554,-1.125374 2.476562,-2.734374 0.06558,-1.481808 -0.1351,-3.003834 -1.632812,-4.34375 -0.28993,-3.225648 -0.465884,-3.083732 -1.40625,-6.101564 z m 7.71875,5.144532 c -0.57774,3.09937 -0.680808,3.678736 -0.714844,6.125 -1.295258,0.930482 -1.60026,2.110074 -1.425782,3.917968 0.14894,1.54202 1.089048,3.131578 2.703126,3.13672 1.301042,-0.07384 2.40554,-1.125376 2.476562,-2.734376 0.06558,-1.481804 -0.1351,-3.003832 -1.632812,-4.34375 -0.289928,-3.225646 -0.465884,-3.083732 -1.40625,-6.101562 z M 39.05013,44.082548 c -0.940358,3.017832 -1.11633,2.875888 -1.40625,6.101562 -1.497702,1.339914 -1.698408,2.858036 -1.632814,4.339844 0.07102,1.609 1.179426,2.664452 2.48047,2.73828 1.614076,-0.0052 2.554186,-1.598602 2.703124,-3.140624 0.17448,-1.807896 -0.13834,-2.983586 -1.433594,-3.914062 -0.03378,-2.446264 -0.13318,-3.025622 -0.710936,-6.125 z m 14.398436,7.980468 c -2.391192,0.04146 -3.932954,1.333604 -7.828124,4.484376 -5.37849,3.290848 -6.9895,5.1099 -7.066406,9.933592 -0.08512,5.33286 6.812672,7.051426 12.367188,4.6875 1.693192,-0.72055 5.346296,-0.782524 7.296874,0.07422 4.05311,1.311746 11.23709,0.465012 11.351562,-5.375 0.230334,-4.89372 -2.886814,-6.278432 -7.621094,-9.320312 -2.830746,-2.752652 -4.240484,-4.296806 -8.011718,-4.48047 -0.16794,-0.0082 -0.328854,-0.0068 -0.488282,-0.004 z" />
  <path
     d="m 54.282446,34.00051 c -0.940356,3.017834 -1.116792,2.873504 -1.40672,6.09918 -1.4977,1.339916 -1.698418,2.863982 -1.632826,4.345788 0.07102,1.609008 1.180846,2.659254 2.48187,2.733082 1.614072,-0.0052 2.55402,-1.59298 2.702956,-3.135002 0.17448,-1.8079 -0.1366,-2.98324 -1.431852,-3.913724 -0.03378,-2.446264 -0.13568,-3.029948 -0.713428,-6.129324 z m -7.465722,3.044562 c -0.940356,3.017834 -1.116818,2.873524 -1.406742,6.099176 -1.497704,1.339918 -1.698396,2.864012 -1.632798,4.34582 0.07102,1.609002 1.175802,2.659254 2.476852,2.73308 1.614072,-0.0052 2.553994,-1.592986 2.702932,-3.135008 0.17446,-1.807892 -0.13158,-2.988276 -1.426834,-3.918758 -0.03378,-2.446268 -0.13566,-3.024934 -0.71341,-6.12431 z m 14.519484,0 c -0.577742,3.099376 -0.679372,3.678042 -0.713402,6.12431 -1.295262,0.930482 -1.601316,2.110866 -1.426836,3.918758 0.14894,1.542022 1.08886,3.129862 2.702932,3.135008 1.30105,-0.07382 2.40583,-1.124078 2.476852,-2.73308 0.06558,-1.481808 -0.13512,-3.005902 -1.632824,-4.34582 -0.28993,-3.225652 -0.466354,-3.081342 -1.406722,-6.099176 z m 7.716934,5.144622 c -0.57774,3.099374 -0.679372,3.67804 -0.713408,6.124308 -1.29526,0.930482 -1.601314,2.110866 -1.426836,3.918762 0.14894,1.54202 1.08886,3.12986 2.70294,3.135 1.301044,-0.07384 2.405826,-1.124074 2.476848,-2.733076 0.06558,-1.481806 -0.1351,-3.0059 -1.632824,-4.345818 -0.289928,-3.22565 -0.466352,-3.081344 -1.40672,-6.099176 z m -30.003586,0.894284 c -0.940358,3.017836 -1.116818,2.873508 -1.40674,6.099184 -1.497702,1.339916 -1.698394,2.858968 -1.6328,4.340774 0.07102,1.609002 1.180818,2.664268 2.481862,2.738094 1.614078,-0.0052 2.554,-1.597998 2.702938,-3.140022 0.17448,-1.807898 -0.1366,-2.983234 -1.431852,-3.913714 -0.03378,-2.446266 -0.13566,-3.024936 -0.713408,-6.124316 z m 14.398896,7.97818 c -2.391196,0.04146 -3.93229,1.335698 -7.827464,4.48647 -5.378496,3.290854 -6.991902,5.108838 -7.068808,9.932536 -0.08512,5.332862 6.814666,7.051346 12.369186,4.687418 1.693194,-0.720552 5.344334,-0.781364 7.294914,0.07538 4.053114,1.311748 11.239862,0.464304 11.354334,-5.375714 0.230334,-4.893722 -2.887188,-6.277724 -7.621472,-9.319608 -2.83075,-2.752654 -4.242102,-4.29779 -8.01334,-4.481454 -0.16794,-0.0082 -0.327914,-0.0078 -0.487342,-0.005 z"
     id="path3291"
     sodipodi:nodetypes="ccccccccccccccccccccccccccccccccccccccccccccc"
     style="fill:#ffffff;stroke-width:2.57232" />
  <path
     id="path16476"
     style="fill:#d7f2fd;stroke-width:3.75;stroke-linecap:round;stroke-linejoin:round"
     d="m 53.48763,24.004416 c -0.540646,0.0092 -1.082578,0.03546 -1.625,0.07422 -7.197522,0.515636 -13.968054,3.608276 -19.070314,8.710938 -11.712696,11.715196 -11.712696,30.706676 0,42.421876 11.173854,11.11449 29.042882,11.68783 40.90625,1.3125 l 23.562504,23.5625 a 2,2 0 0 0 2.82812,0 2,2 0 0 0 0,-2.82813 L 76.573566,73.742698 C 86.96564,61.860102 86.37137,43.956874 75.214192,32.789572 69.446382,27.021534 61.597322,23.865222 53.48763,24.004416 Z m 0.515624,3.996094 c 6.895222,0.001 13.507674,2.741008 18.382812,7.617188 10.151002,10.15317 10.151002,26.61245 0,36.765624 -10.153174,10.151002 -26.612454,10.151002 -36.765624,0 -10.151002,-10.153174 -10.151002,-26.612454 0,-36.765624 4.875138,-4.87618 11.487588,-7.616148 18.382812,-7.617188 z" />
  <path
     id="rect441"
     style="opacity:0.3;fill:#ffffff"
     d="M 28,9 C 17.474011,9 9,17.474011 9,28 v 1 C 9,18.474011 17.474011,10 28,10 h 72 c 10.52599,0 19,8.474011 19,19 V 28 C 119,17.474011 110.52599,9 100,9 Z" />
  <path
     id="rect443"
     style="opacity:0.3;fill:#ffffff"
     d="m 9,99 v 1 c 0,10.52599 8.474011,19 19,19 h 72 c 10.52599,0 19,-8.47401 19,-19 v -1 c 0,10.52599 -8.47401,19 -19,19 H 28 C 17.474011,118 9,109.52599 9,99 Z" />
  <path
     id="rect899"
     style="fill:#000000;stroke:none;stroke-width:2;opacity:0.5"
     d="M 28,8 C 16.920022,8 8,16.920022 8,28 v 72 c 0,11.07998 8.920022,20 20,20 h 72 c 11.07998,0 20,-8.92002 20,-20 V 28 C 120,16.920022 111.07998,8 100,8 Z m 0,1 h 72 c 10.52599,0 19,8.474011 19,19 v 72 c 0,10.52599 -8.47401,19 -19,19 H 28 C 17.474011,119 9,110.52599 9,100 V 28 C 9,17.474011 17.474011,9 28,9 Z" />
</svg>
