<?xml version="1.0" encoding="UTF-8" standalone="no"?>
<!-- Created with Inkscape (http://www.inkscape.org/) -->

<svg
   width="128"
   height="128"
   viewBox="0 0 128 128.00001"
   version="1.1"
   id="svg5"
   sodipodi:docname="brave.svg"
   inkscape:version="1.2.1 (9c6d41e410, 2022-07-14)"
   xmlns:inkscape="http://www.inkscape.org/namespaces/inkscape"
   xmlns:sodipodi="http://sodipodi.sourceforge.net/DTD/sodipodi-0.dtd"
   xmlns:xlink="http://www.w3.org/1999/xlink"
   xmlns="http://www.w3.org/2000/svg"
   xmlns:svg="http://www.w3.org/2000/svg">
  <sodipodi:namedview
     id="namedview7"
     pagecolor="#ffffff"
     bordercolor="#666666"
     borderopacity="1.0"
     inkscape:showpageshadow="2"
     inkscape:pageopacity="0.0"
     inkscape:pagecheckerboard="0"
     inkscape:deskcolor="#d1d1d1"
     inkscape:document-units="px"
     showgrid="false"
     inkscape:zoom="3.09375"
     inkscape:cx="64.808081"
     inkscape:cy="89.535353"
     inkscape:window-width="1920"
     inkscape:window-height="1007"
     inkscape:window-x="0"
     inkscape:window-y="0"
     inkscape:window-maximized="1"
     inkscape:current-layer="svg5" />
  <defs
     id="defs2">
    <linearGradient
       inkscape:collect="always"
       xlink:href="#linearGradient3475"
       id="linearGradient3525"
       x1="49.837837"
       y1="59.747749"
       x2="14.162162"
       y2="4.2522521"
       gradientUnits="userSpaceOnUse"
       gradientTransform="matrix(2.0181818,0,0,2.0181818,-0.58181789,-0.58181778)" />
    <linearGradient
       inkscape:collect="always"
       id="linearGradient3475">
      <stop
         style="stop-color:#f16649;stop-opacity:1;"
         offset="0"
         id="stop3471" />
      <stop
         style="stop-color:#fd8862;stop-opacity:1;"
         offset="1"
         id="stop3473" />
    </linearGradient>
  </defs>
  <rect
     style="fill:url(#linearGradient3525);fill-opacity:1.0;stroke:none;stroke-width:2.01818"
     id="rect184"
     width="111"
     height="111"
     x="8.5"
     y="8.5"
     ry="19.5" />
  <path
     d="m 51.457031,25 -6.679687,7.132812 c -0.088,0.0294 -0.73722,-0.51987 -1.44922,-0.73047 -1.905996,-0.564798 -4.326658,-0.468242 -5.972656,0.285158 -1.075996,0.492998 -1.491986,0.839804 -4.050782,3.375 C 30.546694,37.796096 30,38.44925 30,39.03125 c 0,0.15 0.99768,1.617628 1.48828,2.765626 l 0.890626,2.089842 -1.144532,3.164063 c -0.629,1.739998 -1.172338,3.258906 -1.210938,3.378906 -0.0976,0.303998 8.834784,34.698407 9.300782,35.816407 0.846,2.027996 2.176348,3.84594 3.902344,5.335938 1.555996,1.343998 17.363689,12.223348 18.929687,13.027348 0.461998,0.23799 1.20575,0.37462 1.84375,0.39062 0.637998,-0.016 1.385656,-0.15262 1.847656,-0.39062 1.565996,-0.804 17.369784,-11.68335 18.925782,-13.027348 1.725996,-1.489998 3.06025,-3.307942 3.90625,-5.335938 0.465998,-1.118 9.394873,-35.512409 9.296873,-35.816407 -0.038,-0.12 -0.580938,-1.638908 -1.210938,-3.378906 l -1.140624,-3.164063 0.886718,-2.089842 c 0.492,-1.147998 1.488282,-2.615626 1.488282,-2.765626 0,-0.582 -0.542786,-1.235154 -3.300782,-3.96875 -2.559994,-2.535196 -2.974784,-2.882002 -4.05078,-3.375 -1.645997,-0.7534 -4.066657,-0.849956 -5.972655,-0.285156 -0.711998,0.210598 -1.365126,0.759868 -1.453126,0.730468 L 76.546875,25 Z m -5.499999,12 c 3.269996,0.3806 5.611533,1.635562 8.769529,2.101562 0.266,0 1.352158,-0.269656 2.410156,-0.597656 C 61.654713,37.105908 63.118187,37 63.992187,37 c 0.875998,0 2.34138,0.1059 6.859374,1.503906 1.058,0.328 2.126908,0.59575 2.378906,0.59375 3.205998,-0.504 5.756786,-1.601056 8.800782,-2.097656 0.59,0 7.544752,9.348033 9.218749,12.332031 0.702,1.247998 0.92528,2.487688 0.613282,3.429686 -0.282,0.848 -1.506818,1.699224 -6.632813,6.44922 -2.353996,2.179998 -4.322906,4.080562 -4.378906,4.226562 -0.246,0.634 -0.05222,1.565816 0.675782,3.257814 0.955998,2.217998 1.07575,3.137814 0.59375,4.507812 -0.514,1.46 -1.27297,2.535378 -2.54297,3.609376 -1.295998,1.093998 -2.086124,2.221562 -2.828124,2.101562 -0.884,-0.144 -6.4005,-3.665782 -7.3125,-4.42578 -2.169998,-1.809998 -4.300906,-3.912314 -4.378906,-4.320314 -0.046,-0.238 0.0394,-0.655688 0.1914,-0.929686 0.15,-0.274 1.729814,-1.74744 3.507812,-3.27344 3.095998,-2.655998 3.65625,-3.275064 3.65625,-4.039062 0,-0.188 -0.550562,-1.68994 -1.226562,-3.335938 -0.968,-2.363998 -1.226656,-3.17375 -1.222656,-3.84375 0.004,-1.058 0.40075,-1.831094 1.21875,-2.371094 0.35,-0.23 2.852408,-1.266688 5.566406,-2.304688 2.711998,-1.037998 5.11975,-1.958874 5.34375,-2.046874 0.244,-0.092 0.349812,-0.216688 0.257812,-0.304688 -0.086,-0.082 -1.58222,-0.2795 -3.324218,-0.4375 -3.737996,-0.337999 -3.655536,-0.346903 -7.769532,1.121094 -2.551996,0.909998 -2.975406,1.111344 -3.191406,1.527344 -0.136,0.262 -0.244188,0.61325 -0.242188,0.78125 0.002,0.168 0.535596,2.594628 1.183594,5.390624 1.11,4.787996 1.160718,5.099 0.88672,5.375 -0.336,0.342 -3.674596,1.358376 -5.308594,1.484376 -1.43,0.112 -6.006658,-0.988844 -6.472656,-1.464844 -0.296,-0.298 -0.266812,-0.496536 0.867186,-5.394532 0.646,-2.795996 1.177688,-5.222624 1.179688,-5.390624 0.002,-0.168 -0.10818,-0.51925 -0.242188,-0.78125 -0.216,-0.414 -0.663346,-0.624532 -3.527344,-1.644532 l -3.285156,-1.167968 -1.785156,0.04688 c -2.361997,0.06 -5.616061,0.420906 -5.664061,0.628906 -0.02,0.09 2.378128,1.085034 5.328125,2.207032 2.949996,1.123998 5.610062,2.215688 5.914062,2.429688 0.747998,0.531998 1.119,1.298314 1.125,2.320312 0.004,0.678 -0.257908,1.495502 -1.253906,3.9375 -1.676,4.109996 -1.861028,3.573378 2.542968,7.359376 1.863998,1.604 3.476126,3.119188 3.578124,3.367188 0.306,0.732 -0.09238,1.30819 -2.234374,3.242188 -2.547998,2.301998 -3.043004,2.63247 -6.375,4.230468 -1.527998,0.734 -2.993906,2.072406 -3.253906,2.066406 -0.728,-0.016 -1.201595,-1.01 -2.433593,-2 -1.325998,-1.067998 -2.204656,-2.300126 -2.722656,-3.828124 -0.476,-1.405998 -0.388344,-2.052908 0.597656,-4.378906 0.718,-1.693998 0.915968,-2.66269 0.667968,-3.30469 -0.054,-0.142 -1.911002,-1.93247 -4.125,-3.980468 -6.581992,-6.083994 -7.21975,-6.375378 -6.96875,-8.109376 0.178,-1.237998 0.80191,-1.65816 3.003908,-4.910156 C 40.920874,43.67541 45.447032,37.3446 45.957032,37 Z m 18.046873,36.191407 c 0.761,0.003 1.53369,0.291282 2.929688,0.863282 2.653998,1.089998 8.205688,3.876468 8.429688,4.230468 0.281998,0.444 0.009,0.76744 -1.710938,2.023438 -3.057998,2.231998 -6.492188,4.539062 -6.492188,4.539062 v 0.004 c -3.285996,2.855997 -3.03819,2.852403 -6.242188,0.0664 0,0 -4.713876,-3.261032 -7.171874,-4.95703 -1.192,-0.824 -1.431032,-1.248844 -0.957032,-1.714844 0.458,-0.452 5.923566,-3.210846 8.351562,-4.214844 1.354,-0.562 2.102284,-0.842844 2.863282,-0.839844 z"
     style="opacity:0.2;fill:#000000;stroke-width:2"
     id="path4712" />
  <path
     id="path2293"
     style="fill:#ffffff;stroke-width:2"
     d="m 51.457032,24 -6.679688,7.132812 c -0.088,0.0294 -0.73722,-0.51987 -1.44922,-0.73047 -1.905996,-0.564798 -4.326658,-0.468242 -5.972656,0.285158 -1.075996,0.492998 -1.491986,0.839804 -4.050782,3.375 C 30.546694,36.796096 30,37.44925 30,38.03125 c 0,0.15 0.99768,1.617628 1.48828,2.765626 l 0.890626,2.089842 -1.144532,3.164064 c -0.629,1.739998 -1.172338,3.258906 -1.210938,3.378906 -0.0976,0.303998 8.834784,34.698406 9.300782,35.816406 0.846,2.027996 2.176348,3.84594 3.902344,5.335938 1.555996,1.343998 17.36369,12.223348 18.929688,13.027348 C 62.618248,103.84737 63.362,103.984 64,104 c 0.637998,-0.016 1.385656,-0.15262 1.847656,-0.39062 1.565996,-0.804 17.369784,-11.68335 18.925782,-13.027348 1.725996,-1.489998 3.06025,-3.307942 3.90625,-5.335938 0.465998,-1.118 9.394874,-35.512408 9.296874,-35.816406 -0.038,-0.12 -0.580938,-1.638908 -1.210938,-3.378906 L 95.625,42.886718 96.511718,40.796876 C 97.003718,39.648878 98,38.18125 98,38.03125 c 0,-0.582 -0.542786,-1.235154 -3.300782,-3.96875 -2.559994,-2.535196 -2.974784,-2.882002 -4.05078,-3.375 -1.645998,-0.7534 -4.066658,-0.849956 -5.972656,-0.285156 -0.711998,0.210598 -1.365126,0.759868 -1.453126,0.730468 L 76.546876,24 Z m -5.5,12 c 3.269996,0.3806 5.611534,1.635562 8.76953,2.101562 0.266,0 1.352158,-0.269656 2.410156,-0.597656 C 61.654714,36.105908 63.118188,36 63.992188,36 c 0.875998,0 2.34138,0.1059 6.859374,1.503906 1.058,0.328 2.126908,0.59575 2.378906,0.59375 3.205998,-0.504 5.756786,-1.601056 8.800782,-2.097656 0.59,0 7.544752,9.348034 9.21875,12.332032 0.702,1.247998 0.92528,2.487688 0.613282,3.429686 -0.282,0.848 -1.506818,1.699224 -6.632814,6.44922 -2.353996,2.179998 -4.322906,4.080562 -4.378906,4.226562 -0.246,0.634 -0.05222,1.565814 0.675782,3.257812 0.955998,2.217998 1.07575,3.137814 0.59375,4.507812 -0.514,1.46 -1.27297,2.535378 -2.54297,3.609376 -1.295998,1.093998 -2.086124,2.221562 -2.828124,2.101562 -0.884,-0.144 -6.4005,-3.665782 -7.3125,-4.42578 -2.169998,-1.809998 -4.300906,-3.912314 -4.378906,-4.320314 -0.046,-0.238 0.0394,-0.655688 0.1914,-0.929686 0.15,-0.274 1.729814,-1.74744 3.507812,-3.273438 3.095998,-2.655998 3.65625,-3.275064 3.65625,-4.039062 0,-0.188 -0.550562,-1.68994 -1.226562,-3.335938 -0.968,-2.363998 -1.226656,-3.17375 -1.222656,-3.84375 0.004,-1.058 0.40075,-1.831094 1.21875,-2.371094 0.35,-0.23 2.852408,-1.266688 5.566406,-2.304688 2.711998,-1.037998 5.11975,-1.958874 5.34375,-2.046874 0.244,-0.092 0.349812,-0.216688 0.257812,-0.304688 -0.086,-0.082 -1.58222,-0.2795 -3.324218,-0.4375 -3.737996,-0.338 -3.655536,-0.346904 -7.769532,1.121094 -2.551996,0.909998 -2.975406,1.111344 -3.191406,1.527344 -0.136,0.262 -0.244188,0.61325 -0.242188,0.78125 0.002,0.168 0.535596,2.594628 1.183594,5.390624 1.11,4.787996 1.160718,5.099 0.88672,5.375 -0.336,0.342 -3.674596,1.358376 -5.308594,1.484376 -1.43,0.112 -6.006658,-0.988844 -6.472656,-1.464844 -0.296,-0.298 -0.266812,-0.496536 0.867186,-5.394532 0.646,-2.795996 1.177688,-5.222624 1.179688,-5.390624 0.002,-0.168 -0.10818,-0.51925 -0.242188,-0.78125 -0.216,-0.414 -0.663346,-0.624532 -3.527344,-1.644532 l -3.285156,-1.167968 -1.785156,0.04688 c -2.361998,0.06 -5.616062,0.420906 -5.664062,0.628906 -0.02,0.09 2.378128,1.085034 5.328126,2.207032 2.949996,1.123998 5.610062,2.215688 5.914062,2.429688 0.747998,0.531998 1.119,1.298314 1.125,2.320312 0.004,0.678 -0.257908,1.495502 -1.253906,3.9375 -1.676,4.109996 -1.861028,3.573378 2.542968,7.359376 1.863998,1.603998 3.476126,3.119186 3.578124,3.367186 0.306,0.732 -0.09238,1.30819 -2.234374,3.242188 -2.547998,2.301998 -3.043004,2.63247 -6.375,4.230468 -1.527998,0.734 -2.993906,2.072406 -3.253906,2.066406 -0.728,-0.016 -1.201596,-1.01 -2.433594,-2 -1.325998,-1.067998 -2.204656,-2.300126 -2.722656,-3.828124 -0.476,-1.405998 -0.388344,-2.052908 0.597656,-4.378906 0.718,-1.693998 0.915968,-2.662688 0.667968,-3.304688 -0.054,-0.142 -1.911002,-1.93247 -4.125,-3.980468 -6.581992,-6.083994 -7.21975,-6.375378 -6.96875,-8.109376 0.178,-1.237998 0.80191,-1.65816 3.003908,-4.910156 C 40.920874,42.67541 45.447032,36.3446 45.957032,36 Z m 18.046874,36.191406 c 0.761,0.003 1.53369,0.291282 2.929688,0.863282 2.653998,1.089998 8.205688,3.876468 8.429688,4.230468 0.281998,0.444 0.009,0.76744 -1.710938,2.023438 -3.057998,2.231998 -6.492188,4.539062 -6.492188,4.539062 v 0.004 c -3.285996,2.855998 -3.03819,2.852404 -6.242188,0.0664 0,0 -4.713876,-3.261032 -7.171874,-4.95703 -1.192,-0.824 -1.431032,-1.248844 -0.957032,-1.714844 0.458,-0.452 5.923566,-3.210846 8.351562,-4.214844 1.354,-0.562 2.102284,-0.842844 2.863282,-0.839844 z"
     sodipodi:nodetypes="cccccscccccccccccccccscccccccccscccccccccccccccscccccccccscccccscccccccccccccccccccccccccccccccccc" />
  <path
     id="rect441"
     style="opacity:0.3;fill:#ffffff"
     d="M 28,9 C 17.474011,9 9,17.474011 9,28 v 1 C 9,18.474011 17.474011,10 28,10 h 72 c 10.52599,0 19,8.474011 19,19 V 28 C 119,17.474011 110.52599,9 100,9 Z" />
  <path
     id="rect443"
     style="opacity:0.3;fill:#ffffff"
     d="m 9,99 v 1 c 0,10.52599 8.474011,19 19,19 h 72 c 10.52599,0 19,-8.47401 19,-19 v -1 c 0,10.52599 -8.47401,19 -19,19 H 28 C 17.474011,118 9,109.52599 9,99 Z" />
  <path
     id="rect899"
     style="fill:#000000;stroke:none;stroke-width:2;opacity:0.5"
     d="M 28,8 C 16.920022,8 8,16.920022 8,28 v 72 c 0,11.07998 8.920022,20 20,20 h 72 c 11.07998,0 20,-8.92002 20,-20 V 28 C 120,16.920022 111.07998,8 100,8 Z m 0,1 h 72 c 10.52599,0 19,8.474011 19,19 v 72 c 0,10.52599 -8.47401,19 -19,19 H 28 C 17.474011,119 9,110.52599 9,100 V 28 C 9,17.474011 17.474011,9 28,9 Z" />
</svg>
