<?xml version="1.0" encoding="UTF-8" standalone="no"?>
<!-- Created with Inkscape (http://www.inkscape.org/) -->

<svg
   width="128"
   height="128"
   viewBox="0 0 128 128.00001"
   version="1.1"
   id="svg5"
   sodipodi:docname="brave.svg"
   inkscape:version="1.2.1 (9c6d41e410, 2022-07-14)"
   xmlns:inkscape="http://www.inkscape.org/namespaces/inkscape"
   xmlns:sodipodi="http://sodipodi.sourceforge.net/DTD/sodipodi-0.dtd"
   xmlns:xlink="http://www.w3.org/1999/xlink"
   xmlns="http://www.w3.org/2000/svg"
   xmlns:svg="http://www.w3.org/2000/svg">
  <sodipodi:namedview
     id="namedview7"
     pagecolor="#ffffff"
     bordercolor="#666666"
     borderopacity="1.0"
     inkscape:showpageshadow="2"
     inkscape:pageopacity="0.0"
     inkscape:pagecheckerboard="0"
     inkscape:deskcolor="#d1d1d1"
     inkscape:document-units="px"
     showgrid="false"
     inkscape:zoom="3.09375"
     inkscape:cx="65.292929"
     inkscape:cy="89.535354"
     inkscape:window-width="1920"
     inkscape:window-height="1012"
     inkscape:window-x="0"
     inkscape:window-y="0"
     inkscape:window-maximized="1"
     inkscape:current-layer="svg5" />
  <defs
     id="defs2">
    <linearGradient
       inkscape:collect="always"
       xlink:href="#linearGradient3475"
       id="linearGradient3525"
       x1="49.837837"
       y1="59.747749"
       x2="14.162162"
       y2="4.2522521"
       gradientUnits="userSpaceOnUse"
       gradientTransform="matrix(2.0181818,0,0,2.0181818,-0.58181789,-0.58181778)" />
    <linearGradient
       inkscape:collect="always"
       id="linearGradient3475">
      <stop
         style="stop-color:#f16649;stop-opacity:1;"
         offset="0"
         id="stop3471" />
      <stop
         style="stop-color:#fd8862;stop-opacity:1;"
         offset="1"
         id="stop3473" />
    </linearGradient>
  </defs>
  <rect
     style="fill:url(#linearGradient3525);fill-opacity:1.0;stroke:none;stroke-width:2.01818"
     id="rect184"
     width="111"
     height="111"
     x="8.5"
     y="8.5"
     ry="19.5" />
  <path
     d="m 63.998144,29.63016 c -1.267284,0 -3.391608,0.553604 -9.936512,2.586168 -1.532804,0.476004 -3.083208,0.862564 -3.448248,0.862004 -0.3648,-4e-4 -3.253612,-0.4968 -6.414504,-1.105924 -3.160648,-0.6096 -5.939936,-1.111524 -6.18186,-1.111524 -0.85616,0 -10.508832,12.7582 -12.9366,17.099492 -1.014884,1.814728 -1.331204,3.620972 -0.879124,4.99082 0.407204,1.233764 1.596648,2.469208 9.023392,9.374988 3.409368,3.170252 6.26506,5.93586 6.34634,6.14786 0.3544,0.922724 0.072,2.274408 -0.981124,4.735696 -1.383284,3.225532 -1.561364,4.571136 -0.862164,6.56194 0.745604,2.122488 1.846168,3.684811 3.686572,5.246019 1.876968,1.592404 3.021612,2.142244 4.094812,1.968004 1.281364,-0.208 9.279632,-4.242972 10.599956,-5.348175 3.144572,-2.632168 6.23322,-5.69218 6.34642,-6.28402 0.064,-0.3456 -0.056,-0.950564 -0.2784,-1.349764 -0.2192,-0.3992 -2.504008,-2.544568 -5.081616,-4.764016 -4.486416,-3.862972 -5.29714,-4.758496 -5.29714,-5.8701 0,-0.2744 0.796804,-2.459128 1.775128,-4.854656 1.402884,-3.436412 1.780964,-4.618652 1.775124,-5.592096 -0.008,-1.539688 -0.5832,-2.658012 -1.769444,-3.442572 -0.5048,-0.3344 -4.133452,-1.842168 -8.064904,-3.351932 -3.931296,-1.509684 -7.420028,-2.850888 -7.747148,-2.977448 -0.3528,-0.1352 -0.5008,-0.3144 -0.3688,-0.4424 0.1232,-0.1184 2.289608,-0.405604 4.815056,-0.635204 5.41594,-0.4928 5.297696,-0.5128 11.257876,1.622004 3.697132,1.324164 4.310572,1.620404 4.622256,2.223208 0.1976,0.3824 0.3544,0.896 0.3512,1.139924 -0.0028,0.244 -0.774404,3.771132 -1.712804,7.837944 -1.607528,6.965064 -1.682168,7.415064 -1.287448,7.815388 0.488004,0.4952 5.32402,1.647124 7.690508,1.831844 2.071764,0.1616 8.709308,-1.113044 9.386268,-1.803524 0.426404,-0.435204 0.3768,-0.720004 -1.264724,-7.843708 -0.937044,-4.066812 -1.704164,-7.594024 -1.707124,-7.837944 -0.0026,-0.244 0.1552,-0.754404 0.3512,-1.134244 0.3112,-0.602404 0.964244,-0.909284 5.115616,-2.393368 l 4.752656,-1.701444 2.591928,0.064 c 3.421452,0.0864 8.132744,0.6112 8.200904,0.913124 0.032,0.1328 -3.439448,1.57688 -7.713144,3.210008 -4.273692,1.633124 -8.130424,3.226328 -8.569624,3.539052 -1.083044,0.7712 -1.624648,1.887604 -1.633368,3.374492 -0.004,0.984084 0.3728,2.172644 1.814888,5.722576 2.428248,5.9777 2.695048,5.20066 -3.686492,10.707796 -2.700008,2.329928 -5.028496,4.527776 -5.178016,4.888736 -0.441604,1.065684 0.1304,1.905364 3.232648,4.718576 3.690732,3.346487 4.410976,3.824491 9.238832,6.148019 2.215604,1.06624 4.336172,1.931204 4.713052,1.922564 1.053284,-0.024 1.748248,-0.3784 3.533372,-1.820564 1.919608,-1.551048 3.186252,-3.347531 3.935932,-5.569379 0.689604,-2.043124 0.566404,-2.979288 -0.86208,-6.36338 -1.040084,-2.463928 -1.327608,-3.871372 -0.969764,-4.803776 0.08,-0.2088 2.770248,-2.814008 5.9777,-5.790576 9.535306,-8.849392 9.879956,-9.276272 9.516746,-11.7966 -0.2592,-1.801128 -0.58,-2.409848 -3.77153,-7.140344 -2.714248,-4.022892 -8.982028,-12.236436 -9.720912,-12.7382 -0.1856,-0.1264 -2.720008,0.2456 -6.30666,0.924404 -3.296808,0.624804 -6.30666,1.140004 -6.69234,1.140004 -0.3856,0 -1.955044,-0.3912 -3.487932,-0.867764 C 67.388076,30.179444 65.263748,29.626 63.996464,29.626 Z m -0.016,53.028251 c -1.102404,0.0052 -2.219764,0.4208 -4.242332,1.253444 -3.845692,1.583684 -11.89012,5.636416 -12.21636,6.15346 -0.4072,0.6464 -0.016,1.11112 2.478488,2.937848 4.432016,3.247132 5.83962,4.368732 9.408992,7.480667 4.761052,4.15105 4.403612,4.14649 9.045948,0.0968 3.217692,-2.807211 6.82322,-5.614983 10.384512,-8.081867 1.728724,-1.197444 2.075448,-1.818168 1.389444,-2.495448 -0.664,-0.656004 -8.578668,-4.663376 -12.097156,-6.12522 -1.961928,-0.815124 -3.049212,-1.224244 -4.151536,-1.219364 z"
     style="display:inline;opacity:0.2;fill:#000000;fill-opacity:1;fill-rule:evenodd;stroke:none;stroke-width:8.00004px;stroke-linecap:butt;stroke-linejoin:miter;stroke-opacity:1;enable-background:new"
     id="path1314" />
  <path
     d="m 63.998144,28.63016 c -1.267284,0 -3.391608,0.553604 -9.936512,2.586168 -1.532804,0.476004 -3.083208,0.862564 -3.448248,0.862004 -0.3648,-4e-4 -3.253612,-0.4968 -6.414504,-1.105924 -3.160648,-0.6096 -5.939936,-1.111524 -6.18186,-1.111524 -0.85616,0 -10.508832,12.7582 -12.9366,17.099492 -1.014884,1.814728 -1.331204,3.620972 -0.879124,4.990816 0.407204,1.233764 1.596648,2.469208 9.023392,9.374992 3.409368,3.170252 6.26506,5.93586 6.34634,6.14786 0.3544,0.922724 0.072,2.274408 -0.981124,4.735696 -1.383284,3.225532 -1.561364,4.571136 -0.862164,6.56194 0.745604,2.122488 1.846168,3.684811 3.686572,5.246019 1.876968,1.592404 3.021612,2.142244 4.094816,1.968004 1.281364,-0.208 9.279628,-4.242971 10.599952,-5.348175 3.144572,-2.632168 6.23322,-5.69218 6.34642,-6.28402 0.064,-0.3456 -0.056,-0.950564 -0.2784,-1.349764 -0.2192,-0.3992 -2.504008,-2.544568 -5.081616,-4.764016 -4.486416,-3.862972 -5.297136,-4.758496 -5.297136,-5.8701 0,-0.2744 0.7968,-2.459128 1.775124,-4.854656 1.402884,-3.436412 1.780964,-4.618656 1.775124,-5.5921 -0.008,-1.539684 -0.5832,-2.658008 -1.769444,-3.442568 -0.5048,-0.3344 -4.133452,-1.842164 -8.064904,-3.351932 -3.931296,-1.509684 -7.420024,-2.850888 -7.747148,-2.977448 -0.3528,-0.1352 -0.5008,-0.3144 -0.3688,-0.4424 0.1232,-0.1184 2.289608,-0.4056 4.815056,-0.635204 5.41594,-0.4928 5.297696,-0.5128 11.257876,1.622004 3.697132,1.324164 4.310572,1.620408 4.622256,2.223208 0.1976,0.3824 0.3544,0.896004 0.3512,1.139924 -0.0028,0.244 -0.774404,3.771132 -1.712804,7.837944 -1.607528,6.965064 -1.682168,7.415064 -1.287448,7.815388 0.488004,0.4952 5.32402,1.647124 7.690508,1.831844 2.071764,0.1616 8.709308,-1.113044 9.386268,-1.803524 0.426404,-0.435204 0.3768,-0.720004 -1.264724,-7.843708 -0.937044,-4.066812 -1.704164,-7.594024 -1.707124,-7.837944 -0.0026,-0.244 0.1552,-0.754404 0.3512,-1.134244 0.3112,-0.6024 0.964244,-0.909284 5.115616,-2.393368 l 4.752656,-1.701444 2.591928,0.064 c 3.421452,0.0864 8.132744,0.611204 8.200904,0.91312 0.032,0.1328 -3.439448,1.576888 -7.713144,3.210012 -4.273692,1.633124 -8.130424,3.226328 -8.569624,3.539052 -1.083044,0.7712 -1.624648,1.887604 -1.633368,3.374488 -0.004,0.984084 0.3728,2.172648 1.814888,5.72258 2.428248,5.9777 2.695048,5.20066 -3.686492,10.707796 -2.700008,2.329928 -5.028496,4.527776 -5.178016,4.888736 -0.441604,1.065684 0.1304,1.905364 3.232648,4.718576 3.690732,3.346488 4.410976,3.824492 9.238832,6.148019 2.215604,1.06624 4.336172,1.931204 4.713052,1.922564 1.053284,-0.024 1.748248,-0.3784 3.533372,-1.820564 1.919608,-1.551048 3.186252,-3.347531 3.935932,-5.569379 0.689604,-2.043124 0.566404,-2.979288 -0.86208,-6.36338 -1.040084,-2.463928 -1.327608,-3.871372 -0.969764,-4.803776 0.08,-0.2088 2.770248,-2.814008 5.9777,-5.790576 9.535306,-8.849392 9.879956,-9.276272 9.516746,-11.7966 -0.2592,-1.801128 -0.58,-2.409848 -3.77153,-7.140344 -2.714248,-4.022892 -8.982028,-12.236436 -9.720912,-12.7382 -0.1856,-0.1264 -2.720008,0.2456 -6.30666,0.924404 -3.296808,0.624804 -6.30666,1.140004 -6.69234,1.140004 -0.3856,0 -1.955044,-0.3912 -3.487932,-0.867764 C 67.388076,29.179444 65.263748,28.626 63.996464,28.626 Z m -0.016,53.028252 c -1.102404,0.0052 -2.219764,0.4208 -4.242332,1.253443 -3.845692,1.583684 -11.89012,5.636416 -12.21636,6.15346 -0.4072,0.6464 -0.016,1.11112 2.478488,2.937848 4.432016,3.247132 5.83962,4.368732 9.408992,7.480664 4.761052,4.151053 4.403612,4.146493 9.045948,0.0968 3.217692,-2.807208 6.82322,-5.61498 10.384512,-8.081864 1.728724,-1.197444 2.075448,-1.818168 1.389444,-2.495448 -0.664,-0.656004 -8.578668,-4.663376 -12.097156,-6.12522 -1.961928,-0.815123 -3.049212,-1.224243 -4.151536,-1.219363 z"
     style="display:inline;fill:#ffffff;fill-opacity:1;fill-rule:evenodd;stroke:none;stroke-width:8.00004px;stroke-linecap:butt;stroke-linejoin:miter;stroke-opacity:1;enable-background:new"
     id="path1128"
     sodipodi:nodetypes="ccccsccccccccccccscccccccccccccccccccccsccccccccccsccccccscccccccccccscc" />
  <path
     id="rect441"
     style="opacity:0.3;fill:#ffffff"
     d="M 28,9 C 17.474011,9 9,17.474011 9,28 v 1 C 9,18.474011 17.474011,10 28,10 h 72 c 10.52599,0 19,8.474011 19,19 V 28 C 119,17.474011 110.52599,9 100,9 Z" />
  <path
     id="rect443"
     style="opacity:0.3;fill:#ffffff"
     d="m 9,99 v 1 c 0,10.52599 8.474011,19 19,19 h 72 c 10.52599,0 19,-8.47401 19,-19 v -1 c 0,10.52599 -8.47401,19 -19,19 H 28 C 17.474011,118 9,109.52599 9,99 Z" />
  <path
     id="rect899"
     style="fill:#000000;stroke:none;stroke-width:2;opacity:0.5"
     d="M 28,8 C 16.920022,8 8,16.920022 8,28 v 72 c 0,11.07998 8.920022,20 20,20 h 72 c 11.07998,0 20,-8.92002 20,-20 V 28 C 120,16.920022 111.07998,8 100,8 Z m 0,1 h 72 c 10.52599,0 19,8.474011 19,19 v 72 c 0,10.52599 -8.47401,19 -19,19 H 28 C 17.474011,119 9,110.52599 9,100 V 28 C 9,17.474011 17.474011,9 28,9 Z" />
</svg>
