<?xml version="1.0" encoding="UTF-8" standalone="no"?>
<!-- Created with Inkscape (http://www.inkscape.org/) -->

<svg
   width="128"
   height="128"
   viewBox="0 0 128 128.00001"
   version="1.1"
   id="svg5"
   sodipodi:docname="com.github.maoschanz.drawing.svg"
   inkscape:version="1.2.1 (9c6d41e410, 2022-07-14)"
   xmlns:inkscape="http://www.inkscape.org/namespaces/inkscape"
   xmlns:sodipodi="http://sodipodi.sourceforge.net/DTD/sodipodi-0.dtd"
   xmlns:xlink="http://www.w3.org/1999/xlink"
   xmlns="http://www.w3.org/2000/svg"
   xmlns:svg="http://www.w3.org/2000/svg">
  <sodipodi:namedview
     id="namedview7"
     pagecolor="#ffffff"
     bordercolor="#666666"
     borderopacity="1.0"
     inkscape:showpageshadow="2"
     inkscape:pageopacity="0.0"
     inkscape:pagecheckerboard="0"
     inkscape:deskcolor="#d1d1d1"
     inkscape:document-units="px"
     showgrid="false"
     inkscape:zoom="6.1875"
     inkscape:cx="64.080808"
     inkscape:cy="64"
     inkscape:window-width="1920"
     inkscape:window-height="1002"
     inkscape:window-x="0"
     inkscape:window-y="0"
     inkscape:window-maximized="1"
     inkscape:current-layer="svg5" />
  <defs
     id="defs2">
    <linearGradient
       inkscape:collect="always"
       xlink:href="#linearGradient2538"
       id="linearGradient3525"
       x1="49.837837"
       y1="59.747749"
       x2="14.162162"
       y2="4.2522521"
       gradientUnits="userSpaceOnUse"
       gradientTransform="matrix(2.0181818,0,0,2.0181818,-0.58181789,-0.58181778)" />
    <linearGradient
       inkscape:collect="always"
       id="linearGradient2538">
      <stop
         style="stop-color:#e02727;stop-opacity:1;"
         offset="0"
         id="stop2534" />
      <stop
         style="stop-color:#eb8075;stop-opacity:1;"
         offset="1"
         id="stop2536" />
    </linearGradient>
  </defs>
  <rect
     style="fill:url(#linearGradient3525);fill-opacity:1.0;stroke:none;stroke-width:2.01818"
     id="rect184"
     width="111"
     height="111"
     x="8.5"
     y="8.5"
     ry="19.5" />
  <path
     d="M 95.365642,32.748 88.385243,39.728399 100.01958,51.362757 107,44.382358 Z M 86.058783,42.055899 55.809667,72.303976 67.444006,83.938315 97.693141,53.689197 Z M 22.713632,65.484517 c -1.9129,-0.0792 -2.39634,2.62 -0.57484,3.20958 2.412,0.8186 2.875439,1.622 3.098799,2.656719 0.22338,1.0347 -0.0842,2.59566 -0.35848,4.33832 -0.274339,1.74266 -0.488199,3.911879 0.93958,5.711619 1.4278,1.79974 3.98282,2.69232 8.195899,2.9619 1.98186,0.1268 3.31446,0.847239 4.38954,1.910499 1.075059,1.06322 1.854159,2.52018 2.378699,4.02478 1.04908,3.009199 1.05036,6.031419 1.05036,6.031419 -0.0326,1.21184 1.2119,2.0417 2.31808,1.54574 l 0.024,0.024 12.797578,-5.817179 1.16428,1.163239 6.980399,-6.980399 -11.634359,-11.633338 -6.980399,6.980419 1.16322,1.16322 -3.432199,7.552099 c -0.1044,-0.36778 -0.21318,-0.73824 -0.34384,-1.11306 -0.63602,-1.82438 -1.60808,-3.73438 -3.17196,-5.281039 -1.56388,-1.54664 -3.759139,-2.67928 -6.493359,-2.85422 -3.811679,-0.24388 -5.324079,-1.08866 -5.827639,-1.72342 -0.50356,-0.63474 -0.51282,-1.597219 -0.26756,-3.155239 0.24528,-1.558 0.77348,-3.46708 0.32504,-5.544399 -0.44844,-2.07732 -2.16436,-4.02728 -5.258039,-5.07722 -0.1554,-0.0554 -0.3181,-0.087 -0.48284,-0.094 z"
     style="color:#000000;font-style:normal;font-variant:normal;font-weight:normal;font-stretch:normal;font-size:medium;line-height:normal;font-family:sans-serif;font-variant-ligatures:normal;font-variant-position:normal;font-variant-caps:normal;font-variant-numeric:normal;font-variant-alternates:normal;font-feature-settings:normal;text-indent:0;text-align:start;text-decoration:none;text-decoration-line:none;text-decoration-style:solid;text-decoration-color:#000000;letter-spacing:normal;word-spacing:normal;text-transform:none;writing-mode:lr-tb;direction:ltr;text-orientation:mixed;dominant-baseline:auto;baseline-shift:baseline;text-anchor:start;white-space:normal;shape-padding:0;clip-rule:nonzero;display:inline;overflow:visible;visibility:visible;opacity:0.2;isolation:auto;mix-blend-mode:normal;color-interpolation:sRGB;color-interpolation-filters:linearRGB;solid-color:#000000;solid-opacity:1;vector-effect:none;fill:#000000;fill-opacity:1;fill-rule:nonzero;stroke:none;stroke-width:3.29062;stroke-linecap:round;stroke-linejoin:miter;stroke-miterlimit:4;stroke-dasharray:none;stroke-dashoffset:0;stroke-opacity:1;color-rendering:auto;image-rendering:auto;shape-rendering:auto;text-rendering:auto;enable-background:accumulate"
     id="path3606" />
  <path
     d="M 95.365642,31.748 88.385243,38.728399 100.01958,50.362757 107,43.382358 Z M 86.058783,41.055899 55.809667,71.303974 67.444006,82.938313 97.693141,52.689197 Z M 22.713632,64.484515 c -1.9129,-0.0792 -2.39634,2.62 -0.57484,3.20958 2.412,0.8186 2.875439,1.622 3.098799,2.65672 0.22338,1.034699 -0.0842,2.595659 -0.35848,4.338319 -0.274339,1.74266 -0.488199,3.911879 0.93958,5.711619 1.4278,1.79974 3.98282,2.69232 8.195899,2.9619 1.98186,0.1268 3.31446,0.84724 4.38954,1.910499 1.075059,1.06322 1.854159,2.52018 2.378699,4.02478 1.04908,3.0092 1.05036,6.031419 1.05036,6.031419 -0.0326,1.21184 1.2119,2.0417 2.31808,1.54574 l 0.024,0.024 12.797578,-5.817179 1.16428,1.16324 6.980399,-6.9804 -11.634359,-11.633338 -6.980399,6.980419 1.16322,1.16322 -3.432199,7.552099 c -0.1044,-0.36778 -0.21318,-0.73824 -0.34384,-1.11306 -0.63602,-1.82438 -1.60808,-3.734379 -3.17196,-5.281039 -1.56388,-1.54664 -3.759139,-2.67928 -6.493359,-2.85422 -3.811679,-0.24388 -5.324079,-1.08866 -5.827639,-1.72342 -0.50356,-0.634739 -0.51282,-1.597219 -0.26756,-3.155239 0.24528,-1.558 0.77348,-3.46708 0.32504,-5.544399 -0.44844,-2.07732 -2.16436,-4.02728 -5.258039,-5.07722 -0.1554,-0.0554 -0.3181,-0.087 -0.48284,-0.094 z"
     style="color:#000000;font-style:normal;font-variant:normal;font-weight:normal;font-stretch:normal;font-size:medium;line-height:normal;font-family:sans-serif;font-variant-ligatures:normal;font-variant-position:normal;font-variant-caps:normal;font-variant-numeric:normal;font-variant-alternates:normal;font-feature-settings:normal;text-indent:0;text-align:start;text-decoration:none;text-decoration-line:none;text-decoration-style:solid;text-decoration-color:#000000;letter-spacing:normal;word-spacing:normal;text-transform:none;writing-mode:lr-tb;direction:ltr;text-orientation:mixed;dominant-baseline:auto;baseline-shift:baseline;text-anchor:start;white-space:normal;shape-padding:0;clip-rule:nonzero;display:inline;overflow:visible;visibility:visible;isolation:auto;mix-blend-mode:normal;color-interpolation:sRGB;color-interpolation-filters:linearRGB;solid-color:#000000;solid-opacity:1;vector-effect:none;fill:#ffffff;fill-opacity:1;fill-rule:nonzero;stroke:none;stroke-width:3.29062;stroke-linecap:round;stroke-linejoin:miter;stroke-miterlimit:4;stroke-dasharray:none;stroke-dashoffset:0;stroke-opacity:1;color-rendering:auto;image-rendering:auto;shape-rendering:auto;text-rendering:auto;enable-background:accumulate"
     id="path435"
     sodipodi:nodetypes="ccccccccccccccsssscccccccccccssscsccc" />
  <path
     id="rect441"
     style="opacity:0.3;fill:#ffffff"
     d="M 28,9 C 17.474011,9 9,17.474011 9,28 v 1 C 9,18.474011 17.474011,10 28,10 h 72 c 10.52599,0 19,8.474011 19,19 V 28 C 119,17.474011 110.52599,9 100,9 Z" />
  <path
     id="rect443"
     style="opacity:0.3;fill:#ffffff"
     d="m 9,99 v 1 c 0,10.52599 8.474011,19 19,19 h 72 c 10.52599,0 19,-8.47401 19,-19 v -1 c 0,10.52599 -8.47401,19 -19,19 H 28 C 17.474011,118 9,109.52599 9,99 Z" />
  <path
     id="rect899"
     style="fill:#000000;stroke:none;stroke-width:2;opacity:0.5"
     d="M 28,8 C 16.920022,8 8,16.920022 8,28 v 72 c 0,11.07998 8.920022,20 20,20 h 72 c 11.07998,0 20,-8.92002 20,-20 V 28 C 120,16.920022 111.07998,8 100,8 Z m 0,1 h 72 c 10.52599,0 19,8.474011 19,19 v 72 c 0,10.52599 -8.47401,19 -19,19 H 28 C 17.474011,119 9,110.52599 9,100 V 28 C 9,17.474011 17.474011,9 28,9 Z" />
</svg>
