<?xml version="1.0" encoding="UTF-8" standalone="no"?>
<!-- Created with Inkscape (http://www.inkscape.org/) -->

<svg
   width="128"
   height="128"
   viewBox="0 0 128 128.00001"
   version="1.1"
   id="svg5"
   sodipodi:docname="deepin-feedback.svg"
   inkscape:version="1.3.2 (091e20ef0f, 2023-11-25, custom)"
   xmlns:inkscape="http://www.inkscape.org/namespaces/inkscape"
   xmlns:sodipodi="http://sodipodi.sourceforge.net/DTD/sodipodi-0.dtd"
   xmlns:xlink="http://www.w3.org/1999/xlink"
   xmlns="http://www.w3.org/2000/svg"
   xmlns:svg="http://www.w3.org/2000/svg">
  <sodipodi:namedview
     id="namedview7"
     pagecolor="#ffffff"
     bordercolor="#666666"
     borderopacity="1.0"
     inkscape:showpageshadow="2"
     inkscape:pageopacity="0.0"
     inkscape:pagecheckerboard="0"
     inkscape:deskcolor="#d1d1d1"
     inkscape:document-units="px"
     showgrid="false"
     inkscape:zoom="6.3125"
     inkscape:cx="64"
     inkscape:cy="64"
     inkscape:window-width="1920"
     inkscape:window-height="1011"
     inkscape:window-x="0"
     inkscape:window-y="0"
     inkscape:window-maximized="1"
     inkscape:current-layer="svg5" />
  <defs
     id="defs2">
    <linearGradient
       inkscape:collect="always"
       xlink:href="#linearGradient1449"
       id="linearGradient3525"
       x1="49.837837"
       y1="59.747749"
       x2="14.162162"
       y2="4.2522521"
       gradientUnits="userSpaceOnUse"
       gradientTransform="matrix(2.0181818,0,0,2.0181818,-0.58181789,-0.58181778)" />
    <linearGradient
       inkscape:collect="always"
       id="linearGradient1449">
      <stop
         style="stop-color:#56c39d;stop-opacity:1;"
         offset="0"
         id="stop1445" />
      <stop
         style="stop-color:#aee5ab;stop-opacity:1;"
         offset="1"
         id="stop1447" />
    </linearGradient>
  </defs>
  <rect
     style="fill:url(#linearGradient3525);fill-opacity:1.0;stroke:none;stroke-width:2.01818"
     id="rect184"
     width="111"
     height="111"
     x="8.5"
     y="8.5"
     ry="19.5" />
  <path
     id="path1035"
     style="opacity:0.2;fill:#000000;stroke-width:8;stroke-linecap:round;stroke-linejoin:round"
     d="m 36,37 c -4.431992,0 -8,3.568008 -8,8 v 32 c 0,4.431992 3.568008,8 8,8 h 8 v 16 L 57.335938,85 H 92 c 4.431992,0 8,-3.568008 8,-8 V 45 c 0,-4.431992 -3.568008,-8 -8,-8 z m 2,10 h 52 v 4 H 38 Z m 0,12 h 52 v 4 H 38 Z m 0,12 h 26 v 4 H 38 Z" />
  <path
     id="rect373"
     style="fill:#ffffff;fill-opacity:1;stroke-width:8;stroke-linecap:round;stroke-linejoin:round"
     d="m 36,36 c -4.431992,0 -8,3.568008 -8,8 v 32 c 0,4.431992 3.568008,8 8,8 h 8 v 16 L 57.335938,84 H 92 c 4.431992,0 8,-3.568008 8,-8 V 44 c 0,-4.431992 -3.568008,-8 -8,-8 z m 2,10 h 52 v 4 H 38 Z m 0,12 h 52 v 4 H 38 Z m 0,12 h 26 v 4 H 38 Z" />
  <path
     id="rect441"
     style="opacity:0.3;fill:#ffffff"
     d="M 28,9 C 17.474011,9 9,17.474011 9,28 v 1 C 9,18.474011 17.474011,10 28,10 h 72 c 10.52599,0 19,8.474011 19,19 V 28 C 119,17.474011 110.52599,9 100,9 Z" />
  <path
     id="rect443"
     style="opacity:0.3;fill:#ffffff"
     d="m 9,99 v 1 c 0,10.52599 8.474011,19 19,19 h 72 c 10.52599,0 19,-8.47401 19,-19 v -1 c 0,10.52599 -8.47401,19 -19,19 H 28 C 17.474011,118 9,109.52599 9,99 Z" />
  <path
     id="rect899"
     style="fill:#000000;stroke:none;stroke-width:2;opacity:0.5"
     d="M 28,8 C 16.920022,8 8,16.920022 8,28 v 72 c 0,11.07998 8.920022,20 20,20 h 72 c 11.07998,0 20,-8.92002 20,-20 V 28 C 120,16.920022 111.07998,8 100,8 Z m 0,1 h 72 c 10.52599,0 19,8.474011 19,19 v 72 c 0,10.52599 -8.47401,19 -19,19 H 28 C 17.474011,119 9,110.52599 9,100 V 28 C 9,17.474011 17.474011,9 28,9 Z" />
</svg>
