<?xml version="1.0" encoding="UTF-8" standalone="no"?>
<!-- Created with Inkscape (http://www.inkscape.org/) -->

<svg
   width="128"
   height="128"
   viewBox="0 0 128 128.00001"
   version="1.1"
   id="svg5"
   sodipodi:docname="deja-dup.svg"
   inkscape:version="1.2.1 (9c6d41e410, 2022-07-14)"
   xmlns:inkscape="http://www.inkscape.org/namespaces/inkscape"
   xmlns:sodipodi="http://sodipodi.sourceforge.net/DTD/sodipodi-0.dtd"
   xmlns:xlink="http://www.w3.org/1999/xlink"
   xmlns="http://www.w3.org/2000/svg"
   xmlns:svg="http://www.w3.org/2000/svg">
  <sodipodi:namedview
     id="namedview7"
     pagecolor="#ffffff"
     bordercolor="#666666"
     borderopacity="1.0"
     inkscape:showpageshadow="2"
     inkscape:pageopacity="0.0"
     inkscape:pagecheckerboard="0"
     inkscape:deskcolor="#d1d1d1"
     inkscape:document-units="px"
     showgrid="false"
     inkscape:zoom="4.4967572"
     inkscape:cx="31.800694"
     inkscape:cy="66.825934"
     inkscape:window-width="1920"
     inkscape:window-height="1007"
     inkscape:window-x="0"
     inkscape:window-y="0"
     inkscape:window-maximized="1"
     inkscape:current-layer="svg5" />
  <defs
     id="defs2">
    <linearGradient
       inkscape:collect="always"
       xlink:href="#4852"
       id="linearGradient3525"
       x1="60.000004"
       y1="116"
       x2="60.000004"
       y2="3.9999969"
       gradientUnits="userSpaceOnUse"
       gradientTransform="translate(3.9999978,4.0000032)" />
    <linearGradient
       inkscape:collect="always"
       id="4852">
      <stop
         style="stop-color:#333333;stop-opacity:1"
         offset="0"
         id="stop14555" />
      <stop
         style="stop-color:#666666;stop-opacity:1"
         offset="1"
         id="stop14557" />
    </linearGradient>
  </defs>
  <rect
     style="fill:url(#linearGradient3525);fill-opacity:1;stroke:none"
     id="rect184"
     width="111"
     height="111"
     x="8.5"
     y="8.5"
     ry="19.5" />
  <path
     d="m 64,29 c -19.882252,0 -36,16.11775 -36,35.999996 0.022,6.52614 1.817984,12.923496 5.195312,18.507816 L 48,64.999994 H 36 C 36,49.536028 48.536028,37 64,37 79.463972,37 92,49.536028 92,64.999994 92,80.463972 79.463972,93 64,93 c -2.20914,0 -4,1.790858 -4,4 0,2.20914 1.79086,4 4,4 0.1934,9.7e-4 0.3866,-0.012 0.578124,-0.0392 C 84.219044,100.64548 99.981216,84.643444 100,64.999994 100,45.11775 83.882252,29 64,29 Z"
     style="opacity:0.2;fill:#000000;stroke-width:4;stroke-linecap:round;stroke-linejoin:round"
     id="path18315" />
  <path
     id="path18282"
     style="opacity:0.5;fill:#ffffff;stroke-width:4.5;stroke-linecap:round;stroke-linejoin:round"
     d="M 64,28 A 36,36 0 0 0 28,64 36,36 0 0 0 64,100 36,36 0 0 0 100,64 36,36 0 0 0 64,28 Z m 0,8 A 28,28 0 0 1 92,64 28,28 0 0 1 64,92 28,28 0 0 1 36,64 28,28 0 0 1 64,36 Z" />
  <path
     id="path18286"
     style="fill:#ffffff;stroke-width:4;stroke-linecap:round;stroke-linejoin:round"
     d="m 64,28 c -19.882252,0 -36,16.11775 -36,36 0.0222,6.526138 1.817982,12.923496 5.195312,18.507812 L 48,64 H 36 c 0,-15.463972 12.536028,-28 28,-28 15.463972,0 28,12.536028 28,28 0,15.463974 -12.536028,28 -28,28 -2.20914,0 -4,1.79086 -4,4 0,2.209142 1.79086,4 4,4 0.1934,9.7e-4 0.3866,-0.012 0.578124,-0.0392 C 84.219044,99.64548 99.981216,83.643442 100,63.999998 100,44.117748 83.882252,27.999998 64,28 Z"
     sodipodi:nodetypes="sccccsssscccs" />
  <path
     id="rect441"
     style="opacity:0.3;fill:#ffffff"
     d="M 28,9 C 17.474011,9 9,17.474011 9,28 v 1 C 9,18.474011 17.474011,10 28,10 h 72 c 10.52599,0 19,8.474011 19,19 V 28 C 119,17.474011 110.52599,9 100,9 Z" />
  <path
     id="rect443"
     style="opacity:0.3;fill:#ffffff"
     d="m 9,99 v 1 c 0,10.52599 8.474011,19 19,19 h 72 c 10.52599,0 19,-8.47401 19,-19 v -1 c 0,10.52599 -8.47401,19 -19,19 H 28 C 17.474011,118 9,109.52599 9,99 Z" />
  <path
     id="rect899"
     style="fill:#000000;stroke:none;stroke-width:2;opacity:0.5"
     d="M 28,8 C 16.920022,8 8,16.920022 8,28 v 72 c 0,11.07998 8.920022,20 20,20 h 72 c 11.07998,0 20,-8.92002 20,-20 V 28 C 120,16.920022 111.07998,8 100,8 Z m 0,1 h 72 c 10.52599,0 19,8.474011 19,19 v 72 c 0,10.52599 -8.47401,19 -19,19 H 28 C 17.474011,119 9,110.52599 9,100 V 28 C 9,17.474011 17.474011,9 28,9 Z" />
</svg>
