<?xml version="1.0" encoding="UTF-8" standalone="no"?>
<!-- Created with Inkscape (http://www.inkscape.org/) -->

<svg
   width="128"
   height="128"
   viewBox="0 0 128 128.00001"
   version="1.1"
   id="svg5"
   sodipodi:docname="desktop-environment-xfce.svg"
   inkscape:version="1.3.2 (091e20ef0f, 2023-11-25, custom)"
   xmlns:inkscape="http://www.inkscape.org/namespaces/inkscape"
   xmlns:sodipodi="http://sodipodi.sourceforge.net/DTD/sodipodi-0.dtd"
   xmlns:xlink="http://www.w3.org/1999/xlink"
   xmlns="http://www.w3.org/2000/svg"
   xmlns:svg="http://www.w3.org/2000/svg">
  <sodipodi:namedview
     id="namedview7"
     pagecolor="#ffffff"
     bordercolor="#666666"
     borderopacity="1.0"
     inkscape:showpageshadow="2"
     inkscape:pageopacity="0.0"
     inkscape:pagecheckerboard="0"
     inkscape:deskcolor="#d1d1d1"
     inkscape:document-units="px"
     showgrid="false"
     inkscape:zoom="6.3125"
     inkscape:cx="64"
     inkscape:cy="64"
     inkscape:window-width="1920"
     inkscape:window-height="1011"
     inkscape:window-x="0"
     inkscape:window-y="0"
     inkscape:window-maximized="1"
     inkscape:current-layer="svg5" />
  <defs
     id="defs2">
    <linearGradient
       inkscape:collect="always"
       xlink:href="#linearGradient3"
       id="linearGradient3525"
       x1="49.837837"
       y1="59.747749"
       x2="14.162162"
       y2="4.2522521"
       gradientUnits="userSpaceOnUse"
       gradientTransform="matrix(2.0181818,0,0,2.0181818,-0.58181789,-0.58181778)" />
    <linearGradient
       inkscape:collect="always"
       id="linearGradient3">
      <stop
         style="stop-color:#3c7cbd;stop-opacity:1;"
         offset="0"
         id="stop2" />
      <stop
         style="stop-color:#79a8d7;stop-opacity:1;"
         offset="1"
         id="stop3" />
    </linearGradient>
  </defs>
  <rect
     style="fill:url(#linearGradient3525);fill-opacity:1.0;stroke:none;stroke-width:2.01818"
     id="rect184"
     width="111"
     height="111"
     x="8.5"
     y="8.5"
     ry="19.5" />
  <path
     id="path2"
     style="opacity:0.2;fill:#000000;stroke-width:8"
     d="M 64,25 A 40,40 0 0 0 24,65 40,40 0 0 0 64,105 40,40 0 0 0 104,65 40,40 0 0 0 64,25 Z m -6.75,14.25 c 0.3128,-0.016 0.64,-0.0088 1,0.0472 0.6008,0.336 3.556688,-0.0752 4.328128,8.281248 0.2048,1.40648 0.49576,4.62272 0.57816,6.04688 0.1608,1.232072 13.5502,0.73056 25.421872,8.5 1.384552,0.83312 7.026864,6.30528 1.296872,11.046872 -2.35128,2.36808 -21.38456,12.216 -22.5,13 C 67.0614,95.145224 77.617344,96.93552 64,97 46.325536,97 32,82.674544 32,65 c 1.14216,-0.84448 4.6924,-0.12912 6.5,-0.45312 2.597676,-0.6112 3.635804,-5.083192 3.828124,-8.546872 -0.0056,-1.54264 -1.11164,-6.32028 -1.125,-7.375 -0.08,-3.67128 3.432116,-5.282208 4.421876,-5.078128 1.0332,0.264 3.168768,0.7056 6.875,9.781256 0.6216,1.15536 0.56104,0.67432 2.328128,0.843744 C 52.985648,48.078768 52.555208,39.521288 57.25,39.250008 Z m 28.328128,8.156248 c 0.0112,-0.008 0.0296,-3.76e-4 0.0472,0.0152 0.464,0.4488 0.08624,8.921816 -1.421872,10.531248 -0.0856,0.0912 -0.52728,-8.28696 1.343744,-10.5 0.02,-0.024 0.02,-0.0392 0.0312,-0.0472 z m 6.125,1.640624 c 0.1384,0.2392 0.28984,0.45992 0.42184,0.70312 -0.90448,2.90592 -4.957432,9.612128 -5.046872,9.078128 -0.2648,-2.42792 3.21436,-8.122208 4.625,-9.781248 z M 66,59.828128 c -1.2752,0 -2.343752,1.086832 -2.343752,2.421872 0,1.3348 1.09948,2.5 2.375,2.5 1.27552,0 2.25,-1.1652 2.25,-2.5 0,-1.33504 -1.005648,-2.421872 -2.281248,-2.421872 z M 60.828128,62.125 c -0.5664,-0.032 -0.55128,4.39856 1.5,5.546872 2.120472,0.9984 5.2296,-0.66032 4.70312,-0.71872 -4.577672,-0.508 -5.378608,-2.64992 -6.07812,-4.75 -0.04,-0.048 -0.08744,-0.076 -0.12504,-0.0784 z m 12.718744,10.484376 c -0.08432,0.0034 -0.176,0.0136 -0.2656,0.016 -2.695192,0.0912 -8.886408,3.890632 -8.406248,4.296872 0.724,0.6128 10.014488,-4.054152 8.906248,-4.296872 -0.0728,-0.016 -0.15008,-0.0192 -0.2344,-0.016 z m 1.375,3.046872 c -0.0712,-0.0032 -0.14752,-3.76e-4 -0.21872,0.0152 -2.138312,0.4824 -6.277112,5.34368 -5.796872,5.75 0.724,0.6128 7.194192,-5.67504 6.218752,-5.75 -0.0616,-0.0028 -0.13216,-0.012 -0.20312,-0.0152 z" />
  <path
     id="path2-6"
     style="fill:#ffffff;stroke-width:8"
     d="M 64,24 A 40,40 0 0 0 24,64 40,40 0 0 0 64,104 40,40 0 0 0 104,64 40,40 0 0 0 64,24 Z m -6.75,14.25 c 0.3128,-0.016 0.64,-0.0092 1,0.04688 0.6008,0.336 3.556688,-0.07504 4.328128,8.281248 0.2048,1.40648 0.49576,4.62272 0.57816,6.04688 0.1608,1.232072 13.5502,0.73056 25.421872,8.5 1.384552,0.83312 7.026864,6.30528 1.296872,11.046872 -2.35128,2.36808 -21.38456,12.216 -22.5,13 C 67.0614,94.145224 77.617344,95.93552 64,96 46.325536,96 32,81.674544 32,64 33.14216,63.15552 36.6924,63.87088 38.5,63.546872 41.097676,62.93568 42.135804,58.46368 42.328124,55 c -0.0056,-1.54264 -1.11164,-6.32028 -1.125,-7.375 -0.08,-3.67128 3.432116,-5.282208 4.421876,-5.078128 1.0332,0.264 3.168768,0.7056 6.875,9.781256 0.6216,1.15536 0.56104,0.67432 2.328128,0.843744 C 52.985648,47.07876 52.555208,38.52128 57.25,38.25 Z m 28.328128,8.156248 c 0.0112,-0.008 0.0296,-3.76e-4 0.0472,0.0152 0.464,0.4488 0.08624,8.921816 -1.421872,10.531248 -0.0856,0.0912 -0.52728,-8.28696 1.343744,-10.5 0.02,-0.024 0.02,-0.0392 0.0312,-0.0472 z m 6.125,1.640624 c 0.1384,0.2392 0.28984,0.45992 0.42184,0.70312 -0.90448,2.90592 -4.957432,9.612128 -5.046872,9.078128 -0.2648,-2.42792 3.21436,-8.122208 4.625,-9.781248 z M 66,58.828128 c -1.2752,0 -2.343752,1.086832 -2.343752,2.421872 0,1.3348 1.09948,2.5 2.375,2.5 1.27552,0 2.25,-1.1652 2.25,-2.5 0,-1.33504 -1.005648,-2.421872 -2.281248,-2.421872 z M 60.828128,61.125 c -0.5664,-0.032 -0.55128,4.39856 1.5,5.546872 2.120472,0.9984 5.2296,-0.66032 4.70312,-0.71872 -4.577672,-0.508 -5.378608,-2.64992 -6.07812,-4.75 -0.04,-0.048 -0.08744,-0.076 -0.12504,-0.0784 z m 12.718744,10.484376 c -0.08432,0.0034 -0.176,0.0136 -0.2656,0.016 -2.695192,0.0912 -8.886408,3.890632 -8.406248,4.296872 0.724,0.6128 10.014488,-4.054152 8.906248,-4.296872 -0.0728,-0.016 -0.15008,-0.0192 -0.2344,-0.016 z m 1.375,3.046872 c -0.0712,-0.0032 -0.14752,-3.76e-4 -0.21872,0.0152 -2.138312,0.4824 -6.277112,5.34368 -5.796872,5.75 0.724,0.6128 7.194192,-5.67504 6.218752,-5.75 -0.0616,-0.0028 -0.13216,-0.012 -0.20312,-0.0152 z" />
  <path
     id="rect441"
     style="opacity:0.2;fill:#ffffff"
     d="M 28,9 C 17.474011,9 9,17.474011 9,28 v 1 C 9,18.474011 17.474011,10 28,10 h 72 c 10.52599,0 19,8.474011 19,19 V 28 C 119,17.474011 110.52599,9 100,9 Z" />
  <path
     id="rect443"
     style="opacity:0.2;fill:#ffffff"
     d="m 9,99 v 1 c 0,10.52599 8.474011,19 19,19 h 72 c 10.52599,0 19,-8.47401 19,-19 v -1 c 0,10.52599 -8.47401,19 -19,19 H 28 C 17.474011,118 9,109.52599 9,99 Z" />
  <path
     id="rect899"
     style="fill:#000000;stroke:none;stroke-width:2;opacity:0.5"
     d="M 28,8 C 16.920022,8 8,16.920022 8,28 v 72 c 0,11.07998 8.920022,20 20,20 h 72 c 11.07998,0 20,-8.92002 20,-20 V 28 C 120,16.920022 111.07998,8 100,8 Z m 0,1 h 72 c 10.52599,0 19,8.474011 19,19 v 72 c 0,10.52599 -8.47401,19 -19,19 H 28 C 17.474011,119 9,110.52599 9,100 V 28 C 9,17.474011 17.474011,9 28,9 Z" />
</svg>
