<?xml version="1.0" encoding="UTF-8" standalone="no"?>
<!-- Created with Inkscape (http://www.inkscape.org/) -->

<svg
   width="128"
   height="128"
   viewBox="0 0 128 128.00001"
   version="1.1"
   id="svg5"
   sodipodi:docname="desktop-environment-gnome.svg"
   inkscape:version="1.2 (dc2aedaf03, 2022-05-15)"
   xmlns:inkscape="http://www.inkscape.org/namespaces/inkscape"
   xmlns:sodipodi="http://sodipodi.sourceforge.net/DTD/sodipodi-0.dtd"
   xmlns:xlink="http://www.w3.org/1999/xlink"
   xmlns="http://www.w3.org/2000/svg"
   xmlns:svg="http://www.w3.org/2000/svg">
  <sodipodi:namedview
     id="namedview7"
     pagecolor="#ffffff"
     bordercolor="#666666"
     borderopacity="1.0"
     inkscape:showpageshadow="2"
     inkscape:pageopacity="0.0"
     inkscape:pagecheckerboard="0"
     inkscape:deskcolor="#d1d1d1"
     inkscape:document-units="px"
     showgrid="false"
     inkscape:zoom="3.1796875"
     inkscape:cx="59.597052"
     inkscape:cy="63.842752"
     inkscape:window-width="1920"
     inkscape:window-height="1007"
     inkscape:window-x="0"
     inkscape:window-y="0"
     inkscape:window-maximized="1"
     inkscape:current-layer="svg5" />
  <defs
     id="defs2">
    <linearGradient
       inkscape:collect="always"
       xlink:href="#linearGradient3030"
       id="linearGradient3525"
       x1="96"
       y1="116"
       x2="24.000002"
       y2="3.9999969"
       gradientUnits="userSpaceOnUse"
       gradientTransform="translate(3.9999978,4.0000032)" />
    <linearGradient
       inkscape:collect="always"
       id="linearGradient3030">
      <stop
         style="stop-color:#4a86cf;stop-opacity:1;"
         offset="0"
         id="stop3026" />
      <stop
         style="stop-color:#70b7df;stop-opacity:1;"
         offset="1"
         id="stop3028" />
    </linearGradient>
  </defs>
  <rect
     style="fill:url(#linearGradient3525);fill-opacity:1;stroke:none"
     id="rect184"
     width="111"
     height="111"
     x="8.5"
     y="8.5"
     ry="19.5" />
  <path
     id="path7698"
     style="opacity:0.2;fill:#000000;stroke-width:7"
     d="M 92.672898,21 C 74.901541,21 71.570041,47 81.567421,47 91.563361,47 110.44498,21 92.672898,21 Z m -27.300777,4 c -0.2868,-0.001 -0.58852,0.02 -0.90626,0.0625 -10.16406,1.360856 -6.5917,19.59282 -1.17968,19.9336 5.24076,0.33014 10.97666,-19.964586 2.08594,-19.9961 z m -18.589843,4.003906 c -0.22716,-0.0114 -0.45978,-0.0042 -0.70314,0.0196 -0.51916,0.05066 -1.07726,0.1845 -1.67186,0.410156 -9.51556,3.611484 -1.44398,18.521498 3.88672,17.519538 4.845243,-0.90856 5.530043,-17.598324 -1.51172,-17.949226 z M 33.567418,43 c -0.84938,-0.0226 -1.77202,0.2003 -2.75,0.73828 -7.82024,4.30448 2.63726,14.70644 7.2383,13.09376 4.0259,-1.41172 1.45738,-13.67264 -4.4883,-13.83204 z m 37.156263,8 C 57.238401,50.76042 39.448778,57.86904 36.415078,72.13672 33.129478,87.5768 49.941338,109 67.481501,109 c 8.62884,0 18.58324,-8.78288 20.4453,-19.14844 0.67986,-3.77872 -3.53598,-5.14908 -8.05078,-4.85156 -4.92926,0.32484 -10.21554,2.61386 -9.875,5.34376 0.53278,4.2729 -1.00882,6.58668 -4.08202,6.65624 -4.19584,-0.51042 -7.36598,-2.4356 -7.91798,-6.10938 -0.75142,-9.64696 30.22922,-16.52194 27.83204,-31.48046 C 84.956281,53.9391 78.814841,51.14376 70.723681,51 Z" />
  <path
     id="path7665"
     style="fill:#ffffff;stroke-width:7"
     d="M 92.672898,20 C 74.90154,20 71.57004,46 81.56742,46 91.56336,46 110.44498,20 92.672898,20 Z M 65.37212,24 C 65.08532,23.999 64.7836,24.02 64.46586,24.0625 54.3018,25.423356 57.87416,43.65532 63.28618,43.9961 68.52694,44.32624 74.26284,24.031514 65.37212,24 Z m -18.589843,4.003906 c -0.22716,-0.0114 -0.45978,-0.0042 -0.70314,0.0196 -0.51916,0.05066 -1.07726,0.1845 -1.67186,0.410156 -9.51556,3.611484 -1.44398,18.521498 3.88672,17.519538 4.845243,-0.90856 5.530043,-17.598324 -1.51172,-17.949226 z M 33.567417,42 c -0.84938,-0.0226 -1.77202,0.2003 -2.75,0.73828 -7.82024,4.30448 2.63726,14.70644 7.2383,13.09376 C 42.081617,54.42032 39.513097,42.1594 33.567417,42 Z M 70.72368,50 C 57.2384,49.76042 39.448777,56.86904 36.415077,71.13672 33.129477,86.5768 49.941337,108 67.4815,108 76.11034,108 86.06474,99.21712 87.9268,88.85156 88.60666,85.07284 84.39082,83.70248 79.87602,84 74.94676,84.32484 69.66048,86.61386 70.00102,89.34376 70.5338,93.61666 68.9922,95.93044 65.919,96 61.72316,95.48958 58.55302,93.5644 58.00102,89.89062 57.2496,80.24366 88.23024,73.36868 85.83306,58.41016 84.95628,52.9391 78.81484,50.14376 70.72368,50 Z" />
  <path
     id="rect441"
     style="opacity:0.3;fill:#ffffff"
     d="M 28,9 C 17.474011,9 9,17.474011 9,28 v 1 C 9,18.474011 17.474011,10 28,10 h 72 c 10.52599,0 19,8.474011 19,19 V 28 C 119,17.474011 110.52599,9 100,9 Z" />
  <path
     id="rect443"
     style="opacity:0.3;fill:#ffffff"
     d="m 9,99 v 1 c 0,10.52599 8.474011,19 19,19 h 72 c 10.52599,0 19,-8.47401 19,-19 v -1 c 0,10.52599 -8.47401,19 -19,19 H 28 C 17.474011,118 9,109.52599 9,99 Z" />
  <path
     id="rect899"
     style="fill:#000000;stroke:none;stroke-width:2;opacity:0.5"
     d="M 28,8 C 16.920022,8 8,16.920022 8,28 v 72 c 0,11.07998 8.920022,20 20,20 h 72 c 11.07998,0 20,-8.92002 20,-20 V 28 C 120,16.920022 111.07998,8 100,8 Z m 0,1 h 72 c 10.52599,0 19,8.474011 19,19 v 72 c 0,10.52599 -8.47401,19 -19,19 H 28 C 17.474011,119 9,110.52599 9,100 V 28 C 9,17.474011 17.474011,9 28,9 Z" />
</svg>
