<?xml version="1.0" encoding="UTF-8" standalone="no"?>
<!-- Created with Inkscape (http://www.inkscape.org/) -->

<svg
   width="128"
   height="128"
   viewBox="0 0 128 128.00001"
   version="1.1"
   id="svg5"
   sodipodi:docname="devhelp.svg"
   inkscape:version="1.2.1 (9c6d41e410, 2022-07-14)"
   xmlns:inkscape="http://www.inkscape.org/namespaces/inkscape"
   xmlns:sodipodi="http://sodipodi.sourceforge.net/DTD/sodipodi-0.dtd"
   xmlns:xlink="http://www.w3.org/1999/xlink"
   xmlns="http://www.w3.org/2000/svg"
   xmlns:svg="http://www.w3.org/2000/svg">
  <sodipodi:namedview
     id="namedview7"
     pagecolor="#ffffff"
     bordercolor="#666666"
     borderopacity="1.0"
     inkscape:showpageshadow="2"
     inkscape:pageopacity="0.0"
     inkscape:pagecheckerboard="0"
     inkscape:deskcolor="#d1d1d1"
     inkscape:document-units="px"
     showgrid="false"
     inkscape:zoom="3.2070313"
     inkscape:cx="12.628502"
     inkscape:cy="60.336175"
     inkscape:window-width="1920"
     inkscape:window-height="1007"
     inkscape:window-x="0"
     inkscape:window-y="0"
     inkscape:window-maximized="1"
     inkscape:current-layer="svg5" />
  <defs
     id="defs2">
    <linearGradient
       inkscape:collect="always"
       xlink:href="#linearGradient5312"
       id="linearGradient3525"
       x1="96"
       y1="116"
       x2="24.000002"
       y2="3.9999969"
       gradientUnits="userSpaceOnUse"
       gradientTransform="translate(3.9999978,4.0000032)" />
    <linearGradient
       inkscape:collect="always"
       id="linearGradient5312">
      <stop
         style="stop-color:#c72222;stop-opacity:1;"
         offset="0"
         id="stop5308" />
      <stop
         style="stop-color:#cf5b5b;stop-opacity:1;"
         offset="1"
         id="stop5310" />
    </linearGradient>
  </defs>
  <rect
     style="fill:url(#linearGradient3525);fill-opacity:1.0;stroke:none"
     id="rect184"
     width="111"
     height="111"
     x="8.5"
     y="8.5"
     ry="19.5" />
  <path
     d="m 68,44.876 c -3.59488,3.6e-5 -7.56928,0.640016 -9.375,1.75 C 56.83584,47.721044 56,49.410996 56,51.751 v 9.126499 c 0,1.395036 -0.65664,2.310008 -1.75,3 -1.0768,0.675024 -2.01356,1.12502 -4.25,1.125004 v 4 c 4.4066,8e-6 6,1.459972 6,4.25 v 8.3755 c 0,2.565024 0.8268,4.484976 2.5,5.625 1.68976,1.155004 5.6732,1.719988 9.5,1.75 v -4.125 c -1.90512,-0.03 -5.90512,-0.37 -6.75,-1 -0.84488,-0.630004 -1.25,-1.519988 -1.25,-2.75 v -8.7505 c 0,-1.227204 -0.45636,-4.83498 -4.25,-5.375 v -0.25 C 59.54364,66.167511 60,63.258419 60,61.502499 V 52.751 c 0,-1.229992 0.40512,-2.009964 1.25,-2.625 0.86144,-0.62998 4.86144,-1.049972 6.75,-1.125 z m 12,0 v 4.125 c 1.88856,0.07504 5.88856,0.49502 6.75,1.125 0.84488,0.615036 1.25,1.395008 1.25,2.625 v 8.751499 c 0,1.75592 0.45636,4.665012 4.25,5.250004 v 0.25 c -3.79364,0.54002 -4.25,4.147796 -4.25,5.375 v 8.7505 c 0,1.230012 -0.40512,2.119996 -1.25,2.75 -0.84484,0.629996 -4.84488,0.97 -6.75,1 v 4.125 c 3.8268,-0.03 7.81028,-0.594996 9.5,-1.75 1.6732,-1.140024 2.5,-3.059976 2.5,-5.625 v -8.3755 c 0,-2.790028 1.5934,-4.249992 6,-4.25 v -4 c -2.23644,1.6e-5 -3.1732,-0.44998 -4.25,-1.125004 -1.09336,-0.689992 -1.75,-1.604964 -1.75,-3 V 51.751 C 92,49.410996 91.16416,47.721044 89.375,46.626 87.56928,45.516016 83.59488,44.876036 80,44.876 Z"
     style="color:#000000;font-style:normal;font-variant:normal;font-weight:600;font-stretch:normal;font-size:19px;line-height:125%;font-family:'Open Sans';-inkscape-font-specification:'Open Sans Semi-Bold';text-align:start;letter-spacing:0px;word-spacing:0px;writing-mode:lr-tb;text-anchor:start;clip-rule:nonzero;display:inline;overflow:visible;visibility:visible;opacity:0.2;isolation:auto;mix-blend-mode:normal;color-interpolation:sRGB;color-interpolation-filters:linearRGB;solid-color:#000000;solid-opacity:1;fill:#000000;fill-opacity:1;fill-rule:nonzero;stroke:none;stroke-width:4;stroke-linecap:butt;stroke-linejoin:miter;stroke-miterlimit:4;stroke-dasharray:none;stroke-dashoffset:0;stroke-opacity:1;marker:none;color-rendering:auto;image-rendering:auto;shape-rendering:auto;text-rendering:auto;enable-background:accumulate"
     id="path1706"
     sodipodi:nodetypes="ccsscccsscccsssccssccccccssccssscccsscccsscc" />
  <path
     d="m 68,43.874494 c -3.59488,3.6e-5 -7.56928,0.640016 -9.375,1.75 C 56.83584,46.719538 56,48.40949 56,50.749494 v 9.126499 c 0,1.395036 -0.65664,2.310008 -1.75,3 -1.0768,0.675024 -2.01356,1.125016 -4.25,1.125 v 4 c 4.4066,8e-6 6,1.459972 6,4.25 v 8.3755 c 0,2.565024 0.8268,4.484976 2.5,5.625 1.68976,1.155004 5.6732,1.719988 9.5,1.75 v -4.125 c -1.90512,-0.03 -5.90512,-0.37 -6.75,-1 -0.84488,-0.630004 -1.25,-1.519988 -1.25,-2.75 v -8.7505 c 0,-1.227204 -0.45636,-4.83498 -4.25,-5.375 v -0.25 c 3.79364,-0.584992 4.25,-3.49408 4.25,-5.25 v -8.751499 c 0,-1.229992 0.40512,-2.009964 1.25,-2.625 0.86144,-0.62998 4.86144,-1.049972 6.75,-1.125 z m 12,0 v 4.125 c 1.88856,0.07504 5.88856,0.49502 6.75,1.125 0.84488,0.615036 1.25,1.395008 1.25,2.625 v 8.751499 c 0,1.75592 0.45636,4.665008 4.25,5.25 v 0.25 c -3.79364,0.54002 -4.25,4.147796 -4.25,5.375 v 8.7505 c 0,1.230012 -0.40512,2.119996 -1.25,2.75 -0.84484,0.629996 -4.84488,0.97 -6.75,1 v 4.125 c 3.8268,-0.03 7.81028,-0.594996 9.5,-1.75 1.6732,-1.140024 2.5,-3.059976 2.5,-5.625 v -8.3755 c 0,-2.790028 1.5934,-4.249992 6,-4.25 v -4 c -2.23644,1.6e-5 -3.1732,-0.449976 -4.25,-1.125 -1.09336,-0.689992 -1.75,-1.604964 -1.75,-3 v -9.126499 c 0,-2.340004 -0.83584,-4.029956 -2.625,-5.125 -1.80572,-1.109984 -5.78012,-1.749964 -9.375,-1.75 z"
     style="color:#000000;font-style:normal;font-variant:normal;font-weight:600;font-stretch:normal;font-size:19px;line-height:125%;font-family:'Open Sans';-inkscape-font-specification:'Open Sans Semi-Bold';text-align:start;letter-spacing:0px;word-spacing:0px;writing-mode:lr-tb;text-anchor:start;clip-rule:nonzero;display:inline;overflow:visible;visibility:visible;isolation:auto;mix-blend-mode:normal;color-interpolation:sRGB;color-interpolation-filters:linearRGB;solid-color:#000000;solid-opacity:1;fill:#ffffff;fill-opacity:1;fill-rule:nonzero;stroke:none;stroke-width:4;stroke-linecap:butt;stroke-linejoin:miter;stroke-miterlimit:4;stroke-dasharray:none;stroke-dashoffset:0;stroke-opacity:1;marker:none;color-rendering:auto;image-rendering:auto;shape-rendering:auto;text-rendering:auto;enable-background:accumulate"
     id="path1650"
     sodipodi:nodetypes="ccsscccsscccsssccssccccccssccssscccsscccsscc" />
  <path
     id="rect1477"
     style="opacity:0.5;fill:#000000;stroke-width:8;stroke-linecap:round;stroke-linejoin:round"
     d="M 28 8.5 C 17.197011 8.5 8.5 17.197011 8.5 28 L 8.5 100 C 8.5 110.80299 17.197011 119.5 28 119.5 L 32 119.5 L 32 8.5 L 28 8.5 z " />
  <path
     id="rect441"
     style="opacity:0.3;fill:#ffffff"
     d="M 28,9 C 17.474011,9 9,17.474011 9,28 v 1 C 9,18.474011 17.474011,10 28,10 h 72 c 10.52599,0 19,8.474011 19,19 V 28 C 119,17.474011 110.52599,9 100,9 Z" />
  <path
     id="rect443"
     style="opacity:0.3;fill:#ffffff"
     d="m 9,99 v 1 c 0,10.52599 8.474011,19 19,19 h 72 c 10.52599,0 19,-8.47401 19,-19 v -1 c 0,10.52599 -8.47401,19 -19,19 H 28 C 17.474011,118 9,109.52599 9,99 Z" />
  <path
     id="rect899"
     style="fill:#000000;stroke:none;stroke-width:2;opacity:0.5"
     d="M 28,8 C 16.920022,8 8,16.920022 8,28 v 72 c 0,11.07998 8.920022,20 20,20 h 72 c 11.07998,0 20,-8.92002 20,-20 V 28 C 120,16.920022 111.07998,8 100,8 Z m 0,1 h 72 c 10.52599,0 19,8.474011 19,19 v 72 c 0,10.52599 -8.47401,19 -19,19 H 28 C 17.474011,119 9,110.52599 9,100 V 28 C 9,17.474011 17.474011,9 28,9 Z" />
</svg>
