<?xml version="1.0" encoding="UTF-8" standalone="no"?>
<!-- Created with Inkscape (http://www.inkscape.org/) -->

<svg
   width="128"
   height="128"
   viewBox="0 0 128 128.00001"
   version="1.1"
   id="svg5"
   sodipodi:docname="digikam.svg"
   inkscape:version="1.2.1 (9c6d41e410, 2022-07-14)"
   xmlns:inkscape="http://www.inkscape.org/namespaces/inkscape"
   xmlns:sodipodi="http://sodipodi.sourceforge.net/DTD/sodipodi-0.dtd"
   xmlns:xlink="http://www.w3.org/1999/xlink"
   xmlns="http://www.w3.org/2000/svg"
   xmlns:svg="http://www.w3.org/2000/svg">
  <sodipodi:namedview
     id="namedview7"
     pagecolor="#ffffff"
     bordercolor="#666666"
     borderopacity="1.0"
     inkscape:showpageshadow="2"
     inkscape:pageopacity="0.0"
     inkscape:pagecheckerboard="0"
     inkscape:deskcolor="#d1d1d1"
     inkscape:document-units="px"
     showgrid="false"
     inkscape:zoom="6.0625"
     inkscape:cx="64.082474"
     inkscape:cy="64"
     inkscape:window-width="1920"
     inkscape:window-height="1002"
     inkscape:window-x="0"
     inkscape:window-y="0"
     inkscape:window-maximized="1"
     inkscape:current-layer="svg5" />
  <defs
     id="defs2">
    <linearGradient
       inkscape:collect="always"
       xlink:href="#linearGradient2466"
       id="linearGradient3525"
       x1="49.837837"
       y1="59.747749"
       x2="14.162162"
       y2="4.2522521"
       gradientUnits="userSpaceOnUse"
       gradientTransform="matrix(2.0181818,0,0,2.0181818,-0.58181789,-0.58181778)" />
    <linearGradient
       inkscape:collect="always"
       id="linearGradient2466">
      <stop
         style="stop-color:#366ecb;stop-opacity:1;"
         offset="0"
         id="stop2462" />
      <stop
         style="stop-color:#3694cb;stop-opacity:1;"
         offset="1"
         id="stop2464" />
    </linearGradient>
  </defs>
  <rect
     style="fill:url(#linearGradient3525);fill-opacity:1.0;stroke:none;stroke-width:2.01818"
     id="rect184"
     width="111"
     height="111"
     x="8.5"
     y="8.5"
     ry="19.5" />
  <path
     d="m 54.996089,35.000015 c -1.053526,0.0024 -2.026114,0.556502 -2.566406,1.460938 l -5.121094,8.539062 H 34 c -3.324004,0 -6,2.676 -6,5.999999 v 38.000004 c 0,3.323996 2.675996,6 6,6 h 60 c 3.323996,0 6,-2.676004 6,-6 V 51.000014 c 0,-3.323999 -2.676004,-5.999999 -6,-5.999999 H 80.695309 l -5.117192,-8.539062 c -0.542988,-0.908958 -1.52324,-1.463744 -2.582029,-1.460938 z m 9.003907,17.999999 c 8.836554,0 15.999999,7.163444 15.999999,15.999999 0,8.83656 -7.163445,16.000004 -15.999999,16.000004 -8.836556,0 -16.000001,-7.163444 -16.000001,-16.000004 0,-8.836555 7.163445,-15.999999 16.000001,-15.999999 z m 0,4 c -6.627416,0 -12.000001,5.372584 -12.000001,11.999999 0,6.627418 5.372585,12.000002 12.000001,12.000002 6.627416,0 12.000005,-5.372584 12.000005,-12.000002 0,-6.627415 -5.372589,-11.999999 -12.000005,-11.999999 z"
     style="opacity:0.2;fill:#000000;fill-opacity:1;stroke-width:13.9576;stroke-linejoin:round"
     id="path10249" />
  <path
     id="rect849"
     style="fill:#ffffff;fill-opacity:1;stroke-width:3.69294;stroke-linejoin:round"
     d="m 54.996094,34.00001 c -1.053526,0.0024 -2.026114,0.556502 -2.566406,1.460938 L 47.308594,44.00001 H 34 c -3.324,0 -6,2.676 -6,6 v 38 c 0,3.324 2.676,6 6,6 h 60 c 3.324,0 6,-2.676 6,-6 v -38 c 0,-3.324 -2.676,-6 -6,-6 H 80.695312 l -5.117188,-8.539062 c -0.542992,-0.908958 -1.52324,-1.463744 -2.58203,-1.460938 z m 9.003906,18 c 8.836556,0 16,7.163444 16,16 0,8.836556 -7.163444,16 -16,16 -8.836556,0 -16,-7.163444 -16,-16 0,-8.836556 7.163444,-16 16,-16 z m 0,4 c -6.627416,0 -12,5.372584 -12,12 0,6.627416 5.372584,12 12,12 6.627416,0 12,-5.372584 12,-12 0,-6.627416 -5.372584,-12 -12,-12 z"
     sodipodi:nodetypes="cccssssssssccccssssssssss" />
  <path
     id="rect441"
     style="opacity:0.3;fill:#ffffff"
     d="M 28,9 C 17.474011,9 9,17.474011 9,28 v 1 C 9,18.474011 17.474011,10 28,10 h 72 c 10.52599,0 19,8.474011 19,19 V 28 C 119,17.474011 110.52599,9 100,9 Z" />
  <path
     id="rect443"
     style="opacity:0.3;fill:#ffffff"
     d="m 9,99 v 1 c 0,10.52599 8.474011,19 19,19 h 72 c 10.52599,0 19,-8.47401 19,-19 v -1 c 0,10.52599 -8.47401,19 -19,19 H 28 C 17.474011,118 9,109.52599 9,99 Z" />
  <path
     id="rect899"
     style="fill:#000000;stroke:none;stroke-width:2;opacity:0.5"
     d="M 28,8 C 16.920022,8 8,16.920022 8,28 v 72 c 0,11.07998 8.920022,20 20,20 h 72 c 11.07998,0 20,-8.92002 20,-20 V 28 C 120,16.920022 111.07998,8 100,8 Z m 0,1 h 72 c 10.52599,0 19,8.474011 19,19 v 72 c 0,10.52599 -8.47401,19 -19,19 H 28 C 17.474011,119 9,110.52599 9,100 V 28 C 9,17.474011 17.474011,9 28,9 Z" />
</svg>
