<?xml version="1.0" encoding="UTF-8" standalone="no"?>
<!-- Created with Inkscape (http://www.inkscape.org/) -->

<svg
   width="128"
   height="128"
   viewBox="0 0 128 128.00001"
   version="1.1"
   id="svg5"
   sodipodi:docname="discord.svg"
   inkscape:version="1.2 (dc2aedaf03, 2022-05-15)"
   xmlns:inkscape="http://www.inkscape.org/namespaces/inkscape"
   xmlns:sodipodi="http://sodipodi.sourceforge.net/DTD/sodipodi-0.dtd"
   xmlns:xlink="http://www.w3.org/1999/xlink"
   xmlns="http://www.w3.org/2000/svg"
   xmlns:svg="http://www.w3.org/2000/svg">
  <sodipodi:namedview
     id="namedview7"
     pagecolor="#ffffff"
     bordercolor="#666666"
     borderopacity="1.0"
     inkscape:showpageshadow="2"
     inkscape:pageopacity="0.0"
     inkscape:pagecheckerboard="0"
     inkscape:deskcolor="#d1d1d1"
     inkscape:document-units="px"
     showgrid="false"
     inkscape:zoom="6.0625"
     inkscape:cx="63.917526"
     inkscape:cy="64"
     inkscape:window-width="1920"
     inkscape:window-height="991"
     inkscape:window-x="0"
     inkscape:window-y="0"
     inkscape:window-maximized="1"
     inkscape:current-layer="svg5" />
  <defs
     id="defs2">
    <linearGradient
       inkscape:collect="always"
       xlink:href="#linearGradient1316"
       id="linearGradient3525"
       x1="49.837837"
       y1="59.747749"
       x2="14.162162"
       y2="4.2522521"
       gradientUnits="userSpaceOnUse"
       gradientTransform="matrix(2.0181818,0,0,2.0181818,-0.58181789,-0.58181778)" />
    <linearGradient
       inkscape:collect="always"
       id="linearGradient1316">
      <stop
         style="stop-color:#5865f2;stop-opacity:1;"
         offset="0"
         id="stop1312" />
      <stop
         style="stop-color:#558af5;stop-opacity:1;"
         offset="1"
         id="stop1314" />
    </linearGradient>
  </defs>
  <rect
     style="fill:url(#linearGradient3525);fill-opacity:1.0;stroke:none;stroke-width:2.01818"
     id="rect184"
     width="111"
     height="111"
     x="8.5"
     y="8.5"
     ry="19.5" />
  <path
     d="m 51.9725,33.000776 0.75408,0.90578 c -13.57316,3.84568 -19.7559,9.8028 -19.7559,9.8028 0,0 1.65776,-0.90544 4.44784,-2.11196 8.06844,-3.54414 14.47886,-4.44812 17.11808,-4.74972 0.45244,-0.0756 0.82888,-0.1518 1.28132,-0.1518 4.59978,-0.60326 9.8037,-0.75348 15.23296,-0.15 7.16362,0.82948 14.85478,2.94086 22.69704,7.1636 0,0 -5.95742,-5.6552 -18.77648,-9.5009 l 1.05596,-1.20768 c 0,0 10.3307,-0.22594 21.11376,7.84254 0,0 10.85884,19.53084 10.85884,43.585442 0,-0.0752 -6.33414,10.7831 -22.9989,11.31096 0,0 -2.71586,-3.24248 -4.97802,-6.03248 9.8782,-2.79004 13.6497,-8.89858 13.6497,-8.89858 -3.09166,2.036 -6.0325,3.469 -8.67168,4.44934 -3.77034,1.58348 -7.38986,2.56436 -10.93394,3.24302 -7.239,1.35732 -13.87504,0.97912 -19.53056,-0.0766 -4.29814,-0.82946 -7.99394,-1.95968 -11.0856,-3.2416 -1.73438,-0.67866 -3.6186,-1.50842 -5.5038,-2.5641 -0.22592,-0.1508 -0.45274,-0.22594 -0.67892,-0.37704 -0.1506,-0.0752 -0.2263,-0.1504 -0.30184,-0.1504 -1.3573,-0.75404 -2.1105,-1.28282 -2.1105,-1.28282 0,0 3.6195,5.95804 13.1961,8.82344 -2.26222,2.86544 -5.05314,6.18274 -5.05314,6.18274 C 26.33414,95.286878 20,84.428618 20,84.428618 20,60.374016 30.8588,40.843176 30.8588,40.843176 c 10.85852,-8.06848 21.11376,-7.84254 21.11376,-7.84254 z m -2.03538,27.82524 c -4.29816,0 -7.69236,3.694882 -7.69236,8.294702 0,4.59976 3.46958,8.2947 7.69236,8.2947 4.29818,0 7.69084,-3.69494 7.69084,-8.2947 0.0752,-4.59982 -3.39266,-8.294702 -7.69084,-8.294702 z m 27.52332,0 c -4.29816,0 -7.69238,3.694882 -7.69238,8.294702 0,4.59976 3.4696,8.2947 7.69238,8.2947 4.29812,0 7.69084,-3.69494 7.69084,-8.2947 0,-4.59982 -3.46812,-8.294702 -7.69084,-8.294702 z"
     style="display:inline;opacity:0.2;fill:#000000;stroke-width:2;enable-background:new"
     id="path678" />
  <path
     d="m 51.9725,32.000776 0.75408,0.90578 c -13.57316,3.84568 -19.7559,9.8028 -19.7559,9.8028 0,0 1.65776,-0.90544 4.44784,-2.11196 8.06844,-3.54414 14.47886,-4.44812 17.11808,-4.74972 0.45244,-0.0756 0.82888,-0.1518 1.28132,-0.1518 4.59978,-0.60326 9.8037,-0.75348 15.23296,-0.15 7.16362,0.82948 14.85478,2.94086 22.69704,7.1636 0,0 -5.95742,-5.6552 -18.77648,-9.5009 l 1.05596,-1.20768 c 0,0 10.3307,-0.22594 21.11376,7.84254 0,0 10.85884,19.53084 10.85884,43.58544 0,-0.0752 -6.33414,10.7831 -22.9989,11.31096 0,0 -2.71586,-3.24248 -4.97802,-6.03248 9.8782,-2.79004 13.6497,-8.89858 13.6497,-8.89858 -3.09166,2.036 -6.0325,3.469 -8.67168,4.44934 -3.77034,1.58348 -7.38986,2.56436 -10.93394,3.24302 -7.239,1.35732 -13.87504,0.97912 -19.53056,-0.0766 -4.29814,-0.82946 -7.99394,-1.95968 -11.0856,-3.2416 -1.73438,-0.67866 -3.6186,-1.50842 -5.5038,-2.5641 -0.22592,-0.1508 -0.45274,-0.22594 -0.67892,-0.37704 -0.1506,-0.0752 -0.2263,-0.1504 -0.30184,-0.1504 -1.3573,-0.75404 -2.1105,-1.28282 -2.1105,-1.28282 0,0 3.6195,5.95804 13.1961,8.82344 -2.26222,2.86544 -5.05314,6.18274 -5.05314,6.18274 C 26.33414,94.286876 20,83.428616 20,83.428616 c 0,-24.0546 10.8588,-43.58544 10.8588,-43.58544 10.85852,-8.06848 21.11376,-7.84254 21.11376,-7.84254 z m -2.03538,27.82524 c -4.29816,0 -7.69236,3.69488 -7.69236,8.2947 0,4.59976 3.46958,8.2947 7.69236,8.2947 4.29818,0 7.69084,-3.69494 7.69084,-8.2947 0.0752,-4.59982 -3.39266,-8.2947 -7.69084,-8.2947 z m 27.52332,0 c -4.29816,0 -7.69238,3.69488 -7.69238,8.2947 0,4.59976 3.4696,8.2947 7.69238,8.2947 4.29812,0 7.69084,-3.69494 7.69084,-8.2947 0,-4.59982 -3.46812,-8.2947 -7.69084,-8.2947 z"
     style="display:inline;fill:#ffffff;stroke-width:2;enable-background:new"
     id="path492"
     sodipodi:nodetypes="cccccccccccccccccccccccccccccssscssssss" />
  <path
     id="rect441"
     style="opacity:0.3;fill:#ffffff"
     d="M 28,9 C 17.474011,9 9,17.474011 9,28 v 1 C 9,18.474011 17.474011,10 28,10 h 72 c 10.52599,0 19,8.474011 19,19 V 28 C 119,17.474011 110.52599,9 100,9 Z" />
  <path
     id="rect443"
     style="opacity:0.3;fill:#ffffff"
     d="m 9,99 v 1 c 0,10.52599 8.474011,19 19,19 h 72 c 10.52599,0 19,-8.47401 19,-19 v -1 c 0,10.52599 -8.47401,19 -19,19 H 28 C 17.474011,118 9,109.52599 9,99 Z" />
  <path
     id="rect899"
     style="fill:#000000;stroke:none;stroke-width:2;opacity:0.5"
     d="M 28,8 C 16.920022,8 8,16.920022 8,28 v 72 c 0,11.07998 8.920022,20 20,20 h 72 c 11.07998,0 20,-8.92002 20,-20 V 28 C 120,16.920022 111.07998,8 100,8 Z m 0,1 h 72 c 10.52599,0 19,8.474011 19,19 v 72 c 0,10.52599 -8.47401,19 -19,19 H 28 C 17.474011,119 9,110.52599 9,100 V 28 C 9,17.474011 17.474011,9 28,9 Z" />
</svg>
