<?xml version="1.0" encoding="UTF-8" standalone="no"?>
<!-- Created with Inkscape (http://www.inkscape.org/) -->

<svg
   width="128"
   height="128"
   viewBox="0 0 128 128.00001"
   version="1.1"
   id="svg5"
   sodipodi:docname="display.im6.svg"
   inkscape:version="1.2.1 (9c6d41e410, 2022-07-14)"
   xmlns:inkscape="http://www.inkscape.org/namespaces/inkscape"
   xmlns:sodipodi="http://sodipodi.sourceforge.net/DTD/sodipodi-0.dtd"
   xmlns:xlink="http://www.w3.org/1999/xlink"
   xmlns="http://www.w3.org/2000/svg"
   xmlns:svg="http://www.w3.org/2000/svg">
  <sodipodi:namedview
     id="namedview7"
     pagecolor="#ffffff"
     bordercolor="#666666"
     borderopacity="1.0"
     inkscape:showpageshadow="2"
     inkscape:pageopacity="0.0"
     inkscape:pagecheckerboard="0"
     inkscape:deskcolor="#d1d1d1"
     inkscape:document-units="px"
     showgrid="false"
     inkscape:zoom="4.4967572"
     inkscape:cx="31.46712"
     inkscape:cy="66.49236"
     inkscape:window-width="1920"
     inkscape:window-height="1002"
     inkscape:window-x="0"
     inkscape:window-y="0"
     inkscape:window-maximized="1"
     inkscape:current-layer="svg5" />
  <defs
     id="defs2">
    <linearGradient
       inkscape:collect="always"
       xlink:href="#linearGradient1440"
       id="linearGradient3525"
       x1="96"
       y1="116"
       x2="24.000002"
       y2="3.9999969"
       gradientUnits="userSpaceOnUse"
       gradientTransform="translate(3.9999978,4.0000032)" />
    <linearGradient
       inkscape:collect="always"
       id="linearGradient1440">
      <stop
         style="stop-color:#273894;stop-opacity:1;"
         offset="0"
         id="stop1436" />
      <stop
         style="stop-color:#5068c3;stop-opacity:1;"
         offset="1"
         id="stop1438" />
    </linearGradient>
  </defs>
  <rect
     style="fill:url(#linearGradient3525);fill-opacity:1.0;stroke:none"
     id="rect184"
     width="111"
     height="111"
     x="8.5"
     y="8.5"
     ry="19.5" />
  <path
     id="path5452"
     style="opacity:0.2;fill:#000000;stroke-width:1.99998"
     d="m 80.146562,27.00088 c -2.691861,-0.017 -5.722852,0.211774 -9.253813,0.499995 l 0.004,-0.0156 c -7.249921,1.010388 -15.040762,4.821617 -21.37869,16.097494 -14.48924,25.765716 -13.459599,34.734463 -15.769373,37.632432 -2.317973,2.885967 -8.56327,4.452333 -7.660079,7.734296 1.535602,3.077767 2.066385,3.417936 2.066385,3.417936 0,0 8.870263,13.700457 35.32777,9.999897 26.453705,-3.700757 30.122506,-9.733064 29.882511,-12.726434 -0.239698,-2.996566 -5.820256,-5.179634 -5.820254,-5.179634 0,0 -4.135376,-15.738665 -3.074189,-22.198996 1.06109,-6.463527 5.093879,-15.882798 9.078035,-17.909975 3.972556,-2.046178 5.960766,6.846873 8.015545,4.652297 2.04397,-2.195976 -3.406472,-15.141851 -10.062401,-18.999808 -3.327556,-2.2615 -6.869012,-2.975476 -11.355447,-3.0039 z m -11.499884,21.999778 2.531224,7.246021 6.714777,2.746066 -5.17573,4.730421 -0.113279,7.67961 -5.496037,-4.027303 -7.347584,2.71091 2.06248,-7.445239 -3.831992,-6.867116 6.96868,-0.421872 z m -17.335763,14.980317 1.71092,7.550706 6.351498,3.706994 -5.656193,3.937461 -0.960928,7.593673 -4.992138,-4.777296 -7.593671,1.621078 2.859345,-7.081961 -3.031219,-7.371019 6.956962,0.59765 z m 14.058452,4.800734 4.285113,6.042907 7.121022,0.35156 -3.710901,6.269467 1.878887,7.371019 -6.285092,-1.96873 -6.312437,5.081981 0.04296,-7.808515 -5.441351,-5.253853 6.54681,-2.757784 z" />
  <path
     id="path316"
     style="fill:#ffffff;stroke-width:1.99998"
     d="m 80.146562,26.00089 c -2.691861,-0.017 -5.722852,0.211774 -9.253813,0.499995 l 0.004,-0.0156 c -7.249921,1.010388 -15.040762,4.821617 -21.37869,16.097494 -14.48924,25.765714 -13.459599,34.730557 -15.769373,37.628526 -2.317973,2.885967 -8.56327,4.452333 -7.660079,7.734296 1.535602,3.077767 2.066385,3.421842 2.066385,3.421842 0,0 8.870263,13.700457 35.32777,9.999897 26.453705,-3.700757 30.122506,-9.733066 29.882511,-12.726434 -0.239698,-2.996566 -5.820256,-5.179634 -5.820254,-5.179634 0,0 -4.135376,-15.738667 -3.074189,-22.198996 1.06109,-6.463526 5.093879,-15.882798 9.078035,-17.909975 3.972556,-2.046177 5.960766,6.846873 8.015545,4.652297 2.04388,-2.196 -3.406566,-15.145781 -10.062495,-19.003738 -3.327462,-2.261476 -6.868918,-2.971546 -11.355353,-2.99997 z m -11.499884,21.999778 2.531224,7.246021 6.714777,2.746066 -5.17573,4.730421 -0.113279,7.67961 -5.496037,-4.027303 -7.347584,2.71091 2.06248,-7.445238 -3.831992,-6.867117 6.96868,-0.421872 z m -17.335763,14.980317 1.71092,7.550706 6.351498,3.706994 -5.656193,3.937461 -0.960928,7.593673 -4.992138,-4.777296 -7.593671,1.621078 2.859345,-7.081961 -3.031219,-7.371019 6.956962,0.59765 z m 14.058452,4.800734 4.285113,6.042907 7.121022,0.35156 -3.710901,6.269467 1.878887,7.37102 -6.285092,-1.968731 -6.312437,5.081981 0.04296,-7.808515 -5.441351,-5.253853 6.54681,-2.757784 z" />
  <path
     id="rect441"
     style="opacity:0.3;fill:#ffffff"
     d="M 28,9 C 17.474011,9 9,17.474011 9,28 v 1 C 9,18.474011 17.474011,10 28,10 h 72 c 10.52599,0 19,8.474011 19,19 V 28 C 119,17.474011 110.52599,9 100,9 Z" />
  <path
     id="rect443"
     style="opacity:0.3;fill:#ffffff"
     d="m 9,99 v 1 c 0,10.52599 8.474011,19 19,19 h 72 c 10.52599,0 19,-8.47401 19,-19 v -1 c 0,10.52599 -8.47401,19 -19,19 H 28 C 17.474011,118 9,109.52599 9,99 Z" />
  <path
     id="rect899"
     style="fill:#000000;stroke:none;stroke-width:2;opacity:0.5"
     d="M 28,8 C 16.920022,8 8,16.920022 8,28 v 72 c 0,11.07998 8.920022,20 20,20 h 72 c 11.07998,0 20,-8.92002 20,-20 V 28 C 120,16.920022 111.07998,8 100,8 Z m 0,1 h 72 c 10.52599,0 19,8.474011 19,19 v 72 c 0,10.52599 -8.47401,19 -19,19 H 28 C 17.474011,119 9,110.52599 9,100 V 28 C 9,17.474011 17.474011,9 28,9 Z" />
</svg>
