<?xml version="1.0" encoding="UTF-8" standalone="no"?>
<!-- Created with Inkscape (http://www.inkscape.org/) -->

<svg
   width="128"
   height="128"
   viewBox="0 0 128 128.00001"
   version="1.1"
   id="svg5"
   sodipodi:docname="fbmessenger.svg"
   inkscape:version="1.2.1 (9c6d41e410, 2022-07-14)"
   xmlns:inkscape="http://www.inkscape.org/namespaces/inkscape"
   xmlns:sodipodi="http://sodipodi.sourceforge.net/DTD/sodipodi-0.dtd"
   xmlns:xlink="http://www.w3.org/1999/xlink"
   xmlns="http://www.w3.org/2000/svg"
   xmlns:svg="http://www.w3.org/2000/svg">
  <sodipodi:namedview
     id="namedview7"
     pagecolor="#ffffff"
     bordercolor="#666666"
     borderopacity="1.0"
     inkscape:showpageshadow="2"
     inkscape:pageopacity="0.0"
     inkscape:pagecheckerboard="0"
     inkscape:deskcolor="#d1d1d1"
     inkscape:document-units="px"
     showgrid="false"
     inkscape:zoom="6.171875"
     inkscape:cx="64.567089"
     inkscape:cy="64.405063"
     inkscape:window-width="1920"
     inkscape:window-height="1007"
     inkscape:window-x="0"
     inkscape:window-y="0"
     inkscape:window-maximized="1"
     inkscape:current-layer="svg5" />
  <defs
     id="defs2">
    <radialGradient
       inkscape:collect="always"
       xlink:href="#linearGradient982"
       id="radialGradient1977"
       cx="29.445274"
       cy="36.813942"
       fx="29.445274"
       fy="36.813942"
       r="20"
       gradientTransform="matrix(3.066713e-7,4.2999998,-4.2001772,4.997963e-7,195.35234,-22.550546)"
       gradientUnits="userSpaceOnUse" />
    <linearGradient
       inkscape:collect="always"
       id="linearGradient982">
      <stop
         style="stop-color:#0099ff;stop-opacity:1;"
         offset="0"
         id="stop978" />
      <stop
         style="stop-color:#a033ff;stop-opacity:1;"
         offset="0.60000002"
         id="stop986" />
      <stop
         style="stop-color:#ff5280;stop-opacity:1;"
         offset="0.93000001"
         id="stop988" />
      <stop
         style="stop-color:#ff7061;stop-opacity:1;"
         offset="1"
         id="stop980" />
    </linearGradient>
  </defs>
  <rect
     style="fill:#fafafa;fill-opacity:1;stroke:none;stroke-width:2.01818"
     id="rect184"
     width="111"
     height="111"
     x="8.5"
     y="8.5"
     ry="19.5" />
  <path
     d="M 64,24 C 41.47,24 24,40.509998 24,62.799998 24,74.459998 28.78,84.54 36.56,91.5 c 0.65,0.58 1.05,1.399998 1.07,2.279998 L 37.85,100.9 c 0.07,2.27 2.41,3.75 4.49,2.83 l 7.94,-3.5 c 0.67,-0.300002 1.43,-0.35 2.14,-0.16 3.65,1 7.53,1.54 11.58,1.54 22.53,0 40,-16.510002 40,-38.800002 C 104,40.519998 86.53,24 64,24 Z"
     style="fill:url(#radialGradient1977);fill-opacity:1;stroke-width:0.1"
     id="path1218" />
  <path
     d="M 40.305638,72.905796 51.895062,54.520532 c 1.844444,-2.929414 5.78978,-3.649436 8.561378,-1.578136 l 9.222224,6.914202 c 0.848248,0.631254 2.01212,0.631254 2.850504,-0.0098 l 12.447536,-9.44908 c 1.65704,-1.262508 3.826976,0.729888 2.722282,2.495424 L 76.099698,71.268544 c -1.844444,2.929414 -5.78978,3.649438 -8.561378,1.578136 l -9.222224,-6.9142 c -0.848248,-0.631254 -2.01212,-0.631254 -2.850504,0.0098 l -12.447536,9.44908 c -1.65704,1.262508 -3.826976,-0.720024 -2.712418,-2.485564 z"
     style="fill:#ffffff;stroke-width:0.0986334"
     id="path11549" />
  <path
     id="rect441"
     style="opacity:0.3;fill:#ffffff"
     d="M 28,9 C 17.474011,9 9,17.474011 9,28 v 1 C 9,18.474011 17.474011,10 28,10 h 72 c 10.52599,0 19,8.474011 19,19 V 28 C 119,17.474011 110.52599,9 100,9 Z" />
  <path
     id="rect443"
     style="opacity:0.3;fill:#ffffff"
     d="m 9,99 v 1 c 0,10.52599 8.474011,19 19,19 h 72 c 10.52599,0 19,-8.47401 19,-19 v -1 c 0,10.52599 -8.47401,19 -19,19 H 28 C 17.474011,118 9,109.52599 9,99 Z" />
  <path
     id="rect899"
     style="fill:#000000;stroke:none;stroke-width:2;opacity:0.5"
     d="M 28,8 C 16.920022,8 8,16.920022 8,28 v 72 c 0,11.07998 8.920022,20 20,20 h 72 c 11.07998,0 20,-8.92002 20,-20 V 28 C 120,16.920022 111.07998,8 100,8 Z m 0,1 h 72 c 10.52599,0 19,8.474011 19,19 v 72 c 0,10.52599 -8.47401,19 -19,19 H 28 C 17.474011,119 9,110.52599 9,100 V 28 C 9,17.474011 17.474011,9 28,9 Z" />
</svg>
