<?xml version="1.0" encoding="UTF-8" standalone="no"?>
<!-- Created with Inkscape (http://www.inkscape.org/) -->

<svg
   width="128"
   height="128"
   viewBox="0 0 128 128.00001"
   version="1.1"
   id="svg5"
   sodipodi:docname="gnome-mines.svg"
   inkscape:version="1.2.1 (9c6d41e410, 2022-07-14)"
   xmlns:inkscape="http://www.inkscape.org/namespaces/inkscape"
   xmlns:sodipodi="http://sodipodi.sourceforge.net/DTD/sodipodi-0.dtd"
   xmlns:xlink="http://www.w3.org/1999/xlink"
   xmlns="http://www.w3.org/2000/svg"
   xmlns:svg="http://www.w3.org/2000/svg">
  <sodipodi:namedview
     id="namedview7"
     pagecolor="#ffffff"
     bordercolor="#666666"
     borderopacity="1.0"
     inkscape:showpageshadow="2"
     inkscape:pageopacity="0.0"
     inkscape:pagecheckerboard="0"
     inkscape:deskcolor="#d1d1d1"
     inkscape:document-units="px"
     showgrid="false"
     inkscape:zoom="4.4967572"
     inkscape:cx="55.70681"
     inkscape:cy="60.488033"
     inkscape:window-width="1920"
     inkscape:window-height="1002"
     inkscape:window-x="0"
     inkscape:window-y="0"
     inkscape:window-maximized="1"
     inkscape:current-layer="svg5" />
  <defs
     id="defs2">
    <linearGradient
       inkscape:collect="always"
       xlink:href="#linearGradient3585"
       id="linearGradient3525"
       x1="96"
       y1="116"
       x2="24.000002"
       y2="3.9999969"
       gradientUnits="userSpaceOnUse"
       gradientTransform="translate(3.9999978,4.0000032)" />
    <linearGradient
       inkscape:collect="always"
       id="linearGradient3585">
      <stop
         style="stop-color:#adb2b9;stop-opacity:1;"
         offset="0"
         id="stop3581" />
      <stop
         style="stop-color:#e6e6e6;stop-opacity:1"
         offset="1"
         id="stop3583" />
    </linearGradient>
  </defs>
  <rect
     style="fill:url(#linearGradient3525);fill-opacity:1;stroke:none"
     id="rect184"
     width="111"
     height="111"
     x="8.5"
     y="8.5"
     ry="19.5" />
  <path
     d="m 63.843749,25 c -2.8456,0 -4.65955,2.09055 -4.84375,4.84375 v 5 0.625 c 0.2605,2.519566 2.4145,4.531251 5,4.531251 0.6464,0 1.3071,-0.0845 1.875,-0.31251 1.70875,-0.68389 2.92955,-2.32904 3.125,-4.218741 V 34.84375 30 c 0,-2.75935 -2.31065,-5 -5.15625,-5 z m -9.68751,11.718751 c -3.29289,1.1657 -6.391799,3.0011 -9.062489,5.15625 1.1556,0.835315 2.12485,1.8468 2.81249,3.125 0.02,0.03485 -0.02,0.1195 0,0.156 0.31151,0.60185 0.60806,1.205 0.78126,1.875001 0.0145,0.05 -0.01125,0.107999 0,0.155999 0.1629,0.6752 0.3125,1.4624 0.3125,2.18749 0,0.636395 -0.03485,1.274909 -0.156,1.874994 -0.1205,0.600115 -0.3955,1.167315 -0.625,1.718765 -1.37576,3.308755 -4.5274,5.625005 -8.281249,5.625005 -1.79425,0 -3.28005,-0.491 -4.68751,-1.40625 -0.20149,0.5704 -0.5,1.10745 -0.625,1.71875 -0.01125,0.0451 0.0087,0.109495 0,0.156 -0.185,0.928 -0.37149,1.855735 -0.46849,2.8125 -0.005,0.054 0.005,0.102 0,0.156 -0.09313,0.9596 -0.15655,1.984835 -0.15655,2.96875 0,0.05151 -2.35e-4,0.104505 0,0.156005 -2.35e-4,0.0515 0,0.1045 0,0.156 0.0087,0.93 0.064,1.9046 0.156,2.81249 0.01125,0.103995 -0.0088,0.20851 0,0.31251 0.101125,0.9022 0.289515,1.78005 0.468515,2.65625 0.16655,0.8644 0.380485,1.669 0.625,2.5 1.854885,-1.075565 3.97085,-1.49345 5.312485,-1.5625 1.811364,-0.09287 3.502114,0.436 4.843764,1.40625 1.341635,0.970485 2.3483,2.25175 2.96875,3.90625 0.207,0.5459 0.360485,1.12263 0.468485,1.71875 0.1251,0.64289 0.156,1.19215 0.156,1.875 0,2.53275 -2.074335,5.86755 -3.593735,7.5 0.6156,0.481 1.21565,0.9654 1.875,1.40625 0.7878,0.5267 1.505335,1.1102 2.343735,1.5625 1.190199,0.64653 2.469399,1.2355 3.749999,1.71874 0.244515,0.0915 0.516,0.11312 0.781265,0.156 -0.0705,-0.344 -0.156,-0.73504 -0.156,-1.09374 0,-3.97355 4.477135,-7.1875 10,-7.1875 5.52285,0 9.999998,3.21395 9.999998,7.1875 0,0.3585 -0.086,0.7498 -0.156,1.09374 1.5033,-0.51709 2.9944,-1.13334 4.375,-1.875 1.0658,-0.56274 1.9848,-1.19289 2.96874,-1.875 0.305,-0.21449 0.64106,-0.39949 0.93751,-0.625 0.234,-0.17601 0.398,-0.43749 0.625,-0.625 -0.71191,-0.5546 -1.25165,-1.12014 -1.71875,-1.71874 -0.9481,-1.1855 -1.50205,-2.4761 -1.71876,-3.75 -0.11088,-0.6379 -0.156,-1.2418 -0.156,-1.875 0,-1.2128 0.27651,-2.40667 0.625,-3.4375 0.0145,-0.0451 -0.0145,-0.11088 0,-0.156 0.18951,-0.5333 0.35151,-0.93545 0.625,-1.40625 0.278,-0.46651 0.58186,-0.85495 0.93751,-1.25 0.37149,-0.437 0.79675,-0.7484 1.25,-1.09375 0.8418,-0.64136 1.7324,-1.1321 2.81249,-1.40625 0.54006,-0.13709 1.12971,-0.28 1.71876,-0.31251 1.40624,-0.078 3.7701,0.486995 5.625,1.56251 0.226,-0.7842 0.4685,-1.52985 0.625,-2.34375 0.17946,-0.8762 0.3675,-1.75405 0.4685,-2.65625 0.0113,-0.104 -0.009,-0.20851 0,-0.31251 0.092,-0.90789 0.1469,-1.88249 0.156,-2.81249 0,-1.144405 -0.0249,-2.330455 -0.156,-3.437515 -0.0969,-0.95674 -0.284,-1.88449 -0.4685,-2.81249 -0.0113,-0.04515 0.009,-0.1095 0,-0.156 -0.13545,-0.66115 -0.406,-1.258115 -0.625,-1.875 -1.40745,0.915685 -2.89325,1.40625 -4.6875,1.40625 -2.50255,0 -4.76626,-0.988 -6.40626,-2.65625 -0.41,-0.417 -0.76804,-0.9158 -1.09374,-1.40625 -0.9769,-1.471305 -1.56226,-3.247005 -1.56226,-5.156264 0,-1.55189 0.43351,-2.982 1.09376,-4.218741 0.3305,-0.62406 0.63844,-1.18766 1.09375,-1.71875 0.464,-0.5234 0.98469,-0.9886 1.56249,-1.40625 -2.67129,-2.16255 -5.60929,-4.0082 -8.90624,-5.15626 0.07,0.344 0.156,0.73526 0.156,1.09376 0,3.97355 -4.477163,7.1875 -9.999998,7.1875 -3.4518,0 -6.4842,-1.2133 -8.28125,-3.125 -0.359515,-0.3825 -0.684515,-0.81995 -0.937515,-1.25 -0.5058,-0.8601 -0.781,-1.8191 -0.781,-2.8125 0,-0.3585 0.0855,-0.74976 0.156,-1.09376 z m -21.718738,3.4375 c -1.23815,0.3095 -2.37495,1.1347 -3.125,2.34375 -1.5002,2.418085 -0.78226,5.5766 1.5625,7.03125 l 4.0625,2.499999 1.5625,0.9375 c 0.63304,0.231 1.3177,0.4685 2.03124,0.4685 0.76586,0 1.5312,-0.2045 2.18751,-0.4685 0.65629,-0.2645 1.2266,-0.6245 1.718749,-1.09375 C 43.42175,50.936485 44,49.683486 44,48.281251 c 0,-1.476535 -0.64036,-2.9989 -1.71876,-3.90625 l -1.874999,-1.09375 -4.21874,-2.5 c -1.1724,-0.7274 -2.51186,-0.9343 -3.75,-0.625 z m 61.250001,0 c -0.63726,0.096 -1.2888,0.2615 -1.875,0.625 l -4.21875,2.5 -1.875,1.09375 c -0.0555,0.0451 -0.10313,0.1075 -0.156,0.156 -1.07865,0.90735 -1.56275,2.1172 -1.56275,3.593751 0,1.402249 0.57824,2.655248 1.5625,3.593733 0.492,0.469515 1.06245,0.829465 1.71874,1.093765 0.65631,0.2645 1.42166,0.4685 2.18751,0.4685 0.71355,0 1.3982,-0.0815 2.03125,-0.3125 l 1.5625,-0.9375 4.0625,-2.499999 c 2.34475,-1.45466 3.062698,-4.61315 1.5625,-7.031261 -1.12506,-1.81354 -3.08826,-2.631639 -5,-2.343739 z M 63.999999,55.000005 c 5.52284,0 10.000003,4.477145 10.000003,10.000005 0,5.52285 -4.477163,9.999995 -10.000003,9.999995 -2.7614,0 -5.2216,-1.15909 -7.03125,-2.96875 -0.45251,-0.4525 -0.8906,-0.87425 -1.25,-1.40625 -1.07825,-1.596 -1.71875,-3.553945 -1.71875,-5.624995 0,-0.690355 0.02485,-1.380255 0.156,-2.031255 0.9327,-4.556865 5.0115,-7.96875 9.844,-7.96875 z m 0,5 c -2.07556,0 -3.7736,1.3304 -4.53125,3.125 -0.253,0.5982 -0.46851,1.18465 -0.46851,1.875005 0,2.761545 2.23256,4.999995 5,4.999995 2.76746,0 5,-2.23845 5,-4.999995 0,-2.761555 -2.23254,-5.000005 -5,-5.000005 z M 38.531241,76.71876 c -1.167,0.12708 -1.47324,0.4225 -2.03124,0.625 l -1.09376,0.625 -4.06249,2.5 c -2.34475,1.45465 -3.06271,4.61315 -1.56251,7.03125 1.50011,2.41804 4.68651,3.17355 7.03126,1.71875 l 4.0625,-2.5 1.406239,-0.9375 c 0.68011,-0.71537 1.31291,-1.51511 1.56251,-2.5 0.0935,-0.3155 0.156,-0.59476 0.156,-0.9375 0,-0.77227 -0.16455,-1.4594 -0.46851,-2.1875 -0.258,-0.64665 -0.64229,-1.19881 -1.09374,-1.71877 -0.488499,-0.54448 -1.067059,-1.1198 -1.718749,-1.40623 -0.65171,-0.28651 -1.42651,-0.3955 -2.18751,-0.3125 z m 51.093761,0.3125 c -2.934,0 -5.3125,2.40434 -5.3125,5.3125 0,1.3711 0.3835,2.37 1.25,3.28125 l 1.5625,1.09375 4.0625,2.5 c 2.34474,1.4548 5.53114,0.69929 7.03125,-1.71875 1.5002,-2.4181 0.78225,-5.5766 -1.56251,-7.03125 l -4.06249,-2.5 c -0.35751,-0.2105 -0.6952,-0.442 -1.09375,-0.625 -0.558,-0.20051 -1.24865,-0.3125 -1.875,-0.3125 z M 63.999999,90.00001 c -0.6464,0 -1.2737,0.0809 -1.875,0.31248 -0.6013,0.23152 -1.22936,0.67996 -1.71876,1.09377 -0.97874,0.82765 -1.58844,1.8652 -1.71874,3.125 v 0.625 4.843738 c 0,2.759352 2.31065,5.000002 5.15625,5.000002 2.8456,0 5.15625,-2.24065 5.15625,-5.000002 v -4.843738 -0.625 c -0.261,-2.51957 -2.4145,-4.53125 -5,-4.53125 z"
     style="display:inline;opacity:0.2;fill:#000000;fill-opacity:1;stroke:none;stroke-width:0.5;enable-background:new"
     id="path16010" />
  <path
     d="m 63.84375,24.000002 c -2.8456,0 -4.65955,2.090551 -4.84375,4.84375 v 5 0.625 c 0.2605,2.519566 2.4145,4.531251 5,4.531251 0.6464,0 1.3071,-0.0845 1.875,-0.31251 1.70875,-0.68389 2.92955,-2.32904 3.125,-4.218741 v -0.625 -4.84375 c 0,-2.75935 -2.31065,-5 -5.15625,-5 z m -9.68751,11.718751 c -3.29289,1.1657 -6.3918,3.0011 -9.06249,5.15625 1.1556,0.835315 2.12485,1.8468 2.81249,3.125 0.02,0.03485 -0.02,0.1195 0,0.156 0.31151,0.60185 0.60806,1.205 0.78126,1.875 0.0145,0.05 -0.01125,0.107999 0,0.156 0.1629,0.675199 0.3125,1.4624 0.3125,2.187489 0,0.636395 -0.03485,1.27491 -0.156,1.874994 -0.1205,0.600115 -0.3955,1.167315 -0.625,1.718765 -1.37576,3.308755 -4.5274,5.625005 -8.281249,5.625005 -1.79425,0 -3.28005,-0.491 -4.68751,-1.40625 -0.20149,0.5704 -0.5,1.10745 -0.625,1.71875 -0.01125,0.0451 0.0087,0.109495 0,0.156 -0.185,0.928 -0.37149,1.855735 -0.46849,2.8125 -0.005,0.054 0.005,0.102 0,0.156 -0.09313,0.9596 -0.15655,1.984835 -0.15655,2.96875 0,0.0515 -2.35e-4,0.104501 0,0.156001 -2.35e-4,0.0515 0,0.1045 0,0.156 0.0087,0.93 0.064,1.9046 0.156,2.81249 0.01125,0.103995 -0.0088,0.20851 0,0.31251 0.101125,0.9022 0.289515,1.78005 0.468515,2.65625 0.16655,0.8644 0.380485,1.669 0.625,2.5 1.854885,-1.075565 3.97085,-1.49345 5.312485,-1.5625 1.811364,-0.09288 3.502114,0.436 4.843764,1.40625 1.341635,0.970485 2.3483,2.25175 2.96875,3.906253 0.207,0.5459 0.360485,1.12263 0.468485,1.71875 0.1251,0.64289 0.156,1.19215 0.156,1.875 0,2.53275 -2.074335,5.86755 -3.593735,7.5 0.6156,0.481 1.21565,0.9654 1.875,1.40625 0.7878,0.5267 1.505335,1.1102 2.343735,1.5625 1.1902,0.64653 2.4694,1.2355 3.75,1.71874 0.244515,0.0915 0.516,0.11312 0.781265,0.156 -0.0705,-0.344 -0.156,-0.73504 -0.156,-1.09374 0,-3.97355 4.477135,-7.1875 10,-7.1875 5.52285,0 9.999997,3.21395 9.999997,7.1875 0,0.3585 -0.086,0.7498 -0.156,1.09374 1.5033,-0.51709 2.9944,-1.13334 4.375,-1.875 1.0658,-0.56274 1.9848,-1.19289 2.96874,-1.875 0.305,-0.21449 0.64106,-0.39949 0.93751,-0.625 0.234,-0.17601 0.398,-0.43749 0.625,-0.625 -0.71191,-0.5546 -1.25165,-1.12014 -1.71875,-1.71874 -0.9481,-1.1855 -1.50205,-2.4761 -1.71876,-3.75 -0.11088,-0.6379 -0.156,-1.2418 -0.156,-1.875 0,-1.2128 0.27651,-2.40667 0.625,-3.4375 0.0145,-0.0451 -0.0145,-0.11088 0,-0.156 0.18951,-0.533303 0.35151,-0.935453 0.625,-1.406253 0.278,-0.46651 0.58186,-0.85495 0.93751,-1.25 0.37149,-0.437 0.79675,-0.7484 1.25,-1.09375 0.8418,-0.64136 1.7324,-1.1321 2.81249,-1.40625 0.54006,-0.13709 1.12971,-0.28 1.71876,-0.31251 1.40624,-0.078 3.7701,0.486995 5.625,1.56251 0.226,-0.7842 0.4685,-1.52985 0.625,-2.34375 0.17946,-0.8762 0.3675,-1.75405 0.4685,-2.65625 0.0113,-0.104 -0.009,-0.20851 0,-0.31251 0.092,-0.90789 0.1469,-1.88249 0.156,-2.81249 0,-1.144401 -0.0249,-2.330451 -0.156,-3.437511 -0.0969,-0.95674 -0.284,-1.88449 -0.4685,-2.81249 -0.0113,-0.04515 0.009,-0.1095 0,-0.156 -0.13545,-0.66115 -0.406,-1.258115 -0.625,-1.875 -1.40745,0.915685 -2.89325,1.40625 -4.6875,1.40625 -2.50255,0 -4.76626,-0.988 -6.40626,-2.65625 -0.41,-0.417 -0.76804,-0.9158 -1.09374,-1.40625 -0.9769,-1.471305 -1.56226,-3.247005 -1.56226,-5.156264 0,-1.55189 0.43351,-2.982 1.09376,-4.21874 0.3305,-0.62406 0.63844,-1.18766 1.09375,-1.71875 0.464,-0.5234 0.98469,-0.9886 1.56249,-1.40625 -2.67129,-2.16255 -5.60929,-4.0082 -8.90624,-5.15626 0.07,0.344 0.156,0.73526 0.156,1.09376 0,3.97355 -4.477162,7.1875 -9.999997,7.1875 -3.4518,0 -6.4842,-1.2133 -8.28125,-3.125 -0.359515,-0.3825 -0.684515,-0.81995 -0.937515,-1.25 -0.5058,-0.8601 -0.781,-1.8191 -0.781,-2.8125 0,-0.3585 0.0855,-0.74976 0.156,-1.09376 z m -21.718739,3.4375 c -1.23815,0.3095 -2.37495,1.1347 -3.125,2.34375 -1.5002,2.418085 -0.78226,5.5766 1.5625,7.03125 l 4.0625,2.499998 1.5625,0.9375 c 0.63304,0.231 1.3177,0.4685 2.03124,0.4685 0.76586,0 1.5312,-0.2045 2.18751,-0.4685 0.65629,-0.2645 1.2266,-0.6245 1.718749,-1.09375 C 43.42175,49.936488 44,48.683488 44,47.281253 c 0,-1.476535 -0.64036,-2.9989 -1.71876,-3.90625 l -1.874999,-1.09375 -4.21874,-2.5 c -1.1724,-0.7274 -2.51186,-0.9343 -3.75,-0.625 z m 61.250001,0 c -0.63726,0.096 -1.2888,0.2615 -1.875,0.625 l -4.21875,2.5 -1.875,1.09375 c -0.0555,0.0451 -0.10313,0.1075 -0.156,0.156 -1.07865,0.90735 -1.56275,2.117199 -1.56275,3.59375 0,1.40225 0.57824,2.65525 1.5625,3.593733 0.492,0.469515 1.06245,0.829465 1.71874,1.093765 0.65631,0.2645 1.42166,0.4685 2.18751,0.4685 0.71355,0 1.3982,-0.0815 2.03125,-0.3125 l 1.5625,-0.9375 4.0625,-2.499998 c 2.34475,-1.45466 3.062698,-4.61315 1.5625,-7.031261 -1.12506,-1.81354 -3.08826,-2.631639 -5,-2.343739 z M 64,54.000006 c 5.52284,0 10.000002,4.477145 10.000002,10.000001 0,5.52285 -4.477162,9.999995 -10.000002,9.999995 -2.7614,0 -5.2216,-1.15909 -7.03125,-2.96875 -0.45251,-0.4525 -0.8906,-0.87425 -1.25,-1.40625 C 54.6405,68.029002 54,66.071057 54,64.000007 c 0,-0.690351 0.02485,-1.380251 0.156,-2.031251 0.9327,-4.556865 5.0115,-7.96875 9.844,-7.96875 z m 0,5 c -2.07556,0 -3.7736,1.3304 -4.53125,3.125 -0.253,0.5982 -0.46851,1.18465 -0.46851,1.875001 0,2.761545 2.23256,4.999995 5,4.999995 2.76746,0 5,-2.23845 5,-4.999995 0,-2.761551 -2.23254,-5.000001 -5,-5.000001 z M 38.531241,75.718752 c -1.167,0.127085 -1.47324,0.422498 -2.03124,0.624998 l -1.09376,0.625 -4.06249,2.5 c -2.34475,1.45465 -3.06271,4.61316 -1.56251,7.03125 1.50011,2.41805 4.68651,3.17356 7.03126,1.71875 l 4.0625,-2.5 1.406239,-0.9375 c 0.68011,-0.71536 1.31291,-1.5151 1.56251,-2.5 0.0935,-0.3155 0.156,-0.59476 0.156,-0.9375 0,-0.77226 -0.16455,-1.4594 -0.46851,-2.1875 -0.258,-0.64664 -0.64229,-1.1988 -1.09374,-1.71876 -0.488499,-0.54449 -1.067059,-1.1198 -1.718749,-1.40624 -0.65171,-0.286498 -1.42651,-0.395498 -2.18751,-0.312498 z m 51.093761,0.312498 c -2.934,0 -5.3125,2.40435 -5.3125,5.3125 0,1.3711 0.3835,2.37001 1.25,3.28125 l 1.5625,1.09375 4.0625,2.5 c 2.34474,1.45481 5.53114,0.6993 7.03125,-1.71875 1.5002,-2.41809 0.78225,-5.5766 -1.56251,-7.03125 l -4.06249,-2.5 c -0.35751,-0.21049 -0.6952,-0.44199 -1.09375,-0.625 -0.558,-0.2005 -1.24865,-0.3125 -1.875,-0.3125 z M 64,89 c -0.6464,0 -1.2737,0.0809 -1.875,0.31249 -0.6013,0.23151 -1.22936,0.67996 -1.71876,1.09376 -0.97874,0.82766 -1.58844,1.8652 -1.71874,3.125 v 0.625 4.843748 C 58.6875,101.75935 60.99815,104 63.84375,104 66.68935,104 69,101.75935 69,98.999998 v -4.843748 -0.625 C 68.739,91.01169 66.5855,89 64,89 Z"
     style="display:inline;fill:#3d3d3d;fill-opacity:1;stroke:none;stroke-width:0.5;enable-background:new"
     id="path15461"
     sodipodi:nodetypes="scccscccssccccccsccscccccsccccccccccscccccssscccccccscccccsccccccccccsccsccccssccscccccccsccscccccccccsccsccccccsssscscsscssssscccccccccsccccsscccccccssccccsssccs" />
  <path
     id="rect441"
     style="opacity:0.3;fill:#ffffff"
     d="M 28,9 C 17.474011,9 9,17.474011 9,28 v 1 C 9,18.474011 17.474011,10 28,10 h 72 c 10.52599,0 19,8.474011 19,19 V 28 C 119,17.474011 110.52599,9 100,9 Z" />
  <path
     id="rect443"
     style="opacity:0.3;fill:#ffffff"
     d="m 9,99 v 1 c 0,10.52599 8.474011,19 19,19 h 72 c 10.52599,0 19,-8.47401 19,-19 v -1 c 0,10.52599 -8.47401,19 -19,19 H 28 C 17.474011,118 9,109.52599 9,99 Z" />
  <path
     id="rect899"
     style="fill:#000000;stroke:none;stroke-width:2;opacity:0.5"
     d="M 28,8 C 16.920022,8 8,16.920022 8,28 v 72 c 0,11.07998 8.920022,20 20,20 h 72 c 11.07998,0 20,-8.92002 20,-20 V 28 C 120,16.920022 111.07998,8 100,8 Z m 0,1 h 72 c 10.52599,0 19,8.474011 19,19 v 72 c 0,10.52599 -8.47401,19 -19,19 H 28 C 17.474011,119 9,110.52599 9,100 V 28 C 9,17.474011 17.474011,9 28,9 Z" />
</svg>
