<?xml version="1.0" encoding="UTF-8" standalone="no"?>
<!-- Created with Inkscape (http://www.inkscape.org/) -->

<svg
   width="128"
   height="128"
   viewBox="0 0 128 128.00001"
   version="1.1"
   id="svg5"
   sodipodi:docname="gnome-boxes.svg"
   inkscape:version="1.2.1 (9c6d41e410, 2022-07-14)"
   xmlns:inkscape="http://www.inkscape.org/namespaces/inkscape"
   xmlns:sodipodi="http://sodipodi.sourceforge.net/DTD/sodipodi-0.dtd"
   xmlns:xlink="http://www.w3.org/1999/xlink"
   xmlns="http://www.w3.org/2000/svg"
   xmlns:svg="http://www.w3.org/2000/svg">
  <sodipodi:namedview
     id="namedview7"
     pagecolor="#ffffff"
     bordercolor="#666666"
     borderopacity="1.0"
     inkscape:showpageshadow="2"
     inkscape:pageopacity="0.0"
     inkscape:pagecheckerboard="0"
     inkscape:deskcolor="#d1d1d1"
     inkscape:document-units="px"
     showgrid="false"
     inkscape:zoom="4.4967572"
     inkscape:cx="31.022355"
     inkscape:cy="66.269978"
     inkscape:window-width="1920"
     inkscape:window-height="1002"
     inkscape:window-x="0"
     inkscape:window-y="0"
     inkscape:window-maximized="1"
     inkscape:current-layer="svg5" />
  <defs
     id="defs2">
    <linearGradient
       inkscape:collect="always"
       xlink:href="#4852"
       id="linearGradient3525"
       x1="96"
       y1="116"
       x2="24.000002"
       y2="3.9999969"
       gradientUnits="userSpaceOnUse"
       gradientTransform="translate(3.9999978,4.0000032)" />
    <linearGradient
       inkscape:collect="always"
       id="4852">
      <stop
         style="stop-color:#333333;stop-opacity:1"
         offset="0"
         id="stop14555" />
      <stop
         style="stop-color:#666666;stop-opacity:1"
         offset="1"
         id="stop14557" />
    </linearGradient>
  </defs>
  <rect
     style="fill:url(#linearGradient3525);fill-opacity:1.0;stroke:none"
     id="rect184"
     width="111"
     height="111"
     x="8.5"
     y="8.5"
     ry="19.5" />
  <path
     d="M 34.000005,25.00001 C 28.477142,25.00001 24,29.477172 24,35.000015 c 0.002,3.974422 2.357381,7.570444 6.000003,9.160205 V 85.839902 C 26.357381,87.429663 24.00196,91.025665 24,95.000107 c 0,5.522843 4.477142,9.999983 10.000005,9.999983 3.974422,-0.002 7.570424,-2.35736 9.160185,-5.999981 h 41.67968 c 1.589761,3.642581 5.185743,5.998001 9.160145,5.999981 5.522843,0 9.999985,-4.47714 9.999985,-9.999983 -4.2e-4,-3.975842 -2.35608,-7.573744 -6.000003,-9.164085 V 44.16022 C 101.64262,42.570459 103.99804,38.974437 104,35.000015 104,29.477172 99.522858,25.00001 94.000015,25.00001 c -3.974402,0.002 -7.570384,2.357401 -9.160145,6.000003 H 43.16407 C 41.573729,27.356111 37.975827,25.00045 34.000005,25.00001 Z m 9.160185,14.000007 h 41.67968 c 0.226101,0.51526 0.495281,1.010501 0.804661,1.480481 l -7.085924,7.085923 c -0.77528,-0.36414 -1.642341,-0.5664 -2.558601,-0.5664 -2.621861,0 -4.839802,1.665461 -5.660143,4.000002 H 57.660197 c -0.820401,-2.334541 -3.038322,-4.000002 -5.660203,-4.000002 -0.9162,0 -1.783261,0.20226 -2.558601,0.5664 l -7.085924,-7.085923 c 0.30942,-0.46998 0.57862,-0.965221 0.804721,-1.480481 z m -3.679722,4.355462 7.085923,7.085944 c -0.36412,0.77534 -0.5664,1.642401 -0.5664,2.558601 0,2.621861 1.665481,4.839862 4.000002,5.660203 v 12.679668 c -2.334521,0.820341 -4.000002,3.038342 -4.000002,5.660143 0,0.91626 0.20228,1.783321 0.5664,2.558601 l -7.082003,7.082064 c -0.47122,-0.3096 -0.967801,-0.57878 -1.484381,-0.804681 V 44.16022 c 0.51524,-0.226121 1.010481,-0.495321 1.480461,-0.804741 z m 49.039064,0 c 0.46998,0.30942 0.965221,0.57862 1.480481,0.804741 v 41.679682 c -0.51526,0.226081 -1.010501,0.495261 -1.480481,0.804661 l -7.085923,-7.085924 c 0.3642,-0.77528 0.5664,-1.642341 0.5664,-2.558601 0,-2.621801 -1.665401,-4.839802 -4.000002,-5.660143 V 58.660227 c 2.334601,-0.820341 4.000002,-3.038342 4.000002,-5.660203 0,-0.9162 -0.2022,-1.783261 -0.5664,-2.558601 z M 57.660197,55.000025 h 12.679666 c 0.60068,1.709401 1.950801,3.059542 3.660142,3.660202 v 12.679668 c -1.709341,0.60066 -3.059462,1.950801 -3.660142,3.660142 H 57.660197 c -0.60066,-1.709341 -1.950801,-3.059482 -3.660202,-3.660142 V 58.660227 c 1.709401,-0.60066 3.059542,-1.950801 3.660202,-3.660202 z m 0,24.000014 h 12.679666 c 0.820341,2.334601 3.038282,3.999982 5.660143,3.999982 0.91626,0 1.783321,-0.2022 2.558601,-0.5664 l 7.085924,7.085943 c -0.30938,0.46998 -0.57856,0.965221 -0.804661,1.480461 h -41.6758 c -0.225901,-0.51658 -0.495081,-1.013121 -0.804681,-1.484321 l 7.082004,-7.082083 c 0.77534,0.3642 1.642401,0.5664 2.558601,0.5664 2.621881,0 4.839802,-1.665381 5.660203,-3.999982 z"
     style="color:#000000;display:inline;overflow:visible;visibility:visible;opacity:0.2;fill:#000000;fill-opacity:1;fill-rule:nonzero;stroke:none;stroke-width:4;marker:none;enable-background:new"
     id="path2247" />
  <path
     d="M 34.000005,24 C 28.477142,24 24,28.477162 24,34.000005 c 0.002,3.974422 2.357381,7.570444 6.000003,9.160205 V 84.83989 C 26.357381,86.429651 24.00196,90.025653 24,94.000095 c 0,5.522843 4.477142,9.999985 10.000005,9.999985 3.974422,-0.002 7.570424,-2.35736 9.160185,-5.999983 h 41.67968 c 1.589761,3.642583 5.185743,5.998003 9.160145,5.999983 5.522843,0 9.999985,-4.477142 9.999985,-9.999985 -4.2e-4,-3.975842 -2.35608,-7.573744 -6.000003,-9.164085 V 43.16021 C 101.64262,41.570449 103.99804,37.974427 104,34.000005 104,28.477162 99.522858,24 94.000015,24 90.025613,24.002 86.429631,26.357401 84.83987,30.000003 H 43.16407 C 41.573729,26.356101 37.975827,24.00044 34.000005,24 Z m 9.160185,14.000007 h 41.67968 c 0.226101,0.51526 0.495281,1.010501 0.804661,1.480481 l -7.085924,7.085923 c -0.77528,-0.36414 -1.642341,-0.5664 -2.558601,-0.5664 -2.621861,0 -4.839802,1.665461 -5.660143,4.000002 H 57.660197 c -0.820401,-2.334541 -3.038322,-4.000002 -5.660203,-4.000002 -0.9162,0 -1.783261,0.20226 -2.558601,0.5664 l -7.085924,-7.085923 c 0.30942,-0.46998 0.57862,-0.965221 0.804721,-1.480481 z m -3.679722,4.355462 7.085923,7.085944 c -0.36412,0.77534 -0.5664,1.642401 -0.5664,2.558601 0,2.621861 1.665481,4.839862 4.000002,5.660203 v 12.679666 c -2.334521,0.820341 -4.000002,3.038342 -4.000002,5.660143 0,0.91626 0.20228,1.783321 0.5664,2.558601 l -7.082003,7.082064 c -0.47122,-0.3096 -0.967801,-0.57878 -1.484381,-0.804681 v -41.6758 c 0.51524,-0.226121 1.010481,-0.495321 1.480461,-0.804741 z m 49.039064,0 c 0.46998,0.30942 0.965221,0.57862 1.480481,0.804741 v 41.67968 c -0.51526,0.226081 -1.010501,0.495261 -1.480481,0.804661 l -7.085923,-7.085924 c 0.3642,-0.77528 0.5664,-1.642341 0.5664,-2.558601 0,-2.621801 -1.665401,-4.839802 -4.000002,-5.660143 V 57.660217 c 2.334601,-0.820341 4.000002,-3.038342 4.000002,-5.660203 0,-0.9162 -0.2022,-1.783261 -0.5664,-2.558601 z M 57.660197,54.000015 h 12.679666 c 0.60068,1.709401 1.950801,3.059542 3.660142,3.660202 v 12.679666 c -1.709341,0.60066 -3.059462,1.950801 -3.660142,3.660142 H 57.660197 c -0.60066,-1.709341 -1.950801,-3.059482 -3.660202,-3.660142 V 57.660217 c 1.709401,-0.60066 3.059542,-1.950801 3.660202,-3.660202 z m 0,24.000012 h 12.679666 c 0.820341,2.334601 3.038282,3.999982 5.660143,3.999982 0.91626,0 1.783321,-0.2022 2.558601,-0.5664 l 7.085924,7.085943 c -0.30938,0.46998 -0.57856,0.965221 -0.804661,1.480461 h -41.6758 c -0.225901,-0.51658 -0.495081,-1.013121 -0.804681,-1.484321 l 7.082004,-7.082083 c 0.77534,0.3642 1.642401,0.5664 2.558601,0.5664 2.621881,0 4.839802,-1.665381 5.660203,-3.999982 z"
     style="color:#000000;display:inline;overflow:visible;visibility:visible;fill:#ffffff;fill-opacity:1;fill-rule:nonzero;stroke:none;stroke-width:4;marker:none;enable-background:new"
     id="path2182"
     sodipodi:nodetypes="cccccccccccccccccccccsccscccccsccsccccccccccsccscccccccccccccsccccccsc" />
  <path
     id="rect441"
     style="opacity:0.3;fill:#ffffff"
     d="M 28,9 C 17.474011,9 9,17.474011 9,28 v 1 C 9,18.474011 17.474011,10 28,10 h 72 c 10.52599,0 19,8.474011 19,19 V 28 C 119,17.474011 110.52599,9 100,9 Z" />
  <path
     id="rect443"
     style="opacity:0.3;fill:#ffffff"
     d="m 9,99 v 1 c 0,10.52599 8.474011,19 19,19 h 72 c 10.52599,0 19,-8.47401 19,-19 v -1 c 0,10.52599 -8.47401,19 -19,19 H 28 C 17.474011,118 9,109.52599 9,99 Z" />
  <path
     id="rect899"
     style="fill:#000000;stroke:none;stroke-width:2;opacity:0.5"
     d="M 28,8 C 16.920022,8 8,16.920022 8,28 v 72 c 0,11.07998 8.920022,20 20,20 h 72 c 11.07998,0 20,-8.92002 20,-20 V 28 C 120,16.920022 111.07998,8 100,8 Z m 0,1 h 72 c 10.52599,0 19,8.474011 19,19 v 72 c 0,10.52599 -8.47401,19 -19,19 H 28 C 17.474011,119 9,110.52599 9,100 V 28 C 9,17.474011 17.474011,9 28,9 Z" />
</svg>
