<?xml version="1.0" encoding="UTF-8" standalone="no"?>
<!-- Created with Inkscape (http://www.inkscape.org/) -->

<svg
   width="128"
   height="128"
   viewBox="0 0 128 128.00001"
   version="1.1"
   id="svg5"
   sodipodi:docname="google-drive.svg"
   inkscape:version="1.2.1 (9c6d41e410, 2022-07-14)"
   xmlns:inkscape="http://www.inkscape.org/namespaces/inkscape"
   xmlns:sodipodi="http://sodipodi.sourceforge.net/DTD/sodipodi-0.dtd"
   xmlns="http://www.w3.org/2000/svg"
   xmlns:svg="http://www.w3.org/2000/svg">
  <sodipodi:namedview
     id="namedview7"
     pagecolor="#ffffff"
     bordercolor="#666666"
     borderopacity="1.0"
     inkscape:showpageshadow="2"
     inkscape:pageopacity="0.0"
     inkscape:pagecheckerboard="0"
     inkscape:deskcolor="#d1d1d1"
     inkscape:document-units="px"
     showgrid="false"
     inkscape:zoom="6.1875"
     inkscape:cx="64.080808"
     inkscape:cy="64"
     inkscape:window-width="1920"
     inkscape:window-height="1007"
     inkscape:window-x="0"
     inkscape:window-y="0"
     inkscape:window-maximized="1"
     inkscape:current-layer="svg5" />
  <defs
     id="defs2" />
  <rect
     style="fill:#f5f5f5;fill-opacity:1;stroke:none"
     id="rect184"
     width="111"
     height="111"
     x="8.5"
     y="8.5"
     ry="19.5" />
  <path
     inkscape:connector-curvature="0"
     d="m 30.048112,90.26001 3.528056,6.09392 c 0.733121,1.28292 1.786937,2.29094 3.024065,3.02408 L 49.200458,77.568165 H 24 c 0,1.420405 0.36656,2.84075 1.099664,4.123685 z"
     id="path2-0"
     style="fill:#0066da;stroke-width:0.916375" />
  <path
     inkscape:connector-curvature="0"
     d="M 63.999995,51.909505 51.39977,30.099656 c -1.23712,0.73304 -2.290944,1.741128 -3.024056,3.024056 L 25.099656,73.444445 a 8.302405,8.302405 0 0 0 -1.099644,4.12372 h 25.200462 z"
     id="path4-3"
     style="fill:#00ac47;stroke-width:0.916375" />
  <path
     inkscape:connector-curvature="0"
     d="m 91.39978,99.37801 c 1.23712,-0.73312 2.29094,-1.74114 3.02404,-3.02408 l 1.46622,-2.52002 7.01032,-12.14205 C 103.63348,80.40894 104,78.988565 104,77.568165 H 78.79772 l 5.36264,10.538365 z"
     id="path6-0"
     style="fill:#ea4335;stroke-width:0.916375" />
  <path
     inkscape:connector-curvature="0"
     d="M 63.999995,51.909505 76.60022,30.099656 C 75.3631,29.366536 73.94272,29 72.47652,29 H 55.52348 c -1.466215,0 -2.88659,0.4124 -4.12371,1.099664 z"
     id="path8-4"
     style="fill:#00832d;stroke-width:0.916375" />
  <path
     inkscape:connector-curvature="0"
     d="M 78.79954,77.568165 H 49.200458 L 36.600233,99.37801 c 1.237112,0.7332 2.657488,1.09964 4.123704,1.09964 H 87.27606 c 1.46622,0 2.8866,-0.4124 4.12372,-1.09964 z"
     id="path10-4"
     style="fill:#2684fc;stroke-width:0.916375" />
  <path
     inkscape:connector-curvature="0"
     d="M 91.26232,53.28408 79.62428,33.123712 C 78.89124,31.840776 77.83734,30.83276 76.60022,30.099656 L 63.999995,51.909505 78.79954,77.568165 h 25.15464 c 0,-1.42041 -0.36656,-2.840785 -1.09964,-4.12372 z"
     id="path12"
     style="fill:#ffba00;stroke-width:0.916375" />
  <path
     id="rect441"
     style="opacity:0.3;fill:#ffffff"
     d="M 28,9 C 17.474011,9 9,17.474011 9,28 v 1 C 9,18.474011 17.474011,10 28,10 h 72 c 10.52599,0 19,8.474011 19,19 V 28 C 119,17.474011 110.52599,9 100,9 Z" />
  <path
     id="rect443"
     style="opacity:0.3;fill:#ffffff"
     d="m 9,99 v 1 c 0,10.52599 8.474011,19 19,19 h 72 c 10.52599,0 19,-8.47401 19,-19 v -1 c 0,10.52599 -8.47401,19 -19,19 H 28 C 17.474011,118 9,109.52599 9,99 Z" />
  <path
     id="rect899"
     style="fill:#000000;stroke:none;stroke-width:2;opacity:0.5"
     d="M 28,8 C 16.920022,8 8,16.920022 8,28 v 72 c 0,11.07998 8.920022,20 20,20 h 72 c 11.07998,0 20,-8.92002 20,-20 V 28 C 120,16.920022 111.07998,8 100,8 Z m 0,1 h 72 c 10.52599,0 19,8.474011 19,19 v 72 c 0,10.52599 -8.47401,19 -19,19 H 28 C 17.474011,119 9,110.52599 9,100 V 28 C 9,17.474011 17.474011,9 28,9 Z" />
</svg>
