<?xml version="1.0" encoding="UTF-8" standalone="no"?>
<!-- Created with Inkscape (http://www.inkscape.org/) -->

<svg
   width="128"
   height="128"
   viewBox="0 0 128 128.00001"
   version="1.1"
   id="svg5"
   sodipodi:docname="gthumb.svg"
   inkscape:version="1.2.1 (9c6d41e410, 2022-07-14)"
   xmlns:inkscape="http://www.inkscape.org/namespaces/inkscape"
   xmlns:sodipodi="http://sodipodi.sourceforge.net/DTD/sodipodi-0.dtd"
   xmlns:xlink="http://www.w3.org/1999/xlink"
   xmlns="http://www.w3.org/2000/svg"
   xmlns:svg="http://www.w3.org/2000/svg">
  <sodipodi:namedview
     id="namedview7"
     pagecolor="#ffffff"
     bordercolor="#666666"
     borderopacity="1.0"
     inkscape:showpageshadow="2"
     inkscape:pageopacity="0.0"
     inkscape:pagecheckerboard="0"
     inkscape:deskcolor="#d1d1d1"
     inkscape:document-units="px"
     showgrid="false"
     inkscape:zoom="4.5961941"
     inkscape:cx="13.27185"
     inkscape:cy="83.982528"
     inkscape:window-width="1920"
     inkscape:window-height="1007"
     inkscape:window-x="0"
     inkscape:window-y="0"
     inkscape:window-maximized="1"
     inkscape:current-layer="svg5" />
  <defs
     id="defs2">
    <linearGradient
       inkscape:collect="always"
       xlink:href="#linearGradient1555"
       id="linearGradient32279"
       x1="64"
       y1="120"
       x2="64"
       y2="8"
       gradientUnits="userSpaceOnUse" />
    <linearGradient
       inkscape:collect="always"
       xlink:href="#linearGradient2287"
       id="linearGradient2289"
       x1="20"
       y1="18"
       x2="20"
       y2="5"
       gradientUnits="userSpaceOnUse"
       gradientTransform="matrix(5.5000004,0,0,4.9230772,-2.0000106,7.384619)" />
    <linearGradient
       inkscape:collect="always"
       id="linearGradient2287">
      <stop
         style="stop-color:#8e9529;stop-opacity:1;"
         offset="0"
         id="stop2283" />
      <stop
         style="stop-color:#bbc236;stop-opacity:1;"
         offset="1"
         id="stop2285" />
    </linearGradient>
    <linearGradient
       inkscape:collect="always"
       xlink:href="#linearGradient3796"
       id="linearGradient3798"
       x1="19"
       y1="18"
       x2="19"
       y2="5"
       gradientUnits="userSpaceOnUse"
       gradientTransform="matrix(5.1428572,0,0,4.9230776,2.285707,7.384615)" />
    <linearGradient
       inkscape:collect="always"
       id="linearGradient3796">
      <stop
         style="stop-color:#ff7010;stop-opacity:1;"
         offset="0"
         id="stop3792" />
      <stop
         style="stop-color:#ff9a10;stop-opacity:1;"
         offset="1"
         id="stop3794" />
    </linearGradient>
    <linearGradient
       inkscape:collect="always"
       id="linearGradient1555">
      <stop
         style="stop-color:#eac045;stop-opacity:1;"
         offset="0"
         id="stop1551" />
      <stop
         style="stop-color:#a2d2f9;stop-opacity:1;"
         offset="1"
         id="stop1553" />
    </linearGradient>
  </defs>
  <rect
     style="fill:url(#linearGradient32279);fill-opacity:1.0;stroke:none;stroke-width:2"
     id="rect184"
     width="111"
     height="111"
     x="8.5"
     y="8.5"
     ry="19.5" />
  <path
     d="M 47.297636,33.003021 C 36.665372,33.186541 27.462288,41.724949 32.7655,60.231085 23.47454,61.845697 16.41276,71.200173 21.958388,89.831817 c 12.359144,-11.304956 15.133864,-3.906768 24.944456,-5.6608 2.453724,4.467664 7.824736,9.073072 17.147984,12.828984 1.35074,-3.35722 7.04918,-8.404884 10.817864,-13.440968 10.760376,4.38754 15.943952,-2.608688 26.569268,11.251388 C 112.3998,78.943545 108.2061,68.608533 99.25184,64.562589 107.50115,43.368645 83.451748,34.861817 66.016732,42.548893 61.525976,36.224661 54.132372,32.885053 47.297636,33.003021 Z m -0.676792,22.299624 c 2.760716,0.08108 5.29458,0.884868 8.556532,0.930508 12.060268,8.983628 18.488952,6.383452 25.409084,7.913088 -3.234328,1.076664 -6.350364,2.72724 -9.085604,4.998668 -2.512036,-0.86846 -5.823232,-1.567764 -10.108856,-2.051632 -3.364184,-0.37984 -6.420756,0.09824 -8.954004,1.186332 -4.578668,-5.652564 -11.29232,-8.547628 -17.440716,-8.29182 5.108108,-3.918476 8.523148,-4.776148 11.623564,-4.685144 z"
     style="opacity:0.2;fill:#000000;fill-rule:evenodd;stroke-width:5.20356"
     id="path833" />
  <path
     d="M 47.297636,32.003022 C 36.665372,32.186542 27.462288,40.72495 32.7655,59.231086 23.47454,60.845698 16.41276,70.200166 21.958388,88.831818 34.317532,77.526858 37.092252,84.92505 46.902844,83.17101 c 2.453724,4.467668 7.824736,9.07308 17.147984,12.828992 1.35074,-3.35722 7.04918,-8.404896 10.817864,-13.440972 10.760376,4.387544 15.943952,-2.608692 26.569268,11.251384 C 112.3998,77.943542 108.2061,67.608534 99.25184,63.562598 107.50115,42.368646 83.451748,33.861818 66.016732,41.548894 61.525976,35.224662 54.132372,31.885054 47.297636,32.003022 Z m -0.676792,22.299624 c 2.760716,0.08104 5.29458,0.884876 8.556532,0.930508 12.060268,8.983628 18.488952,6.383452 25.409084,7.913088 -3.234328,1.076672 -6.350364,2.72724 -9.085604,4.998668 C 68.98882,67.276438 65.677624,66.577146 61.392,66.093278 c -3.364184,-0.37988 -6.420756,0.09828 -8.954004,1.186332 -4.578668,-5.652564 -11.29232,-8.547628 -17.440716,-8.29182 5.108108,-3.918476 8.523148,-4.776144 11.623564,-4.685144 z"
     style="fill:url(#linearGradient2289);fill-opacity:1;fill-rule:evenodd;stroke-width:5.20356"
     id="path467"
     sodipodi:nodetypes="sccccccccssccccccs" />
  <path
     d="m 81.467944,96.768461 c -3.762252,2.470548 -13.43872,-15.565596 -20.2146,-19.101324 -7.388084,1.733988 -16.477616,16.36742 -20.195728,13.6909 -4.252152,-3.060964 0.969236,-21.935304 3.417736,-26.062368 3.155708,-5.319104 -18.16592,-5.739876 -16.367448,-10.240512 1.774268,-4.440156 19.276936,-8.540712 24.788164,-9.30616 1.99868,-5.27554 7.175768,-13.58224 14.257744,-12.681384 7.081996,0.90086 11.031028,11.089936 12.502,16.315648 7.359468,1.245152 19.417556,6.185364 20.3211,10.963348 0.891398,4.713732 -24.349332,3.896788 -21.133344,9.364312 2.347824,3.991588 5.441832,24.426616 2.624376,27.05754 z"
     style="opacity:0.2;fill:#000000;fill-opacity:1;stroke-width:5.0318"
     id="path3808" />
  <path
     d="M 81.467944,95.768458 C 77.705692,98.239018 68.029224,80.202862 61.253344,76.667138 53.86526,78.401122 44.775732,93.034558 41.057616,90.358034 36.80546,87.29707 42.026852,68.422738 44.475348,64.295678 47.63106,58.97657 26.309432,58.55579 28.107904,54.055162 c 1.774268,-4.44016 19.276936,-8.540716 24.788164,-9.306164 1.99868,-5.27554 7.175768,-13.58224 14.257744,-12.681384 7.081996,0.90086 11.031028,11.089932 12.502,16.315648 7.359468,1.245148 19.417556,6.185364 20.3211,10.963348 0.891398,4.71374 -24.349332,3.896788 -21.133344,9.364312 2.347824,3.991584 5.441832,24.426612 2.624376,27.057536 z"
     style="fill:url(#linearGradient3798);fill-opacity:1;stroke-width:5.0318"
     id="path866"
     sodipodi:nodetypes="scssccscssss" />
  <ellipse
     style="opacity:0.2;fill:#000000;fill-opacity:1;stroke-width:9.79792;stroke-linecap:round;stroke-linejoin:round"
     id="path3887"
     cx="64"
     cy="58"
     rx="12"
     ry="10" />
  <path
     id="path5727"
     style="color:#000000;fill:#ffffe0;stroke-width:6.07656;stroke-linecap:round"
     d="m 66,36.000002 a 2,2 0 0 0 -2,2 2,2 0 0 0 1.25,1.851564 l -0.601564,13.609372 c -0.0136,0.41958 0.32256,0.768352 0.742188,0.781252 0.41958,0.0136 0.768344,-0.3148 0.781252,-0.734376 l 0.593748,-13.66406 A 2,2 0 0 0 68,38.000002 a 2,2 0 0 0 -2,-2 z m -12,8 a 2,2 0 0 0 -2,2 2,2 0 0 0 1.796876,1.984376 l 6.656248,11.960936 c 0.2076,0.36988 0.672468,0.494608 1.039064,0.28124 0.36988,-0.20756 0.502412,-0.680276 0.28904,-1.046876 L 55.273416,47.531238 A 2,2 0 0 0 56,46.000002 a 2,2 0 0 0 -2,-2 z m 20,0 a 2,2 0 0 0 -2,2 2,2 0 0 0 1.117188,1.789064 L 69.539064,59.24219 c -0.17684,0.38012 -0.0132,0.830728 0.3672,1.007812 0.38012,0.17684 0.83854,0.0132 1.015628,-0.3672 l 3.75,-12 A 2,2 0 0 0 76,46.000002 a 2,2 0 0 0 -2,-2 z" />
  <path
     id="rect441"
     style="opacity:0.3;fill:#ffffff"
     d="M 28,9 C 17.474011,9 9,17.474011 9,28 v 1 C 9,18.474011 17.474011,10 28,10 h 72 c 10.52599,0 19,8.474011 19,19 V 28 C 119,17.474011 110.52599,9 100,9 Z" />
  <path
     id="rect443"
     style="opacity:0.3;fill:#ffffff"
     d="m 9,99 v 1 c 0,10.52599 8.474011,19 19,19 h 72 c 10.52599,0 19,-8.47401 19,-19 v -1 c 0,10.52599 -8.47401,19 -19,19 H 28 C 17.474011,118 9,109.52599 9,99 Z" />
  <path
     id="rect899"
     style="fill:#000000;stroke:none;stroke-width:2;opacity:0.5"
     d="M 28,8 C 16.920022,8 8,16.920022 8,28 v 72 c 0,11.07998 8.920022,20 20,20 h 72 c 11.07998,0 20,-8.92002 20,-20 V 28 C 120,16.920022 111.07998,8 100,8 Z m 0,1 h 72 c 10.52599,0 19,8.474011 19,19 v 72 c 0,10.52599 -8.47401,19 -19,19 H 28 C 17.474011,119 9,110.52599 9,100 V 28 C 9,17.474011 17.474011,9 28,9 Z" />
</svg>
