<?xml version="1.0" encoding="UTF-8" standalone="no"?>
<!-- Created with Inkscape (http://www.inkscape.org/) -->

<svg
   width="128"
   height="128"
   viewBox="0 0 128 128.00001"
   version="1.1"
   id="svg5"
   sodipodi:docname="htop.svg"
   inkscape:version="1.3.2 (091e20ef0f, 2023-11-25, custom)"
   xmlns:inkscape="http://www.inkscape.org/namespaces/inkscape"
   xmlns:sodipodi="http://sodipodi.sourceforge.net/DTD/sodipodi-0.dtd"
   xmlns:xlink="http://www.w3.org/1999/xlink"
   xmlns="http://www.w3.org/2000/svg"
   xmlns:svg="http://www.w3.org/2000/svg">
  <sodipodi:namedview
     id="namedview7"
     pagecolor="#ffffff"
     bordercolor="#666666"
     borderopacity="1.0"
     inkscape:showpageshadow="2"
     inkscape:pageopacity="0.0"
     inkscape:pagecheckerboard="0"
     inkscape:deskcolor="#d1d1d1"
     inkscape:document-units="px"
     showgrid="false"
     inkscape:zoom="6.6015625"
     inkscape:cx="64"
     inkscape:cy="64"
     inkscape:window-width="1920"
     inkscape:window-height="1019"
     inkscape:window-x="0"
     inkscape:window-y="0"
     inkscape:window-maximized="1"
     inkscape:current-layer="svg5" />
  <defs
     id="defs2">
    <linearGradient
       inkscape:collect="always"
       xlink:href="#4852"
       id="linearGradient3525"
       x1="96"
       y1="116"
       x2="24.000002"
       y2="3.9999969"
       gradientUnits="userSpaceOnUse"
       gradientTransform="translate(3.9999978,4.0000032)" />
    <linearGradient
       inkscape:collect="always"
       id="4852">
      <stop
         style="stop-color:#333333;stop-opacity:1"
         offset="0"
         id="stop14555" />
      <stop
         style="stop-color:#666666;stop-opacity:1"
         offset="1"
         id="stop14557" />
    </linearGradient>
  </defs>
  <rect
     style="fill:url(#linearGradient3525);fill-opacity:1.0;stroke:none"
     id="rect184"
     width="111"
     height="111"
     x="8.5"
     y="8.5"
     ry="19.5" />
  <path
     d="m 24,25 v 24 h 8 V 45 H 28 V 29 h 4 v -4 z m 12,0 v 24 h 4 V 25 Z m 8,0 v 24 h 4 V 25 Z m 36,0 v 24 h 4 V 25 Z m 8,0 v 24 h 4 V 25 Z m 8,0 v 4 h 4 v 16 h -4 v 4 h 8 V 25 Z M 24,53 v 24 h 8 V 73 H 28 V 57 h 4 v -4 z m 12,0 v 24 h 4 V 53 Z m 8,0 v 24 h 4 V 53 Z m 8,0 v 24 h 4 V 53 Z m 20,0 v 24 h 4 V 53 Z m 8,0 v 24 h 4 V 53 Z m 8,0 v 24 h 4 V 53 Z m 8,0 v 4 h 4 v 16 h -4 v 4 h 8 V 53 Z M 24,81 v 24 h 8 v -4 H 28 V 85 h 4 v -4 z m 12,0 v 24 h 4 V 81 Z m 8,0 v 24 h 4 V 81 Z m 36,0 v 24 h 4 V 81 Z m 8,0 v 24 h 4 V 81 Z m 8,0 v 4 h 4 v 16 h -4 v 4 h 8 V 81 Z"
     style="opacity:0.2;fill:#000000;stroke-width:8"
     id="path1" />
  <path
     id="path1240"
     style="fill:#8bc34a;stroke-width:8"
     d="m 36,24 v 24 h 4.000004 V 24 Z m 8,0 v 24 h 4 V 24 Z m -8,28 v 24 h 4.000004 V 52 Z m 8,0 v 24 h 4 V 52 Z m -8,28 v 24 h 4.000004 V 80 Z m 8,0 v 24 h 4 V 80 Z"
     sodipodi:nodetypes="cccccccccccccccccccccccccccccc" />
  <path
     d="M 52.000004,52 V 76 H 56 V 52 Z M 72,52 v 24 h 4 V 52 Z"
     style="fill:#ff9800;stroke-width:4"
     id="path1212"
     sodipodi:nodetypes="cccccccccc" />
  <path
     id="path1128"
     style="fill:#ff5722;stroke-width:4"
     d="m 80.000004,24 v 24 h 4 V 24 Z m 8,0 v 24 h 4 V 24 Z m -8,28 v 24 h 4 V 52 Z m 8,0 v 24 h 4 V 52 Z m -8,28 v 24 h 4 V 80 Z m 8,0 v 24 h 4 V 80 Z"
     sodipodi:nodetypes="cccccccccccccccccccccccccccccc" />
  <path
     id="path1156"
     style="fill:#f9f9f9;stroke-width:4"
     d="m 24,24 v 24 h 8 V 44 H 28 V 28 h 4 v -4 z m 72,0 v 4 h 4 v 16 h -4 v 4 h 8 V 24 Z M 24,52 v 24 h 8 V 72 H 28 V 56 h 4 v -4 z m 72,0 v 4 h 4 v 16 h -4 v 4 h 8 V 52 Z M 24,80 v 24 h 8 v -4 H 28 V 84 h 4 v -4 z m 72,0 v 4 h 4 v 16 h -4 v 4 h 8 V 80 Z"
     sodipodi:nodetypes="cccccccccccccccccccccccccccccccccccccccccccccccccccccc" />
  <path
     id="rect441"
     style="opacity:0.3;fill:#ffffff"
     d="M 28,9 C 17.474011,9 9,17.474011 9,28 v 1 C 9,18.474011 17.474011,10 28,10 h 72 c 10.52599,0 19,8.474011 19,19 V 28 C 119,17.474011 110.52599,9 100,9 Z" />
  <path
     id="rect443"
     style="opacity:0.3;fill:#ffffff"
     d="m 9,99 v 1 c 0,10.52599 8.474011,19 19,19 h 72 c 10.52599,0 19,-8.47401 19,-19 v -1 c 0,10.52599 -8.47401,19 -19,19 H 28 C 17.474011,118 9,109.52599 9,99 Z" />
  <path
     id="rect899"
     style="fill:#000000;stroke:none;stroke-width:2;opacity:0.5"
     d="M 28,8 C 16.920022,8 8,16.920022 8,28 v 72 c 0,11.07998 8.920022,20 20,20 h 72 c 11.07998,0 20,-8.92002 20,-20 V 28 C 120,16.920022 111.07998,8 100,8 Z m 0,1 h 72 c 10.52599,0 19,8.474011 19,19 v 72 c 0,10.52599 -8.47401,19 -19,19 H 28 C 17.474011,119 9,110.52599 9,100 V 28 C 9,17.474011 17.474011,9 28,9 Z" />
</svg>
