<?xml version="1.0" encoding="UTF-8" standalone="no"?>
<!-- Created with Inkscape (http://www.inkscape.org/) -->

<svg
   width="128"
   height="128"
   viewBox="0 0 128 128.00001"
   version="1.1"
   id="svg5"
   sodipodi:docname="indicator-weather.svg"
   inkscape:version="1.2.1 (9c6d41e410, 2022-07-14)"
   xmlns:inkscape="http://www.inkscape.org/namespaces/inkscape"
   xmlns:sodipodi="http://sodipodi.sourceforge.net/DTD/sodipodi-0.dtd"
   xmlns:xlink="http://www.w3.org/1999/xlink"
   xmlns="http://www.w3.org/2000/svg"
   xmlns:svg="http://www.w3.org/2000/svg">
  <sodipodi:namedview
     id="namedview7"
     pagecolor="#ffffff"
     bordercolor="#666666"
     borderopacity="1.0"
     inkscape:showpageshadow="2"
     inkscape:pageopacity="0.0"
     inkscape:pagecheckerboard="0"
     inkscape:deskcolor="#d1d1d1"
     inkscape:document-units="px"
     showgrid="false"
     inkscape:zoom="5.6568542"
     inkscape:cx="36.94633"
     inkscape:cy="48.17165"
     inkscape:window-width="1920"
     inkscape:window-height="1009"
     inkscape:window-x="0"
     inkscape:window-y="0"
     inkscape:window-maximized="1"
     inkscape:current-layer="svg5" />
  <defs
     id="defs2">
    <linearGradient
       inkscape:collect="always"
       xlink:href="#linearGradient21236"
       id="linearGradient3525"
       x1="49.837837"
       y1="59.747749"
       x2="14.162162"
       y2="4.2522521"
       gradientUnits="userSpaceOnUse"
       gradientTransform="matrix(2.0181818,0,0,2.0181818,-0.58181789,-0.58181778)" />
    <linearGradient
       inkscape:collect="always"
       id="linearGradient21236">
      <stop
         style="stop-color:#3689e6;stop-opacity:1;"
         offset="0"
         id="stop21232" />
      <stop
         style="stop-color:#5dcffc;stop-opacity:1;"
         offset="1"
         id="stop21234" />
    </linearGradient>
    <linearGradient
       inkscape:collect="always"
       xlink:href="#linearGradient4367"
       id="linearGradient7467"
       x1="23"
       y1="23"
       x2="15"
       y2="12"
       gradientUnits="userSpaceOnUse"
       gradientTransform="matrix(4,0,0,4,9.999999,2)" />
    <linearGradient
       inkscape:collect="always"
       id="linearGradient4367">
      <stop
         style="stop-color:#d3d3d3;stop-opacity:1;"
         offset="0"
         id="stop4363" />
      <stop
         style="stop-color:#ebf3fb;stop-opacity:1;"
         offset="1"
         id="stop4365" />
    </linearGradient>
    <linearGradient
       inkscape:collect="always"
       xlink:href="#linearGradient2879"
       id="linearGradient2881"
       x1="29"
       y1="29"
       x2="16"
       y2="3"
       gradientUnits="userSpaceOnUse"
       gradientTransform="matrix(1.6923077,0,0,1.6923077,20.923075,28.92308)" />
    <linearGradient
       inkscape:collect="always"
       id="linearGradient2879">
      <stop
         style="stop-color:#ff8e42;stop-opacity:1;"
         offset="0"
         id="stop2875" />
      <stop
         style="stop-color:#ffdc42;stop-opacity:1;"
         offset="1"
         id="stop2877" />
    </linearGradient>
  </defs>
  <rect
     style="fill:url(#linearGradient3525);fill-opacity:1;stroke:none;stroke-width:2.01818"
     id="rect184"
     width="111"
     height="111"
     x="8.5"
     y="8.5"
     ry="19.5" />
  <path
     d="m 47.999999,35 c -12.150264,0 -22,9.849736 -22,21.999998 0.0156,8.83835 5.318736,16.809352 13.464842,20.238284 -0.93253,1.708226 -1.464842,3.670966 -1.464842,5.76172 0,6.647986 5.352012,12 12,12 h 40 c 6.647984,0 12.000001,-5.352014 12.000001,-12 0,-6.647988 -5.352017,-12 -12.000001,-12 C 89.999999,59.954306 81.045693,51 69.999999,51 69.726107,51.0178 69.452611,51.04124 69.179685,51.07032 66.520949,41.571072 57.864299,35.002748 47.999999,35 Z"
     style="opacity:0.2;fill:#000000;fill-opacity:1;stroke:none;stroke-width:3.3846;stroke-linecap:round;stroke-linejoin:round;stroke-dasharray:none;stroke-opacity:1"
     id="path3862" />
  <circle
     style="fill:url(#linearGradient2881);fill-opacity:1;stroke:none;stroke-width:3.3846;stroke-linecap:round;stroke-linejoin:round;stroke-dasharray:none;stroke-opacity:1"
     id="path2873"
     cx="48"
     cy="56"
     r="22" />
  <path
     id="path3280"
     style="fill:url(#linearGradient7467);fill-opacity:1;stroke-width:20;stroke-linecap:round;stroke-linejoin:round"
     d="m 69.999999,50.000002 a 20,20 0 0 0 -20,20 c -6.647994,0 -12,5.352008 -12,12 0,6.647992 5.352006,12 12,12 h 40 c 6.647992,0 12.000001,-5.352008 12.000001,-12 0,-6.647992 -5.352009,-12 -12.000001,-12 a 20,20 0 0 0 -20,-20 z" />
  <path
     id="rect441"
     style="opacity:0.3;fill:#ffffff"
     d="M 28,9 C 17.474011,9 9,17.474011 9,28 v 1 C 9,18.474011 17.474011,10 28,10 h 72 c 10.52599,0 19,8.474011 19,19 V 28 C 119,17.474011 110.52599,9 100,9 Z" />
  <path
     id="rect443"
     style="opacity:0.3;fill:#ffffff"
     d="m 9,99 v 1 c 0,10.52599 8.474011,19 19,19 h 72 c 10.52599,0 19,-8.47401 19,-19 v -1 c 0,10.52599 -8.47401,19 -19,19 H 28 C 17.474011,118 9,109.52599 9,99 Z" />
  <path
     id="rect899"
     style="fill:#000000;stroke:none;stroke-width:2;opacity:0.5"
     d="M 28,8 C 16.920022,8 8,16.920022 8,28 v 72 c 0,11.07998 8.920022,20 20,20 h 72 c 11.07998,0 20,-8.92002 20,-20 V 28 C 120,16.920022 111.07998,8 100,8 Z m 0,1 h 72 c 10.52599,0 19,8.474011 19,19 v 72 c 0,10.52599 -8.47401,19 -19,19 H 28 C 17.474011,119 9,110.52599 9,100 V 28 C 9,17.474011 17.474011,9 28,9 Z" />
</svg>
