<?xml version="1.0" encoding="UTF-8" standalone="no"?>
<!-- Created with Inkscape (http://www.inkscape.org/) -->

<svg
   width="128"
   height="128"
   viewBox="0 0 128 128.00001"
   version="1.1"
   id="svg5"
   sodipodi:docname="inkscape.svg"
   inkscape:version="1.2.1 (9c6d41e410, 2022-07-14)"
   xmlns:inkscape="http://www.inkscape.org/namespaces/inkscape"
   xmlns:sodipodi="http://sodipodi.sourceforge.net/DTD/sodipodi-0.dtd"
   xmlns:xlink="http://www.w3.org/1999/xlink"
   xmlns="http://www.w3.org/2000/svg"
   xmlns:svg="http://www.w3.org/2000/svg">
  <sodipodi:namedview
     id="namedview7"
     pagecolor="#ffffff"
     bordercolor="#666666"
     borderopacity="1.0"
     inkscape:showpageshadow="2"
     inkscape:pageopacity="0.0"
     inkscape:pagecheckerboard="0"
     inkscape:deskcolor="#d1d1d1"
     inkscape:document-units="px"
     showgrid="false"
     inkscape:zoom="4.4967572"
     inkscape:cx="31.244738"
     inkscape:cy="66.49236"
     inkscape:window-width="1920"
     inkscape:window-height="1007"
     inkscape:window-x="0"
     inkscape:window-y="0"
     inkscape:window-maximized="1"
     inkscape:current-layer="svg5" />
  <defs
     id="defs2">
    <linearGradient
       inkscape:collect="always"
       xlink:href="#4852"
       id="linearGradient3525"
       x1="96"
       y1="116"
       x2="24.000002"
       y2="3.9999969"
       gradientUnits="userSpaceOnUse"
       gradientTransform="translate(3.9999978,4.0000032)" />
    <linearGradient
       inkscape:collect="always"
       id="4852">
      <stop
         style="stop-color:#333333;stop-opacity:1"
         offset="0"
         id="stop14555" />
      <stop
         style="stop-color:#666666;stop-opacity:1"
         offset="1"
         id="stop14557" />
    </linearGradient>
  </defs>
  <rect
     style="fill:url(#linearGradient3525);fill-opacity:1.0;stroke:none"
     id="rect184"
     width="111"
     height="111"
     x="8.5"
     y="8.5"
     ry="19.5" />
  <path
     d="m 64.000003,25 c -2.261304,0 -4.524096,0.85588 -6.232636,2.664932 L 26.664933,59.722226 c -1.708544,1.758792 -2.61468,4.072996 -2.664932,6.384552 v 0.14756 c 0,6.88442 18.341711,0.2018 20.000003,8.593756 0.904516,4.572859 -10,2.462719 -10,7.035587 0,5.376888 15.425976,1.708908 19.848092,6.080732 1.809043,4.422108 -5.929608,3.717936 -4.522576,7.838547 2.562816,2.663312 8.391007,1.155748 9.496535,5.47743 1.306536,4.92463 9.648196,4.06954 14.522564,0.45143 2.613071,-2.663316 -3.96906,-3.866296 -1.406256,-6.579868 2.613071,-2.663315 15.376927,-2.113559 15.477435,-7.942703 -1.206036,-3.668396 -6.03048,-4.2722 -6.080732,-8.593796 -0.2512,-3.668343 3.921176,-2.610208 17.187503,-6.228299 C 103.79894,69.874598 104,68.565894 104,66.254342 v -0.14756 c -0.0504,-2.3115 -1.10396,-4.625764 -2.8125,-6.384556 L 70.232647,27.664932 C 68.473855,25.855888 66.261315,25 64.000003,25 Z m 0.603292,6.731772 c 2.361808,0 8.793928,7.943711 14.522575,13.923611 1.658284,2.160796 -0.603288,4.37066 -0.603288,4.37066 l -12.009559,-6.5842 -5.325516,7.1875 -4.67448,-7.035592 -2.812507,10.95486 -8.294268,-4.973956 2.21354,-2.81684 12.964415,-13.315975 c 0.954768,-1.005036 1.757788,-1.71006 4.019088,-1.710068 z m 35.147582,48.125005 c -0.466392,6.4e-5 -0.889112,0.05668 -1.2283,0.16924 -0.854264,0.25128 -4.874331,0.400784 -4.522568,3.415804 3.618088,1.557772 9.147091,2.761424 9.800351,-0.3038 0.50252,-2.261316 -1.65816,-3.213628 -3.56772,-3.263888 -0.16328,-0.012 -0.326315,-0.0172 -0.481731,-0.0172 z M 38.774308,89.986989 c -0.18444,5.96e-4 -0.36856,0.0136 -0.55122,0.0392 -0.35176,0.04988 -0.605616,0.14784 -0.907116,0.29948 -2.763824,1.055232 -4.624451,3.268316 -2.061636,4.223096 2.562812,0.954771 4.322896,-0.05216 6.584204,-1.258692 2.261304,-1.206032 2.1603,-1.405228 2.009548,-1.857636 -0.30148,0.04988 -2.361768,-1.205308 -4.522572,-1.406256 -0.18264,-0.0256 -0.3668,-0.0384 -0.551208,-0.0392 z"
     style="opacity:0.2;fill:#000000;fill-opacity:1;stroke-width:5.02512"
     id="path624" />
  <path
     d="m 64.000003,24 c -2.261304,0 -4.524096,0.85588 -6.232636,2.664932 L 26.664932,58.722223 C 24.956392,60.481015 24.050256,62.795219 24,65.106771 v 0.14756 c 0,6.88442 18.341712,0.2018 20.000007,8.593756 0.904516,4.572856 -10.000003,2.462716 -10.000003,7.035584 0,5.376891 15.425979,1.708908 19.848095,6.080735 1.80904,4.422108 -5.929608,3.717936 -4.522576,7.838544 2.562816,2.663312 8.391004,1.155748 9.496532,5.47743 1.306536,4.92463 9.648196,4.06954 14.522564,0.45143 2.613068,-2.663316 -3.96906,-3.866296 -1.406256,-6.579868 2.613068,-2.663312 15.376927,-2.113556 15.477435,-7.9427 -1.206036,-3.668399 -6.030483,-4.272203 -6.080735,-8.593799 -0.2512,-3.66834 3.921179,-2.610208 17.187503,-6.228296 C 103.79894,68.874591 104,67.565887 104,65.254335 v -0.14756 c -0.0504,-2.311496 -1.10396,-4.62576 -2.8125,-6.384552 L 70.232647,26.664932 C 68.473855,24.855888 66.261315,24 64.000003,24 Z m 0.603292,6.731772 c 2.361808,0 8.793928,7.943708 14.522572,13.923611 1.658284,2.160796 -0.603288,4.37066 -0.603288,4.37066 l -12.009556,-6.584203 -5.325516,7.187503 -4.67448,-7.035595 -2.812504,10.954863 -8.294268,-4.973956 2.21354,-2.81684 12.964412,-13.315975 c 0.954768,-1.005036 1.757788,-1.71006 4.019088,-1.710068 z m 35.147579,48.124995 c -0.466392,6.4e-5 -0.889112,0.05668 -1.2283,0.16924 -0.854264,0.25128 -4.874328,0.400784 -4.522568,3.415804 3.618088,1.557772 9.147074,2.761427 9.800334,-0.3038 0.50254,-2.261316 -1.65814,-3.213628 -3.5677,-3.263888 -0.16328,-0.012 -0.326318,-0.0172 -0.481734,-0.0172 z M 38.774308,88.986982 c -0.18444,5.96e-4 -0.36856,0.0136 -0.55122,0.0392 -0.35176,0.04988 -0.605616,0.14784 -0.907116,0.29948 -2.763824,1.055232 -4.624448,3.268316 -2.061636,4.223096 2.562812,0.954768 4.322896,-0.05216 6.584204,-1.258692 2.261307,-1.206032 2.1603,-1.405228 2.009548,-1.857636 -0.30148,0.04988 -2.361768,-1.205308 -4.522572,-1.406256 -0.18264,-0.0256 -0.3668,-0.0384 -0.551208,-0.0392 z"
     style="fill:#ffffff;fill-opacity:1;stroke-width:5.02512"
     id="path335"
     sodipodi:nodetypes="scccscsccccccccscccsscccccccccscccccccsccscccss" />
  <path
     id="rect441"
     style="opacity:0.3;fill:#ffffff"
     d="M 28,9 C 17.474011,9 9,17.474011 9,28 v 1 C 9,18.474011 17.474011,10 28,10 h 72 c 10.52599,0 19,8.474011 19,19 V 28 C 119,17.474011 110.52599,9 100,9 Z" />
  <path
     id="rect443"
     style="opacity:0.3;fill:#ffffff"
     d="m 9,99 v 1 c 0,10.52599 8.474011,19 19,19 h 72 c 10.52599,0 19,-8.47401 19,-19 v -1 c 0,10.52599 -8.47401,19 -19,19 H 28 C 17.474011,118 9,109.52599 9,99 Z" />
  <path
     id="rect899"
     style="fill:#000000;stroke:none;stroke-width:2;opacity:0.5"
     d="M 28,8 C 16.920022,8 8,16.920022 8,28 v 72 c 0,11.07998 8.920022,20 20,20 h 72 c 11.07998,0 20,-8.92002 20,-20 V 28 C 120,16.920022 111.07998,8 100,8 Z m 0,1 h 72 c 10.52599,0 19,8.474011 19,19 v 72 c 0,10.52599 -8.47401,19 -19,19 H 28 C 17.474011,119 9,110.52599 9,100 V 28 C 9,17.474011 17.474011,9 28,9 Z" />
</svg>
