<?xml version="1.0" encoding="UTF-8" standalone="no"?>
<!-- Created with Inkscape (http://www.inkscape.org/) -->

<svg
   width="128"
   height="128"
   viewBox="0 0 128 128.00001"
   version="1.1"
   id="svg5"
   sodipodi:docname="java.svg"
   inkscape:version="1.2.1 (9c6d41e410, 2022-07-14)"
   xmlns:inkscape="http://www.inkscape.org/namespaces/inkscape"
   xmlns:sodipodi="http://sodipodi.sourceforge.net/DTD/sodipodi-0.dtd"
   xmlns:xlink="http://www.w3.org/1999/xlink"
   xmlns="http://www.w3.org/2000/svg"
   xmlns:svg="http://www.w3.org/2000/svg">
  <sodipodi:namedview
     id="namedview7"
     pagecolor="#ffffff"
     bordercolor="#666666"
     borderopacity="1.0"
     inkscape:showpageshadow="2"
     inkscape:pageopacity="0.0"
     inkscape:pagecheckerboard="0"
     inkscape:deskcolor="#d1d1d1"
     inkscape:document-units="px"
     showgrid="false"
     inkscape:zoom="6.171875"
     inkscape:cx="64.081013"
     inkscape:cy="64.081013"
     inkscape:window-width="1920"
     inkscape:window-height="1007"
     inkscape:window-x="0"
     inkscape:window-y="0"
     inkscape:window-maximized="1"
     inkscape:current-layer="svg5" />
  <defs
     id="defs2">
    <linearGradient
       inkscape:collect="always"
       xlink:href="#linearGradient22024"
       id="linearGradient3525"
       x1="49.837837"
       y1="59.747749"
       x2="14.162162"
       y2="4.2522521"
       gradientUnits="userSpaceOnUse"
       gradientTransform="matrix(2.0181818,0,0,2.0181818,-0.58181789,-0.58181778)" />
    <linearGradient
       inkscape:collect="always"
       id="linearGradient22024">
      <stop
         style="stop-color:#dedede;stop-opacity:1;"
         offset="0"
         id="stop22020" />
      <stop
         style="stop-color:#f2f2f2;stop-opacity:1;"
         offset="1"
         id="stop22022" />
    </linearGradient>
  </defs>
  <rect
     style="fill:url(#linearGradient3525);fill-opacity:1;stroke:none;stroke-width:2.01818"
     id="rect184"
     width="111"
     height="111"
     x="8.5"
     y="8.5"
     ry="19.5" />
  <path
     id="path3787"
     style="opacity:0.2;fill:#000000;stroke-width:1.33459"
     d="m 71.60173,25.000005 c 3.181558,13.208236 -11.222678,17.196332 -16.421742,25.42167 -3.540412,5.603606 1.733336,11.628238 8.929615,18.468598 -2.806219,-6.683777 -12.3194,-12.530187 0.008,-22.788874 C 79.489282,33.317833 71.60173,25.000005 71.60173,25.000005 Z m 9.507734,16.335804 c 1.68e-4,0 -25.992213,6.841892 -13.578018,21.913886 3.664582,4.444528 -0.960927,8.445244 -0.960927,8.445244 0,0 9.301157,-5.062387 5.031211,-11.398345 -3.9895,-5.905948 -7.050811,-8.842372 9.507734,-18.960785 z m 4.601523,26.929469 c -0.913285,0.0018 -1.880102,0.170721 -2.874976,0.539059 -0.79765,0.297479 -1.218739,0.984369 -1.218739,0.984369 0,0 0.508461,-0.213719 1.632799,-0.460937 4.597855,-1.009619 11.183682,6.483349 -3.062476,14.281136 -0.066,0.185801 -0.289237,0.398438 -0.289077,0.398438 16.942411,-4.692281 13.24922,-15.756689 5.812453,-15.742061 z m -31.218495,0.757806 c -1.816281,0.05008 -6.066198,0.465608 -11.007723,2.984351 -7.794633,3.970816 19.272765,5.782391 33.288791,1.898421 1.456991,-1.047699 3.468723,-1.953107 3.468723,-1.953107 0,0 -5.733496,1.073043 -11.445219,1.57811 -6.990595,0.617975 -14.485551,0.741671 -18.249851,0.210919 -8.912533,-1.255383 4.882772,-4.710902 4.882772,-4.710902 0,0 -0.332078,-0.0244 -0.937493,-0.008 z m -2.273417,9.085865 c -12.856261,4.496109 7.154894,9.600455 25.124796,4.062469 -1.909276,-0.709108 -3.117162,-2.007796 -3.117162,-2.007796 -8.785634,1.781549 -13.860773,1.72263 -20.288899,1.023427 -4.969713,-0.541115 -1.718735,-3.0781 -1.718735,-3.0781 z m 1.820297,8.757742 c -11.674389,3.436944 7.09571,10.538175 21.960758,3.828094 -2.4346,-0.996869 -4.179655,-2.148419 -4.179655,-2.148419 -6.628745,1.320188 -9.701612,1.426925 -15.718621,0.703117 -4.965939,-0.600019 -2.062482,-2.382792 -2.062482,-2.382792 z m -8.109311,5.804642 c -5.242732,0.1704 -15.501625,5.138837 -6.12495,6.742133 30.304788,5.175644 55.243365,-2.333565 47.382427,-6.070264 0,0 2.151779,1.870509 -2.359356,3.312471 -8.577991,2.737489 -35.713759,3.563117 -43.249648,0.10936 -2.70699,-1.242314 2.370787,-2.964389 3.968719,-3.328097 1.666191,-0.379798 2.617168,-0.312517 2.617168,-0.312517 -0.470753,-0.349278 -1.263483,-0.484681 -2.23436,-0.45312 z M 92,97.421294 c 0,0 -0.952344,2.582436 -11.296784,4.632776 -11.670229,2.31487 -26.073361,2.04745 -34.609092,0.56249 0,0 1.748947,1.5236 10.734286,2.1328 C 70.499891,105.67031 91.503328,104.23794 92,97.421294 Z"
     sodipodi:nodetypes="ccccccccccccccccccccccccccccccccccccccccccccccccccc" />
  <path
     d="m 85.710987,67.265273 c -0.913285,0.0018 -1.880102,0.170721 -2.874976,0.539059 -0.79765,0.297479 -1.218739,0.984369 -1.218739,0.984369 0,0 0.508461,-0.213719 1.632799,-0.460937 4.597855,-1.009619 11.183682,6.483349 -3.062476,14.281136 -0.066,0.185801 -0.289237,0.398438 -0.289077,0.398438 16.942411,-4.692281 13.24922,-15.756689 5.812453,-15.742061 z m -31.218495,0.757806 c -1.816281,0.05008 -6.066198,0.465608 -11.007723,2.984351 -7.794633,3.970816 19.272765,5.782391 33.288791,1.898421 1.456991,-1.047699 3.468723,-1.953107 3.468723,-1.953107 0,0 -5.733496,1.073043 -11.445219,1.578109 -6.990595,0.617976 -14.485551,0.741672 -18.249851,0.21092 -8.912533,-1.255383 4.882772,-4.710902 4.882772,-4.710902 0,0 -0.332078,-0.0244 -0.937493,-0.008 z m -2.273417,9.085865 c -12.856261,4.496109 7.154894,9.600455 25.124796,4.062469 -1.909276,-0.709108 -3.117162,-2.007796 -3.117162,-2.007796 -8.785634,1.781549 -13.860773,1.72263 -20.288899,1.023427 -4.969713,-0.541115 -1.718735,-3.0781 -1.718735,-3.0781 z m 1.820297,8.757742 c -11.674389,3.436944 7.09571,10.538175 21.960758,3.828094 -2.4346,-0.996869 -4.179655,-2.148419 -4.179655,-2.148419 -6.628745,1.320188 -9.701612,1.426925 -15.718621,0.703117 -4.965939,-0.600019 -2.062482,-2.382792 -2.062482,-2.382792 z m -8.109311,5.804642 c -5.242732,0.1704 -15.501625,5.138837 -6.12495,6.742133 30.304788,5.175649 55.243365,-2.333565 47.382427,-6.070264 0,0 2.151779,1.870509 -2.359356,3.312471 -8.577991,2.737489 -35.713759,3.563121 -43.249648,0.10936 -2.70699,-1.242314 2.370787,-2.964389 3.968719,-3.328097 1.666191,-0.379798 2.617168,-0.312517 2.617168,-0.312517 -0.470753,-0.349278 -1.263483,-0.484681 -2.23436,-0.45312 z M 92,96.421289 c 0,0 -0.952344,2.582431 -11.296784,4.632771 -11.670229,2.31487 -26.073361,2.04745 -34.609092,0.5625 0,0 1.748947,1.5236 10.734286,2.13279 C 70.499891,104.6703 91.503328,103.23793 92,96.421289 Z"
     style="fill:#5a87b6;fill-opacity:1;stroke-width:1.33459"
     id="path4299" />
  <path
     d="m 71.60173,24 c 3.181558,13.208236 -11.222678,17.196332 -16.421742,25.42167 -3.540412,5.603606 1.733336,11.628238 8.929615,18.4686 -2.806219,-6.683779 -12.3194,-12.530187 0.008,-22.788876 C 79.489282,32.317828 71.60173,24 71.60173,24 Z m 9.507734,16.335804 c 1.68e-4,0 -25.992213,6.841894 -13.578018,21.913886 3.664582,4.44453 -0.960927,8.445248 -0.960927,8.445248 0,0 9.301157,-5.062389 5.031211,-11.398349 -3.9895,-5.905948 -7.050811,-8.842372 9.507734,-18.960785 z"
     style="fill:#ff9955;stroke-width:1.33459"
     id="path4332" />
  <path
     id="rect441"
     style="opacity:0.3;fill:#ffffff"
     d="M 28,9 C 17.474011,9 9,17.474011 9,28 v 1 C 9,18.474011 17.474011,10 28,10 h 72 c 10.52599,0 19,8.474011 19,19 V 28 C 119,17.474011 110.52599,9 100,9 Z" />
  <path
     id="rect443"
     style="opacity:0.3;fill:#ffffff"
     d="m 9,99 v 1 c 0,10.52599 8.474011,19 19,19 h 72 c 10.52599,0 19,-8.47401 19,-19 v -1 c 0,10.52599 -8.47401,19 -19,19 H 28 C 17.474011,118 9,109.52599 9,99 Z" />
  <path
     id="rect899"
     style="fill:#000000;stroke:none;stroke-width:2;opacity:0.5"
     d="M 28,8 C 16.920022,8 8,16.920022 8,28 v 72 c 0,11.07998 8.920022,20 20,20 h 72 c 11.07998,0 20,-8.92002 20,-20 V 28 C 120,16.920022 111.07998,8 100,8 Z m 0,1 h 72 c 10.52599,0 19,8.474011 19,19 v 72 c 0,10.52599 -8.47401,19 -19,19 H 28 C 17.474011,119 9,110.52599 9,100 V 28 C 9,17.474011 17.474011,9 28,9 Z" />
</svg>
