<?xml version="1.0" encoding="UTF-8" standalone="no"?>
<!-- Created with Inkscape (http://www.inkscape.org/) -->

<svg
   width="128"
   height="128"
   viewBox="0 0 128 128.00001"
   version="1.1"
   id="svg5"
   sodipodi:docname="kate.svg"
   inkscape:version="1.2.1 (9c6d41e410, 2022-07-14)"
   xmlns:inkscape="http://www.inkscape.org/namespaces/inkscape"
   xmlns:sodipodi="http://sodipodi.sourceforge.net/DTD/sodipodi-0.dtd"
   xmlns:xlink="http://www.w3.org/1999/xlink"
   xmlns="http://www.w3.org/2000/svg"
   xmlns:svg="http://www.w3.org/2000/svg">
  <sodipodi:namedview
     id="namedview7"
     pagecolor="#ffffff"
     bordercolor="#666666"
     borderopacity="1.0"
     inkscape:showpageshadow="2"
     inkscape:pageopacity="0.0"
     inkscape:pagecheckerboard="0"
     inkscape:deskcolor="#d1d1d1"
     inkscape:document-units="px"
     showgrid="false"
     inkscape:zoom="4.5961941"
     inkscape:cx="-12.836708"
     inkscape:cy="45.689976"
     inkscape:window-width="1920"
     inkscape:window-height="1012"
     inkscape:window-x="0"
     inkscape:window-y="0"
     inkscape:window-maximized="1"
     inkscape:current-layer="svg5" />
  <defs
     id="defs2">
    <linearGradient
       inkscape:collect="always"
       xlink:href="#linearGradient1493"
       id="linearGradient3525"
       x1="49.837837"
       y1="59.747749"
       x2="14.162162"
       y2="4.2522521"
       gradientUnits="userSpaceOnUse"
       gradientTransform="matrix(2.0181818,0,0,2.0181818,-0.58181789,-0.58181778)" />
    <linearGradient
       inkscape:collect="always"
       id="linearGradient1493">
      <stop
         style="stop-color:#197cf1;stop-opacity:1;"
         offset="0"
         id="stop1489" />
      <stop
         style="stop-color:#20bcfa;stop-opacity:1;"
         offset="1"
         id="stop1491" />
    </linearGradient>
  </defs>
  <rect
     style="fill:url(#linearGradient3525);fill-opacity:1;stroke:none;stroke-width:2.01818"
     id="rect184"
     width="111"
     height="111"
     x="8.5"
     y="8.5"
     ry="19.5" />
  <path
     d="M 60.703127,25.00001 C 54.604843,24.99521 47.582368,26.745114 40.781252,31.671886 34.135752,36.48595 31.22354,37.790478 28,39.390638 c 2.825816,0.2156 19.520944,-2.147332 22.953124,7.390623 -12.311748,4.0621 -17.104936,10.692608 -15.468748,18.390624 0.2496,1.329096 0.691376,2.71898 1.375,4.156252 0.723776,1.521676 1.55088,2.825732 2.453124,3.984376 0.026,0.0368 0.05176,0.0728 0.07816,0.10936 5.63958,7.1412 14.512803,8.252632 24.109375,14.671879 C 72.234291,93.936168 75.129803,96.901616 80.765659,105 79.593643,93.810584 73.421991,79.400857 70.890623,73.046889 l -0.0156,-0.0472 c 7.919684,5.817728 17.310976,8.349472 28.374975,9.140952 C 81.570683,69.555745 78.213211,66.578861 68.093751,57.953137 c -6.789064,0.34208 -6.043384,0.28612 -10.046876,0.515624 0.473892,0.789968 0.963552,1.539604 1.453124,2.281248 4.111056,7.215452 4.953112,16.270792 -3.734376,18.078128 -9.019931,1.87648 -18.863307,-5.910892 -16.390623,-14.25 2.685052,-9.055248 15.419319,-7.319824 27.578127,-8.890628 12.158788,-1.570792 23.271072,-13.486348 29.95312,-22.312499 -9.6204,3.282452 -21.8923,6.301628 -35.562496,10.265627 -2.663056,-5.447983 -5.30256,-14.866555 12.593752,-15.546875 -3.18164,-1.726364 -7.853544,-3.089536 -13.234376,-3.093752 z"
     style="opacity:0.2;fill:#000000;fill-opacity:1;stroke-width:2.85714"
     id="path8081" />
  <path
     style="fill:#cccccc;fill-opacity:1;stroke-width:2.85714"
     d="M 51.0946,46.257503 C 48.054144,36.163656 30.872048,38.612988 28,38.393852 c 3.223544,-1.600164 6.118384,-1.008356 12.763888,-5.82242 12.802111,-9.273936 21.783935,-9.3972 28.571431,-5.714288 -18.556039,0.705392 -10.430424,11.049708 -7.697288,16.376383 -3.475744,1.009596 -8.962464,2.533648 -10.543431,3.023976 z"
     id="path10" />
  <path
     style="fill:#f2f2f2;stroke-width:2.85714"
     d="m 96.898583,32.367916 c -6.682056,8.826164 -17.791648,20.750911 -29.950456,22.321707 -12.158816,1.570808 -24.892943,-0.16928 -27.577999,8.88596 -2.472688,8.33912 7.366688,16.124936 16.386631,14.248456 9.63612,-2.004688 7.555056,-12.926528 2.284464,-20.364032 4.003504,-0.22948 1.647872,1.167936 8.436944,0.825692 l 4.409744,13.749948 C 73.419279,78.389623 79.591911,92.810558 80.763887,104 75.128023,95.901606 72.229279,92.925462 63.495015,87.083039 52.306991,79.599263 42.103296,79.345903 36.858928,68.320023 31.62588,57.317959 39.695192,49.392743 52.089911,45.960575 69.802863,41.055744 85.064927,36.40552 96.898583,32.367916 Z"
     id="path12" />
  <path
     style="fill:#cccccc;fill-opacity:1;stroke-width:2.85714"
     d="m 58.041239,57.460007 c 4.003496,-0.22948 3.258768,-0.17024 10.04784,-0.51232 C 78.208551,65.573423 81.562743,68.557959 99.24207,81.142863 81.471975,79.871655 68.026639,74.105503 58.041239,57.460007 Z"
     id="path14" />
  <path
     style="fill:#e6e6e6;fill-opacity:1;stroke-width:2.85714"
     d="m 28,38.393852 c 3.223544,-1.600164 6.136704,-2.919156 12.782208,-7.733228 12.802119,-9.273928 26.356159,-7.251412 33.143655,-3.568504 -18.55604,0.7054 -16.165144,4.40266 -16.233616,7.301088 C 45.363568,31.794484 41.763848,35.330292 28,38.393852 Z"
     id="path16" />
  <path
     style="fill:#f2f2f2;stroke-width:2.85714"
     d="m 73.925863,27.09212 c -18.55604,0.7054 -15.020968,10.814732 -12.287832,16.141407 -2.165384,0.628976 -3.085184,1.345512 -5.979856,2.111608 C 43.978464,24.533872 64.393151,21.826452 73.925863,27.09212 Z"
     id="path18" />
  <path
     style="fill:#e6e6e6;fill-opacity:1;stroke-width:2.85714"
     d="M 40.20028,73.504575 C 31.119976,61.812559 33.939224,51.095807 51.719783,45.527739 69.266255,40.032972 85.064927,36.40552 96.898583,32.367916 64.963935,44.535707 23.83284,52.666175 40.20028,73.504575 Z"
     id="path20" />
  <path
     id="rect441"
     style="opacity:0.3;fill:#ffffff"
     d="M 28,9 C 17.474011,9 9,17.474011 9,28 v 1 C 9,18.474011 17.474011,10 28,10 h 72 c 10.52599,0 19,8.474011 19,19 V 28 C 119,17.474011 110.52599,9 100,9 Z" />
  <path
     id="rect443"
     style="opacity:0.3;fill:#ffffff"
     d="m 9,99 v 1 c 0,10.52599 8.474011,19 19,19 h 72 c 10.52599,0 19,-8.47401 19,-19 v -1 c 0,10.52599 -8.47401,19 -19,19 H 28 C 17.474011,118 9,109.52599 9,99 Z" />
  <path
     id="rect899"
     style="fill:#000000;stroke:none;stroke-width:2;opacity:0.5"
     d="M 28,8 C 16.920022,8 8,16.920022 8,28 v 72 c 0,11.07998 8.920022,20 20,20 h 72 c 11.07998,0 20,-8.92002 20,-20 V 28 C 120,16.920022 111.07998,8 100,8 Z m 0,1 h 72 c 10.52599,0 19,8.474011 19,19 v 72 c 0,10.52599 -8.47401,19 -19,19 H 28 C 17.474011,119 9,110.52599 9,100 V 28 C 9,17.474011 17.474011,9 28,9 Z" />
</svg>
