<?xml version="1.0" encoding="UTF-8" standalone="no"?>
<!-- Created with Inkscape (http://www.inkscape.org/) -->

<svg
   width="128"
   height="128"
   viewBox="0 0 128 128.00001"
   version="1.1"
   id="svg5"
   sodipodi:docname="kleopatra.svg"
   inkscape:version="1.2.1 (9c6d41e410, 2022-07-14)"
   xmlns:inkscape="http://www.inkscape.org/namespaces/inkscape"
   xmlns:sodipodi="http://sodipodi.sourceforge.net/DTD/sodipodi-0.dtd"
   xmlns:xlink="http://www.w3.org/1999/xlink"
   xmlns="http://www.w3.org/2000/svg"
   xmlns:svg="http://www.w3.org/2000/svg">
  <sodipodi:namedview
     id="namedview7"
     pagecolor="#ffffff"
     bordercolor="#666666"
     borderopacity="1.0"
     inkscape:showpageshadow="2"
     inkscape:pageopacity="0.0"
     inkscape:pagecheckerboard="0"
     inkscape:deskcolor="#d1d1d1"
     inkscape:document-units="px"
     showgrid="false"
     inkscape:zoom="3.1796875"
     inkscape:cx="22.643735"
     inkscape:cy="88.845209"
     inkscape:window-width="1920"
     inkscape:window-height="1007"
     inkscape:window-x="0"
     inkscape:window-y="0"
     inkscape:window-maximized="1"
     inkscape:current-layer="svg5" />
  <defs
     id="defs2">
    <linearGradient
       inkscape:collect="always"
       xlink:href="#linearGradient1617"
       id="linearGradient3525"
       x1="96"
       y1="116"
       x2="24.000002"
       y2="3.9999969"
       gradientUnits="userSpaceOnUse"
       gradientTransform="translate(3.9999978,4.0000032)" />
    <linearGradient
       inkscape:collect="always"
       id="linearGradient1617">
      <stop
         style="stop-color:#d5a43a;stop-opacity:1;"
         offset="0"
         id="stop1613" />
      <stop
         style="stop-color:#e0bc6f;stop-opacity:1;"
         offset="1"
         id="stop1615" />
    </linearGradient>
  </defs>
  <rect
     style="fill:url(#linearGradient3525);fill-opacity:1.0;stroke:none"
     id="rect184"
     width="111"
     height="111"
     x="8.5"
     y="8.5"
     ry="19.5" />
  <path
     d="m 56.24172,34 c -7.366097,0 -15.124399,1.915517 -23.097887,5.699275 -6.490201,3.079873 -9.265209,5.62092 -7.730547,7.082103 0.541359,0.515447 0.167041,0.622764 9.257906,-2.750028 6.212755,-2.304975 13.853899,-4.249626 17.984554,-4.582077 6.378084,-0.513332 13.97443,1.0829 27.422151,5.757871 4.829112,1.678793 10.382596,3.442171 12.339967,3.918007 4.186218,1.017663 4.627079,0.859817 8.117266,0.871103 L 103,50.000254 V 48.00414 c 0,-2.276841 -0.28436,-2.093771 -3.300813,-2.093771 -6.724813,0 -8.402284,-1.031982 -18.523623,-5.300833 C 70.334711,36.037056 63.767248,34 56.24172,34 Z m -4.523483,16.023598 c -1.143343,0.04196 -2.163678,0.147342 -2.984404,0.31641 -3.78533,0.779703 -8.85555,3.613084 -11.964964,6.488345 -4.819718,4.45678 -10.26792,12.78979 -9.734473,14.890777 0.240222,0.946097 0.495407,1.010116 4.742235,1.187511 2.465333,0.103001 7.293549,0.661623 11.078237,1.238295 l 6.964914,1.042978 v 2.933624 c -1.187084,5.376653 -0.340133,8.280235 -0.128901,10.238384 0.791098,7.086965 0.801376,7.858283 2.63284,7.601638 2.829218,-4.599188 2.752966,-13.4208 2.773464,-18.504091 l 2.886749,2.796902 c 7.909097,6.975952 10.838174,7.476779 17.62127,10.73839 5.610348,2.28671 10.420432,3.299915 15.840003,2.906279 3.331511,0 7.537781,-3.692425 7.535231,-7.961018 -0.0014,-3.291451 -0.929315,-6.071535 -3.183626,-7.128977 -4.144297,-1.943976 -8.738369,0.361437 -8.738369,4.675828 0,4.234455 4.081127,6.587064 6.78913,3.910195 1.129621,-1.116639 1.407654,-3.000284 0.605476,-4.132855 -0.35602,-0.502667 -0.394176,-0.418798 -0.171882,0.35938 0.767226,2.685475 -1.324749,4.546201 -3.730505,3.316439 -2.514221,-1.285203 -2.038103,-5.413716 0.703133,-6.093811 1.354041,-0.335945 3.725525,1.833618 4.613326,3.625036 0.478431,0.965346 0.496079,1.553368 0.08594,2.906279 -1.345232,4.438357 -7.390186,4.460981 -16.488445,0.07422 -2.205368,-1.063333 -5.162658,-2.667045 -6.570378,-3.566442 -2.426254,-1.550135 -5.585754,-3.450766 -9.820412,-7.128977 -2.243301,-1.94854 -2.370234,-1.681551 3.480505,-2.625026 1.682084,-0.271225 6.600548,-1.683653 10.925889,-3.13675 7.684181,-2.581482 7.976114,-3.189294 12.672003,-3.222688 2.643278,-0.019 -1.748696,-0.184662 2.636744,0.004 l 8.211013,0.339751 V 64.23077 59.957291 l -9.519626,-0.234379 c -13.274027,-0.344619 -6.803006,-0.65075 -20.504111,-5.88287 -2.616222,-0.999068 -5.405146,-2.206826 -7.234449,-2.679715 -3.244048,-0.838621 -8.59354,-1.262581 -12.023558,-1.13673 z m 15.543126,6.808663 c 0.159061,0 2.423262,1.270686 6.074278,2.816434 3.651019,1.545743 7.112196,2.923681 7.687577,3.066436 0.575406,0.142782 1.042981,0.414625 1.042981,0.597662 0,0.183042 -2.210758,1.419229 -4.914113,2.746124 -5.513034,2.705963 -8.782574,3.84017 -14.109516,4.101603 l -1.312513,0.05468 1.417982,-1.10548 c 0.781114,-0.608528 1.960446,-2.014062 2.621121,-3.125033 1.048186,-1.762567 1.203138,-2.473041 1.203138,-5.582088 0,-1.959661 0.130001,-3.570353 0.289065,-3.570347 z m -22.988512,0.941415 c 0.654788,-0.122661 0.650116,0.881441 0.656256,2.886747 0.0124,3.946291 0.970804,6.096671 3.726599,8.359462 l 1.8008,1.476576 -9.265716,-0.777351 c -4.500389,-0.424361 -7.995236,-0.863749 -8.117272,-0.984384 -0.437404,-0.432361 2.778654,-3.73643 6.316472,-7.093825 2.634166,-2.499821 4.22807,-3.744586 4.882861,-3.867225 z"
     style="opacity:0.2;fill:#000000;stroke-width:2.00002"
     id="path822" />
  <path
     d="m 56.24172,33 c -7.366097,0 -15.124399,1.915517 -23.097887,5.699275 -6.490201,3.079873 -9.265209,5.62092 -7.730547,7.082103 0.541359,0.515447 0.167041,0.622764 9.257906,-2.750028 6.212755,-2.304975 13.853899,-4.249626 17.984554,-4.582077 6.378084,-0.513332 13.97443,1.0829 27.422151,5.757871 4.829112,1.678793 10.382596,3.442171 12.339967,3.918007 4.186218,1.017663 4.627079,0.859817 8.117266,0.871103 L 103,49.000254 V 47.00414 c 0,-2.276841 -0.28436,-2.093771 -3.300813,-2.093771 -6.724813,0 -8.402284,-1.031982 -18.523623,-5.300833 C 70.334711,35.037056 63.767248,33 56.24172,33 Z m -4.523483,16.023598 c -1.143343,0.04196 -2.163678,0.147342 -2.984404,0.31641 -3.78533,0.779703 -8.85555,3.613084 -11.964964,6.488345 -4.819718,4.45678 -10.26792,12.789788 -9.734473,14.890775 0.240222,0.946097 0.495407,1.010116 4.742235,1.187511 2.465333,0.103001 7.293549,0.661623 11.078237,1.238295 l 6.964914,1.042978 v 2.933624 c -1.187084,5.376653 -0.340133,8.280235 -0.128901,10.238384 0.791098,7.086965 0.801376,7.858283 2.63284,7.601638 2.829218,-4.599188 2.752966,-13.4208 2.773464,-18.504091 l 2.886749,2.796902 c 7.909097,6.975952 10.838174,7.476779 17.62127,10.73839 5.610348,2.28671 10.420432,3.299915 15.840003,2.906279 3.331511,0 7.537781,-3.692425 7.535231,-7.961018 -0.0014,-3.291451 -0.929315,-6.071535 -3.183626,-7.128977 -4.144297,-1.943976 -8.738369,0.361437 -8.738369,4.675828 0,4.234455 4.081127,6.587064 6.78913,3.910195 1.129621,-1.116639 1.407654,-3.000284 0.605476,-4.132855 -0.35602,-0.502667 -0.394176,-0.418798 -0.171882,0.35938 0.767226,2.685475 -1.324749,4.546201 -3.730505,3.316439 -2.514222,-1.285203 -2.038103,-5.413716 0.703133,-6.093811 1.354041,-0.335945 3.725525,1.833618 4.613326,3.625036 0.478431,0.965346 0.496079,1.553368 0.08594,2.906279 -1.345232,4.438357 -7.390186,4.460981 -16.488445,0.07422 -2.205368,-1.063333 -5.162658,-2.667045 -6.570378,-3.566442 -2.426254,-1.550135 -5.585754,-3.450766 -9.820412,-7.128977 -2.243301,-1.94854 -2.370234,-1.681551 3.480505,-2.625026 1.682084,-0.271225 6.600548,-1.683653 10.925889,-3.13675 7.684181,-2.581482 7.976114,-3.189294 12.672003,-3.222688 2.643278,-0.019 -1.748696,-0.184662 2.636744,0.004 l 8.211013,0.339751 v -3.882851 -4.273479 l -9.519625,-0.234379 c -13.274027,-0.344619 -6.803006,-0.65075 -20.504111,-5.88287 -2.616222,-0.999068 -5.405146,-2.206826 -7.234449,-2.679715 -3.244048,-0.838621 -8.59354,-1.262581 -12.023558,-1.13673 z m 15.543126,6.808663 c 0.159061,0 2.423262,1.270686 6.074278,2.816434 3.651019,1.545743 7.112195,2.923681 7.687577,3.066436 0.575406,0.142782 1.042981,0.414625 1.042981,0.597662 0,0.183042 -2.210758,1.419229 -4.914113,2.746122 -5.513034,2.705963 -8.782574,3.84017 -14.109516,4.101603 l -1.312513,0.05468 1.417982,-1.10548 c 0.781114,-0.608528 1.960446,-2.014062 2.621121,-3.125031 1.048186,-1.762567 1.203138,-2.473041 1.203138,-5.582088 0,-1.959661 0.130001,-3.570353 0.289065,-3.570347 z m -22.988512,0.941415 c 0.654788,-0.122661 0.650116,0.881441 0.656256,2.886747 0.0124,3.946291 0.970804,6.096669 3.726599,8.35946 l 1.8008,1.476576 -9.265716,-0.777351 c -4.500389,-0.424361 -7.995236,-0.863749 -8.117272,-0.984384 -0.437404,-0.432361 2.778654,-3.736428 6.316472,-7.093823 2.634166,-2.499821 4.22807,-3.744586 4.882861,-3.867225 z"
     style="fill:#482f00;stroke-width:2.00002"
     id="path304"
     sodipodi:nodetypes="ssscsssccsscsscsscccccccccccsssscssscssscsccccccsssssssscccssssccccccsc" />
  <path
     id="rect441"
     style="opacity:0.3;fill:#ffffff"
     d="M 28,9 C 17.474011,9 9,17.474011 9,28 v 1 C 9,18.474011 17.474011,10 28,10 h 72 c 10.52599,0 19,8.474011 19,19 V 28 C 119,17.474011 110.52599,9 100,9 Z" />
  <path
     id="rect443"
     style="opacity:0.3;fill:#ffffff"
     d="m 9,99 v 1 c 0,10.52599 8.474011,19 19,19 h 72 c 10.52599,0 19,-8.47401 19,-19 v -1 c 0,10.52599 -8.47401,19 -19,19 H 28 C 17.474011,118 9,109.52599 9,99 Z" />
  <path
     id="rect899"
     style="fill:#000000;stroke:none;stroke-width:2;opacity:0.5"
     d="M 28,8 C 16.920022,8 8,16.920022 8,28 v 72 c 0,11.07998 8.920022,20 20,20 h 72 c 11.07998,0 20,-8.92002 20,-20 V 28 C 120,16.920022 111.07998,8 100,8 Z m 0,1 h 72 c 10.52599,0 19,8.474011 19,19 v 72 c 0,10.52599 -8.47401,19 -19,19 H 28 C 17.474011,119 9,110.52599 9,100 V 28 C 9,17.474011 17.474011,9 28,9 Z" />
</svg>
