<?xml version="1.0" encoding="UTF-8" standalone="no"?>
<!-- Created with Inkscape (http://www.inkscape.org/) -->

<svg
   width="128"
   height="128"
   viewBox="0 0 128 128.00001"
   version="1.1"
   id="svg5"
   sodipodi:docname="kmahjongg.svg"
   inkscape:version="1.2.1 (9c6d41e410, 2022-07-14)"
   xmlns:inkscape="http://www.inkscape.org/namespaces/inkscape"
   xmlns:sodipodi="http://sodipodi.sourceforge.net/DTD/sodipodi-0.dtd"
   xmlns:xlink="http://www.w3.org/1999/xlink"
   xmlns="http://www.w3.org/2000/svg"
   xmlns:svg="http://www.w3.org/2000/svg">
  <sodipodi:namedview
     id="namedview7"
     pagecolor="#ffffff"
     bordercolor="#666666"
     borderopacity="1.0"
     inkscape:showpageshadow="2"
     inkscape:pageopacity="0.0"
     inkscape:pagecheckerboard="0"
     inkscape:deskcolor="#d1d1d1"
     inkscape:document-units="px"
     showgrid="false"
     inkscape:zoom="3.09375"
     inkscape:cx="-78.545455"
     inkscape:cy="51.555556"
     inkscape:window-width="1920"
     inkscape:window-height="1009"
     inkscape:window-x="0"
     inkscape:window-y="0"
     inkscape:window-maximized="1"
     inkscape:current-layer="svg5" />
  <defs
     id="defs2">
    <linearGradient
       inkscape:collect="always"
       xlink:href="#linearGradient1216"
       id="linearGradient3525"
       x1="49.837837"
       y1="59.747749"
       x2="14.162162"
       y2="4.2522521"
       gradientUnits="userSpaceOnUse"
       gradientTransform="matrix(2.0181818,0,0,2.0181818,-0.58181789,-0.58181778)" />
    <linearGradient
       inkscape:collect="always"
       id="linearGradient1216">
      <stop
         style="stop-color:#dc1111;stop-opacity:1;"
         offset="0"
         id="stop1212" />
      <stop
         style="stop-color:#dc5d4f;stop-opacity:1;"
         offset="1"
         id="stop1214" />
    </linearGradient>
  </defs>
  <rect
     style="fill:url(#linearGradient3525);fill-opacity:1.0;stroke:none;stroke-width:2.01818"
     id="rect184"
     width="111"
     height="111"
     x="8.5"
     y="8.5"
     ry="19.5" />
  <path
     d="m 54.635357,20.72366 c -0.6564,0.578948 -0.82048,1.447371 -0.82048,2.460527 0,1.88158 0.65636,4.197363 0.98456,5.065787 0,0 0.49232,10.131593 0.6564,11.289489 -1.47688,0.14472 -4.102399,0.28948 -5.086959,0.57894 h -1.31276 c -2.789639,0.14476 -5.415158,0.28948 -6.563838,1.302636 L 42,41.855255 l 0.49228,0.578943 c 0.82048,0.86842 1.14868,3.328944 1.47688,5.934215 0.820479,5.355251 1.804999,12.013153 6.727918,14.618408 l 0.98456,0.434216 v -1.01316 c 0,0 0.1644,-0.434215 0.1644,-1.013155 0,-0.434212 -0.1644,-1.1579 -0.328,-2.17106 1.312759,0.14472 4.102399,0.434216 5.086958,0.434216 0.16396,1.157892 4.430279,48.342102 4.430279,48.342102 h 1.64096 c 0,0 1.805079,-46.605254 1.805079,-48.052622 1.14864,0 6.235639,0.14472 7.712439,0.28948 -0.328,0.86842 -1.64092,4.486843 -1.64092,4.486843 l 2.297319,-1.88158 c 0.6564,-0.434208 14.932717,-11.868421 12.963557,-19.394731 -0.6564,-2.460531 -2.953719,-4.197375 -6.727918,-5.065787 h -0.1644 -0.1644 c -2.13324,0 -8.697038,0.14472 -13.619957,0.434204 0.1644,-3.763155 0.1644,-5.789482 0.1644,-6.802642 v -1.157896 -0.14472 c 0,-0.723691 0.82048,-1.736847 1.47688,-2.460531 0.6564,-0.868424 1.476879,-1.592104 1.476879,-2.460527 0,-0.28948 -0.164399,-0.578948 -0.327999,-0.868416 C 66.942634,23.618423 59.722396,20.289472 56.604596,20 c -0.984559,0.14472 -1.640959,0.28948 -1.969159,0.723684 z m 0.1644,23.736854 h 0.82048 c 0,1.302628 0.492279,10.421049 0.656359,11.723681 -1.312759,-0.14476 -4.430558,-0.434204 -5.415118,-0.434204 -0.49228,-1.881583 -0.6564,-3.907899 -0.82048,-5.934214 -0.164,-1.736844 -0.328,-3.473684 -0.6564,-5.065795 1.47688,0 5.415159,-0.28948 5.415159,-0.28948 z m 10.009837,4.486843 c 0,0 0.164,-3.473683 0.164,-4.631579 2.1332,0.28948 4.922839,0.434204 7.548358,0.434204 h 2.95372 c 0,0.578952 -0.1644,1.302636 -0.1644,1.302636 -0.328,3.184211 -0.82048,6.947362 -2.29736,10.710525 -0.984519,0 -7.056078,-0.28948 -8.368838,-0.434208 0,-1.01316 0.1644,-7.381578 0.1644,-7.381578 z"
     style="display:inline;fill:#ffffff;fill-opacity:1;stroke-width:4;enable-background:new"
     id="path861" />
  <path
     id="rect441"
     style="opacity:0.3;fill:#ffffff"
     d="M 28,9 C 17.474011,9 9,17.474011 9,28 v 1 C 9,18.474011 17.474011,10 28,10 h 72 c 10.52599,0 19,8.474011 19,19 V 28 C 119,17.474011 110.52599,9 100,9 Z" />
  <path
     id="rect443"
     style="opacity:0.3;fill:#ffffff"
     d="m 9,99 v 1 c 0,10.52599 8.474011,19 19,19 h 72 c 10.52599,0 19,-8.47401 19,-19 v -1 c 0,10.52599 -8.47401,19 -19,19 H 28 C 17.474011,118 9,109.52599 9,99 Z" />
  <path
     id="rect899"
     style="fill:#000000;stroke:none;stroke-width:2;opacity:0.5"
     d="M 28,8 C 16.920022,8 8,16.920022 8,28 v 72 c 0,11.07998 8.920022,20 20,20 h 72 c 11.07998,0 20,-8.92002 20,-20 V 28 C 120,16.920022 111.07998,8 100,8 Z m 0,1 h 72 c 10.52599,0 19,8.474011 19,19 v 72 c 0,10.52599 -8.47401,19 -19,19 H 28 C 17.474011,119 9,110.52599 9,100 V 28 C 9,17.474011 17.474011,9 28,9 Z" />
</svg>
