<?xml version="1.0" encoding="UTF-8" standalone="no"?>
<!-- Created with Inkscape (http://www.inkscape.org/) -->

<svg
   width="128"
   height="128"
   viewBox="0 0 128 128.00001"
   version="1.1"
   id="svg5"
   sodipodi:docname="kmenuedit.svg"
   inkscape:version="1.2.1 (9c6d41e410, 2022-07-14)"
   xmlns:inkscape="http://www.inkscape.org/namespaces/inkscape"
   xmlns:sodipodi="http://sodipodi.sourceforge.net/DTD/sodipodi-0.dtd"
   xmlns:xlink="http://www.w3.org/1999/xlink"
   xmlns="http://www.w3.org/2000/svg"
   xmlns:svg="http://www.w3.org/2000/svg">
  <sodipodi:namedview
     id="namedview7"
     pagecolor="#ffffff"
     bordercolor="#666666"
     borderopacity="1.0"
     inkscape:showpageshadow="2"
     inkscape:pageopacity="0.0"
     inkscape:pagecheckerboard="0"
     inkscape:deskcolor="#d1d1d1"
     inkscape:document-units="px"
     showgrid="false"
     inkscape:zoom="6.171875"
     inkscape:cx="64.405063"
     inkscape:cy="64.243038"
     inkscape:window-width="1920"
     inkscape:window-height="1007"
     inkscape:window-x="0"
     inkscape:window-y="0"
     inkscape:window-maximized="1"
     inkscape:current-layer="svg5" />
  <defs
     id="defs2">
    <linearGradient
       inkscape:collect="always"
       xlink:href="#linearGradient22024"
       id="linearGradient3525"
       x1="32"
       y1="59.747749"
       x2="32"
       y2="4.2522521"
       gradientUnits="userSpaceOnUse"
       gradientTransform="matrix(2.0181818,0,0,2.0181818,-0.58181789,-0.58181778)" />
    <linearGradient
       inkscape:collect="always"
       id="linearGradient22024">
      <stop
         style="stop-color:#dedede;stop-opacity:1;"
         offset="0"
         id="stop22020" />
      <stop
         style="stop-color:#f2f2f2;stop-opacity:1;"
         offset="1"
         id="stop22022" />
    </linearGradient>
  </defs>
  <rect
     style="fill:url(#linearGradient3525);fill-opacity:1;stroke:none;stroke-width:2.01818"
     id="rect184"
     width="111"
     height="111"
     x="8.5"
     y="8.5"
     ry="19.5" />
  <rect
     style="opacity:0.5;fill:#57dade;fill-opacity:1;stroke-width:4.34009;stroke-linecap:round;stroke-linejoin:round"
     id="rect811"
     width="111"
     height="28"
     x="8.5"
     y="50" />
  <path
     d="m 32,29 c -4.41828,0 -8,3.58172 -8,8 0,4.41828 3.58172,8 8,8 4.41828,0 8,-3.58172 8,-8 0,-4.41828 -3.58172,-8 -8,-8 z m 0,4 c 2.20912,0 4,1.79086 4,4 0,2.20914 -1.79088,4 -4,4 -2.20912,0 -4,-1.79086 -4,-4 0,-2.20914 1.79088,-4 4,-4 z m 20,2 v 4 h 52 V 35 Z M 32,85.000002 c -4.41828,0 -8,3.58172 -8,8 C 24,97.418282 27.58172,101 32,101 c 4.41828,0 8,-3.581718 8,-7.999998 0,-4.41828 -3.58172,-8 -8,-8 z m 0,4 c 2.20912,0 4,1.79086 4,4 0,2.20914 -1.79088,4 -4,4 -2.20912,0 -4,-1.79086 -4,-4 0,-2.20914 1.79088,-4 4,-4 z m 20,2 v 4 h 52 v -4 z"
     style="color:#000000;display:inline;overflow:visible;visibility:visible;opacity:0.5;fill:#ffffff;fill-opacity:1;fill-rule:nonzero;stroke:none;stroke-width:8;marker:none;enable-background:accumulate"
     id="path734"
     sodipodi:nodetypes="sssssssssscccccssssssssssccccc" />
  <path
     d="m 32,57 c -4.41828,0 -8,3.58172 -8,8.000004 0,4.41828 3.58172,8 8,8 4.418282,0 8.000002,-3.58172 8.000002,-8 C 40.000002,60.58172 36.418282,57 32,57 Z m 0,4 c 2.209122,0 4.000002,1.79086 4.000002,4.000004 0,2.20914 -1.79088,4 -4.000002,4 -2.20912,0 -4,-1.79086 -4,-4 C 28,62.79086 29.79088,61 32,61 Z m 20,2.000002 v 4.000002 h 52 v -4.000002 z"
     style="color:#000000;display:inline;overflow:visible;visibility:visible;opacity:0.2;fill:#000000;fill-opacity:1;fill-rule:nonzero;stroke:none;stroke-width:8;marker:none;enable-background:accumulate"
     id="path1408"
     sodipodi:nodetypes="ssssssssssccccc" />
  <path
     id="rect4137"
     style="color:#000000;display:inline;overflow:visible;visibility:visible;fill:#ababab;fill-opacity:1;fill-rule:nonzero;stroke:none;stroke-width:8;marker:none;enable-background:accumulate"
     d="m 32,28 c -4.41828,0 -8,3.58172 -8,8 0,4.41828 3.58172,8 8,8 4.41828,0 8,-3.58172 8,-8 0,-4.41828 -3.58172,-8 -8,-8 z m 0,4 c 2.20912,0 4,1.79086 4,4 0,2.20914 -1.79088,4 -4,4 -2.20912,0 -4,-1.79086 -4,-4 0,-2.20914 1.79088,-4 4,-4 z m 20,2 v 4 h 52 V 34 Z M 32,84 c -4.41828,0 -8,3.58172 -8,8 0,4.41828 3.58172,8 8,8 4.41828,0 8,-3.58172 8,-8 0,-4.41828 -3.58172,-8 -8,-8 z m 0,4 c 2.20912,0 4,1.79086 4,4 0,2.20914 -1.79088,4 -4,4 -2.20912,0 -4,-1.79086 -4,-4 0,-2.20914 1.79088,-4 4,-4 z m 20,2 v 4 h 52 v -4 z"
     sodipodi:nodetypes="sssssssssscccccssssssssssccccc" />
  <path
     d="m 32,56 c -4.41828,0 -8,3.58172 -8,8.000002 0,4.41828 3.58172,8 8,8 4.41828,0 8,-3.58172 8,-8 C 40,59.58172 36.41828,56 32,56 Z m 0,4 c 2.20912,0 4,1.79086 4,4.000002 0,2.20914 -1.79088,4 -4,4 -2.20912,0 -4,-1.79086 -4,-4 C 28,61.79086 29.79088,60 32,60 Z m 20,2 v 4.000002 h 52 V 62 Z"
     style="color:#000000;display:inline;overflow:visible;visibility:visible;fill:#ffffff;fill-opacity:1;fill-rule:nonzero;stroke:none;stroke-width:8;marker:none;enable-background:accumulate"
     id="path1375"
     sodipodi:nodetypes="ssssssssssccccc" />
  <path
     id="rect441"
     style="opacity:0.3;fill:#ffffff"
     d="M 28,9 C 17.474011,9 9,17.474011 9,28 v 1 C 9,18.474011 17.474011,10 28,10 h 72 c 10.52599,0 19,8.474011 19,19 V 28 C 119,17.474011 110.52599,9 100,9 Z" />
  <path
     id="rect443"
     style="opacity:0.3;fill:#ffffff"
     d="m 9,99 v 1 c 0,10.52599 8.474011,19 19,19 h 72 c 10.52599,0 19,-8.47401 19,-19 v -1 c 0,10.52599 -8.47401,19 -19,19 H 28 C 17.474011,118 9,109.52599 9,99 Z" />
  <path
     id="rect899"
     style="fill:#000000;stroke:none;stroke-width:2;opacity:0.5"
     d="M 28,8 C 16.920022,8 8,16.920022 8,28 v 72 c 0,11.07998 8.920022,20 20,20 h 72 c 11.07998,0 20,-8.92002 20,-20 V 28 C 120,16.920022 111.07998,8 100,8 Z m 0,1 h 72 c 10.52599,0 19,8.474011 19,19 v 72 c 0,10.52599 -8.47401,19 -19,19 H 28 C 17.474011,119 9,110.52599 9,100 V 28 C 9,17.474011 17.474011,9 28,9 Z" />
</svg>
