<?xml version="1.0" encoding="UTF-8" standalone="no"?>
<!-- Created with Inkscape (http://www.inkscape.org/) -->

<svg
   width="128"
   height="128"
   viewBox="0 0 128 128.00001"
   version="1.1"
   id="svg5"
   sodipodi:docname="ksudoku.svg"
   inkscape:version="1.2.1 (9c6d41e410, 2022-07-14)"
   xmlns:inkscape="http://www.inkscape.org/namespaces/inkscape"
   xmlns:sodipodi="http://sodipodi.sourceforge.net/DTD/sodipodi-0.dtd"
   xmlns:xlink="http://www.w3.org/1999/xlink"
   xmlns="http://www.w3.org/2000/svg"
   xmlns:svg="http://www.w3.org/2000/svg">
  <sodipodi:namedview
     id="namedview7"
     pagecolor="#ffffff"
     bordercolor="#666666"
     borderopacity="1.0"
     inkscape:showpageshadow="2"
     inkscape:pageopacity="0.0"
     inkscape:pagecheckerboard="0"
     inkscape:deskcolor="#d1d1d1"
     inkscape:document-units="px"
     showgrid="false"
     inkscape:zoom="6.4140625"
     inkscape:cx="64.155907"
     inkscape:cy="76.784409"
     inkscape:window-width="1920"
     inkscape:window-height="1007"
     inkscape:window-x="0"
     inkscape:window-y="0"
     inkscape:window-maximized="1"
     inkscape:current-layer="svg5" />
  <defs
     id="defs2">
    <linearGradient
       inkscape:collect="always"
       xlink:href="#linearGradient22024"
       id="linearGradient3525"
       x1="32"
       y1="59.747749"
       x2="32"
       y2="4.2522521"
       gradientUnits="userSpaceOnUse"
       gradientTransform="matrix(2.0181818,0,0,2.0181818,-0.58181789,-0.58181778)" />
    <linearGradient
       inkscape:collect="always"
       id="linearGradient22024">
      <stop
         style="stop-color:#dedede;stop-opacity:1;"
         offset="0"
         id="stop22020" />
      <stop
         style="stop-color:#f2f2f2;stop-opacity:1;"
         offset="1"
         id="stop22022" />
    </linearGradient>
  </defs>
  <rect
     style="fill:url(#linearGradient3525);fill-opacity:1;stroke:none;stroke-width:2.01818"
     id="rect184"
     width="111"
     height="111"
     x="8.5"
     y="8.5"
     ry="19.5" />
  <path
     d="M 41,7.999999 V 41 H 7.999999 v 3.000001 H 41 V 84 H 7.999999 v 3 H 41 v 33 h 2.999999 V 87 h 40 v 33 H 87 V 87 h 33 V 84 H 87 V 43.999999 h 33 V 41 H 87 V 7.999999 H 83.999999 V 41 h -40 V 7.999999 Z m 2.999999,36 h 40 V 84 h -40 z"
     style="color:#000000;font-style:normal;font-variant:normal;font-weight:normal;font-stretch:normal;font-size:medium;line-height:normal;font-family:Sans;-inkscape-font-specification:Sans;text-indent:0;text-align:start;text-decoration:none;text-decoration-line:none;letter-spacing:normal;word-spacing:normal;text-transform:none;writing-mode:lr-tb;direction:ltr;baseline-shift:baseline;text-anchor:start;display:inline;overflow:visible;visibility:visible;opacity:0.2;fill:#000000;fill-opacity:1;stroke:none;stroke-width:2px;marker:none;enable-background:accumulate"
     id="path633"
     sodipodi:nodetypes="cccccccccccccccccccccccccccccccccc" />
  <path
     d="m 7.999999,44 v 3 H 120 v -3 z m 0,43 v 3 H 120 v -3 z"
     style="color:#000000;font-style:normal;font-variant:normal;font-weight:normal;font-stretch:normal;font-size:medium;line-height:normal;font-family:Sans;-inkscape-font-specification:Sans;text-indent:0;text-align:start;text-decoration:none;text-decoration-line:none;letter-spacing:normal;word-spacing:normal;text-transform:none;writing-mode:lr-tb;direction:ltr;baseline-shift:baseline;text-anchor:start;display:inline;overflow:visible;visibility:visible;opacity:0.2;fill:#ffffff;fill-opacity:1;stroke:none;stroke-width:2px;marker:none;enable-background:accumulate"
     id="path868"
     sodipodi:nodetypes="cccccccccc" />
  <rect
     style="fill:#a348b1;fill-opacity:1;stroke-width:2;stroke-linecap:round;stroke-linejoin:round"
     id="rect945"
     width="44"
     height="44"
     x="42"
     y="42" />
  <path
     d="m 62.322859,75.469119 c 2.03428,0 3.48572,-0.4 4.35428,-1.2 0.89144,-0.8 1.33714,-1.87428 1.33714,-3.22286 0,-0.86856 -0.1828,-1.6 -0.54856,-2.19428 -0.36572,-0.59428 -0.84572,-1.06286 -1.44,-1.40572 -0.5943,-0.3657 -1.29144,-0.61714 -2.09144,-0.75428 -0.77714,-0.16 -1.57714,-0.24 -2.4,-0.24 h -0.82286 v -2.60572 h 1.13144 c 0.57142,0 1.15428,-0.0572 1.74856,-0.1714 0.61716,-0.1142 1.17716,-0.32 1.68,-0.61714 0.50286,-0.29714 0.9143,-0.69714 1.2343,-1.2 0.32,-0.52572 0.48,-1.17714 0.48,-1.9543 0,-0.64 -0.1144,-1.18856 -0.34286,-1.6457 -0.22858,-0.45714 -0.53714,-0.8343 -0.92572,-1.13144 -0.36572,-0.29714 -0.8,-0.50286 -1.30286,-0.61714 -0.48,-0.1372 -0.99428,-0.20572 -1.54286,-0.20572 -1.09714,0 -2.03428,0.16 -2.81142,0.48 -0.75428,0.32 -1.39428,0.65144 -1.92,0.9943 l -1.23428,-2.4343 c 0.27428,-0.1828 0.61714,-0.37714 1.02856,-0.58284 0.4343,-0.22858 0.9143,-0.4343 1.44,-0.61716 0.525718,-0.1828 1.085718,-0.33142 1.68,-0.4457 0.61714,-0.1372 1.25714,-0.20572 1.92,-0.20572 1.25714,0 2.34286,0.16 3.25714,0.48 0.9143,0.29714 1.66858,0.73142 2.26286,1.30286 0.5943,0.54856 1.04,1.21142 1.33714,1.98856 0.29716,0.7543 0.44572,1.57716 0.44572,2.46858 0,1.23428 -0.35428,2.29714 -1.06286,3.18858 -0.70856,0.86856 -1.5657,1.53142 -2.57142,1.98856 0.61714,0.1828 1.21142,0.44572 1.78286,0.78858 0.57142,0.34286 1.06286,0.77714 1.47428,1.30286 0.43428,0.5257 0.77714,1.13142 1.02858,1.81714 0.27428,0.6857 0.41142,1.45142 0.41142,2.29714 0,1.02856 -0.1828,1.98856 -0.54858,2.88 -0.34284,0.86856 -0.89142,1.62286 -1.6457,2.26286 -0.73144,0.64 -1.65714,1.14286 -2.77714,1.50856 -1.12,0.36572 -2.44572,0.54858 -3.97716,0.54858 -0.59428,0 -1.21142,-0.0458 -1.85142,-0.1372 -0.61714,-0.0914 -1.200002,-0.20572 -1.74858,-0.34286 -0.54856,-0.1372 -1.02856,-0.27428 -1.44,-0.41144 -0.41142,-0.1372 -0.70856,-0.25142 -0.89142,-0.34284 l 0.61714,-2.77716 c 0.38858,0.1828 1.02858,0.42286 1.92,0.72 0.91428,0.29716 2.022858,0.44572 3.32572,0.44572 z"
     style="font-size:12px;line-height:1.25;opacity:0.2;fill:#000000;stroke-width:2"
     id="path8490"
     sodipodi:nodetypes="ccscccsccscscscccsccccccscccsccsccsccsscccccccc" />
  <path
     d="m 62.322859,73.469121 c 2.03428,0 3.48572,-0.4 4.35428,-1.2 0.89144,-0.8 1.33714,-1.87428 1.33714,-3.22286 0,-0.86856 -0.1828,-1.6 -0.54856,-2.19428 -0.36572,-0.59428 -0.84572,-1.06286 -1.44,-1.40572 -0.5943,-0.3657 -1.29144,-0.61714 -2.09144,-0.75428 -0.77714,-0.16 -1.57714,-0.24 -2.4,-0.24 h -0.82286 v -2.605722 h 1.13144 c 0.57142,0 1.15428,-0.0572 1.74856,-0.1714 0.61716,-0.1142 1.17716,-0.32 1.68,-0.61714 0.50286,-0.29714 0.9143,-0.69714 1.2343,-1.2 0.32,-0.52572 0.48,-1.17714 0.48,-1.9543 0,-0.64 -0.1144,-1.18856 -0.34286,-1.6457 -0.22858,-0.45714 -0.53714,-0.8343 -0.92572,-1.13144 -0.36572,-0.29714 -0.8,-0.50286 -1.30286,-0.61714 -0.48,-0.1372 -0.99428,-0.20572 -1.54286,-0.20572 -1.09714,0 -2.03428,0.16 -2.81142,0.48 -0.75428,0.32 -1.39428,0.65144 -1.92,0.9943 l -1.23428,-2.4343 c 0.27428,-0.1828 0.61714,-0.37714 1.02856,-0.58284 0.4343,-0.22858 0.9143,-0.4343 1.44,-0.61716 0.525718,-0.1828 1.085718,-0.33142 1.68,-0.4457 0.61714,-0.1372 1.25714,-0.20572 1.92,-0.20572 1.25714,0 2.34286,0.16 3.25714,0.48 0.9143,0.29714 1.66858,0.73142 2.26286,1.30286 0.5943,0.54856 1.04,1.21142 1.33714,1.98856 0.29716,0.7543 0.44572,1.57716 0.44572,2.46858 0,1.23428 -0.35428,2.29714 -1.06286,3.18858 -0.70856,0.86856 -1.5657,1.531422 -2.57142,1.988562 0.61714,0.1828 1.21142,0.44572 1.78286,0.78858 0.57142,0.34286 1.06286,0.77714 1.47428,1.30286 0.43428,0.5257 0.77714,1.13142 1.02858,1.81714 0.27428,0.6857 0.41142,1.45142 0.41142,2.29714 0,1.02856 -0.1828,1.98856 -0.54858,2.88 -0.34284,0.86856 -0.89142,1.62286 -1.6457,2.26286 -0.73144,0.64 -1.65714,1.14286 -2.77714,1.50856 -1.12,0.36572 -2.44572,0.54858 -3.97716,0.54858 -0.59428,0 -1.21142,-0.0458 -1.85142,-0.1372 -0.61714,-0.0914 -1.200002,-0.20572 -1.74858,-0.34286 -0.54856,-0.1372 -1.02856,-0.27428 -1.44,-0.41144 -0.41142,-0.1372 -0.70856,-0.25142 -0.89142,-0.34284 l 0.61714,-2.77716 c 0.38858,0.1828 1.02858,0.42286 1.92,0.72 0.91428,0.29716 2.022858,0.44572 3.32572,0.44572 z"
     style="font-size:12px;line-height:1.25;fill:#ffffff;stroke-width:2"
     id="path10343" />
  <path
     d="m 33.428411,63.319603 c 0,4.708536 -1.177128,8.274222 -3.531386,10.69706 -2.331418,2.399976 -5.805664,3.611384 -10.42276,3.634244 l -0.1028,-2.674254 c 1.439986,0 2.731414,-0.1372 3.874242,-0.411436 1.16571,-0.274278 2.18284,-0.708554 3.051412,-1.302848 0.86855,-0.617134 1.588544,-1.405686 2.159978,-2.365678 0.594274,-0.95999 1.02855,-2.13714 1.302848,-3.531406 -0.594294,0.274278 -1.268568,0.502856 -2.02284,0.685714 -0.754274,0.16 -1.531426,0.239998 -2.331418,0.239998 -1.348548,0 -2.491396,-0.1942 -3.428528,-0.582854 -0.937128,-0.411416 -1.702842,-0.948572 -2.297116,-1.611404 -0.594294,-0.685716 -1.02857,-1.462848 -1.302846,-2.33142 -0.2515,-0.891412 -0.377198,-1.817124 -0.377198,-2.777114 0,-0.845712 0.1486,-1.725704 0.445696,-2.639974 0.297156,-0.914272 0.742852,-1.748564 1.337146,-2.502836 0.617136,-0.754274 1.394268,-1.371408 2.331398,-1.851402 0.937132,-0.479996 2.0457,-0.719994 3.325688,-0.719994 1.302848,0 2.445676,0.228558 3.428528,0.685694 1.00571,0.457156 1.839982,1.11999 2.502836,1.98856 0.685712,0.868572 1.199988,1.931402 1.542844,3.18855 0.342858,1.234268 0.514276,2.628534 0.514276,4.1828 z m -7.679926,2.365696 c 0.799992,0 1.554284,-0.0686 2.262838,-0.205718 0.708572,-0.16 1.394266,-0.388556 2.05712,-0.685692 0.0228,-0.251438 0.0342,-0.491436 0.0342,-0.719994 v -0.754292 c 0,-0.98283 -0.0686,-1.919982 -0.205718,-2.811394 -0.1372,-0.91427 -0.388576,-1.702844 -0.754272,-2.365696 -0.342858,-0.685694 -0.811432,-1.222848 -1.405708,-1.611404 -0.594274,-0.411438 -1.348566,-0.617136 -2.262838,-0.617136 -0.754272,0 -1.394266,0.16 -1.919982,0.479996 -0.525714,0.319998 -0.95999,0.731412 -1.302846,1.234268 -0.342858,0.479996 -0.594276,1.017132 -0.754274,1.611404 -0.1372,0.571436 -0.205718,1.13143 -0.205718,1.679984 0,1.554286 0.365716,2.742834 1.09713,3.565686 0.754292,0.799994 1.874282,1.199988 3.359968,1.199988 z m 70.250746,32.053236 c 1.302846,-0.502854 2.571416,-1.142848 3.805682,-1.919982 1.234267,-0.799992 2.365677,-1.794282 3.394247,-2.98283 H 105.462 V 116.5955 h -3.18855 V 97.258541 c -0.27428,0.251416 -0.61713,0.514274 -1.02855,0.788552 -0.38858,0.274296 -0.82285,0.537134 -1.302847,0.788572 -0.457136,0.251418 -0.948572,0.491414 -1.474266,0.719994 -0.502856,0.228556 -0.99429,0.422856 -1.474286,0.582851 z"
     style="font-size:12px;line-height:1.25;opacity:0.2;fill:#000000;stroke-width:1.99998"
     id="path8090" />
  <path
     d="m 33.428411,61.319603 c 0,4.708534 -1.177128,8.27422 -3.531386,10.697058 -2.331418,2.399976 -5.805664,3.611384 -10.42276,3.634244 l -0.1028,-2.674254 c 1.439986,0 2.731414,-0.1372 3.874242,-0.411436 1.16571,-0.274278 2.18284,-0.708554 3.051412,-1.302848 0.86855,-0.617134 1.588544,-1.405686 2.159978,-2.365678 0.594274,-0.95999 1.02855,-2.13714 1.302848,-3.531406 -0.594294,0.274278 -1.268568,0.502856 -2.02284,0.685714 -0.754274,0.16 -1.531426,0.239998 -2.331418,0.239998 -1.348548,0 -2.491396,-0.1942 -3.428528,-0.582854 -0.937128,-0.411416 -1.702842,-0.948572 -2.297116,-1.611404 -0.594294,-0.685714 -1.02857,-1.462846 -1.302846,-2.331418 -0.2515,-0.891412 -0.377198,-1.817124 -0.377198,-2.777114 0,-0.845712 0.1486,-1.725704 0.445696,-2.639974 0.297156,-0.914272 0.742852,-1.748564 1.337146,-2.502836 0.617136,-0.754274 1.394268,-1.371408 2.331398,-1.851402 0.937132,-0.479996 2.0457,-0.719994 3.325688,-0.719994 1.302848,0 2.445676,0.228558 3.428528,0.685694 1.00571,0.457156 1.839982,1.11999 2.502836,1.98856 0.685712,0.868572 1.199988,1.931402 1.542844,3.18855 0.342858,1.234268 0.514276,2.628534 0.514276,4.1828 z m -7.679926,2.365696 c 0.799992,0 1.554284,-0.0686 2.262838,-0.205718 0.708572,-0.16 1.394266,-0.388556 2.05712,-0.685692 0.0228,-0.251438 0.0342,-0.491436 0.0342,-0.719994 v -0.754292 c 0,-0.98283 -0.0686,-1.919982 -0.205718,-2.811394 -0.1372,-0.91427 -0.388576,-1.702844 -0.754272,-2.365696 -0.342858,-0.685694 -0.811432,-1.222848 -1.405708,-1.611404 -0.594274,-0.411438 -1.348566,-0.617136 -2.262838,-0.617136 -0.754272,0 -1.394266,0.16 -1.919982,0.479996 -0.525714,0.319998 -0.95999,0.731412 -1.302846,1.234268 -0.342858,0.479996 -0.594276,1.017132 -0.754274,1.611404 -0.1372,0.571436 -0.205718,1.13143 -0.205718,1.679984 0,1.554286 0.365716,2.742834 1.09713,3.565686 0.754292,0.799994 1.874282,1.199988 3.359968,1.199988 z m 70.250746,32.053234 c 1.302846,-0.502854 2.571416,-1.142848 3.805682,-1.919982 1.234267,-0.799992 2.365677,-1.794282 3.394247,-2.98283 h 2.26284 v 23.759769 h -3.18855 V 95.258539 c -0.27428,0.251416 -0.61713,0.514274 -1.02855,0.788552 -0.38858,0.274296 -0.82285,0.537134 -1.302847,0.788572 -0.457136,0.251418 -0.948572,0.491414 -1.474266,0.719994 -0.502856,0.228556 -0.99429,0.422856 -1.474286,0.582852 z"
     style="font-size:12px;line-height:1.25;fill:#4d4d4d;stroke-width:1.99998"
     id="path4422"
     sodipodi:nodetypes="sccccccccscccsccsscccssccsscccssccscsscccccccccccc" />
  <path
     id="rect441"
     style="opacity:0.3;fill:#ffffff"
     d="M 28,9 C 17.474011,9 9,17.474011 9,28 v 1 C 9,18.474011 17.474011,10 28,10 h 72 c 10.52599,0 19,8.474011 19,19 V 28 C 119,17.474011 110.52599,9 100,9 Z" />
  <path
     id="rect443"
     style="opacity:0.3;fill:#ffffff"
     d="m 9,99 v 1 c 0,10.52599 8.474011,19 19,19 h 72 c 10.52599,0 19,-8.47401 19,-19 v -1 c 0,10.52599 -8.47401,19 -19,19 H 28 C 17.474011,118 9,109.52599 9,99 Z" />
  <path
     id="rect899"
     style="fill:#000000;stroke:none;stroke-width:2;opacity:0.5"
     d="M 28,8 C 16.920022,8 8,16.920022 8,28 v 72 c 0,11.07998 8.920022,20 20,20 h 72 c 11.07998,0 20,-8.92002 20,-20 V 28 C 120,16.920022 111.07998,8 100,8 Z m 0,1 h 72 c 10.52599,0 19,8.474011 19,19 v 72 c 0,10.52599 -8.47401,19 -19,19 H 28 C 17.474011,119 9,110.52599 9,100 V 28 C 9,17.474011 17.474011,9 28,9 Z" />
</svg>
