<?xml version="1.0" encoding="UTF-8" standalone="no"?>
<!-- Created with Inkscape (http://www.inkscape.org/) -->

<svg
   width="128"
   height="128"
   viewBox="0 0 128 128.00001"
   version="1.1"
   id="svg5"
   sodipodi:docname="ktorrent.svg"
   inkscape:version="1.2.1 (9c6d41e410, 2022-07-14)"
   xmlns:inkscape="http://www.inkscape.org/namespaces/inkscape"
   xmlns:sodipodi="http://sodipodi.sourceforge.net/DTD/sodipodi-0.dtd"
   xmlns:xlink="http://www.w3.org/1999/xlink"
   xmlns="http://www.w3.org/2000/svg"
   xmlns:svg="http://www.w3.org/2000/svg">
  <sodipodi:namedview
     id="namedview7"
     pagecolor="#ffffff"
     bordercolor="#666666"
     borderopacity="1.0"
     inkscape:showpageshadow="2"
     inkscape:pageopacity="0.0"
     inkscape:pagecheckerboard="0"
     inkscape:deskcolor="#d1d1d1"
     inkscape:document-units="px"
     showgrid="false"
     inkscape:zoom="3.1796875"
     inkscape:cx="9.2776413"
     inkscape:cy="85.385749"
     inkscape:window-width="1920"
     inkscape:window-height="1007"
     inkscape:window-x="0"
     inkscape:window-y="0"
     inkscape:window-maximized="1"
     inkscape:current-layer="svg5" />
  <defs
     id="defs2">
    <linearGradient
       inkscape:collect="always"
       xlink:href="#linearGradient1265"
       id="linearGradient3525"
       x1="96"
       y1="116"
       x2="24.000002"
       y2="3.9999969"
       gradientUnits="userSpaceOnUse"
       gradientTransform="translate(3.9999978,4.0000032)" />
    <linearGradient
       inkscape:collect="always"
       id="linearGradient1265">
      <stop
         style="stop-color:#2d7ff3;stop-opacity:1;"
         offset="0"
         id="stop1261" />
      <stop
         style="stop-color:#2cdbfa;stop-opacity:1;"
         offset="1"
         id="stop1263" />
    </linearGradient>
  </defs>
  <rect
     style="fill:url(#linearGradient3525);fill-opacity:1;stroke:none;stroke-width:1"
     id="rect184"
     width="111"
     height="111"
     x="8.5"
     y="8.5"
     ry="19.5" />
  <path
     d="m 49,25 v 33.046878 10.917966 c -1.299488,0.620846 -2.594902,2.075494 -3.701172,3.203126 -1.820438,1.851652 -3.44075,1.979354 -4.736328,0.869142 -1.293624,-1.108262 -0.16552,-4.126082 -1.660154,-7.15821 -1.492646,-3.03211 -4.455504,-1.521382 -4.87305,0.527348 -0.41755,2.048722 3.747236,3.432784 2.939454,4.570308 -0.807786,1.137534 -4.03806,0.874812 -4.990234,-1.269528 -0.95022,-2.144328 -3.025432,-1.4416 -3.066406,0.312502 -0.041,1.756056 1.606756,0.522768 2.890626,1.806636 L 64.976562,105.00001 98.140624,71.826168 c 3.902336,-3.902332 -0.563422,-2.225676 -1.484372,-1.347654 -0.91901,0.878028 -3.765962,1.586932 -4.10156,0.625004 -0.333634,-0.961928 3.18654,-2.5753 4.189448,-3.662112 1.0029,-1.086798 1.982748,-4.171062 0.36136,-5.302728 -1.62144,-1.131686 -3.91506,0.907756 -4.912112,2.412104 -1.002894,1.504354 -0.13616,5.342972 -1.474606,6.513666 -1.3385,1.170708 -2.074464,0.456 -2.324218,-0.546872 -0.251722,-1.002894 2.889306,-2.416554 1.572264,-4.9121 -1.318988,-2.495548 -3.75504,-1.364084 -4.882812,-0.19532 -1.127774,1.170708 0.674244,2.974502 1.09375,4.814458 0.41756,1.839948 -3.855192,1.7923 -5.527346,1.123042 -0.73057,-0.292374 -1.241878,-1.259626 -1.65041,-2.275388 V 25 Z M 31.373046,55 C 30.052734,55.067 29,56.163124 29,57.5 29,58.879994 30.12,60 31.5,60 32.88,60 34,58.879994 34,57.5 34,56.12 32.88,55 31.5,55 c -0.04302,0 -0.08436,-0.0022 -0.12696,0 z m 13.623048,0 c -0.747712,0.0327 -1.622634,0.748412 -0.722654,1.73828 1.278018,1.409076 1.959792,3.921402 0.82031,4.423832 -1.145338,0.50244 -1.07041,-1.873024 -1.171872,-3.134768 -0.09952,-1.261734 -3.262896,-2.022922 -4.433596,-0.459016 -1.170702,1.563954 0.003,3.25376 1.162108,3.59375 1.158992,0.341838 1.34249,1.623576 2.03125,2.95898 0.690718,1.3354 4.04379,1.001074 4.863284,0 0.819488,-1.001082 1.332378,-2.863126 -0.263646,-4.580072 -1.59606,-1.71695 -1.111758,-3.313046 -1.542968,-4.189458 -0.10732,-0.219126 -0.338166,-0.328906 -0.595702,-0.351548 -0.0478,-0.004 -0.09666,-0.0022 -0.14652,0 z m 46.376958,0 C 90.052734,55.06702 89,56.163124 89,57.5 89,58.879994 90.12,60 91.5,60 92.88,60 94,58.879994 94,57.5 94,56.12 92.88,55 91.5,55 c -0.04278,0 -0.08432,-0.0022 -0.12694,0 z m -8.94532,0.830072 c -0.901534,0.02024 -1.294772,1.838882 -1.52343,3.554692 -0.243924,1.830198 -1.16328,3.72497 -0.37112,4.091794 1.098506,0.4878 1.659448,-2.520654 2.900392,-3.64257 1.24094,-1.12388 0.2158,-3.740484 -0.820316,-3.984378 -0.06476,-0.015 -0.12542,-0.02124 -0.18556,-0.0196 z M 25.953124,61.093754 C 24.87608,61.093754 24,61.969832 24,63.046872 24,64.123924 24.87608,65 25.953124,65 c 1.077046,0 1.953126,-0.876076 1.953126,-1.953128 0,-1.07704 -0.87608,-1.953118 -1.953126,-1.953118 z m 75.996096,3.925778 c -1.03047,0.05228 -1.85547,0.90973 -1.85547,1.953122 0,1.07705 0.87608,1.94336 1.95312,1.94336 1.07705,0 1.95313,-0.86631 1.95313,-1.94336 0,-1.077046 -0.87608,-1.953122 -1.95313,-1.953122 -0.0337,0 -0.0644,-0.0017 -0.0976,0 z"
     style="opacity:0.2;fill:#000000;fill-opacity:1;stroke-width:10;stroke-linecap:round;stroke-linejoin:round"
     id="path3386" />
  <rect
     style="fill:#ffffff;fill-opacity:1;stroke-width:9.99988;stroke-linecap:round;stroke-linejoin:round"
     id="rect919"
     width="29.999647"
     height="49.999413"
     x="48.999702"
     y="24" />
  <path
     d="m 66.5,45.00096 c -1.320322,0.06702 -2.373048,1.163124 -2.373048,2.5 0,1.379994 1.12,2.5 2.5,2.5 1.38,0 2.5,-1.120006 2.5,-2.5 0,-1.38 -1.12,-2.5 -2.5,-2.5 -0.04278,0 -0.08432,-0.0022 -0.12696,0 z m -11.123046,9.951174 c -0.13078,0.0154 -0.257962,0.05278 -0.38083,0.10742 -0.987294,0.433158 -1.31706,1.84476 -0.0196,4.804684 1.299484,2.959928 3.153336,5.013234 4.140626,4.580082 0.987314,-0.433158 0.731144,-3.182634 -0.566386,-6.142564 -1.135764,-2.591154 -2.253052,-3.453012 -3.17401,-3.33984 z m -4.296874,1.142734 c -1.07705,-6e-6 -1.953128,0.876074 -1.953128,1.953122 0,1.077048 0.876078,1.953128 1.953128,1.953128 1.077048,0 1.953122,-0.87608 1.953122,-1.953128 0,-1.077048 -0.876074,-1.953128 -1.953122,-1.953122 z m 22.11914,0.585942 c -1.268282,0.09362 -2.52406,2.259314 -3.144528,3.759762 -0.71023,1.713132 0.14868,5.055936 -1.523442,6.30859 -1.67215,1.254596 -2.895366,1.282698 -3.730466,0.781248 -0.835104,-0.501434 0.70805,-0.43356 -0.2246,-2.343748 -0.934614,-1.9102 -3.164646,-1.312962 -3.750002,0.1758 -0.585352,1.48874 0.624586,1.41689 0.205076,2.294918 -0.41756,0.87803 -3.971504,1.8333 -4.765626,-0.80078 -0.794158,-2.634082 -4.388358,-1.464702 -2.089878,0.625002 2.298484,2.089706 -0.58989,3.213268 -2.587892,1.640626 -1.997998,-1.574604 26.970002,-2.638916 26.259768,-2.890612 -0.710222,-0.251724 -2.523788,1.393816 -4.824216,0.683596 -2.298482,-0.71023 -0.387924,-2.136448 0.322264,-3.808592 0.710224,-1.672158 1.836452,-5.695946 0.400402,-6.328128 -0.17952,-0.08 -0.367346,-0.1113 -0.546872,-0.09766 z"
     style="opacity:0.2;fill:#000000;fill-opacity:1;stroke-width:5"
     id="path3439" />
  <path
     d="m 66.37255,44.000726 c -1.320308,0.067 -2.37302,1.163112 -2.37302,2.499972 0,1.379984 1.119986,2.49997 2.49997,2.49997 1.379984,0 2.499972,-1.119986 2.499972,-2.49997 0,-1.379984 -1.119988,-2.499972 -2.499972,-2.499972 -0.04278,0 -0.08432,-0.0022 -0.12694,0 z M 55.249636,53.95179 c -0.13078,0.0156 -0.25796,0.05278 -0.380826,0.10742 -0.987278,0.433152 -1.317048,1.844738 -0.0196,4.804628 1.299468,2.959894 3.15329,5.013178 4.140574,4.580026 0.987306,-0.433152 0.731132,-3.182594 -0.566378,-6.14249 -1.13563,-2.591126 -2.25291,-3.45297 -3.173848,-3.339798 z m -23.876678,0.0488 c -1.320304,0.06702 -2.373016,1.16311 -2.373016,2.49997 0,1.379984 1.119986,2.49997 2.49997,2.49997 1.379984,0 2.49997,-1.119986 2.49997,-2.49997 0,-1.379984 -1.119986,-2.49997 -2.49997,-2.49997 -0.04302,0 -0.08434,-0.0022 -0.12694,4e-6 z m 13.62289,0 c -0.747708,0.0327 -1.622616,0.748404 -0.722646,1.73826 1.278002,1.40905 1.95977,3.921352 0.8203,4.423778 -1.145328,0.502434 -1.070402,-1.873006 -1.171858,-3.134732 -0.09952,-1.261722 -3.262858,-2.022916 -4.433544,-0.459014 -1.170694,1.563936 0.003,3.253724 1.162094,3.59371 1.15898,0.341832 1.34247,1.623556 2.031226,2.958948 0.69071,1.335392 4.043742,1.00107 4.863224,0 0.819482,-1.00107 1.332372,-2.863096 -0.263646,-4.580026 -1.596036,-1.716928 -1.111744,-3.312994 -1.542944,-4.189402 -0.10732,-0.219122 -0.33816,-0.3289 -0.595694,-0.351542 -0.0478,-0.004 -0.09664,-0.0022 -0.14652,0 z m 46.376408,0 c -1.320302,0.06702 -2.37302,1.16311 -2.37302,2.49997 0,1.379984 1.119988,2.49997 2.49997,2.49997 1.379984,0 2.499972,-1.119986 2.499972,-2.49997 0,-1.379984 -1.119988,-2.49997 -2.499972,-2.49997 -0.04278,0 -0.08432,-0.0022 -0.12696,0 z m -8.94521,0.83007 c -0.901524,0.02024 -1.294762,1.83885 -1.523418,3.554642 -0.243872,1.83018 -1.16327,3.72493 -0.371114,4.091752 1.098492,0.487792 1.659422,-2.520624 2.900352,-3.642538 1.240932,-1.12386 0.215798,-3.740434 -0.820308,-3.984326 -0.06474,-0.015 -0.12542,-0.02126 -0.18554,-0.0196 z M 50.95281,55.09431 c -1.077034,-6e-6 -1.953104,0.876064 -1.953104,1.953096 0,1.077036 0.87607,1.953104 1.953104,1.953104 1.077028,0 1.9531,-0.876068 1.9531,-1.953104 0,-1.077032 -0.876072,-1.953102 -1.9531,-1.953096 z m 22.11888,0.585934 c -1.268266,0.09362 -2.52403,2.25929 -3.144498,3.75972 -0.710214,1.713112 0.14868,5.05588 -1.523416,6.308522 -1.672134,1.254584 -2.895334,1.282682 -3.730422,0.781242 -0.835094,-0.50143 0.708042,-0.433556 -0.224596,-2.343724 -0.9346,-1.91018 -3.164614,-1.312948 -3.749954,0.1758 -0.585346,1.488728 0.624572,1.41688 0.205072,2.294892 -0.417554,0.878022 -3.971456,1.83328 -4.765568,-0.800772 -0.794156,-2.63405 -3.614154,-5.505082 -4.49217,-4.79486 -0.878018,0.710214 0.10384,3.330172 2.402316,5.419856 2.298454,2.08968 -0.589886,3.21323 -2.58786,1.640604 -1.997978,-1.574578 -4.34357,1.193248 -6.16204,3.04684 -1.82042,1.851636 -3.440708,1.97933 -4.736272,0.869128 -1.293608,-1.108254 -0.16552,-4.126034 -1.660134,-7.158124 -1.492628,-3.032086 -4.455446,-1.521366 -4.872988,0.52734 -0.417546,2.048706 3.747188,3.43274 2.939416,4.57026 -0.807776,1.137518 -4.038014,0.874792 -4.990178,-1.26952 -0.950208,-2.144312 -3.025394,-1.441582 -3.066368,0.3125 -0.041,1.756034 1.606736,0.522766 2.89059,1.80662 L 64.976058,104 98.139732,70.826566 c 3.902298,-3.902294 -0.563416,-2.225654 -1.484356,-1.34764 -0.918998,0.878022 -3.765918,1.586912 -4.101512,0.624992 -0.33363,-0.961912 3.186504,-2.575274 4.189398,-3.662064 1.002888,-1.08679 1.982744,-4.171006 0.361356,-5.30267 -1.621426,-1.131666 -3.915034,0.907746 -4.912074,2.412076 -1.002886,1.50434 -0.13614,5.342906 -1.474588,6.513598 -1.33849,1.170688 -2.074446,0.455994 -2.324196,-0.546866 -0.251718,-1.002896 2.889272,-2.416534 1.57225,-4.912052 -1.31898,-2.495524 -3.754996,-1.36405 -4.882756,-0.19532 -1.127766,1.170686 0.674238,2.974464 1.093738,4.814398 0.417556,1.839932 -3.855144,1.792276 -5.52728,1.123028 -1.67212,-0.669238 -2.219432,-4.865424 -2.92965,-5.117124 -0.710218,-0.251672 -2.523762,1.393804 -4.824166,0.68359 -2.298454,-0.710222 -0.38792,-2.136416 0.32226,-3.80855 0.710214,-1.672136 1.836432,-5.695878 0.400398,-6.328052 -0.17952,-0.08 -0.367342,-0.1113 -0.546866,-0.09764 z M 25.953102,60.09444 C 24.87607,60.09444 24,60.97051 24,62.047544 c 0,1.07704 0.87607,1.953106 1.953102,1.953106 1.077032,0 1.953102,-0.876066 1.953102,-1.953106 0,-1.077034 -0.87607,-1.953104 -1.953102,-1.953104 z m 75.995198,3.925736 c -1.03045,0.05232 -1.85544,0.909726 -1.85544,1.953102 0,1.077036 0.87606,1.94334 1.9531,1.94334 1.07703,0 1.9531,-0.866304 1.9531,-1.94334 0,-1.077032 -0.87607,-1.953102 -1.9531,-1.953102 -0.0337,0 -0.0644,-0.0017 -0.0977,0 z"
     style="fill:#a6d7ff;fill-opacity:1;stroke-width:4.99994"
     id="path449"
     sodipodi:nodetypes="sssssssccccccccsssscccccsccsscccssssssscscccccssssscccscsccssccccssccsccccssccccccsscccccssssssssssss" />
  <path
     id="rect441"
     style="opacity:0.3;fill:#ffffff"
     d="M 28,9 C 17.474011,9 9,17.474011 9,28 v 1 C 9,18.474011 17.474011,10 28,10 h 72 c 10.52599,0 19,8.474011 19,19 V 28 C 119,17.474011 110.52599,9 100,9 Z" />
  <path
     id="rect443"
     style="opacity:0.3;fill:#ffffff"
     d="m 9,99 v 1 c 0,10.52599 8.474011,19 19,19 h 72 c 10.52599,0 19,-8.47401 19,-19 v -1 c 0,10.52599 -8.47401,19 -19,19 H 28 C 17.474011,118 9,109.52599 9,99 Z" />
  <path
     id="rect899"
     style="fill:#000000;stroke:none;stroke-width:2;opacity:0.5"
     d="M 28,8 C 16.920022,8 8,16.920022 8,28 v 72 c 0,11.07998 8.920022,20 20,20 h 72 c 11.07998,0 20,-8.92002 20,-20 V 28 C 120,16.920022 111.07998,8 100,8 Z m 0,1 h 72 c 10.52599,0 19,8.474011 19,19 v 72 c 0,10.52599 -8.47401,19 -19,19 H 28 C 17.474011,119 9,110.52599 9,100 V 28 C 9,17.474011 17.474011,9 28,9 Z" />
</svg>
