<?xml version="1.0" encoding="UTF-8" standalone="no"?>
<!-- Created with Inkscape (http://www.inkscape.org/) -->

<svg
   width="128"
   height="128"
   viewBox="0 0 128 128.00001"
   version="1.1"
   id="svg5"
   sodipodi:docname="kwalletmanager.svg"
   inkscape:version="1.3.2 (091e20ef0f, 2023-11-25, custom)"
   xmlns:inkscape="http://www.inkscape.org/namespaces/inkscape"
   xmlns:sodipodi="http://sodipodi.sourceforge.net/DTD/sodipodi-0.dtd"
   xmlns:xlink="http://www.w3.org/1999/xlink"
   xmlns="http://www.w3.org/2000/svg"
   xmlns:svg="http://www.w3.org/2000/svg">
  <sodipodi:namedview
     id="namedview7"
     pagecolor="#ffffff"
     bordercolor="#666666"
     borderopacity="1.0"
     inkscape:showpageshadow="2"
     inkscape:pageopacity="0.0"
     inkscape:pagecheckerboard="0"
     inkscape:deskcolor="#d1d1d1"
     inkscape:document-units="px"
     showgrid="false"
     inkscape:zoom="6.453125"
     inkscape:cx="64"
     inkscape:cy="64"
     inkscape:window-width="1920"
     inkscape:window-height="1011"
     inkscape:window-x="0"
     inkscape:window-y="0"
     inkscape:window-maximized="1"
     inkscape:current-layer="svg5" />
  <defs
     id="defs2">
    <linearGradient
       inkscape:collect="always"
       xlink:href="#4852"
       id="linearGradient3525"
       x1="96"
       y1="116"
       x2="24.000002"
       y2="3.9999969"
       gradientUnits="userSpaceOnUse"
       gradientTransform="translate(3.9999978,4.0000032)" />
    <linearGradient
       inkscape:collect="always"
       id="4852">
      <stop
         style="stop-color:#333333;stop-opacity:1"
         offset="0"
         id="stop14555" />
      <stop
         style="stop-color:#666666;stop-opacity:1"
         offset="1"
         id="stop14557" />
    </linearGradient>
    <linearGradient
       inkscape:collect="always"
       xlink:href="#linearGradient5606"
       id="linearGradient5608"
       x1="7.9375"
       y1="4.2333341"
       x2="7.9375"
       y2="12.700001"
       gradientUnits="userSpaceOnUse"
       gradientTransform="matrix(7.5590552,0,0,7.5590552,2e-6,4e-6)" />
    <linearGradient
       inkscape:collect="always"
       id="linearGradient5606">
      <stop
         style="stop-color:#f4e9d3;stop-opacity:1"
         offset="0"
         id="stop5602" />
      <stop
         style="stop-color:#e3ca8e;stop-opacity:1"
         offset="1"
         id="stop5604" />
    </linearGradient>
    <linearGradient
       inkscape:collect="always"
       xlink:href="#linearGradient6552"
       id="linearGradient6554"
       x1="26"
       y1="17.580078"
       x2="26"
       y2="51.580078"
       gradientUnits="userSpaceOnUse"
       gradientTransform="matrix(2,0,0,2,2e-6,-0.160152)" />
    <linearGradient
       inkscape:collect="always"
       id="linearGradient6552">
      <stop
         style="stop-color:#e4d09b;stop-opacity:1;"
         offset="0"
         id="stop6548" />
      <stop
         style="stop-color:#f1d793;stop-opacity:0.99607843"
         offset="1"
         id="stop6550" />
    </linearGradient>
  </defs>
  <rect
     style="fill:url(#linearGradient3525);fill-opacity:1.0;stroke:none"
     id="rect184"
     width="111"
     height="111"
     x="8.5"
     y="8.5"
     ry="19.5" />
  <rect
     style="opacity:0.2;fill:#000000;fill-opacity:1;stroke-width:8;stroke-linecap:round;stroke-linejoin:round"
     id="rect3396"
     width="80"
     height="60.000004"
     x="24"
     y="35"
     ry="6" />
  <rect
     style="fill:url(#linearGradient5608);fill-opacity:1;stroke-width:17.9999;stroke-linecap:round;stroke-linejoin:round"
     id="rect849"
     width="80"
     height="60"
     x="24"
     y="34"
     ry="6" />
  <path
     id="rect5268"
     style="fill:#25b1ef;stroke-width:17.9999;stroke-linecap:round;stroke-linejoin:round"
     d="m 32.000004,38.000008 h 64 c 2.215996,0 3.999992,1.783996 3.999992,4 V 65.999996 C 99.999996,68.215996 98.216,70 96.000004,70 h -64 c -2.216,0 -4,-1.784004 -4,-4.000004 V 42.000008 c 0,-2.216004 1.784,-4 4,-4 z" />
  <path
     id="rect4606"
     style="fill:#efc225;stroke-width:17.9999;stroke-linecap:round;stroke-linejoin:round"
     d="m 32.000004,44.000004 h 64 c 2.215996,0 3.999992,1.784 3.999992,4 V 72 c 0,2.216 -1.783996,4 -3.999992,4 h -64 c -2.216,0 -4,-1.784 -4,-4 V 48.000004 c 0,-2.216 1.784,-4 4,-4 z" />
  <path
     id="rect3107"
     style="fill:#55bf5d;stroke-width:17.9999;stroke-linecap:round;stroke-linejoin:round"
     d="m 32.000004,50.000004 h 64 c 2.215996,0 3.999992,1.784 3.999992,4 V 78 c 0,2.216004 -1.783996,4 -3.999992,4 h -64 c -2.216,0 -4,-1.783996 -4,-4 V 54.000004 c 0,-2.216 1.784,-4 4,-4 z" />
  <path
     id="rect2181"
     style="fill:#f06767;stroke-width:18.5218;stroke-linecap:round;stroke-linejoin:round"
     d="m 32.000004,56.000004 h 64 c 2.215996,0 3.999992,1.784 3.999992,4 V 84.000008 C 99.999996,86.216004 98.216,88 96.000004,88 h -64 c -2.216,0 -4,-1.783996 -4,-3.999992 V 60.000004 c 0,-2.216 1.784,-4 4,-4 z" />
  <path
     d="m 24.000004,65 v 19.999886 c 0,3.324004 2.676,6 6,6 H 98 c 3.324,0 6,-2.675996 6,-6 V 65 H 72 c -0.08716,4.352572 -3.646556,7.996548 -8,7.999924 C 59.646556,72.996524 56.087152,69.352572 56,65 Z"
     style="opacity:0.2;fill:#000000;fill-opacity:1;stroke-width:17.9999;stroke-linecap:round;stroke-linejoin:round"
     id="path3791"
     sodipodi:nodetypes="cssssccccc" />
  <path
     id="rect1745"
     style="fill:url(#linearGradient6554);fill-opacity:1;stroke-width:17.9999;stroke-linecap:round;stroke-linejoin:round"
     d="M 24.000004,66.00008 V 88 c 0,3.324004 2.676,6 6,6 H 98 c 3.324,0 6,-2.675996 6,-6 V 66.00008 H 72 c -0.08716,4.352572 -3.646556,7.996548 -8,7.999924 -4.353444,-0.0034 -7.912848,-3.647352 -8,-7.999924 z"
     sodipodi:nodetypes="cssssccccc" />
  <path
     id="rect441"
     style="opacity:0.3;fill:#ffffff"
     d="M 28,9 C 17.474011,9 9,17.474011 9,28 v 1 C 9,18.474011 17.474011,10 28,10 h 72 c 10.52599,0 19,8.474011 19,19 V 28 C 119,17.474011 110.52599,9 100,9 Z" />
  <path
     id="rect443"
     style="opacity:0.3;fill:#ffffff"
     d="m 9,99 v 1 c 0,10.52599 8.474011,19 19,19 h 72 c 10.52599,0 19,-8.47401 19,-19 v -1 c 0,10.52599 -8.47401,19 -19,19 H 28 C 17.474011,118 9,109.52599 9,99 Z" />
  <path
     id="rect899"
     style="fill:#000000;stroke:none;stroke-width:2;opacity:0.5"
     d="M 28,8 C 16.920022,8 8,16.920022 8,28 v 72 c 0,11.07998 8.920022,20 20,20 h 72 c 11.07998,0 20,-8.92002 20,-20 V 28 C 120,16.920022 111.07998,8 100,8 Z m 0,1 h 72 c 10.52599,0 19,8.474011 19,19 v 72 c 0,10.52599 -8.47401,19 -19,19 H 28 C 17.474011,119 9,110.52599 9,100 V 28 C 9,17.474011 17.474011,9 28,9 Z" />
</svg>
