<?xml version="1.0" encoding="UTF-8" standalone="no"?>
<!-- Created with Inkscape (http://www.inkscape.org/) -->

<svg
   width="128"
   height="128"
   viewBox="0 0 128 128.00001"
   version="1.1"
   id="svg5"
   sodipodi:docname="libreoffice-draw.svg"
   inkscape:version="1.2.1 (9c6d41e410, 2022-07-14)"
   xmlns:inkscape="http://www.inkscape.org/namespaces/inkscape"
   xmlns:sodipodi="http://sodipodi.sourceforge.net/DTD/sodipodi-0.dtd"
   xmlns:xlink="http://www.w3.org/1999/xlink"
   xmlns="http://www.w3.org/2000/svg"
   xmlns:svg="http://www.w3.org/2000/svg">
  <sodipodi:namedview
     id="namedview7"
     pagecolor="#ffffff"
     bordercolor="#666666"
     borderopacity="1.0"
     inkscape:showpageshadow="2"
     inkscape:pageopacity="0.0"
     inkscape:pagecheckerboard="0"
     inkscape:deskcolor="#d1d1d1"
     inkscape:document-units="px"
     showgrid="false"
     inkscape:zoom="4.4967572"
     inkscape:cx="31.355929"
     inkscape:cy="66.603552"
     inkscape:window-width="1920"
     inkscape:window-height="1007"
     inkscape:window-x="0"
     inkscape:window-y="0"
     inkscape:window-maximized="1"
     inkscape:current-layer="svg5" />
  <defs
     id="defs2">
    <linearGradient
       inkscape:collect="always"
       xlink:href="#linearGradient986"
       id="linearGradient3525"
       x1="96"
       y1="116"
       x2="24.000002"
       y2="3.9999969"
       gradientUnits="userSpaceOnUse"
       gradientTransform="translate(3.9999978,4.0000032)" />
    <linearGradient
       inkscape:collect="always"
       id="linearGradient986">
      <stop
         style="stop-color:#ffa12a;stop-opacity:1;"
         offset="0"
         id="stop982" />
      <stop
         style="stop-color:#ffdc75;stop-opacity:1;"
         offset="1"
         id="stop984" />
    </linearGradient>
  </defs>
  <rect
     style="fill:url(#linearGradient3525);fill-opacity:1.0;stroke:none"
     id="rect184"
     width="111"
     height="111"
     x="8.5"
     y="8.5"
     ry="19.5" />
  <path
     id="path746"
     style="color:#000000;display:inline;overflow:visible;visibility:visible;opacity:0.2;fill:#000000;fill-opacity:1;fill-rule:nonzero;stroke:none;stroke-width:40;marker:none;enable-background:new"
     d="m 36,25 c -2.215994,0 -4,1.784006 -4,4 v 72 c 0,2.21599 1.784006,4 4,4 h 56 c 2.215994,0 4,-1.78401 4,-4 V 44.375 L 76.625,25 Z M 79.375,25 96,41.625 V 29 c 0,-2.215994 -1.784006,-4 -4,-4 z m -2.566406,34.640624 c 0.57424,0.0068 1.114994,0.13508 1.58203,0.29297 0.93408,0.315788 1.740152,0.795426 2.457032,1.285156 1.433758,0.979458 2.535156,2.070312 2.535156,2.070312 L 84.8125,64.6875 82.015624,67.546876 80.585938,66.148438 c 0,0 -0.921296,-0.890762 -1.996094,-1.625 -0.537402,-0.36712 -1.110884,-0.675842 -1.480468,-0.800782 -0.1627,-0.055 -0.22699,-0.0579 -0.257814,-0.0625 -0.286342,0.19286 -0.358848,0.416336 -0.359374,1.308594 -6.02e-4,1.017076 0.323892,2.559878 0.695312,4.183594 0.37142,1.623716 0.794344,3.329026 0.777344,5.0625 -0.017,1.733476 -0.77129,3.844218 -2.664062,4.796874 -1.06942,0.53826 -2.277232,0.731794 -3.359376,0.51172 -1.08214,-0.220076 -1.965902,-0.781318 -2.703124,-1.41797 -1.474448,-1.2733 -2.541598,-2.931086 -3.691406,-4.48828 -1.149808,-1.557192 -2.341388,-2.991752 -3.597658,-3.839844 -1.241202,-0.83793 -2.450796,-1.207086 -4.335936,-0.792968 -0.656408,0.18476 -1.357196,0.75577 -2,1.914062 -0.648594,1.168714 -1.156194,2.841216 -1.394532,4.679686 -0.0192,0.14784 0.02342,0.307252 0.0078,0.457032 1.32096,0.220724 2.768614,0.215916 3.964844,0.609376 2.723604,0.895834 5.127194,2.269912 6.566406,4.503906 1.441302,2.237152 1.997746,4.405454 1.550782,6.335938 -0.446966,1.930484 -1.925526,3.3395 -3.582032,3.984374 -3.31301,1.289744 -7.622762,0.242916 -10.164062,-3.257812 l -0.04296,-0.0625 -0.03906,-0.0625 c -1.522314,-2.463064 -2.049066,-5.533978 -2.191406,-8.644532 -0.436758,-0.0256 -0.768004,-0.174 -1.210938,-0.1836 L 46,79.191406 l -2,-0.04688 0.08984,-4 2,0.04688 3.074218,0.0664 c 0.385338,0.0084 0.710754,0.14898 1.09375,0.16796 0.0136,-0.118 -0.0192,-0.242036 -0.004,-0.359376 0.288538,-2.2257 0.878006,-4.333978 1.863282,-6.109374 0.985276,-1.775398 2.447632,-3.300072 4.46875,-3.847656 l 0.03906,-0.0118 0.03906,-0.0078 c 2.92908,-0.667568 5.55714,0.0463 7.519532,1.371094 1.962392,1.32479 3.369268,3.138798 4.58203,4.78125 1.212764,1.64245 2.274572,3.135254 3.085938,3.835936 0.405682,0.350338 0.69902,0.485258 0.88672,0.523438 0.1877,0.03816 0.340844,0.05364 0.765624,-0.16016 0.415518,-0.20914 0.451338,-0.286898 0.460938,-1.265624 0.0096,-0.978728 -0.30498,-2.511808 -0.675782,-4.132814 -0.370798,-1.621002 -0.797904,-3.331946 -0.796874,-5.074218 0.001,-1.742272 0.679376,-3.85447 2.535156,-4.886718 0.599276,-0.333364 1.207008,-0.448164 1.78125,-0.441408 z M 54.296876,80.046876 c 0.219138,2.263986 0.678868,4.393424 1.554686,5.847656 1.451886,1.941714 4.044384,2.383906 5.421876,1.847656 0.695164,-0.270626 1.007858,-0.60362 1.136718,-1.160156 0.12886,-0.556538 0.04678,-1.620494 -1.015624,-3.269532 -0.706984,-1.0974 -2.249788,-2.142474 -4.453126,-2.867188 -0.740976,-0.243718 -1.790908,-0.228718 -2.64453,-0.398436 z" />
  <path
     id="path528"
     style="color:#000000;display:inline;overflow:visible;visibility:visible;fill:#ffffff;fill-opacity:1;fill-rule:nonzero;stroke:none;stroke-width:40;marker:none;enable-background:new"
     d="m 36,24 c -2.215994,0 -4,1.784006 -4,4 v 72 c 0,2.21599 1.784006,4 4,4 h 56 c 2.215994,0 4,-1.78401 4,-4 V 43.375 L 76.625,24 Z M 79.375,24 96,40.625 V 28 c 0,-2.215994 -1.784006,-4 -4,-4 z m -2.566406,34.640624 c 0.57424,0.0068 1.114994,0.13508 1.58203,0.29297 0.93408,0.315788 1.740152,0.795426 2.457032,1.285156 1.433758,0.979458 2.535156,2.070312 2.535156,2.070312 L 84.8125,63.6875 82.015624,66.546876 80.585938,65.148438 c 0,0 -0.921296,-0.890762 -1.996094,-1.625 -0.537402,-0.36712 -1.110884,-0.675842 -1.480468,-0.800782 -0.1627,-0.055 -0.22699,-0.0579 -0.257814,-0.0625 -0.286342,0.19286 -0.358848,0.416336 -0.359374,1.308594 -6.02e-4,1.017076 0.323892,2.559878 0.695312,4.183594 0.37142,1.623716 0.794344,3.329026 0.777344,5.0625 -0.017,1.733474 -0.77129,3.844218 -2.664062,4.796874 -1.06942,0.53826 -2.277232,0.731794 -3.359376,0.51172 -1.08214,-0.220076 -1.965902,-0.781318 -2.703124,-1.41797 -1.474448,-1.2733 -2.541598,-2.931088 -3.691406,-4.48828 -1.149808,-1.557192 -2.341388,-2.991752 -3.597658,-3.839844 -1.241202,-0.83793 -2.450796,-1.207086 -4.335936,-0.792968 -0.656408,0.18476 -1.357196,0.75577 -2,1.914062 -0.648594,1.168714 -1.156194,2.841218 -1.394532,4.679686 -0.0192,0.14784 0.02342,0.307252 0.0078,0.457032 1.32096,0.220724 2.768614,0.215916 3.964844,0.609376 2.723604,0.895834 5.127194,2.269912 6.566406,4.503906 1.441302,2.237152 1.997746,4.405454 1.550782,6.335938 -0.446966,1.930484 -1.925526,3.3395 -3.582032,3.984374 -3.31301,1.289744 -7.622762,0.242916 -10.164062,-3.257812 l -0.04296,-0.0625 -0.03906,-0.0625 c -1.522314,-2.463064 -2.049066,-5.533978 -2.191406,-8.644532 -0.436758,-0.0256 -0.768004,-0.174 -1.210938,-0.1836 L 46,78.191406 l -2,-0.04688 0.08984,-4 2,0.04688 3.074218,0.0664 c 0.385338,0.0084 0.710754,0.14898 1.09375,0.16796 0.0136,-0.118 -0.0192,-0.242036 -0.004,-0.359376 0.288538,-2.225698 0.878006,-4.333978 1.863282,-6.109374 0.985276,-1.775398 2.447632,-3.300072 4.46875,-3.847656 l 0.03906,-0.0118 0.03906,-0.0078 c 2.92908,-0.667568 5.55714,0.0463 7.519532,1.371094 1.962392,1.32479 3.369268,3.138798 4.58203,4.78125 1.212764,1.64245 2.274572,3.135256 3.085938,3.835936 0.405682,0.350338 0.69902,0.485258 0.88672,0.523438 0.1877,0.03816 0.340844,0.05364 0.765624,-0.16016 0.415518,-0.20914 0.451338,-0.2869 0.460938,-1.265624 0.0096,-0.978728 -0.30498,-2.511808 -0.675782,-4.132814 -0.370798,-1.621002 -0.797904,-3.331946 -0.796874,-5.074218 0.001,-1.742272 0.679376,-3.85447 2.535156,-4.886718 0.599276,-0.333364 1.207008,-0.448164 1.78125,-0.441408 z M 54.296876,79.046876 c 0.219138,2.263986 0.678868,4.393424 1.554686,5.847656 1.451886,1.941714 4.044384,2.383906 5.421876,1.847656 0.695164,-0.270626 1.007858,-0.60362 1.136718,-1.160156 0.12886,-0.556538 0.04678,-1.620494 -1.015624,-3.269532 -0.706984,-1.0974 -2.249788,-2.142474 -4.453126,-2.867188 -0.740976,-0.243718 -1.790908,-0.228718 -2.64453,-0.398436 z" />
  <path
     id="rect441"
     style="opacity:0.3;fill:#ffffff"
     d="M 28,9 C 17.474011,9 9,17.474011 9,28 v 1 C 9,18.474011 17.474011,10 28,10 h 72 c 10.52599,0 19,8.474011 19,19 V 28 C 119,17.474011 110.52599,9 100,9 Z" />
  <path
     id="rect443"
     style="opacity:0.3;fill:#ffffff"
     d="m 9,99 v 1 c 0,10.52599 8.474011,19 19,19 h 72 c 10.52599,0 19,-8.47401 19,-19 v -1 c 0,10.52599 -8.47401,19 -19,19 H 28 C 17.474011,118 9,109.52599 9,99 Z" />
  <path
     id="rect899"
     style="fill:#000000;stroke:none;stroke-width:2;opacity:0.5"
     d="M 28,8 C 16.920022,8 8,16.920022 8,28 v 72 c 0,11.07998 8.920022,20 20,20 h 72 c 11.07998,0 20,-8.92002 20,-20 V 28 C 120,16.920022 111.07998,8 100,8 Z m 0,1 h 72 c 10.52599,0 19,8.474011 19,19 v 72 c 0,10.52599 -8.47401,19 -19,19 H 28 C 17.474011,119 9,110.52599 9,100 V 28 C 9,17.474011 17.474011,9 28,9 Z" />
</svg>
