<?xml version="1.0" encoding="UTF-8" standalone="no"?>
<!-- Created with Inkscape (http://www.inkscape.org/) -->

<svg
   width="128"
   height="128"
   viewBox="0 0 128 128.00001"
   version="1.1"
   id="svg5"
   sodipodi:docname="lutris.svg"
   inkscape:version="1.2.1 (9c6d41e410, 2022-07-14)"
   xmlns:inkscape="http://www.inkscape.org/namespaces/inkscape"
   xmlns:sodipodi="http://sodipodi.sourceforge.net/DTD/sodipodi-0.dtd"
   xmlns:xlink="http://www.w3.org/1999/xlink"
   xmlns="http://www.w3.org/2000/svg"
   xmlns:svg="http://www.w3.org/2000/svg">
  <sodipodi:namedview
     id="namedview7"
     pagecolor="#ffffff"
     bordercolor="#666666"
     borderopacity="1.0"
     inkscape:showpageshadow="2"
     inkscape:pageopacity="0.0"
     inkscape:pagecheckerboard="0"
     inkscape:deskcolor="#d1d1d1"
     inkscape:document-units="px"
     showgrid="false"
     inkscape:zoom="4.4967572"
     inkscape:cx="10.451976"
     inkscape:cy="66.49236"
     inkscape:window-width="1920"
     inkscape:window-height="1006"
     inkscape:window-x="0"
     inkscape:window-y="0"
     inkscape:window-maximized="1"
     inkscape:current-layer="svg5" />
  <defs
     id="defs2">
    <linearGradient
       inkscape:collect="always"
       xlink:href="#linearGradient3298"
       id="linearGradient3525"
       x1="96"
       y1="116"
       x2="24.000002"
       y2="3.9999969"
       gradientUnits="userSpaceOnUse"
       gradientTransform="translate(3.9999978,4.0000032)" />
    <linearGradient
       inkscape:collect="always"
       id="linearGradient3298">
      <stop
         style="stop-color:#ff9708;stop-opacity:1;"
         offset="0"
         id="stop3294" />
      <stop
         style="stop-color:#ffc608;stop-opacity:1;"
         offset="1"
         id="stop3296" />
    </linearGradient>
  </defs>
  <rect
     style="fill:url(#linearGradient3525);fill-opacity:1.0;stroke:none"
     id="rect184"
     width="111"
     height="111"
     x="8.5"
     y="8.5"
     ry="19.5" />
  <path
     d="m 73.265622,51.132812 c -4.106526,-0.0084 -8.426538,0.840018 -12.398436,2.15625 0.728698,0.291054 1.476396,0.472064 2.148436,1.003906 l 0.004,0.004 c 1.374066,1.09168 2.228706,2.592588 2.996092,4.109374 0.767392,1.516786 1.379022,3.068182 1.820314,4.152344 l 0.0078,0.0118 0.004,0.0156 c 0.593386,1.51175 1.029232,2.990738 0.566406,4.597658 -0.462054,1.604246 -1.912326,2.743728 -3.617186,3.34375 -2.604878,0.926094 -5.102956,0.308728 -7,-0.730468 -1.897046,-1.039198 -3.426808,-2.414362 -4.85547,-3.378908 l -0.0118,-0.0118 -0.0156,-0.0078 c -1.329648,-0.932634 -2.98372,-1.47347 -4.617186,-2.000002 -1.568902,2.893232 -2.479574,5.649368 -2.558594,6.816408 -0.10716,1.587 -0.15534,2.625164 0.17968,3.714844 0.33415,1.086786 1.10534,2.411032 3.01172,4.359374 0.704606,0.69343 1.475658,1.34347 2.359374,1.933594 0.39372,0.262876 0.80666,0.516984 1.234376,0.753906 l 0.0078,0.004 c 0.554602,0.304224 1.143756,0.597578 1.757812,0.88672 0.242774,0.11432 0.532036,0.23454 0.851562,0.375 0.365152,0.16014 0.699608,0.31146 1.01172,0.4375 h 0.004 c 0.268098,0.10802 0.569054,0.22033 0.898438,0.34375 v -0.004 c 0.392734,0.147 0.764586,0.288436 1.121094,0.410156 0.254488,0.08684 0.521542,0.17252 0.80078,0.261718 0.330706,0.10564 0.693334,0.211902 1.078126,0.324218 l -0.004,-0.004 c 1.123894,0.327867 2.274534,0.617327 3.433594,0.863283 h 0.004 c 0.20727,0.04434 0.39332,0.08782 0.5625,0.1211 h 0.004 0.004 c 1.189952,0.237854 2.38038,0.434718 3.570312,0.585938 0.14564,0.0186 0.319374,0.0357 0.519532,0.0586 h 0.004 0.004 c 1.233744,0.14398 2.454504,0.251948 3.652344,0.304688 h 0.004 0.0078 c 0.02728,0.0014 0.10206,0.003 0.222656,0.0078 1.180694,0.04702 2.34352,0.0431 3.484376,0.004 0.1867,-0.0068 0.312874,-0.002 0.359374,-0.004 1.144707,-0.04846 2.256085,-0.1486 3.332033,-0.285156 0.18496,-0.02336 0.3118,-0.03416 0.375,-0.04296 h 0.004 c 1.01948,-0.14048 1.992488,-0.329046 2.921876,-0.550782 0.08872,-0.02124 0.18542,-0.04592 0.28125,-0.07032 1.968262,-0.666228 3.954432,-1.513849 6.160156,-2.535157 4.250986,-2.100072 5.970358,-4.852618 7.851562,-7.960938 0.776412,-2.769678 1.175844,-5.631394 1.1875,-8.507812 -0.0032,-3.309632 -0.519702,-6.598742 -1.53125,-9.750002 -0.362094,-0.03464 -0.713332,-0.0563 -1.097656,-0.11718 l -0.08594,-0.0118 -0.08204,-0.02344 c -0.706464,-0.17508 -1.074904,-0.283442 -1.402342,-0.414062 -0.03906,-0.0156 -0.10526,-0.06232 -0.14454,-0.07812 -4.848026,-1.715708 -8.363084,-3.31553 -13.179688,-4.402344 l -0.08984,-0.0196 -0.08204,-0.02734 C 78.117673,51.452108 75.72954,51.137808 73.265622,51.132812 Z M 62.91462,25.000014 c -21.027232,-0.0188 -38.34829,17.298854 -38.901036,39.14324 -0.562118,22.191129 16.391904,40.649116 37.869714,41.229316 10.463638,0.2825 20.070405,-3.72817 27.236195,-10.485073 0.765092,-0.638442 1.179768,-1.039132 1.179768,-1.039128 0,0 8.060082,-10.979719 8.477124,-17.712123 -1.98278,3.275838 -4.018104,6.712128 -8.95372,9.141234 -2.263536,1.048551 -4.33915,1.935881 -6.430118,2.640805 -0.13392,0.0344 -0.270258,0.069 -0.406276,0.10156 -0.990394,0.236416 -2.029318,0.43605 -3.117396,0.58598 -0.13192,0.0184 -0.265256,0.03 -0.398466,0.04688 -1.128488,0.14322 -2.29669,0.245938 -3.500235,0.2969 -0.12388,0.0052 -0.250496,0.0034 -0.375024,0.008 -1.187348,0.0408 -2.400144,0.041 -3.633058,-0.008 -0.08048,-0.0032 -0.16166,-0.004 -0.242218,-0.008 -1.25379,-0.0552 -2.522912,-0.16384 -3.797128,-0.31254 -0.18186,-0.0208 -0.364986,-0.0392 -0.546914,-0.06252 -1.240366,-0.15762 -2.478312,-0.362986 -3.711182,-0.609418 -0.19922,-0.0392 -0.395228,-0.08252 -0.593792,-0.125 -1.206474,-0.256018 -2.404758,-0.55613 -3.578364,-0.898496 -0.376264,-0.10984 -0.753674,-0.217294 -1.125074,-0.335942 -0.28074,-0.08968 -0.558394,-0.17874 -0.835996,-0.273458 -0.396666,-0.13544 -0.790298,-0.28394 -1.179764,-0.429718 -0.3177,-0.11904 -0.63307,-0.233454 -0.945378,-0.359384 -0.361864,-0.14602 -0.716252,-0.305661 -1.070384,-0.460967 -0.3001,-0.13192 -0.604564,-0.260058 -0.898496,-0.398466 -0.639882,-0.3013 -1.267892,-0.611978 -1.875124,-0.945376 -0.483314,-0.267378 -0.94448,-0.551084 -1.382906,-0.843808 -1.006866,-0.672358 -1.884704,-1.410726 -2.672054,-2.187646 -4.099082,-4.183148 -3.981122,-6.429806 -3.765874,-9.61783 0.1324,-1.955266 1.234578,-5.54539 3.601804,-9.242808 2.387718,0.57624 4.725832,1.523902 6.719196,2.922072 3.161496,2.134444 6.009682,5.324186 10.063172,3.883074 2.771256,-0.971926 2.921774,-2.6222 1.8595,-5.328482 -0.897056,-2.200424 -2.377566,-5.996806 -4.211222,-7.453624 -1.446876,-1.145036 -4.14658,-1.448768 -6.351984,-2.203274 1.201662,-0.773956 2.51116,-1.472846 3.929952,-2.07045 6.825762,-2.410194 14.852998,-3.496718 21.563939,-1.336026 5.048126,1.139052 8.676908,2.79736 13.47746,4.492488 0,0 -0.0368,0.08548 1.28915,0.414088 9.336089,1.478966 8.281799,-6.21135 8.281799,-6.21135 l -0.72661,-1.80481 0.54691,-1.695424 c 0,0 -0.57364,-2.121966 -0.47659,-3.523672 0.0982,-1.400876 -0.91302,-1.751244 -1.21881,-4.3126 -0.30546,-2.561538 -1.98638,-3.57867 -2.531419,-3.976828 -0.54631,-0.397444 -3.0929,-2.316472 -5.531622,-3.273656 -2.44022,-0.957198 -4.908016,-1.662596 -7.945842,-1.234458 -0.337304,0.04768 -0.651852,0.09856 -0.984438,0.14844 -0.0584,-0.0186 -0.1082,-0.04362 -0.1719,-0.0625 -1.158398,-0.344032 -1.975716,-2.218134 -2.922066,-2.19546 -0.072,0.0017 -0.1447,0.0078 -0.218776,0.0156 -0.0728,0.0076 -0.15152,0.0172 -0.226574,0.03124 -0.076,0.0144 -0.15524,0.03324 -0.234376,0.0547 -0.08632,0.02336 -0.1721,0.05756 -0.250016,0.09376 -0.55379,0.25743 -0.891864,1.223898 -1.101634,1.859502 -4.859165,-2.456244 -10.294245,-3.899698 -16.055769,-4.054964 -0.335622,-0.009 -0.666332,-0.0154 -1.000066,-0.0156 z"
     style="opacity:0.2;fill:#000000;fill-opacity:1;stroke:none;stroke-width:4;stroke-linecap:round;stroke-linejoin:round"
     id="path14284" />
  <path
     id="path12403"
     style="fill:#ffdfa0;fill-opacity:1;stroke:none;stroke-width:4;stroke-linecap:round;stroke-linejoin:round"
     d="m 73.265622,50.132812 c -4.106526,-0.0084 -8.426538,0.840018 -12.398436,2.15625 0.728698,0.291054 1.476396,0.472064 2.148436,1.003906 l 0.004,0.004 c 1.374066,1.09168 2.228706,2.592588 2.996092,4.109374 0.767392,1.516786 1.379022,3.068182 1.820314,4.152344 l 0.0078,0.0118 0.004,0.0156 c 0.593386,1.51175 1.029232,2.990736 0.566406,4.597656 -0.462054,1.604246 -1.912326,2.743728 -3.617186,3.34375 -2.604878,0.926094 -5.102956,0.308728 -7,-0.730468 -1.897046,-1.039198 -3.426808,-2.414362 -4.85547,-3.378908 l -0.0118,-0.0118 -0.0156,-0.0078 c -1.329648,-0.932634 -2.98372,-1.473468 -4.617186,-2 -1.568902,2.89323 -2.479574,5.649366 -2.558594,6.816406 -0.10716,1.587 -0.15534,2.625164 0.17968,3.714844 0.33415,1.086786 1.10534,2.411032 3.01172,4.359374 0.704606,0.69343 1.475658,1.34347 2.359374,1.933594 0.39372,0.262876 0.80666,0.516984 1.234376,0.753906 l 0.0078,0.004 c 0.554602,0.304224 1.143756,0.597578 1.757812,0.88672 0.242774,0.11432 0.532036,0.23454 0.851562,0.375 0.365152,0.16014 0.699608,0.31146 1.01172,0.4375 h 0.004 c 0.268098,0.10802 0.569054,0.22033 0.898438,0.34375 v -0.004 c 0.392734,0.147 0.764586,0.288436 1.121094,0.410156 0.254488,0.08684 0.521542,0.17252 0.80078,0.261718 0.330706,0.10564 0.693334,0.211902 1.078126,0.324218 l -0.004,-0.004 c 1.123894,0.327866 2.274534,0.617326 3.433594,0.863282 h 0.004 c 0.20727,0.04434 0.39332,0.08782 0.5625,0.1211 h 0.004 0.004 c 1.189952,0.237854 2.38038,0.434719 3.570312,0.585939 0.14564,0.0186 0.319374,0.0357 0.519532,0.0586 h 0.004 0.004 c 1.233744,0.14398 2.454504,0.251948 3.652344,0.304688 h 0.004 0.0078 c 0.02728,0.0014 0.10206,0.003 0.222656,0.0078 1.180694,0.04702 2.34352,0.0431 3.484376,0.004 0.1867,-0.0068 0.312874,-0.002 0.359374,-0.004 1.144707,-0.04846 2.256085,-0.1486 3.332033,-0.285156 0.18496,-0.02336 0.3118,-0.03416 0.375,-0.04296 h 0.004 c 1.01948,-0.14048 1.992488,-0.329046 2.921876,-0.550783 0.08872,-0.02124 0.18542,-0.04592 0.28125,-0.07032 1.968262,-0.666228 3.954432,-1.513848 6.160156,-2.535156 4.250986,-2.100072 5.970358,-4.852618 7.851562,-7.960938 C 97.588911,71.738136 97.988343,68.87642 97.999999,66 c -0.0032,-3.30963 -0.519702,-6.59874 -1.53125,-9.75 -0.362094,-0.03464 -0.713332,-0.0563 -1.097656,-0.11718 l -0.08594,-0.0118 -0.08204,-0.02344 c -0.706464,-0.17508 -1.074904,-0.283442 -1.402342,-0.414062 -0.03906,-0.0156 -0.10526,-0.06232 -0.14454,-0.07812 -4.848026,-1.715708 -8.363084,-3.31553 -13.179688,-4.402344 l -0.08984,-0.0196 -0.08204,-0.02734 c -2.187014,-0.704142 -4.575147,-1.018442 -7.039065,-1.023438 z"
     sodipodi:nodetypes="scccscccscscccccsccccsccccccscccccccccccccccccccccccccccccsccccs" />
  <path
     id="path990"
     style="fill:#ffffff;stroke-width:5.02422"
     d="m 62.91462,24.000016 c -21.027232,-0.0188 -38.34829,17.298852 -38.901036,39.143238 -0.562118,22.191127 16.391904,40.649116 37.869714,41.229316 10.463638,0.2825 20.070405,-3.72817 27.236195,-10.485075 0.765092,-0.638442 1.179768,-1.039132 1.179768,-1.039128 0,0 8.060082,-10.979719 8.477124,-17.712123 -1.98278,3.275838 -4.018104,6.712128 -8.95372,9.141234 -2.263536,1.048551 -4.33915,1.935881 -6.430118,2.640805 -0.13392,0.0344 -0.270258,0.069 -0.406276,0.10156 -0.990394,0.236416 -2.029318,0.43605 -3.117396,0.58598 -0.13192,0.0184 -0.265256,0.03 -0.398466,0.04688 -1.128488,0.14322 -2.29669,0.245938 -3.500235,0.2969 -0.12388,0.0052 -0.250496,0.0034 -0.375024,0.008 -1.187348,0.0408 -2.400144,0.041 -3.633058,-0.008 -0.08048,-0.0032 -0.16166,-0.004 -0.242218,-0.008 -1.25379,-0.0552 -2.522912,-0.16384 -3.797128,-0.31254 -0.18186,-0.0208 -0.364986,-0.0392 -0.546914,-0.06252 -1.240366,-0.15762 -2.478312,-0.362986 -3.711182,-0.609418 -0.19922,-0.0392 -0.395228,-0.08252 -0.593792,-0.125 -1.206474,-0.256018 -2.404758,-0.55613 -3.578364,-0.898496 -0.376264,-0.10984 -0.753674,-0.217294 -1.125074,-0.335942 -0.28074,-0.08968 -0.558394,-0.17874 -0.835996,-0.273458 -0.396666,-0.135441 -0.790298,-0.283941 -1.179764,-0.429719 -0.3177,-0.11904 -0.63307,-0.233454 -0.945378,-0.359384 -0.361864,-0.14602 -0.716252,-0.30566 -1.070384,-0.460966 -0.3001,-0.13192 -0.604564,-0.260058 -0.898496,-0.398466 -0.639882,-0.3013 -1.267892,-0.611978 -1.875124,-0.945376 -0.483314,-0.267378 -0.94448,-0.551084 -1.382906,-0.843808 -1.006866,-0.672358 -1.884704,-1.410726 -2.672054,-2.187646 -4.099082,-4.183148 -3.981122,-6.429806 -3.765874,-9.61783 0.1324,-1.955266 1.234578,-5.54539 3.601804,-9.242806 2.387718,0.57624 4.725832,1.523902 6.719196,2.922072 3.161496,2.134442 6.009682,5.324184 10.063172,3.883072 2.771256,-0.971926 2.921774,-2.6222 1.8595,-5.32848 -0.897056,-2.200424 -2.377566,-5.996806 -4.211222,-7.453624 -1.446876,-1.145036 -4.14658,-1.448768 -6.351984,-2.203274 1.201662,-0.773956 2.51116,-1.472846 3.929952,-2.07045 6.825762,-2.410194 14.852998,-3.496718 21.563939,-1.336026 5.048126,1.139052 8.676908,2.79736 13.47746,4.492488 0,0 -0.0368,0.08548 1.28915,0.414088 9.336089,1.478966 8.281799,-6.21135 8.281799,-6.21135 l -0.72661,-1.80481 0.54691,-1.695424 c 0,0 -0.57364,-2.121966 -0.47659,-3.523672 0.0982,-1.400876 -0.91302,-1.751244 -1.21881,-4.3126 -0.30546,-2.561538 -1.98638,-3.57867 -2.531419,-3.976828 -0.54631,-0.397444 -3.0929,-2.316472 -5.531622,-3.273656 -2.44022,-0.957198 -4.908016,-1.662594 -7.945842,-1.234458 -0.337304,0.04768 -0.651852,0.09856 -0.984438,0.14844 -0.0584,-0.0186 -0.1082,-0.04362 -0.1719,-0.0625 -1.158398,-0.34403 -1.975716,-2.218132 -2.922066,-2.195458 -0.072,0.0017 -0.1447,0.0078 -0.218776,0.0156 -0.0728,0.0076 -0.15152,0.0172 -0.226574,0.03124 -0.076,0.0144 -0.15524,0.03324 -0.234376,0.0547 -0.08632,0.02336 -0.1721,0.05756 -0.250016,0.09376 -0.55379,0.25743 -0.891864,1.223898 -1.101634,1.8595 -4.859165,-2.456242 -10.294245,-3.899696 -16.055769,-4.054962 -0.335622,-0.009 -0.666332,-0.0154 -1.000066,-0.0156 z"
     sodipodi:nodetypes="ccccccccccccccccccccsccccsccccccccccccccccccccccccssccccccc" />
  <path
     id="rect441"
     style="opacity:0.3;fill:#ffffff"
     d="M 28,9 C 17.474011,9 9,17.474011 9,28 v 1 C 9,18.474011 17.474011,10 28,10 h 72 c 10.52599,0 19,8.474011 19,19 V 28 C 119,17.474011 110.52599,9 100,9 Z" />
  <path
     id="rect443"
     style="opacity:0.3;fill:#ffffff"
     d="m 9,99 v 1 c 0,10.52599 8.474011,19 19,19 h 72 c 10.52599,0 19,-8.47401 19,-19 v -1 c 0,10.52599 -8.47401,19 -19,19 H 28 C 17.474011,118 9,109.52599 9,99 Z" />
  <path
     id="rect899"
     style="fill:#000000;stroke:none;stroke-width:2;opacity:0.5"
     d="M 28,8 C 16.920022,8 8,16.920022 8,28 v 72 c 0,11.07998 8.920022,20 20,20 h 72 c 11.07998,0 20,-8.92002 20,-20 V 28 C 120,16.920022 111.07998,8 100,8 Z m 0,1 h 72 c 10.52599,0 19,8.474011 19,19 v 72 c 0,10.52599 -8.47401,19 -19,19 H 28 C 17.474011,119 9,110.52599 9,100 V 28 C 9,17.474011 17.474011,9 28,9 Z" />
</svg>
