<?xml version="1.0" encoding="UTF-8" standalone="no"?>
<!-- Created with Inkscape (http://www.inkscape.org/) -->

<svg
   width="128"
   height="128"
   viewBox="0 0 128 128.00001"
   version="1.1"
   id="svg5"
   sodipodi:docname="microsoft-edge-canary.svg"
   inkscape:version="1.2.1 (9c6d41e410, 2022-07-14)"
   xmlns:inkscape="http://www.inkscape.org/namespaces/inkscape"
   xmlns:sodipodi="http://sodipodi.sourceforge.net/DTD/sodipodi-0.dtd"
   xmlns:xlink="http://www.w3.org/1999/xlink"
   xmlns="http://www.w3.org/2000/svg"
   xmlns:svg="http://www.w3.org/2000/svg">
  <sodipodi:namedview
     id="namedview7"
     pagecolor="#ffffff"
     bordercolor="#666666"
     borderopacity="1.0"
     inkscape:showpageshadow="2"
     inkscape:pageopacity="0.0"
     inkscape:pagecheckerboard="0"
     inkscape:deskcolor="#d1d1d1"
     inkscape:document-units="px"
     showgrid="false"
     inkscape:zoom="6.171875"
     inkscape:cx="63.918987"
     inkscape:cy="64"
     inkscape:window-width="1920"
     inkscape:window-height="1002"
     inkscape:window-x="0"
     inkscape:window-y="0"
     inkscape:window-maximized="1"
     inkscape:current-layer="svg5" />
  <defs
     id="defs2">
    <linearGradient
       inkscape:collect="always"
       xlink:href="#linearGradient1140"
       id="linearGradient6041"
       x1="96"
       y1="116"
       x2="24"
       y2="3.9999998"
       gradientUnits="userSpaceOnUse"
       gradientTransform="translate(4.0000007,4.0000003)" />
    <linearGradient
       inkscape:collect="always"
       id="linearGradient1140">
      <stop
         style="stop-color:#f4ae35;stop-opacity:1;"
         offset="0"
         id="stop1136" />
      <stop
         style="stop-color:#fde38b;stop-opacity:1;"
         offset="1"
         id="stop1138" />
    </linearGradient>
  </defs>
  <rect
     style="fill:url(#linearGradient6041);fill-opacity:1;stroke:none"
     id="rect184"
     width="111"
     height="111"
     x="8.5"
     y="8.5"
     ry="19.5" />
  <path
     d="m 59.514627,78.682668 c -2.759952,-3.079948 -4.63992,-6.759886 -5.23991,-10.879814 -1.19998,1.839968 -2.199962,3.839934 -2.91995,5.999896 -3.679938,10.999812 2.719954,24.719573 13.599766,28.71951 9.35984,3.11994 19.879665,-2.43996 26.799545,-8.519857 1.03998,-1.39997 9.239842,-8.639851 5.15991,-9.439837 -12.07979,6.199897 -28.079521,4.439927 -37.399361,-5.879898 m 2.399958,-23.239606 c 4.15993,-0.04 0.16,-1.719972 -1.559972,-2.99995 -4.15993,-2.27996 -9.039846,-3.39994 -13.759764,-3.39994 -15.399732,0.16 -26.539542,9.799832 -21.319632,25.759562 3.759936,15.519739 17.239702,27.999516 33.159428,29.999486 C 50.234785,99.64231 45.274871,89.962473 45.274871,80.322638 45.594865,70.202812 51.834759,58.323012 61.914585,55.443062 m -34.7194,-5.27991 c 12.159788,-8.95985 31.519456,-8.239862 41.999276,3.039948 4.07993,4.439924 6.879882,11.999798 3.159946,17.479704 -6.959882,7.519872 12.319791,8.519854 16.439721,7.399874 C 103.75387,75.202726 107.7138,57.803022 100.59393,45.803222 93.794038,32.203462 78.714297,25.083584 63.914551,25.203582 47.674829,24.923588 33.075085,35.20341 27.195185,50.163152 Z"
     id="path534"
     style="opacity:0.2;fill:#000000;stroke-width:3.99994" />
  <path
     d="m 59.514627,77.682664 c -2.759952,-3.079948 -4.639922,-6.759884 -5.23991,-10.879814 -1.19998,1.83997 -2.199962,3.839934 -2.91995,5.999898 -3.679938,10.99981 2.719954,24.719575 13.599766,28.719502 9.35984,3.11995 19.879663,-2.439957 26.799543,-8.519847 1.03998,-1.39998 9.239844,-8.639853 5.15991,-9.439841 -12.07979,6.199901 -28.079519,4.439924 -37.399359,-5.879898 m 2.39996,-23.239602 c 4.159928,-0.04 0.16,-1.71997 -1.559974,-2.999948 -4.15993,-2.27996 -9.039846,-3.399942 -13.759764,-3.399942 -15.399734,0.16 -26.539542,9.799834 -21.319632,25.75956 3.759936,15.519732 17.239702,27.999518 33.15943,29.999478 C 50.234787,98.642303 45.274871,88.96247 45.274871,79.322636 45.594867,69.20281 51.834759,57.323014 61.914587,54.443062 M 27.195183,49.163154 c 12.15979,-8.95985 31.519458,-8.239862 41.999278,3.039948 4.07993,4.439924 6.879882,11.999794 3.159946,17.4797 -6.95988,7.51987 12.319789,8.519854 16.439719,7.399872 C 103.75387,74.202724 107.7138,56.803022 100.59393,44.803224 93.794036,31.20346 78.714299,24.083584 63.914551,24.203582 47.674829,23.923586 33.075083,34.203408 27.195183,49.163154 Z"
     id="path345"
     sodipodi:nodetypes="ccccccccccccccccccccc"
     style="fill:#ffffff;stroke-width:3.99994" />
  <path
     id="rect441"
     style="opacity:0.3;fill:#ffffff"
     d="M 28,9 C 17.474011,9 9,17.474011 9,28 v 1 C 9,18.474011 17.474011,10 28,10 h 72 c 10.52599,0 19,8.474011 19,19 V 28 C 119,17.474011 110.52599,9 100,9 Z" />
  <path
     id="rect443"
     style="opacity:0.3;fill:#ffffff"
     d="M 9,98.999998 V 100 c 0,10.52599 8.474011,19 19,19 h 72 c 10.52599,0 19,-8.47401 19,-19 V 98.999998 C 119,109.52599 110.52599,118 100,118 H 28 C 17.474011,118 9,109.52599 9,98.999998 Z" />
  <path
     id="rect899"
     style="opacity:0.5;fill:#000000;stroke:none;stroke-width:2"
     d="M 28,8 C 16.920022,8 8,16.920022 8,28 v 72 c 0,11.07998 8.920022,20 20,20 h 72 c 11.07998,0 20,-8.92002 20,-20 V 28 C 120,16.920022 111.07998,8 100,8 Z m 0,1 h 72 c 10.52599,0 19,8.474011 19,19 v 72 c 0,10.52599 -8.47401,19 -19,19 H 28 C 17.474011,119 9,110.52599 9,100 V 28 C 9,17.474011 17.474011,9 28,9 Z" />
</svg>
