<?xml version="1.0" encoding="UTF-8" standalone="no"?>
<!-- Created with Inkscape (http://www.inkscape.org/) -->

<svg
   width="128"
   height="128"
   viewBox="0 0 128 128.00001"
   version="1.1"
   id="svg5"
   sodipodi:docname="minecraft.svg"
   inkscape:version="1.2.1 (9c6d41e410, 2022-07-14)"
   xmlns:inkscape="http://www.inkscape.org/namespaces/inkscape"
   xmlns:sodipodi="http://sodipodi.sourceforge.net/DTD/sodipodi-0.dtd"
   xmlns:xlink="http://www.w3.org/1999/xlink"
   xmlns="http://www.w3.org/2000/svg"
   xmlns:svg="http://www.w3.org/2000/svg">
  <sodipodi:namedview
     id="namedview7"
     pagecolor="#ffffff"
     bordercolor="#666666"
     borderopacity="1.0"
     inkscape:showpageshadow="2"
     inkscape:pageopacity="0.0"
     inkscape:pagecheckerboard="0"
     inkscape:deskcolor="#d1d1d1"
     inkscape:document-units="px"
     showgrid="false"
     inkscape:zoom="6.171875"
     inkscape:cx="64.405063"
     inkscape:cy="64.243038"
     inkscape:window-width="1920"
     inkscape:window-height="1007"
     inkscape:window-x="0"
     inkscape:window-y="0"
     inkscape:window-maximized="1"
     inkscape:current-layer="svg5" />
  <defs
     id="defs2">
    <linearGradient
       inkscape:collect="always"
       xlink:href="#linearGradient22024"
       id="linearGradient3525"
       x1="49.837837"
       y1="59.747749"
       x2="14.162162"
       y2="4.2522521"
       gradientUnits="userSpaceOnUse"
       gradientTransform="matrix(2.0181818,0,0,2.0181818,-0.58181789,-0.58181778)" />
    <linearGradient
       inkscape:collect="always"
       id="linearGradient22024">
      <stop
         style="stop-color:#dedede;stop-opacity:1;"
         offset="0"
         id="stop22020" />
      <stop
         style="stop-color:#f2f2f2;stop-opacity:1;"
         offset="1"
         id="stop22022" />
    </linearGradient>
    <linearGradient
       inkscape:collect="always"
       xlink:href="#linearGradient974"
       id="linearGradient2135"
       x1="26"
       y1="20"
       x2="44"
       y2="0"
       gradientUnits="userSpaceOnUse"
       gradientTransform="matrix(4,0,0,4,-76,24)" />
    <linearGradient
       inkscape:collect="always"
       id="linearGradient974">
      <stop
         style="stop-color:#8e643b;stop-opacity:1;"
         offset="0"
         id="stop970" />
      <stop
         style="stop-color:#ab7948;stop-opacity:1;"
         offset="1"
         id="stop972" />
    </linearGradient>
    <linearGradient
       inkscape:collect="always"
       xlink:href="#linearGradient1863"
       id="linearGradient2168"
       x1="35"
       y1="0"
       x2="35"
       y2="8"
       gradientUnits="userSpaceOnUse"
       gradientTransform="matrix(4,0,0,4,-76,24)" />
    <linearGradient
       inkscape:collect="always"
       id="linearGradient1863">
      <stop
         style="stop-color:#7da52e;stop-opacity:1;"
         offset="0"
         id="stop1859" />
      <stop
         style="stop-color:#a7d056;stop-opacity:1;"
         offset="1"
         id="stop1861" />
    </linearGradient>
    <linearGradient
       inkscape:collect="always"
       xlink:href="#linearGradient1863"
       id="linearGradient2160"
       x1="26"
       y1="4"
       x2="35"
       y2="11"
       gradientUnits="userSpaceOnUse"
       gradientTransform="matrix(4,0,0,4,-76,24)" />
    <linearGradient
       inkscape:collect="always"
       xlink:href="#linearGradient1863"
       id="linearGradient2152"
       x1="35"
       y1="8"
       x2="44"
       y2="7"
       gradientUnits="userSpaceOnUse"
       gradientTransform="matrix(4,0,0,4,-76,24)" />
  </defs>
  <rect
     style="fill:url(#linearGradient3525);fill-opacity:1;stroke:none;stroke-width:2.01818"
     id="rect184"
     width="111"
     height="111"
     x="8.5"
     y="8.5"
     ry="19.5" />
  <path
     d="M 64,25 28,41 v 48 l 36,16 36,-16 V 41 Z"
     style="opacity:0.2;fill:#000000;fill-opacity:1;stroke-width:8;stroke-linecap:round;stroke-linejoin:round"
     id="path4107" />
  <path
     id="rect2093"
     style="fill:url(#linearGradient2135);fill-opacity:1;stroke-width:8;stroke-linecap:round;stroke-linejoin:round"
     d="M 64,24 28,40 v 48 l 36,16 36,-16 V 40 Z"
     sodipodi:nodetypes="ccccccc" />
  <path
     id="rect2137"
     style="fill:url(#linearGradient2168);fill-opacity:1;stroke-width:8;stroke-linecap:round;stroke-linejoin:round"
     d="M 64,24 100,40 64,56 28,40 Z"
     sodipodi:nodetypes="ccccc" />
  <path
     id="rect2140"
     style="fill:url(#linearGradient2160);fill-opacity:1;stroke-width:8;stroke-linecap:round;stroke-linejoin:round"
     d="M 28,40 64,56 V 68 L 28,52 Z"
     sodipodi:nodetypes="ccccc" />
  <path
     id="rect2143"
     style="fill:url(#linearGradient2152);fill-opacity:1;stroke-width:8;stroke-linecap:round;stroke-linejoin:round"
     d="M 64,56 100,40 V 52 L 64,68 Z"
     sodipodi:nodetypes="ccccc" />
  <path
     id="rect441"
     style="opacity:0.3;fill:#ffffff"
     d="M 28,9 C 17.474011,9 9,17.474011 9,28 v 1 C 9,18.474011 17.474011,10 28,10 h 72 c 10.52599,0 19,8.474011 19,19 V 28 C 119,17.474011 110.52599,9 100,9 Z" />
  <path
     id="rect443"
     style="opacity:0.3;fill:#ffffff"
     d="m 9,99 v 1 c 0,10.52599 8.474011,19 19,19 h 72 c 10.52599,0 19,-8.47401 19,-19 v -1 c 0,10.52599 -8.47401,19 -19,19 H 28 C 17.474011,118 9,109.52599 9,99 Z" />
  <path
     id="rect899"
     style="fill:#000000;stroke:none;stroke-width:2;opacity:0.5"
     d="M 28,8 C 16.920022,8 8,16.920022 8,28 v 72 c 0,11.07998 8.920022,20 20,20 h 72 c 11.07998,0 20,-8.92002 20,-20 V 28 C 120,16.920022 111.07998,8 100,8 Z m 0,1 h 72 c 10.52599,0 19,8.474011 19,19 v 72 c 0,10.52599 -8.47401,19 -19,19 H 28 C 17.474011,119 9,110.52599 9,100 V 28 C 9,17.474011 17.474011,9 28,9 Z" />
</svg>
