<?xml version="1.0" encoding="UTF-8" standalone="no"?>
<!-- Created with Inkscape (http://www.inkscape.org/) -->

<svg
   width="128"
   height="128"
   viewBox="0 0 128 128.00001"
   version="1.1"
   id="svg5"
   sodipodi:docname="mintupdate.svg"
   inkscape:version="1.3.2 (091e20ef0f, 2023-11-25, custom)"
   xmlns:inkscape="http://www.inkscape.org/namespaces/inkscape"
   xmlns:sodipodi="http://sodipodi.sourceforge.net/DTD/sodipodi-0.dtd"
   xmlns:xlink="http://www.w3.org/1999/xlink"
   xmlns="http://www.w3.org/2000/svg"
   xmlns:svg="http://www.w3.org/2000/svg">
  <sodipodi:namedview
     id="namedview7"
     pagecolor="#ffffff"
     bordercolor="#666666"
     borderopacity="1.0"
     inkscape:showpageshadow="2"
     inkscape:pageopacity="0.0"
     inkscape:pagecheckerboard="0"
     inkscape:deskcolor="#d1d1d1"
     inkscape:document-units="px"
     showgrid="false"
     inkscape:zoom="6.453125"
     inkscape:cx="64"
     inkscape:cy="64"
     inkscape:window-width="1920"
     inkscape:window-height="1011"
     inkscape:window-x="0"
     inkscape:window-y="0"
     inkscape:window-maximized="1"
     inkscape:current-layer="svg5"
     showguides="false" />
  <defs
     id="defs2">
    <linearGradient
       inkscape:collect="always"
       xlink:href="#linearGradient4522"
       id="linearGradient3525"
       x1="96"
       y1="116"
       x2="24.000002"
       y2="3.9999969"
       gradientUnits="userSpaceOnUse"
       gradientTransform="translate(3.9999978,4.0000032)" />
    <linearGradient
       inkscape:collect="always"
       id="linearGradient4522">
      <stop
         style="stop-color:#579142;stop-opacity:1;"
         offset="0"
         id="stop4518" />
      <stop
         style="stop-color:#92cd50;stop-opacity:1;"
         offset="1"
         id="stop4520" />
    </linearGradient>
  </defs>
  <rect
     style="fill:url(#linearGradient3525);fill-opacity:1.0;stroke:none"
     id="rect184"
     width="111"
     height="111"
     x="8.5"
     y="8.5"
     ry="19.5" />
  <path
     d="m 63.999998,27 c 0,0 -7.750918,8.667824 -38,12 -0.11664,33.34011 26.904268,59.999356 38,63.99932 C 74.43677,98.999356 102.11663,72.34011 102,39 71.750914,35.667824 63.999998,27 63.999998,27 Z"
     style="opacity:0.2;fill:#000000;stroke-width:7.99992;stroke-linecap:round;stroke-linejoin:round"
     id="path11269"
     sodipodi:nodetypes="ccccc" />
  <path
     id="rect11106"
     style="fill:#ffffff;stroke-width:7.99992;stroke-linecap:round;stroke-linejoin:round"
     d="m 63.999998,26.00034 c 0,0 -7.750918,8.667826 -38,12 -0.11664,33.340114 27.586454,60.360546 38,63.99932 C 74.58917,98.317318 102.11663,71.340454 102,38.00034 c -30.24909,-3.332174 -38.000002,-12 -38.000002,-12 z"
     sodipodi:nodetypes="ccccc" />
  <path
     d="m 63.999998,26.00034 v 75.99932 C 74.943598,98.006898 102.11663,71.340452 102,38.00034 c -30.249086,-3.332174 -38.000002,-12 -38.000002,-12 z"
     style="opacity:0.1;fill:#000000;stroke-width:7.99992;stroke-linecap:round;stroke-linejoin:round"
     id="path11356"
     sodipodi:nodetypes="cccc" />
  <path
     id="rect441"
     style="opacity:0.3;fill:#ffffff"
     d="M 28,9 C 17.474011,9 9,17.474011 9,28 v 1 C 9,18.474011 17.474011,10 28,10 h 72 c 10.52599,0 19,8.474011 19,19 V 28 C 119,17.474011 110.52599,9 100,9 Z" />
  <path
     id="rect443"
     style="opacity:0.3;fill:#ffffff"
     d="m 9,99 v 1 c 0,10.52599 8.474011,19 19,19 h 72 c 10.52599,0 19,-8.47401 19,-19 v -1 c 0,10.52599 -8.47401,19 -19,19 H 28 C 17.474011,118 9,109.52599 9,99 Z" />
  <path
     id="rect899"
     style="fill:#000000;stroke:none;stroke-width:2;opacity:0.5"
     d="M 28,8 C 16.920022,8 8,16.920022 8,28 v 72 c 0,11.07998 8.920022,20 20,20 h 72 c 11.07998,0 20,-8.92002 20,-20 V 28 C 120,16.920022 111.07998,8 100,8 Z m 0,1 h 72 c 10.52599,0 19,8.474011 19,19 v 72 c 0,10.52599 -8.47401,19 -19,19 H 28 C 17.474011,119 9,110.52599 9,100 V 28 C 9,17.474011 17.474011,9 28,9 Z" />
</svg>
