<?xml version="1.0" encoding="UTF-8" standalone="no"?>
<!-- Created with Inkscape (http://www.inkscape.org/) -->

<svg
   width="128"
   height="128"
   viewBox="0 0 128 128.00001"
   version="1.1"
   id="svg5"
   sodipodi:docname="office-address-book.svg"
   inkscape:version="1.2.1 (9c6d41e410, 2022-07-14)"
   xmlns:inkscape="http://www.inkscape.org/namespaces/inkscape"
   xmlns:sodipodi="http://sodipodi.sourceforge.net/DTD/sodipodi-0.dtd"
   xmlns:xlink="http://www.w3.org/1999/xlink"
   xmlns="http://www.w3.org/2000/svg"
   xmlns:svg="http://www.w3.org/2000/svg">
  <sodipodi:namedview
     id="namedview7"
     pagecolor="#ffffff"
     bordercolor="#666666"
     borderopacity="1.0"
     inkscape:showpageshadow="2"
     inkscape:pageopacity="0.0"
     inkscape:pagecheckerboard="0"
     inkscape:deskcolor="#d1d1d1"
     inkscape:document-units="px"
     showgrid="false"
     inkscape:zoom="9.0708542"
     inkscape:cx="74.083431"
     inkscape:cy="60.468396"
     inkscape:window-width="1920"
     inkscape:window-height="1007"
     inkscape:window-x="0"
     inkscape:window-y="0"
     inkscape:window-maximized="1"
     inkscape:current-layer="svg5" />
  <defs
     id="defs2">
    <linearGradient
       inkscape:collect="always"
       xlink:href="#linearGradient8443"
       id="linearGradient3525"
       x1="49.837837"
       y1="59.747749"
       x2="14.162162"
       y2="4.2522521"
       gradientUnits="userSpaceOnUse"
       gradientTransform="matrix(2.0181818,0,0,2.0181818,-0.58181789,-0.58181778)" />
    <linearGradient
       inkscape:collect="always"
       id="linearGradient8443">
      <stop
         style="stop-color:#3465c4;stop-opacity:1;"
         offset="0"
         id="stop8439" />
      <stop
         style="stop-color:#68b4f7;stop-opacity:1;"
         offset="1"
         id="stop8441" />
    </linearGradient>
  </defs>
  <rect
     style="fill:url(#linearGradient3525);fill-opacity:1.0;stroke:none;stroke-width:2.01818"
     id="rect184"
     width="111"
     height="111"
     x="8.5"
     y="8.5"
     ry="19.5" />
  <path
     id="rect294"
     style="fill:#8ace64;fill-opacity:1;stroke-width:6.9282;stroke-linecap:round;stroke-linejoin:round"
     d="M 104 8.9101562 L 104 54 L 119.5 54 L 119.5 28 C 119.5 18.569245 112.87086 10.746113 104 8.9101562 z " />
  <rect
     style="fill:#e65b5b;fill-opacity:1;stroke-width:3.31662;stroke-linecap:round;stroke-linejoin:round"
     id="rect956"
     width="15.5"
     height="43.999996"
     x="104.00001"
     y="46.000004" />
  <path
     id="rect1736"
     style="fill:#e6b45b;fill-opacity:1;stroke-width:6;stroke-linecap:round;stroke-linejoin:round"
     inkscape:label="rect1736"
     d="M 104 82 L 104 119.08984 C 112.87086 117.25389 119.5 109.43075 119.5 100 L 119.5 82 L 104 82 z " />
  <path
     id="rect4024"
     style="opacity:0.2;fill:#000000;fill-opacity:1;stroke-width:4;stroke-linecap:round;stroke-linejoin:round"
     d="M 103.99999,46.000001 V 47 H 119.5 v -0.999999 z m 0,35.999993 V 83 H 119.5 v -1.000006 z"
     sodipodi:nodetypes="cccccccccc" />
  <path
     d="m 75.569983,81.099652 c -1.79171,0 -3.51623,-0.44792 -5.17357,-1.34377 -1.65733,-0.940657 -2.82195,-2.418825 -3.49384,-4.434503 h -0.067 c -0.4032,1.075028 -1.00793,1.970884 -1.814195,2.68757 -0.80627,0.716688 -1.702125,1.298993 -2.687569,1.746923 -0.940646,0.44794 -1.90369,0.76148 -2.889134,0.94064 -0.985444,0.17914 -1.8813,0.26873 -2.687572,0.26873 -4.30011,0 -7.569985,-1.20941 -9.809629,-3.628223 C 44.70779,74.918225 43.58795,71.670748 43.58795,67.594604 v -5.240766 c 0,-4.120937 1.075028,-7.368419 3.22508,-9.742439 2.194848,-2.418814 5.173573,-3.62822 8.936169,-3.62822 2.508402,0 4.50168,0.380742 5.979844,1.142218 1.478164,0.761482 2.530793,1.679736 3.157893,2.75476 v -3.493844 h 6.315787 v 21.164615 c 0,1.881296 0.38074,3.269879 1.14222,4.165731 0.76148,0.851062 1.85891,1.276594 3.29228,1.276594 1.11982,0 2.10526,-0.201564 2.95633,-0.604696 0.85106,-0.447944 1.56774,-1.14223 2.15005,-2.082866 0.5823,-0.985443 1.03023,-2.239641 1.34378,-3.762595 0.31353,-1.567752 0.47032,-3.471446 0.47032,-5.711088 v -0.739046 c 0,-3.762596 -0.55991,-7.122059 -1.67973,-10.078385 -1.07502,-2.956348 -2.68755,-5.464752 -4.83761,-7.525224 -2.15006,-2.105259 -4.79284,-3.695405 -7.92833,-4.770433 -3.135501,-1.119822 -6.74132,-1.67973 -10.81747,-1.67973 -3.49384,0 -6.696528,0.559908 -9.608061,1.67973 -2.911534,1.11982 -5.419932,2.75476 -7.525196,4.904815 -2.060472,2.105262 -3.673012,4.703246 -4.837628,7.793952 -1.164609,3.090704 -1.746917,6.584545 -1.746917,10.481521 v 1.142222 c 0,4.165738 0.559912,7.86114 1.679733,11.086229 1.16461,3.180293 2.821946,5.845463 4.972004,7.995513 2.150052,2.19485 4.770432,3.85219 7.86114,4.97201 3.135499,1.16461 6.651735,1.74692 10.548709,1.74692 3.359462,0 6.696527,-0.38074 10.011206,-1.14222 3.31466,-0.71668 6.36057,-1.79171 9.13773,-3.22509 l 1.8813,4.70325 c -2.82195,1.52296 -6.00224,2.68757 -9.54087,3.49384 -3.49385,0.85107 -7.256442,1.2766 -11.287796,1.2766 -4.837624,0 -9.160134,-0.71668 -12.967527,-2.15005 -3.80739,-1.43338 -7.032472,-3.49385 -9.67525,-6.18142 -2.642779,-2.68757 -4.680851,-5.93505 -6.114221,-9.742441 -1.388626,-3.80739 -2.082916,-8.062709 -2.082916,-12.765955 v -1.2766 c 0,-4.30011 0.671894,-8.264275 2.015678,-11.892489 1.38858,-3.673014 3.337068,-6.830906 5.845465,-9.473685 2.55319,-2.642778 5.621498,-4.70325 9.204926,-6.181414 3.628218,-1.522954 7.704367,-2.284432 12.228441,-2.284432 4.972006,0 9.3617,0.716684 13.16909,2.150058 3.80739,1.388576 7.01008,3.35946 9.60806,5.912652 2.59799,2.553191 4.56887,5.599105 5.91266,9.137737 1.34378,3.53863 2.01568,7.435608 2.01568,11.690923 v 0.873454 c 0,1.970886 -0.20157,3.986564 -0.6047,6.047034 -0.35835,2.015682 -1.00785,3.874585 -1.9485,5.576715 -0.94065,1.657334 -2.21724,3.023516 -3.82978,4.098543 -1.56775,1.07503 -3.58343,1.61254 -6.04704,1.61254 z M 50.239643,66.51959 c 0,2.553192 0.559908,4.591264 1.67973,6.114218 1.11982,1.478163 2.889138,2.217247 5.307952,2.217247 0.940646,0 1.836502,-0.11198 2.687568,-0.335962 0.895852,-0.223988 1.679726,-0.604714 2.351626,-1.14222 0.71668,-0.537513 1.276594,-1.254203 1.67973,-2.150059 0.403135,-0.895848 0.604701,-2.01567 0.604701,-3.35946 v -5.912648 c 0,-0.89585 -0.13436,-1.746916 -0.403144,-2.553192 -0.223987,-0.851065 -0.627107,-1.590145 -1.209401,-2.217243 -0.58231,-0.671894 -1.343788,-1.187014 -2.284436,-1.545352 -0.940646,-0.403132 -2.082862,-0.604698 -3.426648,-0.604698 -2.194848,0 -3.919376,0.604698 -5.173576,1.814106 -1.2094,1.209406 -1.814102,3.404253 -1.814102,6.584543 z"
     style="font-weight:bold;font-size:4.74057px;line-height:1.25;font-family:'나눔스퀘어';-inkscape-font-specification:'나눔스퀘어 Bold';opacity:0.2;fill:#000000;stroke-width:1.67974"
     id="path1620" />
  <path
     d="m 75.569983,80.099659 c -1.79171,0 -3.51623,-0.447926 -5.17357,-1.343778 -1.65733,-0.940654 -2.82195,-2.418822 -3.49384,-4.434498 h -0.067 c -0.4032,1.075026 -1.00793,1.970882 -1.814195,2.687568 -0.80627,0.716688 -1.702125,1.298992 -2.687569,1.746922 -0.940646,0.447938 -1.90369,0.761486 -2.889134,0.940646 -0.985444,0.17914 -1.8813,0.268726 -2.687572,0.268726 -4.30011,0 -7.569985,-1.20941 -9.809629,-3.628224 C 44.70779,73.918228 43.58795,70.67075 43.58795,66.594606 v -5.240764 c 0,-4.120939 1.075028,-7.368419 3.22508,-9.742439 2.194848,-2.418814 5.173573,-3.628218 8.936169,-3.628218 2.508402,0 4.50168,0.38074 5.979844,1.142216 1.478164,0.761482 2.530793,1.679736 3.157893,2.75476 v -3.493844 h 6.315787 V 69.55093 c 0,1.881296 0.38074,3.26988 1.14222,4.165732 0.76148,0.851061 1.85891,1.276593 3.29228,1.276593 1.11982,0 2.10526,-0.201562 2.95633,-0.604696 0.85106,-0.447943 1.56774,-1.142229 2.15005,-2.082865 0.5823,-0.985444 1.03023,-2.239642 1.34378,-3.762596 0.31353,-1.567752 0.47032,-3.471446 0.47032,-5.711084 v -0.739048 c 0,-3.762595 -0.55991,-7.122059 -1.67973,-10.078385 -1.07502,-2.956348 -2.68755,-5.464752 -4.83761,-7.525223 -2.15006,-2.10526 -4.79284,-3.695406 -7.92833,-4.770434 -3.135501,-1.119822 -6.74132,-1.67973 -10.81747,-1.67973 -3.49384,0 -6.696528,0.559908 -9.608061,1.67973 -2.911534,1.11982 -5.419932,2.75476 -7.525196,4.904816 -2.060472,2.105261 -3.673012,4.703245 -4.837628,7.793951 -1.164609,3.090704 -1.746917,6.584546 -1.746917,10.481521 v 1.14222 c 0,4.165738 0.559912,7.86114 1.679733,11.086229 1.16461,3.18029 2.821946,5.845459 4.972004,7.995519 2.150052,2.19485 4.770432,3.85218 7.86114,4.972 3.135499,1.16462 6.651735,1.74693 10.548709,1.74693 3.359462,0 6.696527,-0.38075 10.011206,-1.14222 3.31466,-0.71669 6.36057,-1.79172 9.13773,-3.22509 l 1.8813,4.70324 c -2.82195,1.52296 -6.00224,2.68757 -9.54087,3.49385 -3.49385,0.85106 -7.256442,1.27659 -11.287796,1.27659 -4.837624,0 -9.160134,-0.71668 -12.967527,-2.15005 C 42.065,91.36505 38.839918,89.30458 36.19714,86.61701 33.554361,83.92944 31.516289,80.68197 30.082919,76.874573 28.694293,73.067184 28.000003,68.811864 28.000003,64.108618 V 62.83202 c 0,-4.300109 0.671894,-8.264275 2.015678,-11.892489 1.38858,-3.673014 3.337068,-6.830905 5.845465,-9.473685 2.55319,-2.642778 5.621498,-4.70325 9.204926,-6.181414 C 48.69429,33.761478 52.770439,33 57.294513,33 c 4.972006,0 9.3617,0.716686 13.16909,2.150058 3.80739,1.388576 7.01008,3.35946 9.60806,5.912652 2.59799,2.553192 4.56887,5.599105 5.91266,9.137737 1.34378,3.53863 2.01568,7.435608 2.01568,11.690923 v 0.873454 c 0,1.970884 -0.20157,3.986562 -0.6047,6.047032 -0.35835,2.015682 -1.00785,3.874588 -1.9485,5.576715 -0.94065,1.657334 -2.21724,3.023516 -3.82978,4.098544 -1.56775,1.07503 -3.58343,1.612544 -6.04704,1.612544 z M 50.239643,65.519594 c 0,2.55319 0.559908,4.591262 1.67973,6.114216 1.11982,1.478164 2.889138,2.217248 5.307952,2.217248 0.940646,0 1.836502,-0.11198 2.687568,-0.335962 0.895852,-0.223988 1.679726,-0.604714 2.351626,-1.14222 0.71668,-0.537514 1.276594,-1.254202 1.67973,-2.15006 0.403135,-0.895848 0.604701,-2.01567 0.604701,-3.35946 V 60.95071 c 0,-0.89585 -0.13436,-1.746915 -0.403144,-2.553191 -0.223987,-0.851066 -0.627107,-1.590146 -1.209401,-2.217244 -0.58231,-0.671894 -1.343788,-1.187014 -2.284436,-1.545352 -0.940646,-0.403132 -2.082862,-0.6047 -3.426648,-0.6047 -2.194848,0 -3.919376,0.6047 -5.173574,1.814108 -1.209402,1.209406 -1.814104,3.404254 -1.814104,6.584543 z"
     style="font-weight:bold;font-size:4.74057px;line-height:1.25;font-family:'나눔스퀘어';-inkscape-font-specification:'나눔스퀘어 Bold';fill:#ffffff;stroke-width:1.67974"
     id="path6805"
     sodipodi:nodetypes="scccscsscsscsscccscscccsscccsscssscccsccccssscsscccscsssscccsscsccssscccscss" />
  <path
     id="rect441"
     style="opacity:0.3;fill:#ffffff"
     d="M 28,9 C 17.474011,9 9,17.474011 9,28 v 1 C 9,18.474011 17.474011,10 28,10 h 72 c 10.52599,0 19,8.474011 19,19 V 28 C 119,17.474011 110.52599,9 100,9 Z" />
  <path
     id="rect443"
     style="opacity:0.3;fill:#ffffff"
     d="m 9,99 v 1 c 0,10.52599 8.474011,19 19,19 h 72 c 10.52599,0 19,-8.47401 19,-19 v -1 c 0,10.52599 -8.47401,19 -19,19 H 28 C 17.474011,118 9,109.52599 9,99 Z" />
  <path
     id="rect899"
     style="fill:#000000;stroke:none;stroke-width:2;opacity:0.5"
     d="M 28,8 C 16.920022,8 8,16.920022 8,28 v 72 c 0,11.07998 8.920022,20 20,20 h 72 c 11.07998,0 20,-8.92002 20,-20 V 28 C 120,16.920022 111.07998,8 100,8 Z m 0,1 h 72 c 10.52599,0 19,8.474011 19,19 v 72 c 0,10.52599 -8.47401,19 -19,19 H 28 C 17.474011,119 9,110.52599 9,100 V 28 C 9,17.474011 17.474011,9 28,9 Z" />
</svg>
