<?xml version="1.0" encoding="UTF-8" standalone="no"?>
<!-- Created with Inkscape (http://www.inkscape.org/) -->

<svg
   width="128"
   height="128"
   viewBox="0 0 128 128.00001"
   version="1.1"
   id="svg5"
   sodipodi:docname="org.kde.kalendar.svg"
   inkscape:version="1.3.2 (091e20ef0f, 2023-11-25, custom)"
   xmlns:inkscape="http://www.inkscape.org/namespaces/inkscape"
   xmlns:sodipodi="http://sodipodi.sourceforge.net/DTD/sodipodi-0.dtd"
   xmlns:xlink="http://www.w3.org/1999/xlink"
   xmlns="http://www.w3.org/2000/svg"
   xmlns:svg="http://www.w3.org/2000/svg">
  <sodipodi:namedview
     id="namedview7"
     pagecolor="#ffffff"
     bordercolor="#666666"
     borderopacity="1.0"
     inkscape:showpageshadow="2"
     inkscape:pageopacity="0.0"
     inkscape:pagecheckerboard="0"
     inkscape:deskcolor="#d1d1d1"
     inkscape:document-units="px"
     showgrid="false"
     inkscape:zoom="6.453125"
     inkscape:cx="64"
     inkscape:cy="64"
     inkscape:window-width="1920"
     inkscape:window-height="1011"
     inkscape:window-x="0"
     inkscape:window-y="0"
     inkscape:window-maximized="1"
     inkscape:current-layer="svg5" />
  <defs
     id="defs2">
    <linearGradient
       inkscape:collect="always"
       xlink:href="#linearGradient7002"
       id="linearGradient3525"
       x1="49.837837"
       y1="59.747749"
       x2="14.162163"
       y2="4.2522526"
       gradientUnits="userSpaceOnUse"
       gradientTransform="matrix(2.0181818,0,0,2.0181818,-0.581819,-0.581819)" />
    <linearGradient
       inkscape:collect="always"
       id="linearGradient7002">
      <stop
         style="stop-color:#0290e9;stop-opacity:1;"
         offset="0"
         id="stop6998" />
      <stop
         style="stop-color:#44d9ff;stop-opacity:1;"
         offset="1"
         id="stop7000" />
    </linearGradient>
  </defs>
  <rect
     style="fill:url(#linearGradient3525);fill-opacity:1;stroke:none;stroke-width:2.01818"
     id="rect184"
     width="111"
     height="111"
     x="8.5"
     y="8.5"
     ry="19.5" />
  <path
     id="rect294"
     style="opacity:0.8;fill:#115267;fill-opacity:1;stroke-width:2.01818;stroke-linecap:round;stroke-linejoin:round"
     d="M 28 8.5 C 17.197011 8.5 8.5 17.197011 8.5 28 L 8.5 82.814453 L 19.773438 67.511719 L 51.279297 119.5 L 67.425781 119.5 L 28.630859 55.490234 L 63.255859 8.5 L 28 8.5 z " />
  <path
     d="m 62,45.000002 c -2.215998,0 -4,1.784002 -4,4 v 12 c 0,2.215998 1.784002,4 4,4 h 12 c 2.215998,0 4,-1.784002 4,-4 V 49 c 0,-2.215998 -1.784002,-4 -4,-4 z m 26,0 c -2.215998,0 -4,1.784002 -4,4 v 12 c 0,2.215998 1.784002,4 4,4 h 12 c 2.216,0 4,-1.784002 4,-4 V 49 c 0,-2.215998 -1.784,-4 -4,-4 z m -26,26 c -2.215998,0 -4,1.784002 -4,4 v 12 c 0,2.216 1.784002,4 4,4 h 12 c 2.215998,0 4,-1.784 4,-4 v -12 c 0,-2.215996 -1.784002,-4 -4,-4 z m 26,0 c -2.215998,0 -4,1.784002 -4,4 v 12 c 0,2.216 1.784002,4 4,4 h 12 c 2.216,0 4,-1.784 4,-4 v -12 c 0,-2.215996 -1.784,-4 -4,-4 z"
     style="opacity:0.2;fill:#000000;fill-opacity:1;stroke-width:2;stroke-linecap:round;stroke-linejoin:round"
     id="path28288" />
  <path
     id="rect8457"
     style="fill:#ffffff;fill-opacity:1;stroke-width:2;stroke-linecap:round;stroke-linejoin:round"
     d="m 62,44 c -2.215998,0 -4,1.784002 -4,4 v 12 c 0,2.215998 1.784002,4 4,4 h 12 c 2.215998,0 4,-1.784002 4,-4 V 48 c 0,-2.215998 -1.784002,-4 -4,-4 z m 26,0 c -2.215998,0 -4,1.784002 -4,4 v 12 c 0,2.215998 1.784002,4 4,4 h 12 c 2.216,0 4,-1.784002 4,-4 V 48 c 0,-2.215998 -1.784,-4 -4,-4 z M 62,70 c -2.215998,0 -4,1.784002 -4,4 v 12 c 0,2.215998 1.784002,4 4,4 h 12 c 2.215998,0 4,-1.784002 4,-4 V 74 c 0,-2.215998 -1.784002,-4 -4,-4 z m 26,0 c -2.215998,0 -4,1.784002 -4,4 v 12 c 0,2.215998 1.784002,4 4,4 h 12 c 2.216,0 4,-1.784002 4,-4 V 74 c 0,-2.215998 -1.784,-4 -4,-4 z"
     sodipodi:nodetypes="ssssssssssssssssssssssssssssssssssss" />
  <rect
     style="opacity:0.4;fill:#3daee9;fill-opacity:1;stroke-width:3.2;stroke-linecap:round;stroke-linejoin:round"
     id="rect23005"
     width="16"
     height="16"
     x="60"
     y="72"
     ry="2" />
  <path
     id="rect23785"
     style="fill:#3daee9;fill-opacity:1;stroke-width:2;stroke-linecap:round;stroke-linejoin:round"
     d="M 75.37794,73.636 65.713878,83.3 61.170062,78.759 59.756,80.173 64.584972,85 h 0.0078 l 1.125,1.128 11.074218,-11.07 z"
     sodipodi:nodetypes="ccccccccc" />
  <path
     id="rect17141"
     style="fill:#00789d;fill-opacity:1;stroke-width:2;stroke-linecap:round;stroke-linejoin:round"
     d="m 60,30 c -1.107998,0 -2,0.892002 -2,2 v 4 c 0,1.107998 0.892002,2 2,2 h 16 c 1.107998,0 2,-0.892002 2,-2 v -4 c 0,-1.107998 -0.892002,-2 -2,-2 z m 26,0 c -1.107998,0 -2,0.892002 -2,2 v 4 c 0,1.107998 0.892002,2 2,2 h 16 c 1.108,0 2,-0.892002 2,-2 v -4 c 0,-1.107998 -0.892,-2 -2,-2 z" />
  <path
     id="rect441"
     style="opacity:0.3;fill:#ffffff"
     d="M 28,9 C 17.474011,9 9,17.474011 9,28 v 1 C 9,18.474011 17.474011,10 28,10 h 72 c 10.52599,0 19,8.474011 19,19 V 28 C 119,17.474011 110.52599,9 100,9 Z" />
  <path
     id="rect443"
     style="opacity:0.3;fill:#ffffff"
     d="m 9,99 v 1 c 0,10.52599 8.474011,19 19,19 h 72 c 10.52599,0 19,-8.47401 19,-19 v -1 c 0,10.52599 -8.47401,19 -19,19 H 28 C 17.474011,118 9,109.52599 9,99 Z" />
  <path
     id="rect899"
     style="fill:#000000;stroke:none;stroke-width:2;opacity:0.5"
     d="M 28,8 C 16.920022,8 8,16.920022 8,28 v 72 c 0,11.07998 8.920022,20 20,20 h 72 c 11.07998,0 20,-8.92002 20,-20 V 28 C 120,16.920022 111.07998,8 100,8 Z m 0,1 h 72 c 10.52599,0 19,8.474011 19,19 v 72 c 0,10.52599 -8.47401,19 -19,19 H 28 C 17.474011,119 9,110.52599 9,100 V 28 C 9,17.474011 17.474011,9 28,9 Z" />
</svg>
