<?xml version="1.0" encoding="UTF-8" standalone="no"?>
<!-- Created with Inkscape (http://www.inkscape.org/) -->

<svg
   width="128"
   height="128"
   viewBox="0 0 128 128.00001"
   version="1.1"
   id="svg5"
   sodipodi:docname="preferences-desktop.svg"
   inkscape:version="1.2.1 (9c6d41e410, 2022-07-14)"
   xmlns:inkscape="http://www.inkscape.org/namespaces/inkscape"
   xmlns:sodipodi="http://sodipodi.sourceforge.net/DTD/sodipodi-0.dtd"
   xmlns:xlink="http://www.w3.org/1999/xlink"
   xmlns="http://www.w3.org/2000/svg"
   xmlns:svg="http://www.w3.org/2000/svg">
  <sodipodi:namedview
     id="namedview7"
     pagecolor="#ffffff"
     bordercolor="#666666"
     borderopacity="1.0"
     inkscape:showpageshadow="2"
     inkscape:pageopacity="0.0"
     inkscape:pagecheckerboard="0"
     inkscape:deskcolor="#d1d1d1"
     inkscape:document-units="px"
     showgrid="false"
     inkscape:zoom="6.4140625"
     inkscape:cx="64.155907"
     inkscape:cy="64.155907"
     inkscape:window-width="1920"
     inkscape:window-height="1007"
     inkscape:window-x="0"
     inkscape:window-y="0"
     inkscape:window-maximized="1"
     inkscape:current-layer="svg5" />
  <defs
     id="defs2">
    <linearGradient
       inkscape:collect="always"
       xlink:href="#linearGradient22024"
       id="linearGradient3525"
       x1="32"
       y1="59.747749"
       x2="32"
       y2="4.2522521"
       gradientUnits="userSpaceOnUse"
       gradientTransform="matrix(2.0181818,0,0,2.0181818,-0.58181789,-0.58181778)" />
    <linearGradient
       inkscape:collect="always"
       id="linearGradient22024">
      <stop
         style="stop-color:#dedede;stop-opacity:1;"
         offset="0"
         id="stop22020" />
      <stop
         style="stop-color:#f2f2f2;stop-opacity:1;"
         offset="1"
         id="stop22022" />
    </linearGradient>
    <linearGradient
       inkscape:collect="always"
       xlink:href="#linearGradient21236"
       id="linearGradient2973"
       x1="51"
       y1="28"
       x2="51"
       y2="14"
       gradientUnits="userSpaceOnUse"
       gradientTransform="matrix(2,0,0,2,2e-6,0)" />
    <linearGradient
       inkscape:collect="always"
       xlink:href="#linearGradient2059"
       id="linearGradient2063"
       x1="32"
       y1="50"
       x2="32"
       y2="36"
       gradientUnits="userSpaceOnUse"
       gradientTransform="matrix(2,0,0,2,2e-6,0)" />
    <linearGradient
       inkscape:collect="always"
       id="linearGradient2059">
      <stop
         style="stop-color:#999999;stop-opacity:1"
         offset="0"
         id="stop2055" />
      <stop
         style="stop-color:#b3b3b3;stop-opacity:1"
         offset="1"
         id="stop2057" />
    </linearGradient>
    <linearGradient
       inkscape:collect="always"
       xlink:href="#linearGradient22024"
       id="linearGradient3761"
       x1="50"
       y1="27"
       x2="50"
       y2="15"
       gradientUnits="userSpaceOnUse"
       gradientTransform="matrix(1.9999999,0,0,1.9999999,1.7e-6,6e-7)" />
    <linearGradient
       inkscape:collect="always"
       xlink:href="#linearGradient22024"
       id="linearGradient3771"
       x1="50"
       y1="27"
       x2="50"
       y2="15"
       gradientUnits="userSpaceOnUse"
       gradientTransform="matrix(1.9999999,0,0,1.9999999,-31.999997,43.999998)" />
    <linearGradient
       inkscape:collect="always"
       id="linearGradient21236">
      <stop
         style="stop-color:#3689e6;stop-opacity:1;"
         offset="0"
         id="stop21232" />
      <stop
         style="stop-color:#5dcffc;stop-opacity:1;"
         offset="1"
         id="stop21234" />
    </linearGradient>
  </defs>
  <rect
     style="fill:url(#linearGradient3525);fill-opacity:1;stroke:none;stroke-width:2.01818"
     id="rect184"
     width="111"
     height="111"
     x="8.5"
     y="8.5"
     ry="19.5" />
  <path
     id="rect1301"
     style="opacity:0.2;fill:#ffffff;stroke-width:6;stroke-linecap:round;stroke-linejoin:round"
     d="m 40.000001,29 c -7.755992,0 -14,6.244008 -14,14 0,7.755992 6.244008,14 14,14 h 48 C 95.755993,57 102,50.755992 102,43 102,35.244008 95.755993,29 88.000001,29 Z m 0,44 c -7.755992,0 -14,6.244008 -14,14 0,7.755992 6.244008,14 14,14 h 48 C 95.755993,101 102,94.755992 102,87 102,79.244008 95.755993,73 88.000001,73 Z" />
  <rect
     style="fill:url(#linearGradient2973);fill-opacity:1.0;stroke-width:6;stroke-linecap:round;stroke-linejoin:round"
     id="rect743"
     width="76"
     height="28"
     x="26"
     y="28"
     ry="14" />
  <rect
     style="fill:url(#linearGradient2063);fill-opacity:1;stroke-width:6;stroke-linecap:round;stroke-linejoin:round"
     id="rect745"
     width="76"
     height="28"
     x="26"
     y="72"
     ry="14" />
  <path
     id="rect3773"
     style="opacity:0.2;fill:#000000;fill-opacity:1;stroke-width:6;stroke-linecap:round;stroke-linejoin:round"
     d="m 72.000001,31 c -6.647994,0 -12,5.352006 -12,12 0,6.647993 5.352006,11.999999 12,11.999999 H 88 c 6.647994,0 12,-5.352006 12,-11.999999 0,-6.647994 -5.352006,-12 -12,-12 z M 40.000002,74.999999 c -6.647994,0 -12,5.352006 -12,11.999999 0,6.647994 5.352006,12 12,12 h 15.999999 c 6.647994,0 12,-5.352006 12,-12 0,-6.647993 -5.352006,-11.999999 -12,-11.999999 z" />
  <rect
     style="fill:url(#linearGradient3761);fill-opacity:1;stroke-width:6;stroke-linecap:round;stroke-linejoin:round"
     id="rect3027"
     width="40"
     height="24"
     x="60"
     y="30"
     ry="12" />
  <rect
     style="fill:url(#linearGradient3771);fill-opacity:1;stroke-width:6;stroke-linecap:round;stroke-linejoin:round"
     id="rect3763"
     width="40"
     height="24"
     x="28"
     y="74"
     ry="12" />
  <path
     id="rect441"
     style="opacity:0.3;fill:#ffffff"
     d="M 28,9 C 17.474011,9 9,17.474011 9,28 v 1 C 9,18.474011 17.474011,10 28,10 h 72 c 10.52599,0 19,8.474011 19,19 V 28 C 119,17.474011 110.52599,9 100,9 Z" />
  <path
     id="rect443"
     style="opacity:0.3;fill:#ffffff"
     d="m 9,99 v 1 c 0,10.52599 8.474011,19 19,19 h 72 c 10.52599,0 19,-8.47401 19,-19 v -1 c 0,10.52599 -8.47401,19 -19,19 H 28 C 17.474011,118 9,109.52599 9,99 Z" />
  <path
     id="rect899"
     style="fill:#000000;stroke:none;stroke-width:2;opacity:0.5"
     d="M 28,8 C 16.920022,8 8,16.920022 8,28 v 72 c 0,11.07998 8.920022,20 20,20 h 72 c 11.07998,0 20,-8.92002 20,-20 V 28 C 120,16.920022 111.07998,8 100,8 Z m 0,1 h 72 c 10.52599,0 19,8.474011 19,19 v 72 c 0,10.52599 -8.47401,19 -19,19 H 28 C 17.474011,119 9,110.52599 9,100 V 28 C 9,17.474011 17.474011,9 28,9 Z" />
</svg>
