<?xml version="1.0" encoding="UTF-8" standalone="no"?>
<!-- Created with Inkscape (http://www.inkscape.org/) -->

<svg
   width="128"
   height="128"
   viewBox="0 0 128 128.00001"
   version="1.1"
   id="svg5"
   sodipodi:docname="preferences-desktop-emoticons.svg"
   inkscape:version="1.2.1 (9c6d41e410, 2022-07-14)"
   xmlns:inkscape="http://www.inkscape.org/namespaces/inkscape"
   xmlns:sodipodi="http://sodipodi.sourceforge.net/DTD/sodipodi-0.dtd"
   xmlns:xlink="http://www.w3.org/1999/xlink"
   xmlns="http://www.w3.org/2000/svg"
   xmlns:svg="http://www.w3.org/2000/svg">
  <sodipodi:namedview
     id="namedview7"
     pagecolor="#ffffff"
     bordercolor="#666666"
     borderopacity="1.0"
     inkscape:showpageshadow="2"
     inkscape:pageopacity="0.0"
     inkscape:pagecheckerboard="0"
     inkscape:deskcolor="#d1d1d1"
     inkscape:document-units="px"
     showgrid="false"
     inkscape:zoom="6.171875"
     inkscape:cx="64.081013"
     inkscape:cy="64.081013"
     inkscape:window-width="1920"
     inkscape:window-height="1007"
     inkscape:window-x="0"
     inkscape:window-y="0"
     inkscape:window-maximized="1"
     inkscape:current-layer="svg5" />
  <defs
     id="defs2">
    <linearGradient
       inkscape:collect="always"
       xlink:href="#linearGradient986"
       id="linearGradient3525"
       x1="32"
       y1="59.747749"
       x2="32"
       y2="4.2522521"
       gradientUnits="userSpaceOnUse"
       gradientTransform="matrix(2.0181818,0,0,2.0181818,-0.58181789,-0.58181778)" />
    <linearGradient
       inkscape:collect="always"
       id="linearGradient986">
      <stop
         style="stop-color:#ffa12a;stop-opacity:1;"
         offset="0"
         id="stop982" />
      <stop
         style="stop-color:#ffdc75;stop-opacity:1;"
         offset="1"
         id="stop984" />
    </linearGradient>
  </defs>
  <rect
     style="fill:url(#linearGradient3525);fill-opacity:1;stroke:none;stroke-width:2.01818"
     id="rect184"
     width="111"
     height="111"
     x="8.5"
     y="8.5"
     ry="19.5" />
  <path
     d="M 64,27 C 43.01318,27 26,44.013178 26,65.000002 26,85.986822 43.01318,103 64,103 84.98682,103 102,85.986822 102,65.000002 102,44.013178 84.98682,27 64,27 Z M 50,46.999998 c 3.313704,0 6,2.686296 6,6 0,3.313704 -2.686296,6 -6,6 -3.313704,0 -6,-2.686296 -6,-6 0,-3.313704 2.686296,-6 6,-6 z m 28,0 c 3.313704,0 6,2.686296 6,6 0,3.313704 -2.686296,6 -6,6 -3.313704,0 -6,-2.686296 -6,-6 0,-3.313704 2.686296,-6 6,-6 z M 48,77.000002 h 2.253906 c 3.501864,4.231046 8.502132,6.65378 13.753906,6.664062 5.249052,-0.0126 10.246048,-2.435204 13.746094,-6.664062 H 80 c -3.29948,6.178058 -9.393216,9.9886 -15.992188,10 -6.604554,-0.0054 -12.705536,-3.816724 -16.007812,-10 z"
     style="opacity:0.2;fill:#000000;stroke-width:5.7;stroke-linecap:round;stroke-linejoin:round"
     id="path2264" />
  <path
     id="path1987"
     style="fill:#ffffff;stroke-width:5.7;stroke-linecap:round;stroke-linejoin:round"
     d="m 64,26 c -20.98682,0 -38,17.01318 -38,38 0,20.98682 17.01318,38 38,38 20.98682,0 38,-17.01318 38,-38 C 102,43.01318 84.98682,26 64,26 Z M 50,46 c 3.313704,0 6,2.686296 6,6 0,3.313704 -2.686296,6 -6,6 -3.313704,0 -6,-2.686296 -6,-6 0,-3.313704 2.686296,-6 6,-6 z m 28,0 c 3.313704,0 6,2.686296 6,6 0,3.313704 -2.686296,6 -6,6 -3.313704,0 -6,-2.686296 -6,-6 0,-3.313704 2.686296,-6 6,-6 z M 48,76 h 2.253906 c 3.501864,4.231046 8.502132,6.653782 13.753906,6.664062 C 69.256864,82.651462 74.25386,80.228858 77.753906,76 H 80 C 76.70052,82.178058 70.606784,85.9886 64.007812,86 57.403258,85.9946 51.302276,82.183276 48,76 Z"
     sodipodi:nodetypes="sssssssssssssssccccccc" />
  <path
     id="rect441"
     style="opacity:0.3;fill:#ffffff"
     d="M 28,9 C 17.474011,9 9,17.474011 9,28 v 1 C 9,18.474011 17.474011,10 28,10 h 72 c 10.52599,0 19,8.474011 19,19 V 28 C 119,17.474011 110.52599,9 100,9 Z" />
  <path
     id="rect443"
     style="opacity:0.3;fill:#ffffff"
     d="m 9,99 v 1 c 0,10.52599 8.474011,19 19,19 h 72 c 10.52599,0 19,-8.47401 19,-19 v -1 c 0,10.52599 -8.47401,19 -19,19 H 28 C 17.474011,118 9,109.52599 9,99 Z" />
  <path
     id="rect899"
     style="fill:#000000;stroke:none;stroke-width:2;opacity:0.5"
     d="M 28,8 C 16.920022,8 8,16.920022 8,28 v 72 c 0,11.07998 8.920022,20 20,20 h 72 c 11.07998,0 20,-8.92002 20,-20 V 28 C 120,16.920022 111.07998,8 100,8 Z m 0,1 h 72 c 10.52599,0 19,8.474011 19,19 v 72 c 0,10.52599 -8.47401,19 -19,19 H 28 C 17.474011,119 9,110.52599 9,100 V 28 C 9,17.474011 17.474011,9 28,9 Z" />
</svg>
