<?xml version="1.0" encoding="UTF-8" standalone="no"?>
<!-- Created with Inkscape (http://www.inkscape.org/) -->

<svg
   width="128"
   height="128"
   viewBox="0 0 128 128.00001"
   version="1.1"
   id="svg5"
   sodipodi:docname="preferences-desktop-notification-bell.svg"
   inkscape:version="1.2.1 (9c6d41e410, 2022-07-14)"
   xmlns:inkscape="http://www.inkscape.org/namespaces/inkscape"
   xmlns:sodipodi="http://sodipodi.sourceforge.net/DTD/sodipodi-0.dtd"
   xmlns:xlink="http://www.w3.org/1999/xlink"
   xmlns="http://www.w3.org/2000/svg"
   xmlns:svg="http://www.w3.org/2000/svg">
  <sodipodi:namedview
     id="namedview7"
     pagecolor="#ffffff"
     bordercolor="#666666"
     borderopacity="1.0"
     inkscape:showpageshadow="2"
     inkscape:pageopacity="0.0"
     inkscape:pagecheckerboard="0"
     inkscape:deskcolor="#d1d1d1"
     inkscape:document-units="px"
     showgrid="false"
     inkscape:zoom="4.4967572"
     inkscape:cx="31.578312"
     inkscape:cy="66.603552"
     inkscape:window-width="1920"
     inkscape:window-height="1009"
     inkscape:window-x="0"
     inkscape:window-y="0"
     inkscape:window-maximized="1"
     inkscape:current-layer="svg5" />
  <defs
     id="defs2">
    <linearGradient
       inkscape:collect="always"
       xlink:href="#linearGradient3551"
       id="linearGradient3525"
       x1="96"
       y1="116"
       x2="24.000002"
       y2="3.9999969"
       gradientUnits="userSpaceOnUse"
       gradientTransform="translate(3.9999978,4.0000032)" />
    <linearGradient
       inkscape:collect="always"
       id="linearGradient3551">
      <stop
         style="stop-color:#ffa028;stop-opacity:1;"
         offset="0"
         id="stop3547" />
      <stop
         style="stop-color:#ffe183;stop-opacity:1;"
         offset="1"
         id="stop3549" />
    </linearGradient>
  </defs>
  <rect
     style="fill:url(#linearGradient3525);fill-opacity:1.0;stroke:none"
     id="rect184"
     width="111"
     height="111"
     x="8.5"
     y="8.5"
     ry="19.5" />
  <path
     d="m 64.000315,29 c -2.77008,0 -4.999959,2.230096 -4.999999,4.999991 -0.0012,0.05524 -9.6e-4,0.10252 -2.4e-4,0.156 -8.639959,2.240608 -14.999998,9.844006 -14.999998,19.843981 0,10.026206 0.004,30.000035 -8.906278,30.000039 -0.59356,8e-6 -1.09364,0.557683 -1.0938,1.249971 v 3.750012 l 59.99999,-2e-5 v -3.749996 c 0,-0.692448 -0.50272,-1.249039 -1.09376,-1.250007 -8.944519,2.4e-5 -8.906239,-19.975549 -8.906239,-29.999947 0,-10.000019 -6.359158,-17.603729 -14.999997,-19.843769 0.0017,-0.05384 8.4e-4,-0.103 2.8e-4,-0.156 0,-2.770003 -2.2302,-4.999919 -5.000039,-4.999975 z M 55.406596,94.000009 C 57.136756,96.984476 60.302315,99 64.000315,99 c 3.698039,4e-6 6.863559,-2.015516 8.593758,-5.000023 z"
     style="color:#000000;display:inline;overflow:visible;visibility:visible;opacity:0.2;fill:#000000;fill-opacity:1;fill-rule:nonzero;stroke:none;stroke-width:16;marker:none;enable-background:accumulate"
     id="path6816" />
  <path
     d="m 64.000317,28 c -2.77008,0 -4.99996,2.2301 -5,4.999991 -0.0012,0.05524 -9.6e-4,0.10252 -2.4e-4,0.156 -8.639959,2.240612 -14.999998,9.844015 -14.999998,19.84399 0,10.026203 0.004,30.000029 -8.906279,30.000033 -0.59356,8e-6 -1.09364,0.557684 -1.0938,1.249972 v 3.750011 l 59.999993,-2e-5 v -3.749995 c 0,-0.692448 -0.50272,-1.24904 -1.09376,-1.250008 -8.944519,2.4e-5 -8.906239,-19.97555 -8.906239,-29.999945 0,-10.000023 -6.359159,-17.60373 -14.999998,-19.843774 0.0017,-0.05384 8.4e-4,-0.103 2.8e-4,-0.156 0,-2.770003 -2.2302,-4.999919 -5.000039,-4.999975 z M 55.406598,93.000009 C 57.136757,95.984476 60.302317,98 64.000317,98 c 3.698039,8e-6 6.863559,-2.015516 8.593759,-5.000019 z"
     style="color:#000000;display:inline;overflow:visible;visibility:visible;fill:#ffffff;fill-opacity:1;fill-rule:nonzero;stroke:none;stroke-width:16;marker:none;enable-background:accumulate"
     id="path6057"
     sodipodi:nodetypes="cccsscccscscccccscc" />
  <path
     id="rect441"
     style="opacity:0.3;fill:#ffffff"
     d="M 28,9 C 17.474011,9 9,17.474011 9,28 v 1 C 9,18.474011 17.474011,10 28,10 h 72 c 10.52599,0 19,8.474011 19,19 V 28 C 119,17.474011 110.52599,9 100,9 Z" />
  <path
     id="rect443"
     style="opacity:0.3;fill:#ffffff"
     d="m 9,99 v 1 c 0,10.52599 8.474011,19 19,19 h 72 c 10.52599,0 19,-8.47401 19,-19 v -1 c 0,10.52599 -8.47401,19 -19,19 H 28 C 17.474011,118 9,109.52599 9,99 Z" />
  <path
     id="rect899"
     style="fill:#000000;stroke:none;stroke-width:2;opacity:0.5"
     d="M 28,8 C 16.920022,8 8,16.920022 8,28 v 72 c 0,11.07998 8.920022,20 20,20 h 72 c 11.07998,0 20,-8.92002 20,-20 V 28 C 120,16.920022 111.07998,8 100,8 Z m 0,1 h 72 c 10.52599,0 19,8.474011 19,19 v 72 c 0,10.52599 -8.47401,19 -19,19 H 28 C 17.474011,119 9,110.52599 9,100 V 28 C 9,17.474011 17.474011,9 28,9 Z" />
</svg>
