<?xml version="1.0" encoding="UTF-8" standalone="no"?>
<!-- Created with Inkscape (http://www.inkscape.org/) -->

<svg
   width="128"
   height="128"
   viewBox="0 0 128 128.00001"
   version="1.1"
   id="svg5"
   sodipodi:docname="preferences-desktop-peripherals.svg"
   inkscape:version="1.2.1 (9c6d41e410, 2022-07-14)"
   xmlns:inkscape="http://www.inkscape.org/namespaces/inkscape"
   xmlns:sodipodi="http://sodipodi.sourceforge.net/DTD/sodipodi-0.dtd"
   xmlns:xlink="http://www.w3.org/1999/xlink"
   xmlns="http://www.w3.org/2000/svg"
   xmlns:svg="http://www.w3.org/2000/svg">
  <sodipodi:namedview
     id="namedview7"
     pagecolor="#ffffff"
     bordercolor="#666666"
     borderopacity="1.0"
     inkscape:showpageshadow="2"
     inkscape:pageopacity="0.0"
     inkscape:pagecheckerboard="0"
     inkscape:deskcolor="#d1d1d1"
     inkscape:document-units="px"
     showgrid="false"
     inkscape:zoom="4.4967572"
     inkscape:cx="31.689503"
     inkscape:cy="66.603552"
     inkscape:window-width="1920"
     inkscape:window-height="1007"
     inkscape:window-x="0"
     inkscape:window-y="0"
     inkscape:window-maximized="1"
     inkscape:current-layer="svg5" />
  <defs
     id="defs2">
    <linearGradient
       inkscape:collect="always"
       xlink:href="#linearGradient3585"
       id="linearGradient3525"
       x1="96"
       y1="116"
       x2="24.000002"
       y2="3.9999969"
       gradientUnits="userSpaceOnUse"
       gradientTransform="translate(3.9999978,4.0000032)" />
    <linearGradient
       inkscape:collect="always"
       id="linearGradient3585">
      <stop
         style="stop-color:#adb2b9;stop-opacity:1;"
         offset="0"
         id="stop3581" />
      <stop
         style="stop-color:#e6e6e6;stop-opacity:1"
         offset="1"
         id="stop3583" />
    </linearGradient>
  </defs>
  <rect
     style="fill:url(#linearGradient3525);fill-opacity:1.0;stroke:none"
     id="rect184"
     width="111"
     height="111"
     x="8.5"
     y="8.5"
     ry="19.5" />
  <path
     id="rect1083"
     style="opacity:0.2;fill:#000000;fill-opacity:1;stroke-width:8;stroke-linecap:round;stroke-linejoin:round"
     d="m 60.000002,25 c -13.295985,0 -24,10.704011 -24,23.999996 V 81 c 0,13.295985 10.704015,24 24,24 h 8 C 81.295987,105 91.999998,94.295985 91.999998,81 V 48.999996 C 91.999998,35.704011 81.295987,25 68.000002,25 Z m 4,7.999999 c 2.216,0 4,1.784 4,4.000002 v 15.999995 c 0,2.215996 -1.784,4.000004 -4,4.000004 -2.216,0 -4,-1.784008 -4,-4.000004 V 37.000001 c 0,-2.216002 1.784,-4.000002 4,-4.000002 z" />
  <path
     id="rect925"
     style="fill:#666666;fill-opacity:1;stroke-width:8;stroke-linecap:round;stroke-linejoin:round"
     d="m 60.000002,24 c -13.295985,0 -24,10.704011 -24,23.999996 V 80 c 0,13.295983 10.704015,24 24,24 h 8 C 81.295987,104 91.999998,93.295983 91.999998,80 V 47.999996 C 91.999998,34.704011 81.295987,24 68.000002,24 Z m 4,7.999999 c 2.216,0 4,1.784 4,4 v 15.999997 c 0,2.216 -1.784,4 -4,4 -2.216,0 -4,-1.784 -4,-4 V 35.999999 c 0,-2.216 1.784,-4 4,-4 z" />
  <path
     id="rect441"
     style="opacity:0.3;fill:#ffffff"
     d="M 28,9 C 17.474011,9 9,17.474011 9,28 v 1 C 9,18.474011 17.474011,10 28,10 h 72 c 10.52599,0 19,8.474011 19,19 V 28 C 119,17.474011 110.52599,9 100,9 Z" />
  <path
     id="rect443"
     style="opacity:0.3;fill:#ffffff"
     d="m 9,99 v 1 c 0,10.52599 8.474011,19 19,19 h 72 c 10.52599,0 19,-8.47401 19,-19 v -1 c 0,10.52599 -8.47401,19 -19,19 H 28 C 17.474011,118 9,109.52599 9,99 Z" />
  <path
     id="rect899"
     style="fill:#000000;stroke:none;stroke-width:2;opacity:0.5"
     d="M 28,8 C 16.920022,8 8,16.920022 8,28 v 72 c 0,11.07998 8.920022,20 20,20 h 72 c 11.07998,0 20,-8.92002 20,-20 V 28 C 120,16.920022 111.07998,8 100,8 Z m 0,1 h 72 c 10.52599,0 19,8.474011 19,19 v 72 c 0,10.52599 -8.47401,19 -19,19 H 28 C 17.474011,119 9,110.52599 9,100 V 28 C 9,17.474011 17.474011,9 28,9 Z" />
</svg>
