<?xml version="1.0" encoding="UTF-8" standalone="no"?>
<!-- Created with Inkscape (http://www.inkscape.org/) -->

<svg
   width="128"
   height="128"
   viewBox="0 0 128 128.00001"
   version="1.1"
   id="svg5"
   sodipodi:docname="preferences-desktop-font.svg"
   inkscape:version="1.2.1 (9c6d41e410, 2022-07-14)"
   xmlns:inkscape="http://www.inkscape.org/namespaces/inkscape"
   xmlns:sodipodi="http://sodipodi.sourceforge.net/DTD/sodipodi-0.dtd"
   xmlns:xlink="http://www.w3.org/1999/xlink"
   xmlns="http://www.w3.org/2000/svg"
   xmlns:svg="http://www.w3.org/2000/svg">
  <sodipodi:namedview
     id="namedview7"
     pagecolor="#ffffff"
     bordercolor="#666666"
     borderopacity="1.0"
     inkscape:showpageshadow="2"
     inkscape:pageopacity="0.0"
     inkscape:pagecheckerboard="0"
     inkscape:deskcolor="#d1d1d1"
     inkscape:document-units="px"
     showgrid="false"
     inkscape:zoom="5.6568542"
     inkscape:cx="36.94633"
     inkscape:cy="48.17165"
     inkscape:window-width="1920"
     inkscape:window-height="1009"
     inkscape:window-x="0"
     inkscape:window-y="0"
     inkscape:window-maximized="1"
     inkscape:current-layer="svg5" />
  <defs
     id="defs2">
    <linearGradient
       inkscape:collect="always"
       xlink:href="#linearGradient22024"
       id="linearGradient3525"
       x1="49.837837"
       y1="59.747749"
       x2="14.162162"
       y2="4.2522521"
       gradientUnits="userSpaceOnUse"
       gradientTransform="matrix(2.0181818,0,0,2.0181818,-0.58181789,-0.58181778)" />
    <linearGradient
       inkscape:collect="always"
       id="linearGradient22024">
      <stop
         style="stop-color:#dedede;stop-opacity:1;"
         offset="0"
         id="stop22020" />
      <stop
         style="stop-color:#f5f5f5;stop-opacity:1;"
         offset="1"
         id="stop22022" />
    </linearGradient>
  </defs>
  <rect
     style="fill:url(#linearGradient3525);fill-opacity:1.0;stroke:none;stroke-width:2.01818"
     id="rect184"
     width="111"
     height="111"
     x="8.5"
     y="8.5"
     ry="19.5" />
  <path
     d="M 42.892403,37 24,88.622071 h 6.700345 l 5.170021,-14.544984 h 20.749012 l 5.170021,14.544984 h 6.773875 L 49.666275,37 Z m 3.138774,8.340965 h 0.42739 l 8.198501,23.101949 H 37.832674 Z m 43.423572,4.067085 c -2.804493,0 -5.338621,0.447958 -7.596481,1.351096 -2.234095,0.879376 -4.026707,2.116244 -5.381421,3.708628 -1.354706,1.592383 -2.160428,3.423989 -2.421858,5.491709 h 6.415421 c 0.451654,-1.544848 1.425464,-2.794716 2.922784,-3.74539 1.497314,-0.974444 3.423708,-1.461392 5.776631,-1.461392 2.875798,0 5.047568,0.676528 6.521123,2.031242 1.497306,1.33095 2.247232,3.244344 2.247232,5.739871 v 3.13878 c -0.831844,0.02382 -2.374482,0.09716 -4.632341,0.216 -2.257852,0.11884 -4.210244,0.235026 -5.850166,0.353862 -4.206743,0.30897 -7.688777,1.295864 -10.445734,2.95955 -2.7332,1.639915 -4.099252,4.458415 -4.099252,8.451256 0,2.447998 0.581736,4.572372 1.746318,6.378654 1.164582,1.782517 2.746204,3.148581 4.742626,4.099253 1.996423,0.926906 4.233185,1.405464 6.704943,1.429228 3.042167,-0.02418 5.524303,-0.657486 7.449429,-1.893384 1.948891,-1.259648 3.314949,-2.694494 4.099253,-4.310651 h 0.2849 v 5.275723 h 6.061564 V 63.098262 C 104.02352,57.750705 102.53666,54.13489 99.542038,52.257304 96.547404,50.35595 93.186155,49.40805 89.454749,49.40805 Z m 8.483431,21.282099 v 3.88326 c 0,1.663684 -0.426634,3.223907 -1.282168,4.673693 -0.831836,1.44979 -2.055708,2.613264 -3.671865,3.492632 -1.616148,0.879382 -3.529542,1.318934 -5.73987,1.318934 -2.471759,0 -4.458543,-0.521272 -5.955863,-1.567098 -1.47354,-1.045736 -2.218865,-2.56698 -2.242635,-4.5634 0.02406,-2.043947 0.816483,-3.604179 2.385101,-4.673689 1.592382,-1.069512 3.842138,-1.698646 6.741709,-1.88878 l 5.059722,-0.353862 c 2.590611,-0.19014 4.159251,-0.297918 4.705869,-0.32169 z"
     style="font-size:8.21007px;line-height:1.25;font-family:Pretendard;-inkscape-font-specification:Pretendard;opacity:0.5;fill:#ffffff;stroke-width:1.82531"
     id="path1907"
     sodipodi:nodetypes="ccccccccccccccscscccscscsccsccccccccccscscsscccccc" />
  <path
     d="M 42.892403,36 24,87.622073 h 6.700345 l 5.170021,-14.544984 h 20.749012 l 5.170021,14.544984 h 6.773875 L 49.666275,36 Z m 3.138774,8.340965 h 0.42739 l 8.198501,23.101951 H 37.832674 Z m 43.423572,4.067085 c -2.804493,0 -5.338621,0.447958 -7.596481,1.351096 -2.234095,0.879376 -4.026707,2.116244 -5.381421,3.708628 -1.354706,1.592383 -2.160428,3.423989 -2.421858,5.491709 h 6.415421 c 0.451654,-1.544848 1.425464,-2.794716 2.922784,-3.74539 1.497314,-0.974445 3.423708,-1.461393 5.776631,-1.461393 2.875798,0 5.047568,0.676528 6.521123,2.031243 1.497306,1.33095 2.247232,3.244344 2.247232,5.73987 v 3.138783 c -0.831844,0.02382 -2.374482,0.09716 -4.632341,0.216 -2.257852,0.11884 -4.210244,0.235026 -5.850166,0.353862 -4.206743,0.30897 -7.688777,1.295864 -10.445734,2.95955 -2.7332,1.639915 -4.099252,4.458415 -4.099252,8.451255 0,2.447999 0.581736,4.572373 1.746318,6.378655 1.164582,1.782517 2.746204,3.148581 4.742626,4.099253 1.996423,0.926906 4.233185,1.405464 6.704943,1.429228 3.042167,-0.02418 5.524303,-0.657486 7.449429,-1.893384 1.948891,-1.259648 3.314949,-2.694495 4.099253,-4.310651 h 0.2849 v 5.275723 h 6.061564 V 62.098262 C 104.02352,56.750705 102.53666,53.13489 99.542038,51.257304 96.547404,49.35595 93.186155,48.40805 89.454749,48.40805 Z m 8.483431,21.282101 v 3.88326 c 0,1.663684 -0.426634,3.223906 -1.282168,4.673693 -0.831836,1.44979 -2.055708,2.613264 -3.671865,3.492632 -1.616148,0.879382 -3.529542,1.318934 -5.73987,1.318934 -2.471759,0 -4.458543,-0.521272 -5.955863,-1.567098 -1.47354,-1.045736 -2.218865,-2.56698 -2.242635,-4.5634 0.02406,-2.043947 0.816483,-3.604179 2.385101,-4.673689 1.592382,-1.069512 3.842138,-1.698646 6.741709,-1.88878 l 5.059722,-0.353862 c 2.590611,-0.19014 4.159251,-0.297918 4.705869,-0.32169 z"
     style="font-size:8.21007px;line-height:1.25;font-family:Pretendard;-inkscape-font-specification:Pretendard;fill:#4d4d4d;stroke-width:1.82531"
     id="path1940" />
  <path
     id="rect441"
     style="opacity:0.3;fill:#ffffff"
     d="M 28,9 C 17.474011,9 9,17.474011 9,28 v 1 C 9,18.474011 17.474011,10 28,10 h 72 c 10.52599,0 19,8.474011 19,19 V 28 C 119,17.474011 110.52599,9 100,9 Z" />
  <path
     id="rect443"
     style="opacity:0.3;fill:#ffffff"
     d="m 9,99 v 1 c 0,10.52599 8.474011,19 19,19 h 72 c 10.52599,0 19,-8.47401 19,-19 v -1 c 0,10.52599 -8.47401,19 -19,19 H 28 C 17.474011,118 9,109.52599 9,99 Z" />
  <path
     id="rect899"
     style="fill:#000000;stroke:none;stroke-width:2;opacity:0.5"
     d="M 28,8 C 16.920022,8 8,16.920022 8,28 v 72 c 0,11.07998 8.920022,20 20,20 h 72 c 11.07998,0 20,-8.92002 20,-20 V 28 C 120,16.920022 111.07998,8 100,8 Z m 0,1 h 72 c 10.52599,0 19,8.474011 19,19 v 72 c 0,10.52599 -8.47401,19 -19,19 H 28 C 17.474011,119 9,110.52599 9,100 V 28 C 9,17.474011 17.474011,9 28,9 Z" />
</svg>
