<?xml version="1.0" encoding="UTF-8" standalone="no"?>
<!-- Created with Inkscape (http://www.inkscape.org/) -->

<svg
   width="128"
   height="128"
   viewBox="0 0 128 128.00001"
   version="1.1"
   id="svg5"
   sodipodi:docname="shotwell.svg"
   inkscape:version="1.2.1 (9c6d41e410, 2022-07-14)"
   xmlns:inkscape="http://www.inkscape.org/namespaces/inkscape"
   xmlns:sodipodi="http://sodipodi.sourceforge.net/DTD/sodipodi-0.dtd"
   xmlns:xlink="http://www.w3.org/1999/xlink"
   xmlns="http://www.w3.org/2000/svg"
   xmlns:svg="http://www.w3.org/2000/svg">
  <sodipodi:namedview
     id="namedview7"
     pagecolor="#ffffff"
     bordercolor="#666666"
     borderopacity="1.0"
     inkscape:showpageshadow="2"
     inkscape:pageopacity="0.0"
     inkscape:pagecheckerboard="0"
     inkscape:deskcolor="#d1d1d1"
     inkscape:document-units="px"
     showgrid="false"
     inkscape:zoom="6.1875"
     inkscape:cx="64"
     inkscape:cy="64"
     inkscape:window-width="1920"
     inkscape:window-height="1007"
     inkscape:window-x="0"
     inkscape:window-y="0"
     inkscape:window-maximized="1"
     inkscape:current-layer="svg5" />
  <defs
     id="defs2">
    <linearGradient
       inkscape:collect="always"
       xlink:href="#linearGradient4014"
       id="linearGradient3525"
       x1="32"
       y1="46.864857"
       x2="32"
       y2="4.2522521"
       gradientUnits="userSpaceOnUse"
       gradientTransform="matrix(2.0181818,0,0,2.0181818,-0.58181789,-0.58181778)" />
    <linearGradient
       inkscape:collect="always"
       id="linearGradient4014">
      <stop
         style="stop-color:#2869b4;stop-opacity:1;"
         offset="0"
         id="stop4010" />
      <stop
         style="stop-color:#95caff;stop-opacity:1;"
         offset="1"
         id="stop4012" />
    </linearGradient>
  </defs>
  <rect
     style="fill:url(#linearGradient3525);fill-opacity:1.0;stroke:none;stroke-width:2.01818"
     id="rect184"
     width="111"
     height="111"
     x="8.5"
     y="8.5"
     ry="19.5" />
  <rect
     style="opacity:0.2;fill:#ffffff;stroke-width:1.31696;stroke-linejoin:round"
     id="rect581"
     width="111"
     height="1"
     x="8.5"
     y="91" />
  <path
     id="path2539"
     style="opacity:0.5;fill:#ffffff;stroke-width:13.3334;stroke-linecap:round;stroke-linejoin:round"
     d="M 52,72 A 20,20 0 0 0 32,92 H 72 A 20,20 0 0 0 52,72 Z" />
  <path
     id="rect348"
     style="fill:#3b3b3b;fill-opacity:1;stroke-width:2;stroke-linejoin:round"
     d="m 40,30 16,15.6875 4,16 L 36,50 24,58 h 4 l 8,-4 24,19.6875 V 92 H 8 v 9 c 0,10.52598 8.474022,19 19,19 h 74 c 10.52598,0 19,-8.47402 19,-19 V 92 H 72 V 73.6875 L 92,58 h 4 l 4,-4 h -8 l -20,7.6875 -12,-20 z"
     sodipodi:nodetypes="ccccccccccsssscccccccccc" />
  <path
     id="path7424"
     style="opacity:0.2;fill:#ffffff;fill-opacity:1;stroke-width:4"
     d="M 40 30 L 42.40625 32.40625 L 60 42.6875 L 72 62.6875 L 92 55 L 99 55 L 100 54 L 92 54 L 72 61.6875 L 60 41.6875 L 40 30 z M 36 50 L 24 58 L 25.5 58 L 36 51 L 60.285156 62.830078 L 60 61.6875 L 36 50 z " />
  <path
     id="rect441"
     style="opacity:0.3;fill:#ffffff"
     d="M 28,9 C 17.474011,9 9,17.474011 9,28 v 1 C 9,18.474011 17.474011,10 28,10 h 72 c 10.52599,0 19,8.474011 19,19 V 28 C 119,17.474011 110.52599,9 100,9 Z" />
  <path
     id="rect443"
     style="opacity:0.3;fill:#ffffff"
     d="m 9,99 v 1 c 0,10.52599 8.474011,19 19,19 h 72 c 10.52599,0 19,-8.47401 19,-19 v -1 c 0,10.52599 -8.47401,19 -19,19 H 28 C 17.474011,118 9,109.52599 9,99 Z" />
  <path
     id="rect899"
     style="fill:#000000;stroke:none;stroke-width:2;opacity:0.5"
     d="M 28,8 C 16.920022,8 8,16.920022 8,28 v 72 c 0,11.07998 8.920022,20 20,20 h 72 c 11.07998,0 20,-8.92002 20,-20 V 28 C 120,16.920022 111.07998,8 100,8 Z m 0,1 h 72 c 10.52599,0 19,8.474011 19,19 v 72 c 0,10.52599 -8.47401,19 -19,19 H 28 C 17.474011,119 9,110.52599 9,100 V 28 C 9,17.474011 17.474011,9 28,9 Z" />
</svg>
