<?xml version="1.0" encoding="UTF-8" standalone="no"?>
<!-- Created with Inkscape (http://www.inkscape.org/) -->

<svg
   width="128"
   height="128"
   viewBox="0 0 128 128.00001"
   version="1.1"
   id="svg5"
   sodipodi:docname="skype.svg"
   inkscape:version="1.2.1 (9c6d41e410, 2022-07-14)"
   xmlns:inkscape="http://www.inkscape.org/namespaces/inkscape"
   xmlns:sodipodi="http://sodipodi.sourceforge.net/DTD/sodipodi-0.dtd"
   xmlns:xlink="http://www.w3.org/1999/xlink"
   xmlns="http://www.w3.org/2000/svg"
   xmlns:svg="http://www.w3.org/2000/svg">
  <sodipodi:namedview
     id="namedview7"
     pagecolor="#ffffff"
     bordercolor="#666666"
     borderopacity="1.0"
     inkscape:showpageshadow="2"
     inkscape:pageopacity="0.0"
     inkscape:pagecheckerboard="0"
     inkscape:deskcolor="#d1d1d1"
     inkscape:document-units="px"
     showgrid="false"
     inkscape:zoom="4.4967572"
     inkscape:cx="31.689503"
     inkscape:cy="66.603552"
     inkscape:window-width="1920"
     inkscape:window-height="1007"
     inkscape:window-x="0"
     inkscape:window-y="0"
     inkscape:window-maximized="1"
     inkscape:current-layer="svg5" />
  <defs
     id="defs2">
    <linearGradient
       inkscape:collect="always"
       xlink:href="#linearGradient3632"
       id="linearGradient3525"
       x1="96"
       y1="116"
       x2="24.000002"
       y2="3.9999969"
       gradientUnits="userSpaceOnUse"
       gradientTransform="translate(3.9999978,4.0000032)" />
    <linearGradient
       inkscape:collect="always"
       id="linearGradient3632">
      <stop
         style="stop-color:#37a3ff;stop-opacity:1;"
         offset="0"
         id="stop3628" />
      <stop
         style="stop-color:#8adeff;stop-opacity:1;"
         offset="1"
         id="stop3630" />
    </linearGradient>
  </defs>
  <rect
     style="fill:url(#linearGradient3525);fill-opacity:1.0;stroke:none"
     id="rect184"
     width="111"
     height="111"
     x="8.5"
     y="8.5"
     ry="19.5" />
  <path
     d="M 47.999998,25 C 34.745168,25 24,35.745164 24,48.999998 c 0.0024,4.777372 1.430544,9.445328 4.101564,13.406252 -0.06504,0.863084 -0.09892,1.728228 -0.10156,2.593748 C 28,84.882252 44.11775,101 64.000002,101 c 0.865524,-0.003 1.730668,-0.0364 2.593748,-0.10156 3.960928,2.67102 8.62888,4.09915 13.406252,4.10156 C 93.254832,105 104,94.254832 104,81.000002 c -8.6e-4,-4.780036 -1.42906,-9.450932 -4.101568,-13.414064 0.06484,-0.860484 0.09872,-1.72302 0.10156,-2.58594 C 99.999992,45.11775 83.882246,29 63.999994,29 63.137078,29.0028 62.274542,29.0368 61.414058,29.10156 57.450922,26.429056 52.78003,25.000856 47.999994,25 Z m 17.0625,16 c 1.848608,-0.018 3.699128,0.12864 5.523436,0.437504 1.304968,0.20808 2.588644,0.55376 3.828128,1.023436 1.138636,0.3978 2.163532,1.070314 2.992184,1.968746 0.610772,0.738976 0.936432,1.685268 0.921872,2.656252 0.04444,1.018612 -0.3018,2.013056 -0.968752,2.765624 -0.632564,0.694568 -1.5218,1.072516 -2.445304,1.046876 -0.628448,-0.0048 -1.2501,-0.14144 -1.820316,-0.414064 -1.403936,-0.648192 -2.850192,-1.20102 -4.328124,-1.640628 -1.360828,-0.36984 -2.7647,-0.546828 -4.171876,-0.531248 -1.83264,-0.07016 -3.642868,0.407404 -5.218748,1.374992 -1.355748,0.84938 -2.155616,2.396552 -2.085936,4.031252 -0.01,1.052824 0.37452,2.065444 1.078132,2.828124 0.836712,0.894932 1.83038,1.62106 2.921872,2.148436 1.223176,0.62586 3.043672,1.457192 5.468752,2.492188 0.26884,0.08768 0.528,0.20032 0.781244,0.32812 2.366488,0.965444 4.642684,2.163 6.781248,3.585944 1.689392,1.136336 3.106824,2.650164 4.164064,4.421872 1.040488,1.861244 1.563956,3.985036 1.50782,6.132812 0.0874,2.630784 -0.643684,5.219096 -2.085936,7.390626 -1.468512,2.05572 -3.495284,3.606836 -5.828136,4.460944 -2.81102,1.03554 -5.781348,1.538808 -8.765624,1.476564 -4.101092,0.14884 -8.187572,-0.645548 -11.953124,-2.328128 -0.963616,-0.442156 -1.807596,-1.122516 -2.46094,-1.97656 -0.541552,-0.782168 -0.819308,-1.726586 -0.796872,-2.687498 -0.05472,-1.025988 0.32568,-2.025604 1.046872,-2.734376 0.748016,-0.675808 1.71746,-1.026716 2.71094,-0.984368 1.105724,0.016 2.196228,0.3068 3.171872,0.843756 1.212276,0.625888 2.166316,1.09372 2.867188,1.406256 0.800612,0.34596 1.628776,0.612556 2.476564,0.804692 1.045084,0.23684 2.117556,0.35496 3.1875,0.34376 1.89174,0.13892 3.770524,-0.384 5.343748,-1.476588 1.195056,-0.964616 1.86788,-2.459488 1.804688,-4.02344 0.0024,-1.094212 -0.405604,-2.148756 -1.132812,-2.945312 -0.960992,-1.021292 -2.0817,-1.86512 -3.320312,-2.492188 -1.463788,-0.797952 -3.524508,-1.770744 -6.179688,-2.914064 -2.375412,-0.9763 -4.649364,-2.196424 -6.78906,-3.640628 -1.61448,-1.097164 -2.96316,-2.558672 -3.9375,-4.281248 -0.94136,-1.818888 -1.40164,-3.86086 -1.343752,-5.921876 -0.07168,-2.615748 0.79302,-5.164792 2.429688,-7.164064 C 52.138006,44.804802 54.32483,43.29061 56.773434,42.4375 59.437142,41.467192 62.237646,40.982328 65.062498,41 Z"
     style="opacity:0.2;fill:#000000;fill-opacity:1;stroke-width:8;stroke-linejoin:round"
     id="path691" />
  <path
     id="path14352"
     style="fill:#ffffff;fill-opacity:1;stroke-width:8;stroke-linejoin:round"
     d="M 47.999998,24 C 34.745168,24 24,34.745164 24,47.999998 c 0.0024,4.777372 1.43054,9.445324 4.101564,13.406252 -0.06504,0.86308 -0.09892,1.728224 -0.10156,2.593748 C 28,83.88225 44.11775,99.999996 64.000002,99.999996 c 0.865524,-0.0026 1.730668,-0.0364 2.593748,-0.10156 C 70.554678,102.56946 75.22263,103.99759 80.000002,104 93.254832,104 104,93.254828 104,79.999998 c -8.6e-4,-4.780036 -1.42906,-9.450932 -4.101564,-13.414064 0.06484,-0.860484 0.09872,-1.72302 0.10156,-2.585936 C 99.999996,44.117746 83.88225,28 63.999998,28 63.137082,28.0028 62.274546,28.0368 61.414062,28.10156 57.450926,25.429056 52.780034,24.000856 47.999998,24 Z m 17.0625,16 c 1.848608,-0.018 3.699128,0.12864 5.523436,0.437504 1.304968,0.20808 2.588644,0.55376 3.828128,1.023436 1.138636,0.3978 2.163532,1.070316 2.992184,1.968748 0.610772,0.738974 0.936432,1.685266 0.921872,2.65625 0.04444,1.018612 -0.3018,2.013056 -0.968752,2.765624 -0.632564,0.694568 -1.5218,1.072516 -2.445304,1.046876 -0.628448,-0.0048 -1.2501,-0.14144 -1.820316,-0.414064 -1.403936,-0.648192 -2.850192,-1.20102 -4.328124,-1.640628 -1.360828,-0.36984 -2.7647,-0.546828 -4.171876,-0.531248 -1.83264,-0.07016 -3.642868,0.407404 -5.218748,1.374992 -1.355748,0.84938 -2.155616,2.396552 -2.085936,4.031252 -0.01,1.052824 0.37452,2.065444 1.078132,2.828124 0.836712,0.894932 1.83038,1.62106 2.921872,2.148436 1.223176,0.62586 3.043672,1.457192 5.468752,2.492188 0.26884,0.08768 0.528,0.20032 0.781244,0.32812 2.366488,0.965444 4.642684,2.163 6.781248,3.58594 1.689392,1.136336 3.106824,2.650164 4.164064,4.421872 1.040488,1.861244 1.563956,3.985036 1.50782,6.132812 0.0874,2.630784 -0.643684,5.219096 -2.085936,7.390628 -1.468512,2.055718 -3.495284,3.606834 -5.828136,4.460942 -2.81102,1.03554 -5.781348,1.538808 -8.765624,1.476564 -4.101092,0.14884 -8.187572,-0.645548 -11.953124,-2.328128 -0.963616,-0.442156 -1.807596,-1.122516 -2.46094,-1.976558 -0.541552,-0.782168 -0.819308,-1.726588 -0.796872,-2.6875 -0.05472,-1.025988 0.32568,-2.025604 1.046872,-2.734376 0.748016,-0.675808 1.71746,-1.026716 2.71094,-0.984368 1.105724,0.016 2.196228,0.3068 3.171872,0.843756 1.212276,0.625888 2.166316,1.09372 2.867188,1.406256 0.800612,0.34596 1.628776,0.612556 2.476564,0.804692 1.045084,0.23684 2.117556,0.35496 3.1875,0.34376 1.89174,0.13892 3.770524,-0.384 5.343748,-1.476588 1.195056,-0.964616 1.86788,-2.459488 1.804688,-4.02344 0.0024,-1.094212 -0.405604,-2.148756 -1.132812,-2.945312 -0.960992,-1.021292 -2.0817,-1.86512 -3.320312,-2.492188 -1.463788,-0.797952 -3.524508,-1.770744 -6.179688,-2.914064 -2.375412,-0.9763 -4.649364,-2.196424 -6.78906,-3.640624 -1.61448,-1.097164 -2.96316,-2.558672 -3.9375,-4.281248 -0.94136,-1.818888 -1.40164,-3.86086 -1.343752,-5.921876 -0.07168,-2.615748 0.79302,-5.164792 2.429688,-7.164064 1.700508,-2.007694 3.887332,-3.521886 6.335936,-4.374998 2.663708,-0.970308 5.464212,-1.455172 8.289064,-1.4375 z"
     sodipodi:nodetypes="scccccccccccsscccccccccccccccccccccccccccccscccccccccccc" />
  <path
     id="rect441"
     style="opacity:0.3;fill:#ffffff"
     d="M 28,9 C 17.474011,9 9,17.474011 9,28 v 1 C 9,18.474011 17.474011,10 28,10 h 72 c 10.52599,0 19,8.474011 19,19 V 28 C 119,17.474011 110.52599,9 100,9 Z" />
  <path
     id="rect443"
     style="opacity:0.3;fill:#ffffff"
     d="m 9,99 v 1 c 0,10.52599 8.474011,19 19,19 h 72 c 10.52599,0 19,-8.47401 19,-19 v -1 c 0,10.52599 -8.47401,19 -19,19 H 28 C 17.474011,118 9,109.52599 9,99 Z" />
  <path
     id="rect899"
     style="fill:#000000;stroke:none;stroke-width:2;opacity:0.5"
     d="M 28,8 C 16.920022,8 8,16.920022 8,28 v 72 c 0,11.07998 8.920022,20 20,20 h 72 c 11.07998,0 20,-8.92002 20,-20 V 28 C 120,16.920022 111.07998,8 100,8 Z m 0,1 h 72 c 10.52599,0 19,8.474011 19,19 v 72 c 0,10.52599 -8.47401,19 -19,19 H 28 C 17.474011,119 9,110.52599 9,100 V 28 C 9,17.474011 17.474011,9 28,9 Z" />
</svg>
