<?xml version="1.0" encoding="UTF-8" standalone="no"?>
<!-- Created with Inkscape (http://www.inkscape.org/) -->

<svg
   width="128"
   height="128"
   viewBox="0 0 128 128.00001"
   version="1.1"
   id="svg5"
   sodipodi:docname="steam.svg"
   inkscape:version="1.2.1 (9c6d41e410, 2022-07-14)"
   xmlns:inkscape="http://www.inkscape.org/namespaces/inkscape"
   xmlns:sodipodi="http://sodipodi.sourceforge.net/DTD/sodipodi-0.dtd"
   xmlns:xlink="http://www.w3.org/1999/xlink"
   xmlns="http://www.w3.org/2000/svg"
   xmlns:svg="http://www.w3.org/2000/svg">
  <sodipodi:namedview
     id="namedview7"
     pagecolor="#ffffff"
     bordercolor="#666666"
     borderopacity="1.0"
     inkscape:showpageshadow="2"
     inkscape:pageopacity="0.0"
     inkscape:pagecheckerboard="0"
     inkscape:deskcolor="#d1d1d1"
     inkscape:document-units="px"
     showgrid="false"
     inkscape:zoom="4.3641747"
     inkscape:cx="20.851594"
     inkscape:cy="75.84481"
     inkscape:window-width="1920"
     inkscape:window-height="1012"
     inkscape:window-x="0"
     inkscape:window-y="0"
     inkscape:window-maximized="1"
     inkscape:current-layer="svg5" />
  <defs
     id="defs2">
    <linearGradient
       inkscape:collect="always"
       xlink:href="#linearGradient2277"
       id="linearGradient3525"
       x1="32"
       y1="4.2522521"
       x2="32"
       y2="59.747749"
       gradientUnits="userSpaceOnUse"
       gradientTransform="matrix(2.0181818,0,0,2.0181818,-0.58181789,-0.58181778)" />
    <linearGradient
       inkscape:collect="always"
       id="linearGradient2277">
      <stop
         style="stop-color:#111d2e;stop-opacity:1;"
         offset="0"
         id="stop2273" />
      <stop
         style="stop-color:#051839;stop-opacity:1"
         offset="0.2"
         id="stop2921" />
      <stop
         style="stop-color:#0a1b48;stop-opacity:1"
         offset="0.40000001"
         id="stop3435" />
      <stop
         style="stop-color:#132e62;stop-opacity:1"
         offset="0.60000002"
         id="stop3693" />
      <stop
         style="stop-color:#144b7e;stop-opacity:1"
         offset="0.69999999"
         id="stop3951" />
      <stop
         style="stop-color:#136497;stop-opacity:1"
         offset="0.87"
         id="stop4145" />
      <stop
         style="stop-color:#1387b8;stop-opacity:1"
         offset="1"
         id="stop2275" />
    </linearGradient>
  </defs>
  <rect
     style="fill:url(#linearGradient3525);fill-opacity:1;stroke:none;stroke-width:2.01818"
     id="rect184"
     width="111"
     height="111"
     x="8.5"
     y="8.5"
     ry="19.5" />
  <path
     id="path5889"
     style="fill:#000000;stroke-width:0.482776;opacity:0.2"
     d="M 86.636719 29 C 74.857011 29 65.273437 38.599414 65.273438 50.398438 C 65.273438 50.493117 65.274497 50.586947 65.279297 50.675781 L 51.515625 70.667969 C 49.286169 70.566589 47.049048 70.958209 44.927734 71.832031 C 43.992599 72.213425 43.117089 72.68195 42.294922 73.222656 L 8.5 57.021484 L 8.5 76.326172 L 35.652344 89.675781 C 36.725069 94.469743 40.015299 98.674419 44.867188 100.69727 C 52.80546 104.01392 61.957584 100.2327 65.259766 92.291016 C 66.119107 90.215082 66.520825 88.03772 66.462891 85.865234 L 86.154297 71.792969 C 86.313557 71.797769 86.477379 71.802734 86.636719 71.802734 C 98.421267 71.802734 108 62.196497 108 50.398438 C 108 38.599414 98.421267 29 86.636719 29 z M 86.636719 36.142578 C 94.486641 36.142578 100.875 42.54127 100.875 50.398438 C 100.875 58.261876 94.486641 64.658203 86.636719 64.658203 C 78.791617 64.658203 72.404297 58.261876 72.404297 50.398438 C 72.404297 42.54127 78.791617 36.142578 86.636719 36.142578 z M 86.662109 39.662109 C 80.762595 39.662109 75.972656 44.459556 75.972656 50.375 C 75.972656 56.290926 80.762595 61.085938 86.662109 61.085938 C 92.566443 61.085938 97.355469 56.290926 97.355469 50.375 C 97.355469 44.459556 92.566443 39.662109 86.662109 39.662109 z M 50.994141 74.230469 C 52.497562 74.242535 54.020952 74.54118 55.494141 75.154297 C 58.464655 76.3902 60.770767 78.715559 61.992188 81.689453 C 63.21361 84.663349 63.208451 87.947867 61.972656 90.912109 C 59.416842 97.048189 52.36564 99.958182 46.236328 97.404297 C 43.408716 96.226325 41.272574 94.06929 40.041016 91.496094 L 46.996094 94.376953 C 51.516318 96.259775 56.703071 94.116425 58.582031 89.597656 C 60.466786 85.074053 58.328359 79.878915 53.810547 77.996094 L 46.621094 75.017578 C 48.008107 74.491355 49.490719 74.218402 50.994141 74.230469 z " />
  <path
     id="path4972"
     style="fill:#ffffff;stroke-width:0.482776"
     d="M 86.636719 28 C 74.857011 28 65.273437 37.599414 65.273438 49.398438 C 65.273438 49.493117 65.274497 49.586947 65.279297 49.675781 L 51.515625 69.667969 C 49.286169 69.566589 47.049048 69.95821 44.927734 70.832031 C 43.992599 71.213425 43.117089 71.68195 42.294922 72.222656 L 8.5 56.021484 L 8.5 75.326172 L 35.652344 88.675781 C 36.725069 93.469743 40.015299 97.674428 44.867188 99.697266 C 52.80546 103.01392 61.957584 99.232692 65.259766 91.291016 C 66.119107 89.215082 66.520825 87.03772 66.462891 84.865234 L 86.154297 70.792969 C 86.313557 70.797769 86.477379 70.802734 86.636719 70.802734 C 98.421267 70.802734 108 61.196497 108 49.398438 C 108 37.599414 98.421267 28 86.636719 28 z M 86.636719 35.142578 C 94.486641 35.142578 100.875 41.541271 100.875 49.398438 C 100.875 57.261876 94.486641 63.658203 86.636719 63.658203 C 78.791617 63.658203 72.404297 57.261876 72.404297 49.398438 C 72.404297 41.541271 78.791617 35.142578 86.636719 35.142578 z M 86.662109 38.662109 C 80.762595 38.662109 75.972656 43.459557 75.972656 49.375 C 75.972656 55.290926 80.762595 60.085938 86.662109 60.085938 C 92.566443 60.085938 97.355469 55.290926 97.355469 49.375 C 97.355469 43.459557 92.566443 38.662109 86.662109 38.662109 z M 50.994141 73.230469 C 52.497562 73.242535 54.020952 73.54118 55.494141 74.154297 C 58.464655 75.3902 60.770767 77.715559 61.992188 80.689453 C 63.21361 83.663348 63.208451 86.947867 61.972656 89.912109 C 59.416842 96.048188 52.36564 98.958183 46.236328 96.404297 C 43.408716 95.226326 41.272574 93.06929 40.041016 90.496094 L 46.996094 93.376953 C 51.516318 95.259775 56.703071 93.116425 58.582031 88.597656 C 60.466786 84.074053 58.328359 78.878916 53.810547 76.996094 L 46.621094 74.017578 C 48.008107 73.491355 49.490719 73.218402 50.994141 73.230469 z " />
  <path
     id="rect441"
     style="opacity:0.3;fill:#ffffff"
     d="M 28,9 C 17.474011,9 9,17.474011 9,28 v 1 C 9,18.474011 17.474011,10 28,10 h 72 c 10.52599,0 19,8.474011 19,19 V 28 C 119,17.474011 110.52599,9 100,9 Z" />
  <path
     id="rect443"
     style="opacity:0.3;fill:#ffffff"
     d="m 9,99 v 1 c 0,10.52599 8.474011,19 19,19 h 72 c 10.52599,0 19,-8.47401 19,-19 v -1 c 0,10.52599 -8.47401,19 -19,19 H 28 C 17.474011,118 9,109.52599 9,99 Z" />
  <path
     id="rect899"
     style="fill:#000000;stroke:none;stroke-width:2;opacity:0.5"
     d="M 28,8 C 16.920022,8 8,16.920022 8,28 v 72 c 0,11.07998 8.920022,20 20,20 h 72 c 11.07998,0 20,-8.92002 20,-20 V 28 C 120,16.920022 111.07998,8 100,8 Z m 0,1 h 72 c 10.52599,0 19,8.474011 19,19 v 72 c 0,10.52599 -8.47401,19 -19,19 H 28 C 17.474011,119 9,110.52599 9,100 V 28 C 9,17.474011 17.474011,9 28,9 Z" />
</svg>
