<?xml version="1.0" encoding="UTF-8" standalone="no"?>
<!-- Created with Inkscape (http://www.inkscape.org/) -->

<svg
   width="128"
   height="128"
   viewBox="0 0 128 128.00001"
   version="1.1"
   id="svg5"
   sodipodi:docname="system-file-manager.svg"
   inkscape:version="1.2.1 (9c6d41e410, 2022-07-14)"
   xmlns:inkscape="http://www.inkscape.org/namespaces/inkscape"
   xmlns:sodipodi="http://sodipodi.sourceforge.net/DTD/sodipodi-0.dtd"
   xmlns:xlink="http://www.w3.org/1999/xlink"
   xmlns="http://www.w3.org/2000/svg"
   xmlns:svg="http://www.w3.org/2000/svg">
  <sodipodi:namedview
     id="namedview7"
     pagecolor="#ffffff"
     bordercolor="#666666"
     borderopacity="1.0"
     inkscape:showpageshadow="2"
     inkscape:pageopacity="0.0"
     inkscape:pagecheckerboard="0"
     inkscape:deskcolor="#d1d1d1"
     inkscape:document-units="px"
     showgrid="false"
     inkscape:zoom="3.09375"
     inkscape:cx="79.676768"
     inkscape:cy="86.30303"
     inkscape:window-width="1920"
     inkscape:window-height="1007"
     inkscape:window-x="0"
     inkscape:window-y="0"
     inkscape:window-maximized="1"
     inkscape:current-layer="svg5" />
  <defs
     id="defs2">
    <linearGradient
       inkscape:collect="always"
       xlink:href="#linearGradient1264"
       id="linearGradient3525"
       x1="49.837837"
       y1="59.747749"
       x2="14.162162"
       y2="4.2522521"
       gradientUnits="userSpaceOnUse"
       gradientTransform="matrix(2.0181818,0,0,2.0181818,-0.58181789,-0.58181778)" />
    <linearGradient
       inkscape:collect="always"
       id="linearGradient1264">
      <stop
         style="stop-color:#97866b;stop-opacity:1;"
         offset="0"
         id="stop1260" />
      <stop
         style="stop-color:#d0c7ad;stop-opacity:1;"
         offset="1"
         id="stop1262" />
    </linearGradient>
  </defs>
  <rect
     style="fill:url(#linearGradient3525);fill-opacity:1.0;stroke:none;stroke-width:2.01818"
     id="rect184"
     width="111"
     height="111"
     x="8.5"
     y="8.5"
     ry="19.5" />
  <path
     d="m 30,31 c -3.324,0 -6,2.676002 -6,6 v 56.000002 c 0,3.323996 2.676,6 6,6 h 68 c 3.324,0 6,-2.676004 6,-6 V 46.999998 c 0,-3.323996 -2.676,-6 -6,-6 H 64 L 58,34 c -1.67296,-2.152788 -2.676,-3 -6,-3 z"
     style="opacity:0.2;fill:#000000;fill-opacity:1;stroke-width:3"
     id="path3778" />
  <path
     d="m 30,30 c -3.324,0 -6,2.676002 -6,6 v 56 c 0,3.323996 2.676,6 6,6 h 68 c 3.324,0 6,-2.676004 6,-6 V 45.999998 c 0,-3.323996 -2.676,-6 -6,-6 H 64 L 58,33 c -1.67296,-2.152788 -2.676,-3 -6,-3 z"
     style="fill:#ede9e1;fill-opacity:1;stroke-width:3"
     id="path3743"
     sodipodi:nodetypes="ssssssssccss" />
  <path
     id="path8818"
     style="opacity:0.1;fill:#000000;fill-opacity:1;stroke-width:3"
     d="M 63.078125 39.921875 L 54 49 L 30 49 C 26.686303 49 24 51.686301 24 55 L 24 78 C 24 81.323985 26.676023 84 30 84 L 98 84 C 101.32398 84 104 81.323985 104 78 L 104 47 C 104 43.676011 101.324 41 98 41 L 64 41 L 63.078125 39.921875 z " />
  <path
     d="m 64,39.999998 -10,10 H 30 c -3.3137,0 -6,2.686294 -6,6 v 36 c 0,3.323992 2.676,6 6,6 h 68 c 3.324,0 6,-2.676008 6,-6 v -46 c 0,-3.32399 -2.676,-6 -6,-6 z"
     style="fill:#ffffff;fill-opacity:1;stroke-width:3"
     id="path8353"
     sodipodi:nodetypes="ccssssssssc" />
  <path
     id="rect441"
     style="opacity:0.3;fill:#ffffff"
     d="M 28,9 C 17.474011,9 9,17.474011 9,28 v 1 C 9,18.474011 17.474011,10 28,10 h 72 c 10.52599,0 19,8.474011 19,19 V 28 C 119,17.474011 110.52599,9 100,9 Z" />
  <path
     id="rect443"
     style="opacity:0.3;fill:#ffffff"
     d="m 9,99 v 1 c 0,10.52599 8.474011,19 19,19 h 72 c 10.52599,0 19,-8.47401 19,-19 v -1 c 0,10.52599 -8.47401,19 -19,19 H 28 C 17.474011,118 9,109.52599 9,99 Z" />
  <path
     id="rect899"
     style="fill:#000000;stroke:none;stroke-width:2;opacity:0.5"
     d="M 28,8 C 16.920022,8 8,16.920022 8,28 v 72 c 0,11.07998 8.920022,20 20,20 h 72 c 11.07998,0 20,-8.92002 20,-20 V 28 C 120,16.920022 111.07998,8 100,8 Z m 0,1 h 72 c 10.52599,0 19,8.474011 19,19 v 72 c 0,10.52599 -8.47401,19 -19,19 H 28 C 17.474011,119 9,110.52599 9,100 V 28 C 9,17.474011 17.474011,9 28,9 Z" />
</svg>
