<?xml version="1.0" encoding="UTF-8" standalone="no"?>
<!-- Created with Inkscape (http://www.inkscape.org/) -->

<svg
   width="128"
   height="128"
   viewBox="0 0 128 128.00001"
   version="1.1"
   id="svg5"
   sodipodi:docname="system-run.svg"
   inkscape:version="1.3.2 (091e20ef0f, 2023-11-25, custom)"
   xmlns:inkscape="http://www.inkscape.org/namespaces/inkscape"
   xmlns:sodipodi="http://sodipodi.sourceforge.net/DTD/sodipodi-0.dtd"
   xmlns:xlink="http://www.w3.org/1999/xlink"
   xmlns="http://www.w3.org/2000/svg"
   xmlns:svg="http://www.w3.org/2000/svg">
  <sodipodi:namedview
     id="namedview7"
     pagecolor="#ffffff"
     bordercolor="#666666"
     borderopacity="1.0"
     inkscape:showpageshadow="2"
     inkscape:pageopacity="0.0"
     inkscape:pagecheckerboard="0"
     inkscape:deskcolor="#d1d1d1"
     inkscape:document-units="px"
     showgrid="false"
     inkscape:zoom="4.5961941"
     inkscape:cx="13.489422"
     inkscape:cy="83.764957"
     inkscape:window-width="1920"
     inkscape:window-height="1011"
     inkscape:window-x="0"
     inkscape:window-y="0"
     inkscape:window-maximized="1"
     inkscape:current-layer="svg5" />
  <defs
     id="defs2">
    <linearGradient
       inkscape:collect="always"
       xlink:href="#linearGradient22024"
       id="linearGradient32279"
       x1="64"
       y1="120"
       x2="64"
       y2="8"
       gradientUnits="userSpaceOnUse" />
    <linearGradient
       inkscape:collect="always"
       id="linearGradient22024">
      <stop
         style="stop-color:#cdcdcd;stop-opacity:1;"
         offset="0"
         id="stop22020" />
      <stop
         style="stop-color:#eff0f1;stop-opacity:1;"
         offset="1"
         id="stop22022" />
    </linearGradient>
  </defs>
  <rect
     style="fill:url(#linearGradient32279);fill-opacity:1.0;stroke:none;stroke-width:2"
     id="rect184"
     width="111"
     height="111"
     x="8.5"
     y="8.5"
     ry="19.5" />
  <path
     d="m 87.784891,56.591931 c 0,0 -0.8704,0.61838 -2.70844,2.866328 -2.24788,2.748364 -3.94296,2.89148 -5.96816,2.94394 l -0.012,0.0164 c -0.40568,-0.098 -0.81544,-0.1844 -1.22656,-0.2532 l -0.003,-0.0164 c -1.8438,-0.838672 -3.34796,-1.634188 -4.34336,-5.042492 -0.81412,-2.785904 -1.373322,-3.69696 -1.373322,-3.69696 -1.15904,-0.25652 -2.61152,0.0276 -2.61152,0.0276 0,0 -1.45288,0.2824 -2.43048,0.954764 0,0 -0.1784,1.053512 0.1132,3.941912 0.354,3.53276 -0.74364,4.833648 -2.13828,6.302372 l 0.0012,0.022 c -0.3544,0.21744 -0.700596,0.450828 -1.04244,0.69424 l -0.012,-0.0112 c -1.89708,0.710364 -3.52324,1.211716 -6.637036,-0.494312 -2.5452,-1.394796 -3.58484,-1.642996 -3.58484,-1.642996 -0.9992,0.63506 -1.8264,1.861532 -1.8264,1.861532 0,0 -0.8276,1.227016 -1.04344,2.393924 0,0 0.61908,0.871372 2.86604,2.708624 2.74824,2.247832 2.89208,3.944114 2.94452,5.968524 l 0.02,0.0112 c -0.0972,0.40678 -0.184,0.8156 -0.2532,1.22619 l -0.012,0.002 c -0.83828,1.84402 -1.634,3.34814 -5.04196,4.34391 -2.78588,0.81346 -3.69732,1.37421 -3.69732,1.37421 -0.2564,1.15931 0.024,2.60981 0.024,2.60981 0,0 0.2828,1.45348 0.95484,2.43103 0,0 1.053396,0.17888 3.94156,-0.11176 3.53264,-0.3534 4.83244,0.74509 6.301956,2.13885 l 0.02,-0.003 c 0.218,0.35504 0.4514,0.70111 0.69392,1.04261 l -0.012,0.0164 c 0.71184,1.89676 1.211756,3.5228 -0.49376,6.63628 -1.39464,2.545689 -1.64264,3.586809 -1.64264,3.586809 0.63864,1.00078 1.863956,1.82713 1.863956,1.82713 0,0 1.22752,0.82793 2.393924,1.04349 0,0 0.87128,-0.61799 2.708236,-2.86583 2.24816,-2.748029 3.944284,-2.890489 5.96852,-2.944269 l 0.012,-0.0164 c 0.40844,0.0974 0.815884,0.1844 1.22672,0.2532 l 0.0012,0.022 c 1.844236,0.83846 3.348156,1.633919 4.343836,5.041719 0.81356,2.78613 1.37424,3.69785 1.37424,3.69785 1.15924,0.2554 2.61016,-0.0276 2.61016,-0.0276 0,0 1.45352,-0.28292 2.43044,-0.95565 0,0 0.1784,-1.0523 -0.1072,-3.9413 -0.3532,-3.532709 0.74544,-4.832939 2.13844,-6.302039 l -0.004,-0.0164 c 0.3548,-0.21744 0.70068,-0.45192 1.04244,-0.69434 l 0.02,0.0112 c 1.89672,-0.71119 3.52256,-1.21205 6.63648,0.49375 2.54528,1.39469 3.58616,1.64305 3.58616,1.64305 1.00088,-0.63929 1.8274,-1.8646 1.8274,-1.8646 0,0 0.82792,-1.22741 1.0436,-2.3941 0,0 -0.61796,-0.87126 -2.86632,-2.70834 -2.74832,-2.24768 -2.89068,-3.94402 -2.94396,-5.9681 l -0.012,-0.0112 c 0.0972,-0.40843 0.1848,-0.81582 0.2524,-1.22646 l 0.02,-0.003 c 0.83856,-1.84381 1.63408,-3.34787 5.04204,-4.34364 2.786359,-0.81357 3.698159,-1.37426 3.698159,-1.37426 0.2556,-1.15926 -0.028,-2.61026 -0.028,-2.61026 0,0 -0.2824,-1.45292 -0.95472,-2.43097 0,0 -1.053679,-0.17836 -3.942119,0.11172 -3.53284,0.35396 -4.83312,-0.743718 -6.30236,-2.138126 l -0.02,0.0032 c -0.218,-0.35504 -0.45024,-0.70128 -0.695,-1.042284 l 0.012,-0.0164 c -0.71008,-1.896312 -1.21232,-3.522464 0.49376,-6.636444 1.39476,-2.545192 1.64356,-3.585992 1.64356,-3.585992 -0.63856,-1.000504 -1.86488,-1.827836 -1.86488,-1.827836 0,0 -1.22744,-0.827828 -2.39412,-1.043496 z m -2.32516,31.05934 c -3.97544,5.89382 -11.97576,7.44902 -17.869558,3.47358 -5.89376,-3.97549 -7.44888,-11.97574 -3.47348,-17.86962 3.97536,-5.893712 11.975678,-7.448908 17.869558,-3.47342 5.89384,3.97544 7.44892,11.97574 3.47348,17.86946 z M 63.437649,29.100047 c 0,0 -0.810516,0.26972 -2.74252,1.559376 -2.362636,1.576832 -3.692836,1.289936 -5.25452,0.856344 l -0.012,0.0112 c -0.288,-0.17008 -0.5808,-0.33192 -0.879156,-0.480548 l 0.0013,-0.0112 c -1.2144,-1.072892 -2.17912,-2.03338 -2.14348,-4.87372 0.024,-2.321764 -0.1852,-3.149592 -0.1852,-3.149592 -0.826684,-0.467336 -2.00396,-0.5913 -2.00396,-0.5913 0,0 -1.17764,-0.12384 -2.0828,0.16184 0,0 -0.3824,0.764304 -0.83668,3.04186 -0.55564,2.78558 -1.69948,3.524064 -3.10988,4.321568 l -0.0036,0.0164 c -0.3224,0.08368 -0.6414,0.18108 -0.95988,0.28732 l -0.012,-0.0112 c -1.6176,0.09964 -2.97888,0.10292 -4.962164,-1.9305 -1.62096,-1.662428 -2.35832,-2.095528 -2.35832,-2.095528 -0.91292,0.25212 -1.83268,0.996984 -1.83268,0.996984 0,0 -0.92016,0.745204 -1.35824,1.587456 0,0 0.2696,0.81148 1.5592,2.74264 1.57672,2.362548 1.29004,3.693932 0.85664,5.254964 l 0.012,0.0112 c -0.1696,0.28844 -0.3312,0.580948 -0.48112,0.8788 l -0.012,-0.0012 c -1.07268,1.214688 -2.03316,2.179304 -4.87336,2.14402 -2.3216,-0.0276 -3.15012,0.1866 -3.15012,0.1866 -0.46736,0.827 -0.591,2.002608 -0.591,2.002608 0,0 -0.1268,1.177972 0.162,2.083192 0,0 0.76404,0.38312 3.0416,0.836472 2.7854,0.555904 3.52288,1.700352 4.32104,3.110396 l 0.012,0.0012 c 0.0844,0.32312 0.1816,0.641996 0.2872,0.959992 l -0.012,0.0112 c 0.1004,1.617568 0.1036,2.978564 -1.93,4.961632 -1.66236,1.621364 -2.09564,2.359908 -2.09564,2.359908 0.2548,0.91502 0.99864,1.83384 0.99864,1.83384 0,0 0.74548,0.920524 1.58752,1.3583 0,0 0.811,-0.26916 2.74224,-1.559108 2.36272,-1.5765 3.69364,-1.288832 5.25492,-0.856452 l 0.012,-0.0112 c 0.29,0.17008 0.58088,0.33192 0.87932,0.480548 l -0.0036,0.0164 c 1.2148,1.072836 2.17928,2.033156 2.14404,4.873228 -0.024,2.321816 0.186,3.150472 0.186,3.150472 0.82712,0.466788 2.00292,0.590804 2.00292,0.590804 0,0 1.1782,0.12384 2.08292,-0.1624 0,0 0.3824,-0.763372 0.83664,-3.04132 0.55676,-2.7853 1.7008,-3.523128 3.11008,-4.321232 l -5.6e-4,-0.0164 c 0.3224,-0.08368 0.64176,-0.18164 0.96,-0.28732 l 0.012,0.0112 c 1.61752,-0.1002 2.97856,-0.10348 4.9618,1.930168 1.621,1.662372 2.3594,2.095908 2.3594,2.095908 0.91524,-0.25488 1.83412,-0.999128 1.83412,-0.999128 0,0 0.92056,-0.745372 1.3584,-1.587512 0,0 -0.2692,-0.811148 -1.55944,-2.742472 -1.57676,-2.362552 -1.28888,-3.69366 -0.85628,-5.254636 l -0.012,-0.0112 c 0.1696,-0.28952 0.3312,-0.581056 0.48052,-0.879184 l 0.02,0.0018 c 1.07292,-1.214464 2.03336,-2.17908 4.87352,-2.143796 2.32204,0.0276 3.15076,-0.1866 3.15076,-0.1866 0.46676,-0.827116 0.59044,-2.003272 0.59044,-2.003272 0,0 0.126,-1.17742 -0.162,-2.083136 0,0 -0.764436,-0.38312 -3.042,-0.836692 -2.78576,-0.555684 -3.52372,-1.699472 -4.32164,-3.1099 l -0.012,-0.0012 c -0.0836,-0.32256 -0.1804,-0.641888 -0.2876,-0.95994 l 0.012,-0.0112 c -0.1,-1.61696 -0.104,-2.978508 1.93004,-4.96174 1.66248,-1.621032 2.0962,-2.359084 2.0962,-2.359084 -0.2544,-0.9148 -0.99928,-1.834608 -0.99928,-1.834608 0,0 -0.74536,-0.920468 -1.58752,-1.3583 z m -9.04368,23.218268 c -4.42,3.579276 -10.90436,2.897812 -14.48368,-1.522172 -3.57928,-4.420036 -2.89768,-10.904444 1.52212,-14.483772 4.41992,-3.579164 10.904404,-2.897704 14.48368,1.522336 3.57928,4.420036 2.8976,10.904444 -1.5222,14.483664 z"
     style="display:inline;opacity:0.5;fill:#ffffff;fill-opacity:1;stroke:none;stroke-width:4;enable-background:new"
     id="path7698" />
  <path
     d="m 87.804891,55.591617 c 0,0 -0.8704,0.61838 -2.70844,2.866328 -2.24788,2.748364 -3.94296,2.89148 -5.96816,2.94394 l -0.012,0.0164 c -0.40568,-0.098 -0.81544,-0.1844 -1.22656,-0.2532 l -0.003,-0.0164 c -1.8438,-0.838672 -3.34796,-1.634188 -4.34336,-5.042492 -0.81412,-2.785904 -1.373322,-3.69696 -1.373322,-3.69696 -1.15904,-0.25652 -2.61152,0.0276 -2.61152,0.0276 0,0 -1.45288,0.2824 -2.43048,0.954764 0,0 -0.1784,1.053512 0.1132,3.941912 0.354,3.53276 -0.74364,4.833648 -2.13828,6.302372 l 0.0012,0.022 c -0.3544,0.21744 -0.700596,0.450824 -1.04244,0.694236 l -0.012,-0.0112 c -1.89708,0.710364 -3.52324,1.211716 -6.637036,-0.494308 -2.5452,-1.394796 -3.58484,-1.642996 -3.58484,-1.642996 -0.9992,0.63506 -1.8264,1.861528 -1.8264,1.861528 0,0 -0.8276,1.227016 -1.04344,2.393924 0,0 0.61908,0.871372 2.86604,2.708624 2.74824,2.247832 2.89208,3.944112 2.94452,5.968522 l 0.02,0.0112 c -0.0972,0.40679 -0.184,0.81561 -0.2532,1.22619 l -0.012,0.002 c -0.83828,1.84402 -1.634,3.34814 -5.04196,4.34391 -2.78588,0.81346 -3.69732,1.37421 -3.69732,1.37421 -0.2564,1.15931 0.024,2.60981 0.024,2.60981 0,0 0.2828,1.45348 0.95484,2.43103 0,0 1.053396,0.17888 3.94156,-0.11176 3.53264,-0.3534 4.83244,0.7451 6.301956,2.13885 l 0.02,-0.003 c 0.218,0.35504 0.4514,0.70111 0.69392,1.04261 l -0.012,0.0164 c 0.71184,1.89676 1.211756,3.5228 -0.49376,6.63628 -1.39464,2.54569 -1.64264,3.586819 -1.64264,3.586819 0.63864,1.00078 1.863956,1.82712 1.863956,1.82712 0,0 1.22752,0.82794 2.393924,1.0435 0,0 0.87128,-0.618 2.708236,-2.86584 2.24816,-2.748029 3.944284,-2.890489 5.96852,-2.944259 l 0.012,-0.0164 c 0.40844,0.0974 0.815884,0.1844 1.22672,0.2532 l 0.0012,0.022 c 1.844236,0.83845 3.348156,1.63391 4.343836,5.041719 0.81356,2.78612 1.37424,3.69784 1.37424,3.69784 1.15924,0.2554 2.61016,-0.0276 2.61016,-0.0276 0,0 1.45352,-0.28292 2.43044,-0.95564 0,0 0.1784,-1.05231 -0.1072,-3.94131 -0.3532,-3.532709 0.74544,-4.832929 2.13844,-6.302039 l -0.004,-0.0164 c 0.3548,-0.21744 0.70068,-0.45192 1.04244,-0.69434 l 0.02,0.0112 c 1.89672,-0.71119 3.52256,-1.21205 6.63648,0.49375 2.54528,1.39469 3.58616,1.64306 3.58616,1.64306 1.00088,-0.6393 1.8274,-1.86461 1.8274,-1.86461 0,0 0.82792,-1.22741 1.0436,-2.39409 0,0 -0.61796,-0.87126 -2.86632,-2.70835 -2.74832,-2.24768 -2.89068,-3.94402 -2.94396,-5.96809 l -0.012,-0.0112 c 0.0972,-0.40844 0.1848,-0.81583 0.2524,-1.22647 l 0.02,-0.003 c 0.83856,-1.84381 1.63408,-3.34787 5.04204,-4.34364 2.786359,-0.81357 3.698159,-1.37426 3.698159,-1.37426 0.2556,-1.15926 -0.028,-2.61026 -0.028,-2.61026 0,0 -0.2824,-1.45292 -0.95472,-2.430966 0,0 -1.053679,-0.17836 -3.942119,0.11172 -3.53284,0.35396 -4.83312,-0.74372 -6.30236,-2.138128 l -0.02,0.0032 c -0.218,-0.35504 -0.45024,-0.70128 -0.695,-1.042284 l 0.012,-0.0164 c -0.71008,-1.896312 -1.21232,-3.522464 0.49376,-6.63644 1.39476,-2.545192 1.64356,-3.585992 1.64356,-3.585992 -0.63856,-1.000504 -1.86488,-1.827836 -1.86488,-1.827836 0,0 -1.22744,-0.827828 -2.39412,-1.043496 z m -2.32516,31.059334 c -3.97544,5.89382 -11.97576,7.44902 -17.869558,3.47358 -5.89376,-3.97549 -7.44888,-11.97573 -3.47348,-17.869614 3.97536,-5.893716 11.975678,-7.448912 17.869558,-3.473424 5.89384,3.975438 7.44892,11.975738 3.47348,17.869458 z M 63.457649,28.099733 c 0,0 -0.810516,0.26972 -2.74252,1.559376 -2.362636,1.576836 -3.692836,1.289936 -5.25452,0.856344 l -0.012,0.0112 c -0.288,-0.17008 -0.5808,-0.33192 -0.879156,-0.480548 l 0.0013,-0.0112 c -1.2144,-1.072892 -2.17912,-2.033384 -2.14348,-4.873724 0.024,-2.32176 -0.1852,-3.149588 -0.1852,-3.149588 -0.826684,-0.467336 -2.00396,-0.5913 -2.00396,-0.5913 0,0 -1.17764,-0.12384 -2.0828,0.16184 0,0 -0.3824,0.764304 -0.83668,3.041864 -0.55564,2.785576 -1.69948,3.524064 -3.10988,4.321564 l -0.0036,0.0164 c -0.3224,0.08368 -0.6414,0.18108 -0.95988,0.28732 l -0.012,-0.0112 c -1.6176,0.09964 -2.97888,0.10292 -4.962164,-1.930496 -1.62096,-1.662428 -2.35832,-2.095528 -2.35832,-2.095528 -0.91292,0.25212 -1.83268,0.996984 -1.83268,0.996984 0,0 -0.92016,0.745204 -1.35824,1.587456 0,0 0.2696,0.81148 1.5592,2.74264 1.57672,2.362548 1.29004,3.693932 0.85664,5.254964 l 0.012,0.0112 c -0.1696,0.28844 -0.3312,0.580948 -0.48112,0.8788 l -0.012,-0.0012 c -1.07268,1.214684 -2.03316,2.1793 -4.87336,2.144016 -2.3216,-0.0276 -3.15012,0.1866 -3.15012,0.1866 -0.46736,0.827 -0.591,2.002608 -0.591,2.002608 0,0 -0.1268,1.177972 0.162,2.083192 0,0 0.76404,0.38312 3.0416,0.836472 2.7854,0.555904 3.52288,1.700352 4.32104,3.110396 l 0.012,0.0012 c 0.0844,0.32312 0.1816,0.641996 0.2872,0.959992 l -0.012,0.0112 c 0.1004,1.617568 0.1036,2.978564 -1.93,4.961632 -1.66236,1.621364 -2.09564,2.359908 -2.09564,2.359908 0.2548,0.91502 0.99864,1.83384 0.99864,1.83384 0,0 0.74548,0.920524 1.58752,1.3583 0,0 0.811,-0.26916 2.74224,-1.559108 2.36272,-1.5765 3.69364,-1.288832 5.25492,-0.856452 l 0.012,-0.0112 c 0.29,0.17008 0.58088,0.33192 0.87932,0.480548 l -0.0036,0.0164 c 1.2148,1.072836 2.17928,2.033156 2.14404,4.873228 -0.024,2.321816 0.186,3.150468 0.186,3.150468 0.82712,0.466788 2.00292,0.590804 2.00292,0.590804 0,0 1.1782,0.12384 2.08292,-0.1624 0,0 0.3824,-0.763372 0.83664,-3.041316 0.55676,-2.7853 1.7008,-3.523128 3.11008,-4.321232 l -5.6e-4,-0.0164 c 0.3224,-0.08368 0.64176,-0.18164 0.96,-0.28732 l 0.012,0.0112 c 1.61752,-0.1002 2.97856,-0.10348 4.9618,1.930168 1.621,1.662372 2.3594,2.095908 2.3594,2.095908 0.91524,-0.25488 1.83412,-0.999128 1.83412,-0.999128 0,0 0.92056,-0.745372 1.3584,-1.587512 0,0 -0.2692,-0.811148 -1.55944,-2.742472 -1.57676,-2.362552 -1.28888,-3.69366 -0.85628,-5.254636 l -0.012,-0.0112 c 0.1696,-0.28952 0.3312,-0.581056 0.48052,-0.879184 l 0.02,0.0018 c 1.07292,-1.214464 2.03336,-2.17908 4.87352,-2.143796 2.32204,0.0276 3.15076,-0.1866 3.15076,-0.1866 0.46676,-0.827116 0.59044,-2.003272 0.59044,-2.003272 0,0 0.126,-1.17742 -0.162,-2.083136 0,0 -0.764436,-0.38312 -3.042,-0.836692 -2.78576,-0.555684 -3.52372,-1.699472 -4.32164,-3.1099 l -0.012,-0.0012 c -0.0836,-0.32256 -0.1804,-0.641888 -0.2876,-0.95994 l 0.012,-0.0112 c -0.1,-1.61696 -0.104,-2.978508 1.93004,-4.96174 1.66248,-1.621032 2.0962,-2.359084 2.0962,-2.359084 -0.2544,-0.9148 -0.99928,-1.834608 -0.99928,-1.834608 0,0 -0.74536,-0.920468 -1.58752,-1.3583 z m -9.04368,23.218268 c -4.42,3.579276 -10.90436,2.897812 -14.48368,-1.522172 -3.57928,-4.420036 -2.89768,-10.904444 1.52212,-14.483768 4.41992,-3.579168 10.904404,-2.897704 14.48368,1.522336 3.57928,4.420032 2.8976,10.90444 -1.5222,14.48366 z"
     style="display:inline;fill:#929292;fill-opacity:1;stroke:none;stroke-width:4;enable-background:new"
     id="path5900"
     sodipodi:nodetypes="cccccccccccccccccccccccccccccccccccccccccccccccccccccccccccccccccccccccccccccsccccccccccccccccccccccccccccccccccccccccccccccccccccccccccccccccccccccccccccccscc" />
  <path
     id="rect441"
     style="opacity:0.3;fill:#ffffff"
     d="M 28,9 C 17.474011,9 9,17.474011 9,28 v 1 C 9,18.474011 17.474011,10 28,10 h 72 c 10.52599,0 19,8.474011 19,19 V 28 C 119,17.474011 110.52599,9 100,9 Z" />
  <path
     id="rect443"
     style="opacity:0.3;fill:#ffffff"
     d="m 9,99 v 1 c 0,10.52599 8.474011,19 19,19 h 72 c 10.52599,0 19,-8.47401 19,-19 v -1 c 0,10.52599 -8.47401,19 -19,19 H 28 C 17.474011,118 9,109.52599 9,99 Z" />
  <path
     id="rect899"
     style="fill:#000000;stroke:none;stroke-width:2;opacity:0.5"
     d="M 28,8 C 16.920022,8 8,16.920022 8,28 v 72 c 0,11.07998 8.920022,20 20,20 h 72 c 11.07998,0 20,-8.92002 20,-20 V 28 C 120,16.920022 111.07998,8 100,8 Z m 0,1 h 72 c 10.52599,0 19,8.474011 19,19 v 72 c 0,10.52599 -8.47401,19 -19,19 H 28 C 17.474011,119 9,110.52599 9,100 V 28 C 9,17.474011 17.474011,9 28,9 Z" />
</svg>
