<?xml version="1.0" encoding="UTF-8" standalone="no"?>
<!-- Created with Inkscape (http://www.inkscape.org/) -->

<svg
   width="128"
   height="128"
   viewBox="0 0 128 128.00001"
   version="1.1"
   id="svg5"
   sodipodi:docname="telegram.svg"
   inkscape:version="1.2.1 (9c6d41e410, 2022-07-14)"
   xmlns:inkscape="http://www.inkscape.org/namespaces/inkscape"
   xmlns:sodipodi="http://sodipodi.sourceforge.net/DTD/sodipodi-0.dtd"
   xmlns:xlink="http://www.w3.org/1999/xlink"
   xmlns="http://www.w3.org/2000/svg"
   xmlns:svg="http://www.w3.org/2000/svg">
  <sodipodi:namedview
     id="namedview7"
     pagecolor="#ffffff"
     bordercolor="#666666"
     borderopacity="1.0"
     inkscape:showpageshadow="2"
     inkscape:pageopacity="0.0"
     inkscape:pagecheckerboard="0"
     inkscape:deskcolor="#d1d1d1"
     inkscape:document-units="px"
     showgrid="false"
     inkscape:zoom="4.5961941"
     inkscape:cx="13.598207"
     inkscape:cy="83.873742"
     inkscape:window-width="1920"
     inkscape:window-height="1007"
     inkscape:window-x="0"
     inkscape:window-y="0"
     inkscape:window-maximized="1"
     inkscape:current-layer="svg5" />
  <defs
     id="defs2">
    <linearGradient
       inkscape:collect="always"
       xlink:href="#linearGradient1595"
       id="linearGradient32279"
       x1="64"
       y1="120"
       x2="64"
       y2="8"
       gradientUnits="userSpaceOnUse" />
    <linearGradient
       inkscape:collect="always"
       id="linearGradient1595">
      <stop
         style="stop-color:#1d9ad8;stop-opacity:1"
         offset="0"
         id="stop1591" />
      <stop
         style="stop-color:#3cacde;stop-opacity:1"
         offset="1"
         id="stop1593" />
    </linearGradient>
  </defs>
  <rect
     style="fill:url(#linearGradient32279);fill-opacity:1.0;stroke:none;stroke-width:2"
     id="rect184"
     width="111"
     height="111"
     x="8.5"
     y="8.5"
     ry="19.5" />
  <path
     id="path10"
     style="fill:#ffffff;stroke-width:4.23522"
     d="m 96.027177,37.002572 c -1.589035,0.04512 -3.469183,0.675296 -5.294031,1.282138 -11.939089,3.984495 -49.689195,20.133051 -60.021014,25.460951 -2.543257,1.04186 -3.637517,2.81385 -1.786737,4.34276 1.593357,1.29599 7.424253,3.08073 12.126624,3.98706 4.00863,1.19856 7.116751,0.05 9.992465,-1.55512 6.907655,-4.04464 27.490621,-16.915733 28.596027,-17.635721 1.109618,-0.715752 2.322346,0.613568 1.704,1.25733 -0.61833,0.647981 -15.190882,13.565541 -19.976672,19.405911 -2.536894,3.21031 -2.464044,4.92397 0.14086,6.94841 5.844609,4.52746 21.456644,14.8542 23.781772,15.47678 2.960421,0.7962 4.698113,0.1346 5.947503,-2.25824 1.139066,-2.1896 7.699633,-39.581983 8.635617,-49.250992 0.635339,-5.986221 -1.197966,-7.536417 -3.846418,-7.461267 z" />
  <path
     id="rect441"
     style="opacity:0.3;fill:#ffffff"
     d="M 28,9 C 17.474011,9 9,17.474011 9,28 v 1 C 9,18.474011 17.474011,10 28,10 h 72 c 10.52599,0 19,8.474011 19,19 V 28 C 119,17.474011 110.52599,9 100,9 Z" />
  <path
     id="rect443"
     style="opacity:0.3;fill:#ffffff"
     d="m 9,99 v 1 c 0,10.52599 8.474011,19 19,19 h 72 c 10.52599,0 19,-8.47401 19,-19 v -1 c 0,10.52599 -8.47401,19 -19,19 H 28 C 17.474011,118 9,109.52599 9,99 Z" />
  <path
     id="rect899"
     style="fill:#000000;stroke:none;stroke-width:2;opacity:0.5"
     d="M 28,8 C 16.920022,8 8,16.920022 8,28 v 72 c 0,11.07998 8.920022,20 20,20 h 72 c 11.07998,0 20,-8.92002 20,-20 V 28 C 120,16.920022 111.07998,8 100,8 Z m 0,1 h 72 c 10.52599,0 19,8.474011 19,19 v 72 c 0,10.52599 -8.47401,19 -19,19 H 28 C 17.474011,119 9,110.52599 9,100 V 28 C 9,17.474011 17.474011,9 28,9 Z" />
</svg>
