<?xml version="1.0" encoding="UTF-8" standalone="no"?>
<!-- Created with Inkscape (http://www.inkscape.org/) -->

<svg
   width="128"
   height="128"
   viewBox="0 0 128 128.00001"
   version="1.1"
   id="svg5"
   sodipodi:docname="ubuntusoftware.svg"
   inkscape:version="1.2.1 (9c6d41e410, 2022-07-14)"
   xmlns:inkscape="http://www.inkscape.org/namespaces/inkscape"
   xmlns:sodipodi="http://sodipodi.sourceforge.net/DTD/sodipodi-0.dtd"
   xmlns:xlink="http://www.w3.org/1999/xlink"
   xmlns="http://www.w3.org/2000/svg"
   xmlns:svg="http://www.w3.org/2000/svg">
  <sodipodi:namedview
     id="namedview7"
     pagecolor="#ffffff"
     bordercolor="#666666"
     borderopacity="1.0"
     inkscape:showpageshadow="2"
     inkscape:pageopacity="0.0"
     inkscape:pagecheckerboard="0"
     inkscape:deskcolor="#d1d1d1"
     inkscape:document-units="px"
     showgrid="false"
     inkscape:zoom="2.2483786"
     inkscape:cx="106.07644"
     inkscape:cy="57.819444"
     inkscape:window-width="1920"
     inkscape:window-height="1007"
     inkscape:window-x="0"
     inkscape:window-y="0"
     inkscape:window-maximized="1"
     inkscape:current-layer="svg5" />
  <defs
     id="defs2">
    <linearGradient
       inkscape:collect="always"
       xlink:href="#linearGradient877"
       id="linearGradient3525"
       x1="96"
       y1="116"
       x2="24.000002"
       y2="3.9999969"
       gradientUnits="userSpaceOnUse"
       gradientTransform="translate(3.9999978,4.0000032)" />
    <linearGradient
       inkscape:collect="always"
       id="linearGradient877">
      <stop
         style="stop-color:#e95420;stop-opacity:1;"
         offset="0"
         id="stop873" />
      <stop
         style="stop-color:#ff8e31;stop-opacity:1;"
         offset="1"
         id="stop875" />
    </linearGradient>
  </defs>
  <rect
     style="fill:url(#linearGradient3525);fill-opacity:1.0;stroke:none"
     id="rect184"
     width="111"
     height="111"
     x="8.5"
     y="8.5"
     ry="19.5" />
  <path
     d="M 58,31 44,65.000002 h 12 l 8,-19.42969 8,19.42969 H 84 L 70,31 Z M 34,69.000002 c -3.324,0 -6,2.676004 -6,6 0,3.323996 2.676,6 6,6 h 60 c 3.323996,0 6,-2.676004 6,-6 0,-3.323996 -2.676004,-6 -6,-6 z m 1.76562,16 -5.76562,14 h 12 l 5.76562,-14 z m 44.468756,0 5.765624,14 h 12 l -5.765624,-14 z"
     style="opacity:0.2;fill:#000000;stroke-width:2;stroke-linejoin:round"
     id="path4764" />
  <path
     id="rect2385"
     style="fill:#ffffff;stroke-width:2;stroke-linejoin:round"
     d="M 58,30 44,64 H 56 L 64,44.570312 72,64 H 84 L 70,30 Z M 34,68 c -3.324,0 -6,2.676006 -6,6 0,3.323996 2.676,6 6,6 h 60 c 3.323996,0 6,-2.676004 6,-6 0,-3.323994 -2.676004,-6 -6,-6 z M 35.76562,84 30,98 H 42 L 47.76562,84 Z M 80.234376,84 86,98 H 98 L 92.234376,84 Z"
     sodipodi:nodetypes="ccccccccssssssscccccccccc" />
  <rect
     style="opacity:0.6;fill:#fc872f;fill-opacity:1;stroke-width:1.5;stroke-linejoin:round"
     id="rect4873"
     width="34"
     height="6"
     x="30.999994"
     y="71"
     ry="3" />
  <path
     id="rect441"
     style="opacity:0.3;fill:#ffffff"
     d="M 28,9 C 17.474011,9 9,17.474011 9,28 v 1 C 9,18.474011 17.474011,10 28,10 h 72 c 10.52599,0 19,8.474011 19,19 V 28 C 119,17.474011 110.52599,9 100,9 Z" />
  <path
     id="rect443"
     style="opacity:0.3;fill:#ffffff"
     d="m 9,99 v 1 c 0,10.52599 8.474011,19 19,19 h 72 c 10.52599,0 19,-8.47401 19,-19 v -1 c 0,10.52599 -8.47401,19 -19,19 H 28 C 17.474011,118 9,109.52599 9,99 Z" />
  <path
     id="rect899"
     style="fill:#000000;stroke:none;stroke-width:2;opacity:0.5"
     d="M 28,8 C 16.920022,8 8,16.920022 8,28 v 72 c 0,11.07998 8.920022,20 20,20 h 72 c 11.07998,0 20,-8.92002 20,-20 V 28 C 120,16.920022 111.07998,8 100,8 Z m 0,1 h 72 c 10.52599,0 19,8.474011 19,19 v 72 c 0,10.52599 -8.47401,19 -19,19 H 28 C 17.474011,119 9,110.52599 9,100 V 28 C 9,17.474011 17.474011,9 28,9 Z" />
</svg>
