<?xml version="1.0" encoding="UTF-8" standalone="no"?>
<!-- Created with Inkscape (http://www.inkscape.org/) -->

<svg
   width="128"
   height="128"
   viewBox="0 0 128 128.00001"
   version="1.1"
   id="svg5"
   sodipodi:docname="utilities-system-monitor.svg"
   inkscape:version="1.2.1 (9c6d41e410, 2022-07-14)"
   xmlns:inkscape="http://www.inkscape.org/namespaces/inkscape"
   xmlns:sodipodi="http://sodipodi.sourceforge.net/DTD/sodipodi-0.dtd"
   xmlns:xlink="http://www.w3.org/1999/xlink"
   xmlns="http://www.w3.org/2000/svg"
   xmlns:svg="http://www.w3.org/2000/svg">
  <sodipodi:namedview
     id="namedview7"
     pagecolor="#ffffff"
     bordercolor="#666666"
     borderopacity="1.0"
     inkscape:showpageshadow="2"
     inkscape:pageopacity="0.0"
     inkscape:pagecheckerboard="0"
     inkscape:deskcolor="#d1d1d1"
     inkscape:document-units="px"
     showgrid="false"
     inkscape:zoom="4.5961941"
     inkscape:cx="13.489422"
     inkscape:cy="83.873742"
     inkscape:window-width="1920"
     inkscape:window-height="1009"
     inkscape:window-x="0"
     inkscape:window-y="0"
     inkscape:window-maximized="1"
     inkscape:current-layer="svg5" />
  <defs
     id="defs2">
    <linearGradient
       inkscape:collect="always"
       xlink:href="#linearGradient7403"
       id="linearGradient32279"
       x1="64"
       y1="120"
       x2="64"
       y2="8"
       gradientUnits="userSpaceOnUse" />
    <linearGradient
       inkscape:collect="always"
       xlink:href="#linearGradient1610"
       id="linearGradient28349"
       x1="-60.827999"
       y1="17.980965"
       x2="-4.8280001"
       y2="17.980965"
       gradientUnits="userSpaceOnUse"
       gradientTransform="matrix(2,0,0,2,129.656,28.03738)" />
    <linearGradient
       inkscape:collect="always"
       id="linearGradient1610">
      <stop
         style="stop-color:#78e021;stop-opacity:0;"
         offset="0"
         id="stop1606" />
      <stop
         style="stop-color:#78e021;stop-opacity:0.5;"
         offset="0.2175552"
         id="stop1663" />
      <stop
         style="stop-color:#78e021;stop-opacity:1;"
         offset="0.5"
         id="stop1665" />
      <stop
         style="stop-color:#78e021;stop-opacity:0.5;"
         offset="0.77579284"
         id="stop1667" />
      <stop
         style="stop-color:#78e021;stop-opacity:0;"
         offset="1"
         id="stop1608" />
    </linearGradient>
    <linearGradient
       inkscape:collect="always"
       id="linearGradient7403">
      <stop
         style="stop-color:#4d4d4d;stop-opacity:1;"
         offset="0"
         id="stop7399" />
      <stop
         style="stop-color:#26381b;stop-opacity:1;"
         offset="1"
         id="stop7401" />
    </linearGradient>
  </defs>
  <rect
     style="fill:url(#linearGradient32279);fill-opacity:1.0;stroke:none;stroke-width:2"
     id="rect184"
     width="111"
     height="111"
     x="8.5"
     y="8.5"
     ry="19.5" />
  <path
     d="m 34.11216,33.66674 -6.88402,39.2241 H 8 v 3.16962 h 21.90252 l 5.69542,-32.63722 8.17168,50.31778 1.56006,8.6316 1.56004,-8.63158 3.5163,-23.92076 h 12.0842 l 1.78292,-5.54684 5.64588,20.4045 4.16014,-8.76602 H 120 V 72.74224 H 72.09814 l -1.38672,2.87252 -6.2402,-22.4845 -4.3087,13.52042 H 47.68214 L 45.2554,83.04358 37.23228,33.71628 35.697,25.626 34.11216,33.66678 Z"
     style="display:inline;fill:url(#linearGradient28349);fill-opacity:1;fill-rule:evenodd;stroke:none;stroke-width:2;enable-background:new"
     id="path27592"
     sodipodi:nodetypes="cccccccccccccccccccccccccc" />
  <path
     id="rect441"
     style="opacity:0.3;fill:#ffffff"
     d="M 28,9 C 17.474011,9 9,17.474011 9,28 v 1 C 9,18.474011 17.474011,10 28,10 h 72 c 10.52599,0 19,8.474011 19,19 V 28 C 119,17.474011 110.52599,9 100,9 Z" />
  <path
     id="rect443"
     style="opacity:0.3;fill:#ffffff"
     d="m 9,99 v 1 c 0,10.52599 8.474011,19 19,19 h 72 c 10.52599,0 19,-8.47401 19,-19 v -1 c 0,10.52599 -8.47401,19 -19,19 H 28 C 17.474011,118 9,109.52599 9,99 Z" />
  <path
     id="rect899"
     style="fill:#000000;stroke:none;stroke-width:2;opacity:0.5"
     d="M 28,8 C 16.920022,8 8,16.920022 8,28 v 72 c 0,11.07998 8.920022,20 20,20 h 72 c 11.07998,0 20,-8.92002 20,-20 V 28 C 120,16.920022 111.07998,8 100,8 Z m 0,1 h 72 c 10.52599,0 19,8.474011 19,19 v 72 c 0,10.52599 -8.47401,19 -19,19 H 28 C 17.474011,119 9,110.52599 9,100 V 28 C 9,17.474011 17.474011,9 28,9 Z" />
</svg>
