<?xml version="1.0" encoding="UTF-8" standalone="no"?>
<!-- Created with Inkscape (http://www.inkscape.org/) -->

<svg
   width="128"
   height="128"
   viewBox="0 0 128 128.00001"
   version="1.1"
   id="svg5"
   sodipodi:docname="visual-studio-code.svg"
   inkscape:version="1.2.1 (9c6d41e410, 2022-07-14)"
   xmlns:inkscape="http://www.inkscape.org/namespaces/inkscape"
   xmlns:sodipodi="http://sodipodi.sourceforge.net/DTD/sodipodi-0.dtd"
   xmlns:xlink="http://www.w3.org/1999/xlink"
   xmlns="http://www.w3.org/2000/svg"
   xmlns:svg="http://www.w3.org/2000/svg">
  <sodipodi:namedview
     id="namedview7"
     pagecolor="#ffffff"
     bordercolor="#666666"
     borderopacity="1.0"
     inkscape:showpageshadow="2"
     inkscape:pageopacity="0.0"
     inkscape:pagecheckerboard="0"
     inkscape:deskcolor="#d1d1d1"
     inkscape:document-units="px"
     showgrid="false"
     inkscape:zoom="4.4967572"
     inkscape:cx="31.133547"
     inkscape:cy="66.381169"
     inkscape:window-width="1920"
     inkscape:window-height="1009"
     inkscape:window-x="0"
     inkscape:window-y="0"
     inkscape:window-maximized="1"
     inkscape:current-layer="svg5" />
  <defs
     id="defs2">
    <linearGradient
       inkscape:collect="always"
       xlink:href="#4852"
       id="linearGradient3525"
       x1="96"
       y1="116"
       x2="24.000002"
       y2="3.9999969"
       gradientUnits="userSpaceOnUse"
       gradientTransform="translate(3.9999978,4.0000032)" />
    <linearGradient
       inkscape:collect="always"
       id="4852">
      <stop
         style="stop-color:#333333;stop-opacity:1"
         offset="0"
         id="stop14555" />
      <stop
         style="stop-color:#666666;stop-opacity:1"
         offset="1"
         id="stop14557" />
    </linearGradient>
  </defs>
  <rect
     style="fill:url(#linearGradient3525);fill-opacity:1.0;stroke:none"
     id="rect184"
     width="111"
     height="111"
     x="8.5"
     y="8.5"
     ry="19.5" />
  <path
     d="m 81.534243,27.000645 c -0.240288,0.004 -0.482406,0.026 -0.71875,0.0664 -0.707748,0.12172 -1.389008,0.404792 -1.984374,0.839868 -0.07288,0.05324 -0.1368,0.12192 -0.207032,0.17968 -0.0022,0.0018 -0.0056,0.0022 -0.0078,0.004 -0.11904,0.09828 -0.241002,0.1935 -0.351562,0.304698 L 48.647537,55.228156 35.260818,44.766894 c -1.214572,-0.926756 -2.910974,-0.847904 -4.039062,0.1836 l -4.1875,3.824336 c -1.380012,1.261694 -1.377998,3.44345 0,4.707178 L 38.588944,64.337812 27.034256,74.80689 c -1.378004,1.26378 -1.38001,3.445458 0,4.707177 l 4.1875,3.828242 c 1.128084,1.031672 2.82449,1.106336 4.039062,0.17968 l 13.175781,-9.933881 29.828126,28.020402 c 0.09446,0.095 0.200074,0.17224 0.30078,0.25782 0.019,0.0144 0.03554,0.033 0.05468,0.0469 h 0.004 c 0.07022,0.0578 0.13416,0.12644 0.207032,0.17968 0.596406,0.43569 1.275344,0.71869 1.984374,0.83987 h 0.004 c 0.471452,0.0807 0.954881,0.089 1.433593,0.0234 h 0.004 c 0.238684,-0.0332 0.476842,-0.0856 0.710938,-0.15626 0.23538,-0.071 0.468824,-0.15998 0.695312,-0.26954 l 15.648438,-7.566693 c 1.442238,-0.697582 2.421198,-2.071724 2.640628,-3.636832 0.0312,-0.218982 0.0463,-0.442744 0.0469,-0.66799 v -0.0118 -0.17968 -50.93126 -0.1836 c 0,-0.004 1e-5,-0.0078 0,-0.0118 0,-0.225446 -0.0162,-0.44877 -0.0469,-0.66799 -0.21943,-1.565148 -1.19837,-2.939254 -2.640628,-3.63683 L 83.663434,27.469421 c -0.454198,-0.219714 -0.928856,-0.35985 -1.410156,-0.425794 -0.239948,-0.03316 -0.478462,-0.04694 -0.718749,-0.04296 z m 1.476563,20.527981 V 82.084387 L 60.502993,64.493996 Z"
     style="opacity:0.2;fill:#000000;stroke-width:3.80008"
     id="path1683" />
  <path
     d="M 99.311772,34.05145 83.662104,26.47267 c -1.811322,-0.877244 -3.976285,-0.5072 -5.398041,0.922676 L 27.032458,73.807815 c -1.378006,1.263742 -1.376412,3.445782 0.0036,4.707462 l 4.184764,3.826255 c 1.128084,1.03164 2.82698,1.107472 4.041554,0.18086 L 96.956936,36.01755 c 2.069716,-1.57926 5.042594,-0.09438 5.042594,2.518556 v -0.18278 c 0,-1.834196 -1.04472,-3.506234 -2.687758,-4.301914 z"
     style="fill:#0072b0;stroke-width:3.80002"
     id="path3815" />
  <path
     d="m 99.311772,93.950036 -15.649668,7.578804 c -1.811322,0.87692 -3.976285,0.50699 -5.398041,-0.92267 L 27.032456,52.483431 c -1.378,-1.263688 -1.376414,-3.445776 0.0036,-4.707432 l 4.184654,-3.826403 c 1.128088,-1.031472 2.826982,-1.107406 4.041556,-0.18068 L 96.957018,91.98379 c 2.069716,1.5792 5.042592,0.09438 5.042592,-2.518596 v 0.18302 c 0,1.834056 -1.04472,3.506074 -2.687756,4.301946 z"
     style="fill:#008eda;stroke-width:3.80002"
     id="path3843" />
  <path
     d="m 83.66317,101.52931 c -1.811916,0.87641 -3.976869,0.50617 -5.398637,-0.9239 1.751684,1.76182 4.747095,0.51386 4.747095,-1.977868 V 29.3723 c 0,-2.49175 -2.995411,-3.739646 -4.747095,-1.977706 1.421758,-1.429996 3.586721,-1.800568 5.398637,-0.924096 l 15.647012,7.568368 C 100.95445,34.834124 102,36.506774 102,38.34177 v 51.316666 c 0,1.834946 -1.04558,3.50755 -2.689818,4.302814 z"
     style="fill:#1eacf8;stroke-width:3.80002"
     id="path3871" />
  <path
     id="rect441"
     style="opacity:0.3;fill:#ffffff"
     d="M 28,9 C 17.474011,9 9,17.474011 9,28 v 1 C 9,18.474011 17.474011,10 28,10 h 72 c 10.52599,0 19,8.474011 19,19 V 28 C 119,17.474011 110.52599,9 100,9 Z" />
  <path
     id="rect443"
     style="opacity:0.3;fill:#ffffff"
     d="m 9,99 v 1 c 0,10.52599 8.474011,19 19,19 h 72 c 10.52599,0 19,-8.47401 19,-19 v -1 c 0,10.52599 -8.47401,19 -19,19 H 28 C 17.474011,118 9,109.52599 9,99 Z" />
  <path
     id="rect899"
     style="fill:#000000;stroke:none;stroke-width:2;opacity:0.5"
     d="M 28,8 C 16.920022,8 8,16.920022 8,28 v 72 c 0,11.07998 8.920022,20 20,20 h 72 c 11.07998,0 20,-8.92002 20,-20 V 28 C 120,16.920022 111.07998,8 100,8 Z m 0,1 h 72 c 10.52599,0 19,8.474011 19,19 v 72 c 0,10.52599 -8.47401,19 -19,19 H 28 C 17.474011,119 9,110.52599 9,100 V 28 C 9,17.474011 17.474011,9 28,9 Z" />
</svg>
