<?xml version="1.0" encoding="UTF-8" standalone="no"?>
<!-- Created with Inkscape (http://www.inkscape.org/) -->

<svg
   width="128"
   height="128"
   viewBox="0 0 128 128.00001"
   version="1.1"
   id="svg5"
   sodipodi:docname="wayland.svg"
   inkscape:version="1.2.1 (9c6d41e410, 2022-07-14)"
   xmlns:inkscape="http://www.inkscape.org/namespaces/inkscape"
   xmlns:sodipodi="http://sodipodi.sourceforge.net/DTD/sodipodi-0.dtd"
   xmlns:xlink="http://www.w3.org/1999/xlink"
   xmlns="http://www.w3.org/2000/svg"
   xmlns:svg="http://www.w3.org/2000/svg">
  <sodipodi:namedview
     id="namedview7"
     pagecolor="#ffffff"
     bordercolor="#666666"
     borderopacity="1.0"
     inkscape:showpageshadow="2"
     inkscape:pageopacity="0.0"
     inkscape:pagecheckerboard="0"
     inkscape:deskcolor="#d1d1d1"
     inkscape:document-units="px"
     showgrid="false"
     inkscape:zoom="4.4967572"
     inkscape:cx="31.133547"
     inkscape:cy="66.381169"
     inkscape:window-width="1920"
     inkscape:window-height="1009"
     inkscape:window-x="0"
     inkscape:window-y="0"
     inkscape:window-maximized="1"
     inkscape:current-layer="svg5" />
  <defs
     id="defs2">
    <linearGradient
       inkscape:collect="always"
       xlink:href="#linearGradient6547"
       id="linearGradient3525"
       x1="96"
       y1="116"
       x2="24.000002"
       y2="3.9999969"
       gradientUnits="userSpaceOnUse"
       gradientTransform="translate(3.9999978,4.0000032)" />
    <linearGradient
       inkscape:collect="always"
       id="linearGradient6547">
      <stop
         style="stop-color:#ffbc00;stop-opacity:1;"
         offset="0"
         id="stop6543" />
      <stop
         style="stop-color:#ffdf83;stop-opacity:1;"
         offset="1"
         id="stop6545" />
    </linearGradient>
  </defs>
  <rect
     style="fill:url(#linearGradient3525);fill-opacity:1.0;stroke:none"
     id="rect184"
     width="111"
     height="111"
     x="8.5"
     y="8.5"
     ry="19.5" />
  <path
     d="M 63.99492,25 C 57.16854,25 50.7443,26.71596 45.1217,29.73102 h 7.94608 v 0.53924 C 52.0065,30.32086 51.2929,30.59822 50.91086,31.104541 50.10428,30.54758 49.31452,30.27032 48.55042,30.27026 h -2.6046 l -1.46508,0.223828 -0.254371,-0.223828 h -0.0814 c -1.04062,0.59628 -2.05274,1.238481 -3.03192,1.922921 2.24334,3.2151 3.59794,5.99312 4.05952,8.32252 h 2.1671 v 0.53924 h -1.6584 v 0.60028 c 0.63676,2.32944 1.10688,3.49998 1.40404,3.49994 h 0.50872 l 1.14968,-0.30522 0.254371,0.30522 0.254371,-0.30522 0.254372,0.30522 v 0.223828 c -0.84902,0.60772 -1.4223,1.44968 -1.71944,2.51304 h -0.1934 v 0.52906 h 0.44768 c 0.59428,8.4567 1.70366,14.86424 3.3168,19.219143 l 0.9462,0.75288 h 0.5087 c 0.63674,4e-5 1.98118,-2.95736 4.01882,-8.882103 1.31596,-2.6838 2.26464,-5.03534 2.85896,-7.06092 l -0.254372,-0.84446 c 1.31596,-1.97486 2.67898,-2.96064 4.07988,-2.9607 h 0.44766 c 0.89144,6e-5 1.5205,0.55458 1.90258,1.66858 1.1886,1.67112 2.14744,4.18682 2.86914,7.52892 l 3.57116,7.895203 c 0.46692,0.55706 0.69182,1.19368 0.69184,1.9026 1.31594,2.9877 2.50986,4.95928 3.57116,5.9214 h 0.76306 c 0.89144,2e-5 2.07518,-3.69664 3.561,-11.089923 0.254629,4e-5 0.95984,-1.97156 2.10606,-5.9214 v -0.30524 l -4.00866,-0.52904 -0.95636,0.29504 h -1.21074 v -0.60028 l 2.42146,-0.234 h 4.71068 c 1.825319,-6.53234 3.497799,-11.59474 5.026059,-15.19014 0.1584,-2.2982 0.34398,-4.19516 0.53924,-5.77896 -2.77162,-2.2999 -5.859239,-4.236781 -9.187339,-5.728101 -0.272428,0.62908 -0.79768,0.94628 -1.59736,0.9462 V 28.89674 l 1.475269,-0.4782 C 75.25666,26.21826 69.7669,25 63.99498,25 Z m -7.61034,4.73102 h 6.43012 v 0.53924 l -1.46508,0.223828 -1.40404,-0.223828 -1.21074,0.52906 -0.4375,-0.52906 h -1.91276 z m 13.3079,4.334221 h 0.70202 v 0.223828 c -2e-5,0.35454 -0.235086,0.52912 -0.70202,0.52906 l -0.254343,0.30522 v 0.30522 l -0.70204,-0.30522 v -0.52906 z m -34.1956,2.8793 C 28.38798,44.164781 24,54.072061 24,65.005103 24,87.09608 41.90394,105 63.99492,105 86.0859,105 104,87.09608 104,65.005103 c 0,-8.925162 -2.9235,-17.173582 -7.86468,-23.828082 -1.07482,1.2751 -2.11684,3.68874 -3.13366,7.24406 -0.46702,3.69666 -1.25676,7.11608 -2.36044,10.25564 -0.9764,3.2409 -1.46512,6.22904 -1.46508,8.963502 l -1.84154,5.39234 c -4e-5,0.45576 0.69498,0.90762 2.0959,1.36334 -0.25477,1.06344 -0.64034,1.59738 -1.14968,1.59736 v 0.30524 h 0.44766 v 0.223829 c -6e-5,0.55704 -0.72384,0.8343 -2.16712,0.83428 l 0.26454,0.30524 v 1.0683 h -0.44768 c 0.29712,1.06342 0.92618,1.58718 1.9026,1.58716 v 0.53924 h -1.9026 v 0.30524 c 0.63672,0 0.95634,0.45186 0.95638,1.36334 l -2.67582,1.05812 0.25437,0.30522 v 0.233998 c -4e-5,0.3545 -0.31968,0.52908 -0.956376,0.52908 v 0.30522 c 0.806496,2e-5 1.210696,0.1746 1.210736,0.52906 -1.14622,0.45576 -2.659756,2.71478 -4.527536,6.76586 -1.91032,3.59534 -3.56418,5.39234 -4.96502,5.39234 h -0.50872 c -1.0613,-0.8102 -1.92544,-3.50052 -2.6046,-8.05798 -2.71688,-6.937478 -4.0799,-11.014078 -4.07988,-12.229438 -2e-5,-3.13956 -0.87432,-6.47688 -2.61476,-10.02162 -0.467,-1.56976 -0.77644,-3.551523 -0.9462,-5.931563 l -1.1497,-0.29506 c -2.88666,5.215803 -4.39002,9.292423 -4.51736,12.229423 -0.80658,1.72174 -1.44582,3.796 -1.91276,6.22664 1.74046,0.55704 2.60458,1.09098 2.60462,1.59736 v 0.29504 c -1.35844,-0.202543 -2.30714,-0.58248 -2.85896,-1.13952 -0.59434,1.36726 -1.38408,5.166598 -2.36044,11.395158 -0.76412,2.8864 -1.7128,4.33422 -2.85896,4.33422 -3.22624,-1.26598 -5.92354,-3.34024 -8.08852,-6.22664 -0.3396,2e-5 -0.89428,-1.44782 -1.6584,-4.33422 -0.46696,0 -0.78656,-1.43764 -0.95636,-4.324038 -1.61312,-4.10172 -2.71232,-8.79436 -3.30664,-14.0608 v -7.895203 h -0.254371 l -1.14968,0.30522 v -0.30522 c 0,-0.35444 0.38558,-0.52902 1.14968,-0.52906 L 37.3486,54.118669 v -3.57116 l -1.85172,-11.39514 z m 30.62446,0.0814 v 0.30524 c -4e-5,0.40516 -1.01468,0.83644 -3.05228,1.29212 v -0.53924 l 1.40404,-0.75288 0.254371,0.223828 h 0.1934 l 1.20056,-0.52906 z m -6.86762,2.73688 v 0.223828 c -0.89148,0.81028 -2.33906,1.54958 -4.33422,2.20782 v -0.53924 c 0.33958,4e-5 0.50868,-0.2772 0.50872,-0.83428 z m 36.01678,0.30522 -0.1118,0.9869 h 0.44766 l 0.27471,-0.213658 c -0.1984,-0.261542 -0.40574,-0.51678 -0.61046,-0.77324 z m -23.91962,2.35026 0.254371,0.30522 v 0.223828 l -0.44766,0.61046 H 70.90322 l -0.50872,-0.61046 v -0.223828 z m 8.78038,0.30522 h 0.254343 v 0.223828 l -0.4375,0.61046 H 79.69376 v -0.30522 z m -4.00866,3.79498 0.95638,0.76308 c -0.1698,0.55706 -0.63996,0.83432 -1.40404,0.83428 l -0.50872,-0.83428 c -4e-5,-0.253172 0.31958,-0.50984 0.95638,-0.76308 z m 5.7281,3.49994 0.1934,0.29506 v 0.234 l -0.1934,0.30524 h -0.50872 v -0.30524 z m -9.03472,2.7267 v 0.234 l -1.21074,1.13952 h -0.70202 v -0.30524 c -4e-5,-0.4557 0.6392,-0.81504 1.91276,-1.06828 z m -39.4862,10.56084 h 0.254371 v 0.234028 c -0.63676,1.671103 -1.18128,2.677483 -1.64824,3.031923 h -0.50872 v -1.13952 z M 64.4731,75.993263 h 0.254371 v 0.52906 l -1.91276,1.13952 -0.254371,-0.30524 v -0.52906 z m -26.16812,3.57116 h 0.43748 l 0.76308,2.9607 h -0.50872 l -0.69184,-2.73686 z m 25.4661,3.48976 h 0.1934 l 0.76308,0.83428 -0.254371,0.233997 h -0.254372 l -0.44766,-0.763057 v -0.30522 z"
     style="display:inline;opacity:0.2;fill:#000000;fill-opacity:1;stroke:none;stroke-width:2;enable-background:new"
     id="path6093" />
  <path
     d="M 63.99492,24 C 57.16854,24 50.7443,25.71596 45.1217,28.73102 h 7.94608 v 0.53924 c -1.06128,0.0506 -1.77488,0.32796 -2.15692,0.83428 -0.80658,-0.55696 -1.59634,-0.83422 -2.36044,-0.83428 h -2.6046 l -1.46508,0.223828 -0.254371,-0.223828 h -0.0814 c -1.04062,0.59628 -2.05274,1.23848 -3.03192,1.92292 2.24334,3.215101 3.59794,5.993121 4.05952,8.322521 h 2.1671 v 0.53924 h -1.6584 v 0.60028 c 0.63676,2.32944 1.10688,3.49998 1.40404,3.49994 h 0.50872 l 1.14968,-0.30522 0.254371,0.30522 0.254371,-0.30522 0.254372,0.30522 v 0.223828 c -0.84902,0.60772 -1.4223,1.44968 -1.71944,2.51304 h -0.1934 v 0.52906 h 0.44768 c 0.59428,8.4567 1.70366,14.86424 3.3168,19.21914 l 0.9462,0.75288 h 0.5087 c 0.63674,4e-5 1.98118,-2.95736 4.01882,-8.8821 1.31596,-2.6838 2.26464,-5.03534 2.85896,-7.06092 l -0.254372,-0.84446 c 1.31596,-1.97486 2.67898,-2.96064 4.07988,-2.9607 h 0.44766 c 0.89144,6e-5 1.5205,0.55458 1.90258,1.66858 1.1886,1.67112 2.14744,4.18682 2.86914,7.52892 l 3.57116,7.8952 c 0.46692,0.55706 0.69182,1.19368 0.69184,1.9026 1.31594,2.9877 2.50986,4.95928 3.57116,5.9214 h 0.76306 c 0.89144,2e-5 2.07518,-3.69664 3.561,-11.08992 0.254629,4e-5 0.95984,-1.97156 2.10606,-5.9214 v -0.30524 l -4.00866,-0.52904 -0.95636,0.29504 h -1.21074 v -0.60028 l 2.42146,-0.234 h 4.71068 c 1.825319,-6.53234 3.497799,-11.59474 5.026059,-15.19014 0.1584,-2.2982 0.34398,-4.19516 0.53924,-5.77896 -2.77162,-2.299901 -5.859239,-4.236781 -9.187339,-5.728101 -0.272428,0.62908 -0.79768,0.94628 -1.59736,0.9462 v -0.52904 l 1.47528,-0.4782 c -4.9559,-2.200279 -10.44566,-3.418539 -16.21758,-3.418539 z m -7.61034,4.73102 h 6.43012 v 0.53924 l -1.46508,0.223828 -1.40404,-0.223828 -1.21074,0.52906 -0.4375,-0.52906 h -1.91276 z m 13.3079,4.334221 h 0.70202 v 0.223828 c -2e-5,0.35454 -0.235086,0.52912 -0.70202,0.52906 l -0.254343,0.30522 v 0.30522 l -0.70204,-0.30522 v -0.52906 z m -34.1956,2.8793 C 28.38798,43.164781 24,53.072061 24,64.005101 24,86.09608 41.90394,104 63.99492,104 86.0859,104 104,86.09608 104,64.005101 c 0,-8.92516 -2.9235,-17.17358 -7.86468,-23.82808 -1.07482,1.2751 -2.11684,3.68874 -3.13366,7.24406 -0.46702,3.69666 -1.25676,7.11608 -2.36044,10.25564 -0.9764,3.2409 -1.46512,6.22904 -1.46508,8.9635 l -1.84154,5.39234 c -4e-5,0.45576 0.69498,0.90762 2.0959,1.36334 -0.25477,1.06344 -0.64034,1.59738 -1.14968,1.59736 v 0.30524 h 0.44766 v 0.223828 c -6e-5,0.55704 -0.72384,0.8343 -2.16712,0.83428 l 0.26454,0.30524 v 1.0683 h -0.44768 c 0.29712,1.06342 0.92618,1.58718 1.9026,1.58716 v 0.53924 h -1.9026 v 0.30524 c 0.63672,0 0.95634,0.45186 0.95638,1.36334 l -2.67582,1.05812 0.25437,0.30522 v 0.234 c -4e-5,0.3545 -0.31968,0.52908 -0.956376,0.52908 v 0.30522 c 0.806496,2e-5 1.210696,0.174601 1.210736,0.529061 -1.14622,0.45576 -2.659756,2.71478 -4.527536,6.76586 -1.91032,3.59534 -3.56418,5.39234 -4.96502,5.39234 h -0.50872 c -1.0613,-0.8102 -1.92544,-3.50052 -2.6046,-8.05798 -2.71688,-6.937481 -4.0799,-11.014081 -4.07988,-12.229441 -2e-5,-3.13956 -0.87432,-6.47688 -2.61476,-10.02162 -0.467,-1.56976 -0.77644,-3.55152 -0.9462,-5.93156 l -1.1497,-0.29506 c -2.88666,5.2158 -4.39002,9.29242 -4.51736,12.22942 -0.80658,1.72174 -1.44582,3.796 -1.91276,6.22664 1.74046,0.55704 2.60458,1.09098 2.60462,1.59736 v 0.29504 c -1.35844,-0.202543 -2.30714,-0.58248 -2.85896,-1.13952 -0.59434,1.36726 -1.38408,5.166601 -2.36044,11.395161 -0.76412,2.8864 -1.7128,4.33422 -2.85896,4.33422 -3.22624,-1.26598 -5.92354,-3.34024 -8.08852,-6.22664 -0.3396,2e-5 -0.89428,-1.44782 -1.6584,-4.33422 -0.46696,0 -0.78656,-1.437641 -0.95636,-4.324041 -1.61312,-4.10172 -2.71232,-8.79436 -3.30664,-14.0608 v -7.8952 h -0.254371 l -1.14968,0.30522 v -0.30522 c 0,-0.35444 0.38558,-0.52902 1.14968,-0.52906 L 37.3486,53.118669 v -3.57116 l -1.85172,-11.39514 z m 30.62446,0.0814 v 0.30524 c -4e-5,0.40516 -1.01468,0.83644 -3.05228,1.29212 v -0.53924 l 1.40404,-0.75288 0.254371,0.223828 h 0.1934 l 1.20056,-0.52906 z m -6.86762,2.73688 v 0.223828 c -0.89148,0.81028 -2.33906,1.54958 -4.33422,2.20782 v -0.53924 c 0.33958,4e-5 0.50868,-0.2772 0.50872,-0.83428 z m 36.01678,0.30522 -0.1118,0.9869 h 0.44766 l 0.27471,-0.213658 c -0.1984,-0.261542 -0.40574,-0.51678 -0.61046,-0.77324 z m -23.91962,2.35026 0.254371,0.30522 v 0.223828 l -0.44766,0.61046 H 70.90322 l -0.50872,-0.61046 v -0.223828 z m 8.78038,0.30522 h 0.254343 v 0.223828 l -0.4375,0.61046 H 79.69376 v -0.30522 z m -4.00866,3.79498 0.95638,0.76308 c -0.1698,0.55706 -0.63996,0.83432 -1.40404,0.83428 l -0.50872,-0.83428 c -4e-5,-0.253172 0.31958,-0.50984 0.95638,-0.76308 z m 5.7281,3.49994 0.1934,0.29506 v 0.234 l -0.1934,0.30524 h -0.50872 v -0.30524 z m -9.03472,2.7267 v 0.234 l -1.21074,1.13952 h -0.70202 v -0.30524 c -4e-5,-0.4557 0.6392,-0.81504 1.91276,-1.06828 z m -39.4862,10.56084 h 0.254371 v 0.234028 c -0.63676,1.6711 -1.18128,2.67748 -1.64824,3.03192 h -0.50872 v -1.139528 z m 31.14332,12.68728 h 0.254371 v 0.52906 l -1.91276,1.13952 -0.254371,-0.30524 v -0.52906 z m -26.16812,3.57116 h 0.43748 l 0.76308,2.9607 h -0.50872 l -0.69184,-2.73686 z m 25.4661,3.48976 h 0.1934 l 0.76308,0.83428 -0.254371,0.234 h -0.254372 l -0.44766,-0.76306 v -0.30522 z"
     style="display:inline;fill:#ffffff;fill-opacity:1;stroke:none;stroke-width:2;enable-background:new"
     id="path3360"
     sodipodi:nodetypes="scccccccccccccccccccccccccccccccccccccccscccccccccccccccsscccccccccccscccccccsssccccccccccccccccccccccccccsccccccccccccccccccccsccccccccccccccccccccccccccccccccccccccccccccccccccccccccccccccccccccccccccccccccccccccc" />
  <path
     id="rect441"
     style="opacity:0.3;fill:#ffffff"
     d="M 28,9 C 17.474011,9 9,17.474011 9,28 v 1 C 9,18.474011 17.474011,10 28,10 h 72 c 10.52599,0 19,8.474011 19,19 V 28 C 119,17.474011 110.52599,9 100,9 Z" />
  <path
     id="rect443"
     style="opacity:0.3;fill:#ffffff"
     d="m 9,99 v 1 c 0,10.52599 8.474011,19 19,19 h 72 c 10.52599,0 19,-8.47401 19,-19 v -1 c 0,10.52599 -8.47401,19 -19,19 H 28 C 17.474011,118 9,109.52599 9,99 Z" />
  <path
     id="rect899"
     style="fill:#000000;stroke:none;stroke-width:2;opacity:0.5"
     d="M 28,8 C 16.920022,8 8,16.920022 8,28 v 72 c 0,11.07998 8.920022,20 20,20 h 72 c 11.07998,0 20,-8.92002 20,-20 V 28 C 120,16.920022 111.07998,8 100,8 Z m 0,1 h 72 c 10.52599,0 19,8.474011 19,19 v 72 c 0,10.52599 -8.47401,19 -19,19 H 28 C 17.474011,119 9,110.52599 9,100 V 28 C 9,17.474011 17.474011,9 28,9 Z" />
</svg>
