<?xml version="1.0" encoding="UTF-8" standalone="no"?>
<!-- Created with Inkscape (http://www.inkscape.org/) -->

<svg
   width="128"
   height="128"
   viewBox="0 0 128 128.00001"
   version="1.1"
   id="svg5"
   sodipodi:docname="yast-control-center.svg"
   inkscape:version="1.2.1 (9c6d41e410, 2022-07-14)"
   xmlns:inkscape="http://www.inkscape.org/namespaces/inkscape"
   xmlns:sodipodi="http://sodipodi.sourceforge.net/DTD/sodipodi-0.dtd"
   xmlns:xlink="http://www.w3.org/1999/xlink"
   xmlns="http://www.w3.org/2000/svg"
   xmlns:svg="http://www.w3.org/2000/svg">
  <sodipodi:namedview
     id="namedview7"
     pagecolor="#ffffff"
     bordercolor="#666666"
     borderopacity="1.0"
     inkscape:showpageshadow="2"
     inkscape:pageopacity="0.0"
     inkscape:pagecheckerboard="0"
     inkscape:deskcolor="#d1d1d1"
     inkscape:document-units="px"
     showgrid="false"
     inkscape:zoom="4.4967572"
     inkscape:cx="31.578312"
     inkscape:cy="66.49236"
     inkscape:window-width="1920"
     inkscape:window-height="1012"
     inkscape:window-x="0"
     inkscape:window-y="0"
     inkscape:window-maximized="1"
     inkscape:current-layer="svg5" />
  <defs
     id="defs2">
    <linearGradient
       inkscape:collect="always"
       xlink:href="#linearGradient43829"
       id="linearGradient3525"
       x1="96"
       y1="116"
       x2="24.000002"
       y2="3.9999969"
       gradientUnits="userSpaceOnUse"
       gradientTransform="translate(3.9999978,4.0000032)" />
    <linearGradient
       inkscape:collect="always"
       id="linearGradient43829">
      <stop
         style="stop-color:#376d67;stop-opacity:1;"
         offset="0"
         id="stop43825" />
      <stop
         style="stop-color:#6cb086;stop-opacity:1;"
         offset="1"
         id="stop43827" />
    </linearGradient>
  </defs>
  <rect
     style="fill:url(#linearGradient3525);fill-opacity:1.0;stroke:none"
     id="rect184"
     width="111"
     height="111"
     x="8.5"
     y="8.5"
     ry="19.5" />
  <path
     d="m 89.153526,34.559465 c 0,0 -1.413419,0.64082 -4.658998,3.338158 -3.969158,3.297598 -6.427136,3.031759 -9.330935,2.544939 l -0.0228,0.0228 c -0.55316,-0.25258 -1.112379,-0.48916 -1.679779,-0.70144 v -0.0228 c -2.397899,-1.707779 -4.323158,-3.259878 -4.798137,-8.398395 -0.38858,-4.200358 -0.93398,-5.655157 -0.93398,-5.655157 -1.582339,-0.68778 -3.732918,-0.68756 -3.732918,-0.68756 0,0 -2.151159,2.2e-4 -3.732298,0.68814 0,0 -0.54688,1.453579 -0.93442,5.654697 -0.474879,5.138277 -2.401238,6.689756 -4.798157,8.398375 l -0.004,0.0286 c -0.56688,0.212 -1.124499,0.44916 -1.679659,0.7014 l -0.0228,-0.0228 c -2.903579,0.48744 -5.362457,0.751739 -9.331795,-2.545579 -3.244379,-2.695678 -4.658778,-3.338158 -4.658778,-3.338158 -1.601539,0.629 -3.121858,2.149319 -3.121858,2.149319 0,0 -1.521019,1.521019 -2.152539,3.125998 0,0 0.64226,1.414779 3.337818,4.659058 3.297538,3.969098 3.032159,6.429016 2.545699,9.331675 l 0.0228,0.0228 c -0.25144,0.55374 -0.48916,1.112539 -0.70214,1.679079 h -0.0228 c -1.707319,2.398299 -3.259538,4.323578 -8.397655,4.799077 -4.200238,0.388 -5.655997,0.93522 -5.655997,0.93522 C 24.00012,62.84983 24,64.997329 24,64.997329 c 0,0 0.0011,2.152121 0.68854,3.73302 0,0 1.453239,0.54746 5.654297,0.93376 5.137997,0.475439 6.687696,2.403098 8.397515,4.799057 h 0.0228 c 0.21258,0.56746 0.44974,1.125479 0.70124,1.679939 l -0.0228,0.0228 c 0.48858,2.903419 0.752419,5.361897 -2.544779,9.330815 -2.695558,3.245079 -3.338218,4.661638 -3.338218,4.661638 0.63386,1.604859 2.152639,3.123638 2.152639,3.123638 0,0 1.521539,1.521599 3.125978,2.152599 0,0 1.414279,-0.64014 4.658498,-3.337538 3.969458,-3.297078 6.428676,-3.029979 9.331615,-2.545339 l 0.0228,-0.0228 c 0.55546,0.25202 1.112719,0.48974 1.679939,0.70128 l -0.004,0.0286 c 2.398599,1.707639 4.323518,3.259518 4.799077,8.397475 0.388,4.200477 0.93482,5.656677 0.93482,5.656677 1.583039,0.68604 3.731038,0.68706 3.731038,0.68706 0,0 2.152139,-5.8e-4 3.732418,-0.6894 0,0 0.54744,-1.45186 0.93432,-5.653657 0.475439,-5.137937 2.403778,-6.688336 4.798477,-8.397875 l -0.004,-0.0286 c 0.56688,-0.212 1.125019,-0.4503 1.679779,-0.7015 l 0.0228,0.0228 c 2.903299,-0.4886 5.361657,-0.752259 9.330995,2.545099 3.244379,2.695638 4.660778,3.338638 4.660778,3.338638 1.605139,-0.63448 3.124098,-2.153399 3.124098,-2.153399 0,0 1.521519,-1.521519 2.152699,-3.126158 0,0 -0.6402,-1.414379 -3.338178,-4.658778 -3.297518,-3.969098 -3.030259,-6.428656 -2.544939,-9.331095 l -0.0228,-0.0228 c 0.25202,-0.55544 0.48974,-1.112719 0.7014,-1.679659 h 0.0342 c 1.707659,-2.397899 3.259718,-4.323098 8.397875,-4.798657 4.200819,-0.38802 5.657139,-0.93506 5.657139,-0.93506 0.6858,-1.583039 0.68598,-3.73144 0.68598,-3.73144 0,0 -3.6e-4,-2.151159 -0.68764,-3.732918 0,0 -1.4538,-0.54688 -5.655079,-0.93398 -5.138437,-0.474879 -6.689016,-2.401338 -8.398455,-4.798157 h -0.0228 c -0.212,-0.56688 -0.44804,-1.125399 -0.70146,-1.679699 l 0.0228,-0.0228 c -0.48744,-2.902379 -0.752559,-5.361657 2.544779,-9.331055 2.695678,-3.244379 3.339298,-4.660258 3.339298,-4.660258 -0.63334,-1.604519 -2.153659,-3.124858 -2.153659,-3.124858 0,0 -1.521599,-1.521459 -3.126218,-2.152639 z M 77.223032,78.225964 c -7.306116,7.306056 -19.15107,7.306176 -26.457206,1.2e-4 -7.306116,-7.306136 -7.305996,-19.151092 1.2e-4,-26.457208 7.305956,-7.305956 19.15091,-7.306056 26.457026,6e-5 7.306116,7.306056 7.306016,19.151072 6e-5,26.457028 z"
     style="display:inline;opacity:0.2;fill:#000000;fill-opacity:1;stroke:none;stroke-width:2;enable-background:new"
     id="path1237" />
  <path
     d="m 89.154007,33.559455 c 0,0 -1.413419,0.64082 -4.658997,3.338159 -3.969158,3.297598 -6.427137,3.031758 -9.330936,2.544938 l -0.0228,0.0228 c -0.553159,-0.25258 -1.112379,-0.489159 -1.679779,-0.701439 v -0.0228 C 71.063596,37.033333 69.138337,35.481234 68.663358,30.342717 68.274778,26.142359 67.729378,24.68756 67.729378,24.68756 66.147039,23.99978 63.99646,24 63.99646,24 c 0,0 -2.151159,2.2e-4 -3.732298,0.68814 0,0 -0.54688,1.453579 -0.93442,5.654697 -0.474879,5.138277 -2.401238,6.689756 -4.798157,8.398376 l -0.004,0.0286 c -0.56688,0.212 -1.1245,0.449159 -1.679659,0.701399 l -0.0228,-0.0228 c -2.903579,0.48744 -5.362458,0.75174 -9.331796,-2.545578 -3.244378,-2.695679 -4.658777,-3.338159 -4.658777,-3.338159 -1.60154,0.629 -3.121859,2.149319 -3.121859,2.149319 0,0 -1.521019,1.521019 -2.152539,3.125999 0,0 0.64226,1.414779 3.337819,4.659057 3.297538,3.969098 3.032158,6.429017 2.545698,9.331676 l 0.0228,0.0228 c -0.25144,0.553739 -0.489159,1.112539 -0.702139,1.679079 h -0.0228 c -1.70732,2.398299 -3.259539,4.323578 -8.397656,4.799077 -4.200238,0.388 -5.655997,0.93522 -5.655997,0.93522 -0.68728,1.582919 -0.6874,3.730418 -0.6874,3.730418 0,0 0.0011,2.152119 0.68854,3.733018 0,0 1.453239,0.54746 5.654297,0.93376 5.137997,0.475439 6.687696,2.403098 8.397516,4.799057 h 0.0228 c 0.21258,0.56746 0.449739,1.12548 0.701239,1.679939 l -0.0228,0.0228 c 0.48858,2.903419 0.75242,5.361898 -2.544778,9.330816 -2.695559,3.245078 -3.338219,4.661637 -3.338219,4.661637 0.63386,1.60486 2.152639,3.123639 2.152639,3.123639 0,0 1.521539,1.521599 3.125979,2.152599 0,0 1.414279,-0.64014 4.658497,-3.337539 3.969458,-3.297078 6.428677,-3.029978 9.331616,-2.545338 l 0.0228,-0.0228 c 0.555459,0.25202 1.112719,0.489739 1.679939,0.701279 l -0.004,0.0286 c 2.398599,1.70764 4.323518,3.259519 4.799077,8.397476 0.388,4.200477 0.93482,5.656677 0.93482,5.656677 C 61.843481,103.99898 63.99148,104 63.99148,104 c 0,0 2.152139,-5.8e-4 3.732418,-0.6894 0,0 0.54744,-1.45186 0.93432,-5.653657 0.475439,-5.137937 2.403778,-6.688336 4.798477,-8.397876 l -0.004,-0.0286 c 0.56688,-0.212 1.12502,-0.450299 1.679779,-0.701499 l 0.0228,0.0228 c 2.903299,-0.4886 5.361658,-0.75226 9.330996,2.545098 3.244378,2.695639 4.660777,3.338639 4.660777,3.338639 1.60514,-0.63448 3.124099,-2.153399 3.124099,-2.153399 0,0 1.521519,-1.521519 2.152699,-3.126159 0,0 -0.6402,-1.414379 -3.338179,-4.658777 -3.297518,-3.969098 -3.030258,-6.428657 -2.544938,-9.331096 l -0.0228,-0.0228 c 0.25202,-0.555439 0.489739,-1.112719 0.701399,-1.679659 h 0.0342 c 1.70766,-2.397899 3.259719,-4.323098 8.397876,-4.798657 4.200817,-0.38802 5.657137,-0.93506 5.657137,-0.93506 0.6858,-1.583039 0.68598,-3.731438 0.68598,-3.731438 0,0 -3.6e-4,-2.151159 -0.68764,-3.732918 0,0 -1.4538,-0.54688 -5.655077,-0.93398 -5.138437,-0.474879 -6.689016,-2.401338 -8.398456,-4.798157 h -0.0228 c -0.212,-0.56688 -0.448039,-1.1254 -0.701459,-1.679699 l 0.0228,-0.0228 c -0.48744,-2.902379 -0.75256,-5.361658 2.544778,-9.331056 2.695679,-3.244378 3.339299,-4.660257 3.339299,-4.660257 -0.63334,-1.60452 -2.153659,-3.124859 -2.153659,-3.124859 0,0 -1.521599,-1.521459 -3.126219,-2.152639 z M 77.223513,77.225953 c -7.306116,7.306057 -19.15107,7.306177 -26.457206,1.2e-4 -7.306117,-7.306136 -7.305997,-19.15109 1.2e-4,-26.457206 7.305956,-7.305957 19.15091,-7.306057 26.457026,6e-5 7.306117,7.306056 7.306017,19.15107 6e-5,26.457026 z"
     style="display:inline;fill:#ffffff;fill-opacity:1;stroke:none;stroke-width:2;enable-background:new"
     id="path429"
     sodipodi:nodetypes="ccccccccccccccccccccccccccccccccccccccccccccccccccccccccccccccccccccccccccccscc" />
  <path
     id="rect441"
     style="opacity:0.3;fill:#ffffff"
     d="M 28,9 C 17.474011,9 9,17.474011 9,28 v 1 C 9,18.474011 17.474011,10 28,10 h 72 c 10.52599,0 19,8.474011 19,19 V 28 C 119,17.474011 110.52599,9 100,9 Z" />
  <path
     id="rect443"
     style="opacity:0.3;fill:#ffffff"
     d="m 9,99 v 1 c 0,10.52599 8.474011,19 19,19 h 72 c 10.52599,0 19,-8.47401 19,-19 v -1 c 0,10.52599 -8.47401,19 -19,19 H 28 C 17.474011,118 9,109.52599 9,99 Z" />
  <path
     id="rect899"
     style="fill:#000000;stroke:none;stroke-width:2;opacity:0.5"
     d="M 28,8 C 16.920022,8 8,16.920022 8,28 v 72 c 0,11.07998 8.920022,20 20,20 h 72 c 11.07998,0 20,-8.92002 20,-20 V 28 C 120,16.920022 111.07998,8 100,8 Z m 0,1 h 72 c 10.52599,0 19,8.474011 19,19 v 72 c 0,10.52599 -8.47401,19 -19,19 H 28 C 17.474011,119 9,110.52599 9,100 V 28 C 9,17.474011 17.474011,9 28,9 Z" />
</svg>
