<?xml version="1.0" encoding="UTF-8" standalone="no"?>
<!-- Created with Inkscape (http://www.inkscape.org/) -->

<svg
   width="128"
   height="128"
   viewBox="0 0 128 128.00001"
   version="1.1"
   id="svg5"
   sodipodi:docname="yast-sound.svg"
   inkscape:version="1.2.1 (9c6d41e410, 2022-07-14)"
   xmlns:inkscape="http://www.inkscape.org/namespaces/inkscape"
   xmlns:sodipodi="http://sodipodi.sourceforge.net/DTD/sodipodi-0.dtd"
   xmlns:xlink="http://www.w3.org/1999/xlink"
   xmlns="http://www.w3.org/2000/svg"
   xmlns:svg="http://www.w3.org/2000/svg">
  <sodipodi:namedview
     id="namedview7"
     pagecolor="#ffffff"
     bordercolor="#666666"
     borderopacity="1.0"
     inkscape:showpageshadow="2"
     inkscape:pageopacity="0.0"
     inkscape:pagecheckerboard="0"
     inkscape:deskcolor="#d1d1d1"
     inkscape:document-units="px"
     showgrid="false"
     inkscape:zoom="6.171875"
     inkscape:cx="64.405063"
     inkscape:cy="64.243038"
     inkscape:window-width="1920"
     inkscape:window-height="1007"
     inkscape:window-x="0"
     inkscape:window-y="0"
     inkscape:window-maximized="1"
     inkscape:current-layer="svg5" />
  <defs
     id="defs2">
    <linearGradient
       inkscape:collect="always"
       xlink:href="#linearGradient1227"
       id="linearGradient3525"
       x1="49.837837"
       y1="59.747749"
       x2="14.162162"
       y2="4.2522521"
       gradientUnits="userSpaceOnUse"
       gradientTransform="matrix(2.0181818,0,0,2.0181818,-0.58181789,-0.58181778)" />
    <linearGradient
       inkscape:collect="always"
       id="linearGradient1227">
      <stop
         style="stop-color:#565f76;stop-opacity:1;"
         offset="0"
         id="stop1223" />
      <stop
         style="stop-color:#a3a5b6;stop-opacity:1;"
         offset="1"
         id="stop1225" />
    </linearGradient>
  </defs>
  <rect
     style="fill:url(#linearGradient3525);fill-opacity:1.0;stroke:none;stroke-width:2.01818"
     id="rect184"
     width="111"
     height="111"
     x="8.5"
     y="8.5"
     ry="19.5" />
  <path
     id="path1112"
     style="opacity:0.2;fill:#000000;stroke-width:8;stroke-linecap:round;-inkscape-stroke:none"
     d="m 84.867188,33.552328 c -0.12952,0.0092 -0.256924,0.02824 -0.382812,0.0625 -0.5136,0.13574 -0.952092,0.47023 -1.218752,0.929688 -0.55348,0.957708 -0.22444,2.182824 0.734376,2.734374 9.903584,5.717832 16,16.275268 16,27.710936 0,11.435676 -6.096412,21.993108 -16,27.710936 -0.958824,0.551548 -1.287856,1.776664 -0.734376,2.734376 C 83.817172,96.393962 85.042288,96.722994 86,96.169514 97.135628,89.74035 104,77.84815 104,64.989826 104,52.13151 97.135628,40.239298 86,33.81014 c -0.22852,-0.13144 -0.480736,-0.216392 -0.742188,-0.25 -0.12946,-0.0162 -0.261104,-0.017 -0.390624,-0.0078 z M 60,34.989828 44,48.989826 H 32 c -4.431988,0 -8,3.568012 -8,8 v 16 c 0,4.43198 3.568012,8 8,8 h 12 l 16,14 z m 13.4375,10.179686 c -0.691276,0.04976 -1.319488,0.45568 -1.640624,1.085936 -0.499636,0.983828 -0.10808,2.186424 0.875,2.6875 C 78.706448,52.017718 82.5,58.209254 82.5,64.982014 c 0,6.772764 -3.793552,12.964292 -9.828124,16.03906 -0.983096,0.501076 -1.37464,1.703676 -0.875,2.687504 0.501076,0.983088 1.703676,1.374632 2.6875,0.875 C 81.85188,80.829638 86.5,73.250766 86.5,64.982014 86.5,56.713266 81.85188,49.134382 74.484376,45.38045 c -0.23376,-0.1188 -0.488592,-0.19046 -0.75,-0.210936 -0.10074,-0.0078 -0.19812,-0.0072 -0.296876,0 z" />
  <path
     id="path1855"
     style="fill:#ffffff;fill-opacity:1;stroke-width:8;stroke-linecap:round"
     d="m 85.257812,32.561474 c -0.25892,-0.0324 -0.52166,-0.0138 -0.773436,0.05468 -0.5136,0.13574 -0.952092,0.47023 -1.218752,0.929688 -0.55348,0.95771 -0.224448,2.182824 0.734376,2.734374 9.903592,5.71784 16,16.275256 16,27.710936 0,11.435684 -6.096404,21.9931 -16,27.710936 -0.958824,0.551548 -1.287856,1.776664 -0.734376,2.734376 C 83.817172,95.395288 85.042288,95.72432 86,95.17084 97.13564,88.741672 104,76.849484 104,63.991152 104,51.132824 97.13564,39.24063 86,32.811466 c -0.22852,-0.13144 -0.480736,-0.216392 -0.742188,-0.25 z M 60,33.991162 44,47.99116 H 32 c -4.431982,0 -8,3.568016 -8,8 v 16 c 0,4.431976 3.568018,8 8,8 h 12 l 16,14 z m 13.734376,10.179686 c -0.805948,-0.06284 -1.570484,0.36564 -1.9375,1.085936 -0.499636,0.983824 -0.10808,2.186424 0.875,2.6875 C 78.706456,51.019056 82.5,57.21058 82.5,63.983348 c 0,6.772768 -3.793544,12.964288 -9.828124,16.03906 -0.983096,0.501076 -1.37464,1.703676 -0.875,2.687504 0.501076,0.983092 1.703676,1.374636 2.6875,0.875 C 81.851888,79.830972 86.5,72.252104 86.5,63.983348 86.5,55.714592 81.851888,48.13572 74.484376,44.381784 c -0.23376,-0.1188 -0.488592,-0.19044 -0.75,-0.21092 z"
     sodipodi:nodetypes="ccccscccsccccsssscccsccscccscss" />
  <path
     id="rect441"
     style="opacity:0.3;fill:#ffffff"
     d="M 28,9 C 17.474011,9 9,17.474011 9,28 v 1 C 9,18.474011 17.474011,10 28,10 h 72 c 10.52599,0 19,8.474011 19,19 V 28 C 119,17.474011 110.52599,9 100,9 Z" />
  <path
     id="rect443"
     style="opacity:0.3;fill:#ffffff"
     d="m 9,99 v 1 c 0,10.52599 8.474011,19 19,19 h 72 c 10.52599,0 19,-8.47401 19,-19 v -1 c 0,10.52599 -8.47401,19 -19,19 H 28 C 17.474011,118 9,109.52599 9,99 Z" />
  <path
     id="rect899"
     style="fill:#000000;stroke:none;stroke-width:2;opacity:0.5"
     d="M 28,8 C 16.920022,8 8,16.920022 8,28 v 72 c 0,11.07998 8.920022,20 20,20 h 72 c 11.07998,0 20,-8.92002 20,-20 V 28 C 120,16.920022 111.07998,8 100,8 Z m 0,1 h 72 c 10.52599,0 19,8.474011 19,19 v 72 c 0,10.52599 -8.47401,19 -19,19 H 28 C 17.474011,119 9,110.52599 9,100 V 28 C 9,17.474011 17.474011,9 28,9 Z" />
</svg>
